<?xml version="1.0" encoding="UTF-8" standalone="no"?>
<!-- Created with Inkscape (http://www.inkscape.org/) -->
<svg id="svg2408" xmlns:rdf="http://www.w3.org/1999/02/22-rdf-syntax-ns#" xmlns="http://www.w3.org/2000/svg" height="96" width="96" version="1.0" xmlns:cc="http://creativecommons.org/ns#" xmlns:xlink="http://www.w3.org/1999/xlink" xmlns:dc="http://purl.org/dc/elements/1.1/">
 <defs id="defs2410">
  <linearGradient id="linearGradient3637">
   <stop id="stop3639" style="stop-color:#f0f0f0" offset="0"/>
   <stop id="stop3641" style="stop-color:#aaa" offset="1"/>
  </linearGradient>
  <linearGradient id="ButtonShadow" y2="7.0165" gradientUnits="userSpaceOnUse" x2="45.448" gradientTransform="scale(1.0059 .99417)" y1="92.54" x1="45.448">
   <stop id="stop3750" offset="0"/>
   <stop id="stop3752" style="stop-opacity:.58824" offset="1"/>
  </linearGradient>
  <linearGradient id="linearGradient3737">
   <stop id="stop3739" style="stop-color:#fff" offset="0"/>
   <stop id="stop3741" style="stop-color:#fff;stop-opacity:0" offset="1"/>
  </linearGradient>
  <filter id="filter3174" color-interpolation-filters="sRGB">
   <feGaussianBlur id="feGaussianBlur3176" stdDeviation="1.71"/>
  </filter>
  <linearGradient id="linearGradient3188" y2="63.893" xlink:href="#linearGradient3737" gradientUnits="userSpaceOnUse" x2="36.357" y1="6" x1="36.357"/>
  <filter id="filter3794" height="1.384" width="1.384" color-interpolation-filters="sRGB" y="-.192" x="-.192">
   <feGaussianBlur id="feGaussianBlur3796" stdDeviation="5.28"/>
  </filter>
  <linearGradient id="linearGradient3613" y2="138.66" xlink:href="#linearGradient3737" gradientUnits="userSpaceOnUse" x2="48" y1="20.221" x1="48"/>
  <radialGradient id="radialGradient3619" xlink:href="#linearGradient3737" gradientUnits="userSpaceOnUse" cy="90.172" cx="48" gradientTransform="matrix(1.1573 0 0 .99591 -7.551 .19713)" r="42"/>
  <clipPath id="clipPath3613">
   <rect id="rect3615" style="fill:#fff" rx="6" ry="6" height="84" width="84" y="6" x="6"/>
  </clipPath>
  <linearGradient id="linearGradient2843" y2="5.9877" gradientUnits="userSpaceOnUse" x2="48" gradientTransform="translate(0,100)" y1="90" x1="48">
   <stop id="stop3702" style="stop-color:#2276c5" offset="0"/>
   <stop id="stop3704" style="stop-color:#68baf4" offset="1"/>
  </linearGradient>
  <clipPath id="clipPath3625">
   <path id="path3627" style="fill:#fff" d="m0 0v96h96v-96h-96zm12 6h72c3.324 0 6 2.676 6 6v72c0 3.324-2.676 6-6 6h-72c-3.324 0-6-2.676-6-6v-72c0-3.324 2.676-6 6-6z"/>
  </clipPath>
  <linearGradient id="linearGradient3643" y2="90.015" xlink:href="#linearGradient3637" gradientUnits="userSpaceOnUse" x2="44.512" y1="6" x1="44.512"/>
  <clipPath id="clipPath3649">
   <rect id="rect3651" style="fill:#fff" rx="4" ry="4" height="76" width="76" y="10" x="10"/>
  </clipPath>
  <filter id="filter3657" color-interpolation-filters="sRGB">
   <feGaussianBlur id="feGaussianBlur3659" stdDeviation="1.14"/>
  </filter>
  <linearGradient id="ButtonShadow-0" y2="7.0165" gradientUnits="userSpaceOnUse" x2="45.448" gradientTransform="matrix(1.0059 0 0 .99417 100 0)" y1="92.54" x1="45.448">
   <stop id="stop3750-8" offset="0"/>
   <stop id="stop3752-5" style="stop-opacity:.58824" offset="1"/>
  </linearGradient>
  <linearGradient id="linearGradient3780" y2="90.239" xlink:href="#ButtonShadow-0" gradientUnits="userSpaceOnUse" x2="32.251" gradientTransform="matrix(1.0238 0 0 -1.0119 -1.1429 98.071)" y1="6.1317" x1="32.251"/>
  <linearGradient id="linearGradient3721" y2="90.239" xlink:href="#ButtonShadow-0" gradientUnits="userSpaceOnUse" x2="32.251" gradientTransform="matrix(1,0,0,-1,0,97)" y1="6.1317" x1="32.251"/>
  <radialGradient id="radialGradient3619-3" xlink:href="#linearGradient3737" gradientUnits="userSpaceOnUse" cy="90.172" cx="48" gradientTransform="matrix(1.1573 0 0 .99591 -7.551 .19713)" r="42"/>
  <linearGradient id="linearGradient3905" y2="8" xlink:href="#linearGradient3637" gradientUnits="userSpaceOnUse" x2="120" gradientTransform="translate(-104,104)" y1="8" x1="104"/>
  <linearGradient id="linearGradient3913" y2="8" gradientUnits="userSpaceOnUse" x2="120" gradientTransform="translate(-144,104)" y1="8" x1="104">
   <stop id="stop3185-9" style="stop-color:#c80000" offset="0"/>
   <stop id="stop3187-6" style="stop-color:#f3604d" offset="1"/>
  </linearGradient>
  <linearGradient id="linearGradient3139" y2="11" xlink:href="#linearGradient3637" gradientUnits="userSpaceOnUse" x2="19" gradientTransform="matrix(0,3.125,-3.125,0,84.375,11.625)" y1="11" x1="3"/>
 </defs>
 <metadata id="metadata2413">
  <rdf:RDF>
   <cc:Work rdf:about="">
    <dc:format>image/svg+xml</dc:format>
    <dc:type rdf:resource="http://purl.org/dc/dcmitype/StillImage"/>
    <dc:title/>
   </cc:Work>
  </rdf:RDF>
 </metadata>
 <g id="layer2" style="display:none">
  <rect id="rect3745" style="opacity:.9;filter:url(#filter3174);fill:url(#ButtonShadow)" clip-path="url(#clipPath3625)" rx="6" ry="6" height="85" width="86" y="7" x="5"/>
 </g>
 <g id="layer3">
  <path id="path3786" style="opacity:0.08;fill:url(#linearGradient3780)" d="m12 3.9688c-5.5111 0-10.031 4.5201-10.031 10.031v71c0 5.5111 4.5202 10.031 10.031 10.031h72c5.5111 0 10.031-4.5202 10.031-10.031v-71c0-5.5111-4.52-10.031-10.031-10.031h-72zm0 2.0312h72c3.324 0 6 2.676 6 6v72c0 3.324-2.676 6-6 6h-72c-3.324 0-6-2.676-6-6v-72c0-3.324 2.676-6 6-6z"/>
  <path id="path3778" style="opacity:.1;fill:url(#linearGradient3780)" d="m12 4.9688c-4.9716 0-9.0312 4.0596-9.0312 9.0312v71c0 4.9716 4.0596 9.0312 9.0312 9.0312h72c4.9716 0 9.0312-4.0596 9.0312-9.0312v-71c0-4.9716-4.059-9.0312-9.031-9.0312h-72zm0 1.0312h72c3.324 0 6 2.676 6 6v72c0 3.324-2.676 6-6 6h-72c-3.324 0-6-2.676-6-6v-72c0-3.324 2.676-6 6-6z"/>
  <path id="path3770" style="opacity:.2;fill:url(#linearGradient3780)" d="m11.188 6.0312c-4.028 0.4107-7.188 3.8352-7.188 7.9688v71c0 4.4091 3.5909 8 8 8h72c4.4091 0 8-3.5909 8-8v-71c0-4.1971-3.259-7.646-7.375-7.9688 3.033 0.3062 5.375 2.8526 5.375 5.9688v72c0 3.324-2.676 6-6 6h-72c-3.324 0-6-2.676-6-6v-72c0-3.1162 2.3421-5.6626 5.375-5.9688-0.06227 0.00488-0.12563-0.00631-0.1875 0z"/>
  <path id="rect3723" style="opacity:.3;fill:url(#linearGradient3780)" d="m6.4375 9.75c-0.8995 1.177-1.4375 2.647-1.4375 4.25v71c0 3.878 3.122 7 7 7h72c3.878 0 7-3.122 7-7v-71c0-1.603-0.538-3.073-1.438-4.25 0.28 0.694 0.438 1.454 0.438 2.25v72c0 3.324-2.676 6-6 6h-72c-3.324 0-6-2.676-6-6v-72c0-0.796 0.1582-1.556 0.4375-2.25z"/>
  <path id="rect3716" style="opacity:.45;fill:url(#linearGradient3721)" d="m6 84v1c0 3.324 2.676 6 6 6h72c3.324 0 6-2.676 6-6v-1c0 3.324-2.676 6-6 6h-72c-3.324 0-6-2.676-6-6z"/>
 </g>
 <g id="layer1" style="display:none">
  <rect id="rect2419" style="opacity:.8" rx="6" ry="6" height="84" width="84" y="6" x="6"/>
  <path id="rect3726" style="opacity:0.08" d="m14 10c-2.216 0-4 1.784-4 4v68c0 2.216 1.784 4 4 4h68c2.216 0 4-1.784 4-4v-68c0-2.216-1.784-4-4-4h-68zm0 3.0625h68c0.57877 0 0.9375 0.35873 0.9375 0.9375v68c0 0.57877-0.35873 0.9375-0.9375 0.9375h-68c-0.57877 0-0.9375-0.35873-0.9375-0.9375v-68c0-0.57877 0.35873-0.9375 0.9375-0.9375z"/>
  <path id="rect3629" style="fill:url(#linearGradient3643)" d="m12 6c-3.324 0-6 2.676-6 6v72c0 3.324 2.676 6 6 6h72c3.324 0 6-2.676 6-6v-72c0-3.324-2.676-6-6-6h-72zm2 4h68c2.216 0 4 1.784 4 4v68c0 2.216-1.784 4-4 4h-68c-2.216 0-4-1.784-4-4v-68c0-2.216 1.784-4 4-4z"/>
  <path id="rect3728" style="fill:url(#linearGradient3188)" d="m12 6c-3.324 0-6 2.676-6 6v2 68 2c0 0.33472 0.04135 0.6507 0.09375 0.96875 0.0487 0.2956 0.09704 0.59692 0.1875 0.875 0.00988 0.03038 0.020892 0.0636 0.03125 0.09375 0.098865 0.28777 0.23488 0.54745 0.375 0.8125 0.14459 0.27351 0.31562 0.53562 0.5 0.78125 0.18438 0.24564 0.37378 0.47347 0.59375 0.6875 0.43995 0.42806 0.94291 0.81453 1.5 1.0938 0.27854 0.13961 0.57347 0.24695 0.875 0.34375-0.2562-0.10022-0.48671-0.23627-0.71875-0.375-0.00741-0.0044-0.023866 0.0045-0.03125 0-0.031933-0.0193-0.062293-0.04251-0.09375-0.0625-0.1204-0.0767-0.23102-0.16351-0.34375-0.25-0.10617-0.0808-0.21328-0.16111-0.3125-0.25-0.1778-0.162-0.3473-0.346-0.4999-0.531-0.1075-0.131-0.2183-0.266-0.3124-0.407-0.0251-0.038-0.0385-0.086-0.0626-0.125-0.0647-0.103-0.1302-0.204-0.1874-0.312-0.1011-0.195-0.2057-0.416-0.2813-0.625-0.008-0.022-0.0236-0.041-0.0313-0.063-0.0318-0.092-0.0358-0.187-0.0624-0.281-0.0304-0.107-0.0704-0.203-0.0938-0.313-0.0729-0.341-0.125-0.698-0.125-1.062v-2-68-2c0-2.782 2.2182-5 5-5h2 68 2c2.7818 0 5 2.2182 5 5v2 68 2c0 0.3643-0.05212 0.72099-0.125 1.0625-0.04415 0.20689-0.08838 0.39766-0.15625 0.59375-0.0077 0.02195-0.0233 0.04069-0.03125 0.0625-0.06274 0.17374-0.13838 0.36745-0.21875 0.53125-0.04158 0.0828-0.07904 0.16995-0.125 0.25-0.0546 0.09721-0.12677 0.18835-0.1875 0.28125-0.09411 0.14096-0.20492 0.276-0.3125 0.40625-0.14317 0.17445-0.30314 0.347-0.46875 0.5-0.01117 0.0102-0.01998 0.02115-0.03125 0.03125-0.13839 0.12556-0.28509 0.23444-0.4375 0.34375-0.10257 0.07315-0.20432 0.15336-0.3125 0.21875-0.0074 0.0045-0.02384-0.0044-0.03125 0-0.23204 0.13873-0.46255 0.27478-0.71875 0.375 0.30153-0.0968 0.59646-0.20414 0.875-0.34375 0.55709-0.27922 1.0601-0.66569 1.5-1.0938 0.21997-0.21403 0.40937-0.44186 0.59375-0.6875s0.35541-0.50774 0.5-0.78125c0.14012-0.26505 0.27614-0.52473 0.375-0.8125 0.01041-0.03078 0.02133-0.06274 0.03125-0.09375 0.09046-0.27808 0.1388-0.5794 0.1875-0.875 0.053-0.318 0.094-0.634 0.094-0.969v-2-68-2c0-3.324-2.676-6-6-6h-72z"/>
  <path id="path3615" style="opacity:.6;fill:url(#radialGradient3619)" d="m12 90c-3.324 0-6-2.676-6-6v-2-68-2c0-0.33472 0.04135-0.6507 0.09375-0.96875 0.0487-0.2956 0.09704-0.59692 0.1875-0.875 0.0099-0.03 0.0209-0.063 0.0313-0.094 0.0989-0.2873 0.2349-0.547 0.375-0.812 0.1446-0.2735 0.3156-0.5356 0.5-0.7812 0.1844-0.2457 0.3738-0.4735 0.5937-0.6876 0.44-0.428 0.943-0.8145 1.5-1.0937 0.2786-0.1396 0.5735-0.2469 0.8748-0.3437-0.256 0.1002-0.4865 0.2362-0.7185 0.375-0.00741 0.0044-0.023866-0.0045-0.03125 0-0.031933 0.0193-0.062293 0.04251-0.09375 0.0625-0.1204 0.0767-0.23102 0.16351-0.34375 0.25-0.10617 0.0808-0.21328 0.16111-0.3125 0.25-0.1779 0.1614-0.3474 0.3453-0.5 0.5312-0.1075 0.1303-0.2183 0.2653-0.3124 0.4063-0.0251 0.0383-0.0385 0.0858-0.0626 0.125-0.0647 0.103-0.1302 0.2045-0.1874 0.3124-0.1011 0.1948-0.2057 0.4158-0.2813 0.625-0.008 0.0219-0.0236 0.0406-0.0313 0.0626-0.0318 0.0919-0.0358 0.1868-0.0624 0.2812-0.0304 0.1066-0.0704 0.203-0.0938 0.3125-0.0729 0.3415-0.125 0.6985-0.125 1.0625v2 68 2c0 2.7818 2.2182 5 5 5h2 68 2c2.7818 0 5-2.2182 5-5v-2-68-2c0-0.364-0.052-0.721-0.125-1.0625-0.044-0.2069-0.088-0.3977-0.156-0.5937-0.008-0.022-0.024-0.0407-0.031-0.0626-0.063-0.1737-0.139-0.3674-0.219-0.5312-0.042-0.0828-0.079-0.17-0.125-0.25-0.055-0.0972-0.127-0.1884-0.188-0.2812-0.094-0.141-0.205-0.276-0.312-0.4063-0.143-0.1745-0.303-0.347-0.469-0.5-0.011-0.0102-0.02-0.0211-0.031-0.0313-0.139-0.1255-0.285-0.2344-0.438-0.3437-0.102-0.0731-0.204-0.1534-0.312-0.2187-0.0074-0.0045-0.02384 0.0044-0.03125 0-0.23204-0.13873-0.46255-0.27478-0.71875-0.375 0.30153 0.0968 0.59646 0.20414 0.875 0.34375 0.55709 0.27922 1.0601 0.66569 1.5 1.0938 0.21997 0.21403 0.40937 0.44186 0.59375 0.6875s0.35541 0.50774 0.5 0.78125c0.14012 0.26505 0.27614 0.52473 0.375 0.8125 0.01041 0.03078 0.02133 0.06274 0.03125 0.09375 0.09046 0.27808 0.1388 0.5794 0.1875 0.875 0.053 0.318 0.094 0.634 0.094 0.969v2 68 2c0 3.324-2.676 6-6 6h-72z"/>
  <rect id="rect2841" style="fill:url(#linearGradient2843)" rx="6" ry="6" height="84" width="84" y="106" x="6"/>
  <rect id="rect3634" style="fill:#f00" rx="4" ry="4" height="76" width="76" y="110" x="10"/>
  <path id="rect3647" style="block-progression:tb;text-indent:0;filter:url(#filter3657);color:#000000;text-transform:none;display:inline" d="m14 9c-2.7527 0-5 2.2473-5 5v68c0 2.7527 2.2473 5 5 5h68c2.7527 0 5-2.2473 5-5v-68c0-2.753-2.247-5-5-5h-68zm0 2h68c1.6793 0 3 1.3207 3 3v68c0 1.6793-1.3207 3-3 3h-68c-1.6793 0-3-1.3207-3-3v-68c0-1.6793 1.3207-3 3-3z" clip-path="url(#clipPath3649)" transform="translate(-110)"/>
  <path id="path3709" style="opacity:0.16" d="m14.089 10c-2.216 0-4 1.784-4 4v68c0 2.216 1.784 4 4 4h68c2.216 0 4-1.784 4-4v-68c0-2.216-1.784-4-4-4h-68zm0 2h68c1.1403 0 2 0.8597 2 2v68c0 1.1403-0.8597 2-2 2h-68c-1.1403 0-2-0.8597-2-2v-68c0-1.1403 0.8597-2 2-2z"/>
  <path id="path3707" style="opacity:0.36" d="m14 10c-2.216 0-4 1.784-4 4v68c0 2.216 1.784 4 4 4h68c2.216 0 4-1.784 4-4v-68c0-2.216-1.784-4-4-4h-68zm0 1h68c1.6738 0 3 1.3262 3 3v68c0 1.6738-1.3262 3-3 3h-68c-1.6738 0-3-1.3262-3-3v-68c0-1.6738 1.3262-3 3-3z"/>
 </g>
 <g id="layer4">
  <rect id="rect2419-9" style="opacity:.6" rx="6" ry="6" height="84" width="84" y="6" x="6"/>
  <path id="rect3728-4" style="opacity:0.01;fill:url(#linearGradient3188)" d="m12 6c-3.324 0-6 2.676-6 6v2 68 2c0 0.33472 0.04135 0.6507 0.09375 0.96875 0.0487 0.2956 0.09704 0.59692 0.1875 0.875 0.00988 0.03038 0.020892 0.0636 0.03125 0.09375 0.098865 0.28777 0.23488 0.54745 0.375 0.8125 0.14459 0.27351 0.31562 0.53562 0.5 0.78125 0.18438 0.24564 0.37378 0.47347 0.59375 0.6875 0.43995 0.42806 0.94291 0.81453 1.5 1.0938 0.27854 0.13961 0.57347 0.24695 0.875 0.34375-0.2562-0.10022-0.48671-0.23627-0.71875-0.375-0.00741-0.0044-0.023866 0.0045-0.03125 0-0.031933-0.0193-0.062293-0.04251-0.09375-0.0625-0.1204-0.0767-0.23102-0.16351-0.34375-0.25-0.10617-0.0808-0.21328-0.16111-0.3125-0.25-0.1778-0.162-0.3473-0.346-0.4999-0.531-0.1075-0.131-0.2183-0.266-0.3124-0.407-0.0251-0.038-0.0385-0.086-0.0626-0.125-0.0647-0.103-0.1302-0.204-0.1874-0.312-0.1011-0.195-0.2057-0.416-0.2813-0.625-0.008-0.022-0.0236-0.041-0.0313-0.063-0.0318-0.092-0.0358-0.187-0.0624-0.281-0.0304-0.107-0.0704-0.203-0.0938-0.313-0.0729-0.341-0.125-0.698-0.125-1.062v-2-68-2c0-2.782 2.2182-5 5-5h2 68 2c2.7818 0 5 2.2182 5 5v2 68 2c0 0.3643-0.05212 0.72099-0.125 1.0625-0.04415 0.20689-0.08838 0.39766-0.15625 0.59375-0.0077 0.02195-0.0233 0.04069-0.03125 0.0625-0.06274 0.17374-0.13838 0.36745-0.21875 0.53125-0.04158 0.0828-0.07904 0.16995-0.125 0.25-0.0546 0.09721-0.12677 0.18835-0.1875 0.28125-0.09411 0.14096-0.20492 0.276-0.3125 0.40625-0.14317 0.17445-0.30314 0.347-0.46875 0.5-0.01117 0.0102-0.01998 0.02115-0.03125 0.03125-0.13839 0.12556-0.28509 0.23444-0.4375 0.34375-0.10257 0.07315-0.20432 0.15336-0.3125 0.21875-0.0074 0.0045-0.02384-0.0044-0.03125 0-0.23204 0.13873-0.46255 0.27478-0.71875 0.375 0.30153-0.0968 0.59646-0.20414 0.875-0.34375 0.55709-0.27922 1.0601-0.66569 1.5-1.0938 0.21997-0.21403 0.40937-0.44186 0.59375-0.6875s0.35541-0.50774 0.5-0.78125c0.14012-0.26505 0.27614-0.52473 0.375-0.8125 0.01041-0.03078 0.02133-0.06274 0.03125-0.09375 0.09046-0.27808 0.1388-0.5794 0.1875-0.875 0.053-0.318 0.094-0.634 0.094-0.969v-2-68-2c0-3.324-2.676-6-6-6h-72z"/>
  <path id="path3615-6" style="opacity:.15;fill:url(#radialGradient3619-3)" d="m12 90c-3.324 0-6-2.676-6-6v-2-68-2c0-0.33472 0.04135-0.6507 0.09375-0.96875 0.0487-0.2956 0.09704-0.59692 0.1875-0.875 0.0099-0.03 0.0209-0.063 0.0313-0.094 0.0989-0.2873 0.2349-0.547 0.375-0.812 0.1446-0.2735 0.3156-0.5356 0.5-0.7812 0.1844-0.2457 0.3738-0.4735 0.5937-0.6876 0.44-0.428 0.943-0.8145 1.5-1.0937 0.2786-0.1396 0.5735-0.2469 0.8748-0.3437-0.256 0.1002-0.4865 0.2362-0.7185 0.375-0.00741 0.0044-0.023866-0.0045-0.03125 0-0.031933 0.0193-0.062293 0.04251-0.09375 0.0625-0.1204 0.0767-0.23102 0.16351-0.34375 0.25-0.10617 0.0808-0.21328 0.16111-0.3125 0.25-0.1779 0.1614-0.3474 0.3453-0.5 0.5312-0.1075 0.1303-0.2183 0.2653-0.3124 0.4063-0.0251 0.0383-0.0385 0.0858-0.0626 0.125-0.0647 0.103-0.1302 0.2045-0.1874 0.3124-0.1011 0.1948-0.2057 0.4158-0.2813 0.625-0.008 0.0219-0.0236 0.0406-0.0313 0.0626-0.0318 0.0919-0.0358 0.1868-0.0624 0.2812-0.0304 0.1066-0.0704 0.203-0.0938 0.3125-0.0729 0.3415-0.125 0.6985-0.125 1.0625v2 68 2c0 2.7818 2.2182 5 5 5h2 68 2c2.7818 0 5-2.2182 5-5v-2-68-2c0-0.364-0.052-0.721-0.125-1.0625-0.044-0.2069-0.088-0.3977-0.156-0.5937-0.008-0.022-0.024-0.0407-0.031-0.0626-0.063-0.1737-0.139-0.3674-0.219-0.5312-0.042-0.0828-0.079-0.17-0.125-0.25-0.055-0.0972-0.127-0.1884-0.188-0.2812-0.094-0.141-0.205-0.276-0.312-0.4063-0.143-0.1745-0.303-0.347-0.469-0.5-0.011-0.0102-0.02-0.0211-0.031-0.0313-0.139-0.1255-0.285-0.2344-0.438-0.3437-0.102-0.0731-0.204-0.1534-0.312-0.2187-0.0074-0.0045-0.02384 0.0044-0.03125 0-0.23204-0.13873-0.46255-0.27478-0.71875-0.375 0.30153 0.0968 0.59646 0.20414 0.875 0.34375 0.55709 0.27922 1.0601 0.66569 1.5 1.0938 0.21997 0.21403 0.40937 0.44186 0.59375 0.6875s0.35541 0.50774 0.5 0.78125c0.14012 0.26505 0.27614 0.52473 0.375 0.8125 0.01041 0.03078 0.02133 0.06274 0.03125 0.09375 0.09046 0.27808 0.1388 0.5794 0.1875 0.875 0.053 0.318 0.094 0.634 0.094 0.969v2 68 2c0 3.324-2.676 6-6 6h-72z"/>
 </g>
 <g id="layer5" style="display:none">
  <rect id="rect3171" style="opacity:.1;filter:url(#filter3794);stroke:#fff;stroke-linecap:round;stroke-width:.5;fill:url(#linearGradient3613)" clip-path="url(#clipPath3613)" rx="12" ry="12" height="66" width="66" y="15" x="15"/>
 </g>
 <g id="layer6">
  <path id="path3938" style="opacity:.1;color:#000000" d="m48 22c-14.889 0-27 12.111-27 27 0 2.217 0.27383 4.3677 0.78125 6.4375h-0.03125c-0.000125-0.000566 0.02737 0.01673 0.03125 0.03125 0.0122 0.04563 0.03179 0.12674 0.03125 0.125-0.000716-0.0023 0.06341 0.18972 0.0625 0.1875-0.000907-0.0022 0.06359 0.12714 0.0625 0.125-0.0011-0.0021 0.09502 0.15829 0.09375 0.15625-0.0013-0.002 0.09519 0.15817 0.09375 0.15625-0.000402-0.000538 0.01907 0.01633 0.03125 0.03125-0.0066 0.01528-0.03148 0.03185-0.03125 0.03125 0.000934-0.0025-0.0632 0.19006-0.0625 0.1875 0.000697-0.0026-0.0317 0.19012-0.03125 0.1875 0.000454-0.0026-0.03146 0.19015-0.03125 0.1875 0.000172-0.0022 0.0014 0.11324 0 0.15625-0.00028 0.0086 0.000007 0.03169 0 0.03125v5.968h-6c0.0028 0.000035-0.19031 0.000246-0.1875 0 0.0028-0.000246-0.19028 0.03178-0.1875 0.03125 0.0028-0.000525-0.19021 0.03205-0.1875 0.03125 0.0027-0.000799-0.19012 0.06356-0.1875 0.0625 0.0026-0.0011-0.19 0.09507-0.1875 0.09375 0.0025-0.0013-0.18985 0.09531-0.1875 0.09375 0.0024-0.0016-0.15844 0.12679-0.15625 0.125 0.0022-0.0018-0.15825 0.127-0.15625 0.125s-0.12679 0.15844-0.125 0.15625c0.0018-0.0022-0.12656 0.1586-0.125 0.15625 0.0016-0.0024-0.09507 0.19-0.09375 0.1875 0.0013-0.0025-0.09482 0.19012-0.09375 0.1875 0.0011-0.0026-0.0633 0.19021-0.0625 0.1875 0.000799-0.0027-0.03177 0.19028-0.03125 0.1875 0.000525-0.0028-0.0315 0.19031-0.03125 0.1875 0.000246-0.0028 0.000035 0.19032 0 0.1875v8c0.000035-0.0028 0.000246 0.19031 0 0.1875-0.000246-0.0028 0.03177 0.19028 0.03125 0.1875-0.000525-0.0028 0.03205 0.19021 0.03125 0.1875-0.000799-0.0027 0.06357 0.19012 0.0625 0.1875-0.0011-0.0026 0.09507 0.19 0.09375 0.1875-0.0013-0.0025 0.09531 0.18985 0.09375 0.1875-0.0016-0.0024 0.12679 0.15844 0.125 0.15625-0.0018-0.0022 0.127 0.15825 0.125 0.15625s0.15844 0.12679 0.15625 0.125c-0.0022-0.0018 0.1586 0.12656 0.15625 0.125-0.0024-0.0016 0.19 0.09507 0.1875 0.09375-0.0025-0.0013 0.19012 0.09481 0.1875 0.09375-0.0026-0.0011 0.19021 0.0633 0.1875 0.0625-0.0027-0.000799 0.19028 0.03177 0.1875 0.03125-0.0028-0.000525 0.19031 0.0315 0.1875 0.03125-0.0028-0.000246 0.19032-0.000035 0.1875 0h6v6c0.000035-0.0028 0.000246 0.19031 0 0.1875-0.000246-0.0028 0.03177 0.19028 0.03125 0.1875-0.000525-0.0028 0.03205 0.19021 0.03125 0.1875-0.000799-0.0027 0.06357 0.19012 0.0625 0.1875-0.0011-0.0026 0.09507 0.19 0.09375 0.1875-0.0013-0.0025 0.09531 0.18985 0.09375 0.1875-0.0016-0.0024 0.12679 0.15844 0.125 0.15625-0.0018-0.0022 0.127 0.15825 0.125 0.15625s0.15844 0.12679 0.15625 0.125c-0.0022-0.0018 0.1586 0.12656 0.15625 0.125-0.0024-0.0016 0.19 0.09507 0.1875 0.09375-0.0025-0.0013 0.19012 0.09481 0.1875 0.09375-0.0026-0.0011 0.19021 0.0633 0.1875 0.0625-0.0027-0.000799 0.19028 0.03177 0.1875 0.03125-0.0028-0.000525 0.19031 0.0315 0.1875 0.03125-0.0028-0.000246 0.19032-0.000035 0.1875 0h8c-0.0028-0.000035 0.19031-0.000246 0.1875 0-0.0028 0.000246 0.19028-0.03177 0.1875-0.03125-0.0028 0.000525 0.19021-0.03205 0.1875-0.03125-0.0027 0.000799 0.19012-0.06356 0.1875-0.0625-0.0026 0.0011 0.19-0.09507 0.1875-0.09375-0.0025 0.0013 0.18985-0.09531 0.1875-0.09375-0.0024 0.0016 0.15844-0.12679 0.15625-0.125-0.0022 0.0018 0.15825-0.127 0.15625-0.125s0.12679-0.15844 0.125-0.15625c-0.0018 0.0022 0.12656-0.1586 0.125-0.15625-0.0016 0.0024 0.09507-0.19 0.09375-0.1875-0.0013 0.0025 0.09481-0.19012 0.09375-0.1875-0.0011 0.0026 0.0633-0.19021 0.0625-0.1875-0.000799 0.0027 0.03178-0.19028 0.03125-0.1875-0.000525 0.0028 0.0315-0.19031 0.03125-0.1875-0.000246 0.0028-0.000035-0.19032 0-0.1875v-6h6c-0.0028-0.000035 0.19031-0.000246 0.1875 0-0.0028 0.000246 0.19028-0.03177 0.1875-0.03125-0.0028 0.000525 0.19021-0.03205 0.1875-0.03125-0.0027 0.000799 0.19012-0.06356 0.1875-0.0625 0.0056 0.0046 0.03156 0.00023 0.03125 0-0.0019-0.0014 0.15829 0.09502 0.15625 0.09375-0.002-0.0013 0.15839 0.09484 0.15625 0.09375-0.0021-0.0011 0.12722 0.06341 0.125 0.0625-0.0022-0.000907 0.18979 0.06322 0.1875 0.0625-0.0017-0.000543 0.07937 0.01905 0.125 0.03125 0.01452 0.0039 0.03182 0.03137 0.03125 0.03125v-0.03125c2.069 0.507 4.22 0.781 6.437 0.781 14.889 0 27-12.111 27-27s-12.111-27-27-27zm-3.375 10.594c-1.0593 0.91083-1.75 2.2278-1.75 3.7188v12.875c0 2.6854 2.1669 4.8935 4.8438 4.9375 0.02889 0.000474 0.04854 0.000117 0.0625 0 0.007-0.000058 0.02793 0 0.03125 0 0.10157 0.0011 0.22713 0 0.1875 0h0.1875 10.75c2.8169 0 5.125-2.3081 5.125-5.125s-2.3081-5.125-5.125-5.125h-5.8125v-7.5625c0-1.4909-0.69075-2.8079-1.75-3.7188 7.642 1.554 13.374 8.287 13.374 16.405 0 9.2774-7.4726 16.75-16.75 16.75-1.879 0-3.6502-0.33316-5.3438-0.90625v0.03125c0.0016 0.000577-0.09538-0.06298-0.09375-0.0625 0.0016 0.00048-0.12666-0.03163-0.125-0.03125 0.0017 0.000381-0.12668-0.00028-0.125 0 0.0017 0.00028-0.12669-0.03143-0.125-0.03125 0.0017 0.000179-0.09545-0.000077-0.09375 0 0.0013 0.000058-0.05982 0.000539-0.09375 0-0.0082-0.05904-0.0316-0.12688-0.03125-0.125 0.000525 0.0028-0.03205-0.19021-0.03125-0.1875 0.000799 0.0027-0.06356-0.19012-0.0625-0.1875 0.0011 0.0026-0.09507-0.19-0.09375-0.1875 0.0013 0.0025-0.09531-0.18985-0.09375-0.1875 0.0016 0.0024-0.12679-0.15844-0.125-0.15625 0.0018 0.0022-0.127-0.15825-0.125-0.15625s-0.15844-0.12679-0.15625-0.125c0.0022 0.0018-0.1586-0.12656-0.15625-0.125 0.0024 0.0016-0.19-0.09507-0.1875-0.09375 0.0025 0.0013-0.19012-0.09481-0.1875-0.09375 0.0026 0.0011-0.19021-0.0633-0.1875-0.0625 0.0027 0.000799-0.19028-0.03178-0.1875-0.03125 0.0028 0.000525-0.19031-0.0315-0.1875-0.03125 0.0028 0.000246-0.19032 0.000035-0.1875 0h-6v-6c-0.000035 0.0028-0.000246-0.19031 0-0.1875 0.000246 0.0028-0.03178-0.19028-0.03125-0.1875 0.000525 0.0028-0.03205-0.19021-0.03125-0.1875 0.000799 0.0027-0.06356-0.19012-0.0625-0.1875 0.0011 0.0026-0.09507-0.19-0.09375-0.1875 0.0013 0.0025-0.09531-0.18985-0.09375-0.1875 0.0016 0.0024-0.12679-0.15844-0.125-0.15625 0.0018 0.0022-0.127-0.15825-0.125-0.15625s-0.15844-0.12679-0.15625-0.125c0.0022 0.0018-0.1586-0.12656-0.15625-0.125 0.0024 0.0016-0.19-0.09507-0.1875-0.09375 0.0025 0.0013-0.19012-0.09481-0.1875-0.09375 0.0026 0.0011-0.19021-0.0633-0.1875-0.0625 0.0027 0.000799-0.19028-0.03178-0.1875-0.03125 0.0019 0.000355-0.06596-0.02307-0.125-0.03125-0.000539-0.03393-0.000058-0.09502 0-0.09375 0.000077 0.0017-0.000179-0.09544 0-0.09375 0.000179 0.0017-0.03153-0.12668-0.03125-0.125 0.00028 0.0017-0.000381-0.12666 0-0.125 0.000381 0.0017-0.03173-0.12663-0.03125-0.125 0.00048 0.0016-0.06308-0.09535-0.0625-0.09375h0.03125c-0.573-1.694-0.906-3.465-0.906-5.344 0-8.1178 5.7316-14.851 13.375-16.406z" transform="translate(2,-2)"/>
  <path id="path3934" style="opacity:.15;color:#000000" d="m48 23.031c-14.324 0-25.969 11.645-25.969 25.969 0 2.1441 0.25773 4.2206 0.75 6.2188a0.95693 0.95693 0 0 0 0.9375 0.75h6.5312a0.95693 0.95693 0 0 0 0.907 -1.281c-0.608-1.797-0.937-3.694-0.937-5.688 0-9.8382 7.943-17.781 17.781-17.781 9.8382 0 17.781 7.943 17.781 17.781 0 9.8382-7.943 17.781-17.781 17.781-1.9939 0-3.8913-0.32966-5.6875-0.9375a0.95693 0.95693 0 0 0 -1.282 0.906v6.5312a0.95693 0.95693 0 0 0 0.75 0.9375c1.9982 0.49227 4.0747 0.75 6.2188 0.75 14.324 0.001 25.969-11.644 25.969-25.968s-11.645-25.969-25.969-25.969zm-0.1875 9.375c-2.1366 0-3.9062 1.7696-3.9062 3.9062v12.875c0 2.1153 1.7361 3.8716 3.8438 3.9062 0.02125 0.000349 0.04117 0 0.0625 0 0.08412 0.0019 0.16761 0 0.1875 0h0.1875 10.75c2.2448 0 4.0938-1.849 4.0938-4.0938s-1.849-4.0938-4.0938-4.0938h-6.8438v-8.5938c0-2.1366-1.7696-3.9062-3.9062-3.9062h-0.375zm-23.812 23.625a0.95693 0.95693 0 0 0 -0.969 0.969v7.0312h-7.0312a0.95693 0.95693 0 0 0 -0.969 0.969v8a0.95693 0.95693 0 0 0 0.969 0.969h7.0312v7.0312a0.95693 0.95693 0 0 0 0.969 0.969h8a0.95693 0.95693 0 0 0 0.969 -0.969v-7.0312h7.0312a0.95693 0.95693 0 0 0 0.969 -0.969v-8a0.95693 0.95693 0 0 0 -0.969 -0.969h-7.0312v-7.0312a0.95693 0.95693 0 0 0 -0.969 -0.969h-8z" transform="translate(2,-2)"/>
  <path id="path3928" style="opacity:.3;color:#000000" d="m50 22c-13.807 0-25 11.193-25 25 0 2.0685 0.24517 4.0777 0.71875 6h6.531c-0.6388-1.8877-1-3.8966-1-6 0-10.355 8.3947-18.75 18.75-18.75s18.75 8.3947 18.75 18.75-8.3947 18.75-18.75 18.75c-2.1034 0-4.1123-0.3612-6-1v6.5312c1.922 0.474 3.932 0.719 6 0.719 13.807 0 25-11.193 25-25s-11.193-25-25-25zm-0.1875 9.375c-1.6124 0-2.9375 1.325-2.9375 2.9375v12.875c0 1.6124 1.3251 2.9375 2.9375 2.9375 0.06678 0.0044 0.11962 0 0.1875 0h0.1875 10.75c1.7312 0 3.125-1.3938 3.125-3.125s-1.3938-3.125-3.125-3.125h-7.8125v-9.5625c0-1.6124-1.325-2.9375-2.9375-2.9375h-0.375zm-23.812 23.625v8h-8v8h8v8h8v-8h8v-8h-8v-8h-8z"/>
  <rect id="rect3897" style="color:#000000;fill:url(#linearGradient3905)" transform="matrix(0,1,1,0,0,0)" height="16" width="16" y="104" x="0"/>
  <text id="text3907" y="48" x="104" xml:space="preserve" style="font-size:4px;letter-spacing:0px;word-spacing:0px;font-family:Liberation Sans;line-height:125%;fill:#000000"><tspan id="tspan3909" y="48" x="104">Shadow opacity : 30, 15, 10, (8)</tspan></text>
  <rect id="rect3911" style="color:#000000;fill:url(#linearGradient3913)" transform="rotate(-90)" height="16" width="16" y="104" x="-40"/>
  <text id="text3951" y="32" x="124" xml:space="preserve" style="font-size:4px;letter-spacing:0px;word-spacing:0px;font-family:Liberation Sans;line-height:125%;fill:#000000"><tspan id="tspan3953" y="32" x="124">Bevel opacity : 30 / 10</tspan></text>
  <text id="text3955" y="8" x="124" xml:space="preserve" style="font-size:4px;letter-spacing:0px;word-spacing:0px;font-family:Liberation Sans;line-height:125%;fill:#000000"><tspan id="tspan3957" y="8" x="124">Bevel opacity : 75 / 15</tspan></text>
  <path id="path3836" style="color:#000000;fill:url(#linearGradient3139)" d="m50 21c-13.807 0-25 11.193-25 25 0 2.0685 0.24517 4.0777 0.71875 6h6.531c-0.6388-1.8877-1-3.8966-1-6 0-10.355 8.3947-18.75 18.75-18.75s18.75 8.3947 18.75 18.75-8.3947 18.75-18.75 18.75c-2.1034 0-4.1123-0.3612-6-1v6.5312c1.922 0.474 3.932 0.719 6 0.719 13.807 0 25-11.193 25-25s-11.193-25-25-25zm-0.1875 9.375c-1.6124 0-2.9375 1.325-2.9375 2.9375v12.875c0 1.6124 1.3251 2.9375 2.9375 2.9375 0.06678 0.0044 0.11962 0 0.1875 0h0.1875 10.75c1.7312 0 3.125-1.3938 3.125-3.125s-1.3938-3.125-3.125-3.125h-7.8125v-9.5625c0-1.6124-1.325-2.9375-2.9375-2.9375h-0.375zm-23.812 23.625v8h-8v8h8v8h8v-8h8v-8h-8v-8h-8z"/>
  <path id="path3910" style="opacity:.75;color:#000000;fill:#fff" d="m50 21c-13.807 0-25 11.193-25 25 0 0.17933-0.0037 0.35282 0 0.53125 0.252-13.589 11.351-24.531 25-24.531 13.639 0 24.732 10.925 25 24.5 0.003-0.167 0-0.332 0-0.5 0-13.807-11.193-25-25-25zm-0.1875 9.375c-1.6124 0-2.9375 1.325-2.9375 2.9375v1c0-1.6124 1.3251-2.9375 2.9375-2.9375h0.375c1.6124 0 2.9375 1.325 2.9375 2.9375v-1c0-1.6124-1.325-2.9375-2.9375-2.9375h-0.375zm3.3125 12.5v1h7.8125c1.5577 0 2.8206 1.1377 3.0625 2.625 0.02695-0.16571 0.0625-0.32645 0.0625-0.5 0-1.7312-1.3938-3.125-3.125-3.125h-7.8125zm15.595 3.625c-0.269 10.12-8.534 18.25-18.719 18.25-2.1034 0-4.1123-0.3612-6-1v1c1.8877 0.6388 3.8966 1 6 1 10.355 0 18.75-8.3947 18.75-18.75 0-0.16987-0.02676-0.33121-0.03125-0.5zm-37.438 0.0625c-0.003 0.148-0.031 0.289-0.031 0.438 0 1.7368 0.24205 3.4071 0.6875 5h0.312c-0.581-1.718-0.91-3.539-0.969-5.438zm-5.281 7.438v1h8v-1h-8zm-8 8v1h8v-1h-8zm16 0v1h8v-1h-8z"/>
  <path id="path3919" style="opacity:.15;color:#000000" d="m50 26.25c-10.355 0-18.75 8.3947-18.75 18.75 0 0.18943 0.02545 0.37463 0.03125 0.5625 0.237-10.149 8.512-18.312 18.719-18.312 10.185 0 18.45 8.13 18.719 18.25 0.004-0.169 0.031-0.33 0.031-0.5 0-10.355-8.395-18.75-18.75-18.75zm-3.125 18.938v1c0 1.6124 1.3251 2.9375 2.9375 2.9375 0.06678 0.0044 0.11962 0 0.1875 0h0.1875 10.75c1.7312 0 3.125-1.3938 3.125-3.125 0-0.17355-0.03555-0.33429-0.0625-0.5-0.24188 1.4873-1.5048 2.625-3.0625 2.625h-10.75-0.1875c-0.06788 0-0.12072 0.0044-0.1875 0-1.6124 0-2.9375-1.325-2.9375-2.9375zm28.125 0.312c-0.268 13.575-11.361 24.5-25 24.5-2.068 0-4.078-0.245-6-0.719v1c1.922 0.474 3.932 0.719 6 0.719 13.807 0 25-11.193 25-25 0-0.16828 0.0033-0.33251 0-0.5zm-50 0.03125c-0.0029 0.15707 0 0.31099 0 0.46875 0 2.0685 0.24517 4.0777 0.71875 6h6.531c-0.11135-0.32904-0.21846-0.66374-0.3125-1h-6.2188c-0.433-1.756-0.68-3.589-0.719-5.469zm-7 23.469v1h8v-1h-8zm16 0v1h8v-1h-8zm-8 8v1h8v-1h-8z"/>
 </g>
</svg>
