<?xml version="1.0" encoding="UTF-8" standalone="no"?>
<!-- Created with Inkscape (http://www.inkscape.org/) -->
<svg id="svg2408" xmlns:rdf="http://www.w3.org/1999/02/22-rdf-syntax-ns#" xmlns="http://www.w3.org/2000/svg" height="96" width="96" version="1.0" xmlns:cc="http://creativecommons.org/ns#" xmlns:xlink="http://www.w3.org/1999/xlink" xmlns:dc="http://purl.org/dc/elements/1.1/">
 <defs id="defs2410">
  <linearGradient id="linearGradient3637">
   <stop id="stop3639" style="stop-color:#f0f0f0" offset="0"/>
   <stop id="stop3641" style="stop-color:#aaa" offset="1"/>
  </linearGradient>
  <linearGradient id="ButtonShadow" y2="7.0165" gradientUnits="userSpaceOnUse" x2="45.448" gradientTransform="scale(1.0059 .99417)" y1="92.54" x1="45.448">
   <stop id="stop3750" offset="0"/>
   <stop id="stop3752" style="stop-opacity:.58824" offset="1"/>
  </linearGradient>
  <linearGradient id="linearGradient3737">
   <stop id="stop3739" style="stop-color:#fff" offset="0"/>
   <stop id="stop3741" style="stop-color:#fff;stop-opacity:0" offset="1"/>
  </linearGradient>
  <filter id="filter3174" color-interpolation-filters="sRGB">
   <feGaussianBlur id="feGaussianBlur3176" stdDeviation="1.71"/>
  </filter>
  <linearGradient id="linearGradient3188" y2="63.893" xlink:href="#linearGradient3737" gradientUnits="userSpaceOnUse" x2="36.357" y1="6" x1="36.357"/>
  <filter id="filter3794" height="1.384" width="1.384" color-interpolation-filters="sRGB" y="-.192" x="-.192">
   <feGaussianBlur id="feGaussianBlur3796" stdDeviation="5.28"/>
  </filter>
  <linearGradient id="linearGradient3613" y2="138.66" xlink:href="#linearGradient3737" gradientUnits="userSpaceOnUse" x2="48" y1="20.221" x1="48"/>
  <radialGradient id="radialGradient3619" xlink:href="#linearGradient3737" gradientUnits="userSpaceOnUse" cy="90.172" cx="48" gradientTransform="matrix(1.1573 0 0 .99591 -7.551 .19713)" r="42"/>
  <clipPath id="clipPath3613">
   <rect id="rect3615" style="fill:#fff" rx="6" ry="6" height="84" width="84" y="6" x="6"/>
  </clipPath>
  <linearGradient id="linearGradient2843" y2="5.9877" gradientUnits="userSpaceOnUse" x2="48" gradientTransform="translate(0,100)" y1="90" x1="48">
   <stop id="stop3702" style="stop-color:#2276c5" offset="0"/>
   <stop id="stop3704" style="stop-color:#68baf4" offset="1"/>
  </linearGradient>
  <clipPath id="clipPath3625">
   <path id="path3627" style="fill:#fff" d="m0 0v96h96v-96h-96zm12 6h72c3.324 0 6 2.676 6 6v72c0 3.324-2.676 6-6 6h-72c-3.324 0-6-2.676-6-6v-72c0-3.324 2.676-6 6-6z"/>
  </clipPath>
  <linearGradient id="linearGradient3643" y2="90.015" xlink:href="#linearGradient3637" gradientUnits="userSpaceOnUse" x2="44.512" y1="6" x1="44.512"/>
  <clipPath id="clipPath3649">
   <rect id="rect3651" style="fill:#fff" rx="4" ry="4" height="76" width="76" y="10" x="10"/>
  </clipPath>
  <filter id="filter3657" color-interpolation-filters="sRGB">
   <feGaussianBlur id="feGaussianBlur3659" stdDeviation="1.14"/>
  </filter>
  <linearGradient id="ButtonShadow-0" y2="7.0165" gradientUnits="userSpaceOnUse" x2="45.448" gradientTransform="matrix(1.0059 0 0 .99417 100 0)" y1="92.54" x1="45.448">
   <stop id="stop3750-8" offset="0"/>
   <stop id="stop3752-5" style="stop-opacity:.58824" offset="1"/>
  </linearGradient>
  <linearGradient id="linearGradient3780" y2="90.239" xlink:href="#ButtonShadow-0" gradientUnits="userSpaceOnUse" x2="32.251" gradientTransform="matrix(1.0238 0 0 -1.0119 -1.1429 98.071)" y1="6.1317" x1="32.251"/>
  <linearGradient id="linearGradient3721" y2="90.239" xlink:href="#ButtonShadow-0" gradientUnits="userSpaceOnUse" x2="32.251" gradientTransform="matrix(1,0,0,-1,0,97)" y1="6.1317" x1="32.251"/>
  <radialGradient id="radialGradient3619-3" xlink:href="#linearGradient3737" gradientUnits="userSpaceOnUse" cy="90.172" cx="48" gradientTransform="matrix(1.1573 0 0 .99591 -7.551 .19713)" r="42"/>
  <linearGradient id="linearGradient3905" y2="8" xlink:href="#linearGradient3637" gradientUnits="userSpaceOnUse" x2="120" gradientTransform="translate(-104,104)" y1="8" x1="104"/>
  <linearGradient id="linearGradient3913" y2="8" gradientUnits="userSpaceOnUse" x2="120" gradientTransform="translate(-144,104)" y1="8" x1="104">
   <stop id="stop3185-9" style="stop-color:#c80000" offset="0"/>
   <stop id="stop3187-6" style="stop-color:#f3604d" offset="1"/>
  </linearGradient>
  <linearGradient id="linearGradient3100" y2="76" xlink:href="#linearGradient3637" gradientUnits="userSpaceOnUse" x2="45" gradientTransform="translate(8,2)" y1="24" x1="45"/>
 </defs>
 <metadata id="metadata2413">
  <rdf:RDF>
   <cc:Work rdf:about="">
    <dc:format>image/svg+xml</dc:format>
    <dc:type rdf:resource="http://purl.org/dc/dcmitype/StillImage"/>
    <dc:title/>
   </cc:Work>
  </rdf:RDF>
 </metadata>
 <g id="layer2" style="display:none">
  <rect id="rect3745" style="opacity:.9;filter:url(#filter3174);fill:url(#ButtonShadow)" clip-path="url(#clipPath3625)" rx="6" ry="6" height="85" width="86" y="7" x="5"/>
 </g>
 <g id="layer3">
  <path id="path3786" style="opacity:0.08;fill:url(#linearGradient3780)" d="m12 3.9688c-5.5111 0-10.031 4.5201-10.031 10.031v71c0 5.5111 4.5202 10.031 10.031 10.031h72c5.5111 0 10.031-4.5202 10.031-10.031v-71c0-5.5111-4.52-10.031-10.031-10.031h-72zm0 2.0312h72c3.324 0 6 2.676 6 6v72c0 3.324-2.676 6-6 6h-72c-3.324 0-6-2.676-6-6v-72c0-3.324 2.676-6 6-6z"/>
  <path id="path3778" style="opacity:.1;fill:url(#linearGradient3780)" d="m12 4.9688c-4.9716 0-9.0312 4.0596-9.0312 9.0312v71c0 4.9716 4.0596 9.0312 9.0312 9.0312h72c4.9716 0 9.0312-4.0596 9.0312-9.0312v-71c0-4.9716-4.059-9.0312-9.031-9.0312h-72zm0 1.0312h72c3.324 0 6 2.676 6 6v72c0 3.324-2.676 6-6 6h-72c-3.324 0-6-2.676-6-6v-72c0-3.324 2.676-6 6-6z"/>
  <path id="path3770" style="opacity:.2;fill:url(#linearGradient3780)" d="m11.188 6.0312c-4.028 0.4107-7.188 3.8352-7.188 7.9688v71c0 4.4091 3.5909 8 8 8h72c4.4091 0 8-3.5909 8-8v-71c0-4.1971-3.259-7.646-7.375-7.9688 3.033 0.3062 5.375 2.8526 5.375 5.9688v72c0 3.324-2.676 6-6 6h-72c-3.324 0-6-2.676-6-6v-72c0-3.1162 2.3421-5.6626 5.375-5.9688-0.06227 0.00488-0.12563-0.00631-0.1875 0z"/>
  <path id="rect3723" style="opacity:.3;fill:url(#linearGradient3780)" d="m6.4375 9.75c-0.8995 1.177-1.4375 2.647-1.4375 4.25v71c0 3.878 3.122 7 7 7h72c3.878 0 7-3.122 7-7v-71c0-1.603-0.538-3.073-1.438-4.25 0.28 0.694 0.438 1.454 0.438 2.25v72c0 3.324-2.676 6-6 6h-72c-3.324 0-6-2.676-6-6v-72c0-0.796 0.1582-1.556 0.4375-2.25z"/>
  <path id="rect3716" style="opacity:.45;fill:url(#linearGradient3721)" d="m6 84v1c0 3.324 2.676 6 6 6h72c3.324 0 6-2.676 6-6v-1c0 3.324-2.676 6-6 6h-72c-3.324 0-6-2.676-6-6z"/>
 </g>
 <g id="layer1" style="display:none">
  <rect id="rect2419" style="opacity:.8" rx="6" ry="6" height="84" width="84" y="6" x="6"/>
  <path id="rect3726" style="opacity:0.08" d="m14 10c-2.216 0-4 1.784-4 4v68c0 2.216 1.784 4 4 4h68c2.216 0 4-1.784 4-4v-68c0-2.216-1.784-4-4-4h-68zm0 3.0625h68c0.57877 0 0.9375 0.35873 0.9375 0.9375v68c0 0.57877-0.35873 0.9375-0.9375 0.9375h-68c-0.57877 0-0.9375-0.35873-0.9375-0.9375v-68c0-0.57877 0.35873-0.9375 0.9375-0.9375z"/>
  <path id="rect3629" style="fill:url(#linearGradient3643)" d="m12 6c-3.324 0-6 2.676-6 6v72c0 3.324 2.676 6 6 6h72c3.324 0 6-2.676 6-6v-72c0-3.324-2.676-6-6-6h-72zm2 4h68c2.216 0 4 1.784 4 4v68c0 2.216-1.784 4-4 4h-68c-2.216 0-4-1.784-4-4v-68c0-2.216 1.784-4 4-4z"/>
  <path id="rect3728" style="fill:url(#linearGradient3188)" d="m12 6c-3.324 0-6 2.676-6 6v2 68 2c0 0.33472 0.04135 0.6507 0.09375 0.96875 0.0487 0.2956 0.09704 0.59692 0.1875 0.875 0.00988 0.03038 0.020892 0.0636 0.03125 0.09375 0.098865 0.28777 0.23488 0.54745 0.375 0.8125 0.14459 0.27351 0.31562 0.53562 0.5 0.78125 0.18438 0.24564 0.37378 0.47347 0.59375 0.6875 0.43995 0.42806 0.94291 0.81453 1.5 1.0938 0.27854 0.13961 0.57347 0.24695 0.875 0.34375-0.2562-0.10022-0.48671-0.23627-0.71875-0.375-0.00741-0.0044-0.023866 0.0045-0.03125 0-0.031933-0.0193-0.062293-0.04251-0.09375-0.0625-0.1204-0.0767-0.23102-0.16351-0.34375-0.25-0.10617-0.0808-0.21328-0.16111-0.3125-0.25-0.1778-0.162-0.3473-0.346-0.4999-0.531-0.1075-0.131-0.2183-0.266-0.3124-0.407-0.0251-0.038-0.0385-0.086-0.0626-0.125-0.0647-0.103-0.1302-0.204-0.1874-0.312-0.1011-0.195-0.2057-0.416-0.2813-0.625-0.008-0.022-0.0236-0.041-0.0313-0.063-0.0318-0.092-0.0358-0.187-0.0624-0.281-0.0304-0.107-0.0704-0.203-0.0938-0.313-0.0729-0.341-0.125-0.698-0.125-1.062v-2-68-2c0-2.782 2.2182-5 5-5h2 68 2c2.7818 0 5 2.2182 5 5v2 68 2c0 0.3643-0.05212 0.72099-0.125 1.0625-0.04415 0.20689-0.08838 0.39766-0.15625 0.59375-0.0077 0.02195-0.0233 0.04069-0.03125 0.0625-0.06274 0.17374-0.13838 0.36745-0.21875 0.53125-0.04158 0.0828-0.07904 0.16995-0.125 0.25-0.0546 0.09721-0.12677 0.18835-0.1875 0.28125-0.09411 0.14096-0.20492 0.276-0.3125 0.40625-0.14317 0.17445-0.30314 0.347-0.46875 0.5-0.01117 0.0102-0.01998 0.02115-0.03125 0.03125-0.13839 0.12556-0.28509 0.23444-0.4375 0.34375-0.10257 0.07315-0.20432 0.15336-0.3125 0.21875-0.0074 0.0045-0.02384-0.0044-0.03125 0-0.23204 0.13873-0.46255 0.27478-0.71875 0.375 0.30153-0.0968 0.59646-0.20414 0.875-0.34375 0.55709-0.27922 1.0601-0.66569 1.5-1.0938 0.21997-0.21403 0.40937-0.44186 0.59375-0.6875s0.35541-0.50774 0.5-0.78125c0.14012-0.26505 0.27614-0.52473 0.375-0.8125 0.01041-0.03078 0.02133-0.06274 0.03125-0.09375 0.09046-0.27808 0.1388-0.5794 0.1875-0.875 0.053-0.318 0.094-0.634 0.094-0.969v-2-68-2c0-3.324-2.676-6-6-6h-72z"/>
  <path id="path3615" style="opacity:.6;fill:url(#radialGradient3619)" d="m12 90c-3.324 0-6-2.676-6-6v-2-68-2c0-0.33472 0.04135-0.6507 0.09375-0.96875 0.0487-0.2956 0.09704-0.59692 0.1875-0.875 0.0099-0.03 0.0209-0.063 0.0313-0.094 0.0989-0.2873 0.2349-0.547 0.375-0.812 0.1446-0.2735 0.3156-0.5356 0.5-0.7812 0.1844-0.2457 0.3738-0.4735 0.5937-0.6876 0.44-0.428 0.943-0.8145 1.5-1.0937 0.2786-0.1396 0.5735-0.2469 0.8748-0.3437-0.256 0.1002-0.4865 0.2362-0.7185 0.375-0.00741 0.0044-0.023866-0.0045-0.03125 0-0.031933 0.0193-0.062293 0.04251-0.09375 0.0625-0.1204 0.0767-0.23102 0.16351-0.34375 0.25-0.10617 0.0808-0.21328 0.16111-0.3125 0.25-0.1779 0.1614-0.3474 0.3453-0.5 0.5312-0.1075 0.1303-0.2183 0.2653-0.3124 0.4063-0.0251 0.0383-0.0385 0.0858-0.0626 0.125-0.0647 0.103-0.1302 0.2045-0.1874 0.3124-0.1011 0.1948-0.2057 0.4158-0.2813 0.625-0.008 0.0219-0.0236 0.0406-0.0313 0.0626-0.0318 0.0919-0.0358 0.1868-0.0624 0.2812-0.0304 0.1066-0.0704 0.203-0.0938 0.3125-0.0729 0.3415-0.125 0.6985-0.125 1.0625v2 68 2c0 2.7818 2.2182 5 5 5h2 68 2c2.7818 0 5-2.2182 5-5v-2-68-2c0-0.364-0.052-0.721-0.125-1.0625-0.044-0.2069-0.088-0.3977-0.156-0.5937-0.008-0.022-0.024-0.0407-0.031-0.0626-0.063-0.1737-0.139-0.3674-0.219-0.5312-0.042-0.0828-0.079-0.17-0.125-0.25-0.055-0.0972-0.127-0.1884-0.188-0.2812-0.094-0.141-0.205-0.276-0.312-0.4063-0.143-0.1745-0.303-0.347-0.469-0.5-0.011-0.0102-0.02-0.0211-0.031-0.0313-0.139-0.1255-0.285-0.2344-0.438-0.3437-0.102-0.0731-0.204-0.1534-0.312-0.2187-0.0074-0.0045-0.02384 0.0044-0.03125 0-0.23204-0.13873-0.46255-0.27478-0.71875-0.375 0.30153 0.0968 0.59646 0.20414 0.875 0.34375 0.55709 0.27922 1.0601 0.66569 1.5 1.0938 0.21997 0.21403 0.40937 0.44186 0.59375 0.6875s0.35541 0.50774 0.5 0.78125c0.14012 0.26505 0.27614 0.52473 0.375 0.8125 0.01041 0.03078 0.02133 0.06274 0.03125 0.09375 0.09046 0.27808 0.1388 0.5794 0.1875 0.875 0.053 0.318 0.094 0.634 0.094 0.969v2 68 2c0 3.324-2.676 6-6 6h-72z"/>
  <rect id="rect2841" style="fill:url(#linearGradient2843)" rx="6" ry="6" height="84" width="84" y="106" x="6"/>
  <rect id="rect3634" style="fill:#f00" rx="4" ry="4" height="76" width="76" y="110" x="10"/>
  <path id="rect3647" style="block-progression:tb;text-indent:0;filter:url(#filter3657);color:#000000;text-transform:none;display:inline" d="m14 9c-2.7527 0-5 2.2473-5 5v68c0 2.7527 2.2473 5 5 5h68c2.7527 0 5-2.2473 5-5v-68c0-2.753-2.247-5-5-5h-68zm0 2h68c1.6793 0 3 1.3207 3 3v68c0 1.6793-1.3207 3-3 3h-68c-1.6793 0-3-1.3207-3-3v-68c0-1.6793 1.3207-3 3-3z" clip-path="url(#clipPath3649)" transform="translate(-110)"/>
  <path id="path3709" style="opacity:0.16" d="m14.089 10c-2.216 0-4 1.784-4 4v68c0 2.216 1.784 4 4 4h68c2.216 0 4-1.784 4-4v-68c0-2.216-1.784-4-4-4h-68zm0 2h68c1.1403 0 2 0.8597 2 2v68c0 1.1403-0.8597 2-2 2h-68c-1.1403 0-2-0.8597-2-2v-68c0-1.1403 0.8597-2 2-2z"/>
  <path id="path3707" style="opacity:0.36" d="m14 10c-2.216 0-4 1.784-4 4v68c0 2.216 1.784 4 4 4h68c2.216 0 4-1.784 4-4v-68c0-2.216-1.784-4-4-4h-68zm0 1h68c1.6738 0 3 1.3262 3 3v68c0 1.6738-1.3262 3-3 3h-68c-1.6738 0-3-1.3262-3-3v-68c0-1.6738 1.3262-3 3-3z"/>
 </g>
 <g id="layer4">
  <rect id="rect2419-9" style="opacity:.6" rx="6" ry="6" height="84" width="84" y="6" x="6"/>
  <path id="rect3728-4" style="opacity:0.01;fill:url(#linearGradient3188)" d="m12 6c-3.324 0-6 2.676-6 6v2 68 2c0 0.33472 0.04135 0.6507 0.09375 0.96875 0.0487 0.2956 0.09704 0.59692 0.1875 0.875 0.00988 0.03038 0.020892 0.0636 0.03125 0.09375 0.098865 0.28777 0.23488 0.54745 0.375 0.8125 0.14459 0.27351 0.31562 0.53562 0.5 0.78125 0.18438 0.24564 0.37378 0.47347 0.59375 0.6875 0.43995 0.42806 0.94291 0.81453 1.5 1.0938 0.27854 0.13961 0.57347 0.24695 0.875 0.34375-0.2562-0.10022-0.48671-0.23627-0.71875-0.375-0.00741-0.0044-0.023866 0.0045-0.03125 0-0.031933-0.0193-0.062293-0.04251-0.09375-0.0625-0.1204-0.0767-0.23102-0.16351-0.34375-0.25-0.10617-0.0808-0.21328-0.16111-0.3125-0.25-0.1778-0.162-0.3473-0.346-0.4999-0.531-0.1075-0.131-0.2183-0.266-0.3124-0.407-0.0251-0.038-0.0385-0.086-0.0626-0.125-0.0647-0.103-0.1302-0.204-0.1874-0.312-0.1011-0.195-0.2057-0.416-0.2813-0.625-0.008-0.022-0.0236-0.041-0.0313-0.063-0.0318-0.092-0.0358-0.187-0.0624-0.281-0.0304-0.107-0.0704-0.203-0.0938-0.313-0.0729-0.341-0.125-0.698-0.125-1.062v-2-68-2c0-2.782 2.2182-5 5-5h2 68 2c2.7818 0 5 2.2182 5 5v2 68 2c0 0.3643-0.05212 0.72099-0.125 1.0625-0.04415 0.20689-0.08838 0.39766-0.15625 0.59375-0.0077 0.02195-0.0233 0.04069-0.03125 0.0625-0.06274 0.17374-0.13838 0.36745-0.21875 0.53125-0.04158 0.0828-0.07904 0.16995-0.125 0.25-0.0546 0.09721-0.12677 0.18835-0.1875 0.28125-0.09411 0.14096-0.20492 0.276-0.3125 0.40625-0.14317 0.17445-0.30314 0.347-0.46875 0.5-0.01117 0.0102-0.01998 0.02115-0.03125 0.03125-0.13839 0.12556-0.28509 0.23444-0.4375 0.34375-0.10257 0.07315-0.20432 0.15336-0.3125 0.21875-0.0074 0.0045-0.02384-0.0044-0.03125 0-0.23204 0.13873-0.46255 0.27478-0.71875 0.375 0.30153-0.0968 0.59646-0.20414 0.875-0.34375 0.55709-0.27922 1.0601-0.66569 1.5-1.0938 0.21997-0.21403 0.40937-0.44186 0.59375-0.6875s0.35541-0.50774 0.5-0.78125c0.14012-0.26505 0.27614-0.52473 0.375-0.8125 0.01041-0.03078 0.02133-0.06274 0.03125-0.09375 0.09046-0.27808 0.1388-0.5794 0.1875-0.875 0.053-0.318 0.094-0.634 0.094-0.969v-2-68-2c0-3.324-2.676-6-6-6h-72z"/>
  <path id="path3615-6" style="opacity:.15;fill:url(#radialGradient3619-3)" d="m12 90c-3.324 0-6-2.676-6-6v-2-68-2c0-0.33472 0.04135-0.6507 0.09375-0.96875 0.0487-0.2956 0.09704-0.59692 0.1875-0.875 0.0099-0.03 0.0209-0.063 0.0313-0.094 0.0989-0.2873 0.2349-0.547 0.375-0.812 0.1446-0.2735 0.3156-0.5356 0.5-0.7812 0.1844-0.2457 0.3738-0.4735 0.5937-0.6876 0.44-0.428 0.943-0.8145 1.5-1.0937 0.2786-0.1396 0.5735-0.2469 0.8748-0.3437-0.256 0.1002-0.4865 0.2362-0.7185 0.375-0.00741 0.0044-0.023866-0.0045-0.03125 0-0.031933 0.0193-0.062293 0.04251-0.09375 0.0625-0.1204 0.0767-0.23102 0.16351-0.34375 0.25-0.10617 0.0808-0.21328 0.16111-0.3125 0.25-0.1779 0.1614-0.3474 0.3453-0.5 0.5312-0.1075 0.1303-0.2183 0.2653-0.3124 0.4063-0.0251 0.0383-0.0385 0.0858-0.0626 0.125-0.0647 0.103-0.1302 0.2045-0.1874 0.3124-0.1011 0.1948-0.2057 0.4158-0.2813 0.625-0.008 0.0219-0.0236 0.0406-0.0313 0.0626-0.0318 0.0919-0.0358 0.1868-0.0624 0.2812-0.0304 0.1066-0.0704 0.203-0.0938 0.3125-0.0729 0.3415-0.125 0.6985-0.125 1.0625v2 68 2c0 2.7818 2.2182 5 5 5h2 68 2c2.7818 0 5-2.2182 5-5v-2-68-2c0-0.364-0.052-0.721-0.125-1.0625-0.044-0.2069-0.088-0.3977-0.156-0.5937-0.008-0.022-0.024-0.0407-0.031-0.0626-0.063-0.1737-0.139-0.3674-0.219-0.5312-0.042-0.0828-0.079-0.17-0.125-0.25-0.055-0.0972-0.127-0.1884-0.188-0.2812-0.094-0.141-0.205-0.276-0.312-0.4063-0.143-0.1745-0.303-0.347-0.469-0.5-0.011-0.0102-0.02-0.0211-0.031-0.0313-0.139-0.1255-0.285-0.2344-0.438-0.3437-0.102-0.0731-0.204-0.1534-0.312-0.2187-0.0074-0.0045-0.02384 0.0044-0.03125 0-0.23204-0.13873-0.46255-0.27478-0.71875-0.375 0.30153 0.0968 0.59646 0.20414 0.875 0.34375 0.55709 0.27922 1.0601 0.66569 1.5 1.0938 0.21997 0.21403 0.40937 0.44186 0.59375 0.6875s0.35541 0.50774 0.5 0.78125c0.14012 0.26505 0.27614 0.52473 0.375 0.8125 0.01041 0.03078 0.02133 0.06274 0.03125 0.09375 0.09046 0.27808 0.1388 0.5794 0.1875 0.875 0.053 0.318 0.094 0.634 0.094 0.969v2 68 2c0 3.324-2.676 6-6 6h-72z"/>
 </g>
 <g id="layer5" style="display:none">
  <rect id="rect3171" style="opacity:.1;filter:url(#filter3794);stroke:#fff;stroke-linecap:round;stroke-width:.5;fill:url(#linearGradient3613)" clip-path="url(#clipPath3613)" rx="12" ry="12" height="66" width="66" y="15" x="15"/>
 </g>
 <g id="layer6">
  <path id="path3906" style="opacity:.1;color:#000000" d="m41.5 24.969c-3.0308 0-5.5312 2.5005-5.5312 5.5312v8.0938c0.000102 0.000511-0.0314-0.188-0.03125-0.1875 0.000152 0.000499-0.0627-0.18798-0.0625-0.1875 0.0002 0.000481-0.094-0.15671-0.09375-0.15625 0.000246 0.000459-0.09404-0.18793-0.09375-0.1875 0.00029 0.000433-0.12533-0.15665-0.125-0.15625 0.000331 0.000403-0.12537-0.15662-0.125-0.15625 0.000368 0.000368-0.15665-0.12533-0.15625-0.125 0.000403 0.000331-0.15668-0.12529-0.15625-0.125 0.000433 0.00029-0.18796-0.094-0.1875-0.09375 0.000459 0.000246-0.15673-0.09395-0.15625-0.09375 0.000481 0.0002-0.188-0.06265-0.1875-0.0625 0.000499 0.000152-0.18801-0.03135-0.1875-0.03125 0.000511 0.000102-0.21927-0.0313-0.21875-0.03125 0.000519 0.000052-0.18802-0.03125-0.1875-0.03125h-5.9375c0.000142 0.000007-0.04043-0.000003-0.0625 0-0.01104 0.000001-0.01799 0-0.03125 0 0.000284 0.000013-0.07197 0.000002-0.125 0-0.03977-0.000001-0.09396 0.00001-0.09375 0a1.0176 1.0176 0 0 0 -0.125 0.031c0.000456-0.000088-0.18795 0.03138-0.1875 0.03125 0.000447-0.000127-0.15668 0.06267-0.15625 0.0625 0.000434-0.000166-0.15667 0.0627-0.15625 0.0625 0.000418-0.000203-0.15665 0.09399-0.15625 0.09375 0.000399-0.000238-0.15663 0.09402-0.15625 0.09375 0.000376-0.000272-0.12535 0.1253-0.125 0.125 0.000351-0.000304-0.12532 0.12533-0.125 0.125 0.000323-0.000334-0.12529 0.12536-0.125 0.125 0.000293-0.000361-0.09401 0.12538-0.09375 0.125 0.00026-0.000385-0.09398 0.15666-0.09375 0.15625 0.000226-0.000406-0.09394 0.15667-0.09375 0.15625 0.00019-0.000424-0.06265 0.15669-0.0625 0.15625 0.000152-0.000439-0.06261 0.18795-0.0625 0.1875 0.000113-0.000451-0.03132 0.15671-0.03125 0.15625 0.000073-0.000459-0.000033 0.18796 0 0.1875 0.000028-0.000388-0.03015 0.1162-0.03125 0.15625-0.000214 0.0078 0.000001 0.03133 0 0.03125v3.9688c-0.000001-0.000521 0.0313 0.18802 0.03125 0.1875-0.000052-0.000519 0.03135 0.21926 0.03125 0.21875-0.000102-0.000511 0.0314 0.188 0.03125 0.1875-0.000152-0.000499 0.0627 0.18798 0.0625 0.1875-0.0002-0.000481 0.094 0.15671 0.09375 0.15625-0.000246-0.000459 0.09404 0.18793 0.09375 0.1875-0.00029-0.000433 0.12533 0.15665 0.125 0.15625-0.000331-0.000403 0.12537 0.15662 0.125 0.15625-0.000368-0.000368 0.15665 0.12533 0.15625 0.125-0.000403-0.000331 0.15668 0.12529 0.15625 0.125-0.000433-0.00029 0.18796 0.094 0.1875 0.09375-0.000459-0.000246 0.15673 0.09395 0.15625 0.09375-0.000481-0.0002 0.188 0.06265 0.1875 0.0625-0.000499-0.000152 0.18801 0.03135 0.1875 0.03125-0.000511-0.000102 0.21927 0.0313 0.21875 0.03125-0.000519-0.000052 0.18802 0.03125 0.1875 0.03125h6c-0.000521 0.000001 0.18802-0.0313 0.1875-0.03125-0.000519 0.000052 0.21926-0.03135 0.21875-0.03125-0.000511 0.000102 0.188-0.0314 0.1875-0.03125-0.000499 0.000152 0.18798-0.0627 0.1875-0.0625-0.000481 0.0002 0.15671-0.094 0.15625-0.09375-0.000459 0.000246 0.18793-0.09404 0.1875-0.09375-0.000433 0.00029 0.15665-0.12533 0.15625-0.125-0.000403 0.000331 0.15662-0.12537 0.15625-0.125-0.000368 0.000368 0.12533-0.15665 0.125-0.15625-0.000331 0.000403 0.12529-0.15668 0.125-0.15625-0.00029 0.000433 0.094-0.18796 0.09375-0.1875-0.000246 0.000459 0.09395-0.15673 0.09375-0.15625-0.0002 0.000481 0.06265-0.188 0.0625-0.1875-0.000152 0.000499 0.03135-0.18801 0.03125-0.1875v5.1875c0.000102 0.000511-0.0314-0.188-0.03125-0.1875 0.000152 0.000499-0.0627-0.18798-0.0625-0.1875 0.0002 0.000481-0.094-0.15671-0.09375-0.15625 0.000246 0.000459-0.09404-0.18793-0.09375-0.1875 0.00029 0.000433-0.12533-0.15665-0.125-0.15625 0.000331 0.000403-0.12537-0.15662-0.125-0.15625 0.000368 0.000368-0.15665-0.12533-0.15625-0.125 0.000403 0.000331-0.15668-0.12529-0.15625-0.125 0.000433 0.00029-0.18796-0.094-0.1875-0.09375 0.000459 0.000246-0.15673-0.09395-0.15625-0.09375 0.000481 0.0002-0.188-0.06265-0.1875-0.0625 0.000499 0.000152-0.18801-0.03135-0.1875-0.03125 0.000511 0.000102-0.21927-0.0313-0.21875-0.03125 0.000519 0.000052-0.18802-0.03125-0.1875-0.03125h-15.938c0.000142 0.000007-0.04043-0.000003-0.0625 0-0.01104 0.000001-0.01799 0-0.03125 0 0.000284 0.000013-0.07197 0.000002-0.125 0-0.03977-0.000001-0.09396 0.00001-0.09375 0a1.0176 1.0176 0 0 0 -0.125 0.031c0.000456-0.000088-0.18795 0.03138-0.1875 0.03125 0.000447-0.000127-0.15668 0.06267-0.15625 0.0625 0.000434-0.000166-0.15667 0.0627-0.15625 0.0625 0.000418-0.000203-0.15665 0.09399-0.15625 0.09375 0.000399-0.000238-0.15663 0.09402-0.15625 0.09375 0.000376-0.000272-0.12535 0.1253-0.125 0.125 0.000351-0.000304-0.12532 0.12533-0.125 0.125 0.000323-0.000334-0.12529 0.12536-0.125 0.125 0.000293-0.000361-0.09401 0.12538-0.09375 0.125 0.00026-0.000385-0.09398 0.15666-0.09375 0.15625 0.000226-0.000406-0.09394 0.15667-0.09375 0.15625 0.00019-0.000424-0.06265 0.15669-0.0625 0.15625 0.000152-0.000439-0.06261 0.18795-0.0625 0.1875 0.000113-0.000451-0.03132 0.15671-0.03125 0.15625 0.000073-0.000459-0.000033 0.18796 0 0.1875 0.000028-0.000388-0.03015 0.1162-0.03125 0.15625-0.000214 0.0078 0.000001 0.03133 0 0.03125v3.9688c-0.000001-0.000521 0.0313 0.18802 0.03125 0.1875-0.000052-0.000519 0.03135 0.21926 0.03125 0.21875-0.000102-0.000511 0.0314 0.188 0.03125 0.1875-0.000152-0.000499 0.0627 0.18798 0.0625 0.1875-0.0002-0.000481 0.094 0.15671 0.09375 0.15625-0.000246-0.000459 0.09404 0.18793 0.09375 0.1875-0.00029-0.000433 0.12533 0.15665 0.125 0.15625-0.000331-0.000403 0.12537 0.15662 0.125 0.15625-0.000368-0.000368 0.15665 0.12533 0.15625 0.125-0.000403-0.000331 0.15668 0.12529 0.15625 0.125-0.000433-0.00029 0.18796 0.094 0.1875 0.09375-0.000459-0.000246 0.15673 0.09395 0.15625 0.09375-0.000481-0.0002 0.188 0.06265 0.1875 0.0625-0.000499-0.000152 0.18801 0.03135 0.1875 0.03125-0.000511-0.000102 0.21927 0.0313 0.21875 0.03125-0.000519-0.000052 0.18802 0.03125 0.1875 0.03125h16c-0.000521 0.000001 0.18802-0.0313 0.1875-0.03125-0.000519 0.000052 0.21926-0.03135 0.21875-0.03125-0.000511 0.000102 0.188-0.0314 0.1875-0.03125-0.000499 0.000152 0.18798-0.0627 0.1875-0.0625-0.000481 0.0002 0.15671-0.094 0.15625-0.09375-0.000459 0.000246 0.18793-0.09404 0.1875-0.09375-0.000433 0.00029 0.15665-0.12533 0.15625-0.125-0.000403 0.000331 0.15662-0.12537 0.15625-0.125-0.000368 0.000368 0.12533-0.15665 0.125-0.15625-0.000331 0.000403 0.12529-0.15668 0.125-0.15625-0.00029 0.000433 0.094-0.18796 0.09375-0.1875-0.000246 0.000459 0.09395-0.15673 0.09375-0.15625-0.0002 0.000481 0.06265-0.188 0.0625-0.1875-0.000152 0.000499 0.03135-0.18801 0.03125-0.1875v5.1875c0.000102 0.000511-0.0314-0.188-0.03125-0.1875 0.000152 0.000499-0.0627-0.18798-0.0625-0.1875 0.0002 0.000481-0.094-0.15671-0.09375-0.15625 0.000246 0.000459-0.09404-0.18793-0.09375-0.1875 0.00029 0.000433-0.12533-0.15665-0.125-0.15625 0.000331 0.000403-0.12537-0.15662-0.125-0.15625 0.000368 0.000368-0.15665-0.12533-0.15625-0.125 0.000403 0.000331-0.15668-0.12529-0.15625-0.125 0.000433 0.00029-0.18796-0.094-0.1875-0.09375 0.000459 0.000246-0.15673-0.09395-0.15625-0.09375 0.000481 0.0002-0.188-0.06265-0.1875-0.0625 0.000499 0.000152-0.18801-0.03135-0.1875-0.03125 0.000511 0.000102-0.21927-0.0313-0.21875-0.03125 0.000519 0.000052-0.18802-0.03125-0.1875-0.03125h-9.9375c0.000142 0.000007-0.04043-0.000003-0.0625 0-0.01104 0.000001-0.01799 0-0.03125 0 0.000284 0.000013-0.07197 0.000002-0.125 0-0.03977-0.000001-0.09396 0.00001-0.09375 0a1.0176 1.0176 0 0 0 -0.125 0.031c0.000456-0.000088-0.18795 0.03138-0.1875 0.03125 0.000447-0.000127-0.15668 0.06267-0.15625 0.0625 0.000434-0.000166-0.15667 0.0627-0.15625 0.0625 0.000418-0.000203-0.15665 0.09399-0.15625 0.09375 0.000399-0.000238-0.15663 0.09402-0.15625 0.09375 0.000376-0.000272-0.12535 0.1253-0.125 0.125 0.000351-0.000304-0.12532 0.12533-0.125 0.125 0.000323-0.000334-0.12529 0.12536-0.125 0.125 0.000293-0.000361-0.09401 0.12538-0.09375 0.125 0.00026-0.000385-0.09398 0.15666-0.09375 0.15625 0.000226-0.000406-0.09394 0.15667-0.09375 0.15625 0.00019-0.000424-0.06265 0.15669-0.0625 0.15625 0.000152-0.000439-0.06261 0.18795-0.0625 0.1875 0.000113-0.000451-0.03132 0.15671-0.03125 0.15625 0.000073-0.000459-0.000033 0.18796 0 0.1875 0.000028-0.000388-0.03015 0.1162-0.03125 0.15625-0.000214 0.0078 0.000001 0.03133 0 0.03125v3.9688c-0.000001-0.000521 0.0313 0.18802 0.03125 0.1875-0.000052-0.000519 0.03135 0.21926 0.03125 0.21875-0.000102-0.000511 0.0314 0.188 0.03125 0.1875-0.000152-0.000499 0.0627 0.18798 0.0625 0.1875-0.0002-0.000481 0.094 0.15671 0.09375 0.15625-0.000246-0.000459 0.09404 0.18793 0.09375 0.1875-0.00029-0.000433 0.12533 0.15665 0.125 0.15625-0.000331-0.000403 0.12537 0.15662 0.125 0.15625-0.000368-0.000368 0.15665 0.12533 0.15625 0.125-0.000403-0.000331 0.15668 0.12529 0.15625 0.125-0.000433-0.00029 0.18796 0.094 0.1875 0.09375-0.000459-0.000246 0.15673 0.09395 0.15625 0.09375-0.000481-0.0002 0.188 0.06265 0.1875 0.0625-0.000499-0.000152 0.18801 0.03135 0.1875 0.03125-0.000511-0.000102 0.21927 0.0313 0.21875 0.03125-0.000519-0.000052 0.18802 0.03125 0.1875 0.03125h10c-0.000521 0.000001 0.18802-0.0313 0.1875-0.03125-0.000519 0.000052 0.21926-0.03135 0.21875-0.03125-0.000511 0.000102 0.188-0.0314 0.1875-0.03125-0.000499 0.000152 0.18798-0.0627 0.1875-0.0625-0.000481 0.0002 0.15671-0.094 0.15625-0.09375-0.000459 0.000246 0.18793-0.09404 0.1875-0.09375-0.000433 0.00029 0.15665-0.12533 0.15625-0.125-0.000403 0.000331 0.15662-0.12537 0.15625-0.125-0.000368 0.000368 0.12533-0.15665 0.125-0.15625-0.000331 0.000403 0.12529-0.15668 0.125-0.15625-0.00029 0.000433 0.094-0.18796 0.09375-0.1875-0.000246 0.000459 0.09395-0.15673 0.09375-0.15625-0.0002 0.000481 0.06265-0.188 0.0625-0.1875-0.000152 0.000499 0.03135-0.18801 0.03125-0.1875v4.0938c0 3.0308 2.5005 5.5312 5.5312 5.5312h29c3.0308 0 5.5312-2.5005 5.5312-5.5312v-37c0-3.0308-2.5005-5.5312-5.5312-5.5312h-29zm4.5312 10.062h19.938v27.938h-19.938v-27.938z"/>
  <path id="path3902" style="opacity:.15;color:#000000" d="m41.5 26c-2.476 0-4.5 2.024-4.5 4.5v37c0 2.4765 2.0235 4.5 4.5 4.5h29c2.4765 0 4.5-2.0235 4.5-4.5v-37c0-2.476-2.024-4.5-4.5-4.5h-29zm4.5 8h20c0.57051 0 1 0.42949 1 1v28c0 0.57051-0.42949 1-1 1h-20c-0.57051 0-1-0.42949-1-1v-28c0-0.57051 0.42949-1 1-1zm-18.094 4a1.0016 1.0016 0 0 0 -0.906 1v4a1.0016 1.0016 0 0 0 1 1h6a1.0016 1.0016 0 0 0 1 -1v-4a1.0016 1.0016 0 0 0 -1 -1h-6a1.0016 1.0016 0 0 0 -0.09375 0zm-10 10a1.0016 1.0016 0 0 0 -0.906 1v4a1.0016 1.0016 0 0 0 1 1h16a1.0016 1.0016 0 0 0 1 -1v-4a1.0016 1.0016 0 0 0 -1 -1h-16a1.0016 1.0016 0 0 0 -0.09375 0zm6 10a1.0016 1.0016 0 0 0 -0.906 1v4a1.0016 1.0016 0 0 0 1 1h10a1.0016 1.0016 0 0 0 1 -1v-4a1.0016 1.0016 0 0 0 -1 -1h-10a1.0016 1.0016 0 0 0 -0.09375 0z"/>
  <path id="path3896" style="opacity:.3;color:#000000" d="m41.5 27c-1.939 0-3.5 1.561-3.5 3.5v37c0 1.939 1.561 3.5 3.5 3.5h29c1.939 0 3.5-1.561 3.5-3.5v-37c0-1.939-1.561-3.5-3.5-3.5zm4.5 6h20c1.108 0 2 0.892 2 2v28c0 1.108-0.892 2-2 2h-20c-1.108 0-2-0.892-2-2v-28c0-1.108 0.892-2 2-2zm-18 6v4h6v-4zm-10 10v4h16v-4zm6 10v4h10v-4z"/>
  <rect id="rect3897" style="color:#000000;fill:url(#linearGradient3905)" transform="matrix(0,1,1,0,0,0)" height="16" width="16" y="104" x="0"/>
  <text id="text3907" y="48" x="104" xml:space="preserve" style="font-size:4px;letter-spacing:0px;word-spacing:0px;font-family:Liberation Sans;line-height:125%;fill:#000000"><tspan id="tspan3909" y="48" x="104">Shadow opacity : 30, 15, 10, (8)</tspan></text>
  <rect id="rect3911" style="color:#000000;fill:url(#linearGradient3913)" transform="rotate(-90)" height="16" width="16" y="104" x="-40"/>
  <text id="text3951" y="32" x="124" xml:space="preserve" style="font-size:4px;letter-spacing:0px;word-spacing:0px;font-family:Liberation Sans;line-height:125%;fill:#000000"><tspan id="tspan3953" y="32" x="124">Bevel opacity : 30 / 10</tspan></text>
  <text id="text3955" y="8" x="124" xml:space="preserve" style="font-size:4px;letter-spacing:0px;word-spacing:0px;font-family:Liberation Sans;line-height:125%;fill:#000000"><tspan id="tspan3957" y="8" x="124">Bevel opacity : 75 / 15</tspan></text>
  <path id="rect3083" style="color:#000000;fill:url(#linearGradient3100)" d="m41.5 26c-1.939 0-3.5 1.561-3.5 3.5v37c0 1.939 1.561 3.5 3.5 3.5h29c1.939 0 3.5-1.561 3.5-3.5v-37c0-1.939-1.561-3.5-3.5-3.5zm4.5 6h20c1.108 0 2 0.892 2 2v28c0 1.108-0.892 2-2 2h-20c-1.108 0-2-0.892-2-2v-28c0-1.108 0.892-2 2-2zm-18 6v4h6v-4zm-10 10v4h16v-4zm6 10v4h10v-4z"/>
  <path id="path3110" style="opacity:.75;color:#000000;fill:#fff" d="m41.5 26c-1.939 0-3.5 1.561-3.5 3.5v1c0-1.939 1.561-3.5 3.5-3.5h29c1.939 0 3.5 1.561 3.5 3.5v-1c0-1.939-1.561-3.5-3.5-3.5h-29zm-13.5 12v1h6v-1h-6zm-10 10v1h16v-1h-16zm6 10v1h10v-1h-10zm20 4v1c0 1.108 0.892 2 2 2h20c1.108 0 2-0.892 2-2v-1c0 1.108-0.892 2-2 2h-20c-1.108 0-2-0.892-2-2z"/>
  <path id="path3887" style="opacity:.15;color:#000000" d="m46 31c-1.108 0-2 0.892-2 2v1c0-1.108 0.892-2 2-2h20c1.108 0 2 0.892 2 2v-1c0-1.108-0.892-2-2-2h-20zm-18 10v1h6v-1h-6zm-10 10v1h16v-1h-16zm6 10v1h10v-1h-10zm14 4.5v1c0 1.939 1.561 3.5 3.5 3.5h29c1.939 0 3.5-1.561 3.5-3.5v-1c0 1.939-1.561 3.5-3.5 3.5h-29c-1.939 0-3.5-1.561-3.5-3.5z"/>
 </g>
</svg>
