<?xml version="1.0" encoding="UTF-8" standalone="no"?>
<!-- Created with Inkscape (http://www.inkscape.org/) -->
<svg id="svg2408" xmlns:rdf="http://www.w3.org/1999/02/22-rdf-syntax-ns#" xmlns="http://www.w3.org/2000/svg" height="96" width="96" version="1.0" xmlns:cc="http://creativecommons.org/ns#" xmlns:xlink="http://www.w3.org/1999/xlink" xmlns:dc="http://purl.org/dc/elements/1.1/">
 <defs id="defs2410">
  <linearGradient id="ButtonShadow" y2="7.0165" gradientUnits="userSpaceOnUse" x2="45.448" gradientTransform="scale(1.0059 .99417)" y1="92.54" x1="45.448">
   <stop id="stop3750" offset="0"/>
   <stop id="stop3752" style="stop-opacity:.58824" offset="1"/>
  </linearGradient>
  <linearGradient id="linearGradient3737">
   <stop id="stop3739" style="stop-color:#fff" offset="0"/>
   <stop id="stop3741" style="stop-color:#fff;stop-opacity:0" offset="1"/>
  </linearGradient>
  <filter id="filter3174" color-interpolation-filters="sRGB">
   <feGaussianBlur id="feGaussianBlur3176" stdDeviation="1.71"/>
  </filter>
  <linearGradient id="linearGradient3188" y2="63.893" xlink:href="#linearGradient3737" gradientUnits="userSpaceOnUse" x2="36.357" y1="6" x1="36.357"/>
  <radialGradient id="radialGradient3619" xlink:href="#linearGradient3737" gradientUnits="userSpaceOnUse" cy="90.172" cx="48" gradientTransform="matrix(1.1573 0 0 .99591 -7.551 .19713)" r="42"/>
  <linearGradient id="linearGradient2843" y2="5.9877" gradientUnits="userSpaceOnUse" x2="48" gradientTransform="translate(0,100)" y1="90" x1="48">
   <stop id="stop3702" style="stop-color:#2276c5" offset="0"/>
   <stop id="stop3704" style="stop-color:#68baf4" offset="1"/>
  </linearGradient>
  <clipPath id="clipPath3625">
   <path id="path3627" style="fill:#fff" d="m0 0v96h96v-96h-96zm12 6h72c3.324 0 6 2.676 6 6v72c0 3.324-2.676 6-6 6h-72c-3.324 0-6-2.676-6-6v-72c0-3.324 2.676-6 6-6z"/>
  </clipPath>
  <linearGradient id="linearGradient3643" y2="90.015" gradientUnits="userSpaceOnUse" x2="44.512" y1="6" x1="44.512">
   <stop id="stop3639" style="stop-color:#f0f0f0" offset="0"/>
   <stop id="stop3641" style="stop-color:#dcdcdc" offset="1"/>
  </linearGradient>
  <clipPath id="clipPath3649">
   <rect id="rect3651" style="fill:#fff" rx="4" ry="4" height="76" width="76" y="10" x="10"/>
  </clipPath>
  <filter id="filter3657" color-interpolation-filters="sRGB">
   <feGaussianBlur id="feGaussianBlur3659" stdDeviation="1.14"/>
  </filter>
  <linearGradient id="linearGradient4081">
   <stop id="stop4083" style="stop-color:#aaa" offset="0"/>
   <stop id="stop4085" style="stop-color:#f0f0f0" offset="1"/>
  </linearGradient>
  <linearGradient id="linearGradient3746" y2="23.729" xlink:href="#linearGradient4081" gradientUnits="userSpaceOnUse" x2="49" gradientTransform="matrix(1.2632 0 0 1 81.053 0)" y1="72.09" x1="49"/>
  <linearGradient id="linearGradient3762" y2="21.914" xlink:href="#linearGradient4081" gradientUnits="userSpaceOnUse" x2="48" y1="74" x1="48"/>
  <radialGradient id="radialGradient3619-5" xlink:href="#linearGradient3737" gradientUnits="userSpaceOnUse" cy="90.172" cx="48" gradientTransform="matrix(1.1573 0 0 .99591 -7.551 .19713)" r="42"/>
  <linearGradient id="ButtonShadow-0" y2="7.0165" gradientUnits="userSpaceOnUse" x2="45.448" gradientTransform="matrix(1.0059 0 0 .99417 100 0)" y1="92.54" x1="45.448">
   <stop id="stop3750-8" offset="0"/>
   <stop id="stop3752-5" style="stop-opacity:.58824" offset="1"/>
  </linearGradient>
  <linearGradient id="linearGradient3780" y2="90.239" xlink:href="#ButtonShadow-0" gradientUnits="userSpaceOnUse" x2="32.251" gradientTransform="matrix(1.0238 0 0 -1.0119 -1.1429 98.071)" y1="6.1317" x1="32.251"/>
  <linearGradient id="linearGradient3721-5" y2="90.239" xlink:href="#ButtonShadow-0" gradientUnits="userSpaceOnUse" x2="32.251" gradientTransform="matrix(1,0,0,-1,0,97)" y1="6.1317" x1="32.251"/>
 </defs>
 <metadata id="metadata2413">
  <rdf:RDF>
   <cc:Work rdf:about="">
    <dc:format>image/svg+xml</dc:format>
    <dc:type rdf:resource="http://purl.org/dc/dcmitype/StillImage"/>
    <dc:title/>
   </cc:Work>
  </rdf:RDF>
 </metadata>
 <g id="layer2" style="display:none">
  <rect id="rect3745" style="opacity:.9;filter:url(#filter3174);fill:url(#ButtonShadow)" clip-path="url(#clipPath3625)" rx="6" ry="6" height="85" width="86" y="7" x="5"/>
 </g>
 <g id="layer9">
  <path id="path3786" style="opacity:0.08;fill:url(#linearGradient3780)" d="m12 3.9688c-5.5111 0-10.031 4.5201-10.031 10.031v71c0 5.5111 4.5202 10.031 10.031 10.031h72c5.5111 0 10.031-4.5202 10.031-10.031v-71c0-5.5111-4.52-10.031-10.031-10.031h-72zm0 2.0312h72c3.324 0 6 2.676 6 6v72c0 3.324-2.676 6-6 6h-72c-3.324 0-6-2.676-6-6v-72c0-3.324 2.676-6 6-6z"/>
  <path id="path3778-1" style="opacity:.1;fill:url(#linearGradient3780)" d="m12 4.9688c-4.9716 0-9.0312 4.0596-9.0312 9.0312v71c0 4.9716 4.0596 9.0312 9.0312 9.0312h72c4.9716 0 9.0312-4.0596 9.0312-9.0312v-71c0-4.9716-4.059-9.0312-9.031-9.0312h-72zm0 1.0312h72c3.324 0 6 2.676 6 6v72c0 3.324-2.676 6-6 6h-72c-3.324 0-6-2.676-6-6v-72c0-3.324 2.676-6 6-6z"/>
  <path id="path3770-9" style="opacity:.2;fill:url(#linearGradient3780)" d="m11.188 6.0312c-4.028 0.4107-7.188 3.8352-7.188 7.9688v71c0 4.4091 3.5909 8 8 8h72c4.4091 0 8-3.5909 8-8v-71c0-4.1971-3.259-7.646-7.375-7.9688 3.033 0.3062 5.375 2.8526 5.375 5.9688v72c0 3.324-2.676 6-6 6h-72c-3.324 0-6-2.676-6-6v-72c0-3.1162 2.3421-5.6626 5.375-5.9688-0.06227 0.00488-0.12563-0.00631-0.1875 0z"/>
  <path id="rect3723" style="opacity:.3;fill:url(#linearGradient3780)" d="m6.4375 9.75c-0.8995 1.177-1.4375 2.647-1.4375 4.25v71c0 3.878 3.122 7 7 7h72c3.878 0 7-3.122 7-7v-71c0-1.603-0.538-3.073-1.438-4.25 0.28 0.694 0.438 1.454 0.438 2.25v72c0 3.324-2.676 6-6 6h-72c-3.324 0-6-2.676-6-6v-72c0-0.796 0.1582-1.556 0.4375-2.25z"/>
  <path id="rect3716" style="opacity:.45;fill:url(#linearGradient3721-5)" d="m6 84v1c0 3.324 2.676 6 6 6h72c3.324 0 6-2.676 6-6v-1c0 3.324-2.676 6-6 6h-72c-3.324 0-6-2.676-6-6z"/>
 </g>
 <g id="layer1" style="display:none">
  <rect id="rect2419" style="opacity:.7" rx="6" ry="6" height="84" width="84" y="6" x="6"/>
  <path id="rect3726" style="opacity:0.08" d="m14 10c-2.216 0-4 1.784-4 4v68c0 2.216 1.784 4 4 4h68c2.216 0 4-1.784 4-4v-68c0-2.216-1.784-4-4-4h-68zm0 3.0625h68c0.57877 0 0.9375 0.35873 0.9375 0.9375v68c0 0.57877-0.35873 0.9375-0.9375 0.9375h-68c-0.57877 0-0.9375-0.35873-0.9375-0.9375v-68c0-0.57877 0.35873-0.9375 0.9375-0.9375z"/>
  <path id="rect3629" style="fill:url(#linearGradient3643)" d="m12 6c-3.324 0-6 2.676-6 6v72c0 3.324 2.676 6 6 6h72c3.324 0 6-2.676 6-6v-72c0-3.324-2.676-6-6-6h-72zm2 4h68c2.216 0 4 1.784 4 4v68c0 2.216-1.784 4-4 4h-68c-2.216 0-4-1.784-4-4v-68c0-2.216 1.784-4 4-4z"/>
  <path id="rect3728" style="fill:url(#linearGradient3188)" d="m12 6c-3.324 0-6 2.676-6 6v2 68 2c0 0.33472 0.04135 0.6507 0.09375 0.96875 0.0487 0.2956 0.09704 0.59692 0.1875 0.875 0.00988 0.03038 0.020892 0.0636 0.03125 0.09375 0.098865 0.28777 0.23488 0.54745 0.375 0.8125 0.14459 0.27351 0.31562 0.53562 0.5 0.78125 0.18438 0.24564 0.37378 0.47347 0.59375 0.6875 0.43995 0.42806 0.94291 0.81453 1.5 1.0938 0.27854 0.13961 0.57347 0.24695 0.875 0.34375-0.2562-0.10022-0.48671-0.23627-0.71875-0.375-0.00741-0.0044-0.023866 0.0045-0.03125 0-0.031933-0.0193-0.062293-0.04251-0.09375-0.0625-0.1204-0.0767-0.23102-0.16351-0.34375-0.25-0.10617-0.0808-0.21328-0.16111-0.3125-0.25-0.1778-0.162-0.3473-0.346-0.4999-0.531-0.1075-0.131-0.2183-0.266-0.3124-0.407-0.0251-0.038-0.0385-0.086-0.0626-0.125-0.0647-0.103-0.1302-0.204-0.1874-0.312-0.1011-0.195-0.2057-0.416-0.2813-0.625-0.008-0.022-0.0236-0.041-0.0313-0.063-0.0318-0.092-0.0358-0.187-0.0624-0.281-0.0304-0.107-0.0704-0.203-0.0938-0.313-0.0729-0.341-0.125-0.698-0.125-1.062v-2-68-2c0-2.782 2.2182-5 5-5h2 68 2c2.7818 0 5 2.2182 5 5v2 68 2c0 0.3643-0.05212 0.72099-0.125 1.0625-0.04415 0.20689-0.08838 0.39766-0.15625 0.59375-0.0077 0.02195-0.0233 0.04069-0.03125 0.0625-0.06274 0.17374-0.13838 0.36745-0.21875 0.53125-0.04158 0.0828-0.07904 0.16995-0.125 0.25-0.0546 0.09721-0.12677 0.18835-0.1875 0.28125-0.09411 0.14096-0.20492 0.276-0.3125 0.40625-0.14317 0.17445-0.30314 0.347-0.46875 0.5-0.01117 0.0102-0.01998 0.02115-0.03125 0.03125-0.13839 0.12556-0.28509 0.23444-0.4375 0.34375-0.10257 0.07315-0.20432 0.15336-0.3125 0.21875-0.0074 0.0045-0.02384-0.0044-0.03125 0-0.23204 0.13873-0.46255 0.27478-0.71875 0.375 0.30153-0.0968 0.59646-0.20414 0.875-0.34375 0.55709-0.27922 1.0601-0.66569 1.5-1.0938 0.21997-0.21403 0.40937-0.44186 0.59375-0.6875s0.35541-0.50774 0.5-0.78125c0.14012-0.26505 0.27614-0.52473 0.375-0.8125 0.01041-0.03078 0.02133-0.06274 0.03125-0.09375 0.09046-0.27808 0.1388-0.5794 0.1875-0.875 0.053-0.318 0.094-0.634 0.094-0.969v-2-68-2c0-3.324-2.676-6-6-6h-72z"/>
  <path id="path3615" style="opacity:.6;fill:url(#radialGradient3619)" d="m12 90c-3.324 0-6-2.676-6-6v-2-68-2c0-0.33472 0.04135-0.6507 0.09375-0.96875 0.0487-0.2956 0.09704-0.59692 0.1875-0.875 0.0099-0.03 0.0209-0.063 0.0313-0.094 0.0989-0.2873 0.2349-0.547 0.375-0.812 0.1446-0.2735 0.3156-0.5356 0.5-0.7812 0.1844-0.2457 0.3738-0.4735 0.5937-0.6876 0.44-0.428 0.943-0.8145 1.5-1.0937 0.2786-0.1396 0.5735-0.2469 0.8748-0.3437-0.256 0.1002-0.4865 0.2362-0.7185 0.375-0.00741 0.0044-0.023866-0.0045-0.03125 0-0.031933 0.0193-0.062293 0.04251-0.09375 0.0625-0.1204 0.0767-0.23102 0.16351-0.34375 0.25-0.10617 0.0808-0.21328 0.16111-0.3125 0.25-0.1779 0.1614-0.3474 0.3453-0.5 0.5312-0.1075 0.1303-0.2183 0.2653-0.3124 0.4063-0.0251 0.0383-0.0385 0.0858-0.0626 0.125-0.0647 0.103-0.1302 0.2045-0.1874 0.3124-0.1011 0.1948-0.2057 0.4158-0.2813 0.625-0.008 0.0219-0.0236 0.0406-0.0313 0.0626-0.0318 0.0919-0.0358 0.1868-0.0624 0.2812-0.0304 0.1066-0.0704 0.203-0.0938 0.3125-0.0729 0.3415-0.125 0.6985-0.125 1.0625v2 68 2c0 2.7818 2.2182 5 5 5h2 68 2c2.7818 0 5-2.2182 5-5v-2-68-2c0-0.364-0.052-0.721-0.125-1.0625-0.044-0.2069-0.088-0.3977-0.156-0.5937-0.008-0.022-0.024-0.0407-0.031-0.0626-0.063-0.1737-0.139-0.3674-0.219-0.5312-0.042-0.0828-0.079-0.17-0.125-0.25-0.055-0.0972-0.127-0.1884-0.188-0.2812-0.094-0.141-0.205-0.276-0.312-0.4063-0.143-0.1745-0.303-0.347-0.469-0.5-0.011-0.0102-0.02-0.0211-0.031-0.0313-0.139-0.1255-0.285-0.2344-0.438-0.3437-0.102-0.0731-0.204-0.1534-0.312-0.2187-0.0074-0.0045-0.02384 0.0044-0.03125 0-0.23204-0.13873-0.46255-0.27478-0.71875-0.375 0.30153 0.0968 0.59646 0.20414 0.875 0.34375 0.55709 0.27922 1.0601 0.66569 1.5 1.0938 0.21997 0.21403 0.40937 0.44186 0.59375 0.6875s0.35541 0.50774 0.5 0.78125c0.14012 0.26505 0.27614 0.52473 0.375 0.8125 0.01041 0.03078 0.02133 0.06274 0.03125 0.09375 0.09046 0.27808 0.1388 0.5794 0.1875 0.875 0.053 0.318 0.094 0.634 0.094 0.969v2 68 2c0 3.324-2.676 6-6 6h-72z"/>
  <rect id="rect2841" style="fill:url(#linearGradient2843)" rx="6" ry="6" height="84" width="84" y="106" x="6"/>
  <rect id="rect3634" style="fill:#f00" rx="4" ry="4" height="76" width="76" y="110" x="10"/>
  <path id="rect3647" style="block-progression:tb;text-indent:0;filter:url(#filter3657);color:#000000;text-transform:none;display:inline" d="m14 9c-2.7527 0-5 2.2473-5 5v68c0 2.7527 2.2473 5 5 5h68c2.7527 0 5-2.2473 5-5v-68c0-2.753-2.247-5-5-5h-68zm0 2h68c1.6793 0 3 1.3207 3 3v68c0 1.6793-1.3207 3-3 3h-68c-1.6793 0-3-1.3207-3-3v-68c0-1.6793 1.3207-3 3-3z" clip-path="url(#clipPath3649)" transform="translate(-110)"/>
  <path id="path3709" style="opacity:0.16" d="m14.089 10c-2.216 0-4 1.784-4 4v68c0 2.216 1.784 4 4 4h68c2.216 0 4-1.784 4-4v-68c0-2.216-1.784-4-4-4h-68zm0 2h68c1.1403 0 2 0.8597 2 2v68c0 1.1403-0.8597 2-2 2h-68c-1.1403 0-2-0.8597-2-2v-68c0-1.1403 0.8597-2 2-2z"/>
  <path id="path3707" style="opacity:0.36" d="m14 10c-2.216 0-4 1.784-4 4v68c0 2.216 1.784 4 4 4h68c2.216 0 4-1.784 4-4v-68c0-2.216-1.784-4-4-4h-68zm0 1h68c1.6738 0 3 1.3262 3 3v68c0 1.6738-1.3262 3-3 3h-68c-1.6738 0-3-1.3262-3-3v-68c0-1.6738 1.3262-3 3-3z"/>
 </g>
 <g id="layer6">
  <rect id="rect2419-2" style="opacity:.6" rx="6" ry="6" height="84" width="84" y="6" x="6"/>
  <path id="rect3728-1" style="opacity:0.01;fill:url(#linearGradient3188)" d="m12 6c-3.324 0-6 2.676-6 6v2 68 2c0 0.33472 0.04135 0.6507 0.09375 0.96875 0.0487 0.2956 0.09704 0.59692 0.1875 0.875 0.00988 0.03038 0.020892 0.0636 0.03125 0.09375 0.098865 0.28777 0.23488 0.54745 0.375 0.8125 0.14459 0.27351 0.31562 0.53562 0.5 0.78125 0.18438 0.24564 0.37378 0.47347 0.59375 0.6875 0.43995 0.42806 0.94291 0.81453 1.5 1.0938 0.27854 0.13961 0.57347 0.24695 0.875 0.34375-0.2562-0.10022-0.48671-0.23627-0.71875-0.375-0.00741-0.0044-0.023866 0.0045-0.03125 0-0.031933-0.0193-0.062293-0.04251-0.09375-0.0625-0.1204-0.0767-0.23102-0.16351-0.34375-0.25-0.10617-0.0808-0.21328-0.16111-0.3125-0.25-0.1778-0.162-0.3473-0.346-0.4999-0.531-0.1075-0.131-0.2183-0.266-0.3124-0.407-0.0251-0.038-0.0385-0.086-0.0626-0.125-0.0647-0.103-0.1302-0.204-0.1874-0.312-0.1011-0.195-0.2057-0.416-0.2813-0.625-0.008-0.022-0.0236-0.041-0.0313-0.063-0.0318-0.092-0.0358-0.187-0.0624-0.281-0.0304-0.107-0.0704-0.203-0.0938-0.313-0.0729-0.341-0.125-0.698-0.125-1.062v-2-68-2c0-2.782 2.2182-5 5-5h2 68 2c2.7818 0 5 2.2182 5 5v2 68 2c0 0.3643-0.05212 0.72099-0.125 1.0625-0.04415 0.20689-0.08838 0.39766-0.15625 0.59375-0.0077 0.02195-0.0233 0.04069-0.03125 0.0625-0.06274 0.17374-0.13838 0.36745-0.21875 0.53125-0.04158 0.0828-0.07904 0.16995-0.125 0.25-0.0546 0.09721-0.12677 0.18835-0.1875 0.28125-0.09411 0.14096-0.20492 0.276-0.3125 0.40625-0.14317 0.17445-0.30314 0.347-0.46875 0.5-0.01117 0.0102-0.01998 0.02115-0.03125 0.03125-0.13839 0.12556-0.28509 0.23444-0.4375 0.34375-0.10257 0.07315-0.20432 0.15336-0.3125 0.21875-0.0074 0.0045-0.02384-0.0044-0.03125 0-0.23204 0.13873-0.46255 0.27478-0.71875 0.375 0.30153-0.0968 0.59646-0.20414 0.875-0.34375 0.55709-0.27922 1.0601-0.66569 1.5-1.0938 0.21997-0.21403 0.40937-0.44186 0.59375-0.6875s0.35541-0.50774 0.5-0.78125c0.14012-0.26505 0.27614-0.52473 0.375-0.8125 0.01041-0.03078 0.02133-0.06274 0.03125-0.09375 0.09046-0.27808 0.1388-0.5794 0.1875-0.875 0.053-0.318 0.094-0.634 0.094-0.969v-2-68-2c0-3.324-2.676-6-6-6h-72z"/>
  <path id="path3615-6" style="opacity:.15;fill:url(#radialGradient3619-5)" d="m12 90c-3.324 0-6-2.676-6-6v-2-68-2c0-0.33472 0.04135-0.6507 0.09375-0.96875 0.0487-0.2956 0.09704-0.59692 0.1875-0.875 0.0099-0.03 0.0209-0.063 0.0313-0.094 0.0989-0.2873 0.2349-0.547 0.375-0.812 0.1446-0.2735 0.3156-0.5356 0.5-0.7812 0.1844-0.2457 0.3738-0.4735 0.5937-0.6876 0.44-0.428 0.943-0.8145 1.5-1.0937 0.2786-0.1396 0.5735-0.2469 0.8748-0.3437-0.256 0.1002-0.4865 0.2362-0.7185 0.375-0.00741 0.0044-0.023866-0.0045-0.03125 0-0.031933 0.0193-0.062293 0.04251-0.09375 0.0625-0.1204 0.0767-0.23102 0.16351-0.34375 0.25-0.10617 0.0808-0.21328 0.16111-0.3125 0.25-0.1779 0.1614-0.3474 0.3453-0.5 0.5312-0.1075 0.1303-0.2183 0.2653-0.3124 0.4063-0.0251 0.0383-0.0385 0.0858-0.0626 0.125-0.0647 0.103-0.1302 0.2045-0.1874 0.3124-0.1011 0.1948-0.2057 0.4158-0.2813 0.625-0.008 0.0219-0.0236 0.0406-0.0313 0.0626-0.0318 0.0919-0.0358 0.1868-0.0624 0.2812-0.0304 0.1066-0.0704 0.203-0.0938 0.3125-0.0729 0.3415-0.125 0.6985-0.125 1.0625v2 68 2c0 2.7818 2.2182 5 5 5h2 68 2c2.7818 0 5-2.2182 5-5v-2-68-2c0-0.364-0.052-0.721-0.125-1.0625-0.044-0.2069-0.088-0.3977-0.156-0.5937-0.008-0.022-0.024-0.0407-0.031-0.0626-0.063-0.1737-0.139-0.3674-0.219-0.5312-0.042-0.0828-0.079-0.17-0.125-0.25-0.055-0.0972-0.127-0.1884-0.188-0.2812-0.094-0.141-0.205-0.276-0.312-0.4063-0.143-0.1745-0.303-0.347-0.469-0.5-0.011-0.0102-0.02-0.0211-0.031-0.0313-0.139-0.1255-0.285-0.2344-0.438-0.3437-0.102-0.0731-0.204-0.1534-0.312-0.2187-0.0074-0.0045-0.02384 0.0044-0.03125 0-0.23204-0.13873-0.46255-0.27478-0.71875-0.375 0.30153 0.0968 0.59646 0.20414 0.875 0.34375 0.55709 0.27922 1.0601 0.66569 1.5 1.0938 0.21997 0.21403 0.40937 0.44186 0.59375 0.6875s0.35541 0.50774 0.5 0.78125c0.14012 0.26505 0.27614 0.52473 0.375 0.8125 0.01041 0.03078 0.02133 0.06274 0.03125 0.09375 0.09046 0.27808 0.1388 0.5794 0.1875 0.875 0.053 0.318 0.094 0.634 0.094 0.969v2 68 2c0 3.324-2.676 6-6 6h-72z"/>
 </g>
 <g id="layer3">
  <path id="path3792" style="opacity:.1;color:#000000" d="m30.594 21c-3.847-0.106-7.026 3.628-6.594 7.394 0.023 14.208-0.045 28.419 0.034 42.626 0.27 3.64 3.862 6.418 7.445 5.98 11.533-0.023 23.07 0.046 34.602-0.035 3.651-0.289 6.346-3.94 5.919-7.506-0.023-14.159 0.045-28.321-0.034-42.479-0.27-3.64-3.862-6.418-7.445-5.98h-33.927zm3.406 10h28v3.8125c-0.097-1.42-1.627-2.053-2.885-1.812h-23.49c-0.867 0.167-1.587 0.946-1.625 1.844v-3.844zm0 8.1875c0.08 0.918 0.819 1.663 1.719 1.812-0.911 0.094-1.68 0.923-1.719 1.844v-3.656zm28 0v3.625c-0.082-0.944-0.871-1.729-1.812-1.813 0.953-0.09 1.719-0.859 1.812-1.812zm-28 8c0.08 0.918 0.819 1.663 1.719 1.812-0.911 0.094-1.68 0.923-1.719 1.844v-3.656zm28 0v3.625c-0.082-0.944-0.871-1.729-1.812-1.813 0.953-0.09 1.719-0.859 1.812-1.812zm-28 8c0.08194 0.94356 0.87053 1.7287 1.8125 1.8125-0.94356 0.08194-1.7287 0.87053-1.8125 1.8125v-3.625zm28 0v11.812h-5.8125c1.42-0.097 2.053-1.627 1.812-2.885 0.149-1.162-0.078-2.688-1.406-3.021-0.903-0.13 0.796-0.243 0.927-0.78 0.784-0.922 0.38-2.214 0.479-3.314 1.2956-0.0444 3.0652 0.35752 3.7812-1.0625 0.09209-0.24291 0.1988-0.4884 0.21875-0.75zm-28 8c0.09666 1.4201 1.627 2.0535 2.8851 1.8125h11.115c-0.03031 1.0138 0.80997 1.915 1.8125 2h-15.812v-3.8125z"/>
  <path id="path3788" style="opacity:.15;color:#000000" d="m30.594 22c-3.09 0-5.594 2.548-5.594 5.656v42.688c0 3.108 2.504 5.656 5.594 5.656h34.812c3.09 0 5.594-2.548 5.594-5.656v-42.688c0-3.108-2.504-5.656-5.594-5.656h-34.812zm3.406 8h1 26 1c0.56761 0 1 0.43239 1 1v1 34 1c0 0.56761-0.43239 1-1 1h-1-26-1c-0.56761 0-1-0.43239-1-1v-1-34-1c0-0.56761 0.43239-1 1-1zm1.8125 4a1.007 1.007 0 0 0 -0.812 1v4a1.007 1.007 0 0 0 1 1h24a1.007 1.007 0 0 0 1 -1v-4a1.007 1.007 0 0 0 -1 -1h-24a1.007 1.007 0 0 0 -0.1875 0zm0 8a1.007 1.007 0 0 0 -0.812 1v4a1.007 1.007 0 0 0 1 1h24a1.007 1.007 0 0 0 1 -1v-4a1.007 1.007 0 0 0 -1 -1h-24a1.007 1.007 0 0 0 -0.1875 0zm0 8a1.007 1.007 0 0 0 -0.812 1v4a1.007 1.007 0 0 0 1 1h13.812a1.007 1.007 0 0 0 -0.812 1v1.8125a1.007 1.007 0 0 0 -1 -0.812h-12a1.007 1.007 0 0 0 -1 1v4a1.007 1.007 0 0 0 1 1h12a1.007 1.007 0 0 0 1 -0.84375v1.844a1.007 1.007 0 0 0 1 1h6a1.007 1.007 0 0 0 1 -1v-2a1.007 1.007 0 0 0 -1 -1h-1v-2h1a1.007 1.007 0 0 0 1 -1v-2a1.007 1.007 0 0 0 -0.844 -1h3.844a1.007 1.007 0 0 0 1 -1v-4a1.007 1.007 0 0 0 -1 -1h-24a1.007 1.007 0 0 0 -0.1875 0zm13.188 9.188a1.007 1.007 0 0 0 1 0.812h1v2h-1a1.007 1.007 0 0 0 -1 0.84375v-3.6562z"/>
  <path id="path3782" style="opacity:.3;color:#000000" d="m30.594 23c-2.539 0-4.594 2.084-4.594 4.656v42.688c0 2.572 2.055 4.656 4.594 4.656h34.812c2.539 0 4.594-2.084 4.594-4.656v-42.688c0-2.572-2.055-4.656-4.594-4.656h-34.812zm3.406 6h1 26 1c1.108 0 2 0.892 2 2v1 34 1c0 1.108-0.892 2-2 2h-1-26-1c-1.108 0-2-0.892-2-2v-1-34-1c0-1.108 0.892-2 2-2zm2 6v4h24v-4h-24zm0 8v4h24v-4h-24zm0 8v4h24v-4h-24zm14 6v2h2v4h-2v2h6v-2h-2v-4h2v-2h-6zm-14 2v4h12v-4h-12z"/>
  <path id="path3778" style="opacity:.1" d="m23.781 22.938c-0.000482 0.000025-0.09327 0.0312-0.09375 0.03125a1.0139 1.0139 0 0 0 -0.125 0c-0.000763 0.000172-0.18675 0.06226-0.1875 0.0625-0.000746 0.000236-0.15553 0.0622-0.15625 0.0625-0.000723 0.000299-0.15556 0.06214-0.15625 0.0625-0.000695 0.000359-0.15559 0.09333-0.15625 0.09375-0.000662 0.000417-0.12438 0.09328-0.125 0.09375-0.000624 0.000472-0.15567 0.12448-0.15625 0.125-0.000581 0.000523-0.12446 0.12443-0.125 0.125-0.000535 0.000571-0.09327 0.12439-0.09375 0.125-0.000484 0.000614-0.12457 0.12435-0.125 0.125-0.00043 0.000653-0.06213 0.15556-0.0625 0.15625-0.000373 0.000688-0.09344 0.15553-0.09375 0.15625-0.000313 0.000717-0.06225 0.15551-0.0625 0.15625-0.000251 0.000741-0.06231 0.18674-0.0625 0.1875-0.000187 0.000759-0.03113 0.15548-0.03125 0.15625-0.000121 0.000773 0.000055 0.18672 0 0.1875s-0.000012 0.15547 0 0.15625v6c0.000009 0.000889-0.000095 0.21787 0 0.21875 0.000095 0.000884 0.03107 0.18663 0.03125 0.1875 0.00018 0.000871 0.06224 0.18665 0.0625 0.1875 0.000263 0.00085 0.06216 0.18668 0.0625 0.1875 0.000344 0.00082 0.06208 0.18672 0.0625 0.1875 0.000422 0.000783 0.1245 0.15551 0.125 0.15625 0.000496 0.000738 0.12444 0.15556 0.125 0.15625 0.000565 0.000687 0.12437 0.15562 0.125 0.15625 0.000629 0.000629 0.15556 0.12444 0.15625 0.125 0.000687 0.000565 0.15551 0.1245 0.15625 0.125 0.000738 0.000496 0.15547 0.12458 0.15625 0.125 0.000783 0.000422 0.18668 0.06216 0.1875 0.0625 0.00082 0.000344 0.18665 0.06224 0.1875 0.0625 0.000552 0.000171 0.06815 0.01662 0.125 0.03125-0.03681 0.0099-0.15562 0.0623-0.15625 0.0625-0.000746 0.000236-0.15553 0.0622-0.15625 0.0625-0.000723 0.000299-0.15556 0.06214-0.15625 0.0625-0.000695 0.000359-0.15559 0.09333-0.15625 0.09375-0.000662 0.000417-0.12438 0.09328-0.125 0.09375-0.000624 0.000472-0.15567 0.12448-0.15625 0.125-0.000581 0.000523-0.12446 0.12443-0.125 0.125-0.000535 0.000571-0.09327 0.12439-0.09375 0.125-0.000484 0.000614-0.12457 0.12435-0.125 0.125-0.00043 0.000653-0.06213 0.15556-0.0625 0.15625-0.000373 0.000688-0.09344 0.15553-0.09375 0.15625-0.000313 0.000717-0.06225 0.15551-0.0625 0.15625-0.000251 0.000741-0.06231 0.18674-0.0625 0.1875-0.000187 0.000759-0.03113 0.15548-0.03125 0.15625-0.000121 0.000773 0.000055 0.18672 0 0.1875s-0.000012 0.15547 0 0.15625v6c0.000009 0.000889-0.000095 0.21787 0 0.21875 0.000095 0.000884 0.03107 0.18663 0.03125 0.1875 0.00018 0.000871 0.06224 0.18665 0.0625 0.1875 0.000263 0.00085 0.06216 0.18668 0.0625 0.1875 0.000344 0.00082 0.06208 0.18672 0.0625 0.1875 0.000422 0.000783 0.1245 0.15551 0.125 0.15625 0.000496 0.000738 0.12444 0.15556 0.125 0.15625 0.000565 0.000687 0.12437 0.15562 0.125 0.15625 0.000629 0.000629 0.15556 0.12444 0.15625 0.125 0.000687 0.000565 0.15551 0.1245 0.15625 0.125 0.000738 0.000496 0.15547 0.12458 0.15625 0.125 0.000783 0.000422 0.18668 0.06216 0.1875 0.0625 0.00082 0.000344 0.18665 0.06224 0.1875 0.0625 0.000552 0.000171 0.06815 0.01662 0.125 0.03125-0.03681 0.0099-0.15562 0.0623-0.15625 0.0625-0.000746 0.000236-0.15553 0.0622-0.15625 0.0625-0.000723 0.000299-0.15556 0.06214-0.15625 0.0625-0.000695 0.000359-0.15559 0.09333-0.15625 0.09375-0.000662 0.000417-0.12438 0.09328-0.125 0.09375-0.000624 0.000472-0.15567 0.12448-0.15625 0.125-0.000581 0.000523-0.12446 0.12443-0.125 0.125-0.000535 0.000571-0.09327 0.12439-0.09375 0.125-0.000484 0.000614-0.12457 0.12435-0.125 0.125-0.00043 0.000653-0.06213 0.15556-0.0625 0.15625-0.000373 0.000688-0.09344 0.15553-0.09375 0.15625-0.000313 0.000717-0.06225 0.15551-0.0625 0.15625-0.000251 0.000741-0.06231 0.18674-0.0625 0.1875-0.000187 0.000759-0.03113 0.15548-0.03125 0.15625-0.000121 0.000773 0.000055 0.18672 0 0.1875s-0.000012 0.15547 0 0.15625v6c0.000009 0.000889-0.000095 0.21787 0 0.21875 0.000095 0.000884 0.03107 0.18663 0.03125 0.1875 0.00018 0.000871 0.06224 0.18665 0.0625 0.1875 0.000263 0.00085 0.06216 0.18668 0.0625 0.1875 0.000344 0.00082 0.06208 0.18672 0.0625 0.1875 0.000422 0.000783 0.1245 0.15551 0.125 0.15625 0.000496 0.000738 0.12444 0.15556 0.125 0.15625 0.000565 0.000687 0.12437 0.15562 0.125 0.15625 0.000629 0.000629 0.15556 0.12444 0.15625 0.125 0.000687 0.000565 0.15551 0.1245 0.15625 0.125 0.000738 0.000496 0.15547 0.12458 0.15625 0.125 0.000783 0.000422 0.18668 0.06216 0.1875 0.0625 0.00082 0.000344 0.18665 0.06224 0.1875 0.0625 0.00085 0.000263 0.18663 0.06232 0.1875 0.0625 0.000871 0.00018 0.18662 0.03115 0.1875 0.03125 0.000884 0.000095 0.21786-0.000009 0.21875 0h48c0.000889-0.000009 0.21787 0.000095 0.21875 0 0.000884-0.000095 0.18663-0.03107 0.1875-0.03125 0.000871-0.00018 0.18665-0.06224 0.1875-0.0625 0.00085-0.000263 0.18668-0.06216 0.1875-0.0625 0.00082-0.000344 0.18672-0.06208 0.1875-0.0625 0.000783-0.000422 0.15551-0.1245 0.15625-0.125 0.000738-0.000496 0.15556-0.12444 0.15625-0.125 0.000687-0.000565 0.15562-0.12437 0.15625-0.125 0.000629-0.000629 0.12444-0.15556 0.125-0.15625 0.000565-0.000687 0.1245-0.15551 0.125-0.15625 0.000496-0.000738 0.12458-0.15547 0.125-0.15625 0.000422-0.000783 0.06216-0.18668 0.0625-0.1875 0.000344-0.00082 0.06224-0.18665 0.0625-0.1875 0.000263-0.00085 0.06232-0.18663 0.0625-0.1875 0.00018-0.000871 0.03115-0.18662 0.03125-0.1875 0.000095-0.000884-0.000009-0.21786 0-0.21875v-6c-0.000009-0.000889 0.000095-0.21787 0-0.21875-0.000095-0.000884-0.03107-0.18663-0.03125-0.1875-0.00018-0.000871-0.06224-0.18665-0.0625-0.1875-0.000263-0.00085-0.06216-0.18668-0.0625-0.1875-0.000344-0.00082-0.06208-0.18672-0.0625-0.1875-0.000422-0.000783-0.1245-0.15551-0.125-0.15625-0.000496-0.000738-0.12444-0.15556-0.125-0.15625-0.000565-0.000687-0.12437-0.15562-0.125-0.15625-0.000629-0.000629-0.15556-0.12444-0.15625-0.125-0.000687-0.000565-0.15551-0.1245-0.15625-0.125-0.000738-0.000496-0.15547-0.12458-0.15625-0.125-0.000783-0.000422-0.18668-0.06216-0.1875-0.0625-0.00082-0.000344-0.18665-0.06224-0.1875-0.0625-0.00085-0.000263-0.18663-0.06232-0.1875-0.0625 0.000871-0.00018 0.18665-0.06224 0.1875-0.0625 0.00085-0.000263 0.18668-0.06216 0.1875-0.0625 0.00082-0.000344 0.18672-0.06208 0.1875-0.0625 0.000783-0.000422 0.15551-0.1245 0.15625-0.125 0.000738-0.000496 0.15556-0.12444 0.15625-0.125 0.000687-0.000565 0.15562-0.12437 0.15625-0.125 0.000629-0.000629 0.12444-0.15556 0.125-0.15625 0.000565-0.000687 0.1245-0.15551 0.125-0.15625 0.000496-0.000738 0.12458-0.15547 0.125-0.15625 0.000422-0.000783 0.06216-0.18668 0.0625-0.1875 0.000344-0.00082 0.06224-0.18665 0.0625-0.1875 0.000263-0.00085 0.06232-0.18663 0.0625-0.1875 0.00018-0.000871 0.03115-0.18662 0.03125-0.1875 0.000095-0.000884-0.000009-0.21786 0-0.21875v-6c-0.000009-0.000889 0.000095-0.21787 0-0.21875-0.000095-0.000884-0.03107-0.18663-0.03125-0.1875-0.00018-0.000871-0.06224-0.18665-0.0625-0.1875-0.000263-0.00085-0.06216-0.18668-0.0625-0.1875-0.000344-0.00082-0.06208-0.18672-0.0625-0.1875-0.000422-0.000783-0.1245-0.15551-0.125-0.15625-0.000496-0.000738-0.12444-0.15556-0.125-0.15625-0.000565-0.000687-0.12437-0.15562-0.125-0.15625-0.000629-0.000629-0.15556-0.12444-0.15625-0.125-0.000687-0.000565-0.15551-0.1245-0.15625-0.125-0.000738-0.000496-0.15547-0.12458-0.15625-0.125-0.000783-0.000422-0.18668-0.06216-0.1875-0.0625-0.00082-0.000344-0.18665-0.06224-0.1875-0.0625-0.00085-0.000263-0.18663-0.06232-0.1875-0.0625 0.000871-0.00018 0.18665-0.06224 0.1875-0.0625 0.00085-0.000263 0.18668-0.06216 0.1875-0.0625 0.00082-0.000344 0.18672-0.06208 0.1875-0.0625 0.000783-0.000422 0.15551-0.1245 0.15625-0.125 0.000738-0.000496 0.15556-0.12444 0.15625-0.125 0.000687-0.000565 0.15562-0.12437 0.15625-0.125 0.000629-0.000629 0.12444-0.15556 0.125-0.15625 0.000565-0.000687 0.1245-0.15551 0.125-0.15625 0.000496-0.000738 0.12458-0.15547 0.125-0.15625 0.000422-0.000783 0.06216-0.18668 0.0625-0.1875 0.000344-0.00082 0.06224-0.18665 0.0625-0.1875 0.000263-0.00085 0.06232-0.18663 0.0625-0.1875 0.00018-0.000871 0.03115-0.18662 0.03125-0.1875 0.000095-0.000884-0.000009-0.21786 0-0.21875v-6c-0.000009-0.000889 0.000095-0.21787 0-0.21875-0.000095-0.000884-0.03107-0.18663-0.03125-0.1875-0.00018-0.000871-0.06224-0.18665-0.0625-0.1875-0.000263-0.00085-0.06216-0.18668-0.0625-0.1875-0.000344-0.00082-0.06208-0.18672-0.0625-0.1875-0.000422-0.000783-0.1245-0.15551-0.125-0.15625-0.000496-0.000738-0.12444-0.15556-0.125-0.15625-0.000565-0.000687-0.12437-0.15562-0.125-0.15625-0.000629-0.000629-0.15556-0.12444-0.15625-0.125-0.000687-0.000565-0.15551-0.1245-0.15625-0.125-0.000738-0.000496-0.15547-0.12458-0.15625-0.125-0.000783-0.000422-0.18668-0.06216-0.1875-0.0625-0.00082-0.000344-0.18665-0.06224-0.1875-0.0625-0.00085-0.000263-0.18663-0.06232-0.1875-0.0625-0.000871-0.00018-0.18662-0.03115-0.1875-0.03125-0.000884-0.000095-0.21786 0.000009-0.21875 0h-47.906c-0.00048-0.000051-0.09327-0.03122-0.09375-0.03125-0.000482-0.000025-0.12452 0-0.125 0-0.000483 0-0.09327-0.000025-0.09375 0zm36.157 30.968c-0.000512 0.000019-0.12449 0.0312-0.125 0.03125-0.000854 0.000085-0.18666 0.03108-0.1875 0.03125-0.000842 0.000165-0.18668 0.03101-0.1875 0.03125-0.000823 0.000243-0.1867 0.06218-0.1875 0.0625-0.000797 0.000318-0.18674 0.09336-0.1875 0.09375-0.000764 0.000391-0.15553 0.09329-0.15625 0.09375-0.000724 0.000461-0.15557 0.09322-0.15625 0.09375-0.000677 0.000527-0.15562 0.12441-0.15625 0.125-0.000625 0.000588-0.12443 0.15561-0.125 0.15625-0.000568 0.000643-0.1245 0.12431-0.125 0.125-0.000505 0.000694-0.09331 0.18676-0.09375 0.1875-0.000438 0.000738-0.09338 0.15548-0.09375 0.15625-0.000367 0.000775-0.06221 0.18669-0.0625 0.1875-0.000293 0.000806-0.06228 0.18667-0.0625 0.1875-0.000217 0.00083-0.06236 0.18665-0.0625 0.1875-0.000138 0.000847 0.000059 0.18664 0 0.1875-0.000049 0.000713 0.000936 0.11166 0 0.15625-0.000187 0.0089-0.000004 0.03111 0 0.03125v2.9375h-19.938v-2.9688c-0.000002-0.000481 0.000027-0.12452 0-0.125s0.000052-0.09327 0-0.09375c-0.000052-0.000478 0.000077-0.09327 0-0.09375-0.000077-0.000475-0.03115-0.12453-0.03125-0.125-0.000102-0.00047-0.03112-0.09329-0.03125-0.09375-0.000126-0.000464-0.0311-0.09329-0.03125-0.09375-0.00015-0.000457-0.03108-0.12455-0.03125-0.125-0.000174-0.000448-0.03105-0.09331-0.03125-0.09375-0.000197-0.000439-0.06228-0.09332-0.0625-0.09375-0.00022-0.000428-0.06226-0.09334-0.0625-0.09375-0.000242-0.000415-0.03099-0.09335-0.03125-0.09375-0.000264-0.000402-0.06222-0.09336-0.0625-0.09375-0.000284-0.000388-0.0622-0.06213-0.0625-0.0625-0.000304-0.000372-0.09343-0.09339-0.09375-0.09375-0.000323-0.000356-0.06216-0.09341-0.0625-0.09375-0.000342-0.000339-0.09339-0.06218-0.09375-0.0625-0.000359-0.00032-0.06213-0.0622-0.0625-0.0625-0.000375-0.000301-0.09336-0.06222-0.09375-0.0625-0.00039-0.000281-0.09334-0.06224-0.09375-0.0625-0.000405-0.00026-0.09333-0.06226-0.09375-0.0625-0.000418-0.000238-0.09332-0.06228-0.09375-0.0625-0.00043-0.000216-0.09331-0.03106-0.09375-0.03125-0.00044-0.000193-0.0933-0.03108-0.09375-0.03125s-0.09329-0.06235-0.09375-0.0625c-0.000458-0.000146-0.12454 0.000122-0.125 0-0.000465-0.000122-0.09328-0.03115-0.09375-0.03125-0.000471-0.000097-0.09327-0.03118-0.09375-0.03125-0.000475-0.000073-0.12452 0.000048-0.125 0-0.000479-0.000048-0.09327-0.03123-0.09375-0.03125-0.00048-0.000022-0.12452-0.000003-0.125 0-0.000481 0.000003-0.09327-0.000028-0.09375 0-0.000367 0.000021-0.06424 0.02875-0.09375 0.03125-0.0091 0.000769-0.03114-0.000012-0.03125 0-0.04375 0.0057-0.12439-0.000105-0.125 0-0.000758 0.000131-0.18676 0.06231-0.1875 0.0625-0.000744 0.000194-0.15552 0.03099-0.15625 0.03125-0.000725 0.000256-0.15555 0.06218-0.15625 0.0625-0.000701 0.000316-0.15558 0.09338-0.15625 0.09375-0.000672 0.000373-0.15561 0.09332-0.15625 0.09375-0.000639 0.000428-0.1244 0.09327-0.125 0.09375-0.000601 0.00048-0.12444 0.09322-0.125 0.09375a1.0139 1.0139 0 0 0 -0.03125 0.03125l-8 8c-0.000617 0.000619-0.12444 0.15558-0.125 0.15625-0.000555 0.000675-0.12451 0.15553-0.125 0.15625-0.000488 0.000724-0.09333 0.15548-0.09375 0.15625-0.000417 0.000768-0.09341 0.1867-0.09375 0.1875-0.000342 0.000804-0.06224 0.18667-0.0625 0.1875-0.000264 0.000833-0.06232 0.18665-0.0625 0.1875-0.000184 0.000854-0.03115 0.18663-0.03125 0.1875-0.000102 0.000868 0.000019 0.18663 0 0.1875-0.000019 0.000874-0.000064 0.18663 0 0.1875 0.000064 0.000871 0.0311 0.21789 0.03125 0.21875 0.000147 0.000861 0.03102 0.18666 0.03125 0.1875 0.000228 0.000843 0.06219 0.18668 0.0625 0.1875 0.000307 0.000818 0.09337 0.15546 0.09375 0.15625 0.000384 0.000785 0.09329 0.18676 0.09375 0.1875 0.000457 0.000745 0.09323 0.15555 0.09375 0.15625 0.000525 0.000698 0.12441 0.1556 0.125 0.15625l8 9c0.000461 0.000508 0.09325 0.09328 0.09375 0.09375 0.000498 0.000472 0.12447 0.12457 0.125 0.125 0.000532 0.000434 0.12444 0.09336 0.125 0.09375 0.000562 0.000393 0.12441 0.06215 0.125 0.0625s0.12438 0.09345 0.125 0.09375c0.000615 0.000305 0.15561 0.06224 0.15625 0.0625 0.000636 0.000258 0.1556 0.03104 0.15625 0.03125 0.000653 0.00021 0.12433 0.06234 0.125 0.0625 0.000667 0.00016 0.15557 0.03114 0.15625 0.03125 0.000677 0.00011 0.15557-0.000059 0.15625 0 0.000683 0.000059 0.15556-0.000008 0.15625 0 0.000686 0.000008 0.15556 0.000043 0.15625 0 0.000685-0.000043 0.15557 0.000095 0.15625 0 0.000679-0.000095 0.15558-0.0311 0.15625-0.03125 0.00067-0.000145 0.12434-0.03105 0.125-0.03125 0.000658-0.000195 0.15561-0.06226 0.15625-0.0625 0.000641-0.000243 0.15563-0.06221 0.15625-0.0625 0.000621-0.000291 0.1244-0.06216 0.125-0.0625 0.000598-0.000336 0.12443-0.09337 0.125-0.09375 0.000571-0.00038 0.12446-0.09333 0.125-0.09375 0.000541-0.000422 0.12449-0.09329 0.125-0.09375 0.000508-0.000461 0.09328-0.09325 0.09375-0.09375 0.000472-0.000497 0.12457-0.12447 0.125-0.125 0.000434-0.000531 0.09336-0.12444 0.09375-0.125 0.000393-0.000562 0.06215-0.12441 0.0625-0.125s0.09345-0.12438 0.09375-0.125c0.000305-0.000615 0.06224-0.15561 0.0625-0.15625 0.000258-0.000636 0.03104-0.12435 0.03125-0.125 0.00021-0.000653 0.06234-0.15558 0.0625-0.15625 0.00016-0.000667 0.03114-0.15557 0.03125-0.15625 0.00011-0.000677-0.000059-0.15557 0-0.15625 0.000059-0.000683-0.000008-0.15556 0-0.15625v-3.9688h19.938v3.9688c0.000008 0.000686-0.000059 0.15557 0 0.15625 0.000059 0.000683-0.00011 0.15557 0 0.15625 0.00011 0.000677 0.03109 0.15558 0.03125 0.15625 0.00016 0.000667 0.06229 0.1556 0.0625 0.15625 0.00021 0.000653 0.03099 0.12436 0.03125 0.125 0.000258 0.000636 0.0622 0.15564 0.0625 0.15625 0.000305 0.000615 0.0934 0.12441 0.09375 0.125s0.06211 0.12444 0.0625 0.125c0.000393 0.000562 0.09332 0.12447 0.09375 0.125 0.000434 0.000531 0.12453 0.1245 0.125 0.125 0.000472 0.000497 0.09324 0.09329 0.09375 0.09375 0.000508 0.000461 0.12446 0.09333 0.125 0.09375 0.000541 0.000422 0.12443 0.09337 0.125 0.09375 0.000571 0.00038 0.1244 0.09341 0.125 0.09375 0.000598 0.000336 0.12438 0.06221 0.125 0.0625 0.000621 0.000291 0.15561 0.06226 0.15625 0.0625 0.000641 0.000243 0.15559 0.0623 0.15625 0.0625 0.000658 0.000195 0.12433 0.0311 0.125 0.03125 0.00067 0.000145 0.15557 0.03115 0.15625 0.03125 0.000679 0.000095 0.15556-0.000043 0.15625 0 0.000685 0.000043 0.15556 0.000008 0.15625 0 0.000686-0.000008 0.15557 0.000059 0.15625 0 0.000683-0.000059 0.15557 0.00011 0.15625 0 0.001 0 0.156-0.031 0.157-0.031 0.000667-0.00016 0.12435-0.06229 0.125-0.0625 0.000653-0.00021 0.15561-0.03099 0.15625-0.03125 0.000636-0.000258 0.15564-0.0622 0.15625-0.0625 0.000615-0.000305 0.12441-0.0934 0.125-0.09375s0.12444-0.06211 0.125-0.0625c0.000562-0.000393 0.12447-0.09332 0.125-0.09375 0.000532-0.000434 0.1245-0.12453 0.125-0.125 0.000498-0.000472 0.09329-0.09324 0.09375-0.09375l8-9c0.000589-0.000645 0.12448-0.15555 0.125-0.15625 0.000525-0.000698 0.09329-0.1555 0.09375-0.15625 0.000457-0.000745 0.09337-0.18672 0.09375-0.1875 0.000384-0.000785 0.09344-0.15543 0.09375-0.15625 0.000307-0.000818 0.06227-0.18666 0.0625-0.1875 0.000228-0.000843 0.0311-0.18664 0.03125-0.1875 0.000147-0.000861 0.03119-0.21788 0.03125-0.21875 0.000064-0.000871 0.000019-0.18663 0-0.1875-0.000019-0.000874 0.000102-0.18663 0-0.1875-0.000102-0.000868-0.03107-0.18665-0.03125-0.1875-0.000184-0.000854-0.06224-0.18667-0.0625-0.1875-0.000264-0.000833-0.06216-0.1867-0.0625-0.1875-0.000342-0.000804-0.09333-0.18673-0.09375-0.1875-0.000417-0.000768-0.09326-0.15553-0.09375-0.15625-0.000488-0.000724-0.12444-0.15558-0.125-0.15625-0.000555-0.000675-0.12438-0.15563-0.125-0.15625l-8-8c-0.000356-0.000368-0.06212-0.06215-0.0625-0.0625-0.000376-0.000348-0.09336-0.09342-0.09375-0.09375-0.000395-0.000326-0.09334-0.0622-0.09375-0.0625-0.000413-0.000303-0.09332-0.06222-0.09375-0.0625-0.000429-0.00028-0.09331-0.06224-0.09375-0.0625-0.000444-0.000256-0.09329-0.06227-0.09375-0.0625-0.000458-0.00023-0.12453-0.03105-0.125-0.03125-0.00047-0.000204-0.09327-0.03107-0.09375-0.03125-0.00048-0.000178-0.12451-0.06235-0.125-0.0625-0.00049-0.000151-0.09325-0.03113-0.09375-0.03125-0.000497-0.000123-0.1245 0.000095-0.125 0-0.000503-0.000095-0.09324-0.03118-0.09375-0.03125-0.000508-0.000067-0.12449 0.000039-0.125 0-0.000511-0.000039-0.12449-0.03124-0.125-0.03125-0.000512-0.00001-0.09324-0.000019-0.09375 0z" transform="translate(100)"/>
  <path id="path3770" style="opacity:.15" d="m23.781 23.969a1.0413 1.0413 0 0 0 -0.812 1.031v6a1.0413 1.0413 0 0 0 1.031 1.031h48a1.0413 1.0413 0 0 0 1.031 -1.031v-6a1.0413 1.0413 0 0 0 -1.031 -1.031h-48a1.0413 1.0413 0 0 0 -0.21875 0zm0 10a1.0413 1.0413 0 0 0 -0.812 1.031v6a1.0413 1.0413 0 0 0 1.031 1.031h48a1.0413 1.0413 0 0 0 1.031 -1.031v-6a1.0413 1.0413 0 0 0 -1.031 -1.031h-48a1.0413 1.0413 0 0 0 -0.21875 0zm0 10a1.0413 1.0413 0 0 0 -0.812 1.031v6a1.0413 1.0413 0 0 0 1.031 1.031h48a1.0413 1.0413 0 0 0 1.031 -1.031v-6a1.0413 1.0413 0 0 0 -1.031 -1.031h-48a1.0413 1.0413 0 0 0 -0.21875 0zm12.094 11a1.0413 1.0413 0 0 0 -0.625 0.281l-8 8a1.0413 1.0413 0 0 0 -0.03125 1.4375l8 9a1.0413 1.0413 0 0 0 1.812 -0.688v-4.9688h21.938v4.9688a1.0413 1.0413 0 0 0 1.8125 0.6875l8-9a1.0413 1.0413 0 0 0 -0.032 -1.438l-8-8a1.0413 1.0413 0 0 0 -1.781 0.75v3.9688h-21.938v-3.9688a1.0413 1.0413 0 0 0 -1.156 -1.031z" transform="translate(100)"/>
  <path id="path3772" style="opacity:.3" d="m124 25v6h48v-6h-48zm0 10v6h48v-6h-48zm0 10v6h48v-6h-48zm12 11-8 8 8 9v-6h24v6l8-9-8-8v5h-24v-5z"/>
  <path id="path3724" style="fill:url(#linearGradient3746)" d="m124 24v6h48v-6h-48zm0 10v6h48v-6h-48zm0 10v6h48v-6h-48zm12 11-8 8 8 9v-6h24v6l8-9-8-8v5h-24v-5z"/>
  <path id="path3748" style="opacity:.75;fill:#fff" d="m124 24v1h48v-1h-48zm0 10v1h48v-1h-48zm0 10v1h48v-1h-48zm12 11-8 8 0.46875 0.53125l7.53-7.531v-1zm24 0v1l7.5312 7.5312 0.47-0.531-8-8zm-24 5v1h24v-1h-24z"/>
  <path id="path3757" style="opacity:.15" d="m124 29v1h48v-1h-48zm0 10v1h48v-1h-48zm0 10v1h48v-1h-48zm4.47 13.531-0.47 0.469l8 9v-1l-7.5312-8.4688zm39.062 0l-7.53 8.469v1l8-9-0.46875-0.46875zm-31.53 2.469v1h24v-1h-24z"/>
  <path id="rect2957" style="color:#000000;fill:url(#linearGradient3762)" d="m30.594 22c-2.539 0-4.594 2.084-4.594 4.656v42.688c0 2.572 2.055 4.656 4.594 4.656h34.812c2.539 0 4.594-2.084 4.594-4.656v-42.688c0-2.572-2.055-4.656-4.594-4.656h-34.812zm3.406 6h1 26 1c1.108 0 2 0.892 2 2v1 34 1c0 1.108-0.892 2-2 2h-1-26-1c-1.108 0-2-0.892-2-2v-1-34-1c0-1.108 0.892-2 2-2zm2 6v4h24v-4h-24zm0 8v4h24v-4h-24zm0 8v4h24v-4h-24zm14 6v2h2v4h-2v2h6v-2h-2v-4h2v-2h-6zm-14 2v4h12v-4h-12z"/>
  <path id="path3764" style="opacity:.75;color:#000000;fill:#fff" d="m30.594 22c-2.539 0-4.594 2.084-4.594 4.656v1c0-2.572 2.055-4.656 4.594-4.656h34.812c2.539 0 4.594 2.084 4.594 4.656v-1c0-2.572-2.055-4.656-4.594-4.656h-34.812zm5.406 12v1h24v-1h-24zm0 8v1h24v-1h-24zm0 8v1h24v-1h-24zm14 6v1h6v-1h-6zm-14 2v1h12v-1h-12zm14 4v1h2v-1h-2zm4 0v1h2v-1h-2zm-22 4v1c0 1.108 0.892 2 2 2h1 26 1c1.108 0 2-0.892 2-2v-1c0 1.108-0.892 2-2 2h-1-26-1c-1.108 0-2-0.892-2-2z"/>
  <path id="path3773" style="opacity:.15;color:#000000" d="m34 27c-1.108 0-2 0.892-2 2v1c0-1.108 0.892-2 2-2h1 26 1c1.108 0 2 0.892 2 2v-1c0-1.108-0.892-2-2-2h-1-26-1zm2 10v1h24v-1h-24zm0 8v1h24v-1h-24zm0 8v1h24v-1h-24zm14 4v1h2v-1h-2zm4 0v1h2v-1h-2zm-18 4v1h12v-1h-12zm14 2v1h6v-1h-6zm-24 5.3438v1c0 2.572 2.055 4.656 4.594 4.656h34.812c2.539 0 4.594-2.084 4.594-4.656v-1c0 2.572-2.055 4.656-4.594 4.656h-34.812c-2.539 0-4.594-2.084-4.594-4.656z"/>
 </g>
</svg>
