<?xml version="1.0" encoding="UTF-8" standalone="no"?>
<!-- Created with Inkscape (http://www.inkscape.org/) -->
<svg id="svg2408" xmlns:rdf="http://www.w3.org/1999/02/22-rdf-syntax-ns#" xmlns="http://www.w3.org/2000/svg" height="96" width="96" version="1.0" xmlns:cc="http://creativecommons.org/ns#" xmlns:xlink="http://www.w3.org/1999/xlink" xmlns:dc="http://purl.org/dc/elements/1.1/">
 <defs id="defs2410">
  <linearGradient id="ButtonShadow" y2="7.0165" gradientUnits="userSpaceOnUse" x2="45.448" gradientTransform="scale(1.0059 .99417)" y1="92.54" x1="45.448">
   <stop id="stop3750" offset="0"/>
   <stop id="stop3752" style="stop-opacity:.58824" offset="1"/>
  </linearGradient>
  <linearGradient id="linearGradient3737">
   <stop id="stop3739" style="stop-color:#fff" offset="0"/>
   <stop id="stop3741" style="stop-color:#fff;stop-opacity:0" offset="1"/>
  </linearGradient>
  <filter id="filter3174" color-interpolation-filters="sRGB">
   <feGaussianBlur id="feGaussianBlur3176" stdDeviation="1.71"/>
  </filter>
  <linearGradient id="linearGradient3188" y2="63.893" xlink:href="#linearGradient3737" gradientUnits="userSpaceOnUse" x2="36.357" y1="6" x1="36.357"/>
  <radialGradient id="radialGradient3619" xlink:href="#linearGradient3737" gradientUnits="userSpaceOnUse" cy="90.172" cx="48" gradientTransform="matrix(1.1573 0 0 .99591 -7.551 .19713)" r="42"/>
  <linearGradient id="linearGradient2843" y2="5.9877" gradientUnits="userSpaceOnUse" x2="48" gradientTransform="translate(0,100)" y1="90" x1="48">
   <stop id="stop3702" style="stop-color:#2276c5" offset="0"/>
   <stop id="stop3704" style="stop-color:#68baf4" offset="1"/>
  </linearGradient>
  <clipPath id="clipPath3625">
   <path id="path3627" style="fill:#fff" d="m0 0v96h96v-96h-96zm12 6h72c3.324 0 6 2.676 6 6v72c0 3.324-2.676 6-6 6h-72c-3.324 0-6-2.676-6-6v-72c0-3.324 2.676-6 6-6z"/>
  </clipPath>
  <linearGradient id="linearGradient3643" y2="90.015" gradientUnits="userSpaceOnUse" x2="44.512" y1="6" x1="44.512">
   <stop id="stop3639" style="stop-color:#f0f0f0" offset="0"/>
   <stop id="stop3641" style="stop-color:#dcdcdc" offset="1"/>
  </linearGradient>
  <clipPath id="clipPath3649">
   <rect id="rect3651" style="fill:#fff" rx="4" ry="4" height="76" width="76" y="10" x="10"/>
  </clipPath>
  <filter id="filter3657" color-interpolation-filters="sRGB">
   <feGaussianBlur id="feGaussianBlur3659" stdDeviation="1.14"/>
  </filter>
  <linearGradient id="linearGradient2869" y2=".92195" gradientUnits="userSpaceOnUse" x2="18.449" gradientTransform="matrix(2.4659 0 0 2.8992 10.507 21.327)" y1="17.478" x1="18.449">
   <stop id="stop4083" style="stop-color:#aaa" offset="0"/>
   <stop id="stop4085" style="stop-color:#f0f0f0" offset="1"/>
  </linearGradient>
  <linearGradient id="ButtonShadow-0" y2="7.0165" gradientUnits="userSpaceOnUse" x2="45.448" gradientTransform="matrix(1.0059 0 0 .99417 100 0)" y1="92.54" x1="45.448">
   <stop id="stop3750-8" offset="0"/>
   <stop id="stop3752-5" style="stop-opacity:.58824" offset="1"/>
  </linearGradient>
  <linearGradient id="linearGradient3780" y2="90.239" xlink:href="#ButtonShadow-0" gradientUnits="userSpaceOnUse" x2="32.251" gradientTransform="matrix(1.0238 0 0 -1.0119 -1.1429 98.071)" y1="6.1317" x1="32.251"/>
  <linearGradient id="linearGradient3721-6" y2="90.239" xlink:href="#ButtonShadow-0" gradientUnits="userSpaceOnUse" x2="32.251" gradientTransform="matrix(1,0,0,-1,0,97)" y1="6.1317" x1="32.251"/>
  <radialGradient id="radialGradient3619-3" xlink:href="#linearGradient3737" gradientUnits="userSpaceOnUse" cy="90.172" cx="48" gradientTransform="matrix(1.1573 0 0 .99591 -7.551 .19713)" r="42"/>
 </defs>
 <metadata id="metadata2413">
  <rdf:RDF>
   <cc:Work rdf:about="">
    <dc:format>image/svg+xml</dc:format>
    <dc:type rdf:resource="http://purl.org/dc/dcmitype/StillImage"/>
   </cc:Work>
  </rdf:RDF>
 </metadata>
 <g id="layer2" style="display:none">
  <rect id="rect3745" style="opacity:.9;filter:url(#filter3174);fill:url(#ButtonShadow)" clip-path="url(#clipPath3625)" rx="6" ry="6" height="85" width="86" y="7" x="5"/>
 </g>
 <g id="layer6">
  <path id="path3786" style="opacity:0.08;fill:url(#linearGradient3780)" d="m12 3.9688c-5.5111 0-10.031 4.5201-10.031 10.031v71c0 5.5111 4.5202 10.031 10.031 10.031h72c5.5111 0 10.031-4.5202 10.031-10.031v-71c0-5.5111-4.52-10.031-10.031-10.031h-72zm0 2.0312h72c3.324 0 6 2.676 6 6v72c0 3.324-2.676 6-6 6h-72c-3.324 0-6-2.676-6-6v-72c0-3.324 2.676-6 6-6z"/>
  <path id="path3778" style="opacity:.1;fill:url(#linearGradient3780)" d="m12 4.9688c-4.9716 0-9.0312 4.0596-9.0312 9.0312v71c0 4.9716 4.0596 9.0312 9.0312 9.0312h72c4.9716 0 9.0312-4.0596 9.0312-9.0312v-71c0-4.9716-4.059-9.0312-9.031-9.0312h-72zm0 1.0312h72c3.324 0 6 2.676 6 6v72c0 3.324-2.676 6-6 6h-72c-3.324 0-6-2.676-6-6v-72c0-3.324 2.676-6 6-6z"/>
  <path id="path3770" style="opacity:.2;fill:url(#linearGradient3780)" d="m11.188 6.0312c-4.028 0.4107-7.188 3.8352-7.188 7.9688v71c0 4.4091 3.5909 8 8 8h72c4.4091 0 8-3.5909 8-8v-71c0-4.1971-3.259-7.646-7.375-7.9688 3.033 0.3062 5.375 2.8526 5.375 5.9688v72c0 3.324-2.676 6-6 6h-72c-3.324 0-6-2.676-6-6v-72c0-3.1162 2.3421-5.6626 5.375-5.9688-0.06227 0.00488-0.12563-0.00631-0.1875 0z"/>
  <path id="rect3723" style="opacity:.3;fill:url(#linearGradient3780)" d="m6.4375 9.75c-0.8995 1.177-1.4375 2.647-1.4375 4.25v71c0 3.878 3.122 7 7 7h72c3.878 0 7-3.122 7-7v-71c0-1.603-0.538-3.073-1.438-4.25 0.28 0.694 0.438 1.454 0.438 2.25v72c0 3.324-2.676 6-6 6h-72c-3.324 0-6-2.676-6-6v-72c0-0.796 0.1582-1.556 0.4375-2.25z"/>
  <path id="rect3716" style="opacity:.45;fill:url(#linearGradient3721-6)" d="m6 84v1c0 3.324 2.676 6 6 6h72c3.324 0 6-2.676 6-6v-1c0 3.324-2.676 6-6 6h-72c-3.324 0-6-2.676-6-6z"/>
 </g>
 <g id="layer1" style="display:none">
  <rect id="rect2419" style="opacity:.7" rx="6" ry="6" height="84" width="84" y="6" x="6"/>
  <path id="rect3726" style="opacity:0.08" d="m14 10c-2.216 0-4 1.784-4 4v68c0 2.216 1.784 4 4 4h68c2.216 0 4-1.784 4-4v-68c0-2.216-1.784-4-4-4h-68zm0 3.0625h68c0.57877 0 0.9375 0.35873 0.9375 0.9375v68c0 0.57877-0.35873 0.9375-0.9375 0.9375h-68c-0.57877 0-0.9375-0.35873-0.9375-0.9375v-68c0-0.57877 0.35873-0.9375 0.9375-0.9375z"/>
  <path id="rect3629" style="fill:url(#linearGradient3643)" d="m12 6c-3.324 0-6 2.676-6 6v72c0 3.324 2.676 6 6 6h72c3.324 0 6-2.676 6-6v-72c0-3.324-2.676-6-6-6h-72zm2 4h68c2.216 0 4 1.784 4 4v68c0 2.216-1.784 4-4 4h-68c-2.216 0-4-1.784-4-4v-68c0-2.216 1.784-4 4-4z"/>
  <path id="rect3728" style="fill:url(#linearGradient3188)" d="m12 6c-3.324 0-6 2.676-6 6v2 68 2c0 0.33472 0.04135 0.6507 0.09375 0.96875 0.0487 0.2956 0.09704 0.59692 0.1875 0.875 0.00988 0.03038 0.020892 0.0636 0.03125 0.09375 0.098865 0.28777 0.23488 0.54745 0.375 0.8125 0.14459 0.27351 0.31562 0.53562 0.5 0.78125 0.18438 0.24564 0.37378 0.47347 0.59375 0.6875 0.43995 0.42806 0.94291 0.81453 1.5 1.0938 0.27854 0.13961 0.57347 0.24695 0.875 0.34375-0.2562-0.10022-0.48671-0.23627-0.71875-0.375-0.00741-0.0044-0.023866 0.0045-0.03125 0-0.031933-0.0193-0.062293-0.04251-0.09375-0.0625-0.1204-0.0767-0.23102-0.16351-0.34375-0.25-0.10617-0.0808-0.21328-0.16111-0.3125-0.25-0.1778-0.162-0.3473-0.346-0.4999-0.531-0.1075-0.131-0.2183-0.266-0.3124-0.407-0.0251-0.038-0.0385-0.086-0.0626-0.125-0.0647-0.103-0.1302-0.204-0.1874-0.312-0.1011-0.195-0.2057-0.416-0.2813-0.625-0.008-0.022-0.0236-0.041-0.0313-0.063-0.0318-0.092-0.0358-0.187-0.0624-0.281-0.0304-0.107-0.0704-0.203-0.0938-0.313-0.0729-0.341-0.125-0.698-0.125-1.062v-2-68-2c0-2.782 2.2182-5 5-5h2 68 2c2.7818 0 5 2.2182 5 5v2 68 2c0 0.3643-0.05212 0.72099-0.125 1.0625-0.04415 0.20689-0.08838 0.39766-0.15625 0.59375-0.0077 0.02195-0.0233 0.04069-0.03125 0.0625-0.06274 0.17374-0.13838 0.36745-0.21875 0.53125-0.04158 0.0828-0.07904 0.16995-0.125 0.25-0.0546 0.09721-0.12677 0.18835-0.1875 0.28125-0.09411 0.14096-0.20492 0.276-0.3125 0.40625-0.14317 0.17445-0.30314 0.347-0.46875 0.5-0.01117 0.0102-0.01998 0.02115-0.03125 0.03125-0.13839 0.12556-0.28509 0.23444-0.4375 0.34375-0.10257 0.07315-0.20432 0.15336-0.3125 0.21875-0.0074 0.0045-0.02384-0.0044-0.03125 0-0.23204 0.13873-0.46255 0.27478-0.71875 0.375 0.30153-0.0968 0.59646-0.20414 0.875-0.34375 0.55709-0.27922 1.0601-0.66569 1.5-1.0938 0.21997-0.21403 0.40937-0.44186 0.59375-0.6875s0.35541-0.50774 0.5-0.78125c0.14012-0.26505 0.27614-0.52473 0.375-0.8125 0.01041-0.03078 0.02133-0.06274 0.03125-0.09375 0.09046-0.27808 0.1388-0.5794 0.1875-0.875 0.053-0.318 0.094-0.634 0.094-0.969v-2-68-2c0-3.324-2.676-6-6-6h-72z"/>
  <path id="path3615" style="opacity:.6;fill:url(#radialGradient3619)" d="m12 90c-3.324 0-6-2.676-6-6v-2-68-2c0-0.33472 0.04135-0.6507 0.09375-0.96875 0.0487-0.2956 0.09704-0.59692 0.1875-0.875 0.0099-0.03 0.0209-0.063 0.0313-0.094 0.0989-0.2873 0.2349-0.547 0.375-0.812 0.1446-0.2735 0.3156-0.5356 0.5-0.7812 0.1844-0.2457 0.3738-0.4735 0.5937-0.6876 0.44-0.428 0.943-0.8145 1.5-1.0937 0.2786-0.1396 0.5735-0.2469 0.8748-0.3437-0.256 0.1002-0.4865 0.2362-0.7185 0.375-0.00741 0.0044-0.023866-0.0045-0.03125 0-0.031933 0.0193-0.062293 0.04251-0.09375 0.0625-0.1204 0.0767-0.23102 0.16351-0.34375 0.25-0.10617 0.0808-0.21328 0.16111-0.3125 0.25-0.1779 0.1614-0.3474 0.3453-0.5 0.5312-0.1075 0.1303-0.2183 0.2653-0.3124 0.4063-0.0251 0.0383-0.0385 0.0858-0.0626 0.125-0.0647 0.103-0.1302 0.2045-0.1874 0.3124-0.1011 0.1948-0.2057 0.4158-0.2813 0.625-0.008 0.0219-0.0236 0.0406-0.0313 0.0626-0.0318 0.0919-0.0358 0.1868-0.0624 0.2812-0.0304 0.1066-0.0704 0.203-0.0938 0.3125-0.0729 0.3415-0.125 0.6985-0.125 1.0625v2 68 2c0 2.7818 2.2182 5 5 5h2 68 2c2.7818 0 5-2.2182 5-5v-2-68-2c0-0.364-0.052-0.721-0.125-1.0625-0.044-0.2069-0.088-0.3977-0.156-0.5937-0.008-0.022-0.024-0.0407-0.031-0.0626-0.063-0.1737-0.139-0.3674-0.219-0.5312-0.042-0.0828-0.079-0.17-0.125-0.25-0.055-0.0972-0.127-0.1884-0.188-0.2812-0.094-0.141-0.205-0.276-0.312-0.4063-0.143-0.1745-0.303-0.347-0.469-0.5-0.011-0.0102-0.02-0.0211-0.031-0.0313-0.139-0.1255-0.285-0.2344-0.438-0.3437-0.102-0.0731-0.204-0.1534-0.312-0.2187-0.0074-0.0045-0.02384 0.0044-0.03125 0-0.23204-0.13873-0.46255-0.27478-0.71875-0.375 0.30153 0.0968 0.59646 0.20414 0.875 0.34375 0.55709 0.27922 1.0601 0.66569 1.5 1.0938 0.21997 0.21403 0.40937 0.44186 0.59375 0.6875s0.35541 0.50774 0.5 0.78125c0.14012 0.26505 0.27614 0.52473 0.375 0.8125 0.01041 0.03078 0.02133 0.06274 0.03125 0.09375 0.09046 0.27808 0.1388 0.5794 0.1875 0.875 0.053 0.318 0.094 0.634 0.094 0.969v2 68 2c0 3.324-2.676 6-6 6h-72z"/>
  <rect id="rect2841" style="fill:url(#linearGradient2843)" rx="6" ry="6" height="84" width="84" y="106" x="6"/>
  <rect id="rect3634" style="fill:#f00" rx="4" ry="4" height="76" width="76" y="110" x="10"/>
  <path id="rect3647" style="block-progression:tb;text-indent:0;filter:url(#filter3657);color:#000000;text-transform:none;display:inline" d="m14 9c-2.7527 0-5 2.2473-5 5v68c0 2.7527 2.2473 5 5 5h68c2.7527 0 5-2.2473 5-5v-68c0-2.753-2.247-5-5-5h-68zm0 2h68c1.6793 0 3 1.3207 3 3v68c0 1.6793-1.3207 3-3 3h-68c-1.6793 0-3-1.3207-3-3v-68c0-1.6793 1.3207-3 3-3z" clip-path="url(#clipPath3649)" transform="translate(-110)"/>
  <path id="path3709" style="opacity:0.16" d="m14.089 10c-2.216 0-4 1.784-4 4v68c0 2.216 1.784 4 4 4h68c2.216 0 4-1.784 4-4v-68c0-2.216-1.784-4-4-4h-68zm0 2h68c1.1403 0 2 0.8597 2 2v68c0 1.1403-0.8597 2-2 2h-68c-1.1403 0-2-0.8597-2-2v-68c0-1.1403 0.8597-2 2-2z"/>
  <path id="path3707" style="opacity:0.36" d="m14 10c-2.216 0-4 1.784-4 4v68c0 2.216 1.784 4 4 4h68c2.216 0 4-1.784 4-4v-68c0-2.216-1.784-4-4-4h-68zm0 1h68c1.6738 0 3 1.3262 3 3v68c0 1.6738-1.3262 3-3 3h-68c-1.6738 0-3-1.3262-3-3v-68c0-1.6738 1.3262-3 3-3z"/>
 </g>
 <g id="layer9">
  <rect id="rect2419-8" style="opacity:.6" rx="6" ry="6" height="84" width="84" y="6" x="6"/>
  <path id="rect3728-6" style="opacity:0.01;fill:url(#linearGradient3188)" d="m12 6c-3.324 0-6 2.676-6 6v2 68 2c0 0.33472 0.04135 0.6507 0.09375 0.96875 0.0487 0.2956 0.09704 0.59692 0.1875 0.875 0.00988 0.03038 0.020892 0.0636 0.03125 0.09375 0.098865 0.28777 0.23488 0.54745 0.375 0.8125 0.14459 0.27351 0.31562 0.53562 0.5 0.78125 0.18438 0.24564 0.37378 0.47347 0.59375 0.6875 0.43995 0.42806 0.94291 0.81453 1.5 1.0938 0.27854 0.13961 0.57347 0.24695 0.875 0.34375-0.2562-0.10022-0.48671-0.23627-0.71875-0.375-0.00741-0.0044-0.023866 0.0045-0.03125 0-0.031933-0.0193-0.062293-0.04251-0.09375-0.0625-0.1204-0.0767-0.23102-0.16351-0.34375-0.25-0.10617-0.0808-0.21328-0.16111-0.3125-0.25-0.1778-0.162-0.3473-0.346-0.4999-0.531-0.1075-0.131-0.2183-0.266-0.3124-0.407-0.0251-0.038-0.0385-0.086-0.0626-0.125-0.0647-0.103-0.1302-0.204-0.1874-0.312-0.1011-0.195-0.2057-0.416-0.2813-0.625-0.008-0.022-0.0236-0.041-0.0313-0.063-0.0318-0.092-0.0358-0.187-0.0624-0.281-0.0304-0.107-0.0704-0.203-0.0938-0.313-0.0729-0.341-0.125-0.698-0.125-1.062v-2-68-2c0-2.782 2.2182-5 5-5h2 68 2c2.7818 0 5 2.2182 5 5v2 68 2c0 0.3643-0.05212 0.72099-0.125 1.0625-0.04415 0.20689-0.08838 0.39766-0.15625 0.59375-0.0077 0.02195-0.0233 0.04069-0.03125 0.0625-0.06274 0.17374-0.13838 0.36745-0.21875 0.53125-0.04158 0.0828-0.07904 0.16995-0.125 0.25-0.0546 0.09721-0.12677 0.18835-0.1875 0.28125-0.09411 0.14096-0.20492 0.276-0.3125 0.40625-0.14317 0.17445-0.30314 0.347-0.46875 0.5-0.01117 0.0102-0.01998 0.02115-0.03125 0.03125-0.13839 0.12556-0.28509 0.23444-0.4375 0.34375-0.10257 0.07315-0.20432 0.15336-0.3125 0.21875-0.0074 0.0045-0.02384-0.0044-0.03125 0-0.23204 0.13873-0.46255 0.27478-0.71875 0.375 0.30153-0.0968 0.59646-0.20414 0.875-0.34375 0.55709-0.27922 1.0601-0.66569 1.5-1.0938 0.21997-0.21403 0.40937-0.44186 0.59375-0.6875s0.35541-0.50774 0.5-0.78125c0.14012-0.26505 0.27614-0.52473 0.375-0.8125 0.01041-0.03078 0.02133-0.06274 0.03125-0.09375 0.09046-0.27808 0.1388-0.5794 0.1875-0.875 0.053-0.318 0.094-0.634 0.094-0.969v-2-68-2c0-3.324-2.676-6-6-6h-72z"/>
  <path id="path3615-5" style="opacity:.15;fill:url(#radialGradient3619-3)" d="m12 90c-3.324 0-6-2.676-6-6v-2-68-2c0-0.33472 0.04135-0.6507 0.09375-0.96875 0.0487-0.2956 0.09704-0.59692 0.1875-0.875 0.0099-0.03 0.0209-0.063 0.0313-0.094 0.0989-0.2873 0.2349-0.547 0.375-0.812 0.1446-0.2735 0.3156-0.5356 0.5-0.7812 0.1844-0.2457 0.3738-0.4735 0.5937-0.6876 0.44-0.428 0.943-0.8145 1.5-1.0937 0.2786-0.1396 0.5735-0.2469 0.8748-0.3437-0.256 0.1002-0.4865 0.2362-0.7185 0.375-0.00741 0.0044-0.023866-0.0045-0.03125 0-0.031933 0.0193-0.062293 0.04251-0.09375 0.0625-0.1204 0.0767-0.23102 0.16351-0.34375 0.25-0.10617 0.0808-0.21328 0.16111-0.3125 0.25-0.1779 0.1614-0.3474 0.3453-0.5 0.5312-0.1075 0.1303-0.2183 0.2653-0.3124 0.4063-0.0251 0.0383-0.0385 0.0858-0.0626 0.125-0.0647 0.103-0.1302 0.2045-0.1874 0.3124-0.1011 0.1948-0.2057 0.4158-0.2813 0.625-0.008 0.0219-0.0236 0.0406-0.0313 0.0626-0.0318 0.0919-0.0358 0.1868-0.0624 0.2812-0.0304 0.1066-0.0704 0.203-0.0938 0.3125-0.0729 0.3415-0.125 0.6985-0.125 1.0625v2 68 2c0 2.7818 2.2182 5 5 5h2 68 2c2.7818 0 5-2.2182 5-5v-2-68-2c0-0.364-0.052-0.721-0.125-1.0625-0.044-0.2069-0.088-0.3977-0.156-0.5937-0.008-0.022-0.024-0.0407-0.031-0.0626-0.063-0.1737-0.139-0.3674-0.219-0.5312-0.042-0.0828-0.079-0.17-0.125-0.25-0.055-0.0972-0.127-0.1884-0.188-0.2812-0.094-0.141-0.205-0.276-0.312-0.4063-0.143-0.1745-0.303-0.347-0.469-0.5-0.011-0.0102-0.02-0.0211-0.031-0.0313-0.139-0.1255-0.285-0.2344-0.438-0.3437-0.102-0.0731-0.204-0.1534-0.312-0.2187-0.0074-0.0045-0.02384 0.0044-0.03125 0-0.23204-0.13873-0.46255-0.27478-0.71875-0.375 0.30153 0.0968 0.59646 0.20414 0.875 0.34375 0.55709 0.27922 1.0601 0.66569 1.5 1.0938 0.21997 0.21403 0.40937 0.44186 0.59375 0.6875s0.35541 0.50774 0.5 0.78125c0.14012 0.26505 0.27614 0.52473 0.375 0.8125 0.01041 0.03078 0.02133 0.06274 0.03125 0.09375 0.09046 0.27808 0.1388 0.5794 0.1875 0.875 0.053 0.318 0.094 0.634 0.094 0.969v2 68 2c0 3.324-2.676 6-6 6h-72z"/>
 </g>
 <g id="layer3">
  <path id="path3748" style="opacity:.1" d="m33.344 22.969c-3.3071 0-6.0312 2.7241-6.0312 6.0312v12.781c-2.9725 0.35926-5.3438 2.8111-5.3438 5.875v13.344c0 3.0639 2.3712 5.5157 5.3438 5.875v2.125c0 3.3071 2.7241 6.0312 6.0312 6.0312h29.312c3.3071 0 6.0312-2.7241 6.0312-6.0312v-2.125c2.973-0.359 5.344-2.811 5.344-5.875v-13.344c0-3.0639-2.3712-5.5157-5.3438-5.875l0.001-12.781c0-3.3071-2.7241-6.0312-6.0312-6.0312h-29.312zm3.3438 9.4062h22.625v1.3438c-0.03775-0.0092-0.19002-0.06299-0.1875-0.0625 0.0029 0.000564-0.19044-0.000275-0.1875 0 0.0029 0.000275-0.19046-0.03123-0.1875-0.03125h-21.344c0.000831 0.00004-0.03943-0.000017-0.0625 0-0.01154 0.000009-0.01732-0.000003-0.03125 0 0.0017 0.000081-0.0693 0.000012-0.125 0-0.04178-0.000009-0.095 0.000061-0.09375 0a1.053 1.053 0 0 0 -0.125 0.03125c0.0026-0.000495-0.19002 0.03197-0.1875 0.03125 0.0015-0.000422-0.04534 0.01514-0.09375 0.03125v-1.3438zm22.625 7.9062v3.375 0.65625h-4.0625c0.01073-0.03027 0.03155-0.06349 0.03125-0.0625-0.000848 0.0028 0.06306-0.22165 0.0625-0.21875-0.000564 0.0029 0.000275-0.19044 0-0.1875-0.000275 0.0029 0.03123-0.19046 0.03125-0.1875v-2.656c-0.000017 0.003-0.03153-0.19044-0.03125-0.1875 0.000275 0.0029-0.000564-0.1904 0-0.1875s-0.06335-0.22158-0.0625-0.21875c0.000127 0.000425 0.0025-0.02417 0-0.03125h3.4688c-0.003-0.000017 0.19044-0.03153 0.1875-0.03125-0.0029 0.000275 0.1904-0.000564 0.1875 0-0.0025 0.00049 0.14975-0.0533 0.1875-0.0625zm0.687 12.031c0.37104 0 0.6875 0.31646 0.6875 0.6875s-0.31646 0.6875-0.6875 0.6875-0.6875-0.31646-0.6875-0.6875c-0.000002-0.37106 0.31644-0.6875 0.6875-0.6875zm5.3438 0c0.37106 0 0.6875 0.31644 0.6875 0.6875-0.000002 0.37103-0.31647 0.6875-0.6875 0.6875-0.13903 0-0.38185-0.08967-0.53125-0.25-0.15-0.16-0.188-0.346-0.188-0.437 0-0.09112 0.03811-0.27718 0.1875-0.4375s0.3922-0.25 0.53125-0.25zm-28.656 12.063h22.625v0.625 0.625h-22.625v-0.625-0.625z"/>
  <path id="path3744" style="opacity:.15" d="m33.344 24.031c-2.733 0-4.969 2.236-4.969 4.969v13.688h-0.375c-2.7329 0-4.9688 2.2359-4.9688 4.9688v13.344c0 2.7329 2.2359 4.9688 4.9688 4.9688h0.375v3.0312c0 2.7329 2.2359 4.9688 4.9688 4.9688h29.312c2.7329 0 4.9688-2.2359 4.9688-4.9688v-3.0312h0.375c2.7329 0 4.9688-2.2359 4.9688-4.9688v-13.344c0-2.734-2.236-4.969-4.969-4.969h-0.375v-13.688c0-2.7329-2.2359-4.9688-4.9688-4.9688h-29.312zm2.656 7.281h24c0.23989 0 0.375 0.13102 0.375 0.34375v12 1.7188h-24.75v-1.7188-12c0-0.21273 0.13511-0.34375 0.375-0.34375zm1.25 3.375a0.96317 0.96317 0 0 0 -0.875 0.96875v2.6875a0.96317 0.96317 0 0 0 0.96875 0.96875h21.406a0.96317 0.96317 0 0 0 0.96875 -0.96875v-2.6875a0.96317 0.96317 0 0 0 -0.969 -0.968h-21.406a0.96317 0.96317 0 0 0 -0.09375 0zm0 5.3438a0.96317 0.96317 0 0 0 -0.875 0.969v2.6562a0.96317 0.96317 0 0 0 0.96875 0.96875h16a0.96317 0.96317 0 0 0 0.96875 -0.96875v-2.6562a0.96317 0.96317 0 0 0 -0.96875 -0.96875h-16a0.96317 0.96317 0 0 0 -0.09375 0zm22.75 12.594c0.20583 0 0.375 0.16917 0.375 0.375 0.000001 0.20583-0.16917 0.375-0.375 0.375s-0.375-0.16917-0.375-0.375 0.16917-0.375 0.375-0.375zm5.3438 0c0.20584 0 0.34375 0.14191 0.34375 0.375 0.000001 0.23309-0.13792 0.375-0.34375 0.375s-0.375-0.16917-0.375-0.375c0.000001-0.20584 0.16917-0.375 0.375-0.375zm-29.719 10.687h24.75v1.6875 1.3438c0 0.21273-0.13511 0.34375-0.375 0.34375h-24c-0.23989 0-0.375-0.13102-0.375-0.34375v-1.3438-1.6875z"/>
  <path id="path3738" style="opacity:.3" d="m33.333 25c-2.216 0-4 1.784-4 4v14.667h-1.3333c-2.216 0-4 1.784-4 4v13.333c0 2.216 1.784 4 4 4h1.3333v4c0 2.216 1.784 4 4 4h29.333c2.216 0 4-1.784 4-4v-4h1.334c2.216 0 4-1.784 4-4v-13.333c0-2.216-1.784-4-4-4h-1.25-0.08334v-14.667c0-2.216-1.784-4-4-4h-29.334zm2.667 5.333h24c0.73867 0 1.3333 0.59467 1.3333 1.3333v12 2.6667h-26.667v-2.6667-12c0-0.73867 0.59467-1.3333 1.3333-1.3333zm1.3333 5.3333v2.6667h21.417v-2.6667h-21.417zm0 5.3333v2.6667h16v-2.6667h-16zm22.667 10.668c0.736 0 1.3333 0.59733 1.3333 1.3333 0 0.736-0.597 1.333-1.333 1.333s-1.333-0.597-1.333-1.333 0.597-1.333 1.333-1.333zm5.3333 0c0.736 0 1.3333 0.59733 1.3333 1.3333 0.000004 0.736-0.59733 1.3333-1.3333 1.3333-0.736-0.001-1.333-0.598-1.333-1.334 0.000002-0.736 0.59733-1.3333 1.3333-1.3333zm-30.667 10.667h26.667v2.6667 1.3333c0 0.73867-0.59467 1.3333-1.3333 1.3333h-24c-0.73867 0-1.3333-0.59467-1.3333-1.3333v-1.3333-2.6667z"/>
  <path id="Symbol" style="fill:url(#linearGradient2869)" d="m33.333 24c-2.216 0-4 1.784-4 4v14.667h-1.3333c-2.216 0-4 1.784-4 4v13.333c0 2.216 1.784 4 4 4h1.3333v4c0 2.216 1.784 4 4 4h29.333c2.216 0 4-1.784 4-4v-4h1.334c2.216 0 4-1.784 4-4v-13.333c0-2.216-1.784-4-4-4h-1.25-0.08334v-14.667c0-2.216-1.784-4-4-4h-29.334zm2.667 5.333h24c0.73867 0 1.3333 0.59467 1.3333 1.3333v12 2.6667h-26.667v-2.6667-12c0-0.73867 0.59467-1.3333 1.3333-1.3333zm1.3333 5.3333v2.6667h21.417v-2.6667h-21.417zm0 5.3333v2.6667h16v-2.6667h-16zm22.667 10.668c0.736 0 1.3333 0.59733 1.3333 1.3333 0 0.736-0.597 1.333-1.333 1.333s-1.333-0.597-1.333-1.333 0.597-1.333 1.333-1.333zm5.3333 0c0.736 0 1.3333 0.59733 1.3333 1.3333 0.000004 0.736-0.59733 1.3333-1.3333 1.3333-0.736-0.001-1.333-0.598-1.333-1.334 0.000002-0.736 0.59733-1.3333 1.3333-1.3333zm-30.667 10.667h26.667v2.6667 1.3333c0 0.73867-0.59467 1.3333-1.3333 1.3333h-24c-0.73867 0-1.3333-0.59467-1.3333-1.3333v-1.3333-2.6667z"/>
  <path id="path3719" style="opacity:.75;fill:#fff" d="m33.344 24c-2.216 0-4 1.784-4 4v1c0-2.216 1.784-4 4-4h29.312c2.216 0 4 1.784 4 4v-1c0-2.216-1.784-4-4-4h-29.312zm4 10.656v1h21.406v-1h-21.406zm0 5.3438v1h16v-1h-16zm-9.344 2.656c-2.216 0-4 1.784-4 4v1c0-2.216 1.784-4 4-4h1.3438v-1h-1.3438zm38.656 0v1h0.09375 1.25c2.216 0 4 1.784 4 4v-1c0-2.216-1.784-4-4-4h-1.25-0.09375zm-32 2.6875v1h26.688v-1h-26.688zm24.125 7.156c-0.06066 0.15238-0.125 0.32608-0.125 0.5 0 0.736 0.60775 1.3438 1.3438 1.3438 0.736 0 1.3438-0.60775 1.3438-1.3438 0-0.17392-0.06434-0.34762-0.125-0.5-0.19603 0.49248-0.65667 0.84375-1.2188 0.84375-0.56208 0-1.0227-0.35128-1.2188-0.84375zm5.3125 0.03125c-0.053 0.144-0.094 0.307-0.094 0.469 0 0.736 0.60775 1.3438 1.3438 1.3438 0.736 0 1.3125-0.60775 1.3125-1.3438 0-0.16235-0.04054-0.32482-0.09375-0.46875-0.2025 0.4785-0.66675 0.8125-1.2188 0.8125-0.552 0-1.0475-0.334-1.25-0.8125zm-29.438 12.812v1c0 0.73867 0.60508 1.3125 1.3438 1.3125h24c0.73867 0 1.3438-0.57383 1.3438-1.3125v-1c0 0.73867-0.60508 1.3125-1.3438 1.3125h-24c-0.73867 0-1.3438-0.57383-1.3438-1.3125z"/>
  <path id="path3729" style="opacity:.15" d="m36 28.344c-0.73867 0-1.3438 0.57383-1.3438 1.3125v1c0-0.73867 0.60508-1.3125 1.3438-1.3125h24c0.73867 0 1.3438 0.57383 1.3438 1.3125v-1c0-0.73867-0.60508-1.3125-1.3438-1.3125h-24zm1.3438 8v1h21.406v-1h-21.406zm0 5.3125v1h16v-1h-16zm22.656 8c-0.736 0-1.3438 0.60775-1.3438 1.3438 0 0.17392 0.06434 0.34762 0.125 0.5 0.19603-0.49248 0.65667-0.84375 1.2188-0.84375 0.56208 0 1.0227 0.35128 1.2188 0.84375 0.06066-0.15238 0.125-0.32608 0.125-0.5 0-0.736-0.60775-1.3438-1.3438-1.3438zm5.3438 0c-0.736 0-1.344 0.608-1.344 1.344 0 0.16235 0.04054 0.32482 0.09375 0.46875 0.2025-0.4785 0.698-0.8125 1.25-0.8125s1.0163 0.334 1.2188 0.8125c0.05321-0.14394 0.09375-0.3064 0.09375-0.46875 0-0.736-0.5765-1.3438-1.3125-1.3438zm-41.344 9.344v1c0 2.216 1.784 4 4 4h1.3438v-1h-1.344c-2.216 0-4-1.784-4-4zm48 0c0 2.216-1.784 4-4 4h-1.3438v1h1.344c2.216 0 4-1.784 4-4v-1zm-37.344 1.3438v1h26.688v-1h-26.688zm-5.312 6.656v1c0 2.216 1.784 4 4 4h29.312c2.216 0 4-1.784 4-4v-1c0 2.216-1.784 4-4 4h-29.312c-2.216 0-4-1.784-4-4z"/>
 </g>
</svg>
