<?xml version="1.0" encoding="UTF-8" standalone="no"?>
<!-- Created with Inkscape (http://www.inkscape.org/) -->
<svg id="svg2408" xmlns:rdf="http://www.w3.org/1999/02/22-rdf-syntax-ns#" xmlns="http://www.w3.org/2000/svg" height="96" width="96" version="1.0" xmlns:cc="http://creativecommons.org/ns#" xmlns:xlink="http://www.w3.org/1999/xlink" xmlns:dc="http://purl.org/dc/elements/1.1/">
 <defs id="defs2410">
  <linearGradient id="linearGradient3637">
   <stop id="stop3639" style="stop-color:#f0f0f0" offset="0"/>
   <stop id="stop3641" style="stop-color:#aaa" offset="1"/>
  </linearGradient>
  <linearGradient id="ButtonShadow" y2="7.0165" gradientUnits="userSpaceOnUse" x2="45.448" gradientTransform="scale(1.0059 .99417)" y1="92.54" x1="45.448">
   <stop id="stop3750" offset="0"/>
   <stop id="stop3752" style="stop-opacity:.58824" offset="1"/>
  </linearGradient>
  <linearGradient id="linearGradient3737">
   <stop id="stop3739" style="stop-color:#fff" offset="0"/>
   <stop id="stop3741" style="stop-color:#fff;stop-opacity:0" offset="1"/>
  </linearGradient>
  <filter id="filter3174" color-interpolation-filters="sRGB">
   <feGaussianBlur id="feGaussianBlur3176" stdDeviation="1.71"/>
  </filter>
  <linearGradient id="linearGradient3188" y2="63.893" xlink:href="#linearGradient3737" gradientUnits="userSpaceOnUse" x2="36.357" y1="6" x1="36.357"/>
  <filter id="filter3794" height="1.384" width="1.384" color-interpolation-filters="sRGB" y="-.192" x="-.192">
   <feGaussianBlur id="feGaussianBlur3796" stdDeviation="5.28"/>
  </filter>
  <linearGradient id="linearGradient3613" y2="138.66" xlink:href="#linearGradient3737" gradientUnits="userSpaceOnUse" x2="48" y1="20.221" x1="48"/>
  <radialGradient id="radialGradient3619" xlink:href="#linearGradient3737" gradientUnits="userSpaceOnUse" cy="90.172" cx="48" gradientTransform="matrix(1.1573 0 0 .99591 -7.551 .19713)" r="42"/>
  <clipPath id="clipPath3613">
   <rect id="rect3615" style="fill:#fff" rx="6" ry="6" height="84" width="84" y="6" x="6"/>
  </clipPath>
  <linearGradient id="linearGradient2843" y2="5.9877" gradientUnits="userSpaceOnUse" x2="48" gradientTransform="translate(0,100)" y1="90" x1="48">
   <stop id="stop3702" style="stop-color:#2276c5" offset="0"/>
   <stop id="stop3704" style="stop-color:#68baf4" offset="1"/>
  </linearGradient>
  <clipPath id="clipPath3625">
   <path id="path3627" style="fill:#fff" d="m0 0v96h96v-96h-96zm12 6h72c3.324 0 6 2.676 6 6v72c0 3.324-2.676 6-6 6h-72c-3.324 0-6-2.676-6-6v-72c0-3.324 2.676-6 6-6z"/>
  </clipPath>
  <linearGradient id="linearGradient3643" y2="90.015" xlink:href="#linearGradient3637" gradientUnits="userSpaceOnUse" x2="44.512" y1="6" x1="44.512"/>
  <clipPath id="clipPath3649">
   <rect id="rect3651" style="fill:#fff" rx="4" ry="4" height="76" width="76" y="10" x="10"/>
  </clipPath>
  <filter id="filter3657" color-interpolation-filters="sRGB">
   <feGaussianBlur id="feGaussianBlur3659" stdDeviation="1.14"/>
  </filter>
  <linearGradient id="ButtonShadow-0" y2="7.0165" gradientUnits="userSpaceOnUse" x2="45.448" gradientTransform="matrix(1.0059 0 0 .99417 100 0)" y1="92.54" x1="45.448">
   <stop id="stop3750-8" offset="0"/>
   <stop id="stop3752-5" style="stop-opacity:.58824" offset="1"/>
  </linearGradient>
  <linearGradient id="linearGradient3780" y2="90.239" xlink:href="#ButtonShadow-0" gradientUnits="userSpaceOnUse" x2="32.251" gradientTransform="matrix(1.0238 0 0 -1.0119 -1.1429 98.071)" y1="6.1317" x1="32.251"/>
  <linearGradient id="linearGradient3721" y2="90.239" xlink:href="#ButtonShadow-0" gradientUnits="userSpaceOnUse" x2="32.251" gradientTransform="matrix(1,0,0,-1,0,97)" y1="6.1317" x1="32.251"/>
  <radialGradient id="radialGradient3619-3" xlink:href="#linearGradient3737" gradientUnits="userSpaceOnUse" cy="90.172" cx="48" gradientTransform="matrix(1.1573 0 0 .99591 -7.551 .19713)" r="42"/>
  <linearGradient id="linearGradient3905" y2="8" xlink:href="#linearGradient3637" gradientUnits="userSpaceOnUse" x2="120" gradientTransform="translate(-104,104)" y1="8" x1="104"/>
  <linearGradient id="linearGradient3913" y2="8" gradientUnits="userSpaceOnUse" x2="120" gradientTransform="translate(-144,104)" y1="8" x1="104">
   <stop id="stop3185-9" style="stop-color:#c80000" offset="0"/>
   <stop id="stop3187-6" style="stop-color:#f3604d" offset="1"/>
  </linearGradient>
  <linearGradient id="linearGradient3047" y2="17.767" xlink:href="#linearGradient3637" gradientUnits="userSpaceOnUse" x2="10.467" gradientTransform="matrix(3 0 0 3 15.156 12)" y1="5.8862" x1="10.467"/>
 </defs>
 <metadata id="metadata2413">
  <rdf:RDF>
   <cc:Work rdf:about="">
    <dc:format>image/svg+xml</dc:format>
    <dc:type rdf:resource="http://purl.org/dc/dcmitype/StillImage"/>
    <dc:title/>
   </cc:Work>
  </rdf:RDF>
 </metadata>
 <g id="layer2" style="display:none">
  <rect id="rect3745" style="opacity:.9;filter:url(#filter3174);fill:url(#ButtonShadow)" clip-path="url(#clipPath3625)" rx="6" ry="6" height="85" width="86" y="7" x="5"/>
 </g>
 <g id="layer3">
  <path id="path3786" style="opacity:0.08;fill:url(#linearGradient3780)" d="m12 3.9688c-5.5111 0-10.031 4.5201-10.031 10.031v71c0 5.5111 4.5202 10.031 10.031 10.031h72c5.5111 0 10.031-4.5202 10.031-10.031v-71c0-5.5111-4.52-10.031-10.031-10.031h-72zm0 2.0312h72c3.324 0 6 2.676 6 6v72c0 3.324-2.676 6-6 6h-72c-3.324 0-6-2.676-6-6v-72c0-3.324 2.676-6 6-6z"/>
  <path id="path3778" style="opacity:.1;fill:url(#linearGradient3780)" d="m12 4.9688c-4.9716 0-9.0312 4.0596-9.0312 9.0312v71c0 4.9716 4.0596 9.0312 9.0312 9.0312h72c4.9716 0 9.0312-4.0596 9.0312-9.0312v-71c0-4.9716-4.059-9.0312-9.031-9.0312h-72zm0 1.0312h72c3.324 0 6 2.676 6 6v72c0 3.324-2.676 6-6 6h-72c-3.324 0-6-2.676-6-6v-72c0-3.324 2.676-6 6-6z"/>
  <path id="path3770" style="opacity:.2;fill:url(#linearGradient3780)" d="m11.188 6.0312c-4.028 0.4107-7.188 3.8352-7.188 7.9688v71c0 4.4091 3.5909 8 8 8h72c4.4091 0 8-3.5909 8-8v-71c0-4.1971-3.259-7.646-7.375-7.9688 3.033 0.3062 5.375 2.8526 5.375 5.9688v72c0 3.324-2.676 6-6 6h-72c-3.324 0-6-2.676-6-6v-72c0-3.1162 2.3421-5.6626 5.375-5.9688-0.06227 0.00488-0.12563-0.00631-0.1875 0z"/>
  <path id="rect3723" style="opacity:.3;fill:url(#linearGradient3780)" d="m6.4375 9.75c-0.8995 1.177-1.4375 2.647-1.4375 4.25v71c0 3.878 3.122 7 7 7h72c3.878 0 7-3.122 7-7v-71c0-1.603-0.538-3.073-1.438-4.25 0.28 0.694 0.438 1.454 0.438 2.25v72c0 3.324-2.676 6-6 6h-72c-3.324 0-6-2.676-6-6v-72c0-0.796 0.1582-1.556 0.4375-2.25z"/>
  <path id="rect3716" style="opacity:.45;fill:url(#linearGradient3721)" d="m6 84v1c0 3.324 2.676 6 6 6h72c3.324 0 6-2.676 6-6v-1c0 3.324-2.676 6-6 6h-72c-3.324 0-6-2.676-6-6z"/>
 </g>
 <g id="layer1" style="display:none">
  <rect id="rect2419" style="opacity:.8" rx="6" ry="6" height="84" width="84" y="6" x="6"/>
  <path id="rect3726" style="opacity:0.08" d="m14 10c-2.216 0-4 1.784-4 4v68c0 2.216 1.784 4 4 4h68c2.216 0 4-1.784 4-4v-68c0-2.216-1.784-4-4-4h-68zm0 3.0625h68c0.57877 0 0.9375 0.35873 0.9375 0.9375v68c0 0.57877-0.35873 0.9375-0.9375 0.9375h-68c-0.57877 0-0.9375-0.35873-0.9375-0.9375v-68c0-0.57877 0.35873-0.9375 0.9375-0.9375z"/>
  <path id="rect3629" style="fill:url(#linearGradient3643)" d="m12 6c-3.324 0-6 2.676-6 6v72c0 3.324 2.676 6 6 6h72c3.324 0 6-2.676 6-6v-72c0-3.324-2.676-6-6-6h-72zm2 4h68c2.216 0 4 1.784 4 4v68c0 2.216-1.784 4-4 4h-68c-2.216 0-4-1.784-4-4v-68c0-2.216 1.784-4 4-4z"/>
  <path id="rect3728" style="fill:url(#linearGradient3188)" d="m12 6c-3.324 0-6 2.676-6 6v2 68 2c0 0.33472 0.04135 0.6507 0.09375 0.96875 0.0487 0.2956 0.09704 0.59692 0.1875 0.875 0.00988 0.03038 0.020892 0.0636 0.03125 0.09375 0.098865 0.28777 0.23488 0.54745 0.375 0.8125 0.14459 0.27351 0.31562 0.53562 0.5 0.78125 0.18438 0.24564 0.37378 0.47347 0.59375 0.6875 0.43995 0.42806 0.94291 0.81453 1.5 1.0938 0.27854 0.13961 0.57347 0.24695 0.875 0.34375-0.2562-0.10022-0.48671-0.23627-0.71875-0.375-0.00741-0.0044-0.023866 0.0045-0.03125 0-0.031933-0.0193-0.062293-0.04251-0.09375-0.0625-0.1204-0.0767-0.23102-0.16351-0.34375-0.25-0.10617-0.0808-0.21328-0.16111-0.3125-0.25-0.1778-0.162-0.3473-0.346-0.4999-0.531-0.1075-0.131-0.2183-0.266-0.3124-0.407-0.0251-0.038-0.0385-0.086-0.0626-0.125-0.0647-0.103-0.1302-0.204-0.1874-0.312-0.1011-0.195-0.2057-0.416-0.2813-0.625-0.008-0.022-0.0236-0.041-0.0313-0.063-0.0318-0.092-0.0358-0.187-0.0624-0.281-0.0304-0.107-0.0704-0.203-0.0938-0.313-0.0729-0.341-0.125-0.698-0.125-1.062v-2-68-2c0-2.782 2.2182-5 5-5h2 68 2c2.7818 0 5 2.2182 5 5v2 68 2c0 0.3643-0.05212 0.72099-0.125 1.0625-0.04415 0.20689-0.08838 0.39766-0.15625 0.59375-0.0077 0.02195-0.0233 0.04069-0.03125 0.0625-0.06274 0.17374-0.13838 0.36745-0.21875 0.53125-0.04158 0.0828-0.07904 0.16995-0.125 0.25-0.0546 0.09721-0.12677 0.18835-0.1875 0.28125-0.09411 0.14096-0.20492 0.276-0.3125 0.40625-0.14317 0.17445-0.30314 0.347-0.46875 0.5-0.01117 0.0102-0.01998 0.02115-0.03125 0.03125-0.13839 0.12556-0.28509 0.23444-0.4375 0.34375-0.10257 0.07315-0.20432 0.15336-0.3125 0.21875-0.0074 0.0045-0.02384-0.0044-0.03125 0-0.23204 0.13873-0.46255 0.27478-0.71875 0.375 0.30153-0.0968 0.59646-0.20414 0.875-0.34375 0.55709-0.27922 1.0601-0.66569 1.5-1.0938 0.21997-0.21403 0.40937-0.44186 0.59375-0.6875s0.35541-0.50774 0.5-0.78125c0.14012-0.26505 0.27614-0.52473 0.375-0.8125 0.01041-0.03078 0.02133-0.06274 0.03125-0.09375 0.09046-0.27808 0.1388-0.5794 0.1875-0.875 0.053-0.318 0.094-0.634 0.094-0.969v-2-68-2c0-3.324-2.676-6-6-6h-72z"/>
  <path id="path3615" style="opacity:.6;fill:url(#radialGradient3619)" d="m12 90c-3.324 0-6-2.676-6-6v-2-68-2c0-0.33472 0.04135-0.6507 0.09375-0.96875 0.0487-0.2956 0.09704-0.59692 0.1875-0.875 0.0099-0.03 0.0209-0.063 0.0313-0.094 0.0989-0.2873 0.2349-0.547 0.375-0.812 0.1446-0.2735 0.3156-0.5356 0.5-0.7812 0.1844-0.2457 0.3738-0.4735 0.5937-0.6876 0.44-0.428 0.943-0.8145 1.5-1.0937 0.2786-0.1396 0.5735-0.2469 0.8748-0.3437-0.256 0.1002-0.4865 0.2362-0.7185 0.375-0.00741 0.0044-0.023866-0.0045-0.03125 0-0.031933 0.0193-0.062293 0.04251-0.09375 0.0625-0.1204 0.0767-0.23102 0.16351-0.34375 0.25-0.10617 0.0808-0.21328 0.16111-0.3125 0.25-0.1779 0.1614-0.3474 0.3453-0.5 0.5312-0.1075 0.1303-0.2183 0.2653-0.3124 0.4063-0.0251 0.0383-0.0385 0.0858-0.0626 0.125-0.0647 0.103-0.1302 0.2045-0.1874 0.3124-0.1011 0.1948-0.2057 0.4158-0.2813 0.625-0.008 0.0219-0.0236 0.0406-0.0313 0.0626-0.0318 0.0919-0.0358 0.1868-0.0624 0.2812-0.0304 0.1066-0.0704 0.203-0.0938 0.3125-0.0729 0.3415-0.125 0.6985-0.125 1.0625v2 68 2c0 2.7818 2.2182 5 5 5h2 68 2c2.7818 0 5-2.2182 5-5v-2-68-2c0-0.364-0.052-0.721-0.125-1.0625-0.044-0.2069-0.088-0.3977-0.156-0.5937-0.008-0.022-0.024-0.0407-0.031-0.0626-0.063-0.1737-0.139-0.3674-0.219-0.5312-0.042-0.0828-0.079-0.17-0.125-0.25-0.055-0.0972-0.127-0.1884-0.188-0.2812-0.094-0.141-0.205-0.276-0.312-0.4063-0.143-0.1745-0.303-0.347-0.469-0.5-0.011-0.0102-0.02-0.0211-0.031-0.0313-0.139-0.1255-0.285-0.2344-0.438-0.3437-0.102-0.0731-0.204-0.1534-0.312-0.2187-0.0074-0.0045-0.02384 0.0044-0.03125 0-0.23204-0.13873-0.46255-0.27478-0.71875-0.375 0.30153 0.0968 0.59646 0.20414 0.875 0.34375 0.55709 0.27922 1.0601 0.66569 1.5 1.0938 0.21997 0.21403 0.40937 0.44186 0.59375 0.6875s0.35541 0.50774 0.5 0.78125c0.14012 0.26505 0.27614 0.52473 0.375 0.8125 0.01041 0.03078 0.02133 0.06274 0.03125 0.09375 0.09046 0.27808 0.1388 0.5794 0.1875 0.875 0.053 0.318 0.094 0.634 0.094 0.969v2 68 2c0 3.324-2.676 6-6 6h-72z"/>
  <rect id="rect2841" style="fill:url(#linearGradient2843)" rx="6" ry="6" height="84" width="84" y="106" x="6"/>
  <rect id="rect3634" style="fill:#f00" rx="4" ry="4" height="76" width="76" y="110" x="10"/>
  <path id="rect3647" style="block-progression:tb;text-indent:0;filter:url(#filter3657);color:#000000;text-transform:none;display:inline" d="m14 9c-2.7527 0-5 2.2473-5 5v68c0 2.7527 2.2473 5 5 5h68c2.7527 0 5-2.2473 5-5v-68c0-2.753-2.247-5-5-5h-68zm0 2h68c1.6793 0 3 1.3207 3 3v68c0 1.6793-1.3207 3-3 3h-68c-1.6793 0-3-1.3207-3-3v-68c0-1.6793 1.3207-3 3-3z" clip-path="url(#clipPath3649)" transform="translate(-110)"/>
  <path id="path3709" style="opacity:0.16" d="m14.089 10c-2.216 0-4 1.784-4 4v68c0 2.216 1.784 4 4 4h68c2.216 0 4-1.784 4-4v-68c0-2.216-1.784-4-4-4h-68zm0 2h68c1.1403 0 2 0.8597 2 2v68c0 1.1403-0.8597 2-2 2h-68c-1.1403 0-2-0.8597-2-2v-68c0-1.1403 0.8597-2 2-2z"/>
  <path id="path3707" style="opacity:0.36" d="m14 10c-2.216 0-4 1.784-4 4v68c0 2.216 1.784 4 4 4h68c2.216 0 4-1.784 4-4v-68c0-2.216-1.784-4-4-4h-68zm0 1h68c1.6738 0 3 1.3262 3 3v68c0 1.6738-1.3262 3-3 3h-68c-1.6738 0-3-1.3262-3-3v-68c0-1.6738 1.3262-3 3-3z"/>
 </g>
 <g id="layer4">
  <rect id="rect2419-9" style="opacity:.6" rx="6" ry="6" height="84" width="84" y="6" x="6"/>
  <path id="rect3728-4" style="opacity:0.01;fill:url(#linearGradient3188)" d="m12 6c-3.324 0-6 2.676-6 6v2 68 2c0 0.33472 0.04135 0.6507 0.09375 0.96875 0.0487 0.2956 0.09704 0.59692 0.1875 0.875 0.00988 0.03038 0.020892 0.0636 0.03125 0.09375 0.098865 0.28777 0.23488 0.54745 0.375 0.8125 0.14459 0.27351 0.31562 0.53562 0.5 0.78125 0.18438 0.24564 0.37378 0.47347 0.59375 0.6875 0.43995 0.42806 0.94291 0.81453 1.5 1.0938 0.27854 0.13961 0.57347 0.24695 0.875 0.34375-0.2562-0.10022-0.48671-0.23627-0.71875-0.375-0.00741-0.0044-0.023866 0.0045-0.03125 0-0.031933-0.0193-0.062293-0.04251-0.09375-0.0625-0.1204-0.0767-0.23102-0.16351-0.34375-0.25-0.10617-0.0808-0.21328-0.16111-0.3125-0.25-0.1778-0.162-0.3473-0.346-0.4999-0.531-0.1075-0.131-0.2183-0.266-0.3124-0.407-0.0251-0.038-0.0385-0.086-0.0626-0.125-0.0647-0.103-0.1302-0.204-0.1874-0.312-0.1011-0.195-0.2057-0.416-0.2813-0.625-0.008-0.022-0.0236-0.041-0.0313-0.063-0.0318-0.092-0.0358-0.187-0.0624-0.281-0.0304-0.107-0.0704-0.203-0.0938-0.313-0.0729-0.341-0.125-0.698-0.125-1.062v-2-68-2c0-2.782 2.2182-5 5-5h2 68 2c2.7818 0 5 2.2182 5 5v2 68 2c0 0.3643-0.05212 0.72099-0.125 1.0625-0.04415 0.20689-0.08838 0.39766-0.15625 0.59375-0.0077 0.02195-0.0233 0.04069-0.03125 0.0625-0.06274 0.17374-0.13838 0.36745-0.21875 0.53125-0.04158 0.0828-0.07904 0.16995-0.125 0.25-0.0546 0.09721-0.12677 0.18835-0.1875 0.28125-0.09411 0.14096-0.20492 0.276-0.3125 0.40625-0.14317 0.17445-0.30314 0.347-0.46875 0.5-0.01117 0.0102-0.01998 0.02115-0.03125 0.03125-0.13839 0.12556-0.28509 0.23444-0.4375 0.34375-0.10257 0.07315-0.20432 0.15336-0.3125 0.21875-0.0074 0.0045-0.02384-0.0044-0.03125 0-0.23204 0.13873-0.46255 0.27478-0.71875 0.375 0.30153-0.0968 0.59646-0.20414 0.875-0.34375 0.55709-0.27922 1.0601-0.66569 1.5-1.0938 0.21997-0.21403 0.40937-0.44186 0.59375-0.6875s0.35541-0.50774 0.5-0.78125c0.14012-0.26505 0.27614-0.52473 0.375-0.8125 0.01041-0.03078 0.02133-0.06274 0.03125-0.09375 0.09046-0.27808 0.1388-0.5794 0.1875-0.875 0.053-0.318 0.094-0.634 0.094-0.969v-2-68-2c0-3.324-2.676-6-6-6h-72z"/>
  <path id="path3615-6" style="opacity:.15;fill:url(#radialGradient3619-3)" d="m12 90c-3.324 0-6-2.676-6-6v-2-68-2c0-0.33472 0.04135-0.6507 0.09375-0.96875 0.0487-0.2956 0.09704-0.59692 0.1875-0.875 0.0099-0.03 0.0209-0.063 0.0313-0.094 0.0989-0.2873 0.2349-0.547 0.375-0.812 0.1446-0.2735 0.3156-0.5356 0.5-0.7812 0.1844-0.2457 0.3738-0.4735 0.5937-0.6876 0.44-0.428 0.943-0.8145 1.5-1.0937 0.2786-0.1396 0.5735-0.2469 0.8748-0.3437-0.256 0.1002-0.4865 0.2362-0.7185 0.375-0.00741 0.0044-0.023866-0.0045-0.03125 0-0.031933 0.0193-0.062293 0.04251-0.09375 0.0625-0.1204 0.0767-0.23102 0.16351-0.34375 0.25-0.10617 0.0808-0.21328 0.16111-0.3125 0.25-0.1779 0.1614-0.3474 0.3453-0.5 0.5312-0.1075 0.1303-0.2183 0.2653-0.3124 0.4063-0.0251 0.0383-0.0385 0.0858-0.0626 0.125-0.0647 0.103-0.1302 0.2045-0.1874 0.3124-0.1011 0.1948-0.2057 0.4158-0.2813 0.625-0.008 0.0219-0.0236 0.0406-0.0313 0.0626-0.0318 0.0919-0.0358 0.1868-0.0624 0.2812-0.0304 0.1066-0.0704 0.203-0.0938 0.3125-0.0729 0.3415-0.125 0.6985-0.125 1.0625v2 68 2c0 2.7818 2.2182 5 5 5h2 68 2c2.7818 0 5-2.2182 5-5v-2-68-2c0-0.364-0.052-0.721-0.125-1.0625-0.044-0.2069-0.088-0.3977-0.156-0.5937-0.008-0.022-0.024-0.0407-0.031-0.0626-0.063-0.1737-0.139-0.3674-0.219-0.5312-0.042-0.0828-0.079-0.17-0.125-0.25-0.055-0.0972-0.127-0.1884-0.188-0.2812-0.094-0.141-0.205-0.276-0.312-0.4063-0.143-0.1745-0.303-0.347-0.469-0.5-0.011-0.0102-0.02-0.0211-0.031-0.0313-0.139-0.1255-0.285-0.2344-0.438-0.3437-0.102-0.0731-0.204-0.1534-0.312-0.2187-0.0074-0.0045-0.02384 0.0044-0.03125 0-0.23204-0.13873-0.46255-0.27478-0.71875-0.375 0.30153 0.0968 0.59646 0.20414 0.875 0.34375 0.55709 0.27922 1.0601 0.66569 1.5 1.0938 0.21997 0.21403 0.40937 0.44186 0.59375 0.6875s0.35541 0.50774 0.5 0.78125c0.14012 0.26505 0.27614 0.52473 0.375 0.8125 0.01041 0.03078 0.02133 0.06274 0.03125 0.09375 0.09046 0.27808 0.1388 0.5794 0.1875 0.875 0.053 0.318 0.094 0.634 0.094 0.969v2 68 2c0 3.324-2.676 6-6 6h-72z"/>
 </g>
 <g id="layer5" style="display:none">
  <rect id="rect3171" style="opacity:.1;filter:url(#filter3794);stroke:#fff;stroke-linecap:round;stroke-width:.5;fill:url(#linearGradient3613)" clip-path="url(#clipPath3613)" rx="12" ry="12" height="66" width="66" y="15" x="15"/>
 </g>
 <g id="layer6">
  <path id="path3964" style="opacity:.1" d="m51.625 29c-1.9974 0.00004-4.0335 0.22744-6.1562 0.65625-2.0854 0.40434-4.3128 1.0183-6.625 1.8438-0.01013 0.0036-0.02112-0.0036-0.03125 0-0.03252 0.01275-0.09306 0.03095-0.09375 0.03125-0.000908 0.00039-0.12412 0.06205-0.125 0.0625-0.000881 0.000447-0.12415 0.062-0.125 0.0625-0.000851 0.000502-0.09293 0.06194-0.09375 0.0625-0.000817 0.000556-0.09297 0.06189-0.09375 0.0625-0.00078 0.000607-0.09301 0.0931-0.09375 0.09375-0.00074 0.000655-0.09305 0.09305-0.09375 0.09375-0.000697 0.000701-0.0931 0.09301-0.09375 0.09375-0.000651 0.000744-0.09315 0.09297-0.09375 0.09375-0.000602 0.000784-0.06195 0.09293-0.0625 0.09375-0.000551 0.000821-0.062 0.12415-0.0625 0.125-0.000498 0.000854-0.06206 0.09287-0.0625 0.09375-0.000442 0.000884-0.06211 0.12409-0.0625 0.125-0.000385 0.00091-0.03092 0.12407-0.03125 0.125-0.000326 0.000933-0.06223 0.12405-0.0625 0.125-0.000266 0.000952-0.03104 0.12403-0.03125 0.125l-1.0625 5.2188c-0.000212 0.0011 0.000139 0.12394 0 0.125-0.000139 0.0011-0.03119 0.15518-0.03125 0.15625-0.000065 0.0011-0.000009 0.12393 0 0.125 0.000009 0.0011-0.000083 0.12393 0 0.125 0.000083 0.0011 0.03109 0.15519 0.03125 0.15625 0.000156 0.0011 0.03102 0.12395 0.03125 0.125 0.000229 0.001 0.03095 0.12397 0.03125 0.125 0.000301 0.001 0.03088 0.15524 0.03125 0.15625 0.000371 0.001 0.06206 0.12402 0.0625 0.125 0.00044 0.000978 0.06199 0.12406 0.0625 0.125 0.000506 0.000945 0.06193 0.09284 0.0625 0.09375 0.00057 0.000908 0.06187 0.12413 0.0625 0.125 0.000632 0.000866 0.09306 0.12418 0.09375 0.125s0.093 0.09298 0.09375 0.09375c0.000745 0.000771 0.09295 0.09303 0.09375 0.09375 0.000797 0.000718 0.12416 0.09309 0.125 0.09375 0.000844 0.000661 0.09286 0.0619 0.09375 0.0625 0.000888 0.000601 0.12407 0.09321 0.125 0.09375 0.000927 0.000538 0.12404 0.06203 0.125 0.0625 0.000962 0.000473 0.12401 0.06209 0.125 0.0625 0.000993 0.000405 0.12398 0.03091 0.125 0.03125 0.001 0.000336 0.12396 0.03099 0.125 0.03125 0.001 0.000264 0.1552 0.03106 0.15625 0.03125 0.0011 0.000192 0.12393 0.03113 0.125 0.03125 0.0011 0.000119 0.12393-0.000045 0.125 0 0.0011 0.000045 0.15518 0.000029 0.15625 0 0.0011-0.000029 0.12393 0.000103 0.125 0 0.0011-0.000103 0.15519-0.03107 0.15625-0.03125 0.0011-0.000177 0.12396 0.000249 0.125 0 0.001-0.000249 0.12398-0.06218 0.125-0.0625 0.001-0.000321 0.124-0.03086 0.125-0.03125 0.000998-0.000391 0.12403-0.06204 0.125-0.0625a0.97451 0.97451 0 0 0 0.03125 0c1.7669-0.87392 3.584-1.5351 5.375-1.9688 1.8027-0.43189 3.5939-0.62497 5.4062-0.625 2.7837 0.000028 4.4216 0.62744 5.3125 1.5312 0.71552 0.70532 0.95165 1.7147 0.84375 3.1562h-6.0625c-5.3783 0.000023-9.8346 1.0355-13.25 3.2812-3.396 2.2484-5.6379 5.7121-6.5 10-0.7323 3.7072-0.14842 7.0893 1.9688 9.5938 2.125 2.488 5.421 3.655 9.312 3.655 3.0103 0 5.7636-0.53752 8.1875-1.6562 0.45241-0.21316 0.84901-0.55349 1.2812-0.8125-0.0025 0.0094 0.000048 0.03105 0 0.03125-0.000206 0.000873-0.0311 0.09287-0.03125 0.09375-0.000155 0.000884 0.000104 0.12411 0 0.125-0.000104 0.000891 0.000052 0.1241 0 0.125-0.000052 0.000896-0.03125 0.09285-0.03125 0.09375 0 0.000897 0.0312 0.1241 0.03125 0.125 0.000051 0.000896-0.000103 0.12411 0 0.125 0.000103 0.000891-0.000154 0.09287 0 0.09375 0.000154 0.000884 0.03104 0.12413 0.03125 0.125 0.000205 0.000873 0.03099 0.12414 0.03125 0.125 0.000255 0.00086 0.03095 0.09291 0.03125 0.09375 0.000305 0.000844 0.06215 0.09292 0.0625 0.09375 0.000353 0.000825 0.03085 0.1242 0.03125 0.125 0.0004 0.000803 0.06205 0.09297 0.0625 0.09375 0.000446 0.000778 0.06201 0.093 0.0625 0.09375 0.00049 0.000751 0.06197 0.09303 0.0625 0.09375 0.000533 0.000722 0.06193 0.09306 0.0625 0.09375 0.000574 0.00069 0.09314 0.0931 0.09375 0.09375 0.000612 0.000655 0.06185 0.09313 0.0625 0.09375 0.000649 0.000619 0.09307 0.06192 0.09375 0.0625 0.000684 0.00058 0.09303 0.06196 0.09375 0.0625 0.000716 0.00054 0.093 0.062 0.09375 0.0625 0.000746 0.000498 0.09298 0.06205 0.09375 0.0625 0.000774 0.000454 0.09295 0.06209 0.09375 0.0625 0.000799 0.000408 0.12418 0.06214 0.125 0.0625 0.000821 0.000361 0.09291 0.03094 0.09375 0.03125 0.000841 0.000313 0.12414 0.03099 0.125 0.03125 0.000857 0.000264 0.09288 0.03104 0.09375 0.03125 0.000871 0.000214 0.12412 0.03109 0.125 0.03125 0.000882 0.000163 0.09286 0.03114 0.09375 0.03125 0.00089 0.000112 0.1241-0.00006 0.125 0 0.000895 0.00006 0.1241-0.000008 0.125 0h5.625c0.0013 0.000001 0.15493 0.000112 0.15625 0 0.0013-0.000112 0.1862-0.03103 0.1875-0.03125 0.0013-0.000224 0.15497-0.03091 0.15625-0.03125 0.0013-0.000335 0.155-0.03081 0.15625-0.03125 0.0012-0.000443 0.15504-0.0932 0.15625-0.09375 0.0012-0.000547 0.1551-0.06185 0.15625-0.0625 0.0012-0.000648 0.15516-0.09301 0.15625-0.09375 0.0011-0.000744 0.12397-0.09292 0.125-0.09375 0.001-0.000835 0.12405-0.12408 0.125-0.125 0.000952-0.000919 0.12413-0.124 0.125-0.125 0.000871-0.000997 0.12422-0.12393 0.125-0.125 0.000782-0.0011 0.09306-0.12387 0.09375-0.125 0.000689-0.0011 0.06191-0.15506 0.0625-0.15625 0.00059-0.0012 0.06201-0.15502 0.0625-0.15625 0.000486-0.0012 0.06212-0.15498 0.0625-0.15625 0.000304-0.001 0.02055-0.11395 0.03125-0.15625 0.0027-0.01058 0.0312-0.03099 0.03125-0.03125h-0.03125l4.56-20.406a0.97451 0.97451 0 0 0 0.03125 -0.0625 0.97451 0.97451 0 0 0 0 -0.125c1.068-5.46 0.696-9.985-1.719-13.187-2.433-3.227-6.633-4.625-11.937-4.625zm0 21.875h2.9688c-0.73508 2.737-1.8994 4.9452-3.6562 6.625-2.0042 1.8835-4.1123 2.7813-6.75 2.7812-1.9321 0.000006-2.957-0.4425-3.5625-1.0938-0.63772-0.69788-0.82999-1.4143-0.5-3.0312a0.97451 0.97451 0 0 0 0 -0.03125c0.40927-2.0976 1.1671-3.1317 2.625-3.9062 1.3936-0.73272 4.4815-1.3437 8.875-1.3438z"/>
  <path id="path3960" style="opacity:.15" d="m51.625 29.969c-1.9171 0.000038-3.8938 0.23711-5.9688 0.65625-2.0501 0.39749-4.2265 0.96783-6.5 1.7812a1.0209 1.0209 0 0 0 -0.656 0.75l-1.062 5.219a1.0209 1.0209 0 0 0 1.437 1.125c1.8347-0.90746 3.7342-1.581 5.5938-2.0312 1.8791-0.45018 3.7415-0.65622 5.625-0.65625 2.9278 0.000029 4.8534 0.64937 6 1.8125 1.1074 1.0916 1.4633 2.6165 1.0938 4.8125h-7c-5.2524 0.000022-9.5143 1.018-12.719 3.125-3.1793 2.1049-5.2433 5.3006-6.0625 9.375-0.69279 3.5072-0.14752 6.5366 1.75 8.7812 1.9033 2.2282 4.8626 3.3125 8.5625 3.3125 2.8954 0 5.5053-0.51205 7.7812-1.5625 1.1612-0.54712 2.2725-1.2817 3.3125-2.125l-0.65625 2.375a1.0209 1.0209 0 0 0 0.96875 1.3125h5.625a1.0209 1.0209 0 0 0 1 -0.8125l4.5625-20.438a1.0209 1.0209 0 0 0 0 -0.03125c1.0708-5.3753 0.66265-9.6214-1.5312-12.531-2.1914-2.9064-6.0225-4.25-11.156-4.25zm0 19.938h4.3125a1.0209 1.0209 0 0 0 0 0.03125c-0.70177 3.5087-2.1495 6.2131-4.3125 8.2812-2.1583 2.0366-4.5657 3.0313-7.4375 3.0312-2.089 0.000006-3.4429-0.50465-4.2812-1.4062-0.8421-0.92153-1.1155-2.0839-0.75-3.875a1.0209 1.0209 0 0 0 0 -0.03125c0.44659-2.2888 1.4338-3.6953 3.125-4.5938 1.6926-0.88991 4.8707-1.4375 9.3438-1.4375z"/>
  <path id="path3954" style="opacity:.3" d="m51.615 48.878c-4.551 0.000015-7.8163 0.52042-9.7959 1.5612-1.9592 1.0408-3.1837 2.8163-3.6735 5.3265-0.40818 2-0.07144 3.5918 1.0102 4.7755 1.0816 1.1633 2.7551 1.7449 5.0204 1.7449 3.1224 0.000006 5.8469-1.102 8.1735-3.3061 2.3265-2.2245 3.8571-5.1735 4.5918-8.8469l0.27552-1.2551h-5.602m11.693-2.327-4.545 20.449h-5.6327l1.6676-6.0918c-1.6939 2.0816-3.6021 3.6224-5.7245 4.6224-2.1225 0.97959-4.5714 1.4694-7.3469 1.4694-3.5102 0-6.102-0.97959-7.7755-2.9388-1.6735-1.9796-2.1837-4.6224-1.5306-7.9286 0.7755-3.8571 2.6428-6.7653 5.602-8.7245 2.9796-1.9592 7.0306-2.9388 12.153-2.9388h7.898l0.12246-0.55102c0.51015-2.5918 0.05097-4.5918-1.3776-6-1.4082-1.4285-3.6531-2.1428-6.7347-2.1429-1.9592 0.00003-3.9184 0.23472-5.8776 0.70408-1.9388 0.46942-3.8572 1.1735-5.7551 2.1122l1.0408-5.2041c2.2245-0.79588 4.3367-1.3877 6.3367-1.7755 2.0204-0.40813 3.949-0.61221 5.7857-0.61225 4.9592 0.000036 8.4081 1.2857 10.347 3.8571 1.9387 2.5715 2.3877 6.4694 1.3469 11.694"/>
  <rect id="rect3897" style="color:#000000;fill:url(#linearGradient3905)" transform="matrix(0,1,1,0,0,0)" height="16" width="16" y="104" x="0"/>
  <text id="text3907" y="48" x="104" xml:space="preserve" style="font-size:4px;letter-spacing:0px;word-spacing:0px;font-family:Liberation Sans;line-height:125%;fill:#000000"><tspan id="tspan3909" y="48" x="104">Shadow opacity : 30, 15, 10, (8)</tspan></text>
  <rect id="rect3911" style="color:#000000;fill:url(#linearGradient3913)" transform="rotate(-90)" height="16" width="16" y="104" x="-40"/>
  <text id="text3951" y="32" x="124" xml:space="preserve" style="font-size:4px;letter-spacing:0px;word-spacing:0px;font-family:Liberation Sans;line-height:125%;fill:#000000"><tspan id="tspan3953" y="32" x="124">Bevel opacity : 30 / 10</tspan></text>
  <text id="text3955" y="8" x="124" xml:space="preserve" style="font-size:4px;letter-spacing:0px;word-spacing:0px;font-family:Liberation Sans;line-height:125%;fill:#000000"><tspan id="tspan3957" y="8" x="124">Bevel opacity : 75 / 15</tspan></text>
  <path id="path2864" style="fill:url(#linearGradient3047)" d="m51.615 47.878c-4.551 0.000015-7.8163 0.52042-9.7959 1.5612-1.9592 1.0408-3.1837 2.8163-3.6735 5.3265-0.40818 2-0.07144 3.5918 1.0102 4.7755 1.0816 1.1633 2.7551 1.7449 5.0204 1.7449 3.1224 0.000006 5.8469-1.102 8.1735-3.3061 2.3265-2.2245 3.8571-5.1735 4.5918-8.8469l0.27552-1.2551h-5.602m11.693-2.327-4.545 20.449h-5.6327l1.6676-6.0918c-1.6939 2.0816-3.6021 3.6224-5.7245 4.6224-2.1225 0.97959-4.5714 1.4694-7.3469 1.4694-3.5102 0-6.102-0.97959-7.7755-2.9388-1.6735-1.9796-2.1837-4.6224-1.5306-7.9286 0.7755-3.8571 2.6428-6.7653 5.602-8.7245 2.9796-1.9592 7.0306-2.9388 12.153-2.9388h7.898l0.12246-0.55102c0.51015-2.5918 0.05097-4.5918-1.3776-6-1.4082-1.4285-3.6531-2.1428-6.7347-2.1429-1.9592 0.00003-3.9184 0.23472-5.8776 0.70408-1.9388 0.46942-3.8572 1.1735-5.7551 2.1122l1.0408-5.2041c2.2245-0.79588 4.3367-1.3877 6.3367-1.7755 2.0204-0.40813 3.949-0.61221 5.7857-0.61225 4.9592 0.000036 8.4081 1.2857 10.347 3.8571 1.9387 2.5715 2.3877 6.4694 1.3469 11.694"/>
  <path id="path3936" style="opacity:.75;fill:#fff" d="m51.625 30c-1.8368 0.000036-3.7609 0.21687-5.7812 0.625-2 0.38779-4.1193 0.95412-6.3438 1.75l-1.0625 5.2188c0.07144-0.03534 0.14725-0.05908 0.21875-0.09375l0.843-4.125c2.2245-0.79588 4.3437-1.3622 6.3438-1.75 2.0204-0.40813 3.9445-0.62496 5.7812-0.625 4.9592 0.000036 8.4049 1.2724 10.344 3.8438 1.1765 1.5605 1.7957 3.6188 1.875 6.1562 0.06776-2.9997-0.54902-5.3975-1.875-7.1562-1.939-2.572-5.385-3.844-10.344-3.844zm6.75 11.438c-0.02426 0.47276-0.08505 0.94825-0.1875 1.4688l-0.125 0.5625h-7.875c-5.1225 0.000021-9.1767 0.97834-12.156 2.9375-2.9592 1.9592-4.8495 4.8616-5.625 8.7188-0.21371 1.0819-0.25419 2.0914-0.21875 3.0312 0.03363-0.64337 0.0798-1.3278 0.21875-2.0312 0.7755-3.8571 2.6658-6.7596 5.625-8.7188 2.9796-1.9592 7.0338-2.9375 12.156-2.9375h7.875l0.125-0.5625c0.17716-0.90003 0.24413-1.7114 0.1875-2.4688zm-1.375 7.437l-0.0625 0.25c-0.73472 3.6735-2.2672 6.6193-4.5938 8.8438-2.3266 2.2041-5.0338 3.3125-8.1562 3.3125-2.2653 0.000006-3.9496-0.58673-5.0312-1.75-0.677-0.74-1.063-1.629-1.157-2.687-0.10468 1.5006 0.27741 2.7258 1.1562 3.6875 1.0816 1.1633 2.7659 1.75 5.0312 1.75 3.1224 0.000006 5.8297-1.1084 8.1562-3.3125 2.3265-2.2245 3.859-5.1703 4.5938-8.8438l0.28125-1.25h-0.21875zm-2.1875 12.031c-0.12833 0.15771-0.27546 0.286-0.40625 0.4375l-1.281 4.656h0.28125l1.4062-5.0938z"/>
  <path id="path3945" style="opacity:.15" d="m50.094 33.781c-1.9592 0.00003-3.9158 0.21814-5.875 0.6875-1.8658 0.45175-3.7345 1.1448-5.5625 2.0312l-0.21875 1.0938c1.8979-0.93874 3.8425-1.6556 5.7812-2.125 1.9592-0.46936 3.9158-0.68747 5.875-0.6875 3.0816 0.00003 5.3106 0.69646 6.7188 2.125 0.93246 0.91918 1.4561 2.1078 1.5625 3.5312 0.09656-1.8813-0.42085-3.4059-1.5625-4.5312-1.4082-1.4285-3.6371-2.125-6.7188-2.125zm13.75 6.219c-0.03131 1.3862-0.2023 2.9113-0.53125 4.5625l-4.563 20.438h-5.344l-0.281 1h5.625l4.562-20.438c0.41-2.054 0.583-3.918 0.532-5.562zm-12.219 6.875c-4.551 0.000015-7.8329 0.5217-9.8125 1.5625-1.9592 1.0408-3.1665 2.8023-3.6562 5.3125-0.15307 0.75-0.21269 1.4585-0.15625 2.0938 0.02416-0.3463 0.07972-0.71875 0.15625-1.0938 0.48978-2.5102 1.6971-4.2717 3.6562-5.3125 1.9796-1.0408 5.2615-1.5625 9.8125-1.5625h5.375l0.21875-1h-5.5938zm-19.437 10.281c-0.12443 2.3805 0.43258 4.3478 1.75 5.9062 1.6735 1.9592 4.271 2.9375 7.7812 2.9375 2.7755 0 5.2213-0.48916 7.3438-1.4688 1.9616-0.92424 3.7482-2.3393 5.3438-4.1875l0.40625-1.4375c-1.6939 2.0816-3.6276 3.625-5.75 4.625-2.123 0.98-4.569 1.469-7.344 1.469-3.5102 0-6.1078-0.97832-7.7812-2.9375-1.1258-1.3318-1.6771-2.9741-1.75-4.9062z"/>
 </g>
</svg>
