<?xml version="1.0" encoding="UTF-8" standalone="no"?>
<!-- Created with Inkscape (http://www.inkscape.org/) -->
<svg id="svg2" xmlns:rdf="http://www.w3.org/1999/02/22-rdf-syntax-ns#" xmlns="http://www.w3.org/2000/svg" height="16" width="16" version="1.0" xmlns:cc="http://creativecommons.org/ns#" xmlns:dc="http://purl.org/dc/elements/1.1/">
 <metadata id="metadata7">
  <rdf:RDF>
   <cc:Work rdf:about="">
    <dc:format>image/svg+xml</dc:format>
    <dc:type rdf:resource="http://purl.org/dc/dcmitype/StillImage"/>
   </cc:Work>
  </rdf:RDF>
 </metadata>
 <g id="layer1">
  <path id="path3626" style="fill:#bebebe" d="m8.1658 8.4677c-0.6349 0-1.1139 0.1077-1.4371 0.3231-0.3174 0.2154-0.4762 0.5329-0.4761 0.9524-0.0000038 0.38549 0.12755 0.68878 0.38265 0.90986 0.26077 0.21542 0.62074 0.32313 1.0799 0.32313 0.57256 0.000002 1.0544-0.20408 1.4456-0.61224 0.3911-0.4139 0.5866-0.9298 0.5866-1.5477v-0.34864h-1.5816m4.6514-1.148v5.6803h-3.0697v-1.6582c-0.408 0.578-0.8672 1-1.3774 1.267-0.5102 0.261-1.131 0.391-1.8622 0.391-0.9864 0-1.7886-0.286-2.4065-0.859-0.6123-0.578-0.9184-1.326-0.9184-2.2447 0-1.1168 0.3827-1.936 1.148-2.4575 0.771-0.5216 1.9784-0.7823 3.6224-0.7823h1.7942v-0.2381c0-0.4819-0.1899-0.8334-0.5697-1.0545-0.3798-0.2267-0.9722-0.3401-1.7772-0.3401-0.6519 0-1.2585 0.0652-1.8197 0.1956s-1.0828 0.326-1.5646 0.5867v-2.3214c0.6519-0.1587 1.3066-0.2778 1.9642-0.3571 0.6576-0.0851 1.3152-0.1276 1.9728-0.1276 1.7177 0.0000097 2.9563 0.34015 3.716 1.0204 0.7653 0.67461 1.1479 1.7744 1.148 3.2993"/>
 </g>
</svg>
