<?xml version="1.0" encoding="UTF-8" standalone="no"?>
<!-- Created with Inkscape (http://www.inkscape.org/) -->
<svg id="svg2408" xmlns:rdf="http://www.w3.org/1999/02/22-rdf-syntax-ns#" xmlns="http://www.w3.org/2000/svg" height="96" width="96" version="1.0" xmlns:cc="http://creativecommons.org/ns#" xmlns:xlink="http://www.w3.org/1999/xlink" xmlns:dc="http://purl.org/dc/elements/1.1/">
 <defs id="defs2410">
  <linearGradient id="linearGradient3637">
   <stop id="stop3639" style="stop-color:#f0f0f0" offset="0"/>
   <stop id="stop3641" style="stop-color:#aaa" offset="1"/>
  </linearGradient>
  <linearGradient id="ButtonShadow" y2="7.0165" gradientUnits="userSpaceOnUse" x2="45.448" gradientTransform="scale(1.0059 .99417)" y1="92.54" x1="45.448">
   <stop id="stop3750" offset="0"/>
   <stop id="stop3752" style="stop-opacity:.58824" offset="1"/>
  </linearGradient>
  <linearGradient id="linearGradient3737">
   <stop id="stop3739" style="stop-color:#fff" offset="0"/>
   <stop id="stop3741" style="stop-color:#fff;stop-opacity:0" offset="1"/>
  </linearGradient>
  <filter id="filter3174" color-interpolation-filters="sRGB">
   <feGaussianBlur id="feGaussianBlur3176" stdDeviation="1.71"/>
  </filter>
  <linearGradient id="linearGradient3188" y2="63.893" xlink:href="#linearGradient3737" gradientUnits="userSpaceOnUse" x2="36.357" y1="6" x1="36.357"/>
  <filter id="filter3794" height="1.384" width="1.384" color-interpolation-filters="sRGB" y="-.192" x="-.192">
   <feGaussianBlur id="feGaussianBlur3796" stdDeviation="5.28"/>
  </filter>
  <linearGradient id="linearGradient3613" y2="138.66" xlink:href="#linearGradient3737" gradientUnits="userSpaceOnUse" x2="48" y1="20.221" x1="48"/>
  <radialGradient id="radialGradient3619" xlink:href="#linearGradient3737" gradientUnits="userSpaceOnUse" cy="90.172" cx="48" gradientTransform="matrix(1.1573 0 0 .99591 -7.551 .19713)" r="42"/>
  <clipPath id="clipPath3613">
   <rect id="rect3615" style="fill:#fff" rx="6" ry="6" height="84" width="84" y="6" x="6"/>
  </clipPath>
  <linearGradient id="linearGradient2843" y2="5.9877" gradientUnits="userSpaceOnUse" x2="48" gradientTransform="translate(0,100)" y1="90" x1="48">
   <stop id="stop3702" style="stop-color:#2276c5" offset="0"/>
   <stop id="stop3704" style="stop-color:#68baf4" offset="1"/>
  </linearGradient>
  <clipPath id="clipPath3625">
   <path id="path3627" style="fill:#fff" d="m0 0v96h96v-96h-96zm12 6h72c3.324 0 6 2.676 6 6v72c0 3.324-2.676 6-6 6h-72c-3.324 0-6-2.676-6-6v-72c0-3.324 2.676-6 6-6z"/>
  </clipPath>
  <linearGradient id="linearGradient3643" y2="90.015" xlink:href="#linearGradient3637" gradientUnits="userSpaceOnUse" x2="44.512" y1="6" x1="44.512"/>
  <clipPath id="clipPath3649">
   <rect id="rect3651" style="fill:#fff" rx="4" ry="4" height="76" width="76" y="10" x="10"/>
  </clipPath>
  <filter id="filter3657" color-interpolation-filters="sRGB">
   <feGaussianBlur id="feGaussianBlur3659" stdDeviation="1.14"/>
  </filter>
  <linearGradient id="ButtonShadow-0" y2="7.0165" gradientUnits="userSpaceOnUse" x2="45.448" gradientTransform="matrix(1.0059 0 0 .99417 100 0)" y1="92.54" x1="45.448">
   <stop id="stop3750-8" offset="0"/>
   <stop id="stop3752-5" style="stop-opacity:.58824" offset="1"/>
  </linearGradient>
  <linearGradient id="linearGradient3780" y2="90.239" xlink:href="#ButtonShadow-0" gradientUnits="userSpaceOnUse" x2="32.251" gradientTransform="matrix(1.0238 0 0 -1.0119 -1.1429 98.071)" y1="6.1317" x1="32.251"/>
  <linearGradient id="linearGradient3721" y2="90.239" xlink:href="#ButtonShadow-0" gradientUnits="userSpaceOnUse" x2="32.251" gradientTransform="matrix(1,0,0,-1,0,97)" y1="6.1317" x1="32.251"/>
  <radialGradient id="radialGradient3619-3" xlink:href="#linearGradient3737" gradientUnits="userSpaceOnUse" cy="90.172" cx="48" gradientTransform="matrix(1.1573 0 0 .99591 -7.551 .19713)" r="42"/>
  <linearGradient id="linearGradient3905" y2="8" xlink:href="#linearGradient3637" gradientUnits="userSpaceOnUse" x2="120" gradientTransform="translate(-104,104)" y1="8" x1="104"/>
  <linearGradient id="linearGradient3913" y2="8" gradientUnits="userSpaceOnUse" x2="120" gradientTransform="translate(-144,104)" y1="8" x1="104">
   <stop id="stop3185-9" style="stop-color:#c80000" offset="0"/>
   <stop id="stop3187-6" style="stop-color:#f3604d" offset="1"/>
  </linearGradient>
  <linearGradient id="linearGradient3919" y2="10.134" xlink:href="#linearGradient3637" gradientUnits="userSpaceOnUse" x2="8.4921" gradientTransform="matrix(-4.3842 0 0 -2.1096 82.231 77.379)" y1="21.511" x1="8.4921"/>
 </defs>
 <metadata id="metadata2413">
  <rdf:RDF>
   <cc:Work rdf:about="">
    <dc:format>image/svg+xml</dc:format>
    <dc:type rdf:resource="http://purl.org/dc/dcmitype/StillImage"/>
    <dc:title/>
   </cc:Work>
  </rdf:RDF>
 </metadata>
 <g id="layer2" style="display:none">
  <rect id="rect3745" style="opacity:.9;filter:url(#filter3174);fill:url(#ButtonShadow)" clip-path="url(#clipPath3625)" rx="6" ry="6" height="85" width="86" y="7" x="5"/>
 </g>
 <g id="layer3">
  <path id="path3786" style="opacity:0.08;fill:url(#linearGradient3780)" d="m12 3.9688c-5.5111 0-10.031 4.5201-10.031 10.031v71c0 5.5111 4.5202 10.031 10.031 10.031h72c5.5111 0 10.031-4.5202 10.031-10.031v-71c0-5.5111-4.52-10.031-10.031-10.031h-72zm0 2.0312h72c3.324 0 6 2.676 6 6v72c0 3.324-2.676 6-6 6h-72c-3.324 0-6-2.676-6-6v-72c0-3.324 2.676-6 6-6z"/>
  <path id="path3778" style="opacity:.1;fill:url(#linearGradient3780)" d="m12 4.9688c-4.9716 0-9.0312 4.0596-9.0312 9.0312v71c0 4.9716 4.0596 9.0312 9.0312 9.0312h72c4.9716 0 9.0312-4.0596 9.0312-9.0312v-71c0-4.9716-4.059-9.0312-9.031-9.0312h-72zm0 1.0312h72c3.324 0 6 2.676 6 6v72c0 3.324-2.676 6-6 6h-72c-3.324 0-6-2.676-6-6v-72c0-3.324 2.676-6 6-6z"/>
  <path id="path3770" style="opacity:.2;fill:url(#linearGradient3780)" d="m11.188 6.0312c-4.028 0.4107-7.188 3.8352-7.188 7.9688v71c0 4.4091 3.5909 8 8 8h72c4.4091 0 8-3.5909 8-8v-71c0-4.1971-3.259-7.646-7.375-7.9688 3.033 0.3062 5.375 2.8526 5.375 5.9688v72c0 3.324-2.676 6-6 6h-72c-3.324 0-6-2.676-6-6v-72c0-3.1162 2.3421-5.6626 5.375-5.9688-0.06227 0.00488-0.12563-0.00631-0.1875 0z"/>
  <path id="rect3723" style="opacity:.3;fill:url(#linearGradient3780)" d="m6.4375 9.75c-0.8995 1.177-1.4375 2.647-1.4375 4.25v71c0 3.878 3.122 7 7 7h72c3.878 0 7-3.122 7-7v-71c0-1.603-0.538-3.073-1.438-4.25 0.28 0.694 0.438 1.454 0.438 2.25v72c0 3.324-2.676 6-6 6h-72c-3.324 0-6-2.676-6-6v-72c0-0.796 0.1582-1.556 0.4375-2.25z"/>
  <path id="rect3716" style="opacity:.45;fill:url(#linearGradient3721)" d="m6 84v1c0 3.324 2.676 6 6 6h72c3.324 0 6-2.676 6-6v-1c0 3.324-2.676 6-6 6h-72c-3.324 0-6-2.676-6-6z"/>
 </g>
 <g id="layer1" style="display:none">
  <rect id="rect2419" style="opacity:.8" rx="6" ry="6" height="84" width="84" y="6" x="6"/>
  <path id="rect3726" style="opacity:0.08" d="m14 10c-2.216 0-4 1.784-4 4v68c0 2.216 1.784 4 4 4h68c2.216 0 4-1.784 4-4v-68c0-2.216-1.784-4-4-4h-68zm0 3.0625h68c0.57877 0 0.9375 0.35873 0.9375 0.9375v68c0 0.57877-0.35873 0.9375-0.9375 0.9375h-68c-0.57877 0-0.9375-0.35873-0.9375-0.9375v-68c0-0.57877 0.35873-0.9375 0.9375-0.9375z"/>
  <path id="rect3629" style="fill:url(#linearGradient3643)" d="m12 6c-3.324 0-6 2.676-6 6v72c0 3.324 2.676 6 6 6h72c3.324 0 6-2.676 6-6v-72c0-3.324-2.676-6-6-6h-72zm2 4h68c2.216 0 4 1.784 4 4v68c0 2.216-1.784 4-4 4h-68c-2.216 0-4-1.784-4-4v-68c0-2.216 1.784-4 4-4z"/>
  <path id="rect3728" style="fill:url(#linearGradient3188)" d="m12 6c-3.324 0-6 2.676-6 6v2 68 2c0 0.33472 0.04135 0.6507 0.09375 0.96875 0.0487 0.2956 0.09704 0.59692 0.1875 0.875 0.00988 0.03038 0.020892 0.0636 0.03125 0.09375 0.098865 0.28777 0.23488 0.54745 0.375 0.8125 0.14459 0.27351 0.31562 0.53562 0.5 0.78125 0.18438 0.24564 0.37378 0.47347 0.59375 0.6875 0.43995 0.42806 0.94291 0.81453 1.5 1.0938 0.27854 0.13961 0.57347 0.24695 0.875 0.34375-0.2562-0.10022-0.48671-0.23627-0.71875-0.375-0.00741-0.0044-0.023866 0.0045-0.03125 0-0.031933-0.0193-0.062293-0.04251-0.09375-0.0625-0.1204-0.0767-0.23102-0.16351-0.34375-0.25-0.10617-0.0808-0.21328-0.16111-0.3125-0.25-0.1778-0.162-0.3473-0.346-0.4999-0.531-0.1075-0.131-0.2183-0.266-0.3124-0.407-0.0251-0.038-0.0385-0.086-0.0626-0.125-0.0647-0.103-0.1302-0.204-0.1874-0.312-0.1011-0.195-0.2057-0.416-0.2813-0.625-0.008-0.022-0.0236-0.041-0.0313-0.063-0.0318-0.092-0.0358-0.187-0.0624-0.281-0.0304-0.107-0.0704-0.203-0.0938-0.313-0.0729-0.341-0.125-0.698-0.125-1.062v-2-68-2c0-2.782 2.2182-5 5-5h2 68 2c2.7818 0 5 2.2182 5 5v2 68 2c0 0.3643-0.05212 0.72099-0.125 1.0625-0.04415 0.20689-0.08838 0.39766-0.15625 0.59375-0.0077 0.02195-0.0233 0.04069-0.03125 0.0625-0.06274 0.17374-0.13838 0.36745-0.21875 0.53125-0.04158 0.0828-0.07904 0.16995-0.125 0.25-0.0546 0.09721-0.12677 0.18835-0.1875 0.28125-0.09411 0.14096-0.20492 0.276-0.3125 0.40625-0.14317 0.17445-0.30314 0.347-0.46875 0.5-0.01117 0.0102-0.01998 0.02115-0.03125 0.03125-0.13839 0.12556-0.28509 0.23444-0.4375 0.34375-0.10257 0.07315-0.20432 0.15336-0.3125 0.21875-0.0074 0.0045-0.02384-0.0044-0.03125 0-0.23204 0.13873-0.46255 0.27478-0.71875 0.375 0.30153-0.0968 0.59646-0.20414 0.875-0.34375 0.55709-0.27922 1.0601-0.66569 1.5-1.0938 0.21997-0.21403 0.40937-0.44186 0.59375-0.6875s0.35541-0.50774 0.5-0.78125c0.14012-0.26505 0.27614-0.52473 0.375-0.8125 0.01041-0.03078 0.02133-0.06274 0.03125-0.09375 0.09046-0.27808 0.1388-0.5794 0.1875-0.875 0.053-0.318 0.094-0.634 0.094-0.969v-2-68-2c0-3.324-2.676-6-6-6h-72z"/>
  <path id="path3615" style="opacity:.6;fill:url(#radialGradient3619)" d="m12 90c-3.324 0-6-2.676-6-6v-2-68-2c0-0.33472 0.04135-0.6507 0.09375-0.96875 0.0487-0.2956 0.09704-0.59692 0.1875-0.875 0.0099-0.03 0.0209-0.063 0.0313-0.094 0.0989-0.2873 0.2349-0.547 0.375-0.812 0.1446-0.2735 0.3156-0.5356 0.5-0.7812 0.1844-0.2457 0.3738-0.4735 0.5937-0.6876 0.44-0.428 0.943-0.8145 1.5-1.0937 0.2786-0.1396 0.5735-0.2469 0.8748-0.3437-0.256 0.1002-0.4865 0.2362-0.7185 0.375-0.00741 0.0044-0.023866-0.0045-0.03125 0-0.031933 0.0193-0.062293 0.04251-0.09375 0.0625-0.1204 0.0767-0.23102 0.16351-0.34375 0.25-0.10617 0.0808-0.21328 0.16111-0.3125 0.25-0.1779 0.1614-0.3474 0.3453-0.5 0.5312-0.1075 0.1303-0.2183 0.2653-0.3124 0.4063-0.0251 0.0383-0.0385 0.0858-0.0626 0.125-0.0647 0.103-0.1302 0.2045-0.1874 0.3124-0.1011 0.1948-0.2057 0.4158-0.2813 0.625-0.008 0.0219-0.0236 0.0406-0.0313 0.0626-0.0318 0.0919-0.0358 0.1868-0.0624 0.2812-0.0304 0.1066-0.0704 0.203-0.0938 0.3125-0.0729 0.3415-0.125 0.6985-0.125 1.0625v2 68 2c0 2.7818 2.2182 5 5 5h2 68 2c2.7818 0 5-2.2182 5-5v-2-68-2c0-0.364-0.052-0.721-0.125-1.0625-0.044-0.2069-0.088-0.3977-0.156-0.5937-0.008-0.022-0.024-0.0407-0.031-0.0626-0.063-0.1737-0.139-0.3674-0.219-0.5312-0.042-0.0828-0.079-0.17-0.125-0.25-0.055-0.0972-0.127-0.1884-0.188-0.2812-0.094-0.141-0.205-0.276-0.312-0.4063-0.143-0.1745-0.303-0.347-0.469-0.5-0.011-0.0102-0.02-0.0211-0.031-0.0313-0.139-0.1255-0.285-0.2344-0.438-0.3437-0.102-0.0731-0.204-0.1534-0.312-0.2187-0.0074-0.0045-0.02384 0.0044-0.03125 0-0.23204-0.13873-0.46255-0.27478-0.71875-0.375 0.30153 0.0968 0.59646 0.20414 0.875 0.34375 0.55709 0.27922 1.0601 0.66569 1.5 1.0938 0.21997 0.21403 0.40937 0.44186 0.59375 0.6875s0.35541 0.50774 0.5 0.78125c0.14012 0.26505 0.27614 0.52473 0.375 0.8125 0.01041 0.03078 0.02133 0.06274 0.03125 0.09375 0.09046 0.27808 0.1388 0.5794 0.1875 0.875 0.053 0.318 0.094 0.634 0.094 0.969v2 68 2c0 3.324-2.676 6-6 6h-72z"/>
  <rect id="rect2841" style="fill:url(#linearGradient2843)" rx="6" ry="6" height="84" width="84" y="106" x="6"/>
  <rect id="rect3634" style="fill:#f00" rx="4" ry="4" height="76" width="76" y="110" x="10"/>
  <path id="rect3647" style="block-progression:tb;text-indent:0;filter:url(#filter3657);color:#000000;text-transform:none;display:inline" d="m14 9c-2.7527 0-5 2.2473-5 5v68c0 2.7527 2.2473 5 5 5h68c2.7527 0 5-2.2473 5-5v-68c0-2.753-2.247-5-5-5h-68zm0 2h68c1.6793 0 3 1.3207 3 3v68c0 1.6793-1.3207 3-3 3h-68c-1.6793 0-3-1.3207-3-3v-68c0-1.6793 1.3207-3 3-3z" clip-path="url(#clipPath3649)" transform="translate(-110)"/>
  <path id="path3709" style="opacity:0.16" d="m14.089 10c-2.216 0-4 1.784-4 4v68c0 2.216 1.784 4 4 4h68c2.216 0 4-1.784 4-4v-68c0-2.216-1.784-4-4-4h-68zm0 2h68c1.1403 0 2 0.8597 2 2v68c0 1.1403-0.8597 2-2 2h-68c-1.1403 0-2-0.8597-2-2v-68c0-1.1403 0.8597-2 2-2z"/>
  <path id="path3707" style="opacity:0.36" d="m14 10c-2.216 0-4 1.784-4 4v68c0 2.216 1.784 4 4 4h68c2.216 0 4-1.784 4-4v-68c0-2.216-1.784-4-4-4h-68zm0 1h68c1.6738 0 3 1.3262 3 3v68c0 1.6738-1.3262 3-3 3h-68c-1.6738 0-3-1.3262-3-3v-68c0-1.6738 1.3262-3 3-3z"/>
 </g>
 <g id="layer4">
  <rect id="rect2419-9" style="opacity:.6" rx="6" ry="6" height="84" width="84" y="6" x="6"/>
  <path id="rect3728-4" style="opacity:0.01;fill:url(#linearGradient3188)" d="m12 6c-3.324 0-6 2.676-6 6v2 68 2c0 0.33472 0.04135 0.6507 0.09375 0.96875 0.0487 0.2956 0.09704 0.59692 0.1875 0.875 0.00988 0.03038 0.020892 0.0636 0.03125 0.09375 0.098865 0.28777 0.23488 0.54745 0.375 0.8125 0.14459 0.27351 0.31562 0.53562 0.5 0.78125 0.18438 0.24564 0.37378 0.47347 0.59375 0.6875 0.43995 0.42806 0.94291 0.81453 1.5 1.0938 0.27854 0.13961 0.57347 0.24695 0.875 0.34375-0.2562-0.10022-0.48671-0.23627-0.71875-0.375-0.00741-0.0044-0.023866 0.0045-0.03125 0-0.031933-0.0193-0.062293-0.04251-0.09375-0.0625-0.1204-0.0767-0.23102-0.16351-0.34375-0.25-0.10617-0.0808-0.21328-0.16111-0.3125-0.25-0.1778-0.162-0.3473-0.346-0.4999-0.531-0.1075-0.131-0.2183-0.266-0.3124-0.407-0.0251-0.038-0.0385-0.086-0.0626-0.125-0.0647-0.103-0.1302-0.204-0.1874-0.312-0.1011-0.195-0.2057-0.416-0.2813-0.625-0.008-0.022-0.0236-0.041-0.0313-0.063-0.0318-0.092-0.0358-0.187-0.0624-0.281-0.0304-0.107-0.0704-0.203-0.0938-0.313-0.0729-0.341-0.125-0.698-0.125-1.062v-2-68-2c0-2.782 2.2182-5 5-5h2 68 2c2.7818 0 5 2.2182 5 5v2 68 2c0 0.3643-0.05212 0.72099-0.125 1.0625-0.04415 0.20689-0.08838 0.39766-0.15625 0.59375-0.0077 0.02195-0.0233 0.04069-0.03125 0.0625-0.06274 0.17374-0.13838 0.36745-0.21875 0.53125-0.04158 0.0828-0.07904 0.16995-0.125 0.25-0.0546 0.09721-0.12677 0.18835-0.1875 0.28125-0.09411 0.14096-0.20492 0.276-0.3125 0.40625-0.14317 0.17445-0.30314 0.347-0.46875 0.5-0.01117 0.0102-0.01998 0.02115-0.03125 0.03125-0.13839 0.12556-0.28509 0.23444-0.4375 0.34375-0.10257 0.07315-0.20432 0.15336-0.3125 0.21875-0.0074 0.0045-0.02384-0.0044-0.03125 0-0.23204 0.13873-0.46255 0.27478-0.71875 0.375 0.30153-0.0968 0.59646-0.20414 0.875-0.34375 0.55709-0.27922 1.0601-0.66569 1.5-1.0938 0.21997-0.21403 0.40937-0.44186 0.59375-0.6875s0.35541-0.50774 0.5-0.78125c0.14012-0.26505 0.27614-0.52473 0.375-0.8125 0.01041-0.03078 0.02133-0.06274 0.03125-0.09375 0.09046-0.27808 0.1388-0.5794 0.1875-0.875 0.053-0.318 0.094-0.634 0.094-0.969v-2-68-2c0-3.324-2.676-6-6-6h-72z"/>
  <path id="path3615-6" style="opacity:.15;fill:url(#radialGradient3619-3)" d="m12 90c-3.324 0-6-2.676-6-6v-2-68-2c0-0.33472 0.04135-0.6507 0.09375-0.96875 0.0487-0.2956 0.09704-0.59692 0.1875-0.875 0.0099-0.03 0.0209-0.063 0.0313-0.094 0.0989-0.2873 0.2349-0.547 0.375-0.812 0.1446-0.2735 0.3156-0.5356 0.5-0.7812 0.1844-0.2457 0.3738-0.4735 0.5937-0.6876 0.44-0.428 0.943-0.8145 1.5-1.0937 0.2786-0.1396 0.5735-0.2469 0.8748-0.3437-0.256 0.1002-0.4865 0.2362-0.7185 0.375-0.00741 0.0044-0.023866-0.0045-0.03125 0-0.031933 0.0193-0.062293 0.04251-0.09375 0.0625-0.1204 0.0767-0.23102 0.16351-0.34375 0.25-0.10617 0.0808-0.21328 0.16111-0.3125 0.25-0.1779 0.1614-0.3474 0.3453-0.5 0.5312-0.1075 0.1303-0.2183 0.2653-0.3124 0.4063-0.0251 0.0383-0.0385 0.0858-0.0626 0.125-0.0647 0.103-0.1302 0.2045-0.1874 0.3124-0.1011 0.1948-0.2057 0.4158-0.2813 0.625-0.008 0.0219-0.0236 0.0406-0.0313 0.0626-0.0318 0.0919-0.0358 0.1868-0.0624 0.2812-0.0304 0.1066-0.0704 0.203-0.0938 0.3125-0.0729 0.3415-0.125 0.6985-0.125 1.0625v2 68 2c0 2.7818 2.2182 5 5 5h2 68 2c2.7818 0 5-2.2182 5-5v-2-68-2c0-0.364-0.052-0.721-0.125-1.0625-0.044-0.2069-0.088-0.3977-0.156-0.5937-0.008-0.022-0.024-0.0407-0.031-0.0626-0.063-0.1737-0.139-0.3674-0.219-0.5312-0.042-0.0828-0.079-0.17-0.125-0.25-0.055-0.0972-0.127-0.1884-0.188-0.2812-0.094-0.141-0.205-0.276-0.312-0.4063-0.143-0.1745-0.303-0.347-0.469-0.5-0.011-0.0102-0.02-0.0211-0.031-0.0313-0.139-0.1255-0.285-0.2344-0.438-0.3437-0.102-0.0731-0.204-0.1534-0.312-0.2187-0.0074-0.0045-0.02384 0.0044-0.03125 0-0.23204-0.13873-0.46255-0.27478-0.71875-0.375 0.30153 0.0968 0.59646 0.20414 0.875 0.34375 0.55709 0.27922 1.0601 0.66569 1.5 1.0938 0.21997 0.21403 0.40937 0.44186 0.59375 0.6875s0.35541 0.50774 0.5 0.78125c0.14012 0.26505 0.27614 0.52473 0.375 0.8125 0.01041 0.03078 0.02133 0.06274 0.03125 0.09375 0.09046 0.27808 0.1388 0.5794 0.1875 0.875 0.053 0.318 0.094 0.634 0.094 0.969v2 68 2c0 3.324-2.676 6-6 6h-72z"/>
 </g>
 <g id="layer5" style="display:none">
  <rect id="rect3171" style="opacity:.1;filter:url(#filter3794);stroke:#fff;stroke-linecap:round;stroke-width:.5;fill:url(#linearGradient3613)" clip-path="url(#clipPath3613)" rx="12" ry="12" height="66" width="66" y="15" x="15"/>
 </g>
 <g id="layer6">
  <path id="path3949" style="opacity:.1" d="m50.125 30.938c-6.0029-0.02456-11.932 2.1002-16.812 6.0938l-4.6562-4.625v0.03125c0.00058 0.000599-0.02679 0.0043-0.03125 0l0.03125-0.03125c-0.0223-0.02138-0.09685-0.06529-0.09375-0.0625 0.0037 0.0033-0.09769-0.09683-0.09375-0.09375 0.0039 0.0031-0.12914-0.09655-0.125-0.09375 0.0041 0.0028-0.09808-0.06501-0.09375-0.0625 0.0043 0.0025-0.12949-0.06471-0.125-0.0625 0.0045 0.0022-0.12963-0.06439-0.125-0.0625 0.0046 0.0019-0.12975-0.03282-0.125-0.03125 0.0048 0.0016-0.1611-0.06374-0.15625-0.0625 0.0049 0.0012-0.12992-0.03215-0.125-0.03125 0.0049 0.000898-0.12997-0.000556-0.125 0 0.005 0.000556-0.16125-0.03146-0.15625-0.03125 0.005 0.000212-0.13 0.000134-0.125 0s-0.12998 0.03173-0.125 0.03125c0.005-0.000478-0.16119 0.000821-0.15625 0 0.0049-0.000821-0.12987 0.03241-0.125 0.03125 0.0049-0.0012-0.12978 0.03274-0.125 0.03125 0.0048-0.0015-0.12966 0.06432-0.125 0.0625 0.0047-0.0018-0.12953 0.03339-0.125 0.03125 0.0045-0.0021-0.12937 0.06494-0.125 0.0625 0.0044-0.0024-0.12919 0.09649-0.125 0.09375 0.0042-0.0027-0.09774 0.06552-0.09375 0.0625 0.004-0.003-0.12877 0.09704-0.125 0.09375 0.0038-0.0033-0.09729 0.09729-0.09375 0.09375 0.0035-0.0035-0.09703 0.09753-0.09375 0.09375 0.0033-0.0038-0.09677 0.09775-0.09375 0.09375 0.003-0.004-0.06523 0.12919-0.0625 0.125 0.0027-0.0042-0.06494 0.12937-0.0625 0.125 0.0024-0.0044-0.06463 0.12953-0.0625 0.125 0.0021-0.0045-0.06431 0.12967-0.0625 0.125 0.0018-0.0047-0.06398 0.12978-0.0625 0.125 0.0015-0.0048-0.0324 0.12987-0.03125 0.125 0.0012-0.0049-0.03206 0.12994-0.03125 0.125l-4.22 23.156h0.03125c-0.0053 0.03307-0.03169 0.09711-0.03125 0.09375 0.000578-0.0044-0.000309 0.12942 0 0.125 0.000309-0.0044-0.03129 0.12943-0.03125 0.125 0.000039-0.0044 0.000232 0.12942 0 0.125-0.000232-0.0044 0.03175 0.1294 0.03125 0.125-0.000501-0.0044 0.000769 0.09811 0 0.09375-0.000769-0.0044 0.03228 0.12931 0.03125 0.125-0.001-0.0043 0.03254 0.12923 0.03125 0.125-0.0013-0.0042 0.0328 0.12915 0.03125 0.125-0.0016-0.0041 0.0643 0.09779 0.0625 0.09375-0.0018-0.004 0.06454 0.12893 0.0625 0.125-0.002-0.0039 0.03353 0.09754 0.03125 0.09375-0.0023-0.0038 0.09626 0.0974 0.09375 0.09375-0.0025-0.0036 0.06523 0.09724 0.0625 0.09375-0.0027-0.0035 0.06543 0.09707 0.0625 0.09375-0.0029-0.0033 0.09688 0.09688 0.09375 0.09375-0.0031-0.0031 0.09707 0.09668 0.09375 0.09375-0.0033-0.0029 0.09724 0.06523 0.09375 0.0625-0.0035-0.0027 0.0974 0.06501 0.09375 0.0625-0.0036-0.0025 0.09755 0.09603 0.09375 0.09375-0.0038-0.0023 0.09768 0.0333 0.09375 0.03125-0.0039-0.002 0.12904 0.0643 0.125 0.0625-0.004-0.0018 0.0979 0.06405 0.09375 0.0625-0.0041-0.0016 0.12923 0.03254 0.125 0.03125-0.0042-0.0013 0.12931 0.03228 0.125 0.03125-0.0043-0.001 0.12936 0.03202 0.125 0.03125-0.0044-0.000769 0.09815 0.000501 0.09375 0s0.12942 0.03148 0.125 0.03125c-0.0044-0.000232 0.12943-0.000039 0.125 0-0.0044 0.000039 0.12942-0.03156 0.125-0.03125-0.0044 0.000309 0.12939-0.000578 0.125 0-0.0034 0.000442 0.06068-0.02592 0.09375-0.03125v0.03125l23.219-4.2188c-0.0049 0.000813 0.12987-0.0324 0.125-0.03125-0.0049 0.0012 0.12978-0.03274 0.125-0.03125-0.0048 0.0015 0.12967-0.06431 0.125-0.0625-0.0047 0.0018 0.12953-0.06463 0.125-0.0625-0.0045 0.0021 0.12937-0.06494 0.125-0.0625-0.0044 0.0024 0.12919-0.06523 0.125-0.0625-0.0042 0.0027 0.129-0.06551 0.125-0.0625-0.004 0.003 0.09753-0.09703 0.09375-0.09375-0.0038 0.0033 0.09729-0.09729 0.09375-0.09375-0.0035 0.0035 0.09704-0.09752 0.09375-0.09375-0.0033 0.0038 0.09677-0.12899 0.09375-0.125-0.003 0.004 0.06524-0.09794 0.0625-0.09375-0.0027 0.0042 0.09619-0.12937 0.09375-0.125-0.0024 0.0044 0.06464-0.12953 0.0625-0.125-0.0021 0.0045 0.03307-0.12966 0.03125-0.125-0.0018 0.0047 0.06399-0.12978 0.0625-0.125-0.0015 0.0048 0.03241-0.12987 0.03125-0.125-0.0012 0.0049 0.03207-0.12994 0.03125-0.125-0.000821 0.0049 0.000478-0.16123 0-0.15625-0.000478 0.005 0.03138-0.13 0.03125-0.125-0.000134 0.005-0.000212-0.13 0-0.125s-0.03181-0.16122-0.03125-0.15625c0.000556 0.005-0.000898-0.12992 0-0.125 0.000898 0.0049-0.03249-0.12985-0.03125-0.125 0.0012 0.0048-0.06407-0.161-0.0625-0.15625 0.0016 0.0048-0.03314-0.12963-0.03125-0.125 0.0019 0.0046-0.06471-0.12949-0.0625-0.125 0.0022 0.0045-0.06501-0.12933-0.0625-0.125 0.0025 0.0043-0.0653-0.0979-0.0625-0.09375 0.0028 0.0041-0.09683-0.12894-0.09375-0.125 0.0031 0.0039-0.0971-0.09747-0.09375-0.09375 0.0028 0.0031-0.07237-0.0402-0.09375-0.0625l0.03125-0.03125h-0.03125l-4.4375-4.4375c4.8448-3.1762 11.309-2.8635 15.562 1.375 1.3803 1.3753 2.372 2.9872 2.9688 4.7188-0.0022-0.0064 0.06531 0.19371 0.0625 0.1875-0.0028-0.0062 0.09714 0.16217 0.09375 0.15625-0.0034-0.0059 0.09768 0.16182 0.09375 0.15625-0.0039-0.0056 0.12943 0.16143 0.125 0.15625-0.0044-0.0052 0.1299 0.12974 0.125 0.125-0.0049-0.0047 0.13032 0.12926 0.125 0.125-0.0053-0.0043 0.16195 0.12874 0.15625 0.125-0.0057-0.0037 0.16228 0.09694 0.15625 0.09375-0.006-0.0032 0.16255 0.06511 0.15625 0.0625-0.0063-0.0026 0.19402 0.06451 0.1875 0.0625-0.0065-0.002 0.19418 0.06389 0.1875 0.0625-0.0067-0.0014 0.19428 0.032 0.1875 0.03125-0.0068-0.000753 0.19432 0.000113 0.1875 0-0.0068-0.000113 0.1943-0.000527 0.1875 0s0.16297-0.03241 0.15625-0.03125c-0.0067 0.0012 0.19408-0.03304 0.1875-0.03125l9.437-2.531c-0.007 0.0018 0.19429-0.065 0.1875-0.0625-0.0068 0.0025 0.194-0.06567 0.1875-0.0625-0.0065 0.0032 0.1624-0.09755 0.15625-0.09375-0.0062 0.0038 0.162-0.12939 0.15625-0.125-0.0057 0.0044 0.16153-0.12994 0.15625-0.125-0.0053 0.0049 0.16101-0.16169 0.15625-0.15625-0.0048 0.0054 0.09795-0.16214 0.09375-0.15625-0.0042 0.0059 0.12859-0.16253 0.125-0.15625-0.0036 0.0063 0.09669-0.16286 0.09375-0.15625-0.0029 0.0066 0.06477-0.19437 0.0625-0.1875-0.0023 0.0069 0.06408-0.19456 0.0625-0.1875-0.0016 0.0071 0.03212-0.22593 0.03125-0.21875-0.000866 0.0072 0.000147-0.19473 0-0.1875-0.000147 0.0072-0.000574-0.19471 0-0.1875 0.000574 0.0072-0.03254-0.22587-0.03125-0.21875 0.0013 0.0071-0.03324-0.19445-0.03125-0.1875-1.21-3.957-3.404-7.697-6.531-10.812-5.028-5.01-11.657-7.504-18.281-7.531z"/>
  <path id="path3945" style="opacity:.15" d="m50.125 32.031c-6.073-0.025-12.117 2.168-16.937 6.438l-5.313-5.281a0.87956 0.87956 0 0 0 -1.5 0.46875l-4.219 23.155a0.87956 0.87956 0 0 0 1.0312 1.0312l23.219-4.218a0.87956 0.87956 0 0 0 0.46875 -1.5l-5.5-5.4688c5.3349-4.3423 13.188-4.1062 18.156 0.84375 1.5037 1.4983 2.5706 3.2754 3.2188 5.1562a0.87956 0.87956 0 0 0 1.0625 0.5625l9.438-2.53a0.87956 0.87956 0 0 0 0.625 -1.0938c-1.158-3.788-3.252-7.357-6.25-10.344-4.817-4.799-11.148-7.193-17.5-7.219z"/>
  <path id="path3939" style="opacity:.3" d="m27.251 33.825-4.2239 23.131 23.215-4.2086-6.1951-6.1727c5.664-5.3011 14.569-5.1913 20.095 0.31424 1.6026 1.5968 2.7568 3.4748 3.4467 5.4768l9.4391-2.514c-1.118-3.652-3.121-7.103-6.016-9.988-9.296-9.262-24.435-9.239-33.927-0.225l-5.8346-5.8135z"/>
  <rect id="rect3897" style="color:#000000;fill:url(#linearGradient3905)" transform="matrix(0,1,1,0,0,0)" height="16" width="16" y="104" x="0"/>
  <text id="text3907" y="48" x="104" xml:space="preserve" style="font-size:4px;letter-spacing:0px;word-spacing:0px;font-family:Liberation Sans;line-height:125%;fill:#000000"><tspan id="tspan3909" y="48" x="104">Shadow opacity : 30, 15, 10, (8)</tspan></text>
  <rect id="rect3911" style="color:#000000;fill:url(#linearGradient3913)" transform="rotate(-90)" height="16" width="16" y="104" x="-40"/>
  <text id="text3951" y="32" x="124" xml:space="preserve" style="font-size:4px;letter-spacing:0px;word-spacing:0px;font-family:Liberation Sans;line-height:125%;fill:#000000"><tspan id="tspan3953" y="32" x="124">Bevel opacity : 30 / 10</tspan></text>
  <text id="text3955" y="8" x="124" xml:space="preserve" style="font-size:4px;letter-spacing:0px;word-spacing:0px;font-family:Liberation Sans;line-height:125%;fill:#000000"><tspan id="tspan3957" y="8" x="124">Bevel opacity : 75 / 15</tspan></text>
  <path id="path3917" style="fill:url(#linearGradient3919)" d="m27.251 32.825-4.2239 23.131 23.215-4.2086-6.1951-6.1727c5.664-5.3011 14.569-5.1913 20.095 0.31424 1.6026 1.5968 2.7568 3.4748 3.4467 5.4768l9.4391-2.514c-1.118-3.652-3.121-7.103-6.016-9.988-9.296-9.262-24.435-9.239-33.927-0.225l-5.8346-5.8135z"/>
  <path id="path3921" style="opacity:.75;fill:#fff" d="m48.969 31.906c-5.7474 0.24406-11.426 2.4934-15.875 6.7188l-5.844-5.813-4.219 23.157 0.188-0.031 4.031-22.126 5.844 5.813c9.492-9.014 24.61-9.012 33.906 0.25 2.6519 2.6423 4.5594 5.7513 5.7188 9.0625l0.3125-0.09375c-1.117-3.652-3.136-7.084-6.032-9.969-4.938-4.921-11.517-7.245-18.031-6.969zm-8.375 14.219c-0.18056 0.15313-0.3879 0.27409-0.5625 0.4375l5.375 5.3438 0.843-0.156-5.656-5.625z"/>
  <path id="path3930" style="opacity:.15" d="m50.156 40.688c-3.625-0.053-7.293 1.2245-10.125 3.875l0.5625 0.5625c5.677-4.8144 14.207-4.5858 19.562 0.75 1.6026 1.5968 2.7476 3.4979 3.4375 5.5l9.4375-2.5312c-0.09402-0.30748-0.20591-0.60183-0.3125-0.90625l-9.125 2.4375c-0.68995-2.0021-1.8349-3.9032-3.4375-5.5-2.7628-2.7528-6.375-4.1345-10-4.1875zm-4.75 10.219-22.188 4.0312-0.1875 1.0312l23.22-4.219-0.844-0.844z"/>
 </g>
</svg>
