<?xml version="1.0" encoding="UTF-8" standalone="no"?>
<!-- Created with Inkscape (http://www.inkscape.org/) -->
<svg id="svg2408" xmlns:rdf="http://www.w3.org/1999/02/22-rdf-syntax-ns#" xmlns="http://www.w3.org/2000/svg" height="96" width="96" version="1.0" xmlns:cc="http://creativecommons.org/ns#" xmlns:xlink="http://www.w3.org/1999/xlink" xmlns:dc="http://purl.org/dc/elements/1.1/">
 <defs id="defs2410">
  <linearGradient id="linearGradient3637">
   <stop id="stop3639" style="stop-color:#f0f0f0" offset="0"/>
   <stop id="stop3641" style="stop-color:#aaa" offset="1"/>
  </linearGradient>
  <linearGradient id="ButtonShadow" y2="7.0165" gradientUnits="userSpaceOnUse" x2="45.448" gradientTransform="scale(1.0059 .99417)" y1="92.54" x1="45.448">
   <stop id="stop3750" offset="0"/>
   <stop id="stop3752" style="stop-opacity:.58824" offset="1"/>
  </linearGradient>
  <linearGradient id="linearGradient3737">
   <stop id="stop3739" style="stop-color:#fff" offset="0"/>
   <stop id="stop3741" style="stop-color:#fff;stop-opacity:0" offset="1"/>
  </linearGradient>
  <filter id="filter3174" color-interpolation-filters="sRGB">
   <feGaussianBlur id="feGaussianBlur3176" stdDeviation="1.71"/>
  </filter>
  <linearGradient id="linearGradient3188" y2="63.893" xlink:href="#linearGradient3737" gradientUnits="userSpaceOnUse" x2="36.357" y1="6" x1="36.357"/>
  <filter id="filter3794" height="1.384" width="1.384" color-interpolation-filters="sRGB" y="-.192" x="-.192">
   <feGaussianBlur id="feGaussianBlur3796" stdDeviation="5.28"/>
  </filter>
  <linearGradient id="linearGradient3613" y2="138.66" xlink:href="#linearGradient3737" gradientUnits="userSpaceOnUse" x2="48" y1="20.221" x1="48"/>
  <radialGradient id="radialGradient3619" xlink:href="#linearGradient3737" gradientUnits="userSpaceOnUse" cy="90.172" cx="48" gradientTransform="matrix(1.1573 0 0 .99591 -7.551 .19713)" r="42"/>
  <clipPath id="clipPath3613">
   <rect id="rect3615" style="fill:#fff" rx="6" ry="6" height="84" width="84" y="6" x="6"/>
  </clipPath>
  <linearGradient id="linearGradient2843" y2="5.9877" gradientUnits="userSpaceOnUse" x2="48" gradientTransform="translate(0,100)" y1="90" x1="48">
   <stop id="stop3702" style="stop-color:#2276c5" offset="0"/>
   <stop id="stop3704" style="stop-color:#68baf4" offset="1"/>
  </linearGradient>
  <clipPath id="clipPath3625">
   <path id="path3627" style="fill:#fff" d="m0 0v96h96v-96h-96zm12 6h72c3.324 0 6 2.676 6 6v72c0 3.324-2.676 6-6 6h-72c-3.324 0-6-2.676-6-6v-72c0-3.324 2.676-6 6-6z"/>
  </clipPath>
  <linearGradient id="linearGradient3643" y2="90.015" xlink:href="#linearGradient3637" gradientUnits="userSpaceOnUse" x2="44.512" y1="6" x1="44.512"/>
  <clipPath id="clipPath3649">
   <rect id="rect3651" style="fill:#fff" rx="4" ry="4" height="76" width="76" y="10" x="10"/>
  </clipPath>
  <filter id="filter3657" color-interpolation-filters="sRGB">
   <feGaussianBlur id="feGaussianBlur3659" stdDeviation="1.14"/>
  </filter>
  <linearGradient id="ButtonShadow-0" y2="7.0165" gradientUnits="userSpaceOnUse" x2="45.448" gradientTransform="matrix(1.0059 0 0 .99417 100 0)" y1="92.54" x1="45.448">
   <stop id="stop3750-8" offset="0"/>
   <stop id="stop3752-5" style="stop-opacity:.58824" offset="1"/>
  </linearGradient>
  <linearGradient id="linearGradient3780" y2="90.239" xlink:href="#ButtonShadow-0" gradientUnits="userSpaceOnUse" x2="32.251" gradientTransform="matrix(1.0238 0 0 -1.0119 -1.1429 98.071)" y1="6.1317" x1="32.251"/>
  <linearGradient id="linearGradient3721" y2="90.239" xlink:href="#ButtonShadow-0" gradientUnits="userSpaceOnUse" x2="32.251" gradientTransform="matrix(1,0,0,-1,0,97)" y1="6.1317" x1="32.251"/>
  <radialGradient id="radialGradient3619-3" xlink:href="#linearGradient3737" gradientUnits="userSpaceOnUse" cy="90.172" cx="48" gradientTransform="matrix(1.1573 0 0 .99591 -7.551 .19713)" r="42"/>
  <linearGradient id="linearGradient3905" y2="8" xlink:href="#linearGradient3637" gradientUnits="userSpaceOnUse" x2="120" gradientTransform="translate(-104,104)" y1="8" x1="104"/>
  <linearGradient id="linearGradient3913" y2="8" gradientUnits="userSpaceOnUse" x2="120" gradientTransform="translate(-144,104)" y1="8" x1="104">
   <stop id="stop3185-9" style="stop-color:#c80000" offset="0"/>
   <stop id="stop3187-6" style="stop-color:#f3604d" offset="1"/>
  </linearGradient>
  <linearGradient id="linearGradient3699" y2="9" gradientUnits="userSpaceOnUse" x2="15" gradientTransform="matrix(0,2.7,-2.7,0,72.4,10.2)" y1="9" x1="7">
   <stop id="stop3695" style="stop-color:#fff" offset="0"/>
   <stop id="stop3697" style="stop-color:#fff;stop-opacity:0" offset="1"/>
  </linearGradient>
  <linearGradient id="linearGradient3676" y2="10" xlink:href="#linearGradient3737" gradientUnits="userSpaceOnUse" x2="18" gradientTransform="matrix(0,2.7,-2.7,0,75.1,12.9)" y1="10" x1="4"/>
  <linearGradient id="linearGradient3856" y2="21.036" xlink:href="#linearGradient3637" gradientUnits="userSpaceOnUse" x2="10" gradientTransform="matrix(2.7,0,0,2.7,18.4,18.3)" y1="7" x1="10"/>
  <linearGradient id="linearGradient3089" y2="11" xlink:href="#linearGradient3737" gradientUnits="userSpaceOnUse" x2="21" gradientTransform="matrix(0,2.7,-2.7,0,77.8,15.6)" y1="11" x1="1"/>
 </defs>
 <metadata id="metadata2413">
  <rdf:RDF>
   <cc:Work rdf:about="">
    <dc:format>image/svg+xml</dc:format>
    <dc:type rdf:resource="http://purl.org/dc/dcmitype/StillImage"/>
    <dc:title/>
   </cc:Work>
  </rdf:RDF>
 </metadata>
 <g id="layer2" style="display:none">
  <rect id="rect3745" style="opacity:.9;filter:url(#filter3174);fill:url(#ButtonShadow)" clip-path="url(#clipPath3625)" rx="6" ry="6" height="85" width="86" y="7" x="5"/>
 </g>
 <g id="layer3">
  <path id="path3786" style="opacity:0.08;fill:url(#linearGradient3780)" d="m12 3.9688c-5.5111 0-10.031 4.5201-10.031 10.031v71c0 5.5111 4.5202 10.031 10.031 10.031h72c5.5111 0 10.031-4.5202 10.031-10.031v-71c0-5.5111-4.52-10.031-10.031-10.031h-72zm0 2.0312h72c3.324 0 6 2.676 6 6v72c0 3.324-2.676 6-6 6h-72c-3.324 0-6-2.676-6-6v-72c0-3.324 2.676-6 6-6z"/>
  <path id="path3778" style="opacity:.1;fill:url(#linearGradient3780)" d="m12 4.9688c-4.9716 0-9.0312 4.0596-9.0312 9.0312v71c0 4.9716 4.0596 9.0312 9.0312 9.0312h72c4.9716 0 9.0312-4.0596 9.0312-9.0312v-71c0-4.9716-4.059-9.0312-9.031-9.0312h-72zm0 1.0312h72c3.324 0 6 2.676 6 6v72c0 3.324-2.676 6-6 6h-72c-3.324 0-6-2.676-6-6v-72c0-3.324 2.676-6 6-6z"/>
  <path id="path3770" style="opacity:.2;fill:url(#linearGradient3780)" d="m11.188 6.0312c-4.028 0.4107-7.188 3.8352-7.188 7.9688v71c0 4.4091 3.5909 8 8 8h72c4.4091 0 8-3.5909 8-8v-71c0-4.1971-3.259-7.646-7.375-7.9688 3.033 0.3062 5.375 2.8526 5.375 5.9688v72c0 3.324-2.676 6-6 6h-72c-3.324 0-6-2.676-6-6v-72c0-3.1162 2.3421-5.6626 5.375-5.9688-0.06227 0.00488-0.12563-0.00631-0.1875 0z"/>
  <path id="rect3723" style="opacity:.3;fill:url(#linearGradient3780)" d="m6.4375 9.75c-0.8995 1.177-1.4375 2.647-1.4375 4.25v71c0 3.878 3.122 7 7 7h72c3.878 0 7-3.122 7-7v-71c0-1.603-0.538-3.073-1.438-4.25 0.28 0.694 0.438 1.454 0.438 2.25v72c0 3.324-2.676 6-6 6h-72c-3.324 0-6-2.676-6-6v-72c0-0.796 0.1582-1.556 0.4375-2.25z"/>
  <path id="rect3716" style="opacity:.45;fill:url(#linearGradient3721)" d="m6 84v1c0 3.324 2.676 6 6 6h72c3.324 0 6-2.676 6-6v-1c0 3.324-2.676 6-6 6h-72c-3.324 0-6-2.676-6-6z"/>
 </g>
 <g id="layer1" style="display:none">
  <rect id="rect2419" style="opacity:.8" rx="6" ry="6" height="84" width="84" y="6" x="6"/>
  <path id="rect3726" style="opacity:0.08" d="m14 10c-2.216 0-4 1.784-4 4v68c0 2.216 1.784 4 4 4h68c2.216 0 4-1.784 4-4v-68c0-2.216-1.784-4-4-4h-68zm0 3.0625h68c0.57877 0 0.9375 0.35873 0.9375 0.9375v68c0 0.57877-0.35873 0.9375-0.9375 0.9375h-68c-0.57877 0-0.9375-0.35873-0.9375-0.9375v-68c0-0.57877 0.35873-0.9375 0.9375-0.9375z"/>
  <path id="rect3629" style="fill:url(#linearGradient3643)" d="m12 6c-3.324 0-6 2.676-6 6v72c0 3.324 2.676 6 6 6h72c3.324 0 6-2.676 6-6v-72c0-3.324-2.676-6-6-6h-72zm2 4h68c2.216 0 4 1.784 4 4v68c0 2.216-1.784 4-4 4h-68c-2.216 0-4-1.784-4-4v-68c0-2.216 1.784-4 4-4z"/>
  <path id="rect3728" style="fill:url(#linearGradient3188)" d="m12 6c-3.324 0-6 2.676-6 6v2 68 2c0 0.33472 0.04135 0.6507 0.09375 0.96875 0.0487 0.2956 0.09704 0.59692 0.1875 0.875 0.00988 0.03038 0.020892 0.0636 0.03125 0.09375 0.098865 0.28777 0.23488 0.54745 0.375 0.8125 0.14459 0.27351 0.31562 0.53562 0.5 0.78125 0.18438 0.24564 0.37378 0.47347 0.59375 0.6875 0.43995 0.42806 0.94291 0.81453 1.5 1.0938 0.27854 0.13961 0.57347 0.24695 0.875 0.34375-0.2562-0.10022-0.48671-0.23627-0.71875-0.375-0.00741-0.0044-0.023866 0.0045-0.03125 0-0.031933-0.0193-0.062293-0.04251-0.09375-0.0625-0.1204-0.0767-0.23102-0.16351-0.34375-0.25-0.10617-0.0808-0.21328-0.16111-0.3125-0.25-0.1778-0.162-0.3473-0.346-0.4999-0.531-0.1075-0.131-0.2183-0.266-0.3124-0.407-0.0251-0.038-0.0385-0.086-0.0626-0.125-0.0647-0.103-0.1302-0.204-0.1874-0.312-0.1011-0.195-0.2057-0.416-0.2813-0.625-0.008-0.022-0.0236-0.041-0.0313-0.063-0.0318-0.092-0.0358-0.187-0.0624-0.281-0.0304-0.107-0.0704-0.203-0.0938-0.313-0.0729-0.341-0.125-0.698-0.125-1.062v-2-68-2c0-2.782 2.2182-5 5-5h2 68 2c2.7818 0 5 2.2182 5 5v2 68 2c0 0.3643-0.05212 0.72099-0.125 1.0625-0.04415 0.20689-0.08838 0.39766-0.15625 0.59375-0.0077 0.02195-0.0233 0.04069-0.03125 0.0625-0.06274 0.17374-0.13838 0.36745-0.21875 0.53125-0.04158 0.0828-0.07904 0.16995-0.125 0.25-0.0546 0.09721-0.12677 0.18835-0.1875 0.28125-0.09411 0.14096-0.20492 0.276-0.3125 0.40625-0.14317 0.17445-0.30314 0.347-0.46875 0.5-0.01117 0.0102-0.01998 0.02115-0.03125 0.03125-0.13839 0.12556-0.28509 0.23444-0.4375 0.34375-0.10257 0.07315-0.20432 0.15336-0.3125 0.21875-0.0074 0.0045-0.02384-0.0044-0.03125 0-0.23204 0.13873-0.46255 0.27478-0.71875 0.375 0.30153-0.0968 0.59646-0.20414 0.875-0.34375 0.55709-0.27922 1.0601-0.66569 1.5-1.0938 0.21997-0.21403 0.40937-0.44186 0.59375-0.6875s0.35541-0.50774 0.5-0.78125c0.14012-0.26505 0.27614-0.52473 0.375-0.8125 0.01041-0.03078 0.02133-0.06274 0.03125-0.09375 0.09046-0.27808 0.1388-0.5794 0.1875-0.875 0.053-0.318 0.094-0.634 0.094-0.969v-2-68-2c0-3.324-2.676-6-6-6h-72z"/>
  <path id="path3615" style="opacity:.6;fill:url(#radialGradient3619)" d="m12 90c-3.324 0-6-2.676-6-6v-2-68-2c0-0.33472 0.04135-0.6507 0.09375-0.96875 0.0487-0.2956 0.09704-0.59692 0.1875-0.875 0.0099-0.03 0.0209-0.063 0.0313-0.094 0.0989-0.2873 0.2349-0.547 0.375-0.812 0.1446-0.2735 0.3156-0.5356 0.5-0.7812 0.1844-0.2457 0.3738-0.4735 0.5937-0.6876 0.44-0.428 0.943-0.8145 1.5-1.0937 0.2786-0.1396 0.5735-0.2469 0.8748-0.3437-0.256 0.1002-0.4865 0.2362-0.7185 0.375-0.00741 0.0044-0.023866-0.0045-0.03125 0-0.031933 0.0193-0.062293 0.04251-0.09375 0.0625-0.1204 0.0767-0.23102 0.16351-0.34375 0.25-0.10617 0.0808-0.21328 0.16111-0.3125 0.25-0.1779 0.1614-0.3474 0.3453-0.5 0.5312-0.1075 0.1303-0.2183 0.2653-0.3124 0.4063-0.0251 0.0383-0.0385 0.0858-0.0626 0.125-0.0647 0.103-0.1302 0.2045-0.1874 0.3124-0.1011 0.1948-0.2057 0.4158-0.2813 0.625-0.008 0.0219-0.0236 0.0406-0.0313 0.0626-0.0318 0.0919-0.0358 0.1868-0.0624 0.2812-0.0304 0.1066-0.0704 0.203-0.0938 0.3125-0.0729 0.3415-0.125 0.6985-0.125 1.0625v2 68 2c0 2.7818 2.2182 5 5 5h2 68 2c2.7818 0 5-2.2182 5-5v-2-68-2c0-0.364-0.052-0.721-0.125-1.0625-0.044-0.2069-0.088-0.3977-0.156-0.5937-0.008-0.022-0.024-0.0407-0.031-0.0626-0.063-0.1737-0.139-0.3674-0.219-0.5312-0.042-0.0828-0.079-0.17-0.125-0.25-0.055-0.0972-0.127-0.1884-0.188-0.2812-0.094-0.141-0.205-0.276-0.312-0.4063-0.143-0.1745-0.303-0.347-0.469-0.5-0.011-0.0102-0.02-0.0211-0.031-0.0313-0.139-0.1255-0.285-0.2344-0.438-0.3437-0.102-0.0731-0.204-0.1534-0.312-0.2187-0.0074-0.0045-0.02384 0.0044-0.03125 0-0.23204-0.13873-0.46255-0.27478-0.71875-0.375 0.30153 0.0968 0.59646 0.20414 0.875 0.34375 0.55709 0.27922 1.0601 0.66569 1.5 1.0938 0.21997 0.21403 0.40937 0.44186 0.59375 0.6875s0.35541 0.50774 0.5 0.78125c0.14012 0.26505 0.27614 0.52473 0.375 0.8125 0.01041 0.03078 0.02133 0.06274 0.03125 0.09375 0.09046 0.27808 0.1388 0.5794 0.1875 0.875 0.053 0.318 0.094 0.634 0.094 0.969v2 68 2c0 3.324-2.676 6-6 6h-72z"/>
  <rect id="rect2841" style="fill:url(#linearGradient2843)" rx="6" ry="6" height="84" width="84" y="106" x="6"/>
  <rect id="rect3634" style="fill:#f00" rx="4" ry="4" height="76" width="76" y="110" x="10"/>
  <path id="rect3647" style="block-progression:tb;text-indent:0;filter:url(#filter3657);color:#000000;text-transform:none;display:inline" d="m14 9c-2.7527 0-5 2.2473-5 5v68c0 2.7527 2.2473 5 5 5h68c2.7527 0 5-2.2473 5-5v-68c0-2.753-2.247-5-5-5h-68zm0 2h68c1.6793 0 3 1.3207 3 3v68c0 1.6793-1.3207 3-3 3h-68c-1.6793 0-3-1.3207-3-3v-68c0-1.6793 1.3207-3 3-3z" clip-path="url(#clipPath3649)" transform="translate(-110)"/>
  <path id="path3709" style="opacity:0.16" d="m14.089 10c-2.216 0-4 1.784-4 4v68c0 2.216 1.784 4 4 4h68c2.216 0 4-1.784 4-4v-68c0-2.216-1.784-4-4-4h-68zm0 2h68c1.1403 0 2 0.8597 2 2v68c0 1.1403-0.8597 2-2 2h-68c-1.1403 0-2-0.8597-2-2v-68c0-1.1403 0.8597-2 2-2z"/>
  <path id="path3707" style="opacity:0.36" d="m14 10c-2.216 0-4 1.784-4 4v68c0 2.216 1.784 4 4 4h68c2.216 0 4-1.784 4-4v-68c0-2.216-1.784-4-4-4h-68zm0 1h68c1.6738 0 3 1.3262 3 3v68c0 1.6738-1.3262 3-3 3h-68c-1.6738 0-3-1.3262-3-3v-68c0-1.6738 1.3262-3 3-3z"/>
 </g>
 <g id="layer4">
  <rect id="rect2419-9" style="opacity:.6" rx="6" ry="6" height="84" width="84" y="6" x="6"/>
  <path id="rect3728-4" style="opacity:0.01;fill:url(#linearGradient3188)" d="m12 6c-3.324 0-6 2.676-6 6v2 68 2c0 0.33472 0.04135 0.6507 0.09375 0.96875 0.0487 0.2956 0.09704 0.59692 0.1875 0.875 0.00988 0.03038 0.020892 0.0636 0.03125 0.09375 0.098865 0.28777 0.23488 0.54745 0.375 0.8125 0.14459 0.27351 0.31562 0.53562 0.5 0.78125 0.18438 0.24564 0.37378 0.47347 0.59375 0.6875 0.43995 0.42806 0.94291 0.81453 1.5 1.0938 0.27854 0.13961 0.57347 0.24695 0.875 0.34375-0.2562-0.10022-0.48671-0.23627-0.71875-0.375-0.00741-0.0044-0.023866 0.0045-0.03125 0-0.031933-0.0193-0.062293-0.04251-0.09375-0.0625-0.1204-0.0767-0.23102-0.16351-0.34375-0.25-0.10617-0.0808-0.21328-0.16111-0.3125-0.25-0.1778-0.162-0.3473-0.346-0.4999-0.531-0.1075-0.131-0.2183-0.266-0.3124-0.407-0.0251-0.038-0.0385-0.086-0.0626-0.125-0.0647-0.103-0.1302-0.204-0.1874-0.312-0.1011-0.195-0.2057-0.416-0.2813-0.625-0.008-0.022-0.0236-0.041-0.0313-0.063-0.0318-0.092-0.0358-0.187-0.0624-0.281-0.0304-0.107-0.0704-0.203-0.0938-0.313-0.0729-0.341-0.125-0.698-0.125-1.062v-2-68-2c0-2.782 2.2182-5 5-5h2 68 2c2.7818 0 5 2.2182 5 5v2 68 2c0 0.3643-0.05212 0.72099-0.125 1.0625-0.04415 0.20689-0.08838 0.39766-0.15625 0.59375-0.0077 0.02195-0.0233 0.04069-0.03125 0.0625-0.06274 0.17374-0.13838 0.36745-0.21875 0.53125-0.04158 0.0828-0.07904 0.16995-0.125 0.25-0.0546 0.09721-0.12677 0.18835-0.1875 0.28125-0.09411 0.14096-0.20492 0.276-0.3125 0.40625-0.14317 0.17445-0.30314 0.347-0.46875 0.5-0.01117 0.0102-0.01998 0.02115-0.03125 0.03125-0.13839 0.12556-0.28509 0.23444-0.4375 0.34375-0.10257 0.07315-0.20432 0.15336-0.3125 0.21875-0.0074 0.0045-0.02384-0.0044-0.03125 0-0.23204 0.13873-0.46255 0.27478-0.71875 0.375 0.30153-0.0968 0.59646-0.20414 0.875-0.34375 0.55709-0.27922 1.0601-0.66569 1.5-1.0938 0.21997-0.21403 0.40937-0.44186 0.59375-0.6875s0.35541-0.50774 0.5-0.78125c0.14012-0.26505 0.27614-0.52473 0.375-0.8125 0.01041-0.03078 0.02133-0.06274 0.03125-0.09375 0.09046-0.27808 0.1388-0.5794 0.1875-0.875 0.053-0.318 0.094-0.634 0.094-0.969v-2-68-2c0-3.324-2.676-6-6-6h-72z"/>
  <path id="path3615-6" style="opacity:.15;fill:url(#radialGradient3619-3)" d="m12 90c-3.324 0-6-2.676-6-6v-2-68-2c0-0.33472 0.04135-0.6507 0.09375-0.96875 0.0487-0.2956 0.09704-0.59692 0.1875-0.875 0.0099-0.03 0.0209-0.063 0.0313-0.094 0.0989-0.2873 0.2349-0.547 0.375-0.812 0.1446-0.2735 0.3156-0.5356 0.5-0.7812 0.1844-0.2457 0.3738-0.4735 0.5937-0.6876 0.44-0.428 0.943-0.8145 1.5-1.0937 0.2786-0.1396 0.5735-0.2469 0.8748-0.3437-0.256 0.1002-0.4865 0.2362-0.7185 0.375-0.00741 0.0044-0.023866-0.0045-0.03125 0-0.031933 0.0193-0.062293 0.04251-0.09375 0.0625-0.1204 0.0767-0.23102 0.16351-0.34375 0.25-0.10617 0.0808-0.21328 0.16111-0.3125 0.25-0.1779 0.1614-0.3474 0.3453-0.5 0.5312-0.1075 0.1303-0.2183 0.2653-0.3124 0.4063-0.0251 0.0383-0.0385 0.0858-0.0626 0.125-0.0647 0.103-0.1302 0.2045-0.1874 0.3124-0.1011 0.1948-0.2057 0.4158-0.2813 0.625-0.008 0.0219-0.0236 0.0406-0.0313 0.0626-0.0318 0.0919-0.0358 0.1868-0.0624 0.2812-0.0304 0.1066-0.0704 0.203-0.0938 0.3125-0.0729 0.3415-0.125 0.6985-0.125 1.0625v2 68 2c0 2.7818 2.2182 5 5 5h2 68 2c2.7818 0 5-2.2182 5-5v-2-68-2c0-0.364-0.052-0.721-0.125-1.0625-0.044-0.2069-0.088-0.3977-0.156-0.5937-0.008-0.022-0.024-0.0407-0.031-0.0626-0.063-0.1737-0.139-0.3674-0.219-0.5312-0.042-0.0828-0.079-0.17-0.125-0.25-0.055-0.0972-0.127-0.1884-0.188-0.2812-0.094-0.141-0.205-0.276-0.312-0.4063-0.143-0.1745-0.303-0.347-0.469-0.5-0.011-0.0102-0.02-0.0211-0.031-0.0313-0.139-0.1255-0.285-0.2344-0.438-0.3437-0.102-0.0731-0.204-0.1534-0.312-0.2187-0.0074-0.0045-0.02384 0.0044-0.03125 0-0.23204-0.13873-0.46255-0.27478-0.71875-0.375 0.30153 0.0968 0.59646 0.20414 0.875 0.34375 0.55709 0.27922 1.0601 0.66569 1.5 1.0938 0.21997 0.21403 0.40937 0.44186 0.59375 0.6875s0.35541 0.50774 0.5 0.78125c0.14012 0.26505 0.27614 0.52473 0.375 0.8125 0.01041 0.03078 0.02133 0.06274 0.03125 0.09375 0.09046 0.27808 0.1388 0.5794 0.1875 0.875 0.053 0.318 0.094 0.634 0.094 0.969v2 68 2c0 3.324-2.676 6-6 6h-72z"/>
 </g>
 <g id="layer5" style="display:none">
  <rect id="rect3171" style="opacity:.1;filter:url(#filter3794);stroke:#fff;stroke-linecap:round;stroke-width:.5;fill:url(#linearGradient3613)" clip-path="url(#clipPath3613)" rx="12" ry="12" height="66" width="66" y="15" x="15"/>
 </g>
 <g id="layer6">
  <path id="path3936" style="opacity:.1;color:#000000" d="m48.094 34.969c-3.2612 0-5.9062 2.6925-5.9062 5.9375 0 0.85757 0.32496 1.5321 0.625 2.1875l-10 32.344c0.000078-0.000237-0.03131 0.09399-0.03125 0.09375 0.000064-0.000241-0.000049 0.09399 0 0.09375 0.000049-0.000244-0.03128 0.12525-0.03125 0.125 0.000035-0.000247-0.00002 0.094 0 0.09375 0.00002-0.000248-0.03126 0.12525-0.03125 0.125 0.000006-0.000249 0.000009 0.094 0 0.09375-0.000009-0.000249 0.03127 0.12525 0.03125 0.125-0.000023-0.000248 0.000038 0.094 0 0.09375-0.000038-0.000246 0.0313 0.12524 0.03125 0.125-0.000052-0.000244 0.03132 0.09399 0.03125 0.09375-0.000066-0.00024 0.03133 0.12524 0.03125 0.125-0.00008-0.000236 0.03134 0.09398 0.03125 0.09375-0.000094-0.000231 0.03136 0.09398 0.03125 0.09375-0.000108-0.000225 0.06262 0.09397 0.0625 0.09375-0.000121-0.000218 0.06263 0.09396 0.0625 0.09375-0.000133-0.000211 0.06265 0.09395 0.0625 0.09375-0.000145-0.000202 0.06266 0.09394 0.0625 0.09375-0.000157-0.000193 0.06267 0.09393 0.0625 0.09375-0.000168-0.000184 0.06268 0.06267 0.0625 0.0625-0.000178-0.000174 0.09394 0.09391 0.09375 0.09375-0.000188-0.000163 0.09395 0.06265 0.09375 0.0625-0.000198-0.000152 0.09396 0.06264 0.09375 0.0625-0.000206-0.00014 0.09396 0.06263 0.09375 0.0625-0.000214-0.000127 0.09397 0.03136 0.09375 0.03125-0.000221-0.000115 0.09398 0.0626 0.09375 0.0625-0.000227-0.000101 0.09398 0.03134 0.09375 0.03125-0.000233-0.000088 0.09399 0.03132 0.09375 0.03125-0.000238-0.000074 0.12524 0.03131 0.125 0.03125-0.000242-0.00006 0.09399 0.0313 0.09375 0.03125-0.000245-0.000046 0.12525 0.03128 0.125 0.03125-0.000247-0.000031 0.094 0.000017 0.09375 0-0.000249-0.000017 0.12525 0.000002 0.125 0h5.4062c-0.000349-0.000003 0.1566-0.000025 0.15625 0-0.000348 0.000025 0.1566-0.0313 0.15625-0.03125-0.000345 0.000054 0.12534-0.03133 0.125-0.03125-0.000339 0.000082 0.15658-0.03136 0.15625-0.03125-0.000332 0.00011 0.15657-0.06264 0.15625-0.0625-0.000321 0.000137 0.12531-0.06266 0.125-0.0625-0.000309 0.000163 0.1253-0.06269 0.125-0.0625-0.000295 0.000187 0.12528-0.09396 0.125-0.09375-0.000278 0.000211 0.12526-0.09398 0.125-0.09375-0.00026 0.000233 0.12524-0.12525 0.125-0.125-0.00024 0.000254 0.09397-0.09402 0.09375-0.09375-0.000218 0.000273 0.09394-0.12529 0.09375-0.125-0.000195 0.00029 0.09392-0.15656 0.09375-0.15625-0.00017 0.000305 0.06265-0.12532 0.0625-0.125-0.000145 0.000318 0.06262-0.12533 0.0625-0.125-0.000118 0.000329 0.03134-0.15659 0.03125-0.15625l0.375-1.3125h11.812l0.375 1.3125c-0.000091-0.000337 0.03137 0.15658 0.03125 0.15625-0.000118-0.000329 0.06265 0.12532 0.0625 0.125-0.000145-0.000318 0.06267 0.1253 0.0625 0.125-0.00017-0.000305 0.09394 0.15654 0.09375 0.15625-0.000195-0.00029 0.09397 0.12527 0.09375 0.125-0.000218-0.000273 0.09399 0.094 0.09375 0.09375-0.00024-0.000254 0.12526 0.12523 0.125 0.125-0.00026-0.000233 0.12528 0.09396 0.125 0.09375-0.000278-0.000211 0.1253 0.09394 0.125 0.09375-0.000295-0.000187 0.12531 0.06266 0.125 0.0625-0.000309-0.000163 0.12532 0.06264 0.125 0.0625-0.000321-0.000137 0.15658 0.06261 0.15625 0.0625-0.000332-0.00011 0.15659 0.03133 0.15625 0.03125-0.000339-0.000082 0.12534 0.0313 0.125 0.03125-0.000345-0.000054 0.1566 0.03127 0.15625 0.03125-0.000348-0.000025 0.1566-0.000003 0.15625 0h5.4062c-0.000249 0.000002 0.12525-0.000017 0.125 0-0.000249 0.000017 0.094-0.000031 0.09375 0-0.000247 0.000031 0.12524-0.0313 0.125-0.03125-0.000245 0.000046 0.09399-0.03131 0.09375-0.03125-0.000242 0.00006 0.12524-0.03132 0.125-0.03125-0.000238 0.000074 0.09398-0.03134 0.09375-0.03125-0.000233 0.000088 0.09398-0.03135 0.09375-0.03125-0.000227 0.000101 0.09397-0.06261 0.09375-0.0625-0.000221 0.000115 0.09396-0.03138 0.09375-0.03125-0.000214 0.000127 0.09396-0.06264 0.09375-0.0625-0.000206 0.00014 0.09395-0.06265 0.09375-0.0625-0.000198 0.000152 0.09394-0.06266 0.09375-0.0625-0.000188 0.000163 0.09393-0.09392 0.09375-0.09375-0.000178 0.000174 0.06267-0.06268 0.0625-0.0625-0.000168 0.000184 0.06266-0.09394 0.0625-0.09375-0.000157 0.000193 0.06265-0.09395 0.0625-0.09375-0.000145 0.000202 0.06263-0.09396 0.0625-0.09375-0.000133 0.000211 0.06262-0.09397 0.0625-0.09375-0.000121 0.000218 0.06261-0.09398 0.0625-0.09375-0.000108 0.000225 0.03134-0.09398 0.03125-0.09375-0.000094 0.000231 0.03133-0.09399 0.03125-0.09375-0.00008 0.000236 0.03132-0.12524 0.03125-0.125-0.000066 0.00024 0.0313-0.09399 0.03125-0.09375-0.000052 0.000244 0.03129-0.12525 0.03125-0.125-0.000038 0.000246 0.000023-0.094 0-0.09375-0.000023 0.000248 0.03126-0.12525 0.03125-0.125-0.000009 0.000249-0.000006-0.094 0-0.09375 0.000006 0.000249-0.03127-0.12525-0.03125-0.125 0.00002 0.000248-0.000035-0.094 0-0.09375 0.000035 0.000247-0.0313-0.12524-0.03125-0.125 0.000049 0.000244-0.000064-0.09399 0-0.09375 0.000064 0.000241-0.03133-0.09399-0.03125-0.09375l-10-32.312c0.3096-0.64485 0.65625-1.3312 0.65625-2.2188 0-3.2592-2.6783-5.9375-5.9375-5.9375zm-1.25 24h2.5312l0.375 1.2188h-3.2812l0.375-1.2188zm-2.2812 8.0938h7.0625l0.375 1.25h-7.8125l0.375-1.25z"/>
  <path id="path3932" style="opacity:.15;color:#000000" d="m48.094 35.906c-2.7423 0-4.9688 2.2664-4.9688 5 0 0.80131 0.30516 1.5468 0.65625 2.25l-10.062 32.562a0.92908 0.92908 0 0 0 0.875 1.2188h5.4062a0.92908 0.92908 0 0 0 0.906 -0.687l0.5625-2h13.25l0.5625 2a0.92908 0.92908 0 0 0 0.90625 0.6875h5.4062a0.92908 0.92908 0 0 0 0.875 -1.2188l-10.062-32.562c0.35665-0.69406 0.6875-1.4296 0.6875-2.25 0-2.7423-2.2577-5-5-5zm-1.9688 22.125h3.9688l0.906 3.094h-5.7812l0.90625-3.0938zm-2.2812 8.0938h8.5l0.90625 3.125h-10.312l0.90625-3.125z"/>
  <path id="path3926" style="opacity:.3;color:#000000" d="m48.1 36.85c-2.2368 0-4.05 1.8132-4.05 4.05 0 0.83878 0.23831 1.6317 0.675 2.2781l-10.125 32.822h5.4l0.75938-2.7h14.681l0.76 2.7h5.4l-10.125-32.822c0.437-0.646 0.675-1.439 0.675-2.278 0-2.2368-1.8132-4.05-4.05-4.05zm-2.7 20.25h5.4l1.4344 4.9781h-8.2688l1.435-4.978zm-2.2781 8.1h9.9562l1.4344 4.9781h-12.825l1.435-4.978z"/>
  <rect id="rect3897" style="color:#000000;fill:url(#linearGradient3905)" transform="matrix(0,1,1,0,0,0)" height="16" width="16" y="104" x="0"/>
  <text id="text3907" y="48" x="104" xml:space="preserve" style="font-size:4px;letter-spacing:0px;word-spacing:0px;font-family:Liberation Sans;line-height:125%;fill:#000000"><tspan id="tspan3909" y="48" x="104">Shadow opacity : 30, 15, 10, (8)</tspan></text>
  <rect id="rect3911" style="color:#000000;fill:url(#linearGradient3913)" transform="rotate(-90)" height="16" width="16" y="104" x="-40"/>
  <text id="text3951" y="32" x="124" xml:space="preserve" style="font-size:4px;letter-spacing:0px;word-spacing:0px;font-family:Liberation Sans;line-height:125%;fill:#000000"><tspan id="tspan3953" y="32" x="124">Bevel opacity : 30 / 10</tspan></text>
  <text id="text3955" y="8" x="124" xml:space="preserve" style="font-size:4px;letter-spacing:0px;word-spacing:0px;font-family:Liberation Sans;line-height:125%;fill:#000000"><tspan id="tspan3957" y="8" x="124">Bevel opacity : 75 / 15</tspan></text>
  <path id="path2880" style="opacity:.3;color:#000000;fill:url(#linearGradient3089)" d="m75.1 45.3c0-14.912-12.088-27-27-27s-27 12.088-27 27 12.088 27 27 27 27-12.088 27-27zm-2.7 0c0 3.596-0.7811 7.0095-2.1829 10.08-3.83 8.39-12.292 14.22-22.117 14.22-13.421 0-24.3-10.879-24.3-24.3s10.879-24.3 24.3-24.3 24.3 10.879 24.3 24.3z"/>
  <path id="path3665" style="opacity:.3;color:#000000;fill:url(#linearGradient3676)" d="m67 42.6c0-10.438-8.462-18.9-18.9-18.9s-18.9 8.4618-18.9 18.9 8.4618 18.9 18.9 18.9 18.9-8.4618 18.9-18.9zm-2.7 0c0 8.947-7.253 16.2-16.2 16.2s-16.2-7.253-16.2-16.2 7.253-16.2 16.2-16.2 16.2 7.253 16.2 16.2z"/>
  <path id="path3688" style="opacity:.3;color:#000000;fill:url(#linearGradient3699)" d="m58.9 39.9c0-5.9647-4.8353-10.8-10.8-10.8s-10.8 4.8353-10.8 10.8 4.8353 10.8 10.8 10.8 10.8-4.8353 10.8-10.8zm-2.7 0c0 4.4735-3.6265 8.1-8.1 8.1s-8.1-3.6265-8.1-8.1 3.6265-8.1 8.1-8.1 8.1 3.6265 8.1 8.1z"/>
  <path id="path3841" style="color:#000000;fill:url(#linearGradient3856)" d="m48.1 35.85c-2.2368 0-4.05 1.8132-4.05 4.05 0 0.83878 0.23831 1.6317 0.675 2.2781l-10.125 32.822h5.4l0.75938-2.7h14.681l0.76 2.7h5.4l-10.125-32.822c0.437-0.646 0.675-1.439 0.675-2.278 0-2.2368-1.8132-4.05-4.05-4.05zm-2.7 20.25h5.4l1.4344 4.9781h-8.2688l1.435-4.978zm-2.2781 8.1h9.9562l1.4344 4.9781h-12.825l1.435-4.978z"/>
  <path id="path3898" style="opacity:.75;color:#000000;fill:#fff" d="m48.094 35.844c-2.2368 0-4.0312 1.8257-4.0312 4.0625 0 0.19924 0.0049 0.40103 0.03125 0.59375 0.2074-2.0422 1.903-3.6562 4-3.6562 2.0751 0 3.7636 1.5821 4 3.5938 0.02121-0.17343 0.0625-0.3527 0.0625-0.53125 0-2.2368-1.8257-4.0625-4.0625-4.0625zm-3.563 6.968-9.937 32.188h0.3125l9.8125-31.812c-0.07612-0.11268-0.12364-0.25394-0.1875-0.375zm7.125 0c-0.06386 0.12106-0.11137 0.26232-0.1875 0.375l9.813 31.813h0.3125l-9.9375-32.188zm-7.4062 18.25-0.28125 1h8.2812l-0.28125-1h-7.7188zm-2.2812 8.125-0.28125 1h12.812l-0.28125-1h-12.25z"/>
  <path id="path3917" style="opacity:.15;color:#000000" d="m52.094 39.438c-0.07844 0.64128-0.28127 1.2412-0.625 1.75l0.1875 0.625c0.30246-0.57337 0.5-1.2137 0.5-1.9062 0-0.16163-0.04409-0.31206-0.0625-0.46875zm-8 0.09375c-0.01181 0.12602-0.03125 0.24589-0.03125 0.375 0 0.69256 0.1663 1.3329 0.46875 1.9062l0.1875-0.625c-0.32752-0.48479-0.5375-1.0491-0.625-1.6562zm1.3125 15.562-1.4375 4.9688h0.28125l1.1562-3.9688h5.4062l1.1562 3.9688h0.28125l-1.4375-4.9688h-5.4062zm-2.2812 8.0938-1.4375 5h0.28125l1.1562-4h9.9375l1.1562 4h0.28125l-1.4375-5h-9.9375zm-2.375 8.124-0.75 2.688h-5.094l-0.312 1h5.406l0.75-2.6875h14.688l0.75 2.6875h5.4062l-0.3125-1h-5.0938l-0.75-2.6875h-14.688z"/>
 </g>
</svg>
