<?xml version="1.0" encoding="UTF-8" standalone="no"?>
<!-- Created with Inkscape (http://www.inkscape.org/) -->
<svg id="svg2408" xmlns:rdf="http://www.w3.org/1999/02/22-rdf-syntax-ns#" xmlns="http://www.w3.org/2000/svg" height="96" width="96" version="1.0" xmlns:cc="http://creativecommons.org/ns#" xmlns:xlink="http://www.w3.org/1999/xlink" xmlns:dc="http://purl.org/dc/elements/1.1/">
 <defs id="defs2410">
  <linearGradient id="linearGradient3641">
   <stop id="stop3643" offset="0"/>
   <stop id="stop3645" style="stop-opacity:0" offset="1"/>
  </linearGradient>
  <linearGradient id="ButtonShadow" y2="7.0165" gradientUnits="userSpaceOnUse" x2="45.448" gradientTransform="scale(1.0059 .99417)" y1="92.54" x1="45.448">
   <stop id="stop3750" offset="0"/>
   <stop id="stop3752" style="stop-opacity:.58824" offset="1"/>
  </linearGradient>
  <linearGradient id="linearGradient3737">
   <stop id="stop3739" style="stop-color:#fff" offset="0"/>
   <stop id="stop3741" style="stop-color:#fff;stop-opacity:0" offset="1"/>
  </linearGradient>
  <linearGradient id="linearGradient3700">
   <stop id="stop3702" style="stop-color:#dcdcdc" offset="0"/>
   <stop id="stop3704" style="stop-color:#f0f0f0" offset="1"/>
  </linearGradient>
  <filter id="filter3174" color-interpolation-filters="sRGB">
   <feGaussianBlur id="feGaussianBlur3176" stdDeviation="1.71"/>
  </filter>
  <filter id="filter3794" height="1.384" width="1.384" color-interpolation-filters="sRGB" y="-.192" x="-.192">
   <feGaussianBlur id="feGaussianBlur3796" stdDeviation="5.28"/>
  </filter>
  <linearGradient id="linearGradient3613" y2="138.66" xlink:href="#linearGradient3737" gradientUnits="userSpaceOnUse" x2="48" y1="20.221" x1="48"/>
  <clipPath id="clipPath3613">
   <rect id="rect3615" style="fill:#fff" rx="6" ry="6" height="84" width="84" y="6" x="6"/>
  </clipPath>
  <linearGradient id="linearGradient3627" y2="32" xlink:href="#linearGradient3700" gradientUnits="userSpaceOnUse" x2="48" y1="88" x1="48"/>
  <linearGradient id="linearGradient3635" y2="36" gradientUnits="userSpaceOnUse" x2="48" y1="88" x1="48">
   <stop id="stop3729" style="stop-color:#d5d5d5" offset="0"/>
   <stop id="stop3731" style="stop-color:#f1f1f1" offset="1"/>
  </linearGradient>
  <filter id="filter3649" color-interpolation-filters="sRGB">
   <feGaussianBlur id="feGaussianBlur3651" stdDeviation="1.38"/>
  </filter>
  <filter id="filter3665" color-interpolation-filters="sRGB">
   <feGaussianBlur id="feGaussianBlur3667" stdDeviation="0.69"/>
  </filter>
  <linearGradient id="linearGradient3687" y2="63.893" xlink:href="#linearGradient3737" gradientUnits="userSpaceOnUse" x2="36.357" y1="6" x1="36.357"/>
  <linearGradient id="linearGradient3689" y2="5.9877" xlink:href="#linearGradient3700" gradientUnits="userSpaceOnUse" x2="48" y1="90" x1="48"/>
  <clipPath id="clipPath3696">
   <rect id="rect3698" style="fill:#f0f" rx="6" ry="6" height="84" width="84" y="6" x="106"/>
  </clipPath>
  <linearGradient id="linearGradient3701" y2="80" xlink:href="#linearGradient3641" gradientUnits="userSpaceOnUse" x2="48" gradientTransform="translate(100)" y1="32" x1="48"/>
  <clipPath id="clipPath3703">
   <rect id="rect3705" style="fill:#f0f" rx="6" ry="6" height="84" width="84" y="6" x="106"/>
  </clipPath>
  <linearGradient id="linearGradient3707" y2="21" xlink:href="#linearGradient3641" gradientUnits="userSpaceOnUse" x2="51" gradientTransform="translate(100,-1)" y1="62" x1="51"/>
  <radialGradient id="radialGradient2858" gradientUnits="userSpaceOnUse" cy="90.172" cx="48" gradientTransform="matrix(1.1573 0 0 .99591 -7.551 .19713)" r="42">
   <stop id="stop3739-5" style="stop-color:#fff" offset="0"/>
   <stop id="stop3741-7" style="stop-color:#fff;stop-opacity:0" offset="1"/>
  </radialGradient>
  <linearGradient id="ButtonShadow-0" y2="7.0165" gradientUnits="userSpaceOnUse" x2="45.448" gradientTransform="matrix(1.0059 0 0 .99417 100 0)" y1="92.54" x1="45.448">
   <stop id="stop3750-8" offset="0"/>
   <stop id="stop3752-5" style="stop-opacity:.58824" offset="1"/>
  </linearGradient>
  <linearGradient id="linearGradient3780" y2="90.239" xlink:href="#ButtonShadow-0" gradientUnits="userSpaceOnUse" x2="32.251" gradientTransform="matrix(1.0238 0 0 1.0119 -1.1429 -98.071)" y1="6.1317" x1="32.251"/>
  <linearGradient id="linearGradient3721" y2="90.239" xlink:href="#ButtonShadow-0" gradientUnits="userSpaceOnUse" x2="32.251" gradientTransform="translate(0,-97)" y1="6.1317" x1="32.251"/>
  <linearGradient id="linearGradient3755" y2="23.566" gradientUnits="userSpaceOnUse" x2="56.658" y1="51.02" x1="56.658">
   <stop id="stop3781" style="stop-color:#d00000" offset="0"/>
   <stop id="stop3783" style="stop-color:#ff3c22" offset="1"/>
  </linearGradient>
 </defs>
 <metadata id="metadata2413">
  <rdf:RDF>
   <cc:Work rdf:about="">
    <dc:format>image/svg+xml</dc:format>
    <dc:type rdf:resource="http://purl.org/dc/dcmitype/StillImage"/>
    <dc:title/>
   </cc:Work>
  </rdf:RDF>
 </metadata>
 <g id="layer2" style="display:none">
  <rect id="rect3745" style="opacity:.9;filter:url(#filter3174);fill:url(#ButtonShadow)" rx="6" ry="6" height="85" width="86" y="7" x="5"/>
 </g>
 <g id="layer3">
  <path id="path3786" style="opacity:0.08;fill:url(#linearGradient3780)" d="m12-95.031c-5.5111 0-10.031 4.5202-10.031 10.031v71c0 5.5111 4.5202 10.031 10.031 10.031h72c5.5111 0 10.031-4.5202 10.031-10.031v-71c0-5.5111-4.5202-10.031-10.031-10.031h-72z" transform="scale(1,-1)"/>
  <path id="path3778" style="opacity:.1;fill:url(#linearGradient3780)" d="m12-94.031c-4.9716 0-9.0312 4.0596-9.0312 9.0312v71c0 4.9716 4.0596 9.0312 9.0312 9.0312h72c4.9716 0 9.0312-4.0596 9.0312-9.0312v-71c0-4.9716-4.0596-9.0312-9.0312-9.0312h-72z" transform="scale(1,-1)"/>
  <path id="path3770" style="opacity:.2;fill:url(#linearGradient3780)" d="m12-93c-4.4091 0-8 3.5909-8 8v71c0 4.4091 3.5909 8 8 8h72c4.4091 0 8-3.5909 8-8v-71c0-4.4091-3.5909-8-8-8h-72z" transform="scale(1,-1)"/>
  <rect id="rect3723" style="opacity:.3;fill:url(#linearGradient3780)" transform="scale(1,-1)" rx="7" ry="7" height="85" width="86" y="-92" x="5"/>
  <rect id="rect3716" style="opacity:.45;fill:url(#linearGradient3721)" transform="scale(1,-1)" rx="6" ry="6" height="84" width="84" y="-91" x="6"/>
 </g>
 <g id="layer1">
  <rect id="rect2419" style="fill:url(#linearGradient3689)" rx="6" ry="6" height="84" width="84" y="6" x="6"/>
  <path id="path3653" style="opacity:.3;filter:url(#filter3665);fill:url(#linearGradient3701)" d="m112 89c-3.324 0-6-2.676-6-6v-6l42-42 42 42v6c0 3.324-2.676 6-6 6h-72z" clip-path="url(#clipPath3696)" transform="translate(-100,-1)"/>
  <path id="path3619" style="fill:url(#linearGradient3635)" d="m12 90c-3.324 0-6-2.676-6-6v-6l42-42 42 42v6c0 3.324-2.676 6-6 6h-72z"/>
  <path id="path3718" style="opacity:.4;fill:#fff" d="m48 36-42 42v1l42-42 42 42v-1l-42-42z"/>
  <path id="path3637" style="opacity:.4;filter:url(#filter3649);fill:url(#linearGradient3707)" d="m112 7c-3.324 0-6 2.676-6 6v6l42 42 42-42v-6c0-3.324-2.676-6-6-6h-72z" clip-path="url(#clipPath3703)" transform="translate(-100,1)"/>
  <path id="path3613" style="fill:url(#linearGradient3627)" d="m12 6c-3.324 0-6 2.676-6 6v6l42 42 42-42v-6c0-3.324-2.676-6-6-6h-72z"/>
  <path id="path3709" style="opacity:.6;fill:#fff" d="m6 17v1l42 42 42-42v-1l-42 42-42-42z"/>
 </g>
 <g id="layer5">
  <rect id="rect3171" style="opacity:.1;filter:url(#filter3794);stroke:#fff;stroke-linecap:round;stroke-width:.5;fill:url(#linearGradient3613)" clip-path="url(#clipPath3613)" rx="12" ry="12" height="66" width="66" y="15" x="15"/>
  <path id="path3615" style="opacity:0" d="m12 90c-3.324 0-6-2.676-6-6v-2-68-2c0-0.33472 0.04135-0.6507 0.09375-0.96875 0.0487-0.2956 0.09704-0.59692 0.1875-0.875 0.0099-0.03 0.0209-0.063 0.0313-0.094 0.0989-0.2873 0.2349-0.547 0.375-0.812 0.1446-0.2735 0.3156-0.5356 0.5-0.7812 0.1844-0.2457 0.3738-0.4735 0.5937-0.6876 0.44-0.428 0.943-0.8145 1.5-1.0937 0.2786-0.1396 0.5735-0.2469 0.8748-0.3437-0.256 0.1002-0.4865 0.2362-0.7185 0.375-0.00741 0.0044-0.023866-0.0045-0.03125 0-0.031933 0.0193-0.062293 0.04251-0.09375 0.0625-0.1204 0.0767-0.23102 0.16351-0.34375 0.25-0.10617 0.0808-0.21328 0.16111-0.3125 0.25-0.1779 0.1614-0.3474 0.3453-0.5 0.5312-0.1075 0.1303-0.2183 0.2653-0.3124 0.4063-0.0251 0.0383-0.0385 0.0858-0.0626 0.125-0.0647 0.103-0.1302 0.2045-0.1874 0.3124-0.1011 0.1948-0.2057 0.4158-0.2813 0.625-0.008 0.0219-0.0236 0.0406-0.0313 0.0626-0.0318 0.0919-0.0358 0.1868-0.0624 0.2812-0.0304 0.1066-0.0704 0.203-0.0938 0.3125-0.0729 0.3415-0.125 0.6985-0.125 1.0625v2 68 2c0 2.7818 2.2182 5 5 5h2 68 2c2.7818 0 5-2.2182 5-5v-2-68-2c0-0.364-0.052-0.721-0.125-1.0625-0.044-0.2069-0.088-0.3977-0.156-0.5937-0.008-0.022-0.024-0.0407-0.031-0.0626-0.063-0.1737-0.139-0.3674-0.219-0.5312-0.042-0.0828-0.079-0.17-0.125-0.25-0.055-0.0972-0.127-0.1884-0.188-0.2812-0.094-0.141-0.205-0.276-0.312-0.4063-0.143-0.1745-0.303-0.347-0.469-0.5-0.011-0.0102-0.02-0.0211-0.031-0.0313-0.139-0.1255-0.285-0.2344-0.438-0.3437-0.102-0.0731-0.204-0.1534-0.312-0.2187-0.0074-0.0045-0.02384 0.0044-0.03125 0-0.23204-0.13873-0.46255-0.27478-0.71875-0.375 0.30153 0.0968 0.59646 0.20414 0.875 0.34375 0.55709 0.27922 1.0601 0.66569 1.5 1.0938 0.21997 0.21403 0.40937 0.44186 0.59375 0.6875s0.35541 0.50774 0.5 0.78125c0.14012 0.26505 0.27614 0.52473 0.375 0.8125 0.01041 0.03078 0.02133 0.06274 0.03125 0.09375 0.09046 0.27808 0.1388 0.5794 0.1875 0.875 0.053 0.318 0.094 0.634 0.094 0.969v2 68 2c0 3.324-2.676 6-6 6h-72z"/>
  <path id="rect3728" style="opacity:.6;fill:url(#linearGradient3687)" d="m12 6c-3.324 0-6 2.676-6 6v2 68 2c0 0.33472 0.04135 0.6507 0.09375 0.96875 0.0487 0.2956 0.09704 0.59692 0.1875 0.875 0.0099 0.03038 0.02089 0.0636 0.03125 0.09375 0.09886 0.28777 0.23488 0.54745 0.375 0.8125 0.14459 0.27351 0.31562 0.53562 0.5 0.78125 0.18438 0.24564 0.37378 0.47347 0.59375 0.6875 0.43995 0.42806 0.94291 0.81453 1.5 1.0938 0.27854 0.13961 0.57347 0.24695 0.875 0.34375-0.2562-0.10022-0.48671-0.23627-0.71875-0.375-0.0074-0.0044-0.02387 0.0045-0.03125 0-0.03193-0.0193-0.06229-0.04251-0.09375-0.0625-0.1204-0.0767-0.23102-0.16351-0.34375-0.25-0.10617-0.0808-0.21328-0.16111-0.3125-0.25-0.1778-0.162-0.3473-0.346-0.4999-0.531-0.1075-0.131-0.2183-0.266-0.3124-0.407-0.0251-0.038-0.0385-0.086-0.0626-0.125-0.0647-0.103-0.1302-0.204-0.1874-0.312-0.1011-0.195-0.2057-0.416-0.2813-0.625-0.008-0.022-0.0236-0.041-0.0313-0.063-0.0318-0.092-0.0358-0.187-0.0624-0.281-0.0304-0.107-0.0704-0.203-0.0938-0.313-0.0729-0.341-0.125-0.698-0.125-1.062v-2-68-2c0-2.782 2.2182-5 5-5h2 68 2c2.7818 0 5 2.2182 5 5v2 68 2c0 0.3643-0.05212 0.72099-0.125 1.0625-0.04415 0.20689-0.08838 0.39766-0.15625 0.59375-0.0077 0.02195-0.0233 0.04069-0.03125 0.0625-0.06274 0.17374-0.13838 0.36745-0.21875 0.53125-0.04158 0.0828-0.07904 0.16995-0.125 0.25-0.0546 0.09721-0.12677 0.18835-0.1875 0.28125-0.09411 0.14096-0.20492 0.276-0.3125 0.40625-0.14317 0.17445-0.30314 0.347-0.46875 0.5-0.01117 0.0102-0.01998 0.02115-0.03125 0.03125-0.13839 0.12556-0.28509 0.23444-0.4375 0.34375-0.10257 0.07315-0.20432 0.15336-0.3125 0.21875-0.0074 0.0045-0.02384-0.0044-0.03125 0-0.23204 0.13873-0.46255 0.27478-0.71875 0.375 0.30153-0.0968 0.59646-0.20414 0.875-0.34375 0.55709-0.27922 1.0601-0.66569 1.5-1.0938 0.21997-0.21403 0.40937-0.44186 0.59375-0.6875s0.35541-0.50774 0.5-0.78125c0.14012-0.26505 0.27614-0.52473 0.375-0.8125 0.01041-0.03078 0.02133-0.06274 0.03125-0.09375 0.09046-0.27808 0.1388-0.5794 0.1875-0.875 0.053-0.318 0.094-0.634 0.094-0.969v-2-68-2c0-3.324-2.676-6-6-6h-72z"/>
  <path id="path3615-5" style="opacity:.3;fill:url(#radialGradient2858)" d="m12 90c-3.324 0-6-2.676-6-6v-2-68-2c0-0.33472 0.04135-0.6507 0.09375-0.96875 0.0487-0.2956 0.09704-0.59692 0.1875-0.875 0.0099-0.03 0.0209-0.063 0.0313-0.094 0.0989-0.2873 0.2349-0.547 0.375-0.812 0.1446-0.2735 0.3156-0.5356 0.5-0.7812 0.1844-0.2457 0.3738-0.4735 0.5937-0.6876 0.44-0.428 0.943-0.8145 1.5-1.0937 0.2786-0.1396 0.5735-0.2469 0.8748-0.3437-0.256 0.1002-0.4865 0.2362-0.7185 0.375-0.00741 0.0044-0.023866-0.0045-0.03125 0-0.031933 0.0193-0.062293 0.04251-0.09375 0.0625-0.1204 0.0767-0.23102 0.16351-0.34375 0.25-0.10617 0.0808-0.21328 0.16111-0.3125 0.25-0.1779 0.1614-0.3474 0.3453-0.5 0.5312-0.1075 0.1303-0.2183 0.2653-0.3124 0.4063-0.0251 0.0383-0.0385 0.0858-0.0626 0.125-0.0647 0.103-0.1302 0.2045-0.1874 0.3124-0.1011 0.1948-0.2057 0.4158-0.2813 0.625-0.008 0.0219-0.0236 0.0406-0.0313 0.0626-0.0318 0.0919-0.0358 0.1868-0.0624 0.2812-0.0304 0.1066-0.0704 0.203-0.0938 0.3125-0.0729 0.3415-0.125 0.6985-0.125 1.0625v2 68 2c0 2.7818 2.2182 5 5 5h2 68 2c2.7818 0 5-2.2182 5-5v-2-68-2c0-0.364-0.052-0.721-0.125-1.0625-0.044-0.2069-0.088-0.3977-0.156-0.5937-0.008-0.022-0.024-0.0407-0.031-0.0626-0.063-0.1737-0.139-0.3674-0.219-0.5312-0.042-0.0828-0.079-0.17-0.125-0.25-0.055-0.0972-0.127-0.1884-0.188-0.2812-0.094-0.141-0.205-0.276-0.312-0.4063-0.143-0.1745-0.303-0.347-0.469-0.5-0.011-0.0102-0.02-0.0211-0.031-0.0313-0.139-0.1255-0.285-0.2344-0.438-0.3437-0.102-0.0731-0.204-0.1534-0.312-0.2187-0.0074-0.0045-0.02384 0.0044-0.03125 0-0.23204-0.13873-0.46255-0.27478-0.71875-0.375 0.30153 0.0968 0.59646 0.20414 0.875 0.34375 0.55709 0.27922 1.0601 0.66569 1.5 1.0938 0.21997 0.21403 0.40937 0.44186 0.59375 0.6875s0.35541 0.50774 0.5 0.78125c0.14012 0.26505 0.27614 0.52473 0.375 0.8125 0.01041 0.03078 0.02133 0.06274 0.03125 0.09375 0.09046 0.27808 0.1388 0.5794 0.1875 0.875 0.053 0.318 0.094 0.634 0.094 0.969v2 68 2c0 3.324-2.676 6-6 6h-72z"/>
 </g>
 <g id="layer4">
  <path id="path3777" style="opacity:.05;color:#000000" d="m61.406 46.062c-1.39 0.147-2.574 0.712-3.406 1.344a1.0195 1.0195 0 0 0 -0.031 0.032c-1.766 1.526-2.487 3.577-3.469 5.093a1.0195 1.0195 0 0 0 -0.03125 0.0625c-4.257 7.337-8.4808 14.712-12.75 22.031a1.0195 1.0195 0 0 0 -0.0625 0.09375c-0.8492 1.953-0.86228 4.2155 0.3125 6.125 0.0075 0.01322 0.02369 0.01812 0.03125 0.03125 1.2754 2.2162 3.8014 3.2487 6.2188 3.0625v0.03125c9.5549-0.02315 19.101-0.04085 28.656-0.0625a1.0195 1.0195 0 0 0 0.0625 0c2.6036-0.18187 4.9414-1.9454 5.7188-4.4688 0.66248-2.0376 0.19217-4.205-0.96875-5.9375-0.01169-0.0201-0.01956-0.0424-0.03125-0.0625-4.754-8.175-9.543-16.326-14.282-24.5a1.0195 1.0195 0 0 0 -0.063 -0.094c-1.333-1.857-3.547-2.994-5.906-2.782z" transform="translate(6,6)"/>
  <path id="path3767" style="opacity:.1;color:#000000" d="m67.512 53.054c-1.1638 0.12298-2.1945 0.62291-2.8948 1.1556-1.5099 1.3058-2.2077 3.249-3.2749 4.8968-4.255 7.3336-8.4831 14.683-12.755 22.007-0.74397 1.711-0.74694 3.6289 0.2533 5.2363 1.0524 1.8622 3.2836 2.7878 5.3841 2.5982 9.5553-0.02315 19.111-0.0487 28.666-0.07035 2.1804-0.15231 4.1684-1.6646 4.8126-3.7557 0.55772-1.7154 0.1329-3.5964-0.90237-5.1117-4.764-8.191-9.543-16.373-14.296-24.571-1.136-1.582-3.024-2.561-4.993-2.384z"/>
  <path id="path3763" style="opacity:.15;color:#000000" d="m55.406 22.656c-0.04409 0.0024-0.20614 0.02614-0.25 0.03125-0.04386 0.0051-0.20654 0.02342-0.25 0.03125-0.04346 0.0078-0.17587 0.05198-0.21875 0.0625s-0.20785 0.04934-0.25 0.0625-0.1775 0.04674-0.21875 0.0625c-0.04 0.016-0.178 0.076-0.218 0.094-0.04019 0.01829-0.17978 0.10424-0.21875 0.125s-0.18115 0.07061-0.21875 0.09375-0.15141 0.13082-0.1875 0.15625c-0.03609 0.02544-0.15306 0.09737-0.1875 0.125s-0.15484 0.12653-0.1875 0.15625c-0.03265 0.02972-0.15676 0.15581-0.1875 0.1875s-0.12754 0.12271-0.15625 0.15625-0.12968 0.15224-0.15625 0.1875-0.10067 0.1819-0.125 0.21875-0.10301 0.14921-0.125 0.1875l-12.531 21.688c-0.02333 0.04022-0.10436 0.17709-0.125 0.21875s-0.07588 0.20708-0.09375 0.25-0.07873 0.17475-0.09375 0.21875-0.05039 0.20511-0.0625 0.25-0.05336 0.20442-0.0625 0.25c-0.0091 0.04558-0.05636 0.20392-0.0625 0.25-0.0061 0.04608 0.0031 0.20361 0 0.25s-0.03119 0.20351-0.03125 0.25c-0.000064 0.04649 0.02827 0.2036 0.03125 0.25 0.003 0.0464-0.006 0.2039 0 0.25s0.05348 0.20439 0.0625 0.25c0.009 0.04561 0.01926 0.20508 0.03125 0.25s0.07885 0.20596 0.09375 0.25 0.076 0.17578 0.09375 0.21875 0.07322 0.20829 0.09375 0.25 0.10178 0.17847 0.125 0.21875 0.0992 0.18008 0.125 0.21875 0.12797 0.1506 0.15625 0.1875 0.12561 0.18378 0.15625 0.21875 0.12339 0.15461 0.15625 0.1875 0.15256 0.12558 0.1875 0.15625c0.03495 0.03067 0.18187 0.12794 0.21875 0.15625s0.14885 0.13041 0.1875 0.15625 0.17849 0.10175 0.21875 0.125 0.17705 0.10444 0.21875 0.125 0.20704 0.07596 0.25 0.09375c0.04295 0.01779 0.17472 0.07881 0.21875 0.09375s0.20509 0.08173 0.25 0.09375 0.2044 0.0222 0.25 0.03125c0.0456 0.0091 0.2039 0.05645 0.25 0.0625 0.0461 0.0061 0.20361 0.02823 0.25 0.03125 0.04639 0.003 0.20351 0.000026 0.25 0l25.094-0.0625c0.04649 0.000026 0.20361 0.003 0.25 0s0.2039-0.0252 0.25-0.03125c0.0461-0.0061 0.2044-0.05345 0.25-0.0625 0.0456-0.0091 0.20509-0.01923 0.25-0.03125s0.20597-0.07881 0.25-0.09375 0.1758-0.07596 0.21875-0.09375c0.04296-0.01779 0.2083-0.07319 0.25-0.09375s0.17849-0.10175 0.21875-0.125 0.1801-0.09916 0.21875-0.125 0.15062-0.12794 0.1875-0.15625 0.1838-0.12558 0.21875-0.15625c0.03494-0.03067 0.15464-0.12336 0.1875-0.15625s0.12561-0.15253 0.15625-0.1875 0.12797-0.18185 0.15625-0.21875 0.13044-0.14883 0.15625-0.1875 0.10178-0.17847 0.125-0.21875 0.10447-0.17704 0.125-0.21875 0.076-0.20703 0.09375-0.25 0.07885-0.17471 0.09375-0.21875 0.08176-0.20508 0.09375-0.25 0.02223-0.20439 0.03125-0.25c0.009-0.04561 0.05649-0.2039 0.0625-0.25 0.006-0.0461-0.003-0.2036 0-0.25s0.03131-0.20351 0.03125-0.25c-0.000064-0.04649-0.02814-0.20361-0.03125-0.25-0.0031-0.04639 0.0061-0.20392 0-0.25s-0.05336-0.20442-0.0625-0.25c-0.0091-0.04558-0.05039-0.20511-0.0625-0.25s-0.04748-0.206-0.0625-0.25-0.07588-0.17583-0.09375-0.21875-0.07311-0.20834-0.09375-0.25-0.10167-0.17853-0.125-0.21875l-12.562-21.625c-0.0243-0.04229-0.09786-0.17822-0.125-0.21875-0.02714-0.04052-0.12638-0.18019-0.15625-0.21875s-0.15506-0.15108-0.1875-0.1875-0.15263-0.18464-0.1875-0.21875-0.15037-0.12462-0.1875-0.15625-0.17954-0.15849-0.21875-0.1875-0.17764-0.09876-0.21875-0.125-0.17593-0.13289-0.21875-0.15625-0.20568-0.10464-0.25-0.125-0.17313-0.07648-0.21875-0.09375-0.2033-0.07966-0.25-0.09375-0.2337-0.05165-0.28125-0.0625-0.20181-0.02369-0.25-0.03125c-0.04819-0.0076-0.20141-0.02702-0.25-0.03125-0.04859-0.0042-0.23248-0.03037-0.28125-0.03125-0.04877-0.000883-0.20129-0.0025-0.25 0z" transform="matrix(1.1579 0 0 1.1556 3.6087 27.812)"/>
  <path id="path3757" style="opacity:.3;color:#000000" d="m55.438 23.531a2.9965 2.9965 0 0 0 -2.4375 1.5l-12.531 21.688a2.9965 2.9965 0 0 0 2.5938 4.5l25.094-0.0625a2.9965 2.9965 0 0 0 2.5938 -4.5l-12.562-21.625a2.9965 2.9965 0 0 0 -2.75 -1.5z" transform="matrix(1.1579 0 0 1.1556 3.6087 27.812)"/>
  <path id="path3746" style="color:#000000;fill:url(#linearGradient3755)" d="m55.438 23.531a2.9965 2.9965 0 0 0 -2.4375 1.5l-12.531 21.688a2.9965 2.9965 0 0 0 2.5938 4.5l25.094-0.0625a2.9965 2.9965 0 0 0 2.5938 -4.5l-12.562-21.625a2.9965 2.9965 0 0 0 -2.75 -1.5z" transform="matrix(1.1579 0 0 1.1556 3.6087 26.812)"/>
  <path id="path3787" style="color:#000000;fill:#fff" d="m67.906 56c-1.152 0.05532-1.4218 1.2789-1.9688 2.0625-4.6014 7.9371-9.1687 15.882-13.781 23.812-0.4613 0.81992 0.13962 2.0623 1.125 2.0938 2.6346 0.07861 5.2945 0.01355 7.9375 0.03125 7.1315-0.02183 14.275-0.03044 21.406-0.0625 1.0177-0.03644 1.7121-1.2001 1.25-2.125-1.8511-3.0767-3.6637-6.2811-5.5-9.4062-3.037-5.237-6.141-10.47-9.155-15.717-0.289-0.435-0.786-0.706-1.313-0.688zm0.0625 2c2.9432 5.1145 5.9584 10.198 8.9062 15.281 1.735 2.9528 3.481 5.9796 5.25 8.9375-6.9616 0.03024-13.939 0.04117-20.906 0.0625-2.4771-0.01658-4.8933 0.02123-7.2813-0.03125 4.4913-7.7254 8.9291-15.464 13.406-23.188 0.02593-0.04474 0.06781-0.08026 0.09375-0.125 0.272-0.41648 0.41573-0.72113 0.53125-0.9375z"/>
  <path id="path3802" style="opacity:.3;color:#000000;fill:#fff" d="m67.812 54a3.4697 3.4628 0 0 0 -2.8438 1.75l-14.499 25.062a3.4697 3.4628 0 0 0 -0.4375 2.2188 3.4697 3.4628 0 0 1 0.4375 -1.2188l14.5-25.062a3.4697 3.4628 0 0 1 2.843 -1.75 3.4697 3.4628 0 0 1 3.188 1.75l14.531 24.969a3.4697 3.4628 0 0 1 0.4375 1.25 3.4697 3.4628 0 0 0 -0.4375 -2.25l-14.531-24.969a3.4697 3.4628 0 0 0 -3.188 -1.75z"/>
  <path id="path3815" style="opacity:.4;color:#000000;fill:#500" d="m85.969 81.969a3.4697 3.4628 0 0 1 -3.4375 2.9688l-29.063 0.062a3.4697 3.4628 0 0 1 -3.438 -2.969 3.4697 3.4628 0 0 0 3.438 3.969l29.062-0.062a3.4697 3.4628 0 0 0 3.4375 -3.9688z"/>
  <rect id="rect3826" style="color:#000000;fill:#fff" rx="1.9171" ry="2" height="10" width="4" y="65" x="66"/>
  <path id="path3828" style="color:#000000;fill:#fff" d="m64 73a2 2 0 1 1 -4 0 2 2 0 1 1 4 0z" transform="translate(6 5)"/>
 </g>
</svg>
