<?xml version="1.0" encoding="UTF-8" standalone="no"?>
<!-- Created with Inkscape (http://www.inkscape.org/) -->
<svg id="svg2408" xmlns:rdf="http://www.w3.org/1999/02/22-rdf-syntax-ns#" xmlns="http://www.w3.org/2000/svg" height="96" width="96" version="1.0" xmlns:cc="http://creativecommons.org/ns#" xmlns:xlink="http://www.w3.org/1999/xlink" xmlns:dc="http://purl.org/dc/elements/1.1/">
 <defs id="defs2410">
  <linearGradient id="linearGradient3641">
   <stop id="stop3643" offset="0"/>
   <stop id="stop3645" style="stop-opacity:0" offset="1"/>
  </linearGradient>
  <linearGradient id="ButtonShadow" y2="7.0165" gradientUnits="userSpaceOnUse" x2="45.448" gradientTransform="scale(1.0059 .99417)" y1="92.54" x1="45.448">
   <stop id="stop3750" offset="0"/>
   <stop id="stop3752" style="stop-opacity:.58824" offset="1"/>
  </linearGradient>
  <linearGradient id="linearGradient3737">
   <stop id="stop3739" style="stop-color:#fff" offset="0"/>
   <stop id="stop3741" style="stop-color:#fff;stop-opacity:0" offset="1"/>
  </linearGradient>
  <linearGradient id="linearGradient3700">
   <stop id="stop3702" style="stop-color:#dcdcdc" offset="0"/>
   <stop id="stop3704" style="stop-color:#f0f0f0" offset="1"/>
  </linearGradient>
  <filter id="filter3174" color-interpolation-filters="sRGB">
   <feGaussianBlur id="feGaussianBlur3176" stdDeviation="1.71"/>
  </filter>
  <filter id="filter3794" height="1.384" width="1.384" color-interpolation-filters="sRGB" y="-.192" x="-.192">
   <feGaussianBlur id="feGaussianBlur3796" stdDeviation="5.28"/>
  </filter>
  <linearGradient id="linearGradient3613" y2="138.66" xlink:href="#linearGradient3737" gradientUnits="userSpaceOnUse" x2="48" y1="20.221" x1="48"/>
  <clipPath id="clipPath3613">
   <rect id="rect3615" style="fill:#fff" rx="6" ry="6" height="84" width="84" y="6" x="6"/>
  </clipPath>
  <linearGradient id="linearGradient3627" y2="32" xlink:href="#linearGradient3700" gradientUnits="userSpaceOnUse" x2="48" y1="88" x1="48"/>
  <linearGradient id="linearGradient3635" y2="36" gradientUnits="userSpaceOnUse" x2="48" y1="88" x1="48">
   <stop id="stop3729" style="stop-color:#d5d5d5" offset="0"/>
   <stop id="stop3731" style="stop-color:#f1f1f1" offset="1"/>
  </linearGradient>
  <filter id="filter3649" color-interpolation-filters="sRGB">
   <feGaussianBlur id="feGaussianBlur3651" stdDeviation="1.38"/>
  </filter>
  <filter id="filter3665" color-interpolation-filters="sRGB">
   <feGaussianBlur id="feGaussianBlur3667" stdDeviation="0.69"/>
  </filter>
  <linearGradient id="linearGradient3687" y2="63.893" xlink:href="#linearGradient3737" gradientUnits="userSpaceOnUse" x2="36.357" y1="6" x1="36.357"/>
  <linearGradient id="linearGradient3689" y2="5.9877" xlink:href="#linearGradient3700" gradientUnits="userSpaceOnUse" x2="48" y1="90" x1="48"/>
  <clipPath id="clipPath3696">
   <rect id="rect3698" style="fill:#f0f" rx="6" ry="6" height="84" width="84" y="6" x="106"/>
  </clipPath>
  <linearGradient id="linearGradient3701" y2="80" xlink:href="#linearGradient3641" gradientUnits="userSpaceOnUse" x2="48" gradientTransform="translate(100)" y1="32" x1="48"/>
  <clipPath id="clipPath3703">
   <rect id="rect3705" style="fill:#f0f" rx="6" ry="6" height="84" width="84" y="6" x="106"/>
  </clipPath>
  <linearGradient id="linearGradient3707" y2="21" xlink:href="#linearGradient3641" gradientUnits="userSpaceOnUse" x2="51" gradientTransform="translate(100,-1)" y1="62" x1="51"/>
  <radialGradient id="radialGradient2858" xlink:href="#linearGradient3737" gradientUnits="userSpaceOnUse" cy="90.172" cx="48" gradientTransform="matrix(1.1573 0 0 .99591 -7.551 .19713)" r="42"/>
  <linearGradient id="ButtonShadow-0" y2="7.0165" gradientUnits="userSpaceOnUse" x2="45.448" gradientTransform="matrix(1.0059 0 0 .99417 100 0)" y1="92.54" x1="45.448">
   <stop id="stop3750-8" offset="0"/>
   <stop id="stop3752-5" style="stop-opacity:.58824" offset="1"/>
  </linearGradient>
  <linearGradient id="linearGradient3780" y2="90.239" xlink:href="#ButtonShadow-0" gradientUnits="userSpaceOnUse" x2="32.251" gradientTransform="matrix(1.0238 0 0 1.0119 -1.1429 -98.071)" y1="6.1317" x1="32.251"/>
  <linearGradient id="linearGradient3721" y2="90.239" xlink:href="#ButtonShadow-0" gradientUnits="userSpaceOnUse" x2="32.251" gradientTransform="translate(0,-97)" y1="6.1317" x1="32.251"/>
  <linearGradient id="linearGradient3658">
   <stop id="stop3660" style="stop-color:#ff9604" offset="0"/>
   <stop id="stop3662" style="stop-color:#fff580" offset="1"/>
  </linearGradient>
  <linearGradient id="linearGradient3127" y2="4.9937" xlink:href="#linearGradient3658" gradientUnits="userSpaceOnUse" x2="10.541" y1="15.373" x1="11.087"/>
  <linearGradient id="linearGradient4079" y2="4.9937" gradientUnits="userSpaceOnUse" x2="10.541" gradientTransform="matrix(3.3567 .17689 -.17683 3.3574 95.814 32.089)" y1="15.373" x1="11.087">
   <stop id="stop3688" style="stop-color:#dcdcdc" offset="0"/>
   <stop id="stop3690" style="stop-color:#fff" offset="1"/>
  </linearGradient>
  <linearGradient id="linearGradient4081" y2="4.9937" xlink:href="#linearGradient3658" gradientUnits="userSpaceOnUse" x2="10.541" gradientTransform="matrix(3.3567 .17689 -.17683 3.3574 95.814 32.089)" y1="15.373" x1="11.087"/>
  <linearGradient id="linearGradient4092" y2="13.665" xlink:href="#linearGradient3737" gradientUnits="userSpaceOnUse" x2="11.5" gradientTransform="matrix(3.3567 .17689 -.17683 3.3574 35.814 32.089)" y1="4.1597" x1="10.999"/>
 </defs>
 <metadata id="metadata2413">
  <rdf:RDF>
   <cc:Work rdf:about="">
    <dc:format>image/svg+xml</dc:format>
    <dc:type rdf:resource="http://purl.org/dc/dcmitype/StillImage"/>
    <dc:title/>
   </cc:Work>
  </rdf:RDF>
 </metadata>
 <g id="layer2" style="display:none">
  <rect id="rect3745" style="opacity:.9;filter:url(#filter3174);fill:url(#ButtonShadow)" rx="6" ry="6" height="85" width="86" y="7" x="5"/>
 </g>
 <g id="layer3">
  <path id="path3786" style="opacity:0.08;fill:url(#linearGradient3780)" d="m12-95.031c-5.5111 0-10.031 4.5202-10.031 10.031v71c0 5.5111 4.5202 10.031 10.031 10.031h72c5.5111 0 10.031-4.5202 10.031-10.031v-71c0-5.5111-4.5202-10.031-10.031-10.031h-72z" transform="scale(1,-1)"/>
  <path id="path3778" style="opacity:.1;fill:url(#linearGradient3780)" d="m12-94.031c-4.9716 0-9.0312 4.0596-9.0312 9.0312v71c0 4.9716 4.0596 9.0312 9.0312 9.0312h72c4.9716 0 9.0312-4.0596 9.0312-9.0312v-71c0-4.9716-4.0596-9.0312-9.0312-9.0312h-72z" transform="scale(1,-1)"/>
  <path id="path3770" style="opacity:.2;fill:url(#linearGradient3780)" d="m12-93c-4.4091 0-8 3.5909-8 8v71c0 4.4091 3.5909 8 8 8h72c4.4091 0 8-3.5909 8-8v-71c0-4.4091-3.5909-8-8-8h-72z" transform="scale(1,-1)"/>
  <rect id="rect3723" style="opacity:.3;fill:url(#linearGradient3780)" transform="scale(1,-1)" rx="7" ry="7" height="85" width="86" y="-92" x="5"/>
  <rect id="rect3716" style="opacity:.45;fill:url(#linearGradient3721)" transform="scale(1,-1)" rx="6" ry="6" height="84" width="84" y="-91" x="6"/>
 </g>
 <g id="layer1">
  <rect id="rect2419" style="fill:url(#linearGradient3689)" rx="6" ry="6" height="84" width="84" y="6" x="6"/>
  <path id="path3653" style="opacity:.3;filter:url(#filter3665);fill:url(#linearGradient3701)" d="m112 89c-3.324 0-6-2.676-6-6v-6l42-42 42 42v6c0 3.324-2.676 6-6 6h-72z" clip-path="url(#clipPath3696)" transform="translate(-100,-1)"/>
  <path id="path3619" style="fill:url(#linearGradient3635)" d="m12 90c-3.324 0-6-2.676-6-6v-6l42-42 42 42v6c0 3.324-2.676 6-6 6h-72z"/>
  <path id="path3718" style="opacity:.4;fill:#fff" d="m48 36-42 42v1l42-42 42 42v-1l-42-42z"/>
  <path id="path3637" style="opacity:.4;filter:url(#filter3649);fill:url(#linearGradient3707)" d="m112 7c-3.324 0-6 2.676-6 6v6l42 42 42-42v-6c0-3.324-2.676-6-6-6h-72z" clip-path="url(#clipPath3703)" transform="translate(-100,1)"/>
  <path id="path3613" style="fill:url(#linearGradient3627)" d="m12 6c-3.324 0-6 2.676-6 6v6l42 42 42-42v-6c0-3.324-2.676-6-6-6h-72z"/>
  <path id="path3709" style="opacity:.6;fill:#fff" d="m6 17v1l42 42 42-42v-1l-42 42-42-42z"/>
 </g>
 <g id="layer5">
  <rect id="rect3171" style="opacity:.1;filter:url(#filter3794);stroke:#fff;stroke-linecap:round;stroke-width:.5;fill:url(#linearGradient3613)" clip-path="url(#clipPath3613)" rx="12" ry="12" height="66" width="66" y="15" x="15"/>
  <path id="path3615" style="opacity:0" d="m12 90c-3.324 0-6-2.676-6-6v-2-68-2c0-0.33472 0.04135-0.6507 0.09375-0.96875 0.0487-0.2956 0.09704-0.59692 0.1875-0.875 0.0099-0.03 0.0209-0.063 0.0313-0.094 0.0989-0.2873 0.2349-0.547 0.375-0.812 0.1446-0.2735 0.3156-0.5356 0.5-0.7812 0.1844-0.2457 0.3738-0.4735 0.5937-0.6876 0.44-0.428 0.943-0.8145 1.5-1.0937 0.2786-0.1396 0.5735-0.2469 0.8748-0.3437-0.256 0.1002-0.4865 0.2362-0.7185 0.375-0.00741 0.0044-0.023866-0.0045-0.03125 0-0.031933 0.0193-0.062293 0.04251-0.09375 0.0625-0.1204 0.0767-0.23102 0.16351-0.34375 0.25-0.10617 0.0808-0.21328 0.16111-0.3125 0.25-0.1779 0.1614-0.3474 0.3453-0.5 0.5312-0.1075 0.1303-0.2183 0.2653-0.3124 0.4063-0.0251 0.0383-0.0385 0.0858-0.0626 0.125-0.0647 0.103-0.1302 0.2045-0.1874 0.3124-0.1011 0.1948-0.2057 0.4158-0.2813 0.625-0.008 0.0219-0.0236 0.0406-0.0313 0.0626-0.0318 0.0919-0.0358 0.1868-0.0624 0.2812-0.0304 0.1066-0.0704 0.203-0.0938 0.3125-0.0729 0.3415-0.125 0.6985-0.125 1.0625v2 68 2c0 2.7818 2.2182 5 5 5h2 68 2c2.7818 0 5-2.2182 5-5v-2-68-2c0-0.364-0.052-0.721-0.125-1.0625-0.044-0.2069-0.088-0.3977-0.156-0.5937-0.008-0.022-0.024-0.0407-0.031-0.0626-0.063-0.1737-0.139-0.3674-0.219-0.5312-0.042-0.0828-0.079-0.17-0.125-0.25-0.055-0.0972-0.127-0.1884-0.188-0.2812-0.094-0.141-0.205-0.276-0.312-0.4063-0.143-0.1745-0.303-0.347-0.469-0.5-0.011-0.0102-0.02-0.0211-0.031-0.0313-0.139-0.1255-0.285-0.2344-0.438-0.3437-0.102-0.0731-0.204-0.1534-0.312-0.2187-0.0074-0.0045-0.02384 0.0044-0.03125 0-0.23204-0.13873-0.46255-0.27478-0.71875-0.375 0.30153 0.0968 0.59646 0.20414 0.875 0.34375 0.55709 0.27922 1.0601 0.66569 1.5 1.0938 0.21997 0.21403 0.40937 0.44186 0.59375 0.6875s0.35541 0.50774 0.5 0.78125c0.14012 0.26505 0.27614 0.52473 0.375 0.8125 0.01041 0.03078 0.02133 0.06274 0.03125 0.09375 0.09046 0.27808 0.1388 0.5794 0.1875 0.875 0.053 0.318 0.094 0.634 0.094 0.969v2 68 2c0 3.324-2.676 6-6 6h-72z"/>
  <path id="rect3728" style="opacity:.6;fill:url(#linearGradient3687)" d="m12 6c-3.324 0-6 2.676-6 6v2 68 2c0 0.33472 0.04135 0.6507 0.09375 0.96875 0.0487 0.2956 0.09704 0.59692 0.1875 0.875 0.0099 0.03038 0.02089 0.0636 0.03125 0.09375 0.09886 0.28777 0.23488 0.54745 0.375 0.8125 0.14459 0.27351 0.31562 0.53562 0.5 0.78125 0.18438 0.24564 0.37378 0.47347 0.59375 0.6875 0.43995 0.42806 0.94291 0.81453 1.5 1.0938 0.27854 0.13961 0.57347 0.24695 0.875 0.34375-0.2562-0.10022-0.48671-0.23627-0.71875-0.375-0.0074-0.0044-0.02387 0.0045-0.03125 0-0.03193-0.0193-0.06229-0.04251-0.09375-0.0625-0.1204-0.0767-0.23102-0.16351-0.34375-0.25-0.10617-0.0808-0.21328-0.16111-0.3125-0.25-0.1778-0.162-0.3473-0.346-0.4999-0.531-0.1075-0.131-0.2183-0.266-0.3124-0.407-0.0251-0.038-0.0385-0.086-0.0626-0.125-0.0647-0.103-0.1302-0.204-0.1874-0.312-0.1011-0.195-0.2057-0.416-0.2813-0.625-0.008-0.022-0.0236-0.041-0.0313-0.063-0.0318-0.092-0.0358-0.187-0.0624-0.281-0.0304-0.107-0.0704-0.203-0.0938-0.313-0.0729-0.341-0.125-0.698-0.125-1.062v-2-68-2c0-2.782 2.2182-5 5-5h2 68 2c2.7818 0 5 2.2182 5 5v2 68 2c0 0.3643-0.05212 0.72099-0.125 1.0625-0.04415 0.20689-0.08838 0.39766-0.15625 0.59375-0.0077 0.02195-0.0233 0.04069-0.03125 0.0625-0.06274 0.17374-0.13838 0.36745-0.21875 0.53125-0.04158 0.0828-0.07904 0.16995-0.125 0.25-0.0546 0.09721-0.12677 0.18835-0.1875 0.28125-0.09411 0.14096-0.20492 0.276-0.3125 0.40625-0.14317 0.17445-0.30314 0.347-0.46875 0.5-0.01117 0.0102-0.01998 0.02115-0.03125 0.03125-0.13839 0.12556-0.28509 0.23444-0.4375 0.34375-0.10257 0.07315-0.20432 0.15336-0.3125 0.21875-0.0074 0.0045-0.02384-0.0044-0.03125 0-0.23204 0.13873-0.46255 0.27478-0.71875 0.375 0.30153-0.0968 0.59646-0.20414 0.875-0.34375 0.55709-0.27922 1.0601-0.66569 1.5-1.0938 0.21997-0.21403 0.40937-0.44186 0.59375-0.6875s0.35541-0.50774 0.5-0.78125c0.14012-0.26505 0.27614-0.52473 0.375-0.8125 0.01041-0.03078 0.02133-0.06274 0.03125-0.09375 0.09046-0.27808 0.1388-0.5794 0.1875-0.875 0.053-0.318 0.094-0.634 0.094-0.969v-2-68-2c0-3.324-2.676-6-6-6h-72z"/>
  <path id="path3615-5" style="opacity:.3;fill:url(#radialGradient2858)" d="m12 90c-3.324 0-6-2.676-6-6v-2-68-2c0-0.33472 0.04135-0.6507 0.09375-0.96875 0.0487-0.2956 0.09704-0.59692 0.1875-0.875 0.0099-0.03 0.0209-0.063 0.0313-0.094 0.0989-0.2873 0.2349-0.547 0.375-0.812 0.1446-0.2735 0.3156-0.5356 0.5-0.7812 0.1844-0.2457 0.3738-0.4735 0.5937-0.6876 0.44-0.428 0.943-0.8145 1.5-1.0937 0.2786-0.1396 0.5735-0.2469 0.8748-0.3437-0.256 0.1002-0.4865 0.2362-0.7185 0.375-0.00741 0.0044-0.023866-0.0045-0.03125 0-0.031933 0.0193-0.062293 0.04251-0.09375 0.0625-0.1204 0.0767-0.23102 0.16351-0.34375 0.25-0.10617 0.0808-0.21328 0.16111-0.3125 0.25-0.1779 0.1614-0.3474 0.3453-0.5 0.5312-0.1075 0.1303-0.2183 0.2653-0.3124 0.4063-0.0251 0.0383-0.0385 0.0858-0.0626 0.125-0.0647 0.103-0.1302 0.2045-0.1874 0.3124-0.1011 0.1948-0.2057 0.4158-0.2813 0.625-0.008 0.0219-0.0236 0.0406-0.0313 0.0626-0.0318 0.0919-0.0358 0.1868-0.0624 0.2812-0.0304 0.1066-0.0704 0.203-0.0938 0.3125-0.0729 0.3415-0.125 0.6985-0.125 1.0625v2 68 2c0 2.7818 2.2182 5 5 5h2 68 2c2.7818 0 5-2.2182 5-5v-2-68-2c0-0.364-0.052-0.721-0.125-1.0625-0.044-0.2069-0.088-0.3977-0.156-0.5937-0.008-0.022-0.024-0.0407-0.031-0.0626-0.063-0.1737-0.139-0.3674-0.219-0.5312-0.042-0.0828-0.079-0.17-0.125-0.25-0.055-0.0972-0.127-0.1884-0.188-0.2812-0.094-0.141-0.205-0.276-0.312-0.4063-0.143-0.1745-0.303-0.347-0.469-0.5-0.011-0.0102-0.02-0.0211-0.031-0.0313-0.139-0.1255-0.285-0.2344-0.438-0.3437-0.102-0.0731-0.204-0.1534-0.312-0.2187-0.0074-0.0045-0.02384 0.0044-0.03125 0-0.23204-0.13873-0.46255-0.27478-0.71875-0.375 0.30153 0.0968 0.59646 0.20414 0.875 0.34375 0.55709 0.27922 1.0601 0.66569 1.5 1.0938 0.21997 0.21403 0.40937 0.44186 0.59375 0.6875s0.35541 0.50774 0.5 0.78125c0.14012 0.26505 0.27614 0.52473 0.375 0.8125 0.01041 0.03078 0.02133 0.06274 0.03125 0.09375 0.09046 0.27808 0.1388 0.5794 0.1875 0.875 0.053 0.318 0.094 0.634 0.094 0.969v2 68 2c0 3.324-2.676 6-6 6h-72z"/>
 </g>
 <g id="layer4">
  <path id="path3998" style="opacity:.05" d="m67.375 49.688a1.0798 1.0798 0 0 0 -0.40625 0.09375c-0.93554 0.35487-1.334 1.0656-1.5312 1.2812a1.0798 1.0798 0 0 0 -0.1875 0.25c-1.5482 3.2289-3.2902 6.4237-4.9375 9.6875-0.0022 0.0043-0.02909-0.0043-0.03125 0-0.18932 0.02047-0.58251 0.05473-1.0312 0.1875v-0.03125c-3.3707 0.6068-6.8241 1.2013-10.156 1.8125a1.0798 1.0798 0 0 0 -0.34375 0.125c-0.51504 0.29221-1.1342 0.82633-1.4062 1.625l-0.032-0.032c-0.02047 0.04274-0.01344 0.08229-0.03125 0.125-0.01374 0.04869-0.05175 0.07408-0.0625 0.125h0.0625c-0.15556 0.43168-0.25601 0.87795-0.21875 1.2812 0.02815 0.30462 0.19986 0.58223 0.34375 0.875h-0.03125c0.02445 0.09668 0.09072 0.10342 0.125 0.1875 0.06864 0.10413 0.02273 0.2093 0.125 0.3125l0.03125-0.03125c0.17483 0.27321 0.33458 0.59871 0.5 0.75 0.26572 0.24302 0.46866 0.43594 0.5625 0.5625a1.0798 1.0798 0 0 0 0.09375 0.09375l6.7188 6.875c-0.5228 3.7078-1.1514 7.4526-1.5938 11.219a1.0798 1.0798 0 0 0 0 0.34375c0.06123 0.30692 0.14024 0.66785 0.34375 1.0625 0.13256 0.25706 0.41926 0.44766 0.6875 0.65625l-0.03125 0.03125c0.05574 0.0683 0.12996 0.03813 0.1875 0.09375 0.0941 0.05976 0.11573 0.17485 0.21875 0.21875l0.03125-0.0625c0.28375 0.19238 0.56121 0.40276 0.875 0.46875 0.47305 0.09948 1.019 0.13075 1.5625-0.0625 0.72471-0.25846 1.3881-0.69636 1.875-0.90625a1.0798 1.0798 0 0 0 0.033 -0.033l8.1875-4.0312 9.7812 4.8438a1.0798 1.0798 0 0 0 0.187 0.062c0.28769 0.07865 0.67971 0.1645 1.125 0.1875 0.41308 0.02134 0.93671 0.02806 1.4688-0.40625 0.04148-0.03386 0.08352-0.02266 0.125-0.0625 0.4824-0.23307 0.85964-0.58634 1.0938-1.0625l0.03125 0.03125c0.02967-0.04237 0.0057-0.0822 0.03125-0.125 0.03003-0.06975 0.1023-0.11493 0.125-0.1875l-0.0625-0.03125c0.18538-0.42156 0.32716-0.86649 0.3125-1.2188-0.01881-0.45201-0.11018-0.84124-0.15625-1.1562l-1.4375-9.9375c2.5213-2.5817 5.0355-5.1541 7.5625-7.7188 0.031-0.03146 0.06274-0.06229 0.09375-0.09375l-0.03-0.029c0.36566-0.34575 0.61443-0.73812 0.75-1.1875 0.13776-0.45665 0.17522-0.993 0.03125-1.5312h0.03125c-0.0055-0.02596-0.02506-0.03699-0.03125-0.0625-0.0066-0.02205 0.0072-0.04036 0-0.0625h-0.03125c-0.1973-0.72508-0.63245-1.3074-1.0938-1.6875a1.0798 1.0798 0 0 0 -0.25 -0.125c-0.69241-0.3195-1.367-0.40095-2.0625-0.5h-0.03125l-9.594-1.593c-1.768-3.386-3.6-6.81-5.313-10.157a1.0798 1.0798 0 0 0 -0.374 -0.406c-0.11457-0.07523-0.32172-0.27273-0.6875-0.5-0.32935-0.20464-0.86047-0.33147-1.4062-0.3125v-0.0625c-0.13046-0.0046-0.35365-0.05263-0.71875-0.0625z" transform="translate(2,-1)"/>
  <path id="path3992" style="opacity:0.08" d="m69.33 49.794c-0.6194 0.23495-0.76769 0.62581-1.1042 0.9939-1.5806 3.2965-3.3453 6.5434-4.9967 9.8208-0.26625 0.6539-1.2238 0.37237-1.7947 0.61399-3.3762 0.60779-6.8342 1.2133-10.158 1.823-0.48462 0.27495-0.89194 0.5696-1.0049 1.1043-0.27443 0.57283-0.17145 1.3942 0.12138 1.6897 0.13254 0.52406 0.81244 0.84132 1.2158 1.3852 2.3532 2.419 4.7065 4.8381 7.0597 7.2571-0.54004 3.9001-1.2089 7.7873-1.6679 11.695 0.11617 0.58232 0.22793 1.071 0.77287 1.3032 0.26304 0.32231 1.0689 0.51105 1.6673 0.29828 0.50728-0.18091 1.1924-0.60979 1.7998-0.87166 2.8912-1.4192 5.7824-2.8384 8.6736-4.2577 3.4174 1.6881 6.8347 3.3762 10.252 5.0642 0.46937 0.12832 1.3471 0.30703 1.6839-0.01647 0.49295-0.08551 0.84812-0.42882 0.99381-0.8945 0.33873-0.48366 0.15715-1.2191 0.05567-1.9131-0.50236-3.4909-1.0047-6.9819-1.5071-10.473 2.6708-2.7327 5.3236-5.4842 8.0057-8.2052 0.41373-0.3455 0.71355-1.1508 0.51353-1.7615-0.105-0.485-0.417-0.899-0.78-1.197-0.463-0.214-1.1-0.315-1.807-0.417-3.393-0.563-6.786-1.125-10.178-1.688-1.839-3.531-3.744-7.087-5.543-10.602-0.46-0.302-0.805-0.8-1.54-0.713-0.24498-0.0087-0.4897-0.03209-0.73428-0.0387z"/>
  <path id="path3988" style="opacity:.15" d="m10.344 4.7188a0.28524 0.28524 0 0 0 -0.094 0.0624 0.28524 0.28524 0 0 0 -0.062 0.0938l-1.4692 3.2188-3.4688 0.8124a0.28524 0.28524 0 0 0 -0.2188 0.3126 0.28524 0.28524 0 0 0 0.0626 0.1562 0.28524 0.28524 0 0 0 0.0312 0.0312l2.5938 2.4062-0.3125 3.5a0.28524 0.28524 0 0 0 0.0312 0.157 0.28524 0.28524 0 0 0 0.0625 0.093 0.28524 0.28524 0 0 0 0.1562 0.063 0.28524 0.28524 0 0 0 0.1563 -0.031l3.125-1.7188 3.2188 1.375a0.28524 0.28524 0 0 0 0.25 0 0.28524 0.28524 0 0 0 0.09375 -0.0625 0.28524 0.28524 0 0 0 0.0625 -0.125 0.28524 0.28524 0 0 0 0 -0.125l-0.687-3.469 2.344-2.6565a0.28524 0.28524 0 0 0 0.0625 -0.25 0.28524 0.28524 0 0 0 -0.0625 -0.125 0.28524 0.28524 0 0 0 -0.094 -0.0625 0.28524 0.28524 0 0 0 -0.094 -0.0312l-3.5-0.40625-1.8438-3.0938a0.28524 0.28524 0 0 0 -0.3125 -0.125 0.28524 0.28524 0 0 0 -0.03125 0z" transform="matrix(3.3567 .17689 -.17683 3.3574 35.814 33.089)"/>
  <path id="path3982" style="opacity:.3" d="m5.3053 9.174 3.5961-0.8181 1.5476-3.3474l1.8893 3.1673 3.6619 0.43772-2.4284 2.7756 0.7153 3.618-3.3902-1.4519-3.2198 1.7983 0.3332-3.6729z" transform="matrix(3.3567 .17689 -.17683 3.3574 35.814 33.089)"/>
  <path id="path3748" style="fill:url(#linearGradient3127)" d="m5.3053 9.174 3.5961-0.8181 1.5476-3.3474l1.8893 3.1673 3.6619 0.43772-2.4284 2.7756 0.7153 3.618-3.3902-1.4519-3.2198 1.7983 0.3332-3.6729z" transform="matrix(3.3567 .17689 -.17683 3.3574 35.814 32.089)"/>
  <path id="path4018" style="opacity:.8;fill:url(#linearGradient4092)" d="m70 50.75-5.781 10.969-12.219 2.093 8.625 8.907-1.75 12.281 11.125-5.469 11.125 5.469-1.781-12.281 8.656-8.875-12.219-2.125zm-0.03125 3.0625 3.8125 7.2188c0.43138 0.63521 0.56567 1.5512 1.25 1.9688 3.3113 0.63954 6.6463 1.1533 9.9688 1.75l-5.6562 5.7188c-0.49872 0.63221-1.3792 1.0342-1.5312 1.875 0.45108 3.3307 0.98622 6.672 1.4688 10l-7.3125-3.5625c-0.70394-0.256-1.3561-0.8582-2.125-0.84375-3.0739 1.4099-6.0999 2.9497-9.1562 4.4062l1.186-8.219c0.01799-0.73825 0.42072-1.5161 0.09375-2.2188-2.278-2.413-4.608-4.762-6.907-7.156l8-1.4375c0.72842-0.21678 1.6155-0.11807 2.2188-0.625 1.6017-2.9315 3.1193-5.9225 4.6875-8.875z"/>
  <path id="path4057" style="opacity:.05" d="m67.375 49.688a1.0798 1.0798 0 0 0 -0.40625 0.09375c-0.93554 0.35487-1.334 1.0656-1.5312 1.2812a1.0798 1.0798 0 0 0 -0.1875 0.25c-1.5482 3.2289-3.2902 6.4237-4.9375 9.6875-0.0022 0.0043-0.02909-0.0043-0.03125 0-0.18932 0.02047-0.58251 0.05473-1.0312 0.1875v-0.03125c-3.3707 0.6068-6.8241 1.2013-10.156 1.8125a1.0798 1.0798 0 0 0 -0.34375 0.125c-0.51504 0.29221-1.1342 0.82633-1.4062 1.625l-0.032-0.032c-0.02047 0.04274-0.01344 0.08229-0.03125 0.125-0.01374 0.04869-0.05175 0.07408-0.0625 0.125h0.0625c-0.15556 0.43168-0.25601 0.87795-0.21875 1.2812 0.02815 0.30462 0.19986 0.58223 0.34375 0.875h-0.03125c0.02445 0.09668 0.09072 0.10342 0.125 0.1875 0.06864 0.10413 0.02273 0.2093 0.125 0.3125l0.03125-0.03125c0.17483 0.27321 0.33458 0.59871 0.5 0.75 0.26572 0.24302 0.46866 0.43594 0.5625 0.5625a1.0798 1.0798 0 0 0 0.09375 0.09375l6.7188 6.875c-0.5228 3.7078-1.1514 7.4526-1.5938 11.219a1.0798 1.0798 0 0 0 0 0.34375c0.06123 0.30692 0.14024 0.66785 0.34375 1.0625 0.13256 0.25706 0.41926 0.44766 0.6875 0.65625l-0.03125 0.03125c0.05574 0.0683 0.12996 0.03813 0.1875 0.09375 0.0941 0.05976 0.11573 0.17485 0.21875 0.21875l0.03125-0.0625c0.28375 0.19238 0.56121 0.40276 0.875 0.46875 0.47305 0.09948 1.019 0.13075 1.5625-0.0625 0.72471-0.25846 1.3881-0.69636 1.875-0.90625a1.0798 1.0798 0 0 0 0.033 -0.033l8.1875-4.0312 9.7812 4.8438a1.0798 1.0798 0 0 0 0.187 0.062c0.28769 0.07865 0.67971 0.1645 1.125 0.1875 0.41308 0.02134 0.93671 0.02806 1.4688-0.40625 0.04148-0.03386 0.08352-0.02266 0.125-0.0625 0.4824-0.23307 0.85964-0.58634 1.0938-1.0625l0.03125 0.03125c0.02967-0.04237 0.0057-0.0822 0.03125-0.125 0.03003-0.06975 0.1023-0.11493 0.125-0.1875l-0.0625-0.03125c0.18538-0.42156 0.32716-0.86649 0.3125-1.2188-0.01881-0.45201-0.11018-0.84124-0.15625-1.1562l-1.4375-9.9375c2.5213-2.5817 5.0355-5.1541 7.5625-7.7188 0.031-0.03146 0.06274-0.06229 0.09375-0.09375l-0.03-0.029c0.36566-0.34575 0.61443-0.73812 0.75-1.1875 0.13776-0.45665 0.17522-0.993 0.03125-1.5312h0.03125c-0.0055-0.02596-0.02506-0.03699-0.03125-0.0625-0.0066-0.02205 0.0072-0.04036 0-0.0625h-0.03125c-0.1973-0.72508-0.63245-1.3074-1.0938-1.6875a1.0798 1.0798 0 0 0 -0.25 -0.125c-0.69241-0.3195-1.367-0.40095-2.0625-0.5h-0.03125l-9.594-1.593c-1.768-3.386-3.6-6.81-5.313-10.157a1.0798 1.0798 0 0 0 -0.374 -0.406c-0.11457-0.07523-0.32172-0.27273-0.6875-0.5-0.32935-0.20464-0.86047-0.33147-1.4062-0.3125v-0.0625c-0.13046-0.0046-0.35365-0.05263-0.71875-0.0625z" transform="translate(62,-1)"/>
  <path id="path4059" style="opacity:0.08" d="m129.33 49.794c-0.6194 0.23495-0.76769 0.62581-1.1042 0.9939-1.5806 3.2965-3.3453 6.5434-4.9968 9.8208-0.26625 0.6539-1.2238 0.37237-1.7947 0.61399-3.3762 0.60779-6.8342 1.2133-10.158 1.823-0.48462 0.27495-0.89194 0.5696-1.0049 1.1043-0.27443 0.57283-0.17145 1.3942 0.12138 1.6897 0.13254 0.52406 0.81244 0.84132 1.2158 1.3852 2.3532 2.419 4.7065 4.8381 7.0597 7.2571-0.54004 3.9001-1.2089 7.7873-1.6679 11.695 0.11618 0.58232 0.22794 1.071 0.77287 1.3032 0.26305 0.32231 1.0689 0.51105 1.6673 0.29828 0.50728-0.18091 1.1924-0.60979 1.7998-0.87166 2.8912-1.4192 5.7824-2.8384 8.6736-4.2577 3.4174 1.6881 6.8347 3.3762 10.252 5.0642 0.46938 0.12832 1.3471 0.30703 1.6839-0.01647 0.49294-0.08551 0.84812-0.42882 0.9938-0.8945 0.33874-0.48366 0.15716-1.2191 0.0557-1.9131-0.50236-3.4909-1.0047-6.9819-1.5071-10.473 2.6708-2.7327 5.3236-5.4842 8.0057-8.2052 0.41373-0.3455 0.71355-1.1508 0.51353-1.7615-0.10386-0.48615-0.41599-0.89972-0.77839-1.1983-0.46351-0.21388-1.1007-0.31499-1.8076-0.4165l-10.178-1.688c-1.839-3.5312-3.7437-7.0869-5.5425-10.603-0.45966-0.30184-0.80483-0.79953-1.5403-0.71242-0.24498-0.0087-0.4897-0.03209-0.73428-0.0387z"/>
  <path id="path4061" style="opacity:.15" d="m10.344 4.7188a0.28524 0.28524 0 0 0 -0.094 0.0624 0.28524 0.28524 0 0 0 -0.062 0.0938l-1.4692 3.2188-3.4688 0.8124a0.28524 0.28524 0 0 0 -0.2188 0.3126 0.28524 0.28524 0 0 0 0.0626 0.1562 0.28524 0.28524 0 0 0 0.0312 0.0312l2.5938 2.4062-0.3125 3.5a0.28524 0.28524 0 0 0 0.0312 0.157 0.28524 0.28524 0 0 0 0.0625 0.093 0.28524 0.28524 0 0 0 0.1562 0.063 0.28524 0.28524 0 0 0 0.1563 -0.031l3.125-1.7188 3.2188 1.375a0.28524 0.28524 0 0 0 0.25 0 0.28524 0.28524 0 0 0 0.09375 -0.0625 0.28524 0.28524 0 0 0 0.0625 -0.125 0.28524 0.28524 0 0 0 0 -0.125l-0.687-3.469 2.344-2.6565a0.28524 0.28524 0 0 0 0.0625 -0.25 0.28524 0.28524 0 0 0 -0.0625 -0.125 0.28524 0.28524 0 0 0 -0.094 -0.0625 0.28524 0.28524 0 0 0 -0.094 -0.0312l-3.5-0.40625-1.8438-3.0938a0.28524 0.28524 0 0 0 -0.3125 -0.125 0.28524 0.28524 0 0 0 -0.03125 0z" transform="matrix(3.3567 .17689 -.17683 3.3574 95.814 33.089)"/>
  <path id="path4063" style="opacity:.3" d="m5.3053 9.174 3.5961-0.8181 1.5476-3.3474l1.8893 3.1673 3.6619 0.43772-2.4284 2.7756 0.7153 3.618-3.3902-1.4519-3.2198 1.7983 0.3332-3.6729z" transform="matrix(3.3567 .17689 -.17683 3.3574 95.814 33.089)"/>
  <path id="path4065" style="fill:url(#linearGradient3127)" d="m5.3053 9.174 3.5961-0.8181 1.5476-3.3474l1.8893 3.1673 3.6619 0.43772-2.4284 2.7756 0.7153 3.618-3.3902-1.4519-3.2198 1.7983 0.3332-3.6729z" transform="matrix(3.3567 .17689 -.17683 3.3574 95.814 32.089)"/>
  <path id="path4067" style="fill:url(#linearGradient4079)" d="m130 50.75-5.78 10.969-12.22 2.093 8.62 8.907-1.74 12.281 11.12-5.469 11.12 5.469-1.78-12.281 8.66-8.875l-12.219-2.125zm-0.0312 3.0625 3.8125 7.2188c0.43138 0.63521 0.56567 1.5512 1.25 1.9688 3.3113 0.63954 6.6463 1.1533 9.9688 1.75l-5.6562 5.7188c-0.49872 0.63221-1.3792 1.0342-1.5312 1.875 0.45108 3.3307 0.98622 6.672 1.4688 10l-7.3125-3.5625c-0.70394-0.256-1.3561-0.8582-2.125-0.84375-3.0739 1.4099-6.0999 2.9497-9.1562 4.4062l1.19-8.219c0.018-0.73825 0.42072-1.5161 0.0937-2.2188-2.2774-2.4128-4.6072-4.7619-6.9062-7.1562l8-1.4375c0.72843-0.21678 1.6156-0.11807 2.2188-0.625 1.6017-2.9315 3.1193-5.9225 4.6875-8.875z"/>
  <path id="path4069" style="fill:url(#linearGradient4081)" d="m129.97 53.812c-1.5682 2.9525-3.0858 5.9435-4.6875 8.875-0.6032 0.50693-1.4903 0.40822-2.2188 0.625l-8 1.4375c2.299 2.3943 4.6288 4.7435 6.9062 7.1562 0.32697 0.70263-0.0758 1.4805-0.0937 2.2188l-1.1875 8.2188c3.0564-1.4565 6.0824-2.9963 9.1562-4.4062 0.76892-0.01445 1.4211 0.58775 2.125 0.84375l7.3125 3.5625c-0.48253-3.328-1.0177-6.6693-1.4688-10 0.15208-0.84077 1.0325-1.2428 1.5312-1.875l5.67-5.719c-3.3225-0.5967-6.6575-1.1105-9.9688-1.75-0.68433-0.41759-0.81862-1.3335-1.25-1.9688l-3.8125-7.2188z"/>
  <path id="path4071" style="opacity:.1;fill:#a40" d="m129.97 53.812c-1.5682 2.9525-3.0858 5.9435-4.6875 8.875-0.6032 0.50693-1.4903 0.40822-2.2188 0.625l-8 1.4375c2.299 2.3943 4.6288 4.7435 6.9062 7.1562 0.32697 0.70263-0.0759 1.4805-0.0937 2.2188l-1.1875 8.2188c3.0564-1.4565 6.0824-2.9963 9.1562-4.4062 0.76892-0.01445 1.4211 0.58775 2.125 0.84375l7.3125 3.5625c-0.48253-3.328-1.0177-6.6693-1.4688-10 0.15208-0.84077 1.0325-1.2428 1.5312-1.875l5.67-5.719c-3.3225-0.5967-6.6575-1.1105-9.9688-1.75-0.68433-0.41759-0.81862-1.3335-1.25-1.9688l-3.8125-7.2188zm0 3.4062 2.4062 4.5625a1.592 1.592 0 0 0 0.0937 0.15625c0.059 0.08694 0.18698 0.38682 0.40625 0.84375s0.56811 1.1083 1.3125 1.5625a1.592 1.592 0 0 0 0.53125 0.21875c2.3452 0.45295 4.676 0.82368 7 1.2188l-3.5 3.5625a1.592 1.592 0 0 0 -0.125 0.125c-0.0689 0.0873-0.3579 0.31729-0.75 0.6875s-0.92985 1.0001-1.0938 1.9062a1.592 1.592 0 0 0 0 0.5c0.3196 2.3598 0.67881 4.6897 1.0312 7.0312l-4.625-2.25a1.592 1.592 0 0 0 -0.16 -0.061c-0.24718-0.08989-1.071-0.96788-2.6875-0.9375a1.592 1.592 0 0 0 -0.62 0.156c-2.2036 1.0107-4.349 2.0745-6.5 3.125l0.75-5.2812a1.592 1.592 0 0 0 0.0312 -0.1875c0.002-0.09341 0.0751-0.41641 0.15625-0.90625 0.0812-0.48984 0.14503-1.2183-0.21875-2a1.592 1.592 0 0 0 -0.2812 -0.4375c-1.6119-1.7077-3.2236-3.3641-4.8438-5.0312l5.0625-0.90625a1.592 1.592 0 0 0 0.1875 -0.03125c0.13159-0.03916 0.47855-0.07318 0.96875-0.15625s1.1777-0.24777 1.8125-0.78125a1.592 1.592 0 0 0 0.375 -0.46875c1.133-2.0737 2.1969-4.143 3.2812-6.2188z"/>
  <path id="path4073" style="opacity:.2;fill:#a40" d="m129.97 53.812c-1.5682 2.9525-3.0858 5.9435-4.6875 8.875-0.6032 0.50693-1.4903 0.40822-2.2188 0.625l-8 1.4375c2.299 2.3943 4.6288 4.7435 6.9062 7.1562 0.32697 0.70263-0.0759 1.4805-0.0937 2.2188l-1.1875 8.2188c3.0564-1.4565 6.0824-2.9963 9.1562-4.4062 0.76892-0.01445 1.4211 0.58775 2.125 0.84375l7.3125 3.5625c-0.48253-3.328-1.0177-6.6693-1.4688-10 0.15208-0.84077 1.0325-1.2428 1.5312-1.875l5.67-5.719c-3.3225-0.5967-6.6575-1.1105-9.9688-1.75-0.68433-0.41759-0.81862-1.3335-1.25-1.9688l-3.8125-7.2188zm0 1.9688 3 5.6875a0.93563 0.93563 0 0 0 0.03 0.094c0.12363 0.18204 0.26854 0.52029 0.46875 0.9375s0.48394 0.95945 1.0625 1.3125a0.93563 0.93563 0 0 0 0.3125 0.09375c2.7506 0.53125 5.5136 0.96527 8.25 1.4375l-4.4062 4.4688a0.93563 0.93563 0 0 0 -0.0937 0.0625c-0.14328 0.18163-0.42651 0.44633-0.78125 0.78125s-0.77857 0.8254-0.90625 1.5312a0.93563 0.93563 0 0 0 -0.0312 0.28125c0.37387 2.7605 0.80946 5.5049 1.2188 8.25l-5.71-2.781a0.93563 0.93563 0 0 0 -0.0937 -0.03125c-0.44-0.159-1.21-0.931-2.48-0.907a0.93563 0.93563 0 0 0 -0.34375 0.09375c-2.5617 1.175-5.0792 2.4361-7.5938 3.6562l0.9375-6.5a0.93563 0.93563 0 0 0 0 -0.09375c0.005-0.20708 0.0829-0.55768 0.15625-1 0.0733-0.44232 0.12496-1.052-0.15625-1.6562a0.93563 0.93563 0 0 0 -0.15625 -0.25c-1.8863-1.9985-3.7884-3.9459-5.6875-5.9062l6.25-1.125a0.93563 0.93563 0 0 0 0.125 0c0.2275-0.0677 0.58309-0.11156 1.0312-0.1875 0.44816-0.07594 1.0026-0.20696 1.5-0.625a0.93563 0.93563 0 0 0 0.21875 -0.28125c1.3327-2.4391 2.5913-4.8973 3.875-7.3438z"/>
  <path id="path4075" style="opacity:.4;fill:#a40" d="m129.97 53.812c-1.5682 2.9525-3.0858 5.9435-4.6875 8.875-0.6032 0.50693-1.4903 0.40822-2.2188 0.625l-8 1.4375c0.27583 0.28727 0.56718 0.5576 0.84375 0.84375l7.1562-1.2812c0.72843-0.21678 1.6156-0.11807 2.2188-0.625 1.6017-2.9315 3.1193-5.9225 4.6875-8.875l3.8125 7.2188c0.43138 0.63521 0.56567 1.5512 1.25 1.9688 3.0311 0.58543 6.0819 1.059 9.125 1.5938l0.84-0.845c-3.3225-0.5967-6.6575-1.1105-9.9688-1.75-0.68433-0.41759-0.81862-1.3335-1.25-1.9688l-3.8125-7.2188zm7.9375 19.25c-0.0396 0.09269-0.0747 0.17615-0.0937 0.28125 0.4018 2.9667 0.8739 5.9395 1.3125 8.9062l0.15625 0.09375c-0.44791-3.0893-0.94574-6.1882-1.375-9.2812zm-15.875 0.0625c-0.0621 0.33344-0.14826 0.67213-0.15625 1l-1.1875 8.2188c0.0506-0.02409 0.10571-0.03836 0.15625-0.0625l1.03-7.155c0.0163-0.6675 0.33468-1.3526 0.15625-2z"/>
  <path id="path4094" style="opacity:.3;fill:#a40" d="m70 78.531-10.969 5.407-0.156 1.062 11.125-5.469 11.125 5.469-0.156-1.062z"/>
 </g>
</svg>
