<?xml version="1.0" encoding="UTF-8" standalone="no"?>
<!-- Created with Inkscape (http://www.inkscape.org/) -->
<svg id="svg2408" xmlns:rdf="http://www.w3.org/1999/02/22-rdf-syntax-ns#" xmlns="http://www.w3.org/2000/svg" height="96" width="96" version="1.0" xmlns:cc="http://creativecommons.org/ns#" xmlns:xlink="http://www.w3.org/1999/xlink" xmlns:dc="http://purl.org/dc/elements/1.1/">
 <defs id="defs2410">
  <linearGradient id="ButtonShadow" y2="7.0165" gradientUnits="userSpaceOnUse" x2="45.448" gradientTransform="scale(1.0059 .99417)" y1="92.54" x1="45.448">
   <stop id="stop3750" offset="0"/>
   <stop id="stop3752" style="stop-opacity:.58824" offset="1"/>
  </linearGradient>
  <linearGradient id="linearGradient3737">
   <stop id="stop3739" style="stop-color:#fff" offset="0"/>
   <stop id="stop3741" style="stop-color:#fff;stop-opacity:0" offset="1"/>
  </linearGradient>
  <filter id="filter3174" color-interpolation-filters="sRGB">
   <feGaussianBlur id="feGaussianBlur3176" stdDeviation="1.71"/>
  </filter>
  <linearGradient id="linearGradient3188" y2="63.893" xlink:href="#linearGradient3737" gradientUnits="userSpaceOnUse" x2="36.357" y1="6" x1="36.357"/>
  <radialGradient id="radialGradient3619" xlink:href="#linearGradient3737" gradientUnits="userSpaceOnUse" cy="90.172" cx="48" gradientTransform="matrix(1.1573 0 0 .99591 -7.551 .19713)" r="42"/>
  <linearGradient id="linearGradient2843" y2="5.9877" gradientUnits="userSpaceOnUse" x2="48" gradientTransform="translate(0,100)" y1="90" x1="48">
   <stop id="stop3702" style="stop-color:#2276c5" offset="0"/>
   <stop id="stop3704" style="stop-color:#68baf4" offset="1"/>
  </linearGradient>
  <clipPath id="clipPath3625">
   <path id="path3627" style="fill:#fff" d="m0 0v96h96v-96h-96zm12 6h72c3.324 0 6 2.676 6 6v72c0 3.324-2.676 6-6 6h-72c-3.324 0-6-2.676-6-6v-72c0-3.324 2.676-6 6-6z"/>
  </clipPath>
  <linearGradient id="linearGradient3643" y2="90.015" gradientUnits="userSpaceOnUse" x2="44.512" y1="6" x1="44.512">
   <stop id="stop3639" style="stop-color:#f0f0f0" offset="0"/>
   <stop id="stop3641" style="stop-color:#dcdcdc" offset="1"/>
  </linearGradient>
  <clipPath id="clipPath3649">
   <rect id="rect3651" style="fill:#fff" rx="4" ry="4" height="76" width="76" y="10" x="10"/>
  </clipPath>
  <filter id="filter3657" color-interpolation-filters="sRGB">
   <feGaussianBlur id="feGaussianBlur3659" stdDeviation="1.14"/>
  </filter>
  <linearGradient id="linearGradient4081">
   <stop id="stop4083" style="stop-color:#aaa" offset="0"/>
   <stop id="stop4085" style="stop-color:#f0f0f0" offset="1"/>
  </linearGradient>
  <linearGradient id="linearGradient2995" y2="24" xlink:href="#linearGradient4081" gradientUnits="userSpaceOnUse" x2="48" gradientTransform="translate(80)" y1="72" x1="48"/>
  <linearGradient id="ButtonShadow-0" y2="7.0165" gradientUnits="userSpaceOnUse" x2="45.448" gradientTransform="matrix(1.0059 0 0 .99417 100 0)" y1="92.54" x1="45.448">
   <stop id="stop3750-8" offset="0"/>
   <stop id="stop3752-5" style="stop-opacity:.58824" offset="1"/>
  </linearGradient>
  <linearGradient id="linearGradient3780" y2="90.239" xlink:href="#ButtonShadow-0" gradientUnits="userSpaceOnUse" x2="32.251" gradientTransform="matrix(1.0238 0 0 -1.0119 -1.1429 98.071)" y1="6.1317" x1="32.251"/>
  <linearGradient id="linearGradient3721-1" y2="90.239" xlink:href="#ButtonShadow-0" gradientUnits="userSpaceOnUse" x2="32.251" gradientTransform="matrix(1,0,0,-1,0,97)" y1="6.1317" x1="32.251"/>
  <radialGradient id="radialGradient3619-1" xlink:href="#linearGradient3737" gradientUnits="userSpaceOnUse" cy="90.172" cx="48" gradientTransform="matrix(1.1573 0 0 .99591 -7.551 .19713)" r="42"/>
  <linearGradient id="linearGradient3175" y2="39" xlink:href="#linearGradient4081" gradientUnits="userSpaceOnUse" x2="57" y1="76" x1="57"/>
  <linearGradient id="linearGradient3177" y2="20" xlink:href="#linearGradient4081" gradientUnits="userSpaceOnUse" x2="57" y1="63" x1="57"/>
 </defs>
 <metadata id="metadata2413">
  <rdf:RDF>
   <cc:Work rdf:about="">
    <dc:format>image/svg+xml</dc:format>
    <dc:type rdf:resource="http://purl.org/dc/dcmitype/StillImage"/>
    <dc:title/>
   </cc:Work>
  </rdf:RDF>
 </metadata>
 <g id="layer2" style="display:none">
  <rect id="rect3745" style="opacity:.9;filter:url(#filter3174);fill:url(#ButtonShadow)" clip-path="url(#clipPath3625)" rx="6" ry="6" height="85" width="86" y="7" x="5"/>
 </g>
 <g id="layer8">
  <path id="path3786" style="opacity:0.08;fill:url(#linearGradient3780)" d="m12 3.9688c-5.5111 0-10.031 4.5201-10.031 10.031v71c0 5.5111 4.5202 10.031 10.031 10.031h72c5.5111 0 10.031-4.5202 10.031-10.031v-71c0-5.5111-4.52-10.031-10.031-10.031h-72zm0 2.0312h72c3.324 0 6 2.676 6 6v72c0 3.324-2.676 6-6 6h-72c-3.324 0-6-2.676-6-6v-72c0-3.324 2.676-6 6-6z"/>
  <path id="path3778" style="opacity:.1;fill:url(#linearGradient3780)" d="m12 4.9688c-4.9716 0-9.0312 4.0596-9.0312 9.0312v71c0 4.9716 4.0596 9.0312 9.0312 9.0312h72c4.9716 0 9.0312-4.0596 9.0312-9.0312v-71c0-4.9716-4.059-9.0312-9.031-9.0312h-72zm0 1.0312h72c3.324 0 6 2.676 6 6v72c0 3.324-2.676 6-6 6h-72c-3.324 0-6-2.676-6-6v-72c0-3.324 2.676-6 6-6z"/>
  <path id="path3770" style="opacity:.2;fill:url(#linearGradient3780)" d="m11.188 6.0312c-4.028 0.4107-7.188 3.8352-7.188 7.9688v71c0 4.4091 3.5909 8 8 8h72c4.4091 0 8-3.5909 8-8v-71c0-4.1971-3.259-7.646-7.375-7.9688 3.033 0.3062 5.375 2.8526 5.375 5.9688v72c0 3.324-2.676 6-6 6h-72c-3.324 0-6-2.676-6-6v-72c0-3.1162 2.3421-5.6626 5.375-5.9688-0.06227 0.00488-0.12563-0.00631-0.1875 0z"/>
  <path id="rect3723" style="opacity:.3;fill:url(#linearGradient3780)" d="m6.4375 9.75c-0.8995 1.177-1.4375 2.647-1.4375 4.25v71c0 3.878 3.122 7 7 7h72c3.878 0 7-3.122 7-7v-71c0-1.603-0.538-3.073-1.438-4.25 0.28 0.694 0.438 1.454 0.438 2.25v72c0 3.324-2.676 6-6 6h-72c-3.324 0-6-2.676-6-6v-72c0-0.796 0.1582-1.556 0.4375-2.25z"/>
  <path id="rect3716" style="opacity:.45;fill:url(#linearGradient3721-1)" d="m6 84v1c0 3.324 2.676 6 6 6h72c3.324 0 6-2.676 6-6v-1c0 3.324-2.676 6-6 6h-72c-3.324 0-6-2.676-6-6z"/>
 </g>
 <g id="layer1" style="display:none">
  <rect id="rect2419" style="opacity:.7" rx="6" ry="6" height="84" width="84" y="6" x="6"/>
  <path id="rect3726" style="opacity:0.08" d="m14 10c-2.216 0-4 1.784-4 4v68c0 2.216 1.784 4 4 4h68c2.216 0 4-1.784 4-4v-68c0-2.216-1.784-4-4-4h-68zm0 3.0625h68c0.57877 0 0.9375 0.35873 0.9375 0.9375v68c0 0.57877-0.35873 0.9375-0.9375 0.9375h-68c-0.57877 0-0.9375-0.35873-0.9375-0.9375v-68c0-0.57877 0.35873-0.9375 0.9375-0.9375z"/>
  <path id="rect3629" style="fill:url(#linearGradient3643)" d="m12 6c-3.324 0-6 2.676-6 6v72c0 3.324 2.676 6 6 6h72c3.324 0 6-2.676 6-6v-72c0-3.324-2.676-6-6-6h-72zm2 4h68c2.216 0 4 1.784 4 4v68c0 2.216-1.784 4-4 4h-68c-2.216 0-4-1.784-4-4v-68c0-2.216 1.784-4 4-4z"/>
  <path id="rect3728" style="fill:url(#linearGradient3188)" d="m12 6c-3.324 0-6 2.676-6 6v2 68 2c0 0.33472 0.04135 0.6507 0.09375 0.96875 0.0487 0.2956 0.09704 0.59692 0.1875 0.875 0.00988 0.03038 0.020892 0.0636 0.03125 0.09375 0.098865 0.28777 0.23488 0.54745 0.375 0.8125 0.14459 0.27351 0.31562 0.53562 0.5 0.78125 0.18438 0.24564 0.37378 0.47347 0.59375 0.6875 0.43995 0.42806 0.94291 0.81453 1.5 1.0938 0.27854 0.13961 0.57347 0.24695 0.875 0.34375-0.2562-0.10022-0.48671-0.23627-0.71875-0.375-0.00741-0.0044-0.023866 0.0045-0.03125 0-0.031933-0.0193-0.062293-0.04251-0.09375-0.0625-0.1204-0.0767-0.23102-0.16351-0.34375-0.25-0.10617-0.0808-0.21328-0.16111-0.3125-0.25-0.1778-0.162-0.3473-0.346-0.4999-0.531-0.1075-0.131-0.2183-0.266-0.3124-0.407-0.0251-0.038-0.0385-0.086-0.0626-0.125-0.0647-0.103-0.1302-0.204-0.1874-0.312-0.1011-0.195-0.2057-0.416-0.2813-0.625-0.008-0.022-0.0236-0.041-0.0313-0.063-0.0318-0.092-0.0358-0.187-0.0624-0.281-0.0304-0.107-0.0704-0.203-0.0938-0.313-0.0729-0.341-0.125-0.698-0.125-1.062v-2-68-2c0-2.782 2.2182-5 5-5h2 68 2c2.7818 0 5 2.2182 5 5v2 68 2c0 0.3643-0.05212 0.72099-0.125 1.0625-0.04415 0.20689-0.08838 0.39766-0.15625 0.59375-0.0077 0.02195-0.0233 0.04069-0.03125 0.0625-0.06274 0.17374-0.13838 0.36745-0.21875 0.53125-0.04158 0.0828-0.07904 0.16995-0.125 0.25-0.0546 0.09721-0.12677 0.18835-0.1875 0.28125-0.09411 0.14096-0.20492 0.276-0.3125 0.40625-0.14317 0.17445-0.30314 0.347-0.46875 0.5-0.01117 0.0102-0.01998 0.02115-0.03125 0.03125-0.13839 0.12556-0.28509 0.23444-0.4375 0.34375-0.10257 0.07315-0.20432 0.15336-0.3125 0.21875-0.0074 0.0045-0.02384-0.0044-0.03125 0-0.23204 0.13873-0.46255 0.27478-0.71875 0.375 0.30153-0.0968 0.59646-0.20414 0.875-0.34375 0.55709-0.27922 1.0601-0.66569 1.5-1.0938 0.21997-0.21403 0.40937-0.44186 0.59375-0.6875s0.35541-0.50774 0.5-0.78125c0.14012-0.26505 0.27614-0.52473 0.375-0.8125 0.01041-0.03078 0.02133-0.06274 0.03125-0.09375 0.09046-0.27808 0.1388-0.5794 0.1875-0.875 0.053-0.318 0.094-0.634 0.094-0.969v-2-68-2c0-3.324-2.676-6-6-6h-72z"/>
  <path id="path3615" style="opacity:.6;fill:url(#radialGradient3619)" d="m12 90c-3.324 0-6-2.676-6-6v-2-68-2c0-0.33472 0.04135-0.6507 0.09375-0.96875 0.0487-0.2956 0.09704-0.59692 0.1875-0.875 0.0099-0.03 0.0209-0.063 0.0313-0.094 0.0989-0.2873 0.2349-0.547 0.375-0.812 0.1446-0.2735 0.3156-0.5356 0.5-0.7812 0.1844-0.2457 0.3738-0.4735 0.5937-0.6876 0.44-0.428 0.943-0.8145 1.5-1.0937 0.2786-0.1396 0.5735-0.2469 0.8748-0.3437-0.256 0.1002-0.4865 0.2362-0.7185 0.375-0.00741 0.0044-0.023866-0.0045-0.03125 0-0.031933 0.0193-0.062293 0.04251-0.09375 0.0625-0.1204 0.0767-0.23102 0.16351-0.34375 0.25-0.10617 0.0808-0.21328 0.16111-0.3125 0.25-0.1779 0.1614-0.3474 0.3453-0.5 0.5312-0.1075 0.1303-0.2183 0.2653-0.3124 0.4063-0.0251 0.0383-0.0385 0.0858-0.0626 0.125-0.0647 0.103-0.1302 0.2045-0.1874 0.3124-0.1011 0.1948-0.2057 0.4158-0.2813 0.625-0.008 0.0219-0.0236 0.0406-0.0313 0.0626-0.0318 0.0919-0.0358 0.1868-0.0624 0.2812-0.0304 0.1066-0.0704 0.203-0.0938 0.3125-0.0729 0.3415-0.125 0.6985-0.125 1.0625v2 68 2c0 2.7818 2.2182 5 5 5h2 68 2c2.7818 0 5-2.2182 5-5v-2-68-2c0-0.364-0.052-0.721-0.125-1.0625-0.044-0.2069-0.088-0.3977-0.156-0.5937-0.008-0.022-0.024-0.0407-0.031-0.0626-0.063-0.1737-0.139-0.3674-0.219-0.5312-0.042-0.0828-0.079-0.17-0.125-0.25-0.055-0.0972-0.127-0.1884-0.188-0.2812-0.094-0.141-0.205-0.276-0.312-0.4063-0.143-0.1745-0.303-0.347-0.469-0.5-0.011-0.0102-0.02-0.0211-0.031-0.0313-0.139-0.1255-0.285-0.2344-0.438-0.3437-0.102-0.0731-0.204-0.1534-0.312-0.2187-0.0074-0.0045-0.02384 0.0044-0.03125 0-0.23204-0.13873-0.46255-0.27478-0.71875-0.375 0.30153 0.0968 0.59646 0.20414 0.875 0.34375 0.55709 0.27922 1.0601 0.66569 1.5 1.0938 0.21997 0.21403 0.40937 0.44186 0.59375 0.6875s0.35541 0.50774 0.5 0.78125c0.14012 0.26505 0.27614 0.52473 0.375 0.8125 0.01041 0.03078 0.02133 0.06274 0.03125 0.09375 0.09046 0.27808 0.1388 0.5794 0.1875 0.875 0.053 0.318 0.094 0.634 0.094 0.969v2 68 2c0 3.324-2.676 6-6 6h-72z"/>
  <rect id="rect2841" style="fill:url(#linearGradient2843)" rx="6" ry="6" height="84" width="84" y="106" x="6"/>
  <rect id="rect3634" style="fill:#f00" rx="4" ry="4" height="76" width="76" y="110" x="10"/>
  <path id="rect3647" style="block-progression:tb;text-indent:0;filter:url(#filter3657);color:#000000;text-transform:none;display:inline" d="m14 9c-2.7527 0-5 2.2473-5 5v68c0 2.7527 2.2473 5 5 5h68c2.7527 0 5-2.2473 5-5v-68c0-2.753-2.247-5-5-5h-68zm0 2h68c1.6793 0 3 1.3207 3 3v68c0 1.6793-1.3207 3-3 3h-68c-1.6793 0-3-1.3207-3-3v-68c0-1.6793 1.3207-3 3-3z" clip-path="url(#clipPath3649)" transform="translate(-110)"/>
  <path id="path3709" style="opacity:0.16" d="m14.089 10c-2.216 0-4 1.784-4 4v68c0 2.216 1.784 4 4 4h68c2.216 0 4-1.784 4-4v-68c0-2.216-1.784-4-4-4h-68zm0 2h68c1.1403 0 2 0.8597 2 2v68c0 1.1403-0.8597 2-2 2h-68c-1.1403 0-2-0.8597-2-2v-68c0-1.1403 0.8597-2 2-2z"/>
  <path id="path3707" style="opacity:0.36" d="m14 10c-2.216 0-4 1.784-4 4v68c0 2.216 1.784 4 4 4h68c2.216 0 4-1.784 4-4v-68c0-2.216-1.784-4-4-4h-68zm0 1h68c1.6738 0 3 1.3262 3 3v68c0 1.6738-1.3262 3-3 3h-68c-1.6738 0-3-1.3262-3-3v-68c0-1.6738 1.3262-3 3-3z"/>
 </g>
 <g id="layer13">
  <rect id="rect2419-7" style="opacity:.6" rx="6" ry="6" height="84" width="84" y="6" x="6"/>
  <path id="rect3728-5" style="opacity:0.01;fill:url(#linearGradient3188)" d="m12 6c-3.324 0-6 2.676-6 6v2 68 2c0 0.33472 0.04135 0.6507 0.09375 0.96875 0.0487 0.2956 0.09704 0.59692 0.1875 0.875 0.00988 0.03038 0.020892 0.0636 0.03125 0.09375 0.098865 0.28777 0.23488 0.54745 0.375 0.8125 0.14459 0.27351 0.31562 0.53562 0.5 0.78125 0.18438 0.24564 0.37378 0.47347 0.59375 0.6875 0.43995 0.42806 0.94291 0.81453 1.5 1.0938 0.27854 0.13961 0.57347 0.24695 0.875 0.34375-0.2562-0.10022-0.48671-0.23627-0.71875-0.375-0.00741-0.0044-0.023866 0.0045-0.03125 0-0.031933-0.0193-0.062293-0.04251-0.09375-0.0625-0.1204-0.0767-0.23102-0.16351-0.34375-0.25-0.10617-0.0808-0.21328-0.16111-0.3125-0.25-0.1778-0.162-0.3473-0.346-0.4999-0.531-0.1075-0.131-0.2183-0.266-0.3124-0.407-0.0251-0.038-0.0385-0.086-0.0626-0.125-0.0647-0.103-0.1302-0.204-0.1874-0.312-0.1011-0.195-0.2057-0.416-0.2813-0.625-0.008-0.022-0.0236-0.041-0.0313-0.063-0.0318-0.092-0.0358-0.187-0.0624-0.281-0.0304-0.107-0.0704-0.203-0.0938-0.313-0.0729-0.341-0.125-0.698-0.125-1.062v-2-68-2c0-2.782 2.2182-5 5-5h2 68 2c2.7818 0 5 2.2182 5 5v2 68 2c0 0.3643-0.05212 0.72099-0.125 1.0625-0.04415 0.20689-0.08838 0.39766-0.15625 0.59375-0.0077 0.02195-0.0233 0.04069-0.03125 0.0625-0.06274 0.17374-0.13838 0.36745-0.21875 0.53125-0.04158 0.0828-0.07904 0.16995-0.125 0.25-0.0546 0.09721-0.12677 0.18835-0.1875 0.28125-0.09411 0.14096-0.20492 0.276-0.3125 0.40625-0.14317 0.17445-0.30314 0.347-0.46875 0.5-0.01117 0.0102-0.01998 0.02115-0.03125 0.03125-0.13839 0.12556-0.28509 0.23444-0.4375 0.34375-0.10257 0.07315-0.20432 0.15336-0.3125 0.21875-0.0074 0.0045-0.02384-0.0044-0.03125 0-0.23204 0.13873-0.46255 0.27478-0.71875 0.375 0.30153-0.0968 0.59646-0.20414 0.875-0.34375 0.55709-0.27922 1.0601-0.66569 1.5-1.0938 0.21997-0.21403 0.40937-0.44186 0.59375-0.6875s0.35541-0.50774 0.5-0.78125c0.14012-0.26505 0.27614-0.52473 0.375-0.8125 0.01041-0.03078 0.02133-0.06274 0.03125-0.09375 0.09046-0.27808 0.1388-0.5794 0.1875-0.875 0.053-0.318 0.094-0.634 0.094-0.969v-2-68-2c0-3.324-2.676-6-6-6h-72z"/>
  <path id="path3615-2" style="opacity:.15;fill:url(#radialGradient3619-1)" d="m12 90c-3.324 0-6-2.676-6-6v-2-68-2c0-0.33472 0.04135-0.6507 0.09375-0.96875 0.0487-0.2956 0.09704-0.59692 0.1875-0.875 0.0099-0.03 0.0209-0.063 0.0313-0.094 0.0989-0.2873 0.2349-0.547 0.375-0.812 0.1446-0.2735 0.3156-0.5356 0.5-0.7812 0.1844-0.2457 0.3738-0.4735 0.5937-0.6876 0.44-0.428 0.943-0.8145 1.5-1.0937 0.2786-0.1396 0.5735-0.2469 0.8748-0.3437-0.256 0.1002-0.4865 0.2362-0.7185 0.375-0.00741 0.0044-0.023866-0.0045-0.03125 0-0.031933 0.0193-0.062293 0.04251-0.09375 0.0625-0.1204 0.0767-0.23102 0.16351-0.34375 0.25-0.10617 0.0808-0.21328 0.16111-0.3125 0.25-0.1779 0.1614-0.3474 0.3453-0.5 0.5312-0.1075 0.1303-0.2183 0.2653-0.3124 0.4063-0.0251 0.0383-0.0385 0.0858-0.0626 0.125-0.0647 0.103-0.1302 0.2045-0.1874 0.3124-0.1011 0.1948-0.2057 0.4158-0.2813 0.625-0.008 0.0219-0.0236 0.0406-0.0313 0.0626-0.0318 0.0919-0.0358 0.1868-0.0624 0.2812-0.0304 0.1066-0.0704 0.203-0.0938 0.3125-0.0729 0.3415-0.125 0.6985-0.125 1.0625v2 68 2c0 2.7818 2.2182 5 5 5h2 68 2c2.7818 0 5-2.2182 5-5v-2-68-2c0-0.364-0.052-0.721-0.125-1.0625-0.044-0.2069-0.088-0.3977-0.156-0.5937-0.008-0.022-0.024-0.0407-0.031-0.0626-0.063-0.1737-0.139-0.3674-0.219-0.5312-0.042-0.0828-0.079-0.17-0.125-0.25-0.055-0.0972-0.127-0.1884-0.188-0.2812-0.094-0.141-0.205-0.276-0.312-0.4063-0.143-0.1745-0.303-0.347-0.469-0.5-0.011-0.0102-0.02-0.0211-0.031-0.0313-0.139-0.1255-0.285-0.2344-0.438-0.3437-0.102-0.0731-0.204-0.1534-0.312-0.2187-0.0074-0.0045-0.02384 0.0044-0.03125 0-0.23204-0.13873-0.46255-0.27478-0.71875-0.375 0.30153 0.0968 0.59646 0.20414 0.875 0.34375 0.55709 0.27922 1.0601 0.66569 1.5 1.0938 0.21997 0.21403 0.40937 0.44186 0.59375 0.6875s0.35541 0.50774 0.5 0.78125c0.14012 0.26505 0.27614 0.52473 0.375 0.8125 0.01041 0.03078 0.02133 0.06274 0.03125 0.09375 0.09046 0.27808 0.1388 0.5794 0.1875 0.875 0.053 0.318 0.094 0.634 0.094 0.969v2 68 2c0 3.324-2.676 6-6 6h-72z"/>
 </g>
 <g id="layer3">
  <path id="path5347" style="opacity:.1;color:#000000" d="m51.75 18.969c-1.6944 0.16522-1.9521 2.0652-1.7812 3.424v14.795c-2.2247 0.08217-4.4859-0.16553-6.6875 0.125-1.6239 0.5967-1.6527 2.8787-0.28345 3.777 5.2796 5.5762 10.495 11.22 15.815 16.754 1.3524 1.0319 2.81-0.17501 3.6206-1.2728 5.091-5.461 10.297-10.84 15.317-16.352 0.92077-1.475-0.60106-3.3985-2.2606-3.0312h-5.5519c-0.02083-5.5304 0.04167-11.068-0.03125-16.594-0.35608-1.7439-2.3026-1.7161-3.7019-1.625h-14.454zm-16 21c-1.6054 0.4436-2.3939 2.1645-3.6138 3.1977-4.614 4.955-9.343 9.827-13.886 14.833-0.92077 1.475 0.60106 3.3985 2.2606 3.0312h5.5519c0.02083 5.5304-0.04167 11.068 0.03125 16.594 0.35608 1.7439 2.3026 1.7161 3.7019 1.625 4.8693-0.02067 9.7455 0.04146 14.611-0.03125 1.7439-0.35608 1.7161-2.3026 1.625-3.7019v-14.486c2.2247-0.08217 4.4859 0.16553 6.6875-0.125 1.6239-0.5967 1.6527-2.8787 0.28345-3.777-5.291-5.586-10.516-11.244-15.847-16.785-0.409-0.295-0.907-0.402-1.406-0.375z"/>
  <path id="path5343" style="opacity:.15;color:#000000" d="m51.906 20.062a0.93308 0.93308 0 0 0 -0.844 0.938v17.281h-7.0625a0.93308 0.93308 0 0 0 -0.6875 1.5625l16 17a0.93308 0.93308 0 0 0 1.375 0l16-17a0.93308 0.93308 0 0 0 -0.687 -1.563h-7.1562v-17.281a0.93308 0.93308 0 0 0 -0.9375 -0.9375h-15.906a0.93308 0.93308 0 0 0 -0.09375 0zm-16 21a0.93308 0.93308 0 0 0 -0.594 0.313l-16 17a0.93308 0.93308 0 0 0 0.688 1.563h7.1562v17.281a0.93308 0.93308 0 0 0 0.9375 0.9375h15.906a0.93308 0.93308 0 0 0 0.9375 -0.9375v-17.281h7.0625a0.93308 0.93308 0 0 0 0.6875 -1.5625l-16-17a0.93308 0.93308 0 0 0 -0.78125 -0.3125z"/>
  <path id="path5337" style="opacity:.3;color:#000000" d="m52 21v18.219h-8l16 17 16-17h-8.0938v-18.219h-15.906zm-16 21-16 17h8.0938v18.219h15.906v-18.219h8l-16-17z"/>
  <path id="path3802" style="opacity:0.08" d="m48 21.906c-14.935 0-27.094 12.159-27.094 27.094s12.159 27.094 27.094 27.094 27.094-12.159 27.094-27.094-12.159-27.094-27.094-27.094zm4.0938 16.188h2.7812v5.875c-0.000224-0.10848-0.000456 0.05614 0 0.125-0.000028 0.02336-0.000072 0.18678 0 0.1875 0.000253 0.0096-0.000007 0.12496 0 0.125l0.03125 0.0625v0.03125 0.03125c0.000018 0.000065-0.0016 0.02608 0 0.03125 0.0031 0.01033 0.03015 0.0278 0.03125 0.03125 0.002 0.006-0.0017 0.02604 0 0.03125 0.0035 0.01041-0.0039 0.01958 0 0.03125s0.02869 0.02361 0.03125 0.03125c0.0017 0.0051-0.0017 0.02627 0 0.03125-0.000177-0.000704 0.0078 0.05459 0 0.03125 0.0091 0.0302 0.02528 0.0759 0.03125 0.09375 0.0078 0.02335 0.03104 0.03056 0.03125 0.03125 0.000423 0.0014 0.03076 0.12364 0.03125 0.125 0.000372 0.001 0.0171 0.08486 0.03125 0.125 0.0039 0.01168 0.02794 0.02132 0.03125 0.03125 0.000839 0.0025-0.0017 0.02625 0 0.03125 0.0025 0.0077-0.0039 0.01956 0 0.03125s0.02779 0.02086 0.03125 0.03125c0.0058 0.01424-0.000012 0.03122 0 0.03125 0.0018 0.005-0.000025 0.03119 0 0.03125h0.03125v0.03125 0.03125 0.03125s0.04677 0.0028 0.0625 0.03125c0.01573 0.02846 0.03125 0.0625 0.03125 0.0625s-0.0056 0.02197 0 0.03125l0.9375-0.625c0.000031 0.000038-0.43515 0.39225-0.65625 0.59375-0.05885 0.04298-0.1875 0.125-0.1875 0.125s-0.02622 0.0071-0.03125 0c-0.01097-0.01641 0.0269 0.02458 0.03125 0.03125 0.0043 0.0067 0.01786 0.01096 0.03125 0.03125 0.04284 0.06492 0.06197 0.12428 0.0625 0.125 0.000004 0.000006-0.0035 0.02708 0 0.03125l-1.9688 1.8125-1.9688-1.875c0.04088-0.06051 0.10357-0.1552 0.0625-0.09375 0.0034-0.0037-0.0065-0.02399 0-0.03125 0.01199-0.01937 0.03125-0.03125 0.03125-0.03125s-0.03048 0.000638-0.03125 0c-0.0355-0.02927-0.84375-0.71875-0.84375-0.71875l0.9375 0.625c0.0056-0.0093 0-0.03125 0-0.03125 0.0063-0.01502 0.02947-0.02661 0.03125-0.03125 0.0025-0.0054-0.0037-0.02314 0-0.03125 0.01573-0.02846 0.0625-0.03125 0.0625-0.03125v-0.03125-0.03125c0.000025-0.000063 0.02943-0.05752 0.03125-0.0625-0.000027 0.000057 0.01732-0.02827 0.03125-0.0625 0.0039-0.01169-0.0025-0.02358 0-0.03125 0.0017-0.005-0.000839-0.02876 0-0.03125 0.0033-0.0099 0.02737-0.01957 0.03125-0.03125 0.01415-0.04014 0.03088-0.12396 0.03125-0.125 0.00049-0.0014 0.03083-0.12361 0.03125-0.125 0.000211-0.000694 0.02345-0.0079 0.03125-0.03125 0.006-0.01785 0.02213-0.06355 0.03125-0.09375-0.0078 0.02334 0.000177-0.03195 0-0.03125 0.0017-0.005-0.0017-0.0262 0-0.03125 0.0026-0.0076 0.02733-0.01958 0.03125-0.03125 0.0039-0.01167-0.0035-0.02084 0-0.03125 0.0017-0.0052-0.002-0.02524 0-0.03125 0.0011-0.0035 0.02814-0.02092 0.03125-0.03125v-0.03125-0.03125-0.03125c0.000007-0.000045 0.031-0.17789 0.03125-0.1875 0.000253-0.0096-0.000041-0.02797 0-0.03125 0.0011-0.02595-0.001-0.08899 0-0.125-0.000037 0.000725-0.000028-0.05461 0-0.03125 0.000456-0.06886 0.000224-0.23348 0-0.125v-5.875zm-0.40625 7.4375c-0.01859 0.03094-0.0625 0.0625-0.0625 0.0625 0.0047-0.0086 0.03125 0 0.03125 0l0.03125-0.0625zm3.5938 0l0.03125 0.0625s0.02652-0.0086 0.03125 0c0 0-0.04391-0.03156-0.0625-0.0625zm-12.812 4.7812 1.9688 1.875c-0.04088 0.06051-0.10357 0.1552-0.0625 0.09375 0 0 0.01065 0.04528 0 0.0625 0.0355 0.02927 0.84375 0.71875 0.84375 0.71875l-0.9375-0.625c-0.000011 0.000025 0.0042 0.02124 0 0.03125 0 0 0.0029 0.02598 0 0.03125-0.0058 0.01054-0.02077 0.01228-0.03125 0.03125-0.01573 0.02846-0.0625 0.03125-0.0625 0.03125v0.03125 0.03125c-0.000025 0.000063-0.02943 0.05752-0.03125 0.0625 0.000027-0.000057-0.01732 0.02827-0.03125 0.0625-0.0039 0.01169 0.0025 0.02358 0 0.03125-0.0017 0.005 0.000839 0.02876 0 0.03125 0.000278-0.00067-0.039 0.05461-0.03125 0.03125-0.01415 0.04014-0.03088 0.12396-0.03125 0.125-0.00049 0.0014-0.03083 0.12361-0.03125 0.125-0.000211 0.000694-0.02345 0.0079-0.03125 0.03125-0.006 0.01785-0.02213 0.06355-0.03125 0.09375-0.0039 0.01167 0.0033 0.02129 0 0.03125-0.0017 0.005 0.0017 0.0262 0 0.03125-0.0026 0.0076-0.02733 0.01958-0.03125 0.03125-0.0039 0.01167 0.0035 0.02084 0 0.03125-0.0017 0.0052 0.002 0.02524 0 0.03125-0.0011 0.0035-0.02814 0.02092-0.03125 0.03125v0.03125 0.03125 0.03125c-0.000007 0.000045-0.031 0.17789-0.03125 0.1875 0.000072-0.000721 0.000045 0.11712 0 0.09375-0.0014 0.037-0.000014 0.08207 0 0.09375-0.000456 0.06886-0.000224 0.23348 0 0.125v5.875h-2.7812v-5.875c0.000224 0.10848 0.000456-0.05614 0-0.125-0.000028 0.02336-0.000037-0.03198 0-0.03125-0.000508-0.018 0.000928-0.03783 0-0.0625-0.00003 0.01558 0.0016-0.03741 0-0.0625-0.000041-0.0033 0.000253-0.02164 0-0.03125-0.000253-0.0096 0.000007-0.12496 0-0.125l-0.03125-0.0625v-0.03125-0.03125c-0.000018-0.000065 0.0016-0.02608 0-0.03125-0.0016-0.0052-0.03041 0.0027-0.03125 0 0.000004 0.000021 0.0027-0.02099 0-0.03125-0.002-0.006 0.0017-0.02604 0-0.03125-0.0035-0.01041 0.0039-0.01958 0-0.03125s-0.02869-0.02361-0.03125-0.03125c-0.0017-0.0051 0.0017-0.02627 0-0.03125 0.000177 0.000704-0.0078-0.05459 0-0.03125-0.0091-0.0302-0.02528-0.0759-0.03125-0.09375-0.0078-0.02335-0.03104-0.03056-0.03125-0.03125-0.000423-0.0014-0.03076-0.12364-0.03125-0.125-0.000372-0.001-0.0171-0.08486-0.03125-0.125 0.0078 0.02336-0.03153-0.03192-0.03125-0.03125-0.000839-0.0025 0.0017-0.02625 0-0.03125-0.000516-0.0015 0.006-0.01642 0-0.03125-0.0039-0.01169-0.02779-0.02086-0.03125-0.03125-0.001-0.003 0.0023-0.02452 0-0.03125-0.0018-0.005 0.000025-0.03119 0-0.03125h-0.03125v-0.03125-0.03125-0.03125s-0.04677-0.0028-0.0625-0.03125c-0.0018-0.0051 0.0059-0.01579 0-0.03125-0.0047-0.0084-0.02834 0.0053-0.03125 0v-0.03125-0.03125l-0.9375 0.625c-0.000031-0.000038 0.43515-0.39225 0.65625-0.59375 0.05885-0.04298 0.1875-0.125 0.1875-0.125 0.0025 0.0036 0.0026-0.02725 0-0.03125-0.01304-0.01451-0.02687-0.02665-0.03125-0.03125-0.04284-0.06492-0.06197-0.12428-0.0625-0.125-0.000004-0.000006 0.0035-0.02708 0-0.03125l1.9688-1.8125zm-1.7812 2.125l-0.03125-0.0625s-0.02652 0.0086-0.03125 0c0 0 0.04391 0.03156 0.0625 0.0625zm3.5938 0c0.01859-0.03094 0.0625-0.0625 0.0625-0.0625-0.0047 0.0086-0.03125 0-0.03125 0l-0.03125 0.0625z" transform="translate(80)"/>
  <path id="path3798" style="opacity:.1" d="m48 23.031c-14.324 0-25.969 11.645-25.969 25.969s11.645 25.969 25.969 25.969 25.969-11.645 25.969-25.969-11.645-25.969-25.969-25.969zm2.9688 13.938h5.0312v7c0.000003 0.0015-0.000074 0.0923 0 0.09375 0.000074 0.0014-0.000144 0.09231 0 0.09375 0.000144 0.0014-0.000215 0.09231 0 0.09375 0.000215 0.0014 0.03097 0.09233 0.03125 0.09375 0.000285 0.0014 0.0309 0.09234 0.03125 0.09375 0.000354 0.0014 0.03083 0.09236 0.03125 0.09375 0.000423 0.0014 0.03076 0.09239 0.03125 0.09375 0.00049 0.0014 0.03069 0.09241 0.03125 0.09375 0.000556 0.0013 0.03063 0.09244 0.03125 0.09375 0.000621 0.0013 0.03057 0.09247 0.03125 0.09375 0.000685 0.0013 0.06175 0.06126 0.0625 0.0625 0.000746 0.0012 0.03044 0.09254 0.03125 0.09375 0.000806 0.0012 0.06164 0.09258 0.0625 0.09375 0.000865 0.0012 0.06158 0.06138 0.0625 0.0625 0.000921 0.0011 0.06153 0.06142 0.0625 0.0625 0.000974 0.0011 0.06147 0.09272 0.0625 0.09375 0.001 0.001 0.09267 0.06153 0.09375 0.0625 0.0011 0.000974 0.06138 0.06158 0.0625 0.0625 0.0011 0.000921 0.06133 0.06164 0.0625 0.0625 0.0012 0.000865 0.09254 0.06169 0.09375 0.0625 0.0012 0.000806 0.09251 0.0305 0.09375 0.03125 0.0012 0.000746 0.06122 0.06182 0.0625 0.0625 0.0013 0.000685 0.09244 0.03063 0.09375 0.03125 0.000918 0.000435 0.03672 0.01981 0.0625 0.03125l-3.688 3.437-3.688-3.469c0.01105-0.0049 0.03086 0.000186 0.03125 0 0.0013-0.000621 0.09247-0.03057 0.09375-0.03125 0.0013-0.000685 0.06126-0.06175 0.0625-0.0625 0.0012-0.000746 0.09254-0.03044 0.09375-0.03125 0.0012-0.000806 0.09258-0.06164 0.09375-0.0625 0.0012-0.000865 0.06138-0.06158 0.0625-0.0625 0.0011-0.000921 0.06142-0.06153 0.0625-0.0625 0.0011-0.000974 0.09272-0.06147 0.09375-0.0625 0.001-0.001 0.06153-0.09267 0.0625-0.09375 0.000974-0.0011 0.06158-0.06138 0.0625-0.0625 0.000921-0.0011 0.06164-0.06133 0.0625-0.0625 0.000865-0.0012 0.06169-0.09254 0.0625-0.09375 0.000806-0.0012 0.0305-0.09251 0.03125-0.09375 0.000746-0.0012 0.06182-0.06122 0.0625-0.0625 0.000685-0.0013 0.03063-0.09244 0.03125-0.09375 0.000621-0.0013 0.03069-0.09241 0.03125-0.09375 0.000556-0.0013 0.03076-0.09239 0.03125-0.09375 0.00049-0.0014 0.03083-0.09236 0.03125-0.09375 0.000423-0.0014 0.0309-0.09234 0.03125-0.09375 0.000354-0.0014 0.03097-0.09233 0.03125-0.09375 0.000285-0.0014 0.03104-0.09231 0.03125-0.09375 0.000215-0.0014-0.000144-0.09231 0-0.09375 0.000144-0.0014-0.000074-0.0923 0-0.09375 0.000074-0.0014-0.000003-0.0923 0-0.09375v-7zm-8.5 11.781 3.6875 3.4688c-0.01105 0.0049-0.03086-0.000186-0.03125 0-0.0013 0.000621-0.09247 0.03057-0.09375 0.03125-0.0013 0.000685-0.06126 0.06175-0.0625 0.0625-0.0012 0.000746-0.09254 0.03044-0.09375 0.03125-0.0012 0.000806-0.09258 0.06164-0.09375 0.0625-0.0012 0.000865-0.06138 0.06158-0.0625 0.0625-0.0011 0.000921-0.06142 0.06153-0.0625 0.0625-0.0011 0.000974-0.09272 0.06147-0.09375 0.0625-0.001 0.001-0.06153 0.09267-0.0625 0.09375-0.000974 0.0011-0.06158 0.06138-0.0625 0.0625-0.000921 0.0011-0.06164 0.06133-0.0625 0.0625-0.000865 0.0012-0.06169 0.09254-0.0625 0.09375-0.000806 0.0012-0.0305 0.09251-0.03125 0.09375-0.000746 0.0012-0.06182 0.06122-0.0625 0.0625-0.000685 0.0013-0.03063 0.09244-0.03125 0.09375-0.000621 0.0013-0.03069 0.09241-0.03125 0.09375-0.000556 0.0013-0.03076 0.09239-0.03125 0.09375-0.00049 0.0014-0.03083 0.09236-0.03125 0.09375-0.000423 0.0014-0.0309 0.09234-0.03125 0.09375-0.000354 0.0014-0.03097 0.09233-0.03125 0.09375-0.000285 0.0014-0.03104 0.09231-0.03125 0.09375-0.000215 0.0014 0.000144 0.09231 0 0.09375-0.000144 0.0014 0.000074 0.0923 0 0.09375-0.000074 0.0014 0.000003 0.0923 0 0.09375v7h-5.0312v-7c-0.000003-0.0015 0.000074-0.0923 0-0.09375-0.000074-0.0014 0.000144-0.09231 0-0.09375-0.000144-0.0014 0.000215-0.09231 0-0.09375-0.000215-0.0014-0.03097-0.09233-0.03125-0.09375-0.000285-0.0014-0.0309-0.09234-0.03125-0.09375-0.000354-0.0014-0.03083-0.09236-0.03125-0.09375-0.000423-0.0014-0.03076-0.09239-0.03125-0.09375-0.00049-0.0014-0.03069-0.09241-0.03125-0.09375-0.000556-0.0013-0.03063-0.09244-0.03125-0.09375-0.000621-0.0013-0.03057-0.09247-0.03125-0.09375-0.000685-0.0013-0.06175-0.06126-0.0625-0.0625-0.000746-0.0012-0.03044-0.09254-0.03125-0.09375-0.000806-0.0012-0.06164-0.09258-0.0625-0.09375-0.000865-0.0012-0.06158-0.06138-0.0625-0.0625-0.000921-0.0011-0.06153-0.06142-0.0625-0.0625-0.000974-0.0011-0.06147-0.09272-0.0625-0.09375-0.001-0.001-0.09267-0.06153-0.09375-0.0625-0.0011-0.000974-0.06138-0.06158-0.0625-0.0625-0.0011-0.000921-0.06133-0.06164-0.0625-0.0625-0.0012-0.000865-0.09254-0.06169-0.09375-0.0625-0.0012-0.000806-0.09251-0.0305-0.09375-0.03125-0.0012-0.000746-0.06122-0.06182-0.0625-0.0625-0.0013-0.000685-0.09244-0.03063-0.09375-0.03125-0.000918-0.000435-0.03672-0.01981-0.0625-0.03125l3.6875-3.4375z" transform="translate(80)"/>
  <path id="path3794" style="opacity:.15" d="m48 23.969c-13.813 0-25.031 11.218-25.031 25.031s11.218 25.031 25.031 25.031 25.031-11.218 25.031-25.031-11.218-25.031-25.031-25.031zm2.0312 12.062h6.9062v7.9375a1.033 1.033 0 0 0 1.032 1.032h1.406l-5.875 5.531-5.875-5.531h1.375a1.033 1.033 0 0 0 1.0312 -1.0312v-7.9375zm-7.5625 11.406 5.875 5.5312h-1.375a1.033 1.033 0 0 0 -1.03 1.032v7.9375h-6.9062v-7.9375a1.033 1.033 0 0 0 -1.032 -1.031h-1.4062l5.875-5.5312z" transform="translate(80)"/>
  <path id="path3788" style="opacity:.3" d="m128 25c-13.255 0-24 10.745-24 24s10.745 24 24 24 24-10.745 24-24-10.745-24-24-24zm1 10h8.9688v8.9688h4l-8.4688 8-8.5-8h4v-8.969zm-6.5312 11 8.5 8h-4v8.9688h-8.9688v-8.9688h-4l8.4688-8z"/>
  <path id="path2949" style="fill:url(#linearGradient2995)" d="m128 24c-13.255 0-24 10.745-24 24s10.745 24 24 24 24-10.745 24-24-10.745-24-24-24zm1 10h8.9688v8.9688h4l-8.4688 8-8.5-8h4v-8.969zm-6.5312 11 8.5 8h-4v8.9688h-8.9688v-8.9688h-4l8.4688-8z"/>
  <path id="path2998" style="opacity:.75;fill:#fff" d="m128 24c-13.255 0-24 10.745-24 24 0 0.16558-0.003 0.33522 0 0.5 0.26384-13.026 10.911-23.5 24-23.5s23.736 10.474 24 23.5c0.003-0.16478 0-0.33442 0-0.5 0-13.255-10.745-24-24-24zm-3 19.969 8.5 8 8.4688-8h-1.0625l-7.4062 7-7.4375-7h-1.0625zm-9.94 9.031-1.06 1h4v-1h-2.9375zm11.906 0v1h4l-1.0625-1h-2.9375zm-8.97 8.969v1h8.9688v-1h-8.9688z"/>
  <path id="path3779" style="opacity:.15" d="m129 33v1h8.9688v-1h-8.97zm-4 8.9688 1.0625 1h2.9375v-1h-4zm12.969 0v1h2.9375l1.0625-1h-4zm-15.5 2.031-8.47 8h1.0625l7.4062-7 7.4375 7h1.0625l-8.5-8zm-18.47 3.5c-0.003 0.16478 0 0.33442 0 0.5 0 13.255 10.745 24 24 24s24-10.745 24-24c0-0.16558 0.003-0.33522 0-0.5-0.26 13.026-10.91 23.5-24 23.5s-23.74-10.474-24-23.5z"/>
  <path id="path3173" style="color:#000000;fill:url(#linearGradient3177)" d="m52 20v18.219h-8l16 17 16-17h-8.0938v-18.219h-15.906z"/>
  <path id="rect4793" style="color:#000000;fill:url(#linearGradient3175)" d="m36 41-16 17h8.0938v18.219h15.906v-18.219h8l-16-17z"/>
  <path id="path5319" style="opacity:.75;color:#000000;fill:#fff" d="m52 20v1h15.906v-1h-15.906zm-8 18.219 0.9375 1h7.0625v-1h-8zm23.906 0v1h7.1562l0.9375-1h-8.0938zm-31.906 2.781-16 17h0.938l15.062-16 15.062 16h0.938l-16-17z"/>
  <path id="path5328" style="opacity:.15;color:#000000" d="m44 38.219 16 17 16-17h-0.9375l-15.062 16-15.062-16h-0.9375zm-23.062 18.781-0.938 1h8.0938v-1h-7.1562zm23.062 0v1h8l-0.938-1h-7.062zm-15.906 18.219v1h15.906v-1h-15.906z"/>
 </g>
</svg>
