<?xml version="1.0" encoding="UTF-8" standalone="no"?>
<!-- Created with Inkscape (http://www.inkscape.org/) -->
<svg id="svg2408" xmlns:rdf="http://www.w3.org/1999/02/22-rdf-syntax-ns#" xmlns="http://www.w3.org/2000/svg" height="96" width="96" version="1.0" xmlns:cc="http://creativecommons.org/ns#" xmlns:xlink="http://www.w3.org/1999/xlink" xmlns:dc="http://purl.org/dc/elements/1.1/">
 <defs id="defs2410">
  <linearGradient id="linearGradient3637">
   <stop id="stop3639" style="stop-color:#f0f0f0" offset="0"/>
   <stop id="stop3641" style="stop-color:#aaa" offset="1"/>
  </linearGradient>
  <linearGradient id="ButtonShadow" y2="7.0165" gradientUnits="userSpaceOnUse" x2="45.448" gradientTransform="scale(1.0059 .99417)" y1="92.54" x1="45.448">
   <stop id="stop3750" offset="0"/>
   <stop id="stop3752" style="stop-opacity:.58824" offset="1"/>
  </linearGradient>
  <linearGradient id="linearGradient3737">
   <stop id="stop3739" style="stop-color:#fff" offset="0"/>
   <stop id="stop3741" style="stop-color:#fff;stop-opacity:0" offset="1"/>
  </linearGradient>
  <filter id="filter3174" color-interpolation-filters="sRGB">
   <feGaussianBlur id="feGaussianBlur3176" stdDeviation="1.71"/>
  </filter>
  <linearGradient id="linearGradient3188" y2="63.893" xlink:href="#linearGradient3737" gradientUnits="userSpaceOnUse" x2="36.357" y1="6" x1="36.357"/>
  <filter id="filter3794" height="1.384" width="1.384" color-interpolation-filters="sRGB" y="-.192" x="-.192">
   <feGaussianBlur id="feGaussianBlur3796" stdDeviation="5.28"/>
  </filter>
  <linearGradient id="linearGradient3613" y2="138.66" xlink:href="#linearGradient3737" gradientUnits="userSpaceOnUse" x2="48" y1="20.221" x1="48"/>
  <radialGradient id="radialGradient3619" xlink:href="#linearGradient3737" gradientUnits="userSpaceOnUse" cy="90.172" cx="48" gradientTransform="matrix(1.1573 0 0 .99591 -7.551 .19713)" r="42"/>
  <clipPath id="clipPath3613">
   <rect id="rect3615" style="fill:#fff" rx="6" ry="6" height="84" width="84" y="6" x="6"/>
  </clipPath>
  <linearGradient id="linearGradient2843" y2="5.9877" gradientUnits="userSpaceOnUse" x2="48" gradientTransform="translate(0,100)" y1="90" x1="48">
   <stop id="stop3702" style="stop-color:#2276c5" offset="0"/>
   <stop id="stop3704" style="stop-color:#68baf4" offset="1"/>
  </linearGradient>
  <clipPath id="clipPath3625">
   <path id="path3627" style="fill:#fff" d="m0 0v96h96v-96h-96zm12 6h72c3.324 0 6 2.676 6 6v72c0 3.324-2.676 6-6 6h-72c-3.324 0-6-2.676-6-6v-72c0-3.324 2.676-6 6-6z"/>
  </clipPath>
  <linearGradient id="linearGradient3643" y2="90.015" xlink:href="#linearGradient3637" gradientUnits="userSpaceOnUse" x2="44.512" y1="6" x1="44.512"/>
  <clipPath id="clipPath3649">
   <rect id="rect3651" style="fill:#fff" rx="4" ry="4" height="76" width="76" y="10" x="10"/>
  </clipPath>
  <filter id="filter3657" color-interpolation-filters="sRGB">
   <feGaussianBlur id="feGaussianBlur3659" stdDeviation="1.14"/>
  </filter>
  <linearGradient id="ButtonShadow-0" y2="7.0165" gradientUnits="userSpaceOnUse" x2="45.448" gradientTransform="matrix(1.0059 0 0 .99417 100 0)" y1="92.54" x1="45.448">
   <stop id="stop3750-8" offset="0"/>
   <stop id="stop3752-5" style="stop-opacity:.58824" offset="1"/>
  </linearGradient>
  <linearGradient id="linearGradient3780" y2="90.239" xlink:href="#ButtonShadow-0" gradientUnits="userSpaceOnUse" x2="32.251" gradientTransform="matrix(1.0238 0 0 -1.0119 -1.1429 98.071)" y1="6.1317" x1="32.251"/>
  <linearGradient id="linearGradient3721" y2="90.239" xlink:href="#ButtonShadow-0" gradientUnits="userSpaceOnUse" x2="32.251" gradientTransform="matrix(1,0,0,-1,0,97)" y1="6.1317" x1="32.251"/>
  <radialGradient id="radialGradient3619-3" xlink:href="#linearGradient3737" gradientUnits="userSpaceOnUse" cy="90.172" cx="48" gradientTransform="matrix(1.1573 0 0 .99591 -7.551 .19713)" r="42"/>
  <linearGradient id="linearGradient3905" y2="8" xlink:href="#linearGradient3637" gradientUnits="userSpaceOnUse" x2="120" gradientTransform="translate(-104,104)" y1="8" x1="104"/>
  <linearGradient id="linearGradient3913" y2="8" gradientUnits="userSpaceOnUse" x2="120" gradientTransform="translate(-144,104)" y1="8" x1="104">
   <stop id="stop3185-9" style="stop-color:#c80000" offset="0"/>
   <stop id="stop3187-6" style="stop-color:#f3604d" offset="1"/>
  </linearGradient>
  <linearGradient id="linearGradient3887" y2="18.002" xlink:href="#linearGradient3637" gradientUnits="userSpaceOnUse" x2="9.1735" gradientTransform="matrix(3,0,0,3,16,18)" y1="3.1499" x1="9.1735"/>
 </defs>
 <metadata id="metadata2413">
  <rdf:RDF>
   <cc:Work rdf:about="">
    <dc:format>image/svg+xml</dc:format>
    <dc:type rdf:resource="http://purl.org/dc/dcmitype/StillImage"/>
    <dc:title/>
   </cc:Work>
  </rdf:RDF>
 </metadata>
 <g id="layer2" style="display:none">
  <rect id="rect3745" style="opacity:.9;filter:url(#filter3174);fill:url(#ButtonShadow)" clip-path="url(#clipPath3625)" rx="6" ry="6" height="85" width="86" y="7" x="5"/>
 </g>
 <g id="layer3">
  <path id="path3786" style="opacity:0.08;fill:url(#linearGradient3780)" d="m12 3.9688c-5.5111 0-10.031 4.5201-10.031 10.031v71c0 5.5111 4.5202 10.031 10.031 10.031h72c5.5111 0 10.031-4.5202 10.031-10.031v-71c0-5.5111-4.52-10.031-10.031-10.031h-72zm0 2.0312h72c3.324 0 6 2.676 6 6v72c0 3.324-2.676 6-6 6h-72c-3.324 0-6-2.676-6-6v-72c0-3.324 2.676-6 6-6z"/>
  <path id="path3778" style="opacity:.1;fill:url(#linearGradient3780)" d="m12 4.9688c-4.9716 0-9.0312 4.0596-9.0312 9.0312v71c0 4.9716 4.0596 9.0312 9.0312 9.0312h72c4.9716 0 9.0312-4.0596 9.0312-9.0312v-71c0-4.9716-4.059-9.0312-9.031-9.0312h-72zm0 1.0312h72c3.324 0 6 2.676 6 6v72c0 3.324-2.676 6-6 6h-72c-3.324 0-6-2.676-6-6v-72c0-3.324 2.676-6 6-6z"/>
  <path id="path3770" style="opacity:.2;fill:url(#linearGradient3780)" d="m11.188 6.0312c-4.028 0.4107-7.188 3.8352-7.188 7.9688v71c0 4.4091 3.5909 8 8 8h72c4.4091 0 8-3.5909 8-8v-71c0-4.1971-3.259-7.646-7.375-7.9688 3.033 0.3062 5.375 2.8526 5.375 5.9688v72c0 3.324-2.676 6-6 6h-72c-3.324 0-6-2.676-6-6v-72c0-3.1162 2.3421-5.6626 5.375-5.9688-0.06227 0.00488-0.12563-0.00631-0.1875 0z"/>
  <path id="rect3723" style="opacity:.3;fill:url(#linearGradient3780)" d="m6.4375 9.75c-0.8995 1.177-1.4375 2.647-1.4375 4.25v71c0 3.878 3.122 7 7 7h72c3.878 0 7-3.122 7-7v-71c0-1.603-0.538-3.073-1.438-4.25 0.28 0.694 0.438 1.454 0.438 2.25v72c0 3.324-2.676 6-6 6h-72c-3.324 0-6-2.676-6-6v-72c0-0.796 0.1582-1.556 0.4375-2.25z"/>
  <path id="rect3716" style="opacity:.45;fill:url(#linearGradient3721)" d="m6 84v1c0 3.324 2.676 6 6 6h72c3.324 0 6-2.676 6-6v-1c0 3.324-2.676 6-6 6h-72c-3.324 0-6-2.676-6-6z"/>
 </g>
 <g id="layer1" style="display:none">
  <rect id="rect2419" style="opacity:.8" rx="6" ry="6" height="84" width="84" y="6" x="6"/>
  <path id="rect3726" style="opacity:0.08" d="m14 10c-2.216 0-4 1.784-4 4v68c0 2.216 1.784 4 4 4h68c2.216 0 4-1.784 4-4v-68c0-2.216-1.784-4-4-4h-68zm0 3.0625h68c0.57877 0 0.9375 0.35873 0.9375 0.9375v68c0 0.57877-0.35873 0.9375-0.9375 0.9375h-68c-0.57877 0-0.9375-0.35873-0.9375-0.9375v-68c0-0.57877 0.35873-0.9375 0.9375-0.9375z"/>
  <path id="rect3629" style="fill:url(#linearGradient3643)" d="m12 6c-3.324 0-6 2.676-6 6v72c0 3.324 2.676 6 6 6h72c3.324 0 6-2.676 6-6v-72c0-3.324-2.676-6-6-6h-72zm2 4h68c2.216 0 4 1.784 4 4v68c0 2.216-1.784 4-4 4h-68c-2.216 0-4-1.784-4-4v-68c0-2.216 1.784-4 4-4z"/>
  <path id="rect3728" style="fill:url(#linearGradient3188)" d="m12 6c-3.324 0-6 2.676-6 6v2 68 2c0 0.33472 0.04135 0.6507 0.09375 0.96875 0.0487 0.2956 0.09704 0.59692 0.1875 0.875 0.00988 0.03038 0.020892 0.0636 0.03125 0.09375 0.098865 0.28777 0.23488 0.54745 0.375 0.8125 0.14459 0.27351 0.31562 0.53562 0.5 0.78125 0.18438 0.24564 0.37378 0.47347 0.59375 0.6875 0.43995 0.42806 0.94291 0.81453 1.5 1.0938 0.27854 0.13961 0.57347 0.24695 0.875 0.34375-0.2562-0.10022-0.48671-0.23627-0.71875-0.375-0.00741-0.0044-0.023866 0.0045-0.03125 0-0.031933-0.0193-0.062293-0.04251-0.09375-0.0625-0.1204-0.0767-0.23102-0.16351-0.34375-0.25-0.10617-0.0808-0.21328-0.16111-0.3125-0.25-0.1778-0.162-0.3473-0.346-0.4999-0.531-0.1075-0.131-0.2183-0.266-0.3124-0.407-0.0251-0.038-0.0385-0.086-0.0626-0.125-0.0647-0.103-0.1302-0.204-0.1874-0.312-0.1011-0.195-0.2057-0.416-0.2813-0.625-0.008-0.022-0.0236-0.041-0.0313-0.063-0.0318-0.092-0.0358-0.187-0.0624-0.281-0.0304-0.107-0.0704-0.203-0.0938-0.313-0.0729-0.341-0.125-0.698-0.125-1.062v-2-68-2c0-2.782 2.2182-5 5-5h2 68 2c2.7818 0 5 2.2182 5 5v2 68 2c0 0.3643-0.05212 0.72099-0.125 1.0625-0.04415 0.20689-0.08838 0.39766-0.15625 0.59375-0.0077 0.02195-0.0233 0.04069-0.03125 0.0625-0.06274 0.17374-0.13838 0.36745-0.21875 0.53125-0.04158 0.0828-0.07904 0.16995-0.125 0.25-0.0546 0.09721-0.12677 0.18835-0.1875 0.28125-0.09411 0.14096-0.20492 0.276-0.3125 0.40625-0.14317 0.17445-0.30314 0.347-0.46875 0.5-0.01117 0.0102-0.01998 0.02115-0.03125 0.03125-0.13839 0.12556-0.28509 0.23444-0.4375 0.34375-0.10257 0.07315-0.20432 0.15336-0.3125 0.21875-0.0074 0.0045-0.02384-0.0044-0.03125 0-0.23204 0.13873-0.46255 0.27478-0.71875 0.375 0.30153-0.0968 0.59646-0.20414 0.875-0.34375 0.55709-0.27922 1.0601-0.66569 1.5-1.0938 0.21997-0.21403 0.40937-0.44186 0.59375-0.6875s0.35541-0.50774 0.5-0.78125c0.14012-0.26505 0.27614-0.52473 0.375-0.8125 0.01041-0.03078 0.02133-0.06274 0.03125-0.09375 0.09046-0.27808 0.1388-0.5794 0.1875-0.875 0.053-0.318 0.094-0.634 0.094-0.969v-2-68-2c0-3.324-2.676-6-6-6h-72z"/>
  <path id="path3615" style="opacity:.6;fill:url(#radialGradient3619)" d="m12 90c-3.324 0-6-2.676-6-6v-2-68-2c0-0.33472 0.04135-0.6507 0.09375-0.96875 0.0487-0.2956 0.09704-0.59692 0.1875-0.875 0.0099-0.03 0.0209-0.063 0.0313-0.094 0.0989-0.2873 0.2349-0.547 0.375-0.812 0.1446-0.2735 0.3156-0.5356 0.5-0.7812 0.1844-0.2457 0.3738-0.4735 0.5937-0.6876 0.44-0.428 0.943-0.8145 1.5-1.0937 0.2786-0.1396 0.5735-0.2469 0.8748-0.3437-0.256 0.1002-0.4865 0.2362-0.7185 0.375-0.00741 0.0044-0.023866-0.0045-0.03125 0-0.031933 0.0193-0.062293 0.04251-0.09375 0.0625-0.1204 0.0767-0.23102 0.16351-0.34375 0.25-0.10617 0.0808-0.21328 0.16111-0.3125 0.25-0.1779 0.1614-0.3474 0.3453-0.5 0.5312-0.1075 0.1303-0.2183 0.2653-0.3124 0.4063-0.0251 0.0383-0.0385 0.0858-0.0626 0.125-0.0647 0.103-0.1302 0.2045-0.1874 0.3124-0.1011 0.1948-0.2057 0.4158-0.2813 0.625-0.008 0.0219-0.0236 0.0406-0.0313 0.0626-0.0318 0.0919-0.0358 0.1868-0.0624 0.2812-0.0304 0.1066-0.0704 0.203-0.0938 0.3125-0.0729 0.3415-0.125 0.6985-0.125 1.0625v2 68 2c0 2.7818 2.2182 5 5 5h2 68 2c2.7818 0 5-2.2182 5-5v-2-68-2c0-0.364-0.052-0.721-0.125-1.0625-0.044-0.2069-0.088-0.3977-0.156-0.5937-0.008-0.022-0.024-0.0407-0.031-0.0626-0.063-0.1737-0.139-0.3674-0.219-0.5312-0.042-0.0828-0.079-0.17-0.125-0.25-0.055-0.0972-0.127-0.1884-0.188-0.2812-0.094-0.141-0.205-0.276-0.312-0.4063-0.143-0.1745-0.303-0.347-0.469-0.5-0.011-0.0102-0.02-0.0211-0.031-0.0313-0.139-0.1255-0.285-0.2344-0.438-0.3437-0.102-0.0731-0.204-0.1534-0.312-0.2187-0.0074-0.0045-0.02384 0.0044-0.03125 0-0.23204-0.13873-0.46255-0.27478-0.71875-0.375 0.30153 0.0968 0.59646 0.20414 0.875 0.34375 0.55709 0.27922 1.0601 0.66569 1.5 1.0938 0.21997 0.21403 0.40937 0.44186 0.59375 0.6875s0.35541 0.50774 0.5 0.78125c0.14012 0.26505 0.27614 0.52473 0.375 0.8125 0.01041 0.03078 0.02133 0.06274 0.03125 0.09375 0.09046 0.27808 0.1388 0.5794 0.1875 0.875 0.053 0.318 0.094 0.634 0.094 0.969v2 68 2c0 3.324-2.676 6-6 6h-72z"/>
  <rect id="rect2841" style="fill:url(#linearGradient2843)" rx="6" ry="6" height="84" width="84" y="106" x="6"/>
  <rect id="rect3634" style="fill:#f00" rx="4" ry="4" height="76" width="76" y="110" x="10"/>
  <path id="rect3647" style="block-progression:tb;text-indent:0;filter:url(#filter3657);color:#000000;text-transform:none;display:inline" d="m14 9c-2.7527 0-5 2.2473-5 5v68c0 2.7527 2.2473 5 5 5h68c2.7527 0 5-2.2473 5-5v-68c0-2.753-2.247-5-5-5h-68zm0 2h68c1.6793 0 3 1.3207 3 3v68c0 1.6793-1.3207 3-3 3h-68c-1.6793 0-3-1.3207-3-3v-68c0-1.6793 1.3207-3 3-3z" clip-path="url(#clipPath3649)" transform="translate(-110)"/>
  <path id="path3709" style="opacity:0.16" d="m14.089 10c-2.216 0-4 1.784-4 4v68c0 2.216 1.784 4 4 4h68c2.216 0 4-1.784 4-4v-68c0-2.216-1.784-4-4-4h-68zm0 2h68c1.1403 0 2 0.8597 2 2v68c0 1.1403-0.8597 2-2 2h-68c-1.1403 0-2-0.8597-2-2v-68c0-1.1403 0.8597-2 2-2z"/>
  <path id="path3707" style="opacity:0.36" d="m14 10c-2.216 0-4 1.784-4 4v68c0 2.216 1.784 4 4 4h68c2.216 0 4-1.784 4-4v-68c0-2.216-1.784-4-4-4h-68zm0 1h68c1.6738 0 3 1.3262 3 3v68c0 1.6738-1.3262 3-3 3h-68c-1.6738 0-3-1.3262-3-3v-68c0-1.6738 1.3262-3 3-3z"/>
 </g>
 <g id="layer4">
  <rect id="rect2419-9" style="opacity:.6" rx="6" ry="6" height="84" width="84" y="6" x="6"/>
  <path id="rect3728-4" style="opacity:0.01;fill:url(#linearGradient3188)" d="m12 6c-3.324 0-6 2.676-6 6v2 68 2c0 0.33472 0.04135 0.6507 0.09375 0.96875 0.0487 0.2956 0.09704 0.59692 0.1875 0.875 0.00988 0.03038 0.020892 0.0636 0.03125 0.09375 0.098865 0.28777 0.23488 0.54745 0.375 0.8125 0.14459 0.27351 0.31562 0.53562 0.5 0.78125 0.18438 0.24564 0.37378 0.47347 0.59375 0.6875 0.43995 0.42806 0.94291 0.81453 1.5 1.0938 0.27854 0.13961 0.57347 0.24695 0.875 0.34375-0.2562-0.10022-0.48671-0.23627-0.71875-0.375-0.00741-0.0044-0.023866 0.0045-0.03125 0-0.031933-0.0193-0.062293-0.04251-0.09375-0.0625-0.1204-0.0767-0.23102-0.16351-0.34375-0.25-0.10617-0.0808-0.21328-0.16111-0.3125-0.25-0.1778-0.162-0.3473-0.346-0.4999-0.531-0.1075-0.131-0.2183-0.266-0.3124-0.407-0.0251-0.038-0.0385-0.086-0.0626-0.125-0.0647-0.103-0.1302-0.204-0.1874-0.312-0.1011-0.195-0.2057-0.416-0.2813-0.625-0.008-0.022-0.0236-0.041-0.0313-0.063-0.0318-0.092-0.0358-0.187-0.0624-0.281-0.0304-0.107-0.0704-0.203-0.0938-0.313-0.0729-0.341-0.125-0.698-0.125-1.062v-2-68-2c0-2.782 2.2182-5 5-5h2 68 2c2.7818 0 5 2.2182 5 5v2 68 2c0 0.3643-0.05212 0.72099-0.125 1.0625-0.04415 0.20689-0.08838 0.39766-0.15625 0.59375-0.0077 0.02195-0.0233 0.04069-0.03125 0.0625-0.06274 0.17374-0.13838 0.36745-0.21875 0.53125-0.04158 0.0828-0.07904 0.16995-0.125 0.25-0.0546 0.09721-0.12677 0.18835-0.1875 0.28125-0.09411 0.14096-0.20492 0.276-0.3125 0.40625-0.14317 0.17445-0.30314 0.347-0.46875 0.5-0.01117 0.0102-0.01998 0.02115-0.03125 0.03125-0.13839 0.12556-0.28509 0.23444-0.4375 0.34375-0.10257 0.07315-0.20432 0.15336-0.3125 0.21875-0.0074 0.0045-0.02384-0.0044-0.03125 0-0.23204 0.13873-0.46255 0.27478-0.71875 0.375 0.30153-0.0968 0.59646-0.20414 0.875-0.34375 0.55709-0.27922 1.0601-0.66569 1.5-1.0938 0.21997-0.21403 0.40937-0.44186 0.59375-0.6875s0.35541-0.50774 0.5-0.78125c0.14012-0.26505 0.27614-0.52473 0.375-0.8125 0.01041-0.03078 0.02133-0.06274 0.03125-0.09375 0.09046-0.27808 0.1388-0.5794 0.1875-0.875 0.053-0.318 0.094-0.634 0.094-0.969v-2-68-2c0-3.324-2.676-6-6-6h-72z"/>
  <path id="path3615-6" style="opacity:.15;fill:url(#radialGradient3619-3)" d="m12 90c-3.324 0-6-2.676-6-6v-2-68-2c0-0.33472 0.04135-0.6507 0.09375-0.96875 0.0487-0.2956 0.09704-0.59692 0.1875-0.875 0.0099-0.03 0.0209-0.063 0.0313-0.094 0.0989-0.2873 0.2349-0.547 0.375-0.812 0.1446-0.2735 0.3156-0.5356 0.5-0.7812 0.1844-0.2457 0.3738-0.4735 0.5937-0.6876 0.44-0.428 0.943-0.8145 1.5-1.0937 0.2786-0.1396 0.5735-0.2469 0.8748-0.3437-0.256 0.1002-0.4865 0.2362-0.7185 0.375-0.00741 0.0044-0.023866-0.0045-0.03125 0-0.031933 0.0193-0.062293 0.04251-0.09375 0.0625-0.1204 0.0767-0.23102 0.16351-0.34375 0.25-0.10617 0.0808-0.21328 0.16111-0.3125 0.25-0.1779 0.1614-0.3474 0.3453-0.5 0.5312-0.1075 0.1303-0.2183 0.2653-0.3124 0.4063-0.0251 0.0383-0.0385 0.0858-0.0626 0.125-0.0647 0.103-0.1302 0.2045-0.1874 0.3124-0.1011 0.1948-0.2057 0.4158-0.2813 0.625-0.008 0.0219-0.0236 0.0406-0.0313 0.0626-0.0318 0.0919-0.0358 0.1868-0.0624 0.2812-0.0304 0.1066-0.0704 0.203-0.0938 0.3125-0.0729 0.3415-0.125 0.6985-0.125 1.0625v2 68 2c0 2.7818 2.2182 5 5 5h2 68 2c2.7818 0 5-2.2182 5-5v-2-68-2c0-0.364-0.052-0.721-0.125-1.0625-0.044-0.2069-0.088-0.3977-0.156-0.5937-0.008-0.022-0.024-0.0407-0.031-0.0626-0.063-0.1737-0.139-0.3674-0.219-0.5312-0.042-0.0828-0.079-0.17-0.125-0.25-0.055-0.0972-0.127-0.1884-0.188-0.2812-0.094-0.141-0.205-0.276-0.312-0.4063-0.143-0.1745-0.303-0.347-0.469-0.5-0.011-0.0102-0.02-0.0211-0.031-0.0313-0.139-0.1255-0.285-0.2344-0.438-0.3437-0.102-0.0731-0.204-0.1534-0.312-0.2187-0.0074-0.0045-0.02384 0.0044-0.03125 0-0.23204-0.13873-0.46255-0.27478-0.71875-0.375 0.30153 0.0968 0.59646 0.20414 0.875 0.34375 0.55709 0.27922 1.0601 0.66569 1.5 1.0938 0.21997 0.21403 0.40937 0.44186 0.59375 0.6875s0.35541 0.50774 0.5 0.78125c0.14012 0.26505 0.27614 0.52473 0.375 0.8125 0.01041 0.03078 0.02133 0.06274 0.03125 0.09375 0.09046 0.27808 0.1388 0.5794 0.1875 0.875 0.053 0.318 0.094 0.634 0.094 0.969v2 68 2c0 3.324-2.676 6-6 6h-72z"/>
 </g>
 <g id="layer5" style="display:none">
  <rect id="rect3171" style="opacity:.1;filter:url(#filter3794);stroke:#fff;stroke-linecap:round;stroke-width:.5;fill:url(#linearGradient3613)" clip-path="url(#clipPath3613)" rx="12" ry="12" height="66" width="66" y="15" x="15"/>
 </g>
 <g id="layer6">
  <path id="path3917" style="opacity:.1" d="m53.719 25.969c-1.5576 0.17594-1.8489 1.9173-1.6875 3.1925 0.02083 8.6745-0.04166 17.356 0.03125 26.026 0.09098 1.5827 1.8505 1.9167 3.13 1.75 2.0253-0.08604 4.0926 0.18316 6.0887-0.15625 1.5508-1.6289 3.7825 1.3093 6 0.625 5.5069 0.17157 9.8594-4.7875 10.385-10.012 0.92431-5.6698-1.3667-12.498-7.1345-14.589-2.524-1.1353-6.0228-0.32464-8.063 0.47968-0.09089-2.0379 0.19027-4.1198-0.15625-6.1283-0.81946-1.7547-3.0044-1.0397-4.5348-1.1875h-4.059zm-22.75 0.09375c-1.8092 0.30396-1.8529 2.4884-2.5293 3.8282-3.0527 8.1406-6.1055 16.281-9.1582 24.422-0.5543 1.2335 0.69191 2.8758 2.1184 2.625 2.4368-0.05773 4.8988 0.11846 7.3191-0.09375 1.5978-0.66481 1.5581-2.7053 2.2447-4.0698 0.04385-1.2812 1.4238-0.66866 2.2752-0.80518h6.2614c0.61709 1.4447 0.80797 3.1213 1.7188 4.4062 1.2156 1.0148 2.9495 0.38782 4.4032 0.5625 1.6045-0.11318 3.3032 0.23421 4.8468-0.1875 1.2848-0.5069 1.3773-2.1469 0.76269-3.1537-3.307-8.81-6.61-17.637-9.92-26.439-0.89-1.645-2.986-0.944-4.503-1.094h-5.8402zm4.4375 14.125c0.33333 0.97917 0.66667 1.9583 1 2.9375-0.67885-0.17381-2.5637 0.5158-1.7535-0.72406l0.75351-2.2134zm29.438 0.71875c3.018 0.20183 2.6067 4.6257 1.9104 6.7167-1.839 3.3249-5.3462-0.64759-4.2693-3.3418 0.07878-1.3586 0.50714-3.6455 2.3589-3.3749zm-38.032 18.155c-1.5299 0.39701-2.3697 1.9979-3.5672 2.9734-1.3146 1.4265-2.8903 2.6577-4.0266 4.2141-0.34271 2.2267-0.06787 4.5253-0.15625 6.7812-0.01627 1.7661 2.5255 2.5649 3.4976 1.0962 1.48-1.48 2.96-2.96 4.44-4.439 1.7131 1.6428 3.3244 3.4604 5.0938 5 1.3718 0.78557 2.4944-0.5028 3.3317-1.4254 1.191-1.192 2.382-2.384 3.574-3.575 1.7131 1.6428 3.3244 3.4604 5.0938 5 1.3718 0.78557 2.4944-0.5028 3.3317-1.4254 1.191-1.192 2.382-2.384 3.574-3.575 1.7131 1.6428 3.3244 3.4604 5.0938 5 1.3718 0.78557 2.4944-0.5028 3.3317-1.4254 1.191-1.192 2.382-2.384 3.574-3.575 1.7131 1.6428 3.3244 3.4604 5.0938 5 1.3717 0.78551 2.4936-0.50356 3.3345-1.4226 1.7292-1.8038 3.6544-3.4674 5.2593-5.3586 0.51882-1.6497 0.12874-3.4689 0.25-5.1895 0.05505-1.2783 0.18613-3.0588-1.3438-3.5293-1.7353-0.53961-2.6347 1.394-3.7764 2.3076-0.94 0.938-1.879 1.877-2.818 2.816-1.7131-1.6428-3.3244-3.4604-5.0938-5-1.3718-0.78557-2.4944 0.5028-3.3317 1.4254-1.191 1.192-2.382 2.384-3.574 3.575-1.7131-1.6428-3.3244-3.4604-5.0938-5-1.3718-0.78557-2.4944 0.5028-3.3317 1.4254-1.191 1.192-2.382 2.384-3.574 3.575-1.7131-1.6428-3.3244-3.4604-5.0938-5-1.3718-0.78557-2.4944 0.5028-3.3317 1.4254-1.191 1.192-2.382 2.384-3.574 3.575-1.705-1.627-3.282-3.478-5.062-4.968-0.319-0.242-0.739-0.292-1.126-0.282z"/>
  <path id="path3913" style="opacity:.15" d="m53.875 26.969a0.93991 0.93991 0 0 0 -0.84375 0.9375v27.094a0.93991 0.93991 0 0 0 0.9375 0.9375h6.5625a0.93991 0.93991 0 0 0 0.939 -0.938v-0.65625c0.51712 0.4374 1.0513 0.82813 1.625 1.125 1.2308 0.62333 2.6368 0.9375 4.1875 0.9375 2.7495 0 5.133-1.0834 6.9062-3.25 1.7707-2.1767 2.6562-4.9946 2.6562-8.2812-0.000025-3.2867-0.8821-6.1135-2.6562-8.2812-1.7651-2.1697-4.1364-3.3437-6.9062-3.3438-1.5454 0.000023-2.9482 0.29624-4.1875 0.9375-0.57895 0.29322-1.1071 0.68565-1.625 1.125v-7.4062a0.93991 0.93991 0 0 0 -0.9375 -0.9375h-6.5625a0.93991 0.93991 0 0 0 -0.09375 0zm-22.75 0.09375a0.93991 0.93991 0 0 0 -0.78125 0.59375l-10.125 27a0.93991 0.93991 0 0 0 0.875 1.2812h7.0312a0.93991 0.93991 0 0 0 0.875 -0.626l1.5625-4.3438h9.6562l1.4688 4.3438a0.93991 0.93991 0 0 0 0.875 0.625h7.125a0.93991 0.93991 0 0 0 0.875 -1.2812l-10.125-27a0.93991 0.93991 0 0 0 -0.875 -0.59375h-8.3438a0.93991 0.93991 0 0 0 -0.09375 0zm4.3125 10.094 2.3438 6.9688h-4.7812l2.4375-6.9688zm29.406 2.75c1.1808 0.000013 1.8759 0.34596 2.4375 1.125 0.57777 0.7884 0.93748 2.0393 0.9375 3.8438-0.000017 1.8044-0.35974 3.0554-0.9375 3.8438-0.5616 0.77906-1.2567 1.125-2.4375 1.125-1.1808 0.000003-1.8428-0.32656-2.4375-1.125-0.5826-0.80441-0.93751-2.0522-0.9375-3.8438-0.000008-1.7916 0.36182-3.0582 0.9375-3.8438 0.5934-0.80612 1.2513-1.125 2.4375-1.125zm-37.938 20.155a0.93991 0.93991 0 0 0 -0.5625 0.28125l-6 6a0.93991 0.93991 0 0 0 -0.282 0.657v6a0.93991 0.93991 0 0 0 1.5938 0.65625l5.344-5.344 5.3438 5.3438a0.93991 0.93991 0 0 0 1.3125 0l5.344-5.344 5.3438 5.3438a0.93991 0.93991 0 0 0 1.3125 0l5.344-5.344 5.3438 5.3438a0.93991 0.93991 0 0 0 1.3125 0l5.344-5.344 5.3438 5.3438a0.93991 0.93991 0 0 0 1.3125 0l6-6a0.93991 0.93991 0 0 0 0.282 -0.656v-6a0.93991 0.93991 0 0 0 -1.594 -0.656l-5.344 5.344-5.344-5.344a0.93991 0.93991 0 0 0 -1.3125 0l-5.344 5.344-5.344-5.344a0.93991 0.93991 0 0 0 -1.3125 0l-5.344 5.344-5.344-5.344a0.93991 0.93991 0 0 0 -1.3125 0l-5.344 5.344-5.344-5.344a0.93991 0.93991 0 0 0 -0.75 -0.28125z"/>
  <path id="path3907" style="opacity:.3" d="m53.969 27.906v27.094h6.5625v-3c0.90026 1.1814 1.9051 2.0584 3 2.625 1.0949 0.5545 2.3266 0.84375 3.75 0.84375 2.5183 0 4.5694-0.92924 6.1875-2.9062 1.618-1.9891 2.4375-4.5653 2.4375-7.6875-0.000024-3.1222-0.81947-5.7105-2.4375-7.6875-1.6181-1.989-3.6692-3-6.1875-3-1.4234 0.000021-2.6551 0.2772-3.75 0.84375-1.0949 0.55455-2.0997 1.4436-3 2.625v-9.75h-6.5625zm-22.75 0.094l-10.125 27h7.0312l1.7812-4.9688h10.969l1.6875 4.9688h7.125l-10.125-27h-8.3438zm4.2188 6.2812 3.6562 10.781h-7.4062l3.75-10.781zm29.406 4.6875c1.3991 0.000015 2.4575 0.4874 3.1875 1.5 0.7421 1.0126 1.125 2.4775 1.125 4.4062-0.000018 1.9288-0.3829 3.3936-1.125 4.4062-0.72997 1.0126-1.7884 1.5-3.1875 1.5-1.3991 0.000003-2.4332-0.48738-3.1875-1.5-0.74212-1.0247-1.125-2.4895-1.125-4.4062-0.000009-1.9167 0.38288-3.3936 1.125-4.4062 0.75427-1.0247 1.7884-1.5 3.1875-1.5zm-37.844 22.032l-6 6v6l6-6 6 6 6-6 6 6 6-6 6 6 6-6 6 6 6-6v-6l-6 6-6-6-6 6-6-6-6 6-6-6-6 6-6-6z"/>
  <rect id="rect3897" style="color:#000000;fill:url(#linearGradient3905)" transform="matrix(0,1,1,0,0,0)" height="16" width="16" y="104" x="0"/>
  <text id="text3907" y="48" x="104" xml:space="preserve" style="font-size:4px;letter-spacing:0px;word-spacing:0px;font-family:Liberation Sans;line-height:125%;fill:#000000"><tspan id="tspan3909" y="48" x="104">Shadow opacity : 30, 15, 10, (8)</tspan></text>
  <rect id="rect3911" style="color:#000000;fill:url(#linearGradient3913)" transform="rotate(-90)" height="16" width="16" y="104" x="-40"/>
  <text id="text3951" y="32" x="124" xml:space="preserve" style="font-size:4px;letter-spacing:0px;word-spacing:0px;font-family:Liberation Sans;line-height:125%;fill:#000000"><tspan id="tspan3953" y="32" x="124">Bevel opacity : 30 / 10</tspan></text>
  <text id="text3955" y="8" x="124" xml:space="preserve" style="font-size:4px;letter-spacing:0px;word-spacing:0px;font-family:Liberation Sans;line-height:125%;fill:#000000"><tspan id="tspan3957" y="8" x="124">Bevel opacity : 75 / 15</tspan></text>
  <path id="path3108" style="fill:url(#linearGradient3887)" d="m53.969 26.906v27.094h6.5625v-3c0.90026 1.1814 1.9051 2.0584 3 2.625 1.0949 0.5545 2.3266 0.84375 3.75 0.84375 2.5183 0 4.5694-0.92924 6.1875-2.9062 1.618-1.9891 2.4375-4.5653 2.4375-7.6875-0.000024-3.1222-0.81947-5.7105-2.4375-7.6875-1.6181-1.989-3.6692-3-6.1875-3-1.4234 0.000021-2.6551 0.2772-3.75 0.84375-1.0949 0.55455-2.0997 1.4436-3 2.625v-9.75h-6.5625zm-22.75 0.094l-10.125 27h7.0312l1.7812-4.9688h10.969l1.6875 4.9688h7.125l-10.125-27h-8.3438zm4.2188 6.2812 3.6562 10.781h-7.4062l3.75-10.781zm29.406 4.6875c1.3991 0.000015 2.4575 0.4874 3.1875 1.5 0.7421 1.0126 1.125 2.4775 1.125 4.4062-0.000018 1.9288-0.3829 3.3936-1.125 4.4062-0.72997 1.0126-1.7884 1.5-3.1875 1.5-1.3991 0.000003-2.4332-0.48738-3.1875-1.5-0.74212-1.0247-1.125-2.4895-1.125-4.4062-0.000009-1.9167 0.38288-3.3936 1.125-4.4062 0.75427-1.0247 1.7884-1.5 3.1875-1.5zm-37.844 22.032l-6 6v6l6-6 6 6 6-6 6 6 6-6 6 6 6-6 6 6 6-6v-6l-6 6-6-6-6 6-6-6-6 6-6-6-6 6-6-6z"/>
  <path id="path3889" style="opacity:.75;fill:#fff" d="m53.969 26.906v1h6.5625v-1h-6.5625zm-22.75 0.094l-10.125 27h0.375l9.75-26h8.3438l9.75 26h0.375l-10.125-27h-8.3438zm36.062 6.1875c-1.4234 0.000021-2.6551 0.2772-3.75 0.84375-1.0949 0.55455-2.0997 1.4436-3 2.625v1c0.90026-1.1814 1.9051-2.0705 3-2.625 1.0949-0.56655 2.3266-0.84373 3.75-0.84375 2.5183 0.000021 4.5694 1.011 6.1875 3 1.5306 1.8702 2.3538 4.2887 2.4375 7.1875 0.0048-0.16545-0.000001-0.33135 0-0.5-0.000024-3.1222-0.81947-5.7105-2.4375-7.6875-1.6181-1.989-3.6692-3-6.1875-3zm-35.25 10.875-0.34375 1h7.4062l-0.34375-1h-6.7188zm28.531 0.312c-0.0066 0.17079-0.03125 0.32157-0.03125 0.5-0.000009 1.9167 0.38288 3.3816 1.125 4.4062 0.75427 1.0126 1.7884 1.5 3.1875 1.5 1.3991 0.000003 2.4575-0.48738 3.1875-1.5 0.7421-1.0126 1.125-2.4775 1.125-4.4062-0.000002-0.17548-0.02493-0.33219-0.03125-0.5-0.06317 1.6767-0.41917 2.9858-1.0938 3.9062-0.72997 1.0126-1.7884 1.5-3.1875 1.5-1.3991 0.000003-2.4332-0.48738-3.1875-1.5-0.673-0.929-1.029-2.244-1.094-3.906zm-33.562 15.625l-6 6v1l6-6 6 6 6-6 6 6 6-6 6 6 6-6 6 6 6-6v-1l-6 6-6-6-6 6-6-6-6 6-6-6-6 6-6-6z"/>
  <path id="path3898" style="opacity:.15" d="m35.438 32.281-3.75 10.781h0.34375l3.4062-9.7812 3.3125 9.7812h0.34375l-3.6562-10.781zm29.406 4.6875c-1.3991 0.000015-2.4332 0.47534-3.1875 1.5-0.74212 1.0126-1.125 2.4895-1.125 4.4062-0.000001 0.17843 0.02463 0.32939 0.03125 0.5 0.06446-1.6638 0.42071-2.9879 1.0938-3.9062 0.75427-1.0247 1.7884-1.5 3.1875-1.5 1.3991 0.000015 2.4575 0.4874 3.1875 1.5 0.67458 0.9205 1.0306 2.2296 1.0938 3.9062 0.0063-0.16781 0.03125-0.32452 0.03125-0.5-0.000018-1.9288-0.3829-3.3936-1.125-4.4062-0.72997-1.0126-1.7884-1.5-3.1875-1.5zm11.062 6.4062c-0.0837 2.8977-0.90687 5.3059-2.4375 7.1875-1.6181 1.977-3.6692 2.9062-6.1875 2.9062-1.4234 0-2.6551-0.28925-3.75-0.84375-1.0949-0.56658-2.0997-1.4436-3-2.625v1c0.90026 1.1814 1.9051 2.0584 3 2.625 1.0949 0.5545 2.3266 0.84375 3.75 0.84375 2.5183 0 4.5694-0.92924 6.1875-2.9062 1.618-1.9891 2.4375-4.5653 2.4375-7.6875-0.000001-0.16864 0.0048-0.33448 0-0.5zm-46 4.6562l-1.781 4.97h-6.6562l-0.375 1h7.0312l1.7812-4.9688h10.969l1.6875 4.9688h7.125l-0.375-1h-6.75l-1.6875-4.9688h-10.969zm24.063 4.97v1h6.5625v-1h-6.5625zm-26.969 12l-6 6v1l6-6 6 6 6-6 6 6 6-6 6 6 6-6 6 6 6-6v-1l-6 6-6-6-6 6-6-6-6 6-6-6-6 6-6-6z"/>
 </g>
</svg>
