<?xml version="1.0" encoding="UTF-8" standalone="no"?>
<!-- Created with Inkscape (http://www.inkscape.org/) -->
<svg id="svg2" xmlns:rdf="http://www.w3.org/1999/02/22-rdf-syntax-ns#" xmlns="http://www.w3.org/2000/svg" height="96" width="96" version="1.0" xmlns:cc="http://creativecommons.org/ns#" xmlns:xlink="http://www.w3.org/1999/xlink" xmlns:dc="http://purl.org/dc/elements/1.1/">
 <defs id="defs4">
  <clipPath id="clipPath3266">
   <path id="path3268" style="opacity:.3;color:#000000;fill:#f00" d="m0 0v96h96v-96h-96zm12 6h72c3.324 0 6 2.676 6 6v72c0 3.324-2.676 6-6 6h-72c-3.324 0-6-2.676-6-6v-72c0-3.324 2.676-6 6-6z"/>
  </clipPath>
  <linearGradient id="linearGradient3101" y2="90.239" xlink:href="#ButtonShadow-0" gradientUnits="userSpaceOnUse" x2="32.251" gradientTransform="matrix(1.0238 0 0 1.0119 -1.1429 -98.071)" y1="6.1317" x1="32.251"/>
  <linearGradient id="ButtonShadow-0" y2="7.0165" gradientUnits="userSpaceOnUse" x2="45.448" gradientTransform="matrix(1.0059 0 0 .99417 100 0)" y1="92.54" x1="45.448">
   <stop id="stop3750-8" offset="0"/>
   <stop id="stop3752-5" style="stop-opacity:.58824" offset="1"/>
  </linearGradient>
  <linearGradient id="linearGradient3052" y2="5.9877" gradientUnits="userSpaceOnUse" x2="48" y1="90" x1="48">
   <stop id="stop3189-4" style="stop-color:#c8c8c8" offset="0"/>
   <stop id="stop3191-0" style="stop-color:#e6e6e6" offset="1"/>
  </linearGradient>
  <linearGradient id="linearGradient3188" y2="63.893" xlink:href="#linearGradient3737" gradientUnits="userSpaceOnUse" x2="36.357" y1="6" x1="36.357"/>
  <linearGradient id="linearGradient3737">
   <stop id="stop3739" style="stop-color:#fff" offset="0"/>
   <stop id="stop3741" style="stop-color:#fff;stop-opacity:0" offset="1"/>
  </linearGradient>
  <radialGradient id="radialGradient3619" xlink:href="#linearGradient3737" gradientUnits="userSpaceOnUse" cy="90.172" cx="48" gradientTransform="matrix(1.1573 0 0 .99591 -7.551 .19713)" r="42"/>
  <linearGradient id="linearGradient4186" y2="90.239" xlink:href="#ButtonShadow-0" gradientUnits="userSpaceOnUse" x2="32.251" gradientTransform="translate(0,-97)" y1="6.1317" x1="32.251"/>
  <linearGradient id="linearGradient3182" y2="20.5" gradientUnits="userSpaceOnUse" x2="12" gradientTransform="matrix(4,0,0,4,0,-82)" y1="4.5" x1="12">
   <stop id="stop3657" style="stop-color:#ad0707" offset="0"/>
   <stop id="stop3659" style="stop-color:#f75535" offset="1"/>
  </linearGradient>
  <filter id="filter3899" color-interpolation-filters="sRGB">
   <feGaussianBlur id="feGaussianBlur3901" stdDeviation="0.57"/>
  </filter>
 </defs>
 <metadata id="metadata7">
  <rdf:RDF>
   <cc:Work rdf:about="">
    <dc:format>image/svg+xml</dc:format>
    <dc:type rdf:resource="http://purl.org/dc/dcmitype/StillImage"/>
    <dc:title/>
   </cc:Work>
  </rdf:RDF>
 </metadata>
 <g id="layer1">
  <g id="g3202" clip-path="url(#clipPath3266)">
   <path id="path3786" style="opacity:0.08;fill:url(#linearGradient3101)" d="m12-95.031c-5.5111 0-10.031 4.5202-10.031 10.031v71c0 5.5111 4.5202 10.031 10.031 10.031h72c5.5111 0 10.031-4.5202 10.031-10.031v-71c0-5.5111-4.5202-10.031-10.031-10.031h-72z" transform="scale(1,-1)"/>
   <path id="path3778" style="opacity:.1;fill:url(#linearGradient3101)" d="m12-94.031c-4.9716 0-9.0312 4.0596-9.0312 9.0312v71c0 4.9716 4.0596 9.0312 9.0312 9.0312h72c4.9716 0 9.0312-4.0596 9.0312-9.0312v-71c0-4.9716-4.0596-9.0312-9.0312-9.0312h-72z" transform="scale(1,-1)"/>
   <path id="path3770" style="opacity:.2;fill:url(#linearGradient3101)" d="m12-93c-4.4091 0-8 3.5909-8 8v71c0 4.4091 3.5909 8 8 8h72c4.4091 0 8-3.5909 8-8v-71c0-4.4091-3.5909-8-8-8h-72z" transform="scale(1,-1)"/>
   <rect id="rect3723" style="opacity:.3;fill:url(#linearGradient3101)" transform="scale(1,-1)" rx="7" ry="7" height="85" width="86" y="-92" x="5"/>
   <rect id="rect3716" style="opacity:.45;fill:url(#linearGradient4186)" transform="scale(1,-1)" rx="6" ry="6" height="84" width="84" y="-91" x="6"/>
  </g>
  <rect id="rect2419" style="opacity:.75;fill:url(#linearGradient3052)" rx="6" ry="6" height="84" width="84" y="6" x="6"/>
  <path id="rect3728" style="opacity:.5;fill:url(#linearGradient3188)" d="m12 6c-3.324 0-6 2.676-6 6v2 68 2c0 0.33472 0.04135 0.6507 0.09375 0.96875 0.0487 0.2956 0.09704 0.59692 0.1875 0.875 0.00988 0.03038 0.020892 0.0636 0.03125 0.09375 0.098865 0.28777 0.23488 0.54745 0.375 0.8125 0.14459 0.27351 0.31562 0.53562 0.5 0.78125 0.18438 0.24564 0.37378 0.47347 0.59375 0.6875 0.43995 0.42806 0.94291 0.81453 1.5 1.0938 0.27854 0.13961 0.57347 0.24695 0.875 0.34375-0.2562-0.10022-0.48671-0.23627-0.71875-0.375-0.00741-0.0044-0.023866 0.0045-0.03125 0-0.031933-0.0193-0.062293-0.04251-0.09375-0.0625-0.1204-0.0767-0.23102-0.16351-0.34375-0.25-0.10617-0.0808-0.21328-0.16111-0.3125-0.25-0.1778-0.162-0.3473-0.346-0.4999-0.531-0.1075-0.131-0.2183-0.266-0.3124-0.407-0.0251-0.038-0.0385-0.086-0.0626-0.125-0.0647-0.103-0.1302-0.204-0.1874-0.312-0.1011-0.195-0.2057-0.416-0.2813-0.625-0.008-0.022-0.0236-0.041-0.0313-0.063-0.0318-0.092-0.0358-0.187-0.0624-0.281-0.0304-0.107-0.0704-0.203-0.0938-0.313-0.0729-0.341-0.125-0.698-0.125-1.062v-2-68-2c0-2.782 2.2182-5 5-5h2 68 2c2.7818 0 5 2.2182 5 5v2 68 2c0 0.3643-0.05212 0.72099-0.125 1.0625-0.04415 0.20689-0.08838 0.39766-0.15625 0.59375-0.0077 0.02195-0.0233 0.04069-0.03125 0.0625-0.06274 0.17374-0.13838 0.36745-0.21875 0.53125-0.04158 0.0828-0.07904 0.16995-0.125 0.25-0.0546 0.09721-0.12677 0.18835-0.1875 0.28125-0.09411 0.14096-0.20492 0.276-0.3125 0.40625-0.14317 0.17445-0.30314 0.347-0.46875 0.5-0.01117 0.0102-0.01998 0.02115-0.03125 0.03125-0.13839 0.12556-0.28509 0.23444-0.4375 0.34375-0.10257 0.07315-0.20432 0.15336-0.3125 0.21875-0.0074 0.0045-0.02384-0.0044-0.03125 0-0.23204 0.13873-0.46255 0.27478-0.71875 0.375 0.30153-0.0968 0.59646-0.20414 0.875-0.34375 0.55709-0.27922 1.0601-0.66569 1.5-1.0938 0.21997-0.21403 0.40937-0.44186 0.59375-0.6875s0.35541-0.50774 0.5-0.78125c0.14012-0.26505 0.27614-0.52473 0.375-0.8125 0.01041-0.03078 0.02133-0.06274 0.03125-0.09375 0.09046-0.27808 0.1388-0.5794 0.1875-0.875 0.053-0.318 0.094-0.634 0.094-0.969v-2-68-2c0-3.324-2.676-6-6-6h-72z"/>
  <path id="path3615" style="opacity:.2;fill:url(#radialGradient3619)" d="m12 90c-3.324 0-6-2.676-6-6v-2-68-2c0-0.33472 0.04135-0.6507 0.09375-0.96875 0.0487-0.2956 0.09704-0.59692 0.1875-0.875 0.0099-0.03 0.0209-0.063 0.0313-0.094 0.0989-0.2873 0.2349-0.547 0.375-0.812 0.1446-0.2735 0.3156-0.5356 0.5-0.7812 0.1844-0.2457 0.3738-0.4735 0.5937-0.6876 0.44-0.428 0.943-0.8145 1.5-1.0937 0.2786-0.1396 0.5735-0.2469 0.8748-0.3437-0.256 0.1002-0.4865 0.2362-0.7185 0.375-0.00741 0.0044-0.023866-0.0045-0.03125 0-0.031933 0.0193-0.062293 0.04251-0.09375 0.0625-0.1204 0.0767-0.23102 0.16351-0.34375 0.25-0.10617 0.0808-0.21328 0.16111-0.3125 0.25-0.1779 0.1614-0.3474 0.3453-0.5 0.5312-0.1075 0.1303-0.2183 0.2653-0.3124 0.4063-0.0251 0.0383-0.0385 0.0858-0.0626 0.125-0.0647 0.103-0.1302 0.2045-0.1874 0.3124-0.1011 0.1948-0.2057 0.4158-0.2813 0.625-0.008 0.0219-0.0236 0.0406-0.0313 0.0626-0.0318 0.0919-0.0358 0.1868-0.0624 0.2812-0.0304 0.1066-0.0704 0.203-0.0938 0.3125-0.0729 0.3415-0.125 0.6985-0.125 1.0625v2 68 2c0 2.7818 2.2182 5 5 5h2 68 2c2.7818 0 5-2.2182 5-5v-2-68-2c0-0.364-0.052-0.721-0.125-1.0625-0.044-0.2069-0.088-0.3977-0.156-0.5937-0.008-0.022-0.024-0.0407-0.031-0.0626-0.063-0.1737-0.139-0.3674-0.219-0.5312-0.042-0.0828-0.079-0.17-0.125-0.25-0.055-0.0972-0.127-0.1884-0.188-0.2812-0.094-0.141-0.205-0.276-0.312-0.4063-0.143-0.1745-0.303-0.347-0.469-0.5-0.011-0.0102-0.02-0.0211-0.031-0.0313-0.139-0.1255-0.285-0.2344-0.438-0.3437-0.102-0.0731-0.204-0.1534-0.312-0.2187-0.0074-0.0045-0.02384 0.0044-0.03125 0-0.23204-0.13873-0.46255-0.27478-0.71875-0.375 0.30153 0.0968 0.59646 0.20414 0.875 0.34375 0.55709 0.27922 1.0601 0.66569 1.5 1.0938 0.21997 0.21403 0.40937 0.44186 0.59375 0.6875s0.35541 0.50774 0.5 0.78125c0.14012 0.26505 0.27614 0.52473 0.375 0.8125 0.01041 0.03078 0.02133 0.06274 0.03125 0.09375 0.09046 0.27808 0.1388 0.5794 0.1875 0.875 0.053 0.318 0.094 0.634 0.094 0.969v2 68 2c0 3.324-2.676 6-6 6h-72z"/>
 </g>
 <g id="layer2" transform="translate(0,80)">
  <path id="path3129" style="opacity:.2;stroke-width:4;color:#000000;filter:url(#filter3899);stroke:#fff;fill:none" d="m43-62c-1.662 0-3 1.338-3 3v3 24 3c0 1.662 1.338 3 3 3h3 4 3c1.662 0 3-1.338 3-3v-3-24-3c0-1.662-1.4233-2.4744-3-3h-3-4zm0 44c-1.662 0-3 1.338-3 3v3 4 3c0 1.662 1.4233 2.4744 3 3h3 4 3c1.662 0 3-1.338 3-3v-3-4-3c0-1.662-1.338-3-3-3h-3-4z"/>
  <path id="rect3734" style="color:#000000;fill:url(#linearGradient3182)" d="m43-62c-1.662 0-3 1.338-3 3v3 24 3c0 1.662 1.338 3 3 3h3 4 3c1.662 0 3-1.338 3-3v-3-24-3c0-1.662-1.4233-2.4744-3-3h-3-4zm0 44c-1.662 0-3 1.338-3 3v3 4 3c0 1.662 1.4233 2.4744 3 3h3 4 3c1.662 0 3-1.338 3-3v-3-4-3c0-1.662-1.338-3-3-3h-3-4z"/>
  <rect id="rect3682" style="opacity:.3;color:#000000;fill:#f00" height="96" width="96" y="-80" x="-100"/>
  <path id="path3956" style="opacity:.1;color:#000000;fill:#500" transform="translate(0,-80)" d="m43 18c-1.662 0-3 1.338-3 3v3 24 3c0 1.662 1.338 3 3 3h3 4 3c1.662 0 3-1.338 3-3v-3-24-3c0-1.662-1.4233-2.4744-3-3h-3-4-3zm0 2h3 4 2.5625c0.5423 0.20257 1.0224 0.42449 1.2188 0.59375 0.227 0.195 0.219 0.145 0.219 0.406v3 24 3c0 0.59107-0.40893 1-1 1h-3-4-3c-0.59107 0-1-0.40893-1-1v-3-24-3c0-0.59107 0.40893-1 1-1zm0 42c-1.662 0-3 1.338-3 3v3 4 3c0 1.662 1.4233 2.4744 3 3h3 4 3c1.662 0 3-1.338 3-3v-3-4-3c0-1.662-1.338-3-3-3h-3-4-3zm0 2h3 4 3c0.59107 0 1 0.40893 1 1v3 4 3c0 0.59107-0.40893 1-1 1h-3-4-2.5625c-0.543-0.203-1.023-0.424-1.219-0.594-0.227-0.195-0.219-0.145-0.219-0.406v-3-4-3c0-0.59107 0.40893-1 1-1z"/>
  <path id="path3184" style="opacity:.2;color:#000000;fill:#500" transform="translate(0,-80)" d="m43 18c-1.662 0-3 1.338-3 3v3 24 3c0 1.662 1.338 3 3 3h3 4 3c1.662 0 3-1.338 3-3v-3-24-3c0-1.662-1.4233-2.4744-3-3h-3-4-3zm0 0.96875h3 4 2.75c0.69712 0.23864 1.3388 0.51628 1.7188 0.84375 0.39381 0.33942 0.5625 0.63435 0.5625 1.1875v3 24 3c0 1.1396-0.89165 2.0312-2.0312 2.0312h-3-4-3c-1.1396 0-2.0312-0.89165-2.0312-2.0312v-3-24-3c0-1.1396 0.89165-2.0312 2.0312-2.0312zm0 43.031c-1.662 0-3 1.338-3 3v3 4 3c0 1.662 1.4233 2.4744 3 3h3 4 3c1.662 0 3-1.338 3-3v-3-4-3c0-1.662-1.338-3-3-3h-3-4-3zm0 0.96875h3 4 3c1.1396 0 2.0312 0.89165 2.0312 2.0312v3 4 3c0 1.1396-0.89165 2.0312-2.0312 2.0312h-3-4-2.75c-0.697-0.238-1.339-0.516-1.719-0.843-0.394-0.34-0.562-0.635-0.562-1.188v-3-4-3c0-1.1396 0.89165-2.0312 2.0312-2.0312z"/>
  <path id="path3966" style="opacity:.3;color:#000000;fill:#500" transform="translate(0,-80)" d="m43 18c-1.662 0-3 1.338-3 3v1c0-1.662 1.338-3 3-3h3 4 3c1.5767 0.52557 3 1.338 3 3v-1c0-1.662-1.4233-2.4744-3-3h-3-4-3zm0 44c-1.662 0-3 1.338-3 3v1c0-1.662 1.338-3 3-3h3 4 3c1.662 0 3 1.338 3 3v-1c0-1.662-1.338-3-3-3h-3-4-3z"/>
  <path id="path3975" style="opacity:.8;color:#000000;fill:#fff" transform="translate(0,-80)" d="m40 51v1c0 1.662 1.338 3 3 3h3 4 3c1.662 0 3-1.338 3-3v-1c0 1.662-1.338 3-3 3h-3-4-3c-1.662 0-3-1.338-3-3zm0 24v1c0 1.662 1.4233 2.4744 3 3h3 4 3c1.662 0 3-1.338 3-3v-1c0 1.662-1.338 3-3 3h-3-4-3c-1.5767-0.52557-3-1.338-3-3z"/>
 </g>
</svg>
