<?xml version="1.0" encoding="UTF-8" standalone="no"?>
<!-- Created with Inkscape (http://www.inkscape.org/) -->
<svg id="svg2" xmlns:rdf="http://www.w3.org/1999/02/22-rdf-syntax-ns#" xmlns="http://www.w3.org/2000/svg" height="96" width="96" version="1.0" xmlns:cc="http://creativecommons.org/ns#" xmlns:xlink="http://www.w3.org/1999/xlink" xmlns:dc="http://purl.org/dc/elements/1.1/">
 <defs id="defs4">
  <linearGradient id="linearGradient3714" y2="21.025" gradientUnits="userSpaceOnUse" x2="14" gradientTransform="matrix(3.1351 0 0 3.1351 9.3243 -60.135)" y1="1" x1="14">
   <stop id="stop4530" style="stop-color:#323232" offset="0"/>
   <stop id="stop4532" style="stop-color:#787878" offset="1"/>
  </linearGradient>
  <clipPath id="clipPath3266">
   <path id="path3268" style="opacity:.3;color:#000000;fill:#f00" d="m0 0v96h96v-96h-96zm12 6h72c3.324 0 6 2.676 6 6v72c0 3.324-2.676 6-6 6h-72c-3.324 0-6-2.676-6-6v-72c0-3.324 2.676-6 6-6z"/>
  </clipPath>
  <linearGradient id="linearGradient3101" y2="90.239" xlink:href="#ButtonShadow-0" gradientUnits="userSpaceOnUse" x2="32.251" gradientTransform="matrix(1.0238 0 0 1.0119 -1.1429 -98.071)" y1="6.1317" x1="32.251"/>
  <linearGradient id="ButtonShadow-0" y2="7.0165" gradientUnits="userSpaceOnUse" x2="45.448" gradientTransform="matrix(1.0059 0 0 .99417 100 0)" y1="92.54" x1="45.448">
   <stop id="stop3750-8" offset="0"/>
   <stop id="stop3752-5" style="stop-opacity:.58824" offset="1"/>
  </linearGradient>
  <linearGradient id="linearGradient3052" y2="5.9877" gradientUnits="userSpaceOnUse" x2="48" y1="90" x1="48">
   <stop id="stop3189-4" style="stop-color:#c8c8c8" offset="0"/>
   <stop id="stop3191-0" style="stop-color:#e6e6e6" offset="1"/>
  </linearGradient>
  <linearGradient id="linearGradient3188" y2="63.893" xlink:href="#linearGradient3737-1" gradientUnits="userSpaceOnUse" x2="36.357" y1="6" x1="36.357"/>
  <linearGradient id="linearGradient3737-1">
   <stop id="stop3739" style="stop-color:#fff" offset="0"/>
   <stop id="stop3741" style="stop-color:#fff;stop-opacity:0" offset="1"/>
  </linearGradient>
  <radialGradient id="radialGradient3619" xlink:href="#linearGradient3737-1" gradientUnits="userSpaceOnUse" cy="90.172" cx="48" gradientTransform="matrix(1.1573 0 0 .99591 -7.551 .19713)" r="42"/>
  <linearGradient id="linearGradient4256" y2="90.239" xlink:href="#ButtonShadow-0" gradientUnits="userSpaceOnUse" x2="32.251" gradientTransform="translate(0,-97)" y1="6.1317" x1="32.251"/>
  <filter id="filter3998" color-interpolation-filters="sRGB">
   <feGaussianBlur id="feGaussianBlur4000" stdDeviation="0.78264169"/>
  </filter>
 </defs>
 <metadata id="metadata7">
  <rdf:RDF>
   <cc:Work rdf:about="">
    <dc:format>image/svg+xml</dc:format>
    <dc:type rdf:resource="http://purl.org/dc/dcmitype/StillImage"/>
    <dc:title/>
   </cc:Work>
  </rdf:RDF>
 </metadata>
 <g id="layer2">
  <g id="g3202" clip-path="url(#clipPath3266)">
   <path id="path3786" style="opacity:0.08;fill:url(#linearGradient3101)" d="m12-95.031c-5.5111 0-10.031 4.5202-10.031 10.031v71c0 5.5111 4.5202 10.031 10.031 10.031h72c5.5111 0 10.031-4.5202 10.031-10.031v-71c0-5.5111-4.5202-10.031-10.031-10.031h-72z" transform="scale(1,-1)"/>
   <path id="path3778" style="opacity:.1;fill:url(#linearGradient3101)" d="m12-94.031c-4.9716 0-9.0312 4.0596-9.0312 9.0312v71c0 4.9716 4.0596 9.0312 9.0312 9.0312h72c4.9716 0 9.0312-4.0596 9.0312-9.0312v-71c0-4.9716-4.0596-9.0312-9.0312-9.0312h-72z" transform="scale(1,-1)"/>
   <path id="path3770" style="opacity:.2;fill:url(#linearGradient3101)" d="m12-93c-4.4091 0-8 3.5909-8 8v71c0 4.4091 3.5909 8 8 8h72c4.4091 0 8-3.5909 8-8v-71c0-4.4091-3.5909-8-8-8h-72z" transform="scale(1,-1)"/>
   <rect id="rect3723" style="opacity:.3;fill:url(#linearGradient3101)" transform="scale(1,-1)" rx="7" ry="7" height="85" width="86" y="-92" x="5"/>
   <rect id="rect3716" style="opacity:.45;fill:url(#linearGradient4256)" transform="scale(1,-1)" rx="6" ry="6" height="84" width="84" y="-91" x="6"/>
  </g>
  <rect id="rect2419" style="opacity:.75;fill:url(#linearGradient3052)" rx="6" ry="6" height="84" width="84" y="6" x="6"/>
  <path id="rect3728" style="opacity:.5;fill:url(#linearGradient3188)" d="m12 6c-3.324 0-6 2.676-6 6v2 68 2c0 0.33472 0.04135 0.6507 0.09375 0.96875 0.0487 0.2956 0.09704 0.59692 0.1875 0.875 0.00988 0.03038 0.020892 0.0636 0.03125 0.09375 0.098865 0.28777 0.23488 0.54745 0.375 0.8125 0.14459 0.27351 0.31562 0.53562 0.5 0.78125 0.18438 0.24564 0.37378 0.47347 0.59375 0.6875 0.43995 0.42806 0.94291 0.81453 1.5 1.0938 0.27854 0.13961 0.57347 0.24695 0.875 0.34375-0.2562-0.10022-0.48671-0.23627-0.71875-0.375-0.00741-0.0044-0.023866 0.0045-0.03125 0-0.031933-0.0193-0.062293-0.04251-0.09375-0.0625-0.1204-0.0767-0.23102-0.16351-0.34375-0.25-0.10617-0.0808-0.21328-0.16111-0.3125-0.25-0.1778-0.162-0.3473-0.346-0.4999-0.531-0.1075-0.131-0.2183-0.266-0.3124-0.407-0.0251-0.038-0.0385-0.086-0.0626-0.125-0.0647-0.103-0.1302-0.204-0.1874-0.312-0.1011-0.195-0.2057-0.416-0.2813-0.625-0.008-0.022-0.0236-0.041-0.0313-0.063-0.0318-0.092-0.0358-0.187-0.0624-0.281-0.0304-0.107-0.0704-0.203-0.0938-0.313-0.0729-0.341-0.125-0.698-0.125-1.062v-2-68-2c0-2.782 2.2182-5 5-5h2 68 2c2.7818 0 5 2.2182 5 5v2 68 2c0 0.3643-0.05212 0.72099-0.125 1.0625-0.04415 0.20689-0.08838 0.39766-0.15625 0.59375-0.0077 0.02195-0.0233 0.04069-0.03125 0.0625-0.06274 0.17374-0.13838 0.36745-0.21875 0.53125-0.04158 0.0828-0.07904 0.16995-0.125 0.25-0.0546 0.09721-0.12677 0.18835-0.1875 0.28125-0.09411 0.14096-0.20492 0.276-0.3125 0.40625-0.14317 0.17445-0.30314 0.347-0.46875 0.5-0.01117 0.0102-0.01998 0.02115-0.03125 0.03125-0.13839 0.12556-0.28509 0.23444-0.4375 0.34375-0.10257 0.07315-0.20432 0.15336-0.3125 0.21875-0.0074 0.0045-0.02384-0.0044-0.03125 0-0.23204 0.13873-0.46255 0.27478-0.71875 0.375 0.30153-0.0968 0.59646-0.20414 0.875-0.34375 0.55709-0.27922 1.0601-0.66569 1.5-1.0938 0.21997-0.21403 0.40937-0.44186 0.59375-0.6875s0.35541-0.50774 0.5-0.78125c0.14012-0.26505 0.27614-0.52473 0.375-0.8125 0.01041-0.03078 0.02133-0.06274 0.03125-0.09375 0.09046-0.27808 0.1388-0.5794 0.1875-0.875 0.053-0.318 0.094-0.634 0.094-0.969v-2-68-2c0-3.324-2.676-6-6-6h-72z"/>
  <path id="path3615" style="opacity:.2;fill:url(#radialGradient3619)" d="m12 90c-3.324 0-6-2.676-6-6v-2-68-2c0-0.33472 0.04135-0.6507 0.09375-0.96875 0.0487-0.2956 0.09704-0.59692 0.1875-0.875 0.0099-0.03 0.0209-0.063 0.0313-0.094 0.0989-0.2873 0.2349-0.547 0.375-0.812 0.1446-0.2735 0.3156-0.5356 0.5-0.7812 0.1844-0.2457 0.3738-0.4735 0.5937-0.6876 0.44-0.428 0.943-0.8145 1.5-1.0937 0.2786-0.1396 0.5735-0.2469 0.8748-0.3437-0.256 0.1002-0.4865 0.2362-0.7185 0.375-0.00741 0.0044-0.023866-0.0045-0.03125 0-0.031933 0.0193-0.062293 0.04251-0.09375 0.0625-0.1204 0.0767-0.23102 0.16351-0.34375 0.25-0.10617 0.0808-0.21328 0.16111-0.3125 0.25-0.1779 0.1614-0.3474 0.3453-0.5 0.5312-0.1075 0.1303-0.2183 0.2653-0.3124 0.4063-0.0251 0.0383-0.0385 0.0858-0.0626 0.125-0.0647 0.103-0.1302 0.2045-0.1874 0.3124-0.1011 0.1948-0.2057 0.4158-0.2813 0.625-0.008 0.0219-0.0236 0.0406-0.0313 0.0626-0.0318 0.0919-0.0358 0.1868-0.0624 0.2812-0.0304 0.1066-0.0704 0.203-0.0938 0.3125-0.0729 0.3415-0.125 0.6985-0.125 1.0625v2 68 2c0 2.7818 2.2182 5 5 5h2 68 2c2.7818 0 5-2.2182 5-5v-2-68-2c0-0.364-0.052-0.721-0.125-1.0625-0.044-0.2069-0.088-0.3977-0.156-0.5937-0.008-0.022-0.024-0.0407-0.031-0.0626-0.063-0.1737-0.139-0.3674-0.219-0.5312-0.042-0.0828-0.079-0.17-0.125-0.25-0.055-0.0972-0.127-0.1884-0.188-0.2812-0.094-0.141-0.205-0.276-0.312-0.4063-0.143-0.1745-0.303-0.347-0.469-0.5-0.011-0.0102-0.02-0.0211-0.031-0.0313-0.139-0.1255-0.285-0.2344-0.438-0.3437-0.102-0.0731-0.204-0.1534-0.312-0.2187-0.0074-0.0045-0.02384 0.0044-0.03125 0-0.23204-0.13873-0.46255-0.27478-0.71875-0.375 0.30153 0.0968 0.59646 0.20414 0.875 0.34375 0.55709 0.27922 1.0601 0.66569 1.5 1.0938 0.21997 0.21403 0.40937 0.44186 0.59375 0.6875s0.35541 0.50774 0.5 0.78125c0.14012 0.26505 0.27614 0.52473 0.375 0.8125 0.01041 0.03078 0.02133 0.06274 0.03125 0.09375 0.09046 0.27808 0.1388 0.5794 0.1875 0.875 0.053 0.318 0.094 0.634 0.094 0.969v2 68 2c0 3.324-2.676 6-6 6h-72z"/>
 </g>
 <g id="layer1" transform="translate(0,74)">
  <path id="path3996" style="opacity:.2;stroke-width:4;color:#000000;filter:url(#filter3998);stroke:#fff;fill:none" d="m50.081-57v6.2703 6.2703 29.294c-3.322-1.3023-7.5024-1.4231-11.659 0-7.495 2.567-11.917 9.0121-9.797 14.5 2.12 5.4888 9.944 7.8574 17.439 5.291 6.134-2.1001 10.186-6.7973 10.287-11.463 0.0069-0.32328 0.03135-0.65821 0-0.97973v-33.703c5.513 3.5012 12.655 10.782 12.541 25.277 4.645-28.611-9.893-25.521-18.811-40.756z"/>
  <path id="path2928" style="color:#000000;fill:url(#linearGradient3714)" d="m50.081-57v6.2703 6.2703 29.294c-3.322-1.3023-7.5024-1.4231-11.659 0-7.495 2.567-11.917 9.0121-9.797 14.5 2.12 5.4888 9.944 7.8574 17.439 5.291 6.134-2.1001 10.186-6.7973 10.287-11.463 0.0069-0.32328 0.03135-0.65821 0-0.97973v-33.703c5.513 3.5012 12.655 10.782 12.541 25.277 4.645-28.611-9.893-25.521-18.811-40.756z"/>
  <rect id="rect3708" style="opacity:.3;color:#000000;fill:#f00" height="96" width="96" y="-74" x="-100"/>
  <path id="path3968" style="opacity:.1;color:#000000" transform="translate(0,-74)" d="m50.094 17v6.2812 6.25 29.312c-3.322-1.3023-7.4999-1.4231-11.656 0-7.4956 2.5664-11.933 9.0116-9.8125 14.5 2.1203 5.4884 9.9419 7.8477 17.438 5.2812 6.1336-2.1001 10.18-6.8032 10.281-11.469 0.0069-0.32328 0.03135-0.64723 0-0.96875v-33.719c5.512 3.503 12.675 10.787 12.561 25.283 4.645-28.612-9.894-25.515-18.812-40.75zm2.125 6.5312c3.8655 4.417 7.9367 7.0739 10.75 10.25 1.4444 1.6306 2.5371 3.5926 3.375 5.9375-2.637-4.259-5.935-7.215-8.844-9.063a2.1408 2.1408 0 0 0 -3.2812 1.8125v33.719a2.1408 2.1408 0 0 0 0 0.21875c0.0074 0.07631 0.0086 0.31811 0 0.71875-0.07492 3.4598-3.3638 7.5924-8.8438 9.4688-3.3417 1.1442-6.7597 1.185-9.4375 0.375-2.6778-0.80999-4.534-2.3913-5.3125-4.4062-0.77776-2.0132-0.41471-4.2037 1.0625-6.375s4.0868-4.1652 7.4375-5.3125c3.7053-1.2687 7.3914-1.1273 10.188-0.03125a2.1408 2.1408 0 0 0 2.9062 -2v-29.312-6z"/>
  <path id="path3196" style="opacity:.2;color:#000000" transform="translate(0,-74)" d="m50.094 17v6.2812 6.25 29.312c-3.322-1.3023-7.4999-1.4231-11.656 0-7.4956 2.5664-11.933 9.0116-9.8125 14.5 2.1203 5.4884 9.9419 7.8477 17.438 5.2812 6.1336-2.1001 10.18-6.8032 10.281-11.469 0.0069-0.32328 0.03135-0.64723 0-0.96875v-33.719c5.512 3.503 12.675 10.787 12.561 25.283 4.645-28.612-9.894-25.515-18.812-40.75zm1.156 3.594c4.2301 5.6622 9.074 8.6987 12.469 12.531 2.7594 3.1152 4.624 7.0513 4.8125 13.781-2.454-7.986-7.434-12.784-11.563-15.406a1.1517 1.1517 0 0 0 -1.7812 0.96875v33.719a1.1517 1.1517 0 0 0 0 0.125c0.01849 0.18961 0.0078 0.4476 0 0.8125-0.08698 4.0169-3.718 8.4265-9.5 10.406-3.5293 1.2084-7.1319 1.252-10.031 0.375-2.8994-0.87702-5.0601-2.6169-5.9688-4.9688-0.90824-2.3509-0.43017-4.9035 1.1875-7.2812 1.6177-2.3778 4.4033-4.5087 7.9375-5.7188 3.9137-1.34 7.8359-1.2226 10.875-0.03125a1.1517 1.1517 0 0 0 1.5625 -1.0625v-29.312-6.25-2.6875z"/>
  <path id="path3978" style="opacity:.3;color:#000000" transform="translate(0,-74)" d="m50.094 17v1c7.709 13.169 19.6 12.653 19.687 30.75 0.354-19.126-11.838-18.341-19.687-31.75zm-5.532 40.812c-1.9799-0.01511-4.0468 0.3197-6.125 1.0312-6.448 2.209-10.622 7.287-10.312 12.157 0.2736-4.5501 4.3055-9.0995 10.312-11.156 4.1564-1.4231 8.3343-1.3023 11.656 0v-1c-1.66-0.651-3.551-1.016-5.531-1.032z"/>
  <path id="path3987" style="opacity:.5;color:#000000;fill:#fff" transform="translate(0,-74)" d="m56.344 32.469v1c5.513 3.5012 12.677 10.786 12.562 25.281 0.62976-3.8793 0.88867-7.1616 0.875-10-0.04823 2.6049-0.3182 5.5701-0.875 9 0.11413-14.496-7.0495-21.78-12.562-25.281zm0 34.719c-0.119 4.655-4.162 9.342-10.282 11.437-7.495 2.566-15.317 0.207-17.437-5.281-0.296-0.767-0.45-1.553-0.5-2.344-0.0678 1.1275 0.07892 2.2538 0.5 3.3438 2.1203 5.4884 9.9419 7.8477 17.438 5.2812 6.1336-2.1001 10.18-6.8032 10.281-11.469 0.0069-0.32328 0.03135-0.64723 0-0.96875z"/>
 </g>
</svg>
