<?xml version="1.0" encoding="UTF-8" standalone="no"?>
<!-- Created with Inkscape (http://www.inkscape.org/) -->
<svg id="svg2408" xmlns:rdf="http://www.w3.org/1999/02/22-rdf-syntax-ns#" xmlns="http://www.w3.org/2000/svg" height="96" width="96" version="1.0" xmlns:cc="http://creativecommons.org/ns#" xmlns:xlink="http://www.w3.org/1999/xlink" xmlns:dc="http://purl.org/dc/elements/1.1/">
 <defs id="defs2410">
  <linearGradient id="ButtonShadow" y2="7.0165" gradientUnits="userSpaceOnUse" x2="45.448" gradientTransform="scale(1.0059 .99417)" y1="92.54" x1="45.448">
   <stop id="stop3750" offset="0"/>
   <stop id="stop3752" style="stop-opacity:.58824" offset="1"/>
  </linearGradient>
  <linearGradient id="linearGradient3737">
   <stop id="stop3739" style="stop-color:#fff" offset="0"/>
   <stop id="stop3741" style="stop-color:#fff;stop-opacity:0" offset="1"/>
  </linearGradient>
  <filter id="filter3174" color-interpolation-filters="sRGB">
   <feGaussianBlur id="feGaussianBlur3176" stdDeviation="1.71"/>
  </filter>
  <linearGradient id="linearGradient3188" y2="63.893" xlink:href="#linearGradient3737" gradientUnits="userSpaceOnUse" x2="36.357" y1="6" x1="36.357"/>
  <radialGradient id="radialGradient3619" xlink:href="#linearGradient3737" gradientUnits="userSpaceOnUse" cy="90.172" cx="48" gradientTransform="matrix(1.1573 0 0 .99591 -7.551 .19713)" r="42"/>
  <linearGradient id="linearGradient3617" y2="5.9877" gradientUnits="userSpaceOnUse" x2="48" y1="90" x1="48">
   <stop id="stop3857" style="stop-color:#5d4b2e" offset="0"/>
   <stop id="stop3859" style="stop-color:#846e41" offset="1"/>
  </linearGradient>
  <linearGradient id="ButtonShadow-0" y2="7.0165" gradientUnits="userSpaceOnUse" x2="45.448" gradientTransform="matrix(1.0059 0 0 .99417 100 0)" y1="92.54" x1="45.448">
   <stop id="stop3750-8" offset="0"/>
   <stop id="stop3752-5" style="stop-opacity:.58824" offset="1"/>
  </linearGradient>
  <linearGradient id="linearGradient3780" y2="90.239" xlink:href="#ButtonShadow-0" gradientUnits="userSpaceOnUse" x2="32.251" gradientTransform="matrix(1.0238 0 0 1.0119 -1.1429 -98.071)" y1="6.1317" x1="32.251"/>
  <linearGradient id="linearGradient3721" y2="90.239" xlink:href="#ButtonShadow-0" gradientUnits="userSpaceOnUse" x2="32.251" gradientTransform="translate(0,-97)" y1="6.1317" x1="32.251"/>
  <radialGradient id="radialGradient3853" gradientUnits="userSpaceOnUse" cy="72.123" cx="25.562" gradientTransform="matrix(2.0584 0 0 2.0592 -27.055 -76.385)" r="37.781">
   <stop id="stop3849" style="stop-color:#6e562a" offset="0"/>
   <stop id="stop3851" style="stop-color:#a3883f" offset="1"/>
  </radialGradient>
  <linearGradient id="linearGradient3895" y2="22.786" gradientUnits="userSpaceOnUse" x2="103.27" y1="48.825" x1="11.516">
   <stop id="stop3891" style="stop-color:#554521;stop-opacity:0" offset="0"/>
   <stop id="stop3923" style="stop-color:#c0a74b" offset=".5"/>
   <stop id="stop3893" style="stop-color:#7e6931;stop-opacity:0" offset="1"/>
  </linearGradient>
  <radialGradient id="radialGradient3903" gradientUnits="userSpaceOnUse" cy="34.464" cx="60.243" gradientTransform="matrix(1.3976 0 0 1.3969 -23.954 -13.67)" r="36.872">
   <stop id="stop3899" style="stop-color:#ebc04e" offset="0"/>
   <stop id="stop3901" style="stop-color:#bd9d55;stop-opacity:0.6" offset="1"/>
  </radialGradient>
  <radialGradient id="radialGradient3912" gradientUnits="userSpaceOnUse" cy="34.328" cx="66.711" gradientTransform="matrix(1 0 0 1.0004 -1 .98023)" r="37.781">
   <stop id="stop3871" style="stop-color:#715a2c" offset="0"/>
   <stop id="stop3873" style="stop-color:#604c25" offset="1"/>
  </radialGradient>
  <radialGradient id="radialGradient3919" gradientUnits="userSpaceOnUse" cy="49.797" cx="46.469" gradientTransform="matrix(1 0 0 1.0004 1 -1.0206)" r="37.781">
   <stop id="stop3863" style="stop-color:#c8ae71" offset="0"/>
   <stop id="stop3865" style="stop-color:#a78841" offset="1"/>
  </radialGradient>
  <linearGradient id="linearGradient3937" y2="35.457" gradientUnits="userSpaceOnUse" x2="89.03" y1="55.328" x1="-1.49">
   <stop id="stop3929" style="stop-color:#554321;stop-opacity:0" offset="0"/>
   <stop id="stop3931" style="stop-color:#d9a71d" offset=".46518"/>
   <stop id="stop3933" style="stop-color:#7e6931;stop-opacity:0" offset="1"/>
  </linearGradient>
 </defs>
 <metadata id="metadata2413">
  <rdf:RDF>
   <cc:Work rdf:about="">
    <dc:format>image/svg+xml</dc:format>
    <dc:type rdf:resource="http://purl.org/dc/dcmitype/StillImage"/>
    <dc:title/>
   </cc:Work>
  </rdf:RDF>
 </metadata>
 <g id="layer2" style="display:none">
  <rect id="rect3745" style="opacity:.9;filter:url(#filter3174);fill:url(#ButtonShadow)" rx="6" ry="6" height="85" width="86" y="7" x="5"/>
 </g>
 <g id="layer3">
  <path id="path3786" style="opacity:0.08;fill:url(#linearGradient3780)" d="m12-95.031c-5.5111 0-10.031 4.5202-10.031 10.031v71c0 5.5111 4.5202 10.031 10.031 10.031h72c5.5111 0 10.031-4.5202 10.031-10.031v-71c0-5.5111-4.5202-10.031-10.031-10.031h-72z" transform="scale(1,-1)"/>
  <path id="path3778" style="opacity:.1;fill:url(#linearGradient3780)" d="m12-94.031c-4.9716 0-9.0312 4.0596-9.0312 9.0312v71c0 4.9716 4.0596 9.0312 9.0312 9.0312h72c4.9716 0 9.0312-4.0596 9.0312-9.0312v-71c0-4.9716-4.0596-9.0312-9.0312-9.0312h-72z" transform="scale(1,-1)"/>
  <path id="path3770" style="opacity:.2;fill:url(#linearGradient3780)" d="m12-93c-4.4091 0-8 3.5909-8 8v71c0 4.4091 3.5909 8 8 8h72c4.4091 0 8-3.5909 8-8v-71c0-4.4091-3.5909-8-8-8h-72z" transform="scale(1,-1)"/>
  <rect id="rect3723" style="opacity:.3;fill:url(#linearGradient3780)" transform="scale(1,-1)" rx="7" ry="7" height="85" width="86" y="-92" x="5"/>
  <rect id="rect3716" style="opacity:.45;fill:url(#linearGradient3721)" transform="scale(1,-1)" rx="6" ry="6" height="84" width="84" y="-91" x="6"/>
 </g>
 <g id="layer1">
  <rect id="rect2419" style="fill:url(#linearGradient3617)" rx="6" ry="6" height="84" width="84" y="6" x="6"/>
  <path id="rect3728" style="opacity:.35;fill:url(#linearGradient3188)" d="m12 6c-3.324 0-6 2.676-6 6v2 68 2c0 0.33472 0.04135 0.6507 0.09375 0.96875 0.0487 0.2956 0.09704 0.59692 0.1875 0.875 0.00988 0.03038 0.020892 0.0636 0.03125 0.09375 0.098865 0.28777 0.23488 0.54745 0.375 0.8125 0.14459 0.27351 0.31562 0.53562 0.5 0.78125 0.18438 0.24564 0.37378 0.47347 0.59375 0.6875 0.43995 0.42806 0.94291 0.81453 1.5 1.0938 0.27854 0.13961 0.57347 0.24695 0.875 0.34375-0.2562-0.10022-0.48671-0.23627-0.71875-0.375-0.00741-0.0044-0.023866 0.0045-0.03125 0-0.031933-0.0193-0.062293-0.04251-0.09375-0.0625-0.1204-0.0767-0.23102-0.16351-0.34375-0.25-0.10617-0.0808-0.21328-0.16111-0.3125-0.25-0.1778-0.162-0.3473-0.346-0.4999-0.531-0.1075-0.131-0.2183-0.266-0.3124-0.407-0.0251-0.038-0.0385-0.086-0.0626-0.125-0.0647-0.103-0.1302-0.204-0.1874-0.312-0.1011-0.195-0.2057-0.416-0.2813-0.625-0.008-0.022-0.0236-0.041-0.0313-0.063-0.0318-0.092-0.0358-0.187-0.0624-0.281-0.0304-0.107-0.0704-0.203-0.0938-0.313-0.0729-0.341-0.125-0.698-0.125-1.062v-2-68-2c0-2.782 2.2182-5 5-5h2 68 2c2.7818 0 5 2.2182 5 5v2 68 2c0 0.3643-0.05212 0.72099-0.125 1.0625-0.04415 0.20689-0.08838 0.39766-0.15625 0.59375-0.0077 0.02195-0.0233 0.04069-0.03125 0.0625-0.06274 0.17374-0.13838 0.36745-0.21875 0.53125-0.04158 0.0828-0.07904 0.16995-0.125 0.25-0.0546 0.09721-0.12677 0.18835-0.1875 0.28125-0.09411 0.14096-0.20492 0.276-0.3125 0.40625-0.14317 0.17445-0.30314 0.347-0.46875 0.5-0.01117 0.0102-0.01998 0.02115-0.03125 0.03125-0.13839 0.12556-0.28509 0.23444-0.4375 0.34375-0.10257 0.07315-0.20432 0.15336-0.3125 0.21875-0.0074 0.0045-0.02384-0.0044-0.03125 0-0.23204 0.13873-0.46255 0.27478-0.71875 0.375 0.30153-0.0968 0.59646-0.20414 0.875-0.34375 0.55709-0.27922 1.0601-0.66569 1.5-1.0938 0.21997-0.21403 0.40937-0.44186 0.59375-0.6875s0.35541-0.50774 0.5-0.78125c0.14012-0.26505 0.27614-0.52473 0.375-0.8125 0.01041-0.03078 0.02133-0.06274 0.03125-0.09375 0.09046-0.27808 0.1388-0.5794 0.1875-0.875 0.053-0.318 0.094-0.634 0.094-0.969v-2-68-2c0-3.324-2.676-6-6-6h-72z"/>
  <path id="path3615" style="opacity:.2;fill:url(#radialGradient3619)" d="m12 90c-3.324 0-6-2.676-6-6v-2-68-2c0-0.33472 0.04135-0.6507 0.09375-0.96875 0.0487-0.2956 0.09704-0.59692 0.1875-0.875 0.0099-0.03 0.0209-0.063 0.0313-0.094 0.0989-0.2873 0.2349-0.547 0.375-0.812 0.1446-0.2735 0.3156-0.5356 0.5-0.7812 0.1844-0.2457 0.3738-0.4735 0.5937-0.6876 0.44-0.428 0.943-0.8145 1.5-1.0937 0.2786-0.1396 0.5735-0.2469 0.8748-0.3437-0.256 0.1002-0.4865 0.2362-0.7185 0.375-0.00741 0.0044-0.023866-0.0045-0.03125 0-0.031933 0.0193-0.062293 0.04251-0.09375 0.0625-0.1204 0.0767-0.23102 0.16351-0.34375 0.25-0.10617 0.0808-0.21328 0.16111-0.3125 0.25-0.1779 0.1614-0.3474 0.3453-0.5 0.5312-0.1075 0.1303-0.2183 0.2653-0.3124 0.4063-0.0251 0.0383-0.0385 0.0858-0.0626 0.125-0.0647 0.103-0.1302 0.2045-0.1874 0.3124-0.1011 0.1948-0.2057 0.4158-0.2813 0.625-0.008 0.0219-0.0236 0.0406-0.0313 0.0626-0.0318 0.0919-0.0358 0.1868-0.0624 0.2812-0.0304 0.1066-0.0704 0.203-0.0938 0.3125-0.0729 0.3415-0.125 0.6985-0.125 1.0625v2 68 2c0 2.7818 2.2182 5 5 5h2 68 2c2.7818 0 5-2.2182 5-5v-2-68-2c0-0.364-0.052-0.721-0.125-1.0625-0.044-0.2069-0.088-0.3977-0.156-0.5937-0.008-0.022-0.024-0.0407-0.031-0.0626-0.063-0.1737-0.139-0.3674-0.219-0.5312-0.042-0.0828-0.079-0.17-0.125-0.25-0.055-0.0972-0.127-0.1884-0.188-0.2812-0.094-0.141-0.205-0.276-0.312-0.4063-0.143-0.1745-0.303-0.347-0.469-0.5-0.011-0.0102-0.02-0.0211-0.031-0.0313-0.139-0.1255-0.285-0.2344-0.438-0.3437-0.102-0.0731-0.204-0.1534-0.312-0.2187-0.0074-0.0045-0.02384 0.0044-0.03125 0-0.23204-0.13873-0.46255-0.27478-0.71875-0.375 0.30153 0.0968 0.59646 0.20414 0.875 0.34375 0.55709 0.27922 1.0601 0.66569 1.5 1.0938 0.21997 0.21403 0.40937 0.44186 0.59375 0.6875s0.35541 0.50774 0.5 0.78125c0.14012 0.26505 0.27614 0.52473 0.375 0.8125 0.01041 0.03078 0.02133 0.06274 0.03125 0.09375 0.09046 0.27808 0.1388 0.5794 0.1875 0.875 0.053 0.318 0.094 0.634 0.094 0.969v2 68 2c0 3.324-2.676 6-6 6h-72z"/>
  <path id="path3845" style="block-progression:tb;text-indent:0;color:#000000;text-transform:none;fill:url(#radialGradient3919)" d="m44.469 18.312c-6.8962 0.9144-13.008 4.1999-17.562 8.9688 4.4352-4.2221 10.159-7.1197 16.562-7.9688v24.5h1v-25.5zm8 0v1.1562c12.486 2.092 22.26 11.859 24.343 24.344h1.1562c-1.7619-13.29-12.21-23.729-25.5-25.5zm-31.188 3.2812c-7.138 6.879-11.594 16.523-11.594 27.188 0 20.822 16.959 37.812 37.781 37.812 10.665 0 20.309-4.4474 27.188-11.594-6.7986 6.5586-16.03 10.594-26.188 10.594-20.822 0-37.781-16.99-37.781-37.812 0-10.157 4.0427-19.389 10.594-26.188zm-2.343 30.219c0.04453 0.33233 0.10094 0.67131 0.15625 1h24.375v24.344c0.32881 0.05498 0.66756 0.11206 1 0.15625v-25.5h-25.531zm33.531 0v1h24.5c-0.857 6.392-3.746 12.103-7.969 16.532 4.769-4.549 8.047-10.648 8.969-17.532h-25.5z"/>
  <path id="path3809" style="block-progression:tb;text-indent:0;color:#000000;text-transform:none;fill:url(#radialGradient3853)" d="m47.469 11c-20.822 0-37.782 16.959-37.782 37.781 0.0005 20.822 16.96 37.813 37.782 37.813s37.781-16.991 37.781-37.813-16.959-37.781-37.781-37.781zm-4 8.312v25.5h-25.531c1.762-13.296 12.231-23.736 25.531-25.5zm8 0c13.29 1.772 23.738 12.211 25.5 25.5h-25.5v-25.5zm-33.531 33.5h25.531v25.5c-13.285-1.766-23.752-12.219-25.531-25.5zm33.531 0h25.5c-1.779 13.275-12.224 23.727-25.5 25.5v-25.5z"/>
  <path id="path3877" style="block-progression:tb;text-indent:0;color:#000000;text-transform:none;fill:url(#radialGradient3903)" d="m45.594 12.062c-21.755 0.437-39.188 22.901-34.156 44.126 3.783 21.077 27.782 34.921 47.812 27.468 19.979-6.128 30.985-31.07 21.75-50-6-13.483-20.462-22.572-35.406-21.594zm-1.125 7.25v26.5h-27.688c1.1659-14.287 13.429-26.502 27.688-27.656v1 0.15625zm7.1562-1c13.789 1.5921 25.381 13.683 26.5 27.5h-27.656v-27.656l0.99099 0.13392 0.16526 0.02233zm-33.688 33.5h26.531v27.656c-14.288-1.178-26.518-13.376-27.687-27.656h1 0.15625zm33.531 0h26.656c-1.1849 14.274-13.386 26.471-27.656 27.656v-27.656h1z"/>
  <path id="path3885" style="block-progression:tb;text-indent:0;color:#000000;text-transform:none;fill:url(#linearGradient3895)" d="m45.625 13.062c-22.943 0.238-40.303 26.147-32 47.626 6.596 20.095 32.897 30.58 51.344 19.437 18.628-9.989 24.546-37.548 10.384-53.757-7.103-8.747-18.373-14.078-29.728-13.306zm4.9688 4.0938c15.015 1.1653 27.969 14.537 28.625 29.656h-29.75v-29.781l0.99388 0.11043 0.13112 0.01457zm-5.125 1v28.656h-29.781c0.67592-15.514 14.268-29.075 29.781-29.75v1 0.09375zm-28.688 32.656h28.688v29.75c-15.521-0.685-29.088-14.205-29.781-29.75h1 0.09375zm33.688 0h28.75c-0.685 15.504-14.248 29.065-29.75 29.75v-29.75h1z"/>
  <path id="path3921" style="block-progression:tb;text-indent:0;color:#000000;text-transform:none;fill:url(#linearGradient3937)" d="m45.688 14.062c-23.793 0.005-40.86 29.033-29.688 49.876 8.864 19.245 36.93 26.364 53.281 12.156 16.191-12.774 17.653-40.507 0.969-53.532-6.722-5.835-15.672-9.115-24.562-8.5zm3.9062 1.9688c16.339 0.793 30.559 15.378 30.656 31.781h-31.781v-31.906l0.99388 0.11043 0.13112 0.01457zm-3.125 1.0312v30.75h-31.812c0.09704-16.769 15.04-31.679 31.812-31.781v1 0.03125zm-30.781 32.75h30.781v31.781c-16.788-0.112-31.709-15.007-31.813-31.781h1 0.03125zm33.781 0h30.781c-0.11906 16.78-15.001 31.662-31.781 31.781v-31.781h1z"/>
  <path id="path3907" style="block-progression:tb;text-indent:0;color:#000000;text-transform:none;fill:url(#radialGradient3912)" d="m47.469 11c-10.665 0-20.309 4.455-27.188 11.594 6.799-6.551 16.03-10.594 26.188-10.594 20.822 0 37.781 16.959 37.781 37.781 0 10.158-4.043 19.413-10.594 26.219 7.139-6.886 11.594-16.554 11.594-27.219 0-20.822-16.959-37.781-37.781-37.781zm3 9.3125v25.5h25.5c-0.04409-0.33255-0.10138-0.67111-0.15625-1h-24.344v-24.344c-0.3289-0.05508-0.66744-0.11193-1-0.15625zm-24.562 7.9688c-4.777 4.547-8.055 10.637-8.969 17.531h25.531v-1h-24.531c0.84872-6.4018 3.7395-12.103 7.9688-16.531zm-8.969 25.531c1.7794 13.281 12.246 23.734 25.531 25.5v-1.1562c-12.483-2.087-22.275-11.865-24.375-24.344h-1.1562zm33.531 0v25.5c6.884-0.919 12.983-4.198 17.531-8.968-4.428 4.224-10.139 7.115-16.531 7.968v-24.5h-1z"/>
 </g>
</svg>
