<?xml version="1.0" encoding="UTF-8" standalone="no"?>
<!-- Created with Inkscape (http://www.inkscape.org/) -->
<svg id="svg2408" xmlns:rdf="http://www.w3.org/1999/02/22-rdf-syntax-ns#" xmlns="http://www.w3.org/2000/svg" height="96" width="96" version="1.0" xmlns:cc="http://creativecommons.org/ns#" xmlns:xlink="http://www.w3.org/1999/xlink" xmlns:dc="http://purl.org/dc/elements/1.1/">
 <defs id="defs2410">
  <linearGradient id="ButtonShadow" y2="7.0165" gradientUnits="userSpaceOnUse" x2="45.448" gradientTransform="scale(1.0059 .99417)" y1="92.54" x1="45.448">
   <stop id="stop3750" offset="0"/>
   <stop id="stop3752" style="stop-opacity:.58824" offset="1"/>
  </linearGradient>
  <linearGradient id="linearGradient3737">
   <stop id="stop3739" style="stop-color:#fff" offset="0"/>
   <stop id="stop3741" style="stop-color:#fff;stop-opacity:0" offset="1"/>
  </linearGradient>
  <filter id="filter3174" color-interpolation-filters="sRGB">
   <feGaussianBlur id="feGaussianBlur3176" stdDeviation="1.71"/>
  </filter>
  <linearGradient id="linearGradient3188" y2="63.893" xlink:href="#linearGradient3737" gradientUnits="userSpaceOnUse" x2="36.357" y1="6" x1="36.357"/>
  <filter id="filter3794" height="1.384" width="1.384" color-interpolation-filters="sRGB" y="-.192" x="-.192">
   <feGaussianBlur id="feGaussianBlur3796" stdDeviation="5.28"/>
  </filter>
  <linearGradient id="linearGradient3613" y2="138.66" xlink:href="#linearGradient3737" gradientUnits="userSpaceOnUse" x2="48" y1="20.221" x1="48"/>
  <radialGradient id="radialGradient3619" xlink:href="#linearGradient3737" gradientUnits="userSpaceOnUse" cy="90.172" cx="48" gradientTransform="matrix(1.1573 0 0 .99591 -7.551 .19713)" r="42"/>
  <clipPath id="clipPath3613">
   <rect id="rect3615" style="fill:#fff" rx="6" ry="6" height="84" width="84" y="6" x="6"/>
  </clipPath>
  <linearGradient id="linearGradient3617" y2="5.9877" gradientUnits="userSpaceOnUse" x2="48" gradientTransform="translate(0,-96)" y1="90" x1="48">
   <stop id="stop7670" style="stop-color:#94b6db" offset="0"/>
   <stop id="stop7672" style="stop-color:#3465a4" offset="1"/>
  </linearGradient>
  <linearGradient id="ButtonShadow-0" y2="7.0165" gradientUnits="userSpaceOnUse" x2="45.448" gradientTransform="matrix(1.0059 0 0 .99417 100 0)" y1="92.54" x1="45.448">
   <stop id="stop3750-8" offset="0"/>
   <stop id="stop3752-5" style="stop-opacity:.58824" offset="1"/>
  </linearGradient>
  <linearGradient id="linearGradient3780" y2="90.239" xlink:href="#ButtonShadow-0" gradientUnits="userSpaceOnUse" x2="32.251" gradientTransform="matrix(1.0238 0 0 1.0119 -1.1429 -98.071)" y1="6.1317" x1="32.251"/>
  <linearGradient id="linearGradient3721" y2="90.239" xlink:href="#ButtonShadow-0" gradientUnits="userSpaceOnUse" x2="32.251" gradientTransform="translate(0,-97)" y1="6.1317" x1="32.251"/>
  <radialGradient id="radialGradient10960" gradientUnits="userSpaceOnUse" cy="20.124" cx="5.455" gradientTransform="matrix(.94178 0 0 .27428 .31761 14.402)" r="4.331">
   <stop id="stop10952" offset="0"/>
   <stop id="stop10954" style="stop-opacity:0" offset="1"/>
  </radialGradient>
  <linearGradient id="linearGradient3712" y2="68.069" gradientUnits="userSpaceOnUse" x2="25" gradientTransform="translate(-45.022 3.8774)" y1="-.12132" x1="24.899">
   <stop id="stop8570" style="stop-color:#fff" offset="0"/>
   <stop id="stop8572" style="stop-color:#fff;stop-opacity:0" offset="1"/>
  </linearGradient>
  <linearGradient id="linearGradient3715" y2="44.5" gradientUnits="userSpaceOnUse" x2="35.095" gradientTransform="matrix(1.5027 0 0 1.519 11.131 11.166)" y1="4.7143" x1="25.071">
   <stop id="stop3721" style="stop-color:#eaedf1" offset="0"/>
   <stop id="stop3723" style="stop-color:#c1ccdb" offset="1"/>
  </linearGradient>
  <linearGradient id="linearGradient11508">
   <stop id="stop11510" offset="0"/>
   <stop id="stop11512" style="stop-opacity:0" offset="1"/>
  </linearGradient>
  <linearGradient id="linearGradient10454" y2="6.2082" xlink:href="#linearGradient11508" gradientUnits="userSpaceOnUse" x2="87.732" gradientTransform="matrix(.84443 .12131 -.12943 .79144 26.342 12.197)" y1="82.474" x1="43.7"/>
  <linearGradient id="linearGradient10400" y2="39.534" gradientUnits="userSpaceOnUse" x2="68.223" gradientTransform="matrix(.81423 0 0 .81423 16.895 15.453)" y1="35.606" x1="60.899">
   <stop id="stop10396" style="stop-color:#1a1a1a" offset="0"/>
   <stop id="stop10404" style="stop-color:#636363" offset=".35185"/>
   <stop id="stop10402" style="stop-color:#c7c7c7" offset=".5"/>
   <stop id="stop10406" style="stop-color:#636363" offset="0.65"/>
   <stop id="stop10398" offset="1"/>
  </linearGradient>
  <linearGradient id="linearGradient8183" y2="67.674" gradientUnits="userSpaceOnUse" x2="13.406" gradientTransform="matrix(.59072 -.15822 .15862 .59174 38.272 30.328)" y1="77.502" x1="24.249">
   <stop id="stop6533" style="stop-color:#c38125" offset="0"/>
   <stop id="stop10377" style="stop-color:#c68d31" offset=".62963"/>
   <stop id="stop6535" style="stop-color:#fffce6" offset="1"/>
  </linearGradient>
  <linearGradient id="linearGradient10392" y2="57.993" gradientUnits="userSpaceOnUse" x2="47.451" gradientTransform="matrix(.81423 0 0 .81423 16.895 15.453)" y1="68.172" x1="58.652">
   <stop id="stop10388" style="stop-color:#fff" offset="0"/>
   <stop id="stop10390" style="stop-color:#fff;stop-opacity:0" offset="1"/>
  </linearGradient>
  <radialGradient id="radialGradient10416" gradientUnits="userSpaceOnUse" cy="41.704" cx="59.852" gradientTransform="matrix(1 0 0 .125 0 36.491)" r="18.183">
   <stop id="stop10412" style="stop-color:#fff" offset="0"/>
   <stop id="stop10414" style="stop-color:#fff;stop-opacity:0" offset="1"/>
  </radialGradient>
  <linearGradient id="linearGradient3010" y2="16.212" xlink:href="#linearGradient11508" gradientUnits="userSpaceOnUse" x2="77.924" gradientTransform="matrix(.86655 .18119 -.27629 .56830 37.568 28.213)" y1="82.474" x1="43.7"/>
 </defs>
 <metadata id="metadata2413">
  <rdf:RDF>
   <cc:Work rdf:about="">
    <dc:format>image/svg+xml</dc:format>
    <dc:type rdf:resource="http://purl.org/dc/dcmitype/StillImage"/>
    <dc:title/>
   </cc:Work>
  </rdf:RDF>
 </metadata>
 <g id="layer2" style="display:none">
  <rect id="rect3745" style="opacity:.9;filter:url(#filter3174);fill:url(#ButtonShadow)" rx="6" ry="6" height="85" width="86" y="7" x="5"/>
 </g>
 <g id="layer3">
  <path id="path3786" style="opacity:0.08;fill:url(#linearGradient3780)" d="m12-95.031c-5.5111 0-10.031 4.5202-10.031 10.031v71c0 5.5111 4.5202 10.031 10.031 10.031h72c5.5111 0 10.031-4.5202 10.031-10.031v-71c0-5.5111-4.5202-10.031-10.031-10.031h-72z" transform="scale(1,-1)"/>
  <path id="path3778" style="opacity:.1;fill:url(#linearGradient3780)" d="m12-94.031c-4.9716 0-9.0312 4.0596-9.0312 9.0312v71c0 4.9716 4.0596 9.0312 9.0312 9.0312h72c4.9716 0 9.0312-4.0596 9.0312-9.0312v-71c0-4.9716-4.0596-9.0312-9.0312-9.0312h-72z" transform="scale(1,-1)"/>
  <path id="path3770" style="opacity:.2;fill:url(#linearGradient3780)" d="m12-93c-4.4091 0-8 3.5909-8 8v71c0 4.4091 3.5909 8 8 8h72c4.4091 0 8-3.5909 8-8v-71c0-4.4091-3.5909-8-8-8h-72z" transform="scale(1,-1)"/>
  <rect id="rect3723" style="opacity:.3;fill:url(#linearGradient3780)" transform="scale(1,-1)" rx="7" ry="7" height="85" width="86" y="-92" x="5"/>
  <rect id="rect3716" style="opacity:.45;fill:url(#linearGradient3721)" transform="scale(1,-1)" rx="6" ry="6" height="84" width="84" y="-91" x="6"/>
 </g>
 <g id="layer1">
  <rect id="rect2419" style="fill:url(#linearGradient3617)" transform="scale(1,-1)" rx="6" ry="6" height="84" width="84" y="-90" x="6"/>
  <path id="rect3728" style="opacity:.4;fill:url(#linearGradient3188)" d="m12 6c-3.324 0-6 2.676-6 6v2 68 2c0 0.33472 0.04135 0.6507 0.09375 0.96875 0.0487 0.2956 0.09704 0.59692 0.1875 0.875 0.00988 0.03038 0.020892 0.0636 0.03125 0.09375 0.098865 0.28777 0.23488 0.54745 0.375 0.8125 0.14459 0.27351 0.31562 0.53562 0.5 0.78125 0.18438 0.24564 0.37378 0.47347 0.59375 0.6875 0.43995 0.42806 0.94291 0.81453 1.5 1.0938 0.27854 0.13961 0.57347 0.24695 0.875 0.34375-0.2562-0.10022-0.48671-0.23627-0.71875-0.375-0.00741-0.0044-0.023866 0.0045-0.03125 0-0.031933-0.0193-0.062293-0.04251-0.09375-0.0625-0.1204-0.0767-0.23102-0.16351-0.34375-0.25-0.10617-0.0808-0.21328-0.16111-0.3125-0.25-0.1778-0.162-0.3473-0.346-0.4999-0.531-0.1075-0.131-0.2183-0.266-0.3124-0.407-0.0251-0.038-0.0385-0.086-0.0626-0.125-0.0647-0.103-0.1302-0.204-0.1874-0.312-0.1011-0.195-0.2057-0.416-0.2813-0.625-0.008-0.022-0.0236-0.041-0.0313-0.063-0.0318-0.092-0.0358-0.187-0.0624-0.281-0.0304-0.107-0.0704-0.203-0.0938-0.313-0.0729-0.341-0.125-0.698-0.125-1.062v-2-68-2c0-2.782 2.2182-5 5-5h2 68 2c2.7818 0 5 2.2182 5 5v2 68 2c0 0.3643-0.05212 0.72099-0.125 1.0625-0.04415 0.20689-0.08838 0.39766-0.15625 0.59375-0.0077 0.02195-0.0233 0.04069-0.03125 0.0625-0.06274 0.17374-0.13838 0.36745-0.21875 0.53125-0.04158 0.0828-0.07904 0.16995-0.125 0.25-0.0546 0.09721-0.12677 0.18835-0.1875 0.28125-0.09411 0.14096-0.20492 0.276-0.3125 0.40625-0.14317 0.17445-0.30314 0.347-0.46875 0.5-0.01117 0.0102-0.01998 0.02115-0.03125 0.03125-0.13839 0.12556-0.28509 0.23444-0.4375 0.34375-0.10257 0.07315-0.20432 0.15336-0.3125 0.21875-0.0074 0.0045-0.02384-0.0044-0.03125 0-0.23204 0.13873-0.46255 0.27478-0.71875 0.375 0.30153-0.0968 0.59646-0.20414 0.875-0.34375 0.55709-0.27922 1.0601-0.66569 1.5-1.0938 0.21997-0.21403 0.40937-0.44186 0.59375-0.6875s0.35541-0.50774 0.5-0.78125c0.14012-0.26505 0.27614-0.52473 0.375-0.8125 0.01041-0.03078 0.02133-0.06274 0.03125-0.09375 0.09046-0.27808 0.1388-0.5794 0.1875-0.875 0.053-0.318 0.094-0.634 0.094-0.969v-2-68-2c0-3.324-2.676-6-6-6h-72z"/>
  <path id="path3615" style="opacity:.2;fill:url(#radialGradient3619)" d="m12 90c-3.324 0-6-2.676-6-6v-2-68-2c0-0.33472 0.04135-0.6507 0.09375-0.96875 0.0487-0.2956 0.09704-0.59692 0.1875-0.875 0.0099-0.03 0.0209-0.063 0.0313-0.094 0.0989-0.2873 0.2349-0.547 0.375-0.812 0.1446-0.2735 0.3156-0.5356 0.5-0.7812 0.1844-0.2457 0.3738-0.4735 0.5937-0.6876 0.44-0.428 0.943-0.8145 1.5-1.0937 0.2786-0.1396 0.5735-0.2469 0.8748-0.3437-0.256 0.1002-0.4865 0.2362-0.7185 0.375-0.00741 0.0044-0.023866-0.0045-0.03125 0-0.031933 0.0193-0.062293 0.04251-0.09375 0.0625-0.1204 0.0767-0.23102 0.16351-0.34375 0.25-0.10617 0.0808-0.21328 0.16111-0.3125 0.25-0.1779 0.1614-0.3474 0.3453-0.5 0.5312-0.1075 0.1303-0.2183 0.2653-0.3124 0.4063-0.0251 0.0383-0.0385 0.0858-0.0626 0.125-0.0647 0.103-0.1302 0.2045-0.1874 0.3124-0.1011 0.1948-0.2057 0.4158-0.2813 0.625-0.008 0.0219-0.0236 0.0406-0.0313 0.0626-0.0318 0.0919-0.0358 0.1868-0.0624 0.2812-0.0304 0.1066-0.0704 0.203-0.0938 0.3125-0.0729 0.3415-0.125 0.6985-0.125 1.0625v2 68 2c0 2.7818 2.2182 5 5 5h2 68 2c2.7818 0 5-2.2182 5-5v-2-68-2c0-0.364-0.052-0.721-0.125-1.0625-0.044-0.2069-0.088-0.3977-0.156-0.5937-0.008-0.022-0.024-0.0407-0.031-0.0626-0.063-0.1737-0.139-0.3674-0.219-0.5312-0.042-0.0828-0.079-0.17-0.125-0.25-0.055-0.0972-0.127-0.1884-0.188-0.2812-0.094-0.141-0.205-0.276-0.312-0.4063-0.143-0.1745-0.303-0.347-0.469-0.5-0.011-0.0102-0.02-0.0211-0.031-0.0313-0.139-0.1255-0.285-0.2344-0.438-0.3437-0.102-0.0731-0.204-0.1534-0.312-0.2187-0.0074-0.0045-0.02384 0.0044-0.03125 0-0.23204-0.13873-0.46255-0.27478-0.71875-0.375 0.30153 0.0968 0.59646 0.20414 0.875 0.34375 0.55709 0.27922 1.0601 0.66569 1.5 1.0938 0.21997 0.21403 0.40937 0.44186 0.59375 0.6875s0.35541 0.50774 0.5 0.78125c0.14012 0.26505 0.27614 0.52473 0.375 0.8125 0.01041 0.03078 0.02133 0.06274 0.03125 0.09375 0.09046 0.27808 0.1388 0.5794 0.1875 0.875 0.053 0.318 0.094 0.634 0.094 0.969v2 68 2c0 3.324-2.676 6-6 6h-72z"/>
  <path id="path10958" style="opacity:.3;fill:url(#radialGradient10960)" d="m9.7669 19.812a4.331 1.5247 0 1 1 -8.6621 0 4.331 1.5247 0 1 1 8.6621 0z" transform="matrix(.69268 0 0 .98380 -4.7873 26.886)"/>
  <path id="path6760" style="opacity:.6;stroke:url(#linearGradient3712);stroke-width:1px;fill:none" d="m-39.415 45.009c0.40591-8.9078 13.06-35.495 19.199-35.631 6.1403-0.13637 15.971 20.788 17.98 31.885 0 0-13.318-25.944-17.844-25.886-4.562 0.05825-16.381 22.518-14.297 25.227 2.0658 2.6869 18.294-2.309 18.294-2.309-0.86871 0.61481-10.129 5.9782-18.973 8.3677-2.0958 0.13345-4.2216 0.69172-4.3575-1.6546z"/>
 </g>
 <g id="layer5">
  <rect id="rect3171" style="opacity:.1;filter:url(#filter3794);stroke:#fff;stroke-linecap:round;stroke-width:.5;fill:url(#linearGradient3613)" clip-path="url(#clipPath3613)" rx="12" ry="12" height="66" width="66" y="15" x="15"/>
 </g>
 <g id="layer4">
  <path id="path3766" style="opacity:.05;fill-rule:evenodd" d="m48.406 17.031c-1.882 0.04244-3.5829 0.99159-5.25 2.3125-1.6714 1.3243-3.376 3.1282-5.0938 5.2812-3.4361 4.3068-6.9419 10.062-10.188 16.25-3.2459 6.1882-6.2078 12.81-8.3438 18.844-2.13 6.0172-3.5041 11.377-3.5 15.438 0.000009 0.0089-0.000022 0.02234 0 0.03125-0.000047 0.03106-0.000094 0.09048 0 0.09375a0.86422 0.86422 0 0 0 0 0.03125c0.14849 2.6017 1.8975 4.3325 3.75 5 1.7682 0.63714 3.5692 0.62134 4.8125 0.65625a0.86422 0.86422 0 0 0 0.03125 0c0.0044-0.000039 0.1206 0.000293 0.125 0s0.08938-0.0307 0.09375-0.03125c0.0044-0.000547 0.12066 0.000798 0.125 0 0.0033-0.00061 0.06361-0.02474 0.09375-0.03125 0.0095-0.002 0.0218 0.002 0.03125 0 8.896-1.852 18.912-6.573 26.908-10.968 4.002-2.1998 7.4829-4.3114 10.031-5.9688 1.2817-0.83357 2.3066-1.5749 3.0625-2.125 0.3607-0.26248 0.70689-0.4773 1-0.71875 0.16563-0.13644 0.3859-0.37231 0.625-0.6875 5.159 9.2574 9.5312 17.625 9.5312 17.625 0.003 0.0057 0.09033 0.11958 0.09375 0.125 0.0034 0.0054 0.08988 0.15114 0.09375 0.15625 0.0039 0.0051 0.08947 0.12023 0.09375 0.125 0.0043 0.0048 0.12033 0.08936 0.125 0.09375 0.0047 0.0044 0.11998 0.12102 0.125 0.125 0.005 0.004 0.11967 0.0902 0.125 0.09375 0.0053 0.0036 0.15064 0.09066 0.15625 0.09375 0.0056 0.0031 0.1504 0.05989 0.15625 0.0625 0.0059 0.0026 0.11895 0.06039 0.125 0.0625 0.0061 0.0021 0.15004 0.06091 0.15625 0.0625 0.0062 0.0016 0.18118 0.03018 0.1875 0.03125 0.0063 0.0011 0.14986-0.000535 0.15625 0 0.0064 0.000535 0.14984 0.000002 0.15625 0 0.0064-0.000002 0.14986 0.000539 0.15625 0 0.0064-0.000539 0.18118 0.0011 0.1875 0 0.0063-0.0011 0.15004-0.02965 0.15625-0.03125 0.0062-0.0016 0.1502-0.06039 0.15625-0.0625 0.006-0.0021 0.1504-0.05989 0.15625-0.0625 0.0059-0.0026 0.11939-0.05941 0.125-0.0625 0.0056-0.0031 0.15092-0.0902 0.15625-0.09375 0.0053-0.0036 0.11998-0.08976 0.125-0.09375 0.005-0.004 0.12034-0.1206 0.125-0.125 0.0047-0.0044 0.12072-0.08898 0.125-0.09375 0.0043-0.0048 0.08989-0.11989 0.09375-0.125 0.0039-0.0051 0.09033-0.15083 0.09375-0.15625 0.0034-0.0054 0.09079-0.11931 0.09375-0.125 0.003-0.0057 0.06003-0.15034 0.0625-0.15625 0.0025-0.0059 0.06054-0.15015 0.0625-0.15625 0.002-0.0061 0.0298-0.15001 0.03125-0.15625 0.0014-0.0062 0.03033-0.14991 0.03125-0.15625 0.000916-0.0063 0.03087-0.14985 0.03125-0.15625 0.000382-0.0064 0.000156-0.18109 0-0.1875-0.24486-11.233-5.3233-25.909-11.531-38-3.1044-6.0463-6.5144-11.428-9.8438-15.375-3.3181-3.934-6.5731-6.769-10.188-6.6875zm0.125 16.188c0.08788 0.04886 0.17773 0.09874 0.3125 0.1875 0.35282 0.23236 0.85822 0.61195 1.375 1.1562 1.0776 1.135 2.4242 2.9163 3.9062 5.0312 2.9599 4.2239 6.4361 9.9187 9.7188 15.625 0.43789 0.76118 0.72624 1.3359 1.1562 2.0938-0.04105 0.0045-0.09031-0.000517-0.09375 0-0.0057 0.000861-0.15059 0.02996-0.15625 0.03125-0.0057 0.0013-0.11946 0.06078-0.125 0.0625a0.86422 0.86422 0 0 0 -0.03125 0s-8.6522 2.8035-17.531 5.1875c-4.4393 1.192-8.9421 2.2945-12.344 2.8438-1.7029 0.27497-3.1265 0.39623-4.0312 0.375-0.146-0.0034-0.18746-0.01613-0.3125-0.03125 0.01257-0.25575 0.01914-0.50259 0.09375-0.84375 0.23349-1.0676 0.72591-2.5612 1.375-4.2812 1.2959-3.4342 3.2647-7.8005 5.5-12 2.2359-4.2006 4.7464-8.2759 6.9688-11.219 1.108-1.4672 2.154-2.6365 3-3.375 0.41073-0.35856 0.76784-0.61163 1.0312-0.75 0.17923-0.09415 0.16921-0.08177 0.1875-0.09375z"/>
  <path id="path3762" style="opacity:.1;fill-rule:evenodd" d="m48.438 17.906c-1.5976 0.03602-3.1539 0.86037-4.75 2.125s-3.2468 3.0059-4.9375 5.125c-3.3813 4.2381-6.8967 9.9704-10.125 16.125-3.229 6.155-6.164 12.734-8.282 18.719-2.1187 5.9851-3.4471 11.324-3.4375 15.188a1.0931 1.0931 0 0 0 0 0.0625c0.12861 2.2534 1.5792 3.6817 3.1562 4.25 1.577 0.56826 3.2928 0.5581 4.5625 0.59375a1.0931 1.0931 0 0 0 0.25 -0.03125c8.74-1.8151 18.754-6.4972 26.719-10.875 3.9822-2.1889 7.4399-4.2928 9.9688-5.9375 1.2644-0.82234 2.2811-1.5479 3.0312-2.0938 0.37505-0.27292 0.69838-0.49053 0.9375-0.6875s0.35119-0.25138 0.59375-0.625a1.0931 1.0931 0 0 0 -1.25 -1.625s-8.6858 2.827-17.594 5.2188c-4.454 1.1959-8.9784 2.2852-12.438 2.8438-1.7296 0.27928-3.1775 0.42995-4.1875 0.40625-0.505-0.01185-0.91989-0.09305-1.125-0.15625s-0.13855-0.08026-0.0625 0.0625c0.06829 0.1282-0.09431-0.69808 0.15625-1.8438s0.74952-2.6659 1.4062-4.4062c1.3135-3.4807 3.3105-7.8628 5.5625-12.094 2.252-4.2309 4.7652-8.3431 7.0312-11.344 1.133-1.5003 2.2089-2.7003 3.125-3.5 0.91605-0.79969 1.6623-1.0993 1.9062-1.0938 0.02708 0.000628 1.0513 0.45959 2.1875 1.6562 1.1362 1.1967 2.5064 2.9935 4 5.125 2.9872 4.2629 6.4601 9.9687 9.75 15.688 6.5797 11.438 12.438 22.875 12.438 22.875a1.0931 1.0931 0 0 0 2.065 -0.531c-0.24-10.986-5.273-25.618-11.438-37.625-3.082-6.004-6.453-11.347-9.718-15.219-3.2657-3.8718-6.3722-6.4455-9.5-6.375z"/>
  <path id="path3756" style="opacity:.3;fill-rule:evenodd" d="m18 75.203c-0.036-14.394 20.79-55.983 30.483-56.202 4.848-0.109 12.111 9.095 18.22 20.994 6.109 11.898 11.064 26.492 11.297 37.161 0 0-23.453-45.813-29.302-45.949-5.957-0.136-22.126 32.277-20.203 35.888 1.878 3.526 36.732-7.842 36.732-7.842-0.751 1.158-23.506 16.203-40.572 19.747-2.576-0.072-6.44-0.036-6.655-3.797z"/>
  <path id="path5556" style="fill:url(#linearGradient3715);fill-rule:evenodd" d="m18 74.203c-0.036-14.394 20.79-55.983 30.483-56.202 4.848-0.109 12.111 9.095 18.22 20.994 6.109 11.898 11.064 26.492 11.297 37.161 0 0-23.453-45.813-29.302-45.949-5.957-0.136-22.126 32.277-20.203 35.888 1.878 3.526 36.732-7.842 36.732-7.842-0.751 1.158-23.506 16.203-40.572 19.747-2.576-0.072-6.44-0.036-6.655-3.797z"/>
  <path id="path3738" style="opacity:.6;fill:#fff;fill-rule:evenodd" d="m47.5 20.031c-0.4901 0.01105-1.533 0.4302-2.8438 1.4688-1.3108 1.0385-2.844 2.6277-4.4375 4.625-3.1871 3.9947-6.6511 9.5667-9.8125 15.594-3.1614 6.0271-6.0359 12.53-8.0938 18.344-2.0423 5.7692-3.2705 10.919-3.2812 14.031 0.07029 1.1369 0.27903 1.1752 1.0938 1.4688 0.76826 0.27684 2.1028 0.33556 3.3438 0.375 0.12474-0.02656 0.2495-0.06588 0.375-0.09375-0.66834-0.05317-1.2892-0.12645-1.7188-0.28125-0.81472-0.29358-1.0235-0.33184-1.0938-1.4688 0.01071-3.1118 1.239-8.262 3.2812-14.031 2.0578-5.8133 4.9323-12.317 8.0938-18.344 3.1614-6.0271 6.6254-11.599 9.8125-15.594 1.5935-1.9973 3.1267-3.5865 4.4375-4.625 0.7339-0.58148 1.3591-0.95728 1.875-1.1875-0.427-0.182-0.774-0.287-1.031-0.281zm2.2188 8.1562c-0.3753-0.0085-0.73228 0.02145-1.0625 0.09375 1.4562 0.32761 2.3282 1.3629 3.4375 2.5312 1.3234 1.3938 2.7686 3.2655 4.3125 5.4688 3.0878 4.4066 6.5917 10.176 9.9062 15.938 3.6404 6.3281 4.5359 8.2165 6.875 12.625-0.6338-2.6459-1.439-5.3741-2.3438-8.125-0.69428-1.2545-1.4801-2.6727-2.5312-4.5-3.315-5.762-6.819-11.531-9.907-15.938-1.544-2.203-2.989-4.075-4.312-5.469-1.324-1.393-2.296-2.577-4.344-2.624a2.0437 2.0437 0 0 0 -0.03125 0zm1.2188 36.125c-1.8422 0.53192-1.89 0.63167-3.8438 1.1562-4.507 1.2101-9.0863 2.3147-12.75 2.9062-1.213 0.19587-2.3083 0.34173-3.3125 0.40625 0.17834 0.01366 0.34468 0.02687 0.53125 0.03125 1.3613 0.03194 2.9494-0.14171 4.7812-0.4375 3.614-0.58355 8.1149-1.6842 12.562-2.875 0.04787-0.02625 0.10853-0.03627 0.15625-0.0625 0.75123-0.41293 1.1638-0.72017 1.875-1.125z"/>
  <path id="path3743" style="opacity:.1;fill-rule:evenodd" d="m48.469 18c-9.694 0.219-30.505 41.794-30.469 56.188 0.21467 3.7612 4.0802 3.7402 6.6562 3.8125 17.066-3.5442 39.811-18.593 40.562-19.75 0 0-34.84 11.37-36.719 7.8438-1.922-3.611 14.231-36.011 20.189-35.875 5.849 0.135 29.312 45.937 29.312 45.937-0.233-10.669-5.203-25.257-11.312-37.156-6.11-11.899-13.372-21.109-18.219-21zm0.031 0.938c1.8269-0.0412 4.7895 1.9609 7.9062 5.6562 3.1168 3.6953 6.4379 8.9407 9.4688 14.844 5.1894 10.107 9.337 22.072 10.625 31.875-2.166-4.137-5.581-10.578-10.156-18.532-3.306-5.746-6.792-11.488-9.844-15.843-1.526-2.1777-2.9308-4.0201-4.1875-5.3438-1.2567-1.3236-2.2655-2.2817-3.5938-2.3125-1.1691-0.02662-2.2264 0.64564-3.3125 1.5938-1.0861 0.94811-2.2214 2.2436-3.4062 3.8125-2.3696 3.1378-4.8998 7.3271-7.1875 11.625s-4.3305 8.7165-5.6875 12.312c-0.6785 1.798-1.1836 3.3838-1.4688 4.6875-0.28514 1.3037-0.47089 2.2761 0.03125 3.2188 0.2814 0.52827 0.76171 0.78704 1.25 0.9375s1.0381 0.20425 1.6562 0.21875c1.2362 0.029 2.7983-0.11634 4.5938-0.40625 3.5909-0.57982 8.1369-1.7012 12.625-2.9062 6.3259-1.6985 9.3581-2.7041 12.469-3.6875-2.4716 1.602-5.8296 3.5981-9.6875 5.7188-7.8238 4.3005-17.642 8.8972-25.969 10.656-1.2899-0.03615-2.7988-0.08097-3.875-0.46875-1.0749-0.38731-1.7062-0.90262-1.8125-2.4062-0.00002-0.0082 0.000005-0.02303 0-0.03125-0.000832-0.01303 0.000752-0.01807 0-0.03125 0.0039-3.3759 1.2431-8.5916 3.3125-14.438 2.0795-5.8745 4.971-12.396 8.1562-18.469 3.1852-6.0725 6.6813-11.7 9.9375-15.781 1.6281-2.0407 3.1814-3.6935 4.5938-4.8125s2.678-1.6676 3.5625-1.6875z"/>
  <path id="path10456" style="opacity:.3;fill:url(#linearGradient3010)" d="m90.176 53.595c-3.6858 2.0006-7.2847 3.9883-10.534 6.2085-4.365 2.9824-7.4244 5.9688-8.8293 8.2441-0.0064 0.01041-0.01909 0.01507-0.02544 0.02544-0.85525 0.51272-6.9873 4.2125-10.102 6.3612-3.4 2.3458-9.1347 8.3459-9.1347 8.3459l0.66156 0.40712c5.6356-2.6277 16.972-5.2416 16.972-5.2416l0.38167-0.10178-0.10178-0.25445s-0.04964-0.10618 0-0.43256c0.04965-0.32638 0.21762-0.83976 0.63612-1.5267 0.90936-1.4926 3.2069-3.0679 4.7582-4.0203 3.5779-0.88322 8.6396-3.2387 13.359-6.463 0.67026-0.45796 1.3132-0.92542 1.9592-1.3995v-10.152z"/>
  <path id="path10430" style="opacity:.2;fill:url(#linearGradient10454)" d="m90.176 28.176c-5.8298 7.2724-12.578 13.153-17.76 20.127-3.3838 4.5536-5.5404 8.9528-6.3358 12.163-0.0036 0.01466-0.02187 0.03627-0.02545 0.05089-0.67899 0.79721-5.5292 6.4943-7.9388 9.7708-2.631 3.576-6.616 12.314-6.616 12.314l0.71245 0.45801c4.642-4.257 14.555-9.262 14.555-9.262l0.33078-0.17811-0.12722-0.33078s-0.07497-0.14566-0.10178-0.58523c-0.02682-0.43957-0.0059-1.1437 0.229-2.1119 0.51038-2.1039 2.3102-4.5039 3.5368-5.9795 3.1223-1.6622 7.2831-5.4587 10.941-10.381 3.1444-4.2314 5.7662-8.8272 8.6003-13.562v-12.493z"/>
  <path id="path10375" style="stroke:#000;fill:url(#linearGradient10400)" d="m75.065 49.547c-4.0496 8.2509-9.7641 14.119-11.845 13.001-2.2191-1.1922-1.1463-8.7964 3.0089-17.262 4.1542-8.4641 10.627-15.8 14.882-25.25 0.81079-1.801 2.3809-4.4618 4.6101-3.3316 2.3106 1.1714 1.6837 3.3635 0.46294 5.8534-4.7142 9.6155-7.0695 18.739-11.119 26.99z"/>
  <path id="path4343" style="stroke:#2e3436;stroke-linecap:round;stroke-width:4.3448;fill:none" d="m60.458 78.052a5.4801 7.7782 0 1 1 -10.96 0 5.4801 7.7782 0 1 1 10.96 0z" transform="matrix(.51543 -.13805 .18765 .34819 22.035 39.121)"/>
  <path id="path4341" style="fill-rule:evenodd;stroke:#c17d11;fill:url(#linearGradient8183)" d="m51.862 82.693s2.4075-9.3899 4.2814-13.255c1.8738-3.8654 6.3041-11.555 6.3041-11.555s1.2782-1.912 3.3416-0.89501 1.4678 2.9704 1.4678 2.9704-3.1117 4.6864-3.3706 8.3025c-0.14923 2.0844 0.3394 2.9362 0.3394 2.9362s-8.5696 6.4436-12.364 11.496z"/>
  <path id="path6537" style="fill-opacity:.6;stroke:#c17d11;stroke-linecap:round;stroke-width:.78448" d="m-27.931 71.865a1.2374 3.0052 0 1 1 -2.4749 0 1.2374 3.0052 0 1 1 2.4749 0z" transform="matrix(.40562 .17374 -.18617 .36893 82.843 47.706)"/>
  <path id="path8007" style="fill-rule:evenodd;stroke:#c17d11;stroke-width:.34298;fill:#c17d11" d="m51.91 82.456c1.6988-4.3791 2.9113-8.0673 5.0356-12.112"/>
  <path id="path10381" style="fill:url(#linearGradient10392);fill-rule:evenodd" d="m65.495 58.328c-0.17821 0.1447-0.29683 0.29517-0.30534 0.30534-0.00005 0.000087-0.02539-0.000101-0.02544 0-0.06143 0.10662-4.405 7.6789-6.2085 11.399-0.61451 1.2676-1.3455 3.3136-2.0101 5.4197 2.7494-2.4747 5.1081-4.2482 5.7505-4.7327-0.12267-0.60323-0.20766-1.4465-0.12722-2.5699 0.15355-2.1448 1.0634-4.3076 1.9084-6.005 0.76484-1.5364 1.367-2.4403 1.5012-2.6463 0.009-0.03587 0.0442-0.17192 0-0.43256-0.04097-0.2416-0.08618-0.47758-0.48345-0.7379z"/>
  <path id="path10408" style="fill:url(#radialGradient10416)" d="m78.034 41.704a18.183 2.2728 0 1 1 -36.365 0 18.183 2.2728 0 1 1 36.365 0z" transform="matrix(.37707 -.72166 .72166 .37707 17.693 71.942)"/>
 </g>
</svg>
