<?xml version="1.0" encoding="UTF-8" standalone="no"?>
<!-- Created with Inkscape (http://www.inkscape.org/) -->
<svg id="svg2408" xmlns:rdf="http://www.w3.org/1999/02/22-rdf-syntax-ns#" xmlns="http://www.w3.org/2000/svg" height="96" width="96" version="1.0" xmlns:cc="http://creativecommons.org/ns#" xmlns:xlink="http://www.w3.org/1999/xlink" xmlns:dc="http://purl.org/dc/elements/1.1/">
 <defs id="defs2410">
  <linearGradient id="ButtonShadow" y2="7.0165" gradientUnits="userSpaceOnUse" x2="45.448" gradientTransform="scale(1.0059 .99417)" y1="92.54" x1="45.448">
   <stop id="stop3750" offset="0"/>
   <stop id="stop3752" style="stop-opacity:.58824" offset="1"/>
  </linearGradient>
  <filter id="filter3174" color-interpolation-filters="sRGB">
   <feGaussianBlur id="feGaussianBlur3176" stdDeviation="1.71"/>
  </filter>
  <filter id="filter3174-71" color-interpolation-filters="sRGB">
   <feGaussianBlur id="feGaussianBlur3176-11" stdDeviation="1.71"/>
  </filter>
  <filter id="filter3174-71-6" color-interpolation-filters="sRGB">
   <feGaussianBlur id="feGaussianBlur3176-11-6" stdDeviation="1.71"/>
  </filter>
  <linearGradient id="linearGradient3463-0" y2="5.9877" xlink:href="#linearGradient3830-46" gradientUnits="userSpaceOnUse" y1="90" gradientTransform="matrix(.91649 0 0 .91649 15.006 3.5372)" x2="48" x1="48"/>
  <linearGradient id="linearGradient3457-2" y2="8.3126" xlink:href="#linearGradient3962-3" gradientUnits="userSpaceOnUse" y1="86.691" gradientTransform="translate(0 -.47148)" x2="34.308" x1="34.308"/>
  <linearGradient id="linearGradient3454-5" y2="8" xlink:href="#linearGradient3962-3" gradientUnits="userSpaceOnUse" y1="90" gradientTransform="matrix(1.1352 0 0 1.0876 -13.056 -1.1985)" x2="78.54" x1="78.54"/>
  <linearGradient id="linearGradient3451-5" y2="5.9877" gradientUnits="userSpaceOnUse" y1="90" gradientTransform="matrix(.91649 0 0 .91649 15.006 3.5372)" x2="48" x1="48">
   <stop id="stop4142-19" style="stop-color:#778177;stop-opacity:.68421" offset="0"/>
   <stop id="stop4144-69" style="stop-color:#eff2ef;stop-opacity:0" offset="1"/>
  </linearGradient>
  <linearGradient id="linearGradient3447-0" y2="8" xlink:href="#linearGradient3962-3" gradientUnits="userSpaceOnUse" y1="90" gradientTransform="matrix(.72827 0 0 .69774 23.157 1.9324)" x2="78.54" x1="78.54"/>
  <linearGradient id="linearGradient3432-2" y2="90.239" xlink:href="#ButtonShadow-0-7-82" gradientUnits="userSpaceOnUse" y1="6.1317" gradientTransform="translate(0,-97)" x2="32.251" x1="32.251"/>
  <linearGradient id="linearGradient3430-2" y2="90.239" xlink:href="#ButtonShadow-0-7-82" gradientUnits="userSpaceOnUse" y1="6.1317" gradientTransform="matrix(1.0238 0 0 1.0119 -1.1429 -98.071)" x2="32.251" x1="32.251"/>
  <linearGradient id="ButtonShadow-0-7-82" x1="45.448" gradientUnits="userSpaceOnUse" y1="92.54" gradientTransform="matrix(1.0059 0 0 .99417 100 0)" x2="45.448" y2="7.0165">
   <stop id="stop3750-8-5-9" offset="0"/>
   <stop id="stop3752-5-3-9" style="stop-opacity:.58824" offset="1"/>
  </linearGradient>
  <linearGradient id="linearGradient3830-46">
   <stop id="stop3832-2" style="stop-color:#dbdbdb" offset="0"/>
   <stop id="stop3834-67" style="stop-color:#f9faf9" offset="1"/>
  </linearGradient>
  <linearGradient id="linearGradient3962-3">
   <stop id="stop3964-4" style="stop-color:#333" offset="0"/>
   <stop id="stop3966-0" style="stop-color:#686868" offset="1"/>
  </linearGradient>
  <filter id="filter3174-2" color-interpolation-filters="sRGB">
   <feGaussianBlur id="feGaussianBlur3176-89" stdDeviation="1.71"/>
  </filter>
  <linearGradient id="linearGradient3737-9">
   <stop id="stop3739-77" style="stop-color:#fff" offset="0"/>
   <stop id="stop3741-64" style="stop-color:#fff;stop-opacity:0" offset="1"/>
  </linearGradient>
  <radialGradient id="radialGradient15299" xlink:href="#linearGradient3737-9" gradientUnits="userSpaceOnUse" cy="90.172" cx="48" gradientTransform="matrix(1.1573 0 0 .99591 -7.551 .19713)" r="42"/>
  <linearGradient id="linearGradient15302" y2="63.893" xlink:href="#linearGradient3737-9" gradientUnits="userSpaceOnUse" x2="36.357" y1="6" x1="36.357"/>
  <linearGradient id="linearGradient15305" y2="90.488" gradientUnits="userSpaceOnUse" x2="89.75" y1="22.5" x1="17.75">
   <stop id="stop3900" style="stop-color:#2d2" offset="0"/>
   <stop id="stop3902" style="stop-color:#389738" offset="1"/>
  </linearGradient>
 </defs>
 <metadata id="metadata2413">
  <rdf:RDF>
   <cc:Work rdf:about="">
    <dc:format>image/svg+xml</dc:format>
    <dc:type rdf:resource="http://purl.org/dc/dcmitype/StillImage"/>
    <dc:title/>
   </cc:Work>
  </rdf:RDF>
 </metadata>
 <g id="layer2" style="display:none">
  <rect id="rect3745" style="opacity:.9;filter:url(#filter3174);fill:url(#ButtonShadow)" rx="6" ry="6" height="85" width="86" y="7" x="5"/>
 </g>
 <g id="layer2-2" style="display:none">
  <rect id="rect3745-1" style="opacity:.9;filter:url(#filter3174-2);fill:url(#ButtonShadow)" rx="6" ry="6" height="85" width="86" y="7" x="5"/>
 </g>
 <g id="layer5-3" style="display:none">
  <rect id="rect3420-2" style="stroke-linejoin:round;stroke:#fff;stroke-linecap:round;stroke-width:2.386;display:inline;fill:#f44800" rx="5.8528" ry="6.1733" height="122.39" width="173.82" y="-9.1146" x="-25.096"/>
  <g id="layer3-8-7" transform="translate(0,-1.5)">
   <path id="path3786-9-6" style="opacity:0.08;display:inline;fill:url(#linearGradient3430-2)" transform="scale(1,-1)" d="m12-95.031c-5.5111 0-10.031 4.5202-10.031 10.031v71c0 5.5111 4.5202 10.031 10.031 10.031h72c5.5111 0 10.031-4.5202 10.031-10.031v-71c0-5.5111-4.5202-10.031-10.031-10.031h-72z"/>
   <path id="path3778-6-1" style="opacity:.1;display:inline;fill:url(#linearGradient3430-2)" transform="scale(1,-1)" d="m12-94.031c-4.9716 0-9.0312 4.0596-9.0312 9.0312v71c0 4.9716 4.0596 9.0312 9.0312 9.0312h72c4.9716 0 9.0312-4.0596 9.0312-9.0312v-71c0-4.9716-4.0596-9.0312-9.0312-9.0312h-72z"/>
   <path id="path3770-4-7" style="opacity:.2;display:inline;fill:url(#linearGradient3430-2)" transform="scale(1,-1)" d="m12-93c-4.4091 0-8 3.5909-8 8v71c0 4.4091 3.5909 8 8 8h72c4.4091 0 8-3.5909 8-8v-71c0-4.4091-3.5909-8-8-8h-72z"/>
   <rect id="rect3723-3-5" style="opacity:.3;fill:url(#linearGradient3430-2);display:inline" transform="scale(1,-1)" rx="7" ry="7" height="85" width="86" y="-92" x="5"/>
   <rect id="rect3716-3-1" style="opacity:.45;fill:url(#linearGradient3432-2);display:inline" transform="scale(1,-1)" rx="6" ry="6" height="84" width="84" y="-91" x="6"/>
  </g>
  <path id="path3178-5" style="fill:url(#linearGradient3463-0)" d="m15.006 9.0361c-3.0464 0-5.4989 2.4525-5.4989 5.4989v0.48688 65.013 0.48688c0 3.0464 2.4525 5.4989 5.4989 5.4989h0.48688 1.6039 8.9071 3.4082 51.581c3.0464 0 5.4989-2.4525 5.4989-5.4989v-65.987c0-3.0464-2.4525-5.4989-5.4989-5.4989h-44.851-10.139-7.7615-2.7495-0.48688z"/>
  <path id="path4010-5" style="fill:url(#linearGradient3463-0)" d="m15.006 9.0361c-3.0464 0-5.4989 2.4525-5.4989 5.4989v0.48688 65.013 0.48688c0 3.0464 2.4525 5.4989 5.4989 5.4989h0.48688 1.6039 8.9071 3.4082 51.581c3.0464 0 5.4989-2.4525 5.4989-5.4989v-65.987c0-3.0464-2.4525-5.4989-5.4989-5.4989h-44.851-10.139-7.7615-2.7495-0.48688z"/>
  <path id="path3970-7" style="stroke:url(#linearGradient3457-2);stroke-width:3;fill:none" d="m15.006 9.0361c-3.0464 0-5.4989 2.4525-5.4989 5.4989v0.48688 65.013 0.48688c0 3.0464 2.4525 5.4989 5.4989 5.4989h0.48688 1.6039 8.9071 3.4082 51.581c3.0464 0 5.4989-2.4525 5.4989-5.4989v-65.987c0-3.0464-2.4525-5.4989-5.4989-5.4989h-44.851-10.139-7.7615-2.7495-0.48688z"/>
  <path id="path4006-8" style="fill:url(#linearGradient3454-5)" d="m48.03 7.5361 39.944 38.269v-29.568c0-4.7724-4.1-8.7006-9.0813-8.7006h-30.862z"/>
  <path id="path4076-17" style="opacity:.50040;fill:url(#linearGradient3451-5)" d="m86.5 41.219c-9.7412 7.7481-22.691 14.682-37.594 19.531-13.921 4.5297-27.537 6.587-39.406 6.4062v12.875 0.5c0 3.0464 2.4536 5.5 5.5 5.5h0.5 1.5938 8.9062 3.4062 51.594c3.0464 0 5.5-2.4536 5.5-5.5v-39.312z"/>
  <path id="path3998-8" style="fill:#fff" d="m56.486 7.5361 31.487 30.167v-23.309c0-3.7621-3.232-6.8586-7.1588-6.8586h-24.329z"/>
  <path id="path3978-9" style="fill:url(#linearGradient3447-0)" d="m62.347 7.5361 25.626 24.552v-18.97c0-3.0618-2.6304-5.5819-5.8262-5.5819h-19.8z"/>
 </g>
 <text id="text16647-1" style="font-size:12px;font-weight:500;letter-spacing:0px;word-spacing:0px;font-family:tobiasbernard;line-height:125%;fill:#000000" xml:space="preserve" y="275.7851" x="150.16377"><tspan id="tspan16649-3" x="150.16377" y="275.7851"/></text>
 <text id="text14143-9" style="font-size:12px;letter-spacing:0px;word-spacing:0px;font-family:Arial;line-height:125%;fill:#000000" xml:space="preserve" y="282.47272" x="178.03636"><tspan id="tspan14145-2" x="178.03636" y="282.47272"/></text>
 <g id="layer2-8-8" style="display:none" transform="translate(708.8 -99.077)">
  <rect id="rect3745-5-2" style="opacity:.9;filter:url(#filter3174-71-6);fill:url(#ButtonShadow)" rx="6" ry="6" height="85" width="86" y="7" x="5"/>
 </g>
 <text id="text16647" style="font-size:12px;font-weight:500;letter-spacing:0px;word-spacing:0px;font-family:tobiasbernard;line-height:125%;fill:#000000" xml:space="preserve" y="275.7851" x="150.16377"><tspan id="tspan16649" x="150.16377" y="275.7851"/></text>
 <text id="text14143" style="font-size:12px;letter-spacing:0px;word-spacing:0px;font-family:Arial;line-height:125%;fill:#000000" xml:space="preserve" y="282.47272" x="178.03636"><tspan id="tspan14145" x="178.03636" y="282.47272"/></text>
 <g id="layer2-8" style="display:none" transform="translate(708.8 -99.077)">
  <rect id="rect3745-5" style="opacity:.9;filter:url(#filter3174-71);fill:url(#ButtonShadow)" rx="6" ry="6" height="85" width="86" y="7" x="5"/>
 </g>
 <g id="g15202">
  <path id="path15204" d="m12-95.031c-5.5111 0-10.031 4.5202-10.031 10.031v71c0 5.5111 4.5202 10.031 10.031 10.031h72c5.5111 0 10.031-4.5202 10.031-10.031v-71c0-5.5111-4.5202-10.031-10.031-10.031h-72z" style="opacity:0.08;fill:url(#linearGradient3430-2)" transform="scale(1,-1)"/>
  <path id="path15206" d="m12-94.031c-4.9716 0-9.0312 4.0596-9.0312 9.0312v71c0 4.9716 4.0596 9.0312 9.0312 9.0312h72c4.9716 0 9.0312-4.0596 9.0312-9.0312v-71c0-4.9716-4.0596-9.0312-9.0312-9.0312h-72z" style="opacity:.1;fill:url(#linearGradient3430-2)" transform="scale(1,-1)"/>
  <path id="path15208" d="m12-93c-4.4091 0-8 3.5909-8 8v71c0 4.4091 3.5909 8 8 8h72c4.4091 0 8-3.5909 8-8v-71c0-4.4091-3.5909-8-8-8h-72z" style="opacity:.2;fill:url(#linearGradient3430-2)" transform="scale(1,-1)"/>
  <rect id="rect15210" style="opacity:.3;fill:url(#linearGradient3430-2)" rx="7" ry="7" transform="scale(1,-1)" width="86" y="-92" x="5" height="85"/>
  <rect id="rect15212" style="opacity:.45;fill:url(#linearGradient3432-2)" rx="6" ry="6" transform="scale(1,-1)" width="84" y="-91" x="6" height="84"/>
 </g>
 <rect id="rect15216" style="fill:url(#linearGradient15305)" rx="6" ry="6" height="84" width="84" y="6" x="6"/>
 <path id="path15218" style="opacity:.5;fill:url(#linearGradient15302)" d="m12 6c-3.324 0-6 2.676-6 6v2 68 2c0 0.33472 0.0413 0.6507 0.0937 0.96875 0.0487 0.2956 0.097 0.59692 0.1875 0.875 0.01 0.03038 0.0209 0.0636 0.0312 0.09375 0.0989 0.28777 0.23488 0.54745 0.375 0.8125 0.14459 0.27351 0.31562 0.53562 0.5 0.78125 0.18438 0.24564 0.37378 0.47347 0.59375 0.6875 0.43995 0.42806 0.94291 0.81453 1.5 1.0938 0.27854 0.13961 0.57347 0.24695 0.875 0.34375-0.2562-0.10022-0.48671-0.23627-0.71875-0.375-0.007-0.004-0.0239 0.004-0.0312 0-0.0319-0.0193-0.0623-0.04251-0.0937-0.0625-0.12039-0.0767-0.23102-0.16351-0.34375-0.25-0.10617-0.0808-0.21328-0.16111-0.3125-0.25-0.178-0.162-0.3475-0.346-0.5001-0.531-0.1075-0.131-0.2183-0.266-0.3124-0.407-0.0252-0.038-0.0384-0.086-0.0626-0.125-0.0648-0.103-0.1302-0.204-0.1874-0.312-0.1011-0.195-0.2057-0.416-0.2813-0.625-0.008-0.022-0.0236-0.041-0.0312-0.063-0.0318-0.092-0.0358-0.187-0.0625-0.281-0.0303-0.107-0.0704-0.203-0.0937-0.313-0.0729-0.341-0.125-0.698-0.125-1.062v-2-68-2c0-2.7818 2.2182-5 5-5h2 68 2c2.7818 0 5 2.2182 5 5v2 68 2c0 0.3643-0.0521 0.72099-0.125 1.0625-0.0442 0.20689-0.0884 0.39766-0.15625 0.59375-0.008 0.02195-0.0233 0.04069-0.0312 0.0625-0.0627 0.17374-0.13838 0.36745-0.21875 0.53125-0.0416 0.0828-0.079 0.16995-0.125 0.25-0.0546 0.09721-0.12677 0.18835-0.1875 0.28125-0.0941 0.14096-0.20492 0.276-0.3125 0.40625-0.14317 0.17445-0.30314 0.347-0.46875 0.5-0.0112 0.0102-0.02 0.02115-0.0312 0.03125-0.13839 0.12556-0.28509 0.23444-0.4375 0.34375-0.10257 0.07315-0.20432 0.15336-0.3125 0.21875-0.007 0.004-0.0238-0.004-0.0312 0-0.23204 0.13873-0.46255 0.27478-0.71875 0.375 0.30153-0.0968 0.59645-0.20414 0.875-0.34375 0.55709-0.27922 1.06-0.66569 1.5-1.0938 0.21997-0.21403 0.40937-0.44186 0.59375-0.6875s0.35541-0.50774 0.5-0.78125c0.14012-0.26505 0.27613-0.52473 0.375-0.8125 0.0104-0.03078 0.0213-0.06274 0.0312-0.09375 0.0905-0.27808 0.1388-0.5794 0.1875-0.875 0.0524-0.31805 0.0937-0.63403 0.0937-0.96875v-2-68-2c0-3.324-2.676-6-6-6h-72z"/>
 <path id="path15220" style="opacity:.2;fill:url(#radialGradient15299)" d="m12 90c-3.324 0-6-2.676-6-6v-2-68-2c0-0.33472 0.0413-0.6507 0.0937-0.96875 0.0487-0.2956 0.097-0.59692 0.1875-0.875 0.01-0.03038 0.0209-0.0636 0.0312-0.09375 0.0989-0.2873 0.2349-0.547 0.375-0.812 0.1446-0.2735 0.3156-0.5356 0.5-0.7812 0.1844-0.2457 0.3738-0.4735 0.5938-0.6876 0.4399-0.428 0.9429-0.8145 1.5-1.0937 0.2785-0.1396 0.5734-0.2469 0.8748-0.3437-0.256 0.1002-0.4866 0.2362-0.7186 0.375-0.007 0.0044-0.0239-0.0045-0.0312 0-0.0319 0.0193-0.0623 0.04251-0.0937 0.0625-0.12039 0.0767-0.23102 0.16351-0.34375 0.25-0.10617 0.0808-0.21328 0.16111-0.3125 0.25-0.1779 0.1614-0.3474 0.3453-0.5 0.5312-0.1075 0.1303-0.2183 0.2653-0.3124 0.4063-0.0252 0.0383-0.0384 0.0858-0.0626 0.125-0.0648 0.103-0.1302 0.2045-0.1874 0.3124-0.1011 0.1948-0.2057 0.4158-0.2813 0.625-0.008 0.0219-0.0236 0.0406-0.0312 0.0626-0.0318 0.0919-0.0358 0.1868-0.0625 0.2812-0.0303 0.1066-0.0704 0.203-0.0937 0.3125-0.0729 0.3415-0.125 0.6985-0.125 1.0625v2 68 2c0 2.7818 2.2182 5 5 5h2 68 2c2.7818 0 5-2.2182 5-5v-2-68-2c0-0.3643-0.0521-0.72099-0.125-1.0625-0.044-0.2069-0.088-0.3977-0.156-0.5937-0.008-0.022-0.023-0.0407-0.031-0.0626-0.063-0.1737-0.139-0.3674-0.219-0.5312-0.042-0.0828-0.079-0.17-0.125-0.25-0.055-0.0972-0.127-0.1884-0.188-0.2812-0.094-0.141-0.205-0.276-0.312-0.4063-0.143-0.1745-0.303-0.347-0.469-0.5-0.011-0.0102-0.02-0.0211-0.031-0.0313-0.138-0.1255-0.285-0.2344-0.438-0.3437-0.102-0.0731-0.204-0.1534-0.312-0.2187-0.007-0.0045-0.0238 0.0044-0.0312 0-0.23204-0.13873-0.46255-0.27478-0.71875-0.375 0.30153 0.0968 0.59645 0.20414 0.875 0.34375 0.55709 0.27922 1.06 0.66569 1.5 1.0938 0.21997 0.21403 0.40937 0.44186 0.59375 0.6875s0.35541 0.50774 0.5 0.78125c0.14012 0.26505 0.27613 0.52473 0.375 0.8125 0.0104 0.03078 0.0213 0.06274 0.0312 0.09375 0.0905 0.27808 0.1388 0.5794 0.1875 0.875 0.0524 0.31805 0.0937 0.63403 0.0937 0.96875v2 68 2c0 3.324-2.676 6-6 6h-72z"/>
 <path id="path15361" style="fill:#fff" d="m32.32 45.281v0.75 3.625s-0.10957 3.3283-1.5938 4.8125c-1.078 1.079-13.012 13.103-24.718 24.907v4.625c0 3.324 2.676 6 6 6h72c3.324 0 6-2.676 6-6v-4.2812l-25.032-25.157-0.062-0.062-0.031-0.031s-0.0152 0.01153-0.125-0.125c-0.10984-0.13653-0.26305-0.36286-0.4375-0.75-0.34895-0.77428-0.71875-2.1511-0.71875-4.4062v-3.1562-0.75h-0.75-29.781-0.75zm6.5312 3.9688h18.25v4.6562c0 1.3212 0.35735 2.3149 0.71875 2.9688 0.3419 0.61852 0.70779 0.90007 0.75 0.9375l-0.0312 0.03125 0.0625 0.03125 14.375 14.406h-50c0.32029-0.32552 0.58181-0.60382 1-1.0312 1.3767-1.4071 3.2108-3.3143 5.0938-5.25 3.766-3.8714 7.718-7.9367 8.3438-8.5625 1.499-1.4989 1.4114-3.3079 1.4062-3.4062h0.0312v-4.7812z"/>
 <path id="path15228" style="color:#000000;fill:#fff" d="m103.25 51.375a6.25 6.25 0 1 1 -12.5 0 6.25 6.25 0 1 1 12.5 0z" transform="matrix(.82694 0 0 .82694 -31.036 -4.7968)"/>
 <path id="path15230" style="color:#000000;fill:#fff" d="m103.25 51.375a6.25 6.25 0 1 1 -12.5 0 6.25 6.25 0 1 1 12.5 0z" transform="matrix(.59659 0 0 .59659 -.75964 -6.4335)"/>
 <path id="path15232" style="color:#000000;fill:#fff" d="m103.25 51.375a6.25 6.25 0 1 1 -12.5 0 6.25 6.25 0 1 1 12.5 0z" transform="matrix(.50015 0 0 .50015 -10.125 -12.575)"/>
</svg>
