<?xml version="1.0" encoding="UTF-8" standalone="no"?>
<!-- Created with Inkscape (http://www.inkscape.org/) -->
<svg id="svg2408" xmlns:rdf="http://www.w3.org/1999/02/22-rdf-syntax-ns#" xmlns="http://www.w3.org/2000/svg" height="96" width="96" version="1.0" xmlns:cc="http://creativecommons.org/ns#" xmlns:xlink="http://www.w3.org/1999/xlink" xmlns:dc="http://purl.org/dc/elements/1.1/">
 <defs id="defs2410">
  <linearGradient id="ButtonShadow" y2="7.0165" gradientUnits="userSpaceOnUse" x2="45.448" gradientTransform="scale(1.0059 .99417)" y1="92.54" x1="45.448">
   <stop id="stop3750" offset="0"/>
   <stop id="stop3752" style="stop-opacity:.58824" offset="1"/>
  </linearGradient>
  <linearGradient id="linearGradient3737">
   <stop id="stop3739" style="stop-color:#fff" offset="0"/>
   <stop id="stop3741" style="stop-color:#fff;stop-opacity:0" offset="1"/>
  </linearGradient>
  <filter id="filter3174" color-interpolation-filters="sRGB">
   <feGaussianBlur id="feGaussianBlur3176" stdDeviation="1.71"/>
  </filter>
  <linearGradient id="linearGradient3188" y2="63.893" xlink:href="#linearGradient3737" gradientUnits="userSpaceOnUse" x2="36.357" y1="6" x1="36.357"/>
  <filter id="filter3794" height="1.384" width="1.384" color-interpolation-filters="sRGB" y="-.192" x="-.192">
   <feGaussianBlur id="feGaussianBlur3796" stdDeviation="5.28"/>
  </filter>
  <linearGradient id="linearGradient3613" y2="138.66" xlink:href="#linearGradient3737" gradientUnits="userSpaceOnUse" x2="48" y1="20.221" x1="48"/>
  <radialGradient id="radialGradient3619" xlink:href="#linearGradient3737" gradientUnits="userSpaceOnUse" cy="90.172" cx="48" gradientTransform="matrix(1.1573 0 0 .99591 -7.551 .19713)" r="42"/>
  <clipPath id="clipPath3613">
   <rect id="rect3615" style="fill:#fff" rx="6" ry="6" height="84" width="84" y="6" x="6"/>
  </clipPath>
  <linearGradient id="linearGradient3617" y2="5.9877" gradientUnits="userSpaceOnUse" x2="48" gradientTransform="translate(0,-96)" y1="90" x1="48">
   <stop id="stop3811" style="stop-color:#f0f0f0" offset="0"/>
   <stop id="stop3813" style="stop-color:#e1e1e1" offset=".2814"/>
   <stop id="stop3815" style="stop-color:#c0c0c0" offset=".75150"/>
   <stop id="stop3817" style="stop-color:#b2b2b2" offset="1"/>
  </linearGradient>
  <mask id="XMLID_23_">
   <g id="g31" style="filter:url(#Adobe_OpacityMaskFilter)">
    <radialGradient id="XMLID_24_" gradientUnits="userSpaceOnUse" cy="-20.899" cx="88.978" r="673.12">
     <stop id="stop34" style="stop-color:#fff" offset="0.309"/>
     <stop id="stop36" offset="1"/>
    </radialGradient>
    <ellipse id="ellipse38" style="fill:url(#XMLID_24_) #000000" rx="512.93" ry="349.11" cy="286.17" cx="295.89"/>
   </g>
  </mask>
  <linearGradient id="XMLID_5_" y2="560.35" gradientUnits="userSpaceOnUse" x2="278.14" y1="634.63" x1="220.95">
   <stop id="stop119" style="stop-color:#fff" offset="0"/>
   <stop id="stop121" style="stop-color:#193d6b" offset="1"/>
  </linearGradient>
  <linearGradient id="linearGradient5498">
   <stop id="stop5500" style="stop-color:#eee" offset="0"/>
   <stop id="stop5502" style="stop-color:#eee;stop-opacity:0" offset="1"/>
  </linearGradient>
  <linearGradient id="linearGradient3928" y2="491.07" xlink:href="#linearGradient5498" gradientUnits="userSpaceOnUse" x2="185.21" gradientTransform="matrix(.084286 0 0 .084286 12.003 12.008)" y1="756.76" x1="220.37"/>
  <linearGradient id="linearGradient3931" y2="580.55" xlink:href="#linearGradient5498" gradientUnits="userSpaceOnUse" x2="130.32" gradientTransform="matrix(.084286 0 0 .084286 12.003 12.008)" y1="274.88" x1="247.48"/>
  <linearGradient id="linearGradient3934" y2="458.38" xlink:href="#linearGradient5498" gradientUnits="userSpaceOnUse" x2="370.21" gradientTransform="matrix(.084286 0 0 .084286 12.003 12.008)" y1="-309.6" x1="370.62"/>
  <linearGradient id="linearGradient3937" y2="630.52" xlink:href="#linearGradient5498" gradientUnits="userSpaceOnUse" x2="361.14" gradientTransform="matrix(.084286 0 0 .084286 12.003 12.008)" y1="-363.42" x1="1508.5"/>
  <linearGradient id="linearGradient3940" y2="688.75" xlink:href="#XMLID_5_" gradientUnits="userSpaceOnUse" x2="409.85" gradientTransform="matrix(.094874 0 0 .094874 8.4732 8.6743)" y1="790.52" x1="331.5"/>
  <linearGradient id="linearGradient3943" y2="626.01" xlink:href="#XMLID_5_" gradientUnits="userSpaceOnUse" x2="373.13" gradientTransform="matrix(.094874 0 0 .094874 8.4732 8.6743)" y1="713.55" x1="319.19"/>
  <linearGradient id="linearGradient3946" y2="612.61" xlink:href="#XMLID_5_" gradientUnits="userSpaceOnUse" x2="335.1" gradientTransform="matrix(.094874 0 0 .094874 8.4732 8.6743)" y1="704.24" x1="264.54"/>
  <linearGradient id="linearGradient3949" y2="565.87" xlink:href="#XMLID_5_" gradientUnits="userSpaceOnUse" x2="328.18" gradientTransform="matrix(.094874 0 0 .094874 8.4732 8.6743)" y1="684.02" x1="237.21"/>
  <linearGradient id="linearGradient3952" y2="560.35" xlink:href="#XMLID_5_" gradientUnits="userSpaceOnUse" x2="278.14" gradientTransform="matrix(.094874 0 0 .094874 8.4732 8.6743)" y1="634.63" x1="220.95"/>
  <linearGradient id="linearGradient3955" y2="643.31" gradientUnits="userSpaceOnUse" x2="480.12" gradientTransform="matrix(-.094874 0 0 .094874 98.725 8.6743)" y1="815.45" x1="429.85">
   <stop id="stop112" style="stop-color:#fff" offset="0"/>
   <stop id="stop114" style="stop-color:#e5eaf2" offset="1"/>
  </linearGradient>
  <radialGradient id="radialGradient3959" gradientUnits="userSpaceOnUse" cy="783.16" cx="375.21" gradientTransform="matrix(.094874 0 0 .094874 8.4732 8.6743)" r="300.58">
   <stop id="stop29547" style="stop-color:#eeeeef;stop-opacity:.94118" offset=".0112"/>
   <stop id="stop29549" style="stop-color:#6193cf" offset=".29210"/>
   <stop id="stop29551" style="stop-color:#2c72c7" offset=".45750"/>
   <stop id="stop29553" style="stop-color:#0057ae" offset=".6767"/>
   <stop id="stop29555" style="stop-color:#004d9a" offset=".8653"/>
   <stop id="stop29557" style="stop-color:#00438a" offset="1"/>
  </radialGradient>
  <radialGradient id="radialGradient3972" gradientUnits="userSpaceOnUse" cy="649.23" cx="663.91" gradientTransform="matrix(.084286 0 0 .084286 12.003 12.008)" r="427.12">
   <stop id="stop14" style="stop-color:#fff" offset="0"/>
   <stop id="stop16" style="stop-color:#e6e6e6" offset=".2814"/>
   <stop id="stop18" style="stop-color:#c0c0c0" offset=".75150"/>
   <stop id="stop20" style="stop-color:#b2b2b2" offset="1"/>
  </radialGradient>
  <linearGradient id="linearGradient3991" y2="48" gradientUnits="userSpaceOnUse" x2="82.812" gradientTransform="matrix(0,1,-1,0,96,0)" y1="48" x1="13.188">
   <stop id="stop3987" offset="0"/>
   <stop id="stop3989" style="stop-opacity:0" offset="1"/>
  </linearGradient>
  <linearGradient id="ButtonShadow-0" y2="7.0165" gradientUnits="userSpaceOnUse" x2="45.448" gradientTransform="matrix(1.0059 0 0 .99417 100 0)" y1="92.54" x1="45.448">
   <stop id="stop3750-8" offset="0"/>
   <stop id="stop3752-5" style="stop-opacity:.58824" offset="1"/>
  </linearGradient>
  <linearGradient id="linearGradient3780" y2="90.239" xlink:href="#ButtonShadow-0" gradientUnits="userSpaceOnUse" x2="32.251" gradientTransform="matrix(1.0238 0 0 1.0119 -1.1429 -98.071)" y1="6.1317" x1="32.251"/>
  <linearGradient id="linearGradient3721" y2="90.239" xlink:href="#ButtonShadow-0" gradientUnits="userSpaceOnUse" x2="32.251" gradientTransform="translate(0,-97)" y1="6.1317" x1="32.251"/>
 </defs>
 <metadata id="metadata2413">
  <rdf:RDF>
   <cc:Work rdf:about="">
    <dc:format>image/svg+xml</dc:format>
    <dc:type rdf:resource="http://purl.org/dc/dcmitype/StillImage"/>
   </cc:Work>
  </rdf:RDF>
 </metadata>
 <g id="layer2" style="display:none">
  <rect id="rect3745" style="opacity:.9;filter:url(#filter3174);fill:url(#ButtonShadow)" rx="6" ry="6" height="85" width="86" y="7" x="5"/>
 </g>
 <g id="layer4">
  <path id="path3786" style="opacity:0.08;fill:url(#linearGradient3780)" d="m12-95.031c-5.5111 0-10.031 4.5202-10.031 10.031v71c0 5.5111 4.5202 10.031 10.031 10.031h72c5.5111 0 10.031-4.5202 10.031-10.031v-71c0-5.5111-4.5202-10.031-10.031-10.031h-72z" transform="scale(1,-1)"/>
  <path id="path3778" style="opacity:.1;fill:url(#linearGradient3780)" d="m12-94.031c-4.9716 0-9.0312 4.0596-9.0312 9.0312v71c0 4.9716 4.0596 9.0312 9.0312 9.0312h72c4.9716 0 9.0312-4.0596 9.0312-9.0312v-71c0-4.9716-4.0596-9.0312-9.0312-9.0312h-72z" transform="scale(1,-1)"/>
  <path id="path3770" style="opacity:.2;fill:url(#linearGradient3780)" d="m12-93c-4.4091 0-8 3.5909-8 8v71c0 4.4091 3.5909 8 8 8h72c4.4091 0 8-3.5909 8-8v-71c0-4.4091-3.5909-8-8-8h-72z" transform="scale(1,-1)"/>
  <rect id="rect3723" style="opacity:.3;fill:url(#linearGradient3780)" transform="scale(1,-1)" rx="7" ry="7" height="85" width="86" y="-92" x="5"/>
  <rect id="rect3716" style="opacity:.45;fill:url(#linearGradient3721)" transform="scale(1,-1)" rx="6" ry="6" height="84" width="84" y="-91" x="6"/>
 </g>
 <g id="layer1">
  <rect id="rect2419" style="fill:url(#linearGradient3617)" transform="scale(1,-1)" rx="6" ry="6" height="84" width="84" y="-90" x="6"/>
  <path id="rect3728" style="opacity:.5;fill:url(#linearGradient3188)" d="m12 6c-3.324 0-6 2.676-6 6v2 68 2c0 0.33472 0.04135 0.6507 0.09375 0.96875 0.0487 0.2956 0.09704 0.59692 0.1875 0.875 0.00988 0.03038 0.020892 0.0636 0.03125 0.09375 0.098865 0.28777 0.23488 0.54745 0.375 0.8125 0.14459 0.27351 0.31562 0.53562 0.5 0.78125 0.18438 0.24564 0.37378 0.47347 0.59375 0.6875 0.43995 0.42806 0.94291 0.81453 1.5 1.0938 0.27854 0.13961 0.57347 0.24695 0.875 0.34375-0.2562-0.10022-0.48671-0.23627-0.71875-0.375-0.00741-0.0044-0.023866 0.0045-0.03125 0-0.031933-0.0193-0.062293-0.04251-0.09375-0.0625-0.1204-0.0767-0.23102-0.16351-0.34375-0.25-0.10617-0.0808-0.21328-0.16111-0.3125-0.25-0.1778-0.162-0.3473-0.346-0.4999-0.531-0.1075-0.131-0.2183-0.266-0.3124-0.407-0.0251-0.038-0.0385-0.086-0.0626-0.125-0.0647-0.103-0.1302-0.204-0.1874-0.312-0.1011-0.195-0.2057-0.416-0.2813-0.625-0.008-0.022-0.0236-0.041-0.0313-0.063-0.0318-0.092-0.0358-0.187-0.0624-0.281-0.0304-0.107-0.0704-0.203-0.0938-0.313-0.0729-0.341-0.125-0.698-0.125-1.062v-2-68-2c0-2.782 2.2182-5 5-5h2 68 2c2.7818 0 5 2.2182 5 5v2 68 2c0 0.3643-0.05212 0.72099-0.125 1.0625-0.04415 0.20689-0.08838 0.39766-0.15625 0.59375-0.0077 0.02195-0.0233 0.04069-0.03125 0.0625-0.06274 0.17374-0.13838 0.36745-0.21875 0.53125-0.04158 0.0828-0.07904 0.16995-0.125 0.25-0.0546 0.09721-0.12677 0.18835-0.1875 0.28125-0.09411 0.14096-0.20492 0.276-0.3125 0.40625-0.14317 0.17445-0.30314 0.347-0.46875 0.5-0.01117 0.0102-0.01998 0.02115-0.03125 0.03125-0.13839 0.12556-0.28509 0.23444-0.4375 0.34375-0.10257 0.07315-0.20432 0.15336-0.3125 0.21875-0.0074 0.0045-0.02384-0.0044-0.03125 0-0.23204 0.13873-0.46255 0.27478-0.71875 0.375 0.30153-0.0968 0.59646-0.20414 0.875-0.34375 0.55709-0.27922 1.0601-0.66569 1.5-1.0938 0.21997-0.21403 0.40937-0.44186 0.59375-0.6875s0.35541-0.50774 0.5-0.78125c0.14012-0.26505 0.27614-0.52473 0.375-0.8125 0.01041-0.03078 0.02133-0.06274 0.03125-0.09375 0.09046-0.27808 0.1388-0.5794 0.1875-0.875 0.053-0.318 0.094-0.634 0.094-0.969v-2-68-2c0-3.324-2.676-6-6-6h-72z"/>
  <path id="path3615" style="opacity:.25;fill:url(#radialGradient3619)" d="m12 90c-3.324 0-6-2.676-6-6v-2-68-2c0-0.33472 0.04135-0.6507 0.09375-0.96875 0.0487-0.2956 0.09704-0.59692 0.1875-0.875 0.0099-0.03 0.0209-0.063 0.0313-0.094 0.0989-0.2873 0.2349-0.547 0.375-0.812 0.1446-0.2735 0.3156-0.5356 0.5-0.7812 0.1844-0.2457 0.3738-0.4735 0.5937-0.6876 0.44-0.428 0.943-0.8145 1.5-1.0937 0.2786-0.1396 0.5735-0.2469 0.8748-0.3437-0.256 0.1002-0.4865 0.2362-0.7185 0.375-0.00741 0.0044-0.023866-0.0045-0.03125 0-0.031933 0.0193-0.062293 0.04251-0.09375 0.0625-0.1204 0.0767-0.23102 0.16351-0.34375 0.25-0.10617 0.0808-0.21328 0.16111-0.3125 0.25-0.1779 0.1614-0.3474 0.3453-0.5 0.5312-0.1075 0.1303-0.2183 0.2653-0.3124 0.4063-0.0251 0.0383-0.0385 0.0858-0.0626 0.125-0.0647 0.103-0.1302 0.2045-0.1874 0.3124-0.1011 0.1948-0.2057 0.4158-0.2813 0.625-0.008 0.0219-0.0236 0.0406-0.0313 0.0626-0.0318 0.0919-0.0358 0.1868-0.0624 0.2812-0.0304 0.1066-0.0704 0.203-0.0938 0.3125-0.0729 0.3415-0.125 0.6985-0.125 1.0625v2 68 2c0 2.7818 2.2182 5 5 5h2 68 2c2.7818 0 5-2.2182 5-5v-2-68-2c0-0.364-0.052-0.721-0.125-1.0625-0.044-0.2069-0.088-0.3977-0.156-0.5937-0.008-0.022-0.024-0.0407-0.031-0.0626-0.063-0.1737-0.139-0.3674-0.219-0.5312-0.042-0.0828-0.079-0.17-0.125-0.25-0.055-0.0972-0.127-0.1884-0.188-0.2812-0.094-0.141-0.205-0.276-0.312-0.4063-0.143-0.1745-0.303-0.347-0.469-0.5-0.011-0.0102-0.02-0.0211-0.031-0.0313-0.139-0.1255-0.285-0.2344-0.438-0.3437-0.102-0.0731-0.204-0.1534-0.312-0.2187-0.0074-0.0045-0.02384 0.0044-0.03125 0-0.23204-0.13873-0.46255-0.27478-0.71875-0.375 0.30153 0.0968 0.59646 0.20414 0.875 0.34375 0.55709 0.27922 1.0601 0.66569 1.5 1.0938 0.21997 0.21403 0.40937 0.44186 0.59375 0.6875s0.35541 0.50774 0.5 0.78125c0.14012 0.26505 0.27614 0.52473 0.375 0.8125 0.01041 0.03078 0.02133 0.06274 0.03125 0.09375 0.09046 0.27808 0.1388 0.5794 0.1875 0.875 0.053 0.318 0.094 0.634 0.094 0.969v2 68 2c0 3.324-2.676 6-6 6h-72z"/>
 </g>
 <g id="layer5">
  <rect id="rect3171" style="opacity:.1;filter:url(#filter3794);stroke:#fff;stroke-linecap:round;stroke-width:.5;fill:url(#linearGradient3613)" clip-path="url(#clipPath3613)" rx="12" ry="12" height="66" width="66" y="15" x="15"/>
 </g>
 <g id="layer3">
  <path id="circle22" style="fill:url(#radialGradient3972)" d="m82.817 48.008c0 19.217-15.597 34.814-34.814 34.814s-34.814-15.597-34.814-34.814 15.597-34.814 34.814-34.814 34.814 15.597 34.814 34.814z"/>
  <path id="path4002" style="opacity:.4;fill:#323232" d="m66.719 33.375c-0.29378 0.19865-0.61017 0.39952-0.96875 0.6875-0.47372 0.38045-0.96692 0.80772-1.4375 1.1875s-0.80788 0.70388-1.5312 1.0312c0.16662-0.07537-0.73424 0.42352-1.6562 1-0.92201 0.57648-2.0756 1.3064-3.2188 2.0625-1.144 0.756-2.281 1.531-3.157 2.156-0.43778 0.31232-0.83118 0.60626-1.0938 0.8125-0.26257 0.20624-0.46211 0.43692-0.28125 0.21875-1.2295 1.4838-3.1292 2.1506-4.8438 2.0312-0.42776-0.02978-1.6001-0.05751-2.6875 0s-2.2965 0.36996-2.125 0.28125c0.17083-0.08833-0.52485 0.40445-1.2188 0.96875-0.6939 0.5643-1.5675 1.268-2.4375 2-0.87 0.73202-1.7491 1.4764-2.5312 2.0938-0.78219 0.61732-1.2818 1.0731-2.1562 1.4688-1.7881 0.80883-3.6675 1.1437-4.8438 1.25 0.87551-0.07932 0.4364-0.12968 0.125 0.09375s-0.77222 0.58336-1.2188 0.96875c-0.89306 0.77077-1.6032 1.5064-2.4375 2.0938-0.66395 0.4671-1.0531 0.59898-1.75 0.90625-0.69692 0.30728-1.5133 0.65622-2.3438 1-0.6075 0.25149-1.1462 0.49438-1.6875 0.71875 0.36731 0.54724 0.72347 1.083 1.2188 1.7188 0.72757 0.93389 1.526 1.868 2.1562 2.5312 0.31514 0.33163 0.5877 0.5821 0.75 0.71875 0.1623 0.13664 0.48248 0.05442-0.5-0.09375 0.3153 0.04759 0.71709-0.03548 1.4375 0.625 0.3602 0.33024 0.7425 1.0534 0.71875 1.75-0.02375 0.69665-0.31938 1.1513-0.53125 1.4062-0.42375 0.50998-0.6963 0.59791-0.9375 0.71875s-0.45457 0.20365-0.6875 0.28125c-0.0084 0.0028-0.02277-0.0028-0.03125 0 0.34274 0.56279 0.55474 1.0174 1.0938 1.7188 1.9037 2.4772 5.0678 5.6144 10.062 8.0938 8.4653 4.2019 14.82 1.725 18.625 0.5625 1.0857-0.33168 1.493-0.55044 1.5938-0.59375 0.0943-1.2937 0.23871-2.3238 0.40625-3.6875 0.03609-0.29375 0.30317-3.9826 0.78125-7.6562 0.23904-1.8368 0.52486-3.7512 0.9375-5.4688s0.85582-3.2119 1.7812-4.5c1.4765-2.0557 3.8152-3.8197 6.1562-5.3125 1.0245-0.65327 1.9773-1.1762 2.9062-1.6562-0.57871 0.04516-1.078 0.10837-1.8125 0.09375-0.63346-0.01261-1.2839-0.05726-1.9375-0.1875-0.65358-0.13024-1.4865-0.09825-2.3125-1.3438-0.48143-0.72621-0.39574-1.2517-0.375-1.5938 0.02074-0.34202 0.05956-0.57262 0.125-0.8125 0.13088-0.47975 0.31589-0.94119 0.53125-1.4375 0.433-0.992 1.007-2.13 1.627-3.281 1.2395-2.3011 2.5346-4.4516 2.9688-5.125 0.145-0.22502 0.18704-0.38594 0.1875-0.46875s0.01119-0.18514-0.28125-0.53125c-0.49948-0.59093-0.83031-1.0718-1.1562-1.5z"/>
  <path id="ellipse40" style="opacity:0.86;fill:#eee" d="m699.57 390.89c0 162.15-129.16 293.75-288.3 293.75s-288.3-131.6-288.3-293.75 129.16-293.75 288.3-293.75 288.3 131.6 288.3 293.75z" mask="url(#XMLID_23_)" transform="matrix(.094874 0 0 .094874 8.4732 8.6743)"/>
  <path id="path3993" style="opacity:.15" d="m48 13.188c-19.217 0-34.812 15.595-34.812 34.812s15.595 34.812 34.812 34.812 34.812-15.595 34.812-34.812-15.595-34.812-34.812-34.812zm0 3.5312c17.266 0 31.281 14.015 31.281 31.281s-14.015 31.281-31.281 31.281-31.281-14.015-31.281-31.281 14.015-31.281 31.281-31.281z"/>
  <path id="path3980" style="opacity:.4;fill:url(#linearGradient3991)" d="m82.812 48c0-19.217-15.595-34.812-34.812-34.812s-34.812 15.595-34.812 34.812 15.595 34.812 34.812 34.812 34.812-15.595 34.812-34.812zm-2.2812 0c0 17.963-14.568 32.531-32.531 32.531s-32.562-14.568-32.562-32.531 14.599-32.531 32.562-32.531 32.531 14.568 32.531 32.531z"/>
  <path id="path43" style="opacity:0.22;fill:#323232" d="m67.184 30.781c-1.4487 0-4.2619 3.0214-5.3159 3.4984-1.0545 0.47703-9.4012 5.8831-10.192 6.8371-0.79049 0.95396-1.8448 1.3516-2.9869 1.2721-1.142-0.0795-4.7527-0.11214-5.9826 0.5239-1.2301 0.63604-6.8446 5.8363-8.2505 6.4724-1.4057 0.63585-3.2397 0.96184-4.1182 1.0412-0.87854 0.0796-3.7891 3.0134-4.5799 3.5701-0.79068 0.55625-6.5716 2.7852-7.45 3.2621-0.87864 0.47712 5.1658 8.0271 6.2201 8.1861 1.0542 0.1591-1.0356 0.93859-3.0641 0.93859-0.22333 0 2.8989 8.1875 13.545 13.472 9.2033 4.5682 16.618 1.7941 20.245 0.68613 2.5643-0.78337 3.0292-1.1327 3.1174-2.4048 0.08795-1.272 0.24677-2.2772 0.42257-3.7082 0.1758-1.4308 0.7904-13.436 3.0751-16.616 2.284-3.1801 8.8132-6.9977 11.097-7.395 2.2844-0.39752 1.8452-1.1925 1.8452-1.908 0-0.71554-0.35151-2.3056-0.96649-2.5442-0.61507-0.23842-3.0148 1.1938-3.8055 1.3528-0.79078 0.15901-4.5686 0.39752-5.0958-0.39743-0.52712-0.79514 4.262-8.9045 4.877-9.8585 0.61479-0.95406 0.87844-2.2261-0.26347-3.5776-1.1426-1.3518-1.9334-2.7033-2.3725-2.7033z"/>
  <path id="path58" style="fill:url(#radialGradient3959)" d="m64.101 26.575c-1.4054 0-4.1339 3.2386-5.1565 3.7499-1.0227 0.51137-9.1188 6.3062-9.8857 7.329-0.76696 1.0226-1.7897 1.4487-2.8975 1.3635-1.1078-0.0851-4.6099-0.12021-5.803 0.56156-1.1932 0.68186-6.6391 6.2561-8.0026 6.938-1.3634 0.68158-3.1423 1.0308-3.9946 1.1161-0.85208 0.0851-3.6753 3.2299-4.4422 3.8266-0.76696 0.59667-6.8275 3.2192-7.6797 3.7303-0.85225 0.51137 6.2172 7.6728 7.2399 7.8431 1.0227 0.17068-0.96967 3.0641-2.672 4.0509-2.9868 1.7313 1.2527 6.8089 11.579 12.473 8.9272 4.8966 19.283 3.8652 22.8 2.6778 2.4874-0.84002 0.36283-2.8195 0.44821-4.1829 0.085-1.3636 0.15664-3.1566 0.32713-4.6904 0.17058-1.5339 0.76687-14.402 2.9828-17.811 2.2156-3.4086 8.5485-7.5007 10.764-7.9268 2.2159-0.42608 1.7896-1.2783 1.7896-2.0452 0-0.76687-0.34079-2.4714-0.93745-2.7271-0.59648-0.25559-2.9241 1.2797-3.6911 1.4501-0.76696 0.1704-4.4315 0.42618-4.943-0.42599-0.51128-0.85235 4.1341-9.5448 4.7306-10.567 0.59666-1.0227 0.85216-2.3864-0.25578-3.8349-1.1075-1.449-1.8745-2.8978-2.3006-2.8978z"/>
  <path id="path60" style="fill:#fff" d="m47.102 42.639s-3.3762-0.51953-5.3243 1.4286-3.6367 6.2336-3.5065 7.5324c0.1297 1.2987 4.0259-4.4155 5.714-4.805 1.6885-0.38974 3.5066-3.2471 3.1167-4.156z"/>
  <path id="path116" style="opacity:0.18;fill:url(#linearGradient3955)" d="m55.627 60.565s-3.0212 10.285-3.0976 10.444c-0.43177 0.89732-1.2282 3.4975-0.95396 4.3373 0.32286 0.98926 1.533 2.4275 2.0978 3.1467 0.56479 0.71943 0.80681 1.079 0.64543 1.3489-0.16129 0.26973-2.2591 0.26973-2.2591 0.26973s-1.6135-2.4276-1.9365-3.3268c-0.32257-0.89893-0.48405-2.787-0.16119-3.4162 0.323-0.63 5.665-12.804 5.665-12.804z"/>
  <path id="polygon123" style="opacity:.2;fill:url(#linearGradient3952)" d="m34.333 62.481-5.5193 4.778 6.9198-4.119-1.4004-0.659z"/>
  <path id="polygon130" style="opacity:.2;fill:url(#linearGradient3949)" d="m39.77 60.834-9.392 12.192 10.792-11.368-1.4-0.824z"/>
  <path id="polygon137" style="opacity:.20132;fill:url(#linearGradient3946)" d="m40.511 65.035-7.167 11.368 8.8145-10.627-1.6475-0.74135z"/>
  <path id="polygon144" style="opacity:.2;fill:url(#linearGradient3943)" d="m44.712 64.541-6.013 14.087 7.99-13.675-1.977-0.412z"/>
  <path id="polygon151" style="opacity:.2;fill:url(#linearGradient3940)" d="m47.101 68.248-0.49439 12.851 2.1418-12.686-1.6474-0.1648z"/>
  <path id="path2270" style="opacity:0.58;fill:url(#linearGradient3937)" d="m47.48 73.483c-5.868-2.611-11.16-6.193-15.732-10.65-0.5133-0.5003-0.62797-0.63381-0.62797-0.73106 0-0.1021 0.1464-0.24752 1.0318-1.0249 1.803-1.5831 2.1997-2.0056 2.507-2.6704 0.31374-0.67871 0.96205-1.4788 2.2266-2.7478 2.7917-2.8016 7.8595-6.9885 10.25-8.4682 0.41545-0.25717 0.65421-0.44305 0.98284-0.76518 1.0427-1.0221 2.6576-3.0873 6.0223-7.7014 3.5816-4.9116 4.7873-6.4991 5.9794-7.873 0.72033-0.8302 1.25-1.323 1.4555-1.3541 0.08729-0.01322 0.23227-0.03663 0.32216-0.05205 0.08989-0.0154 0.20478-0.0083 0.25529 0.01579 0.05052 0.02409 0.12442 0.05415 0.16424 0.06681 0.07632 0.02425 1.5299 1.669 2.0653 2.3369 0.64128 0.8 0.69904 1.0228 0.37814 1.4586-0.11976 0.16267-0.23512 0.3966-0.3239 0.65686-0.1525 0.44705-0.93818 2.0352-2.1471 4.34-0.95046 1.8121-2.2369 4.3737-2.639 5.2548-0.84873 1.8599-1.2627 3.1411-1.1544 3.5727 0.03547 0.1413 0.24984 0.24239 0.82565 0.38933 1.3469 0.34372 2.5922 0.29168 3.7525-0.15683 0.17552-0.06784 0.58718-0.27806 0.9148-0.46717 1.0002-0.5773 1.7542-0.90003 2.6956-1.1538 0.44974-0.12125 0.55665-0.13399 1.1559-0.13774 0.62867-0.0039 0.67041 0.0011 0.87192 0.1046 0.18292 0.09397 0.21644 0.1315 0.24707 0.27657 0.06901 0.32687 0.08111 0.53704 0.03367 0.58448-0.02593 0.02593-0.04715 0.08962-0.04715 0.14154 0 0.21296-0.51214 0.38503-1.9399 0.65179-1.4977 0.27982-1.57 0.30997-2.6123 1.0892-2.3331 1.7442-5.9631 4.9039-7.2509 6.3114-0.5842 0.63851-1.4798 1.8742-2.6868 3.7074-2.7083 4.113-4.5845 7.665-5.0857 9.6281-0.09959 0.39007-0.37977 2.152-0.63411 3.9876-0.23475 1.6943-0.24522 1.7453-0.35762 1.7414-0.0496-0.0016-0.45399-0.16492-0.89863-0.36274z"/>
  <path id="path2476" style="fill:url(#linearGradient3934)" d="m31.61 50.587c-0.02607-0.09332-0.02084-0.91323 0.0087-1.297 0.02084-0.27456 0.03818-0.36529 0.11142-0.58101 0.22628-0.66682 0.55712-1.038 1.0357-1.162 0.17851-0.04626 0.27537-0.09368 0.5335-0.26116 0.53022-0.34402 1.207-0.91518 2.29-1.9327 0.29388-0.27611 1.4861-1.4488 2.6494-2.6059s2.1674-2.1417 2.2313-2.188c0.06393-0.04628 0.15804-0.09521 0.20917-0.10874 0.37352-0.09885 1.2768-0.14676 3.5674-0.18924 2.1523-0.03992 3.0689-0.08138 3.3515-0.15162 0.29277-0.07275 0.96082-0.46837 2.3075-1.3665 0.97372-0.64939 3.0461-2.0823 4.2469-2.9365 0.32225-0.22923 0.45335-0.30979 0.50411-0.30979 0.03772 0 0.07507-0.01047 0.08296-0.02325 0.0079-0.01279 0.03036-0.02324 0.04992-0.02324 0.02924 0 0.03333 0.02373 0.02304 0.13363-0.0264 0.28195-0.04306 0.3399-0.1317 0.45812-0.24151 0.32211-0.87764 0.84199-1.6276 1.3301-0.19253 0.12532-0.56643 0.39556-0.83089 0.60053-2.6671 2.0672-4.479 3.2907-5.2624 3.5537-0.15533 0.05215-0.21544 0.05935-0.49508 0.05935-0.53936 0-1.1588 0.11691-2.2159 0.41817-1.558 0.44402-2.9911 1.0264-3.7441 1.5214-0.65388 0.42988-1.1793 1.255-1.7071 2.681-0.20769 0.56105-0.45261 1.3904-0.74766 2.5316-0.07353 0.28436-0.14075 0.52848-0.14942 0.5425-0.0087 0.01402-1.4055 0.32288-3.104 0.68637-1.6986 0.36349-3.1062 0.6664-3.1282 0.67314-0.02891 0.0088-0.04494-0.0058-0.05814-0.05299z"/>
  <path id="path5482" style="opacity:.7;fill:url(#linearGradient3931)" d="m23.611 60.932c-0.03229-0.0072-0.096-0.01344-0.14153-0.01391-0.19968-0.0021-0.76646-0.28834-1.3763-0.69519-0.66145-0.44132-1.1931-0.8632-1.7958-1.425-0.12133-0.1131-0.33273-0.30778-0.46978-0.43261-0.36803-0.33523-0.93584-0.90569-1.1027-1.1079-0.30512-0.36963-0.46845-0.64168-0.4909-0.81768-0.03415-0.26758-0.03295-0.33066 0.01091-0.56083 0.0098-0.05218 0.13888-0.16443 0.31443-0.27356 0.32855-0.20423 1.0275-0.67828 3.4902-2.3671 3.747-2.5696 5.3256-3.6143 6.158-4.0753 0.2109-0.11679 0.26899-0.12982 0.58044-0.13015 0.29846-0.000337 0.54961 0.02648 0.72807 0.07768 0.35681 0.10238 0.9084 0.31797 1.3947 0.54514 0.24277 0.1134 0.26019 0.12419 0.26019 0.16108 0 0.03561-0.0087 0.04189-0.08433 0.06323-0.1746 0.04905-0.64064 0.20249-1.0229 0.33677-2.3223 0.81582-4.646 1.941-6.7237 3.2558-0.49245 0.31161-0.54962 0.35349-0.73355 0.53742-0.52245 0.52244-0.99279 1.3388-1.1239 1.9507-0.01833 0.08544-0.02673 0.18692-0.02684 0.32262-0.000164 0.21639 0.02575 0.3296 0.10713 0.46839 0.32154 0.54865 1.9538 1.0667 4.065 1.2902 0.61594 0.0652 0.89963 0.08028 1.525 0.08105l0.60858 0.000731 0.16131-0.05572c0.43131-0.14898 1.0215-0.48614 2.3024-1.3153 1.1099-0.71848 1.4525-0.92778 1.8477-1.1289 0.3701-0.18833 0.55709-0.24429 0.71645-0.2144 0.06066 0.01138 0.07178 0.04547 0.07255 0.22133 0.00096 0.25431-0.02684 0.35112-0.15564 0.54259-0.37224 0.55319-1.2883 1.305-2.5769 2.1149-1.083 0.68062-2.3164 1.3117-2.9733 1.5213-0.06218 0.01984-0.22904 0.06261-0.37075 0.09502-0.75731 0.17321-1.5137 0.44292-2.514 0.8964-0.14161 0.0642-0.26661 0.11106-0.31528 0.11819-0.14352 0.02102-0.28456 0.02634-0.34462 0.01297z"/>
  <path id="path6524" style="fill:url(#linearGradient3928)" d="m26.216 56.673c-0.01429-0.0019-0.19898-0.007-0.41052-0.01143-0.38086-0.008-0.61932-0.02436-0.95931-0.06598-0.78856-0.09653-1.3142-0.25194-1.4985-0.44304-0.03906-0.04053-0.05204-0.08864-0.05138-0.19154 0.000567-0.13401 0.01309-0.18628 0.07047-0.29867 0.2429-0.47646 0.9417-1.2309 1.7647-1.9053 0.18057-0.14796 0.48002-0.37271 0.63546-0.47693l0.11212-0.07519 2.5452-0.30788 2.5452-0.30788 0.16852 0.0096c0.15669 0.0089 0.29078 0.01886 0.63218 0.04673 0.15746 0.01286 0.16968 0.01857 0.15479 0.07221-0.0055 0.01791-0.0087 0.04886-0.0087 0.06877-0.000065 0.05105-0.08018 0.23866-0.19178 0.44877-0.60176 1.1335-1.8171 2.5613-2.6257 3.0846-0.23176 0.14998-0.39442 0.22093-0.60337 0.26319-0.21316 0.04311-0.48539 0.07046-0.78806 0.07918-0.29743 0.0086-1.4444 0.01683-1.4908 0.0108z"/>
  <path id="path3966" style="block-progression:tb;text-indent:0;color:#000000;text-transform:none;fill:#1c5eaa" d="m48 12c-19.859 0-36 16.141-36 36s16.141 36 36 36 36-16.141 36-36-16.141-36-36-36zm0 2.373c18.576 0 33.627 15.051 33.627 33.627s-15.051 33.627-33.627 33.627-33.627-15.051-33.627-33.627 15.051-33.627 33.627-33.627z"/>
  <path id="path3819" style="fill:#fff" d="m85 48c0 20.435-16.565 37-37 37s-37-16.565-37-37 16.565-37 37-37 37 16.565 37 37zm-1 0c0-19.882-16.118-36-36-36s-36 16.118-36 36 16.118 36 36 36 36-16.118 36-36z"/>
  <path id="path3832" style="block-progression:tb;text-indent:0;color:#000000;text-transform:none;fill:#00438a" d="m48 12c-19.859 0-36 16.141-36 36 0 0.16846 0.02894 0.33208 0.03125 0.5 0.271-19.627 16.278-35.5 35.969-35.5s35.698 15.873 35.969 35.5c0.002-0.168 0.031-0.332 0.031-0.5 0-19.859-16.141-36-36-36zm-33.625 36.5c-0.0025 0.16822 0 0.33119 0 0.5 0 18.576 15.049 33.625 33.625 33.625s33.625-15.049 33.625-33.625c0-0.16881 0.0025-0.33178 0-0.5-0.27 18.342-15.218 33.125-33.625 33.125s-33.355-14.783-33.625-33.125z"/>
 </g>
</svg>
