<?xml version="1.0" encoding="UTF-8" standalone="no"?>
<!-- Created with Inkscape (http://www.inkscape.org/) -->
<svg id="svg2408" xmlns:rdf="http://www.w3.org/1999/02/22-rdf-syntax-ns#" xmlns="http://www.w3.org/2000/svg" height="96" width="96" version="1.0" xmlns:cc="http://creativecommons.org/ns#" xmlns:xlink="http://www.w3.org/1999/xlink" xmlns:dc="http://purl.org/dc/elements/1.1/">
 <defs id="defs2410">
  <linearGradient id="linearGradient4384">
   <stop id="stop4386" style="stop-color:#fff" offset="0"/>
   <stop id="stop4388" style="stop-color:#fff;stop-opacity:0" offset="1"/>
  </linearGradient>
  <linearGradient id="ButtonShadow" y2="7.0165" gradientUnits="userSpaceOnUse" x2="45.448" gradientTransform="scale(1.0059 .99417)" y1="92.54" x1="45.448">
   <stop id="stop3750" offset="0"/>
   <stop id="stop3752" style="stop-opacity:.58824" offset="1"/>
  </linearGradient>
  <filter id="filter3174" color-interpolation-filters="sRGB">
   <feGaussianBlur id="feGaussianBlur3176" stdDeviation="1.71"/>
  </filter>
  <filter id="filter3794" height="1.384" width="1.384" color-interpolation-filters="sRGB" y="-.192" x="-.192">
   <feGaussianBlur id="feGaussianBlur3796" stdDeviation="5.28"/>
  </filter>
  <linearGradient id="linearGradient3613" y2="138.66" gradientUnits="userSpaceOnUse" x2="48" y1="20.221" x1="48">
   <stop id="stop3739" style="stop-color:#fff" offset="0"/>
   <stop id="stop3741" style="stop-color:#fff;stop-opacity:0" offset="1"/>
  </linearGradient>
  <linearGradient id="ButtonShadow-0" y2="7.0165" gradientUnits="userSpaceOnUse" x2="45.448" gradientTransform="matrix(1.0059 0 0 .99417 100 0)" y1="92.54" x1="45.448">
   <stop id="stop3750-8" offset="0"/>
   <stop id="stop3752-5" style="stop-opacity:.58824" offset="1"/>
  </linearGradient>
  <linearGradient id="linearGradient3780" y2="90.239" xlink:href="#ButtonShadow-0" gradientUnits="userSpaceOnUse" x2="32.251" gradientTransform="matrix(1.0238 0 0 1.0119 -1.1429 -98.071)" y1="6.1317" x1="32.251"/>
  <linearGradient id="linearGradient3721" y2="90.239" xlink:href="#ButtonShadow-0" gradientUnits="userSpaceOnUse" x2="32.251" gradientTransform="translate(0,-97)" y1="6.1317" x1="32.251"/>
  <clipPath id="clipPath4355">
   <rect id="rect4357" style="fill:#fff" rx="6" ry="6" height="80" width="84" y="6" x="6"/>
  </clipPath>
  <radialGradient id="radialGradient4375" gradientUnits="userSpaceOnUse" cy="87.792" cx="48" gradientTransform="matrix(1 -6.7115e-8 8.4282e-8 1.2558 110 -24.506)" r="42">
   <stop id="stop4369" style="stop-color:#fff;stop-opacity:.71756" offset="0"/>
   <stop id="stop4371" style="stop-color:#fff" offset="1"/>
  </radialGradient>
  <linearGradient id="linearGradient4390" y2="-40" xlink:href="#linearGradient4384" gradientUnits="userSpaceOnUse" x2="48" gradientTransform="matrix(1,0,0,-1,0,92)" y1="88" x1="48"/>
  <linearGradient id="linearGradient4429" y2="82.455" xlink:href="#linearGradient4384" spreadMethod="reflect" gradientUnits="userSpaceOnUse" x2="112.12" y1="82" x1="48"/>
  <linearGradient id="linearGradient3228" y2="88" spreadMethod="reflect" gradientUnits="userSpaceOnUse" x2="48" y1="88" x1="90">
   <stop id="stop3894" style="stop-opacity:.58824" offset="0"/>
   <stop id="stop3896" style="stop-opacity:.47059" offset=".11780"/>
   <stop id="stop3898" style="stop-opacity:.39216" offset=".23810"/>
   <stop id="stop3900" style="stop-opacity:.31373" offset="1"/>
  </linearGradient>
  <linearGradient id="linearGradient3127" y2="5.9877" gradientUnits="userSpaceOnUse" x2="48" y1="90" x1="48">
   <stop id="stop3791" style="stop-color:#656565" offset="0"/>
   <stop id="stop3793" style="stop-color:#c1c1c1" offset="1"/>
  </linearGradient>
  <linearGradient id="linearGradient3878-9" y2="12.88" gradientUnits="userSpaceOnUse" x2="50.596" gradientTransform="translate(0,-2)" y1="63.176" x1="50.596">
   <stop id="stop3728-4" style="stop-color:#fff" offset="0"/>
   <stop id="stop3730-8" style="stop-color:#fff;stop-opacity:0" offset="1"/>
  </linearGradient>
  <linearGradient id="linearGradient3836-1" y2="34.947" gradientUnits="userSpaceOnUse" x2="49.714" gradientTransform="matrix(1.0036 0 0 .98469 -.22247 -1.4947)" y1="69.964" x1="49.714">
   <stop id="stop3840-3" style="stop-color:#737373" offset="0"/>
   <stop id="stop3842-0" style="stop-color:#cecece" offset="1"/>
  </linearGradient>
  <linearGradient id="linearGradient3814-4" y2="47.821" gradientUnits="userSpaceOnUse" x2="108.86" gradientTransform="matrix(0 -1.0303 1.0303 0 -1.4545 95.455)" y1="48" x1="15">
   <stop id="stop3810-4" style="stop-color:#fff" offset="0"/>
   <stop id="stop3812-4" style="stop-color:#fff;stop-opacity:0" offset="1"/>
  </linearGradient>
  <radialGradient id="radialGradient3977" gradientUnits="userSpaceOnUse" cy="48" cx="55.758" gradientTransform="matrix(1.0909 -2.3783e-8 2.9729e-8 1.3636 -5.0689 -17.455)" r="32">
   <stop id="stop3981" style="stop-color:#323232" offset="0"/>
   <stop id="stop3983" style="stop-color:#050505" offset="1"/>
  </radialGradient>
 </defs>
 <metadata id="metadata2413">
  <rdf:RDF>
   <cc:Work rdf:about="">
    <dc:format>image/svg+xml</dc:format>
    <dc:type rdf:resource="http://purl.org/dc/dcmitype/StillImage"/>
    <dc:title/>
   </cc:Work>
  </rdf:RDF>
 </metadata>
 <g id="layer2" style="display:none">
  <rect id="rect3745" style="opacity:.9;filter:url(#filter3174);fill:url(#ButtonShadow)" rx="6" ry="6" height="85" width="86" y="7" x="5"/>
 </g>
 <g id="layer3">
  <path id="path3786" style="opacity:0.08;fill:url(#linearGradient3780)" d="m12-95.031c-5.5111 0-10.031 4.5202-10.031 10.031v71c0 5.5111 4.5202 10.031 10.031 10.031h72c5.5111 0 10.031-4.5202 10.031-10.031v-71c0-5.5111-4.5202-10.031-10.031-10.031h-72z" transform="scale(1,-1)"/>
  <path id="path3778" style="opacity:.1;fill:url(#linearGradient3780)" d="m12-94.031c-4.9716 0-9.0312 4.0596-9.0312 9.0312v71c0 4.9716 4.0596 9.0312 9.0312 9.0312h72c4.9716 0 9.0312-4.0596 9.0312-9.0312v-71c0-4.9716-4.0596-9.0312-9.0312-9.0312h-72z" transform="scale(1,-1)"/>
  <path id="path3770" style="opacity:.2;fill:url(#linearGradient3780)" d="m12-93c-4.4091 0-8 3.5909-8 8v71c0 4.4091 3.5909 8 8 8h72c4.4091 0 8-3.5909 8-8v-71c0-4.4091-3.5909-8-8-8h-72z" transform="scale(1,-1)"/>
  <rect id="rect3723" style="opacity:.3;fill:url(#linearGradient3780)" transform="scale(1,-1)" rx="7" ry="7" height="85" width="86" y="-92" x="5"/>
  <rect id="rect3716" style="opacity:.45;fill:url(#linearGradient3721)" transform="scale(1,-1)" rx="6" ry="6" height="84" width="84" y="-91" x="6"/>
 </g>
 <g id="layer1">
  <rect id="rect2419-7" style="fill:url(#linearGradient3127)" rx="6" ry="6" height="84" width="84" y="6" x="6"/>
  <path id="rect4359" style="opacity:.2;fill:url(#radialGradient4375)" d="m120.78 6.125c-2.74 0.5576-4.78 2.9665-4.78 5.875v68c0 3.324 2.676 6 6 6h72c3.324 0 6-2.676 6-6v-68c0-2.9085-2.0422-5.3174-4.7812-5.875 2.2051 0.53621 3.8125 2.4908 3.8125 4.875v68c0 2.8049-2.2264 5.0312-5.0312 5.0312h-72c-2.8049 0-5.0312-2.2264-5.0312-5.0312v-68c0-2.3842 1.6074-4.3388 3.8125-4.875z"/>
  <path id="rect4377" style="opacity:.4;fill:url(#linearGradient4390)" d="m12 86c-3.324 0-6-2.676-6-6v-68c0-3.324 2.676-6 6-6h72c3.324 0 6 2.676 6 6v68c0 3.324-2.676 6-6 6zm0-0.96875h72c2.8049 0 5.0312-2.2264 5.0312-5.0312v-68c0-2.8049-2.226-5.0312-5.031-5.0312h-72c-2.8049 0-5.0312 2.2263-5.0312 5.0312v68c0 2.8049 2.2264 5.0312 5.0312 5.0312z"/>
  <path id="rect4414" style="opacity:.1;fill:url(#linearGradient4429)" d="m6 78v2c0 3.324 2.676 6 6 6h72c3.324 0 6-2.676 6-6v-2c0 3.324-2.676 6-6 6h-72c-3.324 0-6-2.676-6-6z"/>
  <path id="path4412" style="opacity:.15" d="m6 100v1c0 3.324 2.676 6 6 6h72c3.324 0 6-2.676 6-6v-1c0 3.324-2.676 6-6 6h-72c-3.324 0-6-2.676-6-6z"/>
 </g>
 <g id="layer4">
  <path id="path3888" style="fill:url(#linearGradient3228)" d="m6 80v4c0 3.324 2.676 6 6 6h72c3.324 0 6-2.676 6-6v-4c0 3.324-2.676 6-6 6h-72c-3.324 0-6-2.676-6-6z"/>
  <path id="rect4345" style="opacity:.1;color:#000000" d="m6 82v2c0 3.324 2.676 6 6 6h72c3.324 0 6-2.676 6-6v-2c0 3.324-2.676 6-6 6h-72c-3.324 0-6-2.676-6-6z"/>
  <path id="rect4336" style="opacity:.15;color:#000000" d="m6 83v1c0 3.324 2.676 6 6 6h72c3.324 0 6-2.676 6-6v-1c0 3.324-2.676 6-6 6h-72c-3.324 0-6-2.676-6-6z"/>
 </g>
 <g id="layer5">
  <rect id="rect3171" style="opacity:.1;filter:url(#filter3794);stroke:#fff;stroke-linecap:round;stroke-width:.5;fill:url(#linearGradient3613)" clip-path="url(#clipPath4355)" rx="12" ry="12" height="62" width="66" y="15" x="15"/>
 </g>
 <g id="layer6">
  <path id="path3663" style="color:#000000;fill:url(#radialGradient3977)" d="m80 48a32 32 0 1 1 -64 0 32 32 0 1 1 64 0z" transform="matrix(0 -1.0312 1.0312 0 -1.5 95.5)"/>
  <path id="path3801" style="opacity:.3;color:#000000;fill:url(#linearGradient3814-4)" d="m14 46c0 18.778 15.222 34 34 34s34-15.222 34-34-15.222-34-34-34-34 15.222-34 34zm1.0303 0c0-18.209 14.761-32.97 32.97-32.97s32.97 14.761 32.97 32.97-14.761 32.97-32.97 32.97-32.97-14.761-32.97-32.97z"/>
  <path id="path3816" style="opacity:.6;color:#000000" d="m48 14c-17.673 0-32 14.327-32 32s14.327 32 32 32 32-14.327 32-32-14.327-32-32-32zm0 1c17.121 0 31 13.879 31 31s-13.879 31-31 31-31-13.879-31-31 13.879-31 31-31z"/>
  <path id="path3857" style="opacity:.2;color:#000000" d="m48 14c-17.673 0-32 14.327-32 32s14.327 32 32 32 32-14.327 32-32-14.327-32-32-32zm0 2c16.585 0 30 13.415 30 30s-13.415 30-30 30-30-13.415-30-30 13.415-30 30-30zm-0.0625 13.031c-1.4734 0.06395-3.7583 0.06897-6 0.40625-2.2253 0.33481-4.6138 0.94955-6.2188 2.8438-1.2113 1.4296-1.3684 3.3373-1.0312 4.9375 0.34244 1.6251 1.3896 3.4882 3.4688 3.875 0.75916 0.14125 1.5329 0.14946 2.3125 0.125-3.1904 1.082-5.7084 2.7211-7.125 5.0625-1.5261 2.5225-1.7124 5.611-0.8125 8.7812 1.2984 4.5742 5.7264 7.7517 10.562 7.9375a0.9922 0.9922 0 0 0 0.03125 0h0.03125c4.195-0.0092 6.44-1.2854 7.5938-2.0625 0.36926-0.24872 0.56791-0.36961 0.625-0.40625-0.01911 0.003 0.08026-0.05332 0.8125 0.34375 0.87344 0.78911 1.8974 1.3284 3.0312 1.5312 1.3288 0.23768 2.8627 0.11228 4.0938-0.84375 0.74789-0.5808 2.1621-1.191 3.3125-2.4375 0.6119-0.663 1.1567-1.6125 1.1875-2.75 0.02849-1.0519-0.39751-2.0748-1.0312-3.0625-0.0026-0.01406 0.0049-0.01628 0-0.03125 0.0029 0.0187-0.01639 0.02573 0-0.09375 0.03114-0.22698 0.24991-0.88806 0.46875-1.7812 0.43477-1.7745 0.94637-4.5132 0.65625-8.625-0.289-4.102-1.889-7.737-4.687-10.218-2.797-2.479-6.68-3.73-11.281-3.531zm0.59375 20.656c0.83339 0 1.0938 0.42688 1.0938 0.71875 0 0.28301-0.29313 0.75-1.0938 0.75-0.78593 0-1.1562-0.56165-1.1562-0.75 0-0.19749 0.33741-0.71875 1.1562-0.71875z"/>
  <path id="path3848" style="opacity:.6" d="m47.969 32.031c-1.5206 0.066-3.7369 0.0533-5.875 0.375s-4.2717 0.934-5.625 2.5312c-0.95471 1.1268-1.1049 2.6751-0.8125 4.0625 0.29236 1.3874 1.1295 2.8351 2.6875 3.125 1.5009 0.27926 3.2474 0.07132 4.9688-0.125s3.4282-0.40318 4.5938-0.28125c0.69321 0.07252 0.85943 0.32909 0.875 0.375s0.10283 0.22327-0.4375 0.59375c-0.48614 0.33332-1.7313 0.56523-3.0625 0.6875s-2.7101 0.15001-3.875 0.5c-3.3938 1.0197-5.8605 2.6612-7.2188 4.9062-1.3582 2.245-1.5334 5.02-0.6875 8 1.1684 4.1161 5.2035 7.0489 9.625 7.2188a1.0036 1.0036 0 0 0 0.03125 0c4.0096-0.0088 5.9358-1.1371 7.0312-1.875 0.54774-0.36894 0.81584-0.52866 1.0312-0.5625 0.21541-0.03384 0.60231-0.0154 1.4375 0.4375 0.77009 0.75799 1.7286 1.2548 2.75 1.4375 1.1367 0.20332 2.3678 0.07741 3.3125-0.65625 0.90322-0.70143 2.2135-1.2884 3.1875-2.3438 0.48702-0.52769 0.88345-1.252 0.90625-2.0938 0.0228-0.84176-0.2875-1.7005-0.90625-2.625-0.10579-0.15807-0.14966-0.24876-0.09375-0.65625 0.05591-0.4075 0.25778-1.0452 0.46875-1.9062 0.42195-1.7222 0.90739-4.3103 0.625-8.3125-0.275-3.892-1.764-7.244-4.345-9.532-2.58-2.287-6.193-3.472-10.593-3.281zm0.5625 18.656c1.2616 0 2.0938 0.8167 2.0938 1.7188 0 0.90205-0.84428 1.75-2.0938 1.75s-2.1562-0.87569-2.1562-1.75 0.89469-1.7188 2.1562-1.7188z" transform="translate(0,-2)"/>
  <path id="path3821" style="fill:url(#linearGradient3836-1)" d="m48.008 31.019c-3.1161 0.13524-8.6518 0.02585-10.802 2.5638-1.314 1.5508-0.69942 5.1644 1.3142 5.539 2.5085 0.46674 6.7472-0.69589 9.4658-0.41147 1.8956 0.19832 2.4733 1.7269 0.92957 2.7853-1.6345 1.1207-5.3487 0.79813-7.2221 1.361-6.477 1.9461-8.7981 6.0571-7.2122 11.644 1.0341 3.6432 4.6731 6.3457 8.6662 6.4991 7.6814-0.01688 6.2699-3.8914 9.9892-1.8745 1.224 1.4127 3.6901 1.8789 4.9684 0.88624 2.0551-1.596 5.135-2.4626 2.949-5.7289-1.0469-1.5642 1.4147-3.5788 0.86546-11.363-0.52-7.365-5.515-12.264-13.911-11.9zm0.52278 16.68c1.73 0 3.1092 1.2147 3.1092 2.722s-1.3792 2.722-3.1092 2.722-3.1413-1.2147-3.1413-2.722 1.4113-2.722 3.1413-2.722z"/>
  <path id="path3865" style="opacity:.3;fill:url(#linearGradient3878-9)" d="m49.531 31c-0.498-0.018-1.006 0.008-1.531 0.031-3.1161 0.13524-8.6309 0.02458-10.781 2.5625-1.314 1.5508-0.70113 5.1566 1.3125 5.5312 2.5085 0.46674 6.7501-0.69067 9.4688-0.40625 1.8956 0.19832 2.45 1.7228 0.90625 2.7812-1.6345 1.1207-5.3453 0.78087-7.2188 1.3438-6.477 1.9461-8.8047 6.0691-7.2188 11.656 1.0341 3.6432 4.6944 6.3466 8.6875 6.5 7.6814-0.01688 6.2494-3.8919 9.9688-1.875 1.224 1.4127 3.6905 1.8677 4.9688 0.875 2.0551-1.596 5.1548-2.4524 2.9688-5.7188-1.0469-1.5642 1.393-3.591 0.84375-11.375-0.488-6.905-4.907-11.641-12.376-11.906zm-1.5 1c4.0019-0.17368 7.0686 0.90673 9.2188 2.8125 2.1501 1.9058 3.442 4.6768 3.6875 8.1562 0.26707 3.7851-0.19447 6.0891-0.59375 7.7188-0.19964 0.81483-0.37928 1.4729-0.46875 2.125-0.08947 0.65209-0.0381 1.3828 0.375 2 0.47638 0.71178 0.60175 1.2046 0.59375 1.5-0.008 0.29542-0.13158 0.48364-0.40625 0.78125-0.54934 0.59522-1.7892 1.2333-2.9375 2.125-0.34244 0.26594-1.0218 0.4115-1.75 0.28125-0.72817-0.13025-1.4412-0.49928-1.875-1a0.97433 0.97433 0 0 0 -0.28125 -0.21875c-1.0217-0.55406-1.8626-0.81216-2.6562-0.6875-0.79366 0.12466-1.324 0.55615-1.8438 0.90625-1.0355 0.69746-2.263 1.5169-5.9062 1.5312-0.01034-0.000397-0.02091 0.000436-0.03125 0-3.5653-0.15045-6.8488-2.6377-7.75-5.8125-0.74158-2.6126-0.56444-4.6985 0.46875-6.4062 1.0332-1.7078 3.0061-3.1035 6.0938-4.0312 0.71519-0.21488 2.0998-0.30889 3.5-0.4375s2.8613-0.25047 4-1.0312c0.99663-0.68334 1.5322-1.8276 1.1875-2.8438-0.34472-1.0162-1.3675-1.5937-2.5625-1.7188-1.5475-0.1619-3.3248 0.08663-5.0312 0.28125s-3.3289 0.31382-4.3438 0.125c-0.47172-0.08777-0.9345-0.6585-1.125-1.5625s0.007-1.9407 0.375-2.375c0.80513-0.95024 2.4987-1.552 4.4375-1.8438 1.9388-0.2917 4.0306-0.3058 5.625-0.375zm0.5 14.719c-2.1848 0-4.125 1.5656-4.125 3.6875s1.9285 3.7188 4.125 3.7188 4.0625-1.6238 4.0625-3.7188c0-2.0949-1.8777-3.6875-4.0625-3.6875zm0 0.96875c1.73 0 3.0938 1.2114 3.0938 2.7188 0 1.5073-1.3637 2.75-3.0938 2.75-1.73 0-3.1562-1.2427-3.1562-2.75s1.4262-2.7188 3.1562-2.7188z"/>
 </g>
</svg>
