<?xml version="1.0" encoding="UTF-8" standalone="no"?>
<!-- Created with Inkscape (http://www.inkscape.org/) -->
<svg id="svg2408" xmlns:rdf="http://www.w3.org/1999/02/22-rdf-syntax-ns#" xmlns="http://www.w3.org/2000/svg" height="96" width="96" version="1.0" xmlns:cc="http://creativecommons.org/ns#" xmlns:xlink="http://www.w3.org/1999/xlink" xmlns:dc="http://purl.org/dc/elements/1.1/">
 <defs id="defs2410">
  <linearGradient id="linearGradient4077">
   <stop id="stop4079" style="stop-opacity:.11024" offset="0"/>
   <stop id="stop4085" style="stop-opacity:.40157" offset=".17513"/>
   <stop id="stop4081" style="stop-opacity:.52756" offset="1"/>
  </linearGradient>
  <linearGradient id="linearGradient4384">
   <stop id="stop4386" style="stop-color:#fff" offset="0"/>
   <stop id="stop4388" style="stop-color:#fff;stop-opacity:0" offset="1"/>
  </linearGradient>
  <linearGradient id="ButtonShadow" y2="7.0165" gradientUnits="userSpaceOnUse" x2="45.448" gradientTransform="scale(1.0059 .99417)" y1="92.54" x1="45.448">
   <stop id="stop3750" offset="0"/>
   <stop id="stop3752" style="stop-opacity:.58824" offset="1"/>
  </linearGradient>
  <filter id="filter3174" color-interpolation-filters="sRGB">
   <feGaussianBlur id="feGaussianBlur3176" stdDeviation="1.71"/>
  </filter>
  <filter id="filter3794" height="1.384" width="1.384" color-interpolation-filters="sRGB" y="-.192" x="-.192">
   <feGaussianBlur id="feGaussianBlur3796" stdDeviation="5.28"/>
  </filter>
  <linearGradient id="linearGradient3613" y2="138.66" gradientUnits="userSpaceOnUse" x2="48" y1="20.221" x1="48">
   <stop id="stop3739" style="stop-color:#fff" offset="0"/>
   <stop id="stop3741" style="stop-color:#fff;stop-opacity:0" offset="1"/>
  </linearGradient>
  <linearGradient id="ButtonShadow-0" y2="7.0165" gradientUnits="userSpaceOnUse" x2="45.448" gradientTransform="matrix(1.0059 0 0 .99417 100 0)" y1="92.54" x1="45.448">
   <stop id="stop3750-8" offset="0"/>
   <stop id="stop3752-5" style="stop-opacity:.58824" offset="1"/>
  </linearGradient>
  <linearGradient id="linearGradient3780" y2="90.239" xlink:href="#ButtonShadow-0" gradientUnits="userSpaceOnUse" x2="32.251" gradientTransform="matrix(1.0238 0 0 1.0119 -1.1429 -98.071)" y1="6.1317" x1="32.251"/>
  <linearGradient id="linearGradient3721" y2="90.239" xlink:href="#ButtonShadow-0" gradientUnits="userSpaceOnUse" x2="32.251" gradientTransform="translate(0,-97)" y1="6.1317" x1="32.251"/>
  <clipPath id="clipPath4355">
   <rect id="rect4357" style="fill:#fff" rx="6" ry="6" height="80" width="84" y="6" x="6"/>
  </clipPath>
  <radialGradient id="radialGradient4375" gradientUnits="userSpaceOnUse" cy="87.792" cx="48" gradientTransform="matrix(1 -6.7115e-8 8.4282e-8 1.2558 110 -24.506)" r="42">
   <stop id="stop4369" style="stop-color:#fff;stop-opacity:.71756" offset="0"/>
   <stop id="stop4371" style="stop-color:#fff" offset="1"/>
  </radialGradient>
  <linearGradient id="linearGradient4390" y2="-40" xlink:href="#linearGradient4384" gradientUnits="userSpaceOnUse" x2="48" gradientTransform="matrix(1,0,0,-1,0,92)" y1="88" x1="48"/>
  <linearGradient id="linearGradient4429" y2="82.455" xlink:href="#linearGradient4384" spreadMethod="reflect" gradientUnits="userSpaceOnUse" x2="112.12" y1="82" x1="48"/>
  <linearGradient id="linearGradient3228" y2="88" spreadMethod="reflect" gradientUnits="userSpaceOnUse" x2="48" y1="88" x1="90">
   <stop id="stop3894" style="stop-opacity:.58824" offset="0"/>
   <stop id="stop3896" style="stop-opacity:.47059" offset=".11780"/>
   <stop id="stop3898" style="stop-opacity:.39216" offset=".23810"/>
   <stop id="stop3900" style="stop-opacity:.31373" offset="1"/>
  </linearGradient>
  <linearGradient id="linearGradient3124" y2="5.9877" gradientUnits="userSpaceOnUse" x2="48" gradientTransform="matrix(1.0172 0 0 1.0172 -1.1034 -1.1034)" y1="90" x1="48">
   <stop id="stop3189" style="stop-color:#264b79" offset="0"/>
   <stop id="stop3191" style="stop-color:#6087b8" offset="1"/>
  </linearGradient>
  <radialGradient id="radialGradient3700-6" gradientUnits="userSpaceOnUse" cy="64.286" cx="78.564" gradientTransform="matrix(.68045 0 0 .61944 1.3521 4.3681)" r="11.648">
   <stop id="stop4943-9" style="stop-color:#3f78c2" offset="0"/>
   <stop id="stop4945-3" style="stop-color:#2d578e" offset="1"/>
  </radialGradient>
  <linearGradient id="linearGradient6135-5" y2="34.375" gradientUnits="userSpaceOnUse" x2="29.875" y1="18.875" x1="31.188">
   <stop id="stop39157-1" style="stop-color:#fff" offset="0"/>
   <stop id="stop39159-7" style="stop-color:#dadada" offset="1"/>
  </linearGradient>
  <linearGradient id="linearGradient3707-2" y2="94.975" gradientUnits="userSpaceOnUse" x2="79.465" gradientTransform="matrix(.68045 0 0 .68045 1.3521 .25559)" y1="52.146" x1="79.465">
   <stop id="stop4951-9" style="stop-color:#ed6800" offset="0"/>
   <stop id="stop4953-2" style="stop-color:#fd9400" offset="1"/>
  </linearGradient>
  <linearGradient id="linearGradient4083" y2="34.203" xlink:href="#linearGradient4077" gradientUnits="userSpaceOnUse" x2="37.823" y1="34.203" x1="21.656"/>
  <linearGradient id="linearGradient4093" y2="29.094" xlink:href="#linearGradient4077" gradientUnits="userSpaceOnUse" x2="51.193" y1="22.082" x1="42.138"/>
  <linearGradient id="linearGradient4106" y2="59.5" gradientUnits="userSpaceOnUse" x2="76.842" y1="59.5" x1="12.968">
   <stop id="stop4102" style="stop-opacity:.078740" offset="0"/>
   <stop id="stop4114" style="stop-opacity:.29921" offset=".046294"/>
   <stop id="stop4110" style="stop-opacity:.55906" offset=".30670"/>
   <stop id="stop4108" style="stop-opacity:.11811" offset=".30874"/>
   <stop id="stop4112" style="stop-opacity:.32283" offset=".65268"/>
   <stop id="stop4104" style="stop-opacity:.57480" offset="1"/>
  </linearGradient>
  <linearGradient id="linearGradient4136" y2="94.975" gradientUnits="userSpaceOnUse" x2="79.465" gradientTransform="matrix(.68045 0 0 .68045 1.3521 .25559)" y1="52.146" x1="79.465">
   <stop id="stop39173-8" style="stop-color:#fff" offset="0"/>
   <stop id="stop39175-1" style="stop-color:#fff;stop-opacity:0" offset="1"/>
  </linearGradient>
 </defs>
 <metadata id="metadata2413">
  <rdf:RDF>
   <cc:Work rdf:about="">
    <dc:format>image/svg+xml</dc:format>
    <dc:type rdf:resource="http://purl.org/dc/dcmitype/StillImage"/>
    <dc:title/>
   </cc:Work>
  </rdf:RDF>
 </metadata>
 <g id="layer2" style="display:none">
  <rect id="rect3745" style="opacity:.9;filter:url(#filter3174);fill:url(#ButtonShadow)" rx="6" ry="6" height="85" width="86" y="7" x="5"/>
 </g>
 <g id="layer3">
  <path id="path3786" style="opacity:0.08;fill:url(#linearGradient3780)" d="m12-95.031c-5.5111 0-10.031 4.5202-10.031 10.031v71c0 5.5111 4.5202 10.031 10.031 10.031h72c5.5111 0 10.031-4.5202 10.031-10.031v-71c0-5.5111-4.5202-10.031-10.031-10.031h-72z" transform="scale(1,-1)"/>
  <path id="path3778" style="opacity:.1;fill:url(#linearGradient3780)" d="m12-94.031c-4.9716 0-9.0312 4.0596-9.0312 9.0312v71c0 4.9716 4.0596 9.0312 9.0312 9.0312h72c4.9716 0 9.0312-4.0596 9.0312-9.0312v-71c0-4.9716-4.0596-9.0312-9.0312-9.0312h-72z" transform="scale(1,-1)"/>
  <path id="path3770" style="opacity:.2;fill:url(#linearGradient3780)" d="m12-93c-4.4091 0-8 3.5909-8 8v71c0 4.4091 3.5909 8 8 8h72c4.4091 0 8-3.5909 8-8v-71c0-4.4091-3.5909-8-8-8h-72z" transform="scale(1,-1)"/>
  <rect id="rect3723" style="opacity:.3;fill:url(#linearGradient3780)" transform="scale(1,-1)" rx="7" ry="7" height="85" width="86" y="-92" x="5"/>
  <rect id="rect3716" style="opacity:.45;fill:url(#linearGradient3721)" transform="scale(1,-1)" rx="6" ry="6" height="84" width="84" y="-91" x="6"/>
 </g>
 <g id="layer1">
  <rect id="rect2419-4" style="fill:url(#linearGradient3124)" rx="6" ry="6" height="84" width="84" y="6" x="6"/>
  <path id="rect4359" style="opacity:.2;fill:url(#radialGradient4375)" d="m120.78 6.125c-2.74 0.5576-4.78 2.9665-4.78 5.875v68c0 3.324 2.676 6 6 6h72c3.324 0 6-2.676 6-6v-68c0-2.9085-2.0422-5.3174-4.7812-5.875 2.2051 0.53621 3.8125 2.4908 3.8125 4.875v68c0 2.8049-2.2264 5.0312-5.0312 5.0312h-72c-2.8049 0-5.0312-2.2264-5.0312-5.0312v-68c0-2.3842 1.6074-4.3388 3.8125-4.875z"/>
  <path id="rect4377" style="opacity:.2;fill:url(#linearGradient4390)" d="m12 86c-3.324 0-6-2.676-6-6v-68c0-3.324 2.676-6 6-6h72c3.324 0 6 2.676 6 6v68c0 3.324-2.676 6-6 6zm0-0.96875h72c2.8049 0 5.0312-2.2264 5.0312-5.0312v-68c0-2.8049-2.226-5.0312-5.031-5.0312h-72c-2.8049 0-5.0312 2.2263-5.0312 5.0312v68c0 2.8049 2.2264 5.0312 5.0312 5.0312z"/>
  <path id="rect4414" style="opacity:0.08;fill:url(#linearGradient4429)" d="m6 78v2c0 3.324 2.676 6 6 6h72c3.324 0 6-2.676 6-6v-2c0 3.324-2.676 6-6 6h-72c-3.324 0-6-2.676-6-6z"/>
  <path id="path4412" style="opacity:.15" d="m6 100v1c0 3.324 2.676 6 6 6h72c3.324 0 6-2.676 6-6v-1c0 3.324-2.676 6-6 6h-72c-3.324 0-6-2.676-6-6z"/>
 </g>
 <g id="layer4">
  <path id="path3888" style="fill:url(#linearGradient3228)" d="m6 80v4c0 3.324 2.676 6 6 6h72c3.324 0 6-2.676 6-6v-4c0 3.324-2.676 6-6 6h-72c-3.324 0-6-2.676-6-6z"/>
  <path id="rect4345" style="opacity:.1;color:#000000" d="m6 82v2c0 3.324 2.676 6 6 6h72c3.324 0 6-2.676 6-6v-2c0 3.324-2.676 6-6 6h-72c-3.324 0-6-2.676-6-6z"/>
  <path id="rect4336" style="opacity:.15;color:#000000" d="m6 83v1c0 3.324 2.676 6 6 6h72c3.324 0 6-2.676 6-6v-1c0 3.324-2.676 6-6 6h-72c-3.324 0-6-2.676-6-6z"/>
 </g>
 <g id="layer5" style="display:none">
  <rect id="rect3171" style="opacity:.1;filter:url(#filter3794);stroke:#fff;stroke-linecap:round;stroke-width:.5;fill:url(#linearGradient3613)" clip-path="url(#clipPath4355)" rx="12" ry="12" height="62" width="66" y="15" x="15"/>
 </g>
 <g id="layer6">
  <path id="path4132" style="opacity:.05;fill-rule:evenodd" d="m46.594 15.094c-3.9466-0.18422-7.4104 3.3101-6.875 7.3125-0.000055 0.02166-0.000204 0.04094 0 0.0625 0.0047 0.03269-0.0053 0.061 0 0.09375h0.03125c0.04034 1.413 0.6643 2.5452 1.4688 3.5312-5.2613 0.0054-10.545-0.06587-15.844 0.09375a1.0672 1.0672 0 0 0 -0.03125 0c-4.0146 0.24626-7.0174 3.8928-6.7188 7.8438h-0.03125c-0.0051 0.04215 0.0042 0.08283 0 0.125 0.004 0.04263-0.0048 0.08231 0 0.125h0.03125c-0.2784 3.4591 2.1521 6.886 5.8125 7.125v0.03125c0.03193 0.002 0.06163-0.0015 0.09375 0 0.03492 0.0017 0.05862 0.03016 0.09375 0.03125v-0.03125c0.49549 0.07449 1.0002 0.11345 1.5312 0.09375-4.3039 3.1942-8.7036 6.3188-12.969 9.5938-3.6871 2.9151-4.1703 8.3616-2.0312 12.219a1.0672 1.0672 0 0 0 0.09375 0.125c1.5414 1.9612 3.8696 2.6458 6.0625 2.4375 2.1551-0.20476 4.2501-1.2006 5.75-2.7188l0.09375-0.0625 7.0625-5.8125c2.063 8.8071 10.106 15.349 18.719 17.094 0.0096 0.0019 0.02168-0.0019 0.03125 0 11.732 2.663 25.258-3.471 29.531-15.096 1.942-5.309 1.848-11.244 0.25-16.562-1.669-5.542-5.847-9.625-10.281-12.75-0.01157-0.0089-0.01968-0.02239-0.03125-0.03125-5.7873-4.4329-11.674-8.925-17.406-13.312-0.02292-0.01754-0.03958-0.04496-0.0625-0.0625v0.03125c-1.1977-1.0669-2.817-1.5212-4.3125-1.5312-0.02007-0.000134-0.04248-0.000019-0.0625 0z"/>
  <path id="path4128" style="opacity:.1;fill-rule:evenodd" d="m46.594 16.156c-3.3429-0.18949-6.3558 2.868-5.8125 6.25-0.0051 2.0234 1.475 3.6279 3 4.75-6.1239 0.0492-12.257-0.09056-18.375 0.09375-3.4711 0.21292-6.1363 3.4731-5.75 6.9062-0.36169 3.0171 1.8176 6.1513 5 6.25 1.4914 0.29587 6.4837-0.68953 3.2812 1.0938-4.687 3.5016-9.4648 6.9145-14.094 10.469-3.1993 2.5294-3.645 7.4268-1.75 10.844 2.6026 3.3115 7.6525 2.2924 10.281-0.4375l8.5-6.9688c1.239 9.164 9.524 16.199 18.314 17.968 11.215 2.563 24.247-3.38 28.312-14.437 1.849-5.056 1.757-10.755 0.219-15.876-1.573-5.221-5.561-9.161-9.907-12.218-5.821-4.46-11.734-8.994-17.5-13.406-0.931-0.854-2.42-1.283-3.718-1.282z"/>
  <path id="path4120" style="opacity:.15;fill-rule:evenodd" d="m46.594 17.156c-1.0748 0.0014-2.1742 0.29429-3.0938 0.9375-1.4593 1.0168-1.7536 2.6016-1.7188 3.8438 0.01472 0.52486 0.04264 1.0802 0.21875 1.6875 0.17611 0.60734 0.54999 1.22 1.1562 1.7188a0.99095 0.99095 0 0 0 0 0.03125c1.161 0.91457 2.3359 1.8493 3.5 2.7812h-19.969c-1.5939 0-2.9653 0.39385-4 1.125s-1.6867 1.8028-1.9062 3.0312c-0.10481 0.58648-0.125 1.1146-0.125 1.6562v0.75c0 1.0538 0.24135 2.2147 1 3.1562 0.75865 0.94159 2.0499 1.5625 3.6875 1.5625 2.346 0.0031 4.7042 0.0014 7.0625 0l-17.75 13.125a0.99095 0.99095 0 0 0 0 0.03125c0.06885-0.05233 0.03436-0.03487-0.09375 0.0625a0.99095 0.99095 0 0 0 -0.03125 0c-2.1028 1.6575-2.548 3.8217-2.5625 5.7812-0.0093 1.253 0.07403 2.611 0.90625 3.7188a0.99095 0.99095 0 0 0 0 0.03125c1.7996 2.3005 5.378 2.2242 7.9062 0.1875l10.75-8.7812c0.01748 1.0288 0.321 2.5978 0.75 3.9688a0.99095 0.99095 0 0 0 0 0.03125c0.8814 2.8041 2.3638 5.3735 4.4375 7.6562 2.1273 2.3424 4.7429 4.2329 7.75 5.5625 3.1624 1.3963 6.5763 2.1306 10.125 2.125 3.548-0.0075 6.9929-0.74871 10.156-2.1562 3.0024-1.3412 5.625-3.2149 7.75-5.5625 2.0657-2.2881 3.5542-4.8756 4.4375-7.6875 0.44899-1.4287 0.72841-2.8708 0.84375-4.3125a0.99095 0.99095 0 0 0 0 -0.03125c0.06557-0.83836 0.07565-1.6793 0.03125-2.5312-0.000548-0.01052 0.000567-0.02073 0-0.03125 0.0015-0.03113-0.0014-0.06262 0-0.09375 0.053-1.196-0.015-2.39-0.187-3.593-0.395-2.784-1.366-5.44-2.844-7.813-1.355-2.177-3.092-4.058-5.156-5.656l-19.781-15.157c0.01656 0.02185-0.0692-0.037-0.125-0.09375l-0.031-0.03-0.032-0.032c-0.01341-0.01202-0.01861-0.02096-0.03125-0.03125-0.01138-0.0087-0.0198-0.02269-0.03125-0.03125-0.86621-0.64783-1.9342-0.93896-3-0.9375z"/>
  <path id="path4116" style="opacity:.3;fill-rule:evenodd" d="m46.594 18.156c-0.89419 0.0012-1.812 0.24687-2.5312 0.75-1.1615 0.80932-1.3065 1.8603-1.2746 2.9973 0.02931 1.0453 0.05406 1.9174 0.99337 2.6902 1.9049 1.5006 3.8119 3.0329 5.7188 4.5625h-22.812c-2.8782 0-4.5809 1.3484-4.9375 3.3438-0.08809 0.49293-0.07915 0.94187-0.07915 1.4765v0.74228c0 1.7887 0.84921 3.7187 3.6729 3.7187 3.3632 0.0044 6.7434 0.008 10.125 0l-20.219 14.938c-0.02963 0.02252-0.06412 0.03998-0.09375 0.0625-1.855 1.4622-2.1856 3.1635-2.1993 5.0137-0.0088 1.1857 0.11522 2.3339 0.69926 3.1113 1.385 1.7705 4.3111 1.7946 6.5 0.03125l12.375-10.094c0.000095 0.01891-0.000281 0.04411 0 0.0625 0.0028 0.16464 0.04063 0.37628 0.0625 0.59375 0.0057 0.05673-0.0069 0.09668 0 0.15625-0.0379 0.41712-0.06813 0.88148-0.0625 1.25 0.01411 0.83037 0.2912 2.4523 0.6875 3.7188 0.83918 2.6698 2.2386 5.1327 4.2188 7.3125 2.031 2.2364 4.5504 4.036 7.4375 5.3125 3.038 1.3414 6.3057 2.0366 9.7188 2.0312 3.4131-0.0072 6.7135-0.71138 9.75-2.0625 2.886-1.2891 5.3767-3.0704 7.4062-5.3125 1.9757-2.1884 3.4109-4.6725 4.25-7.3438 0.42461-1.3511 0.67113-2.7173 0.78125-4.0938 0.06572-0.84022 0.08133-1.6886 0.03125-2.5312 0.05834-1.1797 0.01201-2.3517-0.15625-3.5312-0.375-2.643-1.31-5.144-2.718-7.406-1.293-2.076-2.931-3.876-4.907-5.406l-19.969-15.312c-0.01698-0.01408-0.01283-0.01859-0.03125-0.03125-0.65583-0.50104-1.5433-0.75123-2.4375-0.75z"/>
  <path id="path4013" style="fill:#cf5d00;fill-rule:evenodd" d="m46.594 17.156c-0.89419 0.0012-1.812 0.24687-2.5312 0.75-1.1615 0.80932-1.3065 1.8603-1.2746 2.9973 0.02931 1.0453 0.05406 1.9174 0.99337 2.6902 1.9049 1.5006 3.8119 3.0329 5.7188 4.5625h-22.812c-2.8782 0-4.5809 1.3484-4.9375 3.3438-0.08809 0.49293-0.07915 0.94187-0.07915 1.4765v0.74228c0 1.7887 0.84921 3.7187 3.6729 3.7187 3.3632 0.0044 6.7434 0.008 10.125 0l-20.219 14.938c-0.02963 0.02252-0.06412 0.03998-0.09375 0.0625-1.855 1.4622-2.1856 3.1635-2.1993 5.0137-0.0088 1.1857 0.11522 2.3339 0.69926 3.1113 1.385 1.7705 4.3111 1.7946 6.5 0.03125l12.375-10.094c0.000095 0.01891-0.000281 0.04411 0 0.0625 0.0028 0.16464 0.04063 0.37628 0.0625 0.59375 0.0057 0.05673-0.0069 0.09668 0 0.15625-0.0379 0.41712-0.06813 0.88148-0.0625 1.25 0.01411 0.83037 0.2912 2.4523 0.6875 3.7188 0.83918 2.6698 2.2386 5.1327 4.2188 7.3125 2.031 2.2364 4.5504 4.036 7.4375 5.3125 3.038 1.3414 6.3057 2.0366 9.7188 2.0312 3.4131-0.0072 6.7135-0.71138 9.75-2.0625 2.886-1.2891 5.3767-3.0704 7.4062-5.3125 1.9757-2.1884 3.4109-4.6725 4.25-7.3438 0.42461-1.3511 0.67113-2.7173 0.78125-4.0938 0.06572-0.84022 0.08133-1.6886 0.03125-2.5312 0.05834-1.1797 0.01201-2.3517-0.15625-3.5312-0.375-2.643-1.31-5.144-2.718-7.406-1.293-2.076-2.931-3.876-4.907-5.406l-19.969-15.312c-0.01698-0.01408-0.01283-0.01859-0.03125-0.03125-0.65583-0.50104-1.5433-0.75123-2.4375-0.75z"/>
  <path id="path4095" style="opacity:.5;fill:url(#linearGradient4106);fill-rule:evenodd" d="m21.094 48.062-5.844 4.313c-0.02963 0.02252-0.06412 0.03998-0.09375 0.0625-1.855 1.4622-2.1738 3.1498-2.1875 5-0.0088 1.1857 0.10346 2.3476 0.6875 3.125 1.385 1.7705 4.3111 1.7946 6.5 0.03125l12.375-10.094c0.000095 0.01891-0.000281 0.04411 0 0.0625 0.0028 0.16464 0.04063 0.37628 0.0625 0.59375 0.0057 0.05673-0.0069 0.09668 0 0.15625-0.0379 0.41712-0.06813 0.88148-0.0625 1.25 0.01411 0.83037 0.2912 2.4523 0.6875 3.7188 0.83918 2.6698 2.2386 5.1327 4.2188 7.3125 2.031 2.2364 4.5504 4.036 7.4375 5.3125 3.038 1.3414 6.3057 2.0366 9.7188 2.0312 3.4131-0.0072 6.7135-0.71138 9.75-2.0625 2.886-1.2891 5.3767-3.0704 7.4062-5.3125 1.9757-2.1884 3.4109-4.6725 4.25-7.3438 0.42461-1.3511 0.67113-2.7173 0.78125-4.0938 0.06572-0.84022 0.08133-1.6886 0.03125-2.5312 0.02508-0.50708 0.01497-1.0258 0-1.5312h-55.719z"/>
  <path id="path4069" style="opacity:.3;fill:url(#linearGradient4093);fill-rule:evenodd" d="m46.594 17.156c-0.89419 0.0012-1.812 0.24687-2.5312 0.75-1.1615 0.80932-1.3131 1.8629-1.2812 3 0.02931 1.0453 0.06069 1.9147 1 2.6875 1.9049 1.5006 3.8119 3.0329 5.7188 4.5625h-9.3438v0.625c0 3.324 2.676 6 6 6h24.625c-0.556-0.536-1.126-1.048-1.75-1.531l-19.969-15.312c-0.01698-0.01408-0.01283-0.01859-0.03125-0.03125-0.65583-0.50104-1.5433-0.75123-2.4375-0.75z"/>
  <path id="path4064" style="opacity:.5;fill:url(#linearGradient4083);fill-rule:evenodd" d="m26.688 28.156c-2.8782 0-4.5809 1.3484-4.9375 3.3438-0.08809 0.49293-0.09375 0.93408-0.09375 1.4688v0.75c0 1.7887 0.86381 3.7188 3.6875 3.7188 3.3632 0.0044 6.7434 0.008 10.125 0l-3.8125 2.8125h7.9688c-0.04085-0.28374-0.0625-0.5796-0.0625-0.875v-11.219h-12.875z"/>
  <path id="path2482" style="fill:url(#linearGradient3707-2);fill-rule:evenodd" d="m32.525 50.571c0.01411 0.83037 0.2835 2.4448 0.6798 3.7113 0.83918 2.6698 2.2609 5.1443 4.241 7.3241 2.031 2.2364 4.5288 4.0364 7.4158 5.3129 3.038 1.3414 6.3271 2.0267 9.7402 2.0213 3.4131-0.0072 6.702-0.70366 9.7385-2.0548 2.886-1.2891 5.3838-3.0935 7.4133-5.3356 1.9757-2.1884 3.3947-4.6669 4.2338-7.3382 0.42461-1.3511 0.68817-2.7206 0.7983-4.097 0.10579-1.3525 0.06063-2.7121-0.1325-4.066-0.37514-2.6431-1.2933-5.1216-2.7022-7.3833-1.2922-2.0759-2.9549-3.8943-4.931-5.4241l0.0029-0.0029-19.954-15.291c-0.01698-0.01408-0.0325-0.02815-0.05092-0.04081-1.3117-1.0021-3.5133-0.99926-4.9519 0.007-1.4584 1.0162-1.5755 2.6052-0.28214 3.6692 2.7413 2.1595 5.4718 4.4177 8.2283 6.577l-25.326-0.01685c-2.8782 0-4.5717 1.3649-4.9283 3.3603-0.31468 1.7608 1.0792 3.9427 3.5786 3.9427 4.2662 0.0056 8.5742-0.0099 12.856-0.01831l-22.946 16.939c-0.02963 0.02252-0.05923 0.04223-0.08886 0.06475-2.1607 1.6536-2.8617 4.4052-1.5007 6.1461 1.385 1.7705 4.3257 1.7719 6.5146 0.0086l12.521-10.226s-0.18053 1.3821-0.16786 2.211z"/>
  <path id="path4043" style="opacity:.05" d="m31.188 15.125c-6.6264 0-12.062 4.7193-12.062 10.625s5.4361 10.625 12.062 10.625c6.6264 0 12.062-4.7193 12.062-10.625s-5.4361-10.625-12.062-10.625z" transform="matrix(1.1856 0 0 1.2088 17.846 15.71)"/>
  <path id="path4047" style="opacity:.1" d="m42.75 25.75a11.562 10.125 0 1 1 -23.125 0 11.562 10.125 0 1 1 23.125 0z" transform="matrix(1.1856 0 0 1.2088 17.955 16.25)"/>
  <path id="path39153" style="fill:url(#linearGradient6135-5)" d="m42.75 25.75a11.562 10.125 0 1 1 -23.125 0 11.562 10.125 0 1 1 23.125 0z" transform="matrix(1.1856 0 0 1.2088 17.846 15.71)"/>
  <path id="path4060" style="opacity:.1;fill-rule:evenodd" d="m46.895 46.184c0.10745-1.9599 1.0668-3.69 2.5089-4.9148 1.4192-1.204 3.3249-1.9392 5.4066-1.9392 2.0804 0 3.9861 0.73517 5.4049 1.9392 1.4437 1.2248 2.4019 2.9536 2.5106 4.9135 0.11136 2.0171-0.69666 3.89-2.1129 5.2772-1.4437 1.4131-3.5022 2.3003-5.8027 2.3003-2.3018 0-4.3603-0.88712-5.8039-2.3003-1.4177-1.3872-2.2229-3.2601-2.1116-5.2759z"/>
  <path id="path2478" style="fill:url(#radialGradient3700-6);fill-rule:evenodd" d="m46.895 45.763c0.10745-1.9599 1.0668-3.69 2.5089-4.9148 1.4192-1.204 3.3249-1.9392 5.4066-1.9392 2.0804 0 3.9861 0.73517 5.4049 1.9392 1.4437 1.2248 2.4019 2.9536 2.5106 4.9135 0.11136 2.0171-0.69666 3.89-2.1129 5.2772-1.4437 1.4131-3.5022 2.3003-5.8027 2.3003-2.3018 0-4.3603-0.88712-5.8039-2.3003-1.4177-1.3872-2.2229-3.2601-2.1116-5.2759z"/>
  <path id="path4018" style="opacity:.15;fill:#fff;fill-rule:evenodd" d="m46.594 17.156c-0.89419 0.0012-1.812 0.24687-2.5312 0.75-1.4584 1.0162-1.5746 2.6235-0.28125 3.6875 2.7413 2.1595 5.4623 4.4032 8.2188 6.5625h-25.312c-2.8782 0-4.5809 1.3484-4.9375 3.3438-0.31468 1.7608 1.0944 3.9375 3.5938 3.9375 4.2662 0.0056 8.5623 0.0084 12.844 0l-22.938 16.938c-0.02963 0.02252-0.06412 0.03998-0.09375 0.0625-2.1607 1.6536-2.861 4.384-1.5 6.125 1.385 1.7705 4.3111 1.7946 6.5 0.03125l12.532-10.219s-0.16892 1.3585-0.15625 2.1875c0.01411 0.83037 0.2912 2.4523 0.6875 3.7188 0.83918 2.6698 2.2386 5.1327 4.2188 7.3125 2.031 2.2364 4.5504 4.036 7.4375 5.3125 3.038 1.3414 6.3057 2.0366 9.7188 2.0312 3.4131-0.0072 6.7135-0.71138 9.75-2.0625 2.886-1.2891 5.3767-3.0704 7.4062-5.3125 1.9757-2.1884 3.4109-4.6725 4.25-7.3438 0.42461-1.3511 0.67113-2.7173 0.78125-4.0938 0.10579-1.3525 0.06813-2.7086-0.125-4.0625-0.376-2.644-1.311-5.145-2.719-7.407-1.293-2.076-2.931-3.876-4.907-5.406l-19.969-15.312c-0.01698-0.01408-0.01283-0.01859-0.03125-0.03125-0.65583-0.50104-1.5433-0.75123-2.4375-0.75zm0 0.875c0.73254-0.001 1.4386 0.20524 1.9062 0.5625a0.86251 0.86251 0 0 0 0.031 0.031l19.969 15.313c1.8995 1.4705 3.4811 3.1992 4.7188 5.1875 1.3485 2.1648 2.236 4.5418 2.5938 7.0625 0.18398 1.2897 0.1948 2.583 0.09375 3.875-0.10558 1.3197-0.31537 2.6226-0.71875 3.9062-0.79822 2.5411-2.1741 4.903-4.0625 7-1.9464 2.1503-4.3404 3.8812-7.125 5.125-2.9261 1.302-6.1106 1.9618-9.4062 1.9688-3.2951 0.0052-6.4454-0.64394-9.375-1.9375-2.783-1.231-5.209-2.982-7.157-5.126-1.8987-2.0902-3.2288-4.4159-4.0312-6.9688-0.36784-1.1755-0.61382-2.8111-0.625-3.4688-0.01066-0.69746 0.125-2.0938 0.125-2.0938a0.86251 0.86251 0 0 0 -1.375 -0.75l-12.531 10.22c-1.8935 1.5254-4.2571 1.4029-5.2812 0.09375-0.50157-0.64158-0.62904-1.4471-0.40625-2.3438 0.22279-0.89664 0.81586-1.8476 1.75-2.5625-0.04315 0.03279 0.0029-0.01957 0.0625-0.0625h0.03125l22.907-16.938a0.86251 0.86251 0 0 0 -0.5 -1.5625c-4.2799 0.0084-8.5779 0.0056-12.844 0-1.9986 0-2.9646-1.7056-2.75-2.9062 0.1424-0.79681 0.53563-1.4144 1.1875-1.875 0.65187-0.46063 1.6018-0.75 2.9062-0.75h25.312a0.86251 0.86251 0 0 0 0.53125 -1.5625c-2.7336-2.1413-5.4478-4.3721-8.1875-6.5312-0.01149-0.0091-0.01976-0.0222-0.03125-0.03125-0.43605-0.37532-0.58902-0.77164-0.5625-1.125 0.02741-0.36518 0.2495-0.76396 0.8125-1.1562 0.54497-0.3812 1.2942-0.59274 2.0312-0.59375z"/>
  <path id="path4051" style="opacity:.1;fill:#fff;fill-rule:evenodd" d="m54.812 38.906c-2.0817 0-3.9871 0.73347-5.4062 1.9375-1.4421 1.2248-2.3925 2.9463-2.5 4.9062-0.01102 0.19948-0.0066 0.3974 0 0.59375 0.10745-1.9599 1.0579-3.6814 2.5-4.9062 1.4192-1.204 3.3245-1.9688 5.4062-1.9688 2.0804 0 3.9874 0.76472 5.4062 1.9688 1.4437 1.2248 2.3913 2.9463 2.5 4.9062 0.0067-0.19646 0.01102-0.39414 0-0.59375-0.10871-1.9599-1.0563-3.6814-2.5-4.9062-1.4188-1.204-3.3259-1.9375-5.4062-1.9375z"/>
  <path id="path4134" style="opacity:.2;fill:url(#linearGradient4136);fill-rule:evenodd" d="m46.594 17.156c-0.89419 0.0012-1.812 0.24687-2.5312 0.75-1.4584 1.0162-1.5746 2.6235-0.28125 3.6875 2.7413 2.1595 5.4623 4.4032 8.2188 6.5625h-25.312c-2.8782 0-4.5809 1.3484-4.9375 3.3438-0.31468 1.7608 1.0944 3.9375 3.5938 3.9375 4.2662 0.0056 8.5623 0.0084 12.844 0l-22.938 16.938c-0.02963 0.02252-0.06412 0.03998-0.09375 0.0625-2.1607 1.6536-2.861 4.384-1.5 6.125 1.385 1.7705 4.3111 1.7946 6.5 0.03125l12.532-10.219s-0.16892 1.3585-0.15625 2.1875c0.01411 0.83037 0.2912 2.4523 0.6875 3.7188 0.43751 1.3919 1.0305 2.7283 1.7812 4 8.4327-11.207 21.932-18.469 37.125-18.469 0.85132 0 1.6913 0.01751 2.5312 0.0625-0.216-0.409-0.472-0.823-0.718-1.219-1.293-2.076-2.931-3.876-4.907-5.406l-19.969-15.312c-0.01698-0.01408-0.01283-0.01859-0.03125-0.03125-0.65583-0.50104-1.5433-0.75123-2.4375-0.75z"/>
 </g>
</svg>
