<?xml version="1.0" encoding="UTF-8" standalone="no"?>
<!-- Created with Inkscape (http://www.inkscape.org/) -->
<svg id="svg2408" xmlns:rdf="http://www.w3.org/1999/02/22-rdf-syntax-ns#" xmlns="http://www.w3.org/2000/svg" height="96" width="96" version="1.0" xmlns:cc="http://creativecommons.org/ns#" xmlns:xlink="http://www.w3.org/1999/xlink" xmlns:dc="http://purl.org/dc/elements/1.1/">
 <defs id="defs2410">
  <linearGradient id="ButtonShadow" y2="7.0165" gradientUnits="userSpaceOnUse" x2="45.448" gradientTransform="scale(1.0059 .99417)" y1="92.54" x1="45.448">
   <stop id="stop3750" offset="0"/>
   <stop id="stop3752" style="stop-opacity:.58824" offset="1"/>
  </linearGradient>
  <linearGradient id="linearGradient3737">
   <stop id="stop3739" style="stop-color:#fff" offset="0"/>
   <stop id="stop3741" style="stop-color:#fff;stop-opacity:0" offset="1"/>
  </linearGradient>
  <filter id="filter3174" color-interpolation-filters="sRGB">
   <feGaussianBlur id="feGaussianBlur3176" stdDeviation="1.71"/>
  </filter>
  <linearGradient id="linearGradient3188" y2="63.893" xlink:href="#linearGradient3737" gradientUnits="userSpaceOnUse" x2="36.357" y1="6" x1="36.357"/>
  <filter id="filter3794" height="1.384" width="1.384" color-interpolation-filters="sRGB" y="-.192" x="-.192">
   <feGaussianBlur id="feGaussianBlur3796" stdDeviation="5.28"/>
  </filter>
  <linearGradient id="linearGradient3613" y2="138.66" xlink:href="#linearGradient3737" gradientUnits="userSpaceOnUse" x2="48" y1="20.221" x1="48"/>
  <radialGradient id="radialGradient3619" xlink:href="#linearGradient3737" gradientUnits="userSpaceOnUse" cy="90.172" cx="48" gradientTransform="matrix(1.1573 0 0 .99591 -7.551 .19713)" r="42"/>
  <clipPath id="clipPath3613">
   <rect id="rect3615" style="fill:#fff" rx="6" ry="6" height="84" width="84" y="6" x="6"/>
  </clipPath>
  <linearGradient id="linearGradient3617" y2="5.9877" gradientUnits="userSpaceOnUse" x2="48" gradientTransform="translate(0,-96)" y1="90" x1="48">
   <stop id="stop3702" style="stop-color:#dad7ed" offset="0"/>
   <stop id="stop3704" style="stop-color:#9e99c2" offset="1"/>
  </linearGradient>
  <linearGradient id="ButtonShadow-0" y2="7.0165" gradientUnits="userSpaceOnUse" x2="45.448" gradientTransform="matrix(1.0059 0 0 .99417 100 0)" y1="92.54" x1="45.448">
   <stop id="stop3750-8" offset="0"/>
   <stop id="stop3752-5" style="stop-opacity:.58824" offset="1"/>
  </linearGradient>
  <linearGradient id="linearGradient3780" y2="90.239" xlink:href="#ButtonShadow-0" gradientUnits="userSpaceOnUse" x2="32.251" gradientTransform="matrix(1.0238 0 0 1.0119 -1.1429 -98.071)" y1="6.1317" x1="32.251"/>
  <linearGradient id="linearGradient3721" y2="90.239" xlink:href="#ButtonShadow-0" gradientUnits="userSpaceOnUse" x2="32.251" gradientTransform="translate(0,-97)" y1="6.1317" x1="32.251"/>
  <linearGradient id="linearGradient4357" y2="38.741" gradientUnits="userSpaceOnUse" x2="-67.418" y1="64" x1="-128">
   <stop id="stop4337" offset="0"/>
   <stop id="stop4339" style="stop-color:#19007b;stop-opacity:.84706" offset="1"/>
  </linearGradient>
 </defs>
 <metadata id="metadata2413">
  <rdf:RDF>
   <cc:Work rdf:about="">
    <dc:format>image/svg+xml</dc:format>
    <dc:type rdf:resource="http://purl.org/dc/dcmitype/StillImage"/>
    <dc:title/>
   </cc:Work>
  </rdf:RDF>
 </metadata>
 <g id="layer2" style="display:none">
  <rect id="rect3745" style="opacity:.9;filter:url(#filter3174);fill:url(#ButtonShadow)" rx="6" ry="6" height="85" width="86" y="7" x="5"/>
 </g>
 <g id="layer3">
  <path id="path3786" style="opacity:0.08;fill:url(#linearGradient3780)" d="m12-95.031c-5.5111 0-10.031 4.5202-10.031 10.031v71c0 5.5111 4.5202 10.031 10.031 10.031h72c5.5111 0 10.031-4.5202 10.031-10.031v-71c0-5.5111-4.5202-10.031-10.031-10.031h-72z" transform="scale(1,-1)"/>
  <path id="path3778" style="opacity:.1;fill:url(#linearGradient3780)" d="m12-94.031c-4.9716 0-9.0312 4.0596-9.0312 9.0312v71c0 4.9716 4.0596 9.0312 9.0312 9.0312h72c4.9716 0 9.0312-4.0596 9.0312-9.0312v-71c0-4.9716-4.0596-9.0312-9.0312-9.0312h-72z" transform="scale(1,-1)"/>
  <path id="path3770" style="opacity:.2;fill:url(#linearGradient3780)" d="m12-93c-4.4091 0-8 3.5909-8 8v71c0 4.4091 3.5909 8 8 8h72c4.4091 0 8-3.5909 8-8v-71c0-4.4091-3.5909-8-8-8h-72z" transform="scale(1,-1)"/>
  <rect id="rect3723" style="opacity:.3;fill:url(#linearGradient3780)" transform="scale(1,-1)" rx="7" ry="7" height="85" width="86" y="-92" x="5"/>
  <rect id="rect3716" style="opacity:.45;fill:url(#linearGradient3721)" transform="scale(1,-1)" rx="6" ry="6" height="84" width="84" y="-91" x="6"/>
 </g>
 <g id="layer1">
  <rect id="rect2419" style="fill:url(#linearGradient3617)" transform="scale(1,-1)" rx="6" ry="6" height="84" width="84" y="-90" x="6"/>
  <path id="rect3728" style="opacity:.45;fill:url(#linearGradient3188)" d="m12 6c-3.324 0-6 2.676-6 6v2 68 2c0 0.33472 0.04135 0.6507 0.09375 0.96875 0.0487 0.2956 0.09704 0.59692 0.1875 0.875 0.00988 0.03038 0.020892 0.0636 0.03125 0.09375 0.098865 0.28777 0.23488 0.54745 0.375 0.8125 0.14459 0.27351 0.31562 0.53562 0.5 0.78125 0.18438 0.24564 0.37378 0.47347 0.59375 0.6875 0.43995 0.42806 0.94291 0.81453 1.5 1.0938 0.27854 0.13961 0.57347 0.24695 0.875 0.34375-0.2562-0.10022-0.48671-0.23627-0.71875-0.375-0.00741-0.0044-0.023866 0.0045-0.03125 0-0.031933-0.0193-0.062293-0.04251-0.09375-0.0625-0.1204-0.0767-0.23102-0.16351-0.34375-0.25-0.10617-0.0808-0.21328-0.16111-0.3125-0.25-0.1778-0.162-0.3473-0.346-0.4999-0.531-0.1075-0.131-0.2183-0.266-0.3124-0.407-0.0251-0.038-0.0385-0.086-0.0626-0.125-0.0647-0.103-0.1302-0.204-0.1874-0.312-0.1011-0.195-0.2057-0.416-0.2813-0.625-0.008-0.022-0.0236-0.041-0.0313-0.063-0.0318-0.092-0.0358-0.187-0.0624-0.281-0.0304-0.107-0.0704-0.203-0.0938-0.313-0.0729-0.341-0.125-0.698-0.125-1.062v-2-68-2c0-2.782 2.2182-5 5-5h2 68 2c2.7818 0 5 2.2182 5 5v2 68 2c0 0.3643-0.05212 0.72099-0.125 1.0625-0.04415 0.20689-0.08838 0.39766-0.15625 0.59375-0.0077 0.02195-0.0233 0.04069-0.03125 0.0625-0.06274 0.17374-0.13838 0.36745-0.21875 0.53125-0.04158 0.0828-0.07904 0.16995-0.125 0.25-0.0546 0.09721-0.12677 0.18835-0.1875 0.28125-0.09411 0.14096-0.20492 0.276-0.3125 0.40625-0.14317 0.17445-0.30314 0.347-0.46875 0.5-0.01117 0.0102-0.01998 0.02115-0.03125 0.03125-0.13839 0.12556-0.28509 0.23444-0.4375 0.34375-0.10257 0.07315-0.20432 0.15336-0.3125 0.21875-0.0074 0.0045-0.02384-0.0044-0.03125 0-0.23204 0.13873-0.46255 0.27478-0.71875 0.375 0.30153-0.0968 0.59646-0.20414 0.875-0.34375 0.55709-0.27922 1.0601-0.66569 1.5-1.0938 0.21997-0.21403 0.40937-0.44186 0.59375-0.6875s0.35541-0.50774 0.5-0.78125c0.14012-0.26505 0.27614-0.52473 0.375-0.8125 0.01041-0.03078 0.02133-0.06274 0.03125-0.09375 0.09046-0.27808 0.1388-0.5794 0.1875-0.875 0.053-0.318 0.094-0.634 0.094-0.969v-2-68-2c0-3.324-2.676-6-6-6h-72z"/>
  <path id="path3615" style="opacity:.2;fill:url(#radialGradient3619)" d="m12 90c-3.324 0-6-2.676-6-6v-2-68-2c0-0.33472 0.04135-0.6507 0.09375-0.96875 0.0487-0.2956 0.09704-0.59692 0.1875-0.875 0.0099-0.03 0.0209-0.063 0.0313-0.094 0.0989-0.2873 0.2349-0.547 0.375-0.812 0.1446-0.2735 0.3156-0.5356 0.5-0.7812 0.1844-0.2457 0.3738-0.4735 0.5937-0.6876 0.44-0.428 0.943-0.8145 1.5-1.0937 0.2786-0.1396 0.5735-0.2469 0.8748-0.3437-0.256 0.1002-0.4865 0.2362-0.7185 0.375-0.00741 0.0044-0.023866-0.0045-0.03125 0-0.031933 0.0193-0.062293 0.04251-0.09375 0.0625-0.1204 0.0767-0.23102 0.16351-0.34375 0.25-0.10617 0.0808-0.21328 0.16111-0.3125 0.25-0.1779 0.1614-0.3474 0.3453-0.5 0.5312-0.1075 0.1303-0.2183 0.2653-0.3124 0.4063-0.0251 0.0383-0.0385 0.0858-0.0626 0.125-0.0647 0.103-0.1302 0.2045-0.1874 0.3124-0.1011 0.1948-0.2057 0.4158-0.2813 0.625-0.008 0.0219-0.0236 0.0406-0.0313 0.0626-0.0318 0.0919-0.0358 0.1868-0.0624 0.2812-0.0304 0.1066-0.0704 0.203-0.0938 0.3125-0.0729 0.3415-0.125 0.6985-0.125 1.0625v2 68 2c0 2.7818 2.2182 5 5 5h2 68 2c2.7818 0 5-2.2182 5-5v-2-68-2c0-0.364-0.052-0.721-0.125-1.0625-0.044-0.2069-0.088-0.3977-0.156-0.5937-0.008-0.022-0.024-0.0407-0.031-0.0626-0.063-0.1737-0.139-0.3674-0.219-0.5312-0.042-0.0828-0.079-0.17-0.125-0.25-0.055-0.0972-0.127-0.1884-0.188-0.2812-0.094-0.141-0.205-0.276-0.312-0.4063-0.143-0.1745-0.303-0.347-0.469-0.5-0.011-0.0102-0.02-0.0211-0.031-0.0313-0.139-0.1255-0.285-0.2344-0.438-0.3437-0.102-0.0731-0.204-0.1534-0.312-0.2187-0.0074-0.0045-0.02384 0.0044-0.03125 0-0.23204-0.13873-0.46255-0.27478-0.71875-0.375 0.30153 0.0968 0.59646 0.20414 0.875 0.34375 0.55709 0.27922 1.0601 0.66569 1.5 1.0938 0.21997 0.21403 0.40937 0.44186 0.59375 0.6875s0.35541 0.50774 0.5 0.78125c0.14012 0.26505 0.27614 0.52473 0.375 0.8125 0.01041 0.03078 0.02133 0.06274 0.03125 0.09375 0.09046 0.27808 0.1388 0.5794 0.1875 0.875 0.053 0.318 0.094 0.634 0.094 0.969v2 68 2c0 3.324-2.676 6-6 6h-72z"/>
 </g>
 <g id="layer5">
  <rect id="rect3171" style="opacity:.1;filter:url(#filter3794);stroke:#fff;stroke-linecap:round;stroke-width:.5;fill:url(#linearGradient3613)" clip-path="url(#clipPath3613)" rx="12" ry="12" height="66" width="66" y="15" x="15"/>
 </g>
 <g id="layer4">
  <path id="path4414" style="opacity:.05;fill:#fff" d="m64.375 12.656c-3.046 0.39514-4.9743 2.8169-5.4062 5.2812-0.37328 2.1296 0.15047 4.2884 1.25 6.0938-0.75542 0.16092-1.7367 0.29615-2.0625 0.375-0.40776 0.09869-0.52802 0.08383-0.46875 0.09375 0.0561 0.0094-0.03159-0.01444-0.34375-0.28125-0.000592-0.000555-0.02351 0.0069-0.03125 0-0.0258-0.02298-0.06043-0.06076-0.0625-0.0625-0.0027-0.0023-0.09094-0.09163-0.09375-0.09375-0.0028-0.0021-0.12209-0.06053-0.125-0.0625-0.0029-0.002-0.09074-0.06069-0.09375-0.0625-0.003-0.0018-0.12189-0.06085-0.125-0.0625-0.0031-0.0016-0.09056-0.06102-0.09375-0.0625-0.0032-0.0015-0.12174-0.06119-0.125-0.0625-0.0033-0.0013-0.12167-0.03012-0.125-0.03125a1.0961 1.0961 0 0 0 -0.031 -0.033c-2.12-0.6218-4.2914 0.03588-5.625 1.4688-0.50953 0.54744-0.76688 1.2087-0.96875 1.875-0.9721-0.1253-1.9502-0.27399-3.0625-0.125-2.3153 0.31011-4.8598 1.4223-6.3438 3.875-0.0022 0.0036-0.06055 0.12127-0.0625 0.125-0.002 0.0037-0.06079 0.12115-0.0625 0.125-0.0017 0.0038-0.06104 0.1523-0.0625 0.15625-0.0015 0.0039-0.06129 0.15222-0.0625 0.15625-0.000925 0.0031-0.02061 0.05349-0.03125 0.09375-0.0033 0.01239 0.000224 0.03028 0 0.03125-0.13118 0.03604-0.17304 0.03841-0.46875 0.0625-0.51758 0.04217-1.194 0.04662-1.875 0.0625-0.58711 0.01369-1.1009 0.15364-1.5312 0.25-0.0086 0.0019-0.02276-0.0019-0.03125 0a1.0961 1.0961 0 0 0 -0.097 0.031c-0.01775 0.0061-0.05305-0.0041-0.0625 0 0.10676-0.02893 0.12534-0.0031-0.03125 0-0.01276 0.000252-0.04744 0.03053-0.0625 0.03125-0.11268 0.0054-0.31414 0.03735-0.5 0.09375-0.09421 0.02859-0.15604 0.01234-0.25 0.0625a1.0961 1.0961 0 0 0 -0.3125 0.28125c-0.53379 0.22149-1.0961 0.42758-1.4688 0.875-0.16351 0.19634-0.17557 0.23795-0.25 0.375-2.4563 0.53177-4.3187 2.3379-5.0938 4.5-0.81162 2.2643-0.65324 4.8956 0.6875 7.0625-0.03957 0.02785-0.08862 0.06872-0.125 0.09375-0.75984-0.50937-1.597-0.92983-2.5938-1.0312-0.09819-0.01-0.07065 0.03182-0.15625 0.03125-0.35336-1.0586-0.97486-2.0043-1.9062-2.5312-0.98624-0.55798-1.9609-0.61261-2.6875-0.625-0.68944-0.01176-1.2998-0.01607-1.75-0.03125-0.45-0.015-0.78-0.131-0.594-0.031a1.0961 1.0961 0 0 0 -0.062 -0.031c-0.0056-0.0027-0.18166-0.06034-0.1875-0.0625-0.0058-0.0022-0.21273-0.09215-0.21875-0.09375-0.006-0.0016-0.21261-0.03022-0.21875-0.03125-0.0053-0.000887-0.13969-0.02571-0.1875-0.03125-0.0078-0.000902-0.03038 0.000063-0.03125 0-1.4566-0.15306-2.7578 0.37441-3.75 1.0625-0.99722 0.69155-1.816 1.6327-2.375 2.6875-0.40243 0.75933-0.59684 1.6327-0.59375 2.5625-0.62495 0.28847-1.2672 0.58214-1.7188 0.96875-0.62956 0.53905-1.155 1.085-1.5938 1.5-0.43876 0.41498-0.86379 0.70981-0.8125 0.6875-0.00435 0.0019-0.15205 0.06031-0.15625 0.0625-0.0042 0.0022-0.15221 0.09127-0.15625 0.09375-0.00404 0.0025-0.12115 0.09099-0.125 0.09375-0.00385 0.0028-0.15261 0.09072-0.15625 0.09375-0.00364 0.003-0.12159 0.12171-0.125 0.125-0.00341 0.0033-0.090581 0.12148-0.09375 0.125-0.00317 0.0035-0.12209 0.12126-0.125 0.125-0.00291 0.0037-0.091117 0.15231-0.09375 0.15625-0.88481 1.3415-0.92196 2.8708-0.625 4.125 0.29586 1.2496 0.94238 2.3679 1.7812 3.25 0.82972 0.87251 2.039 1.7033 3.5938 1.6562 0.37531-0.01135 0.59852-0.22625 0.90625-0.34375 0.97951 1.6254 1.7818 3.4709 2.0938 5.25a1.0961 1.0961 0 0 0 0.031 0.094c0.0017 0.0066 0.0601 0.21236 0.0625 0.21875 0.0014 0.0038 0.03481 0.09272 0.0625 0.15625 0.21947 0.5453 0.30741 1.5307 0.28125 1.8438-0.03639 0.0012-0.06043-0.000135-0.0625 0-0.0041 0.00027-0.15214-0.000528-0.15625 0-0.0041 0.000528-0.15218 0.03047-0.15625 0.03125-0.0041 0.000784-0.15224 0.03021-0.15625 0.03125-0.004 0.001-0.12106 0.06121-0.125 0.0625-0.0039 0.0013-0.1524 0.02972-0.15625 0.03125-0.0038 0.0015-0.12126 0.06073-0.125 0.0625-0.0037 0.0018-0.12137 0.0605-0.125 0.0625-0.0036 0.002-0.15276 0.09153-0.15625 0.09375-0.0035 0.0022-0.12165 0.09131-0.125 0.09375-0.0033 0.0024-0.09056 0.05986-0.09375 0.0625-0.0032 0.0026-0.12198 0.12216-0.125 0.125-0.003 0.0028-0.09092 0.09073-0.09375 0.09375-0.0028 0.003-0.09111 0.12181-0.09375 0.125-0.0026 0.0032-0.09132 0.0904-0.09375 0.09375a1.0961 1.0961 0 0 0 -0.031 0.031c-1.6195 2.3233-0.94989 5.1942 0.5625 6.9688 1.2735 1.4942 3.3175 2.4225 5.4688 2.125 0.77116 0.23078 1.9606 0.53231 3.375 0.34375 0.84653-0.11285 1.8632-0.46166 2.6562-1.3125 0.61994-0.66512 0.76823-1.4215 0.875-2.0938a1.0961 1.0961 0 0 0 0 -0.03125c0.0018-0.01171 0.02946-0.01961 0.03125-0.03125 0.07454-0.14051 0.03907-0.21708 0.0625-0.34375 0.93453 0.66897 1.9311 1.22 2.9688 1.5312 1.9546 0.58622 3.8321 0.73655 5.2812 1a1.0961 1.0961 0 0 0 0.03125 0c0.0039 0.000604 0.12109-0.000372 0.125 0 0.0039 0.000372 0.15232 0.03111 0.15625 0.03125 0.0039 0.000138 0.12107 0.000096 0.125 0 0.0039-0.000096 0.15233-0.03092 0.15625-0.03125 0.0039-0.000329 0.12111 0.000561 0.125 0 0.0015-0.000216 0.03763 0.0043 0.0625 0 0.28017 0.63655 0.78876 1.3092 1.5625 2.0312a1.0961 1.0961 0 0 0 0 0.03125 1.0961 1.0961 0 0 0 0.25 0.4375c0.32998 0.32359 0.47751 0.37183 0.34375 0.25 2.4499 2.2315 6.0288 3.4655 9.5 2.5312 0.72487 0.21493 1.8372 0.59444 3.2188 0.75 1.5801 0.17792 3.6514-0.09918 5.1875-1.625 0.64982 0.18652 1.6885 0.34522 2.9062 0.15625a1.0961 1.0961 0 0 0 0.375 0.0625c0.613-0.017 0.846-0.174 0.719-0.156 1.668-0.236 3.183-0.955 4.344-2.031 0.73313-0.6793 1.1469-1.5371 1.5312-2.4062 1.7998-0.17222 3.649-0.60497 5.3438-1.4688 1.8412-0.93841 3.3558-2.3895 4.3438-4.1875 1.6053-0.76753 3.2118-1.8169 4.5312-3.2812 1.2587-1.3969 2.0561-3.1972 2.2812-5.1875 1.2107-1.514 4.4231-4.3021 4.7188-8.5312-0.0047 0.06721 0.02434-0.24434 0.0625-0.40625h0.03125c0.02757-0.10107 0.01046-0.18222 0.03125-0.28125 0.0023-0.01089-0.0022-0.02038 0-0.03125 0.36794-1.812-0.33187-3.1112-1-4 2.4275-4.2158 3.1833-9.5953 0.6875-14.156-0.000304-0.000576 0.003-0.02597 0-0.03125-0.01737-0.03061-0.09177-0.12178-0.09375-0.125-0.0023-0.0038-0.05993-0.1214-0.0625-0.125-0.0026-0.0036-0.09095-0.12158-0.09375-0.125-0.0028-0.0034-0.12197-0.12177-0.125-0.125-0.003-0.0032-0.09051-0.12198-0.09375-0.125-0.0032-0.003-0.12157-0.09095-0.125-0.09375-0.0034-0.0028-0.12139-0.09119-0.125-0.09375-0.007-0.02655 0.0079 0.0057 0-0.03125-0.05743-0.26868-0.09038-0.99405-0.125-1.8125-0.03473-0.82113-0.09635-1.8434-0.4375-2.9375-0.33516-1.0748-1.0148-2.1833-2.125-3-0.0016-0.0016-0.06088-0.06093-0.0625-0.0625a1.0961 1.0961 0 0 0 -0.093 -0.094 1.0961 1.0961 0 0 0 -0.062 -0.062c-0.86128-0.54026-1.1401-0.83074-1.375-1.25-0.22045-0.39339-0.42969-1.0711-0.5625-2.25-0.29694-2.4106-1.6335-4.7269-3.6562-6.2188-1.0265-0.75707-2.368-1.3618-3.875-1.2812-0.66474 0.03554-1.1733 0.38115-1.7188 0.65625-0.36703-0.48755-0.70859-0.98006-1.3125-1.4688-1.2271-0.99303-2.8683-1.7771-4.7812-1.7188-0.0019-0.000069-0.0301 0.000014-0.0625 0-0.0486-0.000021-0.09088-0.000104-0.09375 0a1.0961 1.0961 0 0 0 -0.125 0zm-30.312 39.875c0.02239 0.0246 0.0059 0.03792 0.03125 0.0625 0.71657 0.69357 1.5614 1.0052 2.2812 1.125 0.23997 0.03994 0.34644-0.03453 0.5625-0.03125-0.88388 1.7167-1.6956 3.4829-2.3438 5.3438-0.1225-0.03933-0.21506-0.12882-0.34375-0.15625-2.0897-0.44548-4.214 0.77422-5.2188 2.9062-0.2845-0.24153-0.47963-0.41699-0.8125-0.6875-0.54101-0.43966-1.2215-0.84197-1.9688-1.1875a1.0961 1.0961 0 0 0 -0.125 -0.125c0.05493-0.0068 0.0627-0.02899 0.125-0.03125 0.02512 0.000892 0.0609 0 0.0625 0 0.0048 0 0.18272 0.000347 0.1875 0a1.0961 1.0961 0 0 0 0.125 -0.03125c2.3966-0.46236 4.0553-2.0919 4.8438-3.9062 0.41709-0.95983 0.4645-1.878 0.53125-2.7812 0.4417-0.08584 0.89357-0.14972 1.2812-0.28125 0.30997-0.10517 0.53066-0.14389 0.78125-0.21875zm-3.9375 10.188c0.04823 0.03062 0.04847-0.01216 0.125 0.0625 0.20015 0.19526 0.22138 0.29418 0.15625 0.1875-0.07642-0.12518-0.18794-0.16733-0.28125-0.25zm4.5 11.406c-0.0411 0.03616-0.18112 0.13011-0.28125 0.21875 0.07367-0.0847 0.15638-0.15635 0.15625-0.15625-0.000111 0.000085 0.06278-0.02813 0.125-0.0625zm-0.564 0.875c-0.01281 0.21455 0.02325 0.278 0.0625 0.34375-0.01336-0.04658-0.06256-0.18801-0.0625-0.1875 0.000031 0.000281-0.0016-0.0788 0-0.15625z"/>
  <path id="path4410" style="opacity:0.08;fill:#fff" d="m64.531 13.75c-2.5442 0.33005-4.1093 2.3245-4.4688 4.375-0.35119 2.0035 0.1426 4.1066 1.2812 5.75 0.02668 0.03851 0.03511 0.08704 0.0625 0.125 0.17156 0.32525 0.21961 0.50457 0.375 0.84375-1.4821-0.01775-2.6351 0.44592-3.375 0.625-0.77482 0.18753-0.98771 0.28607-1.8125-0.4375a1.2942 1.2942 0 0 0 -0.468 -0.282c-1.7268-0.50648-3.4585 0.03727-4.5 1.1562-0.56209 0.60391-0.85783 1.4069-0.96875 2.25-1.157-0.211-2.399-0.333-3.718-0.156-2.087 0.27954-4.2924 1.2446-5.5625 3.3438a1.2942 1.2942 0 0 0 -0.1875 0.625c-0.0071 0.34366-0.01296 0.26967-0.1875 0.375s-0.6312 0.23338-1.2188 0.28125c-0.58755 0.04787-1.275 0.04705-1.9375 0.0625-0.43133 0.01006-0.8995 0.11991-1.3438 0.21875-0.04752-0.0035-0.07849 0.03172-0.125 0.03125-0.19949 0.05407-0.37214-0.02455-0.59375 0.09375v0.03125c-0.62524 0.17176-1.1736 0.48936-1.4688 0.84375-0.22931 0.27534-0.25342 0.41411-0.375 0.625-2.3166 0.27667-4.0688 1.9499-4.7812 3.9375-0.79972 2.2311-0.60997 4.8809 0.96875 6.8125a1.2942 1.2942 0 0 0 0.15625 0.15625c-0.41134 0.32091-0.8459 0.63851-1.1562 0.84375-0.32658 0.21597-0.394 0.2174-0.46875 0.25-0.76816-0.64526-1.6613-1.1143-2.6875-1.2188-0.30133-0.03066-0.62402 0.12011-0.9375 0.15625 0.0037-0.11388 0.06687-0.19637 0.0625-0.3125a1.2942 1.2942 0 0 0 -0.03125 -0.25c-0.238-0.989-0.815-1.797-1.563-2.219-0.748-0.424-1.518-0.489-2.188-0.5-1.338-0.023-2.433 0.031-2.843-0.188a1.2942 1.2942 0 0 0 -0.469 -0.125c-1.1362-0.12727-2.1801 0.28474-3.0312 0.875-0.85116 0.59026-1.557 1.3864-2.0312 2.2812-0.43165 0.81447-0.64356 1.7483-0.46875 2.7188-0.83073 0.23926-1.535 0.67782-2.0938 1.1562-1.1828 1.013-2.1193 2.097-2.6875 2.344a1.2942 1.2942 0 0 0 -0.5625 0.469c-0.6779 1.028-0.7162 2.236-0.4688 3.281 0.24749 1.0453 0.79205 2.0055 1.5 2.75 0.70795 0.74446 1.6243 1.3475 2.7812 1.3125 0.51289-0.01551 0.99266-0.25887 1.4375-0.5625 1.2374 1.869 2.2949 4.1358 2.6875 6.375a1.2942 1.2942 0 0 0 0.09375 0.25c0.3232 0.80304 0.48092 1.9482 0.34375 2.5938-0.06859 0.3228-0.18417 0.50998-0.28125 0.59375s-0.22204 0.17439-0.65625 0.15625a1.2942 1.2942 0 0 0 -1.124 0.531c-1.2923 1.8538-0.74523 4.164 0.5 5.625 1.1308 1.3268 2.9488 2.1598 4.8125 1.75 0.72837 0.22166 1.8022 0.5076 3.0312 0.34375 0.67455-0.08993 1.4262-0.35316 2-0.96875 0.45036-0.48318 0.5801-1.2087 0.6875-1.9375l0.0625 0.03125c0.07685-0.14487 0.01183-0.26469 0.0625-0.40625 0.0034-0.06196 0.06137-0.09344 0.0625-0.15625h-0.03125c0.132-0.442 0.218-0.875 0.218-1.28 1.203 1.1932 2.5869 2.0449 4 2.4688 1.8141 0.5441 3.624 0.69019 5.1562 0.96875a1.2942 1.2942 0 0 0 1.125 -0.375c0.02077-0.02073 0.01197-0.01314 0.03125-0.03125 0.0327 0.04985-0.03639-0.01303 0 0.0625 0.34861 0.72368 0.75346 2.1773 2.0938 3.0938l-0.062 0.062c0.0899 0.08816 0.21882 0.13343 0.3125 0.21875 2.3137 2.1074 5.7068 3.2612 8.875 2.2188 0.7886 0.22327 1.9108 0.63397 3.2188 0.78125 1.4217 0.16009 3.1699-0.05294 4.4062-1.375a1.2942 1.2942 0 0 0 0.25 -0.375c0.09683 0.01418 0.12835 0.01454 0.40625 0.09375 0.73494 0.20947 1.949 0.58487 3.25 0.1875v0.0625c0.21233-0.0059 0.38793-0.12718 0.59375-0.15625 1.4516-0.20505 2.7588-0.83158 3.75-1.75 0.79496-0.73659 1.3534-1.6305 1.6562-2.5938 1.8419-0.1137 3.7568-0.56494 5.4688-1.4375 1.7996-0.91724 3.2774-2.3073 4.125-4.0625 1.587-0.72804 3.1746-1.7547 4.4375-3.1562 1.2021-1.3341 1.9764-3.0655 2.0938-5 1.3182-1.7149 4.3617-4.2953 4.625-8.0625 0.01536-0.21978 0.1305-0.39712 0.125-0.625 0.52647-1.9297-0.53418-3.3457-1.1562-4 2.5404-4.0253 3.3696-9.3255 0.96875-13.688a1.2942 1.2942 0 0 0 -0.46875 -0.5c-0.17156-0.10268-0.24469-0.19279-0.34375-0.65625s-0.12193-1.1886-0.15625-2c-0.03432-0.81145-0.08361-1.7218-0.375-2.6562-0.29139-0.93448-0.88635-1.8961-1.875-2.5625a1.2942 1.2942 0 0 0 -0.032 -0.031c-0.94365-0.59193-1.4186-1.0648-1.75-1.6562-0.33143-0.59143-0.54671-1.4065-0.6875-2.6562-0.25732-2.089-1.454-4.1672-3.2188-5.4688-0.88235-0.65075-1.9788-1.1255-3.1562-1.0625-0.74375 0.03977-1.445 0.38019-2.125 0.84375-0.511-0.661-0.957-1.341-1.656-1.906-1.085-0.879-2.505-1.535-4.125-1.469a1.2942 1.2942 0 0 0 -0.09375 0zm-29.938 37.469c0.1144 0.18274 0.09832 0.44694 0.25 0.59375 0.50734 0.49105 1.1455 0.71707 1.7188 0.8125 0.78406 0.13051 1.422-0.0499 2.0938-0.15625-1.4269 2.4623-2.6042 5.1563-3.5 7.9688-0.34324-0.23639-0.72124-0.41393-1.125-0.5-1.7982-0.38335-3.8685 0.86372-4.4062 3.1875a1.2942 1.2942 0 0 0 -0.03125 0.15625c-0.01775 0.1875-0.03689 0.19778-0.0625 0.3125-0.09374-0.03826 0.02781-0.01-0.21875-0.1875-0.49313-0.35507-1.1147-0.9271-1.7812-1.4688-0.63759-0.51814-1.2882-0.98705-2.125-1.2812l0.032-0.031c-0.61431-0.27914-0.87494-0.55074-0.96875-0.71875-0.0938-0.16801-0.08022-0.24189-0.03125-0.375 0.09795-0.26622 0.69517-0.83558 1.7812-0.875a1.2942 1.2942 0 0 0 0.1875 0c2.0191-0.38952 3.4006-1.7581 4.0625-3.2812 0.46062-1.06 0.56297-2.1659 0.59375-3.25 0.67975-0.06868 1.3164-0.21672 1.875-0.40625 0.66005-0.22394 1.1483-0.36268 1.6562-0.5z"/>
  <path id="path4404" style="opacity:.1;fill:#fff" d="m64.688 15.031c-4.0483 0.52517-4.1397 5.5518-2.2087 8.2278 0.91532 1.6855 2.3493 4.4945-0.58168 2.8206-2.4786-0.11376-3.9559 1.8391-6.1481-0.08417-2.5798-0.75668-4.6562 1.5956-3.6552 3.817-2.5251-0.95587-7.5907-1.1758-9.6255 2.1874-0.05848 2.8343-4.8294 1.5296-6.062 2.1876-0.92272-0.06736-1.4055 1.0386-1.6875 1.5-4.3221-0.18749-6.0247 5.807-3.5938 8.7812 1.1127 0.85081 2.8265 0.37266 3.5312-0.71875 1.2214-1.3313 4.4549-0.1131 1.2623 0.20313-2.9781 0.01248-5.8631 4.1244-7.5332 3.9907-1.0043-1.3689-4.2218-2.1849-4.7603-0.0063-0.2851 0.84362 0.8637 2.1947-0.40625 2.0938-0.65525-0.63237 0.64898-3.3462 0.59375-4.8125-0.70273-2.9274-4.0272-1.0234-5.9688-2.0625-2.8913-0.32386-6.311 4.9394-2.5 5.9062 1.4643-0.33564 0.57461 1.9922-0.41853 0.20085-3.0634-1.6083-4.5713 2.2453-6.7065 3.1741-1.7399 2.638 2.5878 7.8193 4.3438 3.9375 1.7956 2.1659 3.2677 5.2932 3.7932 8.2906 0.81155 2.0164 0.88286 5.1988-1.8557 5.0844-1.8366 2.6347 1.497 6.3668 4.375 5.3125 1.3334 0.41061 4.4602 1.1985 4.5147-1.8223 0.847-1.596-0.966-5.952 1.486-2.991 2.3146 3.2835 6.118 3.3049 9.349 3.8923 2.2498-2.2458 2.0134 2.1877 3.8599 3.1613 2.1194 2.0783 5.5328 3.2537 8.3535 2.0714 1.7448 0.45968 4.8756 1.7144 6.625-0.15625 0.47218-2.0732 3.1033 0.50415 4.7994-0.42291 2.5627-0.07109 5.1386-2.7078 5.0559-4.4234 3.7577 0.09373 8.6267-2.0451 9.762-5.3495 3.0697-1.3338 6.3187-4.0708 6.1953-7.7104 1.5334-2.0909 4.7016-4.6615 4.6193-8.0684 0.88721-1.7587-0.98568-3.3648-1.3885-3.8824 2.7292-3.7312 3.6389-9.0703 1.3629-13.205-2.189-1.31 0.10551-5.9671-2.7972-7.9236-2.107-1.322-2.74-2.625-3.039-5.278-0.407-3.299-4.379-7.587-7.382-4.049-1.2621-1.8878-3.0686-3.9759-5.5625-3.875zm-6.75 13.531c0.066 0.2447 0.11336 0.26028 0 0zm-3.875 7.7812c0.416 1.8116 1.3657 3.5783 0.84375 5.4688-1.6127-1.2492-4.5172-1.3679-1.799-3.218 0.5083-0.65988 0.80728-1.4358 0.95524-2.2508zm-20.438 6.5c0.16719-0.0603-0.03947 0.09757 0 0zm1.625 6.875c0.36963 4.2054 9.1158-1.4255 4.6958 3.1013-2.0812 3.5549-3.9673 7.4209-4.5708 11.524 0.86358-3.5385-3.6664-4.5353-4.4971-0.94618-0.40092 4.2354-3.7573-0.86606-5.9645-1.5715-3.1815-1.4457-1.7431-4.3434 1.2448-4.4518 3.2421-0.62548 3.8607-3.9044 3.6543-6.5617 1.8115 0.4427 3.6361-0.92742 5.4375-1.0938z"/>
  <path id="path4398" style="opacity:.15;fill:#fff" d="m64.75 15.781c-0.76588 0.05558-1.4658 0.48832-1.9688 1.0938-0.60734 0.73116-0.90611 1.6439-0.8125 2.5625 0.10877 1.0676 0.45478 2.0175 1.5938 4.2812 0.61038 1.2132 0.73527 1.5342 0.9375 2.4688 0.2452 1.1331 0.31852 2.2188 0.34375 3.4688-0.26604-0.87066-0.6405-1.6113-1.25-2.125-0.75294-0.63456-1.7789-0.84386-2.8125-0.6875-0.29846 0.04515-0.60503 0.13588-0.90625 0.21875-0.15061 0.04143-0.3058 0.07672-0.4375 0.125-0.06585 0.02414-0.10949 0.05528-0.1875 0.09375s-0.18943 0.01067-0.40625 0.28125c-0.000481 0.0006-0.09804 0.15535-0.125 0.21875s-0.05238 0.11275-0.0625 0.15625c-0.02025 0.08701 0.0017 0.14261 0 0.1875-0.0033 0.08978-0.0051 0.14585 0 0.1875 0.0052 0.04278 0.02493 0.06151 0.03125 0.09375-1.1406-1.0901-2.4311-1.799-3.8125-1.7188-0.32806 0.01905-0.63742 0.08341-0.9375 0.15625-0.15004 0.03642-0.30382 0.07838-0.4375 0.125s-0.22157 0.01034-0.5 0.25c-0.05699 0.04906-0.26549 0.34969-0.3125 0.5625s-0.04439 0.33251-0.03125 0.4375c0.02629 0.20998 0.08848 0.41739 0.1875 0.8125 0.04413 0.1761 0.24582 0.90277 0.3125 1.1562-0.03205 0.01428-0.08247 0.01335-0.125 0.03125-0.15409 0.06487-0.3647 0.16034-0.625 0.28125-0.33604 0.15609-0.97104 0.47508-1.5312 0.75 0.0031-0.17053 0.02268-0.26463-0.0625-0.5625-0.04493-0.15711-0.15565-0.3988-0.3125-0.53125s-0.26455-0.16748-0.3125-0.1875c-0.38749-0.16183-0.43069-0.11146-0.625-0.125-0.19431-0.01355-0.41909-0.0029-0.65625 0-0.48364 0.0059-0.96885 0.03543-1.3125 0.09375-1.7952 0.30473-3.2986 0.95061-4.2188 2.0625-0.52638 0.63607-0.69012 1.4233-0.65625 2.2188-0.07082 0.0081-0.10929 0.02241-0.1875 0.03125-0.64817 0.07325-1.5242 0.17859-2.5 0.28125-1.6036 0.16871-2.4896 0.27671-2.9688 0.34375-0.05162 0.0072-0.15824 0.01715-0.25 0.03125-0.04038 0.0062-0.07035 0.02798-0.09375 0.03125-0.02978 0.0042-0.05135-0.01385-0.125 0-0.0092-0.000102-0.02264 0.000074-0.03125 0-0.01292-0.000111-0.01563-0.000082-0.03125 0-0.0078 0.000041-0.01165-0.000669-0.03125 0-0.0098 0.000334-0.03027-0.0028-0.0625 0-0.01611 0.0014-0.06236-0.000025-0.0625 0-0.000069 0.000012-0.12496 0.03124-0.125 0.03125l-0.09375 0.03125c-0.001 0-0.157 0.094-0.157 0.094l0.531 0.781-0.656-0.656c-0.000131 0.000131-0.21863 0.28099-0.21875 0.28125-0.000117 0.000259-0.02202 0.09089-0.03125 0.125-0.01845 0.06822-0.02775 0.09768-0.03125 0.125-0.007 0.05464 0.000685 0.0736 0 0.09375-0.0014 0.0403-0.000398 0.07448 0 0.09375 0.000797 0.03854-0.000158 0.05886 0 0.0625a0.94441 0.94441 0 0 0 0 0.03125c-0.000043 0.01231-0.000534 0.01323 0 0.03125 0.00064 0.02163-0.0046 0.05608 0 0.09375 0.0031 0.02511-0.0082 0.02482 0 0.0625 0.01027 0.0471 0.06228 0.187 0.0625 0.1875 0.02396 0.12096 0.0838 0.2951 0.125 0.4375-0.36466-0.11687-0.71885-0.38873-1.0938-0.40625-0.97195-0.0454-1.8565 0.3092-2.5312 0.96875-0.01877 0.01833-0.02155 0.05273-0.03125 0.0625-0.27582 0.2762-0.5559 0.56823-0.78125 1.0312-0.31707 0.65147-0.48886 1.3114-0.53125 2.0625-0.05376 0.95224 0.11993 1.9704 0.46875 2.7812l0.093 0.219a0.94441 0.94441 0 0 0 0.875 0.5625h0.375c0.12337 0 0.24409-0.0011 0.40625-0.03125 0.10811-0.02011 0.20896-0.0749 0.3125-0.125 0.03787-0.01609 0.07789-0.06709 0.125-0.09375 0.102-0.05772 0.20144-0.09118 0.28125-0.1875 0.02812-0.03404 0.01049-0.06342 0.03125-0.09375-0.0168 0.01341 0.02562-0.02692 0.03125-0.03125a0.94441 0.94441 0 0 0 0.03125 -0.03125c0.0069-0.01255 0.02519-0.01892 0.03125-0.03125 0.05546-0.05503 0.10871-0.08339 0.15625-0.15625 0.21634-0.33157 0.72894-0.71549 1.375-0.875 0.30721-0.07584 1.3751-0.07412 1.9062 0.03125 1.0254 0.20342 1.8703 0.67332 2.5 1.1875-0.23892 0.04407-0.3921 0.03979-0.65625 0.09375-3.6949 0.75471-6.7126 2.04-8.5938 3.8438-0.21176 0.20306-0.4206 0.44624-0.59375 0.65625-0.08658 0.10501-0.15159 0.18716-0.21875 0.28125-0.03358 0.04705-0.05652 0.09253-0.09375 0.15625-0.01861 0.03186-0.06695 0.06311-0.09375 0.125s-0.0625 0.13571-0.0625 0.40625c0 0.0062-0.0053 0.02984 0 0.09375 0.0026 0.03196 0.03117 0.15593 0.03125 0.15625 0.000041 0.000159 0.06245 0.15613 0.0625 0.15625 0.000054 0.000118 0.12493 0.21867 0.125 0.21875 0.000069 0.00008 0.28116 0.2187 0.28125 0.21875 0.000086 0.000045 0.3124 0.09374 0.3125 0.09375 0.000052 0.000006 0.06471 0.000407 0.125 0s0.12494 0.000008 0.125 0c0.000124-0.000017 0.1561-0.03121 0.15625-0.03125 0.03602-0.0083 0.0789-0.01959 0.125-0.03125 0.0922-0.02332 0.22119-0.05285 0.375-0.09375 0.30761-0.08181 0.73984-0.20439 1.25-0.34375 1.0203-0.27873 2.3709-0.62538 3.7188-1 0.14926-0.04149 0.25744-0.08358 0.40625-0.125-0.1065 0.0946-0.21808 0.20603-0.3125 0.3125-0.04721 0.05324-0.09948 0.09892-0.15625 0.1875s-0.15625 0.17632-0.15625 0.5625c0 0.24373 0.14543 0.5593 0.3125 0.71875 0.16707 0.15946 0.29926 0.21724 0.40625 0.25 0.21399 0.06553 0.32617 0.06085 0.46875 0.0625 0.28517 0.0033 0.63727-0.03733 1.1875-0.09375 0.52315-0.05366 0.90232-0.13787 1.25-0.1875 1.9887-0.28389 3.4212-0.70498 4.5938-1.4688 0.91626-0.59685 1.5728-1.4633 2-2.4375 0.62402 0.32749 1.224 0.51958 1.8125 0.59375-2.3215 0.8239-4.3506 2.2855-6.0312 4.2812-1.5732 1.8682-2.8903 4.2083-4.1562 7.375-0.391 0.9781-1.1855 3.1402-1.4062 3.8438-0.47075 1.5006-0.71658 3.0781-0.78125 4.7812-0.14666-0.36408-0.19667-0.6513-0.40625-1.0938-0.5924-1.2507-0.6631-1.5433-0.75-2.25-0.04128-0.33572-0.05983-0.5842 0-1.0625 0.0085-0.06787 0.02502-0.115 0.03125-0.25 0.0031-0.0675 0.02884-0.15694-0.0625-0.40625-0.04567-0.12466-0.15996-0.30091-0.34375-0.4375s-0.40666-0.1875-0.5625-0.1875c-0.4323 0-0.4859 0.10728-0.5625 0.15625s-0.11087 0.08649-0.15625 0.125c-0.09076 0.07702-0.16866 0.16483-0.25 0.25-0.16268 0.17034-0.32501 0.35071-0.46875 0.5625-0.63167 0.93073-1.0836 2.1889-1.3438 3.6875-0.03731 0.21491-0.01521 0.57064-0.03125 0.78125-0.2-0.237-0.349-0.546-0.593-0.78-0.752-0.722-1.506-1.277-3.656-2.657-1.799-1.154-2.514-1.698-3.157-2.343-0.83956-0.84276-1.0593-1.3145-1.0938-2.0938-0.02968-0.67061 0.001-0.78053 0.40625-1.1875 0.43598-0.43784 0.85067-0.64336 2.5938-1.25 0.96042-0.33425 1.6348-0.61912 2.1875-0.9375 0.55268-0.31838 1.0026-0.74614 1.25-1.25 0.07778-0.15841 0.16586-0.36524 0.1875-0.5625s0.000042-0.32723 0-0.5c-0.000046-0.15489 0.0088-0.26233 0-0.4375-0.008-0.15868-0.0735-0.3805-0.15625-0.5625 0.12778-0.08274 0.26758-0.118 0.34375-0.25 0.14926-0.25868 0.11721-0.31217 0.125-0.375 0.0078-0.06283-0.000835-0.11813 0-0.15625 0.0017-0.07624 0.0036-0.11644 0-0.1875-0.0073-0.14213-0.01332-0.32841-0.03125-0.5-0.03586-0.34318-0.08749-0.67582-0.15625-0.96875-0.319-1.36-1.343-2.371-2.718-2.719-0.245-0.062-0.389-0.127-0.719-0.156a0.94441 0.94441 0 0 0 -0.09375 0h-0.15625a0.94441 0.94441 0 0 0 -0.9375 0.9375v0.125a0.94441 0.94441 0 0 0 0 0.09375c0.04547 0.48763 0.18992 1.086 0.375 1.5938 0.11414 0.31315 0.32768 0.54476 0.5 0.8125-0.34063-0.04814-0.58502-0.16489-0.96875-0.1875a0.94441 0.94441 0 0 0 -0.0625 0h-0.5a0.94441 0.94441 0 0 0 -0.65625 0.25l-1.313 1.28c0.11997-0.63073 0.23169-1.1611 0.375-1.9062 0.25547-1.3284 0.47822-2.5736 0.65625-3.4688 0.08901-0.44758 0.16763-0.80396 0.21875-1.0625 0.02556-0.12927 0.04825-0.23801 0.0625-0.3125 0.0071-0.03724 0.02646-0.06688 0.03125-0.09375 0.0024-0.01344-0.0027-0.01394 0-0.03125 0.0014-0.0087-0.0021-0.0142 0-0.03125s0-0.1243 0-0.125c0-0.09654 0.0092-0.3908-0.21875-0.65625-0.22791-0.26545-0.52222-0.32288-0.65625-0.34375-0.26806-0.04175-0.35167-0.01314-0.5625 0-0.6777 0.04214-1.396 0.21315-2 0.5-0.049 0.02327-0.07726 0.06898-0.125 0.09375-0.0016-0.15142-0.03198-0.40698-0.28125-0.65625-0.000642-0.000641-0.15901-0.15485-0.21875-0.1875s-0.08561-0.0488-0.125-0.0625c-0.07879-0.0274-0.14746-0.02468-0.1875-0.03125-0.08009-0.01313-0.1166 0.001-0.15625 0-0.0793-0.002-0.12527-0.004-0.1875 0-0.12446 0.0081-0.26121 0.01293-0.40625 0.03125-0.29008 0.03665-0.58331 0.09104-0.84375 0.15625-1.2277 0.30742-2.1811 1.2359-2.5938 2.5-0.03251 0.09963-0.06528 0.1844-0.09375 0.28125-0.01423 0.04842-0.01843 0.1034-0.03125 0.15625s-0.03125 0.05346-0.03125 0.28125c0 0.1064-0.02717 0.36093 0.21875 0.65625s0.61425 0.374 0.78125 0.375c0.33399 0.002 0.41982-0.06815 0.625-0.125 0.54795-0.15185 0.92984-0.5249 1.375-0.8125-0.1748 0.42061-0.40112 0.79607-0.5 1.2812-0.17337 0.85075-0.1959 1.887-0.21875 3.5938-0.03074-0.05536-0.06251-0.13153-0.09375-0.1875-0.0137-0.02455-0.04716-0.12077-0.09375-0.21875s-0.04713-0.13107-0.1875-0.34375c-0.36593-0.55442-0.82946-1.0309-1.3438-1.375-0.43838-0.29327-0.87782-0.53125-1.5625-0.53125-1.3239 0-2.265 1.0804-2.625 2.375-0.03936-0.01076-0.08856-0.02399-0.125-0.03125-0.12874-0.02566-0.25167-0.03125-0.40625-0.03125-0.03982 0-0.05767 0.0034-0.125 0-0.067327-0.0034-0.20409-0.05279-0.5 0.0625-0.35119 0.13687-0.5045 0.38412-0.5625 0.5-0.057999 0.11588-0.061698 0.15431-0.0625 0.15625-0.13851 0.33519-0.14591 0.51401-0.1875 0.78125-0.041589 0.26724-0.0625 0.51979-0.0625 0.78125 0 1.0427 0.54243 2.0098 1.4062 2.5938 0.14076 0.09515 0.12196 0.18679 0.59375 0.28125 0.11795 0.02361 0.30175 0.05349 0.53125-0.03125s0.41358-0.30527 0.5-0.46875c0.17284-0.32695 0.12594-0.42836 0.125-0.5-0.0017-0.15341 0.01036-0.17684 0-0.28125s-0.04562-0.25332-0.0625-0.40625c-0.0099-0.08978-0.01972-0.21099-0.03125-0.3125 0.19732 0.15342 0.28714 0.40747 0.53125 0.5 0.31829 0.12071 0.62678 0.14703 1.0938 0.15625 0.01165 0.000229 0.01968-0.000227 0.03125 0 0.25257 0.68336 0.68217 1.5252 1.375 2.6875 0.7513 1.2604 1.2513 2.1993 1.4062 2.625 0.09094 0.2498 1.2446 4.7275 1.3438 5.2812 0.11212 0.62625 0.10048 1.2796 0.09375 1.3125 0.01546-0.0756-0.12819 0.42632-0.25 0.71875-0.21062 0.50561-0.36984 0.93572-0.40625 1.4062-0.02122 0.27425 0.09924 0.52111 0.15625 0.78125-0.22157-0.11132-0.47353-0.19818-0.6875-0.28125-0.11291-0.04383-0.21503-0.09347-0.3125-0.125-0.04873-0.01576-0.10073-0.0172-0.15625-0.03125s-0.07768-0.03125-0.28125-0.03125c-0.18422 0-0.46708 0.07182-0.65625 0.25s-0.25246 0.37752-0.28125 0.5c-0.05759 0.24496-0.04126 0.31611-0.03125 0.40625 0.02003 0.18028 0.04303 0.34469 0.09375 0.59375 0.18871 0.92631 0.65385 1.7924 1.4688 2.2188 0.42137 0.22044 0.82933 0.3186 1.3438 0.40625 0.0922 0.01569 0.17997 0.01957 0.25 0.03125s0.04332 0.01656 0.15625 0.03125c0.31256 0.04103 0.81197-0.19204 0.96875-0.4375 0.11184-0.1751 0.11384-0.27402 0.125-0.375 0.45256 0.37886 0.87364 0.79691 1.4375 1.0312 0.20124 0.08364 0.37263 0.21596 0.84375 0.15625 0.23556-0.02986 0.50993-0.18272 0.65625-0.34375s0.21116-0.28322 0.25-0.375c0.26256-0.62039 0.46697-1.5124 0.5625-2.2812 0.14812-1.1922 0.0066-2.1734-0.5625-4.6875-0.01432-0.06328-0.01725-0.12254-0.03125-0.1875 1.3361 1.0187 1.5138 1.1268 3.125 2.7188 0.63183 0.62429 1.0794 1.0965 1.5 1.4688 0.82066 0.72631 1.4547 1.1428 2.2188 1.4062 0.36562 0.12605 0.72074 0.18695 1.0938 0.1875 0.48183 0.000465 0.99943-0.12842 1.4062-0.46875 0.34188 0.45884 0.76022 0.83987 1.2812 1.0312 0.27214 0.09993 0.42893 0.1226 0.6875 0.125 0.70088 0.007 1.3089-0.38522 1.7188-0.875 0.31233-0.37323 0.48261-0.87116 0.65625-1.375 0.04498 0.22774 0.0064 0.49218 0.0625 0.71875 0.40061 1.6189 1.0246 2.9421 1.875 4.0312 0.18953 0.24275 0.39156 0.47715 0.625 0.71875 0.0034 0.0054 0.02812-0.0049 0.03125 0 0.0058 0.006-0.0058 0.0253 0 0.03125 0.01079 0.01685 0.0312 0.06245 0.03125 0.0625a0.94441 0.94441 0 0 0 0.03125 0c1.1037 1.1066 2.3809 1.8142 3.9062 2.125 0.58978 0.12019 1.2718 0.14925 1.875 0.15625 0.3016 0.0035 0.59467-0.000636 0.84375-0.03125 0.12454-0.01531 0.2389-0.03476 0.40625-0.09375 0.08367-0.02949 0.16637-0.03959 0.3125-0.15625s0.375-0.41355 0.375-0.78125c0-0.000492 0.0043-0.12913 0-0.15625s0.0029-0.04918 0-0.0625c-0.0058-0.02665-0.02777-0.01826-0.03125-0.03125-0.007-0.02597-0.02522-0.04265-0.03125-0.0625 0.24231 0.21943 0.48938 0.63475 0.75 0.8125 0.68211 0.46523 1.4581 0.76313 2.1875 0.875 0.53294 0.08172 1.1732 0.14092 1.8438 0 0.24153-0.05071 0.48828-0.12328 0.6875-0.1875 0.09961-0.03211 0.18545-0.05232 0.28125-0.09375s0.13852 0.01663 0.4375-0.34375a0.94441 0.94441 0 0 0 0.03125 0c0.0004-0.0005 0.15607-0.3742 0.15625-0.375 0.000182-0.000801 0.03216-0.19438 0.03125-0.25-0.0018-0.11124-0.02134-0.14513-0.03125-0.1875-0.01982-0.08475-0.02089-0.12896-0.03125-0.15625-0.02073-0.05457-0.03291-0.06667-0.03125-0.0625a0.94441 0.94441 0 0 0 -0.095 -0.156 0.94441 0.94441 0 0 0 0 -0.03125 0.94441 0.94441 0 0 0 -0.03125 0 0.94441 0.94441 0 0 0 -0.031 -0.031 0.94441 0.94441 0 0 0 0 -0.0625 0.94441 0.94441 0 0 0 -0.03125 -0.0625 0.94441 0.94441 0 0 0 -0.0625 -0.09375c-0.04476-0.08214-0.21512-0.35464-0.28125-0.46875 0.80865 0.41048 1.6239 0.78031 2.4062 1 2.2403 0.62905 4.4822 0.34597 6.1875-0.9375 0.27525-0.20716 0.54341-0.44721 0.75-0.65625 0.10329-0.10452 0.19581-0.17212 0.28125-0.28125 0.04272-0.05456 0.07145-0.12129 0.125-0.21875s0.29083-0.18299 0.09375-0.78125c-0.000043-0.00013-0.09366-0.2186-0.09375-0.21875-0.000094-0.00015-0.0936-0.12483-0.09375-0.125-0.000291-0.00034-0.09809-0.07096-0.125-0.09375-0.05382-0.04557-0.07071-0.079-0.09375-0.09375-0.04608-0.0295-0.07338-0.02062-0.09375-0.03125-0.04074-0.02125-0.06043-0.04722-0.09375-0.0625-0.06665-0.03056-0.14993-0.05107-0.25-0.09375-0.20014-0.08537-0.47078-0.20273-0.8125-0.34375-0.27615-0.11396-0.71551-0.29495-1.0625-0.4375 1.3829 0.14328 2.0368 0.1881 3.1562 0.1875 1.3337-0.000716 2.0164-0.02966 3.0625-0.25 1.7266-0.36371 3.4961-1.2353 4.9688-2.3438 0.28647-0.21563 0.51322-0.3784 0.6875-0.53125 0.08714-0.07642 0.1591-0.14178 0.25-0.25 0.04545-0.05411 0.08945-0.1063 0.15625-0.25s0.22363-0.52494-0.03125-0.9375c-0.00007-0.000113-0.21861-0.21864-0.21875-0.21875-0.000077-0.000063-0.0531-0.03517-0.09375-0.0625 0.57836-0.22072 1.1745-0.38485 1.7188-0.65625 1.3783-0.68731 2.3557-1.3835 3.2812-2.3125 1.143-1.1473 1.8927-2.4642 2-3.8438 0.01311-0.16871 0.05956-0.21773 0-0.53125-0.02978-0.15676-0.15544-0.4775-0.4375-0.65625-0.06223-0.03944-0.07118-0.0091-0.125-0.03125 2.714-1.5348 4.4959-3.783 5.0625-6.7812 0.09311-0.49244 0.15342-1.1121 0.1875-1.625 0.01704-0.25646 0.03505-0.48692 0.03125-0.6875-0.0019-0.10029-0.01011-0.18399-0.03125-0.3125-0.01057-0.06426-0.02858-0.13543-0.09375-0.28125-0.03259-0.07291-0.06034-0.15513-0.1875-0.28125-0.126-0.128-0.402-0.283-0.686-0.283-0.000085 0-0.18736-0.000031-0.1875 0-0.000139 0.000031-0.09356 0.03119-0.09375 0.03125-0.000386 0.000122-0.04764 0.02524-0.0625 0.03125-0.02972 0.01202-0.05147 0.02606-0.0625 0.03125-0.02205 0.01038-0.05-0.0064-0.0625 0-0.02501 0.01282-0.03208 0.04619-0.0625 0.0625-0.06084 0.03263-0.14584 0.06781-0.25 0.125-0.20832 0.11438-0.51205 0.26715-0.875 0.46875-0.11925 0.06624-0.33575 0.17601-0.46875 0.25 2.2938-2.5334 3.8275-5.3945 4.1875-8.5 0.11645-1.005 0.10221-2.472-0.0625-3.4375-0.08755-0.51324-0.23612-1.0979-0.375-1.5938-0.06944-0.24795-0.15017-0.46846-0.21875-0.65625-0.03429-0.0939-0.04373-0.18137-0.09375-0.28125-0.02501-0.04994-0.0661-0.10664-0.125-0.1875s-0.08642-0.24756-0.46875-0.375c-0.000099-0.000033-0.5311-0.000035-0.53125 0-0.000145 0.000035-0.21856 0.0624-0.21875 0.0625-0.000384 0.000207-0.15832 0.10048-0.1875 0.125-0.05836 0.04905-0.04612 0.07597-0.0625 0.09375-0.03276 0.03557-0.04877 0.04532-0.0625 0.0625 0.45543-1.8909 0.59002-3.7195 0.03125-5.4062-0.244-0.739-0.737-1.644-1.156-2.283-0.194-0.296-0.426-0.615-0.625-0.875-0.09951-0.13011-0.1921-0.24283-0.28125-0.34375-0.04457-0.05046-0.08488-0.09236-0.15625-0.15625-0.03569-0.03195-0.06034-0.06751-0.15625-0.125-0.04795-0.02875-0.1029-0.05932-0.21875-0.09375-0.05792-0.01722-0.12332-0.02653-0.21875-0.03125-0.04772-0.0024-0.18701-0.000059-0.1875 0-0.000492 0.000059-0.18706 0.03111-0.1875 0.03125-0.000098 0.000033-0.28112 0.18739-0.28125 0.1875-0.000131 0.00011-0.12484 0.09356-0.125 0.09375-0.000327 0.000373-0.04853 0.07299-0.0625 0.09375-0.02793 0.04152-0.05386 0.0782-0.0625 0.09375-0.01727 0.0311-0.02273 0.04519-0.03125 0.0625-0.01703 0.03462-0.01195 0.05166-0.03125 0.09375 0.009-0.33249 0.03077-0.67363 0-0.96875-0.23077-2.214-0.9343-4.8243-1.8125-6.4688-0.50885-0.95281-1.1203-1.7396-1.9688-2.1562-0.28897-0.14189-0.70132-0.21875-1.0938-0.21875-0.41508 0-0.83829 0.10098-1.1562 0.25-0.49546 0.23221-0.95562 0.63796-1.1875 1.1875-0.09298 0.22036-0.08371 0.51204-0.125 0.75-0.9-1.632-2.112-3.217-3.406-4.062-0.723-0.472-1.488-0.743-2.25-0.688zm-17.875 17.438c0.0111-0.0038 0.03895 0.0064 0.0625 0-0.01765 0.0084-0.05086 0.02587-0.0625 0.03125 0.0064-0.0025-0.01665-0.02559 0-0.03125zm7.1875 0.34375c0.0896 0.32669 0.08537 0.28465 0.1875 0.65625l1.594 5.781-0.344 3.531c-0.0062 0.0613-0.02513 0.09562-0.03125 0.15625-0.38594-0.55725-0.717-1.1662-1.2812-1.5312-0.53298-0.34478-1.1906-0.63835-2.2188-1.0312-0.98174-0.37515-1.3955-0.57698-1.8125-0.84375 1.2654-0.69714 2.3168-1.6948 2.9375-3.1562 0.32832-0.77301 0.54971-1.6876 0.9375-3.4062 0.01398-0.06194 0.01675-0.09291 0.03125-0.15625zm-2.218 11.937c0.02467 0.05759 0.037 0.09672 0.0625 0.15625 0.13781 0.32173 0.2664 0.60971 0.375 0.84375-0.71145-0.01933-1.5101-0.09758-1.9688-0.03125-0.03453 0.005-0.08923 0.02558-0.125 0.03125 0.5006-0.24834 1.0166-0.47048 1.6562-1z"/>
  <g id="g4345" transform="matrix(.70610 0 0 .70610 130.63 20.244)">
   <path id="path4333" style="fill:url(#linearGradient4357)" d="m-93.219-5c-0.70174 0.05093-1.3239 0.399-1.875 1.0625-0.62238 0.74927-0.93515 1.7594-0.84375 2.6562 0.13502 1.3253 0.52701 2.4176 2.125 5.5938 0.87829 1.7457 1.166 2.4449 1.4688 3.8438 0.42751 1.9756 0.59675 3.7063 0.59375 6-0.0032 2.1122-0.1327 3.6502-0.46875 5.6562-0.29504 1.7613-0.8001 3.8791-0.90625 3.8438-0.162-0.054-0.35435-1.6972-0.5-4.0938-0.17149-2.8217-0.31607-3.9504-0.5625-5.0625-0.65564-2.9589-2.1138-4.2095-4.5312-3.8438-0.67827 0.10261-1.7732 0.43541-1.875 0.5625-0.0436 0.05437 0.20036 0.91353 0.875 2.8438 0.53005 1.5166 0.96871 2.785 0.96875 2.8125 0.00013 0.09547-0.38595 0.22495-0.46875 0.15625-0.04265-0.03539-0.42522-0.57956-0.84375-1.1875-0.88323-1.2829-1.3326-1.9068-1.9375-2.625-1.6272-1.9321-3.3892-2.8562-5.2188-2.75-0.66765 0.03877-1.6721 0.25852-1.8438 0.40625-0.11903 0.10246-0.0899 0.27602 2.1875 8.5625l2.3438 8.4688-0.53125 5.1875c-0.28764 2.8608-0.56605 5.2662-0.59375 5.3438-0.0493 0.1379-0.059 0.15625-1 0.15625-0.52915 0-1.6022-0.0384-2.375-0.0937-1.7077-0.12234-3.8367-0.13626-4.5625-0.0313-0.73777 0.10675-1.8106 0.37512-2.8125 0.71875-3.1292 1.0732-5.868 2.9702-8.1562 5.6875-2.1091 2.5046-3.8974 5.6939-5.6562 10.094-0.5279 1.3206-1.6685 4.4862-1.9375 5.3438-0.66555 2.1216-1.0338 4.3736-1.0938 6.8125-0.0533 2.1722 0.11172 3.9596 0.5625 5.7812 0.52879 2.1368 1.3165 3.7917 2.4062 5.1875 0.26089 0.33415 0.54197 0.62928 0.84375 0.9375 0.0104 0.0107 0.0208 0.0206 0.0313 0.0313 0.009 0.01 0.0218 0.0217 0.0313 0.0313 0.006 0.006-0.006 0.0249 0 0.0313 1.4029 1.4066 2.9296 2.2286 4.875 2.625 1.3904 0.28335 3.8125 0.32956 3.8125 0.0625 0-0.0446-0.4207-1.3013-0.9375-2.7812s-0.93732-2.7124-0.9375-2.75c-0.00037-0.0657 0.25943-0.21875 0.375-0.21875 0.0308 0 0.3575 0.45089 0.71875 1 1.4542 2.2105 2.5723 3.4766 3.8438 4.3438 0.75495 0.51491 1.7446 0.9106 2.5312 1.0312 0.48581 0.0745 1.6463 0.0693 2.125-0.0313 0.59097-0.12407 1.1774-0.31874 1.25-0.40625 0.009-0.0114-0.0412-0.0716-0.0625-0.125 0.0103 0.0393-0.0454 0.0625-0.0937 0.0937-0.0621 0.0401-0.14877 0.0937-0.375 0.15625-0.12845 0.0355-0.23844 0.0592-0.375 0.0937 0.0198-0.005 0.0434-0.0263 0.0625-0.0313 0.33517-0.0878 0.6359-0.18988 0.6875-0.21875 0.0543-0.0304-0.29763-0.65861-1-1.7812 0.32996 0.52658 0.78819 1.1929 0.875 1.3438-0.0172 0-0.006 0.0561 0.0313 0.125 0.0369 0.0689 0.0765 0.125 0.0937 0.125 0.0131 0-0.011-0.0474-0.0313-0.0937 0.007 0.0136 0.12404 0.1838 0.125 0.1875-0.10052-0.2518-0.53852-0.99519-1.7188-2.8438-1.9276-3.0191-2.009-3.1473-1.9688-3.1875 0.0136-0.0136 0.34184 0.20661 0.71875 0.5 2.46 1.915 4.9683 3.2655 7.25 3.9062 2.8576 0.80238 5.5502 0.41305 7.5938-1.125 0.64668-0.48671 1.3152-1.1471 1.2812-1.25-0.01558-0.0473-2.3896-1.0552-5.2812-2.25s-5.2678-2.2094-5.2812-2.25c-0.0388-0.11642 2.2426 0.0174 4.7188 0.28125 0.79274 0.0845 2.0822 0.22765 2.875 0.3125 2.5492 0.27286 3.1204 0.31344 4.875 0.3125 1.8627-0.001 2.6785-0.0769 4.0938-0.375 2.2045-0.46438 4.5669-1.5762 6.5-3.0312 0.78703-0.59241 1.1712-0.95647 1.125-1.0312-0.02533-0.041-3.1242-0.0302-9.125 0-6.1777 0.0311-8.9891 0.0118-9.0938-0.0313-0.0173-0.003-0.0526 0.004-0.0625 0-0.0398-0.0644 0.61915-1.866 0.71875-1.9688 0.0285-0.0294 0.25964 0.0447 0.5 0.1875 4.1612 2.4722 13.125 1.8353 19.625-1.4062 1.8652-0.93016 3.0936-1.8078 4.3125-3.0312 1.458-1.4634 2.3184-3.0623 2.4375-4.5938 0.0351-0.45169 0.0192-0.46875-0.09375-0.46875-0.13878 0-2.41 0.62255-3.625 1-0.44807 0.1392-1.5974 0.50712-2.5625 0.8125-6.3038 1.9947-8.9192 2.5298-12.344 2.5938-1.9574 0.0366-3.7126-0.0812-3.6562-0.25 0.06364-0.19092 2.7257-1.1054 4.5312-1.5625 1.5414-0.39022 2.3526-0.55732 5.9375-1.2812 5.2994-1.0702 7.2199-1.5667 9.5625-2.5 4.9406-1.9683 7.7428-5.1755 8.625-9.8438 0.22963-1.2145 0.36615-3.3438 0.21875-3.3438-0.03081 0-2.5667 1.4317-5.6562 3.1562-3.0898 1.7246-5.6501 3.1169-5.6875 3.0938-0.08551-0.0528-0.44835-0.86418-0.40625-0.90625 0.01709-0.0171 0.41292-0.23446 0.90625-0.5 2.3694-1.2754 4.1704-2.6149 6.125-4.5625 3.653-3.6398 5.7908-7.8432 6.3125-12.344 0.14038-1.2115 0.09561-3.4212-0.09375-4.5312-0.22428-1.3148-0.74788-3.2597-0.90625-3.3125-0.03585-0.0119-2.2447 3.175-4.875 7.0625-5.5388 8.1861-5.8314 8.6061-5.875 8.5625-0.09954-0.0995 1.2198-2.4351 3.4375-6.125 0.96007-1.5974 1.9925-3.3267 2.2812-3.8438 0.71049-1.272 1.7117-3.3815 2.0938-4.375 1.3423-3.4903 1.5307-6.4529 0.59375-9.2812-0.27208-0.82131-0.92696-2.1595-1.4375-2.9375-0.50619-0.77133-1.265-1.745-1.3438-1.7188-0.0356 0.01187-1.554 3.5985-3.375 7.9688l-3.3125 7.9375-4.5938 7.8438c-4.5942 7.854-4.796 8.2352-4.8438 8.1875-0.03824-0.0382 0.38166-1.2152 0.8125-2.2812 1.0777-2.6668 2.1846-4.7907 5.2188-10 1.9378-3.327 2.8102-4.8852 3.5938-6.4375 2.4409-4.8357 3.6161-8.7387 3.9062-13 0.0587-0.86609 0.0588-1.2797 0-1.8438-0.30668-2.9421-1.3426-6.6061-2.4375-8.6562-0.63612-1.1911-1.4597-2.1427-2.1875-2.5-0.32935-0.16171-0.43875-0.1875-0.96875-0.1875-0.54631 0-0.64466 0.02292-1.0625 0.21875-1.0197 0.47793-1.3131 1.2276-1.3125 3.1562 0.0003 1.0343 0.07975 1.8429 0.40625 4.1562l0.21875 1.625-0.03125 1.8438c-0.03501 1.8291-0.06126 2.4181-0.25 4.125-0.41512 3.7542-1.433 8.0728-2.9375 12.656-0.56757 1.7291-1.4068 4.136-1.5 4.2812-0.21774 0.33933 0.31949-2.1406 1.4062-6.5938 1.7823-7.3033 2.2074-9.9099 2.2812-13.594 0.05097-2.5493-0.12028-4.3104-0.59385-6.375-0.28388-1.2375-0.39564-1.5605-0.8125-2.4061-1.1686-2.3706-3.2083-4.8802-4.875-5.9688-0.85916-0.56115-1.642-0.80093-2.3438-0.75z"/>
   <path id="path4323" d="m-115.75 14.938c-0.60515 0.0073-1.2526 0.06179-1.625 0.125-2.3442 0.39793-4.2137 1.2608-5.1875 2.4375-0.76254 0.92144-0.97744 2.0738-0.59375 3.1875 0.0507 0.14793 0.0872 0.28775 0.0625 0.3125-0.0247 0.0247-2.3242 0.27112-5.0938 0.5625-2.2608 0.23785-3.4998 0.40815-4.1562 0.5-0.0888 0.0124-0.5232 0.0551-0.5625 0.0625-0.0261 0.005-0.37249 0.0287-0.375 0.0313-0.006 0.006 0.0302 0.0996 0.0313 0.125 0.002 0.0365-0.007 0.0559 0 0.0625 0.0251 0.2065 0.12314 0.65051 0.375 1.5312 0.44575 1.558 0.53765 1.875 0.46875 1.875-0.0151 0-0.24774-0.1628-0.5-0.34375-1.0423-0.7477-1.986-1.1089-3-1.1562-1.1196-0.0523-1.828 0.25224-2.625 1.0312-0.0172 0.0168-0.0452 0.0139-0.0625 0.0313-0.39978 0.40032-0.55043 0.58654-0.8125 1.125-0.38185 0.78456-0.5728 1.4813-0.625 2.4062-0.061 1.0804 0.17689 2.4474 0.5625 3.3438l0.125 0.3125h0.53125c0.3303 0 0.44513 0.005 0.5625-0.0937h-0.0625c0.0231-0.0152 0.0629-0.0253 0.0937-0.0625 0.0427-0.0517 0.0485-0.0937 0.0313-0.0937l0.125-0.21875c0.074-0.11331 0.16894-0.20899 0.25-0.3125-0.0918 0.12036-0.16975 0.24194-0.25 0.375l-0.15625 0.25c0.075-0.08 0.17634-0.16631 0.3125-0.375 0.54896-0.84138 1.5367-1.4894 2.7188-1.7812 0.8044-0.19858 2.2832-0.19799 3.2812 0 3.5964 0.71343 6.2921 3.1547 6.1562 5.5938-0.0362 0.65037-0.2671 1.0768-0.84375 1.6562-0.48068 0.48301-1.1087 0.91121-2.1875 1.5-0.37913 0.20692-1.0099 0.5642-1.4062 0.78125-0.39637 0.21705-0.96184 0.55918-1.25 0.75-0.57094 0.3781-1.2812 1.0059-1.2812 1.1562 0 0.12954 0.35434 0.12462 1.875-0.0313 0.65221-0.0669 1.1878-0.16975 1.75-0.25 2.7268-0.38926 4.5465-0.91729 5.9688-1.8438 1.3518-0.88058 2.3684-2.2788 2.75-3.75 0.0619-0.23879 0.11895-0.40625 0.15625-0.40625s0.2839 0.12732 0.53125 0.28125c1.6053 0.99903 2.9254 1.359 4.0312 1.125 0.98834-0.20912 1.9396-0.8042 3.6875-2.3125 0.4635-0.39996 0.86605-0.75 0.90625-0.75s0.40438 0.79722 0.8125 1.75 0.79055 1.78 0.84375 1.8438c0.0937 0.11214 0.1701 0.12346 1.6562-0.125 0.84445-0.14118 1.5598-0.31161 1.5938-0.34375 0.0868-0.082-0.2362-1.1758-0.53125-1.875-0.47544-1.1267-1.2957-2.1437-2.2812-2.7812-0.59067-0.3821-1.4781-0.79803-2.9062-1.3438-1.5548-0.59412-2.3584-0.97604-3.0938-1.4688-0.72849-0.4881-1.4332-1.135-1.3438-1.2188 0.0345-0.0323 0.28676-0.12307 0.5625-0.21875 2.1963-0.76212 3.7005-2.2074 4.6875-4.5312 0.40613-0.95622 0.73627-2.1784 1.2812-4.5938 0.24726-1.0958 0.56754-2.3333 0.6875-2.75 0.11999-0.41668 0.2058-0.79614 0.1875-0.84375-0.002-0.0054-0.0734 0.02682-0.0937 0.03125-0.21834 0.04752-1.4688 0.62493-4.5312 2.1562-2.5204 1.2603-4.623 2.2924-4.6562 2.2812-0.0333-0.0111 0.77086-0.74104 1.7812-1.625 1.0104-0.88396 1.9224-1.6769 2-1.75 0.0499-0.04702 0.0414-0.09447 0.0625-0.15625 0.0316-0.09267 0.0625-0.21781 0.0625-0.5 0-0.5209-0.0187-0.5545-0.1875-0.625-0.1367-0.05709-0.6761-0.06978-1.2812-0.0625z"/>
   <path id="path4223" style="fill:#f00" d="m-126.62 34.219c-0.49727 0.0386-1.5415 0.20981-2.6562 0.4375-5.075 1.0366-9.1357 2.8267-11.5 5.0938-0.47774 0.45809-1.125 1.2197-1.125 1.3125 0 0.021 0.0194 0.0303 0.0625 0.0313 0.18406 0.004 15.248-4.2051 15.438-4.3125-0.018 0-3.3906 0.92787-7.5 2.0625s-7.5554 2.0685-7.6562 2.0938c-0.004-0.004-0.0188 0.005-0.0313 0-0.0339-0.0136-0.0676-0.009-0.0937 0 0.008 0.0113 0.0162 0.0331 0.0625 0.0313l-0.125 0.0313 0.0625-0.0625 0.0937-0.15625c0.0124 0 0.0625-0.0309 0.0937-0.0625l-0.1875 0.21875 0.21875-0.0625c0.11964-0.0236 3.5406-0.9655 7.625-2.0938l7.4375-2.0312c-0.00045 0.0007 0.00045 0.0313 0 0.0313 0.00072-0.00041 0.0622 0.00029 0.0625 0 0.11728-0.11762 0.11709-2.4655 0-2.5625-0.0228-0.0189-0.11549-0.0129-0.28125 0z"/>
   <path id="path4217" style="fill-opacity:.48235" d="m-158.72 34.781c-0.0582-0.0581-1.2606 0.0962-1.75 0.21875-1.3906 0.34821-2.2265 1.1796-2.7188 2.6875-0.0883 0.2706-0.15625 0.52922-0.15625 0.59375 0 0.14672 0.0492 0.1509 0.59375 0 1.1339-0.31422 2.0276-0.84435 2.75-1.5938 0.591-0.61313 1.3941-1.7934 1.2812-1.9062z"/>
   <path id="path4209" style="fill:#240000;fill-opacity:.87843" d="m-154.31 35.281c-0.74609 0.0464-1.7077 0.27527-2.3125 0.5625-1.726 0.81965-2.74 2.3072-3.2188 4.6562-0.28011 1.3745-0.32735 2.1279-0.34375 5.7812-0.009 1.9059-0.0377 3.4757-0.0625 3.5s-0.11474-0.0356-0.21875-0.15625c-0.38961-0.45189-0.89025-1.2575-1.5938-2.6562-0.25913-0.51521-0.46831-0.85723-0.6875-1.25-0.11807-0.21158-0.2821-0.59409-0.34375-0.6875-0.38174-0.57838-1.085-1.3056-1.5625-1.625-0.40834-0.27318-1.0242-0.5-1.4375-0.5-1.1936 0-2.2458 1.0935-2.5625 2.6562-0.30433 1.5019 0.28778 2.7474 1.5312 3.2188 0.20356 0.0772 0.51917 0.11303 1.125 0.125 0.46161 0.009 0.88215 0.0347 0.90625 0.0625s0.12415 0.28676 0.21875 0.5625c0.27666 0.8066 0.94767 2.1308 1.9688 3.8438 1.0789 1.81 1.7678 3.1279 2.0625 3.9375 0.316 0.86805 1.7984 6.5928 2 7.7188 0.17541 0.97978 0.2211 1.8742 0.125 2.3438-0.0423 0.2068-0.23588 0.79723-0.4375 1.2812-0.55938 1.3429-0.6017 1.8461-0.21875 2.9062 0.7618 2.109 2.1016 3.5418 4.0312 4.3438 0.48816 0.20288 0.5702 0.21465 0.6875-0.0625 0.26277-0.62089 0.60257-1.9712 0.71875-2.9062 0.1902-1.5308 0.0505-2.6198-0.75-6.1562-0.37037-1.6362-0.66131-3.625-0.53125-3.625 0.0303 0.00004 0.27293 0.16386 0.53125 0.375s1.1133 0.89548 1.9062 1.5c2.0694 1.5777 2.3257 1.7914 4.6875 4.125 0.89253 0.88187 1.5376 1.4766 2.0938 1.9688 1.106 0.97886 1.7673 1.4015 2.6875 1.7188 0.49581 0.17093 0.70061 0.21812 1.125 0.21875 1.0358 0.001 1.5078-0.43173 1.5625-1.4375 0.0386-0.70995-0.17809-1.527-0.75-2.6875-0.55922-1.1347-1.0075-1.7298-1.875-2.5625-1.0095-0.96905-1.9462-1.6547-4.9688-3.5938-2.5734-1.6509-3.7205-2.4979-4.7188-3.5-1.3156-1.3207-1.8744-2.4164-1.9375-3.8438-0.052-1.175 0.2404-1.9246 1-2.6875 0.77881-0.78214 1.6383-1.2174 4.1562-2.0938 2.6604-0.92589 3.6524-1.5076 4.0938-2.4062 0.15358-0.31278 0.15638-0.41302 0.15625-0.9375-0.00015-0.504 0.00022-0.63626-0.125-0.875-0.57961-1.105-2.324-1.7706-5.1562-1.9375l-0.71875-0.0313-2.4062 2.4062c-1.3223 1.3206-2.4176 2.3636-2.4375 2.3438-0.0199-0.0199 0.55592-3.1035 1.2812-6.875 0.72532-3.7715 1.3438-6.9049 1.3438-6.9688 0-0.10758-0.0584-0.12901-0.625-0.0937z"/>
   <path id="path4147" style="fill-opacity:.48235" d="m-149.22 39.688 0.0313 0.21875c0.0393 0.42143 0.26001 1.4193 0.4375 1.9062 0.56027 1.5371 1.5323 2.478 3.125 3 0.37851 0.12405 0.55235 0.13425 0.59375 0.0625 0.0592-0.10259-0.0952-1.5674-0.21875-2.0938-0.36618-1.5597-1.3038-2.5008-2.9062-2.9062-0.31261-0.0791-0.67463-0.14414-0.8125-0.15625l-0.25-0.0313z"/>
   <path id="path4099" style="fill-opacity:.48235" d="m-170.97 46.188c-0.0657 0.0256-0.0832 0.0863-0.125 0.1875-0.113 0.27347-0.28125 1.3152-0.28125 1.7188 0 1.0613 0.48448 1.9394 1.4062 2.5625 0.35695 0.24128 0.40825 0.24638 0.40625 0.0937-0.003-0.27215-0.49595-4.4429-0.53125-4.5-0.0218-0.0353-0.22776-0.0625-0.46875-0.0625-0.21767 0-0.34053-0.0256-0.40625 0z"/>
   <path id="path4027" style="fill-opacity:.48235" d="m-137.53 59.969c-0.10793 0-0.67024 0.57495-0.9375 0.96875-0.73699 1.0859-1.3116 2.7021-1.6562 4.6875-0.12234 0.70458-0.123 1.0335-0.125 2.5625-0.002 1.9328 0.0407 2.3703 0.40625 3.4688 0.40281 1.2105 1.0712 2.0172 1.875 2.3125 0.12882 0.0473 0.35892 0.0921 0.53125 0.0937 1.0091 0.01 1.9432-1.1102 2.375-2.8125 0.36712-1.4472 0.0929-2.665-1.25-5.5-0.85945-1.8145-1.0841-2.5303-1.2188-3.625-0.0651-0.52951-0.0674-1.0547 0.0313-1.8438 0.0276-0.22108 0.0147-0.3125-0.0313-0.3125z"/>
   <path id="path3937" style="fill-opacity:.48235" d="m-162.78 71.875c-0.0841 0-0.0793 0.17879 0.0625 0.875 0.23134 1.1356 0.6423 1.8191 1.4062 2.2188 0.46923 0.24548 0.7653 0.31765 1.4688 0.4375 0.2585 0.044 0.50435 0.0902 0.53125 0.0937 0.1836 0.0241 0.0365-0.71138-0.28125-1.375-0.29389-0.61387-0.99444-1.2855-1.7188-1.6562-0.52708-0.26981-1.3439-0.59375-1.4688-0.59375z"/>
   <path id="path4343" style="fill:#f00" d="m-129.25 25.511s1.3913-0.97005 2.6488-0.91895c1.4656 0.05956 2.4325 1.3514 2.4325 1.3514-3.2434 2.0001-5.0813-0.43245-5.0813-0.43245z"/>
  </g>
 </g>
</svg>
