<?xml version="1.0" encoding="UTF-8" standalone="no"?>
<!-- Created with Inkscape (http://www.inkscape.org/) -->
<svg id="svg2408" xmlns:rdf="http://www.w3.org/1999/02/22-rdf-syntax-ns#" xmlns="http://www.w3.org/2000/svg" height="96" width="96" version="1.0" xmlns:cc="http://creativecommons.org/ns#" xmlns:xlink="http://www.w3.org/1999/xlink" xmlns:dc="http://purl.org/dc/elements/1.1/">
 <defs id="defs2410">
  <linearGradient id="linearGradient4384">
   <stop id="stop4386" style="stop-color:#fff" offset="0"/>
   <stop id="stop4388" style="stop-color:#fff;stop-opacity:0" offset="1"/>
  </linearGradient>
  <linearGradient id="ButtonShadow" y2="7.0165" gradientUnits="userSpaceOnUse" x2="45.448" gradientTransform="scale(1.0059 .99417)" y1="92.54" x1="45.448">
   <stop id="stop3750" offset="0"/>
   <stop id="stop3752" style="stop-opacity:.58824" offset="1"/>
  </linearGradient>
  <filter id="filter3174" color-interpolation-filters="sRGB">
   <feGaussianBlur id="feGaussianBlur3176" stdDeviation="1.71"/>
  </filter>
  <filter id="filter3794" height="1.384" width="1.384" color-interpolation-filters="sRGB" y="-.192" x="-.192">
   <feGaussianBlur id="feGaussianBlur3796" stdDeviation="5.28"/>
  </filter>
  <linearGradient id="linearGradient3613" y2="138.66" gradientUnits="userSpaceOnUse" x2="48" y1="20.221" x1="48">
   <stop id="stop3739" style="stop-color:#fff" offset="0"/>
   <stop id="stop3741" style="stop-color:#fff;stop-opacity:0" offset="1"/>
  </linearGradient>
  <linearGradient id="linearGradient3617" y2="5.9877" gradientUnits="userSpaceOnUse" x2="48" y1="90" x1="48">
   <stop id="stop3702-0-2" style="stop-color:#156ab9" offset="0"/>
   <stop id="stop3704-4-9" style="stop-color:#5ba1e4" offset="1"/>
  </linearGradient>
  <linearGradient id="ButtonShadow-0" y2="7.0165" gradientUnits="userSpaceOnUse" x2="45.448" gradientTransform="matrix(1.0059 0 0 .99417 100 0)" y1="92.54" x1="45.448">
   <stop id="stop3750-8" offset="0"/>
   <stop id="stop3752-5" style="stop-opacity:.58824" offset="1"/>
  </linearGradient>
  <linearGradient id="linearGradient3780" y2="90.239" xlink:href="#ButtonShadow-0" gradientUnits="userSpaceOnUse" x2="32.251" gradientTransform="matrix(1.0238 0 0 1.0119 -1.1429 -98.071)" y1="6.1317" x1="32.251"/>
  <linearGradient id="linearGradient3721" y2="90.239" xlink:href="#ButtonShadow-0" gradientUnits="userSpaceOnUse" x2="32.251" gradientTransform="translate(0,-97)" y1="6.1317" x1="32.251"/>
  <clipPath id="clipPath4355">
   <rect id="rect4357" style="fill:#fff" rx="6" ry="6" height="80" width="84" y="6" x="6"/>
  </clipPath>
  <radialGradient id="radialGradient4375" gradientUnits="userSpaceOnUse" cy="87.792" cx="48" gradientTransform="matrix(1 -6.7115e-8 8.4282e-8 1.2558 110 -24.506)" r="42">
   <stop id="stop4369" style="stop-color:#fff;stop-opacity:.71756" offset="0"/>
   <stop id="stop4371" style="stop-color:#fff" offset="1"/>
  </radialGradient>
  <linearGradient id="linearGradient4390" y2="-40" xlink:href="#linearGradient4384" gradientUnits="userSpaceOnUse" x2="48" gradientTransform="matrix(1,0,0,-1,0,92)" y1="88" x1="48"/>
  <linearGradient id="linearGradient4429" y2="82.455" xlink:href="#linearGradient4384" spreadMethod="reflect" gradientUnits="userSpaceOnUse" x2="112.12" y1="82" x1="48"/>
  <linearGradient id="linearGradient3870" y2="1033.4" spreadMethod="reflect" gradientUnits="userSpaceOnUse" x2="50" gradientTransform="translate(-2 -956.36)" y1="1033.4" x1="8">
   <stop id="stop3845" style="stop-color:#523823" offset="0"/>
   <stop id="stop3847" style="stop-color:#79563a" offset=".11780"/>
   <stop id="stop3849" style="stop-color:#875c38" offset=".23810"/>
   <stop id="stop3851" style="stop-color:#a66e40" offset="1"/>
  </linearGradient>
  <radialGradient id="radialGradient5232-9" gradientUnits="userSpaceOnUse" cy="61.949" cx="63.98" gradientTransform="matrix(1.09 0 0 .79743 -21.739 -4.8998)" r="58.02">
   <stop id="stop4134" style="stop-color:#7bb8f0" offset="0"/>
   <stop id="stop4136" style="stop-color:#b5d5f2;stop-opacity:.12214" offset="1"/>
  </radialGradient>
  <linearGradient id="linearGradient4578-3" y2="40" gradientUnits="userSpaceOnUse" x2="69" y1="40" x1="59">
   <stop id="stop5934-3-2-9-4" style="stop-color:#ff7c53" offset="0"/>
   <stop id="stop5940-1-4-5-4" style="stop-color:#f21919" offset=".5"/>
   <stop id="stop5942-5-4-7-3" style="stop-color:#db1414" offset=".5"/>
   <stop id="stop5936-2-5-0-9" style="stop-color:#9b1818" offset="1"/>
  </linearGradient>
  <linearGradient id="linearGradient4580-7" y2="88" gradientUnits="userSpaceOnUse" x2="69" y1="88" x1="59">
   <stop id="stop5946-9-5-0-5" style="stop-color:#f0f0f0" offset="0"/>
   <stop id="stop5952-4-9-7-8" style="stop-color:#e6e6e6" offset=".5"/>
   <stop id="stop5954-4-7-2-9" style="stop-color:#d2d2d2" offset=".5"/>
   <stop id="stop5948-6-2-1-0" style="stop-color:#bebebe" offset="1"/>
  </linearGradient>
  <radialGradient id="radialGradient4582-2" gradientUnits="userSpaceOnUse" cy="63.28" cx="63.335" gradientTransform="matrix(0.644 -.0000014509 .0000014509 0.644 22.699 22.756)" r="1.7404">
   <stop id="stop5962-7-7-5-7" style="stop-color:#c1c1c1" offset="0"/>
   <stop id="stop5964-4-1-8-6" style="stop-color:#3f3f3f" offset="1"/>
  </radialGradient>
 </defs>
 <metadata id="metadata2413">
  <rdf:RDF>
   <cc:Work rdf:about="">
    <dc:format>image/svg+xml</dc:format>
    <dc:type rdf:resource="http://purl.org/dc/dcmitype/StillImage"/>
    <dc:title/>
   </cc:Work>
  </rdf:RDF>
 </metadata>
 <g id="layer2" style="display:none">
  <rect id="rect3745" style="opacity:.9;filter:url(#filter3174);fill:url(#ButtonShadow)" rx="6" ry="6" height="85" width="86" y="7" x="5"/>
 </g>
 <g id="layer3">
  <path id="path3786" style="opacity:0.08;fill:url(#linearGradient3780)" d="m12-95.031c-5.5111 0-10.031 4.5202-10.031 10.031v71c0 5.5111 4.5202 10.031 10.031 10.031h72c5.5111 0 10.031-4.5202 10.031-10.031v-71c0-5.5111-4.5202-10.031-10.031-10.031h-72z" transform="scale(1,-1)"/>
  <path id="path3778" style="opacity:.1;fill:url(#linearGradient3780)" d="m12-94.031c-4.9716 0-9.0312 4.0596-9.0312 9.0312v71c0 4.9716 4.0596 9.0312 9.0312 9.0312h72c4.9716 0 9.0312-4.0596 9.0312-9.0312v-71c0-4.9716-4.0596-9.0312-9.0312-9.0312h-72z" transform="scale(1,-1)"/>
  <path id="path3770" style="opacity:.2;fill:url(#linearGradient3780)" d="m12-93c-4.4091 0-8 3.5909-8 8v71c0 4.4091 3.5909 8 8 8h72c4.4091 0 8-3.5909 8-8v-71c0-4.4091-3.5909-8-8-8h-72z" transform="scale(1,-1)"/>
  <rect id="rect3723" style="opacity:.3;fill:url(#linearGradient3780)" transform="scale(1,-1)" rx="7" ry="7" height="85" width="86" y="-92" x="5"/>
  <rect id="rect3716" style="opacity:.45;fill:url(#linearGradient3721)" transform="scale(1,-1)" rx="6" ry="6" height="84" width="84" y="-91" x="6"/>
 </g>
 <g id="layer4">
  <rect id="rect2841" style="color:#000000;fill:url(#linearGradient3870)" rx="6" ry="6" height="26" width="84" y="64" x="6"/>
  <path id="rect4345" style="opacity:.1;color:#000000" d="m6 82v2c0 3.324 2.676 6 6 6h72c3.324 0 6-2.676 6-6v-2c0 3.324-2.676 6-6 6h-72c-3.324 0-6-2.676-6-6z"/>
  <path id="rect4336" style="opacity:.1;color:#000000" d="m6 83v1c0 3.324 2.676 6 6 6h72c3.324 0 6-2.676 6-6v-1c0 3.324-2.676 6-6 6h-72c-3.324 0-6-2.676-6-6z"/>
  <path id="path4412" style="opacity:.2" d="m6 80v1c0 3.324 2.676 6 6 6h72c3.324 0 6-2.676 6-6v-1c0 3.324-2.676 6-6 6h-72c-3.324 0-6-2.676-6-6z"/>
 </g>
 <g id="layer1">
  <rect id="rect2419" style="fill:url(#linearGradient3617)" rx="6" ry="6" height="80" width="84" y="6" x="6"/>
  <path id="rect4359" style="opacity:.2;fill:url(#radialGradient4375)" d="m120.78 6.125c-2.74 0.5576-4.78 2.9665-4.78 5.875v68c0 3.324 2.676 6 6 6h72c3.324 0 6-2.676 6-6v-68c0-2.9085-2.0422-5.3174-4.7812-5.875 2.2051 0.53621 3.8125 2.4908 3.8125 4.875v68c0 2.8049-2.2264 5.0312-5.0312 5.0312h-72c-2.8049 0-5.0312-2.2264-5.0312-5.0312v-68c0-2.3842 1.6074-4.3388 3.8125-4.875z"/>
  <path id="rect4377" style="opacity:.3;fill:url(#linearGradient4390)" d="m12 86c-3.324 0-6-2.676-6-6v-68c0-3.324 2.676-6 6-6h72c3.324 0 6 2.676 6 6v68c0 3.324-2.676 6-6 6zm0-0.96875h72c2.8049 0 5.0312-2.2264 5.0312-5.0312v-68c0-2.8049-2.226-5.0312-5.031-5.0312h-72c-2.8049 0-5.0312 2.2263-5.0312 5.0312v68c0 2.8049 2.2264 5.0312 5.0312 5.0312z"/>
  <path id="path3522-9" style="opacity:.8;fill:url(#radialGradient5232-9)" d="m36.274 6.0914c1.6501 2.1022 0.11259 5.6126 2.6015 5.5778 1.2119 1.6255-2.4154 0.48488 0.2036 1.7377 1.5061 1.1253-1.5934 1.7682 0.27178 2.778-2.1497 1.0523 0.34844 5.5042 1.9451 6.6183 2.628 2.0988 1.1622-4.4437 4.0945-4.784 1.5934-1.7257 4.3918-2.8335 6.3793-4.5695-1.9423-0.14959-3.0765-1.2965-1.237-2.007 3.3854 3.2911 0.8489-1.5586-1.0251-2.3265 1.8134-0.54724 3.577-0.1465 3.3254-1.5661 1.9163-1.3301-1.8423-1.7595-3.1839-1.4588h-13.375zm-27.802 1.373c-2.4497 0.6622-2.6206 6.2166-0.1583 3.1326 0.6043-1.2668 3.3973-2.793 0.1583-3.1326zm11.446 0.19308c-1.4123 2.1009 0.20491 3.7853 1.3799 1.2228 0.83171-1.0701-0.61793-1.1836-1.3799-1.2228zm3.529 0.47196c-2.7288 1.1999-0.6726 3.9978-0.60506 4.6201 2.8746 0.94344 4.4732-0.61684 5.5607 2.0498 2.7352 1.4955-0.0538 4.0941-1.0805 4.7708 1.8493-1.528 5.4042 4.1542 4.4723 1.1522-1.1118-0.77013 2.9852 1.2372 0.85962-1.2657-1.9561-2.9898 0.15527-1.3385 0.97995-0.64071 2.8049-2.3861-3.1736-2.6745-1.6812-5.1301-1.308-1.004-3.023-4.0482-5.339-3.453-1.55 1.902-0.214-4.1444-2.488-1.1188-0.118 1.6918-0.043 3.8378-0.706 0.9078-0.44407-0.51294 0.764-1.7054 0.0273-1.8912zm-5.5649 0.02145c-1.831 0.5792-1.733 2.927 0.52 3.179 0.771-0.835 0.306-3.0211-0.519-3.1791zm-7.1484 0.75085c-2.3791 0.53475-1.408 2.3546-0.67957 2.8671-2.9449 0.6998 4.4957 0.89441 0.79268 1.3376-3.0808 1.1673 2.9667 2.5425 3.9588 1.1585 3.8044 0.88266 0.13691-2.8892-0.19704-4.9338-1.6128-1.642-0.06365 3.7853-1.5219 0.17488-0.50879 1.0721-2.1265 0.15799-2.353-0.60433zm75.601 0.23598c-3.1924 1.1853 1.9842 5.6582 0.69765 1.5889-0.12817-0.49136 0.28819-1.7896-0.69765-1.5889zm-66.665 1.8022c-2.2941 2.0453 2.916 3.7367-0.65889 5.2604-0.53602-1.8995-1.4583 0.95034-3.5035-0.58363-3.5159 1.3888-5.3139-0.72342-8.2575-2.1713-1.768-0.20879-1.1038 1.5937-1.2209 3.2814v13.993c1.7335 1.7302 0.67633 0.76339 0 0.28616 0.95147 3.0742-0.41957 7.568 3.3309 9.3562 0.63756 1.1219 3.3129 5.9016 3.4362 4.4715-1.3412-1.3325-2.7174-5.3272-0.4479-1.7668 2.0328 3.3844 4.7748 5.5796 8.7805 6.385 2.1901 0.70673 3.9912 3.1361 5.9171 2.6016 1.089 2.7236-3.2274 5.3391 0.14491 7.8794 1.7605 2.5717 4.7162 4.2584 3.116 7.8689-1.1191 3.5262-0.63993 7.3684-1.6078 10.654-0.30039 1.9998 2.938 7.0756 2.6575 3.0111 0.94557-2.8245 0.92064-5.9325 3.1476-7.9327 3.0471 0.02289 0.58237-3.1084 3.607-2.6994 1.8456-2.2951 2.3802-5.033 5.4949-5.9443 0.37205-2.7859 5.1788-7.0524 0.21314-8.1371-1.3496-0.63107-4.8245-0.858-4.5589-1.1694 0.53803-2.7643-4.4935-3.5513-6.6342-4.6822-2.8108-1.8927-7.0342 3.1443-8.0245-1.1959-0.59088-1.3656-2.7513-1.3877-1.7584-3.4948-1.7894 1.6884-5.2893 1.1752-4.373-2.0853 1.3916-2.746 6.7356-2.8759 7.6463 0.42702-1.2644-3.6428 2.4439-6.4785 4.5025-9.0702 0.41916-1.2387 2.9097-2.303 2.0527-0.65665 1.4602-0.04997 3.6733-2.5498 1.0794-1.396-0.0367-2.2797-2.273-1.6314-2.998-1.3077 1.3438-2.0234 8.245-0.91717 5.3551-4.2245-2.2393-0.86079-2.053-5.8839-4.318-3.0855 0.1906-1.7242-4.61-5.0994-4.5052-2.208 0.58599 2.5872 0.10714 5.5676-1.1399 7.2635-0.26025-3.7911-7.0757-2.9532-6.1994-6.9931 1.2695-1.9254 2.7529-4.588 2.8942-4.3485 2.275-0.82405 4.1046-3.2211 1.4678-4.7968-0.14092 1.3734-1.983 4.207-1.7237 0.77985-1.7058 1.9187-1.3162-3.0531-2.9138-3.5687zm54.45 1.3301c-3.9959 0.92733-5.5801 4.5481-7.5568 7.5471-2.9139 1.2463-2.8029 6.5989 0.45241 4.8893 0.87128 1.4436-0.60951 3.7191 1.9283 1.8315 2.047-2.5699 0.35794-6.7264 3.8414-8.3468 0.25374 1.26-3.2133 5.965 0.83699 5.1916 3.6616 0.13107-2.6618 0.34612-0.88099 2.565-1.8503-1.0415-0.88884 2.8444-3.304 1.9401-2.0923 1.0797-3.4643-0.50132-2.985-2.2333-1.646 0.91095 0.5177 3.4808-2.3396 3.6353-0.64005 2.1562-5.9034 1.8312-2.9102 4.0268 1.3289 3.2674-4.9515 0.20483-3.1685 4.1258 1.5254 3.8772 4.7224-1.2847 6.0194-2.282 2.5025-1.8416 6.2107 3.14 3.9588 3.3252 2.5251-0.3214 2.0062-2.5996-0.0169-3.4817-1.0927-2.6885 3.459 1.3185 3.2066 2.6664 1.606 2.8529 0.94462-2.921 2.5788-0.3647-0.1908 2.6965 6.5742 0.63402 3.3444 4.0707-2.7769 0.53061-5.5101-0.67915-7.9008 0.09571-2.2251-0.01868-2.1135-2.2741-2.9236-2.8389-2.8304 0.21816-6.3279 0.19349-8.2228 2.3627-2.049 2.6671-5.0038 6.3954-2.7705 9.8009 2.2349 5.0466 7.7772 0.26177 10.963 3.2422 0.94693 1.2427-0.8206 2.7199 1.2967 4.0659 0.79672 2.8673-0.90448 5.5898 1.0523 8.3309 1.0118 2.5778 1.6398 6.4361 5.4058 4.0805 3.9858-2.2755 2.9242-6.4702 6.2129-8.7936-2.6023-4.7778 3.1836-6.8727 4.6272-10.751-3.154 0.43805-5.9638-2.5451-6.7258-5.5477-1.3249-1.4584-0.98368-3.6089 0.49633-0.86913 2.0343 1.87 2.0782 7.4189 5.8413 4.5644 1.7204-0.68265 6.4186-3.2867 2.6751-4.4717-2.413 1.6581-5.0752-4.9544-1.5318-1.119 2.576 1.0368 4.38 1.6546 4.38-1.783v-27.973c-0.8024 0.77791-2.8638 2.2146-3.9043 1.2599-1.7904 0.23652-4.1539 3.5414-3.5912 0.34665-1.5562-0.09777-0.27858 2.8645-2.4166 2.9473-0.21529 1.5229-2.1599 0.28202-1.4294 1.7282-1.5006-1.0099-2.7707-4.1984 0.18614-2.1971 4.391-1.2498-2.8956-4.0688-3.458-4.7502 0.94545-0.21491-1.0286-1.1496-1.2668-0.83666zm-36.24 0.83666c-1.4615 1.1553 2.7785 1.3728 0 0zm-19.522 0.62214c-1.6346 1.6221 2.6033 1.4912 0 0zm9.4784 1.609c-1.2379 1.9238 1.829 0.71026 0 0zm27.101 2.274c-1.4492 1.5829-3.362-0.41657-3.3932 0.94393 0.26265 0.41108 1.3147 3.3451 3.6194 1.1799 1.237-0.49476 0.74995-1.742-0.22622-2.1238zm-30.856 0.94393c-2.7488 2.2774 4.6683 2.4873 0.58232 0.2612l-0.58232-0.2612zm36.262 6.3072c-1.9791 1.2243 0.94943 3.8245-0.0431 5.0459-1.2401 2.0498 4.6083-0.14439 1.4846-1.7798-0.22257-1.4051-1.83-3.1194-1.4415-3.2661zm-1.3347 2.4671c-2.7574 0.73957-0.62595 4.558 0.35067 0.96162 0.0549-0.2085 0.12936-0.96859-0.35067-0.96162zm-22.079 2.7674c-2.5652 1.6594-0.39843 3.3158 1.4816 2.5692-0.38596-1.0012-1.4642-1.6321-1.4816-2.5692zm48.455 2.7889c1.28 0.61282-2.3455 1.6597-0.0498 2.7382 1.336 1.4905 0.83231 4.69-1.3392 2.4255 0.40344-2.5283-2.9436-4.4164 1.389-5.1637zm-6.5829 0.02145c-0.17366 1.6243 3.694 4.1491-0.47504 3.3252-2.2048 0.24536-5.507-0.06391-2.7294-2.6702 0.87765-0.49986 3.1821 1.7246 1.9829-0.35463 0.42513-0.02573 0.82107-0.17798 1.2216-0.30034zm-12.736 3.5183c-1.6081 0.98287 1.112 1.7365 0 0zm-40.379 9.1604c-0.27111 0.85806 5.086 1.7276 1.3893 0.35292l-0.55107-0.18402-0.83822-0.1689zm4.1624 1.2228c-1.6249 1.565 3.3478 0.46755 0 0zm54.337 14.352c-3.5307 0.08643-3.0613 8.7263-0.60013 3.614 0.2334-1.1094 1.1689-2.5736 0.60013-3.614z"/>
  <path id="rect4414" style="opacity:.1;fill:url(#linearGradient4429)" d="m6 78v2c0 3.324 2.676 6 6 6h72c3.324 0 6-2.676 6-6v-2c0 3.324-2.676 6-6 6h-72c-3.324 0-6-2.676-6-6z"/>
 </g>
 <g id="layer5">
  <rect id="rect3171" style="opacity:.1;filter:url(#filter3794);stroke:#fff;stroke-linecap:round;stroke-width:.5;fill:url(#linearGradient3613)" clip-path="url(#clipPath4355)" rx="12" ry="12" height="62" width="66" y="15" x="15"/>
 </g>
 <g id="layer6">
  <path id="path4588" style="color:#000000;fill:#fff" d="m48 14-4.625 16.688c-1.7501 0.5289-3.3722 1.3505-4.8125 2.4062l-7.5312-4.0625 4.0625 7.5312c-1.0558 1.4403-1.8774 3.0624-2.4062 4.8125l-16.687 4.624 16.688 4.625c0.5289 1.7501 1.3505 3.3722 2.4062 4.8125l-4.0625 7.5312 7.5312-4.0625c1.4403 1.0558 3.0624 1.8774 4.8125 2.4062l4.624 16.687 4.625-16.688c1.7501-0.5289 3.3722-1.3505 4.8125-2.4062l7.5312 4.0625-4.0625-7.5312c1.0558-1.4403 1.8774-3.0624 2.4062-4.8125l16.687-4.624-16.688-4.625c-0.5289-1.7501-1.3505-3.3722-2.4062-4.8125l4.0625-7.5312-7.5312 4.0625c-1.44-1.055-3.062-1.877-4.812-2.405l-4.625-16.688zm0 20c6.6274 0 12 5.3726 12 12s-5.3726 12-12 12-12-5.3726-12-12 5.3726-12 12-12z"/>
  <path id="path4654" style="opacity:.05;fill-rule:evenodd" d="m73.594 19.875a0.98733 0.98733 0 0 0 -0.094 0.031c-1.8625 0.66289-2.9858 2.09-4.1562 2.8438a0.98733 0.98733 0 0 0 -0.0625 0.0625c-8.954 6.867-17.98 13.677-26.907 20.594a0.98733 0.98733 0 0 0 -0.1875 0.1875c-7.645 10.011-15.289 20.026-22.938 30.031a0.98733 0.98733 0 0 0 -0.0625 0.0625c-1.4934 2.4125 1.3766 5.5828 3.9062 4.25a0.98733 0.98733 0 0 0 0.094 -0.063c4.2952-3.0989 8.4785-6.4312 12.688-9.5938 5.9094-4.5415 11.864-9.0304 17.75-13.625a0.98733 0.98733 0 0 0 0.1875 -0.1875c7.64-10.045 15.365-20.038 22.967-30.124a0.98733 0.98733 0 0 0 0.094 -0.156c1.0641-2.1439-0.82062-4.6449-3.1562-4.3125a0.98733 0.98733 0 0 0 -0.125 0z" transform="translate(0,-2)"/>
  <path id="path4648" style="opacity:.1;fill-rule:evenodd" d="m73.844 18.844c-1.5192 0.5407-2.6275 1.8902-3.9806 2.7615-8.9573 6.8693-17.974 13.67-26.894 20.582-7.6444 10.011-15.288 20.025-22.938 30.031-0.98716 1.5947 0.9159 3.7278 2.5938 2.8438 4.2701-3.0809 8.4177-6.404 12.641-9.5774 5.914-4.546 11.888-9.023 17.765-13.611 7.644-10.05 15.372-20.045 22.969-30.125 0.719-1.449-0.574-3.131-2.156-2.906z"/>
  <path id="path4643" style="opacity:.15;fill-rule:evenodd" d="m74.094 19.938a0.93158 0.93158 0 0 0 -0.5 0.1875l-29.656 22.655a0.93158 0.93158 0 0 0 -0.188 0.188l-22.656 29.656a0.93158 0.93158 0 0 0 1.3125 1.3125l29.656-22.657a0.93158 0.93158 0 0 0 0.188 -0.187l22.656-29.656a0.93158 0.93158 0 0 0 -0.8125 -1.5z"/>
  <path id="path4612" style="opacity:.3;fill-rule:evenodd" d="m74.156 20.875-29.656 22.656-22.656 29.657 29.656-22.657 22.656-29.656z"/>
  <g id="g4572" transform="matrix(.70711 .70711 -.70711 .70711 48.02 -21.873)">
   <g id="g5928-7-4" transform="matrix(.98984 0 0 .77049 -15.35 -1.2827)">
    <path id="path5923-0-5" style="fill:url(#linearGradient4578-3);fill-rule:evenodd" d="m69 64h-10l5-48 5 48z"/>
    <path id="path5926-8-6" style="fill:url(#linearGradient4580-7);fill-rule:evenodd" d="m69 64h-10l5 48 5-48z"/>
   </g>
   <path id="path5958-8-4" style="fill:url(#radialGradient4582-2);fill-rule:evenodd" d="m65.503 63.921a1.7404 1.7404 0 1 1 -3.4808 0 1.7404 1.7404 0 1 1 3.4808 0z" transform="matrix(.88541 0 0 .88541 -8.4565 -8.5673)"/>
  </g>
 </g>
</svg>
