<?xml version="1.0" encoding="UTF-8" standalone="no"?>
<!-- Created with Inkscape (http://www.inkscape.org/) -->
<svg id="svg2408" xmlns:rdf="http://www.w3.org/1999/02/22-rdf-syntax-ns#" xmlns="http://www.w3.org/2000/svg" height="96" width="96" version="1.0" xmlns:cc="http://creativecommons.org/ns#" xmlns:xlink="http://www.w3.org/1999/xlink" xmlns:dc="http://purl.org/dc/elements/1.1/">
 <defs id="defs2410">
  <linearGradient id="linearGradient3916">
   <stop id="stop3918" offset="0"/>
   <stop id="stop3920" style="stop-opacity:0" offset="1"/>
  </linearGradient>
  <linearGradient id="linearGradient4384">
   <stop id="stop4386" style="stop-color:#fff" offset="0"/>
   <stop id="stop4388" style="stop-color:#fff;stop-opacity:0" offset="1"/>
  </linearGradient>
  <linearGradient id="ButtonShadow" y2="7.0165" gradientUnits="userSpaceOnUse" x2="45.448" gradientTransform="scale(1.0059 .99417)" y1="92.54" x1="45.448">
   <stop id="stop3750" offset="0"/>
   <stop id="stop3752" style="stop-opacity:.58824" offset="1"/>
  </linearGradient>
  <filter id="filter3174" color-interpolation-filters="sRGB">
   <feGaussianBlur id="feGaussianBlur3176" stdDeviation="1.71"/>
  </filter>
  <filter id="filter3794" height="1.384" width="1.384" color-interpolation-filters="sRGB" y="-.192" x="-.192">
   <feGaussianBlur id="feGaussianBlur3796" stdDeviation="5.28"/>
  </filter>
  <linearGradient id="linearGradient3613" y2="138.66" gradientUnits="userSpaceOnUse" x2="48" y1="20.221" x1="48">
   <stop id="stop3739" style="stop-color:#fff" offset="0"/>
   <stop id="stop3741" style="stop-color:#fff;stop-opacity:0" offset="1"/>
  </linearGradient>
  <linearGradient id="linearGradient3617" y2="5.9877" gradientUnits="userSpaceOnUse" x2="48" gradientTransform="translate(-130)" y1="90" x1="48">
   <stop id="stop3702" style="stop-color:#2276c5" offset="0"/>
   <stop id="stop3704" style="stop-color:#68baf4" offset="1"/>
  </linearGradient>
  <linearGradient id="ButtonShadow-0" y2="7.0165" gradientUnits="userSpaceOnUse" x2="45.448" gradientTransform="matrix(1.0059 0 0 .99417 100 0)" y1="92.54" x1="45.448">
   <stop id="stop3750-8" offset="0"/>
   <stop id="stop3752-5" style="stop-opacity:.58824" offset="1"/>
  </linearGradient>
  <linearGradient id="linearGradient3780" y2="90.239" xlink:href="#ButtonShadow-0" gradientUnits="userSpaceOnUse" x2="32.251" gradientTransform="matrix(1.0238 0 0 1.0119 -1.1429 -98.071)" y1="6.1317" x1="32.251"/>
  <linearGradient id="linearGradient3721" y2="90.239" xlink:href="#ButtonShadow-0" gradientUnits="userSpaceOnUse" x2="32.251" gradientTransform="translate(0,-97)" y1="6.1317" x1="32.251"/>
  <clipPath id="clipPath4355">
   <rect id="rect4357" style="fill:#fff" rx="6" ry="6" height="80" width="84" y="6" x="6"/>
  </clipPath>
  <radialGradient id="radialGradient4375" gradientUnits="userSpaceOnUse" cy="87.792" cx="48" gradientTransform="matrix(1 -6.7115e-8 8.4282e-8 1.2558 110 -24.506)" r="42">
   <stop id="stop4369" style="stop-color:#fff;stop-opacity:.71756" offset="0"/>
   <stop id="stop4371" style="stop-color:#fff" offset="1"/>
  </radialGradient>
  <linearGradient id="linearGradient4390" y2="-40" xlink:href="#linearGradient4384" gradientUnits="userSpaceOnUse" x2="48" gradientTransform="matrix(1,0,0,-1,0,92)" y1="88" x1="48"/>
  <linearGradient id="linearGradient4429" y2="82.455" xlink:href="#linearGradient4384" spreadMethod="reflect" gradientUnits="userSpaceOnUse" x2="112.12" y1="82" x1="48"/>
  <linearGradient id="linearGradient3228" y2="88" spreadMethod="reflect" gradientUnits="userSpaceOnUse" x2="48" y1="88" x1="90">
   <stop id="stop3894" style="stop-opacity:.58824" offset="0"/>
   <stop id="stop3896" style="stop-opacity:.47059" offset=".11780"/>
   <stop id="stop3898" style="stop-opacity:.39216" offset=".23810"/>
   <stop id="stop3900" style="stop-opacity:.31373" offset="1"/>
  </linearGradient>
  <linearGradient id="linearGradient3188-9" y2="63.893" gradientUnits="userSpaceOnUse" x2="36.357" y1="6" x1="36.357">
   <stop id="stop3739-75" style="stop-color:#fff" offset="0"/>
   <stop id="stop3741-8" style="stop-color:#fff;stop-opacity:0" offset="1"/>
  </linearGradient>
  <radialGradient id="radialGradient2874" gradientUnits="userSpaceOnUse" cy="90.172" cx="48" gradientTransform="matrix(1.1573 0 0 .99591 -7.551 .19713)" r="42">
   <stop id="stop3739-7" style="stop-color:#fff" offset="0"/>
   <stop id="stop3741-2" style="stop-color:#fff;stop-opacity:0" offset="1"/>
  </radialGradient>
  <linearGradient id="linearGradient3117" y2="5.9877" gradientUnits="userSpaceOnUse" x2="48" y1="90" x1="48">
   <stop id="stop3702-1" style="stop-color:#dcdcdc" offset="0"/>
   <stop id="stop3704-4" style="stop-color:#f0f0f0" offset="1"/>
  </linearGradient>
  <radialGradient id="radialGradient3137" gradientUnits="userSpaceOnUse" cy="-15.894" cx="48" gradientTransform="matrix(.0015749 1.6721 -1.8823 -1.7388e-8 18.008 -68.429)" r="35.938">
   <stop id="stop4105" style="stop-color:#6790cd" offset="0"/>
   <stop id="stop4107" style="stop-color:#5583c8" offset=".25"/>
   <stop id="stop4109" style="stop-color:#3c6eb8" offset=".5"/>
   <stop id="stop4111" style="stop-color:#1b3152" offset="1"/>
  </radialGradient>
  <linearGradient id="linearGradient3922" y2="120" xlink:href="#linearGradient3916" gradientUnits="userSpaceOnUse" x2="35" y1="14" x1="35"/>
  <linearGradient id="linearGradient3930" y2="112" xlink:href="#linearGradient3916" gradientUnits="userSpaceOnUse" x2="38" y1="15" x1="38"/>
  <radialGradient id="radialGradient4327" gradientUnits="userSpaceOnUse" cy="72" cx="79" gradientTransform="matrix(1 0 0 .33333 0 48)" r="3">
   <stop id="stop4323" style="stop-color:#ff3c00" offset="0"/>
   <stop id="stop4325" style="stop-color:#f00;stop-opacity:0" offset="1"/>
  </radialGradient>
  <linearGradient id="linearGradient3167-3" y2="69.688" xlink:href="#linearGradient4384" gradientUnits="userSpaceOnUse" x2="65.156" y1="16.125" x1="65.156"/>
  <linearGradient id="linearGradient4151-7" y2="87.868" xlink:href="#linearGradient4384" gradientUnits="userSpaceOnUse" x2="68.517" y1="9.0625" x1="68.517"/>
  <linearGradient id="linearGradient3136" y2="64.188" gradientUnits="userSpaceOnUse" x2="142.47" gradientTransform="translate(-80)" y1="16.125" x1="142.47">
   <stop id="stop3689-0" style="stop-color:#fff" offset="0"/>
   <stop id="stop3691-9" style="stop-color:#fff;stop-opacity:0" offset="1"/>
  </linearGradient>
 </defs>
 <metadata id="metadata2413">
  <rdf:RDF>
   <cc:Work rdf:about="">
    <dc:format>image/svg+xml</dc:format>
    <dc:type rdf:resource="http://purl.org/dc/dcmitype/StillImage"/>
    <dc:title/>
   </cc:Work>
  </rdf:RDF>
 </metadata>
 <g id="layer2" style="display:none">
  <rect id="rect3745" style="opacity:.9;filter:url(#filter3174);fill:url(#ButtonShadow)" rx="6" ry="6" height="85" width="86" y="7" x="5"/>
 </g>
 <g id="layer3">
  <path id="path3786" style="opacity:0.08;fill:url(#linearGradient3780)" d="m12-95.031c-5.5111 0-10.031 4.5202-10.031 10.031v71c0 5.5111 4.5202 10.031 10.031 10.031h72c5.5111 0 10.031-4.5202 10.031-10.031v-71c0-5.5111-4.5202-10.031-10.031-10.031h-72z" transform="scale(1,-1)"/>
  <path id="path3778" style="opacity:.1;fill:url(#linearGradient3780)" d="m12-94.031c-4.9716 0-9.0312 4.0596-9.0312 9.0312v71c0 4.9716 4.0596 9.0312 9.0312 9.0312h72c4.9716 0 9.0312-4.0596 9.0312-9.0312v-71c0-4.9716-4.0596-9.0312-9.0312-9.0312h-72z" transform="scale(1,-1)"/>
  <path id="path3770" style="opacity:.2;fill:url(#linearGradient3780)" d="m12-93c-4.4091 0-8 3.5909-8 8v71c0 4.4091 3.5909 8 8 8h72c4.4091 0 8-3.5909 8-8v-71c0-4.4091-3.5909-8-8-8h-72z" transform="scale(1,-1)"/>
  <rect id="rect3723" style="opacity:.3;fill:url(#linearGradient3780)" transform="scale(1,-1)" rx="7" ry="7" height="85" width="86" y="-92" x="5"/>
  <rect id="rect3716" style="opacity:.45;fill:url(#linearGradient3721)" transform="scale(1,-1)" rx="6" ry="6" height="84" width="84" y="-91" x="6"/>
 </g>
 <g id="layer1">
  <path id="rect2419-7" style="fill:url(#linearGradient3117)" d="m12 6c-3.324 0-6 2.676-6 6v72c0 3.324 2.676 6 6 6h72c3.324 0 6-2.676 6-6v-72c0-3.324-2.676-6-6-6z"/>
  <path id="rect3728" style="fill:url(#linearGradient3188-9)" d="m12 6c-3.324 0-6 2.676-6 6v2 68 2c0 0.33472 0.04135 0.6507 0.09375 0.96875 0.0487 0.2956 0.09704 0.59692 0.1875 0.875 0.00988 0.03038 0.020892 0.0636 0.03125 0.09375 0.098865 0.28777 0.23488 0.54745 0.375 0.8125 0.14459 0.27351 0.31562 0.53562 0.5 0.78125 0.18438 0.24564 0.37378 0.47347 0.59375 0.6875 0.43995 0.42806 0.94291 0.81453 1.5 1.0938 0.27854 0.13961 0.57347 0.24695 0.875 0.34375-0.2562-0.10022-0.48671-0.23627-0.71875-0.375-0.00741-0.0044-0.023866 0.0045-0.03125 0-0.031933-0.0193-0.062293-0.04251-0.09375-0.0625-0.1204-0.0767-0.23102-0.16351-0.34375-0.25-0.10617-0.0808-0.21328-0.16111-0.3125-0.25-0.1778-0.162-0.3473-0.346-0.4999-0.531-0.1075-0.131-0.2183-0.266-0.3124-0.407-0.0251-0.038-0.0385-0.086-0.0626-0.125-0.0647-0.103-0.1302-0.204-0.1874-0.312-0.1011-0.195-0.2057-0.416-0.2813-0.625-0.008-0.022-0.0236-0.041-0.0313-0.063-0.0318-0.092-0.0358-0.187-0.0624-0.281-0.0304-0.107-0.0704-0.203-0.0938-0.313-0.0729-0.341-0.125-0.698-0.125-1.062v-2-68-2c0-2.782 2.2182-5 5-5h2 68 2c2.7818 0 5 2.2182 5 5v2 68 2c0 0.3643-0.05212 0.72099-0.125 1.0625-0.04415 0.20689-0.08838 0.39766-0.15625 0.59375-0.0077 0.02195-0.0233 0.04069-0.03125 0.0625-0.06274 0.17374-0.13838 0.36745-0.21875 0.53125-0.04158 0.0828-0.07904 0.16995-0.125 0.25-0.0546 0.09721-0.12677 0.18835-0.1875 0.28125-0.09411 0.14096-0.20492 0.276-0.3125 0.40625-0.14317 0.17445-0.30314 0.347-0.46875 0.5-0.01117 0.0102-0.01998 0.02115-0.03125 0.03125-0.13839 0.12556-0.28509 0.23444-0.4375 0.34375-0.10257 0.07315-0.20432 0.15336-0.3125 0.21875-0.0074 0.0045-0.02384-0.0044-0.03125 0-0.23204 0.13873-0.46255 0.27478-0.71875 0.375 0.30153-0.0968 0.59646-0.20414 0.875-0.34375 0.55709-0.27922 1.0601-0.66569 1.5-1.0938 0.21997-0.21403 0.40937-0.44186 0.59375-0.6875s0.35541-0.50774 0.5-0.78125c0.14012-0.26505 0.27614-0.52473 0.375-0.8125 0.01041-0.03078 0.02133-0.06274 0.03125-0.09375 0.09046-0.27808 0.1388-0.5794 0.1875-0.875 0.053-0.318 0.094-0.634 0.094-0.969v-2-68-2c0-3.324-2.676-6-6-6h-72z"/>
  <path id="path3174" d="m11.312 8c-1.8834 0-3.312 1.4294-3.312 3.312v59.375c0 1.884 1.4286 3.313 3.312 3.313h73.375c1.884 0 3.313-1.429 3.313-3.312v-59.375c0-1.8836-1.429-3.313-3.312-3.313z"/>
  <path id="rect3535" d="m33 70c-1.662 0-3 1.338-3 3h-3v1c1.656 0 3 1.344 3 3v2c0 1.662 1.338 3 3 3h30c1.662 0 3-1.338 3-3v-2c0-1.656 1.344-3 3-3v-1h-3c0-1.662-1.338-3-3-3h-30z"/>
  <path id="rect3483" style="opacity:.1;fill:#fff" d="m14 68h68v1h-68v-1z"/>
  <path id="path3615" style="opacity:.6;fill:url(#radialGradient2874)" d="m12 90c-3.324 0-6-2.676-6-6v-2-68-2c0-0.33472 0.04135-0.6507 0.09375-0.96875 0.0487-0.2956 0.09704-0.59692 0.1875-0.875 0.0099-0.03 0.0209-0.063 0.0313-0.094 0.0989-0.2873 0.2349-0.547 0.375-0.812 0.1446-0.2735 0.3156-0.5356 0.5-0.7812 0.1844-0.2457 0.3738-0.4735 0.5937-0.6876 0.44-0.428 0.943-0.8145 1.5-1.0937 0.2786-0.1396 0.5735-0.2469 0.8748-0.3437-0.256 0.1002-0.4865 0.2362-0.7185 0.375-0.00741 0.0044-0.023866-0.0045-0.03125 0-0.031933 0.0193-0.062293 0.04251-0.09375 0.0625-0.1204 0.0767-0.23102 0.16351-0.34375 0.25-0.10617 0.0808-0.21328 0.16111-0.3125 0.25-0.1779 0.1614-0.3474 0.3453-0.5 0.5312-0.1075 0.1303-0.2183 0.2653-0.3124 0.4063-0.0251 0.0383-0.0385 0.0858-0.0626 0.125-0.0647 0.103-0.1302 0.2045-0.1874 0.3124-0.1011 0.1948-0.2057 0.4158-0.2813 0.625-0.008 0.0219-0.0236 0.0406-0.0313 0.0626-0.0318 0.0919-0.0358 0.1868-0.0624 0.2812-0.0304 0.1066-0.0704 0.203-0.0938 0.3125-0.0729 0.3415-0.125 0.6985-0.125 1.0625v2 68 2c0 2.7818 2.2182 5 5 5h2 68 2c2.7818 0 5-2.2182 5-5v-2-68-2c0-0.364-0.052-0.721-0.125-1.0625-0.044-0.2069-0.088-0.3977-0.156-0.5937-0.008-0.022-0.024-0.0407-0.031-0.0626-0.063-0.1737-0.139-0.3674-0.219-0.5312-0.042-0.0828-0.079-0.17-0.125-0.25-0.055-0.0972-0.127-0.1884-0.188-0.2812-0.094-0.141-0.205-0.276-0.312-0.4063-0.143-0.1745-0.303-0.347-0.469-0.5-0.011-0.0102-0.02-0.0211-0.031-0.0313-0.139-0.1255-0.285-0.2344-0.438-0.3437-0.102-0.0731-0.204-0.1534-0.312-0.2187-0.0074-0.0045-0.02384 0.0044-0.03125 0-0.23204-0.13873-0.46255-0.27478-0.71875-0.375 0.30153 0.0968 0.59646 0.20414 0.875 0.34375 0.55709 0.27922 1.0601 0.66569 1.5 1.0938 0.21997 0.21403 0.40937 0.44186 0.59375 0.6875s0.35541 0.50774 0.5 0.78125c0.14012 0.26505 0.27614 0.52473 0.375 0.8125 0.01041 0.03078 0.02133 0.06274 0.03125 0.09375 0.09046 0.27808 0.1388 0.5794 0.1875 0.875 0.053 0.318 0.094 0.634 0.094 0.969v2 68 2c0 3.324-2.676 6-6 6h-72z"/>
  <rect id="rect2419" style="fill:url(#linearGradient3617)" rx="6" ry="6" height="84" width="84" y="6" x="-124"/>
  <path id="rect4359" style="opacity:.2;fill:url(#radialGradient4375)" d="m120.78 6.125c-2.74 0.5576-4.78 2.9665-4.78 5.875v68c0 3.324 2.676 6 6 6h72c3.324 0 6-2.676 6-6v-68c0-2.9085-2.0422-5.3174-4.7812-5.875 2.2051 0.53621 3.8125 2.4908 3.8125 4.875v68c0 2.8049-2.2264 5.0312-5.0312 5.0312h-72c-2.8049 0-5.0312-2.2264-5.0312-5.0312v-68c0-2.3842 1.6074-4.3388 3.8125-4.875z"/>
  <path id="rect4377" style="opacity:.8;fill:url(#linearGradient4390)" d="m12 86c-3.324 0-6-2.676-6-6v-68c0-3.324 2.676-6 6-6h72c3.324 0 6 2.676 6 6v68c0 3.324-2.676 6-6 6zm0-0.96875h72c2.8049 0 5.0312-2.2264 5.0312-5.0312v-68c0-2.8049-2.226-5.0312-5.031-5.0312h-72c-2.8049 0-5.0312 2.2263-5.0312 5.0312v68c0 2.8049 2.2264 5.0312 5.0312 5.0312z"/>
  <path id="path4412" style="opacity:.15" d="m6 100v1c0 3.324 2.676 6 6 6h72c3.324 0 6-2.676 6-6v-1c0 3.324-2.676 6-6 6h-72c-3.324 0-6-2.676-6-6z"/>
  <path id="path3215" style="fill:url(#radialGradient3137)" d="m12.062 12.062v53.875h71.875v-53.875h-71.875z" transform="matrix(-.94609 0 0 -1.0023 93.412 80.09)"/>
  <path id="path3906" style="opacity:.15;fill:url(#linearGradient3930)" d="m14 14v54h68v-54h-68zm1.875 1.9688h64.25v50.062h-64.25v-50.062z"/>
  <path id="path3902" style="opacity:.4;fill:url(#linearGradient3922)" d="m14 14v54h68v-54h-68zm0.9375 1h66.125v52h-66.125v-52z"/>
  <path id="rect4414" style="opacity:.2;fill:url(#linearGradient4429)" d="m6 78v2c0 3.324 2.676 6 6 6h72c3.324 0 6-2.676 6-6v-2c0 3.324-2.676 6-6 6h-72c-3.324 0-6-2.676-6-6z"/>
  <g id="g4185" style="fill:#797979" transform="matrix(.33333 0 0 .33333 45.333 72.333)">
   <g id="layer1-0" style="fill:#797979" transform="translate(-.86116 -1)">
    <path id="path2401" style="fill:#797979" transform="translate(.86116 1)" d="m7.5 1c-0.277 0-0.5 0.223-0.5 0.5v5c0 0.277 0.223 0.5 0.5 0.5h1c0.277 0 0.5-0.223 0.5-0.5v-5c0-0.277-0.223-0.5-0.5-0.5h-1zm-1.5 1.3438c-2.3308 0.8236-4 3.0446-4 5.6562 0 3.312 2.688 6 6 6s6-2.688 6-6c0-2.6116-1.669-4.8326-4-5.6562v2.2187c1.194 0.6923 2 1.9591 2 3.4375 0 2.208-1.792 4-4 4s-4-1.792-4-4c0-1.4784 0.8062-2.7452 2-3.4375v-2.2187z"/>
   </g>
  </g>
  <path id="path4209" style="color:#000000;fill:url(#radialGradient4327)" d="m82 72a3 1 0 1 1 -6 0 3 1 0 1 1 6 0z" transform="matrix(4.3333 0 0 2.5 -294.33 -100.5)"/>
  <rect id="rect4219" style="opacity:.4;color:#000000" height="2" width="26" y="80" x="35"/>
  <path id="path3456" d="m47.614 113.93c-0.36039-0.12027-0.56995-0.23965-0.92383-0.52627-0.94985-0.76932-1.4443-1.9036-1.1751-2.6959 0.11118-0.32734 0.23791-0.53476 0.46719-0.76469 0.39812-0.39923 1.0189-0.6937 1.7949-0.85137 1.2048-0.24482 2.1537 0.0605 2.2278 0.71684 0.05387 0.47654-0.31175 0.9103-1.3658 1.6204-0.74823 0.50404-1.0397 0.77262-1.0397 0.95807 0 0.26658 0.32341 0.53386 0.64597 0.53386 0.20353 0 0.30807-0.10995 0.39808-0.41867 0.11917-0.40875 0.36272-0.5529 0.94318-0.55827 0.40661-0.004 0.53288 0.0904 0.55155 0.41147 0.01093 0.18802-0.01206 0.28287-0.12312 0.50779-0.18204 0.36871-0.60873 0.79204-0.98398 0.97624-0.25606 0.12569-0.3351 0.14252-0.73201 0.1558-0.34623 0.0116-0.49825-0.003-0.68512-0.0653zm-2.3316-4.4942c-0.30707-0.26883-0.43918-0.80553-0.24576-0.99839 0.29482-0.29396 0.66882-0.0774 0.7877 0.45606 0.12528 0.56225-0.17544 0.86319-0.54194 0.54233zm1.0351-0.74914c-0.22005-0.23121-0.29334-0.41422-0.29542-0.73764-0.0018-0.27424-0.0021-0.34985 0.14186-0.49339 0.28567-0.28485 0.64451-0.0731 0.7551 0.52343 0.05439 0.29335-0.007 0.5591-0.16847 0.72937-0.14906 0.15717-0.26848 0.15117-0.43308-0.0218zm2.9571 0.0008c-0.14217-0.0745-0.29756-0.30927-0.33445-0.50531-0.07154-0.38022 0.20158-1.0693 0.53023-1.3379 0.53646-0.43831 1.3281-0.49092 1.53-0.10167 0.16424 0.31668-0.05224 0.8806-0.5329 1.3882-0.44496 0.46989-0.9281 0.69535-1.1928 0.55664zm-1.6052-0.30393c-0.17002-0.0818-0.29272-0.40529-0.29378-0.77449-0.0015-0.53916 0.21282-0.82673 0.61654-0.82709 0.24629-0.00021 0.38958 0.16586 0.43146 0.50008 0.05117 0.40838-0.20609 1.0158-0.46891 1.1072-0.15866 0.0551-0.1589 0.0551-0.28531-0.006z"/>
  <text id="text4252" y="76" x="35" xml:space="preserve" style="font-size:2.6166px;letter-spacing:0px;word-spacing:0px;font-family:Ubuntu;line-height:125%;fill:#797979"><tspan id="tspan4254" y="76" x="35">MENU</tspan></text>
  <g id="layer1-5" style="fill:#797979" transform="matrix(.18182 0 0 .18182 57.273 73.636)">
   <path id="Symbol" style="fill:#797979" d="m12.567 11.688-6.3812 3.6842v-7.3684z" transform="matrix(1.4104 0 0 1.4929 -4.7239 -9.9479)"/>
  </g>
  <g id="g4289" style="fill:#797979" transform="matrix(-.18182 0 0 .18182 55.727 73.636)">
   <path id="path4291" style="fill:#797979" d="m12.567 11.688-6.3812 3.6842v-7.3684z" transform="matrix(1.4104 0 0 1.4929 -4.7239 -9.9479)"/>
  </g>
 </g>
 <g id="layer4">
  <path id="path3888" style="fill:url(#linearGradient3228)" d="m6 80v4c0 3.324 2.676 6 6 6h72c3.324 0 6-2.676 6-6v-4c0 3.324-2.676 6-6 6h-72c-3.324 0-6-2.676-6-6z"/>
  <path id="rect4345" style="opacity:.1;color:#000000" d="m6 82v2c0 3.324 2.676 6 6 6h72c3.324 0 6-2.676 6-6v-2c0 3.324-2.676 6-6 6h-72c-3.324 0-6-2.676-6-6z"/>
  <path id="rect4336" style="opacity:.15;color:#000000" d="m6 83v1c0 3.324 2.676 6 6 6h72c3.324 0 6-2.676 6-6v-1c0 3.324-2.676 6-6 6h-72c-3.324 0-6-2.676-6-6z"/>
 </g>
 <g id="layer5" style="display:none">
  <rect id="rect3171" style="opacity:.1;filter:url(#filter3794);stroke:#fff;stroke-linecap:round;stroke-width:.5;fill:url(#linearGradient3613)" clip-path="url(#clipPath4355)" rx="12" ry="12" height="62" width="66" y="15" x="15"/>
 </g>
 <g id="layer6">
  <path id="path3664" style="opacity:.7;fill:url(#linearGradient3136);fill-rule:evenodd" d="m47.656 16.125 22.031 59.75h9.3125c0.5388 0 0.875-0.3362 0.875-0.875v-58c0-0.5388-0.33619-0.875-0.875-0.875z"/>
  <path id="path2669" style="opacity:.5;fill:url(#linearGradient3167-3);fill-rule:evenodd" d="m47.656 16.125 22.031 59.75h1l-22.031-59.75z"/>
  <path id="path4128" style="opacity:.3;fill:url(#linearGradient4151-7);fill-rule:evenodd" d="m45.031 9.0625 1.375 3.875h35.594c0.58434 0.0059 1.0566 0.47816 1.0625 1.0625v54c-0.005 0.584-0.478 1.057-1.062 1.062h-14.25l1.375 3.875h15.562c1.341 0 2.25-0.90969 2.25-2.25v-59.375c0-1.3403-0.90898-2.25-2.25-2.25z"/>
 </g>
 <g id="layer7">
  <path id="path3957" style="opacity:.05;enable-background:new;fill:#c5dcff" d="m60.188 31a1.3945 1.3945 0 0 0 -0.09375 0.03125c-2.0278 0.51801-2.8869 2.1526-3.5938 2.75a1.3945 1.3945 0 0 0 -0.09375 0.0625l-12.687 12.656c-2.048-2.046-4.068-4.131-6.157-6.156a1.3945 1.3945 0 0 0 -0.062 -0.063c-0.8738-0.76421-2.0504-0.92175-3-0.6875-0.88729 0.21888-1.5997 0.76052-2.1562 1.4375l-0.032-0.031c-0.04079 0.04154-0.08411 0.08346-0.125 0.125-1.5744 1.5995-3.206 3.1888-4.7812 4.8438a1.3945 1.3945 0 0 0 -0.0625 0.0625c-0.76445 0.87399-0.92248 2.0513-0.6875 3 0.21955 0.88643 0.76476 1.5998 1.4375 2.1562l-0.03125 0.03125c0.04167 0.04147 0.08334 0.08351 0.125 0.125 4.4217 4.4026 8.8281 8.8692 13.281 13.25a1.3945 1.3945 0 0 0 0.0625 0.0625c0.87399 0.76445 2.0513 0.92248 3 0.6875 0.88052-0.21809 1.601-0.74028 2.1562-1.4062l0.03125 0.03125 0.125-0.15625 21.594-21.594v-0.03125c0.80612-0.80095 1.1068-1.9008 0.96875-2.875-0.13105-0.92463-0.60114-1.7901-1.3438-2.4062-0.04124-0.04027-0.08381-0.08459-0.125-0.125-1.6888-1.6567-3.337-3.4206-5.1562-5.0938a1.3945 1.3945 0 0 0 -0.1875 -0.15625c-0.676-0.432-1.498-0.593-2.282-0.531a1.3945 1.3945 0 0 0 -0.125 0z" transform="translate(2.1989e-7 -8)"/>
  <path id="path3951" style="opacity:0.12;enable-background:new;fill:#c5dcff" d="m60.438 24.375c-1.3134 0.33552-2.0369 1.6242-3.0283 2.4621-4.5531 4.5439-9.1062 9.0878-13.659 13.632-2.3884-2.3678-4.7526-4.794-7.1562-7.125-1.0485-0.917-2.5376-0.35876-3.2859 0.63264-1.6267 1.6566-3.311 3.29-4.9016 4.9611-0.91772 1.0492-0.35715 2.5359 0.63115 3.2874 4.4698 4.4489 8.9151 8.9568 13.4 13.369 1.0492 0.91772 2.5359 0.35715 3.2874-0.63115l21.744-21.744c0.962-0.94 0.653-2.536-0.362-3.299-1.764-1.723-3.453-3.536-5.263-5.201-0.421-0.269-0.903-0.384-1.406-0.344z"/>
  <path id="path3947" style="opacity:.25;enable-background:new;fill:#c5dcff" d="m60.625 33.562a0.89829 0.89829 0 0 0 -0.53125 0.28125l-16.344 16.313-7.844-7.844a0.89829 0.89829 0 0 0 -1.25 0l-5.281 5.313a0.89829 0.89829 0 0 0 0 1.25l13.75 13.75a0.89829 0.89829 0 0 0 1.25 0l22.25-22.25a0.89829 0.89829 0 0 0 0 -1.25l-5.281-5.281a0.89829 0.89829 0 0 0 -0.719 -0.282z" transform="translate(2.1989e-7 -8)"/>
  <path id="path3190" style="enable-background:new;fill:#fff" d="m35.294 34.941 8.471 8.471 16.941-16.941 5.294 5.294-22.235 22.235-13.765-13.765 5.294-5.294z"/>
 </g>
</svg>
