<?xml version="1.0" encoding="UTF-8" standalone="no"?>
<!-- Created with Inkscape (http://www.inkscape.org/) -->
<svg id="svg2408" xmlns:rdf="http://www.w3.org/1999/02/22-rdf-syntax-ns#" xmlns="http://www.w3.org/2000/svg" height="96" width="96" version="1.0" xmlns:cc="http://creativecommons.org/ns#" xmlns:xlink="http://www.w3.org/1999/xlink" xmlns:dc="http://purl.org/dc/elements/1.1/">
 <defs id="defs2410">
  <linearGradient id="ButtonShadow" y2="7.0165" gradientUnits="userSpaceOnUse" x2="45.448" gradientTransform="scale(1.0059 .99417)" y1="92.54" x1="45.448">
   <stop id="stop3750" offset="0"/>
   <stop id="stop3752" style="stop-opacity:.58824" offset="1"/>
  </linearGradient>
  <linearGradient id="linearGradient3737">
   <stop id="stop3739" style="stop-color:#fff" offset="0"/>
   <stop id="stop3741" style="stop-color:#fff;stop-opacity:0" offset="1"/>
  </linearGradient>
  <filter id="filter3174" color-interpolation-filters="sRGB">
   <feGaussianBlur id="feGaussianBlur3176" stdDeviation="1.71"/>
  </filter>
  <linearGradient id="linearGradient3188" y2="63.893" xlink:href="#linearGradient3737" gradientUnits="userSpaceOnUse" x2="36.357" y1="6" x1="36.357"/>
  <filter id="filter3794" height="1.384" width="1.384" color-interpolation-filters="sRGB" y="-.192" x="-.192">
   <feGaussianBlur id="feGaussianBlur3796" stdDeviation="5.28"/>
  </filter>
  <linearGradient id="linearGradient3613" y2="138.66" xlink:href="#linearGradient3737" gradientUnits="userSpaceOnUse" x2="48" y1="20.221" x1="48"/>
  <radialGradient id="radialGradient3619" xlink:href="#linearGradient3737" gradientUnits="userSpaceOnUse" cy="90.172" cx="48" gradientTransform="matrix(1.1573 0 0 .99591 -7.551 .19713)" r="42"/>
  <clipPath id="clipPath3613">
   <rect id="rect3615" style="fill:#fff" rx="6" ry="6" height="84" width="84" y="6" x="6"/>
  </clipPath>
  <linearGradient id="linearGradient3617" y2="5.9877" gradientUnits="userSpaceOnUse" x2="48" y1="90" x1="48">
   <stop id="stop3855" style="stop-color:#672178" offset="0"/>
   <stop id="stop3857" style="stop-color:#ad77bb" offset="1"/>
  </linearGradient>
  <linearGradient id="ButtonShadow-0" y2="7.0165" gradientUnits="userSpaceOnUse" x2="45.448" gradientTransform="matrix(1.0059 0 0 .99417 100 0)" y1="92.54" x1="45.448">
   <stop id="stop3750-8" offset="0"/>
   <stop id="stop3752-5" style="stop-opacity:.58824" offset="1"/>
  </linearGradient>
  <linearGradient id="linearGradient3780" y2="90.239" xlink:href="#ButtonShadow-0" gradientUnits="userSpaceOnUse" x2="32.251" gradientTransform="matrix(1.0238 0 0 1.0119 -1.1429 -98.071)" y1="6.1317" x1="32.251"/>
  <linearGradient id="linearGradient3721" y2="90.239" xlink:href="#ButtonShadow-0" gradientUnits="userSpaceOnUse" x2="32.251" gradientTransform="translate(0,-97)" y1="6.1317" x1="32.251"/>
  <clipPath id="clipPath4187">
   <path id="path4189" style="fill:#bbb1bf" d="m48 102c-19.882 0-36 16.118-36 36s16.118 36 36 36 36-16.118 36-36-16.118-36-36-36zm0 24c6.6274 0 12 5.3726 12 12s-5.3726 12-12 12-12-5.3726-12-12 5.3726-12 12-12z"/>
  </clipPath>
  <filter id="filter4195" height="1.36" width="1.36" color-interpolation-filters="sRGB" y="-0.18" x="-0.18">
   <feGaussianBlur id="feGaussianBlur4197" stdDeviation="5.2159999"/>
  </filter>
  <clipPath id="clipPath3916">
   <path id="path3918" style="fill:url(#linearGradient3920)" d="m12 6c-3.324 0-6 2.676-6 6v72c0 3.324 2.676 6 6 6h72c3.324 0 6-2.676 6-6v-72c0-3.324-2.676-6-6-6h-72zm36 8.8125c18.215 0 33 14.784 33 33s-14.785 33-33 33-33-14.784-33-33 14.785-33 33-33zm0 21.25c-6.4832 0-11.75 5.2665-11.75 11.75s5.2668 11.75 11.75 11.75 11.75-5.2665 11.75-11.75-5.2668-11.75-11.75-11.75z"/>
  </clipPath>
  <linearGradient id="linearGradient3920" y2="5.9877" gradientUnits="userSpaceOnUse" x2="48" y1="90" x1="48">
   <stop id="stop3855-5" style="stop-color:#07416f" offset="0"/>
   <stop id="stop3857-4" style="stop-color:#4cdaf0" offset="1"/>
  </linearGradient>
  <radialGradient id="radialGradient3949" gradientUnits="userSpaceOnUse" cy="61.922" cx="59.894" gradientTransform="matrix(1 0 0 .83754 0 10.06)" r="33.714">
   <stop id="stop3344" style="stop-opacity:0" offset="0"/>
   <stop id="stop3350" style="stop-opacity:0" offset="0.85"/>
   <stop id="stop3346" offset="1"/>
  </radialGradient>
  <linearGradient id="linearGradient3951" y2="61.922" gradientUnits="userSpaceOnUse" x2="94.568" y1="61.922" x1="25.22">
   <stop id="stop3364" style="stop-color:#4d4d4d" offset="0"/>
   <stop id="stop3366" style="stop-color:#fff" offset="1"/>
  </linearGradient>
  <linearGradient id="linearGradient3970" y2="61.922" gradientUnits="userSpaceOnUse" x2="93.608" gradientTransform="matrix(0 .28234 -.33917 0 69.001 30.891)" y1="61.922" x1="26.18">
   <stop id="stop3332" style="stop-color:#fff;stop-opacity:.20312" offset="0"/>
   <stop id="stop3334" style="stop-color:#fff;stop-opacity:.67969" offset="1"/>
  </linearGradient>
  <linearGradient id="linearGradient3997" y2="64" gradientUnits="userSpaceOnUse" x2="123" gradientTransform="matrix(.48435 .27965 -.27964 .48437 4.8979 -.89859)" y1="64" x1="5">
   <stop id="stop3235" style="stop-color:#fff;stop-opacity:0" offset="0"/>
   <stop id="stop3297" style="stop-color:#fff;stop-opacity:0" offset="0.15"/>
   <stop id="stop3241" style="stop-color:#fff" offset=".5"/>
   <stop id="stop3299" style="stop-color:#fff;stop-opacity:0" offset="0.85"/>
   <stop id="stop3237" style="stop-color:#fff;stop-opacity:0" offset="1"/>
  </linearGradient>
  <clipPath id="clipPath3999">
   <path id="path4001" style="fill:#f0f;fill-rule:evenodd" d="m18 14.812c-18.215 0-33 14.784-33 33s14.785 33 33 33 33-14.784 33-33c0-0.27935 0.007-0.56606 0-0.84375h-21.281c0.0194 0.27544 0.0312 0.56342 0.0312 0.84375 0 6.4835-5.2668 11.75-11.75 11.75s-11.75-5.2665-11.75-11.75 5.2668-11.75 11.75-11.75c0.0213 0 0.0413-0.000113 0.0625 0v-21.25c-0.0211-0.00004-0.0414 0-0.0625 0z"/>
  </clipPath>
 </defs>
 <metadata id="metadata2413">
  <rdf:RDF>
   <cc:Work rdf:about="">
    <dc:format>image/svg+xml</dc:format>
    <dc:type rdf:resource="http://purl.org/dc/dcmitype/StillImage"/>
    <dc:title/>
   </cc:Work>
  </rdf:RDF>
 </metadata>
 <g id="layer2" style="display:none">
  <rect id="rect3745" style="opacity:.9;filter:url(#filter3174);fill:url(#ButtonShadow)" rx="6" ry="6" height="85" width="86" y="7" x="5"/>
 </g>
 <g id="layer6">
  <path id="path3786" style="opacity:0.08;fill:url(#linearGradient3780)" d="m12-95.031c-5.5111 0-10.031 4.5202-10.031 10.031v71c0 5.5111 4.5202 10.031 10.031 10.031h72c5.5111 0 10.031-4.5202 10.031-10.031v-71c0-5.5111-4.5202-10.031-10.031-10.031h-72z" transform="scale(1,-1)"/>
  <path id="path3778" style="opacity:.1;fill:url(#linearGradient3780)" d="m12-94.031c-4.9716 0-9.0312 4.0596-9.0312 9.0312v71c0 4.9716 4.0596 9.0312 9.0312 9.0312h72c4.9716 0 9.0312-4.0596 9.0312-9.0312v-71c0-4.9716-4.0596-9.0312-9.0312-9.0312h-72z" transform="scale(1,-1)"/>
  <path id="path3770" style="opacity:.2;fill:url(#linearGradient3780)" d="m12-93c-4.4091 0-8 3.5909-8 8v71c0 4.4091 3.5909 8 8 8h72c4.4091 0 8-3.5909 8-8v-71c0-4.4091-3.5909-8-8-8h-72z" transform="scale(1,-1)"/>
  <rect id="rect3723" style="opacity:.3;fill:url(#linearGradient3780)" transform="scale(1,-1)" rx="7" ry="7" height="85" width="86" y="-92" x="5"/>
  <rect id="rect3716" style="opacity:.45;fill:url(#linearGradient3721)" transform="scale(1,-1)" rx="6" ry="6" height="84" width="84" y="-91" x="6"/>
 </g>
 <g id="layer1">
  <rect id="rect2419" style="fill:url(#linearGradient3617)" rx="6" ry="6" height="84" width="84" y="6" x="6"/>
  <path id="rect3728" style="opacity:.35;fill:url(#linearGradient3188)" d="m12 6c-3.324 0-6 2.676-6 6v2 68 2c0 0.33472 0.04135 0.6507 0.09375 0.96875 0.0487 0.2956 0.09704 0.59692 0.1875 0.875 0.00988 0.03038 0.020892 0.0636 0.03125 0.09375 0.098865 0.28777 0.23488 0.54745 0.375 0.8125 0.14459 0.27351 0.31562 0.53562 0.5 0.78125 0.18438 0.24564 0.37378 0.47347 0.59375 0.6875 0.43995 0.42806 0.94291 0.81453 1.5 1.0938 0.27854 0.13961 0.57347 0.24695 0.875 0.34375-0.2562-0.10022-0.48671-0.23627-0.71875-0.375-0.00741-0.0044-0.023866 0.0045-0.03125 0-0.031933-0.0193-0.062293-0.04251-0.09375-0.0625-0.1204-0.0767-0.23102-0.16351-0.34375-0.25-0.10617-0.0808-0.21328-0.16111-0.3125-0.25-0.1778-0.162-0.3473-0.346-0.4999-0.531-0.1075-0.131-0.2183-0.266-0.3124-0.407-0.0251-0.038-0.0385-0.086-0.0626-0.125-0.0647-0.103-0.1302-0.204-0.1874-0.312-0.1011-0.195-0.2057-0.416-0.2813-0.625-0.008-0.022-0.0236-0.041-0.0313-0.063-0.0318-0.092-0.0358-0.187-0.0624-0.281-0.0304-0.107-0.0704-0.203-0.0938-0.313-0.0729-0.341-0.125-0.698-0.125-1.062v-2-68-2c0-2.782 2.2182-5 5-5h2 68 2c2.7818 0 5 2.2182 5 5v2 68 2c0 0.3643-0.05212 0.72099-0.125 1.0625-0.04415 0.20689-0.08838 0.39766-0.15625 0.59375-0.0077 0.02195-0.0233 0.04069-0.03125 0.0625-0.06274 0.17374-0.13838 0.36745-0.21875 0.53125-0.04158 0.0828-0.07904 0.16995-0.125 0.25-0.0546 0.09721-0.12677 0.18835-0.1875 0.28125-0.09411 0.14096-0.20492 0.276-0.3125 0.40625-0.14317 0.17445-0.30314 0.347-0.46875 0.5-0.01117 0.0102-0.01998 0.02115-0.03125 0.03125-0.13839 0.12556-0.28509 0.23444-0.4375 0.34375-0.10257 0.07315-0.20432 0.15336-0.3125 0.21875-0.0074 0.0045-0.02384-0.0044-0.03125 0-0.23204 0.13873-0.46255 0.27478-0.71875 0.375 0.30153-0.0968 0.59646-0.20414 0.875-0.34375 0.55709-0.27922 1.0601-0.66569 1.5-1.0938 0.21997-0.21403 0.40937-0.44186 0.59375-0.6875s0.35541-0.50774 0.5-0.78125c0.14012-0.26505 0.27614-0.52473 0.375-0.8125 0.01041-0.03078 0.02133-0.06274 0.03125-0.09375 0.09046-0.27808 0.1388-0.5794 0.1875-0.875 0.053-0.318 0.094-0.634 0.094-0.969v-2-68-2c0-3.324-2.676-6-6-6h-72z"/>
  <path id="path3615" style="opacity:.2;fill:url(#radialGradient3619)" d="m12 90c-3.324 0-6-2.676-6-6v-2-68-2c0-0.33472 0.04135-0.6507 0.09375-0.96875 0.0487-0.2956 0.09704-0.59692 0.1875-0.875 0.0099-0.03 0.0209-0.063 0.0313-0.094 0.0989-0.2873 0.2349-0.547 0.375-0.812 0.1446-0.2735 0.3156-0.5356 0.5-0.7812 0.1844-0.2457 0.3738-0.4735 0.5937-0.6876 0.44-0.428 0.943-0.8145 1.5-1.0937 0.2786-0.1396 0.5735-0.2469 0.8748-0.3437-0.256 0.1002-0.4865 0.2362-0.7185 0.375-0.00741 0.0044-0.023866-0.0045-0.03125 0-0.031933 0.0193-0.062293 0.04251-0.09375 0.0625-0.1204 0.0767-0.23102 0.16351-0.34375 0.25-0.10617 0.0808-0.21328 0.16111-0.3125 0.25-0.1779 0.1614-0.3474 0.3453-0.5 0.5312-0.1075 0.1303-0.2183 0.2653-0.3124 0.4063-0.0251 0.0383-0.0385 0.0858-0.0626 0.125-0.0647 0.103-0.1302 0.2045-0.1874 0.3124-0.1011 0.1948-0.2057 0.4158-0.2813 0.625-0.008 0.0219-0.0236 0.0406-0.0313 0.0626-0.0318 0.0919-0.0358 0.1868-0.0624 0.2812-0.0304 0.1066-0.0704 0.203-0.0938 0.3125-0.0729 0.3415-0.125 0.6985-0.125 1.0625v2 68 2c0 2.7818 2.2182 5 5 5h2 68 2c2.7818 0 5-2.2182 5-5v-2-68-2c0-0.364-0.052-0.721-0.125-1.0625-0.044-0.2069-0.088-0.3977-0.156-0.5937-0.008-0.022-0.024-0.0407-0.031-0.0626-0.063-0.1737-0.139-0.3674-0.219-0.5312-0.042-0.0828-0.079-0.17-0.125-0.25-0.055-0.0972-0.127-0.1884-0.188-0.2812-0.094-0.141-0.205-0.276-0.312-0.4063-0.143-0.1745-0.303-0.347-0.469-0.5-0.011-0.0102-0.02-0.0211-0.031-0.0313-0.139-0.1255-0.285-0.2344-0.438-0.3437-0.102-0.0731-0.204-0.1534-0.312-0.2187-0.0074-0.0045-0.02384 0.0044-0.03125 0-0.23204-0.13873-0.46255-0.27478-0.71875-0.375 0.30153 0.0968 0.59646 0.20414 0.875 0.34375 0.55709 0.27922 1.0601 0.66569 1.5 1.0938 0.21997 0.21403 0.40937 0.44186 0.59375 0.6875s0.35541 0.50774 0.5 0.78125c0.14012 0.26505 0.27614 0.52473 0.375 0.8125 0.01041 0.03078 0.02133 0.06274 0.03125 0.09375 0.09046 0.27808 0.1388 0.5794 0.1875 0.875 0.053 0.318 0.094 0.634 0.094 0.969v2 68 2c0 3.324-2.676 6-6 6h-72z"/>
 </g>
 <g id="layer5">
  <rect id="rect3171" style="opacity:.1;filter:url(#filter3794);stroke:#fff;stroke-linecap:round;stroke-width:.5;fill:url(#linearGradient3613)" clip-path="url(#clipPath3613)" rx="12" ry="12" height="66" width="66" y="15" x="15"/>
 </g>
 <g id="layer3">
  <path id="rect4005" style="opacity:.2;color:#000000;fill:#fff" d="m48 14.812v21.25c6.213 0 11.306 4.829 11.719 10.938h21.281c-0.428-17.844-15.054-32.188-33-32.188z"/>
  <g id="g3859" clip-path="url(#clipPath3916)">
   <path id="path3964" style="opacity:.05;fill-rule:evenodd" d="m48 12.969c-19.744 0-35.844 16.099-35.844 35.844s16.099 35.844 35.844 35.844c19.744 0 35.844-16.099 35.844-35.844 0-19.746-16.1-35.844-35.844-35.844zm0 26.938c4.9654-0.000001 8.9062 3.9406 8.9062 8.9062s-3.9409 8.9062-8.9062 8.9062c-4.9654 0-8.9062-3.9406-8.9062-8.9062s3.9409-8.9062 8.9062-8.9062z"/>
   <path id="path3960" style="opacity:0.08;fill-rule:evenodd" d="m48 14c-19.184 0-34.812 15.628-34.812 34.812 0 19.185 15.628 34.813 34.812 34.813s34.812-15.628 34.812-34.813c0-19.184-15.628-34.812-34.812-34.812zm0 24.875c5.5166-0.000001 9.9375 4.4207 9.9375 9.9375s-4.4209 9.9375-9.9375 9.9375-9.9375-4.4207-9.9375-9.9375 4.4209-9.9375 9.9375-9.9375z"/>
   <path id="path3956" style="opacity:.15;fill-rule:evenodd" d="m48 15c-18.65 0-33.812 15.162-33.812 33.812 0 18.651 15.162 33.813 33.812 33.813s33.812-15.162 33.812-33.813c0-18.65-15.162-33.812-33.812-33.812zm0 22.875c6.0481-0.000001 10.938 4.8892 10.938 10.938 0 6.048-4.89 10.937-10.938 10.937s-10.938-4.889-10.938-10.938c0-6.048 4.89-10.937 10.938-10.937z"/>
   <path id="path3950" style="opacity:.3;fill-rule:evenodd" d="m47.999 15.802c-18.215 0-32.998 14.784-32.998 32.999 0 18.216 14.783 32.999 32.998 32.999s32.998-14.784 32.998-32.999c0-18.216-14.783-32.999-32.998-32.999zm0 21.254c6.4832-0.000001 11.745 5.262 11.745 11.745 0 6.4835-5.2618 11.745-11.745 11.745s-11.745-5.262-11.745-11.745c0-6.4835 5.2618-11.745 11.745-11.745z"/>
  </g>
  <path id="path3307" style="opacity:.3;fill:#fff;fill-rule:evenodd" d="m47.999 36c-6.5134 0-11.801 5.2879-11.801 11.802 0 6.5136 5.2877 11.802 11.801 11.802 6.5134 0 11.801-5.2879 11.801-11.802 0-6.5136-5.2877-11.802-11.801-11.802zm0 8.3369c1.9124-0.000001 3.4645 1.5522 3.4645 3.4647s-1.5521 3.4647-3.4645 3.4647-3.4645-1.5522-3.4645-3.4647 1.5521-3.4647 3.4645-3.4647z"/>
  <path id="path3328" style="opacity:.3;fill:url(#radialGradient3949);fill-rule:evenodd" d="m92.58 61.922a32.686 27.208 0 1 1 -65.371 0 32.686 27.208 0 1 1 65.371 0z" transform="matrix(0 .26689 -.32060 0 67.852 31.816)"/>
  <g id="g3981" transform="translate(30)" clip-path="url(#clipPath3999)">
   <path id="path3170" style="fill:#ccbb98;fill-rule:evenodd" d="m17.999 14.802c-18.215 0-32.998 14.784-32.998 32.999 0 18.216 14.783 32.999 32.998 32.999s32.998-14.784 32.998-32.999c0-18.216-14.783-32.999-32.998-32.999zm0 21.254c6.4832-0.000001 11.745 5.262 11.745 11.745 0 6.4835-5.2617 11.745-11.745 11.745-6.4832 0-11.745-5.262-11.745-11.745 0-6.4835 5.2618-11.745 11.745-11.745z"/>
   <path id="path3230" style="opacity:.8;fill:url(#linearGradient3997);fill-rule:evenodd" d="m34.498 19.421c-15.774-9.108-35.968-3.696-45.075 12.079-9.108 15.775-3.697 35.97 12.078 45.077 15.774 9.108 35.968 3.697 45.075-12.078 9.108-15.775 3.697-35.97-12.078-45.078zm-10.626 18.406c5.6146 3.2417 7.5406 10.43 4.299 16.045-3.2416 5.6149-10.429 7.5409-16.044 4.2991-5.6146-3.2417-7.5406-10.43-4.299-16.045 3.2416-5.6149 10.429-7.5409 16.044-4.2991z"/>
   <g id="g4175" style="opacity:.6;filter:url(#filter4195)" transform="matrix(.91667 0 0 .91667 -26 -78.5)" clip-path="url(#clipPath4187)">
    <path id="path4039" style="fill:#7137c8" d="m60.947 57.784a20.708 18.814 0 0 1 -2.6155 2.9059l-14.643-13.304z" transform="matrix(1.5055 .86922 -.95673 1.6571 27.56 21.5)"/>
    <path id="path4041" style="fill:#0cf" d="m60.779 58.011a20.708 18.814 0 0 1 -3.384 3.4788l-13.706-14.104z" transform="matrix(1.6792 .44994 -.49524 1.8483 -1.8956 30.76)"/>
    <path id="path4043" style="fill:#fc0" d="m62.724 54.796a20.708 18.814 0 0 1 -2.2597 3.6221l-16.775-11.032z" transform="matrix(1.7384 0 -6.0266e-8 1.9135 -27.951 47.328)"/>
    <path id="path4045" style="fill:#f00" d="m61.623 56.793a20.708 18.814 0 0 1 -1.6993 2.2728l-16.235-11.68z" transform="matrix(1.6792 -.44994 .49524 1.8483 -48.831 70.075)"/>
    <path id="path4144" style="fill:#0f0" d="m63.123 53.883a20.708 18.814 0 0 1 -2.37 4.1619l-17.064-10.659z" transform="matrix(1.6792 .44994 -.49524 1.8483 -1.8956 30.76)"/>
    <path id="path4155" style="fill:#7137c8" d="m60.947 57.784a20.708 18.814 0 0 1 -2.6155 2.9059l-14.643-13.304z" transform="matrix(-1.5055 -.86922 .95673 -1.6571 68.44 254.5)"/>
    <path id="path4157" style="fill:#0cf" d="m60.779 58.011a20.708 18.814 0 0 1 -3.384 3.4788l-13.706-14.104z" transform="matrix(-1.6792 -.44994 .49524 -1.8483 97.896 245.24)"/>
    <path id="path4159" style="fill:#fc0" d="m62.724 54.796a20.708 18.814 0 0 1 -2.2597 3.6221l-16.775-11.032z" transform="matrix(-1.7384 0 6.0266e-8 -1.9135 123.95 228.67)"/>
    <path id="path4161" style="fill:#f00" d="m61.623 56.793a20.708 18.814 0 0 1 -1.6993 2.2728l-16.235-11.68z" transform="matrix(-1.6792 .44994 -.49524 -1.8483 144.83 205.92)"/>
    <path id="path4163" style="fill:#0f0" d="m63.123 53.883a20.708 18.814 0 0 1 -2.37 4.1619l-17.064-10.659z" transform="matrix(-1.6792 -.44994 .49524 -1.8483 97.896 245.24)"/>
   </g>
  </g>
  <path id="path3352" style="opacity:.6;stroke:url(#linearGradient3951);stroke-linecap:round;stroke-width:7.3299;fill:none" d="m92.58 61.922a32.686 27.208 0 1 1 -65.371 0 32.686 27.208 0 1 1 65.371 0z" transform="matrix(0 .12448 -.14953 0 57.258 40.346)"/>
  <path id="path3942" style="opacity:.5;block-progression:tb;text-indent:0;color:#000000;text-transform:none;fill:url(#linearGradient3970)" d="m57.777 47.805c0-5.302-4.3305-9.6879-9.7828-9.6879-5.4524 0-9.7722 4.3859-9.7722 9.6879s4.3199 9.6791 9.7722 9.6791c5.4524 0 9.7828-4.3771 9.7828-9.6791zm-1.1023 0c0 4.8916-3.9397 8.7703-8.6805 8.7703s-8.6699-3.8788-8.6699-8.7703c0-4.8916 3.9291-8.7791 8.6699-8.7791s8.6805 3.8876 8.6805 8.7791z"/>
  <path id="path3745" style="opacity:.6;fill-rule:evenodd" d="m44.752 65-4.7643 0.01045h-3.584l-0.36484 1.4778 2.7148 0.01045h0.62773c1.7427 0 2.8076 0.68492 2.5109 1.8851-0.32014 1.3153-1.8487 1.8903-3.4606 1.8903h-0.60091l0.77796-3.2324h-2.6987l-1.1535 4.7206h3.8415c2.8804 0 5.6313-1.475 6.1057-3.3786 0.09462-0.34639 0.08602-1.2147-0.1395-1.7337 0-0.02317-0.01508-0.03217-0.02682-0.07834-0.0122-0.01147-0.02059-0.09319 0.02682-0.10444 0.02391-0.01161 0.06873 0.03536 0.08049 0.047 0.02351 0.05768 0.03755 0.09922 0.03755 0.09922l2.4412 6.7154 6.2237-6.8303h2.629 0.6331c1.7427 0 2.8065 0.68492 2.5217 1.8851-0.33189 1.3153-1.8593 1.8903-3.4713 1.8903h-0.60627l0.78333-3.2324h-2.7041l-1.1482 4.7206h3.8415c2.8808 0 5.6435-1.475 6.1057-3.3786 0.47413-1.8923-1.5659-3.3734-4.4585-3.3734h-5.7247s-1.518 1.7437-1.8027 2.0783c-1.5053 1.765-1.7817 2.2385-1.8295 2.3655 0.01192-0.127-0.04668-0.59796-0.68675-2.3864-0.1775-0.48464-0.71894-2.0574-0.71894-2.0574h-1.9583v-0.01045zm2.468 8.3551c-7.303 0-13.22 0.819-13.22 1.823 0 1.015 5.917 1.822 13.22 1.822 7.3024 0 13.225-0.80704 13.225-1.8225 0-1.0036-5.923-1.8225-13.225-1.8225zm-0.47751 1.2585c1.6716 0 3.026 0.26625 3.026 0.60052 0 0.33466-1.3544 0.61097-3.026 0.61097-1.6718 0-3.0206-0.27631-3.0206-0.61097 0-0.33427 1.3488-0.60052 3.0206-0.60052z"/>
  <path id="path3865" style="fill:#ccbb98;fill-rule:evenodd" d="m138 14.802c-18.215 0-32.998 14.784-32.998 32.999 0 18.216 14.783 32.999 32.998 32.999s32.998-14.784 32.998-32.999c0-18.216-14.783-32.999-32.998-32.999zm0 21.254c6.4832-0.000001 11.745 5.262 11.745 11.745 0 6.4835-5.2618 11.745-11.745 11.745s-11.745-5.262-11.745-11.745c0-6.4835 5.2618-11.745 11.745-11.745z"/>
  <path id="path3304" style="opacity:.15;stroke:#000;stroke-linecap:round;stroke-width:6.0695;fill:none" d="m92.58 61.922a32.686 27.208 0 1 1 -65.371 0 32.686 27.208 0 1 1 65.371 0z" transform="matrix(.45096 0 0 .54175 20.99 14.355)"/>
  <rect id="rect4042" style="opacity:.1;color:#000000" height="21" width="1" y="15" x="48"/>
  <rect id="rect4044" style="opacity:.1;color:#000000" transform="matrix(0,-1,-1,0,0,0)" height="21" width="1" y="-81" x="-47"/>
  <path id="path3933" style="opacity:.2;fill:#fff;fill-rule:evenodd" d="m138 14.812c-18.215 0-33 14.784-33 33 0 0.3374 0.0212 0.66502 0.0312 1 0.52423-17.758 15.085-32 32.969-32s32.445 14.242 32.969 32c0.0101-0.33498 0.0312-0.6626 0.0312-1 0-18.216-14.785-33-33-33z"/>
  <path id="path4046" style="opacity:.5;fill:#fff;fill-rule:evenodd" d="m48 14.812c-18.215 0-33 14.784-33 33 0 0.1686-0.003 0.33199 0 0.5 0.26532-17.987 14.951-32.5 33-32.5s32.735 14.513 33 32.5c0.003-0.16801 0-0.3314 0-0.5 0-18.216-14.785-33-33-33z"/>
 </g>
</svg>
