<?xml version="1.0" encoding="UTF-8" standalone="no"?>
<!-- Created with Inkscape (http://www.inkscape.org/) -->
<svg id="svg2408" xmlns:rdf="http://www.w3.org/1999/02/22-rdf-syntax-ns#" xmlns="http://www.w3.org/2000/svg" height="96" width="96" version="1.0" xmlns:cc="http://creativecommons.org/ns#" xmlns:xlink="http://www.w3.org/1999/xlink" xmlns:dc="http://purl.org/dc/elements/1.1/">
 <defs id="defs2410">
  <linearGradient id="ButtonShadow" y2="7.0165" gradientUnits="userSpaceOnUse" x2="45.448" gradientTransform="scale(1.0059 .99417)" y1="92.54" x1="45.448">
   <stop id="stop3750" offset="0"/>
   <stop id="stop3752" style="stop-opacity:.58824" offset="1"/>
  </linearGradient>
  <linearGradient id="linearGradient3737">
   <stop id="stop3739" style="stop-color:#fff" offset="0"/>
   <stop id="stop3741" style="stop-color:#fff;stop-opacity:0" offset="1"/>
  </linearGradient>
  <filter id="filter3174" color-interpolation-filters="sRGB">
   <feGaussianBlur id="feGaussianBlur3176" stdDeviation="1.71"/>
  </filter>
  <linearGradient id="ButtonShadow-0" y2="7.0165" gradientUnits="userSpaceOnUse" x2="45.448" gradientTransform="matrix(1.0059 0 0 .99417 100 0)" y1="92.54" x1="45.448">
   <stop id="stop3750-8" offset="0"/>
   <stop id="stop3752-5" style="stop-opacity:.58824" offset="1"/>
  </linearGradient>
  <linearGradient id="linearGradient3780" y2="90.239" xlink:href="#ButtonShadow-0" gradientUnits="userSpaceOnUse" x2="32.251" gradientTransform="matrix(1.0238 0 0 1.0119 -1.1429 -98.071)" y1="6.1317" x1="32.251"/>
  <linearGradient id="linearGradient3721" y2="90.239" xlink:href="#ButtonShadow-0" gradientUnits="userSpaceOnUse" x2="32.251" gradientTransform="translate(0,-97)" y1="6.1317" x1="32.251"/>
  <radialGradient id="radialGradient3424" xlink:href="#linearGradient3737" gradientUnits="userSpaceOnUse" cy="90.172" cx="48" gradientTransform="matrix(1.1573 0 0 .99591 -7.551 .19713)" r="42"/>
  <linearGradient id="linearGradient3427" y2="63.893" xlink:href="#linearGradient3737" gradientUnits="userSpaceOnUse" x2="36.357" y1="6" x1="36.357"/>
  <linearGradient id="linearGradient3433" y2="5.9877" gradientUnits="userSpaceOnUse" x2="48" y1="90" x1="48">
   <stop id="stop4210" style="stop-color:#f3840c" offset="0"/>
   <stop id="stop4212" style="stop-color:#f2b80c" offset="1"/>
  </linearGradient>
  <linearGradient id="linearGradient4219" y2="53.715" gradientUnits="userSpaceOnUse" x2="39.091" gradientTransform="matrix(1.0076 0 0 1 -.67949 0)" y1="58.664" x1="39.079">
   <stop id="stop4215" style="stop-color:#fff" offset="0"/>
   <stop id="stop4217" style="stop-color:#fff;stop-opacity:0" offset="1"/>
  </linearGradient>
  <linearGradient id="linearGradient4235" y2="54.364" gradientUnits="userSpaceOnUse" x2="40.149" y1="89.366" x1="40.295">
   <stop id="stop4231" style="stop-color:#123565" offset="0"/>
   <stop id="stop4233" style="stop-color:#1c54a0" offset="1"/>
  </linearGradient>
 </defs>
 <metadata id="metadata2413">
  <rdf:RDF>
   <cc:Work rdf:about="">
    <dc:format>image/svg+xml</dc:format>
    <dc:type rdf:resource="http://purl.org/dc/dcmitype/StillImage"/>
    <dc:title/>
   </cc:Work>
  </rdf:RDF>
 </metadata>
 <g id="layer2" style="display:none">
  <rect id="rect3745" style="opacity:.9;filter:url(#filter3174);fill:url(#ButtonShadow)" rx="6" ry="6" height="85" width="86" y="7" x="5"/>
 </g>
 <g id="g4262">
  <g id="layer4">
   <path id="path3786" style="opacity:0.08;fill:url(#linearGradient3780)" d="m12-95.031c-5.5111 0-10.031 4.5202-10.031 10.031v71c0 5.5111 4.5202 10.031 10.031 10.031h72c5.5111 0 10.031-4.5202 10.031-10.031v-71c0-5.5111-4.5202-10.031-10.031-10.031h-72z" transform="scale(1,-1)"/>
   <path id="path3778" style="opacity:.1;fill:url(#linearGradient3780)" d="m12-94.031c-4.9716 0-9.0312 4.0596-9.0312 9.0312v71c0 4.9716 4.0596 9.0312 9.0312 9.0312h72c4.9716 0 9.0312-4.0596 9.0312-9.0312v-71c0-4.9716-4.0596-9.0312-9.0312-9.0312h-72z" transform="scale(1,-1)"/>
   <path id="path3770" style="opacity:.2;fill:url(#linearGradient3780)" d="m12-93c-4.4091 0-8 3.5909-8 8v71c0 4.4091 3.5909 8 8 8h72c4.4091 0 8-3.5909 8-8v-71c0-4.4091-3.5909-8-8-8h-72z" transform="scale(1,-1)"/>
   <rect id="rect3723" style="opacity:.3;fill:url(#linearGradient3780)" transform="scale(1,-1)" rx="7" ry="7" height="85" width="86" y="-92" x="5"/>
   <rect id="rect3716" style="opacity:.45;fill:url(#linearGradient3721)" transform="scale(1,-1)" rx="6" ry="6" height="84" width="84" y="-91" x="6"/>
  </g>
  <rect id="rect2419" style="fill:url(#linearGradient3433)" rx="6" ry="6" height="84" width="84" y="6" x="6"/>
  <rect id="rect4204" style="fill:url(#linearGradient4235)" rx="6" ry="6" height="84" width="84" y="6" x="6"/>
  <rect id="rect4209" rx="4.2487" ry="5.7946" height="50.972" width="83.688" y="6.8384" x="6.1681"/>
  <path id="rect3728" style="opacity:.5;fill:url(#linearGradient3427)" d="m12 6c-3.324 0-6 2.676-6 6v2 68 2c0 0.33472 0.04135 0.6507 0.09375 0.96875 0.0487 0.2956 0.09704 0.59692 0.1875 0.875 0.00988 0.03038 0.020892 0.0636 0.03125 0.09375 0.098865 0.28777 0.23488 0.54745 0.375 0.8125 0.14459 0.27351 0.31562 0.53562 0.5 0.78125 0.18438 0.24564 0.37378 0.47347 0.59375 0.6875 0.43995 0.42806 0.94291 0.81453 1.5 1.0938 0.27854 0.13961 0.57347 0.24695 0.875 0.34375-0.2562-0.10022-0.48671-0.23627-0.71875-0.375-0.00741-0.0044-0.023866 0.0045-0.03125 0-0.031933-0.0193-0.062293-0.04251-0.09375-0.0625-0.1204-0.0767-0.23102-0.16351-0.34375-0.25-0.10617-0.0808-0.21328-0.16111-0.3125-0.25-0.1778-0.162-0.3473-0.346-0.4999-0.531-0.1075-0.131-0.2183-0.266-0.3124-0.407-0.0251-0.038-0.0385-0.086-0.0626-0.125-0.0647-0.103-0.1302-0.204-0.1874-0.312-0.1011-0.195-0.2057-0.416-0.2813-0.625-0.008-0.022-0.0236-0.041-0.0313-0.063-0.0318-0.092-0.0358-0.187-0.0624-0.281-0.0304-0.107-0.0704-0.203-0.0938-0.313-0.0729-0.341-0.125-0.698-0.125-1.062v-2-68-2c0-2.782 2.2182-5 5-5h2 68 2c2.7818 0 5 2.2182 5 5v2 68 2c0 0.3643-0.05212 0.72099-0.125 1.0625-0.04415 0.20689-0.08838 0.39766-0.15625 0.59375-0.0077 0.02195-0.0233 0.04069-0.03125 0.0625-0.06274 0.17374-0.13838 0.36745-0.21875 0.53125-0.04158 0.0828-0.07904 0.16995-0.125 0.25-0.0546 0.09721-0.12677 0.18835-0.1875 0.28125-0.09411 0.14096-0.20492 0.276-0.3125 0.40625-0.14317 0.17445-0.30314 0.347-0.46875 0.5-0.01117 0.0102-0.01998 0.02115-0.03125 0.03125-0.13839 0.12556-0.28509 0.23444-0.4375 0.34375-0.10257 0.07315-0.20432 0.15336-0.3125 0.21875-0.0074 0.0045-0.02384-0.0044-0.03125 0-0.23204 0.13873-0.46255 0.27478-0.71875 0.375 0.30153-0.0968 0.59646-0.20414 0.875-0.34375 0.55709-0.27922 1.0601-0.66569 1.5-1.0938 0.21997-0.21403 0.40937-0.44186 0.59375-0.6875s0.35541-0.50774 0.5-0.78125c0.14012-0.26505 0.27614-0.52473 0.375-0.8125 0.01041-0.03078 0.02133-0.06274 0.03125-0.09375 0.09046-0.27808 0.1388-0.5794 0.1875-0.875 0.053-0.318 0.094-0.634 0.094-0.969v-2-68-2c0-3.324-2.676-6-6-6h-72z"/>
  <path id="path3615" style="opacity:.2;fill:url(#radialGradient3424)" d="m12 90c-3.324 0-6-2.676-6-6v-2-68-2c0-0.33472 0.04135-0.6507 0.09375-0.96875 0.0487-0.2956 0.09704-0.59692 0.1875-0.875 0.0099-0.03 0.0209-0.063 0.0313-0.094 0.0989-0.2873 0.2349-0.547 0.375-0.812 0.1446-0.2735 0.3156-0.5356 0.5-0.7812 0.1844-0.2457 0.3738-0.4735 0.5937-0.6876 0.44-0.428 0.943-0.8145 1.5-1.0937 0.2786-0.1396 0.5735-0.2469 0.8748-0.3437-0.256 0.1002-0.4865 0.2362-0.7185 0.375-0.00741 0.0044-0.023866-0.0045-0.03125 0-0.031933 0.0193-0.062293 0.04251-0.09375 0.0625-0.1204 0.0767-0.23102 0.16351-0.34375 0.25-0.10617 0.0808-0.21328 0.16111-0.3125 0.25-0.1779 0.1614-0.3474 0.3453-0.5 0.5312-0.1075 0.1303-0.2183 0.2653-0.3124 0.4063-0.0251 0.0383-0.0385 0.0858-0.0626 0.125-0.0647 0.103-0.1302 0.2045-0.1874 0.3124-0.1011 0.1948-0.2057 0.4158-0.2813 0.625-0.008 0.0219-0.0236 0.0406-0.0313 0.0626-0.0318 0.0919-0.0358 0.1868-0.0624 0.2812-0.0304 0.1066-0.0704 0.203-0.0938 0.3125-0.0729 0.3415-0.125 0.6985-0.125 1.0625v2 68 2c0 2.7818 2.2182 5 5 5h2 68 2c2.7818 0 5-2.2182 5-5v-2-68-2c0-0.364-0.052-0.721-0.125-1.0625-0.044-0.2069-0.088-0.3977-0.156-0.5937-0.008-0.022-0.024-0.0407-0.031-0.0626-0.063-0.1737-0.139-0.3674-0.219-0.5312-0.042-0.0828-0.079-0.17-0.125-0.25-0.055-0.0972-0.127-0.1884-0.188-0.2812-0.094-0.141-0.205-0.276-0.312-0.4063-0.143-0.1745-0.303-0.347-0.469-0.5-0.011-0.0102-0.02-0.0211-0.031-0.0313-0.139-0.1255-0.285-0.2344-0.438-0.3437-0.102-0.0731-0.204-0.1534-0.312-0.2187-0.0074-0.0045-0.02384 0.0044-0.03125 0-0.23204-0.13873-0.46255-0.27478-0.71875-0.375 0.30153 0.0968 0.59646 0.20414 0.875 0.34375 0.55709 0.27922 1.0601 0.66569 1.5 1.0938 0.21997 0.21403 0.40937 0.44186 0.59375 0.6875s0.35541 0.50774 0.5 0.78125c0.14012 0.26505 0.27614 0.52473 0.375 0.8125 0.01041 0.03078 0.02133 0.06274 0.03125 0.09375 0.09046 0.27808 0.1388 0.5794 0.1875 0.875 0.053 0.318 0.094 0.634 0.094 0.969v2 68 2c0 3.324-2.676 6-6 6h-72z"/>
  <rect id="rect4211" style="stroke:url(#linearGradient4219);stroke-width:1.0038;fill:none" rx="3.1986" ry="5.7946" height="50.972" width="83.965" y="6.8384" x="5.8915"/>
  <g id="text4221" style="fill:#b0b0b0">
   <path id="path4238" d="m13.006 23.61c-0.504-0.288-0.888-0.684-1.164-1.188s-0.42-1.104-0.42-1.764c0-0.96 0.288-1.74 0.864-2.364 0.264-0.288 0.6-0.528 0.996-0.696s0.816-0.264 1.236-0.264 0.768 0.036 1.044 0.084 0.6 0.144 0.984 0.276l0.276-0.816c-0.384-0.144-0.756-0.252-1.128-0.324s-0.828-0.108-1.356-0.108-1.056 0.096-1.572 0.312-0.96 0.504-1.32 0.876-0.636 0.828-0.84 1.344-0.312 1.092-0.312 1.692c0 1.26 0.384 2.28 1.128 3.072 0.36 0.372 0.804 0.66 1.32 0.876s1.08 0.312 1.704 0.312c0.924 0 1.752-0.168 2.484-0.504l-0.252-0.792c-0.648 0.264-1.296 0.396-1.944 0.396s-1.224-0.132-1.728-0.42"/>
   <path id="path4240" d="m18.351 23.574v1.236h1.224v-1.236h-1.224m0-4.584v1.236h1.224v-1.236h-1.224"/>
   <path id="path4242" d="m20.743 16.482 2.904 8.856h0.996l-2.904-8.856h-0.996"/>
   <path id="path4244" d="m25.453 18.198v0.912l4.092 2.064-4.092 1.968v0.96l5.112-2.412v-0.972l-5.112-2.52"/>
   <path id="path4246" d="m34.698 18.918c-0.972 0.012-1.692 0.3-2.172 0.876s-0.72 1.332-0.708 2.292c0.012 0.756 0.18 1.38 0.516 1.848 0.48 0.672 1.236 1.008 2.28 0.996 0.504 0 1.02-0.108 1.572-0.324l-0.228-0.66c-0.48 0.168-0.924 0.228-1.32 0.18s-0.72-0.144-0.972-0.288c-0.564-0.324-0.852-0.912-0.9-1.74-0.084-1.524 0.564-2.304 1.968-2.364 0.372-0.012 0.804 0.06 1.284 0.228l0.24-0.696c-0.552-0.24-1.068-0.36-1.56-0.348"/>
   <path id="path4248" d="m41.62 19.926v3.816c-0.216 0.12-0.42 0.204-0.612 0.264s-0.42 0.096-0.696 0.096c-0.6 0-1.068-0.192-1.392-0.588s-0.48-0.936-0.48-1.62 0.156-1.224 0.492-1.632 0.804-0.612 1.392-0.612c0.456 0 0.876 0.096 1.296 0.276m0-0.768c-0.456-0.192-0.924-0.276-1.392-0.276-0.792 0-1.452 0.252-1.98 0.768-0.552 0.552-0.828 1.332-0.828 2.328 0 1.2 0.408 2.064 1.212 2.568 0.408 0.252 0.888 0.372 1.464 0.372s1.128-0.18 1.644-0.516l0.168 0.408h0.708v-8.052h-0.996v2.4"/>
   <path id="path4250" style="fill:#b0b0b0" d="m11.518 33.822v13.86h3.94c2.5 0 4.38-0.58 5.68-1.78s1.94-2.92 1.94-5.16-0.62-3.98-1.84-5.16-2.94-1.76-5.14-1.76h-4.58m1.84 1.46h2.32c1.34 0 2.44 0.26 3.3 0.74 1.46 0.8 2.18 2.32 2.18 4.58 0 1.64-0.34 2.9-1 3.8-0.88 1.2-2.36 1.8-4.46 1.8h-2.34v-10.92"/>
   <path id="path4252" style="fill:#b0b0b0" d="m28.512 37.882c0.4-0.84 0.94-1.52 1.66-2s1.54-0.72 2.44-0.72 1.72 0.24 2.44 0.72 1.26 1.14 1.66 2 0.6 1.8 0.6 2.88-0.2 2.04-0.6 2.88-0.94 1.52-1.66 2-1.54 0.72-2.44 0.72-1.72-0.24-2.44-0.72-1.26-1.16-1.66-2-0.6-1.8-0.6-2.88 0.2-2.04 0.6-2.88m-2.48 2.88c0 1.4 0.26 2.66 0.8 3.72s1.3 1.9 2.3 2.48 2.16 0.88 3.48 0.88 2.46-0.3 3.46-0.88 1.76-1.42 2.3-2.48 0.82-2.32 0.82-3.72-0.28-2.64-0.82-3.72-1.3-1.9-2.3-2.48-2.14-0.88-3.46-0.88-2.48 0.3-3.48 0.88-1.76 1.4-2.3 2.48-0.8 2.32-0.8 3.72"/>
   <path id="path4254" style="fill:#b0b0b0" d="m45.103 34.002c-0.68 0.22-1.26 0.52-1.72 0.88s-0.8 0.8-1.06 1.28-0.4 1.02-0.4 1.58 0.14 1.08 0.42 1.52 0.64 0.8 1.08 1.06 0.92 0.48 1.46 0.68 1.04 0.38 1.58 0.56 1.04 0.36 1.48 0.56c0.98 0.44 1.48 1.08 1.48 1.92 0 0.66-0.32 1.2-0.94 1.6s-1.42 0.6-2.38 0.6-2.26-0.32-3.88-0.92l-0.58 1.62c0.78 0.3 1.5 0.54 2.14 0.7s1.32 0.22 2.08 0.22 1.44-0.08 2.06-0.24c1.12-0.32 1.96-0.86 2.54-1.62 0.5-0.68 0.76-1.42 0.76-2.2 0-1.06-0.38-1.88-1.16-2.46-0.36-0.26-0.76-0.52-1.2-0.74s-1.04-0.44-1.78-0.66-1.48-0.52-2.18-0.88c-0.78-0.4-1.16-0.94-1.16-1.64 0-0.64 0.34-1.18 1-1.58s1.44-0.6 2.36-0.6 1.94 0.16 3.12 0.5l0.54-1.5c-1.24-0.38-2.3-0.56-3.24-0.56s-1.74 0.1-2.42 0.32"/>
   <path id="path4256" style="fill:#b0b0b0" d="m55.895 35.082h2.66c0.46 0 0.86 0.04 1.2 0.14 1.06 0.3 1.58 0.96 1.58 2 0 1.58-1.22 2.4-3.68 2.46l-1.76 0.06v-4.66m0 5.94 2.42-0.12c1.24-0.06 2.26 0.14 3 0.64s1.12 1.18 1.12 2.1c0 0.68-0.2 1.24-0.62 1.66-0.18 0.18-0.4 0.34-0.68 0.46s-0.52 0.2-0.74 0.26-0.46 0.1-0.76 0.14-0.52 0.06-0.68 0.06h-0.54-2.52v-5.2m-1.66-7.22v13.88h4.5c1.74 0 3.08-0.42 4.02-1.26 0.88-0.8 1.32-1.78 1.32-2.94 0-0.86-0.26-1.62-0.82-2.3s-1.26-1.1-2.12-1.26c0.42-0.16 0.84-0.52 1.22-1.08s0.58-1.14 0.58-1.7c0-0.88-0.28-1.62-0.86-2.24-0.68-0.72-1.66-1.1-2.96-1.1h-4.88"/>
   <path id="path4258" style="fill:#b0b0b0" d="m68.492 40.182c0.54-0.68 1.26-1.02 2.16-1.02s1.64 0.34 2.18 1.02 0.8 1.58 0.8 2.7-0.26 2.02-0.8 2.7-1.28 1-2.18 1-1.62-0.32-2.16-1-0.82-1.58-0.82-2.7 0.28-2.02 0.82-2.7m-1.26 6.36c0.82 0.88 1.94 1.34 3.38 1.34s2.6-0.46 3.44-1.36 1.24-2.12 1.24-3.66-0.4-2.78-1.22-3.66-1.96-1.32-3.4-1.32-2.58 0.44-3.42 1.34-1.24 2.1-1.24 3.66 0.4 2.78 1.22 3.66"/>
   <path id="path4260" style="fill:#b0b0b0" d="m84.299 38.042-2.62 3.82-2.72-3.82h-1.86l3.5 4.9-3.38 4.74h1.7l2.46-3.62 2.58 3.62h1.86l-3.36-4.72 3.56-4.92h-1.72"/>
  </g>
 </g>
</svg>
