<?xml version="1.0" encoding="UTF-8" standalone="no"?>
<!-- Created with Inkscape (http://www.inkscape.org/) -->
<svg id="svg2408" xmlns:rdf="http://www.w3.org/1999/02/22-rdf-syntax-ns#" xmlns="http://www.w3.org/2000/svg" height="96" width="96" version="1.0" xmlns:cc="http://creativecommons.org/ns#" xmlns:xlink="http://www.w3.org/1999/xlink" xmlns:dc="http://purl.org/dc/elements/1.1/">
 <defs id="defs2410">
  <linearGradient id="linearGradient3816">
   <stop id="stop3818" style="stop-color:#e9e9e9" offset="0"/>
   <stop id="stop3820" style="stop-color:#828282" offset="1"/>
  </linearGradient>
  <linearGradient id="linearGradient3705">
   <stop id="stop3707" style="stop-color:#305388" offset="0"/>
   <stop id="stop3709" style="stop-color:#7e9fd2" offset="1"/>
  </linearGradient>
  <linearGradient id="ButtonShadow" y2="7.0165" gradientUnits="userSpaceOnUse" x2="45.448" gradientTransform="scale(1.0059 .99417)" y1="92.54" x1="45.448">
   <stop id="stop3750" offset="0"/>
   <stop id="stop3752" style="stop-opacity:.58824" offset="1"/>
  </linearGradient>
  <linearGradient id="linearGradient3737">
   <stop id="stop3739" style="stop-color:#fff" offset="0"/>
   <stop id="stop3741" style="stop-color:#fff;stop-opacity:0" offset="1"/>
  </linearGradient>
  <filter id="filter3174" color-interpolation-filters="sRGB">
   <feGaussianBlur id="feGaussianBlur3176" stdDeviation="1.71"/>
  </filter>
  <linearGradient id="linearGradient3188" y2="63.893" xlink:href="#linearGradient3737" gradientUnits="userSpaceOnUse" x2="36.357" y1="6" x1="36.357"/>
  <filter id="filter3794" height="1.384" width="1.384" color-interpolation-filters="sRGB" y="-.192" x="-.192">
   <feGaussianBlur id="feGaussianBlur3796" stdDeviation="5.28"/>
  </filter>
  <linearGradient id="linearGradient3613" y2="138.66" xlink:href="#linearGradient3737" gradientUnits="userSpaceOnUse" x2="48" y1="20.221" x1="48"/>
  <radialGradient id="radialGradient3619" xlink:href="#linearGradient3737" gradientUnits="userSpaceOnUse" cy="90.172" cx="48" gradientTransform="matrix(1.1573 0 0 .99591 -7.551 .19713)" r="42"/>
  <clipPath id="clipPath3613">
   <rect id="rect3615" style="fill:#fff" rx="6" ry="6" height="84" width="84" y="6" x="6"/>
  </clipPath>
  <linearGradient id="ButtonShadow-0" y2="7.0165" gradientUnits="userSpaceOnUse" x2="45.448" gradientTransform="matrix(1.0059 0 0 .99417 100 0)" y1="92.54" x1="45.448">
   <stop id="stop3750-8" offset="0"/>
   <stop id="stop3752-5" style="stop-opacity:.58824" offset="1"/>
  </linearGradient>
  <linearGradient id="linearGradient3721" y2="90.239" xlink:href="#ButtonShadow-0" gradientUnits="userSpaceOnUse" x2="32.251" gradientTransform="matrix(1,0,0,-1,0,97)" y1="6.1317" x1="32.251"/>
  <linearGradient id="linearGradient3686" y2="13.155" gradientUnits="userSpaceOnUse" x2="59.445" gradientTransform="matrix(.97368 0 0 .97368 1.2632 1.2633)" y1="69.246" x1="59.445">
   <stop id="stop3682" style="stop-color:#ebebeb" offset="0"/>
   <stop id="stop3684" style="stop-color:#fff" offset="1"/>
  </linearGradient>
  <linearGradient id="linearGradient3711" y2="8" xlink:href="#linearGradient3705" gradientUnits="userSpaceOnUse" x2="32" gradientTransform="translate(90)" y1="80" x1="72"/>
  <linearGradient id="linearGradient3719" y2="16" xlink:href="#linearGradient3705" gradientUnits="userSpaceOnUse" x2="32" gradientTransform="translate(90)" y1="80" x1="72"/>
  <linearGradient id="linearGradient3791" y2="87.004" gradientUnits="userSpaceOnUse" x2="60.595" gradientTransform="matrix(.97368 0 0 .97368 1.2632 1.2633)" y1="40" x1="48">
   <stop id="stop3787" style="stop-color:#b77223" offset="0"/>
   <stop id="stop3789" style="stop-color:#b27024" offset="1"/>
  </linearGradient>
  <linearGradient id="linearGradient3812" y2="5.9877" gradientUnits="userSpaceOnUse" x2="48" y1="90" x1="48">
   <stop id="stop3955" style="stop-color:#d78a26" offset="0"/>
   <stop id="stop3957" style="stop-color:#eaac5e" offset="1"/>
  </linearGradient>
  <linearGradient id="linearGradient3822" y2="16.5" xlink:href="#linearGradient3816" gradientUnits="userSpaceOnUse" x2="23" gradientTransform="matrix(0,-1,-1,0,33,33)" y1="16.5" x1="10"/>
  <linearGradient id="linearGradient3830" y2="16.5" xlink:href="#linearGradient3816" gradientUnits="userSpaceOnUse" x2="23" gradientTransform="matrix(0,1,-1,0,33,0)" y1="16.5" x1="10"/>
  <linearGradient id="linearGradient3847" y2="90.239" xlink:href="#ButtonShadow-0" gradientUnits="userSpaceOnUse" x2="32.251" gradientTransform="matrix(1.0238 0 0 -1.0119 -1.1429 98.071)" y1="6.1317" x1="32.251"/>
  <linearGradient id="linearGradient4205" y2="-22.609" gradientUnits="userSpaceOnUse" x2="45.963" gradientTransform="translate(100)" y1="51.297" x1="47.475">
   <stop id="stop4201" style="stop-color:#fff" offset="0"/>
   <stop id="stop4203" style="stop-color:#fff;stop-opacity:0" offset="1"/>
  </linearGradient>
  <linearGradient id="linearGradient4430" y2="85.237" gradientUnits="userSpaceOnUse" x2="35.951" gradientTransform="matrix(.97368 0 0 .97368 1.2632 1.2633)" y1="9.966" x1="35.951">
   <stop id="stop4434" style="stop-color:#e7b67d;stop-opacity:.71373" offset="0"/>
   <stop id="stop4436" style="stop-color:#e2ac6e" offset="1"/>
  </linearGradient>
 </defs>
 <metadata id="metadata2413">
  <rdf:RDF>
   <cc:Work rdf:about="">
    <dc:format>image/svg+xml</dc:format>
    <dc:type rdf:resource="http://purl.org/dc/dcmitype/StillImage"/>
    <dc:title/>
   </cc:Work>
  </rdf:RDF>
 </metadata>
 <g id="layer2" style="display:none">
  <rect id="rect3745" style="opacity:.9;filter:url(#filter3174);fill:url(#ButtonShadow)" rx="6" ry="6" height="85" width="86" y="7" x="5"/>
 </g>
 <g id="layer3">
  <path id="path3873" style="opacity:0.08;fill:url(#linearGradient3847)" d="m12 3.9375c-5.5276 0-10.062 4.5349-10.062 10.062v71c0 5.5276 4.5349 10.062 10.062 10.062h72c5.5276 0 10.062-4.5349 10.062-10.062v-71c0-5.5276-4.534-10.062-10.062-10.062h-72zm3.75 12.188c0.95347 0 1.5312 0.60072 1.5312 1.5s-0.57778 1.5-1.5312 1.5c-0.95347 0-1.5312-0.60072-1.5312-1.5s0.57778-1.5 1.5312-1.5z"/>
  <path id="path3864" style="opacity:.1;fill:url(#linearGradient3847)" d="m12 5.0938c-4.9036 0-8.9062 4.0026-8.9062 8.9062v71c0 4.9036 4.0027 8.9062 8.9062 8.9062h72c4.9036 0 8.9062-4.0027 8.9062-8.9062v-71c0-4.9036-4.002-8.9062-8.906-8.9062h-72zm3.75 9.875c1.5343 0 2.6875 1.1655 2.6875 2.6562s-1.1532 2.6562-2.6875 2.6562-2.6875-1.1655-2.6875-2.6562 1.1532-2.6562 2.6875-2.6562z"/>
  <path id="path3856" style="opacity:.2;fill:url(#linearGradient3847)" d="m12 5.9375c-4.444 0-8.0625 3.6185-8.0625 8.0625v71c0 4.444 3.6185 8.0625 8.0625 8.0625h72c4.444 0 8.0625-3.6185 8.0625-8.0625v-71c0-4.444-3.618-8.0625-8.062-8.0625h-72zm3.75 8.1875c1.9787 0 3.5312 1.558 3.5312 3.5s-1.5526 3.5-3.5312 3.5c-1.9787 0-3.5312-1.558-3.5312-3.5s1.5526-3.5 3.5312-3.5z"/>
  <path id="path3845" style="opacity:.3;fill:url(#linearGradient3847)" d="m12 7c-3.878 0-7 3.122-7 7v71c0 3.878 3.122 7 7 7h72c3.878 0 7-3.122 7-7v-71c0-3.878-3.122-7-7-7h-72zm3.75 6.0625c2.5445 0 4.5938 2.0476 4.5938 4.5625s-2.0493 4.5625-4.5938 4.5625-4.5938-2.0476-4.5938-4.5625 2.0493-4.5625 4.5938-4.5625z"/>
  <path id="rect3716" style="opacity:.45;fill:url(#linearGradient3721)" d="m12 7c-3.324 0-6 2.676-6 6v72c0 3.324 2.676 6 6 6h72c3.324 0 6-2.676 6-6v-72c0-3.324-2.676-6-6-6h-72zm4.5 6c2.485 0 4.5 2.015 4.5 4.5s-2.015 4.5-4.5 4.5-4.5-2.015-4.5-4.5 2.015-4.5 4.5-4.5z"/>
 </g>
 <g id="layer1">
  <path id="rect2419" style="fill:url(#linearGradient3812)" d="m12 6c-3.324 0-6 2.676-6 6v72c0 3.324 2.676 6 6 6h72c3.324 0 6-2.676 6-6v-72c0-3.324-2.676-6-6-6h-72zm4.5 4c3.59 0 6.5 2.91 6.5 6.5s-2.91 6.5-6.5 6.5-6.5-2.91-6.5-6.5 2.91-6.5 6.5-6.5z"/>
  <path id="rect3728" style="opacity:.4;fill:url(#linearGradient3188)" d="m12 6c-3.324 0-6 2.676-6 6v2 68 2c0 0.33472 0.04135 0.6507 0.09375 0.96875 0.0487 0.2956 0.09704 0.59692 0.1875 0.875 0.00988 0.03038 0.020892 0.0636 0.03125 0.09375 0.098865 0.28777 0.23488 0.54745 0.375 0.8125 0.14459 0.27351 0.31562 0.53562 0.5 0.78125 0.18438 0.24564 0.37378 0.47347 0.59375 0.6875 0.43995 0.42806 0.94291 0.81453 1.5 1.0938 0.27854 0.13961 0.57347 0.24695 0.875 0.34375-0.2562-0.10022-0.48671-0.23627-0.71875-0.375-0.00741-0.0044-0.023866 0.0045-0.03125 0-0.031933-0.0193-0.062293-0.04251-0.09375-0.0625-0.1204-0.0767-0.23102-0.16351-0.34375-0.25-0.10617-0.0808-0.21328-0.16111-0.3125-0.25-0.1778-0.162-0.3473-0.346-0.4999-0.531-0.1075-0.131-0.2183-0.266-0.3124-0.407-0.0251-0.038-0.0385-0.086-0.0626-0.125-0.0647-0.103-0.1302-0.204-0.1874-0.312-0.1011-0.195-0.2057-0.416-0.2813-0.625-0.008-0.022-0.0236-0.041-0.0313-0.063-0.0318-0.092-0.0358-0.187-0.0624-0.281-0.0304-0.107-0.0704-0.203-0.0938-0.313-0.0729-0.341-0.125-0.698-0.125-1.062v-2-68-2c0-2.782 2.2182-5 5-5h2 68 2c2.7818 0 5 2.2182 5 5v2 68 2c0 0.3643-0.05212 0.72099-0.125 1.0625-0.04415 0.20689-0.08838 0.39766-0.15625 0.59375-0.0077 0.02195-0.0233 0.04069-0.03125 0.0625-0.06274 0.17374-0.13838 0.36745-0.21875 0.53125-0.04158 0.0828-0.07904 0.16995-0.125 0.25-0.0546 0.09721-0.12677 0.18835-0.1875 0.28125-0.09411 0.14096-0.20492 0.276-0.3125 0.40625-0.14317 0.17445-0.30314 0.347-0.46875 0.5-0.01117 0.0102-0.01998 0.02115-0.03125 0.03125-0.13839 0.12556-0.28509 0.23444-0.4375 0.34375-0.10257 0.07315-0.20432 0.15336-0.3125 0.21875-0.0074 0.0045-0.02384-0.0044-0.03125 0-0.23204 0.13873-0.46255 0.27478-0.71875 0.375 0.30153-0.0968 0.59646-0.20414 0.875-0.34375 0.55709-0.27922 1.0601-0.66569 1.5-1.0938 0.21997-0.21403 0.40937-0.44186 0.59375-0.6875s0.35541-0.50774 0.5-0.78125c0.14012-0.26505 0.27614-0.52473 0.375-0.8125 0.01041-0.03078 0.02133-0.06274 0.03125-0.09375 0.09046-0.27808 0.1388-0.5794 0.1875-0.875 0.053-0.318 0.094-0.634 0.094-0.969v-2-68-2c0-3.324-2.676-6-6-6h-72z"/>
  <path id="path3615" style="opacity:.2;fill:url(#radialGradient3619)" d="m12 90c-3.324 0-6-2.676-6-6v-2-68-2c0-0.33472 0.04135-0.6507 0.09375-0.96875 0.0487-0.2956 0.09704-0.59692 0.1875-0.875 0.0099-0.03 0.0209-0.063 0.0313-0.094 0.0989-0.2873 0.2349-0.547 0.375-0.812 0.1446-0.2735 0.3156-0.5356 0.5-0.7812 0.1844-0.2457 0.3738-0.4735 0.5937-0.6876 0.44-0.428 0.943-0.8145 1.5-1.0937 0.2786-0.1396 0.5735-0.2469 0.8748-0.3437-0.256 0.1002-0.4865 0.2362-0.7185 0.375-0.00741 0.0044-0.023866-0.0045-0.03125 0-0.031933 0.0193-0.062293 0.04251-0.09375 0.0625-0.1204 0.0767-0.23102 0.16351-0.34375 0.25-0.10617 0.0808-0.21328 0.16111-0.3125 0.25-0.1779 0.1614-0.3474 0.3453-0.5 0.5312-0.1075 0.1303-0.2183 0.2653-0.3124 0.4063-0.0251 0.0383-0.0385 0.0858-0.0626 0.125-0.0647 0.103-0.1302 0.2045-0.1874 0.3124-0.1011 0.1948-0.2057 0.4158-0.2813 0.625-0.008 0.0219-0.0236 0.0406-0.0313 0.0626-0.0318 0.0919-0.0358 0.1868-0.0624 0.2812-0.0304 0.1066-0.0704 0.203-0.0938 0.3125-0.0729 0.3415-0.125 0.6985-0.125 1.0625v2 68 2c0 2.7818 2.2182 5 5 5h2 68 2c2.7818 0 5-2.2182 5-5v-2-68-2c0-0.364-0.052-0.721-0.125-1.0625-0.044-0.2069-0.088-0.3977-0.156-0.5937-0.008-0.022-0.024-0.0407-0.031-0.0626-0.063-0.1737-0.139-0.3674-0.219-0.5312-0.042-0.0828-0.079-0.17-0.125-0.25-0.055-0.0972-0.127-0.1884-0.188-0.2812-0.094-0.141-0.205-0.276-0.312-0.4063-0.143-0.1745-0.303-0.347-0.469-0.5-0.011-0.0102-0.02-0.0211-0.031-0.0313-0.139-0.1255-0.285-0.2344-0.438-0.3437-0.102-0.0731-0.204-0.1534-0.312-0.2187-0.0074-0.0045-0.02384 0.0044-0.03125 0-0.23204-0.13873-0.46255-0.27478-0.71875-0.375 0.30153 0.0968 0.59646 0.20414 0.875 0.34375 0.55709 0.27922 1.0601 0.66569 1.5 1.0938 0.21997 0.21403 0.40937 0.44186 0.59375 0.6875s0.35541 0.50774 0.5 0.78125c0.14012 0.26505 0.27614 0.52473 0.375 0.8125 0.01041 0.03078 0.02133 0.06274 0.03125 0.09375 0.09046 0.27808 0.1388 0.5794 0.1875 0.875 0.053 0.318 0.094 0.634 0.094 0.969v2 68 2c0 3.324-2.676 6-6 6h-72z"/>
  <path id="rect3648" style="color:#000000;fill:url(#linearGradient3686)" d="m28.526 12.947v3.8947c0 5.9152-4.7953 10.711-10.711 10.711h-4.8684v51.605c0 2.1577 1.7371 3.8947 3.8947 3.8947h62.316c2.1577 0 3.8947-1.737 3.8947-3.8947v-62.316c0-2.1577-1.7371-3.8947-3.8947-3.8947h-50.632z"/>
  <rect id="rect3666" style="opacity:.4;color:#000000" rx="4" ry="4" height="72" width="72" y="12" x="112"/>
  <path id="path3671" style="opacity:.4;color:#000000" d="m112 1v5.1875c-2.39 1.2184-4.24 3.2981-5.22 5.8125h-5.78v15h16c6.0751 0 11-4.9249 11-11v-15h-16z"/>
  <path id="path3673" style="opacity:.4;color:#000000" d="m184 1v5.1875c2.386 1.2184 4.2351 3.2981 5.2188 5.8125h5.78v15h-16c-6.0751 0-11-4.9249-11-11v-15h16z"/>
  <path id="path3675" style="opacity:.4;color:#000000" d="m112 95v-5.1875c-2.39-1.218-4.24-3.298-5.22-5.812h-5.78v-15h16c6.0751 0 11 4.9249 11 11v15h-16z"/>
  <path id="path3677" style="opacity:.4;color:#000000" d="m184 95v-5.1875c2.386-1.2184 4.2351-3.2981 5.2188-5.8125h5.78v-15h-16c-6.0751 0-11 4.9249-11 11v15h16z"/>
  <path id="path3690" style="opacity:.8;color:#000000;fill:url(#linearGradient3711)" d="m119.97 13.969v2.0312c0 7.1466-5.8221 12.969-12.969 12.969h-3.0312v51.031c0 1.1519 0.87933 2.0312 2.0312 2.0312h64c1.1519 0 2.0312-0.87933 2.0312-2.0312v-64c0-1.1519-0.87933-2.0312-2.0312-2.0312h-50.031zm2.03 2.031h48v64h-64v-49h1c8.2372 0 15-6.7628 15-15z"/>
  <path id="path3697" style="color:#000000;fill:url(#linearGradient3719)" d="m123.75 17.938c-0.94478 8.0826-7.6004 14.442-15.812 14.906v45.219h60.125v-60.125h-44.312zm0.875 1.0938h42.344v57.938h-57.938v-43.188c7.9191-0.91601 14.238-6.9635 15.594-14.75z"/>
  <path id="path4192" style="opacity:.6;color:#000000;fill:url(#linearGradient4205)" d="m128 12v4c0 6.0751-4.9249 11-11 11h-5v34.031c13.56-10.157 34.45-16.656 57.88-16.656 4.8355 0 9.5482 0.25184 14.125 0.78125v-29.156c0-2.216-1.784-4-4-4h-52z"/>
  <path id="path3764" style="opacity:.1;color:#000000;fill:#a06e2c" d="m28.526 12.947v3.8947c0 5.9152-4.7953 10.711-10.711 10.711h-4.8684v51.605c0 2.1577 1.7371 3.8947 3.8947 3.8947h62.316c2.1577 0 3.8947-1.737 3.8947-3.8947v-62.316c0-2.1577-1.7371-3.8947-3.8947-3.8947h-50.632zm2.0387 2.0386h48.593c1.0555 0 1.8561 0.80061 1.8561 1.8561v62.316c0 1.0555-0.80061 1.8561-1.8561 1.8561h-62.316c-1.0555 0-1.8561-0.80061-1.8561-1.8561v-49.567h2.8298c7.0251 0 12.749-5.724 12.749-12.749v-1.8561z"/>
  <path id="path3758" style="opacity:.3;color:#000000;fill:#a06e2c" d="m28.526 12.947v3.8947c0 5.9152-4.7953 10.711-10.711 10.711h-4.8684v51.605c0 2.1577 1.7371 3.8947 3.8947 3.8947h62.316c2.1577 0 3.8947-1.737 3.8947-3.8947v-62.316c0-2.1577-1.7371-3.8947-3.8947-3.8947h-50.632zm0.94326 0.94326h49.688c1.6433 0 2.9515 1.3082 2.9515 2.9515v62.316c0 1.6433-1.3082 2.9515-2.9515 2.9515h-62.316c-1.6433 0-2.9515-1.3082-2.9515-2.9515v-50.662h3.9252c6.4332 0 11.654-5.2206 11.654-11.654v-2.9515z"/>
  <path id="path4421" style="color:#000000;fill:url(#linearGradient4430)" d="m28.344 11a1.9573 1.9573 0 0 0 -1.7648 1.9474v3.8947c0 4.8576-3.9056 8.7631-8.7632 8.7631h-4.8684a1.9573 1.9573 0 0 0 -1.948 1.948v51.605c0 3.208 2.634 5.842 5.842 5.842h62.316c3.208 0 5.842-2.634 5.842-5.842v-62.316c0-3.208-2.634-5.842-5.842-5.842h-50.632a1.9573 1.9573 0 0 0 -0.18257 0zm0.12171 1.8865a0.066059 0.066059 0 0 1 0.03043 0 0.066059 0.066059 0 0 1 0.03043 0h50.632c2.1931 0 3.9556 1.7625 3.9556 3.9556v62.316c0 2.1931-1.7625 3.9556-3.9556 3.9556h-62.316c-2.1931 0-3.9556-1.7625-3.9556-3.9556v-51.605a0.066059 0.066059 0 0 1 0 -0.03043 0.066059 0.066059 0 0 1 0.03043 -0.03043 0.066059 0.066059 0 0 1 0.03043 0h4.8684c5.8796 0 10.65-4.7701 10.65-10.65v-3.8947a0.066059 0.066059 0 0 1 0 -0.03043 0.066059 0.066059 0 0 1 0 -0.03043z"/>
  <path id="path3776" style="color:#000000;fill:url(#linearGradient3791)" d="m28.344 12.035a0.91578 0.91578 0 0 0 -0.73026 0.91283v3.8947c0 5.4204-4.3773 9.7977-9.7977 9.7977h-4.8684a0.91578 0.91578 0 0 0 -0.91283 0.91283v51.605c0 2.6491 2.1584 4.8076 4.8076 4.8076h62.316c2.6491 0 4.8076-2.1584 4.8076-4.8076v-62.316c0-2.6491-2.1584-4.8076-4.8076-4.8076h-50.632a0.91578 0.91578 0 0 0 -0.09128 0 0.91578 0.91578 0 0 0 -0.09128 0zm0.18257 0.91283h50.632c2.1577 0 3.8947 1.737 3.8947 3.8947v62.316c0 2.1577-1.7371 3.8947-3.8947 3.8947h-62.316c-2.1577 0-3.8947-1.737-3.8947-3.8947v-51.605h4.8684c5.9153 0 10.711-4.7953 10.711-10.711v-3.8947z"/>
  <path id="path3793" style="opacity:.4;color:#000000" d="m21 16a5 5 0 1 1 -10 0 5 5 0 1 1 10 0z" transform="matrix(1.3,0,0,1.3,-34.3,-4.3)"/>
  <g id="g4442">
   <path id="path4438" style="opacity:.3;color:#000000;fill:#ba782c" d="m23.991 16.5c0-4.1373-3.354-7.4913-7.4913-7.4913s-7.4913 3.354-7.4913 7.4913 3.354 7.4913 7.4913 7.4913 7.4913-3.354 7.4913-7.4913zm-1.1525 0c0 3.5008-2.838 6.3388-6.3388 6.3388s-6.3388-2.838-6.3388-6.3388 2.838-6.3388 6.3388-6.3388 6.3388 2.838 6.3388 6.3388z"/>
   <path id="path3799" style="color:#000000;fill:url(#linearGradient3822)" d="m23 16.5c0 3.59-2.91 6.5-6.5 6.5s-6.5-2.91-6.5-6.5 2.91-6.5 6.5-6.5c3.5899 0 6.5 2.9101 6.5 6.5zm-2 0c0-2.485-2.015-4.5-4.5-4.5s-4.5 2.015-4.5 4.5c0 2.4853 2.0147 4.5 4.5 4.5s4.5-2.0147 4.5-4.5z"/>
   <path id="path2874" style="color:#000000;fill:url(#linearGradient3830)" d="m23 16.5c0-3.59-2.91-6.5-6.5-6.5s-6.5 2.91-6.5 6.5c0 3.5899 2.9101 6.5 6.5 6.5s6.5-2.9101 6.5-6.5zm-1 0c0 3.038-2.462 5.5-5.5 5.5s-5.5-2.462-5.5-5.5 2.462-5.5 5.5-5.5c3.0376 0 5.5 2.4624 5.5 5.5z"/>
   <path id="path3832" style="color:#000000;fill:#ba772b" d="m10.031 17.156c-0.006 0.116-0.031 0.226-0.031 0.344 0 3.59 2.91 6.5 6.5 6.5s6.5-2.91 6.5-6.5c0-0.118-0.025-0.228-0.031-0.344-0.333 3.278-3.104 5.844-6.469 5.844s-6.136-2.566-6.469-5.844z"/>
  </g>
 </g>
 <g id="layer4">
  <path id="path4038" style="fill:#333" d="m20.062 42.688c-0.36619-0.0022-0.5608 0.1466-0.5625 0.4375-0.000408 0.11633 0.04664 0.2018 0.125 0.28125 0.07837 0.07945 0.16778 0.12428 0.28125 0.125 0.0962 0.0005 0.20383-0.0086 0.34375-0.03125 0.06121-0.01518 0.15876-0.0321 0.28125-0.03125 0.44591 0.0023 0.65985 0.32296 0.65625 0.9375l-0.031 4.968c-0.004 0.623-0.21 0.94-0.656 0.937-0.087 0-0.185-0.006-0.281-0.031-0.192-0.017-0.3-0.031-0.344-0.031-0.27104-0.0015-0.40455 0.13986-0.40625 0.40625-0.0018 0.30017 0.16352 0.4352 0.53125 0.4375 0.0088 0.000118 0.05015-0.000055 0.09375 0 0.04384-0.01053 0.08993-0.000213 0.125 0 0.78798-0.04367 1.5834-0.0675 2.4062-0.0625 0.54258 0.0033 1.1934 0.01025 1.9375 0.03125 0.74378 0.02171 1.0614 0.03181 1 0.03125 0.28006 0.0017 0.48863 0.02215 0.59375 0.03125 0.21002 0.01776 0.37232 0.03047 0.46875 0.03125 0.40255 0.0025 0.59135-0.20332 0.59375-0.59375 0.00093-0.11629 0.0093-0.30302 0-0.53125-0.0095-0.2285-0.03221-0.3832-0.03125-0.5 0.00097-0.14905 0.01858-0.38011 0.03125-0.6875 0.01269-0.30713-0.000747-0.53792 0-0.6875 0.0023-0.38192-0.13944-0.5604-0.46875-0.5625-0.31204-0.0019-0.46655 0.15809-0.46875 0.53125-0.00076 0.12481-0.01353 0.31772 0 0.5625 0.01382 0.2448 0.03199 0.43794 0.03125 0.5625-0.0022 0.39819-0.11894 0.66885-0.3125 0.8125-0.19361 0.14442-0.54595 0.22175-1.0625 0.21875l-1.781-0.031c-0.359-0.002-0.591-0.035-0.687-0.094-0.131-0.083-0.181-0.261-0.188-0.594 0.001-0.091-0.024-0.288-0.031-0.562-0.0073-0.22421-0.000569-0.39842 0-0.53125v-0.78125c0.0014-0.27337 0.03646-0.44896 0.09375-0.53125 0.05732-0.0828 0.215-0.1266 0.46875-0.125h0.59375c0.49849 0.003 0.7521 0.20507 0.75 0.5625-0.00068 0.09154-0.0088 0.20015-0.03125 0.375-0.02268 0.17457-0.03083 0.31469-0.03125 0.40625-0.0023 0.34916 0.13113 0.52945 0.4375 0.53125 0.31514 0.0019 0.46695-0.13784 0.46875-0.4375 0.00058-0.10806-0.0063-0.25433-0.03125-0.4375-0.03355-0.22482-0.0542-0.37085-0.0625-0.4375-0.03433-0.42456-0.03218-0.73991-0.03125-0.90625 0.0017-0.29116 0.0109-0.61803 0.0625-1 0.06005-0.44896 0.09357-0.71444 0.09375-0.78125 0.0021-0.35769-0.15772-0.52965-0.46875-0.53125-0.31074-0.0021-0.46665 0.1676-0.46875 0.5-0.00075 0.12456 0.0107 0.2479 0.03125 0.40625 0.02038 0.15756 0.03174 0.3067 0.03125 0.40625-0.0018 0.35745-0.26887 0.53445-0.8125 0.53125h-0.53125c-0.146-0.001-0.252-0.015-0.312-0.031-0.155-0.051-0.221-0.263-0.219-0.594v-0.15625c0.0003-0.04978-0.000628-0.1342 0-0.25 0.000872-0.11603-0.000403-0.18372 0-0.25v-0.5625c0.0024-0.40875 0.18584-0.66086 0.5625-0.75 0.11374-0.02451 0.47224-0.03485 1.0938-0.03125 0.94462 0.0058 1.5542 0.03223 1.7812 0.125 0.30508 0.12679 0.4418 0.55192 0.4375 1.25v0.65625c-0.0024 0.44074 0.15774 0.65445 0.46875 0.65625s0.46685-0.1531 0.46875-0.46875c0.00068-0.11656-0.03557-0.28988-0.0625-0.53125-0.01357-0.1163-0.0017-0.3341 0-0.625 0.00097-0.22413 0.01152-0.45289 0.03125-0.71875 0.02655-0.3567 0.0311-0.58996 0.03125-0.65625 0.0021-0.38271-0.20288-0.5599-0.65625-0.5625-0.11323-0.00043-0.26667-0.0072-0.40625 0-0.39241 0.02144-0.59515 0.0318-0.65625 0.03125l-3.1562 0.0625h-0.125c0.08743 0.000384-0.53633-0.03439-1.8438-0.125-0.12213-0.0093-0.179 0.000099-0.1875 0zm51.532 0.062c-1.1948-0.0071-2.1322 0.40073-2.8438 1.2188-0.71138 0.81881-1.0854 1.9331-1.0938 3.3125-0.0079 1.2876 0.34486 2.3233 1.0312 3.125 0.68637 0.80191 1.5895 1.2122 2.7188 1.2188 0.90104 0.0055 1.6149-0.22743 2.125-0.65625 0.11447-0.0988 0.26525-0.27506 0.46875-0.53125-0.0106 0.18241-0.02175 0.3316-0.03125 0.40625l-0.031 0.281c-0.0016 0.29013 0.16238 0.4357 0.46875 0.4375 0.3159 0.0019 0.46655-0.16193 0.46875-0.5 0.0007-0.09902-0.01616-0.23308-0.03125-0.40625-0.0151-0.17317-0.03255-0.37919-0.03125-0.59375l0.03125-0.96875c0.005-0.8082 0.17878-1.2209 0.5625-1.2188 0.02657 0.000114 0.08115-0.000073 0.125 0 0.04309 0.000017 0.07621 0.000022 0.09375 0 0.05236 0.0002 0.11405-0.0006 0.21875 0 0.12197 0.000816 0.21985-0.04243 0.3125-0.125 0.09163-0.08264 0.15582-0.16467 0.15625-0.28125 0.0015-0.27491-0.18181-0.4355-0.53125-0.4375-0.13154-0.00047-0.23837 0.01539-0.34375 0.03125-0.48099 0.07257-0.94638 0.1273-1.375 0.125-0.3324-0.0021-0.76186-0.04754-1.3125-0.125-0.14002-0.01889-0.26177-0.03081-0.375-0.03125-0.35871-0.0022-0.5606 0.14662-0.5625 0.4375-0.0016 0.28265 0.20439 0.40375 0.625 0.40625 0.07014 0.00043 0.18145 0.007 0.3125 0 0.1316-0.0075 0.24259-0.000149 0.3125 0 0.25326 0.0013 0.43106 0.04323 0.53125 0.15625 0.10015 0.11353 0.1269 0.31061 0.125 0.59375-0.0039 0.69244-0.1924 1.2206-0.5625 1.5938-0.36957 0.37293-0.88812 0.5663-1.5625 0.5625-0.8755-0.0055-1.5406-0.31798-2.0312-0.96875-0.4906-0.65129-0.7569-1.5634-0.75-2.7188 0.0062-1.0888 0.26526-1.9417 0.75-2.5625 0.4837-0.62061 1.1528-0.9425 2-0.9375 0.67306 0.0043 1.1982 0.19566 1.5938 0.53125 0.39553 0.33534 0.59705 0.76943 0.59375 1.3438v0.375c-0.0024 0.40746 0.1611 0.6232 0.46875 0.625 0.32544 0.0021 0.46645-0.18806 0.46875-0.5625-0.000543-0.0746 0-0.125 0-0.125-0.03935-0.51574-0.06335-0.84191-0.0625-1 0.00074-0.19938 0.03132-0.38803 0.0625-0.5625l0.093-0.593c0.0096-0.05813 0.03031-0.13345 0.03125-0.25 0.0016-0.35747-0.15284-0.5606-0.46875-0.5625-0.2896-0.0018-0.4357 0.13161-0.4375 0.40625 0.00034 0.01679 0.01619 0.11479 0.03125 0.28125-0.00018 0.01676-0.0057 0.10204 0.03125 0.21875-0.707-0.628-1.496-0.964-2.374-0.969zm-20.906 0.125c-0.33191-0.0018-0.4977 0.1511-0.5 0.5 0.00042-0.06653 0.0053 0.12203 0.03125 0.5625 0.01343 0.22465 0.0013 0.44866 0 0.65625-0.00033 0.10808-0.0073 0.35132-0.03125 0.75-0.02334 0.26585-0.03068 0.4547-0.03125 0.5625-0.0026 0.38242 0.17636 0.59175 0.5 0.59375 0.34119 0.002 0.497-0.25774 0.5-0.78125 0.00084-0.13306 0.0088-0.23756 0-0.3125l-0.0625-0.46875c-0.0083-0.0749-0.0011-0.22938 0-0.4375 0.0036-0.58126 0.30774-0.8787 0.9375-0.875l0.40625 0.03125c0.63773 0.004 0.97215 0.28495 0.96875 0.875l-0.03125 2.0312v1.0625 1.0938 0.875c-0.004 0.62303-0.2509 0.9402-0.6875 0.9375-0.07016-0.00017-0.17241-0.0098-0.3125-0.03125-0.13987-0.02094-0.24261-0.03084-0.3125-0.03125-0.27955-0.0016-0.40425 0.10863-0.40625 0.375-0.0017 0.29064 0.17746 0.4355 0.5625 0.4375 0.01753 0.000234 0.05017 0.03094 0.09375 0.03125 0.03466-0.0083 0.0672-0.03162 0.09375-0.03125l0.655-0.092c0.25413-0.03221 0.54234-0.03335 0.875-0.03125 0.30613 0.0015 0.59912 0.02754 0.84375 0.0625l0.625 0.09375c0.01753 0.00024 0.0495-0.0089 0.09375 0 0.03456 0.000175 0.07622-0.000234 0.09375 0 0.39404 0.0024 0.59185-0.14662 0.59375-0.4375 0.000328-0.10808-0.04227-0.20148-0.125-0.28125-0.08302-0.07927-0.19903-0.12428-0.3125-0.125-0.07042-0.00019-0.17229 0.01171-0.3125 0.03125-0.14049 0.0198-0.24263 0.03191-0.3125 0.03125-0.44664-0.0029-0.66005-0.3142-0.65625-0.9375l0.032-4.219 0.062-0.875c0.01904-0.29919 0.07817-0.52812 0.21875-0.65625 0.14056-0.12787 0.39536-0.1895 0.71875-0.1875h0.34375c0.68985 0.0039 1.0344 0.29887 1.0312 0.875-0.0011 0.15033-0.0047 0.35993-0.03125 0.65625-0.02632 0.29634-0.03015 0.53716-0.03125 0.6875-0.0026 0.41776 0.13789 0.623 0.46875 0.625 0.34 0.002 0.53-0.159 0.531-0.5 0.001-0.083-0.031-0.307-0.062-0.656-0.025-0.266-0.032-0.469-0.031-0.594v-0.125c0.02686-0.25734 0.07107-0.49413 0.09375-0.71875 0.02314-0.22382 0.03065-0.38546 0.03125-0.46875v-0.03125c0.0022-0.3404-0.21966-0.4973-0.65625-0.5-0.2009-0.0011-0.48577 0.01145-0.84375 0.03125-0.40158 0.01976-0.67792 0.03214-0.84375 0.03125-0.7595 0.01014-1.2314 0.001-1.4062 0h-1.5c-0.672-0.038-1.019-0.063-1.063-0.064-0.445-0.029-0.722-0.03-0.843-0.031zm11.844 0c-0.41082-0.0023-0.67038 0.18187-0.8125 0.53125l-2.5 6.2812c-0.12433 0.3246-0.19747 0.49612-0.25 0.5625-0.12404 0.17421-0.29477 0.28265-0.53125 0.28125h-0.1875c-0.03508-0.0322-0.08559-0.06204-0.15625-0.0625-0.33189-0.0021-0.4981 0.14739-0.5 0.4375-0.0017 0.2731 0.15909 0.40405 0.5 0.40625 0.11372 0.00074 0.3174-0.0061 0.5625-0.03125l0.53125-0.0625c0.12165-0.0126 0.34988-0.0018 0.65625 0 0.27979 0.0019 0.47128-0.0153 0.59375 0l0.65625 0.09375c0.12185 0.0168 0.21085 0.03081 0.28125 0.03125 0.39406 0.0022 0.59155-0.13319 0.59375-0.40625 0.0013-0.28963-0.17254-0.4353-0.53125-0.4375-0.07865-0.00053-0.18192-0.01514-0.34375 0-0.16182 0.01511-0.28784 0.03187-0.375 0.03125-0.34142-0.0022-0.53315-0.14065-0.53125-0.40625 0.00058-0.08303 0.02653-0.15921 0.0625-0.25l0.40625-0.96875c0.10629-0.25702 0.18443-0.41105 0.25-0.46875 0.0661-0.05791 0.16892-0.09505 0.34375-0.09375l2.3438 0.03125c0.17457 0.0013 0.28711 0.02874 0.34375 0.0625 0.05589 0.03345 0.10497 0.11704 0.15625 0.25l0.46875 1.2188c0.06911 0.1825 0.12576 0.28056 0.125 0.3125-0.0012 0.22411-0.14946 0.34575-0.4375 0.34375-0.07893-0.00029-0.19072-0.014-0.34375-0.03125-0.15333-0.01676-0.29635-0.03073-0.375-0.03125-0.38478-0.002-0.561 0.12488-0.5625 0.40625-0.0015 0.28136 0.1813 0.4354 0.53125 0.4375 0.09566 0.00072 0.22226-0.01642 0.40625-0.03125 0.72696-0.0597 1.2698-0.0642 1.5938-0.0625 0.27156 0.0016 0.66832 0.02766 1.2188 0.09375 0.15734 0.01834 0.2788 0.03075 0.375 0.03125 0.33345 0.0019 0.4986-0.14735 0.5-0.4375 0.0011-0.27288-0.16706-0.40435-0.5-0.40625l-0.345 0.032c-0.03484 0.01093-0.11787 0.000388-0.1875 0-0.22772-0.0012-0.378-0.06207-0.5-0.1875-0.12121-0.12563-0.25961-0.38985-0.40625-0.78125l-2.3125-6.1875c-0.13-0.349-0.41-0.528-0.813-0.531zm-0.0625 1.0312 1.1875 3.4375c0.01655 0.04995 0.000161 0.07725 0 0.09375-0.00066 0.06625-0.05153 0.09409-0.15625 0.09375h-2.0625c-0.131-0.000952-0.219-0.0502-0.21875-0.125 0.00061-0.0085 0.01344-0.01244 0.03125-0.0625l1.2188-3.4375zm-31.062 0.75c-0.69112-0.0043-1.2626 0.17093-1.75 0.5-0.48767 0.32931-0.7471 0.72229-0.75 1.1875-0.0012 0.21586 0.0663 0.41217 0.21875 0.5625 0.15247 0.15008 0.3663 0.21725 0.59375 0.21875 0.19263 0.0013 0.34132-0.04936 0.46875-0.15625 0.12799-0.10736 0.18656-0.23965 0.1875-0.40625 0.000953-0.19885-0.06532-0.35385-0.1875-0.4375-0.07867-0.05031-0.09381-0.09198-0.09375-0.125 0.000406-0.0913 0.05591-0.16766 0.1875-0.25 0.34224-0.2054 0.7002-0.3146 1.0938-0.3125 0.44587 0.0028 0.81434 0.11578 1.0625 0.3125 0.24791 0.1967 0.34595 0.44085 0.34375 0.78125-0.0021 0.35743-0.08861 0.6186-0.3125 0.75-0.22363 0.13141-0.70256 0.24229-1.4375 0.3125-0.51663 0.05529-0.86068 0.08882-1.0312 0.125-0.17086 0.03667-0.38805 0.12703-0.625 0.25-0.62298 0.3203-0.9334 0.81119-0.9375 1.5-0.0033 0.55626 0.20234 1.009 0.625 1.3438 0.42242 0.33444 0.97858 0.4957 1.6875 0.5 0.9534 0.0057 1.675-0.28759 2.125-0.90625 0.16272 0.59018 0.59507 0.8706 1.3125 0.875 0.87524 0.0055 1.3215-0.39061 1.3438-1.1875v-0.71875-0.0625c0.0025-0.39817-0.12153-0.59225-0.40625-0.59375-0.26716-0.0018-0.40485 0.14371-0.40625 0.40625v0.59375c-0.004 0.524-0.163 0.782-0.47 0.78-0.24525-0.0015-0.41799-0.14746-0.46875-0.4375-0.01679-0.07449-0.0024-0.29036 0-0.6875v-2.5312c0.0087-1.4483-0.78308-2.178-2.375-2.1875zm9.0312 0c-0.15775 0.05709-0.21748 0.20559-0.21875 0.4375v0.0625c-0.39072-0.29113-0.88439-0.434-1.4688-0.4375-0.74141-0.0046-1.348 0.17318-1.8125 0.53125-0.46447 0.35807-0.71525 0.82576-0.71875 1.4062-0.0036 0.61351 0.24747 1.0338 0.71875 1.2812 0.47126 0.24767 1.1611 0.43464 2.0625 0.53125 0.945 0.09692 1.4096 0.40501 1.4062 0.96875-0.0019 0.31488-0.15615 0.57584-0.4375 0.78125-0.28113 0.20595-0.63364 0.3151-1.0625 0.3125-0.59546-0.0036-1.0849-0.11787-1.4688-0.34375-0.38386-0.22536-0.58725-0.51927-0.59375-0.875-0.0068-0.35601-0.01485-0.57309-0.0625-0.65625-0.04791-0.08318-0.16014-0.1239-0.34375-0.125-0.2803-0.0019-0.4358 0.1466-0.4375 0.4375-0.00074 0.09953 0.02869 0.23147 0.0625 0.40625s0.03245 0.36316 0.03125 0.5625c-0.00068 0.11656-0.01328 0.22714-0.03125 0.34375-0.05553 0.49005-0.06284 0.71453-0.0625 0.65625-0.002 0.34119 0.1446 0.498 0.46875 0.5 0.2981 0.0019 0.46695-0.13758 0.46875-0.4375 0.000495-0.07504-0.000601-0.13546 0-0.21875 0.52976 0.39148 1.1508 0.58965 1.875 0.59375 0.77622 0.0048 1.3929-0.19641 1.875-0.5625 0.48207-0.36609 0.7468-0.84047 0.75-1.4375 0.0059-0.9784-0.76289-1.5817-2.25-1.7812l-0.751-0.094c-0.77007-0.10415-1.1596-0.40678-1.1562-0.9375 0.0016-0.29038 0.16477-0.55686 0.4375-0.75 0.27274-0.1934 0.59718-0.28355 1-0.28125 0.39404 0.0024 0.73902 0.10172 1.0312 0.28125 0.29222 0.17978 0.4302 0.40804 0.4375 0.65625v0.40625c0.0067 0.26493 0.16208 0.3734 0.4375 0.375 0.28393 0.0017 0.40455-0.15231 0.40625-0.46875 0.00078-0.10004 0.02021-0.2459 0-0.4375-0.021-0.192-0.033-0.338-0.032-0.438 0.00094-0.1666 0.0014-0.33394 0.03125-0.5 0.01549-0.1996 0.03101-0.32522 0.03125-0.375 0.0017-0.26639-0.14893-0.3732-0.4375-0.375-0.06995-0.000411-0.13492-0.01903-0.1875 0zm2 0.28125c-0.40257-0.0023-0.59225 0.15304-0.59375 0.4375-0.0015 0.26769 0.16236 0.40475 0.46875 0.40625 0.04356 0.00057 0.11428-0.0096 0.25-0.03125 0.13572-0.02167 0.22863-0.03144 0.28125-0.03125 0.19263 0.0013 0.35342 0.18814 0.5 0.5625l0.15625 0.375 1.4375 3.4688c0.23306 0.56637 0.34505 0.98017 0.34375 1.1875-0.0026 0.40667-0.1891 0.7678-0.5625 1.0938-0.37389 0.32566-0.78658 0.47155-1.25 0.46875-0.36748-0.0023-0.6203-0.09825-0.75-0.28125 0.25631-0.07307 0.3734-0.23464 0.375-0.5 0.00087-0.16557-0.05682-0.29387-0.1875-0.40625-0.1309-0.11291-0.29808-0.1863-0.5-0.1875-0.25401-0.0016-0.46654 0.08859-0.625 0.25-0.15844 0.16115-0.21685 0.36714-0.21875 0.625-0.0019 0.36596 0.17029 0.67716 0.53125 0.9375 0.36151 0.25987 0.81019 0.40305 1.3438 0.40625 0.89176 0.0054 1.6198-0.34289 2.2188-1.0625 0.35248-0.42215 0.72628-1.1254 1.125-2.0625l1.8125-4.2188c0.17762-0.42292 0.36491-0.62593 0.53125-0.625 0.04358 0.00031 0.10518 0.0034 0.21875 0.03125 0.04329 0.01858 0.13132 0.03086 0.21875 0.03125 0.28855 0.002 0.4357-0.13446 0.4375-0.40625 0.0017-0.28032-0.18626-0.4351-0.5625-0.4375-0.14856-0.00067-0.36726 0.02637-0.65625 0.0625-0.28893 0.03537-0.50769 0.06317-0.65625 0.0625-0.14003-0.00083-0.28392-0.0139-0.40625-0.03125l-0.471-0.063c-0.122-0.017-0.197-0.031-0.25-0.031-0.37648-0.0027-0.59225 0.15304-0.59375 0.4375-0.0018 0.26793 0.14737 0.3734 0.4375 0.375 0.04358 0.00031 0.14065 0.0177 0.28125 0 0.06169-0.01824 0.14453-0.03191 0.25-0.03125 0.20191 0.0014 0.31317 0.07742 0.3125 0.21875-0.0007 0.06677-0.01796 0.13351-0.0625 0.25l-1.625 4.156-1.5-4.219c-0.03455-0.10028-0.06243-0.18317-0.0625-0.25 0.000958-0.1168 0.0645-0.18839 0.1875-0.1875 0.05262 0.00019 0.13607 0.01192 0.25 0.03125 0.11395 0.01908 0.19738 0.03106 0.25 0.03125 0.33319 0.0019 0.4984-0.13006 0.5-0.40625 0.0016-0.27568-0.16377-0.40395-0.53125-0.40625-0.08769-0.0004-0.25996 0.0044-0.53125 0.03125-0.35939 0.03569-0.71584 0.0641-1.0312 0.0625-0.04358-0.00031-0.09497-0.02245-0.15625-0.03125-0.06087-0.00027-0.08525 0.000099-0.09375 0l-0.531-0.062c-0.07-0.01-0.181-0.031-0.312-0.031zm-9.6875 2.9688v0.875c-0.01172 0.52985-0.19244 0.94915-0.53125 1.25-0.341 0.3-0.823 0.472-1.409 0.469-0.411-0.002-0.729-0.097-0.968-0.281s-0.346-0.436-0.344-0.75c0.0035-0.60475 0.5065-0.94618 1.5-1.0312 0.54928-0.04648 0.91107-0.12247 1.125-0.1875 0.21366-0.0648 0.43227-0.1794 0.625-0.34375zm-6.346 10.719c-0.20159-0.000937-0.2803 0.06539-0.28125 0.21875-0.00059 0.06147 0.02185 0.11417 0.0625 0.15625 0.0407 0.04139 0.06527 0.06203 0.125 0.0625 0.05032 0.00014 0.1142 0.01323 0.1875 0 0.03207-0.0085 0.09198-0.0317 0.15625-0.03125 0.23408 0.0012 0.34545 0.17718 0.34375 0.5v2.625c-0.002 0.32699-0.14164 0.47025-0.375 0.46875-0.04577-0.00017-0.07432 0.0145-0.125 0-0.10036-0.009-0.16477-0.03135-0.1875-0.03125-0.14181-0.0012-0.21804 0.0783-0.21875 0.21875-0.0012 0.15754 0.08455 0.24907 0.28125 0.25 0.01363-0.000063 0.03945-0.000268 0.0625 0 0.02303-0.0042 0.0531-0.03158 0.0625-0.03125l0.312-0.031c0.15077-0.02122 0.30752-0.03255 0.5-0.03125 0.13275 0.00085 0.25573 0.01319 0.375 0.03125l0.375 0.0625c0.01364-0.0001 0.01342-0.0048 0.03125 0 0.02305 0.000267 0.0527-0.000008 0.0625 0 0.20122 0.0013 0.31162-0.09279 0.3125-0.25 0.001-0.14008-0.07691-0.18669-0.21875-0.1875-0.03703-0.00023-0.10022-0.01326-0.1875 0-0.05972 0.0089-0.11994 0.03178-0.15625 0.03125-0.23408-0.0012-0.34575-0.17266-0.34375-0.5l0.03125-2.625c0.0017-0.32282 0.11039-0.47025 0.34375-0.46875 0.0643 0.0001 0.09317-0.0093 0.125 0 0.0773 0.01361 0.1421 0.03077 0.1875 0.03125 0.05974 0.00047 0.11449-0.02148 0.15625-0.0625 0.04109-0.04142 0.06225-0.09476 0.0625-0.15625 0.000947-0.15337-0.07966-0.24906-0.28125-0.25-0.02727 0.0001-0.05709 0.02695-0.09375 0.03125l-0.3125 0.03125c-0.1696 0.02059-0.32689 0.03171-0.46875 0.03125-0.14671-0.0012-0.30044-0.01261-0.4375-0.03125l-0.374-0.062c-0.037-0.0055-0.06651 0.000221-0.09375 0zm2.6562 0.03125c-0.20649-0.000941-0.31168 0.06713-0.3125 0.21875-0.0013 0.13866 0.07691 0.18669 0.21875 0.1875 0.0412 0.00053 0.10558 0.01156 0.1875 0 0.05542-0.0076 0.08377-0.000183 0.125 0 0.23405 0.0015 0.34575 0.14141 0.34375 0.46875v2.625c-0.002 0.32699-0.11004 0.5015-0.34375 0.5-0.0639-0.00078-0.12444-0.02165-0.15625-0.03125-0.0734-0.01439-0.13718 0.000141-0.1875 0-0.06008-0.0005-0.11481 0.02111-0.15625 0.0625-0.04112 0.04176-0.06228 0.0951-0.0625 0.15625-0.000599 0.15338 0.11545 0.21779 0.3125 0.21875 0.01398-0.000038 0.0082-0.000268 0.03125 0 0.02303-0.0043 0.0534 0.000042 0.0625 0l0.345-0.062c0.0963-0.01228 0.19213-0.000821 0.34375 0 0.17432 0.0011 0.3392 0.01718 0.5 0.03125l0.5 0.03125c0.10522 0.0094 0.21154-0.000655 0.3125 0 0.49955 0.0032 0.92678-0.08668 1.2812-0.28125 0.29496-0.15938 0.5164-0.40867 0.6875-0.75 0.17249-0.34123 0.2471-0.72867 0.25-1.1562 0.0021-0.4839-0.10137-0.91405-0.3125-1.2812-0.21145-0.36758-0.47786-0.59949-0.84375-0.75-0.27934-0.1149-0.64503-0.1849-1.0625-0.1875-0.14221-0.00049-0.25647-0.0084-0.34375 0l-0.4375 0.0625c-0.12884 0.01271-0.24677 0.000529-0.375 0-0.157 0-0.332-0.012-0.469-0.03l-0.34375-0.03125c-0.03703-0.0051-0.07105 0.000243-0.09375 0zm5.5625 0.03125c-0.1824-0.0006-0.29803 0.0031-0.34375 0.03125-0.04607 0.02813-0.06166 0.10068-0.0625 0.21875-0.0001 0.07409 0.000572 0.15763 0 0.21875 0.0001 0.06152 0.000797 0.15898 0 0.28125-0.00032 0.05275 0.0077 0.11201 0 0.21875-0.0081 0.10706-0.03096 0.1976-0.03125 0.25-0.000975 0.18762 0.0942 0.28015 0.25 0.28125 0.15999 0.0011 0.21735-0.11598 0.21875-0.34375 0.00039-0.04401 0.0086-0.10404 0-0.1875-0.0087-0.08311-0.000011-0.14381 0-0.1875 0.000733-0.1359 0.04155-0.2153 0.15625-0.25 0.05992-0.02152 0.19613-0.03225 0.375-0.03125h1.5938l-1.4375 1.3438c-0.07387 0.06945-0.12506 0.13507-0.125 0.1875-0.000864 0.11353 0.04657 0.15532 0.15625 0.15625 0.03706-0.00012 0.08312 0.0089 0.125 0 0.19264-0.03955 0.38361-0.0632 0.5625-0.0625 0.67877 0.0043 1.0029 0.27637 1 0.84375-0.002 0.3221-0.09927 0.60684-0.34375 0.8125-0.24414 0.20569-0.55709 0.28395-0.9375 0.28125-0.33993-0.0018-0.65725-0.06131-0.90625-0.21875-0.24932-0.15782-0.34515-0.3501-0.34375-0.5625v-0.0625h0.0625c0.26935 0.0016 0.40485-0.09521 0.40625-0.3125 0.000537-0.109-0.05057-0.18206-0.125-0.25-0.07549-0.06766-0.16214-0.12408-0.28125-0.125-0.18307-0.000996-0.34398 0.07853-0.46875 0.21875-0.12445 0.14059-0.186 0.3269-0.1875 0.53125-0.002 0.35669 0.18856 0.63564 0.53125 0.875 0.34274 0.23866 0.76769 0.3721 1.2812 0.375 0.55965 0.0034 1.0178-0.14771 1.375-0.4375 0.35753-0.29011 0.52825-0.66283 0.53125-1.125 0.0016-0.3707-0.12666-0.66707-0.375-0.90625s-0.54797-0.3727-0.9375-0.375c-0.01818 0.000085-0.05287 0.000158-0.09375 0-0.0454-0.000484-0.09775 0.000221-0.125 0l1.2812-1.1562c0.1151-0.10317 0.15535-0.18171 0.15625-0.28125 0.000825-0.15651-0.10493-0.2487-0.375-0.25-0.14601-0.0011-0.29632-0.0025-0.40625 0-0.21961 0.0065-0.37723 0.000671-0.46875 0h-1.6875zm15.781 0.03125c-0.22986-0.0016-0.34301 0.07306-0.34375 0.21875-0.000762 0.14114 0.08022 0.1864 0.25 0.1875 0.03671-0.00015 0.08916 0.01437 0.15625 0 0.0667-0.01368 0.11959-0.0318 0.15625-0.03125 0.10585 0.000659 0.16511 0.08362 0.1875 0.21875 0.0097 0.03984 0.0011 0.13818 0 0.3125v0.65625c-0.22275-0.33694-0.5455-0.4972-1-0.5-0.46744-0.0027-0.84362 0.15391-1.125 0.46875-0.2817 0.31446-0.4351 0.72278-0.4375 1.25-0.0035 0.5226 0.12423 0.95681 0.40625 1.2812 0.28207 0.32375 0.65791 0.46615 1.125 0.46875 0.46252 0.003 0.8184-0.1308 1.0625-0.4375v0.09375 0.03125c-0.0012 0.15753 0.06382 0.24945 0.1875 0.25 0.04158 0.00021 0.10008-0.01818 0.15625-0.03125 0.09145-0.0081 0.14264-0.000284 0.15625 0 0.04543 0.00014 0.12416 0.01987 0.21875 0.03125 0.09352 0.01166 0.14106-0.00056 0.1875 0 0.20683 0.000966 0.3113-0.071 0.3125-0.21875 0.000193-0.14294-0.07672-0.21776-0.25-0.21875-0.02864-0.00032-0.07992 0.02455-0.15625 0.03125-0.03232 0.0071-0.09545 0.0002-0.15625 0-0.087 0.001-0.131-0.022-0.154-0.092-0.024-0.07-0.029-0.275-0.032-0.563v-1.0938-0.625c0.00054-0.1139 0.01964-0.28135 0.03125-0.5 0.01643-0.30987 0.03145-0.47377 0.03125-0.5 0.005-0.21843-0.0037-0.33074 0-0.34375v-0.09375c0.0014-0.17464-0.05863-0.2487-0.1875-0.25-0.04158-0.00021-0.10881-0.01039-0.1875 0-0.07797 0.01005-0.14593 0.03146-0.1875 0.03125-0.0045-0.00032-0.07141-0.01955-0.21875-0.03125-0.09598-0.01145-0.15082 0.000204-0.1875 0zm-19.405 0.376c0.28437 0.0017 0.51705 0.03619 0.71875 0.09375 0.31582 0.08888 0.57056 0.2598 0.75 0.5625 0.17971 0.30377 0.28365 0.69005 0.28125 1.125-0.0035 0.5558-0.16828 1.0065-0.46875 1.3438-0.24889 0.28119-0.63694 0.40965-1.1875 0.40625-0.31686-0.0019-0.52512-0.01371-0.59375-0.03125-0.20613-0.0446-0.314-0.1752-0.3125-0.375l0.03125-2.75c0.000946-0.18237 0.0446-0.27357 0.125-0.3125 0.08105-0.03818 0.29362-0.0646 0.65625-0.0625zm10.469 0.625c-0.36263-0.0021-0.65049 0.07695-0.90625 0.25-0.25543 0.17342-0.40505 0.38079-0.40625 0.625-0.000864 0.11352 0.04472 0.23365 0.125 0.3125 0.07958 0.0788 0.19269 0.09278 0.3125 0.09375 0.10136-0.00002 0.18304-0.0065 0.25-0.0625 0.06703-0.05702 0.09338-0.1314 0.09375-0.21875 0.00059-0.10481-0.02911-0.17494-0.09375-0.21875-0.04108-0.02638-0.06306-0.04507-0.0625-0.0625-0.000009-0.04824 0.02492-0.11299 0.09375-0.15625 0.18013-0.10826 0.38729-0.15755 0.59375-0.15625 0.23338 0.0011 0.40137 0.05285 0.53125 0.15625 0.1299 0.10305 0.21947 0.25826 0.21875 0.4375-0.0016 0.18721-0.06994 0.30556-0.1875 0.375-0.11681 0.0688-0.36392 0.11914-0.75 0.15625-0.27049 0.02868-0.47273 0.04382-0.5625 0.0625-0.08948 0.0194-0.18829 0.06023-0.3125 0.125-0.32634 0.16794-0.4976 0.45059-0.5 0.8125-0.0016 0.29242 0.12191 0.5121 0.34375 0.6875 0.22147 0.17572 0.50328 0.27925 0.875 0.28125 0.50062 0.003 0.88909-0.17594 1.125-0.5 0.0855 0.31129 0.31089 0.46665 0.6875 0.46875 0.45902 0.0031 0.67687-0.17582 0.6875-0.59375l0.03125-0.375v-0.03125c0.0015-0.20924-0.10014-0.34275-0.25-0.34375-0.14079-0.000737-0.18662 0.08076-0.1875 0.21875v0.3125c-0.0017 0.27563-0.08896 0.40745-0.25 0.40625-0.12892-0.000579-0.22363-0.06621-0.25-0.21875-0.0087-0.03907-0.0011-0.16573 0-0.375v-1.3125c0.0043-0.76125-0.41541-1.1512-1.25-1.1562zm4.5625 0.03125c-0.45971-0.0032-0.81511 0.16994-1.0938 0.5v-0.1875c0.000608-0.13416-0.086-0.2179-0.21875-0.21875-0.0045-0.00033-0.0686 0.02062-0.1875 0.03125-0.05502 0.01171-0.11448 0.000383-0.1875 0l-0.25-0.03125c-0.01817-0.0048-0.03419-0.000051-0.0625 0-0.20539-0.0016-0.3114 0.07309-0.3125 0.21875-0.000415 0.14117 0.08231 0.21782 0.25 0.21875 0.03283 0.00028 0.09251-0.01978 0.15625-0.03125 0.06299-0.01082 0.09179 0.000047 0.125 0 0.07438 0.00083 0.12632 0.0076 0.15625 0.0625 0.02991 0.05528 0.054 0.16405 0.0625 0.3125v0.25 0.78125 0.71875c-0.0064 0.25258-0.07902 0.376-0.21875 0.375-0.0608-0.0002-0.1241 0.01262-0.1875 0-0.06342-0.01226-0.10195-0.03098-0.125-0.03125-0.14986-0.001-0.24904 0.07972-0.25 0.21875-0.000893 0.14778 0.11933 0.21735 0.3125 0.21875 0.02725 0.00023 0.14162-0.01021 0.34375-0.03125 0.16023-0.01672 0.27821-0.0316 0.375-0.03125 0.12366 0.00089 0.2427 0.01731 0.34375 0.03125 0.20175 0.02786 0.30707 0.03105 0.34375 0.03125 0.18339 0.0014 0.28015-0.07763 0.28125-0.21875 0.0011-0.14566-0.07656-0.21791-0.21875-0.21875-0.04088-0.00015-0.09196 0.01702-0.15625 0.03125-0.06426 0.01391-0.11954 0.03111-0.15625 0.03125-0.07337-0.000408-0.09823-0.05526-0.125-0.125-0.02743-0.07014-0.0638-0.18322-0.0625-0.375v-0.875c0.0023-0.4091 0.07672-0.70581 0.1875-0.875 0.16117-0.24733 0.41512-0.377 0.78125-0.375 0.19178 0.0013 0.38127 0.05524 0.53125 0.15625 0.13697 0.09238 0.21062 0.24019 0.25 0.40625 0.02302 0.08729 0.03325 0.23788 0.03125 0.46875v0.5 0.375 0.34375c-0.01068 0.23968-0.07606 0.37571-0.1875 0.375-0.02342 0.00005-0.06762-0.01471-0.15625-0.03125-0.04621-0.0086-0.088-0.03067-0.125-0.03125-0.15897-0.000654-0.249 0.08391-0.25 0.21875-0.000847 0.15197 0.09853 0.21778 0.28125 0.21875 0.01433-0.00002 0.11437-0.0055 0.34375-0.03125 0.07784-0.0084 0.19304-0.000944 0.3125 0 0.12858 0.00055 0.25941 0.0126 0.40625 0.03125 0.14614 0.01863 0.2482-0.000102 0.3125 0 0.07722 0.00034 0.16355-0.01931 0.21875-0.0625 0.0548-0.04252 0.06235-0.09125 0.0625-0.15625 0.00059-0.05658-0.0189-0.08515-0.0625-0.125-0.043-0.038-0.097-0.061-0.156-0.061-0.02727 0.00013-0.05826-0.0095-0.125 0-0.06677 0.0098-0.11537 0.03141-0.15625 0.03125-0.10026-0.000604-0.16537-0.10161-0.1875-0.25-0.0044-0.03527-0.03255-0.12491-0.03125-0.3125l0.03125-1.25c0.002-0.24-0.031-0.445-0.093-0.594-0.078-0.179-0.249-0.316-0.469-0.437-0.221-0.122-0.439-0.186-0.688-0.188zm10.125 0.0625c-0.22047-0.000902-0.38352 0.02264-0.53125 0.09375-0.14736 0.07079-0.30217 0.21942-0.46875 0.40625v-0.1875c0.000352-0.1258-0.07815-0.18694-0.1875-0.1875h-0.1875c-0.0049-0.000004-0.004 0.000222-0.03125 0-0.02724-0.000221-0.07068-0.00008-0.09375 0-0.06393-0.00043-0.13126 0.0081-0.21875 0-0.08682-0.0076-0.13686-0.03074-0.1875-0.03125-0.1883-0.001-0.2807 0.07095-0.28125 0.21875-0.000985 0.13938 0.08022 0.21765 0.25 0.21875 0.02797-0.00008 0.04735 0.0085 0.09375 0 0.10964-0.02283 0.169-0.03154 0.1875-0.03125 0.09152 0.000672 0.16823 0.03379 0.1875 0.125 0.02056 0.09201 0.03285 0.31714 0.03125 0.6875l-0.03125 1v0.375c-0.01088 0.21346-0.0621 0.3135-0.1875 0.3125-0.01433 0-0.02665 0.0038-0.03125 0l-0.1875-0.03125c-0.0094-0.0003-0.01302 0.0041-0.03125 0-0.01853 0.00006-0.02185-0.000017-0.03125 0-0.17748-0.000942-0.27935 0.05063-0.28125 0.1875-0.0014 0.15018 0.09853 0.24903 0.28125 0.25 0.04192 0.00024 0.14718-0.0147 0.34375-0.03125 0.14766-0.012 0.25732-0.03174 0.3125-0.03125 0.1097 0.00059 0.25 0.01227 0.40625 0.03125 0.11433 0.01385 0.20267 0.03046 0.28125 0.03125 0.20614 0.000916 0.311-0.07766 0.3125-0.21875 0.000021-0.14539-0.10241-0.21735-0.28125-0.21875-0.01364 0.000063-0.01272-0.000059-0.03125 0-0.01823 0.0057-0.0538 0.00028-0.0625 0-0.07331 0.02301-0.10195 0.06277-0.125 0.0625-0.08208-0.000689-0.13904-0.10127-0.15625-0.25-0.0037-0.03033-0.000393-0.13778 0-0.3125v-0.84375c0.002-0.4238 0.08487-0.73663 0.21875-0.90625 0.16116-0.20854 0.3853-0.3141 0.6875-0.3125 0.27598 0.0018 0.45518 0.0691 0.5625 0.21875 0.10667 0.14891 0.15855 0.43241 0.15625 0.8125v0.53125c0.000353 0.0042 0.00081 0.04607 0 0.125-0.0003 0.09155 0.000676 0.18484 0 0.28125l-0.032 0.313c-0.0059 0.22255-0.04655 0.34434-0.15625 0.34375-0.032 0-0.092-0.014-0.156-0.032-0.026-0.011-0.074-0.03-0.125-0.031-0.137-0.001-0.187 0.082-0.187 0.219-0.001 0.14986 0.09364 0.21778 0.28125 0.21875 0.08735 0.00037 0.16679-0.01436 0.28125-0.03125 0.11448-0.01727 0.24699-0.000701 0.34375 0 0.06813 0.00038 0.14732-0.01842 0.28125 0 0.13532 0.01854 0.24368 0.03082 0.3125 0.03125 0.215 0.001 0.312-0.075 0.312-0.219 0.00087-0.0604-0.019-0.08376-0.0625-0.125s-0.09197-0.06205-0.15625-0.0625c-0.02727 0.00012-0.07259-0.0095-0.125 0-0.05281 0.01021-0.06653 0.000569-0.09375 0-0.08734-0.000371-0.16764-0.02256-0.1875-0.125-0.01976-0.10314-0.0023-0.3718 0-0.78125v-0.46875c0.0026-0.42306 0.05525-0.7058 0.15625-0.875 0.1293-0.21259 0.33134-0.3143 0.65625-0.3125 0.16839 0.000984 0.33644 0.01429 0.46875 0.09375 0.13162 0.07941 0.23385 0.20647 0.28125 0.34375 0.04737 0.13763 0.0643 0.35581 0.0625 0.65625v0.4375 0.375c-0.0064 0.29626-0.04143 0.48853-0.0625 0.5625s-0.07834 0.12539-0.15625 0.125c-0.04543-0.00014-0.06723-0.02095-0.09375-0.03125-0.07299-0.01053-0.1065 0.000289-0.125 0-0.14534-0.000716-0.21787 0.0544-0.21875 0.1875-0.000972 0.15371 0.08875 0.21777 0.28125 0.21875 0.07789 0.00074 0.19522 0.01443 0.34375 0 0.14928-0.0151 0.26584-0.03164 0.34375-0.03125 0.07374 0.00008 0.17318 0.01489 0.3125 0.03125 0.13999 0.01679 0.2437 0.03047 0.3125 0.03125 0.18344 0.000673 0.27955-0.09599 0.28125-0.25 0.000483-0.13242-0.08966-0.1864-0.25-0.1875-0.03214-0.00023-0.09164 0.0174-0.15625 0.03125-0.06359 0.01424-0.09286 0.000226-0.125 0-0.09571-0.000625-0.1653-0.06162-0.1875-0.21875-0.0038-0.03942-0.0014-0.16456 0-0.34375v-0.46875-0.65625c0.0018-0.31023-0.0041-0.54348-0.0625-0.6875-0.08623-0.21418-0.27163-0.38109-0.5-0.5-0.2066-0.1058-0.42551-0.15445-0.6875-0.15625-0.25258-0.0015-0.46487 0.05164-0.625 0.125-0.16082 0.07331-0.31156 0.19239-0.46875 0.375-0.208-0.33308-0.55109-0.4973-1-0.5zm5.9375 0.03125c-0.49121-0.0026-0.8627 0.15479-1.1562 0.46875-0.29392 0.31428-0.4341 0.74991-0.4375 1.2812-0.0025 0.53211 0.11921 0.93218 0.40625 1.25 0.28741 0.3175 0.67448 0.4973 1.1562 0.5 0.49535 0.0033 0.88642-0.17855 1.1875-0.5 0.30034-0.32081 0.46595-0.71826 0.46875-1.25 0.0045-0.53196-0.14926-0.97034-0.4375-1.2812-0.28682-0.31116-0.68653-0.46575-1.1875-0.46875zm4.156 0.032c-0.39862-0.0022-0.69752 0.15127-0.9375 0.46875v-0.1875c0.002-0.125-0.068-0.189-0.187-0.187-0.05-0.001-0.088 0.019-0.125 0.031-0.08293 0.01114-0.15082 0.000204-0.1875 0-0.04577-0.00017-0.12669 0.01259-0.21875 0-0.09211-0.01185-0.14173-0.03109-0.1875-0.03125-0.1974-0.000984-0.31237 0.06708-0.3125 0.21875-0.000909 0.13834 0.06782 0.21798 0.21875 0.21875 0.03703 0.00023 0.09045-0.02028 0.15625-0.03125 0.06369-0.01082 0.11957-0.000204 0.15625 0 0.12334 0.000524 0.20729 0.11764 0.21875 0.375v1.5 0.34375c-0.01065 0.20054-0.07221 0.28189-0.1875 0.28125-0.01885-0.00032-0.04722 0.009-0.09375 0l-0.09375-0.03125c-0.02307-0.0048-0.07851-0.000136-0.125 0-0.17606-0.0012-0.24969 0.05262-0.25 0.1875-0.0012 0.1523 0.09225 0.2489 0.28125 0.25l0.375-0.032c0.10479-0.0088 0.25481-0.03255 0.4375-0.03125 0.06952 0.00048 0.17388 0.01494 0.3125 0.03125 0.14001 0.0164 0.24365 0.03117 0.3125 0.03125h0.03125c0.189 0.0011 0.28125-0.06881 0.28125-0.21875 0.000809-0.13695-0.07063-0.21783-0.21875-0.21875-0.03669-0.00021-0.07425 0.02059-0.125 0.03125-0.06431 0.01453-0.12742 0.000497-0.1875 0-0.12018-0.000646-0.19653-0.1263-0.21875-0.375-0.0034-0.0352-0.0019-0.17705 0-0.46875v-0.4375c0.0019-0.37942 0.01944-0.6569 0.09375-0.84375 0.12163-0.30471 0.36206-0.47075 0.71875-0.46875 0.17467 0.0011 0.32084 0.03688 0.4375 0.125 0.11564 0.08769 0.1886 0.21766 0.1875 0.34375-0.00036 0.04366-0.003 0.07321-0.03125 0.125-0.04547-0.01408-0.08014-0.03097-0.09375-0.03125-0.07443-0.00014-0.16382 0.0397-0.21875 0.09375-0.05634 0.05429-0.06234 0.11761-0.0625 0.1875-0.000346 0.087 0.02098 0.15687 0.09375 0.21875 0.07351 0.06123 0.1754 0.09309 0.28125 0.09375 0.16561 0.000783 0.30467-0.06832 0.40625-0.1875 0.10227-0.11913 0.15602-0.24564 0.15625-0.4375 0.002-0.27002-0.11428-0.51415-0.3125-0.6875-0.19822-0.17334-0.45915-0.248-0.78125-0.25zm3.0312 0c-0.48733-0.0031-0.88236 0.1708-1.1875 0.5-0.30449 0.32994-0.46525 0.74956-0.46875 1.2812-0.0025 0.51848 0.15539 0.94128 0.4375 1.25 0.28278 0.30912 0.64323 0.46605 1.125 0.46875 0.3857 0.002 0.7275-0.09434 1.0312-0.3125 0.30512-0.21771 0.46685-0.46704 0.46875-0.75 0.000436-0.16564-0.08022-0.2489-0.25-0.25-0.11949-0.000596-0.18675 0.05197-0.21875 0.15625l-0.0625 0.1875c-0.05115 0.16127-0.17515 0.2715-0.34375 0.375s-0.36058 0.15755-0.5625 0.15625c-0.30744-0.0016-0.54397-0.09246-0.75-0.3125-0.20464-0.21994-0.3138-0.51567-0.3125-0.84375 0.00042-0.03492 0.01306-0.04774 0.03125-0.0625 0.01894-0.01546 0.06492-0.03175 0.125-0.03125l2.1875 0.03125c0.1104 0.00064 0.1642-0.02539 0.1875-0.0625 0.02258-0.03681 0.03015-0.14692 0.03125-0.3125 0.0032-0.42196-0.12836-0.75604-0.40625-1.0312-0.27853-0.27596-0.6314-0.435-1.0625-0.4375zm-19.438 0.3125c0.24002 0.0013 0.44076 0.10562 0.625 0.25 0.15639 0.12349 0.27202 0.28143 0.3125 0.5 0.0225 0.10508 0.03315 0.3017 0.03125 0.59375-0.0014 0.22708-0.01211 0.41849-0.03125 0.5625-0.02932 0.2268-0.11478 0.39439-0.28125 0.53125-0.16748 0.13643-0.37522 0.22035-0.625 0.21875-0.32803-0.002-0.59304-0.13562-0.78125-0.375-0.188-0.239-0.283-0.554-0.281-0.969 0.0017-0.40145 0.09722-0.7388 0.28125-0.96875 0.18368-0.22998 0.42582-0.34585 0.75-0.34375zm12.282 0.093c0.69735 0.0036 1.0374 0.44024 1.0312 1.3125-0.002 0.41436-0.08972 0.73654-0.28125 0.96875-0.19292 0.23211-0.44621 0.34555-0.78125 0.34375-0.3263-0.0019-0.60106-0.1095-0.78125-0.34375-0.17982-0.23458-0.2524-0.55861-0.25-0.96875 0.000593-0.05658 0-0.09375 0-0.09375 0.01995-0.3921 0.12727-0.69351 0.3125-0.90625 0.18454-0.21279 0.4286-0.3144 0.75-0.3125zm7.1562 0.03125c0.24838 0.0015 0.47325 0.0788 0.65625 0.25 0.18198 0.17077 0.28295 0.3941 0.28125 0.625-0.000225 0.06115-0.06019 0.0944-0.15625 0.09375l-1.656-0.031c-0.10165-0.00071-0.15647-0.0326-0.15625-0.09375 0.0014-0.21764 0.13088-0.3881 0.34375-0.5625 0.2119-0.17552 0.43037-0.28275 0.6875-0.28125zm-27.094 1.125v0.46875c-0.0062 0.27915-0.10384 0.49851-0.28125 0.65625-0.17739 0.15739-0.41168 0.22065-0.71875 0.21875-0.2159-0.0013-0.40541-0.05978-0.53125-0.15625-0.12582-0.09682-0.18831-0.20905-0.1875-0.375 0.002-0.3179 0.2604-0.51765 0.78125-0.5625 0.28765-0.0243 0.48186-0.0592 0.59375-0.09375 0.11254-0.03381 0.24279-0.06988 0.34375-0.15625z"/>
  <rect id="rect4190" style="opacity:.15;color:#000000" height="1.0881" width="56" y="38.912" x="20"/>
  <rect id="rect3877" style="opacity:.15;color:#000000" height="1.0881" width="56" y="50.912" x="20"/>
  <rect id="rect3905" style="opacity:.15;color:#000000" height="1.0881" width="56" y="62.912" x="20"/>
  <rect id="rect4188" style="opacity:.15;color:#000000" height="1.0881" width="56" y="74.912" x="20"/>
  <rect id="rect4207" style="opacity:.15;color:#000000" height="1.0881" width="43.978" y="26.912" x="32.022"/>
 </g>
 <g id="layer6" style="display:none">
  <g id="g3968" style="fill:#1e3352" transform="translate(2)">
   <path id="path3970" d="m23.948 33.23v0.61446c0.61445-0.08192 1.2904-0.18945 2.0277-0.32259 0.74758-0.13312 1.4952-0.23553 2.2428-0.30723 0.75782-0.08192 1.4849-0.10752 2.1813-0.07681 0.70661 0.02049 1.3313 0.14338 1.8741 0.36867-0.61447 0.38916-1.2852 0.68103-2.0123 0.8756-0.71688 0.19459-1.4542 0.35844-2.212 0.49157-0.7476 0.13314-1.5003 0.27651-2.2581 0.43012-0.75784 0.14338-1.4849 0.36868-2.1813 0.6759l-0.61446 0.93705c0.38915 0.000007 0.82439-0.04096 1.3057-0.12289 0.48132-0.09216 0.96264-0.16897 1.444-0.23042 0.48132-0.06144 0.93704-0.0768 1.3672-0.04608 0.44035 0.03073 0.81415 0.16386 1.1214 0.3994 0.09216 0.15362 0.09216 0.27651 0 0.36867-0.08193 0.09217-0.19971 0.16898-0.35331 0.23042-0.15362 0.05121-0.31748 0.10241-0.49156 0.15361-0.1741 0.04097-0.297 0.09729-0.36867 0.16898-0.77832 0.1741-1.5515 0.3482-2.3196 0.52229-0.75783 0.16386-1.5259 0.40964-2.3042 0.73735-0.000002 0.15362-0.01536 0.32259-0.04608 0.50693-0.02048 0.1741-0.03585 0.3482-0.04608 0.52229-0.000002 0.1741 0.0256 0.33795 0.07681 0.49156 0.0512 0.14338 0.15361 0.25603 0.30723 0.33795 0.46084 0.07169 0.94216 0.09729 1.444 0.07681 0.5018-0.03072 1.0036-0.07681 1.5054-0.13825s1.0036-0.12289 1.5054-0.18434c0.5018-0.06144 0.98312-0.09217 1.444-0.09217 0.14336 0.08193 0.25089 0.16386 0.32259 0.24578 0.08192 0.08193 0.13824 0.1741 0.16898 0.2765 0.04096 0.09217 0.06144 0.1997 0.06145 0.32259 0.01023 0.11265 0.01535 0.24578 0.01536 0.3994-0.69639 0.23554-1.403 0.44036-2.1199 0.61446-0.71687 0.16386-1.4337 0.26114-2.1506 0.29187-0.70663 0.02048-1.403-0.05633-2.0892-0.23042-0.68614-0.18434-1.3364-0.50693-1.9509-0.96777-0.23554-0.08193-0.3994-0.23042-0.49157-0.44548s-0.14849-0.45572-0.16898-0.72199c-0.02048-0.2765-0.02048-0.55813 0-0.84488 0.02048-0.28674 0.03072-0.54789 0.03072-0.78343 0.2253-0.53252 0.425-1.0804 0.5991-1.6437 0.1741-0.57349 0.34819-1.1419 0.52229-1.7051 0.18434-0.56324 0.37891-1.1111 0.58373-1.6437 0.20482-0.53252 0.46084-1.0292 0.76807-1.4901 0.31747 0.000011 0.60421 0.07682 0.86024 0.23042 0.26626 0.15362 0.39939 0.38917 0.3994 0.70662"/>
   <path id="path3972" d="m36.22 37.839c0.11264 0.21506 0.17409 0.44036 0.18434 0.6759 0.01024 0.23555-0.000006 0.47109-0.03072 0.70662-0.02049 0.2253-0.05121 0.4506-0.09217 0.6759-0.03073 0.21506-0.04097 0.41988-0.03072 0.61446 0.01023 0.19458 0.06144 0.3738 0.15361 0.53765 0.09216 0.16386 0.2509 0.30211 0.4762 0.41476 0.3277 0.000001 0.63493-0.03072 0.92168-0.09217 0.29698-0.07169 0.5786-0.13825 0.84488-0.1997 0.2765-0.07169 0.53764-0.11777 0.78343-0.13825 0.25602-0.03072 0.50692-0.0051 0.75271 0.07681 0.08192 0.09217 0.15872 0.1997 0.23042 0.32259 0.07168 0.11265 0.128 0.23042 0.16898 0.35331 0.04095 0.12289 0.05632 0.24578 0.04609 0.36867-0.000011 0.11265-0.04097 0.20994-0.12289 0.29187-0.32772 0.08193-0.65543 0.19458-0.98313 0.33795-0.32772 0.13313-0.66055 0.2509-0.99849 0.35331-0.32772 0.10241-0.65543 0.16385-0.98313 0.18434-0.32772 0.02048-0.65543-0.0512-0.98313-0.21506-0.16386-0.08193-0.33284-0.19458-0.50693-0.33795-0.16386-0.14337-0.33284-0.2765-0.50693-0.3994-0.16386-0.12289-0.33284-0.21506-0.50693-0.2765-0.16386-0.06144-0.32771-0.0512-0.49156 0.03072-0.15362 0.32771-0.3482 0.54277-0.58373 0.64518-0.23554 0.10241-0.49157 0.13313-0.76807 0.09217-0.26627-0.04096-0.54277-0.13313-0.82952-0.2765-0.27651-0.14337-0.53765-0.29699-0.78343-0.46084-0.08193-0.08193-0.1997-0.16385-0.35331-0.24578-0.14337-0.09217-0.28675-0.18946-0.43012-0.29187s-0.27138-0.21506-0.38404-0.33795c-0.10241-0.13313-0.15361-0.28674-0.15361-0.46084 0.24578-0.40964 0.54789-0.78343 0.90632-1.1214 0.36867-0.33795 0.75783-0.66054 1.1675-0.96777 0.41988-0.30722 0.85-0.60933 1.2904-0.90632 0.44036-0.30722 0.86536-0.62469 1.275-0.95241 0.15361 0.000007 0.29186 0.03585 0.41476 0.10753 0.13313 0.07169 0.2509 0.15874 0.35331 0.26114 0.11264 0.09217 0.20993 0.1997 0.29187 0.32259 0.09216 0.11266 0.17921 0.21506 0.26114 0.30723m-3.3181 3.272c0.09217-0.16385 0.2253-0.29186 0.3994-0.38404 0.17409-0.10241 0.33283-0.21506 0.4762-0.33795s0.24066-0.2765 0.29187-0.46084c0.0512-0.19457-0.000003-0.45572-0.15361-0.78343l-1.3364 1.6437c-0.000002 0.16386 0.01024 0.26114 0.03072 0.29187 0.03072 0.02048 0.12801 0.03073 0.29187 0.03072"/>
   <path id="path3974" d="m44.683 35.826c0.06144 0.13314 0.0768 0.25091 0.04609 0.35331-0.02049 0.09217-0.07681 0.1741-0.16898 0.24578-0.08193 0.06145-0.18946 0.11266-0.32259 0.15361-0.12289 0.03073-0.2509 0.04609-0.38404 0.04608 0.26626 0.27651 0.54277 0.55814 0.82952 0.84488 0.28674 0.27651 0.54277 0.56838 0.76807 0.8756 0.2253 0.30723 0.39427 0.63494 0.50693 0.98313 0.12289 0.3482 0.14849 0.72199 0.07681 1.1214-0.000005 0.41988-0.07681 0.77319-0.23042 1.0599-0.15362 0.27651-0.3482 0.50693-0.58373 0.69126-0.23555 0.18434-0.50181 0.33283-0.79879 0.44548-0.28675 0.10241-0.56838 0.18946-0.84488 0.26114-0.40964 0.14337-0.80904 0.15873-1.1982 0.04608-0.37892-0.12289-0.7015-0.32259-0.96777-0.5991-0.07169-0.26626-0.0256-0.44548 0.13825-0.53765 0.1741-0.10241 0.38404-0.16897 0.62982-0.1997 0.25602-0.03072 0.51717-0.05632 0.78343-0.07681 0.2765-0.03072 0.48132-0.11777 0.61446-0.26114 0.2765-0.14337 0.49156-0.29186 0.64518-0.44548 0.16385-0.16385 0.31747-0.37891 0.46084-0.64518 0.04096-0.35843-0.03585-0.68102-0.23042-0.96777-0.19458-0.28674-0.43012-0.54789-0.70662-0.78343-0.27651-0.24578-0.56325-0.48132-0.86024-0.70662-0.28675-0.2253-0.50693-0.45572-0.66054-0.69126-0.15362-0.24578-0.20482-0.50692-0.15361-0.78343 0.0512-0.28674 0.28162-0.61445 0.69126-0.98313 0.20482 0.000008 0.40452-0.02047 0.5991-0.06144 0.20482-0.0512 0.38915-0.0768 0.55301-0.07681 0.17409 0.000007 0.32771 0.04609 0.46084 0.13825 0.13313 0.09218 0.23554 0.27651 0.30723 0.55301"/>
   <path id="path3976" d="m48.138 37.27c0.21506-0.11264 0.36355-0.26626 0.44548-0.46084 0.08193-0.20481 0.15873-0.39939 0.23042-0.58373 0.07168-0.19457 0.16385-0.36355 0.2765-0.50693 0.11265-0.14337 0.30722-0.21505 0.58373-0.21506l0.44548 0.66054c0.1024 1.2084 0.08704 2.3759-0.04608 3.5024-0.12289 1.1265-0.34308 2.2172-0.66054 3.272-0.31747 1.0446-0.71687 2.0584-1.1982 3.0416-0.48132 0.99337-1.0241 1.956-1.6283 2.8879-0.26626 0.38915-0.58373 0.7271-0.95241 1.0139-0.36867 0.29698-0.76807 0.53252-1.1982 0.70662-0.43012 0.18433-0.87048 0.3021-1.3211 0.35331-0.46084 0.0512-0.91144 0.03071-1.3518-0.06145-0.98312-0.67591-1.6437-1.4798-1.9816-2.4117-0.34818-0.92169-0.40963-1.8843-0.18434-2.8879l0.1997-0.6759c0.11266 0.5018 0.22531 1.0139 0.33795 1.5361 0.10242 0.53252 0.26115 1.0241 0.4762 1.4747 0.20482 0.46084 0.48645 0.84999 0.84488 1.1675 0.3482 0.3277 0.8244 0.54276 1.4286 0.64518 0.65542-0.10242 1.2238-0.35332 1.7051-0.75271 0.48133-0.38916 0.90632-0.86024 1.275-1.4132 0.36867-0.54277 0.69638-1.1265 0.98313-1.7512 0.29699-0.6247 0.58373-1.2136 0.86024-1.7666 0.21506-0.88072 0.41988-1.7717 0.61446-2.6729 0.20482-0.91144 0.36355-1.9151 0.4762-3.0108-0.21506 0.05121-0.43012 0.07681-0.64518 0.07681-0.20482 0.000005-0.3994-0.03584-0.58373-0.10753-0.1741-0.07168-0.32771-0.17409-0.46084-0.30723-0.12289-0.14337-0.20994-0.3277-0.26114-0.55301-0.06145-0.16385-0.11265-0.31746-0.15361-0.46084-0.03072-0.14337-0.05633-0.28674-0.07681-0.43012-0.01024-0.14337-0.02048-0.3021-0.03072-0.4762-0.000001-0.17409-0.000001-0.37379 0-0.5991l0.4762-0.44548c0.21506 0.11266 0.35331 0.28163 0.41476 0.50693 0.06144 0.21507 0.10241 0.44037 0.12289 0.6759 0.02048 0.23555 0.06144 0.45061 0.12289 0.64518 0.06144 0.19458 0.1997 0.3226 0.41476 0.38404"/>
   <path id="path3978" d="m60.142 33.276c-0.000009 0.14338-0.06145 0.29188-0.18434 0.44548-0.1229 0.14338-0.25603 0.28676-0.3994 0.43012l-4.1322-0.29187c0.07168 0.66567 0.0512 1.3467-0.06144 2.0431-0.11266 0.69639-0.26115 1.4133-0.44548 2.1506-0.18434 0.73735-0.3738 1.4952-0.56837 2.2735-0.19458 0.76807-0.32771 1.5566-0.3994 2.3657-0.14338 0.14337-0.33795 0.21506-0.58373 0.21506s-0.44036-0.07169-0.58373-0.21506c-0.19458-0.49156-0.30211-0.97289-0.32259-1.444-0.02048-0.48132 0.01024-0.95752 0.09217-1.4286s0.19458-0.93704 0.33795-1.3979c0.14337-0.46084 0.2765-0.9268 0.3994-1.3979 0.13313-0.47108 0.24066-0.94216 0.32259-1.4132 0.08192-0.48132 0.09728-0.96776 0.04608-1.4593-0.36868-0.07168-0.75271-0.1024-1.1521-0.09217-0.38916 0.01025-0.76807 0.0051-1.1367-0.01536-0.36867-0.02047-0.71174-0.0768-1.0292-0.16898-0.31747-0.1024-0.58373-0.3021-0.79879-0.5991 0.21506-0.36866 0.46596-0.60933 0.75271-0.72199 0.28675-0.11264 0.58373-0.17921 0.89096-0.1997 0.31747-0.02047 0.63494-0.03071 0.95241-0.03072 0.32771-0.01023 0.64006-0.08704 0.93705-0.23042 0.73734 0.000011 1.4081 0.0051 2.0123 0.01536 0.61445 0.01025 1.1982 0.05634 1.7512 0.13825 0.553 0.0717 1.0958 0.18947 1.6283 0.35331 0.53252 0.15362 1.0907 0.37892 1.6744 0.6759"/>
   <path id="path3980" d="m62.532 37.839c0.11264 0.21506 0.17409 0.44036 0.18434 0.6759 0.01023 0.23555-0.000006 0.47109-0.03072 0.70662-0.02049 0.2253-0.05121 0.4506-0.09217 0.6759-0.03073 0.21506-0.04097 0.41988-0.03072 0.61446 0.01024 0.19458 0.06144 0.3738 0.15361 0.53765 0.09216 0.16386 0.2509 0.30211 0.4762 0.41476 0.3277 0.000001 0.63493-0.03072 0.92168-0.09217 0.29698-0.07169 0.5786-0.13825 0.84488-0.1997 0.2765-0.07169 0.53764-0.11777 0.78343-0.13825 0.25602-0.03072 0.50692-0.0051 0.75271 0.07681 0.08192 0.09217 0.15872 0.1997 0.23042 0.32259 0.07168 0.11265 0.128 0.23042 0.16898 0.35331 0.04095 0.12289 0.05631 0.24578 0.04608 0.36867-0.000011 0.11265-0.04097 0.20994-0.12289 0.29187-0.32772 0.08193-0.65543 0.19458-0.98313 0.33795-0.32772 0.13313-0.66055 0.2509-0.99849 0.35331-0.32772 0.10241-0.65543 0.16385-0.98313 0.18434-0.32772 0.02048-0.65543-0.0512-0.98313-0.21506-0.16386-0.08193-0.33284-0.19458-0.50693-0.33795-0.16386-0.14337-0.33284-0.2765-0.50693-0.3994-0.16386-0.12289-0.33284-0.21506-0.50693-0.2765-0.16386-0.06144-0.32771-0.0512-0.49156 0.03072-0.15362 0.32771-0.3482 0.54277-0.58373 0.64518-0.23554 0.10241-0.49157 0.13313-0.76807 0.09217-0.26627-0.04096-0.54277-0.13313-0.82952-0.2765-0.27651-0.14337-0.53765-0.29699-0.78343-0.46084-0.08193-0.08193-0.1997-0.16385-0.35331-0.24578-0.14337-0.09217-0.28675-0.18946-0.43012-0.29187s-0.27138-0.21506-0.38404-0.33795c-0.10241-0.13313-0.15361-0.28674-0.15361-0.46084 0.24578-0.40964 0.54789-0.78343 0.90632-1.1214 0.36867-0.33795 0.75783-0.66054 1.1675-0.96777 0.41988-0.30722 0.85-0.60933 1.2904-0.90632 0.44036-0.30722 0.86536-0.62469 1.275-0.95241 0.15361 0.000007 0.29186 0.03585 0.41476 0.10753 0.13313 0.07169 0.2509 0.15874 0.35331 0.26114 0.11264 0.09217 0.20993 0.1997 0.29187 0.32259 0.09216 0.11266 0.17921 0.21506 0.26114 0.30723m-3.3181 3.272c0.09217-0.16385 0.2253-0.29186 0.3994-0.38404 0.17409-0.10241 0.33283-0.21506 0.4762-0.33795s0.24066-0.2765 0.29187-0.46084c0.0512-0.19457-0.000004-0.45572-0.15361-0.78343l-1.3364 1.6437c-0.000002 0.16386 0.01024 0.26114 0.03072 0.29187 0.03072 0.02048 0.12801 0.03073 0.29187 0.03072"/>
   <path id="path3982" d="m71.917 41.372c0.0512 0.56325 0.09216 1.1521 0.12289 1.7666 0.04096 0.6247 0.0512 1.2494 0.03072 1.8741-0.02049 0.6247-0.08705 1.234-0.1997 1.828-0.11266 0.60421-0.29699 1.1675-0.55301 1.6898-0.24579 0.53252-0.5735 1.0138-0.98313 1.444-0.40964 0.44035-0.92169 0.80391-1.5361 1.0907-0.43012 0.43011-0.91144 0.65029-1.444 0.66054-0.54277 0.02047-1.106-0.11778-1.6898-0.41476 0.57349-0.3482 1.147-0.73736 1.7205-1.1675 0.57349-0.43013 1.0804-0.90633 1.5208-1.4286 0.4506-0.51205 0.79879-1.0753 1.0446-1.6898 0.25602-0.60422 0.34819-1.2596 0.27651-1.9663v-2.2581c-0.14338 0.07169-0.30211 0.11265-0.4762 0.12289-0.1741 0-0.35332-0.01536-0.53765-0.04608-0.1741-0.04096-0.34819-0.09217-0.52229-0.15361-0.16386-0.07169-0.31747-0.14849-0.46084-0.23042-0.28675-0.56325-0.41988-1.1265-0.3994-1.6898 0.02048-0.56325 0.24066-1.1367 0.66054-1.7205 0.30723-0.2765 0.6503-0.47108 1.0292-0.58373 0.37891-0.12289 0.71174-0.11265 0.99849 0.03072 0.34819 0.14338 0.58885 0.33284 0.72199 0.56837 0.14337 0.2253 0.24066 0.47109 0.29187 0.73735 0.06144 0.26627 0.10752 0.53765 0.13825 0.81416 0.03072 0.26627 0.11265 0.50693 0.24578 0.72199m-2.55 0.32259c0.12289-0.13313 0.21506-0.27138 0.27651-0.41476 0.07168-0.14337 0.13313-0.28162 0.18434-0.41476 0.0512-0.14337 0.11265-0.28674 0.18434-0.43012 0.07168-0.14337 0.16897-0.28674 0.29187-0.43012-0.12289 0.14338-0.26627 0.29187-0.43012 0.44548-0.16386 0.15362-0.30723 0.30211-0.43012 0.44548-0.11265 0.14338-0.18946 0.28675-0.23042 0.43012-0.03072 0.13313 0.02048 0.25602 0.15361 0.36867"/>
  </g>
  <g id="g3984" style="fill:#1e3352" transform="translate(6)">
   <path id="path3986" d="m23.799 53.68c-0.08905 0.08905-0.19788 0.15831-0.3265 0.20777-0.12368 0.04947-0.25724 0.08905-0.4007 0.11873-0.13852 0.02969-0.27703 0.05442-0.41554 0.0742-0.13852 0.01485-0.26714 0.03711-0.38586 0.06678 0.05936 0.26219 0.09399 0.54912 0.10389 0.86077 0.0099 0.31166 0.01484 0.63321 0.01484 0.96466-0.000002 0.3265 0.0049 0.65547 0.01484 0.98692 0.0099 0.3265 0.04452 0.63816 0.10389 0.93498 0.17809 0.02968 0.3537 0.0371 0.52685 0.02226 0.17809-0.01979 0.34876-0.03215 0.51201-0.0371 0.16819-0.0099 0.33144 0.000001 0.48975 0.02968 0.16324 0.02968 0.31908 0.10389 0.46749 0.22261-0.000005 0.05442-0.01979 0.09894-0.05936 0.13357-0.03958 0.02968-0.094 0.05442-0.16325 0.0742-0.06431 0.01979-0.13852 0.03958-0.22261 0.05936-0.0841 0.01484-0.17067 0.0371-0.25972 0.06678-0.29188 0.000001-0.59117 0.01979-0.89787 0.05936-0.30672 0.03463-0.61343 0.07173-0.92014 0.11131-0.30671 0.03463-0.61342 0.06431-0.92014 0.08904-0.30671 0.01979-0.606 0.01484-0.89787-0.01484-0.05442-0.05442-0.08657-0.11625-0.09647-0.18551-0.0099-0.0742-0.01484-0.1682-0.01484-0.28198 0.14346-0.05936 0.28692-0.09399 0.43038-0.10389 0.14841-0.0099 0.29682-0.01731 0.44523-0.02226 0.14841-0.0099 0.29434-0.02721 0.43781-0.05194 0.14841-0.02473 0.29434-0.08162 0.43781-0.17067-0.05442-0.26714-0.08905-0.56395-0.10389-0.89045-0.0099-0.3265-0.01979-0.65794-0.02968-0.99434-0.0049-0.33639-0.02226-0.66536-0.05194-0.98692-0.02474-0.32155-0.08163-0.61342-0.17067-0.87561-0.11378 0.02969-0.2424 0.04947-0.38586 0.05936-0.13852 0.0099-0.28198 0.0074-0.43039-0.0074-0.14841-0.01484-0.29434-0.04452-0.43781-0.08904-0.13852-0.04947-0.26466-0.11872-0.37844-0.20777-0.02968-0.02968-0.04452-0.0643-0.04452-0.10389 0-0.03957 0.01237-0.07667 0.0371-0.11131 0.01979-0.03957 0.05194-0.07173 0.09647-0.09647 0.03958-0.02473 0.08904-0.0371 0.14841-0.0371 0.11873 0.000006 0.24735 0.005 0.38586 0.01484 0.13851 0.0099 0.27703 0.01237 0.41554 0.0074 0.14346-0.0099 0.27703-0.02968 0.4007-0.05936 0.12862-0.03462 0.23745-0.09646 0.3265-0.18551 0.11378 0.05937 0.23498 0.094 0.3636 0.10389 0.12862 0.005 0.25724 0.000006 0.38586-0.01484 0.13357-0.01483 0.26713-0.02968 0.4007-0.04452 0.13357-0.01978 0.26219-0.0272 0.38586-0.02226 0.12862 0.005 0.24982 0.03216 0.3636 0.08162 0.11378 0.04453 0.22014 0.12615 0.31908 0.24488"/>
   <path id="path3988" d="m29.135 55.884c-0.02474 0.25724-0.08658 0.48975-0.18551 0.69752-0.09894 0.20283-0.22756 0.38586-0.38586 0.54911-0.15336 0.1583-0.32898 0.30177-0.52685 0.43039-0.19294 0.12368-0.39576 0.23993-0.60848 0.34876-0.21272 0.10389-0.42792 0.20035-0.64558 0.2894-0.21272 0.08905-0.41555 0.17562-0.60848 0.25972-0.1583 0-0.33887 0.02473-0.54169 0.0742-0.19788 0.04947-0.39823 0.09152-0.60106 0.12615-0.19788 0.02968-0.39081 0.0371-0.57879 0.02226-0.18304-0.01979-0.33639-0.09399-0.46007-0.22261-0.02473-0.12862-0.02473-0.22509 0-0.2894s0.06431-0.10636 0.11873-0.12615c0.05442-0.02473 0.1212-0.03463 0.20035-0.02968 0.0742 0.000001 0.15336 0.0025 0.23745 0.0074 0.0841 0.0049 0.16572 0.0049 0.24488 0 0.0841-0.0099 0.1583-0.0371 0.22261-0.08162 0.32155-0.09399 0.64558-0.19293 0.97208-0.29682 0.33144-0.10388 0.64558-0.22756 0.9424-0.37102s0.5689-0.31413 0.81625-0.51201c0.24734-0.20282 0.45264-0.45017 0.6159-0.74204-0.000004-0.25724-0.06431-0.46996-0.19293-0.63816-0.12862-0.17314-0.2894-0.31908-0.48233-0.43781-0.19294-0.12367-0.40318-0.23003-0.63074-0.31908-0.22756-0.08904-0.43781-0.18303-0.63074-0.28198-0.06431 0.26219-0.10636 0.52191-0.12615 0.77915-0.01484 0.2523-0.01979 0.50459-0.01484 0.75689 0.0099 0.24735 0.02721 0.49222 0.05194 0.73462 0.02968 0.23746 0.05936 0.46749 0.08904 0.6901-0.09894 0.06431-0.18799 0.09399-0.26714 0.08905-0.07915-0.0049-0.15583-0.02226-0.23003-0.05194-0.06926-0.03463-0.13604-0.06926-0.20035-0.10389-0.06431-0.03957-0.12862-0.05936-0.19293-0.05936-0.03463-0.09399-0.05442-0.1954-0.05936-0.30424-0.0049-0.10883-0.0074-0.21519-0.0074-0.31908-0.000002-0.10388-0.0025-0.20282-0.0074-0.29682-0.0049-0.09399-0.02474-0.17314-0.05936-0.23746-0.06431-0.1583-0.13357-0.32402-0.20777-0.49717-0.0742-0.17314-0.14346-0.34876-0.20777-0.52685s-0.11873-0.3537-0.16325-0.52685c-0.03958-0.17809-0.05936-0.34876-0.05936-0.51201 0.02968-0.1583 0.09399-0.26713 0.19293-0.3265 0.10388-0.05936 0.21766-0.08904 0.34134-0.08905 0.12862 0.000006 0.25972 0.01979 0.39328 0.05936 0.13357 0.03463 0.24982 0.06926 0.34876 0.10389 0.19293 0.06432 0.39823 0.12863 0.6159 0.19293 0.21766 0.05937 0.43286 0.12615 0.64558 0.20035 0.21272 0.07421 0.42049 0.16325 0.62332 0.26714 0.20282 0.09894 0.38586 0.21767 0.54911 0.35618 0.16324 0.13852 0.30176 0.30424 0.41554 0.49717 0.11872 0.18799 0.20035 0.4106 0.24488 0.66784"/>
   <path id="path3990" d="m32.751 53.962 0.09647 0.20777c-0.20283 0.19788-0.40813 0.3735-0.6159 0.52685-0.20283 0.15336-0.42792 0.30919-0.67526 0.46749 0.22261 0.04947 0.42544 0.13852 0.60848 0.26714 0.18798 0.12368 0.35123 0.27456 0.48975 0.45265 0.14346 0.17315 0.26466 0.36113 0.3636 0.56395 0.09893 0.20283 0.17561 0.40565 0.23003 0.60848 0.04946 0.2523 0.02968 0.47738-0.05936 0.67526-0.08905 0.19293-0.23498 0.36855-0.43781 0.52685-0.20283 0.12367-0.43534 0.22756-0.69752 0.31166-0.26219 0.07915-0.5318 0.12862-0.80883 0.14841-0.27208 0.01484-0.53922-0.0049-0.80141-0.05936-0.26219-0.05442-0.49222-0.15583-0.6901-0.30424-0.0742-0.04947-0.15336-0.09894-0.23745-0.14841-0.07915-0.05442-0.14346-0.11378-0.19293-0.17809s-0.07668-0.13357-0.08163-0.20777c0-0.07915 0.0371-0.1682 0.11131-0.26714l0.09647-0.20035c0.0742 0.04947 0.13851 0.11626 0.19293 0.20035 0.05936 0.07915 0.11625 0.16078 0.17067 0.24488 0.05936 0.07915 0.1212 0.15336 0.18551 0.22261 0.06926 0.06431 0.15336 0.11131 0.2523 0.14099 0.22261 0.02473 0.4477 0.02968 0.67526 0.01484 0.23251-0.01979 0.45759-0.06431 0.67526-0.13357 0.22261-0.06926 0.43038-0.16572 0.62332-0.2894 0.19788-0.12862 0.37349-0.29187 0.52685-0.48975 0.02473-0.14841 0.0099-0.29187-0.04452-0.43039-0.05442-0.13851-0.12862-0.26713-0.22261-0.38586-0.094-0.11872-0.19788-0.22508-0.31166-0.31908-0.11378-0.09894-0.22014-0.18551-0.31908-0.25972-0.11873-0.04947-0.23993-0.07173-0.3636-0.06678-0.11873 0.005-0.23746 0.02227-0.35618 0.05194-0.11873 0.02474-0.23498 0.05195-0.34876 0.08163s-0.22262 0.04205-0.3265 0.0371c-0.09894-0.0049-0.19293-0.0371-0.28198-0.09647-0.0841-0.05936-0.1583-0.16325-0.22261-0.31166l0.10389-0.29682c0.29682-0.1484 0.58869-0.30423 0.87561-0.46749 0.28692-0.16819 0.55653-0.37844 0.80883-0.63074-0.22262 0.000005-0.44028 0.01485-0.653 0.04452-0.21272 0.02969-0.42544 0.05937-0.63816 0.08904-0.21272 0.02969-0.42544 0.05442-0.63816 0.0742-0.21272 0.01485-0.43039 0.0099-0.653-0.01484-0.05442-0.04946-0.10636-0.09646-0.15583-0.14099-0.04947-0.04947-0.09894-0.09893-0.14841-0.14841 0-0.05441 0.01979-0.10636 0.05936-0.15583 0.03958-0.04946 0.0841-0.09893 0.13357-0.14841 0.30176 0.000005 0.59611-0.01978 0.88303-0.05936 0.29187-0.03957 0.58127-0.0742 0.86819-0.10389 0.28692-0.03462 0.57384-0.05194 0.86077-0.05194 0.28692 0.000006 0.57879 0.03958 0.87561 0.11873l0.21519 0.2894"/>
   <path id="path3992" d="m39.475 56.255c0.05441 0.10389 0.0841 0.21272 0.08905 0.3265 0.0049 0.11378-0.000002 0.22756-0.01484 0.34134-0.0099 0.10884-0.02474 0.21767-0.04452 0.3265-0.01484 0.10389-0.01979 0.20283-0.01484 0.29682 0.0049 0.09399 0.02968 0.18056 0.0742 0.25972 0.04452 0.07915 0.1212 0.14594 0.23003 0.20035 0.1583 0 0.30671-0.01484 0.44523-0.04452 0.14346-0.03463 0.2795-0.06678 0.40812-0.09647 0.13356-0.03463 0.25971-0.05689 0.37844-0.06678 0.12367-0.01484 0.24487-0.0025 0.3636 0.0371 0.03957 0.04452 0.07667 0.09647 0.11131 0.15583 0.03462 0.05442 0.06183 0.11131 0.08163 0.17067 0.01978 0.05936 0.0272 0.11873 0.02226 0.17809-0.000005 0.05442-0.01979 0.10141-0.05936 0.14099-0.15831 0.03958-0.31661 0.09399-0.47491 0.16325-0.15831 0.06431-0.31908 0.1212-0.48233 0.17067-0.15831 0.04947-0.31661 0.07915-0.47491 0.08905-0.15831 0.0099-0.31661-0.02473-0.47491-0.10389-0.07915-0.03957-0.16078-0.09399-0.24488-0.16325-0.07915-0.06926-0.16078-0.13357-0.24487-0.19293-0.07915-0.05936-0.16078-0.10389-0.24488-0.13357-0.07915-0.02968-0.1583-0.02473-0.23745 0.01484-0.07421 0.1583-0.1682 0.26219-0.28198 0.31166s-0.23746 0.06431-0.37102 0.04452c-0.12862-0.01979-0.26219-0.06431-0.4007-0.13357-0.13357-0.06926-0.25972-0.14346-0.37844-0.22261-0.03958-0.03957-0.09647-0.07915-0.17067-0.11873-0.06926-0.04452-0.13852-0.09152-0.20777-0.14099-0.06926-0.04947-0.1311-0.10388-0.18551-0.16325-0.04947-0.06431-0.0742-0.13851-0.0742-0.22261 0.11873-0.19788 0.26466-0.37844 0.43781-0.54169 0.17809-0.16325 0.36607-0.31908 0.56395-0.46749 0.20282-0.14841 0.4106-0.29434 0.62332-0.43781 0.21272-0.14841 0.41802-0.30176 0.6159-0.46007 0.0742 0.000003 0.14099 0.01732 0.20035 0.05194 0.06431 0.03463 0.1212 0.07668 0.17067 0.12615 0.05441 0.04453 0.10141 0.09647 0.14099 0.15583 0.04452 0.05442 0.08657 0.10389 0.12615 0.14841m-1.6028 1.5806c0.04452-0.07915 0.10883-0.14099 0.19293-0.18551 0.0841-0.04947 0.16077-0.10388 0.23003-0.16325 0.06926-0.05936 0.11625-0.13357 0.14099-0.22261 0.02473-0.09399-0.000002-0.22014-0.07421-0.37844l-0.64558 0.79399c-0.000002 0.07915 0.0049 0.12615 0.01484 0.14099 0.01484 0.0099 0.06184 0.01484 0.14099 0.01484"/>
   <path id="path3994" d="m43.095 56.455c-0.000001 0.07421 0.0074 0.14099 0.02226 0.20035 0.01979 0.05936 0.0371 0.11131 0.05194 0.15583 0.01979 0.04453 0.0371 0.08657 0.05194 0.12615 0.01979 0.03958 0.02968 0.07915 0.02968 0.11873 0.03463-0.0742 0.07668-0.13851 0.12615-0.19293 0.05442-0.05936 0.10883-0.11378 0.16325-0.16325 0.05441-0.04947 0.10636-0.09152 0.15583-0.12615 0.05441-0.03957 0.09894-0.07915 0.13357-0.11873 0.22261-0.03957 0.40318-0.01731 0.54169 0.06678 0.14346 0.07915 0.26219 0.19293 0.35618 0.34134s0.17314 0.31908 0.23746 0.51201c0.06925 0.19293 0.14098 0.38092 0.21519 0.56395-0.000004 0.14841 0.0074 0.2894 0.02226 0.42296 0.01484 0.13357 0.02473 0.26466 0.02968 0.39328 0.0099 0.13357 0.01236 0.26466 0.0074 0.39328-0.005 0.13357-0.02474 0.27456-0.05936 0.42297-0.07421-0.000001-0.13357 0.01484-0.17809 0.04452-0.04453 0.02968-0.08657 0.05689-0.12615 0.08162-0.03463 0.02968-0.07421 0.04947-0.11873 0.05936-0.03958 0.01484-0.09647 0.0049-0.17067-0.02968-0.07421-0.14841-0.11873-0.32155-0.13357-0.51943-0.01484-0.19293-0.02721-0.39081-0.0371-0.59364-0.0099-0.20777-0.03216-0.40812-0.06678-0.60106-0.02968-0.19293-0.10142-0.3636-0.21519-0.51201-0.09894 0.04947-0.18551 0.1212-0.25972 0.21519-0.06926 0.08905-0.13357 0.18551-0.19293 0.2894-0.05937 0.10389-0.11873 0.20777-0.17809 0.31166-0.05936 0.09894-0.12862 0.18551-0.20777 0.25972-0.0742 0.06926-0.16325 0.11873-0.26714 0.14841-0.10389 0.02473-0.23003 0.01237-0.37844-0.0371-0.12368-0.04947-0.21519-0.11625-0.27456-0.20035-0.05442-0.08904-0.08904-0.19046-0.10389-0.30424-0.01484-0.11378-0.01484-0.23498 0-0.3636 0.01484-0.13357 0.03216-0.26961 0.05194-0.40812 0.01979-0.13851 0.03463-0.27703 0.04452-0.41554 0.01484-0.13851 0.0099-0.26961-0.01484-0.39328-0.000001-0.10883 0.03216-0.2053 0.09647-0.2894s0.13604-0.14099 0.21519-0.17067c0.0841-0.02968 0.16572-0.02226 0.24487 0.02226 0.0841 0.04453 0.14594 0.14099 0.18551 0.2894"/>
   <path id="path3996" d="m48.981 52.256c0.07915 0.19294 0.12862 0.4106 0.14841 0.653 0.02473 0.23746 0.03462 0.48481 0.02968 0.74204-0.000004 0.2523-0.0074 0.50954-0.02226 0.77173-0.01484 0.25725-0.02226 0.50212-0.02226 0.73462-0.10884 0.27209-0.16078 0.54417-0.15583 0.81625 0.0049 0.26714 0.02473 0.53427 0.05936 0.80141 0.03957 0.26714 0.07668 0.53427 0.11131 0.80141 0.03462 0.26714 0.02968 0.53675-0.01484 0.80883-0.18304 0.11378-0.36855 0.19293-0.55653 0.23746-0.18799 0.04452-0.38339 0.06678-0.58622 0.06678-0.19788 0-0.40565-0.01484-0.62332-0.04452-0.21272-0.03463-0.43533-0.07173-0.66784-0.11131-0.07915-0.07915-0.17314-0.1583-0.28198-0.23745-0.10389-0.07915-0.20777-0.16325-0.31166-0.2523-0.10389-0.08904-0.20035-0.18056-0.2894-0.27456-0.08905-0.09894-0.15336-0.2053-0.19293-0.31908v-0.35618c0.0049-0.12862 0.01731-0.25477 0.0371-0.37844 0.01979-0.12862 0.04947-0.24982 0.08905-0.3636 0.03957-0.11378 0.09646-0.21024 0.17067-0.2894 0.11378-0.10883 0.23745-0.19293 0.37102-0.2523 0.13357-0.06431 0.26714-0.10883 0.4007-0.13357 0.13357-0.02968 0.26466-0.04699 0.39328-0.05194 0.13357-0.0049 0.25724-0.0074 0.37102-0.0074 0.0742 0.000003 0.15583 0.02969 0.24488 0.08905 0.08904 0.05937 0.17067 0.10884 0.24488 0.14841 0.07915 0.03958 0.14346 0.04947 0.19293 0.02968 0.05441-0.01978 0.08162-0.10883 0.08163-0.26714l0.185-3.361c0.03463-0.11377 0.07915-0.1855 0.13357-0.21519 0.05441-0.03462 0.10883-0.04204 0.16325-0.02226 0.05441 0.0198 0.10636 0.05442 0.15583 0.10389 0.05441 0.04453 0.10141 0.08905 0.14099 0.13357m-0.9424 4.7565c-0.075-0.119-0.181-0.22-0.32-0.304-0.133-0.089-0.272-0.149-0.415-0.178-0.13852-0.02968-0.26714-0.02226-0.38586 0.02226-0.11873 0.04453-0.19788 0.14099-0.23745 0.2894-0.06926 0.0841-0.10389 0.18799-0.10389 0.31166-0.000001 0.12368 0.03463 0.22262 0.10389 0.29682 0.23745 0.1583 0.46749 0.27456 0.6901 0.34876 0.22756 0.06926 0.45017 0.10389 0.66784 0.10389v-0.89045"/>
   <path id="path3998" d="m53.604 56.389v0.40812c0.0049 0.14346 0.01484 0.2894 0.02968 0.43781 0.01484 0.14346 0.03957 0.28198 0.0742 0.41554 0.03463 0.12862 0.08162 0.23993 0.14099 0.33392 0.08904-0.12367 0.14841-0.26961 0.17809-0.43781 0.03463-0.1682 0.0742-0.32897 0.11873-0.48233 0.04947-0.15335 0.1212-0.28198 0.21519-0.38586 0.09399-0.10883 0.24735-0.16325 0.46007-0.16325 0.12367 0.08905 0.21272 0.18799 0.26714 0.29682 0.05442 0.10389 0.09646 0.21272 0.12615 0.3265 0.02968 0.11378 0.05689 0.23251 0.08163 0.35618 0.02968 0.11873 0.0742 0.23993 0.13357 0.3636 0.09399-0.08904 0.17562-0.20035 0.24488-0.33392 0.06925-0.13851 0.14098-0.26466 0.21519-0.37844 0.07915-0.11872 0.16819-0.20777 0.26714-0.26714 0.09894-0.05936 0.22508-0.05936 0.37844 0 0.12367 0.15336 0.21024 0.31413 0.25972 0.48233 0.04947 0.1682 0.0742 0.34134 0.0742 0.51943-0.000004 0.17809-0.02226 0.35866-0.06678 0.54169-0.03958 0.17809-0.09152 0.35865-0.15583 0.54169-0.05442 0.05936-0.11378 0.09894-0.17809 0.11873-0.05937 0.01979-0.11873 0.06184-0.17809 0.12615-0.05937-0.09399-0.094-0.18056-0.10389-0.25972-0.0099-0.07915-0.01237-0.15583-0.0074-0.23003 0.0099-0.07915 0.01731-0.15583 0.02226-0.23003 0.0049-0.07915-0.0099-0.16325-0.04452-0.2523-0.05937 0.05936-0.10884 0.11873-0.14841 0.17809-0.03463 0.05936-0.07173 0.1212-0.11131 0.18551-0.03463 0.05936-0.07668 0.11873-0.12615 0.17809-0.04947 0.06431-0.11873 0.12615-0.20777 0.18551-0.12862 0-0.2523-0.0049-0.37102-0.01484-0.11873-0.0099-0.2424-0.04947-0.37102-0.11873l-0.12615-0.97208c-0.05936 0.09399-0.11378 0.19541-0.16325 0.30424-0.04947 0.10389-0.10141 0.21519-0.15583 0.33392-0.04947 0.11378-0.10884 0.23003-0.17809 0.34876-0.06431 0.11873-0.14099 0.23993-0.23003 0.3636-0.08905-0.000001-0.1682-0.0025-0.23745-0.0074-0.06431 0-0.12368-0.0074-0.17809-0.02226-0.05442-0.01484-0.10636-0.03958-0.15583-0.0742-0.04947-0.03463-0.10636-0.08163-0.17067-0.14099-0.12368-0.43533-0.1954-0.88551-0.21519-1.3505-0.01979-0.46501-0.02968-0.91024-0.02968-1.3357 0-0.15335 0.03216-0.24982 0.09647-0.2894 0.06431-0.04452 0.13604-0.05194 0.21519-0.02226 0.07915 0.02969 0.15088 0.08658 0.21519 0.17067 0.06431 0.07915 0.09647 0.16325 0.09647 0.2523"/>
   <path id="path4000" d="m59.851 56.404c0.12862 0.34134 0.18798 0.65053 0.17809 0.92756-0.0099 0.27703-0.11873 0.55159-0.3265 0.82367-0.26714 0.26714-0.56148 0.44028-0.88303 0.51943s-0.653 0.08163-0.99434 0.0074c-0.06926-0.02968-0.1311-0.06678-0.18551-0.11131-0.04947-0.04947-0.09894-0.10389-0.14841-0.16325s-0.10141-0.1212-0.15583-0.18551c-0.04947-0.06431-0.10636-0.13109-0.17067-0.20035-0.03957-0.13357-0.05936-0.28198-0.05936-0.44523s0.01731-0.32402 0.05194-0.48233c0.03463-0.16325 0.0841-0.3166 0.14841-0.46007 0.06431-0.14346 0.14594-0.26466 0.24488-0.3636 0.1682-0.23745 0.3636-0.41307 0.58622-0.52685 0.22261-0.11872 0.44275-0.17314 0.66042-0.16325 0.22261 0.005 0.42791 0.07668 0.6159 0.21519 0.18798 0.13357 0.33392 0.3364 0.43781 0.60848m-0.68268 0.53427c0.02968-0.06926 0.03215-0.14099 0.0074-0.21519-0.02474-0.0742-0.06679-0.13109-0.12615-0.17067-0.05937-0.04452-0.12862-0.06183-0.20777-0.05194-0.07421 0.0099-0.14841 0.06431-0.22261 0.16325-0.05442-0.06431-0.11873-0.0742-0.19293-0.02968-0.06926 0.04453-0.13604 0.10389-0.20035 0.17809-0.02968 0.06926-0.07421 0.14594-0.13357 0.23003-0.05442 0.07915-0.10389 0.16572-0.14841 0.25972-0.04452 0.09399-0.07173 0.19046-0.08162 0.2894-0.0049 0.09894 0.02473 0.20035 0.08905 0.30424h0.66784c0.20777-0.0742 0.35123-0.20035 0.43039-0.37844 0.07915-0.18304 0.11872-0.37597 0.11873-0.57879"/>
   <path id="path4002" d="m61.401 56.151v0.28198c0.13357-0.17314 0.26219-0.32897 0.38586-0.46749 0.12862-0.13851 0.26219-0.25724 0.4007-0.35618 0.13851-0.10388 0.28692-0.19046 0.44523-0.25972 0.1583-0.06925 0.33886-0.11872 0.54169-0.14841 0.04452 0.15831 0.04947 0.30424 0.01484 0.43781-0.03463 0.12862-0.09647 0.2523-0.18551 0.37102-0.0841 0.11378-0.18551 0.22509-0.30424 0.33392l-0.35618 0.3265c-0.11378 0.10884-0.22014 0.22262-0.31908 0.34134-0.09894 0.11378-0.17067 0.23993-0.21519 0.37844-0.06926 0.10389-0.12368 0.22014-0.16325 0.34876-0.03958 0.12862-0.08163 0.25724-0.12615 0.38586-0.03958 0.12862-0.08905 0.24982-0.14841 0.3636s-0.14099 0.2053-0.24488 0.27456c-0.03958 0-0.0841-0.0025-0.13357-0.0074-0.04452 0-0.09399-0.0074-0.14841-0.02226-0.04947-0.01979-0.09894-0.04947-0.14841-0.08904-0.04947-0.03958-0.09152-0.09399-0.12615-0.16325-0.03463-0.23745-0.05442-0.47738-0.05936-0.71978 0-0.2424 0.0074-0.49222 0.02226-0.74946 0.01979-0.25724 0.04452-0.52438 0.0742-0.80141 0.03463-0.27703 0.07173-0.57137 0.11131-0.88303-0.000001-0.02968 0.0074-0.06678 0.02226-0.11131 0.01979-0.04947 0.04452-0.09646 0.0742-0.14099 0.03463-0.04452 0.07668-0.08162 0.12615-0.11131 0.05442-0.02968 0.11625-0.04452 0.18551-0.04452 0.10388 0.06926 0.1682 0.15336 0.19293 0.2523 0.02968 0.09894 0.04452 0.2053 0.04452 0.31908-0.000001 0.10884-0.0025 0.22014-0.0074 0.33392s0.0099 0.22262 0.04452 0.3265"/>
   <path id="path4004" d="m65.014 56.322c-0.000002 0.0841 0.0025 0.18304 0.0074 0.29682 0.0099 0.10884 0.0074 0.22014-0.0074 0.33392-0.01484 0.10884-0.04947 0.21272-0.10389 0.31166-0.04947 0.09399-0.13357 0.17067-0.2523 0.23003-0.23746 0.05442-0.46254 0.06431-0.67526 0.02968-0.21272-0.03957-0.37844-0.09152-0.49717-0.15583-0.05936 0.03463-0.09894 0.07173-0.11873 0.11131-0.01484 0.03958-0.02226 0.07915-0.02226 0.11873 0 0.04452 0.01237 0.08905 0.0371 0.13357 0.0841 0.11378 0.18056 0.2053 0.2894 0.27456 0.11378 0.06431 0.23003 0.12615 0.34876 0.18551 0.11872 0.05936 0.2325 0.12367 0.34134 0.19293 0.11378 0.06431 0.21272 0.15583 0.29682 0.27456-0.0841 0.08904-0.18304 0.13357-0.29682 0.13357s-0.23251-0.02226-0.35618-0.06678c-0.12368-0.04452-0.24982-0.09647-0.37844-0.15583-0.12862-0.06431-0.2523-0.11131-0.37102-0.14099-0.11873-0.05442-0.21025-0.13851-0.27456-0.2523-0.06431-0.11378-0.12862-0.23003-0.19293-0.34876-0.05936-0.11378-0.08657-0.22756-0.08162-0.34134 0.0099-0.11872 0.0371-0.2325 0.08162-0.34134 0.04452-0.10883 0.09894-0.21272 0.16325-0.31166 0.06926-0.09894 0.13357-0.19046 0.19293-0.27456 0.11873-0.14841 0.25972-0.28198 0.42297-0.4007 0.1682-0.12367 0.33886-0.20777 0.51201-0.2523 0.17809-0.04452 0.34876-0.0371 0.51201 0.02226 0.1682 0.05442 0.30918 0.18551 0.42296 0.39328m-0.58622 0.11131c-0.11873 0.06431-0.23251 0.12862-0.34134 0.19293-0.10389 0.06431-0.18304 0.15336-0.23746 0.26714h0.23003c0.11873-0.04947 0.2053-0.10883 0.25972-0.17809 0.05936-0.0742 0.08904-0.16819 0.08905-0.28198"/>
  </g>
  <rect id="rect4182" style="opacity:.15;color:#000000;display:inline" height="1.0881" width="56" y="42.912" x="20"/>
  <rect id="rect4184" style="opacity:.15;color:#000000;display:inline" height="1.0881" width="56" y="58.912" x="20"/>
  <rect id="rect4186" style="opacity:.15;color:#000000;display:inline" height="1.0881" width="56" y="74.912" x="20"/>
 </g>
 <g id="layer5">
  <rect id="rect3171" style="opacity:.1;filter:url(#filter3794);stroke:#fff;stroke-linecap:round;stroke-width:.5;fill:url(#linearGradient3613)" clip-path="url(#clipPath3613)" rx="12" ry="12" height="66" width="66" y="15" x="15"/>
 </g>
</svg>
