<?xml version="1.0" encoding="UTF-8" standalone="no"?>
<!-- Created with Inkscape (http://www.inkscape.org/) -->
<svg id="svg2408" xmlns:rdf="http://www.w3.org/1999/02/22-rdf-syntax-ns#" xmlns="http://www.w3.org/2000/svg" height="96" width="96" version="1.0" xmlns:cc="http://creativecommons.org/ns#" xmlns:xlink="http://www.w3.org/1999/xlink" xmlns:dc="http://purl.org/dc/elements/1.1/">
 <defs id="defs2410">
  <linearGradient id="ButtonShadow" y2="7.0165" gradientUnits="userSpaceOnUse" x2="45.448" gradientTransform="scale(1.0059 .99417)" y1="92.54" x1="45.448">
   <stop id="stop3750" offset="0"/>
   <stop id="stop3752" style="stop-opacity:.58824" offset="1"/>
  </linearGradient>
  <linearGradient id="linearGradient3737">
   <stop id="stop3739" style="stop-color:#fff" offset="0"/>
   <stop id="stop3741" style="stop-color:#fff;stop-opacity:0" offset="1"/>
  </linearGradient>
  <filter id="filter3174" color-interpolation-filters="sRGB">
   <feGaussianBlur id="feGaussianBlur3176" stdDeviation="1.71"/>
  </filter>
  <linearGradient id="linearGradient3188" y2="63.893" xlink:href="#linearGradient3737" gradientUnits="userSpaceOnUse" x2="36.357" y1="6" x1="36.357"/>
  <filter id="filter3794" height="1.384" width="1.384" color-interpolation-filters="sRGB" y="-.192" x="-.192">
   <feGaussianBlur id="feGaussianBlur3796" stdDeviation="5.28"/>
  </filter>
  <linearGradient id="linearGradient3613" y2="138.66" xlink:href="#linearGradient3737" gradientUnits="userSpaceOnUse" x2="48" y1="20.221" x1="48"/>
  <radialGradient id="radialGradient3619" xlink:href="#linearGradient3737" gradientUnits="userSpaceOnUse" cy="90.172" cx="48" gradientTransform="matrix(1.1573 0 0 .99591 -7.551 .19713)" r="42"/>
  <clipPath id="clipPath3613">
   <rect id="rect3615" style="fill:#fff" rx="6" ry="6" height="84" width="84" y="6" x="6"/>
  </clipPath>
  <linearGradient id="linearGradient3617" y2="5.9877" gradientUnits="userSpaceOnUse" x2="48" y1="90" x1="48">
   <stop id="stop3793" style="stop-color:#36326c" offset="0"/>
   <stop id="stop3795" style="stop-color:#6d6aaf" offset="1"/>
  </linearGradient>
  <linearGradient id="ButtonShadow-0" y2="7.0165" gradientUnits="userSpaceOnUse" x2="45.448" gradientTransform="matrix(1.0059 0 0 .99417 100 0)" y1="92.54" x1="45.448">
   <stop id="stop3750-8" offset="0"/>
   <stop id="stop3752-5" style="stop-opacity:.58824" offset="1"/>
  </linearGradient>
  <linearGradient id="linearGradient3780" y2="90.239" xlink:href="#ButtonShadow-0" gradientUnits="userSpaceOnUse" x2="32.251" gradientTransform="matrix(1.0238 0 0 1.0119 -1.1429 -98.071)" y1="6.1317" x1="32.251"/>
  <linearGradient id="linearGradient3721" y2="90.239" xlink:href="#ButtonShadow-0" gradientUnits="userSpaceOnUse" x2="32.251" gradientTransform="translate(0,-97)" y1="6.1317" x1="32.251"/>
  <linearGradient id="linearGradient4244">
   <stop id="stop4246" style="stop-color:#fff" offset="0"/>
   <stop id="stop4267" style="stop-color:#afa7c6" offset=".17571"/>
   <stop id="stop4261" style="stop-color:#43477f" offset=".60860"/>
   <stop id="stop4270" style="stop-color:#1a2351" offset=".85356"/>
   <stop id="stop4248" style="stop-color:#000b2f" offset="1"/>
  </linearGradient>
  <linearGradient id="linearGradient4281">
   <stop id="stop4283" style="stop-color:#f6e5ed" offset="0"/>
   <stop id="stop4285" style="stop-color:#9f275f" offset="1"/>
  </linearGradient>
  <radialGradient id="radialGradient3009" fx="8.0649" fy="11.953" xlink:href="#linearGradient4244" gradientUnits="userSpaceOnUse" cy="12.516" cx="10.367" gradientTransform="matrix(1.4938 1.3905 -1.0059 1.0806 5.6112 -17.4)" r="20.571"/>
  <radialGradient id="radialGradient3802" fx="7.028" fy="12.788" xlink:href="#linearGradient4281" gradientUnits="userSpaceOnUse" cy="13.351" cx="9.3303" gradientTransform="matrix(1.9321 1.8241 -1.0134 1.0735 126.22 3.5541)" r="20.571"/>
  <radialGradient id="radialGradient3839" xlink:href="#linearGradient4281" gradientUnits="userSpaceOnUse" cy="21.022" cx="11.912" gradientTransform="matrix(2.5419 2.5419 -1.5699 1.5699 26.019 54.955)" r="20.571"/>
  <radialGradient id="radialGradient3842" fx="8.0649" fy="11.953" xlink:href="#linearGradient4281" gradientUnits="userSpaceOnUse" cy="12.516" cx="10.367" gradientTransform="matrix(2.1784 2.0857 -1.4669 1.6209 17.183 -13.814)" r="20.571"/>
  <linearGradient id="linearGradient3925" y2="48" gradientUnits="userSpaceOnUse" x2="90" y1="48" x1="6">
   <stop id="stop3921" style="stop-color:#aaf" offset="0"/>
   <stop id="stop3923" style="stop-color:#aaf;stop-opacity:0" offset="1"/>
  </linearGradient>
  <linearGradient id="linearGradient3953" y2="48" gradientUnits="userSpaceOnUse" x2="56.04" gradientTransform="translate(0,2)" y1="48" x1="6">
   <stop id="stop3017" offset="0"/>
   <stop id="stop3019" style="stop-opacity:0" offset="1"/>
  </linearGradient>
  <linearGradient id="linearGradient3963" y2="52.815" xlink:href="#linearGradient3737" gradientUnits="userSpaceOnUse" x2="52" gradientTransform="matrix(.93299 0 0 .84906 3.4844 3.906)" y1="19.253" x1="52"/>
  <radialGradient id="radialGradient3965" gradientUnits="userSpaceOnUse" cy="27.25" cx="26.786" r="16.964">
   <stop id="stop3866" style="stop-color:#fff" offset="0"/>
   <stop id="stop3872" style="stop-color:#fff;stop-opacity:.57364" offset=".24046"/>
   <stop id="stop3874" style="stop-color:#fff;stop-opacity:.14729" offset=".68724"/>
   <stop id="stop3878" style="stop-color:#fff;stop-opacity:.10853" offset=".74211"/>
   <stop id="stop3868" style="stop-color:#fff;stop-opacity:0" offset="1"/>
  </radialGradient>
  <radialGradient id="radialGradient3988" fx="8.0649" fy="11.953" xlink:href="#linearGradient4244" gradientUnits="userSpaceOnUse" cy="12.516" cx="10.367" gradientTransform="matrix(2.1784 2.0857 -1.4669 1.6209 25.183 -103.81)" r="20.571"/>
  <radialGradient id="radialGradient4026" gradientUnits="userSpaceOnUse" cy="66.105" cx="52" gradientTransform="matrix(1.0929 -6.8394e-8 7.6056e-8 1.2153 -4.8295 -14.232)" r="30">
   <stop id="stop4018" style="stop-color:#8c7bbd" offset="0"/>
   <stop id="stop4024" style="stop-color:#150641" offset="1"/>
  </radialGradient>
  <filter id="filter4039" color-interpolation-filters="sRGB">
   <feGaussianBlur id="feGaussianBlur4041" stdDeviation="2.4"/>
  </filter>
 </defs>
 <metadata id="metadata2413">
  <rdf:RDF>
   <cc:Work rdf:about="">
    <dc:format>image/svg+xml</dc:format>
    <dc:type rdf:resource="http://purl.org/dc/dcmitype/StillImage"/>
    <dc:title/>
   </cc:Work>
  </rdf:RDF>
 </metadata>
 <g id="layer2" style="display:none">
  <rect id="rect3745" style="opacity:.9;filter:url(#filter3174);fill:url(#ButtonShadow)" rx="6" ry="6" height="85" width="86" y="7" x="5"/>
 </g>
 <g id="layer3">
  <path id="path3786" style="opacity:0.08;fill:url(#linearGradient3780)" d="m12-95.031c-5.5111 0-10.031 4.5202-10.031 10.031v71c0 5.5111 4.5202 10.031 10.031 10.031h72c5.5111 0 10.031-4.5202 10.031-10.031v-71c0-5.5111-4.5202-10.031-10.031-10.031h-72z" transform="scale(1,-1)"/>
  <path id="path3778" style="opacity:.1;fill:url(#linearGradient3780)" d="m12-94.031c-4.9716 0-9.0312 4.0596-9.0312 9.0312v71c0 4.9716 4.0596 9.0312 9.0312 9.0312h72c4.9716 0 9.0312-4.0596 9.0312-9.0312v-71c0-4.9716-4.0596-9.0312-9.0312-9.0312h-72z" transform="scale(1,-1)"/>
  <path id="path3770" style="opacity:.2;fill:url(#linearGradient3780)" d="m12-93c-4.4091 0-8 3.5909-8 8v71c0 4.4091 3.5909 8 8 8h72c4.4091 0 8-3.5909 8-8v-71c0-4.4091-3.5909-8-8-8h-72z" transform="scale(1,-1)"/>
  <rect id="rect3723" style="opacity:.3;fill:url(#linearGradient3780)" transform="scale(1,-1)" rx="7" ry="7" height="85" width="86" y="-92" x="5"/>
  <rect id="rect3716" style="opacity:.45;fill:url(#linearGradient3721)" transform="scale(1,-1)" rx="6" ry="6" height="84" width="84" y="-91" x="6"/>
 </g>
 <g id="layer1">
  <rect id="rect2419" style="fill:url(#linearGradient3617)" rx="6" ry="6" height="84" width="84" y="6" x="6"/>
  <path id="path3015" style="filter:url(#filter4039);fill:url(#radialGradient3842)" d="m74 48a30 30 0 0 1 -60 0 30 30 0 1 1 60 0z"/>
  <path id="path4043" style="fill:url(#radialGradient3842)" d="m74 48a30 30 0 0 1 -60 0 30 30 0 1 1 60 0z"/>
  <path id="rect3728" style="opacity:.35;fill:url(#linearGradient3188)" d="m12 6c-3.324 0-6 2.676-6 6v2 68 2c0 0.33472 0.04135 0.6507 0.09375 0.96875 0.0487 0.2956 0.09704 0.59692 0.1875 0.875 0.00988 0.03038 0.020892 0.0636 0.03125 0.09375 0.098865 0.28777 0.23488 0.54745 0.375 0.8125 0.14459 0.27351 0.31562 0.53562 0.5 0.78125 0.18438 0.24564 0.37378 0.47347 0.59375 0.6875 0.43995 0.42806 0.94291 0.81453 1.5 1.0938 0.27854 0.13961 0.57347 0.24695 0.875 0.34375-0.2562-0.10022-0.48671-0.23627-0.71875-0.375-0.00741-0.0044-0.023866 0.0045-0.03125 0-0.031933-0.0193-0.062293-0.04251-0.09375-0.0625-0.1204-0.0767-0.23102-0.16351-0.34375-0.25-0.10617-0.0808-0.21328-0.16111-0.3125-0.25-0.1778-0.162-0.3473-0.346-0.4999-0.531-0.1075-0.131-0.2183-0.266-0.3124-0.407-0.0251-0.038-0.0385-0.086-0.0626-0.125-0.0647-0.103-0.1302-0.204-0.1874-0.312-0.1011-0.195-0.2057-0.416-0.2813-0.625-0.008-0.022-0.0236-0.041-0.0313-0.063-0.0318-0.092-0.0358-0.187-0.0624-0.281-0.0304-0.107-0.0704-0.203-0.0938-0.313-0.0729-0.341-0.125-0.698-0.125-1.062v-2-68-2c0-2.782 2.2182-5 5-5h2 68 2c2.7818 0 5 2.2182 5 5v2 68 2c0 0.3643-0.05212 0.72099-0.125 1.0625-0.04415 0.20689-0.08838 0.39766-0.15625 0.59375-0.0077 0.02195-0.0233 0.04069-0.03125 0.0625-0.06274 0.17374-0.13838 0.36745-0.21875 0.53125-0.04158 0.0828-0.07904 0.16995-0.125 0.25-0.0546 0.09721-0.12677 0.18835-0.1875 0.28125-0.09411 0.14096-0.20492 0.276-0.3125 0.40625-0.14317 0.17445-0.30314 0.347-0.46875 0.5-0.01117 0.0102-0.01998 0.02115-0.03125 0.03125-0.13839 0.12556-0.28509 0.23444-0.4375 0.34375-0.10257 0.07315-0.20432 0.15336-0.3125 0.21875-0.0074 0.0045-0.02384-0.0044-0.03125 0-0.23204 0.13873-0.46255 0.27478-0.71875 0.375 0.30153-0.0968 0.59646-0.20414 0.875-0.34375 0.55709-0.27922 1.0601-0.66569 1.5-1.0938 0.21997-0.21403 0.40937-0.44186 0.59375-0.6875s0.35541-0.50774 0.5-0.78125c0.14012-0.26505 0.27614-0.52473 0.375-0.8125 0.01041-0.03078 0.02133-0.06274 0.03125-0.09375 0.09046-0.27808 0.1388-0.5794 0.1875-0.875 0.053-0.318 0.094-0.634 0.094-0.969v-2-68-2c0-3.324-2.676-6-6-6h-72z"/>
  <path id="path3615" style="opacity:.15;fill:url(#radialGradient3619)" d="m12 90c-3.324 0-6-2.676-6-6v-2-68-2c0-0.33472 0.04135-0.6507 0.09375-0.96875 0.0487-0.2956 0.09704-0.59692 0.1875-0.875 0.0099-0.03 0.0209-0.063 0.0313-0.094 0.0989-0.2873 0.2349-0.547 0.375-0.812 0.1446-0.2735 0.3156-0.5356 0.5-0.7812 0.1844-0.2457 0.3738-0.4735 0.5937-0.6876 0.44-0.428 0.943-0.8145 1.5-1.0937 0.2786-0.1396 0.5735-0.2469 0.8748-0.3437-0.256 0.1002-0.4865 0.2362-0.7185 0.375-0.00741 0.0044-0.023866-0.0045-0.03125 0-0.031933 0.0193-0.062293 0.04251-0.09375 0.0625-0.1204 0.0767-0.23102 0.16351-0.34375 0.25-0.10617 0.0808-0.21328 0.16111-0.3125 0.25-0.1779 0.1614-0.3474 0.3453-0.5 0.5312-0.1075 0.1303-0.2183 0.2653-0.3124 0.4063-0.0251 0.0383-0.0385 0.0858-0.0626 0.125-0.0647 0.103-0.1302 0.2045-0.1874 0.3124-0.1011 0.1948-0.2057 0.4158-0.2813 0.625-0.008 0.0219-0.0236 0.0406-0.0313 0.0626-0.0318 0.0919-0.0358 0.1868-0.0624 0.2812-0.0304 0.1066-0.0704 0.203-0.0938 0.3125-0.0729 0.3415-0.125 0.6985-0.125 1.0625v2 68 2c0 2.7818 2.2182 5 5 5h2 68 2c2.7818 0 5-2.2182 5-5v-2-68-2c0-0.364-0.052-0.721-0.125-1.0625-0.044-0.2069-0.088-0.3977-0.156-0.5937-0.008-0.022-0.024-0.0407-0.031-0.0626-0.063-0.1737-0.139-0.3674-0.219-0.5312-0.042-0.0828-0.079-0.17-0.125-0.25-0.055-0.0972-0.127-0.1884-0.188-0.2812-0.094-0.141-0.205-0.276-0.312-0.4063-0.143-0.1745-0.303-0.347-0.469-0.5-0.011-0.0102-0.02-0.0211-0.031-0.0313-0.139-0.1255-0.285-0.2344-0.438-0.3437-0.102-0.0731-0.204-0.1534-0.312-0.2187-0.0074-0.0045-0.02384 0.0044-0.03125 0-0.23204-0.13873-0.46255-0.27478-0.71875-0.375 0.30153 0.0968 0.59646 0.20414 0.875 0.34375 0.55709 0.27922 1.0601 0.66569 1.5 1.0938 0.21997 0.21403 0.40937 0.44186 0.59375 0.6875s0.35541 0.50774 0.5 0.78125c0.14012 0.26505 0.27614 0.52473 0.375 0.8125 0.01041 0.03078 0.02133 0.06274 0.03125 0.09375 0.09046 0.27808 0.1388 0.5794 0.1875 0.875 0.053 0.318 0.094 0.634 0.094 0.969v2 68 2c0 3.324-2.676 6-6 6h-72z"/>
  <path id="path4277" style="fill:url(#radialGradient3802)" d="m168.43 47.984a20.571 20 0 0 1 -41.143 0 20.571 20 0 1 1 41.143 0z"/>
  <g id="layer2-1" transform="translate(125.75 24.238)">
   <path id="path4242" style="fill:url(#radialGradient3009)" transform="translate(1.0159 .25397)" d="m44.571 23.81a20.571 20 0 1 1 -41.143 0 20.571 20 0 1 1 41.143 0z"/>
  </g>
  <g id="layer4" transform="translate(125.75 24.238)">
   <path id="path6086" style="fill-rule:evenodd;stroke:#acbde1;stroke-width:.71830px;fill:#acbde1" d="m4.8726 19.62h41.764"/>
   <path id="path6109" style="fill-rule:evenodd;stroke:#acbde1;stroke-width:.72165px;fill:#acbde1" d="m4.4804 22.657h42.154"/>
   <path id="path6111" style="fill-rule:evenodd;stroke:#acbde1;stroke-width:.72165px;fill:#acbde1" d="m4.4938 25.669h42.154"/>
   <path id="path6113" style="fill-rule:evenodd;stroke:#acbde1;stroke-width:.71838px;fill:#acbde1" d="m4.8983 28.672h41.772"/>
  </g>
  <path id="path3862" style="color:#000000;fill:url(#radialGradient3965)" d="m43.75 27.25a16.964 16.964 0 1 1 -33.929 0 16.964 16.964 0 1 1 33.929 0z"/>
  <path id="path3908" style="opacity:.1" d="m48.938 16.875c-1.0058-0.02935-2.1809-0.0089-3.1875 0.0625-1.0054 0.07136-2.2244 0.20342-3.2188 0.375-0.97586 0.1684-2.1369 0.41306-3.125 0.6875-0.98714 0.27416-2.1072 0.67188-3.0312 1.0312-0.92497 0.35975-2.0565 0.81675-2.9688 1.2812-0.91003 0.46336-1.944 1.0872-2.7812 1.625-0.84923 0.5455-1.8048 1.2486-2.5938 1.875-0.77696 0.61682-1.7032 1.3803-2.4375 2.0938-0.72298 0.70249-1.5377 1.6031-2.1875 2.375-0.64936 0.77134-1.3689 1.7309-1.9375 2.5625-0.57003 0.83371-1.2051 1.8663-1.6875 2.75-0.48762 0.89322-1.0174 1.9857-1.4062 2.9062-0.39135 0.92647-0.79574 2.0354-1.0938 3-0.29404 0.95173-0.61031 2.0944-0.8125 3.0938-0.20422 1.0094-0.33929 2.236-0.4375 3.2188-0.10001 1.0008-0.15668 2.1777-0.15625 3.1875 0.00025 0.97017 0.02602 2.1226 0.125 3.125 0.09862 0.99883 0.27807 2.1988 0.46875 3.1562 0.18961 0.95212 0.45713 2.0978 0.75 3.0625 0.28982 0.95469 0.68763 2.033 1.0625 2.9375 0.37821 0.91259 0.90688 1.9996 1.375 2.875 0.46836 0.87587 1.047 1.8696 1.5938 2.6875 0.54364 0.81333 1.2396 1.7885 1.875 2.5625 0.63583 0.77453 1.4655 1.6219 2.1562 2.3125 0.69035 0.69018 1.5373 1.5202 2.3125 2.1562 0.77366 0.63478 1.7485 1.3312 2.5625 1.875 0.81759 0.54618 1.811 1.1253 2.6875 1.5938 0.89335 0.47741 1.9819 0.97388 2.875 1.3438 0.90407 0.37441 1.9822 0.77276 2.9375 1.0625 0.94264 0.2859 2.0871 0.58726 3.0625 0.78125 0.97963 0.19483 2.1802 0.34138 3.1562 0.4375 0.97853 0.09636 2.1307 0.15625 3.125 0.15625 0.99434 0 2.1465-0.05989 3.125-0.15625 0.97609-0.09612 2.1766-0.24267 3.1562-0.4375 0.97544-0.19399 2.1199-0.49535 3.0625-0.78125 0.95533-0.28974 2.0334-0.68809 2.9375-1.0625 0.8931-0.36987 1.9816-0.86634 2.875-1.3438 0.87651-0.46841 1.8699-1.0476 2.6875-1.5938 0.81397-0.54376 1.7888-1.2402 2.5625-1.875 0.77515-0.636 1.6221-1.4661 2.3125-2.1562 0.69077-0.6906 1.5204-1.538 2.1562-2.3125 0.63536-0.77395 1.3314-1.7492 1.875-2.5625 0.54672-0.81794 1.1254-1.8116 1.5938-2.6875 0.46812-0.87541 0.99679-1.9624 1.375-2.875 0.37487-0.90452 0.77268-1.9828 1.0625-2.9375 0.29287-0.96473 0.56039-2.1104 0.75-3.0625 0.194-0.955 0.373-2.155 0.472-3.154 0.099-1.002 0.125-2.155 0.125-3.125 0-0.958-0.031-2.112-0.125-3.094-0.09379-0.97443-0.25361-2.1182-0.4375-3.0625-0.18564-0.9533-0.47275-2.0978-0.75-3.0312-0.27299-0.91914-0.63094-1.9957-1-2.9062-0.37122-0.91585-0.90134-1.9657-1.3438-2.8125-0.44418-0.85014-0.99392-1.8635-1.5312-2.6875-0.53365-0.81837-1.2105-1.7154-1.8125-2.4688-0.6129-0.76694-1.3923-1.6534-2.0625-2.3438-0.65853-0.67832-1.4902-1.4801-2.25-2.125-0.74695-0.63404-1.6472-1.3256-2.4375-1.875-0.80374-0.55869-1.814-1.1839-2.6562-1.6562-0.8358-0.46868-1.8501-0.97885-2.75-1.375-0.90064-0.39647-1.9948-0.82468-2.9062-1.125-0.93245-0.30725-2.0324-0.56997-2.9688-0.78125-0.93565-0.21112-2.0873-0.43942-3.0625-0.5625-0.973-0.123-2.132-0.191-3.092-0.219z" transform="translate(4)"/>
  <g id="g3831" transform="matrix(1.4583 0 0 1.5 11.519 101.9)">
   <path id="path3833" style="fill:url(#radialGradient3009)" transform="translate(1.0159 .25397)" d="m44.571 23.81a20.571 20 0 1 1 -41.143 0 20.571 20 0 1 1 41.143 0z"/>
  </g>
  <path id="path3835" style="fill:url(#radialGradient3839)" d="m48.875 108c-7.9986-0.23339-16.042 2.895-21.781 8.4713-5.739 5.58-9.097 13.53-9.094 21.53 0.01674 8.0728 3.4576 16.083 9.3011 21.653s14.01 8.6231 22.074 8.2531c-6.7066-0.46082-13.216-3.885-17.823-9.3753-4.607-5.49-7.262-12.99-7.271-20.53 0.0033-7.5693 2.6737-15.097 7.3067-20.597s11.179-8.91 17.912-9.34c-0.208-0.02-0.416-0.04-0.625-0.06z"/>
  <path id="path3898" style="opacity:.3" d="m82 49a30 30 0 0 1 -60 0 30 30 0 1 1 60 0z"/>
  <path id="path3904" style="opacity:.15" d="m48.906 17.938c-0.964-0.02813-2.1318-0.0058-3.0938 0.0625-0.96199 0.06827-2.1434 0.211-3.0938 0.375-0.95036 0.164-2.102 0.39817-3.0312 0.65625-0.92923 0.25808-2.0387 0.65042-2.9375 1-0.89882 0.34958-1.9843 0.81242-2.8438 1.25-0.85942 0.43758-1.8761 1.0413-2.6875 1.5625-0.81143 0.52122-1.7759 1.2129-2.5312 1.8125-0.75532 0.59964-1.6521 1.3592-2.3438 2.0312-0.69167 0.67207-1.5039 1.5435-2.125 2.2812-0.6211 0.73778-1.3307 1.6726-1.875 2.4688-0.54432 0.79611-1.1629 1.8098-1.625 2.6562-0.4621 0.84649-0.96848 1.9241-1.3438 2.8125-0.37527 0.8884-0.77782 1.9848-1.0625 2.9062-0.28468 0.92143-0.59001 2.0547-0.78125 3-0.19124 0.94525-0.3416 2.1341-0.4375 3.0938-0.09589 0.95963-0.15666 2.1293-0.15625 3.0938 0.000244 0.94642 0.03201 2.0894 0.125 3.0312 0.09299 0.94184 0.2839 2.1031 0.46875 3.0312 0.18485 0.92819 0.44383 2.0631 0.71875 2.9688 0.27492 0.90561 0.6689 1.9694 1.0312 2.8438 0.36235 0.8743 0.86622 1.9467 1.3125 2.7812 0.44628 0.83458 1.0366 1.8069 1.5625 2.5938 0.52593 0.78683 1.212 1.7372 1.8125 2.4688 0.60051 0.7315 1.3932 1.5809 2.0625 2.25 0.6693 0.66913 1.5183 1.4622 2.25 2.0625 0.73166 0.60032 1.6818 1.2868 2.4688 1.8125 0.78697 0.52572 1.759 1.1164 2.5938 1.5625 0.8347 0.44607 1.9069 0.91913 2.7812 1.2812 0.8744 0.36212 1.9381 0.75656 2.8438 1.0312 0.90568 0.27469 2.0405 0.56539 2.9688 0.75 0.92824 0.18461 2.0894 0.34475 3.0312 0.4375 0.94186 0.09275 2.0848 0.15625 3.0312 0.15625 0.94642 0 2.0894-0.0635 3.0312-0.15625 0.94186-0.09275 2.103-0.25289 3.0312-0.4375 0.92824-0.18461 2.0631-0.47531 2.9688-0.75 0.90568-0.27469 1.9694-0.66913 2.8438-1.0312 0.8744-0.36212 1.9466-0.83518 2.7812-1.2812 0.8347-0.44607 1.8068-1.0368 2.5938-1.5625 0.78697-0.52572 1.7371-1.2122 2.4688-1.8125 0.73166-0.60032 1.5807-1.3934 2.25-2.0625 0.6693-0.66913 1.462-1.5185 2.0625-2.25 0.60051-0.7315 1.2866-1.6819 1.8125-2.4688 0.52593-0.78683 1.1162-1.7592 1.5625-2.5938 0.44628-0.83458 0.95015-1.9069 1.3125-2.7812s0.75633-1.9381 1.0312-2.8438c0.27492-0.90561 0.5339-2.0406 0.71875-2.9688 0.18485-0.92819 0.37576-2.0894 0.46875-3.0312 0.09299-0.94184 0.12476-2.0848 0.125-3.0312 0.000395-0.92925-0.03597-2.075-0.125-3-0.087-0.926-0.257-2.026-0.435-2.939-0.178-0.912-0.454-2.046-0.719-2.937-0.264-0.891-0.619-1.951-0.969-2.813-0.349-0.861-0.85-1.895-1.281-2.718-0.43-0.824-0.992-1.816-1.5-2.594-0.50757-0.77838-1.1699-1.6803-1.75-2.4062-0.58012-0.72592-1.3527-1.5833-2-2.25-0.64728-0.66673-1.4478-1.4612-2.1562-2.0625-0.70844-0.60135-1.612-1.2821-2.375-1.8125-0.76302-0.53038-1.752-1.1393-2.5625-1.5938-0.81052-0.4545-1.8058-0.96936-2.6562-1.3438-0.85049-0.3744-1.9299-0.77168-2.8125-1.0625-0.88257-0.29082-1.9685-0.57671-2.875-0.78125-0.90646-0.20454-2.0156-0.41489-2.9375-0.53125-0.92194-0.11636-2.0711-0.19165-3-0.21875z" transform="translate(4)"/>
  <path id="path3880" style="fill:url(#radialGradient4026)" d="m82 48a30 30 0 0 1 -60 0 30 30 0 1 1 60 0z"/>
  <path id="path4028" style="opacity:.15;fill:#fff" d="m79.188 46.719a27.214 27.214 0 0 1 -54.376 0.469 27.214 27.214 0 0 0 -0.031 0.812 27.219 27.219 0 0 0 54.438 0 27.214 27.214 0 0 0 -0.031 -1.281z"/>
  <path id="path3955" style="opacity:.8;fill:url(#linearGradient3963)" d="m73.16 34.504a21.16 14.248 0 0 1 -42.321 0 21.16 14.248 0 1 1 42.321 0z"/>
  <path id="path3986" style="fill:url(#radialGradient3988)" d="m82-42a30 30 0 0 1 -60 0 30 30 0 1 1 60 0z"/>
  <path id="path4001" style="fill:#251650" d="m52.875 18a30 30 0 0 0 -30.875 30 30 30 0 0 0 60 0 30 30 0 0 0 -29.125 -30zm-0.03125 1.25a28.741 28.741 0 0 1 27.906 28.75 28.75 28.75 0 0 1 -57.5 0 28.741 28.741 0 0 1 29.594 -28.75z"/>
  <path id="path3927" style="opacity:.2;color:#000000;fill:url(#linearGradient3953)" d="m6 38v1h84v-1h-84zm0 2v1h84v-1h-84zm0 4v1h84v-1h-84zm0 2v1h84v-1h-84zm0 4v1h84v-1h-84zm0 2v1h84v-1h-84zm0 4v1h84v-1h-84zm0 2v1h84v-1h-84z"/>
  <path id="rect3910" style="color:#000000;fill:url(#linearGradient3925)" d="m6 39v1h84v-1h-84zm0 6v1h84v-1h-84zm0 6v1h84v-1h-84zm0 6v1h84v-1h-84z"/>
 </g>
 <g id="layer5">
  <rect id="rect3171" style="opacity:.1;filter:url(#filter3794);stroke:#fff;stroke-linecap:round;stroke-width:.5;fill:url(#linearGradient3613)" clip-path="url(#clipPath3613)" rx="12" ry="12" height="66" width="66" y="15" x="15"/>
 </g>
</svg>
