<?xml version="1.0" encoding="UTF-8" standalone="no"?>
<!-- Created with Inkscape (http://www.inkscape.org/) -->
<svg id="svg2408" xmlns:rdf="http://www.w3.org/1999/02/22-rdf-syntax-ns#" xmlns="http://www.w3.org/2000/svg" height="96" width="96" version="1.0" xmlns:cc="http://creativecommons.org/ns#" xmlns:xlink="http://www.w3.org/1999/xlink" xmlns:dc="http://purl.org/dc/elements/1.1/">
 <defs id="defs2410">
  <linearGradient id="ButtonShadow" y2="7.0165" gradientUnits="userSpaceOnUse" x2="45.448" gradientTransform="scale(1.0059 .99417)" y1="92.54" x1="45.448">
   <stop id="stop3750" offset="0"/>
   <stop id="stop3752" style="stop-opacity:.58824" offset="1"/>
  </linearGradient>
  <linearGradient id="linearGradient3737">
   <stop id="stop3739" style="stop-color:#fff" offset="0"/>
   <stop id="stop3741" style="stop-color:#fff;stop-opacity:0" offset="1"/>
  </linearGradient>
  <filter id="filter3174" color-interpolation-filters="sRGB">
   <feGaussianBlur id="feGaussianBlur3176" stdDeviation="1.71"/>
  </filter>
  <linearGradient id="linearGradient3188" y2="63.893" xlink:href="#linearGradient3737" gradientUnits="userSpaceOnUse" x2="36.357" y1="6" x1="36.357"/>
  <filter id="filter3794" height="1.384" width="1.384" color-interpolation-filters="sRGB" y="-.192" x="-.192">
   <feGaussianBlur id="feGaussianBlur3796" stdDeviation="5.28"/>
  </filter>
  <linearGradient id="linearGradient3613" y2="138.66" xlink:href="#linearGradient3737" gradientUnits="userSpaceOnUse" x2="48" y1="20.221" x1="48"/>
  <radialGradient id="radialGradient3619" xlink:href="#linearGradient3737" gradientUnits="userSpaceOnUse" cy="90.172" cx="48" gradientTransform="matrix(1.1573 0 0 .99591 -7.551 .19713)" r="42"/>
  <clipPath id="clipPath3613">
   <rect id="rect3615" style="fill:#fff" rx="6" ry="6" height="84" width="84" y="6" x="6"/>
  </clipPath>
  <linearGradient id="linearGradient3617" y2="5.9877" gradientUnits="userSpaceOnUse" x2="48" gradientTransform="matrix(1.0172 0 0 1.0172 -1.1034 -1.1034)" y1="90" x1="48">
   <stop id="stop3189" style="stop-color:#e26f00" offset="0"/>
   <stop id="stop3191" style="stop-color:#f9a314" offset="1"/>
  </linearGradient>
  <radialGradient id="radialGradient7016" gradientUnits="userSpaceOnUse" cy="150.58" cx="10" gradientTransform="matrix(1.4074 -8.8004e-8 2.8397e-8 .45414 -4.0741 17.616)" r="54">
   <stop id="stop7012" style="stop-color:#d93503" offset="0"/>
   <stop id="stop7014" style="stop-color:#d83603;stop-opacity:0" offset="1"/>
  </radialGradient>
  <radialGradient id="radialGradient7004" gradientUnits="userSpaceOnUse" cy="-22.578" cx="107.82" gradientTransform="matrix(-1.2754 3.9017e-8 -1.4793e-8 -.48355 216.34 -.91766)" r="54">
   <stop id="stop6998" style="stop-color:#ffd812" offset="0"/>
   <stop id="stop7000" style="stop-color:#ffd812;stop-opacity:0" offset="1"/>
  </radialGradient>
  <filter id="filter7028" height="1.36" width="1.36" color-interpolation-filters="sRGB" y="-0.18" x="-0.18">
   <feGaussianBlur id="feGaussianBlur7030" stdDeviation="1.1130742"/>
  </filter>
  <radialGradient id="radialGradient2878" gradientUnits="userSpaceOnUse" cy="8.7609" cx="-24.45" gradientTransform="matrix(.97684 0 0 1.0276 96.186 43.305)" r="14.746">
   <stop id="stop7020" style="stop-color:#fff" offset="0"/>
   <stop id="stop7022" style="stop-color:#fff" offset=".2"/>
   <stop id="stop7024" style="stop-color:#ffde34" offset=".25276"/>
   <stop id="stop7026" style="stop-color:#ffd602;stop-opacity:0" offset="1"/>
  </radialGradient>
  <linearGradient id="linearGradient2882" y2="110.35" gradientUnits="userSpaceOnUse" x2="61.625" gradientTransform="matrix(.66355 0 0 .66355 4.1282 5.0096)" y1="19.577" x1="61.625">
   <stop id="stop6979" style="stop-color:#dc4300" offset="0"/>
   <stop id="stop6981" style="stop-color:#ae3500" offset="1"/>
  </linearGradient>
  <linearGradient id="ButtonShadow-0" y2="7.0165" gradientUnits="userSpaceOnUse" x2="45.448" gradientTransform="matrix(1.0059 0 0 .99417 100 0)" y1="92.54" x1="45.448">
   <stop id="stop3750-8" offset="0"/>
   <stop id="stop3752-5" style="stop-opacity:.58824" offset="1"/>
  </linearGradient>
  <linearGradient id="linearGradient3780" y2="90.239" xlink:href="#ButtonShadow-0" gradientUnits="userSpaceOnUse" x2="32.251" gradientTransform="matrix(1.0238 0 0 1.0119 -1.1429 -98.071)" y1="6.1317" x1="32.251"/>
  <linearGradient id="linearGradient3721" y2="90.239" xlink:href="#ButtonShadow-0" gradientUnits="userSpaceOnUse" x2="32.251" gradientTransform="translate(0,-97)" y1="6.1317" x1="32.251"/>
 </defs>
 <metadata id="metadata2413">
  <rdf:RDF>
   <cc:Work rdf:about="">
    <dc:format>image/svg+xml</dc:format>
    <dc:type rdf:resource="http://purl.org/dc/dcmitype/StillImage"/>
   </cc:Work>
  </rdf:RDF>
 </metadata>
 <g id="layer2" style="display:none">
  <rect id="rect3745" style="opacity:.9;filter:url(#filter3174);fill:url(#ButtonShadow)" rx="6" ry="6" height="85" width="86" y="7" x="5"/>
 </g>
 <g id="layer4">
  <path id="path3786" style="opacity:0.08;fill:url(#linearGradient3780)" d="m12-95.031c-5.5111 0-10.031 4.5202-10.031 10.031v71c0 5.5111 4.5202 10.031 10.031 10.031h72c5.5111 0 10.031-4.5202 10.031-10.031v-71c0-5.5111-4.5202-10.031-10.031-10.031h-72z" transform="scale(1,-1)"/>
  <path id="path3778" style="opacity:.1;fill:url(#linearGradient3780)" d="m12-94.031c-4.9716 0-9.0312 4.0596-9.0312 9.0312v71c0 4.9716 4.0596 9.0312 9.0312 9.0312h72c4.9716 0 9.0312-4.0596 9.0312-9.0312v-71c0-4.9716-4.0596-9.0312-9.0312-9.0312h-72z" transform="scale(1,-1)"/>
  <path id="path3770" style="opacity:.2;fill:url(#linearGradient3780)" d="m12-93c-4.4091 0-8 3.5909-8 8v71c0 4.4091 3.5909 8 8 8h72c4.4091 0 8-3.5909 8-8v-71c0-4.4091-3.5909-8-8-8h-72z" transform="scale(1,-1)"/>
  <rect id="rect3723" style="opacity:.3;fill:url(#linearGradient3780)" transform="scale(1,-1)" rx="7" ry="7" height="85" width="86" y="-92" x="5"/>
  <rect id="rect3716" style="opacity:.45;fill:url(#linearGradient3721)" transform="scale(1,-1)" rx="6" ry="6" height="84" width="84" y="-91" x="6"/>
 </g>
 <g id="layer1">
  <rect id="rect2419" style="fill:url(#linearGradient3617)" rx="6" ry="6" height="84" width="84" y="6" x="6"/>
  <path id="rect3728" style="opacity:.5;fill:url(#linearGradient3188)" d="m12 6c-3.324 0-6 2.676-6 6v2 68 2c0 0.33472 0.04135 0.6507 0.09375 0.96875 0.0487 0.2956 0.09704 0.59692 0.1875 0.875 0.00988 0.03038 0.020892 0.0636 0.03125 0.09375 0.098865 0.28777 0.23488 0.54745 0.375 0.8125 0.14459 0.27351 0.31562 0.53562 0.5 0.78125 0.18438 0.24564 0.37378 0.47347 0.59375 0.6875 0.43995 0.42806 0.94291 0.81453 1.5 1.0938 0.27854 0.13961 0.57347 0.24695 0.875 0.34375-0.2562-0.10022-0.48671-0.23627-0.71875-0.375-0.00741-0.0044-0.023866 0.0045-0.03125 0-0.031933-0.0193-0.062293-0.04251-0.09375-0.0625-0.1204-0.0767-0.23102-0.16351-0.34375-0.25-0.10617-0.0808-0.21328-0.16111-0.3125-0.25-0.1778-0.162-0.3473-0.346-0.4999-0.531-0.1075-0.131-0.2183-0.266-0.3124-0.407-0.0251-0.038-0.0385-0.086-0.0626-0.125-0.0647-0.103-0.1302-0.204-0.1874-0.312-0.1011-0.195-0.2057-0.416-0.2813-0.625-0.008-0.022-0.0236-0.041-0.0313-0.063-0.0318-0.092-0.0358-0.187-0.0624-0.281-0.0304-0.107-0.0704-0.203-0.0938-0.313-0.0729-0.341-0.125-0.698-0.125-1.062v-2-68-2c0-2.782 2.2182-5 5-5h2 68 2c2.7818 0 5 2.2182 5 5v2 68 2c0 0.3643-0.05212 0.72099-0.125 1.0625-0.04415 0.20689-0.08838 0.39766-0.15625 0.59375-0.0077 0.02195-0.0233 0.04069-0.03125 0.0625-0.06274 0.17374-0.13838 0.36745-0.21875 0.53125-0.04158 0.0828-0.07904 0.16995-0.125 0.25-0.0546 0.09721-0.12677 0.18835-0.1875 0.28125-0.09411 0.14096-0.20492 0.276-0.3125 0.40625-0.14317 0.17445-0.30314 0.347-0.46875 0.5-0.01117 0.0102-0.01998 0.02115-0.03125 0.03125-0.13839 0.12556-0.28509 0.23444-0.4375 0.34375-0.10257 0.07315-0.20432 0.15336-0.3125 0.21875-0.0074 0.0045-0.02384-0.0044-0.03125 0-0.23204 0.13873-0.46255 0.27478-0.71875 0.375 0.30153-0.0968 0.59646-0.20414 0.875-0.34375 0.55709-0.27922 1.0601-0.66569 1.5-1.0938 0.21997-0.21403 0.40937-0.44186 0.59375-0.6875s0.35541-0.50774 0.5-0.78125c0.14012-0.26505 0.27614-0.52473 0.375-0.8125 0.01041-0.03078 0.02133-0.06274 0.03125-0.09375 0.09046-0.27808 0.1388-0.5794 0.1875-0.875 0.053-0.318 0.094-0.634 0.094-0.969v-2-68-2c0-3.324-2.676-6-6-6h-72z"/>
  <path id="path3615" style="opacity:.2;fill:url(#radialGradient3619)" d="m12 90c-3.324 0-6-2.676-6-6v-2-68-2c0-0.33472 0.04135-0.6507 0.09375-0.96875 0.0487-0.2956 0.09704-0.59692 0.1875-0.875 0.0099-0.03 0.0209-0.063 0.0313-0.094 0.0989-0.2873 0.2349-0.547 0.375-0.812 0.1446-0.2735 0.3156-0.5356 0.5-0.7812 0.1844-0.2457 0.3738-0.4735 0.5937-0.6876 0.44-0.428 0.943-0.8145 1.5-1.0937 0.2786-0.1396 0.5735-0.2469 0.8748-0.3437-0.256 0.1002-0.4865 0.2362-0.7185 0.375-0.00741 0.0044-0.023866-0.0045-0.03125 0-0.031933 0.0193-0.062293 0.04251-0.09375 0.0625-0.1204 0.0767-0.23102 0.16351-0.34375 0.25-0.10617 0.0808-0.21328 0.16111-0.3125 0.25-0.1779 0.1614-0.3474 0.3453-0.5 0.5312-0.1075 0.1303-0.2183 0.2653-0.3124 0.4063-0.0251 0.0383-0.0385 0.0858-0.0626 0.125-0.0647 0.103-0.1302 0.2045-0.1874 0.3124-0.1011 0.1948-0.2057 0.4158-0.2813 0.625-0.008 0.0219-0.0236 0.0406-0.0313 0.0626-0.0318 0.0919-0.0358 0.1868-0.0624 0.2812-0.0304 0.1066-0.0704 0.203-0.0938 0.3125-0.0729 0.3415-0.125 0.6985-0.125 1.0625v2 68 2c0 2.7818 2.2182 5 5 5h2 68 2c2.7818 0 5-2.2182 5-5v-2-68-2c0-0.364-0.052-0.721-0.125-1.0625-0.044-0.2069-0.088-0.3977-0.156-0.5937-0.008-0.022-0.024-0.0407-0.031-0.0626-0.063-0.1737-0.139-0.3674-0.219-0.5312-0.042-0.0828-0.079-0.17-0.125-0.25-0.055-0.0972-0.127-0.1884-0.188-0.2812-0.094-0.141-0.205-0.276-0.312-0.4063-0.143-0.1745-0.303-0.347-0.469-0.5-0.011-0.0102-0.02-0.0211-0.031-0.0313-0.139-0.1255-0.285-0.2344-0.438-0.3437-0.102-0.0731-0.204-0.1534-0.312-0.2187-0.0074-0.0045-0.02384 0.0044-0.03125 0-0.23204-0.13873-0.46255-0.27478-0.71875-0.375 0.30153 0.0968 0.59646 0.20414 0.875 0.34375 0.55709 0.27922 1.0601 0.66569 1.5 1.0938 0.21997 0.21403 0.40937 0.44186 0.59375 0.6875s0.35541 0.50774 0.5 0.78125c0.14012 0.26505 0.27614 0.52473 0.375 0.8125 0.01041 0.03078 0.02133 0.06274 0.03125 0.09375 0.09046 0.27808 0.1388 0.5794 0.1875 0.875 0.053 0.318 0.094 0.634 0.094 0.969v2 68 2c0 3.324-2.676 6-6 6h-72z"/>
 </g>
 <g id="layer5">
  <rect id="rect3171" style="opacity:.1;filter:url(#filter3794);stroke:#fff;stroke-linecap:round;stroke-width:.5;fill:url(#linearGradient3613)" clip-path="url(#clipPath3613)" rx="12" ry="12" height="66" width="66" y="15" x="15"/>
 </g>
 <g id="layer3">
  <path id="path6963" style="opacity:.8;filter:url(#filter7028);fill:#ffd812" d="m110.78 70.756a7.4205 7.4205 0 1 1 -14.841 0 7.4205 7.4205 0 1 1 14.841 0z" transform="matrix(.84192 0 0 .84192 -14.874 -7.1446)"/>
  <path id="path6908" style="fill:url(#linearGradient2882);fill-rule:evenodd" d="m51.792 18.558s-6.4299 6.6842-6.5827 14.575c-3.3582-1.9228-5.8313-6.1984-3.3684-10.887 2.4695-4.7014 5.8766-4.7401 9.9511-3.688zm-14.175 42.472s-3.6111 8.0937-0.65002 16.083c-3.814-0.65086-7.605-3.684-7.1654-8.8028 0.43875-5.1092 2.1819-7.1299 7.8154-7.28zm3.7762 0.13598s-3.3973 4.8662-0.65718 16.834c7.229-0.39455 9.7826-1.2758 14.852-8.1542 5.0696-6.8784 10.301-31.632 8.6748-39.324-1.6267-7.6926-7.8862-9.9954-7.8862-9.9954-6.9661 3.551-7.0975 13.809-7.0975 13.809s6.5342 1.7155 1.9715 16.834c-4.5883 15.204-9.8577 9.9954-9.8577 9.9954z"/>
  <path id="path6915" style="stroke:#fff4ad;stroke-linecap:round;stroke-width:3;fill:none" d="m15.5 53.406c1.1096-5.3378 0.63229-13.723 2.7253-13.723 3.7496 0.000201 4.8107 17.523 7.1751 17.534 2.3519 0.01236 0.12694-13.146 3.1725-12.998 4.897 0.24813 3.3777-10.249 5.6972-10.262 4.2805-0.025 2.4346 22.959 5.9588 22.8 2.8319-0.1276 2.1878-5.8554 4.4862-5.4893 2.6498 0.42214 1.8859 4.5634 3.6441 4.4937 2.7507-0.10896 0.64723-18.819 3.368-18.771 2.1105 0.03696 4.6625 18.888 7.218 18.888 4.5364 0-1.0878-12.618 8.6106-5.5656 2.425 1.7634 1.5518 1.2386 4.5929 2.0138"/>
  <path id="path6922" style="fill:url(#radialGradient2878)" d="m77.73 44.523-3.0623 5.5248 10.651-8.8721-9.6769 10.282 9.0205-0.30214-8.564 1.563 8.053 2.6154-9.1579-1.6542 4.387 5.8231-5.4697-4.3198 2.7381 10.229-4.4975-9.6876-2.1238 10.355 0.99684-10.64-3.0792 6.3329 2.43-6.4203-7.9223 7.6253 6.8863-8.865-7.6387 3.074 6.39-3.8954-4.3756-1.5905 5.2584 0.15178-5.736-3.2395 5.6646 1.3457-6.4342-7.7899 7.9236 6.8559-2.0728-7.2619 2.8899 7.6695-0.80448-13.659 1.9314 13.335 3.379-7.7631-2.119 8.0092 4.1353-4.8302z"/>
  <path id="rect6985" style="opacity:.8;fill:url(#radialGradient7004)" d="m12.815 10c-1.56 0-2.815 1.255-2.815 2.815v8.0926c6.0355-1.2825 12.34-1.9792 18.824-1.9792 22.433 0 42.707 8.1392 57.176 21.221v-27.334c0-1.5594-1.2554-2.8148-2.8148-2.8148h-70.37z"/>
  <path id="path7006" style="opacity:.8;fill:url(#radialGradient7016)" d="m83.185 86c1.56 0 2.815-1.255 2.815-2.815v-8.092c-6.035 1.282-12.34 1.979-18.824 1.979-22.433 0-42.707-8.139-57.176-21.221v27.334c0 1.56 1.255 2.815 2.815 2.815h70.37z"/>
  <path id="path3659" style="opacity:.15;stroke:#fff4ad;stroke-linecap:round;stroke-width:7;fill:none" d="m15.5 53.406c1.1096-5.3378 0.63229-13.723 2.7253-13.723 3.7496 0.000201 4.8107 17.523 7.1751 17.534 2.3519 0.01236 0.12694-13.146 3.1725-12.998 4.897 0.24813 3.3777-10.249 5.6972-10.262 4.2805-0.025 2.4346 22.959 5.9588 22.8 2.8319-0.1276 2.1878-5.8554 4.4862-5.4893 2.6498 0.42214 1.8859 4.5634 3.6441 4.4937 2.7507-0.10896 0.64723-18.819 3.368-18.771 2.1105 0.03696 4.6625 18.888 7.218 18.888 4.5364 0-1.0878-12.618 8.6106-5.5656 2.425 1.7634 1.5518 1.2386 4.5929 2.0138"/>
  <path id="path2885" style="opacity:.3;stroke:#fff4ad;stroke-linecap:round;stroke-width:5;fill:none" d="m15.5 53.406c1.1096-5.3378 0.63229-13.723 2.7253-13.723 3.7496 0.000201 4.8107 17.523 7.1751 17.534 2.3519 0.01236 0.12694-13.146 3.1725-12.998 4.897 0.24813 3.3777-10.249 5.6972-10.262 4.2805-0.025 2.4346 22.959 5.9588 22.8 2.8319-0.1276 2.1878-5.8554 4.4862-5.4893 2.6498 0.42214 1.8859 4.5634 3.6441 4.4937 2.7507-0.10896 0.64723-18.819 3.368-18.771 2.1105 0.03696 4.6625 18.888 7.218 18.888 4.5364 0-1.0878-12.618 8.6106-5.5656 2.425 1.7634 1.5518 1.2386 4.5929 2.0138"/>
 </g>
</svg>
