<?xml version="1.0" encoding="UTF-8" standalone="no"?>
<!-- Created with Inkscape (http://www.inkscape.org/) -->
<svg id="svg2408" xmlns:rdf="http://www.w3.org/1999/02/22-rdf-syntax-ns#" xmlns="http://www.w3.org/2000/svg" height="96" width="96" version="1.0" xmlns:cc="http://creativecommons.org/ns#" xmlns:xlink="http://www.w3.org/1999/xlink" xmlns:dc="http://purl.org/dc/elements/1.1/">
 <defs id="defs2410">
  <linearGradient id="ButtonShadow" y2="7.0165" gradientUnits="userSpaceOnUse" x2="45.448" gradientTransform="matrix(1.0059 0 0 .99417 100 0)" y1="92.54" x1="45.448">
   <stop id="stop3750" offset="0"/>
   <stop id="stop3752" style="stop-opacity:.58824" offset="1"/>
  </linearGradient>
  <linearGradient id="linearGradient3737">
   <stop id="stop3739" style="stop-color:#fff" offset="0"/>
   <stop id="stop3741" style="stop-color:#fff;stop-opacity:0" offset="1"/>
  </linearGradient>
  <linearGradient id="linearGradient3700">
   <stop id="stop3702" style="stop-color:#70a83e" offset="0"/>
   <stop id="stop3704" style="stop-color:#9fd058" offset="1"/>
  </linearGradient>
  <filter id="filter3174" color-interpolation-filters="sRGB">
   <feGaussianBlur id="feGaussianBlur3176" stdDeviation="1.71"/>
  </filter>
  <linearGradient id="linearGradient3188" y2="63.893" xlink:href="#linearGradient3737" gradientUnits="userSpaceOnUse" x2="36.357" y1="6" x1="36.357"/>
  <filter id="filter3794" height="1.384" width="1.384" color-interpolation-filters="sRGB" y="-.192" x="-.192">
   <feGaussianBlur id="feGaussianBlur3796" stdDeviation="5.28"/>
  </filter>
  <linearGradient id="linearGradient3613" y2="138.66" xlink:href="#linearGradient3737" gradientUnits="userSpaceOnUse" x2="48" y1="20.221" x1="48"/>
  <radialGradient id="radialGradient3619" xlink:href="#linearGradient3737" gradientUnits="userSpaceOnUse" cy="90.172" cx="48" gradientTransform="matrix(1.1573 0 0 .99591 -7.551 .19713)" r="42"/>
  <clipPath id="clipPath3613">
   <rect id="rect3615" style="fill:#fff" rx="6" ry="6" height="84" width="84" y="6" x="6"/>
  </clipPath>
  <linearGradient id="linearGradient3617" y2="5.9877" xlink:href="#linearGradient3700" gradientUnits="userSpaceOnUse" x2="48" y1="90" x1="48"/>
  <linearGradient id="linearGradient3700-4">
   <stop id="stop3702-4" style="stop-color:#2b930b" offset="0"/>
   <stop id="stop3704-4" style="stop-color:#67d441" offset="1"/>
  </linearGradient>
  <clipPath id="clipPath2973">
   <rect id="rect2975" style="fill:url(#linearGradient2977)" rx="6" ry="6" height="84" width="84" y="6" x="6"/>
  </clipPath>
  <linearGradient id="linearGradient2977" y2="5.9877" xlink:href="#linearGradient3700-4" gradientUnits="userSpaceOnUse" x2="48" y1="90" x1="48"/>
  <linearGradient id="linearGradient3721" y2="90.239" xlink:href="#ButtonShadow" gradientUnits="userSpaceOnUse" x2="32.251" gradientTransform="translate(0,-97)" y1="6.1317" x1="32.251"/>
  <linearGradient id="linearGradient3725" y2="90.239" xlink:href="#ButtonShadow" gradientUnits="userSpaceOnUse" x2="32.251" gradientTransform="matrix(1.0238 0 0 1.0119 -1.1429 -98.071)" y1="6.1317" x1="32.251"/>
 </defs>
 <metadata id="metadata2413">
  <rdf:RDF>
   <cc:Work rdf:about="">
    <dc:format>image/svg+xml</dc:format>
    <dc:type rdf:resource="http://purl.org/dc/dcmitype/StillImage"/>
    <dc:title/>
   </cc:Work>
  </rdf:RDF>
 </metadata>
 <g id="layer2" style="display:none">
  <rect id="rect3745" style="opacity:.9;filter:url(#filter3174);fill:url(#ButtonShadow)" rx="6" ry="6" height="85" width="86" y="7" x="105"/>
 </g>
 <g id="layer3">
  <path id="path3786" style="opacity:0.08;fill:url(#linearGradient3725)" d="m12-95.031c-5.5111 0-10.031 4.5202-10.031 10.031v71c0 5.5111 4.5202 10.031 10.031 10.031h72c5.5111 0 10.031-4.5202 10.031-10.031v-71c0-5.5111-4.5202-10.031-10.031-10.031h-72z" transform="scale(1,-1)"/>
  <path id="path3778" style="opacity:.1;fill:url(#linearGradient3725)" d="m12-94.031c-4.9716 0-9.0312 4.0596-9.0312 9.0312v71c0 4.9716 4.0596 9.0312 9.0312 9.0312h72c4.9716 0 9.0312-4.0596 9.0312-9.0312v-71c0-4.9716-4.0596-9.0312-9.0312-9.0312h-72z" transform="scale(1,-1)"/>
  <path id="path3770" style="opacity:.2;fill:url(#linearGradient3725)" d="m12-93c-4.4091 0-8 3.5909-8 8v71c0 4.4091 3.5909 8 8 8h72c4.4091 0 8-3.5909 8-8v-71c0-4.4091-3.5909-8-8-8h-72z" transform="scale(1,-1)"/>
  <rect id="rect3723" style="opacity:.3;fill:url(#linearGradient3725)" transform="scale(1,-1)" rx="7" ry="7" height="85" width="86" y="-92" x="5"/>
  <rect id="rect3716" style="opacity:.45;fill:url(#linearGradient3721)" transform="scale(1,-1)" rx="6" ry="6" height="84" width="84" y="-91" x="6"/>
 </g>
 <g id="layer1">
  <rect id="rect2419" style="fill:url(#linearGradient2977)" rx="6" ry="6" height="84" width="84" y="6" x="6"/>
  <path id="rect3728" style="opacity:.4;fill:url(#linearGradient3188)" d="m12 6c-3.324 0-6 2.676-6 6v2 68 2c0 0.33472 0.04135 0.6507 0.09375 0.96875 0.0487 0.2956 0.09704 0.59692 0.1875 0.875 0.00988 0.03038 0.020892 0.0636 0.03125 0.09375 0.098865 0.28777 0.23488 0.54745 0.375 0.8125 0.14459 0.27351 0.31562 0.53562 0.5 0.78125 0.18438 0.24564 0.37378 0.47347 0.59375 0.6875 0.43995 0.42806 0.94291 0.81453 1.5 1.0938 0.27854 0.13961 0.57347 0.24695 0.875 0.34375-0.2562-0.10022-0.48671-0.23627-0.71875-0.375-0.00741-0.0044-0.023866 0.0045-0.03125 0-0.031933-0.0193-0.062293-0.04251-0.09375-0.0625-0.1204-0.0767-0.23102-0.16351-0.34375-0.25-0.10617-0.0808-0.21328-0.16111-0.3125-0.25-0.1778-0.162-0.3473-0.346-0.4999-0.531-0.1075-0.131-0.2183-0.266-0.3124-0.407-0.0251-0.038-0.0385-0.086-0.0626-0.125-0.0647-0.103-0.1302-0.204-0.1874-0.312-0.1011-0.195-0.2057-0.416-0.2813-0.625-0.008-0.022-0.0236-0.041-0.0313-0.063-0.0318-0.092-0.0358-0.187-0.0624-0.281-0.0304-0.107-0.0704-0.203-0.0938-0.313-0.0729-0.341-0.125-0.698-0.125-1.062v-2-68-2c0-2.782 2.2182-5 5-5h2 68 2c2.7818 0 5 2.2182 5 5v2 68 2c0 0.3643-0.05212 0.72099-0.125 1.0625-0.04415 0.20689-0.08838 0.39766-0.15625 0.59375-0.0077 0.02195-0.0233 0.04069-0.03125 0.0625-0.06274 0.17374-0.13838 0.36745-0.21875 0.53125-0.04158 0.0828-0.07904 0.16995-0.125 0.25-0.0546 0.09721-0.12677 0.18835-0.1875 0.28125-0.09411 0.14096-0.20492 0.276-0.3125 0.40625-0.14317 0.17445-0.30314 0.347-0.46875 0.5-0.01117 0.0102-0.01998 0.02115-0.03125 0.03125-0.13839 0.12556-0.28509 0.23444-0.4375 0.34375-0.10257 0.07315-0.20432 0.15336-0.3125 0.21875-0.0074 0.0045-0.02384-0.0044-0.03125 0-0.23204 0.13873-0.46255 0.27478-0.71875 0.375 0.30153-0.0968 0.59646-0.20414 0.875-0.34375 0.55709-0.27922 1.0601-0.66569 1.5-1.0938 0.21997-0.21403 0.40937-0.44186 0.59375-0.6875s0.35541-0.50774 0.5-0.78125c0.14012-0.26505 0.27614-0.52473 0.375-0.8125 0.01041-0.03078 0.02133-0.06274 0.03125-0.09375 0.09046-0.27808 0.1388-0.5794 0.1875-0.875 0.053-0.318 0.094-0.634 0.094-0.969v-2-68-2c0-3.324-2.676-6-6-6h-72z"/>
  <path id="path3615" style="opacity:.2;fill:url(#radialGradient3619)" d="m12 90c-3.324 0-6-2.676-6-6v-2-68-2c0-0.33472 0.04135-0.6507 0.09375-0.96875 0.0487-0.2956 0.09704-0.59692 0.1875-0.875 0.0099-0.03 0.0209-0.063 0.0313-0.094 0.0989-0.2873 0.2349-0.547 0.375-0.812 0.1446-0.2735 0.3156-0.5356 0.5-0.7812 0.1844-0.2457 0.3738-0.4735 0.5937-0.6876 0.44-0.428 0.943-0.8145 1.5-1.0937 0.2786-0.1396 0.5735-0.2469 0.8748-0.3437-0.256 0.1002-0.4865 0.2362-0.7185 0.375-0.00741 0.0044-0.023866-0.0045-0.03125 0-0.031933 0.0193-0.062293 0.04251-0.09375 0.0625-0.1204 0.0767-0.23102 0.16351-0.34375 0.25-0.10617 0.0808-0.21328 0.16111-0.3125 0.25-0.1779 0.1614-0.3474 0.3453-0.5 0.5312-0.1075 0.1303-0.2183 0.2653-0.3124 0.4063-0.0251 0.0383-0.0385 0.0858-0.0626 0.125-0.0647 0.103-0.1302 0.2045-0.1874 0.3124-0.1011 0.1948-0.2057 0.4158-0.2813 0.625-0.008 0.0219-0.0236 0.0406-0.0313 0.0626-0.0318 0.0919-0.0358 0.1868-0.0624 0.2812-0.0304 0.1066-0.0704 0.203-0.0938 0.3125-0.0729 0.3415-0.125 0.6985-0.125 1.0625v2 68 2c0 2.7818 2.2182 5 5 5h2 68 2c2.7818 0 5-2.2182 5-5v-2-68-2c0-0.364-0.052-0.721-0.125-1.0625-0.044-0.2069-0.088-0.3977-0.156-0.5937-0.008-0.022-0.024-0.0407-0.031-0.0626-0.063-0.1737-0.139-0.3674-0.219-0.5312-0.042-0.0828-0.079-0.17-0.125-0.25-0.055-0.0972-0.127-0.1884-0.188-0.2812-0.094-0.141-0.205-0.276-0.312-0.4063-0.143-0.1745-0.303-0.347-0.469-0.5-0.011-0.0102-0.02-0.0211-0.031-0.0313-0.139-0.1255-0.285-0.2344-0.438-0.3437-0.102-0.0731-0.204-0.1534-0.312-0.2187-0.0074-0.0045-0.02384 0.0044-0.03125 0-0.23204-0.13873-0.46255-0.27478-0.71875-0.375 0.30153 0.0968 0.59646 0.20414 0.875 0.34375 0.55709 0.27922 1.0601 0.66569 1.5 1.0938 0.21997 0.21403 0.40937 0.44186 0.59375 0.6875s0.35541 0.50774 0.5 0.78125c0.14012 0.26505 0.27614 0.52473 0.375 0.8125 0.01041 0.03078 0.02133 0.06274 0.03125 0.09375 0.09046 0.27808 0.1388 0.5794 0.1875 0.875 0.053 0.318 0.094 0.634 0.094 0.969v2 68 2c0 3.324-2.676 6-6 6h-72z"/>
 </g>
 <g id="layer7">
  <g id="g3855" style="opacity:.9;fill:#dcffaa" clip-path="url(#clipPath2973)">
   <path id="path3819" style="opacity:.15;fill:#dcffaa" d="m48 48 24-56h16l-40 56z"/>
   <path id="path3821" style="opacity:.15;fill:#dcffaa" d="m48 48 55.25 25.677-0.48 15.993-54.77-41.67z"/>
   <path id="path3823" style="opacity:.15;fill:#dcffaa" d="m48 48-59.828 11.516-8.969-13.25 68.797 1.734z"/>
   <path id="path3825" style="opacity:.15;fill:#dcffaa" d="m48 48-49.311-35.783 3.5359-15.604 45.775 51.387z"/>
   <path id="path3827" style="opacity:.15;fill:#dcffaa" d="m48 48 17.519-62.073 30.436 12.714-47.955 49.359z"/>
   <path id="path3829" style="opacity:.15;fill:#dcffaa" d="m48 48 61.64-19.001 5.85 32.461-67.49-13.46z"/>
   <path id="path3831" style="opacity:.15;fill:#dcffaa" d="m48 48-31.246 56.42-26.723-19.331 57.969-37.089z"/>
   <path id="path3833" style="opacity:.15;fill:#dcffaa" d="m48 48-62.812-14.651 11.304-30.988 51.508 45.639z"/>
   <path id="path3835" style="opacity:.15;fill:#dcffaa" d="m48 48 45.81 45.403-3.692 9.027-42.118-54.43z"/>
   <path id="path3837" style="opacity:.15;fill:#dcffaa" d="m48 48-2.9701 64.43-9.1685 3.31l12.138-67.74z"/>
   <path id="path3839" style="opacity:.15;fill:#dcffaa" d="m48 48-44.859 46.343-9.0649-3.585 53.924-42.758z"/>
   <path id="path3841" style="opacity:.15;fill:#dcffaa" d="m48 48-62.116 17.366-6.016-7.67 68.132-9.696z"/>
   <path id="path3843" style="opacity:.15;fill:#dcffaa" d="m48 48-29.147-57.537 6.35-7.396 22.797 64.933z"/>
   <path id="path3845" style="opacity:.15;fill:#dcffaa" d="m48 48 59.482-24.939 6.921 6.8641-66.403 18.074z"/>
   <path id="path3849" style="opacity:.15;fill:#dcffaa" d="m48 48 40.187 45.793-6.897 14.437-33.29-60.23z"/>
   <path id="path3851" style="opacity:.15;fill:#dcffaa" d="m48 48-35.958-49.184 8.152-13.767 27.806 62.951z"/>
  </g>
  <rect id="rect3873" style="fill:url(#linearGradient3617);display:none" rx="6" ry="6" height="84" width="84" y="6" x="6"/>
  <rect id="rect3880" style="fill:url(#linearGradient3617);display:none" rx="6" ry="6" height="84" width="84" y="6" x="6"/>
 </g>
 <g id="layer5">
  <rect id="rect3171" style="opacity:.1;filter:url(#filter3794);stroke:#fff;stroke-linecap:round;stroke-width:.5;fill:url(#linearGradient3613)" clip-path="url(#clipPath3613)" rx="12" ry="12" height="66" width="66" y="15" x="15"/>
 </g>
 <g id="layer4">
  <path id="path3780" style="opacity:.05" d="m65.906 20.156c-0.86051 0.02442-1.6387 0.12252-2.2812 0.0625a1.0822 1.0822 0 0 0 -0.094 -0.03c-4.6143 0.04326-9.297-0.08724-13.969 0.0625a1.0822 1.0822 0 0 0 -0.53125 0.15625c-0.04339-0.0082-0.1173-0.01527-0.28125-0.0625-0.20298-0.05848-0.46582-0.1427-0.84375-0.15625-0.24063-0.0086-0.53426 0.14792-0.8125 0.25v-0.0625c-0.13596 0.02124-0.50822-0.04112-1-0.125-0.43345-0.07393-1.005-0.1166-1.625-0.03125v-0.03125c-5.415 0.043-10.882-0.086-16.344 0.063a1.0822 1.0822 0 0 0 -0.53125 0.1875c-0.20241-0.07891-0.71335-0.34423-1.4062-0.21875-0.01506 0.0027-0.01606-0.0031-0.03125 0-1.2515 0.2396-2.056 1.1597-2.5625 1.9688-0.51059 0.81557-0.86434 1.5902-1.2188 2.0312a1.0822 1.0822 0 0 0 -0.09375 0.125c-2.336 3.8822-4.8655 7.7113-7.125 11.719a1.0822 1.0822 0 0 0 -0.0625 0.09375c-0.34173 0.79416-0.11644 1.5282-0.03125 1.875 0.08519 0.34678 0.084 0.21865 0.0625 0.25a1.0822 1.0822 0 0 0 -0.156 0.468c-0.16863 1.2272 0.40329 2.2441 0.96875 2.9688 0.56546 0.72462 1.1393 1.2938 1.4062 1.75a1.0822 1.0822 0 0 0 0.09375 0.125c8.8713 11.4 17.756 22.79 26.625 34.188 0.65137 0.82942 1.6748 1.021 2.3438 1 0.66894-0.02095 1.1459-0.0773 1.3125-0.03125a1.0822 1.0822 0 0 0 0.5625 0c0.16663-0.04605 0.64356 0.0103 1.3125 0.03125s1.6924-0.17058 2.3438-1c9.557-12.325 19.209-24.604 28.718-36.97a1.0822 1.0822 0 0 0 0.03125 -0.03125c0.54266-0.74137 0.3977-1.6105 0.28125-2.0625-0.11645-0.45197-0.05317-0.56734-0.125-0.40625a1.0822 1.0822 0 0 0 0.032 -0.093c0.429-1.235-0.027-2.397-0.531-3.219-0.505-0.822-1.064-1.482-1.282-1.969a1.0822 1.0822 0 0 0 -0.09375 -0.125c-2.432-3.853-4.728-7.842-7.28-11.687a1.0822 1.0822 0 0 0 -0.126 -0.157c-0.547-0.569-1.278-0.811-1.937-0.843-0.5-0.025-0.943 0.13-1.375 0.281-0.808-0.239-1.619-0.364-2.344-0.344z"/>
  <path id="path3773" style="opacity:.1" d="m26.375 21.281c-1.7547 0.31886-2.157 2.3836-3.1459 3.6142-2.353 3.9103-4.9021 7.7375-7.1354 11.698-0.35135 0.81653 0.45967 1.5511-0.0625 2.3125-0.23011 1.6746 1.499 2.7145 2.262 4.0187 8.871 11.401 17.744 22.802 26.613 34.201 0.819 1.043 2.077 0.313 3.094 0.594 1.017-0.281 2.275 0.449 3.094-0.594 9.56-12.328 19.214-24.609 28.718-36.969 0.568-0.775-0.267-1.612 0.032-2.281 0.581-1.676-1.139-2.978-1.773-4.394-2.447-3.876-4.762-7.859-7.29-11.669-0.66127-0.68794-1.7387-0.61242-2.5-0.25-1.4741-0.59922-3.1846-0.13452-4.7554-0.28125-4.6412 0.04351-9.3038-0.08585-13.932 0.0625-0.71272 0.5416-1.5456-0.46734-2.3438 0.09375-0.82069 0.12822-1.8186-0.3617-2.7719-0.15625-5.4379 0.04312-10.897-0.0853-16.322 0.0625-0.6321 0.52031-1.0496-0.21158-1.7812-0.0625z"/>
  <path id="path3769" style="opacity:.15" d="m26.5 22.5a0.77274 0.77274 0 0 0 -0.59375 0.375l-8.562 13.875a0.77274 0.77274 0 0 0 0.656 1.188h17.156a0.77274 0.77274 0 0 0 0.656 -1.188l-8.593-13.875a0.77274 0.77274 0 0 0 -0.719 -0.375zm2.1562 0a0.77274 0.77274 0 0 0 -0.59375 1.1875l8.5625 13.875a0.77274 0.77274 0 0 0 1.3125 0l8.564-13.875a0.77274 0.77274 0 0 0 -0.656 -1.188h-17.125a0.77274 0.77274 0 0 0 -0.0625 0zm19.281 0a0.77274 0.77274 0 0 0 -0.59375 0.375l-8.5625 13.875a0.77274 0.77274 0 0 0 0.65625 1.1875h17.125a0.77274 0.77274 0 0 0 0.658 -1.188l-8.563-13.875a0.77274 0.77274 0 0 0 -0.718 -0.375zm2.1562 0a0.77274 0.77274 0 0 0 -0.593 1.188l8.5625 13.875a0.77274 0.77274 0 0 0 1.3125 0l8.5625-13.875a0.77274 0.77274 0 0 0 -0.655 -1.188h-17.125a0.77274 0.77274 0 0 0 -0.0625 0zm19.281 0a0.77274 0.77274 0 0 0 -0.59375 0.375l-8.592 13.875a0.77274 0.77274 0 0 0 0.65625 1.1875h17.156a0.77274 0.77274 0 0 0 0.656 -1.188l-8.562-13.875a0.77274 0.77274 0 0 0 -0.719 -0.375zm-51.438 16a0.77274 0.77274 0 0 0 -0.561 1.25l28.344 36.438a0.77274 0.77274 0 0 0 1.375 -0.688l-10.125-36.438a0.77274 0.77274 0 0 0 -0.75 -0.562h-18.219a0.77274 0.77274 0 0 0 -0.0625 0zm20.344 0a0.77274 0.77274 0 0 0 -0.6875 0.96875l9.658 36.437a0.77274 0.77274 0 0 0 1.5 0l9.6562-36.438a0.77274 0.77274 0 0 0 -0.75 -0.968h-19.312a0.77274 0.77274 0 0 0 -0.0625 0zm21.438 0a0.77274 0.77274 0 0 0 -0.6875 0.5625l-10.124 36.438a0.77274 0.77274 0 0 0 1.375 0.6875l28.344-36.438a0.77274 0.77274 0 0 0 -0.625 -1.25h-18.219a0.77274 0.77274 0 0 0 -0.0625 0z"/>
  <path id="path2993" style="opacity:.3" d="m26.562 23.281-8.562 13.875h17.156l-8.5938-13.875zm2.1562 0 8.5625 13.875 8.5625-13.875h-17.125zm19.281 0-8.5625 13.875h17.125l-8.561-13.875zm2.1562 0 8.5625 13.875 8.5625-13.875h-17.125zm19.281 0-8.5938 13.875h17.156l-8.5625-13.875zm-51.438 16 28.344 36.438-10.125-36.438h-18.219zm20.344 0 9.6562 36.438 9.6562-36.438h-19.312zm21.438 0-10.125 36.438l28.345-36.438h-18.219z"/>
  <path id="path2990" style="fill:#fff" d="m26.562 22.281-8.562 13.875h17.156l-8.5938-13.875zm2.1562 0 8.5625 13.875 8.5625-13.875h-17.125zm19.281 0-8.5625 13.875h17.125l-8.561-13.875zm2.1562 0 8.5625 13.875 8.5625-13.875h-17.125zm19.281 0-8.5938 13.875h17.156l-8.5625-13.875zm-51.438 16 28.344 36.438-10.125-36.438h-18.219zm20.344 0 9.6562 36.438 9.6562-36.438h-19.312zm21.438 0-10.125 36.438l28.345-36.438h-18.219z"/>
 </g>
</svg>
