<?xml version="1.0" encoding="UTF-8" standalone="no"?>
<!-- Created with Inkscape (http://www.inkscape.org/) -->
<svg id="svg2408" xmlns:rdf="http://www.w3.org/1999/02/22-rdf-syntax-ns#" xmlns="http://www.w3.org/2000/svg" height="96" width="96" version="1.0" xmlns:cc="http://creativecommons.org/ns#" xmlns:xlink="http://www.w3.org/1999/xlink" xmlns:dc="http://purl.org/dc/elements/1.1/">
 <defs id="defs2410">
  <linearGradient id="ButtonShadow" y2="7.0165" gradientUnits="userSpaceOnUse" x2="45.448" gradientTransform="scale(1.0059 .99417)" y1="92.54" x1="45.448">
   <stop id="stop3750" offset="0"/>
   <stop id="stop3752" style="stop-opacity:.58824" offset="1"/>
  </linearGradient>
  <filter id="filter3174" color-interpolation-filters="sRGB">
   <feGaussianBlur id="feGaussianBlur3176" stdDeviation="1.71"/>
  </filter>
  <linearGradient id="linearGradient8478" y2="138.66" gradientUnits="userSpaceOnUse" x2="48" y1="20.221" x1="48">
   <stop id="stop3739-00" style="stop-color:#fff" offset="0"/>
   <stop id="stop3741-66" style="stop-color:#fff;stop-opacity:0" offset="1"/>
  </linearGradient>
  <filter id="filter3174-9" color-interpolation-filters="sRGB">
   <feGaussianBlur id="feGaussianBlur3176-8" stdDeviation="1.71"/>
  </filter>
  <filter id="filter3794-71" height="1.384" width="1.384" color-interpolation-filters="sRGB" y="-.192" x="-.192">
   <feGaussianBlur id="feGaussianBlur3796-90" stdDeviation="5.28"/>
  </filter>
  <clipPath id="clipPath3613-01">
   <rect id="rect3615-422" style="fill:#fff" rx="6" ry="6" height="84" width="84" y="6" x="6"/>
  </clipPath>
  <filter id="filter3174-28" color-interpolation-filters="sRGB">
   <feGaussianBlur id="feGaussianBlur3176-3" stdDeviation="1.71"/>
  </filter>
  <filter id="filter3174-1" color-interpolation-filters="sRGB">
   <feGaussianBlur id="feGaussianBlur3176-1" stdDeviation="1.71"/>
  </filter>
  <filter id="filter3174-0" color-interpolation-filters="sRGB">
   <feGaussianBlur id="feGaussianBlur3176-34" stdDeviation="1.71"/>
  </filter>
  <radialGradient id="radialGradient6307-9" gradientUnits="userSpaceOnUse" cy="36.822" cx="48.945" gradientTransform="matrix(1.9641 .019928 -.014079 1.7715 -44.517 -37.273)" r="42">
   <stop id="stop4084-0" style="stop-color:#755552" offset="0"/>
   <stop id="stop4086-5" style="stop-color:#120507" offset="1"/>
  </radialGradient>
  <radialGradient id="radialGradient6296-6" gradientUnits="userSpaceOnUse" cy="84.208" cx="48.702" gradientTransform="matrix(1.0806 0 0 .063218 -3.2447 84.783)" r="39.184">
   <stop id="stop4054-3" style="stop-color:#fff" offset="0"/>
   <stop id="stop4056-1" style="stop-color:#fff;stop-opacity:0" offset="1"/>
  </radialGradient>
  <clipPath id="clipPath3613">
   <rect id="rect3615" style="fill:#fff" rx="6" ry="6" height="84" width="84" y="6" x="6"/>
  </clipPath>
  <filter id="filter3794-4" height="1.384" width="1.384" color-interpolation-filters="sRGB" y="-.192" x="-.192">
   <feGaussianBlur id="feGaussianBlur3796-8" stdDeviation="5.28"/>
  </filter>
  <filter id="filter3174-5" color-interpolation-filters="sRGB">
   <feGaussianBlur id="feGaussianBlur3176-9" stdDeviation="1.71"/>
  </filter>
 </defs>
 <metadata id="metadata2413">
  <rdf:RDF>
   <cc:Work rdf:about="">
    <dc:format>image/svg+xml</dc:format>
    <dc:type rdf:resource="http://purl.org/dc/dcmitype/StillImage"/>
    <dc:title/>
   </cc:Work>
  </rdf:RDF>
 </metadata>
 <g id="layer2" style="display:none">
  <rect id="rect3745" style="opacity:.9;filter:url(#filter3174);fill:url(#ButtonShadow)" rx="6" ry="6" height="85" width="86" y="7" x="5"/>
 </g>
 <g id="layer2-6" style="display:none" transform="translate(115.54 .85219)">
  <rect id="rect3745-02" style="opacity:.9;filter:url(#filter3174-0);fill:url(#ButtonShadow)" rx="6" ry="6" height="85" width="86" y="7" x="5"/>
 </g>
 <g id="layer2-7" style="display:none" transform="translate(235.43 .85219)">
  <rect id="rect3745-0" style="opacity:.9;filter:url(#filter3174-9);fill:url(#ButtonShadow)" rx="6" ry="6" height="85" width="86" y="7" x="5"/>
 </g>
 <g id="layer2-9" style="display:none" transform="matrix(.95833 0 0 .94792 252.01 5.1359)">
  <rect id="rect3745-3" style="opacity:.9;filter:url(#filter3174-1);fill:url(#ButtonShadow)" rx="6" ry="6" height="85" width="86" y="7" x="5"/>
 </g>
 <g id="layer2-20" style="display:none" transform="matrix(1.0222 0 0 1.0111 248.67 2.1302)">
  <rect id="rect3745-64" style="opacity:.9;filter:url(#filter3174-28);fill:url(#ButtonShadow)" rx="6" ry="6" height="85" width="86" y="7" x="5"/>
 </g>
 <g id="layer5-35" style="display:none" transform="matrix(1.0222 0 0 1.0111 248.67 2.1302)">
  <rect id="rect3171-20" style="opacity:.1;filter:url(#filter3794-71);stroke:#fff;stroke-linecap:round;stroke-width:.5;fill:url(#linearGradient8478)" clip-path="url(#clipPath3613-01)" rx="12" ry="12" height="66" width="66" y="15" x="15"/>
 </g>
 <g id="g16596" transform="matrix(.98516 0 0 .98364 .35397 -.19296)">
  <g id="layer2-90" style="display:none">
   <rect id="rect3745-30" style="opacity:.9;filter:url(#filter3174-5);fill:url(#ButtonShadow)" rx="6" ry="6" height="85" width="86" y="7" x="5"/>
  </g>
  <g id="layer5-3" style="display:none">
   <rect id="rect3171" style="opacity:.1;filter:url(#filter3794-4);stroke:#fff;stroke-linecap:round;stroke-width:.5;fill:url(#linearGradient8478)" clip-path="url(#clipPath3613)" rx="12" ry="12" height="66" width="66" y="15" x="15"/>
  </g>
  <path id="path4046" style="opacity:.083333" d="m8.3809 3.4362c-2.6065 0-3.9063 0.6455-5.0078 2.7911 0.27593 0.18534 0.38829 0.29985 0.38829 0.29985l20.753 22.505s-3.9896 6.4698-3.9444 21.255c0.0505 16.486 3.4469 25.561 3.4469 25.561l-22.316 12.711v0.55568c0 3.651 2.9855 6.5987 6.6806 6.5987h80.025c3.6951 0 6.6806-2.9476 6.6806-6.5987v-1.3545l-21.179-12.086s3.3964-9.0751 3.4469-25.561c0.04527-14.785-3.9444-21.22-3.9444-21.22l20.61-22.402c-1.183-1.8245-3.248-3.0558-5.614-3.0558zm-6.6806 11.912v16.531l14.285 6.425 1.9189-7.1196zm93.386 0.973-15.031 14.691 1.919 7.154 13.112-5.904zm-93.386 24.415v16.809l14.463-1.042s-0.19805-10.043-0.35535-11.773c-0.11-1.21-9.3468-3.094-14.108-3.994zm93.386 0.07c-4.946 0.957-12.867 2.655-12.97 3.785-0.157 1.731-0.32 11.739-0.32 11.739l13.29 0.972zm-13.538 21.602s-0.74131 5.1186-1.3148 8.6477c-0.18394 1.1319 9.3095 6.239 14.854 9.134v-16.705zm-65.136 0.17365-14.712 1.1808v17.226c5.2266-2.707 16.189-8.58 15.991-9.795-0.573-3.529-1.279-8.613-1.279-8.613z"/>
  <path id="path4044" style="opacity:.074561" d="m9.212 4.0019c-2.559 0-3.8352 0.63787-4.9167 2.7581 0.27091 0.18315 0.38122 0.29631 0.38122 0.29631l20.374 22.239s-3.917 6.3934-3.8726 21.003c0.04958 16.291 3.3841 25.259 3.3841 25.259l-21.91 12.561v0.54911c0 3.6079 2.9311 6.5207 6.559 6.5207h78.568c3.6278 0 6.559-2.9128 6.559-6.5207v-1.3385l-20.793-11.943s3.3346-8.9679 3.3841-25.259c0.04444-14.61-3.8726-20.969-3.8726-20.969l20.236-22.135c-1.162-1.8034-3.189-3.0201-5.512-3.0201zm-6.559 11.772v16.336l14.025 6.3491 1.884-7.0355zm91.686 0.96094-14.758 14.517 1.884 7.0698 12.874-5.8343zm-91.686 24.127v16.611l14.199-1.0296s-0.19445-9.9241-0.34888-11.634c-0.107-1.198-9.1758-3.059-13.85-3.948zm91.686 0.06865c-4.8559 0.94598-12.633 2.6244-12.734 3.7408-0.15444 1.7102-0.31399 11.6-0.31399 11.6l13.048 0.96094zm-13.292 21.345s-0.72782 5.0581-1.2909 8.5455c-0.18059 1.1186 9.14 6.1653 14.583 9.026v-16.508zm-63.95 0.172-14.444 1.167v17.022c5.1312-2.674 15.894-8.477 15.7-9.678-0.563-3.487-1.256-8.511-1.256-8.511z"/>
  <path id="path4042" style="opacity:.14474" d="m10.013 4.7623c-2.5068 0-3.757 0.6259-4.8164 2.7064 0.26539 0.17971 0.37344 0.29075 0.37344 0.29075l19.959 21.822s-3.8372 6.2734-3.7936 20.609c0.04856 15.986 3.3152 24.785 3.3152 24.785l-21.463 12.325v0.53881c0 3.5402 2.8714 6.3984 6.4253 6.3984h76.966c3.5539 0 6.4253-2.8582 6.4253-6.3984v-1.3133l-20.369-11.719s3.2666-8.7996 3.3152-24.785c0.04354-14.336-3.7936-20.576-3.7936-20.576l19.822-21.721c-1.1384-1.7695-3.1247-2.9634-5.4-2.9634zm-6.4253 11.551v16.03l13.739 6.23 1.8456-6.9035zm89.816 0.943-14.456 14.245 1.845 6.937 12.611-5.725zm-89.816 23.674v16.299l13.91-1.0103s-0.19048-9.7379-0.34177-11.416c-0.106-1.174-8.9896-3.001-13.568-3.873zm89.817 0.06735c-4.757 0.92823-12.376 2.5751-12.475 3.6706-0.15129 1.6781-0.30759 11.382-0.30759 11.382l12.782 0.94291zm-13.021 20.946s-0.71298 4.9632-1.2645 8.3852c-0.17691 1.0976 8.9537 6.0496 14.286 8.8567v-16.198zm-62.646 0.16838-14.149 1.145v16.703c5.026-2.623 15.569-8.318 15.379-9.496-0.551-3.422-1.23-8.351-1.23-8.351z"/>
  <path id="path4038" style="opacity:.14474" d="m11 5.5226c-2.4547 0-3.6788 0.61393-4.7162 2.6546 0.25986 0.17628 0.36567 0.28519 0.36567 0.28519l19.544 21.405s-3.7573 6.1535-3.7147 20.215c0.04755 15.68 3.2462 24.311 3.2462 24.311l-21.016 12.09v0.5285c0 3.4725 2.8116 6.276 6.2916 6.276h75.365c3.4799 0 6.2916-2.8035 6.2916-6.276v-1.2882l-19.946-11.495s3.1986-8.6314 3.2462-24.311c0.04263-14.062-3.7147-20.182-3.7147-20.182l19.409-21.306c-1.115-1.7353-3.06-2.9064-5.288-2.9064zm-6.2916 11.33v15.723l13.453 6.1108 1.8072-6.7715zm87.948 0.92488-14.156 13.972 1.8071 6.8045 12.349-5.6154zm-87.948 23.221v15.987l13.621-0.99095s-0.18652-9.5517-0.33466-11.198c-0.103-1.151-8.8015-2.943-13.285-3.798zm87.948 0.06607c-4.658 0.91048-12.118 2.5259-12.215 3.6004-0.14814 1.646-0.30119 11.165-0.30119 11.165l12.516 0.92488zm-12.75 20.545s-0.69814 4.8683-1.2382 8.2249c-0.17323 1.0766 8.7674 5.934 13.989 8.6873v-15.888zm-61.343 0.16516-13.855 1.1231v16.384c4.9228-2.574 15.246-8.159 15.06-9.315-0.54-3.356-1.204-8.192-1.204-8.192z"/>
  <path id="rect4540" style="fill:url(#radialGradient6307-9)" d="m11.775 4.2599c-2.4182 0-3.6241 0.61543-4.6461 2.6611 0.256 0.17671 0.36024 0.28588 0.36024 0.28588l19.253 21.457s-3.7014 6.1685-3.6595 20.265c0.04684 15.718 3.1979 24.37 3.1979 24.37l-20.704 12.119v0.52979c0 3.481 2.7698 6.2913 6.198 6.2913h74.244c3.4282 0 6.198-2.8103 6.198-6.2913v-1.2914l-19.649-11.523s3.1511-8.6524 3.1979-24.37c0.04199-14.096-3.6595-20.231-3.6595-20.231l19.123-21.359c-1.099-1.7401-3.015-2.9141-5.209-2.9141zm-6.198 11.357v15.761l13.253 6.1257 1.7803-6.788zm86.64 0.92714-13.945 14.006 1.7803 6.8211 12.165-5.629zm-86.64 23.278v16.026l13.418-0.99336s-0.18374-9.575-0.32968-11.225c-0.10207-1.1541-8.6714-2.9502-13.088-3.8079zm86.64 0.06623c-4.5887 0.9127-11.938 2.5321-12.033 3.6092-0.14594 1.65-0.29671 11.192-0.29671 11.192l12.33 0.92714zm-12.561 20.596s-0.68776 4.8801-1.2198 8.2449c-0.17065 1.0792 8.637 5.9484 13.781 8.7085v-15.927zm-60.43 0.16556-13.649 1.1258v16.424c4.848-2.581 15.018-8.18 14.835-9.338-0.53206-3.3648-1.1868-8.2118-1.1868-8.2118z"/>
  <path id="path10252" style="opacity:.83871;fill:#fff" d="m49.502 24.313s-16.833 3.792-19.159 13.137c-2.3265 9.3446 0.8211 16.251 0.8211 16.251s-3.8318-1.7606-3.0107 0 1.0948 4.4691 2.3265 5.1463c1.2316 0.67714 0.41054 0.81257 1.0948 2.5731 0.68425 1.7606 1.779 3.792 2.6001 3.9274 0.8211 0.13543 2.3265-0.67714 2.3265-0.67714l1.2316-0.13543 0.5474-0.67714h0.54741s-1.9159 0.40629 0.5474-1.0834 3.2372-1.0763 3.2372-1.0763 2.9211 0.26374 2.3737 1.7535c-0.5474 1.4897-0.95794 3.1149-0.41054 3.3857 0.5474 0.27086 2.018 2.2062 2.018 2.2062l0.99272-3.8314s0.54741 1.896 1.5054 1.7606c0.95796-0.13543 2.0528-0.54172 2.0528-0.54172s0.95796-0.27086 1.2316 0.27086c0.27371 0.54172-1.779 1.2189-1.779 1.2189l0.13687 1.6251 1.5054 0.40629 0.68425-1.2189v-2.5731l0.68425 0.13543 0.13687 1.4897-0.8211 0.67714-0.13687 1.7606s1.0948 0.54171 1.5054-0.40628c0.41056-0.948 1.0948-2.0314 1.0948-2.0314l-1.0948-1.0834 0.8211-0.27086 1.2317 1.896-0.68426 1.0834h1.9159v-1.6251s-0.82113-0.13543-0.68428-0.948c0.13687-0.81257-0.27371-1.7606-0.27371-1.7606s0.68425-1.4897-0.68425-2.0314c-1.3685-0.54172-2.1896-1.0834-1.6422-1.3543 0.5474-0.27086 0.68425-1.2189 1.2317-1.0834 0.5474 0.13543 1.5054 0.40629 1.5054 0.40629l0.8211-0.54172 2.3265 4.3337 1.0948-1.6251s0.13687-0.27086 0.8211 0.40629c0.68425 0.67714 2.8739 2.4377 3.4213 1.6251 0.5474-0.81257 2.737-1.6251 2.4633-2.7086-0.27371-1.0834-1.3685-2.5731-0.13687-3.792s2.6002-2.1669 2.737-3.792c0.13687-1.6251-0.95794-1.2189-0.95794-1.2189s-1.0948-2.1669-0.54741-3.3857c0.54741-1.2189 2.0528-14.626-5.0635-19.637-7.1162-5.0109-12.066-6.5006-13.298-6.5006-1.2316 0-3.2354 0.47756-3.2354 0.47756z"/>
  <path id="path10254" style="fill:#422d2d" d="m41.291 49.909s-4.3792 0.81257-5.6109 2.5731c-1.2317 1.7606-2.6002 4.3337-1.5054 4.74 1.0948 0.40628 2.3265 1.3543 3.4213 0.54171 1.0948-0.81257 1.0948-0.67714 2.1896-0.40628s2.737 1.896 3.5581 0.67714 3.4213-3.5211 2.737-4.74c-0.68425-1.2189 2.2792-1.5182 2.2792-1.5182s-0.29732-1.1048-1.529-0.56312c-1.2316 0.54171 0.34459 0.59165-1.0239 0.59165s-2.3265-1.4897-3.1476-1.7606c-0.821-0.271-1.368-0.135-1.368-0.135z"/>
  <path id="path10256" style="fill:#432f2f" d="m48.681 52.617s-2.8739 4.6046-2.737 5.8234c0.13687 1.2189 1.3685 1.7606 1.3685 1.7606s-1.0948 1.2189-0.41056 1.4897c0.68425 0.27086 2.1896-1.0834 2.1896-1.0834s0.54741-0.27086 1.0948 0.13543c0.5474 0.40628 2.0528 0.27086 2.3265-0.40629 0.2737-0.67714-0.27369-5.9589-1.5054-6.636-1.2316-0.67714-2.3265-1.0834-2.3265-1.0834z"/>
  <path id="path10258" style="fill:#3f2b2b" d="m57.986 50.044s-1.9159-1.0834-2.4633 0.40629c-0.54741 1.4897-1.2317 1.7606-1.2317 1.7606s-0.5474 1.3543-0.41054 2.7086c0.13687 1.3543 1.6422 2.0314 2.8739 2.5731 1.2317 0.54172 1.7791 1.0834 1.7791 1.0834l-1.7791 0.13543s0.5474 1.0834 1.6422 1.0834 2.3265-0.67714 2.3265-0.67714l-1.5054-0.40628v-0.67714s3.5581 0.40628 4.2424-1.2189c0.68425-1.6251 2.737-1.896 0.8211-3.6566-1.916-1.759-3.011-2.843-3.695-2.978-0.685-0.136-2.601-0.136-2.601-0.136z"/>
  <path id="path10260" style="opacity:.88940;fill:#fff" d="m52.666 73.51c2.3224-0.95762 4.4513 0.38305 4.4513 0.38305l0.19354 1.3407-2.3224 1.3407s0.77414-2.8729 0-3.0644c-0.77414-0.19152-1.1612 2.2983-1.1612 2.2983h-0.96768z"/>
  <path id="path10262" style="opacity:.88940;fill:#fff" d="m49.976 74.029 0.5474 1.7606 0.95796-0.27086z"/>
  <path id="path10264" style="opacity:.88940;fill:#fff" d="m51.208 78.228s-0.27369 0.948 0.8211 0.54172c1.0948-0.40629 2.8739-1.3543 3.5581-0.948 0.68425 0.40629 1.0948 1.2189 1.7791 1.3543 0.68425 0.13543 1.2316 0.81257 0 0.67714-1.2317-0.13543-1.2317-0.40629-2.6002-0.54172s-2.1896 0.67714-2.1896 0.67714z"/>
  <path id="path4048" style="opacity:.20588;stroke:#fff;stroke-width:1.9973;fill:none" d="m8.0272 7.5022s0.53686-1.8073 2.2441-2.0538c3.0171-0.43554 74.802-1.0749 77.333 0.00931s2.8601 2.4893 2.8601 2.4893"/>
  <path id="path4050" style="opacity:.19608;stroke:url(#radialGradient6296-6);stroke-width:2.2156;fill:none" d="m8.0272 89.016s0.46932 1.8073 2.1766 2.0538c3.0171 0.43554 74.87 0.93656 77.401-0.14764s3.1302-2.2818 3.1302-2.2818"/>
 </g>
</svg>
