<?xml version="1.0" encoding="UTF-8" standalone="no"?>
<!-- Created with Inkscape (http://www.inkscape.org/) -->
<svg id="svg2408" xmlns:rdf="http://www.w3.org/1999/02/22-rdf-syntax-ns#" xmlns="http://www.w3.org/2000/svg" height="96" width="96" version="1.0" xmlns:cc="http://creativecommons.org/ns#" xmlns:xlink="http://www.w3.org/1999/xlink" xmlns:dc="http://purl.org/dc/elements/1.1/">
 <defs id="defs2410">
  <linearGradient id="linearGradient4384">
   <stop id="stop4386" style="stop-color:#fff" offset="0"/>
   <stop id="stop4388" style="stop-color:#fff;stop-opacity:0" offset="1"/>
  </linearGradient>
  <linearGradient id="ButtonShadow" y2="7.0165" gradientUnits="userSpaceOnUse" x2="45.448" gradientTransform="scale(1.0059 .99417)" y1="92.54" x1="45.448">
   <stop id="stop3750" offset="0"/>
   <stop id="stop3752" style="stop-opacity:.58824" offset="1"/>
  </linearGradient>
  <filter id="filter3174" color-interpolation-filters="sRGB">
   <feGaussianBlur id="feGaussianBlur3176" stdDeviation="1.71"/>
  </filter>
  <filter id="filter3794" height="1.384" width="1.384" color-interpolation-filters="sRGB" y="-.192" x="-.192">
   <feGaussianBlur id="feGaussianBlur3796" stdDeviation="5.28"/>
  </filter>
  <linearGradient id="linearGradient3613" y2="138.66" gradientUnits="userSpaceOnUse" x2="48" y1="20.221" x1="48">
   <stop id="stop3739" style="stop-color:#fff" offset="0"/>
   <stop id="stop3741" style="stop-color:#fff;stop-opacity:0" offset="1"/>
  </linearGradient>
  <linearGradient id="ButtonShadow-0" y2="7.0165" gradientUnits="userSpaceOnUse" x2="45.448" gradientTransform="matrix(1.0059 0 0 .99417 100 0)" y1="92.54" x1="45.448">
   <stop id="stop3750-8" offset="0"/>
   <stop id="stop3752-5" style="stop-opacity:.58824" offset="1"/>
  </linearGradient>
  <linearGradient id="linearGradient3780" y2="90.239" xlink:href="#ButtonShadow-0" gradientUnits="userSpaceOnUse" x2="32.251" gradientTransform="matrix(1.0238 0 0 1.0119 -1.1429 -98.071)" y1="6.1317" x1="32.251"/>
  <linearGradient id="linearGradient3721" y2="90.239" xlink:href="#ButtonShadow-0" gradientUnits="userSpaceOnUse" x2="32.251" gradientTransform="translate(0,-97)" y1="6.1317" x1="32.251"/>
  <clipPath id="clipPath4355">
   <rect id="rect4357" style="fill:#fff" rx="6" ry="6" height="80" width="84" y="6" x="6"/>
  </clipPath>
  <radialGradient id="radialGradient4375" gradientUnits="userSpaceOnUse" cy="87.792" cx="48" gradientTransform="matrix(1 -6.7115e-8 8.4282e-8 1.2558 110 -24.506)" r="42">
   <stop id="stop4369" style="stop-color:#fff;stop-opacity:.71756" offset="0"/>
   <stop id="stop4371" style="stop-color:#fff" offset="1"/>
  </radialGradient>
  <linearGradient id="linearGradient4390" y2="-40" xlink:href="#linearGradient4384" gradientUnits="userSpaceOnUse" x2="48" gradientTransform="matrix(1,0,0,-1,0,92)" y1="88" x1="48"/>
  <linearGradient id="linearGradient4429" y2="82.455" xlink:href="#linearGradient4384" spreadMethod="reflect" gradientUnits="userSpaceOnUse" x2="112.12" y1="82" x1="48"/>
  <linearGradient id="linearGradient3870" y2="1033.4" spreadMethod="reflect" gradientUnits="userSpaceOnUse" x2="50" gradientTransform="translate(-2 -956.36)" y1="1033.4" x1="8">
   <stop id="stop3845" style="stop-color:#523823" offset="0"/>
   <stop id="stop3847" style="stop-color:#79563a" offset=".11780"/>
   <stop id="stop3849" style="stop-color:#875c38" offset=".23810"/>
   <stop id="stop3851" style="stop-color:#a66e40" offset="1"/>
  </linearGradient>
  <linearGradient id="linearGradient3986" y2="323.4" gradientUnits="userSpaceOnUse" x2="376.36" gradientTransform="matrix(.43978 0 0 .43979 -111.92 -36.4)" y1="120.19" x1="376.36">
   <stop id="stop4789" style="stop-color:#fff" offset="0"/>
   <stop id="stop4791" style="stop-color:#fff;stop-opacity:0" offset="1"/>
  </linearGradient>
  <linearGradient id="linearGradient3994" y2="179.11" gradientUnits="userSpaceOnUse" x2="378.34" y1="144.83" x1="378.34">
   <stop id="stop4043" style="stop-color:#fff" offset="0"/>
   <stop id="stop4045" style="stop-color:#e7efc8" offset="1"/>
  </linearGradient>
  <linearGradient id="linearGradient4006" y2="258.55" gradientUnits="userSpaceOnUse" x2="363.62" gradientTransform="matrix(.43978 0 0 .43979 -111.92 -34.4)" y1="91.875" x1="373.12">
   <stop id="stop4789-2" style="stop-color:#fff" offset="0"/>
   <stop id="stop4791-9" style="stop-color:#fff;stop-opacity:0" offset="1"/>
  </linearGradient>
  <radialGradient id="radialGradient4035" fy="276.16" gradientUnits="userSpaceOnUse" cy="205.86" cx="370.5" gradientTransform="matrix(.56635 -.0000012710 9.9118e-7 .43979 -161.83 -22.536)" r="95.5">
   <stop id="stop4875" style="stop-color:#ffe957" offset="0"/>
   <stop id="stop4877" style="stop-color:#f9ff81;stop-opacity:0" offset="1"/>
  </radialGradient>
  <radialGradient id="radialGradient4033" fy="276.16" gradientUnits="userSpaceOnUse" cy="205.86" cx="370.5" gradientTransform="matrix(.56635 -.0000012710 9.9118e-7 .43979 -158.81 -34.405)" r="95.5">
   <stop id="stop4805" style="stop-color:#c9df18" offset="0"/>
   <stop id="stop4807" style="stop-color:#e88524;stop-opacity:0" offset="1"/>
  </radialGradient>
  <radialGradient id="radialGradient3244" gradientUnits="userSpaceOnUse" cy="6" cx="6" r="42">
   <stop id="stop4982" style="stop-color:#74c332" offset="0"/>
   <stop id="stop4984" style="stop-color:#9ecd5e" offset="1"/>
  </radialGradient>
 </defs>
 <metadata id="metadata2413">
  <rdf:RDF>
   <cc:Work rdf:about="">
    <dc:format>image/svg+xml</dc:format>
    <dc:type rdf:resource="http://purl.org/dc/dcmitype/StillImage"/>
    <dc:title/>
   </cc:Work>
  </rdf:RDF>
 </metadata>
 <g id="layer2" style="display:none">
  <rect id="rect3745" style="opacity:.9;filter:url(#filter3174);fill:url(#ButtonShadow)" rx="6" ry="6" height="85" width="86" y="7" x="5"/>
 </g>
 <g id="layer3">
  <path id="path3786" style="opacity:0.08;fill:url(#linearGradient3780)" d="m12-95.031c-5.5111 0-10.031 4.5202-10.031 10.031v71c0 5.5111 4.5202 10.031 10.031 10.031h72c5.5111 0 10.031-4.5202 10.031-10.031v-71c0-5.5111-4.5202-10.031-10.031-10.031h-72z" transform="scale(1,-1)"/>
  <path id="path3778" style="opacity:.1;fill:url(#linearGradient3780)" d="m12-94.031c-4.9716 0-9.0312 4.0596-9.0312 9.0312v71c0 4.9716 4.0596 9.0312 9.0312 9.0312h72c4.9716 0 9.0312-4.0596 9.0312-9.0312v-71c0-4.9716-4.0596-9.0312-9.0312-9.0312h-72z" transform="scale(1,-1)"/>
  <path id="path3770" style="opacity:.2;fill:url(#linearGradient3780)" d="m12-93c-4.4091 0-8 3.5909-8 8v71c0 4.4091 3.5909 8 8 8h72c4.4091 0 8-3.5909 8-8v-71c0-4.4091-3.5909-8-8-8h-72z" transform="scale(1,-1)"/>
  <rect id="rect3723" style="opacity:.3;fill:url(#linearGradient3780)" transform="scale(1,-1)" rx="7" ry="7" height="85" width="86" y="-92" x="5"/>
  <rect id="rect3716" style="opacity:.45;fill:url(#linearGradient3721)" transform="scale(1,-1)" rx="6" ry="6" height="84" width="84" y="-91" x="6"/>
 </g>
 <g id="layer4">
  <rect id="rect2841" style="color:#000000;fill:url(#linearGradient3870)" rx="6" ry="6" height="26" width="84" y="64" x="6"/>
  <path id="rect4345" style="opacity:.1;color:#000000" d="m6 82v2c0 3.324 2.676 6 6 6h72c3.324 0 6-2.676 6-6v-2c0 3.324-2.676 6-6 6h-72c-3.324 0-6-2.676-6-6z"/>
  <path id="rect4336" style="opacity:.1;color:#000000" d="m6 83v1c0 3.324 2.676 6 6 6h72c3.324 0 6-2.676 6-6v-1c0 3.324-2.676 6-6 6h-72c-3.324 0-6-2.676-6-6z"/>
  <path id="path4412" style="opacity:.2" d="m6 80v1c0 3.324 2.676 6 6 6h72c3.324 0 6-2.676 6-6v-1c0 3.324-2.676 6-6 6h-72c-3.324 0-6-2.676-6-6z"/>
 </g>
 <g id="layer1">
  <rect id="rect2419-3" style="fill:url(#radialGradient3244)" rx="6" ry="6" height="80" width="84" y="6" x="6"/>
  <path id="path3124" style="opacity:.4;fill:url(#radialGradient4033);fill-rule:evenodd" d="m33.156 42.812c-10.515-0.036-19.502 1.266-27.156 3.344 0.002 0.56541 0.03831 1.1275 0.0625 1.6875h-0.0625v32.156c0 3.324 2.6773 5.9077 6 6h36 36c3.324 0 6-2.676 6-6v-26.562h-0.6875c0.02825-0.15763 0.06727-0.31051 0.09375-0.46875-2.5467-0.61486-5.1342-1.3134-7.8125-2.125-18.875-5.72-34.917-7.985-48.437-8.032zm56.688 7.125c-0.01789-0.0039-0.17696 0.96726-0.40625 2.9062 0.30085-1.9234 0.42414-2.9024 0.40625-2.9062z"/>
  <path id="path3126" style="opacity:.3;fill:url(#radialGradient4035);fill-rule:evenodd" d="m48 26c-23.195 0-42 18.804-42 42 0 0.10497-0.00077 0.20772 0 0.3125v11.688c0 3.324 5.1938 2.7752 6 6h0.25 71.5 0.25c3.324 0 6-2.676 6-6v-11.688c0.001-0.104 0-0.207 0-0.312 0-23.196-18.805-42-42-42z"/>
  <path id="path3132" style="opacity:.3;fill:url(#linearGradient4006);fill-rule:evenodd" d="m12 6c-3.324 0-6 2.676-6 6v33.562c-0.0015 0.147 0 0.291 0 0.438 0 0.05108-0.00018 0.10522 0 0.15625 17.494-4.7494 42.037-5.4816 75.594 4.6875 2.6782 0.81162 5.2658 1.5101 7.8125 2.125 0.10535-0.62946 0.20428-1.2685 0.28125-1.9062l0.313 0.218v-5.281-34c0-3.324-2.676-6-6-6h-36z"/>
  <path id="rect4359" style="opacity:.2;fill:url(#radialGradient4375)" d="m120.78 6.125c-2.74 0.5576-4.78 2.9665-4.78 5.875v68c0 3.324 2.676 6 6 6h72c3.324 0 6-2.676 6-6v-68c0-2.9085-2.0422-5.3174-4.7812-5.875 2.2051 0.53621 3.8125 2.4908 3.8125 4.875v68c0 2.8049-2.2264 5.0312-5.0312 5.0312h-72c-2.8049 0-5.0312-2.2264-5.0312-5.0312v-68c0-2.3842 1.6074-4.3388 3.8125-4.875z"/>
  <path id="rect4377" style="opacity:.4;fill:url(#linearGradient4390)" d="m12 86c-3.324 0-6-2.676-6-6v-68c0-3.324 2.676-6 6-6h72c3.324 0 6 2.676 6 6v68c0 3.324-2.676 6-6 6zm0-0.96875h72c2.8049 0 5.0312-2.2264 5.0312-5.0312v-68c0-2.8049-2.226-5.0312-5.031-5.0312h-72c-2.8049 0-5.0312 2.2263-5.0312 5.0312v68c0 2.8049 2.2264 5.0312 5.0312 5.0312z"/>
  <path id="rect4414" style="opacity:.15;fill:url(#linearGradient4429)" d="m6 78v2c0 3.324 2.676 6 6 6h72c3.324 0 6-2.676 6-6v-2c0 3.324-2.676 6-6 6h-72c-3.324 0-6-2.676-6-6z"/>
 </g>
 <g id="layer5" style="display:none">
  <rect id="rect3171" style="opacity:.1;filter:url(#filter3794);stroke:#fff;stroke-linecap:round;stroke-width:.5;fill:url(#linearGradient3613)" clip-path="url(#clipPath4355)" rx="12" ry="12" height="62" width="66" y="15" x="15"/>
 </g>
 <g id="layer6">
  <path id="path4061" style="opacity:0.08;fill:#2d5016;fill-rule:evenodd" d="m340.59 110.72c-1.687-0.0925-4.2024-0.0417-6.6562 1.375-2.2488 1.2983-3.7162 3.2344-4.625 5.0938-0.87078 1.7816-1.3442 3.4751-1.7812 5.0625-0.98996 3.5953-1.7055 7.8789-2.2812 12.781-1.1518 9.8065-1.6875 22.084-1.6875 34.344s0.53585 24.507 1.6875 34.312c0.57579 4.9024 1.2913 9.1859 2.2812 12.781 0.43708 1.5874 0.91047 3.2809 1.7812 5.0625 0.90881 1.8594 2.3762 3.7954 4.625 5.0938 2.2276 1.2861 4.615 1.6393 6.7188 1.5 2.024-0.13405 3.7534-0.62527 5.3125-1.0312 3.6175-0.94199 7.6904-2.457 12.219-4.4062 9.0584-3.8992 19.935-9.5547 30.562-15.688 10.629-6.1337 20.938-12.735 28.844-18.625 3.9439-2.9383 7.3324-5.6718 9.9688-8.3438 1.1649-1.1806 2.4262-2.4461 3.5312-4.0938 1.1744-1.751 2.0625-4.0022 2.0625-6.5625 0-4.7497-2.9749-7.935-5.0938-10.156-2.3857-2.501-5.4367-5.0593-9-7.7812-7.1451-5.4581-16.516-11.533-26.375-17.375-9.8634-5.8446-20.191-11.426-29.25-15.656-8.9757-4.1911-16.298-7.3287-22.844-7.6875z" transform="matrix(.43978 0 0 -.43979 -115.74 121.48)"/>
  <path id="path4057" style="opacity:.1;fill:#2d5016;fill-rule:evenodd" d="m340.44 113.28c-1.4914-0.0818-3.4045-0.0162-5.2188 1.0312-1.6951 0.97869-2.8551 2.4887-3.5938 4-0.73868 1.5113-1.1561 3.0354-1.5938 4.625-0.93556 3.3978-1.6522 7.5825-2.2188 12.406-1.1332 9.6477-1.6562 21.845-1.6562 34.031s0.52318 24.353 1.6562 34c0.56656 4.8237 1.2832 9.0085 2.2188 12.406 0.43769 1.5896 0.85507 3.1137 1.5938 4.625 0.73868 1.5113 1.8986 3.0213 3.5938 4 1.6909 0.97625 3.6027 1.2674 5.2812 1.1562 1.6786-0.11117 3.213-0.55224 4.8125-0.96875 3.4173-0.88985 7.3859-2.3624 11.844-4.2812 8.9187-3.8391 19.754-9.4384 30.312-15.531 10.559-6.0933 20.809-12.669 28.594-18.469 3.8906-2.8986 7.1756-5.5796 9.6562-8.0938 1.1605-1.1762 2.2804-2.3196 3.2188-3.7188s1.625-3.168 1.625-5.125c0-3.6831-2.2846-6.1836-4.375-8.375-2.2311-2.3389-5.1806-4.8211-8.6875-7.5-7.0148-5.3586-16.326-11.412-26.125-17.219-9.8023-5.8084-20.079-11.351-29.031-15.531-8.9214-4.1657-16.128-7.152-21.906-7.4688z" transform="matrix(.43978 0 0 -.43979 -115.74 121.48)"/>
  <path id="path4053" style="opacity:.15;fill:#2d5016;fill-rule:evenodd" d="m340.28 116.19c-1.2729-0.0698-2.471 0.008-3.5938 0.65625-2.2879 1.3209-2.9724 3.7104-3.8438 6.875-0.87136 3.1646-1.5688 7.2335-2.125 11.969-1.1124 9.4706-1.6562 21.589-1.6562 33.688s0.5439 24.186 1.6562 33.656c0.55617 4.7353 1.2536 8.8042 2.125 11.969 0.87136 3.1646 1.5558 5.5541 3.8438 6.875 2.2878 1.3209 4.6984 0.73345 7.875-0.0937 3.1766-0.8272 7.0578-2.271 11.438-4.1562 8.7593-3.7705 19.52-9.3276 30-15.375s20.665-12.584 28.312-18.281c3.8235-2.8486 7.0071-5.476 9.3125-7.8125s4.0312-4.1391 4.0312-6.7812c0-2.4775-1.5341-4.1846-3.5938-6.3438-2.0596-2.1592-4.9106-4.5962-8.3438-7.2188-6.8663-5.2451-16.114-11.266-25.844-17.031-9.7297-5.7654-19.946-11.249-28.781-15.375-8.8355-4.1256-16.02-6.956-20.812-7.2188z" transform="matrix(.43978 0 0 -.43979 -115.74 121.48)"/>
  <path id="path4047" style="opacity:.3;fill:#2d5016;fill-rule:evenodd" d="m337.74 220.05c-8.7785-5.0683-8.7785-96.297 0-101.37 8.7785-5.0683 87.785 40.546 87.785 50.683s-79.007 55.751-87.785 50.683z" transform="matrix(.43978 0 0 -.43979 -115.74 121.48)"/>
  <path id="path3128" style="fill:url(#linearGradient3994);fill-rule:evenodd" d="m337.74 220.05c-8.7785-5.0683-8.7785-96.297 0-101.37 8.7785-5.0683 87.785 40.546 87.785 50.683s-79.007 55.751-87.785 50.683z" transform="matrix(.43978 0 0 -.43979 -115.74 120.48)"/>
  <path id="path3130" style="fill:url(#linearGradient3986);fill-rule:evenodd" d="m33.527 23.535c-0.30993 0.01047-0.56116 0.07417-0.74212 0.17866-1.7371 1.0029-2.6847 9.6746-2.8586 19.117 11.507-0.27014 24.922 1.106 40.473 4.9339 0.62775-0.71873 0.9895-1.3139 0.9895-1.7592 0-4.249-31.56-22.683-37.862-22.471z"/>
 </g>
</svg>
