<?xml version="1.0" encoding="UTF-8" standalone="no"?>
<!-- Created with Inkscape (http://www.inkscape.org/) -->
<svg id="svg2408" xmlns:rdf="http://www.w3.org/1999/02/22-rdf-syntax-ns#" xmlns="http://www.w3.org/2000/svg" height="96" width="96" version="1.0" xmlns:cc="http://creativecommons.org/ns#" xmlns:xlink="http://www.w3.org/1999/xlink" xmlns:dc="http://purl.org/dc/elements/1.1/">
 <defs id="defs2410">
  <linearGradient id="linearGradient4341">
   <stop id="stop4343" offset="0"/>
   <stop id="stop4345" style="stop-opacity:0" offset="1"/>
  </linearGradient>
  <linearGradient id="linearGradient4321">
   <stop id="stop4323" style="stop-color:#848484" offset="0"/>
   <stop id="stop4325" style="stop-color:#454545" offset="1"/>
  </linearGradient>
  <linearGradient id="ButtonShadow" y2="7.0165" gradientUnits="userSpaceOnUse" x2="45.448" gradientTransform="scale(1.0059 .99417)" y1="92.54" x1="45.448">
   <stop id="stop3750" offset="0"/>
   <stop id="stop3752" style="stop-opacity:.58824" offset="1"/>
  </linearGradient>
  <linearGradient id="linearGradient3706" y2="5.9877" gradientUnits="userSpaceOnUse" x2="48" y1="90" x1="48">
   <stop id="stop3702" style="stop-color:#212121" offset="0"/>
   <stop id="stop3704" style="stop-color:#444" offset="1"/>
  </linearGradient>
  <filter id="filter3174" color-interpolation-filters="sRGB">
   <feGaussianBlur id="feGaussianBlur3176" stdDeviation="1.71"/>
  </filter>
  <linearGradient id="linearGradient3188" y2="63.893" gradientUnits="userSpaceOnUse" x2="36.357" y1="6" x1="36.357">
   <stop id="stop3739" style="stop-color:#fff" offset="0"/>
   <stop id="stop3741" style="stop-color:#fff;stop-opacity:0" offset="1"/>
  </linearGradient>
  <linearGradient id="linearGradient3255" y2="5.9877" gradientUnits="userSpaceOnUse" x2="48" y1="90" x1="48">
   <stop id="stop3259" style="stop-color:#aaa" offset="0"/>
   <stop id="stop3261" style="stop-color:#d2d2d2" offset="1"/>
  </linearGradient>
  <linearGradient id="linearGradient3301" y2="46.187" gradientUnits="userSpaceOnUse" x2="81.065" y1="46.187" x1="10.48">
   <stop id="stop3270" style="stop-color:#e4e4e4" offset="0"/>
   <stop id="stop3272" style="stop-color:#7a7a7a" offset="1"/>
  </linearGradient>
  <radialGradient id="radialGradient2874" gradientUnits="userSpaceOnUse" cy="90.172" cx="48" gradientTransform="matrix(1.1573 0 0 .99591 -7.551 .19713)" r="42">
   <stop id="stop3739-9" style="stop-color:#fff" offset="0"/>
   <stop id="stop3741-4" style="stop-color:#fff;stop-opacity:0" offset="1"/>
  </radialGradient>
  <linearGradient id="linearGradient3721" y2="90.239" xlink:href="#ButtonShadow-0" gradientUnits="userSpaceOnUse" x2="32.251" gradientTransform="translate(0,-97)" y1="6.1317" x1="32.251"/>
  <linearGradient id="ButtonShadow-0" y2="7.0165" gradientUnits="userSpaceOnUse" x2="45.448" gradientTransform="matrix(1.0059 0 0 .99417 100 0)" y1="92.54" x1="45.448">
   <stop id="stop3750-8" offset="0"/>
   <stop id="stop3752-5" style="stop-opacity:.58824" offset="1"/>
  </linearGradient>
  <linearGradient id="linearGradient3725" y2="90.239" xlink:href="#ButtonShadow-0" gradientUnits="userSpaceOnUse" x2="32.251" gradientTransform="matrix(1.0238 0 0 1.0119 -1.1429 -98.071)" y1="6.1317" x1="32.251"/>
  <linearGradient id="linearGradient3785" y2="72" gradientUnits="userSpaceOnUse" x2="40" y1="88" x1="40">
   <stop id="stop3781" style="stop-color:#ccc" offset="0"/>
   <stop id="stop3783" style="stop-color:#dfdfdf" offset="1"/>
  </linearGradient>
  <linearGradient id="linearGradient3804" y2="68" gradientUnits="userSpaceOnUse" x2="40" y1="72" x1="40">
   <stop id="stop3800" offset="0"/>
   <stop id="stop3806" style="stop-opacity:.49804" offset=".34375"/>
   <stop id="stop3802" style="stop-opacity:0" offset="1"/>
  </linearGradient>
  <linearGradient id="linearGradient3821" y2="48" gradientUnits="userSpaceOnUse" x2="90" gradientTransform="translate(-96)" y1="48" x1="6">
   <stop id="stop3817" offset="0"/>
   <stop id="stop3819" style="stop-opacity:0" offset="1"/>
  </linearGradient>
  <linearGradient id="linearGradient3831" y2="82" gradientUnits="userSpaceOnUse" x2="34" gradientTransform="translate(3)" y1="78" x1="34">
   <stop id="stop3827" style="stop-color:#333" offset="0"/>
   <stop id="stop3829" style="stop-color:#494949" offset="1"/>
  </linearGradient>
  <radialGradient id="radialGradient3913" gradientUnits="userSpaceOnUse" cy="78.2" cx="32" gradientTransform="matrix(1.5 9.9073e-7 -9.9073e-7 1.5 -16 -39.3)" r="4">
   <stop id="stop3865" style="stop-color:#ebebeb" offset="0"/>
   <stop id="stop3867" style="stop-color:#c0c0c0" offset="1"/>
  </radialGradient>
  <linearGradient id="linearGradient3921" y2="74.938" gradientUnits="userSpaceOnUse" x2="37" gradientTransform="translate(2)" y1="83" x1="37">
   <stop id="stop3854" style="stop-color:#fff" offset="0"/>
   <stop id="stop3856" style="stop-color:#fff;stop-opacity:0" offset="1"/>
  </linearGradient>
  <linearGradient id="linearGradient4063" y2="24.147" xlink:href="#linearGradient4321" gradientUnits="userSpaceOnUse" x2="97.732" gradientTransform="matrix(1.0777 0 0 1.0777 -5.3853 -3.7078)" y1="24.147" x1="48.917"/>
  <linearGradient id="linearGradient4065" y2="24.147" xlink:href="#linearGradient4321" gradientUnits="userSpaceOnUse" x2="97.732" gradientTransform="matrix(.76208 .76208 -.76208 .76208 48.272 -29.567)" y1="24.147" x1="48.917"/>
  <linearGradient id="linearGradient4067" y2="23.509" xlink:href="#linearGradient4341" gradientUnits="userSpaceOnUse" x2="53.392" gradientTransform="matrix(.76208 .76208 -.76208 .76208 48.272 -29.567)" y1="22.625" x1="56.27"/>
  <linearGradient id="linearGradient4069" y2="24.147" xlink:href="#linearGradient4321" gradientUnits="userSpaceOnUse" x2="97.732" gradientTransform="matrix(0 1.0777 -1.0777 0 101.32 -7.344)" y1="24.147" x1="48.917"/>
  <linearGradient id="linearGradient4071" y2="23.509" xlink:href="#linearGradient4341" gradientUnits="userSpaceOnUse" x2="53.392" gradientTransform="matrix(0 1.0777 -1.0777 0 101.32 -7.344)" y1="22.625" x1="56.27"/>
  <linearGradient id="linearGradient4073" y2="24.147" xlink:href="#linearGradient4321" gradientUnits="userSpaceOnUse" x2="97.732" gradientTransform="matrix(-.76208 .76208 -.76208 -.76208 123.3 45.941)" y1="24.147" x1="48.917"/>
  <linearGradient id="linearGradient4075" y2="23.509" xlink:href="#linearGradient4341" gradientUnits="userSpaceOnUse" x2="53.392" gradientTransform="matrix(-.76208 .76208 -.76208 -.76208 123.3 45.941)" y1="22.625" x1="56.27"/>
  <linearGradient id="linearGradient4077" y2="24.147" xlink:href="#linearGradient4321" gradientUnits="userSpaceOnUse" x2="97.732" gradientTransform="matrix(-1.0777 0 0 -1.0777 102.59 101.76)" y1="24.147" x1="48.917"/>
  <linearGradient id="linearGradient4079" y2="23.509" xlink:href="#linearGradient4341" gradientUnits="userSpaceOnUse" x2="53.392" gradientTransform="matrix(-1.0777 0 0 -1.0777 102.59 101.76)" y1="22.625" x1="56.27"/>
  <linearGradient id="linearGradient4081" y2="24.147" xlink:href="#linearGradient4321" gradientUnits="userSpaceOnUse" x2="97.732" gradientTransform="matrix(-.76208 -.76208 .76208 -.76208 48.297 122.99)" y1="24.147" x1="48.917"/>
  <linearGradient id="linearGradient4083" y2="23.509" xlink:href="#linearGradient4341" gradientUnits="userSpaceOnUse" x2="53.392" gradientTransform="matrix(-.76208 -.76208 .76208 -.76208 48.297 122.99)" y1="22.625" x1="56.27"/>
  <linearGradient id="linearGradient4085" y2="24.147" xlink:href="#linearGradient4321" gradientUnits="userSpaceOnUse" x2="97.732" gradientTransform="matrix(0 -1.0777 1.0777 0 -6.7689 100.51)" y1="24.147" x1="48.917"/>
  <linearGradient id="linearGradient4087" y2="23.509" xlink:href="#linearGradient4341" gradientUnits="userSpaceOnUse" x2="53.392" gradientTransform="matrix(0 -1.0777 1.0777 0 -6.7689 100.51)" y1="22.625" x1="56.27"/>
  <linearGradient id="linearGradient4089" y2="24.147" xlink:href="#linearGradient4321" gradientUnits="userSpaceOnUse" x2="97.732" gradientTransform="matrix(.76208 -.76208 .76208 .76208 -27.993 47.228)" y1="24.147" x1="48.917"/>
  <linearGradient id="linearGradient4091" y2="23.509" xlink:href="#linearGradient4341" gradientUnits="userSpaceOnUse" x2="53.392" gradientTransform="matrix(.76208 -.76208 .76208 .76208 -27.993 47.228)" y1="22.625" x1="56.27"/>
  <linearGradient id="linearGradient4093" y2="23.509" xlink:href="#linearGradient4341" gradientUnits="userSpaceOnUse" x2="53.392" gradientTransform="matrix(1.0777 0 0 1.0777 -5.3853 -3.7078)" y1="22.625" x1="56.27"/>
  <clipPath id="clipPath4095">
   <rect id="rect4097" style="fill:#f0f" rx="6.7488" ry="6.7488" height="94.483" width="94.483" y="8.4115" x="1.4663"/>
  </clipPath>
 </defs>
 <metadata id="metadata2413">
  <rdf:RDF>
   <cc:Work rdf:about="">
    <dc:format>image/svg+xml</dc:format>
    <dc:type rdf:resource="http://purl.org/dc/dcmitype/StillImage"/>
   </cc:Work>
  </rdf:RDF>
 </metadata>
 <g id="layer2" style="display:none">
  <rect id="rect3745" style="opacity:.9;filter:url(#filter3174);fill:url(#ButtonShadow)" rx="6" ry="6" height="85" width="86" y="7" x="5"/>
 </g>
 <g id="layer8">
  <path id="path3786" style="opacity:0.08;fill:url(#linearGradient3725)" d="m12-95.031c-5.5111 0-10.031 4.5202-10.031 10.031v71c0 5.5111 4.5202 10.031 10.031 10.031h72c5.5111 0 10.031-4.5202 10.031-10.031v-71c0-5.5111-4.5202-10.031-10.031-10.031h-72z" transform="scale(1,-1)"/>
  <path id="path3778" style="opacity:.1;fill:url(#linearGradient3725)" d="m12-94.031c-4.9716 0-9.0312 4.0596-9.0312 9.0312v71c0 4.9716 4.0596 9.0312 9.0312 9.0312h72c4.9716 0 9.0312-4.0596 9.0312-9.0312v-71c0-4.9716-4.0596-9.0312-9.0312-9.0312h-72z" transform="scale(1,-1)"/>
  <path id="path3770" style="opacity:.2;fill:url(#linearGradient3725)" d="m12-93c-4.4091 0-8 3.5909-8 8v71c0 4.4091 3.5909 8 8 8h72c4.4091 0 8-3.5909 8-8v-71c0-4.4091-3.5909-8-8-8h-72z" transform="scale(1,-1)"/>
  <rect id="rect3723" style="opacity:.3;fill:url(#linearGradient3725)" transform="scale(1,-1)" rx="7" ry="7" height="85" width="86" y="-92" x="5"/>
  <rect id="rect3716" style="opacity:.45;fill:url(#linearGradient3721)" transform="scale(1,-1)" rx="6" ry="6" height="84" width="84" y="-91" x="6"/>
 </g>
 <g id="layer1" style="display:none">
  <rect id="rect2419" style="fill:url(#linearGradient3706)" rx="6" ry="6" height="84" width="84" y="6" x="6"/>
 </g>
 <g id="layer4">
  <path id="path2955" style="fill:#333" d="m64 48a16 16 0 1 1 -32 0 16 16 0 1 1 32 0z" transform="matrix(1.4853 0 0 1.4853 -22.946 -30.589)"/>
  <g id="g4592" transform="matrix(.88905 0 0 .88905 4.6964 -1.4782)" clip-path="url(#clipPath4095)">
   <path id="path4319" style="fill:url(#linearGradient4063);fill-rule:evenodd" d="m63.746 52.942-18.232-65.8 54.43 4.549v60.162l-36.199 1.0887z"/>
   <path id="path4329" style="opacity:.2;fill:#fff;fill-rule:evenodd" d="m45.879-13.705 17.879 66.646 1.5326-0.64021-17.879-66.612-1.5326 0.60653z"/>
   <path id="path4424" style="fill:url(#linearGradient4065);fill-rule:evenodd" d="m57.098 59.374 31.706-54.916 37.206 37.202-42.545 42.541-26.367-24.827z"/>
   <path id="path4426" style="opacity:.2;fill:#fff;fill-rule:evenodd" d="m88.806 4.4407-31.698 54.941 1.695 0.538 31.674-54.917-1.671-0.5623z"/>
   <path id="path4428" style="opacity:.6;fill:url(#linearGradient4067);fill-rule:evenodd" d="m85.302 1.0891-31.243 55.245 3.1198 2.9292 31.626-54.822-3.5032-3.3516z"/>
   <path id="path4436" style="fill:url(#linearGradient4069);fill-rule:evenodd" d="m44.668 61.788 61.252-16.412v52.611h-60.162l-1.0887-36.199z"/>
   <path id="path4438" style="opacity:.2;fill:#fff;fill-rule:evenodd" d="m105.93 45.364-61.263 16.436 0.03368 1.8359 61.229-16.436v-1.8359z"/>
   <path id="path4440" style="opacity:.6;fill:url(#linearGradient4071);fill-rule:evenodd" d="m105.93 41.054-61.263 16.436 0.13472 4.2773 61.128-16.402v-4.311z"/>
   <path id="path4448" style="fill:url(#linearGradient4073);fill-rule:evenodd" d="m34.359 54.767 54.916 31.705-37.202 37.198-42.54-42.537 24.826-26.366z"/>
   <path id="path4450" style="opacity:.2;fill:#fff;fill-rule:evenodd" d="m89.292 86.474-54.941-31.698-1.0976 1.3924 54.917 31.674 1.1214-1.3686z"/>
   <path id="path4452" style="opacity:.6;fill:url(#linearGradient4075);fill-rule:evenodd" d="m92.341 83.426-54.942-31.698l-2.9292 3.1198 54.822 31.626 3.0483-3.0483z"/>
   <path id="path4460" style="fill:url(#linearGradient4077);fill-rule:evenodd" d="m33.461 45.115 16.412 61.251h-52.611v-60.162l36.199-1.0887z"/>
   <path id="path4462" style="opacity:.2;fill:#fff;fill-rule:evenodd" d="m49.884 106.38-16.436-61.263-1.6843 0.48858 16.436 61.229 1.6843-0.4549z"/>
   <path id="path4464" style="opacity:.6;fill:url(#linearGradient4079);fill-rule:evenodd" d="m54.195 106.38-16.436-61.263-4.2773 0.13472 16.402 61.128h4.311z"/>
   <path id="path4472" style="fill:url(#linearGradient4081);fill-rule:evenodd" d="m39.472 34.048-31.706 54.916-37.202-37.202 42.541-42.541 26.367 24.827z"/>
   <path id="path4474" style="opacity:.2;fill:#fff;fill-rule:evenodd" d="m7.7642 88.981 31.698-54.941-1.392-1.193-31.674 54.917 1.3682 1.217z"/>
   <path id="path4476" style="opacity:.6;fill:url(#linearGradient4083);fill-rule:evenodd" d="m10.813 92.029 31.697-54.941-3.119-2.929-31.627 54.822 3.049 3.048z"/>
   <path id="path4484" style="fill:url(#linearGradient4085);fill-rule:evenodd" d="m-11.375-4.8125v52.594l61.25-16.406-1.0312-34.094-0.5625-2.0938h-59.656z"/>
   <path id="path4486" style="opacity:.2;fill:#fff;fill-rule:evenodd" d="m-11.383 47.805 61.263-16.436-0.48858-1.6843-61.229 16.436 0.4549 1.6843z"/>
   <path id="path4488" style="opacity:.6;fill:url(#linearGradient4087);fill-rule:evenodd" d="m-11.383 52.116 61.263-16.436-0.13472-4.2773-61.128 16.402v4.311z"/>
   <path id="path4496" style="fill:url(#linearGradient4089);fill-rule:evenodd" d="m43.219-30.5-37.188 37.188 53.625 30.969-13.277-49.293h18.094l-21.254-18.864z"/>
   <path id="path4498" style="opacity:.2;fill:#fff;fill-rule:evenodd" d="m6.6532 5.1793-0.6532 1.5082 53.656 30.968-0.503-2.227-52.5-30.25z"/>
   <path id="path4500" style="opacity:.6;fill:url(#linearGradient4091);fill-rule:evenodd" d="m6 6.6875-3.0312 3.0625 54.937 31.688 2.156-2.282-0.406-1.531-53.656-30.938z"/>
   <path id="path4334" style="opacity:.6;fill:url(#linearGradient4093);fill-rule:evenodd" d="m41.635-13.544 17.803 66.482l1.4062-0.03125 1.9688-3.4375-16.865-63.013h-4.3125z"/>
  </g>
  <rect id="rect3813" style="opacity:.4;color:#000000;fill:url(#linearGradient3821)" transform="rotate(-90)" rx="6" ry="6" height="84" width="84" y="6" x="-90"/>
 </g>
 <g id="layer3" style="display:none">
  <path id="rect2476" style="fill:url(#linearGradient3255)" d="m12 6c-3.324 0-6 2.676-6 6v72c0 3.324 2.676 6 6 6h72c3.324 0 6-2.676 6-6v-72c0-3.324-2.676-6-6-6h-72zm36 7c19.32 0 35 15.68 35 35s-15.68 35-35 35-35-15.68-35-35 15.68-35 35-35z"/>
  <path id="text3309" style="fill:#666" d="m26.575 16.691 1.2083-0.72757-0.50222-0.83402-0.66294 0.3992-0.33803-0.56136 0.66294-0.3992-0.84669-1.4061 0.55067-0.33159 2.025 3.3628-1.7589 1.0592-0.33803-0.56136m-1.435-1.1358 0.95366-0.62836 0.36397 0.55239-0.95366 0.62836-0.36397-0.55239m-1.0933 3.0146 0.94049-0.70144c0.23679-0.17661 0.25942-0.39331 0.0679-0.65011-0.20481-0.26766-0.40018-0.33475-0.58609-0.20128l-0.32017 0.23879c-0.54028 0.40295-1.0243 0.31761-1.4522-0.25602l-0.08208-0.11006c-0.4328-0.5803-0.33404-1.1055 0.29629-1.5756l0.97551-0.72756 0.39176 0.52528-1.0656 0.79472c-0.23012 0.17163-0.25315 0.38084-0.06908 0.62764l0.01119 0.01501c0.20148 0.27014 0.4006 0.33183 0.59737 0.18508l0.34518-0.25744c0.51609-0.37972 0.99551-0.27276 1.4383 0.32089l0.08582 0.11506c0.41539 0.55696 0.30959 1.0692-0.31741 1.5369l-0.86545 0.64547-0.39176-0.52528m-0.87697 0.70684-0.77539-0.89708-0.55714 0.48156c-0.17627 0.15236-0.17734 0.32926-0.0032 0.53071l0.26935 0.31162c0.16324 0.18886 0.33299 0.20711 0.50926 0.05476l0.55714-0.48156m-1.2039-1.3928-0.93455-1.0812 0.48159-0.41626 2.5669 2.9698-1.0482 0.90598c-0.49648 0.41812-0.96373 0.3738-1.4018-0.13297l-0.26526-0.3069c-0.46795-0.5414-0.45641-1.0243 0.03462-1.4487l0.56658-0.48972m-1.7071 3.8771c0.08228 0.08246 0.17202 0.07521 0.26921-0.02176l0.54341-0.54216c0.0913-0.0911 0.09581-0.17788 0.01354-0.26034l-1.566-1.57c-0.05583-0.05596-0.11022-0.08397-0.16318-0.08403-0.05295-0.000061-0.09563 0.01607-0.12803 0.0484l-0.592 0.59065c-0.0324 0.03232-0.04127 0.0735-0.02662 0.12353 0.01171 0.05297 0.0396 0.10154 0.08368 0.14572l1.5648 1.5684m-2.108-1.2115c-0.35262-0.35932-0.35957-0.70795-0.02087-1.0459l0.70245-0.70084c0.34165-0.34087 0.68439-0.33901 1.0282 0.0056l1.7543 1.7583c0.33793 0.3387 0.34785 0.66674 0.02976 0.98411l-0.74221 0.74052c-0.33871 0.33793-0.67703 0.33754-1.015-0.0012l-1.7367-1.7407m0.31096 3.4923 0.52599-0.6012-2.4753-2.1656 0.41915-0.47908 2.4753 2.1656 0.48079-0.54954 0.49317 0.43148-1.4259 1.6298-0.49317-0.43148"/>
  <path id="text3313" style="fill:#666" d="m60.742 86.859-1.1775 0.35354c-0.56185 0.1687-0.9349-0.05378-1.1192-0.66744l-0.51686-1.7214c-0.18106-0.58854 0.04381-0.97534 0.6746-1.1604l1.0819-0.32483 0.11665 0.38852-1.2014 0.36072c-0.30284 0.09093-0.4076 0.2918-0.31428 0.60261l0.53839 1.7931c0.09691 0.32277 0.28085 0.44347 0.55181 0.36211l0.87266-0.26202-0.35534-1.1835-0.76508 0.22971-0.11845-0.39449 1.1416-0.34278 0.59044 1.9665m2.3366-0.85474-0.35704 0.13207-0.62788-1.6974c-0.10826-0.29266-0.30091-0.38774-0.57796-0.28526l-0.40972 0.15156c-0.31217 0.11548-0.40546 0.34295-0.27989 0.68243l0.6019 1.6272-0.36289 0.13424-0.931-2.5169 0.36289-0.13424 0.11259 0.30436c0.01325-0.24001 0.14546-0.40425 0.39664-0.49273l0.46825-0.17321c0.44874-0.16599 0.76693 0.0047 0.95458 0.51192l0.64953 1.7559m2.0679-1.8274c0.225 0.51465 0.11142 0.87282-0.34074 1.0745l-0.59845 0.26693c-0.45216 0.20168-0.79264 0.04604-1.0214-0.46691l-0.41438-0.92902c-0.22371-0.50155-0.10949-0.85317 0.34267-1.0549l0.59845-0.26693c0.45216-0.20168 0.79199-0.05259 1.0195 0.44727l0.41438 0.92902m-0.3915 0.07212-0.33557-0.75234c-0.14067-0.31537-0.34589-0.41289-0.61567-0.29256l-0.44456 0.19829c-0.26598 0.11864-0.33053 0.33649-0.19366 0.65355l0.33557 0.75233c0.14026 0.32467 0.34718 0.42599 0.62075 0.30396l0.44456-0.19829c0.26978-0.12033 0.33263-0.34198 0.18858-0.66495m4.4635-1.3016-0.33861 0.18723-0.83953-1.5183c-0.17516-0.31676-0.39199-0.40367-0.65049-0.26073l-0.31676 0.17515c-0.29856 0.16509-0.35379 0.40482-0.1657 0.71918l0.83651 1.5128-0.33861 0.18723-0.85765-1.551c-0.16307-0.29492-0.37569-0.3699-0.63783-0.22494l-0.27853 0.15401c-0.29856 0.16509-0.35705 0.41612-0.17547 0.7531l0.82443 1.491-0.33861 0.18723-1.2986-2.3484 0.33861-0.18723 0.17817 0.32222c-0.04596-0.25508 0.05849-0.45308 0.31336-0.59401l0.38776-0.21441c0.29492-0.16307 0.524-0.13998 0.68724 0.06926-0.05038-0.27166 0.06097-0.48298 0.33404-0.63398l0.42599-0.23555c0.40779-0.22548 0.75462-0.07972 1.0405 0.4373l0.86973 1.5729m1.4835-2.3851-1.4004 0.93714 0.1753 0.27317c0.15386 0.22244 0.3328 0.26539 0.5368 0.12887l1.0166-0.6803 0.22908 0.34231-1.0114 0.67682c-0.42415 0.27884-0.78143 0.19755-1.0718-0.24389l-0.60218-0.88861c-0.30081-0.4495-0.23281-0.82291 0.204-1.1202l0.46507-0.30372c0.40109-0.26841 0.74857-0.18306 1.0424 0.25606l0.41651 0.62238m-1.626 0.60002 1.0944-0.73236-0.18567-0.26623c-0.14695-0.22706-0.31724-0.2758-0.51087-0.14622l-0.48234 0.3228c-0.22129 0.14809-0.25155 0.33104-0.09077 0.54885l0.1753 0.27317m2.7319-1.7888 0.88842 1.1194-0.30308 0.24053-2.2851-2.8792 0.98745-0.78367c0.4458-0.34848 0.85233-0.29135 1.2196 0.17141l0.25217 0.31774c0.39313 0.49536 0.36809 0.9189-0.07512 1.2706l-0.68437 0.54314m-1.1445-1.4421 0.8923 1.1243 0.67459-0.53538c0.24768-0.19656 0.26289-0.43172 0.04563-0.70547l-0.255-0.324c-0.20691-0.26071-0.4342-0.29278-0.68188-0.09622l-0.67459 0.53538m5.1206-0.06906-0.28336 0.25422-1.2086-1.3471c-0.20838-0.23226-0.4225-0.24976-0.64238-0.0525l-0.32517 0.29173c-0.24775 0.22227-0.25076 0.46812-0.009 0.73754l1.1586 1.2914-0.28801 0.25839-2.463-2.7454 0.28801-0.25839 0.88768 0.98945c-0.07602-0.22803-0.01355-0.42941 0.18743-0.60413l0.372-0.333c0.35614-0.31951 0.7148-0.27797 1.076 0.12462l1.2503 1.3936m1.1809-2.3929c0.3982 0.39614 0.42401 0.771 0.07744 1.1246l-0.4587 0.46796c-0.34657 0.35357-0.72041 0.33377-1.1215-0.0594l-0.726-0.713c-0.392-0.385-0.415-0.754-0.068-1.107l0.4587-0.46796c0.34657-0.35357 0.71741-0.33962 1.1125 0.04184l0.72645 0.71207m-0.3377 0.21079-0.5883-0.57665c-0.24661-0.24172-0.4733-0.25711-0.68008-0.04616l-0.34075 0.34763c-0.20386 0.20798-0.18395 0.43432 0.05974 0.67902l0.58829 0.57665c0.24964 0.25052 0.4793 0.26882 0.68899 0.0549l0.34075-0.34763c0.20678-0.21095 0.18389-0.4402-0.06866-0.68776m1.9028-0.71023-0.04568 0.05125c-0.40418 0.45345-0.83299 0.47809-1.2864 0.07391l-2.0638-1.8396 0.25746-0.28884 0.74074 0.66025 0.39449-0.44258 0.30282 0.26991-0.39449 0.44258 1.0296 0.9177c0.24536 0.2187 0.49954 0.18052 0.76253-0.11453l0.30282 0.26991m0.85179-2.3647c0.43386 0.35673 0.49499 0.72746 0.1834 1.1122l-0.4124 0.50923c-0.3116 0.38475-0.68564 0.40038-1.1221 0.04689l-0.79051-0.64021c-0.42678-0.34563-0.48437-0.71083-0.17278-1.0956l0.41241-0.50923c0.3116-0.38474 0.68209-0.40592 1.1115-0.06352l0.79051 0.64021m-0.31626 0.24177-0.64017-0.51845c-0.26835-0.21733-0.49549-0.21122-0.6814 0.01834l-0.30636 0.37828c-0.18329 0.22632-0.14207 0.44977 0.12367 0.67033l0.64017 0.51845c0.2722 0.2258 0.50257 0.22231 0.6911-0.01048l0.30636-0.37828c0.18591-0.22956 0.14145-0.45562-0.13337-0.67819m3.2078-2.9277-0.21522 0.32155-2.5516-1.7078 0.6237 0.62772 1.5461 1.6506-0.24299 0.36304-2.0877-0.79656-0.83712-0.34251 2.5465 1.7044-0.21869 0.32674-3.0547-2.0446 0.3263-0.48751 2.7933 1.1111 0.37876 0.16339-0.28337-0.27226-2.1042-2.1744 0.3263-0.48751 3.0547 2.0446m1.2395-2.1469-0.67404 1.1746c-0.24435 0.42581-0.59721 0.50154-1.0586 0.22719-0.42942-0.24642-0.51781-0.58976-0.26517-1.03l0.46282-0.80651-0.21421-0.11573c-0.27732-0.16874-0.49261-0.11959-0.64584 0.14744l-0.54047 0.94183-0.35183-0.2019 0.54278-0.93331c0.30434-0.49691 0.71039-0.59009 1.2181-0.27954l1.5264 0.87594m-0.54442 0.13369-0.63871-0.36653-0.49699 0.86605c-0.10407 0.18972-0.04965 0.34566 0.16325 0.46784 0.2093 0.12011 0.36882 0.08453 0.47857-0.10672l0.49388-0.86064m1.7374-2.5126-0.16821 0.34151-1.6236-0.79968c-0.27992-0.13787-0.48515-0.07431-0.61567 0.19068l-0.19302 0.3919c-0.14706 0.29859-0.05824 0.52785 0.26647 0.68778l1.5564 0.76658-0.17096 0.34711-2.4074-1.1857 0.17096-0.34711 0.29112 0.14339c-0.15553-0.18327-0.1726-0.39343-0.05122-0.63046l0.2206-0.44788c0.21141-0.42922 0.55972-0.52433 1.0449-0.28535l1.6796 0.82725m0.96637-2.2875-0.52024 1.2503c-0.18859 0.45327-0.52906 0.57298-1.0214 0.35912-0.45711-0.19019-0.58817-0.51961-0.39319-0.98824l0.35721-0.85852-0.22711-0.08774c-0.29642-0.13234-0.50377-0.05639-0.62204 0.22786l-0.41714 1.0026-0.37452-0.15583 0.42051-0.99441c0.23912-0.53138 0.63014-0.67512 1.173-0.4312l1.6249 0.67606m-0.52316 0.20141-0.6799-0.28289-0.38358 0.9219c-0.07927 0.20134-0.0056 0.34917 0.22105 0.44346 0.22279 0.0927 0.37654 0.03726 0.46125-0.16633l0.38118-0.91614m1.7998-0.82665-0.40116-0.13844 0.2789-0.80821c0.06243-0.18091 0.01499-0.29851-0.14233-0.3528l-0.28907-0.09975-0.35219 1.0206c-0.13287 0.37227-0.40124 0.49312-0.80511 0.36255l-1.3392-0.46212c-0.39722-0.13708-0.52994-0.40294-0.39816-0.79759l0.4723-1.3687 2.8199 0.97311c0.4352 0.15458 0.58833 0.41869 0.4594 0.79231l-0.30333 0.87901m-2.7128-2.1443-0.3298 0.9557c-0.06107 0.17698 0.01065 0.30076 0.21516 0.37133l1.0973 0.37866c0.24777 0.0855 0.40573 0.01678 0.47386-0.20618l0.3074-0.8908-1.7639-0.6087m1.8764-2.391-0.44892 1.6241 0.31113 0.09248c0.26177 0.06804 0.42535-0.01624 0.49075-0.25284l0.32588-1.179 0.397 0.10974-0.32422 1.173c-0.13924 0.48813-0.46295 0.6598-0.97113 0.51502l-1.0363-0.27996c-0.52132-0.1441-0.71359-0.47134-0.57683-0.98174l0.15399-0.53369c0.12858-0.46517 0.44751-0.62737 0.9568-0.4866l0.72182 0.19952m-0.83991 1.516 0.35082-1.2692-0.31445-0.08044c-0.25955-0.07606-0.42036-0.0018-0.48243 0.22276l-0.15463 0.55941c-0.07094 0.25665 0.02558 0.41498 0.28956 0.475l0.31113 0.09247m0.1259-3.5639-0.1143 0.52439c-0.07354 0.3374 0.07712 0.54483 0.45199 0.62228l1.6646 0.36284-0.0824 0.37805-2.622-0.57151 0.0824-0.37805 0.33537 0.0731c-0.216-0.097-0.282-0.331-0.202-0.696l0.08639-0.39634 0.39634 0.08639"/>
  <path id="path2522" style="stroke:url(#linearGradient3301);stroke-linecap:square;stroke-width:1.9432;fill:none" d="m81.065 46.187a35.292 32.767 0 1 1 -70.584 0 35.292 32.767 0 1 1 70.584 0z" transform="matrix(0 -.99172 1.0682 0 -1.3347 93.394)"/>
 </g>
 <g id="layer6">
  <path id="rect3002" style="color:#000000;fill:url(#linearGradient3785)" d="m6 72v12c0 3.324 2.676 6 6 6h72c3.324 0 6-2.676 6-6v-12h-84z"/>
  <path id="path3787" style="opacity:.6;color:#000000;fill:#fff" d="m6 72v1h84v-1h-84z"/>
  <path id="path3796" style="opacity:.6;color:#000000;fill:url(#linearGradient3804)" d="m6 68v4h84v-4h-84z"/>
  <path id="path3848" style="opacity:.6;color:#000000;fill:url(#linearGradient3921)" d="m27 77.062c-1.6149 0-2.9375 1.3226-2.9375 2.9375s1.3226 2.9375 2.9375 2.9375h46c1.6149 0 2.9375-1.3226 2.9375-2.9375s-1.3226-2.9375-2.9375-2.9375h-46z"/>
  <rect id="rect3823" style="color:#000000;fill:url(#linearGradient3831)" rx="2" ry="2" height="4" width="50" y="78" x="25"/>
  <g id="g3904" transform="translate(4)">
   <path id="path3893" style="opacity:.05;color:#000000" d="m32 74.219c-3.1711 0-5.7812 2.6101-5.7812 5.7812s2.6101 5.7812 5.7812 5.7812 5.7812-2.6101 5.7812-5.7812-2.6101-5.7812-5.7812-5.7812z" transform="matrix(1.125,0,0,1.125,-4,-9.5)"/>
   <path id="path3889" style="opacity:.15;color:#000000" d="m32 75.125c-2.6816 0-4.875 2.1934-4.875 4.875s2.1934 4.875 4.875 4.875 4.875-2.1934 4.875-4.875-2.1934-4.875-4.875-4.875z" transform="matrix(1.125,0,0,1.125,-4,-9.5)"/>
   <path id="path3875" style="opacity:.3;color:#000000" d="m36 80a4 4 0 1 1 -8 0 4 4 0 1 1 8 0z" transform="matrix(1.125,0,0,1.125,-4,-9.5)"/>
   <path id="path3861" style="color:#000000;fill:url(#radialGradient3913)" d="m36 80a4 4 0 1 1 -8 0 4 4 0 1 1 8 0z"/>
   <path id="path3895" style="opacity:.6;color:#000000;fill:#fff" d="m32 76c-2.2091 0-4 1.7909-4 4 0 0.17012 0.04189 0.33547 0.0625 0.5 0.248-1.972 1.899-3.5 3.938-3.5s3.6904 1.528 3.9375 3.5c0.02-0.165 0.062-0.33 0.062-0.5 0-2.209-1.791-4-4-4z"/>
  </g>
  <path id="path3915" style="opacity:.3" d="m77 84h3v3h2v-3h3l-4-9-4 9z"/>
  <path id="path3917" style="opacity:.3" d="m16 83h2v3h2v-3h2l-3-7-3 7z"/>
  <path id="path3919" style="opacity:.3" d="m10 83h2v3h2v-3h2l-3-7-3 7z"/>
  <path id="path3923" style="opacity:.2" d="m81 75-4 9h0.4375l3.562-8 3.562 8h0.438l-4-9zm-68 1-3 7h0.4375l2.562-6 2.562 6h0.438l-3-7zm3 7h0.4375l2.562-6 2.562 6h0.438l-3-7-3 7z"/>
  <path id="path3930" style="opacity:.3;fill:#fff" d="m10.438 83-0.438 1h2v-1h-1.5625zm3.562 0v1h2l-0.438-1h-1.562zm2 1h2v-1h-1.5625l-0.438 1zm4-1v1h2l-0.438-1h-1.562zm57.438 1-0.438 1h3v-1h-2.5625zm4.562 0v1h3l-0.438-1h-2.562zm-70 2v1h2v-1h-2zm6 0v1h2v-1h-2zm62 1v1h2v-1h-2z"/>
 </g>
 <g id="layer5">
  <path id="rect3728" style="opacity:.3;fill:url(#linearGradient3188)" d="m12 6c-3.324 0-6 2.676-6 6v2 68 2c0 0.33472 0.04135 0.6507 0.09375 0.96875 0.0487 0.2956 0.09704 0.59692 0.1875 0.875 0.00988 0.03038 0.020892 0.0636 0.03125 0.09375 0.098865 0.28777 0.23488 0.54745 0.375 0.8125 0.14459 0.27351 0.31562 0.53562 0.5 0.78125 0.18438 0.24564 0.37378 0.47347 0.59375 0.6875 0.43995 0.42806 0.94291 0.81453 1.5 1.0938 0.27854 0.13961 0.57347 0.24695 0.875 0.34375-0.2562-0.10022-0.48671-0.23627-0.71875-0.375-0.00741-0.0044-0.023866 0.0045-0.03125 0-0.031933-0.0193-0.062293-0.04251-0.09375-0.0625-0.1204-0.0767-0.23102-0.16351-0.34375-0.25-0.10617-0.0808-0.21328-0.16111-0.3125-0.25-0.1778-0.162-0.3473-0.346-0.4999-0.531-0.1075-0.131-0.2183-0.266-0.3124-0.407-0.0251-0.038-0.0385-0.086-0.0626-0.125-0.0647-0.103-0.1302-0.204-0.1874-0.312-0.1011-0.195-0.2057-0.416-0.2813-0.625-0.008-0.022-0.0236-0.041-0.0313-0.063-0.0318-0.092-0.0358-0.187-0.0624-0.281-0.0304-0.107-0.0704-0.203-0.0938-0.313-0.0729-0.341-0.125-0.698-0.125-1.062v-2-68-2c0-2.782 2.2182-5 5-5h2 68 2c2.7818 0 5 2.2182 5 5v2 68 2c0 0.3643-0.05212 0.72099-0.125 1.0625-0.04415 0.20689-0.08838 0.39766-0.15625 0.59375-0.0077 0.02195-0.0233 0.04069-0.03125 0.0625-0.06274 0.17374-0.13838 0.36745-0.21875 0.53125-0.04158 0.0828-0.07904 0.16995-0.125 0.25-0.0546 0.09721-0.12677 0.18835-0.1875 0.28125-0.09411 0.14096-0.20492 0.276-0.3125 0.40625-0.14317 0.17445-0.30314 0.347-0.46875 0.5-0.01117 0.0102-0.01998 0.02115-0.03125 0.03125-0.13839 0.12556-0.28509 0.23444-0.4375 0.34375-0.10257 0.07315-0.20432 0.15336-0.3125 0.21875-0.0074 0.0045-0.02384-0.0044-0.03125 0-0.23204 0.13873-0.46255 0.27478-0.71875 0.375 0.30153-0.0968 0.59646-0.20414 0.875-0.34375 0.55709-0.27922 1.0601-0.66569 1.5-1.0938 0.21997-0.21403 0.40937-0.44186 0.59375-0.6875s0.35541-0.50774 0.5-0.78125c0.14012-0.26505 0.27614-0.52473 0.375-0.8125 0.01041-0.03078 0.02133-0.06274 0.03125-0.09375 0.09046-0.27808 0.1388-0.5794 0.1875-0.875 0.053-0.318 0.094-0.634 0.094-0.969v-2-68-2c0-3.324-2.676-6-6-6h-72z"/>
  <path id="path3615" style="opacity:.45;fill:url(#radialGradient2874)" d="m12 90c-3.324 0-6-2.676-6-6v-2-68-2c0-0.33472 0.04135-0.6507 0.09375-0.96875 0.0487-0.2956 0.09704-0.59692 0.1875-0.875 0.0099-0.03 0.0209-0.063 0.0313-0.094 0.0989-0.2873 0.2349-0.547 0.375-0.812 0.1446-0.2735 0.3156-0.5356 0.5-0.7812 0.1844-0.2457 0.3738-0.4735 0.5937-0.6876 0.44-0.428 0.943-0.8145 1.5-1.0937 0.2786-0.1396 0.5735-0.2469 0.8748-0.3437-0.256 0.1002-0.4865 0.2362-0.7185 0.375-0.00741 0.0044-0.023866-0.0045-0.03125 0-0.031933 0.0193-0.062293 0.04251-0.09375 0.0625-0.1204 0.0767-0.23102 0.16351-0.34375 0.25-0.10617 0.0808-0.21328 0.16111-0.3125 0.25-0.1779 0.1614-0.3474 0.3453-0.5 0.5312-0.1075 0.1303-0.2183 0.2653-0.3124 0.4063-0.0251 0.0383-0.0385 0.0858-0.0626 0.125-0.0647 0.103-0.1302 0.2045-0.1874 0.3124-0.1011 0.1948-0.2057 0.4158-0.2813 0.625-0.008 0.0219-0.0236 0.0406-0.0313 0.0626-0.0318 0.0919-0.0358 0.1868-0.0624 0.2812-0.0304 0.1066-0.0704 0.203-0.0938 0.3125-0.0729 0.3415-0.125 0.6985-0.125 1.0625v2 68 2c0 2.7818 2.2182 5 5 5h2 68 2c2.7818 0 5-2.2182 5-5v-2-68-2c0-0.364-0.052-0.721-0.125-1.0625-0.044-0.2069-0.088-0.3977-0.156-0.5937-0.008-0.022-0.024-0.0407-0.031-0.0626-0.063-0.1737-0.139-0.3674-0.219-0.5312-0.042-0.0828-0.079-0.17-0.125-0.25-0.055-0.0972-0.127-0.1884-0.188-0.2812-0.094-0.141-0.205-0.276-0.312-0.4063-0.143-0.1745-0.303-0.347-0.469-0.5-0.011-0.0102-0.02-0.0211-0.031-0.0313-0.139-0.1255-0.285-0.2344-0.438-0.3437-0.102-0.0731-0.204-0.1534-0.312-0.2187-0.0074-0.0045-0.02384 0.0044-0.03125 0-0.23204-0.13873-0.46255-0.27478-0.71875-0.375 0.30153 0.0968 0.59646 0.20414 0.875 0.34375 0.55709 0.27922 1.0601 0.66569 1.5 1.0938 0.21997 0.21403 0.40937 0.44186 0.59375 0.6875s0.35541 0.50774 0.5 0.78125c0.14012 0.26505 0.27614 0.52473 0.375 0.8125 0.01041 0.03078 0.02133 0.06274 0.03125 0.09375 0.09046 0.27808 0.1388 0.5794 0.1875 0.875 0.053 0.318 0.094 0.634 0.094 0.969v2 68 2c0 3.324-2.676 6-6 6h-72z"/>
 </g>
</svg>
