<?xml version="1.0" encoding="UTF-8" standalone="no"?>
<!-- Created with Inkscape (http://www.inkscape.org/) -->
<svg id="svg2408" xmlns:rdf="http://www.w3.org/1999/02/22-rdf-syntax-ns#" xmlns="http://www.w3.org/2000/svg" height="96" width="96" version="1.0" xmlns:cc="http://creativecommons.org/ns#" xmlns:xlink="http://www.w3.org/1999/xlink" xmlns:dc="http://purl.org/dc/elements/1.1/">
 <defs id="defs2410">
  <linearGradient id="linearGradient4075">
   <stop id="stop4077" style="stop-color:#fff" offset="0"/>
   <stop id="stop4079" style="stop-color:#fff;stop-opacity:0" offset="1"/>
  </linearGradient>
  <linearGradient id="linearGradient3975">
   <stop id="stop3977" style="stop-color:#294172" offset="0"/>
   <stop id="stop3979" style="stop-color:#294172;stop-opacity:0" offset="1"/>
  </linearGradient>
  <linearGradient id="ButtonShadow" y2="7.0165" gradientUnits="userSpaceOnUse" x2="45.448" gradientTransform="scale(1.0059 .99417)" y1="92.54" x1="45.448">
   <stop id="stop3750" offset="0"/>
   <stop id="stop3752" style="stop-opacity:.58824" offset="1"/>
  </linearGradient>
  <filter id="filter3174" color-interpolation-filters="sRGB">
   <feGaussianBlur id="feGaussianBlur3176" stdDeviation="1.71"/>
  </filter>
  <linearGradient id="linearGradient3188" y2="63.893" xlink:href="#linearGradient4075" gradientUnits="userSpaceOnUse" x2="36.357" y1="6" x1="36.357"/>
  <filter id="filter3794" height="1.384" width="1.384" color-interpolation-filters="sRGB" y="-.192" x="-.192">
   <feGaussianBlur id="feGaussianBlur3796" stdDeviation="5.28"/>
  </filter>
  <linearGradient id="linearGradient3613" y2="138.66" xlink:href="#linearGradient4075" gradientUnits="userSpaceOnUse" x2="48" y1="20.221" x1="48"/>
  <radialGradient id="radialGradient3619" xlink:href="#linearGradient4075" gradientUnits="userSpaceOnUse" cy="90.172" cx="48" gradientTransform="matrix(1.1573 0 0 .99591 -7.551 .19713)" r="42"/>
  <clipPath id="clipPath3613">
   <rect id="rect3615" style="fill:#fff" rx="6" ry="6" height="84" width="84" y="6" x="6"/>
  </clipPath>
  <linearGradient id="ButtonShadow-0" y2="7.0165" gradientUnits="userSpaceOnUse" x2="45.448" gradientTransform="matrix(1.0059 0 0 .99417 100 0)" y1="92.54" x1="45.448">
   <stop id="stop3750-8" offset="0"/>
   <stop id="stop3752-5" style="stop-opacity:.58824" offset="1"/>
  </linearGradient>
  <linearGradient id="linearGradient3780" y2="90.239" xlink:href="#ButtonShadow-0" gradientUnits="userSpaceOnUse" x2="32.251" gradientTransform="matrix(1.0238 0 0 1.0119 -1.1429 -98.071)" y1="6.1317" x1="32.251"/>
  <linearGradient id="linearGradient3721" y2="90.239" xlink:href="#ButtonShadow-0" gradientUnits="userSpaceOnUse" x2="32.251" gradientTransform="translate(0,-97)" y1="6.1317" x1="32.251"/>
  <linearGradient id="linearGradient3121" y2="5.9877" gradientUnits="userSpaceOnUse" x2="48" y1="90" x1="48">
   <stop id="stop3956" style="stop-color:#284977" offset="0"/>
   <stop id="stop3960" style="stop-color:#4575b8" offset=".13511"/>
   <stop id="stop3958" style="stop-color:#81a4d5" offset="1"/>
  </linearGradient>
  <linearGradient id="linearGradient3896" y2="80" gradientUnits="userSpaceOnUse" x2="40" y1="88" x1="40">
   <stop id="stop3892" style="stop-color:#fff" offset="0"/>
   <stop id="stop3898" style="stop-color:#eceadb" offset=".5"/>
   <stop id="stop3894" style="stop-color:#d8d3a6" offset="1"/>
  </linearGradient>
  <linearGradient id="linearGradient3981" y2="88" xlink:href="#linearGradient3975" gradientUnits="userSpaceOnUse" x2="88" y1="80" x1="88"/>
  <linearGradient id="linearGradient4027" y2="48" xlink:href="#linearGradient3975" gradientUnits="userSpaceOnUse" x2="24" y1="48" x1="6"/>
  <radialGradient id="radialGradient2877-3" gradientUnits="userSpaceOnUse" cy="133.1" cx="115.9" gradientTransform="matrix(.19023 0 0 .19024 30 18)" r="154.62">
   <stop id="stop3899-0" style="stop-color:#294172;stop-opacity:0" offset="0"/>
   <stop id="stop3901-3" style="stop-color:#294172" offset="1"/>
  </radialGradient>
  <radialGradient id="radialGradient3122" gradientUnits="userSpaceOnUse" cy="133.1" cx="115.9" gradientTransform="matrix(.19023 0 0 .19024 30 18)" r="154.62">
   <stop id="stop3899-4" style="stop-color:#294172;stop-opacity:.37405" offset="0"/>
   <stop id="stop3901-7" style="stop-color:#294172" offset="1"/>
  </radialGradient>
  <linearGradient id="linearGradient4081" y2="80" xlink:href="#linearGradient4075" gradientUnits="userSpaceOnUse" x2="24" y1="80" x1="40"/>
  <linearGradient id="linearGradient4089" y2="80" xlink:href="#linearGradient4075" gradientUnits="userSpaceOnUse" x2="16" y1="80" x1="32"/>
 </defs>
 <metadata id="metadata2413">
  <rdf:RDF>
   <cc:Work rdf:about="">
    <dc:format>image/svg+xml</dc:format>
    <dc:type rdf:resource="http://purl.org/dc/dcmitype/StillImage"/>
    <dc:title/>
   </cc:Work>
  </rdf:RDF>
 </metadata>
 <g id="layer2" style="display:none">
  <rect id="rect3745" style="opacity:.9;filter:url(#filter3174);fill:url(#ButtonShadow)" rx="6" ry="6" height="85" width="86" y="7" x="5"/>
 </g>
 <g id="layer3">
  <path id="path3786" style="opacity:0.08;fill:url(#linearGradient3780)" d="m12-95.031c-5.5111 0-10.031 4.5202-10.031 10.031v71c0 5.5111 4.5202 10.031 10.031 10.031h72c5.5111 0 10.031-4.5202 10.031-10.031v-71c0-5.5111-4.5202-10.031-10.031-10.031h-72z" transform="scale(1,-1)"/>
  <path id="path3778" style="opacity:.1;fill:url(#linearGradient3780)" d="m12-94.031c-4.9716 0-9.0312 4.0596-9.0312 9.0312v71c0 4.9716 4.0596 9.0312 9.0312 9.0312h72c4.9716 0 9.0312-4.0596 9.0312-9.0312v-71c0-4.9716-4.0596-9.0312-9.0312-9.0312h-72z" transform="scale(1,-1)"/>
  <path id="path3770" style="opacity:.2;fill:url(#linearGradient3780)" d="m12-93c-4.4091 0-8 3.5909-8 8v71c0 4.4091 3.5909 8 8 8h72c4.4091 0 8-3.5909 8-8v-71c0-4.4091-3.5909-8-8-8h-72z" transform="scale(1,-1)"/>
  <rect id="rect3723" style="opacity:.3;fill:url(#linearGradient3780)" transform="scale(1,-1)" rx="7" ry="7" height="85" width="86" y="-92" x="5"/>
  <rect id="rect3716" style="opacity:.45;fill:url(#linearGradient3721)" transform="scale(1,-1)" rx="6" ry="6" height="84" width="84" y="-91" x="6"/>
 </g>
 <g id="layer1">
  <rect id="rect2419-5" style="fill:url(#linearGradient3121)" rx="6" ry="6" height="84" width="84" y="6" x="6"/>
  <path id="rect3964" style="fill:url(#linearGradient3981)" d="m90 76c0 2.216-1.784 4-4 4h-4-70c-2.77 0-5 2.23-5 5 0 2.4238 1.7175 4.4415 4 4.9062 0.12533 0.02075 0.24713 0.04959 0.375 0.0625 0.04116 0.0052 0.08352-0.0042 0.125 0 0.163 0.013 0.334 0.031 0.5 0.031h70.094 1.906c3.324 0 6-2.676 6-6v-8z"/>
  <path id="rect4014" style="opacity:.4;fill:url(#linearGradient4027)" d="m12 6c-3.324 0-6 2.676-6 6v72c0 3.324 2.676 6 6 6h8v-84z"/>
  <path id="path3073" style="color:#000000;fill:url(#linearGradient3896)" d="m13 80.031c-2.2299 0-3.9688 1.7388-3.9688 3.9688 0 2.2299 1.7388 3.9688 3.9688 3.9688h70.312c1.509-0.161 2.688-1.416 2.688-2.969v-4.9688z"/>
  <rect id="rect3075" style="opacity:0.12;color:#000000;fill:#f0f" rx="6" ry="6" height="12" width="98" y="98" x="6"/>
  <path id="path3853" style="opacity:.3;color:#000000" d="m90 75c0 2.216-1.784 4-4 4h-5v0.03125h-69c-2.2299 0-3.9688 1.7388-3.9688 3.9688 0 0.17172 0.042447 0.33467 0.0625 0.5 0.2404-1.982 1.8481-3.469 3.9063-3.469h74v-0.031c2.216 0 4-1.784 4-4v-1z"/>
  <path id="path3880" style="opacity:.1;color:#000000;fill:url(#linearGradient4089)" d="m90 74c0 2.216-1.784 4-4 4h-5v0.03125h-69c-2.2299 0-3.9688 1.7388-3.9688 3.9688 0 0.17172 0.042447 0.33467 0.0625 0.5 0.2404-1.982 1.8481-3.469 3.9063-3.469h74v-0.031c2.216 0 4-1.784 4-4v-1z"/>
  <path id="path3885" style="opacity:.5;color:#000000" d="m12 80.031c-2.2299 0-3.9688 1.7388-3.9688 3.9688 0 2.2299 1.7388 3.9688 3.9688 3.9688h1c-2.2299 0-3.9688-1.7388-3.9688-3.9688 0-2.2299 1.7388-3.9688 3.9688-3.9688h-1z"/>
  <path id="path3918" style="opacity:.15" d="m86 80.156-74.719 0.282 74.719 0.124v-0.406zm0 0.65625-76.438 1.2188c-0.0023 0.004-0.02899-0.0041-0.03125 0-0.0045 0.0081 0.0045 0.02311 0 0.03125l76.469-0.218v-1.032zm0 2.0312-76.844 0.25 76.844 0.125v-0.375zm-76.969 1.25 76.969 1c0.001-0.031 0-0.061 0-0.093v-0.53125l-76.969-0.375zm0.1565 0.969c0.02576 0.09633 0.06124 0.18819 0.09375 0.28125l53.157-0.093-53.25-0.188zm76.719 0.625-76.125 0.65625c0.0087 0.01204 0.02244 0.01931 0.03125 0.03125l75.907-0.124c0.02323-0.05009 0.04269-0.10404 0.0625-0.15625 0.05145-0.12993 0.09209-0.26788 0.125-0.40625zm-0.468 1.063-75.032 0.25l74.312 0.125 0.5-0.125c0.07541-0.0824 0.15293-0.15951 0.21875-0.25z"/>
  <path id="path4001" style="opacity:.3;color:#000000" d="m86 80.031v4.969c0 1.5527-1.1787 2.8085-2.6875 2.9688h1c1.509-0.161 2.688-1.416 2.688-2.969v-4.9688h-1z"/>
  <path id="path4010" style="opacity:.25;color:#000000" d="m90 76c0 2.216-1.784 4-4 4h-5v0.03125h-68c-2.2299 0-3.9688 1.7388-3.9688 3.9688 0 0.17172 0.04245 0.33467 0.0625 0.5 0.2404-1.982 1.8483-3.469 3.9063-3.469h73v-0.031c2.216 0 4-1.784 4-4z"/>
  <path id="path4012" style="opacity:.05;color:#000000;fill:url(#linearGradient4081)" d="m90 73c0 2.216-1.784 4-4 4h-5v0.03125h-69c-2.2299 0-3.9688 1.7388-3.9688 3.9688 0 0.17172 0.042447 0.33467 0.0625 0.5 0.2404-1.982 1.8481-3.469 3.9063-3.469h74v-0.031c2.216 0 4-1.784 4-4v-1z"/>
  <path id="path3615" style="opacity:.2;fill:url(#radialGradient3619)" d="m12 90c-3.324 0-6-2.676-6-6v-2-68-2c0-0.33472 0.04135-0.6507 0.09375-0.96875 0.0487-0.2956 0.09704-0.59692 0.1875-0.875 0.0099-0.03 0.0209-0.063 0.0313-0.094 0.0989-0.2873 0.2349-0.547 0.375-0.812 0.1446-0.2735 0.3156-0.5356 0.5-0.7812 0.1844-0.2457 0.3738-0.4735 0.5937-0.6876 0.44-0.428 0.943-0.8145 1.5-1.0937 0.2786-0.1396 0.5735-0.2469 0.8748-0.3437-0.256 0.1002-0.4865 0.2362-0.7185 0.375-0.00741 0.0044-0.023866-0.0045-0.03125 0-0.031933 0.0193-0.062293 0.04251-0.09375 0.0625-0.1204 0.0767-0.23102 0.16351-0.34375 0.25-0.10617 0.0808-0.21328 0.16111-0.3125 0.25-0.1779 0.1614-0.3474 0.3453-0.5 0.5312-0.1075 0.1303-0.2183 0.2653-0.3124 0.4063-0.0251 0.0383-0.0385 0.0858-0.0626 0.125-0.0647 0.103-0.1302 0.2045-0.1874 0.3124-0.1011 0.1948-0.2057 0.4158-0.2813 0.625-0.008 0.0219-0.0236 0.0406-0.0313 0.0626-0.0318 0.0919-0.0358 0.1868-0.0624 0.2812-0.0304 0.1066-0.0704 0.203-0.0938 0.3125-0.0729 0.3415-0.125 0.6985-0.125 1.0625v2 68 2c0 2.7818 2.2182 5 5 5h2 68 2c2.7818 0 5-2.2182 5-5v-2-68-2c0-0.364-0.052-0.721-0.125-1.0625-0.044-0.2069-0.088-0.3977-0.156-0.5937-0.008-0.022-0.024-0.0407-0.031-0.0626-0.063-0.1737-0.139-0.3674-0.219-0.5312-0.042-0.0828-0.079-0.17-0.125-0.25-0.055-0.0972-0.127-0.1884-0.188-0.2812-0.094-0.141-0.205-0.276-0.312-0.4063-0.143-0.1745-0.303-0.347-0.469-0.5-0.011-0.0102-0.02-0.0211-0.031-0.0313-0.139-0.1255-0.285-0.2344-0.438-0.3437-0.102-0.0731-0.204-0.1534-0.312-0.2187-0.0074-0.0045-0.02384 0.0044-0.03125 0-0.23204-0.13873-0.46255-0.27478-0.71875-0.375 0.30153 0.0968 0.59646 0.20414 0.875 0.34375 0.55709 0.27922 1.0601 0.66569 1.5 1.0938 0.21997 0.21403 0.40937 0.44186 0.59375 0.6875s0.35541 0.50774 0.5 0.78125c0.14012 0.26505 0.27614 0.52473 0.375 0.8125 0.01041 0.03078 0.02133 0.06274 0.03125 0.09375 0.09046 0.27808 0.1388 0.5794 0.1875 0.875 0.053 0.318 0.094 0.634 0.094 0.969v2 68 2c0 3.324-2.676 6-6 6h-72z"/>
  <rect id="rect4029" style="opacity:.1;color:#000000;fill:#fff" height="73" width="1.1061" y="6" x="20"/>
  <rect id="rect4031" style="opacity:.2;color:#000000;fill:#294172" height="73" width="1.1061" y="6" x="19"/>
  <path id="rect3728" style="opacity:.35;fill:url(#linearGradient3188)" d="m12 6c-3.324 0-6 2.676-6 6v2 68 2c0 0.33472 0.04135 0.6507 0.09375 0.96875 0.0487 0.2956 0.09704 0.59692 0.1875 0.875 0.00988 0.03038 0.020892 0.0636 0.03125 0.09375 0.098865 0.28777 0.23488 0.54745 0.375 0.8125 0.14459 0.27351 0.31562 0.53562 0.5 0.78125 0.18438 0.24564 0.37378 0.47347 0.59375 0.6875 0.43995 0.42806 0.94291 0.81453 1.5 1.0938 0.27854 0.13961 0.57347 0.24695 0.875 0.34375-0.2562-0.10022-0.48671-0.23627-0.71875-0.375-0.00741-0.0044-0.023866 0.0045-0.03125 0-0.031933-0.0193-0.062293-0.04251-0.09375-0.0625-0.1204-0.0767-0.23102-0.16351-0.34375-0.25-0.10617-0.0808-0.21328-0.16111-0.3125-0.25-0.1778-0.162-0.3473-0.346-0.4999-0.531-0.1075-0.131-0.2183-0.266-0.3124-0.407-0.0251-0.038-0.0385-0.086-0.0626-0.125-0.0647-0.103-0.1302-0.204-0.1874-0.312-0.1011-0.195-0.2057-0.416-0.2813-0.625-0.008-0.022-0.0236-0.041-0.0313-0.063-0.0318-0.092-0.0358-0.187-0.0624-0.281-0.0304-0.107-0.0704-0.203-0.0938-0.313-0.0729-0.341-0.125-0.698-0.125-1.062v-2-68-2c0-2.782 2.2182-5 5-5h2 68 2c2.7818 0 5 2.2182 5 5v2 68 2c0 0.3643-0.05212 0.72099-0.125 1.0625-0.04415 0.20689-0.08838 0.39766-0.15625 0.59375-0.0077 0.02195-0.0233 0.04069-0.03125 0.0625-0.06274 0.17374-0.13838 0.36745-0.21875 0.53125-0.04158 0.0828-0.07904 0.16995-0.125 0.25-0.0546 0.09721-0.12677 0.18835-0.1875 0.28125-0.09411 0.14096-0.20492 0.276-0.3125 0.40625-0.14317 0.17445-0.30314 0.347-0.46875 0.5-0.01117 0.0102-0.01998 0.02115-0.03125 0.03125-0.13839 0.12556-0.28509 0.23444-0.4375 0.34375-0.10257 0.07315-0.20432 0.15336-0.3125 0.21875-0.0074 0.0045-0.02384-0.0044-0.03125 0-0.23204 0.13873-0.46255 0.27478-0.71875 0.375 0.30153-0.0968 0.59646-0.20414 0.875-0.34375 0.55709-0.27922 1.0601-0.66569 1.5-1.0938 0.21997-0.21403 0.40937-0.44186 0.59375-0.6875s0.35541-0.50774 0.5-0.78125c0.14012-0.26505 0.27614-0.52473 0.375-0.8125 0.01041-0.03078 0.02133-0.06274 0.03125-0.09375 0.09046-0.27808 0.1388-0.5794 0.1875-0.875 0.053-0.318 0.094-0.634 0.094-0.969v-2-68-2c0-3.324-2.676-6-6-6h-72z"/>
  <path id="path4093" style="opacity:.1;color:#000000" d="m90 77c0 2.216-1.784 4-4 4h-5v0.03125h-68c-2.2299 0-3.9688 1.7388-3.9688 3.9688 0 0.17172 0.04245 0.33467 0.0625 0.5 0.2404-1.982 1.8483-3.469 3.9063-3.469h73v-0.031c2.216 0 4-1.784 4-4z"/>
 </g>
 <g id="layer5">
  <rect id="rect3171" style="opacity:.1;filter:url(#filter3794);stroke:#fff;stroke-linecap:round;stroke-width:.5;fill:url(#linearGradient3613)" clip-path="url(#clipPath3613)" rx="12" ry="12" height="66" width="66" y="15" x="15"/>
 </g>
 <g id="layer4">
  <rect id="rect3959" style="color:#000000;fill:#294172" height="16" width="16" y="0" x="104"/>
  <rect id="rect3961" style="color:#000000;fill:#3c6eb4" height="16" width="16" y="24" x="104"/>
  <path id="speech-bubble-7" style="fill:url(#radialGradient3122)" d="m54 18c-13.249 0-23.991 10.74-24 23.987v15.267 3.3051 1.7161c0 2.064 1.661 3.725 3.725 3.725h1.7288 12.025 6.5338c13.25-0.0055 23.987-10.748 23.987-24 0-13.256-10.745-24-24-24z"/>
  <path id="speech-bubble" style="fill:url(#radialGradient2877-3)" d="m54 18c-13.249 0-23.991 10.74-24 23.987v15.267 3.3051 1.7161c0 2.064 1.661 3.725 3.725 3.725h1.7288 12.025 6.5338c13.25-0.0055 23.987-10.748 23.987-24 0-13.256-10.745-24-24-24z"/>
  <path id="f-script-path-6" style="fill:#5484c6" d="m61.233 23.259c-6.356 0-11.508 5.1524-11.508 11.508v0.008 6.091h-6.072-0.0015c-6.3558 0-11.508 5.1273-11.508 11.483 0 6.3564 5.1522 11.509 11.508 11.509 6.355 0 11.507-5.1522 11.507-11.509v-0.008-6.1162h6.0718 0.0025c6.355 0 11.507-5.1021 11.507-11.458s-5.1522-11.508-11.507-11.508zm-11.508 29.101c-0.0048 3.349-2.7228 6.0639-6.0736 6.0639-3.3543 0-6.0986-2.7194-6.0986-6.0738 0-3.3556 2.7444-6.1254 6.0986-6.1254h0.008 5.2045 0.0039c0.47382 0 0.85805 0.38347 0.85805 0.85653 0 0.0009-0.000584 0.0009-0.000584 0.0022v5.2766h-0.000193zm11.507-11.494h-0.0057-5.2079-0.0031c-0.47382 0-0.85708-0.38327-0.85708-0.8575v-0.000194-5.2511c0.0057-3.3509 2.7228-6.0649 6.0738-6.0649 3.3543 0 6.0992 2.7196 6.0992 6.0746 0 3.3546-2.745 6.0991-6.0992 6.0991z"/>
  <path id="blue-inifity-connectors-2" style="fill:#fff" d="m49.725 40.866v-6.0911-0.008c0-6.3559 5.152-11.508 11.508-11.508 0.96416 0 1.6492 0.10865 2.5417 0.34226 1.3016 0.34129 2.3644 1.4075 2.365 2.6487 0.000581 1.5004-1.0885 2.5912-2.7162 2.5912-0.77545 0-1.0557-0.14849-2.1911-0.14849-3.351 0-6.0681 2.714-6.0738 6.0649v5.2509 0.000195c0 0.47423 0.38325 0.8575 0.85708 0.8575h0.0031 3.9884c1.4864 0 2.6867 1.19 2.6878 2.6804 0 1.4909-1.202 2.6782-2.6878 2.6782h-4.8486v6.1162 0.0091c0 6.3553-5.1522 11.507-11.507 11.507-0.96436 0-1.6494-0.10865-2.5419-0.34246-1.3016-0.3411-2.3648-1.4079-2.3654-2.6487 0-1.5 1.0884-2.5912 2.7168-2.5912 0.77467 0 1.0557 0.14868 2.1905 0.14868 3.351 0 6.0689-2.7142 6.0742-6.0639v-5.2785c0-0.47326-0.38423-0.85653-0.85805-0.85653h-0.0022-3.9882c-1.4868 0-2.688-1.1862-2.688-2.6775-0.00039-1.4997 1.2137-2.681 2.7162-2.681h4.8196v-0.000194z"/>
  <path id="path3933" style="opacity:.15" d="m54 18c-13.249 0-23.991 10.729-24 23.977v0.75c0.009-13.248 10.751-23.977 24-23.977 13.13 0 23.8 10.542 24 23.625 0.0019-0.12452 0-0.25003 0-0.375 0-13.256-10.745-24-24-24z"/>
  <path id="path4066" style="opacity:.15;fill:#fff" d="m78 42.5c-0.264 13.023-10.916 23.495-24 23.5h-6.5312-12-1.75c-2.063 0-3.719-1.656-3.719-3.719v1c0 2.063 1.656 3.719 3.719 3.719h1.75 12 6.531c13.25-0.0055 24-10.748 24-24 0-0.16559 0.0033-0.33521 0-0.5z"/>
 </g>
</svg>
