<?xml version="1.0" encoding="UTF-8" standalone="no"?>
<!-- Created with Inkscape (http://www.inkscape.org/) -->
<svg id="svg2408" xmlns:rdf="http://www.w3.org/1999/02/22-rdf-syntax-ns#" xmlns="http://www.w3.org/2000/svg" height="96" width="96" version="1.0" xmlns:cc="http://creativecommons.org/ns#" xmlns:xlink="http://www.w3.org/1999/xlink" xmlns:dc="http://purl.org/dc/elements/1.1/">
 <defs id="defs2410">
  <linearGradient id="linearGradient4384">
   <stop id="stop4386" style="stop-color:#fff" offset="0"/>
   <stop id="stop4388" style="stop-color:#fff;stop-opacity:0" offset="1"/>
  </linearGradient>
  <linearGradient id="ButtonShadow" y2="7.0165" gradientUnits="userSpaceOnUse" x2="45.448" gradientTransform="scale(1.0059 .99417)" y1="92.54" x1="45.448">
   <stop id="stop3750" offset="0"/>
   <stop id="stop3752" style="stop-opacity:.58824" offset="1"/>
  </linearGradient>
  <filter id="filter3174" color-interpolation-filters="sRGB">
   <feGaussianBlur id="feGaussianBlur3176" stdDeviation="1.71"/>
  </filter>
  <filter id="filter3794" height="1.384" width="1.384" color-interpolation-filters="sRGB" y="-.192" x="-.192">
   <feGaussianBlur id="feGaussianBlur3796" stdDeviation="5.28"/>
  </filter>
  <linearGradient id="linearGradient3613" y2="138.66" gradientUnits="userSpaceOnUse" x2="48" y1="20.221" x1="48">
   <stop id="stop3739" style="stop-color:#fff" offset="0"/>
   <stop id="stop3741" style="stop-color:#fff;stop-opacity:0" offset="1"/>
  </linearGradient>
  <linearGradient id="ButtonShadow-0" y2="7.0165" gradientUnits="userSpaceOnUse" x2="45.448" gradientTransform="matrix(1.0059 0 0 .99417 100 0)" y1="92.54" x1="45.448">
   <stop id="stop3750-8" offset="0"/>
   <stop id="stop3752-5" style="stop-opacity:.58824" offset="1"/>
  </linearGradient>
  <linearGradient id="linearGradient3780" y2="90.239" xlink:href="#ButtonShadow-0" gradientUnits="userSpaceOnUse" x2="32.251" gradientTransform="matrix(1.0238 0 0 1.0119 -1.1429 -98.071)" y1="6.1317" x1="32.251"/>
  <linearGradient id="linearGradient3721" y2="90.239" xlink:href="#ButtonShadow-0" gradientUnits="userSpaceOnUse" x2="32.251" gradientTransform="translate(0,-97)" y1="6.1317" x1="32.251"/>
  <clipPath id="clipPath4355">
   <rect id="rect4357" style="fill:#fff" rx="6" ry="6" height="80" width="84" y="6" x="6"/>
  </clipPath>
  <radialGradient id="radialGradient4375" gradientUnits="userSpaceOnUse" cy="87.792" cx="48" gradientTransform="matrix(1 -6.7115e-8 8.4282e-8 1.2558 110 -24.506)" r="42">
   <stop id="stop4369" style="stop-color:#fff;stop-opacity:.71756" offset="0"/>
   <stop id="stop4371" style="stop-color:#fff" offset="1"/>
  </radialGradient>
  <linearGradient id="linearGradient4390" y2="-40" xlink:href="#linearGradient4384" gradientUnits="userSpaceOnUse" x2="48" gradientTransform="matrix(1,0,0,-1,0,92)" y1="88" x1="48"/>
  <linearGradient id="linearGradient4429" y2="82.455" xlink:href="#linearGradient4384" spreadMethod="reflect" gradientUnits="userSpaceOnUse" x2="112.12" y1="82" x1="48"/>
  <linearGradient id="linearGradient3228" y2="88" spreadMethod="reflect" gradientUnits="userSpaceOnUse" x2="48" y1="88" x1="90">
   <stop id="stop3894" style="stop-opacity:.58824" offset="0"/>
   <stop id="stop3896" style="stop-opacity:.47059" offset=".11780"/>
   <stop id="stop3898" style="stop-opacity:.39216" offset=".23810"/>
   <stop id="stop3900" style="stop-opacity:.31373" offset="1"/>
  </linearGradient>
  <linearGradient id="linearGradient4100" y2="30" xlink:href="#linearGradient3967" gradientUnits="userSpaceOnUse" x2="48" gradientTransform="translate(0,36)" y1="26" x1="48"/>
  <linearGradient id="linearGradient3967">
   <stop id="stop3969" style="stop-color:#fff" offset="0"/>
   <stop id="stop3971" style="stop-color:#8e8e8e" offset=".75"/>
   <stop id="stop3973" style="stop-color:#cacaca" offset="1"/>
  </linearGradient>
  <linearGradient id="linearGradient4098" y2="17" xlink:href="#linearGradient4040" gradientUnits="userSpaceOnUse" x2="50" y1="31" x1="50"/>
  <linearGradient id="linearGradient4040">
   <stop id="stop4042" style="stop-color:#656565" offset="0"/>
   <stop id="stop4044" style="stop-color:#b9b9b9" offset="1"/>
  </linearGradient>
  <filter id="filter4078" height="1.3721" width="1.1294" color-interpolation-filters="sRGB" y="-.18604" x="-.064691">
   <feGaussianBlur id="feGaussianBlur4080" stdDeviation="0.7025"/>
  </filter>
  <linearGradient id="linearGradient4094" y2="32" xlink:href="#linearGradient4040" gradientUnits="userSpaceOnUse" x2="46" y1="26" x1="46"/>
  <linearGradient id="linearGradient4096" y2="18" xlink:href="#linearGradient3967" gradientUnits="userSpaceOnUse" x2="45" gradientTransform="matrix(1,0,0,-1,0,45)" y1="30" x1="45"/>
  <linearGradient id="linearGradient3955" y2="30" xlink:href="#linearGradient3967" gradientUnits="userSpaceOnUse" x2="48" gradientTransform="translate(0,2)" y1="26" x1="48"/>
  <linearGradient id="linearGradient3871" y2="40" xlink:href="#linearGradient3865" gradientUnits="userSpaceOnUse" x2="48" y1="32" x1="48"/>
  <linearGradient id="linearGradient3865">
   <stop id="stop3867" offset="0"/>
   <stop id="stop3869" style="stop-opacity:0" offset="1"/>
  </linearGradient>
  <filter id="filter4020" height="1.7971" width="1.2325" color-interpolation-filters="sRGB" y="-.39857" x="-.11625">
   <feGaussianBlur id="feGaussianBlur4022" stdDeviation="1.1625"/>
  </filter>
  <linearGradient id="linearGradient3875" y2="40" xlink:href="#linearGradient3865" gradientUnits="userSpaceOnUse" x2="48" gradientTransform="translate(0,34)" y1="32" x1="48"/>
  <linearGradient id="linearGradient3929" y2="32" xlink:href="#linearGradient4384" gradientUnits="userSpaceOnUse" x2="32" gradientTransform="translate(0,38)" y1="8" x1="32"/>
  <linearGradient id="linearGradient3911" y2="32" xlink:href="#linearGradient4384" gradientUnits="userSpaceOnUse" x2="32" y1="16" x1="32"/>
  <linearGradient id="linearGradient3872" y2="88" gradientUnits="userSpaceOnUse" x2="72" gradientTransform="translate(0,-2)" y1="40" x1="24">
   <stop id="stop3868" style="stop-color:#fff" offset="0"/>
   <stop id="stop3880" style="stop-color:#d2d2d2" offset=".16667"/>
   <stop id="stop3878" style="stop-color:#c8c8c8" offset=".33333"/>
   <stop id="stop3876" style="stop-color:#dcdcdc" offset=".66667"/>
   <stop id="stop3874" style="stop-color:#cfcfcf" offset=".83333"/>
   <stop id="stop3870" style="stop-color:#bdbdbd" offset="1"/>
  </linearGradient>
  <linearGradient id="linearGradient3915" y2="-40" xlink:href="#linearGradient3865" gradientUnits="userSpaceOnUse" x2="67" gradientTransform="translate(0,38)" y1="44" x1="67"/>
  <linearGradient id="linearGradient3931" y2="8" xlink:href="#linearGradient3865" gradientUnits="userSpaceOnUse" x2="71.426" gradientTransform="translate(0,38)" y1="40" x1="80"/>
  <linearGradient id="linearGradient3925" y2="14" xlink:href="#linearGradient3865" gradientUnits="userSpaceOnUse" x2="67" gradientTransform="translate(0,39)" y1="42" x1="67"/>
  <linearGradient id="linearGradient3840" y2="48" xlink:href="#linearGradient3700-0" gradientUnits="userSpaceOnUse" x2="72" y1="8" x1="24"/>
  <linearGradient id="linearGradient3700-0">
   <stop id="stop3702-6" style="stop-color:#dcdcdc" offset="0"/>
   <stop id="stop3822" style="stop-color:#f0f0f0" offset="0.3"/>
   <stop id="stop3824" style="stop-color:#dcdcdc" offset="0.6"/>
   <stop id="stop3828" style="stop-color:#c8c8c8" offset="0.8"/>
   <stop id="stop3704-4" style="stop-color:#bebebe" offset="1"/>
  </linearGradient>
  <linearGradient id="linearGradient3856" y2="-24" xlink:href="#linearGradient3865" gradientUnits="userSpaceOnUse" x2="67" y1="44" x1="67"/>
  <linearGradient id="linearGradient3864" y2="16" xlink:href="#linearGradient3865" gradientUnits="userSpaceOnUse" x2="73.569" y1="40" x1="80"/>
  <linearGradient id="linearGradient3890-6" y2="16" xlink:href="#linearGradient3865" gradientUnits="userSpaceOnUse" x2="67" y1="44" x1="67"/>
  <linearGradient id="linearGradient4062" y2="88" xlink:href="#linearGradient3700-0" gradientUnits="userSpaceOnUse" x2="70.188" y1="8" x1="24"/>
 </defs>
 <metadata id="metadata2413">
  <rdf:RDF>
   <cc:Work rdf:about="">
    <dc:format>image/svg+xml</dc:format>
    <dc:type rdf:resource="http://purl.org/dc/dcmitype/StillImage"/>
    <dc:title/>
   </cc:Work>
  </rdf:RDF>
 </metadata>
 <g id="layer2" style="display:none">
  <rect id="rect3745" style="opacity:.9;filter:url(#filter3174);fill:url(#ButtonShadow)" rx="6" ry="6" height="85" width="86" y="7" x="5"/>
 </g>
 <g id="layer3">
  <path id="path3786" style="opacity:0.08;fill:url(#linearGradient3780)" d="m12-95.031c-5.5111 0-10.031 4.5202-10.031 10.031v71c0 5.5111 4.5202 10.031 10.031 10.031h72c5.5111 0 10.031-4.5202 10.031-10.031v-71c0-5.5111-4.5202-10.031-10.031-10.031h-72z" transform="scale(1,-1)"/>
  <path id="path3778" style="opacity:.1;fill:url(#linearGradient3780)" d="m12-94.031c-4.9716 0-9.0312 4.0596-9.0312 9.0312v71c0 4.9716 4.0596 9.0312 9.0312 9.0312h72c4.9716 0 9.0312-4.0596 9.0312-9.0312v-71c0-4.9716-4.0596-9.0312-9.0312-9.0312h-72z" transform="scale(1,-1)"/>
  <path id="path3770" style="opacity:.2;fill:url(#linearGradient3780)" d="m12-93c-4.4091 0-8 3.5909-8 8v71c0 4.4091 3.5909 8 8 8h72c4.4091 0 8-3.5909 8-8v-71c0-4.4091-3.5909-8-8-8h-72z" transform="scale(1,-1)"/>
  <rect id="rect3723" style="opacity:.3;fill:url(#linearGradient3780)" transform="scale(1,-1)" rx="7" ry="7" height="85" width="86" y="-92" x="5"/>
  <rect id="rect3716" style="opacity:.45;fill:url(#linearGradient3721)" transform="scale(1,-1)" rx="6" ry="6" height="84" width="84" y="-91" x="6"/>
 </g>
 <g id="layer1">
  <rect id="rect2419-5" style="fill:url(#linearGradient4062)" rx="6" ry="6" height="84" width="84" y="6" x="6"/>
  <path id="path3888-8" style="opacity:.05;color:#000000;fill:url(#linearGradient3890-6)" d="m15 11.969c-1.6607 0-3.0312 1.3705-3.0312 3.0312v26c0 1.6607 1.3705 3.0312 3.0312 3.0312h66c1.6607 0 3.0312-1.3705 3.0312-3.0312v-26c0-1.6607-1.3705-3.0312-3.0312-3.0312h-66z" transform="translate(0,1)"/>
  <path id="path3862" style="opacity:.1;color:#000000;fill:url(#linearGradient3864)" d="m15 11.969c-1.6607 0-3.0312 1.3705-3.0312 3.0312v26c0 1.6607 1.3705 3.0312 3.0312 3.0312h66c1.6607 0 3.0312-1.3705 3.0312-3.0312v-26c0-1.6607-1.3705-3.0312-3.0312-3.0312h-66z"/>
  <path id="path3846" style="opacity:.5;color:#000000;fill:url(#linearGradient3856)" d="m15 12.969c-1.1012 0-2.0312 0.93006-2.0312 2.0312v26c0 1.1012 0.93006 2.0312 2.0312 2.0312h66c1.1012 0 2.0312-0.93006 2.0312-2.0312v-26c0-1.1012-0.93006-2.0312-2.0312-2.0312h-66z"/>
  <rect id="rect3830" style="color:#000000;fill:url(#linearGradient3840)" rx="1" ry="1" height="28" width="68" y="14" x="14"/>
  <path id="path3923" style="opacity:.05;color:#000000;fill:url(#linearGradient3925)" d="m15 46.969c-1.6607 0-3.0312 1.3705-3.0312 3.0312v28c0 1.6607 1.3705 3.0312 3.0312 3.0312h66c1.6607 0 3.0312-1.3705 3.0312-3.0312v-28c0-1.6607-1.3705-3.0312-3.0312-3.0312z"/>
  <path id="path3918" style="opacity:.1;color:#000000;fill:url(#linearGradient3931)" d="m15 45.969c-1.6607 0-3.0312 1.3705-3.0312 3.0312v28c0 1.6607 1.3705 3.0312 3.0312 3.0312h66c1.6607 0 3.0312-1.3705 3.0312-3.0312v-28c0-1.6607-1.3705-3.0312-3.0312-3.0312z"/>
  <path id="path3913" style="opacity:.5;color:#000000;fill:url(#linearGradient3915)" d="m15 46.969c-1.1012 0-2.0312 0.93006-2.0312 2.0312v28c0 1.1012 0.93006 2.0312 2.0312 2.0312h66c1.1012 0 2.0312-0.93006 2.0312-2.0312v-28c0-1.1012-0.93006-2.0312-2.0312-2.0312z"/>
  <rect id="rect3832" style="color:#000000;fill:url(#linearGradient3872)" rx="1" ry="1" height="30" width="68" y="48" x="14"/>
  <path id="rect3892" style="opacity:.7;color:#000000;fill:url(#linearGradient3911)" d="m15 14c-0.554 0-1 0.446-1 1v26c0 0.554 0.446 1 1 1h66c0.554 0 1-0.446 1-1v-26c0-0.554-0.446-1-1-1zm0 0.90625h66c0.06312 0 0.09375 0.03063 0.09375 0.09375v26c0 0.06312-0.03063 0.09375-0.09375 0.09375h-66c-0.06312 0-0.09375-0.03063-0.09375-0.09375v-26c0-0.06312 0.03063-0.09375 0.09375-0.09375z"/>
  <path id="path3927" style="opacity:.7;color:#000000;fill:url(#linearGradient3929)" d="m15 48c-0.554 0-1 0.446-1 1v28c0 0.554 0.446 1 1 1h66c0.554 0 1-0.446 1-1v-28c0-0.554-0.446-1-1-1zm0 0.90625h66c0.06312 0 0.09375 0.03063 0.09375 0.09375v28c0 0.06312-0.03063 0.09375-0.09375 0.09375h-66c-0.06312 0-0.09375-0.03063-0.09375-0.09375v-28c0-0.06312 0.03063-0.09375 0.09375-0.09375z"/>
  <path id="path3873" style="opacity:.25;stroke-linejoin:round;filter:url(#filter4020);stroke:url(#linearGradient3875);stroke-width:3;fill:none" d="m38 63 2 7h20l-2-6.9282"/>
  <g id="g4054" style="opacity:.2;filter:url(#filter4078)" transform="translate(0,5)">
   <path id="path4046" style="color:#000000;fill:url(#linearGradient4094)" d="m37 21.969c-1.1143 0-2.0312 0.91693-2.0312 2.0312v1 1 2 1c0 1.1143 0.91693 2.0312 2.0312 2.0312h22c1.1143 0 2.0312-0.91693 2.0312-2.0312v-1-2-1-1c0-1.1143-0.91693-2.0312-2.0312-2.0312h-2c-1.1143 0-2.0312 0.91693-2.0312 2.0312v0.96875h-0.96875-12.969v-0.96875c0-1.1143-0.91693-2.0312-2.0312-2.0312h-2z" transform="matrix(1,0,0,-1,0,45)"/>
   <path id="path4048" style="color:#000000;fill:url(#linearGradient4096)" d="m37 22c-0.554 0-1-0.446-1-1v-1-1-2-1c0-0.554 0.446-1 1-1h22c0.554 0 1 0.446 1 1v1 2 1 1c0 0.554-0.446 1-1 1h-2c-0.554 0-1-0.446-1-1v-1c0-0.554-0.446-1-1-1h-1-13c-0.554 0-1 0.446-1 1v1c0 0.554-0.446 1-1 1h-2z"/>
  </g>
  <path id="path4006" style="opacity:.25;stroke-linejoin:round;filter:url(#filter4020);stroke:url(#linearGradient3871);stroke-width:3;fill:none" d="m38 29 2 7h20l-2-6.9282"/>
  <path id="path3994" style="color:#000000;fill:url(#linearGradient4098)" d="m37 21.969c-1.1143 0-2.0312 0.91693-2.0312 2.0312v1 1 2 1c0 1.1143 0.91693 2.0312 2.0312 2.0312h22c1.1143 0 2.0312-0.91693 2.0312-2.0312v-1-2-1-1c0-1.1143-0.91693-2.0312-2.0312-2.0312h-2c-1.1143 0-2.0312 0.91693-2.0312 2.0312v0.96875h-0.96875-12.969v-0.96875c0-1.1143-0.91693-2.0312-2.0312-2.0312h-2z" transform="translate(0,2)"/>
  <path id="rect3934" style="color:#000000;fill:url(#linearGradient3955)" d="m37 25c-0.554 0-1 0.446-1 1v1 1 2 1c0 0.554 0.446 1 1 1h22c0.554 0 1-0.446 1-1v-1-2-1-1c0-0.554-0.446-1-1-1h-2c-0.554 0-1 0.446-1 1v1c0 0.554-0.446 1-1 1h-1-13c-0.554 0-1-0.446-1-1v-1c0-0.554-0.446-1-1-1h-2z"/>
  <g id="g4082" style="opacity:.2;filter:url(#filter4078)" transform="translate(0,39)">
   <path id="path4084" style="color:#000000;fill:url(#linearGradient4094)" d="m37 21.969c-1.1143 0-2.0312 0.91693-2.0312 2.0312v1 1 2 1c0 1.1143 0.91693 2.0312 2.0312 2.0312h22c1.1143 0 2.0312-0.91693 2.0312-2.0312v-1-2-1-1c0-1.1143-0.91693-2.0312-2.0312-2.0312h-2c-1.1143 0-2.0312 0.91693-2.0312 2.0312v0.96875h-0.96875-12.969v-0.96875c0-1.1143-0.91693-2.0312-2.0312-2.0312h-2z" transform="matrix(1,0,0,-1,0,45)"/>
   <path id="path4086" style="color:#000000;fill:url(#linearGradient4096)" d="m37 22c-0.554 0-1-0.446-1-1v-1-1-2-1c0-0.554 0.446-1 1-1h22c0.554 0 1 0.446 1 1v1 2 1 1c0 0.554-0.446 1-1 1h-2c-0.554 0-1-0.446-1-1v-1c0-0.554-0.446-1-1-1h-1-13c-0.554 0-1 0.446-1 1v1c0 0.554-0.446 1-1 1h-2z"/>
  </g>
  <path id="path4090" style="color:#000000;fill:url(#linearGradient4098)" d="m37 21.969c-1.1143 0-2.0312 0.91693-2.0312 2.0312v1 1 2 1c0 1.1143 0.91693 2.0312 2.0312 2.0312h22c1.1143 0 2.0312-0.91693 2.0312-2.0312v-1-2-1-1c0-1.1143-0.91693-2.0312-2.0312-2.0312h-2c-1.1143 0-2.0312 0.91693-2.0312 2.0312v0.96875h-0.96875-12.969v-0.96875c0-1.1143-0.91693-2.0312-2.0312-2.0312h-2z" transform="translate(0,36)"/>
  <path id="path4092" style="color:#000000;fill:url(#linearGradient4100)" d="m37 59c-0.554 0-1 0.446-1 1v1 1 2 1c0 0.554 0.446 1 1 1h22c0.554 0 1-0.446 1-1v-1-2-1-1c0-0.554-0.446-1-1-1h-2c-0.554 0-1 0.446-1 1v1c0 0.554-0.446 1-1 1h-1-13c-0.554 0-1-0.446-1-1v-1c0-0.554-0.446-1-1-1h-2z"/>
  <path id="rect4359" style="opacity:.2;fill:url(#radialGradient4375)" d="m120.78 6.125c-2.74 0.5576-4.78 2.9665-4.78 5.875v68c0 3.324 2.676 6 6 6h72c3.324 0 6-2.676 6-6v-68c0-2.9085-2.0422-5.3174-4.7812-5.875 2.2051 0.53621 3.8125 2.4908 3.8125 4.875v68c0 2.8049-2.2264 5.0312-5.0312 5.0312h-72c-2.8049 0-5.0312-2.2264-5.0312-5.0312v-68c0-2.3842 1.6074-4.3388 3.8125-4.875z"/>
  <path id="rect4377" style="opacity:.4;fill:url(#linearGradient4390)" d="m12 86c-3.324 0-6-2.676-6-6v-68c0-3.324 2.676-6 6-6h72c3.324 0 6 2.676 6 6v68c0 3.324-2.676 6-6 6zm0-0.96875h72c2.8049 0 5.0312-2.2264 5.0312-5.0312v-68c0-2.8049-2.226-5.0312-5.031-5.0312h-72c-2.8049 0-5.0312 2.2263-5.0312 5.0312v68c0 2.8049 2.2264 5.0312 5.0312 5.0312z"/>
  <path id="rect4414" style="opacity:.1;fill:url(#linearGradient4429)" d="m6 78v2c0 3.324 2.676 6 6 6h72c3.324 0 6-2.676 6-6v-2c0 3.324-2.676 6-6 6h-72c-3.324 0-6-2.676-6-6z"/>
  <path id="path4412" style="opacity:.15" d="m6 100v1c0 3.324 2.676 6 6 6h72c3.324 0 6-2.676 6-6v-1c0 3.324-2.676 6-6 6h-72c-3.324 0-6-2.676-6-6z"/>
 </g>
 <g id="layer4">
  <path id="path3888" style="fill:url(#linearGradient3228)" d="m6 80v4c0 3.324 2.676 6 6 6h72c3.324 0 6-2.676 6-6v-4c0 3.324-2.676 6-6 6h-72c-3.324 0-6-2.676-6-6z"/>
  <path id="rect4345" style="opacity:.1;color:#000000" d="m6 82v2c0 3.324 2.676 6 6 6h72c3.324 0 6-2.676 6-6v-2c0 3.324-2.676 6-6 6h-72c-3.324 0-6-2.676-6-6z"/>
  <path id="rect4336" style="opacity:.15;color:#000000" d="m6 83v1c0 3.324 2.676 6 6 6h72c3.324 0 6-2.676 6-6v-1c0 3.324-2.676 6-6 6h-72c-3.324 0-6-2.676-6-6z"/>
 </g>
 <g id="layer5" style="display:none">
  <rect id="rect3171" style="opacity:.1;filter:url(#filter3794);stroke:#fff;stroke-linecap:round;stroke-width:.5;fill:url(#linearGradient3613)" clip-path="url(#clipPath4355)" rx="12" ry="12" height="62" width="66" y="15" x="15"/>
 </g>
</svg>
