<?xml version="1.0" encoding="UTF-8" standalone="no"?>
<!-- Created with Inkscape (http://www.inkscape.org/) -->
<svg id="svg2408" xmlns:rdf="http://www.w3.org/1999/02/22-rdf-syntax-ns#" xmlns="http://www.w3.org/2000/svg" height="96" width="96" version="1.0" xmlns:cc="http://creativecommons.org/ns#" xmlns:xlink="http://www.w3.org/1999/xlink" xmlns:dc="http://purl.org/dc/elements/1.1/">
 <defs id="defs2410">
  <linearGradient id="ButtonShadow" y2="7.0165" gradientUnits="userSpaceOnUse" x2="45.448" gradientTransform="matrix(1.0059 0 0 .99417 100 0)" y1="92.54" x1="45.448">
   <stop id="stop3750" offset="0"/>
   <stop id="stop3752" style="stop-opacity:.58824" offset="1"/>
  </linearGradient>
  <linearGradient id="linearGradient3737">
   <stop id="stop3739" style="stop-color:#fff" offset="0"/>
   <stop id="stop3741" style="stop-color:#fff;stop-opacity:0" offset="1"/>
  </linearGradient>
  <filter id="filter3174" color-interpolation-filters="sRGB">
   <feGaussianBlur id="feGaussianBlur3176" stdDeviation="1.71"/>
  </filter>
  <filter id="filter3794" height="1.384" width="1.384" color-interpolation-filters="sRGB" y="-.192" x="-.192">
   <feGaussianBlur id="feGaussianBlur3796" stdDeviation="5.28"/>
  </filter>
  <linearGradient id="linearGradient3613" y2="138.66" xlink:href="#linearGradient3737" gradientUnits="userSpaceOnUse" x2="48" y1="20.221" x1="48"/>
  <clipPath id="clipPath3613">
   <rect id="rect3615" style="fill:#fff" rx="6" ry="6" height="84" width="84" y="6" x="6"/>
  </clipPath>
  <linearGradient id="linearGradient3721" y2="90.239" xlink:href="#ButtonShadow" gradientUnits="userSpaceOnUse" x2="32.251" gradientTransform="translate(0,-97)" y1="6.1317" x1="32.251"/>
  <linearGradient id="linearGradient3725" y2="90.239" xlink:href="#ButtonShadow" gradientUnits="userSpaceOnUse" x2="32.251" gradientTransform="matrix(1.0238 0 0 1.0119 -1.1429 -98.071)" y1="6.1317" x1="32.251"/>
  <linearGradient id="linearGradient2762">
   <stop id="stop2764" style="stop-color:#ffd000" offset="0"/>
   <stop id="stop2766" style="stop-color:#f00;stop-opacity:.616" offset="1"/>
  </linearGradient>
  <radialGradient id="radialGradient4280" xlink:href="#linearGradient3737" gradientUnits="userSpaceOnUse" cy="90.172" cx="48" gradientTransform="matrix(1.1573 0 0 .99591 -7.551 .19713)" r="42"/>
  <linearGradient id="linearGradient4283" y2="63.893" xlink:href="#linearGradient3737" gradientUnits="userSpaceOnUse" x2="36.357" y1="6" x1="36.357"/>
  <radialGradient id="radialGradient4286" xlink:href="#linearGradient2762" gradientUnits="userSpaceOnUse" cy="198.45" cx="431.68" gradientTransform="matrix(6.9373 -.10650 .0013689 .089163 -2585.8 73.936)" r="340.46"/>
  <radialGradient id="radialGradient4288" xlink:href="#linearGradient2762" gradientUnits="userSpaceOnUse" cy="146.9" cx="69.48" gradientTransform="matrix(.99677 -.017104 .023910 1.3934 -24.728 -155.34)" r="24.516"/>
  <linearGradient id="linearGradient4292" y2="-4.9623" gradientUnits="userSpaceOnUse" x2="48" gradientTransform="translate(0,-96)" y1="98.89" x1="48">
   <stop id="stop4342" style="stop-color:#1f1f1f" offset="0"/>
   <stop id="stop4344" style="stop-color:#545454" offset="1"/>
  </linearGradient>
 </defs>
 <metadata id="metadata2413">
  <rdf:RDF>
   <cc:Work rdf:about="">
    <dc:format>image/svg+xml</dc:format>
    <dc:type rdf:resource="http://purl.org/dc/dcmitype/StillImage"/>
    <dc:title/>
   </cc:Work>
  </rdf:RDF>
 </metadata>
 <path id="path4346" style="stroke:#eeeeec;stroke-width:1.4954;fill:#eeeeec" d="m64.464 32.899c-0.31958 0.44379-0.98755 1.0104-2.0039 1.6997-0.55922 0.0973-1.45-0.06273-2.6723-0.48004-0.7079-0.39684-1.2183-1.5421-1.5312-3.4359-0.21148-1.4279-1.3926-2.1673-3.5434-2.2181-0.83654 0.27736-2.1177 0.51847-3.8434 0.72333-1.8293-0.37759-3.8429-0.60598-6.0409-0.68519-2.3849-0.07588-3.8776 0.09581-4.478 0.51509-1.4309 1.0472-2.0245 1.8608-1.7809 2.4409 0.33909 0.69544 0.7656 1.0387 1.2796 1.0298 0.2336-0.0041 0.48857-0.1252 0.76492-0.36373-0.12816 0.70345-0.73787 1.941-1.8292 3.7127-0.95565 1.5065-1.3307 2.7985-1.1253 3.8759 0.09895 0.31972 0.45664 0.73723 1.0731 1.2525 1.8624-0.41174 3.343-1.2844 4.4419-2.6181 0.36375-0.59052 0.7054-1.1077 1.025-1.5515-0.22412 0.559-0.56577 1.0762-1.025 1.5515-2.5906 4.2809-3.8194 7.5743-3.6863 9.8801 0.05973 0.75865 0.86482 1.373 2.4152 1.843 3.1305-0.05367 5.0622-0.51047 5.7953-1.3704 0.27532-0.29685 1.2051-1.9489 2.7893-4.9563 1.0878-1.9761 2.6048-3.4484 4.5512-4.4168-0.45975 0.44619-0.93782 1.1848-1.4342 2.2159-0.13569 0.26532-0.20126 0.52939-0.19672 0.79222 0.0069 0.40896 0.24963 0.93069 0.72792 1.5652 0.57318 0.72061 0.90926 1.2407 1.0083 1.5604 0.05772 0.64181-0.02852 2.4255-0.25871 5.3511-0.19657 2.1654 0.02063 3.9293 0.65165 5.2916 0.63293 1.4792-0.02852 2.4255-1.9844 2.8388-1.2616 0.02169-2.2458-0.13673-2.9526-0.47522-1.5725-1.7552-2.5011-2.7619-2.786-3.02-1.374-1.0866-2.9491-1.6293-4.725-1.6281-1.8645 0.29498-2.7844 1.158-2.7598 2.5892 0.0041 0.2337 0.03375 0.6057 0.0893 1.116 0.05547 0.51037 0.08521 0.88236 0.08923 1.116 0.0095 0.55497-0.07619 1.0093-0.25703 1.363-0.54315 1.0319-0.73011 2.3937-0.56085 4.0853 0.15469 0.84465 0.60583 1.2606 1.3534 1.2477 0.28032-0.0049 0.60613-0.08341 0.97743-0.2359 0.06374 0.99229-0.14656 2.3545-0.63093 4.0866-0.48241 1.8489-0.71634 3.1969-0.70178 4.0439 0.014 0.81784 0.16747 1.5894 0.46035 2.3148 0.24413 0.60938 0.92389 0.72919 2.0393 0.35944 0.78726-0.42253 1.2753-1.2636 1.464-2.5232 0.18869-1.2595 0.72341-2.1014 1.6042-2.5255-0.13569 0.2653-0.20076 0.55857-0.19522 0.87985 0.0096 0.55496 0.31869 1.5503 0.92757 2.9861 0.60882 1.4358 0.91977 2.5334 0.93282 3.2928 0.01701 0.99309-0.31862 1.8607-1.0069 2.603-0.7848 0.56858-1.924 0.90951-3.4177 1.0228-1.4007 0.08246-2.6182-0.05003-3.6523-0.39748-1.0342-0.34746-2.4395-0.53516-4.216-0.56313-1.4494-0.03356-2.8986-0.0525-4.3476-0.05687-1.1711-0.1552-2.342-0.29579-3.5126-0.42179-1.3595-0.23962-2.2088-0.70713-2.5479-1.4025-0.24113-0.4341-0.36646-0.92862-0.37599-1.4836-0.01003-0.58415 0.16134-1.4928 0.51408-2.726 0.35274-1.2331 0.52385-2.1564 0.51332-2.7698-0.01256-0.7302-0.2107-1.3842-0.59452-1.9619 0.86157 1.1831 1.805 3.0514 2.8303 5.6049 0.7586 0.62975 1.4378 0.72035 2.0377 0.2718 0.82247-1.0951 1.4115-2.8582 1.767-5.2893 0.35554-2.4311 0.87498-4.1638 1.5583-5.1981 0.0849-0.49812 0.12286-1.0101 0.11384-1.5358-0.02558-1.4896-0.5309-3.7014-1.516-6.6354-0.9851-2.9339-1.4904-5.1457-1.516-6.6354-0.02606-1.5188 0.30006-2.9414 0.97836-4.2678-0.23976 2.3707 0.41532 3.7765 1.9652 4.2173l0.76116-0.58278c0.02527-3.9739-0.65736-6.9861-2.0479-9.0366-1.1992-1.7908-1.8-2.7593-1.8025-2.9053-0.01255-0.73016 0.72678-1.2249 2.2179-1.4843 0.13516-0.29444 0.20048-0.57312 0.19598-0.83604-0.01103-0.64253-0.5144-1.3789-1.5101-2.2092-1.3283-1.1458-2.0882-1.8486-2.2796-2.1083-2.0834-1.5711-3.1431-3.4082-3.1792-5.5112-0.01298-0.75935 0.11361-1.5504 0.37991-2.3731 0.17738-0.5581 0.77226-1.2987 1.7846-2.2219 1.48-1.0297 2.2188-2.1686 2.8096-3.7733-0.67138 2.5212-1.5968 4.9665 0.1263 7.3604 1.6564 1.1987 4.0908 1.4345 7.3032 0.70736 1.6293-0.3785 3.5784-1.1862 5.8473-2.4231 3.0095-1.6585 4.8159-2.6098 5.4193-2.854-1.6655 0.99279-2.4913 1.8981-2.4772 2.7158 0.0041 0.23372 0.07782 0.45158 0.22153 0.65357 1.2781 0.94228 2.9917 1.3949 5.1411 1.358 1.2148-0.02079 2.3565-0.21567 3.4252-0.58468 2.3231-0.79943 4.9598-2.3932 7.9101-4.7812 3.226-2.6556 5.6969-4.3779 7.4127-5.1671l-6.6921 18.565zm-0.72608-9.629c-0.006-0.35044-0.33612-0.52007-0.99022-0.5089-0.70089 0.01214-1.2111 0.23996-1.5306 0.68364-0.46277 0.27094-0.48011 0.62184-0.05209 1.0527 0.60888 0.07727 1.1915-0.01311 1.748-0.27104 0.55638-0.25783 0.83134-0.57662 0.82486-0.95639zm-2.2241 5.2095c-0.000544-0.02914-0.28314-0.15577-0.84779-0.37987-0.41955 0.06569-0.62404 0.40519-0.61348 1.0185 0.0502 0.20371 0.40238 0.29992 1.0565 0.28865 0.36925-0.26923 0.50415-0.57832 0.40473-0.92728zm-16.256-3.578c-0.28287-0.14117-0.51699-0.16636-0.70236-0.07558-0.18491 0.12009-0.22889 0.28154-0.13191 0.48434 0.37327-0.03556 0.65135-0.17182 0.83426-0.40875zm-12.409 4.0695c-0.3346-0.43245-0.8282-0.59928-1.4808-0.50048-0.46523 0.1249-0.69184 0.53782-0.6798 1.2388 0.14418 0.23131 0.31146 0.44756 0.50188 0.64876 0.23862 0.28813 0.59081 0.38434 1.0565 0.28865 0.27833-0.12159 0.47906-0.68015 0.60221-1.6757zm16.975 25.04c-0.006-0.35046-0.4057-0.48968-1.199-0.41768-0.04628 0.03003 0.0276 0.24791 0.22154 0.65358 0.51945 0.3125 0.84526 0.23386 0.97745-0.2359zm-9.8981 23.748c-0.09847-0.29047-0.38258-0.50472-0.8523-0.64277-0.13718 0.17767-0.11043 0.37442 0.08019 0.59027 0.19065 0.21586 0.448 0.23336 0.77207 0.0525zm-6.6061-0.93845c-0.42502-0.25564-0.7772-0.35186-1.0565-0.28864-0.000015 0.000008-0.25223 0.2819-0.75666 0.84566 0.1929 0.3473 0.63903 0.47112 1.3384 0.37145 0.41649-0.24087 0.57476-0.55036 0.4748-0.92847z"/>
 <g id="layer2" style="display:none">
  <rect id="rect3745" style="opacity:.9;filter:url(#filter3174);fill:url(#ButtonShadow)" rx="6" ry="6" height="85" width="86" y="7" x="105"/>
 </g>
 <g id="layer3">
  <path id="path3786" style="opacity:0.08;fill:url(#linearGradient3725)" d="m12-95.031c-5.5111 0-10.031 4.5202-10.031 10.031v71c0 5.5111 4.5202 10.031 10.031 10.031h72c5.5111 0 10.031-4.5202 10.031-10.031v-71c0-5.5111-4.5202-10.031-10.031-10.031h-72z" transform="scale(1,-1)"/>
  <path id="path3778" style="opacity:.1;fill:url(#linearGradient3725)" d="m12-94.031c-4.9716 0-9.0312 4.0596-9.0312 9.0312v71c0 4.9716 4.0596 9.0312 9.0312 9.0312h72c4.9716 0 9.0312-4.0596 9.0312-9.0312v-71c0-4.9716-4.0596-9.0312-9.0312-9.0312h-72z" transform="scale(1,-1)"/>
  <path id="path3770" style="opacity:.2;fill:url(#linearGradient3725)" d="m12-93c-4.4091 0-8 3.5909-8 8v71c0 4.4091 3.5909 8 8 8h72c4.4091 0 8-3.5909 8-8v-71c0-4.4091-3.5909-8-8-8h-72z" transform="scale(1,-1)"/>
  <rect id="rect3723" style="opacity:.3;fill:url(#linearGradient3725)" transform="scale(1,-1)" rx="7" ry="7" height="85" width="86" y="-92" x="5"/>
  <rect id="rect3716" style="opacity:.45;fill:url(#linearGradient3721)" transform="scale(1,-1)" rx="6" ry="6" height="84" width="84" y="-91" x="6"/>
 </g>
 <rect id="rect2419" style="fill:url(#linearGradient4292)" rx="6" ry="6" transform="scale(1,-1)" width="84" y="-90" x="6" height="84"/>
 <path id="path3852" d="m64.464 32.899c-0.31958 0.44379-0.98755 1.0104-2.0039 1.6997-0.55922 0.0973-1.45-0.06273-2.6723-0.48004-0.7079-0.39684-1.2183-1.5421-1.5312-3.4359-0.21148-1.4279-1.3926-2.1673-3.5434-2.2181-0.83654 0.27736-2.1177 0.51847-3.8434 0.72333-1.8293-0.37759-3.8429-0.60598-6.0409-0.68519-2.3849-0.07588-3.8776 0.09581-4.478 0.51509-1.4309 1.0472-2.0245 1.8608-1.7809 2.4409 0.33909 0.69544 0.7656 1.0387 1.2796 1.0298 0.2336-0.0041 0.48857-0.1252 0.76492-0.36373-0.12816 0.70345-0.73787 1.941-1.8292 3.7127-0.95565 1.5065-1.3307 2.7985-1.1253 3.8759 0.09895 0.31972 0.45664 0.73723 1.0731 1.2525 1.8624-0.41174 3.343-1.2844 4.4419-2.6181 0.36375-0.59052 0.7054-1.1077 1.025-1.5515-0.22412 0.559-0.56577 1.0762-1.025 1.5515-2.5906 4.2809-3.8194 7.5743-3.6863 9.8801 0.05973 0.75865 0.86482 1.373 2.4152 1.843 3.1305-0.05367 5.0622-0.51047 5.7953-1.3704 0.27532-0.29685 1.2051-1.9489 2.7893-4.9563 1.0878-1.9761 2.6048-3.4484 4.5512-4.4168-0.45975 0.44619-0.93782 1.1848-1.4342 2.2159-0.13569 0.26532-0.20126 0.52939-0.19672 0.79222 0.0069 0.40896 0.24963 0.93069 0.72792 1.5652 0.57318 0.72061 0.90926 1.2407 1.0083 1.5604 0.05772 0.64181-0.02852 2.4255-0.25871 5.3511-0.19657 2.1654 0.02063 3.9293 0.65165 5.2916 0.63293 1.4792-0.02852 2.4255-1.9844 2.8388-1.2616 0.02169-2.2458-0.13673-2.9526-0.47522-1.5725-1.7552-2.5011-2.7619-2.786-3.02-1.374-1.0866-2.9491-1.6293-4.725-1.6281-1.8645 0.29498-2.7844 1.158-2.7598 2.5892 0.0041 0.2337 0.03375 0.6057 0.0893 1.116 0.05547 0.51037 0.08521 0.88236 0.08923 1.116 0.0095 0.55497-0.07619 1.0093-0.25703 1.363-0.54315 1.0319-0.73011 2.3937-0.56085 4.0853 0.15469 0.84465 0.60583 1.2606 1.3534 1.2477 0.28032-0.0049 0.60613-0.08341 0.97743-0.2359 0.06374 0.99229-0.14656 2.3545-0.63093 4.0866-0.48241 1.8489-0.71634 3.1969-0.70178 4.0439 0.014 0.81784 0.16747 1.5894 0.46035 2.3148 0.24413 0.60938 0.92389 0.72919 2.0393 0.35944 0.78726-0.42253 1.2753-1.2636 1.464-2.5232 0.18869-1.2595 0.72341-2.1014 1.6042-2.5255-0.13569 0.2653-0.20076 0.55857-0.19522 0.87985 0.0096 0.55496 0.31869 1.5503 0.92757 2.9861 0.60882 1.4358 0.91977 2.5334 0.93282 3.2928 0.01701 0.99309-0.31862 1.8607-1.0069 2.603-0.7848 0.56858-1.924 0.90951-3.4177 1.0228-1.4007 0.08246-2.6182-0.05003-3.6523-0.39748-1.0342-0.34746-2.4395-0.53516-4.216-0.56313-1.4494-0.03356-2.8986-0.0525-4.3476-0.05687-1.1711-0.1552-2.342-0.29579-3.5126-0.42179-1.3595-0.23962-2.2088-0.70713-2.5479-1.4025-0.24113-0.4341-0.36646-0.92862-0.37599-1.4836-0.01003-0.58415 0.16134-1.4928 0.51408-2.726 0.35274-1.2331 0.52385-2.1564 0.51332-2.7698-0.01256-0.7302-0.2107-1.3842-0.59452-1.9619 0.86157 1.1831 1.805 3.0514 2.8303 5.6049 0.7586 0.62975 1.4378 0.72035 2.0377 0.2718 0.82247-1.0951 1.4115-2.8582 1.767-5.2893 0.35554-2.4311 0.87498-4.1638 1.5583-5.1981 0.0849-0.49812 0.12286-1.0101 0.11384-1.5358-0.02558-1.4896-0.5309-3.7014-1.516-6.6354-0.9851-2.9339-1.4904-5.1457-1.516-6.6354-0.02606-1.5188 0.30006-2.9414 0.97836-4.2678-0.23976 2.3707 0.41532 3.7765 1.9652 4.2173l0.76116-0.58278c0.02527-3.9739-0.65736-6.9861-2.0479-9.0366-1.1992-1.7908-1.8-2.7593-1.8025-2.9053-0.01255-0.73016 0.72678-1.2249 2.2179-1.4843 0.13516-0.29444 0.20048-0.57312 0.19598-0.83604-0.01103-0.64253-0.5144-1.3789-1.5101-2.2092-1.3283-1.1458-2.0882-1.8486-2.2796-2.1083-2.0834-1.5711-3.1431-3.4082-3.1792-5.5112-0.01298-0.75935 0.11361-1.5504 0.37991-2.3731 0.17738-0.5581 0.77226-1.2987 1.7846-2.2219 1.48-1.0297 2.2188-2.1686 2.8096-3.7733-0.67138 2.5212-1.5968 4.9665 0.1263 7.3604 1.6564 1.1987 4.0908 1.4345 7.3032 0.70736 1.6293-0.3785 3.5784-1.1862 5.8473-2.4231 3.0095-1.6585 4.8159-2.6098 5.4193-2.854-1.6655 0.99279-2.4913 1.8981-2.4772 2.7158 0.0041 0.23372 0.07782 0.45158 0.22153 0.65357 1.2781 0.94228 2.9917 1.3949 5.1411 1.358 1.2148-0.02079 2.3565-0.21567 3.4252-0.58468 2.3231-0.79943 4.9598-2.3932 7.9101-4.7812 3.226-2.6556 5.6969-4.3779 7.4127-5.1671l-6.6921 18.565zm-0.72608-9.629c-0.006-0.35044-0.33612-0.52007-0.99022-0.5089-0.70089 0.01214-1.2111 0.23996-1.5306 0.68364-0.46277 0.27094-0.48011 0.62184-0.05209 1.0527 0.60888 0.07727 1.1915-0.01311 1.748-0.27104 0.55638-0.25783 0.83134-0.57662 0.82486-0.95639zm-2.2241 5.2095c-0.000544-0.02914-0.28314-0.15577-0.84779-0.37987-0.41955 0.06569-0.62404 0.40519-0.61348 1.0185 0.0502 0.20371 0.40238 0.29992 1.0565 0.28865 0.36925-0.26923 0.50415-0.57832 0.40473-0.92728zm-16.256-3.578c-0.28287-0.14117-0.51699-0.16636-0.70236-0.07558-0.18491 0.12009-0.22889 0.28154-0.13191 0.48434 0.37327-0.03556 0.65135-0.17182 0.83426-0.40875zm-12.409 4.0695c-0.3346-0.43245-0.8282-0.59928-1.4808-0.50048-0.46523 0.1249-0.69184 0.53782-0.6798 1.2388 0.14418 0.23131 0.31146 0.44756 0.50188 0.64876 0.23862 0.28813 0.59081 0.38434 1.0565 0.28865 0.27833-0.12159 0.47906-0.68015 0.60221-1.6757zm16.975 25.04c-0.006-0.35046-0.4057-0.48968-1.199-0.41768-0.04628 0.03003 0.0276 0.24791 0.22154 0.65358 0.51945 0.3125 0.84526 0.23386 0.97745-0.2359zm-9.8981 23.748c-0.09847-0.29047-0.38258-0.50472-0.8523-0.64277-0.13718 0.17767-0.11043 0.37442 0.08019 0.59027 0.19065 0.21586 0.448 0.23336 0.77207 0.0525zm-6.6061-0.93845c-0.42502-0.25564-0.7772-0.35186-1.0565-0.28864-0.000015 0.000008-0.25223 0.2819-0.75666 0.84566 0.1929 0.3473 0.63903 0.47112 1.3384 0.37145 0.41649-0.24087 0.57476-0.55036 0.4748-0.92847z" style="stroke:url(#radialGradient4288);stroke-width:1.4954;fill:url(#radialGradient4286)"/>
 <path id="rect3728" d="m12 6c-3.324 0-6 2.676-6 6v2 68 2c0 0.33472 0.04135 0.6507 0.09375 0.96875 0.0487 0.2956 0.09704 0.59692 0.1875 0.875 0.00988 0.03038 0.020892 0.0636 0.03125 0.09375 0.098865 0.28777 0.23488 0.54745 0.375 0.8125 0.14459 0.27351 0.31562 0.53562 0.5 0.78125 0.18438 0.24564 0.37378 0.47347 0.59375 0.6875 0.43995 0.42806 0.94291 0.81453 1.5 1.0938 0.27854 0.13961 0.57347 0.24695 0.875 0.34375-0.2562-0.10022-0.48671-0.23627-0.71875-0.375-0.00741-0.0044-0.023866 0.0045-0.03125 0-0.031933-0.0193-0.062293-0.04251-0.09375-0.0625-0.1204-0.0767-0.23102-0.16351-0.34375-0.25-0.10617-0.0808-0.21328-0.16111-0.3125-0.25-0.1778-0.162-0.3473-0.346-0.4999-0.531-0.1075-0.131-0.2183-0.266-0.3124-0.407-0.0251-0.038-0.0385-0.086-0.0626-0.125-0.0647-0.103-0.1302-0.204-0.1874-0.312-0.1011-0.195-0.2057-0.416-0.2813-0.625-0.008-0.022-0.0236-0.041-0.0313-0.063-0.0318-0.092-0.0358-0.187-0.0624-0.281-0.0304-0.107-0.0704-0.203-0.0938-0.313-0.0729-0.341-0.125-0.698-0.125-1.062v-2-68-2c0-2.782 2.2182-5 5-5h2 68 2c2.7818 0 5 2.2182 5 5v2 68 2c0 0.3643-0.05212 0.72099-0.125 1.0625-0.04415 0.20689-0.08838 0.39766-0.15625 0.59375-0.0077 0.02195-0.0233 0.04069-0.03125 0.0625-0.06274 0.17374-0.13838 0.36745-0.21875 0.53125-0.04158 0.0828-0.07904 0.16995-0.125 0.25-0.0546 0.09721-0.12677 0.18835-0.1875 0.28125-0.09411 0.14096-0.20492 0.276-0.3125 0.40625-0.14317 0.17445-0.30314 0.347-0.46875 0.5-0.01117 0.0102-0.01998 0.02115-0.03125 0.03125-0.13839 0.12556-0.28509 0.23444-0.4375 0.34375-0.10257 0.07315-0.20432 0.15336-0.3125 0.21875-0.0074 0.0045-0.02384-0.0044-0.03125 0-0.23204 0.13873-0.46255 0.27478-0.71875 0.375 0.30153-0.0968 0.59646-0.20414 0.875-0.34375 0.55709-0.27922 1.0601-0.66569 1.5-1.0938 0.21997-0.21403 0.40937-0.44186 0.59375-0.6875s0.35541-0.50774 0.5-0.78125c0.14012-0.26505 0.27614-0.52473 0.375-0.8125 0.01041-0.03078 0.02133-0.06274 0.03125-0.09375 0.09046-0.27808 0.1388-0.5794 0.1875-0.875 0.053-0.318 0.094-0.634 0.094-0.969v-2-68-2c0-3.324-2.676-6-6-6h-72z" style="opacity:.4;fill:url(#linearGradient4283)"/>
 <path id="path3615" d="m12 90c-3.324 0-6-2.676-6-6v-2-68-2c0-0.33472 0.04135-0.6507 0.09375-0.96875 0.0487-0.2956 0.09704-0.59692 0.1875-0.875 0.0099-0.03 0.0209-0.063 0.0313-0.094 0.0989-0.2873 0.2349-0.547 0.375-0.812 0.1446-0.2735 0.3156-0.5356 0.5-0.7812 0.1844-0.2457 0.3738-0.4735 0.5937-0.6876 0.44-0.428 0.943-0.8145 1.5-1.0937 0.2786-0.1396 0.5735-0.2469 0.8748-0.3437-0.256 0.1002-0.4865 0.2362-0.7185 0.375-0.00741 0.0044-0.023866-0.0045-0.03125 0-0.031933 0.0193-0.062293 0.04251-0.09375 0.0625-0.1204 0.0767-0.23102 0.16351-0.34375 0.25-0.10617 0.0808-0.21328 0.16111-0.3125 0.25-0.1779 0.1614-0.3474 0.3453-0.5 0.5312-0.1075 0.1303-0.2183 0.2653-0.3124 0.4063-0.0251 0.0383-0.0385 0.0858-0.0626 0.125-0.0647 0.103-0.1302 0.2045-0.1874 0.3124-0.1011 0.1948-0.2057 0.4158-0.2813 0.625-0.008 0.0219-0.0236 0.0406-0.0313 0.0626-0.0318 0.0919-0.0358 0.1868-0.0624 0.2812-0.0304 0.1066-0.0704 0.203-0.0938 0.3125-0.0729 0.3415-0.125 0.6985-0.125 1.0625v2 68 2c0 2.7818 2.2182 5 5 5h2 68 2c2.7818 0 5-2.2182 5-5v-2-68-2c0-0.364-0.052-0.721-0.125-1.0625-0.044-0.2069-0.088-0.3977-0.156-0.5937-0.008-0.022-0.024-0.0407-0.031-0.0626-0.063-0.1737-0.139-0.3674-0.219-0.5312-0.042-0.0828-0.079-0.17-0.125-0.25-0.055-0.0972-0.127-0.1884-0.188-0.2812-0.094-0.141-0.205-0.276-0.312-0.4063-0.143-0.1745-0.303-0.347-0.469-0.5-0.011-0.0102-0.02-0.0211-0.031-0.0313-0.139-0.1255-0.285-0.2344-0.438-0.3437-0.102-0.0731-0.204-0.1534-0.312-0.2187-0.0074-0.0045-0.02384 0.0044-0.03125 0-0.23204-0.13873-0.46255-0.27478-0.71875-0.375 0.30153 0.0968 0.59646 0.20414 0.875 0.34375 0.55709 0.27922 1.0601 0.66569 1.5 1.0938 0.21997 0.21403 0.40937 0.44186 0.59375 0.6875s0.35541 0.50774 0.5 0.78125c0.14012 0.26505 0.27614 0.52473 0.375 0.8125 0.01041 0.03078 0.02133 0.06274 0.03125 0.09375 0.09046 0.27808 0.1388 0.5794 0.1875 0.875 0.053 0.318 0.094 0.634 0.094 0.969v2 68 2c0 3.324-2.676 6-6 6h-72z" style="opacity:.2;fill:url(#radialGradient4280)"/>
 <g id="layer4" style="display:none">
  <g id="layer5" style="display:inline">
   <rect id="rect3171" style="opacity:.1;filter:url(#filter3794);stroke:#fff;stroke-linecap:round;stroke-width:.5;fill:url(#linearGradient3613)" clip-path="url(#clipPath3613)" rx="12" ry="12" height="66" width="66" y="15" x="15"/>
  </g>
 </g>
</svg>
