<?xml version="1.0" encoding="UTF-8" standalone="no"?>
<!-- Created with Inkscape (http://www.inkscape.org/) -->
<svg id="svg2408" xmlns:rdf="http://www.w3.org/1999/02/22-rdf-syntax-ns#" xmlns="http://www.w3.org/2000/svg" height="96" width="96" version="1.0" xmlns:cc="http://creativecommons.org/ns#" xmlns:xlink="http://www.w3.org/1999/xlink" xmlns:dc="http://purl.org/dc/elements/1.1/">
 <defs id="defs2410">
  <linearGradient id="ButtonShadow" y2="7.0165" gradientUnits="userSpaceOnUse" x2="45.448" gradientTransform="scale(1.0059 .99417)" y1="92.54" x1="45.448">
   <stop id="stop3750" offset="0"/>
   <stop id="stop3752" style="stop-opacity:.58824" offset="1"/>
  </linearGradient>
  <linearGradient id="linearGradient3737">
   <stop id="stop3739" style="stop-color:#fff" offset="0"/>
   <stop id="stop3741" style="stop-color:#fff;stop-opacity:0" offset="1"/>
  </linearGradient>
  <filter id="filter3174" color-interpolation-filters="sRGB">
   <feGaussianBlur id="feGaussianBlur3176" stdDeviation="1.71"/>
  </filter>
  <linearGradient id="linearGradient3613" y2="138.66" xlink:href="#linearGradient3737" gradientUnits="userSpaceOnUse" x2="48" y1="20.221" x1="48"/>
  <linearGradient id="linearGradient3151" y2="5.9877" gradientUnits="userSpaceOnUse" x2="48" gradientTransform="translate(-110)" y1="90" x1="48">
   <stop id="stop3702" style="stop-color:#2276c5" offset="0"/>
   <stop id="stop3704" style="stop-color:#68baf4" offset="1"/>
  </linearGradient>
  <linearGradient id="linearGradient3153" y2="63.893" xlink:href="#linearGradient3737" gradientUnits="userSpaceOnUse" x2="36.357" gradientTransform="translate(-110)" y1="6" x1="36.357"/>
  <radialGradient id="radialGradient3155" xlink:href="#linearGradient3737" gradientUnits="userSpaceOnUse" cy="90.172" cx="48" gradientTransform="matrix(1.1573 0 0 .99591 -117.55 .19713)" r="42"/>
  <linearGradient id="linearGradient3989" y2="5.9877" xlink:href="#ButtonShadow" gradientUnits="userSpaceOnUse" x2="48" gradientTransform="translate(0,1)" y1="90" x1="48"/>
  <linearGradient id="linearGradient4001" y2="5.9877" xlink:href="#ButtonShadow" gradientUnits="userSpaceOnUse" x2="48" gradientTransform="translate(-1,1)" y1="90.868" x1="48"/>
  <filter id="filter4055" height="1.3882" width="1.3882" color-interpolation-filters="sRGB" y="-.19411" x="-.19411">
   <feGaussianBlur id="feGaussianBlur4057" stdDeviation="5.3379019"/>
  </filter>
  <clipPath id="clipPath3297">
   <rect id="rect3299" style="fill:#fff" rx="6" ry="5.5695" height="77.973" width="84" y="9.338" x="6"/>
  </clipPath>
  <linearGradient id="linearGradient4102" y2="120" gradientUnits="userSpaceOnUse" x2="40" y1="8" x1="40">
   <stop id="stop4098" style="stop-color:#fff" offset="0"/>
   <stop id="stop4100" style="stop-color:#fff;stop-opacity:0" offset="1"/>
  </linearGradient>
  <linearGradient id="linearGradient3892-1">
   <stop id="stop3894-1" style="stop-opacity:.58824" offset="0"/>
   <stop id="stop3896-3" style="stop-opacity:.47059" offset=".11780"/>
   <stop id="stop3898-6" style="stop-opacity:.39216" offset=".23810"/>
   <stop id="stop3900-3" style="stop-opacity:.31373" offset="1"/>
  </linearGradient>
  <linearGradient id="linearGradient4148-8" y2="77" xlink:href="#linearGradient3892-1" gradientUnits="userSpaceOnUse" x2="48" y1="77" x1="6"/>
  <linearGradient id="ButtonColor" y2=".99930" gradientUnits="userSpaceOnUse" x2="10.32" y1="21" x1="10.32">
   <stop id="stop3189" style="stop-color:#5a9b0f" offset="0"/>
   <stop id="stop3191" style="stop-color:#8fe02f" offset="1"/>
  </linearGradient>
  <linearGradient id="linearGradient3117" y2="5.9877" xlink:href="#ButtonColor" gradientUnits="userSpaceOnUse" x2="48" y1="90" x1="48"/>
  <linearGradient id="linearGradient3908" y2="5.9877" xlink:href="#ButtonColor" gradientUnits="userSpaceOnUse" x2="48" y1="72.191" x1="48"/>
  <radialGradient id="radialGradient3148" gradientUnits="userSpaceOnUse" cy="34.75" cx="24" gradientTransform="matrix(.5 0 0 .52381 12 17.798)" r="42">
   <stop id="stop4287" style="stop-color:#fff" offset="0"/>
   <stop id="stop5732" style="stop-color:#fff;stop-opacity:.70866" offset=".5"/>
   <stop id="stop4289" style="stop-color:#fff;stop-opacity:0" offset="1"/>
  </radialGradient>
  <linearGradient id="linearGradient5778" y2="72" xlink:href="#linearGradient4239" gradientUnits="userSpaceOnUse" x2="48" gradientTransform="translate(0,-2)" y1="56" x1="32"/>
  <linearGradient id="linearGradient4239">
   <stop id="stop5734" style="stop-color:#e2f39e;stop-opacity:0" offset="0"/>
   <stop id="stop5736" style="stop-color:#e0f298;stop-opacity:.29134" offset="0.3"/>
   <stop id="stop4243" style="stop-color:#e0f297;stop-opacity:.16535" offset="1"/>
  </linearGradient>
  <linearGradient id="linearGradient5776" y2="76" xlink:href="#linearGradient4239" gradientUnits="userSpaceOnUse" x2="82" gradientTransform="translate(0,-2)" y1="51" x1="36"/>
  <linearGradient id="linearGradient5774" y2="48" xlink:href="#linearGradient4239" gradientUnits="userSpaceOnUse" x2="96" gradientTransform="translate(0,-2)" y1="45" x1="42"/>
  <linearGradient id="linearGradient5770" y2="24" xlink:href="#linearGradient4239" gradientUnits="userSpaceOnUse" x2="96" gradientTransform="translate(0,-2)" y1="36" x1="44"/>
  <linearGradient id="linearGradient5784" y2="1" xlink:href="#linearGradient4239" gradientUnits="userSpaceOnUse" x2="70" gradientTransform="translate(0,-2)" y1="23" x1="42"/>
  <linearGradient id="linearGradient5782" y2="6" xlink:href="#linearGradient4239" gradientUnits="userSpaceOnUse" x2="39" gradientTransform="translate(0,-2)" y1="16" x1="32"/>
  <linearGradient id="linearGradient3226" xlink:href="#linearGradient4239" gradientUnits="userSpaceOnUse" x2="8" gradientTransform="translate(0,-2)" y1="16.422" x1="11.469"/>
 </defs>
 <metadata id="metadata2413">
  <rdf:RDF>
   <cc:Work rdf:about="">
    <dc:format>image/svg+xml</dc:format>
    <dc:type rdf:resource="http://purl.org/dc/dcmitype/StillImage"/>
    <dc:title/>
   </cc:Work>
  </rdf:RDF>
 </metadata>
 <g id="layer2" style="display:none">
  <rect id="rect3745" style="opacity:.9;filter:url(#filter3174);fill:url(#ButtonShadow)" rx="6" ry="6" height="85" width="86" y="7" x="5"/>
 </g>
 <g id="layer3">
  <path id="path4029" style="opacity:0.08;fill:url(#linearGradient4001)" d="m12 4.0312c-6.0702-0.16174-10.691 5.6895-9.9688 11.5 0.0000716 0.04167-0.0000701 0.08333 0 0.125 0.030431 18.086-0.077787 36.153 0.03125 54.25a0.93233 0.93233 0 0 0 0 0.0625c0.42977 5.8315 6.2169 9.6747 11.719 9 0.0418-0.0051 0.08323 0.0056 0.125 0h5.3125c-0.67978 4.4285-1.5968 8.8952-2.0625 13.406a0.93233 0.93233 0 0 0 0.03125 0.28125c0.28 1.2942 1.3717 2.1088 2.4688 2.25 1.0239 0.13179 2.0656-0.22515 2.8438-1v0.03125l22.844-14.969c13.185-0.02898 26.363 0.07707 39.562-0.03125a0.93233 0.93233 0 0 0 0.0625 0c5.8315-0.42977 9.6747-6.2169 9-11.719-0.0051-0.0418 0.0056-0.08323 0-0.125-0.03043-18.002 0.07779-35.988-0.03125-54a0.93233 0.93233 0 0 0 0 -0.0625c-0.42977-5.8315-6.2169-9.6747-11.719-9h-0.125-70.062-0.03125z"/>
  <path id="path4015" style="opacity:.1;fill:url(#linearGradient4001)" d="m12 4.9688c-5.5018-0.1657-9.7593 5.2612-9.0312 10.551 0.031153 18.133-0.06237 36.269 0.046873 54.399 0.38911 5.2798 5.7302 8.7915 10.758 8.1115h6.5389c-0.69363 4.8112-1.7232 9.637-2.2188 14.438 0.39957 1.8469 2.7901 1.9764 3.9102 0.69448 7.697-5.043 15.393-10.087 23.09-15.131 13.275-0.031 26.553 0.062 39.826-0.047 5.28-0.389 8.791-5.73 8.111-10.758-0.031-18.048 0.063-36.099-0.047-54.146-0.389-5.2795-5.73-8.7912-10.758-8.1112h-70.226z"/>
  <path id="path4007" style="opacity:.15;fill:url(#linearGradient4001)" d="m12 6c-4.4079 0-8 3.5921-8 8v55c0 4.4079 3.5921 8 8 8h9.5l-2.4062 14.906a0.98733 0.98733 0 0 0 1.5 0.96875l24.218-15.875h39.188c4.4079 0 8-3.5921 8-8v-55c0-4.4079-3.592-8-8-8h-72z"/>
  <path id="rect3991" style="opacity:.3;fill:url(#linearGradient4001)" d="m12 7c-3.878 0-7 3.122-7 7v55c0 3.878 3.122 7 7 7h10.656l-2.594 16.062 24.5-16.062h39.438c3.878 0 7-3.122 7-7v-55c0-3.878-3.122-7-7-7h-72z"/>
  <path id="path3984" style="opacity:.45;fill:url(#linearGradient3989)" d="m12 7c-3.324 0-6 2.676-6 6v56c0 3.324 2.676 6 6 6h12l-3 16 23-16h40c3.324 0 6-2.676 6-6v-56c0-3.324-2.676-6-6-6h-72z"/>
 </g>
 <g id="layer1">
  <path id="rect2419-9" style="fill:url(#linearGradient3117)" d="m12 6c-3.324 0-6 2.676-6 6v56c0 3.324 2.676 6 6 6h12l-3 16 23-16h40c3.324 0 6-2.676 6-6v-56c0-3.324-2.676-6-6-6h-72z"/>
  <path id="rect2419" style="fill:url(#linearGradient3908)" d="m12 6c-3.324 0-6 2.676-6 6v56c0 3.324 2.676 6 6 6h12l-3 16 23-16h40c3.324 0 6-2.676 6-6v-56c0-3.324-2.676-6-6-6h-72z"/>
  <rect id="rect3145" style="fill:url(#linearGradient3151)" rx="6" ry="6" height="84" width="84" y="6" x="-104"/>
  <path id="path3147" style="opacity:.5;fill:url(#linearGradient3153)" d="m-98 6c-3.324 0-6 2.676-6 6v2 68 2c0 0.33472 0.0413 0.6507 0.0937 0.96875 0.0487 0.2956 0.097 0.59692 0.1875 0.875 0.01 0.03038 0.0209 0.0636 0.0312 0.09375 0.0989 0.28777 0.23488 0.54745 0.375 0.8125 0.14459 0.27351 0.31562 0.53562 0.5 0.78125 0.18438 0.24564 0.37378 0.47347 0.59375 0.6875 0.43995 0.42806 0.94291 0.81453 1.5 1.0938 0.27854 0.13961 0.57347 0.24695 0.875 0.34375-0.2562-0.10022-0.48671-0.23627-0.71875-0.375-0.007-0.0044-0.0239 0.0045-0.0312 0-0.0319-0.0193-0.0623-0.04251-0.0937-0.0625-0.1204-0.0767-0.23102-0.16351-0.34375-0.25-0.10617-0.0808-0.21328-0.16111-0.3125-0.25-0.17793-0.16143-0.34746-0.34539-0.5-0.53125-0.10758-0.13026-0.21839-0.26528-0.3125-0.40625-0.0251-0.03838-0.0384-0.08587-0.0625-0.125-0.0648-0.10303-0.13023-0.20452-0.1875-0.3125-0.10101-0.19471-0.20568-0.4157-0.28125-0.625-0.008-0.02181-0.0236-0.04055-0.0312-0.0625-0.0318-0.09195-0.0358-0.18683-0.0625-0.28125-0.0303-0.10662-0.0704-0.20303-0.0937-0.3125-0.08-0.342-0.13-0.699-0.13-1.063v-2-68-2c0-2.7818 2.2182-5 5-5h2 68 2c2.7818 0 5 2.2182 5 5v2 68 2c0 0.3643-0.05212 0.72099-0.125 1.0625-0.04415 0.20689-0.08838 0.39766-0.15625 0.59375-0.0077 0.02195-0.0233 0.04069-0.03125 0.0625-0.06274 0.17374-0.13838 0.36745-0.21875 0.53125-0.04158 0.0828-0.07904 0.16995-0.125 0.25-0.0546 0.09721-0.12677 0.18835-0.1875 0.28125-0.09411 0.14096-0.20492 0.276-0.3125 0.40625-0.14317 0.17445-0.30314 0.347-0.46875 0.5-0.01117 0.0102-0.01998 0.02115-0.03125 0.03125-0.13839 0.12556-0.28509 0.23444-0.4375 0.34375-0.10257 0.07315-0.20432 0.15336-0.3125 0.21875-0.0074 0.0045-0.02384-0.0044-0.03125 0-0.23204 0.13873-0.46255 0.27478-0.71875 0.375 0.30153-0.0968 0.59646-0.20414 0.875-0.34375 0.55709-0.27922 1.0601-0.66569 1.5-1.0938 0.21997-0.21403 0.40937-0.44186 0.59375-0.6875s0.35541-0.50774 0.5-0.78125c0.14012-0.26505 0.27614-0.52473 0.375-0.8125 0.01041-0.03078 0.02133-0.06274 0.03125-0.09375 0.09046-0.27808 0.1388-0.5794 0.1875-0.875 0.053-0.318 0.094-0.634 0.094-0.969v-2-68-2c0-3.324-2.676-6-6-6h-72z"/>
  <path id="path3149" style="opacity:.2;fill:url(#radialGradient3155)" d="m-98 90c-3.324 0-6-2.676-6-6v-2-68-2c0-0.33472 0.0413-0.6507 0.0937-0.96875 0.0487-0.2956 0.097-0.59692 0.1875-0.875 0.01-0.03038 0.0209-0.0636 0.0312-0.09375 0.0989-0.28777 0.23488-0.54745 0.375-0.8125 0.14459-0.27351 0.31562-0.53562 0.5-0.78125 0.18438-0.24564 0.37378-0.47347 0.59375-0.6875 0.43995-0.42806 0.94291-0.81453 1.5-1.0938 0.27854-0.13961 0.57347-0.24695 0.875-0.34375-0.2562 0.10022-0.48671 0.23627-0.71875 0.375-0.007 0.0044-0.0239-0.0045-0.0312 0-0.0319 0.0193-0.0623 0.04251-0.0937 0.0625-0.1204 0.0767-0.23102 0.16351-0.34375 0.25-0.10617 0.0808-0.21328 0.16111-0.3125 0.25-0.17793 0.16143-0.34746 0.34539-0.5 0.53125-0.10758 0.13026-0.21839 0.26528-0.3125 0.40625-0.0251 0.03838-0.0384 0.08587-0.0625 0.125-0.0648 0.10303-0.13023 0.20452-0.1875 0.3125-0.10101 0.19471-0.20568 0.4157-0.28125 0.625-0.008 0.02181-0.0236 0.04055-0.0312 0.0625-0.0318 0.09195-0.0358 0.18683-0.0625 0.28125-0.0303 0.10662-0.0704 0.20303-0.0937 0.3125-0.08 0.3417-0.13 0.6987-0.13 1.0627v2 68 2c0 2.7818 2.2182 5 5 5h2 68 2c2.7818 0 5-2.2182 5-5v-2-68-2c0-0.3643-0.05212-0.72099-0.125-1.0625-0.04415-0.20689-0.08838-0.39766-0.15625-0.59375-0.0077-0.02195-0.0233-0.04069-0.03125-0.0625-0.06274-0.17374-0.13838-0.36745-0.21875-0.53125-0.04158-0.0828-0.07904-0.16995-0.125-0.25-0.0546-0.09721-0.12677-0.18835-0.1875-0.28125-0.09411-0.14096-0.20492-0.276-0.3125-0.40625-0.14317-0.17445-0.30314-0.347-0.46875-0.5-0.01117-0.0102-0.01998-0.02115-0.03125-0.03125-0.13839-0.12556-0.28509-0.23444-0.4375-0.34375-0.10257-0.07315-0.20432-0.15336-0.3125-0.21875-0.0074-0.0045-0.02384 0.0044-0.03125 0-0.23204-0.13873-0.46255-0.27478-0.71875-0.375 0.30153 0.0968 0.59646 0.20414 0.875 0.34375 0.55709 0.27922 1.0601 0.66569 1.5 1.0938 0.21997 0.21403 0.40937 0.44186 0.59375 0.6875s0.35541 0.50774 0.5 0.78125c0.14012 0.26505 0.27614 0.52473 0.375 0.8125 0.01041 0.03078 0.02133 0.06274 0.03125 0.09375 0.09046 0.27808 0.1388 0.5794 0.1875 0.875 0.053 0.318 0.094 0.634 0.094 0.969v2 68 2c0 3.324-2.676 6-6 6h-72z"/>
  <path id="path4061" style="fill:url(#linearGradient3908)" d="m12 6c-3.324 0-6 2.676-6 6v52c0 3.324 2.676 6 6 6h12l-3 16 23-16h40c3.324 0 6-2.676 6-6v-52c0-3.324-2.676-6-6-6z"/>
  <path id="path4074" style="opacity:.1;fill:#fff" d="m6 62v2c0 3.324 2.676 6 6 6h11.625l0.375-2h-12c-3.324 0-6-2.676-6-6zm84 0c0 3.324-2.676 6-6 6h-40l-22.562 15.688-0.438 2.312 23-16h40c3.324 0 6-2.676 6-6v-2z"/>
  <path id="path4083" style="opacity:.35;fill:url(#linearGradient4102)" d="m12 6c-3.324 0-6 2.676-6 6v52c0 3.324 2.676 6 6 6h12l-3 16 23-16h40c3.324 0 6-2.676 6-6v-52c0-3.324-2.676-6-6-6h-72zm0 1h72c2.7895 0 5 2.2105 5 5v52c0 2.7895-2.2105 5-5 5h-40a0.99593 0.99593 0 0 0 -0.5625 0.1875l-21.031 14.625 2.5625-13.625a0.99593 0.99593 0 0 0 -0.97 -1.188h-12c-2.7895 0-5-2.21-5-5v-52c0-2.7895 2.2105-5 5-5z"/>
 </g>
 <g id="layer6">
  <path id="path4065" style="opacity:.7;fill:url(#linearGradient4148-8)" d="m6 64v4c0 3.324 2.676 6 6 6h11.25l0.75-4h-12c-3.324 0-6-2.676-6-6zm84 0c0 3.324-2.676 6-6 6h-40l-23 16v4l23-16h40c3.324 0 6-2.676 6-6z"/>
  <path id="path4142" style="opacity:.1;fill:url(#linearGradient4148-8)" d="m6 66v2c0 3.324 2.676 6 6 6h11.25l0.75-4h-0.375l-0.375 2h-11.25c-3.324 0-6-2.676-6-6zm84 0c0 3.324-2.676 6-6 6h-40l-23 16v2l23-16h40c3.324 0 6-2.676 6-6v-2z"/>
  <path id="path4133" style="opacity:.15" d="m6 67v1c0 3.324 2.676 6 6 6h11.25l0.75-4h-0.188l-0.562 3h-11.25c-3.324 0-6-2.676-6-6zm84 0c0 3.324-2.676 6-6 6h-40l-23 16v1l23-16h40c3.324 0 6-2.676 6-6v-1z"/>
  <path id="path4151" style="opacity:.8;fill:url(#linearGradient4148-8)" d="m44 70-23 16v4l23-16z"/>
 </g>
 <g id="layer5" style="display:none">
  <rect id="rect3171" style="opacity:.1;filter:url(#filter4055);stroke:#fff;stroke-linecap:round;stroke-width:.57973;fill:url(#linearGradient3613)" transform="matrix(1 0 0 .74384 0 3.8423)" clip-path="url(#clipPath3297)" rx="12" ry="12" height="60.496" width="66" y="15" x="15"/>
 </g>
 <g id="layer4">
  <path id="path3984-5" style="opacity:.2;fill:url(#radialGradient3148)" d="m12 6c-3.324 0-6 2.676-6 6v56c0 3.324 2.676 6 6 6h12l-3 16 23-16h20v-68h-52z"/>
  <path id="path4179" style="opacity:.3;fill:#fff" d="m22.062 13.094c-0.30941-0.01-0.64176-0.0076-0.9375 0.03125-0.94309 0.12394-1.8961 0.10362-2.8438 0.25-1.8154 0.28034-3.5497 0.85098-5.25 1.5312-0.61914 0.24767-1.2438 0.52214-1.8438 0.8125-0.22328 0.10804-0.53924 0.17036-0.71875 0.34375-0.09344 0.0904-0.0824 0.31661-0.09375 0.4375-0.03157 0.34003-0.09208 0.69144-0.125 1.0312-0.12699 1.3113-0.21904 2.6581-0.03125 3.9688 0.06078 0.42346 0.19829 1.1688 0.71875 1.25 0.80038 0.12525 1.4197-0.83109 1.8125-1.375 0.91739-1.2704 1.9642-2.4634 3.4688-3.0312 1.7712-0.66851 3.8137-0.84023 5.6875-0.96875 5.2571-0.36029 11.002 0.59666 14.875 4.4688 0.55074 0.55067 1.0567 1.1389 1.5 1.7812 1.7339 2.5107 2.6522 5.3764 3.0938 8.375 0.20762 1.4078 0.35237 2.8168 0.03125 4.2188-0.55727 2.4323-2.0085 4.5727-3.6875 6.375-1.1492 1.2336-2.4666 2.3302-3.8125 3.3438-0.75138 0.5657-1.5747 1.0691-2.2812 1.6875-0.81369 0.71229-1.4856 1.5809-2 2.5312-1.3842 2.559-1.7821 5.6434-1.375 8.5 0.08344 0.58552 0.17983 1.1725 0.3125 1.75 0.03965 0.17274 0.04449 0.48385 0.15625 0.625 0.20914 0.26401 0.77416 0.39078 1.0938 0.40625 0.33332 0.01612 0.5433-0.23239 0.625-0.53125 0.13986-0.51211 0.08104-1.0786 0-1.5938-0.16601-1.0552-0.32831-2.1164-0.28125-3.1875 0.08671-1.9776 0.84801-3.8167 2.2188-5.25 1.3941-1.4577 3.2908-2.3101 4.875-3.5312 3.1929-2.461 6.0266-5.7676 7.125-9.7188 0.39258-1.413 0.52304-2.9204 0.34375-4.375-0.227-1.841-0.898-3.674-1.531-5.407-1.933-5.282-5.237-10.303-10.5-12.719-2.09-0.959-4.27-1.404-6.532-1.719-1.06-0.147-2.119-0.234-3.187-0.281-0.297-0.013-0.597-0.021-0.907-0.031zm-3.281 21.906c-0.42164 0.04074-0.81632 0.18037-1.1875 0.40625-0.66707 0.40625-1.0409 1.1156-1.25 1.8438-0.41523 1.4459-0.22788 3.1105 0.0625 4.5625 0.09281 0.46441 0.18222 0.91909 0.3125 1.375 0.04706 0.16446 0.08053 0.39445 0.1875 0.53125 0.18668 0.23917 0.62676 0.3283 0.90625 0.28125 0.83852-0.14093 0.62229-1.538 0.59375-2.125-0.06688-1.3751-0.45507-2.6948-0.0625-4.0625 0.16622-0.57877 0.478-1.2486 1.0625-1.5 0.52764-0.22719 1.0723 0.04712 1.2812 0.5625 0.33831 0.8345 0.25656 1.8192 0.46875 2.6875 0.07211 0.29516 0.14814 0.56864 0.28125 0.84375 0.03856 0.07951 0.07574 0.26002 0.1875 0.25 0.272-0.025 0.671-0.488 0.875-0.656 0.65792-0.5437 1.3363-1.1289 2.0938-1.5312 0.35641-0.18929 0.94844-0.4782 1.3125-0.15625 0.09278 0.08212 0.1523 0.17735 0.21875 0.28125 0.42787 0.67025-0.0031 1.1751-0.28125 1.8125-0.36011 0.82491-0.72822 1.6379-1.25 2.375-0.44856 0.63388-1.0479 1.2138-1.4062 1.9062-0.23071 0.44589-0.37667 0.93432-0.28125 1.4375 0.07734 0.4069 0.39749 0.62666 0.8125 0.53125 0.31066-0.07145 0.51038-0.31679 0.6875-0.5625 0.31567-0.43827 0.62379-0.90374 0.9375-1.3438 0.60694-0.85105 1.3333-1.6476 1.8438-2.5625 0.61522-1.1029 0.90692-2.3375 0.90625-3.5938-0.000392-1.0266-0.36667-2.5973-1.5625-2.8125-0.22502-0.0403-0.49523-0.03899-0.71875 0-0.27774 0.04836-0.5587 0.1584-0.8125 0.28125-0.67992 0.32892-1.276 0.81649-1.7812 1.375-0.31522 0.34809-0.59469 0.77671-0.96875 1.0625 0-0.75826-0.122-1.5829-0.5625-2.2188-0.552-0.796-1.514-1.246-2.469-1.281-0.144-0.005-0.297-0.014-0.438 0zm-5.531 12.281c-0.1089-0.0084-0.22061 0.01361-0.34375 0.03125-1.0259 0.14682-1.3458 0.94728-1.1562 1.875 0.24269 1.1872 1.1998 2.0993 2.125 2.8125 2.3705 1.8271 5.421 2.8182 8.4062 2.6875 1.1649-0.05097 2.431-0.25575 3.5-0.75 0.57318-0.26488 1.1868-1.2166 0.40625-1.625-0.10697-0.05598-0.25581-0.07415-0.375-0.09375-0.34092-0.05576-0.70819 0.09471-1.0312 0.1875-0.56969 0.16359-1.1635 0.31215-1.75 0.40625-1.7522 0.28143-3.6431-0.11809-5.0938-1.1562-1.1727-0.83951-2.1046-1.9433-3-3.0625-0.47959-0.59943-0.92522-1.2538-1.6875-1.3125zm-1.25 5.781c-0.15512 0.0016-0.31398 0.01502-0.4375 0.03125-0.26099 0.03442-0.55773 0.02347-0.78125 0.1875-0.46621 0.3422 0.03595 1.0318 0.28125 1.3438 0.71128 0.90376 1.6591 1.6512 2.5938 2.3125 2.6055 1.843 5.5446 2.9074 8.7188 3.125 0.91257 0.06252 1.8474-0.006 2.75-0.15625 0.33003-0.05511 0.7575-0.07629 1.0625-0.21875 0.86312-0.40363 0.61406-2.0125-0.15625-2.375-0.33637-0.15814-0.89729 0.04474-1.25 0.09375-0.83417 0.11632-1.661 0.11423-2.5 0.09375-2.1988-0.0538-4.5529-0.71259-6.4688-1.7812-0.75312-0.42041-1.4159-0.93082-2.0625-1.5-0.394-0.345-0.804-0.918-1.313-1.093-0.119-0.041-0.283-0.064-0.438-0.063zm0.094 4.938c-0.37164 0.04161-0.66182 0.22423-0.90625 0.5-0.1684 0.18994-0.30952 0.35414-0.40625 0.59375-0.53331 1.3192 0.86188 2.5645 1.8438 3.1875 1.0927 0.69312 2.315 1.2234 3.5312 1.6562 2.7432 0.9763 5.9324 1.5916 8.7812 0.71875 0.8468-0.25922 1.6968-0.73437 2.3125-1.375 0.3468-0.36094 0.57362-0.89389-0.0625-1.125-0.377-0.137-0.815 0.206-1.157 0.344-0.807 0.325-1.665 0.583-2.531 0.688-1.141 0.138-2.15-0.132-3.25-0.407-0.939-0.235-1.904-0.474-2.812-0.812-0.775-0.289-1.541-0.614-2.219-1.094-0.203-0.143-0.428-0.282-0.594-0.469-0.543-0.61-0.949-1.325-1.531-1.906-0.2514-0.25094-0.61525-0.54291-1-0.5z"/>
  <path id="path26" style="fill:#fff" d="m22.062 12.094c-0.30941-0.01-0.64176-0.0076-0.9375 0.03125-0.94309 0.12394-1.8961 0.10362-2.8438 0.25-1.8154 0.28034-3.5497 0.85098-5.25 1.5312-0.61914 0.24767-1.2438 0.52214-1.8438 0.8125-0.22328 0.10804-0.53924 0.17036-0.71875 0.34375-0.09344 0.0904-0.0824 0.31661-0.09375 0.4375-0.03157 0.34003-0.09208 0.69144-0.125 1.0312-0.12699 1.3113-0.21904 2.6581-0.03125 3.9688 0.06078 0.42346 0.19829 1.1688 0.71875 1.25 0.80038 0.12525 1.4197-0.83109 1.8125-1.375 0.91739-1.2704 1.9642-2.4634 3.4688-3.0312 1.7712-0.66851 3.8137-0.84023 5.6875-0.96875 5.2571-0.36029 11.002 0.59666 14.875 4.4688 0.55074 0.55067 1.0567 1.1389 1.5 1.7812 1.7339 2.5107 2.6522 5.3764 3.0938 8.375 0.20762 1.4078 0.35237 2.8168 0.03125 4.2188-0.55727 2.4323-2.0085 4.5727-3.6875 6.375-1.1492 1.2336-2.4666 2.3302-3.8125 3.3438-0.75138 0.5657-1.5747 1.0691-2.2812 1.6875-0.81369 0.71229-1.4856 1.5809-2 2.5312-1.3842 2.559-1.7821 5.6434-1.375 8.5 0.08344 0.58552 0.17983 1.1725 0.3125 1.75 0.03965 0.17274 0.04449 0.48385 0.15625 0.625 0.20914 0.26401 0.77416 0.39078 1.0938 0.40625 0.33332 0.01612 0.5433-0.23239 0.625-0.53125 0.13986-0.51211 0.08104-1.0786 0-1.5938-0.16601-1.0552-0.32831-2.1164-0.28125-3.1875 0.08671-1.9776 0.84801-3.8167 2.2188-5.25 1.3941-1.4577 3.2908-2.3101 4.875-3.5312 3.1929-2.461 6.0266-5.7676 7.125-9.7188 0.39258-1.413 0.52304-2.9204 0.34375-4.375-0.227-1.841-0.898-3.674-1.531-5.407-1.933-5.282-5.237-10.303-10.5-12.719-2.09-0.959-4.27-1.404-6.532-1.719-1.06-0.147-2.119-0.234-3.187-0.281-0.297-0.013-0.597-0.021-0.907-0.031zm-3.281 21.906c-0.42164 0.04074-0.81632 0.18037-1.1875 0.40625-0.66707 0.40625-1.0409 1.1156-1.25 1.8438-0.41523 1.4459-0.22788 3.1105 0.0625 4.5625 0.09281 0.46441 0.18222 0.91909 0.3125 1.375 0.04706 0.16446 0.08053 0.39445 0.1875 0.53125 0.18668 0.23917 0.62676 0.3283 0.90625 0.28125 0.83852-0.14093 0.62229-1.538 0.59375-2.125-0.06688-1.3751-0.45507-2.6948-0.0625-4.0625 0.16622-0.57877 0.478-1.2486 1.0625-1.5 0.52764-0.22719 1.0723 0.04712 1.2812 0.5625 0.33831 0.8345 0.25656 1.8192 0.46875 2.6875 0.07211 0.29516 0.14814 0.56864 0.28125 0.84375 0.03856 0.07951 0.07574 0.26002 0.1875 0.25 0.272-0.025 0.671-0.488 0.875-0.656 0.65792-0.5437 1.3363-1.1289 2.0938-1.5312 0.35641-0.18929 0.94844-0.4782 1.3125-0.15625 0.09278 0.08212 0.1523 0.17735 0.21875 0.28125 0.42787 0.67025-0.0031 1.1751-0.28125 1.8125-0.36011 0.82491-0.72822 1.6379-1.25 2.375-0.44856 0.63388-1.0479 1.2138-1.4062 1.9062-0.23071 0.44589-0.37667 0.93432-0.28125 1.4375 0.07734 0.4069 0.39749 0.62666 0.8125 0.53125 0.31066-0.07145 0.51038-0.31679 0.6875-0.5625 0.31567-0.43827 0.62379-0.90374 0.9375-1.3438 0.60694-0.85105 1.3333-1.6476 1.8438-2.5625 0.61522-1.1029 0.90692-2.3375 0.90625-3.5938-0.000392-1.0266-0.36667-2.5973-1.5625-2.8125-0.22502-0.0403-0.49523-0.03899-0.71875 0-0.27774 0.04836-0.5587 0.1584-0.8125 0.28125-0.67992 0.32892-1.276 0.81649-1.7812 1.375-0.31522 0.34809-0.59469 0.77671-0.96875 1.0625 0-0.75826-0.122-1.5829-0.5625-2.2188-0.552-0.796-1.514-1.246-2.469-1.281-0.144-0.005-0.297-0.014-0.438 0zm-5.531 12.281c-0.1089-0.0084-0.22061 0.01361-0.34375 0.03125-1.0259 0.14682-1.3458 0.94728-1.1562 1.875 0.24269 1.1872 1.1998 2.0993 2.125 2.8125 2.3705 1.8271 5.421 2.8182 8.4062 2.6875 1.1649-0.05097 2.431-0.25575 3.5-0.75 0.57318-0.26488 1.1868-1.2166 0.40625-1.625-0.10697-0.05598-0.25581-0.07415-0.375-0.09375-0.34092-0.05576-0.70819 0.09471-1.0312 0.1875-0.56969 0.16359-1.1635 0.31215-1.75 0.40625-1.7522 0.28143-3.6431-0.11809-5.0938-1.1562-1.1727-0.83951-2.1046-1.9433-3-3.0625-0.47959-0.59943-0.92522-1.2538-1.6875-1.3125zm-1.25 5.781c-0.15512 0.0016-0.31398 0.01502-0.4375 0.03125-0.26099 0.03442-0.55773 0.02347-0.78125 0.1875-0.46621 0.3422 0.03595 1.0318 0.28125 1.3438 0.71128 0.90376 1.6591 1.6512 2.5938 2.3125 2.6055 1.843 5.5446 2.9074 8.7188 3.125 0.91257 0.06252 1.8474-0.006 2.75-0.15625 0.33003-0.05511 0.7575-0.07629 1.0625-0.21875 0.86312-0.40363 0.61406-2.0125-0.15625-2.375-0.33637-0.15814-0.89729 0.04474-1.25 0.09375-0.83417 0.11632-1.661 0.11423-2.5 0.09375-2.1988-0.0538-4.5529-0.71259-6.4688-1.7812-0.75312-0.42041-1.4159-0.93082-2.0625-1.5-0.394-0.345-0.804-0.918-1.313-1.093-0.119-0.041-0.283-0.064-0.438-0.063zm0.094 4.938c-0.37164 0.04161-0.66182 0.22423-0.90625 0.5-0.1684 0.18994-0.30952 0.35414-0.40625 0.59375-0.53331 1.3192 0.86188 2.5645 1.8438 3.1875 1.0927 0.69312 2.315 1.2234 3.5312 1.6562 2.7432 0.9763 5.9324 1.5916 8.7812 0.71875 0.8468-0.25922 1.6968-0.73437 2.3125-1.375 0.3468-0.36094 0.57362-0.89389-0.0625-1.125-0.377-0.137-0.815 0.206-1.157 0.344-0.807 0.325-1.665 0.583-2.531 0.688-1.141 0.138-2.15-0.132-3.25-0.407-0.939-0.235-1.904-0.474-2.812-0.812-0.775-0.289-1.541-0.614-2.219-1.094-0.203-0.143-0.428-0.282-0.594-0.469-0.543-0.61-0.949-1.325-1.531-1.906-0.2514-0.25094-0.61525-0.54291-1-0.5z"/>
  <path id="path4219" style="opacity:.1" d="m22.062 11.094c-0.30941-0.01-0.64176-0.0076-0.9375 0.03125-0.94309 0.12394-1.8961 0.10362-2.8438 0.25-1.8154 0.28034-3.5497 0.85098-5.25 1.5312-0.61914 0.24767-1.2438 0.52214-1.8438 0.8125-0.22328 0.10804-0.53924 0.17036-0.71875 0.34375-0.09344 0.0904-0.0824 0.31661-0.09375 0.4375-0.03157 0.34003-0.09208 0.69144-0.125 1.0312-0.09524 0.98349-0.17238 1.9756-0.125 2.9688 0.01637-0.6541 0.06249-1.3233 0.125-1.9688 0.03292-0.33981 0.09343-0.69122 0.125-1.0312 0.01135-0.12089 0.00031-0.3471 0.09375-0.4375 0.17951-0.17339 0.49547-0.23571 0.71875-0.34375 0.59997-0.29036 1.2246-0.56483 1.8438-0.8125 1.7003-0.68027 3.4346-1.2509 5.25-1.5312 0.94767-0.14638 1.9007-0.12606 2.8438-0.25 0.29574-0.03885 0.62809-0.04125 0.9375-0.03125s0.60965 0.01829 0.90625 0.03125c1.0679 0.04683 2.1268 0.13356 3.1875 0.28125 2.262 0.31498 4.4422 0.75988 6.5312 1.7188 5.2636 2.4164 8.5678 7.4369 10.5 12.719 0.63396 1.7328 1.3047 3.5663 1.5312 5.4062 0.03071 0.24915 0.01848 0.4985 0.03125 0.75 0.02438-0.58943 0.04048-1.168-0.03125-1.75-0.226-1.84-0.897-3.673-1.53-5.406-1.933-5.282-5.237-10.303-10.5-12.719-2.09-0.959-4.27-1.404-6.532-1.719-1.06-0.147-2.119-0.234-3.187-0.281-0.297-0.013-0.597-0.021-0.907-0.031zm19.5 21.781c-0.02084 0.44715-0.0541 0.89777-0.15625 1.3438-0.55727 2.4323-2.0085 4.5727-3.6875 6.375-1.1492 1.2336-2.4666 2.3302-3.8125 3.3438-0.75138 0.5657-1.5747 1.0691-2.2812 1.6875-0.81369 0.71229-1.4856 1.5809-2 2.5312-1.1421 2.1113-1.5989 4.5652-1.5 6.9688 0.05254-2.0789 0.5163-4.1502 1.5-5.9688 0.51436-0.95038 1.1863-1.819 2-2.5312 0.7065-0.61841 1.5299-1.1218 2.2812-1.6875 1.3459-1.0135 2.6633-2.1102 3.8125-3.3438 1.679-1.8023 3.1302-3.9427 3.6875-6.375 0.17951-0.7837 0.1975-1.5571 0.15625-2.3438zm-22.781 0.125c-0.42164 0.04074-0.81632 0.18037-1.1875 0.40625-0.66707 0.40625-1.0409 1.1156-1.25 1.8438-0.19359 0.67412-0.23649 1.3995-0.21875 2.125 0.03629-0.38207 0.11494-0.76352 0.21875-1.125 0.20914-0.7282 0.58293-1.4375 1.25-1.8438 0.37118-0.22588 0.76586-0.36551 1.1875-0.40625 0.14055-0.01358 0.2942-0.0052 0.4375 0 0.9553 0.0347 1.9168 0.48468 2.4688 1.2812 0.4405 0.63584 0.5625 1.4605 0.5625 2.2188 0.37406-0.28579 0.65354-0.71441 0.96875-1.0625 0.50521-0.55851 1.1013-1.0461 1.7812-1.375 0.2538-0.12285 0.53476-0.23289 0.8125-0.28125 0.22352-0.03899 0.49373-0.0403 0.71875 0 1.0298 0.18534 1.4357 1.3611 1.5312 2.3438 0.01172-0.17669 0.03135-0.35338 0.03125-0.53125-0.000392-1.0266-0.36667-2.5973-1.5625-2.8125-0.22502-0.0403-0.49523-0.03899-0.71875 0-0.27774 0.04836-0.5587 0.1584-0.8125 0.28125-0.67992 0.32892-1.276 0.81649-1.7812 1.375-0.31522 0.34809-0.59469 0.77671-0.96875 1.0625 0-0.75826-0.122-1.5829-0.5625-2.2188-0.551-0.796-1.513-1.246-2.468-1.281-0.1433-0.0052-0.29695-0.01358-0.4375 0zm7.375 4.6875c-0.09496 0.22599-0.204 0.47012-0.3125 0.71875-0.36011 0.82491-0.72822 1.6379-1.25 2.375-0.44856 0.63388-1.0479 1.2138-1.4062 1.9062-0.23071 0.44589-0.37667 0.93432-0.28125 1.4375 0.01096 0.05764 0.04222 0.10648 0.0625 0.15625 0.05541-0.20564 0.11937-0.40167 0.21875-0.59375 0.35839-0.69247 0.95769-1.2724 1.4062-1.9062 0.52178-0.73713 0.88989-1.5501 1.25-2.375 0.26598-0.60948 0.65164-1.0911 0.3125-1.7188zm-7.9688 0.15625c-0.0533 1.0126 0.16859 1.9999 0.21875 3.0312 0.0036 0.07361 0.02422 0.18625 0.03125 0.28125 0.06076-0.45517-0.01629-0.97362-0.03125-1.2812-0.03344-0.68757-0.16241-1.3585-0.21875-2.0312zm-4.9375 7.4375c-0.1089-0.0084-0.22061 0.01361-0.34375 0.03125-1.0259 0.14682-1.3458 0.94728-1.1562 1.875 0.14381-0.45941 0.5279-0.78508 1.1562-0.875 0.12314-0.01764 0.23485-0.03965 0.34375-0.03125 0.76228 0.05869 1.2079 0.71307 1.6875 1.3125 0.89541 1.1192 1.8273 2.223 3 3.0625 1.4507 1.0382 3.3415 1.4377 5.0938 1.1562 0.58646-0.0941 1.1803-0.24266 1.75-0.40625 0.32306-0.09279 0.69033-0.24326 1.0312-0.1875 0.11919 0.0196 0.26803 0.03777 0.375 0.09375 0.06773 0.03544 0.10858 0.08219 0.15625 0.125 0.27071-0.38514 0.34653-0.86193-0.15625-1.125-0.10697-0.05598-0.25581-0.07415-0.375-0.09375-0.34092-0.05576-0.70819 0.09471-1.0312 0.1875-0.56969 0.16359-1.1635 0.31215-1.75 0.40625-1.7522 0.28143-3.6431-0.11809-5.0938-1.1562-1.1727-0.83951-2.1046-1.9433-3-3.0625-0.47959-0.59943-0.92522-1.2538-1.6875-1.3125zm-1.25 5.78c-0.15512 0.0016-0.31398 0.01502-0.4375 0.03125-0.26099 0.03442-0.55773 0.02347-0.78125 0.1875-0.33023 0.2424-0.17481 0.66668 0.03125 1 0.22067-0.14752 0.49771-0.15423 0.75-0.1875 0.12352-0.01623 0.28238-0.02965 0.4375-0.03125s0.31877 0.02177 0.4375 0.0625c0.50998 0.17492 0.91927 0.74762 1.3125 1.0938 0.64662 0.56918 1.3094 1.0796 2.0625 1.5 1.9158 1.0687 4.2699 1.7274 6.4688 1.7812 0.83896 0.02048 1.6658 0.02257 2.5-0.09375 0.35271-0.04901 0.91363-0.25189 1.25-0.09375 0.28161 0.13251 0.51159 0.43536 0.625 0.78125 0.19881-0.63748-0.07393-1.5219-0.625-1.7812-0.33637-0.15814-0.89729 0.04474-1.25 0.09375-0.83417 0.11632-1.661 0.11423-2.5 0.09375-2.1988-0.0538-4.5529-0.71259-6.4688-1.7812-0.75312-0.42041-1.4159-0.93082-2.0625-1.5-0.393-0.345-0.803-0.918-1.312-1.093-0.119-0.041-0.283-0.064-0.438-0.063zm18.156 4.0625c-0.04706 1.0711 0.11524 2.1323 0.28125 3.1875 0.0171 0.10867 0.01779 0.2315 0.03125 0.34375 0.0704-0.44567 0.03738-0.9075-0.03125-1.3438-0.11461-0.72846-0.23785-1.452-0.28125-2.1875zm-18.062 0.876c-0.37164 0.04161-0.66182 0.22423-0.90625 0.5-0.1684 0.18994-0.30952 0.35414-0.40625 0.59375-0.15066 0.37266-0.13561 0.74524-0.03125 1.0938 0.01057-0.03143 0.0185-0.06223 0.03125-0.09375 0.09673-0.23961 0.23785-0.4038 0.40625-0.59375 0.24443-0.27577 0.53461-0.45839 0.90625-0.5 0.38475-0.04291 0.7486 0.24906 1 0.5 0.58189 0.58073 0.98857 1.2957 1.5312 1.9062 0.16601 0.18668 0.39114 0.32542 0.59375 0.46875 0.67794 0.47966 1.4441 0.80491 2.2188 1.0938 0.90804 0.3385 1.8733 0.57768 2.8125 0.8125 1.0995 0.27512 2.1091 0.54457 3.25 0.40625 0.86619-0.10478 1.7243-0.36207 2.5312-0.6875 0.34182-0.13767 0.77936-0.48054 1.1562-0.34375 0.05301 0.01926 0.08355 0.03932 0.125 0.0625 0.30896-0.35691 0.47197-0.84561-0.125-1.0625-0.376-0.137-0.814 0.206-1.156 0.344-0.807 0.325-1.665 0.583-2.531 0.688-1.141 0.138-2.15-0.132-3.25-0.407-0.939-0.235-1.904-0.474-2.812-0.812-0.775-0.289-1.541-0.614-2.219-1.094-0.203-0.143-0.428-0.282-0.594-0.469-0.543-0.61-0.949-1.325-1.531-1.906-0.2514-0.25094-0.61525-0.54291-1-0.5z"/>
  <path id="path5768" style="opacity:.3;fill:url(#linearGradient3226)" d="m11.969 6c2.1193 8.5208 4.5625 18.487 4.5625 18.844l2.437-18.844h-6.969c-0.01036 0-0.0209-0.0000519-0.03125 0z"/>
  <path id="path5766" style="opacity:.4;fill:url(#linearGradient5782)" d="m30.469 6-8.844 28.312 18.969-28.312h-10.125z"/>
  <path id="path5764" style="opacity:.5;fill:url(#linearGradient5784)" d="m54.969 6-26.969 28.875 43.906-28.875h-16.937z"/>
  <path id="path5762" style="opacity:.5;fill:url(#linearGradient5770)" d="m90 13.094-59.469 24.344 59.469-9.188v-15.156z"/>
  <path id="path5760" style="opacity:.5;fill:url(#linearGradient5774)" d="m31.688 41.812 58.312 11.594v-11.468l-58.312-0.126z"/>
  <path id="path5758" style="opacity:.4;fill:url(#linearGradient5776)" d="m27.844 44.656 38.25 25.344h17.906c1.9412 0 3.6547-0.92237 4.75-2.3438l-60.906-23z"/>
  <path id="path4224" style="opacity:.3;fill:url(#linearGradient5778)" d="m28 48.312 14.938 22.438 1.062-0.75h5.188l-21.188-21.688z"/>
 </g>
</svg>
