<?xml version="1.0" encoding="UTF-8" standalone="no"?>
<!-- Created with Inkscape (http://www.inkscape.org/) -->
<svg id="svg2408" xmlns:rdf="http://www.w3.org/1999/02/22-rdf-syntax-ns#" xmlns="http://www.w3.org/2000/svg" height="96" width="96" version="1.0" xmlns:cc="http://creativecommons.org/ns#" xmlns:xlink="http://www.w3.org/1999/xlink" xmlns:dc="http://purl.org/dc/elements/1.1/">
 <defs id="defs2410">
  <linearGradient id="linearGradient4232">
   <stop id="stop4234" style="stop-color:#fff" offset="0"/>
   <stop id="stop4236" style="stop-color:#fff;stop-opacity:0" offset="1"/>
  </linearGradient>
  <linearGradient id="linearGradient3704">
   <stop id="stop3706" style="stop-color:#fff;stop-opacity:0" offset="0"/>
   <stop id="stop3714" style="stop-color:#fff" offset="0.15"/>
   <stop id="stop3716" style="stop-color:#fff" offset="0.7"/>
   <stop id="stop3708" style="stop-color:#fff;stop-opacity:0" offset="1"/>
  </linearGradient>
  <linearGradient id="ButtonShadow" y2="7.0165" gradientUnits="userSpaceOnUse" x2="45.448" gradientTransform="scale(1.0059 .99417)" y1="92.54" x1="45.448">
   <stop id="stop3750" offset="0"/>
   <stop id="stop3752" style="stop-opacity:.58824" offset="1"/>
  </linearGradient>
  <linearGradient id="linearGradient3706" y2="5.9877" gradientUnits="userSpaceOnUse" x2="48" y1="90" x1="48">
   <stop id="stop3702" style="stop-color:#4885bd" offset="0"/>
   <stop id="stop3704" style="stop-color:#91b5d7" offset="1"/>
  </linearGradient>
  <filter id="filter3174" color-interpolation-filters="sRGB">
   <feGaussianBlur id="feGaussianBlur3176" stdDeviation="1.71"/>
  </filter>
  <linearGradient id="ButtonShadow-0" y2="7.0165" gradientUnits="userSpaceOnUse" x2="45.448" gradientTransform="matrix(1.0059 0 0 .99417 100 0)" y1="92.54" x1="45.448">
   <stop id="stop3750-8" offset="0"/>
   <stop id="stop3752-5" style="stop-opacity:.58824" offset="1"/>
  </linearGradient>
  <linearGradient id="linearGradient3780" y2="90.239" xlink:href="#ButtonShadow-0" gradientUnits="userSpaceOnUse" x2="32.251" gradientTransform="matrix(1.0238 0 0 1.0119 -1.1429 -98.071)" y1="6.1317" x1="32.251"/>
  <linearGradient id="linearGradient3721" y2="90.239" xlink:href="#ButtonShadow-0" gradientUnits="userSpaceOnUse" x2="32.251" gradientTransform="translate(0,-97)" y1="6.1317" x1="32.251"/>
  <radialGradient id="radialGradient2886" gradientUnits="userSpaceOnUse" cy="90.172" cx="48" gradientTransform="matrix(1.1573 0 0 .99591 -7.551 .19713)" r="42">
   <stop id="stop3739-6" style="stop-color:#fff" offset="0"/>
   <stop id="stop3741-0" style="stop-color:#fff;stop-opacity:0" offset="1"/>
  </radialGradient>
  <linearGradient id="linearGradient3923" y2="63.893" gradientUnits="userSpaceOnUse" x2="36.357" y1="6" x1="36.357">
   <stop id="stop3739-9" style="stop-color:#fff" offset="0"/>
   <stop id="stop3741-3" style="stop-color:#fff;stop-opacity:0" offset="1"/>
  </linearGradient>
  <linearGradient id="linearGradient3710" y2="11.5" xlink:href="#linearGradient3704" gradientUnits="userSpaceOnUse" x2="69" gradientTransform="matrix(1.3572 0 0 1 -5.572 13)" y1="11.5" x1="10"/>
  <linearGradient id="linearGradient3720" y2="11.5" xlink:href="#linearGradient3704" gradientUnits="userSpaceOnUse" x2="69" gradientTransform="matrix(1.0007 0 0 .83642 5.9933 -25.119)" y1="11.5" x1="10"/>
  <linearGradient id="linearGradient3726" y2="11.5" xlink:href="#linearGradient3704" gradientUnits="userSpaceOnUse" x2="69" gradientTransform="matrix(.99976 0 0 .83079 7.0024 -90.054)" y1="11.5" x1="10"/>
  <linearGradient id="linearGradient3729" y2="11.5" xlink:href="#linearGradient3704" gradientUnits="userSpaceOnUse" x2="69" gradientTransform="matrix(1.1017 0 0 1 -96.017 -86)" y1="11.5" x1="10"/>
  <clipPath id="clipPath3613">
   <rect id="rect3615" style="fill:#fff" rx="6" ry="6" height="84" width="84" y="6" x="6"/>
  </clipPath>
  <filter id="filter3794" height="1.384" width="1.384" color-interpolation-filters="sRGB" y="-.192" x="-.192">
   <feGaussianBlur id="feGaussianBlur3796" stdDeviation="5.28"/>
  </filter>
  <linearGradient id="linearGradient2919" y2="138.66" gradientUnits="userSpaceOnUse" x2="48" y1="20.221" x1="48">
   <stop id="stop3739-2" style="stop-color:#fff" offset="0"/>
   <stop id="stop3741-1" style="stop-color:#fff;stop-opacity:0" offset="1"/>
  </linearGradient>
  <linearGradient id="linearGradient4204" y2="11.5" xlink:href="#linearGradient3704" gradientUnits="userSpaceOnUse" x2="69" gradientTransform="matrix(1.2301 0 0 1 -2.3012 21)" y1="11.5" x1="10"/>
  <linearGradient id="linearGradient4238" y2="41" xlink:href="#linearGradient4232" gradientUnits="userSpaceOnUse" x2="78" y1="41" x1="38"/>
  <linearGradient id="linearGradient4290" y2="51" xlink:href="#linearGradient4232" gradientUnits="userSpaceOnUse" x2="89" y1="51.314" x1="36"/>
  <linearGradient id="linearGradient4292" y2="41" xlink:href="#linearGradient4232" gradientUnits="userSpaceOnUse" x2="89" y1="41" x1="38"/>
  <linearGradient id="linearGradient4331" y2="55" gradientUnits="userSpaceOnUse" x2="66" gradientTransform="matrix(1.3125 0 0 1.3125 -24.311 -30.25)" y1="84" x1="66">
   <stop id="stop4327" style="stop-color:#d88215" offset="0"/>
   <stop id="stop4329" style="stop-color:#efc259" offset="1"/>
  </linearGradient>
  <filter id="filter3495" height="1.3333" width="1.8571" color-interpolation-filters="sRGB" y="-.16667" x="-.42857">
   <feGaussianBlur id="feGaussianBlur3497" stdDeviation="0.55242721"/>
  </filter>
  <filter id="filter3509" height="1.3534" width="1.3669" color-interpolation-filters="sRGB" y="-.17668" x="-.18344">
   <feGaussianBlur id="feGaussianBlur3511" stdDeviation="0.65925"/>
  </filter>
  <linearGradient id="linearGradient3339">
   <stop id="stop3341" offset="0"/>
   <stop id="stop3347" style="stop-opacity:.49804" offset="0.7"/>
   <stop id="stop3343" style="stop-opacity:0" offset="1"/>
  </linearGradient>
  <filter id="filter3382" height="1.2274" width="1.8632" color-interpolation-filters="sRGB" y="-.11371" x="-.43161">
   <feGaussianBlur id="feGaussianBlur3384" stdDeviation="0.73914765"/>
  </filter>
  <filter id="filter3390" height="1.2988" width="2.2196" color-interpolation-filters="sRGB" y="-.1494" x="-.60980">
   <feGaussianBlur id="feGaussianBlur3392" stdDeviation="0.77812506"/>
  </filter>
  <linearGradient id="linearGradient3355">
   <stop id="stop3357" style="stop-color:#fff" offset="0"/>
   <stop id="stop3359" style="stop-color:#fff;stop-opacity:.49804" offset="0.7"/>
   <stop id="stop3361" style="stop-color:#fff;stop-opacity:0" offset="1"/>
  </linearGradient>
  <filter id="filter3451" height="1.2715" width="3.0699" color-interpolation-filters="sRGB" y="-.13574" x="-1.035">
   <feGaussianBlur id="feGaussianBlur3453" stdDeviation="0.9498173"/>
  </filter>
  <filter id="filter3457" height="1.2754" width="2.8667" color-interpolation-filters="sRGB" y="-.13770" x="-.93333">
   <feGaussianBlur id="feGaussianBlur3459" stdDeviation="0.92807767"/>
  </filter>
  <linearGradient id="linearGradient4666" y2="115.49" gradientUnits="userSpaceOnUse" x2="149.53" y1="115.49" x1="136.41">
   <stop id="stop3487" style="stop-color:#e6605b" offset="0"/>
   <stop id="stop3489" style="stop-color:#f08682" offset="1"/>
  </linearGradient>
  <linearGradient id="linearGradient4668" y2="116.47" xlink:href="#linearGradient3339" gradientUnits="userSpaceOnUse" x2="148.53" gradientTransform="matrix(1.0894 0 0 1 -13.276 0)" y1="116.47" x1="137.41"/>
  <linearGradient id="linearGradient4670" y2="60" gradientUnits="userSpaceOnUse" x2="150" gradientTransform="translate(-23.733)" y1="60" x1="136">
   <stop id="stop3280" offset="0"/>
   <stop id="stop3290" style="stop-color:#282828" offset=".25"/>
   <stop id="stop3286" style="stop-color:#3c3c3c" offset="0.3"/>
   <stop id="stop3288" style="stop-color:#646464" offset="0.7"/>
   <stop id="stop3292" style="stop-color:#787878" offset=".75"/>
   <stop id="stop3282" style="stop-color:#a0a0a0" offset="1"/>
  </linearGradient>
  <linearGradient id="linearGradient4672" y2="120.02" gradientUnits="userSpaceOnUse" x2="143" gradientTransform="translate(-23.733)" y1="0.0000024" x1="143">
   <stop id="stop3256" offset="0"/>
   <stop id="stop3266" offset=".065884"/>
   <stop id="stop3264" style="stop-color:#ad5f1b" offset=".07"/>
   <stop id="stop3268" style="stop-color:#ad601a" offset=".19137"/>
   <stop id="stop3262" offset=".20983"/>
   <stop id="stop3258" offset="1"/>
  </linearGradient>
  <linearGradient id="linearGradient4674" y2="4.9219" gradientUnits="userSpaceOnUse" x2="144.81" gradientTransform="translate(-23.733)" y1="4.9219" x1="141.25">
   <stop id="stop3396" offset="0"/>
   <stop id="stop3402" style="stop-color:#7d7d7d" offset=".5"/>
   <stop id="stop3398" offset="1"/>
  </linearGradient>
  <linearGradient id="linearGradient4676" y2="17.043" gradientUnits="userSpaceOnUse" x2="149" gradientTransform="translate(-23.733)" y1="17.043" x1="136.99">
   <stop id="stop3310" style="stop-color:#da8539" offset="0"/>
   <stop id="stop3312" style="stop-color:#fadfc7" offset="1"/>
  </linearGradient>
  <linearGradient id="linearGradient4678" y2="66" xlink:href="#linearGradient4232" gradientUnits="userSpaceOnUse" x2="146.08" gradientTransform="matrix(1 0 0 1.2654 -23.733 -54.364)" y1="118.94" x1="146.11"/>
  <linearGradient id="linearGradient4680" y2="66" xlink:href="#linearGradient4232" gradientUnits="userSpaceOnUse" x2="146.08" gradientTransform="matrix(1 0 0 1.2654 -29.858 -54.364)" y1="118.94" x1="146.11"/>
  <linearGradient id="linearGradient4682" y2="106" gradientUnits="userSpaceOnUse" x2="150" y1="106" x1="136">
   <stop id="stop3403" style="stop-color:#404040" offset="0"/>
   <stop id="stop3447" style="stop-color:#808080" offset=".2"/>
   <stop id="stop3410" style="stop-color:#efefef" offset="0.7"/>
   <stop id="stop3405" style="stop-color:#dcdcdc" offset="1"/>
  </linearGradient>
  <linearGradient id="linearGradient4684" y2="106" gradientUnits="userSpaceOnUse" x2="150" y1="106" x1="136">
   <stop id="stop3463" style="stop-color:#444542" offset="0"/>
   <stop id="stop3465" style="stop-color:#71746e" offset="1"/>
  </linearGradient>
  <linearGradient id="linearGradient4686" y2="98.951" xlink:href="#linearGradient3339" spreadMethod="reflect" gradientUnits="userSpaceOnUse" x2="148.96" gradientTransform="translate(.042252 1.5494)" y1="98.951" x1="142.96"/>
  <linearGradient id="linearGradient4688" y2="98.951" xlink:href="#linearGradient3355" spreadMethod="reflect" gradientUnits="userSpaceOnUse" x2="148.96" gradientTransform="translate(.042252 2.5494)" y1="98.951" x1="142.96"/>
  <linearGradient id="linearGradient4690" y2="98.951" xlink:href="#linearGradient3339" spreadMethod="reflect" gradientUnits="userSpaceOnUse" x2="148.96" gradientTransform="translate(.042252 3.5494)" y1="98.951" x1="142.96"/>
  <linearGradient id="linearGradient4692" y2="98.951" xlink:href="#linearGradient3355" spreadMethod="reflect" gradientUnits="userSpaceOnUse" x2="148.96" gradientTransform="translate(.042252 4.5494)" y1="98.951" x1="142.96"/>
  <linearGradient id="linearGradient4694" y2="98.951" xlink:href="#linearGradient3339" spreadMethod="reflect" gradientUnits="userSpaceOnUse" x2="148.96" gradientTransform="translate(.042252 9.5494)" y1="98.951" x1="142.96"/>
  <linearGradient id="linearGradient4696" y2="98.951" xlink:href="#linearGradient3355" spreadMethod="reflect" gradientUnits="userSpaceOnUse" x2="148.96" gradientTransform="translate(.042252 10.549)" y1="98.951" x1="142.96"/>
  <linearGradient id="linearGradient4698" y2="98.951" xlink:href="#linearGradient3339" spreadMethod="reflect" gradientUnits="userSpaceOnUse" x2="148.96" gradientTransform="translate(.042252 11.549)" y1="98.951" x1="142.96"/>
  <linearGradient id="linearGradient4700" y2="98.951" xlink:href="#linearGradient3355" spreadMethod="reflect" gradientUnits="userSpaceOnUse" x2="148.96" gradientTransform="translate(.042252 12.549)" y1="98.951" x1="142.96"/>
  <linearGradient id="linearGradient4702" y2="106" spreadMethod="repeat" gradientUnits="userSpaceOnUse" x2="139.03" y1="106" x1="137">
   <stop id="stop3441" style="stop-color:#3d3d3d" offset="0"/>
   <stop id="stop3443" style="stop-color:#fff" offset="1"/>
  </linearGradient>
 </defs>
 <metadata id="metadata2413">
  <rdf:RDF>
   <cc:Work rdf:about="">
    <dc:format>image/svg+xml</dc:format>
    <dc:type rdf:resource="http://purl.org/dc/dcmitype/StillImage"/>
    <dc:title/>
   </cc:Work>
  </rdf:RDF>
 </metadata>
 <g id="layer2" style="display:none">
  <rect id="rect3745" style="opacity:.9;filter:url(#filter3174);fill:url(#ButtonShadow)" rx="6" ry="6" height="85" width="86" y="7" x="5"/>
 </g>
 <g id="layer6">
  <path id="path3786" style="opacity:0.08;fill:url(#linearGradient3780)" d="m12-95.031c-5.5111 0-10.031 4.5202-10.031 10.031v71c0 5.5111 4.5202 10.031 10.031 10.031h72c5.5111 0 10.031-4.5202 10.031-10.031v-71c0-5.5111-4.5202-10.031-10.031-10.031h-72z" transform="scale(1,-1)"/>
  <path id="path3778" style="opacity:.1;fill:url(#linearGradient3780)" d="m12-94.031c-4.9716 0-9.0312 4.0596-9.0312 9.0312v71c0 4.9716 4.0596 9.0312 9.0312 9.0312h72c4.9716 0 9.0312-4.0596 9.0312-9.0312v-71c0-4.9716-4.0596-9.0312-9.0312-9.0312h-72z" transform="scale(1,-1)"/>
  <path id="path3770" style="opacity:.2;fill:url(#linearGradient3780)" d="m12-93c-4.4091 0-8 3.5909-8 8v71c0 4.4091 3.5909 8 8 8h72c4.4091 0 8-3.5909 8-8v-71c0-4.4091-3.5909-8-8-8h-72z" transform="scale(1,-1)"/>
  <rect id="rect3723" style="opacity:.3;fill:url(#linearGradient3780)" transform="scale(1,-1)" rx="7" ry="7" height="85" width="86" y="-92" x="5"/>
  <rect id="rect3716" style="opacity:.45;fill:url(#linearGradient3721)" transform="scale(1,-1)" rx="6" ry="6" height="84" width="84" y="-91" x="6"/>
 </g>
 <g id="layer1">
  <rect id="rect2419" style="fill:url(#linearGradient3706)" rx="6" ry="6" height="84" width="84" y="6" x="6"/>
  <path id="rect3728" style="opacity:.4;fill:url(#linearGradient3923)" d="m12 6c-3.324 0-6 2.676-6 6v2 68 2c0 0.33472 0.04135 0.6507 0.09375 0.96875 0.0487 0.2956 0.09704 0.59692 0.1875 0.875 0.0099 0.03038 0.02089 0.0636 0.03125 0.09375 0.09886 0.28777 0.23488 0.54745 0.375 0.8125 0.14459 0.27351 0.31562 0.53562 0.5 0.78125 0.18438 0.24564 0.37378 0.47347 0.59375 0.6875 0.43995 0.42806 0.94291 0.81453 1.5 1.0938 0.27854 0.13961 0.57347 0.24695 0.875 0.34375-0.2562-0.10022-0.48671-0.23627-0.71875-0.375-0.0074-0.0044-0.02387 0.0045-0.03125 0-0.03193-0.0193-0.06229-0.04251-0.09375-0.0625-0.1204-0.0767-0.23102-0.16351-0.34375-0.25-0.10617-0.0808-0.21328-0.16111-0.3125-0.25-0.1778-0.162-0.3473-0.346-0.4999-0.531-0.1075-0.131-0.2183-0.266-0.3124-0.407-0.0251-0.038-0.0385-0.086-0.0626-0.125-0.0647-0.103-0.1302-0.204-0.1874-0.312-0.1011-0.195-0.2057-0.416-0.2813-0.625-0.008-0.022-0.0236-0.041-0.0313-0.063-0.0318-0.092-0.0358-0.187-0.0624-0.281-0.0304-0.107-0.0704-0.203-0.0938-0.313-0.0729-0.341-0.125-0.698-0.125-1.062v-2-68-2c0-2.782 2.2182-5 5-5h2 68 2c2.7818 0 5 2.2182 5 5v2 68 2c0 0.3643-0.05212 0.72099-0.125 1.0625-0.04415 0.20689-0.08838 0.39766-0.15625 0.59375-0.0077 0.02195-0.0233 0.04069-0.03125 0.0625-0.06274 0.17374-0.13838 0.36745-0.21875 0.53125-0.04158 0.0828-0.07904 0.16995-0.125 0.25-0.0546 0.09721-0.12677 0.18835-0.1875 0.28125-0.09411 0.14096-0.20492 0.276-0.3125 0.40625-0.14317 0.17445-0.30314 0.347-0.46875 0.5-0.01117 0.0102-0.01998 0.02115-0.03125 0.03125-0.13839 0.12556-0.28509 0.23444-0.4375 0.34375-0.10257 0.07315-0.20432 0.15336-0.3125 0.21875-0.0074 0.0045-0.02384-0.0044-0.03125 0-0.23204 0.13873-0.46255 0.27478-0.71875 0.375 0.30153-0.0968 0.59646-0.20414 0.875-0.34375 0.55709-0.27922 1.0601-0.66569 1.5-1.0938 0.21997-0.21403 0.40937-0.44186 0.59375-0.6875s0.35541-0.50774 0.5-0.78125c0.14012-0.26505 0.27614-0.52473 0.375-0.8125 0.01041-0.03078 0.02133-0.06274 0.03125-0.09375 0.09046-0.27808 0.1388-0.5794 0.1875-0.875 0.053-0.318 0.094-0.634 0.094-0.969v-2-68-2c0-3.324-2.676-6-6-6h-72z"/>
  <path id="path3615" style="opacity:.2;fill:url(#radialGradient2886)" d="m12 90c-3.324 0-6-2.676-6-6v-2-68-2c0-0.33472 0.04135-0.6507 0.09375-0.96875 0.0487-0.2956 0.09704-0.59692 0.1875-0.875 0.0099-0.03 0.0209-0.063 0.0313-0.094 0.0989-0.2873 0.2349-0.547 0.375-0.812 0.1446-0.2735 0.3156-0.5356 0.5-0.7812 0.1844-0.2457 0.3738-0.4735 0.5937-0.6876 0.44-0.428 0.943-0.8145 1.5-1.0937 0.2786-0.1396 0.5735-0.2469 0.8748-0.3437-0.256 0.1002-0.4865 0.2362-0.7185 0.375-0.00741 0.0044-0.023866-0.0045-0.03125 0-0.031933 0.0193-0.062293 0.04251-0.09375 0.0625-0.1204 0.0767-0.23102 0.16351-0.34375 0.25-0.10617 0.0808-0.21328 0.16111-0.3125 0.25-0.1779 0.1614-0.3474 0.3453-0.5 0.5312-0.1075 0.1303-0.2183 0.2653-0.3124 0.4063-0.0251 0.0383-0.0385 0.0858-0.0626 0.125-0.0647 0.103-0.1302 0.2045-0.1874 0.3124-0.1011 0.1948-0.2057 0.4158-0.2813 0.625-0.008 0.0219-0.0236 0.0406-0.0313 0.0626-0.0318 0.0919-0.0358 0.1868-0.0624 0.2812-0.0304 0.1066-0.0704 0.203-0.0938 0.3125-0.0729 0.3415-0.125 0.6985-0.125 1.0625v2 68 2c0 2.7818 2.2182 5 5 5h2 68 2c2.7818 0 5-2.2182 5-5v-2-68-2c0-0.364-0.052-0.721-0.125-1.0625-0.044-0.2069-0.088-0.3977-0.156-0.5937-0.008-0.022-0.024-0.0407-0.031-0.0626-0.063-0.1737-0.139-0.3674-0.219-0.5312-0.042-0.0828-0.079-0.17-0.125-0.25-0.055-0.0972-0.127-0.1884-0.188-0.2812-0.094-0.141-0.205-0.276-0.312-0.4063-0.143-0.1745-0.303-0.347-0.469-0.5-0.011-0.0102-0.02-0.0211-0.031-0.0313-0.139-0.1255-0.285-0.2344-0.438-0.3437-0.102-0.0731-0.204-0.1534-0.312-0.2187-0.0074-0.0045-0.02384 0.0044-0.03125 0-0.23204-0.13873-0.46255-0.27478-0.71875-0.375 0.30153 0.0968 0.59646 0.20414 0.875 0.34375 0.55709 0.27922 1.0601 0.66569 1.5 1.0938 0.21997 0.21403 0.40937 0.44186 0.59375 0.6875s0.35541 0.50774 0.5 0.78125c0.14012 0.26505 0.27614 0.52473 0.375 0.8125 0.01041 0.03078 0.02133 0.06274 0.03125 0.09375 0.09046 0.27808 0.1388 0.5794 0.1875 0.875 0.053 0.318 0.094 0.634 0.094 0.969v2 68 2c0 3.324-2.676 6-6 6h-72z"/>
  <rect id="rect3654" style="fill:#f0f" rx="6" ry="6" height="84" width="84" y="6" x="-94"/>
  <rect id="rect3797" style="stroke-width:.5;color:#000000;stroke-dashoffset:8.6;stroke:#000;stroke-linecap:round;fill:#fff" height="16" width="16" y="8" x="112"/>
  <text id="text3799" y="11.969256" x="131.39261" xml:space="preserve" style="font-size:4px;line-height:125%;font-family:Liberation Sans;fill:#000000"><tspan id="tspan3801" y="11.969256" x="131.39261">Width: 2px</tspan><tspan id="tspan3803" y="16.969257" x="131.39261">Blur: 12</tspan><tspan id="tspan3807" y="21.969257" x="131.39261">Opacity: 60</tspan></text>
  <path id="rect3679" style="opacity:.1;color:#000000;fill:#fff" d="m6 16v1h84v-1h-84zm0 16v1h84v-1h-84zm0 16v1h84v-1h-84zm0 16v1h84v-1h-84zm0 16v1h84v-1h-84z"/>
  <path id="rect3689" style="opacity:.1;color:#000000;fill:#fff" d="m80 6h-1v84h1v-84zm-16 0h-1v84h1v-84zm-16 0h-1v84h1v-84zm-16 0h-1v84h1v-84zm-16 0h-1v84h1v-84z"/>
 </g>
 <g id="layer4">
  <rect id="rect3171" style="opacity:.15;filter:url(#filter3794);stroke:#fff;stroke-linecap:round;stroke-width:.5;fill:url(#linearGradient2919)" clip-path="url(#clipPath3613)" rx="12" ry="12" height="66" width="66" y="15" x="15"/>
 </g>
 <g id="layer3">
  <rect id="rect3702" style="opacity:.7;color:#000000;fill:url(#linearGradient3710)" height="1" width="80.075" y="24" x="8"/>
  <rect id="rect3718" style="opacity:.7;color:#000000;fill:url(#linearGradient3720)" transform="rotate(90)" height=".83642" width="59.04" y="-15.918" x="16"/>
  <rect id="rect3722" style="opacity:.7;color:#000000;fill:url(#linearGradient3726)" transform="rotate(90)" height=".83079" width="58.986" y="-80.915" x="17"/>
  <rect id="rect3724" style="opacity:.7;color:#000000;fill:url(#linearGradient3729)" transform="scale(-1)" height="1" width="65" y="-75" x="-85"/>
  <rect id="rect4202" style="opacity:.5;color:#000000;fill:url(#linearGradient4204)" height="1" width="72.577" y="32" x="10"/>
  <path id="path4214" style="opacity:.6;color:#000000;fill:#fff" d="m76 29a2 2 0 1 1 -4 0 2 2 0 1 1 4 0z" transform="translate(2)"/>
  <path id="path4216" style="opacity:.4;color:#000000;fill:#fff" d="m76 29a2 2 0 1 1 -4 0 2 2 0 1 1 4 0z" transform="translate(-4)"/>
  <path id="path4218" style="opacity:.4;color:#000000;fill:#fff" d="m76 29a2 2 0 1 1 -4 0 2 2 0 1 1 4 0z" transform="translate(-10)"/>
  <path id="path4220" style="opacity:.6;stroke-width:1.2;color:#000000;stroke:#fff;fill:none" d="m30 43a3 3 0 1 1 -6 0 3 3 0 1 1 6 0z" transform="matrix(.83333 0 0 .83333 2.5 5.1667)"/>
  <path id="path4222" style="opacity:.6;stroke-width:1.2;color:#000000;stroke:#fff;fill:none" d="m30 43a3 3 0 1 1 -6 0 3 3 0 1 1 6 0z" transform="matrix(.83333 0 0 .83333 2.5 15.167)"/>
  <g id="text4224" style="opacity:.6;fill:url(#linearGradient4238)">
   <path id="path4243" d="m31.457 43v-3.9547h2.6478v0.74756h-1.7576v0.82745h1.5636v0.74756h-1.5636v1.6321h-0.89022"/>
   <path id="path4245" d="m35.527 43h-0.85028v-3.0017h0.85028v3.0017m0.07989-3.8691c-0.000002 0.15598-0.05136 0.27962-0.15408 0.37093-0.09891 0.0875-0.21685 0.13125-0.35381 0.13125-0.13696 0.000003-0.2568-0.04375-0.35951-0.13125-0.09891-0.0913-0.14837-0.21494-0.14837-0.37093-0.000001-0.15598 0.04946-0.27772 0.14837-0.36522 0.10272-0.0913 0.22256-0.13695 0.35951-0.13696 0.13696 0.000004 0.25489 0.04566 0.35381 0.13696 0.10272 0.08751 0.15408 0.20924 0.15408 0.36522"/>
   <path id="path4247" d="m38.135 40.752c-0.07609-0.01902-0.16549-0.03804-0.26821-0.05707-0.10272-0.02282-0.21305-0.03424-0.33098-0.03424-0.05326 0.000003-0.11794 0.0057-0.19402 0.01712-0.07229 0.0076-0.12745 0.01712-0.16549 0.02853v2.294h-0.85028v-2.8419c0.15217-0.05326 0.33098-0.10272 0.53642-0.14837 0.20924-0.04945 0.44131-0.07418 0.6962-0.07418 0.04565 0.000003 0.10082 0.0038 0.16549 0.01141 0.06467 0.0038 0.12935 0.01142 0.19402 0.02283 0.06467 0.0076 0.12935 0.01902 0.19402 0.03424 0.06467 0.01142 0.11984 0.02663 0.16549 0.04565l-0.14266 0.70191"/>
   <path id="path4249" d="m39.595 42.389c0.15598 0.000001 0.2663-0.01522 0.33098-0.04565 0.06467-0.03043 0.09701-0.0894 0.09701-0.1769-0.000001-0.06848-0.04185-0.12745-0.12554-0.1769-0.0837-0.05326-0.21114-0.11223-0.38234-0.1769-0.13315-0.04946-0.25489-0.10082-0.36522-0.15408-0.10652-0.05326-0.19783-0.11603-0.27392-0.18832-0.07609-0.07609-0.13506-0.16549-0.1769-0.26821-0.04185-0.10272-0.06277-0.22636-0.06277-0.37093 0-0.28152 0.10462-0.50408 0.31386-0.66767 0.20924-0.16358 0.49647-0.24538 0.86169-0.24538 0.18261 0.000003 0.35761 0.01712 0.525 0.05136 0.16739 0.03044 0.30054 0.06468 0.39946 0.10272l-0.14837 0.66196c-0.09892-0.03424-0.20734-0.06467-0.32528-0.0913-0.11413-0.02663-0.24348-0.03994-0.38805-0.03995-0.26631 0.000002-0.39946 0.07419-0.39946 0.22256-0.000001 0.03424 0.0057 0.06468 0.01712 0.0913 0.01141 0.02663 0.03424 0.05326 0.06848 0.07989 0.03424 0.02283 0.07989 0.04946 0.13696 0.07989 0.06087 0.02663 0.13696 0.05707 0.22826 0.0913 0.18641 0.06848 0.34049 0.13696 0.46223 0.20544 0.12174 0.06468 0.21685 0.13696 0.28533 0.21685 0.07228 0.07609 0.12174 0.16169 0.14837 0.2568 0.03043 0.09511 0.04565 0.20544 0.04565 0.33098-0.000002 0.29674-0.11223 0.5212-0.33669 0.67338-0.22066 0.15218-0.53452 0.22826-0.94158 0.22826-0.26631 0-0.48886-0.02283-0.66767-0.06848-0.175-0.04565-0.29674-0.0837-0.36522-0.11413l0.14266-0.6905c0.14457 0.05707 0.29294 0.10272 0.44511 0.13696 0.15217 0.03044 0.30245 0.04565 0.45082 0.04565"/>
   <path id="path4251" d="m41.469 39.251 0.85028-0.13696v0.88452h1.0215v0.70762h-1.0215v1.0557c-0.000001 0.17881 0.03043 0.32147 0.09131 0.42799 0.06467 0.10652 0.19212 0.15978 0.38234 0.15978 0.0913 0.000001 0.18451-0.0076 0.27962-0.02283 0.09891-0.01902 0.18832-0.04375 0.26821-0.07418l0.11984 0.66196c-0.10272 0.04185-0.21685 0.07799-0.34239 0.10842-0.12555 0.03043-0.27962 0.04565-0.46223 0.04565-0.23207 0-0.42419-0.03044-0.57636-0.09131-0.15218-0.06468-0.27392-0.15218-0.36522-0.2625-0.0913-0.11413-0.15598-0.25109-0.19402-0.41087-0.03424-0.15978-0.05136-0.33669-0.05136-0.53071v-2.5223"/>
   <path id="path4253" d="m48.206 41.493c-0.000003 0.23587-0.03424 0.45272-0.10272 0.65055-0.06848 0.19402-0.1674 0.36142-0.29674 0.50218-0.12935 0.13696-0.28533 0.24348-0.46794 0.31957-0.17881 0.07609-0.38044 0.11413-0.6049 0.11413-0.22066 0-0.42229-0.03804-0.6049-0.11413-0.17881-0.07609-0.33288-0.18261-0.46223-0.31957-0.12935-0.14076-0.23017-0.30815-0.30245-0.50218-0.07228-0.19783-0.10842-0.41468-0.10842-0.65055s0.03614-0.45082 0.10842-0.64484c0.07609-0.19402 0.1788-0.35951 0.30815-0.49647 0.13315-0.13696 0.28913-0.24348 0.46794-0.31957 0.18261-0.07608 0.38044-0.11413 0.59348-0.11413 0.21685 0.000003 0.41468 0.03805 0.59348 0.11413 0.18261 0.07609 0.33859 0.18261 0.46794 0.31957s0.23016 0.30245 0.30245 0.49647c0.07228 0.19402 0.10842 0.40897 0.10842 0.64484m-0.8674 0c-0.000002-0.2625-0.05326-0.46794-0.15978-0.61631-0.10272-0.15217-0.25109-0.22826-0.44511-0.22826-0.19402 0.000002-0.3443 0.07609-0.45082 0.22826-0.10652 0.14837-0.15978 0.35381-0.15978 0.61631-0.000001 0.2625 0.05326 0.47174 0.15978 0.62772 0.10652 0.15218 0.25679 0.22826 0.45082 0.22826 0.19402 0.000001 0.34239-0.07609 0.44511-0.22826 0.10652-0.15598 0.15978-0.36522 0.15978-0.62772"/>
   <path id="path4255" d="m50.788 41.522c-0.000003-0.2625-0.05897-0.47174-0.1769-0.62772-0.11794-0.15978-0.29294-0.23967-0.525-0.23968-0.07609 0.000002-0.14647 0.0038-0.21114 0.01141-0.06468 0.0038-0.11794 0.0095-0.15978 0.01712v1.5351c0.05326 0.03424 0.12174 0.06277 0.20544 0.0856 0.0875 0.02283 0.175 0.03424 0.2625 0.03424 0.40326 0.000001 0.60489-0.27201 0.6049-0.81604m0.8674-0.02283c-0.000003 0.23207-0.02854 0.44321-0.0856 0.63343-0.05707 0.19022-0.14076 0.35381-0.25109 0.49076-0.11033 0.13696-0.24729 0.24348-0.41087 0.31957-0.16359 0.07609-0.35191 0.11413-0.56495 0.11413-0.11794 0-0.22826-0.01141-0.33098-0.03424-0.103-0.023-0.202-0.055-0.297-0.097v1.1299h-0.85028v-3.9547c0.07609-0.02282 0.16359-0.04375 0.2625-0.06277 0.09891-0.02282 0.20163-0.04185 0.30816-0.05707 0.11033-0.01521 0.22065-0.02663 0.33098-0.03424 0.11413-0.01141 0.22256-0.01712 0.32527-0.01712 0.24728 0.000003 0.46794 0.03805 0.66196 0.11413 0.19402 0.07229 0.35761 0.17691 0.49076 0.31386 0.13315 0.13316 0.23397 0.29674 0.30245 0.49076 0.07228 0.19402 0.10842 0.41088 0.10842 0.65055"/>
   <path id="path4257" style="fill:url(#linearGradient4292)" d="m52.28 39.251 0.85028-0.13696v0.88452h1.0215v0.70762h-1.0215v1.0557c-0.000001 0.17881 0.03043 0.32147 0.09131 0.42799 0.06467 0.10652 0.19212 0.15978 0.38234 0.15978 0.0913 0.000001 0.18451-0.0076 0.27962-0.02283 0.09891-0.01902 0.18832-0.04375 0.26821-0.07418l0.11984 0.66196c-0.10272 0.04185-0.21685 0.07799-0.34239 0.10842-0.12555 0.03043-0.27962 0.04565-0.46223 0.04565-0.23207 0-0.42419-0.03044-0.57636-0.09131-0.15218-0.06468-0.27392-0.15218-0.36522-0.2625-0.09131-0.11413-0.15598-0.25109-0.19402-0.41087-0.03424-0.15978-0.05136-0.33669-0.05136-0.53071v-2.5223"/>
   <path id="path4259" d="m55.689 43h-0.85028v-3.0017h0.85028v3.0017m0.07989-3.8691c-0.000002 0.15598-0.05136 0.27962-0.15408 0.37093-0.09891 0.0875-0.21685 0.13125-0.35381 0.13125-0.13696 0.000003-0.2568-0.04375-0.35951-0.13125-0.09891-0.0913-0.14837-0.21494-0.14837-0.37093-0.000001-0.15598 0.04946-0.27772 0.14837-0.36522 0.10272-0.0913 0.22256-0.13695 0.35951-0.13696 0.13696 0.000004 0.25489 0.04566 0.35381 0.13696 0.10272 0.08751 0.15408 0.20924 0.15408 0.36522"/>
   <path id="path4261" d="m59.296 41.493c-0.000003 0.23587-0.03424 0.45272-0.10272 0.65055-0.06848 0.19402-0.1674 0.36142-0.29674 0.50218-0.12935 0.13696-0.28533 0.24348-0.46794 0.31957-0.17881 0.07609-0.38044 0.11413-0.6049 0.11413-0.22066 0-0.42229-0.03804-0.6049-0.11413-0.17881-0.07609-0.33288-0.18261-0.46223-0.31957-0.12935-0.14076-0.23016-0.30815-0.30245-0.50218-0.07228-0.19783-0.10842-0.41468-0.10842-0.65055s0.03614-0.45082 0.10842-0.64484c0.07609-0.19402 0.1788-0.35951 0.30816-0.49647 0.13315-0.13696 0.28913-0.24348 0.46794-0.31957 0.18261-0.07608 0.38044-0.11413 0.59348-0.11413 0.21685 0.000003 0.41468 0.03805 0.59348 0.11413 0.18261 0.07609 0.33859 0.18261 0.46794 0.31957s0.23016 0.30245 0.30245 0.49647c0.07228 0.19402 0.10842 0.40897 0.10842 0.64484m-0.8674 0c-0.000002-0.2625-0.05326-0.46794-0.15978-0.61631-0.10272-0.15217-0.25109-0.22826-0.44511-0.22826-0.19402 0.000002-0.3443 0.07609-0.45082 0.22826-0.10652 0.14837-0.15978 0.35381-0.15978 0.61631-0.000002 0.2625 0.05326 0.47174 0.15978 0.62772 0.10652 0.15218 0.25679 0.22826 0.45082 0.22826 0.19402 0.000001 0.34239-0.07609 0.44511-0.22826 0.10652-0.15598 0.15978-0.36522 0.15978-0.62772"/>
   <path id="path4263" d="m59.955 40.101c0.14457-0.04185 0.33098-0.07989 0.55924-0.11413 0.22826-0.03804 0.46794-0.05706 0.71903-0.05707 0.25489 0.000003 0.46603 0.03424 0.63343 0.10272 0.17119 0.06468 0.30625 0.15788 0.40517 0.27962 0.09891 0.12174 0.16929 0.26631 0.21114 0.4337s0.06277 0.35381 0.06277 0.55924v1.6949h-0.85028v-1.5921c-0.000002-0.27391-0.03614-0.46794-0.10842-0.58207-0.07229-0.11413-0.20734-0.1712-0.40517-0.1712-0.06087 0.000002-0.12555 0.0038-0.19402 0.01141-0.06848 0.0038-0.12935 0.0095-0.18261 0.01712v2.3169h-0.85028v-2.8989"/>
  </g>
  <g id="text4228" style="opacity:.6;fill:url(#linearGradient4290)">
   <path id="path4266" d="m32.535 52.321c0.12554 0.000001 0.22826-0.0095 0.30815-0.02853 0.08369-0.02283 0.15027-0.05136 0.19973-0.0856 0.04945-0.03804 0.08369-0.08179 0.10272-0.13125 0.01902-0.04946 0.02853-0.10462 0.02853-0.16549-0.000002-0.12935-0.06087-0.23587-0.18261-0.31957-0.12174-0.0875-0.33098-0.18071-0.62772-0.27962-0.12935-0.04565-0.2587-0.09701-0.38805-0.15408-0.12935-0.06087-0.24538-0.13505-0.3481-0.22256-0.10272-0.0913-0.18642-0.19973-0.25109-0.32527-0.06467-0.12935-0.09701-0.28533-0.09701-0.46794s0.03424-0.3462 0.10272-0.49076c0.06848-0.14837 0.16549-0.27391 0.29104-0.37663 0.12554-0.10271 0.27772-0.1807 0.45652-0.23397 0.1788-0.05706 0.38044-0.08559 0.6049-0.0856 0.2663 0.000005 0.49647 0.02854 0.69049 0.0856 0.19402 0.05707 0.3538 0.11984 0.47935 0.18832l-0.2568 0.70191c-0.11033-0.05706-0.23397-0.10652-0.37093-0.14837-0.13316-0.04565-0.29484-0.06848-0.48506-0.06848-0.21305 0.000003-0.36712 0.03044-0.46223 0.0913-0.09131 0.05707-0.13696 0.14647-0.13696 0.26821-0.000002 0.07229 0.01712 0.13316 0.05136 0.18261 0.03424 0.04946 0.08179 0.09511 0.14266 0.13696 0.06467 0.03805 0.13696 0.07419 0.21685 0.10842 0.08369 0.03044 0.175 0.06278 0.27392 0.09701 0.20543 0.07609 0.38424 0.15218 0.53642 0.22826 0.15217 0.07229 0.27772 0.15788 0.37663 0.2568 0.10272 0.09892 0.1788 0.21495 0.22826 0.3481 0.04945 0.13316 0.07418 0.29484 0.07419 0.48506-0.000003 0.36903-0.12935 0.65626-0.38805 0.86169-0.2587 0.20163-0.64865 0.30245-1.1698 0.30245-0.175 0-0.33288-0.01141-0.47364-0.03424-0.14076-0.01902-0.26631-0.04375-0.37663-0.07419-0.10652-0.03043-0.19973-0.06277-0.27962-0.09701-0.07609-0.03424-0.14076-0.06658-0.19402-0.09701l0.25109-0.70762c0.11794 0.06468 0.2625 0.12364 0.4337 0.1769 0.175 0.04946 0.38804 0.07419 0.63914 0.07418"/>
   <path id="path4268" d="m34.578 51.522c0-0.2663 0.03995-0.49837 0.11984-0.6962 0.0837-0.20163 0.19212-0.36902 0.32528-0.50218 0.13315-0.13315 0.28533-0.23397 0.45652-0.30245 0.175-0.06848 0.35381-0.10272 0.53642-0.10272 0.42609 0.000003 0.76278 0.13125 1.0101 0.39375 0.24728 0.2587 0.37092 0.64104 0.37093 1.147-0.000003 0.04946-0.0019 0.10462-0.0057 0.16549-0.0038 0.05707-0.0076 0.10843-0.01141 0.15408h-1.9288c0.01902 0.175 0.10082 0.31386 0.24538 0.41658s0.33859 0.15408 0.58207 0.15408c0.15598 0.000001 0.30815-0.01331 0.45652-0.03995 0.15217-0.03043 0.27582-0.06658 0.37093-0.10842l0.11413 0.69049c-0.04566 0.02283-0.10652 0.04565-0.18261 0.06848s-0.16169 0.04185-0.2568 0.05707c-0.09131 0.01902-0.19022 0.03424-0.29674 0.04565s-0.21305 0.01712-0.31957 0.01712c-0.27011 0-0.50598-0.03995-0.70761-0.11984-0.19783-0.07989-0.36332-0.18832-0.49647-0.32527-0.12935-0.14076-0.22636-0.30625-0.29103-0.49647-0.06087-0.19022-0.09131-0.39565-0.09131-0.61631m1.9973-0.32527c-0.0038-0.07228-0.01712-0.14266-0.03995-0.21114-0.01902-0.06848-0.05136-0.12935-0.09701-0.18261-0.04185-0.05326-0.09701-0.09701-0.16549-0.13125-0.06468-0.03424-0.14647-0.05136-0.24538-0.05136-0.09511 0.000003-0.1769 0.01712-0.24538 0.05136-0.06848 0.03044-0.12555 0.07229-0.1712 0.12554-0.04565 0.05326-0.08179 0.11604-0.10842 0.18832-0.02283 0.06848-0.03995 0.13886-0.05136 0.21114h1.1242"/>
   <path id="path4270" d="m37.911 51.499c0-0.21685 0.03424-0.42038 0.10272-0.6106 0.07228-0.19402 0.175-0.36141 0.30816-0.50218 0.13315-0.14456 0.29484-0.2587 0.48506-0.34239s0.40707-0.12554 0.65055-0.12554c0.15978 0.000003 0.30625 0.01522 0.4394 0.04565 0.13315 0.02663 0.2625 0.06658 0.38805 0.11984l-0.1769 0.67908c-0.07989-0.03043-0.16739-0.05706-0.2625-0.07989-0.09511-0.02282-0.20163-0.03424-0.31957-0.03424-0.25109 0.000002-0.43941 0.07799-0.56495 0.23397-0.12174 0.15598-0.18261 0.36142-0.18261 0.61631-0.000001 0.27011 0.05707 0.47935 0.1712 0.62772 0.11794 0.14837 0.32147 0.22256 0.6106 0.22256 0.10272 0.000001 0.21304-0.0095 0.33098-0.02853 0.11793-0.01902 0.22636-0.04946 0.32527-0.0913l0.11984 0.6962c-0.09892 0.04185-0.22256 0.07799-0.37093 0.10842s-0.31196 0.04565-0.49076 0.04565c-0.27392 0-0.50979-0.03995-0.70761-0.11984-0.19783-0.0837-0.36142-0.19592-0.49076-0.33669-0.12554-0.14076-0.21875-0.30625-0.27962-0.49647-0.05707-0.19402-0.0856-0.40326-0.0856-0.62772"/>
   <path id="path4272" d="m43.569 51.493c-0.000003 0.23587-0.03424 0.45272-0.10272 0.65055-0.06848 0.19402-0.1674 0.36142-0.29674 0.50218-0.12935 0.13696-0.28533 0.24348-0.46794 0.31957-0.17881 0.07609-0.38044 0.11413-0.6049 0.11413-0.22066 0-0.42229-0.03804-0.6049-0.11413-0.17881-0.07609-0.33288-0.18261-0.46223-0.31957-0.12935-0.14076-0.23016-0.30815-0.30245-0.50218-0.07228-0.19783-0.10842-0.41468-0.10842-0.65055-0.000001-0.23587 0.03614-0.45082 0.10842-0.64484 0.07609-0.19402 0.17881-0.35951 0.30816-0.49647 0.13315-0.13696 0.28913-0.24348 0.46794-0.31957 0.18261-0.07608 0.38044-0.11413 0.59348-0.11413 0.21685 0.000003 0.41468 0.03805 0.59348 0.11413 0.18261 0.07609 0.33859 0.18261 0.46794 0.31957s0.23016 0.30245 0.30245 0.49647c0.07228 0.19402 0.10842 0.40897 0.10842 0.64484m-0.8674 0c-0.000002-0.2625-0.05326-0.46794-0.15978-0.61631-0.10272-0.15217-0.25109-0.22826-0.44511-0.22826-0.19402 0.000002-0.3443 0.07609-0.45082 0.22826-0.10652 0.14837-0.15978 0.35381-0.15978 0.61631-0.000001 0.2625 0.05326 0.47174 0.15978 0.62772 0.10652 0.15218 0.25679 0.22826 0.45082 0.22826 0.19402 0.000001 0.34239-0.07609 0.44511-0.22826 0.10652-0.15598 0.15978-0.36522 0.15978-0.62772"/>
   <path id="path4274" d="m44.228 50.101c0.14457-0.04185 0.33098-0.07989 0.55924-0.11413 0.22826-0.03804 0.46794-0.05706 0.71903-0.05707 0.25489 0.000003 0.46604 0.03424 0.63343 0.10272 0.1712 0.06468 0.30625 0.15788 0.40517 0.27962 0.09891 0.12174 0.16929 0.26631 0.21114 0.4337s0.06277 0.35381 0.06277 0.55924v1.6949h-0.85028v-1.5921c-0.000002-0.27391-0.03614-0.46794-0.10842-0.58207s-0.20734-0.1712-0.40517-0.1712c-0.06087 0.000002-0.12555 0.0038-0.19402 0.01141-0.06848 0.0038-0.12935 0.0095-0.18261 0.01712v2.3169h-0.85028v-2.8989"/>
   <path id="path4276" d="m48.319 51.476c-0.000001 0.2625 0.05897 0.47365 0.1769 0.63343s0.29294 0.23968 0.525 0.23968c0.07609 0.000001 0.14647-0.0019 0.21114-0.0057 0.06467-0.0076 0.11793-0.01522 0.15978-0.02283v-1.5465c-0.05326-0.03424-0.12364-0.06277-0.21114-0.0856-0.0837-0.02282-0.1693-0.03424-0.2568-0.03424-0.40326 0.000002-0.6049 0.27392-0.6049 0.82174m1.9231 1.4266c-0.07609 0.02283-0.16359 0.04565-0.2625 0.06848-0.09892 0.01902-0.20354 0.03614-0.31386 0.05136-0.10652 0.01522-0.21685 0.02663-0.33098 0.03424-0.11033 0.01141-0.21685 0.01712-0.31957 0.01712-0.24729 0-0.46794-0.03614-0.66196-0.10842s-0.35761-0.175-0.49076-0.30816c-0.13315-0.13696-0.23587-0.30054-0.30816-0.49076-0.06848-0.19402-0.10272-0.41087-0.10272-0.65055 0-0.24348 0.03043-0.46223 0.0913-0.65626 0.06087-0.19782 0.14837-0.36522 0.2625-0.50218s0.25299-0.24158 0.41658-0.31386c0.16739-0.07228 0.35761-0.10842 0.57066-0.10842 0.11793 0.000003 0.22256 0.01142 0.31386 0.03424 0.09511 0.02283 0.19022 0.05517 0.28533 0.09701v-1.3582l0.85028-0.13696v4.3313"/>
   <path id="path4278" d="m55.217 51.493c-0.000003 0.23587-0.03424 0.45272-0.10272 0.65055-0.06848 0.19402-0.1674 0.36142-0.29674 0.50218-0.12935 0.13696-0.28533 0.24348-0.46794 0.31957-0.17881 0.07609-0.38044 0.11413-0.6049 0.11413-0.22066 0-0.42229-0.03804-0.6049-0.11413-0.17881-0.07609-0.33288-0.18261-0.46223-0.31957-0.12935-0.14076-0.23016-0.30815-0.30245-0.50218-0.07228-0.19783-0.10842-0.41468-0.10842-0.65055-0.000001-0.23587 0.03614-0.45082 0.10842-0.64484 0.07609-0.19402 0.17881-0.35951 0.30816-0.49647 0.13315-0.13696 0.28913-0.24348 0.46794-0.31957 0.18261-0.07608 0.38044-0.11413 0.59348-0.11413 0.21685 0.000003 0.41468 0.03805 0.59348 0.11413 0.18261 0.07609 0.33859 0.18261 0.46794 0.31957s0.23016 0.30245 0.30245 0.49647c0.07228 0.19402 0.10842 0.40897 0.10842 0.64484m-0.8674 0c-0.000003-0.2625-0.05326-0.46794-0.15978-0.61631-0.10272-0.15217-0.25109-0.22826-0.44511-0.22826-0.19402 0.000002-0.3443 0.07609-0.45082 0.22826-0.10652 0.14837-0.15978 0.35381-0.15978 0.61631-0.000001 0.2625 0.05326 0.47174 0.15978 0.62772 0.10652 0.15218 0.25679 0.22826 0.45082 0.22826 0.19402 0.000001 0.34239-0.07609 0.44511-0.22826 0.10652-0.15598 0.15978-0.36522 0.15978-0.62772"/>
   <path id="path4280" d="m57.798 51.522c-0.000002-0.2625-0.05897-0.47174-0.1769-0.62772-0.11794-0.15978-0.29294-0.23967-0.525-0.23968-0.07609 0.000002-0.14647 0.0038-0.21114 0.01141-0.06468 0.0038-0.11794 0.0095-0.15978 0.01712v1.5351c0.05326 0.03424 0.12174 0.06277 0.20544 0.0856 0.0875 0.02283 0.175 0.03424 0.2625 0.03424 0.40326 0.000001 0.60489-0.27201 0.6049-0.81604m0.8674-0.02283c-0.000004 0.23207-0.02854 0.44321-0.0856 0.63343-0.05707 0.19022-0.14076 0.35381-0.25109 0.49076-0.11033 0.13696-0.24729 0.24348-0.41087 0.31957-0.16359 0.07609-0.35191 0.11413-0.56495 0.11413-0.11794 0-0.22826-0.01141-0.33098-0.03424-0.102-0.023-0.201-0.055-0.296-0.097v1.1299h-0.85028v-3.9547c0.07609-0.02282 0.16359-0.04375 0.2625-0.06277 0.09891-0.02282 0.20163-0.04185 0.30816-0.05707 0.11033-0.01521 0.22065-0.02663 0.33098-0.03424 0.11413-0.01141 0.22255-0.01712 0.32527-0.01712 0.24728 0.000003 0.46794 0.03805 0.66196 0.11413 0.19402 0.07229 0.35761 0.17691 0.49076 0.31386 0.13315 0.13316 0.23397 0.29674 0.30245 0.49076 0.07228 0.19402 0.10842 0.41088 0.10842 0.65055"/>
   <path id="path4282" d="m59.291 49.251 0.85028-0.13696v0.88452h1.0215v0.70762h-1.0215v1.0557c-0.000001 0.17881 0.03043 0.32147 0.09131 0.42799 0.06467 0.10652 0.19212 0.15978 0.38234 0.15978 0.0913 0.000001 0.18451-0.0076 0.27962-0.02283 0.09891-0.01902 0.18831-0.04375 0.26821-0.07418l0.11984 0.66196c-0.10272 0.04185-0.21685 0.07799-0.34239 0.10842-0.12555 0.03043-0.27962 0.04565-0.46223 0.04565-0.23207 0-0.42419-0.03044-0.57636-0.09131-0.15218-0.06468-0.27392-0.15218-0.36522-0.2625-0.09131-0.11413-0.15598-0.25109-0.19402-0.41087-0.03424-0.15978-0.05136-0.33669-0.05136-0.53071v-2.5223"/>
   <path id="path4284" d="m62.7 53h-0.85028v-3.0017h0.85028v3.0017m0.07989-3.8691c-0.000002 0.15598-0.05136 0.27962-0.15408 0.37093-0.09892 0.0875-0.21685 0.13125-0.35381 0.13125-0.13696 0.000003-0.2568-0.04375-0.35951-0.13125-0.09891-0.0913-0.14837-0.21494-0.14837-0.37093 0-0.15598 0.04946-0.27772 0.14837-0.36522 0.10272-0.0913 0.22256-0.13695 0.35951-0.13696 0.13696 0.000004 0.25489 0.04566 0.35381 0.13696 0.10272 0.08751 0.15408 0.20924 0.15408 0.36522"/>
   <path id="path4286" d="m66.307 51.493c-0.000003 0.23587-0.03424 0.45272-0.10272 0.65055-0.06848 0.19402-0.1674 0.36142-0.29674 0.50218-0.12935 0.13696-0.28533 0.24348-0.46794 0.31957-0.17881 0.07609-0.38044 0.11413-0.6049 0.11413-0.22066 0-0.42229-0.03804-0.6049-0.11413-0.17881-0.07609-0.33288-0.18261-0.46223-0.31957-0.12935-0.14076-0.23017-0.30815-0.30245-0.50218-0.07228-0.19783-0.10842-0.41468-0.10842-0.65055s0.03614-0.45082 0.10842-0.64484c0.07609-0.19402 0.1788-0.35951 0.30815-0.49647 0.13315-0.13696 0.28913-0.24348 0.46794-0.31957 0.18261-0.07608 0.38044-0.11413 0.59348-0.11413 0.21685 0.000003 0.41468 0.03805 0.59348 0.11413 0.18261 0.07609 0.33859 0.18261 0.46794 0.31957 0.12934 0.13696 0.23016 0.30245 0.30245 0.49647 0.07228 0.19402 0.10842 0.40897 0.10842 0.64484m-0.8674 0c-0.000002-0.2625-0.05326-0.46794-0.15978-0.61631-0.10272-0.15217-0.25109-0.22826-0.44511-0.22826-0.19402 0.000002-0.3443 0.07609-0.45082 0.22826-0.10652 0.14837-0.15978 0.35381-0.15978 0.61631-0.000001 0.2625 0.05326 0.47174 0.15978 0.62772 0.10652 0.15218 0.25679 0.22826 0.45082 0.22826 0.19402 0.000001 0.34239-0.07609 0.44511-0.22826 0.10652-0.15598 0.15978-0.36522 0.15978-0.62772"/>
   <path id="path4288" d="m66.965 50.101c0.14457-0.04185 0.33098-0.07989 0.55924-0.11413 0.22826-0.03804 0.46794-0.05706 0.71903-0.05707 0.25489 0.000003 0.46603 0.03424 0.63343 0.10272 0.17119 0.06468 0.30625 0.15788 0.40517 0.27962 0.09891 0.12174 0.16929 0.26631 0.21114 0.4337s0.06277 0.35381 0.06277 0.55924v1.6949h-0.85028v-1.5921c-0.000003-0.27391-0.03614-0.46794-0.10842-0.58207-0.07229-0.11413-0.20734-0.1712-0.40517-0.1712-0.06087 0.000002-0.12555 0.0038-0.19402 0.01141-0.06848 0.0038-0.12935 0.0095-0.18261 0.01712v2.3169h-0.85028v-2.8989"/>
  </g>
  <rect id="rect4294" style="opacity:.5;color:#000000;stroke-dashoffset:8.6;stroke:#fff;stroke-linecap:round;fill:none" height="5" width="17" y="61.5" x="56.5"/>
  <rect id="rect4296" style="opacity:.3;color:#000000;stroke-dashoffset:8.6;stroke:#fff;stroke-linecap:round;fill:none" height="5" width="17" y="61.5" x="34.5"/>
 </g>
 <g id="layer5">
  <path id="path4983" style="opacity:0.08" d="m86.106 24c1.7129 0.11552 1.8538 2.0551 1.6875 3.3847-0.02091 18.016 0.04176 36.045-0.03125 54.053-0.42985 1.7802-2.5434 1.4236-3.9245 1.4062-27.441-0.021-54.892 0.041-82.326-0.032-1.8407-0.40251-1.8102-3.1368-0.06402-3.6914 27.92-18.304 55.814-36.666 83.751-54.933 0.274-0.177 0.596-0.166 0.907-0.188zm-12.312 24.344c-10.428 6.844-20.855 13.687-31.282 20.531h31.281v-20.531z"/>
  <path id="path4979" style="opacity:0.12" d="m9.9375 24.969a0.90595 0.90595 0 0 0 -0.8125 0.906v55.125a0.90595 0.90595 0 0 0 0.90625 0.90625h84a0.90595 0.90595 0 0 0 0.5 -1.6562l-84-55.125a0.90595 0.90595 0 0 0 -0.5935 -0.156zm11.312 21.625 35.375 23.219h-35.375v-23.219z" transform="matrix(-1 0 0 1 95.981 0)"/>
  <path id="path4973" style="opacity:.3" d="m85.939 25.875-84 55.125h84v-55.125zm-10.295 19.031v25.799h-39.334l39.334-25.799z"/>
  <path id="path4318" style="fill:url(#linearGradient4331)" d="m85.939 24.875-84 55.125h84v-55.125zm-10.295 19.031v25.799h-39.334l39.334-25.799z"/>
  <path id="path4964" style="fill:#a0672c" d="m75.637 42.906v1l-37.781 24.812h-1.5312l39.312-25.812zm10.312 36.094v1h-84l1.5312-1h82.469z"/>
  <path id="path4955" style="opacity:.5;fill:#ffe680" d="m85.949 24.875v1l-82.468 54.125h-1.5317l84-55.125zm-10.312 44.844v1h-39.312l1.5312-1h37.781z"/>
  <path id="path4993" style="opacity:0.08;stroke-linejoin:round;stroke:#000;stroke-width:.75" d="m14.781 27.125c-0.41767-0.01944-0.93595 0.02277-1.4688 0.21875l-3.2188 1.1875c-1.9087 0.702-2.8488 2.833-2.1555 4.718h-0.03125l0.3125 0.90625c-0.00912 0.04733-0.0000978 0.09444 0 0.09375 0.000201-0.0014-0.0000596 0.22018 0 0.21875 0.0000596-0.0014 0.0000823 0.18893 0 0.1875-0.0000823-0.0014 0.0002234 0.18892 0 0.1875-0.0002234-0.0014 0.062862 0.18889 0.0625 0.1875-0.0003624-0.0014 0.062998 0.18884 0.0625 0.1875l0.1875 0.5a1.0152 1.0152 0 0 0 0.03125 0.125c-0.0003815-0.000748 0.062924 0.09447 0.0625 0.09375-0.0001632-0.000279 0.020032 0.01332 0.03125 0.03125 0.017949 0.02869 0.031536 0.06293 0.03125 0.0625-0.0002526-0.000554 0.012959 0.05716 0.03125 0.09375 0.012912 0.02583 0.031456 0.06288 0.03125 0.0625h0.03125l3.625 9.8438 14.062 38.219a1.0152 1.0152 0 0 0 0 0.03125c-0.000356-0.000869 0.06291 0.12584 0.0625 0.125-0.000412-0.000844 0.06297 0.12582 0.0625 0.125-0.000466-0.000815 0.06302 0.09453 0.0625 0.09375-0.000363-0.000548 0.0092 0.06264 0.03125 0.09375 0.0094 0.01333 0.03142 0.03147 0.03125 0.03125l8.0938 11.469a1.0152 1.0152 0 0 0 0.03125 0c-0.000694-0.000939 0.09452 0.12588 0.09375 0.125-0.000767-0.00088 0.12584 0.12582 0.125 0.125-0.000836-0.000815 0.09465 0.09449 0.09375 0.09375-0.000899-0.000745 0.15721 0.12567 0.15625 0.125-0.000956-0.00067 0.12601 0.06309 0.125 0.0625-0.001-0.000591 0.12605 0.09426 0.125 0.09375-0.0011-0.000507 0.15734 0.06292 0.15625 0.0625-0.0011-0.000421 0.15737 0.03158 0.15625 0.03125-0.0011-0.000331 0.15739 0.06274 0.15625 0.0625-0.0011-0.00024 0.15741 0.0314 0.15625 0.03125-0.0012-0.000147 0.15742 0.000053 0.15625 0-0.0012-0.000053 0.15742-0.000041 0.15625 0-0.0012 0.000041 0.15741-0.000135 0.15625 0-0.0012 0.000135 0.1574-0.03148 0.15625-0.03125-0.0011 0.000229 0.15737-0.03157 0.15625-0.03125-0.0011 0.00032 0.15734-0.06291 0.15625-0.0625-0.0011 0.00041 0.15731-0.063 0.15625-0.0625-0.0011 0.000497 0.15726-0.06308 0.15625-0.0625-0.001 0.000581 0.12596-0.09441 0.125-0.09375-0.000963 0.00066 0.12591-0.09449 0.125-0.09375-0.000906 0.000736 0.12584-0.12581 0.125-0.125-0.000844 0.000807 0.12578-0.09462 0.125-0.09375-0.000776 0.000872 0.09445-0.12593 0.09375-0.125-0.000703 0.000932 0.09438-0.12599 0.09375-0.125-0.000626 0.000986 0.06304-0.15728 0.0625-0.15625-0.000544 0.001 0.06296-0.12607 0.0625-0.125-0.000459 0.0011 0.06287-0.15736 0.0625-0.15625-0.000371 0.0011 0.06278-0.15738 0.0625-0.15625-0.00028 0.0011 0.03144-0.1574 0.03125-0.15625-0.000188 0.0012 0.000094-0.15741 0-0.15625-0.000094 0.0012 0.03125-0.15742 0.03125-0.15625 0 0.0012-0.03135-0.18866-0.03125-0.1875l-1.25-14.031a1.0152 1.0152 0 0 0 0 -0.03125c0.000107 0.000955-0.000171-0.12594 0-0.125 0.000171 0.000945-0.03148-0.12593-0.03125-0.125 0.000233 0.000932-0.03154-0.12591-0.03125-0.125 0.000236 0.000732-0.0511-0.06195-0.0625-0.09375v-0.03125l-14.03-38.188-3.75-10.094a1.0152 1.0152 0 0 0 0 -0.031c0.000503 0.0013-0.06312-0.15749-0.0625-0.15625 0.000625 0.0012-0.09449-0.18868-0.09375-0.1875 0.000741 0.0012-0.12585-0.15735-0.125-0.15625 0.000851 0.0011-0.12595-0.12601-0.125-0.125 0.000953 0.001-0.12604-0.15717-0.125-0.15625 0.0004 0.00035-0.03531-0.0097-0.0625-0.03125l-0.594-1.688a1.0152 1.0152 0 0 0 -0.03125 0c-0.52438-1.4256-1.8289-2.3089-3.25-2.375z" transform="translate(23,-1)"/>
  <path id="path4989" style="opacity:0.12;stroke-linejoin:round;stroke:#000;stroke-width:.75" d="m14.719 28.125c-0.321-0.01494-0.67709 0.01449-1.0625 0.15625l-3.2188 1.1875c-1.3783 0.508-2.0658 2.069-1.562 3.438l0.4375 1.219a0.97171 0.97171 0 0 0 -0.03125 0.75l0.1875 0.5a0.97171 0.97171 0 0 0 0.125 0.1875 0.97171 0.97171 0 0 0 0.03125 0.0625 0.97171 0.97171 0 0 0 0.03125 0.0625l3.6875 10 14.062 38.219a0.97171 0.97171 0 0 0 0.125 0.21875l8.125 11.5a0.97171 0.97171 0 0 0 1.75 -0.65625l-1.25-14.031a0.97171 0.97171 0 0 0 -0.0625 -0.25l-14.032-38.22-3.75-10.094a0.97171 0.97171 0 0 0 -0.5 -0.53125l-0.71875-2c-0.37687-1.0246-1.3491-1.671-2.375-1.7188z" transform="translate(23,-1)"/>
  <path id="rect4708" style="opacity:.3;stroke-linejoin:round;stroke:#000;stroke-width:.75" d="m37.687 28.086c0.66042 0.03073 1.2658 0.42632 1.5091 1.0878l0.95813 2.6567 0.26154-0.09627 3.7272 10.072 14.051 38.227 1.2393 14.017-8.1267-11.482-14.051-38.227-3.7272-10.072 0.21565-0.05958-0.09627-0.26154-0.26154 0.09627-0.19255-0.52309 0.26154-0.09627-0.66931-1.8721c-0.3244-0.88195 0.11427-1.8638 0.99622-2.1882l3.2257-1.1874c0.22049-0.0811 0.45891-0.10181 0.67905-0.09156z"/>
  <g id="g3643" transform="matrix(.53066 -.19519 -.19519 -.53066 -16.218 121.19)">
   <g id="g3537">
    <rect id="rect3483" style="stroke-linejoin:round;stroke:#df453f;stroke-width:1.3265;fill:url(#linearGradient4666)" rx="3" ry="3" height="16" width="12.116" y="107.49" x="136.91"/>
    <path id="path3493" style="opacity:.3;filter:url(#filter3495);fill:#701300" d="m141.24 118.19a1.5468 3.9775 0 1 1 -3.0936 0 1.5468 3.9775 0 1 1 3.0936 0z" transform="matrix(1.8857 0 0 1 -123.51 -1.9445)"/>
    <path id="path3499" style="opacity:.8;filter:url(#filter3509);fill:#fff;fill-rule:evenodd" d="m146.31 113.12c-0.85193 9.5067-3.9375 8.3125-6.5 8.9375 4.0763 0.0625 8.625-0.0625 8.625-0.0625-2.4375-0.5625-1.8125-2.375-2.125-8.875z"/>
    <rect id="rect3525" style="opacity:.2;fill:url(#linearGradient4668)" height="1" width="12.119" y="115.97" x="136.41"/>
   </g>
   <g id="g3311" transform="translate(23.733)">
    <path id="rect2480" style="stroke-linejoin:round;stroke:url(#linearGradient4672);stroke-width:1.3265;fill:url(#linearGradient4670)" d="m112.77 24.5 6.5-24 6.5 24v72h-13v-72z"/>
    <path id="path3272" style="fill:url(#linearGradient4674);fill-rule:evenodd" d="m117.69 8.0717 3.1426 0.022097-1.5824-5.7913"/>
    <path id="path3274" style="fill:url(#linearGradient4676);fill-rule:evenodd" d="m117.73 8.0902-3.77 13.91s-0.46779 1.6535-0.698 2.6083c-0.19122 0.64228 1.9589 1.6113 3.0182-1.6083 1.2153 4.5138 5.5759 3.438 5.9883 0.01105 0.3425 1.7015 1.754 2.95 2.9886 1.5219-0.23478-0.90874-0.43641-1.5219-0.43641-1.5219l-4.0217-14.921h-3.0715z"/>
    <path id="path3294" style="opacity:.3;stroke:url(#linearGradient4678);stroke-width:1.7686px;fill:none" d="m122.37 96.305v-67.217"/>
    <path id="path3304" style="opacity:.4;stroke:url(#linearGradient4680);stroke-width:1.7686px;fill:none" d="m116.25 96.305v-67.217"/>
    <path id="path3372" style="opacity:.4;filter:url(#filter3382);fill:#ac4311;fill-rule:evenodd" d="m118.7 5.9799-4.773 17.899 1.9887-0.83969 2.7842-17.059z"/>
    <path id="path3386" style="opacity:.15;stroke:#4d2600;stroke-width:1.7686px;fill:none" d="m113.08 24.625s1.4867 1.7649 3.25-1.5312c2 5.25 5.1686 2.0871 5.9375-0.03125 1.375 3.4375 3.125 1.4375 3.125 1.4375"/>
    <path id="path3388" style="opacity:.8;filter:url(#filter3390);fill:#fff;fill-rule:evenodd" transform="matrix(1.1224 0 0 1.345 -41.703 -4.7709)" d="m144.06 8.9375-0.375 12.5 3.0625-0.3125-2.6875-12.188z"/>
   </g>
   <g id="g3620">
    <rect id="rect3333" style="stroke-linejoin:round;stroke:url(#linearGradient4684);stroke-width:1.3265;fill:url(#linearGradient4682)" height="19" width="13" y="96.5" x="136.5"/>
    <rect id="rect3337" style="opacity:.4;fill:url(#linearGradient4686)" height="1" width="12" y="100" x="137"/>
    <rect id="rect3351" style="opacity:.6;fill:url(#linearGradient4688)" height="1" width="12" y="101" x="137"/>
    <rect id="rect3369" style="opacity:.4;fill:url(#linearGradient4690)" height="1" width="12" y="102" x="137"/>
    <rect id="rect3371" style="opacity:.6;fill:url(#linearGradient4692)" height="1" width="12" y="103" x="137"/>
    <rect id="rect3379" style="opacity:.4;fill:url(#linearGradient4694)" height="1" width="12" y="108" x="137"/>
    <rect id="rect3381" style="opacity:.6;fill:url(#linearGradient4696)" height="1" width="12" y="109" x="137"/>
    <rect id="rect3385" style="opacity:.4;fill:url(#linearGradient4698)" height="1" width="12" y="110" x="137"/>
    <rect id="rect3387" style="opacity:.6;fill:url(#linearGradient4700)" height="1" width="12" y="111" x="137"/>
    <rect id="rect3437" style="opacity:.3;fill:url(#linearGradient4702)" height="4" width="12" y="104" x="137"/>
    <path id="path3449" style="opacity:.6;filter:url(#filter3451)" d="m140 106.08a1.1013 8.3969 0 1 1 -2.2026 0 1.1013 8.3969 0 1 1 2.2026 0z" transform="matrix(1.2554 0 0 1 -35.754 0)"/>
    <path id="path3455" style="opacity:.8;filter:url(#filter3457);fill:#fff" d="m147.34 106.04a1.1932 8.0875 0 1 1 -2.3865 0 1.1932 8.0875 0 1 1 2.3865 0z"/>
   </g>
  </g>
 </g>
</svg>
