<?xml version="1.0" encoding="UTF-8" standalone="no"?>
<!-- Created with Inkscape (http://www.inkscape.org/) -->
<svg id="svg2408" xmlns:rdf="http://www.w3.org/1999/02/22-rdf-syntax-ns#" xmlns="http://www.w3.org/2000/svg" height="96" width="96" version="1.0" xmlns:cc="http://creativecommons.org/ns#" xmlns:xlink="http://www.w3.org/1999/xlink" xmlns:dc="http://purl.org/dc/elements/1.1/">
 <defs id="defs2410">
  <linearGradient id="linearGradient4384">
   <stop id="stop4386" style="stop-color:#fff" offset="0"/>
   <stop id="stop4388" style="stop-color:#fff;stop-opacity:0" offset="1"/>
  </linearGradient>
  <linearGradient id="ButtonShadow" y2="7.0165" gradientUnits="userSpaceOnUse" x2="45.448" gradientTransform="scale(1.0059 .99417)" y1="92.54" x1="45.448">
   <stop id="stop3750" offset="0"/>
   <stop id="stop3752" style="stop-opacity:.58824" offset="1"/>
  </linearGradient>
  <filter id="filter3174" color-interpolation-filters="sRGB">
   <feGaussianBlur id="feGaussianBlur3176" stdDeviation="1.71"/>
  </filter>
  <filter id="filter3794" height="1.384" width="1.384" color-interpolation-filters="sRGB" y="-.192" x="-.192">
   <feGaussianBlur id="feGaussianBlur3796" stdDeviation="5.28"/>
  </filter>
  <linearGradient id="linearGradient3613" y2="138.66" gradientUnits="userSpaceOnUse" x2="48" y1="20.221" x1="48">
   <stop id="stop3739" style="stop-color:#fff" offset="0"/>
   <stop id="stop3741" style="stop-color:#fff;stop-opacity:0" offset="1"/>
  </linearGradient>
  <linearGradient id="ButtonShadow-0" y2="7.0165" gradientUnits="userSpaceOnUse" x2="45.448" gradientTransform="matrix(1.0059 0 0 .99417 100 0)" y1="92.54" x1="45.448">
   <stop id="stop3750-8" offset="0"/>
   <stop id="stop3752-5" style="stop-opacity:.58824" offset="1"/>
  </linearGradient>
  <linearGradient id="linearGradient3780" y2="90.239" xlink:href="#ButtonShadow-0" gradientUnits="userSpaceOnUse" x2="32.251" gradientTransform="matrix(1.0238 0 0 1.0119 -1.1429 -98.071)" y1="6.1317" x1="32.251"/>
  <linearGradient id="linearGradient3721" y2="90.239" xlink:href="#ButtonShadow-0" gradientUnits="userSpaceOnUse" x2="32.251" gradientTransform="translate(0,-97)" y1="6.1317" x1="32.251"/>
  <clipPath id="clipPath4355">
   <rect id="rect4357" style="fill:#fff" rx="6" ry="6" height="80" width="84" y="6" x="6"/>
  </clipPath>
  <radialGradient id="radialGradient4375" gradientUnits="userSpaceOnUse" cy="87.792" cx="48" gradientTransform="matrix(1 -6.7115e-8 8.4282e-8 1.2558 110 -24.506)" r="42">
   <stop id="stop4369" style="stop-color:#fff;stop-opacity:.71756" offset="0"/>
   <stop id="stop4371" style="stop-color:#fff" offset="1"/>
  </radialGradient>
  <linearGradient id="linearGradient4390" y2="-40" xlink:href="#linearGradient4384" gradientUnits="userSpaceOnUse" x2="48" gradientTransform="matrix(1,0,0,-1,0,92)" y1="88" x1="48"/>
  <linearGradient id="linearGradient4429" y2="82.455" xlink:href="#linearGradient4384" spreadMethod="reflect" gradientUnits="userSpaceOnUse" x2="112.12" y1="82" x1="48"/>
  <linearGradient id="linearGradient3228" y2="88" spreadMethod="reflect" gradientUnits="userSpaceOnUse" x2="48" y1="88" x1="90">
   <stop id="stop3894" style="stop-opacity:.58824" offset="0"/>
   <stop id="stop3896" style="stop-opacity:.47059" offset=".11780"/>
   <stop id="stop3898" style="stop-opacity:.39216" offset=".23810"/>
   <stop id="stop3900" style="stop-opacity:.31373" offset="1"/>
  </linearGradient>
  <linearGradient id="linearGradient3138" y2="5.9877" gradientUnits="userSpaceOnUse" x2="48" y1="90" x1="48">
   <stop id="stop3189" style="stop-color:#3c393e" offset="0"/>
   <stop id="stop3191" style="stop-color:#79727e" offset="1"/>
  </linearGradient>
  <linearGradient id="linearGradient3690" y2="30.688" xlink:href="#linearGradient4384" gradientUnits="userSpaceOnUse" x2="76.014" gradientTransform="translate(0,-2)" y1="41.125" x1="49.125"/>
  <linearGradient id="linearGradient3682" y2="80.767" xlink:href="#linearGradient4384" gradientUnits="userSpaceOnUse" x2="47.342" gradientTransform="translate(0,-2)" y1="39.073" x1="47.342"/>
  <linearGradient id="linearGradient3725-4" y2="47.639" xlink:href="#linearGradient4384" gradientUnits="userSpaceOnUse" x2="133.59" gradientTransform="translate(-80,-2)" y1="30.34" x1="137.63"/>
  <linearGradient id="linearGradient3707" y2="54.954" xlink:href="#linearGradient4384" gradientUnits="userSpaceOnUse" x2="113.77" gradientTransform="translate(-80,-2)" y1="38.074" x1="113.77"/>
  <linearGradient id="linearGradient3750" y2="52.121" gradientUnits="userSpaceOnUse" x2="41.723" gradientTransform="translate(0 -2.3788)" y1="34.444" x1="34.784">
   <stop id="stop3746" offset="0"/>
   <stop id="stop3748" style="stop-opacity:0" offset="1"/>
  </linearGradient>
  <linearGradient id="linearGradient3735" y2="52.121" gradientUnits="userSpaceOnUse" x2="41.723" gradientTransform="translate(0 -2.3788)" y1="32.676" x1="39.072">
   <stop id="stop3740" style="stop-opacity:0" offset="0"/>
   <stop id="stop3742" style="stop-opacity:0" offset="1"/>
  </linearGradient>
  <linearGradient id="linearGradient3732" y2="69.789" gradientUnits="userSpaceOnUse" x2="40.068" gradientTransform="translate(0,-2)" y1="37.445" x1="40.068">
   <stop id="stop3675" style="stop-color:#f70000" offset="0"/>
   <stop id="stop3677-6" style="stop-color:#ff6e2a;stop-opacity:.83871" offset="1"/>
  </linearGradient>
  <linearGradient id="linearGradient3749" y2="66.137" gradientUnits="userSpaceOnUse" x2="59.031" gradientTransform="translate(0,-2)" y1="37.727" x1="59.031">
   <stop id="stop3683" style="stop-color:#28c809" offset="0"/>
   <stop id="stop3685" style="stop-color:#88f342;stop-opacity:.75806" offset="1"/>
  </linearGradient>
  <linearGradient id="linearGradient3697" y2="74.737" gradientUnits="userSpaceOnUse" x2="61.96" gradientTransform="translate(0,-2)" y1="58.322" x1="36.281">
   <stop id="stop3693" offset="0"/>
   <stop id="stop3695" style="stop-opacity:0" offset="1"/>
  </linearGradient>
  <linearGradient id="linearGradient3757" y2="48.084" gradientUnits="userSpaceOnUse" x2="96.83" gradientTransform="matrix(.96152 .27472 -.96152 .27472 0 -2)" y1="15.626" x1="64.372">
   <stop id="stop3665" style="stop-color:#6ecbf8" offset="0"/>
   <stop id="stop3667" style="stop-color:#0077b9" offset="1"/>
  </linearGradient>
  <clipPath id="clipPath3807">
   <rect id="rect3809" style="fill:url(#linearGradient3811)" rx="6" ry="6" height="84" width="84" y="6" x="6"/>
  </clipPath>
  <linearGradient id="linearGradient3779" y2="89.125" gradientUnits="userSpaceOnUse" x2="77.5" gradientTransform="matrix(-1 0 0 1 96.179 -.17857)" y1="66.089" x1="59.464">
   <stop id="stop3783" style="stop-color:#ff4a00" offset="0"/>
   <stop id="stop3785" style="stop-color:#ff4a00;stop-opacity:0" offset="1"/>
  </linearGradient>
  <filter id="filter3791" height="1.453" width="1.2987" color-interpolation-filters="sRGB" y="-.22648" x="-.14935">
   <feGaussianBlur id="feGaussianBlur3793" stdDeviation="3.0669643"/>
  </filter>
  <linearGradient id="linearGradient3775" y2="89.125" gradientUnits="userSpaceOnUse" x2="78.214" y1="66.089" x1="59.464">
   <stop id="stop3771" style="stop-color:#6f0" offset="0"/>
   <stop id="stop3773" style="stop-color:#6f0;stop-opacity:0" offset="1"/>
  </linearGradient>
  <filter id="filter3795" height="1.4132" width="1.3189" color-interpolation-filters="sRGB" y="-.20660" x="-.15947">
   <feGaussianBlur id="feGaussianBlur3797" stdDeviation="3.1205357"/>
  </filter>
  <linearGradient id="linearGradient3230" y2="47.969" gradientUnits="userSpaceOnUse" x2="59.447" gradientTransform="matrix(1.0324 0 0 1.0568 -.86660 -6.166)" y1="90.524" x1="47.774">
   <stop id="stop3817" offset="0"/>
   <stop id="stop3819" style="stop-opacity:0" offset="1"/>
  </linearGradient>
 </defs>
 <metadata id="metadata2413">
  <rdf:RDF>
   <cc:Work rdf:about="">
    <dc:format>image/svg+xml</dc:format>
    <dc:type rdf:resource="http://purl.org/dc/dcmitype/StillImage"/>
    <dc:title/>
   </cc:Work>
  </rdf:RDF>
 </metadata>
 <g id="layer2" style="display:none">
  <rect id="rect3745" style="opacity:.9;filter:url(#filter3174);fill:url(#ButtonShadow)" rx="6" ry="6" height="85" width="86" y="7" x="5"/>
 </g>
 <g id="layer3">
  <path id="path3786" style="opacity:0.08;fill:url(#linearGradient3780)" d="m12-95.031c-5.5111 0-10.031 4.5202-10.031 10.031v71c0 5.5111 4.5202 10.031 10.031 10.031h72c5.5111 0 10.031-4.5202 10.031-10.031v-71c0-5.5111-4.5202-10.031-10.031-10.031h-72z" transform="scale(1,-1)"/>
  <path id="path3778" style="opacity:.1;fill:url(#linearGradient3780)" d="m12-94.031c-4.9716 0-9.0312 4.0596-9.0312 9.0312v71c0 4.9716 4.0596 9.0312 9.0312 9.0312h72c4.9716 0 9.0312-4.0596 9.0312-9.0312v-71c0-4.9716-4.0596-9.0312-9.0312-9.0312h-72z" transform="scale(1,-1)"/>
  <path id="path3770" style="opacity:.2;fill:url(#linearGradient3780)" d="m12-93c-4.4091 0-8 3.5909-8 8v71c0 4.4091 3.5909 8 8 8h72c4.4091 0 8-3.5909 8-8v-71c0-4.4091-3.5909-8-8-8h-72z" transform="scale(1,-1)"/>
  <rect id="rect3723" style="opacity:.3;fill:url(#linearGradient3780)" transform="scale(1,-1)" rx="7" ry="7" height="85" width="86" y="-92" x="5"/>
  <rect id="rect3716" style="opacity:.45;fill:url(#linearGradient3721)" transform="scale(1,-1)" rx="6" ry="6" height="84" width="84" y="-91" x="6"/>
 </g>
 <g id="layer1">
  <rect id="rect2419-0" style="fill:url(#linearGradient3138)" rx="6" ry="6" height="84" width="84" y="6" x="6"/>
  <path id="rect4359" style="opacity:.2;fill:url(#radialGradient4375)" d="m120.78 6.125c-2.74 0.5576-4.78 2.9665-4.78 5.875v68c0 3.324 2.676 6 6 6h72c3.324 0 6-2.676 6-6v-68c0-2.9085-2.0422-5.3174-4.7812-5.875 2.2051 0.53621 3.8125 2.4908 3.8125 4.875v68c0 2.8049-2.2264 5.0312-5.0312 5.0312h-72c-2.8049 0-5.0312-2.2264-5.0312-5.0312v-68c0-2.3842 1.6074-4.3388 3.8125-4.875z"/>
  <path id="rect4377" style="opacity:.2;fill:url(#linearGradient4390)" d="m12 86c-3.324 0-6-2.676-6-6v-68c0-3.324 2.676-6 6-6h72c3.324 0 6 2.676 6 6v68c0 3.324-2.676 6-6 6zm0-0.96875h72c2.8049 0 5.0312-2.2264 5.0312-5.0312v-68c0-2.8049-2.226-5.0312-5.031-5.0312h-72c-2.8049 0-5.0312 2.2263-5.0312 5.0312v68c0 2.8049 2.2264 5.0312 5.0312 5.0312z"/>
  <path id="rect4414" style="opacity:.05;fill:url(#linearGradient4429)" d="m6 78v2c0 3.324 2.676 6 6 6h72c3.324 0 6-2.676 6-6v-2c0 3.324-2.676 6-6 6h-72c-3.324 0-6-2.676-6-6z"/>
  <path id="path4412" style="opacity:.15" d="m6 100v1c0 3.324 2.676 6 6 6h72c3.324 0 6-2.676 6-6v-1c0 3.324-2.676 6-6 6h-72c-3.324 0-6-2.676-6-6z"/>
 </g>
 <g id="layer4">
  <path id="path3888" style="fill:url(#linearGradient3228)" d="m6 80v4c0 3.324 2.676 6 6 6h72c3.324 0 6-2.676 6-6v-4c0 3.324-2.676 6-6 6h-72c-3.324 0-6-2.676-6-6z"/>
  <path id="rect4345" style="opacity:.1;color:#000000" d="m6 82v2c0 3.324 2.676 6 6 6h72c3.324 0 6-2.676 6-6v-2c0 3.324-2.676 6-6 6h-72c-3.324 0-6-2.676-6-6z"/>
  <path id="rect4336" style="opacity:.15;color:#000000" d="m6 83v1c0 3.324 2.676 6 6 6h72c3.324 0 6-2.676 6-6v-1c0 3.324-2.676 6-6 6h-72c-3.324 0-6-2.676-6-6z"/>
 </g>
 <g id="layer5">
  <rect id="rect3171" style="opacity:.1;filter:url(#filter3794);stroke:#fff;stroke-linecap:round;stroke-width:.5;fill:url(#linearGradient3613)" clip-path="url(#clipPath4355)" rx="12" ry="12" height="62" width="66" y="15" x="15"/>
 </g>
 <g id="layer6">
  <path id="path3813" style="fill:url(#linearGradient3230)" d="m50.567 71.321 38.897-19.63-32.468-19.834-30.21 28.519 23.781 10.945z"/>
  <g id="g3803" transform="translate(0,-4)" clip-path="url(#clipPath3807)">
   <path id="path3777" style="opacity:.2;filter:url(#filter3791);fill:url(#linearGradient3779)" d="m49.214 73.143v22.857h-49.285l0.17814-20.893 26.964-11.607 22.143 9.643z"/>
   <path id="path3759" style="opacity:.2;filter:url(#filter3795);fill:url(#linearGradient3775)" d="m49.286 73.321v22.857h46.964v-27.5l-27.143-8.75-19.821 13.393z"/>
  </g>
  <path id="path3717" style="opacity:.8;fill:#045" d="m47.25 26.531-20.75 5.4375v0.5625l0.5-0.0625 20-5.25 21.75 3.375 0.875 0.125v-0.5625l-22.375-3.625z"/>
  <path id="rect3659" style="opacity:.8;fill:url(#linearGradient3757)" d="m47 27.221 21.747 3.3788-19.369 7.4848-22.379-5.611 20-5.2525z"/>
  <path id="rect3661" style="fill:url(#linearGradient3697)" d="m47.126 50.842 20.012 6.222-17.791 11.747-20.516-9.095 18.295-8.874z"/>
  <path id="path3679" style="opacity:.8;fill:url(#linearGradient3749)" d="m49.371 38.063v32.577l19.319-13.006v-27.022l-19.319 7.4499z"/>
  <path id="path3681" style="opacity:.8;fill:url(#linearGradient3732)" d="m49.371 38.063v32.577l-22.186-9.9306-0.10012-28.234 22.286 5.5874z"/>
  <path id="path3727" style="opacity:.2;stroke:url(#linearGradient3735);fill:url(#linearGradient3750)" d="m29.728 33.138 17.425-4.7982-0.25254 20.961-17.173 9.0914v-25.254z"/>
  <path id="path3699" style="opacity:.6;fill:url(#linearGradient3707)" d="m28.402 34.717 18.751 4.987-14.458 21.719l-4.3563-1.9572 0.0631-24.749h0.00004z"/>
  <path id="path3709" style="opacity:.4;fill:url(#linearGradient3725-4)" d="m48.289 28.34v21.592l18.688 5.6821v-24.496l-18.688-2.7779z"/>
  <path id="path2889" style="opacity:.7;block-progression:tb;text-indent:0;color:#000000;text-transform:none;fill:url(#linearGradient3682)" d="m29.125 31.906-2.125 0.563 0.094 0.031v0.96875l21.219 5.6875v31l1.0625 0.46875 0.9375-0.625v-31.625-0.78125l-0.71875-0.1875-20.469-5.5z"/>
  <path id="path2891" style="opacity:.7;block-progression:tb;text-indent:0;color:#000000;text-transform:none;fill:url(#linearGradient3690)" d="m66.719 30.281-17.594 6.969l0.75 1.875 18.812-7.5v-1l0.0625-0.03125-2.0312-0.3125z"/>
  <path id="path3704" style="fill:#800000" d="m26.5 32.469 0.09375 29 22.781 10.188v-1.0312l-22.187-9.907-0.094-28.268-0.594 0.018z"/>
  <path id="path3710" style="opacity:.8;fill:#250" d="m69.688 30.72-1-0.14586v27.051l-19.312 13v1.1562l20.312-13.375v-27.687z"/>
 </g>
</svg>
