<?xml version="1.0" encoding="UTF-8" standalone="no"?>
<!-- Created with Inkscape (http://www.inkscape.org/) -->
<svg id="svg2408" xmlns:rdf="http://www.w3.org/1999/02/22-rdf-syntax-ns#" xmlns="http://www.w3.org/2000/svg" height="96" width="96" version="1.0" xmlns:cc="http://creativecommons.org/ns#" xmlns:xlink="http://www.w3.org/1999/xlink" xmlns:dc="http://purl.org/dc/elements/1.1/">
 <defs id="defs2410">
  <linearGradient id="ButtonShadow" y2="7.0165" gradientUnits="userSpaceOnUse" x2="45.448" gradientTransform="scale(1.0059 .99417)" y1="92.54" x1="45.448">
   <stop id="stop3750" offset="0"/>
   <stop id="stop3752" style="stop-opacity:.58824" offset="1"/>
  </linearGradient>
  <filter id="filter3174" color-interpolation-filters="sRGB">
   <feGaussianBlur id="feGaussianBlur3176" stdDeviation="1.71"/>
  </filter>
  <linearGradient id="linearGradient17664" y2="5.9877" xlink:href="#ButtonShadow" gradientUnits="userSpaceOnUse" x2="48" gradientTransform="matrix(1.0238 0 0 1.0119 -1.1429 .92857)" y1="90" x1="48"/>
  <linearGradient id="linearGradient17670" y2="5.9877" xlink:href="#ButtonShadow" gradientUnits="userSpaceOnUse" x2="48" gradientTransform="translate(0,1)" y1="90" x1="48"/>
  <linearGradient id="linearGradient4725" y2="76.945" gradientUnits="userSpaceOnUse" x2="49.689" gradientTransform="matrix(-1 0 0 1 96.155 -.75739)" y1="6" x1="49.689">
   <stop id="stop3739-7" style="stop-color:#fff" offset="0"/>
   <stop id="stop3741-0" style="stop-color:#fff;stop-opacity:0" offset="1"/>
  </linearGradient>
  <radialGradient id="radialGradient4728" gradientUnits="userSpaceOnUse" cy="90.172" cx="48" gradientTransform="matrix(-1.1573 0 0 .99591 103.71 -.56025)" r="42">
   <stop id="stop3739-1" style="stop-color:#fff" offset="0"/>
   <stop id="stop3741-5" style="stop-color:#fff;stop-opacity:0" offset="1"/>
  </radialGradient>
  <linearGradient id="linearGradient4739" y2="5.9877" gradientUnits="userSpaceOnUse" x2="48" gradientTransform="matrix(-1 0 0 1 96.155 -.75739)" y1="90" x1="48">
   <stop id="stop4619" style="stop-color:#888a4b" offset="0"/>
   <stop id="stop4621" style="stop-color:#c3c496" offset="1"/>
  </linearGradient>
 </defs>
 <metadata id="metadata2413">
  <rdf:RDF>
   <cc:Work rdf:about="">
    <dc:format>image/svg+xml</dc:format>
    <dc:type rdf:resource="http://purl.org/dc/dcmitype/StillImage"/>
    <dc:title/>
   </cc:Work>
  </rdf:RDF>
 </metadata>
 <g id="layer2" style="display:none">
  <rect id="rect3745" style="opacity:.9;filter:url(#filter3174);fill:url(#ButtonShadow)" rx="6" ry="6" height="85" width="86" y="7" x="5"/>
 </g>
 <g id="layer6" transform="matrix(-1 0 0 1 96.155 -.75739)">
  <path id="path3755" style="opacity:0.08;fill:url(#linearGradient17664)" d="m23.844 4c-1.2986-0.02009-2.628 0.004-4 0.1875a0.99893 0.99893 0 0 0 -0.032 0.0313c0.0027-0.0004618-0.15886 0.0006531-0.15625 0 0.002-0.0005-0.054 0.0199-0.094 0.0312-0.016 0.0048-0.032 0.0315-0.031 0.0312-0.248 0.0784-0.34 0.2693-0.531 0.4063-0.276-0.1948-0.474-0.463-0.844-0.5625-0.76-0.2048-1.529-0.092-2.218 0.25 0.0017-0.0008077-0.06418 0.032145-0.0625 0.03125 0.0017-0.0008953-0.09538 0.063481-0.09375 0.0625 0.0016-0.0009806-0.09533 0.063563-0.09375 0.0625-0.3696-0.22605-0.79608-0.39982-1.25-0.46875a0.99893 0.99893 0 0 0 -0.09375 0c0.0026 0.000184-0.12761 0-0.125 0 0.0013 0-0.02864-0.00119-0.0625 0h-0.0625-2.0625-0.03125c-6.1282-0.1594-10.613 5.6464-9.9375 11.438 0.00494 0.04233-0.00549 0.08268 0 0.125 0.035663 10.404-0.064553 20.812 0.0625 31.25 0.0005082 0.04175-0.0005156 0.08325 0 0.125 0.0001413-0.0023 0 0.12729 0 0.125 0-0.0023 0.0001413 0.09604 0 0.09375 0.0000398-0.000944-0.0002203 0.0092 0 0.03125-0.0006503 0.01035 0.0012 0.01495 0 0.03125 0.00275 0.02957 0.0001411 0.06364 0 0.0625-0.00501 0.0635-0.023215 0.12039-0.03125 0.21875-0.02059 0.25204-0.043932 0.59285-0.0625 0.96875-0.022147 0.44837-0.00114 1.0434 0.25 1.6562 0.149 0.363 0.5611 0.533 0.8438 0.812-0.0213 0.014-0.0321 0.032-0.0312 0.031 0.0016-0.001-0.0954 0.033-0.0938 0.031 0.0016-0.001-0.064 0.064-0.0625 0.063 0.00149-0.0013-0.095169 0.09511-0.09375 0.09375 0.00142-0.0014-0.063845 0.06393-0.0625 0.0625 0.00135-0.0014-0.063767 0.064-0.0625 0.0625 0.00127-0.0015-0.063686 0.09531-0.0625 0.09375 0.00119-0.0016-0.063602 0.06412-0.0625 0.0625 0.0011-0.0016-0.063515 0.09543-0.0625 0.09375 0.00101-0.0017-0.032174 0.09548-0.03125 0.09375 0.0009243-0.0017-0.063331 0.09553-0.0625 0.09375 0.0008314-0.0018-0.031986 0.09557-0.03125 0.09375 0.0007362-0.0018-0.031889 0.09561-0.03125 0.09375-0.7568 2.3587-0.17464 4.4957-0.3125 5.625a0.99893 0.99893 0 0 0 0 0.03125c0.0002876-0.0033 0 0.19077 0 0.1875 0-0.0026-0.0018 0.08259 0 0.125 0.0004502 0.0106 0.0000575 0.0319 0 0.03125 0.11519 1.8557-0.34924 4.284 0.21875 6.9062-0.0006116-0.0026 0.032047 0.1588 0.03125 0.15625-0.0004217-0.0013 0.019107 0.02808 0.03125 0.0625-0.012038 0.02935-0.03168 0.06369-0.03125 0.0625 0.00104-0.0029-0.03205 0.12794-0.03125 0.125 0.0009-0.003-0.0318 0.159-0.0312 0.157a0.99893 0.99893 0 0 0 -0.0312 0.062c-0.44151 3.1091-0.045273 6.1189-0.15625 8.7188 0.0000919-0.0026 0.0000919 0.12761 0 0.125 0.15045 4.1719-0.40965 8.7118 0.375 13.375a0.99893 0.99893 0 0 0 0.0312 0.093c-0.0005-0.001 0.0228 0.066 0.0312 0.094 0.00258 0.0086 0.0001536 0.03171 0 0.03125-0.0006529-0.002 0.032011 0.09567 0.03125 0.09375h0.03125c1.4885 5.1038 6.8091 7.4236 11.531 6.9062 0.01028-0.0011 0.02098 0.0012 0.03125 0 0.01972-0.000485 0.04276 0.00046 0.0625 0 3.3161-0.07726 6.8865 0.19134 10.5-0.125-0.000746 0.000042 0.01418 0.0015 0.03125 0 0.03415-0.003 0.06398-0.000175 0.0625 0-0.0022 0.000262 0.12721-0.03165 0.125-0.03125-0.0012 0.00021 0.0325-0.02492 0.0625-0.03125 0.09448 0.04464 0.13634 0.08661 0.25 0.125 0.34295 0.11582 0.70453 0.008 1.0625-0.03125a0.99893 0.99893 0 0 0 0.6875 0c0.03217-0.01048 0.0425-0.02451 0.0625-0.03125 0.0086-0.0029 0.02164 0.0032 0.03125 0 1.5648-0.51912 2.0762-0.83355 3.5938-1.0938-0.0021 0.000349 0.12709-0.03172 0.125-0.03125-0.0021 0.00047 0.09581-0.03184 0.09375-0.03125-0.0021 0.00059 0.09577-0.03196 0.09375-0.03125-0.002 0.000708 0.12698-0.03207 0.125-0.03125-0.002 0.000823 0.09567-0.06344 0.09375-0.0625-0.0019 0.000936 0.09562-0.0323 0.09375-0.03125-0.0019 0.001 0.09555-0.06365 0.09375-0.0625 0.0025 0.0016 0.02858-0.0017 0.03125 0 0.23236 0.14967 0.8618 0.78172 1.8125 1.2812a0.99893 0.99893 0 0 0 0.032 0.031c-0.0021-0.0011 0.09592 0.03217 0.09375 0.03125-0.0022-0.000924 0.12723 0.06328 0.125 0.0625-0.0022-0.000784 0.09602 0.03189 0.09375 0.03125-0.0023-0.000641 0.12731 0.03175 0.125 0.03125-0.0023-0.000495 0.12734 0.000347 0.125 0-0.0023-0.000347 0.12735 0.03145 0.125 0.03125-0.0024-0.000197 0.12736 0.000047 0.125 0-0.0024-0.000047 0.09611-0.000103 0.09375 0 2.995-0.08059 6.2149 0.21842 9.5625-0.125-0.000586 0.000036 0.02206 0.000958 0.03125 0 0.03861-0.004 0.12744-0.0316 0.125-0.03125-0.003 0.000437 0.15923-0.03193 0.15625-0.03125-0.003 0.000684 0.15916-0.03218 0.15625-0.03125-0.0029 0.000927 0.12782-0.06366 0.125-0.0625-0.0028 0.0012 0.15897-0.06389 0.15625-0.0625-0.0027 0.0014 0.1276-0.06411 0.125-0.0625-0.0026 0.0016 0.12745-0.09557 0.125-0.09375-0.0025 0.0018 0.1273-0.09576 0.125-0.09375a0.99893 0.99893 0 0 0 0.032 -0.032c0.2069-0.19637 0.26273-0.39034 0.40625-0.59375 0.22857 0.30614 0.3874 0.64246 0.78125 0.875 0.49181 0.29037 0.9845 0.22805 1.4688 0.21875a0.99893 0.99893 0 0 0 0.4375 0.125c0.06505-0.000259 0.13825 0.000302 0.21875 0 9.2324-0.03457 18.478 0.06525 27.75-0.0625-0.0013-0.000092 0.02864-0.0012 0.0625 0s0.06381 0 0.0625 0c-0.0026 0 0.12761-0.000184 0.125 0a0.99893 0.99893 0 0 0 0.09375 0c-0.05982 0.0091 0.36091 0.01701 0.875 0.0625s1.1848 0.08827 1.9062 0c0.04514-0.000437 0.11062 0.000181 0.15625 0 1.7711-0.007 3.883 0.17904 6.0625-0.125 2.2686-0.31647 4.6773-1.2853 6.375-3.5h0.03125c0.0044-0.0058-0.0044-0.02544 0-0.03125h0.03125c1.6682-2.0594 2.1449-4.4555 2.25-6.6562 0.10568-2.212-0.13111-4.339-0.0625-6.0938-0.00008 0.0019-0.000015-0.09564 0-0.09375 0.000015 0.0019-0.000111-0.09563 0-0.09375 0.000111 0.0019-0.000206-0.09562 0-0.09375 0.000206 0.0019-0.03155-0.09561-0.03125-0.09375 0.000301 0.0019-0.000396-0.09559 0-0.09375 0.000396 0.0018-0.03174-0.09557-0.03125-0.09375 0.000489 0.0018-0.03183-0.09554-0.03125-0.09375 0.000581 0.0018-0.03192-0.09551-0.03125-0.09375 0.000671 0.0018-0.03201-0.09547-0.03125-0.09375 0.000456 0.001-0.01927-0.0058-0.03125-0.03125 0.0822-0.18892 0.13915-0.18095 0.1875-0.4375a0.99893 0.99893 0 0 0 0.032 -0.092c-0.000288 0.0033 0-0.19077 0-0.1875 0 0.0013 0.0014-0.03005 0-0.0625-0.000073-0.03122 0.000071-0.06253 0-0.09375-0.02931-12.852 0.07333-25.716-0.03125-38.594-0.000018 0.000588 0.000095-0.0217 0-0.03125-0.00038-0.03819-0.000113-0.12735 0-0.125 0.000141 0.0029-0.03162-0.15917-0.03125-0.15625 0.000374 0.0029-0.000604-0.12788 0-0.125 0.000604 0.0029-0.03208-0.15907-0.03125-0.15625 0.00083 0.0028-0.06355-0.12775-0.0625-0.125 0.0011 0.0027-0.06377-0.1589-0.0625-0.15625 0.0013 0.0027-0.06397-0.12755-0.0625-0.125 0.0015 0.0025-0.09542-0.12742-0.09375-0.125a0.99893 0.99893 0 0 0 0 -0.03125c-0.1265-0.16898-0.24152-0.20728-0.375-0.34375 0.0302-0.0393 0.09523-0.09587 0.09375-0.09375-0.002 0.0028 0.09545-0.15924 0.09375-0.15625 0.68544-1.1976 0.67219-2.4565 0.625-3.375-0.04737-0.92198-0.1151-1.6819-0.0625-2.0312a0.99893 0.99893 0 0 0 -0.03125 -0.375 0.99893 0.99893 0 0 0 0 -0.03125c0.09978-0.57133 0.10904-1.1536-0.25-1.75-0.3832-0.63657-0.88978-0.97406-1.1562-1.1562 0.22082-1.6481-0.21735-3.0916-0.375-3.625-0.0975-0.32988-0.01728-0.23086-0.125 0-0.12744 0.27312-0.18523 0.0922 0.46875-0.15625a0.99893 0.99893 0 0 0 0.03125 0c-0.0021 0.000838 0.09576-0.06346 0.09375-0.0625-0.002 0.00096 0.12695-0.06358 0.125-0.0625-0.0019 0.0011 0.09563-0.03244 0.09375-0.03125-0.0019 0.0012 0.09555-0.0638 0.09375-0.0625s0.09547-0.09516 0.09375-0.09375c-0.0017 0.0014 0.06413-0.06401 0.0625-0.0625-0.0016 0.0015 0.09529-0.09536 0.09375-0.09375-0.0015 0.0016 0.06394-0.0642 0.0625-0.0625-0.0014 0.0017 0.09509-0.09553 0.09375-0.09375-0.0013 0.0018 0.06373-0.09561 0.0625-0.09375-0.0012 0.0019 0.06361-0.09568 0.0625-0.09375-0.0011 0.0019 0.03225-0.09574 0.03125-0.09375-0.000997 0.002 0.06338-0.12705 0.0625-0.125-0.000876 0.002 0.032-0.09585 0.03125-0.09375-0.000751 0.0021 0.03187-0.09589 0.03125-0.09375-0.000477 0.0016 0.02335-0.06346 0.03125-0.09375 0.0024-0.0093 0.000116-0.03176 0-0.03125 0.72582-2.7054 0.18401-5.2129 0.3125-7.0312 0.01235-0.1747 0.01094-0.20424 0-0.0625 0.77781-6.042-4.2071-11.925-10.5-11.438 0.03155-0.00245-0.04265 0.00173-0.03125 0 0.03419-0.0052 0.05347-0.013103-0.09375 0-17.593 0.0292-35.227-0.076-52.813 0.0308 0.0019 0.0000173-0.09567 0.0000819-0.09375 0 0.0019-0.0000819-0.09566 0.0001809-0.09375 0 0.0019-0.0001809-0.09565 0.031529-0.09375 0.03125 0.0019-0.0002794-0.09563 0.0003772-0.09375 0 0.0019-0.0003772-0.09561 0.031724-0.09375 0.03125 0.0019-0.0004739-0.09558 0.031819-0.09375 0.03125 0.0018-0.0005694-0.09555 0.031913-0.09375 0.03125 0.002-0.0007-0.096 0.032-0.094 0.0312s-0.095 0.0321-0.094 0.0312c0.002-0.0008-0.095 0.0635-0.094 0.0626 0.002-0.001-0.064 0.0322-0.062 0.0312s-0.095 0.0636-0.094 0.0625c0.002-0.0011-0.064 0.0637-0.062 0.0625 0.001-0.0012-0.095 0.0638-0.094 0.0625s-0.064 0.0638-0.062 0.0625c0.001-0.0013-0.064 0.0639-0.063 0.0625-0.018 0.0197-0.014 0.0124-0.031 0.0313-0.105-0.081-0.151-0.1078-0.282-0.2188a0.99893 0.99893 0 0 0 -0.031 -0.0312c0.003 0.002-0.159-0.0956-0.156-0.0938s-0.128-0.0953-0.125-0.0938c0.003 0.0016-0.159-0.0637-0.156-0.0624 0.003 0.0012-0.16-0.0636-0.156-0.0626 0.003 0.001-0.191-0.0632-0.188-0.0624 0.003 0.0007-0.16-0.0317-0.156-0.0313 0.0033 0.0004197-0.15957-0.0001232-0.15625 0 0.0028 0.0001027-0.1176-0.0002145-0.15625 0-0.0097 0.0002962-0.02157-0.0002802-0.03125 0-1.133 0.0328-2.365-0.0425-3.656-0.0625z"/>
  <path id="path3747" style="opacity:.1;fill:url(#linearGradient17664)" d="m23.844 5c-1.2707-0.019659-2.5734 0.013407-3.875 0.1875a0.88762 0.88762 0 0 0 -0.125 0.03125c-0.40236 0.11655-0.63768 0.35741-0.8125 0.625-0.26833-0.32576-0.64245-0.62002-1.125-0.75-0.482-0.13-1.039-0.0565-1.531 0.1874a0.88762 0.88762 0 0 0 -0.156 0.0938c-0.21432 0.17074-0.2989 0.38996-0.4375 0.59375-0.30766-0.45321-0.86992-0.81057-1.5-0.90625a0.88762 0.88762 0 0 0 -0.125 0h-2.125-0.03125c-5.533-0.1625-9.6196 5.1855-8.9385 10.438 0.0001472 0.04165-0.0001428 0.08335 0 0.125 0.0358 10.454-0.0667 20.91 0.0625 31.375a0.88762 0.88762 0 0 0 0 0.21875c0.010627 0.04165-0.058377 0.65889-0.09375 1.375-0.017686 0.35806 0.00994 0.78543 0.1875 1.2188 0.17756 0.43332 0.56513 0.84592 1.0625 1.0625a0.88762 0.88762 0 0 0 0.375 0.0625c0.14601-0.0047 0.055996-0.01044 0.15625 0-0.32859 0.31123-0.75704 0.71437-1 0.8125a0.88762 0.88762 0 0 0 -0.5 0.53125c-0.64714 2.0169-0.068561 3.9512-0.25 5.4375a0.88762 0.88762 0 0 0 0 0.15625c0.13462 2.0574-0.32844 4.3993 0.1875 6.7812a0.88762 0.88762 0 0 0 0.25 0.4375 0.88762 0.88762 0 0 0 0 0.03125 0.88762 0.88762 0 0 0 -0.28125 0.5c-0.4164 2.934-0.0399 5.903-0.1561 8.626a0.88762 0.88762 0 0 0 0 0.0625c0.15435 4.2798-0.37874 8.7705 0.375 13.25a0.88762 0.88762 0 0 0 0.03125 0.09375c1.2821 4.666 6.1536 6.773 10.531 6.282 0.02073-0.0023 0.04179 0.0024 0.0625 0 3.4221-0.08633 7.0158 0.1889 10.562-0.125a0.88762 0.88762 0 0 0 0.40625 -0.125c0.12845 0.08459 0.2576 0.16814 0.5 0.25 0.30773 0.10393 0.72999 0.09579 1.125-0.0625v0.03125c0.03891-0.01268 0.056-0.01873 0.09375-0.03125 1.4993-0.49737 2.1254-0.87769 3.75-1.1562a0.88762 0.88762 0 0 0 0.375 -0.15625c0.24518-0.17976 0.3495-0.19224 0.46875-0.1875 0.11925 0.0047 0.30535 0.0514 0.53125 0.1875 0.4518 0.2722 1.0131 0.86121 1.8125 1.2812a0.88762 0.88762 0 0 0 0.4375 0.09375c3.0867-0.08306 6.2991 0.21056 9.5312-0.125a0.88762 0.88762 0 0 0 0.53125 -0.21875c0.74134-0.70362 0.88666-1.5443 1.0625-1.9062 0.05627-0.11584 0.09352-0.12214 0.125-0.15625 0.07539 0.39019 0.07208 0.72751 0.28125 1.1562 0.1872 0.38372 0.45502 0.76484 0.90625 1.0312 0.39042 0.23051 0.90904 0.26081 1.4062 0.1875v0.03125c0.07285-0.00029 0.1459 0.000273 0.21875 0 9.264-0.036 18.537 0.065 27.814-0.064a0.88762 0.88762 0 0 0 0.125 0c0.48337-0.07315 1.5946 0.21152 2.8125 0.0625 0.05411-0.0066 0.07038 0.0085 0.125 0 1.8702-0.01811 4.0077 0.166 6.0938-0.125 2.1153-0.29508 4.2422-1.1355 5.75-3.125 0.0095-0.0116 0.02183-0.01962 0.03125-0.03125 1.4877-1.8367 1.9313-4.0008 2.0312-6.0938 0.10063-2.1062-0.13553-4.1947-0.0625-6.0625a0.88762 0.88762 0 0 0 -0.25 -0.65625c-0.03849-0.037-0.01615-0.01261-0.03125-0.03125 0.06518-0.10958 0.22311-0.30698 0.3125-0.78125a0.88762 0.88762 0 0 0 0 -0.15625c-0.029-12.902 0.075-25.811-0.03-38.72a0.88762 0.88762 0 0 0 -0.156 -0.531c-0.37057-0.495-0.8179-0.81246-1.1875-1.0625-0.01836-0.01242-0.01318-0.01905-0.03125-0.03125 0.19117-0.08705 0.1617-0.079 0.46875-0.1875a0.88762 0.88762 0 0 0 0.5 -0.40625c0.53427-0.93348 0.54476-1.9414 0.5-2.8125-0.04476-0.87111-0.1519-1.6563-0.0625-2.25h-0.0625c0.15762-0.53094 0.17546-1.1047-0.0625-1.5-0.27261-0.45286-0.62963-0.685-0.90625-0.875-0.20747-0.1425-0.30104-0.22498-0.375-0.28125 0.52496-1.6336-0.1369-3.0381-0.375-3.8438-0.12399-0.41952-0.11509-0.60605-0.0625-0.71875 0.051-0.113 0.255-0.363 1.03-0.657a0.88762 0.88762 0 0 0 0.53125 -0.625c0.66035-2.4282 0.13644-4.8257 0.28125-6.875 0.0014-0.01933-0.0015-0.04324 0-0.0625 0.737-5.4382-3.791-10.813-9.437-10.376-0.032 0.003-0.062-0.0023-0.094 0.0005-17.628 0.0302-35.296-0.0757-52.906 0.0313a0.88762 0.88762 0 0 0 -0.656 0.2812c-0.299 0.323-0.502 0.5325-0.625 0.625s-0.091 0.0604-0.031 0.0625c0.118 0.0043-0.282-0.1741-1.032-0.8125a0.88762 0.88762 0 0 0 -0.594 -0.1875c-1.205 0.037-2.448-0.0428-3.718-0.0625z"/>
  <path id="path3733" style="opacity:.2;fill:url(#linearGradient17664)" d="m12 5.9375c-4.9901-0.1657-8.7505 4.7865-8.0625 9.5495 0.0371 10.504-0.0741 21.023 0.0554 31.517 0.22239 0.87159-0.62384 2.5071 0.63617 3.0558 2.9823-0.09548 0.67431 2.0281-0.4795 2.4941-0.53754 1.6754 0.0000386 3.508-0.2121 5.2458 0.14458 2.2097-0.27757 4.5374 0.18703 6.6824 1.2321 0.90626 1.1126 0.33517-0.026178 1.2831-0.39375 2.7727-0.040328 5.6862-0.16086 8.5098 0.1576 4.3702-0.36364 8.809 0.36231 13.123 1.1514 4.1904 5.644 6.141 9.683 5.6643 3.5027-0.09281 7.0659 0.18033 10.534-0.12658 0.5129-0.84463 1.0059 0.54115 1.8543 0.12658 1.5182-0.49469 2.222-0.90167 3.9852-1.204 1.4876-1.0907 2.5017 0.55598 3.7243 1.1984 3.1559-0.08492 6.3792 0.19339 9.4963-0.13024 1.027-0.974 0.557-2.604 2.424-2.426 0.13833 0.96687 0.38546 2.9551 1.9644 2.5625 9.3445-0.03718 18.705 0.07421 28.039-0.05544 0.84912-0.1285 1.9622 0.20866 2.9477 0.05544 3.9116-0.05411 8.581 0.66104 11.27-2.9332 2.7029-3.3002 1.6514-7.7482 1.8047-11.667-0.68864-0.66198-0.11096-0.80851 0.03579-1.5871-0.03008-12.907 0.0601-25.825-0.04499-38.724-1.1024-1.4725-3.5584-1.492-0.28623-2.6483 0.79298-1.3855 0.09902-3.2072 0.33122-4.7493 0.67705-1.5306-1.9932-1.6685-1.3654-2.6653 1.0293-2.6965-2.4176-4.5967 1.1188-5.9402 0.58937-2.1672 0.07332-4.54 0.24657-6.7836 0.703-4.922-3.459-9.8814-8.559-9.4275-17.664 0.0308-35.376-0.0613-53.009 0.0457-1.234 1.3333-1.381 1.2514-2.891-0.0342-2.497 0.0765-5.066-0.2035-7.524 0.1253-0.911 0.2638-0.611 3.0395-1.076 1.9851-0.13-1.094-0.85-2.6706-2.208-1.9966-1.05 0.8361-0.661 2.4952-1.108 3.656-0.479-1.1863 0.171-3.5228-1.532-3.7813h-2.1562z"/>
  <path id="path2943" style="opacity:.45;fill:url(#linearGradient17670)" d="m12 7c-3.324 0-6 2.676-6 6v33.219c2.1857 0.12257 4.5638 0.23806 5.75 0.4375 0.646 0.109-0.108 0.242-1.125 0.344-1.0167 0.102-2.3136 0.197-2.8125 0.281-0.6077 0.102-1.2007 0.155-1.8125 0.25v1.0312c0.37152 0.03564 0.69223 0.03125 0.90625 0.03125 0.79002 0.000001 1.1323 0.21978 1.2812 0.5625 0.14898 0.34272 0.09375 0.81514 0.09375 1.375 0 0.41983-0.91575 0.67139-1.125 1.375-0.0747 0.252-0.618 0.511-1.1562 0.75v2.1875c0.71848 0.02468 1.4116 0.05972 1.8125 0.3125 0.2752 0.174-0.7686 0.377-1.8125 0.563v7.5c1.1115 0.17822 3.2316 0.89604 3.875 1.0312 1.0648 0.22378 1.1853 0.33596 0.84375 0.4375-0.342 0.101-1.1306 0.176-1.9378 0.312-0.9553 0.161-1.8942 0.457-2.7812 0.656v19.344c0 3.324 2.676 6 6 6h12.562c0.09318-0.43308 0.15326-0.90588 0.25-1.4062 0.1371-0.70907 0.22652-1.3446 0.34375-1.5938 0.02931-0.0623 0.05898-0.11418 0.09375-0.125 0.10432-0.03246 0.24356 0.19889 0.46875 0.78125 0.298 0.769 0.513 1.624 0.657 2.344h0.75c0.26973-0.48789 0.55273-1.1108 0.78125-1.4062 0.09677-0.12514 0.28119 0.10312 0.53125 0.34375 0.25006 0.24064 0.56576 0.48507 0.90625 0.375 0.63353-0.20479 1.5815-0.6982 2-0.96875 0.13663-0.08833 0.27138-0.15832 0.375-0.1875s0.17609-0.01753 0.25 0c0.14782 0.03506 0.23479 0.14617 0.34375 0.28125 0.21791 0.27016 0.44939 0.625 1.0312 0.625 0.46722 0 0.66007-0.03138 0.78125 0.0625s0.1707 0.32114 0.375 0.875h8.6875c-0.04667-0.58689 1.0134-2.131 1.1875-3.0312 0.18648-0.96451 0.21564-1.2091 0.28125-1.0312 0.06561 0.1778 0.16768 0.77096 0.4375 1.4688 0.10788 0.27898 0.21618 0.35733 0.3125 0.28125s0.17078-0.29711 0.25-0.5625c0.15844-0.53079 0.287-1.269 0.34375-1.5625 0.12808-0.66245 0.09732-1.7611 0.09375-2.25-0.00089-0.12223-0.0058-0.21819 0-0.25 0.01738-0.09543 0.08534 0.29591 0.28125 1.5625 0.16001 1.0345 0.55165 2.667 0.71875 3.5312 0.16585 0.85778 0.26937 1.2974 0.375 1.8438h27.562c0.03787-0.48913 0.03582-1.0721 0.0625-1.4688 0.02001-0.29752 0.06858-0.48679 0.15625-0.46875 0.02922 0.006 0.05177 0.03947 0.09375 0.09375 0.22802 0.29483 0.60721 1.142 0.9375 1.8438h7.719c3.324 0 6-2.676 6-6v-7.0625c-0.16548 0.0045-0.29499 0-0.5 0h-3.875c-1.198 0-1.996-0.0017-2.1875-0.0625-0.1915-0.06081 0.23046-0.18691 1.4375-0.5 0.6398-0.16596 3.2618-0.90172 5.125-1.3125v-37.969c-0.63757-0.2632-1.1884-0.49357-1.7188-0.90625-0.1392-0.10832-0.42969-0.36322-0.9375-0.53125s-1.235-0.25387-2.2188-0.0625c-1.4978 0.29138-1.6442 0.28197-1.2188 0.15625 0.42547-0.12572 1.4243-0.38278 2.1875-0.53125 1.126-0.219 2.658-1.181 3.906-1.813v-4.531c-0.682-0.255-1.399-0.533-1.719-1.031-0.205-0.319-0.29-0.515-0.281-0.625 0.0089-0.11066 0.10446-0.14958 0.21875-0.1875s0.26368-0.05569 0.375-0.15625 0.1875-0.29517 0.1875-0.59375c0-0.31912 0.082-0.86192 0.0625-1.375-0.0097-0.25654-0.03769-0.49948-0.125-0.6875s-0.22417-0.3335-0.4375-0.375c-0.56121-0.10918-0.81824-0.23498-0.875-0.34375s0.07694-0.19045 0.28125-0.28125c0.40861-0.1816 1.1011-0.3082 1.0938-0.3125-0.65315-0.38119-5.1164-0.92178-4.875-0.96875 0.32484-0.06319 0.64392-0.1243 0.96875-0.1875 1.0233-0.19907 2.3697-0.31221 3.6562-0.5625 0.56-0.109 0.886-0.253 1.094-0.438s0.296-0.394 0.375-0.594v-8.156c0-3.324-2.676-6-6-6h-50.031c0.094 1.3811 0.194 2.919-0.094 2.1562-0.206-0.5434-0.326-1.1127-0.531-1.6562-0.052-0.1375-0.098-0.3315-0.156-0.5h-1.9688c-0.2351 0.48652-0.45735 0.97338-0.78125 1.1875-0.49514 0.32733-0.76026 0.46233-1 0.375-0.24-0.0873-0.455-0.4012-0.813-0.875-0.16-0.2115-0.442-0.4345-0.75-0.6875h-6.656l-1.281 5.5-1.688-5.5h-0.219l-1.719 8.844-1.374-8.844h-2.938z"/>
  <path id="path3720" style="opacity:.3;fill:url(#linearGradient17664)" d="m12 7c-3.878 0-7 3.122-7 7v32.688c2.2378 0.12403 4.6605 0.23568 5.875 0.4375 0.66093 0.10983-0.08406 0.24085-1.125 0.34375-1.0409 0.103-2.3955 0.196-2.9062 0.281-0.6222 0.103-1.2174 0.154-1.8438 0.25v1.0625c0.38037 0.03606 0.71838 0.03125 0.9375 0.03125 0.80883 0.000001 1.16 0.2157 1.3125 0.5625 0.15253 0.3468 0.09375 0.83972 0.09375 1.4062 0 0.42483-0.94202 0.66302-1.1562 1.375-0.0767 0.255-0.6365 0.509-1.1876 0.751v2.2188c0.73559 0.02497 1.4333 0.05671 1.8438 0.3125 0.2817 0.174-0.775 0.404-1.8438 0.592v7.5625c1.138 0.18034 3.3101 0.92568 3.9688 1.0625 1.0902 0.22645 1.2247 0.33476 0.875 0.4375-0.34972 0.10274-1.1736 0.17517-2 0.3125-0.9781 0.164-1.9356 0.456-2.8438 0.658v18.656c0 3.878 3.122 7 7 7h12c0.0954-0.43824 0.15096-0.93118 0.25-1.4375 0.14036-0.71751 0.25498-1.3416 0.375-1.5938 0.03001-0.06304 0.05815-0.11405 0.09375-0.125 0.1068-0.03285 0.2382 0.19196 0.46875 0.78125 0.30434 0.77787 0.54017 1.6468 0.6875 2.375h0.75c0.27615-0.49369 0.57854-1.1385 0.8125-1.4375 0.09907-0.12663 0.27524 0.1315 0.53125 0.375s0.5889 0.48638 0.9375 0.375c0.64861-0.20723 1.6028-0.72622 2.0312-1 0.13988-0.08938 0.30016-0.15798 0.40625-0.1875 0.10609-0.02953 0.17433-0.01774 0.25 0 0.15134 0.03548 0.2322 0.14456 0.34375 0.28125 0.2231 0.27338 0.46679 0.65625 1.0625 0.65625 0.47834 0 0.65718-0.03249 0.78125 0.0625 0.12406 0.095 0.19709 0.31455 0.40625 0.875h8.875c-0.04778-0.59388 1.0405-2.1515 1.2188-3.0625 0.19092-0.976 0.21408-1.2424 0.28125-1.0625 0.06717 0.17992 0.1925 0.79391 0.46875 1.5 0.11045 0.2823 0.21389 0.35824 0.3125 0.28125s0.16889-0.29395 0.25-0.5625c0.16221-0.53711 0.28565-1.2967 0.34375-1.5938 0.13113-0.67034 0.12866-1.7865 0.125-2.2812-0.000911-0.12369-0.0059-0.21781 0-0.25 0.01779-0.09657 0.08067 0.31208 0.28125 1.5938 0.16382 1.0468 0.54767 2.6879 0.71875 3.5625 0.1698 0.86799 0.2981 1.3221 0.40625 1.875h28.219c0.03877-0.49496 0.03518-1.0986 0.0625-1.5 0.02049-0.30106 0.06649-0.487 0.15625-0.46875 0.02992 0.0061 0.05077 0.03882 0.09375 0.09375 0.23345 0.29834 0.6306 1.1649 0.96875 1.875h7.031c3.878 0 7-3.122 7-7v-6.2188c-0.16942 0.0046-0.29011 0-0.5 0h-3.9688c-1.2266 0-2.0539-0.00096-2.25-0.0625-0.19606-0.06153 0.23297-0.18318 1.4688-0.5 0.655-0.167 3.342-0.927 5.25-1.343v-38.406c-0.653-0.267-1.207-0.489-1.75-0.907-0.143-0.109-0.449-0.392-0.969-0.562s-1.274-0.256-2.281-0.062c-1.5335 0.29485-1.6856 0.28347-1.25 0.15625s1.4686-0.38101 2.25-0.53125c1.1527-0.22165 2.7222-1.2042 4-1.8438v-4.5625c-0.69831-0.25798-1.4222-0.55827-1.75-1.0625-0.20971-0.32258-0.32162-0.51302-0.3125-0.625 0.0091-0.11198 0.13299-0.14912 0.25-0.1875 0.11701-0.03837 0.26103-0.05449 0.375-0.15625s0.1875-0.29162 0.1875-0.59375c0-0.32292 0.08246-0.88706 0.0625-1.4062-0.0099-0.25959-0.03561-0.49724-0.125-0.6875s-0.21909-0.333-0.4375-0.375c-0.57457-0.11048-0.84814-0.23368-0.90625-0.34375s0.07207-0.18937 0.28125-0.28125c0.41834-0.18376 1.1325-0.3394 1.125-0.34375-0.6687-0.38572-5.2472-0.92123-5-0.96875 0.33257-0.06394 0.66744-0.12355 1-0.1875 1.0476-0.20144 2.4328-0.30923 3.75-0.5625 0.57326-0.11023 0.91177-0.25057 1.125-0.4375s0.2942-0.42326 0.375-0.625v-7.312c0-3.878-3.122-7-7-7h-50.375c0.097 1.3976 0.202 2.9594-0.094 2.1875-0.21-0.55-0.321-1.1375-0.531-1.6875-0.053-0.1391-0.096-0.3295-0.156-0.5h-2.032c-0.24 0.4923-0.449 0.9708-0.781 1.1875-0.507 0.3312-0.786 0.4946-1.031 0.4063-0.245-0.0884-0.477-0.4268-0.844-0.9063-0.163-0.214-0.434-0.4315-0.75-0.6875h-6.8125l-1.3125 5.5625-1.75-5.562h-0.219l-1.75 8.938-1.406-8.938h-2.156z"/>
 </g>
 <path id="rect2419" style="fill:url(#linearGradient4739)" d="m84.155 5.2426c3.324 0 6 2.676 6 6v33.219c-2.1857 0.12257-4.5638 0.23806-5.75 0.4375-0.64556 0.10854 0.10827 0.24206 1.125 0.34375s2.3136 0.19737 2.8125 0.28125c0.60768 0.10217 1.2006 0.15513 1.8125 0.25v1.0312c-0.37152 0.03564-0.69223 0.03125-0.90625 0.03125-0.79002 0.000001-1.1323 0.21978-1.2812 0.5625-0.14898 0.34272-0.0937 0.81514-0.0937 1.375 0 0.41983 0.91575 0.67139 1.125 1.375 0.0748 0.25147 0.61801 0.51087 1.1562 0.75v2.1875c-0.71848 0.02468-1.4116 0.05972-1.8125 0.3125-0.27517 0.17349 0.76856 0.37632 1.8125 0.5625v7.5c-1.1115 0.17822-3.2316 0.89604-3.875 1.0312-1.0648 0.22378-1.1853 0.33596-0.84375 0.4375 0.34159 0.10154 1.1303 0.17679 1.9375 0.3125 0.95534 0.16062 1.8942 0.45687 2.7812 0.65625v19.344c0 3.324-2.676 6-6 6h-12.562c-0.0932-0.43308-0.15326-0.90588-0.25-1.4062-0.1371-0.70907-0.22652-1.3446-0.34375-1.5938-0.0293-0.0623-0.059-0.11418-0.09375-0.125-0.10432-0.03246-0.24356 0.19889-0.46875 0.78125-0.29726 0.76872-0.51235 1.6241-0.65625 2.3438h-0.75c-0.26973-0.48789-0.55273-1.1108-0.78125-1.4062-0.09677-0.12514-0.28119 0.10312-0.53125 0.34375-0.25006 0.24064-0.56576 0.48507-0.90625 0.375-0.63353-0.20479-1.5815-0.6982-2-0.96875-0.13663-0.08833-0.27138-0.15832-0.375-0.1875s-0.17609-0.01753-0.25 0c-0.14782 0.03506-0.23479 0.14617-0.34375 0.28125-0.21791 0.27016-0.44939 0.625-1.0312 0.625-0.46722 0-0.66007-0.03138-0.78125 0.0625s-0.1707 0.32114-0.375 0.875h-8.6875c0.04667-0.58689-1.0134-2.131-1.1875-3.0312-0.18648-0.96451-0.21564-1.2091-0.28125-1.0312-0.06561 0.1778-0.16768 0.77096-0.4375 1.4688-0.10788 0.27898-0.21618 0.35733-0.3125 0.28125s-0.17078-0.29711-0.25-0.5625c-0.15844-0.53079-0.287-1.269-0.34375-1.5625-0.12808-0.66245-0.09732-1.7611-0.09375-2.25 0.00089-0.12223 0.0058-0.21819 0-0.25-0.01738-0.09543-0.08534 0.29591-0.28125 1.5625-0.16001 1.0345-0.55165 2.667-0.71875 3.5312-0.16585 0.85778-0.26937 1.2974-0.375 1.8438h-27.562c-0.03787-0.48913-0.03582-1.0721-0.0625-1.4688-0.02001-0.29752-0.06858-0.48679-0.15625-0.46875-0.02922 0.006-0.05177 0.03947-0.09375 0.09375-0.22802 0.29483-0.60721 1.142-0.9375 1.8438h-7.7188c-3.324 0-6-2.676-6-6v-7.0625c0.16548 0.0045 0.29499 0 0.5 0h3.875c1.198 0 1.996-0.0017 2.1875-0.0625 0.1915-0.06081-0.23046-0.18691-1.4375-0.5-0.6398-0.16596-3.2618-0.90172-5.125-1.3125v-37.969c0.63757-0.2632 1.1884-0.49357 1.7188-0.90625 0.1392-0.10832 0.42969-0.36322 0.9375-0.53125s1.235-0.25387 2.2187-0.0625c1.4978 0.29138 1.6442 0.28197 1.2188 0.15625-0.42547-0.12572-1.4243-0.38278-2.1875-0.53125-1.1259-0.21904-2.6582-1.1805-3.9062-1.8125v-4.5312c0.68207-0.25494 1.3986-0.53296 1.7188-1.0312 0.20483-0.31878 0.29016-0.51434 0.28125-0.625-0.0089-0.11066-0.10446-0.14958-0.21875-0.1875s-0.26368-0.05569-0.375-0.15625-0.1875-0.29517-0.1875-0.59375c0-0.31912-0.082-0.86192-0.0625-1.375 0.0097-0.25654 0.03769-0.49948 0.125-0.6875s0.22417-0.3335 0.4375-0.375c0.56121-0.10918 0.81824-0.23498 0.875-0.34375s-0.07694-0.19045-0.28125-0.28125c-0.40861-0.1816-1.1011-0.3082-1.0938-0.3125 0.65315-0.38119 5.1164-0.92178 4.875-0.96875-0.32484-0.06319-0.64392-0.1243-0.96875-0.1875-1.0233-0.19907-2.3697-0.31221-3.6562-0.5625-0.55993-0.10893-0.88548-0.25277-1.0938-0.4375-0.20827-0.18473-0.29608-0.39438-0.375-0.59375v-8.1562c0-3.324 2.676-6 6-6h50.031c-0.09433 1.3811-0.19471 2.919 0.09375 2.1562 0.20553-0.54348 0.32572-1.1128 0.53125-1.6562 0.052-0.1375 0.09746-0.33148 0.15625-0.5h1.9688c0.2351 0.48652 0.45735 0.97338 0.78125 1.1875 0.49514 0.32733 0.76026 0.46233 1 0.375s0.45412-0.40116 0.8125-0.875c0.15994-0.21146 0.44187-0.43448 0.75-0.6875h6.6563l1.2812 5.5 1.6875-5.5h0.21875l1.7188 8.8438 1.375-8.8438h2.9375z"/>
 <rect id="rect4767" style="opacity:.17647;fill:#fff" height="8" width="3.4696" y="58" x="13.53"/>
 <rect id="rect4759" style="opacity:.17647;fill:#fff" height="2.841" width="83.841" y="75.942" x="6"/>
 <rect id="rect4755" style="opacity:.17647;fill:#fff" height="2.88" width="84" y="55" x="6"/>
 <rect id="rect4753" style="opacity:.17647;fill:#fff" height="2.88" width="76" y="44.12" x="7"/>
 <rect id="rect4751" style="opacity:.17647;fill:#fff" height="3.0364" width="77.041" y="32.964" x="12"/>
 <rect id="rect4749" style="opacity:.17647;fill:#fff" height="3.0755" width="80.483" y="21.925" x="9"/>
 <rect id="rect4747" style="opacity:.17647;fill:#fff" height="3.2709" width="71" y="11" x="7"/>
 <rect id="rect4611" style="opacity:.17647;fill:#fff" height="4.5819" width="3.4696" y="9.3241" x="75.261"/>
 <rect id="rect4603" style="opacity:.17647;fill:#fff" height="8.6013" width="3.4696" y="78.796" x="16.11"/>
 <rect id="rect4613" style="opacity:.17647;fill:#fff" height="7" width="3.4696" y="69" x="46.53"/>
 <rect id="rect4763" style="opacity:.17647;fill:#fff" height="2.88" width="84" y="66.156" x="5.9218"/>
 <path id="path3615-8" style="opacity:.3;fill:url(#radialGradient4728)" d="m85.998 5.5864c0.30153 0.096803 0.59645 0.20414 0.875 0.34375 0.55709 0.27922 1.06 0.66569 1.5 1.0938 0.21997 0.21403 0.40937 0.44186 0.59375 0.6875s0.35541 0.50774 0.5 0.78125c0.1138 0.21527 0.22182 0.43013 0.3125 0.65625 0.021 0.052285 0.0439 0.1022 0.0625 0.15625 0.0104 0.03015 0.0213 0.06337 0.0312 0.09375 0.006 0.01873-0.006 0.04369 0 0.0625 0.0215 0.07131 0.0453 0.14518 0.0625 0.21875 0.0459 0.19666 0.092 0.39332 0.125 0.59375 0.0524 0.31805 0.0937 0.63403 0.0937 0.96875v2 31.219c-0.33636 0.01886-0.65958 0.04364-1 0.0625v-32.281-2c0-0.36429-0.0521-0.72099-0.125-1.0625-0.0234-0.10947-0.0634-0.20588-0.0937-0.3125-0.0267-0.094419-0.0307-0.1893-0.0625-0.28125-0.008-0.02195-0.0233-0.04069-0.0312-0.0625-0.0756-0.2093-0.18024-0.43029-0.28125-0.625-0.0573-0.10798-0.12274-0.20947-0.1875-0.3125-0.0241-0.03913-0.0374-0.08662-0.0625-0.125-0.0941-0.14096-0.20492-0.276-0.3125-0.40625-0.15254-0.18586-0.32207-0.36982-0.5-0.53125-0.0992-0.088888-0.20633-0.1692-0.3125-0.25-0.11273-0.086487-0.22336-0.1733-0.34375-0.25-0.0315-0.01999-0.0618-0.0432-0.0937-0.0625-0.007-0.0045-0.0238 0.0044-0.0312 0-0.23204-0.13873-0.46255-0.27478-0.71875-0.375zm-75.688 0c-0.2562 0.10022-0.48671 0.23627-0.71875 0.375-0.0074 0.0044-0.02385-0.0045-0.03125 0-0.10818 0.065386-0.20993 0.1456-0.3125 0.21875-0.15241 0.10931-0.29911 0.21819-0.4375 0.34375-0.01127 0.0101-0.02008 0.02105-0.03125 0.03125-0.16561 0.153-0.32558 0.32555-0.46875 0.5-0.10758 0.13026-0.21839 0.26528-0.3125 0.40625-0.06073 0.0929-0.1329 0.18404-0.1875 0.28125-0.04596 0.080046-0.08342 0.1672-0.125 0.25-0.08037 0.1638-0.15601 0.35751-0.21875 0.53125-0.008 0.02181-0.02355 0.04055-0.03125 0.0625-0.06787 0.19609-0.1121 0.38686-0.15625 0.59375-0.07288 0.34151-0.125 0.69821-0.125 1.0625v2 8.0625c-0.27304-0.08798-0.48762-0.19065-0.625-0.3125-0.20827-0.18473-0.29608-0.39438-0.375-0.59375v-6.1562-2c0-0.33472 0.04135-0.6507 0.09375-0.96875 0.03302-0.20043 0.07907-0.39709 0.125-0.59375 0.02507-0.09361 0.03309-0.18953 0.0625-0.28125 0.0099-0.03101 0.02084-0.06297 0.03125-0.09375 0.01857-0.054045 0.04153-0.10397 0.0625-0.15625 0.09068-0.22612 0.1987-0.44098 0.3125-0.65625 0.14459-0.27351 0.31562-0.53562 0.5-0.78125 0.18438-0.24564 0.37378-0.47347 0.59375-0.6875 0.43995-0.42806 0.94291-0.81453 1.5-1.0938 0.27854-0.13961 0.57347-0.24695 0.875-0.34375zm-3.1562 22.094v5.5c-0.33675-0.18243-0.68798-0.37326-1-0.53125v-4.5312c0.34104-0.12747 0.69559-0.27384 1-0.4375zm0 8.1875v38.688c-0.33653-0.08148-0.69249-0.1822-1-0.25v-37.969c0.35754-0.1476 0.68533-0.30386 1-0.46875zm82 9.7812c0.33114 0.04205 0.66302 0.07275 1 0.125v1.0312c-0.37152 0.03564-0.69223 0.03125-0.90625 0.03125-0.0369 0-0.0588-0.000949-0.0937 0v-1.1875zm0 4.7188c0.21637 0.18214 0.61357 0.35957 1 0.53125v2.1875c-0.34839 0.01197-0.69396 0.02202-1 0.0625v-2.7812zm0 3.4062c0.31139 0.06817 0.62971 0.12146 1 0.1875v7.5c-0.28487 0.04568-0.62446 0.12108-1 0.21875v-7.9062zm0 9.875c0.33457 0.08694 0.67744 0.1775 1 0.25v17.344 2c0 3.324-2.676 6-6 6h-12.562c-0.0932-0.43308-0.15326-0.90588-0.25-1.4062-0.0421-0.21798-0.0897-0.39876-0.125-0.59375h10.938 2c2.7818 0 5-2.2182 5-5v-2-16.594zm-82 12.531v4.0625 2c0 2.7818 2.2182 5 5 5h2 34.938c-0.0086 0.04295-0.02355 0.11643-0.03125 0.15625-0.16585 0.85778-0.26937 1.2974-0.375 1.8438h-27.562c-0.03787-0.48913-0.03582-1.0721-0.0625-1.4688-0.02001-0.29752-0.06858-0.48679-0.15625-0.46875-0.02922 0.006-0.05177 0.03947-0.09375 0.09375-0.22802 0.29483-0.60721 1.142-0.9375 1.8438h-7.7188c-3.324 0-6-2.676-6-6v-2-5.0625c0.16548 0.0045 0.29499 0 0.5 0h0.5zm63.187 11.062c-0.23483 0.67617-0.43917 1.3832-0.5625 2h-0.75c-0.26973-0.48789-0.55273-1.1108-0.78125-1.4062-0.09677-0.12514-0.28119 0.10312-0.53125 0.34375-0.25006 0.24064-0.56576 0.48507-0.90625 0.375-0.63353-0.20479-1.5815-0.6982-2-0.96875-0.13663-0.08833-0.27138-0.15832-0.375-0.1875s-0.17609-0.01753-0.25 0c-0.14782 0.03506-0.23479 0.14617-0.34375 0.28125-0.21791 0.27016-0.44939 0.625-1.0312 0.625-0.46722 0-0.66007-0.03138-0.78125 0.0625s-0.1707 0.32114-0.375 0.875h-8.6875c0.03157-0.39702-0.44802-1.2225-0.8125-2h18.188z"/>
 <path id="path3638" style="opacity:.5;fill:url(#linearGradient4725)" d="m84.155 5.2426c3.324 0 6 2.676 6 6v33.219c-0.33636 0.01886-0.65958 0.04364-1 0.0625v-32.281c0-2.7818-2.2182-5-5-5h-2.0625l-1.25 8c-0.0632 0.49882-0.49725 0.86714-1 0.875-0.50275 0.0079-0.9212-0.34715-1-0.84375l-1.0312-5.2813-0.625 2.0313c-0.1402 0.42574-0.55201 0.70195-1 0.6875s-0.82504-0.31611-0.9375-0.75l-1.0938-4.7188h-5.4688c-0.13079 0.11545-0.33143 0.26496-0.34375 0.28125-0.34585 0.45727-0.49218 0.93133-1.2812 1.2188-0.38967 0.14194-0.83448 0.085863-1.125-0.03125s-0.51778-0.26332-0.78125-0.4375c-0.47306-0.31273-0.54728-0.67843-0.71875-1.0312h-0.75c-0.14566 0.42479-0.25011 0.92185-0.46875 1.5-0.05249 0.1388-0.06174 0.2487-0.28125 0.5-0.10976 0.12565-0.36874 0.41892-0.875 0.375s-0.76216-0.43295-0.84375-0.59375c-0.16318-0.3216-0.11436-0.40583-0.125-0.53125s-0.000238-0.24229 0-0.375c0.00043-0.23959 0.01542-0.57687 0.03125-0.875h-48.969c-2.7818 0-5 2.2182-5 5v7.9375c0.0065 0.0082 0.02249 0.05473 0.03125 0.0625 0.01207 0.01071 0.15665 0.09639 0.625 0.1875 1.2129 0.23596 2.5404 0.34541 3.6562 0.5625 0.32294 0.06283 0.64202 0.12394 0.96875 0.1875 0.03092 0.006 0.0701 0.01344 0.125 0.03125s0.24925 0.12451 0.25 0.125c0.000377 0.000243 0.18726 0.15599 0.1875 0.15625 0.000238 0.000258 0.21865 0.34348 0.21875 0.34375 0.0001 0.000272 0.03129 0.46846 0.03125 0.46875-0.000037 0.000287-0.12483 0.3747-0.125 0.375-0.000173 0.000301-0.15594 0.21843-0.15625 0.21875-0.000308 0.000316-0.05986 0.06843-0.09375 0.09375-0.06779 0.05065-0.11933 0.07502-0.15625 0.09375-0.07383 0.03746-0.12396 0.05157-0.15625 0.0625-0.12914 0.04373-0.15304 0.04937-0.21875 0.0625-0.13143 0.02626-0.29843 0.06145-0.5 0.09375-0.40314 0.0646-0.95419 0.12548-1.5312 0.21875-0.21821 0.03527-0.4077 0.08759-0.625 0.125 0.0026 0.20338 0.04426 0.41779-0.03125 0.5625-0.2438 0.46722-0.54184 0.5257-0.78125 0.625-0.15594 0.06468-0.34661 0.1108-0.53125 0.15625-0.0075 0.0424-0.02596 0.0483-0.03125 0.1875-0.01272 0.33473 0.0486 0.75857 0.0625 1.1875 0.07944 0.02657 0.16291 0.04849 0.3125 0.15625 0.20943 0.15087 0.44187 0.50993 0.46875 0.84375 0.05796 0.71981-0.20008 0.8805-0.4375 1.25-0.42714 0.66478-1.0062 0.93732-1.5625 1.1562v3.2188c1.1699 0.6119 2.453 1.3441 3.0937 1.4688 0.81555 0.15866 1.8026 0.42106 2.2812 0.5625 0.06238 0.01843 0.12934 0.04233 0.1875 0.0625s0.06113 0.0085 0.25 0.125c0.04722 0.02914 0.11011 0.03838 0.21875 0.15625 0.02716 0.02947 0.09352 0.12466 0.09375 0.125 0.000232 0.000336 0.09362 0.18718 0.09375 0.1875 0.000134 0.000316 0.09371 0.28096 0.09375 0.28125 0.000036 0.000295-0.03119 0.34348-0.03125 0.34375-0.000063 0.000274-0.12484 0.31225-0.125 0.3125-0.000163 0.000252-0.18724 0.21852-0.1875 0.21875-0.000264 0.000231-0.15588 0.12479-0.15625 0.125-0.000365 0.000209-0.08821 0.04776-0.125 0.0625-0.14715 0.05895-0.22629 0.0564-0.28125 0.0625-0.21983 0.02439-0.24436 0.0073-0.3125 0-0.27258-0.02932-0.64929-0.10274-1.4062-0.25-0.83652-0.16273-1.3866-0.07865-1.7187 0.03125-0.32763 0.10841-0.41721 0.2133-0.625 0.375-0.44848 0.34898-0.8982 0.51943-1.3438 0.71875v36.562c0.81836 0.19696 1.2574 0.32956 2.0312 0.53125-0.96838-0.25603-2.0997-0.54461-3.0312-0.75v-37.969c0.63757-0.2632 1.1884-0.49357 1.7188-0.90625 0.1392-0.10832 0.42969-0.36322 0.9375-0.53125s1.235-0.25387 2.2187-0.0625c1.4978 0.29138 1.6442 0.28197 1.2188 0.15625-0.42547-0.12572-1.4243-0.38278-2.1875-0.53125-1.1259-0.21904-2.6582-1.1805-3.9062-1.8125v-4.5312c0.68207-0.25494 1.3986-0.53296 1.7188-1.0312 0.20483-0.31878 0.29016-0.51434 0.28125-0.625-0.0089-0.11066-0.10446-0.14958-0.21875-0.1875s-0.26368-0.05569-0.375-0.15625-0.1875-0.29517-0.1875-0.59375c0-0.31912-0.082-0.86192-0.0625-1.375 0.0097-0.25654 0.03769-0.49948 0.125-0.6875s0.22417-0.3335 0.4375-0.375c0.56121-0.10918 0.81824-0.23498 0.875-0.34375s-0.07694-0.19045-0.28125-0.28125c-0.40861-0.1816-1.1011-0.3082-1.0938-0.3125 0.65315-0.38119 5.1164-0.92178 4.875-0.96875-0.32484-0.06319-0.64392-0.1243-0.96875-0.1875-1.0233-0.19907-2.3697-0.31221-3.6562-0.5625-0.55993-0.10893-0.88548-0.25277-1.0938-0.4375-0.20827-0.18473-0.29608-0.39438-0.375-0.59375v-8.1562c0-3.324 2.676-6 6-6h50.031c-0.09433 1.3811-0.19471 2.919 0.09375 2.1562 0.20553-0.54348 0.32572-1.1128 0.53125-1.6562 0.052-0.1375 0.09746-0.33148 0.15625-0.5h1.9688c0.2351 0.48652 0.45735 0.97338 0.78125 1.1875 0.49514 0.32733 0.76026 0.46233 1 0.375 0.23974-0.087327 0.45412-0.40116 0.8125-0.875 0.15994-0.21147 0.44187-0.43448 0.75-0.6875h6.6563l1.2812 5.5 1.6875-5.5h0.21875l1.7188 8.8438 1.375-8.8438h2.9375zm-74.969 69.812c0.89115 0.23226 2.0775 0.5247 2.3437 0.59375 0.60773 0.15764 1.0127 0.2428 1.3125 0.34375 0.14992 0.05048 0.22645 0.03669 0.53125 0.28125 0.0762 0.06114 0.17748 0.13526 0.28125 0.34375s0.15522 0.59863 0.03125 0.875c-0.24795 0.55274-0.53332 0.55472-0.65625 0.59375-0.23947 0.07604-0.35011 0.05166-0.5 0.0625s-0.30412 0.02704-0.5 0.03125c-0.39177 0.0084-0.90051 0-1.5 0h-3.375v6.0625c0 2.4341 1.7118 4.4436 4 4.9062-2.8472-0.47138-5-2.9214-5-5.9062v-7.0625c0.16548 0.0045 0.29499 0 0.5 0h3.875c1.198 0 1.996-0.0017 2.1875-0.0625 0.1915-0.06081-0.23046-0.18691-1.4375-0.5-0.3199-0.08298-1.1254-0.30647-2.0937-0.5625zm77.25-30.375c-0.80836 0.06055-1.5368 0.13562-2.0312 0.21875-0.64556 0.10854 0.10827 0.24206 1.125 0.34375s2.3136 0.19737 2.8125 0.28125c0.60768 0.10217 1.2006 0.15513 1.8125 0.25v1.0312c-0.37152 0.03564-0.69223 0.03125-0.90625 0.03125-0.79002 0.000001-1.1323 0.21978-1.2812 0.5625-0.14898 0.34272-0.0937 0.81514-0.0937 1.375 0 0.41983 0.91575 0.67139 1.125 1.375 0.0748 0.25147 0.61801 0.51087 1.1562 0.75v2.1875c-0.71848 0.02468-1.4116 0.05972-1.8125 0.3125-0.27517 0.17349 0.76856 0.37632 1.8125 0.5625v7.5c-0.28487 0.04568-0.62446 0.12108-1 0.21875v-5.9062c-0.22135-0.04506-0.46525-0.07382-0.65625-0.125-0.21472-0.05753-0.37731-0.07878-0.65625-0.25-0.13947-0.08561-0.43089-0.21759-0.53125-0.75-0.0502-0.26621 0.0348-0.59502 0.15625-0.78125 0.1215-0.18623 0.24685-0.2514 0.34375-0.3125 0.46097-0.29063 0.90648-0.39795 1.3438-0.4375v-0.5625c-0.0948-0.04864-0.18765-0.10066-0.28125-0.15625-0.28487-0.1692-0.64293-0.29341-0.84375-0.96875 0.00077 0.0026-0.0759-0.09265-0.3125-0.28125-0.11832-0.0943-0.26337-0.19209-0.4375-0.375s-0.40625-0.52781-0.40625-1c0-0.49343-0.16443-1.0436 0.15625-1.7812 0.0913-0.21005 0.34056-0.35239 0.53125-0.53125-0.56934-0.06072-1.3221-0.13845-2.125-0.21875-0.52733-0.05274-0.96886-0.09227-1.3438-0.1875-0.0937-0.02381-0.164-0.05245-0.3125-0.125-0.0742-0.03628-0.17472-0.08035-0.3125-0.21875-0.13779-0.1384-0.36936-0.47963-0.3125-0.875 0.0569-0.39537 0.30592-0.59262 0.4375-0.6875s0.20873-0.1299 0.28125-0.15625c0.14503-0.05269 0.26176-0.07471 0.375-0.09375 0.56302-0.09466 1.3328-0.16121 2.1875-0.21875zm2.7188 17c-1.0897 0.28342-2.3965 0.71194-2.875 0.8125-1.0648 0.22378-1.1853 0.33596-0.84375 0.4375 0.34159 0.10154 1.1303 0.17679 1.9375 0.3125 0.95534 0.16062 1.8942 0.45687 2.7812 0.65625v19.344c0 2.9849-2.1528 5.4349-5 5.9062 2.2882-0.4626 4-2.4721 4-4.9062v-18.531c-0.66162-0.16962-1.3233-0.36548-1.9375-0.46875-0.76131-0.128-1.4445-0.16006-2.0625-0.34375-0.14965-0.04448-0.35042 0.04975-0.71875-0.46875-0.18416-0.25925-0.19783-0.84193-0.0312-1.125 0.16658-0.28307 0.32958-0.37598 0.4375-0.4375 0.43167-0.24607 0.66061-0.2577 1.2188-0.375 0.18814-0.03954 0.92881-0.2474 1.6875-0.46875 0.47356-0.13816 0.9398-0.23053 1.4062-0.34375zm-39.063 20.594c0.00043 0.000012 0.53085 0.18723 0.53125 0.1875 0.000402 0.000266 0.24962 0.24948 0.25 0.25 0.000375 0.000517 0.07242 0.10943 0.09375 0.15625s0.05265 0.09412 0.0625 0.125c0.0197 0.06176 0.02538 0.09278 0.03125 0.125 0.04394 0.24139 0.000761 0.2275 0 0.28125s0.000361 0.10671 0 0.15625c-0.0031 0.42549 0.01817 1.1704 0.0625 1.6875 0.08915-0.04734 0.11899-0.10502 0.25-0.125 0.05228-0.008 0.10369-0.0018 0.15625 0-0.01487-0.01299-0.01485 0.01805-0.03125 0.0625-0.06561 0.1778-0.16768 0.77096-0.4375 1.4688-0.10788 0.27898-0.21618 0.35733-0.3125 0.28125s-0.17078-0.29711-0.25-0.5625c-0.15844-0.53079-0.287-1.269-0.34375-1.5625-0.12808-0.66245-0.09732-1.7611-0.09375-2.25 0.00089-0.12223 0.0058-0.21819 0-0.25-0.01738-0.09543-0.08534 0.29591-0.28125 1.5625-0.16001 1.0345-0.55165 2.667-0.71875 3.5312-0.16585 0.85778-0.26937 1.2974-0.375 1.8438h-0.84375c0.06515-0.31052 0.12732-0.55837 0.21875-1.0312 0.17794-0.92031 0.57226-2.553 0.71875-3.5 0.09825-0.6352 0.17128-1.0469 0.21875-1.3125 0.02373-0.13278 0.02862-0.2209 0.0625-0.34375 0.0085-0.03071 0.0089-0.06728 0.03125-0.125 0.01119-0.02886 0.03495-0.04177 0.0625-0.09375 0.01378-0.02599 0.03702-0.05595 0.0625-0.09375s0.09326-0.15574 0.09375-0.15625c0.000488-0.000505 0.28079-0.18726 0.28125-0.1875 0.000459-0.000245 0.49957-0.12501 0.5-0.125zm1.4375 2.8438c0.28384 0.0098 0.56037 0.13895 0.6875 0.25 0.30134 0.26323 0.28226 0.3853 0.3125 0.46875s0.01692 0.12862 0.03125 0.1875c0.05731 0.23553 0.12667 0.52373 0.21875 1 0.03491 0.18055 0.30931 0.79597 0.59375 1.375 0.13804 0.28101 0.29116 0.5569 0.40625 0.84375h-0.8125c0.04667-0.58689-1.0134-2.131-1.1875-3.0312-0.13986-0.72338-0.20538-1.0548-0.25-1.0938zm19.375 1c-0.10432-0.03246-0.24356 0.19889-0.46875 0.78125-0.29726 0.76872-0.51235 1.6241-0.65625 2.3438h-0.75c-0.26973-0.48789-0.55273-1.1108-0.78125-1.4062-0.0097-0.01251-0.01984-0.02546-0.03125-0.03125 0.31178 0.04089 0.68619 0.2025 0.84375 0.40625 0.07396 0.09563 0.09303 0.18258 0.15625 0.28125 0.09709-0.33 0.1551-0.64253 0.28125-0.96875 0.12163-0.31453 0.20528-0.55062 0.34375-0.78125 0.06924-0.11531 0.13258-0.22398 0.3125-0.375 0.13494-0.11326 0.4354-0.2419 0.75-0.25zc0.10486-0.0027 0.2095-0.000799 0.3125 0.03125 0.37692 0.11729 0.48644 0.3285 0.5625 0.4375 0.0761 0.109 0.10043 0.16653 0.125 0.21875 0.1573 0.33437 0.19199 0.57649 0.25 0.875 0.058 0.29851 0.12186 0.62925 0.1875 0.96875 0.0449 0.23232 0.0599 0.38901 0.0937 0.59375h-0.84375c-0.0932-0.43308-0.15326-0.90588-0.25-1.4062-0.1371-0.70907-0.22652-1.3446-0.34375-1.5938-0.0293-0.0623-0.059-0.11418-0.09375-0.125zm-49.906 1.1875c0.3035 0.04802 0.59016 0.2265 0.71875 0.375 0.17146 0.198 0.2142 0.32248 0.25 0.4375 0.0716 0.23003 0.08103 0.4047 0.09375 0.59375 0.01135 0.16876 0.02548 0.34752 0.03125 0.53125h-0.96875c-0.03787-0.48913-0.03582-1.0721-0.0625-1.4688-0.02001-0.29752-0.06858-0.48679-0.15625-0.46875 0.03023 0.002 0.0634-0.0048 0.09375 0zm-0.09375 0c-0.02922 0.006-0.05177 0.03947-0.09375 0.09375-0.22802 0.29483-0.60721 1.142-0.9375 1.8438h-0.65625c0.08457-0.18052 0.16546-0.35847 0.25-0.53125 0.17318-0.35393 0.29657-0.63406 0.53125-0.9375 0.0131-0.01694 0.04942-0.04233 0.125-0.125s0.23588-0.27654 0.5625-0.34375c0.06676-0.01374 0.14822-0.0046 0.21875 0zm43.562 0.09375c0.08497 0.005 0.167 0.0079 0.25 0.03125 0.28941 0.08149 0.46964 0.19186 0.65625 0.3125 0.27615 0.17854 1.094 0.55886 1.5938 0.75 0.0248-0.02074 0.03323-0.0031 0.0625-0.03125 0.09945-0.0957 0.17643-0.2163 0.375-0.375 0.09928-0.07935 0.21399-0.21233 0.53125-0.28125 0.06169-0.0134 0.14077-0.0057 0.21875 0-0.10442 0.02268-0.24996 0.19452-0.4375 0.375-0.25006 0.24064-0.56576 0.48507-0.90625 0.375-0.63353-0.20479-1.5815-0.6982-2-0.96875-0.12752-0.08244-0.24328-0.15528-0.34375-0.1875zm-0.3125 0c-0.13074 0.04197-0.2108 0.15517-0.3125 0.28125-0.21349 0.26469-0.44372 0.61108-1 0.625 0.01252-0.0097 0.08385-0.08275 0.21875-0.25 0.10394-0.12886 0.37874-0.49987 0.90625-0.625 0.03638-0.0086 0.1185-0.02255 0.1875-0.03125zm-1.9062 0.90625c-0.09877 0.0061-0.16529 0.02108-0.21875 0.0625-0.12118 0.09388-0.1707 0.32114-0.375 0.875h-0.6875c0.06973-0.18294 0.13372-0.45216 0.4375-0.6875 0.30875-0.23919 0.64955-0.2438 0.84375-0.25z"/>
 <rect id="rect4597" style="opacity:.17647;fill:#fff" height="8.6013" width="3.4696" y="78.796" x="76.489"/>
 <rect id="rect4599" style="opacity:.17647;fill:#fff" height="8.4449" width="3.4696" y="78.796" x="56.476"/>
 <rect id="rect4601" style="opacity:.17647;fill:#fff" height="8.4449" width="3.4696" y="78.796" x="34.352"/>
 <rect id="rect3928" style="opacity:.17647;fill:#fff" height="6.9311" width="3.4696" y="69.069" x="67"/>
 <rect id="rect3930" style="opacity:.17647;fill:#fff" height="7" width="3.4696" y="69" x="25"/>
 <rect id="rect3932" style="opacity:.17647;fill:#fff" height="8" width="3.4696" y="58" x="35.53"/>
 <rect id="rect3934" style="opacity:.17647;fill:#fff" height="8" width="3.4696" y="58" x="57"/>
 <rect id="rect3936" style="opacity:.17647;fill:#fff" height="8" width="3.4696" y="58" x="78"/>
 <rect id="rect3938" style="opacity:.17647;fill:#fff" height="8" width="3.4696" y="47" x="24"/>
 <rect id="rect3940" style="opacity:.17647;fill:#fff" height="8" width="3.4696" y="47" x="47"/>
 <rect id="rect3942" style="opacity:.17647;fill:#fff" height="8" width="3.4696" y="47" x="67.53"/>
 <rect id="rect3944" style="opacity:.17647;fill:#fff" height="8" width="3.4696" y="36" x="35.53"/>
 <rect id="rect3946" style="opacity:.17647;fill:#fff" height="8" width="3.4696" y="36" x="57"/>
 <rect id="rect3948" style="opacity:.17647;fill:#fff" height="8" width="3.4696" y="36" x="76.53"/>
 <rect id="rect3950" style="opacity:.17647;fill:#fff" height="8" width="3.4696" y="36" x="16"/>
 <rect id="rect3952" style="opacity:.17647;fill:#fff" height="8" width="3.4696" y="25" x="25.53"/>
 <rect id="rect3954" style="opacity:.17647;fill:#fff" height="8" width="3.4696" y="25" x="46.53"/>
 <rect id="rect3956" style="opacity:.17647;fill:#fff" height="8" width="3.4696" y="25" x="67.53"/>
 <rect id="rect3958" style="opacity:.17647;fill:#fff" height="8" width="3.4696" y="14" x="35.53"/>
 <rect id="rect3960" style="opacity:.17647;fill:#fff" height="8" width="3.4696" y="14" x="57.53"/>
 <rect id="rect3962" style="opacity:.17647;fill:#fff" height="11" width="3.4696" y="11" x="81"/>
 <rect id="rect3964" style="opacity:.17647;fill:#fff" transform="scale(-1,1)" height="3.2709" width="8" y="11" x="-89"/>
 <g id="g3979" transform="translate(-123.21 -9.0684)">
  <path id="path3977" style="opacity:.1" d="m139.61 45.795c2.4215-17.253 14.727-29.654 27.935-29.359 21.099 0.47236 14.337 13.773 31 26.928 7.4816 5.9069 18.278 32.247 1.4725 38.419-8.6823 3.1885-13.349-1.6255-32.032 0.10967-10.438 0.96945-19.061 11.909-29.975 3.5103-16.562-12.745-0.82196-22.356 1.5995-39.609z"/>
  <path id="path7537" style="opacity:.2" d="m141.45 46.726c2.3249-16.543 14.14-28.433 26.821-28.149 20.258 0.45291 13.765 13.205 29.763 25.819 7.1832 5.6636 17.549 30.919 1.4138 36.837-8.336 3.0572-12.816-1.5585-30.754 0.10515-10.022 0.92952-18.3 11.419-28.78 3.3657-15.901-12.22-0.78917-21.435 1.5357-37.977z"/>
  <path id="path6838" style="opacity:.3" d="m140.72 45.776c2.3249-16.543 14.14-28.433 26.821-28.149 20.258 0.45291 13.765 13.205 29.763 25.819 7.1832 5.6636 17.549 30.919 1.4138 36.837-8.336 3.0572-12.816-1.5585-30.754 0.10515-10.022 0.92952-18.3 11.419-28.78 3.3657-15.901-12.22-0.78917-21.435 1.5357-37.977z"/>
  <path id="path6836" style="opacity:.45" d="m141.21 45.869c2.275-15.962 13.836-27.435 26.245-27.161 19.823 0.43701 13.47 12.742 29.125 24.913 7.029 5.4648 17.172 29.834 1.3834 35.544-8.1571 2.9499-12.541-1.5038-30.094 0.10146-9.807 0.89689-17.908 11.018-28.162 3.2475-15.56-11.791-0.77223-20.682 1.5028-36.644z"/>
  <path id="path5785" d="m141.98 46.197c2.2156-15.459 13.475-26.57 25.56-26.305 19.305 0.42323 13.118 12.34 28.364 24.127 6.8454 5.2925 16.724 28.893 1.3473 34.423-7.944 2.8569-12.214-1.4564-29.308 0.09827-9.5509 0.86861-17.44 10.671-27.426 3.1452-15.154-11.419-0.75207-20.03 1.4635-35.489z"/>
  <path id="path5807" style="opacity:.92308;fill:#fff" d="m152.12 31.433s-0.34467 1.3952-2.217 2.5897c-2.2917 1.4621-5.1259 4.3204-4.9657 5.5785 0.1602 1.2582 2.5018 4.7151 5.5691 1.0932 1.735-2.0487-0.40049-3.1454 1.2025-4.7832 2.1303-2.1765 4.9791-1.7993 4.3762-4.5187-0.54894-2.476 0.51919-3.3919-1.5526-3.3013-2.4685 0.10798-2.4126 3.3418-2.4126 3.3418z"/>
  <path id="path5787" style="fill:#ffc728" d="m157.29 45.459c-0.46372-4.1516 2.5134-6.7309 7.3548-6.4695 4.6944 0.25348 6.6787 5.9624 6.6787 5.9624s-8.2968 1.7421-14.033 0.50708z"/>
  <path id="path5789" style="fill:#ffc728" d="m185.58 43.238c0.36312-2.6152-1.2233-3.9313-4.9044-4.0202-4.3418-0.10486-5.0482 4.2116-5.0482 4.2116s6.0637 0.92397 9.9525-0.19144z"/>
  <path id="path5829" style="opacity:.24434;fill:#fff" d="m62.541 48a5.1596 3.2834 0 1 1 -0.000002 -0.0024l-5.16 0.002z" transform="matrix(.46164 .74275 -.59118 .35971 198.44 -9.5246)"/>
  <path id="path5831" style="opacity:.24434;fill:#fff" d="m62.541 48a5.1596 3.2834 0 1 1 -0.000002 -0.0024l-5.16 0.002z" transform="matrix(.61678 -.49209 .30936 .50503 126.89 33.238)"/>
  <path id="path6092" style="fill:#f7f9f5" d="m153.49 51.242s13.217-1.6782 23.628-0.66815c10.4 1.009 10.002 0.82465 9.5516 0.96885-0.45008 0.1442 0.82181 1.2734 0.31629 2.0038-2.646 3.8229 2.1628-0.46345-13.35-0.4347-6.1085 0.01131-11.531-1.0803-14.593 0.64276-0.86866 0.48874-0.99753 2.0823-1.5712 2.8698-0.19542 0.26826-3.2156-1.1606-3.8682-2.709-0.51637-1.2252-3.6169-1.1769-3.7449-1.9249-0.0819-0.47905 3.6316-0.74836 3.6316-0.74836z"/>
  <path id="path6094" style="fill:#f7f9f5" d="m152.84 61.254s2.6686 5.7738 12.093 7.501c9.4243 1.7273 15.197-1.0296 14.895-1.3538-0.30224-0.32425-2.6413-6.7393-2.7181-4.4426-0.12812 3.8277-7.8905 4.5632-14.366 1.5816-6.475-2.9815-4.1425-3.1666-6.8805-5.4541-1.2613-1.0539-3.0233 2.168-3.0233 2.168z"/>
 </g>
</svg>
