<?xml version="1.0" encoding="UTF-8" standalone="no"?>
<!-- Created with Inkscape (http://www.inkscape.org/) -->
<svg id="svg2408" xmlns:rdf="http://www.w3.org/1999/02/22-rdf-syntax-ns#" xmlns="http://www.w3.org/2000/svg" height="96" width="96" version="1.0" xmlns:cc="http://creativecommons.org/ns#" xmlns:xlink="http://www.w3.org/1999/xlink" xmlns:dc="http://purl.org/dc/elements/1.1/">
 <defs id="defs2410">
  <linearGradient id="linearGradient4293">
   <stop id="stop4295" style="stop-color:#ff3d3d" offset="0"/>
   <stop id="stop4297" style="stop-color:#c00;stop-opacity:.35146" offset="1"/>
  </linearGradient>
  <linearGradient id="linearGradient4279">
   <stop id="stop4281" style="stop-color:#6fe400" offset="0"/>
   <stop id="stop4283" style="stop-color:#4e9a06;stop-opacity:.58577" offset="1"/>
  </linearGradient>
  <linearGradient id="linearGradient4148">
   <stop id="stop4150" style="stop-color:#c4cfc4" offset="0"/>
   <stop id="stop4152" style="stop-color:#dee2e0" offset="1"/>
  </linearGradient>
  <linearGradient id="ButtonShadow" y2="7.0165" gradientUnits="userSpaceOnUse" x2="45.448" gradientTransform="scale(1.0059 .99417)" y1="92.54" x1="45.448">
   <stop id="stop3750" offset="0"/>
   <stop id="stop3752" style="stop-opacity:.58824" offset="1"/>
  </linearGradient>
  <linearGradient id="linearGradient3737">
   <stop id="stop3739" style="stop-color:#fff" offset="0"/>
   <stop id="stop3741" style="stop-color:#fff;stop-opacity:0" offset="1"/>
  </linearGradient>
  <filter id="filter3174" color-interpolation-filters="sRGB">
   <feGaussianBlur id="feGaussianBlur3176" stdDeviation="1.71"/>
  </filter>
  <linearGradient id="ButtonShadow-0" y2="7.0165" gradientUnits="userSpaceOnUse" x2="45.448" gradientTransform="matrix(1.0059 0 0 .99417 100 0)" y1="92.54" x1="45.448">
   <stop id="stop3750-8" offset="0"/>
   <stop id="stop3752-5" style="stop-opacity:.58824" offset="1"/>
  </linearGradient>
  <linearGradient id="linearGradient3780" y2="90.239" xlink:href="#ButtonShadow-0" gradientUnits="userSpaceOnUse" x2="32.251" gradientTransform="matrix(1.0238 0 0 1.0119 -1.1429 -98.071)" y1="6.1317" x1="32.251"/>
  <linearGradient id="linearGradient3721" y2="90.239" xlink:href="#ButtonShadow-0" gradientUnits="userSpaceOnUse" x2="32.251" gradientTransform="translate(0,-97)" y1="6.1317" x1="32.251"/>
  <linearGradient id="linearGradient4509" y2="31.201" xlink:href="#linearGradient4293" gradientUnits="userSpaceOnUse" x2="51.093" y1="25.344" x1="51.093"/>
  <linearGradient id="linearGradient4517" y2="70.834" xlink:href="#linearGradient4279" gradientUnits="userSpaceOnUse" x2="32.669" y1="50.784" x1="32.669"/>
  <radialGradient id="radialGradient4575" xlink:href="#linearGradient3737" gradientUnits="userSpaceOnUse" cy="90.172" cx="48" gradientTransform="matrix(1.1573 0 0 .99591 -7.551 .19713)" r="42"/>
  <linearGradient id="linearGradient4596" y2="63.893" xlink:href="#linearGradient3737" gradientUnits="userSpaceOnUse" x2="36.357" y1="6" x1="36.357"/>
  <linearGradient id="linearGradient4599" y2="5.9877" xlink:href="#linearGradient4148" gradientUnits="userSpaceOnUse" x2="48" y1="90" x1="48"/>
  <radialGradient id="radialGradient4753" xlink:href="#linearGradient3737" gradientUnits="userSpaceOnUse" cy="90.172" cx="48" gradientTransform="matrix(1.1573 0 0 .99591 127.5 .19713)" r="42"/>
  <linearGradient id="linearGradient4774" y2="63.893" xlink:href="#linearGradient3737" gradientUnits="userSpaceOnUse" x2="36.357" gradientTransform="translate(135.05)" y1="6" x1="36.357"/>
  <linearGradient id="linearGradient4777" y2="5.9877" xlink:href="#linearGradient4148" gradientUnits="userSpaceOnUse" x2="48" gradientTransform="translate(135.05)" y1="90" x1="48"/>
  <linearGradient id="linearGradient4873" y2="70.834" xlink:href="#linearGradient4279" gradientUnits="userSpaceOnUse" x2="32.669" gradientTransform="matrix(1.8492 0 0 1.8492 165.32 -51.461)" y1="50.784" x1="32.669"/>
  <linearGradient id="linearGradient4876" y2="31.201" xlink:href="#linearGradient4293" gradientUnits="userSpaceOnUse" x2="51.093" gradientTransform="matrix(1.8492 0 0 1.8492 165.31 -30.037)" y1="25.344" x1="51.093"/>
  <linearGradient id="linearGradient4879" y2="70.834" xlink:href="#linearGradient4279" gradientUnits="userSpaceOnUse" x2="32.669" gradientTransform="matrix(1.8492 0 0 1.8492 124.42 -51.461)" y1="50.784" x1="32.669"/>
  <linearGradient id="linearGradient4882" y2="31.201" xlink:href="#linearGradient4293" gradientUnits="userSpaceOnUse" x2="51.093" gradientTransform="matrix(1.8492 0 0 1.8492 124.4 -30.037)" y1="25.344" x1="51.093"/>
 </defs>
 <metadata id="metadata2413">
  <rdf:RDF>
   <cc:Work rdf:about="">
    <dc:format>image/svg+xml</dc:format>
    <dc:type rdf:resource="http://purl.org/dc/dcmitype/StillImage"/>
    <dc:title/>
   </cc:Work>
  </rdf:RDF>
 </metadata>
 <g id="layer2" style="display:none">
  <rect id="rect3745" style="opacity:.9;filter:url(#filter3174);fill:url(#ButtonShadow)" rx="6" ry="6" height="85" width="86" y="7" x="5"/>
 </g>
 <g id="layer3">
  <path id="path3786" style="opacity:0.08;fill:url(#linearGradient3780)" d="m12-95.031c-5.5111 0-10.031 4.5202-10.031 10.031v71c0 5.5111 4.5202 10.031 10.031 10.031h72c5.5111 0 10.031-4.5202 10.031-10.031v-71c0-5.5111-4.5202-10.031-10.031-10.031h-72z" transform="scale(1,-1)"/>
  <path id="path3778" style="opacity:.1;fill:url(#linearGradient3780)" d="m12-94.031c-4.9716 0-9.0312 4.0596-9.0312 9.0312v71c0 4.9716 4.0596 9.0312 9.0312 9.0312h72c4.9716 0 9.0312-4.0596 9.0312-9.0312v-71c0-4.9716-4.0596-9.0312-9.0312-9.0312h-72z" transform="scale(1,-1)"/>
  <path id="path3770" style="opacity:.2;fill:url(#linearGradient3780)" d="m12-93c-4.4091 0-8 3.5909-8 8v71c0 4.4091 3.5909 8 8 8h72c4.4091 0 8-3.5909 8-8v-71c0-4.4091-3.5909-8-8-8h-72z" transform="scale(1,-1)"/>
  <rect id="rect3723" style="opacity:.3;fill:url(#linearGradient3780)" transform="scale(1,-1)" rx="7" ry="7" height="85" width="86" y="-92" x="5"/>
  <rect id="rect3716" style="opacity:.45;fill:url(#linearGradient3721)" transform="scale(1,-1)" rx="6" ry="6" height="84" width="84" y="-91" x="6"/>
 </g>
 <rect id="rect2419" style="fill:url(#linearGradient4599)" rx="6" ry="6" height="84" width="84" y="6" x="6"/>
 <path id="rect3728" d="m12 6c-3.324 0-6 2.676-6 6v2 68 2c0 0.33472 0.04135 0.6507 0.09375 0.96875 0.0487 0.2956 0.09704 0.59692 0.1875 0.875 0.00988 0.03038 0.020892 0.0636 0.03125 0.09375 0.098865 0.28777 0.23488 0.54745 0.375 0.8125 0.14459 0.27351 0.31562 0.53562 0.5 0.78125 0.18438 0.24564 0.37378 0.47347 0.59375 0.6875 0.43995 0.42806 0.94291 0.81453 1.5 1.0938 0.27854 0.13961 0.57347 0.24695 0.875 0.34375-0.2562-0.10022-0.48671-0.23627-0.71875-0.375-0.00741-0.0044-0.023866 0.0045-0.03125 0-0.031933-0.0193-0.062293-0.04251-0.09375-0.0625-0.1204-0.0767-0.23102-0.16351-0.34375-0.25-0.10617-0.0808-0.21328-0.16111-0.3125-0.25-0.1778-0.162-0.3473-0.346-0.4999-0.531-0.1075-0.131-0.2183-0.266-0.3124-0.407-0.0251-0.038-0.0385-0.086-0.0626-0.125-0.0647-0.103-0.1302-0.204-0.1874-0.312-0.1011-0.195-0.2057-0.416-0.2813-0.625-0.008-0.022-0.0236-0.041-0.0313-0.063-0.0318-0.092-0.0358-0.187-0.0624-0.281-0.0304-0.107-0.0704-0.203-0.0938-0.313-0.0729-0.341-0.125-0.698-0.125-1.062v-2-68-2c0-2.782 2.2182-5 5-5h2 68 2c2.7818 0 5 2.2182 5 5v2 68 2c0 0.3643-0.05212 0.72099-0.125 1.0625-0.04415 0.20689-0.08838 0.39766-0.15625 0.59375-0.0077 0.02195-0.0233 0.04069-0.03125 0.0625-0.06274 0.17374-0.13838 0.36745-0.21875 0.53125-0.04158 0.0828-0.07904 0.16995-0.125 0.25-0.0546 0.09721-0.12677 0.18835-0.1875 0.28125-0.09411 0.14096-0.20492 0.276-0.3125 0.40625-0.14317 0.17445-0.30314 0.347-0.46875 0.5-0.01117 0.0102-0.01998 0.02115-0.03125 0.03125-0.13839 0.12556-0.28509 0.23444-0.4375 0.34375-0.10257 0.07315-0.20432 0.15336-0.3125 0.21875-0.0074 0.0045-0.02384-0.0044-0.03125 0-0.23204 0.13873-0.46255 0.27478-0.71875 0.375 0.30153-0.0968 0.59646-0.20414 0.875-0.34375 0.55709-0.27922 1.0601-0.66569 1.5-1.0938 0.21997-0.21403 0.40937-0.44186 0.59375-0.6875s0.35541-0.50774 0.5-0.78125c0.14012-0.26505 0.27614-0.52473 0.375-0.8125 0.01041-0.03078 0.02133-0.06274 0.03125-0.09375 0.09046-0.27808 0.1388-0.5794 0.1875-0.875 0.053-0.318 0.094-0.634 0.094-0.969v-2-68-2c0-3.324-2.676-6-6-6h-72z" style="opacity:.35;fill:url(#linearGradient4596)"/>
 <g id="g4185" style="stroke:#000">
  <g id="g4177" style="stroke:#000" transform="translate(0,1)">
   <path id="path4175" style="opacity:.05;stroke:#000;stroke-width:6" d="m10.625 25.344v5.8438h19.75v-5.8438h-19.75zm27.5 0v5.8438h19.75v-5.8438h-19.75zm27.5 0v5.8438h19.75v-5.8438h-19.75zm-48.062 25.562v6.9375h-6.9375v5.875h6.9375v6.9375h5.875v-6.9375h6.9375v-5.875h-6.9375v-6.9375h-5.875zm27.5 0v6.9375h-6.9375v5.875h6.9375v6.9375h5.875v-6.9375h6.9375v-5.875h-6.9375v-6.9375h-5.875zm27.5 0v6.9375h-6.9375v5.875h6.9375v6.9375h5.875v-6.9375h6.9375v-5.875h-6.9375v-6.9375h-5.875z"/>
   <path id="path4173" style="opacity:0.08;stroke:#000;stroke-width:4" d="m10.625 25.344v5.8438h19.75v-5.8438h-19.75zm27.5 0v5.8438h19.75v-5.8438h-19.75zm27.5 0v5.8438h19.75v-5.8438h-19.75zm-48.062 25.562v6.9375h-6.9375v5.875h6.9375v6.9375h5.875v-6.9375h6.9375v-5.875h-6.9375v-6.9375h-5.875zm27.5 0v6.9375h-6.9375v5.875h6.9375v6.9375h5.875v-6.9375h6.9375v-5.875h-6.9375v-6.9375h-5.875zm27.5 0v6.9375h-6.9375v5.875h6.9375v6.9375h5.875v-6.9375h6.9375v-5.875h-6.9375v-6.9375h-5.875z"/>
   <path id="rect4124" style="opacity:.1;stroke:#000;stroke-width:2" d="m10.625 25.344v5.8438h19.75v-5.8438h-19.75zm27.5 0v5.8438h19.75v-5.8438h-19.75zm27.5 0v5.8438h19.75v-5.8438h-19.75zm-48.062 25.562v6.9375h-6.9375v5.875h6.9375v6.9375h5.875v-6.9375h6.9375v-5.875h-6.9375v-6.9375h-5.875zm27.5 0v6.9375h-6.9375v5.875h6.9375v6.9375h5.875v-6.9375h6.9375v-5.875h-6.9375v-6.9375h-5.875zm27.5 0v6.9375h-6.9375v5.875h6.9375v6.9375h5.875v-6.9375h6.9375v-5.875h-6.9375v-6.9375h-5.875z"/>
  </g>
  <g id="g4096" style="opacity:.1;stroke:#000;stroke-width:2.8966" transform="matrix(.69048 0 0 .69048 149.06 -104.01)">
   <rect id="rect4098" style="stroke:#000;stroke-width:2.8966" height="8.5051" width="28.608" y="187.31" x="-160.66"/>
   <g id="g4100" style="stroke:#000;stroke-width:2.8966" transform="translate(.64431 97.628)">
    <rect id="rect4102" style="stroke:#000;stroke-width:2.8966" height="8.5051" width="28.608" y="136.8" x="-161.31"/>
    <rect id="rect4104" style="stroke:#000;stroke-width:2.8966" transform="rotate(90)" height="8.5051" width="28.608" y="142.75" x="126.75"/>
   </g>
   <rect id="rect4106" style="stroke:#000;stroke-width:2.8966" height="8.5051" width="28.608" y="187.31" x="-120.84"/>
   <g id="g4108" style="stroke:#000;stroke-width:2.8966" transform="translate(-.0000038147 97.628)">
    <rect id="rect4110" style="stroke:#000;stroke-width:2.8966" height="8.5051" width="28.608" y="136.8" x="-120.84"/>
    <rect id="rect4112" style="stroke:#000;stroke-width:2.8966" transform="rotate(90)" height="8.5051" width="28.608" y="102.29" x="126.75"/>
   </g>
   <rect id="rect4114" style="stroke:#000;stroke-width:2.8966" height="8.5051" width="28.608" y="187.31" x="-200.48"/>
   <g id="g4116" style="stroke:#000;stroke-width:2.8966" transform="translate(0 97.628)">
    <rect id="rect4118" style="stroke:#000;stroke-width:2.8966" height="8.5051" width="28.608" y="136.8" x="-200.48"/>
    <rect id="rect4120" style="stroke:#000;stroke-width:2.8966" transform="rotate(90)" height="8.5051" width="28.608" y="181.93" x="126.75"/>
   </g>
  </g>
 </g>
 <path id="path3615" d="m12 90c-3.324 0-6-2.676-6-6v-2-68-2c0-0.33472 0.04135-0.6507 0.09375-0.96875 0.0487-0.2956 0.09704-0.59692 0.1875-0.875 0.0099-0.03 0.0209-0.063 0.0313-0.094 0.0989-0.2873 0.2349-0.547 0.375-0.812 0.1446-0.2735 0.3156-0.5356 0.5-0.7812 0.1844-0.2457 0.3738-0.4735 0.5937-0.6876 0.44-0.428 0.943-0.8145 1.5-1.0937 0.2786-0.1396 0.5735-0.2469 0.8748-0.3437-0.256 0.1002-0.4865 0.2362-0.7185 0.375-0.00741 0.0044-0.023866-0.0045-0.03125 0-0.031933 0.0193-0.062293 0.04251-0.09375 0.0625-0.1204 0.0767-0.23102 0.16351-0.34375 0.25-0.10617 0.0808-0.21328 0.16111-0.3125 0.25-0.1779 0.1614-0.3474 0.3453-0.5 0.5312-0.1075 0.1303-0.2183 0.2653-0.3124 0.4063-0.0251 0.0383-0.0385 0.0858-0.0626 0.125-0.0647 0.103-0.1302 0.2045-0.1874 0.3124-0.1011 0.1948-0.2057 0.4158-0.2813 0.625-0.008 0.0219-0.0236 0.0406-0.0313 0.0626-0.0318 0.0919-0.0358 0.1868-0.0624 0.2812-0.0304 0.1066-0.0704 0.203-0.0938 0.3125-0.0729 0.3415-0.125 0.6985-0.125 1.0625v2 68 2c0 2.7818 2.2182 5 5 5h2 68 2c2.7818 0 5-2.2182 5-5v-2-68-2c0-0.364-0.052-0.721-0.125-1.0625-0.044-0.2069-0.088-0.3977-0.156-0.5937-0.008-0.022-0.024-0.0407-0.031-0.0626-0.063-0.1737-0.139-0.3674-0.219-0.5312-0.042-0.0828-0.079-0.17-0.125-0.25-0.055-0.0972-0.127-0.1884-0.188-0.2812-0.094-0.141-0.205-0.276-0.312-0.4063-0.143-0.1745-0.303-0.347-0.469-0.5-0.011-0.0102-0.02-0.0211-0.031-0.0313-0.139-0.1255-0.285-0.2344-0.438-0.3437-0.102-0.0731-0.204-0.1534-0.312-0.2187-0.0074-0.0045-0.02384 0.0044-0.03125 0-0.23204-0.13873-0.46255-0.27478-0.71875-0.375 0.30153 0.0968 0.59646 0.20414 0.875 0.34375 0.55709 0.27922 1.0601 0.66569 1.5 1.0938 0.21997 0.21403 0.40937 0.44186 0.59375 0.6875s0.35541 0.50774 0.5 0.78125c0.14012 0.26505 0.27614 0.52473 0.375 0.8125 0.01041 0.03078 0.02133 0.06274 0.03125 0.09375 0.09046 0.27808 0.1388 0.5794 0.1875 0.875 0.053 0.318 0.094 0.634 0.094 0.969v2 68 2c0 3.324-2.676 6-6 6h-72z" style="opacity:.2;fill:url(#radialGradient4575)"/>
 <g id="g4250" style="fill:url(#linearGradient4509)">
  <rect id="rect3285" style="fill:url(#linearGradient4509)" height="5.8725" width="19.753" y="25.328" x="38.123"/>
  <rect id="rect3293" style="fill:url(#linearGradient4509)" height="5.8725" width="19.753" y="25.328" x="65.618"/>
  <rect id="rect3301" style="fill:url(#linearGradient4509)" height="5.8725" width="19.753" y="25.328" x="10.629"/>
 </g>
 <g id="g4245" style="fill:url(#linearGradient4517)">
  <path id="rect3289" style="fill:url(#linearGradient4517)" d="m45.062 50.906v6.9375h-6.9375v5.875h6.9375v6.9375h5.875v-6.9375h6.9375v-5.875h-6.9375v-6.9375h-5.875z"/>
  <path id="rect3297" style="fill:url(#linearGradient4517)" d="m72.562 50.906v6.9375h-6.9375v5.875h6.9375v6.9375h5.875v-6.9375h6.9375v-5.875h-6.9375v-6.9375h-5.875z"/>
  <path id="rect3305" style="fill:url(#linearGradient4517)" d="m17.562 50.906v6.9375h-6.9375v5.875h6.9375v6.9375h5.875v-6.9375h6.9375v-5.875h-6.9375v-6.9375h-5.875z"/>
 </g>
 <g id="g4601" transform="translate(135.05)">
  <path id="path4603" d="m12-95.031c-5.5111 0-10.031 4.5202-10.031 10.031v71c0 5.5111 4.5202 10.031 10.031 10.031h72c5.5111 0 10.031-4.5202 10.031-10.031v-71c0-5.5111-4.5202-10.031-10.031-10.031h-72z" style="opacity:0.08;fill:url(#linearGradient3780)" transform="scale(1,-1)"/>
  <path id="path4605" d="m12-94.031c-4.9716 0-9.0312 4.0596-9.0312 9.0312v71c0 4.9716 4.0596 9.0312 9.0312 9.0312h72c4.9716 0 9.0312-4.0596 9.0312-9.0312v-71c0-4.9716-4.0596-9.0312-9.0312-9.0312h-72z" style="opacity:.1;fill:url(#linearGradient3780)" transform="scale(1,-1)"/>
  <path id="path4607" d="m12-93c-4.4091 0-8 3.5909-8 8v71c0 4.4091 3.5909 8 8 8h72c4.4091 0 8-3.5909 8-8v-71c0-4.4091-3.5909-8-8-8h-72z" style="opacity:.2;fill:url(#linearGradient3780)" transform="scale(1,-1)"/>
  <rect id="rect4609" style="opacity:.3;fill:url(#linearGradient3780)" rx="7" ry="7" transform="scale(1,-1)" width="86" y="-92" x="5" height="85"/>
  <rect id="rect4611" style="opacity:.45;fill:url(#linearGradient3721)" rx="6" ry="6" transform="scale(1,-1)" width="84" y="-91" x="6" height="84"/>
 </g>
 <rect id="rect4613" style="fill:url(#linearGradient4777)" rx="6" ry="6" height="84" width="84" y="6" x="141.05"/>
 <path id="path4615" style="opacity:.35;fill:url(#linearGradient4774)" d="m147.05 6c-3.324 0-6 2.676-6 6v2 68 2c0 0.33472 0.0413 0.6507 0.0937 0.96875 0.0487 0.2956 0.097 0.59692 0.1875 0.875 0.01 0.03038 0.0209 0.0636 0.0312 0.09375 0.0989 0.28777 0.23488 0.54745 0.375 0.8125 0.14459 0.27351 0.31562 0.53562 0.5 0.78125 0.18439 0.24564 0.37378 0.47347 0.59375 0.6875 0.43995 0.42806 0.94291 0.81453 1.5 1.0938 0.27855 0.13961 0.57348 0.24695 0.875 0.34375-0.2562-0.10022-0.48671-0.23627-0.71875-0.375-0.007-0.0044-0.0239 0.0045-0.0312 0-0.0319-0.0193-0.0623-0.04251-0.0937-0.0625-0.12039-0.0767-0.23102-0.16351-0.34375-0.25-0.10617-0.0808-0.21328-0.16111-0.3125-0.25-0.17793-0.16143-0.34746-0.34539-0.5-0.53125-0.10758-0.13026-0.21839-0.26528-0.3125-0.40625-0.0251-0.03838-0.0384-0.08587-0.0625-0.125-0.0648-0.10303-0.13022-0.20452-0.1875-0.3125-0.10101-0.19471-0.20567-0.4157-0.28125-0.625-0.008-0.02181-0.0236-0.04055-0.0312-0.0625-0.0318-0.09195-0.0358-0.18683-0.0625-0.28125-0.0303-0.10662-0.0704-0.20303-0.0937-0.3125-0.0729-0.34151-0.125-0.6982-0.125-1.0625v-2-68-2c0-2.7818 2.2182-5 5-5h2 68 2c2.7818 0 5 2.2182 5 5v2 68 2c0 0.3643-0.0521 0.72099-0.125 1.0625-0.0442 0.20689-0.0884 0.39766-0.15625 0.59375-0.008 0.02195-0.0233 0.04069-0.0312 0.0625-0.0627 0.17374-0.13838 0.36745-0.21875 0.53125-0.0416 0.0828-0.079 0.16995-0.125 0.25-0.0546 0.09721-0.12677 0.18835-0.1875 0.28125-0.0941 0.14096-0.20492 0.276-0.3125 0.40625-0.14317 0.17445-0.30314 0.347-0.46875 0.5-0.0112 0.0102-0.02 0.02115-0.0312 0.03125-0.13838 0.12556-0.28509 0.23444-0.4375 0.34375-0.10257 0.07315-0.20432 0.15336-0.3125 0.21875-0.007 0.0045-0.0238-0.0044-0.0312 0-0.23204 0.13873-0.46255 0.27478-0.71875 0.375 0.30153-0.0968 0.59646-0.20414 0.875-0.34375 0.55709-0.27922 1.0601-0.66569 1.5-1.0938 0.21998-0.21403 0.40937-0.44186 0.59375-0.6875 0.18439-0.24564 0.35541-0.50774 0.5-0.78125 0.14012-0.26505 0.27614-0.52473 0.375-0.8125 0.0104-0.03078 0.0213-0.06274 0.0312-0.09375 0.0905-0.27808 0.1388-0.5794 0.1875-0.875 0.0524-0.31805 0.0937-0.63403 0.0937-0.96875v-2-68-2c0-3.324-2.676-6-6-6h-72z"/>
 <path id="path4653" style="opacity:.2;fill:url(#radialGradient4753)" d="m147.05 90c-3.324 0-6-2.676-6-6v-2-68-2c0-0.33472 0.0413-0.6507 0.0937-0.96875 0.0487-0.2956 0.097-0.59692 0.1875-0.875 0.01-0.03038 0.0209-0.0636 0.0312-0.09375 0.0989-0.28777 0.23488-0.54745 0.375-0.8125 0.14459-0.27351 0.31562-0.53562 0.5-0.78125 0.18439-0.24564 0.37378-0.47347 0.59375-0.6875 0.43995-0.42806 0.94291-0.81453 1.5-1.0938 0.27855-0.13961 0.57348-0.24695 0.875-0.34375-0.2562 0.10022-0.48671 0.23627-0.71875 0.375-0.007 0.0044-0.0239-0.0045-0.0312 0-0.0319 0.0193-0.0623 0.04251-0.0937 0.0625-0.12039 0.0767-0.23102 0.16351-0.34375 0.25-0.10617 0.0808-0.21328 0.16111-0.3125 0.25-0.17793 0.16143-0.34746 0.34539-0.5 0.53125-0.10758 0.13026-0.21839 0.26528-0.3125 0.40625-0.0251 0.03838-0.0384 0.08587-0.0625 0.125-0.0648 0.10303-0.13022 0.20452-0.1875 0.3125-0.10101 0.19471-0.20567 0.4157-0.28125 0.625-0.008 0.02181-0.0236 0.04055-0.0312 0.0625-0.0318 0.09195-0.0358 0.18683-0.0625 0.28125-0.0303 0.10662-0.0704 0.20303-0.0937 0.3125-0.0729 0.34151-0.125 0.6982-0.125 1.0625v2 68 2c0 2.7818 2.2182 5 5 5h2 68 2c2.7818 0 5-2.2182 5-5v-2-68-2c0-0.3643-0.0521-0.72099-0.125-1.0625-0.0442-0.20689-0.0884-0.39766-0.15625-0.59375-0.008-0.02195-0.0233-0.04069-0.0312-0.0625-0.0627-0.17374-0.13838-0.36745-0.21875-0.53125-0.0416-0.0828-0.079-0.16995-0.125-0.25-0.0546-0.09721-0.12677-0.18835-0.1875-0.28125-0.0941-0.14096-0.20492-0.276-0.3125-0.40625-0.14317-0.17445-0.30314-0.347-0.46875-0.5-0.0112-0.0102-0.02-0.02115-0.0312-0.03125-0.13838-0.12556-0.28509-0.23444-0.4375-0.34375-0.10257-0.07315-0.20432-0.15336-0.3125-0.21875-0.007-0.0045-0.0238 0.0044-0.0312 0-0.23204-0.13873-0.46255-0.27478-0.71875-0.375 0.30153 0.0968 0.59646 0.20414 0.875 0.34375 0.55709 0.27922 1.0601 0.66569 1.5 1.0938 0.21998 0.21403 0.40937 0.44186 0.59375 0.6875 0.18439 0.24564 0.35541 0.50774 0.5 0.78125 0.14012 0.26505 0.27614 0.52473 0.375 0.8125 0.0104 0.03078 0.0213 0.06274 0.0312 0.09375 0.0905 0.27808 0.1388 0.5794 0.1875 0.875 0.0524 0.31805 0.0937 0.63403 0.0937 0.96875v2 68 2c0 3.324-2.676 6-6 6h-72z"/>
 <path id="rect4892" style="opacity:.2;stroke:#000;stroke-width:2" d="m144.06 16.812v10.844h36.53v-10.844h-36.53zm40.91 0v10.844h36.53v-10.844h-36.53zm-28.06 25.876v12.812h-12.85v10.875h12.85v12.813h10.84v-12.813h12.84v-10.875h-12.84v-12.812h-10.84zm40.87 0v12.812h-12.81v10.875h12.81v12.813h10.88v-12.813h12.84v-10.875h-12.84v-12.812h-10.88z"/>
 <g id="g4884">
  <rect id="rect4661" style="fill:url(#linearGradient4882)" height="10.86" width="36.528" y="16.801" x="144.06"/>
  <path id="path4669" style="fill:url(#linearGradient4879)" d="m156.89 42.676v12.829h-12.829v10.864h12.829v12.829h10.864v-12.829h12.829v-10.864h-12.829v-12.829h-10.864z"/>
  <rect id="rect4846" style="fill:url(#linearGradient4876)" height="10.86" width="36.528" y="16.801" x="184.96"/>
  <path id="path4848" style="fill:url(#linearGradient4873)" d="m197.79 42.676v12.829h-12.829v10.864h12.829v12.829h10.864v-12.829h12.829v-10.864h-12.829v-12.829h-10.864z"/>
 </g>
</svg>
