<?xml version="1.0" encoding="UTF-8" standalone="no"?>
<!-- Created with Inkscape (http://www.inkscape.org/) -->
<svg id="svg2408" xmlns:rdf="http://www.w3.org/1999/02/22-rdf-syntax-ns#" xmlns="http://www.w3.org/2000/svg" height="96" width="96" version="1.0" xmlns:cc="http://creativecommons.org/ns#" xmlns:xlink="http://www.w3.org/1999/xlink" xmlns:dc="http://purl.org/dc/elements/1.1/">
 <defs id="defs2410">
  <linearGradient id="ButtonShadow" y2="7.0165" gradientUnits="userSpaceOnUse" x2="45.448" gradientTransform="scale(1.0059 .99417)" y1="92.54" x1="45.448">
   <stop id="stop3750" offset="0"/>
   <stop id="stop3752" style="stop-opacity:.58824" offset="1"/>
  </linearGradient>
  <linearGradient id="linearGradient3737">
   <stop id="stop3739" style="stop-color:#fff" offset="0"/>
   <stop id="stop3741" style="stop-color:#fff;stop-opacity:0" offset="1"/>
  </linearGradient>
  <filter id="filter3174" color-interpolation-filters="sRGB">
   <feGaussianBlur id="feGaussianBlur3176" stdDeviation="1.71"/>
  </filter>
  <linearGradient id="linearGradient3188" y2="63.893" xlink:href="#linearGradient3737" gradientUnits="userSpaceOnUse" x2="36.357" y1="6" x1="36.357"/>
  <filter id="filter3794" height="1.384" width="1.384" color-interpolation-filters="sRGB" y="-.192" x="-.192">
   <feGaussianBlur id="feGaussianBlur3796" stdDeviation="5.28"/>
  </filter>
  <linearGradient id="linearGradient3613" y2="138.66" xlink:href="#linearGradient3737" gradientUnits="userSpaceOnUse" x2="48" y1="20.221" x1="48"/>
  <radialGradient id="radialGradient3619" xlink:href="#linearGradient3737" gradientUnits="userSpaceOnUse" cy="90.172" cx="48" gradientTransform="matrix(1.1573 0 0 .99591 -7.551 .19713)" r="42"/>
  <clipPath id="clipPath3613">
   <rect id="rect3615" style="fill:#fff" rx="6" ry="6" height="84" width="84" y="6" x="6"/>
  </clipPath>
  <linearGradient id="linearGradient3617" y2="5.9877" gradientUnits="userSpaceOnUse" x2="48" y1="90" x1="48">
   <stop id="stop3621" style="stop-color:#1a1a1a" offset="0"/>
   <stop id="stop3623" style="stop-color:#4d4d4d" offset="1"/>
  </linearGradient>
  <linearGradient id="linearGradient3221" y2="20.249" gradientUnits="userSpaceOnUse" x2="34.101" gradientTransform="matrix(1.1766 0 0 1.1572 7.9686 10.02)" y1="45.622" x1="34.101">
   <stop id="stop3225" style="stop-color:#003e69" offset="0"/>
   <stop id="stop3227" style="stop-color:#17a3ff" offset="1"/>
  </linearGradient>
  <linearGradient id="linearGradient3178" y2="51.406" xlink:href="#linearGradient3172" gradientUnits="userSpaceOnUse" x2="37.438" gradientTransform="matrix(1.1728 0 0 1.1736 8.0692 9.6575)" y1="18.172" x1="25.727"/>
  <linearGradient id="linearGradient3172">
   <stop id="stop3174" style="stop-color:#005c9b" offset="0"/>
   <stop id="stop3176" style="stop-color:#55baff" offset="1"/>
  </linearGradient>
  <linearGradient id="linearGradient3241" y2="7.4297" gradientUnits="userSpaceOnUse" x2="20.568" gradientTransform="matrix(1.6749 0 0 1.676 7.8317 8.0709)" y1="42.957" x1="24">
   <stop id="stop3178" style="stop-color:#005693" offset="0"/>
   <stop id="stop3365" style="stop-color:#1d96dc" offset=".64839"/>
   <stop id="stop3180" style="stop-color:#3cc1ff;stop-opacity:.75540" offset="1"/>
  </linearGradient>
  <linearGradient id="linearGradient3761" y2="15.582" xlink:href="#linearGradient3172" gradientUnits="userSpaceOnUse" x2="32.369" gradientTransform="matrix(1.9087 0 0 1.8427 -17.397 -14.217)" y1="50.016" x1="32.793"/>
  <linearGradient id="ButtonShadow-0" y2="7.0165" gradientUnits="userSpaceOnUse" x2="45.448" gradientTransform="matrix(1.0059 0 0 .99417 100 0)" y1="92.54" x1="45.448">
   <stop id="stop3750-8" offset="0"/>
   <stop id="stop3752-5" style="stop-opacity:.58824" offset="1"/>
  </linearGradient>
  <linearGradient id="linearGradient3780" y2="90.239" xlink:href="#ButtonShadow-0" gradientUnits="userSpaceOnUse" x2="32.251" gradientTransform="matrix(1.0238 0 0 1.0119 -1.1429 -98.071)" y1="6.1317" x1="32.251"/>
  <linearGradient id="linearGradient3721" y2="90.239" xlink:href="#ButtonShadow-0" gradientUnits="userSpaceOnUse" x2="32.251" gradientTransform="translate(0,-97)" y1="6.1317" x1="32.251"/>
 </defs>
 <metadata id="metadata2413">
  <rdf:RDF>
   <cc:Work rdf:about="">
    <dc:format>image/svg+xml</dc:format>
    <dc:type rdf:resource="http://purl.org/dc/dcmitype/StillImage"/>
   </cc:Work>
  </rdf:RDF>
 </metadata>
 <g id="layer2" style="display:none">
  <rect id="rect3745" style="opacity:.9;filter:url(#filter3174);fill:url(#ButtonShadow)" rx="6" ry="6" height="85" width="86" y="7" x="5"/>
 </g>
 <g id="layer4">
  <path id="path3786" style="opacity:0.08;fill:url(#linearGradient3780)" d="m12-95.031c-5.5111 0-10.031 4.5202-10.031 10.031v71c0 5.5111 4.5202 10.031 10.031 10.031h72c5.5111 0 10.031-4.5202 10.031-10.031v-71c0-5.5111-4.5202-10.031-10.031-10.031h-72z" transform="scale(1,-1)"/>
  <path id="path3778" style="opacity:.1;fill:url(#linearGradient3780)" d="m12-94.031c-4.9716 0-9.0312 4.0596-9.0312 9.0312v71c0 4.9716 4.0596 9.0312 9.0312 9.0312h72c4.9716 0 9.0312-4.0596 9.0312-9.0312v-71c0-4.9716-4.0596-9.0312-9.0312-9.0312h-72z" transform="scale(1,-1)"/>
  <path id="path3770" style="opacity:.2;fill:url(#linearGradient3780)" d="m12-93c-4.4091 0-8 3.5909-8 8v71c0 4.4091 3.5909 8 8 8h72c4.4091 0 8-3.5909 8-8v-71c0-4.4091-3.5909-8-8-8h-72z" transform="scale(1,-1)"/>
  <rect id="rect3723" style="opacity:.3;fill:url(#linearGradient3780)" transform="scale(1,-1)" rx="7" ry="7" height="85" width="86" y="-92" x="5"/>
  <rect id="rect3716" style="opacity:.45;fill:url(#linearGradient3721)" transform="scale(1,-1)" rx="6" ry="6" height="84" width="84" y="-91" x="6"/>
 </g>
 <g id="layer1">
  <rect id="rect2419" style="fill:url(#linearGradient3617)" rx="6" ry="6" height="84" width="84" y="6" x="6"/>
  <path id="rect3728" style="opacity:.2;fill:url(#linearGradient3188)" d="m12 6c-3.324 0-6 2.676-6 6v2 68 2c0 0.33472 0.04135 0.6507 0.09375 0.96875 0.0487 0.2956 0.09704 0.59692 0.1875 0.875 0.00988 0.03038 0.020892 0.0636 0.03125 0.09375 0.098865 0.28777 0.23488 0.54745 0.375 0.8125 0.14459 0.27351 0.31562 0.53562 0.5 0.78125 0.18438 0.24564 0.37378 0.47347 0.59375 0.6875 0.43995 0.42806 0.94291 0.81453 1.5 1.0938 0.27854 0.13961 0.57347 0.24695 0.875 0.34375-0.2562-0.10022-0.48671-0.23627-0.71875-0.375-0.00741-0.0044-0.023866 0.0045-0.03125 0-0.031933-0.0193-0.062293-0.04251-0.09375-0.0625-0.1204-0.0767-0.23102-0.16351-0.34375-0.25-0.10617-0.0808-0.21328-0.16111-0.3125-0.25-0.1778-0.162-0.3473-0.346-0.4999-0.531-0.1075-0.131-0.2183-0.266-0.3124-0.407-0.0251-0.038-0.0385-0.086-0.0626-0.125-0.0647-0.103-0.1302-0.204-0.1874-0.312-0.1011-0.195-0.2057-0.416-0.2813-0.625-0.008-0.022-0.0236-0.041-0.0313-0.063-0.0318-0.092-0.0358-0.187-0.0624-0.281-0.0304-0.107-0.0704-0.203-0.0938-0.313-0.0729-0.341-0.125-0.698-0.125-1.062v-2-68-2c0-2.782 2.2182-5 5-5h2 68 2c2.7818 0 5 2.2182 5 5v2 68 2c0 0.3643-0.05212 0.72099-0.125 1.0625-0.04415 0.20689-0.08838 0.39766-0.15625 0.59375-0.0077 0.02195-0.0233 0.04069-0.03125 0.0625-0.06274 0.17374-0.13838 0.36745-0.21875 0.53125-0.04158 0.0828-0.07904 0.16995-0.125 0.25-0.0546 0.09721-0.12677 0.18835-0.1875 0.28125-0.09411 0.14096-0.20492 0.276-0.3125 0.40625-0.14317 0.17445-0.30314 0.347-0.46875 0.5-0.01117 0.0102-0.01998 0.02115-0.03125 0.03125-0.13839 0.12556-0.28509 0.23444-0.4375 0.34375-0.10257 0.07315-0.20432 0.15336-0.3125 0.21875-0.0074 0.0045-0.02384-0.0044-0.03125 0-0.23204 0.13873-0.46255 0.27478-0.71875 0.375 0.30153-0.0968 0.59646-0.20414 0.875-0.34375 0.55709-0.27922 1.0601-0.66569 1.5-1.0938 0.21997-0.21403 0.40937-0.44186 0.59375-0.6875s0.35541-0.50774 0.5-0.78125c0.14012-0.26505 0.27614-0.52473 0.375-0.8125 0.01041-0.03078 0.02133-0.06274 0.03125-0.09375 0.09046-0.27808 0.1388-0.5794 0.1875-0.875 0.053-0.318 0.094-0.634 0.094-0.969v-2-68-2c0-3.324-2.676-6-6-6h-72z"/>
  <path id="path3615" style="opacity:.2;fill:url(#radialGradient3619)" d="m12 90c-3.324 0-6-2.676-6-6v-2-68-2c0-0.33472 0.04135-0.6507 0.09375-0.96875 0.0487-0.2956 0.09704-0.59692 0.1875-0.875 0.0099-0.03 0.0209-0.063 0.0313-0.094 0.0989-0.2873 0.2349-0.547 0.375-0.812 0.1446-0.2735 0.3156-0.5356 0.5-0.7812 0.1844-0.2457 0.3738-0.4735 0.5937-0.6876 0.44-0.428 0.943-0.8145 1.5-1.0937 0.2786-0.1396 0.5735-0.2469 0.8748-0.3437-0.256 0.1002-0.4865 0.2362-0.7185 0.375-0.00741 0.0044-0.023866-0.0045-0.03125 0-0.031933 0.0193-0.062293 0.04251-0.09375 0.0625-0.1204 0.0767-0.23102 0.16351-0.34375 0.25-0.10617 0.0808-0.21328 0.16111-0.3125 0.25-0.1779 0.1614-0.3474 0.3453-0.5 0.5312-0.1075 0.1303-0.2183 0.2653-0.3124 0.4063-0.0251 0.0383-0.0385 0.0858-0.0626 0.125-0.0647 0.103-0.1302 0.2045-0.1874 0.3124-0.1011 0.1948-0.2057 0.4158-0.2813 0.625-0.008 0.0219-0.0236 0.0406-0.0313 0.0626-0.0318 0.0919-0.0358 0.1868-0.0624 0.2812-0.0304 0.1066-0.0704 0.203-0.0938 0.3125-0.0729 0.3415-0.125 0.6985-0.125 1.0625v2 68 2c0 2.7818 2.2182 5 5 5h2 68 2c2.7818 0 5-2.2182 5-5v-2-68-2c0-0.364-0.052-0.721-0.125-1.0625-0.044-0.2069-0.088-0.3977-0.156-0.5937-0.008-0.022-0.024-0.0407-0.031-0.0626-0.063-0.1737-0.139-0.3674-0.219-0.5312-0.042-0.0828-0.079-0.17-0.125-0.25-0.055-0.0972-0.127-0.1884-0.188-0.2812-0.094-0.141-0.205-0.276-0.312-0.4063-0.143-0.1745-0.303-0.347-0.469-0.5-0.011-0.0102-0.02-0.0211-0.031-0.0313-0.139-0.1255-0.285-0.2344-0.438-0.3437-0.102-0.0731-0.204-0.1534-0.312-0.2187-0.0074-0.0045-0.02384 0.0044-0.03125 0-0.23204-0.13873-0.46255-0.27478-0.71875-0.375 0.30153 0.0968 0.59646 0.20414 0.875 0.34375 0.55709 0.27922 1.0601 0.66569 1.5 1.0938 0.21997 0.21403 0.40937 0.44186 0.59375 0.6875s0.35541 0.50774 0.5 0.78125c0.14012 0.26505 0.27614 0.52473 0.375 0.8125 0.01041 0.03078 0.02133 0.06274 0.03125 0.09375 0.09046 0.27808 0.1388 0.5794 0.1875 0.875 0.053 0.318 0.094 0.634 0.094 0.969v2 68 2c0 3.324-2.676 6-6 6h-72z"/>
  <path id="rect3613" style="opacity:.2;fill:#fff" d="m54 6-10 84h40c3.324 0 6-2.676 6-6v-72c0-3.324-2.676-6-6-6h-30z"/>
 </g>
 <g id="layer5">
  <rect id="rect3171" style="opacity:.1;filter:url(#filter3794);stroke:#fff;stroke-linecap:round;stroke-width:.5;fill:url(#linearGradient3613)" clip-path="url(#clipPath3613)" rx="12" ry="12" height="66" width="66" y="15" x="15"/>
 </g>
 <g id="layer3">
  <path id="path3776" style="opacity:.05;fill-rule:evenodd" d="m53.656 11.094c-20.759-1.1562-40.618 16.587-41.062 37.531-0.000556 0.01044 0.000547 0.02081 0 0.03125-0.93242 17.802 12.296 35.609 30.188 38.469 0.0101 0.0016 0.02114-0.0016 0.03125 0 17.494 3.254 36.894-8.697 40.062-26.625 2.983-14.483-5.053-30.753-19.125-36.094a0.99391 0.99391 0 0 0 -0.125 -0.031c-1.6842-0.36016-3.8957-0.66009-5.4688-1.3438-0.78654-0.34183-1.3931-0.75542-1.75-1.25-0.351-0.487-0.529-1.054-0.406-1.969 0.0019-0.01393-0.002-0.01715 0-0.03125 0.47489-1.8485 0.499-3.968-0.1875-5.875-0.0967-0.26862-0.2218-0.42266-0.3125-0.59375a0.99391 0.99391 0 0 0 -0.0625 -0.15625c0.01665 0.03251 0.0071-0.11088-0.125-0.34375a0.99391 0.99391 0 0 0 -0.157 -0.156 0.99391 0.99391 0 0 0 -0.031 -0.031 0.99391 0.99391 0 0 0 0 -0.03125 0.99391 0.99391 0 0 0 -0.031 -0.094c-0.06248-0.09615-0.11656-0.16539-0.15625-0.21875a0.99391 0.99391 0 0 0 -0.03125 -0.0625 0.99391 0.99391 0 0 0 -0.0625 -0.0625c-0.08617-0.14079-0.20196-0.42774-0.5625-0.78125a0.99391 0.99391 0 0 0 -0.625 -0.28125zm0.40625 1.9375v0.15625 0.09375c-0.01332 0.0057-0.01807-0.005-0.03125 0l-0.093-0.094-0.063-0.032 0.1875-0.125zm-0.437 0.656a0.99391 0.99391 0 0 0 0.375 0.124l-0.03125 0.125c-0.10448 0.0382-0.19399 0.06146-0.25 0.0625-0.02227 0.000412-0.04416 0.000067-0.0625 0-0.03375-0.06695-0.02066-0.18697-0.03125-0.3125zm-5.25 15.875-0.59375 4.875c-10.245 1.975-16.445 15.093-10.656 24.031 0.01085 0.02096 0.02028 0.04164 0.03125 0.0625 2.1823 4.15 6.7476 6.3919 11.281 6.5938 4.534 0.20188 9.1761-1.707 11.406-6.0625 0.004-0.0079-0.004-0.02335 0-0.03125 0.0066-0.01128 0.02474-0.01993 0.03125-0.03125 1.1232-1.9526 1.6288-4.4418 1.2812-6.7812-0.35102-2.3629-1.6645-4.6217-4.125-5.6562a0.99391 0.99391 0 0 0 -0.375 -0.09375c-0.68972 0.0095-1.3238-0.29522-1.875-0.875-0.55121-0.57978-0.98257-1.4098-1.1562-2.2188-0.17368-0.80894-0.08329-1.5631 0.1875-2.0312 0.26335-0.45534 0.66332-0.77114 1.5938-0.8125 4.3023 0.76428 7.5531 3.9426 9.2188 7.9375 1.6824 4.0352 1.6925 8.8374-0.5 12.531a0.99391 0.99391 0 0 0 -0.03125 0.03125c-4.961 9.52-19.671 11.732-27.312 4.219a0.99391 0.99391 0 0 0 -0.03125 0c-8.612-7.885-8.557-23.804 1.031-30.875a0.99391 0.99391 0 0 0 0.03125 -0.03125c3.041-2.4667 6.7176-4.1566 10.562-4.7812z"/>
  <path id="path3733" style="opacity:0.08;fill-rule:evenodd" d="m53.594 12.094c-20.166-1.123-39.599 16.253-40.011 36.59-0.922 17.293 12.02 34.705 29.372 37.462 16.937 3.168 35.876-8.499 38.936-25.821 2.881-13.99-4.918-29.837-18.476-34.982-3.215-0.688-9.035-1.141-8.378-5.723 0.659-2.475 0.491-5.63-1.443-7.526zm0.0625 1.25c1.0064-0.24698-0.50913-0.61901 0 0zm0.4375-0.53125c-1.149-1.3618 0.3063 1.3749 0 0zm-0.0625 0.59375c1.0559 0.06725-0.03409-0.9591 0 0zm0.0625 0.03125c0.8811-0.07483-0.69192-0.5909 0 0zm0.09375 0.28125c0.99575 0.20196-0.23016-0.79495 0 0zm0.718 0.531-0.413 0.028 0.413-0.028zm-5.375 14.094l-0.84375 6.875c-9.9671 1.3102-16.241 14.278-10.673 22.776 3.9432 7.6165 16.957 8.5643 20.99 0.55783 2.038-3.4839 1.8712-9.3224-2.3387-11.093-4.0491 0.05574-6.2403-7.7845-1.2375-7.9202 9.5082 1.5733 14.289 13.945 9.5255 21.969-5.297 10.166-20.716 12.495-28.872 4.475-9.097-8.33-9.033-24.932 1.119-32.418 3.51-2.847 7.813-4.784 12.331-5.222z"/>
  <path id="path3727" style="opacity:.2;fill-rule:evenodd" d="m53.656 11.812c-15.167-0.39311-29.649 8.2643-36 22.156-8.1073 17.733-0.69596 39.722 17.312 47.875 16.362 7.4073 36.628 0.54238 44.062-16.125 6.698-15.013 0.337-33.555-14.968-40.28-3.298-1.45-6.766-1.995-10.187-2.094l1.25-9.8125c-0.000174 0.0015 0.000097-0.09527 0-0.09375-0.000097 0.0015 0.000019-0.06403 0-0.0625-0.000019 0.0015-0.000059-0.09527 0-0.09375 0.000059 0.0015-0.000137-0.06402 0-0.0625 0.000137 0.0015-0.000214-0.09526 0-0.09375 0.000214 0.0015-0.03154-0.064-0.03125-0.0625 0.000291 0.0015-0.000367-0.09523 0-0.09375 0.000367 0.0015-0.03169-0.06396-0.03125-0.0625 0.000442 0.0015-0.03177-0.06394-0.03125-0.0625 0.000516 0.0014-0.000588-0.09516 0-0.09375 0.000588 0.0014-0.03191-0.06387-0.03125-0.0625 0.000659 0.0014-0.06323-0.06384-0.0625-0.0625 0.000729 0.0013-0.03205-0.09505-0.03125-0.09375 0.000796 0.0013-0.03211-0.06376-0.03125-0.0625 0.000861 0.0013-0.06342-0.06371-0.0625-0.0625 0.000924 0.0012-0.03224-0.06366-0.03125-0.0625 0.000985 0.0012-0.06354-0.06361-0.0625-0.0625 0.001 0.0011-0.0636-0.03231-0.0625-0.03125 0.0011 0.0011-0.06365-0.0635-0.0625-0.0625 0.0012 0.001-0.0637-0.06344-0.0625-0.0625s-0.06375-0.03213-0.0625-0.03125c0.0012 0.000878-0.06379-0.06331-0.0625-0.0625 0.0013 0.000813-0.06383-0.032-0.0625-0.03125 0.0013 0.000746-0.06387-0.03193-0.0625-0.03125 0.0014 0.000677-0.0639-0.03186-0.0625-0.03125 0.0014 0.000607-0.09518-0.03178-0.09375-0.03125 0.0014 0.000535-0.06395-0.03171-0.0625-0.03125 0.0015 0.000461-0.09522-0.03164-0.09375-0.03125 0.0015 0.000386-0.06399-0.00031-0.0625 0 0.0015 0.00031-0.09526-0.03148-0.09375-0.03125 0.0015 0.000234-0.06402-0.000157-0.0625 0 0.0015 0.000157-0.09527-0.000079-0.09375 0zm-3.2812 14.656-1.0312 8.3125c-5.1627 1.0451-9.8791 4.3158-11.812 9.6875-2.4608 6.8371 0.69163 15.161 7.9688 17.5 5.4682 1.7573 12.151-0.85434 13.688-6.8438 0.52622-2.0506 0.26119-4.2911-0.71875-6.1562-0.98723-1.879-2.8065-3.4078-5.1875-3.7188-0.72857-0.09516-1.4561 0.12106-2.1875 0.3125l1-8.0625c1.9047-0.10582 3.8444 0.06158 5.625 0.75 8.215 3.176 11.75 13.004 8.5 21.031-3.8817 9.588-15.429 13.687-24.812 9.75-10.946-4.591-15.594-17.871-10.97-28.625 3.544-8.244 11.453-13.115 19.937-13.937z" transform="translate(0,1)"/>
  <path id="path3717" style="opacity:.3;fill-rule:evenodd" d="m53.625 12.625c-14.841-0.385-29.01 8.107-35.219 21.687-7.922 17.328-0.674 38.823 16.906 46.782 15.957 7.224 35.727 0.518 42.969-15.719 6.516-14.607 0.311-32.652-14.562-39.187-3.4672-1.5236-7.1225-2.1174-10.75-2.125l1.343-10.625a0.73009 0.73009 0 0 0 -0.687 -0.813zm-2.3125 12.906-1.2188 9.875c-5.1675 0.84905-9.8778 4.0553-11.781 9.3438-2.3138 6.4288 0.63712 14.252 7.4375 16.438 5.0569 1.6251 11.249-0.7962 12.656-6.2812 0.47291-1.8429 0.22579-3.8837-0.65625-5.5625s-2.4667-3.0075-4.5625-3.2812c-0.85189-0.11127-1.782 0.01974-2.625 0.375-0.15788 0.06653-0.28587 0.19879-0.4375 0.28125l1.25-10.031c2.2209-0.21111 4.4984-0.0097 6.625 0.8125 8.6689 3.3515 12.383 13.66 8.9688 22.094-4.0625 10.035-16.084 14.295-25.875 10.188-11.385-4.778-16.205-18.527-11.405-29.688 3.816-8.876 12.488-14.028 21.624-14.563z" transform="translate(0,1)"/>
  <path id="path3263" style="fill:#fff;fill-rule:evenodd" d="m48.977 50.176c-0.52888-2.3031 2.2416-3.6375 4.128-3.3911 3.6875 0.48162 5.4359 4.611 4.5867 7.9199-1.2912 5.0316-7.0113 7.2958-11.701 5.7887-6.3724-2.0479-9.1657-9.4326-6.9827-15.498 2.7807-7.726 11.846-11.058 19.274-8.1862 9.0716 3.5072 12.94 14.278 9.3786 23.076-4.223 10.431-16.693 14.843-26.847 10.583-11.777-4.941-16.729-19.131-11.774-30.654 5.651-13.141 21.544-18.639 34.419-12.981 14.488 6.366 20.525 23.986 14.171 38.232-7.072 15.853-26.397 22.439-41.992 15.379-17.199-7.786-24.324-28.844-16.567-45.81 6.082-13.304 19.986-21.674 34.537-21.297"/>
  <path id="path3239" style="fill:url(#linearGradient3241);fill-rule:evenodd" d="m48.96 50.176c-0.52888-2.3031 2.2416-3.6375 4.128-3.3911 3.6875 0.48162 5.4359 4.611 4.5867 7.9199-1.2912 5.0316-7.0113 7.2958-11.701 5.7887-6.3724-2.0479-9.1657-9.4326-6.9827-15.498 2.7807-7.726 11.846-11.058 19.274-8.1862 9.0716 3.5072 12.94 14.278 9.3786 23.076-4.224 10.431-16.693 14.843-26.847 10.583-11.778-4.941-16.729-19.131-11.775-30.654 5.651-13.141 21.544-18.639 34.42-12.981 14.487 6.366 20.524 23.986 14.17 38.232-7.071 15.853-26.397 22.439-41.992 15.379-17.199-7.786-24.323-28.844-16.566-45.81 6.082-13.304 19.986-21.674 34.536-21.297"/>
  <path id="path3180" style="stroke-linejoin:round;stroke:url(#linearGradient3761);stroke-width:2.5962;fill:none" d="m53.537 13.169c-12.636 1.105-25.715 6.811-32.516 17.984-9.317 14.754-5.121 36.487 9.552 46.189 11.762 7.832 28.85 7.46 39.692-1.855 12.078-10.715 13.103-31.543 1.724-43.125-5.076-5.449-12.443-8.066-19.787-8.145"/>
  <path id="path2417" style="stroke-linejoin:round;stroke:#53b8fd;stroke-linecap:round;stroke-width:1.7259px;fill:none" d="m53.443 12.849-1.448 11.794"/>
  <path id="path3369" style="stroke-linejoin:round;stroke:url(#linearGradient3178);stroke-linecap:round;stroke-width:1.6241;fill:none" d="m51.86 24.844c-35.162 2.929-29.681 48.111-2.08 47.195 24.538-0.842 25.181-37.184 1.411-36.201"/>
  <path id="path3191" style="stroke-linejoin:round;stroke:#1c94da;stroke-linecap:round;stroke-width:1.7045px;fill:none" d="m50.533 35.945-1.572 14.289"/>
  <path id="path3212" style="stroke-linejoin:round;stroke:url(#linearGradient3221);stroke-linecap:round;stroke-width:.91763;fill:none" d="m49.167 50.124c0.03854-4.7024 6.5743-4.3488 8.171-0.04721 1.6387 4.646-1.4206 9.0991-5.9673 10.454-5.958 1.776-11.455-2.685-13.024-8.446-1.952-7.17 3.748-15.375 12.438-16.402"/>
  <path id="path3189" style="stroke-linejoin:round;stroke:#53b8fd;stroke-linecap:round;stroke-width:1.7259px;fill:none" d="m51.977 24.438-1.322 10.841"/>
 </g>
</svg>
