<?xml version="1.0" encoding="UTF-8" standalone="no"?>
<!-- Created with Inkscape (http://www.inkscape.org/) -->
<svg id="svg2408" xmlns:rdf="http://www.w3.org/1999/02/22-rdf-syntax-ns#" xmlns="http://www.w3.org/2000/svg" height="96" width="96" version="1.0" xmlns:cc="http://creativecommons.org/ns#" xmlns:xlink="http://www.w3.org/1999/xlink" xmlns:dc="http://purl.org/dc/elements/1.1/">
 <defs id="defs2410">
  <linearGradient id="ButtonShadow" y2="7.0165" gradientUnits="userSpaceOnUse" x2="45.448" gradientTransform="scale(1.0059 .99417)" y1="92.54" x1="45.448">
   <stop id="stop3750" offset="0"/>
   <stop id="stop3752" style="stop-opacity:.58824" offset="1"/>
  </linearGradient>
  <linearGradient id="linearGradient3737">
   <stop id="stop3739" style="stop-color:#fff" offset="0"/>
   <stop id="stop3741" style="stop-color:#fff;stop-opacity:0" offset="1"/>
  </linearGradient>
  <filter id="filter3174" color-interpolation-filters="sRGB">
   <feGaussianBlur id="feGaussianBlur3176" stdDeviation="1.71"/>
  </filter>
  <linearGradient id="linearGradient3188" y2="63.893" xlink:href="#linearGradient3737" gradientUnits="userSpaceOnUse" x2="36.357" y1="6" x1="36.357"/>
  <filter id="filter3794" height="1.384" width="1.384" color-interpolation-filters="sRGB" y="-.192" x="-.192">
   <feGaussianBlur id="feGaussianBlur3796" stdDeviation="5.28"/>
  </filter>
  <linearGradient id="linearGradient3613" y2="138.66" xlink:href="#linearGradient3737" gradientUnits="userSpaceOnUse" x2="48" y1="20.221" x1="48"/>
  <radialGradient id="radialGradient3619" xlink:href="#linearGradient3737" gradientUnits="userSpaceOnUse" cy="90.172" cx="48" gradientTransform="matrix(1.1573 0 0 .99591 -7.551 .19713)" r="42"/>
  <clipPath id="clipPath3613">
   <rect id="rect3615" style="fill:#fff" rx="6" ry="6" height="84" width="84" y="6" x="6"/>
  </clipPath>
  <linearGradient id="linearGradient3617" y2="5.9877" gradientUnits="userSpaceOnUse" x2="48" y1="90" x1="48">
   <stop id="stop3702" style="stop-color:#48914f" offset="0"/>
   <stop id="stop3704" style="stop-color:#78cc80" offset="1"/>
  </linearGradient>
  <linearGradient id="ButtonShadow-0" y2="7.0165" gradientUnits="userSpaceOnUse" x2="45.448" gradientTransform="matrix(1.0059 0 0 .99417 100 0)" y1="92.54" x1="45.448">
   <stop id="stop3750-8" offset="0"/>
   <stop id="stop3752-5" style="stop-opacity:.58824" offset="1"/>
  </linearGradient>
  <linearGradient id="linearGradient3780" y2="90.239" xlink:href="#ButtonShadow-0" gradientUnits="userSpaceOnUse" x2="32.251" gradientTransform="matrix(1.0238 0 0 1.0119 -1.1429 -98.071)" y1="6.1317" x1="32.251"/>
  <linearGradient id="linearGradient3721" y2="90.239" xlink:href="#ButtonShadow-0" gradientUnits="userSpaceOnUse" x2="32.251" gradientTransform="translate(0,-97)" y1="6.1317" x1="32.251"/>
 </defs>
 <metadata id="metadata2413">
  <rdf:RDF>
   <cc:Work rdf:about="">
    <dc:format>image/svg+xml</dc:format>
    <dc:type rdf:resource="http://purl.org/dc/dcmitype/StillImage"/>
    <dc:title/>
   </cc:Work>
  </rdf:RDF>
 </metadata>
 <g id="layer2" style="display:none">
  <rect id="rect3745" style="opacity:.9;filter:url(#filter3174);fill:url(#ButtonShadow)" rx="6" ry="6" height="85" width="86" y="7" x="5"/>
 </g>
 <g id="layer3">
  <path id="path3786" style="opacity:0.08;fill:url(#linearGradient3780)" d="m12-95.031c-5.5111 0-10.031 4.5202-10.031 10.031v71c0 5.5111 4.5202 10.031 10.031 10.031h72c5.5111 0 10.031-4.5202 10.031-10.031v-71c0-5.5111-4.5202-10.031-10.031-10.031h-72z" transform="scale(1,-1)"/>
  <path id="path3778" style="opacity:.1;fill:url(#linearGradient3780)" d="m12-94.031c-4.9716 0-9.0312 4.0596-9.0312 9.0312v71c0 4.9716 4.0596 9.0312 9.0312 9.0312h72c4.9716 0 9.0312-4.0596 9.0312-9.0312v-71c0-4.9716-4.0596-9.0312-9.0312-9.0312h-72z" transform="scale(1,-1)"/>
  <path id="path3770" style="opacity:.2;fill:url(#linearGradient3780)" d="m12-93c-4.4091 0-8 3.5909-8 8v71c0 4.4091 3.5909 8 8 8h72c4.4091 0 8-3.5909 8-8v-71c0-4.4091-3.5909-8-8-8h-72z" transform="scale(1,-1)"/>
  <rect id="rect3723" style="opacity:.3;fill:url(#linearGradient3780)" transform="scale(1,-1)" rx="7" ry="7" height="85" width="86" y="-92" x="5"/>
  <rect id="rect3716" style="opacity:.45;fill:url(#linearGradient3721)" transform="scale(1,-1)" rx="6" ry="6" height="84" width="84" y="-91" x="6"/>
 </g>
 <g id="layer1">
  <rect id="rect2419" style="fill:url(#linearGradient3617)" rx="6" ry="6" height="84" width="84" y="6" x="6"/>
  <path id="rect3728" style="opacity:.35;fill:url(#linearGradient3188)" d="m12 6c-3.324 0-6 2.676-6 6v2 68 2c0 0.33472 0.04135 0.6507 0.09375 0.96875 0.0487 0.2956 0.09704 0.59692 0.1875 0.875 0.00988 0.03038 0.020892 0.0636 0.03125 0.09375 0.098865 0.28777 0.23488 0.54745 0.375 0.8125 0.14459 0.27351 0.31562 0.53562 0.5 0.78125 0.18438 0.24564 0.37378 0.47347 0.59375 0.6875 0.43995 0.42806 0.94291 0.81453 1.5 1.0938 0.27854 0.13961 0.57347 0.24695 0.875 0.34375-0.2562-0.10022-0.48671-0.23627-0.71875-0.375-0.00741-0.0044-0.023866 0.0045-0.03125 0-0.031933-0.0193-0.062293-0.04251-0.09375-0.0625-0.1204-0.0767-0.23102-0.16351-0.34375-0.25-0.10617-0.0808-0.21328-0.16111-0.3125-0.25-0.1778-0.162-0.3473-0.346-0.4999-0.531-0.1075-0.131-0.2183-0.266-0.3124-0.407-0.0251-0.038-0.0385-0.086-0.0626-0.125-0.0647-0.103-0.1302-0.204-0.1874-0.312-0.1011-0.195-0.2057-0.416-0.2813-0.625-0.008-0.022-0.0236-0.041-0.0313-0.063-0.0318-0.092-0.0358-0.187-0.0624-0.281-0.0304-0.107-0.0704-0.203-0.0938-0.313-0.0729-0.341-0.125-0.698-0.125-1.062v-2-68-2c0-2.782 2.2182-5 5-5h2 68 2c2.7818 0 5 2.2182 5 5v2 68 2c0 0.3643-0.05212 0.72099-0.125 1.0625-0.04415 0.20689-0.08838 0.39766-0.15625 0.59375-0.0077 0.02195-0.0233 0.04069-0.03125 0.0625-0.06274 0.17374-0.13838 0.36745-0.21875 0.53125-0.04158 0.0828-0.07904 0.16995-0.125 0.25-0.0546 0.09721-0.12677 0.18835-0.1875 0.28125-0.09411 0.14096-0.20492 0.276-0.3125 0.40625-0.14317 0.17445-0.30314 0.347-0.46875 0.5-0.01117 0.0102-0.01998 0.02115-0.03125 0.03125-0.13839 0.12556-0.28509 0.23444-0.4375 0.34375-0.10257 0.07315-0.20432 0.15336-0.3125 0.21875-0.0074 0.0045-0.02384-0.0044-0.03125 0-0.23204 0.13873-0.46255 0.27478-0.71875 0.375 0.30153-0.0968 0.59646-0.20414 0.875-0.34375 0.55709-0.27922 1.0601-0.66569 1.5-1.0938 0.21997-0.21403 0.40937-0.44186 0.59375-0.6875s0.35541-0.50774 0.5-0.78125c0.14012-0.26505 0.27614-0.52473 0.375-0.8125 0.01041-0.03078 0.02133-0.06274 0.03125-0.09375 0.09046-0.27808 0.1388-0.5794 0.1875-0.875 0.053-0.318 0.094-0.634 0.094-0.969v-2-68-2c0-3.324-2.676-6-6-6h-72z"/>
  <path id="path3615" style="opacity:.2;fill:url(#radialGradient3619)" d="m12 90c-3.324 0-6-2.676-6-6v-2-68-2c0-0.33472 0.04135-0.6507 0.09375-0.96875 0.0487-0.2956 0.09704-0.59692 0.1875-0.875 0.0099-0.03 0.0209-0.063 0.0313-0.094 0.0989-0.2873 0.2349-0.547 0.375-0.812 0.1446-0.2735 0.3156-0.5356 0.5-0.7812 0.1844-0.2457 0.3738-0.4735 0.5937-0.6876 0.44-0.428 0.943-0.8145 1.5-1.0937 0.2786-0.1396 0.5735-0.2469 0.8748-0.3437-0.256 0.1002-0.4865 0.2362-0.7185 0.375-0.00741 0.0044-0.023866-0.0045-0.03125 0-0.031933 0.0193-0.062293 0.04251-0.09375 0.0625-0.1204 0.0767-0.23102 0.16351-0.34375 0.25-0.10617 0.0808-0.21328 0.16111-0.3125 0.25-0.1779 0.1614-0.3474 0.3453-0.5 0.5312-0.1075 0.1303-0.2183 0.2653-0.3124 0.4063-0.0251 0.0383-0.0385 0.0858-0.0626 0.125-0.0647 0.103-0.1302 0.2045-0.1874 0.3124-0.1011 0.1948-0.2057 0.4158-0.2813 0.625-0.008 0.0219-0.0236 0.0406-0.0313 0.0626-0.0318 0.0919-0.0358 0.1868-0.0624 0.2812-0.0304 0.1066-0.0704 0.203-0.0938 0.3125-0.0729 0.3415-0.125 0.6985-0.125 1.0625v2 68 2c0 2.7818 2.2182 5 5 5h2 68 2c2.7818 0 5-2.2182 5-5v-2-68-2c0-0.364-0.052-0.721-0.125-1.0625-0.044-0.2069-0.088-0.3977-0.156-0.5937-0.008-0.022-0.024-0.0407-0.031-0.0626-0.063-0.1737-0.139-0.3674-0.219-0.5312-0.042-0.0828-0.079-0.17-0.125-0.25-0.055-0.0972-0.127-0.1884-0.188-0.2812-0.094-0.141-0.205-0.276-0.312-0.4063-0.143-0.1745-0.303-0.347-0.469-0.5-0.011-0.0102-0.02-0.0211-0.031-0.0313-0.139-0.1255-0.285-0.2344-0.438-0.3437-0.102-0.0731-0.204-0.1534-0.312-0.2187-0.0074-0.0045-0.02384 0.0044-0.03125 0-0.23204-0.13873-0.46255-0.27478-0.71875-0.375 0.30153 0.0968 0.59646 0.20414 0.875 0.34375 0.55709 0.27922 1.0601 0.66569 1.5 1.0938 0.21997 0.21403 0.40937 0.44186 0.59375 0.6875s0.35541 0.50774 0.5 0.78125c0.14012 0.26505 0.27614 0.52473 0.375 0.8125 0.01041 0.03078 0.02133 0.06274 0.03125 0.09375 0.09046 0.27808 0.1388 0.5794 0.1875 0.875 0.053 0.318 0.094 0.634 0.094 0.969v2 68 2c0 3.324-2.676 6-6 6h-72z"/>
 </g>
 <g id="layer5">
  <rect id="rect3171" style="opacity:.1;filter:url(#filter3794);stroke:#fff;stroke-linecap:round;stroke-width:.5;fill:url(#linearGradient3613)" clip-path="url(#clipPath3613)" rx="12" ry="12" height="66" width="66" y="15" x="15"/>
 </g>
 <g id="layer4">
  <a id="a3702">
   <g id="g3697">
    <path id="path3695" style="opacity:.1;color:#000000;fill:#376e3c" d="m17 12.062c-2.709 0-4.9375 2.2285-4.9375 4.9375v14c0 2.709 2.2285 4.9375 4.9375 4.9375h14c2.709 0 4.9375-2.2285 4.9375-4.9375v-14c0-2.709-2.2285-4.9375-4.9375-4.9375h-14z"/>
    <path id="path3689" style="opacity:.2;color:#000000;fill:#376e3c" d="m17 13c-2.1995 0-4 1.8005-4 4v14c0 2.1995 1.8005 4 4 4h14c2.1995 0 4-1.8005 4-4v-14c0-2.1995-1.8005-4-4-4h-14z"/>
    <rect id="rect3691" style="opacity:.8;color:#000000;fill:#fff" rx="3" ry="3" height="20" width="20" y="14" x="14"/>
   </g>
  </a>
  <a id="a3708" transform="translate(24)">
   <g id="g3710">
    <path id="path3712" style="opacity:.1;color:#000000;fill:#376e3c" d="m17 12.062c-2.709 0-4.9375 2.2285-4.9375 4.9375v14c0 2.709 2.2285 4.9375 4.9375 4.9375h14c2.709 0 4.9375-2.2285 4.9375-4.9375v-14c0-2.709-2.2285-4.9375-4.9375-4.9375h-14z"/>
    <path id="path3714" style="opacity:.2;color:#000000;fill:#376e3c" d="m17 13c-2.1995 0-4 1.8005-4 4v14c0 2.1995 1.8005 4 4 4h14c2.1995 0 4-1.8005 4-4v-14c0-2.1995-1.8005-4-4-4h-14z"/>
    <rect id="rect3717" style="opacity:.8;color:#000000;fill:#fff" rx="3" ry="3" height="20" width="20" y="14" x="14"/>
   </g>
  </a>
  <a id="a3719" transform="translate(48)">
   <g id="g3721">
    <path id="path3723" style="opacity:.1;color:#000000;fill:#376e3c" d="m17 12.062c-2.709 0-4.9375 2.2285-4.9375 4.9375v14c0 2.709 2.2285 4.9375 4.9375 4.9375h14c2.709 0 4.9375-2.2285 4.9375-4.9375v-14c0-2.709-2.2285-4.9375-4.9375-4.9375h-14z"/>
    <path id="path3725" style="opacity:.2;color:#000000;fill:#376e3c" d="m17 13c-2.1995 0-4 1.8005-4 4v14c0 2.1995 1.8005 4 4 4h14c2.1995 0 4-1.8005 4-4v-14c0-2.1995-1.8005-4-4-4h-14z"/>
    <rect id="rect3727" style="color:#000000;fill:#fff" rx="3" ry="3" height="20" width="20" y="14" x="14"/>
   </g>
  </a>
  <a id="a3729" transform="translate(0,24)">
   <g id="g3731">
    <path id="path3733" style="opacity:.1;color:#000000;fill:#376e3c" d="m17 12.062c-2.709 0-4.9375 2.2285-4.9375 4.9375v14c0 2.709 2.2285 4.9375 4.9375 4.9375h14c2.709 0 4.9375-2.2285 4.9375-4.9375v-14c0-2.709-2.2285-4.9375-4.9375-4.9375h-14z"/>
    <path id="path3735" style="opacity:.2;color:#000000;fill:#376e3c" d="m17 13c-2.1995 0-4 1.8005-4 4v14c0 2.1995 1.8005 4 4 4h14c2.1995 0 4-1.8005 4-4v-14c0-2.1995-1.8005-4-4-4h-14z"/>
    <rect id="rect3737" style="opacity:.8;color:#000000;fill:#fff" rx="3" ry="3" height="20" width="20" y="14" x="14"/>
   </g>
  </a>
  <a id="a3739" transform="translate(24,24)">
   <g id="g3741">
    <path id="path3743" style="opacity:.1;color:#000000;fill:#376e3c" d="m17 12.062c-2.709 0-4.9375 2.2285-4.9375 4.9375v14c0 2.709 2.2285 4.9375 4.9375 4.9375h14c2.709 0 4.9375-2.2285 4.9375-4.9375v-14c0-2.709-2.2285-4.9375-4.9375-4.9375h-14z"/>
    <path id="path3745" style="opacity:.2;color:#000000;fill:#376e3c" d="m17 13c-2.1995 0-4 1.8005-4 4v14c0 2.1995 1.8005 4 4 4h14c2.1995 0 4-1.8005 4-4v-14c0-2.1995-1.8005-4-4-4h-14z"/>
    <rect id="rect3747" style="color:#000000;fill:#fff" rx="3" ry="3" height="20" width="20" y="14" x="14"/>
   </g>
  </a>
  <a id="a3749" transform="translate(48,24)">
   <g id="g3751">
    <path id="path3753" style="opacity:.1;color:#000000;fill:#376e3c" d="m17 12.062c-2.709 0-4.9375 2.2285-4.9375 4.9375v14c0 2.709 2.2285 4.9375 4.9375 4.9375h14c2.709 0 4.9375-2.2285 4.9375-4.9375v-14c0-2.709-2.2285-4.9375-4.9375-4.9375h-14z"/>
    <path id="path3755" style="opacity:.2;color:#000000;fill:#376e3c" d="m17 13c-2.1995 0-4 1.8005-4 4v14c0 2.1995 1.8005 4 4 4h14c2.1995 0 4-1.8005 4-4v-14c0-2.1995-1.8005-4-4-4h-14z"/>
    <rect id="rect3757" style="color:#000000;fill:#fff" rx="3" ry="3" height="20" width="20" y="14" x="14"/>
   </g>
  </a>
  <a id="a3759" transform="translate(0,48)">
   <g id="g3761">
    <path id="path3763" style="opacity:.1;color:#000000;fill:#376e3c" d="m17 12.062c-2.709 0-4.9375 2.2285-4.9375 4.9375v14c0 2.709 2.2285 4.9375 4.9375 4.9375h14c2.709 0 4.9375-2.2285 4.9375-4.9375v-14c0-2.709-2.2285-4.9375-4.9375-4.9375h-14z"/>
    <path id="path3765" style="opacity:.2;color:#000000;fill:#376e3c" d="m17 13c-2.1995 0-4 1.8005-4 4v14c0 2.1995 1.8005 4 4 4h14c2.1995 0 4-1.8005 4-4v-14c0-2.1995-1.8005-4-4-4h-14z"/>
    <rect id="rect3767" style="color:#000000;fill:#fff" rx="3" ry="3" height="20" width="20" y="14" x="14"/>
   </g>
  </a>
  <a id="a3769" transform="translate(24,48)">
   <g id="g3771">
    <path id="path3773" style="opacity:.1;color:#000000;fill:#376e3c" d="m17 12.062c-2.709 0-4.9375 2.2285-4.9375 4.9375v14c0 2.709 2.2285 4.9375 4.9375 4.9375h14c2.709 0 4.9375-2.2285 4.9375-4.9375v-14c0-2.709-2.2285-4.9375-4.9375-4.9375h-14z"/>
    <path id="path3775" style="opacity:.2;color:#000000;fill:#376e3c" d="m17 13c-2.1995 0-4 1.8005-4 4v14c0 2.1995 1.8005 4 4 4h14c2.1995 0 4-1.8005 4-4v-14c0-2.1995-1.8005-4-4-4h-14z"/>
    <rect id="rect3777" style="opacity:.8;color:#000000;fill:#fff" rx="3" ry="3" height="20" width="20" y="14" x="14"/>
   </g>
  </a>
  <a id="a3779" transform="translate(48,48)">
   <g id="g3781">
    <path id="path3783" style="opacity:.1;color:#000000;fill:#376e3c" d="m17 12.062c-2.709 0-4.9375 2.2285-4.9375 4.9375v14c0 2.709 2.2285 4.9375 4.9375 4.9375h14c2.709 0 4.9375-2.2285 4.9375-4.9375v-14c0-2.709-2.2285-4.9375-4.9375-4.9375h-14z"/>
    <path id="path3785" style="opacity:.2;color:#000000;fill:#376e3c" d="m17 13c-2.1995 0-4 1.8005-4 4v14c0 2.1995 1.8005 4 4 4h14c2.1995 0 4-1.8005 4-4v-14c0-2.1995-1.8005-4-4-4h-14z"/>
    <rect id="rect3787" style="opacity:.8;color:#000000;fill:#fff" rx="3" ry="3" height="20" width="20" y="14" x="14"/>
   </g>
  </a>
  <g id="text3789" style="fill:#215c26">
   <path id="path3819" style="fill:#215c26" d="m27.983 25.762c-0.000008 0.55209-0.08855 1.0625-0.26562 1.5312-0.17188 0.46354-0.4297 0.86719-0.77344 1.2109-0.34376 0.33854-0.77084 0.60417-1.2812 0.79688-0.50521 0.1875-1.0912 0.28125-1.7578 0.28125-0.61459 0-1.151-0.07292-1.6094-0.21875-0.45834-0.15104-0.84636-0.35677-1.1641-0.61719-0.3125-0.26562-0.5599-0.57552-0.74219-0.92969-0.17708-0.35416-0.29948-0.73437-0.36719-1.1406l2.1953-0.17969c0.04166 0.17188 0.09896 0.33854 0.17188 0.5 0.07812 0.16146 0.18489 0.30469 0.32031 0.42969 0.13541 0.125 0.30208 0.22656 0.5 0.30469 0.19791 0.07292 0.4375 0.10938 0.71875 0.10938 0.54687 0.000001 0.98176-0.17448 1.3047-0.52344 0.32812-0.34896 0.49218-0.85156 0.49219-1.5078-0.000007-0.29166-0.04167-0.55468-0.125-0.78906-0.07813-0.23437-0.19272-0.43489-0.34375-0.60156-0.14584-0.16666-0.32813-0.29427-0.54688-0.38281-0.21355-0.08854-0.45834-0.13281-0.73438-0.13281-0.36459 0.000005-0.66407 0.07032-0.89844 0.21094-0.23438 0.13542-0.4323 0.30209-0.59375 0.5h-2.1406l0.38281-6.1953h6.6172v1.6328h-4.625l-0.17969 2.7812c0.21875-0.1927 0.49479-0.35676 0.82812-0.49219 0.33333-0.14062 0.72135-0.21093 1.1641-0.21094 0.54166 0.000008 1.026 0.08855 1.4531 0.26562 0.42708 0.17709 0.78906 0.42449 1.0859 0.74219 0.29687 0.31771 0.52343 0.70053 0.67969 1.1484 0.15624 0.44271 0.23437 0.9349 0.23438 1.4766"/>
  </g>
  <g id="text3793" style="fill:#215c26">
   <path id="path3816" style="fill:#215c26" d="m51.977 26.441c-0.000008 0.5-0.08334 0.95052-0.25 1.3516-0.16147 0.39583-0.40626 0.73438-0.73438 1.0156-0.32813 0.28125-0.73698 0.4974-1.2266 0.64844-0.48438 0.14583-1.0495 0.21875-1.6953 0.21875-0.71875 0-1.3255-0.09115-1.8203-0.27344-0.48958-0.18229-0.89323-0.42188-1.2109-0.71875-0.3125-0.30208-0.54948-0.64323-0.71094-1.0234-0.15625-0.38021-0.25781-0.76562-0.30469-1.1562l2.2344-0.19531c0.03125 0.23438 0.08854 0.45052 0.17188 0.64844 0.08854 0.19271 0.20573 0.35938 0.35156 0.5 0.14583 0.14063 0.32291 0.25 0.53125 0.32812 0.21354 0.07292 0.46354 0.10938 0.75 0.10938 0.52604 0.000002 0.93489-0.13021 1.2266-0.39062 0.29166-0.26041 0.43749-0.65885 0.4375-1.1953-0.000006-0.32812-0.07032-0.59114-0.21094-0.78906-0.13542-0.19791-0.3099-0.34895-0.52344-0.45312-0.20834-0.10937-0.4349-0.18229-0.67969-0.21875-0.2448-0.03645-0.47657-0.05468-0.69531-0.05469h-0.76562v-1.7734h0.71875c0.21875 0.000007 0.4401-0.02083 0.66406-0.0625 0.22916-0.04166 0.43489-0.11718 0.61719-0.22656 0.18229-0.10937 0.33072-0.26041 0.44531-0.45312 0.11458-0.19791 0.17187-0.44791 0.17188-0.75-0.000006-0.45312-0.12761-0.80728-0.38281-1.0625-0.25-0.26041-0.61719-0.39062-1.1016-0.39062-0.45313 0.000009-0.82032 0.12501-1.1016 0.375-0.27604 0.25001-0.4349 0.60418-0.47656 1.0625l-2.1953-0.15625c0.0625-0.51562 0.20312-0.96353 0.42188-1.3438 0.22396-0.3802 0.5026-0.6953 0.83594-0.94531 0.33854-0.24999 0.72656-0.43488 1.1641-0.55469 0.4375-0.12499 0.90104-0.18749 1.3906-0.1875 0.64583 0.000011 1.2005 0.07814 1.6641 0.23438 0.46354 0.15626 0.84374 0.3672 1.1406 0.63281 0.29687 0.26564 0.51562 0.57553 0.65625 0.92969 0.14062 0.35418 0.21093 0.73178 0.21094 1.1328-0.000008 0.32292-0.04688 0.62501-0.14062 0.90625-0.09376 0.27605-0.23699 0.52605-0.42969 0.75-0.18751 0.21876-0.4297 0.40886-0.72656 0.57031-0.29688 0.15626-0.64844 0.27344-1.0547 0.35156v0.03125c0.45312 0.05209 0.84635 0.15626 1.1797 0.3125 0.33333 0.15105 0.60676 0.34115 0.82031 0.57031 0.21353 0.22917 0.37239 0.48959 0.47656 0.78125 0.10416 0.28646 0.15624 0.59115 0.15625 0.91406"/>
  </g>
  <g id="text3797" style="fill:#215c26">
   <path id="path3822" style="fill:#215c26" d="m27.867 49.906c-0.000008 0.55209-0.07813 1.0599-0.23438 1.5234-0.15626 0.45834-0.39063 0.85417-0.70312 1.1875-0.3073 0.32813-0.69272 0.58594-1.1562 0.77344-0.46355 0.18229-1 0.27344-1.6094 0.27344-1.2969 0-2.2943-0.45312-2.9922-1.3594-0.69271-0.91146-1.0391-2.2604-1.0391-4.0469 0-1.9635 0.35156-3.4401 1.0547-4.4297 0.70833-0.99478 1.7187-1.4922 3.0312-1.4922 0.4375 0.000012 0.83593 0.04689 1.1953 0.14062 0.35937 0.08855 0.67968 0.23439 0.96094 0.4375 0.28124 0.20314 0.52083 0.46616 0.71875 0.78906 0.19791 0.31772 0.35676 0.70574 0.47656 1.1641l-2.07 0.289c-0.10417-0.38541-0.27344-0.66145-0.50781-0.82812-0.23438-0.17187-0.50782-0.2578-0.82031-0.25781-0.58855 0.00001-1.0521 0.29428-1.3906 0.88281-0.33334 0.58855-0.5 1.4818-0.5 2.6797 0.23437-0.39062 0.55989-0.6901 0.97656-0.89844 0.41666-0.20833 0.88802-0.31249 1.4141-0.3125 0.48437 0.000007 0.92187 0.08074 1.3125 0.24219 0.39583 0.15626 0.73176 0.38542 1.0078 0.6875 0.28124 0.29688 0.49739 0.66146 0.64844 1.0938 0.15103 0.4323 0.22655 0.91928 0.22656 1.4609m-2.2031 0.0625c-0.000006-0.29687-0.03386-0.5625-0.10156-0.79688-0.06771-0.23958-0.17188-0.4427-0.3125-0.60938-0.13542-0.16666-0.30469-0.29427-0.50781-0.38281-0.20313-0.09374-0.4375-0.14062-0.70312-0.14062-0.19271 0.000006-0.38542 0.03126-0.57812 0.09375-0.19271 0.06251-0.36459 0.16407-0.51562 0.30469-0.15104 0.13542-0.27344 0.3099-0.36719 0.52344-0.09375 0.21355-0.14063 0.47136-0.14062 0.77344-0.000003 0.3125 0.03906 0.60417 0.11719 0.875 0.07812 0.27084 0.1875 0.50782 0.32812 0.71094 0.14583 0.19792 0.32031 0.35417 0.52344 0.46875 0.20312 0.10938 0.43229 0.16406 0.6875 0.16406 0.49479 0.000002 0.8802-0.17448 1.1562-0.52344 0.27604-0.35416 0.41406-0.84114 0.41406-1.4609"/>
  </g>
  <g id="text3801" style="fill:#215c26">
   <path id="path3813" style="fill:#215c26" d="m51.875 71.828c-0.000008 1.9531-0.35678 3.4141-1.0703 4.3828-0.71355 0.96875-1.7266 1.4531-3.0391 1.4531-0.47396 0-0.90104-0.04948-1.2812-0.14844-0.375-0.099-0.703-0.253-0.984-0.461-0.281-0.209-0.521-0.477-0.719-0.805-0.192-0.328-0.346-0.719-0.461-1.172l2.0625-0.28906c0.10416 0.39063 0.27344 0.67969 0.50781 0.86719 0.23958 0.1875 0.53906 0.28125 0.89844 0.28125 0.29687 0.000002 0.5625-0.07031 0.79688-0.21094 0.23437-0.14062 0.43489-0.35416 0.60156-0.64062 0.16666-0.28646 0.29426-0.64843 0.38281-1.0859 0.09374-0.4427 0.14322-0.96354 0.14844-1.5625-0.10417 0.20313-0.24219 0.38282-0.41406 0.53906-0.17188 0.15626-0.36719 0.28646-0.58594 0.39062-0.21355 0.10417-0.44271 0.1849-0.6875 0.24219-0.2448 0.05209-0.49219 0.07813-0.74219 0.07813-0.47917 0.000004-0.91406-0.08333-1.3047-0.25-0.39063-0.17187-0.72396-0.41666-1-0.73438-0.27604-0.3177-0.48958-0.70052-0.64062-1.1484-0.14583-0.45312-0.21875-0.96353-0.21875-1.5312-0.000001-0.58332 0.08594-1.1042 0.25781-1.5625 0.17708-0.45832 0.42969-0.84374 0.75781-1.1562 0.32812-0.3177 0.72916-0.55728 1.2031-0.71875 0.47916-0.16666 1.0208-0.24999 1.625-0.25 0.63541 0.000012 1.1953 0.10939 1.6797 0.32812 0.48958 0.21355 0.89843 0.54689 1.2266 1 0.32812 0.44793 0.57551 1.0182 0.74219 1.7109 0.17187 0.68751 0.2578 1.5052 0.25781 2.4531m-2.3203-1.5391c-0.000005-0.31249-0.03646-0.60416-0.10938-0.875-0.06771-0.27603-0.17188-0.51301-0.3125-0.71094-0.14063-0.20312-0.3125-0.36197-0.51562-0.47656-0.20313-0.11457-0.4375-0.17186-0.70312-0.17188-0.2448 0.00001-0.46354 0.04689-0.65625 0.14062-0.19271 0.08855-0.35677 0.21876-0.49219 0.39062-0.13542 0.17188-0.23959 0.38022-0.3125 0.625-0.06771 0.2448-0.10156 0.52084-0.10156 0.82812-0.000002 0.28647 0.03385 0.5547 0.10156 0.80469 0.0677 0.2448 0.16666 0.45834 0.29688 0.64062 0.1302 0.17709 0.29427 0.31771 0.49219 0.42188 0.19791 0.09896 0.42448 0.14844 0.67969 0.14844 0.20312 0.000006 0.40104-0.03645 0.59375-0.10938 0.19791-0.07291 0.37239-0.18228 0.52344-0.32812 0.15624-0.14583 0.28124-0.32812 0.375-0.54688 0.09374-0.22395 0.14062-0.48437 0.14062-0.78125"/>
  </g>
  <g id="text3805" style="fill:#215c26">
   <path id="path3810" style="fill:#215c26" d="m75.754 68.238c-0.4948 0.78126-0.96355 1.5391-1.4062 2.2734-0.43751 0.73438-0.82032 1.474-1.1484 2.2188-0.32813 0.73959-0.58855 1.5026-0.78125 2.2891-0.1875 0.78125-0.28126 1.6094-0.28125 2.4844h-2.2891c-0.000002-0.86979 0.10156-1.6953 0.30469-2.4766 0.20833-0.78646 0.48958-1.5521 0.84375-2.2969 0.35416-0.74479 0.76562-1.4792 1.2344-2.2031 0.46874-0.72916 0.96354-1.4713 1.4844-2.2266h-5.4688v-1.8047h7.5078v1.7422"/>
  </g>
 </g>
</svg>
