<?xml version="1.0" encoding="UTF-8" standalone="no"?>
<!-- Created with Inkscape (http://www.inkscape.org/) -->
<svg id="svg2408" xmlns:rdf="http://www.w3.org/1999/02/22-rdf-syntax-ns#" xmlns="http://www.w3.org/2000/svg" height="96" width="96" version="1.0" xmlns:cc="http://creativecommons.org/ns#" xmlns:xlink="http://www.w3.org/1999/xlink" xmlns:dc="http://purl.org/dc/elements/1.1/">
 <defs id="defs2410">
  <linearGradient id="linearGradient3668">
   <stop id="stop3670" offset="0"/>
   <stop id="stop3672" style="stop-opacity:0" offset="1"/>
  </linearGradient>
  <linearGradient id="ButtonShadow" y2="7.0165" gradientUnits="userSpaceOnUse" x2="45.448" gradientTransform="scale(1.0059 .99417)" y1="92.54" x1="45.448">
   <stop id="stop3750" offset="0"/>
   <stop id="stop3752" style="stop-opacity:.58824" offset="1"/>
  </linearGradient>
  <linearGradient id="linearGradient3737">
   <stop id="stop3739" style="stop-color:#fff" offset="0"/>
   <stop id="stop3741" style="stop-color:#fff;stop-opacity:0" offset="1"/>
  </linearGradient>
  <linearGradient id="linearGradient3700">
   <stop id="stop3702" style="stop-color:#1f1f1f" offset="0"/>
   <stop id="stop3704" style="stop-color:#191919" offset="1"/>
  </linearGradient>
  <filter id="filter3174" color-interpolation-filters="sRGB">
   <feGaussianBlur id="feGaussianBlur3176" stdDeviation="1.71"/>
  </filter>
  <linearGradient id="linearGradient3188" y2="63.893" xlink:href="#linearGradient3737" gradientUnits="userSpaceOnUse" x2="36.357" y1="6" x1="36.357"/>
  <filter id="filter3794" height="1.384" width="1.384" color-interpolation-filters="sRGB" y="-.192" x="-.192">
   <feGaussianBlur id="feGaussianBlur3796" stdDeviation="5.28"/>
  </filter>
  <linearGradient id="linearGradient3613" y2="138.66" xlink:href="#linearGradient3737" gradientUnits="userSpaceOnUse" x2="48" y1="20.221" x1="48"/>
  <radialGradient id="radialGradient3619" xlink:href="#linearGradient3737" gradientUnits="userSpaceOnUse" cy="90.172" cx="48" gradientTransform="matrix(1.1573 0 0 .99591 -7.551 .19713)" r="42"/>
  <clipPath id="clipPath3613">
   <rect id="rect3615" style="fill:#fff" rx="6" ry="6" height="84" width="84" y="6" x="6"/>
  </clipPath>
  <linearGradient id="linearGradient3617" y2="48.036" gradientUnits="userSpaceOnUse" x2="88.899" gradientTransform="translate(0,-100)" y1="48.036" x1="6.5714">
   <stop id="stop3660" style="stop-color:#373795" offset="0"/>
   <stop id="stop3662" style="stop-color:#7343bc" offset=".5"/>
   <stop id="stop3664" style="stop-color:#c83737" offset="1"/>
  </linearGradient>
  <filter id="filter3680" color-interpolation-filters="sRGB">
   <feGaussianBlur id="feGaussianBlur3682" stdDeviation="0.71783716"/>
  </filter>
  <radialGradient id="radialGradient3691" gradientUnits="userSpaceOnUse" cy="74.095" cx="28.125" gradientTransform="matrix(1.4729 0 0 1.2638 -13.301 -19.75)" r="12.054">
   <stop id="stop3665" style="stop-color:#f73c00" offset="0"/>
   <stop id="stop3669" style="stop-color:#b61100" offset=".71272"/>
   <stop id="stop3667" style="stop-color:#9c0000" offset="1"/>
  </radialGradient>
  <linearGradient id="linearGradient3636" y2="76.054" gradientUnits="userSpaceOnUse" x2="55.939" y1="22.033" x1="55.939">
   <stop id="stop3632" style="stop-color:#dedede" offset="0"/>
   <stop id="stop3634" style="stop-color:#fff" offset="1"/>
  </linearGradient>
  <radialGradient id="radialGradient2871" gradientUnits="userSpaceOnUse" cy="75.058" cx="28.125" gradientTransform="matrix(1.5148 -8.9896e-8 6.7407e-8 1.1025 -14.479 -7.7949)" r="12.054">
   <stop id="stop3657" style="stop-color:#f73c00" offset="0"/>
   <stop id="stop3659" style="stop-color:#9c0000" offset="1"/>
  </radialGradient>
  <linearGradient id="linearGradient2873" y2="68.054" xlink:href="#linearGradient3737" gradientUnits="userSpaceOnUse" x2="40.179" y1="68.054" x1="16.071"/>
  <linearGradient id="linearGradient3679" y2="68.054" gradientUnits="userSpaceOnUse" x2="40.179" y1="68.054" x1="16.071">
   <stop id="stop3675" style="stop-color:#fea" offset="0"/>
   <stop id="stop3677" style="stop-color:#fea;stop-opacity:0" offset="1"/>
  </linearGradient>
  <linearGradient id="linearGradient2882" y2="5.9877" xlink:href="#linearGradient3700" gradientUnits="userSpaceOnUse" x2="48" gradientTransform="translate(100)" y1="90" x1="48"/>
  <linearGradient id="linearGradient3674" y2="48" xlink:href="#linearGradient3668" gradientUnits="userSpaceOnUse" x2="90" gradientTransform="translate(4)" y1="48" x1="6"/>
  <linearGradient id="linearGradient3680" y2="5.9877" xlink:href="#linearGradient3700" gradientUnits="userSpaceOnUse" x2="48" y1="90" x1="48"/>
  <clipPath id="clipPath2926">
   <rect id="rect2928" style="fill:url(#linearGradient3680)" rx="6" ry="6" height="84" width="84" y="6" x="6"/>
  </clipPath>
  <linearGradient id="linearGradient3839" y2="30.797" gradientUnits="userSpaceOnUse" x2="9.283" y1="54.566" x1="9.283">
   <stop id="stop3718" style="stop-color:#c83771" offset="0"/>
   <stop id="stop3720" style="stop-color:#c83771;stop-opacity:0" offset="1"/>
  </linearGradient>
  <linearGradient id="linearGradient3841" y2="40.422" gradientUnits="userSpaceOnUse" x2="16.536" y1="62.395" x1="16.536">
   <stop id="stop3726" style="stop-color:#d35fbc" offset="0"/>
   <stop id="stop3728" style="stop-color:#d35fbc;stop-opacity:0" offset="1"/>
  </linearGradient>
  <linearGradient id="linearGradient3843" y2="32.08" gradientUnits="userSpaceOnUse" x2="22.525" y1="66.206" x1="22.525">
   <stop id="stop3734" style="stop-color:#8d5fd3" offset="0"/>
   <stop id="stop3736" style="stop-color:#8d5fd3;stop-opacity:0" offset="1"/>
  </linearGradient>
  <linearGradient id="linearGradient3845" y2="23.204" gradientUnits="userSpaceOnUse" x2="29.778" y1="54.061" x1="29.778">
   <stop id="stop3742" style="stop-color:#59f" offset="0"/>
   <stop id="stop3744" style="stop-color:#59f;stop-opacity:0" offset="1"/>
  </linearGradient>
  <linearGradient id="linearGradient3847" y2="46.717" gradientUnits="userSpaceOnUse" x2="37.03" y1="68.961" x1="37.03">
   <stop id="stop3751" style="stop-color:#37abc8" offset="0"/>
   <stop id="stop3753" style="stop-color:#37abc8;stop-opacity:0" offset="1"/>
  </linearGradient>
  <linearGradient id="linearGradient3849" y2="37.392" gradientUnits="userSpaceOnUse" x2="44.283" y1="64.162" x1="44.283">
   <stop id="stop3759" style="stop-color:#70e4cd" offset="0"/>
   <stop id="stop3761" style="stop-color:#70e4cd;stop-opacity:0" offset="1"/>
  </linearGradient>
  <linearGradient id="linearGradient3851" y2="12.37" gradientUnits="userSpaceOnUse" x2="51.283" y1="60.879" x1="51.283">
   <stop id="stop3767" style="stop-color:#53df53" offset="0"/>
   <stop id="stop3769" style="stop-color:#53df53;stop-opacity:0" offset="1"/>
  </linearGradient>
  <linearGradient id="linearGradient3853" y2="27.465" gradientUnits="userSpaceOnUse" x2="57.525" y1="65.678" x1="57.525">
   <stop id="stop3775" style="stop-color:#aad400" offset="0"/>
   <stop id="stop3777" style="stop-color:#aad400;stop-opacity:0" offset="1"/>
  </linearGradient>
  <linearGradient id="linearGradient3855" y2="35.095" gradientUnits="userSpaceOnUse" x2="64.778" y1="63.91" x1="64.778">
   <stop id="stop3783" style="stop-color:#ffd42a" offset="0"/>
   <stop id="stop3785" style="stop-color:#ffd42a;stop-opacity:0" offset="1"/>
  </linearGradient>
  <linearGradient id="linearGradient3857" y2="18.954" gradientUnits="userSpaceOnUse" x2="72.788" y1="60.122" x1="72.788">
   <stop id="stop3791" style="stop-color:#ff992a" offset="0"/>
   <stop id="stop3793" style="stop-color:#ff992a;stop-opacity:0" offset="1"/>
  </linearGradient>
  <linearGradient id="linearGradient3859" y2="40.421" gradientUnits="userSpaceOnUse" x2="78.273" y1="58.354" x1="78.273">
   <stop id="stop3799" style="stop-color:#f60" offset="0"/>
   <stop id="stop3801" style="stop-color:#f60;stop-opacity:0" offset="1"/>
  </linearGradient>
  <linearGradient id="linearGradient3861" y2="34.361" gradientUnits="userSpaceOnUse" x2="85.525" y1="60.879" x1="85.525">
   <stop id="stop3807" style="stop-color:#d40000" offset="0"/>
   <stop id="stop3809" style="stop-color:#d40000;stop-opacity:0" offset="1"/>
  </linearGradient>
  <linearGradient id="linearGradient3869" y2="39.2" xlink:href="#linearGradient3668" gradientUnits="userSpaceOnUse" x2="48" gradientTransform="translate(0,36)" y1="53.93" x1="48"/>
  <linearGradient id="ButtonShadow-0" y2="7.0165" gradientUnits="userSpaceOnUse" x2="45.448" gradientTransform="matrix(1.0059 0 0 .99417 100 0)" y1="92.54" x1="45.448">
   <stop id="stop3750-8" offset="0"/>
   <stop id="stop3752-5" style="stop-opacity:.58824" offset="1"/>
  </linearGradient>
  <linearGradient id="linearGradient3780" y2="90.239" xlink:href="#ButtonShadow-0" gradientUnits="userSpaceOnUse" x2="32.251" gradientTransform="matrix(1.0238 0 0 1.0119 -1.1429 -98.071)" y1="6.1317" x1="32.251"/>
  <linearGradient id="linearGradient3721" y2="90.239" xlink:href="#ButtonShadow-0" gradientUnits="userSpaceOnUse" x2="32.251" gradientTransform="translate(0,-97)" y1="6.1317" x1="32.251"/>
 </defs>
 <metadata id="metadata2413">
  <rdf:RDF>
   <cc:Work rdf:about="">
    <dc:format>image/svg+xml</dc:format>
    <dc:type rdf:resource="http://purl.org/dc/dcmitype/StillImage"/>
   </cc:Work>
  </rdf:RDF>
 </metadata>
 <g id="layer2" style="display:none">
  <rect id="rect3745" style="opacity:.9;filter:url(#filter3174);fill:url(#ButtonShadow)" rx="6" ry="6" height="85" width="86" y="7" x="5"/>
 </g>
 <g id="layer4">
  <path id="path3786" style="opacity:0.08;fill:url(#linearGradient3780)" d="m12-95.031c-5.5111 0-10.031 4.5202-10.031 10.031v71c0 5.5111 4.5202 10.031 10.031 10.031h72c5.5111 0 10.031-4.5202 10.031-10.031v-71c0-5.5111-4.5202-10.031-10.031-10.031h-72z" transform="scale(1,-1)"/>
  <path id="path3778" style="opacity:.1;fill:url(#linearGradient3780)" d="m12-94.031c-4.9716 0-9.0312 4.0596-9.0312 9.0312v71c0 4.9716 4.0596 9.0312 9.0312 9.0312h72c4.9716 0 9.0312-4.0596 9.0312-9.0312v-71c0-4.9716-4.0596-9.0312-9.0312-9.0312h-72z" transform="scale(1,-1)"/>
  <path id="path3770" style="opacity:.2;fill:url(#linearGradient3780)" d="m12-93c-4.4091 0-8 3.5909-8 8v71c0 4.4091 3.5909 8 8 8h72c4.4091 0 8-3.5909 8-8v-71c0-4.4091-3.5909-8-8-8h-72z" transform="scale(1,-1)"/>
  <rect id="rect3723" style="opacity:.3;fill:url(#linearGradient3780)" transform="scale(1,-1)" rx="7" ry="7" height="85" width="86" y="-92" x="5"/>
  <rect id="rect3716" style="opacity:.45;fill:url(#linearGradient3721)" transform="scale(1,-1)" rx="6" ry="6" height="84" width="84" y="-91" x="6"/>
 </g>
 <g id="layer1">
  <rect id="rect3677" style="fill:url(#linearGradient3680)" rx="6" ry="6" height="84" width="84" y="6" x="6"/>
  <g id="g2910" clip-path="url(#clipPath2926)">
   <path id="rect3682" style="fill:url(#linearGradient3839)" d="m7 6c-0.554 0-1 0.446-1 1v2c0 0.554 0.446 1 1 1h4c0.554 0 1-0.446 1-1v-2c0-0.554-0.446-1-1-1h-4zm0 5c-0.554 0-1 0.446-1 1v2c0 0.554 0.446 1 1 1h4c0.554 0 1-0.446 1-1v-2c0-0.554-0.446-1-1-1h-4zm0 5c-0.554 0-1 0.446-1 1v2c0 0.554 0.446 1 1 1h4c0.554 0 1-0.446 1-1v-2c0-0.554-0.446-1-1-1h-4zm0 5c-0.554 0-1 0.446-1 1v2c0 0.554 0.446 1 1 1h4c0.554 0 1-0.446 1-1v-2c0-0.554-0.446-1-1-1h-4zm0 5c-0.554 0-1 0.446-1 1v2c0 0.554 0.446 1 1 1h4c0.554 0 1-0.446 1-1v-2c0-0.554-0.446-1-1-1h-4zm0 5c-0.554 0-1 0.446-1 1v2c0 0.554 0.446 1 1 1h4c0.554 0 1-0.446 1-1v-2c0-0.554-0.446-1-1-1h-4zm0 5c-0.554 0-1 0.446-1 1v2c0 0.554 0.446 1 1 1h4c0.554 0 1-0.446 1-1v-2c0-0.554-0.446-1-1-1h-4zm0 5c-0.554 0-1 0.446-1 1v2c0 0.554 0.446 1 1 1h4c0.554 0 1-0.446 1-1v-2c0-0.554-0.446-1-1-1h-4zm0 5c-0.554 0-1 0.446-1 1v2c0 0.554 0.446 1 1 1h4c0.554 0 1-0.446 1-1v-2c0-0.554-0.446-1-1-1h-4zm0 5c-0.554 0-1 0.446-1 1v2c0 0.554 0.446 1 1 1h4c0.554 0 1-0.446 1-1v-2c0-0.554-0.446-1-1-1h-4zm0 5c-0.554 0-1 0.446-1 1v2c0 0.554 0.446 1 1 1h4c0.554 0 1-0.446 1-1v-2c0-0.554-0.446-1-1-1h-4zm0 5c-0.554 0-1 0.446-1 1v2c0 0.554 0.446 1 1 1h4c0.554 0 1-0.446 1-1v-2c0-0.554-0.446-1-1-1h-4zm0 5c-0.554 0-1 0.446-1 1v2c0 0.554 0.446 1 1 1h4c0.554 0 1-0.446 1-1v-2c0-0.554-0.446-1-1-1h-4zm0 5c-0.554 0-1 0.446-1 1v2c0 0.554 0.446 1 1 1h4c0.554 0 1-0.446 1-1v-2c0-0.554-0.446-1-1-1h-4zm0 5c-0.554 0-1 0.446-1 1v2c0 0.554 0.446 1 1 1h4c0.554 0 1-0.446 1-1v-2c0-0.554-0.446-1-1-1h-4zm0 5c-0.554 0-1 0.446-1 1v2c0 0.554 0.446 1 1 1h4c0.554 0 1-0.446 1-1v-2c0-0.554-0.446-1-1-1h-4zm0 5c-0.554 0-1 0.446-1 1v2c0 0.554 0.446 1 1 1h4c0.554 0 1-0.446 1-1v-2c0-0.554-0.446-1-1-1h-4z"/>
   <path id="path3723" style="fill:url(#linearGradient3841)" d="m14 6c-0.554 0-1 0.446-1 1v2c0 0.554 0.446 1 1 1h4c0.554 0 1-0.446 1-1v-2c0-0.554-0.446-1-1-1h-4zm0 5c-0.554 0-1 0.446-1 1v2c0 0.554 0.446 1 1 1h4c0.554 0 1-0.446 1-1v-2c0-0.554-0.446-1-1-1h-4zm0 5c-0.554 0-1 0.446-1 1v2c0 0.554 0.446 1 1 1h4c0.554 0 1-0.446 1-1v-2c0-0.554-0.446-1-1-1h-4zm0 5c-0.554 0-1 0.446-1 1v2c0 0.554 0.446 1 1 1h4c0.554 0 1-0.446 1-1v-2c0-0.554-0.446-1-1-1h-4zm0 5c-0.554 0-1 0.446-1 1v2c0 0.554 0.446 1 1 1h4c0.554 0 1-0.446 1-1v-2c0-0.554-0.446-1-1-1h-4zm0 5c-0.554 0-1 0.446-1 1v2c0 0.554 0.446 1 1 1h4c0.554 0 1-0.446 1-1v-2c0-0.554-0.446-1-1-1h-4zm0 5c-0.554 0-1 0.446-1 1v2c0 0.554 0.446 1 1 1h4c0.554 0 1-0.446 1-1v-2c0-0.554-0.446-1-1-1h-4zm0 5c-0.554 0-1 0.446-1 1v2c0 0.554 0.446 1 1 1h4c0.554 0 1-0.446 1-1v-2c0-0.554-0.446-1-1-1h-4zm0 5c-0.554 0-1 0.446-1 1v2c0 0.554 0.446 1 1 1h4c0.554 0 1-0.446 1-1v-2c0-0.554-0.446-1-1-1h-4zm0 5c-0.554 0-1 0.446-1 1v2c0 0.554 0.446 1 1 1h4c0.554 0 1-0.446 1-1v-2c0-0.554-0.446-1-1-1h-4zm0 5c-0.554 0-1 0.446-1 1v2c0 0.554 0.446 1 1 1h4c0.554 0 1-0.446 1-1v-2c0-0.554-0.446-1-1-1h-4zm0 5c-0.554 0-1 0.446-1 1v2c0 0.554 0.446 1 1 1h4c0.554 0 1-0.446 1-1v-2c0-0.554-0.446-1-1-1h-4zm0 5c-0.554 0-1 0.446-1 1v2c0 0.554 0.446 1 1 1h4c0.554 0 1-0.446 1-1v-2c0-0.554-0.446-1-1-1h-4zm0 5c-0.554 0-1 0.446-1 1v2c0 0.554 0.446 1 1 1h4c0.554 0 1-0.446 1-1v-2c0-0.554-0.446-1-1-1h-4zm0 5c-0.554 0-1 0.446-1 1v2c0 0.554 0.446 1 1 1h4c0.554 0 1-0.446 1-1v-2c0-0.554-0.446-1-1-1h-4zm0 5c-0.554 0-1 0.446-1 1v2c0 0.554 0.446 1 1 1h4c0.554 0 1-0.446 1-1v-2c0-0.554-0.446-1-1-1h-4zm0 5c-0.554 0-1 0.446-1 1v2c0 0.554 0.446 1 1 1h4c0.554 0 1-0.446 1-1v-2c0-0.554-0.446-1-1-1h-4z"/>
   <path id="path3725" style="fill:url(#linearGradient3843)" d="m21 6c-0.554 0-1 0.446-1 1v2c0 0.554 0.446 1 1 1h4c0.554 0 1-0.446 1-1v-2c0-0.554-0.446-1-1-1h-4zm0 5c-0.554 0-1 0.446-1 1v2c0 0.554 0.446 1 1 1h4c0.554 0 1-0.446 1-1v-2c0-0.554-0.446-1-1-1h-4zm0 5c-0.554 0-1 0.446-1 1v2c0 0.554 0.446 1 1 1h4c0.554 0 1-0.446 1-1v-2c0-0.554-0.446-1-1-1h-4zm0 5c-0.554 0-1 0.446-1 1v2c0 0.554 0.446 1 1 1h4c0.554 0 1-0.446 1-1v-2c0-0.554-0.446-1-1-1h-4zm0 5c-0.554 0-1 0.446-1 1v2c0 0.554 0.446 1 1 1h4c0.554 0 1-0.446 1-1v-2c0-0.554-0.446-1-1-1h-4zm0 5c-0.554 0-1 0.446-1 1v2c0 0.554 0.446 1 1 1h4c0.554 0 1-0.446 1-1v-2c0-0.554-0.446-1-1-1h-4zm0 5c-0.554 0-1 0.446-1 1v2c0 0.554 0.446 1 1 1h4c0.554 0 1-0.446 1-1v-2c0-0.554-0.446-1-1-1h-4zm0 5c-0.554 0-1 0.446-1 1v2c0 0.554 0.446 1 1 1h4c0.554 0 1-0.446 1-1v-2c0-0.554-0.446-1-1-1h-4zm0 5c-0.554 0-1 0.446-1 1v2c0 0.554 0.446 1 1 1h4c0.554 0 1-0.446 1-1v-2c0-0.554-0.446-1-1-1h-4zm0 5c-0.554 0-1 0.446-1 1v2c0 0.554 0.446 1 1 1h4c0.554 0 1-0.446 1-1v-2c0-0.554-0.446-1-1-1h-4zm0 5c-0.554 0-1 0.446-1 1v2c0 0.554 0.446 1 1 1h4c0.554 0 1-0.446 1-1v-2c0-0.554-0.446-1-1-1h-4zm0 5c-0.554 0-1 0.446-1 1v2c0 0.554 0.446 1 1 1h4c0.554 0 1-0.446 1-1v-2c0-0.554-0.446-1-1-1h-4zm0 5c-0.554 0-1 0.446-1 1v2c0 0.554 0.446 1 1 1h4c0.554 0 1-0.446 1-1v-2c0-0.554-0.446-1-1-1h-4zm0 5c-0.554 0-1 0.446-1 1v2c0 0.554 0.446 1 1 1h4c0.554 0 1-0.446 1-1v-2c0-0.554-0.446-1-1-1h-4zm0 5c-0.554 0-1 0.446-1 1v2c0 0.554 0.446 1 1 1h4c0.554 0 1-0.446 1-1v-2c0-0.554-0.446-1-1-1h-4zm0 5c-0.554 0-1 0.446-1 1v2c0 0.554 0.446 1 1 1h4c0.554 0 1-0.446 1-1v-2c0-0.554-0.446-1-1-1h-4zm0 5c-0.554 0-1 0.446-1 1v2c0 0.554 0.446 1 1 1h4c0.554 0 1-0.446 1-1v-2c0-0.554-0.446-1-1-1h-4z"/>
   <path id="path3727" style="fill:url(#linearGradient3845)" d="m28 6c-0.554 0-1 0.446-1 1v2c0 0.554 0.446 1 1 1h4c0.554 0 1-0.446 1-1v-2c0-0.554-0.446-1-1-1h-4zm0 5c-0.554 0-1 0.446-1 1v2c0 0.554 0.446 1 1 1h4c0.554 0 1-0.446 1-1v-2c0-0.554-0.446-1-1-1h-4zm0 5c-0.554 0-1 0.446-1 1v2c0 0.554 0.446 1 1 1h4c0.554 0 1-0.446 1-1v-2c0-0.554-0.446-1-1-1h-4zm0 5c-0.554 0-1 0.446-1 1v2c0 0.554 0.446 1 1 1h4c0.554 0 1-0.446 1-1v-2c0-0.554-0.446-1-1-1h-4zm0 5c-0.554 0-1 0.446-1 1v2c0 0.554 0.446 1 1 1h4c0.554 0 1-0.446 1-1v-2c0-0.554-0.446-1-1-1h-4zm0 5c-0.554 0-1 0.446-1 1v2c0 0.554 0.446 1 1 1h4c0.554 0 1-0.446 1-1v-2c0-0.554-0.446-1-1-1h-4zm0 5c-0.554 0-1 0.446-1 1v2c0 0.554 0.446 1 1 1h4c0.554 0 1-0.446 1-1v-2c0-0.554-0.446-1-1-1h-4zm0 5c-0.554 0-1 0.446-1 1v2c0 0.554 0.446 1 1 1h4c0.554 0 1-0.446 1-1v-2c0-0.554-0.446-1-1-1h-4zm0 5c-0.554 0-1 0.446-1 1v2c0 0.554 0.446 1 1 1h4c0.554 0 1-0.446 1-1v-2c0-0.554-0.446-1-1-1h-4zm0 5c-0.554 0-1 0.446-1 1v2c0 0.554 0.446 1 1 1h4c0.554 0 1-0.446 1-1v-2c0-0.554-0.446-1-1-1h-4zm0 5c-0.554 0-1 0.446-1 1v2c0 0.554 0.446 1 1 1h4c0.554 0 1-0.446 1-1v-2c0-0.554-0.446-1-1-1h-4zm0 5c-0.554 0-1 0.446-1 1v2c0 0.554 0.446 1 1 1h4c0.554 0 1-0.446 1-1v-2c0-0.554-0.446-1-1-1h-4zm0 5c-0.554 0-1 0.446-1 1v2c0 0.554 0.446 1 1 1h4c0.554 0 1-0.446 1-1v-2c0-0.554-0.446-1-1-1h-4zm0 5c-0.554 0-1 0.446-1 1v2c0 0.554 0.446 1 1 1h4c0.554 0 1-0.446 1-1v-2c0-0.554-0.446-1-1-1h-4zm0 5c-0.554 0-1 0.446-1 1v2c0 0.554 0.446 1 1 1h4c0.554 0 1-0.446 1-1v-2c0-0.554-0.446-1-1-1h-4zm0 5c-0.554 0-1 0.446-1 1v2c0 0.554 0.446 1 1 1h4c0.554 0 1-0.446 1-1v-2c0-0.554-0.446-1-1-1h-4zm0 5c-0.554 0-1 0.446-1 1v2c0 0.554 0.446 1 1 1h4c0.554 0 1-0.446 1-1v-2c0-0.554-0.446-1-1-1h-4z"/>
   <path id="path3729" style="fill:url(#linearGradient3847)" d="m35 6c-0.554 0-1 0.446-1 1v2c0 0.554 0.446 1 1 1h4c0.554 0 1-0.446 1-1v-2c0-0.554-0.446-1-1-1h-4zm0 5c-0.554 0-1 0.446-1 1v2c0 0.554 0.446 1 1 1h4c0.554 0 1-0.446 1-1v-2c0-0.554-0.446-1-1-1h-4zm0 5c-0.554 0-1 0.446-1 1v2c0 0.554 0.446 1 1 1h4c0.554 0 1-0.446 1-1v-2c0-0.554-0.446-1-1-1h-4zm0 5c-0.554 0-1 0.446-1 1v2c0 0.554 0.446 1 1 1h4c0.554 0 1-0.446 1-1v-2c0-0.554-0.446-1-1-1h-4zm0 5c-0.554 0-1 0.446-1 1v2c0 0.554 0.446 1 1 1h4c0.554 0 1-0.446 1-1v-2c0-0.554-0.446-1-1-1h-4zm0 5c-0.554 0-1 0.446-1 1v2c0 0.554 0.446 1 1 1h4c0.554 0 1-0.446 1-1v-2c0-0.554-0.446-1-1-1h-4zm0 5c-0.554 0-1 0.446-1 1v2c0 0.554 0.446 1 1 1h4c0.554 0 1-0.446 1-1v-2c0-0.554-0.446-1-1-1h-4zm0 5c-0.554 0-1 0.446-1 1v2c0 0.554 0.446 1 1 1h4c0.554 0 1-0.446 1-1v-2c0-0.554-0.446-1-1-1h-4zm0 5c-0.554 0-1 0.446-1 1v2c0 0.554 0.446 1 1 1h4c0.554 0 1-0.446 1-1v-2c0-0.554-0.446-1-1-1h-4zm0 5c-0.554 0-1 0.446-1 1v2c0 0.554 0.446 1 1 1h4c0.554 0 1-0.446 1-1v-2c0-0.554-0.446-1-1-1h-4zm0 5c-0.554 0-1 0.446-1 1v2c0 0.554 0.446 1 1 1h4c0.554 0 1-0.446 1-1v-2c0-0.554-0.446-1-1-1h-4zm0 5c-0.554 0-1 0.446-1 1v2c0 0.554 0.446 1 1 1h4c0.554 0 1-0.446 1-1v-2c0-0.554-0.446-1-1-1h-4zm0 5c-0.554 0-1 0.446-1 1v2c0 0.554 0.446 1 1 1h4c0.554 0 1-0.446 1-1v-2c0-0.554-0.446-1-1-1h-4zm0 5c-0.554 0-1 0.446-1 1v2c0 0.554 0.446 1 1 1h4c0.554 0 1-0.446 1-1v-2c0-0.554-0.446-1-1-1h-4zm0 5c-0.554 0-1 0.446-1 1v2c0 0.554 0.446 1 1 1h4c0.554 0 1-0.446 1-1v-2c0-0.554-0.446-1-1-1h-4zm0 5c-0.554 0-1 0.446-1 1v2c0 0.554 0.446 1 1 1h4c0.554 0 1-0.446 1-1v-2c0-0.554-0.446-1-1-1h-4zm0 5c-0.554 0-1 0.446-1 1v2c0 0.554 0.446 1 1 1h4c0.554 0 1-0.446 1-1v-2c0-0.554-0.446-1-1-1h-4z"/>
   <path id="path3731" style="fill:url(#linearGradient3849)" d="m42 6c-0.554 0-1 0.446-1 1v2c0 0.554 0.446 1 1 1h4c0.554 0 1-0.446 1-1v-2c0-0.554-0.446-1-1-1h-4zm0 5c-0.554 0-1 0.446-1 1v2c0 0.554 0.446 1 1 1h4c0.554 0 1-0.446 1-1v-2c0-0.554-0.446-1-1-1h-4zm0 5c-0.554 0-1 0.446-1 1v2c0 0.554 0.446 1 1 1h4c0.554 0 1-0.446 1-1v-2c0-0.554-0.446-1-1-1h-4zm0 5c-0.554 0-1 0.446-1 1v2c0 0.554 0.446 1 1 1h4c0.554 0 1-0.446 1-1v-2c0-0.554-0.446-1-1-1h-4zm0 5c-0.554 0-1 0.446-1 1v2c0 0.554 0.446 1 1 1h4c0.554 0 1-0.446 1-1v-2c0-0.554-0.446-1-1-1h-4zm0 5c-0.554 0-1 0.446-1 1v2c0 0.554 0.446 1 1 1h4c0.554 0 1-0.446 1-1v-2c0-0.554-0.446-1-1-1h-4zm0 5c-0.554 0-1 0.446-1 1v2c0 0.554 0.446 1 1 1h4c0.554 0 1-0.446 1-1v-2c0-0.554-0.446-1-1-1h-4zm0 5c-0.554 0-1 0.446-1 1v2c0 0.554 0.446 1 1 1h4c0.554 0 1-0.446 1-1v-2c0-0.554-0.446-1-1-1h-4zm0 5c-0.554 0-1 0.446-1 1v2c0 0.554 0.446 1 1 1h4c0.554 0 1-0.446 1-1v-2c0-0.554-0.446-1-1-1h-4zm0 5c-0.554 0-1 0.446-1 1v2c0 0.554 0.446 1 1 1h4c0.554 0 1-0.446 1-1v-2c0-0.554-0.446-1-1-1h-4zm0 5c-0.554 0-1 0.446-1 1v2c0 0.554 0.446 1 1 1h4c0.554 0 1-0.446 1-1v-2c0-0.554-0.446-1-1-1h-4zm0 5c-0.554 0-1 0.446-1 1v2c0 0.554 0.446 1 1 1h4c0.554 0 1-0.446 1-1v-2c0-0.554-0.446-1-1-1h-4zm0 5c-0.554 0-1 0.446-1 1v2c0 0.554 0.446 1 1 1h4c0.554 0 1-0.446 1-1v-2c0-0.554-0.446-1-1-1h-4zm0 5c-0.554 0-1 0.446-1 1v2c0 0.554 0.446 1 1 1h4c0.554 0 1-0.446 1-1v-2c0-0.554-0.446-1-1-1h-4zm0 5c-0.554 0-1 0.446-1 1v2c0 0.554 0.446 1 1 1h4c0.554 0 1-0.446 1-1v-2c0-0.554-0.446-1-1-1h-4zm0 5c-0.554 0-1 0.446-1 1v2c0 0.554 0.446 1 1 1h4c0.554 0 1-0.446 1-1v-2c0-0.554-0.446-1-1-1h-4zm0 5c-0.554 0-1 0.446-1 1v2c0 0.554 0.446 1 1 1h4c0.554 0 1-0.446 1-1v-2c0-0.554-0.446-1-1-1h-4z"/>
   <path id="path3733" style="fill:url(#linearGradient3851)" d="m49 6c-0.554 0-1 0.446-1 1v2c0 0.554 0.446 1 1 1h4c0.554 0 1-0.446 1-1v-2c0-0.554-0.446-1-1-1h-4zm0 5c-0.554 0-1 0.446-1 1v2c0 0.554 0.446 1 1 1h4c0.554 0 1-0.446 1-1v-2c0-0.554-0.446-1-1-1h-4zm0 5c-0.554 0-1 0.446-1 1v2c0 0.554 0.446 1 1 1h4c0.554 0 1-0.446 1-1v-2c0-0.554-0.446-1-1-1h-4zm0 5c-0.554 0-1 0.446-1 1v2c0 0.554 0.446 1 1 1h4c0.554 0 1-0.446 1-1v-2c0-0.554-0.446-1-1-1h-4zm0 5c-0.554 0-1 0.446-1 1v2c0 0.554 0.446 1 1 1h4c0.554 0 1-0.446 1-1v-2c0-0.554-0.446-1-1-1h-4zm0 5c-0.554 0-1 0.446-1 1v2c0 0.554 0.446 1 1 1h4c0.554 0 1-0.446 1-1v-2c0-0.554-0.446-1-1-1h-4zm0 5c-0.554 0-1 0.446-1 1v2c0 0.554 0.446 1 1 1h4c0.554 0 1-0.446 1-1v-2c0-0.554-0.446-1-1-1h-4zm0 5c-0.554 0-1 0.446-1 1v2c0 0.554 0.446 1 1 1h4c0.554 0 1-0.446 1-1v-2c0-0.554-0.446-1-1-1h-4zm0 5c-0.554 0-1 0.446-1 1v2c0 0.554 0.446 1 1 1h4c0.554 0 1-0.446 1-1v-2c0-0.554-0.446-1-1-1h-4zm0 5c-0.554 0-1 0.446-1 1v2c0 0.554 0.446 1 1 1h4c0.554 0 1-0.446 1-1v-2c0-0.554-0.446-1-1-1h-4zm0 5c-0.554 0-1 0.446-1 1v2c0 0.554 0.446 1 1 1h4c0.554 0 1-0.446 1-1v-2c0-0.554-0.446-1-1-1h-4zm0 5c-0.554 0-1 0.446-1 1v2c0 0.554 0.446 1 1 1h4c0.554 0 1-0.446 1-1v-2c0-0.554-0.446-1-1-1h-4zm0 5c-0.554 0-1 0.446-1 1v2c0 0.554 0.446 1 1 1h4c0.554 0 1-0.446 1-1v-2c0-0.554-0.446-1-1-1h-4zm0 5c-0.554 0-1 0.446-1 1v2c0 0.554 0.446 1 1 1h4c0.554 0 1-0.446 1-1v-2c0-0.554-0.446-1-1-1h-4zm0 5c-0.554 0-1 0.446-1 1v2c0 0.554 0.446 1 1 1h4c0.554 0 1-0.446 1-1v-2c0-0.554-0.446-1-1-1h-4zm0 5c-0.554 0-1 0.446-1 1v2c0 0.554 0.446 1 1 1h4c0.554 0 1-0.446 1-1v-2c0-0.554-0.446-1-1-1h-4zm0 5c-0.554 0-1 0.446-1 1v2c0 0.554 0.446 1 1 1h4c0.554 0 1-0.446 1-1v-2c0-0.554-0.446-1-1-1h-4z"/>
   <path id="path3735" style="fill:url(#linearGradient3853)" d="m56 6c-0.554 0-1 0.446-1 1v2c0 0.554 0.446 1 1 1h4c0.554 0 1-0.446 1-1v-2c0-0.554-0.446-1-1-1h-4zm0 5c-0.554 0-1 0.446-1 1v2c0 0.554 0.446 1 1 1h4c0.554 0 1-0.446 1-1v-2c0-0.554-0.446-1-1-1h-4zm0 5c-0.554 0-1 0.446-1 1v2c0 0.554 0.446 1 1 1h4c0.554 0 1-0.446 1-1v-2c0-0.554-0.446-1-1-1h-4zm0 5c-0.554 0-1 0.446-1 1v2c0 0.554 0.446 1 1 1h4c0.554 0 1-0.446 1-1v-2c0-0.554-0.446-1-1-1h-4zm0 5c-0.554 0-1 0.446-1 1v2c0 0.554 0.446 1 1 1h4c0.554 0 1-0.446 1-1v-2c0-0.554-0.446-1-1-1h-4zm0 5c-0.554 0-1 0.446-1 1v2c0 0.554 0.446 1 1 1h4c0.554 0 1-0.446 1-1v-2c0-0.554-0.446-1-1-1h-4zm0 5c-0.554 0-1 0.446-1 1v2c0 0.554 0.446 1 1 1h4c0.554 0 1-0.446 1-1v-2c0-0.554-0.446-1-1-1h-4zm0 5c-0.554 0-1 0.446-1 1v2c0 0.554 0.446 1 1 1h4c0.554 0 1-0.446 1-1v-2c0-0.554-0.446-1-1-1h-4zm0 5c-0.554 0-1 0.446-1 1v2c0 0.554 0.446 1 1 1h4c0.554 0 1-0.446 1-1v-2c0-0.554-0.446-1-1-1h-4zm0 5c-0.554 0-1 0.446-1 1v2c0 0.554 0.446 1 1 1h4c0.554 0 1-0.446 1-1v-2c0-0.554-0.446-1-1-1h-4zm0 5c-0.554 0-1 0.446-1 1v2c0 0.554 0.446 1 1 1h4c0.554 0 1-0.446 1-1v-2c0-0.554-0.446-1-1-1h-4zm0 5c-0.554 0-1 0.446-1 1v2c0 0.554 0.446 1 1 1h4c0.554 0 1-0.446 1-1v-2c0-0.554-0.446-1-1-1h-4zm0 5c-0.554 0-1 0.446-1 1v2c0 0.554 0.446 1 1 1h4c0.554 0 1-0.446 1-1v-2c0-0.554-0.446-1-1-1h-4zm0 5c-0.554 0-1 0.446-1 1v2c0 0.554 0.446 1 1 1h4c0.554 0 1-0.446 1-1v-2c0-0.554-0.446-1-1-1h-4zm0 5c-0.554 0-1 0.446-1 1v2c0 0.554 0.446 1 1 1h4c0.554 0 1-0.446 1-1v-2c0-0.554-0.446-1-1-1h-4zm0 5c-0.554 0-1 0.446-1 1v2c0 0.554 0.446 1 1 1h4c0.554 0 1-0.446 1-1v-2c0-0.554-0.446-1-1-1h-4zm0 5c-0.554 0-1 0.446-1 1v2c0 0.554 0.446 1 1 1h4c0.554 0 1-0.446 1-1v-2c0-0.554-0.446-1-1-1h-4z"/>
   <path id="path3737" style="fill:url(#linearGradient3855)" d="m63 6c-0.554 0-1 0.446-1 1v2c0 0.554 0.446 1 1 1h4c0.554 0 1-0.446 1-1v-2c0-0.554-0.446-1-1-1h-4zm0 5c-0.554 0-1 0.446-1 1v2c0 0.554 0.446 1 1 1h4c0.554 0 1-0.446 1-1v-2c0-0.554-0.446-1-1-1h-4zm0 5c-0.554 0-1 0.446-1 1v2c0 0.554 0.446 1 1 1h4c0.554 0 1-0.446 1-1v-2c0-0.554-0.446-1-1-1h-4zm0 5c-0.554 0-1 0.446-1 1v2c0 0.554 0.446 1 1 1h4c0.554 0 1-0.446 1-1v-2c0-0.554-0.446-1-1-1h-4zm0 5c-0.554 0-1 0.446-1 1v2c0 0.554 0.446 1 1 1h4c0.554 0 1-0.446 1-1v-2c0-0.554-0.446-1-1-1h-4zm0 5c-0.554 0-1 0.446-1 1v2c0 0.554 0.446 1 1 1h4c0.554 0 1-0.446 1-1v-2c0-0.554-0.446-1-1-1h-4zm0 5c-0.554 0-1 0.446-1 1v2c0 0.554 0.446 1 1 1h4c0.554 0 1-0.446 1-1v-2c0-0.554-0.446-1-1-1h-4zm0 5c-0.554 0-1 0.446-1 1v2c0 0.554 0.446 1 1 1h4c0.554 0 1-0.446 1-1v-2c0-0.554-0.446-1-1-1h-4zm0 5c-0.554 0-1 0.446-1 1v2c0 0.554 0.446 1 1 1h4c0.554 0 1-0.446 1-1v-2c0-0.554-0.446-1-1-1h-4zm0 5c-0.554 0-1 0.446-1 1v2c0 0.554 0.446 1 1 1h4c0.554 0 1-0.446 1-1v-2c0-0.554-0.446-1-1-1h-4zm0 5c-0.554 0-1 0.446-1 1v2c0 0.554 0.446 1 1 1h4c0.554 0 1-0.446 1-1v-2c0-0.554-0.446-1-1-1h-4zm0 5c-0.554 0-1 0.446-1 1v2c0 0.554 0.446 1 1 1h4c0.554 0 1-0.446 1-1v-2c0-0.554-0.446-1-1-1h-4zm0 5c-0.554 0-1 0.446-1 1v2c0 0.554 0.446 1 1 1h4c0.554 0 1-0.446 1-1v-2c0-0.554-0.446-1-1-1h-4zm0 5c-0.554 0-1 0.446-1 1v2c0 0.554 0.446 1 1 1h4c0.554 0 1-0.446 1-1v-2c0-0.554-0.446-1-1-1h-4zm0 5c-0.554 0-1 0.446-1 1v2c0 0.554 0.446 1 1 1h4c0.554 0 1-0.446 1-1v-2c0-0.554-0.446-1-1-1h-4zm0 5c-0.554 0-1 0.446-1 1v2c0 0.554 0.446 1 1 1h4c0.554 0 1-0.446 1-1v-2c0-0.554-0.446-1-1-1h-4zm0 5c-0.554 0-1 0.446-1 1v2c0 0.554 0.446 1 1 1h4c0.554 0 1-0.446 1-1v-2c0-0.554-0.446-1-1-1h-4z"/>
   <path id="path3739" style="fill:url(#linearGradient3857)" d="m70 6c-0.554 0-1 0.446-1 1v2c0 0.554 0.446 1 1 1h4c0.554 0 1-0.446 1-1v-2c0-0.554-0.446-1-1-1h-4zm0 5c-0.554 0-1 0.446-1 1v2c0 0.554 0.446 1 1 1h4c0.554 0 1-0.446 1-1v-2c0-0.554-0.446-1-1-1h-4zm0 5c-0.554 0-1 0.446-1 1v2c0 0.554 0.446 1 1 1h4c0.554 0 1-0.446 1-1v-2c0-0.554-0.446-1-1-1h-4zm0 5c-0.554 0-1 0.446-1 1v2c0 0.554 0.446 1 1 1h4c0.554 0 1-0.446 1-1v-2c0-0.554-0.446-1-1-1h-4zm0 5c-0.554 0-1 0.446-1 1v2c0 0.554 0.446 1 1 1h4c0.554 0 1-0.446 1-1v-2c0-0.554-0.446-1-1-1h-4zm0 5c-0.554 0-1 0.446-1 1v2c0 0.554 0.446 1 1 1h4c0.554 0 1-0.446 1-1v-2c0-0.554-0.446-1-1-1h-4zm0 5c-0.554 0-1 0.446-1 1v2c0 0.554 0.446 1 1 1h4c0.554 0 1-0.446 1-1v-2c0-0.554-0.446-1-1-1h-4zm0 5c-0.554 0-1 0.446-1 1v2c0 0.554 0.446 1 1 1h4c0.554 0 1-0.446 1-1v-2c0-0.554-0.446-1-1-1h-4zm0 5c-0.554 0-1 0.446-1 1v2c0 0.554 0.446 1 1 1h4c0.554 0 1-0.446 1-1v-2c0-0.554-0.446-1-1-1h-4zm0 5c-0.554 0-1 0.446-1 1v2c0 0.554 0.446 1 1 1h4c0.554 0 1-0.446 1-1v-2c0-0.554-0.446-1-1-1h-4zm0 5c-0.554 0-1 0.446-1 1v2c0 0.554 0.446 1 1 1h4c0.554 0 1-0.446 1-1v-2c0-0.554-0.446-1-1-1h-4zm0 5c-0.554 0-1 0.446-1 1v2c0 0.554 0.446 1 1 1h4c0.554 0 1-0.446 1-1v-2c0-0.554-0.446-1-1-1h-4zm0 5c-0.554 0-1 0.446-1 1v2c0 0.554 0.446 1 1 1h4c0.554 0 1-0.446 1-1v-2c0-0.554-0.446-1-1-1h-4zm0 5c-0.554 0-1 0.446-1 1v2c0 0.554 0.446 1 1 1h4c0.554 0 1-0.446 1-1v-2c0-0.554-0.446-1-1-1h-4zm0 5c-0.554 0-1 0.446-1 1v2c0 0.554 0.446 1 1 1h4c0.554 0 1-0.446 1-1v-2c0-0.554-0.446-1-1-1h-4zm0 5c-0.554 0-1 0.446-1 1v2c0 0.554 0.446 1 1 1h4c0.554 0 1-0.446 1-1v-2c0-0.554-0.446-1-1-1h-4zm0 5c-0.554 0-1 0.446-1 1v2c0 0.554 0.446 1 1 1h4c0.554 0 1-0.446 1-1v-2c0-0.554-0.446-1-1-1h-4z"/>
   <path id="path3741" style="fill:url(#linearGradient3859)" d="m77 6c-0.554 0-1 0.446-1 1v2c0 0.554 0.446 1 1 1h4c0.554 0 1-0.446 1-1v-2c0-0.554-0.446-1-1-1h-4zm0 5c-0.554 0-1 0.446-1 1v2c0 0.554 0.446 1 1 1h4c0.554 0 1-0.446 1-1v-2c0-0.554-0.446-1-1-1h-4zm0 5c-0.554 0-1 0.446-1 1v2c0 0.554 0.446 1 1 1h4c0.554 0 1-0.446 1-1v-2c0-0.554-0.446-1-1-1h-4zm0 5c-0.554 0-1 0.446-1 1v2c0 0.554 0.446 1 1 1h4c0.554 0 1-0.446 1-1v-2c0-0.554-0.446-1-1-1h-4zm0 5c-0.554 0-1 0.446-1 1v2c0 0.554 0.446 1 1 1h4c0.554 0 1-0.446 1-1v-2c0-0.554-0.446-1-1-1h-4zm0 5c-0.554 0-1 0.446-1 1v2c0 0.554 0.446 1 1 1h4c0.554 0 1-0.446 1-1v-2c0-0.554-0.446-1-1-1h-4zm0 5c-0.554 0-1 0.446-1 1v2c0 0.554 0.446 1 1 1h4c0.554 0 1-0.446 1-1v-2c0-0.554-0.446-1-1-1h-4zm0 5c-0.554 0-1 0.446-1 1v2c0 0.554 0.446 1 1 1h4c0.554 0 1-0.446 1-1v-2c0-0.554-0.446-1-1-1h-4zm0 5c-0.554 0-1 0.446-1 1v2c0 0.554 0.446 1 1 1h4c0.554 0 1-0.446 1-1v-2c0-0.554-0.446-1-1-1h-4zm0 5c-0.554 0-1 0.446-1 1v2c0 0.554 0.446 1 1 1h4c0.554 0 1-0.446 1-1v-2c0-0.554-0.446-1-1-1h-4zm0 5c-0.554 0-1 0.446-1 1v2c0 0.554 0.446 1 1 1h4c0.554 0 1-0.446 1-1v-2c0-0.554-0.446-1-1-1h-4zm0 5c-0.554 0-1 0.446-1 1v2c0 0.554 0.446 1 1 1h4c0.554 0 1-0.446 1-1v-2c0-0.554-0.446-1-1-1h-4zm0 5c-0.554 0-1 0.446-1 1v2c0 0.554 0.446 1 1 1h4c0.554 0 1-0.446 1-1v-2c0-0.554-0.446-1-1-1h-4zm0 5c-0.554 0-1 0.446-1 1v2c0 0.554 0.446 1 1 1h4c0.554 0 1-0.446 1-1v-2c0-0.554-0.446-1-1-1h-4zm0 5c-0.554 0-1 0.446-1 1v2c0 0.554 0.446 1 1 1h4c0.554 0 1-0.446 1-1v-2c0-0.554-0.446-1-1-1h-4zm0 5c-0.554 0-1 0.446-1 1v2c0 0.554 0.446 1 1 1h4c0.554 0 1-0.446 1-1v-2c0-0.554-0.446-1-1-1h-4zm0 5c-0.554 0-1 0.446-1 1v2c0 0.554 0.446 1 1 1h4c0.554 0 1-0.446 1-1v-2c0-0.554-0.446-1-1-1h-4z"/>
   <path id="path3743" style="fill:url(#linearGradient3861)" d="m84 6c-0.554 0-1 0.446-1 1v2c0 0.554 0.446 1 1 1h4c0.554 0 1-0.446 1-1v-2c0-0.554-0.446-1-1-1h-4zm0 5c-0.554 0-1 0.446-1 1v2c0 0.554 0.446 1 1 1h4c0.554 0 1-0.446 1-1v-2c0-0.554-0.446-1-1-1h-4zm0 5c-0.554 0-1 0.446-1 1v2c0 0.554 0.446 1 1 1h4c0.554 0 1-0.446 1-1v-2c0-0.554-0.446-1-1-1h-4zm0 5c-0.554 0-1 0.446-1 1v2c0 0.554 0.446 1 1 1h4c0.554 0 1-0.446 1-1v-2c0-0.554-0.446-1-1-1h-4zm0 5c-0.554 0-1 0.446-1 1v2c0 0.554 0.446 1 1 1h4c0.554 0 1-0.446 1-1v-2c0-0.554-0.446-1-1-1h-4zm0 5c-0.554 0-1 0.446-1 1v2c0 0.554 0.446 1 1 1h4c0.554 0 1-0.446 1-1v-2c0-0.554-0.446-1-1-1h-4zm0 5c-0.554 0-1 0.446-1 1v2c0 0.554 0.446 1 1 1h4c0.554 0 1-0.446 1-1v-2c0-0.554-0.446-1-1-1h-4zm0 5c-0.554 0-1 0.446-1 1v2c0 0.554 0.446 1 1 1h4c0.554 0 1-0.446 1-1v-2c0-0.554-0.446-1-1-1h-4zm0 5c-0.554 0-1 0.446-1 1v2c0 0.554 0.446 1 1 1h4c0.554 0 1-0.446 1-1v-2c0-0.554-0.446-1-1-1h-4zm0 5c-0.554 0-1 0.446-1 1v2c0 0.554 0.446 1 1 1h4c0.554 0 1-0.446 1-1v-2c0-0.554-0.446-1-1-1h-4zm0 5c-0.554 0-1 0.446-1 1v2c0 0.554 0.446 1 1 1h4c0.554 0 1-0.446 1-1v-2c0-0.554-0.446-1-1-1h-4zm0 5c-0.554 0-1 0.446-1 1v2c0 0.554 0.446 1 1 1h4c0.554 0 1-0.446 1-1v-2c0-0.554-0.446-1-1-1h-4zm0 5c-0.554 0-1 0.446-1 1v2c0 0.554 0.446 1 1 1h4c0.554 0 1-0.446 1-1v-2c0-0.554-0.446-1-1-1h-4zm0 5c-0.554 0-1 0.446-1 1v2c0 0.554 0.446 1 1 1h4c0.554 0 1-0.446 1-1v-2c0-0.554-0.446-1-1-1h-4zm0 5c-0.554 0-1 0.446-1 1v2c0 0.554 0.446 1 1 1h4c0.554 0 1-0.446 1-1v-2c0-0.554-0.446-1-1-1h-4zm0 5c-0.554 0-1 0.446-1 1v2c0 0.554 0.446 1 1 1h4c0.554 0 1-0.446 1-1v-2c0-0.554-0.446-1-1-1h-4zm0 5c-0.554 0-1 0.446-1 1v2c0 0.554 0.446 1 1 1h4c0.554 0 1-0.446 1-1v-2c0-0.554-0.446-1-1-1h-4z"/>
  </g>
  <rect id="rect2419" style="fill:url(#linearGradient3617)" rx="6" ry="6" height="84" width="84" y="-94" x="6"/>
  <path id="rect3728" style="opacity:.2;fill:url(#linearGradient3188)" d="m12 6c-3.324 0-6 2.676-6 6v2 68 2c0 0.33472 0.04135 0.6507 0.09375 0.96875 0.0487 0.2956 0.09704 0.59692 0.1875 0.875 0.00988 0.03038 0.020892 0.0636 0.03125 0.09375 0.098865 0.28777 0.23488 0.54745 0.375 0.8125 0.14459 0.27351 0.31562 0.53562 0.5 0.78125 0.18438 0.24564 0.37378 0.47347 0.59375 0.6875 0.43995 0.42806 0.94291 0.81453 1.5 1.0938 0.27854 0.13961 0.57347 0.24695 0.875 0.34375-0.2562-0.10022-0.48671-0.23627-0.71875-0.375-0.00741-0.0044-0.023866 0.0045-0.03125 0-0.031933-0.0193-0.062293-0.04251-0.09375-0.0625-0.1204-0.0767-0.23102-0.16351-0.34375-0.25-0.10617-0.0808-0.21328-0.16111-0.3125-0.25-0.1778-0.162-0.3473-0.346-0.4999-0.531-0.1075-0.131-0.2183-0.266-0.3124-0.407-0.0251-0.038-0.0385-0.086-0.0626-0.125-0.0647-0.103-0.1302-0.204-0.1874-0.312-0.1011-0.195-0.2057-0.416-0.2813-0.625-0.008-0.022-0.0236-0.041-0.0313-0.063-0.0318-0.092-0.0358-0.187-0.0624-0.281-0.0304-0.107-0.0704-0.203-0.0938-0.313-0.0729-0.341-0.125-0.698-0.125-1.062v-2-68-2c0-2.782 2.2182-5 5-5h2 68 2c2.7818 0 5 2.2182 5 5v2 68 2c0 0.3643-0.05212 0.72099-0.125 1.0625-0.04415 0.20689-0.08838 0.39766-0.15625 0.59375-0.0077 0.02195-0.0233 0.04069-0.03125 0.0625-0.06274 0.17374-0.13838 0.36745-0.21875 0.53125-0.04158 0.0828-0.07904 0.16995-0.125 0.25-0.0546 0.09721-0.12677 0.18835-0.1875 0.28125-0.09411 0.14096-0.20492 0.276-0.3125 0.40625-0.14317 0.17445-0.30314 0.347-0.46875 0.5-0.01117 0.0102-0.01998 0.02115-0.03125 0.03125-0.13839 0.12556-0.28509 0.23444-0.4375 0.34375-0.10257 0.07315-0.20432 0.15336-0.3125 0.21875-0.0074 0.0045-0.02384-0.0044-0.03125 0-0.23204 0.13873-0.46255 0.27478-0.71875 0.375 0.30153-0.0968 0.59646-0.20414 0.875-0.34375 0.55709-0.27922 1.0601-0.66569 1.5-1.0938 0.21997-0.21403 0.40937-0.44186 0.59375-0.6875s0.35541-0.50774 0.5-0.78125c0.14012-0.26505 0.27614-0.52473 0.375-0.8125 0.01041-0.03078 0.02133-0.06274 0.03125-0.09375 0.09046-0.27808 0.1388-0.5794 0.1875-0.875 0.053-0.318 0.094-0.634 0.094-0.969v-2-68-2c0-3.324-2.676-6-6-6h-72z"/>
  <rect id="rect3863" style="opacity:.4;fill:url(#linearGradient3869)" rx="6" ry="6" height="48" width="84" y="42" x="6"/>
  <path id="path3615" style="opacity:.2;fill:url(#radialGradient3619)" d="m12 90c-3.324 0-6-2.676-6-6v-2-68-2c0-0.33472 0.04135-0.6507 0.09375-0.96875 0.0487-0.2956 0.09704-0.59692 0.1875-0.875 0.0099-0.03 0.0209-0.063 0.0313-0.094 0.0989-0.2873 0.2349-0.547 0.375-0.812 0.1446-0.2735 0.3156-0.5356 0.5-0.7812 0.1844-0.2457 0.3738-0.4735 0.5937-0.6876 0.44-0.428 0.943-0.8145 1.5-1.0937 0.2786-0.1396 0.5735-0.2469 0.8748-0.3437-0.256 0.1002-0.4865 0.2362-0.7185 0.375-0.00741 0.0044-0.023866-0.0045-0.03125 0-0.031933 0.0193-0.062293 0.04251-0.09375 0.0625-0.1204 0.0767-0.23102 0.16351-0.34375 0.25-0.10617 0.0808-0.21328 0.16111-0.3125 0.25-0.1779 0.1614-0.3474 0.3453-0.5 0.5312-0.1075 0.1303-0.2183 0.2653-0.3124 0.4063-0.0251 0.0383-0.0385 0.0858-0.0626 0.125-0.0647 0.103-0.1302 0.2045-0.1874 0.3124-0.1011 0.1948-0.2057 0.4158-0.2813 0.625-0.008 0.0219-0.0236 0.0406-0.0313 0.0626-0.0318 0.0919-0.0358 0.1868-0.0624 0.2812-0.0304 0.1066-0.0704 0.203-0.0938 0.3125-0.0729 0.3415-0.125 0.6985-0.125 1.0625v2 68 2c0 2.7818 2.2182 5 5 5h2 68 2c2.7818 0 5-2.2182 5-5v-2-68-2c0-0.364-0.052-0.721-0.125-1.0625-0.044-0.2069-0.088-0.3977-0.156-0.5937-0.008-0.022-0.024-0.0407-0.031-0.0626-0.063-0.1737-0.139-0.3674-0.219-0.5312-0.042-0.0828-0.079-0.17-0.125-0.25-0.055-0.0972-0.127-0.1884-0.188-0.2812-0.094-0.141-0.205-0.276-0.312-0.4063-0.143-0.1745-0.303-0.347-0.469-0.5-0.011-0.0102-0.02-0.0211-0.031-0.0313-0.139-0.1255-0.285-0.2344-0.438-0.3437-0.102-0.0731-0.204-0.1534-0.312-0.2187-0.0074-0.0045-0.02384 0.0044-0.03125 0-0.23204-0.13873-0.46255-0.27478-0.71875-0.375 0.30153 0.0968 0.59646 0.20414 0.875 0.34375 0.55709 0.27922 1.0601 0.66569 1.5 1.0938 0.21997 0.21403 0.40937 0.44186 0.59375 0.6875s0.35541 0.50774 0.5 0.78125c0.14012 0.26505 0.27614 0.52473 0.375 0.8125 0.01041 0.03078 0.02133 0.06274 0.03125 0.09375 0.09046 0.27808 0.1388 0.5794 0.1875 0.875 0.053 0.318 0.094 0.634 0.094 0.969v2 68 2c0 3.324-2.676 6-6 6h-72z"/>
  <rect id="rect2880" style="fill:url(#linearGradient2882)" rx="6" ry="6" height="84" width="84" y="6" x="106"/>
  <rect id="rect3666" style="opacity:.3;fill:url(#linearGradient3674)" transform="rotate(-90)" rx="6" ry="6" height="84" width="84" y="6" x="10"/>
 </g>
 <g id="layer5" style="display:none">
  <rect id="rect3171" style="opacity:.1;filter:url(#filter3794);stroke:#fff;stroke-linecap:round;stroke-width:.5;fill:url(#linearGradient3613)" clip-path="url(#clipPath3613)" rx="12" ry="12" height="66" width="66" y="15" x="15"/>
 </g>
 <g id="layer3">
  <path id="path3798" style="opacity:0.08" d="m47.969 20.031c-6.13-0.13-11.32 5.439-10.907 11.531h-0.03125v12.562c-0.19897-0.02185-0.41554-0.09349-0.59375-0.09375-0.80461-0.0012-1.4602 0.07822-1.8438 0.03125a1.2043 1.2043 0 0 0 -0.21875 0c-1.1666 0.06995-2.6414-0.23678-4.2812 0.125a1.2043 1.2043 0 0 0 -0.218 0.094c-1.223 0.528-1.765 1.776-1.844 2.719-0.0731 0.87779 0.04773 1.628 0.03125 2.0938-0.0012 0.03475 0.0026 0.1252 0 0.15625-0.14068 0.89264 0.08097 1.7961 0.59375 2.5 0.51459 0.70639 1.4037 1.1717 2.4062 1.1562-0.0026 0.03035 0.0047-0.0013 0 0.03125a1.2043 1.2043 0 0 0 0 0.125c-0.236 4.1362 0.64588 8.4878 3.3438 11.906 0.0089 0.01179 0.02229 0.01948 0.03125 0.03125 1.9398 2.5478 4.6428 4.4452 7.625 5.5938 0.01137 0.17941-0.008 0.41347 0 0.5625-0.35115 0.03042-0.66811-0.03703-1.0312 0.09375-0.7918 0.28516-1.6225 1.0057-1.875 2.0312a1.2043 1.2043 0 0 0 -0.031 0.219c-0.0837 1.3024-0.16868 2.7247 0.03125 4.1562a1.2043 1.2043 0 0 0 0.03125 0.15625c0.2765 1.0529 1.1626 1.7225 1.9688 1.9688 0.76094 0.23244 1.4834 0.21191 2.0938 0.15625v0.03125c3.6939-0.04212 7.4772 0.08688 11.25-0.0625a1.2043 1.2043 0 0 0 0.21875 -0.0625c1.015-0.25 1.742-1.058 2.031-1.844 0.27292-0.74297 0.26245-1.4656 0.1875-2.125h0.03125c-0.01602-0.44856 0.07203-1.2126-0.03125-2.0625-0.10189-0.83842-0.60524-1.9299-1.6562-2.4375-0.0068-0.0033 0.0068-0.02802 0-0.03125-0.01105-0.0055-0.02023 0.0053-0.03125 0-0.49964-0.24122-0.945-0.29818-1.3438-0.3125-0.008-0.06249 0.0037-0.19538 0-0.25-0.0051-0.07513-0.000739-0.07406 0-0.125 6.6394-2.4638 11.401-9.173 11.031-16.344h0.03125v-1.4688c0.30035-0.02598 0.5568 0.03425 0.875-0.0625 0.80682-0.24532 1.692-0.91564 1.9688-1.9688a1.2043 1.2043 0 0 0 0.03125 -0.15625c0.19742-1.4283 0.11699-2.8817 0.03125-4.1875a1.2043 1.2043 0 0 0 -0.03125 -0.1875c-0.25-1.014-1.058-1.741-1.844-2.03-0.743-0.273-1.466-0.262-2.125-0.188v-0.03125c-1.4863 0.05468-3.1869-0.01515-4.9062 0.125-0.02136-4.7008 0.04781-9.4434-0.0625-14.188a1.2043 1.2043 0 0 0 -0.031 -0.062c-0.47064-5.4949-5.3265-9.9394-10.844-9.875-0.0209 0.000244-0.04158-0.000373-0.0625 0z"/>
  <path id="path3746" style="opacity:0.08" d="m48 20.188c-5.9466 0-10.812 4.8659-10.812 10.812v13.188c-0.02987-0.0041-0.06249 0.000001-0.0625 0-0.0023-0.00013-0.15397 0.00002-0.15625 0h-1.9688-1-2.9062-0.03125c-0.000931-0.000046-0.03035 0.000245-0.0625 0-0.04823-0.000368-0.11335 0-0.09375 0 0.02614 0-0.07964-0.000364-0.125 0-0.0233-0.000044-0.15509-0.000115-0.15625 0a1.0552 1.0552 0 0 0 -0.1875 0.0625 1.0552 1.0552 0 0 0 -0.03125 0c-0.009 0.0018-0.02154-0.0019-0.03125 0-0.03886 0.0077-0.18557 0.06191-0.1875 0.0625-0.01872 0.0093-0.03315 0.03231-0.03125 0.03125-0.06593 0.0253-0.26955 0.0828-0.21875 0.0625-0.0037 0.0015-0.18239 0.09118-0.1875 0.09375 0.10582-0.05325-0.21531 0.09163-0.21875 0.09375-0.0034 0.0021-0.35193 0.27818-0.1875 0.15625-0.03692 0.02738-0.03139 0.008-0.0625 0.03125-0.03111 0.02328-0.12349 0.12366-0.125 0.125-0.003 0.0027-0.15347 0.15333-0.15625 0.15625-0.000348 0.000366-0.08874 0.08716-0.09375 0.09375 0.000314-0.000316 0.0037 0.02761 0 0.03125-0.008 0.01072-0.05378 0.01958-0.0625 0.03125-0.02325 0.03113 0.0013 0.02967 0 0.03125-0.0057 0.0057-0.02338-0.008-0.03125 0-0.0039 0.004-0.02216 0.02159-0.03125 0.03125-0.0045 0.0048 0.01133 0.0185 0 0.03125s-0.09368 0.09365-0.09375 0.09375c-0.0022 0.0034-0.1543 0.24646-0.15625 0.25-0.0019 0.0035-0.09212 0.18381-0.09375 0.1875-0.000817 0.0018 0.01566 0.000139 0 0.03125-0.0078 0.01556-0.0243 0.01732-0.03125 0.03125-0.0035 0.007 0.0039 0.02334 0 0.03125-0.0039 0.0082-0.06242 0.12476-0.0625 0.125-0.000082 0.000239-0.02943 0.11668-0.03125 0.125-0.0018 0.0086 0.0017 0.02287 0 0.03125-0.0034 0.01676-0.02741 0.04307-0.03125 0.0625-0.0077 0.03886 0.00049 0.02929 0 0.03125-0.000979 0.0039-0.03061 0.24602-0.03125 0.25-0.000319 0.002-0.0234-0.0076-0.03125 0.03125-0.0039 0.01942 0.0033 0.04587 0 0.0625-0.0016 0.0084-0.03121 0.15575-0.03125 0.15625-0.000147 0.002-0.000031 0.09375 0 0.125s-0.0014-0.04969 0 0.0625v3c0.00002 0.0023-0.00013 0.15397 0 0.15625 0.000001 0.000015 0.02663 0.02862 0.03125 0.0625-0.000038 0.0079 0.000004 0.02177 0 0.03125-0.000014 0.0064 0.000051 0.0196 0 0.03125 0.0013 0.0098-0.000003 0.03124 0 0.03125-0.000004 0.006-0.000076 0.02232 0 0.03125 0.000038 0.0045-0.000285 0.01982 0 0.03125 0.0026 0.0097-0.0015 0.02597 0 0.03125 0.000341 0.0067 0.02712 0.03067 0.03125 0.0625 0.0056 0.04341-0.000008 0.09371 0 0.09375 0.000057 0.000279 0.02928 0.119 0.03125 0.125 0.0035 0.01044-0.0039 0.01962 0 0.03125 0.01011 0.03097 0.05646 0.11062 0.0625 0.125 0.0073 0.01738-0.003 0.0247 0 0.03125 0.000855 0.0026 0.03037-0.0026 0.03125 0 0.0017 0.0035-0.0012 0.02887 0 0.03125 0.0049 0.0098-0.004 0.02346 0 0.03125 0.0029 0.0085-0.00015 0.03084 0 0.03125 0.000097 0.000268 0.05956 0.08776 0.0625 0.09375 0.0018 0.0053-0.0021 0.02514 0 0.03125 0.0012 0.0033 0.0205 0.03651 0.03125 0.0625 0.0013 0.0038-0.0045 0.01926 0 0.03125 0.0053 0.01287 0.03123 0.03121 0.03125 0.03125 0.0049 0.01079-0.0055 0.0192 0 0.03125 0.002 0.0056 0.02509 0.0156 0.03125 0.03125 0.0068 0.01348-0.000324 0.03065 0 0.03125 0.0034 0.0081-0.000016 0.03121 0 0.03125 0.000032 0.000073 0.06248 0.09372 0.0625 0.09375 0.000005 0.000009 0.02187 0.01786 0.03125 0.03125 0.0039 0.0078 0.02668 0.0221 0.03125 0.03125 0.01802 0.02571 0.03123 0.06247 0.03125 0.0625 0.000047 0.000058 0.0248 0.02393 0.03125 0.03125 0.01997 0.03045 0.03122 0.06247 0.03125 0.0625 0.01095 0.01395 0.02836 0.02806 0.03125 0.03125 0.01223 0.01452 0.01835 0.01605 0.03125 0.03125s0.02923 0.02915 0.03125 0.03125c0.0061 0.0063-0.0026 0.02866 0 0.03125 0.0076 0.0075 0.02345 0.0235 0.03125 0.03125 0.02529 0.02723 0.05378 0.05381 0.0625 0.0625 0.0015 0.0017 0.1162 0.1162 0.09375 0.09375s0.09206 0.09222 0.09375 0.09375c0.0087 0.0087 0.03526 0.03721 0.0625 0.0625 0.0077 0.0078 0.0237 0.0237 0.03125 0.03125 0.0026 0.0026 0.02495-0.0061 0.03125 0 0.0021 0.002 0.01605 0.01835 0.03125 0.03125s0.01673 0.01902 0.03125 0.03125 0.03121 0.03122 0.03125 0.03125c0.0037 0.0036 0.02099 0.02161 0.03125 0.03125 0.0107 0.0071 0.01983-0.0075 0.03125 0 0.0073 0.0064 0.03119 0.0312 0.03125 0.03125 0.01358 0.0077 0.02594 0.0284 0.03125 0.03125 0.0077 0.0054 0.0219-0.0066 0.03125 0 0.0092 0.0046 0.02341 0.02738 0.03125 0.03125 0.01339 0.0094 0.03124 0.03124 0.03125 0.03125 0.000031 0.000018 0.09368 0.06247 0.09375 0.0625 0.000073 0.000032 0.05467-0.0031 0.0625 0 0.03146 0.01584 0.06106 0.03056 0.0625 0.03125 0.01619 0.0074 0.02765 0.02989 0.03125 0.03125 0.01199 0.0045 0.0275-0.0013 0.03125 0 0.02599 0.01075 0.05917 0.03009 0.0625 0.03125 0.0061 0.0021 0.026-0.0018 0.03125 0 0.0105 0.0035 0.0196 0.0274 0.03125 0.03125 0.03113 0.01328 0.06234 0.03119 0.0625 0.03125 0.0031 0.0016 0.02736-0.002 0.03125 0 0.01707 0.0057 0.03614-0.0088 0.0625 0 0.0035 0.0017-0.0066 0.02824 0 0.03125 0.02559 0.0085 0.06166-0.000259 0.0625 0 0.03195 0.01113 0.06923 0.05449 0.09375 0.0625 0.01163 0.0039 0.02081-0.0035 0.03125 0 0.006 0.002 0.12472 0.03119 0.125 0.03125 0.00004 0.000008 0.05034-0.0056 0.09375 0 0.03183 0.0041 0.0558 0.03091 0.0625 0.03125 0.0053 0.0015 0.02152-0.0026 0.03125 0 0.01143 0.000285 0.02679-0.000038 0.03125 0 0.01138 0.002 0.03126 0.000001 0.03125 0 0.000045 0.00001 0.04755-0.0063 0.09375 0 0.03388 0.0046 0.06248 0.03125 0.0625 0.03125 0.0023 0.00013 0.15397-0.00002 0.15625 0h0.1875v2.1875c0 7.1225 4.688 13.057 11 15.469v0.71875h-0.1875c-0.0023 0.00002-0.15397-0.00013-0.15625 0-0.000015 0.000001-0.02862 0.02663-0.0625 0.03125-0.0462 0.0063-0.0937-0.00001-0.09375 0-0.000039 0.000008-0.02105-0.0024-0.03125 0s-0.02638-0.0013-0.03125 0c-0.0057 0.000142-0.01541-0.000807-0.03125 0-0.0067 0.000341-0.03067 0.02712-0.0625 0.03125-0.04341 0.0056-0.09371-0.000008-0.09375 0-0.000279 0.000057-0.119 0.02928-0.125 0.03125 0.0011-0.000283-0.05451 0.0078-0.03125 0-0.03097 0.01011-0.11062 0.05646-0.125 0.0625-0.01738 0.0073-0.0247-0.003-0.03125 0-0.01311 0.006-0.02649 0.02894-0.03125 0.03125-0.02559 0.0086-0.06168-0.000299-0.0625 0-0.000165 0.00006-0.03137 0.01797-0.0625 0.03125-0.01165 0.0039-0.02074 0.02775-0.03125 0.03125-0.0053 0.0018-0.02514-0.0021-0.03125 0-0.0033 0.0012-0.03651 0.0205-0.0625 0.03125-0.0038 0.0013-0.01926-0.0045-0.03125 0s-0.12506 0.06253-0.125 0.0625c-0.0081 0.0034-0.03121-0.000016-0.03125 0-0.000073 0.000032-0.09372 0.06248-0.09375 0.0625-0.000017 0.00001-0.02977 0.03956-0.0625 0.0625-0.02571 0.01802-0.06247 0.03123-0.0625 0.03125-0.01358 0.0077-0.09369 0.06246-0.09375 0.0625-0.01395 0.01095-0.02806 0.02836-0.03125 0.03125-0.0077 0.0078-0.02763 0.02761-0.03125 0.03125-0.0152 0.0129-0.02915 0.02923-0.03125 0.03125-0.0063 0.0061-0.02866-0.0026-0.03125 0-0.0075 0.0076-0.0235 0.02345-0.03125 0.03125-0.02723 0.02529-0.05381 0.05378-0.0625 0.0625-0.0017 0.0015-0.1162 0.1162-0.09375 0.09375s-0.09222 0.09206-0.09375 0.09375c-0.0087 0.0087-0.03721 0.03526-0.0625 0.0625-0.0078 0.0077-0.0237 0.0237-0.03125 0.03125-0.0038 0.0041 0.000116 0.03111 0 0.03125-0.002 0.0021-0.01835 0.01605-0.03125 0.03125-0.0036 0.0036-0.02343 0.02352-0.03125 0.03125-0.0078 0.0077-0.02259 0.02261-0.03125 0.03125-0.0036 0.0037-0.02161 0.02099-0.03125 0.03125-0.0048 0.0051 0.0129 0.0166 0 0.03125-0.01248 0.01903-0.02827 0.02603-0.03125 0.03125-0.0077 0.01358-0.0284 0.02594-0.03125 0.03125-0.0057 0.01063 0.0021 0.02719 0 0.03125-0.0046 0.0092-0.02738 0.02341-0.03125 0.03125-0.0094 0.01339-0.03124 0.03124-0.03125 0.03125-0.000018 0.00003-0.06247 0.09368-0.0625 0.09375-0.000032 0.000073 0.0031 0.05467 0 0.0625-0.0091 0.01798-0.02221 0.01327-0.03125 0.03125-0.003 0.0088 0.002 0.02533 0 0.03125-0.0039 0.01184-0.02742 0.01959-0.03125 0.03125-0.0038 0.01166 0.0021 0.02483 0 0.03125-0.01075 0.02599-0.03009 0.05917-0.03125 0.0625 0.0079-0.0156-0.00044 0.0323 0 0.03125-0.0035 0.0105-0.0274 0.0196-0.03125 0.03125-0.01328 0.03113-0.03119 0.06234-0.03125 0.0625-0.0016 0.0031 0.002 0.02736 0 0.03125-0.004 0.0078 0.0049 0.02145 0 0.03125-0.0051 0.01535-0.02612 0.0159-0.03125 0.03125-0.003 0.0066 0.0073 0.01387 0 0.03125-0.0028 0.0085 0.000129 0.03083 0 0.03125-0.01113 0.03195-0.05449 0.06923-0.0625 0.09375 0.0078-0.02326-0.000283 0.03235 0 0.03125-0.002 0.006-0.03119 0.12472-0.03125 0.125-0.000008 0.00004 0.0056 0.05034 0 0.09375-0.0041 0.03183-0.03091 0.0558-0.03125 0.0625-0.000807 0.01584 0.000142 0.02554 0 0.03125-0.000285 0.01143 0.000038 0.02679 0 0.03125-0.000076 0.0089-0.000004 0.0253 0 0.03125 0.000008 0.0119-0.000051 0.0196 0 0.03125-0.000128 0.0074 0.000005 0.03019 0 0.03125 0.000004 0.0095-0.000038 0.0234 0 0.03125-0.0046 0.03388-0.03125 0.06248-0.03125 0.0625-0.00013 0.0023 0.00002 0.15397 0 0.15625v3c0.00002 0.0023-0.00013 0.15397 0 0.15625 0.000001 0.000015 0.02663 0.02862 0.03125 0.0625 0.0016 0.02879 0.000045 0.09418 0 0.09375-0.000004 0.006-0.000076 0.02232 0 0.03125 0.000038 0.0045-0.000285 0.01982 0 0.03125 0.0026 0.0097-0.0015 0.02597 0 0.03125 0.000341 0.0067 0.02712 0.03067 0.03125 0.0625 0.0056 0.04341-0.000008 0.09371 0 0.09375 0.000057 0.000279 0.02928 0.119 0.03125 0.125 0.0035 0.01044-0.0039 0.01962 0 0.03125 0.01011 0.03097 0.05646 0.11062 0.0625 0.125 0.0073 0.01738-0.003 0.0247 0 0.03125 0.000855 0.0026 0.03037-0.0026 0.03125 0 0.0017 0.0035-0.0012 0.02887 0 0.03125 0.0049 0.0098-0.004 0.02346 0 0.03125 0.0029 0.0085-0.00015 0.03084 0 0.03125 0.00006 0.000165 0.01797 0.03137 0.03125 0.0625 0.0039 0.01165 0.02775 0.02075 0.03125 0.03125 0.004 0.008-0.0039 0.02345 0 0.03125 0.0012 0.0033 0.0205 0.03651 0.03125 0.0625 0.0021 0.0064-0.0038 0.01959 0 0.03125s0.02731 0.01941 0.03125 0.03125c0.002 0.0059-0.003 0.02246 0 0.03125 0.002 0.0056 0.02509 0.0156 0.03125 0.03125 0.0068 0.01348-0.000324 0.03065 0 0.03125 0.0034 0.0081-0.000016 0.03121 0 0.03125 0.000032 0.000073 0.06248 0.09372 0.0625 0.09375 0.000005 0.000009 0.02187 0.01786 0.03125 0.03125 0.0039 0.0078 0.02668 0.0221 0.03125 0.03125 0.01802 0.02571 0.03123 0.06248 0.03125 0.0625 0.000047 0.000058 0.0248 0.02393 0.03125 0.03125 0.0075 0.01142-0.0071 0.02055 0 0.03125 0.0096 0.01026 0.02761 0.02753 0.03125 0.03125 0.0087 0.0086 0.02343 0.02352 0.03125 0.03125 0.01223 0.01452 0.01835 0.01605 0.03125 0.03125s0.02923 0.02915 0.03125 0.03125c0.0061 0.0063-0.0026 0.02866 0 0.03125 0.0076 0.0075 0.02345 0.0235 0.03125 0.03125 0.02529 0.02724 0.05378 0.05381 0.0625 0.0625 0.0015 0.0017 0.1162 0.1162 0.09375 0.09375s0.09206 0.09222 0.09375 0.09375c0.0087 0.0087 0.03527 0.03721 0.0625 0.0625 0.0077 0.0078 0.0237 0.0237 0.03125 0.03125 0.0026 0.0026 0.02495-0.0061 0.03125 0 0.0021 0.002 0.01605 0.01835 0.03125 0.03125s0.01673 0.01902 0.03125 0.03125 0.03121 0.03122 0.03125 0.03125c0.0037 0.0036 0.02099 0.02161 0.03125 0.03125 0.0107 0.0071 0.01983-0.0075 0.03125 0 0.0073 0.0064 0.03119 0.0312 0.03125 0.03125 0.01358 0.0077 0.02594 0.0284 0.03125 0.03125 0.0077 0.0054 0.0219-0.0066 0.03125 0 0.0092 0.0046 0.02341 0.02738 0.03125 0.03125 0.01339 0.0094 0.03124 0.03124 0.03125 0.03125 0.000031 0.000018 0.09368 0.06247 0.09375 0.0625 0.000073 0.000032 0.05467-0.0031 0.0625 0 0.03146 0.01584 0.06106 0.03056 0.0625 0.03125 0.01619 0.0074 0.02765 0.02989 0.03125 0.03125 0.01199 0.0045 0.0275-0.0013 0.03125 0 0.02599 0.01075 0.05917 0.03009 0.0625 0.03125 0.0061 0.0021 0.026-0.0018 0.03125 0 0.01051 0.0035 0.0196 0.0274 0.03125 0.03125 0.03113 0.01328 0.06233 0.03119 0.0625 0.03125 0.0021 0.001 0.02663-0.0022 0.03125 0 0.01707 0.0057 0.03614-0.0088 0.0625 0 0.0035 0.0017-0.0066 0.02824 0 0.03125 0.02559 0.0085 0.06166-0.000259 0.0625 0 0.03195 0.01113 0.06923 0.05449 0.09375 0.0625 0.01163 0.0039 0.02081-0.0035 0.03125 0 0.006 0.002 0.12472 0.03119 0.125 0.03125 0.00004 0.000008 0.05034-0.0056 0.09375 0 0.03183 0.0041 0.0558 0.03091 0.0625 0.03125 0.0053 0.0015 0.02152-0.0026 0.03125 0 0.01575 0.0027 0.01987-0.002 0.03125 0s0.03126 0.000001 0.03125 0c0.000045 0.00001 0.04755-0.0063 0.09375 0 0.03388 0.0046 0.06249 0.03125 0.0625 0.03125 0.0023 0.00013 0.15397-0.00002 0.15625 0h12c0.0023-0.00002 0.15397 0.00013 0.15625 0 0.000015-0.000001 0.02862-0.02663 0.0625-0.03125 0.0462-0.0063 0.0937 0.00001 0.09375 0 0.01196-0.001 0.01609 0.0014 0.03125 0 0.02275-0.0039 0.03625 0.0045 0.0625 0 0.0067-0.000341 0.03067-0.02712 0.0625-0.03125 0.04341-0.0056 0.09371 0.000008 0.09375 0 0.000279-0.000057 0.119-0.02928 0.125-0.03125 0.000057-0.000015 0.08464-0.04844 0.125-0.0625-0.000136 0.000042 0.11576-0.0269 0.125-0.03125 0.0046-0.0022 0.02914 0.001 0.03125 0 0.000268-0.000097 0.08776-0.05956 0.09375-0.0625 0.0053-0.0018 0.02514 0.0021 0.03125 0 0.0067-0.0023 0.12487-0.06244 0.125-0.0625 0.000617-0.000295 0.01776 0.0068 0.03125 0 0.0056-0.002 0.0156-0.02509 0.03125-0.03125 0.01348-0.0068 0.03065 0.000324 0.03125 0 0.0081-0.0034 0.03121 0.000016 0.03125 0 0.000073-0.000032 0.09372-0.06248 0.09375-0.0625 0.000009-0.000005 0.01786-0.02187 0.03125-0.03125 0.0285-0.01668 0.09394-0.06263 0.09375-0.0625 0.000058-0.000047 0.02393-0.0248 0.03125-0.03125 0.03224-0.02487 0.08554-0.05506 0.09375-0.0625 0.0114-0.01033-0.0036-0.02778 0-0.03125 0.02488-0.02101 0.05935-0.02822 0.0625-0.03125 0.00088-0.000724 0.10949-0.07818 0.125-0.09375 0.0017-0.0015 0.1162-0.1162 0.09375-0.09375s0.09222-0.09206 0.09375-0.09375c0.01557-0.01551 0.09303-0.12412 0.09375-0.125 0.002-0.0021 0.01835-0.01605 0.03125-0.03125 0.0013-0.0014-0.0069-0.02398 0-0.03125 0.007-0.0083 0.02513 0.0073 0.03125 0 0.0074-0.0082 0.03763-0.06151 0.0625-0.09375 0.0064-0.0073 0.0312-0.03119 0.03125-0.03125-0.000127 0.000189 0.04582-0.06525 0.0625-0.09375 0.0094-0.01339 0.03124-0.03124 0.03125-0.03125 0.000018-0.00003 0.06247-0.09368 0.0625-0.09375 0.000032-0.000073-0.0031-0.05467 0-0.0625 0.0062-0.01565 0.02921-0.02563 0.03125-0.03125 0.0068-0.01349-0.000295-0.03063 0-0.03125 0.000061-0.000129 0.06017-0.11835 0.0625-0.125-0.0079 0.0156 0.00044-0.0323 0-0.03125 0.0029-0.006 0.0624-0.09348 0.0625-0.09375 0.0016-0.0031-0.002-0.02736 0-0.03125 0.004-0.0078-0.0049-0.02145 0-0.03125 0.01534-0.03927 0.03128-0.09385 0.03125-0.09375 0.01406-0.04036 0.06249-0.12494 0.0625-0.125 0.002-0.006 0.03119-0.12472 0.03125-0.125 0.000008-0.00004-0.0056-0.05034 0-0.09375 0.0041-0.03183 0.03091-0.0558 0.03125-0.0625 0.0023-0.01312-0.0027-0.0155 0-0.03125 0.0013-0.0049-0.0024-0.02105 0-0.03125 0.0028-0.03032-0.000145-0.05716 0-0.0625 0.0011-0.01991-0.0011-0.04331 0-0.0625 0.0046-0.03388 0.03125-0.06248 0.03125-0.0625 0.00013-0.0023-0.00002-0.15397 0-0.15625v-3c-0.00002-0.0023 0.00013-0.15397 0-0.15625-0.000001-0.000015-0.02663-0.02862-0.03125-0.0625 0.000038-0.0079-0.000004-0.02177 0-0.03125-0.000043-0.0043 0.000309-0.01991 0-0.03125-0.000145-0.0053 0.0028-0.03218 0-0.0625-0.002-0.01138 0.0027-0.0155 0-0.03125-0.0026-0.0097 0.0015-0.02597 0-0.03125-0.000341-0.0067-0.02712-0.03067-0.03125-0.0625-0.0056-0.04341 0.000008-0.09371 0-0.09375-0.000057-0.000279-0.02928-0.119-0.03125-0.125-0.000015-0.000057-0.04844-0.08464-0.0625-0.125 0.000032 0.000104-0.01591-0.05448-0.03125-0.09375-0.0049-0.0098 0.004-0.02346 0-0.03125-0.0022-0.0046 0.001-0.02914 0-0.03125-0.000097-0.000268-0.05956-0.08776-0.0625-0.09375 0.00044 0.0011-0.0079-0.04685 0-0.03125-0.0023-0.0067-0.06244-0.12487-0.0625-0.125-0.000295-0.000617 0.0068-0.01776 0-0.03125-0.002-0.0056-0.02509-0.0156-0.03125-0.03125-0.0031-0.0078 0.000032-0.06243 0-0.0625-0.000032-0.000073-0.06248-0.09372-0.0625-0.09375-0.000002-0.000004-0.02914 0.003-0.03125 0-0.0014-0.0028-0.06266-0.12524-0.0625-0.125-0.000047-0.000058-0.0248-0.02393-0.03125-0.03125-0.02487-0.03224-0.05506-0.08554-0.0625-0.09375-0.02446-0.02903-0.05846-0.0583-0.0625-0.0625-0.000116-0.000141 0.0038-0.02713 0-0.03125-0.0076-0.0075-0.02345-0.0235-0.03125-0.03125-0.02529-0.02724-0.05378-0.05381-0.0625-0.0625-0.0015-0.0017-0.1162-0.1162-0.09375-0.09375s-0.09206-0.09222-0.09375-0.09375c-0.0087-0.0087-0.03527-0.03721-0.0625-0.0625 0.01549 0.01559-0.06338-0.03197-0.0625-0.03125-0.0031-0.003-0.03762-0.01024-0.0625-0.03125-0.0036-0.0035 0.0114-0.02092 0-0.03125-0.0032-0.0029-0.0173-0.0203-0.03125-0.03125-0.0037-0.0036-0.02099-0.02161-0.03125-0.03125-0.0089-0.0069-0.02408 0.0055-0.03125 0-0.0073-0.0064-0.03119-0.0312-0.03125-0.03125-0.000016-0.000013-0.01786-0.02186-0.03125-0.03125-0.01063-0.0057-0.02719 0.0021-0.03125 0-0.02675-0.01574-0.06108-0.03053-0.0625-0.03125-0.003-0.0021 0.000004-0.03125 0-0.03125-0.000031-0.000018-0.09368-0.06247-0.09375-0.0625-0.000036-0.000016-0.02319 0.0034-0.03125 0-0.000602-0.000324-0.01777 0.0068-0.03125 0-0.01565-0.0062-0.02563-0.02921-0.03125-0.03125-0.01349-0.0068-0.03063 0.000295-0.03125 0-0.000064-0.000031-0.03651-0.0205-0.0625-0.03125s-0.05917-0.03009-0.0625-0.03125c0.01561 0.0079-0.0323-0.00044-0.03125 0 0.0011 0.00044-0.05455-0.03896-0.03125-0.03125-0.03113-0.01328-0.06233-0.03119-0.0625-0.03125-0.0013-0.000479-0.05281-0.01758-0.09375-0.03125-0.03089-0.01186-0.06256-0.00002-0.0625 0-0.03195-0.01113-0.06923-0.05449-0.09375-0.0625 0.02326 0.0078-0.03235-0.000283-0.03125 0-0.006-0.002-0.12472-0.03119-0.125-0.03125-0.00004-0.000008-0.05034 0.0056-0.09375 0-0.03183-0.0041-0.0558-0.03091-0.0625-0.03125-0.0053-0.0015-0.02152 0.0026-0.03125 0-0.01575-0.0027-0.01987 0.002-0.03125 0-0.01374-0.0014-0.02026 0.001-0.03125 0 0.000425 0.000045-0.06496 0.0016-0.09375 0-0.03388-0.0046-0.06249-0.03125-0.0625-0.03125-0.0023-0.00013-0.15397 0.00002-0.15625 0h-0.1875v-0.71875c6.312-2.4118 11-8.3462 11-15.469v-2.1875h0.1875c0.0023-0.00002 0.15397 0.00013 0.15625 0 0.000015-0.000001 0.02862-0.02663 0.0625-0.03125 0.01919-0.0011 0.04259 0.0011 0.0625 0 0.0053-0.000145 0.03218 0.0028 0.0625 0 0.02275-0.0039 0.03625 0.0045 0.0625 0 0.0067-0.000341 0.03067-0.02712 0.0625-0.03125 0.04341-0.0056 0.09371 0.000008 0.09375 0 0.000279-0.000057 0.119-0.02928 0.125-0.03125 0.000057-0.000015 0.08464-0.04844 0.125-0.0625-0.000072 0.000022 0.02746-0.01777 0.0625-0.03125 0.0035-0.0017 0.02887 0.0012 0.03125 0 0.0098-0.0049 0.02346 0.004 0.03125 0 0.0039-0.002 0.02812 0.0016 0.03125 0 0.000268-0.000097 0.08776-0.05956 0.09375-0.0625-0.0011 0.00044 0.04685-0.0079 0.03125 0 0.0033-0.0012 0.03651-0.0205 0.0625-0.03125s0.06244-0.03122 0.0625-0.03125c0.000617-0.000295 0.01776 0.0068 0.03125 0 0.0056-0.002 0.0156-0.02509 0.03125-0.03125 0.0078-0.0031 0.06243 0.000032 0.0625 0 0.000073-0.000032 0.09372-0.06248 0.09375-0.0625 0.000009-0.000005 0.01786-0.02187 0.03125-0.03125 0.01069-0.0063 0.0152-0.02181 0.03125-0.03125 0.02571-0.01802 0.06248-0.03123 0.0625-0.03125 0.0052-0.003 0.01222-0.01877 0.03125-0.03125 0.01465-0.0129 0.02612 0.0048 0.03125 0 0.01564-0.01211 0.0173-0.0203 0.03125-0.03125 0.0086-0.0087 0.02352-0.02343 0.03125-0.03125 0.0114-0.01033-0.0036-0.02778 0-0.03125 0.02488-0.02101 0.05935-0.02822 0.0625-0.03125 0.0063-0.0061 0.02866 0.0026 0.03125 0 0.02164-0.01997 0.08072-0.08067 0.09375-0.09375 0.0017-0.0015 0.1162-0.1162 0.09375-0.09375s0.09222-0.09206 0.09375-0.09375c0.0087-0.0087 0.03721-0.03527 0.0625-0.0625-0.0094 0.0093 0.01673-0.01471 0.03125-0.03125 0.0026-0.0026-0.0061-0.02495 0-0.03125 0.002-0.0021 0.01835-0.01605 0.03125-0.03125 0.0013-0.0014-0.0069-0.02398 0-0.03125 0.0035-0.0036 0.02092 0.0114 0.03125 0 0.0074-0.0082 0.03763-0.06151 0.0625-0.09375 0.0064-0.0073 0.0312-0.03119 0.03125-0.03125-0.000127 0.000189 0.04582-0.06525 0.0625-0.09375 0.0094-0.01339 0.03124-0.03124 0.03125-0.03125 0.000018-0.000031 0.06247-0.09368 0.0625-0.09375 0.000032-0.000073-0.0031-0.05467 0-0.0625 0.0062-0.01565 0.02921-0.02563 0.03125-0.03125 0.0068-0.01349-0.000295-0.03063 0-0.03125 0.000061-0.000129 0.06017-0.11835 0.0625-0.125-0.0079 0.01561 0.00044-0.0323 0-0.03125 0.0029-0.006 0.0624-0.09348 0.0625-0.09375 0.0016-0.0031-0.002-0.02736 0-0.03125 0.004-0.0078-0.0049-0.02145 0-0.03125 0.01534-0.03927 0.03128-0.09385 0.03125-0.09375 0.01406-0.04036 0.06248-0.12494 0.0625-0.125 0.002-0.006 0.03119-0.12472 0.03125-0.125 0.000008-0.00004-0.0056-0.05034 0-0.09375 0.0041-0.03183 0.03091-0.0558 0.03125-0.0625 0.0023-0.01312-0.0027-0.0155 0-0.03125 0.000285-0.01143-0.000038-0.02679 0-0.03125 0.0028-0.03032-0.000145-0.05716 0-0.0625 0.0011-0.01991-0.0011-0.04331 0-0.0625 0.0046-0.03388 0.03125-0.06249 0.03125-0.0625 0.00013-0.0023-0.00002-0.15397 0-0.15625v-3c-0.00002-0.0023 0.00013-0.15397 0-0.15625-0.000001-0.000015-0.02663-0.02862-0.03125-0.0625 0.000038-0.0079-0.000004-0.02177 0-0.03125-0.000729-0.0132 0.000541-0.0213 0-0.03125 0.000051-0.01165-0.000008-0.01935 0-0.03125 0.000004-0.006 0.000076-0.02232 0-0.03125-0.002-0.01138 0.0027-0.0155 0-0.03125-0.000142-0.0057 0.000807-0.01541 0-0.03125-0.000341-0.0067-0.02712-0.03067-0.03125-0.0625-0.0056-0.04341 0.000008-0.09371 0-0.09375-0.000057-0.000279-0.02928-0.119-0.03125-0.125-0.000015-0.000057-0.04844-0.08464-0.0625-0.125 0.00001 0.000032 0.0042-0.02034 0-0.03125-0.0073-0.01738 0.003-0.0247 0-0.03125-0.006-0.01311-0.02894-0.02649-0.03125-0.03125-0.0049-0.0098 0.004-0.02346 0-0.03125-0.0022-0.0046 0.001-0.02914 0-0.03125-0.00006-0.000165-0.01797-0.03137-0.03125-0.0625 0.0077 0.0233-0.03169-0.0323-0.03125-0.03125-0.0018-0.0053 0.0021-0.02514 0-0.03125-0.0016-0.0047-0.01879-0.06372-0.03125-0.09375-0.0014-0.0036-0.02388-0.01506-0.03125-0.03125-0.000295-0.000617 0.0068-0.01776 0-0.03125-0.002-0.0056-0.02509-0.0156-0.03125-0.03125-0.0031-0.0078 0.000032-0.06243 0-0.0625-0.000032-0.000073-0.06248-0.09372-0.0625-0.09375-0.000002-0.000004-0.02914 0.003-0.03125 0-0.000287-0.000566 0.0042-0.02412 0-0.03125-0.0039-0.0078-0.02668-0.0221-0.03125-0.03125-0.0021-0.0041 0.0057-0.02062 0-0.03125-0.0028-0.0053-0.0235-0.01767-0.03125-0.03125-0.000047-0.000058-0.0248-0.02393-0.03125-0.03125-0.0055-0.0072 0.0069-0.02231 0-0.03125-0.0096-0.01026-0.0276-0.02753-0.03125-0.03125-0.000043-0.000057-0.04149-0.0064-0.0625-0.03125-0.0069-0.0073 0.0013-0.02988 0-0.03125-0.0129-0.0152-0.02923-0.02915-0.03125-0.03125-0.0061-0.0063 0.0026-0.02866 0-0.03125-0.0076-0.0075-0.02345-0.0235-0.03125-0.03125-0.02529-0.02723-0.05378-0.05381-0.0625-0.0625-0.0015-0.0017-0.1162-0.1162-0.09375-0.09375s-0.09206-0.09222-0.09375-0.09375c-0.0087-0.0087-0.03526-0.03721-0.0625-0.0625 0.01549 0.01559-0.06338-0.03197-0.0625-0.03125-0.0031-0.003-0.03762-0.01024-0.0625-0.03125-0.0036-0.0035 0.0114-0.02092 0-0.03125-0.0077-0.0078-0.02261-0.02259-0.03125-0.03125-0.000022-0.000016-0.01342-0.01945-0.03125-0.03125-0.0089-0.0069-0.02408 0.0055-0.03125 0-0.0073-0.0064-0.03119-0.0312-0.03125-0.03125-0.000025-0.000021-0.03679-0.01323-0.0625-0.03125-0.0092-0.0046-0.02341-0.02738-0.03125-0.03125-0.0071-0.0042-0.03068 0.000287-0.03125 0-0.003-0.0021 0.000004-0.03125 0-0.03125-0.00003-0.000018-0.09368-0.06247-0.09375-0.0625-0.000036-0.000016-0.02319 0.0034-0.03125 0-0.000602-0.000324-0.01777 0.0068-0.03125 0-0.01565-0.0062-0.02563-0.02921-0.03125-0.03125-0.01349-0.0068-0.03063 0.000295-0.03125 0-0.000064-0.000031-0.03651-0.0205-0.0625-0.03125s-0.05917-0.03009-0.0625-0.03125c-0.0078-0.0039-0.02322 0.004-0.03125 0-0.006-0.0029-0.09348-0.0624-0.09375-0.0625-0.0013-0.000479-0.05281-0.01758-0.09375-0.03125-0.03089-0.01186-0.06256-0.00002-0.0625 0-0.03195-0.01113-0.06923-0.05449-0.09375-0.0625 0.02326 0.0078-0.03235-0.000283-0.03125 0-0.006-0.002-0.12472-0.03119-0.125-0.03125-0.00004-0.000008-0.05034 0.0056-0.09375 0-0.03183-0.0041-0.0558-0.03091-0.0625-0.03125-0.0053-0.0015-0.02152 0.0026-0.03125 0-0.01575-0.0027-0.01987 0.002-0.03125 0-0.03032-0.0028-0.05716 0.000145-0.0625 0-0.01961-0.0027-0.0317 0.0042-0.0625 0-0.03388-0.0046-0.06248-0.03125-0.0625-0.03125-0.0023-0.00013-0.15397 0.00002-0.15625 0h-3-1-1.9688c-0.0023 0.00002-0.15397-0.00013-0.15625 0-0.000014 0.000001-0.03263-0.0041-0.0625 0v-13.187c0-5.947-4.865-10.812-10.812-10.812z"/>
  <path id="path3742" style="opacity:.15" d="m48 21.25c-5.4189-0.14944-10.168 4.9078-9.75 10.299v14.295c-0.97105-1.0259-2.5441-0.44006-3.7992-0.59375-1.362 0.08166-2.783-0.16711-4.1071 0.125-1.5814 0.68268-0.97963 2.6126-1.0938 3.959-0.24427 1.1836 0.60718 2.5129 1.8873 2.416 1.1681-0.3395 1.2533 0.40383 1.1127 1.373-0.2241 3.9278 0.6483 7.9984 3.136 11.131 1.9724 2.6049 4.7576 4.5797 7.864 5.5901-0.09618 0.75167 0.18966 1.8854-0.1373 2.4062-1.0873-0.14054-2.4946 0.0711-2.8002 1.3125-0.08273 1.2873-0.1468 2.6626 0.03125 3.9375 0.33293 1.2678 1.8055 1.3597 2.8919 1.25 3.7304-0.04254 7.4884 0.08453 11.202-0.0625 1.2341-0.30401 1.4551-1.7018 1.3125-2.7859-0.0425-1.1904 0.33374-2.8498-1-3.4641-0.61939-0.30722-1.3299-0.14837-2-0.1875 0.16969-0.78377-0.35686-2.0675 0.29431-2.5055 6.4041-2.1218 11.084-8.6409 10.706-15.431v-2.5635c1.0895 0.10846 2.5714 0.02423 2.9062-1.25 0.17623-1.275 0.11577-2.6501 0.03125-3.9375-0.304-1.234-1.701-1.455-2.785-1.312-1.784 0.066-3.616-0.128-5.371 0.094-0.828 0.541-0.868 0.419-0.781-0.599-0.031-4.913 0.064-9.83-0.05-14.74-0.416-4.852-4.826-8.842-9.7-8.755z"/>
  <path id="path3738" style="opacity:.25" d="m48 22.062c-4.9395 0-8.9375 3.998-8.9375 8.9375v24c0 4.9395 3.998 8.9375 8.9375 8.9375s8.9375-3.998 8.9375-8.9375v-24c0-4.9395-3.998-8.9375-8.9375-8.9375zm-17.188 24a0.94565 0.94565 0 0 0 -0.75 0.938v3a0.94565 0.94565 0 0 0 0.938 0.938h2.0625v4.0625c0 6.7906 4.7258 12.504 11 14.281v3.7812h-2.0625a0.94565 0.94565 0 0 0 -0.938 0.938v3a0.94565 0.94565 0 0 0 0.938 0.938h12a0.94565 0.94565 0 0 0 0.938 -0.938v-3a0.94565 0.94565 0 0 0 -0.938 -0.938h-2.0625v-3.7812c6.2742-1.7775 11-7.4907 11-14.281v-4.0625h2.0625a0.94565 0.94565 0 0 0 0.938 -0.938v-3a0.94565 0.94565 0 0 0 -0.938 -0.938h-3-1-1.9688a0.94565 0.94565 0 0 0 -0.937 0.938v8c0 5.545-4.549 10.094-10.094 10.094s-10.094-4.549-10.094-10.094v-8a0.94565 0.94565 0 0 0 -0.9375 -0.9375h-1.9688-1-3a0.94565 0.94565 0 0 0 -0.1875 0z"/>
  <path id="path2960" style="opacity:.6" d="m48 23c-4.432 0-8 3.568-8 8v24c0 4.432 3.568 8 8 8s8-3.568 8-8v-24c0-4.432-3.568-8-8-8zm-17 24v3h3v5c0 6.6119 4.7704 12.25 11 13.656v5.344h-3v3h12v-3h-3v-5.3438c6.23-1.406 11-7.044 11-13.656v-5h3v-3h-3-1-1.9688v8c0 6.062-4.969 11.031-11.031 11.031s-11.031-4.969-11.031-11.031v-8h-1.969-1-3z"/>
  <path id="path3668" style="filter:url(#filter3680)" d="m40.179 68.054a12.054 11.875 0 1 1 -24.107 0 12.054 11.875 0 1 1 24.107 0z" transform="matrix(.99556 0 0 1.0105 -104 4.2301)"/>
  <path id="path3653" style="fill:url(#radialGradient3691)" d="m40.179 68.054a12.054 11.875 0 1 1 -24.107 0 12.054 11.875 0 1 1 24.107 0z" transform="matrix(.99556 0 0 -1.0105 -104 140.77)"/>
  <path id="rect3616" style="fill:url(#linearGradient3636)" d="m48 22c-4.432 0-8 3.568-8 8v24c0 4.432 3.568 8 8 8s8-3.568 8-8v-24c0-4.432-3.568-8-8-8zm-17 24v3h3v5c0 6.6119 4.7704 12.25 11 13.656v5.344h-3v3h12v-3h-3v-5.3438c6.23-1.406 11-7.044 11-13.656v-5h3v-3h-3-1-1.9688v8c0 6.062-4.969 11.031-11.031 11.031s-11.031-4.969-11.031-11.031v-8h-1.969-1-3z"/>
  <path id="path3638" style="fill:#fff" d="m48 22c-4.432 0-8 3.568-8 8v2c0-4.432 3.568-8 8-8s8 3.568 8 8v-2c0-4.432-3.568-8-8-8zm-17 24v2h3 1 1.9688v-2h-1.969-1-3zm28.031 0v2h1.9688 1 3v-2h-3-1-1.9688zm-22.062 8v2c0 6.062 4.9693 11.031 11.031 11.031 6.062 0 11.031-4.9693 11.031-11.031v-2c0 6.062-4.969 11.031-11.031 11.031s-11.031-4.969-11.031-11.031zm5.031 19v2h3v-2h-3zm9 0v2h3v-2h-3z"/>
  <path id="path2863" style="filter:url(#filter3680)" d="m40.179 68.054a12.054 11.875 0 1 1 -24.107 0 12.054 11.875 0 1 1 24.107 0z" transform="matrix(.99556 0 0 1.0105 -64 4.2301)"/>
  <path id="path2865" style="fill:url(#radialGradient2871)" d="m40.179 68.054a12.054 11.875 0 1 1 -24.107 0 12.054 11.875 0 1 1 24.107 0z" transform="matrix(.99556 0 0 1.0105 -64 3.2301)"/>
  <path id="path2867" style="opacity:.3;fill:#fea" d="m-36 84c-6.6274 0-12-5.3726-12-12 0-0.34006 0.03477-0.6671 0.0625-1 0.51278 6.1549 5.6501 11 11.938 11 6.2874 0 11.425-4.8451 11.938-11 0.02773 0.3329 0.0625 0.65994 0.0625 1 0 6.6274-5.3726 12-12 12z"/>
  <path id="path2869" style="opacity:.8;fill:url(#linearGradient2873)" d="m40.179 68.054a12.054 11.875 0 1 1 -24.107 0 12.054 11.875 0 1 1 24.107 0z" transform="matrix(0 .46222 -.73985 0 14.349 53.286)"/>
  <path id="path3671" style="opacity:.3;fill:url(#linearGradient3679)" d="m40.179 68.054a12.054 11.875 0 1 1 -24.107 0 12.054 11.875 0 1 1 24.107 0z" transform="matrix(0 .99556 1.0105 0 -144.77 44)"/>
  <path id="path2875" style="fill:#730000" d="m-76 60c-6.6274 0-12 5.3726-12 12s5.3726 12 12 12 12-5.3726 12-12-5.3726-12-12-12zm0 0.96875c6.1144 0 11.031 4.9412 11.031 11.031 0 6.09-4.9168 11-11.031 11-6.1144 0-11.031-4.91-11.031-11s4.9168-11.031 11.031-11.031z"/>
  <path id="path3654" style="opacity:.3;fill:#ffe680" d="m-76 61c-6.0751 0-11 4.9249-11 11 0 0.29558 0.03962 0.5853 0.0625 0.875 0.564-5.547 5.243-9.875 10.938-9.875 5.6954 0 10.374 4.3282 10.938 9.875 0.022-0.29 0.062-0.579 0.062-0.875 0-6.075-4.925-11-11-11z"/>
 </g>
</svg>
