<?xml version="1.0" encoding="UTF-8" standalone="no"?>
<!-- Created with Inkscape (http://www.inkscape.org/) -->
<svg id="svg2408" xmlns:rdf="http://www.w3.org/1999/02/22-rdf-syntax-ns#" xmlns="http://www.w3.org/2000/svg" height="96" width="96" version="1.0" xmlns:cc="http://creativecommons.org/ns#" xmlns:xlink="http://www.w3.org/1999/xlink" xmlns:dc="http://purl.org/dc/elements/1.1/">
 <defs id="defs2410">
  <linearGradient id="ButtonShadow" y2="7.0165" gradientUnits="userSpaceOnUse" x2="45.448" gradientTransform="scale(1.0059 .99417)" y1="92.54" x1="45.448">
   <stop id="stop3750" offset="0"/>
   <stop id="stop3752" style="stop-opacity:.58824" offset="1"/>
  </linearGradient>
  <linearGradient id="linearGradient3737">
   <stop id="stop3739" style="stop-color:#fff" offset="0"/>
   <stop id="stop3741" style="stop-color:#fff;stop-opacity:0" offset="1"/>
  </linearGradient>
  <filter id="filter3174" color-interpolation-filters="sRGB">
   <feGaussianBlur id="feGaussianBlur3176" stdDeviation="1.71"/>
  </filter>
  <linearGradient id="linearGradient3188" y2="63.893" xlink:href="#linearGradient3737" gradientUnits="userSpaceOnUse" x2="36.357" gradientTransform="translate(100)" y1="6" x1="36.357"/>
  <filter id="filter3794" height="1.384" width="1.384" color-interpolation-filters="sRGB" y="-.192" x="-.192">
   <feGaussianBlur id="feGaussianBlur3796" stdDeviation="5.28"/>
  </filter>
  <linearGradient id="linearGradient3613" y2="138.66" xlink:href="#linearGradient3737" gradientUnits="userSpaceOnUse" x2="48" y1="20.221" x1="48"/>
  <radialGradient id="radialGradient3619" xlink:href="#linearGradient3737" gradientUnits="userSpaceOnUse" cy="90.172" cx="48" gradientTransform="matrix(1.1573 0 0 .99591 92.449 .19713)" r="42"/>
  <clipPath id="clipPath3613">
   <rect id="rect3615" style="fill:#fff" rx="6" ry="6" height="84" width="84" y="6" x="6"/>
  </clipPath>
  <linearGradient id="linearGradient3617" y2="5.9877" gradientUnits="userSpaceOnUse" x2="48" gradientTransform="translate(100)" y1="90" x1="48">
   <stop id="stop3702" style="stop-color:#2276c5" offset="0"/>
   <stop id="stop3704" style="stop-color:#68baf4" offset="1"/>
  </linearGradient>
  <linearGradient id="ButtonShadow-0" y2="7.0165" gradientUnits="userSpaceOnUse" x2="45.448" gradientTransform="matrix(1.0059 0 0 .99417 100 0)" y1="92.54" x1="45.448">
   <stop id="stop3750-8" offset="0"/>
   <stop id="stop3752-5" style="stop-opacity:.58824" offset="1"/>
  </linearGradient>
  <linearGradient id="linearGradient3789" y2="7" xlink:href="#ButtonShadow-0" gradientUnits="userSpaceOnUse" x2="50" gradientTransform="translate(-1,-1)" y1="91" x1="50"/>
  <linearGradient id="linearGradient3834" y2="6.8642" xlink:href="#ButtonShadow-0" gradientUnits="userSpaceOnUse" x2="46.469" gradientTransform="translate(-1,-1)" y1="92.005" x1="46.469"/>
  <linearGradient id="linearGradient3842" y2="6.8642" xlink:href="#ButtonShadow-0" gradientUnits="userSpaceOnUse" x2="46.469" y1="92.005" x1="46.469"/>
  <linearGradient id="linearGradient3884" y2="71.927" xlink:href="#linearGradient3737" gradientUnits="userSpaceOnUse" x2="45.53" gradientTransform="translate(-1,-1)" y1="6.1567" x1="45.53"/>
  <radialGradient id="radialGradient4290" gradientUnits="userSpaceOnUse" cy="69" cx="20" gradientTransform="matrix(1,0,0,1.5,1,-33.5)" r="14">
   <stop id="stop3711" style="stop-color:#d9bf83" offset="0"/>
   <stop id="stop3713" style="stop-color:#ebe5bd" offset="1"/>
  </radialGradient>
  <linearGradient id="linearGradient4292" y2="47.988" gradientUnits="userSpaceOnUse" x2="19" y1="90" x1="19">
   <stop id="stop3740" style="stop-color:#a27a47" offset="0"/>
   <stop id="stop3742" style="stop-color:#d5aa65" offset="1"/>
  </linearGradient>
 </defs>
 <metadata id="metadata2413">
  <rdf:RDF>
   <cc:Work rdf:about="">
    <dc:format>image/svg+xml</dc:format>
    <dc:type rdf:resource="http://purl.org/dc/dcmitype/StillImage"/>
    <dc:title/>
   </cc:Work>
  </rdf:RDF>
 </metadata>
 <g id="layer2" style="display:none">
  <rect id="rect3745" style="opacity:.9;filter:url(#filter3174);fill:url(#ButtonShadow)" rx="6" ry="6" height="85" width="86" y="7" x="5"/>
 </g>
 <g id="layer3">
  <path id="path3856" style="opacity:0.08;color:#000000;fill:url(#linearGradient3842)" d="m12 4.0625c-5.4794 0-9.9375 4.4581-9.9375 9.9375v29c0 2.5663 1.1264 4.7638 2.7188 6.5-1.5924 1.736-2.7188 3.934-2.7188 6.5v29c0 5.4794 4.4581 9.9375 9.9375 9.9375h16c2.3611 0 4.3541-0.99274 6-2.3438 1.6459 1.351 3.6389 2.3438 6 2.3438h16c2.3611 0 4.3541-0.99274 6-2.3438 1.6459 1.351 3.6389 2.3438 6 2.3438h16c5.4794 0 9.9375-4.4581 9.9375-9.9375v-29c0-2.5663-1.1264-4.7638-2.7188-6.5 1.5923-1.7362 2.7188-3.9337 2.7188-6.5v-29c0-5.4794-4.459-9.9375-9.938-9.9375h-16c-2.3611 0-4.3541 0.99274-6 2.3438-1.646-1.3511-3.639-2.3438-6-2.3438h-16c-2.3611 0-4.3541 0.99274-6 2.3438-1.646-1.3511-3.639-2.3438-6-2.3438h-16z" transform="translate(-1,-1)"/>
  <path id="path3848" style="opacity:.1;color:#000000;fill:url(#linearGradient3842)" d="m12 5.125c-4.8952 0-8.875 3.9798-8.875 8.875v29c0 2.6071 1.1753 4.8846 2.9688 6.5-1.7935 1.615-2.9688 3.893-2.9688 6.5v29c0 4.8952 3.9798 8.875 8.875 8.875h16c2.3759 0 4.4195-1.0454 6-2.5625 1.5805 1.5171 3.6241 2.5625 6 2.5625h16c2.3759 0 4.4195-1.0454 6-2.5625 1.5805 1.5171 3.6241 2.5625 6 2.5625h16c4.8952 0 8.875-3.9798 8.875-8.875v-29c0-2.6071-1.1753-4.8846-2.9688-6.5 1.794-1.615 2.969-3.893 2.969-6.5v-29c0-4.8952-3.98-8.875-8.875-8.875h-16c-2.3759 0-4.4195 1.0454-6 2.5625-1.581-1.5171-3.624-2.5625-6-2.5625h-16c-2.3759 0-4.4195 1.0454-6 2.5625-1.581-1.5171-3.624-2.5625-6-2.5625h-16zm22 44.219c0.058 0.055 0.128 0.102 0.188 0.156-0.06 0.054-0.13 0.101-0.188 0.156-0.058-0.055-0.128-0.102-0.188-0.156 0.06-0.054 0.13-0.101 0.188-0.156zm28 0c0.058 0.055 0.128 0.102 0.188 0.156-0.06 0.054-0.13 0.101-0.188 0.156-0.058-0.055-0.128-0.102-0.188-0.156 0.06-0.054 0.13-0.101 0.188-0.156z" transform="translate(-1,-1)"/>
  <path id="path3840" style="opacity:.15;color:#000000;fill:url(#linearGradient3842)" d="m12 5.9375c-4.4565 0-8.0625 3.606-8.0625 8.0625v29c0 2.6913 1.3169 5.0365 3.3438 6.5-2.0269 1.463-3.3438 3.809-3.3438 6.5v29c0 4.4565 3.606 8.0625 8.0625 8.0625h16c2.4069 0 4.5226-1.0792 6-2.75 1.4774 1.6708 3.5931 2.75 6 2.75h16c2.4069 0 4.5226-1.0792 6-2.75 1.4774 1.6708 3.5931 2.75 6 2.75h16c4.4565 0 8.0625-3.606 8.0625-8.0625v-29c0-2.6913-1.3169-5.0365-3.3438-6.5 2.0268-1.4635 3.3438-3.8087 3.3438-6.5v-29c0-4.4565-3.606-8.0625-8.062-8.0625h-16c-2.4069 0-4.5226 1.0792-6 2.75-1.4774-1.6708-3.5931-2.75-6-2.75h-16c-2.4069 0-4.5226 1.0792-6 2.75-1.4774-1.6708-3.5931-2.75-6-2.75h-16zm22 42.312c0.41519 0.47271 0.86108 0.88462 1.375 1.25-0.514 0.365-0.96 0.777-1.375 1.25-0.415-0.473-0.861-0.885-1.375-1.25 0.514-0.365 0.96-0.777 1.375-1.25zm28 0c0.41519 0.47271 0.86108 0.88462 1.375 1.25-0.514 0.365-0.96 0.777-1.375 1.25-0.415-0.473-0.861-0.885-1.375-1.25 0.514-0.365 0.96-0.777 1.375-1.25z" transform="translate(-1,-1)"/>
  <path id="path3798" style="opacity:.3;color:#000000;fill:url(#linearGradient3834)" d="m11 6c-3.878 0-7 3.122-7 7v29c0 2.9691 1.8392 5.4791 4.4375 6.5-2.5983 1.021-4.4375 3.531-4.4375 6.5v29c0 3.878 3.122 7 7 7h16c2.5577 0 4.7788-1.3689 6-3.4062 1.221 2.037 3.442 3.406 6 3.406h16c2.5577 0 4.7788-1.3689 6-3.4062 1.221 2.037 3.442 3.406 6 3.406h16c3.878 0 7-3.122 7-7v-29c0-2.969-1.839-5.479-4.438-6.5 2.599-1.021 4.438-3.531 4.438-6.5v-29c0-3.878-3.122-7-7-7h-16c-2.558 0-4.779 1.3689-6 3.4062-1.221-2.0373-3.442-3.4062-6-3.4062h-16c-2.558 0-4.779 1.3689-6 3.4062-1.221-2.0373-3.442-3.4062-6-3.4062h-16zm22 39.594c0.78 1.301 1.983 2.333 3.406 2.906-1.423 0.573-2.626 1.605-3.406 2.906-0.78-1.301-1.983-2.333-3.406-2.906 1.423-0.573 2.626-1.605 3.406-2.906zm28 0c0.78 1.301 1.983 2.333 3.406 2.906-1.423 0.573-2.626 1.605-3.406 2.906-0.78-1.301-1.983-2.333-3.406-2.906 1.423-0.573 2.626-1.605 3.406-2.906z"/>
  <path id="rect3768" style="opacity:.45;color:#000000;fill:url(#linearGradient3789)" d="m11 6c-3.324 0-6 2.676-6 6v30c0 3.324 2.676 6 6 6-3.324 0-6 2.676-6 6v30c0 3.324 2.676 6 6 6h16c3.324 0 6-2.676 6-6 0 3.324 2.676 6 6 6h16c3.324 0 6-2.676 6-6 0 3.324 2.676 6 6 6h16c3.324 0 6-2.676 6-6v-30c0-3.324-2.676-6-6-6 3.324 0 6-2.676 6-6v-30c0-3.324-2.676-6-6-6h-16c-3.324 0-6 2.676-6 6 0-3.324-2.676-6-6-6h-16c-3.324 0-6 2.676-6 6 0-3.324-2.676-6-6-6h-16zm22 36c0 3.324 2.676 6 6 6-3.324 0-6 2.676-6 6 0-3.324-2.676-6-6-6 3.324 0 6-2.676 6-6zm28 0c0 3.324 2.676 6 6 6-3.324 0-6 2.676-6 6 0-3.324-2.676-6-6-6 3.324 0 6-2.676 6-6z"/>
 </g>
 <g id="layer1">
  <use id="use3756" xlink:href="#g3746" height="96" width="96" y="0" x="0"/>
  <rect id="rect2419" style="fill:url(#linearGradient3617)" rx="6" ry="6" height="84" width="84" y="6" x="106"/>
  <path id="rect3728" style="opacity:.5;fill:url(#linearGradient3188)" d="m112 6c-3.324 0-6 2.676-6 6v2 68 2c0 0.33472 0.0413 0.6507 0.0937 0.96875 0.0487 0.2956 0.097 0.59692 0.1875 0.875 0.01 0.03038 0.0209 0.0636 0.0312 0.09375 0.0989 0.28777 0.23488 0.54745 0.375 0.8125 0.14459 0.27351 0.31562 0.53562 0.5 0.78125 0.18438 0.24564 0.37378 0.47347 0.59375 0.6875 0.43995 0.42806 0.94291 0.81453 1.5 1.0938 0.27854 0.13961 0.57347 0.24695 0.875 0.34375-0.2562-0.10022-0.48671-0.23627-0.71875-0.375-0.007-0.0044-0.0239 0.0045-0.0312 0-0.0319-0.0193-0.0623-0.04251-0.0937-0.0625-0.1204-0.0767-0.23102-0.16351-0.34375-0.25-0.10617-0.0808-0.21328-0.16111-0.3125-0.25-0.17793-0.16143-0.34746-0.34539-0.5-0.53125-0.10758-0.13026-0.21839-0.26528-0.3125-0.40625-0.0251-0.03838-0.0384-0.08587-0.0625-0.125-0.0648-0.10303-0.13023-0.20452-0.1875-0.3125-0.10101-0.19471-0.20567-0.4157-0.28125-0.625-0.008-0.02181-0.0236-0.04055-0.0312-0.0625-0.0318-0.09195-0.0358-0.18683-0.0625-0.28125-0.0303-0.10662-0.0704-0.20303-0.0937-0.3125-0.08-0.342-0.13-0.699-0.13-1.063v-2-68-2c0-2.7818 2.2182-5 5-5h2 68 2c2.7818 0 5 2.2182 5 5v2 68 2c0 0.3643-0.0521 0.72099-0.125 1.0625-0.0442 0.20689-0.0884 0.39766-0.15625 0.59375-0.008 0.02195-0.0233 0.04069-0.0312 0.0625-0.0627 0.17374-0.13838 0.36745-0.21875 0.53125-0.0416 0.0828-0.079 0.16995-0.125 0.25-0.0546 0.09721-0.12677 0.18835-0.1875 0.28125-0.0941 0.14096-0.20492 0.276-0.3125 0.40625-0.14317 0.17445-0.30314 0.347-0.46875 0.5-0.0112 0.0102-0.02 0.02115-0.0312 0.03125-0.13839 0.12556-0.28509 0.23444-0.4375 0.34375-0.10257 0.07315-0.20432 0.15336-0.3125 0.21875-0.007 0.0045-0.0238-0.0044-0.0312 0-0.23204 0.13873-0.46255 0.27478-0.71875 0.375 0.30153-0.0968 0.59646-0.20414 0.875-0.34375 0.55709-0.27922 1.06-0.66569 1.5-1.0938 0.21997-0.21403 0.40937-0.44186 0.59375-0.6875s0.35541-0.50774 0.5-0.78125c0.14012-0.26505 0.27613-0.52473 0.375-0.8125 0.0104-0.03078 0.0213-0.06274 0.0312-0.09375 0.0905-0.27808 0.1388-0.5794 0.1875-0.875 0.05-0.318 0.09-0.634 0.09-0.969v-2-68-2c0-3.324-2.676-6-6-6h-72z"/>
  <path id="path3615" style="opacity:.2;fill:url(#radialGradient3619)" d="m112 90c-3.324 0-6-2.676-6-6v-2-68-2c0-0.33472 0.0413-0.6507 0.0937-0.96875 0.0487-0.2956 0.097-0.59692 0.1875-0.875 0.01-0.03038 0.0209-0.0636 0.0312-0.09375 0.0989-0.28777 0.23488-0.54745 0.375-0.8125 0.14459-0.27351 0.31562-0.53562 0.5-0.78125 0.18438-0.24564 0.37378-0.47347 0.59375-0.6875 0.43995-0.42806 0.94291-0.81453 1.5-1.0938 0.27854-0.13961 0.57347-0.24695 0.875-0.34375-0.2562 0.10022-0.48671 0.23627-0.71875 0.375-0.007 0.0044-0.0239-0.0045-0.0312 0-0.0319 0.0193-0.0623 0.04251-0.0937 0.0625-0.1204 0.0767-0.23102 0.16351-0.34375 0.25-0.10617 0.0808-0.21328 0.16111-0.3125 0.25-0.17793 0.16143-0.34746 0.34539-0.5 0.53125-0.10758 0.13026-0.21839 0.26528-0.3125 0.40625-0.0251 0.03838-0.0384 0.08587-0.0625 0.125-0.0648 0.10303-0.13023 0.20452-0.1875 0.3125-0.10101 0.19471-0.20567 0.4157-0.28125 0.625-0.008 0.02181-0.0236 0.04055-0.0312 0.0625-0.0318 0.09195-0.0358 0.18683-0.0625 0.28125-0.0303 0.10662-0.0704 0.20303-0.0937 0.3125-0.08 0.3417-0.13 0.6987-0.13 1.0627v2 68 2c0 2.7818 2.2182 5 5 5h2 68 2c2.7818 0 5-2.2182 5-5v-2-68-2c0-0.3643-0.0521-0.72099-0.125-1.0625-0.0442-0.20689-0.0884-0.39766-0.15625-0.59375-0.008-0.02195-0.0233-0.04069-0.0312-0.0625-0.0627-0.17374-0.13838-0.36745-0.21875-0.53125-0.0416-0.0828-0.079-0.16995-0.125-0.25-0.0546-0.09721-0.12677-0.18835-0.1875-0.28125-0.0941-0.14096-0.20492-0.276-0.3125-0.40625-0.14317-0.17445-0.30314-0.347-0.46875-0.5-0.0112-0.0102-0.02-0.02115-0.0312-0.03125-0.13839-0.12556-0.28509-0.23444-0.4375-0.34375-0.10257-0.07315-0.20432-0.15336-0.3125-0.21875-0.007-0.0045-0.0238 0.0044-0.0312 0-0.23204-0.13873-0.46255-0.27478-0.71875-0.375 0.30153 0.0968 0.59646 0.20414 0.875 0.34375 0.55709 0.27922 1.06 0.66569 1.5 1.0938 0.21997 0.21403 0.40937 0.44186 0.59375 0.6875s0.35541 0.50774 0.5 0.78125c0.14012 0.26505 0.27613 0.52473 0.375 0.8125 0.0104 0.03078 0.0213 0.06274 0.0312 0.09375 0.0905 0.27808 0.1388 0.5794 0.1875 0.875 0.05 0.318 0.09 0.634 0.09 0.969v2 68 2c0 3.324-2.676 6-6 6h-72z"/>
  <rect id="rect2890" style="opacity:.8;color:#000000;fill:#215c26" rx="6" ry="6" height="42" width="28" y="48" x="-94"/>
  <rect id="rect2894" style="opacity:.8;color:#000000;fill:#215c26" rx="6" ry="6" height="42" width="28" y="48" x="-66"/>
  <rect id="rect2896" style="opacity:.8;color:#000000;fill:#215c26" rx="6" ry="6" height="42" width="28" y="48" x="-38"/>
  <rect id="rect2898" style="opacity:.8;color:#000000;fill:#215c26" rx="6" ry="6" height="42" width="28" y="6" x="-94"/>
  <rect id="rect2900" style="opacity:.8;color:#000000;fill:#215c26" rx="6" ry="6" height="42" width="28" y="6" x="-66"/>
  <rect id="rect2902" style="opacity:.8;color:#000000;fill:#215c26" rx="6" ry="6" height="42" width="28" y="6" x="-38"/>
  <g id="g3746" transform="translate(-1,-43)">
   <rect id="rect2904" style="color:#000000;fill:url(#radialGradient4290)" rx="5" ry="5" height="40" width="26" y="49" x="7"/>
   <path id="path3728" style="opacity:.1;color:#000000;fill:#a05a2c" d="m12 48c-3.324 0-6 2.676-6 6v30c0 3.324 2.676 6 6 6h16c3.324 0 6-2.676 6-6v-30c0-3.324-2.676-6-6-6h-16zm0 3.1562h16c1.6368 0 2.8438 1.207 2.8438 2.8438v30c0 1.6368-1.207 2.8438-2.8438 2.8438h-16c-1.637 0-2.8438-1.207-2.8438-2.844v-30c0-1.6368 1.207-2.8438 2.8438-2.8438z"/>
   <path id="rect3717" style="opacity:.2;color:#000000;fill:#c87137" d="m12 48c-3.324 0-6 2.676-6 6v30c0 3.324 2.676 6 6 6h16c3.324 0 6-2.676 6-6v-30c0-3.324-2.676-6-6-6h-16zm0 1.9688h16c2.2635 0 4.0312 1.7678 4.0312 4.0312v30c0 2.2635-1.7678 4.0312-4.0312 4.0312h-16c-2.2635 0-4.0312-1.768-4.0312-4.031v-30c0-2.2635 1.7678-4.0312 4.0312-4.0312z"/>
   <path id="rect3702" style="color:#000000;fill:url(#linearGradient4292)" d="m12 48c-3.324 0-6 2.676-6 6v30c0 3.324 2.676 6 6 6h16c3.324 0 6-2.676 6-6v-30c0-3.324-2.676-6-6-6h-16zm0 1.0625h16c2.7455 0 4.9375 2.192 4.9375 4.9375v30c0 2.7455-2.192 4.9375-4.9375 4.9375h-16c-2.7455 0-4.9375-2.192-4.9375-4.938v-30c0-2.7455 2.192-4.9375 4.9375-4.9375z"/>
  </g>
  <use id="use3758" xlink:href="#g3746" transform="translate(0,42)" height="96" width="96" y="0" x="0"/>
  <use id="use3760" xlink:href="#g3746" transform="translate(28)" height="96" width="96" y="0" x="0"/>
  <use id="use3762" xlink:href="#g3746" transform="translate(28,42)" height="96" width="96" y="0" x="0"/>
  <use id="use3764" xlink:href="#g3746" transform="translate(56)" height="96" width="96" y="0" x="0"/>
  <use id="use3766" xlink:href="#g3746" transform="translate(56,42)" height="96" width="96" y="0" x="0"/>
  <path id="rect3860" style="opacity:.2;color:#000000;fill:url(#linearGradient3884)" d="m11 5c-3.324 0-6 2.676-6 6v30c0 2.9742 2.1367 5.4224 4.9688 5.9062-2.2939-0.46-3.9688-2.461-3.9688-4.906v-30c0-2.7937 2.2063-5 5-5h16c2.7937 0 5 2.2063 5 5h2c0-2.7937 2.2063-5 5-5h16c2.7937 0 5 2.2063 5 5h2c0-2.7937 2.2063-5 5-5h16c2.7937 0 5 2.2063 5 5v30c0 2.4445-1.6749 4.4458-3.9688 4.9062 2.832-0.484 4.969-2.932 4.969-5.906v-30c0-3.324-2.676-6-6-6h-16c-3.324 0-6 2.676-6 6 0-3.324-2.676-6-6-6h-16c-3.324 0-6 2.676-6 6 0-3.324-2.676-6-6-6h-16zm21 37c0 2.4445-1.6749 4.4458-3.9688 4.9062 2.509-0.428 4.459-2.392 4.875-4.906h-0.906zm1.0938 0c0.41614 2.5135 2.3659 4.4776 4.875 4.9062-2.294-0.46-3.969-2.461-3.969-4.906h-0.90625zm26.906 0c0 2.4445-1.6749 4.4458-3.9688 4.9062 2.509-0.428 4.459-2.392 4.875-4.906h-0.906zm1.0938 0c0.41614 2.5135 2.3659 4.4776 4.875 4.9062-2.294-0.46-3.969-2.461-3.969-4.906h-0.90625zm-50.094 5c-3.324 0-6 2.676-6 6v30c0 2.9742 2.1367 5.4224 4.9688 5.9062-2.2939-0.46-3.9688-2.461-3.9688-4.906v-30c0-2.7937 2.2063-5 5-5v-2zm16 0v2c2.7937 0 5 2.2063 5 5h2c0-2.7937 2.2063-5 5-5v-2c-3.324 0-6 2.676-6 6 0-3.324-2.676-6-6-6zm28 0v2c2.7937 0 5 2.2063 5 5h2c0-2.7937 2.2063-5 5-5v-2c-3.324 0-6 2.676-6 6 0-3.324-2.676-6-6-6zm28 0v2c2.7937 0 5 2.2063 5 5v30c0 2.4445-1.6749 4.4458-3.9688 4.9062 2.832-0.484 4.969-2.932 4.969-5.906v-30c0-3.324-2.676-6-6-6zm-51 37c0 2.4445-1.6749 4.4458-3.9688 4.9062 2.509-0.428 4.459-2.392 4.875-4.906h-0.906zm1.0938 0c0.41614 2.5135 2.3659 4.4776 4.875 4.9062-2.294-0.46-3.969-2.461-3.969-4.906h-0.90625zm26.906 0c0 2.4445-1.6749 4.4458-3.9688 4.9062 2.509-0.428 4.459-2.392 4.875-4.906h-0.906zm1.0938 0c0.41614 2.5135 2.3659 4.4776 4.875 4.9062-2.294-0.46-3.969-2.461-3.969-4.906h-0.90625z"/>
  <path id="rect2950" style="opacity:.2;color:#000000" d="m11 5c-3.324 0-6 2.676-6 6v30c0 3.324 2.676 6 6 6-3.324 0-6 2.676-6 6v30c0 3.324 2.676 6 6 6h1c-3.324 0-6-2.676-6-6v-30c0-3.324 2.676-6 6-6-3.324 0-6-2.676-6-6v-30c0-3.324 2.676-6 6-6h-1z"/>
  <path id="path3731" style="opacity:.2;color:#000000" d="m83 5c3.324 0 6 2.676 6 6v30c0 3.324-2.676 6-6 6 3.324 0 6 2.676 6 6v30c0 3.324-2.676 6-6 6h-1c3.324 0 6-2.676 6-6v-30c0-3.324-2.676-6-6-6 3.324 0 6-2.676 6-6v-30c0-3.324-2.676-6-6-6h1z"/>
 </g>
 <g id="layer5" style="display:none">
  <rect id="rect3171" style="opacity:.1;filter:url(#filter3794);stroke:#fff;stroke-linecap:round;stroke-width:.5;fill:url(#linearGradient3613)" clip-path="url(#clipPath3613)" rx="12" ry="12" height="66" width="66" y="15" x="15"/>
 </g>
 <g id="layer4">
  <path id="path4115" style="opacity:.4;fill:#fff" d="m76.125 59.125-0.09375 0.28125-1.1875 3-0.75 0.71875-1.9375-2.2188h-0.0625c-0.30022 0-1.864 0.0362-2.25 0.59375-0.04289 0.04289-0.03125 0.11336-0.03125 0.15625v0.09375c0.04289 0.21444 0.30948 0.2972 0.78125 0.46875 0.21444 0.08578 0.49633 0.22672 0.625 0.3125-0.47177 0.98643-0.99331 1.8922-1.5938 2.75-0.30022-0.17155-1.75-1.0938-1.75-1.0938l-0.25 0.34375s1.1918 1.3481 1.4062 1.5625c-1.2009 1.5011-2.6674 2.8187-4.4688 4.0625l0.1875 0.375c5.4897-1.4153 9.383-6.9338 9.4688-7.0625l1 0.9375c-1.3724 0.85777-2.6562 1.625-2.6562 1.625l0.21875 0.40625c0.85777-0.34311 2.0491-0.84073 3.25-1.3125l4.75 4.6562 4.6562-1.625-0.0625-0.4375c-2.1873-0.08578-5.1564-1.9052-7.3438-3.4062 1.2438-0.42888 2.2782-0.73039 2.75-0.6875 0.30022 0 0.39461-0.10172 0.4375-0.1875 0.17155-0.47177-1.4868-1.9144-4.875-4.1875l-0.22-0.124zm1.1562 2.625c0.21444 0.12866 0.76228 0.47306 1.0625 0.6875-0.17155 0.08578-0.82176 0.48534-1.5938 1-0.08578-0.08578-0.15258-0.19547-0.28125-0.28125 0.30022-0.51466 0.68383-1.2347 0.8125-1.4062zm-3.781 4.719l-0.46875 0.3125-2.6562 1.5 0.125 0.375s0.48103-0.03125 0.78125-0.03125c-0.08578 0.30022-0.25431 0.77456-0.46875 1.375-0.25733 0-2.1562-0.09375-2.1562-0.09375l0.344 0.375c0.12866 0.12866 0.68448 0.75 1.1562 0.75 0 0 0.12134-0.0625 0.25-0.0625-0.34311 0.85777-0.739 1.5987-1.125 2.1562l0.3125 0.28125c0.64333-0.51466 1.3763-1.4321 2.0625-2.7188l0.5-0.1875-0.03125-0.4375h-0.15625c0.77199-1.544 1.3125-3.0312 1.3125-3.0312l0.22-0.562zm0.65625 0.78125v0.21875s-0.24331 2.1-0.84375 3.3438l-0.125 0.28125 0.3125 0.0625c0.77199 0.04289 1.4927-1.5834 1.75-2.3125 0.17155 0 0.61767 0.03125 0.875 0.03125-0.12866 0.51466-0.3125 1.1961-0.3125 1.625 0 0.17155 0.008 0.28922 0.09375 0.375l0.21875 0.15625c0.34311 0.04289 2.2078-0.11336 2.5938-0.15625v-0.40625c-0.64333-0.08578-1.4142-0.31681-1.5-0.53125-0.08578-0.25733 0.27025-1.2672 0.65625-2.125l0.125-0.314-3.844-0.25zm-1.7188 4.0938-0.21875 0.75c0 0.04289-0.60063 2.1735-2.1875 3.0312-0.21444-0.25733-1.3438-1.7812-1.3438-1.7812l-0.375 0.1875 1.875 4.9062 0.4375-0.09375c0-0.94355 0.4737-1.4933 1.0312-2.0938 0.77199-0.90066 1.6433-1.9261 1-4.1562l-0.21875-0.75zm7.063 0.218-6.312 0.188s2.0981 2.7114 2.3125 2.9688c-1.1151 1.0293-2.0993 1.7978-3 2.3125l-0.25 0.15625 0.25 0.21875c0.60044 0.47177 1.8004-0.09697 3.6875-1.8125 0.98643 1.3724 1.6293 2.3683 1.8438 2.9688l0.09375 0.3125 1.1562-0.96875v-0.0625-0.125c0-0.21444 0.01576-0.92605-2-3.1562 1.2867-1.3295 2.4062-2.5509 2.4062-2.5938l0.28125-0.40625h-0.46875zm-2 1.2188c-0.34311 0.386-0.7347 0.75431-0.90625 0.96875l-0.8125-0.8125c0.47177-0.08578 1.1612-0.11336 1.7188-0.15625z"/>
  <path id="path4100" style="opacity:.4;fill:#fff" d="m47.094 53.781-0.0625 0.1875c-0.048 0.094-0.173 0.612-0.407 1.407h-2.0938c0-0.18699-0.0625-0.625-0.0625-0.625-0.65446-1.0752-3.454-0.29675-3.7812-0.25l-0.1875 0.03125 0.09375 0.1875c0.09349 0.18699 0.20325 0.42251 0.25 0.65625h-1.7812l0.875 1.6875 1.125-0.1875v0.3125c0 2.8983-1.25 6.6095-1.25 6.6562l0.28125 0.125c0.14024-0.18699 3.6893-4.4307 4.3438-7.6562 0.0935 0 1.1276-0.20351 2.0625-0.34375-0.56097 2.1971-1.2314 5.6753-0.15625 6.9375 1.5894 1.8699 7.7663 1.7185 8 1.625l0.126-0.032-1.594-4.312s-1.344 1.5003-1.4375 1.5938c-1.4959 0.32723-3.938 0.56046-4.125-0.1875-0.23374-0.8882 1.6113-4.8791 2.3125-6.375l0.09375-0.125-2.625-1.3125zm0.468 14.531-0.093 0.063s-2.0364 1.5785-2.2188 1.7188c-0.14959-0.15427-1.5-1.5312-1.5-1.5312l1.0312 4.1562h0.28125c0.3506-2.2252 2.0419-3.1162 2.5-3.3125 0.06545 0.0935 0.125 0.20351 0.125 0.34375 0 0.04207-0.02665 0.07825-0.03125 0.125-0.09817 0.78068-1.1195 2.1736-3.125 3.375l-0.125 0.09375 0.375 0.46875 0.09375-0.03125c0.02805-0.0093 3.0814-0.95915 4.8438-0.875l0.531 0.032-0.469-0.313c-0.0374-0.02337-0.8869-0.57159-1.8125-0.46875 0.13089-0.29451 1.054-1.1895 1.9375-1.9375l0.125-0.125-2.4688-1.7812zm2.6875 5.25-0.09375 0.03125c-2.3888 0.4067-6.1123 0.96382-6.5938 0.875l-0.15625-0.03125-0.0625 0.15625c-0.09349 0.26178 0.15382 2.2969 0.40625 3.4375-2.141 0.18699-4.6875 0.40625-4.6875 0.40625l0.125 0.28125 0.313 0.594 0.156-0.062c0.80405-0.23841 1.1839-0.26402 2.1562-0.25 0.08882 0.22906 1.2188 3.1875 1.2188 3.1875l0.375-0.09375s-0.32358-2.6745-0.375-3.0625c0.36463 0.0093 3.7146 0.1063 4.5 0.125-0.509 0.43-1.656 1.406-1.656 1.406l0.1875 0.34375s2.4097-0.83293 2.5312-0.875c0.11687 0.04675 2 0.78125 2 0.78125s-0.99462-1.2151-1.3125-1.5938c1.767 0.09349 2.2222 0.19416 2.3438 0.34375 0.15427 0.18231 0.25 0.45082 0.25 0.75 0 0.54227-0.27343 1.2077-0.84375 1.75-0.8508-0.21504-2.4188-1.0844-2.4375-1.0938l-0.25 0.28125 2.375 2.9688 0.125-0.03125c1.7857-0.36463 3.9424-3.9707 4.0312-4.125l0.0625-0.125-0.09375-0.09375c-0.07947-0.07947-1.9612-2.0025-2.625-2.3438-0.24776-0.12622-0.79891-0.09644-2.6875 0.0625 0 0-0.09721 0.01725-0.21875 0.03125 0.55629-1.3042 1.2901-2.7552 1.6875-2.9375l0.25-0.09375-1-1zm-1.25 1.688c-0.02337 0.12622-0.06423 0.43237-0.125 0.84375-0.57032 0.0748-1.2943 0.1907-1.5 0.21875v-0.9375c0.757-0.06 1.447-0.105 1.625-0.124zm-2.4375 0.1875c0.0093 0.39268 0.02658 0.82383 0.03125 0.96875-0.65914 0.0748-1.2122 0.1063-1.6562 0.125 0.04675-0.28983 0.10483-0.59945 0.15625-0.96875 0.11219-0.0093 0.73014-0.06423 1.4688-0.125zm1.3438 1.5312c0.13674 0.000006 0.23476 0.0172 0.375 0.03125l0.469 0.031c-0.03272 0.21504-0.06571 0.42399-0.09375 0.625-0.50954 0.0374-1.0989 0.07973-1.2812 0.09375v-0.75c0.22906-0.02338 0.39451-0.03126 0.53125-0.03125zm-1.2812 0.125c0.0047 0.22439-0.0047 0.52241 0 0.71875-0.11687 0.0047-0.89504 0.06743-1.9375 0.15625 0.0374-0.16362 0.08293-0.33811 0.125-0.5625 0.60772-0.11219 1.2141-0.23303 1.8125-0.3125z"/>
  <g id="g4092" style="opacity:.4;fill:#fff" transform="matrix(.43093 0 0 .43093 86.922 53.563)">
   <path id="path4094" style="fill:#fff" d="m-161.75 9.2732c0.4 0.5 0.9 2.3 0.9 8.6v2.8c-3.4 0.5-6.3 1-6.8 1.2l-0.6 0.2 2.8 2.7 0.2-0.1c1.1-0.3 2.6-0.5 4.2-0.7 0 0.7-0.4 7.3-0.4 7.9-4.9 0.4-9.2 1.1-12.7 1.9-3 0.8-4.8 2.6-5.2 5.4-0.1 0.4-0.1 0.9-0.1 1.4 0 7.1 6.9 16.9 7 16.9l0.8 0.5-0.3-0.9c0-0.1-2.8-9.4-2.8-15.6 0-1.8 0.2-3.3 0.8-4.3 0.4-0.6 0.8-0.9 1.4-1 1.3-0.2 2.7-0.4 4-0.6 0 0 3.1 4 3.7 4.7-0.5 0.1-1.4 0.3-1.4 0.3v0.3l0.2 2.2 0.4-0.1c0.6-0.2 1.8-0.5 3.2-0.7 0 0.6 0.1 2.4 0.2 2.9-1.7 0.5-3.2 1.1-3.8 1.4l-0.4 0.2 1.5 1.6 0.2-0.1c0.7-0.3 1.7-0.6 2.7-0.9 0 0.7 0.3 5.6 0.3 5.6h0.7l1.2-6c1.8-0.2 3.5-0.1 4.8 0.2l0.4 0.1v-3l-0.2-0.1c-0.8-0.4-2.3-0.4-4.5 0.1 0.1-0.7 0.4-2.1 0.5-2.5 1.6-0.1 2.9-0.2 3.8-0.1l0.5 0.1-0.7-2.6s-0.9 0-1.4 0.1c0.8-0.9 3.5-4.4 3.7-4.6 0.3 0 3.9 0.1 3.9 0.1 1.6 0.1 3 0.7 4.1 2 1.3 1.5 2 3.9 2 6.3 0 0.5 0 1.1-0.1 1.6l-0.1 0.7c-0.7 5.1-1.3 8.8-3.1 9.6-1.2 0.5-3.1-0.3-5.9-2.4l-0.5 0.5 5.5 9.6 0.3-0.1c6.7-2.4 7.7-3.8 10.4-15.4 1.2-5.1 0.8-9.1-1.3-11.8-2.5-3.3-6.3-3.7-6.5-3.7-0.1 0-6.7-0.3-14.6 0.2 0.2-0.8 2-7.5 2.1-7.9 2.5 0 4.7 0.1 5.7 0.5l0.4 0.1 0.4-4.7h-0.4c-1.1 0-2.8 0.1-5.1 0.3 1.3-4.4 1.9-5.8 2.1-6.2l0.2-0.3-8.1-4.7-0.2 0.3zm4.4 25.3c-0.1 0.7-0.7 4.3-0.7 4.7h-0.1c0-0.1 0.1-0.4 0.1-0.4l-4.4 0.4v0.6c-0.4 0.1-1 0.2-1.4 0.2v-5.1c2.2-0.1 4.3-0.3 6.5-0.4z"/>
  </g>
  <path id="path4060" style="opacity:.4;fill:#fff" d="m69.844 12.294c-2.5504 0-4.625 2.0746-4.625 4.625s2.0746 4.625 4.625 4.625 4.6562-2.0746 4.6562-4.625-2.1059-4.625-4.6562-4.625zm0 0.53125c2.2676 0 4.125 1.8262 4.125 4.0938s-1.8574 4.125-4.125 4.125-4.0938-1.8574-4.0938-4.125 1.8262-4.0938 4.0938-4.0938zm0 0.21875c-2.1493 0-3.875 1.7257-3.875 3.875s1.7257 3.9062 3.875 3.9062 3.9062-1.757 3.9062-3.9062c0-2.1493-1.757-3.875-3.9062-3.875zm0 0.75c0.69929 0 1.3038 0.49809 1.4375 1.1562-0.40106-0.2828-0.90789-0.46875-1.4375-0.46875s-1.0052 0.18595-1.4062 0.46875c0.13369-0.65816 0.70696-1.1562 1.4062-1.1562zm-1.344 0.031c-0.30851 0.30337-0.50594 0.74016-0.5625 1.1875-0.45248 0.05656-0.85288 0.22274-1.1562 0.53125 0.33936-0.761 0.95776-1.3794 1.7188-1.7188zm2.7188 0c0.761 0.33936 1.3794 0.95776 1.7188 1.7188-0.30337-0.30851-0.70891-0.47983-1.1562-0.53125-0.05656-0.45248-0.25399-0.88413-0.5625-1.1875zm-1.375 1.1875c0.29309 0 0.59694 0.06924 0.84375 0.1875-0.3445 0.17482-0.6535 0.44189-0.84375 0.78125-0.19025-0.33936-0.468-0.60643-0.8125-0.78125 0.24681-0.11826 0.51941-0.1875 0.8125-0.1875zm-1.9688 0.5c-0.2828 0.40106-0.46875 0.87664-0.46875 1.4062 0 0.52961 0.18595 1.0364 0.46875 1.4375-0.65816-0.13369-1.1562-0.73821-1.1562-1.4375s0.49809-1.2726 1.1562-1.4062zm3.9688 0c0.658 0.134 1.156 0.707 1.156 1.406 0 0.69929-0.49809 1.3038-1.1562 1.4375 0.28794-0.40106 0.46875-0.90789 0.46875-1.4375s-0.18595-1.0052-0.46875-1.4062zm-3.3125 0.03125c0.52447 0.13883 0.92327 0.55385 1.0312 1.0938-0.53475-0.11312-0.95492-0.50678-1.0938-1.0312l0.0625-0.0625zm2.6562 0c0.02057 0.02571 0.04193 0.04193 0.0625 0.0625-0.13883 0.52447-0.559 0.92327-1.0938 1.0312 0.10798-0.5399 0.50678-0.94978 1.0312-1.0938zm-3.063 0.563c0.17482 0.3445 0.44189 0.62225 0.78125 0.8125-0.33936 0.19025-0.60643 0.49924-0.78125 0.84375-0.11826-0.24681-0.1875-0.55066-0.1875-0.84375s0.06924-0.56569 0.1875-0.8125zm3.4688 0c0.11826 0.24681 0.1875 0.51941 0.1875 0.8125s-0.06924 0.59694-0.1875 0.84375c-0.17482-0.3445-0.44189-0.6535-0.78125-0.84375 0.33936-0.19025 0.60643-0.468 0.78125-0.8125zm-2.0312 1.125c-0.10798 0.53475-0.50678 0.95492-1.0312 1.0938-0.02571-0.02057-0.04193-0.04193-0.0625-0.0625 0.13883-0.52447 0.55385-0.92327 1.0938-1.0312zm0.59375 0c0.53475 0.10798 0.95492 0.50678 1.0938 1.0312l-0.0625 0.0625c-0.525-0.138-0.924-0.558-1.032-1.093zm-0.3125 0.65625c0.19025 0.33936 0.49924 0.60643 0.84375 0.78125-0.25195 0.11826-0.55066 0.1875-0.84375 0.1875s-0.56569-0.06924-0.8125-0.1875c0.3445-0.17482 0.62225-0.44189 0.8125-0.78125zm-3.0625 0.40625c0.30337 0.30851 0.70891 0.51108 1.1562 0.5625 0.05656 0.45248 0.25399 0.85288 0.5625 1.1562-0.761-0.33936-1.3794-0.95776-1.7188-1.7188zm6.1562 0c-0.33936 0.761-0.95776 1.3794-1.7188 1.7188 0.30851-0.30337 0.51108-0.70891 0.5625-1.1562 0.45248-0.05656 0.85288-0.25399 1.1562-0.5625zm-4.5 0.625c0.40106 0.28794 0.87664 0.46875 1.4062 0.46875 0.52961 0 1.0364-0.18595 1.4375-0.46875-0.13369 0.65816-0.73821 1.1562-1.4375 1.1562s-1.2726-0.49809-1.4062-1.1562zm6.562 3.157c-2.5504 0-4.625 2.0746-4.625 4.625s2.0746 4.625 4.625 4.625 4.625-2.0746 4.625-4.625-2.0746-4.625-4.625-4.625zm0 0.5c2.2676 0 4.125 1.8574 4.125 4.125s-1.8574 4.125-4.125 4.125-4.125-1.8574-4.125-4.125 1.8574-4.125 4.125-4.125zm0 0.21875c-2.1493 0-3.9062 1.757-3.9062 3.9062 0 2.1493 1.757 3.9062 3.9062 3.9062 2.1493 0 3.9062-1.757 3.9062-3.9062 0-2.1493-1.757-3.9062-3.9062-3.9062zm0 0.75c0.69929 0 1.2726 0.49809 1.4062 1.1562-0.40106-0.2828-0.87664-0.4375-1.4062-0.4375-0.52961 0-1.0052 0.1547-1.4062 0.4375 0.133-0.658 0.707-1.156 1.406-1.156zm-1.375 0.0625c-0.30851 0.30337-0.50594 0.70891-0.5625 1.1562-0.45248 0.05656-0.85288 0.25399-1.1562 0.5625 0.33936-0.761 0.95776-1.3794 1.7188-1.7188zm2.75 0c0.761 0.33936 1.3794 0.95776 1.7188 1.7188-0.304-0.309-0.709-0.511-1.156-0.563-0.057-0.452-0.254-0.853-0.563-1.156zm-1.375 1.156c0.29309 0 0.56569 0.06924 0.8125 0.1875-0.3445 0.17482-0.62225 0.47314-0.8125 0.8125-0.19025-0.33936-0.468-0.63768-0.8125-0.8125 0.24681-0.11826 0.51941-0.1875 0.8125-0.1875zm-2 0.53125c-0.2828 0.40106-0.4375 0.87664-0.4375 1.4062 0 0.52961 0.1547 1.0052 0.4375 1.4062-0.65816-0.13369-1.1562-0.70696-1.1562-1.4062 0-0.69929 0.49809-1.2726 1.1562-1.4062zm3.3438 0c0.02057 0.02571 0.01068 0.04193 0.03125 0.0625-0.13883 0.52447-0.559 0.95452-1.0938 1.0625 0.10798-0.5399 0.53803-0.98103 1.0625-1.125zm0.65625 0c0.65816 0.13369 1.1562 0.70696 1.1562 1.4062 0 0.69929-0.49809 1.2726-1.1562 1.4062 0.28794-0.40106 0.4375-0.87664 0.4375-1.4062 0-0.52961-0.1547-1.0052-0.4375-1.4062zm-3.3438 0.03125c0.52447 0.13883 0.95452 0.55385 1.0625 1.0938-0.534-0.113-0.954-0.538-1.093-1.062l0.03125-0.03125zm-0.406 0.563c0.17482 0.3445 0.47314 0.62225 0.8125 0.8125-0.33936 0.19025-0.63768 0.468-0.8125 0.8125-0.11826-0.24681-0.1875-0.51941-0.1875-0.8125s0.06924-0.56569 0.1875-0.8125zm3.5 0c0.11826 0.24681 0.1875 0.51941 0.1875 0.8125s-0.06924 0.56569-0.1875 0.8125c-0.17482-0.3445-0.47314-0.62225-0.8125-0.8125 0.33936-0.19025 0.63768-0.468 0.8125-0.8125zm-2.031 1.094c-0.10798 0.53475-0.50678 0.95492-1.0312 1.0938-0.02571-0.02057-0.04193-0.01068-0.0625-0.03125 0.13883-0.52447 0.55385-0.95452 1.0938-1.0625zm0.5625 0c0.53475 0.10798 0.95492 0.53803 1.0938 1.0625l-0.03125 0.03125c-0.526-0.139-0.956-0.559-1.064-1.094zm-0.282 0.656c0.19025 0.33936 0.468 0.63768 0.8125 0.8125-0.25195 0.11826-0.51941 0.1875-0.8125 0.1875s-0.56569-0.06924-0.8125-0.1875c0.3445-0.17482 0.62225-0.47314 0.8125-0.8125zm-3.0938 0.4375c0.30337 0.30851 0.70891 0.51108 1.1562 0.5625 0.05656 0.45248 0.25399 0.85288 0.5625 1.1562-0.761-0.33936-1.3794-0.95776-1.7188-1.7188zm6.1875 0c-0.33936 0.761-0.95776 1.3794-1.7188 1.7188 0.30851-0.30337 0.51108-0.70891 0.5625-1.1562 0.45248-0.05656 0.85288-0.25399 1.1562-0.5625zm-4.5 0.625c0.40106 0.28794 0.87664 0.4375 1.4062 0.4375 0.52961 0 1.0052-0.1547 1.4062-0.4375-0.133 0.659-0.707 1.157-1.406 1.157-0.69929 0-1.2726-0.49809-1.4062-1.1562zm6.5625 3.1562c-2.5504 0-4.6562 2.0746-4.6562 4.625s2.1059 4.625 4.6562 4.625c2.5504 0 4.625-2.0746 4.625-4.625s-2.0746-4.625-4.625-4.625zm0 0.5c2.2676 0 4.0938 1.8574 4.0938 4.125s-1.8262 4.0938-4.0938 4.0938-4.125-1.8262-4.125-4.0938 1.8574-4.125 4.125-4.125zm0 0.21875c-2.1493 0-3.9062 1.757-3.9062 3.9062 0 2.1493 1.757 3.875 3.9062 3.875 2.1493 0 3.875-1.7257 3.875-3.875s-1.7257-3.9062-3.875-3.9062zm0 0.75c0.69929 0 1.2726 0.49809 1.4062 1.1562-0.40106-0.2828-0.87664-0.46875-1.4062-0.46875-0.52961 0-1.0364 0.18595-1.4375 0.46875 0.13369-0.65816 0.73821-1.1562 1.4375-1.1562zm-1.375 0.0625c-0.30851 0.30337-0.50594 0.70891-0.5625 1.1562-0.45248 0.05656-0.85288 0.25399-1.1562 0.5625 0.33936-0.761 0.95776-1.3794 1.7188-1.7188zm2.7188 0c0.761 0.33936 1.3794 0.95776 1.7188 1.7188-0.304-0.308-0.709-0.51-1.157-0.561-0.056-0.453-0.253-0.853-0.562-1.157zm-1.3438 1.1562c0.29309 0 0.56569 0.06924 0.8125 0.1875-0.3445 0.17482-0.62225 0.44189-0.8125 0.78125-0.19025-0.33936-0.49924-0.60643-0.84375-0.78125 0.24681-0.11826 0.55066-0.1875 0.84375-0.1875zm-2 0.5c-0.2828 0.40106-0.46875 0.90789-0.46875 1.4375s0.18595 1.0052 0.46875 1.4062c-0.658-0.132-1.156-0.706-1.156-1.405 0-0.69929 0.49809-1.3038 1.1562-1.4375zm3.9688 0c0.65816 0.13369 1.1562 0.73821 1.1562 1.4375s-0.49809 1.2726-1.1562 1.4062c0.28794-0.40106 0.46875-0.87664 0.46875-1.4062 0-0.52961-0.18595-1.0364-0.46875-1.4375zm-3.3125 0.03125c0.52447 0.13883 0.92327 0.5851 1.0312 1.125-0.53475-0.11312-0.95492-0.53803-1.0938-1.0625l0.0625-0.0625zm2.6562 0c0.02057 0.02571 0.04193 0.04193 0.0625 0.0625-0.13883 0.52447-0.559 0.92327-1.0938 1.0312 0.10798-0.5399 0.50678-0.94978 1.0312-1.0938zm-3.0625 0.5625c0.17482 0.3445 0.44189 0.6535 0.78125 0.84375-0.33936 0.19025-0.60643 0.468-0.78125 0.8125-0.11826-0.24681-0.1875-0.51941-0.1875-0.8125s0.06924-0.59694 0.1875-0.84375zm3.4688 0c0.11826 0.24681 0.1875 0.55066 0.1875 0.84375s-0.06924 0.56569-0.1875 0.8125c-0.17482-0.3445-0.44189-0.62225-0.78125-0.8125 0.33936-0.19025 0.60643-0.49924 0.78125-0.84375zm-2.0312 1.125c-0.10798 0.53475-0.50678 0.95492-1.0312 1.0938-0.02571-0.02057-0.04194-0.04193-0.0625-0.0625 0.13883-0.52447 0.55385-0.92327 1.0938-1.0312zm0.59375 0c0.53475 0.10798 0.95492 0.50678 1.0938 1.0312l-0.0625 0.0625c-0.526-0.137-0.925-0.557-1.032-1.092zm-0.28125 0.65625c0.19025 0.33936 0.468 0.60643 0.8125 0.78125-0.25195 0.11826-0.51941 0.1875-0.8125 0.1875s-0.59694-0.06924-0.84375-0.1875c0.3445-0.17482 0.6535-0.44189 0.84375-0.78125zm-3.095 0.439c0.30337 0.30851 0.70891 0.47983 1.1562 0.53125 0.05656 0.45248 0.25399 0.88413 0.5625 1.1875-0.761-0.34-1.379-0.958-1.719-1.719zm6.1562 0c-0.33936 0.761-0.95776 1.3794-1.7188 1.7188 0.30851-0.30337 0.51108-0.74016 0.5625-1.1875 0.45248-0.05656 0.85288-0.22274 1.1562-0.53125zm-4.5 0.59375c0.40106 0.28794 0.90789 0.46875 1.4375 0.46875s1.0052-0.18595 1.4062-0.46875c-0.13369 0.65816-0.70696 1.1562-1.4062 1.1562-0.69929 0-1.3038-0.49809-1.4375-1.1562z"/>
  <path id="path4054" style="opacity:.4;fill:#fff" d="m44.885 12.59c-0.17944 0.17944-0.2243 0.4486-0.2243 0.76262 0 0.58318 0.17944 1.3009 0.26916 1.5701 0 0 0.13458 3.1402 0.17944 3.4991-0.40374 0.04486-1.1215 0.08972-1.3907 0.17944h-0.35888c-0.76262 0.04486-1.4804 0.08972-1.7944 0.40374l-0.13458 0.13458 0.13458 0.17944c0.2243 0.26916 0.31402 1.0318 0.40374 1.8392 0.2243 1.6598 0.49346 3.7234 1.8392 4.5308l0.26916 0.13458v-0.31402s0.04486-0.13458 0.04486-0.31402c0-0.13458-0.04486-0.35888-0.08972-0.6729 0.35888 0.04486 1.1215 0.13458 1.3907 0.13458 0.04486 0.35888 1.2112 14.983 1.2112 14.983h0.4486s0.49346-14.445 0.49346-14.893c0.31402 0 1.7047 0.04486 2.1084 0.08972-0.08972 0.26916-0.4486 1.3907-0.4486 1.3907l0.62804-0.58318c0.17944-0.13458 4.0822-3.6785 3.5439-6.0112-0.17944-0.76262-0.80748-1.3009-1.8392-1.5701h-0.04486-0.04486c-0.58318 0-2.3776 0.04486-3.7234 0.13458 0.04486-1.1664 0.04486-1.7944 0.04486-2.1084v-0.35888-0.04485c0-0.2243 0.2243-0.53832 0.40374-0.76262 0.17944-0.26916 0.40374-0.49346 0.40374-0.76262 0-0.08972-0.04486-0.17944-0.08972-0.26916-0.26916-0.40374-2.243-1.4355-3.0953-1.5252-0.26916 0.04486-0.4486 0.08972-0.53832 0.2243zm0.04486 7.357h0.2243c0 0.40374 0.13458 3.2299 0.17944 3.6336-0.35888-0.04486-1.2112-0.13458-1.4804-0.13458-0.13458-0.58318-0.17944-1.2112-0.2243-1.8392-0.04485-0.53832-0.08972-1.0766-0.17944-1.5701 0.40374 0 1.4804-0.08972 1.4804-0.08972zm2.7364 1.3907s0.04485-1.0766 0.04485-1.4355c0.58318 0.08972 1.3458 0.13458 2.0635 0.13458h0.80748c0 0.17944-0.04486 0.40374-0.04486 0.40374-0.08972 0.98692-0.2243 2.1533-0.62804 3.3196-0.26916 0-1.929-0.08972-2.2878-0.13458 0-0.31402 0.04486-2.2878 0.04486-2.2878z"/>
  <path id="path4352" style="fill:#a31717" d="m44.885 11.59c-0.17944 0.17944-0.2243 0.4486-0.2243 0.76262 0 0.58318 0.17944 1.3009 0.26916 1.5701 0 0 0.13458 3.1402 0.17944 3.4991-0.40374 0.04486-1.1215 0.08972-1.3907 0.17944h-0.35888c-0.76262 0.04486-1.4804 0.08972-1.7944 0.40374l-0.13458 0.13458 0.13458 0.17944c0.2243 0.26916 0.31402 1.0318 0.40374 1.8392 0.2243 1.6598 0.49346 3.7234 1.8392 4.5308l0.26916 0.13458v-0.31402s0.04486-0.13458 0.04486-0.31402c0-0.13458-0.04486-0.35888-0.08972-0.6729 0.35888 0.04486 1.1215 0.13458 1.3907 0.13458 0.04486 0.35888 1.2112 14.983 1.2112 14.983h0.4486s0.49346-14.445 0.49346-14.893c0.31402 0 1.7047 0.04486 2.1084 0.08972-0.08972 0.26916-0.4486 1.3907-0.4486 1.3907l0.62804-0.58318c0.17944-0.13458 4.0822-3.6785 3.5439-6.0112-0.17944-0.76262-0.80748-1.3009-1.8392-1.5701h-0.04486-0.04486c-0.58318 0-2.3776 0.04486-3.7234 0.13458 0.04486-1.1664 0.04486-1.7944 0.04486-2.1084v-0.35888-0.04485c0-0.2243 0.2243-0.53832 0.40374-0.76262 0.17944-0.26916 0.40374-0.49346 0.40374-0.76262 0-0.08972-0.04486-0.17944-0.08972-0.26916-0.26916-0.40374-2.243-1.4355-3.0953-1.5252-0.26916 0.04486-0.4486 0.08972-0.53832 0.2243zm0.04486 7.357h0.2243c0 0.40374 0.13458 3.2299 0.17944 3.6336-0.35888-0.04486-1.2112-0.13458-1.4804-0.13458-0.13458-0.58318-0.17944-1.2112-0.2243-1.8392-0.04485-0.53832-0.08972-1.0766-0.17944-1.5701 0.40374 0 1.4804-0.08972 1.4804-0.08972zm2.7364 1.3907s0.04485-1.0766 0.04485-1.4355c0.58318 0.08972 1.3458 0.13458 2.0635 0.13458h0.80748c0 0.17944-0.04486 0.40374-0.04486 0.40374-0.08972 0.98692-0.2243 2.1533-0.62804 3.3196-0.26916 0-1.929-0.08972-2.2878-0.13458 0-0.31402 0.04486-2.2878 0.04486-2.2878z"/>
  <g id="g4024" transform="matrix(.42888 0 0 .42888 44.175 12.034)">
   <path id="path4356" style="fill:#004c00" d="m65.371 137.69c0 0.1-1.4 5.1-5.1 7.1-0.5-0.6-3.1-4.2-3.1-4.2l-0.9 0.5 4.4 11.4 1-0.2c0-2.2 1.1-3.5 2.4-4.9 1.8-2.1 3.8-4.5 2.3-9.7l-0.5-1.7-0.5 1.7z"/>
   <path id="path4358" style="fill:#004c00" d="m69.871 126.89s-0.5 4.9-1.9 7.8l-0.3 0.7 0.7 0.1c1.8 0.1 3.5-3.7 4.1-5.4 0.4 0 1.4 0.1 2 0.1-0.3 1.2-0.7 2.8-0.7 3.8 0 0.4 0 0.7 0.2 0.9l0.5 0.3c0.8 0.1 5.2-0.2 6.1-0.3v-1c-1.5-0.2-3.3-0.7-3.5-1.2-0.2-0.6 0.6-3 1.5-5l0.3-0.7-9-0.6v0.5z"/>
   <path id="path4360" style="fill:#004c00" d="m82.371 136.49-14.7 0.4s4.9 6.3 5.4 6.9c-2.6 2.4-4.9 4.2-7 5.4l-0.6 0.4 0.6 0.5c1.4 1.1 4.2-0.2 8.6-4.2 2.3 3.2 3.8 5.5 4.3 6.9l0.2 0.7 2.7-2.2v-0.2-0.3c0-0.5 0-2.1-4.7-7.3 3-3.1 5.6-6 5.6-6.1l0.7-0.9h-1.1zm-4.7 2.8c-0.8 0.9-1.7 1.8-2.1 2.3l-1.9-1.9c1.1-0.2 2.7-0.3 4-0.4z"/>
   <path id="path4362" style="fill:#004c00" d="m71.471 115.09-1.7 1.7-4.5-5.2h-0.2c-0.7 0-4.3 0.1-5.2 1.4-0.1 0.1-0.1 0.3-0.1 0.4v0.2c0.1 0.5 0.7 0.7 1.8 1.1 0.5 0.2 1.2 0.5 1.5 0.7-1.1 2.3-2.3 4.4-3.7 6.4-0.7-0.4-4.1-2.5-4.1-2.5l-0.6 0.8s2.8 3.1 3.3 3.6c-2.8 3.5-6.2 6.6-10.4 9.5l0.4 0.9c12.8-3.3 21.9-16.2 22.1-16.5l2.3 2.2c-3.2 2-6.2 3.8-6.2 3.8l0.5 0.9c2-0.8 4.8-1.9 7.6-3l11.1 10.8 10.8-3.8-0.1-1c-5.1-0.2-12-4.4-17.1-7.9 2.9-1 5.3-1.7 6.4-1.6 0.7 0 0.9-0.3 1-0.5 0.4-1.1-3.5-4.4-11.4-9.7l-0.5-0.3-0.2 0.6m1 8.8c0.7-1.2 1.6-2.9 1.9-3.3 0.5 0.3 1.8 1.1 2.5 1.6-0.4 0.2-1.9 1.1-3.7 2.3-0.2-0.2-0.4-0.4-0.7-0.6z"/>
   <path id="path4364" style="fill:#004c00" d="m67.271 125.29-6.2 3.5 0.3 0.9s1.1-0.1 1.8-0.1c-0.2 0.7-0.6 1.8-1.1 3.2-0.6 0-5-0.2-5-0.2l0.8 0.9c0.3 0.3 1.6 1.7 2.7 1.7 0 0 0.3-0.1 0.6-0.1-0.8 2-1.7 3.7-2.6 5l0.7 0.7c1.5-1.2 3.2-3.4 4.8-6.4 0.3-0.1 1.2-0.4 1.2-0.4l-0.1-1h-0.4c1.8-3.6 3.1-7.1 3.1-7.1l0.5-1.3-1.1 0.7z"/>
  </g>
  <g id="g4021" transform="matrix(.43093 0 0 .43093 86.922 52.563)">
   <path id="path4308" style="fill:#2c2c51" d="m-161.75 9.2732c0.4 0.5 0.9 2.3 0.9 8.6v2.8c-3.4 0.5-6.3 1-6.8 1.2l-0.6 0.2 2.8 2.7 0.2-0.1c1.1-0.3 2.6-0.5 4.2-0.7 0 0.7-0.4 7.3-0.4 7.9-4.9 0.4-9.2 1.1-12.7 1.9-3 0.8-4.8 2.6-5.2 5.4-0.1 0.4-0.1 0.9-0.1 1.4 0 7.1 6.9 16.9 7 16.9l0.8 0.5-0.3-0.9c0-0.1-2.8-9.4-2.8-15.6 0-1.8 0.2-3.3 0.8-4.3 0.4-0.6 0.8-0.9 1.4-1 1.3-0.2 2.7-0.4 4-0.6 0 0 3.1 4 3.7 4.7-0.5 0.1-1.4 0.3-1.4 0.3v0.3l0.2 2.2 0.4-0.1c0.6-0.2 1.8-0.5 3.2-0.7 0 0.6 0.1 2.4 0.2 2.9-1.7 0.5-3.2 1.1-3.8 1.4l-0.4 0.2 1.5 1.6 0.2-0.1c0.7-0.3 1.7-0.6 2.7-0.9 0 0.7 0.3 5.6 0.3 5.6h0.7l1.2-6c1.8-0.2 3.5-0.1 4.8 0.2l0.4 0.1v-3l-0.2-0.1c-0.8-0.4-2.3-0.4-4.5 0.1 0.1-0.7 0.4-2.1 0.5-2.5 1.6-0.1 2.9-0.2 3.8-0.1l0.5 0.1-0.7-2.6s-0.9 0-1.4 0.1c0.8-0.9 3.5-4.4 3.7-4.6 0.3 0 3.9 0.1 3.9 0.1 1.6 0.1 3 0.7 4.1 2 1.3 1.5 2 3.9 2 6.3 0 0.5 0 1.1-0.1 1.6l-0.1 0.7c-0.7 5.1-1.3 8.8-3.1 9.6-1.2 0.5-3.1-0.3-5.9-2.4l-0.5 0.5 5.5 9.6 0.3-0.1c6.7-2.4 7.7-3.8 10.4-15.4 1.2-5.1 0.8-9.1-1.3-11.8-2.5-3.3-6.3-3.7-6.5-3.7-0.1 0-6.7-0.3-14.6 0.2 0.2-0.8 2-7.5 2.1-7.9 2.5 0 4.7 0.1 5.7 0.5l0.4 0.1 0.4-4.7h-0.4c-1.1 0-2.8 0.1-5.1 0.3 1.3-4.4 1.9-5.8 2.1-6.2l0.2-0.3-8.1-4.7-0.2 0.3zm4.4 25.3c-0.1 0.7-0.7 4.3-0.7 4.7h-0.1c0-0.1 0.1-0.4 0.1-0.4l-4.4 0.4v0.6c-0.4 0.1-1 0.2-1.4 0.2v-5.1c2.2-0.1 4.3-0.3 6.5-0.4z"/>
  </g>
  <g id="g4026" transform="matrix(.46747 0 0 .46747 30.447 -8.3249)">
   <g id="use3830" transform="translate(18.409 161.82)">
    <path id="path3574" style="fill:#a81212" d="m18.01 0.14s-4.39 3.33-4.78 3.63c-0.32-0.33-3.2-3.27-3.2-3.27l2.22 8.92 0.6-0.03c0.75-4.76 4.35-6.63 5.33-7.05 0.14 0.2 0.26 0.42 0.26 0.72 0 0.09-0.01 0.18-0.02 0.28-0.21 1.67-2.39 4.64-6.68 7.21l-0.31 0.18 0.81 1.01 0.2-0.06c0.06-0.02 6.59-2.06 10.36-1.88l1.14 0.05-0.96-0.63c-0.08-0.05-1.95-1.25-3.93-1.03 0.28-0.63 2.26-2.56 4.15-4.16l0.31-0.26-5.32-3.77-0.18 0.14z"/>
    <path id="path3576" style="fill:#a81212" d="m33.78 24.64c-0.17-0.17-4.21-4.28-5.63-5.01-0.53-0.27-1.71-0.18-5.75 0.16 0 0-0.17 0.01-0.43 0.04 1.19-2.79 2.72-5.86 3.57-6.25l0.55-0.25-2.13-2.09-0.21 0.03c-5.11 0.87-13.08 2.09-14.11 1.9l-0.35-0.07-0.12 0.33c-0.2 0.56 0.32 4.93 0.86 7.37-4.58 0.4-10.03 0.86-10.03 0.86l0.3 0.56 0.68 1.27 0.32-0.09c1.72-0.51 2.52-0.57 4.6-0.54 0.19 0.49 2.6 6.77 2.6 6.77l0.79-0.2s-0.69-5.69-0.8-6.52c0.78 0.02 7.99 0.22 9.67 0.26-1.09 0.92-3.56 3.02-3.56 3.02l0.4 0.71s5.15-1.76 5.41-1.85c0.25 0.1 4.3 1.65 4.3 1.65s-2.13-2.57-2.81-3.38c3.78 0.2 4.75 0.42 5.01 0.74 0.33 0.39 0.5 0.96 0.5 1.6 0 1.16-0.58 2.57-1.8 3.73-1.82-0.46-5.17-2.34-5.21-2.36l-0.52 0.62 5.08 6.35 0.24-0.05c3.82-0.78 8.44-8.48 8.63-8.81l0.17-0.27-0.22-0.23zm-12.76-7.99c-1.22 0.16-2.77 0.37-3.21 0.43v-2c1.62-0.13 3.11-0.25 3.49-0.29-0.05 0.27-0.15 0.98-0.28 1.86zm-4.93-1.43c0.02 0.84 0.04 1.75 0.05 2.06-1.41 0.16-2.6 0.26-3.55 0.3 0.1-0.62 0.19-1.31 0.3-2.1 0.24-0.02 1.62-0.13 3.2-0.26zm-4.06 5.43c0.08-0.35 0.17-0.76 0.26-1.24 1.3-0.24 2.61-0.46 3.89-0.63 0.01 0.48 0.03 1.1 0.04 1.52-0.25 0.01-1.96 0.16-4.19 0.35zm5.77-0.48v-1.6c0.98-0.1 1.36-0.08 1.96-0.02l0.96 0.06c-0.07 0.46-0.14 0.92-0.2 1.35-1.09 0.08-2.33 0.18-2.72 0.21z"/>
   </g>
   <path id="path4268" style="fill:#3d3d6f" d="m48.009 144.42s-2.9 3.2-3.1 3.4c-3.2 0.7-8.4 1.2-8.8-0.4-0.5-1.9 3.4-10.4 4.9-13.6l0.2-0.3-5.6-2.8-0.1 0.4c-0.1 0.2-0.4 1.3-0.9 3h-4.5c0-0.4-0.1-1.3-0.1-1.3-1.4-2.3-7.4-0.7-8.1-0.6l-0.4 0.1 0.2 0.4c0.2 0.4 0.4 0.9 0.5 1.4h-3.8l1.9 3.6s1.8-0.3 2.4-0.4v0.7c0 6.2-2.7 14.1-2.7 14.2l0.6 0.3c0.3-0.4 7.9-9.5 9.3-16.4 0.2 0 2.4-0.4 4.4-0.7-1.2 4.7-2.6 12.1-0.3 14.8 3.4 4 16.6 3.7 17.1 3.5l0.3-0.1-3.4-9.2z"/>
  </g>
  <path id="path4038" style="opacity:.4;fill:#fff" d="m13.125 12.706c-1.3005 0-2.3438 0.46595-2.3438 1.0312 0 0.40006 0.53819 0.74101 1.3125 0.90625v3.0312c-0.77431 0.16524-1.3125 0.50619-1.3125 0.90625s0.53819 0.74101 1.3125 0.90625v3.0312c-0.77431 0.16959-1.3125 0.50619-1.3125 0.90625 0 0.5653 1.0432 1.0312 2.3438 1.0312 1.3005 0 2.3438-0.46595 2.3438-1.0312 0-0.40006-0.53819-0.74101-1.3125-0.90625v-3.0312c0.77431-0.16959 1.3125-0.50619 1.3125-0.90625s-0.53819-0.74101-1.3125-0.90625v-3.0312c0.77431-0.16524 1.3125-0.50619 1.3125-0.90625 0-0.5653-1.0432-1.0312-2.3438-1.0312zm11.75 0c-1.3005 0-2.3438 0.46595-2.3438 1.0312 0 0.40006 0.53819 0.74101 1.3125 0.90625v3.0312c-0.77431 0.16524-1.3125 0.50619-1.3125 0.90625s0.53819 0.74101 1.3125 0.90625v3.0312c-0.77431 0.16959-1.3125 0.50619-1.3125 0.90625 0 0.5653 1.0432 1.0312 2.3438 1.0312 1.3005 0 2.3438-0.46595 2.3438-1.0312 0-0.40006-0.53819-0.74101-1.3125-0.90625v-3.0312c0.77431-0.16959 1.3125-0.50619 1.3125-0.90625s-0.53819-0.74101-1.3125-0.90625v-3.0312c0.77431-0.16524 1.3125-0.50619 1.3125-0.90625 0-0.5653-1.0432-1.0312-2.3438-1.0312zm-11.75 0.625c0.57753 0 1.0312 0.19318 1.0312 0.40625 0 0.17829-0.33206 0.30026-0.78125 0.34375v2.5938c0 0.20003-0.10883 0.375-0.25 0.375s-0.25-0.17497-0.25-0.375v-2.5938c-0.44919-0.04349-0.78125-0.16546-0.78125-0.34375 0-0.21308 0.45372-0.40625 1.0312-0.40625zm11.75 0c0.57753 0 1.0312 0.19318 1.0312 0.40625 0 0.17829-0.33206 0.30026-0.78125 0.34375v2.5938c0 0.20003-0.10883 0.375-0.25 0.375s-0.25-0.17497-0.25-0.375v-2.5938c-0.44919-0.04349-0.78125-0.16546-0.78125-0.34375 0-0.21308 0.45372-0.40625 1.0312-0.40625zm-11.75 4.8438c0.7957 0 1.4375 0.19317 1.4375 0.40625s-0.6418 0.375-1.4375 0.375-1.4375-0.16192-1.4375-0.375 0.6418-0.40625 1.4375-0.40625zm11.75 0c0.7957 0 1.4375 0.19317 1.4375 0.40625s-0.6418 0.375-1.4375 0.375-1.4375-0.16192-1.4375-0.375 0.6418-0.40625 1.4375-0.40625zm-11.75 1.9375c0.14117 0 0.25 0.14372 0.25 0.34375v2.5938c0.44919 0.04349 0.78125 0.19671 0.78125 0.375 0 0.21308-0.45372 0.375-1.0312 0.375-0.57752 0-1.0312-0.16192-1.0312-0.375 0-0.17829 0.33206-0.33152 0.78125-0.375v-2.5938c0-0.20003 0.10883-0.34375 0.25-0.34375zm11.75 0c0.14117 0 0.25 0.14372 0.25 0.34375v2.5938c0.44919 0.04349 0.78125 0.19671 0.78125 0.375 0 0.21308-0.45372 0.375-1.0312 0.375-0.57753 0-1.0312-0.16192-1.0312-0.375 0-0.17829 0.33206-0.33152 0.78125-0.375v-2.5938c0-0.20003 0.10883-0.34375 0.25-0.34375zm-5.875 0.813c-1.3005 0-2.3438 0.46595-2.3438 1.0312 0 0.40006 0.53819 0.74101 1.3125 0.90625v3.0312c-0.77431 0.16524-1.3125 0.50619-1.3125 0.90625s0.53819 0.74101 1.3125 0.90625v3.0312c-0.77431 0.16959-1.3125 0.50619-1.3125 0.90625 0 0.5653 1.0432 1.0312 2.3438 1.0312 1.3005 0 2.3438-0.46595 2.3438-1.0312 0-0.40006-0.53819-0.74101-1.3125-0.90625v-3.0312c0.77431-0.16959 1.3125-0.50619 1.3125-0.90625s-0.53819-0.74101-1.3125-0.90625v-3.0312c0.77431-0.16524 1.3125-0.50619 1.3125-0.90625 0-0.5653-1.0432-1.0312-2.3438-1.0312zm0 0.65625c0.57753 0 1.0312 0.16192 1.0312 0.375 0 0.17829-0.33206 0.33152-0.78125 0.375v2.5625c0 0.20003-0.10883 0.375-0.25 0.375s-0.25-0.17497-0.25-0.375v-2.5625c-0.44919-0.04348-0.78125-0.19671-0.78125-0.375 0-0.21308 0.45372-0.375 1.0312-0.375zm0 4.8438c0.7957 0 1.4375 0.16192 1.4375 0.375s-0.6418 0.375-1.4375 0.375-1.4375-0.16192-1.4375-0.375 0.6418-0.375 1.4375-0.375zm0 1.9062c0.14117 0 0.25 0.17497 0.25 0.375v2.5625c0.44919 0.04348 0.78125 0.19671 0.78125 0.375 0 0.21308-0.45372 0.375-1.0312 0.375-0.57753 0-1.0312-0.16192-1.0312-0.375 0-0.17829 0.33206-0.33152 0.78125-0.375v-2.5625c0-0.20003 0.10883-0.375 0.25-0.375zm-5.875 0.8125c-1.3005 0-2.3438 0.46595-2.3438 1.0312 0 0.40006 0.53819 0.74101 1.3125 0.90625v3.0312c-0.77431 0.16524-1.3125 0.50619-1.3125 0.90625s0.53819 0.74101 1.3125 0.90625v3.0312c-0.77431 0.16959-1.3125 0.50619-1.3125 0.90625 0 0.5653 1.0432 1.0312 2.3438 1.0312 1.3005 0 2.3438-0.46595 2.3438-1.0312 0-0.40006-0.53819-0.74101-1.3125-0.90625v-3.0312c0.77431-0.16959 1.3125-0.50619 1.3125-0.90625s-0.53819-0.74101-1.3125-0.90625v-3.0312c0.77431-0.16524 1.3125-0.50619 1.3125-0.90625 0-0.5653-1.0432-1.0312-2.3438-1.0312zm11.75 0c-1.3005 0-2.3438 0.46595-2.3438 1.0312 0 0.40006 0.53819 0.74101 1.3125 0.90625v3.0312c-0.77431 0.16524-1.3125 0.50619-1.3125 0.90625s0.53819 0.74101 1.3125 0.90625v3.0312c-0.77431 0.16959-1.3125 0.50619-1.3125 0.90625 0 0.5653 1.0432 1.0312 2.3438 1.0312 1.3005 0 2.3438-0.46595 2.3438-1.0312 0-0.40006-0.53819-0.74101-1.3125-0.90625v-3.0312c0.77431-0.16959 1.3125-0.50619 1.3125-0.90625s-0.53819-0.74101-1.3125-0.90625v-3.0312c0.77431-0.16524 1.3125-0.50619 1.3125-0.90625 0-0.5653-1.0432-1.0312-2.3438-1.0312zm-11.75 0.65625c0.57753 0 1.0312 0.16192 1.0312 0.375 0 0.17829-0.33206 0.33152-0.78125 0.375v2.5938c0 0.20003-0.10883 0.34375-0.25 0.34375s-0.25-0.14372-0.25-0.34375v-2.5938c-0.44919-0.04349-0.78125-0.19671-0.78125-0.375 0-0.21308 0.45372-0.375 1.0312-0.375zm11.75 0c0.57753 0 1.0312 0.16192 1.0312 0.375 0 0.17829-0.33206 0.33152-0.78125 0.375v2.5938c0 0.20003-0.10883 0.34375-0.25 0.34375s-0.25-0.14372-0.25-0.34375v-2.5938c-0.44919-0.04349-0.78125-0.19671-0.78125-0.375 0-0.21308 0.45372-0.375 1.0312-0.375zm-11.75 4.844c0.7957 0 1.4375 0.16192 1.4375 0.375s-0.6418 0.40625-1.4375 0.40625-1.4375-0.19317-1.4375-0.40625 0.6418-0.375 1.4375-0.375zm11.75 0c0.7957 0 1.4375 0.16192 1.4375 0.375s-0.6418 0.40625-1.4375 0.40625-1.4375-0.19317-1.4375-0.40625 0.6418-0.375 1.4375-0.375zm-11.75 1.9062c0.14117 0 0.25 0.17497 0.25 0.375v2.5938c0.44919 0.04348 0.78125 0.16546 0.78125 0.34375 0 0.21308-0.45372 0.40625-1.0312 0.40625-0.57752 0-1.0312-0.19318-1.0312-0.40625 0-0.17829 0.33206-0.30026 0.78125-0.34375v-2.5938c0-0.20003 0.10883-0.375 0.25-0.375zm11.75 0c0.14117 0 0.25 0.17497 0.25 0.375v2.5938c0.44919 0.04348 0.78125 0.16546 0.78125 0.34375 0 0.21308-0.45372 0.40625-1.0312 0.40625-0.57753 0-1.0312-0.19318-1.0312-0.40625 0-0.17829 0.33206-0.30026 0.78125-0.34375v-2.5938c0-0.20003 0.10883-0.375 0.25-0.375z"/>
  <g id="g4008" transform="matrix(.47011 0 0 .47011 -103.77 -42.357)">
   <path id="use4098" style="fill:#0c6c0c" d="m253.66 127.91c0-0.851-1.1375-1.5818-2.7846-1.9332v-6.4472c1.6471-0.3515 2.7846-1.0822 2.7846-1.9332 0-1.2025-2.2386-2.1738-5.005-2.1738s-5.005 0.97125-5.005 2.1738c0 0.851 1.1375 1.5818 2.7846 1.9332v6.4472c-1.6471 0.3515-2.7846 1.0822-2.7846 1.9332s1.1375 1.5818 2.7846 1.9332v6.438c-1.6471 0.36075-2.7846 1.0915-2.7846 1.9425 0 1.2025 2.2386 2.1738 5.005 2.1738s5.005-0.97125 5.005-2.1738c0-0.851-1.1375-1.5818-2.7846-1.9332v-6.438c1.6471-0.36075 2.7846-1.0915 2.7846-1.9425zm-5.005-11.128c1.2285 0 2.2204 0.36075 2.2204 0.814 0 0.37925-0.7098 0.69375-1.6653 0.78625v5.4945c0 0.4255-0.2548 0.777-0.5551 0.777s-0.5551-0.3515-0.5551-0.777v-5.4945c-0.9555-0.0925-1.6653-0.407-1.6653-0.78625 0-0.45325 0.9919-0.814 2.2204-0.814zm0 22.256c-1.2285 0-2.2204-0.36075-2.2204-0.814 0-0.37925 0.7098-0.69375 1.6653-0.78625v-5.4945c0-0.4255 0.2548-0.777 0.5551-0.777s0.5551 0.3515 0.5551 0.777v5.4945c0.9555 0.0925 1.6653 0.407 1.6653 0.78625 0 0.45325-0.9919 0.814-2.2204 0.814zm0-10.314c-1.6926 0-3.0576-0.36075-3.0576-0.814s1.365-0.814 3.0576-0.814 3.0576 0.36075 3.0576 0.814-1.365 0.814-3.0576 0.814z"/>
   <path id="use4100" style="fill:#0c6c0c" d="m253.66 162.91c0-0.851-1.1375-1.5818-2.7846-1.9332v-6.4472c1.6471-0.3515 2.7846-1.0822 2.7846-1.9332 0-1.2025-2.2386-2.1738-5.005-2.1738s-5.005 0.97125-5.005 2.1738c0 0.851 1.1375 1.5818 2.7846 1.9332v6.4472c-1.6471 0.3515-2.7846 1.0822-2.7846 1.9332s1.1375 1.5818 2.7846 1.9332v6.438c-1.6471 0.36075-2.7846 1.0915-2.7846 1.9425 0 1.2025 2.2386 2.1738 5.005 2.1738s5.005-0.97125 5.005-2.1738c0-0.851-1.1375-1.5818-2.7846-1.9332v-6.438c1.6471-0.36075 2.7846-1.0915 2.7846-1.9425zm-5.005-11.128c1.2285 0 2.2204 0.36075 2.2204 0.814 0 0.37925-0.7098 0.69375-1.6653 0.78625v5.4945c0 0.4255-0.2548 0.777-0.5551 0.777s-0.5551-0.3515-0.5551-0.777v-5.4945c-0.9555-0.0925-1.6653-0.407-1.6653-0.78625 0-0.45325 0.9919-0.814 2.2204-0.814zm0 22.256c-1.2285 0-2.2204-0.36075-2.2204-0.814 0-0.37925 0.7098-0.69375 1.6653-0.78625v-5.4945c0-0.4255 0.2548-0.777 0.5551-0.777s0.5551 0.3515 0.5551 0.777v5.4945c0.9555 0.0925 1.6653 0.407 1.6653 0.78625 0 0.45325-0.9919 0.814-2.2204 0.814zm0-10.314c-1.6926 0-3.0576-0.36075-3.0576-0.814s1.365-0.814 3.0576-0.814 3.0576 0.36075 3.0576 0.814-1.365 0.814-3.0576 0.814z"/>
   <path id="use4108" style="fill:#9c0000" d="m266.16 145.41c0-0.851-1.1375-1.5818-2.7846-1.9332v-6.4472c1.6471-0.3515 2.7846-1.0822 2.7846-1.9332 0-1.2025-2.2386-2.1738-5.005-2.1738s-5.005 0.97125-5.005 2.1738c0 0.851 1.1375 1.5818 2.7846 1.9332v6.4472c-1.6471 0.3515-2.7846 1.0822-2.7846 1.9332s1.1375 1.5818 2.7846 1.9332v6.438c-1.6471 0.36075-2.7846 1.0915-2.7846 1.9425 0 1.2025 2.2386 2.1738 5.005 2.1738s5.005-0.97125 5.005-2.1738c0-0.851-1.1375-1.5818-2.7846-1.9332v-6.438c1.6471-0.36075 2.7846-1.0915 2.7846-1.9425zm-5.005-11.128c1.2285 0 2.2204 0.36075 2.2204 0.814 0 0.37925-0.7098 0.69375-1.6653 0.78625v5.4945c0 0.4255-0.2548 0.777-0.5551 0.777s-0.5551-0.3515-0.5551-0.777v-5.4945c-0.9555-0.0925-1.6653-0.407-1.6653-0.78625 0-0.45325 0.9919-0.814 2.2204-0.814zm0 22.256c-1.2285 0-2.2204-0.36075-2.2204-0.814 0-0.37925 0.7098-0.69375 1.6653-0.78625v-5.4945c0-0.4255 0.2548-0.777 0.5551-0.777s0.5551 0.3515 0.5551 0.777v5.4945c0.9555 0.0925 1.6653 0.407 1.6653 0.78625 0 0.45325-0.9919 0.814-2.2204 0.814zm0-10.314c-1.6926 0-3.0576-0.36075-3.0576-0.814s1.365-0.814 3.0576-0.814 3.0576 0.36075 3.0576 0.814-1.365 0.814-3.0576 0.814z"/>
   <path id="use4110" style="fill:#0c6c0c" d="m278.66 127.91c0-0.851-1.1375-1.5818-2.7846-1.9332v-6.4472c1.6471-0.3515 2.7846-1.0822 2.7846-1.9332 0-1.2025-2.2386-2.1738-5.005-2.1738s-5.005 0.97125-5.005 2.1738c0 0.851 1.1375 1.5818 2.7846 1.9332v6.4472c-1.6471 0.3515-2.7846 1.0822-2.7846 1.9332s1.1375 1.5818 2.7846 1.9332v6.438c-1.6471 0.36075-2.7846 1.0915-2.7846 1.9425 0 1.2025 2.2386 2.1738 5.005 2.1738s5.005-0.97125 5.005-2.1738c0-0.851-1.1375-1.5818-2.7846-1.9332v-6.438c1.6471-0.36075 2.7846-1.0915 2.7846-1.9425zm-5.005-11.128c1.2285 0 2.2204 0.36075 2.2204 0.814 0 0.37925-0.7098 0.69375-1.6653 0.78625v5.4945c0 0.4255-0.2548 0.777-0.5551 0.777s-0.5551-0.3515-0.5551-0.777v-5.4945c-0.9555-0.0925-1.6653-0.407-1.6653-0.78625 0-0.45325 0.9919-0.814 2.2204-0.814zm0 22.256c-1.2285 0-2.2204-0.36075-2.2204-0.814 0-0.37925 0.7098-0.69375 1.6653-0.78625v-5.4945c0-0.4255 0.2548-0.777 0.5551-0.777s0.5551 0.3515 0.5551 0.777v5.4945c0.9555 0.0925 1.6653 0.407 1.6653 0.78625 0 0.45325-0.9919 0.814-2.2204 0.814zm0-10.314c-1.6926 0-3.0576-0.36075-3.0576-0.814s1.365-0.814 3.0576-0.814 3.0576 0.36075 3.0576 0.814-1.365 0.814-3.0576 0.814z"/>
   <path id="use4112" style="fill:#0c6c0c" d="m278.66 162.91c0-0.851-1.1375-1.5818-2.7846-1.9332v-6.4472c1.6471-0.3515 2.7846-1.0822 2.7846-1.9332 0-1.2025-2.2386-2.1738-5.005-2.1738s-5.005 0.97125-5.005 2.1738c0 0.851 1.1375 1.5818 2.7846 1.9332v6.4472c-1.6471 0.3515-2.7846 1.0822-2.7846 1.9332s1.1375 1.5818 2.7846 1.9332v6.438c-1.6471 0.36075-2.7846 1.0915-2.7846 1.9425 0 1.2025 2.2386 2.1738 5.005 2.1738s5.005-0.97125 5.005-2.1738c0-0.851-1.1375-1.5818-2.7846-1.9332v-6.438c1.6471-0.36075 2.7846-1.0915 2.7846-1.9425zm-5.005-11.128c1.2285 0 2.2204 0.36075 2.2204 0.814 0 0.37925-0.7098 0.69375-1.6653 0.78625v5.4945c0 0.4255-0.2548 0.777-0.5551 0.777s-0.5551-0.3515-0.5551-0.777v-5.4945c-0.9555-0.0925-1.6653-0.407-1.6653-0.78625 0-0.45325 0.9919-0.814 2.2204-0.814zm0 22.256c-1.2285 0-2.2204-0.36075-2.2204-0.814 0-0.37925 0.7098-0.69375 1.6653-0.78625v-5.4945c0-0.4255 0.2548-0.777 0.5551-0.777s0.5551 0.3515 0.5551 0.777v5.4945c0.9555 0.0925 1.6653 0.407 1.6653 0.78625 0 0.45325-0.9919 0.814-2.2204 0.814zm0-10.314c-1.6926 0-3.0576-0.36075-3.0576-0.814s1.365-0.814 3.0576-0.814 3.0576 0.36075 3.0576 0.814-1.365 0.814-3.0576 0.814z"/>
  </g>
  <g id="g4015" transform="matrix(.51419 0 0 .51419 113.83 -56.387)">
   <g id="use3890" transform="translate(-94.522 132.23)">
    <path id="path3728-4" style="fill:#10106c" d="m9 1.42c-4.18 0-7.58 3.4-7.58 7.58s3.4 7.58 7.58 7.58 7.58-3.4 7.58-7.58-3.4-7.58-7.58-7.58zm0 13.69c-1.36 0-2.49-0.97-2.75-2.25 0.78 0.56 1.72 0.89 2.75 0.89s1.97-0.34 2.75-0.89c-0.26 1.28-1.39 2.25-2.75 2.25zm0-12.22c1.36 0 2.49 0.97 2.75 2.25-0.78-0.55-1.72-0.89-2.75-0.89s-1.97 0.34-2.75 0.89c0.26-1.28 1.39-2.25 2.75-2.25zm3.75 6.11c0 0.57-0.14 1.11-0.37 1.59-0.34-0.67-0.87-1.22-1.53-1.59 0.66-0.37 1.19-0.92 1.53-1.59 0.23 0.48 0.37 1.02 0.37 1.59zm-7.5 0c0-0.57 0.14-1.11 0.37-1.59 0.34 0.67 0.87 1.22 1.53 1.59-0.66 0.37-1.19 0.92-1.53 1.59-0.23-0.48-0.37-1.02-0.37-1.59zm6.34 2.7c-1.02-0.27-1.82-1.1-2.03-2.14 1.04 0.21 1.87 1.01 2.14 2.03l-0.11 0.11zm-5.29-0.11c0.27-1.02 1.1-1.82 2.15-2.03-0.21 1.04-1.01 1.87-2.03 2.14-0.05-0.04-0.08-0.07-0.12-0.11zm0.11-5.29c1.02 0.27 1.82 1.1 2.03 2.15-1.04-0.22-1.87-1.02-2.14-2.04l0.11-0.11zm5.29 0.11c-0.27 1.02-1.1 1.82-2.14 2.03 0.21-1.05 1.01-1.87 2.03-2.15 0.04 0.05 0.07 0.08 0.11 0.12zm-2.7 0.74c-0.37-0.66-0.92-1.19-1.59-1.53 0.48-0.23 1.02-0.37 1.59-0.37s1.11 0.14 1.59 0.37c-0.67 0.34-1.22 0.87-1.59 1.53zm0 3.7c0.37 0.66 0.92 1.19 1.59 1.53-0.49 0.23-1.02 0.37-1.59 0.37s-1.11-0.14-1.59-0.37c0.67-0.34 1.22-0.87 1.59-1.53zm-3.86 0.9c-1.28-0.26-2.25-1.39-2.25-2.75s0.97-2.49 2.25-2.75c-0.55 0.78-0.89 1.72-0.89 2.75s0.34 1.97 0.89 2.75zm7.72-5.5c1.28 0.26 2.25 1.39 2.25 2.75s-0.97 2.49-2.25 2.75c0.56-0.78 0.89-1.72 0.89-2.75s-0.34-1.97-0.89-2.75zm2.15 0.08c-0.59-0.6-1.38-0.99-2.25-1.09-0.11-0.88-0.49-1.66-1.09-2.25 1.48 0.66 2.68 1.86 3.34 3.34zm-8.68-3.34c-0.6 0.59-0.98 1.38-1.09 2.25-0.88 0.11-1.66 0.49-2.25 1.09 0.66-1.48 1.86-2.68 3.34-3.34zm-3.34 8.68c0.59 0.6 1.38 0.99 2.25 1.09 0.11 0.88 0.49 1.66 1.09 2.25-1.48-0.66-2.68-1.86-3.34-3.34zm8.68 3.34c0.6-0.59 0.99-1.38 1.09-2.25 0.88-0.11 1.66-0.49 2.25-1.09-0.66 1.48-1.86 2.68-3.34 3.34z"/>
    <path id="path3730" style="fill:#2d2d4f" d="m9 0c-4.96 0-9 4.04-9 9s4.04 9 9 9 9-4.04 9-9-4.04-9-9-9zm0 17c-4.41 0-8-3.59-8-8s3.59-8 8-8 8 3.59 8 8-3.59 8-8 8z"/>
   </g>
   <g id="use3894" transform="translate(-84.522 151.23)">
    <path id="path3722" style="fill:#9c0000" d="m9 1.42c-4.18 0-7.58 3.4-7.58 7.58s3.4 7.58 7.58 7.58 7.58-3.4 7.58-7.58-3.4-7.58-7.58-7.58zm0 13.69c-1.36 0-2.49-0.97-2.75-2.25 0.78 0.56 1.72 0.89 2.75 0.89s1.97-0.34 2.75-0.89c-0.26 1.28-1.39 2.25-2.75 2.25zm0-12.22c1.36 0 2.49 0.97 2.75 2.25-0.78-0.55-1.72-0.89-2.75-0.89s-1.97 0.34-2.75 0.89c0.26-1.28 1.39-2.25 2.75-2.25zm3.75 6.11c0 0.57-0.14 1.11-0.37 1.59-0.34-0.67-0.87-1.22-1.53-1.59 0.66-0.37 1.19-0.92 1.53-1.59 0.23 0.48 0.37 1.02 0.37 1.59zm-7.5 0c0-0.57 0.14-1.11 0.37-1.59 0.34 0.67 0.87 1.22 1.53 1.59-0.66 0.37-1.19 0.92-1.53 1.59-0.23-0.48-0.37-1.02-0.37-1.59zm6.34 2.7c-1.02-0.27-1.82-1.1-2.03-2.14 1.04 0.21 1.87 1.01 2.14 2.03l-0.11 0.11zm-5.29-0.11c0.27-1.02 1.1-1.82 2.15-2.03-0.21 1.04-1.01 1.87-2.03 2.14-0.05-0.04-0.08-0.07-0.12-0.11zm0.11-5.29c1.02 0.27 1.82 1.1 2.03 2.15-1.04-0.22-1.87-1.02-2.14-2.04l0.11-0.11zm5.29 0.11c-0.27 1.02-1.1 1.82-2.14 2.03 0.21-1.05 1.01-1.87 2.03-2.15 0.04 0.05 0.07 0.08 0.11 0.12zm-2.7 0.74c-0.37-0.66-0.92-1.19-1.59-1.53 0.48-0.23 1.02-0.37 1.59-0.37s1.11 0.14 1.59 0.37c-0.67 0.34-1.22 0.87-1.59 1.53zm0 3.7c0.37 0.66 0.92 1.19 1.59 1.53-0.49 0.23-1.02 0.37-1.59 0.37s-1.11-0.14-1.59-0.37c0.67-0.34 1.22-0.87 1.59-1.53zm-3.86 0.9c-1.28-0.26-2.25-1.39-2.25-2.75s0.97-2.49 2.25-2.75c-0.55 0.78-0.89 1.72-0.89 2.75s0.34 1.97 0.89 2.75zm7.72-5.5c1.28 0.26 2.25 1.39 2.25 2.75s-0.97 2.49-2.25 2.75c0.56-0.78 0.89-1.72 0.89-2.75s-0.34-1.97-0.89-2.75zm2.15 0.08c-0.59-0.6-1.38-0.99-2.25-1.09-0.11-0.88-0.49-1.66-1.09-2.25 1.48 0.66 2.68 1.86 3.34 3.34zm-8.68-3.34c-0.6 0.59-0.98 1.38-1.09 2.25-0.88 0.11-1.66 0.49-2.25 1.09 0.66-1.48 1.86-2.68 3.34-3.34zm-3.34 8.68c0.59 0.6 1.38 0.99 2.25 1.09 0.11 0.88 0.49 1.66 1.09 2.25-1.48-0.66-2.68-1.86-3.34-3.34zm8.68 3.34c0.6-0.59 0.99-1.38 1.09-2.25 0.88-0.11 1.66-0.49 2.25-1.09-0.66 1.48-1.86 2.68-3.34 3.34z"/>
    <path id="path3724" style="fill:#9c0000" d="m9 0c-4.96 0-9 4.04-9 9s4.04 9 9 9 9-4.04 9-9-4.04-9-9-9zm0 17c-4.41 0-8-3.59-8-8s3.59-8 8-8 8 3.59 8 8-3.59 8-8 8z"/>
   </g>
   <g id="use3898" transform="translate(-74.522 170.23)">
    <path id="path3716" style="fill:#2c2c50" d="m9 1.42c-4.18 0-7.58 3.4-7.58 7.58s3.4 7.58 7.58 7.58 7.58-3.4 7.58-7.58-3.4-7.58-7.58-7.58zm0 13.69c-1.36 0-2.49-0.97-2.75-2.25 0.78 0.56 1.72 0.89 2.75 0.89s1.97-0.34 2.75-0.89c-0.26 1.28-1.39 2.25-2.75 2.25zm0-12.22c1.36 0 2.49 0.97 2.75 2.25-0.78-0.55-1.72-0.89-2.75-0.89s-1.97 0.34-2.75 0.89c0.26-1.28 1.39-2.25 2.75-2.25zm3.75 6.11c0 0.57-0.14 1.11-0.37 1.59-0.34-0.67-0.87-1.22-1.53-1.59 0.66-0.37 1.19-0.92 1.53-1.59 0.23 0.48 0.37 1.02 0.37 1.59zm-7.5 0c0-0.57 0.14-1.11 0.37-1.59 0.34 0.67 0.87 1.22 1.53 1.59-0.66 0.37-1.19 0.92-1.53 1.59-0.23-0.48-0.37-1.02-0.37-1.59zm6.34 2.7c-1.02-0.27-1.82-1.1-2.03-2.14 1.04 0.21 1.87 1.01 2.14 2.03l-0.11 0.11zm-5.29-0.11c0.27-1.02 1.1-1.82 2.15-2.03-0.21 1.04-1.01 1.87-2.03 2.14-0.05-0.04-0.08-0.07-0.12-0.11zm0.11-5.29c1.02 0.27 1.82 1.1 2.03 2.15-1.04-0.22-1.87-1.02-2.14-2.04l0.11-0.11zm5.29 0.11c-0.27 1.02-1.1 1.82-2.14 2.03 0.21-1.05 1.01-1.87 2.03-2.15 0.04 0.05 0.07 0.08 0.11 0.12zm-2.7 0.74c-0.37-0.66-0.92-1.19-1.59-1.53 0.48-0.23 1.02-0.37 1.59-0.37s1.11 0.14 1.59 0.37c-0.67 0.34-1.22 0.87-1.59 1.53zm0 3.7c0.37 0.66 0.92 1.19 1.59 1.53-0.49 0.23-1.02 0.37-1.59 0.37s-1.11-0.14-1.59-0.37c0.67-0.34 1.22-0.87 1.59-1.53zm-3.86 0.9c-1.28-0.26-2.25-1.39-2.25-2.75s0.97-2.49 2.25-2.75c-0.55 0.78-0.89 1.72-0.89 2.75s0.34 1.97 0.89 2.75zm7.72-5.5c1.28 0.26 2.25 1.39 2.25 2.75s-0.97 2.49-2.25 2.75c0.56-0.78 0.89-1.72 0.89-2.75s-0.34-1.97-0.89-2.75zm2.15 0.08c-0.59-0.6-1.38-0.99-2.25-1.09-0.11-0.88-0.49-1.66-1.09-2.25 1.48 0.66 2.68 1.86 3.34 3.34zm-8.68-3.34c-0.6 0.59-0.98 1.38-1.09 2.25-0.88 0.11-1.66 0.49-2.25 1.09 0.66-1.48 1.86-2.68 3.34-3.34zm-3.34 8.68c0.59 0.6 1.38 0.99 2.25 1.09 0.11 0.88 0.49 1.66 1.09 2.25-1.48-0.66-2.68-1.86-3.34-3.34zm8.68 3.34c0.6-0.59 0.99-1.38 1.09-2.25 0.88-0.11 1.66-0.49 2.25-1.09-0.66 1.48-1.86 2.68-3.34 3.34z"/>
    <path id="path3718" style="fill:#10106c" d="m9 0c-4.96 0-9 4.04-9 9s4.04 9 9 9 9-4.04 9-9-4.04-9-9-9zm0 17c-4.41 0-8-3.59-8-8s3.59-8 8-8 8 3.59 8 8-3.59 8-8 8z"/>
   </g>
  </g>
 </g>
</svg>
