<?xml version="1.0" encoding="UTF-8" standalone="no"?>
<!-- Created with Inkscape (http://www.inkscape.org/) -->
<svg id="svg2408" xmlns:rdf="http://www.w3.org/1999/02/22-rdf-syntax-ns#" xmlns="http://www.w3.org/2000/svg" height="96" width="96" version="1.0" xmlns:cc="http://creativecommons.org/ns#" xmlns:xlink="http://www.w3.org/1999/xlink" xmlns:dc="http://purl.org/dc/elements/1.1/">
 <defs id="defs2410">
  <linearGradient id="ButtonShadow" y2="7.0165" gradientUnits="userSpaceOnUse" x2="45.448" gradientTransform="scale(1.0059 .99417)" y1="92.54" x1="45.448">
   <stop id="stop3750" offset="0"/>
   <stop id="stop3752" style="stop-opacity:.58824" offset="1"/>
  </linearGradient>
  <linearGradient id="linearGradient3737">
   <stop id="stop3739" style="stop-color:#fff" offset="0"/>
   <stop id="stop3741" style="stop-color:#fff;stop-opacity:0" offset="1"/>
  </linearGradient>
  <filter id="filter3174" color-interpolation-filters="sRGB">
   <feGaussianBlur id="feGaussianBlur3176" stdDeviation="1.71"/>
  </filter>
  <linearGradient id="linearGradient3188" y2="63.893" xlink:href="#linearGradient3737" gradientUnits="userSpaceOnUse" x2="36.357" y1="6" x1="36.357"/>
  <filter id="filter3794" height="1.384" width="1.384" color-interpolation-filters="sRGB" y="-.192" x="-.192">
   <feGaussianBlur id="feGaussianBlur3796" stdDeviation="5.28"/>
  </filter>
  <linearGradient id="linearGradient3613" y2="138.66" xlink:href="#linearGradient3737" gradientUnits="userSpaceOnUse" x2="48" y1="20.221" x1="48"/>
  <radialGradient id="radialGradient3619" xlink:href="#linearGradient3737" gradientUnits="userSpaceOnUse" cy="90.172" cx="48" gradientTransform="matrix(1.1573 0 0 .99591 -7.551 .19713)" r="42"/>
  <clipPath id="clipPath3613">
   <rect id="rect3615" style="fill:#fff" rx="6" ry="6" height="84" width="84" y="6" x="6"/>
  </clipPath>
  <linearGradient id="linearGradient4206" y2="5.9877" gradientUnits="userSpaceOnUse" x2="48" y1="90" x1="48">
   <stop id="stop3929" style="stop-color:#5c8947" offset="0"/>
   <stop id="stop3931" style="stop-color:#99c376" offset="1"/>
  </linearGradient>
  <linearGradient id="linearGradient4214" y2="5.9877" gradientUnits="userSpaceOnUse" x2="48" y1="90" x1="48">
   <stop id="stop4210" style="stop-color:#f3840c" offset="0"/>
   <stop id="stop4212" style="stop-color:#f2b80c" offset="1"/>
  </linearGradient>
  <linearGradient id="ButtonShadow-0" y2="7.0165" gradientUnits="userSpaceOnUse" x2="45.448" gradientTransform="matrix(1.0059 0 0 .99417 100 0)" y1="92.54" x1="45.448">
   <stop id="stop3750-8" offset="0"/>
   <stop id="stop3752-5" style="stop-opacity:.58824" offset="1"/>
  </linearGradient>
  <linearGradient id="linearGradient3780" y2="90.239" xlink:href="#ButtonShadow-0" gradientUnits="userSpaceOnUse" x2="32.251" gradientTransform="matrix(1.0238 0 0 1.0119 -1.1429 -98.071)" y1="6.1317" x1="32.251"/>
  <linearGradient id="linearGradient3721" y2="90.239" xlink:href="#ButtonShadow-0" gradientUnits="userSpaceOnUse" x2="32.251" gradientTransform="translate(0,-97)" y1="6.1317" x1="32.251"/>
  <linearGradient id="linearGradient3121" y2="497.39" gradientUnits="userSpaceOnUse" x2="308.31" gradientTransform="matrix(.14716 0 0 .14716 -.098085 -26.678)" y1="483.01" x1="301.56">
   <stop id="stop3718" style="stop-color:#d0d0d0" offset="0"/>
   <stop id="stop3722" style="stop-color:#b0b0b0;stop-opacity:0" offset="1"/>
  </linearGradient>
  <linearGradient id="linearGradient3128" y2="473.96" gradientUnits="userSpaceOnUse" x2="337.49" gradientTransform="matrix(.14716 0 0 .14716 -.098085 -26.678)" y1="499.12" x1="222.59">
   <stop id="stop2957" style="stop-color:#d0d0d0" offset="0"/>
   <stop id="stop3689" style="stop-color:#fff" offset="0.4"/>
   <stop id="stop3709" style="stop-color:#fff" offset="0.7"/>
   <stop id="stop2959" style="stop-color:#d0d0d0" offset="1"/>
  </linearGradient>
  <linearGradient id="linearGradient3134" y2="25.572" gradientUnits="userSpaceOnUse" x2="45.034" gradientTransform="matrix(1.2484 0 0 1.2484 23.345 15.967)" y1="4.9364" x1=".86084">
   <stop id="stop8608" style="stop-color:#eeeeec" offset="0"/>
   <stop id="stop8610" style="stop-color:#eeeeec;stop-opacity:0" offset="1"/>
  </linearGradient>
  <radialGradient id="radialGradient3925" gradientUnits="userSpaceOnUse" cy="40.301" cx="40" gradientTransform="matrix(1 0 0 1.0391 0 -1.8774)" r="26.876">
   <stop id="stop3919" style="stop-color:#f4d7d7" offset="0"/>
   <stop id="stop3921" style="stop-color:#e9afaf" offset="1"/>
  </radialGradient>
  <radialGradient id="radialGradient3988" gradientUnits="userSpaceOnUse" cy="48" cx="48" gradientTransform="matrix(1.7162 0 1.3856e-8 1.7388 -34.375 -35.46)" r="42">
   <stop id="stop3984" style="stop-color:#e9ddaf" offset="0"/>
   <stop id="stop3986" style="stop-color:#e9ddaf;stop-opacity:0" offset="1"/>
  </radialGradient>
 </defs>
 <metadata id="metadata2413">
  <rdf:RDF>
   <cc:Work rdf:about="">
    <dc:format>image/svg+xml</dc:format>
    <dc:type rdf:resource="http://purl.org/dc/dcmitype/StillImage"/>
    <dc:title/>
   </cc:Work>
  </rdf:RDF>
 </metadata>
 <g id="layer2" style="display:none">
  <rect id="rect3745" style="opacity:.9;filter:url(#filter3174);fill:url(#ButtonShadow)" rx="6" ry="6" height="85" width="86" y="7" x="5"/>
 </g>
 <g id="layer4">
  <path id="path3786" style="opacity:0.08;fill:url(#linearGradient3780)" d="m12-95.031c-5.5111 0-10.031 4.5202-10.031 10.031v71c0 5.5111 4.5202 10.031 10.031 10.031h72c5.5111 0 10.031-4.5202 10.031-10.031v-71c0-5.5111-4.5202-10.031-10.031-10.031h-72z" transform="scale(1,-1)"/>
  <path id="path3778" style="opacity:.1;fill:url(#linearGradient3780)" d="m12-94.031c-4.9716 0-9.0312 4.0596-9.0312 9.0312v71c0 4.9716 4.0596 9.0312 9.0312 9.0312h72c4.9716 0 9.0312-4.0596 9.0312-9.0312v-71c0-4.9716-4.0596-9.0312-9.0312-9.0312h-72z" transform="scale(1,-1)"/>
  <path id="path3770" style="opacity:.2;fill:url(#linearGradient3780)" d="m12-93c-4.4091 0-8 3.5909-8 8v71c0 4.4091 3.5909 8 8 8h72c4.4091 0 8-3.5909 8-8v-71c0-4.4091-3.5909-8-8-8h-72z" transform="scale(1,-1)"/>
  <rect id="rect3723" style="opacity:.3;fill:url(#linearGradient3780)" transform="scale(1,-1)" rx="7" ry="7" height="85" width="86" y="-92" x="5"/>
  <rect id="rect3716" style="opacity:.45;fill:url(#linearGradient3721)" transform="scale(1,-1)" rx="6" ry="6" height="84" width="84" y="-91" x="6"/>
 </g>
 <g id="layer1">
  <rect id="rect2419" style="fill:url(#linearGradient4214)" rx="6" ry="6" height="84" width="84" y="6" x="6"/>
  <rect id="rect4204" style="fill:url(#linearGradient4206)" rx="6" ry="6" height="84" width="84" y="6" x="6"/>
  <path id="rect3728" style="opacity:.5;fill:url(#linearGradient3188)" d="m12 6c-3.324 0-6 2.676-6 6v2 68 2c0 0.33472 0.04135 0.6507 0.09375 0.96875 0.0487 0.2956 0.09704 0.59692 0.1875 0.875 0.00988 0.03038 0.020892 0.0636 0.03125 0.09375 0.098865 0.28777 0.23488 0.54745 0.375 0.8125 0.14459 0.27351 0.31562 0.53562 0.5 0.78125 0.18438 0.24564 0.37378 0.47347 0.59375 0.6875 0.43995 0.42806 0.94291 0.81453 1.5 1.0938 0.27854 0.13961 0.57347 0.24695 0.875 0.34375-0.2562-0.10022-0.48671-0.23627-0.71875-0.375-0.00741-0.0044-0.023866 0.0045-0.03125 0-0.031933-0.0193-0.062293-0.04251-0.09375-0.0625-0.1204-0.0767-0.23102-0.16351-0.34375-0.25-0.10617-0.0808-0.21328-0.16111-0.3125-0.25-0.1778-0.162-0.3473-0.346-0.4999-0.531-0.1075-0.131-0.2183-0.266-0.3124-0.407-0.0251-0.038-0.0385-0.086-0.0626-0.125-0.0647-0.103-0.1302-0.204-0.1874-0.312-0.1011-0.195-0.2057-0.416-0.2813-0.625-0.008-0.022-0.0236-0.041-0.0313-0.063-0.0318-0.092-0.0358-0.187-0.0624-0.281-0.0304-0.107-0.0704-0.203-0.0938-0.313-0.0729-0.341-0.125-0.698-0.125-1.062v-2-68-2c0-2.782 2.2182-5 5-5h2 68 2c2.7818 0 5 2.2182 5 5v2 68 2c0 0.3643-0.05212 0.72099-0.125 1.0625-0.04415 0.20689-0.08838 0.39766-0.15625 0.59375-0.0077 0.02195-0.0233 0.04069-0.03125 0.0625-0.06274 0.17374-0.13838 0.36745-0.21875 0.53125-0.04158 0.0828-0.07904 0.16995-0.125 0.25-0.0546 0.09721-0.12677 0.18835-0.1875 0.28125-0.09411 0.14096-0.20492 0.276-0.3125 0.40625-0.14317 0.17445-0.30314 0.347-0.46875 0.5-0.01117 0.0102-0.01998 0.02115-0.03125 0.03125-0.13839 0.12556-0.28509 0.23444-0.4375 0.34375-0.10257 0.07315-0.20432 0.15336-0.3125 0.21875-0.0074 0.0045-0.02384-0.0044-0.03125 0-0.23204 0.13873-0.46255 0.27478-0.71875 0.375 0.30153-0.0968 0.59646-0.20414 0.875-0.34375 0.55709-0.27922 1.0601-0.66569 1.5-1.0938 0.21997-0.21403 0.40937-0.44186 0.59375-0.6875s0.35541-0.50774 0.5-0.78125c0.14012-0.26505 0.27614-0.52473 0.375-0.8125 0.01041-0.03078 0.02133-0.06274 0.03125-0.09375 0.09046-0.27808 0.1388-0.5794 0.1875-0.875 0.053-0.318 0.094-0.634 0.094-0.969v-2-68-2c0-3.324-2.676-6-6-6h-72z"/>
  <path id="path3615" style="opacity:.2;fill:url(#radialGradient3619)" d="m12 90c-3.324 0-6-2.676-6-6v-2-68-2c0-0.33472 0.04135-0.6507 0.09375-0.96875 0.0487-0.2956 0.09704-0.59692 0.1875-0.875 0.0099-0.03 0.0209-0.063 0.0313-0.094 0.0989-0.2873 0.2349-0.547 0.375-0.812 0.1446-0.2735 0.3156-0.5356 0.5-0.7812 0.1844-0.2457 0.3738-0.4735 0.5937-0.6876 0.44-0.428 0.943-0.8145 1.5-1.0937 0.2786-0.1396 0.5735-0.2469 0.8748-0.3437-0.256 0.1002-0.4865 0.2362-0.7185 0.375-0.00741 0.0044-0.023866-0.0045-0.03125 0-0.031933 0.0193-0.062293 0.04251-0.09375 0.0625-0.1204 0.0767-0.23102 0.16351-0.34375 0.25-0.10617 0.0808-0.21328 0.16111-0.3125 0.25-0.1779 0.1614-0.3474 0.3453-0.5 0.5312-0.1075 0.1303-0.2183 0.2653-0.3124 0.4063-0.0251 0.0383-0.0385 0.0858-0.0626 0.125-0.0647 0.103-0.1302 0.2045-0.1874 0.3124-0.1011 0.1948-0.2057 0.4158-0.2813 0.625-0.008 0.0219-0.0236 0.0406-0.0313 0.0626-0.0318 0.0919-0.0358 0.1868-0.0624 0.2812-0.0304 0.1066-0.0704 0.203-0.0938 0.3125-0.0729 0.3415-0.125 0.6985-0.125 1.0625v2 68 2c0 2.7818 2.2182 5 5 5h2 68 2c2.7818 0 5-2.2182 5-5v-2-68-2c0-0.364-0.052-0.721-0.125-1.0625-0.044-0.2069-0.088-0.3977-0.156-0.5937-0.008-0.022-0.024-0.0407-0.031-0.0626-0.063-0.1737-0.139-0.3674-0.219-0.5312-0.042-0.0828-0.079-0.17-0.125-0.25-0.055-0.0972-0.127-0.1884-0.188-0.2812-0.094-0.141-0.205-0.276-0.312-0.4063-0.143-0.1745-0.303-0.347-0.469-0.5-0.011-0.0102-0.02-0.0211-0.031-0.0313-0.139-0.1255-0.285-0.2344-0.438-0.3437-0.102-0.0731-0.204-0.1534-0.312-0.2187-0.0074-0.0045-0.02384 0.0044-0.03125 0-0.23204-0.13873-0.46255-0.27478-0.71875-0.375 0.30153 0.0968 0.59646 0.20414 0.875 0.34375 0.55709 0.27922 1.0601 0.66569 1.5 1.0938 0.21997 0.21403 0.40937 0.44186 0.59375 0.6875s0.35541 0.50774 0.5 0.78125c0.14012 0.26505 0.27614 0.52473 0.375 0.8125 0.01041 0.03078 0.02133 0.06274 0.03125 0.09375 0.09046 0.27808 0.1388 0.5794 0.1875 0.875 0.053 0.318 0.094 0.634 0.094 0.969v2 68 2c0 3.324-2.676 6-6 6h-72z"/>
  <path id="path4141" style="opacity:.45;fill:url(#radialGradient3988)" d="m20.875 6 25.781 40.656-40.656-26.156v18.5l40.219 9-40.219 8.75v18.375l40.656-25.781-26.156 40.656h18.5l9-40.219 8.75 40.219h18.375l-25.781-40.656 40.656 26.156v-18.5l-40.219-9 40.219-8.75v-18.375l-40.656 25.781 26.156-40.656h-18.5l-9 40.219-8.75-40.219h-18.375z"/>
 </g>
 <g id="layer5">
  <rect id="rect3171" style="opacity:.1;filter:url(#filter3794);stroke:#fff;stroke-linecap:round;stroke-width:.5;fill:url(#linearGradient3613)" clip-path="url(#clipPath3613)" rx="12" ry="12" height="66" width="66" y="15" x="15"/>
 </g>
 <g id="layer3">
  <path id="path3956" style="opacity:.05;fill-rule:evenodd" d="m42.562 17.938c-9.1897-0.08049-18.368 7.4009-18.469 17a1.0566 1.0566 0 0 0 0 0.03125c0.14 6.351 2.051 12.546 3.907 18.437a1.0566 1.0566 0 0 0 0 0.03125c2.7274 7.8145 5.7478 15.871 11.031 22.594a1.0566 1.0566 0 0 0 0.03125 0c1.6703 2.088 4.3674 4.1836 7.4375 3.8125v0.03125c0.05455 0.000587 0.10189-0.03085 0.15625-0.03125 3.3805-0.02466 6.3688-1.9149 8.2812-4.5312h0.03125c0.0046-0.0063-0.0046-0.02497 0-0.03125 1.9666-2.5293 3.5006-5.2234 5.1562-7.7812 2.6348 4.9403 6.3079 10.166 12.5 11.219a1.0566 1.0566 0 0 0 0.03125 0c1.8625 0.27646 4.011 0.29082 6-0.3125 1.9551-0.59304 3.7759-1.8665 4.7188-3.9688h0.03125c0.01102-0.02133 0.02056-0.0411 0.03125-0.0625 0.0048-0.0096-0.0047-0.02164 0-0.03125 0.81111-1.6483 0.68177-3.5085-0.0625-5-0.75433-1.5116-2.1002-2.7342-3.75-3.3125-0.0088-0.0032-0.02249 0.0032-0.03125 0-2.6289-0.97476-4.97-2.6462-5.75-5.2188-1.7187-5.5029-3.5648-11.936-8.875-15.719a1.0566 1.0566 0 0 0 -0.093 -0.033c-0.748-0.446-1.701-0.931-2.781-1.156-1.011-0.21-2.207-0.112-3.188 0.594l-0.031-0.031c-0.04791 0.02591-0.07761 0.06737-0.125 0.09375-0.01935 0.01559-0.04335 0.0151-0.0625 0.03125-3.1549 1.778-5.1436 4.5634-6.9062 7.4062 2.3371-5.4995 5.5706-11.272 4.5625-17.938h0.03125c-0.000725-0.05164-0.03011-0.10449-0.03125-0.15625-0.132-5.98-2.995-12.752-9.188-15.031-1.474-0.57-3.027-0.829-4.531-0.937a1.0566 1.0566 0 0 0 -0.0625 0z"/>
  <path id="path3950" style="opacity:.1;fill-rule:evenodd" d="m42.562 19c-8.6025-0.07535-17.319 7.015-17.412 15.932 0.13452 6.1543 1.9939 12.282 3.8471 18.165 2.7212 7.7966 5.7194 15.727 10.87 22.281 1.5555 1.9445 4.1011 3.8111 6.6321 3.4344 3.0522 0.03282 5.8505-1.7129 7.6221-4.155 2.2587-2.9001 3.972-6.1737 6.0654-9.1888 2.6282 5.2638 6.3455 11.137 12.63 12.205 3.4788 0.51639 8.0641-0.03564 9.6432-3.7282 1.3933-2.6974-0.44642-5.9633-3.2068-6.9175-2.8186-1.0394-5.5024-2.9033-6.4162-5.917-1.72-5.511-3.548-11.618-8.488-15.137-1.371-0.819-3.569-1.752-4.973-0.568-4.724 2.5544-6.8363 7.8177-9.7875 12.021-0.9741 0.51216 0.06815-3.1672 0.53178-4.2463 2.377-6.131 6.302-12.255 5.193-19.119-0.079-5.688-2.841-12.103-8.537-14.2-1.344-0.519-2.781-0.758-4.213-0.862zm2.2188 59.312c0.72412 0.64376 0.07982 0.26736 0 0z"/>
  <path id="path3946" style="opacity:.15;fill-rule:evenodd" d="m42.531 20.094c-1.3136-0.03256-2.6464 0.13747-3.9375 0.46875-3.4476 0.88463-6.7192 2.9363-9.0625 5.7188-2.3284 2.7647-3.7207 6.3532-3.2812 10.156-0.01186-0.15843-0.01326-0.14448 0 0.03125 0.000679 0.009-0.000689 0.02223 0 0.03125 0.48073 6.2899 3.3946 16.305 7.0312 24.938 1.8246 4.3314 3.8479 8.2694 5.875 11.219 1.0136 1.4747 2.0199 2.7119 3.0938 3.625 1.0325 0.87794 2.1819 1.4744 3.4375 1.5 0.04301 0.0049 0.01151 0.03107 0.0625 0.03125 0.0547 0.0068 0.02733 0.03257 0.09375 0.03125a0.9611 0.9611 0 0 0 0.375 -0.09375c1.7882 0.10814 3.438-0.4297 4.7812-1.4688 1.4897-1.1523 2.694-2.734 3.8125-4.4375 1.922-2.9273 3.6419-6.1206 5.4375-8.4375 0.06541 0.1147 0.08628 0.12171 0.15625 0.25 0.66339 1.2164 1.5593 3.0411 2.7188 4.9375 1.1597 1.8968 2.5819 3.8849 4.4375 5.4375 1.8441 1.543 4.179 2.6692 6.9062 2.6875 0.01077 0.000072 0.02047-0.000038 0.03125 0 0.01052 0.000694 0.02073-0.000668 0.03125 0 1.6013 0.10165 3.2367-0.09132 4.625-0.78125 1.4502-0.72071 2.6166-2.16 2.6875-4a0.9611 0.9611 0 0 0 0 -0.03125c0.01509-1.5214-0.90629-2.6705-1.9375-3.3125-0.97005-0.60394-1.9907-0.93699-3.0312-1.4688-2.1026-1.0745-4.3035-2.6288-5.75-7.7812-1.2111-4.3141-2.8496-7.5715-4.5938-9.8125-1.7351-2.2292-3.6763-3.6116-5.75-3.5625h-0.03125-0.0625a0.9611 0.9611 0 0 0 -0.40625 0.09375 0.9611 0.9611 0 0 0 -0.03125 0l-0.0625 0.03125v0.03125c-1.4724 0.57024-2.6745 1.7449-3.8438 3.1562-1.1994 1.4478-2.3515 3.1912-3.4375 4.9062-1.0835 1.711-2.1087 3.3893-2.9688 4.7188-0.39313 0.60769-0.58919 0.80368-0.875 1.1562-0.68725-1.0153-1.0411-2.0621-0.9375-3.3438 0.15047-1.8612 0.97624-4.1281 2.0625-6.5938 2.1085-4.7861 5.0621-10.316 4.0625-16.062-0.0018-0.01052 0.0019-0.02073 0-0.03125a0.9611 0.9611 0 0 0 0 -0.09375 0.9611 0.9611 0 0 0 0.03125 -0.25c-0.464-5.636-2.55-9.448-5.53-11.563-1.4823-1.0523-3.1627-1.6778-4.9062-1.9062-0.43446-0.05692-0.87382-0.11413-1.3125-0.125z"/>
  <path id="path3933" style="opacity:.3;fill-rule:evenodd" d="m42.5 21.062c-1.2156-0.03013-2.4411 0.12572-3.6562 0.4375-3.2403 0.83143-6.3545 2.7845-8.5625 5.4062-2.2014 2.6139-3.4888 5.9422-3.0625 9.4688 0.000666 0.0089-0.000676 0.02229 0 0.03125 0.45779 6.0668 3.3289 16.09 6.9375 24.656 1.807 4.2895 3.8128 8.1984 5.7812 11.062 0.98424 1.432 1.9639 2.6097 2.9375 3.4375 0.95164 0.80919 1.8969 1.2779 2.875 1.2812 0.02255 0.000078 0.03994 0.0317 0.0625 0.03125v-0.03125c1.7346 0.25135 3.2669-0.28618 4.5938-1.3125 1.3438-1.0394 2.4992-2.5517 3.5938-4.2188 2.1368-3.2544 4.0639-7.1412 6.2812-9.5938 0.03842 0.03245 0.06587 0.02376 0.125 0.09375 0.21854 0.25867 0.50167 0.74777 0.84375 1.375 0.68416 1.2545 1.5583 3.0593 2.6875 4.9062 1.1292 1.847 2.5159 3.7366 4.25 5.1875 1.7265 1.4446 3.8316 2.4601 6.3125 2.4688 0.0108 0.000038 0.02044 0 0.03125 0 1.4946 0.10233 2.992-0.0934 4.1875-0.6875 1.2039-0.5983 2.0997-1.688 2.1562-3.1562 0.01152-1.1612-0.63328-1.9798-1.4688-2.5-0.83547-0.52015-1.8578-0.86978-2.9688-1.4375-2.2219-1.1354-4.7438-3.0099-6.25-8.375-1.1846-4.2197-2.7623-7.3566-4.4062-9.4688-1.644-2.1122-3.3797-3.2371-5-3.1875h-0.09375l-0.0625 0.03125c-1.226 0.44542-2.3761 1.5432-3.5312 2.9375-1.1552 1.3943-2.2998 3.0833-3.375 4.7812s-2.094 3.3979-2.9688 4.75c-0.7414 1.146-1.3182 1.8355-1.75 2.25-1.4644-1.4929-1.9973-3.1325-1.8438-5.0312 0.1678-2.0755 1.0579-4.413 2.1562-6.9062 2.1885-4.9676 5.1307-10.505 3.9688-15.969h0.03125c-0.44862-5.4395-2.4166-8.9523-5.125-10.875-1.3542-0.96136-2.8743-1.5411-4.4688-1.75-0.397-0.05-0.812-0.081-1.217-0.092z"/>
  <path id="path5054" style="fill-rule:evenodd;stroke:#d87070;stroke-width:1px;fill:url(#radialGradient3925)" d="m27.705 35.332c0.8848 11.89 11.546 40.163 18.112 40.031 6.4696 1.0129 9.5041-10.129 14.256-15.193 1.6484-0.98863 5.0086 14.077 14.457 14.077 2.8734 0.20484 5.7468-0.77935 5.8457-3.3489 0.0398-4.0119-7.6043-1.2087-10.681-12.168-2.343-8.344-6.163-12.384-8.898-12.301-4.249 1.544-9.555 13.525-11.822 15.069-7.707-6.785 6.121-18.193 3.831-28.676-1.761-21.359-26.775-11.01-25.101 2.51z"/>
  <path id="path6834" style="stroke:url(#linearGradient3134);stroke-width:1px;fill:none" d="m29.026 35.2c0.8848 11.89 11.678 38.709 16.791 38.709 6.4696 1.0129 8.9757-12.507 14.256-15.193 3.3659-1.385 4.8765 14.077 14.325 14.077 2.8734 0.20484 4.5577-0.11879 4.5246-1.7635 0.436-2.559-6.816-1.371-10.417-12.169-2.739-8.211-4.974-11.062-7.709-10.978-4.249 1.543-7.837 12.731-11.822 15.332-10.481-8.898 4.8-19.778 2.51-30.261-1.101-18.584-23.208-11.142-22.459 2.246z"/>
  <path id="path2951" style="fill:#571e00;fill-opacity:.32203" d="m50.726 36.978c-0.53253 0.23187-1.0643 0.63229-1.5572 0.9383-4.14 2.5706-10.999 5.7134-16.036 7.2799-0.50573 0.15728-0.56933 0.65836-0.49207 0.99794 0.27662 1.2159 1.2041 2.797 2.4328 4.1021 1.2286 1.3051 3.0417 2.308 5.5783 2.3362 1.107 0.01236 2.1932-0.5356 3.2559-1.3704 1.0628-0.83484 2.105-1.9879 3.0398-3.3295 1.8696-2.6834 3.3149-5.909 3.3571-9.3907 0.0056-0.46374 0.26735-1.1234 0.42125-1.5637zm-2.017 2.9526c-0.35719 2.4576-1.515 5.0774-2.9662 7.1603-0.86582 1.2427-1.8293 2.2962-2.7409 3.0122-0.91155 0.71603-1.7693 1.064-2.3362 1.0577-2.1732-0.02417-3.5141-0.80256-4.5206-1.8717-0.80588-0.85606-1.3385-1.9071-1.7935-2.9156 4.7725-1.3786 10.344-4.0224 14.357-6.4429z"/>
  <path id="path2184" d="m38.234 26.571c-2.1581 0.0726-4.1621 0.45864-5.5984 1.0002-0.89372 1.2402-1.6512 2.7528-2.0564 4.6251-0.7372-2.4404-0.56994-4.7638 0.57493-6.8082 2.5969-0.53596 5.4265 0.22316 7.0799 1.1829z"/>
  <path id="path2186" d="m47.82 25.639c-1.8215-1.1597-3.693-1.9737-5.184-2.3385-1.4382 0.51813-2.9179 1.338-4.3103 2.6536 0.77092-2.43 2.2219-4.2523 4.3217-5.2919 2.4453 1.0254 4.3508 3.2507 5.1726 4.9768z"/>
  <path id="path2196" style="fill:url(#linearGradient3128)" d="m33.32 45.909c5.3166-1.392 12.072-4.6809 16.246-7.3737-0.06164 6.0867-5.5593 13.399-8.9072 13.362-4.7098-0.05239-6.3111-3.561-7.3392-5.9885z"/>
  <path id="path2210" style="fill:#571e00;fill-opacity:.32203" d="m39.358 36.133c0.44992-5.6804-2.242 3.3863-4.1279 5.8885-1.3254-0.05624-3.1193-2.7392-3.1193-5.8885s1.6234-5.7053 3.6236-5.7053 3.6236 2.556 3.6236 5.7053z"/>
  <path id="path2212" style="fill:#571e00;fill-opacity:.32203" d="m46.47 32.664c0 2.9365-1.7616 5.3198-3.932 5.3198-2.1705 0-3.932-2.3833-3.932-5.3198s1.7616-5.3198 3.932-5.3198c2.1705 0 3.932 2.3833 3.932 5.3198z"/>
  <path id="path2198" style="fill:#fff" d="m42.89 27.689c-1.9058 0.19359-3.4047 2.7361-3.6468 5.9278-0.80554-1.7291-2.0201-2.8213-3.2605-2.6903-1.9035 0.20103-3.1377 3.1802-2.7547 6.6499 0.22193 2.0102 0.94705 3.7257 1.8809 4.7919 1.327-1.0716 3.0097-1.9896 4.9391-2.6581 0.0384-0.23796 0.07539-0.47981 0.09658-0.73121 0.10356 0.21697 0.23234 0.39032 0.34951 0.58405 0.89345-0.28601 1.8303-0.52482 2.8099-0.69442 1.049-0.18162 2.0768-0.27122 3.0766-0.29432 0.49544-1.2368 0.77496-2.7516 0.71281-4.3827-0.14515-3.8095-2.0303-6.7234-4.2033-6.5027z"/>
  <path id="path2944" d="m43.789 34.521a0.94819 1.8286 0 0 1 -1.8964 0 0.94819 1.8286 0 1 1 1.8964 0z"/>
  <path id="rect2946" style="fill:url(#linearGradient3121)" d="m49.058 41.817c-0.97775 1.4015-3.0314 2.4677-6.4521 4.1251 3.9009-0.90212 3.8253-0.02891 3.9504 1.2739 0.85304-1.2937 1.9745-3.3183 2.5017-5.399zm-8.218 4.8655c-3.6183 1.1645-5.2103 1.4354-6.7234 0.94275 0.77283 1.6066 2.0151 2.9413 3.4261 3.5963-0.59196-1.3156-0.58971-2.5068 3.2973-4.539z"/>
  <path id="path8632" d="m37.725 36.08a0.94819 1.8286 0 0 1 -1.8964 0 0.94819 1.8286 0 1 1 1.8964 0z"/>
  <path id="path3968" style="opacity:.15;fill:#d35f5f" d="m60.594 56.156c-0.184-0.001-0.392 0.029-0.594 0.063-4.99 1.348-8.069 14.031-12.25 14.031-7.591 0.945-12.812-10.938-12.812-10.938l-0.375 0.40625c3.6074 8.5952 7.9508 15.723 11.25 15.656 6.4696 1.0129 9.4979-10.154 14.25-15.219 1.6484-0.98863 5.0199 14.094 14.469 14.094 2.6121 0.18621 5.2222-0.61077 5.75-2.6875l-0.72-2.406c-16.07 3.1356-13.273-12.971-18.969-13z"/>
  <path id="path3977" style="opacity:.3;fill:#d35f5f" d="m60.594 58.156c-0.184-0.001-0.392 0.029-0.594 0.063-4.99 1.348-8.069 14.031-12.25 14.031-4.6911 0.5839-8.4793-3.7118-10.688-7.0938 2.9877 5.9472 6.1853 10.27 8.75 10.219 6.4696 1.0129 9.4979-10.154 14.25-15.219 1.6484-0.98863 5.0199 14.094 14.469 14.094 2.2427 0.15988 4.4827-0.3977 5.4062-1.875l-0.375-1.2188c-16.07 3.1356-13.273-12.971-18.969-13z"/>
 </g>
</svg>
