<?xml version="1.0" encoding="UTF-8" standalone="no"?>
<!-- Created with Inkscape (http://www.inkscape.org/) -->
<svg id="svg2408" xmlns:rdf="http://www.w3.org/1999/02/22-rdf-syntax-ns#" xmlns="http://www.w3.org/2000/svg" height="96" width="96" version="1.0" xmlns:cc="http://creativecommons.org/ns#" xmlns:xlink="http://www.w3.org/1999/xlink" xmlns:dc="http://purl.org/dc/elements/1.1/">
 <defs id="defs2410">
  <linearGradient id="linearGradient3852">
   <stop id="stop3854" style="stop-color:#c4c0eb" offset="0"/>
   <stop id="stop3856" style="stop-color:#10317c" offset="1"/>
  </linearGradient>
  <linearGradient id="ButtonShadow" y2="7.0165" gradientUnits="userSpaceOnUse" x2="45.448" gradientTransform="scale(1.0059 .99417)" y1="92.54" x1="45.448">
   <stop id="stop3750" offset="0"/>
   <stop id="stop3752" style="stop-opacity:.58824" offset="1"/>
  </linearGradient>
  <linearGradient id="linearGradient3737">
   <stop id="stop3739" style="stop-color:#fff" offset="0"/>
   <stop id="stop3741" style="stop-color:#fff;stop-opacity:0" offset="1"/>
  </linearGradient>
  <filter id="filter3174" color-interpolation-filters="sRGB">
   <feGaussianBlur id="feGaussianBlur3176" stdDeviation="1.71"/>
  </filter>
  <filter id="filter3794" height="1.384" width="1.384" color-interpolation-filters="sRGB" y="-.192" x="-.192">
   <feGaussianBlur id="feGaussianBlur3796" stdDeviation="5.28"/>
  </filter>
  <clipPath id="clipPath3613">
   <rect id="rect3615" style="fill:#fff" rx="6" ry="6" height="84" width="84" y="6" x="6"/>
  </clipPath>
  <linearGradient id="ButtonShadow-0" y2="7.0165" gradientUnits="userSpaceOnUse" x2="45.448" gradientTransform="matrix(1.0059 0 0 .99417 100 0)" y1="92.54" x1="45.448">
   <stop id="stop3750-8" offset="0"/>
   <stop id="stop3752-5" style="stop-opacity:.58824" offset="1"/>
  </linearGradient>
  <linearGradient id="linearGradient3725" y2="90.239" xlink:href="#ButtonShadow-0" gradientUnits="userSpaceOnUse" x2="32.251" gradientTransform="matrix(1.0238 0 0 -1.0119 -1.1429 98.071)" y1="6.1317" x1="32.251"/>
  <linearGradient id="linearGradient3721" y2="90.239" xlink:href="#ButtonShadow-0" gradientUnits="userSpaceOnUse" x2="32.251" gradientTransform="matrix(1,0,0,-1,0,97)" y1="6.1317" x1="32.251"/>
  <linearGradient id="ButtonColor" y2="5.4252" gradientUnits="userSpaceOnUse" x2="58.65" gradientTransform="matrix(1.0172 0 0 1.0172 -1.1034 -1.1034)" y1="122" x1="58.65">
   <stop id="stop3189" offset="0"/>
   <stop id="stop3191" style="stop-color:#515151" offset="1"/>
  </linearGradient>
  <linearGradient id="linearGradient3686" y2="5.9877" xlink:href="#ButtonColor" gradientUnits="userSpaceOnUse" x2="48" gradientTransform="translate(-110)" y1="90" x1="48"/>
  <linearGradient id="linearGradient3885" y2="5.9877" xlink:href="#ButtonColor" gradientUnits="userSpaceOnUse" x2="48" y1="90" x1="48"/>
  <radialGradient id="radialGradient3859" xlink:href="#linearGradient3737" gradientUnits="userSpaceOnUse" cy="90.172" cx="48" gradientTransform="matrix(1.1573 0 0 .99591 -7.551 .19713)" r="42"/>
  <linearGradient id="linearGradient3862" y2="63.893" xlink:href="#linearGradient3737" gradientUnits="userSpaceOnUse" x2="36.357" y1="6" x1="36.357"/>
  <linearGradient id="linearGradient3888" y2="52.388" gradientUnits="userSpaceOnUse" x2="48.495" y1="90.435" x1="48.495">
   <stop id="stop3943" style="stop-color:#090c46" offset="0"/>
   <stop id="stop3945" style="stop-color:#191f60;stop-opacity:0" offset="1"/>
  </linearGradient>
  <radialGradient id="radialGradient3912" xlink:href="#linearGradient3852" gradientUnits="userSpaceOnUse" cy="48" cx="48" gradientTransform="matrix(1.1429 0 0 -.85714 -6.8571 38.143)" r="28"/>
  <radialGradient id="radialGradient3915" xlink:href="#linearGradient3852" gradientUnits="userSpaceOnUse" cy="48" cx="48" gradientTransform="matrix(1.1429 0 0 .85714 -6.8571 57.857)" r="28"/>
  <radialGradient id="radialGradient3918" xlink:href="#linearGradient3852" gradientUnits="userSpaceOnUse" cy="48" cx="48" gradientTransform="matrix(1.1429 0 0 .85714 -6.8571 3.8571)" r="28"/>
  <radialGradient id="radialGradient3949" xlink:href="#linearGradient3852" gradientUnits="userSpaceOnUse" cy="48" cx="48" gradientTransform="matrix(1.1429 0 0 -.85714 -6.8571 38.143)" r="28"/>
  <linearGradient id="linearGradient3955" y2="138.66" xlink:href="#linearGradient3737" gradientUnits="userSpaceOnUse" x2="48" y1="20.221" x1="48"/>
  <radialGradient id="radialGradient4007" gradientUnits="userSpaceOnUse" cy="49.669" cx="40.453" gradientTransform="matrix(1.9831 .12497 -.088888 1.4106 -33.653 -25.826)" r="20.164">
   <stop id="stop4003" style="stop-color:#f6dd81" offset="0"/>
   <stop id="stop4005" style="stop-color:#f8c400" offset="1"/>
  </radialGradient>
 </defs>
 <metadata id="metadata2413">
  <rdf:RDF>
   <cc:Work rdf:about="">
    <dc:format>image/svg+xml</dc:format>
    <dc:type rdf:resource="http://purl.org/dc/dcmitype/StillImage"/>
    <dc:title/>
   </cc:Work>
  </rdf:RDF>
 </metadata>
 <g id="layer2" style="display:none">
  <path id="rect3745" style="opacity:.9;filter:url(#filter3174);fill:url(#ButtonShadow)" d="m11 7c-3.324 0-6 2.676-6 6v73c0 3.324 2.676 6 6 6h74c3.324 0 6-2.676 6-6v-73c0-3.324-2.676-6-6-6h-74zm-1 4h6v4h-6v-4zm70 0h6v4h-6v-4zm-70 8h6v4h-6v-4zm70 0h6v4h-6v-4zm-70 8h6v4h-6v-4zm70 0h6v4h-6v-4zm-70 8h6v4h-6v-4zm70 0h6v4h-6v-4zm-70 8h6v4h-6v-4zm70 0h6v4h-6v-4zm-70 8h6v4h-6v-4zm70 0h6v4h-6v-4zm-70 8h6v4h-6v-4zm70 0h6v4h-6v-4zm-70 8h6v4h-6v-4zm70 0h6v4h-6v-4zm-70 8h6v4h-6v-4zm70 0h6v4h-6v-4zm-70 8h6v4h-6v-4zm70 0h6v4h-6v-4z"/>
 </g>
 <g id="layer3">
  <path id="path3717" style="opacity:0.08;fill:url(#linearGradient3725)" d="m12 4c-5.5087 0-10 4.4913-10 10v71c0 5.5087 4.4913 10 10 10h72c5.5087 0 10-4.4913 10-10v-71c0-5.5087-4.491-10-10-10h-72z"/>
  <path id="path3709" style="opacity:.1;fill:url(#linearGradient3725)" d="m12 5.0312c-4.9464 0-8.9688 4.0224-8.9688 8.9688v71c0 4.9464 4.0223 8.9688 8.9688 8.9688h72c4.9464 0 8.9688-4.0223 8.9688-8.9688v-71c0-4.9464-4.023-8.9688-8.969-8.9688h-72zm-0.03125 7.9375h2.0625v0.0625h-2.0625v-0.0625zm70 0h2.0625v0.0625h-2.0625v-0.0625zm-70 8h2.0625v0.0625h-2.0625v-0.0625zm70 0h2.0625v0.0625h-2.0625v-0.0625zm-70 8h2.0625v0.0625h-2.0625v-0.0625zm70 0h2.0625v0.0625h-2.0625v-0.0625zm-70 8h2.0625v0.0625h-2.0625v-0.0625zm70 0h2.0625v0.0625h-2.0625v-0.0625zm-70 8h2.0625v0.0625h-2.0625v-0.0625zm70 0h2.0625v0.0625h-2.0625v-0.0625zm-70 8h2.0625v0.0625h-2.0625v-0.0625zm70 0h2.0625v0.0625h-2.0625v-0.0625zm-70 8h2.0625v0.0625h-2.0625v-0.0625zm70 0h2.0625v0.0625h-2.0625v-0.0625zm-70 8h2.0625v0.0625h-2.0625v-0.0625zm70 0h2.0625v0.0625h-2.0625v-0.0625zm-70 8h2.0625v0.0625h-2.0625v-0.0625zm70 0h2.0625v0.0625h-2.0625v-0.0625zm-70 8h2.0625v0.0625h-2.0625v-0.0625zm70 0h2.0625v0.0625h-2.0625v-0.0625z"/>
  <path id="path3700" style="opacity:.2;fill:url(#linearGradient3725)" d="m12 6c-4.4202 0-8 3.5798-8 8v71c0 4.4202 3.5798 8 8 8h72c4.4202 0 8-3.5798 8-8v-71c0-4.4202-3.58-8-8-8h-72zm-1 6h4v2h-4v-2zm70 0h4v2h-4v-2zm-70 8h4v2h-4v-2zm70 0h4v2h-4v-2zm-70 8h4v2h-4v-2zm70 0h4v2h-4v-2zm-70 8h4v2h-4v-2zm70 0h4v2h-4v-2zm-70 8h4v2h-4v-2zm70 0h4v2h-4v-2zm-70 8h4v2h-4v-2zm70 0h4v2h-4v-2zm-70 8h4v2h-4v-2zm70 0h4v2h-4v-2zm-70 8h4v2h-4v-2zm70 0h4v2h-4v-2zm-70 8h4v2h-4v-2zm70 0h4v2h-4v-2zm-70 8h4v2h-4v-2zm70 0h4v2h-4v-2z"/>
  <path id="rect3723" style="opacity:.3;fill:url(#linearGradient3725)" d="m12 7c-3.878 0-7 3.122-7 7v71c0 3.878 3.122 7 7 7h72c3.878 0 7-3.122 7-7v-71c0-3.878-3.122-7-7-7h-72zm-2 4h6v4h-6v-4zm70 0h6v4h-6v-4zm-70 8h6v4h-6v-4zm70 0h6v4h-6v-4zm-70 8h6v4h-6v-4zm70 0h6v4h-6v-4zm-70 8h6v4h-6v-4zm70 0h6v4h-6v-4zm-70 8h6v4h-6v-4zm70 0h6v4h-6v-4zm-70 8h6v4h-6v-4zm70 0h6v4h-6v-4zm-70 8h6v4h-6v-4zm70 0h6v4h-6v-4zm-70 8h6v4h-6v-4zm70 0h6v4h-6v-4zm-70 8h6v4h-6v-4zm70 0h6v4h-6v-4zm-70 8h6v4h-6v-4zm70 0h6v4h-6v-4z"/>
  <path id="rect3716" style="opacity:.45;fill:url(#linearGradient3721)" d="m12 7c-3.324 0-6 2.676-6 6v72c0 3.324 2.676 6 6 6h72c3.324 0 6-2.676 6-6v-72c0-3.324-2.676-6-6-6h-72zm-2 4h6v4h-6v-4zm70 0h6v4h-6v-4zm-70 8h6v4h-6v-4zm70 0h6v4h-6v-4zm-70 8h6v4h-6v-4zm70 0h6v4h-6v-4zm-70 8h6v4h-6v-4zm70 0h6v4h-6v-4zm-70 8h6v4h-6v-4zm70 0h6v4h-6v-4zm-70 8h6v4h-6v-4zm70 0h6v4h-6v-4zm-70 8h6v4h-6v-4zm70 0h6v4h-6v-4zm-70 8h6v4h-6v-4zm70 0h6v4h-6v-4zm-70 8h6v4h-6v-4zm70 0h6v4h-6v-4zm-70 8h6v4h-6v-4zm70 0h6v4h-6v-4z"/>
 </g>
 <g id="layer1">
  <path id="rect2419" style="fill:url(#linearGradient3885)" d="m12 6c-3.324 0-6 2.676-6 6v72c0 3.324 2.676 6 6 6h72c3.324 0 6-2.676 6-6v-72c0-3.324-2.676-6-6-6h-72zm-2 4h6v4h-6v-4zm70 0h6v4h-6v-4zm-70 8h6v4h-6v-4zm70 0h6v4h-6v-4zm-70 8h6v4h-6v-4zm70 0h6v4h-6v-4zm-70 8h6v4h-6v-4zm70 0h6v4h-6v-4zm-70 8h6v4h-6v-4zm70 0h6v4h-6v-4zm-70 8h6v4h-6v-4zm70 0h6v4h-6v-4zm-70 8h6v4h-6v-4zm70 0h6v4h-6v-4zm-70 8h6v4h-6v-4zm70 0h6v4h-6v-4zm-70 8h6v4h-6v-4zm70 0h6v4h-6v-4zm-70 8h6v4h-6v-4zm70 0h6v4h-6v-4z"/>
  <rect id="rect3684" style="fill:url(#linearGradient3686)" rx="6" ry="6" height="84" width="84" y="6" x="-104"/>
  <path id="path3747" style="opacity:.58874;fill:#f00" d="m-100 10v4h6v-4h-6zm70 0v4h6v-4h-6zm-70 8v4h6v-4h-6zm70 0v4h6v-4h-6zm-70 8v4h6v-4h-6zm70 0v4h6v-4h-6zm-70 8v4h6v-4h-6zm70 0v4h6v-4h-6zm-70 8v4h6v-4h-6zm70 0v4h6v-4h-6zm-70 8v4h6v-4h-6zm70 0v4h6v-4h-6zm-70 8v4h6v-4h-6zm70 0v4h6v-4h-6zm-70 8v4h6v-4h-6zm70 0v4h6v-4h-6zm-70 8v4h6v-4h-6zm70 0v4h6v-4h-6zm-70 8v4h6v-4h-6zm70 0v4h6v-4h-6z"/>
 </g>
 <rect id="rect3796" style="fill:url(#radialGradient3918)" rx="2" ry="2.1" height="48" width="56" y="24" x="20"/>
 <path id="rect3822" d="m22 78c-1.108 0-2 0.93035-2 2.0938v9.906h56v-9.906c0-1.164-0.892-2.094-2-2.094h-52z" style="fill:url(#radialGradient3915)"/>
 <path id="path3830" d="m22 18c-1.108 0-2-0.93035-2-2.0938v-9.906h56v9.906c0 1.164-0.892 2.094-2 2.094h-52z" style="fill:url(#radialGradient3912)"/>
 <path id="rect3912" d="m20 48v21.906c0 1.164 0.892 2.094 2 2.094h52c1.108 0 2-0.93035 2-2.0938v-21.906h-56zm2 30c-1.108 0-2 0.93035-2 2.0938v9.906h56v-9.906c0-1.164-0.892-2.094-2-2.094h-52z" style="opacity:.6;fill:url(#linearGradient3888)"/>
 <path id="path3947" style="fill:url(#radialGradient3949)" d="m22 18c-1.108 0-2-0.93035-2-2.0938v-9.906h56v9.906c0 1.164-0.892 2.094-2 2.094h-52z"/>
 <g id="g2941" transform="translate(80)">
  <path id="rect3770" d="m22 24c-1.108 0-2 0.93035-2 2.0938v43.812c0 1.164 0.892 2.094 2 2.094h52c1.108 0 2-0.93035 2-2.0938v-43.812c0-1.164-0.892-2.094-2-2.094h-52zm0.03125 2.0312h51.938c-0.0018 0.0093 0 0.0198 0 0.0625v43.812c0 0.0427-0.0018 0.05324 0 0.0625h-51.938c0.0018-0.0093 0-0.0198 0-0.0625v-43.812c0-0.0427 0.0018-0.05324 0-0.0625z" style="opacity:.1"/>
  <path id="rect3763" d="m22 24c-1.108 0-2 0.93035-2 2.0938v43.812c0 1.164 0.892 2.094 2 2.094h52c1.108 0 2-0.93035 2-2.0938v-43.812c0-1.164-0.892-2.094-2-2.094h-52zm0 0.90625h52c0.60063 0 1.0938 0.48739 1.0938 1.1875v43.812c0 0.70011-0.49312 1.1875-1.0938 1.1875h-52c-0.60063 0-1.0938-0.48739-1.0938-1.1875v-43.812c0-0.70011 0.49312-1.1875 1.0938-1.1875z" style="opacity:.2"/>
  <path id="path3777" d="m20 6v9.9062c0 1.164 0.892 2.094 2 2.094h52c1.108 0 2-0.93035 2-2.0938v-9.906h-2.0312v9.9062c0 0.0427-0.0018 0.05324 0 0.0625h-51.938c0.0018-0.0093 0-0.0198 0-0.0625v-9.906h-2.031z" style="opacity:.1"/>
  <path id="path3779" d="m20 6v9.9062c0 1.164 0.892 2.094 2 2.094h52c1.108 0 2-0.93035 2-2.0938v-9.906h-0.90625v9.9062c0 0.70011-0.49312 1.1875-1.0938 1.1875h-52c-0.60063 0-1.0938-0.48739-1.0938-1.1875v-9.906h-0.906z" style="opacity:.2"/>
  <path id="path3787" d="m20 90v-9.9062c0-1.164 0.892-2.094 2-2.094h52c1.108 0 2 0.93035 2 2.0938v9.906h-2.0312v-9.9062c0-0.0427-0.0018-0.05324 0-0.0625h-51.938c0.0018 0.0093 0 0.0198 0 0.0625v9.906h-2.031z" style="opacity:.1"/>
  <path id="path3789" d="m20 90v-9.9062c0-1.164 0.892-2.094 2-2.094h52c1.108 0 2 0.93035 2 2.0938v9.906h-0.90625v-9.9062c0-0.70011-0.49312-1.1875-1.0938-1.1875h-52c-0.60063 0-1.0938 0.48739-1.0938 1.1875v9.906h-0.906z" style="opacity:.2"/>
 </g>
 <rect id="rect3171" style="opacity:.1;filter:url(#filter3794);stroke:#fff;stroke-linecap:round;stroke-width:.5;fill:url(#linearGradient3955)" transform="translate(0,97.5)" clip-path="url(#clipPath3613)" rx="12" ry="12" height="66" width="66" y="15" x="15"/>
 <g id="g3865">
  <path id="rect3728" style="opacity:.25;fill:url(#linearGradient3862)" d="m12 6c-3.324 0-6 2.676-6 6v2 68 2c0 0.33472 0.04135 0.6507 0.09375 0.96875 0.0487 0.2956 0.09704 0.59692 0.1875 0.875 0.00988 0.03038 0.020892 0.0636 0.03125 0.09375 0.098865 0.28777 0.23488 0.54745 0.375 0.8125 0.14459 0.27351 0.31562 0.53562 0.5 0.78125 0.18438 0.24564 0.37378 0.47347 0.59375 0.6875 0.43995 0.42806 0.94291 0.81453 1.5 1.0938 0.27854 0.13961 0.57347 0.24695 0.875 0.34375-0.2562-0.10022-0.48671-0.23627-0.71875-0.375-0.00741-0.0044-0.023866 0.0045-0.03125 0-0.031933-0.0193-0.062293-0.04251-0.09375-0.0625-0.1204-0.0767-0.23102-0.16351-0.34375-0.25-0.10617-0.0808-0.21328-0.16111-0.3125-0.25-0.1778-0.162-0.3473-0.346-0.4999-0.531-0.1075-0.131-0.2183-0.266-0.3124-0.407-0.0251-0.038-0.0385-0.086-0.0626-0.125-0.0647-0.103-0.1302-0.204-0.1874-0.312-0.1011-0.195-0.2057-0.416-0.2813-0.625-0.008-0.022-0.0236-0.041-0.0313-0.063-0.0318-0.092-0.0358-0.187-0.0624-0.281-0.0304-0.107-0.0704-0.203-0.0938-0.313-0.0729-0.341-0.125-0.698-0.125-1.062v-2-68-2c0-2.782 2.2182-5 5-5h2 68 2c2.7818 0 5 2.2182 5 5v2 68 2c0 0.3643-0.05212 0.72099-0.125 1.0625-0.04415 0.20689-0.08838 0.39766-0.15625 0.59375-0.0077 0.02195-0.0233 0.04069-0.03125 0.0625-0.06274 0.17374-0.13838 0.36745-0.21875 0.53125-0.04158 0.0828-0.07904 0.16995-0.125 0.25-0.0546 0.09721-0.12677 0.18835-0.1875 0.28125-0.09411 0.14096-0.20492 0.276-0.3125 0.40625-0.14317 0.17445-0.30314 0.347-0.46875 0.5-0.01117 0.0102-0.01998 0.02115-0.03125 0.03125-0.13839 0.12556-0.28509 0.23444-0.4375 0.34375-0.10257 0.07315-0.20432 0.15336-0.3125 0.21875-0.0074 0.0045-0.02384-0.0044-0.03125 0-0.23204 0.13873-0.46255 0.27478-0.71875 0.375 0.30153-0.0968 0.59646-0.20414 0.875-0.34375 0.55709-0.27922 1.0601-0.66569 1.5-1.0938 0.21997-0.21403 0.40937-0.44186 0.59375-0.6875s0.35541-0.50774 0.5-0.78125c0.14012-0.26505 0.27614-0.52473 0.375-0.8125 0.01041-0.03078 0.02133-0.06274 0.03125-0.09375 0.09046-0.27808 0.1388-0.5794 0.1875-0.875 0.053-0.318 0.094-0.634 0.094-0.969v-2-68-2c0-3.324-2.676-6-6-6h-72z"/>
  <path id="path3615" style="opacity:.15;fill:url(#radialGradient3859)" d="m12 90c-3.324 0-6-2.676-6-6v-2-68-2c0-0.33472 0.04135-0.6507 0.09375-0.96875 0.0487-0.2956 0.09704-0.59692 0.1875-0.875 0.0099-0.03 0.0209-0.063 0.0313-0.094 0.0989-0.2873 0.2349-0.547 0.375-0.812 0.1446-0.2735 0.3156-0.5356 0.5-0.7812 0.1844-0.2457 0.3738-0.4735 0.5937-0.6876 0.44-0.428 0.943-0.8145 1.5-1.0937 0.2786-0.1396 0.5735-0.2469 0.8748-0.3437-0.256 0.1002-0.4865 0.2362-0.7185 0.375-0.00741 0.0044-0.023866-0.0045-0.03125 0-0.031933 0.0193-0.062293 0.04251-0.09375 0.0625-0.1204 0.0767-0.23102 0.16351-0.34375 0.25-0.10617 0.0808-0.21328 0.16111-0.3125 0.25-0.1779 0.1614-0.3474 0.3453-0.5 0.5312-0.1075 0.1303-0.2183 0.2653-0.3124 0.4063-0.0251 0.0383-0.0385 0.0858-0.0626 0.125-0.0647 0.103-0.1302 0.2045-0.1874 0.3124-0.1011 0.1948-0.2057 0.4158-0.2813 0.625-0.008 0.0219-0.0236 0.0406-0.0313 0.0626-0.0318 0.0919-0.0358 0.1868-0.0624 0.2812-0.0304 0.1066-0.0704 0.203-0.0938 0.3125-0.0729 0.3415-0.125 0.6985-0.125 1.0625v2 68 2c0 2.7818 2.2182 5 5 5h2 68 2c2.7818 0 5-2.2182 5-5v-2-68-2c0-0.364-0.052-0.721-0.125-1.0625-0.044-0.2069-0.088-0.3977-0.156-0.5937-0.008-0.022-0.024-0.0407-0.031-0.0626-0.063-0.1737-0.139-0.3674-0.219-0.5312-0.042-0.0828-0.079-0.17-0.125-0.25-0.055-0.0972-0.127-0.1884-0.188-0.2812-0.094-0.141-0.205-0.276-0.312-0.4063-0.143-0.1745-0.303-0.347-0.469-0.5-0.011-0.0102-0.02-0.0211-0.031-0.0313-0.139-0.1255-0.285-0.2344-0.438-0.3437-0.102-0.0731-0.204-0.1534-0.312-0.2187-0.0074-0.0045-0.02384 0.0044-0.03125 0-0.23204-0.13873-0.46255-0.27478-0.71875-0.375 0.30153 0.0968 0.59646 0.20414 0.875 0.34375 0.55709 0.27922 1.0601 0.66569 1.5 1.0938 0.21997 0.21403 0.40937 0.44186 0.59375 0.6875s0.35541 0.50774 0.5 0.78125c0.14012 0.26505 0.27614 0.52473 0.375 0.8125 0.01041 0.03078 0.02133 0.06274 0.03125 0.09375 0.09046 0.27808 0.1388 0.5794 0.1875 0.875 0.053 0.318 0.094 0.634 0.094 0.969v2 68 2c0 3.324-2.676 6-6 6h-72z"/>
 </g>
 <g id="g3855" transform="translate(0,2)">
  <path id="path3853" style="opacity:.2;block-progression:tb;text-indent:0;color:#000000;stroke:#000;stroke-width:6;text-transform:none" d="m52.273 27.831c-2.3273-0.19567-4.7218-0.05553-7.1706 0.40089-5.8688 1.094-10.302 3.7175-13.052 7.8813l-0.0019 0.02929c-2.7394 4.1481-3.4669 9.3534-2.3273 15.467 1.1367 6.0981 3.7076 10.705 7.7584 13.603 4.0632 2.8765 9.1379 3.7448 15.006 2.651 2.6812-0.49979 5.1695-1.348 7.4207-2.5023 2.2468-1.1706 4.2325-2.6412 5.9535-4.4178l0.345-0.359-0.087-0.476-2.927-15.622-0.1771-0.92271-0.92271 0.1771-12.912 2.3915-0.952 0.17525 0.1771 0.92271 0.7741 4.0478 0.17525 0.952 0.92271-0.1771 7.1107-1.3162 1.5408 8.2128c-0.80759 0.63532-1.689 1.1926-2.7504 1.6498-1.2338 0.51492-2.6863 0.93931-4.3721 1.2535-4.2772 0.79729-7.525 0.21933-9.9813-1.6581-2.4424-1.8808-4.1628-5.1394-5.051-9.9042-0.8887-4.7676-0.4519-8.4114 1.137-11.043 0.0046-0.0076-0.0028-0.02166 0.0019-0.02929 1.617-2.6248 4.4391-4.3607 8.7053-5.156 2.1505-0.40082 4.245-0.39064 6.3229-0.01324 2.0791 0.37771 4.1266 1.1134 6.1496 2.2694l1.788 1.0242-0.3724-2.023-0.96387-5.236-0.11507-0.50713-0.48683-0.2071c-2.106-0.837-4.325-1.346-6.667-1.538z"/>
  <path id="path3849" d="m52.273 27.831c-2.3273-0.19567-4.7218-0.05553-7.1706 0.40089-5.8688 1.094-10.302 3.7175-13.052 7.8813l-0.0019 0.02929c-2.7394 4.1481-3.4669 9.3534-2.3273 15.467 1.1367 6.0981 3.7076 10.705 7.7584 13.603 4.0632 2.8765 9.1379 3.7448 15.006 2.651 2.6812-0.49979 5.1695-1.348 7.4207-2.5023 2.2468-1.1706 4.2325-2.6412 5.9535-4.4178l0.345-0.359-0.087-0.476-2.927-15.622-0.1771-0.92271-0.92271 0.1771-12.912 2.3915-0.952 0.17525 0.1771 0.92271 0.7741 4.0478 0.17525 0.952 0.92271-0.1771 7.1107-1.3162 1.5408 8.2128c-0.80759 0.63532-1.689 1.1926-2.7504 1.6498-1.2338 0.51492-2.6863 0.93931-4.3721 1.2535-4.2772 0.79729-7.525 0.21933-9.9813-1.6581-2.4424-1.8808-4.1628-5.1394-5.051-9.9042-0.8887-4.7676-0.4519-8.4114 1.137-11.043 0.0046-0.0076-0.0028-0.02166 0.0019-0.02929 1.617-2.6248 4.4391-4.3607 8.7053-5.156 2.1505-0.40082 4.245-0.39064 6.3229-0.01324 2.0791 0.37771 4.1266 1.1134 6.1496 2.2694l1.788 1.0242-0.3724-2.023-0.96387-5.236-0.11507-0.50713-0.48683-0.2071c-2.106-0.837-4.325-1.346-6.667-1.538z" style="opacity:.2;block-progression:tb;text-indent:0;color:#000000;stroke:#000;stroke-width:4;text-transform:none"/>
  <path id="path3847" style="opacity:.2;block-progression:tb;text-indent:0;color:#000000;stroke:#000;stroke-width:2;text-transform:none" d="m52.273 27.831c-2.3273-0.19567-4.7218-0.05553-7.1706 0.40089-5.8688 1.094-10.302 3.7175-13.052 7.8813l-0.0019 0.02929c-2.7394 4.1481-3.4669 9.3534-2.3273 15.467 1.1367 6.0981 3.7076 10.705 7.7584 13.603 4.0632 2.8765 9.1379 3.7448 15.006 2.651 2.6812-0.49979 5.1695-1.348 7.4207-2.5023 2.2468-1.1706 4.2325-2.6412 5.9535-4.4178l0.345-0.359-0.087-0.476-2.927-15.622-0.1771-0.92271-0.92271 0.1771-12.912 2.3915-0.952 0.17525 0.1771 0.92271 0.7741 4.0478 0.17525 0.952 0.92271-0.1771 7.1107-1.3162 1.5408 8.2128c-0.80759 0.63532-1.689 1.1926-2.7504 1.6498-1.2338 0.51492-2.6863 0.93931-4.3721 1.2535-4.2772 0.79729-7.525 0.21933-9.9813-1.6581-2.4424-1.8808-4.1628-5.1394-5.051-9.9042-0.8887-4.7676-0.4519-8.4114 1.137-11.043 0.0046-0.0076-0.0028-0.02166 0.0019-0.02929 1.617-2.6248 4.4391-4.3607 8.7053-5.156 2.1505-0.40082 4.245-0.39064 6.3229-0.01324 2.0791 0.37771 4.1266 1.1134 6.1496 2.2694l1.788 1.0242-0.3724-2.023-0.96387-5.236-0.11507-0.50713-0.48683-0.2071c-2.106-0.837-4.325-1.346-6.667-1.538z"/>
 </g>
 <path id="path3993" style="block-progression:tb;text-indent:0;color:#000000;text-transform:none;fill:url(#radialGradient4007)" d="m52.273 27.831c-2.3273-0.19567-4.7218-0.05553-7.1706 0.40089-5.8688 1.094-10.302 3.7175-13.052 7.8813l-0.0019 0.02929c-2.7394 4.1481-3.4669 9.3534-2.3273 15.467 1.1367 6.0981 3.7076 10.705 7.7584 13.603 4.0632 2.8765 9.1379 3.7448 15.006 2.651 2.6812-0.49979 5.1695-1.348 7.4207-2.5023 2.2468-1.1706 4.2325-2.6412 5.9535-4.4178l0.345-0.359-0.087-0.476-2.927-15.622-0.1771-0.92271-0.92271 0.1771-12.912 2.3915-0.952 0.17525 0.1771 0.92271 0.7741 4.0478 0.17525 0.952 0.92271-0.1771 7.1107-1.3162 1.5408 8.2128c-0.80759 0.63532-1.689 1.1926-2.7504 1.6498-1.2338 0.51492-2.6863 0.93931-4.3721 1.2535-4.2772 0.79729-7.525 0.21933-9.9813-1.6581-2.4424-1.8808-4.1628-5.1394-5.051-9.9042-0.8887-4.7676-0.4519-8.4114 1.137-11.043 0.0046-0.0076-0.0028-0.02166 0.0019-0.02929 1.617-2.6248 4.4391-4.3607 8.7053-5.156 2.1505-0.40082 4.245-0.39064 6.3229-0.01324 2.0791 0.37771 4.1266 1.1134 6.1496 2.2694l1.788 1.0242-0.3724-2.023-0.96387-5.236-0.11507-0.50713-0.48683-0.2071c-2.1051-0.83672-4.3242-1.345-6.6662-1.5374z"/>
</svg>
