<?xml version="1.0" encoding="UTF-8" standalone="no"?>
<!-- Created with Inkscape (http://www.inkscape.org/) -->
<svg id="svg2408" xmlns:rdf="http://www.w3.org/1999/02/22-rdf-syntax-ns#" xmlns="http://www.w3.org/2000/svg" height="96" width="96" version="1.0" xmlns:cc="http://creativecommons.org/ns#" xmlns:xlink="http://www.w3.org/1999/xlink" xmlns:dc="http://purl.org/dc/elements/1.1/">
 <defs id="defs2410">
  <linearGradient id="linearGradient3676">
   <stop id="stop3678" style="stop-color:#abc669" offset="0"/>
   <stop id="stop3680" style="stop-color:#abc622" offset="1"/>
  </linearGradient>
  <linearGradient id="ButtonShadow" y2="7.0165" gradientUnits="userSpaceOnUse" x2="45.448" gradientTransform="scale(1.0059 .99417)" y1="92.54" x1="45.448">
   <stop id="stop3750" offset="0"/>
   <stop id="stop3752" style="stop-opacity:.58824" offset="1"/>
  </linearGradient>
  <linearGradient id="linearGradient3737">
   <stop id="stop3739" style="stop-color:#fff" offset="0"/>
   <stop id="stop3741" style="stop-color:#fff;stop-opacity:0" offset="1"/>
  </linearGradient>
  <filter id="filter3174" color-interpolation-filters="sRGB">
   <feGaussianBlur id="feGaussianBlur3176" stdDeviation="1.71"/>
  </filter>
  <linearGradient id="linearGradient3188" y2="63.893" xlink:href="#linearGradient3737" gradientUnits="userSpaceOnUse" x2="36.357" y1="6" x1="36.357"/>
  <filter id="filter3794" height="1.384" width="1.384" color-interpolation-filters="sRGB" y="-.192" x="-.192">
   <feGaussianBlur id="feGaussianBlur3796" stdDeviation="5.28"/>
  </filter>
  <linearGradient id="linearGradient3613" y2="138.66" xlink:href="#linearGradient3737" gradientUnits="userSpaceOnUse" x2="48" y1="20.221" x1="48"/>
  <radialGradient id="radialGradient3619" xlink:href="#linearGradient3737" gradientUnits="userSpaceOnUse" cy="90.172" cx="48" gradientTransform="matrix(1.1573 0 0 .99591 -7.551 .19713)" r="42"/>
  <clipPath id="clipPath3613">
   <rect id="rect3615" style="fill:#fff" rx="6" ry="6" height="84" width="84" y="6" x="6"/>
  </clipPath>
  <linearGradient id="linearGradient3617" y2="5.9877" xlink:href="#linearGradient3676" gradientUnits="userSpaceOnUse" x2="48" gradientTransform="translate(0,-96)" y1="90" x1="48"/>
  <linearGradient id="ButtonShadow-0" y2="7.0165" gradientUnits="userSpaceOnUse" x2="45.448" gradientTransform="matrix(1.0059 0 0 .99417 100 0)" y1="92.54" x1="45.448">
   <stop id="stop3750-8" offset="0"/>
   <stop id="stop3752-5" style="stop-opacity:.58824" offset="1"/>
  </linearGradient>
  <linearGradient id="linearGradient3780" y2="90.239" xlink:href="#ButtonShadow-0" gradientUnits="userSpaceOnUse" x2="32.251" gradientTransform="matrix(1.0238 0 0 1.0119 -1.1429 -98.071)" y1="6.1317" x1="32.251"/>
  <linearGradient id="linearGradient3721" y2="90.239" xlink:href="#ButtonShadow-0" gradientUnits="userSpaceOnUse" x2="32.251" gradientTransform="translate(0,-97)" y1="6.1317" x1="32.251"/>
  <linearGradient id="linearGradient3774" y2="5.9877" xlink:href="#linearGradient3676" gradientUnits="userSpaceOnUse" x2="48" gradientTransform="translate(-140,-96)" y1="90" x1="48"/>
  <linearGradient id="linearGradient3784" y2="80" gradientUnits="userSpaceOnUse" x2="48" y1="8" x1="48">
   <stop id="stop3846" style="stop-color:#9cbc4d" offset="0"/>
   <stop id="stop3848" style="stop-color:#869b1b" offset="1"/>
  </linearGradient>
 </defs>
 <metadata id="metadata2413">
  <rdf:RDF>
   <cc:Work rdf:about="">
    <dc:format>image/svg+xml</dc:format>
    <dc:type rdf:resource="http://purl.org/dc/dcmitype/StillImage"/>
    <dc:title/>
   </cc:Work>
  </rdf:RDF>
 </metadata>
 <g id="layer2" style="display:none">
  <rect id="rect3745" style="opacity:.9;filter:url(#filter3174);fill:url(#ButtonShadow)" rx="6" ry="6" height="85" width="86" y="7" x="5"/>
 </g>
 <g id="layer3">
  <path id="path3786" style="opacity:0.08;fill:url(#linearGradient3780)" d="m12-95.031c-5.5111 0-10.031 4.5202-10.031 10.031v71c0 5.5111 4.5202 10.031 10.031 10.031h72c5.5111 0 10.031-4.5202 10.031-10.031v-71c0-5.5111-4.5202-10.031-10.031-10.031h-72z" transform="scale(1,-1)"/>
  <path id="path3778" style="opacity:.1;fill:url(#linearGradient3780)" d="m12-94.031c-4.9716 0-9.0312 4.0596-9.0312 9.0312v71c0 4.9716 4.0596 9.0312 9.0312 9.0312h72c4.9716 0 9.0312-4.0596 9.0312-9.0312v-71c0-4.9716-4.0596-9.0312-9.0312-9.0312h-72z" transform="scale(1,-1)"/>
  <path id="path3770" style="opacity:.2;fill:url(#linearGradient3780)" d="m12-93c-4.4091 0-8 3.5909-8 8v71c0 4.4091 3.5909 8 8 8h72c4.4091 0 8-3.5909 8-8v-71c0-4.4091-3.5909-8-8-8h-72z" transform="scale(1,-1)"/>
  <rect id="rect3723" style="opacity:.3;fill:url(#linearGradient3780)" transform="scale(1,-1)" rx="7" ry="7" height="85" width="86" y="-92" x="5"/>
  <rect id="rect3716" style="opacity:.45;fill:url(#linearGradient3721)" transform="scale(1,-1)" rx="6" ry="6" height="84" width="84" y="-91" x="6"/>
 </g>
 <g id="layer1">
  <rect id="rect2419" style="fill:url(#linearGradient3617)" transform="scale(1,-1)" rx="6" ry="6" height="84" width="84" y="-90" x="6"/>
 </g>
 <g id="layer5">
  <rect id="rect3171" style="opacity:.1;filter:url(#filter3794);stroke:#fff;stroke-linecap:round;stroke-width:.5;fill:url(#linearGradient3613)" clip-path="url(#clipPath3613)" rx="12" ry="12" height="66" width="66" y="15" x="15"/>
 </g>
 <g id="layer4">
  <path id="path3749" style="color:#000000;fill:url(#linearGradient3784)" d="m55.844 9.1875c-24.207 0-43.844 16.532-43.844 36.938 1.151-15.39 14.996-27.532 31.906-27.532 17.664 0 32 13.236 32 29.594 0 16.357-14.336 29.625-32 29.625-7.9875 0-15.27-2.7043-20.875-7.1875 8.0295 7.6327 19.758 12.438 32.812 12.438 13.817-0.002 26.123-5.391 34.157-13.814v-46.25c-8.034-8.418-20.338-13.812-34.156-13.812zm-18.282 15.812c-13.482 0-24.406 10.259-24.406 22.906 0 12.648 10.925 22.875 24.406 22.875 13.482 0 24.438-10.227 24.438-22.875 0-12.647-10.956-22.906-24.438-22.906zm0 4.375c11.188 0 20.281 8.312 20.281 18.531s-9.093 18.5-20.281 18.5-20.25-8.2808-20.25-18.5 9.0617-18.531 20.25-18.531zm-1.687 7.875c-6.534 0-11.844 4.7834-11.844 10.656 0 5.8729 5.3097 10.625 11.844 10.625 6.534 0 11.812-4.7521 11.812-10.625 0.001-5.873-5.278-10.656-11.812-10.656zm0 3.1875c4.5779 0 8.2812 3.3541 8.2812 7.4688s-3.7034 7.4375-8.2812 7.4375c-4.5779 0-8.3125-3.3228-8.3125-7.4375s3.7346-7.4688 8.3125-7.4688z"/>
  <path id="path3762" style="opacity:.2;color:#000000;fill:#00f" d="m155.88 37.25c-6.534 0-11.844 4.7834-11.844 10.656 0 5.8729 5.3097 10.625 11.844 10.625 6.534 0 11.812-4.7521 11.812-10.625s-5.2785-10.656-11.812-10.656zm0 3.1875c4.5779 0 8.2812 3.3541 8.2812 7.4688s-3.7034 7.4375-8.2812 7.4375c-4.5779 0-8.3125-3.3228-8.3125-7.4375s3.7346-7.4688 8.3125-7.4688z"/>
  <path id="path3764" style="opacity:.2;color:#000000;fill:#00f" d="m157.56 25c-13.482 0-24.406 10.259-24.406 22.906 0 12.648 10.925 22.875 24.406 22.875 13.48 0 24.44-10.227 24.44-22.875 0-12.647-10.96-22.906-24.44-22.906zm0 4.375c11.188 0 20.281 8.312 20.281 18.531s-9.093 18.5-20.281 18.5-20.25-8.2808-20.25-18.5 9.0617-18.531 20.25-18.531z"/>
  <path id="path3766" style="opacity:.2;color:#000000;fill:#00f" d="m175.83 9.183c-24.21 0-43.83 16.526-43.83 36.931 0 0.05788-0.00031 0.11592 0 0.17373 1.0684-15.463 14.95-27.698 31.917-27.698 17.664 0 31.992 13.252 31.992 29.609s-14.328 29.609-31.992 29.609c-7.9875 0-15.268-2.7143-20.873-7.1975 8.0295 7.6327 19.732 12.459 32.786 12.459 24.207 0 43.83-16.551 43.83-36.956s-19.624-36.931-43.83-36.931z"/>
  <rect id="rect3772" style="fill:url(#linearGradient3774)" transform="scale(1,-1)" rx="6" ry="6" height="84" width="84" y="-90" x="-134"/>
  <path id="path3787" style="opacity:.2;color:#000000" d="m55.844 8.1875c-24.207 0-43.844 16.532-43.844 36.938 0.01098-0.1469 0.04921-0.2912 0.0625-0.4375 0.89584-19.739 20.145-35.5 43.781-35.5 13.818-0.0005 26.122 5.394 34.156 13.812v-1c-8.034-8.418-20.338-13.812-34.156-13.812zm-18.282 15.812c-13.482 0-24.406 10.259-24.406 22.906 0 0.1663-0.0038 0.33456 0 0.5 0.282-12.418 11.102-22.406 24.406-22.406 13.305 0 24.155 9.988 24.438 22.406 0.0038-0.16544 0-0.3337 0-0.5 0-12.647-10.956-22.906-24.438-22.906zm-1.687 12.25c-6.534 0-11.844 4.7834-11.844 10.656 0 0.16785 0.02267 0.33407 0.03125 0.5 0.292-5.641 5.466-10.156 11.813-10.156 6.3473 0 11.491 4.5147 11.781 10.156 0.0085-0.16593 0.03125-0.33215 0.03125-0.5 0.001-5.873-5.278-10.656-11.812-10.656zm-18.531 11.156c-0.005 0.16939-0.03125 0.32952-0.03125 0.5 0 10.219 9.0617 18.5 20.25 18.5s20.281-8.2808 20.281-18.5c0-0.17048-0.02622-0.33061-0.03125-0.5-0.29642 9.9834-9.2484 18-20.25 18s-19.923-8.0166-20.219-18zm10.25 0c-0.01278 0.16876-0.03125 0.32841-0.03125 0.5 0 4.1147 3.7346 7.4375 8.3125 7.4375s8.2812-3.3228 8.2812-7.4375c0-0.17159-0.01857-0.33124-0.03125-0.5-0.29129 3.8756-3.863 6.9375-8.25 6.9375s-7.9876-3.0619-8.2812-6.9375zm48.312 0.28125c-0.28834 16.127-14.516 29.125-32 29.125-7.9875 0-15.27-2.7043-20.875-7.1875 1.9485 1.8522 4.1185 3.5404 6.4688 5.0312 4.3273 2.0289 9.2173 3.1562 14.406 3.1562 17.664 0 32-13.268 32-29.625 0-0.16684 0.003-0.33382 0-0.5z"/>
  <path id="path3796" style="opacity:.2;color:#000000" d="m55.844 9.1875c-24.207 0-43.844 16.532-43.844 36.938 0.01098-0.1469 0.04921-0.2912 0.0625-0.4375 0.89584-19.739 20.145-35.5 43.781-35.5 13.818 0 26.122 5.394 34.156 13.812v-1c-8.034-8.418-20.338-13.812-34.156-13.812zm-18.282 15.812c-13.482 0-24.406 10.259-24.406 22.906 0 0.1663-0.0038 0.33456 0 0.5 0.282-12.418 11.102-22.406 24.406-22.406 13.305 0 24.155 9.988 24.438 22.406 0.0038-0.16544 0-0.3337 0-0.5 0-12.647-10.956-22.906-24.438-22.906zm-1.687 12.25c-6.534 0-11.844 4.7834-11.844 10.656 0 0.16785 0.02267 0.33407 0.03125 0.5 0.292-5.641 5.466-10.156 11.813-10.156 6.3473 0 11.491 4.5147 11.781 10.156 0.0085-0.16593 0.03125-0.33215 0.03125-0.5 0.001-5.873-5.278-10.656-11.812-10.656zm-18.531 11.156c-0.005 0.16939-0.03125 0.32952-0.03125 0.5 0 10.219 9.0617 18.5 20.25 18.5s20.281-8.2808 20.281-18.5c0-0.17048-0.02622-0.33061-0.03125-0.5-0.29642 9.9834-9.2484 18-20.25 18s-19.923-8.0166-20.219-18zm10.25 0c-0.01278 0.16876-0.03125 0.32841-0.03125 0.5 0 4.1147 3.7346 7.4375 8.3125 7.4375s8.2812-3.3228 8.2812-7.4375c0-0.17159-0.01857-0.33124-0.03125-0.5-0.29129 3.8756-3.863 6.9375-8.25 6.9375s-7.9876-3.0619-8.2812-6.9375zm48.312 0.28125c-0.28834 16.127-14.516 29.125-32 29.125-7.9875 0-15.27-2.7043-20.875-7.1875 1.9485 1.8522 4.1185 3.5404 6.4688 5.0312 4.3273 2.0289 9.2173 3.1562 14.406 3.1562 17.664 0 32-13.268 32-29.625 0-0.16684 0.003-0.33382 0-0.5z"/>
  <path id="path3798" style="opacity:.4;color:#000000;fill:#fff" d="m43.906 18.594c-16.748 0-30.465 11.914-31.844 27.094-0.021 0.476-0.062 0.956-0.062 1.437 1.151-15.389 14.996-27.531 31.906-27.531 17.484 0 31.712 12.967 32 29.094 0.003-0.16619 0-0.33316 0-0.5 0-16.357-14.336-29.594-32-29.594zm-6.344 10.781c-11.188 0-20.25 8.312-20.25 18.531 0 0.17048 0.02624 0.33062 0.03125 0.5 0.296-9.984 9.218-18.031 20.219-18.031 11.002 0 19.954 8.0469 20.25 18.031 0.005-0.16938 0.03125-0.32952 0.03125-0.5 0.001-10.219-9.092-18.531-20.281-18.531zm-1.687 11.063c-4.5779 0-8.3125 3.3541-8.3125 7.4688 0 0.17159 0.01847 0.33134 0.03125 0.5 0.29368-3.8779 3.8943-6.9688 8.2812-6.9688 4.387 0 7.9587 3.0908 8.25 6.9688 0.01268-0.16866 0.03125-0.32841 0.03125-0.5 0-4.1147-3.7034-7.4688-8.2812-7.4688zm-22.719 7.9688c-0.0038 0.16546 0 0.3337 0 0.5 0 12.648 10.925 22.875 24.406 22.875 13.482 0 24.438-10.227 24.438-22.875 0-0.1663 0.0038-0.33454 0-0.5-0.28288 12.417-11.133 22.375-24.438 22.375-13.304 0-24.124-9.9579-24.406-22.375zm10.906 0c-0.0086 0.16598-0.03125 0.33215-0.03125 0.5 0 5.8729 5.3097 10.625 11.844 10.625 6.534 0 11.812-4.7521 11.812-10.625 0-0.16785-0.02272-0.33402-0.03125-0.5-0.2899 5.6399-5.434 10.125-11.781 10.125-6.3473 0-11.521-4.4851-11.812-10.125zm65.938 20.843c-8.034 8.423-20.34 13.812-34.156 13.812-9.887 0-19.009-2.753-26.344-7.406-2.334-1.094-4.505-2.46-6.469-4.031 8.03 7.633 19.759 12.437 32.813 12.437 13.816 0 26.122-5.389 34.156-13.812v-1z"/>
  <path id="path3821" style="opacity:.05;color:#000000" d="m55.844 9.1875c-24.207 0-43.844 16.532-43.844 36.938 1.151-15.39 14.996-27.532 31.906-27.532 17.664 0 32 13.236 32 29.594 0 16.357-14.336 29.625-32 29.625-7.9875 0-15.27-2.7043-20.875-7.1875 8.0295 7.6327 19.758 12.438 32.812 12.438 13.817-0.002 26.123-5.391 34.157-13.814v-3.5l-2.8125 2.125v0.09375c-7.47 7.412-18.665 12.281-31.344 12.281-1.5341 0-2.9796-0.2695-4.4688-0.40625 15.541-3.1913 27.344-16.072 27.344-31.656 0-18.006-15.739-32.406-34.812-32.406-3.2757 0-6.3907 0.54948-9.4062 1.3438 6.205-3.171 13.453-5.126 21.343-5.126 12.574 0 23.687 4.789 31.156 12.094v-0.094l3 3v-4c-8.034-8.418-20.338-13.812-34.156-13.812zm-18.282 15.812c-13.482 0-24.406 10.259-24.406 22.906 0 12.648 10.925 22.875 24.406 22.875 13.482 0 24.438-10.227 24.438-22.875 0-12.647-10.956-22.906-24.438-22.906zm0 4.375c11.188 0 20.281 8.312 20.281 18.531s-9.093 18.5-20.281 18.5-20.25-8.2808-20.25-18.5 9.0617-18.531 20.25-18.531zm-1.687 7.875c-6.534 0-11.844 4.7834-11.844 10.656 0 5.8729 5.3097 10.625 11.844 10.625 6.534 0 11.812-4.7521 11.812-10.625 0.001-5.873-5.278-10.656-11.812-10.656zm0 3.1875c4.5779 0 8.2812 3.3541 8.2812 7.4688s-3.7034 7.4375-8.2812 7.4375c-4.5779 0-8.3125-3.3228-8.3125-7.4375s3.7346-7.4688 8.3125-7.4688z"/>
  <path id="path3807" style="opacity:.15;color:#000000" d="m55.844 9.1875c-24.207 0-43.844 16.532-43.844 36.938 1.151-15.39 14.996-27.532 31.906-27.532 17.664 0 32 13.236 32 29.594 0 16.357-14.336 29.625-32 29.625-7.9875 0-15.27-2.7043-20.875-7.1875 8.0295 7.6327 19.758 12.438 32.812 12.438 13.817-0.002 26.123-5.391 34.157-13.814v-0.812l-3 2.562v-0.094c-7.814 6.929-18.857 11.282-31.156 11.282-7.7224 0-14.837-1.8558-21.094-4.8438 2.9179 0.7887 5.9626 1.3438 9.1562 1.3438 18.095 0 32.875-13.64 32.875-30.5s-14.781-30.469-32.875-30.469c-10.744 0-20.283 4.8234-26.281 12.25 7.072-11.739 21.408-19.907 38.219-19.907 12.301 0 23.342 4.355 31.156 11.282v-0.344l1.75 2c0.11962 0.11987 0.25722 0.22257 0.375 0.34375v0.0625l0.875 1v-1.406c-8.034-8.418-20.338-13.812-34.156-13.812zm-18.282 15.812c-13.482 0-24.406 10.259-24.406 22.906 0 12.648 10.925 22.875 24.406 22.875 13.482 0 24.438-10.227 24.438-22.875 0-12.647-10.956-22.906-24.438-22.906zm0 0.875c13.045 0 23.562 9.8808 23.562 22.031s-10.516 22-23.562 22-23.531-9.8482-23.531-22 10.486-22.031 23.531-22.031zm0 2.625c-11.615 0-21.125 8.6782-21.125 19.406s9.512 19.375 21.125 19.375 21.156-8.6452 21.156-19.375c0.001-10.73-9.541-19.406-21.156-19.406zm0 0.875c11.188 0 20.281 8.312 20.281 18.531s-9.093 18.5-20.281 18.5-20.25-8.2808-20.25-18.5 9.0617-18.531 20.25-18.531zm-1.687 7.875c-6.534 0-11.844 4.7834-11.844 10.656 0 5.8729 5.3097 10.625 11.844 10.625 6.534 0 11.812-4.7521 11.812-10.625 0.001-5.873-5.278-10.656-11.812-10.656zm0 0.875c6.1139 0 10.938 4.4242 10.938 9.7812 0 5.3571-4.8208 9.75-10.938 9.75-6.1167 0-10.969-4.396-10.969-9.75s4.8548-9.7812 10.969-9.7812zm0 1.4375c-4.9983 0-9.1875 3.7082-9.1875 8.3438 0 4.6355 4.1931 8.3125 9.1875 8.3125s9.1562-3.6814 9.1562-8.3125-4.1579-8.3438-9.1562-8.3438zm0 0.875c4.5779 0 8.2812 3.3541 8.2812 7.4688s-3.7034 7.4375-8.2812 7.4375c-4.5779 0-8.3125-3.3228-8.3125-7.4375s3.7346-7.4688 8.3125-7.4688z"/>
  <path id="path3814" style="opacity:.1;color:#000000" d="m55.844 9.1875c-24.207 0-43.844 16.532-43.844 36.938 1.151-15.39 14.996-27.532 31.906-27.532 17.664 0 32 13.236 32 29.594 0 16.357-14.336 29.625-32 29.625-7.9875 0-15.27-2.7043-20.875-7.1875 8.0295 7.6327 19.758 12.438 32.812 12.438 13.817-0.002 26.123-5.391 34.157-13.814v-2.5938l-1.9375 1.5v0.1875c-7.645 7.73-19.177 12.781-32.218 12.781-3.9253 0-7.6517-0.59494-11.25-1.4375 18.315-0.34889 33.25-14.23 33.25-31.5 0-17.491-15.305-31.531-33.938-31.531-6.3781 0-12.322 1.6975-17.438 4.5625 7.538-6.214 17.862-10.094 29.376-10.094 13.043 0 24.573 5.0544 32.219 12.781v0.21875l1.9375 2v-3.125c-8.034-8.418-20.338-13.812-34.156-13.812zm-18.282 15.812c-13.482 0-24.406 10.259-24.406 22.906 0 12.648 10.925 22.875 24.406 22.875 13.482 0 24.438-10.227 24.438-22.875 0-12.647-10.956-22.906-24.438-22.906zm0 1.9375c12.498 0 22.5 9.4412 22.5 20.969s-9.9991 20.938-22.5 20.938-22.469-9.4068-22.469-20.938 9.9709-20.969 22.469-20.969zm0 0.5c-12.149 0-22.188 9.103-22.188 20.469s10.042 20.438 22.188 20.438c12.145 0 22.219-9.0678 22.219-20.438s-10.07-20.469-22.219-20.469zm0 1.9375c11.188 0 20.281 8.312 20.281 18.531s-9.093 18.5-20.281 18.5-20.25-8.2808-20.25-18.5 9.0617-18.531 20.25-18.531zm-1.687 7.874c-6.534 0-11.844 4.7834-11.844 10.656 0 5.8729 5.3097 10.625 11.844 10.625 6.534 0 11.812-4.7521 11.812-10.625 0.001-5.873-5.278-10.656-11.812-10.656zm0 3.1875c4.5779 0 8.2812 3.3541 8.2812 7.4688s-3.7034 7.4375-8.2812 7.4375c-4.5779 0-8.3125-3.3228-8.3125-7.4375s3.7346-7.4688 8.3125-7.4688z"/>
 </g>
 <g id="layer6">
  <path id="rect3728" style="opacity:.4;fill:url(#linearGradient3188)" d="m12 6c-3.324 0-6 2.676-6 6v2 68 2c0 0.33472 0.04135 0.6507 0.09375 0.96875 0.0487 0.2956 0.09704 0.59692 0.1875 0.875 0.00988 0.03038 0.020892 0.0636 0.03125 0.09375 0.098865 0.28777 0.23488 0.54745 0.375 0.8125 0.14459 0.27351 0.31562 0.53562 0.5 0.78125 0.18438 0.24564 0.37378 0.47347 0.59375 0.6875 0.43995 0.42806 0.94291 0.81453 1.5 1.0938 0.27854 0.13961 0.57347 0.24695 0.875 0.34375-0.2562-0.10022-0.48671-0.23627-0.71875-0.375-0.00741-0.0044-0.023866 0.0045-0.03125 0-0.031933-0.0193-0.062293-0.04251-0.09375-0.0625-0.1204-0.0767-0.23102-0.16351-0.34375-0.25-0.10617-0.0808-0.21328-0.16111-0.3125-0.25-0.1778-0.162-0.3473-0.346-0.4999-0.531-0.1075-0.131-0.2183-0.266-0.3124-0.407-0.0251-0.038-0.0385-0.086-0.0626-0.125-0.0647-0.103-0.1302-0.204-0.1874-0.312-0.1011-0.195-0.2057-0.416-0.2813-0.625-0.008-0.022-0.0236-0.041-0.0313-0.063-0.0318-0.092-0.0358-0.187-0.0624-0.281-0.0304-0.107-0.0704-0.203-0.0938-0.313-0.0729-0.341-0.125-0.698-0.125-1.062v-2-68-2c0-2.782 2.2182-5 5-5h2 68 2c2.7818 0 5 2.2182 5 5v2 68 2c0 0.3643-0.05212 0.72099-0.125 1.0625-0.04415 0.20689-0.08838 0.39766-0.15625 0.59375-0.0077 0.02195-0.0233 0.04069-0.03125 0.0625-0.06274 0.17374-0.13838 0.36745-0.21875 0.53125-0.04158 0.0828-0.07904 0.16995-0.125 0.25-0.0546 0.09721-0.12677 0.18835-0.1875 0.28125-0.09411 0.14096-0.20492 0.276-0.3125 0.40625-0.14317 0.17445-0.30314 0.347-0.46875 0.5-0.01117 0.0102-0.01998 0.02115-0.03125 0.03125-0.13839 0.12556-0.28509 0.23444-0.4375 0.34375-0.10257 0.07315-0.20432 0.15336-0.3125 0.21875-0.0074 0.0045-0.02384-0.0044-0.03125 0-0.23204 0.13873-0.46255 0.27478-0.71875 0.375 0.30153-0.0968 0.59646-0.20414 0.875-0.34375 0.55709-0.27922 1.0601-0.66569 1.5-1.0938 0.21997-0.21403 0.40937-0.44186 0.59375-0.6875s0.35541-0.50774 0.5-0.78125c0.14012-0.26505 0.27614-0.52473 0.375-0.8125 0.01041-0.03078 0.02133-0.06274 0.03125-0.09375 0.09046-0.27808 0.1388-0.5794 0.1875-0.875 0.053-0.318 0.094-0.634 0.094-0.969v-2-68-2c0-3.324-2.676-6-6-6h-72z"/>
  <path id="path3615" style="opacity:.2;fill:url(#radialGradient3619)" d="m12 90c-3.324 0-6-2.676-6-6v-2-68-2c0-0.33472 0.04135-0.6507 0.09375-0.96875 0.0487-0.2956 0.09704-0.59692 0.1875-0.875 0.0099-0.03 0.0209-0.063 0.0313-0.094 0.0989-0.2873 0.2349-0.547 0.375-0.812 0.1446-0.2735 0.3156-0.5356 0.5-0.7812 0.1844-0.2457 0.3738-0.4735 0.5937-0.6876 0.44-0.428 0.943-0.8145 1.5-1.0937 0.2786-0.1396 0.5735-0.2469 0.8748-0.3437-0.256 0.1002-0.4865 0.2362-0.7185 0.375-0.00741 0.0044-0.023866-0.0045-0.03125 0-0.031933 0.0193-0.062293 0.04251-0.09375 0.0625-0.1204 0.0767-0.23102 0.16351-0.34375 0.25-0.10617 0.0808-0.21328 0.16111-0.3125 0.25-0.1779 0.1614-0.3474 0.3453-0.5 0.5312-0.1075 0.1303-0.2183 0.2653-0.3124 0.4063-0.0251 0.0383-0.0385 0.0858-0.0626 0.125-0.0647 0.103-0.1302 0.2045-0.1874 0.3124-0.1011 0.1948-0.2057 0.4158-0.2813 0.625-0.008 0.0219-0.0236 0.0406-0.0313 0.0626-0.0318 0.0919-0.0358 0.1868-0.0624 0.2812-0.0304 0.1066-0.0704 0.203-0.0938 0.3125-0.0729 0.3415-0.125 0.6985-0.125 1.0625v2 68 2c0 2.7818 2.2182 5 5 5h2 68 2c2.7818 0 5-2.2182 5-5v-2-68-2c0-0.364-0.052-0.721-0.125-1.0625-0.044-0.2069-0.088-0.3977-0.156-0.5937-0.008-0.022-0.024-0.0407-0.031-0.0626-0.063-0.1737-0.139-0.3674-0.219-0.5312-0.042-0.0828-0.079-0.17-0.125-0.25-0.055-0.0972-0.127-0.1884-0.188-0.2812-0.094-0.141-0.205-0.276-0.312-0.4063-0.143-0.1745-0.303-0.347-0.469-0.5-0.011-0.0102-0.02-0.0211-0.031-0.0313-0.139-0.1255-0.285-0.2344-0.438-0.3437-0.102-0.0731-0.204-0.1534-0.312-0.2187-0.0074-0.0045-0.02384 0.0044-0.03125 0-0.23204-0.13873-0.46255-0.27478-0.71875-0.375 0.30153 0.0968 0.59646 0.20414 0.875 0.34375 0.55709 0.27922 1.0601 0.66569 1.5 1.0938 0.21997 0.21403 0.40937 0.44186 0.59375 0.6875s0.35541 0.50774 0.5 0.78125c0.14012 0.26505 0.27614 0.52473 0.375 0.8125 0.01041 0.03078 0.02133 0.06274 0.03125 0.09375 0.09046 0.27808 0.1388 0.5794 0.1875 0.875 0.053 0.318 0.094 0.634 0.094 0.969v2 68 2c0 3.324-2.676 6-6 6h-72z"/>
 </g>
</svg>
