<?xml version="1.0" encoding="UTF-8" standalone="no"?>
<!-- Created with Inkscape (http://www.inkscape.org/) -->
<svg id="svg2408" xmlns:rdf="http://www.w3.org/1999/02/22-rdf-syntax-ns#" xmlns="http://www.w3.org/2000/svg" height="96" width="96" version="1.0" xmlns:cc="http://creativecommons.org/ns#" xmlns:xlink="http://www.w3.org/1999/xlink" xmlns:dc="http://purl.org/dc/elements/1.1/">
 <defs id="defs2410">
  <linearGradient id="ButtonShadow" y2="7.0165" gradientUnits="userSpaceOnUse" x2="45.448" gradientTransform="scale(1.0059 .99417)" y1="92.54" x1="45.448">
   <stop id="stop3750" offset="0"/>
   <stop id="stop3752" style="stop-opacity:.58824" offset="1"/>
  </linearGradient>
  <linearGradient id="linearGradient3737">
   <stop id="stop3739" style="stop-color:#fff" offset="0"/>
   <stop id="stop3741" style="stop-color:#fff;stop-opacity:0" offset="1"/>
  </linearGradient>
  <filter id="filter3174" color-interpolation-filters="sRGB">
   <feGaussianBlur id="feGaussianBlur3176" stdDeviation="1.71"/>
  </filter>
  <linearGradient id="linearGradient3188" y2="63.893" xlink:href="#linearGradient3737" gradientUnits="userSpaceOnUse" x2="36.357" y1="6" x1="36.357"/>
  <filter id="filter3794" height="1.384" width="1.384" color-interpolation-filters="sRGB" y="-.192" x="-.192">
   <feGaussianBlur id="feGaussianBlur3796" stdDeviation="5.28"/>
  </filter>
  <linearGradient id="linearGradient3613" y2="138.66" xlink:href="#linearGradient3737" gradientUnits="userSpaceOnUse" x2="48" y1="20.221" x1="48"/>
  <radialGradient id="radialGradient3619" xlink:href="#linearGradient3737" gradientUnits="userSpaceOnUse" cy="90.172" cx="48" gradientTransform="matrix(1.1573 0 0 .99591 -7.551 .19713)" r="42"/>
  <clipPath id="clipPath3613">
   <rect id="rect3615" style="fill:#fff" rx="6" ry="6" height="84" width="84" y="6" x="6"/>
  </clipPath>
  <linearGradient id="linearGradient3617" y2="5.9877" gradientUnits="userSpaceOnUse" x2="48" y1="90" x1="48">
   <stop id="stop2885" style="stop-color:#0075ab" offset="0"/>
   <stop id="stop2887" style="stop-color:#08b1ff" offset="1"/>
  </linearGradient>
  <linearGradient id="ButtonShadow-0" y2="7.0165" gradientUnits="userSpaceOnUse" x2="45.448" gradientTransform="matrix(1.0059 0 0 .99417 100 0)" y1="92.54" x1="45.448">
   <stop id="stop3750-8" offset="0"/>
   <stop id="stop3752-5" style="stop-opacity:.58824" offset="1"/>
  </linearGradient>
  <linearGradient id="linearGradient3780" y2="90.239" xlink:href="#ButtonShadow-0" gradientUnits="userSpaceOnUse" x2="32.251" gradientTransform="matrix(1.0238 0 0 1.0119 -1.1429 -98.071)" y1="6.1317" x1="32.251"/>
  <linearGradient id="linearGradient3721" y2="90.239" xlink:href="#ButtonShadow-0" gradientUnits="userSpaceOnUse" x2="32.251" gradientTransform="translate(0,-97)" y1="6.1317" x1="32.251"/>
  <radialGradient id="radialGradient3740" gradientUnits="userSpaceOnUse" cy="28.079" cx="64" gradientTransform="matrix(1.1046 4.1739e-8 -8.2848e-8 2.1926 -6.6969 -37.566)" r="14.484">
   <stop id="stop3709" style="stop-color:#595553" offset="0"/>
   <stop id="stop3711" style="stop-color:#2f2a27" offset="1"/>
  </radialGradient>
  <radialGradient id="radialGradient3742" gradientUnits="userSpaceOnUse" cy="44" cx="44" r="2">
   <stop id="stop3721" style="stop-color:#fff" offset="0"/>
   <stop id="stop3727" style="stop-color:#fff" offset=".78125"/>
   <stop id="stop3723" style="stop-color:#fff;stop-opacity:0" offset="1"/>
  </radialGradient>
  <linearGradient id="linearGradient3798" y2="32" gradientUnits="userSpaceOnUse" x2="56" gradientTransform="translate(-1,-1)" y1="80" x1="56">
   <stop id="stop3794" style="stop-color:#b9da5b" offset="0"/>
   <stop id="stop3796" style="stop-color:#a3ce27" offset="1"/>
  </linearGradient>
 </defs>
 <metadata id="metadata2413">
  <rdf:RDF>
   <cc:Work rdf:about="">
    <dc:format>image/svg+xml</dc:format>
    <dc:type rdf:resource="http://purl.org/dc/dcmitype/StillImage"/>
    <dc:title/>
   </cc:Work>
  </rdf:RDF>
 </metadata>
 <g id="layer2" style="display:none">
  <rect id="rect3745" style="opacity:.9;filter:url(#filter3174);fill:url(#ButtonShadow)" rx="6" ry="6" height="85" width="86" y="7" x="5"/>
 </g>
 <g id="layer3">
  <path id="path3786" style="opacity:0.08;fill:url(#linearGradient3780)" d="m12-95.031c-5.5111 0-10.031 4.5202-10.031 10.031v71c0 5.5111 4.5202 10.031 10.031 10.031h72c5.5111 0 10.031-4.5202 10.031-10.031v-71c0-5.5111-4.5202-10.031-10.031-10.031h-72z" transform="scale(1,-1)"/>
  <path id="path3778" style="opacity:.1;fill:url(#linearGradient3780)" d="m12-94.031c-4.9716 0-9.0312 4.0596-9.0312 9.0312v71c0 4.9716 4.0596 9.0312 9.0312 9.0312h72c4.9716 0 9.0312-4.0596 9.0312-9.0312v-71c0-4.9716-4.0596-9.0312-9.0312-9.0312h-72z" transform="scale(1,-1)"/>
  <path id="path3770" style="opacity:.2;fill:url(#linearGradient3780)" d="m12-93c-4.4091 0-8 3.5909-8 8v71c0 4.4091 3.5909 8 8 8h72c4.4091 0 8-3.5909 8-8v-71c0-4.4091-3.5909-8-8-8h-72z" transform="scale(1,-1)"/>
  <rect id="rect3723" style="opacity:.3;fill:url(#linearGradient3780)" transform="scale(1,-1)" rx="7" ry="7" height="85" width="86" y="-92" x="5"/>
  <rect id="rect3716" style="opacity:.45;fill:url(#linearGradient3721)" transform="scale(1,-1)" rx="6" ry="6" height="84" width="84" y="-91" x="6"/>
 </g>
 <g id="layer1">
  <rect id="rect2419" style="fill:url(#linearGradient3617)" rx="6" ry="6" height="84" width="84" y="6" x="6"/>
  <path id="rect3728" style="opacity:.5;fill:url(#linearGradient3188)" d="m12 6c-3.324 0-6 2.676-6 6v2 68 2c0 0.33472 0.04135 0.6507 0.09375 0.96875 0.0487 0.2956 0.09704 0.59692 0.1875 0.875 0.00988 0.03038 0.020892 0.0636 0.03125 0.09375 0.098865 0.28777 0.23488 0.54745 0.375 0.8125 0.14459 0.27351 0.31562 0.53562 0.5 0.78125 0.18438 0.24564 0.37378 0.47347 0.59375 0.6875 0.43995 0.42806 0.94291 0.81453 1.5 1.0938 0.27854 0.13961 0.57347 0.24695 0.875 0.34375-0.2562-0.10022-0.48671-0.23627-0.71875-0.375-0.00741-0.0044-0.023866 0.0045-0.03125 0-0.031933-0.0193-0.062293-0.04251-0.09375-0.0625-0.1204-0.0767-0.23102-0.16351-0.34375-0.25-0.10617-0.0808-0.21328-0.16111-0.3125-0.25-0.1778-0.162-0.3473-0.346-0.4999-0.531-0.1075-0.131-0.2183-0.266-0.3124-0.407-0.0251-0.038-0.0385-0.086-0.0626-0.125-0.0647-0.103-0.1302-0.204-0.1874-0.312-0.1011-0.195-0.2057-0.416-0.2813-0.625-0.008-0.022-0.0236-0.041-0.0313-0.063-0.0318-0.092-0.0358-0.187-0.0624-0.281-0.0304-0.107-0.0704-0.203-0.0938-0.313-0.0729-0.341-0.125-0.698-0.125-1.062v-2-68-2c0-2.782 2.2182-5 5-5h2 68 2c2.7818 0 5 2.2182 5 5v2 68 2c0 0.3643-0.05212 0.72099-0.125 1.0625-0.04415 0.20689-0.08838 0.39766-0.15625 0.59375-0.0077 0.02195-0.0233 0.04069-0.03125 0.0625-0.06274 0.17374-0.13838 0.36745-0.21875 0.53125-0.04158 0.0828-0.07904 0.16995-0.125 0.25-0.0546 0.09721-0.12677 0.18835-0.1875 0.28125-0.09411 0.14096-0.20492 0.276-0.3125 0.40625-0.14317 0.17445-0.30314 0.347-0.46875 0.5-0.01117 0.0102-0.01998 0.02115-0.03125 0.03125-0.13839 0.12556-0.28509 0.23444-0.4375 0.34375-0.10257 0.07315-0.20432 0.15336-0.3125 0.21875-0.0074 0.0045-0.02384-0.0044-0.03125 0-0.23204 0.13873-0.46255 0.27478-0.71875 0.375 0.30153-0.0968 0.59646-0.20414 0.875-0.34375 0.55709-0.27922 1.0601-0.66569 1.5-1.0938 0.21997-0.21403 0.40937-0.44186 0.59375-0.6875s0.35541-0.50774 0.5-0.78125c0.14012-0.26505 0.27614-0.52473 0.375-0.8125 0.01041-0.03078 0.02133-0.06274 0.03125-0.09375 0.09046-0.27808 0.1388-0.5794 0.1875-0.875 0.053-0.318 0.094-0.634 0.094-0.969v-2-68-2c0-3.324-2.676-6-6-6h-72z"/>
  <path id="path3615" style="opacity:.2;fill:url(#radialGradient3619)" d="m12 90c-3.324 0-6-2.676-6-6v-2-68-2c0-0.33472 0.04135-0.6507 0.09375-0.96875 0.0487-0.2956 0.09704-0.59692 0.1875-0.875 0.0099-0.03 0.0209-0.063 0.0313-0.094 0.0989-0.2873 0.2349-0.547 0.375-0.812 0.1446-0.2735 0.3156-0.5356 0.5-0.7812 0.1844-0.2457 0.3738-0.4735 0.5937-0.6876 0.44-0.428 0.943-0.8145 1.5-1.0937 0.2786-0.1396 0.5735-0.2469 0.8748-0.3437-0.256 0.1002-0.4865 0.2362-0.7185 0.375-0.00741 0.0044-0.023866-0.0045-0.03125 0-0.031933 0.0193-0.062293 0.04251-0.09375 0.0625-0.1204 0.0767-0.23102 0.16351-0.34375 0.25-0.10617 0.0808-0.21328 0.16111-0.3125 0.25-0.1779 0.1614-0.3474 0.3453-0.5 0.5312-0.1075 0.1303-0.2183 0.2653-0.3124 0.4063-0.0251 0.0383-0.0385 0.0858-0.0626 0.125-0.0647 0.103-0.1302 0.2045-0.1874 0.3124-0.1011 0.1948-0.2057 0.4158-0.2813 0.625-0.008 0.0219-0.0236 0.0406-0.0313 0.0626-0.0318 0.0919-0.0358 0.1868-0.0624 0.2812-0.0304 0.1066-0.0704 0.203-0.0938 0.3125-0.0729 0.3415-0.125 0.6985-0.125 1.0625v2 68 2c0 2.7818 2.2182 5 5 5h2 68 2c2.7818 0 5-2.2182 5-5v-2-68-2c0-0.364-0.052-0.721-0.125-1.0625-0.044-0.2069-0.088-0.3977-0.156-0.5937-0.008-0.022-0.024-0.0407-0.031-0.0626-0.063-0.1737-0.139-0.3674-0.219-0.5312-0.042-0.0828-0.079-0.17-0.125-0.25-0.055-0.0972-0.127-0.1884-0.188-0.2812-0.094-0.141-0.205-0.276-0.312-0.4063-0.143-0.1745-0.303-0.347-0.469-0.5-0.011-0.0102-0.02-0.0211-0.031-0.0313-0.139-0.1255-0.285-0.2344-0.438-0.3437-0.102-0.0731-0.204-0.1534-0.312-0.2187-0.0074-0.0045-0.02384 0.0044-0.03125 0-0.23204-0.13873-0.46255-0.27478-0.71875-0.375 0.30153 0.0968 0.59646 0.20414 0.875 0.34375 0.55709 0.27922 1.0601 0.66569 1.5 1.0938 0.21997 0.21403 0.40937 0.44186 0.59375 0.6875s0.35541 0.50774 0.5 0.78125c0.14012 0.26505 0.27614 0.52473 0.375 0.8125 0.01041 0.03078 0.02133 0.06274 0.03125 0.09375 0.09046 0.27808 0.1388 0.5794 0.1875 0.875 0.053 0.318 0.094 0.634 0.094 0.969v2 68 2c0 3.324-2.676 6-6 6h-72z"/>
 </g>
 <g id="layer5">
  <rect id="rect3171" style="opacity:.1;filter:url(#filter3794);stroke:#fff;stroke-linecap:round;stroke-width:.5;fill:url(#linearGradient3613)" clip-path="url(#clipPath3613)" rx="12" ry="12" height="66" width="66" y="15" x="15"/>
 </g>
 <g id="layer4">
  <path id="path3812" style="opacity:0.08;color:#000000" d="m45.688 10.094c-1.9466 0.21034-2.9209 2.2376-2.5938 4.0625-0.06329 3.4352 0.12608 7.0526-0.09375 10.375-9.4749 1.3761-17.486 9.2978-19.344 18.562-0.95236 4.0449-0.70058 9.3221 1.0284 13.531 3.2773 8.7455 12.061 15.066 21.409 15.313 0.07008 4.5572-0.13537 9.152 0.09375 13.688 1.6275-0.29181-0.44188-0.17144 0.25 0.6875 0.81237 1.759 3.1004 1.856 4.738 1.2653 11.278-1.999 20.169-12.856 19.7-24.329 0.037-11.875 0.083-23.785-0.024-35.67-0.539-9.8-9.726-18.039-19.533-17.486h-5.6302zm0.5 75.531c-1.146-2.139-2.569-4.817-3.821-7.163-14.123-26.487-28.245-52.975-42.367-79.462l46.188 86.625z"/>
  <path id="path3808" style="opacity:.1;color:#000000" d="m45.781 12a0.98812 0.98812 0 0 0 -0.156 0.031c-0.000121 0.000022-0.15613 0.03122-0.15625 0.03125-0.000118 0.000033-0.15614 0.06246-0.15625 0.0625-0.000115 0.000043-0.18739 0.06245-0.1875 0.0625-0.000111 0.000053-0.15614 0.09369-0.15625 0.09375-0.000106 0.000063-0.1249 0.09368-0.125 0.09375-0.0001 0.000072-0.15616 0.09367-0.15625 0.09375-0.000093 0.00008-0.12491 0.12491-0.125 0.125-0.000086 0.000088-0.09367 0.1249-0.09375 0.125-0.000077 0.000095-0.12493 0.15615-0.125 0.15625-0.000069 0.000102-0.09369 0.15614-0.09375 0.15625-0.00006 0.000108-0.06245 0.15614-0.0625 0.15625-0.00005 0.000112-0.06246 0.15613-0.0625 0.15625-0.00004 0.000116-0.06247 0.15613-0.0625 0.15625-0.000029 0.000119-0.03123 0.18738-0.03125 0.1875-0.000019 0.000121 0.000008 0.15613 0 0.15625-0.000007 0.000103-0.03046 0.11643-0.03125 0.15625-0.000152 0.0077 0 0.03123 0 0.03125v1.125 3.8438 7.25c-0.14724 0.02007-0.30128 0.05176-0.375 0.0625-0.04952 0.0073-0.09653 0.02857-0.125 0.03125-0.04889 0.0046-0.06882-0.01562-0.21875 0.03125-0.01227 0.0038-0.02952 0.01736-0.0625 0.03125-0.01374 0.0058-0.01836-0.0055-0.03125 0-0.02701 0.0071-0.06537 0.02225-0.09375 0.03125-0.01774 0.0056-0.03745-0.0093-0.0625 0-0.17382 0.02462-0.35431 0.03824-0.625 0.09375-0.26763 0.05454-0.62386 0.10228-0.96875 0.1875-0.66977 0.16628-1.2884 0.36844-1.9375 0.59375 0.207-0.07185-0.06551-0.0035-0.25 0.0625-0.0051 0.0018 0.0049 0.02946 0 0.03125-0.06667 0.02411-0.11385 0.0133-0.15625 0.03125-0.02277 0.0096-0.03854 0.01988-0.0625 0.03125-0.01198 0.0057-0.01916 0.0073-0.0625 0.03125-0.01084 0.006-0.06238 0.03117-0.0625 0.03125-0.4213 0.15993-0.84688 0.32031-1.25 0.5-0.41998 0.18741-0.72487 0.39287-0.9375 0.5-0.20983 0.10574-0.56165 0.22912-0.9375 0.4375-0.01035 0.0057-0.02083-0.0059-0.03125 0-0.40119 0.2283-0.71937 0.47666-0.90625 0.59375-0.30268 0.1896-0.61847 0.41348-0.96875 0.65625-0.02419 0.01059-0.06975 0.01975-0.09375 0.03125-0.02625 0.01847-0.03597 0.04356-0.0625 0.0625a0.98812 0.98812 0 0 0 -0.093 0.063c-0.06911 0.04094-0.1399 0.0671-0.21875 0.125-0.43251 0.31809-0.83412 0.64646-1.25 1-0.01068 0.0091-0.11238 0.06377-0.21875 0.15625-0.44768 0.38948-0.8075 0.80674-1.1562 1.1562-0.40453 0.40544-0.84033 0.8009-1.25 1.2812-0.17553 0.20564-0.34544 0.41724-0.4375 0.53125-0.25469 0.31558-0.38359 0.58445-0.4375 0.65625-0.29367 0.39132-0.63692 0.81848-0.9375 1.2812-0.38405 0.59128-0.71034 1.1727-1.0312 1.7812-0.12953 0.24599-0.19586 0.45264-0.25 0.5625-0.20536 0.41627-0.42357 0.85834-0.625 1.3438 0.0037-0.0089-0.05339 0.05281-0.15625 0.3125-0.46797 1.1803-0.85419 2.4105-1.125 3.6875-0.0085 0.03985 0.0062 0.02851 0 0.0625 0.00074 0.0063-0.02767 0.04713-0.03125 0.0625-0.0038 0.02644-0.007 0.12795 0 0.09375-0.0068 0.03184-0.02357 0.05501-0.03125 0.09375-0.007 0.03505 0.0064 0.05954 0 0.09375-0.06396 0.33956-0.11497 0.6355-0.15625 0.90625-0.0074 0.04879-0.10496 0.36753-0.15625 0.8125-0.01345 0.11675-0.02162 0.24878-0.03125 0.34375-0.0027 0.02723 0.0021 0.04 0 0.0625-0.0023 0.02532-0.02962 0.04193-0.03125 0.0625-0.0031 0.03885-0.01217-0.04765 0 0.1875 0.000761 0.0147-0.000026 0.06227 0 0.0625-0.018 0.26689-0.05126 0.52767-0.0625 0.75-0.02 0.386-0.032 0.813-0.032 1.221 0 12.693 10.326 23.063 23 23.063 0.0454 0 0.08016 0.000436 0.125 0-0.000036 0.000105-0.06247 0.15614-0.0625 0.15625-0.000028 0.000107-0.03123 0.12489-0.03125 0.125-0.000019 0.000109 0.000011 0.15614 0 0.15625s-0.03125 0.15614-0.03125 0.15625a0.98812 0.98812 0 0 0 0 0.031v13.219 0.031c0.0003 0.02996-0.000002 0.09369 0 0.09375 0.000003 0.000075 0.03124 0.09368 0.03125 0.09375 0.000007 0.000075-0.000011 0.12493 0 0.125 0.000011 0.000074 0.03124 0.09368 0.03125 0.09375 0.000015 0.000073-0.000019 0.09368 0 0.09375 0.000019 0.000072 0.03123 0.12493 0.03125 0.125 0.000023 0.000071 0.03122 0.09368 0.03125 0.09375 0.000026 0.00007 0.06247 0.09368 0.0625 0.09375 0.00003 0.000069 0.03122 0.09368 0.03125 0.09375 0.000034 0.000067 0.06246 0.09368 0.0625 0.09375 0.000037 0.000065 0.06246 0.09369 0.0625 0.09375 0.000041 0.000063 0.06246 0.09369 0.0625 0.09375 0.000044 0.000061 0.06245 0.09369 0.0625 0.09375 0.000047 0.000058 0.06245 0.06244 0.0625 0.0625 0.00005 0.000055 0.06245 0.0937 0.0625 0.09375 0.000053 0.000053 0.09369 0.06245 0.09375 0.0625 0.000056 0.00005 0.06244 0.06245 0.0625 0.0625 0.000059 0.000047 0.09369 0.06246 0.09375 0.0625 0.000061 0.000043 0.09369 0.06246 0.09375 0.0625 0.000063 0.00004 0.09369 0.06246 0.09375 0.0625 0.000065 0.000037 0.09368 0.03122 0.09375 0.03125 0.000067 0.000033 0.09368 0.06247 0.09375 0.0625 0.000069 0.000029 0.09368 0.03122 0.09375 0.03125 0.00007 0.000026 0.09368 0.03123 0.09375 0.03125 0.000072 0.000022 0.12493 0.03123 0.125 0.03125 0.000073 0.000018 0.09368 0.03124 0.09375 0.03125 0.000074 0.000014 0.09368-0.00001 0.09375 0 0.000074 0.00001 0.12492 0.03124 0.125 0.03125 0.000075 0.000006 0.09367-0.000002 0.09375 0 0.000075 0.000002 0.09367 0.000002 0.09375 0 0.000075-0.000002 0.12492 0.000006 0.125 0 0.000075-0.000006 0.09368-0.03124 0.09375-0.03125 11.676-1.359 20.75-11.301 20.75-23.344 0-0.14693-0.02115-0.15861-0.03125-0.21875 0.000006-0.000088 0-0.12491 0-0.125-0.000239 0.000848-0.000282-0.03471 0-0.03125a0.98812 0.98812 0 0 0 0.031 -0.156v-15.032-19.031c0-9.925-8.089-18.031-18-18.031h-5.9688c-0.000026-0.000001-0.01927 0.000001-0.03125 0-0.02395-0.000001-0.0266 0-0.0625 0-0.000053-0.000002-0.0266 0-0.0625 0-0.05385-0.000001-0.09367-0.000004-0.09375 0z" transform="translate(0,-1)"/>
  <path id="path3804" style="opacity:.15;color:#000000" d="m45.906 13a0.9922 0.9922 0 0 0 -0.906 1v1.1562 3.8438 8.1562c-0.25794 0.01928-0.51534 0.02886-0.78125 0.0625-0.17629 0.02221-0.33223 0.04716-0.4375 0.0625-0.23128 0.03402-0.26694 0.053-0.125 0.03125-0.21869 0.03324-0.30073 0.06574-0.28125 0.0625-0.22608 0.03783-0.48488 0.06423-0.78125 0.125-0.2891 0.05891-0.61 0.1143-0.90625 0.1875-0.63661 0.15805-1.2484 0.34501-1.875 0.5625-0.03344 0.01161-0.12161 0.02773-0.21875 0.0625-0.11658 0.04172-0.16226 0.06471-0.15625 0.0625-0.46199 0.16952-0.92489 0.36186-1.375 0.5625-0.34995 0.15616-0.63727 0.33323-0.90625 0.46875-0.27858 0.14039-0.59634 0.26312-0.90625 0.4375-0.34793 0.19565-0.62488 0.40579-0.875 0.5625-0.34979 0.21911-0.7088 0.44397-1.0938 0.71875 0.02471-0.01761-0.09022 0.01598-0.28125 0.15625-0.41034 0.30178-0.81759 0.62772-1.2188 0.96875-0.0429 0.03643-0.10027 0.08041-0.1875 0.15625-0.40013 0.34812-0.76392 0.73188-1.125 1.0938-0.40678 0.40769-0.81297 0.81085-1.1875 1.25-0.1557 0.18242-0.30268 0.37173-0.40625 0.5-0.19489 0.24148-0.31395 0.46043-0.4375 0.625-0.29562 0.39392-0.60047 0.79609-0.875 1.2188-0.36407 0.56052-0.68936 1.1297-1 1.7188-0.09835 0.18677-0.16981 0.36851-0.25 0.53125-0.20367 0.41285-0.40651 0.83002-0.59375 1.2812-0.04865 0.11726-0.11629 0.21162-0.15625 0.3125-0.44716 1.1278-0.80298 2.3075-1.0625 3.5312-0.01471 0.06937-0.02329 0.14849-0.03125 0.1875 0.04096-0.20044 0.02223-0.17604-0.03125 0.09375-0.06832 0.34277-0.10848 0.65547-0.15625 0.96875-0.03102 0.20335-0.11817 0.45086-0.15625 0.78125-0.01086 0.09427-0.02055 0.20693-0.03125 0.3125-0.0211 0.21245-0.01684 0.23229 0 0.0625-0.03657 0.37187-0.04582 0.70138-0.0625 1.0312-0.019 0.373-0.032 0.772-0.032 1.159 0 12.158 9.8637 22.062 22 22.062 0.51585 0 1.0075-0.03231 1.4688-0.0625-0.01615 0.0011 0.12829 0.02328 0.40625 0 0.39391-0.03268 0.73975-0.10857 1.0938-0.15625 0.19275-0.02619 0.32372-0.05464 0.375-0.0625 0.12054-0.01829 0.22598-0.04201 0.34375-0.0625-0.61438 0.41315-1.2445 0.80838-1.9688 1.0312a0.9922 0.9922 0 0 0 -0.719 0.937v13.25a0.9922 0.9922 0 0 0 1.125 1c11.185-1.302 19.875-10.828 19.875-22.375 0-0.13861-0.02358-0.18708-0.03125-0.28125a0.9922 0.9922 0 0 0 0 -0.125 0.9922 0.9922 0 0 0 0.031 -0.125v-15.032-19.031c0-9.391-7.626-17.031-17-17.031h-6a0.9922 0.9922 0 0 0 -0.09375 0z" transform="translate(0,-1)"/>
  <path id="path3800" style="opacity:.3;color:#000000" d="m46 13v1.1588 3.8521 9.0509c-0.56208 0.02611-1.1066 0.05573-1.6562 0.12527-0.13463 0.01696-0.27242 0.04314-0.40625 0.06264-0.04283 0.0063-0.08225 0.02477-0.125 0.03132-0.09534 0.01449-0.18634 0.04686-0.28125 0.06264-0.25099 0.042-0.50211 0.07444-0.75 0.12527-0.28122 0.05731-0.56675 0.11946-0.84375 0.18791-0.61417 0.15248-1.221 0.32709-1.8125 0.53241-0.06249 0.02169-0.12528 0.04037-0.1875 0.06264-0.05281 0.0189-0.10363 0.04333-0.15625 0.06264-0.44229 0.1623-0.88471 0.34172-1.3125 0.5324-0.29898 0.13341-0.58361 0.29164-0.875 0.43845-0.2852 0.14372-0.56617 0.28227-0.84375 0.43845-0.2892 0.16263-0.56324 0.35666-0.84375 0.5324-0.3589 0.22481-0.71857 0.44349-1.0625 0.689-0.08043 0.05734-0.17042 0.09815-0.25 0.15659-0.3994 0.29374-0.77905 0.58756-1.1562 0.90822-0.06267 0.05322-0.12546 0.10265-0.1875 0.15659-0.37491 0.32618-0.74285 0.68183-1.0938 1.0335-0.38855 0.38942-0.76777 0.80253-1.125 1.2214-0.12476 0.14616-0.25421 0.28886-0.375 0.43845-0.15477 0.19177-0.28941 0.39779-0.4375 0.59504-0.28574 0.38075-0.55257 0.75858-0.8125 1.1588-0.34598 0.53266-0.67105 1.0953-0.96875 1.6599-0.0873 0.1658-0.16702 0.3327-0.25 0.50109-0.2003 0.40601-0.38809 0.8011-0.5625 1.2214-0.04305 0.10376-0.08357 0.20858-0.125 0.31318-0.42914 1.0824-0.78483 2.2203-1.0312 3.3823-0.01095 0.05163-0.02068 0.10482-0.03125 0.15659-0.0067 0.03279-0.02474 0.06111-0.03125 0.09395-0.062 0.31105-0.1081 0.6237-0.15625 0.93954-0.03876 0.25409-0.09538 0.49463-0.125 0.75163-0.011 0.09551-0.02153 0.18596-0.03125 0.28186-0.0021 0.02114 0.0021 0.04147 0 0.06264-0.03278 0.3333-0.04542 0.6645-0.0625 1.0022-0.019 0.358-0.032 0.732-0.032 1.095 0 11.623 9.402 21.046 21 21.046 0.47061 0 0.9432-0.03233 1.4062-0.06264 0.1254-0.0083 0.25022 0.01045 0.375 0 0.36031-0.02989 0.70754-0.07746 1.0625-0.12527 0.117-0.0159 0.22737-0.04481 0.34375-0.06264 0.34786-0.05278 0.68922-0.11825 1.0312-0.18791 0.31984-0.06559 0.65439-0.10792 0.96875-0.18791 0.0224-0.0057 0.04013-0.02557 0.0625-0.03132 0.15666-0.0404 0.31352-0.08137 0.46875-0.12527 0.28296-0.07988 0.56584-0.15911 0.84375-0.25054 0.08481-0.02791 0.16567-0.065 0.25-0.09395-1.069 1.787-2.787 3.135-4.813 3.759v13.247c10.693-1.244 19-10.34 19-21.39 0-0.17-0.027-0.332-0.031-0.501h0.03125v-15.033-19.041c0-8.856-7.163-16.035-16-16.035h-6z"/>
  <path id="path3688" style="color:#000000;fill:#fff" d="m46 12v1.1588 3.8521 9.0509c-0.56208 0.02611-1.1066 0.05573-1.6562 0.12527-0.13463 0.01696-0.27242 0.04314-0.40625 0.06264-0.04283 0.0063-0.08225 0.02477-0.125 0.03132-0.09534 0.01449-0.18634 0.04686-0.28125 0.06264-0.25099 0.042-0.50211 0.07444-0.75 0.12527-0.28122 0.05731-0.56675 0.11946-0.84375 0.18791-0.61417 0.15248-1.221 0.32709-1.8125 0.53241-0.06249 0.02169-0.12528 0.04037-0.1875 0.06264-0.05281 0.0189-0.10363 0.04333-0.15625 0.06264-0.44229 0.1623-0.88471 0.34172-1.3125 0.5324-0.29898 0.13341-0.58361 0.29164-0.875 0.43845-0.2852 0.14372-0.56617 0.28227-0.84375 0.43845-0.2892 0.16263-0.56324 0.35666-0.84375 0.5324-0.3589 0.22481-0.71857 0.44349-1.0625 0.689-0.08043 0.05734-0.17042 0.09815-0.25 0.15659-0.3994 0.29374-0.77905 0.58756-1.1562 0.90822-0.06267 0.05322-0.12546 0.10265-0.1875 0.15659-0.37491 0.32618-0.74285 0.68183-1.0938 1.0335-0.38855 0.38942-0.76777 0.80253-1.125 1.2214-0.12476 0.14616-0.25421 0.28886-0.375 0.43845-0.15477 0.19177-0.28941 0.39779-0.4375 0.59504-0.28574 0.38075-0.55257 0.75858-0.8125 1.1588-0.34598 0.53266-0.67105 1.0953-0.96875 1.6599-0.0873 0.1658-0.16702 0.3327-0.25 0.50109-0.2003 0.40601-0.38809 0.8011-0.5625 1.2214-0.04305 0.10376-0.08357 0.20858-0.125 0.31318-0.42914 1.0824-0.78483 2.2203-1.0312 3.3823-0.01095 0.05163-0.02068 0.10482-0.03125 0.15659-0.0067 0.03279-0.02474 0.06111-0.03125 0.09395-0.062 0.31105-0.1081 0.6237-0.15625 0.93954-0.03876 0.25409-0.09538 0.49463-0.125 0.75163-0.011 0.09551-0.02153 0.18596-0.03125 0.28186-0.0021 0.02114 0.0021 0.04147 0 0.06264-0.03278 0.3333-0.04542 0.6645-0.0625 1.0022-0.019 0.358-0.032 0.732-0.032 1.095 0 11.623 9.402 21.046 21 21.046 0.47061 0 0.9432-0.03233 1.4062-0.06264 0.1254-0.0083 0.25022 0.01045 0.375 0 0.36031-0.02989 0.70754-0.07746 1.0625-0.12527 0.117-0.0159 0.22737-0.04481 0.34375-0.06264 0.34786-0.05278 0.68922-0.11825 1.0312-0.18791 0.31984-0.06559 0.65439-0.10792 0.96875-0.18791 0.0224-0.0057 0.04013-0.02557 0.0625-0.03132 0.15666-0.0404 0.31352-0.08137 0.46875-0.12527 0.28296-0.07988 0.56584-0.15911 0.84375-0.25054 0.08481-0.02791 0.16567-0.065 0.25-0.09395-1.069 1.787-2.787 3.135-4.813 3.759v13.247c10.693-1.244 19-10.34 19-21.39 0-0.17-0.027-0.332-0.031-0.501h0.03125v-15.033-19.041c0-8.856-7.163-16.035-16-16.035h-6z"/>
  <path id="rect3784" style="color:#000000;fill:url(#linearGradient3798)" d="m46.875 28c-10.435 0.068-18.875 8.549-18.875 19 0 10.493 8.5066 19 19 19 3.6597 0 7.069-1.0509 9.9688-2.8438-0.24093 3.9035-2.6118 7.2142-5.9688 8.8125v9.4688c8.443-1.995 14.741-9.441 14.969-18.437h0.0312v-0.5-15.5-19h-19.125z"/>
  <g id="g3735" transform="translate(-21,-1)">
   <path id="path3684" style="color:#000000;fill:url(#radialGradient3740)" d="m69 15v0.312 13.688 9.062c-0.326-0.032-0.665-0.062-1-0.062-5.5228 0-10 4.4772-10 10s4.4772 10 10 10 10-4.4772 10-10v-19h8.9688c-0.518-7.815-7.023-14-14.969-14h-3z"/>
   <path id="path3717" style="color:#000000;fill:url(#radialGradient3742)" d="m46 44a2 2 0 1 1 -4 0 2 2 0 1 1 4 0z" transform="matrix(1.25,0,0,1.25,9.5,-10.5)"/>
   <path id="path3729" style="opacity:.1;color:#000000;fill:#fff" d="m64.626 41.5c1.5971 0.06742 2.875 1.3863 2.875 3 0 1.6569-1.3431 3-3 3-1.6137 0-2.9326-1.2779-3-2.875-0.0016 0.04196 0 0.08265 0 0.125 0 1.7949 1.4551 3.25 3.25 3.25s3.25-1.4551 3.25-3.25-1.4551-3.25-3.25-3.25c-0.04235 0-0.08304-0.0016-0.125 0z"/>
  </g>
 </g>
</svg>
