<?xml version="1.0" encoding="UTF-8" standalone="no"?>
<!-- Created with Inkscape (http://www.inkscape.org/) -->
<svg id="svg2408" xmlns:rdf="http://www.w3.org/1999/02/22-rdf-syntax-ns#" xmlns="http://www.w3.org/2000/svg" height="96" width="96" version="1.0" xmlns:cc="http://creativecommons.org/ns#" xmlns:xlink="http://www.w3.org/1999/xlink" xmlns:dc="http://purl.org/dc/elements/1.1/">
 <defs id="defs2410">
  <linearGradient id="linearGradient4631">
   <stop id="stop4633" style="stop-color:#c3b194" offset="0"/>
   <stop id="stop4635" style="stop-color:#e1c497" offset="1"/>
  </linearGradient>
  <linearGradient id="linearGradient4549">
   <stop id="stop4551" style="stop-color:#c4c4c4" offset="0"/>
   <stop id="stop4553" style="stop-color:#f1f1f1" offset="1"/>
  </linearGradient>
  <linearGradient id="linearGradient4410">
   <stop id="stop4412" style="stop-color:#fff" offset="0"/>
   <stop id="stop4416" style="stop-color:#ccc" offset=".49891"/>
   <stop id="stop4418" style="stop-color:#969696" offset=".60806"/>
   <stop id="stop4420" style="stop-color:#fff" offset="1"/>
  </linearGradient>
  <linearGradient id="linearGradient4004">
   <stop id="stop4006" style="stop-color:#fff" offset="0"/>
   <stop id="stop4016" style="stop-color:#ccc" offset=".39724"/>
   <stop id="stop4014" style="stop-color:#ccc" offset=".49891"/>
   <stop id="stop4012" style="stop-color:#777" offset=".60806"/>
   <stop id="stop4008" style="stop-color:#fff" offset="1"/>
  </linearGradient>
  <linearGradient id="linearGradient3971">
   <stop id="stop3973" style="stop-color:#4d4d4d" offset="0"/>
   <stop id="stop3975" style="stop-color:#333" offset="1"/>
  </linearGradient>
  <linearGradient id="linearGradient3809">
   <stop id="stop3811" style="stop-color:#ffbd2a" offset="0"/>
   <stop id="stop3813" style="stop-color:#ffe62a" offset="1"/>
  </linearGradient>
  <linearGradient id="ButtonShadow" y2="7.0165" gradientUnits="userSpaceOnUse" x2="45.448" gradientTransform="scale(1.0059 .99417)" y1="92.54" x1="45.448">
   <stop id="stop3750" offset="0"/>
   <stop id="stop3752" style="stop-opacity:.58824" offset="1"/>
  </linearGradient>
  <linearGradient id="linearGradient3737">
   <stop id="stop3739" style="stop-color:#fff" offset="0"/>
   <stop id="stop3741" style="stop-color:#fff;stop-opacity:0" offset="1"/>
  </linearGradient>
  <linearGradient id="linearGradient3700">
   <stop id="stop3702" style="stop-color:#548238" offset="0"/>
   <stop id="stop3704" style="stop-color:#7dc851" offset="1"/>
  </linearGradient>
  <filter id="filter3174" color-interpolation-filters="sRGB">
   <feGaussianBlur id="feGaussianBlur3176" stdDeviation="1.71"/>
  </filter>
  <linearGradient id="linearGradient3188" y2="63.893" xlink:href="#linearGradient3737" gradientUnits="userSpaceOnUse" x2="36.357" gradientTransform="translate(-100)" y1="6" x1="36.357"/>
  <filter id="filter3794" height="1.384" width="1.384" color-interpolation-filters="sRGB" y="-.192" x="-.192">
   <feGaussianBlur id="feGaussianBlur3796" stdDeviation="5.28"/>
  </filter>
  <linearGradient id="linearGradient3613" y2="138.66" xlink:href="#linearGradient3737" gradientUnits="userSpaceOnUse" x2="48" y1="20.221" x1="48"/>
  <radialGradient id="radialGradient3619" xlink:href="#linearGradient3737" gradientUnits="userSpaceOnUse" cy="90.172" cx="48" gradientTransform="matrix(1.1573 0 0 .99591 -107.55 .19713)" r="42"/>
  <clipPath id="clipPath3613">
   <rect id="rect3615" style="fill:#fff" rx="6" ry="6" height="84" width="84" y="6" x="6"/>
  </clipPath>
  <linearGradient id="linearGradient3617" y2="5.9877" gradientUnits="userSpaceOnUse" x2="48" y1="90" x1="48">
   <stop id="stop3877" style="stop-color:#3e8116" offset="0"/>
   <stop id="stop3879" style="stop-color:#66ae3b" offset="1"/>
  </linearGradient>
  <linearGradient id="linearGradient3668" y2="5.9877" xlink:href="#linearGradient3700" gradientUnits="userSpaceOnUse" x2="48" gradientTransform="translate(-88,12)" y1="90" x1="48"/>
  <linearGradient id="linearGradient3672" y2="5.9877" xlink:href="#linearGradient3700" gradientUnits="userSpaceOnUse" x2="48" gradientTransform="translate(-100)" y1="90" x1="48"/>
  <linearGradient id="linearGradient3688" y2="72" xlink:href="#linearGradient3737" gradientUnits="userSpaceOnUse" x2="40" y1="8" x1="40"/>
  <radialGradient id="radialGradient3704" xlink:href="#linearGradient3737" gradientUnits="userSpaceOnUse" cy="90" cx="48" gradientTransform="matrix(1.1429 0 0 1 -6.8571 0)" r="42"/>
  <linearGradient id="linearGradient3750" y2="4.4148" xlink:href="#ButtonShadow" gradientUnits="userSpaceOnUse" x2="37.082" y1="95.234" x1="37.082"/>
  <linearGradient id="linearGradient3752" y2="4.64" xlink:href="#ButtonShadow" gradientUnits="userSpaceOnUse" x2="41.302" y1="93.716" x1="41.302"/>
  <linearGradient id="linearGradient3754" y2="5.9105" xlink:href="#ButtonShadow" gradientUnits="userSpaceOnUse" x2="38.802" y1="93.283" x1="38.802"/>
  <linearGradient id="linearGradient3756" y2="6.6452" xlink:href="#ButtonShadow" gradientUnits="userSpaceOnUse" x2="35.561" y1="91.982" x1="35.561"/>
  <linearGradient id="linearGradient3758" y2="6.7283" xlink:href="#ButtonShadow" gradientUnits="userSpaceOnUse" x2="40" y1="90.818" x1="40"/>
  <linearGradient id="linearGradient3767" y2="5.9877" gradientUnits="userSpaceOnUse" x2="48" gradientTransform="translate(12,12)" y1="90" x1="48">
   <stop id="stop3871" style="stop-color:#958741" offset="0"/>
   <stop id="stop3873" style="stop-color:#b4ba66" offset="1"/>
  </linearGradient>
  <linearGradient id="linearGradient3815" y2="72" xlink:href="#linearGradient3809" gradientUnits="userSpaceOnUse" x2="88" gradientTransform="matrix(1 0 0 .5 -166 37)" y1="72" x1="78"/>
  <linearGradient id="linearGradient3819" y2="72" xlink:href="#linearGradient3809" gradientUnits="userSpaceOnUse" x2="88" gradientTransform="matrix(1 0 0 .5 -166 33)" y1="72" x1="78"/>
  <linearGradient id="linearGradient3823" y2="72" xlink:href="#linearGradient3809" gradientUnits="userSpaceOnUse" x2="88" gradientTransform="matrix(1 0 0 .5 -166 29)" y1="72" x1="78"/>
  <linearGradient id="linearGradient3827" y2="72" xlink:href="#linearGradient3809" gradientUnits="userSpaceOnUse" x2="88" gradientTransform="matrix(1 0 0 .5 -166 25)" y1="72" x1="78"/>
  <linearGradient id="linearGradient3831" y2="72" xlink:href="#linearGradient3809" gradientUnits="userSpaceOnUse" x2="88" gradientTransform="matrix(1 0 0 .5 -166 21)" y1="72" x1="78"/>
  <linearGradient id="linearGradient3835" y2="72" xlink:href="#linearGradient3809" gradientUnits="userSpaceOnUse" x2="88" gradientTransform="matrix(1 0 0 .5 -166 17)" y1="72" x1="78"/>
  <linearGradient id="linearGradient3839" y2="72" xlink:href="#linearGradient3809" gradientUnits="userSpaceOnUse" x2="88" gradientTransform="matrix(1 0 0 .5 -166 13)" y1="72" x1="78"/>
  <linearGradient id="linearGradient3843" y2="72" xlink:href="#linearGradient3809" gradientUnits="userSpaceOnUse" x2="88" gradientTransform="matrix(1 0 0 .5 -166 9)" y1="72" x1="78"/>
  <linearGradient id="linearGradient3851" y2="72" xlink:href="#linearGradient3809" gradientUnits="userSpaceOnUse" x2="88" gradientTransform="matrix(1 0 0 .5 -166 -1)" y1="72" x1="78"/>
  <linearGradient id="linearGradient3855" y2="72" xlink:href="#linearGradient3809" gradientUnits="userSpaceOnUse" x2="88" gradientTransform="matrix(1 0 0 .5 -166 -5)" y1="72" x1="78"/>
  <linearGradient id="linearGradient3859" y2="72" xlink:href="#linearGradient3809" gradientUnits="userSpaceOnUse" x2="88" gradientTransform="matrix(1 0 0 .5 -166 -9)" y1="72" x1="78"/>
  <linearGradient id="linearGradient3863" y2="72" xlink:href="#linearGradient3809" gradientUnits="userSpaceOnUse" x2="88" gradientTransform="matrix(1 0 0 .5 -166 -13)" y1="72" x1="78"/>
  <radialGradient id="radialGradient3977" xlink:href="#linearGradient3971" gradientUnits="userSpaceOnUse" cy="32" cx="32" gradientTransform="matrix(1.5,0,0,1.5,-16,-16)" r="16"/>
  <linearGradient id="linearGradient3998" y2="48" gradientUnits="userSpaceOnUse" x2="40" y1="24" x1="40">
   <stop id="stop3994" style="stop-color:#fff" offset="0"/>
   <stop id="stop4000" style="stop-color:#7f7f7f;stop-opacity:0" offset=".19256"/>
   <stop id="stop3996" offset="1"/>
  </linearGradient>
  <linearGradient id="linearGradient4184" y2="25" xlink:href="#linearGradient4004" gradientUnits="userSpaceOnUse" x2="16" gradientTransform="matrix(1 0 0 .5 0 42)" y1="25" x1="11"/>
  <linearGradient id="linearGradient4186" y2="25" xlink:href="#linearGradient4004" gradientUnits="userSpaceOnUse" x2="16" gradientTransform="matrix(1 0 0 .5 0 40)" y1="25" x1="11"/>
  <linearGradient id="linearGradient4188" y2="25" xlink:href="#linearGradient4004" gradientUnits="userSpaceOnUse" x2="16" gradientTransform="matrix(1 0 0 .5 0 38)" y1="25" x1="11"/>
  <linearGradient id="linearGradient4190" y2="25" xlink:href="#linearGradient4004" gradientUnits="userSpaceOnUse" x2="16" gradientTransform="matrix(1 0 0 .5 0 36)" y1="25" x1="11"/>
  <linearGradient id="linearGradient4192" y2="25" xlink:href="#linearGradient4004" gradientUnits="userSpaceOnUse" x2="16" gradientTransform="matrix(1 0 0 .5 0 34)" y1="25" x1="11"/>
  <linearGradient id="linearGradient4194" y2="25" xlink:href="#linearGradient4004" gradientUnits="userSpaceOnUse" x2="16" gradientTransform="matrix(1 0 0 .5 0 32)" y1="25" x1="11"/>
  <linearGradient id="linearGradient4196" y2="25" xlink:href="#linearGradient4004" gradientUnits="userSpaceOnUse" x2="16" gradientTransform="matrix(1 0 0 .5 0 30)" y1="25" x1="11"/>
  <linearGradient id="linearGradient4198" y2="25" xlink:href="#linearGradient4004" gradientUnits="userSpaceOnUse" x2="16" gradientTransform="matrix(1 0 0 .5 0 28)" y1="25" x1="11"/>
  <linearGradient id="linearGradient4200" y2="25" xlink:href="#linearGradient4004" gradientUnits="userSpaceOnUse" x2="16" gradientTransform="matrix(1 0 0 .5 0 26)" y1="25" x1="11"/>
  <linearGradient id="linearGradient4202" y2="25" xlink:href="#linearGradient4004" gradientUnits="userSpaceOnUse" x2="16" gradientTransform="matrix(1 0 0 .5 0 24)" y1="25" x1="11"/>
  <linearGradient id="linearGradient4204" y2="25" xlink:href="#linearGradient4004" gradientUnits="userSpaceOnUse" x2="16" gradientTransform="matrix(1 0 0 .5 0 22)" y1="25" x1="11"/>
  <linearGradient id="linearGradient4206" y2="25" xlink:href="#linearGradient4004" gradientUnits="userSpaceOnUse" x2="16" gradientTransform="matrix(1 0 0 .5 0 20)" y1="25" x1="11"/>
  <linearGradient id="linearGradient4208" y2="25" xlink:href="#linearGradient4004" gradientUnits="userSpaceOnUse" x2="16" gradientTransform="matrix(1 0 0 .5 0 18)" y1="25" x1="11"/>
  <linearGradient id="linearGradient4210" y2="25" xlink:href="#linearGradient4004" gradientUnits="userSpaceOnUse" x2="16" gradientTransform="matrix(1 0 0 .5 0 16)" y1="25" x1="11"/>
  <linearGradient id="linearGradient4212" y2="25" xlink:href="#linearGradient4004" gradientUnits="userSpaceOnUse" x2="16" gradientTransform="matrix(1 0 0 .5 0 14)" y1="25" x1="11"/>
  <linearGradient id="linearGradient4214" y2="25" xlink:href="#linearGradient4004" gradientUnits="userSpaceOnUse" x2="16" gradientTransform="matrix(1 0 0 .5 0 12)" y1="25" x1="11"/>
  <linearGradient id="linearGradient4350" y2="25" xlink:href="#linearGradient4410" gradientUnits="userSpaceOnUse" x2="16" gradientTransform="matrix(.8 0 0 1 11.2 -82)" y1="25" x1="11"/>
  <linearGradient id="linearGradient4404" y2="25" xlink:href="#linearGradient4410" gradientUnits="userSpaceOnUse" x2="16" gradientTransform="matrix(.8 0 0 1 11.2 -86)" y1="25" x1="11"/>
  <linearGradient id="linearGradient4408" y2="25" xlink:href="#linearGradient4410" gradientUnits="userSpaceOnUse" x2="16" gradientTransform="matrix(.8 0 0 1 11.2 -90)" y1="25" x1="11"/>
  <linearGradient id="linearGradient4425" y2="25" xlink:href="#linearGradient4410" gradientUnits="userSpaceOnUse" x2="16" gradientTransform="matrix(.8 0 0 1 11.2 -94)" y1="25" x1="11"/>
  <linearGradient id="linearGradient4435" y2="25" xlink:href="#linearGradient4410" gradientUnits="userSpaceOnUse" x2="16" gradientTransform="matrix(.8 0 0 1 -44.8 -82)" y1="25" x1="11"/>
  <linearGradient id="linearGradient4437" y2="25" xlink:href="#linearGradient4410" gradientUnits="userSpaceOnUse" x2="16" gradientTransform="matrix(.8 0 0 1 -44.8 -86)" y1="25" x1="11"/>
  <linearGradient id="linearGradient4439" y2="25" xlink:href="#linearGradient4410" gradientUnits="userSpaceOnUse" x2="16" gradientTransform="matrix(.8 0 0 1 -44.8 -90)" y1="25" x1="11"/>
  <linearGradient id="linearGradient4441" y2="25" xlink:href="#linearGradient4410" gradientUnits="userSpaceOnUse" x2="16" gradientTransform="matrix(.8 0 0 1 -44.8 -94)" y1="25" x1="11"/>
  <linearGradient id="linearGradient4449" y2="32" xlink:href="#linearGradient3971" gradientUnits="userSpaceOnUse" x2="62" y1="25" x1="62"/>
  <linearGradient id="linearGradient4547" y2="73.812" gradientUnits="userSpaceOnUse" x2="52.765" y1="81.843" x1="52.765">
   <stop id="stop4543" style="stop-color:#dc6819" offset="0"/>
   <stop id="stop4545" style="stop-color:#efa471" offset="1"/>
  </linearGradient>
  <linearGradient id="linearGradient4555" y2="80.929" xlink:href="#linearGradient4549" gradientUnits="userSpaceOnUse" x2="53.612" y1="75.079" x1="53.612"/>
  <linearGradient id="linearGradient4617" y2="64" xlink:href="#linearGradient4549" gradientUnits="userSpaceOnUse" x2="46" y1="70" x1="46"/>
  <linearGradient id="linearGradient4621" y2="64" xlink:href="#linearGradient4549" gradientUnits="userSpaceOnUse" x2="46" gradientTransform="translate(6)" y1="70" x1="46"/>
  <linearGradient id="linearGradient4637" y2="74" xlink:href="#linearGradient4631" gradientUnits="userSpaceOnUse" x2="40" y1="80" x1="40"/>
  <linearGradient id="linearGradient4639" y2="74" xlink:href="#linearGradient4631" gradientUnits="userSpaceOnUse" x2="34" y1="80" x1="34"/>
  <linearGradient id="linearGradient3857-6" y2="84.89" gradientUnits="userSpaceOnUse" x2="64.321" gradientTransform="translate(-2)" y1="55.31" x1="64.321">
   <stop id="stop3739-5" style="stop-color:#fff" offset="0"/>
   <stop id="stop3741-9" style="stop-color:#fff;stop-opacity:0" offset="1"/>
  </linearGradient>
  <linearGradient id="linearGradient3844" y2="72.786" gradientUnits="userSpaceOnUse" x2="90.714" y1="72.786" x1="51.429">
   <stop id="stop3159" style="stop-color:#1066de" offset="0"/>
   <stop id="stop3161" style="stop-color:#67a3f5" offset="1"/>
  </linearGradient>
  <clipPath id="clipPath3871">
   <path id="path3873" style="fill:#fff" d="m0 96v60h96v-60h-96zm68 20c9.9411 0 18 8.0589 18 18s-8.0589 18-18 18-18-8.0589-18-18 8.0589-18 18-18z"/>
  </clipPath>
 </defs>
 <metadata id="metadata2413">
  <rdf:RDF>
   <cc:Work rdf:about="">
    <dc:format>image/svg+xml</dc:format>
    <dc:type rdf:resource="http://purl.org/dc/dcmitype/StillImage"/>
    <dc:title/>
   </cc:Work>
  </rdf:RDF>
 </metadata>
 <g id="layer2" style="display:none">
  <rect id="rect3745" style="opacity:.9;filter:url(#filter3174);fill:url(#ButtonShadow)" rx="6" ry="6" height="85" width="86" y="7" x="5"/>
 </g>
 <g id="layer3">
  <path id="path3741" style="opacity:0.08;fill:url(#linearGradient3750)" d="m12 3.9688c-5.5295 0-10.031 4.5017-10.031 10.031v71c0 5.5295 4.5018 10.031 10.031 10.031h60c5.5295 0 10.031-4.5018 10.031-10.031v-1.9688h6.4688c3.0451 0 5.5312-2.4862 5.5312-5.5312v-56c0-3.0451-2.4862-5.5312-5.5312-5.5312h-6.4688v-1.9688c0-5.5295-4.502-10.031-10.031-10.031h-60z"/>
  <path id="path3737" style="opacity:.1;fill:url(#linearGradient3752)" d="m12 4.9375c-4.9974 0-9.0625 4.0651-9.0625 9.0625v71c0 4.9974 4.0651 9.0625 9.0625 9.0625h60c4.9974 0 9.0625-4.0651 9.0625-9.0625v-2.9375h7.4375c2.5104 0 4.5625-2.0521 4.5625-4.5625v-56c0-2.5104-2.0521-4.5625-4.5625-4.5625h-7.4375v-2.9375c0-4.9974-4.065-9.0625-9.062-9.0625h-60z"/>
  <path id="path3733" style="opacity:.2;fill:url(#linearGradient3754)" d="m12 5.9062c-4.466 0-8.0938 3.6278-8.0938 8.0938v71c0 4.466 3.6277 8.0938 8.0938 8.0938h60c4.466 0 8.0938-3.6277 8.0938-8.0938v-3.9062h8.4062c1.973 0 3.5938-1.6207 3.5938-3.5938v-56c0-1.973-1.6207-3.5938-3.5938-3.5938h-8.4062v-3.9062c0-4.466-3.628-8.0938-8.094-8.0938h-60z"/>
  <path id="rect3721" style="opacity:.3;fill:url(#linearGradient3756)" d="m12 7c-3.878 0-7 3.122-7 7v71c0 3.878 3.122 7 7 7h60c3.878 0 7-3.122 7-7v-5h9.5c1.385 0 2.5-1.115 2.5-2.5v-56c0-1.385-1.115-2.5-2.5-2.5h-9.5v-5c0-3.878-3.122-7-7-7h-60z"/>
  <path id="rect3712" style="opacity:.45;fill:url(#linearGradient3758)" d="m12 7c-3.324 0-6 2.676-6 6v72c0 3.324 2.676 6 6 6h60c3.324 0 6-2.676 6-6v-6h10c1.108 0 2-0.892 2-2v-56c0-1.108-0.892-2-2-2h-10v-6c0-3.324-2.676-6-6-6h-60z"/>
 </g>
 <g id="layer1">
  <path id="rect2419" style="fill:url(#linearGradient3617)" d="m12 6c-3.324 0-6 2.676-6 6v72c0 3.324 2.676 6 6 6h60c3.324 0 6-2.676 6-6v-6h10c1.108 0 2-0.892 2-2v-56c0-1.108-0.892-2-2-2h-10v-6c0-3.324-2.676-6-6-6h-60z"/>
  <path id="rect3760" style="fill:url(#linearGradient3767)" d="m78 18v60h10c1.108 0 2-0.892 2-2v-56c0-1.108-0.892-2-2-2h-10z"/>
  <path id="path3615" style="opacity:.2;fill:url(#radialGradient3619)" d="m-88 90c-3.324 0-6-2.676-6-6v-2-68-2c0-0.33472 0.04135-0.6507 0.09375-0.96875 0.0487-0.2956 0.09704-0.59692 0.1875-0.875 0.0099-0.03038 0.02089-0.0636 0.03125-0.09375 0.09886-0.28777 0.23488-0.54745 0.375-0.8125 0.14459-0.27351 0.31562-0.53562 0.5-0.78125 0.18438-0.24564 0.37378-0.47347 0.59375-0.6875 0.43995-0.42806 0.94291-0.81453 1.5-1.0938 0.27854-0.13961 0.57347-0.24695 0.875-0.34375-0.2562 0.10022-0.48671 0.23627-0.71875 0.375-0.0074 0.0044-0.02387-0.0045-0.03125 0-0.03193 0.0193-0.06229 0.04251-0.09375 0.0625-0.1204 0.0767-0.23102 0.16351-0.34375 0.25-0.10617 0.0808-0.21328 0.16111-0.3125 0.25-0.17793 0.16143-0.34746 0.34539-0.5 0.53125-0.10758 0.13026-0.21839 0.26528-0.3125 0.40625-0.02509 0.03838-0.03845 0.08587-0.0625 0.125-0.06476 0.10303-0.13023 0.20452-0.1875 0.3125-0.10101 0.19471-0.20568 0.4157-0.28125 0.625-0.008 0.02181-0.02359 0.04055-0.03125 0.0625-0.03182 0.09195-0.0358 0.18683-0.0625 0.28125-0.03033 0.10662-0.07039 0.20303-0.09375 0.3125-0.073 0.3417-0.125 0.6987-0.125 1.0627v2 68 2c0 2.7818 2.2182 5 5 5h2 68 2c2.7818 0 5-2.2182 5-5v-2-68-2c0-0.3643-0.05212-0.72099-0.125-1.0625-0.04415-0.20689-0.08838-0.39766-0.15625-0.59375-0.0077-0.02195-0.0233-0.04069-0.03125-0.0625-0.06274-0.17374-0.13838-0.36745-0.21875-0.53125-0.04158-0.0828-0.07904-0.16995-0.125-0.25-0.0546-0.09721-0.12677-0.18835-0.1875-0.28125-0.09411-0.14096-0.20492-0.276-0.3125-0.40625-0.14317-0.17445-0.30314-0.347-0.46875-0.5-0.01117-0.0102-0.01998-0.02115-0.03125-0.03125-0.13839-0.12556-0.28509-0.23444-0.4375-0.34375-0.10257-0.07315-0.20432-0.15336-0.3125-0.21875-0.0074-0.0045-0.02384 0.0044-0.03125 0-0.23204-0.13873-0.46255-0.27478-0.71875-0.375 0.30153 0.0968 0.59646 0.20414 0.875 0.34375 0.55709 0.27922 1.0601 0.66569 1.5 1.0938 0.21997 0.21403 0.40937 0.44186 0.59375 0.6875s0.35541 0.50774 0.5 0.78125c0.14012 0.26505 0.27614 0.52473 0.375 0.8125 0.01041 0.03078 0.02133 0.06274 0.03125 0.09375 0.09046 0.27808 0.1388 0.5794 0.1875 0.875 0.053 0.318 0.094 0.634 0.094 0.969v2 68 2c0 3.324-2.676 6-6 6h-72z"/>
  <rect id="rect3666" style="fill:url(#linearGradient3668)" rx="2" ry="2" height="60" width="72" y="18" x="-82"/>
  <rect id="rect3670" style="fill:url(#linearGradient3672)" rx="6" ry="6" height="84" width="72" y="6" x="-94"/>
  <path id="rect3728" style="opacity:.35;fill:url(#linearGradient3188)" d="m-88 6c-3.324 0-6 2.676-6 6v2 68 2c0 0.33472 0.0413 0.6507 0.0937 0.96875 0.0487 0.2956 0.097 0.59692 0.1875 0.875 0.01 0.03038 0.0209 0.0636 0.0312 0.09375 0.0989 0.28777 0.23488 0.54745 0.375 0.8125 0.14459 0.27351 0.31562 0.53562 0.5 0.78125 0.18438 0.24564 0.37378 0.47347 0.59375 0.6875 0.43995 0.42806 0.94291 0.81453 1.5 1.0938 0.27854 0.13961 0.57347 0.24695 0.875 0.34375-0.2562-0.10022-0.48671-0.23627-0.71875-0.375-0.007-0.0044-0.0239 0.0045-0.0312 0-0.0319-0.0193-0.0623-0.04251-0.0937-0.0625-0.1204-0.0767-0.23102-0.16351-0.34375-0.25-0.10617-0.0808-0.21328-0.16111-0.3125-0.25-0.17793-0.16143-0.34746-0.34539-0.5-0.53125-0.10758-0.13026-0.21839-0.26528-0.3125-0.40625-0.0251-0.03838-0.0384-0.08587-0.0625-0.125-0.0648-0.10303-0.13023-0.20452-0.1875-0.3125-0.10101-0.19471-0.20568-0.4157-0.28125-0.625-0.008-0.02181-0.0236-0.04055-0.0312-0.0625-0.0318-0.09195-0.0358-0.18683-0.0625-0.28125-0.0303-0.10662-0.0704-0.20303-0.0937-0.3125-0.073-0.342-0.125-0.699-0.125-1.063v-2-68-2c0-2.7818 2.2182-5 5-5h2 68 2c2.7818 0 5 2.2182 5 5v2 68 2c0 0.3643-0.05212 0.72099-0.125 1.0625-0.04415 0.20689-0.08838 0.39766-0.15625 0.59375-0.0077 0.02195-0.0233 0.04069-0.03125 0.0625-0.06274 0.17374-0.13838 0.36745-0.21875 0.53125-0.04158 0.0828-0.07904 0.16995-0.125 0.25-0.0546 0.09721-0.12677 0.18835-0.1875 0.28125-0.09411 0.14096-0.20492 0.276-0.3125 0.40625-0.14317 0.17445-0.30314 0.347-0.46875 0.5-0.01117 0.0102-0.01998 0.02115-0.03125 0.03125-0.13839 0.12556-0.28509 0.23444-0.4375 0.34375-0.10257 0.07315-0.20432 0.15336-0.3125 0.21875-0.0074 0.0045-0.02384-0.0044-0.03125 0-0.23204 0.13873-0.46255 0.27478-0.71875 0.375 0.30153-0.0968 0.59646-0.20414 0.875-0.34375 0.55709-0.27922 1.0601-0.66569 1.5-1.0938 0.21997-0.21403 0.40937-0.44186 0.59375-0.6875s0.35541-0.50774 0.5-0.78125c0.14012-0.26505 0.27614-0.52473 0.375-0.8125 0.01041-0.03078 0.02133-0.06274 0.03125-0.09375 0.09046-0.27808 0.1388-0.5794 0.1875-0.875 0.053-0.318 0.094-0.634 0.094-0.969v-2-68-2c0-3.324-2.676-6-6-6h-72z"/>
  <path id="path3675" style="opacity:.35;fill:url(#linearGradient3688)" d="m12 6c-3.324 0-6 2.676-6 6v72c0 2.9849 2.1528 5.4349 5 5.9062-2.2895-0.462-4-2.47-4-4.906v-72c0-2.785 2.2155-5 5-5h60c2.7845 0 5 2.2155 5 5v6a1.0053 1.0053 0 0 0 1 1h10c0.56852 0 1 0.43148 1 1v56c0 0.56852-0.43148 1-1 1 1.108 0 2-0.892 2-2v-56c0-1.108-0.892-2-2-2h-10v-6c0-3.324-2.676-6-6-6h-60zm65.844 72a1.0053 1.0053 0 0 0 -0.844 1v6c0 2.4365-1.7105 4.4441-4 4.9062 2.847-0.471 5-2.921 5-5.906v-6a1.0053 1.0053 0 0 0 -0.15625 0z"/>
  <path id="path3690" style="opacity:.2;fill:url(#radialGradient3704)" d="m12 6c-3.324 0-6 2.676-6 6v72c0 3.324 2.676 6 6 6h60c3.324 0 6-2.676 6-6v-6h10c1.108 0 2-0.892 2-2v-56c0-1.108-0.892-2-2-2h-10v-6c0-3.324-2.676-6-6-6h-60zm0 1.9688h60c2.2708 0 4.0312 1.7605 4.0312 4.0312v6c-0.0032 1.0317 0.93703 1.972 1.9688 1.9688h10c0.05478 0 0.03125-0.02353 0.03125 0.03125v56c0 0.05478 0.02353 0.03125-0.03125 0.03125h-10c-1.032-0.003-1.972 0.937-1.969 1.969v6c0 2.2708-1.7605 4.0312-4.0312 4.0312h-60c-2.2708 0-4.0312-1.76-4.0312-4.031v-72c0-2.2708 1.7604-4.0312 4.0312-4.0312z"/>
  <rect id="rect3777" style="color:#000000;fill:url(#linearGradient3815)" transform="scale(-1,1)" height="2" width="10" y="72" x="-88"/>
  <rect id="rect3817" style="color:#000000;fill:url(#linearGradient3819)" transform="scale(-1,1)" height="2" width="10" y="68" x="-88"/>
  <rect id="rect3821" style="color:#000000;fill:url(#linearGradient3823)" transform="scale(-1,1)" height="2" width="10" y="64" x="-88"/>
  <rect id="rect3825" style="color:#000000;fill:url(#linearGradient3827)" transform="scale(-1,1)" height="2" width="10" y="60" x="-88"/>
  <rect id="rect3829" style="color:#000000;fill:url(#linearGradient3831)" transform="scale(-1,1)" height="2" width="10" y="56" x="-88"/>
  <rect id="rect3833" style="color:#000000;fill:url(#linearGradient3835)" transform="scale(-1,1)" height="2" width="10" y="52" x="-88"/>
  <rect id="rect3837" style="color:#000000;fill:url(#linearGradient3839)" transform="scale(-1,1)" height="2" width="10" y="48" x="-88"/>
  <rect id="rect3841" style="color:#000000;fill:url(#linearGradient3843)" transform="scale(-1,1)" height="2" width="10" y="44" x="-88"/>
  <rect id="rect3849" style="color:#000000;fill:url(#linearGradient3851)" transform="scale(-1,1)" height="2" width="10" y="34" x="-88"/>
  <rect id="rect3853" style="color:#000000;fill:url(#linearGradient3855)" transform="scale(-1,1)" height="2" width="10" y="30" x="-88"/>
  <rect id="rect3857" style="color:#000000;fill:url(#linearGradient3859)" transform="scale(-1,1)" height="2" width="10" y="26" x="-88"/>
  <rect id="rect3861" style="color:#000000;fill:url(#linearGradient3863)" transform="scale(-1,1)" height="2" width="10" y="22" x="-88"/>
 </g>
 <g id="layer6">
  <path id="path4660" style="opacity:.15" d="m10 56 6 6h32l6-6v-16l2-2h22v-18h-26l-4-4h-16l-2 2h-14l-6 6v32zm18.019 23.974 0.109-5.996 2.071-1.854 37.049 0.109 2.558-2.058 0.117-24.117 4.077-4.058h4v32h-4l-2 2h-6l-2 2v4l-4 4h-26l-5.9814-6.0262z"/>
  <path id="path4662" style="opacity:.4;stroke:#fc0;stroke-width:.5;fill:none" d="m18 64 3-3h53l4-4"/>
  <path id="path4664" style="opacity:.5;stroke:#fc0;stroke-width:.5;fill:none" d="m78 61-5 5h-35"/>
  <path id="path4666" style="opacity:.5;stroke:#fc0;stroke-width:.5;fill:none" d="m38 68h35l3-3h2"/>
  <path id="path4668" style="opacity:.5;stroke:#fc0;stroke-width:.5;fill:none" d="m24 70 2 2h26l2 2"/>
  <path id="path4676" style="opacity:.5;stroke:#fc0;stroke-width:.5;fill:none" d="m66 70h7l3 3h2"/>
  <path id="path4680" style="opacity:.5;stroke:#fc0;stroke-width:.5;fill:none" d="m33.866 79.995 2.134 2.005h4l4 4h5l4-4"/>
  <path id="path4682" style="opacity:.5;stroke:#fc0;stroke-width:.5;fill:none" d="m40 80 4 4h5l2-2"/>
  <path id="path4690" style="opacity:.5;stroke:#fc0;stroke-width:.5;fill:none" d="m24 64 1-1h46"/>
  <path id="path4692" style="opacity:.5;color:#000000;fill:#fc0" d="m71.806 63.061a0.90294 0.90294 0 1 1 -1.8059 0 0.90294 0.90294 0 1 1 1.8059 0z" transform="matrix(1.1075 0 0 1.1075 -6.5247 -6.8403)"/>
  <path id="path4694" style="opacity:.5;stroke:#fc0;stroke-width:.5;fill:none" d="m78 23h-2l-5-5h-17l-6 6"/>
  <path id="path4696" style="opacity:.5;stroke:#fc0;stroke-width:.5;fill:none" d="m39 18h11l3-3h16"/>
  <path id="path4700" style="opacity:.5;stroke:#fc0;stroke-width:.5;fill:none" d="m50 26 4-4h17l5 5h2"/>
  <path id="path4702" style="opacity:.5;stroke:#fc0;stroke-width:.5;fill:none" d="m52 39h16l6 6h4"/>
  <path id="path4708" style="opacity:.5;stroke:#fc0;stroke-width:.5;fill:none" d="m78 49h-4l-6-6h-6"/>
  <path id="path4710" style="opacity:.5;stroke:#fc0;stroke-width:.5;fill:none" d="m62 47h6l6 6h4"/>
  <path id="path4712" style="opacity:.5;stroke:#fc0;stroke-width:.5;fill:none" d="m78 31h-2l-6-6"/>
  <path id="path4716" style="opacity:.5;stroke:#fc0;stroke-width:.5;fill:none" d="m78 35h-2l-6-6"/>
  <path id="path4718" style="opacity:.5;stroke:#fc0;stroke-width:.5;fill:none" d="m51 59h10l6-6"/>
  <path id="path4720" style="opacity:.5;color:#000000;fill:#fc0" d="m71.806 63.061a0.90294 0.90294 0 1 1 -1.8059 0 0.90294 0.90294 0 1 1 1.8059 0z" transform="matrix(1.1075 0 0 1.1075 -11.525 -16.84)"/>
  <path id="path4722" style="opacity:.5;color:#000000;fill:#fc0" d="m71.806 63.061a0.90294 0.90294 0 1 1 -1.8059 0 0.90294 0.90294 0 1 1 1.8059 0z" transform="matrix(1.1075 0 0 1.1075 -28.525 -10.84)"/>
  <path id="path4724" style="opacity:.5;color:#000000;fill:#fc0" d="m71.806 63.061a0.90294 0.90294 0 1 1 -1.8059 0 0.90294 0.90294 0 1 1 1.8059 0z" transform="matrix(1.1075 0 0 1.1075 -8.5247 -54.84)"/>
  <path id="path4726" style="opacity:.5;color:#000000;fill:#fc0" d="m71.806 63.061a0.90294 0.90294 0 1 1 -1.8059 0 0.90294 0.90294 0 1 1 1.8059 0z" transform="matrix(1.1075 0 0 1.1075 -40.525 -51.84)"/>
  <path id="path4728" style="opacity:.5;color:#000000;fill:#fc0" d="m71.806 63.061a0.90294 0.90294 0 1 1 -1.8059 0 0.90294 0.90294 0 1 1 1.8059 0z" transform="matrix(1.1075 0 0 1.1075 -8.5247 4.1597)"/>
  <path id="path4730" style="opacity:.5;stroke:#fc0;stroke-width:.5;fill:none" d="m69 74h-3l-4 4h-2"/>
  <path id="path4732" style="opacity:.5;stroke:#fc0;stroke-width:.5;fill:none" d="m32 79h-8l-3 3"/>
  <path id="path4736" style="opacity:.5;stroke:#fc0;stroke-width:.5;fill:none" d="m32 77h-8l-6-6v-1"/>
  <path id="path4738" style="opacity:.5;stroke:#fc0;stroke-width:.5;fill:none" d="m13 55v16l4 4"/>
  <path id="path4744" style="opacity:.5;color:#000000;fill:#fc0" d="m71.806 63.061a0.90294 0.90294 0 1 1 -1.8059 0 0.90294 0.90294 0 1 1 1.8059 0z" transform="matrix(1.1075 0 0 1.1075 -61.525 5.1597)"/>
  <path id="path4746" style="opacity:.5;color:#000000;fill:#fc0" d="m71.806 63.061a0.90294 0.90294 0 1 1 -1.8059 0 0.90294 0.90294 0 1 1 1.8059 0z" transform="matrix(1.1075 0 0 1.1075 -57.525 12.16)"/>
  <path id="path4748" style="opacity:.5;stroke:#fc0;stroke-width:.5;fill:none" d="m11 62v10l6 6"/>
  <path id="path4750" style="opacity:.5;color:#000000;fill:#fc0" d="m71.806 63.061a0.90294 0.90294 0 1 1 -1.8059 0 0.90294 0.90294 0 1 1 1.8059 0z" transform="matrix(1.1075 0 0 1.1075 -61.525 8.1597)"/>
  <path id="path4752" style="opacity:.5;color:#000000;fill:#fc0" d="m71.806 63.061a0.90294 0.90294 0 1 1 -1.8059 0 0.90294 0.90294 0 1 1 1.8059 0z" transform="matrix(1.1075 0 0 1.1075 -67.525 -8.8403)"/>
  <path id="path4754" style="opacity:.5;stroke:#fc0;stroke-width:.5;fill:none" d="m50 14 2-2h12"/>
  <path id="path4756" style="opacity:.5;color:#000000;fill:#fc0" d="m71.806 63.061a0.90294 0.90294 0 1 1 -1.8059 0 0.90294 0.90294 0 1 1 1.8059 0z" transform="matrix(1.1075 0 0 1.1075 -13.525 -57.84)"/>
  <path id="path4758" style="opacity:.5;color:#000000;fill:#fc0" d="m71.806 63.061a0.90294 0.90294 0 1 1 -1.8059 0 0.90294 0.90294 0 1 1 1.8059 0z" transform="matrix(1.1075 0 0 1.1075 -28.525 -55.84)"/>
 </g>
 <g id="layer5">
  <rect id="rect3171" style="opacity:.1;filter:url(#filter3794);stroke:#fff;stroke-linecap:round;stroke-width:.5;fill:url(#linearGradient3613)" clip-path="url(#clipPath3613)" rx="12" ry="12" height="66" width="66" y="15" x="15"/>
 </g>
 <g id="layer4">
  <path id="path3967" style="opacity:.1;color:#000000;fill:#333" d="m15.75 22.938c-1.6971 0.16914-1.9852 2.0571-1.8125 3.4333 0.02083 10.271-0.04166 20.55 0.03125 30.817 0.08169 1.7151 1.9956 2.0546 3.3708 1.875 10.282-0.02088 20.57 0.04173 30.848-0.03125 1.7151-0.08169 2.0546-1.9956 1.875-3.3708-0.02088-10.282 0.04173-20.57-0.03125-30.848-0.08169-1.7151-1.9956-2.0546-3.3708-1.875h-30.91zm40 0c-1.6971 0.16914-1.9852 2.0571-1.8125 3.4333 0.09266 2.4653-0.1926 4.974 0.15625 7.4104 0.83275 1.8698 3.1429 1.1345 4.7528 1.2812 3.2468-0.05984 8.5126 0.12142 11.747-0.09375 1.9536-0.60638 1.3939-2.9219 1.4688-4.4804-0.0872-2.0855 0.18484-4.2127-0.15625-6.2696-0.83275-1.8698-5.1429-1.1345-6.7528-1.2812h-9.4034zm0 18c-1.6971 0.16914-1.9852 2.0571-1.8125 3.4333 0.1007 1.0635 0.22506 1.9488 0 2.9953-0.212 1.066 0.351 2.162 0.062 3.133-0.08823 2.3513-0.13932 4.7452 0.03125 7.0938 0.58134 1.8775 2.8546 1.4901 4.375 1.4062 1.8363-0.30517 1.722-2.416 1.6562-3.8419v-4.0956c1.4058 0.01885 3.417 0.26536 3.9062-1.4688 0.12552-1.1844 0.23368-2.5326-0.15625-3.625 0.38252-1.2363 0.38327-2.7012 0-3.9375-0.99448-1.6999-3.2147-0.913-4.8265-1.0938h-3.236zm-40 22c-1.6971 0.16914-1.9852 2.0571-1.8125 3.4333 0.12517 1.8572-0.27489 3.8051 0.25 5.5979 0.99448 1.6999 3.2147 0.913 4.8265 1.0938 1.1429 0.09811 2.0719-0.43069 3.1534 0 1.6077-0.09977 3.3618 0.23719 4.8638-0.25 1.3367 0.48875 2.8189 0.14852 4.2188 0.25-1.873 0.77762-1.186 3.0682-1.3125 4.6479 0.19383 1.6153-0.53838 3.6098 0.75 4.8834 1.4888 0.88559 3.3443 0.2982 4.9963 0.46875 1.1072-0.3551 2.0061 0.0042 3.1534 0 1.6182-0.19721 3.7542 0.59506 4.8815-0.9375 0.68476-1.5979 0.19591-3.4408 0.34375-5.1437 0.01105-1.4179 0.2834-3.4524-1.4688-3.95-1.2892-0.19435-2.6053-0.04863-3.9062-0.09375 1.9704-0.75516 1.2363-3.1556 1.375-4.7841-0.1963-1.6154 0.59345-3.7474-0.9375-4.8722-1.6436-0.68756-3.5324-0.19516-5.2812-0.34375-0.93318 0.44067-1.8385-0.15522-2.8484 0-1.3328 0.12027-2.7704-0.26917-4.0266 0.25-1.7038-0.49609-3.563-0.16605-5.3282-0.23058-0.93298 0.43484-1.9481-0.24954-2.9801-0.01942h-2.9104zm28 0c-1.6971 0.16914-1.9852 2.0571-1.8125 3.4333 0.12517 1.8572-0.27489 3.8051 0.25 5.5979 0.99448 1.6999 3.2147 0.913 4.8265 1.0938 1.1798 0.06202 3.4761-0.53092 1.028 0.22048-2.3282 0.9173-2.1595 3.5216-2.1046 5.5613-0.0043 2.053-0.34663 4.6888 1.8734 5.7842 2.0087 0.80735 4.2567 0.28444 6.3776 0.43408 2.0943-0.17446 4.3877 0.46737 6.2944-0.61379 2.2488-1.4879 1.4226-4.3736 1.5796-6.6325 0.84468-2.1909-2.216-4.8575-2.4352-4.7537 1.0837-0.27656 1.9346-0.08788 3.0424 0 1.6279-0.19675 3.6386 0.54324 4.924-0.75 0.88559-1.4888 0.2982-3.3443 0.46875-4.9963-0.042-1.506 0.415-3.72-1.468-4.285-1.703-0.15-3.453-0.142-5.156-0.031-0.9436 0.28686-2.0579-0.27568-3.112-0.0625-1.1133 0.09732-2.318-0.23348-3.3568 0.25-1.7038-0.49609-3.563-0.16605-5.3282-0.23058-0.93298 0.43484-1.9481-0.24954-2.9801-0.01942h-2.9104zm-10.75 9.843c0.92443 0.23404-0.93784 0.25473 0 0zm22 0c0.92443 0.23404-0.93784 0.25473 0 0zm-18.312 0.281c0.91036-0.17061 0.45413 0.31064 0 0z"/>
  <path id="path3963" style="opacity:.15;color:#000000;fill:#333" d="m15.906 24.062c-0.46 0.042-0.85 0.476-0.844 0.938v32c-0.0051 0.49225 0.44525 0.9426 0.9375 0.9375h32c0.492 0.005 0.943-0.446 0.938-0.938v-32c0.005-0.492-0.446-0.943-0.938-0.938h-32c-0.03122-0.0016-0.06253-0.0016-0.09375 0zm40 0c-0.46 0.042-0.85 0.476-0.844 0.938v8c-0.0051 0.49225 0.44525 0.9426 0.9375 0.9375h14c0.492 0.005 0.943-0.446 0.938-0.938v-8c0.005-0.492-0.446-0.943-0.938-0.938h-14c-0.03122-0.0016-0.06253-0.0016-0.09375 0zm0 18c-0.46 0.042-0.85 0.476-0.844 0.938v2c-0.0051 0.49225 0.44525 0.9426 0.9375 0.9375h6c0.492 0.005 0.943-0.446 0.938-0.938v-2c0.005-0.492-0.446-0.943-0.938-0.938h-6c-0.03122-0.0016-0.06253-0.0016-0.09375 0zm0 4c-0.46 0.042-0.85 0.476-0.844 0.938v2c-0.0051 0.49225 0.44525 0.9426 0.9375 0.9375h6c0.492 0.005 0.943-0.446 0.938-0.938v-2c0.005-0.492-0.446-0.943-0.938-0.938h-6c-0.03122-0.0016-0.06253-0.0016-0.09375 0zm0 4c-0.46 0.042-0.85 0.476-0.844 0.938v6c-0.0051 0.49225 0.44525 0.9426 0.9375 0.9375h2c0.492 0.005 0.943-0.446 0.938-0.938v-6c0.005-0.492-0.446-0.943-0.938-0.938h-2c-0.03122-0.0016-0.06253-0.0016-0.09375 0zm-40 14c-0.46 0.042-0.85 0.476-0.844 0.938v6c-0.0051 0.49225 0.44525 0.9426 0.9375 0.9375h4c0.492 0.005 0.943-0.446 0.938-0.938v-6c0.005-0.492-0.446-0.943-0.938-0.938h-4c-0.03122-0.0016-0.06253-0.0016-0.09375 0zm6 0c-0.46 0.042-0.85 0.476-0.844 0.938v6c-0.0051 0.49225 0.44525 0.9426 0.9375 0.9375h4c0.492 0.005 0.943-0.446 0.938-0.938v-6c0.005-0.492-0.446-0.943-0.938-0.938h-4c-0.03122-0.0016-0.06253-0.0016-0.09375 0zm6 0c-0.46 0.042-0.85 0.476-0.844 0.938v6c-0.0051 0.49225 0.44525 0.9426 0.9375 0.9375h4c0.492 0.005 0.943-0.446 0.938-0.938v-6c0.005-0.492-0.446-0.943-0.938-0.938h-4c-0.03122-0.0016-0.06253-0.0016-0.09375 0zm6 0c-0.46 0.042-0.85 0.476-0.844 0.938v6c-0.0051 0.49225 0.44525 0.9426 0.9375 0.9375h4c0.492 0.005 0.943-0.446 0.938-0.938v-6c0.005-0.492-0.446-0.943-0.938-0.938h-4c-0.03122-0.0016-0.06253-0.0016-0.09375 0zm10 0c-0.46 0.042-0.85 0.476-0.844 0.938v6c-0.0051 0.49225 0.44525 0.9426 0.9375 0.9375h4c0.492 0.005 0.943-0.446 0.938-0.938v-6c0.005-0.492-0.446-0.943-0.938-0.938h-4c-0.03122-0.0016-0.06253-0.0016-0.09375 0zm6 0c-0.46 0.042-0.85 0.476-0.844 0.938v6c-0.0051 0.49225 0.44525 0.9426 0.9375 0.9375h4c0.492 0.005 0.943-0.446 0.938-0.938v-6c0.005-0.492-0.446-0.943-0.938-0.938h-4c-0.03122-0.0016-0.06253-0.0016-0.09375 0zm6 0c-0.46 0.042-0.85 0.476-0.844 0.938v6c-0.0051 0.49225 0.44525 0.9426 0.9375 0.9375h4c0.492 0.005 0.943-0.446 0.938-0.938v-6c0.005-0.492-0.446-0.943-0.938-0.938h-4c-0.03122-0.0016-0.06253-0.0016-0.09375 0zm6 0c-0.46 0.042-0.85 0.476-0.844 0.938v6c-0.0051 0.49225 0.44525 0.9426 0.9375 0.9375h4c0.492 0.005 0.943-0.446 0.938-0.938v-6c0.005-0.492-0.446-0.943-0.938-0.938h-4c-0.03122-0.0016-0.06253-0.0016-0.09375 0zm-30 10c-0.46 0.042-0.85 0.476-0.844 0.938v6c-0.0051 0.49225 0.44525 0.9426 0.9375 0.9375h4c0.492 0.005 0.943-0.446 0.938-0.938v-6c0.005-0.492-0.446-0.943-0.938-0.938h-4c-0.03122-0.0016-0.06253-0.0016-0.09375 0zm6 0c-0.46 0.042-0.85 0.476-0.844 0.938v6c-0.0051 0.49225 0.44525 0.9426 0.9375 0.9375h4c0.492 0.005 0.943-0.446 0.938-0.938v-6c0.005-0.492-0.446-0.943-0.938-0.938h-4c-0.03122-0.0016-0.06253-0.0016-0.09375 0zm11.594 0c-1.329 0-2.4375 1.1085-2.4375 2.4375v5c0 1.329 1.1085 2.4375 2.4375 2.4375h9c1.329 0 2.4375-1.1085 2.4375-2.4375v-5c0-1.329-1.1085-2.4375-2.4375-2.4375h-9z"/>
  <path id="rect3926" style="opacity:.3;color:#000000;fill:#333" d="m16 25v32h32v-32h-32zm40 0v8h14v-8h-14zm0 18v2h6v-2h-6zm0 4v2h6v-2h-6zm0 4v6h2v-6h-2zm-40 14v6h4v-6h-4zm6 0v6h4v-6h-4zm6 0v6h4v-6h-4zm6 0v6h4v-6h-4zm10 0v6h4v-6h-4zm6 0v6h4v-6h-4zm6 0v6h4v-6h-4zm6 0v6h4v-6h-4zm-30 10v6h4v-6h-4zm6 0v6h4v-6h-4zm11.5 0c-0.831 0-1.5 0.669-1.5 1.5v5c0 0.831 0.669 1.5 1.5 1.5h9c0.831 0 1.5-0.669 1.5-1.5v-5c0-0.831-0.669-1.5-1.5-1.5h-9z"/>
  <rect id="rect3882" style="color:#000000;fill:url(#radialGradient3977)" height="32" width="32" y="24" x="16"/>
  <rect id="rect3892" style="color:#000000;fill:url(#linearGradient4449)" height="8" width="14" y="24" x="56"/>
  <rect id="rect3894" style="color:#000000;fill:#ccc" height="6" width="4" y="64" x="16"/>
  <rect id="rect3896" style="color:#000000;fill:#ccc" height="6" width="4" y="64" x="22"/>
  <rect id="rect3898" style="color:#000000;fill:#ccc" height="6" width="4" y="64" x="28"/>
  <rect id="rect3900" style="color:#000000;fill:#ccc" height="6" width="4" y="64" x="34"/>
  <rect id="rect3902" style="color:#000000;fill:url(#linearGradient4617)" height="6" width="4" y="64" x="44"/>
  <rect id="rect3910" style="color:#000000;fill:url(#linearGradient4639)" height="6" width="4" y="74" x="32"/>
  <rect id="rect3912" style="color:#000000;fill:url(#linearGradient4637)" height="6" width="4" y="74" x="38"/>
  <rect id="rect3918" style="color:#000000;fill:#ccc" height="6" width="2" y="50" x="56"/>
  <rect id="rect3922" style="color:#000000;fill:url(#linearGradient4547)" rx="1.5" ry="1.5" height="8" width="12" y="74" x="48"/>
  <rect id="rect3924" style="color:#000000;fill:url(#linearGradient4555)" rx="1" ry="1" height="6" width="10" y="75" x="49"/>
  <path id="path3983" style="opacity:.4;color:#000000;fill:url(#linearGradient3998)" d="m16 24v32h32v-32h-32zm1 1h30v30h-30v-30z"/>
  <g id="g4352" transform="matrix(.8 0 0 1 3.2 0)">
   <rect id="rect4042" style="color:#000000;fill:url(#linearGradient4184)" height="1" width="5" y="54" x="11"/>
   <rect id="rect4046" style="color:#000000;fill:url(#linearGradient4186)" height="1" width="5" y="52" x="11"/>
   <rect id="rect4050" style="color:#000000;fill:url(#linearGradient4188)" height="1" width="5" y="50" x="11"/>
   <rect id="rect4054" style="color:#000000;fill:url(#linearGradient4190)" height="1" width="5" y="48" x="11"/>
   <rect id="rect4058" style="color:#000000;fill:url(#linearGradient4192)" height="1" width="5" y="46" x="11"/>
   <rect id="rect4062" style="color:#000000;fill:url(#linearGradient4194)" height="1" width="5" y="44" x="11"/>
   <rect id="rect4086" style="color:#000000;fill:url(#linearGradient4196)" height="1" width="5" y="42" x="11"/>
   <rect id="rect4088" style="color:#000000;fill:url(#linearGradient4198)" height="1" width="5" y="40" x="11"/>
   <rect id="rect4090" style="color:#000000;fill:url(#linearGradient4200)" height="1" width="5" y="38" x="11"/>
   <rect id="rect4092" style="color:#000000;fill:url(#linearGradient4202)" height="1" width="5" y="36" x="11"/>
   <rect id="rect4094" style="color:#000000;fill:url(#linearGradient4204)" height="1" width="5" y="34" x="11"/>
   <rect id="rect4096" style="color:#000000;fill:url(#linearGradient4206)" height="1" width="5" y="32" x="11"/>
   <rect id="rect4110" style="color:#000000;fill:url(#linearGradient4208)" height="1" width="5" y="30" x="11"/>
   <rect id="rect4112" style="color:#000000;fill:url(#linearGradient4210)" height="1" width="5" y="28" x="11"/>
   <rect id="rect4114" style="color:#000000;fill:url(#linearGradient4212)" height="1" width="5" y="26" x="11"/>
   <rect id="rect4116" style="color:#000000;fill:url(#linearGradient4214)" height="1" width="5" y="24" x="11"/>
  </g>
  <g id="g4166" transform="matrix(0 .8 -1 0 72 11.2)">
   <rect id="rect4134" style="color:#000000;fill:url(#linearGradient4184)" height="1" width="5" y="54" x="11"/>
   <rect id="rect4136" style="color:#000000;fill:url(#linearGradient4186)" height="1" width="5" y="52" x="11"/>
   <rect id="rect4138" style="color:#000000;fill:url(#linearGradient4188)" height="1" width="5" y="50" x="11"/>
   <rect id="rect4140" style="color:#000000;fill:url(#linearGradient4190)" height="1" width="5" y="48" x="11"/>
   <rect id="rect4142" style="color:#000000;fill:url(#linearGradient4192)" height="1" width="5" y="46" x="11"/>
   <rect id="rect4144" style="color:#000000;fill:url(#linearGradient4194)" height="1" width="5" y="44" x="11"/>
   <rect id="rect4146" style="color:#000000;fill:url(#linearGradient4196)" height="1" width="5" y="42" x="11"/>
   <rect id="rect4148" style="color:#000000;fill:url(#linearGradient4198)" height="1" width="5" y="40" x="11"/>
   <rect id="rect4150" style="color:#000000;fill:url(#linearGradient4200)" height="1" width="5" y="38" x="11"/>
   <rect id="rect4152" style="color:#000000;fill:url(#linearGradient4202)" height="1" width="5" y="36" x="11"/>
   <rect id="rect4154" style="color:#000000;fill:url(#linearGradient4204)" height="1" width="5" y="34" x="11"/>
   <rect id="rect4156" style="color:#000000;fill:url(#linearGradient4206)" height="1" width="5" y="32" x="11"/>
   <rect id="rect4158" style="color:#000000;fill:url(#linearGradient4208)" height="1" width="5" y="30" x="11"/>
   <rect id="rect4160" style="color:#000000;fill:url(#linearGradient4210)" height="1" width="5" y="28" x="11"/>
   <rect id="rect4162" style="color:#000000;fill:url(#linearGradient4212)" height="1" width="5" y="26" x="11"/>
   <rect id="rect4164" style="color:#000000;fill:url(#linearGradient4214)" height="1" width="5" y="24" x="11"/>
  </g>
  <g id="g4216" transform="matrix(-.8 0 0 -1 60.8 80)">
   <rect id="rect4218" style="color:#000000;fill:url(#linearGradient4184)" height="1" width="5" y="54" x="11"/>
   <rect id="rect4220" style="color:#000000;fill:url(#linearGradient4186)" height="1" width="5" y="52" x="11"/>
   <rect id="rect4222" style="color:#000000;fill:url(#linearGradient4188)" height="1" width="5" y="50" x="11"/>
   <rect id="rect4224" style="color:#000000;fill:url(#linearGradient4190)" height="1" width="5" y="48" x="11"/>
   <rect id="rect4226" style="color:#000000;fill:url(#linearGradient4192)" height="1" width="5" y="46" x="11"/>
   <rect id="rect4228" style="color:#000000;fill:url(#linearGradient4194)" height="1" width="5" y="44" x="11"/>
   <rect id="rect4230" style="color:#000000;fill:url(#linearGradient4196)" height="1" width="5" y="42" x="11"/>
   <rect id="rect4232" style="color:#000000;fill:url(#linearGradient4198)" height="1" width="5" y="40" x="11"/>
   <rect id="rect4234" style="color:#000000;fill:url(#linearGradient4200)" height="1" width="5" y="38" x="11"/>
   <rect id="rect4236" style="color:#000000;fill:url(#linearGradient4202)" height="1" width="5" y="36" x="11"/>
   <rect id="rect4238" style="color:#000000;fill:url(#linearGradient4204)" height="1" width="5" y="34" x="11"/>
   <rect id="rect4240" style="color:#000000;fill:url(#linearGradient4206)" height="1" width="5" y="32" x="11"/>
   <rect id="rect4242" style="color:#000000;fill:url(#linearGradient4208)" height="1" width="5" y="30" x="11"/>
   <rect id="rect4244" style="color:#000000;fill:url(#linearGradient4210)" height="1" width="5" y="28" x="11"/>
   <rect id="rect4246" style="color:#000000;fill:url(#linearGradient4212)" height="1" width="5" y="26" x="11"/>
   <rect id="rect4248" style="color:#000000;fill:url(#linearGradient4214)" height="1" width="5" y="24" x="11"/>
  </g>
  <g id="g4282" transform="matrix(0 -.8 1 0 -8 68.8)">
   <rect id="rect4284" style="color:#000000;fill:url(#linearGradient4184)" height="1" width="5" y="54" x="11"/>
   <rect id="rect4286" style="color:#000000;fill:url(#linearGradient4186)" height="1" width="5" y="52" x="11"/>
   <rect id="rect4288" style="color:#000000;fill:url(#linearGradient4188)" height="1" width="5" y="50" x="11"/>
   <rect id="rect4290" style="color:#000000;fill:url(#linearGradient4190)" height="1" width="5" y="48" x="11"/>
   <rect id="rect4292" style="color:#000000;fill:url(#linearGradient4192)" height="1" width="5" y="46" x="11"/>
   <rect id="rect4294" style="color:#000000;fill:url(#linearGradient4194)" height="1" width="5" y="44" x="11"/>
   <rect id="rect4296" style="color:#000000;fill:url(#linearGradient4196)" height="1" width="5" y="42" x="11"/>
   <rect id="rect4298" style="color:#000000;fill:url(#linearGradient4198)" height="1" width="5" y="40" x="11"/>
   <rect id="rect4300" style="color:#000000;fill:url(#linearGradient4200)" height="1" width="5" y="38" x="11"/>
   <rect id="rect4302" style="color:#000000;fill:url(#linearGradient4202)" height="1" width="5" y="36" x="11"/>
   <rect id="rect4304" style="color:#000000;fill:url(#linearGradient4204)" height="1" width="5" y="34" x="11"/>
   <rect id="rect4306" style="color:#000000;fill:url(#linearGradient4206)" height="1" width="5" y="32" x="11"/>
   <rect id="rect4308" style="color:#000000;fill:url(#linearGradient4208)" height="1" width="5" y="30" x="11"/>
   <rect id="rect4310" style="color:#000000;fill:url(#linearGradient4210)" height="1" width="5" y="28" x="11"/>
   <rect id="rect4312" style="color:#000000;fill:url(#linearGradient4212)" height="1" width="5" y="26" x="11"/>
   <rect id="rect4314" style="color:#000000;fill:url(#linearGradient4214)" height="1" width="5" y="24" x="11"/>
  </g>
  <rect id="rect4348" style="color:#000000;fill:url(#linearGradient4350)" transform="rotate(90)" height="2" width="4" y="-58" x="20"/>
  <rect id="rect4402" style="color:#000000;fill:url(#linearGradient4404)" transform="rotate(90)" height="2" width="4" y="-62" x="20"/>
  <rect id="rect4406" style="color:#000000;fill:url(#linearGradient4408)" transform="rotate(90)" height="2" width="4" y="-66" x="20"/>
  <rect id="rect4423" style="color:#000000;fill:url(#linearGradient4425)" transform="rotate(90)" height="2" width="4" y="-70" x="20"/>
  <rect id="rect4427" style="color:#000000;fill:url(#linearGradient4435)" transform="matrix(0,-1,-1,0,0,0)" height="2" width="4" y="-58" x="-36"/>
  <rect id="rect4429" style="color:#000000;fill:url(#linearGradient4437)" transform="matrix(0,-1,-1,0,0,0)" height="2" width="4" y="-62" x="-36"/>
  <rect id="rect4431" style="color:#000000;fill:url(#linearGradient4439)" transform="matrix(0,-1,-1,0,0,0)" height="2" width="4" y="-66" x="-36"/>
  <rect id="rect4433" style="color:#000000;fill:url(#linearGradient4441)" transform="matrix(0,-1,-1,0,0,0)" height="2" width="4" y="-70" x="-36"/>
  <path id="rect4451" style="opacity:.2;color:#000000;fill:#fff" d="m56 24v1h14v-1h-14z"/>
  <path id="path4460" style="opacity:.2;color:#000000" d="m56 31v1h14v-1h-14z"/>
  <g id="text4462" style="fill:#c89737" transform="translate(-.35840 -.28809)">
   <path id="path4469" d="m58.152 28v-0.14941h0.35059v-1.0586l-0.31055 0.22168v-0.16602l0.3252-0.22363h0.16211v1.2266h0.33496v0.14941h-0.8623"/>
   <path id="path4471" d="m59.974 27.688v0.31152h-0.16602v-0.31152h-0.64844v-0.13672l0.62988-0.92774h0.18457v0.92578h0.19336v0.13867h-0.19336m-0.16602-0.86621c-0.0013 0.0033-0.0046 0.0098-0.0098 0.01953-0.0052 0.0091-0.01107 0.01953-0.01758 0.03125-0.0065 0.01172-0.01335 0.02376-0.02051 0.03613-0.0065 0.01172-0.01237 0.02149-0.01758 0.0293l-0.35254 0.51953c-0.0033 0.0052-0.0081 0.01205-0.01465 0.02051-0.0059 0.0085-0.01205 0.01725-0.01855 0.02637-0.0065 0.0085-0.01302 0.01693-0.01953 0.02539-0.0065 0.0085-0.01172 0.01497-0.01563 0.01953h0.48633v-0.72754"/>
   <path id="path4473" d="m60.391 28v-1.376h1.0439v0.15234h-0.85742v0.44141h0.79883v0.15039h-0.79883v0.47949h0.89746v0.15234h-1.084"/>
   <path id="path4475" d="m62.699 28-0.35742-0.57129h-0.42871v0.57129h-0.18652v-1.376h0.64746c0.07813 0.000002 0.14714 0.0091 0.20703 0.02734 0.06054 0.01758 0.11133 0.0433 0.15234 0.07715 0.04102 0.03386 0.07227 0.0752 0.09375 0.12402 0.02148 0.04883 0.03223 0.10384 0.03223 0.16504-0.000001 0.04362-0.0065 0.08659-0.01953 0.12891-0.01237 0.04232-0.03223 0.08106-0.05957 0.11621-0.02735 0.03516-0.06218 0.06543-0.10449 0.09082-0.04232 0.02539-0.0931 0.04329-0.15234 0.05371l0.392 0.593h-0.215m-0.02734-0.98047c-0.000001-0.04167-0.0072-0.0778-0.02148-0.1084-0.01432-0.0306-0.03516-0.05599-0.0625-0.07617-0.02734-0.02083-0.06055-0.03613-0.09961-0.0459-0.03906-0.01042-0.08333-0.01562-0.13281-0.01563h-0.44238v0.50781h0.4502c0.05338 0.000001 0.09961-0.0065 0.13867-0.01953 0.03906-0.01367 0.07096-0.03223 0.0957-0.05566 0.02539-0.02344 0.04394-0.05111 0.05566-0.08301 0.01237-0.0319 0.01855-0.0664 0.01855-0.10352"/>
   <path id="path4477" d="m63.358 26.776v0.51172h0.76758v0.1543h-0.76758v0.55762h-0.18652v-1.376h0.97754v0.15234h-0.79102"/>
   <path id="path4479" d="m65.259 27.552c-0.000001 0.06901-0.01042 0.13216-0.03125 0.18945s-0.05176 0.10677-0.09277 0.14844c-0.04102 0.04102-0.09212 0.07292-0.15332 0.0957-0.06055 0.02279-0.13086 0.03418-0.21094 0.03418-0.07227 0-0.13542-0.0085-0.18945-0.02539-0.05339-0.01693-0.09863-0.04004-0.13574-0.06934-0.03711-0.02995-0.06673-0.06478-0.08887-0.10449-0.02148-0.03971-0.03678-0.08236-0.0459-0.12793l0.17773-0.02051c0.0072 0.02604 0.01725 0.05143 0.03027 0.07617 0.01302 0.02409 0.0306 0.0459 0.05273 0.06543 0.02279 0.01888 0.05046 0.03418 0.08301 0.0459 0.0332 0.01107 0.07324 0.0166 0.12012 0.0166 0.04557 0 0.08691-0.0068 0.12402-0.02051 0.03711-0.01432 0.06869-0.03516 0.09473-0.0625 0.02669-0.02734 0.0472-0.06087 0.06152-0.10059 0.01432-0.03971 0.02148-0.08529 0.02148-0.13672-0.000001-0.04232-0.0068-0.08105-0.02051-0.11621-0.01367-0.03581-0.0332-0.0664-0.05859-0.0918-0.02539-0.02604-0.05664-0.04622-0.09375-0.06055-0.03646-0.01432-0.07813-0.02148-0.125-0.02148-0.0293 0.000001-0.05631 0.0026-0.08105 0.0078s-0.04785 0.01237-0.06934 0.02148c-0.02083 0.0091-0.04004 0.01986-0.05762 0.03223-0.01693 0.01172-0.03288 0.02409-0.04785 0.03711h-0.17188l0.0459-0.74024h0.78223v0.14941h-0.62207l-0.02637 0.43652c0.03125-0.02409 0.07031-0.0446 0.11719-0.06152 0.04687-0.01758 0.10254-0.02637 0.16699-0.02637 0.06836 0.000001 0.12988 0.01042 0.18457 0.03125s0.10124 0.05046 0.13965 0.08887c0.03841 0.03776 0.06803 0.08301 0.08887 0.13574 0.02083 0.05274 0.03125 0.11068 0.03125 0.17383"/>
   <path id="path4481" d="m66.368 27.55c-0.000001 0.06901-0.0098 0.13249-0.0293 0.19043-0.01888 0.05729-0.0472 0.10677-0.08496 0.14844-0.03711 0.04102-0.08333 0.07324-0.13867 0.09668-0.05534 0.02279-0.11914 0.03418-0.19141 0.03418-0.08008 0-0.15006-0.0153-0.20996-0.0459s-0.1097-0.07454-0.14941-0.13184c-0.03971-0.05794-0.06966-0.12858-0.08984-0.21191-0.01953-0.08398-0.0293-0.17936-0.0293-0.28613 0-0.1224 0.01107-0.22982 0.0332-0.32227 0.02279-0.09245 0.05534-0.1696 0.09766-0.23144 0.04232-0.06185 0.09375-0.1084 0.1543-0.13965 0.0612-0.03125 0.13021-0.04687 0.20703-0.04687 0.04687 0.000001 0.09082 0.0049 0.13184 0.01465 0.04101 0.0098 0.07812 0.02572 0.11133 0.04785 0.03385 0.02149 0.06348 0.05013 0.08887 0.08594s0.04557 0.07975 0.06055 0.13184l-0.16797 0.03027c-0.01823-0.05924-0.04753-0.10189-0.08789-0.12793-0.03971-0.02669-0.08594-0.04004-0.13867-0.04004-0.04818 0.000001-0.0918 0.01139-0.13086 0.03418s-0.07227 0.05697-0.09961 0.10254c-0.02734 0.04492-0.0485 0.10156-0.06348 0.16992-0.01432 0.06836-0.02149 0.14811-0.02149 0.23926 0.0319-0.05924 0.07682-0.10417 0.13477-0.13476 0.05794-0.03125 0.12435-0.04687 0.19922-0.04687 0.0625 0 0.11914 0.01009 0.16992 0.03027s0.09408 0.04948 0.12988 0.08789c0.03646 0.03776 0.06445 0.08399 0.08398 0.13867 0.02018 0.05404 0.03027 0.11491 0.03027 0.18262m-0.17871 0.0078c-0.000001-0.04753-0.0059-0.09049-0.01758-0.12891-0.01172-0.03841-0.0293-0.07096-0.05273-0.09766-0.02344-0.02734-0.05241-0.04818-0.08691-0.0625-0.03451-0.01497-0.07455-0.02246-0.12012-0.02246-0.0319 0.000001-0.06413 0.0049-0.09668 0.01465-0.03255 0.0091-0.06218 0.02442-0.08887 0.0459-0.02604 0.02083-0.04753 0.0485-0.06445 0.08301-0.01628 0.03451-0.02441 0.0765-0.02441 0.12598 0 0.05078 0.0065 0.09831 0.01953 0.14258 0.01302 0.04362 0.03157 0.08171 0.05566 0.11426 0.02474 0.03255 0.05436 0.05827 0.08887 0.07715 0.0345 0.01888 0.07324 0.02832 0.11621 0.02832 0.04232 0 0.08008-0.0072 0.11328-0.02148 0.03385-0.01497 0.0625-0.03613 0.08594-0.06348 0.02344-0.028 0.04134-0.06185 0.05371-0.10156s0.01855-0.08431 0.01856-0.13379"/>
   <path id="path4483" d="m59.028 30.052c-0.000001 0.06901-0.01042 0.13216-0.03125 0.18945s-0.05176 0.10677-0.09277 0.14844c-0.04102 0.04102-0.09212 0.07292-0.15332 0.0957-0.06055 0.02279-0.13086 0.03418-0.21094 0.03418-0.07227 0-0.13542-0.0085-0.18945-0.02539-0.05339-0.01693-0.09863-0.04004-0.13574-0.06934-0.03711-0.02995-0.06673-0.06478-0.08887-0.10449-0.02148-0.03971-0.03678-0.08236-0.0459-0.12793l0.17773-0.02051c0.0072 0.02604 0.01725 0.05143 0.03027 0.07617 0.01302 0.02409 0.0306 0.0459 0.05273 0.06543 0.02279 0.01888 0.05046 0.03418 0.08301 0.0459 0.0332 0.01107 0.07324 0.0166 0.12012 0.0166 0.04557 0 0.08691-0.0068 0.12402-0.02051 0.03711-0.01432 0.06868-0.03516 0.09473-0.0625 0.02669-0.02734 0.0472-0.06087 0.06152-0.10059 0.01432-0.03971 0.02148-0.08529 0.02148-0.13672-0.000001-0.04232-0.0068-0.08105-0.02051-0.11621-0.01367-0.03581-0.0332-0.0664-0.05859-0.0918-0.02539-0.02604-0.05664-0.04622-0.09375-0.06055-0.03646-0.01432-0.07813-0.02148-0.125-0.02148-0.0293 0.000001-0.05632 0.0026-0.08105 0.0078-0.02474 0.0052-0.04785 0.01237-0.06934 0.02148-0.02083 0.0091-0.04004 0.01986-0.05762 0.03223-0.01693 0.01172-0.03288 0.02409-0.04785 0.03711h-0.17188l0.0459-0.74024h0.78223v0.14941h-0.62207l-0.02637 0.43652c0.03125-0.02409 0.07031-0.0446 0.11719-0.06152 0.04687-0.01758 0.10254-0.02637 0.16699-0.02637 0.06836 0.000001 0.12988 0.01042 0.18457 0.03125s0.10124 0.05046 0.13965 0.08887c0.03841 0.03776 0.06803 0.08301 0.08887 0.13574 0.02083 0.05274 0.03125 0.11068 0.03125 0.17383"/>
   <path id="path4485" d="m60.138 30.05c-0.000001 0.06901-0.0098 0.13249-0.0293 0.19043-0.01888 0.05729-0.0472 0.10677-0.08496 0.14844-0.03711 0.04102-0.08333 0.07324-0.13867 0.09668-0.05534 0.02279-0.11914 0.03418-0.19141 0.03418-0.08008 0-0.15006-0.0153-0.20996-0.0459s-0.1097-0.07454-0.14941-0.13184c-0.03971-0.05794-0.06966-0.12858-0.08984-0.21191-0.01953-0.08398-0.0293-0.17936-0.0293-0.28613 0-0.1224 0.01107-0.22982 0.0332-0.32227 0.02279-0.09245 0.05534-0.1696 0.09766-0.23144 0.04232-0.06185 0.09375-0.1084 0.1543-0.13965 0.0612-0.03125 0.13021-0.04687 0.20703-0.04687 0.04687 0.000001 0.09082 0.0049 0.13184 0.01465 0.04102 0.0098 0.07812 0.02572 0.11133 0.04785 0.03385 0.02149 0.06348 0.05013 0.08887 0.08594s0.04557 0.07975 0.06055 0.13184l-0.16797 0.03027c-0.01823-0.05924-0.04753-0.10189-0.08789-0.12793-0.03971-0.02669-0.08594-0.04004-0.13867-0.04004-0.04818 0.000001-0.0918 0.01139-0.13086 0.03418s-0.07227 0.05697-0.09961 0.10254c-0.02734 0.04492-0.0485 0.10156-0.06348 0.16992-0.01432 0.06836-0.02148 0.14811-0.02148 0.23926 0.0319-0.05924 0.07682-0.10417 0.13477-0.13476 0.05794-0.03125 0.12435-0.04687 0.19922-0.04687 0.0625 0 0.11914 0.01009 0.16992 0.03027s0.09407 0.04948 0.12988 0.08789c0.03646 0.03776 0.06445 0.08399 0.08398 0.13867 0.02018 0.05404 0.03027 0.11491 0.03027 0.18262m-0.17871 0.0078c0-0.04753-0.0059-0.09049-0.01758-0.12891-0.01172-0.03841-0.0293-0.07096-0.05273-0.09766-0.02344-0.02734-0.05241-0.04818-0.08691-0.0625-0.03451-0.01497-0.07455-0.02246-0.12012-0.02246-0.0319 0.000001-0.06413 0.0049-0.09668 0.01465-0.03255 0.0091-0.06217 0.02442-0.08887 0.0459-0.02604 0.02083-0.04753 0.0485-0.06445 0.08301-0.01628 0.03451-0.02441 0.0765-0.02441 0.12598-0.000001 0.05078 0.0065 0.09831 0.01953 0.14258 0.01302 0.04362 0.03158 0.08171 0.05566 0.11426 0.02474 0.03255 0.05436 0.05827 0.08887 0.07715s0.07324 0.02832 0.11621 0.02832c0.04232 0 0.08008-0.0072 0.11328-0.02148 0.03385-0.01497 0.0625-0.03613 0.08594-0.06348 0.02344-0.028 0.04134-0.06185 0.05371-0.10156s0.01855-0.08431 0.01855-0.13379"/>
   <path id="path4487" d="m60.93 29.276v1.2236h-0.18555v-1.2236h-0.47266v-0.15234h1.1309v0.15234h-0.47266"/>
   <path id="path4489" d="m61.429 30.047v-0.15625h0.48828v0.15625h-0.48828"/>
   <path id="path4491" d="m63.145 30.5-0.35742-0.57129h-0.42871v0.57129h-0.18652v-1.376h0.64746c0.07812 0.000002 0.14713 0.0091 0.20703 0.02734 0.06055 0.01758 0.11133 0.0433 0.15234 0.07715 0.04101 0.03386 0.07226 0.0752 0.09375 0.12402 0.02148 0.04883 0.03222 0.10384 0.03223 0.16504-0.000001 0.04362-0.0065 0.08659-0.01953 0.12891-0.01237 0.04232-0.03223 0.08106-0.05957 0.11621-0.02734 0.03516-0.06218 0.06543-0.10449 0.09082-0.04232 0.02539-0.0931 0.04329-0.15234 0.05371l0.39062 0.59278h-0.21484m-0.02734-0.98047c-0.000001-0.04167-0.0072-0.0778-0.02148-0.1084-0.01432-0.0306-0.03516-0.05599-0.0625-0.07617-0.02734-0.02083-0.06055-0.03613-0.09961-0.0459-0.03906-0.01042-0.08333-0.01562-0.13281-0.01563h-0.44238v0.50781h0.4502c0.05338 0.000001 0.09961-0.0065 0.13867-0.01953 0.03906-0.01367 0.07096-0.03223 0.0957-0.05566 0.02539-0.02344 0.04394-0.05111 0.05566-0.08301 0.01237-0.0319 0.01855-0.0664 0.01855-0.10352"/>
   <path id="path4493" d="m64.612 30.5h-1.0957v-0.13965l0.83789-1.084h-0.7666v-0.15234h0.97852v0.13574l-0.83789 1.0879h0.88379v0.15234"/>
   <path id="path4495" d="m65.7 30.12c-0.000001 0.06315-0.01042 0.11947-0.03125 0.16894-0.02018 0.04948-0.05013 0.09147-0.08984 0.12598-0.03906 0.03385-0.08789 0.0599-0.14648 0.07813-0.05794 0.01758-0.12435 0.02637-0.19922 0.02637-0.08529 0-0.15723-0.01042-0.21582-0.03125-0.05794-0.02148-0.10579-0.04948-0.14356-0.08398-0.03776-0.03516-0.06608-0.07487-0.08496-0.11914-0.01888-0.04492-0.03125-0.09115-0.03711-0.13867l0.18164-0.0166c0.0052 0.03646 0.01465 0.06966 0.02832 0.09961 0.01432 0.02995 0.03353 0.05566 0.05762 0.07715 0.02409 0.02148 0.05371 0.03809 0.08887 0.0498 0.03516 0.01172 0.07682 0.01758 0.125 0.01758 0.08854 0.000001 0.15788-0.02181 0.20801-0.06543 0.05078-0.04362 0.07617-0.1084 0.07617-0.19434-0.000001-0.05078-0.01139-0.09147-0.03418-0.12207-0.02214-0.03125-0.05013-0.05534-0.08398-0.07227-0.0332-0.01758-0.06966-0.0293-0.10938-0.03516-0.03906-0.0059-0.0752-0.0088-0.1084-0.0088h-0.09961v-0.15234h0.0957c0.0332 0.000001 0.06771-0.0033 0.10352-0.0098 0.03581-0.0072 0.06836-0.01953 0.09766-0.03711 0.02995-0.01823 0.05436-0.04264 0.07324-0.07324 0.01953-0.0306 0.0293-0.06966 0.0293-0.11719 0-0.07357-0.02181-0.13151-0.06543-0.17383-0.04297-0.04297-0.1071-0.06445-0.19238-0.06445-0.07748 0.000001-0.1403 0.01986-0.18848 0.05957-0.04753 0.03972-0.07519 0.0957-0.08301 0.16797l-0.17676-0.01367c0.0072-0.06055 0.02376-0.11328 0.0498-0.1582s0.05892-0.08203 0.09863-0.11133c0.04036-0.02995 0.08626-0.05208 0.1377-0.06641 0.05143-0.01497 0.10612-0.02246 0.16406-0.02246 0.07682 0.000001 0.1429 0.0098 0.19824 0.0293 0.05534 0.01888 0.10058 0.04492 0.13574 0.07813 0.03516 0.03255 0.06087 0.07096 0.07715 0.11524 0.01693 0.04427 0.02539 0.09147 0.02539 0.1416-0.000001 0.04037-0.0055 0.07813-0.0166 0.11328-0.01107 0.03516-0.02832 0.06673-0.05176 0.09473s-0.05339 0.05208-0.08984 0.07227c-0.03581 0.02018-0.0791 0.03548-0.12988 0.0459v0.0039c0.05534 0.0059 0.10352 0.01856 0.14453 0.03809 0.04101 0.01888 0.07487 0.04264 0.10156 0.07129s0.04655 0.0612 0.05957 0.09766c0.01367 0.03646 0.02051 0.07487 0.02051 0.11523"/>
   <path id="path4497" d="m66.807 29.784c-0.000001 0.1224-0.01172 0.22982-0.03516 0.32226-0.02279 0.0918-0.05567 0.1683-0.09863 0.22949-0.04297 0.0612-0.09538 0.1071-0.15723 0.1377-0.0612 0.0306-0.13021 0.0459-0.20703 0.0459-0.05273 0-0.10026-0.0055-0.14258-0.0166-0.04232-0.01042-0.08008-0.02702-0.11328-0.0498-0.0332-0.02279-0.06152-0.05241-0.08496-0.08887s-0.04232-0.0804-0.05664-0.13184l0.16797-0.02637c0.01823 0.05925 0.04655 0.10286 0.08496 0.13086 0.03906 0.02734 0.08822 0.04102 0.14746 0.04102 0.04753 0 0.09082-0.01107 0.12988-0.0332 0.03971-0.02279 0.07324-0.05664 0.10059-0.10156 0.02799-0.04492 0.0498-0.10124 0.06543-0.16894 0.01562-0.06771 0.02409-0.14714 0.02539-0.23828-0.01367 0.0306-0.03255 0.05794-0.05664 0.08203-0.02344 0.02409-0.05046 0.0446-0.08106 0.06152-0.02995 0.01628-0.0625 0.02897-0.09766 0.03809-0.03516 0.0085-0.07064 0.0127-0.10644 0.0127-0.0625 0.000001-0.11914-0.01107-0.16992-0.0332-0.05013-0.02279-0.09277-0.05436-0.12793-0.09473-0.03516-0.04036-0.0625-0.08887-0.08203-0.14551-0.01888-0.05729-0.02832-0.12077-0.02832-0.19043 0-0.07096 0.01009-0.13509 0.03027-0.19238 0.02083-0.05729 0.05078-0.10579 0.08984-0.14551 0.03906-0.04036 0.08691-0.07129 0.14355-0.09277 0.05729-0.02148 0.12207-0.03223 0.19434-0.03223 0.15299 0.000001 0.26888 0.05664 0.34766 0.16992 0.07877 0.11328 0.11816 0.28353 0.11816 0.51074m-0.192-0.17c0-0.05078-0.0062-0.09863-0.01855-0.14356-0.01172-0.04492-0.02962-0.08398-0.05371-0.11719-0.02344-0.0332-0.05273-0.05924-0.08789-0.07813-0.03451-0.01953-0.07455-0.0293-0.12012-0.0293-0.04232 0.000001-0.0804 0.0075-0.11426 0.02246-0.03385 0.01497-0.0625 0.03646-0.08594 0.06445-0.02344 0.02735-0.04167 0.06087-0.05469 0.10059-0.01237 0.03971-0.01856 0.08399-0.01856 0.13281 0 0.04622 0.0055 0.08919 0.0166 0.12891 0.01172 0.03971 0.02897 0.07422 0.05176 0.10352 0.02279 0.02865 0.05111 0.05143 0.08496 0.06836 0.03385 0.01628 0.07324 0.02441 0.11816 0.02441 0.03255 0 0.06543-0.0055 0.09863-0.0166 0.03385-0.01107 0.06413-0.02799 0.09082-0.05078 0.02734-0.02279 0.04948-0.05143 0.06641-0.08594 0.01758-0.03515 0.02637-0.0765 0.02637-0.12402"/>
   <path id="path4499" d="m67.937 29.812c-0.000001 0.13216-0.0127 0.24349-0.03809 0.33398-0.02474 0.08984-0.05892 0.16276-0.10254 0.21875-0.04297 0.05534-0.09375 0.09505-0.15234 0.11914-0.0586 0.02409-0.1211 0.03613-0.1875 0.03613-0.06706 0-0.12956-0.01204-0.1875-0.03613s-0.1084-0.0638-0.15137-0.11914c-0.04232-0.05534-0.07585-0.12793-0.10058-0.21777-0.02409-0.09049-0.03613-0.20215-0.03613-0.33496 0-0.13867 0.01204-0.25325 0.03613-0.34375 0.02474-0.09114 0.05859-0.16374 0.10156-0.21777s0.09375-0.0918 0.15234-0.11328c0.05859-0.02213 0.1224-0.0332 0.19141-0.0332 0.06576 0.000001 0.12728 0.01107 0.18457 0.0332 0.05794 0.02149 0.1084 0.05925 0.15137 0.11328 0.04297 0.05404 0.07682 0.12663 0.10156 0.21777 0.02474 0.0905 0.03711 0.20508 0.03711 0.34375m-0.17871 0c0-0.10937-0.0065-0.20019-0.01953-0.27246-0.01302-0.07292-0.03223-0.13086-0.05762-0.17383-0.02539-0.04362-0.05664-0.07422-0.09375-0.0918-0.03646-0.01823-0.07813-0.02734-0.125-0.02734-0.04948 0.000001-0.0931 0.0091-0.13086 0.02734-0.03776 0.01823-0.06966 0.04915-0.0957 0.09277-0.02539 0.04297-0.0446 0.10091-0.05762 0.17383-0.01302 0.07227-0.01953 0.16276-0.01953 0.27148 0 0.10547 0.0065 0.19434 0.01953 0.2666 0.01367 0.07227 0.0332 0.13053 0.05859 0.1748 0.02604 0.04362 0.05762 0.0752 0.09473 0.09473 0.03711 0.01888 0.07943 0.02832 0.12695 0.02832 0.04622 0 0.08789-0.0094 0.125-0.02832 0.03711-0.01953 0.06836-0.05111 0.09375-0.09473 0.02604-0.04427 0.0459-0.10254 0.05957-0.1748 0.01432-0.07227 0.02148-0.16113 0.02148-0.2666"/>
  </g>
  <g id="text4501" style="opacity:.5;fill:#fff" transform="translate(0,4)">
   <path id="path4510" d="m21.51 37.914v0.87292h1.3094v0.26321h-1.3094v0.95122h-0.31818v-2.3472h1.6675v0.25988h-1.3494"/>
   <path id="path4512" d="m24.975 40.002h-1.8691v-0.23822l1.4293-1.8491h-1.3077v-0.25988h1.6692v0.23156l-1.4293 1.8558h1.5076v0.25988"/>
   <path id="path4514" d="m27.027 40.002-0.26821-0.68634h-1.0695l-0.26987 0.68634h-0.32984l0.95788-2.3472h0.3615l0.94289 2.3472h-0.32485m-0.66469-1.7092c-0.01777-0.04442-0.03498-0.0894-0.05164-0.13494-0.01555-0.04553-0.02943-0.08662-0.04165-0.12328-0.01222-0.03776-0.02277-0.06885-0.03165-0.09329-0.0078-0.02554-0.01222-0.04109-0.01333-0.04664-0.0022 0.0056-0.0072 0.0211-0.01499 0.04664-0.0078 0.02555-0.01833 0.0572-0.03165 0.09495-0.01222 0.03776-0.02665 0.07941-0.04331 0.12494-0.01555 0.04554-0.03165 0.09052-0.04831 0.13494l-0.29986 0.7713h0.87792l-0.30152-0.77463"/>
   <path id="path4516" d="m29.098 38.78c-0.000002 0.20879-0.01999 0.39204-0.05997 0.54974-0.03887 0.15659-0.09496 0.28709-0.16825 0.39148-0.0733 0.1044-0.1627 0.18269-0.26821 0.23489-0.1044 0.0522-0.22212 0.0783-0.35317 0.0783-0.08996 0-0.17103-0.0094-0.24322-0.02832-0.07219-0.01777-0.1366-0.04609-0.19324-0.08496s-0.10495-0.0894-0.14493-0.1516c-0.03998-0.06219-0.07219-0.13716-0.09662-0.22489l0.28653-0.04498c0.0311 0.10106 0.07941 0.17547 0.14493 0.22323 0.06664 0.04664 0.15048 0.06997 0.25155 0.06997 0.08107 0 0.15493-0.01888 0.22156-0.05664 0.06774-0.03887 0.12494-0.09662 0.17158-0.17325 0.04775-0.07663 0.08496-0.1727 0.11161-0.2882s0.04109-0.25099 0.04331-0.40648c-0.02332 0.0522-0.05553 0.09884-0.09662 0.13993-0.03998 0.04109-0.08607 0.07608-0.13827 0.10495-0.05109 0.02777-0.10662 0.04942-0.16659 0.06497-0.05997 0.01444-0.1205 0.02166-0.18158 0.02166-0.10662 0.000001-0.20324-0.01888-0.28986-0.05664-0.08552-0.03887-0.15826-0.09273-0.21823-0.16159-0.05997-0.06885-0.10662-0.15159-0.13993-0.24822-0.03221-0.09773-0.04831-0.20601-0.04831-0.32485 0-0.12105 0.01721-0.23044 0.05164-0.32818 0.03554-0.09773 0.08663-0.18047 0.15326-0.24822 0.06663-0.06885 0.14826-0.12161 0.24488-0.15826 0.09773-0.03665 0.20823-0.05497 0.33151-0.05497 0.26099 0.000003 0.45867 0.09662 0.59305 0.28986s0.20157 0.48366 0.20157 0.87125m-0.327-0.289c-0.000001-0.08662-0.01055-0.16825-0.03165-0.24488-0.01999-0.07663-0.05053-0.14326-0.09162-0.1999-0.03998-0.05664-0.08996-0.10106-0.14993-0.13327-0.05886-0.03332-0.12716-0.04997-0.2049-0.04998-0.07219 0.000002-0.13716 0.01277-0.19491 0.03832s-0.10662 0.06219-0.1466 0.10995c-0.03998 0.04665-0.07108 0.10384-0.09329 0.17159-0.0211 0.06775-0.03165 0.14327-0.03165 0.22656 0 0.07885 0.0094 0.15215 0.02832 0.2199 0.01999 0.06775 0.04942 0.12661 0.08829 0.17658 0.03887 0.04887 0.08718 0.08774 0.14493 0.11661 0.05775 0.02777 0.12494 0.04165 0.20157 0.04165 0.05553 0.000002 0.11161-0.0094 0.16825-0.02832 0.05775-0.01888 0.10939-0.04775 0.15493-0.08663 0.04664-0.03887 0.0844-0.08774 0.11328-0.1466 0.02998-0.05997 0.04498-0.13049 0.04498-0.21157"/>
   <path id="path4518" d="m31.008 39.234c-0.000001 0.11772-0.01666 0.226-0.04998 0.32485-0.03221 0.09773-0.08052 0.18214-0.14493 0.25321-0.0633 0.06997-0.14216 0.12494-0.23656 0.16492-0.0944 0.03887-0.20324 0.05831-0.32651 0.05831-0.1366 0-0.25599-0.0261-0.35816-0.0783s-0.18713-0.12716-0.25488-0.22489c-0.06775-0.09884-0.11883-0.21934-0.15326-0.3615-0.03332-0.14326-0.04998-0.30597-0.04998-0.4881 0-0.20879 0.01888-0.39204 0.05664-0.54974 0.03887-0.1577 0.0944-0.28931 0.16659-0.39481s0.15992-0.18491 0.26321-0.23822c0.1044-0.05331 0.22212-0.07996 0.35317-0.07996 0.07996 0.000003 0.15493 0.0083 0.22489 0.02499 0.06996 0.01666 0.13327 0.04387 0.18991 0.08163 0.05775 0.03665 0.10828 0.08552 0.1516 0.1466 0.04331 0.06108 0.07774 0.13605 0.10328 0.22489l-0.28653 0.05164c-0.0311-0.10106-0.08107-0.1738-0.14993-0.21823-0.06775-0.04553-0.1466-0.0683-0.23655-0.0683-0.08218 0.000002-0.15659 0.01944-0.22323 0.05831s-0.12328 0.09718-0.16992 0.17492c-0.04665 0.07663-0.08274 0.17325-0.10828 0.28986-0.02443 0.11661-0.03665 0.25266-0.03665 0.40814 0.05442-0.10106 0.13105-0.17769 0.22989-0.22989 0.09884-0.05331 0.21212-0.07996 0.33984-0.07996 0.10662 0.000001 0.20324 0.01722 0.28986 0.05164 0.08662 0.03443 0.16048 0.08441 0.22156 0.14993 0.06219 0.06442 0.10995 0.14327 0.14326 0.23656 0.03443 0.09218 0.05164 0.19602 0.05164 0.31152m-0.30486 0.01333c-0.000002-0.08107-0.01-0.15437-0.02999-0.2199-0.01999-0.06552-0.04998-0.12105-0.08996-0.16659-0.03998-0.04664-0.0894-0.08218-0.14826-0.10662-0.05886-0.02554-0.12716-0.03831-0.2049-0.03831-0.05442 0.000001-0.10939 0.0083-0.16492 0.02499-0.05553 0.01555-0.10606 0.04165-0.1516 0.0783-0.04442 0.03554-0.08107 0.08274-0.10995 0.1416-0.02777 0.05886-0.04165 0.13049-0.04165 0.2149-0.000001 0.08663 0.01111 0.1677 0.03332 0.24322 0.02221 0.07441 0.05386 0.13938 0.09496 0.19491 0.0422 0.05553 0.09273 0.0994 0.15159 0.1316 0.05886 0.03221 0.12494 0.04831 0.19824 0.04831 0.07219 0 0.1366-0.01222 0.19324-0.03665 0.05775-0.02554 0.10662-0.06164 0.1466-0.10828 0.03998-0.04775 0.07052-0.1055 0.09162-0.17325 0.0211-0.06774 0.03165-0.14382 0.03165-0.22822"/>
   <path id="path4520" d="m32.914 39.237c-0.000001 0.11772-0.01777 0.22545-0.05331 0.32318s-0.08829 0.18214-0.15826 0.25321c-0.06997 0.06997-0.15715 0.12439-0.26154 0.16326-0.10329 0.03887-0.22323 0.05831-0.35983 0.05831-0.12328 0-0.231-0.01444-0.32318-0.04331-0.09107-0.02887-0.16825-0.0683-0.23156-0.11828-0.0633-0.05109-0.11384-0.1105-0.1516-0.17825-0.03665-0.06775-0.06275-0.14049-0.0783-0.21823l0.30319-0.03498c0.01222 0.04442 0.02943 0.08774 0.05164 0.12994 0.02221 0.04109 0.0522 0.0783 0.08996 0.11161 0.03887 0.03221 0.08607 0.05831 0.1416 0.0783 0.05664 0.01888 0.12494 0.02832 0.2049 0.02832 0.07774 0 0.14826-0.01166 0.21157-0.03498 0.0633-0.02443 0.11717-0.05997 0.16159-0.10662 0.04553-0.04664 0.08052-0.10384 0.10495-0.17158s0.03665-0.14549 0.03665-0.23322c-0.000001-0.07219-0.01166-0.13827-0.03498-0.19824-0.02332-0.06108-0.05664-0.11328-0.09995-0.15659-0.04331-0.04442-0.09662-0.07885-0.15992-0.10328-0.06219-0.02443-0.13327-0.03665-0.21323-0.03665-0.04998 0.000001-0.09607 0.0044-0.13827 0.01333-0.0422 0.0089-0.08163 0.0211-0.11828 0.03665-0.03554 0.01555-0.0683 0.03387-0.09829 0.05497-0.02887 0.01999-0.05608 0.04109-0.08163 0.0633h-0.29319l0.0783-1.2627h1.3344v0.25488h-1.0612l-0.04498 0.74465c0.05331-0.04109 0.11994-0.07607 0.1999-0.10495 0.07996-0.02998 0.17492-0.04498 0.28486-0.04498 0.11661 0.000002 0.22156 0.01777 0.31485 0.05331s0.17269 0.08607 0.23822 0.1516c0.06552 0.06442 0.11606 0.1416 0.1516 0.23156s0.05331 0.1888 0.05331 0.29653"/>
   <path id="path4522" d="m33.339 40.002v-2.3472h0.31818v2.0873h1.1861v0.25988h-1.5043"/>
   <path id="path4524" d="m36.712 39.237c-0.000002 0.11772-0.01777 0.22545-0.05331 0.32318s-0.08829 0.18214-0.15826 0.25321c-0.06997 0.06997-0.15715 0.12439-0.26154 0.16326-0.10329 0.03887-0.22323 0.05831-0.35983 0.05831-0.12328 0-0.231-0.01444-0.32318-0.04331-0.09107-0.02887-0.16825-0.0683-0.23156-0.11828-0.0633-0.05109-0.11384-0.1105-0.1516-0.17825-0.03665-0.06775-0.06275-0.14049-0.0783-0.21823l0.30319-0.03498c0.01222 0.04442 0.02943 0.08774 0.05164 0.12994 0.02221 0.04109 0.0522 0.0783 0.08996 0.11161 0.03887 0.03221 0.08607 0.05831 0.1416 0.0783 0.05664 0.01888 0.12494 0.02832 0.2049 0.02832 0.07774 0 0.14826-0.01166 0.21157-0.03498 0.0633-0.02443 0.11716-0.05997 0.16159-0.10662 0.04553-0.04664 0.08052-0.10384 0.10495-0.17158s0.03665-0.14549 0.03665-0.23322c-0.000002-0.07219-0.01166-0.13827-0.03498-0.19824-0.02332-0.06108-0.05664-0.11328-0.09995-0.15659-0.04331-0.04442-0.09662-0.07885-0.15992-0.10328-0.06219-0.02443-0.13327-0.03665-0.21323-0.03665-0.04998 0.000001-0.09607 0.0044-0.13827 0.01333-0.0422 0.0089-0.08163 0.0211-0.11828 0.03665-0.03554 0.01555-0.0683 0.03387-0.09829 0.05497-0.02888 0.01999-0.05608 0.04109-0.08163 0.0633h-0.29319l0.0783-1.2627h1.3344v0.25488h-1.0612l-0.04498 0.74465c0.05331-0.04109 0.11994-0.07607 0.1999-0.10495 0.07996-0.02998 0.17492-0.04498 0.28486-0.04498 0.11661 0.000002 0.22156 0.01777 0.31485 0.05331s0.1727 0.08607 0.23822 0.1516c0.06552 0.06442 0.11605 0.1416 0.1516 0.23156 0.03554 0.08996 0.05331 0.1888 0.05331 0.29653"/>
  </g>
  <g id="text4505" style="opacity:.5;fill:#fff" transform="translate(0,4)">
   <path id="path4527" d="m21.966 42.329c-0.000001 0.05757-0.003 0.11514-0.009 0.17271-0.0055 0.05702-0.01563 0.11158-0.03043 0.16366-0.01426 0.05209-0.03399 0.10089-0.05922 0.14639-0.02522 0.04496-0.0573 0.08389-0.09623 0.11678-0.03893 0.0329-0.08553 0.05894-0.13981 0.07813-0.05428 0.01864-0.11788 0.02796-0.1908 0.02796-0.01042 0-0.02193-0.000275-0.03454-0.000823s-0.02522-0.0016-0.03783-0.0033c-0.01261-0.0011-0.02495-0.0025-0.03701-0.0041s-0.02276-0.0038-0.03207-0.0066v-0.1283c0.01919 0.0071 0.04085 0.01234 0.06497 0.01563 0.02412 0.0033 0.04797 0.0049 0.07155 0.0049 0.07402 0 0.13488-0.01288 0.18258-0.03865s0.08553-0.06059 0.1135-0.10445c0.02796-0.04441 0.0477-0.09595 0.05922-0.15462 0.01206-0.05867 0.01946-0.12062 0.02221-0.18587h-0.01069c-0.01097 0.01974-0.02412 0.03811-0.03948 0.0551-0.01535 0.017-0.03345 0.0318-0.05428 0.04441-0.02084 0.01261-0.04441 0.02248-0.07073 0.02961-0.02632 0.0071-0.05565 0.01069-0.088 0.01069-0.05209 0-0.09924-0.008-0.14146-0.02385-0.04222-0.01645-0.07813-0.0403-0.10774-0.07155s-0.05264-0.06936-0.06909-0.11432c-0.0159-0.04551-0.02385-0.09732-0.02385-0.15544 0-0.06251 0.0085-0.1187 0.0255-0.1686 0.01755-0.05044 0.04194-0.09293 0.0732-0.12748 0.0318-0.03509 0.07018-0.06196 0.11514-0.0806 0.04551-0.01864 0.09623-0.02796 0.15215-0.02796 0.05538 0.000001 0.10692 0.01069 0.15462 0.03207s0.0891 0.05401 0.12419 0.09787 0.06278 0.09924 0.08307 0.16613c0.02029 0.06634 0.03043 0.14448 0.03043 0.23439m-0.39-0.404c-0.0329 0.000001-0.06305 0.0055-0.09047 0.01645-0.02687 0.01097-0.05017 0.02796-0.06991 0.05099s-0.03509 0.05209-0.04606 0.08718c-0.01042 0.03454-0.01563 0.07567-0.01563 0.12337 0 0.03838 0.0044 0.07292 0.01316 0.10363 0.0093 0.03016 0.02303 0.05593 0.04112 0.07731s0.04057 0.03783 0.06744 0.04935c0.02741 0.01152 0.05922 0.01727 0.0954 0.01727 0.03728 0 0.071-0.0063 0.10116-0.01892 0.03016-0.01316 0.05593-0.02988 0.07731-0.05017 0.02138-0.02083 0.03783-0.04441 0.04935-0.07073 0.01206-0.02632 0.01809-0.05264 0.01809-0.07895 0-0.03674-0.0052-0.0732-0.01563-0.10938-0.0099-0.03674-0.02495-0.06963-0.04523-0.09869-0.01974-0.02961-0.04469-0.05346-0.07484-0.07155-0.03016-0.01809-0.06525-0.02714-0.10527-0.02714"/>
   <path id="path4529" d="m22.513 41.797c0.04606 0.000001 0.08937 0.006 0.12994 0.01809 0.04112 0.01206 0.07703 0.03016 0.10774 0.05428 0.03125 0.02413 0.05592 0.05428 0.07402 0.09047 0.01809 0.03619 0.02714 0.07841 0.02714 0.12666-0.000001 0.03674-0.0055 0.06991-0.01645 0.09951-0.01097 0.02961-0.02604 0.05647-0.04523 0.0806-0.01919 0.02358-0.04194 0.04496-0.06826 0.06415-0.02632 0.01864-0.05483 0.03564-0.08553 0.05099 0.0318 0.017 0.06278 0.03591 0.09294 0.05675 0.0307 0.02084 0.05784 0.04441 0.08142 0.07073 0.02412 0.02577 0.04331 0.05483 0.05757 0.08718 0.0148 0.03235 0.0222 0.06854 0.02221 0.10856-0.000001 0.05044-0.0093 0.09622-0.02796 0.13735-0.01809 0.04057-0.04386 0.07512-0.07731 0.10363-0.0329 0.02851-0.07265 0.05044-0.11925 0.06579-0.04606 0.01535-0.09705 0.02303-0.15297 0.02303-0.06031 0-0.11404-0.0074-0.1612-0.02221-0.04661-0.0148-0.08608-0.03591-0.11843-0.06333-0.0318-0.02796-0.0562-0.06196-0.0732-0.10198-0.01645-0.04002-0.02467-0.08526-0.02467-0.1357 0-0.04112 0.006-0.07813 0.01809-0.11103 0.01261-0.0329 0.02933-0.06251 0.05017-0.08882 0.02083-0.02632 0.04551-0.04962 0.07402-0.06991s0.05867-0.03811 0.09047-0.05346c-0.02687-0.017-0.05209-0.03536-0.07566-0.0551-0.02358-0.02029-0.04414-0.04277-0.06168-0.06744-0.017-0.02467-0.03071-0.05181-0.04112-0.08142-0.0099-0.03016-0.0148-0.06333-0.0148-0.09952 0-0.0477 0.009-0.08937 0.02714-0.12501 0.01864-0.03619 0.04359-0.06634 0.07484-0.09047 0.03125-0.02412 0.06716-0.04222 0.10774-0.05428 0.04112-0.01206 0.08389-0.01809 0.1283-0.01809m-0.23028 0.91619c0 0.02906 0.0044 0.05593 0.01316 0.0806 0.0088 0.02412 0.02248 0.04496 0.04112 0.06251 0.01864 0.017 0.04222 0.03043 0.07073 0.0403 0.02851 0.0093 0.06251 0.01398 0.10198 0.01398 0.03838 0 0.0721-0.0047 0.10116-0.01398 0.02961-0.0099 0.05428-0.02358 0.07402-0.04112 0.01974-0.01809 0.03454-0.03975 0.04441-0.06497 0.0099-0.02522 0.0148-0.05318 0.0148-0.08389 0-0.02851-0.0055-0.05428-0.01645-0.07731-0.01042-0.02303-0.02577-0.04441-0.04606-0.06415-0.01974-0.01974-0.04359-0.03838-0.07155-0.05593-0.02796-0.01754-0.05921-0.03482-0.09376-0.05181l-0.02467-0.01151c-0.06908 0.0329-0.12117 0.07073-0.15626 0.1135-0.03509 0.04222-0.05264 0.09348-0.05264 0.1538m0.229-0.79c-0.05812 0.000001-0.10445 0.01453-0.13899 0.04359-0.03399 0.02906-0.05099 0.07128-0.05099 0.12666-0.000001 0.03125 0.0047 0.05812 0.01398 0.0806 0.0099 0.02248 0.0233 0.04249 0.0403 0.06004s0.03728 0.03345 0.06086 0.0477c0.02412 0.01371 0.05017 0.02714 0.07813 0.0403 0.02632-0.01206 0.05099-0.02522 0.07402-0.03948 0.02358-0.01425 0.04386-0.03043 0.06086-0.04852 0.01754-0.01809 0.03125-0.03865 0.04112-0.06168 0.0099-0.02303 0.0148-0.04935 0.0148-0.07895-0.000001-0.05538-0.01727-0.09759-0.05181-0.12666-0.03454-0.02906-0.08197-0.04359-0.14228-0.04359"/>
   <path id="path4531" d="m23.069 42.504c0-0.05757 0.0027-0.11487 0.0082-0.17189 0.006-0.05702 0.01617-0.11158 0.03043-0.16366 0.0148-0.05264 0.03482-0.10143 0.06004-0.14639s0.0573-0.08389 0.09623-0.11679c0.03893-0.03344 0.08553-0.05949 0.13981-0.07813 0.05428-0.01919 0.11788-0.02878 0.1908-0.02878 0.01042 0.000001 0.02193 0.000275 0.03454 0.000822 0.01261 0.000549 0.02522 0.0016 0.03783 0.0033 0.01316 0.0011 0.02549 0.0027 0.03701 0.0049 0.01206 0.0016 0.02275 0.0038 0.03208 0.0066v0.12748c-0.01919-0.0066-0.04085-0.01151-0.06497-0.0148-0.02413-0.0033-0.04798-0.0049-0.07155-0.0049-0.04935 0.000001-0.09294 0.006-0.13077 0.01809-0.03728 0.01152-0.06963 0.02796-0.09705 0.04935s-0.05044 0.04688-0.06908 0.07649c-0.01809 0.02961-0.0329 0.06251-0.04441 0.09869-0.01151 0.03564-0.02001 0.07375-0.02549 0.11432-0.0055 0.04057-0.009 0.08279-0.01069 0.12666h0.0099c0.01097-0.01974 0.02413-0.03811 0.03948-0.0551 0.0159-0.01754 0.03427-0.03235 0.0551-0.04441 0.02084-0.01261 0.04414-0.02248 0.06991-0.02961 0.02632-0.0071 0.05565-0.01069 0.088-0.01069 0.05209 0 0.09924 0.0082 0.14146 0.02467 0.04222 0.0159 0.07813 0.03948 0.10774 0.07073s0.05236 0.06963 0.06826 0.11514c0.01645 0.04496 0.02467 0.0965 0.02467 0.15462-0.000001 0.06251-0.0085 0.1187-0.02549 0.1686-0.017 0.04989-0.0414 0.09239-0.0732 0.12748-0.0318 0.03454-0.07018 0.06113-0.11514 0.07978-0.04496 0.01864-0.0954 0.02796-0.15133 0.02796-0.05483 0-0.10637-0.01069-0.15462-0.03207-0.0477-0.02138-0.0891-0.05401-0.12419-0.09787s-0.06278-0.09897-0.08307-0.16531-0.03043-0.14475-0.03043-0.23522m0.39066 0.40464c0.0329 0 0.06278-0.0055 0.08964-0.01645 0.02741-0.01151 0.05099-0.02851 0.07073-0.05099 0.01974-0.02303 0.03482-0.05181 0.04523-0.08636 0.01096-0.03509 0.01645-0.07649 0.01645-0.12419 0-0.03838-0.0047-0.07265-0.01398-0.1028-0.0088-0.0307-0.02221-0.05675-0.0403-0.07813s-0.04085-0.03783-0.06826-0.04935c-0.02687-0.01151-0.05839-0.01727-0.09458-0.01727-0.03674 0.000001-0.07046 0.0066-0.10116 0.01974-0.03016 0.01261-0.05593 0.02933-0.07731 0.05017-0.02138 0.02029-0.03811 0.04359-0.05017 0.06991-0.01151 0.02632-0.01727 0.05264-0.01727 0.07895 0 0.03674 0.0049 0.07347 0.0148 0.11021 0.01042 0.03619 0.0255 0.06881 0.04523 0.09787 0.02029 0.02906 0.04551 0.05291 0.07566 0.07155 0.03016 0.01809 0.06525 0.02714 0.10527 0.02714"/>
   <path id="path4533" d="m24.135 43.018 0.46303-1.0659h-0.62012v-0.13652h0.77309v0.11925l-0.45645 1.0831h-0.15955"/>
   <path id="path4535" d="m25.726 42.749h-0.17518v0.26976h-0.14475v-0.26976h-0.55514v-0.13077l0.54527-0.80845h0.15462v0.8027h0.17518v0.13652m-0.31993-0.13652v-0.29279c-0.000001-0.0307 0.000273-0.06278 0.000822-0.09622 0.0011-0.03399 0.0022-0.06689 0.0033-0.09869 0.0011-0.03235 0.0022-0.0625 0.0033-0.09047 0.0016-0.02796 0.0027-0.05126 0.0033-0.06991h-0.0074c-0.0038 0.01097-0.0088 0.0233-0.0148 0.03701-0.0055 0.01316-0.01179 0.02659-0.01892 0.0403-0.0066 0.01316-0.01343 0.02604-0.02056 0.03865-0.0071 0.01261-0.01371 0.0233-0.01974 0.03207l-0.33802 0.50004h0.40875"/>
   <path id="path4537" d="m25.852 42.504c0-0.05757 0.0027-0.11487 0.0082-0.17189 0.006-0.05702 0.01618-0.11158 0.03043-0.16366 0.0148-0.05264 0.03482-0.10143 0.06004-0.14639s0.0573-0.08389 0.09623-0.11679c0.03893-0.03344 0.08553-0.05949 0.13981-0.07813 0.05428-0.01919 0.11788-0.02878 0.1908-0.02878 0.01042 0.000001 0.02193 0.000275 0.03454 0.000822 0.01261 0.000549 0.02522 0.0016 0.03783 0.0033 0.01316 0.0011 0.02549 0.0027 0.03701 0.0049 0.01206 0.0016 0.02275 0.0038 0.03207 0.0066v0.12748c-0.01919-0.0066-0.04085-0.01151-0.06497-0.0148-0.02413-0.0033-0.04798-0.0049-0.07155-0.0049-0.04935 0.000001-0.09294 0.006-0.13077 0.01809-0.03728 0.01152-0.06963 0.02796-0.09705 0.04935s-0.05044 0.04688-0.06908 0.07649c-0.01809 0.02961-0.0329 0.06251-0.04441 0.09869-0.01151 0.03564-0.02001 0.07375-0.02549 0.11432-0.0055 0.04057-0.009 0.08279-0.01069 0.12666h0.0099c0.01097-0.01974 0.02413-0.03811 0.03948-0.0551 0.0159-0.01754 0.03427-0.03235 0.0551-0.04441 0.02083-0.01261 0.04414-0.02248 0.06991-0.02961 0.02632-0.0071 0.05565-0.01069 0.088-0.01069 0.05209 0 0.09924 0.0082 0.14146 0.02467 0.04222 0.0159 0.07813 0.03948 0.10774 0.07073s0.05236 0.06963 0.06826 0.11514c0.01645 0.04496 0.02467 0.0965 0.02467 0.15462-0.000001 0.06251-0.0085 0.1187-0.0255 0.1686-0.017 0.04989-0.0414 0.09239-0.0732 0.12748-0.0318 0.03454-0.07018 0.06113-0.11514 0.07978-0.04496 0.01864-0.0954 0.02796-0.15133 0.02796-0.05483 0-0.10637-0.01069-0.15462-0.03207-0.0477-0.02138-0.0891-0.05401-0.12419-0.09787s-0.06278-0.09897-0.08307-0.16531-0.03043-0.14475-0.03043-0.23522m0.39066 0.40464c0.0329 0 0.06278-0.0055 0.08965-0.01645 0.02741-0.01151 0.05099-0.02851 0.07073-0.05099 0.01974-0.02303 0.03481-0.05181 0.04523-0.08636 0.01097-0.03509 0.01645-0.07649 0.01645-0.12419-0.000001-0.03838-0.0047-0.07265-0.01398-0.1028-0.0088-0.0307-0.02221-0.05675-0.0403-0.07813s-0.04085-0.03783-0.06826-0.04935c-0.02687-0.01151-0.05839-0.01727-0.09458-0.01727-0.03674 0.000001-0.07046 0.0066-0.10116 0.01974-0.03016 0.01261-0.05593 0.02933-0.07731 0.05017-0.02138 0.02029-0.03811 0.04359-0.05017 0.06991-0.01151 0.02632-0.01727 0.05264-0.01727 0.07895 0 0.03674 0.0049 0.07347 0.0148 0.11021 0.01042 0.03619 0.02549 0.06881 0.04523 0.09787 0.02029 0.02906 0.04551 0.05291 0.07566 0.07155 0.03016 0.01809 0.06525 0.02714 0.10527 0.02714"/>
   <path id="path4539" d="m27.478 42.097c-0.000001 0.04003-0.0063 0.07649-0.01892 0.10938-0.01261 0.0329-0.03043 0.06141-0.05346 0.08553-0.02248 0.02413-0.04962 0.04414-0.08142 0.06004-0.0318 0.01535-0.06717 0.02632-0.10609 0.0329v0.0049c0.09705 0.01206 0.17079 0.04304 0.22124 0.09294 0.05044 0.04935 0.07566 0.11377 0.07566 0.19327-0.000001 0.05264-0.009 0.10088-0.02714 0.14475-0.01755 0.04386-0.04441 0.0817-0.0806 0.1135s-0.08197 0.05647-0.13735 0.07402-0.1209 0.02632-0.19656 0.02632c-0.05976 0-0.11624-0.0047-0.16942-0.01398-0.05264-0.0093-0.10226-0.02632-0.14886-0.05099v-0.13981c0.0477 0.02522 0.09924 0.04469 0.15462 0.05839 0.05593 0.01371 0.10938 0.02056 0.16038 0.02056 0.05044 0 0.09403-0.0055 0.13077-0.01645 0.03674-0.01096 0.06689-0.02659 0.09047-0.04688 0.02412-0.02029 0.04167-0.04523 0.05264-0.07484 0.01151-0.02961 0.01727-0.06278 0.01727-0.09952-0.000001-0.03728-0.0074-0.06908-0.02221-0.0954-0.01426-0.02687-0.03482-0.0488-0.06168-0.0658-0.02687-0.01754-0.05976-0.03043-0.09869-0.03865-0.03838-0.0082-0.08197-0.01234-0.13077-0.01234h-0.10938v-0.12419h0.10938c0.04441 0.000001 0.08389-0.0055 0.11843-0.01645 0.03454-0.01097 0.06333-0.02659 0.08635-0.04688 0.02358-0.02029 0.0414-0.04441 0.05346-0.07238 0.01206-0.02796 0.01809-0.05867 0.01809-0.09211 0-0.02851-0.0049-0.05401-0.0148-0.07649s-0.02385-0.0414-0.04194-0.05675c-0.01809-0.0159-0.03975-0.02796-0.06497-0.03619-0.02522-0.0082-0.05318-0.01234-0.08389-0.01234-0.05867 0.000001-0.11048 0.0093-0.15544 0.02796-0.04441 0.01809-0.0869 0.04195-0.12748 0.07155l-0.076-0.103c0.02084-0.017 0.04386-0.0329 0.06908-0.0477 0.02577-0.0148 0.05373-0.02769 0.08389-0.03865 0.03016-0.01151 0.06223-0.02056 0.09623-0.02714 0.03454-0.0066 0.071-0.0099 0.10938-0.0099 0.05921 0.000001 0.11103 0.0074 0.15544 0.0222 0.04496 0.01481 0.08252 0.03564 0.11267 0.06251 0.03016 0.02632 0.05291 0.05785 0.06826 0.09458 0.01535 0.03619 0.02303 0.07594 0.02303 0.11925"/>
  </g>
  <path id="rect4557" style="color:#000000;fill:#fff" d="m50 75c-0.554 0-1 0.446-1 1v1c0-0.554 0.446-1 1-1h8c0.554 0 1 0.446 1 1v-1c0-0.554-0.446-1-1-1h-8z"/>
  <g id="g4572">
   <rect id="rect3914" style="color:#000000;fill:#ccc" transform="rotate(90)" height="6" width="2" y="-62" x="42"/>
   <rect id="rect4568" style="color:#000000;fill:#767676" transform="rotate(90)" height="2" width="2" y="-60" x="42"/>
   <rect id="rect4570" style="opacity:.6;color:#000000;fill:#fff" transform="rotate(90)" height="6" width="1" y="-62" x="42"/>
  </g>
  <g id="g4577" transform="translate(0,4)">
   <rect id="rect4579" style="color:#000000;fill:#ccc" transform="rotate(90)" height="6" width="2" y="-62" x="42"/>
   <rect id="rect4581" style="color:#000000;fill:#767676" transform="rotate(90)" height="2" width="2" y="-60" x="42"/>
   <rect id="rect4583" style="opacity:.6;color:#000000;fill:#fff" transform="rotate(90)" height="6" width="1" y="-62" x="42"/>
  </g>
  <rect id="rect4585" style="color:#000000;fill:#fff" height="1" width="2" y="50" x="56"/>
  <rect id="rect4589" style="color:#000000;fill:#b28160" height="4" width="2" y="51" x="56"/>
  <rect id="rect4591" style="opacity:.29004;color:#000000" height="4" width="2" y="65" x="17"/>
  <rect id="rect4593" style="opacity:.63203;color:#000000;fill:#fff" height="1" width="4" y="64" x="16"/>
  <rect id="rect4595" style="opacity:.29004;color:#000000" height="4" width="2" y="65" x="23"/>
  <rect id="rect4597" style="opacity:.63203;color:#000000;fill:#fff" height="1" width="4" y="64" x="22"/>
  <rect id="rect4599" style="opacity:.29004;color:#000000" height="4" width="2" y="65" x="29"/>
  <rect id="rect4601" style="opacity:.63203;color:#000000;fill:#fff" height="1" width="4" y="64" x="28"/>
  <rect id="rect4603" style="opacity:.29004;color:#000000" height="4" width="2" y="65" x="35"/>
  <rect id="rect4605" style="opacity:.63203;color:#000000;fill:#fff" height="1" width="4" y="64" x="34"/>
  <rect id="rect4619" style="color:#000000;fill:url(#linearGradient4621)" height="6" width="4" y="64" x="50"/>
  <path id="rect4641" style="opacity:.6;color:#000000;fill:#fff" d="m32 74v1h4v-1h-4z"/>
  <path id="rect4643" style="opacity:.6;color:#000000;fill:#fff" d="m38 74v1h4v-1h-4z"/>
  <path id="path3950" style="opacity:.05" d="m68 116c-11.06 0-20 8.9399-20 20s8.9399 20 20 20 20-8.9399 20-20-8.9399-20-20-20z" transform="translate(0,-61)"/>
  <path id="path3946" style="opacity:.15" d="m68 117c-10.516 0-19 8.4845-19 19s8.4845 19 19 19 19-8.4845 19-19-8.4845-19-19-19z" transform="translate(0,-61)"/>
  <rect id="rect3859" style="opacity:0.31" transform="translate(0,-61)" clip-path="url(#clipPath3871)" rx="18" ry="18" height="36" width="36" y="118" x="50"/>
  <path id="path3836" style="fill:url(#linearGradient3844)" d="m90.714 72.786a19.643 19.643 0 1 1 -39.286 0 19.643 19.643 0 1 1 39.286 0z" transform="matrix(0 -.91636 .91636 0 1.3018 139.13)"/>
  <path id="path4428" style="opacity:.05" d="m68.531 60c-2.5276-0.06194-4.9512 1.8207-5.4042 4.329-0.36067 1.5836 0.05631 3.2872 1.0292 4.5773-1.1002-0.02371-2.072 0.9645-2.0312 2.0644-0.03254 0.87014-0.0336 1.8815 0.75 2.4356 0.44598 0.51132 1.5084 0.22298 1.2188 1.1913-0.01465 3.113 0.0296 6.2286-0.02266 9.3399-0.55972 0.07085-1.2446 0.25202-1.6023 0.78136-0.61974 0.69005-0.4738 1.7028-0.4375 2.5625 0.12435 1.0582 1.1824 1.8231 2.2263 1.7188h9.805c1.052-0.05172 1.9431-1.008 1.9062-2.0644 0.02719-0.88862 0.05492-1.9291-0.75-2.4981-0.34483-0.57643-1.5296-0.11772-1.2812-1.0038v-12.621c-0.05124-0.75586-0.54339-1.4656-1.25-1.75 1.8093-2.0155 1.7096-5.3373-0.15599-7.2762-0.473-0.462 0.072 0.037-0.531-0.382-0.951-0.843-2.182-1.412-3.469-1.406z"/>
  <g id="g4106">
   <path id="path3846" style="opacity:.2;fill:url(#linearGradient3857-6)" d="m68 56c-9.9411 0-18 8.0589-18 18 0 3.6617 1.0907 7.064 2.9688 9.9062-1.247-2.364-1.969-5.047-1.969-7.906 0-9.3888 7.6112-17 17-17s17 7.6112 17 17c0 2.8588-0.72212 5.5418-1.9688 7.9062 1.878-2.842 2.969-6.244 2.969-9.906 0-9.941-8.059-18-18-18z"/>
   <path id="path4097" style="opacity:.3;fill:#fff" d="m68 56c-9.9411 0-18 8.0589-18 18 0 0.16859 0.02664 0.33252 0.03125 0.5 0.267-9.708 8.196-17.5 17.969-17.5 9.7305 0 17.637 7.7253 17.969 17.375v-1c-0.332-9.65-8.238-17.375-17.969-17.375z"/>
  </g>
  <path id="path4424" style="opacity:.15" d="m68.531 60.938c-1.2524 0.000039-2.4221 0.45918-3.2812 1.3125-0.86813 0.8623-1.3125 2.0441-1.3125 3.3125-0.000002 1.2223 0.39318 2.389 1.2188 3.25a1.0671 1.0671 0 0 0 0.0625 0.03125c0.56999 0.53921 1.2689 0.8158 2.0312 1h-3.125a1.0671 1.0671 0 0 0 -1.0625 1.0625v0.96875a1.0671 1.0671 0 0 0 1.0625 1.0625c0.41397 0.000006 0.50174 0.05689 0.625 0.21875s0.28125 0.58671 0.28125 1.3125v9.0938c-0.000001 0.65072-0.16321 0.95892-0.28125 1.0938-0.11804 0.13484-0.26002 0.25-0.75 0.25a1.0671 1.0671 0 0 0 -1.0625 1.0625v1.0312a1.0671 1.0671 0 0 0 1.064 1.061h9.9688a1.0671 1.0671 0 0 0 1.062 -1.062v-1.0312a1.0671 1.0671 0 0 0 -1.0625 -1.0625c-0.4716 0-0.60861-0.08844-0.71875-0.21875s-0.25-0.46675-0.25-1.125v-12.656a1.0671 1.0671 0 0 0 -1.0625 -1.0625h-2.1875c0.74792-0.18878 1.4544-0.48928 2-1.0312 0.85635-0.85054 1.3125-2.006 1.3125-3.25-0.000011-1.229-0.43348-2.3904-1.2812-3.25-0.0059-0.0064-0.02532 0.0064-0.03125 0-0.82573-0.89065-1.9755-1.375-3.2188-1.375z"/>
  <path id="path4417" style="opacity:.3" d="m68.531 62c-1.0159 0.000032-1.8646 0.33787-2.5312 1-0.66667 0.66219-1 1.522-1 2.5625-0.000002 1.009 0.30258 1.8379 0.9375 2.5 0.66666 0.63066 1.5461 0.93752 2.5938 0.9375 1.0159 0.000025 1.8338-0.30684 2.4688-0.9375 0.66666-0.66214 0.99999-1.491 1-2.5-0.000009-1.009-0.33334-1.8691-1-2.5312-0.635-0.693-1.453-1.031-2.469-1.031zm-4.4062 8.9062v0.96875c1.3019 0.000018 1.9687 0.8674 1.9688 2.5938v9.0938c-0.000002 1.6132-0.70699 2.4063-2.0938 2.4062v1.031h9.9688v-1.0312c-1.3585 0.000001-2.0313-0.79308-2.0312-2.4062v-12.656h-7.8125z"/>
  <path id="path4415" style="fill:#fff" d="m68.524 68c-1.0476 0.000025-1.9048-0.31529-2.5714-0.94595-0.636-0.662-0.953-1.498-0.953-2.507-0.000002-1.0405 0.33333-1.8919 1-2.5541 0.66666-0.66213 1.5079-0.99321 2.5238-0.99324 1.0159 0.000032 1.8413 0.34688 2.4762 1.0405 0.66666 0.66219 0.99999 1.4978 1 2.5068-0.000009 1.009-0.33334 1.8446-1 2.5068-0.635 0.631-1.46 0.946-2.476 0.946"/>
  <path id="path4410" style="fill:#fff" d="m73.976 86h-9.976v-1.019c1.3868 0.000001 2.0801-0.80658 2.0801-2.4198v-9.0988c-0.000002-1.7264-0.65093-2.5895-1.9528-2.5896v-0.97639h7.8111v12.665c-0.000008 1.6132 0.67922 2.4198 2.0377 2.4198v1.0188"/>
 </g>
</svg>
