<?xml version="1.0" encoding="UTF-8" standalone="no"?>
<!-- Created with Inkscape (http://www.inkscape.org/) -->
<svg id="svg2408" xmlns:rdf="http://www.w3.org/1999/02/22-rdf-syntax-ns#" xmlns="http://www.w3.org/2000/svg" height="96" width="96" version="1.0" xmlns:cc="http://creativecommons.org/ns#" xmlns:xlink="http://www.w3.org/1999/xlink" xmlns:dc="http://purl.org/dc/elements/1.1/">
 <defs id="defs2410">
  <linearGradient id="ButtonShadow" y2="7.0165" gradientUnits="userSpaceOnUse" x2="45.448" gradientTransform="scale(1.0059 .99417)" y1="92.54" x1="45.448">
   <stop id="stop3750" offset="0"/>
   <stop id="stop3752" style="stop-opacity:.58824" offset="1"/>
  </linearGradient>
  <linearGradient id="linearGradient3737">
   <stop id="stop3739" style="stop-color:#fff" offset="0"/>
   <stop id="stop3741" style="stop-color:#fff;stop-opacity:0" offset="1"/>
  </linearGradient>
  <filter id="filter3174" color-interpolation-filters="sRGB">
   <feGaussianBlur id="feGaussianBlur3176" stdDeviation="1.71"/>
  </filter>
  <linearGradient id="linearGradient3188" y2="63.893" xlink:href="#linearGradient3737" gradientUnits="userSpaceOnUse" x2="36.357" y1="6" x1="36.357"/>
  <filter id="filter3794" height="1.384" width="1.384" color-interpolation-filters="sRGB" y="-.192" x="-.192">
   <feGaussianBlur id="feGaussianBlur3796" stdDeviation="5.28"/>
  </filter>
  <radialGradient id="radialGradient3619" xlink:href="#linearGradient3737" gradientUnits="userSpaceOnUse" cy="90.172" cx="48" gradientTransform="matrix(1.1573 0 0 .99591 -7.551 .19713)" r="42"/>
  <clipPath id="clipPath3613">
   <rect id="rect3615" style="fill:#fff" rx="6" ry="6" height="84" width="84" y="6" x="6"/>
  </clipPath>
  <linearGradient id="linearGradient3617" y2="5.9877" gradientUnits="userSpaceOnUse" x2="48" y1="90" x1="48">
   <stop id="stop3702" style="stop-color:#146d96;stop-opacity:.97255" offset="0"/>
   <stop id="stop3704" style="stop-color:#3cade2;stop-opacity:.99608" offset="1"/>
  </linearGradient>
  <linearGradient id="ButtonShadow-0" y2="7.0165" gradientUnits="userSpaceOnUse" x2="45.448" gradientTransform="matrix(1.0059 0 0 .99417 100 0)" y1="92.54" x1="45.448">
   <stop id="stop3750-8" offset="0"/>
   <stop id="stop3752-5" style="stop-opacity:.58824" offset="1"/>
  </linearGradient>
  <linearGradient id="linearGradient3780" y2="90.239" xlink:href="#ButtonShadow-0" gradientUnits="userSpaceOnUse" x2="32.251" gradientTransform="matrix(1.0238 0 0 1.0119 -1.1429 -98.071)" y1="6.1317" x1="32.251"/>
  <linearGradient id="linearGradient3721" y2="90.239" xlink:href="#ButtonShadow-0" gradientUnits="userSpaceOnUse" x2="32.251" gradientTransform="translate(0,-97)" y1="6.1317" x1="32.251"/>
  <linearGradient id="linearGradient3672" y2="22.993" gradientUnits="userSpaceOnUse" x2="46.796" y1="71.448" x1="46.796">
   <stop id="stop3668" style="stop-color:#115575" offset="0"/>
   <stop id="stop3670" style="stop-color:#197ba9" offset="1"/>
  </linearGradient>
 </defs>
 <metadata id="metadata2413">
  <rdf:RDF>
   <cc:Work rdf:about="">
    <dc:format>image/svg+xml</dc:format>
    <dc:type rdf:resource="http://purl.org/dc/dcmitype/StillImage"/>
    <dc:title/>
   </cc:Work>
  </rdf:RDF>
 </metadata>
 <g id="layer2" style="display:none">
  <rect id="rect3745" style="opacity:.9;filter:url(#filter3174);fill:url(#ButtonShadow)" rx="6" ry="6" height="85" width="86" y="7" x="5"/>
 </g>
 <g id="layer3">
  <path id="path3786" style="opacity:0.08;fill:url(#linearGradient3780)" d="m12-95.031c-5.5111 0-10.031 4.5202-10.031 10.031v71c0 5.5111 4.5202 10.031 10.031 10.031h72c5.5111 0 10.031-4.5202 10.031-10.031v-71c0-5.5111-4.5202-10.031-10.031-10.031h-72z" transform="scale(1,-1)"/>
  <path id="path3778" style="opacity:.1;fill:url(#linearGradient3780)" d="m12-94.031c-4.9716 0-9.0312 4.0596-9.0312 9.0312v71c0 4.9716 4.0596 9.0312 9.0312 9.0312h72c4.9716 0 9.0312-4.0596 9.0312-9.0312v-71c0-4.9716-4.0596-9.0312-9.0312-9.0312h-72z" transform="scale(1,-1)"/>
  <path id="path3770" style="opacity:.2;fill:url(#linearGradient3780)" d="m12-93c-4.4091 0-8 3.5909-8 8v71c0 4.4091 3.5909 8 8 8h72c4.4091 0 8-3.5909 8-8v-71c0-4.4091-3.5909-8-8-8h-72z" transform="scale(1,-1)"/>
  <rect id="rect3723" style="opacity:.3;fill:url(#linearGradient3780)" transform="scale(1,-1)" rx="7" ry="7" height="85" width="86" y="-92" x="5"/>
  <rect id="rect3716" style="opacity:.45;fill:url(#linearGradient3721)" transform="scale(1,-1)" rx="6" ry="6" height="84" width="84" y="-91" x="6"/>
 </g>
 <g id="layer1">
  <rect id="rect2419" style="fill:url(#linearGradient3617)" rx="6" ry="6" height="84" width="84" y="6" x="6"/>
  <path id="rect3728" style="opacity:.4;fill:url(#linearGradient3188)" d="m12 6c-3.324 0-6 2.676-6 6v2 68 2c0 0.33472 0.04135 0.6507 0.09375 0.96875 0.0487 0.2956 0.09704 0.59692 0.1875 0.875 0.00988 0.03038 0.020892 0.0636 0.03125 0.09375 0.098865 0.28777 0.23488 0.54745 0.375 0.8125 0.14459 0.27351 0.31562 0.53562 0.5 0.78125 0.18438 0.24564 0.37378 0.47347 0.59375 0.6875 0.43995 0.42806 0.94291 0.81453 1.5 1.0938 0.27854 0.13961 0.57347 0.24695 0.875 0.34375-0.2562-0.10022-0.48671-0.23627-0.71875-0.375-0.00741-0.0044-0.023866 0.0045-0.03125 0-0.031933-0.0193-0.062293-0.04251-0.09375-0.0625-0.1204-0.0767-0.23102-0.16351-0.34375-0.25-0.10617-0.0808-0.21328-0.16111-0.3125-0.25-0.1778-0.162-0.3473-0.346-0.4999-0.531-0.1075-0.131-0.2183-0.266-0.3124-0.407-0.0251-0.038-0.0385-0.086-0.0626-0.125-0.0647-0.103-0.1302-0.204-0.1874-0.312-0.1011-0.195-0.2057-0.416-0.2813-0.625-0.008-0.022-0.0236-0.041-0.0313-0.063-0.0318-0.092-0.0358-0.187-0.0624-0.281-0.0304-0.107-0.0704-0.203-0.0938-0.313-0.0729-0.341-0.125-0.698-0.125-1.062v-2-68-2c0-2.782 2.2182-5 5-5h2 68 2c2.7818 0 5 2.2182 5 5v2 68 2c0 0.3643-0.05212 0.72099-0.125 1.0625-0.04415 0.20689-0.08838 0.39766-0.15625 0.59375-0.0077 0.02195-0.0233 0.04069-0.03125 0.0625-0.06274 0.17374-0.13838 0.36745-0.21875 0.53125-0.04158 0.0828-0.07904 0.16995-0.125 0.25-0.0546 0.09721-0.12677 0.18835-0.1875 0.28125-0.09411 0.14096-0.20492 0.276-0.3125 0.40625-0.14317 0.17445-0.30314 0.347-0.46875 0.5-0.01117 0.0102-0.01998 0.02115-0.03125 0.03125-0.13839 0.12556-0.28509 0.23444-0.4375 0.34375-0.10257 0.07315-0.20432 0.15336-0.3125 0.21875-0.0074 0.0045-0.02384-0.0044-0.03125 0-0.23204 0.13873-0.46255 0.27478-0.71875 0.375 0.30153-0.0968 0.59646-0.20414 0.875-0.34375 0.55709-0.27922 1.0601-0.66569 1.5-1.0938 0.21997-0.21403 0.40937-0.44186 0.59375-0.6875s0.35541-0.50774 0.5-0.78125c0.14012-0.26505 0.27614-0.52473 0.375-0.8125 0.01041-0.03078 0.02133-0.06274 0.03125-0.09375 0.09046-0.27808 0.1388-0.5794 0.1875-0.875 0.053-0.318 0.094-0.634 0.094-0.969v-2-68-2c0-3.324-2.676-6-6-6h-72z"/>
  <path id="path3615" style="opacity:.2;fill:url(#radialGradient3619)" d="m12 90c-3.324 0-6-2.676-6-6v-2-68-2c0-0.33472 0.04135-0.6507 0.09375-0.96875 0.0487-0.2956 0.09704-0.59692 0.1875-0.875 0.0099-0.03 0.0209-0.063 0.0313-0.094 0.0989-0.2873 0.2349-0.547 0.375-0.812 0.1446-0.2735 0.3156-0.5356 0.5-0.7812 0.1844-0.2457 0.3738-0.4735 0.5937-0.6876 0.44-0.428 0.943-0.8145 1.5-1.0937 0.2786-0.1396 0.5735-0.2469 0.8748-0.3437-0.256 0.1002-0.4865 0.2362-0.7185 0.375-0.00741 0.0044-0.023866-0.0045-0.03125 0-0.031933 0.0193-0.062293 0.04251-0.09375 0.0625-0.1204 0.0767-0.23102 0.16351-0.34375 0.25-0.10617 0.0808-0.21328 0.16111-0.3125 0.25-0.1779 0.1614-0.3474 0.3453-0.5 0.5312-0.1075 0.1303-0.2183 0.2653-0.3124 0.4063-0.0251 0.0383-0.0385 0.0858-0.0626 0.125-0.0647 0.103-0.1302 0.2045-0.1874 0.3124-0.1011 0.1948-0.2057 0.4158-0.2813 0.625-0.008 0.0219-0.0236 0.0406-0.0313 0.0626-0.0318 0.0919-0.0358 0.1868-0.0624 0.2812-0.0304 0.1066-0.0704 0.203-0.0938 0.3125-0.0729 0.3415-0.125 0.6985-0.125 1.0625v2 68 2c0 2.7818 2.2182 5 5 5h2 68 2c2.7818 0 5-2.2182 5-5v-2-68-2c0-0.364-0.052-0.721-0.125-1.0625-0.044-0.2069-0.088-0.3977-0.156-0.5937-0.008-0.022-0.024-0.0407-0.031-0.0626-0.063-0.1737-0.139-0.3674-0.219-0.5312-0.042-0.0828-0.079-0.17-0.125-0.25-0.055-0.0972-0.127-0.1884-0.188-0.2812-0.094-0.141-0.205-0.276-0.312-0.4063-0.143-0.1745-0.303-0.347-0.469-0.5-0.011-0.0102-0.02-0.0211-0.031-0.0313-0.139-0.1255-0.285-0.2344-0.438-0.3437-0.102-0.0731-0.204-0.1534-0.312-0.2187-0.0074-0.0045-0.02384 0.0044-0.03125 0-0.23204-0.13873-0.46255-0.27478-0.71875-0.375 0.30153 0.0968 0.59646 0.20414 0.875 0.34375 0.55709 0.27922 1.0601 0.66569 1.5 1.0938 0.21997 0.21403 0.40937 0.44186 0.59375 0.6875s0.35541 0.50774 0.5 0.78125c0.14012 0.26505 0.27614 0.52473 0.375 0.8125 0.01041 0.03078 0.02133 0.06274 0.03125 0.09375 0.09046 0.27808 0.1388 0.5794 0.1875 0.875 0.053 0.318 0.094 0.634 0.094 0.969v2 68 2c0 3.324-2.676 6-6 6h-72z"/>
  <path id="path3660" style="block-progression:tb;text-indent:0;color:#000000;text-transform:none;fill:url(#linearGradient3672)" d="m65.781 24c-19.318 1.441-29.489 12.984-34.219 23.812-3.632 8.317-4.193 14.897-4.343 18.188h-21.219v6h24a3.0003 3.0003 0 0 0 3 -3.0312s-0.08281-9.259 4.0625-18.75c3.717-8.509 10.464-16.944 24.188-19.531-8.051 20.962 2.125 39.781 2.125 39.781a3.0003 3.0003 0 0 0 2.625 1.531h24v-6h-22.062c-1.8-3.703-8.678-19.855 0.718-37.594a3.0003 3.0003 0 0 0 -2.875 -4.406z"/>
  <path id="path3696" style="opacity:.15;block-progression:tb;text-indent:0;color:#000000;text-transform:none;fill:#124964" d="m65.781 24c-19.318 1.441-29.489 12.984-34.219 23.812-3.632 8.317-4.193 14.897-4.343 18.188h-21.219v2h7v0.0625h14.219a2.062 2.062 0 0 0 2.0625 -1.9688c0.14486-3.1818 0.6524-9.4464 4.1562-17.469 4.5106-10.327 13.942-21.179 32.5-22.562 0.22484-0.01722-0.10013-0.01289 0.125 0s-0.09641-0.04277 0.125 0-0.08874-0.04064 0.125 0.03125-0.07725-0.03723 0.125 0.0625-0.09341-0.06329 0.09375 0.0625-0.07498-0.08711 0.09375 0.0625c0.16873 0.1496-0.05354-0.077 0.09375 0.09375s-0.06073-0.09511 0.0625 0.09375-0.03446-0.07859 0.0625 0.125-0.0065-0.0897 0.0625 0.125c0.06897 0.2147-0.0085-0.12822 0.03125 0.09375s-0.0098-0.10029 0 0.125 0.02029-0.09959 0 0.125 0.05003-0.09488 0 0.125 0.01638-0.08626-0.0625 0.125 0.07508-0.07386-0.03125 0.125c-9.8335 18.564-2.6763 35.504-0.75 39.469a2.062 2.062 0 0 0 1.845 1.157h15.062v-0.062h7v-2h-22.062c-1.8-3.703-8.678-19.855 0.718-37.594a3.0003 3.0003 0 0 0 -2.875 -4.406zm-4.625 4.625a2.062 2.062 0 0 0 -0.281 0.031c-14.405 2.716-21.805 11.861-25.687 20.75-4.347 9.951-4.25 19.594-4.25 19.594 0.0017 0.16673 0.01474-0.07234 0 0.09375s0.03105-0.07007 0 0.09375 0.01581-0.09746-0.03125 0.0625 0.03136-0.06079-0.03125 0.09375 0.0463-0.05386-0.03125 0.09375 0.02924-0.04548-0.0625 0.09375c-0.09174 0.13924 0.04253-0.067-0.0625 0.0625s0.05479-0.05601-0.0625 0.0625 0.06591-0.04386-0.0625 0.0625 0.07578-0.03068-0.0625 0.0625 0.05304-0.04783-0.09375 0.03125c-0.0367 0.01977-0.06178 0.0267-0.0625 0.03125 0.005 0.0055 0.01923 0.02322 0 0.03125-0.15388 0.06421 0.06571-0.01747-0.09375 0.03125s0.06974-0.03275-0.09375 0 0.07218 0.01479-0.09375 0.03125c-0.16592 0.01646 0.07299-0.000008-0.09375 0h-17v0.0625h-7v2h24a3.0003 3.0003 0 0 0 3 -3.0312s-0.08281-9.259 4.0625-18.75c3.717-8.509 10.464-16.944 24.188-19.531-8.051 20.962 2.125 39.781 2.125 39.781a3.0003 3.0003 0 0 0 2.625 1.531h24v-2h-7v-0.0625h-17c-0.22402 0.000668 0.09714 0.02899-0.125 0s0.09134 0.02689-0.125-0.03125 0.08174 0.05502-0.125-0.03125 0.09976 0.05038-0.09375-0.0625c-0.1935-0.11288 0.05186 0.075-0.125-0.0625s0.06335 0.06595-0.09375-0.09375 0.07208 0.08534-0.0625-0.09375c-0.10352-0.13776-0.05519-0.04003-0.0625-0.0625 0 0 0.000083-0.0311 0-0.03125-0.0399-0.07424-9.6786-18.038-2-38.031a2.062 2.062 0 0 0 -2.032 -2.813z"/>
  <path id="path3674" style="opacity:.3;block-progression:tb;text-indent:0;color:#000000;text-transform:none;fill:#fff" d="m68.969 27.562a3.0003 3.0003 0 0 1 -0.3125 0.84375c-3.6637 6.9163-4.8627 13.585-4.8438 19.375 0.11677-5.5517 1.3902-11.855 4.8438-18.375a3.0003 3.0003 0 0 0 0.3125 -1.8438zm-7.719 3.126c-13.724 2.587-20.471 11.022-24.188 19.531-4.145 9.491-4.062 18.75-4.062 18.75a3.0003 3.0003 0 0 1 -3 3.031h-24v1h24a3.0003 3.0003 0 0 0 3 -3.0312s-0.08281-9.259 4.0625-18.75c3.6813-8.4287 10.348-16.766 23.812-19.438 0.1287-0.36184 0.2355-0.73054 0.375-1.0938zm-3.094 17.312c-0.167 13.504 5.219 23.469 5.219 23.469a3.0003 3.0003 0 0 0 2.625 1.531h24v-1h-24a3.0003 3.0003 0 0 1 -2.625 -1.5312s-5.118-9.4781-5.2188-22.469z"/>
  <path id="path3683" style="opacity:.3;block-progression:tb;text-indent:0;color:#000000;text-transform:none" d="m65.781 24c-19.318 1.441-29.489 12.984-34.219 23.812-3.632 8.317-4.193 14.897-4.343 18.188h-21.219v1h21.219c0.15-3.291 0.711-9.871 4.343-18.188 4.73-10.828 14.901-22.371 34.219-23.812a3.0003 3.0003 0 0 1 3.1875 2.5312 3.0003 3.0003 0 0 0 -3.187 -3.531zm-4.531 7.688c-0.12935 0.02439-0.24688 0.06833-0.375 0.09375-2.029 5.704-2.758 11.216-2.719 16.218 0.063-5.054 0.901-10.604 3.094-16.312zm2.5625 16.094c-0.2 9.553 2.988 16.876 4.126 19.218h22.062v-1h-22.062c-1.0977-2.2593-4.0954-9.1589-4.125-18.219z"/>
  <path id="path3692" style="opacity:.4;block-progression:tb;text-indent:0;color:#000000;text-transform:none;fill:#124964" d="m65.781 24c-11.514 0.673-22.872 6.183-29.593 15.719-5.454 7.631-8.503 16.933-8.969 26.281h-21.219v1h1 6c4.8377 0.01024 9.6717 0.01819 14.5-0.0625 1.3686-0.7151 0.4644-2.6891 0.90625-3.9062 1.5403-13.013 8.0726-26.212 19.781-32.875 5.3675-3.1189 11.491-4.738 17.656-5.1875 1.7546-0.19229 2.8676 2.0819 1.7188 3.4062-6.2291 11.75-6.2287 26.445-0.34375 38.312 1.084 0.72159 2.5769 0.11779 3.8125 0.3125l11.97 0.002h6 1v-1h-22.062c-5.6684-11.83-5.5188-26.345 0.84375-37.875 0.89276-1.977-0.84208-4.3616-3-4.125zm-4.781 5.719c-0.65463 0.0077-1.4278 0.25457-1.875 0.40625-9.59 2.056-17.857 8.819-22.031 17.656-3.432 6.798-4.866 14.429-5.219 21.969-0.875 1.956-3.304 1.042-4.969 1.25h-13.906-6-1v1c8.1974-0.03998 16.403 0.07724 24.594-0.0625 2.5583-0.44822 2.5365-3.3957 2.5-5.4062 0.945-11.465 5.338-23.57 15.031-30.469 3.892-2.763 8.45-4.503 13.125-5.374-4.957 12.865-3.808 27.759 2.281 40.031 1.493 2.007 4.224 1.059 6.344 1.281h20.125v-1h-1c-1.9967-0.0107-4.0015-0.0038-6 0-5.8497 0.01113-11.696 0.04654-17.531-0.0625-1.8348-0.61591-1.9693-3.0425-2.8125-4.5312-4.387-11.321-4.834-24.269-0.437-35.656-0.028-0.808-0.564-1.039-1.219-1.031z"/>
 </g>
 <g id="layer5">
  <rect id="rect3171" style="opacity:.1;filter:url(#filter3794);stroke:#fff;stroke-linecap:round;stroke-width:.5;fill:#69ffff" clip-path="url(#clipPath3613)" rx="12" ry="12" height="66" width="66" y="15" x="15"/>
 </g>
</svg>
