<?xml version="1.0" encoding="UTF-8" standalone="no"?>
<!-- Created with Inkscape (http://www.inkscape.org/) -->
<svg id="svg2408" xmlns:rdf="http://www.w3.org/1999/02/22-rdf-syntax-ns#" xmlns="http://www.w3.org/2000/svg" height="96" width="96" version="1.0" xmlns:cc="http://creativecommons.org/ns#" xmlns:xlink="http://www.w3.org/1999/xlink" xmlns:dc="http://purl.org/dc/elements/1.1/">
 <defs id="defs2410">
  <linearGradient id="linearGradient4384">
   <stop id="stop4386" style="stop-color:#fff" offset="0"/>
   <stop id="stop4388" style="stop-color:#fff;stop-opacity:0" offset="1"/>
  </linearGradient>
  <linearGradient id="linearGradient4367">
   <stop id="stop4369" style="stop-color:#fff;stop-opacity:.71756" offset="0"/>
   <stop id="stop4371" style="stop-color:#fff" offset="1"/>
  </linearGradient>
  <linearGradient id="ButtonShadow" y2="7.0165" gradientUnits="userSpaceOnUse" x2="45.448" gradientTransform="scale(1.0059 .99417)" y1="92.54" x1="45.448">
   <stop id="stop3750" offset="0"/>
   <stop id="stop3752" style="stop-opacity:.58824" offset="1"/>
  </linearGradient>
  <filter id="filter3174" color-interpolation-filters="sRGB">
   <feGaussianBlur id="feGaussianBlur3176" stdDeviation="1.71"/>
  </filter>
  <filter id="filter3794" height="1.384" width="1.384" color-interpolation-filters="sRGB" y="-.192" x="-.192">
   <feGaussianBlur id="feGaussianBlur3796" stdDeviation="5.28"/>
  </filter>
  <linearGradient id="linearGradient3613" y2="138.66" gradientUnits="userSpaceOnUse" x2="48" y1="20.221" x1="48">
   <stop id="stop3739" style="stop-color:#fff" offset="0"/>
   <stop id="stop3741" style="stop-color:#fff;stop-opacity:0" offset="1"/>
  </linearGradient>
  <linearGradient id="ButtonShadow-0" y2="7.0165" gradientUnits="userSpaceOnUse" x2="45.448" gradientTransform="matrix(1.0059 0 0 .99417 100 0)" y1="92.54" x1="45.448">
   <stop id="stop3750-8" offset="0"/>
   <stop id="stop3752-5" style="stop-opacity:.58824" offset="1"/>
  </linearGradient>
  <linearGradient id="linearGradient3780" y2="90.239" xlink:href="#ButtonShadow-0" gradientUnits="userSpaceOnUse" x2="32.251" gradientTransform="matrix(1.0238 0 0 1.0119 -1.1429 -98.071)" y1="6.1317" x1="32.251"/>
  <linearGradient id="linearGradient3721" y2="90.239" xlink:href="#ButtonShadow-0" gradientUnits="userSpaceOnUse" x2="32.251" gradientTransform="translate(0,-97)" y1="6.1317" x1="32.251"/>
  <clipPath id="clipPath4355">
   <rect id="rect4357" style="fill:#fff" rx="6" ry="6" height="80" width="84" y="6" x="6"/>
  </clipPath>
  <radialGradient id="radialGradient4375" xlink:href="#linearGradient4367" gradientUnits="userSpaceOnUse" cy="87.792" cx="48" gradientTransform="matrix(1 -6.7115e-8 8.4282e-8 1.2558 110 -24.506)" r="42"/>
  <linearGradient id="linearGradient4390" y2="-40" xlink:href="#linearGradient4384" gradientUnits="userSpaceOnUse" x2="48" gradientTransform="matrix(1,0,0,-1,0,92)" y1="88" x1="48"/>
  <linearGradient id="linearGradient4429" y2="82.455" xlink:href="#linearGradient4384" spreadMethod="reflect" gradientUnits="userSpaceOnUse" x2="112.12" y1="82" x1="48"/>
  <linearGradient id="linearGradient3228" y2="88" spreadMethod="reflect" gradientUnits="userSpaceOnUse" x2="48" y1="88" x1="90">
   <stop id="stop3894" style="stop-opacity:.58824" offset="0"/>
   <stop id="stop3896" style="stop-opacity:.47059" offset=".11780"/>
   <stop id="stop3898" style="stop-opacity:.39216" offset=".23810"/>
   <stop id="stop3900" style="stop-opacity:.31373" offset="1"/>
  </linearGradient>
  <linearGradient id="linearGradient3087" y2="5.9877" gradientUnits="userSpaceOnUse" x2="48" y1="90" x1="48">
   <stop id="stop3645" style="stop-color:#5262d7" offset="0"/>
   <stop id="stop3647" style="stop-color:#8996f6" offset="1"/>
  </linearGradient>
  <linearGradient id="linearGradient3954" y2="79" xlink:href="#linearGradient4367" gradientUnits="userSpaceOnUse" x2="46" y1="13" x1="46"/>
  <clipPath id="clipPath4011">
   <path id="path4013" style="opacity:.4;fill:#f0f" d="m12 6c-3.324 0-6 2.676-6 6v72c0 3.324 2.676 6 6 6h72c3.324 0 6-2.676 6-6v-72c0-3.324-2.676-6-6-6zm5 8h62c1.662 0 3 1.338 3 3v58c0 1.662-1.338 3-3 3h-62c-1.662 0-3-1.338-3-3v-58c0-1.662 1.338-3 3-3z"/>
  </clipPath>
  <radialGradient id="radialGradient4026" xlink:href="#linearGradient4384" gradientUnits="userSpaceOnUse" cy="14" cx="14" gradientTransform="matrix(1.6923 -1.6923 1.0769 1.0769 -24.769 122.62)" r="13"/>
  <radialGradient id="radialGradient4042" xlink:href="#linearGradient4384" gradientUnits="userSpaceOnUse" cy="14" cx="14" gradientTransform="matrix(-1.6923 -1.6923 -1.0769 1.0769 120.77 122.62)" r="13"/>
  <radialGradient id="radialGradient4048" xlink:href="#linearGradient4384" gradientUnits="userSpaceOnUse" cy="14" cx="14" gradientTransform="matrix(1.6923 1.6923 1.0769 -1.0769 -24.769 169.38)" r="13"/>
  <radialGradient id="radialGradient4050" xlink:href="#linearGradient4384" gradientUnits="userSpaceOnUse" cy="14" cx="14" gradientTransform="matrix(-1.6923 1.6923 -1.0769 -1.0769 120.77 169.38)" r="13"/>
  <radialGradient id="radialGradient4058" gradientUnits="userSpaceOnUse" cy="48" cx="48" gradientTransform="matrix(2.2857 0 0 2.0952 -61.714 -52.571)" r="42">
   <stop id="stop4054" style="stop-color:#d7d7f4" offset="0"/>
   <stop id="stop4056" style="stop-color:#d7d7f4;stop-opacity:0" offset="1"/>
  </radialGradient>
 </defs>
 <metadata id="metadata2413">
  <rdf:RDF>
   <cc:Work rdf:about="">
    <dc:format>image/svg+xml</dc:format>
    <dc:type rdf:resource="http://purl.org/dc/dcmitype/StillImage"/>
    <dc:title/>
   </cc:Work>
  </rdf:RDF>
 </metadata>
 <g id="layer2" style="display:none">
  <rect id="rect3745" style="opacity:.9;filter:url(#filter3174);fill:url(#ButtonShadow)" rx="6" ry="6" height="85" width="86" y="7" x="5"/>
 </g>
 <g id="layer3">
  <path id="path3786" style="opacity:0.08;fill:url(#linearGradient3780)" d="m12-95.031c-5.5111 0-10.031 4.5202-10.031 10.031v71c0 5.5111 4.5202 10.031 10.031 10.031h72c5.5111 0 10.031-4.5202 10.031-10.031v-71c0-5.5111-4.5202-10.031-10.031-10.031h-72z" transform="scale(1,-1)"/>
  <path id="path3778" style="opacity:.1;fill:url(#linearGradient3780)" d="m12-94.031c-4.9716 0-9.0312 4.0596-9.0312 9.0312v71c0 4.9716 4.0596 9.0312 9.0312 9.0312h72c4.9716 0 9.0312-4.0596 9.0312-9.0312v-71c0-4.9716-4.0596-9.0312-9.0312-9.0312h-72z" transform="scale(1,-1)"/>
  <path id="path3770" style="opacity:.2;fill:url(#linearGradient3780)" d="m12-93c-4.4091 0-8 3.5909-8 8v71c0 4.4091 3.5909 8 8 8h72c4.4091 0 8-3.5909 8-8v-71c0-4.4091-3.5909-8-8-8h-72z" transform="scale(1,-1)"/>
  <rect id="rect3723" style="opacity:.3;fill:url(#linearGradient3780)" transform="scale(1,-1)" rx="7" ry="7" height="85" width="86" y="-92" x="5"/>
  <rect id="rect3716" style="opacity:.45;fill:url(#linearGradient3721)" transform="scale(1,-1)" rx="6" ry="6" height="84" width="84" y="-91" x="6"/>
 </g>
 <g id="layer1">
  <rect id="rect2419" style="fill:url(#linearGradient3087)" rx="6" ry="6" height="84" width="84" y="6" x="6"/>
  <path id="rect3651" style="opacity:.8;fill:url(#radialGradient4058)" d="m12 6c-3.324 0-6 2.676-6 6v72c0 3.324 2.676 6 6 6h72c3.324 0 6-2.676 6-6v-72c0-3.324-2.676-6-6-6zm5 8h62c1.662 0 3 1.338 3 3v58c0 1.662-1.338 3-3 3h-62c-1.662 0-3-1.338-3-3v-58c0-1.662 1.338-3 3-3z"/>
  <path id="rect4359" style="opacity:.2;fill:url(#radialGradient4375)" d="m120.78 6.125c-2.74 0.5576-4.78 2.9665-4.78 5.875v68c0 3.324 2.676 6 6 6h72c3.324 0 6-2.676 6-6v-68c0-2.9085-2.0422-5.3174-4.7812-5.875 2.2051 0.53621 3.8125 2.4908 3.8125 4.875v68c0 2.8049-2.2264 5.0312-5.0312 5.0312h-72c-2.8049 0-5.0312-2.2264-5.0312-5.0312v-68c0-2.3842 1.6074-4.3388 3.8125-4.875z"/>
  <path id="rect4414" style="opacity:.1;fill:url(#linearGradient4429)" d="m6 78v2c0 3.324 2.676 6 6 6h72c3.324 0 6-2.676 6-6v-2c0 3.324-2.676 6-6 6h-72c-3.324 0-6-2.676-6-6z"/>
  <path id="path4412" style="opacity:.15" d="m6 100v1c0 3.324 2.676 6 6 6h72c3.324 0 6-2.676 6-6v-1c0 3.324-2.676 6-6 6h-72c-3.324 0-6-2.676-6-6z"/>
  <path id="rect3712" style="opacity:.05" d="m17 14c-1.662 0-3 1.338-3 3v58c0 1.662 1.338 3 3 3h62c1.662 0 3-1.338 3-3v-58c0-1.662-1.338-3-3-3zm-0.0625 2.9375c0.0048-0.0048 0.01906 0 0.0625 0h62c0.08687 0 0.0625-0.02437 0.0625 0.0625v58c0 0.08687 0.02437 0.0625-0.0625 0.0625h-62c-0.08687 0-0.0625 0.02437-0.0625-0.0625v-58c0-0.04344-0.0048-0.05773 0-0.0625z"/>
  <path id="rect3708" style="opacity:0.12" d="m17 14c-1.662 0-3 1.338-3 3v58c0 1.662 1.338 3 3 3h62c1.662 0 3-1.338 3-3v-58c0-1.662-1.338-3-3-3zm0 1.8438h62c0.67025 0 1.1562 0.486 1.1562 1.1562v58c0 0.67025-0.486 1.1562-1.1562 1.1562h-62c-0.67025 0-1.1562-0.486-1.1562-1.1562v-58c0-0.67025 0.486-1.1562 1.1562-1.1562z"/>
  <path id="rect2932" style="opacity:.15" d="m17 14c-1.662 0-3 1.338-3 3v58c0 1.662 1.338 3 3 3h62c1.662 0 3-1.338 3-3v-58c0-1.662-1.338-3-3-3zm0 0.96875h62c1.137 0 2.0312 0.89429 2.0312 2.0312v58c0 1.137-0.89429 2.0312-2.0312 2.0312h-62c-1.137 0-2.0312-0.89429-2.0312-2.0312v-58c0-1.137 0.89429-2.0312 2.0312-2.0312z"/>
  <path id="rect3943" style="opacity:.3;color:#000000;fill:url(#linearGradient3954)" d="m17 13c-2.216 0-4 1.784-4 4v58c0 2.216 1.784 4 4 4h62c2.216 0 4-1.784 4-4v-58c0-2.216-1.784-4-4-4h-62zm0 1h62c1.662 0 3 1.338 3 3v58c0 1.662-1.338 3-3 3h-62c-1.662 0-3-1.338-3-3v-58c0-1.662 1.338-3 3-3z"/>
  <g id="g3993" style="opacity:.5" transform="translate(-120)" clip-path="url(#clipPath4011)">
   <g id="g3962">
    <path id="path3960" style="opacity:.1;fill:#fff" d="m78 13 9-4-4 9z"/>
    <path id="path3958" style="opacity:.15;fill:#fff" d="m79 13 7-3-3 7z"/>
    <path id="path3956" style="opacity:.2;fill:#fff" d="m80 13 5-2-2 5z"/>
   </g>
   <g id="g3969" transform="matrix(0,-1,1,0,0,96)">
    <path id="path3971" style="opacity:.1;fill:#fff" d="m78 13 9-4-4 9z"/>
    <path id="path3973" style="opacity:.15;fill:#fff" d="m79 13 7-3-3 7z"/>
    <path id="path3975" style="opacity:.2;fill:#fff" d="m80 13 5-2-2 5z"/>
   </g>
   <g id="g3977" transform="matrix(1,0,0,-1,0,92)">
    <path id="path3979" style="opacity:.1;fill:#fff" d="m78 13 9-4-4 9z"/>
    <path id="path3981" style="opacity:.15;fill:#fff" d="m79 13 7-3-3 7z"/>
    <path id="path3983" style="opacity:.2;fill:#fff" d="m80 13 5-2-2 5z"/>
   </g>
   <g id="g3985" transform="matrix(0,1,1,0,0,-4)">
    <path id="path3987" style="opacity:.1;fill:#fff" d="m78 13 9-4-4 9z"/>
    <path id="path3989" style="opacity:.15;fill:#fff" d="m79 13 7-3-3 7z"/>
    <path id="path3991" style="opacity:.2;fill:#fff" d="m80 13 5-2-2 5z"/>
   </g>
  </g>
  <path id="path4015" style="opacity:.3;fill:url(#radialGradient4026)" d="m12 106c-3.324 0-6 2.676-6 6v28h8v-23c0-1.662 1.338-3 3-3h23v-8z"/>
  <path id="path4040" style="opacity:.3;fill:url(#radialGradient4042)" d="m84 106c3.324 0 6 2.676 6 6v28h-8v-23c0-1.662-1.338-3-3-3h-23v-8z"/>
  <path id="path4044" style="opacity:.3;fill:url(#radialGradient4048)" d="m12 186c-3.324 0-6-2.676-6-6v-28h8v23c0 1.662 1.338 3 3 3h23v8z"/>
  <path id="path4046" style="opacity:.3;fill:url(#radialGradient4050)" d="m84 186c3.324 0 6-2.676 6-6v-28h-8v23c0 1.662-1.338 3-3 3h-23v8z"/>
  <path id="rect4377" style="opacity:.4;fill:url(#linearGradient4390)" d="m12 86c-3.324 0-6-2.676-6-6v-68c0-3.324 2.676-6 6-6h72c3.324 0 6 2.676 6 6v68c0 3.324-2.676 6-6 6zm0-0.96875h72c2.8049 0 5.0312-2.2264 5.0312-5.0312v-68c0-2.8049-2.226-5.0312-5.031-5.0312h-72c-2.8049 0-5.0312 2.2263-5.0312 5.0312v68c0 2.8049 2.2264 5.0312 5.0312 5.0312z"/>
 </g>
 <g id="layer4">
  <path id="path3888" style="fill:url(#linearGradient3228)" d="m6 80v4c0 3.324 2.676 6 6 6h72c3.324 0 6-2.676 6-6v-4c0 3.324-2.676 6-6 6h-72c-3.324 0-6-2.676-6-6z"/>
  <path id="rect4345" style="opacity:.1;color:#000000" d="m6 82v2c0 3.324 2.676 6 6 6h72c3.324 0 6-2.676 6-6v-2c0 3.324-2.676 6-6 6h-72c-3.324 0-6-2.676-6-6z"/>
  <path id="rect4336" style="opacity:.15;color:#000000" d="m6 83v1c0 3.324 2.676 6 6 6h72c3.324 0 6-2.676 6-6v-1c0 3.324-2.676 6-6 6h-72c-3.324 0-6-2.676-6-6z"/>
 </g>
 <g id="layer5" style="display:none">
  <rect id="rect3171" style="opacity:.1;filter:url(#filter3794);stroke:#fff;stroke-linecap:round;stroke-width:.5;fill:url(#linearGradient3613)" clip-path="url(#clipPath4355)" rx="12" ry="12" height="62" width="66" y="15" x="15"/>
 </g>
 <g id="layer6">
  <path id="path3746" style="opacity:0.08" d="m47 23.094c-4.9032 0-8.9062 4.0031-8.9062 8.9062 0 4.9032 4.0031 8.9062 8.9062 8.9062 4.9032 0 8.9062-4.0031 8.9062-8.9062 0-4.9032-4.0031-8.9062-8.9062-8.9062zm-11.375 18c-0.00054 0.000105-0.15572 0.06235-0.15625 0.0625-0.000529 0.000152-0.15574 0.03105-0.15625 0.03125-0.000513 0.000197-0.15576 0.06226-0.15625 0.0625-0.000494 0.000241-0.15578 0.09347-0.15625 0.09375-0.000471 0.000284-0.12456 0.09343-0.125 0.09375-0.000444 0.000324-0.12459 0.09339-0.125 0.09375-0.000414 0.000361-0.12462 0.1246-0.125 0.125-0.000381 0.000396-0.12466 0.12457-0.125 0.125-0.000345 0.000428-0.09344 0.12454-0.09375 0.125-0.000306 0.000457-0.09349 0.15577-0.09375 0.15625-0.000265 0.000482-0.06228 0.15575-0.0625 0.15625-0.000222 0.000503-0.06232 0.15573-0.0625 0.15625-0.000177 0.00052-0.06237 0.15572-0.0625 0.15625-0.000131 0.000534-0.03117 0.15571-0.03125 0.15625-0.000084 0.000543 0.000036 0.1557 0 0.15625-0.00003 0.000457 0.000855 0.11745 0 0.15625-0.000171 0.0078-0.000002 0.03116 0 0.03125v5.9688c-0.000001 0.00031-0.000014 0.09344 0 0.09375 0.000014 0.000309-0.00003 0.09344 0 0.09375 0.00003 0.000308-0.000045 0.09344 0 0.09375 0.000045 0.000306 0.03119 0.09345 0.03125 0.09375 0.00006 0.000304-0.000075 0.09345 0 0.09375 0.000075 0.000301 0.03116 0.09345 0.03125 0.09375 0.000089 0.000296 0.03115 0.09346 0.03125 0.09375 0.000104 0.000292 0.03113 0.06221 0.03125 0.0625 0.000118 0.000286 0.06237 0.09347 0.0625 0.09375 0.000132 0.00028 0.0311 0.09348 0.03125 0.09375 0.000146 0.000273 0.03109 0.09348 0.03125 0.09375 0.000159 0.000266 0.06233 0.06224 0.0625 0.0625 0.000172 0.000258 0.06232 0.0935 0.0625 0.09375 0.000184 0.000249 0.0623 0.06226 0.0625 0.0625 0.000196 0.000239 0.06229 0.06227 0.0625 0.0625 0.000208 0.000229 0.06228 0.06228 0.0625 0.0625 0.000219 0.000219 0.06227 0.06229 0.0625 0.0625 0.000229 0.000208 0.06226 0.0623 0.0625 0.0625 0.000239 0.000196 0.06225 0.06232 0.0625 0.0625 0.000249 0.000184 0.09349 0.06233 0.09375 0.0625 0.000258 0.000172 0.06223 0.06234 0.0625 0.0625 0.000266 0.000159 0.09348 0.0311 0.09375 0.03125 0.000273 0.000146 0.09347 0.03112 0.09375 0.03125 0.00028 0.000132 0.09346 0.06238 0.09375 0.0625 0.000286 0.000118 0.06221 0.03115 0.0625 0.03125 0.000292 0.000104 0.09345 0.03116 0.09375 0.03125 0.000296 0.000089 0.09345 0.03117 0.09375 0.03125 0.000301 0.000075 0.09345-0.00006 0.09375 0 0.000304 0.00006 0.09344 0.0312 0.09375 0.03125 0.000306 0.000045 0.09344-0.00003 0.09375 0 0.000308 0.00003 0.09344-0.000014 0.09375 0 0.000309 0.000014 0.09344 0.000001 0.09375 0h4.0938v14.188h-4.0938c-0.00031-0.000001-0.09344-0.000014-0.09375 0-0.000309 0.000014-0.09344-0.00003-0.09375 0-0.000308 0.00003-0.09344-0.000045-0.09375 0-0.000306 0.000045-0.09345 0.03119-0.09375 0.03125-0.000304 0.00006-0.09345-0.000075-0.09375 0-0.000301 0.000075-0.09345 0.03116-0.09375 0.03125-0.000296 0.000089-0.09346 0.03115-0.09375 0.03125-0.000292 0.000104-0.06221 0.03113-0.0625 0.03125-0.000286 0.000118-0.09347 0.06237-0.09375 0.0625-0.00028 0.000132-0.09348 0.0311-0.09375 0.03125-0.000273 0.000146-0.09348 0.03109-0.09375 0.03125-0.000266 0.000159-0.06224 0.06233-0.0625 0.0625-0.000258 0.000172-0.0935 0.06232-0.09375 0.0625-0.000249 0.000184-0.06226 0.0623-0.0625 0.0625-0.000239 0.000196-0.06227 0.06229-0.0625 0.0625-0.000229 0.000208-0.06228 0.06228-0.0625 0.0625-0.000219 0.000219-0.06229 0.06227-0.0625 0.0625-0.000208 0.000229-0.0623 0.06226-0.0625 0.0625-0.000196 0.000239-0.06232 0.06225-0.0625 0.0625-0.000184 0.000249-0.06233 0.09349-0.0625 0.09375-0.000172 0.000258-0.06234 0.06223-0.0625 0.0625-0.000159 0.000266-0.0311 0.09348-0.03125 0.09375-0.000146 0.000273-0.03112 0.09347-0.03125 0.09375-0.000132 0.00028-0.06238 0.09346-0.0625 0.09375-0.000118 0.000286-0.03115 0.06221-0.03125 0.0625-0.000104 0.000292-0.03116 0.09345-0.03125 0.09375-0.000089 0.000296-0.03117 0.09345-0.03125 0.09375-0.000075 0.000301 0.00006 0.09345 0 0.09375-0.00006 0.000304-0.0312 0.09344-0.03125 0.09375-0.000045 0.000306 0.00003 0.09344 0 0.09375-0.00003 0.000308 0.000014 0.09344 0 0.09375-0.000014 0.000309-0.000001 0.09344 0 0.09375v6c-0.000001 0.00031-0.000014 0.09344 0 0.09375 0.000014 0.000309-0.00003 0.09344 0 0.09375 0.00003 0.000308-0.000045 0.09344 0 0.09375 0.000045 0.000306 0.03119 0.09345 0.03125 0.09375 0.00006 0.000304-0.000075 0.09345 0 0.09375 0.000075 0.000301 0.03116 0.09345 0.03125 0.09375 0.000089 0.000296 0.03115 0.09346 0.03125 0.09375 0.000104 0.000292 0.03113 0.06221 0.03125 0.0625 0.000118 0.000286 0.06237 0.09347 0.0625 0.09375 0.000132 0.00028 0.0311 0.09348 0.03125 0.09375 0.000146 0.000273 0.03109 0.09348 0.03125 0.09375 0.000159 0.000266 0.06233 0.06224 0.0625 0.0625 0.000172 0.000258 0.06232 0.0935 0.0625 0.09375 0.000184 0.000249 0.0623 0.06226 0.0625 0.0625 0.000196 0.000239 0.06229 0.06227 0.0625 0.0625 0.000208 0.000229 0.06228 0.06228 0.0625 0.0625 0.000219 0.000219 0.06227 0.06229 0.0625 0.0625 0.000229 0.000208 0.06226 0.0623 0.0625 0.0625 0.000239 0.000196 0.06225 0.06232 0.0625 0.0625 0.000249 0.000184 0.09349 0.06233 0.09375 0.0625 0.000258 0.000172 0.06223 0.06234 0.0625 0.0625 0.000266 0.000159 0.09348 0.0311 0.09375 0.03125 0.000273 0.000146 0.09347 0.03112 0.09375 0.03125 0.00028 0.000132 0.09346 0.06238 0.09375 0.0625 0.000286 0.000118 0.06221 0.03115 0.0625 0.03125 0.000292 0.000104 0.09345 0.03116 0.09375 0.03125 0.000296 0.000089 0.09345 0.03118 0.09375 0.03125 0.000301 0.000075 0.09345-0.00006 0.09375 0 0.000304 0.00006 0.09344 0.0312 0.09375 0.03125 0.000306 0.000045 0.09344-0.00003 0.09375 0 0.000308 0.00003 0.09344-0.000014 0.09375 0 0.000309 0.000014 0.09344 0.000001 0.09375 0h24c0.00031 0.000001 0.09344 0.000014 0.09375 0 0.000309-0.000014 0.09344 0.00003 0.09375 0 0.000308-0.00003 0.09344 0.000045 0.09375 0 0.000306-0.000045 0.09345-0.03119 0.09375-0.03125 0.000304-0.00006 0.09345 0.000075 0.09375 0 0.000301-0.000075 0.09345-0.03116 0.09375-0.03125 0.000296-0.000089 0.09346-0.03115 0.09375-0.03125 0.000292-0.000104 0.06221-0.03113 0.0625-0.03125 0.000286-0.000118 0.09347-0.06237 0.09375-0.0625 0.00028-0.000132 0.09348-0.0311 0.09375-0.03125 0.000273-0.000146 0.09348-0.03109 0.09375-0.03125 0.000266-0.000159 0.06224-0.06233 0.0625-0.0625 0.000258-0.000172 0.0935-0.06232 0.09375-0.0625 0.000249-0.000184 0.06226-0.0623 0.0625-0.0625 0.000239-0.000196 0.06227-0.06229 0.0625-0.0625 0.000229-0.000208 0.06228-0.06228 0.0625-0.0625 0.000219-0.000219 0.06229-0.06227 0.0625-0.0625 0.000208-0.000229 0.0623-0.06226 0.0625-0.0625 0.000196-0.000239 0.06232-0.06225 0.0625-0.0625 0.000184-0.000249 0.06233-0.09349 0.0625-0.09375 0.000172-0.000258 0.06234-0.06223 0.0625-0.0625 0.000159-0.000266 0.0311-0.09348 0.03125-0.09375 0.000146-0.000273 0.03112-0.09347 0.03125-0.09375 0.000132-0.00028 0.06238-0.09346 0.0625-0.09375 0.000118-0.000286 0.03115-0.06221 0.03125-0.0625 0.000104-0.000292 0.03116-0.09345 0.03125-0.09375 0.000089-0.000296 0.03117-0.09345 0.03125-0.09375 0.000075-0.000301-0.00006-0.09345 0-0.09375 0.00006-0.000304 0.0312-0.09344 0.03125-0.09375 0.000045-0.000306-0.00003-0.09344 0-0.09375 0.00003-0.000308-0.000014-0.09344 0-0.09375 0.000014-0.000309 0.000001-0.09344 0-0.09375v-6c0.000001-0.00031 0.000014-0.09344 0-0.09375-0.000014-0.000309 0.00003-0.09344 0-0.09375-0.00003-0.000308 0.000045-0.09344 0-0.09375-0.000045-0.000306-0.03119-0.09345-0.03125-0.09375-0.00006-0.000304 0.000075-0.09345 0-0.09375-0.000075-0.000301-0.03116-0.09345-0.03125-0.09375-0.000089-0.000296-0.03115-0.09346-0.03125-0.09375-0.000104-0.000292-0.03113-0.06221-0.03125-0.0625-0.000118-0.000286-0.06237-0.09347-0.0625-0.09375-0.000132-0.00028-0.0311-0.09348-0.03125-0.09375-0.000146-0.000273-0.03109-0.09348-0.03125-0.09375-0.000159-0.000266-0.06233-0.06224-0.0625-0.0625-0.000172-0.000258-0.06232-0.0935-0.0625-0.09375-0.000184-0.000249-0.0623-0.06226-0.0625-0.0625-0.000196-0.000239-0.06229-0.06227-0.0625-0.0625-0.000208-0.000229-0.06228-0.06228-0.0625-0.0625-0.000219-0.000219-0.06227-0.06229-0.0625-0.0625-0.000229-0.000208-0.06226-0.0623-0.0625-0.0625-0.000239-0.000196-0.06225-0.06232-0.0625-0.0625-0.000249-0.000184-0.09349-0.06233-0.09375-0.0625-0.000258-0.000172-0.06223-0.06234-0.0625-0.0625-0.000266-0.000159-0.09348-0.0311-0.09375-0.03125-0.000273-0.000146-0.09347-0.03112-0.09375-0.03125-0.00028-0.000132-0.09346-0.06238-0.09375-0.0625-0.000286-0.000118-0.06221-0.03115-0.0625-0.03125-0.000292-0.000104-0.09345-0.03116-0.09375-0.03125-0.000296-0.000089-0.09345-0.03118-0.09375-0.03125-0.000301-0.000075-0.09345 0.00006-0.09375 0-0.000304-0.00006-0.09344-0.0312-0.09375-0.03125-0.000306-0.000045-0.09344 0.00003-0.09375 0-0.000308-0.00003-0.09344 0.000014-0.09375 0-0.000309-0.000014-0.09344-0.000001-0.09375 0h-4.0938v-22.094c0.000001-0.00031 0.000014-0.09344 0-0.09375-0.000014-0.000309 0.00003-0.09344 0-0.09375-0.00003-0.000308 0.000045-0.09344 0-0.09375-0.000045-0.000306-0.03119-0.09345-0.03125-0.09375-0.00006-0.000304 0.000075-0.09345 0-0.09375-0.000075-0.000301-0.03116-0.09345-0.03125-0.09375-0.000089-0.000296-0.03115-0.09346-0.03125-0.09375-0.000104-0.000292-0.03113-0.06221-0.03125-0.0625-0.000118-0.000286-0.06237-0.09347-0.0625-0.09375-0.000132-0.00028-0.0311-0.09348-0.03125-0.09375-0.000146-0.000273-0.03109-0.09348-0.03125-0.09375-0.000159-0.000266-0.06233-0.06224-0.0625-0.0625-0.000172-0.000258-0.06232-0.0935-0.0625-0.09375-0.000184-0.000249-0.0623-0.06226-0.0625-0.0625-0.000196-0.000239-0.06229-0.06227-0.0625-0.0625-0.000208-0.000229-0.06228-0.06228-0.0625-0.0625-0.000219-0.000219-0.06227-0.06229-0.0625-0.0625-0.000229-0.000208-0.06226-0.0623-0.0625-0.0625-0.000239-0.000196-0.06225-0.06232-0.0625-0.0625-0.000249-0.000184-0.09349-0.06233-0.09375-0.0625-0.000258-0.000172-0.06223-0.06234-0.0625-0.0625-0.000266-0.000159-0.09348-0.0311-0.09375-0.03125-0.000273-0.000146-0.09347-0.03112-0.09375-0.03125-0.00028-0.000132-0.09346-0.06238-0.09375-0.0625-0.000286-0.000118-0.06221-0.03115-0.0625-0.03125-0.000292-0.000104-0.09345-0.03116-0.09375-0.03125-0.000296-0.000089-0.09345-0.03117-0.09375-0.03125-0.000301-0.000075-0.09345 0.00006-0.09375 0-0.000304-0.00006-0.09344-0.0312-0.09375-0.03125-0.000306-0.000045-0.09344 0.00003-0.09375 0-0.000308-0.00003-0.09344 0.000014-0.09375 0-0.000309-0.000014-0.09344-0.000001-0.09375 0h-17.969c-0.000122-0.000006-0.01936 0.000004-0.03125 0-0.02378-0.000007-0.02696-0.000002-0.0625 0-0.000244-0.000012-0.02696 0.000002-0.0625 0-0.05331-0.000004-0.09338-0.000018-0.09375 0a0.94711 0.94711 0 0 0 -0.15625 0z" transform="translate(0,-2)"/>
  <path id="path3742" style="opacity:.15" d="m47 24.031c-4.3879 0-7.9688 3.5808-7.9688 7.9688 0 4.3879 3.5808 7.9688 7.9688 7.9688 4.3879 0 7.9688-3.5808 7.9688-7.9688 0-4.3879-3.5808-7.9688-7.9688-7.9688zm-11.094 18a0.96587 0.96587 0 0 0 -0.875 0.969v6a0.96587 0.96587 0 0 0 0.969 0.969h5.0312v16.062h-5.0312a0.96587 0.96587 0 0 0 -0.969 0.969v6a0.96587 0.96587 0 0 0 0.969 0.969h24a0.96587 0.96587 0 0 0 0.969 -0.969v-6a0.96587 0.96587 0 0 0 -0.969 -0.969h-5.0312v-23.031a0.96587 0.96587 0 0 0 -0.969 -0.969h-18a0.96587 0.96587 0 0 0 -0.09375 0z" transform="translate(0,-2)"/>
  <path id="path3733" style="opacity:.4" d="m47 25c-3.866 0-7 3.134-7 7s3.134 7 7 7 7-3.134 7-7-3.134-7-7-7zm-11 18v6h6v18h-6v6h24v-6h-6v-24h-18z" transform="translate(0,-2)"/>
  <path id="path3716" style="fill:#fff" d="m47 22c-3.866 0-7 3.134-7 7s3.134 7 7 7 7-3.134 7-7-3.134-7-7-7zm-11 18v6h6v18h-6v6h24v-6h-6v-24h-18z"/>
 </g>
</svg>
