<?xml version="1.0" encoding="UTF-8" standalone="no"?>
<!-- Created with Inkscape (http://www.inkscape.org/) -->
<svg id="svg2408" xmlns:rdf="http://www.w3.org/1999/02/22-rdf-syntax-ns#" xmlns="http://www.w3.org/2000/svg" height="96" width="96" version="1.0" xmlns:cc="http://creativecommons.org/ns#" xmlns:xlink="http://www.w3.org/1999/xlink" xmlns:dc="http://purl.org/dc/elements/1.1/">
 <defs id="defs2410">
  <linearGradient id="linearGradient5183">
   <stop id="stop5185" style="stop-color:#fff" offset="0"/>
   <stop id="stop5187" style="stop-color:#fff;stop-opacity:0" offset="1"/>
  </linearGradient>
  <linearGradient id="ButtonShadow" y2="7.0165" gradientUnits="userSpaceOnUse" x2="45.448" gradientTransform="scale(1.0059 .99417)" y1="92.54" x1="45.448">
   <stop id="stop3750" offset="0"/>
   <stop id="stop3752" style="stop-opacity:.58824" offset="1"/>
  </linearGradient>
  <filter id="filter3174" color-interpolation-filters="sRGB">
   <feGaussianBlur id="feGaussianBlur3176" stdDeviation="1.71"/>
  </filter>
  <linearGradient id="linearGradient3188" y2="63.893" xlink:href="#linearGradient5183" gradientUnits="userSpaceOnUse" x2="36.357" y1="6" x1="36.357"/>
  <filter id="filter3794" height="1.384" width="1.384" color-interpolation-filters="sRGB" y="-.192" x="-.192">
   <feGaussianBlur id="feGaussianBlur3796" stdDeviation="5.28"/>
  </filter>
  <linearGradient id="linearGradient3613" y2="138.66" xlink:href="#linearGradient5183" gradientUnits="userSpaceOnUse" x2="48" y1="20.221" x1="48"/>
  <radialGradient id="radialGradient3619" xlink:href="#linearGradient5183" gradientUnits="userSpaceOnUse" cy="90.172" cx="48" gradientTransform="matrix(1.1573 0 0 .99591 -7.551 .19713)" r="42"/>
  <clipPath id="clipPath3613">
   <rect id="rect3615" style="fill:#fff" rx="6" ry="6" height="84" width="84" y="6" x="6"/>
  </clipPath>
  <linearGradient id="linearGradient3617" y2="5.9877" gradientUnits="userSpaceOnUse" x2="48" y1="90" x1="48">
   <stop id="stop3702" style="stop-color:#5449c0" offset="0"/>
   <stop id="stop3704" style="stop-color:#827aca" offset="1"/>
  </linearGradient>
  <linearGradient id="ButtonShadow-0" y2="7.0165" gradientUnits="userSpaceOnUse" x2="45.448" gradientTransform="matrix(1.0059 0 0 .99417 100 0)" y1="92.54" x1="45.448">
   <stop id="stop3750-8" offset="0"/>
   <stop id="stop3752-5" style="stop-opacity:.58824" offset="1"/>
  </linearGradient>
  <linearGradient id="linearGradient3780" y2="90.239" xlink:href="#ButtonShadow-0" gradientUnits="userSpaceOnUse" x2="32.251" gradientTransform="matrix(1.0238 0 0 1.0119 -1.1429 -98.071)" y1="6.1317" x1="32.251"/>
  <linearGradient id="linearGradient3721" y2="90.239" xlink:href="#ButtonShadow-0" gradientUnits="userSpaceOnUse" x2="32.251" gradientTransform="translate(0,-97)" y1="6.1317" x1="32.251"/>
  <linearGradient id="linearGradient12684">
   <stop id="stop12686" style="stop-color:#fff" offset="0"/>
   <stop id="stop12692" style="stop-color:#fff;stop-opacity:.84536" offset="0.35"/>
   <stop id="stop12688" style="stop-color:#fff;stop-opacity:0" offset="1"/>
  </linearGradient>
  <linearGradient id="linearGradient2762">
   <stop id="stop2764" style="stop-opacity:.70588" offset="0"/>
   <stop id="stop4540" style="stop-opacity:.35294" offset="0.4"/>
   <stop id="stop2766" style="stop-opacity:0" offset="1"/>
  </linearGradient>
  <linearGradient id="linearGradient5537">
   <stop id="stop5539" style="stop-color:#73a0d0" offset="0"/>
   <stop id="stop5541" style="stop-color:#fff" offset="1"/>
  </linearGradient>
  <linearGradient id="linearGradient10381">
   <stop id="stop10383" style="stop-color:#3465a4" offset="0"/>
   <stop id="stop10385" style="stop-color:#3465a4;stop-opacity:0" offset="1"/>
  </linearGradient>
  <linearGradient id="linearGradient5016" y2="162.24" xlink:href="#linearGradient5183" gradientUnits="userSpaceOnUse" x2="185.18" y1="178.87" x1="185.18"/>
  <radialGradient id="radialGradient5018" xlink:href="#linearGradient5183" gradientUnits="userSpaceOnUse" cy="162.24" cx="185.18" gradientTransform="matrix(1.7659 0 0 3.0048 -141.84 -325.26)" r="8.3117"/>
  <radialGradient id="radialGradient5024" xlink:href="#linearGradient12684" gradientUnits="userSpaceOnUse" cy="148.5" cx="156.5" r="19.5"/>
  <linearGradient id="linearGradient5050" y2="240.92" xlink:href="#linearGradient5183" gradientUnits="userSpaceOnUse" x2="420" gradientTransform="matrix(.54348 -.94133 .94133 .54348 -156.67 314.83)" y1="240.92" x1="98"/>
  <linearGradient id="linearGradient5052" y2="240.92" xlink:href="#linearGradient5183" gradientUnits="userSpaceOnUse" x2="420" gradientTransform="matrix(-.94133 .54348 .54348 .94133 334.23 -173.07)" y1="240.92" x1="98"/>
  <linearGradient id="linearGradient5054" y2="240.92" xlink:href="#linearGradient5183" gradientUnits="userSpaceOnUse" x2="420" gradientTransform="matrix(.94133 -.54348 -.54348 -.94133 150.77 625.27)" y1="240.92" x1="98"/>
  <linearGradient id="linearGradient5056" y2="240.92" xlink:href="#linearGradient5183" gradientUnits="userSpaceOnUse" x2="420" gradientTransform="matrix(-.54348 .94133 -.94133 -.54348 641.67 131.38)" y1="240.92" x1="98"/>
  <radialGradient id="radialGradient5058" xlink:href="#linearGradient5183" gradientUnits="userSpaceOnUse" cy="226.88" cx="246.35" gradientTransform="matrix(1 -.57734 .12401 .21480 -28.136 320.38)" r="154.36"/>
  <radialGradient id="radialGradient5060" xlink:href="#linearGradient5183" gradientUnits="userSpaceOnUse" cy="226.88" cx="246.35" gradientTransform="matrix(-.57734 -1 .21480 -.12401 339.85 501.37)" r="154.36"/>
  <radialGradient id="radialGradient5165" gradientUnits="userSpaceOnUse" cy="80" cx="48" gradientTransform="matrix(1 0 0 .33333 0 53.333)" r="24">
   <stop id="stop5159" offset="0"/>
   <stop id="stop5161" style="stop-opacity:0" offset="1"/>
  </radialGradient>
  <radialGradient id="radialGradient5167" xlink:href="#linearGradient5183" gradientUnits="userSpaceOnUse" cy="222.16" cx="69.945" gradientTransform="matrix(1.3539 0 0 1.3539 -33.889 -78.631)" r="183.91"/>
  <radialGradient id="radialGradient5169" xlink:href="#linearGradient5183" gradientUnits="userSpaceOnUse" cy="222.16" cx="49.71" gradientTransform="matrix(1.3539 0 0 1.3539 -33.889 -78.631)" r="183.91"/>
  <radialGradient id="radialGradient5171" gradientUnits="userSpaceOnUse" cy="222.16" cx="244.72" r="183.91">
   <stop id="stop6350" style="stop-color:#fff;stop-opacity:.44186" offset="0"/>
   <stop id="stop6356" style="stop-color:#13059a;stop-opacity:0" offset="0.8"/>
   <stop id="stop6352" style="stop-color:#16104b" offset="1"/>
  </radialGradient>
  <radialGradient id="radialGradient5179" gradientUnits="userSpaceOnUse" cy="222.16" cx="110.93" gradientTransform="matrix(1.2172 0 0 1 -24.09 0)" r="183.91">
   <stop id="stop5175" style="stop-color:#7469ea" offset="0"/>
   <stop id="stop5177" style="stop-color:#20157e" offset="1"/>
  </radialGradient>
  <linearGradient id="linearGradient5189" y2="222.16" xlink:href="#linearGradient5183" gradientUnits="userSpaceOnUse" x2="485.96" y1="222.16" x1="60.812"/>
  <linearGradient id="linearGradient3314" y2="47" xlink:href="#linearGradient5183" gradientUnits="userSpaceOnUse" x2="53" y1="79" x1="53"/>
  <radialGradient id="radialGradient3361" gradientUnits="userSpaceOnUse" cy="388.71" cx="235.33" gradientTransform="matrix(.21620 0 0 .19023 -8.1339 -4.4827)" r="126.07">
   <stop id="stop3787" style="stop-color:#fff" offset="0"/>
   <stop id="stop3789" style="stop-color:#fff;stop-opacity:0" offset="1"/>
  </radialGradient>
  <radialGradient id="radialGradient3364" xlink:href="#linearGradient10381" gradientUnits="userSpaceOnUse" cy="205.85" cx="129.83" gradientTransform="matrix(.076370 .062814 -.10476 .12737 40.084 18.248)" r="169.41"/>
  <linearGradient id="linearGradient3367" y2="336.95" xlink:href="#linearGradient5537" gradientUnits="userSpaceOnUse" x2="452" gradientTransform="matrix(.15625 0 0 .15625 8.134 7.6852)" y1="546.04" x1="508.03"/>
  <radialGradient id="radialGradient3370" xlink:href="#linearGradient2762" gradientUnits="userSpaceOnUse" cy="188.13" cx="142.7" gradientTransform="matrix(.26790 0 0 .17169 14.873 33.905)" r="76.514"/>
  <radialGradient id="radialGradient3539" xlink:href="#linearGradient5537" gradientUnits="userSpaceOnUse" cy="126.36" cx="211.68" gradientTransform="matrix(.28610 -.0073604 .0090985 .35366 7.2814 -35.267)" r="14.333"/>
  <radialGradient id="radialGradient3543" xlink:href="#linearGradient5537" gradientUnits="userSpaceOnUse" cy="137.96" cx="231.54" gradientTransform="matrix(.11938 .15710 -.28668 .21785 84.486 -55.854)" r="22.608"/>
  <radialGradient id="radialGradient3546" gradientUnits="userSpaceOnUse" cy="231.32" cx="221.52" gradientTransform="matrix(.19059 .051069 -.033529 .12513 31.182 -11.854)" r="13.714">
   <stop id="stop7359" style="stop-color:#fff" offset="0"/>
   <stop id="stop7361" style="stop-color:#fff;stop-opacity:0" offset="1"/>
  </radialGradient>
  <radialGradient id="radialGradient3550" xlink:href="#linearGradient5537" gradientUnits="userSpaceOnUse" cy="186.6" cx="221.8" gradientTransform="matrix(-.038184 .14250 -.17468 -.046805 108.51 -.95997)" r="66.984"/>
  <radialGradient id="radialGradient3566" xlink:href="#linearGradient5537" gradientUnits="userSpaceOnUse" cy="141.67" cx="167.69" gradientTransform="matrix(-.19080 -.11016 -.15521 .18893 135.66 5.8079)" r="21.773"/>
  <radialGradient id="radialGradient3569" xlink:href="#linearGradient5537" gradientUnits="userSpaceOnUse" cy="141.67" cx="167.69" gradientTransform="matrix(.22031 -7.0696e-8 .039952 .24123 17.398 -25.881)" r="21.773"/>
  <linearGradient id="linearGradient3572" y2="36.701" xlink:href="#linearGradient10381" gradientUnits="userSpaceOnUse" x2="183.82" gradientTransform="matrix(.15625 0 0 .15625 8.134 7.6852)" y1="306.92" x1="339.83"/>
  <radialGradient id="radialGradient3577" xlink:href="#linearGradient5537" gradientUnits="userSpaceOnUse" cy="89.625" cx="262.1" gradientTransform="matrix(.15625 0 0 .070334 8.134 16.401)" r="142.27"/>
  <radialGradient id="radialGradient3580" xlink:href="#linearGradient2762" gradientUnits="userSpaceOnUse" cy="98.51" cx="104.98" gradientTransform="matrix(.40453 0 0 .26073 -2.8933 7.7157)" r="94.905"/>
 </defs>
 <metadata id="metadata2413">
  <rdf:RDF>
   <cc:Work rdf:about="">
    <dc:format>image/svg+xml</dc:format>
    <dc:type rdf:resource="http://purl.org/dc/dcmitype/StillImage"/>
    <dc:title/>
   </cc:Work>
  </rdf:RDF>
 </metadata>
 <g id="layer2" style="display:none">
  <rect id="rect3745" style="opacity:.9;filter:url(#filter3174);fill:url(#ButtonShadow)" rx="6" ry="6" height="85" width="86" y="7" x="5"/>
 </g>
 <g id="layer3">
  <path id="path3786" style="opacity:0.08;fill:url(#linearGradient3780)" d="m12-95.031c-5.5111 0-10.031 4.5202-10.031 10.031v71c0 5.5111 4.5202 10.031 10.031 10.031h72c5.5111 0 10.031-4.5202 10.031-10.031v-71c0-5.5111-4.5202-10.031-10.031-10.031h-72z" transform="scale(1,-1)"/>
  <path id="path3778" style="opacity:.1;fill:url(#linearGradient3780)" d="m12-94.031c-4.9716 0-9.0312 4.0596-9.0312 9.0312v71c0 4.9716 4.0596 9.0312 9.0312 9.0312h72c4.9716 0 9.0312-4.0596 9.0312-9.0312v-71c0-4.9716-4.0596-9.0312-9.0312-9.0312h-72z" transform="scale(1,-1)"/>
  <path id="path3770" style="opacity:.2;fill:url(#linearGradient3780)" d="m12-93c-4.4091 0-8 3.5909-8 8v71c0 4.4091 3.5909 8 8 8h72c4.4091 0 8-3.5909 8-8v-71c0-4.4091-3.5909-8-8-8h-72z" transform="scale(1,-1)"/>
  <rect id="rect3723" style="opacity:.3;fill:url(#linearGradient3780)" transform="scale(1,-1)" rx="7" ry="7" height="85" width="86" y="-92" x="5"/>
  <rect id="rect3716" style="opacity:.45;fill:url(#linearGradient3721)" transform="scale(1,-1)" rx="6" ry="6" height="84" width="84" y="-91" x="6"/>
 </g>
 <g id="layer1">
  <rect id="rect2419" style="fill:url(#linearGradient3617)" rx="6" ry="6" height="84" width="84" y="6" x="6"/>
  <path id="rect3728" style="opacity:.3;fill:url(#linearGradient3188)" d="m12 6c-3.324 0-6 2.676-6 6v2 68 2c0 0.33472 0.04135 0.6507 0.09375 0.96875 0.0487 0.2956 0.09704 0.59692 0.1875 0.875 0.00988 0.03038 0.020892 0.0636 0.03125 0.09375 0.098865 0.28777 0.23488 0.54745 0.375 0.8125 0.14459 0.27351 0.31562 0.53562 0.5 0.78125 0.18438 0.24564 0.37378 0.47347 0.59375 0.6875 0.43995 0.42806 0.94291 0.81453 1.5 1.0938 0.27854 0.13961 0.57347 0.24695 0.875 0.34375-0.2562-0.10022-0.48671-0.23627-0.71875-0.375-0.00741-0.0044-0.023866 0.0045-0.03125 0-0.031933-0.0193-0.062293-0.04251-0.09375-0.0625-0.1204-0.0767-0.23102-0.16351-0.34375-0.25-0.10617-0.0808-0.21328-0.16111-0.3125-0.25-0.1778-0.162-0.3473-0.346-0.4999-0.531-0.1075-0.131-0.2183-0.266-0.3124-0.407-0.0251-0.038-0.0385-0.086-0.0626-0.125-0.0647-0.103-0.1302-0.204-0.1874-0.312-0.1011-0.195-0.2057-0.416-0.2813-0.625-0.008-0.022-0.0236-0.041-0.0313-0.063-0.0318-0.092-0.0358-0.187-0.0624-0.281-0.0304-0.107-0.0704-0.203-0.0938-0.313-0.0729-0.341-0.125-0.698-0.125-1.062v-2-68-2c0-2.782 2.2182-5 5-5h2 68 2c2.7818 0 5 2.2182 5 5v2 68 2c0 0.3643-0.05212 0.72099-0.125 1.0625-0.04415 0.20689-0.08838 0.39766-0.15625 0.59375-0.0077 0.02195-0.0233 0.04069-0.03125 0.0625-0.06274 0.17374-0.13838 0.36745-0.21875 0.53125-0.04158 0.0828-0.07904 0.16995-0.125 0.25-0.0546 0.09721-0.12677 0.18835-0.1875 0.28125-0.09411 0.14096-0.20492 0.276-0.3125 0.40625-0.14317 0.17445-0.30314 0.347-0.46875 0.5-0.01117 0.0102-0.01998 0.02115-0.03125 0.03125-0.13839 0.12556-0.28509 0.23444-0.4375 0.34375-0.10257 0.07315-0.20432 0.15336-0.3125 0.21875-0.0074 0.0045-0.02384-0.0044-0.03125 0-0.23204 0.13873-0.46255 0.27478-0.71875 0.375 0.30153-0.0968 0.59646-0.20414 0.875-0.34375 0.55709-0.27922 1.0601-0.66569 1.5-1.0938 0.21997-0.21403 0.40937-0.44186 0.59375-0.6875s0.35541-0.50774 0.5-0.78125c0.14012-0.26505 0.27614-0.52473 0.375-0.8125 0.01041-0.03078 0.02133-0.06274 0.03125-0.09375 0.09046-0.27808 0.1388-0.5794 0.1875-0.875 0.053-0.318 0.094-0.634 0.094-0.969v-2-68-2c0-3.324-2.676-6-6-6h-72z"/>
  <path id="path3615" style="opacity:.15;fill:url(#radialGradient3619)" d="m12 90c-3.324 0-6-2.676-6-6v-2-68-2c0-0.33472 0.04135-0.6507 0.09375-0.96875 0.0487-0.2956 0.09704-0.59692 0.1875-0.875 0.0099-0.03 0.0209-0.063 0.0313-0.094 0.0989-0.2873 0.2349-0.547 0.375-0.812 0.1446-0.2735 0.3156-0.5356 0.5-0.7812 0.1844-0.2457 0.3738-0.4735 0.5937-0.6876 0.44-0.428 0.943-0.8145 1.5-1.0937 0.2786-0.1396 0.5735-0.2469 0.8748-0.3437-0.256 0.1002-0.4865 0.2362-0.7185 0.375-0.00741 0.0044-0.023866-0.0045-0.03125 0-0.031933 0.0193-0.062293 0.04251-0.09375 0.0625-0.1204 0.0767-0.23102 0.16351-0.34375 0.25-0.10617 0.0808-0.21328 0.16111-0.3125 0.25-0.1779 0.1614-0.3474 0.3453-0.5 0.5312-0.1075 0.1303-0.2183 0.2653-0.3124 0.4063-0.0251 0.0383-0.0385 0.0858-0.0626 0.125-0.0647 0.103-0.1302 0.2045-0.1874 0.3124-0.1011 0.1948-0.2057 0.4158-0.2813 0.625-0.008 0.0219-0.0236 0.0406-0.0313 0.0626-0.0318 0.0919-0.0358 0.1868-0.0624 0.2812-0.0304 0.1066-0.0704 0.203-0.0938 0.3125-0.0729 0.3415-0.125 0.6985-0.125 1.0625v2 68 2c0 2.7818 2.2182 5 5 5h2 68 2c2.7818 0 5-2.2182 5-5v-2-68-2c0-0.364-0.052-0.721-0.125-1.0625-0.044-0.2069-0.088-0.3977-0.156-0.5937-0.008-0.022-0.024-0.0407-0.031-0.0626-0.063-0.1737-0.139-0.3674-0.219-0.5312-0.042-0.0828-0.079-0.17-0.125-0.25-0.055-0.0972-0.127-0.1884-0.188-0.2812-0.094-0.141-0.205-0.276-0.312-0.4063-0.143-0.1745-0.303-0.347-0.469-0.5-0.011-0.0102-0.02-0.0211-0.031-0.0313-0.139-0.1255-0.285-0.2344-0.438-0.3437-0.102-0.0731-0.204-0.1534-0.312-0.2187-0.0074-0.0045-0.02384 0.0044-0.03125 0-0.23204-0.13873-0.46255-0.27478-0.71875-0.375 0.30153 0.0968 0.59646 0.20414 0.875 0.34375 0.55709 0.27922 1.0601 0.66569 1.5 1.0938 0.21997 0.21403 0.40937 0.44186 0.59375 0.6875s0.35541 0.50774 0.5 0.78125c0.14012 0.26505 0.27614 0.52473 0.375 0.8125 0.01041 0.03078 0.02133 0.06274 0.03125 0.09375 0.09046 0.27808 0.1388 0.5794 0.1875 0.875 0.053 0.318 0.094 0.634 0.094 0.969v2 68 2c0 3.324-2.676 6-6 6h-72z"/>
 </g>
 <g id="layer5">
  <rect id="rect3171" style="opacity:.1;filter:url(#filter3794);stroke:#fff;stroke-linecap:round;stroke-width:.5;fill:url(#linearGradient3613)" clip-path="url(#clipPath3613)" rx="12" ry="12" height="66" width="66" y="15" x="15"/>
 </g>
 <g id="layer6">
  <path id="path5155" style="opacity:.4;color:#000000;fill:url(#radialGradient5165)" d="m72 80a24 8 0 1 1 -48 0 24 8 0 1 1 48 0z" transform="matrix(1.3333 0 0 1 -16 0)"/>
  <path id="path6358" style="fill:url(#radialGradient5169)" d="m428.63 222.16a183.91 183.91 0 1 1 -367.82 0 183.91 183.91 0 1 1 367.82 0z" transform="matrix(0 .13011 .13011 0 -60.768 7.9829)"/>
  <path id="path8142" style="fill:url(#radialGradient5167)" d="m428.63 222.16a183.91 183.91 0 1 1 -367.82 0 183.91 183.91 0 1 1 367.82 0z" transform="matrix(0 -.10436 .14031 0 -63.035 86.358)"/>
  <path id="path1872" style="fill:url(#radialGradient5179)" d="m428.63 222.16a183.91 183.91 0 1 1 -367.82 0 183.91 183.91 0 1 1 367.82 0z" transform="matrix(0 -.17870 .17870 0 8.4373 91.822)"/>
  <path id="path5461" style="fill:url(#radialGradient5171)" d="m428.63 222.16a183.91 183.91 0 1 1 -367.82 0 183.91 183.91 0 1 1 367.82 0z" transform="matrix(0 -.17870 .17870 0 8.4373 91.822)"/>
  <g id="g11789" style="opacity:.5" transform="matrix(.17870 0 0 .17870 4.4061 8.3925)">
   <path id="path8152" style="fill:url(#linearGradient5050);fill-rule:evenodd" d="m201.58 398.67s-175.99-177.97 32.579-358.78c-235.79 180.15-32.03 357.83-32.58 358.78z"/>
   <path id="path9971" style="fill:url(#linearGradient5052);fill-rule:evenodd" d="m418.06 185.19s-177.97-175.99-358.78 32.58c180.16-235.8 357.84-32.04 358.78-32.58z"/>
   <path id="path9981" style="fill:url(#linearGradient5054);fill-rule:evenodd" d="m66.938 267.02s177.97 175.99 358.78-32.58c-180.16 235.8-357.84 32.04-358.78 32.58z"/>
   <path id="path9983" style="fill:url(#linearGradient5056);fill-rule:evenodd" d="m283.42 47.542s175.99 177.97-32.579 358.78c235.79-180.15 32.03-357.84 32.58-358.78z"/>
   <path id="path9993" style="fill:url(#radialGradient5058);fill-rule:evenodd" d="m92 316s170.42-72.47 308.71-178.23c-161.71 68.23-309.71 178.23-308.71 178.23z"/>
   <path id="path10888" style="fill:url(#radialGradient5060);fill-rule:evenodd" d="m335.47 381.24s-72.468-170.42-178.23-308.71c68.234 161.71 178.23 309.71 178.23 308.71z"/>
  </g>
  <path id="path12694" style="fill:url(#radialGradient5024)" d="m176 148.5a19.5 19.5 0 1 1 -39 0 19.5 19.5 0 1 1 39 0z" transform="matrix(.33448 0 0 .33448 -3.8918 -.62478)"/>
  <path id="path5181" style="opacity:.8;fill:url(#linearGradient5189)" d="m428.63 222.16a183.91 183.91 0 1 1 -367.82 0 183.91 183.91 0 1 1 367.82 0z" transform="matrix(0 .091197 .12976 0 19.31 10.682)"/>
  <path id="path5191" style="opacity:.4;fill:url(#linearGradient3314)" d="m17.031 47.094c-0.01 0.334-0.031 0.662-0.031 1 0 17.196 13.929 31.125 31.125 31.125s31.156-13.929 31.156-31.125c0-0.33708-0.02062-0.66551-0.03125-1-0.53177 16.73-14.266 30.125-31.125 30.125s-30.562-13.395-31.094-30.125z"/>
  <path id="path12738" style="fill:url(#radialGradient5024)" d="m176 148.5a19.5 19.5 0 1 1 -39 0 19.5 19.5 0 1 1 39 0z" transform="matrix(.17870 0 0 .17870 .83215 33.589)"/>
  <path id="path12750" style="fill:url(#radialGradient5024)" d="m176 148.5a19.5 19.5 0 1 1 -39 0 19.5 19.5 0 1 1 39 0z" transform="matrix(.14204 0 0 .14204 9.0705 44.929)"/>
  <path id="path12758" style="fill:url(#radialGradient5024)" d="m176 148.5a19.5 19.5 0 1 1 -39 0 19.5 19.5 0 1 1 39 0z" transform="matrix(.087057 0 0 .087057 11.242 49.699)"/>
  <path id="path12734" style="fill:url(#radialGradient5024)" d="m176 148.5a19.5 19.5 0 1 1 -39 0 19.5 19.5 0 1 1 39 0z" transform="matrix(.17870 0 0 .17870 30.496 40.2)"/>
  <path id="path12742" style="fill:url(#radialGradient5024)" d="m176 148.5a19.5 19.5 0 1 1 -39 0 19.5 19.5 0 1 1 39 0z" transform="matrix(.14204 0 0 .14204 41.951 44.214)"/>
  <path id="path12746" style="fill:url(#radialGradient5024)" d="m176 148.5a19.5 19.5 0 1 1 -39 0 19.5 19.5 0 1 1 39 0z" transform="matrix(.087057 0 0 .087057 46.445 57.919)"/>
  <path id="path12726" style="fill:url(#radialGradient5024)" d="m176 148.5a19.5 19.5 0 1 1 -39 0 19.5 19.5 0 1 1 39 0z" transform="matrix(.17870 0 0 .17870 9.9456 4.1038)"/>
  <path id="path12754" style="fill:url(#radialGradient5024)" d="m176 148.5a19.5 19.5 0 1 1 -39 0 19.5 19.5 0 1 1 39 0z" transform="matrix(.14204 0 0 .14204 9.0705 11.691)"/>
  <path id="path12762" style="fill:url(#radialGradient5024)" d="m176 148.5a19.5 19.5 0 1 1 -39 0 19.5 19.5 0 1 1 39 0z" transform="matrix(.087057 0 0 .087057 21.785 13.423)"/>
  <path id="path12714" style="fill:url(#radialGradient5024)" d="m176 148.5a19.5 19.5 0 1 1 -39 0 19.5 19.5 0 1 1 39 0z" transform="matrix(.087057 0 0 .087057 58.061 22.537)"/>
  <path id="path12730" style="fill:url(#radialGradient5024)" d="m176 148.5a19.5 19.5 0 1 1 -39 0 19.5 19.5 0 1 1 39 0z" transform="matrix(.17870 0 0 .17870 38.894 11.252)"/>
  <path id="path12698" style="fill:url(#radialGradient5024)" d="m176 148.5a19.5 19.5 0 1 1 -39 0 19.5 19.5 0 1 1 39 0z" transform="matrix(.14204 0 0 .14204 42.844 10.977)"/>
 </g>
 <g id="layer4">
  <path id="path5222" style="fill:#ff2a2a;fill-rule:evenodd" d="m110.56 50.062v1.1562l-0.8125-0.53125v0.625l-0.9375-0.5 0.21875 0.5-0.84375-0.40625 0.0937 1.0312-0.8125-0.8125 0.3125 1.4375-0.84375-0.40625 0.71875 1.875-1.0312-1.3438 0.71875 1.8438-0.625-0.40625 0.84375 1.6562-0.71875-0.625 0.8125 1.1562-0.71875-0.40625s3.735 7.0418 9.9688 11.094c6.2338 4.0519 15.265 10.516 29.188 8.75 13.922-1.7662 13.312-17.375 13.312-17.375-4.7792 10.805-8.9818 12.555-17.781 8.2188-11.09-5.468-27.09-14.969-27.09-14.969l-0.125 0.75-1.52-1.375v0.4375l-0.75-0.75-0.0937 0.625-0.71875-1.0312v0.84375l-0.75-1.0625z"/>
  <path id="path5220" style="opacity:.05;fill-rule:evenodd" d="m30.281 49.031c-0.03505 0.0055-0.12777 0.03178-0.125 0.03125 0.0034-0.000656-0.12838 0.03214-0.125 0.03125 0.0034-0.000892-0.12831 0.03237-0.125 0.03125 0.0033-0.0011-0.15947 0.06385-0.15625 0.0625 0.0032-0.0014-0.12812 0.06407-0.125 0.0625 0.0031-0.0016-0.128 0.06428-0.125 0.0625 0.003-0.0018-0.12787 0.06449-0.125 0.0625 0.0029-0.002-0.09648 0.09593-0.09375 0.09375 0.0027-0.0022-0.12757 0.09612-0.125 0.09375 0.0026-0.0024-0.09615 0.09629-0.09375 0.09375 0.0024-0.0025-0.09597 0.1277-0.09375 0.125-0.03087-0.0016-0.09576-0.000053-0.09375 0 0.0027 0.000071-0.09643 0.000071-0.09375 0 0.0027-0.000071-0.12767 0.000214-0.125 0 0.0027-0.000214-0.09641 0.0316-0.09375 0.03125 0.0027-0.000355-0.09638 0.000496-0.09375 0 0.0026-0.000496-0.1276 0.03189-0.125 0.03125 0.0026-0.000635-0.09631 0.03202-0.09375 0.03125-0.01056-0.000697-0.03194-0.000026-0.03125 0 0.0027 0.000104-0.0965 0.000047-0.09375 0 0.0027-0.000047-0.12774 0.000197-0.125 0 0.0027-0.000197-0.09648 0.0316-0.09375 0.03125 0.0027-0.000346-0.1277 0.000495-0.125 0s-0.09642 0.03189-0.09375 0.03125c0.0027-0.000642-0.12764 0.03204-0.125 0.03125 0.0026-0.000787-0.09634 0.03218-0.09375 0.03125 0.0026-0.00093-0.12753 0.03232-0.125 0.03125 0.0025-0.0011-0.09622 0.06371-0.09375 0.0625-0.03049 0.003-0.06396 0.000188-0.0625 0 0.0012-0.00015-0.0081 0.02757-0.03125 0.03125-0.03479 0.0055-0.06423 0.000327-0.0625 0 0.0029-0.000545-0.12785 0.03196-0.125 0.03125 0.0029-0.000712-0.1278 0.03213-0.125 0.03125 0.0028-0.000878-0.0965 0.03229-0.09375 0.03125 0.0027-0.001-0.12768 0.03245-0.125 0.03125 0.0027-0.0012-0.09636 0.06385-0.09375 0.0625 0.0026-0.0014-0.12753 0.064-0.125 0.0625 0.0025-0.0015-0.09618 0.06415-0.09375 0.0625 0.0024-0.0016-0.09608 0.06429-0.09375 0.0625 0.0023-0.0018-0.09597 0.09567-0.09375 0.09375 0.0022-0.0019-0.09586 0.06455-0.09375 0.0625 0.0021-0.002-0.09574 0.09592-0.09375 0.09375 0.002-0.0022-0.06436 0.09603-0.0625 0.09375 0.0019-0.0023-0.06422 0.09613-0.0625 0.09375 0.0017-0.0024-0.09533 0.09623-0.09375 0.09375 0.0016-0.0025-0.03268 0.09632-0.03125 0.09375 0.0014-0.0026-0.06378 0.12765-0.0625 0.125 0.0013-0.0026-0.06362 0.09647-0.0625 0.09375 0.0011-0.0027-0.03221 0.12778-0.03125 0.125 0.000961-0.0028-0.03205 0.09658-0.03125 0.09375 0.000797-0.0028-0.03188 0.12787-0.03125 0.125 0.000297-0.0014 0.0053 0.03427 0 0.0625-0.000668 0.0035-0.03058-0.0035-0.03125 0-0.02267 0.02453-0.06401 0.06423-0.0625 0.0625 0.002-0.0023-0.06433 0.09612-0.0625 0.09375 0.0018-0.0024-0.06418 0.12747-0.0625 0.125 0.0017-0.0025-0.06404 0.09632-0.0625 0.09375 0.0015-0.0026-0.06388 0.0964-0.0625 0.09375 0.0014-0.0027-0.06372 0.12773-0.0625 0.125 0.0012-0.0027-0.03231 0.09655-0.03125 0.09375 0.0011-0.0028-0.06339 0.12786-0.0625 0.125 0.0021-0.003-0.09558 0.12811-0.09375 0.125 0.0018-0.0031-0.06411 0.12824-0.0625 0.125 0.0016-0.0032-0.06387 0.12834-0.0625 0.125 0.0014-0.0033-0.06362 0.15968-0.0625 0.15625 0.0011-0.0034-0.03213 0.1285-0.03125 0.125 0.000876-0.0035-0.03187 0.15981-0.03125 0.15625 0.000623-0.0036-0.000366 0.15984 0 0.15625 0.000366-0.0036-0.03136 0.12861-0.03125 0.125 0.000107-0.0036 0.000152 0.15986 0 0.15625-0.000152-0.0036 0.03166 0.15984 0.03125 0.15625-0.000411-0.0036 0.000667 0.12855 0 0.125-0.000667-0.0035 0.03217 0.15974 0.03125 0.15625-0.00092-0.0035 0.06367 0.12842 0.0625 0.125a1.0999 1.0999 0 0 0 0 0.0625l0.0625 0.125c-0.0096 0.03516-0.06315 0.09648-0.0625 0.09375 0.00081-0.0034-0.03182 0.15971-0.03125 0.15625 0.00057-0.0035-0.000328 0.12849 0 0.125 0.000328-0.0035-0.000083 0.15976 0 0.15625 0.000083-0.0035 0.000161 0.1285 0 0.125s0.000405 0.15974 0 0.15625c-0.000405-0.0035 0.0319 0.12845 0.03125 0.125-0.000647-0.0034 0.03214 0.15964 0.03125 0.15625-0.000886-0.0034 0.03237 0.12832 0.03125 0.125-0.00027-0.000803 0.02676 0.01936 0.03125 0.03125 0.0064 0.01698-0.0086 0.03962 0 0.0625-0.0039 0.03006-0.000144 0.06395 0 0.0625 0.000288-0.0029-0.000121 0.1279 0 0.125s0.000047 0.12791 0 0.125c-0.000047-0.0029 0.000215 0.09665 0 0.09375s0.000382 0.12788 0 0.125c-0.000382-0.0029 0.0318 0.12786 0.03125 0.125-0.000548-0.0029 0.03196 0.12782 0.03125 0.125-0.000285-0.0011 0.02491 0.0089 0.03125 0.03125 0.0095 0.03352 0.000524 0.06416 0 0.0625-0.0035 0.06007-0.03129 0.12832-0.03125 0.125 0.000053-0.0049 0.03167 0.22364 0.03125 0.21875-0.000425-0.0049 0.03215 0.19232 0.03125 0.1875-0.000899-0.0048 0.03261 0.19221 0.03125 0.1875-0.0014-0.0047 0.06432 0.19206 0.0625 0.1875-0.0018-0.0046 0.096 0.19186 0.09375 0.1875 0 0 3.8309 7.4385 10.656 11.875 6.1574 4.0023 15.907 10.922 30.562 9.0625 7.722-0.97966 11.766-6.0416 13.531-10.625 1.7594-4.5684 1.5625-8.8438 1.5625-8.8438a1.0999 1.0999 0 0 0 0 -0.03125c0.000205 0.0042-0.000554-0.16041 0-0.15625 0.000554 0.0042-0.03215-0.1916-0.03125-0.1875 0.000899 0.0041-0.06374-0.16026-0.0625-0.15625 0.0012 0.004-0.06407-0.16014-0.0625-0.15625 0.0016 0.0039-0.06439-0.16-0.0625-0.15625 0.0019 0.0037-0.06469-0.15983-0.0625-0.15625 0.0022 0.0036-0.09623-0.12838-0.09375-0.125 0.0025 0.0034-0.12776-0.15942-0.125-0.15625 0.0028 0.0032-0.12801-0.12793-0.125-0.125 0.003 0.0029-0.12824-0.09642-0.125-0.09375 0.0032 0.0027-0.12845-0.09613-0.125-0.09375 0.0035 0.0024-0.15989-0.09584-0.15625-0.09375 0.0036 0.0021-0.16005-0.09553-0.15625-0.09375 0.0038 0.0018-0.16019-0.06396-0.15625-0.0625 0.0039 0.0015-0.16029-0.06362-0.15625-0.0625 0.004 0.0011-0.16037-0.03203-0.15625-0.03125 0.0041 0.000782-0.19168-0.03169-0.1875-0.03125 0.0042 0.000436-0.16045-0.000087-0.15625 0s-0.16044 0.000263-0.15625 0c0.0042-0.000263-0.19165 0.03186-0.1875 0.03125 0.0042-0.000611-0.16034 0.0322-0.15625 0.03125 0.0041-0.000955-0.19149 0.03254-0.1875 0.03125 0.004-0.0013-0.16012 0.06412-0.15625 0.0625 0.0039-0.0016-0.15997 0.06444-0.15625 0.0625 0.0037-0.0019-0.12855 0.09599-0.125 0.09375 0.0035-0.0022-0.1596 0.09628-0.15625 0.09375 0.0033-0.0025-0.12813 0.1278-0.125 0.125 0.0031-0.0028-0.12788 0.0968-0.125 0.09375 0.0029-0.0031-0.12762 0.15953-0.125 0.15625 0.0026-0.0033-0.09609 0.12849-0.09375 0.125 0.0023-0.0035-0.09579 0.15992-0.09375 0.15625 0.002-0.0037-0.06423 0.16008-0.0625 0.15625-2.3144 5.2326-4.4434 7.8741-6.375 8.75-1.9502 0.88432-4.4368 0.50138-8.625-1.5625-5.475-2.699-12.248-6.421-17.624-9.469-2.682-1.52-5.009-2.867-6.687-3.843-1.662-0.968-2.594-1.563-2.594-1.563a1.0999 1.0999 0 0 0 -0.03125 0c0.0029 0.0017-0.12801-0.06402-0.125-0.0625 0.003 0.0015-0.1281-0.06382-0.125-0.0625 0.0031 0.0013-0.12818-0.06361-0.125-0.0625 0.0032 0.0011-0.12825-0.03214-0.125-0.03125 0.0033 0.000892-0.1283-0.03192-0.125-0.03125 0.0033 0.000673-0.15959-0.0317-0.15625-0.03125 0.0033 0.00045-0.12836-0.000226-0.125 0 0.0034 0.000226-0.12837 0-0.125 0 0.0034 0-0.15961 0.000226-0.15625 0h-0.03125l-0.125-0.125a1.0999 1.0999 0 0 0 -0.032 -0.031c0.0038 0.0032-0.1603-0.12777-0.15625-0.125 0.004 0.0028-0.1918-0.09612-0.1875-0.09375 0.0043 0.0024-0.19201-0.09569-0.1875-0.09375 0.0045 0.0019-0.19218-0.06399-0.1875-0.0625 0.0047 0.0015-0.1923-0.06353-0.1875-0.0625 0.0016 0.000333-0.03399 0.0046-0.0625 0-0.01425-0.0023-0.01489 0.0027-0.03125 0-0.03051-0.01805-0.1602-0.1271-0.15625-0.125 0.0045 0.0024-0.19218-0.06442-0.1875-0.0625 0.0047 0.0019-0.19235-0.06394-0.1875-0.0625 0.0017 0.000503-0.03-0.02341-0.0625-0.03125 0.0027 0.0022-0.1278-0.09579-0.125-0.09375 0.0028 0.002-0.09669-0.06434-0.09375-0.0625 0.0029 0.0018-0.12806-0.09538-0.125-0.09375 0.0031 0.0016-0.12816-0.06392-0.125-0.0625 0.0032 0.0014-0.12825-0.03245-0.125-0.03125 0.0033 0.0012-0.15958-0.06347-0.15625-0.0625 0.0033 0.00097-0.12838-0.03199-0.125-0.03125 0.0034 0.000739-0.15968-0.03175-0.15625-0.03125 0.0017 0.000252-0.0266 0.004-0.0625 0 0.0014 0.000762-0.03397 0.01448-0.0625 0-0.01902-0.0097-0.03222-0.03171-0.03125-0.03125 0.0024 0.0011-0.09622-0.06352-0.09375-0.0625 0.0025 0.001-0.09627-0.03213-0.09375-0.03125 0.0025 0.000882-0.09631-0.032-0.09375-0.03125 0.0026 0.000747-0.1276-0.03186-0.125-0.03125 0.0026 0.000611-0.09638-0.000472-0.09375 0 0.0026 0.000472-0.12765-0.03158-0.125-0.03125 0.0026 0.000332-0.09641-0.000191-0.09375 0 0.0027 0.000191-0.12767-0.00005-0.125 0 0.0027 0.00005-0.09642 0.000092-0.09375 0 0.0027-0.000092-0.09641 0.000233-0.09375 0 0.002-0.000175-0.06314-0.0035-0.09375 0-0.0102 0.0012-0.03191 0.000093-0.03125 0z"/>
  <path id="path5215" style="opacity:.1;fill-rule:evenodd" d="m30.438 50.125a0.94879 0.94879 0 0 0 -0.78125 0.625 0.94879 0.94879 0 0 0 -0.46875 0.1875 0.94879 0.94879 0 0 0 -0.03125 0 0.94879 0.94879 0 0 0 -0.782 0.062 0.94879 0.94879 0 0 0 -0.031 0 0.94879 0.94879 0 0 0 -0.782 0.188 0.94879 0.94879 0 0 0 -1.031 1.124 0.94879 0.94879 0 0 0 -0.531 0.688 0.94879 0.94879 0 0 0 0 0.03125 0.94879 0.94879 0 0 0 -0.25 1l0.21875 0.53125a0.94879 0.94879 0 0 0 -0.09375 1l0.09375 0.21875a0.94879 0.94879 0 0 0 0.0625 0.84375 0.94879 0.94879 0 0 0 0.0625 0.71875s3.7716 7.2062 10.281 11.438c6.1982 4.0289 15.584 10.715 29.844 8.9062 7.3089-0.92725 10.958-5.6082 12.625-9.9375 1.6673-4.3293 1.5-8.4062 1.5-8.4062a0.94879 0.94879 0 0 0 -1.813 -0.344c-2.3557 5.3258-4.527 8.2336-6.9062 9.3125-2.3793 1.0789-5.2931 0.55679-9.5938-1.5625-5.5145-2.7175-12.272-6.4476-17.656-9.5-2.6899-1.5249-5.0422-2.8989-6.7188-3.875-1.6715-0.97318-2.625-1.5625-2.625-1.5625a0.94879 0.94879 0 0 0 -0.96875 0l-0.562-0.531a0.94879 0.94879 0 0 0 -0.688 -0.219l-0.031-0.031a0.94879 0.94879 0 0 0 -0.687 -0.281 0.94879 0.94879 0 0 0 -0.906 -0.406 0.94879 0.94879 0 0 0 -0.75 -0.219z"/>
  <path id="path5204" style="opacity:.3;fill-rule:evenodd" d="m30.562 51.062v1.1562l-0.8125-0.53125v0.625l-0.9375-0.5 0.21875 0.5-0.84375-0.40625 0.09375 1.0312-0.8125-0.8125 0.3125 1.4375-0.84375-0.40625 0.71875 1.875-1.0312-1.3438 0.71875 1.8438-0.625-0.40625 0.84375 1.6562-0.71875-0.625 0.8125 1.1562-0.71875-0.40625s3.735 7.0418 9.9688 11.094c6.2338 4.0519 15.265 10.516 29.188 8.75 13.922-1.766 13.312-17.375 13.312-17.375-4.779 10.805-8.982 12.555-17.781 8.219-5.547-2.734-12.326-6.475-17.719-9.532-2.696-1.528-5.043-2.899-6.718-3.874-1.676-0.976-2.657-1.563-2.657-1.563l-0.125 0.75-1.531-1.375v0.4375l-0.75-0.75-0.09375 0.625-0.71875-1.0312v0.84375l-0.75-1.0625z"/>
  <path id="path15159" style="fill:url(#radialGradient3370);fill-rule:evenodd" d="m78.476 61.716s0.59945 14.986-12.788 16.685c-13.388 1.698-22.08-4.496-28.074-8.392-5.995-3.897-9.591-10.69-9.591-10.69l0.69935 0.39963-0.79926-1.099 0.69935 0.59944-0.79926-1.5985 0.59944 0.39963-0.69935-1.7983 0.99907 1.2988-0.69935-1.7983 0.79926 0.39963-0.29972-1.3987 0.79926 0.79926-0.0999-0.99907 0.79926 0.39963-0.19981-0.49953 0.89916 0.49953v-0.59944l0.79926 0.49953v-1.099l0.69935 0.99907v-0.79926l0.69935 0.99907 0.09991-0.59944 0.69935 0.69935v-0.39963l1.4986 1.2988 0.09991-0.69935s15.407 9.1291 26.076 14.387c8.4617 4.1698 12.488 2.4977 17.084-7.8927z"/>
  <path id="path11276" style="fill:url(#linearGradient3367);fill-rule:evenodd" d="m79.407 58.386s0.62338 15.584-13.299 17.351c-13.922 1.766-22.961-4.675-29.195-8.727s-9.974-11.117-9.974-11.117l0.72727 0.41558-0.83117-1.1429 0.72727 0.62338-0.83116-1.6623 0.62337 0.41558-0.72727-1.8701 1.039 1.3506-0.72727-1.8701 0.83116 0.41558-0.31169-1.4545 0.83117 0.83116-0.1039-1.039 0.83117 0.41558-0.2078-0.51948 0.93506 0.51948v-0.62338l0.83116 0.51948v-1.1429l0.72727 1.039v-0.83117l0.72727 1.039 0.1039-0.62338 0.72727 0.72727v-0.41558l1.5584 1.3506 0.1039-0.72727s16.022 9.4936 27.117 14.961c8.7995 4.3362 12.987 2.5974 17.766-8.2078z"/>
  <path id="path13066" style="fill:url(#radialGradient3364);fill-rule:evenodd" d="m79.407 58.386s0.62338 15.584-13.299 17.351c-13.922 1.766-22.961-4.675-29.195-8.727s-9.974-11.117-9.974-11.117l0.72727 0.41558-0.83117-1.1429 0.72727 0.62338-0.83116-1.6623 0.62337 0.41558-0.72727-1.8701 1.039 1.3506-0.72727-1.8701 0.83116 0.41558-0.31169-1.4545 0.83117 0.83116-0.1039-1.039 0.83117 0.41558-0.2078-0.51948 0.93506 0.51948v-0.62338l0.83116 0.51948v-1.1429l0.72727 1.039v-0.83117l0.72727 1.039 0.1039-0.62338 0.72727 0.72727v-0.41558l1.5584 1.3506 0.1039-0.72727s16.022 9.4936 27.117 14.961c8.7995 4.3362 12.987 2.5974 17.766-8.2078z"/>
  <path id="path13072" style="fill:url(#radialGradient3361);fill-rule:evenodd" d="m30.838 57.839c0.177 1.8954 7.0027 6.6514 7.0027 6.6514s-4.8176-3.0215-5.9604-7.373c0.71594 2.4592 6.5841 6.0043 6.5841 6.0043s-3.3785-2.1935-5.4648-7.0191c1.4951 2.0927 5.9576 5.6689 5.9576 5.6689s-4.7777-4.6266-4.7967-7.3351c1.9899 3.9316 5.6821 5.9293 5.6821 5.9293s-2.5713-1.1123-4.6637-6.1931c2.4311 3.7116 6.5881 5.3067 6.5881 5.3067s-4.1532-2.7447-5.6914-6.0004c4.9518 3.9045 26.729 15.285 34.159 15.98-4.152 0.67976-15.87-2.8322-15.87-2.8322s9.101 3.9002 14.63 3.1968c-5.4782 0.82422-17.37-2.3468-17.37-2.3468s11.928 3.7678 16.468 3.0205c-4.6519 0.81003-19.831-2.1705-19.831-2.1705s14.746 3.2007 17.327 3.3997c-5.2538 0.69868-19.7-2.9121-19.7-2.9121s15.148 4.1961 17.647 3.5447c-4.6438 1.5152-20.177-3.248-20.177-3.248s14.259 5.2377 15.993 4.417c-9.819 1.908-24.78-6.331-28.514-15.69z"/>
  <path id="path5241" style="opacity:.1;fill-rule:evenodd" d="m26.938 52.156 0.062 0.156 0.344 0.219-0.094-0.219-0.312-0.156zm-0.3125 0.53125 0.53125 1.3438 0.5 0.28125-0.8125-1.1562 0.4375 0.375l-0.657-0.843zm0.09375 1.4375 0.84375 1.6562-0.71875-0.625 0.8125 1.1562-0.71875-0.40625s3.735 7.0418 9.9688 11.094c6.232 4.053 15.264 10.517 29.186 8.751s13.312-17.375 13.312-17.375c-0.033 0.076-0.06 0.144-0.094 0.219-0.41 4.348-2.532 13.8-13.218 15.156-13.922 1.766-22.954-4.698-29.188-8.75-5.439-3.535-8.811-9.076-9.625-10.5l-0.5625-0.375z"/>
  <path id="path5231" style="opacity:.2;fill-rule:evenodd" d="m27.469 51.125 0.0625 0.3125 0.25 0.125l-0.032-0.157-0.281-0.281zm-0.469 1.063 0.656 0.843-0.25-0.656-0.406-0.187zm-0.375 0.5 0.1875 0.5 0.375 0.25-0.5625-0.75zm0.40625 1.0938 0.3125 0.75-0.28125-0.1875 0.5 0.4375-0.53125-1zm-0.3125 0.34375 0.46875 0.9375 0.46875 0.25-0.75-1.0625-0.1875-0.125zm0.125 1.0312 0.8125 1.1562-0.71875-0.40625s3.735 7.0418 9.9688 11.094c6.2338 4.0519 15.265 10.516 29.188 8.75 13.922-1.7662 13.312-17.375 13.312-17.375-0.0099 0.02235-0.02137 0.04022-0.03125 0.0625-0.138 3.437-1.466 14.813-13.281 16.312-13.922 1.766-22.954-4.698-29.188-8.75-5.308-3.451-8.641-8.814-9.562-10.406l-0.5-0.4375z"/>
  <path id="path5236" style="opacity:.3;fill:#fff;fill-rule:evenodd" d="m30.562 50.062v1l0.75 1.0625v-0.84375l0.71875 1.0312 0.09375-0.625 0.75 0.75v-0.4375l1.5312 1.375 0.125-0.75s15.999 9.5013 27.094 14.969c8.7813 4.3273 12.983 2.5892 17.75-8.1562 0.02456-0.61291 0.03125-1.0625 0.03125-1.0625-4.779 10.807-8.982 12.557-17.781 8.221-11.095-5.468-27.094-14.969-27.094-14.969l-0.125 0.75-1.531-1.375v0.4375l-0.75-0.75-0.09375 0.625-0.71875-1.0312v0.84375l-0.75-1.0625zm-0.8125 0.625v0.625l-0.9375-0.5 0.21875 0.5-0.84375-0.40625 0.09375 1.0312 0.75 0.375-0.21875-0.5 0.9375 0.5v-0.625l0.8125 0.53125v-1l-0.812-0.53zm-1.4688 1.25-0.8125-0.8125 0.28125 1.2812 0.53125 0.53125-0.09375-1.0312 0.09375 0.03125zm-1.3438 0.21875 0.46875 1.2188 0.375 0.1875-0.25-1.125-0.59375-0.28125zm-0.3125 0.53125 0.71875 1.8438-0.15625-0.09375 0.46875 0.59375-0.71875-1.875 0.0625 0.03125-0.375-0.5zm0.09375 1.4375 0.3125 0.65625l-0.218-0.592-0.093-0.063zm0.125 1.0312 0.0625 0.09375 0.15625 0.09375-0.21875-0.1875zm0.09375 0.75s0.24576 0.4101 0.40625 0.6875l0.21875 0.1875-0.375-0.71875-0.25-0.15625z"/>
  <path id="path5246" style="fill:#f00;fill-rule:evenodd" d="m150.41 1.5c-0.64469 0.021557-1.4739 0.378-1.875 1.875-0.23526-1.1497-2.75-0.875-2.75-0.875s0.83313 0.5887 0.8125 1.0312c-0.43195 0.048891-0.86038 0.12882-1.2812 0.21875-0.1824-0.40598 0.0525-1.219-0.0625-1.7812-0.35661 0.54012-0.52104 1.3175-0.59375 1.9375-0.40956 0.11051-0.79518 0.25369-1.1875 0.40625-1.4705-2.5021-3.8811-3.6095-6.7812-1.8125-1.5749 0.97585-2.3146 2.5203-2.5312 4.25-4.5987 0.95616-9.7937 1.7812-14.344 1.7812-11.135 0-17.459 7.3543-17.562 19.406-0.1039 12.052 1.6696 14.959 2.8125 15.375 1.1428 0.41558 0.4375-0.40625 0.4375-0.40625l0.8125 0.53125v-0.53125l0.71875 0.09375 0.4375-0.8125h0.9375s0.82265-0.41031 0.71875-1.9688c-0.10389-1.5584 0.83117-1.8892 0-3.3438-0.83116-1.4545-1.7561-14.118-0.0937-15.469 1.6623-1.3506 6.7395-4.4602 10.688-5.1875 3.948-0.72727 6.7634-1.7873 15.906-0.125 0.005 0.61093 0.0573 1.3189 0.15625 2.2188 0.52346 4.7588 2.1329 5.5122 4.2812 9.2812 2.6125 4.6674 6.3627 5.4722 10.906 2.9375 3.745-2.1899 5.5408-2.0472 8.375-5.9062 0.58102-0.79112 0.99353-1.4123 1.3125-1.9688 0.68098-0.50348 1.3554-1.0184 2-1.4375 3.1549-2.1171 6.8913-6.5677 4.7812-10.5-1.706-3.1795-4.5667-3.243-7.2188-1.5312-0.24183-0.34067-0.50025-0.65428-0.78125-0.96875 0.1996-0.41757 0.4957-1.1334 0.46875-1.7188-0.40577 0.4752-0.52977 1.6003-1.1875 0.9375-0.65772-0.66284 0.65625-0.78125 0.65625-0.78125s-1.3652-1.0398-1.9062-0.40625c0.51093-1.9068-1.0312-2.0312-1.0312-2.0312s0.63883 0.6659 0.40625 1.1875c-0.0778 0.17428-0.25509 0.25579-0.46875 0.28125-0.23547-0.14131-0.47438-0.27726-0.71875-0.40625-0.0549-0.15554-0.0683-0.33776 0-0.59375-0.40698-0.14501-0.73987-0.036556-0.96875 0.15625-0.17783-0.079104-0.35017-0.17725-0.53125-0.25l0.34-1.6545-0.94 1.4375c-0.13787-0.049197-0.26695-0.079481-0.40625-0.125-0.0429-0.58417-0.30072-1.2657-1.2188-1.4375-0.15562 0.58081-0.45043 0.83534-0.78125 0.90625-0.23687-0.045312-0.48051-0.090362-0.71875-0.125-0.32231-0.17698-0.56112-0.47318-0.53125-0.78125 0.077-0.79434 1.375-1.125 1.375-1.125s-0.10893-0.076821-0.3125-0.125c-0.15267-0.036134-0.3476-0.069686-0.5625-0.0625z"/>
  <path id="path5267" style="opacity:.05;fill-rule:evenodd" d="m70.344 0.59375c-1.85 0.70239-3.1687 1.4663-5 0.46875-1.085-0.34099-1.773 1.3048-2.122 1.2001-3.38-3.3781-9.646-0.6527-10.441 3.7999-4.987 1.0586-10.07 1.6023-15.165 1.6588-6.53 0.388-12.743 4.4897-15.212 10.624-2.7402 6.3857-2.2414 13.546-1.5856 20.299 0.50505 2.7725 0.89585 6.7731 4.1732 7.5843 1.0417 0.21981 2.082 0.06326 2.9146-0.57176 0.60697-0.66432 1.4546-0.69566 2.1071-1.3881 1.3303-2.02 1.601-4.9022 0.83044-7.1744-0.89545-4.2966-1.1291-8.8295-0.5-13.188 2.644-2.0806 5.8379-3.7036 9.0987-4.7057 4.6959-1.2049 9.6052-1.3847 14.37-0.45051 0.03805 3.8264 2.0767 7.1396 4.2228 10.151 1.6793 3.5692 5.3885 6.6347 9.5411 5.8368 3.2452-0.5249 5.8954-2.6247 8.8611-3.8941 2.6811-1.3466 4.2407-4.0259 6.0883-6.1995 3.8158-2.5156 7.7749-6.3312 7.3525-11.302-0.301-3.7789-4.28-7.272-8.097-5.842 0.086-1.1061-1.076-2.0778-2.156-1.875-0.662-1.676-2.796-1.7731-3.781-3-0.699-0.839-1.977-0.5779-2.688-0.1562-0.143-1.3237-1.619-1.9362-2.812-1.875z"/>
  <path id="path5263" style="opacity:.1;fill-rule:evenodd" d="m70.375 1.5c-0.491 0.0164-1.099 0.1906-1.625 0.625-0.19 0.1572-0.281 0.5003-0.438 0.7188-0.393-0.1752-0.766-0.2716-1.124-0.3126-0.565-0.0643-0.807-0.0503-1.063-0.0312a0.99389 0.99389 0 0 0 -1.719 -0.0938c-0.376 0.5698-0.428 1.1562-0.531 1.7188-0.03097 0.010439-0.06312 0.020637-0.09375 0.03125-0.76896-1.0529-1.6883-1.9355-2.875-2.3125-1.4456-0.4592-3.1174-0.19906-4.75 0.8125-1.6048 0.99439-2.3828 2.5678-2.75 4.2188-4.4264 0.90013-9.3386 1.6562-13.594 1.6562-5.7865 0-10.471 1.9622-13.656 5.5312-3.1856 3.5691-4.8528 8.677-4.9062 14.875-0.05238 6.0754 0.36094 9.8582 0.96875 12.281 0.60781 2.4231 1.3842 3.6255 2.5 4.0312 0.35372 0.12863 0.60192 0.25299 1.0938 0.15625 0.02818-0.0055 0.06287-0.05291 0.09375-0.0625a0.99389 0.99389 0 0 0 1.187 -0.343 0.99389 0.99389 0 0 0 0.0625 -0.03125 0.99389 0.99389 0 0 0 0.75 -0.5l0.15625-0.28125h0.34375a0.99389 0.99389 0 0 0 0.4375 -0.125s0.4698-0.2693 0.78125-0.75 0.56392-1.1976 0.5-2.1562c-0.03847-0.57712 0.10385-0.83192 0.25-1.4062 0.14615-0.57433 0.13633-1.4802-0.375-2.375 0.0305 0.05338-0.1254-0.27021-0.21875-0.71875s-0.19474-1.0619-0.28125-1.75c-0.17302-1.3763-0.31239-3.1147-0.375-4.8438-0.06261-1.729-0.03344-3.4532 0.09375-4.7812 0.06359-0.66403 0.14246-1.2358 0.25-1.625 0.10754-0.38923 0.29215-0.55378 0.1875-0.46875 1.4731-1.1969 6.649-4.3367 10.25-5 3.901-0.7186 6.4567-1.6395 14.781-0.21875 0.0266 0.45678 0.03099 0.86672 0.09375 1.4375 0.27321 2.4838 0.89633 4.0585 1.6875 5.4062s1.6833 2.4647 2.7188 4.2812c1.3933 2.4893 3.1953 4.0764 5.3438 4.625 2.1485 0.54858 4.4938 0.03332 6.9062-1.3125a0.99389 0.99389 0 0 0 0.032 -0.032c1.804-1.055 3.166-1.539 4.531-2.313 1.3651-0.77356 2.6764-1.8288 4.1562-3.8438 0.53476-0.72813 0.92366-1.2939 1.25-1.8438 0.63312-0.46967 1.2283-0.95294 1.7812-1.3125a0.99389 0.99389 0 0 0 0.03125 -0.03125c1.6943-1.1369 3.4872-2.8231 4.6562-4.875s1.6819-4.5871 0.4375-6.9062c-0.96113-1.7912-2.3895-2.8751-3.9688-3.125-1.2895-0.20404-2.5758 0.20818-3.8125 0.84375 0.18268-0.44255 0.40515-0.84516 0.375-1.5a0.99389 0.99389 0 0 0 -1.405 -0.8752c-0.17-0.1098-0.197-0.161-0.469-0.2813-0.162-0.0716-0.391-0.1076-0.593-0.1563-0.102-0.5915-0.309-1.1151-0.657-1.4062-0.59246-0.49629-1.25-0.53125-1.25-0.53125a0.99389 0.99389 0 0 0 -0.96875 0.5c-0.07219-0.00814-0.14728 0.0003916-0.21875 0l0.126-0.5938a0.99389 0.99389 0 0 0 -1.813 -0.7188l-0.187 0.2813c-0.307-0.3458-0.7-0.6521-1.219-0.7813a0.99389 0.99389 0 0 0 -0.406 -1.0312s-0.29961-0.19684-0.65625-0.28125c-0.203-0.0481-0.475-0.1051-0.813-0.0938z"/>
  <path id="path5259" style="opacity:.3;fill-rule:evenodd" d="m70.406 2.5c-0.64469 0.021557-1.4739 0.378-1.875 1.875-0.23526-1.1497-2.75-0.875-2.75-0.875s0.83313 0.5887 0.8125 1.0312c-0.432 0.0489-0.861 0.1289-1.282 0.2188-0.182-0.406 0.053-1.219-0.062-1.7812-0.357 0.5401-0.521 1.3175-0.594 1.9374-0.409 0.1106-0.795 0.2537-1.187 0.4063-1.471-2.5021-3.881-3.6095-6.781-1.8125-1.575 0.9759-2.315 2.5203-2.532 4.25-4.598 0.9562-9.793 1.7812-14.344 1.7812-11.135 0-17.459 7.3543-17.562 19.406-0.1039 12.052 1.6696 14.959 2.8125 15.375 1.1428 0.41558 0.4375-0.40625 0.4375-0.40625l0.8125 0.53125v-0.53125l0.71875 0.09375 0.4375-0.8125h0.9375s0.82265-0.41031 0.71875-1.9688c-0.10389-1.5584 0.83117-1.8892 0-3.3438-0.83116-1.4545-1.7561-14.118-0.09375-15.469 1.6623-1.3506 6.7395-4.4602 10.688-5.1875 3.948-0.72727 6.7634-1.7873 15.906-0.125 0.005 0.61093 0.0573 1.3189 0.15625 2.2188 0.52346 4.7588 2.1329 5.5122 4.2812 9.2812 2.6125 4.6674 6.3627 5.4722 10.906 2.9375 3.745-2.1899 5.5408-2.0472 8.375-5.9062 0.58102-0.79112 0.99353-1.4123 1.3125-1.9688 0.68098-0.50348 1.3554-1.0184 2-1.4375 3.1549-2.1171 6.8913-6.5677 4.7812-10.5-1.706-3.1777-4.566-3.2413-7.218-1.529-0.242-0.3412-0.501-0.6548-0.781-0.9692 0.199-0.4176 0.495-1.1334 0.468-1.7188-0.406 0.4752-0.53 1.6003-1.187 0.9375-0.658-0.6628 0.656-0.7813 0.656-0.7813s-1.3652-1.0398-1.9062-0.40625c0.51093-1.9068-1.0312-2.0312-1.0312-2.0312s0.63883 0.6659 0.40625 1.1875c-0.078 0.1742-0.255 0.2557-0.469 0.2812-0.235-0.1413-0.474-0.2773-0.719-0.4063-0.0549-0.15554-0.0683-0.33776 0-0.59375-0.407-0.1449-0.74-0.0365-0.968 0.1564-0.178-0.0792-0.351-0.1773-0.532-0.25l0.344-1.6563-0.938 1.4375c-0.137-0.0492-0.266-0.0795-0.406-0.125-0.043-0.5842-0.3-1.2657-1.218-1.4375-0.156 0.5808-0.451 0.8353-0.782 0.9063-0.237-0.0454-0.48-0.0904-0.718-0.125-0.323-0.177-0.562-0.4732-0.532-0.7813 0.077-0.79434 1.375-1.125 1.375-1.125s-0.10893-0.076821-0.3125-0.125c-0.152-0.0361-0.347-0.0697-0.562-0.0625z"/>
  <path id="path15157" style="fill:url(#radialGradient3580);fill-rule:evenodd" d="m69.812 5.6703c-0.62 0.0207-1.413 0.3599-1.799 1.7994-0.226-1.1055-2.648-0.8384-2.648-0.8384s0.79687 0.54573 0.77704 0.97129c-0.000096 0.00204 0.000129 0.0082 0 0.010225-0.41537 0.047016-0.82219 0.10778-1.2269 0.19426-0.1754-0.3904 0.0493-1.1667-0.06135-1.7074-0.34293 0.51939-0.49242 1.2544-0.56233 1.8506-0.39461 0.10648-0.78759 0.23122-1.1656 0.37829-1.4156-2.3833-3.7059-3.4481-6.4821-1.7279-1.5165 0.93967-2.2261 2.4441-2.4334 4.1101-4.419 0.9183-9.4314 1.687-13.803 1.687-10.708 0-16.78 7.1005-16.88 18.69-0.09991 11.589 1.3089 13.511 2.4079 13.91 1.099 0.39963 0.39874-0.39875 0.39874-0.39875l0.79748 0.49076v-0.49076l0.69524 0.09203 0.40897-0.79749h0.8895c-0.000001 0 0.95103-1.2668 0.85112-2.7654-0.0999-1.4986 1.5275-1.6558 0.72826-3.0545-0.79926-1.3987-1.8891-11.663-0.8305-13.43 5.0558-8.4384 18.889-8.3443 25.726-4.946 0.49314 0.24508 0.05029 1.2622 0.14314 2.1062 0.50336 4.5761 2.0749 5.3218 4.1408 8.9461 2.5122 4.4882 6.1106 5.249 10.48 2.8116 3.6013-2.1058 5.321-1.9737 8.0464-5.6846 0.55467-0.75524 0.96175-1.359 1.2678-1.8915 0.65681-0.48564 1.3106-0.96579 1.9324-1.37 3.0338-2.0358 6.6196-6.3099 4.5906-10.091-1.6413-3.0588-4.391-3.1105-6.9422-1.4621-0.23429-0.3308-0.48392-0.65593-0.75659-0.96107 0.19194-0.40154 0.46555-1.073 0.43964-1.6359-0.39019 0.45695-0.5024 1.5473-1.1349 0.90995-0.63248-0.63739 0.65435-0.75659 0.65435-0.75659 0-0.000001-1.3405-1.0182-1.8608-0.40897 0.49132-1.8336-0.99174-1.9528-0.99174-1.9528s0.63261 0.6333 0.40896 1.1349c-0.07472 0.16759-0.26485 0.28225-0.47031 0.30673-0.225-0.1353-0.449-0.2741-0.684-0.3982-0.05281-0.14957-0.06593-0.34684 0-0.593-0.39136-0.13945-0.68986-0.032049-0.90995 0.15336-0.171-0.076067-0.3473-0.14475-0.52143-0.21471l0.31695-1.6052-0.87928 1.3803c-0.133-0.0472-0.266-0.0891-0.399-0.1329-0.042-0.5617-0.293-1.215-1.176-1.3802-0.15 0.5585-0.449 0.8111-0.767 0.8793-0.228-0.0436-0.456-0.0792-0.685-0.1125-0.31-0.1702-0.53-0.4706-0.501-0.7668 0.07406-0.76384 1.3291-1.0838 1.3291-1.0838s-0.1212-0.055915-0.31695-0.10224c-0.147-0.0348-0.335-0.058-0.542-0.0511z"/>
  <path id="path7708" style="fill:url(#radialGradient3577);fill-rule:evenodd" d="m66.316 3.6332s-15.286 4.8831-26.493 4.8831c-11.135 0-17.455 7.3766-17.558 19.429-0.1039 12.052 1.6623 14.961 2.8052 15.377 1.1429 0.41558 0.41558-0.41558 0.41558-0.41558l0.83117 0.51948v-0.51948l0.72727 0.10389 0.41558-0.83117h0.93506s0.83117-0.41558 0.72727-1.974c-0.10389-1.5584 0.83117-1.8701 0-3.3247-0.83117-1.4545-1.7662-14.13-0.10389-15.48 1.6623-1.3506 6.7532-4.4675 10.701-5.1948 3.948-0.72727 6.7532-1.7662 15.896-0.1039 9.142 1.662 11.844-11.221 10.701-12.468z"/>
  <path id="path5292" style="opacity:.1;fill-rule:evenodd" d="m66.469 3.9688c-0.56108 3.9998-3.7644 11.412-10.844 10.125-9.1428-1.6623-11.958-0.60227-15.906 0.125s-9.0252 3.8369-10.688 5.1875c-0.75357 0.61228-0.96856 3.5523-0.90625 6.7188 0.05661-2.3225 0.31662-4.2397 0.90625-4.7188 1.6623-1.3506 6.7395-4.4602 10.688-5.1875 3.948-0.72727 6.7634-1.7873 15.906-0.125 8.612 1.5658 11.492-9.761 10.844-12.125zm-44.188 23.438c-0.0044 0.18089-0.02967 0.34819-0.03125 0.53125-0.1039 12.052 1.6696 14.959 2.8125 15.375 1.1429 0.41558 0.4375-0.40625 0.4375-0.40625l0.8125 0.53125v-0.53125l0.71875 0.09375 0.4375-0.8125h0.9375s0.82265-0.41031 0.71875-1.9688c-0.09823-1.4735 0.70544-1.8608 0.09375-3.125-0.07731 0.30254-0.12417 0.66866-0.09375 1.125 0.1039 1.5584-0.71875 1.9688-0.71875 1.9688h-0.9375l-0.4375 0.8125-0.71875-0.09375v0.53125l-0.812-0.532s0.70535 0.82183-0.4375 0.40625c-1.092-0.39708-2.7262-3.1559-2.7812-13.906z"/>
  <path id="path5288" style="opacity:.2;fill-rule:evenodd" d="m66.531 4.375c-0.317 3.8106-3.477 12.069-10.906 10.719-9.1428-1.6623-11.958-0.60227-15.906 0.125s-9.0252 3.8369-10.688 5.1875c-0.68846 0.55937-0.94817 3.0636-0.9375 5.9062 0.04614-2.4132 0.33092-4.4134 0.9375-4.9062 1.6623-1.3506 6.7395-4.4602 10.688-5.1875 3.948-0.72727 6.7634-1.7873 15.906-0.125 8.21 1.492 11.204-8.712 10.906-11.719zm-44.219 26.687c0.20637 9.3968 1.7154 11.874 2.75 12.25 1.1429 0.41558 0.4375-0.40625 0.4375-0.40625l0.8125 0.53125v-0.53125l0.71875 0.09375 0.4375-0.8125h0.9375s0.82265-0.41031 0.71875-1.9688c-0.01146-0.17189-0.01006-0.32399 0-0.46875-0.08949 1.1236-0.71875 1.4375-0.71875 1.4375h-0.9375l-0.4375 0.8125-0.71875-0.09375v0.53125l-0.812-0.531s0.70535 0.82183-0.4375 0.40625c-1-0.36363-2.4659-2.6137-2.75-11.25zm7.0938 6.4688c-0.11797 0.44612-0.33216 0.92378-0.28125 1.6875 0.01146 0.17189 0.0089 0.32369 0 0.46875 0.07849-0.89973 0.49189-1.3654 0.28125-2.1562z"/>
  <path id="path9488" style="fill:url(#linearGradient3572);fill-rule:evenodd" d="m26.737 21.797c2.0455 29.211-4.5696 19.589-4.1496 5.5948 0.0069 4.5698-0.07746 9.2462 1.2402 13.638 0.2966 0.73305 0.59554 1.6504 1.3721 2.0068-1.0743-1.4541 0.86358 0.18973 0.96017-0.46988 1.0381 0.55616 0.81816-1.205 1.9256-0.70199 0.71185-0.07534 0.74019-1.0897 0.72266-1.6504-0.15364-1.1232 0.81434-2.2516-0.0097-3.2861-0.82637-2.7092-0.84171-5.6191-0.99507-8.4421 0.03274-2.3225-0.20917-4.8042 0.72163-6.9827 1.1704-1.2502 2.803-2.0129 4.2488-2.8917 2.7622-1.5791 5.7804-2.6633 8.942-3.1204 4.8046-1.0986 9.785-0.46753 14.563 0.39194-16.285-4.56-25.378 2.468-29.542 5.913z"/>
  <path id="path3761" style="fill:url(#radialGradient3569);fill-rule:evenodd" d="m56.703 2.4883c-3.7935 2.3505-2.7903 8.0635-1.1166 11.474 1.7539 3.447 3.2732 8.9869 5.5581 7.1742 7.447-7.447 3.2923-23.441-4.4415-18.649z"/>
  <path id="path6444" style="fill:url(#radialGradient3566);fill-rule:evenodd" d="m87.439 10.724c2.11 3.9323-1.6153 8.3784-4.7702 10.495-3.2425 2.1083-7.3281 6.1463-8.4005 3.434-2.7258-10.173 8.869-21.946 13.171-13.929z"/>
  <path id="path5801" style="fill:#fff;fill-rule:evenodd" d="m70.961 1.5729c-0.611-0.1445-1.898-0.1837-2.433 1.8123-0.235-1.1497-2.754-0.872-2.754-0.872s0.8277 0.57165 0.80707 1.0142c-0.000099 0.00211-0.0013 0.00388-0.0017 0.00599-0.43195 0.048891-0.85993 0.11587-1.2808 0.2058-0.1824-0.40598 0.05523-1.2156-0.05983-1.7779-0.35662 0.54012-0.51467 1.3101-0.58737 1.93-3.1703 0.85543-5.8861 2.9521-7.1883 6.5768-1.3422 3.1034-2.2197 3.0726-1.6962 7.8314 0.52346 4.7588 2.1524 5.5288 4.3008 9.2978 2.6125 4.6674 6.3558 5.4552 10.899 2.9205 3.745-2.1899 5.5393-2.0427 8.3735-5.9018s2.0619-4.2703 2.4526-7.6287c0.75364-3.482-0.31125-6.4858-2.3591-8.7776 0.1996-0.41757 0.48496-1.124 0.45802-1.7094-0.40577 0.4752-0.52187 1.6107-1.1796 0.94787-0.65772-0.66284 0.67736-0.7888 0.67736-0.7888s-1.3888-1.0549-1.9298-0.42135c0.51093-1.9068-1.0322-2.0321-1.0322-2.0321s0.65536 0.66412 0.42278 1.1857c-0.077 0.1755-0.271 0.2862-0.484 0.3116-0.236-0.1413-0.476-0.2809-0.72-0.4099-0.055-0.1556-0.065-0.3557 0.004-0.6117-0.407-0.145-0.719-0.0382-0.948 0.1546-0.178-0.0791-0.358-0.1547-0.539-0.2275l0.324-1.6622-0.914 1.4339c-0.138-0.0492-0.278-0.0916-0.417-0.1371-0.043-0.5842-0.299-1.2651-1.217-1.4369-0.156 0.5808-0.464 0.846-0.795 0.9169-0.237-0.0453-0.476-0.0865-0.714-0.1212-0.322-0.1769-0.557-0.4905-0.527-0.7985 0.07701-0.79434 1.386-1.1224 1.386-1.1224s-0.12518-0.059058-0.32875-0.10724z"/>
  <path id="path6446" style="fill:#fff;fill-rule:evenodd" d="m80.564 21.002 3.6113-2.6082-1.0083 0.10055 1.8959-1.4834-1.7456 0.42388 2.7988-1.7551-2.483 0.74719 2.7536-2.0458-2.1369 0.44018 2.3474-1.6193-2.3174 0.79881 1.7454-1.9453-2.0917 0.73088 0.7823-1.554-1.1888 0.45917 0.55658-1.4861-0.96307 0.39125 0.36107-0.71725-3.0096 1.4128s0.84676 1.647 1.0841 3.9339c0.23737 2.2869-0.99233 5.776-0.99233 5.776z"/>
  <path id="path4650" style="fill:#fff;fill-rule:evenodd" d="m57.517 14.827-1.8234-4.0645 0.82291 0.5912-0.90021-2.2327 1.2998 1.2399-1.5463-2.9194 1.7767 1.8886-1.3618-3.1486 1.6305 1.4497-1.2233-2.576 1.6075 1.8505-0.53889-2.5574 1.446 1.6788 0.09952-1.737 0.79994 0.99206 0.26105-1.5653 0.63842 0.82037 0.04594-0.80169 1.9 2.7283s-1.5568 1.003-2.9059 2.8648c-1.349 1.8622-2.029 5.4992-2.029 5.4992z"/>
  <path id="path6450" style="fill:#729fcf;fill-rule:evenodd" d="m60.249 11.82s5.7702 0.635 4.2492 6.3113c-5.383-1.4424 1.2341-4.842-4.2492-6.3113z"/>
  <g id="g9129" transform="matrix(.18226 .048835 -.048835 .18226 36.276 -25.085)">
   <path id="path7337" d="m193.5 170.56a8.3117 8.3117 0 1 1 -16.623 0 8.3117 8.3117 0 1 1 16.623 0z" transform="matrix(1.396 0 0 1.396 -71.556 -66.826)"/>
   <path id="path8224" style="fill:url(#linearGradient5016)" d="m193.5 170.56a8.3117 8.3117 0 1 1 -16.623 0 8.3117 8.3117 0 1 1 16.623 0z" transform="matrix(.55042 0 0 .25629 85.038 134.22)"/>
   <path id="path9119" style="fill:url(#radialGradient5018)" d="m193.5 170.56a8.3117 8.3117 0 1 1 -16.623 0 8.3117 8.3117 0 1 1 16.623 0z" transform="matrix(.86905 0 0 .48914 26.032 83.33)"/>
  </g>
  <path id="path9138" style="fill:#729fcf;fill-rule:evenodd" d="m78.338 16.667s-5.3146-2.3352-6.8356 3.3411c5.383 1.4424 1.3522-4.8104 6.8356-3.3411z"/>
  <g id="g9140" transform="matrix(-.18226 -.048835 -.048835 .18226 117.55 -3.307)">
   <path id="path9142" d="m193.5 170.56a8.3117 8.3117 0 1 1 -16.623 0 8.3117 8.3117 0 1 1 16.623 0z" transform="matrix(1.396 0 0 1.396 -71.556 -66.826)"/>
   <path id="path9144" style="fill:url(#linearGradient5016)" d="m193.5 170.56a8.3117 8.3117 0 1 1 -16.623 0 8.3117 8.3117 0 1 1 16.623 0z" transform="matrix(.55042 0 0 .25629 85.038 134.22)"/>
   <path id="path9146" style="fill:url(#radialGradient5018)" d="m193.5 170.56a8.3117 8.3117 0 1 1 -16.623 0 8.3117 8.3117 0 1 1 16.623 0z" transform="matrix(.86905 0 0 .48914 26.032 83.33)"/>
  </g>
  <path id="path9166" style="fill:url(#radialGradient3550);fill-rule:evenodd" d="m56.555 14.202c-0.26572-0.03913-0.56813 0.13142-0.73272 0.46794-0.13148 0.83523-0.12691 1.9175 0.06061 3.6223 0.51877 4.7161 2.1331 5.4793 4.2622 9.2145 0.402 0.71821 0.8313 1.347 1.2861 1.8819-0.07413-0.37074 0.06367-0.90686-0.11426-1.2263-0.76161-0.03579-0.31713-0.55097 0.12571-0.77609 0.82567-0.68979-0.329 0.09862-0.63655 0.03821 0.2116-1.0033 1.0852-1.7073 1.7326-2.4522 0.88148-0.7213-0.23195-1.5136-1.0004-1.508-0.39836-0.30747-1.8447 0.29284-1.444-0.51345 0.30854-0.64677 0.52879-1.2034 1.0983-1.6669-0.37116-0.0377-1.7834 1.0275-1.2777-0.000748 0.4684-0.86701-0.78983-0.16528-1.0755 0.04713-0.91568 0.51211-0.19927-0.53363 0.12571-0.77609 0.61981-0.47577 0.05525-0.9075-0.49567-0.58199-1.1213 0.27546 0.28887-0.53018 0.62712-0.71133-0.26898-0.16661-0.91611 0.34838-1.3572 0.31958-0.0074-0.44489 0.78203-0.70602 1.0865-1.0564 0.86245-0.6491-0.3944-0.49307-0.79874-0.27729-0.85507 0.22169 0.04535-0.41331 0.35842-0.51129 0.78289-0.50304-0.45604-0.24744-0.73477-0.11465-1.271 0.42908-0.5367-0.93601-0.01026-1.3313 0.51428-0.95657-0.5301 0.41384-0.8482-0.06911-0.54026-0.5993 0.54964-0.99171 0.26184-1.3786-0.05415-0.40146-0.26295-0.60508-0.49915-0.63986zm24.112 6.4608c-0.20285-0.03483-0.43962 0.05664-0.65186 0.33144-0.44268 0.19114 0.30499 1.0759-0.46253 1.3248-0.51695 0.2592-0.73621-1.4498-0.76912-0.36425 0.25832 0.60555 0.21167 2.1549-0.67448 1.1478-0.17499-0.25437-1.1201-1.0952-0.69366-0.26811 0.22214 0.2414 0.67852 1.2399 0.04886 0.62042-0.24228-0.38905-1.2468-1.151-0.82447-0.15765 0.0885 0.45567 0.63567 1.0749 0.40685 1.4565-0.39642-0.19562-0.69345-0.9636-1.0097-0.9538 0.20236 0.326 1.0149 1.7272 0.18154 0.92801-0.31436-0.55736-1.0132-0.46417-0.71436 0.25776 0.16021 0.37247 0.25776 1.6363-0.27918 0.73497-0.14116-0.32677-0.87995-1.5636-0.90782-0.57855-0.07618 1.1433-0.77253-0.48688-1.1128-0.6398 0.26144 0.6861 0.17386 1.2783 0.11767 1.9927-0.05614 0.89859-1.0027-0.34287-1.5014-0.27577-0.6627-0.38902-2.0231-0.25961-1.6204 0.8058 0.18816 0.96876 0.58682 2.0137 0.26842 2.9884-0.29655-0.10146-0.89642-1.36-0.52626-0.34978 0.27096 0.41638 0.39829 1.0848-0.27918 0.73497-0.27346 0.16355-0.42223 0.58876-0.6226 0.88336 0.61762-0.22396 1.2544-0.51738 1.9062-0.88103 3.7115-2.1703 5.4897-2.0244 8.2985-5.8489 1.077-1.4664 1.6284-2.4305 1.9209-3.2495-0.0298-0.34328-0.23754-0.59495-0.49914-0.63986zm-18.662 9.1328c-0.08796 0.0026-0.15769-0.0062-0.22198-0.02153 0.11894 0.12432 0.23793 0.24317 0.36014 0.35588-0.03419-0.13118-0.07455-0.25154-0.13816-0.33436zm6.239 1.6717c-0.0598 0.02474-0.12212 0.05943-0.1812 0.10961 0.08821-0.02176 0.176-0.04331 0.265-0.06817-0.02766-0.01375-0.05426-0.02326-0.08379-0.04143zm-4.9953-0.52872c-0.0149-0.004-0.03413 0.000884-0.05038-0.000817 0.07303 0.04504 0.14469 0.08669 0.21871 0.12819-0.04492-0.06027-0.09804-0.1087-0.16832-0.12734z"/>
  <path id="path10070" style="fill-rule:evenodd" d="m64.215 26.279c-1.2363 0.07076-1.5247 0.23769-1.3111 1.2568 0.21355 1.0191 0.8022 2.4545 2.1653 2.8197 1.3631 0.36524 2.5921-0.58308 3.2871-1.3588 0.69502-0.7757 0.87945-0.80552-0.50704-1.744s-2.3979-1.0446-3.6343-0.9738z"/>
  <path id="path10960" style="fill:url(#radialGradient3546);fill-rule:evenodd" d="m64.396 26.549c-1.0793 0.06177-1.3311 0.20751-1.1446 1.0972 0.18643 0.88973 2.8146-0.98762 1.8903 2.4617 0.92134-3.4385 2.263-0.50904 2.8697-1.1862 0.60676-0.6772 0.76777-0.70323-0.44266-1.5225-1.2104-0.81932-2.0934-0.91192-3.1728-0.85014z"/>
  <path id="path4019" style="fill:url(#radialGradient3543);fill-rule:evenodd" d="m69.352 12.978s1.4528 0.66095 1.0023 2.8493c1.8446-1.8148 0.9508-3.5484 0.9508-3.5484s2.0525 0.95746 1.4164 2.8245c1.6839-1.7221 0.79011-3.4557 0.79011-3.4557s2.0028 0.12917 2.2041 1.4056c-0.03151-1.91-1.4753-3.1119-1.4753-3.1119s3.4557 0.79011 2.8535 2.5304c1.3219-2.9057-1.2127-3.5848-1.2127-3.5848s1.7245-0.35289 2.779 1.2879c-0.40261-2.5528-2.1248-3.0266-2.1248-3.0266 1.7927 0.77264 2.4916 2.1126 2.3509 4.7171-0.10854-1.1157-1.561-1.9278-1.561-1.9278s1.3546 0.91247-0.34747 3.7163c0.15402-1.5887-1.4884-2.2912-1.4884-2.2912s1.2364 1.6649-0.21527 3.338c0.24679-1.428-0.89378-1.7336-0.89378-1.7336s0.11519 2.6116-2.4807 3.6818c0.4663-1.2333-0.1243-2.0707-0.1243-2.0707s0.20131 1.2764-2.3266 2.0932c0.88044-1.2582-0.097-3.6934-0.097-3.6934z"/>
  <path id="path5282" style="opacity:.1;fill-rule:evenodd" d="m70.312 1.5c0.04273 0.030413 0.07818 0.06804 0.125 0.09375 0.23824 0.034638 0.48188 0.079688 0.71875 0.125 0.031-0.0066 0.064-0.0215 0.094-0.0313-0.017-0.0114-0.095-0.081-0.281-0.125-0.153-0.0361-0.348-0.0697-0.563-0.0625-0.029 0.001-0.064-0.0024-0.094 0zm9.5938 5c-0.042 0.0493-0.057 0.1269-0.094 0.1875 0.024 0.0289 0.04 0.0647 0.063 0.0937 0.009-0.0925 0.035-0.1931 0.031-0.2812zm-25.75 0.34375c-0.26927 2.413 0.47079 5.1549 1.4375 7.125 0.01005 0.01976 0.02087 0.04204 0.03125 0.0625-0.0016-0.67857 0.05674-1.2249 0.15625-1.6875-0.05981-0.12312-0.12718-0.25645-0.1875-0.375-0.70797-1.4428-1.277-3.2883-1.4375-5.125zm33.812 5.3125c-0.50734 2.8514-3.0609 5.5516-5.3125 7.0625-0.64463 0.41914-1.319 0.93402-2 1.4375-0.31897 0.55642-0.73148 1.1776-1.3125 1.9688-2.8342 3.8591-4.63 3.7164-8.375 5.9062-4.5436 2.5347-8.2938 1.7299-10.906-2.9375-2.1484-3.769-3.7578-4.5225-4.2812-9.2812-0.05101-0.46369-0.10001-0.87072-0.125-1.25-0.07699 0.78458-0.0356 1.79 0.125 3.25 0.52346 4.7588 2.1329 5.5122 4.2812 9.2812 2.6125 4.6674 6.3627 5.4722 10.906 2.9375 3.745-2.1899 5.5408-2.0472 8.375-5.9062 0.58102-0.79112 0.99353-1.4123 1.3125-1.9688 0.68098-0.50348 1.3554-1.0184 2-1.4375 2.776-1.8628 6.0151-5.5291 5.3125-9.0625z"/>
  <path id="path3754" style="fill:url(#radialGradient3539);fill-rule:evenodd" d="m68.83 4.5943c-0.52-0.2305-2.109-0.5606-3.284-0.1561 1.5444-0.63943 3.3382 1.2456 3.3382 1.2456s-2.552-0.56931-3.5301 0.63524c2.7844-0.84035 3.6525 1.5093 3.6525 1.5093s-1.8686-1.1015-3.1327 0.083693c1.2401-0.51288 3.0606 1.0776 3.0606 1.0776s-1.1553 0.041515-1.8852 1.4843c0.92284-0.45489 2.2332-0.22082 2.2332-0.22082-1.0688 0.13696-1.5992 0.31603-2.8947 1.1151 0.85559-1.6723 1.7152-2.1408 1.7152-2.1408s-2.2603-1.401-3.3263-0.46414c1.7518-1.9755 3.1735-1.3536 3.1735-1.3536s-2.3336-1.2738-3.4336-0.21025c1.0895-1.842 3.184-1.6947 3.184-1.6947s-0.89657-0.99626-2.7922-0.78112c2.4103-1.3916 4.443 0.10117 3.9222-0.12937z"/>
  <path id="path5271" style="opacity:.2;fill-rule:evenodd" d="m70.406 1.5c-0.14171 0.00474-0.28447 0.048093-0.4375 0.09375-0.02759 0.067724-0.05512 0.14263-0.0625 0.21875-0.01867 0.19254 0.07272 0.37419 0.21875 0.53125 0.38903-0.45316 1.1562-0.65625 1.1562-0.65625s-0.10893-0.076821-0.3125-0.125c-0.152-0.0361-0.347-0.0697-0.562-0.0625zm-5.156 0.4688c-0.01286 0.20654 0.0064 0.39847 0.03125 0.5625 0.0077-0.1959 0.0032-0.39394-0.03125-0.5625zm0.9375 0.5c-0.24 0.0077-0.407 0.0312-0.407 0.0312s0.09986 0.11236 0.15625 0.15625c0.21956-0.038661 0.43428-0.099876 0.65625-0.125 0.000992-0.021276 0.0028-0.04063 0-0.0625-0.13893-0.00307-0.29523-0.00361-0.40625 0zm8.312 0.4687-0.312 0.4687-0.032 0.1876c0.06464 0.025967 0.12444 0.063332 0.1875 0.09375l0.156-0.7501zm1.9375 1.2812s0.13384 0.16192 0.25 0.34375c0.0624-0.043062 0.12385-0.083635 0.15625-0.15625 0.01018-0.02282 0.02428-0.039195 0.03125-0.0625-0.23223-0.10985-0.4375-0.125-0.4375-0.125zm1.062 0.8438c-0.014 0.0667-0.012 0.1158-0.031 0.1875 0.016-0.0187 0.045-0.0154 0.062-0.0312-0.011-0.0551-0.015-0.1072-0.031-0.1563zm1.0625 1.125c0.0224 0.074618 0.0607 0.15371 0.15625 0.25 0.23247 0.23428 0.39612 0.2298 0.53125 0.125-0.133-0.0932-0.371-0.2443-0.688-0.375zm1.344 0.3125c-0.17621 0.20636-0.30078 0.52941-0.4375 0.78125 0.08412 0.094971 0.16977 0.18539 0.25 0.28125 0.119-0.3417 0.204-0.7254 0.188-1.0625zm-25.781 0.8438c-0.12579 2.2858 0.56746 4.7883 1.4688 6.625 0.01609 0.03161 0.04569 0.06051 0.0625 0.09375 0.02566-0.26153 0.07734-0.49722 0.125-0.71875-0.05981-0.12312-0.12718-0.25645-0.1875-0.375-0.77242-1.5741-1.3823-3.6283-1.4688-5.625zm33.906 5.375c-0.30857 3.0099-3.0088 5.9122-5.375 7.5-0.64463 0.41914-1.319 0.93402-2 1.4375-0.31898 0.55642-0.73148 1.1776-1.3125 1.9688-2.8342 3.8591-4.63 3.7164-8.375 5.9062-4.5436 2.5347-8.2938 1.7299-10.906-2.9375-2.1484-3.769-3.7578-4.5225-4.2812-9.2812-0.0787-0.71547-0.107-1.2882-0.125-1.8125-0.03465 0.72034-0.0089 1.5956 0.125 2.8125 0.52346 4.7588 2.1329 5.5122 4.2812 9.2812 2.6125 4.6674 6.3627 5.4722 10.906 2.9375 3.745-2.1899 5.5408-2.0472 8.375-5.9062 0.58102-0.79112 0.99352-1.4123 1.3125-1.9688 0.68098-0.50348 1.3554-1.0184 2-1.4375 2.6291-1.7642 5.6581-5.1451 5.375-8.5z"/>
 </g>
</svg>
