<?xml version="1.0" encoding="UTF-8" standalone="no"?>
<!-- Created with Inkscape (http://www.inkscape.org/) -->
<svg id="svg2408" xmlns:rdf="http://www.w3.org/1999/02/22-rdf-syntax-ns#" xmlns="http://www.w3.org/2000/svg" height="96" width="96" version="1.0" xmlns:cc="http://creativecommons.org/ns#" xmlns:xlink="http://www.w3.org/1999/xlink" xmlns:dc="http://purl.org/dc/elements/1.1/">
 <defs id="defs2410">
  <linearGradient id="linearGradient3688">
   <stop id="stop3690" style="stop-color:#ebebef" offset="0"/>
   <stop id="stop3692" style="stop-color:#b0b3c1" offset="1"/>
  </linearGradient>
  <linearGradient id="ButtonShadow" y2="7.0165" gradientUnits="userSpaceOnUse" x2="45.448" gradientTransform="scale(1.0059 .99417)" y1="92.54" x1="45.448">
   <stop id="stop3750" offset="0"/>
   <stop id="stop3752" style="stop-opacity:.58824" offset="1"/>
  </linearGradient>
  <linearGradient id="linearGradient3737">
   <stop id="stop3739" style="stop-color:#fff" offset="0"/>
   <stop id="stop3741" style="stop-color:#fff;stop-opacity:0" offset="1"/>
  </linearGradient>
  <filter id="filter3174" color-interpolation-filters="sRGB">
   <feGaussianBlur id="feGaussianBlur3176" stdDeviation="1.71"/>
  </filter>
  <linearGradient id="ButtonShadow-0" y2="7.0165" gradientUnits="userSpaceOnUse" x2="45.448" gradientTransform="matrix(1.0059 0 0 .99417 100 0)" y1="92.54" x1="45.448">
   <stop id="stop3750-8" offset="0"/>
   <stop id="stop3752-5" style="stop-opacity:.58824" offset="1"/>
  </linearGradient>
  <linearGradient id="linearGradient3780" y2="90.239" xlink:href="#ButtonShadow-0" gradientUnits="userSpaceOnUse" x2="32.251" gradientTransform="matrix(1.0238 0 0 1.0119 -1.1429 -98.071)" y1="6.1317" x1="32.251"/>
  <linearGradient id="linearGradient3721" y2="90.239" xlink:href="#ButtonShadow-0" gradientUnits="userSpaceOnUse" x2="32.251" gradientTransform="translate(0,-97)" y1="6.1317" x1="32.251"/>
  <filter id="filter10997-7-2" color-interpolation-filters="sRGB">
   <feGaussianBlur id="feGaussianBlur10999-0-7" stdDeviation="2.7696726"/>
  </filter>
  <filter id="filter5845-5" color-interpolation-filters="sRGB">
   <feGaussianBlur id="feGaussianBlur5847-5" stdDeviation="1.2409356"/>
  </filter>
  <filter id="filter5983-8" height="1.2447" width="1.165" y="-.12234" x="-.082509" color-interpolation-filters="sRGB">
   <feGaussianBlur id="feGaussianBlur5985-3" stdDeviation="3.6868363"/>
  </filter>
  <filter id="filter9298-4" color-interpolation-filters="sRGB">
   <feGaussianBlur id="feGaussianBlur9300-4" stdDeviation="0.32610678"/>
  </filter>
  <filter id="filter9068-2" height="1.3311" width="1.1524" y="-.16557" x="-.076179" color-interpolation-filters="sRGB">
   <feGaussianBlur id="feGaussianBlur9070-7" stdDeviation="0.66458488"/>
  </filter>
  <filter id="filter8980-1" height="1.9457" width="1.1397" y="-.47286" x="-.069863" color-interpolation-filters="sRGB">
   <feGaussianBlur id="feGaussianBlur8982-9" stdDeviation="0.82052366"/>
  </filter>
  <filter id="filter8906-3" height="1.5565" width="1.1709" y="-.27823" x="-.085441" color-interpolation-filters="sRGB">
   <feGaussianBlur id="feGaussianBlur8908-7" stdDeviation="0.56515877"/>
  </filter>
  <filter id="filter8764-9" height="1.3508" width="1.1485" y="-.17541" x="-.074262" color-interpolation-filters="sRGB">
   <feGaussianBlur id="feGaussianBlur8766-2" stdDeviation="2.1195652"/>
  </filter>
  <filter id="filter8732-3" height="1.2284" width="1.1562" y="-.11422" x="-.078079" color-interpolation-filters="sRGB">
   <feGaussianBlur id="feGaussianBlur8734-5" stdDeviation="1.9579068"/>
  </filter>
  <linearGradient id="WhiteTransparent-3" gradientUnits="userSpaceOnUse">
   <stop id="stop7606-1" style="stop-color:#fff" offset="0"/>
   <stop id="stop7608-8" style="stop-color:#fff;stop-opacity:0" offset="1"/>
  </linearGradient>
  <filter id="filter8490-0" color-interpolation-filters="sRGB">
   <feGaussianBlur id="feGaussianBlur8492-5" stdDeviation="2.4163949"/>
  </filter>
  <clipPath id="clipPath9086-1">
   <use id="use9088-0" style="opacity:.25;fill:#ffffff" xlink:href="#outline1" transform="translate(.0000010095)" height="300" width="400" y="0" x="0"/>
  </clipPath>
  <filter id="filter6031-0" color-interpolation-filters="sRGB">
   <feGaussianBlur id="feGaussianBlur6033-8" stdDeviation="3.4903482"/>
  </filter>
  <filter id="filter6017-3" color-interpolation-filters="sRGB">
   <feGaussianBlur id="feGaussianBlur6019-9" stdDeviation="0.80546496"/>
  </filter>
  <linearGradient id="linearGradient4858" y2="40" gradientUnits="userSpaceOnUse" x2="60" y1="20" x1="82.119">
   <stop id="stop5787-7" style="stop-color:#c0cdf9" offset="0"/>
   <stop id="stop5789-3" style="stop-color:#07092d;stop-opacity:.28804" offset="1"/>
  </linearGradient>
  <linearGradient id="linearGradient4860" y2="60" xlink:href="#WhiteTransparent-3" gradientUnits="userSpaceOnUse" x2="58" gradientTransform="matrix(1.0092 0 0 1.0092 -.38907 -.38319)" y1="35" x1="33"/>
  <linearGradient id="linearGradient4862" y2="50" xlink:href="#WhiteTransparent-3" gradientUnits="userSpaceOnUse" x2="90" y1="20" x1="60"/>
  <radialGradient id="radialGradient4864" xlink:href="#linearGradient3737" gradientUnits="userSpaceOnUse" cy="250.9" cx="116.31" gradientTransform="matrix(1.5701 0 0 1.0509 -75.5 -22.096)" r="30.6"/>
  <radialGradient id="radialGradient4866" xlink:href="#linearGradient3737" gradientUnits="userSpaceOnUse" cy="251.99" cx="132.44" gradientTransform="matrix(2.0033 0 0 1.3409 -132.88 -95.166)" r="30.6"/>
  <radialGradient id="radialGradient4868" xlink:href="#linearGradient3737" gradientUnits="userSpaceOnUse" cy="168.5" cx="210.25" gradientTransform="matrix(1 0 0 .42336 0 97.164)" r="34.25"/>
  <radialGradient id="radialGradient4870" xlink:href="#linearGradient3737" gradientUnits="userSpaceOnUse" cy="182.08" cx="217.5" gradientTransform="matrix(1 0 0 .42336 0 97.164)" r="34.25"/>
  <linearGradient id="linearGradient4872" y2="201.5" xlink:href="#linearGradient3737" gradientUnits="userSpaceOnUse" x2="231.75" y1="195.19" x1="231.62"/>
  <linearGradient id="linearGradient4874" y2="200.07" xlink:href="#linearGradient3737" gradientUnits="userSpaceOnUse" x2="231.38" y1="195.62" x1="231.38"/>
  <radialGradient id="radialGradient4876" xlink:href="#linearGradient3737" gradientUnits="userSpaceOnUse" cy="204.83" cx="228.22" gradientTransform="matrix(1 0 0 .14775 0 174.57)" r="14.094"/>
  <radialGradient id="radialGradient4884" gradientUnits="userSpaceOnUse" cy="187.87" cx="89.875" gradientTransform="matrix(1 0 0 .40708 0 115.76)" r="22.75">
   <stop id="stop9000-9" style="stop-color:#fff;stop-opacity:.33005" offset="0"/>
   <stop id="stop9002-5" style="stop-color:#fff;stop-opacity:0" offset="1"/>
  </radialGradient>
  <radialGradient id="radialGradient4890" gradientUnits="userSpaceOnUse" cy="230.84" cx="90.281" gradientTransform="matrix(1.1851 -.32836 .12286 .44340 -45.068 152.92)" r="10.469">
   <stop id="stop9042-3" style="stop-color:#fff" offset="0"/>
   <stop id="stop9044-7" style="stop-color:#fff;stop-opacity:0" offset="1"/>
  </radialGradient>
  <radialGradient id="radialGradient4892" gradientUnits="userSpaceOnUse" cy="21.226" cx="68.4" gradientTransform="matrix(1.7222 0 0 1.695 -49.395 -14.078)" r="54.783">
   <stop id="stop9288-9" style="stop-color:#fff" offset="0"/>
   <stop id="stop9290-2" style="stop-color:#fff;stop-opacity:0" offset="1"/>
  </radialGradient>
  <linearGradient id="linearGradient4894" y2="223.5" gradientUnits="userSpaceOnUse" x2="153.5" y1="208.16" x1="95.5">
   <stop id="stop5901-9" style="stop-color:#fff" offset="0"/>
   <stop id="stop5903-3" style="stop-color:#fff;stop-opacity:0" offset="1"/>
  </linearGradient>
  <radialGradient id="radialGradient4896" gradientUnits="userSpaceOnUse" cy="214.55" cx="181.23" gradientTransform="matrix(1.3515 0 0 1.7176 -63.706 -153.96)" r="22.466">
   <stop id="stop5807-4" style="stop-color:#fff" offset="0"/>
   <stop id="stop5809-9" style="stop-color:#fff;stop-opacity:0" offset="1"/>
  </radialGradient>
  <linearGradient id="linearGradient4898" y2="187.66" xlink:href="#WhiteTransparent-3" gradientUnits="userSpaceOnUse" x2="82.754" gradientTransform="matrix(.49279 0 0 .49279 -6.0004 -9.7225)" y1="180.48" x1="73.712"/>
  <linearGradient id="linearGradient4900" y2="144.5" gradientUnits="userSpaceOnUse" x2="153.7" gradientTransform="translate(-130.17 -83.353)" y1="217.5" x1="180.81">
   <stop id="stop10983-2-0" style="stop-color:#729fcf" offset="0"/>
   <stop id="stop10985-3-7" style="stop-color:#729fcf;stop-opacity:0" offset="1"/>
  </linearGradient>
  <clipPath id="clipPath4904" clipPathUnits="userSpaceOnUse">
   <rect id="rect4906" style="fill:url(#linearGradient4908)" rx="7.0099" ry="7.0099" height="98.138" width="98.138" y="16.775" x="14.929"/>
  </clipPath>
  <linearGradient id="linearGradient4908" y2="5.9877" xlink:href="#linearGradient3688" gradientUnits="userSpaceOnUse" x2="48" gradientTransform="matrix(1.1683 0 0 1.1683 7.9196 9.7652)" y1="90" x1="48"/>
  <radialGradient id="radialGradient5055" xlink:href="#linearGradient3737" gradientUnits="userSpaceOnUse" cy="90.172" cx="48" gradientTransform="matrix(1.1573 0 0 .99591 -7.551 .19713)" r="42"/>
  <linearGradient id="linearGradient5058" y2="63.893" xlink:href="#linearGradient3737" gradientUnits="userSpaceOnUse" x2="36.357" y1="6" x1="36.357"/>
  <linearGradient id="linearGradient5061" y2="5.9877" xlink:href="#linearGradient3688" gradientUnits="userSpaceOnUse" x2="48" y1="90" x1="48"/>
 </defs>
 <metadata id="metadata2413">
  <rdf:RDF>
   <cc:Work rdf:about="">
    <dc:format>image/svg+xml</dc:format>
    <dc:type rdf:resource="http://purl.org/dc/dcmitype/StillImage"/>
    <dc:title/>
   </cc:Work>
  </rdf:RDF>
 </metadata>
 <g id="layer2" style="display:none">
  <rect id="rect3745" style="opacity:.9;filter:url(#filter3174);fill:url(#ButtonShadow)" rx="6" ry="6" height="85" width="86" y="7" x="5"/>
 </g>
 <g id="layer3">
  <path id="path3786" style="opacity:0.08;fill:url(#linearGradient3780)" d="m12-95.031c-5.5111 0-10.031 4.5202-10.031 10.031v71c0 5.5111 4.5202 10.031 10.031 10.031h72c5.5111 0 10.031-4.5202 10.031-10.031v-71c0-5.5111-4.5202-10.031-10.031-10.031h-72z" transform="scale(1,-1)"/>
  <path id="path3778" style="opacity:.1;fill:url(#linearGradient3780)" d="m12-94.031c-4.9716 0-9.0312 4.0596-9.0312 9.0312v71c0 4.9716 4.0596 9.0312 9.0312 9.0312h72c4.9716 0 9.0312-4.0596 9.0312-9.0312v-71c0-4.9716-4.0596-9.0312-9.0312-9.0312h-72z" transform="scale(1,-1)"/>
  <path id="path3770" style="opacity:.2;fill:url(#linearGradient3780)" d="m12-93c-4.4091 0-8 3.5909-8 8v71c0 4.4091 3.5909 8 8 8h72c4.4091 0 8-3.5909 8-8v-71c0-4.4091-3.5909-8-8-8h-72z" transform="scale(1,-1)"/>
  <rect id="rect3723" style="opacity:.3;fill:url(#linearGradient3780)" transform="scale(1,-1)" rx="7" ry="7" height="85" width="86" y="-92" x="5"/>
  <rect id="rect3716" style="opacity:.45;fill:url(#linearGradient3721)" transform="scale(1,-1)" rx="6" ry="6" height="84" width="84" y="-91" x="6"/>
 </g>
 <rect id="rect2419" style="fill:url(#linearGradient5061)" rx="6" ry="6" height="84" width="84" y="6" x="6"/>
 <g id="g4794" style="enable-background:new" transform="matrix(.85594 0 0 .85594 -6.7787 -8.3584)" clip-path="url(#clipPath4904)">
  <g id="g4796" style="opacity:.78325" transform="translate(3.6897e-7 .48831)">
   <path id="path4798" style="filter:url(#filter6017-3)" d="m54.1 12.988-41.2 42.2c-15.6 15.6 10.1 14.3 19.4 20.2 4.3 2.8-13.8 6.4-10.1 10.1 3.6 3.7 21.7 7.1 25.3 10.7 3.6 3.7-7.3 7.6-3.7 11.3 3.5 3.7 11.9 0.2 13.4 8.6 1.1 6.2 15.4 3.1 21.8-2.2 4-3.4-6.9-3.4-3.3-7.1 9-9.1 17-4.1 20.3-12.5 1.8-4.5-13.6-7.7-9.5-10.6 9.8-6.9 45.8-10.4 29.2-27l-42.7-43.7c-5.3-5-14-5-18.9 0zm47.3 81.3c0 2.1 16.3 3.3 15.4-0.5-1.3-6.4-13.6-5.9-15.4 0.5zm-69.5 11.102c3.7 3.2 9.3-0.7 11.1-5.2-3.6-4.7-16.9 0.3-11.1 5.2zm67.5-6.7c-4.6 4.2 0.8 8.6 5.3 5.7 1.2-0.8-0.1-4.7-5.3-5.7z"/>
   <path id="path4800" style="opacity:.57635;filter:url(#filter6031-0)" d="m54.1 13.965-41.2 42.2c-15.6 15.6 10.1 14.3 19.4 20.2 4.3 2.8-13.8 6.4-10.1 10.1 3.6 3.7 21.7 7.1 25.3 10.7 3.6 3.7-7.3 7.6-3.7 11.3 3.5 3.7 11.9 0.2 13.4 8.6 1.1 6.2 15.4 3.1 21.8-2.2 4-3.4-6.9-3.4-3.3-7.1 9-9.1 17-4.1 20.3-12.5 1.8-4.5-13.6-7.7-9.5-10.6 9.8-6.9 45.8-10.4 29.2-27l-42.7-43.7c-5.3-5-14-5-18.9 0zm47.3 81.3c0 2.1 16.3 3.3 15.4-0.5-1.3-6.4-13.6-5.9-15.4 0.5zm-69.5 11.095c3.7 3.2 9.3-0.7 11.1-5.2-3.6-4.7-16.9 0.3-11.1 5.2zm67.5-6.7c-4.6 4.2 0.8 8.6 5.3 5.7 1.2-0.8-0.1-4.7-5.3-5.7z"/>
  </g>
  <path id="path4802" d="m54.1 12.5-41.2 42.2c-15.6 15.6 10.1 14.3 19.4 20.2 4.3 2.8-13.8 6.4-10.1 10.1 3.6 3.7 21.7 7.1 25.3 10.7 3.6 3.7-7.3 7.6-3.7 11.3 3.5 3.7 11.9 0.2 13.4 8.6 1.1 6.2 15.4 3.1 21.8-2.2 4-3.4-6.9-3.4-3.3-7.1 9-9.1 17-4.1 20.3-12.5 1.8-4.5-13.6-7.7-9.5-10.6 9.8-6.9 45.8-10.4 29.2-27l-42.7-43.7c-5.3-5-14-5-18.9 0zm47.3 81.3c0 2.1 16.3 3.3 15.4-0.5-1.3-6.4-13.6-5.9-15.4 0.5zm-69.5 11.1c3.7 3.2 9.3-0.7 11.1-5.2-3.6-4.7-16.9 0.3-11.1 5.2zm67.5-6.7c-4.6 4.2 0.8 8.6 5.3 5.7 1.2-0.8-0.1-4.7-5.3-5.7z"/>
  <path id="path4804" style="fill:none" d="m54.1 12.5-41.2 42.2c-15.6 15.6 10.1 14.3 19.4 20.2 4.3 2.8-13.8 6.4-10.1 10.1 3.6 3.7 21.7 7.1 25.3 10.7 3.6 3.7-7.3 7.6-3.7 11.3 3.5 3.7 11.9 0.2 13.4 8.6 1.1 6.2 15.4 3.1 21.8-2.2 4-3.4-6.9-3.4-3.3-7.1 9-9.1 17-4.1 20.3-12.5 1.8-4.5-13.6-7.7-9.5-10.6 9.8-6.9 45.8-10.4 29.2-27l-42.7-43.7c-5.3-5-14-5-18.9 0zm47.3 81.3c0 2.1 16.3 3.3 15.4-0.5-1.3-6.4-13.6-5.9-15.4 0.5zm-69.5 11.1c3.7 3.2 9.3-0.7 11.1-5.2-3.6-4.7-16.9 0.3-11.1 5.2zm67.5-6.7c-4.6 4.2 0.8 8.6 5.3 5.7 1.2-0.8-0.1-4.7-5.3-5.7z"/>
  <use id="use4806" style="opacity:.66995;filter:url(#filter8490-0);fill:url(#linearGradient4858)" clip-path="url(#clipPath9086-1)" xlink:href="#outline1" transform="matrix(.99054 0 0 .99054 .60515 .60414)" height="300" width="400" y="0" x="0"/>
  <path id="path4808" style="opacity:.50526;fill:url(#linearGradient4860)" d="m16.565 57.039c-11.202 11.101 8.477 7.973 23.615 13.927l31.285-55c-4.7432-4.8441-10.798-4.4404-15.138 0l-39.762 41.073z"/>
  <path id="path4810" style="fill:url(#linearGradient4862)" d="m70.5 15.5 16.3 16.6c1.5 1.5 1.5 4.6 0.6 5.5l-8.1-6.6-1.6 9.7-6.7-3.6-10.9 6.9-3.6-14.5-5.8 12.6-14.5-0.1c-2.8 0-2.4-2.9 0.5-5.8 5.7-6.3 16.8-17 20.3-20.7 3.6-3.7 9.9-3.6 13.5 0z"/>
  <path id="path4812" style="opacity:.21675;fill:url(#radialGradient4864);fill-rule:evenodd" transform="matrix(.52965 0 0 .52965 -11.722 -13.864)" d="m113 203.5s3.3405 5.1007 3 7.5c-0.66817 4.7087-10.809 7.0584-8.5625 11.25 2.2199 4.1411 10.221 1.794 16.938 6.125 6.6875 4.3125 4.8895 13.101 9.75 15.312 9.4792 4.312 34.375-7.4375 33.125-7.1875s-24.57 5.0954-29.82 0.84545c-5.9859-4.8458-7.7022-8.2303-12.117-11.095-4.1375-2.685-9.9497-3.7804-11.302-5.9786-1.3528-2.1983 2.7092-5.0347 2.99-9.2714 0.16862-2.5444-4-7.5-4-7.5z"/>
  <path id="path4814" style="opacity:.27586;filter:url(#filter8732-3);fill:url(#radialGradient4866);fill-rule:evenodd" transform="matrix(.52965 0 0 .52965 -11.722 -13.864)" d="m113 203.5s3.3405 5.1007 3 7.5c-0.66817 4.7087-10.809 7.0584-8.5625 11.25 2.2199 4.1411 10.221 1.794 16.938 6.125 6.6875 4.3125 4.8895 13.101 9.75 15.312 9.4792 4.312 34.375-7.4375 33.125-7.1875-41.34 0.15736-33.625-10.495-49.562-17.5-2.303-1.0123-0.96826-3.7633-0.6875-8 0.16862-2.5444-4-7.5-4-7.5z"/>
  <path id="path4816" style="opacity:.45320;fill:url(#radialGradient4868);fill-rule:evenodd" transform="matrix(.52965 0 0 .52965 -11.722 -13.864)" d="m183.25 181.75c37.104-13.655 49.024-15.531 61.25-27.75-14.161 11.954-44.098 18.366-68.5 29l7.25-1.25z"/>
  <path id="path4818" style="opacity:.51232;filter:url(#filter8764-9);fill:url(#radialGradient4870);fill-rule:evenodd" transform="matrix(.52965 0 0 .52965 -11.722 -14.791)" d="m183.25 181.75c61.104-21.655 50.774-21.531 61.25-27.75-19.428 7.4367-55.734 8.2298-68.5 29l7.25-1.25z"/>
  <path id="path4820" style="opacity:.28571;enable-background:accumulate;fill:url(#linearGradient4872)" transform="matrix(.52965 0 0 .52965 -12.384 -14.791)" d="m237.88 199.06a7.9375 2.4375 0 1 1 -15.875 0 7.9375 2.4375 0 1 1 15.875 0z"/>
  <path id="path4822" style="opacity:.62069;filter:url(#filter8906-3);enable-background:accumulate;fill:url(#linearGradient4874)" transform="matrix(.71315 0 0 1.1408 -54.578 -134.96)" d="m237.88 199.06a7.9375 2.4375 0 1 1 -15.875 0 7.9375 2.4375 0 1 1 15.875 0z"/>
  <path id="path4824" style="filter:url(#filter8980-1);fill:url(#radialGradient4876);fill-rule:evenodd" transform="matrix(.52965 0 0 .52965 -11.722 -14.239)" d="m214.12 203.75c3.7695 3.4842 24.756 5.2722 28.188-1-6.7366 4.7839-21.717 3.1026-28.188 1z"/>
  <path id="path4826" style="opacity:.28571;enable-background:accumulate;fill:url(#linearGradient4872)" transform="matrix(.20425 -.10356 .23952 .47240 5.7548 30.287)" d="m236.45 199.06a6.5084 3.0821 0 1 1 -13.017 0 6.5084 3.0821 0 1 1 13.017 0z"/>
  <path id="path4828" style="opacity:.62069;filter:url(#filter8906-3);enable-background:accumulate;fill:url(#linearGradient4874)" transform="matrix(.27502 -.13944 .51588 1.0175 -65.353 -69.301)" d="m236.99 199.06a7.0556 2.14 0 1 1 -14.111 0 7.0556 2.14 0 1 1 14.111 0z"/>
  <path id="path4830" style="filter:url(#filter8980-1);fill-rule:evenodd;fill:url(#radialGradient4876)" transform="matrix(.20425 -.10356 .23952 .47240 6.2599 30.65)" d="m217.06 201.94c3.7695 3.4842 26.971 8.9112 25.255 0.80973-3.3174 5.3233-18.784 1.2929-25.255-0.80973z"/>
  <path id="path4832" style="fill:url(#radialGradient4884);fill-rule:evenodd" transform="matrix(.52965 0 0 .52965 -11.722 -13.864)" d="m68.25 186c0-0.62057 38.846 11.839 45.5 18.5-5.4712-5.3385-33.16-17.616-37.375-17.75-4.2153-0.13391-7.625-0.5-8.125-0.75z"/>
  <g id="g4834" transform="matrix(.87901 -0.193 .23383 .69593 -20.21 36.726)">
   <path id="path4836" style="opacity:.28571;enable-background:accumulate;fill:url(#linearGradient4872)" transform="matrix(.52965 0 0 .52965 -84.416 -4.7277)" d="m237.88 199.06a7.9375 2.4375 0 1 1 -15.875 0 7.9375 2.4375 0 1 1 15.875 0z"/>
   <path id="path4838" style="opacity:.62069;filter:url(#filter8906-3);enable-background:accumulate;fill:url(#linearGradient4874)" transform="matrix(.71315 0 0 1.1408 -126.61 -124.89)" d="m237.88 199.06a7.9375 2.4375 0 1 1 -15.875 0 7.9375 2.4375 0 1 1 15.875 0z"/>
  </g>
  <path id="path4840" style="opacity:.61576;filter:url(#filter9068-2);fill:url(#radialGradient4890);fill-rule:evenodd" transform="matrix(.52965 0 0 .52965 -11.623 -14.427)" d="m80.5 220.06s2.1034 5.6508 7.875 5.9375c5.8389 0.29006 12.503-7.007 13.062-9.625-1 2.25-6.5903 9.0333-13.812 8.9375-4.0999-0.0544-7.125-5.25-7.125-5.25z"/>
  <path id="path4842" style="filter:url(#filter9298-4);stroke:url(#radialGradient4892);stroke-width:.48831;fill:none" d="m63.406 10.219c-3.0982 0-6.1346 1.122-8.2812 3.3125l-41.188 42.188c-3.7656 3.7656-4.6702 6.2307-4.4375 7.625 0.11637 0.69716 0.4586 1.303 1.1875 1.9375 0.7289 0.63447 1.8315 1.2564 3.1562 1.8125 2.6495 1.1122 6.218 2.0081 9.7188 2.9688 3.5008 0.96066 6.9298 1.9746 9.5312 3.625 0.39662 0.25827 0.76909 0.57647 1.0312 1.0312 0.26216 0.45478 0.35422 1.0561 0.25 1.5625-0.20843 1.0128-0.83202 1.547-1.4688 2.0312-1.2735 0.96853-3.0233 1.7732-4.7812 2.625-1.758 0.85177-3.5249 1.7232-4.4062 2.4375-0.44066 0.35713-0.60011 0.67813-0.59375 0.65625 0.0064-0.02188-0.11685-0.2731 0.09375-0.0625 0.55176 0.56709 2.2741 1.5382 4.4688 2.4062 2.1947 0.86808 4.8806 1.7456 7.5938 2.625 2.7131 0.87938 5.4575 1.75 7.7812 2.6562 2.3238 0.90629 4.2177 1.7489 5.4688 3 0.62268 0.63998 1.0626 1.436 1.1562 2.25 0.09362 0.81404-0.12681 1.578-0.4375 2.2188-0.62138 1.2814-1.6203 2.2672-2.5312 3.2188-0.91094 0.95156-1.7362 1.8603-2.0312 2.4688-0.14751 0.3042-0.17035 0.50242-0.15625 0.625s0.03518 0.24623 0.3125 0.53125a1.4567 1.4567 0 0 1 0.032 0.03c1.1936 1.2618 3.787 1.4392 6.7188 2.125 1.4659 0.34288 2.9989 0.86196 4.3125 2s2.2994 2.8706 2.7188 5.2188c0.17646 0.99459 0.70272 1.4788 1.9688 1.875 1.266 0.3962 3.1944 0.46554 5.3125 0.15625 4.2363-0.61859 9.26-2.6953 12.156-5.0938 0.17999-0.15299 0.12996-0.11255 0.1875-0.1875-0.1948-0.13939-0.65164-0.43652-1.4062-0.8125-0.89153-0.4442-1.9447-0.85956-2.75-1.875-0.40265-0.50772-0.67988-1.3093-0.5625-2.0938 0.11738-0.78441 0.54683-1.437 1.125-2.0312 4.7458-4.7985 9.4219-5.9441 12.938-6.875 1.7578-0.46543 3.2293-0.89123 4.3438-1.5938 1.1145-0.70252 1.9851-1.6637 2.7188-3.5312 0.08087-0.20217 0.07855-0.26085-0.03125-0.5-0.113-0.239-0.407-0.621-0.878-1.031-0.941-0.819-2.51-1.699-4.062-2.562-1.553-0.864-3.061-1.669-4.157-2.688-0.548-0.51-1.122-1.152-1.187-2.125-0.066-0.973 0.572-1.852 1.312-2.375 2.746-1.933 6.897-3.405 11.406-4.969 4.508-1.564 9.358-3.182 13.318-5.031 3.9514-1.8491 6.8573-3.9787 7.7812-6.125 0.46198-1.0732 0.54663-2.1586 0.0625-3.5625s-1.5896-3.1208-3.5625-5.0938l-42.66-43.657c-0.01071-0.0101-0.02051-0.02119-0.03125-0.03125-2.3577-2.2077-5.4784-3.3125-8.5625-3.3125zm45.938 80c-2.6352 0.09513-5.0595 1.3014-6.0938 3.1875 0.29381 0.11052 0.55838 0.23497 1.0312 0.34375 1.3756 0.31646 3.2954 0.52074 5.1875 0.5625s3.7842-0.11747 4.9375-0.4375c0.50487-0.14009 0.77236-0.28178 0.90625-0.375-0.2558-1.0911-0.86487-1.8621-1.9062-2.4375-1.0786-0.59595-2.5567-0.89811-4.0625-0.84375zm-70.5 9.0625c-2.0899-0.14535-4.7165 0.68655-6 1.7188-0.64173 0.5161-0.91327 0.99441-0.9375 1.3125s0.07726 0.74199 0.9375 1.4688a1.4567 1.4567 0 0 1 0 0.0312c1.3528 1.17 2.8823 1.048 4.625 0.0937 1.461-0.79997 2.7572-2.3008 3.625-3.875-0.58503-0.37734-1.2845-0.68285-2.25-0.75zm61 0.625c-0.4473 0.5686-0.6909 1.098-0.71875 1.4688-0.03844 0.51176 0.10661 0.90723 0.5 1.2812 0.73729 0.70099 2.3391 1.0028 3.9688 0.125-0.0322-0.1891-0.0933-0.47591-0.34375-0.84375-0.4999-0.73414-1.6686-1.5251-3.4062-2.0312z"/>
  <path id="path4844" style="opacity:.32512;filter:url(#filter5983-8);fill:url(#linearGradient4894);fill-rule:evenodd" transform="matrix(.48831 0 0 .48831 -5.8104 -7.7043)" d="m95.5 172c-5.0906 1.5019-21.592 7.7371-19.25 12.5 2.2436 4.5627 40.611 6.4013 46.5 20 2.5679 5.9301-5.8924 10.403-3.75 16.5 1.6497 4.6948 14.412 16.491 22.486 22.068 6.333 4.3744 14.651-3.5224 11.264-10.068-5.3959-10.428 18.443-23.199 29.25-29 6.3052-3.3844-13-20-13-20l-73.5-12z"/>
  <path id="path4846" style="opacity:.47783;filter:url(#filter5845-5);fill:url(#radialGradient4896);fill-rule:evenodd" transform="matrix(.48831 0 0 .48831 -5.8104 -7.7043)" d="m182.75 187.25c-1.7598 6.4783 21.628 15.28 19.875 19.75-3.859 9.8416-24.976 3.1376-41.125 23.75-2.3132 2.9525 3.25 13.5 2.5 12.25s-6.4649-9.9628-5-14.25c4.5942-13.445 49.013-18.457 40.875-24.875-4.6799-3.6906-21.505-13.887-17.125-16.625z"/>
  <path id="path4848" style="opacity:.58621;enable-background:accumulate;fill:#fff" transform="matrix(.48831 0 0 .48831 -6.3597 -8.0094)" d="m236.5 201.19a2.5625 1.0625 0 1 1 -5.125 0 2.5625 1.0625 0 1 1 5.125 0z"/>
  <path id="path4850" style="opacity:.58621;enable-background:accumulate;fill:#fff" transform="matrix(.30966 0 0 .48831 27.528 1.5736)" d="m236.5 201.19a2.5625 1.0625 0 1 1 -5.125 0 2.5625 1.0625 0 1 1 5.125 0z"/>
  <path id="path4852" style="opacity:.58621;enable-background:accumulate;fill:#fff" transform="matrix(.54786 0 0 .48831 -92.102 1.1158)" d="m236.5 201.19a2.5625 1.0625 0 1 1 -5.125 0 2.5625 1.0625 0 1 1 5.125 0z"/>
  <path id="path4854" style="opacity:.25123;enable-background:accumulate;fill:url(#linearGradient4898)" d="m36.672 76.529c-7.153 4.4241-18.274 6.0342-6.1038 8.9726-1.4497-3.2281 3.1386-2.872 6.1038-8.9726z"/>
  <path id="path4856" style="opacity:.36316;color:#000000;filter:url(#filter10997-7-2);enable-background:accumulate;fill:url(#linearGradient4900)" transform="matrix(.48831 0 0 .48831 57.75 32.997)" d="m8.8343 171.65s22.592-2.128 27.818-8.6464c3.0576-3.8136-12.151-8.2638-8.8683-12 12.35-14.054 22.731-13.467 37.05-19.354 14.319-5.8863 9.0354-8.7691 4.4038-11.354-7.9325-4.4264-25.587-9.1424-19.747-19.646 5.8769-10.57 57.343-25.25 57.343-25.25 15.596-5.3284 13.639-14.964 6-23l-46-45.75s2.283 43.389-7 62c-11.472 22.999-72.544 48.662-47 51.5 9 1 13.321 4.0705 17 11 7.5763 14.269-21 40.5-21 40.5z"/>
 </g>
 <path id="rect3728" d="m12 6c-3.324 0-6 2.676-6 6v2 68 2c0 0.33472 0.04135 0.6507 0.09375 0.96875 0.0487 0.2956 0.09704 0.59692 0.1875 0.875 0.00988 0.03038 0.020892 0.0636 0.03125 0.09375 0.098865 0.28777 0.23488 0.54745 0.375 0.8125 0.14459 0.27351 0.31562 0.53562 0.5 0.78125 0.18438 0.24564 0.37378 0.47347 0.59375 0.6875 0.43995 0.42806 0.94291 0.81453 1.5 1.0938 0.27854 0.13961 0.57347 0.24695 0.875 0.34375-0.2562-0.10022-0.48671-0.23627-0.71875-0.375-0.00741-0.0044-0.023866 0.0045-0.03125 0-0.031933-0.0193-0.062293-0.04251-0.09375-0.0625-0.1204-0.0767-0.23102-0.16351-0.34375-0.25-0.10617-0.0808-0.21328-0.16111-0.3125-0.25-0.1778-0.162-0.3473-0.346-0.4999-0.531-0.1075-0.131-0.2183-0.266-0.3124-0.407-0.0251-0.038-0.0385-0.086-0.0626-0.125-0.0647-0.103-0.1302-0.204-0.1874-0.312-0.1011-0.195-0.2057-0.416-0.2813-0.625-0.008-0.022-0.0236-0.041-0.0313-0.063-0.0318-0.092-0.0358-0.187-0.0624-0.281-0.0304-0.107-0.0704-0.203-0.0938-0.313-0.0729-0.341-0.125-0.698-0.125-1.062v-2-68-2c0-2.782 2.2182-5 5-5h2 68 2c2.7818 0 5 2.2182 5 5v2 68 2c0 0.3643-0.05212 0.72099-0.125 1.0625-0.04415 0.20689-0.08838 0.39766-0.15625 0.59375-0.0077 0.02195-0.0233 0.04069-0.03125 0.0625-0.06274 0.17374-0.13838 0.36745-0.21875 0.53125-0.04158 0.0828-0.07904 0.16995-0.125 0.25-0.0546 0.09721-0.12677 0.18835-0.1875 0.28125-0.09411 0.14096-0.20492 0.276-0.3125 0.40625-0.14317 0.17445-0.30314 0.347-0.46875 0.5-0.01117 0.0102-0.01998 0.02115-0.03125 0.03125-0.13839 0.12556-0.28509 0.23444-0.4375 0.34375-0.10257 0.07315-0.20432 0.15336-0.3125 0.21875-0.0074 0.0045-0.02384-0.0044-0.03125 0-0.23204 0.13873-0.46255 0.27478-0.71875 0.375 0.30153-0.0968 0.59646-0.20414 0.875-0.34375 0.55709-0.27922 1.0601-0.66569 1.5-1.0938 0.21997-0.21403 0.40937-0.44186 0.59375-0.6875s0.35541-0.50774 0.5-0.78125c0.14012-0.26505 0.27614-0.52473 0.375-0.8125 0.01041-0.03078 0.02133-0.06274 0.03125-0.09375 0.09046-0.27808 0.1388-0.5794 0.1875-0.875 0.053-0.318 0.094-0.634 0.094-0.969v-2-68-2c0-3.324-2.676-6-6-6h-72z" style="opacity:.35;fill:url(#linearGradient5058)"/>
 <path id="path3615" d="m12 90c-3.324 0-6-2.676-6-6v-2-68-2c0-0.33472 0.04135-0.6507 0.09375-0.96875 0.0487-0.2956 0.09704-0.59692 0.1875-0.875 0.0099-0.03 0.0209-0.063 0.0313-0.094 0.0989-0.2873 0.2349-0.547 0.375-0.812 0.1446-0.2735 0.3156-0.5356 0.5-0.7812 0.1844-0.2457 0.3738-0.4735 0.5937-0.6876 0.44-0.428 0.943-0.8145 1.5-1.0937 0.2786-0.1396 0.5735-0.2469 0.8748-0.3437-0.256 0.1002-0.4865 0.2362-0.7185 0.375-0.00741 0.0044-0.023866-0.0045-0.03125 0-0.031933 0.0193-0.062293 0.04251-0.09375 0.0625-0.1204 0.0767-0.23102 0.16351-0.34375 0.25-0.10617 0.0808-0.21328 0.16111-0.3125 0.25-0.1779 0.1614-0.3474 0.3453-0.5 0.5312-0.1075 0.1303-0.2183 0.2653-0.3124 0.4063-0.0251 0.0383-0.0385 0.0858-0.0626 0.125-0.0647 0.103-0.1302 0.2045-0.1874 0.3124-0.1011 0.1948-0.2057 0.4158-0.2813 0.625-0.008 0.0219-0.0236 0.0406-0.0313 0.0626-0.0318 0.0919-0.0358 0.1868-0.0624 0.2812-0.0304 0.1066-0.0704 0.203-0.0938 0.3125-0.0729 0.3415-0.125 0.6985-0.125 1.0625v2 68 2c0 2.7818 2.2182 5 5 5h2 68 2c2.7818 0 5-2.2182 5-5v-2-68-2c0-0.364-0.052-0.721-0.125-1.0625-0.044-0.2069-0.088-0.3977-0.156-0.5937-0.008-0.022-0.024-0.0407-0.031-0.0626-0.063-0.1737-0.139-0.3674-0.219-0.5312-0.042-0.0828-0.079-0.17-0.125-0.25-0.055-0.0972-0.127-0.1884-0.188-0.2812-0.094-0.141-0.205-0.276-0.312-0.4063-0.143-0.1745-0.303-0.347-0.469-0.5-0.011-0.0102-0.02-0.0211-0.031-0.0313-0.139-0.1255-0.285-0.2344-0.438-0.3437-0.102-0.0731-0.204-0.1534-0.312-0.2187-0.0074-0.0045-0.02384 0.0044-0.03125 0-0.23204-0.13873-0.46255-0.27478-0.71875-0.375 0.30153 0.0968 0.59646 0.20414 0.875 0.34375 0.55709 0.27922 1.0601 0.66569 1.5 1.0938 0.21997 0.21403 0.40937 0.44186 0.59375 0.6875s0.35541 0.50774 0.5 0.78125c0.14012 0.26505 0.27614 0.52473 0.375 0.8125 0.01041 0.03078 0.02133 0.06274 0.03125 0.09375 0.09046 0.27808 0.1388 0.5794 0.1875 0.875 0.053 0.318 0.094 0.634 0.094 0.969v2 68 2c0 3.324-2.676 6-6 6h-72z" style="opacity:.2;fill:url(#radialGradient5055)"/>
 <style id="style26" type="text/css"/>
</svg>
