<?xml version="1.0" encoding="UTF-8" standalone="no"?>
<!-- Created with Inkscape (http://www.inkscape.org/) -->
<svg id="svg2408" xmlns:rdf="http://www.w3.org/1999/02/22-rdf-syntax-ns#" xmlns="http://www.w3.org/2000/svg" height="96" width="96" version="1.0" xmlns:cc="http://creativecommons.org/ns#" xmlns:xlink="http://www.w3.org/1999/xlink" xmlns:dc="http://purl.org/dc/elements/1.1/">
 <defs id="defs2410">
  <linearGradient id="linearGradient3801">
   <stop id="stop3803" style="stop-color:#fff" offset="0"/>
   <stop id="stop3805" style="stop-color:#fff;stop-opacity:0" offset="1"/>
  </linearGradient>
  <linearGradient id="linearGradient3741">
   <stop id="stop3743" style="stop-color:#d45500" offset="0"/>
   <stop id="stop3745" style="stop-color:#d45500;stop-opacity:0" offset="1"/>
  </linearGradient>
  <linearGradient id="linearGradient3718">
   <stop id="stop3720" style="stop-color:#f4de23" offset="0"/>
   <stop id="stop3722" style="stop-color:#e49600;stop-opacity:.97647" offset="1"/>
  </linearGradient>
  <linearGradient id="ButtonShadow" y2="7.0165" gradientUnits="userSpaceOnUse" x2="45.448" gradientTransform="scale(1.0059 .99417)" y1="92.54" x1="45.448">
   <stop id="stop3750" offset="0"/>
   <stop id="stop3752" style="stop-opacity:.58824" offset="1"/>
  </linearGradient>
  <filter id="filter3174" color-interpolation-filters="sRGB">
   <feGaussianBlur id="feGaussianBlur3176" stdDeviation="1.71"/>
  </filter>
  <linearGradient id="linearGradient3188" y2="63.893" gradientUnits="userSpaceOnUse" x2="36.357" y1="6" x1="36.357">
   <stop id="stop3739" style="stop-color:#fff" offset="0"/>
   <stop id="stop3741" style="stop-color:#fff;stop-opacity:0" offset="1"/>
  </linearGradient>
  <radialGradient id="radialGradient2855" gradientUnits="userSpaceOnUse" cy="90.172" cx="48" gradientTransform="matrix(1.1573 0 0 .99591 -7.551 .19713)" r="42">
   <stop id="stop3739-7" style="stop-color:#fff" offset="0"/>
   <stop id="stop3741-2" style="stop-color:#fff;stop-opacity:0" offset="1"/>
  </radialGradient>
  <clipPath id="clipPath3613">
   <rect id="rect3615" style="fill:#fff" rx="6" ry="6" height="84" width="84" y="6" x="6"/>
  </clipPath>
  <filter id="filter3794" height="1.384" width="1.384" color-interpolation-filters="sRGB" y="-.192" x="-.192">
   <feGaussianBlur id="feGaussianBlur3796" stdDeviation="5.28"/>
  </filter>
  <linearGradient id="linearGradient2885" y2="138.66" gradientUnits="userSpaceOnUse" x2="48" y1="20.221" x1="48">
   <stop id="stop3739-73" style="stop-color:#fff" offset="0"/>
   <stop id="stop3741-6" style="stop-color:#fff;stop-opacity:0" offset="1"/>
  </linearGradient>
  <linearGradient id="ButtonShadow-0" y2="7.0165" gradientUnits="userSpaceOnUse" x2="45.448" gradientTransform="matrix(1.0059 0 0 .99417 100 0)" y1="92.54" x1="45.448">
   <stop id="stop3750-8" offset="0"/>
   <stop id="stop3752-5" style="stop-opacity:.58824" offset="1"/>
  </linearGradient>
  <linearGradient id="linearGradient3780" y2="90.239" xlink:href="#ButtonShadow-0" gradientUnits="userSpaceOnUse" x2="32.251" gradientTransform="matrix(1.0238 0 0 1.0119 -1.1429 -98.071)" y1="6.1317" x1="32.251"/>
  <linearGradient id="linearGradient3721" y2="90.239" xlink:href="#ButtonShadow-0" gradientUnits="userSpaceOnUse" x2="32.251" gradientTransform="translate(0,-97)" y1="6.1317" x1="32.251"/>
  <radialGradient id="radialGradient3736" gradientUnits="userSpaceOnUse" cy="40.648" cx="48" gradientTransform="matrix(1.1434 3.8336e-8 -3.7188e-8 1.1091 -6.8811 -5.0824)" r="42">
   <stop id="stop5228" style="stop-color:#ccda0b" offset="0"/>
   <stop id="stop5230" style="stop-color:#327c12" offset="1"/>
  </radialGradient>
  <clipPath id="clipPath3759">
   <path id="path3761" style="fill:#f00" d="m36.274 6.0817c1.6501 2.2167 0.11258 5.9183 2.6015 5.8816 1.2119 1.714-2.4155 0.5113 0.20359 1.8323 1.5061 1.1866-1.5934 1.8645 0.27179 2.9294-2.1497 1.1097 0.34844 5.804 1.9451 6.9788 2.628 2.2132 1.1622-4.6857 4.0945-5.0446 1.5934-1.8197 4.3918-2.9878 6.3793-4.8184-1.9423-0.15774-3.0765-1.3671-1.237-2.1163 3.3855 3.4704 0.84891-1.6435-1.0251-2.4532 1.8134-0.57705 3.577-0.15448 3.3254-1.6514 1.9163-1.4025-1.8423-1.8553-3.1839-1.5383h-13.375zm-27.802 1.4478c-2.4497 0.6982-2.6206 6.5545-0.1583 3.3025 0.6043-1.3351 3.3973-2.9445 0.1583-3.3025zm11.446 0.20359c-1.4123 2.2153 0.20492 3.9915 1.3799 1.2894 0.83171-1.1283-0.61793-1.2481-1.3799-1.2894zm3.529 0.49767c-2.7288 1.2652-0.6726 4.2156-0.60506 4.8717 2.8746 0.99483 4.4732-0.65044 5.5607 2.1615 2.7352 1.5769-0.05382 4.3171-1.0805 5.0307 1.8493-1.6112 5.4042 4.3805 4.4722 1.2149-1.1118-0.81208 2.9852 1.3046 0.85962-1.3347-1.9561-3.1527 0.15527-1.4114 0.97995-0.67561 2.8049-2.5161-3.1736-2.8202-1.6812-5.4096-1.3078-1.0596-3.0229-4.2695-5.3387-3.6421-1.5502 2.0056-0.21415-4.37-2.4886-1.1796-0.11789 1.7834-0.04285 4.0465-0.70571 0.95682-0.44407-0.54087 0.764-1.7983 0.0273-1.9942zm-5.5649 0.022621c-1.8316 0.61085-1.7332 3.0865 0.51896 3.3519 0.77144-0.87963 0.30649-3.1853-0.51896-3.3519zm-7.1484 0.79175c-2.3791 0.56388-1.408 2.4829-0.67957 3.0233-2.9449 0.73792 4.4957 0.94313 0.79268 1.4105-3.0808 1.2308 2.9667 2.6809 3.9588 1.2216 3.8044 0.93074 0.13691-3.0465-0.19704-5.2025-1.6128-1.7315-0.06366 3.9915-1.5219 0.18441-0.50879 1.1305-2.1265 0.1666-2.353-0.63725zm75.601 0.24884c-3.1924 1.2499 1.9842 5.9664 0.69764 1.6755-0.12817-0.51812 0.2882-1.8871-0.69764-1.6755zm-66.665 1.9c-2.2941 2.1567 2.916 3.9402-0.6589 5.5469-0.53602-2.0029-1.4583 1.0021-3.5035-0.61542-3.5159 1.4645-5.3139-0.76283-8.2575-2.2896-1.768-0.22016-1.1038 1.6805-1.2209 3.4602v14.755c1.7335 1.8245 0.67633 0.80498 0 0.30175 0.95147 3.2416-0.41957 7.9802 3.3309 9.8658 0.63756 1.183 3.3129 6.2231 3.4362 4.715-1.3412-1.4051-2.7174-5.6174-0.4479-1.863 2.0328 3.5688 4.7747 5.8835 8.7805 6.7328 2.1901 0.74522 3.9912 3.307 5.9171 2.7433 1.0891 2.872-3.2274 5.6299 0.14491 8.3086 1.7605 2.7118 4.7162 4.4904 3.116 8.2976-1.1191 3.7183-0.63993 7.7697-1.6078 11.234-0.30039 2.1087 2.938 7.461 2.6575 3.1751 0.94557-2.9784 0.92064-6.2556 3.1476-8.3648 3.0471 0.02413 0.58238-3.2778 3.607-2.8464 1.8456-2.4201 2.3802-5.3071 5.4949-6.2681 0.37204-2.9376 5.1788-7.4366 0.21313-8.5803-1.3496-0.66545-4.8245-0.90473-4.5589-1.2331 0.53803-2.9149-4.4935-3.7447-6.6342-4.9373-2.8108-1.9958-7.0342 3.3156-8.0245-1.261-0.59088-1.4399-2.7513-1.4633-1.7584-3.6852-1.7894 1.7803-5.2893 1.2392-4.373-2.1989 1.3916-2.8956 6.7356-3.0326 7.6463 0.45028-1.2644-3.8412 2.4439-6.8314 4.5025-9.5642 0.41916-1.3062 2.9097-2.4284 2.0527-0.69242 1.4602-0.05269 3.6733-2.6886 1.0794-1.472-0.03668-2.4039-2.273-1.7203-2.998-1.3789 1.3438-2.1336 8.245-0.96713 5.3551-4.4546-2.2393-0.90768-2.053-6.2044-4.318-3.2536 0.1906-1.8181-4.61-5.3771-4.5053-2.3283 0.58599 2.7281 0.10713 5.8709-1.1399 7.6591-0.26024-3.9976-7.0757-3.1141-6.1994-7.374 1.2694-2.0303 2.7529-4.8379 2.8942-4.5853 2.275-0.86894 4.1046-3.3965 1.4678-5.0581-0.14092 1.4482-1.983 4.4361-1.7237 0.82232-1.7058 2.0232-1.3162-3.2194-2.9138-3.7631zm54.45 1.4025c-3.9959 0.97784-5.5801 4.7958-7.5568 7.9582-2.9139 1.3142-2.8029 6.9583 0.45241 5.1557 0.87128 1.5223-0.60951 3.9217 1.9283 1.9312 2.047-2.7099 0.35794-7.0928 3.8414-8.8015 0.25373 1.3286-3.2133 6.2899 0.837 5.4744 3.6616 0.13821-2.6619 0.36497-0.88101 2.7047-1.8503-1.0982-0.88882 2.9993-3.304 2.0458-2.0923 1.1385-3.4643-0.52863-2.985-2.355-1.646 0.96057 0.51769 3.6704-2.3396 3.8333-0.64004 2.2737-5.9034 1.931-2.9102 4.2462 1.3289 3.4454-4.9515 0.21599-3.1685 4.3505 1.5254 4.0884 4.7224-1.3547 6.0194-2.4063 2.5025-1.9419 6.2107 3.3111 3.9588 3.5063 2.5251-0.33891 2.0062-2.7412-0.017-3.6713-1.0927-2.8349 3.459 1.3903 3.2066 2.8117 1.6059 3.0083 0.94461-3.0801 2.5788-0.38456-0.1908 2.8434 6.5742 0.66856 3.3444 4.2924-2.7769 0.55951-5.5101-0.71614-7.9008 0.10093-2.2251-0.01969-2.1135-2.398-2.9236-2.9935-2.8304 0.23004-6.3279 0.20403-8.2228 2.4914-2.049 2.8123-5.0038 6.7438-2.7705 10.335 2.2349 5.3215 7.7772 0.27603 10.963 3.4188 0.94693 1.3104-0.8206 2.868 1.2967 4.2874 0.7967 3.0235-0.90449 5.8943 1.0523 8.7846 1.0118 2.7182 1.6398 6.7866 5.4058 4.3028 3.9858-2.3994 2.9242-6.8227 6.2129-9.2726-2.6023-5.0381 3.1836-7.2471 4.6272-11.337-3.1539 0.46191-5.9638-2.6838-6.7258-5.8499-1.3249-1.5379-0.98367-3.8055 0.49633-0.91647 2.0343 1.9719 2.0782 7.8231 5.8413 4.813 1.7204-0.71984 6.4186-3.4657 2.6751-4.7153-2.413 1.7484-5.0752-5.2243-1.5318-1.18 2.576 1.0933 4.38 1.7447 4.38-1.8801v-29.497c-0.8024 0.82028-2.8638 2.3352-3.9043 1.3286-1.7904 0.24941-4.1539 3.7343-3.5912 0.36554-1.5562-0.10309-0.27859 3.0205-2.4166 3.1079-0.21529 1.6059-2.1599 0.29738-1.4294 1.8224-1.5006-1.0649-2.7707-4.427 0.18614-2.3167 4.391-1.3178-2.8956-4.2904-3.458-5.0089 0.94545-0.22662-1.0286-1.2122-1.2668-0.88224zm-36.24 0.88224c-1.4615 1.2182 2.7785 1.4476 0 0zm-19.522 0.65602c-1.6347 1.7105 2.6033 1.5724 0 0zm9.4784 1.6966c-1.2379 2.0286 1.829 0.74894 0 0zm27.101 2.3979c-1.4492 1.6691-3.362-0.43926-3.3932 0.99535 0.26265 0.43347 1.3147 3.5273 3.6194 1.2442 1.237-0.52171 0.74997-1.8369-0.22621-2.2395zm-30.856 0.99535c-2.7488 2.4015 4.6683 2.6227 0.58232 0.27543l-0.58232-0.27543zm36.262 6.6507c-1.9791 1.291 0.94944 4.0328-0.0431 5.3207-1.2401 2.1615 4.6083-0.15226 1.4846-1.8768-0.22257-1.4816-1.83-3.2894-1.4415-3.444zm-1.3347 2.6015c-2.7574 0.77986-0.62597 4.8062 0.35065 1.014 0.055-0.21986 0.12936-1.0214-0.35065-1.014zm-22.078 2.919c-2.5652 1.7498-0.39843 3.4964 1.4816 2.7091-0.38596-1.0558-1.4642-1.721-1.4816-2.7091zm48.455 2.9408c1.28 0.6462-2.3455 1.7501-0.0498 2.8874 1.336 1.5717 0.83231 4.9455-1.3392 2.5576 0.40344-2.666-2.9436-4.657 1.389-5.445zm-6.5829 0.02262c-0.17366 1.7128 3.694 4.3751-0.47504 3.5063-2.2048 0.25872-5.507-0.06739-2.7294-2.8157 0.87765-0.52708 3.1821 1.8185 1.9829-0.37395 0.42514-0.02713 0.82107-0.18767 1.2216-0.3167zm-12.736 3.7099c-1.6081 1.0364 1.112 1.8311 0 0zm-40.379 9.659c-0.2711 0.9048 5.086 1.8218 1.3893 0.37215l-0.551-0.194-0.838-0.178zm4.1624 1.2894c-1.6249 1.6502 3.3478 0.49302 0 0zm54.337 15.134c-3.5307 0.09113-3.0613 9.2016-0.60013 3.8108 0.2334-1.1698 1.1689-2.7138 0.60013-3.8108z"/>
  </clipPath>
  <clipPath id="clipPath3775">
   <rect id="rect3777" style="fill:#f0f" rx="6" ry="6" height="84" width="84" y="6" x="56"/>
  </clipPath>
  <filter id="filter3824" color-interpolation-filters="sRGB">
   <feGaussianBlur id="feGaussianBlur3826" stdDeviation="2.2341589"/>
  </filter>
  <radialGradient id="radialGradient3687" gradientUnits="userSpaceOnUse" cy="48" cx="48" r="42">
   <stop id="stop3702" style="stop-color:#307b8e" offset="0"/>
   <stop id="stop3862" style="stop-color:#286776" offset=".5"/>
   <stop id="stop3704" style="stop-color:#14333b" offset="1"/>
  </radialGradient>
  <filter id="filter3693" color-interpolation-filters="sRGB">
   <feGaussianBlur id="feGaussianBlur3695" stdDeviation="3.2976812"/>
  </filter>
  <linearGradient id="linearGradient3724" y2="43.788" xlink:href="#linearGradient3718" gradientUnits="userSpaceOnUse" x2="66.578" y1="46.666" x1="59.986"/>
  <linearGradient id="linearGradient3732" y2="54.817" xlink:href="#linearGradient3718" gradientUnits="userSpaceOnUse" x2="63.044" y1="51.333" x1="55.785"/>
  <linearGradient id="linearGradient3747" y2="46.802" xlink:href="#linearGradient3741" gradientUnits="userSpaceOnUse" x2="65.46" y1="90.849" x1="40.029"/>
  <linearGradient id="linearGradient3807" y2="7.6884" xlink:href="#linearGradient3801" gradientUnits="userSpaceOnUse" x2="74.315" y1="5.568" x1="74.245"/>
  <linearGradient id="linearGradient3822" y2="9.5494" xlink:href="#linearGradient3741" gradientUnits="userSpaceOnUse" x2="73.238" y1="90.723" x1="38.622"/>
  <linearGradient id="linearGradient3831" y2="9.2075" xlink:href="#linearGradient3801" gradientUnits="userSpaceOnUse" x2="40.975" y1="5.0117" x1="40.975"/>
  <linearGradient id="linearGradient3846" y2="41.832" xlink:href="#linearGradient3741" gradientUnits="userSpaceOnUse" x2="37.785" y1="83.196" x1="85.931"/>
  <linearGradient id="linearGradient3860" y2="71.307" xlink:href="#linearGradient3801" gradientUnits="userSpaceOnUse" x2="74.013" y1="16.161" x1="48.846"/>
 </defs>
 <metadata id="metadata2413">
  <rdf:RDF>
   <cc:Work rdf:about="">
    <dc:format>image/svg+xml</dc:format>
    <dc:type rdf:resource="http://purl.org/dc/dcmitype/StillImage"/>
    <dc:title/>
   </cc:Work>
  </rdf:RDF>
 </metadata>
 <g id="layer2" style="display:none">
  <rect id="rect3745" style="opacity:.9;filter:url(#filter3174);fill:url(#ButtonShadow)" rx="6" ry="6" height="85" width="86" y="7" x="5"/>
 </g>
 <g id="layer5">
  <path id="path3786" style="opacity:0.08;fill:url(#linearGradient3780)" d="m12-95.031c-5.5111 0-10.031 4.5202-10.031 10.031v71c0 5.5111 4.5202 10.031 10.031 10.031h72c5.5111 0 10.031-4.5202 10.031-10.031v-71c0-5.5111-4.5202-10.031-10.031-10.031h-72z" transform="scale(1,-1)"/>
  <path id="path3778" style="opacity:.1;fill:url(#linearGradient3780)" d="m12-94.031c-4.9716 0-9.0312 4.0596-9.0312 9.0312v71c0 4.9716 4.0596 9.0312 9.0312 9.0312h72c4.9716 0 9.0312-4.0596 9.0312-9.0312v-71c0-4.9716-4.0596-9.0312-9.0312-9.0312h-72z" transform="scale(1,-1)"/>
  <path id="path3770" style="opacity:.2;fill:url(#linearGradient3780)" d="m12-93c-4.4091 0-8 3.5909-8 8v71c0 4.4091 3.5909 8 8 8h72c4.4091 0 8-3.5909 8-8v-71c0-4.4091-3.5909-8-8-8h-72z" transform="scale(1,-1)"/>
  <rect id="rect3723" style="opacity:.3;fill:url(#linearGradient3780)" transform="scale(1,-1)" rx="7" ry="7" height="85" width="86" y="-92" x="5"/>
  <rect id="rect3716" style="opacity:.45;fill:url(#linearGradient3721)" transform="scale(1,-1)" rx="6" ry="6" height="84" width="84" y="-91" x="6"/>
 </g>
 <g id="layer1">
  <rect id="rect2419" style="fill:url(#radialGradient3687)" rx="6" ry="6" height="84" width="84" y="6" x="6"/>
  <path id="path3414" style="filter:url(#filter3693);fill:#193f48" d="m86.274 6.0817c1.2357 2.2467 0.75136 5.4483 2.7762 6.7052-2.2617 0.40221 2.0264 1.7272-0.31694 3.198-0.24604 2.0975 0.0274 7.2741 3.6651 8.106 0.8463-3.4756 2.693-6.1896 6.0339-7.8368 2.2642-1.4856 4.2648-2.221 1.1713-3.5723 0.39719-2.4183 3.9953 2.2166 1.9445-1.3634-1.4454-1.7052-2.6529-2.4458 0.39649-2.5278 3.5685-2.5277-1.5913-3.1627-3.9587-2.7089h-11.712zm-27.802 1.4478c-2.734 0.4561-2.111 6.9085 0.155 2.7925 1.051-0.9976 2.353-2.7926-0.155-2.7925zm11.446 0.20359c-2.176 2.7999 1.903 3.3479 1.51 0.3965-0.395-0.3747-1.013-0.3365-1.509-0.3965zm3.529 0.49767c-3.4349 2.2307 0.000377 6.6591 3.4762 5.3759 2.6184 1.4075 3.6119 5.0539 0.39884 6.688 1.675-1.7112 5.1397 4.1477 4.4364 1.0349 3.8552 1.7093-2.2992-5.0244 1.5163-2.1418 3.1404-0.6917-2.3918-3.6761-1.832-5.5845-1.0037-2.886-4.534-2.6212-5.6978-3.4887-0.38533-3.978-2.1217 0.53234-1.952 1.5151-1.0396-1.0975 0.16222-2.5099-0.34603-3.3989zm-5.5649 0.022621c-4.39 3.1128 3.8392 5.0907 0 0zm-7.1484 0.79175c-2.773 0.21667-0.28698 3.0805-1.2774 3.4893 1.8336 0.49495 3.5969 0.59874 0.63536 1.4102 0.91704 2.4811 9.0118 1.6472 5.4768-2.0972-0.77526-2.7685-1.7916-2.5808-2.0639-1.1509-0.16207-1.9626-2.0076 0.84152-2.7709-1.6514zm75.601 0.24884c-3.2529 1.3149 2.3626 5.7827 0.6732 1.1654 0.0605-0.42056 0.0261-1.3957-0.6732-1.1654zm-66.67 1.9c-1.7117 1.3196 2.3908 6.0247-0.87944 5.0117-2.9416 0.13009-6.6715 1.1727-9.5028-1.162-3.4589-3.2807-3.5698 1.3422-3.2586 3.9155v13.092c2.0567 2.17-0.79974-0.87649 0.26247 1.579-0.56787 4.533 1.8926 7.7496 4.4033 10.998 0.50038 1.5163 3.253 3.9129 1.1464 0.89385-1.8093-5.0371 2.7138 4.0848 4.7092 4.3431 3.4006 1.983 8.5841 3.2727 10.676 5.7535-1.7431 3.5342-1.5517 7.0543 1.7894 9.5962 3.5558 3.2718 0.13351 7.7128 0.43024 11.651-0.30216 3.0505-1.8317 9.5229 1.8643 9.8775 0.78654-3.1958 0.57097-8.3469 4.0993-9.6785 1.6784-2.7564 4.2127-4.3013 5.9133-7.5893 2.6822-1.6367 5.7396-6.3272 3.9278-9.3959-2.6179-1.5004-6.3262-0.51552-6.8599-4.0062-3.1622-1.6044-6.8557-4.373-10.46-2.4034-3.5074 1.9687-4.8065-5.3504-5.8272-4.7258-6.236 2.2463-3.2918-7.2385 1.5599-4.7428 2.1719 0.31116 2.7044 4.1088 2.2222 0.36168 1.0364-3.482 3.7813-7.4858 6.8854-8.9897-0.65877 2.5468 4.1468-2.1032 0.97962-0.66414 0.28475-2.9594-5.2266-0.71901-1.188-2.4846 3.9205 0.02902 5.4305-2.6829 2.0075-5.1001-0.36283-1.2542-1.6518-3.5485-2.7804-1.5024-0.51059-3.881-6.3466-4.6371-4.2588 0.29678 0.0284 1.731-1.0559 7.056-2.1302 3.2341-2.9842-1.7019-7.8979-4.194-4.0192-7.9837 0.83921-2.5988 6.7063-4.3645 2.9257-7.2338 0.12308 1.7432-2.2469 3.7361-1.7237 0.82232-1.9415 1.8958-1.3072-3.5306-2.9138-3.7631zm54.45 1.4025c-4.7146 0.96112-5.6794 6.3801-8.876 9.0765-1.9797 2.2758 0.14404 4.92 2.0006 4.6391 0.2337 5.0759 3.8379-1.9176 3.1929-4.0577 0.088-2.5694 3.7197-4.7441 1.6563-0.88321-2.1015 2.7479 1.7556 3.2933 2.3894 3.243-2.6143 0.43266-1.345 2.4376-2.9635 2.8212-0.30797 2.8695-6.1458 2.6753-5.0673-0.72528-0.46743 3.4874-3.2527 4.9584-6.1478 6.759 2.5043 2.5833-0.3556 3.2235-2.5263 4.0294 0.13314 5.9295 5.0171 1.2003 6.7568-1.0476 3.1607-1.4752 4.1233 4.2463 4.2844 3.5722 3.2027-1.0314-3.5159-5.8538 0.46398-3.6447 1.7777 1.2352 2.478 6.085 3.79 1.9097 0.00025 3.0357 7.0022 1.7563 4.0516 5.0001-3.2663-0.54774-8.2037 1.4061-10.13-1.6889-1.7014-2.4813-6.9049-0.67136-8.9171 1.2877-2.7371 3.1889-5.2969 8.2671-1.7885 11.881 2.8378 2.7274 11.162-1.8761 10.187 4.5255 2.7529 2.8429-0.14565 7.2578 2.1433 10.419 0.19737 4.047 4.4776 7.1154 7.1774 2.766 1.4129-3.9284 5.0491-6.9856 3.8635-11.058 0.22052-3.3778 8.6662-8.0103 2.401-8.5298-2.4622-1.2768-4.9282-5.6078-4.3137-7.5439 2.4334 1.7937 2.6352 9.0286 6.7295 6.1049 3.9021-1.013 5.3591-5.1961 0.53687-5.0288-3.8573-5.3543 5.2614 3.8452 4.9655-2.1161 0.0485-10.042 0.007-20.085 0.0209-30.127-2.1315 2.3001-5.156 1.0968-7.4235 3.0933-0.59137-3.6042-1.3304 3.2542-3.8436 2.7078-0.46926 2.5025-3.1527-4.3005 0.11162-1.4934 3.8448-2.1602-3.5403-4.3446-4.2935-5.9244l-0.43138 0.03324h0.00004zm-36.24 0.88224c-1.2589 1.7055 2.6556 0.74052 0 0zm-19.522 0.65602c-1.5408 1.8678 2.532 1.1553 0 0zm9.4784 1.6966c-1.3713 1.9594 1.8986 0.80558 0 0zm27.101 2.3979c-1.4132 1.1858-5.0522-0.17696-2.3493 2.6362 1.295 1.4378 5.0601-1.5116 2.3493-2.6362zm-30.856 0.99535c-2.6 2.3838 4.4992 2.2083 0.58232 0.27543-0.19411-0.09181-0.38822-0.18362-0.58232-0.27543zm36.262 6.6507c-1.4706 1.6522 0.43313 4.5249 0.10498 6.1819 4.9409-0.66944-0.0301-3.8058-0.10498-6.1819zm-1.3347 2.6015c-4.003 2.4506 1.6036 3.9854 0 0zm-22.09 2.919c-3.918 1.7649 3.2244 4.7143 0.60257 1.3292l-0.41801-0.6375-0.18456-0.69172zm48.455 2.9408c0.23054 1.1399-1.8588 2.4709 0.36529 3.5464 1.7027 3.328-2.6444 3.1428-1.9763 0.03388-1.0661-1.8552-0.76661-3.4099 1.611-3.5803zm-6.5829 0.02262c1.063 2.2214 2.3558 4.4998-1.3392 3.5724-4.194 1.3156-2.8025-4.8067 0.24867-2.3128 0.47185-0.74225-0.84596-1.067 1.0906-1.2595zm-12.736 3.7099c-1.729 0.94854 1.2773 1.891 0 0zm-40.373 9.659c1.2463 1.7234 4.0956 0.97538 0.83823 0.1781-0.27941-0.05937-0.55882-0.11874-0.83823-0.1781zm4.1624 1.2894c-1.3384 1.9945 3.1083-0.06023 0 0zm54.341 15.134c-3.8548-0.09285-2.5229 9.0847-0.484 3.3562 0.29039-1.0717 0.98911-2.2401 0.484-3.3562z" clip-path="url(#clipPath3775)" transform="translate(-50)"/>
  <path id="path3615" style="opacity:.15;fill:url(#radialGradient2855)" d="m12 90c-3.324 0-6-2.676-6-6v-2-68-2c0-0.33472 0.04135-0.6507 0.09375-0.96875 0.0487-0.2956 0.09704-0.59692 0.1875-0.875 0.0099-0.03 0.0209-0.063 0.0313-0.094 0.0989-0.2873 0.2349-0.547 0.375-0.812 0.1446-0.2735 0.3156-0.5356 0.5-0.7812 0.1844-0.2457 0.3738-0.4735 0.5937-0.6876 0.44-0.428 0.943-0.8145 1.5-1.0937 0.2786-0.1396 0.5735-0.2469 0.8748-0.3437-0.256 0.1002-0.4865 0.2362-0.7185 0.375-0.00741 0.0044-0.023866-0.0045-0.03125 0-0.031933 0.0193-0.062293 0.04251-0.09375 0.0625-0.1204 0.0767-0.23102 0.16351-0.34375 0.25-0.10617 0.0808-0.21328 0.16111-0.3125 0.25-0.1779 0.1614-0.3474 0.3453-0.5 0.5312-0.1075 0.1303-0.2183 0.2653-0.3124 0.4063-0.0251 0.0383-0.0385 0.0858-0.0626 0.125-0.0647 0.103-0.1302 0.2045-0.1874 0.3124-0.1011 0.1948-0.2057 0.4158-0.2813 0.625-0.008 0.0219-0.0236 0.0406-0.0313 0.0626-0.0318 0.0919-0.0358 0.1868-0.0624 0.2812-0.0304 0.1066-0.0704 0.203-0.0938 0.3125-0.0729 0.3415-0.125 0.6985-0.125 1.0625v2 68 2c0 2.7818 2.2182 5 5 5h2 68 2c2.7818 0 5-2.2182 5-5v-2-68-2c0-0.364-0.052-0.721-0.125-1.0625-0.044-0.2069-0.088-0.3977-0.156-0.5937-0.008-0.022-0.024-0.0407-0.031-0.0626-0.063-0.1737-0.139-0.3674-0.219-0.5312-0.042-0.0828-0.079-0.17-0.125-0.25-0.055-0.0972-0.127-0.1884-0.188-0.2812-0.094-0.141-0.205-0.276-0.312-0.4063-0.143-0.1745-0.303-0.347-0.469-0.5-0.011-0.0102-0.02-0.0211-0.031-0.0313-0.139-0.1255-0.285-0.2344-0.438-0.3437-0.102-0.0731-0.204-0.1534-0.312-0.2187-0.0074-0.0045-0.02384 0.0044-0.03125 0-0.23204-0.13873-0.46255-0.27478-0.71875-0.375 0.30153 0.0968 0.59646 0.20414 0.875 0.34375 0.55709 0.27922 1.0601 0.66569 1.5 1.0938 0.21997 0.21403 0.40937 0.44186 0.59375 0.6875s0.35541 0.50774 0.5 0.78125c0.14012 0.26505 0.27614 0.52473 0.375 0.8125 0.01041 0.03078 0.02133 0.06274 0.03125 0.09375 0.09046 0.27808 0.1388 0.5794 0.1875 0.875 0.053 0.318 0.094 0.634 0.094 0.969v2 68 2c0 3.324-2.676 6-6 6h-72z"/>
 </g>
 <g id="layer6">
  <path id="path3798" style="opacity:.2" d="m51.031 6.25c-0.49889-0.019718-0.95684 0.041631-1.375 0.125v-0.03125h-13.375a0.73565 0.73565 0 0 0 -0.59375 1.1875c0.64249 0.86309 0.7067 2.1866 0.84375 3.4375 0.06852 0.62545 0.15384 1.2178 0.5 1.7812 0.18236 0.29684 0.46736 0.52044 0.8125 0.6875-0.09085 0.03581-0.18599 0.07789-0.3125 0.25-0.03098 0.04215 0.01952 0.10275 0 0.15625a0.73565 0.73565 0 0 0 -0.125 0.0625c-0.25423 0.21191-0.47806 0.43605-0.5625 0.78125-0.08443 0.3452 0.05693 0.74757 0.25 0.96875 0.38614 0.44237 0.83562 0.50883 1.25 0.53125-0.15463 0.20678-0.33214 0.3839-0.34375 0.78125-0.0081 0.27672 0.11086 0.55195 0.28125 0.78125 0.0061 0.0082-0.0062 0.02328 0 0.03125-0.26984 0.38906-0.46755 0.82526-0.5 1.2812-0.05575 0.78356 0.13665 1.6103 0.4375 2.4062 0.59563 1.5759 1.5752 3.0476 2.5938 3.8125 0.01195 0.01007 0.01934 0.02137 0.03125 0.03125 0.37468 0.31062 0.74593 0.51781 1.1875 0.5625 0.45561 0.04611 0.91212-0.19881 1.1562-0.5 0.48827-0.60238 0.58471-1.3088 0.75-2.0625 0.16529-0.75366 0.33484-1.5493 0.59375-2.0938 0.25891-0.54442 0.49457-0.78954 0.9375-0.84375a0.73565 0.73565 0 0 0 0.46875 -0.21875c1.4117-1.6122 4.2149-2.8204 6.3438-4.7812a0.73565 0.73565 0 0 0 0.125 -0.9375c0.15384-0.08425 0.33623-0.11422 0.40625-0.25 0.12984-0.25176 0.11122-0.44296 0.09375-0.59375-0.03493-0.30158-0.11994-0.53826-0.25-0.8125-0.26-0.547-0.667-1.163-1.156-1.749-0.116-0.139-0.283-0.212-0.406-0.343 0.344-0.053 0.704-0.109 1.031-0.188 0.383-0.092 0.771-0.198 1.094-0.5625 0.197-0.2223 0.179-0.5671 0.219-0.875 0.206-0.1709 0.408-0.3322 0.531-0.5625 0.158-0.2961 0.173-0.7429 0.031-1.0625-0.285-0.6392-0.795-0.7903-1.312-0.9375-0.518-0.1472-1.102-0.2281-1.657-0.25zm-42.625 1.5312a0.73565 0.73565 0 0 0 -0.125 0.0313c-0.4065 0.1159-0.7637 0.3027-1.0624 0.5625-0.7644 1.0068-1.2188 2.258-1.2188 3.625v0.8125c0.12877 0.27829 0.35708 0.5593 0.71875 0.6875 0.4293 0.15217 0.85063 0.0038 1.1875-0.21875 0.28424-0.18777 0.56526-0.4993 0.84375-0.84375 0.049625 0.11823 0.061821 0.26863 0.125 0.375-0.073749 0.07082-0.13167 0.1369-0.1875 0.28125-0.063016 0.16294-0.087324 0.39518-0.03125 0.5625 0.11215 0.33463 0.30994 0.42618 0.4375 0.5 0.1995 0.11545 0.37569 0.17066 0.5625 0.21875-0.035591 0.03613-0.09191 0.05358-0.125 0.09375-0.1641 0.2-0.0949 0.496-0.0937 0.782-0.6062-0.381-1.1091-0.681-1.8437-1.062a0.73565 0.73565 0 0 0 -0.25 -0.0625c-0.4899-0.062-0.9731-0.001-1.3438 0.249v24.844c0.2895 1.7347 0.99874 3.4717 2.8125 4.5 0.34302 0.63917 1.1014 2.0525 1.8438 3.25 0.38926 0.62795 0.72064 1.184 1.0938 1.5625 0.18656 0.18924 0.34294 0.43328 0.90625 0.40625 0.20629-0.0099 0.38248-0.16897 0.53125-0.3125 1.9342 2.4607 4.4358 4.1622 7.6875 4.875 0.90892 0.30928 1.873 1.0888 2.875 1.7812 0.76005 0.52521 1.6533 0.91766 2.5938 0.96875 0.06242 0.39457 0.12893 0.79252 0 1.25-0.17406 0.6176-0.50675 1.3027-0.78125 2.0312-0.2745 0.72857-0.51912 1.5025-0.40625 2.375 0.10515 0.81288 0.57761 1.6258 1.4062 2.3438 0.94261 1.452 2.1252 2.5781 2.8125 3.7188 0.68734 1.1407 0.97125 2.1903 0.25 3.9062a0.73565 0.73565 0 0 0 -0.03125 0.0625c-1.1775 3.9124-0.7133 7.9867-1.625 11.25a0.73565 0.73565 0 0 0 0 0.09375c-0.10725 0.75291 0.06515 1.518 0.34375 2.3125 0.2786 0.79452 0.67658 1.5821 1.0938 2.1875 0.20858 0.30268 0.40234 0.56984 0.65625 0.78125s0.62638 0.44097 1.125 0.3125 0.72236-0.586 0.8125-0.96875c0.07814-0.33181 0.08341-0.74964 0.0625-1.2188 0.94016-3.0224 1.0465-5.9742 2.8438-7.8125 0.6853-0.07342 1.2593-0.3126 1.5938-0.71875 0.40305-0.48941 0.45801-1.0244 0.53125-1.4062 0.07324-0.38183 0.18047-0.58598 0.21875-0.625s0.14112-0.15379 0.78125-0.0625a0.73565 0.73565 0 0 0 0.6875 -0.28125c0.987-1.296 1.579-2.65 2.28-3.72 0.70126-1.0699 1.4414-1.8582 2.8125-2.2812a0.73565 0.73565 0 0 0 0.5 -0.59375c0.14225-1.1232 1.4105-3.0327 2.0938-4.8125 0.34161-0.88991 0.56698-1.81 0.21875-2.7188-0.33251-0.86773-1.2313-1.4832-2.5-1.8125-0.0083-0.0041-0.02289 0.004-0.03125 0-0.04999-0.01272-0.07374-0.05069-0.125-0.0625v0.03125c-0.85704-0.38526-1.949-0.60938-2.9062-0.78125-0.46413-0.08333-0.85761-0.12494-1.125-0.1875-0.0166-0.7078-0.20419-1.3779-0.625-1.875-0.535-0.632-1.257-1.085-2.031-1.468-1.548-0.767-3.392-1.3-4.312-1.812v0.03125c-0.87874-0.58165-1.8962-0.65773-2.7812-0.5-0.91429 0.16294-1.7677 0.51053-2.5 0.75-0.73225 0.23947-1.3009 0.34028-1.5938 0.25-0.29286-0.09028-0.56277-0.30278-0.78125-1.3125a0.73565 0.73565 0 0 0 -0.03125 -0.125c-0.415-1.008-1.279-1.452-1.657-1.812-0.189-0.18-0.25-0.291-0.281-0.438-0.031-0.146-0.052-0.379 0.156-0.843a0.73565 0.73565 0 0 0 -1.1875 -0.84375c-0.69876 0.69522-1.7764 0.91554-2.4375 0.6875-0.33053-0.11402-0.54552-0.27824-0.6875-0.59375-0.1363-0.30289-0.1703-0.80636 0-1.5 0.56508-1.073 1.9282-1.7174 3.2812-1.6875 1.3856 0.03064 2.5721 0.66489 2.9375 2.0625l0.719-0.188 0.687-0.219c-0.547-1.664-0.027-3.086 0.938-4.562s2.389-2.911 3.469-4.344a0.73565 0.73565 0 0 0 0.09375 -0.21875c0.06018-0.18754 0.39119-0.39841 0.65625-0.625a0.73565 0.73565 0 0 0 0.719 0.469c0.57891-0.02089 1.0583-0.28443 1.5-0.5625s0.81741-0.59625 1.0938-0.9375c0.13817-0.17063 0.2651-0.33865 0.34375-0.59375 0.03932-0.12755 0.07895-0.28802 0.03125-0.5-0.025-0.106-0.085-0.212-0.157-0.312 0.73777 0.833 2.0089 1.0561 3.1875 0.5625a0.73565 0.73565 0 0 0 0.40625 -0.9375c-0.25137-0.6876-0.66989-1.1697-0.96875-1.5625-0.29886-0.39285-0.4334-0.64234-0.4375-0.875a0.73565 0.73565 0 0 0 -0.344 -0.594c0.06491-0.28479 0.20563-0.55497 0.125-0.84375-0.12825-0.45936-0.4118-0.89144-0.8125-1.375a0.73565 0.73565 0 0 0 -0.281 -0.218c-0.32577-0.13205-0.64326-0.48842-0.9375-1s-0.53587-1.1452-0.8125-1.7188c-0.27663-0.57352-0.53497-1.185-1.3125-1.4062-0.38876-0.1106-0.85321-0.02292-1.1875 0.1875-0.12377-0.21332-0.25053-0.42524-0.40625-0.625-0.48167-0.61788-1.0904-1.1782-1.75-1.5938-0.65959-0.41551-1.3583-0.74601-2.125-0.625-0.38337 0.06051-0.76973 0.29128-1 0.65625s-0.32882 0.80635-0.3125 1.2812a0.73565 0.73565 0 0 0 0.03125 0.125c0.407 1.892 0.242 4.048-0.312 5.656-0.242-0.367-0.522-0.703-0.844-0.968-0.766-0.631-1.664-1.038-2.468-1.438-0.805-0.4-1.481-0.781-1.876-1.218-0.382-0.425-0.561-0.856-0.406-1.688 0.61875-0.99929 1.2638-2.1289 1.7812-3 0.16966-0.28561 0.3057-0.44749 0.4375-0.65625 0.03051 0.25368-0.01259 0.53633 0.125 0.71875 0.47866 0.63464 1.2035 0.77161 1.8438 0.8125 0.32013 0.02044 0.62696 0.0051 0.9375-0.09375 0.31054-0.09887 0.71018-0.33542 0.84375-0.8125 0.13358-0.47708-0.09519-0.87944-0.375-1.1875-0.28-0.308-0.669-0.59-1.219-0.906a0.73565 0.73565 0 0 0 -0.031 -0.031l-0.094-0.032c0.50355-0.43775 0.93016-0.97013 1.1875-1.5625 0.26308-0.60559 0.35297-1.3249 0.125-2-0.1283-0.37996-0.38386-0.70648-0.6875-1.0312 0.23938 0.000144 0.53595-0.01291 0.71875 0 0.38166 0.02695 0.58068 0.10227 0.78125 0.25 0.13885 0.10227 0.30711 0.41807 0.46875 0.71875a0.73565 0.73565 0 0 0 -0.28125 0.28125c-0.18095 0.29654-0.31014 0.54463-0.375 0.8125s-0.07075 0.57728 0.09375 0.875 0.49312 0.46783 0.75 0.5 0.46539-0.01411 0.65625-0.09375c0.12724-0.05309 0.2563-0.15774 0.375-0.25-0.03602 0.15124-0.0075 0.26552-0.09375 0.4375-0.3922 0.7824-1.3102 1.6536-1.7188 1.9375l0.40625 0.59375 0.46875 0.5625c0.10203-0.08889 0.16368-0.09529 0.28125-0.09375 0.11758 0.0015 0.30572 0.04472 0.53125 0.15625 0.45106 0.22305 1.0106 0.68482 1.5 1.125 0.24468 0.22009 0.47528 0.41056 0.6875 0.59375s0.36955 0.34235 0.6875 0.46875c0.15898 0.0632 0.4572 0.16351 0.78125-0.03125s0.39121-0.53337 0.40625-0.71875c0.0026-0.03202-0.000949-0.06319 0-0.09375 0.14502 0.01755 0.28682 0.05882 0.46875 0.03125 0.25448-0.03856 0.66289-0.22898 0.8125-0.625s0.04043-0.71811-0.09375-1c-0.05677-0.11926-0.16862-0.28009-0.25-0.40625a0.73565 0.73565 0 0 0 0.531 -0.187c0.40146-0.36013 0.6748-0.72959 0.84375-1.125s0.18491-0.85036 0.0625-1.2188c-0.24482-0.73677-0.82186-1.1008-1.3125-1.4688-0.49064-0.36796-0.93574-0.73167-1.125-1s-0.26436-0.32257 0-0.78125a0.73565 0.73565 0 0 0 -0.15625 -0.9375c-0.49291-0.39937-1.2989-1.5111-2.25-2.4375-0.47555-0.46319-0.99925-0.87186-1.625-1.1562-0.62575-0.28439-1.3704-0.4232-2.125-0.21875-0.032-0.171-0.032-0.21-0.063-0.406-0.039-0.248-0.07-0.5232-0.156-0.7808-0.087-0.2575-0.22-0.5683-0.625-0.7812-0.203-0.1065-0.474-0.1385-0.688-0.0938-0.214 0.0448-0.382 0.1403-0.531 0.25-0.042 0.0308-0.085 0.0911-0.125 0.125-0.021-0.0419-0.003-0.0843-0.031-0.125-0.152-0.2156-0.383-0.3501-0.594-0.4062a0.73565 0.73565 0 0 0 -0.5 0.0625c-0.356 0.1648-0.653 0.3643-0.906 0.5937-0.117-0.4019-0.415-0.7061-0.688-0.8437-0.589-0.2975-1.192-0.322-1.593-0.3437a0.73565 0.73565 0 0 0 -0.657 0.3437c-0.207 0.3249-0.235 0.6219-0.343 0.9375-0.206-0.3096-0.454-0.6273-0.907-0.7188a0.73565 0.73565 0 0 0 -0.375 0.03125c-1.202 0.40088-1.8992 1.4945-1.7812 2.5625 0.11797 1.068 1.0497 2.024 2.4375 2.1875a0.73565 0.73565 0 0 0 0.09375 0.03125c-0.0088 0.18577-0.06891 0.39269-0.03125 0.5625 0.05277 0.23796 0.18857 0.36148 0.28125 0.5625a0.73565 0.73565 0 0 0 -0.844 0.157c-0.25747 0.26941-0.43828 0.52428-0.53125 0.84375-0.09296 0.31946-0.0472 0.72418 0.125 1 0.04199 0.06725 0.10911 0.07063 0.15625 0.125-0.02991 0.01838-0.06474 0.04694-0.09375 0.0625-0.26007 0.13951-0.48611 0.20712-0.6875 0.21875s-0.40886 0.0067-0.8125-0.3125c0.39534-0.03535 0.82158-0.23447 1.0625-0.59375s0.23989-0.73808 0.1875-1.0625-0.14658-0.62218-0.28125-0.9375c-0.26935-0.63063-0.64499-1.2964-0.96875-1.9375-0.323-0.641-0.598-1.286-0.656-1.656a0.73565 0.73565 0 0 0 -0.187 -0.375c-0.25-0.2686-0.468-0.4989-0.906-0.5625-0.219-0.0318-0.503 0.0206-0.688 0.1563-0.161 0.1182-0.221 0.2522-0.281 0.375a0.73565 0.73565 0 0 0 -0.812 0.4062c-0.05014 0.11142-0.03823 0.08799-0.0625 0.09375-0.02427 0.0058-0.12966-0.000607-0.28125-0.0625-0.303-0.124-0.648-0.531-0.656-0.5622a0.73565 0.73565 0 0 0 -0.75 -0.5313c-0.006-0.2635-0.04-0.5644-0.219-0.7813-0.429-0.5186-1.0252-0.6213-1.9065-0.7187a0.73565 0.73565 0 0 0 -0.09375 -0.03125 0.73565 0.73565 0 0 0 -0.0625 0zm78.094 1.75c-0.107-0.0009-0.213 0.01-0.312 0.0313a0.73565 0.73565 0 0 0 -0.125 0.03125c-1.0074 0.39442-1.5225 1.2841-1.5 2.0938 0.02247 0.80968 0.41128 1.4918 0.875 2 0.23186 0.25412 0.47946 0.47801 0.78125 0.625 0.30178 0.14699 0.7295 0.26786 1.1562 0.03125 0.42675-0.23661 0.57608-0.71129 0.59375-1.125 0.0173-0.4051-0.05125-0.87136-0.21875-1.4375 0.000908 0.0037-0.000434-0.0312 0-0.03125 0.0039-0.000422-0.0057-0.1097 0-0.28125 0.0063-0.19061 0.0225-0.42302 0-0.6875-0.022-0.264-0.084-0.595-0.375-0.906-0.218-0.2336-0.553-0.3408-0.875-0.3438zm-65.062 1.5c-0.02189 0.33876-0.1203 0.69298-0.0625 1 0.1084 0.57582 0.30198 1.0651 0.46875 1.4688 0.12508 0.30275 0.24355 0.62008 0.28125 0.6875a0.73565 0.73565 0 0 0 0.46875 0.59375c0.37002 0.12806 0.66638 0.12538 1 0.1875a0.73565 0.73565 0 0 0 0 0.09375c-0.01604 0.1648-0.20981 0.38819-0.3125 0.65625a0.73565 0.73565 0 0 0 -1.251 -0.218c-0.06643-0.14791-0.14223-0.27733-0.25-0.65625-0.15498-0.54489-0.3153-1.1996-0.5625-1.8125-0.15524-0.38488-0.3802-0.75301-0.6875-1.0625 0.08156-0.02816 0.17674-0.01895 0.25-0.0625 0.27752-0.16496 0.44443-0.57648 0.65625-0.875zm52.812 1.75c-0.07495 0.0044-0.18231 0.12532-0.28125 0.15625l-0.031-0.062c-2.1914 0.53625-3.7344 1.8867-4.9375 3.4375-1.174 1.5133-2.0616 3.2336-3 4.75-1.6233 0.89009-2.3579 2.7303-2.2812 4.2812 0.04041 0.81808 0.312 1.6412 1 2.125 0.21136 0.14863 0.49192 0.13826 0.75 0.1875-0.20804 0.29044-0.35251 0.61011-0.40625 0.90625-0.09433 0.51978-0.05576 0.98362-0.0625 1.3438-0.0067 0.36013-0.06272 0.57494-0.125 0.65625s-0.18708 0.18488-0.78125 0.21875a0.73565 0.73565 0 0 0 -0.6875 0.5625c-0.0066 0.02334-0.05383 0.03949-0.0625 0.0625-0.01298-0.2821 0.0029-0.56115-0.15625-0.8125-0.18509-0.29225-0.51067-0.53318-0.84375-0.75-0.20602-0.78433-0.54723-1.5603-0.875-2.125-0.19286-0.33224-0.36876-0.60183-0.4375-0.75 0.0044 0.05125-0.0076 0.12316-0.0625 0.25-0.06139 0.14186-0.21366 0.29198-0.34375 0.34375l-0.281-0.688-0.406-0.625c-0.66407 0.4332-1.0058 1.1407-1.0312 1.7812-0.01044 0.26325 0.10834 0.47644 0.15625 0.71875-0.025-0.002-0.039-0.032-0.063-0.031a0.73565 0.73565 0 0 0 -0.188 0.031c-0.87334 0.247-1.4947 0.83599-1.75 1.4688-0.25535 0.63276-0.19358 1.286 0.0625 1.8125 0.12804 0.26326 0.319 0.49429 0.625 0.65625s0.72965 0.19234 1.0625 0.03125c0.42925-0.20774 0.68819-0.62362 0.90625-1.125-0.0107 0.03199 0.01683 0.13441 0 0.15625a0.73565 0.73565 0 0 0 -0.03125 0.0625c-0.20286 0.35358-0.35911 0.71521-0.25 1.1562 0.08052 0.32547 0.32676 0.55631 0.59375 0.6875-0.17844 0.17057-0.36251 0.33473-0.4375 0.625-0.10141 0.39255 0.0055 0.8273 0.21875 1.1562 0.16352 0.25219 0.44152 0.48236 0.71875 0.71875 0.07109 0.23693 0.10143 0.45299 0.09375 0.5-0.0096 0.0589 0.02129 0.02788-0.03125 0.0625-0.10509 0.06925-0.64205 0.17855-1.25 0.25s-1.3292 0.11296-1.9062 0.71875c-0.28854 0.3029-0.47146 0.75686-0.46875 1.2188 0.0027 0.45283 0.13727 0.91059 0.375 1.4688 0.0036 0.0097-0.0036 0.02162 0 0.03125 0.21256 0.56191 0.48087 1.0063 0.8125 1.3438 0.25038 0.25476 0.58433 0.34265 0.90625 0.4375-0.56649 0.33231-1.1165 0.6803-1.5625 1.2188a0.73565 0.73565 0 0 0 -0.03125 0.03125c-1.0224 1.4033-2.3016 3.1193-3.0625 5.0312-0.74826 1.8803-0.96974 4.0386 0.21875 6.0312 0.01636 0.03896 0.04568 0.05561 0.0625 0.09375 0.61738 1.3995 1.5542 2.2727 2.5938 2.6562 1.0679 0.39395 2.1559 0.35226 3.2188 0.25s2.1062-0.26673 3-0.21875c0.87819 0.04714 1.577 0.25897 2.2188 0.875 0.0982 0.15723 0.12559 0.30151 0.125 0.53125-0.000668 0.25854-0.05817 0.58641-0.09375 1s-0.04956 0.92007 0.15625 1.4375c0.15563 0.39128 0.54622 0.75422 0.9375 1.0938 0.31898 1.304 0.17306 2.6549 0.09375 4.125-0.07857 1.4564 0.03172 3.0539 1.0312 4.625h-0.03125c0.48133 1.293 0.84958 3.0293 1.75 4.2812 0.45021 0.62598 1.1234 1.1756 1.9688 1.2812 0.83806 0.10471 1.7341-0.21015 2.75-0.875 0.01347-0.0081 0.01788-0.02309 0.03125-0.03125 2.159-1.3172 3.007-3.2443 3.6562-4.9688 0.65327-1.7351 1.15-3.237 2.5938-4.3125a0.73565 0.73565 0 0 0 0.21875 -0.9375c-0.58949-1.1413-0.66576-2.0267-0.5-2.8438 0.16576-0.81707 0.60128-1.6019 1.2188-2.4062 1.2349-1.6088 3.127-3.2036 3.9375-5.5a0.73565 0.73565 0 0 0 -0.781 -0.966c-0.28444 0.04166-0.56442-0.06836-0.84375-0.09375 0.26593-0.13285 0.5361-0.26272 0.8125-0.46875 0.94376-0.39489 2.5599-1.2463 3.625-2.3125 0.53257-0.53311 1.0145-1.1747 0.90625-2-0.03363-0.25649-0.22203-0.46801-0.375-0.6875 0.397-0.079 0.795-0.329 1.094-0.657v-33.031a0.73565 0.73565 0 0 0 -0.53125 0.25c-0.33742 0.34494-1.028 0.89162-1.6562 1.1875-0.31413 0.14794-0.60737 0.21189-0.8125 0.21875-0.20513 0.0069-0.299-0.02124-0.40625-0.125a0.73565 0.73565 0 0 0 -0.594 -0.188c-0.65814 0.09168-1.2191 0.41671-1.7188 0.75-0.42794 0.28545-0.78714 0.56842-1.0938 0.78125 0.012-0.117 0.006-0.156 0.032-0.312a0.73565 0.73565 0 0 0 -0.657 -0.844c-0.31287-0.02073-0.64253 0.01899-0.90625 0.1875s-0.45719 0.43331-0.5625 0.65625c-0.16241 0.34383-0.20159 0.63724-0.25 0.9375-0.22241-0.75264-0.78657-1.296-1.4375-1.7812-0.723-0.539-1.585-1.003-2.281-1.406-0.348-0.202-0.649-0.39-0.875-0.531-0.006-0.119 0.068-0.264 0.031-0.344-0.2-0.437-0.456-0.536-0.719-0.687-0.262-0.152-0.55-0.273-0.843-0.344-0.147-0.036-0.28-0.074-0.469-0.063zm-59.281 3.657c0.04483 0.0086 0.08155 0.02404 0.125 0.03125-0.07031 0.02766-0.11936 0.0069-0.1875 0.03125 0.02428-0.01663 0.03889-0.04459 0.0625-0.0625zm39.906 2.031a0.73565 0.73565 0 0 0 -0.5 0.28125c-0.25928 0.29861-0.45072 0.36939-0.6875 0.40625s-0.53329 0.0018-0.84375-0.0625c-0.31046-0.06426-0.61419-0.1957-1.0938-0.125-0.23978 0.03535-0.53787 0.18064-0.71875 0.4375s-0.24427 0.51774-0.25 0.78125a0.73565 0.73565 0 0 0 0.125 0.40625c-0.0223-0.0368 0.1519 0.33538 0.34375 0.6875 0.19184 0.35212 0.42482 0.76489 0.8125 1.125s0.96152 0.66179 1.625 0.625 1.3447-0.38211 2-1.0312l-0.03125-0.03125c0.67858-0.41759 1.0655-1.1569 0.9375-1.8125-0.14392-0.73692-0.66311-1.3314-1.375-1.625a0.73565 0.73565 0 0 0 -0.28125 -0.0625 0.73565 0.73565 0 0 0 -0.0625 0zm23.438 1.5625c0.06413 0.0408 0.02422 0.01287 0.09375 0.0625a0.73565 0.73565 0 0 0 0.28125 0.125c-0.06277 0.013-0.11062 0.03709-0.1875 0.0625-0.01024 0.0034-0.02051 0.02743-0.03125 0.03125-0.06948-0.10451-0.0971-0.17923-0.15625-0.28125zm-7.3438 4.4375c0.02148 0.31561 0.04887 0.63826 0.25 0.9375 0.22778 0.3389 0.61134 0.55953 1.0312 0.65625-0.05766 0.05844-0.13393 0.05842-0.1875 0.125-0.22252 0.27658-0.38388 0.63929-0.375 1.0625 0.000275 0.01309 0.03066 0.01818 0.03125 0.03125-0.1608 0.07317-0.36327 0.11082-0.46875 0.21875-0.40507 0.41449-0.48392 0.85318-0.625 1.2188-0.14108 0.36556-0.29586 0.65312-0.375 0.71875s-0.07887 0.11611-0.53125-0.0625a0.73565 0.73565 0 0 0 -0.4375 -0.03125c0.03947-0.02444 0.06913-0.04993 0.125-0.09375a0.73565 0.73565 0 0 0 0.125 -0.15625c1.0882-1.4406 1.2233-3.1263 1.4375-4.625zm-35.844 9.061c-0.15744 0.58629-0.03331 1.2038 0.3125 1.625-0.05994-0.06957-0.11581-0.14627-0.1875-0.1875-0.38236-0.21987-0.64332-0.1257-0.90625-0.0625-0.04564 0.01097-0.10914 0.0487-0.15625 0.0625-0.09143-0.26498-0.08253-0.614-0.25-0.8125-0.11736-0.1391-0.29634-0.12394-0.4375-0.21875 0.54021-0.13484 1.0767-0.26035 1.625-0.40625zm48.938 3.0625c-0.06354 0.10251-0.08439 0.24836-0.125 0.375-0.01617-0.12166-0.06875-0.26632 0-0.34375 0.0082-0.0092 0.11262-0.02035 0.125-0.03125zm-8.0312 0.125c-0.0047 0.01412 0.0054-0.000433 0.1875 0.0625 0.24611 0.08508 0.54293 0.2379 0.84375 0.375 0.15041 0.06855 0.30131 0.14246 0.5 0.1875 0.09934 0.02252 0.19797 0.05879 0.375 0.03125s0.45612-0.16272 0.59375-0.375c0.01781 0.03208 0.04465 0.06214 0.0625 0.09375 0.26244 0.46461 0.53572 0.87433 0.71875 1.1875-0.22086-0.01746-0.45052-0.04305-0.84375-0.125a0.73565 0.73565 0 0 0 -0.25 0c-1.0251 0.1203-2.3487 0.0069-2.7812-0.21875-0.10812-0.05641-0.14923-0.08288-0.15625-0.09375-0.007-0.01087-0.0068-0.0037 0-0.0625 0.0121-0.10496 0.26324-0.53575 0.75-1.0625zm-11 1.3125c0.18228-0.03842 0.3853-0.01786 0.59375 0.03125 0.13751 0.0324 0.29137 0.18052 0.4375 0.25a0.73565 0.73565 0 0 0 -0.40625 0.125c-0.51738 0.33344-0.87755 0.81139-0.84375 1.375 0.02981 0.49712 0.35979 0.78242 0.71875 0.9375-1.1735 0.08013-2.4239 0.13113-3.6875 0.375 0.5306-0.49223 1.0647-1.0211 1.5-1.5312 0.49886-0.58469 0.9498-1.1062 1.1562-1.2812 0.18743-0.14545 0.34897-0.24283 0.53125-0.28125zm19.375 0.40625c0.10737 0.09389 0.24336 0.17049 0.375 0.25 0.0053 0.0032-0.0053 0.02809 0 0.03125 0.4566 0.55917 0.62382 1.6653 0.5 2.0625-0.01567 0.05026-0.01832 0.0395-0.03125 0.0625-0.01442-0.0087-0.27139-0.17074-0.59375-0.46875 0.0046-0.72889-0.0467-1.389-0.25-1.9375zm-17.719 0.25c0.08292 0.06526 0.17143 0.08331 0.25 0.15625 0.40718 0.37796 0.73892 0.84288 0.90625 1.2188 0.16733 0.37587 0.10294 0.57738 0.15625 0.5a0.73565 0.73565 0 0 0 0.875 1.0938c0.87574-0.3552 1.2793-1.141 1.3438-1.9375 0.09145 0.22743 0.24175 0.57769 0.25 0.53125a0.73565 0.73565 0 0 0 0.0625 0.46875c0.22015 0.4124 0.39898 0.70288 0.65625 0.9375 0.12863 0.11731 0.30968 0.22624 0.53125 0.28125s0.49814 0.0102 0.6875-0.09375c0.37871-0.2079 0.46846-0.46768 0.5625-0.6875s0.15756-0.42222 0.21875-0.625c0.04608 0.26686 0.07127 0.54824 0.21875 0.75 0.26142 0.35764 0.61643 0.59086 0.96875 0.75 0.70463 0.31829 1.4629 0.40695 2.0625 0.53125 0.29982 0.06215 0.567 0.12375 0.71875 0.1875 0.0607 0.0255 0.07355 0.04668 0.09375 0.0625-0.0071 0.01805-0.0131 0.01985-0.03125 0.0625-0.0568 0.13347-0.26462 0.42735-0.5 0.71875-1.1604 0.18314-2.3744 0.04595-3.625-0.09375-1.2608-0.14084-2.5682-0.2228-3.875 0.15625v-0.03125c-0.854-0.008-1.055-0.29-1.345-0.845-0.145-0.277-0.254-0.63-0.406-0.969-0.15186-0.33873-0.32244-0.70864-0.71875-1a0.73565 0.73565 0 0 0 -0.25 -0.125c0.17942-0.10611 0.38017-0.20524 0.46875-0.40625 0.2402-0.54505 0.05355-1.0424-0.28125-1.5938zm-41.157 9.281a0.73565 0.73565 0 0 0 -0.562 0.531c-0.13414 0.44768 0.13136 0.88891 0.34375 1.0938 0.21239 0.20484 0.44298 0.32229 0.6875 0.4375 0.48904 0.23042 1.0528 0.37654 1.5312 0.46875 0.2392 0.0461 0.43838 0.09542 0.65625 0.09375 0.10894-0.000837 0.2141 0.0117 0.40625-0.0625 0.05279-0.02039 0.11866-0.10699 0.1875-0.15625-0.07668 0.36853 0.18794 0.85573 0.46875 1.0312 0.56163 0.35104 0.97955 0.25555 1.4062 0.15625 0.21335-0.04965 0.41569-0.11754 0.625-0.25 0.105-0.066 0.206-0.159 0.313-0.312 0.106-0.153 0.206-0.402 0.156-0.656-0.1-0.509-0.47-0.669-0.75-0.782-0.28-0.112-0.611-0.183-1.062-0.25a0.73565 0.73565 0 0 0 -0.626 0.188c-0.152 0.155-0.215 0.359-0.312 0.531 0.046-0.144 0.12-0.287 0.094-0.406-0.083-0.368-0.238-0.448-0.344-0.531s-0.217-0.151-0.344-0.219c-0.253-0.136-0.584-0.281-1.062-0.469a0.73565 0.73565 0 0 0 -0.03125 0l-0.53125-0.1875a0.73565 0.73565 0 0 0 -0.094 -0.03l-0.844-0.188a0.73565 0.73565 0 0 0 -0.15625 -0.03125 0.73565 0.73565 0 0 0 -0.15625 0zm58.625 16.438c-1.1992 0.03095-2.0753 0.88999-2.5625 1.8125-0.48721 0.92251-0.6791 1.9858-0.6875 2.9062-0.0042 0.46025 0.0353 0.86699 0.15625 1.25s0.32934 0.84126 0.875 1c0.27283 0.07937 0.58627 0.01337 0.8125-0.09375s0.39799-0.25603 0.5625-0.4375c0.32901-0.36294 0.61173-0.84897 0.9375-1.5625a0.73565 0.73565 0 0 0 0.062 -0.157c0.09222-0.46219 0.3853-1.1416 0.59375-1.875 0.20845-0.73343 0.36218-1.6184-0.0625-2.4375a0.73565 0.73565 0 0 0 -0.6875 -0.40625z"/>
  <path id="path3522" style="fill:url(#radialGradient3736)" d="m36.274 6.0817c1.6501 2.2167 0.11258 5.9183 2.6015 5.8816 1.2119 1.714-2.4155 0.5113 0.20359 1.8323 1.5061 1.1866-1.5934 1.8645 0.27179 2.9294-2.1497 1.1097 0.34844 5.804 1.9451 6.9788 2.628 2.2132 1.1622-4.6857 4.0945-5.0446 1.5934-1.8197 4.3918-2.9878 6.3793-4.8184-1.9423-0.15774-3.0765-1.3671-1.237-2.1163 3.3855 3.4704 0.8489-1.6435-1.0251-2.4532 1.8134-0.57705 3.577-0.15448 3.3254-1.6514 1.9163-1.4025-1.8423-1.8553-3.1839-1.5383h-13.375zm-27.802 1.4478c-2.4497 0.6982-2.6206 6.5545-0.1583 3.3025 0.6043-1.3351 3.3973-2.9445 0.1583-3.3025zm11.446 0.20359c-1.4123 2.2153 0.20492 3.9915 1.3799 1.2894 0.83171-1.1283-0.61793-1.2481-1.3799-1.2894zm3.529 0.49767c-2.7288 1.2652-0.6726 4.2156-0.60506 4.8717 2.8746 0.99483 4.4732-0.65044 5.5607 2.1615 2.7352 1.5769-0.05382 4.3171-1.0805 5.0307 1.8493-1.6112 5.4042 4.3805 4.4722 1.2149-1.1118-0.81208 2.9852 1.3046 0.85962-1.3347-1.9561-3.1527 0.15527-1.4114 0.97995-0.67561 2.8049-2.5161-3.1736-2.8202-1.6812-5.4096-1.3078-1.0596-3.0229-4.2695-5.3387-3.6421-1.5502 2.0056-0.21415-4.37-2.4886-1.1796-0.11789 1.7834-0.04285 4.0465-0.70571 0.95682-0.44407-0.54087 0.764-1.7983 0.0273-1.9942zm-5.5649 0.022621c-1.8316 0.61085-1.7332 3.0865 0.51896 3.3519 0.77144-0.87963 0.30649-3.1853-0.51896-3.3519zm-7.1484 0.79175c-2.3791 0.56388-1.408 2.4829-0.67957 3.0233-2.9449 0.73792 4.4957 0.94313 0.79268 1.4105-3.0808 1.2308 2.9667 2.6809 3.9588 1.2216 3.8044 0.93074 0.13691-3.0465-0.19704-5.2025-1.6128-1.7315-0.06366 3.9915-1.5219 0.18441-0.50879 1.1305-2.1265 0.1666-2.353-0.63725zm75.601 0.24884c-3.1924 1.2499 1.9842 5.9664 0.69764 1.6755-0.12816-0.51812 0.2882-1.8871-0.69764-1.6755zm-66.665 1.9c-2.2941 2.1567 2.916 3.9402-0.6589 5.5469-0.53602-2.0029-1.4583 1.0021-3.5035-0.61542-3.5159 1.4645-5.3139-0.76283-8.2575-2.2896-1.768-0.22016-1.1038 1.6805-1.2209 3.4602v14.755c1.7335 1.8245 0.67633 0.80498 0 0.30175 0.95147 3.2416-0.41957 7.9802 3.3309 9.8658 0.63756 1.183 3.3129 6.2231 3.4362 4.715-1.3412-1.4051-2.7174-5.6174-0.4479-1.863 2.0328 3.5688 4.7747 5.8835 8.7805 6.7328 2.1901 0.74522 3.9912 3.307 5.9171 2.7433 1.0891 2.872-3.2274 5.6299 0.14491 8.3086 1.7605 2.7118 4.7162 4.4904 3.116 8.2976-1.1191 3.7183-0.63993 7.7697-1.6078 11.234-0.30039 2.1087 2.938 7.461 2.6575 3.1751 0.94557-2.9784 0.92064-6.2556 3.1476-8.3648 3.0471 0.02413 0.58238-3.2778 3.607-2.8464 1.8456-2.4201 2.3802-5.3071 5.4949-6.2681 0.37204-2.9376 5.1788-7.4366 0.21314-8.5803-1.3496-0.66545-4.8245-0.90473-4.559-1.2331 0.53803-2.9149-4.4935-3.7447-6.6342-4.9373-2.8108-1.9958-7.0342 3.3156-8.0245-1.261-0.59088-1.4399-2.7513-1.4633-1.7584-3.6852-1.7894 1.7803-5.2893 1.2392-4.373-2.1989 1.3916-2.8956 6.7356-3.0326 7.6463 0.45028-1.2644-3.8412 2.4439-6.8314 4.5025-9.5642 0.41916-1.3062 2.9097-2.4284 2.0527-0.69242 1.4602-0.05269 3.6733-2.6886 1.0794-1.472-0.03668-2.4039-2.273-1.7203-2.998-1.3789 1.3438-2.1336 8.245-0.96713 5.3551-4.4546-2.2393-0.90768-2.053-6.2044-4.318-3.2536 0.1906-1.8181-4.61-5.3771-4.5053-2.3283 0.58599 2.7281 0.10713 5.8709-1.1399 7.6591-0.26024-3.9976-7.0757-3.1141-6.1994-7.374 1.2694-2.0303 2.7529-4.8379 2.8942-4.5853 2.275-0.86894 4.1046-3.3965 1.4678-5.0581-0.14092 1.4482-1.983 4.4361-1.7237 0.82232-1.7058 2.0232-1.3162-3.2194-2.9138-3.7631zm54.45 1.4025c-3.9959 0.97784-5.5801 4.7958-7.5568 7.9582-2.9139 1.3142-2.8029 6.9583 0.45241 5.1557 0.87128 1.5223-0.6095 3.9217 1.9283 1.9312 2.047-2.7099 0.35794-7.0928 3.8414-8.8015 0.25373 1.3286-3.2133 6.2899 0.83699 5.4744 3.6616 0.13821-2.6619 0.36497-0.881 2.7047-1.8503-1.0982-0.88883 2.9993-3.304 2.0458-2.0923 1.1385-3.4643-0.52863-2.985-2.355-1.646 0.96057 0.5177 3.6704-2.3396 3.8333-0.64004 2.2737-5.9034 1.931-2.9102 4.2462 1.3289 3.4454-4.9515 0.21599-3.1685 4.3505 1.5254 4.0884 4.7224-1.3547 6.0194-2.4063 2.5025-1.9419 6.2107 3.3111 3.9588 3.5063 2.5251-0.33891 2.0062-2.7412-0.01696-3.6713-1.0927-2.8349 3.459 1.3903 3.2066 2.8117 1.6059 3.0083 0.94462-3.0801 2.5789-0.38456-0.19081 2.8434 6.5742 0.66856 3.3444 4.2924-2.7769 0.55951-5.5101-0.71614-7.9008 0.10093-2.2251-0.01969-2.1135-2.398-2.9236-2.9935-2.8304 0.23004-6.3279 0.20403-8.2228 2.4914-2.049 2.8123-5.0038 6.7438-2.7705 10.335 2.2349 5.3215 7.7772 0.27603 10.963 3.4188 0.94694 1.3104-0.82059 2.868 1.2967 4.2874 0.7967 3.0235-0.90449 5.8943 1.0523 8.7846 1.0118 2.7182 1.6398 6.7866 5.4058 4.3028 3.9858-2.3994 2.9242-6.8227 6.2129-9.2726-2.6023-5.0381 3.1836-7.2471 4.6272-11.337-3.1539 0.46191-5.9638-2.6838-6.7258-5.8499-1.3249-1.5379-0.98368-3.8055 0.49633-0.91647 2.0343 1.9719 2.0782 7.8231 5.8413 4.813 1.7203-0.71984 6.4186-3.4657 2.6751-4.7153-2.414 1.748-5.076-5.225-1.533-1.181 2.576 1.094 4.38 1.745 4.38-1.88v-29.497c-0.8024 0.82028-2.8638 2.3352-3.9043 1.3286-1.7904 0.24941-4.1539 3.7343-3.5912 0.36554-1.5562-0.10309-0.27858 3.0205-2.4166 3.1079-0.21529 1.6059-2.1599 0.29738-1.4294 1.8224-1.5006-1.0649-2.7707-4.427 0.18615-2.3167 4.391-1.3178-2.8956-4.2904-3.458-5.0089 0.94546-0.22662-1.0286-1.2122-1.2668-0.88224zm-36.24 0.88224c-1.4615 1.2182 2.7785 1.4476 0 0zm-19.522 0.65602c-1.6347 1.7105 2.6033 1.5724 0 0zm9.4784 1.6966c-1.2379 2.0286 1.829 0.74894 0 0zm27.101 2.3979c-1.4492 1.6691-3.3621-0.43926-3.3932 0.99535 0.26264 0.43347 1.3147 3.5273 3.6194 1.2442 1.237-0.52171 0.74996-1.8369-0.22621-2.2395zm-30.856 0.99535c-2.7488 2.4015 4.6683 2.6227 0.58232 0.27543l-0.58232-0.27543zm36.262 6.6507c-1.9791 1.291 0.94943 4.0328-0.04308 5.3207-1.24 2.162 4.608-0.152 1.485-1.877-0.223-1.481-1.83-3.289-1.442-3.443zm-1.3347 2.6015c-2.7574 0.77986-0.62596 4.8062 0.35066 1.014 0.05497-0.21986 0.12936-1.0214-0.35066-1.014zm-22.078 2.919c-2.5652 1.7498-0.39843 3.4964 1.4816 2.7091-0.38596-1.0558-1.4642-1.721-1.4816-2.7091zm48.455 2.9408c1.2799 0.6462-2.3455 1.7501-0.04983 2.8874 1.336 1.5717 0.83231 4.9455-1.3392 2.5576 0.40344-2.666-2.9436-4.657 1.389-5.445zm-6.5829 0.02262c-0.17367 1.7128 3.694 4.3751-0.47505 3.5063-2.2047 0.25872-5.507-0.06739-2.7294-2.8157 0.87765-0.52708 3.1821 1.8185 1.9829-0.37395 0.42514-0.02713 0.82108-0.18767 1.2216-0.3167zm-12.736 3.7099c-1.6081 1.0364 1.112 1.8311 0 0zm-40.379 9.659c-0.2711 0.9048 5.086 1.8218 1.3893 0.37215l-0.551-0.194-0.838-0.178zm4.1624 1.2894c-1.6249 1.6502 3.3478 0.49302 0 0zm54.337 15.134c-3.5307 0.09113-3.0613 9.2016-0.60014 3.8108 0.23341-1.1698 1.1689-2.7138 0.60014-3.8108z"/>
  <path id="path3745" style="opacity:.6;filter:url(#filter3824);fill:#fff900" d="m20.438 7.5938c-0.208-0.0355-0.325 0.113-0.5 0.1562l0.65625 0.5 0.6875-0.09375c-0.267-0.2809-0.566-0.5147-0.844-0.5624zm-0.53125 0.1875c-0.238 0.0665-0.534 0.0521-0.688 0.2187-0.275 0.2966-0.257 0.6515-0.281 0.4688l0.875-0.125 0.09375-0.5625zm1.4375 0.4375l-0.344 0.3437 0.5 0.4063 0.219-0.0938c-0.056-0.2281-0.201-0.457-0.375-0.6562zm18.344 0.375c0.04057 0.20461 0.08337 0.47835 0.125 0.65625 0.2506 1.0708 0.42518 1.3213 0.5625 1.4062a2.5069 2.5069 0 0 1 1.125 2.6875c0.18849 0.34785 0.37677 0.74868 0.4375 1.3438 0.07834 0.76764-0.23849 1.4932-0.6875 2.1562-0.03452 0.78021-0.02593 1.8914 0.25 2.875 1.2418-2.2782 3.0619-4.2203 5.5625-5.5312v-0.03125c0.17637-0.11572 0.11546-0.04064 0.28125-0.15625 0.04448-0.03101 0.01911-0.03189 0.0625-0.0625a2.5069 2.5069 0 0 1 -0.283 -1.657c0.08709-0.53023 0.35966-1.1367 0.8125-1.6875-0.10541-0.21066-0.22372-0.19075-0.3125-0.53125-0.09821-0.37668-0.04293-0.92517 0.09375-1.4688h-8.0312zm-21.282 0.1874c-0.056-0.0079-0.2 0.0922-0.281 0.0938l0.1875 0.375 0.3125-0.09375-0.3125 0.125 0.5625 1.2812c-0.40355 0.17282 0.26606-0.32141 0.25-0.9375s-0.21403-0.65161-0.3125-0.71875c-0.04923-0.033568-0.12524-0.085481-0.40625-0.125zm-0.75 0.2188c-0.243 0.0647-0.417 0.0142-0.656 0.2188-0.26 0.2223-0.222 0.3734-0.312 0.5937l0.843-0.2813 0.125-0.5312zm-9.781 0.3125c0.082824 0.14747 0.101 0.33764 0.21875 0.4375 0.54534 0.4625 0.67779 0.28815 0.3125 0.28125v-0.5c-0.1497-0.1001-0.3374-0.1551-0.5312-0.2185zm9.6562 0.25-0.90625 0.34375c-0.04068 0.11941-0.17858 0.27658-0.1875 0.34375 0.13562 0.14344 0.33035 0.31767 0.78125 0.4375l0.3125-1.125zm69.062 0.46875c-0.35401 0.04931-0.74488 0.19337-1.0938 0.5-0.2193 0.19275-0.27396 0.38025-0.375 0.5625 0.10099 0.11036 0.05667 0.17049 0.21875 0.28125 0.57726 0.39449 1.4427 0.39278 1.7812 0.28125l-0.53125-1.625zm0.0625 0 0.625 1.5625c-0.12206 0.04934 0.56193-0.72593 0.53125-1.125s-0.0235-0.21171-0.03125-0.21875c-0.0039-0.0035-0.04181-0.05889-0.34375-0.15625-0.1452-0.04682-0.43888-0.10042-0.78125-0.0625zm-48.281 1.813c-0.24764-0.02292-0.41225 0.05671-0.5625 0.09375s-0.35153 0.0721-0.6875 0.34375-0.93415 1.1421-0.78125 2.125c0.14456 0.92929 0.63808 1.305 0.84375 1.4375l0.6875-2.375 2.0312 1.5c-0.0066 0.0089 0.1187-0.12514 0.1875-0.625s-0.17321-1.4266-0.65625-1.875c-0.48304-0.44836-0.81486-0.60208-1.0625-0.625zm-20.094 0.9375c-0.18612 0.03256-0.38471 0.09556-0.71875 0.34375s-0.868 0.8901-0.875 1.7188c-0.007 0.82865 0.42166 1.3376 0.59375 1.5 0.17209 0.16238 0.18804 0.13404 0.03125 0.0625l1.032-2.282 0.156 0.125c-0.12769-0.50894-0.24458-1.0123-0.3125-1.1875-0.04108-0.106-0.07212-0.12878 0.0625 0.03125s0.56592 0.49063 1.0625 0.5625l0.09375-0.59375c-0.46021-0.27239-0.8746-0.32506-1.125-0.28125zm9.844 1.656c-0.45105-0.06873-0.69224 0.01823-0.90625 0.09375-0.17207 0.06072-0.38905 0.18874-0.59375 0.34375-0.08994 0.57822-0.14662 1.2042-0.375 1.6562-0.03035 0.06008-0.09364 0.09789-0.125 0.15625 0.08715 0.44806 0.1592 0.95256 0.34375 1.1562 0.14602 0.16117 0.15292 0.14856 0.21875 0.1875 0.111-0.052 0.198-0.117 0.312-0.157l0.84375-2.0312 2.0625 1.4375c-0.07038 0.10057-0.03871 0.11223 0.03125-0.125 0.02102-0.07128-0.07693-0.33643-0.0625-0.46875-0.23774-0.41592-0.48159-0.85665-0.5625-1.5-0.0012-0.0094 0.0011-0.02183 0-0.03125-0.39672-0.38117-0.86022-0.66888-1.1875-0.71875zm45.75 1c-0.63921 0.28101-1.2582 0.7204-1.7812 1.3438 0.18457-0.03499 0.21986-0.12544 0.46875-0.125 0.45165 0.000798 1.0856 0.13607 1.625 0.53125 0.32101 0.23518 0.41534 0.56423 0.59375 0.875 0.0099-0.4686 0.14931-1.0222 0.65625-1.6562-0.24676-0.14941-0.43731-0.2807-0.6875-0.4375-0.28602-0.17926-0.58193-0.35344-0.875-0.53125zm-65.344 2c-0.013083 0.50354-0.053799 0.75178 0 1.1875a2.5069 2.5069 0 0 1 0 0.3125v12.156c0.056151 0.037 0.060072-0.02754 0.34375 0.40625 0.048791 0.07461 0.12705 0.16502 0.21875 0.375 0.045849 0.10499 0.10767 0.25279 0.15625 0.46875 0.024289 0.10798 0.031227 0.40588 0.03125 0.40625 0.0000226 0.000368-0.031198 0.5622-0.03125 0.5625-0.0000522 0.0003-0.24987 0.78102-0.25 0.78125-0.0000449 0.000083-0.12274 0.1317-0.21875 0.25-0.19841 2.6877 1.0881 4.845 2.8438 7.2188 0.02833 0.000928 0.06652-0.03407 0.09375-0.03125 0.84111 0.08718 1.1106 0.3489 1.3125 0.5 0.80764 0.60442 0.75374 0.78503 1 1.125s0.52539 0.73832 0.8125 1.1562c0.44886 0.65336 0.93501 1.3252 1.4062 1.9375 0.03984-0.1711 0.01148-0.3701 0.0625-0.53125 0.46157-1.4578 1.4029-2.8079 2.9062-3.6875 1.2951-0.75777 3.103-0.82112 4.7812-0.25v-0.0625c0.09718 0.01392 0.15725 0.07514 0.25 0.09375 1.1019-2.6244 2.7907-5.1191 5.0625-6.9375-0.158-0.167-0.323-0.279-0.468-0.564-0.483-0.948-0.127-2.141 0.156-2.562 0.56547-0.84217 0.76683-0.74409 0.9375-0.84375s0.28756-0.17828 0.4375-0.25c0.29987-0.14343 0.67659-0.27663 1.1875-0.5a2.5069 2.5069 0 0 1 1.0312 -0.21875c0.50257 0.0037 0.70259-0.08281 0.9375-0.15625-0.134-0.147-0.109-0.197-0.405-0.406a2.5069 2.5069 0 0 1 -0.875 -1.125 2.5069 2.5069 0 0 1 -2.438 -0.906c-0.09185 1.0995-0.162 2.1945-0.59375 3.3438-0.14827 0.39466-0.30418 0.80771-0.65625 1.2812-0.35207 0.47354-1.1467 1.2866-2.5 1.2188-1.3533-0.06786-2.0706-0.94882-2.4062-1.5-0.11918-0.19571-0.13428-0.40386-0.21875-0.59375-1.387-0.76115-3.1279-1.6759-4.5312-3.3125-0.81945-0.95567-1.543-2.3173-1.4688-3.9062 0.06739-1.4411 0.83828-2.7535 1.9062-3.9062 0.20452-0.42112 0.3998-0.83901 0.65625-1.1562-0.45598 0.06521-0.75283-0.03142-1.0938-0.09375-2.2884 0.1012-6.6106 1.1716-10.375-1.2812zm78.969 0.687c-0.22759 0.0478-0.51875 0.1514-0.71875 0.1875-1.3594 0.24536-2.0329 0.37748-2.5625 0.84375a2.5069 2.5069 0 0 1 -1.3125 0.625c-0.0027 0.0047-0.02855-0.0047-0.03125 0-0.21905 0.38135-0.30835 0.71592-0.65625 1.125-0.41775 0.49121-1.1612 0.93971-2 1.25-0.19325 0.18809-0.27958 0.39453-0.59375 0.5625-0.66229 0.35408-1.5322 0.36263-2.0938 0.1875-0.56153-0.17513-0.88122-0.436-1.125-0.65625-0.82291-0.74348-1.0656-1.3582-1.2812-2.0312-0.02805 0.09943 0.02835 0.28108 0 0.375-0.1466 0.48574-0.35771 0.92865-0.625 1.4375a2.5069 2.5069 0 0 1 -0.0625 0.09375 2.5069 2.5069 0 0 1 0.46875 4.9688c-0.05628 0.21304-0.09114 0.50983-0.4375 1.0938-0.21753 0.36673-0.58943 0.74512-1.0312 1.0625-0.44354 0.82062-1.0225 1.5354-1.7188 1.9375-1.1059 0.63873-2.302 0.84651-3.4688 0.75-0.49024-0.04055-0.97551-0.19827-1.4688-0.375-0.27137 0.32185-0.48692 0.72804-0.78125 1-0.72244 0.66754-1.4916 1.065-2.25 1.5625 0.7294-0.30428 1.5171-0.50241 2.25-0.375 0.18107 0.03148 0.27282 0.14013 0.4375 0.1875 0.50566-0.397 1.0654-0.60009 1.4062-0.625 0.86548-0.06326 1.0428 0.09702 1.2812 0.1875 0.47697 0.18095 0.83868 0.3898 1.375 0.6875a2.5069 2.5069 0 0 1 0.21875 0.125c0.75531 0.52483 1.0595 1.0843 1.4062 1.625a2.5069 2.5069 0 0 1 0.28125 -0.0625c0.04675-0.40719 0.0048-0.81303 0.21875-1.2188 0.7349-1.3939 2.2631-2.0009 3.6562-2.0938a2.5069 2.5069 0 0 1 0.34375 0c0.24098-0.15449 0.43352-0.45812 0.65625-0.53125 0.58583-0.19234 1.0798-0.20159 1.5938-0.1875a2.5069 2.5069 0 0 1 2.4062 2.0938c-0.01062-0.06426 0.079 0.15546 0.09375 0.1875 0.8173-1.34 2.3111-2.1736 3.8125-2.2812a2.5069 2.5069 0 0 1 2.3125 1.1875v-14.906zm-62.594 0.34375c0.0039 0.000057-0.0022-0.0135-0.21875 0.0625-0.21656 0.076-0.94507 0.31795-1.25 1.375-0.06385 0.22134 0.02803 0.36651 0.03125 0.5625l0.625-1.25 0.71875 0.8125a2.5069 2.5069 0 0 1 0.5 -1.25c-0.17401-0.11122-0.41125-0.31257-0.40625-0.3125zm28.625 0.34375c-0.04159 0.0271-0.13556 0.04909-0.125 0.5625 0.0083 0.40608 0.16837 0.50618 0.34375 0.71875 0.13349-0.31102 0.39057-0.55426 0.375-0.8125-0.01226-0.20339-0.01571-0.13647-0.03125-0.25-0.22921-0.09843-0.4637-0.21648-0.5625-0.21875zm14.594 3.343c-0.33788 0.39494-0.62072 0.7857-1.0312 1.1562l0.03125 0.03125c-0.40873 0.46375-0.21082 0.27995-0.15625 0.375s0.24093 0.07426-0.09375 0.125a2.5069 2.5069 0 0 1 0.875 0.032c0.05857-0.17983 0.14151-0.32768 0.1875-0.5 0.20194-0.75664 0.12879-1.5516 0.21875-1.1562a2.5069 2.5069 0 0 1 -0.031 -0.063zm-9.5 6.3125c-0.58208-0.10095-1.2808 0.13937-1.625 0.6875-0.05129 0.08166-0.0334 0.08945-0.0625 0.15625l1.75-0.71875c-0.02375-0.03934-0.03877-0.08466-0.0625-0.125zm-21.187 3.282c-0.07 0.0082-0.19579 0.09942-0.28125 0.125l0.78125 1.75c0.17116-0.22431 0.34688-0.78586 0.28125-1.1875-0.13125-0.80327-0.3062-0.68713-0.25-0.65625 0.0281 0.01544 0.04488 0.02356-0.09375 0-0.06932-0.01178-0.21161-0.05769-0.4375-0.03125zm28.125 4.9688c-0.48871 0.11978-1.1723 0.57725-1.4688 1.2188-0.59287 1.283 0.02435 1.7061-0.09375 1.5312l2.0625-1.4062 0.5 0.90625a2.5069 2.5069 0 0 1 0.21875 -0.4375c-0.0243-0.03581-0.0053-0.02726-0.03125-0.0625-0.16476-0.224-0.34858-0.43991-0.53125-0.6875-0.09133-0.1238-0.19848-0.25044-0.3125-0.4375-0.0616-0.10107-0.13473-0.43524-0.21875-0.625-0.05151 0.0092-0.06919-0.01368-0.125 0zm15.969 3.0938c-0.07181 0.06595-0.1078 0.16208-0.1875 0.21875-0.48969 0.34822-0.94864 0.44578-1.375 0.5 0.35437 0.76917 0.44978 1.7802 0.21875 2.5-0.11871 0.36983-0.35312 0.58704-0.53125 0.875 0.62189 0.49614 1.1155 1.08 1.4375 1.625 0.57848 0.97915 0.90712 1.8934 1.2188 2.6562 0.29864 0.73105 0.57554 1.2571 0.71875 1.4375 0.17459-0.06495 0.60636-0.24187 1.125-0.59375 0.04757-0.03227 0.07757-0.05976 0.125-0.09375-0.71342-0.38144-1.3058-0.88387-1.6875-1.4062-0.53786-0.73607-0.85908-1.4193-0.96875-2.3438-0.05483-0.46225-0.13877-1.0316 0.34375-1.9062 0.22923-0.41551 0.6791-0.85952 1.25-1.125-0.79594-0.53534-1.371-1.3756-1.6875-2.3438zm5.968 1.875c-0.42313 0.39946-0.84754 0.64426-1.375 0.8125 0.49065 0.3201 0.91754 0.73498 1.2188 1.1875 0.10426-0.36155 0.3204-0.97009 0.1875-1.6562a2.5069 2.5069 0 0 1 -0.031 -0.344zm-23.438 1.2188c-1.0482 0.12532-2.5722 0.77084-3.6875 1.3125-1.1508 1.2817-2.3069 2.8032-2.875 4.2188-0.6206 1.5464-0.6867 2.6393 0.125 3.875a2.5069 2.5069 0 0 1 0.21875 0.4375c0.20263 0.50442 0.0998 0.36798 0.625 0.46875s1.6064 0.04464 2.8438-0.0625c1.2373-0.10714 2.6337-0.33399 4.2812 0.21875 1.4361 0.4818 2.6395 2.0302 3.125 3.7812l0.094-0.031c1.8638 4.0371 1.2059 7.9384 1.6875 11.031 0.27138 1.4232 1.3294 3.3013 1.9375 3.7812 0.30407 0.23997 0.22448 0.18625 0.21875 0.1875-0.0056 0.0012 0.41187-0.15512 1.0312-1.0312 0.0055-0.01357 0.02571-0.01772 0.03125-0.03125 0.86459-2.1125 1.9983-3.8386 2.75-5.25 0.82444-1.548 1.134-2.5072 0.78125-3.7188a2.5069 2.5069 0 0 1 -0.093 -0.969c0.32236-2.8349 2.2279-4.4073 3.4375-5.75 0.14751-0.16375 0.18155-0.22366 0.3125-0.375-1.3827-0.72465-2.5251-1.7583-3.3438-2.9062-1.3977-1.96-2.1795-4.1668-2.6562-6.0312a2.5069 2.5069 0 0 1 -0.03125 -0.25c-2.5116 0.09678-5.3681 0.28351-8.2812-0.90625a2.5069 2.5069 0 0 1 -1.5 -1.7188c-0.101-0.405-0.058-0.233-0.094-0.25-0.036-0.018-0.36-0.101-0.938-0.032zm-36.625 3.375c-0.23428 0.03505-0.91357-0.05377-1.5938 1.125-0.03681 0.06379-0.0016 0.14838-0.03125 0.21875l1.875-1.3438c0.02801-0.01015 0.12486-0.05608-0.25 0zm2.25 1.125c-0.14889 0.02325-0.16429 0.03733-0.21875 0.0625s-0.12569 0.03925-0.34375 0.25-0.93477 0.9506-0.59375 2.2188c0.30508 1.1345 1.0645 1.4364 1.375 1.5312l-0.0625-2.4375 2.0938 1.4062c-0.04385 0.06534 0.10087 0.000227 0.15625-0.59375s-0.59381-1.8799-1.2812-2.2188c-0.68744-0.33889-0.97611-0.242-1.125-0.21875zm1 8.0625c-0.32588-0.0074-0.65624 0.11584-0.96875 0.21875a2.5069 2.5069 0 0 1 -0.25 1.0312c-0.70756 1.4347-0.935 2.6929-0.78125 3.6875s0.62731 1.8633 1.875 2.8125a2.5069 2.5069 0 0 1 0.15625 0.15625c2.4912 2.2923 2.6258 5.5536 2.1875 7.875-0.43093 2.2826-1.0322 4.1653-0.96875 5.3438 0.46009-0.52987 1.0399-0.96522 1.6875-1.3438 0.90091-1.4133 1.9564-2.4743 2.8125-3.3438 0.99111-1.0065 1.714-1.836 2.25-3.0625a2.5069 2.5069 0 0 1 0.938 -1.095c1.7707-1.1572 3.3074-3.6499 3.5312-5.6875-0.59382-0.24004-1.1658-0.4293-2.4375-0.75-0.86499-0.21814-1.8918-0.5386-2.875-1.3438-0.62817-0.51439-1.0894-1.2589-1.4375-2.0938-1.3958-0.74933-2.7862-1.5793-3.9375-2-0.70316-0.25692-1.2539-0.39428-1.7812-0.40625z" clip-path="url(#clipPath3759)"/>
  <path id="rect3728" style="opacity:.3;fill:url(#linearGradient3188)" d="m12 6c-3.324 0-6 2.676-6 6v2 68 2c0 0.33472 0.04135 0.6507 0.09375 0.96875 0.0487 0.2956 0.09704 0.59692 0.1875 0.875 0.00988 0.03038 0.020892 0.0636 0.03125 0.09375 0.098865 0.28777 0.23488 0.54745 0.375 0.8125 0.14459 0.27351 0.31562 0.53562 0.5 0.78125 0.18438 0.24564 0.37378 0.47347 0.59375 0.6875 0.43995 0.42806 0.94291 0.81453 1.5 1.0938 0.27854 0.13961 0.57347 0.24695 0.875 0.34375-0.2562-0.10022-0.48671-0.23627-0.71875-0.375-0.00741-0.0044-0.023866 0.0045-0.03125 0-0.031933-0.0193-0.062293-0.04251-0.09375-0.0625-0.1204-0.0767-0.23102-0.16351-0.34375-0.25-0.10617-0.0808-0.21328-0.16111-0.3125-0.25-0.1778-0.162-0.3473-0.346-0.4999-0.531-0.1075-0.131-0.2183-0.266-0.3124-0.407-0.0251-0.038-0.0385-0.086-0.0626-0.125-0.0647-0.103-0.1302-0.204-0.1874-0.312-0.1011-0.195-0.2057-0.416-0.2813-0.625-0.008-0.022-0.0236-0.041-0.0313-0.063-0.0318-0.092-0.0358-0.187-0.0624-0.281-0.0304-0.107-0.0704-0.203-0.0938-0.313-0.0729-0.341-0.125-0.698-0.125-1.062v-2-68-2c0-2.782 2.2182-5 5-5h2 68 2c2.7818 0 5 2.2182 5 5v2 68 2c0 0.3643-0.05212 0.72099-0.125 1.0625-0.04415 0.20689-0.08838 0.39766-0.15625 0.59375-0.0077 0.02195-0.0233 0.04069-0.03125 0.0625-0.06274 0.17374-0.13838 0.36745-0.21875 0.53125-0.04158 0.0828-0.07904 0.16995-0.125 0.25-0.0546 0.09721-0.12677 0.18835-0.1875 0.28125-0.09411 0.14096-0.20492 0.276-0.3125 0.40625-0.14317 0.17445-0.30314 0.347-0.46875 0.5-0.01117 0.0102-0.01998 0.02115-0.03125 0.03125-0.13839 0.12556-0.28509 0.23444-0.4375 0.34375-0.10257 0.07315-0.20432 0.15336-0.3125 0.21875-0.0074 0.0045-0.02384-0.0044-0.03125 0-0.23204 0.13873-0.46255 0.27478-0.71875 0.375 0.30153-0.0968 0.59646-0.20414 0.875-0.34375 0.55709-0.27922 1.0601-0.66569 1.5-1.0938 0.21997-0.21403 0.40937-0.44186 0.59375-0.6875s0.35541-0.50774 0.5-0.78125c0.14012-0.26505 0.27614-0.52473 0.375-0.8125 0.01041-0.03078 0.02133-0.06274 0.03125-0.09375 0.09046-0.27808 0.1388-0.5794 0.1875-0.875 0.053-0.318 0.094-0.634 0.094-0.969v-2-68-2c0-3.324-2.676-6-6-6h-72z"/>
 </g>
 <g id="layer4" style="display:none">
  <rect id="rect3171" style="opacity:.15;filter:url(#filter3794);stroke:#fff;stroke-linecap:round;stroke-width:.5;fill:url(#linearGradient2885)" clip-path="url(#clipPath3613)" rx="12" ry="12" height="66" width="66" y="15" x="15"/>
 </g>
 <g id="layer3">
  <path id="path3791" style="opacity:.05" d="m70.938 3.0625c-0.766-0.0756-1.665-0.0708-2.532 0.25-0.909 0.3365-1.813 1.2164-1.937 2.4375a0.99667 0.99667 0 0 0 0.0625 0.375c0.64744 2.0753-0.2317 4.5672-0.5625 7.3125-4.0272 20.436-13.521 39.371-23.812 57.469-3.3832 5.8499-6.9354 11.616-10.625 17.281-0.63839-0.0046-1.3028-0.05643-1.9062 0.25-0.85243 0.43284-1.5817 1.3916-1.5625 2.5625-0.000088 0.01124-0.000005 0.02005 0 0.03125 0.000839 1.7456 1.138 2.9927 2.4062 3.5 1.2552 0.50205 2.627 0.51478 3.7812 0.40625 0.02037-0.00065 0.04212 0.000614 0.0625 0 3.0983-0.09328 6.3519 0.2393 9.6562-0.1875a0.99667 0.99667 0 0 0 0.09375 -0.03125c0.83562-0.19354 1.5664-0.63024 2.0938-1.2188 0.26368-0.29426 0.48195-0.63387 0.59375-1.0625 0.0098-0.03775-0.03846-0.08515-0.03125-0.125l0.155 0.092c13.329-20.604 25.227-42.502 32.219-66.218a0.99667 0.99667 0 0 0 0 -0.03125c1.7388-6.3714 3.349-12.906 3.6875-19.625a0.99667 0.99667 0 0 0 0 -0.21875c-0.132-0.9108-0.531-1.6667-1.094-2.1882-0.564-0.5215-1.268-0.7969-1.938-0.9375-1.34-0.2811-2.716-0.1145-3.688-0.125h-5-0.125zm-25.594 88.094c-0.000863 0.05156-0.000067 0.1253 0 0.125 0.000109-0.000494-0.06271 0.18798-0.0625 0.1875 0.000167-0.000388-0.03544 0.04541-0.0625 0.09375-0.000353-0.0131-0.000472-0.01794 0-0.03125 0.01055-0.2977 0.14587-0.39438 0.125-0.375z"/>
  <path id="path3785" style="opacity:.1" d="m70.938 4.0625c-1.377-0.1527-3.295 0.0599-3.469 1.7813 0.777 2.4909-0.191 5.1452-0.502 7.7272-4.054 20.639-13.614 39.689-23.934 57.837-3.461 5.984-7.098 11.866-10.877 17.654-1.341-0.243-3.14 0.303-3.094 1.938-0.02185 2.805 3.0112 3.1473 5.1459 2.9375 3.2052-0.10233 6.4539 0.22054 9.628-0.18944 1.5954-0.3695 3.159-2.3429 0.73058-2.6134-1.006-0.192 2.472-0.196 1.464 0.74 13.301-20.561 25.146-42.385 32.098-65.967 1.734-6.355 3.309-12.848 3.641-19.44-0.421-2.9233-3.597-2.3826-5.719-2.4055h-5.1134zm-24.938 87.812c-0.18128 0.26962 0.12742 0.04491 0 0zm-0.03125-0.03125c-0.09844-0.68587-1.4626-0.60903 0 0z"/>
  <path id="path3781" style="opacity:.15" d="m70.969 5.0938-1.594 0.0312a0.91511 0.91511 0 0 0 -0.4375 1.6875c0.01103 0.11246 0 0.25 0 0.25-2.905 30.49-26.78 68.642-36.188 83.032h-1.75a0.91511 0.91511 0 0 0 -0.906 0.906c0 1.0451 0.86116 1.9062 1.9062 1.9062h2 3 5.6562c1.297 0 2.0761-0.88952 2.375-1.3438 0.000031-0.000046-0.0024-0.02643 0-0.03125 0.02994-0.0455 0.09475-0.14146 0.125-0.1875-0.000034 0.000094-0.0021-0.02416 0-0.03125 9.159-13.939 32.561-52.318 35.594-84.031 0.001-0.0097-0.001-0.0211 0-0.031 0.098-0.822-0.305-1.5763-0.781-1.875-0.483-0.3028-0.969-0.2812-0.969-0.2812h-8a0.91511 0.91511 0 0 0 -0.03125 0z"/>
  <path id="path3771" style="opacity:.3" d="m71 6-1.5938 0.03125c0.54928 0.11555 0.4375 1.125 0.4375 1.125-2.9514 30.986-27.078 69.321-36.438 83.625 0 0-0.04267 0.08983-0.125 0.21875h-2.281c0 0.554 0.446 1 1 1h2 3 5.6562c0.91804 0 1.3834-0.57039 1.625-0.9375 0.0043-0.0064-0.0043-0.02487 0-0.03125 9.056-13.763 32.567-52.418 35.563-83.875 0.156-1.156-0.844-1.156-0.844-1.156h-8z"/>
  <path id="path3697" style="color:#000000;fill:#be5916" d="m69.406 5c-0.23696 0-0.43702 0.43032-0.5 1h1c-0.06298-0.56968-0.26304-1-0.5-1z"/>
  <path id="rect3862" style="color:#000000;fill:#be5916" d="m31 90c0 0.554 0.446 1 1 1h5c0.554 0 1-0.446 1-1h-7z"/>
  <path id="path3828" style="fill:url(#linearGradient3732)" d="m71 5-1.609 0.0383c0.55 0.1155 0.453 1.1179 0.453 1.1179-2.952 30.986-27.067 69.331-36.427 83.635 0 0-0.625 1.209-1.417 1.209h2 8.659c0.91804 0 1.3834-0.57039 1.625-0.9375 0.0043-0.0064-0.0043-0.02487 0-0.03125 9.056-13.763 32.564-52.418 35.56-83.875 0.156-1.156-0.844-1.156-0.844-1.156h-8z"/>
  <path id="path3734" style="opacity:.5;fill:url(#linearGradient3747)" d="m63.531 32.219c-8.5846 23.858-23.29 47.117-30.125 57.562 0 0-0.6145 1.2188-1.4062 1.2188h2 8.6562c0.91804 0 1.3834-0.57039 1.625-0.9375 0.0043-0.0064-0.0043-0.02487 0-0.03125 6.644-10.097 21.074-33.592 29.469-57.812h-10.219z"/>
  <path id="path3794" style="opacity:.6;fill:url(#linearGradient3807)" d="m71 5-1.5938 0.03125c0.54928 0.11555 0.4375 1.125 0.4375 1.125-0.10005 1.0504-0.2277 2.1214-0.375 3.1875h10c0.14525-1.0696 0.27454-2.1328 0.375-3.1875 0.157-1.1562-0.843-1.1562-0.843-1.1562h-8z"/>
  <path id="path3809" style="opacity:.5;fill:url(#linearGradient3822)" d="m71 5-1.5938 0.03125c0.54928 0.11555 0.4375 1.125 0.4375 1.125-2.9514 30.986-27.078 69.321-36.438 83.625 0 0-0.6145 1.2188-1.4062 1.2188h2 8.6562c0.91804 0 1.3834-0.57039 1.625-0.9375 0.0043-0.0064-0.0043-0.02487 0-0.03125 9.056-13.763 32.567-52.418 35.563-83.875 0.156-1.156-0.844-1.156-0.844-1.156h-8zm-0.125 1.0312h0.125 0.03125 7.7812a1.027 1.027 0 0 0 0 0.03125c-2.9556 31.031-26.356 69.699-35.375 83.406-0.000074 0.00011-0.01839 0.03708-0.03125 0.0625-0.16276 0.25068-0.28048 0.4375-0.75 0.4375h-8.1562c9.503-14.54 33.388-52.464 36.375-83.688 0.000946-0.00989-0.000942-0.02136 0-0.03125 0.000918-0.00723-0.0038-0.16711 0-0.21875z"/>
 </g>
 <g id="layer7">
  <path id="path3768" style="opacity:.05" d="m43.75 3.0312c-1.3145-0.00486-2.5301 0.12509-3.5938 0.03125a0.99264 0.99264 0 0 0 -0.09375 0c-1.4443 0.0002548-2.899-0.0003444-4.3438 0a0.99264 0.99264 0 0 0 -0.3125 0.0625c-0.53343 0.17952-0.99875 0.58445-1.2188 1.0312-0.22 0.4468-0.2501 0.87102-0.25 1.25 0.000193 0.75796 0.12224 1.4379 0.09375 1.625a0.99264 0.99264 0 0 0 0.157 0.7189c2.0251 2.8367 4.2017 5.7172 5.9375 8.6875 10.377 17.318 18.104 36.109 25.062 55.094a0.99264 0.99264 0 0 0 0.125 0.21875c0.33881 0.47789 0.47204 0.84154 0.5 1s0.02072 0.09951 0 0.125c-0.04144 0.05098-0.647 0.33833-1.625 0.4375a0.99264 0.99264 0 0 0 -0.21875 0.0625c-1.3635 0.46845-3.3189 0.43499-5.0625 1.5312a0.99264 0.99264 0 0 0 -0.125 0.093c-0.91115 0.82771-1.0984 2.1111-0.75 3.0938 0.32584 0.91918 1.0902 1.6596 2.0938 1.9688l-0.03125 0.03125c5.9953 2.8924 11.977 5.8561 18 8.7188a0.99264 0.99264 0 0 0 0.21875 0.0625c1.1016 0.26523 2.1451-0.19433 2.7812-0.875 0.59527-0.63692 0.88681-1.4272 1.0312-2.2188h0.03125c0.01643-0.04996 0.01481-0.10629 0.03125-0.15625 2.0377-6.191 4.2209-12.347 6.1875-18.594a0.99264 0.99264 0 0 0 0.0625 -0.1875c0.31601-2.6517-3.0842-4.1104-4.9688-2.4062l-0.03125-0.0625-3.5 2.25c-6.828-17.645-14.428-35.103-24.188-51.407a0.99264 0.99264 0 0 0 0 -0.03125c-2.355-3.711-4.719-7.5671-7.75-10.938a0.99264 0.99264 0 0 0 -0.188 -0.1562c-1.291-0.8838-2.748-1.0577-4.062-1.0626z"/>
  <path id="path3762" style="opacity:.1" d="m35.719 4.0625c-1.2865 0.43296-0.5802 2.1253-0.73242 3.1249 2.0147 2.8221 4.1972 5.6969 5.9731 8.7359 10.428 17.403 18.186 36.253 25.154 55.263 1.5604 2.2009 0.30181 2.8976-1.8311 3.1139-1.586 0.54488-3.4286 0.55988-4.8444 1.4501-1.225 1.1129-0.3967 3.0988 1.0965 3.4467 6.0015 2.8954 11.984 5.8516 17.997 8.7095 1.5204 0.36605 2.4903-1.1092 2.689-2.4385 2.055-6.254 4.241-12.473 6.217-18.749 0.219-1.844-2.253-2.848-3.468-1.491-1.501 0.965-3.001 1.931-4.501 2.897-6.933-18.014-14.645-35.829-24.574-52.417-2.36-3.719-4.695-7.5206-7.645-10.802-2.103-1.4388-4.795-0.6316-7.197-0.8435-1.4447 0.0002549-2.89-0.0003443-4.3343 0z"/>
  <path id="rect3711" style="color:#000000;fill:#be5916" d="m36.25 5c-0.60335 0-1.1031 0.43181-1.2188 1h4.9375c-0.115-0.5682-0.615-1-1.218-1h-2.5z"/>
  <path id="path3758" style="opacity:.15" d="m35.906 5v1 1c0.12062-0.0006668 0.05215-0.014867 0.125 0.0625s0.18435 0.23981 0.40625 0.53125c8.1714 10.732 16.257 27.691 22.25 41.938 5.5822 13.27 9.0383 23.317 9.5312 24.75l-7.656 1.906a0.99074 0.99074 0 0 0 -0.1875 1.875l18.188 8.8438a0.99074 0.99074 0 0 0 1.375 -0.59375l6.5-19.469a0.99074 0.99074 0 0 0 -1.468 -1.156l-5.9375 3.8438c-0.582-1.573-4.089-10.909-9.626-23.344-6.019-13.521-13.997-29.585-22.094-39.813-0.112-0.1421-0.903-1.375-2.312-1.375h-9.0938z"/>
  <path id="path3752" style="opacity:.3" d="m35.898 6c0.798-0.0044 1.067 0.6664 1.321 1 16.569 21.762 32.327 68 32.327 68l-8.727 2.152 18.181 8.848 6.515-19.454-6.979 4.497s-16.045-43.882-32.005-64.043c-0.267-0.3376-0.599-1-1.546-1h-9.0869z"/>
  <path id="path3830" style="fill:url(#linearGradient3724)" d="m35.898 5c0.798-0.0044 1.067 0.6664 1.321 1 16.569 21.762 32.327 68 32.327 68l-8.727 2.152 18.181 8.848 6.515-19.454-6.979 4.497s-16.045-43.882-32.005-64.043c-0.267-0.3376-0.599-1-1.546-1h-9.0869z"/>
  <path id="path3824" style="opacity:.6;fill:url(#linearGradient3831)" d="m35.906 5c0.79777-0.00441 1.0585 0.66644 1.3125 1 1.3628 1.7898 2.719 3.7621 4.0625 5.8438h9.4375c-1.393-2.0943-2.783-4.0709-4.187-5.844-0.267-0.3376-0.584-1-1.531-1h-9.0938z"/>
  <path id="path3833" style="opacity:.5;fill:url(#linearGradient3846)" d="m35.906 5c0.79777-0.00441 1.0585 0.66644 1.3125 1 16.569 21.762 32.312 68 32.312 68l-8.718 2.156 18.188 8.844 6.5-19.469-6.9688 4.5s-16.04-43.87-32-64.031c-0.267-0.3376-0.584-1-1.531-1h-9.0938zm2.4375 0.96875h6.6562c0.49972 0 0.36423 0.09821 0.78125 0.625 7.8668 9.9376 15.853 25.919 21.844 39.375s10 24.406 10 24.406a0.95901 0.95901 0 0 0 1.4375 0.46875l4.6562-3-5.2812 15.812-14.812-7.2188 6.125-1.5a0.95901 0.95901 0 0 0 0.6875 -1.25s-3.9481-11.594-9.9688-25.906c-5.93-14.095-13.868-30.777-22.125-41.812z"/>
  <path id="path3852" style="opacity:.6;fill:url(#linearGradient3860)" d="m47.938 15.062c5.8 9.9322 11.101 21.372 15.375 31.531 6.0645 14.417 10.031 26.094 10.031 26.094a4.0358 4.0358 0 0 1 -1.282 4.469l4.563 2.219 1.781-5.313a4.0358 4.0358 0 0 1 -3.656 -2.656s-3.9603-10.833-9.9062-24.188c-4.754-10.677-10.826-22.812-16.906-32.156z" transform="translate(-3,1)"/>
 </g>
</svg>
