<?xml version="1.0" encoding="UTF-8" standalone="no"?>
<!-- Created with Inkscape (http://www.inkscape.org/) -->
<svg id="svg2408" xmlns:rdf="http://www.w3.org/1999/02/22-rdf-syntax-ns#" xmlns="http://www.w3.org/2000/svg" height="96" width="96" version="1.0" xmlns:cc="http://creativecommons.org/ns#" xmlns:xlink="http://www.w3.org/1999/xlink" xmlns:dc="http://purl.org/dc/elements/1.1/">
 <defs id="defs2410">
  <linearGradient id="linearGradient3953">
   <stop id="stop3955" offset="0"/>
   <stop id="stop3957" style="stop-opacity:0" offset="1"/>
  </linearGradient>
  <linearGradient id="linearGradient3761">
   <stop id="stop3763" style="stop-color:#333" offset="0"/>
   <stop id="stop3765" style="stop-color:#515151" offset="1"/>
  </linearGradient>
  <linearGradient id="ButtonShadow" y2="7.0165" gradientUnits="userSpaceOnUse" x2="45.448" gradientTransform="scale(1.0059 .99417)" y1="92.54" x1="45.448">
   <stop id="stop3750" offset="0"/>
   <stop id="stop3752" style="stop-opacity:.58824" offset="1"/>
  </linearGradient>
  <linearGradient id="linearGradient3737">
   <stop id="stop3739" style="stop-color:#fff" offset="0"/>
   <stop id="stop3741" style="stop-color:#fff;stop-opacity:0" offset="1"/>
  </linearGradient>
  <filter id="filter3174" color-interpolation-filters="sRGB">
   <feGaussianBlur id="feGaussianBlur3176" stdDeviation="1.71"/>
  </filter>
  <linearGradient id="linearGradient3188" y2="63.893" xlink:href="#linearGradient3737" gradientUnits="userSpaceOnUse" x2="36.357" y1="6" x1="36.357"/>
  <filter id="filter3794" height="1.384" width="1.384" color-interpolation-filters="sRGB" y="-.192" x="-.192">
   <feGaussianBlur id="feGaussianBlur3796" stdDeviation="5.28"/>
  </filter>
  <linearGradient id="linearGradient3613" y2="138.66" xlink:href="#linearGradient3737" gradientUnits="userSpaceOnUse" x2="48" y1="20.221" x1="48"/>
  <radialGradient id="radialGradient3619" xlink:href="#linearGradient3737" gradientUnits="userSpaceOnUse" cy="90.172" cx="48" gradientTransform="matrix(1.1573 0 0 .99591 -7.551 .19713)" r="42"/>
  <clipPath id="clipPath3613">
   <rect id="rect3615" style="fill:#fff" rx="6" ry="6" height="84" width="84" y="6" x="6"/>
  </clipPath>
  <linearGradient id="linearGradient3617" y2="5.9877" gradientUnits="userSpaceOnUse" x2="48" gradientTransform="translate(0,2)" y1="90" x1="48">
   <stop id="stop3666" style="stop-color:#c8c8c8" offset="0"/>
   <stop id="stop3668" style="stop-color:#c8c8c8" offset=".79101"/>
   <stop id="stop3672" style="stop-color:#dadada" offset=".91460"/>
   <stop id="stop3670" style="stop-color:#f0f0f0" offset="1"/>
  </linearGradient>
  <linearGradient id="ButtonShadow-0" y2="7.0165" gradientUnits="userSpaceOnUse" x2="45.448" gradientTransform="matrix(1.0059 0 0 .99417 100 0)" y1="92.54" x1="45.448">
   <stop id="stop3750-8" offset="0"/>
   <stop id="stop3752-5" style="stop-opacity:.58824" offset="1"/>
  </linearGradient>
  <linearGradient id="linearGradient3780" y2="90.239" xlink:href="#ButtonShadow-0" gradientUnits="userSpaceOnUse" x2="32.251" gradientTransform="matrix(1.0238 0 0 1.0119 -1.1429 -98.071)" y1="6.1317" x1="32.251"/>
  <linearGradient id="linearGradient3721" y2="90.239" xlink:href="#ButtonShadow-0" gradientUnits="userSpaceOnUse" x2="32.251" gradientTransform="translate(0,-97)" y1="6.1317" x1="32.251"/>
  <linearGradient id="linearGradient3684" y2="80" gradientUnits="userSpaceOnUse" x2="48" y1="27" x1="48">
   <stop id="stop3680" style="stop-color:#888" offset="0"/>
   <stop id="stop3682" style="stop-color:#acacac" offset="1"/>
  </linearGradient>
  <linearGradient id="linearGradient3880" y2="6" xlink:href="#linearGradient3761" gradientUnits="userSpaceOnUse" x2="32" y1="16" x1="32"/>
  <linearGradient id="linearGradient3913" y2="8" xlink:href="#linearGradient3183-0" gradientUnits="userSpaceOnUse" x2="120" gradientTransform="translate(-151,-27)" y1="8" x1="104"/>
  <linearGradient id="linearGradient3183-0">
   <stop id="stop3185-9" style="stop-color:#c80000" offset="0"/>
   <stop id="stop3187-6" style="stop-color:#f3604d" offset="1"/>
  </linearGradient>
  <linearGradient id="linearGradient3637">
   <stop id="stop3639" style="stop-color:#d4d4d4" offset="0"/>
   <stop id="stop3641" style="stop-color:#797979" offset="1"/>
  </linearGradient>
  <linearGradient id="linearGradient3950" y2="8" xlink:href="#linearGradient3637" gradientUnits="userSpaceOnUse" x2="120" gradientTransform="translate(-97,-27)" y1="8" x1="104"/>
  <linearGradient id="linearGradient3924" y2="13" xlink:href="#linearGradient3183-0" gradientUnits="userSpaceOnUse" x2="16" y1="13" x1="10"/>
  <linearGradient id="linearGradient3959" y2="13" xlink:href="#linearGradient3953" gradientUnits="userSpaceOnUse" x2="16.812" y1="13" x1="9.1875"/>
  <linearGradient id="linearGradient3969" y2="13" xlink:href="#linearGradient3637" gradientUnits="userSpaceOnUse" x2="16" y1="13" x1="10"/>
  <linearGradient id="linearGradient3989" y2="13" xlink:href="#linearGradient3761" gradientUnits="userSpaceOnUse" x2="16" y1="13" x1="10"/>
 </defs>
 <metadata id="metadata2413">
  <rdf:RDF>
   <cc:Work rdf:about="">
    <dc:format>image/svg+xml</dc:format>
    <dc:type rdf:resource="http://purl.org/dc/dcmitype/StillImage"/>
    <dc:title/>
   </cc:Work>
  </rdf:RDF>
 </metadata>
 <g id="layer2" style="display:none">
  <rect id="rect3745" style="opacity:.9;filter:url(#filter3174);fill:url(#ButtonShadow)" rx="6" ry="6" height="85" width="86" y="7" x="5"/>
 </g>
 <g id="layer3">
  <path id="path3786" style="opacity:0.08;fill:url(#linearGradient3780)" d="m12-95.031c-5.5111 0-10.031 4.5202-10.031 10.031v71c0 5.5111 4.5202 10.031 10.031 10.031h72c5.5111 0 10.031-4.5202 10.031-10.031v-71c0-5.5111-4.5202-10.031-10.031-10.031h-72z" transform="scale(1,-1)"/>
  <path id="path3778" style="opacity:.1;fill:url(#linearGradient3780)" d="m12-94.031c-4.9716 0-9.0312 4.0596-9.0312 9.0312v71c0 4.9716 4.0596 9.0312 9.0312 9.0312h72c4.9716 0 9.0312-4.0596 9.0312-9.0312v-71c0-4.9716-4.0596-9.0312-9.0312-9.0312h-72z" transform="scale(1,-1)"/>
  <path id="path3770" style="opacity:.2;fill:url(#linearGradient3780)" d="m12-93c-4.4091 0-8 3.5909-8 8v71c0 4.4091 3.5909 8 8 8h72c4.4091 0 8-3.5909 8-8v-71c0-4.4091-3.5909-8-8-8h-72z" transform="scale(1,-1)"/>
  <rect id="rect3723" style="opacity:.3;fill:url(#linearGradient3780)" transform="scale(1,-1)" rx="7" ry="7" height="85" width="86" y="-92" x="5"/>
  <rect id="rect3716" style="opacity:.45;fill:url(#linearGradient3721)" transform="scale(1,-1)" rx="6" ry="6" height="84" width="84" y="-91" x="6"/>
 </g>
 <g id="layer1">
  <rect id="rect2419" style="fill:url(#linearGradient3617)" rx="6" ry="6" height="82" width="84" y="8" x="6"/>
  <path id="rect3728" style="opacity:.5;fill:url(#linearGradient3188)" d="m12 6c-3.324 0-6 2.676-6 6v2 68 2c0 0.33472 0.04135 0.6507 0.09375 0.96875 0.0487 0.2956 0.09704 0.59692 0.1875 0.875 0.00988 0.03038 0.020892 0.0636 0.03125 0.09375 0.098865 0.28777 0.23488 0.54745 0.375 0.8125 0.14459 0.27351 0.31562 0.53562 0.5 0.78125 0.18438 0.24564 0.37378 0.47347 0.59375 0.6875 0.43995 0.42806 0.94291 0.81453 1.5 1.0938 0.27854 0.13961 0.57347 0.24695 0.875 0.34375-0.2562-0.10022-0.48671-0.23627-0.71875-0.375-0.00741-0.0044-0.023866 0.0045-0.03125 0-0.031933-0.0193-0.062293-0.04251-0.09375-0.0625-0.1204-0.0767-0.23102-0.16351-0.34375-0.25-0.10617-0.0808-0.21328-0.16111-0.3125-0.25-0.1778-0.162-0.3473-0.346-0.4999-0.531-0.1075-0.131-0.2183-0.266-0.3124-0.407-0.0251-0.038-0.0385-0.086-0.0626-0.125-0.0647-0.103-0.1302-0.204-0.1874-0.312-0.1011-0.195-0.2057-0.416-0.2813-0.625-0.008-0.022-0.0236-0.041-0.0313-0.063-0.0318-0.092-0.0358-0.187-0.0624-0.281-0.0304-0.107-0.0704-0.203-0.0938-0.313-0.0729-0.341-0.125-0.698-0.125-1.062v-2-68-2c0-2.782 2.2182-5 5-5h2 68 2c2.7818 0 5 2.2182 5 5v2 68 2c0 0.3643-0.05212 0.72099-0.125 1.0625-0.04415 0.20689-0.08838 0.39766-0.15625 0.59375-0.0077 0.02195-0.0233 0.04069-0.03125 0.0625-0.06274 0.17374-0.13838 0.36745-0.21875 0.53125-0.04158 0.0828-0.07904 0.16995-0.125 0.25-0.0546 0.09721-0.12677 0.18835-0.1875 0.28125-0.09411 0.14096-0.20492 0.276-0.3125 0.40625-0.14317 0.17445-0.30314 0.347-0.46875 0.5-0.01117 0.0102-0.01998 0.02115-0.03125 0.03125-0.13839 0.12556-0.28509 0.23444-0.4375 0.34375-0.10257 0.07315-0.20432 0.15336-0.3125 0.21875-0.0074 0.0045-0.02384-0.0044-0.03125 0-0.23204 0.13873-0.46255 0.27478-0.71875 0.375 0.30153-0.0968 0.59646-0.20414 0.875-0.34375 0.55709-0.27922 1.0601-0.66569 1.5-1.0938 0.21997-0.21403 0.40937-0.44186 0.59375-0.6875s0.35541-0.50774 0.5-0.78125c0.14012-0.26505 0.27614-0.52473 0.375-0.8125 0.01041-0.03078 0.02133-0.06274 0.03125-0.09375 0.09046-0.27808 0.1388-0.5794 0.1875-0.875 0.053-0.318 0.094-0.634 0.094-0.969v-2-68-2c0-3.324-2.676-6-6-6h-72z"/>
  <path id="rect3101" style="color:#000000;fill:url(#linearGradient3880)" d="m12 6c-3.324 0-6 2.676-6 6v8h84v-8c0-3.324-2.676-6-6-6z"/>
  <path id="path3615" style="opacity:.2;fill:url(#radialGradient3619)" d="m12 90c-3.324 0-6-2.676-6-6v-2-68-2c0-0.33472 0.04135-0.6507 0.09375-0.96875 0.0487-0.2956 0.09704-0.59692 0.1875-0.875 0.0099-0.03 0.0209-0.063 0.0313-0.094 0.0989-0.2873 0.2349-0.547 0.375-0.812 0.1446-0.2735 0.3156-0.5356 0.5-0.7812 0.1844-0.2457 0.3738-0.4735 0.5937-0.6876 0.44-0.428 0.943-0.8145 1.5-1.0937 0.2786-0.1396 0.5735-0.2469 0.8748-0.3437-0.256 0.1002-0.4865 0.2362-0.7185 0.375-0.00741 0.0044-0.023866-0.0045-0.03125 0-0.031933 0.0193-0.062293 0.04251-0.09375 0.0625-0.1204 0.0767-0.23102 0.16351-0.34375 0.25-0.10617 0.0808-0.21328 0.16111-0.3125 0.25-0.1779 0.1614-0.3474 0.3453-0.5 0.5312-0.1075 0.1303-0.2183 0.2653-0.3124 0.4063-0.0251 0.0383-0.0385 0.0858-0.0626 0.125-0.0647 0.103-0.1302 0.2045-0.1874 0.3124-0.1011 0.1948-0.2057 0.4158-0.2813 0.625-0.008 0.0219-0.0236 0.0406-0.0313 0.0626-0.0318 0.0919-0.0358 0.1868-0.0624 0.2812-0.0304 0.1066-0.0704 0.203-0.0938 0.3125-0.0729 0.3415-0.125 0.6985-0.125 1.0625v2 68 2c0 2.7818 2.2182 5 5 5h2 68 2c2.7818 0 5-2.2182 5-5v-2-68-2c0-0.364-0.052-0.721-0.125-1.0625-0.044-0.2069-0.088-0.3977-0.156-0.5937-0.008-0.022-0.024-0.0407-0.031-0.0626-0.063-0.1737-0.139-0.3674-0.219-0.5312-0.042-0.0828-0.079-0.17-0.125-0.25-0.055-0.0972-0.127-0.1884-0.188-0.2812-0.094-0.141-0.205-0.276-0.312-0.4063-0.143-0.1745-0.303-0.347-0.469-0.5-0.011-0.0102-0.02-0.0211-0.031-0.0313-0.139-0.1255-0.285-0.2344-0.438-0.3437-0.102-0.0731-0.204-0.1534-0.312-0.2187-0.0074-0.0045-0.02384 0.0044-0.03125 0-0.23204-0.13873-0.46255-0.27478-0.71875-0.375 0.30153 0.0968 0.59646 0.20414 0.875 0.34375 0.55709 0.27922 1.0601 0.66569 1.5 1.0938 0.21997 0.21403 0.40937 0.44186 0.59375 0.6875s0.35541 0.50774 0.5 0.78125c0.14012 0.26505 0.27614 0.52473 0.375 0.8125 0.01041 0.03078 0.02133 0.06274 0.03125 0.09375 0.09046 0.27808 0.1388 0.5794 0.1875 0.875 0.053 0.318 0.094 0.634 0.094 0.969v2 68 2c0 3.324-2.676 6-6 6h-72z"/>
  <rect id="rect3674" style="opacity:0.99;color:#000000;fill:url(#linearGradient3684)" height="56" width="74" y="27" x="11"/>
  <rect id="rect3676" style="opacity:0.99;color:#000000;fill:#fff" height="54" width="72" y="28" x="12"/>
  <g id="g3715" transform="matrix(.64183 0 0 .64183 23.906 4.8593)">
   <path id="path3717" d="m19.026 14.95c-0.000004 0.25521-0.04427 0.48568-0.13281 0.69141-0.08594 0.20313-0.21354 0.3776-0.38281 0.52344-0.16667 0.14323-0.3724 0.25391-0.61719 0.33203-0.24219 0.07813-0.52084 0.11719-0.83594 0.11719-0.27604 0-0.54297-0.02865-0.80078-0.08594-0.25521-0.05729-0.49219-0.14323-0.71094-0.25781v-1.125c0.125 0.0599 0.2513 0.11849 0.37891 0.17578 0.1276 0.05469 0.25651 0.10417 0.38672 0.14844 0.13281 0.04427 0.26432 0.07943 0.39453 0.10547 0.13281 0.02604 0.26432 0.03906 0.39453 0.03906 0.13281 0.000001 0.24609-0.01432 0.33984-0.04297 0.09635-0.03125 0.17318-0.07292 0.23047-0.125 0.05989-0.05469 0.10286-0.11849 0.12891-0.19141 0.02864-0.07552 0.04297-0.15755 0.04297-0.24609-0.000002-0.10677-0.02344-0.20052-0.07031-0.28125-0.04427-0.08333-0.10808-0.16015-0.19141-0.23047-0.08073-0.07292-0.17969-0.14323-0.29688-0.21094-0.11458-0.06771-0.24349-0.13932-0.38672-0.21484-0.11979-0.0625-0.25391-0.13802-0.40234-0.22656-0.14844-0.08854-0.28906-0.19791-0.42188-0.32812-0.13021-0.13281-0.23958-0.29166-0.32812-0.47656-0.08854-0.1875-0.13281-0.41145-0.13281-0.67188 0-0.2552 0.04167-0.48307 0.125-0.68359 0.08594-0.20312 0.20703-0.37369 0.36328-0.51172 0.15625-0.14062 0.34505-0.24739 0.56641-0.32031 0.22396-0.07291 0.47396-0.10937 0.75-0.10938 0.13802 0.000006 0.27213 0.0091 0.40234 0.02734 0.13281 0.01824 0.26302 0.04428 0.39062 0.07813 0.1302 0.03386 0.26041 0.07553 0.39062 0.125 0.1302 0.04949 0.26432 0.10678 0.40234 0.17188l-0.39062 0.94141c-0.11719-0.05468-0.22656-0.10286-0.32812-0.14453-0.10156-0.04166-0.20052-0.07682-0.29688-0.10547-0.09636-0.02864-0.19141-0.04947-0.28516-0.0625-0.09115-0.01562-0.1836-0.02343-0.27734-0.02344-0.20313 0.000005-0.35938 0.05469-0.46875 0.16406-0.10677 0.10678-0.16016 0.25-0.16016 0.42969-0.000001 0.09636 0.01562 0.1823 0.04687 0.25781 0.03385 0.07292 0.08594 0.14193 0.15625 0.20703 0.07292 0.06511 0.16536 0.13151 0.27734 0.19922 0.11458 0.06771 0.2526 0.14454 0.41406 0.23047 0.19531 0.10417 0.375 0.21094 0.53906 0.32031 0.16406 0.10677 0.30468 0.22656 0.42188 0.35938 0.11979 0.13021 0.21224 0.27865 0.27734 0.44531 0.0651 0.16667 0.09765 0.36198 0.09766 0.58594"/>
   <path id="path3719" d="m19.366 12.169h1.3047l0.70312 2.457c0.04167 0.13542 0.07161 0.27995 0.08984 0.43359 0.02083 0.15365 0.03385 0.29167 0.03906 0.41406h0.02344c0.0052-0.05989 0.01172-0.1263 0.01953-0.19922 0.01042-0.07292 0.02213-0.14713 0.03516-0.22266 0.01302-0.07552 0.02734-0.14974 0.04297-0.22266 0.01823-0.07552 0.03646-0.14323 0.05469-0.20312l0.6875-2.457h1.3125l-1.7266 4.9258c-0.16146 0.46094-0.38151 0.80338-0.66016 1.0273-0.27865 0.22396-0.6276 0.33594-1.0469 0.33594-0.13542-0.000002-0.2526-0.0078-0.35156-0.02344-0.09896-0.01302-0.18359-0.02735-0.25391-0.04297v-0.94531c0.05469 0.01302 0.1237 0.02474 0.20703 0.03516 0.08333 0.01041 0.17057 0.01562 0.26172 0.01563 0.125-0.000001 0.23177-0.01693 0.32031-0.05078s0.16406-0.08203 0.22656-0.14453c0.0651-0.0599 0.11979-0.13281 0.16406-0.21875 0.04687-0.08594 0.08724-0.18229 0.12109-0.28906l0.07422-0.21875-1.6484-4.4062"/>
   <path id="path3721" d="m27.214 15.239c-0.000004 0.22917-0.04167 0.42969-0.125 0.60156-0.08334 0.17188-0.20183 0.3151-0.35547 0.42969-0.15365 0.11458-0.33985 0.20052-0.55859 0.25781-0.21875 0.05729-0.46354 0.08594-0.73438 0.08594-0.14323 0-0.27604-0.0052-0.39844-0.01563-0.1224-0.0078-0.23828-0.02214-0.34766-0.04297s-0.21484-0.04687-0.31641-0.07813c-0.10156-0.03125-0.20443-0.07031-0.30859-0.11719v-0.98438c0.10937 0.05469 0.22396 0.10417 0.34375 0.14844 0.1224 0.04427 0.24349 0.08333 0.36328 0.11719 0.11979 0.03125 0.23568 0.05599 0.34766 0.07422 0.11458 0.01823 0.22005 0.02734 0.31641 0.02734 0.10677 0.000001 0.19792-0.0091 0.27344-0.02734 0.07552-0.02083 0.13672-0.04818 0.18359-0.08203 0.04948-0.03646 0.08463-0.07812 0.10547-0.125 0.02344-0.04948 0.03515-0.10156 0.03516-0.15625-0.000003-0.05469-0.0091-0.10286-0.02734-0.14453-0.01563-0.04427-0.05339-0.08984-0.11328-0.13672-0.0599-0.04948-0.14844-0.10416-0.26562-0.16406-0.11458-0.0625-0.26953-0.13802-0.46484-0.22656-0.1901-0.08593-0.35547-0.17057-0.49609-0.25391-0.13802-0.08593-0.2526-0.18099-0.34375-0.28516-0.08854-0.10416-0.15495-0.22265-0.19922-0.35547-0.04427-0.13541-0.06641-0.29557-0.06641-0.48047 0-0.20312 0.03906-0.3802 0.11719-0.53125 0.07812-0.15364 0.1888-0.28125 0.33203-0.38281s0.3151-0.17708 0.51562-0.22656c0.20312-0.05208 0.42838-0.07812 0.67578-0.07813 0.26042 0.000005 0.50781 0.02995 0.74219 0.08984 0.23437 0.0599 0.47526 0.14974 0.72266 0.26953l-0.35938 0.84375c-0.19792-0.09375-0.38672-0.17057-0.56641-0.23047-0.17969-0.05989-0.35938-0.08984-0.53906-0.08984-0.16146 0.000004-0.27865 0.02865-0.35156 0.08594-0.07031 0.0573-0.10547 0.13542-0.10547 0.23438-0.000002 0.05209 0.0091 0.09896 0.02734 0.14062 0.01823 0.03907 0.05469 0.08073 0.10938 0.125 0.05468 0.04167 0.13151 0.08854 0.23047 0.14062 0.09896 0.04948 0.22786 0.11068 0.38672 0.18359 0.18489 0.08073 0.35156 0.16146 0.5 0.24219 0.14844 0.07813 0.27604 0.16797 0.38281 0.26953s0.1888 0.22005 0.24609 0.35547 0.08593 0.29948 0.08594 0.49219"/>
   <path id="path3723" d="m29.921 15.665c0.11718 0.000001 0.22786-0.01302 0.33203-0.03906 0.10677-0.02604 0.21484-0.05859 0.32422-0.09766v0.88672c-0.11198 0.05729-0.2513 0.10417-0.41797 0.14062-0.16406 0.03906-0.34375 0.05859-0.53906 0.05859-0.19011 0-0.36719-0.02214-0.53125-0.06641s-0.30599-0.12109-0.42578-0.23047c-0.11979-0.11198-0.21484-0.26042-0.28516-0.44531-0.06771-0.1875-0.10156-0.42187-0.10156-0.70312v-2.1055h-0.57031v-0.50391l0.65625-0.39844 0.34375-0.92188h0.76172v0.92969h1.0625v0.89453h-1.0625v2.1055c-0.000002 0.16927 0.04167 0.29427 0.125 0.375s0.19271 0.12109 0.32812 0.12109"/>
   <path id="path3725" d="m33.225 12.934c-0.21094 0.000003-0.38672 0.07422-0.52734 0.22266-0.13802 0.14844-0.21745 0.38151-0.23828 0.69922h1.5195c-0.0026-0.13281-0.01953-0.25521-0.05078-0.36719s-0.07813-0.20833-0.14062-0.28906c-0.0625-0.08333-0.14063-0.14843-0.23438-0.19531-0.09375-0.04687-0.20313-0.07031-0.32812-0.07031m0.15234 3.6797c-0.3125 0-0.60026-0.04557-0.86328-0.13672-0.26302-0.09114-0.48958-0.22786-0.67969-0.41016-0.1901-0.1849-0.33854-0.41667-0.44531-0.69531-0.10417-0.28125-0.15625-0.61068-0.15625-0.98828 0-0.38281 0.04818-0.71744 0.14453-1.0039s0.23047-0.52474 0.40234-0.71484c0.17448-0.1927 0.38281-0.33724 0.625-0.43359 0.24479-0.09635 0.51562-0.14453 0.8125-0.14453 0.28906 0.000005 0.54948 0.04428 0.78125 0.13281 0.23437 0.08594 0.43229 0.21355 0.59375 0.38281 0.16406 0.16928 0.28906 0.37761 0.375 0.625 0.08854 0.2448 0.13281 0.52604 0.13281 0.84375v0.57812h-2.6641c0.0052 0.16667 0.03125 0.31771 0.07813 0.45312 0.04948 0.13281 0.11719 0.2461 0.20312 0.33984 0.08854 0.09115 0.19401 0.16146 0.31641 0.21094 0.125 0.04948 0.26692 0.07422 0.42578 0.07422 0.13281 0.000001 0.25781-0.0065 0.375-0.01953 0.11979-0.01562 0.23567-0.03776 0.34766-0.06641 0.11198-0.02865 0.22265-0.0638 0.33203-0.10547 0.10937-0.04427 0.22135-0.09505 0.33594-0.15234v0.92188c-0.10417 0.05469-0.20964 0.10156-0.31641 0.14062-0.10417 0.03646-0.21485 0.06771-0.33203 0.09375-0.11719 0.02604-0.24349 0.04427-0.37891 0.05469-0.13542 0.01302-0.28386 0.01953-0.44531 0.01953"/>
   <path id="path3727" d="m39.866 16.536h-1.1914v-2.5508c-0.000003-0.3151-0.04688-0.55078-0.14062-0.70703-0.09375-0.15885-0.24089-0.23828-0.44141-0.23828-0.15104 0.000004-0.27735 0.03125-0.37891 0.09375-0.09896 0.0625-0.17839 0.15495-0.23828 0.27734-0.0599 0.1224-0.10287 0.27344-0.12891 0.45312-0.02604 0.17969-0.03906 0.38542-0.03906 0.61719v2.0547h-1.1914v-4.3672h0.91016l0.16016 0.55859h0.06641c0.0625-0.11198 0.13672-0.20833 0.22266-0.28906 0.08854-0.08073 0.18489-0.14713 0.28906-0.19922 0.10416-0.05208 0.21484-0.08984 0.33203-0.11328 0.11718-0.02604 0.23568-0.03906 0.35547-0.03906 0.29948 0.000005 0.55338 0.05209 0.76172 0.15625 0.21093 0.10157 0.37239 0.26302 0.48438 0.48438h0.09766c0.0625-0.11198 0.13802-0.20833 0.22656-0.28906s0.18619-0.14713 0.29297-0.19922c0.10677-0.05208 0.21874-0.08984 0.33594-0.11328 0.11979-0.02604 0.23958-0.03906 0.35938-0.03906 0.46874 0.000005 0.82161 0.12761 1.0586 0.38281 0.23958 0.25261 0.35937 0.65886 0.35938 1.2188v2.8477h-1.1953v-2.5508c-0.000005-0.3151-0.04688-0.55078-0.14062-0.70703-0.09376-0.15885-0.24089-0.23828-0.44141-0.23828-0.28386 0.000004-0.48568 0.11328-0.60547 0.33984-0.1198 0.22396-0.17969 0.54558-0.17969 0.96484v2.1914"/>
   <path id="path3729" d="m49.061 16.536-0.33594-1.5273c-0.01042-0.04427-0.02474-0.10677-0.04297-0.1875-0.01563-0.08333-0.03386-0.17578-0.05469-0.27734-0.02084-0.10416-0.04297-0.21354-0.06641-0.32812-0.02084-0.11718-0.04297-0.23307-0.06641-0.34766-0.05209-0.26823-0.10938-0.55729-0.17188-0.86719h-0.02344c-0.0599 0.3099-0.11459 0.60026-0.16406 0.87109-0.02084 0.11459-0.04297 0.23047-0.06641 0.34766-0.02084 0.11719-0.04167 0.22787-0.0625 0.33203-0.02084 0.10156-0.04037 0.19401-0.05859 0.27734-0.01563 0.08333-0.02865 0.14844-0.03906 0.19531l-0.35156 1.5117h-1.2812l-1.1758-4.3672h1.1836l0.44141 1.9336c0.02344 0.10156 0.04687 0.22396 0.07031 0.36719 0.02604 0.14063 0.04948 0.28386 0.07031 0.42969 0.02343 0.14323 0.04427 0.27995 0.0625 0.41016 0.01823 0.1276 0.03255 0.22917 0.04297 0.30469h0.02344c0.0026-0.04948 0.0078-0.11328 0.01563-0.19141 0.01042-0.08073 0.02213-0.16666 0.03516-0.25781 0.01302-0.09114 0.02604-0.18359 0.03906-0.27734 0.01562-0.09635 0.02995-0.1862 0.04297-0.26953 0.01562-0.08333 0.02864-0.15625 0.03906-0.21875 0.01302-0.0651 0.02343-0.11067 0.03125-0.13672l0.47656-2.0938h1.3125l0.45703 2.0938c0.01302 0.05729 0.02994 0.14584 0.05078 0.26562 0.02083 0.11979 0.04166 0.2487 0.0625 0.38672 0.02343 0.13542 0.04296 0.26823 0.05859 0.39844 0.01562 0.1276 0.02473 0.22787 0.02734 0.30078h0.02344c0.0078-0.0651 0.02083-0.16146 0.03906-0.28906 0.02083-0.1276 0.04297-0.26432 0.06641-0.41016 0.02343-0.14844 0.04817-0.29557 0.07422-0.44141 0.02864-0.14583 0.05468-0.26953 0.07813-0.37109l0.45703-1.9336h1.168l-1.1914 4.3672h-1.2969"/>
   <path id="path3731" d="m52.128 11.04c0-0.11197 0.01693-0.20442 0.05078-0.27734 0.03385-0.07551 0.07943-0.13541 0.13672-0.17969 0.0599-0.04687 0.12891-0.07942 0.20703-0.09766 0.08073-0.01822 0.16536-0.02734 0.25391-0.02734 0.08854 0.000006 0.17187 0.0091 0.25 0.02734 0.07812 0.01823 0.14583 0.05079 0.20312 0.09766 0.05989 0.04428 0.10677 0.10417 0.14062 0.17969 0.03646 0.07292 0.05469 0.16537 0.05469 0.27734-0.000001 0.10938-0.01823 0.20183-0.05469 0.27734-0.03386 0.07553-0.08073 0.13672-0.14062 0.18359-0.05729 0.04428-0.125 0.07683-0.20312 0.09766-0.07813 0.01823-0.16146 0.02735-0.25 0.02734-0.08854 0.000005-0.17318-0.0091-0.25391-0.02734-0.07813-0.02083-0.14714-0.05338-0.20703-0.09766-0.05729-0.04687-0.10286-0.10807-0.13672-0.18359-0.03385-0.07551-0.05078-0.16796-0.05078-0.27734m1.2422 5.4961h-1.1914v-4.3672h1.1914v4.3672"/>
   <path id="path3733" d="m58.405 16.536h-1.1914v-2.5508c-0.000003-0.3151-0.04818-0.55078-0.14453-0.70703-0.09375-0.15885-0.2448-0.23828-0.45312-0.23828-0.15625 0.000004-0.28646 0.03125-0.39062 0.09375-0.10417 0.0625-0.1875 0.15495-0.25 0.27734-0.0599 0.1224-0.10287 0.27344-0.12891 0.45312-0.02604 0.17969-0.03906 0.38542-0.03906 0.61719v2.0547h-1.1914v-4.3672h0.91016l0.16016 0.55859h0.06641c0.0625-0.11198 0.13802-0.20833 0.22656-0.28906 0.09114-0.08073 0.1901-0.14713 0.29688-0.19922 0.10677-0.05208 0.22005-0.08984 0.33984-0.11328 0.11979-0.02604 0.24218-0.03906 0.36719-0.03906 0.21354 0.000005 0.40755 0.03125 0.58203 0.09375 0.17448 0.0599 0.32422 0.15495 0.44922 0.28516s0.22135 0.29688 0.28906 0.5c0.0677 0.20052 0.10156 0.44141 0.10156 0.72266v2.8477"/>
   <path id="path3735" d="m60.917 16.614c-0.22396 0-0.42839-0.04818-0.61328-0.14453-0.1849-0.09635-0.34375-0.23828-0.47656-0.42578-0.13281-0.1901-0.23698-0.42578-0.3125-0.70703-0.07292-0.28125-0.10938-0.60677-0.10938-0.97656 0-0.375 0.03646-0.70312 0.10938-0.98438 0.07552-0.28385 0.18099-0.52083 0.31641-0.71094 0.13802-0.1927 0.30208-0.33724 0.49219-0.43359 0.1901-0.09635 0.39974-0.14453 0.62891-0.14453 0.14062 0.000005 0.26953 0.01693 0.38672 0.05078 0.11718 0.03125 0.22265 0.07683 0.31641 0.13672 0.09375 0.0573 0.17708 0.125 0.25 0.20312 0.07552 0.07553 0.14192 0.15886 0.19922 0.25h0.03906c-0.01563-0.10156-0.02995-0.20442-0.04297-0.30859-0.01302-0.08854-0.02474-0.18229-0.03516-0.28125-0.0078-0.10156-0.01172-0.19531-0.01172-0.28125v-1.3984h1.1914v6.0781h-0.91016l-0.23047-0.56641h-0.05078c-0.05469 0.08854-0.11719 0.17318-0.1875 0.25391-0.07032 0.07813-0.15235 0.14583-0.24609 0.20312-0.09115 0.05729-0.19532 0.10286-0.3125 0.13672-0.11459 0.03385-0.24479 0.05078-0.39062 0.05078m0.43359-0.94922c0.14062 0.000001 0.26041-0.02344 0.35938-0.07031 0.09896-0.04948 0.17838-0.1224 0.23828-0.21875 0.0625-0.09896 0.10807-0.22135 0.13672-0.36719 0.03125-0.14583 0.04817-0.3164 0.05078-0.51172v-0.12891c-0.000003-0.21094-0.01302-0.39843-0.03906-0.5625-0.02604-0.16406-0.06901-0.30078-0.12891-0.41016-0.0599-0.11198-0.14063-0.19661-0.24219-0.25391-0.10156-0.05729-0.22917-0.08593-0.38281-0.08594-0.25 0.000004-0.4336 0.11328-0.55078 0.33984-0.11719 0.22396-0.17578 0.55078-0.17578 0.98047-0.000002 0.42969 0.05859 0.75261 0.17578 0.96875 0.11979 0.21354 0.30599 0.32031 0.55859 0.32031"/>
   <path id="path3737" d="m65.483 14.344c-0.000001 0.4349 0.0612 0.76302 0.18359 0.98438 0.12239 0.21875 0.32161 0.32813 0.59766 0.32812 0.27344 0.000001 0.47135-0.11068 0.59375-0.33203 0.12239-0.22135 0.18359-0.54818 0.18359-0.98047-0.000003-0.43489-0.0612-0.75911-0.18359-0.97266-0.1224-0.21614-0.32292-0.32422-0.60156-0.32422-0.27344 0.000003-0.47136 0.10808-0.59375 0.32422-0.11979 0.21354-0.17969 0.53776-0.17969 0.97266m2.7734 0c-0.000005 0.36458-0.04688 0.6875-0.14062 0.96875-0.09115 0.28125-0.22396 0.51823-0.39844 0.71094-0.17188 0.19271-0.38282 0.33984-0.63281 0.44141-0.2474 0.09896-0.52604 0.14844-0.83594 0.14844-0.28906 0-0.55469-0.04948-0.79688-0.14844-0.24219-0.10156-0.45182-0.2487-0.62891-0.44141-0.17448-0.19271-0.3112-0.42969-0.41016-0.71094s-0.14844-0.60416-0.14844-0.96875c0-0.36198 0.04557-0.68359 0.13672-0.96484 0.09375-0.28125 0.22656-0.51692 0.39844-0.70703 0.17448-0.1927 0.38542-0.33854 0.63281-0.4375 0.24739-0.09895 0.52734-0.14843 0.83984-0.14844 0.28906 0.000005 0.55468 0.04948 0.79688 0.14844 0.24218 0.09896 0.45052 0.2448 0.625 0.4375 0.17708 0.19011 0.3151 0.42578 0.41406 0.70703 0.09895 0.28125 0.14843 0.60287 0.14844 0.96484"/>
   <path id="path3739" d="m72.624 16.536-0.33594-1.5273c-0.01042-0.04427-0.02474-0.10677-0.04297-0.1875-0.01563-0.08333-0.03386-0.17578-0.05469-0.27734-0.02084-0.10416-0.04297-0.21354-0.06641-0.32812-0.02084-0.11718-0.04297-0.23307-0.06641-0.34766-0.05209-0.26823-0.10938-0.55729-0.17188-0.86719h-0.02344c-0.0599 0.3099-0.11459 0.60026-0.16406 0.87109-0.02084 0.11459-0.04297 0.23047-0.06641 0.34766-0.02084 0.11719-0.04167 0.22787-0.0625 0.33203-0.02084 0.10156-0.04037 0.19401-0.05859 0.27734-0.01563 0.08333-0.02865 0.14844-0.03906 0.19531l-0.35156 1.5117h-1.2812l-1.1758-4.3672h1.1836l0.44141 1.9336c0.02344 0.10156 0.04687 0.22396 0.07031 0.36719 0.02604 0.14063 0.04948 0.28386 0.07031 0.42969 0.02343 0.14323 0.04427 0.27995 0.0625 0.41016 0.01823 0.1276 0.03255 0.22917 0.04297 0.30469h0.02344c0.0026-0.04948 0.0078-0.11328 0.01563-0.19141 0.01041-0.08073 0.02213-0.16666 0.03516-0.25781 0.01302-0.09114 0.02604-0.18359 0.03906-0.27734 0.01562-0.09635 0.02995-0.1862 0.04297-0.26953 0.01562-0.08333 0.02864-0.15625 0.03906-0.21875 0.01302-0.0651 0.02343-0.11067 0.03125-0.13672l0.47656-2.0938h1.3125l0.45703 2.0938c0.01302 0.05729 0.02994 0.14584 0.05078 0.26562 0.02083 0.11979 0.04166 0.2487 0.0625 0.38672 0.02343 0.13542 0.04296 0.26823 0.05859 0.39844 0.01562 0.1276 0.02473 0.22787 0.02734 0.30078h0.02344c0.0078-0.0651 0.02083-0.16146 0.03906-0.28906 0.02083-0.1276 0.04296-0.26432 0.06641-0.41016 0.02343-0.14844 0.04817-0.29557 0.07422-0.44141 0.02864-0.14583 0.05468-0.26953 0.07813-0.37109l0.45703-1.9336h1.168l-1.1914 4.3672h-1.2969"/>
  </g>
  <g id="text3686" style="fill:#ececec" transform="matrix(.64183 0 0 .64183 23.906 4.359)">
   <path id="path3691" style="fill:#ececec" d="m19.026 14.95c-0.000004 0.25521-0.04427 0.48568-0.13281 0.69141-0.08594 0.20313-0.21354 0.3776-0.38281 0.52344-0.16667 0.14323-0.3724 0.25391-0.61719 0.33203-0.24219 0.07813-0.52084 0.11719-0.83594 0.11719-0.27604 0-0.54297-0.02865-0.80078-0.08594-0.25521-0.05729-0.49219-0.14323-0.71094-0.25781v-1.125c0.125 0.0599 0.2513 0.11849 0.37891 0.17578 0.1276 0.05469 0.25651 0.10417 0.38672 0.14844 0.13281 0.04427 0.26432 0.07943 0.39453 0.10547 0.13281 0.02604 0.26432 0.03906 0.39453 0.03906 0.13281 0.000001 0.24609-0.01432 0.33984-0.04297 0.09635-0.03125 0.17318-0.07292 0.23047-0.125 0.05989-0.05469 0.10286-0.11849 0.12891-0.19141 0.02864-0.07552 0.04297-0.15755 0.04297-0.24609-0.000002-0.10677-0.02344-0.20052-0.07031-0.28125-0.04427-0.08333-0.10808-0.16015-0.19141-0.23047-0.08073-0.07292-0.17969-0.14323-0.29688-0.21094-0.11458-0.06771-0.24349-0.13932-0.38672-0.21484-0.11979-0.0625-0.25391-0.13802-0.40234-0.22656-0.14844-0.08854-0.28906-0.19791-0.42188-0.32812-0.13021-0.13281-0.23958-0.29166-0.32812-0.47656-0.08854-0.1875-0.13281-0.41145-0.13281-0.67188 0-0.2552 0.04167-0.48307 0.125-0.68359 0.08594-0.20312 0.20703-0.37369 0.36328-0.51172 0.15625-0.14062 0.34505-0.24739 0.56641-0.32031 0.22396-0.07291 0.47396-0.10937 0.75-0.10938 0.13802 0.000006 0.27213 0.0091 0.40234 0.02734 0.13281 0.01824 0.26302 0.04428 0.39062 0.07813 0.1302 0.03386 0.26041 0.07553 0.39062 0.125 0.1302 0.04949 0.26432 0.10678 0.40234 0.17188l-0.39062 0.94141c-0.11719-0.05468-0.22656-0.10286-0.32812-0.14453-0.10156-0.04166-0.20052-0.07682-0.29688-0.10547-0.09636-0.02864-0.19141-0.04947-0.28516-0.0625-0.09115-0.01562-0.1836-0.02343-0.27734-0.02344-0.20313 0.000005-0.35938 0.05469-0.46875 0.16406-0.10677 0.10678-0.16016 0.25-0.16016 0.42969-0.000001 0.09636 0.01562 0.1823 0.04687 0.25781 0.03385 0.07292 0.08594 0.14193 0.15625 0.20703 0.07292 0.06511 0.16536 0.13151 0.27734 0.19922 0.11458 0.06771 0.2526 0.14454 0.41406 0.23047 0.19531 0.10417 0.375 0.21094 0.53906 0.32031 0.16406 0.10677 0.30468 0.22656 0.42188 0.35938 0.11979 0.13021 0.21224 0.27865 0.27734 0.44531 0.0651 0.16667 0.09765 0.36198 0.09766 0.58594"/>
   <path id="path3693" style="fill:#ececec" d="m19.366 12.169h1.3047l0.70312 2.457c0.04167 0.13542 0.07161 0.27995 0.08984 0.43359 0.02083 0.15365 0.03385 0.29167 0.03906 0.41406h0.02344c0.0052-0.05989 0.01172-0.1263 0.01953-0.19922 0.01042-0.07292 0.02213-0.14713 0.03516-0.22266 0.01302-0.07552 0.02734-0.14974 0.04297-0.22266 0.01823-0.07552 0.03646-0.14323 0.05469-0.20312l0.6875-2.457h1.3125l-1.7266 4.9258c-0.16146 0.46094-0.38151 0.80338-0.66016 1.0273-0.27865 0.22396-0.6276 0.33594-1.0469 0.33594-0.13542-0.000002-0.2526-0.0078-0.35156-0.02344-0.09896-0.01302-0.18359-0.02735-0.25391-0.04297v-0.94531c0.05469 0.01302 0.1237 0.02474 0.20703 0.03516 0.08333 0.01041 0.17057 0.01562 0.26172 0.01563 0.125-0.000001 0.23177-0.01693 0.32031-0.05078s0.16406-0.08203 0.22656-0.14453c0.0651-0.0599 0.11979-0.13281 0.16406-0.21875 0.04687-0.08594 0.08724-0.18229 0.12109-0.28906l0.07422-0.21875-1.6484-4.4062"/>
   <path id="path3695" style="fill:#ececec" d="m27.214 15.239c-0.000004 0.22917-0.04167 0.42969-0.125 0.60156-0.08334 0.17188-0.20183 0.3151-0.35547 0.42969-0.15365 0.11458-0.33985 0.20052-0.55859 0.25781-0.21875 0.05729-0.46354 0.08594-0.73438 0.08594-0.14323 0-0.27604-0.0052-0.39844-0.01563-0.1224-0.0078-0.23828-0.02214-0.34766-0.04297s-0.21484-0.04687-0.31641-0.07813c-0.10156-0.03125-0.20443-0.07031-0.30859-0.11719v-0.98438c0.10937 0.05469 0.22396 0.10417 0.34375 0.14844 0.1224 0.04427 0.24349 0.08333 0.36328 0.11719 0.11979 0.03125 0.23568 0.05599 0.34766 0.07422 0.11458 0.01823 0.22005 0.02734 0.31641 0.02734 0.10677 0.000001 0.19792-0.0091 0.27344-0.02734 0.07552-0.02083 0.13672-0.04818 0.18359-0.08203 0.04948-0.03646 0.08463-0.07812 0.10547-0.125 0.02344-0.04948 0.03515-0.10156 0.03516-0.15625-0.000003-0.05469-0.0091-0.10286-0.02734-0.14453-0.01563-0.04427-0.05339-0.08984-0.11328-0.13672-0.0599-0.04948-0.14844-0.10416-0.26562-0.16406-0.11458-0.0625-0.26953-0.13802-0.46484-0.22656-0.1901-0.08593-0.35547-0.17057-0.49609-0.25391-0.13802-0.08593-0.2526-0.18099-0.34375-0.28516-0.08854-0.10416-0.15495-0.22265-0.19922-0.35547-0.04427-0.13541-0.06641-0.29557-0.06641-0.48047 0-0.20312 0.03906-0.3802 0.11719-0.53125 0.07812-0.15364 0.1888-0.28125 0.33203-0.38281s0.3151-0.17708 0.51562-0.22656c0.20312-0.05208 0.42838-0.07812 0.67578-0.07813 0.26042 0.000005 0.50781 0.02995 0.74219 0.08984 0.23437 0.0599 0.47526 0.14974 0.72266 0.26953l-0.35938 0.84375c-0.19792-0.09375-0.38672-0.17057-0.56641-0.23047-0.17969-0.05989-0.35938-0.08984-0.53906-0.08984-0.16146 0.000004-0.27865 0.02865-0.35156 0.08594-0.07031 0.0573-0.10547 0.13542-0.10547 0.23438-0.000002 0.05209 0.0091 0.09896 0.02734 0.14062 0.01823 0.03907 0.05469 0.08073 0.10938 0.125 0.05468 0.04167 0.13151 0.08854 0.23047 0.14062 0.09896 0.04948 0.22786 0.11068 0.38672 0.18359 0.18489 0.08073 0.35156 0.16146 0.5 0.24219 0.14844 0.07813 0.27604 0.16797 0.38281 0.26953s0.1888 0.22005 0.24609 0.35547 0.08593 0.29948 0.08594 0.49219"/>
   <path id="path3697" style="fill:#ececec" d="m29.921 15.665c0.11718 0.000001 0.22786-0.01302 0.33203-0.03906 0.10677-0.02604 0.21484-0.05859 0.32422-0.09766v0.88672c-0.11198 0.05729-0.2513 0.10417-0.41797 0.14062-0.16406 0.03906-0.34375 0.05859-0.53906 0.05859-0.19011 0-0.36719-0.02214-0.53125-0.06641s-0.30599-0.12109-0.42578-0.23047c-0.11979-0.11198-0.21484-0.26042-0.28516-0.44531-0.06771-0.1875-0.10156-0.42187-0.10156-0.70312v-2.1055h-0.57031v-0.50391l0.65625-0.39844 0.34375-0.92188h0.76172v0.92969h1.0625v0.89453h-1.0625v2.1055c-0.000002 0.16927 0.04167 0.29427 0.125 0.375s0.19271 0.12109 0.32812 0.12109"/>
   <path id="path3699" style="fill:#ececec" d="m33.225 12.934c-0.21094 0.000003-0.38672 0.07422-0.52734 0.22266-0.13802 0.14844-0.21745 0.38151-0.23828 0.69922h1.5195c-0.0026-0.13281-0.01953-0.25521-0.05078-0.36719s-0.07813-0.20833-0.14062-0.28906c-0.0625-0.08333-0.14063-0.14843-0.23438-0.19531-0.09375-0.04687-0.20313-0.07031-0.32812-0.07031m0.15234 3.6797c-0.3125 0-0.60026-0.04557-0.86328-0.13672-0.26302-0.09114-0.48958-0.22786-0.67969-0.41016-0.1901-0.1849-0.33854-0.41667-0.44531-0.69531-0.10417-0.28125-0.15625-0.61068-0.15625-0.98828 0-0.38281 0.04818-0.71744 0.14453-1.0039s0.23047-0.52474 0.40234-0.71484c0.17448-0.1927 0.38281-0.33724 0.625-0.43359 0.24479-0.09635 0.51562-0.14453 0.8125-0.14453 0.28906 0.000005 0.54948 0.04428 0.78125 0.13281 0.23437 0.08594 0.43229 0.21355 0.59375 0.38281 0.16406 0.16928 0.28906 0.37761 0.375 0.625 0.08854 0.2448 0.13281 0.52604 0.13281 0.84375v0.57812h-2.6641c0.0052 0.16667 0.03125 0.31771 0.07813 0.45312 0.04948 0.13281 0.11719 0.2461 0.20312 0.33984 0.08854 0.09115 0.19401 0.16146 0.31641 0.21094 0.125 0.04948 0.26692 0.07422 0.42578 0.07422 0.13281 0.000001 0.25781-0.0065 0.375-0.01953 0.11979-0.01562 0.23567-0.03776 0.34766-0.06641 0.11198-0.02865 0.22265-0.0638 0.33203-0.10547 0.10937-0.04427 0.22135-0.09505 0.33594-0.15234v0.92188c-0.10417 0.05469-0.20964 0.10156-0.31641 0.14062-0.10417 0.03646-0.21485 0.06771-0.33203 0.09375-0.11719 0.02604-0.24349 0.04427-0.37891 0.05469-0.13542 0.01302-0.28386 0.01953-0.44531 0.01953"/>
   <path id="path3701" style="fill:#ececec" d="m39.866 16.536h-1.1914v-2.5508c-0.000003-0.3151-0.04688-0.55078-0.14062-0.70703-0.09375-0.15885-0.24089-0.23828-0.44141-0.23828-0.15104 0.000004-0.27735 0.03125-0.37891 0.09375-0.09896 0.0625-0.17839 0.15495-0.23828 0.27734-0.0599 0.1224-0.10287 0.27344-0.12891 0.45312-0.02604 0.17969-0.03906 0.38542-0.03906 0.61719v2.0547h-1.1914v-4.3672h0.91016l0.16016 0.55859h0.06641c0.0625-0.11198 0.13672-0.20833 0.22266-0.28906 0.08854-0.08073 0.18489-0.14713 0.28906-0.19922 0.10416-0.05208 0.21484-0.08984 0.33203-0.11328 0.11718-0.02604 0.23568-0.03906 0.35547-0.03906 0.29948 0.000005 0.55338 0.05209 0.76172 0.15625 0.21093 0.10157 0.37239 0.26302 0.48438 0.48438h0.09766c0.0625-0.11198 0.13802-0.20833 0.22656-0.28906s0.18619-0.14713 0.29297-0.19922c0.10677-0.05208 0.21874-0.08984 0.33594-0.11328 0.11979-0.02604 0.23958-0.03906 0.35938-0.03906 0.46874 0.000005 0.82161 0.12761 1.0586 0.38281 0.23958 0.25261 0.35937 0.65886 0.35938 1.2188v2.8477h-1.1953v-2.5508c-0.000005-0.3151-0.04688-0.55078-0.14062-0.70703-0.09376-0.15885-0.24089-0.23828-0.44141-0.23828-0.28386 0.000004-0.48568 0.11328-0.60547 0.33984-0.1198 0.22396-0.17969 0.54558-0.17969 0.96484v2.1914"/>
   <path id="path3703" style="fill:#ececec" d="m49.061 16.536-0.33594-1.5273c-0.01042-0.04427-0.02474-0.10677-0.04297-0.1875-0.01563-0.08333-0.03386-0.17578-0.05469-0.27734-0.02084-0.10416-0.04297-0.21354-0.06641-0.32812-0.02084-0.11718-0.04297-0.23307-0.06641-0.34766-0.05209-0.26823-0.10938-0.55729-0.17188-0.86719h-0.02344c-0.0599 0.3099-0.11459 0.60026-0.16406 0.87109-0.02084 0.11459-0.04297 0.23047-0.06641 0.34766-0.02084 0.11719-0.04167 0.22787-0.0625 0.33203-0.02084 0.10156-0.04037 0.19401-0.05859 0.27734-0.01563 0.08333-0.02865 0.14844-0.03906 0.19531l-0.35156 1.5117h-1.2812l-1.1758-4.3672h1.1836l0.44141 1.9336c0.02344 0.10156 0.04687 0.22396 0.07031 0.36719 0.02604 0.14063 0.04948 0.28386 0.07031 0.42969 0.02343 0.14323 0.04427 0.27995 0.0625 0.41016 0.01823 0.1276 0.03255 0.22917 0.04297 0.30469h0.02344c0.0026-0.04948 0.0078-0.11328 0.01563-0.19141 0.01042-0.08073 0.02213-0.16666 0.03516-0.25781 0.01302-0.09114 0.02604-0.18359 0.03906-0.27734 0.01562-0.09635 0.02995-0.1862 0.04297-0.26953 0.01562-0.08333 0.02864-0.15625 0.03906-0.21875 0.01302-0.0651 0.02343-0.11067 0.03125-0.13672l0.47656-2.0938h1.3125l0.45703 2.0938c0.01302 0.05729 0.02994 0.14584 0.05078 0.26562 0.02083 0.11979 0.04166 0.2487 0.0625 0.38672 0.02343 0.13542 0.04296 0.26823 0.05859 0.39844 0.01562 0.1276 0.02473 0.22787 0.02734 0.30078h0.02344c0.0078-0.0651 0.02083-0.16146 0.03906-0.28906 0.02083-0.1276 0.04297-0.26432 0.06641-0.41016 0.02343-0.14844 0.04817-0.29557 0.07422-0.44141 0.02864-0.14583 0.05468-0.26953 0.07813-0.37109l0.45703-1.9336h1.168l-1.1914 4.3672h-1.2969"/>
   <path id="path3705" style="fill:#ececec" d="m52.128 11.04c0-0.11197 0.01693-0.20442 0.05078-0.27734 0.03385-0.07551 0.07943-0.13541 0.13672-0.17969 0.0599-0.04687 0.12891-0.07942 0.20703-0.09766 0.08073-0.01822 0.16536-0.02734 0.25391-0.02734 0.08854 0.000006 0.17187 0.0091 0.25 0.02734 0.07812 0.01823 0.14583 0.05079 0.20312 0.09766 0.05989 0.04428 0.10677 0.10417 0.14062 0.17969 0.03646 0.07292 0.05469 0.16537 0.05469 0.27734-0.000001 0.10938-0.01823 0.20183-0.05469 0.27734-0.03386 0.07553-0.08073 0.13672-0.14062 0.18359-0.05729 0.04428-0.125 0.07683-0.20312 0.09766-0.07813 0.01823-0.16146 0.02735-0.25 0.02734-0.08854 0.000005-0.17318-0.0091-0.25391-0.02734-0.07813-0.02083-0.14714-0.05338-0.20703-0.09766-0.05729-0.04687-0.10286-0.10807-0.13672-0.18359-0.03385-0.07551-0.05078-0.16796-0.05078-0.27734m1.2422 5.4961h-1.1914v-4.3672h1.1914v4.3672"/>
   <path id="path3707" style="fill:#ececec" d="m58.405 16.536h-1.1914v-2.5508c-0.000003-0.3151-0.04818-0.55078-0.14453-0.70703-0.09375-0.15885-0.2448-0.23828-0.45312-0.23828-0.15625 0.000004-0.28646 0.03125-0.39062 0.09375-0.10417 0.0625-0.1875 0.15495-0.25 0.27734-0.0599 0.1224-0.10287 0.27344-0.12891 0.45312-0.02604 0.17969-0.03906 0.38542-0.03906 0.61719v2.0547h-1.1914v-4.3672h0.91016l0.16016 0.55859h0.06641c0.0625-0.11198 0.13802-0.20833 0.22656-0.28906 0.09114-0.08073 0.1901-0.14713 0.29688-0.19922 0.10677-0.05208 0.22005-0.08984 0.33984-0.11328 0.11979-0.02604 0.24218-0.03906 0.36719-0.03906 0.21354 0.000005 0.40755 0.03125 0.58203 0.09375 0.17448 0.0599 0.32422 0.15495 0.44922 0.28516s0.22135 0.29688 0.28906 0.5c0.0677 0.20052 0.10156 0.44141 0.10156 0.72266v2.8477"/>
   <path id="path3709" style="fill:#ececec" d="m60.917 16.614c-0.22396 0-0.42839-0.04818-0.61328-0.14453-0.1849-0.09635-0.34375-0.23828-0.47656-0.42578-0.13281-0.1901-0.23698-0.42578-0.3125-0.70703-0.07292-0.28125-0.10938-0.60677-0.10938-0.97656 0-0.375 0.03646-0.70312 0.10938-0.98438 0.07552-0.28385 0.18099-0.52083 0.31641-0.71094 0.13802-0.1927 0.30208-0.33724 0.49219-0.43359 0.1901-0.09635 0.39974-0.14453 0.62891-0.14453 0.14062 0.000005 0.26953 0.01693 0.38672 0.05078 0.11718 0.03125 0.22265 0.07683 0.31641 0.13672 0.09375 0.0573 0.17708 0.125 0.25 0.20312 0.07552 0.07553 0.14192 0.15886 0.19922 0.25h0.03906c-0.01563-0.10156-0.02995-0.20442-0.04297-0.30859-0.01302-0.08854-0.02474-0.18229-0.03516-0.28125-0.0078-0.10156-0.01172-0.19531-0.01172-0.28125v-1.3984h1.1914v6.0781h-0.91016l-0.23047-0.56641h-0.05078c-0.05469 0.08854-0.11719 0.17318-0.1875 0.25391-0.07032 0.07813-0.15235 0.14583-0.24609 0.20312-0.09115 0.05729-0.19532 0.10286-0.3125 0.13672-0.11459 0.03385-0.24479 0.05078-0.39062 0.05078m0.43359-0.94922c0.14062 0.000001 0.26041-0.02344 0.35938-0.07031 0.09896-0.04948 0.17838-0.1224 0.23828-0.21875 0.0625-0.09896 0.10807-0.22135 0.13672-0.36719 0.03125-0.14583 0.04817-0.3164 0.05078-0.51172v-0.12891c-0.000003-0.21094-0.01302-0.39843-0.03906-0.5625-0.02604-0.16406-0.06901-0.30078-0.12891-0.41016-0.0599-0.11198-0.14063-0.19661-0.24219-0.25391-0.10156-0.05729-0.22917-0.08593-0.38281-0.08594-0.25 0.000004-0.4336 0.11328-0.55078 0.33984-0.11719 0.22396-0.17578 0.55078-0.17578 0.98047-0.000002 0.42969 0.05859 0.75261 0.17578 0.96875 0.11979 0.21354 0.30599 0.32031 0.55859 0.32031"/>
   <path id="path3711" style="fill:#ececec" d="m65.483 14.344c-0.000001 0.4349 0.0612 0.76302 0.18359 0.98438 0.12239 0.21875 0.32161 0.32813 0.59766 0.32812 0.27344 0.000001 0.47135-0.11068 0.59375-0.33203 0.12239-0.22135 0.18359-0.54818 0.18359-0.98047-0.000003-0.43489-0.0612-0.75911-0.18359-0.97266-0.1224-0.21614-0.32292-0.32422-0.60156-0.32422-0.27344 0.000003-0.47136 0.10808-0.59375 0.32422-0.11979 0.21354-0.17969 0.53776-0.17969 0.97266m2.7734 0c-0.000005 0.36458-0.04688 0.6875-0.14062 0.96875-0.09115 0.28125-0.22396 0.51823-0.39844 0.71094-0.17188 0.19271-0.38282 0.33984-0.63281 0.44141-0.2474 0.09896-0.52604 0.14844-0.83594 0.14844-0.28906 0-0.55469-0.04948-0.79688-0.14844-0.24219-0.10156-0.45182-0.2487-0.62891-0.44141-0.17448-0.19271-0.3112-0.42969-0.41016-0.71094s-0.14844-0.60416-0.14844-0.96875c0-0.36198 0.04557-0.68359 0.13672-0.96484 0.09375-0.28125 0.22656-0.51692 0.39844-0.70703 0.17448-0.1927 0.38542-0.33854 0.63281-0.4375 0.24739-0.09895 0.52734-0.14843 0.83984-0.14844 0.28906 0.000005 0.55468 0.04948 0.79688 0.14844 0.24218 0.09896 0.45052 0.2448 0.625 0.4375 0.17708 0.19011 0.3151 0.42578 0.41406 0.70703 0.09895 0.28125 0.14843 0.60287 0.14844 0.96484"/>
   <path id="path3713" style="fill:#ececec" d="m72.624 16.536-0.33594-1.5273c-0.01042-0.04427-0.02474-0.10677-0.04297-0.1875-0.01563-0.08333-0.03386-0.17578-0.05469-0.27734-0.02084-0.10416-0.04297-0.21354-0.06641-0.32812-0.02084-0.11718-0.04297-0.23307-0.06641-0.34766-0.05209-0.26823-0.10938-0.55729-0.17188-0.86719h-0.02344c-0.0599 0.3099-0.11459 0.60026-0.16406 0.87109-0.02084 0.11459-0.04297 0.23047-0.06641 0.34766-0.02084 0.11719-0.04167 0.22787-0.0625 0.33203-0.02084 0.10156-0.04037 0.19401-0.05859 0.27734-0.01563 0.08333-0.02865 0.14844-0.03906 0.19531l-0.35156 1.5117h-1.2812l-1.1758-4.3672h1.1836l0.44141 1.9336c0.02344 0.10156 0.04687 0.22396 0.07031 0.36719 0.02604 0.14063 0.04948 0.28386 0.07031 0.42969 0.02343 0.14323 0.04427 0.27995 0.0625 0.41016 0.01823 0.1276 0.03255 0.22917 0.04297 0.30469h0.02344c0.0026-0.04948 0.0078-0.11328 0.01563-0.19141 0.01041-0.08073 0.02213-0.16666 0.03516-0.25781 0.01302-0.09114 0.02604-0.18359 0.03906-0.27734 0.01562-0.09635 0.02995-0.1862 0.04297-0.26953 0.01562-0.08333 0.02864-0.15625 0.03906-0.21875 0.01302-0.0651 0.02343-0.11067 0.03125-0.13672l0.47656-2.0938h1.3125l0.45703 2.0938c0.01302 0.05729 0.02994 0.14584 0.05078 0.26562 0.02083 0.11979 0.04166 0.2487 0.0625 0.38672 0.02343 0.13542 0.04296 0.26823 0.05859 0.39844 0.01562 0.1276 0.02473 0.22787 0.02734 0.30078h0.02344c0.0078-0.0651 0.02083-0.16146 0.03906-0.28906 0.02083-0.1276 0.04296-0.26432 0.06641-0.41016 0.02343-0.14844 0.04817-0.29557 0.07422-0.44141 0.02864-0.14583 0.05468-0.26953 0.07813-0.37109l0.45703-1.9336h1.168l-1.1914 4.3672h-1.2969"/>
  </g>
  <path id="path3882" style="opacity:.05;fill:url(#linearGradient3188)" d="m12 6c-3.324 0-6 2.676-6 6v2 6h1v-5-2c0-2.782 2.2182-5 5-5h2 68 2c2.7818 0 5 2.2182 5 5v2 5h1v-6-2c0-3.324-2.676-6-6-6h-72z"/>
  <path id="path3948" style="color:#000000;fill:url(#linearGradient3959)" d="m13 9.1875c-2.0882 0-3.8125 1.7243-3.8125 3.8125s1.7243 3.8125 3.8125 3.8125 3.8125-1.7243 3.8125-3.8125-1.7243-3.8125-3.8125-3.8125z" transform="matrix(0 -.83333 .83333 0 3.1667 23.333)"/>
  <path id="path3889" style="color:#000000;fill:url(#linearGradient3924)" d="m16 13a3 3 0 1 1 -6 0 3 3 0 1 1 6 0z" transform="matrix(0 -.83333 .83333 0 3.1667 23.333)"/>
  <rect id="rect3897" style="color:#000000;fill:url(#linearGradient3950)" transform="matrix(0,1,1,0,0,0)" height="16" width="16" y="-27" x="7"/>
  <rect id="rect3911" style="color:#000000;fill:url(#linearGradient3913)" transform="rotate(-90)" height="16" width="16" y="-27" x="-47"/>
  <path id="path3935" style="opacity:.2;color:#000000;fill:#fff" d="m14 10c-1.3807 0-2.5 1.1193-2.5 2.5 0 0.08629 0.02271 0.16596 0.03125 0.25 0.128-1.261 1.175-2.25 2.469-2.25 1.2944 0 2.3407 0.98936 2.4688 2.25 0.008-0.084 0.031-0.164 0.031-0.25 0-1.381-1.119-2.5-2.5-2.5z"/>
  <path id="path3961" style="color:#000000;fill:url(#linearGradient3959)" d="m13 9.1875c-2.0882 0-3.8125 1.7243-3.8125 3.8125s1.7243 3.8125 3.8125 3.8125 3.8125-1.7243 3.8125-3.8125-1.7243-3.8125-3.8125-3.8125z" transform="matrix(0 -.83333 .83333 0 9.1667 23.333)"/>
  <path id="path3963" style="color:#000000;fill:url(#linearGradient3969)" d="m16 13a3 3 0 1 1 -6 0 3 3 0 1 1 6 0z" transform="matrix(0 .83333 .83333 0 9.1667 1.6667)"/>
  <path id="path3965" style="opacity:.3;color:#000000;fill:#fff" d="m20 10c-1.3807 0-2.5 1.1193-2.5 2.5 0 0.08629 0.02272 0.16596 0.03125 0.25 0.128-1.261 1.175-2.25 2.469-2.25 1.2944 0 2.3407 0.98936 2.4688 2.25 0.008-0.084 0.031-0.164 0.031-0.25 0-1.381-1.119-2.5-2.5-2.5z"/>
  <path id="path3971" style="color:#000000;fill:url(#linearGradient3959)" d="m13 9.1875c-2.0882 0-3.8125 1.7243-3.8125 3.8125s1.7243 3.8125 3.8125 3.8125 3.8125-1.7243 3.8125-3.8125-1.7243-3.8125-3.8125-3.8125z" transform="matrix(0 -.83333 .83333 0 15.167 23.333)"/>
  <path id="path3973" style="color:#000000;fill:url(#linearGradient3969)" d="m16 13a3 3 0 1 1 -6 0 3 3 0 1 1 6 0z" transform="matrix(0 .83333 .83333 0 15.167 1.6667)"/>
  <path id="path3975" style="opacity:.3;color:#000000;fill:#fff" d="m26 10c-1.3807 0-2.5 1.1193-2.5 2.5 0 0.08629 0.02272 0.16596 0.03125 0.25 0.128-1.261 1.175-2.25 2.469-2.25 1.2944 0 2.3407 0.98936 2.4688 2.25 0.008-0.084 0.031-0.164 0.031-0.25 0-1.381-1.119-2.5-2.5-2.5z"/>
  <path id="path3981" style="color:#000000;fill:url(#linearGradient3959)" d="m13 9.1875c-2.0882 0-3.8125 1.7243-3.8125 3.8125s1.7243 3.8125 3.8125 3.8125 3.8125-1.7243 3.8125-3.8125-1.7243-3.8125-3.8125-3.8125z" transform="matrix(0 -.83333 .83333 0 71.167 23.333)"/>
  <path id="path3983" style="color:#000000;fill:url(#linearGradient3989)" d="m16 13a3 3 0 1 1 -6 0 3 3 0 1 1 6 0z" transform="matrix(0 -.83333 .83333 0 71.167 23.333)"/>
  <path id="path3985" style="opacity:.2;color:#000000;fill:#fff" d="m82 10c-1.3807 0-2.5 1.1193-2.5 2.5 0 0.08629 0.02272 0.16596 0.03125 0.25 0.128-1.261 1.175-2.25 2.469-2.25 1.2944 0 2.3407 0.98936 2.4688 2.25 0.008-0.084 0.031-0.164 0.031-0.25 0-1.381-1.119-2.5-2.5-2.5z"/>
 </g>
 <g id="layer5" style="display:none">
  <rect id="rect3171" style="opacity:.1;filter:url(#filter3794);stroke:#fff;stroke-linecap:round;stroke-width:.5;fill:url(#linearGradient3613)" clip-path="url(#clipPath3613)" rx="12" ry="12" height="66" width="66" y="15" x="15"/>
 </g>
</svg>
