<?xml version="1.0" encoding="UTF-8" standalone="no"?>
<!-- Created with Inkscape (http://www.inkscape.org/) -->
<svg id="svg2408" xmlns:rdf="http://www.w3.org/1999/02/22-rdf-syntax-ns#" xmlns="http://www.w3.org/2000/svg" height="96" width="96" version="1.0" xmlns:cc="http://creativecommons.org/ns#" xmlns:xlink="http://www.w3.org/1999/xlink" xmlns:dc="http://purl.org/dc/elements/1.1/">
 <defs id="defs2410">
  <linearGradient id="linearGradient4384">
   <stop id="stop4386" style="stop-color:#fff" offset="0"/>
   <stop id="stop4388" style="stop-color:#fff;stop-opacity:0" offset="1"/>
  </linearGradient>
  <linearGradient id="ButtonShadow" y2="7.0165" gradientUnits="userSpaceOnUse" x2="45.448" gradientTransform="scale(1.0059 .99417)" y1="92.54" x1="45.448">
   <stop id="stop3750" offset="0"/>
   <stop id="stop3752" style="stop-opacity:.58824" offset="1"/>
  </linearGradient>
  <filter id="filter3174" color-interpolation-filters="sRGB">
   <feGaussianBlur id="feGaussianBlur3176" stdDeviation="1.71"/>
  </filter>
  <filter id="filter3794" height="1.384" width="1.384" color-interpolation-filters="sRGB" y="-.192" x="-.192">
   <feGaussianBlur id="feGaussianBlur3796" stdDeviation="5.28"/>
  </filter>
  <linearGradient id="linearGradient3613" y2="138.66" gradientUnits="userSpaceOnUse" x2="48" y1="20.221" x1="48">
   <stop id="stop3739" style="stop-color:#fff" offset="0"/>
   <stop id="stop3741" style="stop-color:#fff;stop-opacity:0" offset="1"/>
  </linearGradient>
  <linearGradient id="linearGradient3617" y2="5.9877" gradientUnits="userSpaceOnUse" x2="48" y1="90" x1="48">
   <stop id="stop3702-0" style="stop-color:#236f23" offset="0"/>
   <stop id="stop3704-4" style="stop-color:#61a939" offset="1"/>
  </linearGradient>
  <linearGradient id="ButtonShadow-0" y2="7.0165" gradientUnits="userSpaceOnUse" x2="45.448" gradientTransform="matrix(1.0059 0 0 .99417 100 0)" y1="92.54" x1="45.448">
   <stop id="stop3750-8" offset="0"/>
   <stop id="stop3752-5" style="stop-opacity:.58824" offset="1"/>
  </linearGradient>
  <linearGradient id="linearGradient3780" y2="90.239" xlink:href="#ButtonShadow-0" gradientUnits="userSpaceOnUse" x2="32.251" gradientTransform="matrix(1.0238 0 0 1.0119 -1.1429 -98.071)" y1="6.1317" x1="32.251"/>
  <linearGradient id="linearGradient3721" y2="90.239" xlink:href="#ButtonShadow-0" gradientUnits="userSpaceOnUse" x2="32.251" gradientTransform="translate(0,-97)" y1="6.1317" x1="32.251"/>
  <clipPath id="clipPath4355">
   <rect id="rect4357" style="fill:#fff" rx="6" ry="6" height="80" width="84" y="6" x="6"/>
  </clipPath>
  <radialGradient id="radialGradient4375" gradientUnits="userSpaceOnUse" cy="87.792" cx="48" gradientTransform="matrix(1 -6.7115e-8 8.4282e-8 1.2558 110 -24.506)" r="42">
   <stop id="stop4369" style="stop-color:#fff;stop-opacity:.71756" offset="0"/>
   <stop id="stop4371" style="stop-color:#fff" offset="1"/>
  </radialGradient>
  <linearGradient id="linearGradient4390" y2="-40" xlink:href="#linearGradient4384" gradientUnits="userSpaceOnUse" x2="48" gradientTransform="matrix(1,0,0,-1,0,92)" y1="88" x1="48"/>
  <linearGradient id="linearGradient4429" y2="82.455" xlink:href="#linearGradient4384" spreadMethod="reflect" gradientUnits="userSpaceOnUse" x2="112.12" y1="82" x1="48"/>
  <linearGradient id="linearGradient3870" y2="1033.4" spreadMethod="reflect" gradientUnits="userSpaceOnUse" x2="50" gradientTransform="translate(-2 -956.36)" y1="1033.4" x1="8">
   <stop id="stop3845" style="stop-color:#523823" offset="0"/>
   <stop id="stop3847" style="stop-color:#79563a" offset=".11780"/>
   <stop id="stop3849" style="stop-color:#875c38" offset=".23810"/>
   <stop id="stop3851" style="stop-color:#a66e40" offset="1"/>
  </linearGradient>
  <linearGradient id="linearGradient3149-4" y2="24" xlink:href="#linearGradient3714-0" gradientUnits="userSpaceOnUse" x2="48" gradientTransform="translate(4,-4)" y1="72" x1="48"/>
  <linearGradient id="linearGradient3714-0">
   <stop id="stop3716-9" style="stop-color:#d7d7d7" offset="0"/>
   <stop id="stop3718-1" style="stop-color:#c8c8c8" offset="1"/>
  </linearGradient>
  <radialGradient id="radialGradient3827-9" gradientUnits="userSpaceOnUse" cy="37" cx="57" gradientTransform="matrix(1.2 7.0503e-8 -6.0704e-8 1.0332 -7.4 -5.2294)" r="15">
   <stop id="stop3739-7-2" style="stop-color:#fff" offset="0"/>
   <stop id="stop3741-1-5" style="stop-color:#fff;stop-opacity:0" offset="1"/>
  </radialGradient>
  <linearGradient id="linearGradient3742-4" y2="22.999" xlink:href="#linearGradient3749-4" gradientUnits="userSpaceOnUse" x2="62.823" gradientTransform="matrix(1,0,0,-1,4,66)" y1="53.023" x1="62.823"/>
  <linearGradient id="linearGradient3749-4">
   <stop id="stop3751-9" style="stop-opacity:.52713" offset="0"/>
   <stop id="stop3757-9" style="stop-color:#7f7f7f;stop-opacity:0" offset=".5"/>
   <stop id="stop3753-3" style="stop-color:#fff" offset="1"/>
  </linearGradient>
  <linearGradient id="linearGradient3755-6" y2="32" xlink:href="#linearGradient3749-4" gradientUnits="userSpaceOnUse" x2="69.188" gradientTransform="matrix(.25882 .96593 -.96593 .25882 82.415 -42.192)" y1="32" x1="59"/>
  <linearGradient id="linearGradient3123-0" y2="39.496" gradientUnits="userSpaceOnUse" x2="59.504" gradientTransform="translate(3 -5)" y1="75" x1="24">
   <stop id="stop3815-0" style="stop-color:#666" offset="0"/>
   <stop id="stop3817-2" style="stop-color:#666;stop-opacity:0" offset="1"/>
  </linearGradient>
  <linearGradient id="linearGradient3127-9" y2="60" gradientUnits="userSpaceOnUse" x2="36" gradientTransform="translate(2 -4)" y1="58" x1="34">
   <stop id="stop3792-3" style="stop-color:#969696" offset="0"/>
   <stop id="stop3794-5" style="stop-color:#fff;stop-opacity:.79070" offset="1"/>
  </linearGradient>
  <linearGradient id="linearGradient3131-1" y2="24" xlink:href="#linearGradient3714-0" gradientUnits="userSpaceOnUse" x2="48" gradientTransform="translate(2 -4)" y1="72" x1="48"/>
  <linearGradient id="linearGradient4059-7" y2="-8" gradientUnits="userSpaceOnUse" x2="48" gradientTransform="translate(2 -4)" y1="72" x1="48">
   <stop id="stop4064-3" style="stop-color:#206520" offset="0"/>
   <stop id="stop4066-1" style="stop-color:#5a9d35" offset="1"/>
  </linearGradient>
 </defs>
 <metadata id="metadata2413">
  <rdf:RDF>
   <cc:Work rdf:about="">
    <dc:format>image/svg+xml</dc:format>
    <dc:type rdf:resource="http://purl.org/dc/dcmitype/StillImage"/>
    <dc:title/>
   </cc:Work>
  </rdf:RDF>
 </metadata>
 <g id="layer2" style="display:none">
  <rect id="rect3745" style="opacity:.9;filter:url(#filter3174);fill:url(#ButtonShadow)" rx="6" ry="6" height="85" width="86" y="7" x="5"/>
 </g>
 <g id="layer3">
  <path id="path3786" style="opacity:0.08;fill:url(#linearGradient3780)" d="m12-95.031c-5.5111 0-10.031 4.5202-10.031 10.031v71c0 5.5111 4.5202 10.031 10.031 10.031h72c5.5111 0 10.031-4.5202 10.031-10.031v-71c0-5.5111-4.5202-10.031-10.031-10.031h-72z" transform="scale(1,-1)"/>
  <path id="path3778" style="opacity:.1;fill:url(#linearGradient3780)" d="m12-94.031c-4.9716 0-9.0312 4.0596-9.0312 9.0312v71c0 4.9716 4.0596 9.0312 9.0312 9.0312h72c4.9716 0 9.0312-4.0596 9.0312-9.0312v-71c0-4.9716-4.0596-9.0312-9.0312-9.0312h-72z" transform="scale(1,-1)"/>
  <path id="path3770" style="opacity:.2;fill:url(#linearGradient3780)" d="m12-93c-4.4091 0-8 3.5909-8 8v71c0 4.4091 3.5909 8 8 8h72c4.4091 0 8-3.5909 8-8v-71c0-4.4091-3.5909-8-8-8h-72z" transform="scale(1,-1)"/>
  <rect id="rect3723" style="opacity:.3;fill:url(#linearGradient3780)" transform="scale(1,-1)" rx="7" ry="7" height="85" width="86" y="-92" x="5"/>
  <rect id="rect3716" style="opacity:.45;fill:url(#linearGradient3721)" transform="scale(1,-1)" rx="6" ry="6" height="84" width="84" y="-91" x="6"/>
 </g>
 <g id="layer4">
  <rect id="rect2841" style="color:#000000;fill:url(#linearGradient3870)" rx="6" ry="6" height="26" width="84" y="64" x="6"/>
  <path id="rect4345" style="opacity:.1;color:#000000" d="m6 82v2c0 3.324 2.676 6 6 6h72c3.324 0 6-2.676 6-6v-2c0 3.324-2.676 6-6 6h-72c-3.324 0-6-2.676-6-6z"/>
  <path id="rect4336" style="opacity:.1;color:#000000" d="m6 83v1c0 3.324 2.676 6 6 6h72c3.324 0 6-2.676 6-6v-1c0 3.324-2.676 6-6 6h-72c-3.324 0-6-2.676-6-6z"/>
  <path id="path4412" style="opacity:.2" d="m6 80v1c0 3.324 2.676 6 6 6h72c3.324 0 6-2.676 6-6v-1c0 3.324-2.676 6-6 6h-72c-3.324 0-6-2.676-6-6z"/>
 </g>
 <g id="layer1">
  <rect id="rect2419" style="fill:url(#linearGradient3617)" rx="6" ry="6" height="80" width="84" y="6" x="6"/>
  <path id="rect4359" style="opacity:.2;fill:url(#radialGradient4375)" d="m120.78 6.125c-2.74 0.5576-4.78 2.9665-4.78 5.875v68c0 3.324 2.676 6 6 6h72c3.324 0 6-2.676 6-6v-68c0-2.9085-2.0422-5.3174-4.7812-5.875 2.2051 0.53621 3.8125 2.4908 3.8125 4.875v68c0 2.8049-2.2264 5.0312-5.0312 5.0312h-72c-2.8049 0-5.0312-2.2264-5.0312-5.0312v-68c0-2.3842 1.6074-4.3388 3.8125-4.875z"/>
  <path id="rect4377" style="opacity:.3;fill:url(#linearGradient4390)" d="m12 86c-3.324 0-6-2.676-6-6v-68c0-3.324 2.676-6 6-6h72c3.324 0 6 2.676 6 6v68c0 3.324-2.676 6-6 6zm0-0.96875h72c2.8049 0 5.0312-2.2264 5.0312-5.0312v-68c0-2.8049-2.226-5.0312-5.031-5.0312h-72c-2.8049 0-5.0312 2.2263-5.0312 5.0312v68c0 2.8049 2.2264 5.0312 5.0312 5.0312z"/>
  <path id="rect4414" style="opacity:.1;fill:url(#linearGradient4429)" d="m6 78v2c0 3.324 2.676 6 6 6h72c3.324 0 6-2.676 6-6v-2c0 3.324-2.676 6-6 6h-72c-3.324 0-6-2.676-6-6z"/>
 </g>
 <g id="layer5">
  <rect id="rect3171" style="opacity:.1;filter:url(#filter3794);stroke:#fff;stroke-linecap:round;stroke-width:.5;fill:url(#linearGradient3613)" clip-path="url(#clipPath4355)" rx="12" ry="12" height="62" width="66" y="15" x="15"/>
 </g>
 <g id="layer6">
  <path id="path3974" style="opacity:.05" d="m65 14c-8.982-0.16712-16.995 7.0467-17.844 15.969-0.01487 0.03623-0.01725 0.06214-0.03125 0.125-0.01071 0.04807-0.02605 0.02935-0.03125 0.09375a1.0066 1.0066 0 0 0 0.031 0.312 1.0066 1.0066 0 0 0 0 0.09375c-0.31074 2.5129 0.20027 4.8128 0.5 6.5-8.624 8.631-17.303 17.235-25.906 25.906a1.0066 1.0066 0 0 0 0 0.03125c0.000093-0.000098-0.09384 0.09385-0.09375 0.09375 0.000086-0.000104-0.09383 0.09386-0.09375 0.09375 0.000079-0.00011-0.06257 0.12512-0.0625 0.125 0.000072-0.000115-0.06256 0.12512-0.0625 0.125 0.000064-0.000119-0.06256 0.12512-0.0625 0.125 0.000056-0.000123-0.06255 0.12513-0.0625 0.125 0.000047-0.000127-0.03129 0.12513-0.03125 0.125 0.000029-0.000099-0.0219 0.05784-0.03125 0.09375-0.0029 0.01105-0.000007 0.03128 0 0.03125-0.49834 2.0406-0.14063 3.8823-0.21875 5 0.000008-0.000126 0 0.12513 0 0.125 0-0.000126 0.000008 0.12513 0 0.125 0.06664 1.0897-0.22488 2.7779 0.1875 4.6875h-0.03125c-0.000023-0.000111 0.03128 0.09386 0.03125 0.09375s0.03129 0.12511 0.03125 0.125c-0.000036-0.000108 0.06254 0.09386 0.0625 0.09375-0.000042-0.000106 0.0313 0.09385 0.03125 0.09375-0.000048-0.000103 0.06255 0.1251 0.0625 0.125-0.000053-0.0001 0.03131 0.09385 0.03125 0.09375-0.000059-0.000097 0.06256 0.09384 0.0625 0.09375-0.000064-0.000094 0.09382 0.09384 0.09375 0.09375 0.92713 1.1824 2.3356 1.3369 3.1875 1.3125 0.39138-0.01121 0.74183-0.04421 1-0.0625s0.46586 0.02293 0.34375 0c0.01365 0.0031 0.03128 0.000007 0.03125 0-0.000109-0.000022 0.12511 0.03127 0.125 0.03125-0.00011-0.000016 0.09386 0.00001 0.09375 0-0.000111-0.00001 0.12511 0.000003 0.125 0a1.0066 1.0066 0 0 0 0.0625 0c1.7809-0.0716 3.915 0.19466 6.2188-0.125a1.0066 1.0066 0 0 0 0.03125 0c-0.000159 0.000023 0.15641-0.03129 0.15625-0.03125-0.000157 0.000036 0.1564-0.0313 0.15625-0.03125-0.000154 0.000048 0.12515-0.06256 0.125-0.0625-0.000149 0.00006 0.15639-0.06257 0.15625-0.0625-0.000144 0.000072 0.15639-0.09383 0.15625-0.09375-0.000138 0.000083 0.12513-0.09384 0.125-0.09375-0.000131 0.000094 0.12512-0.09385 0.125-0.09375-0.000103 0.000087 0.06711-0.06926 0.09375-0.09375h0.03125c0.68427-0.66157 1.8559-1.5387 2.7188-2.9375-0.000052 0.00007 0.04465-0.0373 0.0625-0.0625 0.0054-0.0076 0.000015-0.03127 0-0.03125-0.000063 0.000094 0.06256-0.09385 0.0625-0.09375a1.0066 1.0066 0 0 0 0.03125 -0.0625c0.22323-0.48307 0.18982-0.82284 0.1875-1.1562 0.15626-0.01003 0.22546 0.03096 0.40625 0 0.47603-0.08152 1.1355-0.28002 1.6875-0.78125 0.38689-0.35128 0.45158-0.8294 0.59375-1.2812a1.0066 1.0066 0 0 0 0.343 -0.655c0.0041-0.0338-0.000307-0.05381 0-0.09375 0.006-0.06115-0.0016-0.17204 0-0.15625 0.0055-0.10136 0.000109-0.12832 0-0.21875 0.89416-0.11041 1.6882-0.46908 2.375-1.125 0.0062-0.0059 0.02508 0.006 0.03125 0a1.0066 1.0066 0 0 0 0.5 -0.28125c0.0562-0.06242 0.0474-0.07175 0.0625-0.09375 0.16356-0.16567 0.65832-0.52774 1.1562-1.125 0.43956-0.52725 0.71033-1.3565 0.78125-2.25 1.2463-0.06742 2.2272-0.70424 2.7812-1.2812 0.56435-0.58768 1.101-1.1525 1.0625-1.125-0.000094 0.000063 0.09384-0.06257 0.09375-0.0625a1.0066 1.0066 0 0 0 0.095 -0.063c0.81041-0.74192 0.97939-1.6403 1.0312-2.375 0.01317-0.001 0.01776 0.0011 0.03125 0 0.48284-0.03947 1.1516-0.16344 1.7812-0.625 0.59268-0.43444 0.9004-1.0566 1.0625-1.7188a1.0066 1.0066 0 0 0 0.156 -0.406c0.01519-0.12837 0.000449-0.02381 0-0.03125 0.0017-0.01543-0.0015-0.01601 0-0.03125 0.01982-0.19813 0.0016-0.2436 0-0.40625 0.83479-0.11179 1.5931-0.44558 2.25-1.0312a1.0066 1.0066 0 0 0 0.59375 -0.28125l4.25-4.25c8.3825 2.648 18.029-1.7565 21.438-9.9062 0.0035-0.0085-0.0035-0.02276 0-0.03125 0.01179-0.02435 0.0199-0.0038 0.03125-0.03125 3.4033-7.645 0.79166-17.138-6.0938-21.906-0.02433-0.01685-0.03806-0.04577-0.0625-0.0625v0.03125c-0.11417-0.07468-0.20906-0.12118-0.21875-0.125-1.017-0.75405-2.2372-1.3938-3.4062-1.875-1.0541-0.43392-1.9446-0.69199-2.8125-0.84375-0.01907-0.015-0.06249-0.03125-0.0625-0.03125-0.000028-0.000016-0.25649-0.06625-0.34375-0.09375-0.01689-0.0053-0.06249-0.03125-0.0625-0.03125-1.106-0.189-2.24-0.319-3.469-0.312 0.0012-0.000007-0.0071-0.000184-0.03125 0zm2.9688 14.062c0.05269-0.000001 0.12511-0.000005 0.125 0a1.0066 1.0066 0 0 0 0.0625 0c-0.01408 0.0019 0.41132 0.10698 0.625 0.4375s0.27504 0.64094 0 1.0625a1.0066 1.0066 0 0 0 -0.031 0.063c-0.0024 0.0041-0.37762 0.23956-0.8125 0.1875s-0.63549-0.17774-0.6875-0.4375a1.0066 1.0066 0 0 0 -0.03125 -0.1875c-0.05005-0.16447-0.0191-0.49716 0.15625-0.75s0.4362-0.37163 0.59375-0.375z" transform="translate(-2,4e-7)"/>
  <path id="path3855" style="fill:url(#linearGradient4059-7)" d="m22 24v8l40 40h8v-8l-40-40z"/>
  <path id="path3970" style="opacity:.1" d="m65 15c-8.4781-0.17402-16.139 6.7503-16.875 15.188-0.0029 0.03298-0.02859 0.06072-0.03125 0.09375h0.03125c-0.46128 2.638 0.30146 5.2136 0.59375 7.1562-8.7491 8.759-17.558 17.488-26.281 26.281a1.0005 1.0005 0 0 0 -0.25 0.46875c-0.445 1.788-0.093 3.488-0.188 4.843a1.0005 1.0005 0 0 0 0 0.125c0.0787 1.2869-0.20584 2.8545 0.15625 4.5312a1.0005 1.0005 0 0 0 0.1875 0.40625c0.64247 0.83434 1.661 0.95794 2.375 0.9375 0.71405-0.02044 1.3062-0.11061 1.5625-0.0625a1.0005 1.0005 0 0 0 0.218 0.032c1.898-0.07631 3.9852 0.17192 6.125-0.125a1.0005 1.0005 0 0 0 0.5625 -0.28125c0.77843-0.75681 1.8776-1.5644 2.625-2.8125a1.0005 1.0005 0 0 0 0.062 -0.094c0.21528-0.46585 0.17763-0.81059 0.15625-1.125-0.015-0.226-0.012-0.393-0.031-0.563 0.35013 0.01922 0.70061 0.05748 1.2188-0.03125 0.36531-0.06256 0.78937-0.19814 1.1562-0.53125 0.34992-0.31771 0.54907-0.81193 0.59375-1.3125h0.03125c0.0036-0.03015-0.0029-0.03277 0-0.0625 0.0528-0.53541-0.0085-0.86225-0.03125-1.125 1.1731 0.14978 2.4101-0.25733 3.1562-1.2812l0.03125 0.03125c0.02352-0.02612 0.06643-0.09732 0.09375-0.125 0.26932-0.2728 0.68081-0.56718 1.0938-1.0625 0.45484-0.54557 0.8675-1.4497 0.625-2.4062a1.0005 1.0005 0 0 0 0 -0.03125c-0.02041-0.07116-0.02257-0.04381-0.03125-0.09375 0.09123-0.000473 0.16694-0.02309 0.53125 0.03125a1.0005 1.0005 0 0 0 0.0625 0c1.0738 0.10361 1.9172-0.52074 2.4375-1.0625 0.52026-0.54176 0.91554-1.0563 1.1875-1.25a1.0005 1.0005 0 0 0 0.093 -0.063c0.67869-0.62132 0.79066-1.5089 0.78125-2.125-0.0035-0.22911 0.01026-0.3108 0-0.5 0.31325 0.01559 0.48087 0.03222 0.875 0 0.40117-0.0328 0.84604-0.11848 1.2812-0.4375 0.4242-0.31094 0.70993-0.87036 0.78125-1.4375h0.03125c0.0011-0.0095-0.000995-0.02176 0-0.03125 0.06073-0.55425-0.0079-0.88621-0.03125-1.1562 1.1501 0.14693 2.3439-0.26259 3.0938-1.25l0.062 0.062 4.625-4.656c8.0061 2.9272 17.57-1.3223 20.844-9.1875 0.0055-0.01312 0.02582-0.01811 0.03125-0.03125 3.2327-7.2154 0.74463-16.282-5.7812-20.75-0.0166-0.01325-0.04568-0.01807-0.0625-0.03125-0.92617-0.72589-2.1789-1.3514-3.375-1.8438-1.1916-0.4905-2.192-0.81998-3-0.90625-0.0024-0.000252 0.0024-0.031 0-0.03125-0.02009-0.0035-0.04238 0.0034-0.0625 0-1.0753-0.1838-2.1657-0.31857-3.3125-0.3125-0.01073 0.000057-0.02052-0.000082-0.03125 0zm2.9375 12.062a1.0005 1.0005 0 0 0 0.09375 0c1.0998-0.1513 2.5832 1.546 1.5938 3.0625a1.0005 1.0005 0 0 0 0 0.03125c-0.61987 1.036-3.0694 0.93246-3.375-0.59375a1.0005 1.0005 0 0 0 0 -0.09375c-0.32124-1.0556 0.58036-2.3826 1.6875-2.4062z" transform="translate(-2,4e-7)"/>
  <path id="path3964" style="opacity:.15" d="m63 16c-7.9547-0.17973-15.278 6.4373-15.917 14.365-0.46579 2.4922 0.47459 5.2394 0.71643 7.4293-8.8746 8.8873-17.799 17.732-26.642 26.646-0.37085 1.492-0.04894 3.1191-0.15673 4.6613 0.0888 1.4521-0.17638 2.9671 0.12916 4.3819 0.76974 0.99961 2.258 0.315 3.3317 0.51658 2.0016-0.08047 4.0556 0.15865 6.0261-0.11478 0.84541-0.82193 1.8704-1.5874 2.478-2.6021 0.317-0.685-0.521-2.384 0.527-2.283 0.877-0.011 2.438 0.295 2.508-1 0.107-0.888-0.488-2.477 0.984-2 0.97 0.176 1.88-0.132 2.431-0.977 0.701-0.779 1.899-1.442 1.585-2.679-0.4-1.395 0.471-1.518 1.641-1.344 1.362 0.131 1.967-1.449 2.934-2.137 0.791-0.725 0.279-1.929 0.425-2.863 0.99578-0.11541 2.8441 0.48821 3-1 0.10725-0.88754-0.48785-2.4774 0.98436-2 0.97001 0.17604 1.8804-0.13129 2.4285-0.97919 1.6749-1.684 3.3497-3.368 5.0246-5.0521 7.5894 3.2063 17.128-0.90748 20.254-8.4766 3.055-6.774 0.686-15.403-5.46-19.57-1.572-1.255-4.932-2.512-5.982-2.609-1.073-0.186-2.158-0.321-3.25-0.313zm2.906 10.062c2.0406-0.28072 3.9857 2.4123 2.5625 4.5938-1.127 1.8836-4.7006 1.5254-5.1875-0.90625-0.5211-1.7123 0.81526-3.6488 2.625-3.6875z"/>
  <path id="path3919" style="opacity:.3" d="m63 17c-8.2843 0-15 6.7157-15 15 0 0.36632 0.0054 0.73379 0.03125 1.0938 0.0046 0.06407 0.02485 0.12442 0.03125 0.1875 0.03391 0.39922 0.09168 0.79781 0.15625 1.1875 0.02207 0.12519 0.03896 0.25226 0.0625 0.375 0.01174 0.0613 0.01876 0.12647 0.03125 0.1875 0.18308 0.89014 0.44754 1.7378 0.78125 2.5625 0.02957 0.07355 0.06305 0.14578 0.09375 0.21875 0.0038 0.009-0.0038 0.02228 0 0.03125l-27.186 27.156v8h8l2-2v-3h3v-3h3l2-2v-3h3l2-2v-3h3v-3h3l6.1562-6.1875h0.03125c0.63719 0.26972 1.2817 0.53465 1.9688 0.71875 8.002 2.1441 16.231-2.5917 18.375-10.594 0.2143-0.79978 0.32676-1.6087 0.40625-2.4062 0.0042-0.04109-0.0038-0.08381 0-0.125 0.18118-1.9871-0.0222-3.9466-0.59375-5.7812-0.0096-0.03121-0.02155-0.06264-0.03125-0.09375-0.0029-0.0094 0.003-0.02183 0-0.03125-0.01287-0.041-0.01803-0.08415-0.03125-0.125-0.0942-0.2853-0.20167-0.56511-0.3125-0.84375-0.04933-0.12585-0.10364-0.25084-0.15625-0.375-0.0037-0.0087 0.0037-0.02255 0-0.03125-0.11353-0.26647-0.24674-0.523-0.375-0.78125-0.08368-0.16653-0.16133-0.33703-0.25-0.5-0.0043-0.0079 0.0043-0.02335 0-0.03125-0.08928-0.16336-0.18049-0.31253-0.28125-0.46875-0.05747-0.0966-0.12793-0.18607-0.1875-0.28125-0.10436-0.15194-0.20508-0.31928-0.3125-0.46875-0.06713-0.09884-0.14934-0.18412-0.21875-0.28125-0.20708-0.28968-0.39832-0.60119-0.625-0.875-0.23065-0.27813-0.4689-0.55186-0.71875-0.8125-0.06367-0.06056-0.12277-0.12806-0.1875-0.1875-0.02075-0.02092-0.04163-0.0417-0.0625-0.0625-0.04166-0.04147-0.08286-0.08402-0.125-0.125-0.64123-0.62413-1.3489-1.1855-2.0938-1.6875-0.29417-0.19789-0.59149-0.38518-0.90625-0.5625-0.1141-0.06551-0.22779-0.12493-0.34375-0.1875-0.20435-0.10869-0.41877-0.21296-0.625-0.3125-0.16768-0.0808-0.33291-0.1673-0.5-0.25-0.93431-0.40898-1.8841-0.72475-2.9062-0.9375-0.01985-0.0042-0.04263 0.0041-0.0625 0-0.12242-0.02505-0.25129-0.04024-0.375-0.0625-0.86008-0.15299-1.7522-0.25-2.6562-0.25zm2.8438 8.0625c0.26055-0.01524 0.52808-0.0045 0.78125 0.03125 0.06127 0.0096 0.12718 0.01895 0.1875 0.03125 0.18899 0.03595 0.38195 0.0937 0.5625 0.15625 0.06186 0.02252 0.12711 0.03706 0.1875 0.0625 0.06905 0.02783 0.12018 0.09338 0.1875 0.125 0.62595 0.3074 1.1736 0.74174 1.5625 1.3125 0.1439 0.21285 0.27344 0.41709 0.375 0.65625 0.20989 0.4812 0.31071 1.0063 0.3125 1.5625 0 0.54789-0.11009 1.0564-0.3125 1.5312-0.0055 0.01255-0.02565 0.01876-0.03125 0.03125-0.09803 0.22333-0.20777 0.45654-0.34375 0.65625-0.005 0.0075 0.005 0.02379 0 0.03125-0.07612 0.10795-0.1631 0.21248-0.25 0.3125-0.02877 0.03378-0.06387 0.06095-0.09375 0.09375-0.14009 0.15032-0.27371 0.27856-0.4375 0.40625-0.0064 0.0052-0.02478-0.0052-0.03125 0-0.3957 0.30423-0.86296 0.54854-1.375 0.6875l-0.03125 0.03125c-2.091 0.561-4.221-0.689-4.782-2.78-0.56016-2.0906 0.65944-4.2523 2.75-4.8125 0.26132-0.07002 0.5207-0.10976 0.78125-0.125z"/>
  <path id="path3666" style="fill:url(#linearGradient3131-1)" d="m49.812 36.188-27.812 27.812v8h8l2-2v-3h3v-3h3l2-2v-3h3l2-2v-3h3v-3h3l6.8125-6.8125z"/>
  <path id="path3772" style="opacity:.6;fill:#fff" d="m49.812 36.188-27.812 27.812v1l28.219-28.219c-0.126-0.207-0.29-0.38-0.407-0.593z"/>
  <path id="path3788" style="fill:url(#linearGradient3127-9)" d="m50.594 39.406-28.594 28.594v3l30.375-29.438c-0.65603-0.65988-1.2564-1.3841-1.7812-2.1562z"/>
  <path id="path3798" style="opacity:.49590;fill:url(#linearGradient3123-0)" d="m54.438 41.562-23.438 23.438 1 1 23.594-23.594c-0.38616-0.26252-0.76577-0.54729-1.125-0.84375-0.0059-0.0049-0.02531 0.0049-0.03125 0zm-23.438 23.438l-7 7h2l5-5z"/>
  <path id="path4068" style="opacity:0.09;fill:#fff" d="m22 32v1l40 40h8v-1h-8l-40-40z"/>
  <path id="path3910" style="opacity:.15" d="m56.812 43.188-6.812 6.812h-3v3h-3v3l-2 2h-3v3l-2 2h-3v3h-3v3l-2 2h-7v1h8l2-2v-3h3v-3h3l2-2v-3h3l2-2v-3h3v-3h3l6.8125-6.8125-1-1z"/>
  <path id="path3133" style="opacity:.2" d="m57.312 43.688-6.312 6.312h-3v1h3l6.8125-6.8125-0.5-0.5zm-12.312 9.312v1h3v-1h-3zm0 3-2 2h-3v1h3l2-2v-1zm-5 5-2 2h-3v1h3l2-2v-1zm-8 5v1h3v-1h-3zm0 3-2 2h-8v1h8l2-2v-1z"/>
  <g id="g3151" transform="translate(-2,4e-7)">
   <path id="path3141" style="fill:url(#linearGradient3149-4)" d="m65 16c-8.2843 0-15 6.7157-15 15 0 0.36632 0.0054 0.73379 0.03125 1.0938 0.01985 0.27601 0.05915 0.54073 0.09375 0.8125 0.03986 0.3131 0.09741 0.63064 0.15625 0.9375 0.01989 0.10382 0.04048 0.20945 0.0625 0.3125 0.09499 0.44451 0.21033 0.88354 0.34375 1.3125 0.14609 0.4697 0.31024 0.92636 0.5 1.375 0.07024 0.16584 0.14281 0.33732 0.21875 0.5 0.12839 0.27496 0.26198 0.54692 0.40625 0.8125 0.0043 0.0079-0.0043 0.02335 0 0.03125 1.3813 2.5319 3.4681 4.6187 6 6 0.0079 0.0043 0.02334-0.0043 0.03125 0 0.26568 0.14432 0.53726 0.27776 0.8125 0.40625 0.16514 0.07711 0.33166 0.14755 0.5 0.21875 0.44864 0.18976 0.9053 0.35391 1.375 0.5 0.42896 0.13342 0.86799 0.24876 1.3125 0.34375 0.04221 0.009 0.08266 0.02259 0.125 0.03125 0.36819 0.07552 0.74764 0.13946 1.125 0.1875 0.27177 0.0346 0.53649 0.0739 0.8125 0.09375 0.362 0.027 0.723 0.032 1.093 0.032 8.2843 0 15-6.7157 15-15 0-0.0211 0.000087-0.04142 0-0.0625-0.000134-0.04201 0.000479-0.08307 0-0.125-0.01017-0.89104-0.12223-1.7469-0.28125-2.5938-0.01711-0.09128-0.0125-0.19056-0.03125-0.28125-0.09899-0.47683-0.23189-0.94729-0.375-1.4062-0.0029-0.0094 0.003-0.02183 0-0.03125-0.14404-0.45869-0.31422-0.90532-0.5-1.3438-0.0037-0.0087 0.0037-0.02255 0-0.03125-0.18674-0.43828-0.39887-0.86564-0.625-1.2812-0.0043-0.0079 0.0043-0.02335 0-0.03125-0.28894-0.52868-0.65159-1.0125-1-1.5-0.20708-0.28968-0.39832-0.60119-0.625-0.875-0.301-0.364-0.636-0.7-0.969-1.033-0.679-0.678-1.421-1.304-2.219-1.844-0.588-0.395-1.231-0.751-1.875-1.062-0.231-0.111-0.451-0.244-0.688-0.344-0.435-0.183-0.888-0.326-1.343-0.468-0.47-0.147-0.95-0.276-1.438-0.376-0.976-0.199-1.995-0.312-3.031-0.312zm3 8c2.2042 0 3.993 1.7959 4 4 0 2.2091-1.7909 4-4 4s-4-1.7909-4-4 1.7909-4 4-4z"/>
   <path id="path3759" style="opacity:.4;color:#000000;fill:url(#radialGradient3827-9)" d="m65 16c-8.2843 0-15 6.7157-15 15s6.7157 15 15 15 15-6.7157 15-15v-0.0625c-0.026-8.266-6.734-14.938-15-14.938zm3 8.0312c2.2042 0 3.993 1.7821 4 3.9688 0 2.1916-1.7908 3.9688-4 3.9688s-4-1.7772-4-3.9688 1.7908-3.9688 4-3.9688z"/>
   <path id="path3722" style="opacity:.8;color:#000000;fill:#fff" d="m65 16c-8.2843 0-15 6.7157-15 15 0 4.2693 1.7935 8.1121 4.6562 10.844-2.569-2.692-4.156-6.329-4.156-10.344 0-8.2843 6.7157-15 15-15 4.0059 0 7.6529 1.5653 10.344 4.125-2.731-2.853-6.584-4.625-10.844-4.625z"/>
   <path id="path3726" style="opacity:.6;color:#000000;fill:url(#linearGradient3742-4)" d="m65 44c-7.1797 0-13-5.8203-13-13s5.8203-13 13-13 13 5.8203 13 13v0.03125c-0.023 7.164-5.836 12.969-13 12.969zm0-1c6.6124 0 11.979-5.3563 12-11.969v-0.031c0-6.6274-5.3726-12-12-12s-12 5.3726-12 12 5.3726 12 12 12z"/>
   <path id="path3734" style="opacity:.3;color:#000000" d="m61.152 45.534c8.002 2.1441 16.227-2.6046 18.371-10.607 1.105-4.1239 0.36716-8.2999-1.691-11.679 1.7846 3.2653 2.3766 7.1889 1.3375 11.067-2.1441 8.002-10.369 12.751-18.371 10.607-3.8694-1.0368-6.987-3.4927-8.9237-6.6616 1.8996 3.4623 5.1627 6.1715 9.2772 7.274z"/>
   <path id="path3744" style="opacity:.8;color:#000000;fill:url(#linearGradient3755-6)" d="m73.014 26.682c-0.72801-2.717-3.5216-4.3298-6.2385-3.6018-2.717 0.72801-4.3298 3.5216-3.6018 6.2385 0.72801 2.717 3.5216 4.3298 6.2385 3.6018l0.03019-0.0081c2.7085-0.73501 4.298-3.5196 3.5716-6.2305zm-1.1169 0.29926c0.5589 2.0858-0.67809 4.2186-2.7621 4.7842l-0.03019 0.0081c-2.0906 0.56016-4.224-0.67158-4.7842-2.7621-0.56016-2.0906 0.66349-4.2542 2.754-4.8143 2.0906-0.56016 4.2623 0.69367 4.8224 2.7842z"/>
  </g>
 </g>
</svg>
