<?xml version="1.0" encoding="UTF-8" standalone="no"?>
<!-- Created with Inkscape (http://www.inkscape.org/) -->
<svg id="svg2408" xmlns:rdf="http://www.w3.org/1999/02/22-rdf-syntax-ns#" xmlns="http://www.w3.org/2000/svg" height="96" width="96" version="1.0" xmlns:cc="http://creativecommons.org/ns#" xmlns:xlink="http://www.w3.org/1999/xlink" xmlns:dc="http://purl.org/dc/elements/1.1/">
 <defs id="defs2410">
  <linearGradient id="linearGradient3825">
   <stop id="stop3827" style="stop-color:#b3b3b3" offset="0"/>
   <stop id="stop3829" style="stop-color:#d2d2d2" offset="1"/>
  </linearGradient>
  <linearGradient id="ButtonShadow" y2="7.0165" gradientUnits="userSpaceOnUse" x2="45.448" gradientTransform="scale(1.0059 .99417)" y1="92.54" x1="45.448">
   <stop id="stop3750" offset="0"/>
   <stop id="stop3752" style="stop-opacity:.58824" offset="1"/>
  </linearGradient>
  <linearGradient id="linearGradient3737">
   <stop id="stop3739" style="stop-color:#fff" offset="0"/>
   <stop id="stop3741" style="stop-color:#fff;stop-opacity:0" offset="1"/>
  </linearGradient>
  <filter id="filter3174" color-interpolation-filters="sRGB">
   <feGaussianBlur id="feGaussianBlur3176" stdDeviation="1.71"/>
  </filter>
  <linearGradient id="linearGradient3188" y2="63.893" xlink:href="#linearGradient3737" gradientUnits="userSpaceOnUse" x2="36.357" y1="6" x1="36.357"/>
  <filter id="filter3794" height="1.384" width="1.384" color-interpolation-filters="sRGB" y="-.192" x="-.192">
   <feGaussianBlur id="feGaussianBlur3796" stdDeviation="5.28"/>
  </filter>
  <linearGradient id="linearGradient3613" y2="138.66" xlink:href="#linearGradient3737" gradientUnits="userSpaceOnUse" x2="48" y1="20.221" x1="48"/>
  <radialGradient id="radialGradient3619" xlink:href="#linearGradient3737" gradientUnits="userSpaceOnUse" cy="90.172" cx="48" gradientTransform="matrix(1.1573 0 0 .99591 -7.551 .19713)" r="42"/>
  <clipPath id="clipPath3613">
   <rect id="rect3615" style="fill:#fff" rx="6" ry="6" height="84" width="84" y="6" x="6"/>
  </clipPath>
  <linearGradient id="linearGradient3617" y2="5.9877" gradientUnits="userSpaceOnUse" x2="48" y1="90" x1="48">
   <stop id="stop3643" style="stop-color:#b4b4b4" offset="0"/>
   <stop id="stop3645" style="stop-color:#dcdcdc" offset="1"/>
  </linearGradient>
  <linearGradient id="linearGradient3650-2">
   <stop id="stop3652" style="stop-opacity:0" offset="0"/>
   <stop id="stop3660" style="stop-opacity:0" offset="0.3"/>
   <stop id="stop3658" style="stop-opacity:.11765" offset=".5"/>
   <stop id="stop3662" style="stop-opacity:0" offset="0.7"/>
   <stop id="stop3654-5" style="stop-opacity:0" offset="1"/>
  </linearGradient>
  <linearGradient id="linearGradient3672">
   <stop id="stop3674" style="stop-color:#fff;stop-opacity:0" offset="0"/>
   <stop id="stop3676" style="stop-color:#fff;stop-opacity:0" offset="0.3"/>
   <stop id="stop3678" style="stop-color:#fff;stop-opacity:.61240" offset=".5"/>
   <stop id="stop3680" style="stop-color:#fff;stop-opacity:0" offset=".75265"/>
   <stop id="stop3682" style="stop-color:#fff;stop-opacity:0" offset="1"/>
  </linearGradient>
  <linearGradient id="linearGradient3622">
   <stop id="stop3624" style="stop-color:#d6d6d6" offset="0"/>
   <stop id="stop3626" style="stop-color:#eaeaea" offset="1"/>
  </linearGradient>
  <linearGradient id="linearGradient3852" y2="46" xlink:href="#linearGradient3622" gradientUnits="userSpaceOnUse" x2="80" gradientTransform="matrix(.36458 0 0 .36458 16.167 -49.104)" y1="46" x1="16"/>
  <linearGradient id="linearGradient3855" y2="81.071" xlink:href="#linearGradient3650-2" gradientUnits="userSpaceOnUse" x2="48" gradientTransform="matrix(-.35714 0 0 .35714 50.143 15.857)" y1="48" x1="6"/>
  <linearGradient id="linearGradient3858" y2="81.071" xlink:href="#linearGradient3650-2" gradientUnits="userSpaceOnUse" x2="48" gradientTransform="matrix(.35714 0 0 .35714 15.857 15.857)" y1="48" x1="6"/>
  <linearGradient id="linearGradient3863" y2="84.286" xlink:href="#linearGradient3672" gradientUnits="userSpaceOnUse" x2="48" gradientTransform="matrix(.35714 0 0 -.35714 15.857 50.143)" y1="48" x1="13.321"/>
  <linearGradient id="linearGradient3866" y2="84.286" xlink:href="#linearGradient3672" gradientUnits="userSpaceOnUse" x2="48" gradientTransform="matrix(-.35714 0 0 -.35714 50.143 50.143)" y1="48" x1="13.321"/>
  <linearGradient id="linearGradient3869" y2="6" xlink:href="#linearGradient3825" gradientUnits="userSpaceOnUse" x2="32.071" gradientTransform="matrix(.35714 0 0 .35714 15.857 15.857)" y1="90" x1="63.536"/>
  <linearGradient id="linearGradient4723" y2="33" xlink:href="#linearGradient3737" gradientUnits="userSpaceOnUse" x2="44" gradientTransform="matrix(0,-1,1,0,0,66)" y1="33" x1="22"/>
  <linearGradient id="linearGradient4727" y2="6" xlink:href="#linearGradient3825" gradientUnits="userSpaceOnUse" x2="32.071" gradientTransform="matrix(.35714 0 0 .35714 -34.143 15.857)" y1="90" x1="63.536"/>
  <linearGradient id="linearGradient4781" y2="6" xlink:href="#linearGradient3825" gradientUnits="userSpaceOnUse" x2="32.071" gradientTransform="matrix(.35714 0 0 .35714 47.857 15.857)" y1="90" x1="63.536"/>
  <linearGradient id="linearGradient4783" y2="84.286" xlink:href="#linearGradient3672" gradientUnits="userSpaceOnUse" x2="48" gradientTransform="matrix(-.35714 0 0 -.35714 82.143 50.143)" y1="48" x1="13.321"/>
  <linearGradient id="linearGradient4785" y2="84.286" xlink:href="#linearGradient3672" gradientUnits="userSpaceOnUse" x2="48" gradientTransform="matrix(.35714 0 0 -.35714 47.857 50.143)" y1="48" x1="13.321"/>
  <linearGradient id="linearGradient4787" y2="81.071" xlink:href="#linearGradient3650-2" gradientUnits="userSpaceOnUse" x2="48" gradientTransform="matrix(.35714 0 0 .35714 47.857 15.857)" y1="48" x1="6"/>
  <linearGradient id="linearGradient4789" y2="81.071" xlink:href="#linearGradient3650-2" gradientUnits="userSpaceOnUse" x2="48" gradientTransform="matrix(-.35714 0 0 .35714 82.143 15.857)" y1="48" x1="6"/>
  <linearGradient id="linearGradient4791" y2="46" xlink:href="#linearGradient3622" gradientUnits="userSpaceOnUse" x2="80" gradientTransform="matrix(.36458 0 0 .36458 16.167 -81.104)" y1="46" x1="16"/>
  <linearGradient id="linearGradient4793" y2="33" xlink:href="#linearGradient3737" gradientUnits="userSpaceOnUse" x2="44" gradientTransform="matrix(0,-1,1,0,32,66)" y1="33" x1="22"/>
  <linearGradient id="linearGradient4815" y2="6" xlink:href="#linearGradient3825" gradientUnits="userSpaceOnUse" x2="32.071" gradientTransform="matrix(.35714 0 0 .35714 15.857 47.857)" y1="90" x1="63.536"/>
  <linearGradient id="linearGradient4817" y2="84.286" xlink:href="#linearGradient3672" gradientUnits="userSpaceOnUse" x2="48" gradientTransform="matrix(-.35714 0 0 -.35714 72.143 82.143)" y1="48" x1="13.321"/>
  <linearGradient id="linearGradient4819" y2="84.286" xlink:href="#linearGradient3672" gradientUnits="userSpaceOnUse" x2="48" gradientTransform="matrix(.35714 0 0 -.35714 15.857 82.143)" y1="48" x1="13.321"/>
  <linearGradient id="linearGradient4821" y2="81.071" xlink:href="#linearGradient3650-2" gradientUnits="userSpaceOnUse" x2="48" gradientTransform="matrix(.35714 0 0 .35714 15.857 47.857)" y1="48" x1="6"/>
  <linearGradient id="linearGradient4823" y2="81.071" xlink:href="#linearGradient3650-2" gradientUnits="userSpaceOnUse" x2="48" gradientTransform="matrix(-.35714 0 0 .35714 72.143 47.857)" y1="48" x1="6"/>
  <linearGradient id="linearGradient4825" y2="46" xlink:href="#linearGradient3622" gradientUnits="userSpaceOnUse" x2="80" gradientTransform="matrix(.36458 0 0 .36458 48.167 -49.104)" y1="46" x1="16"/>
  <linearGradient id="linearGradient4827" y2="33" xlink:href="#linearGradient3737" gradientUnits="userSpaceOnUse" x2="44" gradientTransform="matrix(0,-1,1,0,0,98)" y1="33" x1="22"/>
  <linearGradient id="ButtonShadow-0" y2="7.0165" gradientUnits="userSpaceOnUse" x2="45.448" gradientTransform="matrix(1.0059 0 0 .99417 100 0)" y1="92.54" x1="45.448">
   <stop id="stop3750-8" offset="0"/>
   <stop id="stop3752-5" style="stop-opacity:.58824" offset="1"/>
  </linearGradient>
  <linearGradient id="linearGradient3780" y2="90.239" xlink:href="#ButtonShadow-0" gradientUnits="userSpaceOnUse" x2="32.251" gradientTransform="matrix(1.0238 0 0 1.0119 -1.1429 -98.071)" y1="6.1317" x1="32.251"/>
  <linearGradient id="linearGradient3721" y2="90.239" xlink:href="#ButtonShadow-0" gradientUnits="userSpaceOnUse" x2="32.251" gradientTransform="translate(0,-97)" y1="6.1317" x1="32.251"/>
 </defs>
 <metadata id="metadata2413">
  <rdf:RDF>
   <cc:Work rdf:about="">
    <dc:format>image/svg+xml</dc:format>
    <dc:type rdf:resource="http://purl.org/dc/dcmitype/StillImage"/>
    <dc:title/>
   </cc:Work>
  </rdf:RDF>
 </metadata>
 <g id="layer2" style="display:none">
  <rect id="rect3745" style="opacity:.9;filter:url(#filter3174);fill:url(#ButtonShadow)" rx="6" ry="6" height="85" width="86" y="7" x="5"/>
 </g>
 <g id="layer4">
  <path id="path3786" style="opacity:0.08;fill:url(#linearGradient3780)" d="m12-95.031c-5.5111 0-10.031 4.5202-10.031 10.031v71c0 5.5111 4.5202 10.031 10.031 10.031h72c5.5111 0 10.031-4.5202 10.031-10.031v-71c0-5.5111-4.5202-10.031-10.031-10.031h-72z" transform="scale(1,-1)"/>
  <path id="path3778" style="opacity:.1;fill:url(#linearGradient3780)" d="m12-94.031c-4.9716 0-9.0312 4.0596-9.0312 9.0312v71c0 4.9716 4.0596 9.0312 9.0312 9.0312h72c4.9716 0 9.0312-4.0596 9.0312-9.0312v-71c0-4.9716-4.0596-9.0312-9.0312-9.0312h-72z" transform="scale(1,-1)"/>
  <path id="path3770" style="opacity:.2;fill:url(#linearGradient3780)" d="m12-93c-4.4091 0-8 3.5909-8 8v71c0 4.4091 3.5909 8 8 8h72c4.4091 0 8-3.5909 8-8v-71c0-4.4091-3.5909-8-8-8h-72z" transform="scale(1,-1)"/>
  <rect id="rect3723" style="opacity:.3;fill:url(#linearGradient3780)" transform="scale(1,-1)" rx="7" ry="7" height="85" width="86" y="-92" x="5"/>
  <rect id="rect3716" style="opacity:.45;fill:url(#linearGradient3721)" transform="scale(1,-1)" rx="6" ry="6" height="84" width="84" y="-91" x="6"/>
 </g>
 <g id="layer1">
  <rect id="rect2419" style="fill:url(#linearGradient3617)" rx="6" ry="6" height="84" width="84" y="6" x="6"/>
  <path id="rect3728" style="opacity:.5;fill:url(#linearGradient3188)" d="m12 6c-3.324 0-6 2.676-6 6v2 68 2c0 0.33472 0.04135 0.6507 0.09375 0.96875 0.0487 0.2956 0.09704 0.59692 0.1875 0.875 0.00988 0.03038 0.020892 0.0636 0.03125 0.09375 0.098865 0.28777 0.23488 0.54745 0.375 0.8125 0.14459 0.27351 0.31562 0.53562 0.5 0.78125 0.18438 0.24564 0.37378 0.47347 0.59375 0.6875 0.43995 0.42806 0.94291 0.81453 1.5 1.0938 0.27854 0.13961 0.57347 0.24695 0.875 0.34375-0.2562-0.10022-0.48671-0.23627-0.71875-0.375-0.00741-0.0044-0.023866 0.0045-0.03125 0-0.031933-0.0193-0.062293-0.04251-0.09375-0.0625-0.1204-0.0767-0.23102-0.16351-0.34375-0.25-0.10617-0.0808-0.21328-0.16111-0.3125-0.25-0.1778-0.162-0.3473-0.346-0.4999-0.531-0.1075-0.131-0.2183-0.266-0.3124-0.407-0.0251-0.038-0.0385-0.086-0.0626-0.125-0.0647-0.103-0.1302-0.204-0.1874-0.312-0.1011-0.195-0.2057-0.416-0.2813-0.625-0.008-0.022-0.0236-0.041-0.0313-0.063-0.0318-0.092-0.0358-0.187-0.0624-0.281-0.0304-0.107-0.0704-0.203-0.0938-0.313-0.0729-0.341-0.125-0.698-0.125-1.062v-2-68-2c0-2.782 2.2182-5 5-5h2 68 2c2.7818 0 5 2.2182 5 5v2 68 2c0 0.3643-0.05212 0.72099-0.125 1.0625-0.04415 0.20689-0.08838 0.39766-0.15625 0.59375-0.0077 0.02195-0.0233 0.04069-0.03125 0.0625-0.06274 0.17374-0.13838 0.36745-0.21875 0.53125-0.04158 0.0828-0.07904 0.16995-0.125 0.25-0.0546 0.09721-0.12677 0.18835-0.1875 0.28125-0.09411 0.14096-0.20492 0.276-0.3125 0.40625-0.14317 0.17445-0.30314 0.347-0.46875 0.5-0.01117 0.0102-0.01998 0.02115-0.03125 0.03125-0.13839 0.12556-0.28509 0.23444-0.4375 0.34375-0.10257 0.07315-0.20432 0.15336-0.3125 0.21875-0.0074 0.0045-0.02384-0.0044-0.03125 0-0.23204 0.13873-0.46255 0.27478-0.71875 0.375 0.30153-0.0968 0.59646-0.20414 0.875-0.34375 0.55709-0.27922 1.0601-0.66569 1.5-1.0938 0.21997-0.21403 0.40937-0.44186 0.59375-0.6875s0.35541-0.50774 0.5-0.78125c0.14012-0.26505 0.27614-0.52473 0.375-0.8125 0.01041-0.03078 0.02133-0.06274 0.03125-0.09375 0.09046-0.27808 0.1388-0.5794 0.1875-0.875 0.053-0.318 0.094-0.634 0.094-0.969v-2-68-2c0-3.324-2.676-6-6-6h-72z"/>
  <path id="path3615" style="opacity:.3;fill:url(#radialGradient3619)" d="m12 90c-3.324 0-6-2.676-6-6v-2-68-2c0-0.33472 0.04135-0.6507 0.09375-0.96875 0.0487-0.2956 0.09704-0.59692 0.1875-0.875 0.0099-0.03 0.0209-0.063 0.0313-0.094 0.0989-0.2873 0.2349-0.547 0.375-0.812 0.1446-0.2735 0.3156-0.5356 0.5-0.7812 0.1844-0.2457 0.3738-0.4735 0.5937-0.6876 0.44-0.428 0.943-0.8145 1.5-1.0937 0.2786-0.1396 0.5735-0.2469 0.8748-0.3437-0.256 0.1002-0.4865 0.2362-0.7185 0.375-0.00741 0.0044-0.023866-0.0045-0.03125 0-0.031933 0.0193-0.062293 0.04251-0.09375 0.0625-0.1204 0.0767-0.23102 0.16351-0.34375 0.25-0.10617 0.0808-0.21328 0.16111-0.3125 0.25-0.1779 0.1614-0.3474 0.3453-0.5 0.5312-0.1075 0.1303-0.2183 0.2653-0.3124 0.4063-0.0251 0.0383-0.0385 0.0858-0.0626 0.125-0.0647 0.103-0.1302 0.2045-0.1874 0.3124-0.1011 0.1948-0.2057 0.4158-0.2813 0.625-0.008 0.0219-0.0236 0.0406-0.0313 0.0626-0.0318 0.0919-0.0358 0.1868-0.0624 0.2812-0.0304 0.1066-0.0704 0.203-0.0938 0.3125-0.0729 0.3415-0.125 0.6985-0.125 1.0625v2 68 2c0 2.7818 2.2182 5 5 5h2 68 2c2.7818 0 5-2.2182 5-5v-2-68-2c0-0.364-0.052-0.721-0.125-1.0625-0.044-0.2069-0.088-0.3977-0.156-0.5937-0.008-0.022-0.024-0.0407-0.031-0.0626-0.063-0.1737-0.139-0.3674-0.219-0.5312-0.042-0.0828-0.079-0.17-0.125-0.25-0.055-0.0972-0.127-0.1884-0.188-0.2812-0.094-0.141-0.205-0.276-0.312-0.4063-0.143-0.1745-0.303-0.347-0.469-0.5-0.011-0.0102-0.02-0.0211-0.031-0.0313-0.139-0.1255-0.285-0.2344-0.438-0.3437-0.102-0.0731-0.204-0.1534-0.312-0.2187-0.0074-0.0045-0.02384 0.0044-0.03125 0-0.23204-0.13873-0.46255-0.27478-0.71875-0.375 0.30153 0.0968 0.59646 0.20414 0.875 0.34375 0.55709 0.27922 1.0601 0.66569 1.5 1.0938 0.21997 0.21403 0.40937 0.44186 0.59375 0.6875s0.35541 0.50774 0.5 0.78125c0.14012 0.26505 0.27614 0.52473 0.375 0.8125 0.01041 0.03078 0.02133 0.06274 0.03125 0.09375 0.09046 0.27808 0.1388 0.5794 0.1875 0.875 0.053 0.318 0.094 0.634 0.094 0.969v2 68 2c0 3.324-2.676 6-6 6h-72z"/>
 </g>
 <g id="layer5" style="display:none">
  <rect id="rect3171" style="opacity:.5;filter:url(#filter3794);stroke:#fff;stroke-linecap:round;stroke-width:.5;fill:url(#linearGradient3613)" clip-path="url(#clipPath3613)" rx="12" ry="12" height="66" width="66" y="15" x="15"/>
 </g>
 <g id="layer3">
  <g id="g4899" transform="translate(0,-19)">
   <path id="path4872" style="opacity:.3;fill:#f00" d="m106.12 60.969c-1.7239 0-3.1562 1.4325-3.1562 3.1562v17.75c0 1.7237 1.4324 3.1562 3.1562 3.1562h17.75c1.7239 0 3.1562-1.4325 3.1562-3.1562v-17.75c0-1.7237-1.4324-3.1562-3.1562-3.1562h-17.75zm0 3.125h17.75c-0.00021 0 0.0312 0.03156 0.0312 0.03125v17.75c0-0.000313-0.0315 0.03125-0.0312 0.03125h-17.75c0.00021 0-0.0312-0.03156-0.0312-0.03125v-17.75c0 0.000313 0.0315-0.03125 0.0312-0.03125z"/>
   <path id="rect4863" style="fill:#f00" d="m106.12 62c-1.17 0-2.12 0.95-2.12 2.125v17.75c0 1.175 0.94985 2.125 2.125 2.125h17.75c1.18 0 2.13-0.95 2.13-2.125v-17.75c0-1.175-0.95-2.125-2.12-2.125h-17.75zm0 1.0938h17.75c0.59327 0 1.0312 0.43808 1.0312 1.0312v17.75c0 0.59317-0.43798 1.0312-1.0312 1.0312h-17.75c-0.59327 0-1.0312-0.43808-1.0312-1.0312v-17.75c0-0.59317 0.43798-1.0312 1.0312-1.0312z"/>
  </g>
  <path id="rect4831" style="opacity:.7;color:#000000" d="m19 16c-1.662 0-3 1.338-3 3v25 3 32c0 1.662 1.338 3 3 3h50c1.662 0 3-1.338 3-3v-29h7c1.662 0 3-1.338 3-3v-28c0-1.662-1.338-3-3-3h-60z"/>
  <rect id="rect3903" style="fill:#f00" rx="1.2857" ry="1.2857" height="18" width="18" y="20" x="-24"/>
  <rect id="rect2419-0" style="fill:url(#linearGradient3869)" rx="2.1429" ry="2.1429" height="30" width="30" y="18" x="18"/>
  <path id="path3684" style="fill:url(#linearGradient3866)" d="m48 33v-12.857c0-1.187-0.956-2.143-2.143-2.143h-12.857v15h15z"/>
  <path id="path3668" style="fill:url(#linearGradient3863)" d="m18 33v-12.857c0-1.187 0.956-2.143 2.143-2.143h12.857v15h-15z"/>
  <path id="rect3643" style="fill:url(#linearGradient3858)" d="m18 33v12.857c0 1.187 0.956 2.143 2.143 2.143h12.857v-15h-15z"/>
  <path id="path3664" style="fill:url(#linearGradient3855)" d="m48 33v12.857c0 1.187-0.956 2.143-2.143 2.143h-12.857v-15h15z"/>
  <rect id="rect3877" style="fill:url(#linearGradient3852)" transform="rotate(90)" rx="2.121" ry="2.1212" height="22" width="22" y="-44" x="22"/>
  <g id="text4232" style="fill:#333" transform="matrix(1.6667 0 0 1.6667 -8.6667 -15.333)">
   <path id="path4316" d="m27.363 32.44-0.78613-2.0117h-3.1348l-0.79102 2.0117h-0.9668l2.8076-6.8799h1.0596l2.7637 6.8799h-0.95215m-1.9482-5.0098c-0.05209-0.1302-0.10254-0.26204-0.15137-0.39551-0.04558-0.13346-0.08627-0.2539-0.12207-0.36133-0.03581-0.11067-0.06674-0.20182-0.09277-0.27344-0.02279-0.07486-0.03581-0.12044-0.03906-0.13672-0.0065 0.01628-0.02116 0.06186-0.04395 0.13672-0.02279 0.07488-0.05371 0.16765-0.09277 0.27832-0.03581 0.11068-0.07813 0.23275-0.12695 0.36621-0.04558 0.13347-0.09278 0.2653-0.1416 0.39551l-0.87891 2.2607h2.5732l-0.88379-2.2705"/>
  </g>
  <path id="rect3938" style="opacity:.8;fill:url(#linearGradient4723)" d="m22 41.875c0 1.175 0.95 2.125 2.125 2.125h17.75c1.175 0 2.125-0.95 2.125-2.125v-17.75c0-1.175-0.95-2.125-2.125-2.125h-17.75c-1.175 0-2.125 0.95-2.125 2.125v17.75zm2.0312 0.09375c-0.01281-0.0128 0-0.05119 0-0.09375v-17.75c0-0.08512 0.0087-0.09375 0.09375-0.09375h17.75c0.08503 0 0.09375 0.0086 0.09375 0.09375v17.75c0 0.08512-0.0087 0.09375-0.09375 0.09375h-17.75c-0.04251 0-0.08094 0.0128-0.09375 0z"/>
  <rect id="rect4725" style="fill:url(#linearGradient4727)" rx="2.1429" ry="2.1429" height="30" width="30" y="18" x="-32"/>
  <path id="path4758" style="opacity:.2;fill:#fff" d="m20.156 17c-1.726 0-3.156 1.43-3.156 3.156v25.688c0 1.726 1.43 3.156 3.156 3.156h25.688c1.726 0 3.156-1.43 3.156-3.156v-25.688c0-1.726-1.43-3.156-3.156-3.156h-25.688zm0 1h25.688c1.187 0 2.156 0.969 2.156 2.156v25.688c0 1.187-0.969 2.156-2.156 2.156h-25.688c-1.187 0-2.156-0.969-2.156-2.156v-25.688c0-1.187 0.969-2.156 2.156-2.156z"/>
  <rect id="rect4761" style="fill:url(#linearGradient4781)" rx="2.1429" ry="2.1429" height="30" width="30" y="18" x="50"/>
  <path id="path4763" style="fill:url(#linearGradient4783)" d="m80 33v-12.857c0-1.187-0.956-2.143-2.143-2.143h-12.857v15h15z"/>
  <path id="path4765" style="fill:url(#linearGradient4785)" d="m50 33v-12.857c0-1.187 0.956-2.143 2.143-2.143h12.857v15h-15z"/>
  <path id="path4767" style="fill:url(#linearGradient4787)" d="m50 33v12.857c0 1.187 0.956 2.143 2.143 2.143h12.857v-15h-15z"/>
  <path id="path4769" style="fill:url(#linearGradient4789)" d="m80 33v12.857c0 1.187-0.956 2.143-2.143 2.143h-12.857v-15h15z"/>
  <rect id="rect4771" style="fill:url(#linearGradient4791)" transform="rotate(90)" rx="2.121" ry="2.1212" height="22" width="22" y="-76" x="22"/>
  <path id="path4777" style="opacity:.8;fill:url(#linearGradient4793)" d="m54 41.875c0 1.175 0.95 2.125 2.125 2.125h17.75c1.175 0 2.125-0.95 2.125-2.125v-17.75c0-1.175-0.95-2.125-2.125-2.125h-17.75c-1.175 0-2.125 0.95-2.125 2.125v17.75zm2.0312 0.09375c-0.01281-0.0128 0-0.05119 0-0.09375v-17.75c0-0.08512 0.0087-0.09375 0.09375-0.09375h17.75c0.08503 0 0.09375 0.0086 0.09375 0.09375v17.75c0 0.08512-0.0087 0.09375-0.09375 0.09375h-17.75c-0.04251 0-0.08094 0.0128-0.09375 0z"/>
  <path id="path4779" style="opacity:.2;fill:#f00" d="m52.156 17c-1.726 0-3.156 1.43-3.156 3.156v25.688c0 1.726 1.43 3.156 3.156 3.156h25.688c1.726 0 3.156-1.43 3.156-3.156v-25.688c0-1.726-1.43-3.156-3.156-3.156h-25.688zm0 1h25.688c1.187 0 2.156 0.969 2.156 2.156v25.688c0 1.187-0.969 2.156-2.156 2.156h-25.688c-1.187 0-2.156-0.969-2.156-2.156v-25.688c0-1.187 0.969-2.156 2.156-2.156z"/>
  <path id="rect4795" style="fill:url(#linearGradient4815)" d="m20.143 50h47.714c1.187 0 2.143 0.956 2.143 2.143v25.714c0 1.187-0.956 2.143-2.143 2.143h-47.714c-1.187 0-2.143-0.956-2.143-2.143v-25.714c0-1.187 0.956-2.143 2.143-2.143z"/>
  <path id="path4797" style="fill:url(#linearGradient4817)" d="m70 65v-12.857c0-1.187-0.956-2.143-2.143-2.143h-12.857v15h15z"/>
  <path id="path4799" style="fill:url(#linearGradient4819)" d="m18 65v-12.857c0-1.187 0.956-2.143 2.143-2.143h12.857v15h-15z"/>
  <path id="path4801" style="fill:url(#linearGradient4821)" d="m18 65v12.857c0 1.187 0.956 2.143 2.143 2.143h12.857v-15h-15z"/>
  <path id="path4803" style="fill:url(#linearGradient4823)" d="m70 65v12.857c0 1.187-0.956 2.143-2.143 2.143h-12.857v-15h15z"/>
  <path id="rect4805" style="fill:url(#linearGradient4825)" transform="rotate(90)" d="m56.121-66h17.758c1.175 0 2.121 0.94606 2.121 2.1212v39.758c0 1.175-0.946 2.121-2.121 2.121h-17.758c-1.175 0-2.121-0.946-2.121-2.121v-39.758c0-1.175 0.946-2.121 2.121-2.121z"/>
  <path id="path4811" style="opacity:.8;fill:url(#linearGradient4827)" d="m22 73.875c0 1.175 0.95 2.125 2.125 2.125h39.75c1.175 0 2.125-0.95 2.125-2.125v-17.75c0-1.175-0.95-2.125-2.125-2.125h-39.75c-1.175 0-2.125 0.95-2.125 2.125v17.75zm2.0312 0.09375c-0.01281-0.0128 0-0.05119 0-0.09375v-17.75c0-0.08512 0.0087-0.09375 0.09375-0.09375h39.75c0.08503 0 0.09375 0.0086 0.09375 0.09375v17.75c0 0.08512-0.0087 0.09375-0.09375 0.09375h-39.75c-0.04251 0-0.08094 0.0128-0.09375 0z"/>
  <path id="path4813" style="opacity:.2;fill:#f00" d="m20.156 49c-1.726 0-3.156 1.43-3.156 3.156v25.688c0 1.726 1.43 3.156 3.156 3.156h47.688c1.726 0 3.156-1.43 3.156-3.156v-25.688c0-1.726-1.43-3.156-3.156-3.156h-47.688zm0 1h47.688c1.187 0 2.156 0.969 2.156 2.156v25.688c0 1.187-0.969 2.156-2.156 2.156h-47.688c-1.187 0-2.156-0.969-2.156-2.156v-25.688c0-1.187 0.969-2.156 2.156-2.156z"/>
  <g id="text4254" style="fill:#333" transform="matrix(1.6657 0 0 1.6657 -9.9658 -15.306)">
   <path id="path4313" d="m47.744 32.44h-5.4785v-0.69824l4.1895-5.4199h-3.833v-0.76172h4.8926v0.67871l-4.1895 5.4395h4.4189v0.76172"/>
  </g>
  <g id="text4236" style="fill:#333" transform="matrix(1.5605 0 0 1.5605 -9.3758 -42.675)">
   <path id="path4292" d="m27.167 66.354c-0.39063 0.000006-0.73731 0.06511-1.04 0.19531-0.29948 0.13021-0.55176 0.31576-0.75684 0.55664-0.20182 0.24089-0.35482 0.5306-0.45898 0.86914-0.10417 0.33855-0.15625 0.71452-0.15625 1.1279-0.000002 0.41342 0.05534 0.79265 0.16602 1.1377 0.11393 0.3418 0.27506 0.6364 0.4834 0.88379 0.21159 0.2474 0.46875 0.43946 0.77148 0.57617 0.30599 0.13672 0.64941 0.20508 1.0303 0.20508 0.26692 0.000001 0.50944-0.03418 0.72754-0.10254 0.22135-0.07161 0.41992-0.1709 0.5957-0.29785 0.17903-0.12695 0.33854-0.27669 0.47852-0.44922 0.13997-0.17578 0.26367-0.36946 0.37109-0.58106l0.76172 0.38086c-0.1237 0.25716-0.2767 0.49642-0.45898 0.71777-0.1823 0.22136-0.39714 0.41341-0.64453 0.57617-0.24415 0.16276-0.52247 0.29134-0.83496 0.38574-0.30925 0.09115-0.65593 0.13672-1.04 0.13672-0.55664 0-1.0449-0.08789-1.4648-0.26367-0.41667-0.17904-0.7666-0.42643-1.0498-0.74219-0.27995-0.31901-0.48991-0.69661-0.62988-1.1328-0.13997-0.4362-0.20996-0.91308-0.20996-1.4307 0-0.5371 0.07324-1.0221 0.21973-1.4551 0.14974-0.43294 0.36621-0.80078 0.64941-1.1035 0.28646-0.30598 0.63802-0.54036 1.0547-0.70312 0.41666-0.16601 0.89192-0.24902 1.4258-0.24902 0.73242 0.000007 1.3444 0.14324 1.8359 0.42969 0.49153 0.28646 0.85286 0.71127 1.084 1.2744l-0.88379 0.29297c-0.06511-0.16276-0.153-0.31738-0.26367-0.46387-0.11068-0.14973-0.24903-0.28157-0.41504-0.39551-0.16602-0.11393-0.36133-0.20507-0.58594-0.27344-0.22136-0.06835-0.47526-0.10253-0.76172-0.10254"/>
   <path id="path4294" d="m33.231 72.535c-0.13347 0.03581-0.27018 0.06348-0.41016 0.08301-0.13672 0.02279-0.29623 0.03418-0.47852 0.03418-0.70313 0-1.0547-0.39876-1.0547-1.1963v-3.5254h-0.61035v-0.63965h0.64453l0.25879-1.1816h0.58594v1.1816h0.97656v0.63965h-0.97656v3.335c-0.000001 0.25391 0.04069 0.43294 0.12207 0.53711 0.08463 0.10091 0.22949 0.15137 0.43457 0.15137 0.08463 0 0.16601-0.0065 0.24414-0.01953 0.08138-0.01302 0.16927-0.0293 0.26367-0.04883v0.64941"/>
   <path id="path4296" d="m33.993 72.574v-4.0527c-0.000001-0.11067-0.0016-0.22298-0.0049-0.33691 0-0.11718-0.0016-0.22949-0.0049-0.33691s-0.0065-0.20833-0.0098-0.30273-0.0065-0.17903-0.0098-0.25391h0.83008c0.0033 0.07488 0.0065 0.16114 0.0098 0.25879 0.0065 0.09441 0.01139 0.19206 0.01465 0.29297 0.0065 0.10092 0.0098 0.19857 0.0098 0.29297 0.0033 0.09115 0.0049 0.16928 0.0049 0.23438h0.01953c0.06185-0.20182 0.12695-0.37597 0.19531-0.52246 0.07161-0.14973 0.15462-0.2718 0.24902-0.36621 0.0944-0.09765 0.2067-0.16926 0.33691-0.21484 0.13021-0.04882 0.28808-0.07324 0.47363-0.07324 0.07161 0.000006 0.13997 0.0065 0.20508 0.01953 0.0651 0.0098 0.11556 0.01954 0.15137 0.0293v0.80566c-0.0586-0.01627-0.12696-0.02766-0.20508-0.03418-0.07813-0.0098-0.16602-0.01464-0.26367-0.01465-0.20182 0.000005-0.37435 0.04558-0.51758 0.13672-0.13998 0.09115-0.25554 0.2181-0.34668 0.38086-0.08789 0.15951-0.153 0.35157-0.19531 0.57617-0.04232 0.22136-0.06348 0.46387-0.06348 0.72754v2.7539h-0.87891"/>
   <path id="path4298" d="m37.313 72.574v-7.2461h0.87891v7.2461h-0.87891"/>
  </g>
  <path id="path4836" style="opacity:.6;color:#000000;fill:#fff" d="m82 47c0 1.662-1.338 3-3 3h-7v1h7c1.662 0 3-1.338 3-3v-1zm-66 32v1c0 1.662 1.338 3 3 3h50c1.662 0 3-1.338 3-3v-1c0 1.662-1.338 3-3 3h-50c-1.662 0-3-1.338-3-3z"/>
  <path id="rect4885" style="opacity:.3;fill:#f00" d="m52.156 18c-1.187 0-2.156 0.969-2.156 2.156v25.688c0 1.187 0.969 2.156 2.156 2.156h25.688c1.187 0 2.156-0.969 2.156-2.156v-25.688c0-1.187-0.969-2.156-2.156-2.156h-25.688zm0 1.9688h25.688c0.10851 0 0.1875 0.07898 0.1875 0.1875v25.688c0 0.10852-0.079 0.1875-0.1875 0.1875h-25.688c-0.10851 0-0.1875-0.07898-0.1875-0.1875v-25.688c0-0.10852 0.079-0.1875 0.1875-0.1875z"/>
  <path id="rect4879" style="opacity:.8;fill:#f00" d="m52.156 18c-1.187 0-2.156 0.969-2.156 2.156v25.688c0 1.187 0.969 2.156 2.156 2.156h25.688c1.187 0 2.156-0.969 2.156-2.156v-25.688c0-1.187-0.969-2.156-2.156-2.156h-25.688zm0 0.9375h25.688c0.67346 0 1.2188 0.54529 1.2188 1.2188v25.688c0 0.67346-0.54529 1.2188-1.2188 1.2188h-25.688c-0.67346 0-1.2188-0.54529-1.2188-1.2188v-25.688c0-0.67346 0.54529-1.2188 1.2188-1.2188z"/>
  <path id="path4895" style="opacity:.3;fill:#f00" d="m20.156 50c-1.187 0-2.156 0.969-2.156 2.156v25.688c0 1.187 0.969 2.156 2.156 2.156h47.688c1.187 0 2.156-0.969 2.156-2.156v-25.688c0-1.187-0.969-2.156-2.156-2.156h-47.688zm0 1.9688h47.688c0.10851 0 0.1875 0.07898 0.1875 0.1875v25.688c0 0.10852-0.079 0.1875-0.1875 0.1875h-47.688c-0.10851 0-0.1875-0.07898-0.1875-0.1875v-25.688c0-0.10852 0.079-0.1875 0.1875-0.1875z"/>
  <path id="path4897" style="opacity:.8;fill:#f00" d="m20.156 50c-1.187 0-2.156 0.969-2.156 2.156v25.688c0 1.187 0.969 2.156 2.156 2.156h47.688c1.187 0 2.156-0.969 2.156-2.156v-25.688c0-1.187-0.969-2.156-2.156-2.156h-47.688zm0 0.9375h47.688c0.67346 0 1.2188 0.54529 1.2188 1.2188v25.688c0 0.67346-0.54529 1.2188-1.2188 1.2188h-47.688c-0.67346 0-1.2188-0.54529-1.2188-1.2188v-25.688c0-0.67346 0.54529-1.2188 1.2188-1.2188z"/>
 </g>
</svg>
