<?xml version="1.0" encoding="UTF-8" standalone="no"?>
<!-- Created with Inkscape (http://www.inkscape.org/) -->
<svg id="svg2408" xmlns:rdf="http://www.w3.org/1999/02/22-rdf-syntax-ns#" xmlns="http://www.w3.org/2000/svg" height="96" width="96" version="1.0" xmlns:cc="http://creativecommons.org/ns#" xmlns:xlink="http://www.w3.org/1999/xlink" xmlns:dc="http://purl.org/dc/elements/1.1/">
 <defs id="defs2410">
  <linearGradient id="linearGradient3837">
   <stop id="stop3839" offset="0"/>
   <stop id="stop3841" style="stop-opacity:0" offset="1"/>
  </linearGradient>
  <linearGradient id="linearGradient3614">
   <stop id="stop3616" style="stop-color:#c8c4b7" offset="0"/>
   <stop id="stop3618" style="stop-color:#e3e2db" offset="1"/>
  </linearGradient>
  <linearGradient id="linearGradient3737">
   <stop id="stop3739" style="stop-color:#fff" offset="0"/>
   <stop id="stop3741" style="stop-color:#fff;stop-opacity:0" offset="1"/>
  </linearGradient>
  <linearGradient id="linearGradient3188" y2="63.893" xlink:href="#linearGradient3737" gradientUnits="userSpaceOnUse" x2="36.357" gradientTransform="translate(-110)" y1="6" x1="36.357"/>
  <radialGradient id="radialGradient3619" xlink:href="#linearGradient3737" gradientUnits="userSpaceOnUse" cy="90.172" cx="48" gradientTransform="matrix(1.1573 0 0 .99591 -117.55 .19713)" r="42"/>
  <linearGradient id="linearGradient3650" y2="5.9877" xlink:href="#linearGradient3614" gradientUnits="userSpaceOnUse" x2="48" gradientTransform="translate(-110)" y1="90" x1="48"/>
  <radialGradient id="radialGradient3666" xlink:href="#linearGradient3737" gradientUnits="userSpaceOnUse" cy="88" cx="48" gradientTransform="translate(-110,10)" r="42"/>
  <linearGradient id="linearGradient3727" y2="42" gradientUnits="userSpaceOnUse" x2="48" y1="14" x1="48">
   <stop id="stop3723" style="stop-color:#949494" offset="0"/>
   <stop id="stop3731" style="stop-color:#aeaeae" offset=".19547"/>
   <stop id="stop3729" style="stop-color:#828282" offset=".66360"/>
   <stop id="stop3725" style="stop-color:#4d4d4d" offset="1"/>
  </linearGradient>
  <linearGradient id="linearGradient3742" y2="28" spreadMethod="reflect" gradientUnits="userSpaceOnUse" x2="48" y1="28" x1="41.844">
   <stop id="stop3737" offset="0"/>
   <stop id="stop3744" style="stop-opacity:.16279" offset=".5"/>
   <stop id="stop3740" style="stop-opacity:0" offset="1"/>
  </linearGradient>
  <radialGradient id="radialGradient3791" xlink:href="#linearGradient3737" gradientUnits="userSpaceOnUse" cy="19.5" cx="48" gradientTransform="matrix(1 0 0 .1 0 36.55)" r="5"/>
  <radialGradient id="radialGradient3807" xlink:href="#linearGradient3737" gradientUnits="userSpaceOnUse" cy="19.5" cx="48" gradientTransform="matrix(1 0 0 .1 0 33.55)" r="5"/>
  <radialGradient id="radialGradient3811" xlink:href="#linearGradient3737" gradientUnits="userSpaceOnUse" cy="19.5" cx="48" gradientTransform="matrix(1 0 0 .1 0 30.55)" r="5"/>
  <radialGradient id="radialGradient3815" xlink:href="#linearGradient3737" gradientUnits="userSpaceOnUse" cy="19.5" cx="48" gradientTransform="matrix(1 0 0 .1 0 27.55)" r="5"/>
  <radialGradient id="radialGradient3819" xlink:href="#linearGradient3737" gradientUnits="userSpaceOnUse" cy="19.5" cx="48" gradientTransform="matrix(1 0 0 .1 0 24.55)" r="5"/>
  <radialGradient id="radialGradient3823" xlink:href="#linearGradient3737" gradientUnits="userSpaceOnUse" cy="19.5" cx="48" gradientTransform="matrix(1 0 0 .1 0 21.55)" r="5"/>
  <radialGradient id="radialGradient3827" xlink:href="#linearGradient3737" gradientUnits="userSpaceOnUse" cy="19.5" cx="48" gradientTransform="matrix(1 0 0 .1 0 18.55)" r="5"/>
  <radialGradient id="radialGradient3831" xlink:href="#linearGradient3737" gradientUnits="userSpaceOnUse" cy="19.5" cx="48" gradientTransform="matrix(1 0 0 .1 0 15.55)" r="5"/>
  <radialGradient id="radialGradient3843" xlink:href="#linearGradient3837" gradientUnits="userSpaceOnUse" cy="37.5" cx="48" gradientTransform="matrix(1 0 0 .1 0 33.75)" r="5"/>
  <radialGradient id="radialGradient3847" xlink:href="#linearGradient3837" gradientUnits="userSpaceOnUse" cy="37.5" cx="48" gradientTransform="matrix(1 0 0 .1 0 30.75)" r="5"/>
  <radialGradient id="radialGradient3851" xlink:href="#linearGradient3837" gradientUnits="userSpaceOnUse" cy="37.5" cx="48" gradientTransform="matrix(1 0 0 .1 0 27.75)" r="5"/>
  <radialGradient id="radialGradient3855" xlink:href="#linearGradient3837" gradientUnits="userSpaceOnUse" cy="37.5" cx="48" gradientTransform="matrix(1 0 0 .1 0 24.75)" r="5"/>
  <radialGradient id="radialGradient3859" xlink:href="#linearGradient3837" gradientUnits="userSpaceOnUse" cy="37.5" cx="48" gradientTransform="matrix(1 0 0 .1 0 21.75)" r="5"/>
  <radialGradient id="radialGradient3863" xlink:href="#linearGradient3837" gradientUnits="userSpaceOnUse" cy="37.5" cx="48" gradientTransform="matrix(1 0 0 .1 0 18.75)" r="5"/>
  <radialGradient id="radialGradient3867" xlink:href="#linearGradient3837" gradientUnits="userSpaceOnUse" cy="37.5" cx="48" gradientTransform="matrix(1 0 0 .1 0 15.75)" r="5"/>
  <radialGradient id="radialGradient3871" xlink:href="#linearGradient3837" gradientUnits="userSpaceOnUse" cy="37.5" cx="48" gradientTransform="matrix(1 0 0 .1 0 12.75)" r="5"/>
  <linearGradient id="linearGradient3895" y2="48" gradientUnits="userSpaceOnUse" x2="48" y1="8" x1="48">
   <stop id="stop3891" style="stop-color:#a49e89" offset="0"/>
   <stop id="stop3893" style="stop-color:#fff" offset="1"/>
  </linearGradient>
  <filter id="filter3903" height="2.3636" width="1.0921" color-interpolation-filters="sRGB" y="-.68178" x="-.046066">
   <feGaussianBlur id="feGaussianBlur3905" stdDeviation="1.4203751"/>
  </filter>
  <linearGradient id="linearGradient3688">
   <stop id="stop3690" style="stop-color:#333" offset="0"/>
   <stop id="stop3692" style="stop-color:#595959" offset="1"/>
  </linearGradient>
  <linearGradient id="linearGradient3982" y2="8" xlink:href="#linearGradient3688" gradientUnits="userSpaceOnUse" x2="16" y1="88" x1="16"/>
  <filter id="filter3689" color-interpolation-filters="sRGB">
   <feGaussianBlur id="feGaussianBlur3691" stdDeviation="1.71"/>
  </filter>
  <linearGradient id="linearGradient2961" y2="7.0165" gradientUnits="userSpaceOnUse" x2="45.448" gradientTransform="scale(1.0059 .99417)" y1="92.54" x1="45.448">
   <stop id="stop3750-61" offset="0"/>
   <stop id="stop3752-0" style="stop-opacity:.58824" offset="1"/>
  </linearGradient>
  <linearGradient id="linearGradient2981" y2="5.9877" xlink:href="#linearGradient3614" gradientUnits="userSpaceOnUse" x2="48" gradientTransform="translate(-210)" y1="90" x1="48"/>
  <linearGradient id="linearGradient3790" y2="64" xlink:href="#linearGradient3737" gradientUnits="userSpaceOnUse" x2="40" y1="8" x1="40"/>
  <radialGradient id="radialGradient3996-1" xlink:href="#linearGradient3837" gradientUnits="userSpaceOnUse" cy="76.396" cx="7.2183" gradientTransform="matrix(.94118 -1.4641e-7 4.3924e-7 2.8235 1.2062 -127.71)" r="17"/>
  <radialGradient id="radialGradient3994-8" xlink:href="#linearGradient3837" gradientUnits="userSpaceOnUse" cy="64.19" cx="93.667" gradientTransform="matrix(-1.4118 0 2.3529e-8 4.7059 132.24 -214.07)" r="17"/>
  <radialGradient id="radialGradient3988-6" xlink:href="#linearGradient3837" gradientUnits="userSpaceOnUse" cy="76.396" cx="7.2183" gradientTransform="matrix(-.94118 -1.4641e-7 -4.3924e-7 2.8235 94.794 -127.71)" r="17"/>
  <radialGradient id="radialGradient3023" xlink:href="#linearGradient3837" gradientUnits="userSpaceOnUse" cy="64.19" cx="93.667" gradientTransform="matrix(1.4118 0 -2.3529e-8 4.7059 -36.235 -214.07)" r="17"/>
  <linearGradient id="ButtonShadow-0" y2="7.0165" gradientUnits="userSpaceOnUse" x2="45.448" gradientTransform="matrix(1.0059 0 0 .99417 100 0)" y1="92.54" x1="45.448">
   <stop id="stop3750-8" offset="0"/>
   <stop id="stop3752-5" style="stop-opacity:.58824" offset="1"/>
  </linearGradient>
  <linearGradient id="linearGradient3780" y2="90.239" xlink:href="#ButtonShadow-0" gradientUnits="userSpaceOnUse" x2="32.251" gradientTransform="matrix(1.0238 0 0 1.0119 -1.1429 -98.071)" y1="6.1317" x1="32.251"/>
  <linearGradient id="linearGradient3725" y2="90.239" xlink:href="#ButtonShadow-0" gradientUnits="userSpaceOnUse" x2="32.251" gradientTransform="matrix(1.0238 0 0 1.0119 98.857 -98.071)" y1="6.1317" x1="32.251"/>
  <linearGradient id="linearGradient3721-4" y2="90.239" xlink:href="#ButtonShadow-0" gradientUnits="userSpaceOnUse" x2="32.251" gradientTransform="translate(100,-97)" y1="6.1317" x1="32.251"/>
  <linearGradient id="linearGradient3055" y2="5.9877" xlink:href="#ButtonShadow-0" gradientUnits="userSpaceOnUse" x2="48" gradientTransform="translate(0,1)" y1="90" x1="48"/>
  <linearGradient id="linearGradient3961" y2="8" xlink:href="#linearGradient3688" gradientUnits="userSpaceOnUse" x2="16" gradientTransform="matrix(-1,0,0,1,96,0)" y1="88" x1="16"/>
  <linearGradient id="linearGradient3998" y2="5.9877" xlink:href="#linearGradient3614" gradientUnits="userSpaceOnUse" x2="48" y1="90" x1="48"/>
 </defs>
 <metadata id="metadata2413">
  <rdf:RDF>
   <cc:Work rdf:about="">
    <dc:format>image/svg+xml</dc:format>
    <dc:type rdf:resource="http://purl.org/dc/dcmitype/StillImage"/>
   </cc:Work>
  </rdf:RDF>
 </metadata>
 <g id="layer2" style="display:none">
  <path id="rect3745" style="opacity:.9;filter:url(#filter3689);display:inline;fill:url(#linearGradient2961)" d="m11 7c-3.324 0-6 2.676-6 6v5 16c0 15.18 5 20.149 5 40v12c0 3.3137 2.6863 6 6 6h64c3.3137 0 6-2.6863 6-6v-12c0-19.851 5-24.82 5-40v-16-5c0-3.324-2.676-6-6-6h-74z"/>
 </g>
 <g id="layer4">
  <path id="path3941" style="opacity:0.08;fill:url(#linearGradient3055)" d="m12 4.0312c-5.4807 0-9.9688 4.4881-9.9688 9.9688v10 1 8c0 7.9197 1.3539 13.299 2.5938 18.875 1.2403 5.578 2.4062 11.445 2.4062 21.125v7 5c0 5.4807 4.4881 9.9688 9.9688 9.9688h13 42 7c5.4807 0 9.9688-4.4881 9.9688-9.9688v-11-1c0-9.6802 1.1659-15.547 2.4062-21.125 1.24-5.576 2.594-10.955 2.594-18.875v-9-10c0-5.4807-4.488-9.9688-9.969-9.9688h-12-47-1-12z"/>
  <path id="path3933" style="opacity:.1;fill:url(#linearGradient3055)" d="m12 5.0625c-4.9227 0-8.9375 4.0148-8.9375 8.9375v10 1 8c0 7.8041 1.3188 13.064 2.5625 18.656 1.2438 5.593 2.4375 11.58 2.4375 21.344v7 5c0 4.9227 4.0148 8.9375 8.9375 8.9375h13 42 7c4.9227 0 8.9375-4.0148 8.9375-8.9375v-11-1c0-9.7638 1.1937-15.751 2.4375-21.344 1.243-5.592 2.562-10.852 2.562-18.656v-9-10c0-4.9227-4.015-8.9375-8.938-8.9375h-12-47-1-12z"/>
  <path id="path3925" style="opacity:.2;fill:url(#linearGradient3055)" d="m12 6c-4.4183 0-8 3.5817-8 8v10 1 8c0 7.7 1.2845 12.862 2.5312 18.469 1.2468 5.606 2.4688 11.69 2.4688 21.531v7 5c0 4.4183 3.5817 8 8 8h13 42 7c4.4183 0 8-3.5817 8-8v-11-1c0-9.841 1.222-15.925 2.469-21.531 1.247-5.607 2.531-10.769 2.531-18.469v-9-10c0-4.4183-3.582-8-8-8h-12-47-1-12z"/>
  <path id="path3829" style="opacity:.3;fill:url(#linearGradient3055)" d="m12 7c-3.878 0-7 3.122-7 7v10 1 8c0 15.18 5 20.149 5 40v7 5c0 3.878 3.122 7 7 7h13 42 7c3.878 0 7-3.122 7-7v-11-1c0-19.851 5-24.82 5-40v-9-10c0-3.878-3.122-7-7-7h-12-47-1-12z"/>
  <path id="path3786" style="opacity:0.08;fill:url(#linearGradient3780)" d="m12-95.031c-5.5111 0-10.031 4.5202-10.031 10.031v71c0 5.5111 4.5202 10.031 10.031 10.031h72c5.5111 0 10.031-4.5202 10.031-10.031v-71c0-5.5111-4.5202-10.031-10.031-10.031h-72z" transform="matrix(1,0,0,-1,100,0)"/>
  <path id="path3778" style="opacity:.1;fill:url(#linearGradient3780)" d="m12-94.031c-4.9716 0-9.0312 4.0596-9.0312 9.0312v71c0 4.9716 4.0596 9.0312 9.0312 9.0312h72c4.9716 0 9.0312-4.0596 9.0312-9.0312v-71c0-4.9716-4.0596-9.0312-9.0312-9.0312h-72z" transform="matrix(1,0,0,-1,100,0)"/>
  <path id="path3770" style="opacity:.2;fill:url(#linearGradient3780)" d="m12-93c-4.4091 0-8 3.5909-8 8v71c0 4.4091 3.5909 8 8 8h72c4.4091 0 8-3.5909 8-8v-71c0-4.4091-3.5909-8-8-8h-72z" transform="matrix(1,0,0,-1,100,0)"/>
  <rect id="rect3723" style="opacity:.3;fill:url(#linearGradient3725)" transform="scale(1,-1)" rx="7" ry="7" height="85" width="86" y="-92" x="105"/>
  <rect id="rect3716" style="opacity:.45;fill:url(#linearGradient3721-4)" transform="scale(1,-1)" rx="6" ry="6" height="84" width="84" y="-91" x="106"/>
  <path id="path3045" style="opacity:.45;fill:url(#linearGradient3055)" d="m12 7c-3.324 0-6 2.676-6 6v4 16c0 15.18 5 20.149 5 40v12c0 3.3137 2.6863 6 6 6h9 44 4 5c3.3137 0 6-2.6863 6-6v-12c0-19.851 5-24.82 5-40v-16-4c0-3.1162-2.342-5.6626-5.375-5.9688-0.202-0.0204-0.417-0.0312-0.625-0.0312h-72z"/>
 </g>
 <g id="layer1">
  <path id="rect2419" style="fill:url(#linearGradient3998)" d="m21 6c-2.7614 0-5 2.2386-5 5v7 14c0 14.107 10 24 10 44v14h44v-14c0-20 10-29.893 10-44v-14-7c0-2.7614-2.239-5-5-5h-1-5-40-7-1zm63 0c0.20775 0 0.42281 0.010839 0.625 0.03125 0.47885 0.048339 0.93709 0.15905 1.375 0.3125v-0.3438h-2z"/>
  <path id="path4051" style="opacity:.6;block-progression:tb;text-indent:0;color:#000000;text-transform:none;fill:#fff" d="m45.606 6v46.938 0.03125c0.000079 0.01112 0 0.03722 0 0.03125 0 1.1368 0.95694 2.0938 2.0938 2.0938 1.1368 0 2.0938-0.95694 2.0938-2.0938 0 0.006-0.000079-0.02013 0-0.03125s0.000863-0.0041 0-0.03125v-46.938h-4.1875z"/>
  <rect id="rect3648" style="fill:url(#linearGradient3650)" rx="6" ry="6" height="84" width="84" y="6" x="-104"/>
  <rect id="rect3897" style="opacity:.2;filter:url(#filter3903);fill:#fff" transform="matrix(1 0 0 2.252 0 -7.8374)" rx="8" ry="2.5" height="5" width="74" y="11" x="11"/>
  <path id="rect3728" style="opacity:.5;fill:url(#linearGradient3188)" d="m-98 6c-3.324 0-6 2.676-6 6v2 68 2c0 0.33472 0.0413 0.6507 0.0937 0.96875 0.0487 0.2956 0.097 0.59692 0.1875 0.875 0.01 0.03038 0.0209 0.0636 0.0312 0.09375 0.0989 0.28777 0.23488 0.54745 0.375 0.8125 0.14459 0.27351 0.31562 0.53562 0.5 0.78125 0.18438 0.24564 0.37378 0.47347 0.59375 0.6875 0.43995 0.42806 0.94291 0.81453 1.5 1.0938 0.27854 0.13961 0.57347 0.24695 0.875 0.34375-0.2562-0.10022-0.48671-0.23627-0.71875-0.375-0.007-0.0044-0.0239 0.0045-0.0312 0-0.0319-0.0193-0.0623-0.04251-0.0937-0.0625-0.1204-0.0767-0.23102-0.16351-0.34375-0.25-0.10617-0.0808-0.21328-0.16111-0.3125-0.25-0.17793-0.16143-0.34746-0.34539-0.5-0.53125-0.10758-0.13026-0.21839-0.26528-0.3125-0.40625-0.0251-0.03838-0.0384-0.08587-0.0625-0.125-0.0648-0.10303-0.13023-0.20452-0.1875-0.3125-0.10101-0.19471-0.20568-0.4157-0.28125-0.625-0.008-0.02181-0.0236-0.04055-0.0312-0.0625-0.0318-0.09195-0.0358-0.18683-0.0625-0.28125-0.0303-0.10662-0.0704-0.20303-0.0937-0.3125-0.08-0.342-0.13-0.699-0.13-1.063v-2-68-2c0-2.7818 2.2182-5 5-5h2 68 2c2.7818 0 5 2.2182 5 5v2 68 2c0 0.3643-0.05212 0.72099-0.125 1.0625-0.04415 0.20689-0.08838 0.39766-0.15625 0.59375-0.0077 0.02195-0.0233 0.04069-0.03125 0.0625-0.06274 0.17374-0.13838 0.36745-0.21875 0.53125-0.04158 0.0828-0.07904 0.16995-0.125 0.25-0.0546 0.09721-0.12677 0.18835-0.1875 0.28125-0.09411 0.14096-0.20492 0.276-0.3125 0.40625-0.14317 0.17445-0.30314 0.347-0.46875 0.5-0.01117 0.0102-0.01998 0.02115-0.03125 0.03125-0.13839 0.12556-0.28509 0.23444-0.4375 0.34375-0.10257 0.07315-0.20432 0.15336-0.3125 0.21875-0.0074 0.0045-0.02384-0.0044-0.03125 0-0.23204 0.13873-0.46255 0.27478-0.71875 0.375 0.30153-0.0968 0.59646-0.20414 0.875-0.34375 0.55709-0.27922 1.0601-0.66569 1.5-1.0938 0.21997-0.21403 0.40937-0.44186 0.59375-0.6875s0.35541-0.50774 0.5-0.78125c0.14012-0.26505 0.27614-0.52473 0.375-0.8125 0.01041-0.03078 0.02133-0.06274 0.03125-0.09375 0.09046-0.27808 0.1388-0.5794 0.1875-0.875 0.053-0.318 0.094-0.634 0.094-0.969v-2-68-2c0-3.324-2.676-6-6-6h-72z"/>
  <path id="path3646" style="opacity:.50410;fill:#f00" d="m-110 16v76h11v-2h6c-3.3137 0-6-2.6863-6-6v-12c0-19.851-5-24.82-5-40v-16h-6zm90 0v16c0 15.18-5 20.149-5 40v12c0 3.3137-2.6863 6-6 6h6v2h11v-76h-6z"/>
  <path id="path3615" style="opacity:.2;fill:url(#radialGradient3619)" d="m-98 90c-3.324 0-6-2.676-6-6v-2-68-2c0-0.33472 0.0413-0.6507 0.0937-0.96875 0.0487-0.2956 0.097-0.59692 0.1875-0.875 0.01-0.03038 0.0209-0.0636 0.0312-0.09375 0.0989-0.28777 0.23488-0.54745 0.375-0.8125 0.14459-0.27351 0.31562-0.53562 0.5-0.78125 0.18438-0.24564 0.37378-0.47347 0.59375-0.6875 0.43995-0.42806 0.94291-0.81453 1.5-1.0938 0.27854-0.13961 0.57347-0.24695 0.875-0.34375-0.2562 0.10022-0.48671 0.23627-0.71875 0.375-0.007 0.0044-0.0239-0.0045-0.0312 0-0.0319 0.0193-0.0623 0.04251-0.0937 0.0625-0.1204 0.0767-0.23102 0.16351-0.34375 0.25-0.10617 0.0808-0.21328 0.16111-0.3125 0.25-0.17793 0.16143-0.34746 0.34539-0.5 0.53125-0.10758 0.13026-0.21839 0.26528-0.3125 0.40625-0.0251 0.03838-0.0384 0.08587-0.0625 0.125-0.0648 0.10303-0.13023 0.20452-0.1875 0.3125-0.10101 0.19471-0.20568 0.4157-0.28125 0.625-0.008 0.02181-0.0236 0.04055-0.0312 0.0625-0.0318 0.09195-0.0358 0.18683-0.0625 0.28125-0.0303 0.10662-0.0704 0.20303-0.0937 0.3125-0.08 0.3417-0.13 0.6987-0.13 1.0627v2 68 2c0 2.7818 2.2182 5 5 5h2 68 2c2.7818 0 5-2.2182 5-5v-2-68-2c0-0.3643-0.05212-0.72099-0.125-1.0625-0.04415-0.20689-0.08838-0.39766-0.15625-0.59375-0.0077-0.02195-0.0233-0.04069-0.03125-0.0625-0.06274-0.17374-0.13838-0.36745-0.21875-0.53125-0.04158-0.0828-0.07904-0.16995-0.125-0.25-0.0546-0.09721-0.12677-0.18835-0.1875-0.28125-0.09411-0.14096-0.20492-0.276-0.3125-0.40625-0.14317-0.17445-0.30314-0.347-0.46875-0.5-0.01117-0.0102-0.01998-0.02115-0.03125-0.03125-0.13839-0.12556-0.28509-0.23444-0.4375-0.34375-0.10257-0.07315-0.20432-0.15336-0.3125-0.21875-0.0074-0.0045-0.02384 0.0044-0.03125 0-0.23204-0.13873-0.46255-0.27478-0.71875-0.375 0.30153 0.0968 0.59646 0.20414 0.875 0.34375 0.55709 0.27922 1.0601 0.66569 1.5 1.0938 0.21997 0.21403 0.40937 0.44186 0.59375 0.6875s0.35541 0.50774 0.5 0.78125c0.14012 0.26505 0.27614 0.52473 0.375 0.8125 0.01041 0.03078 0.02133 0.06274 0.03125 0.09375 0.09046 0.27808 0.1388 0.5794 0.1875 0.875 0.053 0.318 0.094 0.634 0.094 0.969v2 68 2c0 3.324-2.676 6-6 6h-72z"/>
  <path id="path3653" style="opacity:.2;fill:url(#radialGradient3666)" d="m-98 16c-3.324 0-6 2.676-6 6v4 16c0 15.18 5 20.149 5 40v12c0 3.3137 2.6863 6 6 6h62c3.3137 0 6-2.6863 6-6v-12c0-19.851 5-24.82 5-40v-16-4c0-3.324-2.676-6-6-6h-72zm0 2.0312h72c2.2406 0 3.9688 1.7282 3.9688 3.9688v4 16c0 7.3682-1.1811 12.162-2.4375 17.812-1.2564 5.6501-2.5625 12.092-2.5625 22.188v12c0 2.2228-1.746 3.9688-3.9688 3.9688h-62c-2.2228 0-3.9688-1.746-3.9688-3.9688v-12c0-10.095-1.3061-16.537-2.5625-22.188-1.2564-5.6501-2.4375-10.444-2.4375-17.812v-16-4c0-2.2406 1.7282-3.9688 3.9688-3.9688z"/>
  <path id="path3879" style="opacity:.9;fill:url(#linearGradient3895)" d="m48 9.9688c-5.53 0-10.031 4.5012-10.031 10.031v16c0 5.5299 4.5014 10.031 10.031 10.031 5.5299 0 10.031-4.5014 10.031-10.031v-16c0-5.53-4.501-10.031-10.031-10.031z"/>
  <path id="path3711" style="opacity:.9;block-progression:tb;text-indent:0;color:#000000;text-transform:none" d="m46.7 6v46.969c-0.000342 0.01075 0 0.02042 0 0.03125 0 0.55228 0.44772 1 1 1s1-0.44772 1-1c0-0.01083 0.000342-0.0205 0-0.03125v-46.969h-2z"/>
  <rect id="rect3713" style="opacity:.9" rx="8" ry="8" height="32" width="16" y="12" x="40"/>
  <path id="path3719" style="opacity:0.99;fill:url(#linearGradient3727)" d="m48 13.844c-3.4393 0-6.1562 2.7169-6.1562 6.1562v16c0 3.4393 2.7169 6.1562 6.1562 6.1562s6.1562-2.7169 6.1562-6.1562v-16c0-3.4393-2.7169-6.1562-6.1562-6.1562z"/>
  <path id="path3733" style="opacity:.5;fill:url(#linearGradient3742)" d="m48 13.844c-3.4393 0-6.1562 2.7169-6.1562 6.1562v16c0 3.4393 2.7169 6.1562 6.1562 6.1562s6.1562-2.7169 6.1562-6.1562v-16c0-3.4393-2.7169-6.1562-6.1562-6.1562z"/>
  <rect id="rect3789" style="opacity:.4;fill:url(#radialGradient3791)" height="1" width="10" y="38" x="43"/>
  <rect id="rect3805" style="opacity:.4;fill:url(#radialGradient3807)" height="1" width="10" y="35" x="43"/>
  <rect id="rect3809" style="opacity:.4;fill:url(#radialGradient3811)" height="1" width="10" y="32" x="43"/>
  <rect id="rect3813" style="opacity:.4;fill:url(#radialGradient3815)" height="1" width="10" y="29" x="43"/>
  <rect id="rect3817" style="opacity:.4;fill:url(#radialGradient3819)" height="1" width="10" y="26" x="43"/>
  <rect id="rect3821" style="opacity:.4;fill:url(#radialGradient3823)" height="1" width="10" y="23" x="43"/>
  <rect id="rect3825" style="opacity:.4;fill:url(#radialGradient3827)" height="1" width="10" y="20" x="43"/>
  <rect id="rect3829" style="opacity:.4;fill:url(#radialGradient3831)" height="1" width="10" y="17" x="43"/>
  <rect id="rect3833" style="opacity:.6;fill:url(#radialGradient3843)" height="1" width="10" y="37" x="43"/>
  <rect id="rect3845" style="opacity:.6;fill:url(#radialGradient3847)" height="1" width="10" y="34" x="43"/>
  <rect id="rect3849" style="opacity:.6;fill:url(#radialGradient3851)" height="1" width="10" y="31" x="43"/>
  <rect id="rect3853" style="opacity:.4;fill:url(#radialGradient3855)" height="1" width="10" y="28" x="43"/>
  <rect id="rect3857" style="opacity:.6;fill:url(#radialGradient3859)" height="1" width="10" y="25" x="43"/>
  <rect id="rect3861" style="opacity:.6;fill:url(#radialGradient3863)" height="1" width="10" y="22" x="43"/>
  <rect id="rect3865" style="opacity:.6;fill:url(#radialGradient3867)" height="1" width="10" y="19" x="43"/>
  <rect id="rect3869" style="opacity:.6;fill:url(#radialGradient3871)" height="1" width="10" y="16" x="43"/>
  <path id="path3942" style="fill:url(#linearGradient3982)" d="m12 6c-3.324 0-6 2.676-6 6v4 16c0 15.18 5 20.149 5 40v12c0 3.3137 2.6863 6 6 6h9v-14c0-20-10-29.893-10-44v-21c0-2.7614 2.2386-5 5-5h-5-4z"/>
  <path id="path3984" style="fill:url(#linearGradient3961)" d="m75 6c2.7614 0 5 2.2386 5 5v21c0 14.107-10 24-10 44v14h9c3.3137 0 6-2.6863 6-6v-12c0-19.851 5-24.82 5-40v-16-4c0-3.1162-2.342-5.6626-5.375-5.9688-0.202-0.0204-0.417-0.0312-0.625-0.0312h-9z"/>
  <path id="path3988" style="opacity:.6;fill:#fff" d="m21 6c-2.7614 0-5 2.2386-5 5v21c0 14.107 10 24 10 44v14h1v-14c0-20-10-29.893-10-44v-21c0-2.7614 2.2386-5 5-5h-1z"/>
  <path id="path3998" style="opacity:.6;fill:#fff" d="m75 6c2.7614 0 5 2.2386 5 5v21c0 14.107-10 24-10 44v14h-1v-14c0-20 10-29.893 10-44v-21c0-2.7614-2.239-5-5-5h1z"/>
  <path id="path4142" style="opacity:.2" d="m50.969 57.438c-1.343-0.091-1.757 1.503-1.531 2.562 0.33007 0.71508 1.1761 0.53642 1.5625 0 0.78726-0.59826 1.4054-2.3943-0.03125-2.5625zm4.031 1.562c-1.0507 0.06588-2.1128 1.0512-1.9375 2.125 1.121 1.125 4.107-0.244 2.938-1.844-0.295-0.212-0.65-0.303-1-0.281zm-7 1c-3.3137 0-6 2.6863-6 6s2.6863 6 6 6 6-2.6863 6-6c0-0.16579-0.01806-0.33761-0.03125-0.5-0.256 2.521-2.38 4.5-4.969 4.5-2.761 0-5-2.239-5-5 0-2.589 1.979-4.713 4.5-4.969-0.162-0.013-0.334-0.031-0.5-0.031zm1 2c-1.6569 0-3 1.3431-3 3s1.3431 3 3 3 3-1.3431 3-3-1.3431-3-3-3zm7.4688 1.2188c-1.133-0.014-2.58 0.822-1.094 2.031 0.502 0.374 1.213 0.16 1.625-0.25 1.0394-1.2546 0.3497-1.7703-0.53125-1.7812z"/>
  <g id="text4148" style="opacity:.2">
   <path id="path3946" d="m41.494 74.928v0.76478h1.2647v0.39993h-1.2647v0.90686h-0.51746v-2.4715h1.8225v0.39993h-1.305"/>
   <path id="path3948" d="m44.723 77-0.21926-0.63147h-0.94194l-0.219 0.631h-0.51746l0.9016-2.4715h0.61042l0.898 2.472h-0.513m-0.57885-1.7313c-0.01403-0.04093-0.02807-0.08186-0.0421-0.12279-0.01287-0.0421-0.02456-0.0801-0.03508-0.11402-0.0094-0.03508-0.01754-0.06373-0.02456-0.08595-0.0058-0.02222-0.0094-0.0345-0.01053-0.03684-0.0012 0.0035-0.0047 0.01637-0.01052 0.03859-0.0058 0.02222-0.01403 0.05029-0.02456 0.0842-0.0094 0.03391-0.02105 0.07192-0.03508 0.11402-0.01287 0.04093-0.02631 0.08186-0.04034 0.12279l-0.24382 0.7104h0.7104l-0.24382-0.7104"/>
   <path id="path3950" d="m45.572 77v-2.4715h1.9435v0.39993h-1.4261v0.62095h1.3191v0.39993h-1.3191v0.65077h1.498v0.39993h-2.0154"/>
   <path id="path3952" d="m49.477 77-1.077-1.9032c0.0058 0.05145 0.01111 0.10291 0.01579 0.15436 0.0047 0.04444 0.0082 0.09238 0.01053 0.14384 0.0035 0.05146 0.0053 0.10057 0.0053 0.14734v1.4576h-0.45957v-2.4715h0.59113l1.0928 1.919c-0.0058-0.04911-0.01111-0.10057-0.01579-0.15436-0.0047-0.04561-0.0088-0.09706-0.01228-0.15436-0.0023-0.0573-0.0035-0.11518-0.0035-0.17366v-1.4366h0.45957v2.4715h-0.60691"/>
   <path id="path3954" d="m52.419 77h-1.9839v-0.3666l1.3366-1.6997h-1.2033v-0.40519h1.7786v0.35959l-1.3366 1.7067h1.4085v0.40519"/>
   <path id="path3956" d="m54.511 77-0.21926-0.63147h-0.94194l-0.219 0.631h-0.51746l0.9016-2.4715h0.61042l0.897 2.472h-0.512m-0.579-1.731c-0.01403-0.04093-0.02807-0.08186-0.0421-0.12279-0.01286-0.0421-0.02456-0.0801-0.03508-0.11402-0.0094-0.03508-0.01754-0.06373-0.02456-0.08595-0.0058-0.02222-0.0094-0.0345-0.01052-0.03684-0.0012 0.0035-0.0047 0.01637-0.01052 0.03859-0.0058 0.02222-0.01403 0.05029-0.02456 0.0842-0.0094 0.03391-0.02105 0.07192-0.03508 0.11402-0.01287 0.04093-0.02631 0.08186-0.04034 0.12279l-0.24382 0.7104h0.7104l-0.24382-0.7104"/>
  </g>
  <path id="rect2979" style="fill:url(#linearGradient2981)" d="m-198 6c-3.324 0-6 2.676-6 6v4 16c0 15.18 5 20.149 5 40v12c0 3.3137 2.6863 6 6 6h62c3.3137 0 6-2.6863 6-6v-12c0-19.851 5-24.82 5-40v-16-4c0-3.324-2.676-6-6-6h-72z"/>
  <path id="path3785" style="opacity:.5;fill:url(#linearGradient3790)" d="m22 6c-1.7976 0-3.4022 0.7867-4.5 2.0312h61c-1.098-1.2445-2.702-2.0312-4.5-2.0312h-52zm-0.625 83.969c0.202 0.02 0.417 0.031 0.625 0.031h52c0.20775 0 0.42281-0.01084 0.625-0.03125h-53.25z"/>
  <path id="path3670" style="opacity:.25;fill:url(#linearGradient3790)" d="m12 6c-3.324 0-6 2.676-6 6v4 16c0 15.18 5 20.149 5 40v12c0 3.3137 2.6863 6 6 6h9v-0.03125h-9c-2.7629 0-4.9688-2.2059-4.9688-4.9688v-12c0-10.011-1.278-16.333-2.531-21.969-1.2532-5.636-2.4688-10.553-2.4688-18.031v-16-4c0-2.777 2.1918-4.9688 4.9688-4.9688h5c0.912-1.2192 2.36-2.0312 4-2.0312h-5-4zm63 0c1.6396 0 3.0882 0.81202 4 2.0312h5c2.777 0 4.9688 2.1918 4.9688 4.9688v4 16c0 7.4779-1.2155 12.395-2.4688 18.031-1.253 5.636-2.531 11.958-2.531 21.969v12c0 2.7629-2.2059 4.9688-4.9688 4.9688h-9v0.03125h9c0.62132 0 1.2176-0.10594 1.7812-0.28125 2.443-0.76 4.219-3.027 4.219-5.719v-12c0-19.851 5-24.82 5-40v-16-4c0-0.21614-0.0093-0.4149-0.03125-0.625-0.0171-0.1694-0.03171-0.33514-0.0625-0.5-0.006-0.031-0.025-0.063-0.031-0.094-0.033-0.162-0.079-0.311-0.125-0.469-0.009-0.031-0.022-0.062-0.031-0.093-0.045-0.144-0.07-0.2985-0.125-0.4378-0.017-0.0435-0.045-0.0819-0.063-0.125-0.052-0.1241-0.096-0.2553-0.156-0.375-0.027-0.0541-0.065-0.1031-0.094-0.1562-0.059-0.1099-0.121-0.2069-0.187-0.3125-0.036-0.0574-0.088-0.1002-0.125-0.1563-0.021-0.0308-0.041-0.0632-0.063-0.0937-0.09-0.1296-0.181-0.2532-0.281-0.375-0.061-0.074-0.123-0.1478-0.187-0.2187-0.173-0.1902-0.368-0.3648-0.563-0.5313-0.022-0.019-0.04-0.0438-0.063-0.0625-0.148-0.1221-0.309-0.2361-0.468-0.3438-0.052-0.0347-0.104-0.0605-0.156-0.0937-0.11-0.0686-0.199-0.1571-0.313-0.2187-0.04-0.022-0.084-0.0415-0.125-0.0626-0.132-0.0677-0.268-0.1295-0.406-0.1874-0.03-0.0127-0.064-0.0192-0.094-0.0313-0.149-0.0596-0.314-0.1085-0.469-0.1563-0.022-0.0068-0.04-0.0246-0.062-0.0312-0.168-0.0496-0.327-0.0899-0.5-0.125-0.01-0.002-0.021 0.002-0.031 0-0.184-0.0362-0.373-0.0746-0.563-0.0938-0.202-0.0204-0.417-0.0312-0.625-0.0312h-9z"/>
 </g>
 <g id="layer3">
  <path id="rect3973" style="opacity:.5;fill:url(#radialGradient3023)" d="m56 6v84h23c3.3137 0 6-2.6863 6-6v-12c0-19.851 5-24.82 5-40v-16-4c0-3.324-2.676-6-6-6h-28z"/>
  <path id="path3986" style="opacity:.9;fill:url(#radialGradient3988-6)" d="m90 32c0 15.18-5 20.149-5 40v12c0 3.3137-2.6863 6-6 6h-23v-58h34z"/>
  <path id="path3990" style="opacity:.5;fill:url(#radialGradient3994-8)" d="m40 6v84h-23c-3.3137 0-6-2.6863-6-6v-12c0-19.851-5-24.82-5-40v-16-4c0-3.324 2.676-6 6-6h28z"/>
  <path id="path3992" style="opacity:.9;fill:url(#radialGradient3996-1)" d="m6 32c0 15.18 5 20.149 5 40v12c0 3.3137 2.6863 6 6 6h23v-58h-34z"/>
 </g>
</svg>
