<?xml version="1.0" encoding="UTF-8" standalone="no"?>
<!-- Created with Inkscape (http://www.inkscape.org/) -->
<svg id="svg2408" xmlns:rdf="http://www.w3.org/1999/02/22-rdf-syntax-ns#" xmlns="http://www.w3.org/2000/svg" height="96" width="96" version="1.0" xmlns:cc="http://creativecommons.org/ns#" xmlns:xlink="http://www.w3.org/1999/xlink" xmlns:dc="http://purl.org/dc/elements/1.1/">
 <defs id="defs2410">
  <linearGradient id="ButtonShadow" y2="7.0165" gradientUnits="userSpaceOnUse" x2="45.448" gradientTransform="scale(1.0059 .99417)" y1="92.54" x1="45.448">
   <stop id="stop3750" offset="0"/>
   <stop id="stop3752" style="stop-opacity:.58824" offset="1"/>
  </linearGradient>
  <linearGradient id="linearGradient3737">
   <stop id="stop3739" style="stop-color:#fff" offset="0"/>
   <stop id="stop3741" style="stop-color:#fff;stop-opacity:0" offset="1"/>
  </linearGradient>
  <filter id="filter3174" color-interpolation-filters="sRGB">
   <feGaussianBlur id="feGaussianBlur3176" stdDeviation="1.71"/>
  </filter>
  <filter id="filter3794" height="1.384" width="1.384" color-interpolation-filters="sRGB" y="-.192" x="-.192">
   <feGaussianBlur id="feGaussianBlur3796" stdDeviation="5.28"/>
  </filter>
  <linearGradient id="linearGradient3613" y2="138.66" xlink:href="#linearGradient3737" gradientUnits="userSpaceOnUse" x2="48" y1="20.221" x1="48"/>
  <clipPath id="clipPath3613">
   <rect id="rect3615" style="fill:#fff" rx="6" ry="6" height="84" width="84" y="6" x="6"/>
  </clipPath>
  <linearGradient id="linearGradient3047" y2="5.9877" gradientUnits="userSpaceOnUse" x2="48" gradientTransform="translate(100)" y1="90" x1="48">
   <stop id="stop3702" style="stop-color:#2276c5" offset="0"/>
   <stop id="stop3704" style="stop-color:#68baf4" offset="1"/>
  </linearGradient>
  <radialGradient id="radialGradient3920" gradientUnits="userSpaceOnUse" cy="47.999" cx="48" gradientTransform="matrix(1.3453 -3.8835e-8 3.3051e-8 1.1449 -16.572 -6.9543)" r="34.938">
   <stop id="stop3916" offset="0"/>
   <stop id="stop3918" style="stop-opacity:0" offset="1"/>
  </radialGradient>
  <linearGradient id="linearGradient4320" y2="992.42" gradientUnits="userSpaceOnUse" x2="121.31" gradientTransform="matrix(4.4806 0 0 4.4787 -651.6 -4376.7)" y1="976.38" x1="121.31">
   <stop id="stop10294" style="stop-color:#666" offset="0"/>
   <stop id="stop10296" style="stop-color:#333" offset="1"/>
  </linearGradient>
  <linearGradient id="linearGradient3135" y2="16" gradientUnits="userSpaceOnUse" x2="48" y1="74" x1="48">
   <stop id="stop3875" style="stop-color:#dfdfdf" offset="0"/>
   <stop id="stop3877" style="stop-color:#fefefe" offset="1"/>
  </linearGradient>
  <linearGradient id="linearGradient3141" y2="8" gradientUnits="userSpaceOnUse" x2="32" y1="81" x1="32">
   <stop id="stop3858" style="stop-color:#b3b3b3" offset="0"/>
   <stop id="stop3860" style="stop-color:#e6e6e6" offset="1"/>
  </linearGradient>
  <linearGradient id="linearGradient3892">
   <stop id="stop3894" style="stop-opacity:.58824" offset="0"/>
   <stop id="stop3896" style="stop-opacity:.47059" offset=".11780"/>
   <stop id="stop3898" style="stop-opacity:.39216" offset=".23810"/>
   <stop id="stop3900" style="stop-opacity:.31373" offset="1"/>
  </linearGradient>
  <linearGradient id="linearGradient3077" y2="88" xlink:href="#linearGradient3892" spreadMethod="reflect" gradientUnits="userSpaceOnUse" x2="48" y1="88" x1="90"/>
  <linearGradient id="linearGradient4068" y2="90" xlink:href="#linearGradient16819" gradientUnits="userSpaceOnUse" x2="39" gradientTransform="translate(0,4)" y1="6" x1="39"/>
  <linearGradient id="linearGradient4085" y2="28" xlink:href="#linearGradient3892" gradientUnits="userSpaceOnUse" x2="79" gradientTransform="translate(0,4)" y1="28" x1="90"/>
  <linearGradient id="linearGradient4149" y2="136" xlink:href="#linearGradient3737" gradientUnits="userSpaceOnUse" x2="24" y1="8" x1="24"/>
  <linearGradient id="ButtonShadow-0-9" y2="7.0165" gradientUnits="userSpaceOnUse" x2="45.448" gradientTransform="matrix(1.0059 0 0 .99417 100 0)" y1="92.54" x1="45.448">
   <stop id="stop3750-8-4" offset="0"/>
   <stop id="stop3752-5-1" style="stop-opacity:.58824" offset="1"/>
  </linearGradient>
  <linearGradient id="linearGradient4188" y2="7" xlink:href="#ButtonShadow-0-9" gradientUnits="userSpaceOnUse" x2="49" gradientTransform="translate(100,-1)" y1="91" x1="49"/>
  <linearGradient id="linearGradient4224" y2="129" xlink:href="#linearGradient3737" gradientUnits="userSpaceOnUse" x2="78.524" gradientTransform="translate(0,-1)" y1="9" x1="78.524"/>
  <linearGradient id="linearGradient4316" y2="2" xlink:href="#ButtonShadow-0-9" gradientUnits="userSpaceOnUse" x2="56" gradientTransform="translate(0,5)" y1="86" x1="56"/>
  <linearGradient id="linearGradient4321" y2="2" xlink:href="#ButtonShadow-0-9" gradientUnits="userSpaceOnUse" x2="56" gradientTransform="matrix(1.0238 0 0 1.0119 -1.1426 4.9762)" y1="86" x1="56"/>
  <linearGradient id="linearGradient4873" y2="-1574.8" xlink:href="#linearGradient8903-1" gradientUnits="userSpaceOnUse" x2="535.44" gradientTransform="matrix(.16712 0 0 .16712 -52.403 377.15)" y1="-1568.6" x1="529.25"/>
  <linearGradient id="linearGradient8903-1">
   <stop id="stop8905-8" style="stop-color:#008000" offset="0"/>
   <stop id="stop8907-9" style="stop-color:#0f0;stop-opacity:0" offset="1"/>
  </linearGradient>
  <radialGradient id="radialGradient4686" gradientUnits="userSpaceOnUse" cy="-848.92" cx="-1535.2" gradientTransform="matrix(-.93255 0 0 -1.3574 -1472.7 -1214)" r="10">
   <stop id="stop9565" style="stop-color:#fffb88" offset="0"/>
   <stop id="stop9567" style="stop-color:#b97f00;stop-opacity:0" offset="1"/>
  </radialGradient>
  <linearGradient id="linearGradient4813" y2="-1194.6" xlink:href="#linearGradient11804" gradientUnits="userSpaceOnUse" x2="144" gradientTransform="matrix(.12201 0 0 .28433 37.707 405.46)" y1="-1194.6" x1="-17"/>
  <linearGradient id="linearGradient11804">
   <stop id="stop11806" style="stop-color:#d40000;stop-opacity:0" offset="0"/>
   <stop id="stop11808" style="stop-color:#a00" offset=".49306"/>
   <stop id="stop11810" style="stop-color:#a00;stop-opacity:0" offset="1"/>
  </linearGradient>
  <linearGradient id="linearGradient4826" y2="900.72" xlink:href="#linearGradient11704" gradientUnits="userSpaceOnUse" x2="1162" y1="889.01" x1="1162"/>
  <linearGradient id="linearGradient11704">
   <stop id="stop11706" style="stop-color:#ff6a1e" offset="0"/>
   <stop id="stop11708" style="stop-color:#d45500;stop-opacity:0" offset="1"/>
  </linearGradient>
  <radialGradient id="radialGradient4817" gradientUnits="userSpaceOnUse" cy="-853" cx="-1535.5" gradientTransform="matrix(-.80407 0 0 -.68205 -1167.4 -627.51)" r="10">
   <stop id="stop10140" style="stop-color:#fff" offset="0"/>
   <stop id="stop10142" style="stop-color:#ffd5d5;stop-opacity:0" offset="1"/>
  </radialGradient>
  <linearGradient id="linearGradient4828" y2="893.35" xlink:href="#linearGradient11704" gradientUnits="userSpaceOnUse" x2="1165.5" y1="899.99" x1="1155"/>
  <linearGradient id="linearGradient4832" y2="887.07" gradientUnits="userSpaceOnUse" x2="1162.2" y1="900.72" x1="1162.2">
   <stop id="stop11614" style="stop-color:#edc33e" offset="0"/>
   <stop id="stop11616" style="stop-color:#fae6a5" offset="1"/>
  </linearGradient>
  <linearGradient id="linearGradient4834" y2="887.43" gradientUnits="userSpaceOnUse" x2="1162.6" y1="900.19" x1="1162.6">
   <stop id="stop11676" style="stop-color:#f8ca35" offset="0"/>
   <stop id="stop11678" style="stop-color:#fef0c4" offset="1"/>
  </linearGradient>
  <linearGradient id="linearGradient4824" y2="-1495.6" xlink:href="#linearGradient16819" gradientUnits="userSpaceOnUse" x2="1065.8" gradientTransform="matrix(.31881 0 0 .32257 -303.75 550.45)" y1="-1561.4" x1="1065.8"/>
  <linearGradient id="linearGradient16819">
   <stop id="stop16821" style="stop-color:#e2b006" offset="0"/>
   <stop id="stop16823" style="stop-color:#bc8611" offset="1"/>
  </linearGradient>
  <linearGradient id="linearGradient4702" y2="-1194.6" xlink:href="#linearGradient11804" gradientUnits="userSpaceOnUse" x2="144" gradientTransform="matrix(.11180 0 0 1 50.903 1252.6)" y1="-1194.6" x1="-17"/>
  <linearGradient id="linearGradient4750" y2="-1574.6" xlink:href="#linearGradient9569" gradientUnits="userSpaceOnUse" x2="535" gradientTransform="matrix(2.5 0 0 5 -1446.5 7981.2)" y1="-1568.6" x1="529.25"/>
  <linearGradient id="linearGradient9569">
   <stop id="stop9571" style="stop-color:#b42c00" offset="0"/>
   <stop id="stop9573" style="stop-color:#ffc600;stop-opacity:0" offset="1"/>
  </linearGradient>
  <linearGradient id="linearGradient4752" y2="-1574.6" xlink:href="#linearGradient9569" gradientUnits="userSpaceOnUse" x2="535" gradientTransform="matrix(2.5 0 0 5 -1258.5 7981.2)" y1="-1568.6" x1="529.25"/>
  <linearGradient id="linearGradient4724" y2="-1504.9" gradientUnits="userSpaceOnUse" x2="1138" gradientTransform="matrix(.3 0 0 .3 -284.3 513.39)" y1="-1562.1" x1="1171">
   <stop id="stop11505" style="stop-color:#e4bc33" offset="0"/>
   <stop id="stop11507" style="stop-color:#cd9215" offset="1"/>
  </linearGradient>
  <linearGradient id="linearGradient4727" y2="-1575.6" gradientUnits="userSpaceOnUse" x2="1171.2" gradientTransform="matrix(.32258 0 0 .32258 -310.06 548.27)" y1="-1513.4" x1="1171.2">
   <stop id="stop11515" style="stop-color:#d7ae1e" offset="0"/>
   <stop id="stop11517" style="stop-color:#ffd251" offset="1"/>
  </linearGradient>
  <linearGradient id="linearGradient4730" y2="-2617.5" gradientUnits="userSpaceOnUse" x2="1079.5" gradientTransform="matrix(.66667 0 0 .67692 -651.33 1833)" y1="-2650.3" x1="1079.5">
   <stop id="stop11460" style="stop-color:#a88200" offset="0"/>
   <stop id="stop11462" style="stop-color:#724a00" offset="1"/>
  </linearGradient>
  <linearGradient id="linearGradient4740" y2="686.96" gradientUnits="userSpaceOnUse" x2="1168" y1="671.49" x1="1183.5">
   <stop id="stop9660" style="stop-color:#f7c3a1" offset="0"/>
   <stop id="stop9664" style="stop-color:#f1b38e" offset=".47156"/>
   <stop id="stop9662" style="stop-color:#f17571" offset="1"/>
  </linearGradient>
  <linearGradient id="linearGradient4742" y2="658.13" gradientUnits="userSpaceOnUse" x2="1180.2" y1="688.53" x1="1180.2">
   <stop id="stop11257" style="stop-color:#f6b7a8" offset="0"/>
   <stop id="stop11259" style="stop-color:#fee9d6" offset="1"/>
  </linearGradient>
  <linearGradient id="linearGradient4744" y2="662.17" gradientUnits="userSpaceOnUse" x2="1195.1" y1="678.06" x1="1179.3">
   <stop id="stop11334" style="stop-color:#ad4e07" offset="0"/>
   <stop id="stop11336" style="stop-color:#e9744d" offset="1"/>
  </linearGradient>
 </defs>
 <metadata id="metadata2413">
  <rdf:RDF>
   <cc:Work rdf:about="">
    <dc:format>image/svg+xml</dc:format>
    <dc:type rdf:resource="http://purl.org/dc/dcmitype/StillImage"/>
    <dc:title/>
   </cc:Work>
  </rdf:RDF>
 </metadata>
 <g id="layer2" style="display:none">
  <rect id="rect3745" style="opacity:.9;filter:url(#filter3174);fill:url(#ButtonShadow)" rx="6" ry="6" height="85" width="86" y="7" x="5"/>
 </g>
 <g id="layer3">
  <path id="path4352" style="opacity:0.08;fill:url(#linearGradient4321)" d="m53.312 4.0312c-1.6609 0.029867-3.3105 0.10963-4.875 0.03125a0.91519 0.91519 0 0 0 -0.03125 0h-36.594c-6.0093-0.072138-10.454 5.7369-9.75 11.469 0.0000552 0.04167-0.0000546 0.08333 0 0.125 0.030657 23.421-0.046636 46.823 0.0625 70.25a0.91519 0.91519 0 0 0 0 0.0625c0.43084 5.8151 6.1648 9.6417 11.656 8.9688 0.04176-0.0051 0.08327 0.0056 0.125 0 23.665-0.02956 47.328 0.07409 71-0.03125a0.91519 0.91519 0 0 0 0.0625 0c5.7489-0.40765 9.5812-6.0597 8.9688-11.5-0.0047-0.04165 0.0052-0.08338 0-0.125-0.02028-14.238 0.04011-28.476-0.03125-42.719-0.000313-0.06251 0.000318-0.12499 0-0.1875h-0.03125c0.068-0.677-0.099-1.318-0.375-1.78-0.305-0.511-0.69-0.912-0.938-1.219-0.19085-0.237-0.19724-0.29952-0.21875-0.3125 0.04226-0.03439 0.0477-0.05486 0.1875-0.125a0.91519 0.91519 0 0 0 0.281 -0.219c1.003-1.167 1.193-2.595 1.188-3.875s-0.165-2.491-0.062-3.469a0.91519 0.91519 0 0 0 0 -0.125c-0.102-5.648 0.217-11.374-0.188-17.125a0.91519 0.91519 0 0 0 0 -0.09375c-0.957-5.3855-6.429-8.5657-11.562-7.9685-0.03114 0.00362-0.06264-0.0039-0.09375 0-4.998 0.0844-10.073-0.1781-15.156 0.125a0.91519 0.91519 0 0 0 -0.188 0.0313c-2.037 0.5411-3.106 2.4077-3.156 4.3437-0.271-0.2688-0.487-0.4381-0.844-0.8437-0.60237-0.68366-1.2754-1.4702-2-2.125-0.69206-0.62537-1.4272-1.1681-2.375-1.25v-0.03125c-0.04196-0.0078-0.08305 0.00743-0.125 0-1.662-0.2947-3.321-0.3104-4.938-0.2814z"/>
  <path id="path4338" style="opacity:.1;fill:url(#linearGradient4321)" d="m11.812 4.9688c-5.4411-0.0654-9.554 5.3302-8.8432 10.551 0.0311 23.466-0.0625 46.935 0.0469 70.399 0.391 5.278 5.73 8.792 10.757 8.112 23.71-0.03 47.423 0.06 71.131-0.045 5.213-0.37 8.75-5.596 8.127-10.572-0.021-14.345 0.042-28.698-0.031-43.039 0.37416-1.9462-3.1211-3.1232-0.875-4.25 1.6074-1.8703 0.66645-4.5726 0.90625-6.8504-0.102-5.694 0.215-11.414-0.184-17.088-0.867-4.8779-5.91-7.8088-10.62-7.2182-5.07 0.09-10.181-0.1759-15.227 0.125-1.927 0.5118-2.869 2.6096-2.469 4.4754-0.534 2.3978-3.923-4.2533-6.322-4.3396-3.198-0.5948-6.537-0.0978-9.791-0.2608h-36.606z"/>
  <path id="path4330" style="opacity:.2;fill:url(#linearGradient4321)" d="m11.844 5.9688c-4.3597 0.0761-7.8752 3.6553-7.8752 8.0312v10.188 50.625 10.188c0 4.4237 3.6075 8.0312 8.0312 8.0312h6.3125 65.688c4.352 0 7.9178-3.4852 8.0312-7.8125a1.0169 1.0169 0 0 0 0 -0.03125v-10.375-33.969h-0.03125c0.0039-0.1089 0.0056-0.23498 0-0.34375a1.0169 1.0169 0 0 0 0 -0.03125c-0.09472-0.89596-0.48688-1.7229-1.125-2.3438-0.60623-0.60129-1.3163-1.3218-1.9375-1.9375 0.04109 0.01058 0.08851 0.0301 0.09375 0.03125 0.0102 0.0022 0.14589 0.02973 0.15625 0.03125 0.01036 0.0015 0.17704 0.03047 0.1875 0.03125 0.01046 0.000778 0.17701-0.000035 0.1875 0s0.14579 0.000709 0.15625 0 0.17713-0.0298 0.1875-0.03125c0.01037-0.0014 0.14603-0.02908 0.15625-0.03125 0.01022-0.0022 0.17749-0.02837 0.1875-0.03125 0.01001-0.0029 0.14651-0.05893 0.15625-0.0625 0.0097-0.0036 0.14683-0.05826 0.15625-0.0625 0.0094-0.0042 0.14721-0.05763 0.15625-0.0625 0.009-0.0049 0.14763-0.08828 0.15625-0.09375 0.0086-0.0055 0.1481-0.08771 0.15625-0.09375 0.0082-0.006 0.11735-0.11844 0.125-0.125 0.0077-0.0066 0.14914-0.11796 0.15625-0.125 0.0071-0.007 0.08721-0.11752 0.09375-0.125 0.0065-0.0075 0.11905-0.11712 0.125-0.125 0.0059-0.0079 0.08842-0.14802 0.09375-0.15625 0.0053-0.0082 0.08906-0.14771 0.09375-0.15625 0.0047-0.0085 0.08971-0.14744 0.09375-0.15625 0.004-0.0088 0.05913-0.14722 0.0625-0.15625 0.0034-0.009 0.0598-0.14704 0.0625-0.15625 0.0027-0.0092 0.02923-0.17815 0.03125-0.1875 0.002-0.0094 0.02992-0.1468 0.03125-0.15625 0.0013-0.0094-0.00064-0.17799 0-0.1875a1.0169 1.0169 0 0 0 0.03125 -0.03125c0.000232-0.007 0.000139-0.08342 0-0.125v-0.03125-3.75-0.03125c0.000172-0.03085 0.000086-0.04788 0-0.09375 0.000116-0.0035-0.000023-0.03305 0-0.0625s0.00007-0.04171 0-0.0625v-0.03125-8.625-3.75-0.28125-3.125c0-4.4267-3.607-8.0342-8.031-8.0342h-16.219a1.0169 1.0169 0 0 0 -0.093 0.0312c-0.0083 0.0007875-0.14804-0.00125-0.15625 0-0.0082 0.00125-0.11689 0.029542-0.125 0.03125-0.0081 0.00171-0.11702 0.029093-0.125 0.03125-0.008 0.00216-0.14842 0.028654-0.15625 0.03125-0.0078 0.0026-0.11736 0.059477-0.125 0.0625-0.0076 0.00302-0.11757 0.059064-0.125 0.0625-0.0074 0.00344-0.11781 0.058665-0.125 0.0625-0.0072 0.00383-0.11807 0.058284-0.125 0.0625-0.0069 0.00422-0.0871 0.057921-0.09375 0.0625-0.0066 0.00458-0.11865 0.088826-0.125 0.09375-0.0063 0.00492-0.08773 0.088502-0.09375 0.09375-0.006 0.00525-0.11932 0.088198-0.125 0.09375-0.0057 0.00555-0.08842 0.087916-0.09375 0.09375-0.0053 0.00583-0.08879 0.087655-0.09375 0.09375-0.005 0.0061-0.08917 0.11867-0.09375 0.125-0.0046 0.00633-0.05831 0.11845-0.0625 0.125-0.0042 0.00655-0.05871 0.087003-0.0625 0.09375-0.0038 0.00675-0.05912 0.11808-0.0625 0.125-0.0034 0.00692-0.05954 0.11793-0.0625 0.125-0.003 0.00707-0.05996 0.14905-0.0625 0.15625-0.0025 0.0072-0.02913 0.11769-0.03125 0.125-0.0021 0.00731-0.02956 0.1176-0.03125 0.125-0.0017 0.0074-0.02999 0.14878-0.03125 0.15625-0.0013 0.00747-0.03043 0.11748-0.03125 0.125-0.000824 0.00752 0.00039 0.11745 0 0.125s-0.000046 0.1487 0 0.15625-0.000481 0.11746 0 0.125-0.000915 0.14874 0 0.15625 0.0299 0.11754 0.03125 0.125c0.00057 0.00316 0.02562 0.035701 0.03125 0.0625 0.0077 0.036544-0.001 0.089489 0 0.09375v2.9375c-0.0095 0.04404-0.03031 0.08853-0.03125 0.09375-0.0016 0.0089 0.000985 0.17852 0 0.1875-0.000985 0.009-0.03088 0.14723-0.03125 0.15625-0.000365 0.009-0.000256 0.14723 0 0.15625 0.000256 0.009 0.03037 0.17851 0.03125 0.1875 0.000876 0.009-0.0015 0.14733 0 0.15625 0.0015 0.0089 0.02914 0.14743 0.03125 0.15625-1.998-1.974-4.157-4.0835-6.032-5.9372-0.64-0.6402-1.482-1.0127-2.375-1.0938a1.0169 1.0169 0 0 0 -0.094 -0.0312h-45.156a1.0169 1.0169 0 0 0 -0.03125 0z"/>
  <path id="path4318" style="opacity:.3;fill:url(#linearGradient4321)" d="m11.875 7c-3.8194 0.0667-6.875 3.164-6.875 7v10.188 50.624 10.188c0 3.878 3.122 7 7 7h6.312 65.688c3.8149 0 6.9007-3.0224 7-6.8125v-10.375-33.969c0.005-0.095 0.005-0.187 0-0.282-0.068-0.64-0.379-1.266-0.844-1.718-9.762-9.683-21.596-21.366-31.375-31.032-0.465-0.4652-1.09-0.7521-1.75-0.812h-45.156zm55.906 0a1.4434 1.4267 0 0 0 -1.219 1.9062v3.125a1.4434 1.4267 0 0 0 0.34375 1.4375l21.625 21.375a1.4434 1.4267 0 0 0 2.469 -0.905 1.4434 1.4267 0 0 0 0 -0.094v-3.8125a1.4434 1.4267 0 0 0 0 -0.125 1.4434 1.4267 0 0 0 0 -0.09375v-8.6562-3.75-0.282-3.125c0-3.878-3.122-7-7-7h-16.219z"/>
  <path id="path3173-9" style="opacity:.45;fill:url(#linearGradient4316)" d="m12 7c-3.324 0-6 2.676-6 6v11 50 11c0 3.324 2.676 6 6 6h7 65c3.324 0 6-2.676 6-6v-0.719-10.281-33.562c0.0048-0.09367 0.0048-0.18758 0-0.28125-0.06619-0.63339-0.35863-1.2408-0.8125-1.6875-9.536-9.569-21.105-21.104-30.657-30.656-0.454-0.4607-1.074-0.7538-1.719-0.813h-44.093-0.719zm55.312 0a1.4099 1.4099 0 0 0 -1.187 1.875v3.0938a1.4099 1.4099 0 0 0 0.34375 1.4375l21.125 21.125a1.4099 1.4099 0 0 0 2.406 -0.906 1.4099 1.4099 0 0 0 0 -0.094v-3.781a1.4099 1.4099 0 0 0 0 -0.125 1.4099 1.4099 0 0 0 0 -0.09375v-8.531-3.719-0.281-3.719-0.281c0-3.324-2.676-6-6-6h-16.688z"/>
 </g>
 <g id="layer1">
  <path id="path3173" style="fill:url(#linearGradient4068)" d="m12 6c-3.324 0-6 2.676-6 6v11 50 11c0 3.324 2.676 6 6 6h7 65c3.324 0 6-2.676 6-6v-0.719-10.281-33.562c0.0048-0.09367 0.0048-0.18758 0-0.28125-0.06619-0.63339-0.35863-1.2408-0.8125-1.6875-9.536-9.569-21.105-21.104-30.657-30.656-0.454-0.4607-1.074-0.7538-1.719-0.813h-44.093-0.719zm55.312 0a1.4099 1.4099 0 0 0 -1.187 1.875v3.0938a1.4099 1.4099 0 0 0 0.34375 1.4375l21.125 21.125a1.4099 1.4099 0 0 0 2.406 -0.906 1.4099 1.4099 0 0 0 0 -0.094v-3.781a1.4099 1.4099 0 0 0 0 -0.125 1.4099 1.4099 0 0 0 0 -0.09375v-8.531-3.719-0.281-3.719-0.281c0-3.324-2.676-6-6-6h-16.688z"/>
  <rect id="rect3045" style="fill:url(#linearGradient3047)" rx="6" ry="6" height="84" width="84" y="6" x="106"/>
  <path id="path3049" style="fill:#f0f" d="m114 6 26 26v4l-30-30z"/>
  <path id="path6862" style="color:#000000;text-indent:0pt;text-transform:none;fill:url(#linearGradient4320)" d="m-152.03-3.7418c-1.1576 0-2.2228 1.0237-2.2228 2.2666v67.202c0 1.0828 1.0125 2.2228 2.1703 2.2228h53.768c1.2958 0 2.3104-1.0853 2.3104-2.1703l0.002-41.78c0-1.183-0.1434-1.7363-0.98015-2.5729l-23.9-23.882c-0.83684-0.83645-1.477-1.268-2.6604-1.2689l-28.486-0.0175zm38.882 0.0087c-1.9148 0-2.0014 1.9933-0.9889 3.0105l14.902 14.965c1.215 1.221 3.238 0.928 3.238-0.997v-14.685c0-1.1836-1.0714-2.2929-2.2491-2.2929h-14.895z"/>
  <path id="path4151" style="opacity:.1;fill:#fff" d="m6 78v2c0 3.324 2.676 6 6 6h7 65c3.324 0 6-2.676 6-6v-0.719-1.281c0 3.324-2.676 6-6 6h-65-7c-3.324 0-6-2.676-6-6z"/>
  <path id="path4136" style="opacity:.3;fill:url(#linearGradient4149)" d="m12 6c-3.324 0-6 2.676-6 6v11 46 11c0 3.324 2.7094 5.5299 6 6h7 65c3.324 0 6-2.676 6-6v-0.719-10.281-29.562c0.0048-0.09367 0.0048-0.18758 0-0.28125-0.06619-0.63339-0.35863-1.2408-0.8125-1.6875-9.536-9.569-21.105-21.104-30.657-30.656-0.454-0.4607-1.074-0.7538-1.719-0.813h-44.093-0.719zm0 1.0312h0.71875 44c0.39619 0.036384 0.81417 0.21693 1.0938 0.5 9.553 9.553 21.123 21.089 30.656 30.656 0.27263 0.26834 0.4532 0.65049 0.5 1.0312 0.000601 0.01173-0.000361 0.01951 0 0.03125 0.0014 0.04696 0.0024 0.07809 0 0.125a1.0272 1.0272 0 0 0 0 0.0625v29.562 10.281 0.71875c0 2.7728-2.196 4.9688-4.9688 4.9688h-65-6.8438c-1.461-0.207-2.7791-0.799-3.6872-1.655-0.9082-0.855-1.4376-1.929-1.4376-3.312v-11-46-11c0-2.7728 2.196-4.9688 4.9688-4.9688z"/>
  <path id="path4209" style="opacity:.45;fill:url(#linearGradient4188)" d="m112 6c-3.324 0-6 2.676-6 6v11 50 11c0 3.324 2.676 6 6 6h7 65c3.324 0 6-2.676 6-6v-0.719-10.281-33.562c0.005-0.09367 0.005-0.18758 0-0.28125-0.0662-0.63339-0.35863-1.2408-0.8125-1.6875-9.54-9.569-21.11-21.104-30.66-30.656-0.45-0.4607-1.07-0.7538-1.72-0.813h-44.09-0.72z"/>
  <path id="path3873-8" style="opacity:.45;fill:url(#linearGradient4188)" d="m167.31 6a1.4099 1.4099 0 0 0 -0.84375 2.4062l21.125 21.125a1.4099 1.4099 0 0 0 2.4 -0.906 1.4099 1.4099 0 0 0 0 -0.094v-12.531-3.719-0.281c0-3.324-2.676-6-6-6h-16.688z"/>
  <path id="path4211" style="opacity:.25;fill:url(#linearGradient4224)" d="m67.312 6a1.4099 1.4099 0 0 0 -0.84375 2.4062l21.125 21.125a1.4099 1.4099 0 0 0 2.407 -0.906 1.4099 1.4099 0 0 0 0 -0.094v-12.531-3.719-0.281c0-3.324-2.676-6-6-6h-16.688zm0 1h0.09375 16.594c2.7922 0 5 2.2078 5 5v0.281 3.719 12.531a0.99095 0.99095 0 0 0 0 0.03125c0.0018 0.05319 0.0018-0.02194 0 0.03125-0.0077 0.05689 0.01176-0.02494 0 0.03125s0.01576-0.02395 0 0.03125 0.01967-0.02268 0 0.03125-0.0078-0.02113-0.03125 0.03125c-0.02349 0.05238 0.02718-0.01931 0 0.03125-0.000573-0.01238-0.01588-0.02424-0.03125 0s-0.0081 0.03527 0 0.03125c-0.03413 0.04616 0.0061-0.01234-0.03125 0.03125-0.01868 0.0218-0.0097 0.03399 0 0.03125 0.0026-0.0098-0.0096-0.0189-0.03125 0-0.0432 0.0378 0.01455-0.0034-0.03125 0.03125 0.0039-0.0082-0.0072-0.01562-0.03125 0-0.04816 0.03124 0.01903 0.0035-0.03125 0.03125-0.05213 0.02403 0.02247 0.01102-0.03125 0.03125s0.02379-0.01633-0.03125 0 0.02481-0.01234-0.03125 0 0.02555-0.0083-0.03125 0 0.026 0.02705-0.03125 0.03125 0.02616-0.000087-0.03125 0 0.02602 0.004-0.03125 0 0.02558-0.02313-0.03125-0.03125c-0.05683-0.0081 0.02485 0.01217-0.03125 0s0.02383 0.01616-0.03125 0 0.02253 0.02007-0.03125 0 0.02096-0.0074-0.03125-0.03125c-0.05036-0.02755 0.01701-0.000157-0.03125-0.03125-0.02413-0.01555-0.03521-0.0082-0.03125 0-0.0459-0.03447 0.01207 0.0064-0.03125-0.03125-0.02166-0.01884-0.03391-0.0098-0.03125 0l-21.125-21.125a0.99095 0.99095 0 0 0 0 -0.03125c-0.037-0.0417 0.003 0.0144-0.031-0.0306-0.034-0.0449 0 0.016-0.031-0.0312-0.03099-0.047243 0.02758 0.018061 0-0.03125-0.02404-0.051134-0.01088 0.021453-0.03125-0.03125s0.0166 0.022758 0-0.03125 0.01275 0.023795 0-0.03125-0.02242 0.024557-0.03125-0.03125c-0.0088-0.055807 0.0049 0.025041 0-0.03125s0.000891 0.025245 0-0.03125-0.0031 0.025167 0-0.03125-0.0071 0.024808 0-0.03125 0.02024 0.02417 0.03125-0.03125-0.01489 0.023255 0-0.03125-0.0187 0.022069 0-0.03125c0.02241-0.051867 0.0052 0.018907 0.03125-0.03125 0.02601-0.050157-0.02949 0.016947 0-0.03125s-0.0016 0.014746 0.03125-0.03125c0.01641-0.022998 0.0086-0.034633 0-0.03125-0.0016 0.010561 0.01177 0.02046 0.03125 0 0.03896-0.04092-0.0105 0.00682 0.03125-0.03125 0.02088-0.019035 0.01076-0.032575 0-0.03125-0.0036 0.00836 0.0079 0.015907 0.03125 0 0.04669-0.031815-0.01757-0.00281 0.03125-0.03125 0.04882-0.028441-0.01946 0.024926 0.03125 0 0.05-0.0249-0.022-0.0099 0.03-0.0312z"/>
 </g>
 <g id="layer6">
  <path id="path3851" style="opacity:.2" d="m14 12.031c-1.1559 0-1.9688 0.81282-1.9688 1.9688v1c0-1.1559 0.81282-1.9688 1.9688-1.9688h0.71875 41.344c9.302 9.302 18.59 18.618 27.906 27.906v-1c-9.316-9.288-18.604-18.604-27.907-27.906h-41.344-0.71875z"/>
  <path id="path3992" style="opacity:.2" d="m14 12.031c-1.1559 0-1.9688 0.81282-1.9688 1.9688v1c0-1.1559 0.81282-1.9688 1.9688-1.9688h0.71875 41.344c9.302 9.302 18.59 18.618 27.906 27.906v-1c-9.316-9.288-18.604-18.604-27.907-27.906h-41.344-0.71875z"/>
  <path id="path3994" style="fill:url(#linearGradient3141)" d="m14 12.031c-1.1559 0-1.9688 0.81282-1.9688 1.9688v9 29 17 8.2812 0.71875c0 1.0777 0.71755 1.837 1.75 1.9375 0.07491 0.0073 0.14207 0.01592 0.21875 0.03125h5 58 5c0.07224 0 0.1493-0.0086 0.21875-0.03125 1.0324-0.10053 1.75-0.85977 1.75-1.9375v-0.71875-8.2812-17-12.062c-9.316-9.289-18.604-18.605-27.907-27.907h-41.344z"/>
  <path id="path3996" style="opacity:.6;fill:url(#radialGradient3920)" d="m17.906 17.062c-0.46 0.044-0.849 0.476-0.844 0.938v9 38 9c-0.0037 0.49188 0.44562 0.94123 0.9375 0.9375h5 55c0.492 0.003 0.941-0.446 0.938-0.938v-9-23.406c-0.003-0.244-0.107-0.486-0.282-0.656l-23.594-23.594c-0.17-0.175-0.412-0.279-0.656-0.282h-36.406c-0.03122-0.0016-0.06253-0.0016-0.09375 0z"/>
  <path id="path3998" style="fill:url(#linearGradient3135)" d="m18 18v9 38 9h5 55v-9-23.406l-23.594-23.594z"/>
  <path id="path4000" style="opacity:.7;fill:#fff" d="m18 18v9 38 9h5 55v-9-23.406l-23.594-23.594zm1 1h35.031l22.969 22.969v23.031 8h-54-4v-8-38z"/>
  <path id="path4004" style="opacity:.2" d="m14 12.031c-1.1559 0-1.9688 0.81282-1.9688 1.9688v1c0-1.1559 0.81282-1.9688 1.9688-1.9688h0.71875 41.344c9.302 9.302 18.59 18.618 27.906 27.906v-1c-9.316-9.288-18.604-18.604-27.907-27.906h-41.344-0.71875z"/>
  <path id="path3990" style="opacity:.1" d="m14 12.031c-1.1559 0-1.9688 0.81282-1.9688 1.9688v9 33 13 8.2812 0.71875c0 1.0777 0.71755 1.837 1.75 1.9375 0.07491 0.0073 0.14207 0.01592 0.21875 0.03125h5 58 5c0.07224 0 0.1493-0.0086 0.21875-0.03125 1.0324-0.10053 1.75-0.85977 1.75-1.9375v-0.71875-8.2812-13-16.062c-9.316-9.289-18.604-18.605-27.907-27.907h-41.344zm0 0.969h0.71875 40.938c9.113 9.114 18.214 18.241 27.343 27.344v15.656 13 8.281 0.719c0 0.64842-0.26705 0.90956-0.875 0.96875-0.042 0.007-0.084 0.018-0.125 0.031h-5-58-5c0.1193 0 0.09888-0.0094-0.125-0.03125-0.608-0.059-0.875-0.321-0.875-0.969v-0.719-8.281-13-33-9c0-0.70251 0.29749-1 1-1z"/>
 </g>
 <g id="layer4">
  <path id="path3888" style="fill:url(#linearGradient3077)" d="m6 80v4c0 3.324 2.676 6 6 6h72c3.324 0 6-2.676 6-6v-4c0 3.324-2.676 6-6 6h-72c-3.324 0-6-2.676-6-6z"/>
  <path id="rect4345" style="opacity:.1;color:#000000" d="m6 82v2c0 3.324 2.676 6 6 6h72c3.324 0 6-2.676 6-6v-2c0 3.324-2.676 6-6 6h-72c-3.324 0-6-2.676-6-6z"/>
  <path id="rect4336" style="opacity:.15;color:#000000" d="m6 83v1c0 3.324 2.676 6 6 6h72c3.324 0 6-2.676 6-6v-1c0 3.324-2.676 6-6 6h-72c-3.324 0-6-2.676-6-6z"/>
  <path id="path4056" style="fill:url(#linearGradient4085)" d="m66.125 7.875v3.0938a1.4099 1.4099 0 0 0 0.34375 1.4375l21.125 21.125a1.4099 1.4099 0 0 0 2.406 -0.906 1.4099 1.4099 0 0 0 0 -0.094v-3.781a1.4099 1.4099 0 0 1 -2.4062 0.78125l-21.125-21.125a1.4099 1.4099 0 0 1 -0.344 -0.531z"/>
 </g>
 <g id="layer5" style="display:none">
  <rect id="rect3171" style="opacity:.1;filter:url(#filter3794);stroke:#fff;stroke-linecap:round;stroke-width:.5;fill:url(#linearGradient3613)" clip-path="url(#clipPath3613)" rx="12" ry="12" height="66" width="66" y="15" x="15"/>
 </g>
 <g id="layer7">
  <path id="path4836" style="opacity:.15;color:#000000;text-indent:0pt;text-transform:none" d="m45.936 47.712c-0.01785 0.01356-0.03418 0.02887-0.04865 0.04561-0.07986 0.02053-0.15071 0.07044-0.19406 0.1367l-6.356 10.302-6.308 10.348c-0.01776 0.01356-0.03401 0.02886-0.0484 0.04558-0.0048 0.03016-0.0048 0.06099 0 0.09115-0.0048 0.03017-0.0048 0.06101 0 0.09118 0.01065 0.03261 0.02707 0.06355 0.0484 0.09116 0.01446 0.01673 0.03079 0.03203 0.04862 0.04558 0.01446 0.01673 0.03079 0.03203 0.04862 0.04558 0.05765 0.03345 0.12646 0.04963 0.19409 0.04564h12.664 12.664c0.06761 0.004 0.13641-0.01218 0.19406-0.04561 0.01784-0.01355 0.03418-0.02885 0.04865-0.04558 0.01781-0.01355 0.03412-0.02886 0.04856-0.04558 0.02136-0.0276 0.03781-0.05854 0.04849-0.09116 0.0048-0.03017 0.0048-0.06101 0-0.09118 0.0048-0.03016 0.0048-0.06099 0-0.09115-0.01442-0.01672-0.0307-0.03202-0.04849-0.04558l-6.307-10.348-6.356-10.302c-0.04337-0.06628-0.11424-0.11619-0.19412-0.1367-0.02938-0.02009-0.06232-0.03557-0.09705-0.04561-0.0161-0.0011-0.0323-0.0011-0.04839-0.000004z"/>
  <path id="path4754" style="opacity:.15;color:#000000;stroke:#000;stroke-width:1.4348" d="m1201 675.5a16.5 16.5 0 1 1 -33 0 16.5 16.5 0 1 1 33 0z" transform="matrix(.69697 0 0 .69697 -785.56 -425.8)"/>
  <path id="path10779" style="color:#000000;stroke:url(#linearGradient4744);stroke-width:1.4348;fill:url(#linearGradient4742)" d="m1201 675.5a16.5 16.5 0 1 1 -33 0 16.5 16.5 0 1 1 33 0z" transform="matrix(.69697 0 0 .69697 -785.56 -426.8)"/>
  <path id="path8594" style="color:#000000;fill:url(#linearGradient4740)" d="m1201 675.5a16.5 16.5 0 1 1 -33 0 16.5 16.5 0 1 1 33 0z" transform="matrix(.60042 0 0 0.606 -671.29 -365.35)"/>
  <rect id="rect11555" style="opacity:.15;color:#000000" rx=".33333" ry=".34848" height="23" width="22" y="39" x="47"/>
  <rect id="rect11340" style="opacity:.8;color:#000000;fill:url(#linearGradient4730)" rx=".33333" ry=".33333" height="22" width="22" y="39" x="47"/>
  <rect id="rect11386" style="color:#000000;fill:url(#linearGradient4727)" height="20" width="20" y="40" x="48"/>
  <rect id="rect10785" style="color:#000000;fill:url(#linearGradient4724)" height="18" width="18" y="41" x="49"/>
  <path id="path4840" style="opacity:.2;color:#000000;text-indent:0pt;text-transform:none;fill:#fff" d="m48 47.062v12.938h7.9375l-2.3125-3.8125-5.625-9.125z"/>
  <g id="g4746" transform="matrix(0.3 0 0 0.3 29.8 17.598)">
   <rect id="rect11519" style="opacity:.35;color:#000000;fill:url(#linearGradient4750)" transform="scale(-1,1)" height="60" width="30" y="78.005" x="-124"/>
   <rect id="rect11529" style="opacity:.5;color:#000000;fill:url(#linearGradient4752)" height="60" width="30" y="78.005" x="64.001"/>
  </g>
  <rect id="rect11537" style="opacity:.25;color:#000000;fill:url(#linearGradient4702)" height="1" width="18" y="58" x="49"/>
  <path id="path10787" style="color:#000000;text-indent:0pt;text-transform:none;fill:url(#linearGradient4824)" d="m45.936 46.712c-0.01785 0.01356-0.03418 0.02887-0.04865 0.04561-0.07986 0.02053-0.15071 0.07044-0.19406 0.1367l-6.356 10.302-6.308 10.348c-0.01776 0.01356-0.03401 0.02886-0.0484 0.04558-0.0048 0.03016-0.0048 0.06099 0 0.09115-0.0048 0.03017-0.0048 0.06101 0 0.09118 0.01065 0.03261 0.02707 0.06355 0.0484 0.09116 0.01446 0.01673 0.03079 0.03203 0.04862 0.04558 0.01446 0.01673 0.03079 0.03203 0.04862 0.04558 0.05765 0.03345 0.12646 0.04963 0.19409 0.04564h12.664 12.664c0.06761 0.004 0.13641-0.01218 0.19406-0.04561 0.01784-0.01355 0.03418-0.02885 0.04865-0.04558 0.01781-0.01355 0.03412-0.02886 0.04856-0.04558 0.02136-0.0276 0.03781-0.05854 0.04849-0.09116 0.0048-0.03017 0.0048-0.06101 0-0.09118 0.0048-0.03016 0.0048-0.06099 0-0.09115-0.01442-0.01672-0.0307-0.03202-0.04849-0.04558l-6.307-10.348-6.356-10.302c-0.04337-0.06628-0.11424-0.11619-0.19412-0.1367-0.02938-0.02009-0.06232-0.03557-0.09705-0.04561-0.0161-0.0011-0.0323-0.0011-0.04839-0.000004z"/>
  <path id="path4565" style="color:#000000;fill:url(#linearGradient4834)" d="m1170.2 900.72h-8.1701-8.1701l4.0851-7.0755 4.085-7.0755 4.085 7.0755z" transform="matrix(1.4205 0 0 1.3444 -1604.7 -1143.9)"/>
  <path id="path10795" style="color:#000000;fill:url(#linearGradient4832)" d="m1170.2 900.72h-8.1701-8.1701l4.0851-7.0755 4.085-7.0755 4.085 7.0755z" transform="matrix(1.2188 0 0 1.1654 -1370.3 -983.61)"/>
  <path id="path11700" style="opacity:.35;color:#000000;fill:url(#linearGradient4828)" d="m1170.2 900.72h-8.1701-8.1701l4.0851-7.0755 4.085-7.0755 4.085 7.0755z" transform="matrix(.40628 0 0 .38846 -432.73 -283.83)"/>
  <path id="path11712" style="opacity:.35;color:#000000;fill:url(#linearGradient4828)" d="m1170.2 900.72h-8.1701-8.1701l4.0851-7.0755 4.085-7.0755 4.085 7.0755z" transform="matrix(-.40628 0 0 .38846 524.68 -283.83)"/>
  <rect id="rect9545" style="opacity:.5;color:#000000;fill:url(#radialGradient4817)" transform="rotate(90)" height="13.641" width="7.7601" y="-52.548" x="59.243"/>
  <path id="path11722" style="opacity:.25;color:#000000;fill:url(#linearGradient4826)" d="m1170.2 900.72h-8.1701-8.1701l4.0851-7.0755 4.085-7.0755 4.085 7.0755z" transform="matrix(.30053 0 0 .29134 -303.22 -208.72)"/>
  <rect id="rect11812" style="opacity:.1;color:#000000;fill:url(#linearGradient4813)" height=".28434" width="19.643" y="65.783" x="35.633"/>
  <rect id="rect9559" style="opacity:.5;color:#000000;fill:url(#radialGradient4686)" transform="matrix(0,-1,-1,0,0,0)" height="18" width="9" y="-67" x="-50"/>
  <g id="g4767" transform="translate(-4 -47)">
   <rect id="rect11551" style="opacity:.15;color:#000000" height="1" width="5.999" y="117.01" x="34.001"/>
   <rect id="use14626" style="opacity:.75;color:#000000;stroke:#18a303;fill:#9ef290" height="5" width="5" y="111.51" x="34.501"/>
   <rect id="use14628" style="opacity:.75;color:#000000;fill:url(#linearGradient4873)" height="2.0054" width="2.0054" y="113" x="36.001"/>
  </g>
  <g id="g4847" transform="translate(20 -47)">
   <rect id="rect4849" style="opacity:.15;color:#000000" height="1" width="5.999" y="117.01" x="34.001"/>
   <rect id="rect4851" style="opacity:.75;color:#000000;stroke:#18a303;fill:#9ef290" height="5" width="5" y="111.51" x="34.501"/>
   <rect id="use4853" style="opacity:.75;color:#000000;fill:url(#linearGradient4873)" height="2.0054" width="2.0054" y="113" x="36.001"/>
  </g>
  <g id="g4855" transform="translate(9 -67)">
   <rect id="rect4857" style="opacity:.15;color:#000000" height="1" width="5.999" y="117.01" x="34.001"/>
   <rect id="rect4859" style="opacity:.75;color:#000000;stroke:#18a303;fill:#9ef290" height="5" width="5" y="111.51" x="34.501"/>
   <rect id="use4861" style="opacity:.75;color:#000000;fill:url(#linearGradient4873)" height="2.0054" width="2.0054" y="113" x="36.001"/>
  </g>
 </g>
</svg>
