<?xml version="1.0" encoding="UTF-8" standalone="no"?>
<!-- Created with Inkscape (http://www.inkscape.org/) -->
<svg id="svg2408" xmlns:rdf="http://www.w3.org/1999/02/22-rdf-syntax-ns#" xmlns="http://www.w3.org/2000/svg" height="96" width="96" version="1.0" xmlns:cc="http://creativecommons.org/ns#" xmlns:xlink="http://www.w3.org/1999/xlink" xmlns:dc="http://purl.org/dc/elements/1.1/">
 <defs id="defs2410">
  <linearGradient id="ButtonShadow" y2="7.0165" gradientUnits="userSpaceOnUse" x2="45.448" gradientTransform="scale(1.0059 .99417)" y1="92.54" x1="45.448">
   <stop id="stop3750" offset="0"/>
   <stop id="stop3752" style="stop-opacity:.58824" offset="1"/>
  </linearGradient>
  <linearGradient id="linearGradient3737">
   <stop id="stop3739" style="stop-color:#fff" offset="0"/>
   <stop id="stop3741" style="stop-color:#fff;stop-opacity:0" offset="1"/>
  </linearGradient>
  <filter id="filter3174" color-interpolation-filters="sRGB">
   <feGaussianBlur id="feGaussianBlur3176" stdDeviation="1.71"/>
  </filter>
  <filter id="filter3794" height="1.384" width="1.384" color-interpolation-filters="sRGB" y="-.192" x="-.192">
   <feGaussianBlur id="feGaussianBlur3796" stdDeviation="5.28"/>
  </filter>
  <linearGradient id="linearGradient3613" y2="138.66" xlink:href="#linearGradient3737" gradientUnits="userSpaceOnUse" x2="48" y1="20.221" x1="48"/>
  <clipPath id="clipPath3613">
   <rect id="rect3615" style="fill:#fff" rx="6" ry="6" height="84" width="84" y="6" x="6"/>
  </clipPath>
  <linearGradient id="linearGradient3047" y2="5.9877" gradientUnits="userSpaceOnUse" x2="48" gradientTransform="translate(100)" y1="90" x1="48">
   <stop id="stop3702" style="stop-color:#2276c5" offset="0"/>
   <stop id="stop3704" style="stop-color:#68baf4" offset="1"/>
  </linearGradient>
  <radialGradient id="radialGradient3920" gradientUnits="userSpaceOnUse" cy="47.999" cx="48" gradientTransform="matrix(1.3453 -3.8835e-8 3.3051e-8 1.1449 -16.572 -6.9543)" r="34.938">
   <stop id="stop3916" offset="0"/>
   <stop id="stop3918" style="stop-opacity:0" offset="1"/>
  </radialGradient>
  <linearGradient id="linearGradient4320" y2="992.42" gradientUnits="userSpaceOnUse" x2="121.31" gradientTransform="matrix(4.4806 0 0 4.4787 -651.6 -4376.7)" y1="976.38" x1="121.31">
   <stop id="stop10294" style="stop-color:#666" offset="0"/>
   <stop id="stop10296" style="stop-color:#333" offset="1"/>
  </linearGradient>
  <linearGradient id="linearGradient3135" y2="16" gradientUnits="userSpaceOnUse" x2="48" y1="74" x1="48">
   <stop id="stop3875" style="stop-color:#dfdfdf" offset="0"/>
   <stop id="stop3877" style="stop-color:#fefefe" offset="1"/>
  </linearGradient>
  <linearGradient id="linearGradient3141" y2="8" gradientUnits="userSpaceOnUse" x2="32" y1="81" x1="32">
   <stop id="stop3858" style="stop-color:#b3b3b3" offset="0"/>
   <stop id="stop3860" style="stop-color:#e6e6e6" offset="1"/>
  </linearGradient>
  <linearGradient id="linearGradient3892">
   <stop id="stop3894" style="stop-opacity:.58824" offset="0"/>
   <stop id="stop3896" style="stop-opacity:.47059" offset=".11780"/>
   <stop id="stop3898" style="stop-opacity:.39216" offset=".23810"/>
   <stop id="stop3900" style="stop-opacity:.31373" offset="1"/>
  </linearGradient>
  <linearGradient id="linearGradient3077" y2="88" xlink:href="#linearGradient3892" spreadMethod="reflect" gradientUnits="userSpaceOnUse" x2="48" y1="88" x1="90"/>
  <linearGradient id="linearGradient4068" y2="90" gradientUnits="userSpaceOnUse" x2="39" gradientTransform="translate(0,4)" y1="6" x1="39">
   <stop id="stop4112" style="stop-color:#a240b0" offset="0"/>
   <stop id="stop4114" style="stop-color:#70247c" offset="1"/>
  </linearGradient>
  <linearGradient id="linearGradient4085" y2="28" xlink:href="#linearGradient3892" gradientUnits="userSpaceOnUse" x2="79" gradientTransform="translate(0,4)" y1="28" x1="90"/>
  <linearGradient id="linearGradient4149" y2="136" xlink:href="#linearGradient3737" gradientUnits="userSpaceOnUse" x2="24" y1="8" x1="24"/>
  <linearGradient id="ButtonShadow-0-9" y2="7.0165" gradientUnits="userSpaceOnUse" x2="45.448" gradientTransform="matrix(1.0059 0 0 .99417 100 0)" y1="92.54" x1="45.448">
   <stop id="stop3750-8-4" offset="0"/>
   <stop id="stop3752-5-1" style="stop-opacity:.58824" offset="1"/>
  </linearGradient>
  <linearGradient id="linearGradient4188" y2="7" xlink:href="#ButtonShadow-0-9" gradientUnits="userSpaceOnUse" x2="49" gradientTransform="translate(100,-1)" y1="91" x1="49"/>
  <linearGradient id="linearGradient4224" y2="129" xlink:href="#linearGradient3737" gradientUnits="userSpaceOnUse" x2="78.524" gradientTransform="translate(0,-1)" y1="9" x1="78.524"/>
  <linearGradient id="linearGradient4316" y2="2" xlink:href="#ButtonShadow-0-9" gradientUnits="userSpaceOnUse" x2="56" gradientTransform="translate(0,5)" y1="86" x1="56"/>
  <linearGradient id="linearGradient4321" y2="2" xlink:href="#ButtonShadow-0-9" gradientUnits="userSpaceOnUse" x2="56" gradientTransform="matrix(1.0238 0 0 1.0119 -1.1426 4.9762)" y1="86" x1="56"/>
  <linearGradient id="linearGradient4522" y2="50.261" xlink:href="#linearGradient3737" gradientUnits="userSpaceOnUse" x2="62" gradientTransform="translate(0,10)" y1="50.261" x1="34"/>
  <linearGradient id="linearGradient4518" y2="50.261" xlink:href="#linearGradient3737" gradientUnits="userSpaceOnUse" x2="62" gradientTransform="translate(0,4)" y1="50.261" x1="34"/>
  <linearGradient id="linearGradient4514" y2="50.261" xlink:href="#linearGradient3737" gradientUnits="userSpaceOnUse" x2="62" gradientTransform="translate(0,-2)" y1="50.261" x1="34"/>
  <linearGradient id="linearGradient4488" y2="194" gradientUnits="userSpaceOnUse" x2="1485.9" gradientTransform="matrix(.39211 0 0 .30769 -538.81 -11.308)" y1="169" x1="1510.5">
   <stop id="stop8986" style="stop-color:#fff" offset="0"/>
   <stop id="stop8988" style="stop-color:#fff;stop-opacity:0" offset="1"/>
  </linearGradient>
  <linearGradient id="linearGradient4328" y2="184" xlink:href="#linearGradient8742" gradientUnits="userSpaceOnUse" x2="1542" gradientTransform="matrix(-.53333 0 0 4.25 858.93 -954.26)" y1="184" x1="1559.5"/>
  <linearGradient id="linearGradient8742">
   <stop id="stop8744" style="stop-color:#9200ff" offset="0"/>
   <stop id="stop8746" style="stop-color:#f0f;stop-opacity:0" offset="1"/>
  </linearGradient>
  <linearGradient id="linearGradient4448" y2="970.5" xlink:href="#linearGradient8964" gradientUnits="userSpaceOnUse" x2="404.5" gradientTransform="matrix(.59555 0 0 .59555 -207.49 -526.27)" y1="970.5" x1="453.5"/>
  <linearGradient id="linearGradient8964">
   <stop id="stop8966" style="stop-color:#e196fb" offset="0"/>
   <stop id="stop8968" style="stop-color:#f4c7fa" offset=".13011"/>
   <stop id="stop8970" style="stop-color:#e091f3" offset=".31360"/>
   <stop id="stop8972" style="stop-color:#d764e9" offset=".44079"/>
   <stop id="stop8974" style="stop-color:#e7adf0" offset=".68365"/>
   <stop id="stop8976" style="stop-color:#e6a9f8" offset=".75621"/>
   <stop id="stop8978" style="stop-color:#e595f2" offset=".88022"/>
   <stop id="stop8980" style="stop-color:#f2cbf8" offset="1"/>
  </linearGradient>
  <linearGradient id="linearGradient4460" y2="970.5" xlink:href="#linearGradient8964" gradientUnits="userSpaceOnUse" x2="404.5" gradientTransform="matrix(.59555 0 0 .59555 -207.49 -526.91)" y1="970.5" x1="453.5"/>
  <linearGradient id="linearGradient4462" y2="970.5" xlink:href="#linearGradient8964" gradientUnits="userSpaceOnUse" x2="404.5" gradientTransform="matrix(.59555 0 0 .59555 -207.49 -527.55)" y1="970.5" x1="453.5"/>
  <radialGradient id="radialGradient4484" gradientUnits="userSpaceOnUse" cy="46.44" cx="47.995" gradientTransform="matrix(1 0 0 .25496 0 32.6)" r="13.995">
   <stop id="stop14496" style="stop-color:#dc85e9" offset="0"/>
   <stop id="stop14498" style="stop-color:#f2cbf8" offset="1"/>
  </radialGradient>
  <linearGradient id="linearGradient4482" y2="970.5" gradientUnits="userSpaceOnUse" x2="404.5" gradientTransform="matrix(.59555 0 0 .59555 -207.49 -526.17)" y1="970.5" x1="453.5">
   <stop id="stop8665" style="stop-color:#9207a7" offset="0"/>
   <stop id="stop8667" style="stop-color:#c658bc" offset=".27255"/>
   <stop id="stop8669" style="stop-color:#a42eb6" offset=".50966"/>
   <stop id="stop8671" style="stop-color:#b415cd" offset=".83376"/>
   <stop id="stop8673" style="stop-color:#950ba8" offset="1"/>
  </linearGradient>
  <linearGradient id="linearGradient4323" y2="184" xlink:href="#linearGradient8742" gradientUnits="userSpaceOnUse" x2="1542" gradientTransform="matrix(.53333 0 0 4.25 -762.93 -954.26)" y1="184" x1="1559.5"/>
  <radialGradient id="radialGradient4155" gradientUnits="userSpaceOnUse" cy="-754.64" cx="152.33" gradientTransform="matrix(.0000012696 .47380 -1.3367 0 -960.75 -9.2784)" r="15">
   <stop id="stop8719" style="stop-color:#800080" offset="0"/>
   <stop id="stop8723" style="stop-color:#800080" offset=".72684"/>
   <stop id="stop8721" style="stop-color:#f0f;stop-opacity:0" offset="1"/>
  </radialGradient>
  <linearGradient id="linearGradient3403" y2="-1131.6" gradientUnits="userSpaceOnUse" x2="1199.2" gradientTransform="matrix(.85714 0 0 .66667 -990.29 792.43)" y1="-1083.6" x1="1199.2">
   <stop id="stop8756" style="stop-color:#dc85e9" offset="0"/>
   <stop id="stop8758" style="stop-color:#f8dcfb" offset="1"/>
  </linearGradient>
 </defs>
 <metadata id="metadata2413">
  <rdf:RDF>
   <cc:Work rdf:about="">
    <dc:format>image/svg+xml</dc:format>
    <dc:type rdf:resource="http://purl.org/dc/dcmitype/StillImage"/>
    <dc:title/>
   </cc:Work>
  </rdf:RDF>
 </metadata>
 <g id="layer2" style="display:none">
  <rect id="rect3745" style="opacity:.9;filter:url(#filter3174);fill:url(#ButtonShadow)" rx="6" ry="6" height="85" width="86" y="7" x="5"/>
 </g>
 <g id="layer3">
  <path id="path4352" style="opacity:0.08;fill:url(#linearGradient4321)" d="m53.312 4.0312c-1.6609 0.029867-3.3105 0.10963-4.875 0.03125a0.91519 0.91519 0 0 0 -0.03125 0h-36.594c-6.0093-0.072138-10.454 5.7369-9.75 11.469 0.0000552 0.04167-0.0000546 0.08333 0 0.125 0.030657 23.421-0.046636 46.823 0.0625 70.25a0.91519 0.91519 0 0 0 0 0.0625c0.43084 5.8151 6.1648 9.6417 11.656 8.9688 0.04176-0.0051 0.08327 0.0056 0.125 0 23.665-0.02956 47.328 0.07409 71-0.03125a0.91519 0.91519 0 0 0 0.0625 0c5.7489-0.40765 9.5812-6.0597 8.9688-11.5-0.0047-0.04165 0.0052-0.08338 0-0.125-0.02028-14.238 0.04011-28.476-0.03125-42.719-0.000313-0.06251 0.000318-0.12499 0-0.1875h-0.03125c0.068-0.677-0.099-1.318-0.375-1.78-0.305-0.511-0.69-0.912-0.938-1.219-0.19085-0.237-0.19724-0.29952-0.21875-0.3125 0.04226-0.03439 0.0477-0.05486 0.1875-0.125a0.91519 0.91519 0 0 0 0.281 -0.219c1.003-1.167 1.193-2.595 1.188-3.875s-0.165-2.491-0.062-3.469a0.91519 0.91519 0 0 0 0 -0.125c-0.102-5.648 0.217-11.374-0.188-17.125a0.91519 0.91519 0 0 0 0 -0.09375c-0.957-5.3855-6.429-8.5657-11.562-7.9685-0.03114 0.00362-0.06264-0.0039-0.09375 0-4.998 0.0844-10.073-0.1781-15.156 0.125a0.91519 0.91519 0 0 0 -0.188 0.0313c-2.037 0.5411-3.106 2.4077-3.156 4.3437-0.271-0.2688-0.487-0.4381-0.844-0.8437-0.60237-0.68366-1.2754-1.4702-2-2.125-0.69206-0.62537-1.4272-1.1681-2.375-1.25v-0.03125c-0.04196-0.0078-0.08305 0.00743-0.125 0-1.662-0.2947-3.321-0.3104-4.938-0.2814z"/>
  <path id="path4338" style="opacity:.1;fill:url(#linearGradient4321)" d="m11.812 4.9688c-5.4411-0.0654-9.554 5.3302-8.8432 10.551 0.0311 23.466-0.0625 46.935 0.0469 70.399 0.391 5.278 5.73 8.792 10.757 8.112 23.71-0.03 47.423 0.06 71.131-0.045 5.213-0.37 8.75-5.596 8.127-10.572-0.021-14.345 0.042-28.698-0.031-43.039 0.37416-1.9462-3.1211-3.1232-0.875-4.25 1.6074-1.8703 0.66645-4.5726 0.90625-6.8504-0.102-5.694 0.215-11.414-0.184-17.088-0.867-4.8779-5.91-7.8088-10.62-7.2182-5.07 0.09-10.181-0.1759-15.227 0.125-1.927 0.5118-2.869 2.6096-2.469 4.4754-0.534 2.3978-3.923-4.2533-6.322-4.3396-3.198-0.5948-6.537-0.0978-9.791-0.2608h-36.606z"/>
  <path id="path4330" style="opacity:.2;fill:url(#linearGradient4321)" d="m11.844 5.9688c-4.3597 0.0761-7.8752 3.6553-7.8752 8.0312v10.188 50.625 10.188c0 4.4237 3.6075 8.0312 8.0312 8.0312h6.3125 65.688c4.352 0 7.9178-3.4852 8.0312-7.8125a1.0169 1.0169 0 0 0 0 -0.03125v-10.375-33.969h-0.03125c0.0039-0.1089 0.0056-0.23498 0-0.34375a1.0169 1.0169 0 0 0 0 -0.03125c-0.09472-0.89596-0.48688-1.7229-1.125-2.3438-0.60623-0.60129-1.3163-1.3218-1.9375-1.9375 0.04109 0.01058 0.08851 0.0301 0.09375 0.03125 0.0102 0.0022 0.14589 0.02973 0.15625 0.03125 0.01036 0.0015 0.17704 0.03047 0.1875 0.03125 0.01046 0.000778 0.17701-0.000035 0.1875 0s0.14579 0.000709 0.15625 0 0.17713-0.0298 0.1875-0.03125c0.01037-0.0014 0.14603-0.02908 0.15625-0.03125 0.01022-0.0022 0.17749-0.02837 0.1875-0.03125 0.01001-0.0029 0.14651-0.05893 0.15625-0.0625 0.0097-0.0036 0.14683-0.05826 0.15625-0.0625 0.0094-0.0042 0.14721-0.05763 0.15625-0.0625 0.009-0.0049 0.14763-0.08828 0.15625-0.09375 0.0086-0.0055 0.1481-0.08771 0.15625-0.09375 0.0082-0.006 0.11735-0.11844 0.125-0.125 0.0077-0.0066 0.14914-0.11796 0.15625-0.125 0.0071-0.007 0.08721-0.11752 0.09375-0.125 0.0065-0.0075 0.11905-0.11712 0.125-0.125 0.0059-0.0079 0.08842-0.14802 0.09375-0.15625 0.0053-0.0082 0.08906-0.14771 0.09375-0.15625 0.0047-0.0085 0.08971-0.14744 0.09375-0.15625 0.004-0.0088 0.05913-0.14722 0.0625-0.15625 0.0034-0.009 0.0598-0.14704 0.0625-0.15625 0.0027-0.0092 0.02923-0.17815 0.03125-0.1875 0.002-0.0094 0.02992-0.1468 0.03125-0.15625 0.0013-0.0094-0.00064-0.17799 0-0.1875a1.0169 1.0169 0 0 0 0.03125 -0.03125c0.000232-0.007 0.000139-0.08342 0-0.125v-0.03125-3.75-0.03125c0.000172-0.03085 0.000086-0.04788 0-0.09375 0.000116-0.0035-0.000023-0.03305 0-0.0625s0.00007-0.04171 0-0.0625v-0.03125-8.625-3.75-0.28125-3.125c0-4.4267-3.607-8.0342-8.031-8.0342h-16.219a1.0169 1.0169 0 0 0 -0.093 0.0312c-0.0083 0.0007875-0.14804-0.00125-0.15625 0-0.0082 0.00125-0.11689 0.029542-0.125 0.03125-0.0081 0.00171-0.11702 0.029093-0.125 0.03125-0.008 0.00216-0.14842 0.028654-0.15625 0.03125-0.0078 0.0026-0.11736 0.059477-0.125 0.0625-0.0076 0.00302-0.11757 0.059064-0.125 0.0625-0.0074 0.00344-0.11781 0.058665-0.125 0.0625-0.0072 0.00383-0.11807 0.058284-0.125 0.0625-0.0069 0.00422-0.0871 0.057921-0.09375 0.0625-0.0066 0.00458-0.11865 0.088826-0.125 0.09375-0.0063 0.00492-0.08773 0.088502-0.09375 0.09375-0.006 0.00525-0.11932 0.088198-0.125 0.09375-0.0057 0.00555-0.08842 0.087916-0.09375 0.09375-0.0053 0.00583-0.08879 0.087655-0.09375 0.09375-0.005 0.0061-0.08917 0.11867-0.09375 0.125-0.0046 0.00633-0.05831 0.11845-0.0625 0.125-0.0042 0.00655-0.05871 0.087003-0.0625 0.09375-0.0038 0.00675-0.05912 0.11808-0.0625 0.125-0.0034 0.00692-0.05954 0.11793-0.0625 0.125-0.003 0.00707-0.05996 0.14905-0.0625 0.15625-0.0025 0.0072-0.02913 0.11769-0.03125 0.125-0.0021 0.00731-0.02956 0.1176-0.03125 0.125-0.0017 0.0074-0.02999 0.14878-0.03125 0.15625-0.0013 0.00747-0.03043 0.11748-0.03125 0.125-0.000824 0.00752 0.00039 0.11745 0 0.125s-0.000046 0.1487 0 0.15625-0.000481 0.11746 0 0.125-0.000915 0.14874 0 0.15625 0.0299 0.11754 0.03125 0.125c0.00057 0.00316 0.02562 0.035701 0.03125 0.0625 0.0077 0.036544-0.001 0.089489 0 0.09375v2.9375c-0.0095 0.04404-0.03031 0.08853-0.03125 0.09375-0.0016 0.0089 0.000985 0.17852 0 0.1875-0.000985 0.009-0.03088 0.14723-0.03125 0.15625-0.000365 0.009-0.000256 0.14723 0 0.15625 0.000256 0.009 0.03037 0.17851 0.03125 0.1875 0.000876 0.009-0.0015 0.14733 0 0.15625 0.0015 0.0089 0.02914 0.14743 0.03125 0.15625-1.998-1.974-4.157-4.0835-6.032-5.9372-0.64-0.6402-1.482-1.0127-2.375-1.0938a1.0169 1.0169 0 0 0 -0.094 -0.0312h-45.156a1.0169 1.0169 0 0 0 -0.03125 0z"/>
  <path id="path4318" style="opacity:.3;fill:url(#linearGradient4321)" d="m11.875 7c-3.8194 0.0667-6.875 3.164-6.875 7v10.188 50.624 10.188c0 3.878 3.122 7 7 7h6.312 65.688c3.8149 0 6.9007-3.0224 7-6.8125v-10.375-33.969c0.005-0.095 0.005-0.187 0-0.282-0.068-0.64-0.379-1.266-0.844-1.718-9.762-9.683-21.596-21.366-31.375-31.032-0.465-0.4652-1.09-0.7521-1.75-0.812h-45.156zm55.906 0a1.4434 1.4267 0 0 0 -1.219 1.9062v3.125a1.4434 1.4267 0 0 0 0.34375 1.4375l21.625 21.375a1.4434 1.4267 0 0 0 2.469 -0.905 1.4434 1.4267 0 0 0 0 -0.094v-3.8125a1.4434 1.4267 0 0 0 0 -0.125 1.4434 1.4267 0 0 0 0 -0.09375v-8.6562-3.75-0.282-3.125c0-3.878-3.122-7-7-7h-16.219z"/>
  <path id="path3173-9" style="opacity:.45;fill:url(#linearGradient4316)" d="m12 7c-3.324 0-6 2.676-6 6v11 50 11c0 3.324 2.676 6 6 6h7 65c3.324 0 6-2.676 6-6v-0.719-10.281-33.562c0.0048-0.09367 0.0048-0.18758 0-0.28125-0.06619-0.63339-0.35863-1.2408-0.8125-1.6875-9.536-9.569-21.105-21.104-30.657-30.656-0.454-0.4607-1.074-0.7538-1.719-0.813h-44.093-0.719zm55.312 0a1.4099 1.4099 0 0 0 -1.187 1.875v3.0938a1.4099 1.4099 0 0 0 0.34375 1.4375l21.125 21.125a1.4099 1.4099 0 0 0 2.406 -0.906 1.4099 1.4099 0 0 0 0 -0.094v-3.781a1.4099 1.4099 0 0 0 0 -0.125 1.4099 1.4099 0 0 0 0 -0.09375v-8.531-3.719-0.281-3.719-0.281c0-3.324-2.676-6-6-6h-16.688z"/>
 </g>
 <g id="layer1">
  <path id="path3173" style="fill:url(#linearGradient4068)" d="m12 6c-3.324 0-6 2.676-6 6v11 50 11c0 3.324 2.676 6 6 6h7 65c3.324 0 6-2.676 6-6v-0.719-10.281-33.562c0.0048-0.09367 0.0048-0.18758 0-0.28125-0.06619-0.63339-0.35863-1.2408-0.8125-1.6875-9.536-9.569-21.105-21.104-30.657-30.656-0.454-0.4607-1.074-0.7538-1.719-0.813h-44.093-0.719zm55.312 0a1.4099 1.4099 0 0 0 -1.187 1.875v3.0938a1.4099 1.4099 0 0 0 0.34375 1.4375l21.125 21.125a1.4099 1.4099 0 0 0 2.406 -0.906 1.4099 1.4099 0 0 0 0 -0.094v-3.781a1.4099 1.4099 0 0 0 0 -0.125 1.4099 1.4099 0 0 0 0 -0.09375v-8.531-3.719-0.281-3.719-0.281c0-3.324-2.676-6-6-6h-16.688z"/>
  <rect id="rect3045" style="fill:url(#linearGradient3047)" rx="6" ry="6" height="84" width="84" y="6" x="106"/>
  <path id="path3049" style="fill:#f0f" d="m114 6 26 26v4l-30-30z"/>
  <path id="path6862" style="color:#000000;text-indent:0pt;text-transform:none;fill:url(#linearGradient4320)" d="m-152.03-3.7418c-1.1576 0-2.2228 1.0237-2.2228 2.2666v67.202c0 1.0828 1.0125 2.2228 2.1703 2.2228h53.768c1.2958 0 2.3104-1.0853 2.3104-2.1703l0.002-41.78c0-1.183-0.1434-1.7363-0.98015-2.5729l-23.9-23.882c-0.83684-0.83645-1.477-1.268-2.6604-1.2689l-28.486-0.0175zm38.882 0.0087c-1.9148 0-2.0014 1.9933-0.9889 3.0105l14.902 14.965c1.215 1.221 3.238 0.928 3.238-0.997v-14.685c0-1.1836-1.0714-2.2929-2.2491-2.2929h-14.895z"/>
  <path id="path4151" style="opacity:.05;fill:#fff" d="m6 78v2c0 3.324 2.676 6 6 6h7 65c3.324 0 6-2.676 6-6v-0.719-1.281c0 3.324-2.676 6-6 6h-65-7c-3.324 0-6-2.676-6-6z"/>
  <path id="path4136" style="opacity:0.22;fill:url(#linearGradient4149)" d="m12 6c-3.324 0-6 2.676-6 6v11 46 11c0 3.324 2.7094 5.5299 6 6h7 65c3.324 0 6-2.676 6-6v-0.719-10.281-29.562c0.0048-0.09367 0.0048-0.18758 0-0.28125-0.06619-0.63339-0.35863-1.2408-0.8125-1.6875-9.536-9.569-21.105-21.104-30.657-30.656-0.454-0.4607-1.074-0.7538-1.719-0.813h-44.093-0.719zm0 1.0312h0.71875 44c0.39619 0.036384 0.81417 0.21693 1.0938 0.5 9.553 9.553 21.123 21.089 30.656 30.656 0.27263 0.26834 0.4532 0.65049 0.5 1.0312 0.000601 0.01173-0.000361 0.01951 0 0.03125 0.0014 0.04696 0.0024 0.07809 0 0.125a1.0272 1.0272 0 0 0 0 0.0625v29.562 10.281 0.71875c0 2.7728-2.196 4.9688-4.9688 4.9688h-65-6.8438c-1.461-0.207-2.7791-0.799-3.6872-1.655-0.9082-0.855-1.4376-1.929-1.4376-3.312v-11-46-11c0-2.7728 2.196-4.9688 4.9688-4.9688z"/>
  <path id="path4209" style="opacity:.45;fill:url(#linearGradient4188)" d="m112 6c-3.324 0-6 2.676-6 6v11 50 11c0 3.324 2.676 6 6 6h7 65c3.324 0 6-2.676 6-6v-0.719-10.281-33.562c0.005-0.09367 0.005-0.18758 0-0.28125-0.0662-0.63339-0.35863-1.2408-0.8125-1.6875-9.54-9.569-21.11-21.104-30.66-30.656-0.45-0.4607-1.07-0.7538-1.72-0.813h-44.09-0.72z"/>
  <path id="path3873-8" style="opacity:.45;fill:url(#linearGradient4188)" d="m167.31 6a1.4099 1.4099 0 0 0 -0.84375 2.4062l21.125 21.125a1.4099 1.4099 0 0 0 2.4 -0.906 1.4099 1.4099 0 0 0 0 -0.094v-12.531-3.719-0.281c0-3.324-2.676-6-6-6h-16.688z"/>
  <path id="path4211" style="opacity:0.12;fill:url(#linearGradient4224)" d="m67.312 6a1.4099 1.4099 0 0 0 -0.84375 2.4062l21.125 21.125a1.4099 1.4099 0 0 0 2.407 -0.906 1.4099 1.4099 0 0 0 0 -0.094v-12.531-3.719-0.281c0-3.324-2.676-6-6-6h-16.688zm0 1h0.09375 16.594c2.7922 0 5 2.2078 5 5v0.281 3.719 12.531a0.99095 0.99095 0 0 0 0 0.03125c0.0018 0.05319 0.0018-0.02194 0 0.03125-0.0077 0.05689 0.01176-0.02494 0 0.03125s0.01576-0.02395 0 0.03125 0.01967-0.02268 0 0.03125-0.0078-0.02113-0.03125 0.03125c-0.02349 0.05238 0.02718-0.01931 0 0.03125-0.000573-0.01238-0.01588-0.02424-0.03125 0s-0.0081 0.03527 0 0.03125c-0.03413 0.04616 0.0061-0.01234-0.03125 0.03125-0.01868 0.0218-0.0097 0.03399 0 0.03125 0.0026-0.0098-0.0096-0.0189-0.03125 0-0.0432 0.0378 0.01455-0.0034-0.03125 0.03125 0.0039-0.0082-0.0072-0.01562-0.03125 0-0.04816 0.03124 0.01903 0.0035-0.03125 0.03125-0.05213 0.02403 0.02247 0.01102-0.03125 0.03125s0.02379-0.01633-0.03125 0 0.02481-0.01234-0.03125 0 0.02555-0.0083-0.03125 0 0.026 0.02705-0.03125 0.03125 0.02616-0.000087-0.03125 0 0.02602 0.004-0.03125 0 0.02558-0.02313-0.03125-0.03125c-0.05683-0.0081 0.02485 0.01217-0.03125 0s0.02383 0.01616-0.03125 0 0.02253 0.02007-0.03125 0 0.02096-0.0074-0.03125-0.03125c-0.05036-0.02755 0.01701-0.000157-0.03125-0.03125-0.02413-0.01555-0.03521-0.0082-0.03125 0-0.0459-0.03447 0.01207 0.0064-0.03125-0.03125-0.02166-0.01884-0.03391-0.0098-0.03125 0l-21.125-21.125a0.99095 0.99095 0 0 0 0 -0.03125c-0.037-0.0417 0.003 0.0144-0.031-0.0306-0.034-0.0449 0 0.016-0.031-0.0312-0.03099-0.047243 0.02758 0.018061 0-0.03125-0.02404-0.051134-0.01088 0.021453-0.03125-0.03125s0.0166 0.022758 0-0.03125 0.01275 0.023795 0-0.03125-0.02242 0.024557-0.03125-0.03125c-0.0088-0.055807 0.0049 0.025041 0-0.03125s0.000891 0.025245 0-0.03125-0.0031 0.025167 0-0.03125-0.0071 0.024808 0-0.03125 0.02024 0.02417 0.03125-0.03125-0.01489 0.023255 0-0.03125-0.0187 0.022069 0-0.03125c0.02241-0.051867 0.0052 0.018907 0.03125-0.03125 0.02601-0.050157-0.02949 0.016947 0-0.03125s-0.0016 0.014746 0.03125-0.03125c0.01641-0.022998 0.0086-0.034633 0-0.03125-0.0016 0.010561 0.01177 0.02046 0.03125 0 0.03896-0.04092-0.0105 0.00682 0.03125-0.03125 0.02088-0.019035 0.01076-0.032575 0-0.03125-0.0036 0.00836 0.0079 0.015907 0.03125 0 0.04669-0.031815-0.01757-0.00281 0.03125-0.03125 0.04882-0.028441-0.01946 0.024926 0.03125 0 0.05-0.0249-0.022-0.0099 0.03-0.0312z"/>
 </g>
 <g id="layer6">
  <path id="path3851" style="opacity:.2" d="m14 12.031c-1.1559 0-1.9688 0.81282-1.9688 1.9688v1c0-1.1559 0.81282-1.9688 1.9688-1.9688h0.71875 41.344c9.302 9.302 18.59 18.618 27.906 27.906v-1c-9.316-9.288-18.604-18.604-27.907-27.906h-41.344-0.71875z"/>
  <path id="path3992" style="opacity:.2" d="m14 12.031c-1.1559 0-1.9688 0.81282-1.9688 1.9688v1c0-1.1559 0.81282-1.9688 1.9688-1.9688h0.71875 41.344c9.302 9.302 18.59 18.618 27.906 27.906v-1c-9.316-9.288-18.604-18.604-27.907-27.906h-41.344-0.71875z"/>
  <path id="path3994" style="fill:url(#linearGradient3141)" d="m14 12.031c-1.1559 0-1.9688 0.81282-1.9688 1.9688v9 29 17 8.2812 0.71875c0 1.0777 0.71755 1.837 1.75 1.9375 0.07491 0.0073 0.14207 0.01592 0.21875 0.03125h5 58 5c0.07224 0 0.1493-0.0086 0.21875-0.03125 1.0324-0.10053 1.75-0.85977 1.75-1.9375v-0.71875-8.2812-17-12.062c-9.316-9.289-18.604-18.605-27.907-27.907h-41.344z"/>
  <path id="path3996" style="opacity:.6;fill:url(#radialGradient3920)" d="m17.906 17.062c-0.46 0.044-0.849 0.476-0.844 0.938v9 38 9c-0.0037 0.49188 0.44562 0.94123 0.9375 0.9375h5 55c0.492 0.003 0.941-0.446 0.938-0.938v-9-23.406c-0.003-0.244-0.107-0.486-0.282-0.656l-23.594-23.594c-0.17-0.175-0.412-0.279-0.656-0.282h-36.406c-0.03122-0.0016-0.06253-0.0016-0.09375 0z"/>
  <path id="path3998" style="fill:url(#linearGradient3135)" d="m18 18v9 38 9h5 55v-9-23.406l-23.594-23.594z"/>
  <path id="path4000" style="opacity:.7;fill:#fff" d="m18 18v9 38 9h5 55v-9-23.406l-23.594-23.594zm1 1h35.031l22.969 22.969v23.031 8h-54-4v-8-38z"/>
  <path id="path4004" style="opacity:.2" d="m14 12.031c-1.1559 0-1.9688 0.81282-1.9688 1.9688v1c0-1.1559 0.81282-1.9688 1.9688-1.9688h0.71875 41.344c9.302 9.302 18.59 18.618 27.906 27.906v-1c-9.316-9.288-18.604-18.604-27.907-27.906h-41.344-0.71875z"/>
  <path id="path3990" style="opacity:.1" d="m14 12.031c-1.1559 0-1.9688 0.81282-1.9688 1.9688v9 33 13 8.2812 0.71875c0 1.0777 0.71755 1.837 1.75 1.9375 0.07491 0.0073 0.14207 0.01592 0.21875 0.03125h5 58 5c0.07224 0 0.1493-0.0086 0.21875-0.03125 1.0324-0.10053 1.75-0.85977 1.75-1.9375v-0.71875-8.2812-13-16.062c-9.316-9.289-18.604-18.605-27.907-27.907h-41.344zm0 0.969h0.71875 40.938c9.113 9.114 18.214 18.241 27.343 27.344v15.656 13 8.281 0.719c0 0.64842-0.26705 0.90956-0.875 0.96875-0.042 0.007-0.084 0.018-0.125 0.031h-5-58-5c0.1193 0 0.09888-0.0094-0.125-0.03125-0.608-0.059-0.875-0.321-0.875-0.969v-0.719-8.281-13-33-9c0-0.70251 0.29749-1 1-1z"/>
 </g>
 <g id="layer4">
  <path id="path3888" style="fill:url(#linearGradient3077)" d="m6 80v4c0 3.324 2.676 6 6 6h72c3.324 0 6-2.676 6-6v-4c0 3.324-2.676 6-6 6h-72c-3.324 0-6-2.676-6-6z"/>
  <path id="rect4345" style="opacity:.1;color:#000000" d="m6 82v2c0 3.324 2.676 6 6 6h72c3.324 0 6-2.676 6-6v-2c0 3.324-2.676 6-6 6h-72c-3.324 0-6-2.676-6-6z"/>
  <path id="rect4336" style="opacity:.15;color:#000000" d="m6 83v1c0 3.324 2.676 6 6 6h72c3.324 0 6-2.676 6-6v-1c0 3.324-2.676 6-6 6h-72c-3.324 0-6-2.676-6-6z"/>
  <path id="path4056" style="fill:url(#linearGradient4085)" d="m66.125 7.875v3.0938a1.4099 1.4099 0 0 0 0.34375 1.4375l21.125 21.125a1.4099 1.4099 0 0 0 2.406 -0.906 1.4099 1.4099 0 0 0 0 -0.094v-3.781a1.4099 1.4099 0 0 1 -2.4062 0.78125l-21.125-21.125a1.4099 1.4099 0 0 1 -0.344 -0.531z"/>
 </g>
 <g id="layer5" style="display:none">
  <rect id="rect3171" style="opacity:.1;filter:url(#filter3794);stroke:#fff;stroke-linecap:round;stroke-width:.5;fill:url(#linearGradient3613)" clip-path="url(#clipPath3613)" rx="12" ry="12" height="66" width="66" y="15" x="15"/>
 </g>
 <g id="layer7">
  <path id="path4246" style="opacity:.8;color:#000000;fill:url(#linearGradient3403)" d="m28 36v2h12v-2h-12zm14 0v2h12v-2h-12zm14 0v2h12v-2h-12zm-28 4v2h12v-2h-12zm14 0v2h12v-2h-12zm14 0v2h12v-2h-12zm-28 4v2h12v-2h-12zm14 0v2h12v-2h-12zm14 0v2h12v-2h-12zm-28 4v2h12v-2h-12zm14 0v2h12v-2h-12zm14 0v2h12v-2h-12zm-28 4v2h12v-2h-12zm14 0v2h12v-2h-12zm14 0v2h12v-2h-12zm-28 4v2h12v-2h-12zm14 0v2h12v-2h-12zm14 0v2h12v-2h-12zm-28 4v2h12v-2h-12zm14 0v2h12v-2h-12zm14 0v2h12v-2h-12zm-28 4v2h12v-2h-12zm14 0v2h12v-2h-12zm14 0v2h12v-2h-12zm-28 4v2h12v-2h-12zm14 0v2h12v-2h-12zm14 0v2h12v-2h-12z"/>
  <rect id="rect8713" style="opacity:.5;color:#000000;fill:url(#radialGradient4155)" height="14" width="40" y="56" x="28"/>
  <path id="path4307" style="opacity:.2;color:#000000;fill:url(#linearGradient4323)" d="m60 36v2h8v-2h-8zm0 4v2h8v-2h-8zm0 4v2h8v-2h-8zm0 4v2h8v-2h-8zm0 4v2h8v-2h-8zm0 4v2h8v-2h-8zm0 4v2h8v-2h-8zm0 4v2h8v-2h-8zm0 4v2h8v-2h-8z"/>
  <path id="path4480" style="color:#000000;fill:url(#linearGradient4482)" d="m48 40.875c-0.46539 0-0.83865 0.02474-1.1562 0.03125a2.0145 2.0145 0 0 0 -0.03125 0c-2.8341 0.0805-6.0269 0.39791-9.2812 1.125-1.5522 0.34678-2.7722 0.95391-3.625 1.5-0.54889 0.35145-1.0631 0.71232-1.5 1.4375a2.0145 2.0145 0 0 0 -0.095 0.157c-0.04476 0.06807-0.03786-0.000313-0.125 0.21875-0.137 0.346-0.187 0.81-0.187 1.094 0-0.12665-0.05114-0.03664 0 0.375a2.0145 2.0145 0 0 0 0 0.03125c0.0067 0.05174-0.01252-0.01573 0 0.0625a2.0145 2.0145 0 0 0 0.0625 0.1875c0.02903 0.11441 0.08738 0.17813 0.125 0.28125a2.0145 2.0145 0 0 0 0 0.03125 2.0145 2.0145 0 0 0 -0.1875 0.875v3.8438c0 0.04995-0.09532 0.43158 0.09375 1.0938 0.0248 0.08684 0.09504 0.108 0.125 0.1875a2.0145 2.0145 0 0 0 -0.219 0.906c0 1.3639-0.01057 2.7305 0 4.125 0.0017 0.22714 0.0091 0.44566 0.125 0.8125 0.01638 0.05199 0.07502 0.07471 0.09375 0.125a2.0145 2.0145 0 0 0 -0.219 0.938v4.125c0 1.4932 0.96121 2.3324 1.9062 2.9375 0.96695 0.61917 2.1318 1.0585 3.5312 1.4375 2.801 0.759 6.489 1.188 10.563 1.188 4.0738 0 7.7624-0.42918 10.562-1.1875 1.3994-0.37901 2.5642-0.81821 3.5312-1.4375 0.946-0.605 1.907-1.444 1.907-2.937v-0.3125-3.8125a2.0145 2.0145 0 0 0 -0.219 -0.938c0.03183-0.09224 0.1303-0.11729 0.15625-0.21875 0.0027-0.01044-0.0026-0.02071 0-0.03125 0.142-0.592 0.063-0.877 0.063-1v-3.8125a2.0145 2.0145 0 0 0 -0.219 -0.937c0.03089-0.08968 0.13134-0.12138 0.15625-0.21875 0.0026-0.01002-0.0025-0.02115 0-0.03125 0.142-0.592 0.063-0.877 0.063-1v-3.8438a2.0145 2.0145 0 0 0 -0.188 -0.843c0.0065-0.01708 0.02486-0.01387 0.03125-0.03125a2.0145 2.0145 0 0 0 0.063 -0.157c0.000017-0.000061-0.000667-0.0279 0-0.03125 0.003-0.01124-0.0028-0.02013 0-0.03125 0.01376-0.06985 0.05735-0.27076 0.0625-0.34375 0.0013-0.01005-0.0011-0.02127 0-0.03125 0.0039-0.06385 0.00047-0.09124 0-0.125-0.000365-0.0205 0.000532-0.01693 0-0.03125-0.0016-0.0724-0.000308-0.0981 0-0.09375 0.0014-0.03946 0.03125-0.08596 0.03125-0.125 0-0.27199-0.12541-0.40209-0.1875-0.625 0.0038 0.08556 0.03591 0.18371 0.03125 0.25 0.01764-0.25988-0.09178-0.74822-0.3125-1.1562l0.031-0.031c-0.05129-0.08561-0.02143-0.03443-0.0625-0.09375-0.01474-0.02253-0.01533-0.04056-0.03125-0.0625l-0.03 0.031c-0.05733-0.07487-0.05835-0.12524-0.09375-0.15625-0.01002-0.01245-0.02115-0.01901-0.03125-0.03125-0.36012-0.43669-0.75547-0.7546-1.1875-1.0312-0.95416-0.61096-2.1408-1.0837-3.5625-1.4688-1.732-0.46908-3.8393-0.8331-6.1562-1.0312-0.10337-0.0089 0.0079 0.0024-0.03125 0-0.07829-0.0049-0.23423-0.01401-0.0625 0-0.39993-0.03176-0.84499-0.06812-1.3125-0.09375-0.13478-0.0074-0.0202-0.000253-0.03125 0s-0.1476-0.0064-0.03125 0a2.0145 2.0145 0 0 0 -0.03125 0c-0.52748-0.02756-0.96028-0.02028-1.375-0.03125-0.13163-0.0035-0.14188-0.0029-0.03125 0-0.455-0.012-0.967-0.032-1.503-0.032z" transform="translate(0,-2)"/>
  <path id="path4458" style="color:#000000;fill:url(#radialGradient4484)" d="m47.995 40.872c-0.38272 0-0.7603 0.01092-1.1353 0.01861-2.7183 0.07721-5.7793 0.4131-8.8867 1.1073-1.2905 0.28833-2.3035 0.77198-2.987 1.2097-0.42725 0.27356-0.7215 0.54596-0.87471 0.80026-0.01226 0.02539-0.02706 0.0489-0.03722 0.07444-0.047 0.121-0.074 0.24-0.074 0.363 0 0.03827 0.0046 0.07384 0.0093 0.11167 0.0013 0.006-0.0014 0.01263 0 0.01861 0.000894 0.0063-0.001 0.01236 0 0.01861 0.16054 0.63264 0.95607 1.1148 1.554 1.4144 0.7168 0.3592 1.4423 0.62844 2.2798 0.84679 3.6093 0.92637 7.5248 1.2079 11.474 1.1446 2.8538-0.07316 5.8216-0.35452 8.7936-1.126 0.87045-0.22595 1.8355-0.57293 2.6427-1.0329 0.42998-0.24504 1.0089-0.61467 1.2004-1.1353 0.0018-0.0065 0.0076-0.01202 0.0093-0.01861 0.02156-0.08053 0.0279-0.15951 0.0279-0.24194 0-0.17455-0.04487-0.34394-0.13958-0.5118-0.0062-0.009-0.01206-0.01896-0.01861-0.02792-0.0117-0.01953-0.0336-0.0364-0.04653-0.05583-0.16786-0.2086-0.42126-0.42321-0.76304-0.64207-0.68357-0.4377-1.7107-0.86402-2.987-1.2097-1.5955-0.43211-3.583-0.77003-5.8066-0.95846-0.02446-0.0021-0.04992-0.0073-0.07444-0.0093-0.42005-0.03336-0.84817-0.06049-1.2841-0.08375-0.01823-0.001-0.03758 0.001-0.05583 0-0.44638-0.02332-0.89784-0.04364-1.3586-0.05583-0.0091-0.000244-0.01872 0.00024-0.02792 0-0.47045-0.0122-0.94992-0.01861-1.433-0.01861z"/>
  <path id="path4456" style="color:#000000;fill:url(#linearGradient4462)" d="m34.009 46.295v3.8338c0 0.17768-0.01093 0.34317 0.03722 0.5118 0.05318 0.18626 0.17485 0.40326 0.39083 0.60485 0.93802 0.86563 2.2389 1.2191 3.5361 1.6284 3.023 0.79092 6.62 1.0998 10.031 1.126 3.161-0.0045 6.6402-0.30084 9.9847-1.1166 0.94123-0.25445 2.0058-0.60323 2.9777-1.1725 0.5881-0.34446 0.91433-0.74099 0.99568-1.0701 0.037-0.149 0.037-0.339 0.037-0.512v-3.8338c-0.97637 0.95207-2.4444 1.4241-3.8245 1.8146-2.7889 0.78901-5.8291 1.0123-8.8401 1.1073-3.7243 0.10913-7.5992-0.20214-11.501-1.1073-0.96901-0.23631-2.1656-0.68037-3.1452-1.2748-0.26463-0.16059-0.4908-0.35063-0.6793-0.53972z"/>
  <path id="path4454" style="color:#000000;fill:url(#linearGradient4460)" d="m34.009 52.304c0 1.3741-0.01042 2.7482 0 4.1223 0.000477 0.06438 0.01489 0.14327 0.03722 0.21402 0.05821 0.18477 0.1731 0.40517 0.39083 0.60485 0.32136 0.29474 0.72156 0.5721 1.1539 0.77235 2.5366 1.1645 5.1961 1.4394 8.1888 1.8053 1.333 0.126 2.752 0.177 4.225 0.177 2.9119-0.0042 5.7466-0.23712 8.8401-0.83749 1.3312-0.28932 2.8453-0.70248 4.1223-1.4516 0.57816-0.3609 0.91433-0.74099 0.99568-1.0701 0.037-0.149 0.037-0.339 0.037-0.512v-3.8245c-0.1303 0.12024-0.66436 0.55347-1.005 0.72582-0.89528 0.45297-2.0793 0.87541-3.1825 1.1632-3.1156 0.79988-6.4272 0.97288-9.8079 1.0422-3.3607-0.0065-6.389-0.26618-9.8079-1.0422-1.236-0.30718-2.6553-0.76535-3.7966-1.554-0.14222-0.10735-0.27526-0.22065-0.39083-0.335z"/>
  <path id="path11957" style="color:#000000;fill:url(#linearGradient4448)" d="m34.009 58.304v4.1223c0 0.38594 0.30459 0.8197 0.98638 1.2562 0.68178 0.43656 1.7029 0.84586 2.9777 1.1911 2.55 0.692 6.106 1.127 10.032 1.127 3.9251 0 7.4816-0.43545 10.031-1.126 1.2748-0.34527 2.296-0.7545 2.9777-1.1911 0.681-0.437 0.986-0.87 0.986-1.256v-0.29777-3.8245c-0.21895 0.20311-0.43837 0.39315-0.71652 0.55832-1.0382 0.61309-2.2147 0.98954-3.4709 1.3307-3.1231 0.77826-6.4226 0.98748-9.8079 1.0422-1.3618 0.000388-2.8016-0.05606-4.2712-0.1768-2.4364-0.20493-5.4937-0.64099-8.0771-1.7122-0.564-0.237-1.181-0.584-1.648-1.043z"/>
  <path id="path4326" style="opacity:.2;color:#000000;fill:url(#linearGradient4328)" d="m28 36v2h8v-2h-8zm0 4v2h8v-2h-8zm0 4v2h8v-2h-8zm0 4v2h8v-2h-8zm0 4v2h8v-2h-8zm0 4v2h8v-2h-8zm0 4v2h8v-2h-8zm0 4v2h8v-2h-8zm0 4v2h8v-2h-8z"/>
  <path id="path4486" style="opacity:.3;fill:url(#linearGradient4488)" d="m42.188 41.281c-1.378 0.178-2.794 0.401-4.219 0.719-0.5822 0.13007-1.0981 0.28133-1.5625 0.46875l11.375 1.9375-5.5938-3.125zm5.5938 3.125 5.875 3.2812h0.03125c1.4602-0.1759 2.9618-0.42944 4.4375-0.8125 0.47775-0.12401 0.97574-0.3044 1.4688-0.5l-11.812-1.9688z"/>
  <path id="path4499" style="opacity:.5;color:#000000;fill:url(#linearGradient4514)" d="m34 46.281v1c0.18849 0.18909 0.42287 0.40191 0.6875 0.5625 0.97967 0.59447 2.1872 1.0449 3.1562 1.2812 3.9023 0.9052 7.7757 1.2029 11.5 1.0938 3.0111-0.09508 6.0548-0.30474 8.8438-1.0938 1.3801-0.39047 2.8361-0.89168 3.8125-1.8438v-1c-0.97637 0.95207-2.4324 1.4533-3.8125 1.8438-2.7889 0.78901-5.8327 0.99867-8.8438 1.0938-3.7243 0.10913-7.5977-0.18855-11.5-1.0938-0.969-0.236-2.177-0.687-3.156-1.281-0.265-0.161-0.5-0.374-0.688-0.563z"/>
  <path id="path4516" style="opacity:.5;color:#000000;fill:url(#linearGradient4518)" d="m34 52.281v1c0.18849 0.18909 0.42287 0.40191 0.6875 0.5625 0.97967 0.59447 2.1872 1.0449 3.1562 1.2812 3.9023 0.9052 7.7757 1.2029 11.5 1.0938 3.0111-0.09508 6.0548-0.30474 8.8438-1.0938 1.3801-0.39047 2.8361-0.89168 3.8125-1.8438v-1c-0.97637 0.95207-2.4324 1.4533-3.8125 1.8438-2.7889 0.78901-5.8327 0.99867-8.8438 1.0938-3.7243 0.10913-7.5977-0.18855-11.5-1.0938-0.969-0.236-2.177-0.687-3.156-1.281-0.265-0.161-0.5-0.374-0.688-0.563z"/>
  <path id="path4520" style="opacity:.5;color:#000000;fill:url(#linearGradient4522)" d="m34 58.281v1c0.18849 0.18909 0.42287 0.40191 0.6875 0.5625 0.97967 0.59447 2.1872 1.0449 3.1562 1.2812 3.9023 0.9052 7.7757 1.2029 11.5 1.0938 3.0111-0.09508 6.0548-0.30474 8.8438-1.0938 1.3801-0.39047 2.8361-0.89168 3.8125-1.8438v-1c-0.97637 0.95207-2.4324 1.4533-3.8125 1.8438-2.7889 0.78901-5.8327 0.99867-8.8438 1.0938-3.7243 0.10913-7.5977-0.18855-11.5-1.0938-0.969-0.236-2.177-0.687-3.156-1.281-0.265-0.161-0.5-0.374-0.688-0.563z"/>
  <path id="path4524" style="opacity:.2;color:#000000;fill:#fff" d="m48 39.875c-0.38272 0-0.75004 0.02356-1.125 0.03125-2.718 0.077-5.799 0.4-8.906 1.094-1.291 0.288-2.285 0.781-2.969 1.219-0.427 0.273-0.722 0.527-0.875 0.781-0.012 0.025-0.052 0.068-0.063 0.094-0.047 0.12-0.062 0.22-0.062 0.344 0 0.03827-0.0047 0.08717 0 0.125 0.000894 0.0063-0.001 0.025 0 0.03125 0.03173 0.12503 0.11259 0.23072 0.1875 0.34375 0.162-0.235 0.423-0.47 0.812-0.719 0.684-0.438 1.678-0.931 2.969-1.219 3.107-0.694 6.188-1.017 8.906-1.094 0.375-0.007 0.742-0.031 1.125-0.031 0.48309 0 0.96705 0.01905 1.4375 0.03125 0.0092 0.00024 0.02215-0.000244 0.03125 0 0.46075 0.01219 0.89738 0.0079 1.3438 0.03125 0.01825 0.001 0.04427-0.001 0.0625 0 0.43598 0.02326 0.8612 0.06039 1.2812 0.09375 0.02452 0.002 0.03804-0.0021 0.0625 0 2.2236 0.18843 4.217 0.53664 5.8125 0.96875 1.2763 0.34569 2.3164 0.78105 3 1.2188 0.34178 0.21886 0.58214 0.4164 0.75 0.625 0.01293 0.01943 0.0508 0.04297 0.0625 0.0625 0.03986-0.06626 0.09853-0.11554 0.125-0.1875 0.0018-0.0065-0.0017-0.02466 0-0.03125 0.021-0.081 0.031-0.168 0.031-0.25 0-0.17455-0.06154-0.33215-0.15625-0.5-0.0062-0.009 0.0065-0.02229 0-0.03125-0.0117-0.01953-0.04957-0.04307-0.0625-0.0625-0.16786-0.2086-0.40822-0.40614-0.75-0.625-0.68357-0.4377-1.7237-0.87306-3-1.2188-1.5955-0.43211-3.5889-0.78032-5.8125-0.96875-0.02446-0.0021-0.03798 0.002-0.0625 0-0.42005-0.03336-0.84527-0.07049-1.2812-0.09375-0.01823-0.001-0.04425 0.001-0.0625 0-0.44638-0.02332-0.883-0.01906-1.3438-0.03125-0.0091-0.000244-0.02205 0.00024-0.03125 0-0.47-0.013-0.954-0.032-1.437-0.032z"/>
 </g>
</svg>
