<?xml version="1.0" encoding="UTF-8" standalone="no"?>
<!-- Created with Inkscape (http://www.inkscape.org/) -->
<svg id="svg2408" xmlns:rdf="http://www.w3.org/1999/02/22-rdf-syntax-ns#" xmlns="http://www.w3.org/2000/svg" height="96" width="96" version="1.0" xmlns:cc="http://creativecommons.org/ns#" xmlns:xlink="http://www.w3.org/1999/xlink" xmlns:dc="http://purl.org/dc/elements/1.1/">
 <defs id="defs2410">
  <linearGradient id="ButtonShadow" y2="7.0165" gradientUnits="userSpaceOnUse" x2="45.448" gradientTransform="scale(1.0059 .99417)" y1="92.54" x1="45.448">
   <stop id="stop3750" offset="0"/>
   <stop id="stop3752" style="stop-opacity:.58824" offset="1"/>
  </linearGradient>
  <linearGradient id="linearGradient3737">
   <stop id="stop3739" style="stop-color:#fff" offset="0"/>
   <stop id="stop3741" style="stop-color:#fff;stop-opacity:0" offset="1"/>
  </linearGradient>
  <filter id="filter3174" color-interpolation-filters="sRGB">
   <feGaussianBlur id="feGaussianBlur3176" stdDeviation="1.71"/>
  </filter>
  <filter id="filter3794" height="1.384" width="1.384" color-interpolation-filters="sRGB" y="-.192" x="-.192">
   <feGaussianBlur id="feGaussianBlur3796" stdDeviation="5.28"/>
  </filter>
  <linearGradient id="linearGradient3613" y2="138.66" xlink:href="#linearGradient3737" gradientUnits="userSpaceOnUse" x2="48" y1="20.221" x1="48"/>
  <clipPath id="clipPath3613">
   <rect id="rect3615" style="fill:#fff" rx="6" ry="6" height="84" width="84" y="6" x="6"/>
  </clipPath>
  <linearGradient id="linearGradient3047" y2="5.9877" gradientUnits="userSpaceOnUse" x2="48" gradientTransform="translate(100)" y1="90" x1="48">
   <stop id="stop3702" style="stop-color:#2276c5" offset="0"/>
   <stop id="stop3704" style="stop-color:#68baf4" offset="1"/>
  </linearGradient>
  <radialGradient id="radialGradient3920" gradientUnits="userSpaceOnUse" cy="47.999" cx="48" gradientTransform="matrix(1.3453 -3.8835e-8 3.3051e-8 1.1449 -16.572 -6.9543)" r="34.938">
   <stop id="stop3916" offset="0"/>
   <stop id="stop3918" style="stop-opacity:0" offset="1"/>
  </radialGradient>
  <linearGradient id="linearGradient4320" y2="992.42" gradientUnits="userSpaceOnUse" x2="121.31" gradientTransform="matrix(4.4806 0 0 4.4787 -651.6 -4376.7)" y1="976.38" x1="121.31">
   <stop id="stop10294" style="stop-color:#666" offset="0"/>
   <stop id="stop10296" style="stop-color:#333" offset="1"/>
  </linearGradient>
  <linearGradient id="linearGradient3135" y2="16" gradientUnits="userSpaceOnUse" x2="48" y1="74" x1="48">
   <stop id="stop3875" style="stop-color:#dfdfdf" offset="0"/>
   <stop id="stop3877" style="stop-color:#fefefe" offset="1"/>
  </linearGradient>
  <linearGradient id="linearGradient3141" y2="8" gradientUnits="userSpaceOnUse" x2="32" y1="81" x1="32">
   <stop id="stop3858" style="stop-color:#b3b3b3" offset="0"/>
   <stop id="stop3860" style="stop-color:#e6e6e6" offset="1"/>
  </linearGradient>
  <linearGradient id="linearGradient3892">
   <stop id="stop3894" style="stop-opacity:.58824" offset="0"/>
   <stop id="stop3896" style="stop-opacity:.47059" offset=".11780"/>
   <stop id="stop3898" style="stop-opacity:.39216" offset=".23810"/>
   <stop id="stop3900" style="stop-opacity:.31373" offset="1"/>
  </linearGradient>
  <linearGradient id="linearGradient3077" y2="88" xlink:href="#linearGradient3892" spreadMethod="reflect" gradientUnits="userSpaceOnUse" x2="48" y1="88" x1="90"/>
  <linearGradient id="linearGradient4085" y2="28" xlink:href="#linearGradient3892" gradientUnits="userSpaceOnUse" x2="79" gradientTransform="translate(0,4)" y1="28" x1="90"/>
  <linearGradient id="linearGradient4149" y2="136" xlink:href="#linearGradient3737" gradientUnits="userSpaceOnUse" x2="24" y1="8" x1="24"/>
  <linearGradient id="ButtonShadow-0-9" y2="7.0165" gradientUnits="userSpaceOnUse" x2="45.448" gradientTransform="matrix(1.0059 0 0 .99417 100 0)" y1="92.54" x1="45.448">
   <stop id="stop3750-8-4" offset="0"/>
   <stop id="stop3752-5-1" style="stop-opacity:.58824" offset="1"/>
  </linearGradient>
  <linearGradient id="linearGradient4188" y2="7" xlink:href="#ButtonShadow-0-9" gradientUnits="userSpaceOnUse" x2="49" gradientTransform="translate(100,-1)" y1="91" x1="49"/>
  <linearGradient id="linearGradient4224" y2="129" xlink:href="#linearGradient3737" gradientUnits="userSpaceOnUse" x2="78.524" gradientTransform="translate(0,-1)" y1="9" x1="78.524"/>
  <linearGradient id="linearGradient4316" y2="2" xlink:href="#ButtonShadow-0-9" gradientUnits="userSpaceOnUse" x2="56" gradientTransform="translate(0,5)" y1="86" x1="56"/>
  <linearGradient id="linearGradient4321" y2="2" xlink:href="#ButtonShadow-0-9" gradientUnits="userSpaceOnUse" x2="56" gradientTransform="matrix(1.0238 0 0 1.0119 -1.1426 4.9762)" y1="86" x1="56"/>
  <linearGradient id="linearGradient3886" y2="4" gradientUnits="userSpaceOnUse" x2="48" gradientTransform="translate(0,4)" y1="84" x1="48">
   <stop id="stop3226" style="stop-color:#278818" offset="0"/>
   <stop id="stop3228" style="stop-color:#3bb329" offset="1"/>
  </linearGradient>
  <linearGradient id="linearGradient5020-7">
   <stop id="stop5022-4" offset="0"/>
   <stop id="stop5024-1" style="stop-opacity:0" offset="1"/>
  </linearGradient>
  <linearGradient id="linearGradient5169-9" y2="-1194.6" gradientUnits="userSpaceOnUse" x2="144" gradientTransform="matrix(.27329 0 0 1 30.646 1266.6)" y1="-1194.6" x1="-17">
   <stop id="stop8076-1-9" style="stop-opacity:0" offset="0"/>
   <stop id="stop8078-94-8" offset=".49306"/>
   <stop id="stop8080-0-8" style="stop-opacity:0" offset="1"/>
  </linearGradient>
  <linearGradient id="linearGradient5256-5" y2="688.52" gradientUnits="userSpaceOnUse" x2="640" gradientTransform="matrix(.73950 0 0 .64762 -431.01 -373.56)" y1="633" x1="640">
   <stop id="stop13216-4" style="stop-color:#18a303" offset="0"/>
   <stop id="stop13218-3" style="stop-color:#106802" offset="1"/>
  </linearGradient>
  <radialGradient id="radialGradient5253-7" xlink:href="#linearGradient5020-7" gradientUnits="userSpaceOnUse" cy="50" cx="27" gradientTransform="matrix(2 0 0 1.0769 1 -6.8462)" r="6.5"/>
  <radialGradient id="radialGradient5250-1" xlink:href="#linearGradient5020-7" gradientUnits="userSpaceOnUse" cy="50" cx="27" gradientTransform="matrix(2 0 0 1.0769 -13 -6.8462)" r="6.5"/>
  <radialGradient id="radialGradient5247-3" xlink:href="#linearGradient5020-7" gradientUnits="userSpaceOnUse" cy="50" cx="27" gradientTransform="matrix(2 0 0 1.0769 -27 -6.8462)" r="6.5"/>
  <linearGradient id="linearGradient5243-8" y2="-1574.8" xlink:href="#linearGradient8903-0" gradientUnits="userSpaceOnUse" x2="535.44" gradientTransform="matrix(.75 0 0 .33333 -367.75 567.88)" y1="-1568.6" x1="529.25"/>
  <linearGradient id="linearGradient8903-0">
   <stop id="stop8905-9" style="stop-color:#008000" offset="0"/>
   <stop id="stop8907-7" style="stop-color:#0f0;stop-opacity:0" offset="1"/>
  </linearGradient>
  <linearGradient id="linearGradient5239-9" y2="-1574.8" xlink:href="#linearGradient8903-0" gradientUnits="userSpaceOnUse" x2="535.44" gradientTransform="matrix(.75 0 0 .33333 -367.75 575.88)" y1="-1568.6" x1="529.25"/>
  <radialGradient id="radialGradient5236-9" gradientUnits="userSpaceOnUse" cy="-853" cx="-1535.3" gradientTransform="matrix(-2.2796 0 0 -2 -3537.6 -1754)" r="10">
   <stop id="stop7772-2" style="stop-color:#fff" offset="0"/>
   <stop id="stop7774-4" style="stop-color:#f5ffaa;stop-opacity:0" offset="1"/>
  </radialGradient>
  <linearGradient id="linearGradient5232-3" y2="-1574.8" xlink:href="#linearGradient8903-0" gradientUnits="userSpaceOnUse" x2="535.44" gradientTransform="matrix(.75 0 0 .33333 -353.75 567.88)" y1="-1568.6" x1="529.25"/>
  <linearGradient id="linearGradient5228-7" y2="-1574.8" xlink:href="#linearGradient8903-0" gradientUnits="userSpaceOnUse" x2="535.44" gradientTransform="matrix(.75 0 0 .33333 -353.75 575.88)" y1="-1568.6" x1="529.25"/>
  <linearGradient id="linearGradient5224-1" y2="-1574.8" xlink:href="#linearGradient8903-0" gradientUnits="userSpaceOnUse" x2="535.44" gradientTransform="matrix(.75 0 0 .33333 -339.75 567.88)" y1="-1568.6" x1="529.25"/>
  <linearGradient id="linearGradient5220-2" y2="-1574.8" xlink:href="#linearGradient8903-0" gradientUnits="userSpaceOnUse" x2="535.44" gradientTransform="matrix(.75 0 0 .33333 -339.75 575.88)" y1="-1568.6" x1="529.25"/>
  <linearGradient id="linearGradient5216-2" y2="-1574.8" xlink:href="#linearGradient8903-0" gradientUnits="userSpaceOnUse" x2="535.44" gradientTransform="matrix(.75 0 0 .33333 -367.75 583.88)" y1="-1568.6" x1="529.25"/>
  <linearGradient id="linearGradient5212-0" y2="-1574.8" xlink:href="#linearGradient8903-0" gradientUnits="userSpaceOnUse" x2="535.44" gradientTransform="matrix(.75 0 0 .33333 -353.75 583.88)" y1="-1568.6" x1="529.25"/>
  <linearGradient id="linearGradient5208-1" y2="-1574.8" xlink:href="#linearGradient8903-0" gradientUnits="userSpaceOnUse" x2="535.44" gradientTransform="matrix(.75 0 0 .33333 -339.75 583.88)" y1="-1568.6" x1="529.25"/>
  <linearGradient id="linearGradient5204-7" y2="-1574.8" xlink:href="#linearGradient8903-0" gradientUnits="userSpaceOnUse" x2="535.44" gradientTransform="matrix(.75 0 0 .33333 -367.75 591.88)" y1="-1568.6" x1="529.25"/>
  <linearGradient id="linearGradient5200-1" y2="-1574.8" xlink:href="#linearGradient8903-0" gradientUnits="userSpaceOnUse" x2="535.44" gradientTransform="matrix(.75 0 0 .33333 -353.75 591.88)" y1="-1568.6" x1="529.25"/>
  <linearGradient id="linearGradient5196-7" y2="-1574.8" xlink:href="#linearGradient8903-0" gradientUnits="userSpaceOnUse" x2="535.44" gradientTransform="matrix(.75 0 0 .33333 -339.75 591.88)" y1="-1568.6" x1="529.25"/>
  <linearGradient id="linearGradient5133-4" y2="-1083.6" gradientUnits="userSpaceOnUse" x2="714" gradientTransform="matrix(.66667 0 0 1.1 -432 1240)" y1="-1063.6" x1="714">
   <stop id="stop15608-7" style="stop-color:#f2f2f2" offset="0"/>
   <stop id="stop15610-1" style="stop-color:#fff" offset="1"/>
  </linearGradient>
  <linearGradient id="linearGradient5111-1" y2="-1068.8" gradientUnits="userSpaceOnUse" x2="525.64" gradientTransform="matrix(.57143 0 0 1.3333 -252.14 1370.5)" y1="-1078.6" x1="525.64">
   <stop id="stop9422-7" style="stop-color:#63bbee" offset="0"/>
   <stop id="stop9368-0" style="stop-color:#aadcf7" offset="1"/>
  </linearGradient>
  <linearGradient id="linearGradient5099-4" y2="-1574.6" gradientUnits="userSpaceOnUse" x2="535" gradientTransform="matrix(.16667 0 0 .83333 -40.167 1373.2)" y1="-1568.6" x1="529.25">
   <stop id="stop8991-8" style="stop-color:#4a00ff" offset="0"/>
   <stop id="stop8993-5" style="stop-color:#00a0c1;stop-opacity:0" offset="1"/>
  </linearGradient>
  <linearGradient id="linearGradient5108-9" y2="-1068.8" gradientUnits="userSpaceOnUse" x2="525.64" gradientTransform="matrix(.57143 0 0 1.7778 -244.14 1849.7)" y1="-1078.6" x1="525.64">
   <stop id="stop6991-4" style="stop-color:#f09e6f" offset="0"/>
   <stop id="stop6993-8" style="stop-color:#f9cfb5" offset="1"/>
  </linearGradient>
  <linearGradient id="linearGradient5096-0" y2="-1574.6" gradientUnits="userSpaceOnUse" x2="535" gradientTransform="matrix(.16667 0 0 1.0833 -32.167 1765.4)" y1="-1568.6" x1="529.25">
   <stop id="stop9111-1" style="stop-color:#800000" offset="0"/>
   <stop id="stop9113-0" style="stop-color:#ffc600;stop-opacity:0" offset="1"/>
  </linearGradient>
  <linearGradient id="linearGradient5105-2" y2="-1068.8" gradientUnits="userSpaceOnUse" x2="525.64" gradientTransform="matrix(.57143 0 0 .88889 -236.14 891.34)" y1="-1078.6" x1="525.64">
   <stop id="stop6977-9" style="stop-color:#f5ce53" offset="0"/>
   <stop id="stop6979-7" style="stop-color:#fde9a9" offset="1"/>
  </linearGradient>
  <linearGradient id="linearGradient5081-5" y2="-1574.6" gradientUnits="userSpaceOnUse" x2="535" gradientTransform="matrix(.16667 0 0 0.5 -24.167 850.32)" y1="-1568.6" x1="529.25">
   <stop id="stop9121-4" style="stop-color:#f00" offset="0"/>
   <stop id="stop9123-6" style="stop-color:#d3d300;stop-opacity:0" offset="1"/>
  </linearGradient>
  <radialGradient id="radialGradient5952-3" xlink:href="#linearGradient5020-7" gradientUnits="userSpaceOnUse" cy="71.211" cx="64" gradientTransform="matrix(-1.4194 0 0 -.83871 142.84 112.72)" r="15.5"/>
  <radialGradient id="radialGradient4480" xlink:href="#linearGradient5020-7" gradientUnits="userSpaceOnUse" cy="71.211" cx="64" gradientTransform="matrix(1.4194 0 0 .83871 -28.839 5.275)" r="15.5"/>
  <linearGradient id="linearGradient4890" y2="-1194.6" gradientUnits="userSpaceOnUse" x2="144" gradientTransform="matrix(.024845 0 0 1 47.422 1249.6)" y1="-1194.6" x1="-17">
   <stop id="stop9016-6" style="stop-color:#fff;stop-opacity:0" offset="0"/>
   <stop id="stop9018-2" style="stop-color:#fff" offset=".49306"/>
   <stop id="stop9449-1" style="stop-color:#fff;stop-opacity:0" offset="1"/>
  </linearGradient>
 </defs>
 <metadata id="metadata2413">
  <rdf:RDF>
   <cc:Work rdf:about="">
    <dc:format>image/svg+xml</dc:format>
    <dc:type rdf:resource="http://purl.org/dc/dcmitype/StillImage"/>
    <dc:title/>
   </cc:Work>
  </rdf:RDF>
 </metadata>
 <g id="layer2" style="display:none">
  <rect id="rect3745" style="opacity:.9;filter:url(#filter3174);fill:url(#ButtonShadow)" rx="6" ry="6" height="85" width="86" y="7" x="5"/>
 </g>
 <g id="layer3">
  <path id="path4352" style="opacity:0.08;fill:url(#linearGradient4321)" d="m53.312 4.0312c-1.6609 0.029867-3.3105 0.10963-4.875 0.03125a0.91519 0.91519 0 0 0 -0.03125 0h-36.594c-6.0093-0.072138-10.454 5.7369-9.75 11.469 0.0000552 0.04167-0.0000546 0.08333 0 0.125 0.030657 23.421-0.046636 46.823 0.0625 70.25a0.91519 0.91519 0 0 0 0 0.0625c0.43084 5.8151 6.1648 9.6417 11.656 8.9688 0.04176-0.0051 0.08327 0.0056 0.125 0 23.665-0.02956 47.328 0.07409 71-0.03125a0.91519 0.91519 0 0 0 0.0625 0c5.7489-0.40765 9.5812-6.0597 8.9688-11.5-0.0047-0.04165 0.0052-0.08338 0-0.125-0.02028-14.238 0.04011-28.476-0.03125-42.719-0.000313-0.06251 0.000318-0.12499 0-0.1875h-0.03125c0.068-0.677-0.099-1.318-0.375-1.78-0.305-0.511-0.69-0.912-0.938-1.219-0.19085-0.237-0.19724-0.29952-0.21875-0.3125 0.04226-0.03439 0.0477-0.05486 0.1875-0.125a0.91519 0.91519 0 0 0 0.281 -0.219c1.003-1.167 1.193-2.595 1.188-3.875s-0.165-2.491-0.062-3.469a0.91519 0.91519 0 0 0 0 -0.125c-0.102-5.648 0.217-11.374-0.188-17.125a0.91519 0.91519 0 0 0 0 -0.09375c-0.957-5.3855-6.429-8.5657-11.562-7.9685-0.03114 0.00362-0.06264-0.0039-0.09375 0-4.998 0.0844-10.073-0.1781-15.156 0.125a0.91519 0.91519 0 0 0 -0.188 0.0313c-2.037 0.5411-3.106 2.4077-3.156 4.3437-0.271-0.2688-0.487-0.4381-0.844-0.8437-0.60237-0.68366-1.2754-1.4702-2-2.125-0.69206-0.62537-1.4272-1.1681-2.375-1.25v-0.03125c-0.04196-0.0078-0.08305 0.00743-0.125 0-1.662-0.2947-3.321-0.3104-4.938-0.2814z"/>
  <path id="path4338" style="opacity:.1;fill:url(#linearGradient4321)" d="m11.812 4.9688c-5.4411-0.0654-9.554 5.3302-8.8432 10.551 0.0311 23.466-0.0625 46.935 0.0469 70.399 0.391 5.278 5.73 8.792 10.757 8.112 23.71-0.03 47.423 0.06 71.131-0.045 5.213-0.37 8.75-5.596 8.127-10.572-0.021-14.345 0.042-28.698-0.031-43.039 0.37416-1.9462-3.1211-3.1232-0.875-4.25 1.6074-1.8703 0.66645-4.5726 0.90625-6.8504-0.102-5.694 0.215-11.414-0.184-17.088-0.867-4.8779-5.91-7.8088-10.62-7.2182-5.07 0.09-10.181-0.1759-15.227 0.125-1.927 0.5118-2.869 2.6096-2.469 4.4754-0.534 2.3978-3.923-4.2533-6.322-4.3396-3.198-0.5948-6.537-0.0978-9.791-0.2608h-36.606z"/>
  <path id="path4330" style="opacity:.2;fill:url(#linearGradient4321)" d="m11.844 5.9688c-4.3597 0.0761-7.8752 3.6553-7.8752 8.0312v10.188 50.625 10.188c0 4.4237 3.6075 8.0312 8.0312 8.0312h6.3125 65.688c4.352 0 7.9178-3.4852 8.0312-7.8125a1.0169 1.0169 0 0 0 0 -0.03125v-10.375-33.969h-0.03125c0.0039-0.1089 0.0056-0.23498 0-0.34375a1.0169 1.0169 0 0 0 0 -0.03125c-0.09472-0.89596-0.48688-1.7229-1.125-2.3438-0.60623-0.60129-1.3163-1.3218-1.9375-1.9375 0.04109 0.01058 0.08851 0.0301 0.09375 0.03125 0.0102 0.0022 0.14589 0.02973 0.15625 0.03125 0.01036 0.0015 0.17704 0.03047 0.1875 0.03125 0.01046 0.000778 0.17701-0.000035 0.1875 0s0.14579 0.000709 0.15625 0 0.17713-0.0298 0.1875-0.03125c0.01037-0.0014 0.14603-0.02908 0.15625-0.03125 0.01022-0.0022 0.17749-0.02837 0.1875-0.03125 0.01001-0.0029 0.14651-0.05893 0.15625-0.0625 0.0097-0.0036 0.14683-0.05826 0.15625-0.0625 0.0094-0.0042 0.14721-0.05763 0.15625-0.0625 0.009-0.0049 0.14763-0.08828 0.15625-0.09375 0.0086-0.0055 0.1481-0.08771 0.15625-0.09375 0.0082-0.006 0.11735-0.11844 0.125-0.125 0.0077-0.0066 0.14914-0.11796 0.15625-0.125 0.0071-0.007 0.08721-0.11752 0.09375-0.125 0.0065-0.0075 0.11905-0.11712 0.125-0.125 0.0059-0.0079 0.08842-0.14802 0.09375-0.15625 0.0053-0.0082 0.08906-0.14771 0.09375-0.15625 0.0047-0.0085 0.08971-0.14744 0.09375-0.15625 0.004-0.0088 0.05913-0.14722 0.0625-0.15625 0.0034-0.009 0.0598-0.14704 0.0625-0.15625 0.0027-0.0092 0.02923-0.17815 0.03125-0.1875 0.002-0.0094 0.02992-0.1468 0.03125-0.15625 0.0013-0.0094-0.00064-0.17799 0-0.1875a1.0169 1.0169 0 0 0 0.03125 -0.03125c0.000232-0.007 0.000139-0.08342 0-0.125v-0.03125-3.75-0.03125c0.000172-0.03085 0.000086-0.04788 0-0.09375 0.000116-0.0035-0.000023-0.03305 0-0.0625s0.00007-0.04171 0-0.0625v-0.03125-8.625-3.75-0.28125-3.125c0-4.4267-3.607-8.0342-8.031-8.0342h-16.219a1.0169 1.0169 0 0 0 -0.093 0.0312c-0.0083 0.0007875-0.14804-0.00125-0.15625 0-0.0082 0.00125-0.11689 0.029542-0.125 0.03125-0.0081 0.00171-0.11702 0.029093-0.125 0.03125-0.008 0.00216-0.14842 0.028654-0.15625 0.03125-0.0078 0.0026-0.11736 0.059477-0.125 0.0625-0.0076 0.00302-0.11757 0.059064-0.125 0.0625-0.0074 0.00344-0.11781 0.058665-0.125 0.0625-0.0072 0.00383-0.11807 0.058284-0.125 0.0625-0.0069 0.00422-0.0871 0.057921-0.09375 0.0625-0.0066 0.00458-0.11865 0.088826-0.125 0.09375-0.0063 0.00492-0.08773 0.088502-0.09375 0.09375-0.006 0.00525-0.11932 0.088198-0.125 0.09375-0.0057 0.00555-0.08842 0.087916-0.09375 0.09375-0.0053 0.00583-0.08879 0.087655-0.09375 0.09375-0.005 0.0061-0.08917 0.11867-0.09375 0.125-0.0046 0.00633-0.05831 0.11845-0.0625 0.125-0.0042 0.00655-0.05871 0.087003-0.0625 0.09375-0.0038 0.00675-0.05912 0.11808-0.0625 0.125-0.0034 0.00692-0.05954 0.11793-0.0625 0.125-0.003 0.00707-0.05996 0.14905-0.0625 0.15625-0.0025 0.0072-0.02913 0.11769-0.03125 0.125-0.0021 0.00731-0.02956 0.1176-0.03125 0.125-0.0017 0.0074-0.02999 0.14878-0.03125 0.15625-0.0013 0.00747-0.03043 0.11748-0.03125 0.125-0.000824 0.00752 0.00039 0.11745 0 0.125s-0.000046 0.1487 0 0.15625-0.000481 0.11746 0 0.125-0.000915 0.14874 0 0.15625 0.0299 0.11754 0.03125 0.125c0.00057 0.00316 0.02562 0.035701 0.03125 0.0625 0.0077 0.036544-0.001 0.089489 0 0.09375v2.9375c-0.0095 0.04404-0.03031 0.08853-0.03125 0.09375-0.0016 0.0089 0.000985 0.17852 0 0.1875-0.000985 0.009-0.03088 0.14723-0.03125 0.15625-0.000365 0.009-0.000256 0.14723 0 0.15625 0.000256 0.009 0.03037 0.17851 0.03125 0.1875 0.000876 0.009-0.0015 0.14733 0 0.15625 0.0015 0.0089 0.02914 0.14743 0.03125 0.15625-1.998-1.974-4.157-4.0835-6.032-5.9372-0.64-0.6402-1.482-1.0127-2.375-1.0938a1.0169 1.0169 0 0 0 -0.094 -0.0312h-45.156a1.0169 1.0169 0 0 0 -0.03125 0z"/>
  <path id="path4318" style="opacity:.3;fill:url(#linearGradient4321)" d="m11.875 7c-3.8194 0.0667-6.875 3.164-6.875 7v10.188 50.624 10.188c0 3.878 3.122 7 7 7h6.312 65.688c3.8149 0 6.9007-3.0224 7-6.8125v-10.375-33.969c0.005-0.095 0.005-0.187 0-0.282-0.068-0.64-0.379-1.266-0.844-1.718-9.762-9.683-21.596-21.366-31.375-31.032-0.465-0.4652-1.09-0.7521-1.75-0.812h-45.156zm55.906 0a1.4434 1.4267 0 0 0 -1.219 1.9062v3.125a1.4434 1.4267 0 0 0 0.34375 1.4375l21.625 21.375a1.4434 1.4267 0 0 0 2.469 -0.905 1.4434 1.4267 0 0 0 0 -0.094v-3.8125a1.4434 1.4267 0 0 0 0 -0.125 1.4434 1.4267 0 0 0 0 -0.09375v-8.6562-3.75-0.282-3.125c0-3.878-3.122-7-7-7h-16.219z"/>
  <path id="path3173-9" style="opacity:.45;fill:url(#linearGradient4316)" d="m12 7c-3.324 0-6 2.676-6 6v11 50 11c0 3.324 2.676 6 6 6h7 65c3.324 0 6-2.676 6-6v-0.719-10.281-33.562c0.0048-0.09367 0.0048-0.18758 0-0.28125-0.06619-0.63339-0.35863-1.2408-0.8125-1.6875-9.536-9.569-21.105-21.104-30.657-30.656-0.454-0.4607-1.074-0.7538-1.719-0.813h-44.093-0.719zm55.312 0a1.4099 1.4099 0 0 0 -1.187 1.875v3.0938a1.4099 1.4099 0 0 0 0.34375 1.4375l21.125 21.125a1.4099 1.4099 0 0 0 2.406 -0.906 1.4099 1.4099 0 0 0 0 -0.094v-3.781a1.4099 1.4099 0 0 0 0 -0.125 1.4099 1.4099 0 0 0 0 -0.09375v-8.531-3.719-0.281-3.719-0.281c0-3.324-2.676-6-6-6h-16.688z"/>
 </g>
 <g id="layer1">
  <path id="path3173" style="fill:url(#linearGradient3886)" d="m12 6c-3.324 0-6 2.676-6 6v11 50 11c0 3.324 2.676 6 6 6h7 65c3.324 0 6-2.676 6-6v-0.719-10.281-33.562c0.0048-0.09367 0.0048-0.18758 0-0.28125-0.06619-0.63339-0.35863-1.2408-0.8125-1.6875-9.536-9.569-21.105-21.104-30.657-30.656-0.454-0.4607-1.074-0.7538-1.719-0.813h-44.093-0.719zm55.312 0a1.4099 1.4099 0 0 0 -1.187 1.875v3.0938a1.4099 1.4099 0 0 0 0.34375 1.4375l21.125 21.125a1.4099 1.4099 0 0 0 2.406 -0.906 1.4099 1.4099 0 0 0 0 -0.094v-3.781a1.4099 1.4099 0 0 0 0 -0.125 1.4099 1.4099 0 0 0 0 -0.09375v-8.531-3.719-0.281-3.719-0.281c0-3.324-2.676-6-6-6h-16.688z"/>
  <rect id="rect3045" style="fill:url(#linearGradient3047)" rx="6" ry="6" height="84" width="84" y="6" x="106"/>
  <path id="path3049" style="fill:#f0f" d="m114 6 26 26v4l-30-30z"/>
  <path id="path6862" style="color:#000000;text-indent:0pt;text-transform:none;fill:url(#linearGradient4320)" d="m-152.03-3.7418c-1.1576 0-2.2228 1.0237-2.2228 2.2666v67.202c0 1.0828 1.0125 2.2228 2.1703 2.2228h53.768c1.2958 0 2.3104-1.0853 2.3104-2.1703l0.002-41.78c0-1.183-0.1434-1.7363-0.98015-2.5729l-23.9-23.882c-0.83684-0.83645-1.477-1.268-2.6604-1.2689l-28.486-0.0175zm38.882 0.0087c-1.9148 0-2.0014 1.9933-0.9889 3.0105l14.902 14.965c1.215 1.221 3.238 0.928 3.238-0.997v-14.685c0-1.1836-1.0714-2.2929-2.2491-2.2929h-14.895z"/>
  <path id="path4151" style="opacity:.1;fill:#fff" d="m6 78v2c0 3.324 2.676 6 6 6h7 65c3.324 0 6-2.676 6-6v-0.719-1.281c0 3.324-2.676 6-6 6h-65-7c-3.324 0-6-2.676-6-6z"/>
  <path id="path4136" style="opacity:.3;fill:url(#linearGradient4149)" d="m12 6c-3.324 0-6 2.676-6 6v11 46 11c0 3.324 2.7094 5.5299 6 6h7 65c3.324 0 6-2.676 6-6v-0.719-10.281-29.562c0.0048-0.09367 0.0048-0.18758 0-0.28125-0.06619-0.63339-0.35863-1.2408-0.8125-1.6875-9.536-9.569-21.105-21.104-30.657-30.656-0.454-0.4607-1.074-0.7538-1.719-0.813h-44.093-0.719zm0 1.0312h0.71875 44c0.39619 0.036384 0.81417 0.21693 1.0938 0.5 9.553 9.553 21.123 21.089 30.656 30.656 0.27263 0.26834 0.4532 0.65049 0.5 1.0312 0.000601 0.01173-0.000361 0.01951 0 0.03125 0.0014 0.04696 0.0024 0.07809 0 0.125a1.0272 1.0272 0 0 0 0 0.0625v29.562 10.281 0.71875c0 2.7728-2.196 4.9688-4.9688 4.9688h-65-6.8438c-1.461-0.207-2.7791-0.799-3.6872-1.655-0.9082-0.855-1.4376-1.929-1.4376-3.312v-11-46-11c0-2.7728 2.196-4.9688 4.9688-4.9688z"/>
  <path id="path4209" style="opacity:.45;fill:url(#linearGradient4188)" d="m112 6c-3.324 0-6 2.676-6 6v11 50 11c0 3.324 2.676 6 6 6h7 65c3.324 0 6-2.676 6-6v-0.719-10.281-33.562c0.005-0.09367 0.005-0.18758 0-0.28125-0.0662-0.63339-0.35863-1.2408-0.8125-1.6875-9.54-9.569-21.11-21.104-30.66-30.656-0.45-0.4607-1.07-0.7538-1.72-0.813h-44.09-0.72z"/>
  <path id="path3873-8" style="opacity:.45;fill:url(#linearGradient4188)" d="m167.31 6a1.4099 1.4099 0 0 0 -0.84375 2.4062l21.125 21.125a1.4099 1.4099 0 0 0 2.4 -0.906 1.4099 1.4099 0 0 0 0 -0.094v-12.531-3.719-0.281c0-3.324-2.676-6-6-6h-16.688z"/>
  <path id="path4211" style="opacity:.2;fill:url(#linearGradient4224)" d="m67.312 6a1.4099 1.4099 0 0 0 -0.84375 2.4062l21.125 21.125a1.4099 1.4099 0 0 0 2.407 -0.906 1.4099 1.4099 0 0 0 0 -0.094v-12.531-3.719-0.281c0-3.324-2.676-6-6-6h-16.688zm0 1h0.09375 16.594c2.7922 0 5 2.2078 5 5v0.281 3.719 12.531a0.99095 0.99095 0 0 0 0 0.03125c0.0018 0.05319 0.0018-0.02194 0 0.03125-0.0077 0.05689 0.01176-0.02494 0 0.03125s0.01576-0.02395 0 0.03125 0.01967-0.02268 0 0.03125-0.0078-0.02113-0.03125 0.03125c-0.02349 0.05238 0.02718-0.01931 0 0.03125-0.000573-0.01238-0.01588-0.02424-0.03125 0s-0.0081 0.03527 0 0.03125c-0.03413 0.04616 0.0061-0.01234-0.03125 0.03125-0.01868 0.0218-0.0097 0.03399 0 0.03125 0.0026-0.0098-0.0096-0.0189-0.03125 0-0.0432 0.0378 0.01455-0.0034-0.03125 0.03125 0.0039-0.0082-0.0072-0.01562-0.03125 0-0.04816 0.03124 0.01903 0.0035-0.03125 0.03125-0.05213 0.02403 0.02247 0.01102-0.03125 0.03125s0.02379-0.01633-0.03125 0 0.02481-0.01234-0.03125 0 0.02555-0.0083-0.03125 0 0.026 0.02705-0.03125 0.03125 0.02616-0.000087-0.03125 0 0.02602 0.004-0.03125 0 0.02558-0.02313-0.03125-0.03125c-0.05683-0.0081 0.02485 0.01217-0.03125 0s0.02383 0.01616-0.03125 0 0.02253 0.02007-0.03125 0 0.02096-0.0074-0.03125-0.03125c-0.05036-0.02755 0.01701-0.000157-0.03125-0.03125-0.02413-0.01555-0.03521-0.0082-0.03125 0-0.0459-0.03447 0.01207 0.0064-0.03125-0.03125-0.02166-0.01884-0.03391-0.0098-0.03125 0l-21.125-21.125a0.99095 0.99095 0 0 0 0 -0.03125c-0.037-0.0417 0.003 0.0144-0.031-0.0306-0.034-0.0449 0 0.016-0.031-0.0312-0.03099-0.047243 0.02758 0.018061 0-0.03125-0.02404-0.051134-0.01088 0.021453-0.03125-0.03125s0.0166 0.022758 0-0.03125 0.01275 0.023795 0-0.03125-0.02242 0.024557-0.03125-0.03125c-0.0088-0.055807 0.0049 0.025041 0-0.03125s0.000891 0.025245 0-0.03125-0.0031 0.025167 0-0.03125-0.0071 0.024808 0-0.03125 0.02024 0.02417 0.03125-0.03125-0.01489 0.023255 0-0.03125-0.0187 0.022069 0-0.03125c0.02241-0.051867 0.0052 0.018907 0.03125-0.03125 0.02601-0.050157-0.02949 0.016947 0-0.03125s-0.0016 0.014746 0.03125-0.03125c0.01641-0.022998 0.0086-0.034633 0-0.03125-0.0016 0.010561 0.01177 0.02046 0.03125 0 0.03896-0.04092-0.0105 0.00682 0.03125-0.03125 0.02088-0.019035 0.01076-0.032575 0-0.03125-0.0036 0.00836 0.0079 0.015907 0.03125 0 0.04669-0.031815-0.01757-0.00281 0.03125-0.03125 0.04882-0.028441-0.01946 0.024926 0.03125 0 0.05-0.0249-0.022-0.0099 0.03-0.0312z"/>
 </g>
 <g id="layer6">
  <path id="path3851" style="opacity:.2" d="m14 12.031c-1.1559 0-1.9688 0.81282-1.9688 1.9688v1c0-1.1559 0.81282-1.9688 1.9688-1.9688h0.71875 41.344c9.302 9.302 18.59 18.618 27.906 27.906v-1c-9.316-9.288-18.604-18.604-27.907-27.906h-41.344-0.71875z"/>
  <path id="path3992" style="opacity:.2" d="m14 12.031c-1.1559 0-1.9688 0.81282-1.9688 1.9688v1c0-1.1559 0.81282-1.9688 1.9688-1.9688h0.71875 41.344c9.302 9.302 18.59 18.618 27.906 27.906v-1c-9.316-9.288-18.604-18.604-27.907-27.906h-41.344-0.71875z"/>
  <path id="path3994" style="fill:url(#linearGradient3141)" d="m14 12.031c-1.1559 0-1.9688 0.81282-1.9688 1.9688v9 29 17 8.2812 0.71875c0 1.0777 0.71755 1.837 1.75 1.9375 0.07491 0.0073 0.14207 0.01592 0.21875 0.03125h5 58 5c0.07224 0 0.1493-0.0086 0.21875-0.03125 1.0324-0.10053 1.75-0.85977 1.75-1.9375v-0.71875-8.2812-17-12.062c-9.316-9.289-18.604-18.605-27.907-27.907h-41.344z"/>
  <path id="path3996" style="opacity:.6;fill:url(#radialGradient3920)" d="m17.906 17.062c-0.46 0.044-0.849 0.476-0.844 0.938v9 38 9c-0.0037 0.49188 0.44562 0.94123 0.9375 0.9375h5 55c0.492 0.003 0.941-0.446 0.938-0.938v-9-23.406c-0.003-0.244-0.107-0.486-0.282-0.656l-23.594-23.594c-0.17-0.175-0.412-0.279-0.656-0.282h-36.406c-0.03122-0.0016-0.06253-0.0016-0.09375 0z"/>
  <path id="path3998" style="fill:url(#linearGradient3135)" d="m18 18v9 38 9h5 55v-9-23.406l-23.594-23.594z"/>
  <path id="path4000" style="opacity:.7;fill:#fff" d="m18 18v9 38 9h5 55v-9-23.406l-23.594-23.594zm1 1h35.031l22.969 22.969v23.031 8h-54-4v-8-38z"/>
  <path id="path4004" style="opacity:.2" d="m14 12.031c-1.1559 0-1.9688 0.81282-1.9688 1.9688v1c0-1.1559 0.81282-1.9688 1.9688-1.9688h0.71875 41.344c9.302 9.302 18.59 18.618 27.906 27.906v-1c-9.316-9.288-18.604-18.604-27.907-27.906h-41.344-0.71875z"/>
  <path id="path3990" style="opacity:.1" d="m14 12.031c-1.1559 0-1.9688 0.81282-1.9688 1.9688v9 33 13 8.2812 0.71875c0 1.0777 0.71755 1.837 1.75 1.9375 0.07491 0.0073 0.14207 0.01592 0.21875 0.03125h5 58 5c0.07224 0 0.1493-0.0086 0.21875-0.03125 1.0324-0.10053 1.75-0.85977 1.75-1.9375v-0.71875-8.2812-13-16.062c-9.316-9.289-18.604-18.605-27.907-27.907h-41.344zm0 0.969h0.71875 40.938c9.113 9.114 18.214 18.241 27.343 27.344v15.656 13 8.281 0.719c0 0.64842-0.26705 0.90956-0.875 0.96875-0.042 0.007-0.084 0.018-0.125 0.031h-5-58-5c0.1193 0 0.09888-0.0094-0.125-0.03125-0.608-0.059-0.875-0.321-0.875-0.969v-0.719-8.281-13-33-9c0-0.70251 0.29749-1 1-1z"/>
 </g>
 <g id="layer4">
  <path id="path3888" style="fill:url(#linearGradient3077)" d="m6 80v4c0 3.324 2.676 6 6 6h72c3.324 0 6-2.676 6-6v-4c0 3.324-2.676 6-6 6h-72c-3.324 0-6-2.676-6-6z"/>
  <path id="rect4345" style="opacity:.1;color:#000000" d="m6 82v2c0 3.324 2.676 6 6 6h72c3.324 0 6-2.676 6-6v-2c0 3.324-2.676 6-6 6h-72c-3.324 0-6-2.676-6-6z"/>
  <path id="rect4336" style="opacity:.15;color:#000000" d="m6 83v1c0 3.324 2.676 6 6 6h72c3.324 0 6-2.676 6-6v-1c0 3.324-2.676 6-6 6h-72c-3.324 0-6-2.676-6-6z"/>
  <path id="path4056" style="fill:url(#linearGradient4085)" d="m66.125 7.875v3.0938a1.4099 1.4099 0 0 0 0.34375 1.4375l21.125 21.125a1.4099 1.4099 0 0 0 2.406 -0.906 1.4099 1.4099 0 0 0 0 -0.094v-3.781a1.4099 1.4099 0 0 1 -2.4062 0.78125l-21.125-21.125a1.4099 1.4099 0 0 1 -0.344 -0.531z"/>
 </g>
 <g id="layer5" style="display:none">
  <rect id="rect3171" style="opacity:.1;filter:url(#filter3794);stroke:#fff;stroke-linecap:round;stroke-width:.5;fill:url(#linearGradient3613)" clip-path="url(#clipPath3613)" rx="12" ry="12" height="66" width="66" y="15" x="15"/>
 </g>
 <g id="layer7">
  <path id="rect9153" style="opacity:.2;color:#000000;fill:url(#radialGradient4480)" d="m70 52v18h-30v1h30 1v-19h-1z"/>
  <g id="g5258" transform="translate(-2,-4)">
   <rect id="rect9149" style="opacity:.2;color:#000000;fill:url(#linearGradient5169-9)" height="1" width="44" y="72" x="26"/>
   <path id="path4027" style="color:#000000;fill:url(#linearGradient5256-5)" d="m26 38v34h44v-34z"/>
   <rect id="rect5032" style="opacity:.25;color:#000000;fill:url(#radialGradient5253-7)" height="7" width="13" y="40" x="55"/>
   <rect id="rect5028" style="opacity:.25;color:#000000;fill:url(#radialGradient5250-1)" height="7" width="13" y="40" x="41"/>
   <rect id="rect5018" style="opacity:.25;color:#000000;fill:url(#radialGradient5247-3)" height="7" width="13" y="40" x="27"/>
   <rect id="rect4031" style="color:#000000;fill:#92e285" height="6" width="12" y="40" x="28"/>
   <rect id="rect4033" style="opacity:.5;color:#000000;fill:url(#linearGradient5243-8)" height="4" width="9" y="41" x="29"/>
   <rect id="rect4037" style="color:#000000;fill:#e0f4dd" height="6" width="12" y="48" x="28"/>
   <rect id="rect4039" style="opacity:.25;color:#000000;fill:url(#linearGradient5239-9)" height="4" width="9" y="49" x="29"/>
   <rect id="rect4043" style="opacity:.4;color:#000000;fill:url(#radialGradient5236-9)" transform="matrix(0,-1,-1,0,0,0)" rx="1.375" ry=".86022" height="40" width="22" y="-68" x="-60"/>
   <rect id="rect4047" style="color:#000000;fill:#92e285" height="6" width="12" y="40" x="42"/>
   <rect id="rect4049" style="opacity:.5;color:#000000;fill:url(#linearGradient5232-3)" height="4" width="9" y="41" x="43"/>
   <rect id="rect4053" style="color:#000000;fill:#e0f4dd" height="6" width="12" y="48" x="42"/>
   <rect id="rect4055" style="opacity:.25;color:#000000;fill:url(#linearGradient5228-7)" height="4" width="9" y="49" x="43"/>
   <rect id="rect4059" style="color:#000000;fill:#92e285" height="6" width="12" y="40" x="56"/>
   <rect id="rect4061" style="opacity:.5;color:#000000;fill:url(#linearGradient5224-1)" height="4" width="9" y="41" x="57"/>
   <rect id="rect4065" style="color:#000000;fill:#e0f4dd" height="6" width="12" y="48" x="56"/>
   <rect id="rect4067" style="opacity:.25;color:#000000;fill:url(#linearGradient5220-2)" height="4" width="9" y="49" x="57"/>
   <rect id="rect4069" style="color:#000000;fill:#e0f4dd" height="6" width="12" y="56" x="28"/>
   <rect id="rect4071" style="opacity:.25;color:#000000;fill:url(#linearGradient5216-2)" height="4" width="9" y="57" x="29"/>
   <rect id="rect4073" style="color:#000000;fill:#e0f4dd" height="6" width="12" y="56" x="42"/>
   <rect id="rect4075" style="opacity:.25;color:#000000;fill:url(#linearGradient5212-0)" height="4" width="9" y="57" x="43"/>
   <rect id="rect4077" style="color:#000000;fill:#e0f4dd" height="6" width="12" y="56" x="56"/>
   <rect id="rect4079" style="opacity:.25;color:#000000;fill:url(#linearGradient5208-1)" height="4" width="9" y="57" x="57"/>
   <rect id="rect4081" style="color:#000000;fill:#e0f4dd" height="6" width="12" y="64" x="28"/>
   <rect id="rect4083" style="opacity:.25;color:#000000;fill:url(#linearGradient5204-7)" height="4" width="9" y="65" x="29"/>
   <rect id="rect4085" style="color:#000000;fill:#e0f4dd" height="6" width="12" y="64" x="42"/>
   <rect id="rect4087" style="opacity:.25;color:#000000;fill:url(#linearGradient5200-1)" height="4" width="9" y="65" x="43"/>
   <rect id="rect4089" style="color:#000000;fill:#e0f4dd" height="6" width="12" y="64" x="56"/>
   <rect id="rect4091" style="opacity:.25;color:#000000;fill:url(#linearGradient5196-7)" height="4" width="9" y="65" x="57"/>
  </g>
  <rect id="rect7693" style="color:#000000;fill:url(#linearGradient5133-4)" height="22" width="26" y="48" x="44"/>
  <rect id="rect7707" style="color:#000000;fill:#0369a3" height="14" width="6" y="54" x="46"/>
  <rect id="rect7709" style="color:#000000;fill:url(#linearGradient5111-1)" transform="scale(1,-1)" height="12" width="4" y="-67" x="47"/>
  <rect id="rect8985" style="opacity:.35;color:#000000;fill:url(#linearGradient5099-4)" height="10" width="2" y="56" x="48"/>
  <rect id="rect9022" style="opacity:.75;color:#000000;fill:url(#linearGradient4890)" height="1" width="4" y="55" x="47"/>
  <rect id="rect7711" style="color:#000000;fill:#a33e03" height="18" width="6" y="50" x="54"/>
  <rect id="rect7713" style="color:#000000;fill:url(#linearGradient5108-9)" transform="scale(1,-1)" height="16" width="4" y="-67" x="55"/>
  <rect id="rect8995" style="opacity:.35;color:#000000;fill:url(#linearGradient5096-0)" height="13" width="2" y="53" x="56"/>
  <use id="use14123" xlink:href="#rect9022" transform="translate(8 -4)" height="1085" width="5033" y="0" x="0"/>
  <rect id="rect7715" style="color:#000000;fill:#c99c00" height="10" width="6" y="58" x="62"/>
  <rect id="rect7717" style="color:#000000;fill:url(#linearGradient5105-2)" transform="scale(1,-1)" height="8" width="4" y="-67" x="63"/>
  <rect id="rect9115" style="opacity:.35;color:#000000;fill:url(#linearGradient5081-5)" height="6" width="2" y="60" x="64"/>
  <use id="use14125" xlink:href="#rect9022" transform="translate(16 4)" height="1085" width="5033" y="0" x="0"/>
  <path id="path5950" style="opacity:.2;color:#000000;fill:url(#radialGradient5952-3)" d="m44 66v-18h30v-1h-30-1v19h1z"/>
 </g>
</svg>
