<?xml version="1.0" encoding="UTF-8" standalone="no"?>
<!-- Created with Inkscape (http://www.inkscape.org/) -->
<svg id="svg2408" xmlns:rdf="http://www.w3.org/1999/02/22-rdf-syntax-ns#" xmlns="http://www.w3.org/2000/svg" height="96" width="96" version="1.0" xmlns:cc="http://creativecommons.org/ns#" xmlns:xlink="http://www.w3.org/1999/xlink" xmlns:dc="http://purl.org/dc/elements/1.1/">
 <defs id="defs2410">
  <linearGradient id="ButtonShadow" y2="7.0165" gradientUnits="userSpaceOnUse" x2="45.448" gradientTransform="scale(1.0059 .99417)" y1="92.54" x1="45.448">
   <stop id="stop3750" offset="0"/>
   <stop id="stop3752" style="stop-opacity:.58824" offset="1"/>
  </linearGradient>
  <linearGradient id="linearGradient3737">
   <stop id="stop3739" style="stop-color:#fff" offset="0"/>
   <stop id="stop3741" style="stop-color:#fff;stop-opacity:0" offset="1"/>
  </linearGradient>
  <filter id="filter3174" color-interpolation-filters="sRGB">
   <feGaussianBlur id="feGaussianBlur3176" stdDeviation="1.71"/>
  </filter>
  <filter id="filter3794" height="1.384" width="1.384" color-interpolation-filters="sRGB" y="-.192" x="-.192">
   <feGaussianBlur id="feGaussianBlur3796" stdDeviation="5.28"/>
  </filter>
  <linearGradient id="linearGradient3613" y2="138.66" xlink:href="#linearGradient3737" gradientUnits="userSpaceOnUse" x2="48" y1="20.221" x1="48"/>
  <clipPath id="clipPath3613">
   <rect id="rect3615" style="fill:#fff" rx="6" ry="6" height="84" width="84" y="6" x="6"/>
  </clipPath>
  <linearGradient id="linearGradient3047" y2="5.9877" gradientUnits="userSpaceOnUse" x2="48" gradientTransform="translate(100)" y1="90" x1="48">
   <stop id="stop3702" style="stop-color:#2276c5" offset="0"/>
   <stop id="stop3704" style="stop-color:#68baf4" offset="1"/>
  </linearGradient>
  <radialGradient id="radialGradient3920" gradientUnits="userSpaceOnUse" cy="47.999" cx="48" gradientTransform="matrix(1.3453 -3.8835e-8 3.3051e-8 1.1449 -16.572 -6.9543)" r="34.938">
   <stop id="stop3916" offset="0"/>
   <stop id="stop3918" style="stop-opacity:0" offset="1"/>
  </radialGradient>
  <linearGradient id="linearGradient4320" y2="992.42" gradientUnits="userSpaceOnUse" x2="121.31" gradientTransform="matrix(4.4806 0 0 4.4787 -651.6 -4376.7)" y1="976.38" x1="121.31">
   <stop id="stop10294" style="stop-color:#666" offset="0"/>
   <stop id="stop10296" style="stop-color:#333" offset="1"/>
  </linearGradient>
  <linearGradient id="linearGradient3135" y2="16" gradientUnits="userSpaceOnUse" x2="48" y1="74" x1="48">
   <stop id="stop3875" style="stop-color:#dfdfdf" offset="0"/>
   <stop id="stop3877" style="stop-color:#fefefe" offset="1"/>
  </linearGradient>
  <linearGradient id="linearGradient3141" y2="8" gradientUnits="userSpaceOnUse" x2="32" y1="81" x1="32">
   <stop id="stop3858" style="stop-color:#b3b3b3" offset="0"/>
   <stop id="stop3860" style="stop-color:#e6e6e6" offset="1"/>
  </linearGradient>
  <linearGradient id="linearGradient3892">
   <stop id="stop3894" style="stop-opacity:.58824" offset="0"/>
   <stop id="stop3896" style="stop-opacity:.47059" offset=".11780"/>
   <stop id="stop3898" style="stop-opacity:.39216" offset=".23810"/>
   <stop id="stop3900" style="stop-opacity:.31373" offset="1"/>
  </linearGradient>
  <linearGradient id="linearGradient3077" y2="88" xlink:href="#linearGradient3892" spreadMethod="reflect" gradientUnits="userSpaceOnUse" x2="48" y1="88" x1="90"/>
  <linearGradient id="linearGradient4068" y2="90" xlink:href="#linearGradient9334-46-2" gradientUnits="userSpaceOnUse" x2="39" gradientTransform="translate(0,4)" y1="6" x1="39"/>
  <linearGradient id="linearGradient4085" y2="28" xlink:href="#linearGradient3892" gradientUnits="userSpaceOnUse" x2="79" gradientTransform="translate(0,4)" y1="28" x1="90"/>
  <linearGradient id="linearGradient4149" y2="136" xlink:href="#linearGradient3737" gradientUnits="userSpaceOnUse" x2="24" y1="8" x1="24"/>
  <linearGradient id="ButtonShadow-0-9" y2="7.0165" gradientUnits="userSpaceOnUse" x2="45.448" gradientTransform="matrix(1.0059 0 0 .99417 100 0)" y1="92.54" x1="45.448">
   <stop id="stop3750-8-4" offset="0"/>
   <stop id="stop3752-5-1" style="stop-opacity:.58824" offset="1"/>
  </linearGradient>
  <linearGradient id="linearGradient4188" y2="7" xlink:href="#ButtonShadow-0-9" gradientUnits="userSpaceOnUse" x2="49" gradientTransform="translate(100,-1)" y1="91" x1="49"/>
  <linearGradient id="linearGradient4224" y2="129" xlink:href="#linearGradient3737" gradientUnits="userSpaceOnUse" x2="78.524" gradientTransform="translate(0,-1)" y1="9" x1="78.524"/>
  <linearGradient id="linearGradient4316" y2="2" xlink:href="#ButtonShadow-0-9" gradientUnits="userSpaceOnUse" x2="56" gradientTransform="translate(0,5)" y1="86" x1="56"/>
  <linearGradient id="linearGradient4321" y2="2" xlink:href="#ButtonShadow-0-9" gradientUnits="userSpaceOnUse" x2="56" gradientTransform="matrix(1.0238 0 0 1.0119 -1.1426 4.9762)" y1="86" x1="56"/>
  <linearGradient id="linearGradient5672" y2="192.98" xlink:href="#linearGradient8642-9-0" gradientUnits="userSpaceOnUse" x2="495.67" gradientTransform="matrix(.5 0 0 .64286 -192 -63.073)" y1="192.98" x1="516.05"/>
  <linearGradient id="linearGradient8642-9-0">
   <stop id="stop8644-6-2" style="stop-color:#000061" offset="0"/>
   <stop id="stop8646-5-9" style="stop-color:#006f86;stop-opacity:0" offset="1"/>
  </linearGradient>
  <linearGradient id="linearGradient5501" y2="-577.57" gradientUnits="userSpaceOnUse" x2="230" gradientTransform="matrix(9.818 0 0 8 -2168.9 4579.1)" y1="-581.64" x1="230">
   <stop id="stop19798-9" style="stop-color:#44adeb" offset="0"/>
   <stop id="stop19800-3" style="stop-color:#aadcf7" offset="1"/>
  </linearGradient>
  <linearGradient id="linearGradient5503" y2="1178" gradientUnits="userSpaceOnUse" x2="345" gradientTransform="matrix(-8.8663 0 0 8.1065 3146.9 -9585.6)" y1="1173" x1="345">
   <stop id="stop10294-5" style="stop-color:#666" offset="0"/>
   <stop id="stop10296-7" style="stop-color:#333" offset="1"/>
  </linearGradient>
  <linearGradient id="linearGradient5505" y2="-1303.8" gradientUnits="userSpaceOnUse" x2="361.37" gradientTransform="translate(-301 1261.6)" y1="-1313.5" x1="346.7">
   <stop id="stop8676-0" style="stop-color:#fff" offset="0"/>
   <stop id="stop8678-5" style="stop-color:#fff;stop-opacity:0" offset="1"/>
  </linearGradient>
  <linearGradient id="linearGradient5507" y2="1178" gradientUnits="userSpaceOnUse" x2="345" gradientTransform="matrix(8.8663 0 0 8.1065 -3046.9 -9583.1)" y1="1173.9" x1="345">
   <stop id="stop8657-0" style="stop-color:#666" offset="0"/>
   <stop id="stop8659-7" style="stop-color:#1a1a1a" offset="1"/>
  </linearGradient>
  <linearGradient id="linearGradient5509" y2="-634.27" gradientUnits="userSpaceOnUse" x2="298.19" gradientTransform="matrix(2.5333 0 0 2.5333 -699.85 1569.1)" y1="-631.15" x1="298.19">
   <stop id="stop13216-6-7" style="stop-color:#18a303" offset="0"/>
   <stop id="stop13218-4-1" style="stop-color:#106802" offset="1"/>
  </linearGradient>
  <linearGradient id="linearGradient5511" y2="1178" xlink:href="#linearGradient9334-46-2" gradientUnits="userSpaceOnUse" x2="345" gradientTransform="matrix(8.8663 0 0 8.1065 -3046.9 -9573)" y1="1173" x1="345"/>
  <linearGradient id="linearGradient9334-46-2">
   <stop id="stop9336-9-3" style="stop-color:#0369a3" offset="0"/>
   <stop id="stop9338-9-5" style="stop-color:#023f62" offset="1"/>
  </linearGradient>
  <linearGradient id="linearGradient5513" y2="-1304.4" gradientUnits="userSpaceOnUse" x2="337.37" gradientTransform="translate(-301 1261.6)" y1="-1311.4" x1="337.37">
   <stop id="stop8629-1" style="stop-color:#666" offset="0"/>
   <stop id="stop8631-8" style="stop-color:#666;stop-opacity:.5" offset="1"/>
  </linearGradient>
  <radialGradient id="radialGradient5515" gradientUnits="userSpaceOnUse" cy="-842.91" cx="-1535.3" gradientTransform="matrix(-3.3157 0 0 -7.5844 -5016.4 -6481.3)" r="10">
   <stop id="stop8550-7" style="stop-color:#fff" offset="0"/>
   <stop id="stop8552-3" style="stop-color:#00a8ff;stop-opacity:0" offset="1"/>
  </radialGradient>
  <linearGradient id="linearGradient5517" y2="-1299.6" gradientUnits="userSpaceOnUse" x2="337.37" gradientTransform="translate(-301 1261.6)" y1="-1311.4" x1="337.37">
   <stop id="stop8629-7-7" style="stop-color:#666" offset="0"/>
   <stop id="stop8631-0-3" style="stop-color:#666;stop-opacity:.5" offset="1"/>
  </linearGradient>
  <linearGradient id="linearGradient5519" y2="-1302.7" gradientUnits="userSpaceOnUse" x2="349.55" gradientTransform="translate(-301 1261.6)" y1="-1308.9" x1="349.55">
   <stop id="stop8637-3" style="stop-color:#808080" offset="0"/>
   <stop id="stop8639-0" style="stop-color:#666" offset="1"/>
  </linearGradient>
  <linearGradient id="linearGradient5521" y2="-1301.2" gradientUnits="userSpaceOnUse" x2="349.55" gradientTransform="translate(-301 1261.6)" y1="-1307.7" x1="349.55">
   <stop id="stop8637-5-5" style="stop-color:#808080" offset="0"/>
   <stop id="stop8639-8-2" style="stop-color:#666" offset="1"/>
  </linearGradient>
  <linearGradient id="linearGradient5523" y2="-1287.5" gradientUnits="userSpaceOnUse" x2="337.38" gradientTransform="translate(-301 1261.6)" y1="-1293.6" x1="337.38">
   <stop id="stop9155-2" style="stop-color:#0369a3" offset="0"/>
   <stop id="stop9157-5" style="stop-color:#047fc6" offset="1"/>
  </linearGradient>
  <linearGradient id="linearGradient5525" y2="1099.8" gradientUnits="userSpaceOnUse" x2="441.39" y1="1103.6" x1="445.7">
   <stop id="stop10757-8" style="stop-color:#e9b913" offset="0"/>
   <stop id="stop10759-3" style="stop-color:#ff0" offset="1"/>
  </linearGradient>
  <radialGradient id="radialGradient5537" gradientUnits="userSpaceOnUse" cy="44.923" cx="58" gradientTransform="matrix(1.4286 0 0 .76190 -24.857 9.7729)" r="10.5">
   <stop id="stop5533" offset="0"/>
   <stop id="stop5535" style="stop-opacity:0" offset="1"/>
  </radialGradient>
  <linearGradient id="linearGradient5338" y2="192.98" xlink:href="#linearGradient8642-9-0" gradientUnits="userSpaceOnUse" x2="495.67" gradientTransform="matrix(-.5 0 0 .60714 284 -55.68)" y1="192.98" x1="516.05"/>
  <linearGradient id="linearGradient5641" y2="-1516.6" gradientUnits="userSpaceOnUse" x2="297.25" gradientTransform="matrix(.32258 0 0 .4 -58.387 676.66)" y1="-1601.6" x1="297.25">
   <stop id="stop19848-5" style="stop-color:#259dd2" offset="0"/>
   <stop id="stop19850-1" style="stop-color:#065d8d" offset="1"/>
  </linearGradient>
  <linearGradient id="linearGradient3381" y2="-1507.6" gradientUnits="userSpaceOnUse" x2="298" gradientTransform="matrix(.28571 0 0 .28571 -46.286 491.9)" y1="-1587.6" x1="298">
   <stop id="stop19848-1-0" style="stop-color:#259dd2" offset="0"/>
   <stop id="stop19850-7-8" style="stop-color:#025583" offset="1"/>
  </linearGradient>
 </defs>
 <metadata id="metadata2413">
  <rdf:RDF>
   <cc:Work rdf:about="">
    <dc:format>image/svg+xml</dc:format>
    <dc:type rdf:resource="http://purl.org/dc/dcmitype/StillImage"/>
    <dc:title/>
   </cc:Work>
  </rdf:RDF>
 </metadata>
 <g id="layer2" style="display:none">
  <rect id="rect3745" style="opacity:.9;filter:url(#filter3174);fill:url(#ButtonShadow)" rx="6" ry="6" height="85" width="86" y="7" x="5"/>
 </g>
 <g id="layer3">
  <path id="path4352" style="opacity:0.08;fill:url(#linearGradient4321)" d="m53.312 4.0312c-1.6609 0.029867-3.3105 0.10963-4.875 0.03125a0.91519 0.91519 0 0 0 -0.03125 0h-36.594c-6.0093-0.072138-10.454 5.7369-9.75 11.469 0.0000552 0.04167-0.0000546 0.08333 0 0.125 0.030657 23.421-0.046636 46.823 0.0625 70.25a0.91519 0.91519 0 0 0 0 0.0625c0.43084 5.8151 6.1648 9.6417 11.656 8.9688 0.04176-0.0051 0.08327 0.0056 0.125 0 23.665-0.02956 47.328 0.07409 71-0.03125a0.91519 0.91519 0 0 0 0.0625 0c5.7489-0.40765 9.5812-6.0597 8.9688-11.5-0.0047-0.04165 0.0052-0.08338 0-0.125-0.02028-14.238 0.04011-28.476-0.03125-42.719-0.000313-0.06251 0.000318-0.12499 0-0.1875h-0.03125c0.068-0.677-0.099-1.318-0.375-1.78-0.305-0.511-0.69-0.912-0.938-1.219-0.19085-0.237-0.19724-0.29952-0.21875-0.3125 0.04226-0.03439 0.0477-0.05486 0.1875-0.125a0.91519 0.91519 0 0 0 0.281 -0.219c1.003-1.167 1.193-2.595 1.188-3.875s-0.165-2.491-0.062-3.469a0.91519 0.91519 0 0 0 0 -0.125c-0.102-5.648 0.217-11.374-0.188-17.125a0.91519 0.91519 0 0 0 0 -0.09375c-0.957-5.3855-6.429-8.5657-11.562-7.9685-0.03114 0.00362-0.06264-0.0039-0.09375 0-4.998 0.0844-10.073-0.1781-15.156 0.125a0.91519 0.91519 0 0 0 -0.188 0.0313c-2.037 0.5411-3.106 2.4077-3.156 4.3437-0.271-0.2688-0.487-0.4381-0.844-0.8437-0.60237-0.68366-1.2754-1.4702-2-2.125-0.69206-0.62537-1.4272-1.1681-2.375-1.25v-0.03125c-0.04196-0.0078-0.08305 0.00743-0.125 0-1.662-0.2947-3.321-0.3104-4.938-0.2814z"/>
  <path id="path4338" style="opacity:.1;fill:url(#linearGradient4321)" d="m11.812 4.9688c-5.4411-0.0654-9.554 5.3302-8.8432 10.551 0.0311 23.466-0.0625 46.935 0.0469 70.399 0.391 5.278 5.73 8.792 10.757 8.112 23.71-0.03 47.423 0.06 71.131-0.045 5.213-0.37 8.75-5.596 8.127-10.572-0.021-14.345 0.042-28.698-0.031-43.039 0.37416-1.9462-3.1211-3.1232-0.875-4.25 1.6074-1.8703 0.66645-4.5726 0.90625-6.8504-0.102-5.694 0.215-11.414-0.184-17.088-0.867-4.8779-5.91-7.8088-10.62-7.2182-5.07 0.09-10.181-0.1759-15.227 0.125-1.927 0.5118-2.869 2.6096-2.469 4.4754-0.534 2.3978-3.923-4.2533-6.322-4.3396-3.198-0.5948-6.537-0.0978-9.791-0.2608h-36.606z"/>
  <path id="path4330" style="opacity:.2;fill:url(#linearGradient4321)" d="m11.844 5.9688c-4.3597 0.0761-7.8752 3.6553-7.8752 8.0312v10.188 50.625 10.188c0 4.4237 3.6075 8.0312 8.0312 8.0312h6.3125 65.688c4.352 0 7.9178-3.4852 8.0312-7.8125a1.0169 1.0169 0 0 0 0 -0.03125v-10.375-33.969h-0.03125c0.0039-0.1089 0.0056-0.23498 0-0.34375a1.0169 1.0169 0 0 0 0 -0.03125c-0.09472-0.89596-0.48688-1.7229-1.125-2.3438-0.60623-0.60129-1.3163-1.3218-1.9375-1.9375 0.04109 0.01058 0.08851 0.0301 0.09375 0.03125 0.0102 0.0022 0.14589 0.02973 0.15625 0.03125 0.01036 0.0015 0.17704 0.03047 0.1875 0.03125 0.01046 0.000778 0.17701-0.000035 0.1875 0s0.14579 0.000709 0.15625 0 0.17713-0.0298 0.1875-0.03125c0.01037-0.0014 0.14603-0.02908 0.15625-0.03125 0.01022-0.0022 0.17749-0.02837 0.1875-0.03125 0.01001-0.0029 0.14651-0.05893 0.15625-0.0625 0.0097-0.0036 0.14683-0.05826 0.15625-0.0625 0.0094-0.0042 0.14721-0.05763 0.15625-0.0625 0.009-0.0049 0.14763-0.08828 0.15625-0.09375 0.0086-0.0055 0.1481-0.08771 0.15625-0.09375 0.0082-0.006 0.11735-0.11844 0.125-0.125 0.0077-0.0066 0.14914-0.11796 0.15625-0.125 0.0071-0.007 0.08721-0.11752 0.09375-0.125 0.0065-0.0075 0.11905-0.11712 0.125-0.125 0.0059-0.0079 0.08842-0.14802 0.09375-0.15625 0.0053-0.0082 0.08906-0.14771 0.09375-0.15625 0.0047-0.0085 0.08971-0.14744 0.09375-0.15625 0.004-0.0088 0.05913-0.14722 0.0625-0.15625 0.0034-0.009 0.0598-0.14704 0.0625-0.15625 0.0027-0.0092 0.02923-0.17815 0.03125-0.1875 0.002-0.0094 0.02992-0.1468 0.03125-0.15625 0.0013-0.0094-0.00064-0.17799 0-0.1875a1.0169 1.0169 0 0 0 0.03125 -0.03125c0.000232-0.007 0.000139-0.08342 0-0.125v-0.03125-3.75-0.03125c0.000172-0.03085 0.000086-0.04788 0-0.09375 0.000116-0.0035-0.000023-0.03305 0-0.0625s0.00007-0.04171 0-0.0625v-0.03125-8.625-3.75-0.28125-3.125c0-4.4267-3.607-8.0342-8.031-8.0342h-16.219a1.0169 1.0169 0 0 0 -0.093 0.0312c-0.0083 0.0007875-0.14804-0.00125-0.15625 0-0.0082 0.00125-0.11689 0.029542-0.125 0.03125-0.0081 0.00171-0.11702 0.029093-0.125 0.03125-0.008 0.00216-0.14842 0.028654-0.15625 0.03125-0.0078 0.0026-0.11736 0.059477-0.125 0.0625-0.0076 0.00302-0.11757 0.059064-0.125 0.0625-0.0074 0.00344-0.11781 0.058665-0.125 0.0625-0.0072 0.00383-0.11807 0.058284-0.125 0.0625-0.0069 0.00422-0.0871 0.057921-0.09375 0.0625-0.0066 0.00458-0.11865 0.088826-0.125 0.09375-0.0063 0.00492-0.08773 0.088502-0.09375 0.09375-0.006 0.00525-0.11932 0.088198-0.125 0.09375-0.0057 0.00555-0.08842 0.087916-0.09375 0.09375-0.0053 0.00583-0.08879 0.087655-0.09375 0.09375-0.005 0.0061-0.08917 0.11867-0.09375 0.125-0.0046 0.00633-0.05831 0.11845-0.0625 0.125-0.0042 0.00655-0.05871 0.087003-0.0625 0.09375-0.0038 0.00675-0.05912 0.11808-0.0625 0.125-0.0034 0.00692-0.05954 0.11793-0.0625 0.125-0.003 0.00707-0.05996 0.14905-0.0625 0.15625-0.0025 0.0072-0.02913 0.11769-0.03125 0.125-0.0021 0.00731-0.02956 0.1176-0.03125 0.125-0.0017 0.0074-0.02999 0.14878-0.03125 0.15625-0.0013 0.00747-0.03043 0.11748-0.03125 0.125-0.000824 0.00752 0.00039 0.11745 0 0.125s-0.000046 0.1487 0 0.15625-0.000481 0.11746 0 0.125-0.000915 0.14874 0 0.15625 0.0299 0.11754 0.03125 0.125c0.00057 0.00316 0.02562 0.035701 0.03125 0.0625 0.0077 0.036544-0.001 0.089489 0 0.09375v2.9375c-0.0095 0.04404-0.03031 0.08853-0.03125 0.09375-0.0016 0.0089 0.000985 0.17852 0 0.1875-0.000985 0.009-0.03088 0.14723-0.03125 0.15625-0.000365 0.009-0.000256 0.14723 0 0.15625 0.000256 0.009 0.03037 0.17851 0.03125 0.1875 0.000876 0.009-0.0015 0.14733 0 0.15625 0.0015 0.0089 0.02914 0.14743 0.03125 0.15625-1.998-1.974-4.157-4.0835-6.032-5.9372-0.64-0.6402-1.482-1.0127-2.375-1.0938a1.0169 1.0169 0 0 0 -0.094 -0.0312h-45.156a1.0169 1.0169 0 0 0 -0.03125 0z"/>
  <path id="path4318" style="opacity:.3;fill:url(#linearGradient4321)" d="m11.875 7c-3.8194 0.0667-6.875 3.164-6.875 7v10.188 50.624 10.188c0 3.878 3.122 7 7 7h6.312 65.688c3.8149 0 6.9007-3.0224 7-6.8125v-10.375-33.969c0.005-0.095 0.005-0.187 0-0.282-0.068-0.64-0.379-1.266-0.844-1.718-9.762-9.683-21.596-21.366-31.375-31.032-0.465-0.4652-1.09-0.7521-1.75-0.812h-45.156zm55.906 0a1.4434 1.4267 0 0 0 -1.219 1.9062v3.125a1.4434 1.4267 0 0 0 0.34375 1.4375l21.625 21.375a1.4434 1.4267 0 0 0 2.469 -0.905 1.4434 1.4267 0 0 0 0 -0.094v-3.8125a1.4434 1.4267 0 0 0 0 -0.125 1.4434 1.4267 0 0 0 0 -0.09375v-8.6562-3.75-0.282-3.125c0-3.878-3.122-7-7-7h-16.219z"/>
  <path id="path3173-9" style="opacity:.45;fill:url(#linearGradient4316)" d="m12 7c-3.324 0-6 2.676-6 6v11 50 11c0 3.324 2.676 6 6 6h7 65c3.324 0 6-2.676 6-6v-0.719-10.281-33.562c0.0048-0.09367 0.0048-0.18758 0-0.28125-0.06619-0.63339-0.35863-1.2408-0.8125-1.6875-9.536-9.569-21.105-21.104-30.657-30.656-0.454-0.4607-1.074-0.7538-1.719-0.813h-44.093-0.719zm55.312 0a1.4099 1.4099 0 0 0 -1.187 1.875v3.0938a1.4099 1.4099 0 0 0 0.34375 1.4375l21.125 21.125a1.4099 1.4099 0 0 0 2.406 -0.906 1.4099 1.4099 0 0 0 0 -0.094v-3.781a1.4099 1.4099 0 0 0 0 -0.125 1.4099 1.4099 0 0 0 0 -0.09375v-8.531-3.719-0.281-3.719-0.281c0-3.324-2.676-6-6-6h-16.688z"/>
 </g>
 <g id="layer1">
  <path id="path3173" style="fill:url(#linearGradient4068)" d="m12 6c-3.324 0-6 2.676-6 6v11 50 11c0 3.324 2.676 6 6 6h7 65c3.324 0 6-2.676 6-6v-0.719-10.281-33.562c0.0048-0.09367 0.0048-0.18758 0-0.28125-0.06619-0.63339-0.35863-1.2408-0.8125-1.6875-9.536-9.569-21.105-21.104-30.657-30.656-0.454-0.4607-1.074-0.7538-1.719-0.813h-44.093-0.719zm55.312 0a1.4099 1.4099 0 0 0 -1.187 1.875v3.0938a1.4099 1.4099 0 0 0 0.34375 1.4375l21.125 21.125a1.4099 1.4099 0 0 0 2.406 -0.906 1.4099 1.4099 0 0 0 0 -0.094v-3.781a1.4099 1.4099 0 0 0 0 -0.125 1.4099 1.4099 0 0 0 0 -0.09375v-8.531-3.719-0.281-3.719-0.281c0-3.324-2.676-6-6-6h-16.688z"/>
  <rect id="rect3045" style="fill:url(#linearGradient3047)" rx="6" ry="6" height="84" width="84" y="6" x="106"/>
  <path id="path3049" style="fill:#f0f" d="m114 6 26 26v4l-30-30z"/>
  <path id="path6862" style="color:#000000;text-indent:0pt;text-transform:none;fill:url(#linearGradient4320)" d="m-152.03-3.7418c-1.1576 0-2.2228 1.0237-2.2228 2.2666v67.202c0 1.0828 1.0125 2.2228 2.1703 2.2228h53.768c1.2958 0 2.3104-1.0853 2.3104-2.1703l0.002-41.78c0-1.183-0.1434-1.7363-0.98015-2.5729l-23.9-23.882c-0.83684-0.83645-1.477-1.268-2.6604-1.2689l-28.486-0.0175zm38.882 0.0087c-1.9148 0-2.0014 1.9933-0.9889 3.0105l14.902 14.965c1.215 1.221 3.238 0.928 3.238-0.997v-14.685c0-1.1836-1.0714-2.2929-2.2491-2.2929h-14.895z"/>
  <path id="path4151" style="opacity:.05;fill:#fff" d="m6 78v2c0 3.324 2.676 6 6 6h7 65c3.324 0 6-2.676 6-6v-0.719-1.281c0 3.324-2.676 6-6 6h-65-7c-3.324 0-6-2.676-6-6z"/>
  <path id="path4136" style="opacity:0.23;fill:url(#linearGradient4149)" d="m12 6c-3.324 0-6 2.676-6 6v11 46 11c0 3.324 2.7094 5.5299 6 6h7 65c3.324 0 6-2.676 6-6v-0.719-10.281-29.562c0.0048-0.09367 0.0048-0.18758 0-0.28125-0.06619-0.63339-0.35863-1.2408-0.8125-1.6875-9.536-9.569-21.105-21.104-30.657-30.656-0.454-0.4607-1.074-0.7538-1.719-0.813h-44.093-0.719zm0 1.0312h0.71875 44c0.39619 0.036384 0.81417 0.21693 1.0938 0.5 9.553 9.553 21.123 21.089 30.656 30.656 0.27263 0.26834 0.4532 0.65049 0.5 1.0312 0.000601 0.01173-0.000361 0.01951 0 0.03125 0.0014 0.04696 0.0024 0.07809 0 0.125a1.0272 1.0272 0 0 0 0 0.0625v29.562 10.281 0.71875c0 2.7728-2.196 4.9688-4.9688 4.9688h-65-6.8438c-1.461-0.207-2.7791-0.799-3.6872-1.655-0.9082-0.855-1.4376-1.929-1.4376-3.312v-11-46-11c0-2.7728 2.196-4.9688 4.9688-4.9688z"/>
  <path id="path4209" style="opacity:.45;fill:url(#linearGradient4188)" d="m112 6c-3.324 0-6 2.676-6 6v11 50 11c0 3.324 2.676 6 6 6h7 65c3.324 0 6-2.676 6-6v-0.719-10.281-33.562c0.005-0.09367 0.005-0.18758 0-0.28125-0.0662-0.63339-0.35863-1.2408-0.8125-1.6875-9.54-9.569-21.11-21.104-30.66-30.656-0.45-0.4607-1.07-0.7538-1.72-0.813h-44.09-0.72z"/>
  <path id="path3873-8" style="opacity:.45;fill:url(#linearGradient4188)" d="m167.31 6a1.4099 1.4099 0 0 0 -0.84375 2.4062l21.125 21.125a1.4099 1.4099 0 0 0 2.4 -0.906 1.4099 1.4099 0 0 0 0 -0.094v-12.531-3.719-0.281c0-3.324-2.676-6-6-6h-16.688z"/>
  <path id="path4211" style="opacity:0.12;fill:url(#linearGradient4224)" d="m67.312 6a1.4099 1.4099 0 0 0 -0.84375 2.4062l21.125 21.125a1.4099 1.4099 0 0 0 2.407 -0.906 1.4099 1.4099 0 0 0 0 -0.094v-12.531-3.719-0.281c0-3.324-2.676-6-6-6h-16.688zm0 1h0.09375 16.594c2.7922 0 5 2.2078 5 5v0.281 3.719 12.531a0.99095 0.99095 0 0 0 0 0.03125c0.0018 0.05319 0.0018-0.02194 0 0.03125-0.0077 0.05689 0.01176-0.02494 0 0.03125s0.01576-0.02395 0 0.03125 0.01967-0.02268 0 0.03125-0.0078-0.02113-0.03125 0.03125c-0.02349 0.05238 0.02718-0.01931 0 0.03125-0.000573-0.01238-0.01588-0.02424-0.03125 0s-0.0081 0.03527 0 0.03125c-0.03413 0.04616 0.0061-0.01234-0.03125 0.03125-0.01868 0.0218-0.0097 0.03399 0 0.03125 0.0026-0.0098-0.0096-0.0189-0.03125 0-0.0432 0.0378 0.01455-0.0034-0.03125 0.03125 0.0039-0.0082-0.0072-0.01562-0.03125 0-0.04816 0.03124 0.01903 0.0035-0.03125 0.03125-0.05213 0.02403 0.02247 0.01102-0.03125 0.03125s0.02379-0.01633-0.03125 0 0.02481-0.01234-0.03125 0 0.02555-0.0083-0.03125 0 0.026 0.02705-0.03125 0.03125 0.02616-0.000087-0.03125 0 0.02602 0.004-0.03125 0 0.02558-0.02313-0.03125-0.03125c-0.05683-0.0081 0.02485 0.01217-0.03125 0s0.02383 0.01616-0.03125 0 0.02253 0.02007-0.03125 0 0.02096-0.0074-0.03125-0.03125c-0.05036-0.02755 0.01701-0.000157-0.03125-0.03125-0.02413-0.01555-0.03521-0.0082-0.03125 0-0.0459-0.03447 0.01207 0.0064-0.03125-0.03125-0.02166-0.01884-0.03391-0.0098-0.03125 0l-21.125-21.125a0.99095 0.99095 0 0 0 0 -0.03125c-0.037-0.0417 0.003 0.0144-0.031-0.0306-0.034-0.0449 0 0.016-0.031-0.0312-0.03099-0.047243 0.02758 0.018061 0-0.03125-0.02404-0.051134-0.01088 0.021453-0.03125-0.03125s0.0166 0.022758 0-0.03125 0.01275 0.023795 0-0.03125-0.02242 0.024557-0.03125-0.03125c-0.0088-0.055807 0.0049 0.025041 0-0.03125s0.000891 0.025245 0-0.03125-0.0031 0.025167 0-0.03125-0.0071 0.024808 0-0.03125 0.02024 0.02417 0.03125-0.03125-0.01489 0.023255 0-0.03125-0.0187 0.022069 0-0.03125c0.02241-0.051867 0.0052 0.018907 0.03125-0.03125 0.02601-0.050157-0.02949 0.016947 0-0.03125s-0.0016 0.014746 0.03125-0.03125c0.01641-0.022998 0.0086-0.034633 0-0.03125-0.0016 0.010561 0.01177 0.02046 0.03125 0 0.03896-0.04092-0.0105 0.00682 0.03125-0.03125 0.02088-0.019035 0.01076-0.032575 0-0.03125-0.0036 0.00836 0.0079 0.015907 0.03125 0 0.04669-0.031815-0.01757-0.00281 0.03125-0.03125 0.04882-0.028441-0.01946 0.024926 0.03125 0 0.05-0.0249-0.022-0.0099 0.03-0.0312z"/>
 </g>
 <g id="layer6">
  <path id="path3851" style="opacity:.2" d="m14 12.031c-1.1559 0-1.9688 0.81282-1.9688 1.9688v1c0-1.1559 0.81282-1.9688 1.9688-1.9688h0.71875 41.344c9.302 9.302 18.59 18.618 27.906 27.906v-1c-9.316-9.288-18.604-18.604-27.907-27.906h-41.344-0.71875z"/>
  <path id="path3992" style="opacity:.2" d="m14 12.031c-1.1559 0-1.9688 0.81282-1.9688 1.9688v1c0-1.1559 0.81282-1.9688 1.9688-1.9688h0.71875 41.344c9.302 9.302 18.59 18.618 27.906 27.906v-1c-9.316-9.288-18.604-18.604-27.907-27.906h-41.344-0.71875z"/>
  <path id="path3994" style="fill:url(#linearGradient3141)" d="m14 12.031c-1.1559 0-1.9688 0.81282-1.9688 1.9688v9 29 17 8.2812 0.71875c0 1.0777 0.71755 1.837 1.75 1.9375 0.07491 0.0073 0.14207 0.01592 0.21875 0.03125h5 58 5c0.07224 0 0.1493-0.0086 0.21875-0.03125 1.0324-0.10053 1.75-0.85977 1.75-1.9375v-0.71875-8.2812-17-12.062c-9.316-9.289-18.604-18.605-27.907-27.907h-41.344z"/>
  <path id="path3996" style="opacity:.6;fill:url(#radialGradient3920)" d="m17.906 17.062c-0.46 0.044-0.849 0.476-0.844 0.938v9 38 9c-0.0037 0.49188 0.44562 0.94123 0.9375 0.9375h5 55c0.492 0.003 0.941-0.446 0.938-0.938v-9-23.406c-0.003-0.244-0.107-0.486-0.282-0.656l-23.594-23.594c-0.17-0.175-0.412-0.279-0.656-0.282h-36.406c-0.03122-0.0016-0.06253-0.0016-0.09375 0z"/>
  <path id="path3998" style="fill:url(#linearGradient3135)" d="m18 18v9 38 9h5 55v-9-23.406l-23.594-23.594z"/>
  <path id="path4000" style="opacity:.7;fill:#fff" d="m18 18v9 38 9h5 55v-9-23.406l-23.594-23.594zm1 1h35.031l22.969 22.969v23.031 8h-54-4v-8-38z"/>
  <path id="path4004" style="opacity:.2" d="m14 12.031c-1.1559 0-1.9688 0.81282-1.9688 1.9688v1c0-1.1559 0.81282-1.9688 1.9688-1.9688h0.71875 41.344c9.302 9.302 18.59 18.618 27.906 27.906v-1c-9.316-9.288-18.604-18.604-27.907-27.906h-41.344-0.71875z"/>
  <path id="path3990" style="opacity:.1" d="m14 12.031c-1.1559 0-1.9688 0.81282-1.9688 1.9688v9 33 13 8.2812 0.71875c0 1.0777 0.71755 1.837 1.75 1.9375 0.07491 0.0073 0.14207 0.01592 0.21875 0.03125h5 58 5c0.07224 0 0.1493-0.0086 0.21875-0.03125 1.0324-0.10053 1.75-0.85977 1.75-1.9375v-0.71875-8.2812-13-16.062c-9.316-9.289-18.604-18.605-27.907-27.907h-41.344zm0 0.969h0.71875 40.938c9.113 9.114 18.214 18.241 27.343 27.344v15.656 13 8.281 0.719c0 0.64842-0.26705 0.90956-0.875 0.96875-0.042 0.007-0.084 0.018-0.125 0.031h-5-58-5c0.1193 0 0.09888-0.0094-0.125-0.03125-0.608-0.059-0.875-0.321-0.875-0.969v-0.719-8.281-13-33-9c0-0.70251 0.29749-1 1-1z"/>
 </g>
 <g id="layer4">
  <path id="path3888" style="fill:url(#linearGradient3077)" d="m6 80v4c0 3.324 2.676 6 6 6h72c3.324 0 6-2.676 6-6v-4c0 3.324-2.676 6-6 6h-72c-3.324 0-6-2.676-6-6z"/>
  <path id="rect4345" style="opacity:.1;color:#000000" d="m6 82v2c0 3.324 2.676 6 6 6h72c3.324 0 6-2.676 6-6v-2c0 3.324-2.676 6-6 6h-72c-3.324 0-6-2.676-6-6z"/>
  <path id="rect4336" style="opacity:.15;color:#000000" d="m6 83v1c0 3.324 2.676 6 6 6h72c3.324 0 6-2.676 6-6v-1c0 3.324-2.676 6-6 6h-72c-3.324 0-6-2.676-6-6z"/>
  <path id="path4056" style="fill:url(#linearGradient4085)" d="m66.125 7.875v3.0938a1.4099 1.4099 0 0 0 0.34375 1.4375l21.125 21.125a1.4099 1.4099 0 0 0 2.406 -0.906 1.4099 1.4099 0 0 0 0 -0.094v-3.781a1.4099 1.4099 0 0 1 -2.4062 0.78125l-21.125-21.125a1.4099 1.4099 0 0 1 -0.344 -0.531z"/>
 </g>
 <g id="layer5" style="display:none">
  <rect id="rect3171" style="opacity:.1;filter:url(#filter3794);stroke:#fff;stroke-linecap:round;stroke-width:.5;fill:url(#linearGradient3613)" clip-path="url(#clipPath3613)" rx="12" ry="12" height="66" width="66" y="15" x="15"/>
 </g>
 <g id="layer7">
  <rect id="rect8348" style="color:#000000;fill:url(#linearGradient3381)" height="16" width="24" y="34" x="42"/>
  <path id="path5677" style="opacity:.5;color:#000000;fill:url(#linearGradient5672)" d="m56 34v16h10v-16h-10z"/>
  <path id="path5633" style="color:#000000;fill:url(#linearGradient5641)" d="m30 36v2h10v-2zm-4 4v2h14v-2zm0 4v2h14v-2zm0 4v2h14v-2zm0 4v2h40v-2zm0 4v2h40v-2zm0 4v2h40v-2zm0 4v2h40v-2zm0 4v2h26v-2z"/>
  <path id="path5668" style="opacity:.5;color:#000000;fill:url(#linearGradient5338)" d="m30 36v2h6v-2h-6zm-4 4v2h10v-2h-10zm0 4v2h10v-2h-10zm0 4v2h10v-2h-10zm0 4v2h10v-2h-10zm0 4v2h10v-2h-10zm0 4v2h10v-2h-10zm0 4v2h10v-2h-10zm0 4v2h10v-2h-10z"/>
  <rect id="rect5527" style="opacity:.5;color:#000000;fill:url(#radialGradient5537)" height="13" width="21" y="36" x="44"/>
  <g id="g5473" transform="matrix(.26315 0 0 .24958 40.842 54.488)">
   <rect id="rect8350" style="color:#000000;fill:url(#linearGradient5501)" height="48" width="75.998" y="-73.998" x="12.001"/>
   <path id="path9005" style="opacity:.5;color:#000000;fill:#fff" d="m67.344-59.86c-15.065 6.008-29.779 14.22-39.781 27.25 20.479 0 39.955-0.9876 60.435-0.9876l0.003-9.0436c-5.069-4.394-14.403-15.032-20.657-17.218z"/>
   <path id="path8352" style="color:#000000;fill:url(#linearGradient5503)" d="m67.734-58.93c5.0666 2.5332 13.872 11.355 20.263 17.733v7.5997h-58.264c10.135-12.666 25.334-20.266 38.001-25.333z"/>
   <path id="path8354" style="fill:#333" d="m49.13-44.206l0.44272-3.5773 6.6529-2.8463 3.7416-3.4959 6.579-2.6676-1.7169 4.3216-2.5648 4.493s-1.5267 4.8826-1.5267 4.8826l-1.0558 2.8131-10.552-3.9232z"/>
   <path id="path8661" style="opacity:.5;color:#000000;fill:url(#linearGradient5505)" d="m31.438-67.079c-6.449 9.7171-11.859 18.514-19.436 27.213l0.0676 7.0347c16.781 0 44.493 0.221 61.275 0.221-14.057-10.205-29.375-19.581-38.094-35.031-1.2011 1.0694-3.041-0.519-3.8125 0.5624z"/>
   <path id="path8356" style="color:#000000;fill:url(#linearGradient5507)" d="m51.267-47.531c-7.5831-6.2914-11.4-11.4-16.466-19-1.4816 0.4474-1.425 0.2772-2.5333 0 0 0-6.778 10.07-10.133 15.2-3.356 5.131-10.135 12.667-10.135 12.667v5.0665h58.264s-13.919-10.055-18.997-13.933z"/>
   <path id="path8358" style="color:#000000;fill:url(#linearGradient5509)" d="m88-38.664h-3.2656l-14.467 2.5333s-14.296-3.7999-16.447-3.7999c-2.113 0-8.8858 1.2666-10.153 1.2666-0.88823 0-6.3325-2.5332-7.6199-2.5332-2.1242 0-4.572 2.6915-10.905 3.7998 0 0-1.8196-4.0372-3.007-3.7998-7.6 2.929-10.135 2.533-10.135 2.533v12.666h75.997l0.002-12.666h0.00028z"/>
   <path id="path8360" style="color:#000000;fill:url(#linearGradient5511)" d="m12.001-36.131-0.00099 10.133h65.867l2.5333-2.5333-2.5333-2.5332-5.0666-2.5334-12.666-2.5332-12.666-1.2667-11.4 1.2667h-15.2-8.8665z"/>
   <path id="path8362" style="fill:#333" d="m17.068-41.197s3.6093-5.7939 3.6093-5.7939l4.278-5.063s3.2666-5.9502 3.2666-5.9502l4.0458-5.9926-2.746 7.5677-2.0107 6.2344-0.97249 3.9328-1.8147 4.19c-0.73049-0.5328-1.654-0.5525-2.4869-0.8228 0 0-2.3784 0.9322-2.3784 0.9322s-2.7906 0.7654-2.7906 0.7654z"/>
   <path id="path8366" style="fill:url(#linearGradient5513)" d="m26.361-41.085 2.7237-6.8784 1.3284-7.1007 1.9213-4.3839 1.1995-4.5486 1.665 4.6804 0.47301 4.4696 2.0141 3.9818 1.9966 4.5749 0.37323 3.2315-3.3538 0.9414-3.1858-1.2421-3.5217 2.2848h-3.6336z"/>
   <path id="path8368" style="fill:#808080" d="m59.013-39.926l-4.4373-3.1983-2.8341-2.261s2.7525 4.2894 2.7525 4.2894l4.5189 1.1699z"/>
   <rect id="rect8544" style="color:#000000;fill:url(#radialGradient5515)" transform="matrix(0,-1,-1,0,0,0)" height="76" width="32" y="-88" x="41.998"/>
   <path id="path8372" style="opacity:.5;color:#000000;fill:#e9b913" d="m448.77 1099.7a7.5845 4.6875 0 0 1 -7.5845 4.6875v-4.6875z" transform="matrix(0 1.9777 -3.2 0 3607 -946.62)"/>
   <path id="path8374" style="color:#000000;fill:url(#linearGradient5517)" d="m62.73-42.976l1.5659-5.0425s1.9213-4.3839 1.9213-4.3839 1.1995-4.5482 1.1995-4.5482l1.665 4.6803 2.1355 3.9947 1.5391 3.9818s-0.2199 4.2582-0.2199 4.2582l2.1149 2.1231-4.3537-0.2356-8.787-1.8183 1.2195-3.0101z"/>
   <path id="path8376" style="fill:url(#linearGradient5519)" d="m52.534-41.197s-3.6885-5.5898-3.6885-5.5898l-6.5411-7.1331-5.4117-7.1153s-2.0917-2.9615-2.0917-2.9615 2.267 7.6889 2.267 7.6889 2.4863 4.611 2.4863 4.611 2.2055 7.0438 2.2055 7.0438l0.64107 3.456s2.2771 0.763 2.2771 0.763l3.4808-0.8064c1.4613-0.1444 2.9226 0.026 4.3752 0.044z"/>
   <path id="path8378" style="color:#000000;fill:url(#linearGradient5521)" d="m86.971-40.168l-2.976-1.7897s-4.1661-5.7083-4.1661-5.7083l-6.1242-5.2942-4.7833-3.9905 0.92119 3.3345 4.2279 6.6695s0.46386 6.0147 0.46386 6.0147l2.541 1.9517 5.6999-1.1083 4.1957-0.078z"/>
   <path id="path8380" style="color:#000000;fill:url(#linearGradient5523)" d="m12.027-33.531-0.0257 7.5336h63.332v-2.5333l-2.5333-2.5332-12.666-2.5334-12.666-1.2665-12.666 1.2665-13.709 0.3778z"/>
   <path id="path9073" style="color:#000000;fill:#0088b7" d="m47.502-36.065-12.72 1.4419-13.569 1.0378-8.2752 0.029 8.1567 0.3393 13.984-0.021 12.391-1.2813 12.688 1.209 5.6442 1.101 6.9496 1.6177 2.2812 2.1875 0.3125 2.4063h1.1562l0.20512-2.7873-3.4111-3.2617-13.2-2.4813z"/>
   <path id="path8382" style="opacity:.5;fill:#1c99e0" d="m39.868-28.531l2.5333-2.5332h10.133l7.5998 2.5332 2.5333 2.5333h-5.0666l-17.733-2.5333z"/>
   <path id="path8616" style="opacity:.4;fill:#fff" d="m34.812-63.998 1.5625 5.9062c1.2843 2.3781 3.8039 3.3846 5.8839 5.4107 3.0035 2.9257 6.3388 6.3819 7.6161 7.4956l-1.0312-1.5938-6.5312-7.1562-5.4062-7.0938z"/>
   <path id="path8644" style="opacity:.25" d="m32.281-63.998-3.2696 7.6132-3.2616 9.1368-3.5736 4.3728c0.51396 0.1149 2.1057 0.4962 2.5424 0.8147l1.8125-4.1875 0.96875-3.9375 2.0312-6.25z"/>
   <path id="path8669" style="opacity:.35;fill:#ff0" d="m36.031-41.185c-2.0688 0-4.4331 2.5305-10.406 3.6875l-0.21875 0.125c0.10772 0.037 0.48667 0.1051 1.8125-0.094 1.7678-0.2652 8.0599-2.9322 9.5625-2.8437 1.5026 0.088 5.9911 2.6508 6.875 2.5625 0.88388-0.089 9.3778-1.3224 10.969-0.9688 1.591 0.3535 16.188 3.625 16.188 3.625l13.938-2.5625 3.25 0.094v-1.0938h-3.2812l-14.438 2.5313s-14.318-3.8125-16.469-3.8125c-2.113 0-8.8889 1.2812-10.156 1.2812-0.88823 0-6.3376-2.5312-7.625-2.5312z"/>
   <path id="path9046" style="opacity:0.74;color:#000000;fill:url(#linearGradient5525)" d="m448.77 1099.7a7.5845 4.6875 0 0 1 -7.5845 4.6875v-4.6875z" transform="matrix(0 1.714 -2.7733 0 3137.8 -830.2)"/>
   <path id="path9050" style="opacity:.5;color:#000000;fill:#fff" d="m72-73.998c0 8.8432 7.1566 16 16 16v-0.9884c-8.2975 0-15.012-6.7142-15.012-15.012h-0.98842z"/>
   <path id="path9064" style="opacity:.4;fill:#fff" d="m68.906-56.967 0.9375 3.3438 4.2188 6.6875 0.46875 6 2.5312 1.9687 0.4375-0.094-2.25-2.25-0.4375-5.75-2.4129-3.709 6.4754 3.459 5.125 5.3437-4.1562-5.6875-6.125-5.3125zm15.094 15 0.25 0.2813-0.0625-0.1563z"/>
   <path id="rect9059" style="opacity:.35;color:#000000;fill:#fff" d="m12-73.998v48h76v-48h-76zm1 1h74v46h-74v-46z"/>
  </g>
  <path id="path5670" style="opacity:.5;color:#000000;fill:url(#linearGradient5672)" d="m56 52v2h10v-2h-10zm0 4v2h10v-2h-10zm0 4v2h10v-2h-10zm0 4v2h10v-2h-10z"/>
 </g>
</svg>
