<?xml version="1.0" encoding="UTF-8" standalone="no"?>
<!-- Created with Inkscape (http://www.inkscape.org/) -->
<svg id="svg2408" xmlns:rdf="http://www.w3.org/1999/02/22-rdf-syntax-ns#" xmlns="http://www.w3.org/2000/svg" height="96" width="96" version="1.0" xmlns:cc="http://creativecommons.org/ns#" xmlns:xlink="http://www.w3.org/1999/xlink" xmlns:dc="http://purl.org/dc/elements/1.1/">
 <defs id="defs2410">
  <linearGradient id="ButtonShadow" y2="7.0165" gradientUnits="userSpaceOnUse" x2="45.448" gradientTransform="scale(1.0059 .99417)" y1="92.54" x1="45.448">
   <stop id="stop3750" offset="0"/>
   <stop id="stop3752" style="stop-opacity:.58824" offset="1"/>
  </linearGradient>
  <linearGradient id="linearGradient3737">
   <stop id="stop3739" style="stop-color:#fff" offset="0"/>
   <stop id="stop3741" style="stop-color:#fff;stop-opacity:0" offset="1"/>
  </linearGradient>
  <filter id="filter3174" color-interpolation-filters="sRGB">
   <feGaussianBlur id="feGaussianBlur3176" stdDeviation="1.71"/>
  </filter>
  <filter id="filter3794" height="1.384" width="1.384" color-interpolation-filters="sRGB" y="-.192" x="-.192">
   <feGaussianBlur id="feGaussianBlur3796" stdDeviation="5.28"/>
  </filter>
  <linearGradient id="linearGradient3613" y2="138.66" xlink:href="#linearGradient3737" gradientUnits="userSpaceOnUse" x2="48" y1="20.221" x1="48"/>
  <clipPath id="clipPath3613">
   <rect id="rect3615" style="fill:#fff" rx="6" ry="6" height="84" width="84" y="6" x="6"/>
  </clipPath>
  <linearGradient id="linearGradient3047" y2="5.9877" gradientUnits="userSpaceOnUse" x2="48" gradientTransform="translate(100)" y1="90" x1="48">
   <stop id="stop3702" style="stop-color:#2276c5" offset="0"/>
   <stop id="stop3704" style="stop-color:#68baf4" offset="1"/>
  </linearGradient>
  <radialGradient id="radialGradient3920" gradientUnits="userSpaceOnUse" cy="47.999" cx="48" gradientTransform="matrix(1.3453 -3.8835e-8 3.3051e-8 1.1449 -16.572 -6.9543)" r="34.938">
   <stop id="stop3916" offset="0"/>
   <stop id="stop3918" style="stop-opacity:0" offset="1"/>
  </radialGradient>
  <linearGradient id="linearGradient10292">
   <stop id="stop10294" style="stop-color:#666" offset="0"/>
   <stop id="stop10296" style="stop-color:#333" offset="1"/>
  </linearGradient>
  <linearGradient id="linearGradient4320" y2="992.42" xlink:href="#linearGradient10292" gradientUnits="userSpaceOnUse" x2="121.31" gradientTransform="matrix(4.4806 0 0 4.4787 -651.6 -4376.7)" y1="976.38" x1="121.31"/>
  <linearGradient id="linearGradient3135" y2="16" gradientUnits="userSpaceOnUse" x2="48" y1="74" x1="48">
   <stop id="stop3875" style="stop-color:#dfdfdf" offset="0"/>
   <stop id="stop3877" style="stop-color:#fefefe" offset="1"/>
  </linearGradient>
  <linearGradient id="linearGradient3141" y2="8" gradientUnits="userSpaceOnUse" x2="32" y1="81" x1="32">
   <stop id="stop3858" style="stop-color:#b3b3b3" offset="0"/>
   <stop id="stop3860" style="stop-color:#e6e6e6" offset="1"/>
  </linearGradient>
  <linearGradient id="linearGradient3892">
   <stop id="stop3894" style="stop-opacity:.58824" offset="0"/>
   <stop id="stop3896" style="stop-opacity:.47059" offset=".11780"/>
   <stop id="stop3898" style="stop-opacity:.39216" offset=".23810"/>
   <stop id="stop3900" style="stop-opacity:.31373" offset="1"/>
  </linearGradient>
  <linearGradient id="linearGradient3077" y2="88" xlink:href="#linearGradient3892" spreadMethod="reflect" gradientUnits="userSpaceOnUse" x2="48" y1="88" x1="90"/>
  <linearGradient id="linearGradient4068" y2="90" xlink:href="#linearGradient10292" gradientUnits="userSpaceOnUse" x2="39" gradientTransform="translate(0,4)" y1="6" x1="39"/>
  <linearGradient id="linearGradient4085" y2="28" xlink:href="#linearGradient3892" gradientUnits="userSpaceOnUse" x2="79" gradientTransform="translate(0,4)" y1="28" x1="90"/>
  <linearGradient id="linearGradient4149" y2="136" xlink:href="#linearGradient3737" gradientUnits="userSpaceOnUse" x2="24" y1="8" x1="24"/>
  <linearGradient id="ButtonShadow-0-9" y2="7.0165" gradientUnits="userSpaceOnUse" x2="45.448" gradientTransform="matrix(1.0059 0 0 .99417 100 0)" y1="92.54" x1="45.448">
   <stop id="stop3750-8-4" offset="0"/>
   <stop id="stop3752-5-1" style="stop-opacity:.58824" offset="1"/>
  </linearGradient>
  <linearGradient id="linearGradient4188" y2="7" xlink:href="#ButtonShadow-0-9" gradientUnits="userSpaceOnUse" x2="49" gradientTransform="translate(100,-1)" y1="91" x1="49"/>
  <linearGradient id="linearGradient4224" y2="129" xlink:href="#linearGradient3737" gradientUnits="userSpaceOnUse" x2="78.524" gradientTransform="translate(0,-1)" y1="9" x1="78.524"/>
  <linearGradient id="linearGradient4316" y2="2" xlink:href="#ButtonShadow-0-9" gradientUnits="userSpaceOnUse" x2="56" gradientTransform="translate(0,5)" y1="86" x1="56"/>
  <linearGradient id="linearGradient4321" y2="2" xlink:href="#ButtonShadow-0-9" gradientUnits="userSpaceOnUse" x2="56" gradientTransform="matrix(1.0238 0 0 1.0119 -1.1426 4.9762)" y1="86" x1="56"/>
  <linearGradient id="linearGradient12087" y2="53.383" xlink:href="#linearGradient9860" gradientUnits="userSpaceOnUse" x2="56.433" gradientTransform="translate(0,-2)" y1="47.865" x1="56.433"/>
  <linearGradient id="linearGradient9860">
   <stop id="stop9862" style="stop-color:#666" offset="0"/>
   <stop id="stop9864" style="stop-color:#808080" offset="1"/>
  </linearGradient>
  <linearGradient id="linearGradient11646" y2="693.65" xlink:href="#linearGradient9860" gradientUnits="userSpaceOnUse" x2="3716.3" gradientTransform="matrix(3.5629 0 0 3.6912 -13193 -2520)" y1="694.74" x1="3714.3"/>
  <linearGradient id="linearGradient12153" y2="-1194.6" xlink:href="#linearGradient8074-2-3" gradientUnits="userSpaceOnUse" x2="144" gradientTransform="matrix(.040284 0 0 .98790 62.381 1113.2)" y1="-1194.6" x1="-17"/>
  <linearGradient id="linearGradient8074-2-3">
   <stop id="stop8076-1-3" style="stop-opacity:0" offset="0"/>
   <stop id="stop8078-94-7" offset=".49306"/>
   <stop id="stop8080-0-8" style="stop-opacity:0" offset="1"/>
  </linearGradient>
  <linearGradient id="linearGradient12149" y2="-1194.6" xlink:href="#linearGradient8074-2-3" gradientUnits="userSpaceOnUse" x2="144" gradientTransform="matrix(.038533 0 0 .99757 62.634 1161.7)" y1="-1194.6" x1="-17"/>
  <linearGradient id="linearGradient12015" y2="-1194.6" xlink:href="#linearGradient8074-2-3" gradientUnits="userSpaceOnUse" x2="144" gradientTransform="matrix(.22428 0 0 .99683 -62.091 1154.8)" y1="-1194.6" x1="-17"/>
  <linearGradient id="linearGradient12161" y2="-1230.8" xlink:href="#linearGradient7931-2" gradientUnits="userSpaceOnUse" x2="113.88" gradientTransform="matrix(.10794 0 0 .057871 -47.382 136.02)" y1="-1192.6" x1="152"/>
  <linearGradient id="linearGradient7931-2">
   <stop id="stop7933-1" offset="0"/>
   <stop id="stop7968-3" style="stop-opacity:.36078" offset=".45461"/>
   <stop id="stop7935-7" style="stop-opacity:0" offset="1"/>
  </linearGradient>
  <linearGradient id="linearGradient12163" y2="-1230.8" xlink:href="#linearGradient7931-2" gradientUnits="userSpaceOnUse" x2="113.88" gradientTransform="matrix(.10751 0 0 .058231 48.54 136.48)" y1="-1192.6" x1="152"/>
  <linearGradient id="linearGradient12011" y2="-1194.6" xlink:href="#linearGradient8074-2-3" gradientUnits="userSpaceOnUse" x2="144" gradientTransform="matrix(.14814 0 0 .94771 38.642 1065.2)" y1="-1194.6" x1="-17"/>
  <linearGradient id="linearGradient11637" y2="-1194.6" gradientUnits="userSpaceOnUse" x2="144" gradientTransform="matrix(.21154 0 0 .57433 34.321 744.67)" y1="-1194.6" x1="-17">
   <stop id="stop10297" style="stop-color:#e9b913;stop-opacity:0" offset="0"/>
   <stop id="stop10299" style="stop-color:#fc5c00" offset=".49306"/>
   <stop id="stop10301" style="stop-color:#e9b913;stop-opacity:0" offset="1"/>
  </linearGradient>
  <linearGradient id="linearGradient11727" y2="-1073.6" xlink:href="#linearGradient10412" gradientUnits="userSpaceOnUse" x2="3669.5" y1="-1068.8" x1="3669.5"/>
  <linearGradient id="linearGradient10412">
   <stop id="stop10414" offset="0"/>
   <stop id="stop10416" style="stop-color:#4d4d4d" offset="1"/>
  </linearGradient>
  <linearGradient id="linearGradient11678" y2="-1494.8" gradientUnits="userSpaceOnUse" x2="3682" gradientTransform="matrix(.29978 0 0 .31019 -1070.2 531.81)" y1="-1515" x1="3682">
   <stop id="stop10305" style="stop-color:#fff" offset="0"/>
   <stop id="stop10307" style="stop-color:#f2f2f2" offset="1"/>
  </linearGradient>
  <linearGradient id="linearGradient11684" y2="-1117.8" gradientUnits="userSpaceOnUse" x2="3658.2" gradientTransform="matrix(.56252 0 0 .56970 -2015.8 673.33)" y1="-1076.6" x1="3658.2">
   <stop id="stop9983" style="stop-color:#fff6dd" offset="0"/>
   <stop id="stop9985" style="stop-color:#fef8f4" offset="1"/>
  </linearGradient>
  <linearGradient id="linearGradient11687" y2="-1561.4" gradientUnits="userSpaceOnUse" x2="3793.2" gradientTransform="matrix(.31229 0 0 .33248 -1116.8 566.83)" y1="-1603.6" x1="3793.2">
   <stop id="stop10333" style="stop-color:#ccc" offset="0"/>
   <stop id="stop10335" style="stop-color:#b3b3b3" offset="1"/>
  </linearGradient>
  <linearGradient id="linearGradient11690" y2="-1543.6" gradientUnits="userSpaceOnUse" x2="815.13" gradientTransform="matrix(.51247 0 0 .15627 -375.3 303.14)" y1="-1491.6" x1="815.13">
   <stop id="stop10480" style="stop-color:#727272" offset="0"/>
   <stop id="stop10482" style="stop-color:#b3b3b3" offset="1"/>
  </linearGradient>
  <linearGradient id="linearGradient3497" y2="-1574.6" gradientUnits="userSpaceOnUse" x2="535" gradientTransform="matrix(.73994 0 0 1.8392 -360.49 2944.1)" y1="-1568.6" x1="529.25">
   <stop id="stop10218" style="stop-color:#fc5c00" offset="0"/>
   <stop id="stop10220" style="stop-color:#ccc;stop-opacity:0" offset="1"/>
  </linearGradient>
  <linearGradient id="linearGradient3501" y2="-1194.6" gradientUnits="userSpaceOnUse" x2="144" gradientTransform="matrix(.13562 0 0 .42084 39.4 471.45)" y1="-1194.6" x1="-17">
   <stop id="stop10343" style="stop-color:#e9b913;stop-opacity:0" offset="0"/>
   <stop id="stop10345" style="stop-color:#fc5c00" offset=".49306"/>
   <stop id="stop10347" style="stop-color:#e9b913;stop-opacity:0" offset="1"/>
  </linearGradient>
  <linearGradient id="linearGradient3505" y2="-1194.6" xlink:href="#linearGradient8074-2-3" gradientUnits="userSpaceOnUse" x2="144" gradientTransform="matrix(.14814 0 0 .89058 38.642 1034)" y1="-1194.6" x1="-17"/>
 </defs>
 <metadata id="metadata2413">
  <rdf:RDF>
   <cc:Work rdf:about="">
    <dc:format>image/svg+xml</dc:format>
    <dc:type rdf:resource="http://purl.org/dc/dcmitype/StillImage"/>
    <dc:title/>
   </cc:Work>
  </rdf:RDF>
 </metadata>
 <g id="layer2" style="display:none">
  <rect id="rect3745" style="opacity:.9;filter:url(#filter3174);fill:url(#ButtonShadow)" rx="6" ry="6" height="85" width="86" y="7" x="5"/>
 </g>
 <g id="layer3">
  <path id="path4352" style="opacity:0.08;fill:url(#linearGradient4321)" d="m53.312 4.0312c-1.6609 0.029867-3.3105 0.10963-4.875 0.03125a0.91519 0.91519 0 0 0 -0.03125 0h-36.594c-6.0093-0.072138-10.454 5.7369-9.75 11.469 0.0000552 0.04167-0.0000546 0.08333 0 0.125 0.030657 23.421-0.046636 46.823 0.0625 70.25a0.91519 0.91519 0 0 0 0 0.0625c0.43084 5.8151 6.1648 9.6417 11.656 8.9688 0.04176-0.0051 0.08327 0.0056 0.125 0 23.665-0.02956 47.328 0.07409 71-0.03125a0.91519 0.91519 0 0 0 0.0625 0c5.7489-0.40765 9.5812-6.0597 8.9688-11.5-0.0047-0.04165 0.0052-0.08338 0-0.125-0.02028-14.238 0.04011-28.476-0.03125-42.719-0.000313-0.06251 0.000318-0.12499 0-0.1875h-0.03125c0.068-0.677-0.099-1.318-0.375-1.78-0.305-0.511-0.69-0.912-0.938-1.219-0.19085-0.237-0.19724-0.29952-0.21875-0.3125 0.04226-0.03439 0.0477-0.05486 0.1875-0.125a0.91519 0.91519 0 0 0 0.281 -0.219c1.003-1.167 1.193-2.595 1.188-3.875s-0.165-2.491-0.062-3.469a0.91519 0.91519 0 0 0 0 -0.125c-0.102-5.648 0.217-11.374-0.188-17.125a0.91519 0.91519 0 0 0 0 -0.09375c-0.957-5.3855-6.429-8.5657-11.562-7.9685-0.03114 0.00362-0.06264-0.0039-0.09375 0-4.998 0.0844-10.073-0.1781-15.156 0.125a0.91519 0.91519 0 0 0 -0.188 0.0313c-2.037 0.5411-3.106 2.4077-3.156 4.3437-0.271-0.2688-0.487-0.4381-0.844-0.8437-0.60237-0.68366-1.2754-1.4702-2-2.125-0.69206-0.62537-1.4272-1.1681-2.375-1.25v-0.03125c-0.04196-0.0078-0.08305 0.00743-0.125 0-1.662-0.2947-3.321-0.3104-4.938-0.2814z"/>
  <path id="path4338" style="opacity:.1;fill:url(#linearGradient4321)" d="m11.812 4.9688c-5.4411-0.0654-9.554 5.3302-8.8432 10.551 0.0311 23.466-0.0625 46.935 0.0469 70.399 0.391 5.278 5.73 8.792 10.757 8.112 23.71-0.03 47.423 0.06 71.131-0.045 5.213-0.37 8.75-5.596 8.127-10.572-0.021-14.345 0.042-28.698-0.031-43.039 0.37416-1.9462-3.1211-3.1232-0.875-4.25 1.6074-1.8703 0.66645-4.5726 0.90625-6.8504-0.102-5.694 0.215-11.414-0.184-17.088-0.867-4.8779-5.91-7.8088-10.62-7.2182-5.07 0.09-10.181-0.1759-15.227 0.125-1.927 0.5118-2.869 2.6096-2.469 4.4754-0.534 2.3978-3.923-4.2533-6.322-4.3396-3.198-0.5948-6.537-0.0978-9.791-0.2608h-36.606z"/>
  <path id="path4330" style="opacity:.2;fill:url(#linearGradient4321)" d="m11.844 5.9688c-4.3597 0.0761-7.8752 3.6553-7.8752 8.0312v10.188 50.625 10.188c0 4.4237 3.6075 8.0312 8.0312 8.0312h6.3125 65.688c4.352 0 7.9178-3.4852 8.0312-7.8125a1.0169 1.0169 0 0 0 0 -0.03125v-10.375-33.969h-0.03125c0.0039-0.1089 0.0056-0.23498 0-0.34375a1.0169 1.0169 0 0 0 0 -0.03125c-0.09472-0.89596-0.48688-1.7229-1.125-2.3438-0.60623-0.60129-1.3163-1.3218-1.9375-1.9375 0.04109 0.01058 0.08851 0.0301 0.09375 0.03125 0.0102 0.0022 0.14589 0.02973 0.15625 0.03125 0.01036 0.0015 0.17704 0.03047 0.1875 0.03125 0.01046 0.000778 0.17701-0.000035 0.1875 0s0.14579 0.000709 0.15625 0 0.17713-0.0298 0.1875-0.03125c0.01037-0.0014 0.14603-0.02908 0.15625-0.03125 0.01022-0.0022 0.17749-0.02837 0.1875-0.03125 0.01001-0.0029 0.14651-0.05893 0.15625-0.0625 0.0097-0.0036 0.14683-0.05826 0.15625-0.0625 0.0094-0.0042 0.14721-0.05763 0.15625-0.0625 0.009-0.0049 0.14763-0.08828 0.15625-0.09375 0.0086-0.0055 0.1481-0.08771 0.15625-0.09375 0.0082-0.006 0.11735-0.11844 0.125-0.125 0.0077-0.0066 0.14914-0.11796 0.15625-0.125 0.0071-0.007 0.08721-0.11752 0.09375-0.125 0.0065-0.0075 0.11905-0.11712 0.125-0.125 0.0059-0.0079 0.08842-0.14802 0.09375-0.15625 0.0053-0.0082 0.08906-0.14771 0.09375-0.15625 0.0047-0.0085 0.08971-0.14744 0.09375-0.15625 0.004-0.0088 0.05913-0.14722 0.0625-0.15625 0.0034-0.009 0.0598-0.14704 0.0625-0.15625 0.0027-0.0092 0.02923-0.17815 0.03125-0.1875 0.002-0.0094 0.02992-0.1468 0.03125-0.15625 0.0013-0.0094-0.00064-0.17799 0-0.1875a1.0169 1.0169 0 0 0 0.03125 -0.03125c0.000232-0.007 0.000139-0.08342 0-0.125v-0.03125-3.75-0.03125c0.000172-0.03085 0.000086-0.04788 0-0.09375 0.000116-0.0035-0.000023-0.03305 0-0.0625s0.00007-0.04171 0-0.0625v-0.03125-8.625-3.75-0.28125-3.125c0-4.4267-3.607-8.0342-8.031-8.0342h-16.219a1.0169 1.0169 0 0 0 -0.093 0.0312c-0.0083 0.0007875-0.14804-0.00125-0.15625 0-0.0082 0.00125-0.11689 0.029542-0.125 0.03125-0.0081 0.00171-0.11702 0.029093-0.125 0.03125-0.008 0.00216-0.14842 0.028654-0.15625 0.03125-0.0078 0.0026-0.11736 0.059477-0.125 0.0625-0.0076 0.00302-0.11757 0.059064-0.125 0.0625-0.0074 0.00344-0.11781 0.058665-0.125 0.0625-0.0072 0.00383-0.11807 0.058284-0.125 0.0625-0.0069 0.00422-0.0871 0.057921-0.09375 0.0625-0.0066 0.00458-0.11865 0.088826-0.125 0.09375-0.0063 0.00492-0.08773 0.088502-0.09375 0.09375-0.006 0.00525-0.11932 0.088198-0.125 0.09375-0.0057 0.00555-0.08842 0.087916-0.09375 0.09375-0.0053 0.00583-0.08879 0.087655-0.09375 0.09375-0.005 0.0061-0.08917 0.11867-0.09375 0.125-0.0046 0.00633-0.05831 0.11845-0.0625 0.125-0.0042 0.00655-0.05871 0.087003-0.0625 0.09375-0.0038 0.00675-0.05912 0.11808-0.0625 0.125-0.0034 0.00692-0.05954 0.11793-0.0625 0.125-0.003 0.00707-0.05996 0.14905-0.0625 0.15625-0.0025 0.0072-0.02913 0.11769-0.03125 0.125-0.0021 0.00731-0.02956 0.1176-0.03125 0.125-0.0017 0.0074-0.02999 0.14878-0.03125 0.15625-0.0013 0.00747-0.03043 0.11748-0.03125 0.125-0.000824 0.00752 0.00039 0.11745 0 0.125s-0.000046 0.1487 0 0.15625-0.000481 0.11746 0 0.125-0.000915 0.14874 0 0.15625 0.0299 0.11754 0.03125 0.125c0.00057 0.00316 0.02562 0.035701 0.03125 0.0625 0.0077 0.036544-0.001 0.089489 0 0.09375v2.9375c-0.0095 0.04404-0.03031 0.08853-0.03125 0.09375-0.0016 0.0089 0.000985 0.17852 0 0.1875-0.000985 0.009-0.03088 0.14723-0.03125 0.15625-0.000365 0.009-0.000256 0.14723 0 0.15625 0.000256 0.009 0.03037 0.17851 0.03125 0.1875 0.000876 0.009-0.0015 0.14733 0 0.15625 0.0015 0.0089 0.02914 0.14743 0.03125 0.15625-1.998-1.974-4.157-4.0835-6.032-5.9372-0.64-0.6402-1.482-1.0127-2.375-1.0938a1.0169 1.0169 0 0 0 -0.094 -0.0312h-45.156a1.0169 1.0169 0 0 0 -0.03125 0z"/>
  <path id="path4318" style="opacity:.3;fill:url(#linearGradient4321)" d="m11.875 7c-3.8194 0.0667-6.875 3.164-6.875 7v10.188 50.624 10.188c0 3.878 3.122 7 7 7h6.312 65.688c3.8149 0 6.9007-3.0224 7-6.8125v-10.375-33.969c0.005-0.095 0.005-0.187 0-0.282-0.068-0.64-0.379-1.266-0.844-1.718-9.762-9.683-21.596-21.366-31.375-31.032-0.465-0.4652-1.09-0.7521-1.75-0.812h-45.156zm55.906 0a1.4434 1.4267 0 0 0 -1.219 1.9062v3.125a1.4434 1.4267 0 0 0 0.34375 1.4375l21.625 21.375a1.4434 1.4267 0 0 0 2.469 -0.905 1.4434 1.4267 0 0 0 0 -0.094v-3.8125a1.4434 1.4267 0 0 0 0 -0.125 1.4434 1.4267 0 0 0 0 -0.09375v-8.6562-3.75-0.282-3.125c0-3.878-3.122-7-7-7h-16.219z"/>
  <path id="path3173-9" style="opacity:.45;fill:url(#linearGradient4316)" d="m12 7c-3.324 0-6 2.676-6 6v11 50 11c0 3.324 2.676 6 6 6h7 65c3.324 0 6-2.676 6-6v-0.719-10.281-33.562c0.0048-0.09367 0.0048-0.18758 0-0.28125-0.06619-0.63339-0.35863-1.2408-0.8125-1.6875-9.536-9.569-21.105-21.104-30.657-30.656-0.454-0.4607-1.074-0.7538-1.719-0.813h-44.093-0.719zm55.312 0a1.4099 1.4099 0 0 0 -1.187 1.875v3.0938a1.4099 1.4099 0 0 0 0.34375 1.4375l21.125 21.125a1.4099 1.4099 0 0 0 2.406 -0.906 1.4099 1.4099 0 0 0 0 -0.094v-3.781a1.4099 1.4099 0 0 0 0 -0.125 1.4099 1.4099 0 0 0 0 -0.09375v-8.531-3.719-0.281-3.719-0.281c0-3.324-2.676-6-6-6h-16.688z"/>
 </g>
 <g id="layer1">
  <path id="path3173" style="fill:url(#linearGradient4068)" d="m12 6c-3.324 0-6 2.676-6 6v11 50 11c0 3.324 2.676 6 6 6h7 65c3.324 0 6-2.676 6-6v-0.719-10.281-33.562c0.0048-0.09367 0.0048-0.18758 0-0.28125-0.06619-0.63339-0.35863-1.2408-0.8125-1.6875-9.536-9.569-21.105-21.104-30.657-30.656-0.454-0.4607-1.074-0.7538-1.719-0.813h-44.093-0.719zm55.312 0a1.4099 1.4099 0 0 0 -1.187 1.875v3.0938a1.4099 1.4099 0 0 0 0.34375 1.4375l21.125 21.125a1.4099 1.4099 0 0 0 2.406 -0.906 1.4099 1.4099 0 0 0 0 -0.094v-3.781a1.4099 1.4099 0 0 0 0 -0.125 1.4099 1.4099 0 0 0 0 -0.09375v-8.531-3.719-0.281-3.719-0.281c0-3.324-2.676-6-6-6h-16.688z"/>
  <rect id="rect3045" style="fill:url(#linearGradient3047)" rx="6" ry="6" height="84" width="84" y="6" x="106"/>
  <path id="path3049" style="fill:#f0f" d="m114 6 26 26v4l-30-30z"/>
  <path id="path6862" style="color:#000000;text-indent:0pt;text-transform:none;fill:url(#linearGradient4320)" d="m-152.03-3.7418c-1.1576 0-2.2228 1.0237-2.2228 2.2666v67.202c0 1.0828 1.0125 2.2228 2.1703 2.2228h53.768c1.2958 0 2.3104-1.0853 2.3104-2.1703l0.002-41.78c0-1.183-0.1434-1.7363-0.98015-2.5729l-23.9-23.882c-0.83684-0.83645-1.477-1.268-2.6604-1.2689l-28.486-0.0175zm38.882 0.0087c-1.9148 0-2.0014 1.9933-0.9889 3.0105l14.902 14.965c1.215 1.221 3.238 0.928 3.238-0.997v-14.685c0-1.1836-1.0714-2.2929-2.2491-2.2929h-14.895z"/>
  <path id="path4151" style="opacity:.05;fill:#fff" d="m6 78v2c0 3.324 2.676 6 6 6h7 65c3.324 0 6-2.676 6-6v-0.719-1.281c0 3.324-2.676 6-6 6h-65-7c-3.324 0-6-2.676-6-6z"/>
  <path id="path4136" style="opacity:.2;fill:url(#linearGradient4149)" d="m12 6c-3.324 0-6 2.676-6 6v11 46 11c0 3.324 2.7094 5.5299 6 6h7 65c3.324 0 6-2.676 6-6v-0.719-10.281-29.562c0.0048-0.09367 0.0048-0.18758 0-0.28125-0.06619-0.63339-0.35863-1.2408-0.8125-1.6875-9.536-9.569-21.105-21.104-30.657-30.656-0.454-0.4607-1.074-0.7538-1.719-0.813h-44.093-0.719zm0 1.0312h0.71875 44c0.39619 0.036384 0.81417 0.21693 1.0938 0.5 9.553 9.553 21.123 21.089 30.656 30.656 0.27263 0.26834 0.4532 0.65049 0.5 1.0312 0.000601 0.01173-0.000361 0.01951 0 0.03125 0.0014 0.04696 0.0024 0.07809 0 0.125a1.0272 1.0272 0 0 0 0 0.0625v29.562 10.281 0.71875c0 2.7728-2.196 4.9688-4.9688 4.9688h-65-6.8438c-1.461-0.207-2.7791-0.799-3.6872-1.655-0.9082-0.855-1.4376-1.929-1.4376-3.312v-11-46-11c0-2.7728 2.196-4.9688 4.9688-4.9688z"/>
  <path id="path4209" style="opacity:.45;fill:url(#linearGradient4188)" d="m112 6c-3.324 0-6 2.676-6 6v11 50 11c0 3.324 2.676 6 6 6h7 65c3.324 0 6-2.676 6-6v-0.719-10.281-33.562c0.005-0.09367 0.005-0.18758 0-0.28125-0.0662-0.63339-0.35863-1.2408-0.8125-1.6875-9.54-9.569-21.11-21.104-30.66-30.656-0.45-0.4607-1.07-0.7538-1.72-0.813h-44.09-0.72z"/>
  <path id="path3873-8" style="opacity:.45;fill:url(#linearGradient4188)" d="m167.31 6a1.4099 1.4099 0 0 0 -0.84375 2.4062l21.125 21.125a1.4099 1.4099 0 0 0 2.4 -0.906 1.4099 1.4099 0 0 0 0 -0.094v-12.531-3.719-0.281c0-3.324-2.676-6-6-6h-16.688z"/>
  <path id="path4211" style="opacity:.1;fill:url(#linearGradient4224)" d="m67.312 6a1.4099 1.4099 0 0 0 -0.84375 2.4062l21.125 21.125a1.4099 1.4099 0 0 0 2.407 -0.906 1.4099 1.4099 0 0 0 0 -0.094v-12.531-3.719-0.281c0-3.324-2.676-6-6-6h-16.688zm0 1h0.09375 16.594c2.7922 0 5 2.2078 5 5v0.281 3.719 12.531a0.99095 0.99095 0 0 0 0 0.03125c0.0018 0.05319 0.0018-0.02194 0 0.03125-0.0077 0.05689 0.01176-0.02494 0 0.03125s0.01576-0.02395 0 0.03125 0.01967-0.02268 0 0.03125-0.0078-0.02113-0.03125 0.03125c-0.02349 0.05238 0.02718-0.01931 0 0.03125-0.000573-0.01238-0.01588-0.02424-0.03125 0s-0.0081 0.03527 0 0.03125c-0.03413 0.04616 0.0061-0.01234-0.03125 0.03125-0.01868 0.0218-0.0097 0.03399 0 0.03125 0.0026-0.0098-0.0096-0.0189-0.03125 0-0.0432 0.0378 0.01455-0.0034-0.03125 0.03125 0.0039-0.0082-0.0072-0.01562-0.03125 0-0.04816 0.03124 0.01903 0.0035-0.03125 0.03125-0.05213 0.02403 0.02247 0.01102-0.03125 0.03125s0.02379-0.01633-0.03125 0 0.02481-0.01234-0.03125 0 0.02555-0.0083-0.03125 0 0.026 0.02705-0.03125 0.03125 0.02616-0.000087-0.03125 0 0.02602 0.004-0.03125 0 0.02558-0.02313-0.03125-0.03125c-0.05683-0.0081 0.02485 0.01217-0.03125 0s0.02383 0.01616-0.03125 0 0.02253 0.02007-0.03125 0 0.02096-0.0074-0.03125-0.03125c-0.05036-0.02755 0.01701-0.000157-0.03125-0.03125-0.02413-0.01555-0.03521-0.0082-0.03125 0-0.0459-0.03447 0.01207 0.0064-0.03125-0.03125-0.02166-0.01884-0.03391-0.0098-0.03125 0l-21.125-21.125a0.99095 0.99095 0 0 0 0 -0.03125c-0.037-0.0417 0.003 0.0144-0.031-0.0306-0.034-0.0449 0 0.016-0.031-0.0312-0.03099-0.047243 0.02758 0.018061 0-0.03125-0.02404-0.051134-0.01088 0.021453-0.03125-0.03125s0.0166 0.022758 0-0.03125 0.01275 0.023795 0-0.03125-0.02242 0.024557-0.03125-0.03125c-0.0088-0.055807 0.0049 0.025041 0-0.03125s0.000891 0.025245 0-0.03125-0.0031 0.025167 0-0.03125-0.0071 0.024808 0-0.03125 0.02024 0.02417 0.03125-0.03125-0.01489 0.023255 0-0.03125-0.0187 0.022069 0-0.03125c0.02241-0.051867 0.0052 0.018907 0.03125-0.03125 0.02601-0.050157-0.02949 0.016947 0-0.03125s-0.0016 0.014746 0.03125-0.03125c0.01641-0.022998 0.0086-0.034633 0-0.03125-0.0016 0.010561 0.01177 0.02046 0.03125 0 0.03896-0.04092-0.0105 0.00682 0.03125-0.03125 0.02088-0.019035 0.01076-0.032575 0-0.03125-0.0036 0.00836 0.0079 0.015907 0.03125 0 0.04669-0.031815-0.01757-0.00281 0.03125-0.03125 0.04882-0.028441-0.01946 0.024926 0.03125 0 0.05-0.0249-0.022-0.0099 0.03-0.0312z"/>
 </g>
 <g id="layer6">
  <path id="path3851" style="opacity:.2" d="m14 12.031c-1.1559 0-1.9688 0.81282-1.9688 1.9688v1c0-1.1559 0.81282-1.9688 1.9688-1.9688h0.71875 41.344c9.302 9.302 18.59 18.618 27.906 27.906v-1c-9.316-9.288-18.604-18.604-27.907-27.906h-41.344-0.71875z"/>
  <path id="path3992" style="opacity:.2" d="m14 12.031c-1.1559 0-1.9688 0.81282-1.9688 1.9688v1c0-1.1559 0.81282-1.9688 1.9688-1.9688h0.71875 41.344c9.302 9.302 18.59 18.618 27.906 27.906v-1c-9.316-9.288-18.604-18.604-27.907-27.906h-41.344-0.71875z"/>
  <path id="path3994" style="fill:url(#linearGradient3141)" d="m14 12.031c-1.1559 0-1.9688 0.81282-1.9688 1.9688v9 29 17 8.2812 0.71875c0 1.0777 0.71755 1.837 1.75 1.9375 0.07491 0.0073 0.14207 0.01592 0.21875 0.03125h5 58 5c0.07224 0 0.1493-0.0086 0.21875-0.03125 1.0324-0.10053 1.75-0.85977 1.75-1.9375v-0.71875-8.2812-17-12.062c-9.316-9.289-18.604-18.605-27.907-27.907h-41.344z"/>
  <path id="path3996" style="opacity:.6;fill:url(#radialGradient3920)" d="m17.906 17.062c-0.46 0.044-0.849 0.476-0.844 0.938v9 38 9c-0.0037 0.49188 0.44562 0.94123 0.9375 0.9375h5 55c0.492 0.003 0.941-0.446 0.938-0.938v-9-23.406c-0.003-0.244-0.107-0.486-0.282-0.656l-23.594-23.594c-0.17-0.175-0.412-0.279-0.656-0.282h-36.406c-0.03122-0.0016-0.06253-0.0016-0.09375 0z"/>
  <path id="path3998" style="fill:url(#linearGradient3135)" d="m18 18v9 38 9h5 55v-9-23.406l-23.594-23.594z"/>
  <path id="path4000" style="opacity:.7;fill:#fff" d="m18 18v9 38 9h5 55v-9-23.406l-23.594-23.594zm1 1h35.031l22.969 22.969v23.031 8h-54-4v-8-38z"/>
  <path id="path4004" style="opacity:.2" d="m14 12.031c-1.1559 0-1.9688 0.81282-1.9688 1.9688v1c0-1.1559 0.81282-1.9688 1.9688-1.9688h0.71875 41.344c9.302 9.302 18.59 18.618 27.906 27.906v-1c-9.316-9.288-18.604-18.604-27.907-27.906h-41.344-0.71875z"/>
  <path id="path3990" style="opacity:.1" d="m14 12.031c-1.1559 0-1.9688 0.81282-1.9688 1.9688v9 33 13 8.2812 0.71875c0 1.0777 0.71755 1.837 1.75 1.9375 0.07491 0.0073 0.14207 0.01592 0.21875 0.03125h5 58 5c0.07224 0 0.1493-0.0086 0.21875-0.03125 1.0324-0.10053 1.75-0.85977 1.75-1.9375v-0.71875-8.2812-13-16.062c-9.316-9.289-18.604-18.605-27.907-27.907h-41.344zm0 0.969h0.71875 40.938c9.113 9.114 18.214 18.241 27.343 27.344v15.656 13 8.281 0.719c0 0.64842-0.26705 0.90956-0.875 0.96875-0.042 0.007-0.084 0.018-0.125 0.031h-5-58-5c0.1193 0 0.09888-0.0094-0.125-0.03125-0.608-0.059-0.875-0.321-0.875-0.969v-0.719-8.281-13-33-9c0-0.70251 0.29749-1 1-1z"/>
 </g>
 <g id="layer4">
  <path id="path3888" style="fill:url(#linearGradient3077)" d="m6 80v4c0 3.324 2.676 6 6 6h72c3.324 0 6-2.676 6-6v-4c0 3.324-2.676 6-6 6h-72c-3.324 0-6-2.676-6-6z"/>
  <path id="rect4345" style="opacity:.1;color:#000000" d="m6 82v2c0 3.324 2.676 6 6 6h72c3.324 0 6-2.676 6-6v-2c0 3.324-2.676 6-6 6h-72c-3.324 0-6-2.676-6-6z"/>
  <path id="rect4336" style="opacity:.15;color:#000000" d="m6 83v1c0 3.324 2.676 6 6 6h72c3.324 0 6-2.676 6-6v-1c0 3.324-2.676 6-6 6h-72c-3.324 0-6-2.676-6-6z"/>
  <path id="path4056" style="fill:url(#linearGradient4085)" d="m66.125 7.875v3.0938a1.4099 1.4099 0 0 0 0.34375 1.4375l21.125 21.125a1.4099 1.4099 0 0 0 2.406 -0.906 1.4099 1.4099 0 0 0 0 -0.094v-3.781a1.4099 1.4099 0 0 1 -2.4062 0.78125l-21.125-21.125a1.4099 1.4099 0 0 1 -0.344 -0.531z"/>
 </g>
 <g id="layer5" style="display:none">
  <rect id="rect3171" style="opacity:.1;filter:url(#filter3794);stroke:#fff;stroke-linecap:round;stroke-width:.5;fill:url(#linearGradient3613)" clip-path="url(#clipPath3613)" rx="12" ry="12" height="66" width="66" y="15" x="15"/>
 </g>
 <g id="layer7">
  <rect id="rect10395" style="opacity:.15;color:#000000" height="9.1323" width="39.973" y="61.912" x="28.013"/>
  <rect id="use8350" style="color:#000000;fill:url(#linearGradient11690)" height="8.7512" width="39.973" y="61.287" x="28.013"/>
  <rect id="rect8352" style="color:#000000;fill:url(#linearGradient11687)" height="27.928" width="39.973" y="33.984" x="28.013"/>
  <rect id="rect9908" style="color:#000000;fill:url(#linearGradient11684)" rx=".29509" ry=".30676" height="23.927" width="36.001" y="36.047" x="30.05"/>
  <rect id="rect10222" style="opacity:.25;color:#000000;fill:url(#linearGradient3497)" rx=".59195" ry=".58080" height="22.071" width="8.8793" y="37.003" x="30.941"/>
  <rect id="rect8354" style="color:#000000;fill:url(#linearGradient11678)" height="6.2039" width="35.973" y="61.977" x="30.014"/>
  <g id="g9965" style="fill:#fff" transform="matrix(.53010 0 0 .50689 -1896.9 606.81)">
   <path id="path9967" style="fill:#fff" d="m3655.3-1071.4v0.7704c-0.2254-0.1313-0.4523-0.2297-0.6805-0.2953-0.2283-0.066-0.4608-0.099-0.6977-0.099-0.3566 0-0.6234 0.059-0.8003 0.1755-0.1741 0.1141-0.2611 0.2896-0.2611 0.5264 0 0.214 0.066 0.3738 0.1969 0.4794 0.1312 0.1056 0.4579 0.2083 0.9801 0.3082l0.3167 0.06c0.3909 0.074 0.6862 0.2225 0.886 0.4451 0.2025 0.2225 0.3038 0.5122 0.3038 0.8688 0 0.4737-0.1683 0.8446-0.505 1.1128-0.3367 0.2654-0.8046 0.398-1.4038 0.398-0.2369 0-0.4851-0.026-0.7447-0.077-0.2597-0.049-0.5407-0.1227-0.8432-0.2225v-0.8132c0.2939 0.1512 0.575 0.2653 0.8432 0.3424 0.2682 0.074 0.5221 0.1112 0.7618 0.1112 0.3481 0 0.6177-0.07 0.8089-0.2097 0.1912-0.1426 0.2868-0.341 0.2868-0.5949 0-0.3652-0.3496-0.6177-1.0486-0.7576l-0.034-0.01-0.2953-0.06c-0.4537-0.089-0.7846-0.2369-0.9929-0.4451-0.2083-0.2112-0.3125-0.4979-0.3125-0.8603 0-0.4594 0.1555-0.8132 0.4665-1.0614 0.3111-0.2511 0.7547-0.3767 1.3311-0.3767 0.2568 0 0.5036 0.024 0.7404 0.073 0.2369 0.046 0.4694 0.1155 0.6977 0.2097"/>
   <path id="path9969" style="fill:#fff" d="m3657.8-1069.1c0 0.6106 0.096 1.0714 0.2867 1.3824 0.1941 0.311 0.4808 0.4665 0.8603 0.4665s0.6663-0.1555 0.8603-0.4665c0.1969-0.3139 0.2953-0.7747 0.2953-1.3824 0-0.6078-0.098-1.0672-0.2953-1.3782-0.194-0.3139-0.4808-0.4708-0.8603-0.4708s-0.6662 0.1555-0.8603 0.4665c-0.1911 0.311-0.2867 0.7718-0.2867 1.3825m2.3026 1.7804c-0.1284 0.2368-0.3024 0.4195-0.5222 0.5478-0.2168 0.1256-0.4693 0.1884-0.7575 0.1884-0.5735 0-1.0272-0.2212-1.361-0.6634-0.331-0.4451-0.4965-1.0572-0.4965-1.8361 0-0.7932 0.1655-1.4138 0.4965-1.8618s0.7846-0.672 1.361-0.672c0.2853 0 0.5364 0.063 0.7533 0.1884 0.2197 0.1226 0.3951 0.3024 0.5264 0.5392v-0.612h0.7918v6.6168h-0.7918v-2.4353"/>
   <path id="path9971" style="fill:#fff" d="m3666.5-1070.4c-0.1683-0.1313-0.3395-0.2268-0.5136-0.2868-0.174-0.06-0.3652-0.09-0.5735-0.09-0.4908 0-0.866 0.154-1.1256 0.4622-0.2597 0.3082-0.3895 0.7533-0.3895 1.3353v2.384h-0.7918v-4.7936h0.7918v0.9373c0.1312-0.3395 0.3324-0.5992 0.6035-0.7789 0.2739-0.1826 0.5977-0.2739 0.9715-0.2739 0.194 0 0.3752 0.024 0.5436 0.073 0.1683 0.049 0.3295 0.1241 0.4836 0.2269v0.8046"/>
   <path id="path9973" style="fill:#fff" d="m3669.9-1072.8v1.3611h1.789v0.612h-1.789v2.6022c0 0.3538 0.067 0.6006 0.2011 0.7405 0.1341 0.1398 0.3681 0.2097 0.7019 0.2097h0.886v0.6291h-0.963c-0.5906 0-1.0072-0.1184-1.2498-0.3552-0.2425-0.2368-0.3638-0.6449-0.3638-1.2241v-2.6022h-1.2797v-0.612h1.2797v-1.3611h0.7876"/>
   <path id="path9975" style="fill:#fff" d="m3677.2-1066.2v0.6163h-0.2739c-0.7105 0-1.187-0.1055-1.4295-0.3167-0.2397-0.2111-0.3596-0.632-0.3595-1.2626v-1.0229c-0.0001-0.4308-0.077-0.729-0.2312-0.8945-0.1512-0.1655-0.4265-0.2482-0.826-0.2482h-0.2654v-0.6121h0.2654c0.4023 0 0.6791-0.081 0.8303-0.2439 0.1512-0.1627 0.2268-0.458 0.2269-0.886v-1.0272c-0.0001-0.6305 0.1198-1.05 0.3595-1.2583 0.2425-0.2111 0.719-0.3167 1.4295-0.3167h0.2739v0.612h-0.2996c-0.3995 0.0001-0.6606 0.063-0.7832 0.1884-0.1199 0.1227-0.1798 0.3866-0.1798 0.7918v1.0614c0 0.448-0.066 0.7732-0.1969 0.9758-0.1284 0.2026-0.3495 0.3396-0.6634 0.4109 0.3167 0.077 0.5393 0.2168 0.6677 0.4194s0.1926 0.5265 0.1926 0.9716v1.0614c0 0.408 0.06 0.6734 0.1798 0.7961 0.1226 0.1227 0.3837 0.184 0.7832 0.184h0.2996"/>
   <path id="path9977" style="fill:#fff" d="m3682.5-1071.5-1.7163 2.294 1.8832 2.4995h-0.9116l-1.4039-1.9217-1.3995 1.9217h-0.9116l1.8831-2.4995-1.7162-2.294h0.8731l1.2711 1.7334 1.2626-1.7334h0.886"/>
   <path id="path9979" style="fill:#fff" d="m3683.9-1066.2h0.291c0.4024 0 0.6649-0.063 0.7876-0.1883 0.1227-0.1255 0.184-0.3895 0.184-0.7918v-1.0614c0-0.4451 0.064-0.769 0.1926-0.9716 0.1284-0.2026 0.351-0.3424 0.6677-0.4194-0.3139-0.071-0.5365-0.2083-0.6677-0.4109-0.1284-0.2026-0.1926-0.5278-0.1926-0.9758v-1.0614c0-0.4024-0.061-0.6663-0.184-0.7918-0.1227-0.1256-0.3852-0.1883-0.7876-0.1884h-0.291v-0.612h0.2654c0.7104 0 1.1855 0.1056 1.4252 0.3167 0.2397 0.2083 0.3595 0.6278 0.3595 1.2583v1.0272c0 0.428 0.076 0.7233 0.2269 0.886 0.154 0.1626 0.4322 0.2439 0.8345 0.2439h0.274v0.6121h-0.274c-0.4023 0-0.6805 0.083-0.8345 0.2482-0.1513 0.1655-0.2269 0.4637-0.2269 0.8945v1.0229c0 0.6306-0.1198 1.0515-0.3595 1.2626-0.2397 0.2112-0.7148 0.3167-1.4252 0.3167h-0.2654v-0.6163"/>
  </g>
  <g id="g9949" style="opacity:.15" transform="matrix(.53010 0 0 .50689 -1896.9 607.57)">
   <path id="path9951" d="m3655.3-1071.4v0.7704c-0.2254-0.1313-0.4523-0.2297-0.6805-0.2953-0.2283-0.066-0.4608-0.099-0.6977-0.099-0.3566 0-0.6234 0.059-0.8003 0.1755-0.1741 0.1141-0.2611 0.2896-0.2611 0.5264 0 0.214 0.066 0.3738 0.1969 0.4794 0.1312 0.1056 0.4579 0.2083 0.9801 0.3082l0.3167 0.06c0.3909 0.074 0.6862 0.2225 0.886 0.4451 0.2025 0.2225 0.3038 0.5122 0.3038 0.8688 0 0.4737-0.1683 0.8446-0.505 1.1128-0.3367 0.2654-0.8046 0.398-1.4038 0.398-0.2369 0-0.4851-0.026-0.7447-0.077-0.2597-0.049-0.5407-0.1227-0.8432-0.2225v-0.8132c0.2939 0.1512 0.575 0.2653 0.8432 0.3424 0.2682 0.074 0.5221 0.1112 0.7618 0.1112 0.3481 0 0.6177-0.07 0.8089-0.2097 0.1912-0.1426 0.2868-0.341 0.2868-0.5949 0-0.3652-0.3496-0.6177-1.0486-0.7576l-0.034-0.01-0.2953-0.06c-0.4537-0.089-0.7846-0.2369-0.9929-0.4451-0.2083-0.2112-0.3125-0.4979-0.3125-0.8603 0-0.4594 0.1555-0.8132 0.4665-1.0614 0.3111-0.2511 0.7547-0.3767 1.3311-0.3767 0.2568 0 0.5036 0.024 0.7404 0.073 0.2369 0.046 0.4694 0.1155 0.6977 0.2097"/>
   <path id="path9953" d="m3657.8-1069.1c0 0.6106 0.096 1.0714 0.2867 1.3824 0.1941 0.311 0.4808 0.4665 0.8603 0.4665s0.6663-0.1555 0.8603-0.4665c0.1969-0.3139 0.2953-0.7747 0.2953-1.3824 0-0.6078-0.098-1.0672-0.2953-1.3782-0.194-0.3139-0.4808-0.4708-0.8603-0.4708s-0.6662 0.1555-0.8603 0.4665c-0.1911 0.311-0.2867 0.7718-0.2867 1.3825m2.3026 1.7804c-0.1284 0.2368-0.3024 0.4195-0.5222 0.5478-0.2168 0.1256-0.4693 0.1884-0.7575 0.1884-0.5735 0-1.0272-0.2212-1.361-0.6634-0.331-0.4451-0.4965-1.0572-0.4965-1.8361 0-0.7932 0.1655-1.4138 0.4965-1.8618s0.7846-0.672 1.361-0.672c0.2853 0 0.5364 0.063 0.7533 0.1884 0.2197 0.1226 0.3951 0.3024 0.5264 0.5392v-0.612h0.7918v6.6168h-0.7918v-2.4353"/>
   <path id="path9955" d="m3666.5-1070.4c-0.1683-0.1313-0.3395-0.2268-0.5136-0.2868-0.174-0.06-0.3652-0.09-0.5735-0.09-0.4908 0-0.866 0.154-1.1256 0.4622-0.2597 0.3082-0.3895 0.7533-0.3895 1.3353v2.384h-0.7918v-4.7936h0.7918v0.9373c0.1312-0.3395 0.3324-0.5992 0.6035-0.7789 0.2739-0.1826 0.5977-0.2739 0.9715-0.2739 0.194 0 0.3752 0.024 0.5436 0.073 0.1683 0.049 0.3295 0.1241 0.4836 0.2269v0.8046"/>
   <path id="path9957" d="m3669.9-1072.8v1.3611h1.789v0.612h-1.789v2.6022c0 0.3538 0.067 0.6006 0.2011 0.7405 0.1341 0.1398 0.3681 0.2097 0.7019 0.2097h0.886v0.6291h-0.963c-0.5906 0-1.0072-0.1184-1.2498-0.3552-0.2425-0.2368-0.3638-0.6449-0.3638-1.2241v-2.6022h-1.2797v-0.612h1.2797v-1.3611h0.7876"/>
   <path id="path9959" d="m3677.2-1066.2v0.6163h-0.2739c-0.7105 0-1.187-0.1055-1.4295-0.3167-0.2397-0.2111-0.3596-0.632-0.3595-1.2626v-1.0229c-0.0001-0.4308-0.077-0.729-0.2312-0.8945-0.1512-0.1655-0.4265-0.2482-0.826-0.2482h-0.2654v-0.6121h0.2654c0.4023 0 0.6791-0.081 0.8303-0.2439 0.1512-0.1627 0.2268-0.458 0.2269-0.886v-1.0272c-0.0001-0.6305 0.1198-1.05 0.3595-1.2583 0.2425-0.2111 0.719-0.3167 1.4295-0.3167h0.2739v0.612h-0.2996c-0.3995 0.0001-0.6606 0.063-0.7832 0.1884-0.1199 0.1227-0.1798 0.3866-0.1798 0.7918v1.0614c0 0.448-0.066 0.7732-0.1969 0.9758-0.1284 0.2026-0.3495 0.3396-0.6634 0.4109 0.3167 0.077 0.5393 0.2168 0.6677 0.4194s0.1926 0.5265 0.1926 0.9716v1.0614c0 0.408 0.06 0.6734 0.1798 0.7961 0.1226 0.1227 0.3837 0.184 0.7832 0.184h0.2996"/>
   <path id="path9961" d="m3682.5-1071.5-1.7163 2.294 1.8832 2.4995h-0.9116l-1.4039-1.9217-1.3995 1.9217h-0.9116l1.8831-2.4995-1.7162-2.294h0.8731l1.2711 1.7334 1.2626-1.7334h0.886"/>
   <path id="path9963" d="m3683.9-1066.2h0.291c0.4024 0 0.6649-0.063 0.7876-0.1883 0.1227-0.1255 0.184-0.3895 0.184-0.7918v-1.0614c0-0.4451 0.064-0.769 0.1926-0.9716 0.1284-0.2026 0.351-0.3424 0.6677-0.4194-0.3139-0.071-0.5365-0.2083-0.6677-0.4109-0.1284-0.2026-0.1926-0.5278-0.1926-0.9758v-1.0614c0-0.4024-0.061-0.6663-0.184-0.7918-0.1227-0.1256-0.3852-0.1883-0.7876-0.1884h-0.291v-0.612h0.2654c0.7104 0 1.1855 0.1056 1.4252 0.3167 0.2397 0.2083 0.3595 0.6278 0.3595 1.2583v1.0272c0 0.428 0.076 0.7233 0.2269 0.886 0.154 0.1626 0.4322 0.2439 0.8345 0.2439h0.274v0.6121h-0.274c-0.4023 0-0.6805 0.083-0.8345 0.2482-0.1513 0.1655-0.2269 0.4637-0.2269 0.8945v1.0229c0 0.6306-0.1198 1.0515-0.3595 1.2626-0.2397 0.2112-0.7148 0.3167-1.4252 0.3167h-0.2654v-0.6163"/>
  </g>
  <g id="g8358" style="opacity:.9;fill:url(#linearGradient11727)" transform="matrix(.53010 0 0 .50689 -1896.9 607.06)">
   <path id="path8361" style="fill:url(#linearGradient11727)" d="m3655.3-1071.4v0.7704c-0.2254-0.1313-0.4523-0.2297-0.6805-0.2953-0.2283-0.066-0.4608-0.099-0.6977-0.099-0.3566 0-0.6234 0.059-0.8003 0.1755-0.1741 0.1141-0.2611 0.2896-0.2611 0.5264 0 0.214 0.066 0.3738 0.1969 0.4794 0.1312 0.1056 0.4579 0.2083 0.9801 0.3082l0.3167 0.06c0.3909 0.074 0.6862 0.2225 0.886 0.4451 0.2025 0.2225 0.3038 0.5122 0.3038 0.8688 0 0.4737-0.1683 0.8446-0.505 1.1128-0.3367 0.2654-0.8046 0.398-1.4038 0.398-0.2369 0-0.4851-0.026-0.7447-0.077-0.2597-0.049-0.5407-0.1227-0.8432-0.2225v-0.8132c0.2939 0.1512 0.575 0.2653 0.8432 0.3424 0.2682 0.074 0.5221 0.1112 0.7618 0.1112 0.3481 0 0.6177-0.07 0.8089-0.2097 0.1912-0.1426 0.2868-0.341 0.2868-0.5949 0-0.3652-0.3496-0.6177-1.0486-0.7576l-0.034-0.01-0.2953-0.06c-0.4537-0.089-0.7846-0.2369-0.9929-0.4451-0.2083-0.2112-0.3125-0.4979-0.3125-0.8603 0-0.4594 0.1555-0.8132 0.4665-1.0614 0.3111-0.2511 0.7547-0.3767 1.3311-0.3767 0.2568 0 0.5036 0.024 0.7404 0.073 0.2369 0.046 0.4694 0.1155 0.6977 0.2097"/>
   <path id="path8363" style="fill:url(#linearGradient11727)" d="m3657.8-1069.1c0 0.6106 0.096 1.0714 0.2867 1.3824 0.1941 0.311 0.4808 0.4665 0.8603 0.4665s0.6663-0.1555 0.8603-0.4665c0.1969-0.3139 0.2953-0.7747 0.2953-1.3824 0-0.6078-0.098-1.0672-0.2953-1.3782-0.194-0.3139-0.4808-0.4708-0.8603-0.4708s-0.6662 0.1555-0.8603 0.4665c-0.1911 0.311-0.2867 0.7718-0.2867 1.3825m2.3026 1.7804c-0.1284 0.2368-0.3024 0.4195-0.5222 0.5478-0.2168 0.1256-0.4693 0.1884-0.7575 0.1884-0.5735 0-1.0272-0.2212-1.361-0.6634-0.331-0.4451-0.4965-1.0572-0.4965-1.8361 0-0.7932 0.1655-1.4138 0.4965-1.8618s0.7846-0.672 1.361-0.672c0.2853 0 0.5364 0.063 0.7533 0.1884 0.2197 0.1226 0.3951 0.3024 0.5264 0.5392v-0.612h0.7918v6.6168h-0.7918v-2.4353"/>
   <path id="path8365" style="fill:url(#linearGradient11727)" d="m3666.5-1070.4c-0.1683-0.1313-0.3395-0.2268-0.5136-0.2868-0.174-0.06-0.3652-0.09-0.5735-0.09-0.4908 0-0.866 0.154-1.1256 0.4622-0.2597 0.3082-0.3895 0.7533-0.3895 1.3353v2.384h-0.7918v-4.7936h0.7918v0.9373c0.1312-0.3395 0.3324-0.5992 0.6035-0.7789 0.2739-0.1826 0.5977-0.2739 0.9715-0.2739 0.194 0 0.3752 0.024 0.5436 0.073 0.1683 0.049 0.3295 0.1241 0.4836 0.2269v0.8046"/>
   <path id="path8367" style="fill:url(#linearGradient11727)" d="m3669.9-1072.8v1.3611h1.789v0.612h-1.789v2.6022c0 0.3538 0.067 0.6006 0.2011 0.7405 0.1341 0.1398 0.3681 0.2097 0.7019 0.2097h0.886v0.6291h-0.963c-0.5906 0-1.0072-0.1184-1.2498-0.3552-0.2425-0.2368-0.3638-0.6449-0.3638-1.2241v-2.6022h-1.2797v-0.612h1.2797v-1.3611h0.7876"/>
   <path id="path8369" style="fill:url(#linearGradient11727)" d="m3677.2-1066.2v0.6163h-0.2739c-0.7105 0-1.187-0.1055-1.4295-0.3167-0.2397-0.2111-0.3596-0.632-0.3595-1.2626v-1.0229c-0.0001-0.4308-0.077-0.729-0.2312-0.8945-0.1512-0.1655-0.4265-0.2482-0.826-0.2482h-0.2654v-0.6121h0.2654c0.4023 0 0.6791-0.081 0.8303-0.2439 0.1512-0.1627 0.2268-0.458 0.2269-0.886v-1.0272c-0.0001-0.6305 0.1198-1.05 0.3595-1.2583 0.2425-0.2111 0.719-0.3167 1.4295-0.3167h0.2739v0.612h-0.2996c-0.3995 0.0001-0.6606 0.063-0.7832 0.1884-0.1199 0.1227-0.1798 0.3866-0.1798 0.7918v1.0614c0 0.448-0.066 0.7732-0.1969 0.9758-0.1284 0.2026-0.3495 0.3396-0.6634 0.4109 0.3167 0.077 0.5393 0.2168 0.6677 0.4194s0.1926 0.5265 0.1926 0.9716v1.0614c0 0.408 0.06 0.6734 0.1798 0.7961 0.1226 0.1227 0.3837 0.184 0.7832 0.184h0.2996"/>
   <path id="path8371" style="fill:url(#linearGradient11727)" d="m3682.5-1071.5-1.7163 2.294 1.8832 2.4995h-0.9116l-1.4039-1.9217-1.3995 1.9217h-0.9116l1.8831-2.4995-1.7162-2.294h0.8731l1.2711 1.7334 1.2626-1.7334h0.886"/>
   <path id="path8373" style="fill:url(#linearGradient11727)" d="m3683.9-1066.2h0.291c0.4024 0 0.6649-0.063 0.7876-0.1883 0.1227-0.1255 0.184-0.3895 0.184-0.7918v-1.0614c0-0.4451 0.064-0.769 0.1926-0.9716 0.1284-0.2026 0.351-0.3424 0.6677-0.4194-0.3139-0.071-0.5365-0.2083-0.6677-0.4109-0.1284-0.2026-0.1926-0.5278-0.1926-0.9758v-1.0614c0-0.4024-0.061-0.6663-0.184-0.7918-0.1227-0.1256-0.3852-0.1883-0.7876-0.1884h-0.291v-0.612h0.2654c0.7104 0 1.1855 0.1056 1.4252 0.3167 0.2397 0.2083 0.3595 0.6278 0.3595 1.2583v1.0272c0 0.428 0.076 0.7233 0.2269 0.886 0.154 0.1626 0.4322 0.2439 0.8345 0.2439h0.274v0.6121h-0.274c-0.4023 0-0.6805 0.083-0.8345 0.2482-0.1513 0.1655-0.2269 0.4637-0.2269 0.8945v1.0229c0 0.6306-0.1198 1.0515-0.3595 1.2626-0.2397 0.2112-0.7148 0.3167-1.4252 0.3167h-0.2654v-0.6163"/>
  </g>
  <use id="use10356" xlink:href="#rect10222" transform="matrix(-1 0 0 1 95.886 0)" height="1085" width="5033" y="0" x="0"/>
  <path id="path9671" style="opacity:.25;stroke:#f87019;stroke-linecap:square;stroke-dasharray:0.50000001, 0.50000001;stroke-width:.5;fill:none" d="m63.24 36.814v22.393m-30.486-22.393v22.393m13.723-22.393v22.393m-15.5-1.7606h34.04m-34.04-12.813h34.04m-34.04-5.9828h34.04"/>
  <path id="path10497" style="opacity:.7;stroke:#f87019;stroke-linecap:square;stroke-dasharray:0.50000001, 1.50000002;stroke-width:.5;fill:none" d="m63.24 36.814v22.393m-30.486-22.393v22.393m13.723-22.393v22.393m-15.5-1.7606h34.04m-34.04-12.813h34.04m-34.04-5.9828h34.04"/>
  <use id="use10408" xlink:href="#use10386" transform="matrix(1 0 0 1.1244 -.000001 .54587)" height="1085" width="5033" y="0" x="0"/>
  <rect id="rect10288" style="opacity:.35;color:#000000;fill:url(#linearGradient11637)" height=".57434" width="34.058" y="58.553" x="30.725"/>
  <rect id="rect10312" style="opacity:.35;color:#000000;fill:url(#linearGradient3501)" transform="rotate(90)" height=".42085" width="21.835" y="-31.308" x="37.093"/>
  <use id="use10350" xlink:href="#rect10312" transform="matrix(.90232 0 0 1.0099 36.749 -.42137)" height="1085" width="5033" y="0" x="0"/>
  <rect id="rect10352" style="opacity:.25;color:#000000;fill:url(#linearGradient3505)" transform="rotate(90)" height=".89060" width="23.851" y="-29.942" x="36.124"/>
  <rect id="use10368" style="opacity:.25;color:#000000;fill:url(#linearGradient12011)" transform="rotate(90)" height=".94772" width="23.851" y="-66.999" x="36.124"/>
  <use id="use10386" xlink:href="#rect10352" transform="matrix(0 .97574 -1.514 0 120.59 31.713)" height="1085" width="5033" y="0" x="0"/>
  <use id="use10410" style="opacity:.5" xlink:href="#use10408" transform="matrix(.94419 0 0 .90225 2.6795 .25171)" height="1085" width="5033" y="0" x="0"/>
  <rect id="rect10420" style="opacity:.15;color:#000000;fill:url(#linearGradient12163)" height="4.775" width="8.8162" y="62.259" x="56.065"/>
  <rect id="use10426" style="opacity:.15;color:#000000;fill:url(#linearGradient12161)" transform="scale(-1,1)" height="4.7455" width="8.8514" y="62.259" x="-39.828"/>
  <rect id="use10434" style="opacity:.125;color:#000000;fill:url(#linearGradient12015)" transform="scale(-1)" height=".99684" width="36.109" y="-36.046" x="-65.903"/>
  <rect id="rect10501" style="opacity:.2;color:#000000;fill:url(#linearGradient12149)" transform="rotate(90)" height=".99759" width="6.2039" y="-30.014" x="61.977"/>
  <rect id="use10505" style="opacity:.2;color:#000000;fill:url(#linearGradient12153)" transform="rotate(90)" height=".98791" width="6.4858" y="-67" x="61.695"/>
  <path id="path8416" style="opacity:.8;fill:url(#linearGradient11646)" d="m45.62 37.888 18.38 0.112v4h-2v-2h-14l-7.6216 17.946-1.8108 0.05406-4.837-9.946-1.73-0.054v-2h4l3.3249 7.0939 6.2932-15.206"/>
  <path id="path12054" style="opacity:.8;color:#000000;fill:url(#linearGradient12087)" d="m50 44 4.312 6.938-4.312 7.062h3.312l2.688-4.344 2.688 4.344h3.312l-4.312-7.062 4.312-6.938-3.5 0.031-2.5 4.094-2.5-4.094-3.5-0.031z"/>
  <path id="path12089" style="opacity:.3" d="m45.625 37.875-6.313 15.219-3.312-7.094h-4v0.53125h4l3.312 7.094 6.313-15.219 18.375 0.125v-0.531l-18.375-0.125zm4.375 6.125 0.344 0.531 3.156 0.031 2.5 4.094 2.5-4.094 3.156-0.031 0.344-0.531-3.5 0.031-2.5 4.094-2.5-4.094-3.5-0.031zm4.156 7.219-4.156 6.781h0.3125l4-6.5312-0.15625-0.25zm3.6875 0-0.15625 0.25 4 6.5312h0.312l-4.156-6.781z"/>
 </g>
</svg>
