<?xml version="1.0" encoding="UTF-8" standalone="no"?>
<!-- Created with Inkscape (http://www.inkscape.org/) -->
<svg id="svg2408" xmlns:rdf="http://www.w3.org/1999/02/22-rdf-syntax-ns#" xmlns="http://www.w3.org/2000/svg" height="96" width="96" version="1.0" xmlns:cc="http://creativecommons.org/ns#" xmlns:xlink="http://www.w3.org/1999/xlink" xmlns:dc="http://purl.org/dc/elements/1.1/">
 <defs id="defs2410">
  <filter id="filter3174-2" color-interpolation-filters="sRGB">
   <feGaussianBlur id="feGaussianBlur3176-2" stdDeviation="1.71"/>
  </filter>
  <linearGradient id="linearGradient2875" y2="7.0165" gradientUnits="userSpaceOnUse" x2="45.448" gradientTransform="scale(1.0059 .99417)" y1="92.54" x1="45.448">
   <stop id="stop3750-6" offset="0"/>
   <stop id="stop3752-9" style="stop-opacity:.58824" offset="1"/>
  </linearGradient>
  <linearGradient id="linearGradient3707">
   <stop id="stop3709" style="stop-color:#fff" offset="0"/>
   <stop id="stop3711" style="stop-color:#fff;stop-opacity:0" offset="1"/>
  </linearGradient>
  <linearGradient id="ButtonColor-6" y2="5.4252" gradientUnits="userSpaceOnUse" x2="58.65" y1="122" x1="58.65">
   <stop id="stop3189-4" style="stop-color:#dcdcdc" offset="0"/>
   <stop id="stop3191-0" style="stop-color:#f5f5f5" offset="1"/>
  </linearGradient>
  <clipPath id="clipPath4175">
   <path id="path4177" style="fill:url(#linearGradient4179)" d="m11.098 2.9904c-4.5114 0-8.1709 3.4413-8.5275 7.8578 3.528 0.02442 6.3844 2.8954 6.3844 6.4291 0 3.5489-2.8802 6.4291-6.4291 6.4291v10.001c3.5489 0 6.4291 2.8802 6.4291 6.4291s-2.8802 6.4291-6.4291 6.4291v10.001c3.5489 0 6.4291 2.8802 6.4291 6.4291s-2.8802 6.4291-6.4291 6.4291v10.001c3.5489 0 6.4291 2.8802 6.4291 6.4291s-2.8802 6.4291-6.4291 6.4291v10.001c3.5489-0.00001 6.4291 2.8802 6.4291 6.4291 0 3.5337-2.8564 6.4047-6.3844 6.4291 0.3566 4.42 4.0162 7.86 8.5275 7.86 0-3.5489 2.8802-6.4291 6.4291-6.4291s6.4291 2.8802 6.4291 6.4291h10.001c0-3.5489 2.8802-6.4291 6.4291-6.4291s6.4291 2.8802 6.4291 6.4291h10.001c0-3.5489 2.8802-6.4291 6.4291-6.4291s6.4291 2.8802 6.4291 6.4291h10.001c0-3.5489 2.8802-6.4291 6.4291-6.4291s6.4291 2.8802 6.4291 6.4291h10.001c-0.00001-3.5489 2.8802-6.4291 6.4291-6.4291 3.5034 0 6.3567 2.809 6.4291 6.2952 3.8411-0.63593 6.7806-3.7817 7.0988-7.7238-3.528-0.0244-6.3844-2.8954-6.3844-6.4291 0-3.5489 2.8802-6.4291 6.4291-6.4291v-10.001c-3.5489 0.000002-6.4291-2.8802-6.4291-6.4291s2.8802-6.4291 6.4291-6.4291v-10.001c-3.5489 0.000001-6.4291-2.8802-6.4291-6.4291s2.8802-6.4291 6.4291-6.4291v-10.001c-3.5489 0.000002-6.4291-2.8802-6.4291-6.4291s2.8802-6.4291 6.4291-6.4291v-10.001c-3.5489 0.000001-6.4291-2.8802-6.4291-6.4291 0-3.5337 2.8564-6.4047 6.3844-6.4291-0.31823-3.9421-3.2577-7.0879-7.0988-7.7238-0.0724 3.4862-2.9256 6.2951-6.4291 6.2951-3.5489 0-6.4291-2.8802-6.4291-6.4291h-10.001c0.000001 3.5489-2.8802 6.4291-6.4291 6.4291s-6.4291-2.8802-6.4291-6.4291h-10.001c0.000002 3.5489-2.8802 6.4291-6.4291 6.4291s-6.4291-2.8802-6.4291-6.4291h-10.001c0.000001 3.5489-2.8802 6.4291-6.4291 6.4291s-6.4291-2.8802-6.4291-6.4291h-10.001c0.000002 3.5489-2.8802 6.4291-6.4291 6.4291s-6.4291-2.8802-6.4291-6.4291z"/>
  </clipPath>
  <linearGradient id="linearGradient4179" y2="5.9877" xlink:href="#ButtonColor-6" gradientUnits="userSpaceOnUse" x2="48" gradientTransform="matrix(1.4287 0 0 1.4287 -6.0462 -5.5817)" y1="90" x1="48"/>
  <linearGradient id="linearGradient4217" y2="48" xlink:href="#ButtonColor-6" gradientUnits="userSpaceOnUse" x2="86.075" gradientTransform="matrix(0,-1,1,0,0,92)" y1="48" x1="6"/>
  <linearGradient id="linearGradient3892">
   <stop id="stop3894" style="stop-opacity:.58824" offset="0"/>
   <stop id="stop3896" style="stop-opacity:.47059" offset=".11780"/>
   <stop id="stop3898" style="stop-opacity:.39216" offset=".23810"/>
   <stop id="stop3900" style="stop-opacity:.31373" offset="1"/>
  </linearGradient>
  <linearGradient id="linearGradient3075" y2="88" xlink:href="#linearGradient3892" spreadMethod="reflect" gradientUnits="userSpaceOnUse" x2="48" gradientTransform="translate(0,20)" y1="88" x1="90"/>
  <linearGradient id="linearGradient4256" y2="88" xlink:href="#linearGradient3892" spreadMethod="reflect" gradientUnits="userSpaceOnUse" x2="48" y1="88" x1="90"/>
  <linearGradient id="linearGradient4264" y2="6" xlink:href="#ButtonColor-6" gradientUnits="userSpaceOnUse" x2="47" y1="90" x1="47"/>
  <linearGradient id="linearGradient4273" y2="90" xlink:href="#linearGradient3892" spreadMethod="reflect" gradientUnits="userSpaceOnUse" x2="48" y1="90" x1="6"/>
  <linearGradient id="linearGradient4292" y2="88" xlink:href="#linearGradient3892" spreadMethod="reflect" gradientUnits="userSpaceOnUse" x2="16.499" y1="88" x1="12"/>
  <linearGradient id="linearGradient4296" y2="88" xlink:href="#linearGradient3892" spreadMethod="reflect" gradientUnits="userSpaceOnUse" x2="16.499" gradientTransform="translate(16)" y1="88" x1="12"/>
  <linearGradient id="linearGradient4300" y2="88" xlink:href="#linearGradient3892" spreadMethod="reflect" gradientUnits="userSpaceOnUse" x2="16.499" gradientTransform="translate(32)" y1="88" x1="12"/>
  <linearGradient id="linearGradient4304" y2="88" xlink:href="#linearGradient3892" spreadMethod="reflect" gradientUnits="userSpaceOnUse" x2="16.499" gradientTransform="translate(48)" y1="88" x1="12"/>
  <linearGradient id="linearGradient4308" y2="88" xlink:href="#linearGradient3892" spreadMethod="reflect" gradientUnits="userSpaceOnUse" x2="16.499" gradientTransform="translate(64)" y1="88" x1="12"/>
  <linearGradient id="linearGradient4323" y2="33" xlink:href="#linearGradient3707" gradientUnits="userSpaceOnUse" x2="-36" gradientTransform="matrix(0,-1,1,0,0,92)" y1="33" x1="86"/>
  <radialGradient id="radialGradient4336" xlink:href="#linearGradient3707" gradientUnits="userSpaceOnUse" cy="89.781" cx="48" gradientTransform="matrix(1.2143 0 0 .90997 -10.286 4.3017)" r="42"/>
  <linearGradient id="linearGradient4431" y2="6" xlink:href="#linearGradient2875" gradientUnits="userSpaceOnUse" x2="47" gradientTransform="translate(0,1)" y1="90" x1="47"/>
  <linearGradient id="linearGradient4435" y2="6" xlink:href="#linearGradient2875" gradientUnits="userSpaceOnUse" x2="47" gradientTransform="matrix(1.0238 0 0 1.0119 -1.1429 .92857)" y1="90" x1="47"/>
  <clipPath id="clipPath4355">
   <rect id="rect4357" style="fill:#fff" rx="6" ry="6" height="80" width="84" y="6" x="6"/>
  </clipPath>
  <filter id="filter3794-1" height="1.384" width="1.384" color-interpolation-filters="sRGB" y="-.192" x="-.192">
   <feGaussianBlur id="feGaussianBlur3796-2" stdDeviation="5.28"/>
  </filter>
  <linearGradient id="linearGradient3096" y2="138.66" gradientUnits="userSpaceOnUse" x2="48" y1="20.221" x1="48">
   <stop id="stop3739-0" style="stop-color:#fff" offset="0"/>
   <stop id="stop3741-9" style="stop-color:#fff;stop-opacity:0" offset="1"/>
  </linearGradient>
  <clipPath id="clipPath4146">
   <rect id="rect4148" style="fill:#f0f" height="64" width="64" y="26" x="16"/>
  </clipPath>
  <linearGradient id="linearGradient3982" y2="29.471" xlink:href="#linearGradient3707" gradientUnits="userSpaceOnUse" x2="44.586" gradientTransform="matrix(-.96032 .27889 .27889 .96032 111.44 15.295)" y1="13.056" x1="39.819"/>
  <linearGradient id="linearGradient3980" y2="80.751" xlink:href="#linearGradient3707" gradientUnits="userSpaceOnUse" x2="35.98" gradientTransform="translate(-10,-3)" y1="59.202" x1="35.838"/>
  <linearGradient id="linearGradient3929" y2="48.086" xlink:href="#linearGradient3707" gradientUnits="userSpaceOnUse" x2="45.967" gradientTransform="translate(44.277 16.233)" y1="28.946" x1="45.967"/>
  <linearGradient id="linearGradient3926" y2="56.865" xlink:href="#linearGradient3707" gradientUnits="userSpaceOnUse" x2="76.758" gradientTransform="matrix(-1 0 0 1 80.942 38.325)" y1="27.41" x1="76.758"/>
  <linearGradient id="linearGradient3235" y2="76.55" gradientUnits="userSpaceOnUse" x2="75.918" gradientTransform="matrix(-1 0 0 1 85.594 12)" y1="63.139" x1="75.918">
   <stop id="stop3864-9" style="stop-color:#fff" offset="0"/>
   <stop id="stop3866-2" style="stop-color:#fff;stop-opacity:0" offset="1"/>
  </linearGradient>
  <linearGradient id="linearGradient5538" y2="87.446" xlink:href="#linearGradient3707" gradientUnits="userSpaceOnUse" x2="35.838" gradientTransform="matrix(-1 0 0 1 113.91 7)" y1="59.202" x1="35.838"/>
  <linearGradient id="linearGradient5542" y2="48.086" xlink:href="#linearGradient3707" gradientUnits="userSpaceOnUse" x2="45.967" gradientTransform="translate(54.277 38.233)" y1="28.946" x1="45.967"/>
  <linearGradient id="linearGradient4073" y2="16.641" gradientUnits="userSpaceOnUse" x2="47.727" y1="78.923" x1="47.727">
   <stop id="stop4165" style="stop-color:#4d81cf" offset="0"/>
   <stop id="stop4167" style="stop-color:#9cb8e4" offset="1"/>
  </linearGradient>
  <linearGradient id="linearGradient3549" y2="16" xlink:href="#linearGradient3707" gradientUnits="userSpaceOnUse" x2="48" gradientTransform="matrix(1 0 0 .93939 0 .90909)" y1="80" x1="48"/>
  <radialGradient id="radialGradient4646-8" xlink:href="#linearGradient4648-2" gradientUnits="userSpaceOnUse" cy="-26" cx="143" gradientTransform="matrix(1.035 -.017601 .017908 1.053 -4.5331 3.8953)" r="4"/>
  <linearGradient id="linearGradient4648-2">
   <stop id="stop4650-4" style="stop-color:#f7d997" offset="0"/>
   <stop id="stop4652-7" style="stop-color:#ffce5a" offset=".37649"/>
   <stop id="stop4654-0" style="stop-color:#bc8711" offset=".72869"/>
   <stop id="stop4656-8" style="stop-color:#6e3600" offset="1"/>
  </linearGradient>
  <linearGradient id="linearGradient4478-9" y2="-3.697" xlink:href="#linearGradient4480-4" gradientUnits="userSpaceOnUse" x2="162.55" y1="-4" x1="120"/>
  <linearGradient id="linearGradient4480-4">
   <stop id="stop4482-6" style="stop-color:#f0bc47" offset="0"/>
   <stop id="stop4484-0" style="stop-color:#ffce5a" offset=".55791"/>
   <stop id="stop4486-9" style="stop-color:#bc8711" offset=".72869"/>
   <stop id="stop4488-7" style="stop-color:#6e3600" offset="1"/>
  </linearGradient>
  <radialGradient id="radialGradient4288-6" xlink:href="#linearGradient4272-8" gradientUnits="userSpaceOnUse" cy="-7.8293" cx="150.95" gradientTransform="matrix(1 0 0 4.4898 0 27.323)" r="2.4745"/>
  <linearGradient id="linearGradient4272-8">
   <stop id="stop4274-0" style="stop-color:#ffecad" offset="0"/>
   <stop id="stop4276-7" style="stop-color:#ffecad;stop-opacity:0" offset="1"/>
  </linearGradient>
  <linearGradient id="linearGradient4355-6" y2="10.863" xlink:href="#linearGradient4349-3" gradientUnits="userSpaceOnUse" x2="167.39" y1="-23.074" x1="148.41"/>
  <linearGradient id="linearGradient4349-3">
   <stop id="stop4351-1" style="stop-color:#f0bd48" offset="0"/>
   <stop id="stop4353-0" style="stop-color:#f0bd48;stop-opacity:0" offset="1"/>
  </linearGradient>
  <linearGradient id="linearGradient4476-6" y2="-19.957" xlink:href="#linearGradient4315-1" gradientUnits="userSpaceOnUse" x2="145.96" y1="-23.998" x1="145.96"/>
  <linearGradient id="linearGradient4315-1">
   <stop id="stop4317-0" style="stop-color:#6a3200" offset="0"/>
   <stop id="stop4319-3" style="stop-color:#6a3200;stop-opacity:0" offset="1"/>
  </linearGradient>
  <linearGradient id="linearGradient4400-8" y2="-6.3611" xlink:href="#linearGradient4377-0" gradientUnits="userSpaceOnUse" x2="145.84" y1="-6.3611" x1="126.95"/>
  <linearGradient id="linearGradient4377-0">
   <stop id="stop4379-5" style="stop-color:#a97400" offset="0"/>
   <stop id="stop4381-2" style="stop-color:#a97400;stop-opacity:0" offset="1"/>
  </linearGradient>
  <linearGradient id="linearGradient4520-7" y2="5.2299" xlink:href="#linearGradient4514-8" spreadMethod="reflect" gradientUnits="userSpaceOnUse" x2="163.23" gradientTransform="translate(-.28475 -1.5)" y1="5.4448" x1="125.41"/>
  <linearGradient id="linearGradient4514-8">
   <stop id="stop4516-8" style="stop-color:#a06a00" offset="0"/>
   <stop id="stop4522-7" style="stop-color:#cb971f" offset=".14430"/>
   <stop id="stop4524-2" style="stop-color:#733d00" offset=".15945"/>
   <stop id="stop4526-2" style="stop-color:#9a6000" offset=".46827"/>
   <stop id="stop4552-4" style="stop-color:#d7a32b" offset=".47961"/>
   <stop id="stop4528-3" style="stop-color:#d8a42c" offset=".47962"/>
   <stop id="stop4530-2" style="stop-color:#5a2900" offset=".83766"/>
   <stop id="stop4540-3" style="stop-color:#0f0000" offset=".84914"/>
   <stop id="stop4518-9" style="stop-color:#0d0000" offset="1"/>
  </linearGradient>
  <radialGradient id="radialGradient4412-5" xlink:href="#linearGradient4272-8" gradientUnits="userSpaceOnUse" cy="-21.111" cx="144.08" gradientTransform="matrix(1 0 0 .26316 0 -15.555)" r="4.7976"/>
  <linearGradient id="linearGradient4542-0" y2="5.3016" xlink:href="#linearGradient4544-7" gradientUnits="userSpaceOnUse" x2="157.64" gradientTransform="translate(-.28475 -1.509)" y1="5.7314" x1="130.57"/>
  <linearGradient id="linearGradient4544-7">
   <stop id="stop4546-3" style="stop-color:#eecb7b;stop-opacity:0" offset="0"/>
   <stop id="stop4560-9" style="stop-color:#eec243;stop-opacity:.51181" offset=".22882"/>
   <stop id="stop4548-0" style="stop-color:#efd17e" offset=".45764"/>
   <stop id="stop4556-0" style="stop-color:#ffffc4" offset=".47079"/>
   <stop id="stop4550-7" style="stop-color:#ffffd4;stop-opacity:0" offset="1"/>
  </linearGradient>
  <linearGradient id="linearGradient4454-3" y2="-6.1613" xlink:href="#linearGradient4402-1" spreadMethod="reflect" gradientUnits="userSpaceOnUse" x2="165.13" y1="-6.1613" x1="144.03"/>
  <linearGradient id="linearGradient4402-1">
   <stop id="stop4404-9" style="stop-color:#371100" offset="0"/>
   <stop id="stop4406-2" style="stop-color:#371100;stop-opacity:.37008" offset="1"/>
  </linearGradient>
  <linearGradient id="linearGradient4338-9" y2="30.353" xlink:href="#linearGradient4332-5" gradientUnits="userSpaceOnUse" x2="116.76" y1="-23.48" x1="139.7"/>
  <linearGradient id="linearGradient4332-5">
   <stop id="stop4334-3" style="stop-color:#7c4400" offset="0"/>
   <stop id="stop4336-0" style="stop-color:#7c4400;stop-opacity:0" offset="1"/>
  </linearGradient>
  <linearGradient id="linearGradient4408-0" y2="-2.0438" xlink:href="#linearGradient4402-1" spreadMethod="reflect" gradientUnits="userSpaceOnUse" x2="132.87" y1="-23.023" x1="135.64"/>
  <linearGradient id="linearGradient4588-7" y2="16" xlink:href="#linearGradient4582-7" gradientUnits="userSpaceOnUse" x2="168" y1="16" x1="120"/>
  <linearGradient id="linearGradient4582-7">
   <stop id="stop4584-8" style="stop-color:#421900" offset="0"/>
   <stop id="stop4586-7" style="stop-color:#c4901a" offset="1"/>
  </linearGradient>
  <linearGradient id="linearGradient4580-5" y2="11.391" xlink:href="#linearGradient4574-1" gradientUnits="userSpaceOnUse" x2="167.88" y1="11.391" x1="79.825"/>
  <linearGradient id="linearGradient4574-1">
   <stop id="stop4576-1" style="stop-color:#fea" offset="0"/>
   <stop id="stop4578-1" style="stop-color:#fea;stop-opacity:0" offset="1"/>
  </linearGradient>
  <linearGradient id="linearGradient4597-6" y2="16" xlink:href="#linearGradient4402-1" gradientUnits="userSpaceOnUse" x2="168" gradientTransform="matrix(.82746 0 0 .88890 24.846 -4.4446)" y1="16" x1="120"/>
  <linearGradient id="linearGradient4613-3" y2="7.1486" xlink:href="#linearGradient4607-5" gradientUnits="userSpaceOnUse" x2="152.19" y1="23.548" x1="152.19"/>
  <linearGradient id="linearGradient4607-5">
   <stop id="stop4609-5" style="stop-color:#ffce5a" offset="0"/>
   <stop id="stop4611-3" style="stop-color:#a8730d" offset="1"/>
  </linearGradient>
  <radialGradient id="radialGradient4617-2" xlink:href="#linearGradient3707" gradientUnits="userSpaceOnUse" cy="37.21" cx="152.79" gradientTransform="matrix(.73130 -.096278 .043509 .33048 39.435 25.483)" r="24"/>
  <clipPath id="clipPath4728-2">
   <path id="path4730-8" style="color:#000000;fill:#f0f" d="m168 16a24 8 0 1 1 -48 0 24 8 0 1 1 48 0z"/>
  </clipPath>
  <radialGradient id="radialGradient4712-8" xlink:href="#linearGradient4694-2" gradientUnits="userSpaceOnUse" cy="-26.692" cx="144" gradientTransform="matrix(4.593 0 0 .95479 -509.77 37.585)" r="4"/>
  <linearGradient id="linearGradient4694-2">
   <stop id="stop4696-3" style="stop-color:#2b0f00;stop-opacity:0" offset="0"/>
   <stop id="stop4714-0" style="stop-color:#2b0f00;stop-opacity:.22835" offset=".38756"/>
   <stop id="stop4698-9" style="stop-color:#2b0f00" offset="1"/>
  </linearGradient>
 </defs>
 <metadata id="metadata2413">
  <rdf:RDF>
   <cc:Work rdf:about="">
    <dc:format>image/svg+xml</dc:format>
    <dc:type rdf:resource="http://purl.org/dc/dcmitype/StillImage"/>
    <dc:title/>
   </cc:Work>
  </rdf:RDF>
 </metadata>
 <g id="layer2" style="display:none">
  <path id="rect3745" style="opacity:.9;filter:url(#filter3174-2);display:inline;fill:url(#linearGradient2875)" d="m11 7c-2.8841 0-5.26 2.0143-5.8438 4.7187 2.5086 0.0336 4.5313 2.0773 4.5312 4.5938 0 2.5374-2.0563 4.5938-4.5938 4.5938-0.031404 0-0.062496 0.000628-0.09375 0v7.1562c0.031254-0.000628 0.062346 0 0.09375 0 2.5374 0 4.5938 2.0563 4.5938 4.5938 0 2.5374-2.0563 4.5937-4.5938 4.5938-0.031404 0-0.062496 0.000628-0.09375 0v7.1562c0.031254-0.000628 0.062346 0 0.09375 0 2.5374 0 4.5938 2.0563 4.5938 4.5938 0 2.5374-2.0563 4.5937-4.5938 4.5938-0.031404 0-0.062496 0.000628-0.09375 0l0.0002 7.156c0.031254-0.000628 0.062346 0 0.09375 0 2.5374 0 4.5938 2.0563 4.5938 4.5938 0 2.5374-2.0563 4.5938-4.5938 4.5938-0.031404 0-0.062496 0.000628-0.09375 0v7.1562c0.031254-0.000628 0.062346 0 0.09375 0 2.5374-0.000004 4.5938 2.0563 4.5938 4.5938 0 2.5374-2.0563 4.5938-4.5938 4.5938-0.031404 0-0.062496 0.000628-0.09375 0 0.1444 3.193 2.7693 5.718 6 5.718h0.21875c-0.000628-0.03125 0-0.06235 0-0.09375 0-2.5374 2.0563-4.5937 4.5938-4.5938 2.5374 0 4.5938 2.0563 4.5938 4.5938 0 0.0314 0.000628 0.0625 0 0.09375h7.1562c-0.000628-0.03125 0-0.06235 0-0.09375 0-2.5374 2.0563-4.5937 4.5938-4.5938 2.5374 0 4.5938 2.0563 4.5938 4.5938 0 0.0314 0.000628 0.0625 0 0.09375h7.1562c-0.000628-0.03125 0-0.06235 0-0.09375 0-2.5374 2.0563-4.5937 4.5938-4.5938 2.5374 0 4.5937 2.0563 4.5938 4.5938 0 0.0314 0.000628 0.0625 0 0.09375h7.155c-0.000628-0.03125 0-0.06235 0-0.09375 0-2.5374 2.0563-4.5937 4.5938-4.5938 2.5374 0 4.5937 2.0563 4.5938 4.5938 0 0.0314 0.000628 0.0625 0 0.09375h7.1562c-0.000628-0.03125 0-0.06235 0-0.09375-0.000005-2.5374 2.0563-4.5937 4.5938-4.5938 2.5374 0 4.5937 2.0563 4.5938 4.5938 0 0.01047 0.00007 0.0208 0 0.03125 2.8652-0.36646 5.0861-2.7222 5.2188-5.6562-0.03125 0.000628-0.06235 0-0.09375 0-2.5374-0.000003-4.5937-2.0563-4.5938-4.5938 0-2.5374 2.0563-4.5938 4.5938-4.5938 0.0314 0 0.0625-0.000628 0.09375 0v-7.1562c-0.03125 0.000628-0.06235 0-0.09375 0-2.5374 0.000001-4.5937-2.0563-4.5938-4.5938 0-2.5374 2.0563-4.5937 4.5938-4.5938 0.0314 0 0.0625-0.000628 0.09375 0v-7.1562c-0.03125 0.000628-0.06235 0-0.09375 0-2.5374 0.000001-4.5937-2.0563-4.5938-4.5938 0-2.5374 2.0563-4.5937 4.5938-4.5938 0.0314 0 0.0625-0.000628 0.09375 0v-7.155c-0.03125 0.000628-0.06235 0-0.09375 0-2.5374 0.000001-4.5937-2.0563-4.5938-4.5938 0-2.5374 2.0563-4.5937 4.5938-4.5938 0.0314 0 0.0625-0.000628 0.09375 0v-7.1562c-0.03125 0.000628-0.06235 0-0.09375 0-2.5374 0.000001-4.5937-2.0563-4.5938-4.5938 0-2.5165 2.0227-4.5602 4.5312-4.5938-0.53737-2.4896-2.5803-4.4006-5.1562-4.6875-0.42886 2.094-2.2798 3.6562-4.5 3.6562-2.2307 0-4.0826-1.5787-4.5-3.6875h-7.3438c-0.41736 2.1088-2.2693 3.6875-4.5 3.6875s-4.0826-1.5787-4.5-3.6875h-7.3438c-0.416 2.1088-2.268 3.688-4.499 3.688-2.2307 0-4.0826-1.5787-4.5-3.6875h-7.3438c-0.41736 2.1088-2.2693 3.6875-4.5 3.6875s-4.0826-1.5787-4.5-3.6875h-7.3438c-0.41736 2.1088-2.2693 3.6875-4.5 3.6875s-4.0826-1.5787-4.5-3.6875h-0.3125z"/>
 </g>
 <g id="layer6">
  <path id="path4466" style="opacity:.1;color:#000000;fill:url(#linearGradient4435)" d="m20.125 4a0.98476 0.98476 0 0 0 -0.063 0.0312c-0.868 0.0678-1.631 0.5224-2.031 1.0938-0.399 0.5714-0.53 1.1441-0.656 1.6562-0.126 0.5122-0.241 0.9598-0.375 1.2188s-0.18 0.3568-0.469 0.4375a0.98476 0.98476 0 0 0 -0.125 0.03125c-0.49761 0.20488-0.79212 0.1858-1 0.125-0.208-0.0609-0.379-0.1933-0.594-0.4688-0.428-0.5511-0.801-1.5933-1.093-2.5312a0.98476 0.98476 0 0 0 -0.219 -0.4063c-0.614-0.6573-1.409-1.0012-2.188-1.0937-0.778-0.0926-1.5151 0.0398-2.2182 0.2812-1.4064 0.4828-2.6824 1.3818-3.5626 2.0312a0.98476 0.98476 0 0 0 -0.03125 0c-3.4502 2.7409-3.8699 7.3594-3.2812 11.125a0.98476 0.98476 0 0 0 0.0625 0.25c0.3232 0.732 0.935 1.11 1.4687 1.407-0.5493 0.313-1.089 0.66-1.3438 1.156-0.3214 0.625-0.4172 1.286-0.4374 1.906-0.040597 1.2396 0.16108 2.4223 0.0625 3.0938a0.98476 0.98476 0 0 0 0 0.21875c0.14137 2.2267-0.38486 4.7731 0.25 7.375a0.98476 0.98476 0 0 0 0.1562 0.312c0.3476 0.53379 0.82504 0.83902 1.2812 1.0938-0.53862 0.31312-1.0612 0.66746-1.3125 1.1562-0.32144 0.62516-0.4172 1.2864-0.4375 1.9062-0.040597 1.2396 0.16108 2.4223 0.0625 3.0938a0.98476 0.98476 0 0 0 0 0.21875c0.14083 2.2386-0.38365 4.7954 0.25 7.4062a0.98476 0.98476 0 0 0 0.15625 0.3125c0.3476 0.53379 0.82504 0.83902 1.2812 1.0938-0.53862 0.31312-1.0612 0.66746-1.3125 1.1562-0.32144 0.62516-0.4172 1.2864-0.4375 1.9062-0.040597 1.2396 0.16108 2.4223 0.0625 3.0938a0.98476 0.98476 0 0 0 0 0.21875c0.14968 2.227-0.40309 4.8191 0.25 7.4375a0.98476 0.98476 0 0 0 0.1564 0.281c0.3476 0.53379 0.82504 0.83902 1.2812 1.0938-0.53862 0.31312-1.0612 0.66746-1.3125 1.1562-0.32144 0.62516-0.4172 1.2864-0.4375 1.9062-0.040597 1.2396 0.16108 2.4223 0.0625 3.0938a0.98476 0.98476 0 0 0 0 0.21875c0.14137 2.2267-0.38486 4.7731 0.25 7.375a0.98476 0.98476 0 0 0 0.1875 0.375c0.3539 0.452 0.7993 0.72 1.2188 0.968-0.5792 0.341-1.0647 0.784-1.3125 1.313-0.2773 0.592-0.3583 1.209-0.375 1.781-0.033349 1.1449 0.15064 2.2323 0.0625 2.875a0.98476 0.98476 0 0 0 0 0.1875c0.18161 2.4183 1.4265 4.7311 3.2188 6.4062 1.7922 1.6751 4.1743 2.7398 6.6875 2.4062a0.98476 0.98476 0 0 0 0.187 -0.03c0.78906-0.26001 1.3393-0.85732 1.625-1.4375 0.28571-0.58018 0.38292-1.1658 0.5-1.625 0.11708-0.45916 0.25458-0.78087 0.375-0.9375s0.17954-0.25273 0.625-0.28125a0.98476 0.98476 0 0 0 0.15625 0c0.65947-0.16081 0.88162-0.07378 1.0312 0.03125 0.14963 0.10503 0.31422 0.38033 0.5 0.84375s0.36489 1.0687 0.65625 1.6875c0.29136 0.61875 0.73251 1.286 1.5 1.6875a0.98476 0.98476 0 0 0 0.376 0.093c2.8809 0.30591 5.8213 0.18445 8.625 0.0625a0.98476 0.98476 0 0 0 0.25 -0.03125c0.85696-0.26748 1.4367-0.90848 1.75-1.5312 0.31334-0.62277 0.4754-1.2566 0.625-1.75 0.1496-0.49343 0.29887-0.82878 0.4375-0.96875s0.25396-0.2442 0.84375-0.1875a0.98476 0.98476 0 0 0 0.1875 0c0.59216-0.05697 0.70127 0.04555 0.84375 0.1875s0.31567 0.47652 0.46875 0.96875 0.31024 1.129 0.625 1.75c0.31476 0.62097 0.86476 1.2603 1.7188 1.5312a0.98476 0.98476 0 0 0 0.28125 0.03125c2.7837 0.10903 5.7142 0.25886 8.5938-0.0625a0.98476 0.98476 0 0 0 0.375 -0.09375c0.76793-0.4019 1.2089-1.0681 1.5-1.6875 0.29112-0.61944 0.47056-1.2236 0.65625-1.6875 0.18569-0.46386 0.3512-0.73949 0.5-0.84375s0.34001-0.19391 1-0.03125a0.98476 0.98476 0 0 0 0.1875 0c0.46696 0.03351 0.51658 0.12025 0.65625 0.3125s0.30562 0.58992 0.4375 1.0938c0.13188 0.50383 0.24145 1.1143 0.59375 1.7188 0.3523 0.60448 1.0277 1.1789 1.9062 1.3438a0.98476 0.98476 0 0 0 0.1875 0.03125c2.6761-0.03467 5.5462 0.21231 8.4062-0.15625a0.98476 0.98476 0 0 0 0.344 -0.093c0.76255-0.40497 1.2068-1.0703 1.5-1.6875 0.29318-0.61717 0.46672-1.2251 0.65625-1.6875 0.18953-0.46244 0.37694-0.73678 0.53125-0.84375s0.37179-0.19258 1.0312-0.03125a0.98476 0.98476 0 0 0 0.15625 0c0.4611 0.03482 0.519 0.12038 0.65625 0.3125s0.27715 0.58919 0.40625 1.0938c0.1291 0.50456 0.24203 1.1134 0.59375 1.7188 0.35172 0.60538 1.027 1.1812 1.9062 1.3438a0.98476 0.98476 0 0 0 0.1875 0.03125c2.6761-0.03467 5.5462 0.21231 8.4062-0.15625a0.98476 0.98476 0 0 0 0.375 -0.125c1.5045-0.89435 1.7996-2.5757 2.25-3.5 0.22518-0.46214 0.42813-0.69684 0.59375-0.78125s0.4594-0.15992 1.1875 0.125a0.98476 0.98476 0 0 0 0.064 0.03c0.21973 0.06922 0.28871 0.16789 0.4375 0.4375s0.27562 0.69478 0.4375 1.1875 0.35756 1.0707 0.78125 1.5938c0.42369 0.52308 1.1676 0.9002 2 0.9375a0.98476 0.98476 0 0 0 0.15625 0c5.23-0.63285 8.5709-5.8747 8.0938-10.875h0.03125c0.0055-0.02992-0.005-0.06364 0-0.09375-0.0077-0.07287 0.0094-0.14602 0-0.21875h-0.03125c0.0979-0.81612 0.07765-1.679-0.3125-2.4688-0.2496-0.50522-0.7109-0.93998-1.25-1.25 0.19664-0.09421 0.36873-0.11655 0.5625-0.25 0.56718-0.39061 1.0699-1.1727 1-2.0625h0.0625c-0.03-3.613 0.195-7.387-0.156-11.124a0.98476 0.98476 0 0 0 -0.062 -0.313c-0.32289-0.7382-0.92954-1.1413-1.4688-1.4375 0.52942-0.31245 1.0641-0.64195 1.3125-1.125 0.32144-0.62516 0.4172-1.2864 0.4375-1.9062 0.0406-1.2396-0.16108-2.4223-0.0625-3.0938a0.98476 0.98476 0 0 0 0 -0.21875c-0.14083-2.2386 0.38364-4.7954-0.25-7.4062a0.98476 0.98476 0 0 0 -0.157 -0.313c-0.3476-0.53379-0.82504-0.83902-1.2812-1.0938 0.53862-0.31312 1.0612-0.66746 1.3125-1.1562 0.32144-0.62516 0.4172-1.2864 0.4375-1.9062 0.0406-1.2396-0.16108-2.4223-0.0625-3.0938a0.98476 0.98476 0 0 0 0 -0.21875c-0.14968-2.227 0.40308-4.8191-0.25-7.4375a0.98476 0.98476 0 0 0 -0.156 -0.281c-0.3476-0.53379-0.82504-0.83902-1.2812-1.0938 0.53862-0.31312 1.0612-0.66746 1.3125-1.1562 0.32144-0.62516 0.4172-1.2864 0.4375-1.9062 0.0406-1.2396-0.16108-2.4223-0.0625-3.0938a0.98476 0.98476 0 0 0 0 -0.21875c-0.14137-2.2267 0.38486-4.7731-0.25-7.375a0.98476 0.98476 0 0 0 -0.1875 -0.375c-0.35382-0.45215-0.79926-0.71978-1.2188-0.96875 0.57924-0.34059 1.0647-0.78379 1.3125-1.3125 0.27732-0.59166 0.35832-1.2088 0.375-1.7812 0.03335-1.1449-0.15064-2.2323-0.0625-2.875a0.98476 0.98476 0 0 0 0.002 -0.219c-0.39-4.2882-3.901-8.4899-8.438-8.6875a0.98476 0.98476 0 0 0 -0.1875 0c-0.793 0.116-1.444 0.5661-1.812 1.0937-0.368 0.5277-0.517 1.0644-0.656 1.5313s-0.242 0.8904-0.375 1.125c-0.134 0.2346-0.224 0.3039-0.469 0.375a0.98476 0.98476 0 0 0 -0.062 0.0313c-0.729 0.2849-1.022 0.2094-1.188 0.125-0.166-0.0845-0.369-0.3192-0.594-0.7813-0.45037-0.92427-0.74546-2.6056-2.25-3.5a0.98476 0.98476 0 0 0 -0.406 -0.125c-2.87-0.3051-5.8-0.1856-8.594-0.0625a0.98476 0.98476 0 0 0 -0.25 0.03125c-0.85696 0.26748-1.4367 0.90848-1.75 1.5312-0.31334 0.62277-0.4754 1.2566-0.625 1.75-0.1496 0.49343-0.29887 0.82878-0.4375 0.96875-0.139 0.14-0.254 0.2443-0.844 0.1876a0.98476 0.98476 0 0 0 -0.1875 0c-0.592 0.0569-0.701-0.0456-0.843-0.1876-0.143-0.1419-0.316-0.4765-0.469-0.9687s-0.31-1.129-0.625-1.75-0.865-1.2603-1.719-1.5313a0.98476 0.98476 0 0 0 -0.281 -0.0312c-2.784-0.109-5.714-0.2589-8.594 0.0625a0.98476 0.98476 0 0 0 -0.375 0.09375c-0.76255 0.40497-1.2068 1.0703-1.5 1.6875-0.293 0.6172-0.466 1.2251-0.656 1.6875-0.19 0.4625-0.377 0.7368-0.531 0.8438-0.155 0.107-0.372 0.1926-1.031 0.0312a0.98476 0.98476 0 0 0 -0.15625 0c-0.462-0.0348-0.52-0.1203-0.657-0.3124-0.137-0.1922-0.277-0.5892-0.406-1.0938s-0.242-1.1134-0.594-1.7188c-0.352-0.6053-1.027-1.1812-1.906-1.3437a0.98476 0.98476 0 0 0 -0.188 -0.0313c-2.676 0.0347-5.546-0.2123-8.406 0.1563a0.98476 0.98476 0 0 0 -0.34375 0.09375c-0.76255 0.40497-1.2068 1.0703-1.5 1.6875-0.293 0.6172-0.466 1.2251-0.656 1.6875-0.19 0.4625-0.377 0.7368-0.531 0.8438-0.155 0.107-0.372 0.1926-1.032 0.0312a0.98476 0.98476 0 0 0 -0.15625 0c-0.461-0.0348-0.519-0.1203-0.656-0.3124-0.137-0.1922-0.277-0.5892-0.406-1.0938s-0.242-1.1134-0.594-1.7188c-0.352-0.6053-1.027-1.1812-1.906-1.3437a0.98476 0.98476 0 0 0 -0.15625 0c-2.622-0.0723-5.24-0.0431-7.813-0.0625z"/>
  <path id="path4452" style="opacity:.1;color:#000000;fill:url(#linearGradient4435)" d="m20.125 5c-2.529 0.1974-1.143 3.7515-3.349 4.3677-2.598 1.0693-3.412-1.6237-3.995-3.4927-1.853-1.9844-4.9554 0.0478-6.6662 1.3103-3.0541 2.4262-3.4856 6.6187-2.9273 10.19 0.75787 1.7151 5.0861 1.6624 1.25 2.4062-2.3154 0.895-1.1616 3.824-1.4375 5.704 0.1522 2.397-0.3166 4.911 0.25 7.234 0.9711 1.491 4.8901 1.527 1.1875 2.219-2.3154 0.895-1.1616 3.824-1.4375 5.703 0.1515 2.408-0.3162 4.932 0.25 7.265 0.9711 1.492 4.8901 1.528 1.1875 2.219-2.3154 0.895-1.1616 3.824-1.4375 5.703 0.1617 2.407-0.3312 4.936 0.25 7.266 0.9711 1.491 4.8901 1.527 1.1875 2.218-2.3154 0.896-1.1616 3.825-1.4375 5.704 0.1522 2.398-0.3166 4.912 0.25 7.234 1.1842 1.5133 4.6849 1.5717 1.0312 2.2812-2.0238 0.9984-1.0061 3.5964-1.25 5.375 0.31879 4.2448 4.4955 8.4792 8.8125 7.9062 2.121-0.6989 0.72023-4.1561 3.3715-4.3259 3.3331-0.81276 2.3433 3.2925 4.3785 4.3571 2.7833 0.29554 5.7 0.18429 8.5 0.0625 2.3203-0.72422 0.87118-4.7726 4.0312-4.4688 3.1667-0.30464 1.7501 3.735 4.0625 4.4688 2.7893 0.10925 5.6967 0.24688 8.4688-0.0625 2.0349-1.065 1.048-5.1763 4.3827-4.3545 2.7836 0.19975 1.2221 4.0125 3.7111 4.4795 2.747-0.03559 5.5684 0.22459 8.2812-0.125 2.0258-1.0758 1.0805-5.1707 4.4134-4.3553 2.7662 0.20892 1.187 4.0195 3.6804 4.4803 2.747-0.03559 5.5684 0.22459 8.2812-0.125 2.0151-1.1978 1.334-5.6021 4.8675-4.2194 1.9555 0.61604 1.0298 4.0188 3.4138 4.1257 4.7156-0.57061 7.8678-5.5278 7.2812-10.088 0.25808-1.3997-0.29602-3.2942-2-3.2873-3.3313-1.0256 2.3834-0.60118 2-2.875-0.03077-3.6642 0.21522-7.4006-0.125-11.031-0.756-1.729-5.134-1.654-1.282-2.409 2.316-0.895 1.162-3.824 1.438-5.703-0.151-2.408 0.316-4.932-0.25-7.265-0.971-1.492-4.89-1.528-1.188-2.219 2.316-0.895 1.162-3.824 1.438-5.703-0.162-2.407 0.331-4.936-0.25-7.266-0.971-1.491-4.89-1.527-1.188-2.218 2.316-0.896 1.162-3.825 1.438-5.704-0.152-2.398 0.317-4.912-0.25-7.234-1.1842-1.5133-4.6849-1.5717-1.0312-2.2812 2.0238-0.9984 1.0061-3.5964 1.25-5.375-0.34462-3.7947-3.5823-7.6418-7.5-7.8125-2.213 0.3239-1.198 3.5156-3.195 4.0947-3.534 1.3823-2.853-3.0216-4.868-4.2195-2.773-0.2947-5.679-0.1854-8.468-0.0624-2.321 0.7242-0.872 4.7725-4.032 4.4687-3.166 0.3046-1.75-3.735-4.062-4.4687-2.79-0.1093-5.697-0.2469-8.469 0.0624-2.026 1.0759-1.08 5.1708-4.413 4.3554-2.767-0.209-1.187-4.0196-3.681-4.4804-2.747 0.0356-5.568-0.2245-8.281 0.125-2.026 1.0759-1.08 5.1708-4.413 4.3554-2.767-0.209-1.187-4.0195-3.681-4.4804-2.588-0.0714-5.188-0.0116-7.781-0.0312z"/>
  <path id="path4444" style="opacity:.2;color:#000000;fill:url(#linearGradient4435)" d="m20.25 6a0.99697 0.99697 0 0 0 -0.90625 1c0 1.9733-1.5841 3.5625-3.5938 3.5625-1.992 0-3.5665-1.5516-3.5938-3.5a0.99697 0.99697 0 0 0 -1.125 -1c-3.6957 0.44223-6.6245 3.4049-7 7.125a0.99697 0.99697 0 0 0 0 0.09375v3.3438a0.99697 0.99697 0 0 0 1 1c1.1959 0.0082 2.1629 0.65117 2.8125 1.5312-0.652 0.891-1.6298 1.531-2.8435 1.531a0.99697 0.99697 0 0 0 -1 1v4.0312 2.0312 4.0312a0.99697 0.99697 0 0 0 1 1c1.2058 0 2.1592 0.64903 2.8125 1.5312-0.6533 0.882-1.6067 1.531-2.8125 1.531a0.99697 0.99697 0 0 0 -1 1v4.0625 2.0312 4.0312a0.99697 0.99697 0 0 0 1 1c1.2058 0 2.1592 0.64903 2.8125 1.5312-0.6533 0.882-1.6067 1.531-2.8125 1.531a0.99697 0.99697 0 0 0 -1 1v4.0312 2.0312 4.0625a0.99697 0.99697 0 0 0 1 1c1.2058 0 2.1592 0.64903 2.8125 1.5312-0.6533 0.883-1.6067 1.532-2.8125 1.532a0.99697 0.99697 0 0 0 -1 1v4.031 2.031 4.031a0.99697 0.99697 0 0 0 1 1c1.2137 0 2.1915 0.63923 2.8438 1.5312-0.64958 0.88008-1.6166 1.5231-2.8125 1.5312a0.99697 0.99697 0 0 0 -1 1v3.3438a0.99697 0.99697 0 0 0 0 0.09375c0.37554 3.7201 3.3043 6.6828 7 7.125a0.99697 0.99697 0 0 0 1.125 -1c0.02726-1.9484 1.6018-3.5 3.5938-3.5 2.0096 0 3.5938 1.5892 3.5938 3.5625a0.99697 0.99697 0 0 0 1 1h7.1875a0.99697 0.99697 0 0 0 1 -1c0-1.9733 1.5841-3.5625 3.5938-3.5625 2.0096 0 3.625 1.5974 3.625 3.5625a0.99697 0.99697 0 0 0 1 1h7.1562a0.99697 0.99697 0 0 0 1 -1c0-1.9733 1.5841-3.5625 3.5938-3.5625 2.0096 0 3.625 1.5974 3.625 3.5625a0.99697 0.99697 0 0 0 1 1h7.1562a0.99697 0.99697 0 0 0 1 -1c0-1.9651 1.6154-3.5625 3.625-3.5625s3.5938 1.5892 3.5938 3.5625a0.99697 0.99697 0 0 0 1 1h7.1562a0.99697 0.99697 0 0 0 1 -1c0-1.9651 1.6154-3.5625 3.625-3.5625 1.9387 0 3.4566 1.4939 3.5625 3.375a0.99697 0.99697 0 0 0 1.25 0.90625c3.1474-0.85111 5.5389-3.5773 5.875-6.9062a0.99697 0.99697 0 0 0 0 -0.09375v-3.3438a0.99697 0.99697 0 0 0 -1 -1c-1.1959-0.0082-2.1629-0.65117-2.8125-1.5312 0.653-0.891 1.63-1.531 2.844-1.531a0.99697 0.99697 0 0 0 1 -1v-4.0312-2.0312-4.0312a0.99697 0.99697 0 0 0 -1 -1c-1.2058 0-2.1592-0.64903-2.8125-1.5312 0.65331-0.88222 1.6067-1.5312 2.8125-1.5312a0.99697 0.99697 0 0 0 1 -1v-4.0625-2.0312-4.0312a0.99697 0.99697 0 0 0 -1 -1c-1.2058 0-2.1592-0.64903-2.8125-1.5312 0.65331-0.88222 1.6067-1.5312 2.8125-1.5312a0.99697 0.99697 0 0 0 1 -1v-4.0312-2.0312-4.0625a0.99697 0.99697 0 0 0 -1 -1c-1.2058 0-2.1592-0.64903-2.8125-1.5312 0.65331-0.88222 1.6067-1.5312 2.8125-1.5312a0.99697 0.99697 0 0 0 1 -1v-4.032-2.031-4.031a0.99697 0.99697 0 0 0 -1 -1c-1.2137 0-2.1915-0.63923-2.8438-1.5312 0.64958-0.88008 1.6166-1.5231 2.8125-1.5312a0.99697 0.99697 0 0 0 1 -1v-3.3438a0.99697 0.99697 0 0 0 0 -0.09375c-0.336-3.3295-2.728-6.0556-5.875-6.9068a0.99697 0.99697 0 0 0 -1.25 0.90625c-0.10587 1.8811-1.6238 3.375-3.5625 3.375-2.0096 0-3.625-1.5974-3.625-3.5625a0.99697 0.99697 0 0 0 -1 -1l-7.156 0.0001a0.99697 0.99697 0 0 0 -1 1c0 1.9733-1.5841 3.5625-3.5938 3.5625-2.0096 0-3.625-1.5974-3.625-3.5625a0.99697 0.99697 0 0 0 -1 -1h-7.156a0.99697 0.99697 0 0 0 -1 1c0 1.9651-1.6154 3.5625-3.625 3.5625s-3.5938-1.5892-3.5938-3.5625a0.99697 0.99697 0 0 0 -1 -1h-7.156a0.99697 0.99697 0 0 0 -1 1c0 1.9651-1.6154 3.5625-3.625 3.5625s-3.5938-1.5892-3.5938-3.5625a0.99697 0.99697 0 0 0 -1 -1h-7.1875a0.99697 0.99697 0 0 0 -0.094 0z"/>
  <path id="path4433" style="opacity:.3;color:#000000;fill:url(#linearGradient4435)" d="m20.344 7c0 2.5149-2.0493 4.5625-4.5938 4.5625-2.5228 0-4.559-2.0147-4.5938-4.5-3.2408 0.3878-5.796 2.9597-6.125 6.2188v3.3438c1.7938 0.012 3.3437 1.043 4.094 2.531-0.7538 1.5-2.3158 2.532-4.125 2.532v4.0312 2.0312 4.0312c1.8092 0 3.3712 1.0316 4.125 2.5312-0.7538 1.499-2.3158 2.531-4.125 2.531v4.0625 2.0312 4.0312c1.8092 0 3.3712 1.0316 4.125 2.5312-0.7538 1.5-2.3158 2.531-4.125 2.531v4.0312 2.0312 4.0625c1.8092 0 3.3712 1.0316 4.125 2.5312-0.7538 1.5-2.3158 2.532-4.125 2.532v4.031 2.031 4.031c1.8092 0 3.3712 1.0316 4.125 2.5312-0.75028 1.4882-2.3002 2.519-4.0938 2.5312v3.3438c0.329 3.2591 2.8842 5.831 6.125 6.2188 0.03477-2.4852 2.071-4.5 4.5938-4.5 2.5445 0 4.5938 2.0476 4.5938 4.5625h7.1875c0-2.5149 2.0493-4.5625 4.5938-4.5625s4.625 2.0476 4.625 4.5625h7.1562c0-2.5149 2.0493-4.5625 4.5938-4.5625s4.625 2.0476 4.625 4.5625h7.1562c0-2.5149 2.0805-4.5625 4.625-4.5625s4.5938 2.0476 4.5938 4.5625h7.1562c0-2.5149 2.0805-4.5625 4.625-4.5625 2.4572 0 4.4277 1.9171 4.5625 4.3125 2.7551-0.74501 4.8305-3.1144 5.125-6.0312v-3.3438c-1.794-0.011-3.344-1.042-4.094-2.53 0.754-1.5 2.316-2.532 4.125-2.532v-4.0312-2.0312-4.0312c-1.8092 0-3.3712-1.0316-4.125-2.5312 0.75377-1.4997 2.3158-2.5312 4.125-2.5312v-4.0625-2.0312-4.0312c-1.8092 0-3.3712-1.0316-4.125-2.5312 0.75377-1.4997 2.3158-2.5312 4.125-2.5312v-4.0312-2.0312-4.0625c-1.8092 0-3.3712-1.0316-4.125-2.5312 0.75377-1.4997 2.3158-2.5312 4.125-2.5312v-4.032-2.031-4.031c-1.8092 0-3.3712-1.0316-4.125-2.5312 0.75028-1.4882 2.3002-2.519 4.0938-2.5312v-3.3438c-0.295-2.918-2.37-5.287-5.125-6.032-0.13482 2.3954-2.1053 4.3125-4.5625 4.3125-2.5445 0-4.625-2.0476-4.625-4.5625h-7.156c0 2.5149-2.0493 4.5625-4.5938 4.5625s-4.625-2.0476-4.625-4.5625h-7.156c0 2.5149-2.0805 4.5625-4.625 4.5625s-4.5938-2.0476-4.5938-4.5625h-7.156c0 2.5149-2.0805 4.5625-4.625 4.5625s-4.5938-2.0476-4.5938-4.5625h-7.1875z"/>
  <path id="path4203-7" style="opacity:.45;color:#000000;fill:url(#linearGradient4431)" d="m12 7c-3.1577 0-5.7192 2.4087-5.9688 5.5v4c1.7518 0.0121 3.2672 1.0293 4 2.5-0.736 1.482-2.2639 2.5-4.031 2.5v4 2 4c1.7671 0 3.295 1.018 4.0312 2.5-0.736 1.482-2.2639 2.5-4.031 2.5v4 2 4c1.7671 0 3.295 1.018 4.0312 2.5-0.736 1.482-2.2639 2.5-4.031 2.5v4 2 4c1.7671 0 3.295 1.018 4.0312 2.5-0.736 1.482-2.2639 2.5-4.031 2.5v4 2 4c1.7671 0 3.295 1.018 4.0312 2.5-0.73283 1.4707-2.2482 2.4879-4 2.5v4c0.2496 3.091 2.8111 5.5 5.9688 5.5 0-2.4853 2.0147-4.5 4.5-4.5s4.5 2.0147 4.5 4.5h7c0-2.4853 2.0147-4.5 4.5-4.5s4.5 2.0147 4.5 4.5h7c0-2.4853 2.0147-4.5 4.5-4.5s4.5 2.0147 4.5 4.5h7c0-2.4853 2.0147-4.5 4.5-4.5s4.5 2.0147 4.5 4.5h7c0-2.4853 2.0147-4.5 4.5-4.5 2.4535 0 4.4494 1.9649 4.5 4.4062 2.6885-0.44512 4.746-2.647 4.9688-5.4062v-4c-1.7518-0.0121-3.2672-1.0293-4-2.5 0.736-1.482 2.264-2.5 4.031-2.5v-4-2-4c-1.767 0-3.295-1.018-4.031-2.5 0.736-1.482 2.264-2.5 4.031-2.5v-4-2-4c-1.767 0-3.295-1.018-4.031-2.5 0.736-1.482 2.264-2.5 4.031-2.5v-4-2-4c-1.767 0-3.295-1.018-4.031-2.5 0.736-1.482 2.264-2.5 4.031-2.5v-4-2-4c-1.7671 0-3.295-1.018-4.0312-2.5 0.73283-1.4707 2.2482-2.4879 4-2.5v-4c-0.223-2.7593-2.28-4.9611-4.969-5.4062-0.051 2.4413-2.047 4.4062-4.5 4.4062-2.485 0-4.5-2.0147-4.5-4.5h-7c0 2.4853-2.0147 4.5-4.5 4.5-2.485 0-4.5-2.0147-4.5-4.5h-7c0 2.4853-2.0147 4.5-4.5 4.5-2.485 0-4.5-2.0147-4.5-4.5h-7c0 2.4853-2.0147 4.5-4.5 4.5-2.485 0-4.5-2.0147-4.5-4.5h-7c0 2.4853-2.0147 4.5-4.5 4.5-2.485 0-4.5-2.0147-4.5-4.5z"/>
 </g>
 <g id="layer1">
  <path id="path4203" style="color:#000000;fill:url(#linearGradient4264)" d="m12 10c-1.5462 0-2.9411 0.57886-4 1.5312v-0.031h-1.9688v4c2.4707 0.017 4.4688 2.025 4.4688 4.5 0 2.4853-2.0147 4.5-4.5 4.5v6c2.4853 0 4.5 2.0147 4.5 4.5s-2.0147 4.5-4.5 4.5v6c2.4853 0 4.5 2.0147 4.5 4.5s-2.0147 4.5-4.5 4.5v6c2.4853 0 4.5 2.0147 4.5 4.5s-2.0147 4.5-4.5 4.5v6c2.4853 0 4.5 2.0147 4.5 4.5 0 1.7647-1.0211 3.2626-2.5 4v-3.5h-1.9688v4c0.2496 3.091 2.8111 5.5 5.9688 5.5 0-2.4853 2.0147-4.5 4.5-4.5s4.5 2.0147 4.5 4.5h7c0-2.4853 2.0147-4.5 4.5-4.5s4.5 2.0147 4.5 4.5h7c0-2.4853 2.0147-4.5 4.5-4.5s4.5 2.0147 4.5 4.5h7c0-2.4853 2.0147-4.5 4.5-4.5s4.5 2.0147 4.5 4.5h7c0-2.4853 2.0147-4.5 4.5-4.5 2.4535 0 4.4494 1.9649 4.5 4.4062 2.6885-0.44512 4.746-2.647 4.9688-5.4062v-4h-1.969v3.5c-1.4789-0.73744-2.5-2.2353-2.5-4 0-2.4853 2.0147-4.5 4.5-4.5v-6c-2.4853 0-4.5-2.0147-4.5-4.5s2.0147-4.5 4.5-4.5v-6c-2.4853 0-4.5-2.0147-4.5-4.5s2.0147-4.5 4.5-4.5v-6c-2.4853 0-4.5-2.0147-4.5-4.5s2.0147-4.5 4.5-4.5v-6c-2.4853 0-4.5-2.0147-4.5-4.5 0-2.4747 1.9981-4.4829 4.4688-4.5v-4h-1.9688v0.0625c-0.826-0.742-1.847-1.277-3-1.468-0.051 2.441-2.047 4.406-4.5 4.406-2.485 0-4.5-2.015-4.5-4.5h-7c0 2.4853-2.0147 4.5-4.5 4.5-2.485 0-4.5-2.015-4.5-4.5h-7c0 2.4853-2.0147 4.5-4.5 4.5-2.485 0-4.5-2.015-4.5-4.5h-7c0 2.4853-2.0147 4.5-4.5 4.5-2.485 0-4.5-2.015-4.5-4.5h-7c0 2.4853-2.0147 4.5-4.5 4.5-2.485 0-4.5-2.015-4.5-4.5z"/>
  <path id="path4266" style="opacity:.5;color:#000000;fill:url(#linearGradient4273)" d="m12 10c-1.5462 0-2.9411 0.57886-4 1.5312v-0.0313h-1.9688v4c2.4707 0.0171 4.4688 2.0253 4.4688 4.5 0 2.4853-2.0147 4.5-4.5 4.5v6c2.4853 0 4.5 2.0147 4.5 4.5s-2.0147 4.5-4.5 4.5v6c2.4853 0 4.5 2.0147 4.5 4.5s-2.0147 4.5-4.5 4.5v6c2.4853 0 4.5 2.0147 4.5 4.5s-2.0147 4.5-4.5 4.5v6c2.4853 0 4.5 2.0147 4.5 4.5h75c0-2.4853 2.0147-4.5 4.5-4.5v-6c-2.4853 0-4.5-2.0147-4.5-4.5s2.0147-4.5 4.5-4.5v-6c-2.4853 0-4.5-2.0147-4.5-4.5s2.0147-4.5 4.5-4.5v-6c-2.4853 0-4.5-2.0147-4.5-4.5s2.0147-4.5 4.5-4.5v-6c-2.4853 0-4.5-2.0147-4.5-4.5 0-2.4747 1.9981-4.4829 4.4688-4.5v-4h-1.9688v0.0625c-0.826-0.742-1.847-1.277-3-1.468-0.051 2.441-2.047 4.406-4.5 4.406-2.485 0-4.5-2.015-4.5-4.5h-7c0 2.4853-2.0147 4.5-4.5 4.5-2.485 0-4.5-2.015-4.5-4.5h-7c0 2.4853-2.0147 4.5-4.5 4.5-2.485 0-4.5-2.015-4.5-4.5h-7c0 2.4853-2.0147 4.5-4.5 4.5-2.485 0-4.5-2.015-4.5-4.5h-7c0 2.4853-2.0147 4.5-4.5 4.5-2.485 0-4.5-2.015-4.5-4.5z"/>
  <path id="rect4145" style="color:#000000;fill:url(#linearGradient4217)" d="m12 6c-3.1577 0-5.7192 2.4087-5.9688 5.5 2.4707 0.017 4.4688 2.025 4.4688 4.5 0 2.4853-2.0147 4.5-4.5 4.5v6c2.4853 0 4.5 2.0147 4.5 4.5s-2.0147 4.5-4.5 4.5v6c2.4853 0 4.5 2.0147 4.5 4.5s-2.0147 4.5-4.5 4.5v6c2.4853 0 4.5 2.0147 4.5 4.5s-2.0147 4.5-4.5 4.5v6c2.4853 0 4.5 2.0147 4.5 4.5 0 2.4747-1.9981 4.4829-4.4688 4.5 0.2496 3.091 2.8111 5.5 5.9688 5.5 0-2.4853 2.0147-4.5 4.5-4.5s4.5 2.0147 4.5 4.5h7c0-2.4853 2.0147-4.5 4.5-4.5s4.5 2.0147 4.5 4.5h7c0-2.4853 2.0147-4.5 4.5-4.5s4.5 2.0147 4.5 4.5h7c0-2.4853 2.0147-4.5 4.5-4.5s4.5 2.0147 4.5 4.5h7c0-2.4853 2.0147-4.5 4.5-4.5 2.4535 0 4.4494 1.9649 4.5 4.4062 2.689-0.445 4.746-2.647 4.969-5.406-2.471-0.017-4.469-2.025-4.469-4.5 0-2.4853 2.0147-4.5 4.5-4.5v-6c-2.4853 0-4.5-2.0147-4.5-4.5s2.0147-4.5 4.5-4.5v-6c-2.4853 0-4.5-2.0147-4.5-4.5s2.0147-4.5 4.5-4.5v-6c-2.4853 0-4.5-2.0147-4.5-4.5s2.0147-4.5 4.5-4.5v-6c-2.4853 0-4.5-2.0147-4.5-4.5 0-2.4747 1.9981-4.4829 4.4688-4.5-0.223-2.7593-2.28-4.9611-4.969-5.4062-0.051 2.4413-2.047 4.4062-4.5 4.4062-2.485 0-4.5-2.0147-4.5-4.5h-7c0 2.4853-2.0147 4.5-4.5 4.5-2.485 0-4.5-2.0147-4.5-4.5h-7c0 2.4853-2.0147 4.5-4.5 4.5-2.485 0-4.5-2.0147-4.5-4.5h-7c0 2.4853-2.0147 4.5-4.5 4.5-2.485 0-4.5-2.0147-4.5-4.5h-7c0 2.4853-2.0147 4.5-4.5 4.5-2.485 0-4.5-2.0147-4.5-4.5z"/>
  <path id="path3888" style="fill:url(#linearGradient3075)" d="m6 100v4c0 3.324 2.676 6 6 6h72c3.324 0 6-2.676 6-6v-4c0 3.324-2.676 6-6 6h-72c-3.324 0-6-2.676-6-6z"/>
  <path id="path4251" style="opacity:.9;fill:url(#linearGradient4256)" d="m6 80v4c0 3.324 2.676 6 6 6v-4c-3.324 0-6-2.676-6-6zm84 0c0 2.9849-2.1528 5.4349-5 5.9062v4c2.847-0.471 5-2.921 5-5.906v-4zm-69 6v4h7v-4h-7zm16 0v4h7v-4h-7zm16 0v4h7v-4h-7zm16 0v4h7v-4h-7z"/>
  <path id="path4275" style="color:#000000;fill:url(#linearGradient4292)" d="m16.5 81.5c-2.485 0-4.5 2.015-4.5 4.5v4c0-2.4853 2.0147-4.5 4.5-4.5s4.5 2.0147 4.5 4.5v-4c0-2.4853-2.0147-4.5-4.5-4.5z"/>
  <path id="path4294" style="color:#000000;fill:url(#linearGradient4296)" d="m32.5 81.5c-2.485 0-4.5 2.015-4.5 4.5v4c0-2.4853 2.0147-4.5 4.5-4.5s4.5 2.0147 4.5 4.5v-4c0-2.4853-2.0147-4.5-4.5-4.5z"/>
  <path id="path4298" style="color:#000000;fill:url(#linearGradient4300)" d="m48.5 81.5c-2.485 0-4.5 2.015-4.5 4.5v4c0-2.4853 2.0147-4.5 4.5-4.5s4.5 2.0147 4.5 4.5v-4c0-2.4853-2.0147-4.5-4.5-4.5z"/>
  <path id="path4302" style="color:#000000;fill:url(#linearGradient4304)" d="m64.5 81.5c-2.485 0-4.5 2.015-4.5 4.5v4c0-2.4853 2.0147-4.5 4.5-4.5s4.5 2.0147 4.5 4.5v-4c0-2.4853-2.0147-4.5-4.5-4.5z"/>
  <path id="path4306" style="color:#000000;fill:url(#linearGradient4308)" d="m80.5 81.5c-2.485 0-4.5 2.015-4.5 4.5v4c0-2.4853 2.0147-4.5 4.5-4.5s4.5 2.0147 4.5 4.5v-4c0-2.4853-2.0147-4.5-4.5-4.5z"/>
  <path id="path4325" style="opacity:.3;color:#000000;fill:url(#radialGradient4336)" d="m6.5312 9.5625c-0.266 0.6015-0.4444 1.2485-0.5 1.9375 2.1272 0.015 3.8908 1.506 4.3438 3.5 0.074-0.323 0.125-0.654 0.125-1 0-2.304-1.7365-4.1722-3.9688-4.4375zm82.938 0c-2.233 0.2653-3.969 2.1335-3.969 4.4375 0 0.34553 0.05126 0.67682 0.125 1 0.45296-1.9936 2.2166-3.4853 4.3438-3.5-0.05569-0.68982-0.23378-1.3361-0.5-1.9375zm-83.469 14.938v2c2.1398 0 3.9184 1.4986 4.375 3.5 0.07374-0.32318 0.125-0.65447 0.125-1 0-2.4853-2.0147-4.5-4.5-4.5zm84 0c-2.4853 0-4.5 2.0147-4.5 4.5 0 0.34553 0.05126 0.67682 0.125 1 0.45663-2.0014 2.2352-3.5 4.375-3.5v-2zm-84 15v2c2.1398 0 3.9184 1.4986 4.375 3.5 0.07374-0.32318 0.125-0.65447 0.125-1 0-2.4853-2.0147-4.5-4.5-4.5zm84 0c-2.4853 0-4.5 2.0147-4.5 4.5 0 0.34553 0.05126 0.67682 0.125 1 0.45663-2.0014 2.2352-3.5 4.375-3.5v-2zm-84 15v2c2.1398 0 3.9184 1.4986 4.375 3.5 0.07374-0.32318 0.125-0.65447 0.125-1 0-2.4853-2.0147-4.5-4.5-4.5zm84 0c-2.4853 0-4.5 2.0147-4.5 4.5 0 0.34553 0.05126 0.67682 0.125 1 0.45663-2.0014 2.2352-3.5 4.375-3.5v-2zm-84 15v2c2.1398 0 3.9184 1.4986 4.375 3.5 0.07314-0.32192 0.125-0.65595 0.125-1 0-2.4853-2.0147-4.5-4.5-4.5zm84 0c-2.4853 0-4.5 2.0147-4.5 4.5 0 0.34405 0.05186 0.67808 0.125 1 0.45663-2.0014 2.2352-3.5 4.375-3.5v-2zm-73.5 10c-2.485 0-4.5 2.015-4.5 4.5-2.4543 0-4.5404-1.463-5.4688-3.562-0.1657 0.019-0.3292 0.061-0.5 0.062 0.2496 3.091 2.8111 5.5 5.9688 5.5 0-2.4853 2.0147-4.5 4.5-4.5s4.5 2.0147 4.5 4.5h7c0-2.4853 2.0147-4.5 4.5-4.5s4.5 2.0147 4.5 4.5h7c0-2.4853 2.0147-4.5 4.5-4.5s4.5 2.0147 4.5 4.5h7c0-2.4853 2.0147-4.5 4.5-4.5s4.5 2.0147 4.5 4.5h7c0-2.4853 2.0147-4.5 4.5-4.5 2.4535 0 4.4494 1.9649 4.5 4.4062 2.6885-0.44512 4.746-2.647 4.9688-5.4062-0.17077-0.0012-0.33425-0.0428-0.5-0.0625-0.799 1.804-2.453 3.134-4.469 3.468-0.051-2.441-2.047-4.406-4.5-4.406-2.485 0-4.5 2.015-4.5 4.5h-7c0-2.4853-2.0147-4.5-4.5-4.5s-4.5 2.0147-4.5 4.5h-7c0-2.4853-2.0147-4.5-4.5-4.5s-4.5 2.0147-4.5 4.5h-7c0-2.4853-2.0147-4.5-4.5-4.5s-4.5 2.0147-4.5 4.5h-7c0-2.4853-2.0147-4.5-4.5-4.5z"/>
  <path id="path4310" style="color:#000000;fill:url(#linearGradient4323)" d="m12 6c-3.1577 0-5.7192 2.4087-5.9688 5.5 2.4707 0.017 4.4688 2.025 4.4688 4.5 0 2.4853-2.0147 4.5-4.5 4.5v6c2.4853 0 4.5 2.0147 4.5 4.5s-2.0147 4.5-4.5 4.5v6c2.4853 0 4.5 2.0147 4.5 4.5s-2.0147 4.5-4.5 4.5v6c2.4853 0 4.5 2.0147 4.5 4.5s-2.0147 4.5-4.5 4.5v6c2.4853 0 4.5 2.0147 4.5 4.5 0 2.4747-1.9981 4.4829-4.4688 4.5 0.2496 3.091 2.8111 5.5 5.9688 5.5 0-2.4853 2.0147-4.5 4.5-4.5s4.5 2.0147 4.5 4.5h7c0-2.4853 2.0147-4.5 4.5-4.5s4.5 2.0147 4.5 4.5h7c0-2.4853 2.0147-4.5 4.5-4.5s4.5 2.0147 4.5 4.5h7c0-2.4853 2.0147-4.5 4.5-4.5s4.5 2.0147 4.5 4.5h7c0-2.4853 2.0147-4.5 4.5-4.5 2.4535 0 4.4494 1.9649 4.5 4.4062 2.689-0.445 4.746-2.647 4.969-5.406-2.471-0.017-4.469-2.025-4.469-4.5 0-2.4853 2.0147-4.5 4.5-4.5v-6c-2.4853 0-4.5-2.0147-4.5-4.5s2.0147-4.5 4.5-4.5v-6c-2.4853 0-4.5-2.0147-4.5-4.5s2.0147-4.5 4.5-4.5v-6c-2.4853 0-4.5-2.0147-4.5-4.5s2.0147-4.5 4.5-4.5v-6c-2.4853 0-4.5-2.0147-4.5-4.5 0-2.4747 1.9981-4.4829 4.4688-4.5-0.223-2.7593-2.28-4.9611-4.969-5.4062-0.051 2.4413-2.047 4.4062-4.5 4.4062-2.485 0-4.5-2.0147-4.5-4.5h-7c0 2.4853-2.0147 4.5-4.5 4.5-2.485 0-4.5-2.0147-4.5-4.5h-7c0 2.4853-2.0147 4.5-4.5 4.5-2.485 0-4.5-2.0147-4.5-4.5h-7c0 2.4853-2.0147 4.5-4.5 4.5-2.485 0-4.5-2.0147-4.5-4.5h-7c0 2.4853-2.0147 4.5-4.5 4.5-2.485 0-4.5-2.0147-4.5-4.5zm9.7812 1h5.4375c0.49056 2.5272 2.6159 4.5 5.2812 4.5 2.6654 0 4.7907-1.9728 5.2812-4.5h5.4375c0.49056 2.5272 2.6159 4.5 5.2812 4.5 2.6654 0 4.7907-1.9728 5.2812-4.5h5.4375c0.49056 2.5272 2.6159 4.5 5.2812 4.5 2.6654 0 4.7907-1.9728 5.2812-4.5h5.4375c0.49056 2.5272 2.6159 4.5 5.2812 4.5 2.5381 0 4.5954-1.7757 5.2188-4.125 1.519 0.55686 2.6223 1.7864 3.0312 3.375-2.4044 0.58424-4.25 2.6724-4.25 5.25 0 2.6654 1.9728 4.7907 4.5 5.2812v4.4375c-2.526 0.491-4.499 2.617-4.499 5.282 0 2.6654 1.9728 4.7907 4.5 5.2812v4.4375c-2.527 0.491-4.5 2.617-4.5 5.282 0 2.6654 1.9728 4.7907 4.5 5.2812v4.4375c-2.527 0.491-4.5 2.617-4.5 5.282 0 2.6654 1.9728 4.7907 4.5 5.2812v4.4375c-2.527 0.491-4.5 2.617-4.5 5.282 0 2.5776 1.8456 4.6658 4.25 5.25-0.40893 1.5886-1.5122 2.8181-3.0312 3.375-0.624-2.349-2.681-4.125-5.219-4.125-2.6654 0-4.7907 1.9728-5.2812 4.5h-5.4375c-0.491-2.527-2.617-4.5-5.282-4.5-2.6654 0-4.7907 1.9728-5.2812 4.5h-5.4375c-0.491-2.527-2.617-4.5-5.282-4.5-2.6654 0-4.7907 1.9728-5.2812 4.5h-5.4375c-0.491-2.527-2.617-4.5-5.282-4.5-2.6654 0-4.7907 1.9728-5.2812 4.5h-5.4375c-0.491-2.527-2.617-4.5-5.282-4.5-2.6205 0-4.7103 1.9107-5.25 4.375-1.9852-0.301-3.5025-1.718-4-3.625 2.4044-0.584 4.25-2.672 4.25-5.25 0-2.665-1.9728-4.791-4.5-5.281v-4.4375c2.5272-0.491 4.5-2.617 4.5-5.282s-1.9728-4.791-4.5-5.281v-4.4375c2.5272-0.491 4.5-2.617 4.5-5.282s-1.9728-4.791-4.5-5.281v-4.4375c2.5272-0.491 4.5-2.617 4.5-5.282s-1.9728-4.791-4.5-5.281v-4.4375c2.5272-0.491 4.5-2.617 4.5-5.282 0-2.5776-1.8456-4.6658-4.25-5.25 0.49753-1.907 2.0148-3.3237 4-3.625 0.53969 2.4643 2.6295 4.375 5.25 4.375 2.6654 0 4.7907-1.9728 5.2812-4.5z"/>
 </g>
 <g id="layer3">
  <rect id="rect4180" style="opacity:.3;fill:url(#linearGradient3549)" height="62" width="66" y="15" x="15"/>
  <rect id="rect2411-1" style="fill:url(#linearGradient4073)" height="60" width="64" y="16" x="16"/>
  <g id="g3963" style="opacity:.8" transform="translate(0,-14)" clip-path="url(#clipPath4146)">
   <path id="path3870" style="color:#000000;fill:url(#linearGradient3982)" d="m63.176 37.577c1.3695-0.39771 2.8078 0.36799 3.2055 1.7375 0.26277 0.90483 0.01648 1.8361-0.58162 2.4793 0.58655 0.47866 1.0897 1.0561 1.5055 1.7105 0.67528-0.47186 1.3964-0.88205 2.1926-1.19-0.06956-0.13999-0.14562-0.27731-0.19075-0.43272-0.40846-1.4065 0.40358-2.8832 1.8101-3.2917 1.0305-0.29927 2.09 0.06539 2.7465 0.82944 0.71646-1.3394 1.9296-2.4116 3.4859-2.8997-0.36546-1.2584 0.35998-2.5777 1.6184-2.9431 1.1849-0.34412 2.4063 0.29254 2.8521 1.4171 0.32427-0.23589 0.70211-0.43169 1.1094-0.54996 1.8877-0.54819 3.8665 0.53996 4.4147 2.4276 0.01796 0.06184 0.0078 0.1268 0.02228 0.18878 0.5619-0.24483 1.1335-0.45935 1.7357-0.63424 1.6025-0.46537 3.1983-0.63221 4.7794-0.57446 0.79208-1.3548 2.0873-2.4285 3.7134-2.9007 3.3682-0.97815 6.8831 0.9547 7.8612 4.3229 0.14672 0.50522 0.22646 1.0197 0.24699 1.5228 2.1491-0.3304 4.2499 0.9638 4.8726 3.1082 0.12227 0.42102 0.17183 0.83567 0.16855 1.2527 0.2622 0.12185 0.51679 0.24917 0.76579 0.39589 0.63234-0.96454 1.5939-1.732 2.8112-2.0855 2.6279-0.76317 5.3354 0.66766 6.0663 3.1845 0.73092 2.5169-0.78897 5.1754-3.4169 5.9385-0.39479 0.11465-0.79196 0.1614-1.184 0.18113 0.12908 3.8894-2.3625 7.5197-6.2725 8.6552-1.2289 0.3569-2.4795 0.42203-3.669 0.252-1.92 2.7901-4.7482 4.9584-8.2544 5.9767-4.7374 1.3758-9.6028 0.33061-13.287-2.3892-0.58501 0.61766-1.3331 1.103-2.2091 1.3574-2.331 0.67695-4.7547-0.41753-5.8058-2.5117-0.02951 0.0088-0.06039 0.01754-0.09003 0.02614-3.47 1.0077-7.0196 0.12201-9.6027-2.0274-0.85466 1.6019-2.3363 2.8588-4.2177 3.4051-3.3969 0.98648-6.954-0.7078-8.3443-3.8572-0.39834 0.22718-0.80841 0.43002-1.2682 0.56353-3.1461 0.91365-6.4442-0.89994-7.3578-4.046-0.91365-3.1461 0.89994-6.4442 4.046-7.3578 0.32887-0.09551 0.65822-0.15163 0.98647-0.18886 0.33617-0.60813 0.87158-1.0666 1.5527-1.2644 0.70433-0.20454 1.4424-0.08217 2.0659 0.27864-0.12887-3.2244 1.9287-6.2548 5.1671-7.1953 0.70473-0.20466 1.4091-0.26407 2.1065-0.25381-0.06387-1.1722 0.66728-2.2764 1.843-2.6179z"/>
   <path id="path3739" style="color:#000000;fill:url(#linearGradient3980)" d="m20.5 50.312c-0.95045 0-1.8285 0.30559-2.5312 0.8125-0.58004-0.08942-1.1762-0.15625-1.7812-0.15625-2.6437 0-5.0504 0.91554-7 2.4062-0.2257-0.035-0.4522-0.062-0.688-0.062-2.3125 0-4.1875 1.7719-4.1875 3.9688 0 0.82384 0.26727 1.5839 0.71875 2.2188-0.268 0.97769-0.40625 1.9997-0.40625 3.0625 0 1.0735 0.13301 2.1073 0.40625 3.0938-0.6199-0.279-1.3073-0.437-2.0312-0.437-2.7365 0-4.9375 2.201-4.9375 4.9375s2.201 4.9688 4.9375 4.9688c0.36612 0 0.719-0.04965 1.0625-0.125-0.000643 0.04129 0 0.08355 0 0.125 0 4.3167 3.4958 7.8125 7.8125 7.8125 2.786 0 5.2097-1.4621 6.5938-3.6562 2.0411 1.841 4.7536 2.9688 7.7188 2.9688 4.015 0 7.533-2.072 9.5938-5.1875 1.2942 0.97115 2.8824 1.5625 4.625 1.5625 2.725 0 5.1192-1.4353 6.5-3.5625 0.69317 0.55616 1.5421 0.90625 2.5 0.90625 1.3093 0 2.4789-0.6295 3.2188-1.5938 0.32267 0.20323 0.71549 0.34375 1.125 0.34375 1.1563 0 2.0938-0.93749 2.0938-2.0938s-0.93749-2.0938-2.0938-2.0938c-0.18067 0-0.36401 0.01947-0.53125 0.0625-0.509-1.456-1.821-2.527-3.408-2.688-0.086-1.348-1.192-2.406-2.562-2.406-0.3812 0-0.73681 0.07047-1.0625 0.21875-1.4183-1.5835-3.4881-2.5938-5.7812-2.5938-1.0245 0-1.9799 0.20126-2.875 0.5625-0.22426-2.3734-2.2241-4.25-4.6562-4.25-0.28018 0-0.54588 0.04651-0.8125 0.09375 0.03207-0.21766 0.0625-0.42967 0.0625-0.65625 0-2.5052-2.0573-4.5312-4.5625-4.5312-0.93946 0-1.8073 0.2609-2.5312 0.75-0.12466-0.14758-0.24323-0.29637-0.375-0.4375 0.01212-0.12327 0.03125-0.24872 0.03125-0.375 0-2.1969-1.875-3.9688-4.1875-3.9688z"/>
   <path id="path3772" style="color:#000000;fill:url(#linearGradient3929)" d="m94.09 34.889c-1.7951 0-3.2871 1.3348-3.5312 3.0625-0.99024 0.39781-1.8962 0.90849-2.7188 1.5625-0.48316-0.50848-1.1494-0.84375-1.9062-0.84375-1.4646 0-2.6562 1.1917-2.6562 2.6562 0 0.01073-0.00013 0.02055 0 0.03125-1.0357 0.06809-2.0271 0.26679-2.9688 0.59375-0.55027-0.63705-1.3734-1.0312-2.2813-1.0312-1.6368 0-2.9673 1.3085-3 2.9375-0.04347-0.0022-0.08097-0.03125-0.125-0.03125-1.2037 0-2.2233 0.86986-2.4688 2-2.4536 0.16605-4.5626 1.5198-5.7812 3.5-0.4926-0.20835-1.0253-0.3125-1.5938-0.3125-2.274 0-4.125 1.851-4.125 4.125s1.851 4.0938 4.125 4.0938c0.53425 0 1.0316-0.09607 1.5-0.28125 1.2861 2.1833 3.6578 3.625 6.375 3.625 0.87777 0 1.7188-0.15691 2.5-0.4375 2.0858 2.4103 5.156 3.9375 8.5938 3.9375 3.5742 0 6.7584-1.6406 8.8438-4.2188 1.215 1.3833 2.9829 2.2812 4.9688 2.2812 1.5447 0 2.9666-0.55175 4.0938-1.4375 1.0575 0.54918 2.2573 0.875 3.5312 0.875 1.5489 0 2.9813-0.46094 4.1875-1.25 0.49805 0.25713 1.0571 0.40625 1.6562 0.40625 1.7433 0 3.213-1.236 3.5625-2.875 0.23611 1.5401 1.5501 2.7188 3.1562 2.7188 1.7729 0 3.2188-1.4146 3.2188-3.1875 0-1.6151-1.1974-2.9623-2.75-3.1875 0.0458-0.25866 0.0937-0.54069 0.0937-0.8125 0-2.5052-2.026-4.5312-4.5312-4.5312-0.84008 0-1.6378 0.25822-2.3125 0.65625-0.22398-0.31986-0.44981-0.65593-0.71875-0.9375 0.10594-0.25048 0.15625-0.52343 0.15625-0.8125 0-1.1563-0.93749-2.0938-2.0938-2.0938-0.0932 0-0.1913 0.01945-0.28125 0.03125-0.0172-1.7967-1.4805-3.25-3.2812-3.25-0.47744 0-0.93457 0.09784-1.3438 0.28125-1.4251-2.523-3.8275-4.4148-6.6875-5.1875-0.40134-1.5259-1.7544-2.6562-3.4062-2.6562z"/>
   <path id="path3671" style="opacity:.8;color:#000000;fill:url(#linearGradient3926)" d="m10.661 61.763c3.0264 0.30734 5.375 2.8925 5.375 6 0 0.50225-0.07128 0.97124-0.1875 1.4375 1.3556-0.82923 2.9508-1.3125 4.6562-1.3125 0.69713 0 1.3801 0.09893 2.0312 0.25 0.47506-1.3625 1.7568-2.3438 3.2812-2.3438 1.9271 0 3.4688 1.5729 3.4688 3.5 0 0.92305-0.35225 1.751-0.9375 2.375 0.19649-0.02238 0.39127 0 0.59375 0 2.8907 0 5.25 2.3281 5.25 5.2188s-2.3593 5.25-5.25 5.25c-0.40398 0-0.77855-0.0696-1.1562-0.15625-1.0117 1.427-2.4356 2.5193-4.0938 3.1562 0.0042 0.11543 0.03125 0.22731 0.03125 0.34375 0 5.2417-4.2583 9.4688-9.5 9.4688-1.5304 0-2.9698-0.3566-4.25-1-2.6246 1.7834-5.8064 2.8438-9.2188 2.8438-6.8387 0-12.693-4.2051-15.156-10.156-4.7852-0.5966-8.5-4.647-8.5-9.5937 0-5.3573 4.3302-9.7188 9.6875-9.7188 1.1595 0 2.2818 0.22061 3.3125 0.59375 0.85422-0.73119 1.7894-1.3932 2.7812-1.9375-0.0827-0.23333-0.15625-0.48833-0.15625-0.75 0-1.2333 1.0166-2.2188 2.25-2.2188 0.94828 0 1.7699 0.57244 2.0938 1.4062 1.0568-0.24278 2.1573-0.40621 3.2813-0.4375 0.31043-1.2856 1.4628-2.2188 2.8438-2.2188 1.1744 0 2.1886 0.6901 2.6562 1.6875 1.0788-1.0542 2.5545-1.6875 4.1875-1.6875 0.20716 0 0.42324-0.02049 0.625 0z"/>
   <path id="path3713" style="opacity:.8;color:#000000;fill:url(#linearGradient3235)" d="m7.6562 74.656c3.5005 0 6.464 2.1862 7.625 5.2812 2.9227 0.05208 5.2812 2.4399 5.2812 5.375 0 2.9677-2.4073 5.375-5.375 5.375-1.1753 0-2.2405-0.3911-3.125-1.0312-1.2736 0.82112-2.7782 1.3125-4.4062 1.3125-0.41217 0-0.82299-0.0348-1.2188-0.0937-0.4608 0.55836-1.157 0.9375-1.9375 0.9375-1.11 0-2.0426-0.72039-2.375-1.7188-0.573 0.1721-1.1834 0.28125-1.8125 0.28125-3.4688 0-6.2812-2.8125-6.2812-6.2812 0-2.9051 1.9776-5.3448 4.6562-6.0625-0.02473-0.15323-0.0625-0.30854-0.0625-0.46875 0-1.6188 1.3187-2.9062 2.9375-2.9062 0.86619 0 1.6509 0.37137 2.1875 0.96875 1.1569-0.62848 2.4971-0.96875 3.9062-0.96875z"/>
   <path id="path5536" style="opacity:.5;color:#000000;fill:url(#linearGradient5538)" d="m83.406 60.312c0.95045 0 1.8285 0.30559 2.5312 0.8125 0.58004-0.08942 1.1762-0.15625 1.7812-0.15625 2.6437 0 5.0504 0.91554 7 2.4062 0.2252-0.03559 0.45167-0.0625 0.6875-0.0625 2.3125 0 4.1875 1.7719 4.1875 3.9688 0 0.82384-0.26727 1.5839-0.71875 2.2188 0.268 0.97769 0.40625 1.9997 0.40625 3.0625 0 1.0735-0.13301 2.1073-0.40625 3.0938 0.61992-0.27902 1.3073-0.4375 2.0312-0.4375 2.7365 0 4.9375 2.201 4.9375 4.9375s-2.201 4.9688-4.9375 4.9688c-0.36612 0-0.719-0.0496-1.0625-0.125 0.00064 0.0413 0 0.0836 0 0.125 0 4.3167-3.4958 7.8125-7.8125 7.8125-2.786 0-5.2097-1.4621-6.5938-3.6562-2.0411 1.841-4.7536 2.9688-7.7188 2.9688-4.015 0-7.533-2.072-9.5938-5.1875-1.2942 0.97115-2.8824 1.5625-4.625 1.5625-2.725 0-5.1192-1.4353-6.5-3.5625-0.69317 0.55616-1.5421 0.90625-2.5 0.90625-1.3093 0-2.4789-0.6295-3.2188-1.5938-0.32267 0.20323-0.71549 0.34375-1.125 0.34375-1.1563 0-2.0938-0.93749-2.0938-2.0938s0.93749-2.0938 2.0938-2.0938c0.18067 0 0.36401 0.0195 0.53125 0.0625 0.50733-1.456 1.8198-2.5264 3.4062-2.6875 0.08623-1.3481 1.1927-2.4062 2.5625-2.4062 0.3812 0 0.73681 0.07047 1.0625 0.21875 1.419-1.584 3.489-2.594 5.782-2.594 1.0245 0 1.9799 0.20126 2.875 0.5625 0.22426-2.3734 2.2241-4.25 4.6562-4.25 0.28018 0 0.54588 0.04651 0.8125 0.09375-0.03207-0.21766-0.0625-0.42967-0.0625-0.65625 0-2.5052 2.0573-4.5312 4.5625-4.5312 0.93946 0 1.8073 0.2609 2.5312 0.75 0.12466-0.14758 0.24323-0.29637 0.375-0.4375-0.01212-0.12327-0.03125-0.24872-0.03125-0.375 0-2.1969 1.875-3.9688 4.1875-3.9688z"/>
   <path id="path5540" style="opacity:.8;color:#000000;fill:url(#linearGradient5542)" d="m104.09 56.889c-1.7951 0-3.2871 1.3348-3.5312 3.0625-0.99024 0.39781-1.8962 0.90849-2.7188 1.5625-0.48316-0.50848-1.1494-0.84375-1.9062-0.84375-1.4646 0-2.6562 1.1916-2.6562 2.6562 0 0.01073-0.00013 0.02055 0 0.03125-1.0357 0.06809-2.0271 0.26679-2.9688 0.59375-0.55027-0.63705-1.3734-1.0312-2.2813-1.0312-1.6368 0-2.9673 1.3085-3 2.9375-0.04347-0.0022-0.08097-0.03125-0.125-0.03125-1.2037 0-2.2233 0.86986-2.4688 2-2.4536 0.16605-4.5626 1.5198-5.7812 3.5-0.4926-0.20835-1.0253-0.3125-1.5938-0.3125-2.274 0-4.125 1.851-4.125 4.125s1.851 4.0938 4.125 4.0938c0.53425 0 1.0316-0.09607 1.5-0.28125 1.2861 2.1833 3.6578 3.625 6.375 3.625 0.87777 0 1.7188-0.15691 2.5-0.4375 2.0858 2.4103 5.156 3.9375 8.5938 3.9375 3.5742 0 6.7584-1.6406 8.8438-4.2188 1.215 1.3833 2.9829 2.2812 4.9688 2.2812 1.5447 0 2.9666-0.55175 4.0938-1.4375 1.0575 0.54918 2.2573 0.875 3.5312 0.875 1.5489 0 2.9813-0.46094 4.1875-1.25 0.49805 0.25713 1.0571 0.40625 1.6562 0.40625 1.7433 0 3.213-1.236 3.5625-2.875 0.23611 1.5401 1.5501 2.7188 3.1562 2.7188 1.7729 0 3.2188-1.4146 3.2188-3.1875 0-1.6151-1.1974-2.9623-2.75-3.1875 0.0458-0.25866 0.0937-0.54069 0.0937-0.8125 0-2.5052-2.026-4.5312-4.5312-4.5312-0.84008 0-1.6378 0.25822-2.3125 0.65625-0.22398-0.31986-0.44981-0.65593-0.71875-0.9375 0.10594-0.25048 0.15625-0.52343 0.15625-0.8125 0-1.1563-0.93749-2.0938-2.0938-2.0938-0.0932 0-0.1913 0.01945-0.28125 0.03125-0.0172-1.7967-1.4805-3.25-3.2812-3.25-0.47744 0-0.93457 0.09784-1.3438 0.28125-1.4251-2.523-3.8275-4.4148-6.6875-5.1875-0.40134-1.5259-1.7544-2.6562-3.4062-2.6562z"/>
  </g>
  <path id="rect4171" style="opacity:.15;fill:#3365a8" d="m16 16v60h64v-60zm2 2h60v56h-60z"/>
  <path id="rect4183-4" style="opacity:.3;fill:#3365a8" d="m16.438 16c-0.03654 0.0073-0.06024 0.01707-0.09375 0.03125-0.07367 0.02998-0.13462 0.06872-0.1875 0.125-0.09518 0.1013-0.15946 0.22767-0.15625 0.375v58.906 0.03125c0.0019 0.05425 0.01433 0.10669 0.03125 0.15625 0.01558 0.04455 0.03654 0.08657 0.0625 0.125 0.01089 0.01749 0.01848 0.04637 0.03125 0.0625 0.0088 0.01017 0.02176 0.02176 0.03125 0.03125 0.05288 0.05628 0.11383 0.09502 0.1875 0.125 0.02947 0.01199 0.06172 0.02443 0.09375 0.03125 0.03461 0.0069 0.05711-0.000004 0.09375 0h16.062 3.8125 1.6562 27.969 13.438c0.0753-0.000007 0.12225-0.0036 0.1875-0.03125 0.19576-0.08281 0.34373-0.27407 0.34375-0.5 0.00059-0.0104 0-0.02071 0-0.03125v-58.906c-0.00001-0.07531-0.004-0.12225-0.0312-0.1875-0.082-0.194-0.273-0.342-0.499-0.342h-13.438-27.969-1.6562-3.8125-16.062c-0.03777-0.004-0.05597-0.004-0.09375 0zm0.65625 1.0938h14.688 4.1562 1.125 30.75 11.094v57.812h-11.094-30.75-1.125-4.1562-14.688z"/>
 </g>
 <g id="layer4" style="display:none">
  <g id="g4297" style="opacity:.4;display:inline" transform="matrix(.69994 0 0 .69994 4.232 -.093105)" clip-path="url(#clipPath4175)">
   <path id="path4086" style="display:inline" d="m78.328 146.13c24.652-4.62 40.942-28.38 36.322-53.035-4.61-24.652-28.403-40.907-53.054-36.289s-40.912 28.375-36.294 53.024c4.6178 24.651 28.376 40.912 53.027 36.295zm-0.27619-1.4744c-23.853 4.46-46.808-11.25-51.276-35.1-4.468-23.857 11.243-46.812 35.096-51.28 23.853-4.4684 46.839 11.237 51.307 35.091 4.4684 23.853-11.274 46.814-35.127 51.282z"/>
   <path id="path4088" style="display:inline" d="m76.058 133.99c17.941-3.36 29.792-20.68 26.432-38.616-3.36-17.941-20.673-29.772-38.614-26.411s-29.776 20.651-26.415 38.597c3.3608 17.941 20.656 29.798 38.597 26.437zm-0.27884-1.4886c-17.143 3.2114-33.64-8.0801-36.852-25.223-3.2114-17.143 8.0801-33.64 25.223-36.852 17.143-3.2114 33.663 8.0759 36.874 25.219 3.2114 17.143-8.1023 33.644-25.246 36.856z"/>
   <path id="path4090" style="display:inline;fill:none" d="m80.565 102.03a44.7 44.7 0 1 1 -89.399 0 44.7 44.7 0 1 1 89.399 0z" transform="matrix(-.77311 .14482 -.14482 -.77311 112.48 175.15)"/>
   <path id="text4092" style="display:inline" d="m30.263 108.52-0.55415-4.6704 0.9877-0.1172 0.19935 1.6801 4.0798-0.48408 0.15505 1.3068-4.0798 0.48408 0.19975 1.6835-0.9877 0.11719m2.2617-9.7969 2.3306 0.04837-0.02553 1.2302-0.37931-0.0079-1.3976-0.02901c-0.33489-0.0069-0.56514-0.0038-0.69078 0.0096-0.12558 0.01107-0.21836 0.03421-0.27836 0.06943-0.08073 0.0462-0.14358 0.10984-0.18857 0.19095-0.04726 0.0811-0.07198 0.17401-0.07416 0.2788-0.0053 0.25515 0.08965 0.45769 0.28482 0.6076 0.1929 0.14987 0.46362 0.22842 0.81218 0.23566l1.8829 0.0391-0.02539 1.2234-5.3172-0.11037 0.02539-1.2234 2.0503 0.0426c-0.21943-0.18916-0.37939-0.38849-0.47988-0.59798-0.10277-0.20953-0.15155-0.43959-0.14635-0.69019 0.0092-0.44197 0.15168-0.77404 0.4275-0.99623 0.27588-0.22446 0.67239-0.33133 1.1895-0.3206m0.96155-1.2962-2.3066-0.3811 0.20058-1.214 0.37769 0.0624c0.20459 0.0338 0.46182 0.07746 0.77169 0.13096 0.30763 0.05314 0.51315 0.08825 0.61656 0.10533 0.3035 0.05015 0.524 0.0785 0.66149 0.08504 0.13524 0.0062 0.23637-0.0048 0.30339-0.03302 0.08686-0.03646 0.15814-0.0905 0.21386-0.16213 0.05609-0.07388 0.09267-0.16252 0.10976-0.26594 0.0416-0.25179-0.02238-0.4656-0.19195-0.64143-0.16957-0.17582-0.42634-0.29215-0.77031-0.34899l-1.8649-0.30812 0.19947-1.2073 3.7769 0.62403-0.19947 1.2073-0.5463-0.09026c0.19023 0.21851 0.32128 0.43878 0.39314 0.66082 0.06998 0.21942 0.08473 0.45166 0.04425 0.69671-0.07206 0.43615-0.2608 0.74677-0.56622 0.93188-0.30505 0.18286-0.71274 0.23214-1.2231 0.14782m1.3127-9.0821 2.2225 0.70309-0.37113 1.1732-0.36173-0.11443-1.3394-0.42371c-0.31502-0.09965-0.53467-0.16078-0.65897-0.18337-0.12361-0.02476-0.21916-0.0287-0.28664-0.01181-0.09047 0.02157-0.16872 0.06493-0.23474 0.13008-0.06819 0.06447-0.11809 0.14667-0.14971 0.2466-0.07697 0.24333-0.04295 0.4644 0.10207 0.66324 0.14285 0.19815 0.38048 0.3498 0.71287 0.45495l1.7956 0.56804-0.36907 1.1666-3.6498-1.1546 0.36907-1.1666 0.53444 0.16907c-0.15723-0.24333-0.25455-0.47965-0.29194-0.70897-0.03956-0.23-0.02155-0.46449 0.05405-0.70347 0.13334-0.42146 0.36363-0.69993 0.69089-0.8354 0.32795-0.13763 0.7385-0.12845 1.2317 0.02756m0.8323-4.1264-1.8479-0.88934 0.53361-1.1087 4.7922 2.3064-0.5336 1.1087-0.49894-0.24012c0.13015 0.24977 0.19847 0.48875 0.20497 0.71694 0.0065 0.2282-0.04805 0.46241-0.16367 0.70263-0.20455 0.42502-0.5409 0.69304-1.0091 0.80406-0.47021 0.11003-0.97121 0.03708-1.503-0.21885-0.53178-0.25593-0.90033-0.60147-1.1056-1.0366-0.20736-0.43612-0.20876-0.8667-0.0042-1.2917 0.11463-0.23817 0.26417-0.42541 0.44861-0.5617 0.18338-0.13933 0.41225-0.23655 0.68659-0.29165m1.8831 1.8015c0.11364-0.23612 0.11387-0.45728 0.000685-0.66348-0.11219-0.20825-0.33255-0.39143-0.66107-0.54954-0.32852-0.1581-0.60915-0.21603-0.8419-0.1738-0.23176 0.04019-0.40446 0.17835-0.5181 0.41447-0.11265 0.23407-0.11288 0.45523-0.000683 0.66348 0.11318 0.2062 0.33403 0.38835 0.66255 0.54646s0.60866 0.21707 0.84042 0.17688c0.23275-0.04224 0.40545-0.1804 0.5181-0.41447m2.7028-6.7683 0.29036 0.19297-1.5835 2.3826c0.25552 0.13425 0.49224 0.16708 0.71018 0.09851s0.41519-0.23569 0.59176-0.50138c0.14252-0.21444 0.25688-0.45445 0.34308-0.72001 0.08556-0.26871 0.14264-0.56456 0.17125-0.88755l0.78568 0.52215c-0.06908 0.30156-0.16094 0.58798-0.27557 0.85926-0.11273 0.27255-0.24919 0.52933-0.40936 0.77035-0.38342 0.57692-0.82782 0.92863-1.3332 1.0551-0.50604 0.12334-1.0238 0.0091-1.5533-0.34282-0.51999-0.34558-0.8249-0.77394-0.91475-1.2851-0.08858-0.51304 0.05-1.0447 0.41576-1.5951 0.33297-0.501 0.74996-0.80117 1.251-0.90048 0.50228-0.1012 1.0058 0.01593 1.5106 0.35142m-1.035 0.82244c-0.19357-0.12864-0.38703-0.17513-0.58036-0.13946-0.19397 0.03252-0.3515 0.13986-0.47258 0.32204-0.13117 0.19737-0.18176 0.39494-0.15177 0.5927 0.02809 0.19651 0.13642 0.37931 0.325 0.54841l0.87971-1.3237m2.945-4.44c-0.10746 0.04936-0.20448 0.10755-0.29106 0.17456-0.08685 0.06381-0.16488 0.13659-0.23407 0.21833-0.20316 0.24002-0.28256 0.49075-0.23818 0.75222 0.04411 0.25826 0.20965 0.50884 0.49662 0.75175l1.3461 1.1395-0.79057 0.93396-2.9219-2.4733 0.79057-0.93396 0.48002 0.40633c-0.08973-0.28194-0.11256-0.53712-0.0685-0.76552 0.0438-0.23161 0.15771-0.45611 0.34174-0.67352 0.0265-0.0313 0.05695-0.06374 0.09134-0.09733 0.03266-0.03505 0.08278-0.08368 0.15036-0.14589l0.84746 0.71288m3.5-0.62187c0.19205-0.17828 0.27306-0.38406 0.24305-0.61736-0.02835-0.23484-0.16655-0.48587-0.41459-0.75307s-0.48811-0.42366-0.7202-0.46938c-0.23042-0.04726-0.44166 0.01825-0.63371 0.19652-0.19205 0.17828-0.27396 0.38646-0.24573 0.62452 0.02835 0.23485 0.16577 0.48504 0.41226 0.75057s0.48656 0.42199 0.7202 0.46938c0.23376 0.04417 0.44667-0.02289 0.63872-0.20117m-2.2821-1.2627c-0.02834-0.27838-0.003-0.52574 0.07597-0.74208 0.07744-0.21801 0.21386-0.4177 0.40924-0.59909 0.34569-0.3209 0.75749-0.44666 1.2354-0.3773 0.47635 0.0677 0.91529 0.31782 1.3168 0.75035 0.40151 0.43254 0.61911 0.88967 0.6528 1.3714 0.03213 0.48007-0.12465 0.88055-0.47034 1.2015-0.19539 0.18138-0.4039 0.30342-0.62551 0.36612-0.22316 0.06103-0.4725 0.06708-0.748 0.01814l0.37671 0.40581-0.8968 0.83249-3.6183-3.8978 0.8968-0.83249 1.3952 1.503m2.7961-3.1528 0.9796-0.73325 2.294 3.0647-0.9796 0.73325-2.294-3.0647m-0.89301-1.193 0.9796-0.73325 0.59807 0.799-0.9796 0.73325-0.59807-0.799m6.0649-1.0323c-0.11739 0.01426-0.22752 0.04012-0.33042 0.07756-0.10217 0.03431-0.19866 0.07985-0.28947 0.13661-0.26664 0.16669-0.41867 0.3813-0.45609 0.64385-0.03669 0.25942 0.04461 0.54853 0.2439 0.86734l0.93487 1.4955-1.0376 0.64861-2.0292-3.2461 1.0376-0.64861 0.33336 0.53328c0.000458-0.29588 0.05647-0.54587 0.16805-0.74998 0.1123-0.20724 0.28921-0.38636 0.53073-0.53734 0.03478-0.02174 0.07366-0.04336 0.11666-0.06486 0.04178-0.02343 0.10434-0.05447 0.18767-0.09313l0.58991 0.93723m2.9904-2.0084-0.86832-1.8579 1.1147-0.52099 2.2518 4.8181-1.1147 0.52099-0.23445-0.50163c-0.05725 0.27576-0.15554 0.50406-0.29488 0.68488-0.13934 0.18083-0.32978 0.32768-0.5713 0.44056-0.42731 0.19971-0.85736 0.19446-1.2901-0.01577-0.43375-0.21229-0.77556-0.58577-1.0254-1.1204-0.24988-0.53466-0.31666-1.0354-0.20034-1.5023 0.11536-0.46893 0.3867-0.80325 0.81401-1.003 0.23946-0.11191 0.47372-0.16229 0.7028-0.15114 0.23017 0.0081 0.46891 0.07765 0.71622 0.20855m0.31845 2.5865c0.23739-0.11095 0.3775-0.28207 0.42032-0.51336 0.04488-0.23225-0.0099-0.51353-0.16423-0.84382-0.15437-0.33029-0.33504-0.55271-0.542-0.66726-0.2049-0.11551-0.42605-0.11779-0.66345-0.0068-0.23533 0.10999-0.37544 0.28111-0.42032 0.51336-0.04282 0.23129 0.01296 0.51208 0.16733 0.84237s0.334 0.55319 0.5389 0.66871c0.20696 0.11455 0.42811 0.11683 0.66345 0.0068m4.6446-6.4022 1.6422-0.32908 1.6761 2.4494 0.60956-2.9074 1.6388-0.3284 1.0027 5.0036-1.2199 0.24446-0.73337-3.6597-0.61224 2.9289-0.81773 0.16387-1.6935-2.4668 0.73337 3.6597-1.2232 0.24513-1.0027-5.0036m9.4797 2.0518c-0.25508 0.0083-0.44612 0.0578-0.57312 0.14856-0.12473 0.09068-0.18436 0.22029-0.17888 0.38882 0.005 0.15487 0.06022 0.27505 0.16559 0.36054 0.10757 0.08314 0.25359 0.12172 0.43807 0.11573 0.23002-0.0075 0.42094-0.09574 0.57276-0.26482 0.15174-0.17135 0.22359-0.38115 0.21553-0.6294l-0.0045-0.14006-0.63541 0.02063m1.8537-0.52185 0.07086 2.1829-1.2332 0.04003-0.01841-0.56708c-0.15644 0.23762-0.3354 0.41328-0.5369 0.52698-0.20157 0.11142-0.44925 0.17189-0.74304 0.18143-0.39628 0.01286-0.72227-0.09168-0.97798-0.31365-0.25351-0.22432-0.38625-0.52094-0.39822-0.88989-0.01456-0.44866 0.12848-0.78274 0.42913-1.0022 0.30293-0.21958 0.78462-0.34009 1.4451-0.36153l0.72081-0.0234-0.0031-0.09565c-0.0063-0.19358-0.08716-0.3323-0.24264-0.41618-0.15555-0.08614-0.39502-0.12396-0.71842-0.11347-0.26191 0.0085-0.50474 0.04261-0.72851 0.1023-0.22377 0.0597-0.43074 0.14508-0.62092 0.25612l-0.03028-0.93261c0.25984-0.07227 0.52133-0.12863 0.78448-0.1691 0.26307-0.04273 0.5267-0.06839 0.79089-0.07697 0.69006-0.0224 1.1921 0.09809 1.5062 0.36148 0.31625 0.26104 0.48432 0.69787 0.50421 1.3105m1.4824-1.5541 1.2207 0.08508-0.26618 3.8189-1.2207-0.08508 0.26618-3.8189m0.10362-1.4866 1.2207 0.08508-0.0694 0.99563-1.2207-0.08508 0.0694-0.99563m2.7621 0.24586 1.2119 0.16904-0.73469 5.2674-1.2119-0.16904 0.73469-5.2674m8.0152 7.1423c-0.26853 0.04405-0.53724 0.05567-0.80613 0.03487-0.2689-0.0208-0.5387-0.07546-0.80943-0.16399-0.80785-0.26416-1.3742-0.69868-1.699-1.3036-0.32413-0.60704-0.35977-1.2972-0.10694-2.0703 0.25354-0.77535 0.69003-1.3111 1.3095-1.6072 0.62016-0.29826 1.3341-0.31531 2.142-0.05115 0.27072 0.08853 0.5207 0.20384 0.74994 0.34592 0.22922 0.14209 0.43916 0.31023 0.62979 0.50441l-0.331 1.004c-0.18-0.234-0.37-0.424-0.572-0.571-0.201-0.148-0.426-0.262-0.675-0.344-0.44615-0.14589-0.84375-0.11768-1.1928 0.08464s-0.60573 0.55471-0.77002 1.0572c-0.1636 0.5003-0.16436 0.93517-0.0023 1.3046 0.16208 0.36945 0.46619 0.62713 0.91236 0.77302 0.24906 0.08144 0.49826 0.12217 0.74758 0.12219 0.24932 0.000017 0.5157-0.04114 0.79914-0.12346l-0.32826 1.0038m3.0392-4.1309 1.1156 0.50264-2.1846 4.8489-1.1156-0.50264 2.1846-4.8489m1.7988 2.4987 1.0788 0.57742-1.8065 3.3751-1.0788-0.57742 1.8065-3.3751m0.70323-1.3139 1.0788 0.57742-0.47097 0.87993-1.0788-0.57742 0.47097-0.87993m3.858 6.364-0.195 0.289-2.373-1.597c-0.13575 0.25472-0.16998 0.49124-0.1027 0.70958s0.23324 0.41657 0.49788 0.59471c0.2136 0.14378 0.45293 0.25955 0.71797 0.34732 0.2682 0.08714 0.56372 0.14597 0.88653 0.17648l-0.52678 0.78258c-0.30114-0.07086-0.58702-0.16441-0.85762-0.28063-0.27188-0.11434-0.52786-0.2523-0.76792-0.4139-0.57465-0.38681-0.92374-0.83329-1.0472-1.3394-0.12034-0.50676-0.003-1.0238 0.35198-1.5512 0.34863-0.51794 0.77878-0.82033 1.2905-0.90716 0.51355-0.08556 1.0444 0.05617 1.5926 0.42516 0.49903 0.33591 0.79673 0.75467 0.89309 1.2563 0.09824 0.50287-0.02186 1.0057-0.36032 1.5085m-0.81632-1.0398c0.12978-0.19281 0.17741-0.38599 0.14288-0.57953-0.03137-0.19416-0.13779-0.35231-0.31925-0.47446-0.1966-0.13233-0.39387-0.18408-0.5918-0.15526-0.19667 0.02693-0.38011 0.13419-0.55032 0.32176l1.3185 0.8875m4.8915 4.0427-1.5545 1.737-0.91689-0.82058 0.25301-0.28271 0.93683-1.0468c0.22034-0.2462 0.36636-0.42132 0.43806-0.52534 0.07339-0.1025 0.11626-0.18799 0.1286-0.25645 0.01752-0.09134 0.01016-0.18049-0.02209-0.26746-0.03074-0.08867-0.08516-0.16795-0.16326-0.23785-0.19017-0.17019-0.40569-0.23006-0.64657-0.17959-0.23936 0.04877-0.47528 0.20305-0.70778 0.46283l-1.256 1.4034-0.91181-0.81603 2.5529-2.8526 0.9118 0.81603-0.37382 0.4177c0.28645-0.04331 0.54189-0.03487 0.7663 0.0253 0.22593 0.05848 0.43228 0.1713 0.61906 0.33846 0.32939 0.2948 0.48858 0.61922 0.47755 0.97323-0.0093 0.35554-0.18649 0.72602-0.53144 1.1115m3.7868 0.3371-0.81537 0.71873 0.83401 0.94612-0.6564 0.5786-0.83399-0.94612-1.2179 1.0736c-0.13333 0.11753-0.20057 0.22388-0.20172 0.31906 0.000555 0.09367 0.07014 0.21914 0.20877 0.3764l0.41587 0.47178-0.65638 0.5786-0.69387-0.78715c-0.31944-0.36238-0.471-0.68594-0.45468-0.97066 0.01954-0.28453 0.21049-0.58651 0.57288-0.90594l1.2179-1.0736-0.4023-0.45639 0.65639-0.5786 0.4023 0.45639 0.81536-0.71873 0.80915 0.91792"/>
   <g id="g4118" transform="matrix(1.1 -.86862 .86862 1.1 -60.967 18.73)">
    <path id="path4102" style="display:inline" d="m29.682 99.378-2.3266 1.8416 0.98506 2.8318-2.4704-1.6437-2.3888 1.8119 0.79983-2.8574-2.4614-1.712 2.9647-0.12231 0.86754-2.87 1.0325 2.7818z" transform="matrix(1.5606 .41815 -.41815 1.5606 33.235 -70.873)"/>
    <path id="path4104" style="display:inline" d="m29.682 99.378-2.3266 1.8416 0.98506 2.8318-2.4704-1.6437-2.3888 1.8119 0.79983-2.8574-2.4614-1.712 2.9647-0.12231 0.86754-2.87 1.0325 2.7818z" transform="matrix(1.5606 .41815 -.41815 1.5606 47.387 -67.081)"/>
    <path id="path4106" style="display:inline" d="m29.682 99.378-2.3266 1.8416 0.98506 2.8318-2.4704-1.6437-2.3888 1.8119 0.79983-2.8574-2.4614-1.712 2.9647-0.12231 0.86754-2.87 1.0325 2.7818z" transform="matrix(1.5606 .41815 -.41815 1.5606 36.915 -57.344)"/>
   </g>
  </g>
 </g>
 <g id="layer5">
  <rect id="rect3171" style="opacity:.1;filter:url(#filter3794-1);stroke:#fff;stroke-linecap:round;stroke-width:.5;fill:url(#linearGradient3096)" clip-path="url(#clipPath4355)" rx="12" ry="12" height="62" width="66" y="15" x="15"/>
 </g>
 <g id="layer7">
  <path id="path5534" style="opacity:.05;color:#000000" d="m63.156 23.75v0.03125c-1.3082-0.08402-2.3592 0.6274-3.0312 1.25-0.70278 0.65104-1.2159 1.0794-1.25 1.0938-0.01004-0.0017-0.0212 0.0017-0.03125 0-2.2243-0.37892-4.7286-0.39714-6.7812 1.2188-0.01177 0.0093-0.01951 0.02188-0.03125 0.03125-5.2358 3.7318-8.8029 9.004-13.094 13.188-1.7093 1.3545-3.8537 2.1939-6.0625 3.1562-2.2332 0.97295-4.5462 2.0783-6.375 4.0938-0.01039 0.01145-0.02089 0.01974-0.03125 0.03125-1.2747 1.2833-1.5046 3.0082-1.1875 4.5 0.31982 1.5046 1.1218 2.871 1.9062 3.9375a1.0152 1.0152 0 0 0 0 0.03125c4.73 6.2492 11.445 10.535 18.25 13.906a1.0152 1.0152 0 0 0 0.033 0.032c4.6937 2.1232 9.8755 4.262 15.406 3.9375 0.01018-0.000383 0.02107 0.000438 0.03125 0 2.3445-0.10071 4.7012-1.6571 5.0625-4.1562h0.03125c0.0044-0.03075-0.0038-0.06271 0-0.09375 0.0056-0.0219 0.02579-0.04061 0.03125-0.0625 0.7169-2.873 0.31855-5.6849 0.03125-8.3438-0.29261-2.708-0.45822-5.2362 0.5-7.5938a1.0152 1.0152 0 0 0 0.03125 -0.09375c1.659-5.47 4.084-11.038 4.219-17.155a1.0152 1.0152 0 0 0 0 -0.09375c-0.139-2.147-1.355-3.792-2.562-5.156 1.554-3.013-0.21-7.036-3.688-7.563v-0.03125c-0.02829-0.0059-0.06505 0.0056-0.09375 0-0.336-0.066-0.706-0.101-1.093-0.094-0.02201 0.000403-0.04034-0.000758-0.0625 0-0.0554 0.0019-0.09995-0.0042-0.15625 0z" transform="translate(0,-2)"/>
  <path id="path5528" style="opacity:.1;color:#000000" d="m63.219 22.75c-1.9797-0.28098-2.9873 2.2242-4.2547 2.389-2.1841-0.41071-4.4892-0.42793-6.3122 1.0273-5.0581 3.5928-8.6033 8.819-13.005 13.111-3.7686 3.0503-9.0905 3.5459-12.428 7.2543-2.0755 2.0479-0.67225 5.1902 0.77779 7.1616 4.5863 6.0593 11.158 10.282 17.891 13.618 4.6796 2.1168 9.7161 4.1978 14.953 3.8816 1.9749-0.0743 3.9819-1.4324 4.19-3.4215 1.4126-5.3485-1.5333-10.951 0.60122-16.203 1.6814-5.5468 4.0569-11.055 4.1866-16.913-0.12884-1.976-1.4147-3.6059-2.6936-4.9995 1.9134-2.4006 0.25712-6.4171-2.7812-6.8125-0.36889-0.07672-0.74791-0.12221-1.125-0.09375z"/>
  <path id="path5348" style="opacity:.3;color:#000000" d="m63.281 23.656c-1.1208 0.07921-2.1772 0.70374-2.7812 1.75-0.18459 0.31972-0.2997 0.65768-0.375 1-0.09428-0.03487-0.1858-0.09355-0.28125-0.125-0.50411-0.16609-1.0466-0.26509-1.6562-0.34375-0.07397-0.0096-0.14222-0.02286-0.21875-0.03125-0.08143-0.009-0.16542-0.02356-0.25-0.03125-0.14844-0.01319-0.3407-0.02192-0.5-0.03125-0.35416-0.01998-0.73746-0.02894-1.1562-0.03125-0.20308-0.0011-0.40612 0.0166-0.625 0.0625-0.04267 0.0086-0.08178 0.02092-0.125 0.03125-0.0326 0.008-0.06085 0.02229-0.09375 0.03125-0.2266 0.05995-0.44718 0.11521-0.6875 0.21875-0.08035 0.03462-0.16823 0.0858-0.25 0.125-3.8115 1.8272-9.1389 8.5723-13.25 12.938-1.3414 1.4243-3.185 2.3961-5.125 3.2812-0.16336 0.07288-0.33547 0.14533-0.5 0.21875-1.8694 0.83442-3.7758 1.6096-5.375 2.625-0.04519 0.02873-0.08031 0.06469-0.125 0.09375-0.75937 0.49395-1.4334 1.0442-2 1.6875-0.20166 0.17912-0.36824 0.36554-0.5 0.59375-1.933 3.348 4.6434 10.764 14.688 16.562 10.044 5.799 19.755 7.7856 21.688 4.4375 0.12081-0.20925 0.19443-0.41661 0.25-0.65625 0.85978-2.4629 0.44639-5.4283 0.125-8.4062-0.0044-0.0063 0.0045-0.02493 0-0.03125-0.02563-0.23698-0.07033-0.48197-0.09375-0.71875-0.21442-2.1754-0.29521-4.3307 0.28125-6.25 1.6848-5.6095 4.7227-13.341 4.5625-17.625 0.01107 0.0096 0.0202 0.02161 0.03125 0.03125-0.0071-0.22604-0.03588-0.4182-0.0625-0.625-0.0226-0.19264-0.05436-0.35689-0.09375-0.53125-0.03697-0.1561-0.07403-0.32839-0.125-0.46875-0.009-0.024-0.024-0.042-0.032-0.064-0.06-0.158-0.108-0.302-0.187-0.437-0.183-0.313-0.362-0.581-0.532-0.844-0.03-0.047-0.063-0.08-0.094-0.125-0.141-0.216-0.269-0.407-0.406-0.594-0.055-0.075-0.101-0.148-0.156-0.219-0.115-0.15-0.229-0.272-0.344-0.406-0.074-0.086-0.143-0.169-0.218-0.25-0.261-0.284-0.529-0.546-0.813-0.781 0.25949-0.23669 0.50252-0.49211 0.6875-0.8125 0.9665-1.674 0.39277-3.8148-1.2812-4.7812-0.25865-0.14933-0.53763-0.23508-0.8125-0.3125-0.088-0.034-0.18-0.044-0.281-0.063-0.301-0.058-0.607-0.115-0.907-0.094z"/>
  <g id="g4732" transform="translate(0,-2)">
   <path id="path4638" style="color:#000000;fill:url(#radialGradient4646-8)" d="m148-25a4 4 0 1 1 -8 0 4 4 0 1 1 8 0z"/>
   <path id="path4662" style="opacity:.61135;fill:#2a0a00" d="m141.26-26.921s-1.3988 2.8601 2.3755 3.0436c4.9304 0.2397 3.0685-3.9032 3.0685-3.9032 2.2353 2.3877 0.42979 5.2291 0.42979 5.2291l-5.8738 0.07163s-1.8624-1.2894 0-4.4412z"/>
   <path id="path4217" style="fill:url(#linearGradient4478-9)" d="m144-24c-3.4844 0-4.8297 0.04133-8.1562 1.9375-3.7393 2.1315-5.3807 14.058-7.2188 21.844-1.36 5.8026-8.12 10.559-8.62 16.218h24 24c-0.5-5.659-7.26-10.415-8.62-16.219-1.84-7.7857-3.48-19.712-7.22-21.843-3.33-1.897-4.68-1.938-8.16-1.938z"/>
   <path id="path4280" style="color:#000000;fill:url(#radialGradient4288-6)" d="m153.42-7.8293a2.4745 11.11 0 1 1 -4.9491 0 2.4745 11.11 0 1 1 4.9491 0z" transform="matrix(1.4286 0 0 .97636 -66.257 -2.0041)"/>
   <path id="path4340" style="opacity:.69432;fill:url(#linearGradient4355-6)" d="m145.28-23.969c2.0043 0.10051 3.3801 0.48412 5.875 1.9062 3.7393 2.1315 5.3807 14.058 7.2188 21.844 1.37 5.8036 8.13 10.56 8.63 16.219h1c-0.50142-5.6589-7.255-10.415-8.625-16.219-1.838-7.786-3.4794-19.712-7.2188-21.844-2.8594-1.6299-4.3265-1.8655-6.875-1.9062z"/>
   <path id="path4469" style="opacity:.5;fill:url(#linearGradient4476-6)" d="m144-24c-3.4844 0-4.8297 0.04133-8.1562 1.9375-0.54033 0.30799-1.0404 0.82502-1.5 1.5 2.8528-0.45874 5.8183-0.6875 8.875-0.6875 3.6979 0 7.2686 0.33674 10.656 1-0.51685-0.83359-1.0962-1.4576-1.7188-1.8125-3.33-1.897-4.68-1.938-8.16-1.938z"/>
   <path id="path4367" style="fill:url(#linearGradient4400-8)" d="m142-23.969c-1.3532 0.40038-3.9736 1.0594-4.7933 2-2.6539 3.0454-2.6266 12.37-3.8005 17.125-1.1738 4.7546-2.7841 4.6514-2 5.919 0.73962 1.1957 4.0212 0.2909 4.0312 1.1875 0.0229 2.0929-5.453 1.0729-5.6562 2.7494l2.8438 0.09375s-6.0603 3.1141-5.6562 6.1441l18.875-3.2188c-2.72-1.212-7.84-0.3769-8.06-2.0312-0.25871-1.9651 4.6699-0.010978 5.25-1.9062 0.66373-2.1684-2.7236-2.9541-3.875-7.5s-0.49377-14.385 1.125-18.375c0.35356-0.87137 1.6921-1.7002 2.5312-2.1875-0.26684 0.0037-0.56816-0.0094-0.8125 0z"/>
   <path id="path4490" style="opacity:.8;color:#000000;fill:url(#linearGradient4520-7)" d="m143.72 3c-7.2733 0-13.762 1.0796-18.156 2.7812-0.16384 0.2318-0.33271 0.45683-0.5 0.6875 4.4-1.8195 11.1-2.9687 18.66-2.9687 8.0293 0 15.118 1.2941 19.469 3.3125-0.16772-0.22946-0.33474-0.45708-0.5-0.6875-4.38-1.8977-11.23-3.125-18.97-3.125z"/>
   <path id="path4290" style="color:#000000;fill:url(#radialGradient4288-6)" d="m153.42-7.8293a2.4745 11.11 0 1 1 -4.9491 0 2.4745 11.11 0 1 1 4.9491 0z" transform="matrix(1.0512 0 0 .69932 -19.577 -6.4018)"/>
   <path id="path4410" style="color:#000000;fill:url(#radialGradient4412-5)" d="m148.88-21.111a4.7976 1.2625 0 1 1 -9.5951 0 4.7976 1.2625 0 1 1 9.5951 0z" transform="matrix(1 .0016217 -.0016217 1 .39319 27.109)"/>
   <path id="path4299" style="color:#000000;fill:url(#linearGradient4542-0)" d="m143.72 2.5c-7.03 0-13.33 1.0173-17.72 2.625-0.15 0.2181-0.28 0.4394-0.44 0.6562 4.4-1.7016 10.89-2.7812 18.16-2.7812 7.746 0 14.587 1.2273 18.969 3.125-0.16672-0.23246-0.33776-0.45373-0.5-0.6875-4.4-1.779-11.02-2.9375-18.47-2.9375z"/>
   <path id="path4446" style="opacity:.8;fill:url(#linearGradient4454-3)" d="m144.03-23.686s5.226 0.44332 8.2234 2.323c2.9466 2.2861 5.3841 19.38 7.2134 23.853 0.42463 1.0383 4.8603 6.5897 5.5715 8.1646 1.3543 2.402-12.301-2.0616-12.301-2.0616 7.4486-0.34434 4.3484-4.2626 4.3484-4.2626 1.4861-0.86991-2.5484-1.5518-0.75886-3.2709 0.77485-0.74438-2.2894-18.293-4.7249-21.732-0.85958-2.0057-7.5715-3.0136-7.5715-3.0136z"/>
   <path id="path4270" style="color:#000000;fill:url(#radialGradient4412-5)" d="m148.77-21.111a4.6921 1.2625 0 1 1 -9.3842 0 4.6921 1.2625 0 1 1 9.3842 0z" transform="matrix(1.4453 0 0 1 -64.58 0)"/>
   <path id="path4323" style="opacity:.6;fill:url(#linearGradient4338-9)" d="m141.72-23.969c-2.0043 0.10051-3.3801 0.48412-5.875 1.9062-3.7393 2.1315-5.3807 14.058-7.2188 21.844-1.37 5.8036-8.13 10.56-8.63 16.219h1c0.50142-5.6589 7.255-10.415 8.625-16.219 1.838-7.786 3.4794-19.712 7.2188-21.844 2.4949-1.4221 3.8707-1.8057 5.875-1.9062-0.32486 0.0052-0.70719-0.01468-1 0z"/>
   <path id="path4385" style="opacity:.8;fill:url(#linearGradient4408-0)" d="m141.97-23.969c-1.3534 0.40595-4.1524 1.2704-4.9653 2.2032-2.6539 3.0454-2.4234 12.167-3.5972 16.922-1.1738 4.7546-2.7841 4.6514-2 5.919 0.73962 1.1957 4.0212 0.2909 4.0312 1.1875 0.0229 2.0929-5.453 1.0729-5.6562 2.7494l2.8438 0.09375s-6.0603 3.1141-5.6562 6.1441l1-0.15625c-0.17-2.97 5.66-5.9881 5.66-5.9881l-2.8438-0.09375c0.20321-1.6765 5.6792-0.65645 5.6562-2.7494-0.01-0.8966-3.2916 0.00822-4.0312-1.1875-0.78409-1.2676 0.8262-1.1644 2-5.919s0.7909-13.826 3.4448-16.871c0.72883-0.83634 3.4137-1.714 4.7114-2.129 0.12922-0.07821 0.13523-0.05775 0.25-0.125-0.2771 0.0038-0.59079-0.01001-0.84375 0z"/>
   <path id="path4215" style="color:#000000;fill:url(#linearGradient4588-7)" d="m168 16a24 8 0 1 1 -48 0 24 8 0 1 1 48 0z"/>
   <path id="path4562" style="fill:url(#linearGradient4580-5)" d="m143.34 7.5938c-9.6965 0-18.067 1.8548-22.094 4.5625-0.51874 0.99432-0.92525 1.993-1.125 3.0312 1.23-4.035 11.45-7.188 23.88-7.188 12.426 0 22.646 3.1535 23.875 7.1875-0.0399-0.20743-0.10122-0.41973-0.15625-0.625-1.8084-3.937-12.034-6.9688-24.375-6.9688z"/>
   <path id="path4590" style="opacity:.5;color:#000000;fill:url(#linearGradient4597-6)" d="m144 8c-1.0096 0-1.9921 0.026485-2.9688 0.0625-0.69921 0.028687-1.3832 0.076709-2.0625 0.125-5.8638 0.41688-10.924 1.5351-14.344 3.0938 1.9281 3.2042 9.8494 5.5938 19.375 5.5938s17.447-2.3896 19.375-5.5938c-3.42-1.5584-8.48-2.6766-14.35-3.0935-0.68-0.0434-1.36-0.0992-2.06-0.125-0.98-0.036-1.96-0.0625-2.97-0.0625z"/>
   <path id="path4602" style="opacity:.5;color:#000000;fill:url(#linearGradient4613-3)" d="m144 8c-13.255 0-24 3.5817-24 8s10.745 8 24 8 24-3.5817 24-8-10.745-8-24-8zm0 0.21875c12.89 0 23.344 3.2762 23.344 7.3438s-10.454 7.375-23.344 7.375-23.344-3.3074-23.344-7.375 10.454-7.3438 23.344-7.3438z"/>
   <path id="path4615" style="opacity:.5;color:#000000;fill:url(#radialGradient4617-2)" d="m144 8c-13.255 0-24 3.5817-24 8s10.745 8 24 8 24-3.5817 24-8-10.745-8-24-8zm0 0.21875c12.89 0 23.344 3.2762 23.344 7.3438s-10.454 7.375-23.344 7.375-23.344-3.3074-23.344-7.375 10.454-7.3438 23.344-7.3438z"/>
   <path id="path4658" style="color:#000000;fill:url(#radialGradient4288-6)" d="m153.42-7.8293a2.4745 11.11 0 1 1 -4.9491 0 2.4745 11.11 0 1 1 4.9491 0z" transform="matrix(.39757 .34382 -.13362 .15451 81.281 -77.626)"/>
   <path id="path4664" style="opacity:.61135;fill:#ffe9a5" d="m144.73-28.557s1.5061 0.36815 1.7655 1.8015c0.22886 1.2645-0.90076 2.1258-0.90076 2.1258 1.0449-2.7743-0.86473-3.9273-0.86473-3.9273z"/>
   <g id="g4716" clip-path="url(#clipPath4728-2)">
    <path id="path4690" style="opacity:0.08;color:#000000;fill:#2b0d00" d="m144-30.562c-3.0537 0-5.5625 2.5088-5.5625 5.5625s2.5088 5.5625 5.5625 5.5625 5.5625-2.5088 5.5625-5.5625-2.5088-5.5625-5.5625-5.5625z" transform="matrix(1.4022 0 0 1.4022 -50.024 49.094)"/>
    <path id="path4686" style="opacity:0.12;color:#000000;fill:#2b0d00" d="m144-29.938c-2.7192 0-4.9375 2.2183-4.9375 4.9375s2.2183 4.9375 4.9375 4.9375 4.9375-2.2183 4.9375-4.9375-2.2183-4.9375-4.9375-4.9375z" transform="matrix(1.4022 0 0 1.4022 -50.024 49.094)"/>
    <path id="path4682" style="opacity:.2;color:#000000;fill:#2b0d00" d="m144-29.406c-2.4317 0-4.4062 1.9745-4.4062 4.4062s1.9745 4.4062 4.4062 4.4062 4.4062-1.9745 4.4062-4.4062-1.9745-4.4062-4.4062-4.4062z" transform="matrix(1.4022 0 0 1.4022 -50.024 49.094)"/>
    <path id="path4676" style="opacity:.3;color:#000000;fill:#2b0d00" d="m148-25a4 4 0 1 1 -8 0 4 4 0 1 1 8 0z" transform="matrix(1.4022 0 0 1.4022 -50.024 49.094)"/>
    <path id="path4666" style="color:#000000;fill:url(#radialGradient4646-8)" d="m148-25a4 4 0 1 1 -8 0 4 4 0 1 1 8 0z" transform="matrix(1.4022 0 0 1.4022 -50.311 48.664)"/>
    <path id="path4674" style="opacity:.5;fill:#441b00" d="m155.65 15.785s-1.0653 2.6686-3.8728 2.8156c-2.4767 0.12972-3.8562-2.1314-3.8562-2.1314 5.064 2.5428 7.7291-0.6842 7.7291-0.6842z"/>
    <path id="path4692" style="color:#000000;fill:url(#radialGradient4712-8)" d="m151.59 8c-2.6609 0-4.8337 1.8582-5.4062 4.3438 2.5798-2.1672 8.1649-2.3484 10.875 0.03125-0.56-2.5038-2.79-4.375-5.47-4.375z"/>
    <path id="path4670" style="color:#000000;fill:url(#radialGradient4288-6)" d="m153.42-7.8293a2.4745 11.11 0 1 1 -4.9491 0 2.4745 11.11 0 1 1 4.9491 0z" transform="matrix(1.0546 .046439 -.024018 .30799 -9.9897 8.2867)"/>
   </g>
  </g>
  <g id="g5236" transform="matrix(.75777 .4375 -.4375 .75777 -56.529 -17.903)">
   <path id="path5238" style="color:#000000;fill:url(#radialGradient4646-8)" d="m148-25a4 4 0 1 1 -8 0 4 4 0 1 1 8 0z"/>
   <path id="path5240" style="opacity:.61135;fill:#2a0a00" d="m141.26-26.921s-1.3988 2.8601 2.3755 3.0436c4.9304 0.2397 3.0685-3.9032 3.0685-3.9032 2.2353 2.3877 0.42979 5.2291 0.42979 5.2291l-5.8738 0.07163s-1.8624-1.2894 0-4.4412z"/>
   <path id="path5242" style="fill:url(#linearGradient4478-9)" d="m144-24c-3.4844 0-4.8297 0.04133-8.1562 1.9375-3.7393 2.1315-5.3807 14.058-7.2188 21.844-1.36 5.8026-8.12 10.559-8.62 16.218h24 24c-0.5-5.659-7.26-10.415-8.62-16.219-1.84-7.7857-3.48-19.712-7.22-21.843-3.33-1.897-4.68-1.938-8.16-1.938z"/>
   <path id="path5244" style="color:#000000;fill:url(#radialGradient4288-6)" d="m153.42-7.8293a2.4745 11.11 0 1 1 -4.9491 0 2.4745 11.11 0 1 1 4.9491 0z" transform="matrix(1.4286 0 0 .97636 -66.257 -2.0041)"/>
   <path id="path5246" style="opacity:.69432;fill:url(#linearGradient4355-6)" d="m145.28-23.969c2.0043 0.10051 3.3801 0.48412 5.875 1.9062 3.7393 2.1315 5.3807 14.058 7.2188 21.844 1.37 5.8036 8.13 10.56 8.63 16.219h1c-0.50142-5.6589-7.255-10.415-8.625-16.219-1.838-7.786-3.4794-19.712-7.2188-21.844-2.8594-1.6299-4.3265-1.8655-6.875-1.9062z"/>
   <path id="path5248" style="opacity:.5;fill:url(#linearGradient4476-6)" d="m144-24c-3.4844 0-4.8297 0.04133-8.1562 1.9375-0.54033 0.30799-1.0404 0.82502-1.5 1.5 2.8528-0.45874 5.8183-0.6875 8.875-0.6875 3.6979 0 7.2686 0.33674 10.656 1-0.51685-0.83359-1.0962-1.4576-1.7188-1.8125-3.33-1.897-4.68-1.938-8.16-1.938z"/>
   <path id="path5250" style="fill:url(#linearGradient4400-8)" d="m142-23.969c-1.3532 0.40038-3.9736 1.0594-4.7933 2-2.6539 3.0454-2.6266 12.37-3.8005 17.125-1.1738 4.7546-2.7841 4.6514-2 5.919 0.73962 1.1957 4.0212 0.2909 4.0312 1.1875 0.0229 2.0929-5.453 1.0729-5.6562 2.7494l2.8438 0.09375s-6.0603 3.1141-5.6562 6.1441l18.875-3.2188c-2.72-1.212-7.84-0.3769-8.06-2.0312-0.25871-1.9651 4.6699-0.010978 5.25-1.9062 0.66373-2.1684-2.7236-2.9541-3.875-7.5s-0.49377-14.385 1.125-18.375c0.35356-0.87137 1.6921-1.7002 2.5312-2.1875-0.26684 0.0037-0.56816-0.0094-0.8125 0z"/>
   <path id="path5252" style="opacity:.8;color:#000000;fill:url(#linearGradient4520-7)" d="m143.72 3c-7.2733 0-13.762 1.0796-18.156 2.7812-0.16384 0.2318-0.33271 0.45683-0.5 0.6875 4.4-1.8195 11.1-2.9687 18.66-2.9687 8.0293 0 15.118 1.2941 19.469 3.3125-0.16772-0.22946-0.33474-0.45708-0.5-0.6875-4.38-1.8977-11.23-3.125-18.97-3.125z"/>
   <path id="path5254" style="color:#000000;fill:url(#radialGradient4288-6)" d="m153.42-7.8293a2.4745 11.11 0 1 1 -4.9491 0 2.4745 11.11 0 1 1 4.9491 0z" transform="matrix(1.0512 0 0 .69932 -19.577 -6.4018)"/>
   <path id="path5256" style="color:#000000;fill:url(#radialGradient4412-5)" d="m148.88-21.111a4.7976 1.2625 0 1 1 -9.5951 0 4.7976 1.2625 0 1 1 9.5951 0z" transform="matrix(1 .0016217 -.0016217 1 .39319 27.109)"/>
   <path id="path5258" style="color:#000000;fill:url(#linearGradient4542-0)" d="m143.72 2.5c-7.03 0-13.33 1.0173-17.72 2.625-0.15 0.2181-0.28 0.4394-0.44 0.6562 4.4-1.7016 10.89-2.7812 18.16-2.7812 7.746 0 14.587 1.2273 18.969 3.125-0.16672-0.23246-0.33776-0.45373-0.5-0.6875-4.4-1.779-11.02-2.9375-18.47-2.9375z"/>
   <path id="path5260" style="opacity:.8;fill:url(#linearGradient4454-3)" d="m144.03-23.686s5.226 0.44332 8.2234 2.323c2.9466 2.2861 5.3841 19.38 7.2134 23.853 0.42463 1.0383 4.8603 6.5897 5.5715 8.1646 1.3543 2.402-12.301-2.0616-12.301-2.0616 7.4486-0.34434 4.3484-4.2626 4.3484-4.2626 1.4861-0.86991-2.5484-1.5518-0.75886-3.2709 0.77485-0.74438-2.2894-18.293-4.7249-21.732-0.85958-2.0057-7.5715-3.0136-7.5715-3.0136z"/>
   <path id="path5262" style="color:#000000;fill:url(#radialGradient4412-5)" d="m148.77-21.111a4.6921 1.2625 0 1 1 -9.3842 0 4.6921 1.2625 0 1 1 9.3842 0z" transform="matrix(1.4453 0 0 1 -64.58 0)"/>
   <path id="path5264" style="opacity:.6;fill:url(#linearGradient4338-9)" d="m141.72-23.969c-2.0043 0.10051-3.3801 0.48412-5.875 1.9062-3.7393 2.1315-5.3807 14.058-7.2188 21.844-1.37 5.8036-8.13 10.56-8.63 16.219h1c0.50142-5.6589 7.255-10.415 8.625-16.219 1.838-7.786 3.4794-19.712 7.2188-21.844 2.4949-1.4221 3.8707-1.8057 5.875-1.9062-0.32486 0.0052-0.70719-0.01468-1 0z"/>
   <path id="path5266" style="opacity:.8;fill:url(#linearGradient4408-0)" d="m141.97-23.969c-1.3534 0.40595-4.1524 1.2704-4.9653 2.2032-2.6539 3.0454-2.4234 12.167-3.5972 16.922-1.1738 4.7546-2.7841 4.6514-2 5.919 0.73962 1.1957 4.0212 0.2909 4.0312 1.1875 0.0229 2.0929-5.453 1.0729-5.6562 2.7494l2.8438 0.09375s-6.0603 3.1141-5.6562 6.1441l1-0.15625c-0.17-2.97 5.66-5.9881 5.66-5.9881l-2.8438-0.09375c0.20321-1.6765 5.6792-0.65645 5.6562-2.7494-0.01-0.8966-3.2916 0.00822-4.0312-1.1875-0.78409-1.2676 0.8262-1.1644 2-5.919s0.7909-13.826 3.4448-16.871c0.72883-0.83634 3.4137-1.714 4.7114-2.129 0.12922-0.07821 0.13523-0.05775 0.25-0.125-0.2771 0.0038-0.59079-0.01001-0.84375 0z"/>
   <path id="path5268" style="color:#000000;fill:url(#linearGradient4588-7)" d="m168 16a24 8 0 1 1 -48 0 24 8 0 1 1 48 0z"/>
   <path id="path5270" style="fill:url(#linearGradient4580-5)" d="m143.34 7.5938c-9.6965 0-18.067 1.8548-22.094 4.5625-0.51874 0.99432-0.92525 1.993-1.125 3.0312 1.23-4.035 11.45-7.188 23.88-7.188 12.426 0 22.646 3.1535 23.875 7.1875-0.0399-0.20743-0.10122-0.41973-0.15625-0.625-1.8084-3.937-12.034-6.9688-24.375-6.9688z"/>
   <path id="path5272" style="opacity:.5;color:#000000;fill:url(#linearGradient4597-6)" d="m144 8c-1.0096 0-1.9921 0.026485-2.9688 0.0625-0.69921 0.028687-1.3832 0.076709-2.0625 0.125-5.8638 0.41688-10.924 1.5351-14.344 3.0938 1.9281 3.2042 9.8494 5.5938 19.375 5.5938s17.447-2.3896 19.375-5.5938c-3.42-1.5584-8.48-2.6766-14.35-3.0935-0.68-0.0434-1.36-0.0992-2.06-0.125-0.98-0.036-1.96-0.0625-2.97-0.0625z"/>
   <path id="path5274" style="opacity:.5;color:#000000;fill:url(#linearGradient4613-3)" d="m144 8c-13.255 0-24 3.5817-24 8s10.745 8 24 8 24-3.5817 24-8-10.745-8-24-8zm0 0.21875c12.89 0 23.344 3.2762 23.344 7.3438s-10.454 7.375-23.344 7.375-23.344-3.3074-23.344-7.375 10.454-7.3438 23.344-7.3438z"/>
   <path id="path5276" style="opacity:.5;color:#000000;fill:url(#radialGradient4617-2)" d="m144 8c-13.255 0-24 3.5817-24 8s10.745 8 24 8 24-3.5817 24-8-10.745-8-24-8zm0 0.21875c12.89 0 23.344 3.2762 23.344 7.3438s-10.454 7.375-23.344 7.375-23.344-3.3074-23.344-7.375 10.454-7.3438 23.344-7.3438z"/>
   <path id="path5278" style="color:#000000;fill:url(#radialGradient4288-6)" d="m153.42-7.8293a2.4745 11.11 0 1 1 -4.9491 0 2.4745 11.11 0 1 1 4.9491 0z" transform="matrix(.39757 .34382 -.13362 .15451 81.281 -77.626)"/>
   <path id="path5280" style="opacity:.61135;fill:#ffe9a5" d="m144.73-28.557s1.5061 0.36815 1.7655 1.8015c0.22886 1.2645-0.90076 2.1258-0.90076 2.1258 1.0449-2.7743-0.86473-3.9273-0.86473-3.9273z"/>
   <g id="g5282" clip-path="url(#clipPath4728-2)">
    <path id="path5284" style="opacity:0.08;color:#000000;fill:#2b0d00" d="m144-30.562c-3.0537 0-5.5625 2.5088-5.5625 5.5625s2.5088 5.5625 5.5625 5.5625 5.5625-2.5088 5.5625-5.5625-2.5088-5.5625-5.5625-5.5625z" transform="matrix(1.4022 0 0 1.4022 -50.024 49.094)"/>
    <path id="path5286" style="opacity:0.12;color:#000000;fill:#2b0d00" d="m144-29.938c-2.7192 0-4.9375 2.2183-4.9375 4.9375s2.2183 4.9375 4.9375 4.9375 4.9375-2.2183 4.9375-4.9375-2.2183-4.9375-4.9375-4.9375z" transform="matrix(1.4022 0 0 1.4022 -50.024 49.094)"/>
    <path id="path5288" style="opacity:.2;color:#000000;fill:#2b0d00" d="m144-29.406c-2.4317 0-4.4062 1.9745-4.4062 4.4062s1.9745 4.4062 4.4062 4.4062 4.4062-1.9745 4.4062-4.4062-1.9745-4.4062-4.4062-4.4062z" transform="matrix(1.4022 0 0 1.4022 -50.024 49.094)"/>
    <path id="path5290" style="opacity:.3;color:#000000;fill:#2b0d00" d="m148-25a4 4 0 1 1 -8 0 4 4 0 1 1 8 0z" transform="matrix(1.4022 0 0 1.4022 -50.024 49.094)"/>
    <path id="path5292" style="color:#000000;fill:url(#radialGradient4646-8)" d="m148-25a4 4 0 1 1 -8 0 4 4 0 1 1 8 0z" transform="matrix(1.4022 0 0 1.4022 -50.311 48.664)"/>
    <path id="path5294" style="opacity:.5;fill:#441b00" d="m155.65 15.785s-1.0653 2.6686-3.8728 2.8156c-2.4767 0.12972-3.8562-2.1314-3.8562-2.1314 5.064 2.5428 7.7291-0.6842 7.7291-0.6842z"/>
    <path id="path5296" style="color:#000000;fill:url(#radialGradient4712-8)" d="m151.59 8c-2.6609 0-4.8337 1.8582-5.4062 4.3438 2.5798-2.1672 8.1649-2.3484 10.875 0.03125-0.56-2.5038-2.79-4.375-5.47-4.375z"/>
    <path id="path5298" style="color:#000000;fill:url(#radialGradient4288-6)" d="m153.42-7.8293a2.4745 11.11 0 1 1 -4.9491 0 2.4745 11.11 0 1 1 4.9491 0z" transform="matrix(1.0546 .046439 -.024018 .30799 -9.9897 8.2867)"/>
   </g>
  </g>
 </g>
</svg>
