<?xml version="1.0" encoding="UTF-8" standalone="no"?>
<!-- Created with Inkscape (http://www.inkscape.org/) -->
<svg id="svg2408" xmlns:rdf="http://www.w3.org/1999/02/22-rdf-syntax-ns#" xmlns="http://www.w3.org/2000/svg" height="96" width="96" version="1.0" xmlns:cc="http://creativecommons.org/ns#" xmlns:xlink="http://www.w3.org/1999/xlink" xmlns:dc="http://purl.org/dc/elements/1.1/">
 <defs id="defs2410">
  <linearGradient id="ButtonShadow" y2="7.0165" gradientUnits="userSpaceOnUse" x2="45.448" gradientTransform="scale(1.0059 .99417)" y1="92.54" x1="45.448">
   <stop id="stop3750" offset="0"/>
   <stop id="stop3752" style="stop-opacity:.58824" offset="1"/>
  </linearGradient>
  <linearGradient id="linearGradient3737">
   <stop id="stop3739" style="stop-color:#fff" offset="0"/>
   <stop id="stop3741" style="stop-color:#fff;stop-opacity:0" offset="1"/>
  </linearGradient>
  <filter id="filter3174" color-interpolation-filters="sRGB">
   <feGaussianBlur id="feGaussianBlur3176" stdDeviation="1.71"/>
  </filter>
  <linearGradient id="linearGradient3188" y2="63.893" xlink:href="#linearGradient3737" gradientUnits="userSpaceOnUse" x2="36.357" y1="6" x1="36.357"/>
  <filter id="filter3794" height="1.384" width="1.384" color-interpolation-filters="sRGB" y="-.192" x="-.192">
   <feGaussianBlur id="feGaussianBlur3796" stdDeviation="5.28"/>
  </filter>
  <linearGradient id="linearGradient3613" y2="138.66" xlink:href="#linearGradient3737" gradientUnits="userSpaceOnUse" x2="48" y1="20.221" x1="48"/>
  <radialGradient id="radialGradient3619" xlink:href="#linearGradient3737" gradientUnits="userSpaceOnUse" cy="90.172" cx="48" gradientTransform="matrix(1.1573 0 0 .99591 -7.551 .19713)" r="42"/>
  <clipPath id="clipPath3613">
   <rect id="rect3615" style="fill:#fff" rx="6" ry="6" height="84" width="84" y="6" x="6"/>
  </clipPath>
  <linearGradient id="linearGradient3617" y2="5.9877" xlink:href="#linearGradient6455" gradientUnits="userSpaceOnUse" x2="48" gradientTransform="translate(0,-96)" y1="90" x1="48"/>
  <linearGradient id="ButtonShadow-0" y2="7.0165" gradientUnits="userSpaceOnUse" x2="45.448" gradientTransform="matrix(1.0059 0 0 .99417 100 0)" y1="92.54" x1="45.448">
   <stop id="stop3750-8" offset="0"/>
   <stop id="stop3752-5" style="stop-opacity:.58824" offset="1"/>
  </linearGradient>
  <linearGradient id="linearGradient3780" y2="90.239" xlink:href="#ButtonShadow-0" gradientUnits="userSpaceOnUse" x2="32.251" gradientTransform="matrix(1.0238 0 0 1.0119 -1.1429 -98.071)" y1="6.1317" x1="32.251"/>
  <linearGradient id="linearGradient3721" y2="90.239" xlink:href="#ButtonShadow-0" gradientUnits="userSpaceOnUse" x2="32.251" gradientTransform="translate(0,-97)" y1="6.1317" x1="32.251"/>
  <linearGradient id="linearGradient5060">
   <stop id="stop5062" offset="0"/>
   <stop id="stop5064" style="stop-opacity:0" offset="1"/>
  </linearGradient>
  <linearGradient id="linearGradient6455">
   <stop id="stop6457" style="stop-color:#fdb245" offset="0"/>
   <stop id="stop6459" style="stop-color:#f57900" offset="1"/>
  </linearGradient>
  <linearGradient id="linearGradient3938" y2="20.914" xlink:href="#linearGradient3737" gradientUnits="userSpaceOnUse" x2="19.249" gradientTransform="matrix(.95238 0 0 1.0004 99.742 -67.903)" y1="-1.4777" x1="19.249"/>
  <linearGradient id="linearGradient3941" y2="40" gradientUnits="userSpaceOnUse" x2="19.905" gradientTransform="translate(98.552 -68.895)" y1="63.611" x1="19.905">
   <stop id="stop6123" offset="0"/>
   <stop id="stop6125" style="stop-opacity:0" offset="1"/>
  </linearGradient>
  <linearGradient id="linearGradient3946" y2="15.315" xlink:href="#linearGradient6455" gradientUnits="userSpaceOnUse" x2="105.15" gradientTransform="matrix(-.88465 0 0 -.87544 205.99 -23.875)" y1="42.163" x1="105.15"/>
  <linearGradient id="linearGradient3951" y2="55.454" xlink:href="#linearGradient6455" gradientUnits="userSpaceOnUse" x2="108.46" gradientTransform="matrix(.88465 0 0 .87544 41.096 -65.91)" y1="16.108" x1="108.46"/>
  <linearGradient id="linearGradient3955" y2="54.581" gradientUnits="userSpaceOnUse" x2="30.738" gradientTransform="matrix(.87549 0 0 .87551 102.47 -65.772)" y1="13.826" x1="30.738">
   <stop id="stop8957" style="stop-color:#729fcf" offset="0"/>
   <stop id="stop8959" style="stop-color:#3465a4" offset="1"/>
  </linearGradient>
  <radialGradient id="radialGradient3968" xlink:href="#linearGradient5060" gradientUnits="userSpaceOnUse" cy="486.65" cx="605.71" gradientTransform="matrix(-.048194 0 0 .028772 136.6 -38.431)" r="117.14"/>
  <radialGradient id="radialGradient3971" xlink:href="#linearGradient5060" gradientUnits="userSpaceOnUse" cy="486.65" cx="605.71" gradientTransform="matrix(.048194 0 0 .028772 111.51 -38.444)" r="117.14"/>
  <linearGradient id="linearGradient3974" y2="609.51" gradientUnits="userSpaceOnUse" x2="302.86" gradientTransform="matrix(.068343 0 0 .028772 99.351 -38.444)" y1="366.65" x1="302.86">
   <stop id="stop5050" style="stop-opacity:0" offset="0"/>
   <stop id="stop5056" offset=".5"/>
   <stop id="stop5052" style="stop-opacity:0" offset="1"/>
  </linearGradient>
  <linearGradient id="linearGradient3978" y2="20.914" xlink:href="#linearGradient3737" gradientUnits="userSpaceOnUse" x2="19.249" gradientTransform="matrix(2.3333 0 0 2.4511 -3.3333 -3.7367)" y1="-1.4777" x1="19.249"/>
  <clipPath id="clipPath4000">
   <rect id="rect4002" style="fill:#f0f" transform="scale(1,-1)" rx="6" ry="6" height="84" width="84" y="-90" x="36"/>
  </clipPath>
  <radialGradient id="radialGradient4004" gradientUnits="userSpaceOnUse" cy="48" cx="48" gradientTransform="translate(30)" r="42">
   <stop id="stop6663" style="stop-color:#a4c1e0" offset="0"/>
   <stop id="stop6665" style="stop-color:#3465a4" offset="1"/>
  </radialGradient>
  <clipPath id="clipPath4101">
   <path id="path4103" style="fill:#f0f" d="m131.81 6c-10.565 7.4797-17.814 19.08-17.219 33.062 0.61551 14.47 12.417 28.991 28.5 27.25 9.1883-0.99477 16.536-9.73 11.844-17.188-1.4905-2.369-5.1102-2.5732-6.8125-1.4375 8.1795-0.23077 4.1866 9.5126-3 11-9.8172 2.0318-17.351-7.4544-18.031-16.281-1.2708-16.495 14.681-28.178 29.938-28.125 14.389 0.05043 26.06 8.2959 32.969 19.75v-22.03c0-3.324-2.676-6-6-6h-52.188zm24.031 23.531c-0.47014-0.006-0.95892 0.0088-1.4375 0.03125-0.49402 0.02315-0.99741 0.07059-1.5 0.125-9.1883 0.99477-16.536 9.73-11.844 17.188 1.4905 2.369 5.1102 2.5732 6.8125 1.4375-8.1795 0.23077-4.1866-9.5126 3-11 9.8172-2.0318 17.351 7.4544 18.031 16.281 1.2708 16.495-14.681 28.178-29.938 28.125-14.38-0.051-26.05-8.296-32.96-19.75v22.031c0 3.324 2.676 6 6 6h52.188c10.56-7.48 17.81-19.08 17.22-33.062-0.58-13.58-10.99-27.22-25.57-27.407z"/>
  </clipPath>
 </defs>
 <metadata id="metadata2413">
  <rdf:RDF>
   <cc:Work rdf:about="">
    <dc:format>image/svg+xml</dc:format>
    <dc:type rdf:resource="http://purl.org/dc/dcmitype/StillImage"/>
    <dc:title/>
   </cc:Work>
  </rdf:RDF>
 </metadata>
 <g id="layer2" style="display:none">
  <rect id="rect3745" style="opacity:.9;filter:url(#filter3174);fill:url(#ButtonShadow)" rx="6" ry="6" height="85" width="86" y="7" x="5"/>
 </g>
 <g id="layer3">
  <path id="path3786" style="opacity:0.08;fill:url(#linearGradient3780)" d="m12-95.031c-5.5111 0-10.031 4.5202-10.031 10.031v71c0 5.5111 4.5202 10.031 10.031 10.031h72c5.5111 0 10.031-4.5202 10.031-10.031v-71c0-5.5111-4.5202-10.031-10.031-10.031h-72z" transform="scale(1,-1)"/>
  <path id="path3778" style="opacity:.1;fill:url(#linearGradient3780)" d="m12-94.031c-4.9716 0-9.0312 4.0596-9.0312 9.0312v71c0 4.9716 4.0596 9.0312 9.0312 9.0312h72c4.9716 0 9.0312-4.0596 9.0312-9.0312v-71c0-4.9716-4.0596-9.0312-9.0312-9.0312h-72z" transform="scale(1,-1)"/>
  <path id="path3770" style="opacity:.2;fill:url(#linearGradient3780)" d="m12-93c-4.4091 0-8 3.5909-8 8v71c0 4.4091 3.5909 8 8 8h72c4.4091 0 8-3.5909 8-8v-71c0-4.4091-3.5909-8-8-8h-72z" transform="scale(1,-1)"/>
  <rect id="rect3723" style="opacity:.3;fill:url(#linearGradient3780)" transform="scale(1,-1)" rx="7" ry="7" height="85" width="86" y="-92" x="5"/>
  <rect id="rect3716" style="opacity:.45;fill:url(#linearGradient3721)" transform="scale(1,-1)" rx="6" ry="6" height="84" width="84" y="-91" x="6"/>
 </g>
 <g id="layer1">
  <rect id="rect2419" style="fill:url(#linearGradient3617)" transform="scale(1,-1)" rx="6" ry="6" height="84" width="84" y="-90" x="6"/>
  <g id="g3996" transform="translate(-30)" clip-path="url(#clipPath4000)">
   <path id="path4051" style="fill:url(#radialGradient4004)" d="m61.812 6c-10.565 7.4797-17.814 19.08-17.219 33.062 0.61551 14.47 12.417 28.991 28.5 27.25 9.1883-0.99477 16.536-9.73 11.844-17.188-1.4905-2.369-5.1102-2.5732-6.8125-1.4375 8.1795-0.23077 4.1866 9.5126-3 11-9.8172 2.0318-17.351-7.4544-18.031-16.281-1.2708-16.495 14.681-28.178 29.938-28.125 14.389 0.05043 26.06 8.2959 32.969 19.75v-22.03c0-3.324-2.676-6-6-6h-52.188zm24.031 23.531c-0.47014-0.006-0.95892 0.0088-1.4375 0.03125-0.49402 0.02315-0.99741 0.07059-1.5 0.125-9.1883 0.99477-16.536 9.73-11.844 17.188 1.4905 2.369 5.1102 2.5732 6.8125 1.4375-8.1795 0.23077-4.1866-9.5126 3-11 9.8172-2.0318 17.351 7.4544 18.031 16.281 1.2708 16.495-14.681 28.178-29.938 28.125-14.387-0.051-26.058-8.296-32.967-19.75v22.031c0 3.324 2.676 6 6 6h52.188c10.562-7.48 17.812-19.08 17.222-33.062-0.58-13.58-10.99-27.22-25.566-27.407z"/>
   <path id="path3987" style="opacity:.3;fill:#fff" d="m87.031 14.281c-14.887-0.05217-30.435 11.074-30 26.938 0.2294-15.328 15.429-25.989 30-25.938 14.389 0.05043 26.06 8.2959 32.969 19.75v-1c-6.909-11.454-18.58-19.7-32.969-19.75zm-3.4688 22.75c-0.87646-0.0019-1.7671 0.09076-2.6875 0.28125-4.6524 0.96289-7.9604 5.3756-7.5 8.3125 0.2901-2.8549 3.3492-6.4534 7.5-7.3125 9.8172-2.0318 17.351 7.4544 18.031 16.281 0.03081 0.39995 0.05168 0.79331 0.0625 1.1875 0.01079-0.72085-0.0054-1.4466-0.0625-2.1875-0.616-7.999-6.871-16.543-15.344-16.562zm-38.968 2.031c0.0053 0.33408-0.01433 0.66313 0 1 0.61551 14.47 12.417 28.991 28.5 27.25 7.4525-0.80684 13.692-6.6958 13.281-12.875-0.28988 5.7949-6.2402 11.113-13.281 11.875-16.083 1.7412-27.884-12.78-28.5-27.25zm25.031 3.532c-0.08184 1.7576 0.34734 3.5485 1.4375 5.2812 1.4905 2.369 5.1102 2.5732 6.8125 1.4375-1.0224 0.02885-1.8404-0.09651-2.5-0.34375-1.6071 0.0092-3.381-0.61311-4.3125-2.0938-0.87972-1.3983-1.3371-2.8526-1.4375-4.2812zm11 5.4375c-0.96424 0.0055-1.8616 0.23036-2.5 0.65625 2.8117-0.07933 4.2003 1.0251 4.5 2.5625 0.1032-1.4159-0.47597-2.6475-2-3.2188zm30.815 11.656c-0.4 12.752-7.39 23.329-17.252 30.312h-52.188c-3.324 0-6-2.676-6-6v1c0 3.324 2.676 6 6 6h52.188c10.12-7.1643 17.194-18.115 17.25-31.312z"/>
   <path id="path4006" style="fill:#ce5c00" transform="translate(30)" d="m31.812 5c-10.119 7.164-17.193 18.115-17.25 31.312 0.398-12.752 7.386-23.329 17.25-30.312h52.188c3.324 0 6 2.676 6 6v-1c0-3.324-2.676-6-6-6h-52.188zm24.031 23.531c-0.47014-0.006-0.95892 0.0088-1.4375 0.03125-0.49402 0.02315-0.99741 0.07059-1.5 0.125-7.4525 0.80684-13.692 6.6958-13.281 12.875 0.28988-5.7949 6.2402-11.113 13.281-11.875 0.50259-0.05441 1.006-0.10185 1.5-0.125 0.47858-0.02245 0.96736-0.03725 1.4375-0.03125 14.574 0.1864 24.985 13.826 25.562 27.406-0.0053-0.33408 0.01433-0.66313 0-1-0.576-13.579-10.987-27.219-25.561-27.406zm-28.812 11.688c-0.01079 0.72085 0.0054 1.4466 0.0625 2.1875 0.68003 8.8269 8.2141 18.313 18.031 16.281 4.6524-0.96289 7.9604-5.3756 7.5-8.3125-0.2901 2.8549-3.3492 6.4534-7.5 7.3125-9.8172 2.0318-17.351-7.4544-18.031-16.281-0.03081-0.39995-0.05168-0.79331-0.0625-1.1875zm16.344 4.531c-0.1032 1.4159 0.47597 2.6475 2 3.2188 0.96424-0.0055 1.8616-0.23036 2.5-0.65625-2.8117 0.07933-4.2003-1.0251-4.5-2.5625zm7.25 1.2812c-0.96424 0.0055-1.8616 0.23036-2.5 0.65625 1.0224-0.02885 1.8404 0.09651 2.5 0.34375 1.6071-0.0092 3.381 0.61311 4.3125 2.0938 0.87972 1.3983 1.3371 2.8526 1.4375 4.2812 0.08184-1.7576-0.34734-3.5485-1.4375-5.2812-0.93154-1.4806-2.7054-2.103-4.3125-2.0938zm18.344 8.75c-0.2294 15.328-15.429 25.989-30 25.938-14.389-0.051-26.06-8.296-32.969-19.75v1c6.909 11.454 18.58 19.7 32.969 19.75 14.887 0.05217 30.435-11.074 30-26.938z"/>
   <path id="path4105" style="opacity:.3" transform="translate(30)" d="m31.812 6c-10.119 7.164-17.193 18.115-17.25 31.312 0.398-12.752 7.386-23.329 17.25-30.312l2.0182-1zm24.031 23.531c-0.47014-0.006-0.95892 0.0088-1.4375 0.03125-0.49402 0.02315-0.99741 0.07059-1.5 0.125-7.4525 0.80684-13.692 6.6958-13.281 12.875 0.28988-5.7949 6.2402-11.113 13.281-11.875 0.50259-0.05441 1.006-0.10185 1.5-0.125 0.47858-0.02245 0.96736-0.03725 1.4375-0.03125 14.574 0.1864 24.985 13.826 25.562 27.406-0.0053-0.33408 0.01433-0.66313 0-1-0.576-13.579-10.987-27.219-25.561-27.406zm-28.812 11.688c-0.01079 0.72085 0.0054 1.4466 0.0625 2.1875 0.68003 8.8269 8.2141 18.313 18.031 16.281 4.6524-0.96289 7.9604-5.3756 7.5-8.3125-0.2901 2.8549-3.3492 6.4534-7.5 7.3125-9.8172 2.0318-17.351-7.4544-18.031-16.281-0.03081-0.39995-0.05168-0.79331-0.0625-1.1875zm16.344 4.531c-0.1032 1.4159 0.47597 2.6475 2 3.2188 0.96424-0.0055 1.8616-0.23036 2.5-0.65625-2.8117 0.07933-4.2003-1.0251-4.5-2.5625zm7.25 1.2812c-0.96424 0.0055-1.8616 0.23036-2.5 0.65625 1.0224-0.02885 1.8404 0.09651 2.5 0.34375 1.6071-0.0092 3.381 0.61311 4.3125 2.0938 0.87972 1.3983 1.3371 2.8526 1.4375 4.2812 0.08184-1.7576-0.34734-3.5485-1.4375-5.2812-0.93154-1.4806-2.7054-2.103-4.3125-2.0938zm18.344 8.75c-0.2294 15.328-15.429 25.989-30 25.938-14.389-0.051-26.06-8.296-32.969-19.75v1c6.909 11.454 18.58 19.7 32.969 19.75 14.887 0.05217 30.435-11.074 30-26.938z"/>
  </g>
  <path id="path3976" style="opacity:.74348;color:#000000;fill-rule:evenodd;fill:url(#linearGradient3978)" d="m12 6c-3.324 0-6 2.676-6 6v23c9.2974 2.8578 34.541 6.7296 55.5 4.9062 9.117-0.793 19.861-3.055 28.5-6.031v-21.875c0-3.324-2.676-6-6-6h-72z"/>
  <rect id="rect6469" style="opacity:.18435;color:#000000;fill:url(#linearGradient3974)" height="6.9875" width="33" y="-27.895" x="107.55"/>
  <path id="path6471" style="opacity:.18435;color:#000000;fill:url(#radialGradient3971)" d="m140.55-27.895v6.9871c2.4819 0.01315 6-1.5655 6-3.494 0-1.9286-2.7696-3.4931-6-3.4931z"/>
  <path id="path6473" style="opacity:.18435;color:#000000;fill:url(#radialGradient3968)" d="m107.55-27.882v6.9871c-2.4819 0.01315-6-1.5655-6-3.494 0-1.9286 2.7696-3.4931 6-3.4931z"/>
  <path id="path6475" style="stroke-width:1px;color:#000000;fill-rule:evenodd;stroke:#204a87;fill:url(#linearGradient3955)" d="m136.75-65.395c4.0426 0 7.297 3.249 7.297 7.2849v33.656l-33.695 0.05227c-4.0426-0.000004-7.297-3.249-7.297-7.2849v-33.705l33.695-0.0034z"/>
  <path id="path6183" style="stroke-width:1px;stroke-opacity:.42793;color:#000000;stroke:#fff;fill:none" d="m128.49-60.395c-3.8944 0.05722-7.7659 1.6472-10.875 5.5312-3.1806 3.9734-1.0036 9.8377 1.7812 11.438 2.2518 1.0435 4.9833-1.0545 4.5194-1.004-2.5874 0.28165-3.3677-0.13468-3.8435-1.7137-0.49946-3.6688 1.965-6.815 5.3866-7.1885 5.7784-0.63091 10.288 5.0983 10.75 10.5 0.65165 7.6182-5.265 15.227-12.25 17.406l20.094 0.0253v-27.494c-1.2773-1.4491-2.744-2.7789-4.4375-3.9062-3.2951-2.1934-7.2306-3.651-11.125-3.5938z"/>
  <path id="path6190" style="stroke-width:1px;color:#000000;fill-rule:evenodd;stroke:#ce5c00;fill:url(#linearGradient3951)" d="m128.48-59.389c-3.8944 0.05722-7.7659 1.6472-10.875 5.5312-3.1806 3.9734-0.91462 9.5559 1.8702 11.156 2.2518 1.0435 4.2269-0.68374 4.5194-1.7901-0.80757 0.37064-3.4122 0.39926-3.888-1.1798-0.49945-3.6688 1.9205-6.281 5.3421-6.6546 5.7784-0.63091 10.288 5.0983 10.75 10.5 0.65166 7.6182-5.265 15.227-12.25 17.406l20.094 0.0253v-27.494c-1.2773-1.4491-2.7439-2.7789-4.4375-3.9062-3.2951-2.1934-7.2306-3.651-11.125-3.5938z"/>
  <path id="path6188" style="stroke-width:1px;stroke-opacity:.46847;color:#000000;stroke:#fff;fill:none" d="m118.61-31.396c3.8944-0.05722 7.7659-1.6472 10.875-5.5312 3.1806-3.9734 0.91462-9.5559-1.8702-11.156-2.2518-1.0435-4.2269 0.68374-4.5194 1.7901 0.80757-0.37064 3.4567-0.93319 3.9324 0.64582 0.49946 3.6688-1.965 6.815-5.3866 7.1885-5.7784 0.63091-10.288-5.0983-10.75-10.5-0.65166-7.6182 5.265-14.227 12.25-16.406l-20.094-0.0253v26.494c1.2773 1.4491 2.7439 2.7789 4.4375 3.9062 3.2951 2.1934 7.2306 3.651 11.125 3.5938z"/>
  <path id="path6192" style="stroke-width:1px;stroke-opacity:.30631;color:#000000;stroke:#fff;fill:none" d="m128.55-58.395c-3.6147 0.054-7.4142 1.4644-10.226 5.1866-2.2585 2.9898-1.1054 9.2671 3.1136 9.9273-4.7219-1.6769-2.3491-9.5471 4.6952-10.101 5.8988-0.46374 10.639 6.4626 11.068 11.56 0.60485 7.189-4.0653 13.477-8.9879 16.426l14.778-0.01209 0.004-25.909c-1.1855-1.3675-2.5468-2.6224-4.1187-3.6862-3.0584-2.0698-6.7112-3.4453-10.326-3.3913z"/>
  <path id="path6167" style="stroke-width:1px;color:#000000;fill-rule:evenodd;stroke:#ce5c00;fill:url(#linearGradient3946)" d="m118.61-30.396c3.8944-0.05722 7.7659-1.6472 10.875-5.5312 3.1806-3.9734 0.91462-9.5559-1.8702-11.156-2.2518-1.0435-4.2269 0.68374-4.5194 1.7901 0.80757-0.37064 3.4221-0.54757 3.8978 1.0314 0.49945 3.6688-1.9304 6.4293-5.352 6.8029-5.7784 0.63091-10.288-5.0983-10.75-10.5-0.65166-7.6182 5.265-15.227 12.25-17.406l-20.094-0.0253v27.494c1.2773 1.4491 2.7439 2.7789 4.4375 3.9062 3.2951 2.1934 7.2306 3.651 11.125 3.5938z"/>
  <path id="path6169" style="stroke-width:1px;stroke-opacity:.30631;color:#000000;stroke:#fff;fill:none" d="m118.5-31.398c3.6147-0.054 7.4142-1.4644 10.226-5.1866 2.2585-2.9898 1.4317-8.8617-2.7626-9.9768 4.2424 1.6175 2.1167 9.8932-5.0463 10.15-5.9132 0.21288-10.639-6.4626-11.068-11.56-0.60486-7.189 4.0653-13.477 8.9879-16.426l-14.778 0.01209-0.004 25.909c1.1855 1.3675 2.5469 2.6224 4.1188 3.6862 3.0584 2.0698 6.7112 3.4453 10.326 3.3913z"/>
  <path id="path6489" style="stroke-opacity:.37387;color:#000000;stroke:#fff;fill:none" d="m105.92-64.38h31.342c2.4765 0 5.7915 2.942 5.7915 5.4169v32.416c-0.0858 1.4455 0.26669 1.1218-1.6948 1.1218l-31.557 0.03915c-2.4765 0-5.7282-2.713-5.7282-5.8442v-31.885c0-1.5094-0.34442-1.2647 1.8472-1.2647z"/>
  <path id="path6491" style="opacity:.65066;color:#000000;fill-rule:evenodd;fill:url(#linearGradient3941)" d="m123.42-33.895c-7.8365 0-15.041 1.0031-20.872 2.6816v0.08486c0 3.5397 3.5672 7.2335 7.4908 7.2335l33.509-0.06525c1.0296 0 1.0221 0.0046 1.0003-1.7298v-5.4686c-5.8685-1.7172-13.193-2.7363-21.128-2.7363z"/>
  <path id="path6511" style="opacity:.74348;color:#000000;fill-rule:evenodd;fill:url(#linearGradient3938)" d="m103.55-64.895v12.798c3.7949 1.1664 14.098 2.7553 22.652 2.0111 6.4126-0.55786 14.82-2.8926 17.348-5.4393v-2.8447c0-3.6166-3.1902-6.5249-7.1342-6.5249h-32.866z"/>
  <path id="path3148" style="fill:#00f" d="m-70.5-3.125c-22.884 0.40039-45.95 17.646-44.906 42.188 0.61551 14.47 12.417 28.991 28.5 27.25 9.1883-0.99477 16.542-9.7403 11.85-17.198-1.4905-2.369-5.1163-2.563-6.8186-1.4273 8.1795-0.23077 4.1866 9.5126-3 11-9.8172 2.0318-17.351-7.4544-18.031-16.281-1.2708-16.495 14.681-28.178 29.938-28.125 21.964 0.07697 37.562 19.221 39.625 39.781h20.5l-18.812-41.844c-9.973-9.1762-23.054-14.929-36.657-15.344-0.73704-0.022463-1.4493-0.012916-2.1875 0z"/>
  <path id="path3150" style="fill:#00f" d="m-93.5 99.125c22.884-0.40038 45.95-17.646 44.906-42.188-0.61551-14.47-12.417-28.991-28.5-27.25-9.1883 0.99477-16.542 9.7403-11.85 17.198 1.4905 2.369 5.1163 2.563 6.8186 1.4273-8.1795 0.23077-4.1866-9.5126 3-11 9.8172-2.0318 17.351 7.4544 18.031 16.281 1.2708 16.495-14.681 28.178-29.938 28.125-21.964-0.07697-37.562-19.221-39.625-39.781h-20.5l18.812 41.844c9.9721 9.176 23.052 14.929 36.656 15.344 0.73704 0.02246 1.4493 0.01292 2.1875 0z"/>
  <g id="g4096" transform="translate(-100)" clip-path="url(#clipPath4101)">
   <path id="path4058" style="opacity:.1;stroke:#000;stroke-width:4;fill:none" d="m145.88-6.0625-14.062 12 0.75 0.0625h-0.75c-10.565 7.4797-17.814 19.08-17.219 33.062 0.61551 14.47 12.417 28.991 28.5 27.25 9.1883-0.99477 16.536-9.73 11.844-17.188-1.4905-2.369-5.1102-2.5732-6.8125-1.4375 8.1795-0.23077 4.1866 9.5126-3 11-9.8172 2.0318-17.351-7.4544-18.031-16.281-1.2708-16.495 14.681-28.178 29.938-28.125 14.339 0.05025 25.988 8.2332 32.906 19.625l0.06 0.095v0.03125l7.8125 12.719 7.875-52.312zm9.9688 35.594c-0.47014-0.006-0.95892 0.0088-1.4375 0.03125-0.49402 0.02315-0.99741 0.07059-1.5 0.125-9.1883 0.99477-16.536 9.73-11.844 17.188 1.4905 2.369 5.1102 2.5732 6.8125 1.4375-8.1795 0.23077-4.1866-9.5126 3-11 9.8172-2.0318 17.351 7.4544 18.031 16.281 1.2708 16.495-14.681 28.178-29.938 28.125-14.39-0.052-26.06-8.297-32.97-19.751v0.28125l-7.8125-12.719-7.875 52.312 59.812 0.5 14.07-12.34c10.56-7.48 17.81-19.08 17.22-33.062-0.58-13.58-10.99-27.22-25.57-27.407z"/>
   <path id="path4060" style="opacity:.05;stroke:#000;stroke-width:6;fill:none" d="m145.88-6.0625-14.062 12 0.75 0.0625h-0.75c-10.565 7.4797-17.814 19.08-17.219 33.062 0.61551 14.47 12.417 28.991 28.5 27.25 9.1883-0.99477 16.536-9.73 11.844-17.188-1.4905-2.369-5.1102-2.5732-6.8125-1.4375 8.1795-0.23077 4.1866 9.5126-3 11-9.8172 2.0318-17.351-7.4544-18.031-16.281-1.2708-16.495 14.681-28.178 29.938-28.125 14.339 0.05025 25.988 8.2332 32.906 19.625l0.06 0.095v0.03125l7.8125 12.719 7.875-52.312zm9.9688 35.594c-0.47014-0.006-0.95892 0.0088-1.4375 0.03125-0.49402 0.02315-0.99741 0.07059-1.5 0.125-9.1883 0.99477-16.536 9.73-11.844 17.188 1.4905 2.369 5.1102 2.5732 6.8125 1.4375-8.1795 0.23077-4.1866-9.5126 3-11 9.8172-2.0318 17.351 7.4544 18.031 16.281 1.2708 16.495-14.681 28.178-29.938 28.125-14.39-0.052-26.06-8.297-32.97-19.751v0.28125l-7.8125-12.719-7.875 52.312 59.812 0.5 14.07-12.34c10.56-7.48 17.81-19.08 17.22-33.062-0.58-13.58-10.99-27.22-25.57-27.407z"/>
   <path id="path4051-8" style="opacity:.2;stroke:#000;stroke-width:2;fill:none" d="m145.88-6.0625-14.062 12 0.75 0.0625h-0.75c-10.565 7.4797-17.814 19.08-17.219 33.062 0.61551 14.47 12.417 28.991 28.5 27.25 9.1883-0.99477 16.536-9.73 11.844-17.188-1.4905-2.369-5.1102-2.5732-6.8125-1.4375 8.1795-0.23077 4.1866 9.5126-3 11-9.8172 2.0318-17.351-7.4544-18.031-16.281-1.2708-16.495 14.681-28.178 29.938-28.125 14.339 0.05025 25.988 8.2332 32.906 19.625l0.06 0.095v0.03125l7.8125 12.719 7.875-52.312zm9.9688 35.594c-0.47014-0.006-0.95892 0.0088-1.4375 0.03125-0.49402 0.02315-0.99741 0.07059-1.5 0.125-9.1883 0.99477-16.536 9.73-11.844 17.188 1.4905 2.369 5.1102 2.5732 6.8125 1.4375-8.1795 0.23077-4.1866-9.5126 3-11 9.8172-2.0318 17.351 7.4544 18.031 16.281 1.2708 16.495-14.681 28.178-29.938 28.125-14.39-0.052-26.06-8.297-32.97-19.751v0.28125l-7.8125-12.719-7.875 52.312 59.812 0.5 14.07-12.34c10.56-7.48 17.81-19.08 17.22-33.062-0.58-13.58-10.99-27.22-25.57-27.407z"/>
  </g>
  <path id="rect3728" style="opacity:.5;fill:url(#linearGradient3188)" d="m12 6c-3.324 0-6 2.676-6 6v2 68 2c0 0.33472 0.04135 0.6507 0.09375 0.96875 0.0487 0.2956 0.09704 0.59692 0.1875 0.875 0.00988 0.03038 0.020892 0.0636 0.03125 0.09375 0.098865 0.28777 0.23488 0.54745 0.375 0.8125 0.14459 0.27351 0.31562 0.53562 0.5 0.78125 0.18438 0.24564 0.37378 0.47347 0.59375 0.6875 0.43995 0.42806 0.94291 0.81453 1.5 1.0938 0.27854 0.13961 0.57347 0.24695 0.875 0.34375-0.2562-0.10022-0.48671-0.23627-0.71875-0.375-0.00741-0.0044-0.023866 0.0045-0.03125 0-0.031933-0.0193-0.062293-0.04251-0.09375-0.0625-0.1204-0.0767-0.23102-0.16351-0.34375-0.25-0.10617-0.0808-0.21328-0.16111-0.3125-0.25-0.1778-0.162-0.3473-0.346-0.4999-0.531-0.1075-0.131-0.2183-0.266-0.3124-0.407-0.0251-0.038-0.0385-0.086-0.0626-0.125-0.0647-0.103-0.1302-0.204-0.1874-0.312-0.1011-0.195-0.2057-0.416-0.2813-0.625-0.008-0.022-0.0236-0.041-0.0313-0.063-0.0318-0.092-0.0358-0.187-0.0624-0.281-0.0304-0.107-0.0704-0.203-0.0938-0.313-0.0729-0.341-0.125-0.698-0.125-1.062v-2-68-2c0-2.782 2.2182-5 5-5h2 68 2c2.7818 0 5 2.2182 5 5v2 68 2c0 0.3643-0.05212 0.72099-0.125 1.0625-0.04415 0.20689-0.08838 0.39766-0.15625 0.59375-0.0077 0.02195-0.0233 0.04069-0.03125 0.0625-0.06274 0.17374-0.13838 0.36745-0.21875 0.53125-0.04158 0.0828-0.07904 0.16995-0.125 0.25-0.0546 0.09721-0.12677 0.18835-0.1875 0.28125-0.09411 0.14096-0.20492 0.276-0.3125 0.40625-0.14317 0.17445-0.30314 0.347-0.46875 0.5-0.01117 0.0102-0.01998 0.02115-0.03125 0.03125-0.13839 0.12556-0.28509 0.23444-0.4375 0.34375-0.10257 0.07315-0.20432 0.15336-0.3125 0.21875-0.0074 0.0045-0.02384-0.0044-0.03125 0-0.23204 0.13873-0.46255 0.27478-0.71875 0.375 0.30153-0.0968 0.59646-0.20414 0.875-0.34375 0.55709-0.27922 1.0601-0.66569 1.5-1.0938 0.21997-0.21403 0.40937-0.44186 0.59375-0.6875s0.35541-0.50774 0.5-0.78125c0.14012-0.26505 0.27614-0.52473 0.375-0.8125 0.01041-0.03078 0.02133-0.06274 0.03125-0.09375 0.09046-0.27808 0.1388-0.5794 0.1875-0.875 0.053-0.318 0.094-0.634 0.094-0.969v-2-68-2c0-3.324-2.676-6-6-6h-72z"/>
  <path id="path3615" style="opacity:.2;fill:url(#radialGradient3619)" d="m12 90c-3.324 0-6-2.676-6-6v-2-68-2c0-0.33472 0.04135-0.6507 0.09375-0.96875 0.0487-0.2956 0.09704-0.59692 0.1875-0.875 0.0099-0.03 0.0209-0.063 0.0313-0.094 0.0989-0.2873 0.2349-0.547 0.375-0.812 0.1446-0.2735 0.3156-0.5356 0.5-0.7812 0.1844-0.2457 0.3738-0.4735 0.5937-0.6876 0.44-0.428 0.943-0.8145 1.5-1.0937 0.2786-0.1396 0.5735-0.2469 0.8748-0.3437-0.256 0.1002-0.4865 0.2362-0.7185 0.375-0.00741 0.0044-0.023866-0.0045-0.03125 0-0.031933 0.0193-0.062293 0.04251-0.09375 0.0625-0.1204 0.0767-0.23102 0.16351-0.34375 0.25-0.10617 0.0808-0.21328 0.16111-0.3125 0.25-0.1779 0.1614-0.3474 0.3453-0.5 0.5312-0.1075 0.1303-0.2183 0.2653-0.3124 0.4063-0.0251 0.0383-0.0385 0.0858-0.0626 0.125-0.0647 0.103-0.1302 0.2045-0.1874 0.3124-0.1011 0.1948-0.2057 0.4158-0.2813 0.625-0.008 0.0219-0.0236 0.0406-0.0313 0.0626-0.0318 0.0919-0.0358 0.1868-0.0624 0.2812-0.0304 0.1066-0.0704 0.203-0.0938 0.3125-0.0729 0.3415-0.125 0.6985-0.125 1.0625v2 68 2c0 2.7818 2.2182 5 5 5h2 68 2c2.7818 0 5-2.2182 5-5v-2-68-2c0-0.364-0.052-0.721-0.125-1.0625-0.044-0.2069-0.088-0.3977-0.156-0.5937-0.008-0.022-0.024-0.0407-0.031-0.0626-0.063-0.1737-0.139-0.3674-0.219-0.5312-0.042-0.0828-0.079-0.17-0.125-0.25-0.055-0.0972-0.127-0.1884-0.188-0.2812-0.094-0.141-0.205-0.276-0.312-0.4063-0.143-0.1745-0.303-0.347-0.469-0.5-0.011-0.0102-0.02-0.0211-0.031-0.0313-0.139-0.1255-0.285-0.2344-0.438-0.3437-0.102-0.0731-0.204-0.1534-0.312-0.2187-0.0074-0.0045-0.02384 0.0044-0.03125 0-0.23204-0.13873-0.46255-0.27478-0.71875-0.375 0.30153 0.0968 0.59646 0.20414 0.875 0.34375 0.55709 0.27922 1.0601 0.66569 1.5 1.0938 0.21997 0.21403 0.40937 0.44186 0.59375 0.6875s0.35541 0.50774 0.5 0.78125c0.14012 0.26505 0.27614 0.52473 0.375 0.8125 0.01041 0.03078 0.02133 0.06274 0.03125 0.09375 0.09046 0.27808 0.1388 0.5794 0.1875 0.875 0.053 0.318 0.094 0.634 0.094 0.969v2 68 2c0 3.324-2.676 6-6 6h-72z"/>
 </g>
 <g id="layer5">
  <rect id="rect3171" style="opacity:.1;filter:url(#filter3794);stroke:#fff;stroke-linecap:round;stroke-width:.5;fill:url(#linearGradient3613)" clip-path="url(#clipPath3613)" rx="12" ry="12" height="66" width="66" y="15" x="15"/>
 </g>
</svg>
