<?xml version="1.0" encoding="UTF-8" standalone="no"?>
<!-- Created with Inkscape (http://www.inkscape.org/) -->
<svg id="svg2408" xmlns:rdf="http://www.w3.org/1999/02/22-rdf-syntax-ns#" xmlns="http://www.w3.org/2000/svg" height="96" width="96" version="1.0" xmlns:cc="http://creativecommons.org/ns#" xmlns:xlink="http://www.w3.org/1999/xlink" xmlns:dc="http://purl.org/dc/elements/1.1/">
 <defs id="defs2410">
  <linearGradient id="linearGradient3800">
   <stop id="stop3802" style="stop-color:#005b59" offset="0"/>
   <stop id="stop3804" style="stop-color:#00555b;stop-opacity:0" offset="1"/>
  </linearGradient>
  <linearGradient id="ButtonShadow" y2="7.0165" gradientUnits="userSpaceOnUse" x2="45.448" gradientTransform="scale(1.0059 .99417)" y1="92.54" x1="45.448">
   <stop id="stop3750" offset="0"/>
   <stop id="stop3752" style="stop-opacity:.58824" offset="1"/>
  </linearGradient>
  <linearGradient id="linearGradient3737">
   <stop id="stop3739" style="stop-color:#fff" offset="0"/>
   <stop id="stop3741" style="stop-color:#fff;stop-opacity:0" offset="1"/>
  </linearGradient>
  <filter id="filter3174" color-interpolation-filters="sRGB">
   <feGaussianBlur id="feGaussianBlur3176" stdDeviation="1.71"/>
  </filter>
  <linearGradient id="linearGradient3188" y2="63.893" xlink:href="#linearGradient3737" gradientUnits="userSpaceOnUse" x2="36.357" y1="6" x1="36.357"/>
  <filter id="filter3794" height="1.384" width="1.384" color-interpolation-filters="sRGB" y="-.192" x="-.192">
   <feGaussianBlur id="feGaussianBlur3796" stdDeviation="5.28"/>
  </filter>
  <linearGradient id="linearGradient3613" y2="138.66" xlink:href="#linearGradient3737" gradientUnits="userSpaceOnUse" x2="48" y1="20.221" x1="48"/>
  <radialGradient id="radialGradient3619" gradientUnits="userSpaceOnUse" cy="90.172" cx="48" gradientTransform="matrix(1.1573 0 0 .99591 -7.551 .19713)" r="42">
   <stop id="stop3706" style="stop-color:#34b5d8" offset="0"/>
   <stop id="stop3708" style="stop-color:#fff;stop-opacity:0" offset="1"/>
  </radialGradient>
  <clipPath id="clipPath3613">
   <rect id="rect3615" style="fill:#fff" rx="6" ry="6" height="84" width="84" y="6" x="6"/>
  </clipPath>
  <clipPath id="clipPath3644">
   <path id="path3646" style="fill:url(#linearGradient3648)" d="m12 96c-3.324 0-6 2.676-6 6v72c0 3.324 2.676 6 6 6h72c3.324 0 6-2.676 6-6v-72c0-3.324-2.676-6-6-6h-72zm36 11c18.225 0 33 12.088 33 27s-14.775 27-33 27c-2.7139 0-5.3515-0.27575-7.875-0.78125-3.3926 3.5412-9.7833 8.2333-19.406 7.1875 7.4297-2.1002 8.9991-8.2412 9.3438-10.75-9.063-4.82-15.063-13.16-15.063-22.66 0-14.91 14.775-27 33-27z"/>
  </clipPath>
  <linearGradient id="linearGradient3648" y2="5.9877" gradientUnits="userSpaceOnUse" x2="48" gradientTransform="translate(0,90)" y1="90" x1="48">
   <stop id="stop3616" style="stop-color:#064096" offset="0"/>
   <stop id="stop3618" style="stop-color:#4484e5" offset="1"/>
  </linearGradient>
  <filter id="filter3678" height="1.3762" width="1.3451" color-interpolation-filters="sRGB" y="-.18809" x="-.17257">
   <feGaussianBlur id="feGaussianBlur3680" stdDeviation="4.745809"/>
  </filter>
  <linearGradient id="linearGradient3724" y2="8.3281" gradientUnits="userSpaceOnUse" x2="53.195" y1="89.17" x1="53.195">
   <stop id="stop3720" style="stop-color:#269ebf" offset="0"/>
   <stop id="stop3722" style="stop-color:#67c7e1" offset="1"/>
  </linearGradient>
  <linearGradient id="linearGradient3732" y2="47.277" gradientUnits="userSpaceOnUse" x2="130.71" y1="47.277" x1="15">
   <stop id="stop3728" style="stop-color:#08a" offset="0"/>
   <stop id="stop3730" style="stop-color:#08a;stop-opacity:0" offset="1"/>
  </linearGradient>
  <radialGradient id="radialGradient2899" gradientUnits="userSpaceOnUse" cy="90.172" cx="48" gradientTransform="matrix(1.1573 0 0 .99591 -7.551 .19713)" r="42">
   <stop id="stop3739-7" style="stop-color:#fff" offset="0"/>
   <stop id="stop3741-7" style="stop-color:#fff;stop-opacity:0" offset="1"/>
  </radialGradient>
  <linearGradient id="ButtonShadow-0" y2="7.0165" gradientUnits="userSpaceOnUse" x2="45.448" gradientTransform="matrix(1.0059 0 0 .99417 100 0)" y1="92.54" x1="45.448">
   <stop id="stop3750-8" offset="0"/>
   <stop id="stop3752-5" style="stop-opacity:.58824" offset="1"/>
  </linearGradient>
  <linearGradient id="linearGradient3780" y2="90.239" xlink:href="#ButtonShadow-0" gradientUnits="userSpaceOnUse" x2="32.251" gradientTransform="matrix(1.0238 0 0 1.0119 -1.1429 -98.071)" y1="6.1317" x1="32.251"/>
  <linearGradient id="linearGradient3721" y2="90.239" xlink:href="#ButtonShadow-0" gradientUnits="userSpaceOnUse" x2="32.251" gradientTransform="translate(0,-97)" y1="6.1317" x1="32.251"/>
  <linearGradient id="linearGradient3830" y2="24.984" xlink:href="#linearGradient3800" gradientUnits="userSpaceOnUse" x2="49" y1="56" x1="49"/>
 </defs>
 <metadata id="metadata2413">
  <rdf:RDF>
   <cc:Work rdf:about="">
    <dc:format>image/svg+xml</dc:format>
    <dc:type rdf:resource="http://purl.org/dc/dcmitype/StillImage"/>
    <dc:title/>
   </cc:Work>
  </rdf:RDF>
 </metadata>
 <g id="layer2" style="display:none">
  <rect id="rect3745" style="opacity:.9;filter:url(#filter3174);fill:url(#ButtonShadow)" rx="6" ry="6" height="85" width="86" y="7" x="5"/>
 </g>
 <g id="layer6">
  <path id="path3786" style="opacity:0.08;fill:url(#linearGradient3780)" d="m12-95.031c-5.5111 0-10.031 4.5202-10.031 10.031v71c0 5.5111 4.5202 10.031 10.031 10.031h72c5.5111 0 10.031-4.5202 10.031-10.031v-71c0-5.5111-4.5202-10.031-10.031-10.031h-72z" transform="scale(1,-1)"/>
  <path id="path3778" style="opacity:.1;fill:url(#linearGradient3780)" d="m12-94.031c-4.9716 0-9.0312 4.0596-9.0312 9.0312v71c0 4.9716 4.0596 9.0312 9.0312 9.0312h72c4.9716 0 9.0312-4.0596 9.0312-9.0312v-71c0-4.9716-4.0596-9.0312-9.0312-9.0312h-72z" transform="scale(1,-1)"/>
  <path id="path3770" style="opacity:.2;fill:url(#linearGradient3780)" d="m12-93c-4.4091 0-8 3.5909-8 8v71c0 4.4091 3.5909 8 8 8h72c4.4091 0 8-3.5909 8-8v-71c0-4.4091-3.5909-8-8-8h-72z" transform="scale(1,-1)"/>
  <rect id="rect3723" style="opacity:.3;fill:url(#linearGradient3780)" transform="scale(1,-1)" rx="7" ry="7" height="85" width="86" y="-92" x="5"/>
  <rect id="rect3716" style="opacity:.45;fill:url(#linearGradient3721)" transform="scale(1,-1)" rx="6" ry="6" height="84" width="84" y="-91" x="6"/>
 </g>
 <g id="layer1">
  <path id="path3615" style="opacity:.2;fill:url(#radialGradient3619)" d="m12 90c-3.324 0-6-2.676-6-6v-2-68-2c0-0.33472 0.04135-0.6507 0.09375-0.96875 0.0487-0.2956 0.09704-0.59692 0.1875-0.875 0.0099-0.03 0.0209-0.063 0.0313-0.094 0.0989-0.2873 0.2349-0.547 0.375-0.812 0.1446-0.2735 0.3156-0.5356 0.5-0.7812 0.1844-0.2457 0.3738-0.4735 0.5937-0.6876 0.44-0.428 0.943-0.8145 1.5-1.0937 0.2786-0.1396 0.5735-0.2469 0.8748-0.3437-0.256 0.1002-0.4865 0.2362-0.7185 0.375-0.00741 0.0044-0.023866-0.0045-0.03125 0-0.031933 0.0193-0.062293 0.04251-0.09375 0.0625-0.1204 0.0767-0.23102 0.16351-0.34375 0.25-0.10617 0.0808-0.21328 0.16111-0.3125 0.25-0.1779 0.1614-0.3474 0.3453-0.5 0.5312-0.1075 0.1303-0.2183 0.2653-0.3124 0.4063-0.0251 0.0383-0.0385 0.0858-0.0626 0.125-0.0647 0.103-0.1302 0.2045-0.1874 0.3124-0.1011 0.1948-0.2057 0.4158-0.2813 0.625-0.008 0.0219-0.0236 0.0406-0.0313 0.0626-0.0318 0.0919-0.0358 0.1868-0.0624 0.2812-0.0304 0.1066-0.0704 0.203-0.0938 0.3125-0.0729 0.3415-0.125 0.6985-0.125 1.0625v2 68 2c0 2.7818 2.2182 5 5 5h2 68 2c2.7818 0 5-2.2182 5-5v-2-68-2c0-0.364-0.052-0.721-0.125-1.0625-0.044-0.2069-0.088-0.3977-0.156-0.5937-0.008-0.022-0.024-0.0407-0.031-0.0626-0.063-0.1737-0.139-0.3674-0.219-0.5312-0.042-0.0828-0.079-0.17-0.125-0.25-0.055-0.0972-0.127-0.1884-0.188-0.2812-0.094-0.141-0.205-0.276-0.312-0.4063-0.143-0.1745-0.303-0.347-0.469-0.5-0.011-0.0102-0.02-0.0211-0.031-0.0313-0.139-0.1255-0.285-0.2344-0.438-0.3437-0.102-0.0731-0.204-0.1534-0.312-0.2187-0.0074-0.0045-0.02384 0.0044-0.03125 0-0.23204-0.13873-0.46255-0.27478-0.71875-0.375 0.30153 0.0968 0.59646 0.20414 0.875 0.34375 0.55709 0.27922 1.0601 0.66569 1.5 1.0938 0.21997 0.21403 0.40937 0.44186 0.59375 0.6875s0.35541 0.50774 0.5 0.78125c0.14012 0.26505 0.27614 0.52473 0.375 0.8125 0.01041 0.03078 0.02133 0.06274 0.03125 0.09375 0.09046 0.27808 0.1388 0.5794 0.1875 0.875 0.053 0.318 0.094 0.634 0.094 0.969v2 68 2c0 3.324-2.676 6-6 6h-72z"/>
  <rect id="rect2419" style="fill:url(#linearGradient3724)" rx="6" ry="6" height="84" width="84" y="6" x="6"/>
  <path id="rect3728" style="opacity:.4;fill:url(#linearGradient3188)" d="m12 6c-3.324 0-6 2.676-6 6v2 68 2c0 0.33472 0.04135 0.6507 0.09375 0.96875 0.0487 0.2956 0.09704 0.59692 0.1875 0.875 0.00988 0.03038 0.020892 0.0636 0.03125 0.09375 0.098865 0.28777 0.23488 0.54745 0.375 0.8125 0.14459 0.27351 0.31562 0.53562 0.5 0.78125 0.18438 0.24564 0.37378 0.47347 0.59375 0.6875 0.43995 0.42806 0.94291 0.81453 1.5 1.0938 0.27854 0.13961 0.57347 0.24695 0.875 0.34375-0.2562-0.10022-0.48671-0.23627-0.71875-0.375-0.00741-0.0044-0.023866 0.0045-0.03125 0-0.031933-0.0193-0.062293-0.04251-0.09375-0.0625-0.1204-0.0767-0.23102-0.16351-0.34375-0.25-0.10617-0.0808-0.21328-0.16111-0.3125-0.25-0.1778-0.162-0.3473-0.346-0.4999-0.531-0.1075-0.131-0.2183-0.266-0.3124-0.407-0.0251-0.038-0.0385-0.086-0.0626-0.125-0.0647-0.103-0.1302-0.204-0.1874-0.312-0.1011-0.195-0.2057-0.416-0.2813-0.625-0.008-0.022-0.0236-0.041-0.0313-0.063-0.0318-0.092-0.0358-0.187-0.0624-0.281-0.0304-0.107-0.0704-0.203-0.0938-0.313-0.0729-0.341-0.125-0.698-0.125-1.062v-2-68-2c0-2.782 2.2182-5 5-5h2 68 2c2.7818 0 5 2.2182 5 5v2 68 2c0 0.3643-0.05212 0.72099-0.125 1.0625-0.04415 0.20689-0.08838 0.39766-0.15625 0.59375-0.0077 0.02195-0.0233 0.04069-0.03125 0.0625-0.06274 0.17374-0.13838 0.36745-0.21875 0.53125-0.04158 0.0828-0.07904 0.16995-0.125 0.25-0.0546 0.09721-0.12677 0.18835-0.1875 0.28125-0.09411 0.14096-0.20492 0.276-0.3125 0.40625-0.14317 0.17445-0.30314 0.347-0.46875 0.5-0.01117 0.0102-0.01998 0.02115-0.03125 0.03125-0.13839 0.12556-0.28509 0.23444-0.4375 0.34375-0.10257 0.07315-0.20432 0.15336-0.3125 0.21875-0.0074 0.0045-0.02384-0.0044-0.03125 0-0.23204 0.13873-0.46255 0.27478-0.71875 0.375 0.30153-0.0968 0.59646-0.20414 0.875-0.34375 0.55709-0.27922 1.0601-0.66569 1.5-1.0938 0.21997-0.21403 0.40937-0.44186 0.59375-0.6875s0.35541-0.50774 0.5-0.78125c0.14012-0.26505 0.27614-0.52473 0.375-0.8125 0.01041-0.03078 0.02133-0.06274 0.03125-0.09375 0.09046-0.27808 0.1388-0.5794 0.1875-0.875 0.053-0.318 0.094-0.634 0.094-0.969v-2-68-2c0-3.324-2.676-6-6-6h-72z"/>
  <path id="path3615-5" style="opacity:.2;fill:url(#radialGradient2899)" d="m12 90c-3.324 0-6-2.676-6-6v-2-68-2c0-0.33472 0.04135-0.6507 0.09375-0.96875 0.0487-0.2956 0.09704-0.59692 0.1875-0.875 0.0099-0.03 0.0209-0.063 0.0313-0.094 0.0989-0.2873 0.2349-0.547 0.375-0.812 0.1446-0.2735 0.3156-0.5356 0.5-0.7812 0.1844-0.2457 0.3738-0.4735 0.5937-0.6876 0.44-0.428 0.943-0.8145 1.5-1.0937 0.2786-0.1396 0.5735-0.2469 0.8748-0.3437-0.256 0.1002-0.4865 0.2362-0.7185 0.375-0.00741 0.0044-0.023866-0.0045-0.03125 0-0.031933 0.0193-0.062293 0.04251-0.09375 0.0625-0.1204 0.0767-0.23102 0.16351-0.34375 0.25-0.10617 0.0808-0.21328 0.16111-0.3125 0.25-0.1779 0.1614-0.3474 0.3453-0.5 0.5312-0.1075 0.1303-0.2183 0.2653-0.3124 0.4063-0.0251 0.0383-0.0385 0.0858-0.0626 0.125-0.0647 0.103-0.1302 0.2045-0.1874 0.3124-0.1011 0.1948-0.2057 0.4158-0.2813 0.625-0.008 0.0219-0.0236 0.0406-0.0313 0.0626-0.0318 0.0919-0.0358 0.1868-0.0624 0.2812-0.0304 0.1066-0.0704 0.203-0.0938 0.3125-0.0729 0.3415-0.125 0.6985-0.125 1.0625v2 68 2c0 2.7818 2.2182 5 5 5h2 68 2c2.7818 0 5-2.2182 5-5v-2-68-2c0-0.364-0.052-0.721-0.125-1.0625-0.044-0.2069-0.088-0.3977-0.156-0.5937-0.008-0.022-0.024-0.0407-0.031-0.0626-0.063-0.1737-0.139-0.3674-0.219-0.5312-0.042-0.0828-0.079-0.17-0.125-0.25-0.055-0.0972-0.127-0.1884-0.188-0.2812-0.094-0.141-0.205-0.276-0.312-0.4063-0.143-0.1745-0.303-0.347-0.469-0.5-0.011-0.0102-0.02-0.0211-0.031-0.0313-0.139-0.1255-0.285-0.2344-0.438-0.3437-0.102-0.0731-0.204-0.1534-0.312-0.2187-0.0074-0.0045-0.02384 0.0044-0.03125 0-0.23204-0.13873-0.46255-0.27478-0.71875-0.375 0.30153 0.0968 0.59646 0.20414 0.875 0.34375 0.55709 0.27922 1.0601 0.66569 1.5 1.0938 0.21997 0.21403 0.40937 0.44186 0.59375 0.6875s0.35541 0.50774 0.5 0.78125c0.14012 0.26505 0.27614 0.52473 0.375 0.8125 0.01041 0.03078 0.02133 0.06274 0.03125 0.09375 0.09046 0.27808 0.1388 0.5794 0.1875 0.875 0.053 0.318 0.094 0.634 0.094 0.969v2 68 2c0 3.324-2.676 6-6 6h-72z"/>
 </g>
 <g id="layer3">
  <path id="path3642" style="opacity:.2;filter:url(#filter3678);fill:#fff" d="m48 107c-18.225 0-33 12.088-33 27 0 9.4984 5.9998 17.843 15.062 22.656-0.34462 2.5088-1.914 8.6498-9.3438 10.75 9.6229 1.0458 16.014-3.6463 19.406-7.1875 2.525 0.5 5.162 0.78 7.876 0.78 18.225 0 33-12.09 33-27s-14.775-27-33-27z" clip-path="url(#clipPath3644)" transform="translate(0,-90)"/>
  <path id="path3625" style="opacity:.4;fill:#d40000" d="m-52 17c-18.225 0-33 12.088-33 27 0 9.4984 5.9998 17.843 15.062 22.656-0.34462 2.5088-1.914 8.6498-9.3438 10.75 9.6229 1.0458 16.014-3.6463 19.406-7.1875 2.525 0.506 5.162 0.782 7.876 0.782 18.225 0 33-12.088 33-27s-14.775-27-33-27z"/>
  <path id="path3620" style="opacity:.6;fill:url(#linearGradient3732)" d="m48 17c-18.225 0-33 12.088-33 27 0 9.4984 5.9998 17.843 15.062 22.656-0.34462 2.5088-1.914 8.6498-9.3438 10.75 9.6229 1.0458 16.014-3.6463 19.406-7.1875 2.525 0.506 5.162 0.782 7.876 0.782 18.225 0 33-12.088 33-27s-14.775-27-33-27z"/>
  <path id="path3779" style="opacity:.2;fill:#fff" d="m15 44.406c-0.0053 0.20007 0 0.39263 0 0.59375 0 9.4416 5.9343 17.737 14.906 22.562 0.06714-0.3293 0.12055-0.64637 0.15625-0.90625-8.933-4.744-14.894-12.919-15.062-22.25zm66 0.094c-0.33 14.678-14.982 26.5-33 26.5-2.7139 0-5.3515-0.27575-7.875-0.78125-3.1139 3.2502-8.7477 7.4495-17.094 7.3125-0.70061 0.3324-1.4669 0.63597-2.3125 0.875 9.6229 1.0458 16.014-3.6463 19.406-7.1875 2.525 0.505 5.162 0.781 7.876 0.781 18.225 0 33-12.088 33-27 0-0.16936 0.0038-0.33138 0-0.5z"/>
  <path id="path3811" style="opacity:.05" d="m48 17c-18.225 0-33 12.088-33 27 0 9.4984 5.9998 17.843 15.062 22.656-0.34462 2.5088-1.914 8.6498-9.3438 10.75 9.6229 1.0458 16.014-3.6463 19.406-7.1875 2.525 0.506 5.162 0.782 7.876 0.782 18.225 0 33-12.088 33-27s-14.775-27-33-27zm0 2.9375c16.92 0 30.062 11.1 30.062 24.062s-13.142 24.062-30.062 24.062c-2.514 0-4.9434-0.28169-7.2812-0.75a2.9518 2.9518 0 0 0 -2.719 0.876c-1.6209 1.6918-4.0041 3.5676-7.125 4.875 1.3415-2.3539 1.9347-4.6148 2.125-6a2.9518 2.9518 0 0 0 -1.5625 -3c-8.292-4.404-13.5-11.807-13.5-20.063 0-12.962 13.142-24.062 30.062-24.062z"/>
  <path id="path3804" style="opacity:0.08" d="m48 17c-18.225 0-33 12.088-33 27 0 9.4984 5.9998 17.843 15.062 22.656-0.34462 2.5088-1.914 8.6498-9.3438 10.75 9.6229 1.0458 16.014-3.6463 19.406-7.1875 2.525 0.506 5.162 0.782 7.876 0.782 18.225 0 33-12.088 33-27s-14.775-27-33-27zm0 1.875c17.393 0 31.125 11.456 31.125 25.125s-13.732 25.125-31.125 25.125c-2.5865 0-5.0949-0.26822-7.5-0.75a1.8822 1.8822 0 0 0 -1.7188 0.53125c-2.2298 2.3274-5.8621 5.105-10.906 6.2188 0.60301-0.63671 1.3199-1.2405 1.75-1.9062 1.5731-2.4349 2.1159-4.8817 2.3125-6.3125a1.8822 1.8822 0 0 0 -1 -1.906c-8.571-4.552-14.063-12.294-14.063-21 0-13.669 13.732-25.125 31.125-25.125z"/>
  <path id="path3797" style="opacity:.15;fill:#045" d="m48 17c-18.225 0-33 12.088-33 27 0 9.4984 5.9998 17.843 15.062 22.656-0.34462 2.5088-1.914 8.6498-9.3438 10.75 9.6229 1.0458 16.014-3.6463 19.406-7.1875 2.525 0.506 5.162 0.782 7.876 0.782 18.225 0 33-12.088 33-27s-14.775-27-33-27zm0 1.0625c17.757 0 31.938 11.725 31.938 25.938 0 14.212-14.18 25.938-31.938 25.938-2.6422 0-5.1994-0.25784-7.6562-0.75a1.0589 1.0589 0 0 0 -0.969 0.312c-2.6438 2.7595-7.2489 6.0491-13.781 6.7188 1.4426-1.0373 2.5503-2.2407 3.3438-3.4688 1.4817-2.2934 2.0015-4.5838 2.1875-5.9375a1.0589 1.0589 0 0 0 -0.564 -1.093c-8.785-4.666-14.5-12.666-14.5-21.719 0-14.212 14.181-25.938 31.938-25.938z"/>
 </g>
 <g id="layer5" style="display:none">
  <rect id="rect3171" style="opacity:.1;filter:url(#filter3794);stroke:#fff;stroke-linecap:round;stroke-width:.5;fill:url(#linearGradient3613)" clip-path="url(#clipPath3613)" rx="12" ry="12" height="66" width="66" y="15" x="15"/>
 </g>
 <g id="layer4">
  <path id="path3789" style="opacity:0.12;color:#000000;fill:#006680" d="m40 31.031c-7.6947 0-13.969 6.2741-13.969 13.969v8c0 3.2825 2.6862 5.9688 5.9688 5.9688 3.2825 0 5.9688-2.6862 5.9688-5.9688v-8c0-1.1564 0.87481-2.0312 2.0312-2.0312s2.0312 0.87481 2.0312 2.0312v8c0 3.2825 2.6862 5.9688 5.9688 5.9688 3.2825 0 5.9688-2.6862 5.9688-5.9688v-8c0-1.1564 0.87481-2.0312 2.0312-2.0312s2.0312 0.87481 2.0312 2.0312v8c0 3.2825 2.6862 5.9688 5.9688 5.9688 3.2825 0 5.9688-2.6862 5.9688-5.9688v-8c0-7.6947-6.2741-13.969-13.969-13.969-3.0341 0-5.74 1.1177-8 2.75-2.26-1.6323-4.9659-2.75-8-2.75z"/>
  <path id="path3784" style="opacity:.2;color:#000000;fill:#006680" d="m40 31.969c-7.1798 0-13.031 5.8514-13.031 13.031v8c0 2.7646 2.2667 5.0312 5.0312 5.0312 2.7646 0 5.0312-2.2667 5.0312-5.0312v-8c0-1.6567 1.312-2.9688 2.9688-2.9688 1.6567 0 2.9688 1.312 2.9688 2.9688v8c0 2.7646 2.2667 5.0312 5.0312 5.0312 2.7646 0 5.0312-2.2667 5.0312-5.0312v-8c0-1.6567 1.312-2.9688 2.9688-2.9688 1.6567 0 2.9688 1.312 2.9688 2.9688v8c0 2.7646 2.2667 5.0312 5.0312 5.0312 2.7646 0 5.0312-2.2667 5.0312-5.0312v-8c0-7.1798-5.8514-13.031-13.031-13.031-3.0407 0-5.7833 1.1556-8 2.9062-2.2167-1.7506-4.9593-2.9062-8-2.9062z"/>
  <path id="path3780" style="color:#000000;fill:#006680" d="m40 33c-6.6274 0-12 5.3726-12 12v8c0 2.216 1.784 4 4 4s4-1.784 4-4v-8c0-2.2091 1.7909-4 4-4s4 1.7909 4 4v8c0 2.216 1.784 4 4 4s4-1.784 4-4v-8c0-2.2091 1.7909-4 4-4s4 1.7909 4 4v8c0 2.216 1.784 4 4 4s4-1.784 4-4v-8c0-6.627-5.373-12-12-12-3.075 0-5.877 1.161-8 3.062-2.123-1.901-4.925-3.062-8-3.062z"/>
  <path id="path2908" style="fill:#99e0f3" d="m-46.974 412.49c-9.2987-1.7002-20.37-5.6365-27.335-9.7186-3.116-1.8263-9.7322-7.3706-14.703-12.321-10.167-10.126-15.583-19.484-19.676-34-2.1776-7.7228-2.2489-9.2995-2.0593-45.5 0.10805-20.625 0.48707-45.262 0.84228-54.75l0.64583-17.25h105.27 105.27l-0.51157 4.75c-1.3256 12.309-8.7312 22.79-19.743 27.943l-6 2.8074-56 0.5-56 0.5-0.26426 30.616c-0.23784 27.556-0.0977 30.754 1.4025 32 1.3584 1.1282 11.858 1.4768 56.764 1.8843l55.098 0.5 5.9455 2.9192c7.874 3.8661 14.004 10.18 17.843 18.38 2.7448 5.8624 3.1373 7.7641 3.1373 15.201 0 7.4121-0.39326 9.332-3.0726 15-4.8885 10.341-12.841 17.286-23.381 20.416-4.6061 1.3679-12.926 1.572-60.903 1.494-40.489-0.0658-57.468-0.43757-62.568-1.3702z"/>
  <path id="path2932" style="color:#000000;fill:#fff" d="m-59 32c-4.1926 0-7.6874 2.8697-8.6875 6.75-0.179 0.386-0.312 0.795-0.312 1.25v7c0 1.662 1.338 3 3 3s3-1.338 3-3v-6c0-1.6569 1.3431-3 3-3s3 1.3431 3 3v6c0 1.662 1.338 3 3 3s3-1.338 3-3v-6c0-1.6569 1.3431-3 3-3s3 1.3431 3 3v6c0 1.662 1.338 3 3 3s3-1.338 3-3v-6-1c0-0.45493-0.1328-0.86442-0.3125-1.25-1.001-3.88-4.495-6.75-8.688-6.75-2.3098 0-4.4066 0.8821-6 2.3125-1.593-1.43-3.69-2.312-6-2.312z"/>
  <path id="path3729" style="color:#000000;fill:#fff" d="m40 32c-6.6274 0-12 5.3726-12 12v8c0 2.216 1.784 4 4 4s4-1.784 4-4v-8c0-2.2091 1.7909-4 4-4s4 1.7909 4 4v8c0 2.216 1.784 4 4 4s4-1.784 4-4v-8c0-2.2091 1.7909-4 4-4s4 1.7909 4 4v8c0 2.216 1.784 4 4 4s4-1.784 4-4v-8c0-6.627-5.373-12-12-12-3.075 0-5.877 1.161-8 3.062-2.123-1.901-4.925-3.062-8-3.062z"/>
  <path id="path3792" style="opacity:.2;color:#000000;fill:#003737" d="m40 39c-2.2091 0-4 1.7909-4 4v1c0-2.2091 1.7909-4 4-4s4 1.7909 4 4v-1c0-2.2091-1.7909-4-4-4zm16 0c-2.2091 0-4 1.7909-4 4v1c0-2.2091 1.7909-4 4-4s4 1.7909 4 4v-1c0-2.2091-1.7909-4-4-4zm-28 12v1c0 2.216 1.784 4 4 4s4-1.784 4-4v-1c0 2.216-1.784 4-4 4s-4-1.784-4-4zm16 0v1c0 2.216 1.784 4 4 4s4-1.784 4-4v-1c0 2.216-1.784 4-4 4s-4-1.784-4-4zm16 0v1c0 2.216 1.784 4 4 4s4-1.784 4-4v-1c0 2.216-1.784 4-4 4s-4-1.784-4-4z"/>
  <path id="path3810" style="opacity:.1;color:#000000;fill:url(#linearGradient3830)" d="m40 32c-6.6274 0-12 5.3726-12 12v8c0 2.216 1.784 4 4 4s4-1.784 4-4v-8c0-2.2091 1.7909-4 4-4s4 1.7909 4 4v8c0 2.216 1.784 4 4 4s4-1.784 4-4v-8c0-2.2091 1.7909-4 4-4s4 1.7909 4 4v8c0 2.216 1.784 4 4 4s4-1.784 4-4v-8c0-6.627-5.373-12-12-12-3.075 0-5.877 1.161-8 3.062-2.123-1.901-4.925-3.062-8-3.062zm0 1.9688c2.5773 0 4.9102 0.97067 6.6875 2.5625a1.9778 1.9778 0 0 0 2.625 0c1.7773-1.5918 4.1102-2.5625 6.6875-2.5625 5.5586 0 10.031 4.4726 10.031 10.031v8c0 1.1546-0.87664 2.0312-2.0312 2.0312s-2.0312-0.87664-2.0312-2.0312v-8c0-3.2779-2.6908-5.9688-5.9688-5.9688-3.2779 0-5.9688 2.6908-5.9688 5.9688v8c0 1.1546-0.87664 2.0312-2.0312 2.0312s-2.0312-0.87664-2.0312-2.0312v-8c0-3.2779-2.6908-5.9688-5.9688-5.9688-3.2779 0-5.9688 2.6908-5.9688 5.9688v8c0 1.1546-0.87664 2.0312-2.0312 2.0312s-2.0312-0.87664-2.0312-2.0312v-8c0-5.5586 4.4726-10.031 10.031-10.031z"/>
  <path id="path3798" style="opacity:.2;color:#000000;fill:url(#linearGradient3830)" d="m40 32c-6.6274 0-12 5.3726-12 12v8c0 2.216 1.784 4 4 4s4-1.784 4-4v-8c0-2.2091 1.7909-4 4-4s4 1.7909 4 4v8c0 2.216 1.784 4 4 4s4-1.784 4-4v-8c0-2.2091 1.7909-4 4-4s4 1.7909 4 4v8c0 2.216 1.784 4 4 4s4-1.784 4-4v-8c0-6.627-5.373-12-12-12-3.075 0-5.877 1.161-8 3.062-2.123-1.901-4.925-3.062-8-3.062zm0 0.9375c2.8376 0 5.4167 1.0585 7.375 2.8125a0.94323 0.94323 0 0 0 1.25 0c1.9583-1.754 4.5374-2.8125 7.375-2.8125 6.1177 0 11.062 4.9448 11.062 11.062v8c0 1.7098-1.3527 3.0625-3.0625 3.0625s-3.0625-1.3527-3.0625-3.0625v-8c0-2.7188-2.2187-4.9375-4.9375-4.9375s-4.9375 2.2187-4.9375 4.9375v8c0 1.7098-1.3527 3.0625-3.0625 3.0625s-3.0625-1.3527-3.0625-3.0625v-8c0-2.7188-2.2187-4.9375-4.9375-4.9375s-4.9375 2.2187-4.9375 4.9375v8c0 1.7098-1.3527 3.0625-3.0625 3.0625s-3.0625-1.3527-3.0625-3.0625v-8c0-6.1177 4.9448-11.062 11.062-11.062z"/>
 </g>
</svg>
