<?xml version="1.0" encoding="UTF-8" standalone="no"?>
<!-- Created with Inkscape (http://www.inkscape.org/) -->
<svg id="svg2408" xmlns:rdf="http://www.w3.org/1999/02/22-rdf-syntax-ns#" xmlns="http://www.w3.org/2000/svg" height="96" width="96" version="1.0" xmlns:cc="http://creativecommons.org/ns#" xmlns:xlink="http://www.w3.org/1999/xlink" xmlns:dc="http://purl.org/dc/elements/1.1/">
 <defs id="defs2410">
  <linearGradient id="ButtonShadow" y2="7.0165" gradientUnits="userSpaceOnUse" x2="45.448" gradientTransform="scale(1.0059 .99417)" y1="92.54" x1="45.448">
   <stop id="stop3750" offset="0"/>
   <stop id="stop3752" style="stop-opacity:.58824" offset="1"/>
  </linearGradient>
  <linearGradient id="linearGradient3737">
   <stop id="stop3739" style="stop-color:#fff" offset="0"/>
   <stop id="stop3741" style="stop-color:#fff;stop-opacity:0" offset="1"/>
  </linearGradient>
  <filter id="filter3174" color-interpolation-filters="sRGB">
   <feGaussianBlur id="feGaussianBlur3176" stdDeviation="1.71"/>
  </filter>
  <linearGradient id="linearGradient3188" y2="63.893" xlink:href="#linearGradient3737" gradientUnits="userSpaceOnUse" x2="36.357" y1="6" x1="36.357"/>
  <filter id="filter3794" height="1.384" width="1.384" color-interpolation-filters="sRGB" y="-.192" x="-.192">
   <feGaussianBlur id="feGaussianBlur3796" stdDeviation="5.28"/>
  </filter>
  <linearGradient id="linearGradient3613" y2="138.66" gradientUnits="userSpaceOnUse" x2="48" y1="20.221" x1="48">
   <stop id="stop3861" style="stop-color:#fffc6d" offset="0"/>
   <stop id="stop3863" style="stop-color:#fff;stop-opacity:0" offset="1"/>
  </linearGradient>
  <radialGradient id="radialGradient3619" xlink:href="#linearGradient3737" gradientUnits="userSpaceOnUse" cy="90.172" cx="48" gradientTransform="matrix(1.1573 0 0 .99591 -7.551 .19713)" r="42"/>
  <clipPath id="clipPath3613">
   <rect id="rect3615" style="fill:#fff" rx="6" ry="6" height="84" width="84" y="6" x="6"/>
  </clipPath>
  <linearGradient id="linearGradient3617" y2="5.9877" gradientUnits="userSpaceOnUse" x2="48" y1="90" x1="48">
   <stop id="stop3702" style="stop-color:#a12225" offset="0"/>
   <stop id="stop3704" style="stop-color:#ce1b1f" offset="1"/>
  </linearGradient>
  <linearGradient id="ButtonShadow-0" y2="7.0165" gradientUnits="userSpaceOnUse" x2="45.448" gradientTransform="matrix(1.0059 0 0 .99417 100 0)" y1="92.54" x1="45.448">
   <stop id="stop3750-8" offset="0"/>
   <stop id="stop3752-5" style="stop-opacity:.58824" offset="1"/>
  </linearGradient>
  <linearGradient id="linearGradient3780" y2="90.239" xlink:href="#ButtonShadow-0" gradientUnits="userSpaceOnUse" x2="32.251" gradientTransform="matrix(1.0238 0 0 1.0119 -1.1429 -98.071)" y1="6.1317" x1="32.251"/>
  <linearGradient id="linearGradient3721" y2="90.239" xlink:href="#ButtonShadow-0" gradientUnits="userSpaceOnUse" x2="32.251" gradientTransform="translate(0,-97)" y1="6.1317" x1="32.251"/>
  <linearGradient id="linearGradient2882" y2="64" gradientUnits="userSpaceOnUse" x2="16" y1="16" x1="96">
   <stop id="stop3699" style="stop-color:#fff" offset="0"/>
   <stop id="stop3701" style="stop-color:#fff;stop-opacity:0" offset="1"/>
  </linearGradient>
  <linearGradient id="linearGradient3105" y2="56" gradientUnits="userSpaceOnUse" x2="48" gradientTransform="translate(-100)" y1="8" x1="48">
   <stop id="stop12686-8" style="stop-color:#fff" offset="0"/>
   <stop id="stop12692-9" style="stop-color:#fff;stop-opacity:.84536" offset="0.35"/>
   <stop id="stop12688-3" style="stop-color:#fff;stop-opacity:0" offset="1"/>
  </linearGradient>
 </defs>
 <metadata id="metadata2413">
  <rdf:RDF>
   <cc:Work rdf:about="">
    <dc:format>image/svg+xml</dc:format>
    <dc:type rdf:resource="http://purl.org/dc/dcmitype/StillImage"/>
    <dc:title/>
   </cc:Work>
  </rdf:RDF>
 </metadata>
 <g id="layer2" style="display:none">
  <rect id="rect3745" style="opacity:.9;filter:url(#filter3174);fill:url(#ButtonShadow)" rx="6" ry="6" height="85" width="86" y="7" x="5"/>
 </g>
 <g id="layer3">
  <path id="path3786" style="opacity:0.08;fill:url(#linearGradient3780)" d="m12-95.031c-5.5111 0-10.031 4.5202-10.031 10.031v71c0 5.5111 4.5202 10.031 10.031 10.031h72c5.5111 0 10.031-4.5202 10.031-10.031v-71c0-5.5111-4.5202-10.031-10.031-10.031h-72z" transform="scale(1,-1)"/>
  <path id="path3778" style="opacity:.1;fill:url(#linearGradient3780)" d="m12-94.031c-4.9716 0-9.0312 4.0596-9.0312 9.0312v71c0 4.9716 4.0596 9.0312 9.0312 9.0312h72c4.9716 0 9.0312-4.0596 9.0312-9.0312v-71c0-4.9716-4.0596-9.0312-9.0312-9.0312h-72z" transform="scale(1,-1)"/>
  <path id="path3770" style="opacity:.2;fill:url(#linearGradient3780)" d="m12-93c-4.4091 0-8 3.5909-8 8v71c0 4.4091 3.5909 8 8 8h72c4.4091 0 8-3.5909 8-8v-71c0-4.4091-3.5909-8-8-8h-72z" transform="scale(1,-1)"/>
  <rect id="rect3723" style="opacity:.3;fill:url(#linearGradient3780)" transform="scale(1,-1)" rx="7" ry="7" height="85" width="86" y="-92" x="5"/>
  <rect id="rect3716" style="opacity:.45;fill:url(#linearGradient3721)" transform="scale(1,-1)" rx="6" ry="6" height="84" width="84" y="-91" x="6"/>
 </g>
 <g id="layer1">
  <rect id="rect2419" style="fill:url(#linearGradient3617)" rx="6" ry="6" height="84" width="84" y="6" x="6"/>
  <path id="rect3728" style="opacity:.35;fill:url(#linearGradient3188)" d="m12 6c-3.324 0-6 2.676-6 6v2 68 2c0 0.33472 0.04135 0.6507 0.09375 0.96875 0.0487 0.2956 0.09704 0.59692 0.1875 0.875 0.00988 0.03038 0.020892 0.0636 0.03125 0.09375 0.098865 0.28777 0.23488 0.54745 0.375 0.8125 0.14459 0.27351 0.31562 0.53562 0.5 0.78125 0.18438 0.24564 0.37378 0.47347 0.59375 0.6875 0.43995 0.42806 0.94291 0.81453 1.5 1.0938 0.27854 0.13961 0.57347 0.24695 0.875 0.34375-0.2562-0.10022-0.48671-0.23627-0.71875-0.375-0.00741-0.0044-0.023866 0.0045-0.03125 0-0.031933-0.0193-0.062293-0.04251-0.09375-0.0625-0.1204-0.0767-0.23102-0.16351-0.34375-0.25-0.10617-0.0808-0.21328-0.16111-0.3125-0.25-0.1778-0.162-0.3473-0.346-0.4999-0.531-0.1075-0.131-0.2183-0.266-0.3124-0.407-0.0251-0.038-0.0385-0.086-0.0626-0.125-0.0647-0.103-0.1302-0.204-0.1874-0.312-0.1011-0.195-0.2057-0.416-0.2813-0.625-0.008-0.022-0.0236-0.041-0.0313-0.063-0.0318-0.092-0.0358-0.187-0.0624-0.281-0.0304-0.107-0.0704-0.203-0.0938-0.313-0.0729-0.341-0.125-0.698-0.125-1.062v-2-68-2c0-2.782 2.2182-5 5-5h2 68 2c2.7818 0 5 2.2182 5 5v2 68 2c0 0.3643-0.05212 0.72099-0.125 1.0625-0.04415 0.20689-0.08838 0.39766-0.15625 0.59375-0.0077 0.02195-0.0233 0.04069-0.03125 0.0625-0.06274 0.17374-0.13838 0.36745-0.21875 0.53125-0.04158 0.0828-0.07904 0.16995-0.125 0.25-0.0546 0.09721-0.12677 0.18835-0.1875 0.28125-0.09411 0.14096-0.20492 0.276-0.3125 0.40625-0.14317 0.17445-0.30314 0.347-0.46875 0.5-0.01117 0.0102-0.01998 0.02115-0.03125 0.03125-0.13839 0.12556-0.28509 0.23444-0.4375 0.34375-0.10257 0.07315-0.20432 0.15336-0.3125 0.21875-0.0074 0.0045-0.02384-0.0044-0.03125 0-0.23204 0.13873-0.46255 0.27478-0.71875 0.375 0.30153-0.0968 0.59646-0.20414 0.875-0.34375 0.55709-0.27922 1.0601-0.66569 1.5-1.0938 0.21997-0.21403 0.40937-0.44186 0.59375-0.6875s0.35541-0.50774 0.5-0.78125c0.14012-0.26505 0.27614-0.52473 0.375-0.8125 0.01041-0.03078 0.02133-0.06274 0.03125-0.09375 0.09046-0.27808 0.1388-0.5794 0.1875-0.875 0.053-0.318 0.094-0.634 0.094-0.969v-2-68-2c0-3.324-2.676-6-6-6h-72z"/>
  <path id="path3615" style="opacity:.2;fill:url(#radialGradient3619)" d="m12 90c-3.324 0-6-2.676-6-6v-2-68-2c0-0.33472 0.04135-0.6507 0.09375-0.96875 0.0487-0.2956 0.09704-0.59692 0.1875-0.875 0.0099-0.03 0.0209-0.063 0.0313-0.094 0.0989-0.2873 0.2349-0.547 0.375-0.812 0.1446-0.2735 0.3156-0.5356 0.5-0.7812 0.1844-0.2457 0.3738-0.4735 0.5937-0.6876 0.44-0.428 0.943-0.8145 1.5-1.0937 0.2786-0.1396 0.5735-0.2469 0.8748-0.3437-0.256 0.1002-0.4865 0.2362-0.7185 0.375-0.00741 0.0044-0.023866-0.0045-0.03125 0-0.031933 0.0193-0.062293 0.04251-0.09375 0.0625-0.1204 0.0767-0.23102 0.16351-0.34375 0.25-0.10617 0.0808-0.21328 0.16111-0.3125 0.25-0.1779 0.1614-0.3474 0.3453-0.5 0.5312-0.1075 0.1303-0.2183 0.2653-0.3124 0.4063-0.0251 0.0383-0.0385 0.0858-0.0626 0.125-0.0647 0.103-0.1302 0.2045-0.1874 0.3124-0.1011 0.1948-0.2057 0.4158-0.2813 0.625-0.008 0.0219-0.0236 0.0406-0.0313 0.0626-0.0318 0.0919-0.0358 0.1868-0.0624 0.2812-0.0304 0.1066-0.0704 0.203-0.0938 0.3125-0.0729 0.3415-0.125 0.6985-0.125 1.0625v2 68 2c0 2.7818 2.2182 5 5 5h2 68 2c2.7818 0 5-2.2182 5-5v-2-68-2c0-0.364-0.052-0.721-0.125-1.0625-0.044-0.2069-0.088-0.3977-0.156-0.5937-0.008-0.022-0.024-0.0407-0.031-0.0626-0.063-0.1737-0.139-0.3674-0.219-0.5312-0.042-0.0828-0.079-0.17-0.125-0.25-0.055-0.0972-0.127-0.1884-0.188-0.2812-0.094-0.141-0.205-0.276-0.312-0.4063-0.143-0.1745-0.303-0.347-0.469-0.5-0.011-0.0102-0.02-0.0211-0.031-0.0313-0.139-0.1255-0.285-0.2344-0.438-0.3437-0.102-0.0731-0.204-0.1534-0.312-0.2187-0.0074-0.0045-0.02384 0.0044-0.03125 0-0.23204-0.13873-0.46255-0.27478-0.71875-0.375 0.30153 0.0968 0.59646 0.20414 0.875 0.34375 0.55709 0.27922 1.0601 0.66569 1.5 1.0938 0.21997 0.21403 0.40937 0.44186 0.59375 0.6875s0.35541 0.50774 0.5 0.78125c0.14012 0.26505 0.27614 0.52473 0.375 0.8125 0.01041 0.03078 0.02133 0.06274 0.03125 0.09375 0.09046 0.27808 0.1388 0.5794 0.1875 0.875 0.053 0.318 0.094 0.634 0.094 0.969v2 68 2c0 3.324-2.676 6-6 6h-72z"/>
  <path id="rect3690" style="opacity:.4;fill:url(#linearGradient2882)" d="m12 6c-3.324 0-6 2.676-6 6v46.875c17.609-11.522 44.229-18.875 74-18.875 3.378 0 6.712 0.09685 10 0.28125v-28.281c0-3.324-2.676-6-6-6h-72z"/>
  <path id="rect4011" style="opacity:.4;fill:url(#linearGradient3105)" d="m-88 6c-3.324 0-6 2.676-6 6v28.469c11.823 4.727 26.321 7.531 42 7.531s30.177-2.8044 42-7.5312v-28.469c0-3.324-2.676-6-6-6h-72z"/>
 </g>
 <g id="layer5">
  <rect id="rect3171" style="opacity:.1;filter:url(#filter3794);stroke:#fff;stroke-linecap:round;stroke-width:.5;fill:url(#linearGradient3613)" clip-path="url(#clipPath3613)" rx="12" ry="12" height="66" width="66" y="15" x="15"/>
 </g>
 <g id="layer4">
  <path id="path3874" style="opacity:0.08;fill:#500;fill-rule:evenodd" d="m41.656 14c-2.6753 0.21023-4.4355 2.1842-6.9062 3.1562-3.1455 2.4317-6.8462 3.8226-10.25 5.8125-2.8571 1.0864-4.9118 3.5386-7.6349 4.2818-2.8163 1.1307-1.8862 4.7586-0.69226 6.156-0.85364 3.3514 0.3271 7.0013 0.51468 10.437 0.78777 3.408 0.54193 7.19 1.9375 10.5 0.02154 2.9372 0.39694 6.2403 1 8.7812-1.1351 3.3387 2.3794 4.5361 4.4093 5.0291 3.8644 2.3219 7.8421 4.5337 12.059 6.0647 4.3254 2.526 8.7333 4.9761 13.265 7.087 2.3246 0.000268 4.435 5.1108 7.2163 1.5095 0.45669-2.3398 3.5-1.8117 5.0816-3.6277 2.287-2.1954 4.8254-4.02 7.3711-5.8804 2.0204-2.646 4.6176-4.893 7.1793-7.0211 0.15977-1.6599 2.508-0.77019 3.3248-2.0993 1.5362-2.7134-0.72262-4.8629 0.67216-7.6361 0.54997-3.6299 0.56226-7.3054 0.39011-10.957 1.0291-3.7256-0.07677-7.6324-0.01317-11.438-0.2606-2.6316 0.15079-5.2856-0.29934-7.8428 1.5151-2.1421 0.76702-7.0318-3.1875-6.4062-2.1692-0.15042-4.6064-1.5717-7.1235-1.4974-3.346-0.147-6.309-1.687-9.658-1.627-5.439-0.777-10.936-2.901-16.556-2.517-0.859 0.585-1.25-0.085-2.1-0.264zm-0.4375 4.5625c0.14226 0.34601-0.34997 1.0686 0 0zm3.1875 1.8125c6.3397 1.5832 12.982 1.6516 19.241 3.6096 1.7834 0.60647 6.4329 0.32315 6.4059 1.3486-5.5071 3.6636-10.979 7.3787-16.595 10.835-1.4456 1.2986-3.5574 1.4355-4.9365 0.02542-4.582-0.304-2.414-6.488-3.428-9.692-0.011-2.06-0.358-4.098-0.688-6.125zm-5.9688 1.2188c0.79459 3.9244 0.5308 7.9618 0.875 11.938-4.8338-1.4001-9.628-2.935-14.469-4.3125 4.6762-2.2944 9.2194-4.7991 13.594-7.625zm36.094 7.5938c-0.01335 6.2845 0.11352 12.573-0.31981 18.844-0.0069 2.8638-0.09367 5.7314-0.02394 8.593-5.1647-2.0775-10.058-4.7407-15.217-6.8401-2.7816-0.70606-4.0139-2.0139-3.7947-4.8803-1.0123-1.6488-1.2214-2.7935 1.1822-2.8831 3.4643-1.0724 5.5404-4.1917 8.6237-5.9027 3.1883-2.3034 6.3399-4.6574 9.5497-6.9313zm-52.562 5.25c5.9585 1.9431 11.969 3.738 17.906 5.75-0.92614 2.7347 3.1684 6.2158-0.3125 7.375-3.9581 2.9369-7.7734 6.0732-11.824 8.8791-1.7566 1.0849-3.7268 3.4557-3.2554-0.06687 0.22375-4.9287-1.8448-9.5431-1.9176-14.443-0.22572-2.4958-0.35674-4.9994-0.59668-7.4941zm23.969 7.7812c1.2236 0.5266 3.1609-0.05362 2.4688 1.9375 0.71224 2.5606-4.2114 0.72598-2.422-1.3845l-0.047-0.552zm-0.75 7.5938c2.4513 1.4534 4.9398 2.625 4.2505 6.0632-0.25838 3.9541 0.09654 7.8914 0.63341 11.805 0.000384 2.1827 0.60339 5.9578 0.25379 7.1336-5.072-2.276-9.889-5.098-14.948-7.403-1.936-1.536-6.771-2.806-6.847-4.192 5.282-3.881 10.596-7.75 15.635-11.936 0.703-0.236 0.256-1.663 1.022-1.471zm10.531 5.5938c5.4965 1.9977 10.785 4.5464 15.969 7.25-4.3014 3.1311-8.1288 6.9175-12.493 9.9424-1.7546 0.65176-3.5428 3.7958-2.8777 0.23667 0.01746-4.9744 0.27384-9.9472-0.41082-14.898-0.07035-0.84315-0.12975-1.6872-0.1875-2.5312z"/>
  <path id="path3870" style="opacity:.15;fill:#500;fill-rule:evenodd" d="m41.469 15.125c-0.34634-0.05608-0.60212 0.05382-0.6875 0.09375a0.89646 0.89646 0 0 0 -0.032 0.031c0.13813-0.07353-0.03422-0.01729-0.21875 0.03125s-0.43807 0.12131-0.71875 0.28125-0.64469 0.46798-0.75 0.9375c-0.02679 0.11945 0.06011 0.22701 0.0625 0.34375-0.24657-0.06919-0.48141-0.11993-0.71875-0.125-0.38148-0.0082-0.72245-0.02225-1.1875 0.28125-0.18557 0.1208-1.0168 0.60723-1.875 1.125-0.85825 0.51777-1.7505 1.0494-2.2812 1.4688-0.73648 0.5819-3.1042 2.0046-3.9688 2.25-0.48804 0.13854-0.99651 0.41379-1.6875 0.78125s-1.4919 0.82537-2.3438 1.3125c-1.7036 0.97426-3.5739 2.052-4.7188 2.625-0.33879 0.16777-0.58634 0.32049-0.8125 0.5s-0.45541 0.3726-0.5625 0.78125c-0.04615 0.1761 0.09827 0.31244 0.15625 0.5-0.29534-0.14783-0.56456-0.36458-0.90625-0.3125a0.89646 0.89646 0 0 0 -0.03125 0c-0.59213 0.10568-1.1456 0.293-1.5312 0.75-0.37874 0.44879-0.47733 0.96101-0.5625 1.5-0.0019 0.01069 0.0017 0.02057 0 0.03125-0.13398 0.86318 0.36279 1.71 1.0625 2.0312 0.7 0.323 1.548 0.191 2.219-0.342h0.03125c0.16677-0.1352 0.23205-0.30795 0.34375-0.46875 0.07734 0.1916 0.09811 0.40403 0.21875 0.5625 0.42896 0.58335 1.0746 0.87399 1.9375 1.1562 0.86294 0.28226 2.0799 0.61973 4.0625 1.2812 4.0729 1.3733 11.959 3.6955 14.312 4.5938 0.21603 0.08451 0.43275 0.18795 0.65625 0.28125 0.08257 0.7787 0.1875 1.5719 0.1875 2.0312 0 0.96297 0.0274 1.6861 0.28125 2.375 0.12692 0.34447 0.34668 0.70126 0.6875 0.9375s0.73981 0.34375 1.125 0.34375c0.45814 0 0.97517-0.23625 1.25-0.59375s0.34462-0.73876 0.375-1.0625c0.06076-0.64748-0.03125-1.244-0.03125-1.6562 0-0.18323 0.0046-0.67519 0-1.0312 0.92324 0.30588 1.8442 0.66231 2.75 0.75a0.89646 0.89646 0 0 0 0.03125 0c0.45078 0.03895 0.80839-0.15424 1.1875-0.28125 0.07571 0.35876 0.22721 0.72448 0.375 1.0625 0.003 0.007-0.0031 0.02432 0 0.03125 0.17032 0.38564 0.54004 0.58087 0.875 0.75-0.27117 0.33738-0.45167 0.76153-0.5 1.2188-0.0752 0.80512 0.03061 1.8358 0.09375 2.8125-0.69892-0.24817-1.5765-0.56329-1.8438-0.65625-0.67974-0.22715-1.4369-0.29757-2 0.28125-0.02495-0.24693-0.02809-0.50736-0.15625-0.75-0.17125-0.32423-0.52389-0.66285-0.96875-0.78125-0.30718-0.07182-0.57081-0.07291-0.78125-0.0625-0.4126 0.0204-0.89053 0.15228-1.2812 0.46875-0.39072 0.31647-0.65276 0.8138-0.75 1.375a0.89646 0.89646 0 0 0 0 0.03125c-0.04125 0.26282 0.05497 0.49542 0.125 0.75-0.08298 0.002-0.16917-0.03961-0.25-0.03125-0.49287 0.05096-0.96429 0.27679-1.3438 0.65625-0.24413 0.24413-1.6932 1.3363-3.2812 2.5-1.5881 1.1637-3.4162 2.4773-4.75 3.625-1.2145 1.0554-2.9608 2.2152-4.5938 3.2812-1.633 1.0661-3.1177 2.024-4.0312 2.9375-0.3741 0.37473-0.51459 0.80807-0.625 1.25-0.08151-0.01172-0.17384-0.06223-0.25-0.0625-0.09124-0.00032-0.162 0.05274-0.25 0.0625 0.01241-0.01387 0.05079-0.01768 0.0625-0.03125 0.565-0.653 0.729-1.383 0.846-1.938 0.13994-0.66769 0.07103-1.3279 0-2.0312-0.07103-0.70333-0.15625-1.4294-0.15625-1.9375 0-1.257-0.14068-3.2513-0.34375-4.4062-0.000983-0.0065 0.001-0.02469 0-0.03125-0.09661-0.62237-0.335-1.6978-0.59375-2.8438-0.25884-1.1463-0.54316-2.3413-0.625-2.9375-0.000904-0.0079 0.000905-0.02328 0-0.03125-0.15318-1.3498-0.29045-3.2146-0.46875-5.25-0.00079-0.01026 0.000791-0.02096 0-0.03125-0.15773-2.0501-0.33886-4.6232-0.5-6.1875a0.89646 0.89646 0 0 0 -0.03125 0c-0.06593-0.57034-0.30126-1.1145-0.71875-1.4375-0.41749-0.32296-0.95049-0.39115-1.4062-0.3125-0.90822 0.15672-1.7188 0.92562-1.7188 2 0 0.76497 0.18591 2.7261 0.375 4.75 0.09455 1.0119 0.19292 2.0065 0.28125 2.8125 0.08675 0.79163 0.1474 1.339 0.21875 1.6875 0.0009 0.0049-0.000931 0.02621 0 0.03125 0.08251 0.44683 0.28214 1.5346 0.46875 2.6875 0.18871 1.1659 0.34375 2.4262 0.34375 2.9688 0 1.6808 0.74375 3.5798 1.0938 4.4688-0.0049-0.01239 0.07035 0.31146 0.09375 0.75s0.04978 0.99585 0.0625 1.625c0.02526 1.249 0.06701 2.766 0.34375 4.1562 0.0023 0.0116-0.0022 0.01978 0 0.03125 0.13419 0.69152 0.20774 1.1616 0.6875 1.5938 0.1514 0.13637 0.41317 0.14952 0.65625 0.1875-0.35908 0.22675-0.71077 0.54673-0.84375 1.0625-0.12783 0.54873-0.13442 1.1943 0.125 1.875 0.12971 0.34037 0.35114 0.70368 0.71875 0.96875s0.88331 0.37682 1.375 0.3125c0.37813-0.05611 0.68876-0.25519 0.96875-0.46875 0.17056 0.72452 0.6762 1.2034 1.375 1.5938 1.585 0.87167 6.3426 3.4165 7.7812 4.125 1.5097 0.75558 2.8767 0.98194 3.6562 1.5 0.59204 0.38736 1.6644 0.98461 2.7188 1.5625 1.0543 0.57789 2.0967 1.1497 2.4688 1.375 0.53778 0.32654 2.0421 1.1015 3.6562 1.9375 1.6142 0.83599 3.2608 1.6826 3.9688 2.0312v-0.03125c0.51295 0.26549 1.1076 0.32536 1.5938 0.15625 0.29199-0.10158 0.43141-0.30761 0.625-0.5-0.02901 0.4613 0.03871 0.93718 0.3125 1.4062 0.40018 0.70754 0.86312 1.384 1.7188 1.625 0.42782 0.12051 0.97152 0.04963 1.375-0.21875s0.68679-0.67416 0.90625-1.1562c0.25751-0.58406 0.2797-1.1621 0.15625-1.6875 0.39078 0.26848 0.79608 0.37571 1.1875 0.375 0.4442-0.000809 0.87279-0.07241 1.2812-0.375 0.67561-0.51921 1.3069-0.96328 2.0312-1.25a0.89646 0.89646 0 0 0 0 -0.03125c1.3037-0.55004 2.0655-1.7817 3.5625-3.2812 0.65444-0.65444 1.1726-0.83094 1.875-1.1562 0.70235-0.32532 1.5679-0.81476 2.3438-1.875 1.2671-1.7064 4.8582-5.2065 6.0938-5.9688 0.38584-0.23921 0.68195-0.50744 0.875-0.875s0.24557-0.83796 0.125-1.2188c-0.24114-0.76159-0.94184-1.1534-1.6562-1.1875-0.47251-0.02254-0.98055 0.14806-1.4062 0.5-0.93768 0.77249-2.3784 1.6634-4.1562 3.2812-1.6478 1.4736-6.4539 5.2367-7.7188 6.3125-0.47733 0.41464-0.75154 0.45018-1.4062 0.78125-0.65471 0.33107-1.4676 0.9042-2.625 2.25-0.61846 0.7124-0.96286 1.3102-1.0938 1.9375-0.03164 0.15161-0.008 0.31446 0 0.46875-0.25829-0.30074-0.53629-0.5768-0.84375-0.75-0.33791-0.19035-0.67755-0.3982-1.2812-0.1875-0.39848 0.12491-0.60931 0.48044-0.875 0.78125 0.02166-0.39368-0.05469-0.86562-0.4375-1.25-0.007-0.007-0.02427 0.0069-0.03125 0-0.79561-0.78372-1.6932-0.94571-2.5938-1.4062a0.89646 0.89646 0 0 0 -0.03125 0c-1.0663-0.50872-4.8384-2.2546-6.2812-3.0625-1.5715-0.87921-4.7896-2.5869-6.625-3.3125-0.66975-0.26428-2.5202-1.3043-4.375-2.3438-1.8548-1.0394-3.7396-2.1001-5.1562-2.5-0.6929-0.20303-1.2717-0.22009-1.75-0.15625-0.17156 0.0229-0.30448 0.15216-0.46875 0.21875 0.01526-0.15557 0.04276-0.31496 0.03125-0.46875 0.60931 0.01444 1.2217-0.15979 1.7188-0.65625 0.34983-0.35026 1.9531-1.5384 3.5938-2.7188 1.6406-1.1804 3.3754-2.4178 4.375-3.25 1.849-1.4965 6.3116-4.7539 8.25-6.3438 0.42613-0.34489 0.75022-0.68103 0.9375-1.0938 0.15246-0.33598 0.07313-0.73086-0.03125-1.0938 0.40228 0.01267 0.81986 0.09007 1.1875-0.09375 0.32662-0.16393 0.50001-0.42553 0.65625-0.6875 0.05674 0.23915 0.08842 0.47264 0.21875 0.6875 0.41641 0.68748 1.0913 0.97904 1.625 1.1875 0.53365 0.20846 0.99972 0.37466 1.375 0.625 0.28509 0.19218 0.82215 0.54214 1.375 0.875 0.24087 1.4342 0.58313 3.8571 0.46875 5.7188-0.1872 2.6769 0.0045 5.9406 0.375 7.8125 0.29486 1.4956 0.5 6.0836 0.5 7.1875 0 0.68047 0.10888 1.3856 0.21875 2 0.1077 0.60228 0.17216 0.98477 0.40625 1.4375h-0.03125c0.0057 0.01296 0.02543 0.01852 0.03125 0.03125 0.08775 0.19174 0.15616 0.35699 0.3125 0.5625 0.16671 0.21915 0.3734 0.46187 0.75 0.65625 0.1883 0.09719 0.46463 0.17422 0.78125 0.125s0.61382-0.2489 0.78125-0.46875c0.33486-0.43971 0.39237-0.89323 0.4375-1.5312 0.09645-1.1856 0.06858-2.8405 0.0625-4.4062-0.0061-1.5658-0.006-3.0701 0.0625-3.5938a0.89646 0.89646 0 0 0 0 -0.03125c0.19264-1.6758-0.1301-4.8235-0.46875-8.9375-0.14186-1.7169-0.23116-3.0373-0.3125-4.3438 0.53752 0.23892 1.1014 0.53694 1.5938 0.65625 1.8025 0.4574 6.1694 2.5062 8.9375 3.7188 2.655 1.1656 6.8983 3.5238 8.5625 4.2812 0.36167 0.16007 0.7715 0.17175 1.1562 0.09375 0.02749 0.11493 0.01781 0.2333 0.0625 0.34375 0.31914 0.7882 1.0232 1.2595 1.7188 1.4062 0.6822 0.14398 1.472 0.02357 2.0312-0.53125v-0.03125h0.03125c0.35309-0.36002 0.45732-0.79431 0.5-1.1875 0.04404-0.40574 0.02002-0.81762-0.09375-1.2188-0.11377-0.40112-0.31043-0.79104-0.65625-1.125-0.2438-0.23544-0.64591-0.28702-1.0312-0.34375 0.2255-0.02366 0.46997 0.02703 0.65625-0.09375 0.33787-0.21907 0.53128-0.52985 0.65625-0.8125 0.25-0.566 0.303-1.166 0.406-1.844 0.18341-1.3795 0.59375-4.6376 0.59375-7.2188 0-1.2921-0.10979-2.34-0.15625-3.125-0.04646-0.78502 0.003-1.2755 0.09375-1.5 0.48463-1.1962 0.4328-2.5105 0.25-5.2188-0.09966-1.3152-0.25028-3.8538-0.34375-6.1875-0.04674-1.1669-0.08413-2.3002-0.09375-3.1875-0.0096-0.88729 0.01926-1.6209 0.03125-1.6875a0.89646 0.89646 0 0 0 0 -0.03125c0.11537-0.73754 0.0667-1.5013-0.15625-2.1875-0.11148-0.34311-0.27754-0.67547-0.53125-0.96875-0.02757-0.03187-0.09356-0.0314-0.125-0.0625 0.13333-0.06026 0.28411-0.08366 0.40625-0.15625 0.936-0.557 1.069-1.633 0.937-2.468-0.066-0.417-0.199-0.829-0.468-1.188-0.27-0.358-0.747-0.687-1.313-0.687-0.20253 0-0.54835-0.09078-1.0312-0.09375-0.37204-0.0023-0.9397 0.15294-1.3125 0.59375-0.11158-0.46448-0.4205-0.86278-0.96875-1.0938a0.89646 0.89646 0 0 0 0 -0.03125c-1.0782-0.42513-2.9651-0.75148-6.0938-1.0938-1.4895-0.16481-2.5841-0.40272-3.375-0.625-0.79092-0.22228-1.2126-0.38849-1.5625-0.5-0.33051-0.11453-0.54366-0.12595-0.875-0.15625s-0.71545-0.04064-1.0938-0.0625c-0.74319-0.04294-1.559-0.12433-1.7188-0.15625-0.0059-0.0016-0.02526 0.0016-0.03125 0-0.508-0.133-1.428-0.261-2.563-0.468-1.148-0.211-2.417-0.493-3.188-0.719v0.03125c-1.9583-0.59306-7.2317-1.4688-9.6875-1.4688-0.68561 0-1.2729 0.1455-1.7188 0.53125-0.09603 0.08308-0.05549 0.21076-0.125 0.3125-0.02073-0.03399-0.0094-0.09315-0.03125-0.125-0.31619-0.46153-0.64514-0.77234-1.2812-0.875zm1.25 2.8438c0.08812 0.15042 0.13664 0.34171 0.25 0.46875 0.27738 0.31086 0.6068 0.58498 1.0938 0.6875 0.71317 0.15076 3.0943 0.90073 6.4375 1.25 3.1798 0.33094 7.0733 1.1447 8.7812 1.3438a0.89646 0.89646 0 0 0 0 0.03125c0.62786 0.06468 1.7038 0.32954 2.75 0.625 1.0355 0.29246 2.0387 0.58756 2.875 0.6875 0.0086 0.001 0.02268-0.000985 0.03125 0 0.71125 0.09346 2.4478 0.32576 4.1875 0.5625 1.7524 0.23848 3.5601 0.52245 4.0938 0.65625 0.40522 0.10632 0.72456-0.03709 1.0625-0.15625-0.3959 0.11273-0.80148 0.14536-1.1562 0.4375a0.89646 0.89646 0 0 0 -0.03125 0c-0.46628 0.40141-1.6261 1.1991-2.9375 2.0625-1.3114 0.86341-2.7776 1.8133-4.0312 2.6875-2.4718 1.7085-7.1437 4.8019-8.375 5.5-1.3257 0.76469-3.0799 1.7391-4.3438 2.7812a0.89646 0.89646 0 0 0 -0.03125 0c-0.32991 0.28402-0.52449 0.66725-0.6875 1.0312-0.45754-0.31721-1.0063-0.5375-1.6562-0.46875a0.89646 0.89646 0 0 0 0 0.03125c-0.50198 0.05871-0.94217 0.24634-1.3125 0.5-0.40853-0.71945-1.0753-1.3382-2.1875-1.6562-0.81043-0.22658-1.8032-0.4834-2.7812-0.75 0.10006-0.36399 0.10295-0.5892 0.09375-0.9375-0.011-0.393-0.05-0.876-0.094-1.342-0.088-0.932-0.203-1.855-0.312-2.375-0.146-0.695-0.469-3.515-0.469-5.125 0-1.8416-0.37875-4.0904-0.71875-6.1562-0.10892-0.65886-0.35211-1.2125-0.8125-1.5625-0.15346-0.11668-0.32796-0.03903-0.5-0.09375 0.31791-0.20731 0.58896-0.46863 0.78125-0.71875zm-2.625 0.71875c0.02374 0.01671 0.03783 0.04673 0.0625 0.0625 0.08286 0.05296 0.18814 0.0258 0.28125 0.0625-0.19646 0.11488-0.44214 0.17723-0.59375 0.34375-0.28191 0.30962-0.57074 0.757-0.40625 1.375 0.14294 0.53426 0.65625 3.1629 0.65625 5.4375 0 2.486 0.34375 6.1722 0.34375 7.75 0 0.34406 0.0603 0.88699 0.09375 1.3438-1.164-0.338-2.321-0.636-3.72-1.063-4.596-1.404-12.168-3.726-14.187-4.25-1.0159-0.26283-1.758-0.33425-2.4375 0.125-0.0089-0.08121 0.01505-0.17117 0-0.25-0.02316-0.12127-0.11564-0.22494-0.15625-0.34375 0.0116 0.0026 0.01968 0.02874 0.03125 0.03125 0.8824 0.19106 1.8729 0.09979 2.75-0.28125 1.4012-0.60867 7.0418-3.572 9.1875-4.8438 0.0066-0.0039 0.02461 0.0039 0.03125 0 2.0589-1.2003 4.9681-2.9071 7.0625-4.3125 0.33323-0.22361 0.54306-0.47142 0.75-0.71875 0.07043-0.08417 0.19218-0.15486 0.25-0.25 0.03621-0.05958-0.02708-0.14885 0-0.21875zm35.188 4.6875c0.0023 0.24835 0.10652 0.43105 0.15625 0.65625-0.1413-0.05171-0.27287-0.17649-0.40625-0.1875-0.08297-0.0068-0.13795 0.09162-0.21875 0.09375 0.19584-0.14276 0.32543-0.36542 0.46875-0.5625zm1 2.0312c0.0571 0.0445 0.09488 0.11927 0.15625 0.15625-0.26176 0.24887-0.43062 0.54574-0.53125 0.84375-0.20997 0.62183-0.25 1.3168-0.25 2.125v12.062c0 1.5147-0.0076 2.22-0.1875 4.125-0.11645 1.0864-0.1348 3.523-0.15625 5.9688-0.02145 2.4457-0.03125 4.8372-0.03125 5.5938 0 0.77158-0.0096 1.4144 0.125 2.0312 0.06729 0.30844 0.18389 0.61892 0.40625 0.90625 0.17789 0.22987 0.47108 0.38463 0.75 0.5-0.21691 0.05461-0.43077 0.09391-0.625 0.1875-0.0202-0.11214-0.000735-0.2348-0.03125-0.34375-0.11656-0.41615-0.2633-0.82116-0.71875-1.1562-0.39601-0.29264-0.82252-0.46533-1.4688-0.75-0.64623-0.28467-1.4359-0.5945-2.25-0.9375-1.628-0.685-3.395-1.462-3.907-1.78-0.887-0.554-2.916-1.433-5.218-2.438-2.303-1.005-4.788-2.083-6.219-2.75-0.578-0.275-1.228-0.537-1.875-0.812 0.02327-0.48262 0.06341-1.027 0.0625-1.75-0.0011-0.868-0.04689-1.7606-0.46875-2.5625-0.04236-0.08051-0.04266-0.17161-0.09375-0.25l-0.03125 0.03125c-0.22155-0.58232-0.51408-1.123-0.9375-1.4688-0.03668-0.02995-0.08687-0.03434-0.125-0.0625 0.35722-0.23367 0.65897-0.5424 0.84375-1 0.07455-0.18438 0.08319-0.39352 0.125-0.59375 0.50386 0.17755 1.059 0.13153 1.625-0.0625 1.8314-0.60131 3.6389-1.5764 4.9375-2.875 1.0601-1.0831 2.1695-1.8218 3.3125-2.5625 0.67472-0.45007 3.102-2.2254 5.6562-4.0938 2.5542-1.8683 5.2006-3.8068 6-4.3438a0.89646 0.89646 0 0 0 0.156 -0.156c0.56604-0.62591 0.89463-1.1498 0.96875-1.7812z"/>
  <path id="path3866" style="opacity:.3;fill:#500;fill-rule:evenodd" d="m41.312 16c-0.05991-0.0097-0.11385 0.01142-0.15625 0.03125-0.33923 0.18058-1.7097 0.17414-1.0312 1.375 0.70169 1.1996 1.3851 0.67847 1.9062 0 0.455-0.595-0.299-1.338-0.719-1.406zm3.3125 0.1875c-2.2405 0-1.2328 1.8819-0.375 2.0625 0.86034 0.18187 3.0843 0.87823 6.3438 1.2188 3.2595 0.33923 7.2205 1.1931 8.7812 1.375 1.5401 0.15866 4.2761 1.1851 5.6562 1.3438 1.3814 0.18187 7.048 0.87823 8.4062 1.2188 1.3814 0.36245 1.8916-1.7 1.0312-2.0625-0.859-0.339-2.741-0.692-5.842-1.032-3.078-0.34-4.627-1.028-5.125-1.187-0.521-0.181-2.923-0.185-3.625-0.344-0.68-0.182-4.115-0.689-5.813-1.187-1.72-0.521-7.22-1.406-9.437-1.406zm-6.25 1.4375c-0.26585-0.0057-0.5263 0.04019-0.65625 0.125-0.5211 0.33923-3.2334 1.8827-4.0938 2.5625-0.86034 0.67976-3.0817 2.0657-4.2812 2.4062-1.1996 0.34052-6.1946 3.4554-8.5938 4.6562-2.4224 1.1996 0.51918 1.3649 1.7188 0.84375 1.1996-0.5211 7.0338-3.5897 9.0938-4.8125 2.0599-1.2009 4.9726-2.8998 7.0312-4.2812 1.544-1.0361 0.57881-1.483-0.21875-1.5zm2.7812 1.75c-0.49531 0.12721-0.93404 0.59827-0.84375 0.9375 0.18187 0.67976 0.6875 3.2558 0.6875 5.6562s0.34375 6.0512 0.34375 7.75c0 0.61956 0.07107 1.5672 0.1875 2.5938-1.515-0.432-3.093-0.898-4.968-1.47-4.594-1.404-12.231-3.72-14.156-4.219-1.9245-0.49789-2.2863 0.19196-1.7188 0.9375 0.56625 0.77005 1.5575 0.7887 5.5625 2.125 4.0282 1.3582 11.853 3.6431 14.344 4.5938 0.41189 0.16113 0.8086 0.33511 1.2188 0.5 0.11343 1.0235 0.21875 1.9835 0.21875 2.6562 0 1.8793 0.14658 2.75 1.1875 2.75 1.019 0 0.6875-1.3873 0.6875-2.4062 0-0.3809-0.01208-1.3412-0.03125-2.2188 1.3402 0.49972 2.6123 0.91808 3.7812 1.0312 2.1051 0.18187 2.3182-1.9175-0.375-2.6875-0.99162-0.27723-2.2143-0.59897-3.4375-0.9375 0.009-0.40292 0.02679-0.73167 0.0625-0.84375 0.18058-0.5211-0.16188-3.4522-0.34375-4.3125-0.18058-0.86034-0.5-3.5918-0.5-5.3125s-0.34827-3.9388-0.6875-6c-0.17026-1.03-0.72344-1.2522-1.2188-1.125zm35.938 2.5625c-0.51739-0.0032-0.90625 0.20345-0.90625 1.4062 0 1.9013 1.3619 1.9087 2.3125 1.3438 0.95063-0.56625 0.57563-2.6562-0.375-2.6562-0.35649 0-0.72081-0.09184-1.0312-0.09375zm-2.125 2.8125c-0.34893-0.0288-0.84834 0.14351-1.2812 0.5-1.1312 0.97385-4.595 3.0918-7.0625 4.8125-2.4894 1.7207-7.0793 4.7612-8.4375 5.5312-1.335 0.77005-3.0643 1.7356-4.2188 2.6875-1.1312 0.97385-0.71939 2.6832 1 2.0938 1.7207-0.56496 3.438-1.5005 4.5938-2.6562 1.1312-1.1557 2.2831-1.9394 3.4375-2.6875 1.1544-0.77005 9.9356-7.2818 11.656-8.4375 1.0746-1.1883 0.89405-1.7957 0.3125-1.8438zm2.5625 1.2812c-0.76876 0-0.96875 0.96119-0.96875 2.5v12.062c0 1.5169-0.0056 2.293-0.1875 4.2188-0.2038 1.9013-0.1875 9.9493-0.1875 11.469 0 1.5388 0.0112 2.4837 0.78125 2.6875 0.76876 0.18058 0.95245-0.75616 1.1562-2.0938 0.18058-1.3582 0.5625-4.6043 0.5625-7.0938 0-2.492-0.38438-4.0181 0-4.9688 0.387-0.951 0.371-2.117 0.189-4.812-0.203-2.673-0.579-10.149-0.375-11.281 0.18058-1.1544-0.22192-2.6875-0.96875-2.6875zm-59.188 2.875c-1.019 0.18187-1.2151 0.51226-1.375 1.5312-0.18058 1.0422 1.0147 1.5767 1.875 0.875 0.86034-0.67976 0.54092-2.5649-0.5-2.4062zm0.46875 4.5312c-0.4924 0.08497-0.96875 0.52521-0.96875 1.125 0 1.1996 0.66317 8.2347 0.84375 9.0938 0.15865 0.86034 0.84375 4.4623 0.84375 5.8438 0 1.3814 0.69202 3.2634 1.0312 4.125 0.33923 0.85905 0.01015 4.1364 0.53125 6.7188 0.49789 2.5604 1.3494 0.33038 1.5312-0.53125 0.18058-0.86163-0.1875-2.5817-0.1875-3.7812 0-1.2009-0.13063-3.2635-0.3125-4.2812-0.15865-1.0422-1.0369-4.4855-1.2188-5.8438-0.15736-1.3814-0.31942-3.2513-0.5-5.3125-0.15865-2.0599-0.34135-4.6474-0.5-6.1875-0.09029-0.78101-0.60134-1.0537-1.0938-0.96875zm32.312 5.625c-1.7426 0.2038-1.7457 1.5387-1.1562 2.875 0.38438 0.95063 2.3031 0.54567 2.6875-0.40625 0.38438-0.95063 0.18814-2.6506-1.5312-2.4688zm0.0625 4.25c-0.38418 0.07373-0.6818 0.41725-0.75 1.0625-0.0992 1.0621-0.005 2.6848 0.125 4-1.3412-0.50904-2.5992-0.93263-3.0625-1.0938-1.019-0.34052-1.5211 0.1722-1 1.0312 0.5211 0.86034 1.6998 0.85149 2.7188 1.5312 0.32357 0.21812 0.97875 0.62423 1.7188 1.0625 0.24483 1.3876 0.66375 4.1871 0.53125 6.3438-0.18058 2.5823 0.0032 5.8418 0.34375 7.5625 0.33923 1.7207 0.53125 6.1754 0.53125 7.375 0 1.2022 0.31942 2.722 0.5 3.0625 0.15865 0.36245 1.2163 1.9306 1.375-0.3125 0.18058-2.2199-0.02433-6.6823 0.15625-8.0625 0.15865-1.3802-0.16077-4.6601-0.5-8.7812-0.19046-2.305-0.31947-4.2392-0.40625-5.8125 1.0272 0.51827 2.0555 1.0041 2.8125 1.1875 2.0586 0.52239 6.3554 2.5817 9.0938 3.7812 2.7384 1.2022 7.0237 3.5809 8.5625 4.2812 1.5388 0.68105 1.3972-1.9071 0.71875-2.4062-0.70169-0.51852-6.1811-2.5759-7.5625-3.4375-1.38-0.862-8.422-3.765-11.342-5.126-0.732-0.348-1.57-0.714-2.406-1.062 0-1.019 0.33472-3.5841-0.34375-4.625-0.32488-1.0762-1.1722-1.6854-1.8125-1.5625zm-7.2812 2.7188c-0.53666 0.02654-1.0521 0.31209-1.1875 1.0938-0.15994 1.019 1.0403 1.183 1.7188 0.84375 0.67847-0.34052 0.67847-1.7257 0-1.9062-0.16962-0.03966-0.35236-0.0401-0.53125-0.03125zm-2.093 2.594c-0.301 0.031-0.597 0.16-0.812 0.375-0.86034 0.86034-5.4828 3.9676-8.0625 6.1875-2.5797 2.2418-7.0549 4.6174-8.5938 6.1562-1.5388 1.5414 0.54351 2.424 1.5625 1.4062 1.0422-1.0435 6.1519-4.4666 8.0312-6.0312 1.9013-1.5388 6.3707-4.8024 8.25-6.3438 1.4259-1.1541 0.52897-1.8435-0.375-1.75zm35.157 11.875c-1.1544 0.2038-1.7294 0.98429-1.3438 1.9375 0.38438 0.94934 1.7163 1.1494 2.2812 0.5625 0.58818-0.56754 0.21693-2.6819-0.9375-2.5zm-54.125 2.3125c-0.54208-0.0019-1.1371 0.3435-1.25 0.78125-0.15865 0.68105-0.004 2.2224 1.2188 2.0625 1.1996-0.178 1.3636-1.5446 0.84375-2.4062-0.18719-0.32214-0.48725-0.43634-0.8125-0.4375zm51.062 1.0312c-0.26668-0.01272-0.55195 0.06584-0.8125 0.28125-1.0177 0.83841-2.4056 1.6854-4.125 3.25-1.7207 1.5388-6.5192 5.3235-7.7188 6.3438-1.1983 1.0409-1.7189 0.35777-3.9375 2.9375-2.2418 2.5823 0.14206 2.9261 0.84375 2.4062 0.67976-0.52239 1.3584-1.0345 2.2188-1.375 0.85905-0.36245 1.7424-1.5524 3.2812-3.0938 1.5401-1.5401 2.7668-1.0814 4.125-2.9375 1.3802-1.8587 4.8049-5.2382 6.3438-6.1875 1.1531-0.71491 0.58129-1.5868-0.21875-1.625zm-48.531 1.313c-0.9911 0.13229-0.81132 1.0735 0.34375 1.7188 1.562 0.85905 6.3698 3.414 7.75 4.0938 1.3582 0.67976 2.731 0.88532 3.75 1.5625 1.0409 0.68105 4.2959 2.3851 5.1562 2.9062 0.86034 0.52239 6.1823 3.2577 7.5625 3.9375 1.3582 0.70298 2.0524-1.1883 1.5312-1.6875-0.519-0.52-1.387-0.696-2.406-1.217-1.04-0.497-4.804-2.232-6.343-3.094-1.54-0.862-4.812-2.57-6.531-3.25-1.72-0.678-7.039-4.135-9.438-4.813-0.6-0.175-1.045-0.2-1.375-0.156zm28.313 13.219c-0.49789 0.15607-1.5454 1.2041-0.84375 2.4062 0.67847 1.1996 1.7046 1.8539 2.4062 0.3125 0.67847-1.5388-1.0414-2.9006-1.5625-2.7188z"/>
  <path id="path2875" style="fill:#fff;fill-rule:evenodd" d="m41.312 15c-0.05991-0.0097-0.11385 0.01142-0.15625 0.03125-0.33923 0.18058-1.7097 0.17414-1.0312 1.375 0.70169 1.1996 1.3851 0.67847 1.9062 0 0.455-0.595-0.299-1.338-0.719-1.406zm3.3125 0.1875c-2.2405 0-1.2328 1.8819-0.375 2.0625 0.86034 0.18187 3.0843 0.87823 6.3438 1.2188 3.2595 0.33923 7.2205 1.1931 8.7812 1.375 1.5401 0.15866 4.2761 1.1851 5.6562 1.3438 1.3814 0.18187 7.048 0.87823 8.4062 1.2188 1.3814 0.36245 1.8916-1.7 1.0312-2.0625-0.859-0.339-2.741-0.692-5.842-1.032-3.078-0.34-4.627-1.028-5.125-1.187-0.521-0.181-2.923-0.185-3.625-0.344-0.68-0.182-4.115-0.689-5.813-1.187-1.72-0.521-7.22-1.406-9.437-1.406zm-6.25 1.4375c-0.26585-0.0057-0.5263 0.04019-0.65625 0.125-0.5211 0.33923-3.2334 1.8827-4.0938 2.5625-0.86034 0.67976-3.0817 2.0657-4.2812 2.4062-1.1996 0.34052-6.1946 3.4554-8.5938 4.6562-2.4224 1.1996 0.51918 1.3649 1.7188 0.84375 1.1996-0.5211 7.0338-3.5897 9.0938-4.8125 2.0599-1.2009 4.9726-2.8998 7.0312-4.2812 1.544-1.0361 0.57881-1.483-0.21875-1.5zm2.7812 1.75c-0.49531 0.12721-0.93404 0.59827-0.84375 0.9375 0.18187 0.67976 0.6875 3.2558 0.6875 5.6562s0.34375 6.0512 0.34375 7.75c0 0.61956 0.07107 1.5672 0.1875 2.5938-1.515-0.432-3.093-0.898-4.968-1.47-4.594-1.404-12.231-3.72-14.156-4.219-1.9245-0.49789-2.2863 0.19196-1.7188 0.9375 0.56625 0.77005 1.5575 0.7887 5.5625 2.125 4.0282 1.3582 11.853 3.6431 14.344 4.5938 0.41189 0.16113 0.8086 0.33511 1.2188 0.5 0.11343 1.0235 0.21875 1.9835 0.21875 2.6562 0 1.8793 0.14658 2.75 1.1875 2.75 1.019 0 0.6875-1.3873 0.6875-2.4062 0-0.3809-0.01208-1.3412-0.03125-2.2188 1.3402 0.49972 2.6123 0.91808 3.7812 1.0312 2.1051 0.18187 2.3182-1.9175-0.375-2.6875-0.99162-0.27723-2.2143-0.59897-3.4375-0.9375 0.009-0.40292 0.02679-0.73167 0.0625-0.84375 0.18058-0.5211-0.16188-3.4522-0.34375-4.3125-0.18058-0.86034-0.5-3.5918-0.5-5.3125s-0.34827-3.9388-0.6875-6c-0.17026-1.03-0.72344-1.2522-1.2188-1.125zm35.938 2.5625c-0.51739-0.0032-0.90625 0.20345-0.90625 1.4062 0 1.9013 1.3619 1.9087 2.3125 1.3438 0.95063-0.56625 0.57563-2.6562-0.375-2.6562-0.35649 0-0.72081-0.09184-1.0312-0.09375zm-2.125 2.8125c-0.34893-0.0288-0.84834 0.14351-1.2812 0.5-1.1312 0.97385-4.595 3.0918-7.0625 4.8125-2.4894 1.7207-7.0793 4.7612-8.4375 5.5312-1.335 0.77005-3.0643 1.7356-4.2188 2.6875-1.1312 0.97385-0.71939 2.6832 1 2.0938 1.7207-0.56496 3.438-1.5005 4.5938-2.6562 1.1312-1.1557 2.2831-1.9394 3.4375-2.6875 1.1544-0.77005 9.9356-7.2818 11.656-8.4375 1.0746-1.1883 0.89405-1.7957 0.3125-1.8438zm2.5625 1.2812c-0.76876 0-0.96875 0.96119-0.96875 2.5v12.062c0 1.5169-0.0056 2.293-0.1875 4.2188-0.2038 1.9013-0.1875 9.9493-0.1875 11.469 0 1.5388 0.0112 2.4837 0.78125 2.6875 0.76876 0.18058 0.95245-0.75616 1.1562-2.0938 0.18058-1.3582 0.5625-4.6043 0.5625-7.0938 0-2.492-0.38438-4.0181 0-4.9688 0.387-0.951 0.371-2.117 0.189-4.812-0.203-2.673-0.579-10.149-0.375-11.281 0.18058-1.1544-0.22192-2.6875-0.96875-2.6875zm-59.188 2.875c-1.019 0.18187-1.2151 0.51226-1.375 1.5312-0.18058 1.0422 1.0147 1.5767 1.875 0.875 0.86034-0.67976 0.54092-2.5649-0.5-2.4062zm0.46875 4.5312c-0.4924 0.08497-0.96875 0.52521-0.96875 1.125 0 1.1996 0.66317 8.2347 0.84375 9.0938 0.15865 0.86034 0.84375 4.4623 0.84375 5.8438 0 1.3814 0.69202 3.2634 1.0312 4.125 0.33923 0.85905 0.01015 4.1364 0.53125 6.7188 0.49789 2.5604 1.3494 0.33038 1.5312-0.53125 0.18058-0.86163-0.1875-2.5817-0.1875-3.7812 0-1.2009-0.13063-3.2635-0.3125-4.2812-0.15865-1.0422-1.0369-4.4855-1.2188-5.8438-0.15736-1.3814-0.31942-3.2513-0.5-5.3125-0.15865-2.0599-0.34135-4.6474-0.5-6.1875-0.09029-0.78101-0.60134-1.0537-1.0938-0.96875zm32.312 5.625c-1.7426 0.2038-1.7457 1.5387-1.1562 2.875 0.38438 0.95063 2.3031 0.54567 2.6875-0.40625 0.38438-0.95063 0.18814-2.6506-1.5312-2.4688zm0.0625 4.25c-0.38418 0.07373-0.6818 0.41725-0.75 1.0625-0.0992 1.0621-0.005 2.6848 0.125 4-1.3412-0.50904-2.5992-0.93263-3.0625-1.0938-1.019-0.34052-1.5211 0.1722-1 1.0312 0.5211 0.86034 1.6998 0.85149 2.7188 1.5312 0.32357 0.21812 0.97875 0.62423 1.7188 1.0625 0.24483 1.3876 0.66375 4.1871 0.53125 6.3438-0.18058 2.5823 0.0032 5.8418 0.34375 7.5625 0.33923 1.7207 0.53125 6.1754 0.53125 7.375 0 1.2022 0.31942 2.722 0.5 3.0625 0.15865 0.36245 1.2163 1.9306 1.375-0.3125 0.18058-2.2199-0.02433-6.6823 0.15625-8.0625 0.15865-1.3802-0.16077-4.6601-0.5-8.7812-0.19046-2.305-0.31947-4.2392-0.40625-5.8125 1.0272 0.51827 2.0555 1.0041 2.8125 1.1875 2.0586 0.52239 6.3554 2.5817 9.0938 3.7812 2.7384 1.2022 7.0237 3.5809 8.5625 4.2812 1.5388 0.68105 1.3972-1.9071 0.71875-2.4062-0.70169-0.51852-6.1811-2.5759-7.5625-3.4375-1.38-0.862-8.422-3.765-11.342-5.126-0.732-0.348-1.57-0.714-2.406-1.062 0-1.019 0.33472-3.5841-0.34375-4.625-0.32488-1.0762-1.1722-1.6854-1.8125-1.5625zm-7.2812 2.7188c-0.53666 0.02654-1.0521 0.31209-1.1875 1.0938-0.15994 1.019 1.0403 1.183 1.7188 0.84375 0.67847-0.34052 0.67847-1.7257 0-1.9062-0.16962-0.03966-0.35236-0.0401-0.53125-0.03125zm-2.093 2.594c-0.301 0.031-0.597 0.16-0.812 0.375-0.86034 0.86034-5.4828 3.9676-8.0625 6.1875-2.5797 2.2418-7.0549 4.6174-8.5938 6.1562-1.5388 1.5414 0.54351 2.424 1.5625 1.4062 1.0422-1.0435 6.1519-4.4666 8.0312-6.0312 1.9013-1.5388 6.3707-4.8024 8.25-6.3438 1.4259-1.1541 0.52897-1.8435-0.375-1.75zm35.157 11.875c-1.1544 0.2038-1.7294 0.98429-1.3438 1.9375 0.38438 0.94934 1.7163 1.1494 2.2812 0.5625 0.58818-0.56754 0.21693-2.6819-0.9375-2.5zm-54.125 2.3125c-0.54208-0.0019-1.1371 0.3435-1.25 0.78125-0.15865 0.68105-0.004 2.2224 1.2188 2.0625 1.1996-0.178 1.3636-1.5446 0.84375-2.4062-0.18719-0.32214-0.48725-0.43634-0.8125-0.4375zm51.062 1.0312c-0.26668-0.01272-0.55195 0.06584-0.8125 0.28125-1.0177 0.83841-2.4056 1.6854-4.125 3.25-1.7207 1.5388-6.5192 5.3235-7.7188 6.3438-1.1983 1.0409-1.7189 0.35777-3.9375 2.9375-2.2418 2.5823 0.14206 2.9261 0.84375 2.4062 0.67976-0.52239 1.3584-1.0345 2.2188-1.375 0.85905-0.36245 1.7424-1.5524 3.2812-3.0938 1.5401-1.5401 2.7668-1.0814 4.125-2.9375 1.3802-1.8587 4.8049-5.2382 6.3438-6.1875 1.1531-0.71491 0.58129-1.5868-0.21875-1.625zm-48.531 1.313c-0.9911 0.13229-0.81132 1.0735 0.34375 1.7188 1.562 0.85905 6.3698 3.414 7.75 4.0938 1.3582 0.67976 2.731 0.88532 3.75 1.5625 1.0409 0.68105 4.2959 2.3851 5.1562 2.9062 0.86034 0.52239 6.1823 3.2577 7.5625 3.9375 1.3582 0.70298 2.0524-1.1883 1.5312-1.6875-0.519-0.52-1.387-0.696-2.406-1.217-1.04-0.497-4.804-2.232-6.343-3.094-1.54-0.862-4.812-2.57-6.531-3.25-1.72-0.678-7.039-4.135-9.438-4.813-0.6-0.175-1.045-0.2-1.375-0.156zm28.313 13.219c-0.49789 0.15607-1.5454 1.2041-0.84375 2.4062 0.67847 1.1996 1.7046 1.8539 2.4062 0.3125 0.67847-1.5388-1.0414-2.9006-1.5625-2.7188z"/>
 </g>
</svg>
