<?xml version="1.0" encoding="UTF-8" standalone="no"?>
<!-- Created with Inkscape (http://www.inkscape.org/) -->
<svg id="svg2408" xmlns:rdf="http://www.w3.org/1999/02/22-rdf-syntax-ns#" xmlns="http://www.w3.org/2000/svg" height="96" width="96" version="1.0" xmlns:cc="http://creativecommons.org/ns#" xmlns:xlink="http://www.w3.org/1999/xlink" xmlns:dc="http://purl.org/dc/elements/1.1/">
 <defs id="defs2410">
  <linearGradient id="ButtonShadow" y2="7.0165" gradientUnits="userSpaceOnUse" x2="45.448" gradientTransform="scale(1.0059 .99417)" y1="92.54" x1="45.448">
   <stop id="stop3750" offset="0"/>
   <stop id="stop3752" style="stop-opacity:.58824" offset="1"/>
  </linearGradient>
  <linearGradient id="linearGradient3737">
   <stop id="stop3739" style="stop-color:#fff" offset="0"/>
   <stop id="stop3741" style="stop-color:#fff;stop-opacity:0" offset="1"/>
  </linearGradient>
  <filter id="filter3174" color-interpolation-filters="sRGB">
   <feGaussianBlur id="feGaussianBlur3176" stdDeviation="1.71"/>
  </filter>
  <linearGradient id="ButtonShadow-0" y2="7.0165" gradientUnits="userSpaceOnUse" x2="45.448" gradientTransform="matrix(1.0059 0 0 .99417 100 0)" y1="92.54" x1="45.448">
   <stop id="stop3750-8" offset="0"/>
   <stop id="stop3752-5" style="stop-opacity:.58824" offset="1"/>
  </linearGradient>
  <linearGradient id="linearGradient3780" y2="90.239" xlink:href="#ButtonShadow-0" gradientUnits="userSpaceOnUse" x2="32.251" gradientTransform="matrix(1.0238 0 0 1.0119 -1.1429 -98.071)" y1="6.1317" x1="32.251"/>
  <linearGradient id="linearGradient3721" y2="90.239" xlink:href="#ButtonShadow-0" gradientUnits="userSpaceOnUse" x2="32.251" gradientTransform="translate(0,-97)" y1="6.1317" x1="32.251"/>
  <filter id="filter3712" color-interpolation-filters="sRGB">
   <feGaussianBlur id="feGaussianBlur3714" stdDeviation="1.5889298"/>
  </filter>
  <radialGradient id="radialGradient4098" xlink:href="#linearGradient3737" gradientUnits="userSpaceOnUse" cy="90.172" cx="48" gradientTransform="matrix(1.1573 0 0 .99591 -7.551 .19713)" r="42"/>
  <linearGradient id="linearGradient4101" y2="63.893" xlink:href="#linearGradient3737" gradientUnits="userSpaceOnUse" x2="36.357" y1="6" x1="36.357"/>
  <linearGradient id="linearGradient4104" y2="5.9877" gradientUnits="userSpaceOnUse" x2="48" y1="90" x1="48">
   <stop id="stop3934" style="stop-color:#c8c8c8" offset="0"/>
   <stop id="stop3936" style="stop-color:#e1e1e1" offset="1"/>
  </linearGradient>
 </defs>
 <metadata id="metadata2413">
  <rdf:RDF>
   <cc:Work rdf:about="">
    <dc:format>image/svg+xml</dc:format>
    <dc:type rdf:resource="http://purl.org/dc/dcmitype/StillImage"/>
    <dc:title/>
   </cc:Work>
  </rdf:RDF>
 </metadata>
 <g id="layer2" style="display:none">
  <rect id="rect3745" style="opacity:.9;filter:url(#filter3174);fill:url(#ButtonShadow)" rx="6" ry="6" height="85" width="86" y="7" x="5"/>
 </g>
 <g id="layer3">
  <path id="path3786" style="opacity:0.08;fill:url(#linearGradient3780)" d="m12-95.031c-5.5111 0-10.031 4.5202-10.031 10.031v71c0 5.5111 4.5202 10.031 10.031 10.031h72c5.5111 0 10.031-4.5202 10.031-10.031v-71c0-5.5111-4.5202-10.031-10.031-10.031h-72z" transform="scale(1,-1)"/>
  <path id="path3778" style="opacity:.1;fill:url(#linearGradient3780)" d="m12-94.031c-4.9716 0-9.0312 4.0596-9.0312 9.0312v71c0 4.9716 4.0596 9.0312 9.0312 9.0312h72c4.9716 0 9.0312-4.0596 9.0312-9.0312v-71c0-4.9716-4.0596-9.0312-9.0312-9.0312h-72z" transform="scale(1,-1)"/>
  <path id="path3770" style="opacity:.2;fill:url(#linearGradient3780)" d="m12-93c-4.4091 0-8 3.5909-8 8v71c0 4.4091 3.5909 8 8 8h72c4.4091 0 8-3.5909 8-8v-71c0-4.4091-3.5909-8-8-8h-72z" transform="scale(1,-1)"/>
  <rect id="rect3723" style="opacity:.3;fill:url(#linearGradient3780)" transform="scale(1,-1)" rx="7" ry="7" height="85" width="86" y="-92" x="5"/>
  <rect id="rect3716" style="opacity:.45;fill:url(#linearGradient3721)" transform="scale(1,-1)" rx="6" ry="6" height="84" width="84" y="-91" x="6"/>
 </g>
 <rect id="rect2419" style="fill:url(#linearGradient4104)" rx="6" ry="6" height="84" width="84" y="6" x="6"/>
 <g id="g4221" transform="matrix(.94350 0 0 .94350 2.712 3.9581)">
  <path id="path3097" style="filter:url(#filter3712);fill-opacity:.25490" d="m-1161-246c0 43.078-34.922 78-78 78s-78-34.922-78-78 34.922-78 78-78 78 34.922 78 78z" transform="matrix(.50114 0 0 .48402 668.91 165.67)"/>
  <path id="path3099" style="filter:url(#filter3712);fill-opacity:.25490" transform="matrix(.50114 0 0 .48402 115.97 41.84)" d="m-83.636 63.62 12 30-34-13"/>
  <path id="path3101" style="fill:#f15d22" d="m-1161-246c0 43.078-34.922 78-78 78s-78-34.922-78-78 34.922-78 78-78 78 34.922 78 78z" transform="matrix(.50114 0 0 .48402 668.91 164.7)"/>
  <path id="path3103" style="fill:#f15d22" d="m74.059 71.665 6.014 14.521-17.039-6.292"/>
  <g id="g3105" style="fill:#fff" transform="matrix(3.9671 -0.213 .22053 3.8316 5.0476 -158.95)">
   <path id="path3107" style="fill:#fff" d="m-0.7199 52.194c-3.1e-7 -0.79595 0.22171-1.4156 0.66514-1.8591 0.44342-0.44342 1.0609-0.66514 1.8524-0.66514 0.81147 0.000005 1.4367 0.21839 1.8757 0.65516 0.43899 0.43456 0.65848 1.0443 0.65849 1.8291-0.0000053 0.5698-0.09645 1.0376-0.28934 1.4034-0.19068 0.36361-0.46782 0.6474-0.83142 0.85138-0.3614 0.20176-0.81258 0.30264-1.3536 0.30264-0.54985 0-1.0055-0.08758-1.3669-0.26273-0.35918-0.17515-0.65073-0.45229-0.87466-0.83142s-0.3359-0.85359-0.3359-1.4234m1.5065 0.0067c-0.00000181 0.4922 0.0909 0.84584 0.27271 1.0609 0.18402 0.21506 0.43345 0.32259 0.74828 0.32259 0.3237 0.000001 0.57423-0.10531 0.75161-0.31594 0.17737-0.21062 0.26605-0.58865 0.26606-1.1341-0.0000039-0.45894-0.093123-0.79373-0.27936-1.0044-0.18403-0.21284-0.43456-0.31926-0.75161-0.31927-0.30375 0.000004-0.54763 0.10754-0.73165 0.32259-0.18402 0.21506-0.27603 0.57091-0.27603 1.0675"/>
   <path id="path3109" style="fill:#fff" d="m4.3765 49.753h1.9821l0.76491 2.9665 0.76158-2.9665h1.9755v4.8755h-1.2305v-3.7181l-0.95448 3.7181h-1.1141l-0.95115-3.7181v3.7181h-1.2338v-4.8755"/>
   <path id="path3111" style="fill:#fff" d="m12.639 52.862v-1.0143h2.328v2.0786c-0.44565 0.30375-0.8403 0.51105-1.1839 0.62191-0.34144 0.10864-0.74718 0.16296-1.2172 0.16296-0.57867 0-1.0509-0.09866-1.4167-0.29599-0.36361-0.19732-0.6463-0.49109-0.84805-0.88131-0.19954-0.39021-0.29931-0.83807-0.29931-1.3436 0-0.53211 0.10975-0.99438 0.32924-1.3868 0.2195-0.39464 0.54098-0.69396 0.96445-0.89794 0.33035-0.15741 0.77488-0.23612 1.3336-0.23612 0.53876 0.000005 0.94117 0.04878 1.2072 0.14633 0.26827 0.09756 0.48998 0.24943 0.66514 0.45562 0.17737 0.20398 0.31039 0.46338 0.39908 0.77821l-1.4533 0.2594c-0.05987-0.18402-0.16185-0.32481-0.30596-0.42236-0.1419-0.09755-0.3237-0.14633-0.54541-0.14633-0.33036 0.000004-0.59419 0.11529-0.79152 0.34587-0.19511 0.22837-0.29266 0.59087-0.29266 1.0875-0.000002 0.52768 0.09866 0.90459 0.29599 1.1307 0.19954 0.22615 0.47668 0.33922 0.83142 0.33922 0.1685 0.000001 0.32924-0.02439 0.48223-0.07317 0.15298-0.04878 0.32813-0.13192 0.52546-0.24943v-0.45895h-1.0077"/>
   <path id="path3113" style="fill:#fff" d="m15.025 49.753h1.4467v1.1108l-0.27936 2.2315h-0.89461l-0.27271-2.2315v-1.1108m0.04988 3.6815h1.3502v1.1939h-1.3502v-1.1939"/>
  </g>
  <g id="g3115" style="fill:#fff" transform="matrix(3.967 -.21515 .22276 3.8315 5.0476 -158.95)">
   <path id="path3117" style="fill:#fff" d="m-0.73903 54.842h0.9004l0.32456 1.715 0.47323-1.715h0.89831l0.47533 1.715 0.32456-1.715h0.89621l-0.67635 3.0697h-0.92972l-0.53815-1.9327-0.53605 1.9327h-0.92972l-0.68263-3.0697"/>
   <path id="path3119" style="fill:#fff" d="m3.3678 56.379c-2e-7 -0.50115 0.1396-0.89133 0.41879-1.1705 0.27919-0.27919 0.66797-0.41879 1.1663-0.41879 0.51092 0.000003 0.90459 0.13751 1.181 0.41251 0.2764 0.27361 0.4146 0.6575 0.4146 1.1517-0.0000033 0.35877-0.060728 0.65332-0.18217 0.88365-0.12006 0.22894-0.29455 0.40762-0.52349 0.53605-0.22755 0.12703-0.51163 0.19055-0.85224 0.19055-0.3462 0-0.63307-0.05514-0.86062-0.16542-0.2261-0.111-0.4097-0.285-0.5507-0.524s-0.2115-0.537-0.2115-0.896m0.94856 0.0042c-0.0000012 0.30991 0.057234 0.53256 0.1717 0.66797 0.11586 0.13541 0.27291 0.20311 0.47114 0.20311 0.20381 0 0.36155-0.06631 0.47323-0.19893s0.16751-0.37063 0.16752-0.71404c-0.0000024-0.28896-0.058633-0.49976-0.17589-0.63238-0.11587-0.13401-0.27361-0.20102-0.47323-0.20102-0.19125 0.000003-0.34481 0.06771-0.46067 0.20311-0.11587 0.13541-0.1738 0.35946-0.1738 0.67216"/>
   <path id="path3121" style="fill:#fff" d="m6.6978 57.912v-3.0697h1.5809c0.29315 0.000003 0.51721 0.02513 0.67216 0.07538 0.15495 0.05026 0.27989 0.14379 0.37482 0.28059 0.094923 0.13541 0.14239 0.30083 0.14239 0.49627-0.0000031 0.17031-0.036298 0.31758-0.10889 0.44182-0.072593 0.12285-0.17241 0.22266-0.29944 0.29944-0.080969 0.04886-0.19195 0.08934-0.33294 0.12145 0.11307 0.03769 0.19543 0.07538 0.24709 0.11307 0.034897 0.02513 0.085151 0.07887 0.15076 0.16123 0.067004 0.08236 0.11167 0.14588 0.13401 0.19055l0.45858 0.88993h-1.0721l-0.5067-0.939c-0.0642-0.121-0.1215-0.2-0.1717-0.236-0.0684-0.048-0.1459-0.071-0.2324-0.071h-0.083758v1.2459h-0.95275m0.95275-1.8259h0.39995c0.043273 0.000001 0.12703-0.01396 0.25127-0.04188 0.062817-0.01256 0.11377-0.04467 0.15286-0.09632 0.040481-0.05165 0.060723-0.11098 0.060725-0.17799-0.0000021-0.09911-0.031412-0.17519-0.094228-0.22824-0.062821-0.05304-0.18078-0.07957-0.35388-0.07957h-0.4167v0.624"/>
   <path id="path3123" style="fill:#fff" d="m9.7792 54.842h1.4092c0.2778 0.000003 0.50185 0.03769 0.67216 0.11307 0.1717 0.07538 0.31339 0.18357 0.42507 0.32456 0.11168 0.141 0.19264 0.30502 0.2429 0.49208 0.05025 0.18706 0.07538 0.38529 0.07538 0.59468-0.000003 0.32805-0.03769 0.58282-0.11307 0.76429-0.07399 0.18008-0.17729 0.33154-0.30991 0.45439-0.13262 0.12145-0.27501 0.20242-0.42717 0.2429-0.208 0.05584-0.39646 0.08376-0.56537 0.08376h-1.4092v-3.0697m0.94856 0.69519v1.6773h0.23243c0.19823 0 0.33922-0.02164 0.42298-0.06491 0.08376-0.04467 0.14937-0.12145 0.19683-0.23034 0.04746-0.11028 0.07119-0.28827 0.07119-0.53396-0.000002-0.32526-0.05305-0.54792-0.15914-0.66797-0.1061-0.12005-0.28199-0.18008-0.52768-0.18008h-0.23662"/>
   <path id="path3125" style="fill:#fff" d="m12.682 56.896 0.9025-0.05654c0.01954 0.14658 0.05933 0.25826 0.11936 0.33503 0.09772 0.12424 0.23731 0.18636 0.41879 0.18636 0.13541 0 0.23941-0.03141 0.312-0.09423 0.07398-0.06421 0.11098-0.1382 0.11098-0.22196-0.000002-0.07957-0.0349-0.15076-0.1047-0.21358s-0.23173-0.12215-0.4858-0.17799c-0.416-0.09353-0.71264-0.21777-0.88993-0.37272-0.17868-0.15495-0.26803-0.35248-0.26803-0.59259 0-0.15774 0.04537-0.30641 0.13611-0.44601 0.09213-0.14099 0.22964-0.25127 0.41251-0.33084 0.18427-0.08096 0.43624-0.12145 0.75592-0.12145 0.39227 0.000003 0.691 0.07329 0.89621 0.21987 0.2066 0.14518 0.32945 0.37691 0.36854 0.69519l-0.89412 0.05235c-0.02373-0.1382-0.07399-0.23871-0.15076-0.30153-0.07538-0.06282-0.18008-0.09422-0.31409-0.09423-0.11028 0.000003-0.19334 0.02373-0.24918 0.0712-0.05584 0.04607-0.08376 0.10261-0.08376 0.16961-0.000001 0.04886 0.02303 0.09284 0.0691 0.13192 0.04467 0.04049 0.15076 0.07818 0.31828 0.11307 0.4146 0.08935 0.71124 0.18008 0.88993 0.27222 0.18008 0.09074 0.3106 0.20381 0.39157 0.33922 0.08236 0.13541 0.12354 0.28687 0.12354 0.45439-0.000003 0.19683-0.05445 0.37831-0.16333 0.54443-0.10889 0.16612-0.26105 0.29246-0.45648 0.37901-0.19544 0.08515-0.44183 0.12773-0.73917 0.12773-0.5221 0-0.88365-0.10051-1.0847-0.30153-0.20102-0.20102-0.31479-0.45648-0.34132-0.76639"/>
   <path id="path3127" style="fill:#fff" d="m15.451 54.842h0.91087v0.69938l-0.17589 1.405h-0.56328l-0.1717-1.405v-0.69938m0.03141 2.318h0.85015v0.75173h-0.85015v-0.75173"/>
  </g>
 </g>
 <path id="rect3728" d="m12 6c-3.324 0-6 2.676-6 6v2 68 2c0 0.33472 0.04135 0.6507 0.09375 0.96875 0.0487 0.2956 0.09704 0.59692 0.1875 0.875 0.00988 0.03038 0.020892 0.0636 0.03125 0.09375 0.098865 0.28777 0.23488 0.54745 0.375 0.8125 0.14459 0.27351 0.31562 0.53562 0.5 0.78125 0.18438 0.24564 0.37378 0.47347 0.59375 0.6875 0.43995 0.42806 0.94291 0.81453 1.5 1.0938 0.27854 0.13961 0.57347 0.24695 0.875 0.34375-0.2562-0.10022-0.48671-0.23627-0.71875-0.375-0.00741-0.0044-0.023866 0.0045-0.03125 0-0.031933-0.0193-0.062293-0.04251-0.09375-0.0625-0.1204-0.0767-0.23102-0.16351-0.34375-0.25-0.10617-0.0808-0.21328-0.16111-0.3125-0.25-0.1778-0.162-0.3473-0.346-0.4999-0.531-0.1075-0.131-0.2183-0.266-0.3124-0.407-0.0251-0.038-0.0385-0.086-0.0626-0.125-0.0647-0.103-0.1302-0.204-0.1874-0.312-0.1011-0.195-0.2057-0.416-0.2813-0.625-0.008-0.022-0.0236-0.041-0.0313-0.063-0.0318-0.092-0.0358-0.187-0.0624-0.281-0.0304-0.107-0.0704-0.203-0.0938-0.313-0.0729-0.341-0.125-0.698-0.125-1.062v-2-68-2c0-2.782 2.2182-5 5-5h2 68 2c2.7818 0 5 2.2182 5 5v2 68 2c0 0.3643-0.05212 0.72099-0.125 1.0625-0.04415 0.20689-0.08838 0.39766-0.15625 0.59375-0.0077 0.02195-0.0233 0.04069-0.03125 0.0625-0.06274 0.17374-0.13838 0.36745-0.21875 0.53125-0.04158 0.0828-0.07904 0.16995-0.125 0.25-0.0546 0.09721-0.12677 0.18835-0.1875 0.28125-0.09411 0.14096-0.20492 0.276-0.3125 0.40625-0.14317 0.17445-0.30314 0.347-0.46875 0.5-0.01117 0.0102-0.01998 0.02115-0.03125 0.03125-0.13839 0.12556-0.28509 0.23444-0.4375 0.34375-0.10257 0.07315-0.20432 0.15336-0.3125 0.21875-0.0074 0.0045-0.02384-0.0044-0.03125 0-0.23204 0.13873-0.46255 0.27478-0.71875 0.375 0.30153-0.0968 0.59646-0.20414 0.875-0.34375 0.55709-0.27922 1.0601-0.66569 1.5-1.0938 0.21997-0.21403 0.40937-0.44186 0.59375-0.6875s0.35541-0.50774 0.5-0.78125c0.14012-0.26505 0.27614-0.52473 0.375-0.8125 0.01041-0.03078 0.02133-0.06274 0.03125-0.09375 0.09046-0.27808 0.1388-0.5794 0.1875-0.875 0.053-0.318 0.094-0.634 0.094-0.969v-2-68-2c0-3.324-2.676-6-6-6h-72z" style="opacity:.35;fill:url(#linearGradient4101)"/>
 <path id="path3615" d="m12 90c-3.324 0-6-2.676-6-6v-2-68-2c0-0.33472 0.04135-0.6507 0.09375-0.96875 0.0487-0.2956 0.09704-0.59692 0.1875-0.875 0.0099-0.03 0.0209-0.063 0.0313-0.094 0.0989-0.2873 0.2349-0.547 0.375-0.812 0.1446-0.2735 0.3156-0.5356 0.5-0.7812 0.1844-0.2457 0.3738-0.4735 0.5937-0.6876 0.44-0.428 0.943-0.8145 1.5-1.0937 0.2786-0.1396 0.5735-0.2469 0.8748-0.3437-0.256 0.1002-0.4865 0.2362-0.7185 0.375-0.00741 0.0044-0.023866-0.0045-0.03125 0-0.031933 0.0193-0.062293 0.04251-0.09375 0.0625-0.1204 0.0767-0.23102 0.16351-0.34375 0.25-0.10617 0.0808-0.21328 0.16111-0.3125 0.25-0.1779 0.1614-0.3474 0.3453-0.5 0.5312-0.1075 0.1303-0.2183 0.2653-0.3124 0.4063-0.0251 0.0383-0.0385 0.0858-0.0626 0.125-0.0647 0.103-0.1302 0.2045-0.1874 0.3124-0.1011 0.1948-0.2057 0.4158-0.2813 0.625-0.008 0.0219-0.0236 0.0406-0.0313 0.0626-0.0318 0.0919-0.0358 0.1868-0.0624 0.2812-0.0304 0.1066-0.0704 0.203-0.0938 0.3125-0.0729 0.3415-0.125 0.6985-0.125 1.0625v2 68 2c0 2.7818 2.2182 5 5 5h2 68 2c2.7818 0 5-2.2182 5-5v-2-68-2c0-0.364-0.052-0.721-0.125-1.0625-0.044-0.2069-0.088-0.3977-0.156-0.5937-0.008-0.022-0.024-0.0407-0.031-0.0626-0.063-0.1737-0.139-0.3674-0.219-0.5312-0.042-0.0828-0.079-0.17-0.125-0.25-0.055-0.0972-0.127-0.1884-0.188-0.2812-0.094-0.141-0.205-0.276-0.312-0.4063-0.143-0.1745-0.303-0.347-0.469-0.5-0.011-0.0102-0.02-0.0211-0.031-0.0313-0.139-0.1255-0.285-0.2344-0.438-0.3437-0.102-0.0731-0.204-0.1534-0.312-0.2187-0.0074-0.0045-0.02384 0.0044-0.03125 0-0.23204-0.13873-0.46255-0.27478-0.71875-0.375 0.30153 0.0968 0.59646 0.20414 0.875 0.34375 0.55709 0.27922 1.0601 0.66569 1.5 1.0938 0.21997 0.21403 0.40937 0.44186 0.59375 0.6875s0.35541 0.50774 0.5 0.78125c0.14012 0.26505 0.27614 0.52473 0.375 0.8125 0.01041 0.03078 0.02133 0.06274 0.03125 0.09375 0.09046 0.27808 0.1388 0.5794 0.1875 0.875 0.053 0.318 0.094 0.634 0.094 0.969v2 68 2c0 3.324-2.676 6-6 6h-72z" style="opacity:.2;fill:url(#radialGradient4098)"/>
 <text id="text3144" style="font-size:72px;letter-spacing:-12.18px;word-spacing:0px;font-family:ReservoirGrunge;line-height:125%;fill:#000000" y="49.228157" x="38.019218" xml:space="preserve"><tspan id="tspan3146" y="49.228157" x="38.019218"/></text>
</svg>
