<?xml version="1.0" encoding="UTF-8" standalone="no"?>
<!-- Created with Inkscape (http://www.inkscape.org/) -->
<svg id="svg2408" xmlns:rdf="http://www.w3.org/1999/02/22-rdf-syntax-ns#" xmlns="http://www.w3.org/2000/svg" height="96" width="96" version="1.0" xmlns:cc="http://creativecommons.org/ns#" xmlns:xlink="http://www.w3.org/1999/xlink" xmlns:dc="http://purl.org/dc/elements/1.1/">
 <defs id="defs2410">
  <linearGradient id="linearGradient4022">
   <stop id="stop4024" offset="0"/>
   <stop id="stop4026" style="stop-opacity:0" offset="1"/>
  </linearGradient>
  <linearGradient id="linearGradient3997">
   <stop id="stop3999" style="stop-color:#fff" offset="0"/>
   <stop id="stop4001" style="stop-color:#fff;stop-opacity:0" offset="1"/>
  </linearGradient>
  <linearGradient id="linearGradient3977">
   <stop id="stop3979" style="stop-color:#e1e1e1" offset="0"/>
   <stop id="stop3981" style="stop-color:#f5f5f5" offset="1"/>
  </linearGradient>
  <linearGradient id="ButtonShadow" y2="7.0165" gradientUnits="userSpaceOnUse" x2="45.448" gradientTransform="scale(1.0059 .99417)" y1="92.54" x1="45.448">
   <stop id="stop3750" offset="0"/>
   <stop id="stop3752" style="stop-opacity:.58824" offset="1"/>
  </linearGradient>
  <linearGradient id="linearGradient3706" y2="5.9877" gradientUnits="userSpaceOnUse" x2="48" y1="90" x1="48">
   <stop id="stop3702" style="stop-color:#2276c5" offset="0"/>
   <stop id="stop3704" style="stop-color:#69a9e6" offset="1"/>
  </linearGradient>
  <linearGradient id="linearGradient3188" y2="63.893" gradientUnits="userSpaceOnUse" x2="36.357" y1="6" x1="36.357">
   <stop id="stop3739" style="stop-color:#fff" offset="0"/>
   <stop id="stop3741" style="stop-color:#fff;stop-opacity:0" offset="1"/>
  </linearGradient>
  <filter id="filter7725" color-interpolation-filters="sRGB">
   <feGaussianBlur id="feGaussianBlur7727" stdDeviation="1.71"/>
  </filter>
  <linearGradient id="linearGradient7959" y2="7" xlink:href="#ButtonShadow" gradientUnits="userSpaceOnUse" x2="-34.4" gradientTransform="translate(100)" y1="92.083" x1="-34.4"/>
  <linearGradient id="linearGradient8096" y2="5.9877" xlink:href="#linearGradient3977" gradientUnits="userSpaceOnUse" x2="48" gradientTransform="matrix(.5 0 0 .5 3 45)" y1="90" x1="48"/>
  <linearGradient id="linearGradient3197" y2="7.9458" xlink:href="#ButtonShadow" gradientUnits="userSpaceOnUse" x2="32" y1="91" x1="32"/>
  <linearGradient id="linearGradient3975" y2="5.9877" gradientUnits="userSpaceOnUse" x2="48" gradientTransform="matrix(.5 0 0 .5 45 45)" y1="90" x1="48">
   <stop id="stop4943" style="stop-color:#2d88c8" offset="0"/>
   <stop id="stop4945" style="stop-color:#539fd5" offset="1"/>
  </linearGradient>
  <linearGradient id="linearGradient3987" y2="5.9877" xlink:href="#linearGradient3977" gradientUnits="userSpaceOnUse" x2="48" gradientTransform="matrix(.5 0 0 .5 45 3)" y1="90" x1="48"/>
  <linearGradient id="linearGradient4003" y2="88" xlink:href="#linearGradient3997" gradientUnits="userSpaceOnUse" x2="24" y1="48" x1="24"/>
  <linearGradient id="linearGradient4007" y2="88" xlink:href="#linearGradient3997" gradientUnits="userSpaceOnUse" x2="24" gradientTransform="translate(42,-42)" y1="48" x1="24"/>
  <linearGradient id="linearGradient4011" y2="88" xlink:href="#linearGradient3997" gradientUnits="userSpaceOnUse" x2="24" gradientTransform="translate(0,-42)" y1="48" x1="24"/>
  <linearGradient id="linearGradient4015" y2="88" xlink:href="#linearGradient3997" gradientUnits="userSpaceOnUse" x2="24" gradientTransform="translate(42)" y1="48" x1="24"/>
  <linearGradient id="linearGradient3986" y2="27" gradientUnits="userSpaceOnUse" x2="48" gradientTransform="translate(-54 -.0000038147)" y1="27" x1="6">
   <stop id="stop3982" style="stop-color:#fac217" offset="0"/>
   <stop id="stop3984" style="stop-color:#f8de72" offset="1"/>
  </linearGradient>
  <radialGradient id="radialGradient4028" xlink:href="#linearGradient4022" gradientUnits="userSpaceOnUse" cy="69" cx="48" gradientTransform="matrix(1.1429 0 0 .95238 -6.8571 -17.714)" r="42"/>
  <radialGradient id="radialGradient4032" xlink:href="#linearGradient4022" gradientUnits="userSpaceOnUse" cy="69" cx="48" gradientTransform="matrix(1.1429 0 0 .95238 -6.8571 24.286)" r="42"/>
  <linearGradient id="linearGradient3973" y2="7" xlink:href="#ButtonShadow" gradientUnits="userSpaceOnUse" x2="32" y1="91" x1="32"/>
  <linearGradient id="linearGradient3982" y2="6" xlink:href="#ButtonShadow" gradientUnits="userSpaceOnUse" x2="29" y1="93" x1="29"/>
  <linearGradient id="linearGradient3990" y2="5" xlink:href="#ButtonShadow" gradientUnits="userSpaceOnUse" x2="22" y1="94" x1="22"/>
  <linearGradient id="linearGradient3998" y2="4" xlink:href="#ButtonShadow" gradientUnits="userSpaceOnUse" x2="21" y1="95" x1="21"/>
 </defs>
 <metadata id="metadata2413">
  <rdf:RDF>
   <cc:Work rdf:about="">
    <dc:format>image/svg+xml</dc:format>
    <dc:type rdf:resource="http://purl.org/dc/dcmitype/StillImage"/>
    <dc:title/>
   </cc:Work>
  </rdf:RDF>
 </metadata>
 <g id="layer5" style="display:none">
  <path id="rect7705" style="opacity:.9;filter:url(#filter7725);fill:url(#linearGradient7959)" d="m11.281 7c-3.482 0-6.281 2.7531-6.281 6.156v30.688c0 2.528 1.5572 4.712 3.7812 5.656-2.224 0.944-3.7812 3.128-3.7812 5.656v30.688c0 3.403 2.799 6.156 6.281 6.156h31.438c2.218 0 4.163-1.126 5.281-2.812 1.118 1.686 3.063 2.812 5.281 2.812h31.438c3.482 0 6.281-2.753 6.281-6.156v-30.688c0-3.403-2.799-6.156-6.281-6.156h-31.438c-2.218 0-4.163 1.126-5.281 2.812-0.667-1.006-1.644-1.829-2.781-2.312 2.224-0.944 3.781-3.128 3.781-5.656v-30.688c0-3.4029-2.799-6.156-6.281-6.156h-31.438z"/>
 </g>
 <g id="layer2">
  <path id="path3846" style="opacity:0.08;fill:url(#linearGradient3998)" d="m12 4c-5.4881 0-10 4.5119-10 10v29c0 2.4985 1.1375 4.5866 2.6562 6.25-1.4274 1.549-2.3678 3.522-2.5937 5.719-0.043 0.334-0.0625 0.68-0.0625 1.031v29c0 5.4881 4.5119 10 10 10h30c2.3774 0 4.3669-1.048 6-2.4062 0.20414 0.16979 0.40966 0.34135 0.625 0.5 1.507 1.11 3.295 1.906 5.375 1.906h30c0.68601 0 1.3514-0.08466 2-0.21875 1.9458-0.40228 3.702-1.3583 5.0625-2.7188 1.814-1.813 2.938-4.318 2.938-7.062v-29c0-0.351-0.02-0.697-0.062-1.031-0.226-2.197-1.167-4.17-2.594-5.719 1.518-1.663 2.656-3.751 2.656-6.25v-29c0-5.4881-4.512-10-10-10h-30c-2.25 0-4.322 0.7586-6 2.0312-1.678-1.2726-3.75-2.0312-6-2.0312h-30z"/>
  <path id="path3842" style="opacity:.1;fill:url(#linearGradient3990)" d="m12 5c-4.951 0-9 4.049-9 9v29c0 2.5724 1.2569 4.7317 3 6.3438-1.828 1.65-3 4.014-3 6.656v29c0 4.951 4.049 9 9 9h30c2.3887 0 4.4143-1.0808 6-2.5938 0.19821 0.18912 0.41319 0.3569 0.625 0.53125 1.483 1.221 3.285 2.063 5.375 2.063h30c0.30944 0 0.60463-0.000385 0.90625-0.03125 0.30162-0.03087 0.61398-0.09606 0.90625-0.15625 1.1691-0.24077 2.2608-0.6952 3.2188-1.3438 0.2395-0.16214 0.46504-0.34747 0.6875-0.53125 2.002-1.654 3.281-4.152 3.281-6.937v-29c0-2.642-1.172-5.006-3-6.656 1.743-1.612 3-3.772 3-6.344v-29c0-4.951-4.049-9-9-9h-30c-2.309 0-4.403 0.9019-6 2.3438-1.597-1.4419-3.691-2.3438-6-2.3438h-30zm36 44.312c0.0434 0.04032 0.08101 0.08533 0.125 0.125-0.04357 0.03986-0.08363 0.08311-0.125 0.125-0.04137-0.04189-0.08143-0.08514-0.125-0.125 0.04399-0.03967 0.0816-0.08468 0.125-0.125z"/>
  <path id="path3184" style="opacity:.2;fill:url(#linearGradient3982)" d="m12 6c-4.4067 0-8 3.5933-8 8v29c0 2.6896 1.3655 5.0272 3.4062 6.4688-1.2802 0.902-2.2667 2.177-2.8437 3.656-0.0929 0.238-0.18 0.47-0.25 0.719-0.0301 0.104-0.0679 0.207-0.0937 0.312-0.0662 0.277-0.1199 0.557-0.1563 0.844-0.0419 0.331-0.0625 0.658-0.0625 1v29c0 4.4067 3.5933 8 8 8h30c2.422 0 4.5383-1.1409 6-2.8438 0.18271 0.21285 0.39127 0.43084 0.59375 0.625 1.417 1.359 3.287 2.219 5.406 2.219h30c0.27542 0 0.54412-0.0039 0.8125-0.03125 2.1471-0.21915 4.0377-1.2936 5.3438-2.875 1.143-1.384 1.844-3.166 1.844-5.094v-29c0-0.342-0.021-0.669-0.062-1-0.037-0.287-0.091-0.567-0.157-0.844-0.024-0.103-0.065-0.21-0.093-0.312-0.072-0.245-0.157-0.485-0.25-0.719-0.577-1.479-1.564-2.754-2.844-3.656 2.041-1.442 3.406-3.779 3.406-6.469v-29c0-4.4067-3.593-8-8-8h-30c-2.389 0-4.532 1.0489-6 2.7188-1.468-1.6699-3.611-2.7188-6-2.7188h-30zm36 42.219c0.431 0.482 0.935 0.911 1.469 1.281-0.539 0.391-1.036 0.839-1.469 1.344-0.433-0.505-0.93-0.953-1.469-1.344 0.534-0.37 1.038-0.799 1.469-1.281z"/>
  <path id="rect3816" style="opacity:.3;fill:url(#linearGradient3973)" d="m12 7c-3.878 0-7 3.122-7 7v29c0 2.9691 1.8392 5.4791 4.4375 6.5-0.33234 0.13058-0.66377 0.25989-0.96875 0.4375-0.88706 0.51659-1.6366 1.2528-2.2188 2.0938-0.01606 0.0232-0.04671 0.03909-0.0625 0.0625-0.15635 0.23181-0.27809 0.46815-0.40625 0.71875-0.01741 0.03377-0.04563 0.05966-0.0625 0.09375-0.05915 0.12032-0.10392 0.25086-0.15625 0.375-0.08328 0.19619-0.18468 0.38867-0.25 0.59375-0.003 0.0094 0.0029 0.02179 0 0.03125-0.0446 0.1422-0.05816 0.29144-0.09375 0.4375-0.02992 0.12372-0.07046 0.24877-0.09375 0.375-0.01537 0.08324-0.01885 0.16572-0.03125 0.25-0.05 0.338-0.0938 0.678-0.0938 1.031v29c0 3.878 3.122 7 7 7h30c2.5577 0 4.7788-1.3689 6-3.4062 0.15265 0.25467 0.3174 0.48634 0.5 0.71875 1.278 1.626 3.262 2.687 5.5 2.687h30c0.24238 0 0.48286-0.0074 0.71875-0.03125 2.3589-0.23813 4.3624-1.641 5.4375-3.625 0.538-0.992 0.844-2.132 0.844-3.344v-29c0-0.3529-0.04383-0.69266-0.09375-1.0312-0.01234-0.08372-0.01599-0.16729-0.03125-0.25-0.02378-0.12876-0.06303-0.2489-0.09375-0.375-0.13-0.538-0.316-1.051-0.562-1.532-0.128-0.25-0.25-0.486-0.407-0.718-0.015-0.024-0.046-0.04-0.062-0.063-0.582-0.841-1.332-1.577-2.219-2.093-0.007-0.005-0.024 0.004-0.031 0-0.298-0.172-0.614-0.311-0.938-0.438 2.599-1.021 4.438-3.531 4.438-6.5v-29c0-3.878-3.122-7-7-7h-30c-2.558 0-4.779 1.3689-6 3.406-1.221-2.0371-3.442-3.406-6-3.406h-30zm36 39.562c0.78946 1.3188 1.987 2.3676 3.4375 2.9375-0.31943 0.12703-0.64348 0.26672-0.9375 0.4375-0.03211 0.01865-0.06197 0.04335-0.09375 0.0625-0.33318 0.20071-0.64365 0.4358-0.9375 0.6875-0.21954 0.18804-0.43026 0.38025-0.625 0.59375-0.11116 0.12092-0.21004 0.24635-0.3125 0.375-0.19291 0.24248-0.3712 0.48297-0.53125 0.75-0.16005-0.26703-0.33834-0.50752-0.53125-0.75-0.10246-0.12865-0.20134-0.25408-0.3125-0.375-0.19474-0.2135-0.40546-0.40571-0.625-0.59375-0.294-0.251-0.604-0.486-0.937-0.687-0.032-0.019-0.062-0.044-0.094-0.062-0.294-0.171-0.618-0.311-0.938-0.438 1.451-0.57 2.649-1.619 3.438-2.938z"/>
  <path id="rect3037" style="opacity:.45;fill:url(#linearGradient3197)" d="m12 7c-3.324 0-6 2.676-6 6v30c0 3.324 2.676 6 6 6-3.324 0-6 2.676-6 6v30c0 3.324 2.676 6 6 6h30c3.324 0 6-2.676 6-6 0 0.20775 0.01084 0.42281 0.03125 0.625 0.306 3.033 2.853 5.375 5.969 5.375h30c3.324 0 6-2.676 6-6v-30c0-3.324-2.676-6-6-6 3.324 0 6-2.676 6-6v-30c0-3.324-2.676-6-6-6h-30c-3.324 0-6 2.676-6 6 0-3.324-2.676-6-6-6h-30zm36 36c0 3.324 2.676 6 6 6-3.1162 0-5.6626 2.3421-5.9688 5.375-0.02 0.202-0.031 0.417-0.031 0.625 0-3.324-2.676-6-6-6 3.324 0 6-2.676 6-6z"/>
 </g>
 <g id="layer1" style="display:none">
  <rect id="rect2419" style="fill:url(#linearGradient3706)" rx="6" ry="6" height="84" width="84" y="6" x="6"/>
  <path id="rect3728" style="opacity:.5;fill:url(#linearGradient3188)" d="m12 6c-3.324 0-6 2.676-6 6v2 68 2c0 0.33472 0.04135 0.6507 0.09375 0.96875 0.0487 0.2956 0.09704 0.59692 0.1875 0.875 0.00988 0.03038 0.020892 0.0636 0.03125 0.09375 0.098865 0.28777 0.23488 0.54745 0.375 0.8125 0.14459 0.27351 0.31562 0.53562 0.5 0.78125 0.18438 0.24564 0.37378 0.47347 0.59375 0.6875 0.43995 0.42806 0.94291 0.81453 1.5 1.0938 0.27854 0.13961 0.57347 0.24695 0.875 0.34375-0.2562-0.10022-0.48671-0.23627-0.71875-0.375-0.00741-0.0044-0.023866 0.0045-0.03125 0-0.031933-0.0193-0.062293-0.04251-0.09375-0.0625-0.1204-0.0767-0.23102-0.16351-0.34375-0.25-0.10617-0.0808-0.21328-0.16111-0.3125-0.25-0.1778-0.162-0.3473-0.346-0.4999-0.531-0.1075-0.131-0.2183-0.266-0.3124-0.407-0.0251-0.038-0.0385-0.086-0.0626-0.125-0.0647-0.103-0.1302-0.204-0.1874-0.312-0.1011-0.195-0.2057-0.416-0.2813-0.625-0.008-0.022-0.0236-0.041-0.0313-0.063-0.0318-0.092-0.0358-0.187-0.0624-0.281-0.0304-0.107-0.0704-0.203-0.0938-0.313-0.0729-0.341-0.125-0.698-0.125-1.062v-2-68-2c0-2.782 2.2182-5 5-5h2 68 2c2.7818 0 5 2.2182 5 5v2 68 2c0 0.3643-0.05212 0.72099-0.125 1.0625-0.04415 0.20689-0.08838 0.39766-0.15625 0.59375-0.0077 0.02195-0.0233 0.04069-0.03125 0.0625-0.06274 0.17374-0.13838 0.36745-0.21875 0.53125-0.04158 0.0828-0.07904 0.16995-0.125 0.25-0.0546 0.09721-0.12677 0.18835-0.1875 0.28125-0.09411 0.14096-0.20492 0.276-0.3125 0.40625-0.14317 0.17445-0.30314 0.347-0.46875 0.5-0.01117 0.0102-0.01998 0.02115-0.03125 0.03125-0.13839 0.12556-0.28509 0.23444-0.4375 0.34375-0.10257 0.07315-0.20432 0.15336-0.3125 0.21875-0.0074 0.0045-0.02384-0.0044-0.03125 0-0.23204 0.13873-0.46255 0.27478-0.71875 0.375 0.30153-0.0968 0.59646-0.20414 0.875-0.34375 0.55709-0.27922 1.0601-0.66569 1.5-1.0938 0.21997-0.21403 0.40937-0.44186 0.59375-0.6875s0.35541-0.50774 0.5-0.78125c0.14012-0.26505 0.27614-0.52473 0.375-0.8125 0.01041-0.03078 0.02133-0.06274 0.03125-0.09375 0.09046-0.27808 0.1388-0.5794 0.1875-0.875 0.053-0.318 0.094-0.634 0.094-0.969v-2-68-2c0-3.324-2.676-6-6-6h-72z"/>
 </g>
 <g id="layer3">
  <rect id="rect8039" style="fill:url(#linearGradient8096)" rx="6" ry="6" height="42" width="42" y="48" x="6"/>
  <path id="rect8166" style="opacity:.3;fill:#fff" d="m12 48c-3.324 0-6 2.676-6 6v30c0 3.324 2.676 6 6 6h30c3.324 0 6-2.676 6-6v-30c0-3.324-2.676-6-6-6h-30zm0 1h30c2.7789 0 5 2.2211 5 5v30c0 2.7789-2.2211 5-5 5h-30c-2.7789 0.000003-5-2.2211-5-5v-30c0-2.7789 2.2211-5 5-5z"/>
  <path id="rect8160" style="fill:#f00" d="m-68 48c-3.324 0-6 2.676-6 6v30c0 2.9849 2.1528 5.4349 5 5.9062-2.287-0.463-4-2.474-4-4.906v-30c0-2.7789 2.2211-5 5-5h30c2.7789 0 5 2.2211 5 5v30c0 2.4316-1.7132 4.4431-4 4.9062 2.8472-0.47138 5-2.9214 5-5.9062v-30c0-3.324-2.676-6-6-6h-30z"/>
  <rect id="rect3971" style="fill:url(#linearGradient3975)" rx="6" ry="6" height="42" width="42" y="48" x="48"/>
  <path id="path3973" style="opacity:.2;fill:#fff" d="m54 48c-3.324 0-6 2.676-6 6v30c0 3.324 2.676 6 6 6h30c3.324 0 6-2.676 6-6v-30c0-3.324-2.676-6-6-6h-30zm0 1h30c2.7789 0 5 2.2211 5 5v30c0 2.7789-2.2211 5-5 5h-30c-2.7789 0.000003-5-2.2211-5-5v-30c0-2.7789 2.2211-5 5-5z"/>
  <rect id="rect3983" style="fill:url(#linearGradient3987)" rx="6" ry="6" height="42" width="42" y="6" x="48"/>
  <path id="path3985" style="opacity:.3;fill:#fff" d="m54 6c-3.324 0-6 2.676-6 6v30c0 3.324 2.676 6 6 6h30c3.324 0 6-2.676 6-6v-30c0-3.324-2.676-6-6-6h-30zm0 1h30c2.7789 0 5 2.2211 5 5v30c0 2.7789-2.2211 5-5 5h-30c-2.7789 0.000003-5-2.2211-5-5v-30c0-2.7789 2.2211-5 5-5z"/>
  <rect id="rect3989" style="fill:url(#linearGradient3986)" transform="rotate(-90)" rx="6" ry="6" height="42" width="42" y="6" x="-48"/>
  <path id="path3991" style="opacity:.2;fill:#fff" d="m12 6c-3.324 0-6 2.676-6 6v30c0 3.324 2.676 6 6 6h30c3.324 0 6-2.676 6-6v-30c0-3.324-2.676-6-6-6h-30zm0 1h30c2.7789 0 5 2.2211 5 5v30c0 2.7789-2.2211 5-5 5h-30c-2.7789 0.000003-5-2.2211-5-5v-30c0-2.7789 2.2211-5 5-5z"/>
  <path id="path3995" style="opacity:.4;fill:url(#linearGradient4003)" d="m12 48c-3.324 0-6 2.676-6 6v30c0 2.9849 2.1528 5.4349 5 5.9062-2.2868-0.463-4-2.474-4-4.906v-30c0-2.7789 2.2211-5 5-5h30c2.7789 0 5 2.2211 5 5v30c0 2.4316-1.7132 4.4431-4 4.9062 2.847-0.471 5-2.921 5-5.906v-30c0-3.324-2.676-6-6-6h-30z"/>
  <path id="path4005" style="opacity:.4;fill:url(#linearGradient4007)" d="m54 6c-3.324 0-6 2.676-6 6v30c0 2.9849 2.1528 5.4349 5 5.9062-2.287-0.463-4-2.474-4-4.906v-30c0-2.7789 2.2211-5 5-5h30c2.7789 0 5 2.2211 5 5v30c0 2.4316-1.7132 4.4431-4 4.9062 2.847-0.471 5-2.921 5-5.906v-30c0-3.324-2.676-6-6-6h-30z"/>
  <path id="path4009" style="opacity:.35;fill:url(#linearGradient4011)" d="m12 6c-3.324 0-6 2.676-6 6v30c0 2.9849 2.1528 5.4349 5 5.9062-2.2868-0.463-4-2.474-4-4.906v-30c0-2.779 2.2211-5 5-5h30c2.7789 0 5 2.2211 5 5v30c0 2.4316-1.7132 4.4431-4 4.9062 2.847-0.471 5-2.921 5-5.906v-30c0-3.324-2.676-6-6-6h-30z"/>
  <path id="path4013" style="opacity:.2;fill:url(#linearGradient4015)" d="m54 48c-3.324 0-6 2.676-6 6v30c0 2.9849 2.1528 5.4349 5 5.9062-2.287-0.463-4-2.474-4-4.906v-30c0-2.7789 2.2211-5 5-5h30c2.7789 0 5 2.2211 5 5v30c0 2.4316-1.7132 4.4431-4 4.9062 2.847-0.471 5-2.921 5-5.906v-30c0-3.324-2.676-6-6-6h-30z"/>
  <path id="path4011" style="opacity:.3;fill:url(#radialGradient4028)" d="m12 6c-3.324 0-6 2.676-6 6v30c0 3.324 2.676 6 6 6h30c3.324 0 6-2.676 6-6 0 3.324 2.676 6 6 6h30c3.324 0 6-2.676 6-6v-30c0-3.324-2.676-6-6-6h-30c-3.324 0-6 2.676-6 6 0-3.324-2.676-6-6-6h-30zm0 1h30c2.7861 0 5 2.2139 5 5v30c0 2.7861-2.2139 5-5 5h-30c-2.7861 0-5-2.214-5-5v-30c0-2.7861 2.2139-5 5-5zm42 0h30c2.7861 0 5 2.2139 5 5v30c0 2.7861-2.2139 5-5 5h-30c-2.7861 0-5-2.2139-5-5v-30c0-2.7861 2.2139-5 5-5z"/>
  <path id="path4030" style="opacity:.3;fill:url(#radialGradient4032)" d="m12 48c-3.324 0-6 2.676-6 6v30c0 3.324 2.676 6 6 6h30c3.324 0 6-2.676 6-6 0 3.324 2.676 6 6 6h30c3.324 0 6-2.676 6-6v-30c0-3.324-2.676-6-6-6h-30c-3.324 0-6 2.676-6 6 0-3.324-2.676-6-6-6h-30zm0 1h30c2.7861 0 5 2.2139 5 5v30c0 2.7861-2.2139 5-5 5h-30c-2.7861 0-5-2.214-5-5v-30c0-2.7861 2.2139-5 5-5zm42 0h30c2.7861 0 5 2.2139 5 5v30c0 2.7861-2.2139 5-5 5h-30c-2.7861 0-5-2.2139-5-5v-30c0-2.7861 2.2139-5 5-5z"/>
  <path id="path4054" style="opacity:.05;fill:#fff" d="m20.781 9.9688c-2.01 0-3.875 0.4732-5.406 1.5312a0.97741 0.97741 0 0 0 0 0.03125 0.97741 0.97741 0 0 0 -0.0625 0.03125 0.97741 0.97741 0 0 0 -0.15625 0.15625 0.97741 0.97741 0 0 0 -0.03125 0.0625c-1.2373 0.93073-2.278 2.0722-3.0312 3.4375-0.76666 1.3896-1.3561 2.8981-1.6875 4.5312a0.97741 0.97741 0 0 0 0 0.03125 0.97741 0.97741 0 0 0 0 0.15625c-0.27319 1.4934-0.4375 2.9658-0.4375 4.375 0 1.3689 0.19022 2.7621 0.5 4.1875-0.000011 0.000723-0.000011 0.03053 0 0.03125a0.97741 0.97741 0 0 0 0.032 0.218c0.34968 1.4424 0.92072 2.7605 1.625 4 0.0047 0.0083-0.0047 0.02294 0 0.03125a0.97741 0.97741 0 0 0 0.125 0.3125 0.97741 0.97741 0 0 0 0 0.03125c0.85574 1.3843 1.979 2.563 3.3125 3.4688a0.97741 0.97741 0 0 0 0.0625 0 0.97741 0.97741 0 0 0 0.03125 0.03125 0.97741 0.97741 0 0 0 0.28125 0.125c0.0082 0.0048 0.02307-0.0048 0.03125 0 1.411 0.82758 3.0264 1.2812 4.7812 1.2812 1.9439 0 3.7667-0.45905 5.2812-1.4688a0.97741 0.97741 0 0 0 0.03125 0c1.365-0.935 2.479-2.146 3.313-3.562 0.7941-1.3717 1.3942-2.8794 1.75-4.4688 0.34115-1.5239 0.49998-3.0097 0.5-4.4688-0.000021-0.96573-0.09635-1.9544-0.25-2.9375 0.03354 0.25148 0.03691 0.24176 0-0.03125-0.13894-1.0272-0.36661-2.0558-0.6875-3.0312-0.0053-0.02078 0.007-0.0084 0-0.03125-0.31467-1.033-0.75759-2.0091-1.2812-2.9375-0.55103-0.97676-1.2254-1.8711-2.0312-2.625-0.86134-0.80572-1.8439-1.3825-2.9062-1.8125-1.129-0.46806-2.3744-0.68747-3.6875-0.6875zm0.03125 7c0.75264 0.000017 1.0837 0.1232 1.4375 0.40625 0.48398 0.3872 0.8902 0.85467 1.1875 1.4375a0.97741 0.97741 0 0 0 0 0.03125 0.97741 0.97741 0 0 0 0.0625 0.125c0.34651 0.70956 0.59094 1.4873 0.75 2.4062 0.16686 0.94567 0.24998 1.8801 0.25 2.7188-0.000014 0.8625-0.08228 1.7683-0.25 2.7188-0.15833 0.89708-0.40046 1.6592-0.75 2.375-0.28885 0.57769-0.69874 1.04-1.25 1.4688-0.35991 0.27764-0.72492 0.4375-1.5 0.4375-0.70502 0.000002-1.0764-0.1482-1.4375-0.40625-0.49004-0.37802-0.86967-0.81378-1.1875-1.375-0.0077-0.01362-0.02361-0.01746-0.03125-0.03125-0.0016-0.0041 0.000053-0.03114 0-0.03125-0.34351-0.6759-0.61019-1.4231-0.78125-2.25 0.05855 0.31886 0.06179 0.30868 0-0.03125-0.16266-0.89491-0.25-1.7378-0.25-2.5625-0.000007-0.53356 0.02316-1.1528 0.0625-1.7812 0.03756-0.61965 0.11424-1.21 0.21875-1.75 0.10524-0.56128 0.23032-1.0834 0.40625-1.5312 0.16205-0.42723 0.35662-0.74566 0.5625-1 0.40656-0.50037 0.79625-0.8609 1.1875-1.0938 0.0056-0.0034 0.02561 0.0033 0.03125 0 0.3377-0.18611 0.71668-0.28123 1.2812-0.28125zm33.031 35c-0.0023 0.000178-0.18524 0.03086-0.1875 0.03125-0.0023 0.000392-0.18529 0.03065-0.1875 0.03125-0.0022 0.000602-0.18536 0.06169-0.1875 0.0625-0.0021 0.000808-0.18544 0.06149-0.1875 0.0625-0.0021 0.001-0.1543 0.09255-0.15625 0.09375-0.002 0.0012-0.15442 0.12363-0.15625 0.125-0.0018 0.0014-0.15455 0.09221-0.15625 0.09375-0.0017 0.0015-0.12346 0.15456-0.125 0.15625-0.0015 0.0017-0.12362 0.12317-0.125 0.125-0.0014 0.0018-0.1238 0.18555-0.125 0.1875-0.0012 0.002-0.09274 0.15419-0.09375 0.15625-0.001 0.0021-0.06169 0.18536-0.0625 0.1875-0.000812 0.0021-0.06189 0.15404-0.0625 0.15625-0.000607 0.0022-0.03085 0.18524-0.03125 0.1875-0.000396 0.0023-0.03107 0.18522-0.03125 0.1875-0.000182 0.0023-0.000034 0.18521 0 0.1875v24c-0.000014 0.0012-0.000046 0.09254 0 0.09375 0.000046 0.0012-0.000106 0.09254 0 0.09375 0.000106 0.0012-0.000166 0.09255 0 0.09375s0.03102 0.09256 0.03125 0.09375c0.000226 0.0012 0.03097 0.12382 0.03125 0.125 0.000285 0.0012-0.000343 0.09259 0 0.09375 0.000343 0.0012 0.03085 0.09261 0.03125 0.09375 0.000401 0.0011 0.06204 0.09263 0.0625 0.09375 0.000457 0.0011 0.03074 0.09265 0.03125 0.09375 0.000512 0.0011 0.03068 0.09268 0.03125 0.09375 0.000566 0.0011 0.06188 0.09271 0.0625 0.09375 0.000619 0.001 0.06183 0.06149 0.0625 0.0625 0.00067 0.001 0.03053 0.09278 0.03125 0.09375 0.000719 0.000975 0.06173 0.06156 0.0625 0.0625 0.000767 0.000937 0.06169 0.09285 0.0625 0.09375 0.000813 0.000898 0.09289 0.06164 0.09375 0.0625 0.000857 0.000857 0.0616 0.09294 0.0625 0.09375 0.000898 0.000813 0.09281 0.06173 0.09375 0.0625 0.000937 0.000767 0.06153 0.06178 0.0625 0.0625 0.000975 0.000719 0.09274 0.03058 0.09375 0.03125 0.001 0.00067 0.06146 0.06188 0.0625 0.0625 0.001 0.000619 0.09268 0.06193 0.09375 0.0625 0.0011 0.000566 0.09265 0.03074 0.09375 0.03125 0.0011 0.000512 0.09263 0.03079 0.09375 0.03125 0.0011 0.000457 0.09261 0.0621 0.09375 0.0625 0.0011 0.000401 0.09259 0.03091 0.09375 0.03125 0.0012 0.000343 0.09257-0.000285 0.09375 0 0.0012 0.000285 0.12381 0.03102 0.125 0.03125 0.0012 0.000226 0.09255 0.03108 0.09375 0.03125 0.0012 0.000166 0.09254-0.000106 0.09375 0 0.0012 0.000106 0.09254-0.000046 0.09375 0 0.0012 0.000046 0.09254 0.000014 0.09375 0h7.3125c2.6443 0 5.0122-0.7195 6.75-2.3125 1.8261-1.6465 2.625-4.0919 2.625-6.8438-0.000019-1.4814-0.35415-2.8958-1-4.1875-0.36461-0.7609-0.95771-1.2725-1.5312-1.8125 0.27297-0.315 0.56639-0.53878 0.78125-1.0625 0.45866-1.0792 0.71873-2.2319 0.71875-3.4375-0.000017-2.3287-0.77575-4.3829-2.25-5.9062-0.06124-0.10634-0.11306-0.19827-0.125-0.21875-0.0064-0.0062-0.02484 0.0062-0.03125 0-1.5535-1.5008-3.6804-2.2812-6.0312-2.2812h-7.1875c-0.000434-0.000019-0.01965 0.000012-0.03125 0-0.0464-0.000047-0.12326-0.000078-0.125 0a0.97741 0.97741 0 0 0 -0.03125 0zm5.2812 7.125h1.3125c0.65294 0.000019 1.1659 0.03807 1.5 0.09375 0.22251 0.03709 0.24489 0.0656 0.28125 0.09375 0.0037 0.0028 0.02797-0.0026 0.03125 0a0.97741 0.97741 0 0 0 0.0625 0.0625c0.05806 0.04355 0.01963-0.04755 0.09375 0.15625a0.97741 0.97741 0 0 0 0.03125 0.03125 0.97741 0.97741 0 0 0 0 0.0625c0.01141 0.05382 0.09375 0.43099 0.09375 1-0.00001 1.0212-0.34061 1.2413-0.09375 1.0625-0.03052 0.0221-0.64652 0.28126-1.7188 0.28125h-1.5938v-2.8438zm0 10h1.875c1.1748 0.000011 1.7993 0.24789 2.0938 0.46875 0.14012 0.10509 0.34374 0.29413 0.34375 1.4375-0.000009 1.1075-0.31028 1.502-0.34375 1.5312-0.17263 0.15105-0.65392 0.40625-1.75 0.40625h-2.2188v-3.8438z" transform="translate(2,2)"/>
  <path id="path4050" style="opacity:.05;fill:#fff" d="m20.781 10.938c-1.8533 0.000029-3.4989 0.44582-4.8438 1.375a1.0502 1.0502 0 0 0 0 0.03125c-1.2518 0.8809-2.2589 2.0006-3 3.3438-0.72112 1.3071-1.2509 2.7144-1.5625 4.25a1.0502 1.0502 0 0 0 0 0.03125c-0.28241 1.499-0.4375 2.9576-0.4375 4.3438 0 1.3582 0.17165 2.7428 0.5 4.1875a1.0502 1.0502 0 0 0 0 0.03125c0.35689 1.4722 0.91125 2.8208 1.6562 4.0625a1.0502 1.0502 0 0 0 0 0.03125c0.78341 1.2673 1.8068 2.3246 3.0312 3.1562a1.0502 1.0502 0 0 0 0.03125 0c1.3119 0.85034 2.8665 1.2812 4.5938 1.2812 1.788 0 3.4227-0.42761 4.75-1.3125 1.2475-0.85476 2.2673-1.9536 3.0312-3.25 0.74298-1.2834 1.2902-2.692 1.625-4.1875 0.32791-1.4648 0.49998-2.8723 0.5-4.25-0.00002-0.90479-0.09883-1.8519-0.25-2.8125-0.0014-0.01015 0.0014-0.0211 0-0.03125-0.1327-0.98112-0.35111-1.9535-0.65625-2.875-0.0028-0.0092 0.0028-0.02204 0-0.03125-0.29228-0.95952-0.6958-1.8783-1.1875-2.75-0.50773-0.90001-1.1164-1.6946-1.8438-2.375-0.75664-0.70779-1.6482-1.2296-2.625-1.625-0.99981-0.41452-2.1138-0.62497-3.3125-0.625zm0.031 5.062c0.897 0.00002 1.5297 0.19878 2.0625 0.625 0.61251 0.49003 1.1304 1.1007 1.5 1.875a1.0502 1.0502 0 0 0 0 0.03125c0.39096 0.80057 0.67104 1.6897 0.84375 2.6875 0.17776 1.0074 0.24997 1.9836 0.25 2.875-0.000015 0.9137-0.07183 1.8653-0.25 2.875-0.17232 0.97635-0.4514 1.8528-0.84375 2.6562-0.36381 0.7276-0.8914 1.3148-1.5312 1.8125-0.52795 0.40727-1.1658 0.625-2.0938 0.625-0.87374 0.000003-1.5009-0.2072-2.0312-0.59375-0.60502-0.46672-1.1072-1.0247-1.5-1.75-0.0043-0.0084 0.0043-0.02288 0-0.03125-0.38101-0.74967-0.6857-1.5849-0.875-2.5-0.002-0.01075 0.002-0.0205 0-0.03125-0.17327-0.95326-0.25-1.8686-0.25-2.75-0.000007-0.55924 0.02203-1.1973 0.0625-1.8438 0.03911-0.6451 0.10262-1.275 0.21875-1.875 0.11401-0.60803 0.2652-1.1694 0.46875-1.6875 0.19576-0.51612 0.44284-0.9404 0.71875-1.2812 0.469-0.57722 0.95186-1.0091 1.4688-1.3125 0.0084-0.0047 0.02286 0.0046 0.03125 0 0.49484-0.27272 1.0595-0.40623 1.75-0.40625zm33.188 36.938a1.0502 1.0502 0 0 0 -1.062 1.062v24a1.0502 1.0502 0 0 0 1.062 1.062h7.3125c2.468 0 4.5722-0.66778 6.0938-2.0625 1.5763-1.4212 2.3125-3.5602 2.3125-6.125-0.000017-1.323-0.32166-2.5808-0.90625-3.75-0.4261-0.88922-1.09-1.5869-1.875-2.1875 0.38837-0.48763 0.85145-0.9094 1.0938-1.5 0.41536-0.97735 0.65623-2.0054 0.65625-3.0625-0.000016-2.1997-0.71815-4.0702-2.0938-5.4062-0.0063-0.0062 0.0064-0.02511 0-0.03125-1.3542-1.3177-3.2209-2-5.375-2h-7.2188zm4.1562 5.1875h2.2812c0.6735 0.00002 1.2214 0.02128 1.6562 0.09375 0.3642 0.06071 0.60304 0.16995 0.78125 0.3125a1.0502 1.0502 0 0 0 0.03125 0.03125c0.17592 0.13196 0.2928 0.2818 0.40625 0.59375a1.0502 1.0502 0 0 0 0.03125 0.03125c0.10078 0.26458 0.15625 0.74713 0.15625 1.4062-0.000011 1.1735-0.27424 1.6803-0.5 1.8438-0.34903 0.25275-1.0908 0.46876-2.2812 0.46875h-2.5625v-4.7812zm0 10h2.8438c1.3029 0.000012 2.154 0.25614 2.6875 0.65625 0.43966 0.32975 0.71874 0.93387 0.71875 2.2188-0.00001 1.2553-0.28494 1.9564-0.65625 2.2812-0.43349 0.3793-1.1797 0.625-2.4062 0.625h-3.1875v-5.7812z" transform="translate(2,2)"/>
  <path id="path4041" style="opacity:.6" d="m22.781 14c-1.6897 0.000026-3.1027 0.39483-4.25 1.1875-1.1265 0.79272-2.02 1.7901-2.6875 3-0.66754 1.2099-1.1455 2.5294-1.4375 3.9688-0.271 1.44-0.406 2.842-0.406 4.156 0 1.2725 0.15584 2.592 0.46875 3.9688 0.33377 1.3768 0.84285 2.6339 1.5312 3.7812 0.70925 1.1473 1.6131 2.0928 2.7188 2.8438 1.126 0.73 2.466 1.094 4.031 1.094 1.6271 0 3.0298-0.37402 4.1562-1.125 1.1265-0.77184 2.0303-1.7381 2.7188-2.9062 0.68838-1.189 1.1871-2.4773 1.5-3.875 0.31289-1.3976 0.46873-2.7379 0.46875-4.0312 0-0.856-0.073-1.77-0.219-2.688-0.125-0.939-0.333-1.843-0.625-2.719-0.271-0.897-0.635-1.749-1.094-2.562-0.459-0.814-1.009-1.52-1.656-2.125s-1.436-1.083-2.312-1.438c-0.856-0.354-1.822-0.531-2.907-0.531zm0.03125 2.9375c1.0847 0.000024 1.9886 0.29092 2.7188 0.875 0.7301 0.58411 1.3432 1.3322 1.7812 2.25 0.43806 0.89702 0.74974 1.884 0.9375 2.9688 0.18772 1.0639 0.28122 2.1029 0.28125 3.0625-0.000016 0.98045-0.09352 1.9986-0.28125 3.0625-0.18778 1.0639-0.49944 2.0405-0.9375 2.9375-0.43808 0.87615-1.0615 1.6034-1.8125 2.1875-0.73013 0.56324-1.6444 0.84375-2.75 0.84375-1.0639 0.000004-1.9574-0.27012-2.6875-0.8125-0.73012-0.56323-1.3223-1.2697-1.7812-2.125-0.43808-0.85527-0.76015-1.7903-0.96875-2.8125-0.18774-1.0222-0.28125-2.0092-0.28125-2.9688-0.000007-0.58408 0.02071-1.2387 0.0625-1.9062 0.04173-0.68838 0.12483-1.3533 0.25-2 0.12516-0.66752 0.30178-1.2909 0.53125-1.875 0.22945-0.60494 0.52037-1.1244 0.875-1.5625 0.54237-0.66752 1.1346-1.187 1.7812-1.5625 0.66753-0.37547 1.426-0.56248 2.2812-0.5625zm33.188 39.062v24h7.3125c2.2857 0 4.0812-0.59526 5.375-1.7812 1.3154-1.186 1.9687-2.9718 1.9688-5.3438-0.000015-1.1644-0.26373-2.2462-0.78125-3.2812-0.49597-1.035-1.2968-1.8456-2.375-2.4062 0.69001-0.60376 1.2175-1.3153 1.5625-2.1562 0.36656-0.86252 0.56248-1.7506 0.5625-2.6562-0.000015-2.0054-0.58559-3.5662-1.75-4.6875-1.143-1.122-2.694-1.688-4.656-1.688h-7.219zm3.0938 3.0625h3.3438c0.71158 0.000021 1.3262 0.03875 1.8438 0.125 0.51751 0.08626 0.92654 0.27252 1.25 0.53125 0.345 0.25879 0.60873 0.61938 0.78125 1.0938 0.17249 0.45285 0.25 1.0481 0.25 1.7812-0.000012 1.3369-0.31217 2.2347-0.9375 2.6875-0.62535 0.45284-1.5909 0.68751-2.9062 0.6875h-3.625v-6.9062zm0 10h3.9062c1.4447 0.000013 2.5362 0.29279 3.3125 0.875 0.77627 0.58222 1.1562 1.5962 1.1562 3.0625-0.000011 1.4232-0.34123 2.4587-1.0312 3.0625-0.69004 0.60378-1.7137 0.90625-3.0938 0.90625h-4.25v-7.9062z"/>
 </g>
</svg>
