<?xml version="1.0" encoding="UTF-8" standalone="no"?>
<!-- Created with Inkscape (http://www.inkscape.org/) -->
<svg id="svg2408" xmlns:rdf="http://www.w3.org/1999/02/22-rdf-syntax-ns#" xmlns="http://www.w3.org/2000/svg" height="96" width="96" version="1.0" xmlns:cc="http://creativecommons.org/ns#" xmlns:xlink="http://www.w3.org/1999/xlink" xmlns:dc="http://purl.org/dc/elements/1.1/">
 <defs id="defs2410">
  <linearGradient id="ButtonShadow" y2="7.0165" gradientUnits="userSpaceOnUse" x2="45.448" gradientTransform="scale(1.0059 .99417)" y1="92.54" x1="45.448">
   <stop id="stop3750" offset="0"/>
   <stop id="stop3752" style="stop-opacity:.58824" offset="1"/>
  </linearGradient>
  <linearGradient id="linearGradient3706" y2="5.9877" gradientUnits="userSpaceOnUse" x2="48" gradientTransform="translate(12)" y1="90" x1="48">
   <stop id="stop4696" style="stop-color:#6c8f11" offset="0"/>
   <stop id="stop4698" style="stop-color:#c9ed64" offset="1"/>
  </linearGradient>
  <filter id="filter3174" color-interpolation-filters="sRGB">
   <feGaussianBlur id="feGaussianBlur3176" stdDeviation="1.71"/>
  </filter>
  <linearGradient id="linearGradient3188" y2="63.893" gradientUnits="userSpaceOnUse" x2="36.357" y1="6" x1="36.357">
   <stop id="stop3739" style="stop-color:#fff" offset="0"/>
   <stop id="stop3741" style="stop-color:#fff;stop-opacity:0" offset="1"/>
  </linearGradient>
  <linearGradient id="linearGradient3708" y2="6" gradientUnits="userSpaceOnUse" x2="18.637" y1="89.203" x1="18.637">
   <stop id="stop3515" style="stop-color:#102340" offset="0"/>
   <stop id="stop3517" style="stop-color:#27599c" offset="1"/>
  </linearGradient>
  <radialGradient id="radialGradient2874" gradientUnits="userSpaceOnUse" cy="90.172" cx="48" gradientTransform="matrix(1.1573 0 0 .99591 -7.551 .19713)" r="42">
   <stop id="stop3739-1" style="stop-color:#fff" offset="0"/>
   <stop id="stop3741-5" style="stop-color:#fff;stop-opacity:0" offset="1"/>
  </radialGradient>
  <filter id="filter3673" height="1.56" width="1.42" color-interpolation-filters="sRGB" y="-.28" x="-0.21">
   <feGaussianBlur id="feGaussianBlur3675" stdDeviation="2.8"/>
  </filter>
  <radialGradient id="radialGradient3789-0" xlink:href="#linearGradient3601-2" gradientUnits="userSpaceOnUse" cy="38.667" cx="48.241" gradientTransform="matrix(.84762 -.34152 .24994 .62034 -2.3137 16.411)" r="25.55"/>
  <linearGradient id="linearGradient3601-2">
   <stop id="stop3603-0" style="stop-color:#b8d9f4" offset="0"/>
   <stop id="stop3605-5" style="stop-color:#ebf4fc" offset="1"/>
  </linearGradient>
  <radialGradient id="radialGradient3787-7" xlink:href="#linearGradient3601-2" gradientUnits="userSpaceOnUse" cy="58.668" cx="48.194" gradientTransform="matrix(.94738 -.33278 .20516 .58407 -9.5004 28.454)" r="33.906"/>
  <linearGradient id="ButtonShadow-0" y2="7.0165" gradientUnits="userSpaceOnUse" x2="45.448" gradientTransform="matrix(1.0059 0 0 .99417 100 0)" y1="92.54" x1="45.448">
   <stop id="stop3750-8" offset="0"/>
   <stop id="stop3752-5" style="stop-opacity:.58824" offset="1"/>
  </linearGradient>
  <linearGradient id="linearGradient3780" y2="90.239" xlink:href="#ButtonShadow-0" gradientUnits="userSpaceOnUse" x2="32.251" gradientTransform="matrix(1.0238 0 0 1.0119 -1.1429 -98.071)" y1="6.1317" x1="32.251"/>
  <linearGradient id="linearGradient3721" y2="90.239" xlink:href="#ButtonShadow-0" gradientUnits="userSpaceOnUse" x2="32.251" gradientTransform="translate(0,-97)" y1="6.1317" x1="32.251"/>
 </defs>
 <metadata id="metadata2413">
  <rdf:RDF>
   <cc:Work rdf:about="">
    <dc:format>image/svg+xml</dc:format>
    <dc:type rdf:resource="http://purl.org/dc/dcmitype/StillImage"/>
   </cc:Work>
  </rdf:RDF>
 </metadata>
 <g id="layer2" style="display:none">
  <rect id="rect3745" style="opacity:.9;filter:url(#filter3174);fill:url(#ButtonShadow)" rx="6" ry="6" height="85" width="86" y="7" x="5"/>
 </g>
 <g id="layer3">
  <path id="path3786" style="opacity:0.08;fill:url(#linearGradient3780)" d="m12-95.031c-5.5111 0-10.031 4.5202-10.031 10.031v71c0 5.5111 4.5202 10.031 10.031 10.031h72c5.5111 0 10.031-4.5202 10.031-10.031v-71c0-5.5111-4.5202-10.031-10.031-10.031h-72z" transform="scale(1,-1)"/>
  <path id="path3778" style="opacity:.1;fill:url(#linearGradient3780)" d="m12-94.031c-4.9716 0-9.0312 4.0596-9.0312 9.0312v71c0 4.9716 4.0596 9.0312 9.0312 9.0312h72c4.9716 0 9.0312-4.0596 9.0312-9.0312v-71c0-4.9716-4.0596-9.0312-9.0312-9.0312h-72z" transform="scale(1,-1)"/>
  <path id="path3770" style="opacity:.2;fill:url(#linearGradient3780)" d="m12-93c-4.4091 0-8 3.5909-8 8v71c0 4.4091 3.5909 8 8 8h72c4.4091 0 8-3.5909 8-8v-71c0-4.4091-3.5909-8-8-8h-72z" transform="scale(1,-1)"/>
  <rect id="rect3723" style="opacity:.3;fill:url(#linearGradient3780)" transform="scale(1,-1)" rx="7" ry="7" height="85" width="86" y="-92" x="5"/>
  <rect id="rect3716" style="opacity:.45;fill:url(#linearGradient3721)" transform="scale(1,-1)" rx="6" ry="6" height="84" width="84" y="-91" x="6"/>
 </g>
 <g id="layer1">
  <rect id="rect2419" style="fill:url(#linearGradient3706)" rx="6" ry="6" height="84" width="72" y="6" x="18"/>
  <path id="path2400" style="fill:url(#linearGradient3708)" d="m12 6c-3.324 0-6 2.676-6 6v0.531 70.938 0.531c0 3.324 2.676 6 6 6h0.53125 1.75 13.438c7.3909-14.513 8.1682-26.257 4-41.812-4.567-17.042-5.338-27.038 2.843-42.157l0.5-0.031h-19.531-3-0.531z"/>
  <path id="path3755" style="opacity:.3" d="m32.531 8c0.328-0.6517 0.668-1.298 1.031-1.9688l0.5-0.0312-1.531 2zm-0.656 1.3438c-7.4303 14.388-6.5876 24.306-2.1562 40.844 3.9077 14.584 3.4725 25.82-2.6875 39.125 7.0693-14.199 7.7899-25.814 3.6875-41.125-4.224-15.765-5.198-25.505 1.156-38.844z"/>
  <path id="path3521" style="fill:#0c1b2f" d="m34.062 6-0.5 0.03125c-8.1819 15.119-7.4101 25.114-2.8438 42.156 4.1682 15.556 3.3909 27.3-4 41.812h1c7.3909-14.513 8.1682-26.257 4-41.812-4.566-17.041-5.337-27.037 2.844-42.156l0.5-0.031h-1z"/>
  <path id="rect3728" style="opacity:.35;fill:url(#linearGradient3188)" d="m12 6c-3.324 0-6 2.676-6 6v2 68 2c0 0.33472 0.04135 0.6507 0.09375 0.96875 0.0487 0.2956 0.09704 0.59692 0.1875 0.875 0.00988 0.03038 0.020892 0.0636 0.03125 0.09375 0.098865 0.28777 0.23488 0.54745 0.375 0.8125 0.14459 0.27351 0.31562 0.53562 0.5 0.78125 0.18438 0.24564 0.37378 0.47347 0.59375 0.6875 0.43995 0.42806 0.94291 0.81453 1.5 1.0938 0.27854 0.13961 0.57347 0.24695 0.875 0.34375-0.2562-0.10022-0.48671-0.23627-0.71875-0.375-0.00741-0.0044-0.023866 0.0045-0.03125 0-0.031933-0.0193-0.062293-0.04251-0.09375-0.0625-0.1204-0.0767-0.23102-0.16351-0.34375-0.25-0.10617-0.0808-0.21328-0.16111-0.3125-0.25-0.1778-0.162-0.3473-0.346-0.4999-0.531-0.1075-0.131-0.2183-0.266-0.3124-0.407-0.0251-0.038-0.0385-0.086-0.0626-0.125-0.0647-0.103-0.1302-0.204-0.1874-0.312-0.1011-0.195-0.2057-0.416-0.2813-0.625-0.008-0.022-0.0236-0.041-0.0313-0.063-0.0318-0.092-0.0358-0.187-0.0624-0.281-0.0304-0.107-0.0704-0.203-0.0938-0.313-0.0729-0.341-0.125-0.698-0.125-1.062v-2-68-2c0-2.782 2.2182-5 5-5h2 68 2c2.7818 0 5 2.2182 5 5v2 68 2c0 0.3643-0.05212 0.72099-0.125 1.0625-0.04415 0.20689-0.08838 0.39766-0.15625 0.59375-0.0077 0.02195-0.0233 0.04069-0.03125 0.0625-0.06274 0.17374-0.13838 0.36745-0.21875 0.53125-0.04158 0.0828-0.07904 0.16995-0.125 0.25-0.0546 0.09721-0.12677 0.18835-0.1875 0.28125-0.09411 0.14096-0.20492 0.276-0.3125 0.40625-0.14317 0.17445-0.30314 0.347-0.46875 0.5-0.01117 0.0102-0.01998 0.02115-0.03125 0.03125-0.13839 0.12556-0.28509 0.23444-0.4375 0.34375-0.10257 0.07315-0.20432 0.15336-0.3125 0.21875-0.0074 0.0045-0.02384-0.0044-0.03125 0-0.23204 0.13873-0.46255 0.27478-0.71875 0.375 0.30153-0.0968 0.59646-0.20414 0.875-0.34375 0.55709-0.27922 1.0601-0.66569 1.5-1.0938 0.21997-0.21403 0.40937-0.44186 0.59375-0.6875s0.35541-0.50774 0.5-0.78125c0.14012-0.26505 0.27614-0.52473 0.375-0.8125 0.01041-0.03078 0.02133-0.06274 0.03125-0.09375 0.09046-0.27808 0.1388-0.5794 0.1875-0.875 0.053-0.318 0.094-0.634 0.094-0.969v-2-68-2c0-3.324-2.676-6-6-6h-72z"/>
  <path id="path3671" style="filter:url(#filter3673);fill:#5e7c10" d="m48 58v4 6 4 10h4 28v-4-16-4h-4-10-4-10-4zm4 4h10v6h-10v-6zm14 0h10v6h-10v-6zm-14 10h10v6h-10v-6zm14 0h10v6h-10v-6z"/>
  <path id="rect3669" style="fill:#a3c843" d="m48 58v4 6 4 10h4 28v-4-16-4h-4-10-4-10-4zm4 4h10v6h-10v-6zm14 0h10v6h-10v-6zm-14 10h10v6h-10v-6zm14 0h10v6h-10v-6z"/>
  <g id="g3750" transform="translate(-60)">
   <path id="path3743" style="opacity:.2" d="m28.375 27.25c-0.11381 6.2534 1.1617 12.794 3.3438 20.938 1.5631 5.8335 2.4158 11.142 2.5 16.25 0.13996-5.7316-0.73109-11.648-2.5-18.25-1.952-7.283-3.181-13.279-3.344-18.938z"/>
   <path id="path3719" style="opacity:.3;fill:#fff" d="m27.375 29.25c-0.11381 6.2534 1.1617 12.794 3.3438 20.938 1.5631 5.8335 2.4158 11.142 2.5 16.25 0.13996-5.7316-0.73109-11.648-2.5-18.25-1.952-7.283-3.181-13.279-3.344-18.938z"/>
   <path id="rect3724" style="opacity:.2;fill:#fff" d="m35.631 6-1.069 0.0312c-4.685 8.6578-6.405 15.636-6.187 23.219 0.124-6.833 1.915-13.325 6.187-21.219l1.069-2.031zm-1.412 60.969c-0.2691 7.5825-2.3426 14.868-6.5 23.031h0.96875c3.8338-8.0687 5.5754-15.348 5.5312-23.031z"/>
  </g>
  <path id="path3762" style="opacity:.2;fill:#fff" d="m36.625 6-2.0625 0.03125c-8.1819 15.119-7.4101 25.114-2.8438 42.156 4.1682 15.556 3.3909 27.3-4 41.812h1.9688c6.466-13.606 7.006-24.978 3.032-39.811-4.567-17.042-5.338-27.038 2.843-42.157l1.063-2.031z"/>
  <path id="path3615" style="opacity:.2;fill:url(#radialGradient2874)" d="m12 90c-3.324 0-6-2.676-6-6v-2-68-2c0-0.33472 0.04135-0.6507 0.09375-0.96875 0.0487-0.2956 0.09704-0.59692 0.1875-0.875 0.0099-0.03 0.0209-0.063 0.0313-0.094 0.0989-0.2873 0.2349-0.547 0.375-0.812 0.1446-0.2735 0.3156-0.5356 0.5-0.7812 0.1844-0.2457 0.3738-0.4735 0.5937-0.6876 0.44-0.428 0.943-0.8145 1.5-1.0937 0.2786-0.1396 0.5735-0.2469 0.8748-0.3437-0.256 0.1002-0.4865 0.2362-0.7185 0.375-0.00741 0.0044-0.023866-0.0045-0.03125 0-0.031933 0.0193-0.062293 0.04251-0.09375 0.0625-0.1204 0.0767-0.23102 0.16351-0.34375 0.25-0.10617 0.0808-0.21328 0.16111-0.3125 0.25-0.1779 0.1614-0.3474 0.3453-0.5 0.5312-0.1075 0.1303-0.2183 0.2653-0.3124 0.4063-0.0251 0.0383-0.0385 0.0858-0.0626 0.125-0.0647 0.103-0.1302 0.2045-0.1874 0.3124-0.1011 0.1948-0.2057 0.4158-0.2813 0.625-0.008 0.0219-0.0236 0.0406-0.0313 0.0626-0.0318 0.0919-0.0358 0.1868-0.0624 0.2812-0.0304 0.1066-0.0704 0.203-0.0938 0.3125-0.0729 0.3415-0.125 0.6985-0.125 1.0625v2 68 2c0 2.7818 2.2182 5 5 5h2 68 2c2.7818 0 5-2.2182 5-5v-2-68-2c0-0.364-0.052-0.721-0.125-1.0625-0.044-0.2069-0.088-0.3977-0.156-0.5937-0.008-0.022-0.024-0.0407-0.031-0.0626-0.063-0.1737-0.139-0.3674-0.219-0.5312-0.042-0.0828-0.079-0.17-0.125-0.25-0.055-0.0972-0.127-0.1884-0.188-0.2812-0.094-0.141-0.205-0.276-0.312-0.4063-0.143-0.1745-0.303-0.347-0.469-0.5-0.011-0.0102-0.02-0.0211-0.031-0.0313-0.139-0.1255-0.285-0.2344-0.438-0.3437-0.102-0.0731-0.204-0.1534-0.312-0.2187-0.0074-0.0045-0.02384 0.0044-0.03125 0-0.23204-0.13873-0.46255-0.27478-0.71875-0.375 0.30153 0.0968 0.59646 0.20414 0.875 0.34375 0.55709 0.27922 1.0601 0.66569 1.5 1.0938 0.21997 0.21403 0.40937 0.44186 0.59375 0.6875s0.35541 0.50774 0.5 0.78125c0.14012 0.26505 0.27614 0.52473 0.375 0.8125 0.01041 0.03078 0.02133 0.06274 0.03125 0.09375 0.09046 0.27808 0.1388 0.5794 0.1875 0.875 0.053 0.318 0.094 0.634 0.094 0.969v2 68 2c0 3.324-2.676 6-6 6h-72z"/>
 </g>
 <g id="layer4">
  <path id="path3741" style="opacity:.05;fill-rule:evenodd" d="m60.969 10.125c-5.792 0.04-11.491 2.352-15.688 6.375-8.31-2.741-18.294-2.477-25.343 3.5a1.0217 1.0217 0 0 0 -0.0625 0.03125c-0.88973 0.85338-2.238 1.9709-3.2188 3.3438s-1.5823 3.2542-0.625 5.0625a1.0217 1.0217 0 0 0 0.25 0.3125c0.76419 0.62858 1.6673 0.89712 2.5 0.875 0.83267-0.02212 1.5872-0.27533 2.2812-0.59375 1.388-0.63684 2.665-1.4757 3.5625-1.6875a1.0217 1.0217 0 0 0 0.15625 -0.0625c6.715-2.876 14.778-3.086 21.093 0.656l0.03125-0.03125c0.94975 0.68611 2.1405 0.73554 3.0312 0.3125 0.86623-0.41138 1.5067-1.1557 1.9062-2l0.032 0.03c3.7705-5.2335 10.394-7.6119 16.812-7.7812 1.9565 0.37023 3.7225-0.71663 4.4062-2.2188 0.36033-0.79154 0.43635-1.7569 0.0625-2.625-0.3626-0.84198-1.1501-1.5109-2.2188-1.875-0.03064-0.01385-0.06305-0.01761-0.09375-0.03125-2.8417-1.2619-5.9268-1.5987-8.875-1.5938zm9.25 14.781c-9.574-0.04-19.298 4.039-25.281 11.75-10.57-2.65-22.409-0.53-30.813 6.656a1.0217 1.0217 0 0 0 -0.03125 0c-2.7108 2.3893-5.5819 5.1823-6.9688 8.875a1.0217 1.0217 0 0 0 -0.0625 0.28125c-0.075487 1.1645 0.2522 2.1727 0.9375 2.8125 0.6853 0.63977 1.5716 0.7932 2.4062 0.75 1.6048-0.08306 3.1685-0.83208 4.2812-1.75 0.04471-0.03688 0.11314-0.05637 0.15625-0.09375 8.2992-4.654 18.225-7.6406 27.438-4.9375a1.0217 1.0217 0 0 0 0.15625 0.03125c0.79257 0.0904 1.7004 0.54667 2.7188 1.0312 1.0184 0.48458 2.2229 1.0077 3.625 0.8125a1.0217 1.0217 0 0 0 0.3125 -0.09375c1.2022-0.6001 1.8078-1.6719 2.2812-2.5938 0.47347-0.92188 0.85762-1.7443 1.375-2.25a1.0217 1.0217 0 0 0 0.125 -0.125c5.166-7.2761 13.868-11.214 22.594-12.875v-0.0625c1.8414 0.14766 3.5796-0.69604 4.5625-2.0625 0.52362-0.72795 0.85835-1.6692 0.625-2.625-0.23335-0.95585-0.99661-1.7615-2.125-2.2812a1.0217 1.0217 0 0 0 -0.094 -0.03c-2.6894-1.0106-5.5218-1.1971-8.2188-1.2188z"/>
  <path id="path3735" style="opacity:.1;fill-rule:evenodd" d="m60.969 11.156c-5.7211 0.03923-11.41 2.354-15.438 6.4375-8.1584-2.8552-18.078-2.6085-24.928 3.1997-1.864 1.7878-5.1739 4.3261-3.6655 7.1753 2.3701 1.9495 5.0334-1.0446 7.4471-1.6141 6.9703-2.9848 15.354-3.2324 22.009 0.71014 1.3453 1.1043 3.0759-0.03529 3.6441-1.4178 4.0141-5.5715 10.966-8.0339 17.619-8.2095 3.1929 0.86278 5.5105-3.5972 1.875-4.75-2.6691-1.2068-5.661-1.5362-8.5625-1.5312zm9.25 14.781c-9.495-0.039-19.191 4.06-24.907 11.813-10.418-2.82-22.239-0.726-30.523 6.358-2.6827 2.3645-5.4274 5.0049-6.7082 8.4152-0.25209 3.8889 4.2667 2.4607 6.1007 0.87069 8.4696-4.7825 18.717-7.9492 28.373-5.116 2.1191 0.24169 3.932 2.1446 6.0706 1.8469 1.7801-0.88858 2.0016-3.2725 3.4191-4.658 5.3781-7.5749 14.344-11.587 23.237-13.279 2.9752 0.47385 6.5854-3.3725 2.8153-5.1089-2.505-0.942-5.225-1.12-7.878-1.141z"/>
  <path id="path3731" style="opacity:.15;fill-rule:evenodd" d="m60.969 12.094c-4.7087 0.05114-10.512 1.5868-15.188 6.5-9.4935-3.3234-16.73-1.8366-21.438 0.78125-2.4082 1.3392-4.1706 2.9502-5.3125 4.2812-0.57098 0.66553-0.97448 1.2459-1.25 1.75-0.13776 0.25203-0.24064 0.46905-0.3125 0.71875-0.03593 0.12485-0.0608 0.25301-0.0625 0.4375s-0.0053 0.48392 0.25 0.78125c0.25045 0.29169 0.60594 0.39152 0.8125 0.40625s0.34081-0.03326 0.46875-0.0625c0.25589-0.05849 0.46175-0.14171 0.71875-0.25 0.514-0.21658 1.1744-0.53853 1.9688-0.90625 1.5888-0.73544 3.7456-1.6677 6.3438-2.375 5.1962-1.4145 12.025-1.8842 19.219 2.2812a1.0136 1.0136 0 0 0 1.3438 -0.3125c3.9516-5.8325 9.2506-8.0163 13.594-8.9375 2.1716-0.46061 4.0944-0.58657 5.4688-0.6875 0.68719-0.05046 1.2195-0.09295 1.6875-0.1875 0.234-0.04728 0.46066-0.07127 0.78125-0.3125 0.1603-0.12062 0.3587-0.32031 0.4375-0.625 0.07879-0.30469-0.0017-0.62077-0.09375-0.8125-0.18314-0.38166-0.38939-0.51374-0.59375-0.65625s-0.42573-0.25252-0.6875-0.375c-0.52354-0.24495-1.1965-0.50195-2-0.71875-1.6071-0.4336-3.7281-0.74512-6.1562-0.71875zm9.25 14.781c-7.132 0.012-17.625 2.334-24.563 11.906-12.053-3.214-21.407-0.095-27.562 4.031-3.137 2.104-5.457 4.447-6.969 6.344-0.756 0.949-1.2992 1.77-1.6562 2.438-0.1786 0.334-0.3192 0.614-0.4063 0.906-0.043575 0.14608-0.089068 0.29725-0.09375 0.5-0.00468 0.20275 0.017575 0.54883 0.34375 0.875 0.30036 0.30036 0.66036 0.34956 0.875 0.34375 0.21464-0.0058 0.3555-0.04846 0.5-0.09375 0.28899-0.09059 0.57882-0.24286 0.90625-0.40625 0.65486-0.32677 1.4874-0.78032 2.5312-1.3438 2.0877-1.1269 4.9587-2.5968 8.375-3.8125 6.8326-2.4315 15.779-3.8418 25.062 0.625a1.0136 1.0136 0 0 0 1.344 -0.438c4.7226-8.8785 12.115-13.081 18.312-15.312 3.099-1.1158 5.887-1.726 7.875-2.1562 0.99399-0.21513 1.7723-0.39917 2.375-0.59375 0.30134-0.09729 0.56923-0.16376 0.875-0.40625 0.15289-0.12125 0.34084-0.30462 0.4375-0.625s0.0071-0.70865-0.125-0.9375c-0.38219-0.66197-0.74888-0.69387-1.2188-0.875-0.46986-0.18113-1.0483-0.35629-1.75-0.5-1.4034-0.28742-3.2843-0.47232-5.4688-0.46875z"/>
  <path id="path2948" style="opacity:.3;fill-rule:evenodd" d="m60.969 13.094c-4.6524 0.05053-10.377 1.5375-14.906 6.5938-19.154-7.0882-28.215 6.3125-27.625 7 0.67292 0.78371 14.322-9.7694 29.25-1.125 8.248-12.175 22.442-9.25 21.812-10.563-0.284-0.591-3.879-1.957-8.531-1.906zm9.25 14.781c-7.062 0.012-17.464 2.297-24.157 12.031-24.217-6.898-36.822 12.459-36.031 13.25 0.902 0.902 18.794-14.101 37.969-4.875 9.734-18.3 30.682-17.502 29.781-19.062-0.304-0.527-3.325-1.351-7.562-1.344z"/>
  <path id="path3597" style="fill:url(#radialGradient3787-7);fill-rule:evenodd" d="m10.037 52.16c-0.7912-0.792 11.799-20.136 36.016-13.238 10.708-15.575 30.922-12.112 31.733-10.708 0.901 1.56-20.052 0.779-29.786 19.079-19.175-9.227-37.06 5.769-37.963 4.867z"/>
  <path id="path3599" style="fill:url(#radialGradient3789-0);fill-rule:evenodd" d="m18.433 25.696c-0.591-0.688 8.476-14.106 27.63-7.018 9.059-10.112 22.855-5.85 23.423-4.667 0.63 1.313-13.543-1.616-21.792 10.558-14.928-8.644-28.589 1.911-29.261 1.127z"/>
  <path id="path3617" style="fill:#fff;fill-rule:evenodd" d="m60.969 12.094c-4.6524 0.05053-10.377 1.5375-14.906 6.5938-19.154-7.0882-28.215 6.3125-27.625 7 0.04696 0.0547 0.17425 0.04538 0.34375 0 1.8732-3.1304 10.872-12.072 27.281-6 7.8368-8.7485 19.205-6.7484 22.5-5.2812 0.665-0.074 1.046-0.18 0.937-0.407-0.284-0.591-3.879-1.957-8.531-1.906z"/>
  <path id="path3622" style="fill:#fff;fill-rule:evenodd" d="m70.219 26.875c-7.0613 0.01155-17.464 2.2972-24.156 12.031-24.218-6.8978-36.823 12.459-36.031 13.25 0.18908 0.18908 1.276-0.41186 2.8125-1.25 4.2573-5.4263 15.907-15.216 34.219-10 8.229-11.969 22.039-12.693 28.375-11.75 1.6164-0.35465 2.5453-0.58841 2.3438-0.9375-0.3041-0.52671-3.3257-1.3507-7.5625-1.3438z"/>
  <path id="path3627" style="opacity:.5;fill:#fff;fill-rule:evenodd" d="m77 27.781c-3.8214 1.1401-20.587 2.6834-29 18.5-18.124-8.7209-35.088 4.1945-37.656 4.875-0.28471 0.54818-0.4071 0.9054-0.3125 1 0.901 0.902 18.793-14.101 37.968-4.875 9.734-18.3 30.682-17.502 29.781-19.062-0.077-0.133-0.38-0.286-0.781-0.438z"/>
  <path id="path3633" style="opacity:.3;fill:#fff;fill-rule:evenodd" d="m68.562 13.406c-3.1943 0.35199-14.049 0.082-20.875 10.156-13.887-8.0411-26.647 0.52017-28.906 1.125-0.31338 0.5237-0.42836 0.90147-0.34375 1 0.67292 0.78371 14.322-9.7694 29.25-1.125 8.249-12.174 22.443-9.249 21.813-10.562-0.077-0.159-0.424-0.365-0.938-0.594z"/>
 </g>
</svg>
