<?xml version="1.0" encoding="UTF-8" standalone="no"?>
<!-- Created with Inkscape (http://www.inkscape.org/) -->
<svg id="svg2408" xmlns:rdf="http://www.w3.org/1999/02/22-rdf-syntax-ns#" xmlns="http://www.w3.org/2000/svg" height="96" width="96" version="1.0" xmlns:cc="http://creativecommons.org/ns#" xmlns:xlink="http://www.w3.org/1999/xlink" xmlns:dc="http://purl.org/dc/elements/1.1/">
 <defs id="defs2410">
  <linearGradient id="ButtonShadow" y2="7.0165" gradientUnits="userSpaceOnUse" x2="45.448" gradientTransform="scale(1.0059 .99417)" y1="92.54" x1="45.448">
   <stop id="stop3750" offset="0"/>
   <stop id="stop3752" style="stop-opacity:.58824" offset="1"/>
  </linearGradient>
  <linearGradient id="linearGradient3737">
   <stop id="stop3739" style="stop-color:#fff" offset="0"/>
   <stop id="stop3741" style="stop-color:#fff;stop-opacity:0" offset="1"/>
  </linearGradient>
  <filter id="filter3174" color-interpolation-filters="sRGB">
   <feGaussianBlur id="feGaussianBlur3176" stdDeviation="1.71"/>
  </filter>
  <linearGradient id="linearGradient3188" y2="63.893" xlink:href="#linearGradient3737" gradientUnits="userSpaceOnUse" x2="36.357" y1="6" x1="36.357"/>
  <filter id="filter3794" height="1.384" width="1.384" color-interpolation-filters="sRGB" y="-.192" x="-.192">
   <feGaussianBlur id="feGaussianBlur3796" stdDeviation="5.28"/>
  </filter>
  <linearGradient id="linearGradient3613" y2="138.66" xlink:href="#linearGradient3737" gradientUnits="userSpaceOnUse" x2="48" y1="20.221" x1="48"/>
  <radialGradient id="radialGradient3619" xlink:href="#linearGradient3737" gradientUnits="userSpaceOnUse" cy="90.172" cx="48" gradientTransform="matrix(1.1573 0 0 .99591 -7.551 .19713)" r="42"/>
  <clipPath id="clipPath3613">
   <rect id="rect3615" style="fill:#fff" rx="6" ry="6" height="84" width="84" y="6" x="6"/>
  </clipPath>
  <linearGradient id="linearGradient3617" y2="5.9877" gradientUnits="userSpaceOnUse" x2="48" y1="90" x1="48">
   <stop id="stop3702" style="stop-color:#b4b4b4" offset="0"/>
   <stop id="stop3704" style="stop-color:#e6e6e6" offset="1"/>
  </linearGradient>
  <linearGradient id="ButtonShadow-0" y2="7.0165" gradientUnits="userSpaceOnUse" x2="45.448" gradientTransform="matrix(1.0059 0 0 .99417 100 0)" y1="92.54" x1="45.448">
   <stop id="stop3750-8" offset="0"/>
   <stop id="stop3752-5" style="stop-opacity:.58824" offset="1"/>
  </linearGradient>
  <linearGradient id="linearGradient3780" y2="90.239" xlink:href="#ButtonShadow-0" gradientUnits="userSpaceOnUse" x2="32.251" gradientTransform="matrix(1.0238 0 0 1.0119 -1.1429 -98.071)" y1="6.1317" x1="32.251"/>
  <linearGradient id="linearGradient3721" y2="90.239" xlink:href="#ButtonShadow-0" gradientUnits="userSpaceOnUse" x2="32.251" gradientTransform="translate(0,-97)" y1="6.1317" x1="32.251"/>
  <linearGradient id="linearGradient3845" y2="56.017" gradientUnits="userSpaceOnUse" x2="38.177" gradientTransform="matrix(8.9302 0 0 8.9302 -284.93 -420.24)" y1="48.85" x1="38.177">
   <stop id="stop3820" style="stop-color:#a00" offset="0"/>
   <stop id="stop3822" style="stop-color:#d20000" offset="1"/>
  </linearGradient>
 </defs>
 <metadata id="metadata2413">
  <rdf:RDF>
   <cc:Work rdf:about="">
    <dc:format>image/svg+xml</dc:format>
    <dc:type rdf:resource="http://purl.org/dc/dcmitype/StillImage"/>
    <dc:title/>
   </cc:Work>
  </rdf:RDF>
 </metadata>
 <g id="layer2" style="display:none">
  <rect id="rect3745" style="opacity:.9;filter:url(#filter3174);fill:url(#ButtonShadow)" rx="6" ry="6" height="85" width="86" y="7" x="5"/>
 </g>
 <g id="layer3">
  <path id="path3786" style="opacity:0.08;fill:url(#linearGradient3780)" d="m12-95.031c-5.5111 0-10.031 4.5202-10.031 10.031v71c0 5.5111 4.5202 10.031 10.031 10.031h72c5.5111 0 10.031-4.5202 10.031-10.031v-71c0-5.5111-4.5202-10.031-10.031-10.031h-72z" transform="scale(1,-1)"/>
  <path id="path3778" style="opacity:.1;fill:url(#linearGradient3780)" d="m12-94.031c-4.9716 0-9.0312 4.0596-9.0312 9.0312v71c0 4.9716 4.0596 9.0312 9.0312 9.0312h72c4.9716 0 9.0312-4.0596 9.0312-9.0312v-71c0-4.9716-4.0596-9.0312-9.0312-9.0312h-72z" transform="scale(1,-1)"/>
  <path id="path3770" style="opacity:.2;fill:url(#linearGradient3780)" d="m12-93c-4.4091 0-8 3.5909-8 8v71c0 4.4091 3.5909 8 8 8h72c4.4091 0 8-3.5909 8-8v-71c0-4.4091-3.5909-8-8-8h-72z" transform="scale(1,-1)"/>
  <rect id="rect3723" style="opacity:.3;fill:url(#linearGradient3780)" transform="scale(1,-1)" rx="7" ry="7" height="85" width="86" y="-92" x="5"/>
  <rect id="rect3716" style="opacity:.45;fill:url(#linearGradient3721)" transform="scale(1,-1)" rx="6" ry="6" height="84" width="84" y="-91" x="6"/>
 </g>
 <g id="layer1">
  <rect id="rect2419" style="fill:url(#linearGradient3617)" rx="6" ry="6" height="84" width="84" y="6" x="6"/>
  <path id="rect3728" style="opacity:.5;fill:url(#linearGradient3188)" d="m12 6c-3.324 0-6 2.676-6 6v2 68 2c0 0.33472 0.04135 0.6507 0.09375 0.96875 0.0487 0.2956 0.09704 0.59692 0.1875 0.875 0.00988 0.03038 0.020892 0.0636 0.03125 0.09375 0.098865 0.28777 0.23488 0.54745 0.375 0.8125 0.14459 0.27351 0.31562 0.53562 0.5 0.78125 0.18438 0.24564 0.37378 0.47347 0.59375 0.6875 0.43995 0.42806 0.94291 0.81453 1.5 1.0938 0.27854 0.13961 0.57347 0.24695 0.875 0.34375-0.2562-0.10022-0.48671-0.23627-0.71875-0.375-0.00741-0.0044-0.023866 0.0045-0.03125 0-0.031933-0.0193-0.062293-0.04251-0.09375-0.0625-0.1204-0.0767-0.23102-0.16351-0.34375-0.25-0.10617-0.0808-0.21328-0.16111-0.3125-0.25-0.1778-0.162-0.3473-0.346-0.4999-0.531-0.1075-0.131-0.2183-0.266-0.3124-0.407-0.0251-0.038-0.0385-0.086-0.0626-0.125-0.0647-0.103-0.1302-0.204-0.1874-0.312-0.1011-0.195-0.2057-0.416-0.2813-0.625-0.008-0.022-0.0236-0.041-0.0313-0.063-0.0318-0.092-0.0358-0.187-0.0624-0.281-0.0304-0.107-0.0704-0.203-0.0938-0.313-0.0729-0.341-0.125-0.698-0.125-1.062v-2-68-2c0-2.782 2.2182-5 5-5h2 68 2c2.7818 0 5 2.2182 5 5v2 68 2c0 0.3643-0.05212 0.72099-0.125 1.0625-0.04415 0.20689-0.08838 0.39766-0.15625 0.59375-0.0077 0.02195-0.0233 0.04069-0.03125 0.0625-0.06274 0.17374-0.13838 0.36745-0.21875 0.53125-0.04158 0.0828-0.07904 0.16995-0.125 0.25-0.0546 0.09721-0.12677 0.18835-0.1875 0.28125-0.09411 0.14096-0.20492 0.276-0.3125 0.40625-0.14317 0.17445-0.30314 0.347-0.46875 0.5-0.01117 0.0102-0.01998 0.02115-0.03125 0.03125-0.13839 0.12556-0.28509 0.23444-0.4375 0.34375-0.10257 0.07315-0.20432 0.15336-0.3125 0.21875-0.0074 0.0045-0.02384-0.0044-0.03125 0-0.23204 0.13873-0.46255 0.27478-0.71875 0.375 0.30153-0.0968 0.59646-0.20414 0.875-0.34375 0.55709-0.27922 1.0601-0.66569 1.5-1.0938 0.21997-0.21403 0.40937-0.44186 0.59375-0.6875s0.35541-0.50774 0.5-0.78125c0.14012-0.26505 0.27614-0.52473 0.375-0.8125 0.01041-0.03078 0.02133-0.06274 0.03125-0.09375 0.09046-0.27808 0.1388-0.5794 0.1875-0.875 0.053-0.318 0.094-0.634 0.094-0.969v-2-68-2c0-3.324-2.676-6-6-6h-72z"/>
  <path id="path3615" style="opacity:.2;fill:url(#radialGradient3619)" d="m12 90c-3.324 0-6-2.676-6-6v-2-68-2c0-0.33472 0.04135-0.6507 0.09375-0.96875 0.0487-0.2956 0.09704-0.59692 0.1875-0.875 0.0099-0.03 0.0209-0.063 0.0313-0.094 0.0989-0.2873 0.2349-0.547 0.375-0.812 0.1446-0.2735 0.3156-0.5356 0.5-0.7812 0.1844-0.2457 0.3738-0.4735 0.5937-0.6876 0.44-0.428 0.943-0.8145 1.5-1.0937 0.2786-0.1396 0.5735-0.2469 0.8748-0.3437-0.256 0.1002-0.4865 0.2362-0.7185 0.375-0.00741 0.0044-0.023866-0.0045-0.03125 0-0.031933 0.0193-0.062293 0.04251-0.09375 0.0625-0.1204 0.0767-0.23102 0.16351-0.34375 0.25-0.10617 0.0808-0.21328 0.16111-0.3125 0.25-0.1779 0.1614-0.3474 0.3453-0.5 0.5312-0.1075 0.1303-0.2183 0.2653-0.3124 0.4063-0.0251 0.0383-0.0385 0.0858-0.0626 0.125-0.0647 0.103-0.1302 0.2045-0.1874 0.3124-0.1011 0.1948-0.2057 0.4158-0.2813 0.625-0.008 0.0219-0.0236 0.0406-0.0313 0.0626-0.0318 0.0919-0.0358 0.1868-0.0624 0.2812-0.0304 0.1066-0.0704 0.203-0.0938 0.3125-0.0729 0.3415-0.125 0.6985-0.125 1.0625v2 68 2c0 2.7818 2.2182 5 5 5h2 68 2c2.7818 0 5-2.2182 5-5v-2-68-2c0-0.364-0.052-0.721-0.125-1.0625-0.044-0.2069-0.088-0.3977-0.156-0.5937-0.008-0.022-0.024-0.0407-0.031-0.0626-0.063-0.1737-0.139-0.3674-0.219-0.5312-0.042-0.0828-0.079-0.17-0.125-0.25-0.055-0.0972-0.127-0.1884-0.188-0.2812-0.094-0.141-0.205-0.276-0.312-0.4063-0.143-0.1745-0.303-0.347-0.469-0.5-0.011-0.0102-0.02-0.0211-0.031-0.0313-0.139-0.1255-0.285-0.2344-0.438-0.3437-0.102-0.0731-0.204-0.1534-0.312-0.2187-0.0074-0.0045-0.02384 0.0044-0.03125 0-0.23204-0.13873-0.46255-0.27478-0.71875-0.375 0.30153 0.0968 0.59646 0.20414 0.875 0.34375 0.55709 0.27922 1.0601 0.66569 1.5 1.0938 0.21997 0.21403 0.40937 0.44186 0.59375 0.6875s0.35541 0.50774 0.5 0.78125c0.14012 0.26505 0.27614 0.52473 0.375 0.8125 0.01041 0.03078 0.02133 0.06274 0.03125 0.09375 0.09046 0.27808 0.1388 0.5794 0.1875 0.875 0.053 0.318 0.094 0.634 0.094 0.969v2 68 2c0 3.324-2.676 6-6 6h-72z"/>
  <path id="path3816" style="fill:url(#linearGradient3845)" d="m72.279 39.419c-0.000062-3.5232-0.47098-6.7151-1.4128-9.5756-0.94193-2.8604-2.2675-5.3023-3.9767-7.3256-1.7094-2.0232-3.7675-3.5755-6.1744-4.657-2.3721-1.1162-5.0233-1.6743-7.9535-1.6744-3.2093 0.000071-6.157 0.62797-8.843 1.8837-2.6861 1.2559-5.1105 2.9303-7.2733 5.0233-2.1279 2.0931-4.0116 4.5175-5.6512 7.2733-1.6047 2.721-2.9477 5.5814-4.0291 8.5814s-1.9012 6.0349-2.4593 9.1047c-0.52322 3.0349-0.78488 5.8954-0.78488 8.5814-0.000018 3.4884 0.45348 6.6454 1.3605 9.4709 0.94184 2.8256 2.25 5.2326 3.9244 7.2209 1.6744 1.9884 3.6802 3.5233 6.0174 4.6047 2.3721 1.0814 5.0058 1.6221 7.9012 1.6221 3.2093 0.000009 6.1569-0.61047 8.843-1.8314 2.7209-1.2558 5.1627-2.9128 7.3256-4.9709 2.1976-2.0581 4.1162-4.4477 5.7558-7.1686 1.6395-2.7209 2.9999-5.5639 4.0814-8.5291 1.1162-3 1.9534-6 2.5116-9 0.55805-3.0349 0.83712-5.9128 0.83721-8.6337m-29.72 44.58c-4.2907 0-8.2326-0.68022-11.826-2.0407-3.593-1.3605-6.6803-3.2616-9.2616-5.7035-2.5814-2.4767-4.6047-5.4244-6.0698-8.843-1.4302-3.4186-2.1454-7.2035-2.1453-11.355-0.000009-3.9418 0.40115-7.7616 1.2035-11.459 0.80229-3.6976 1.9884-7.1686 3.5581-10.413 1.5698-3.279 3.4884-6.279 5.7558-9 2.3023-2.7209 4.936-5.0581 7.9012-7.0116 3-1.9534 6.3139-3.4709 9.9419-4.5523 3.6279-1.0813 7.5697-1.622 11.826-1.6221 4.2906 0.000072 8.2325 0.68031 11.826 2.0407 3.593 1.3605 6.6802 3.2791 9.2616 5.7558 2.5813 2.4419 4.5871 5.3896 6.0174 8.843 1.465 3.4187 2.1976 7.1861 2.1977 11.302-0.000081 3.3838-0.3489 6.8372-1.0465 10.36-0.66289 3.4884-1.7094 6.8721-3.1395 10.151-1.3954 3.2442-3.1745 6.2965-5.3372 9.157-2.1629 2.8605-4.7442 5.3547-7.7442 7.4826-2.9652 2.1279-6.3489 3.8198-10.151 5.0756-3.8024 1.2209-8.0582 1.8314-12.767 1.8314"/>
  <path id="path3847" style="opacity:.2" d="m53.438 11c-4.2559 0.000072-8.1846 0.54367-11.812 1.625-3.6279 1.0815-6.9375 2.6091-9.9375 4.5625-2.9651 1.9536-5.6039 4.2791-7.9062 7-2.2675 2.721-4.1802 5.721-5.75 9-1.5698 3.2442-2.7602 6.7086-3.5625 10.406-0.80234 3.6977-1.2188 7.5269-1.2188 11.469 0 0.21171-0.0037 0.4152 0 0.625 0.02476-3.8086 0.44199-7.5139 1.2188-11.094 0.80229-3.6976 1.9927-7.162 3.5625-10.406 1.5698-3.279 3.4825-6.279 5.75-9 2.3023-2.7209 4.9411-5.0464 7.9062-7 3-1.9534 6.3096-3.481 9.9375-4.5625 3.6279-1.0813 7.5566-1.6249 11.812-1.625 4.2906 0.000072 8.2507 0.67086 11.844 2.0312 3.593 1.3605 6.6685 3.2733 9.25 5.75 2.5813 2.4419 4.5697 5.3903 6 8.8438 1.4015 3.2705 2.1579 6.8724 2.2188 10.781 0.0015-0.15494-0.000004-0.3141 0-0.46875-0.000081-4.1162-0.75371-7.8938-2.2188-11.312-1.4303-3.4534-3.4187-6.4018-6-8.8438-2.5815-2.4767-5.657-4.3895-9.25-5.75-3.594-1.361-7.554-2.032-11.844-2.032zm18.812 27.969c-0.03507 2.5578-0.29196 5.2629-0.8125 8.0938-0.5582 3-1.3838 6-2.5 9-1.0815 2.9651-2.4543 5.8103-4.0938 8.5312-1.6396 2.7209-3.5524 5.0981-5.75 7.1562-2.1628 2.0581-4.5916 3.7129-7.3125 4.9688-2.6861 1.2209-5.6345 1.8438-8.8438 1.8438-2.8954 0.000009-5.5342-0.5436-7.9062-1.625-2.338-1.082-4.358-2.637-6.032-4.626-1.6744-1.9884-2.9644-4.3932-3.9062-7.2188-0.86547-2.6962-1.3041-5.7003-1.3438-9-0.0022 0.17727-0.03125 0.35547-0.03125 0.53125-0.000018 3.4884 0.46801 6.6432 1.375 9.4688 0.94184 2.8256 2.2318 5.2304 3.9062 7.2188s3.694 3.5436 6.0312 4.625c2.3721 1.0814 5.0109 1.625 7.9062 1.625 3.2093 0.000009 6.1577-0.62283 8.8438-1.8438 2.7209-1.2558 5.1497-2.9106 7.3125-4.9688 2.1976-2.0581 4.1104-4.4353 5.75-7.1562 1.6395-2.7209 3.0123-5.5661 4.0938-8.5312 1.1162-3 1.9418-6 2.5-9 0.55805-3.0349 0.84366-5.9353 0.84375-8.6562-0.000003-0.15057-0.02953-0.28814-0.03125-0.4375z"/>
  <path id="path3856" style="opacity:.7;fill:#fff" d="m52.75 16.188c-3.2093 0.000071-6.1578 0.61925-8.8438 1.875-2.6861 1.2559-5.0872 2.9383-7.25 5.0312-2.128 2.093-4.016 4.525-5.656 7.281-1.6047 2.721-2.9499 5.5625-4.0312 8.5625-1.0814 3-1.9106 6.0553-2.4688 9.125-0.52322 3.0349-0.78125 5.8765-0.78125 8.5625-0.000001 0.15971 0.02935 0.31043 0.03125 0.46875 0.032-2.5316 0.26102-5.1949 0.75-8.0312 0.55813-3.0697 1.3873-6.125 2.4688-9.125 1.0814-3 2.4266-5.8415 4.0312-8.5625 1.6395-2.7558 3.5283-5.1882 5.6562-7.2812 2.1628-2.093 4.5639-3.7754 7.25-5.0312 2.686-1.2558 5.6344-1.8749 8.8438-1.875 2.9302 0.000071 5.5966 0.57129 7.9688 1.6875 2.4069 1.0815 4.4469 2.6331 6.1562 4.6562 1.7092 2.0233 3.0581 4.4521 4 7.3125 0.90156 2.7383 1.3364 5.7795 1.375 9.125 0.0025-0.18431 0.03124-0.37961 0.03125-0.5625-0.000062-3.5232-0.46444-6.702-1.4062-9.5625-0.94193-2.8604-2.2908-5.2892-4-7.3125-1.709-2.023-3.749-3.575-6.156-4.656-2.372-1.116-5.039-1.687-7.969-1.687zm30 24.219c-0.0305 3.2352-0.39677 6.5441-1.0625 9.9062-0.66289 3.4884-1.6948 6.8772-3.125 10.156-1.3954 3.2442-3.181 6.2958-5.3438 9.1562-2.1629 2.8605-4.7501 5.3408-7.75 7.4688-2.9652 2.1279-6.354 3.8067-10.156 5.0625-3.803 1.22-8.041 1.843-12.751 1.843-4.29 0-8.25-0.671-11.843-2.031-3.593-1.361-6.669-3.277-9.25-5.719-2.582-2.477-4.598-5.425-6.063-8.844-1.357-3.244-2.087-6.814-2.156-10.718-0.000815 0.12543 0 0.24932 0 0.375-0.000009 4.1512 0.72601 7.9252 2.1562 11.344 1.4651 3.4186 3.4811 6.367 6.0625 8.8438 2.5814 2.4419 5.657 4.3583 9.25 5.7188 3.593 1.359 7.553 2.03 11.843 2.03 4.7093 0 8.9476-0.62282 12.75-1.8438 3.8023-1.2558 7.1911-2.9346 10.156-5.0625 2.9999-2.1279 5.5871-4.6083 7.75-7.4688 2.1627-2.8605 3.9483-5.912 5.3438-9.1562 1.4302-3.279 2.4621-6.6679 3.125-10.156 0.69761-3.5232 1.0624-6.9912 1.0625-10.375-0.000004-0.17844 0.0028-0.35412 0-0.53125z"/>
  <path id="path3865" style="fill:#500" d="m53.438 12c-4.2559 0.000072-8.1846 0.54367-11.812 1.625-3.6279 1.0815-6.9375 2.6091-9.9375 4.5625-2.9651 1.9536-5.6039 4.2791-7.9062 7-2.2675 2.721-4.1802 5.721-5.75 9-1.5698 3.2442-2.7602 6.7086-3.5625 10.406-0.80234 3.6977-1.2188 7.5269-1.2188 11.469 0 0.21171-0.0037 0.4152 0 0.625 0.02476-3.8086 0.44199-7.5139 1.2188-11.094 0.80229-3.6976 1.9927-7.162 3.5625-10.406 1.5698-3.279 3.4825-6.279 5.75-9 2.3023-2.7209 4.9411-5.0464 7.9062-7 3-1.9534 6.3096-3.481 9.9375-4.5625 3.6279-1.0813 7.5566-1.6249 11.812-1.625 4.2906 0.000072 8.2507 0.67086 11.844 2.0312 3.593 1.3605 6.6685 3.2733 9.25 5.75 2.5813 2.4419 4.5697 5.3903 6 8.8438 1.4015 3.2705 2.1579 6.8724 2.2188 10.781 0.0015-0.15494-0.000004-0.3141 0-0.46875-0.000081-4.1162-0.75371-7.8938-2.2188-11.312-1.4303-3.4534-3.4187-6.4018-6-8.8438-2.5815-2.4767-5.657-4.3895-9.25-5.75-3.594-1.361-7.554-2.032-11.844-2.032zm18.812 27.969c-0.03507 2.5578-0.29196 5.2629-0.8125 8.0938-0.5582 3-1.3838 6-2.5 9-1.0815 2.9651-2.4543 5.8103-4.0938 8.5312-1.6396 2.7209-3.5524 5.0981-5.75 7.1562-2.1628 2.0581-4.5916 3.7129-7.3125 4.9688-2.6861 1.2209-5.6345 1.8438-8.8438 1.8438-2.8954 0.000009-5.5342-0.5436-7.9062-1.625-2.338-1.082-4.358-2.637-6.032-4.626-1.6744-1.9884-2.9644-4.3932-3.9062-7.2188-0.86547-2.6962-1.3041-5.7003-1.3438-9-0.0022 0.17727-0.03125 0.35547-0.03125 0.53125-0.000018 3.4884 0.46801 6.6432 1.375 9.4688 0.94184 2.8256 2.2318 5.2304 3.9062 7.2188s3.694 3.5436 6.0312 4.625c2.3721 1.0814 5.0109 1.625 7.9062 1.625 3.2093 0.000009 6.1577-0.62283 8.8438-1.8438 2.7209-1.2558 5.1497-2.9106 7.3125-4.9688 2.1976-2.0581 4.1104-4.4353 5.75-7.1562 1.6395-2.7209 3.0123-5.5661 4.0938-8.5312 1.1162-3 1.9418-6 2.5-9 0.55805-3.0349 0.84366-5.9353 0.84375-8.6562-0.000003-0.15057-0.02953-0.28814-0.03125-0.4375z"/>
 </g>
 <g id="layer5">
  <rect id="rect3171" style="opacity:.1;filter:url(#filter3794);stroke:#fff;stroke-linecap:round;stroke-width:.5;fill:url(#linearGradient3613)" clip-path="url(#clipPath3613)" rx="12" ry="12" height="66" width="66" y="15" x="15"/>
 </g>
</svg>
