<?xml version="1.0" encoding="UTF-8" standalone="no"?>
<!-- Created with Inkscape (http://www.inkscape.org/) -->
<svg id="svg2408" xmlns:rdf="http://www.w3.org/1999/02/22-rdf-syntax-ns#" xmlns="http://www.w3.org/2000/svg" height="96" width="96" version="1.0" xmlns:cc="http://creativecommons.org/ns#" xmlns:xlink="http://www.w3.org/1999/xlink" xmlns:dc="http://purl.org/dc/elements/1.1/">
 <defs id="defs2410">
  <linearGradient id="linearGradient3940">
   <stop id="stop3942" style="stop-color:#34870c" offset="0"/>
   <stop id="stop3944" style="stop-color:#a0ce72" offset="1"/>
  </linearGradient>
  <linearGradient id="ButtonShadow" y2="7.0165" gradientUnits="userSpaceOnUse" x2="45.448" gradientTransform="scale(1.0059 .99417)" y1="92.54" x1="45.448">
   <stop id="stop3750" offset="0"/>
   <stop id="stop3752" style="stop-opacity:.58824" offset="1"/>
  </linearGradient>
  <linearGradient id="linearGradient3737">
   <stop id="stop3739" style="stop-color:#fff" offset="0"/>
   <stop id="stop3741" style="stop-color:#fff;stop-opacity:0" offset="1"/>
  </linearGradient>
  <filter id="filter3174" color-interpolation-filters="sRGB">
   <feGaussianBlur id="feGaussianBlur3176" stdDeviation="1.71"/>
  </filter>
  <linearGradient id="linearGradient3188" y2="63.893" xlink:href="#linearGradient3737" gradientUnits="userSpaceOnUse" x2="36.357" y1="6" x1="36.357"/>
  <filter id="filter3794" height="1.384" width="1.384" color-interpolation-filters="sRGB" y="-.192" x="-.192">
   <feGaussianBlur id="feGaussianBlur3796" stdDeviation="5.28"/>
  </filter>
  <linearGradient id="linearGradient3613" y2="138.66" xlink:href="#linearGradient3737" gradientUnits="userSpaceOnUse" x2="48" y1="20.221" x1="48"/>
  <radialGradient id="radialGradient3619" xlink:href="#linearGradient3737" gradientUnits="userSpaceOnUse" cy="90.172" cx="48" gradientTransform="matrix(1.1573 0 0 .99591 -7.551 .19713)" r="42"/>
  <clipPath id="clipPath3613">
   <rect id="rect3615" style="fill:#fff" rx="6" ry="6" height="84" width="84" y="6" x="6"/>
  </clipPath>
  <linearGradient id="linearGradient3617" y2="5.9877" gradientUnits="userSpaceOnUse" x2="48" y1="90" x1="48">
   <stop id="stop3702" style="stop-color:#c8c8c8" offset="0"/>
   <stop id="stop3704" style="stop-color:#f0f0f0" offset="1"/>
  </linearGradient>
  <linearGradient id="ButtonShadow-0" y2="7.0165" gradientUnits="userSpaceOnUse" x2="45.448" gradientTransform="matrix(1.0059 0 0 .99417 100 0)" y1="92.54" x1="45.448">
   <stop id="stop3750-8" offset="0"/>
   <stop id="stop3752-5" style="stop-opacity:.58824" offset="1"/>
  </linearGradient>
  <linearGradient id="linearGradient3780" y2="90.239" xlink:href="#ButtonShadow-0" gradientUnits="userSpaceOnUse" x2="32.251" gradientTransform="matrix(1.0238 0 0 1.0119 -1.1429 -98.071)" y1="6.1317" x1="32.251"/>
  <linearGradient id="linearGradient3721" y2="90.239" xlink:href="#ButtonShadow-0" gradientUnits="userSpaceOnUse" x2="32.251" gradientTransform="translate(0,-97)" y1="6.1317" x1="32.251"/>
  <linearGradient id="linearGradient3977" y2="40" xlink:href="#linearGradient3940" gradientUnits="userSpaceOnUse" x2="88" y1="64" x1="40"/>
  <linearGradient id="linearGradient3979" y2="40" xlink:href="#linearGradient3940" gradientUnits="userSpaceOnUse" x2="88" gradientTransform="matrix(0,-1,1,0,-8,104)" y1="64" x1="40"/>
  <radialGradient id="radialGradient4024" gradientUnits="userSpaceOnUse" cy="48" cx="48" r="32">
   <stop id="stop4020" style="stop-color:#fff" offset="0"/>
   <stop id="stop4026" style="stop-color:#fff;stop-opacity:.49804" offset="0.7"/>
   <stop id="stop4022" style="stop-color:#fff;stop-opacity:0" offset="1"/>
  </radialGradient>
 </defs>
 <metadata id="metadata2413">
  <rdf:RDF>
   <cc:Work rdf:about="">
    <dc:format>image/svg+xml</dc:format>
    <dc:type rdf:resource="http://purl.org/dc/dcmitype/StillImage"/>
    <dc:title/>
   </cc:Work>
  </rdf:RDF>
 </metadata>
 <g id="layer2" style="display:none">
  <rect id="rect3745" style="opacity:.9;filter:url(#filter3174);fill:url(#ButtonShadow)" rx="6" ry="6" height="85" width="86" y="7" x="5"/>
 </g>
 <g id="layer3">
  <path id="path3786" style="opacity:0.08;fill:url(#linearGradient3780)" d="m12-95.031c-5.5111 0-10.031 4.5202-10.031 10.031v71c0 5.5111 4.5202 10.031 10.031 10.031h72c5.5111 0 10.031-4.5202 10.031-10.031v-71c0-5.5111-4.5202-10.031-10.031-10.031h-72z" transform="scale(1,-1)"/>
  <path id="path3778" style="opacity:.1;fill:url(#linearGradient3780)" d="m12-94.031c-4.9716 0-9.0312 4.0596-9.0312 9.0312v71c0 4.9716 4.0596 9.0312 9.0312 9.0312h72c4.9716 0 9.0312-4.0596 9.0312-9.0312v-71c0-4.9716-4.0596-9.0312-9.0312-9.0312h-72z" transform="scale(1,-1)"/>
  <path id="path3770" style="opacity:.2;fill:url(#linearGradient3780)" d="m12-93c-4.4091 0-8 3.5909-8 8v71c0 4.4091 3.5909 8 8 8h72c4.4091 0 8-3.5909 8-8v-71c0-4.4091-3.5909-8-8-8h-72z" transform="scale(1,-1)"/>
  <rect id="rect3723" style="opacity:.3;fill:url(#linearGradient3780)" transform="scale(1,-1)" rx="7" ry="7" height="85" width="86" y="-92" x="5"/>
  <rect id="rect3716" style="opacity:.45;fill:url(#linearGradient3721)" transform="scale(1,-1)" rx="6" ry="6" height="84" width="84" y="-91" x="6"/>
 </g>
 <g id="layer1">
  <rect id="rect2419" style="fill:url(#linearGradient3617)" rx="6" ry="6" height="84" width="84" y="6" x="6"/>
  <path id="rect3728" style="opacity:.5;fill:url(#linearGradient3188)" d="m12 6c-3.324 0-6 2.676-6 6v2 68 2c0 0.33472 0.04135 0.6507 0.09375 0.96875 0.0487 0.2956 0.09704 0.59692 0.1875 0.875 0.00988 0.03038 0.020892 0.0636 0.03125 0.09375 0.098865 0.28777 0.23488 0.54745 0.375 0.8125 0.14459 0.27351 0.31562 0.53562 0.5 0.78125 0.18438 0.24564 0.37378 0.47347 0.59375 0.6875 0.43995 0.42806 0.94291 0.81453 1.5 1.0938 0.27854 0.13961 0.57347 0.24695 0.875 0.34375-0.2562-0.10022-0.48671-0.23627-0.71875-0.375-0.00741-0.0044-0.023866 0.0045-0.03125 0-0.031933-0.0193-0.062293-0.04251-0.09375-0.0625-0.1204-0.0767-0.23102-0.16351-0.34375-0.25-0.10617-0.0808-0.21328-0.16111-0.3125-0.25-0.1778-0.162-0.3473-0.346-0.4999-0.531-0.1075-0.131-0.2183-0.266-0.3124-0.407-0.0251-0.038-0.0385-0.086-0.0626-0.125-0.0647-0.103-0.1302-0.204-0.1874-0.312-0.1011-0.195-0.2057-0.416-0.2813-0.625-0.008-0.022-0.0236-0.041-0.0313-0.063-0.0318-0.092-0.0358-0.187-0.0624-0.281-0.0304-0.107-0.0704-0.203-0.0938-0.313-0.0729-0.341-0.125-0.698-0.125-1.062v-2-68-2c0-2.782 2.2182-5 5-5h2 68 2c2.7818 0 5 2.2182 5 5v2 68 2c0 0.3643-0.05212 0.72099-0.125 1.0625-0.04415 0.20689-0.08838 0.39766-0.15625 0.59375-0.0077 0.02195-0.0233 0.04069-0.03125 0.0625-0.06274 0.17374-0.13838 0.36745-0.21875 0.53125-0.04158 0.0828-0.07904 0.16995-0.125 0.25-0.0546 0.09721-0.12677 0.18835-0.1875 0.28125-0.09411 0.14096-0.20492 0.276-0.3125 0.40625-0.14317 0.17445-0.30314 0.347-0.46875 0.5-0.01117 0.0102-0.01998 0.02115-0.03125 0.03125-0.13839 0.12556-0.28509 0.23444-0.4375 0.34375-0.10257 0.07315-0.20432 0.15336-0.3125 0.21875-0.0074 0.0045-0.02384-0.0044-0.03125 0-0.23204 0.13873-0.46255 0.27478-0.71875 0.375 0.30153-0.0968 0.59646-0.20414 0.875-0.34375 0.55709-0.27922 1.0601-0.66569 1.5-1.0938 0.21997-0.21403 0.40937-0.44186 0.59375-0.6875s0.35541-0.50774 0.5-0.78125c0.14012-0.26505 0.27614-0.52473 0.375-0.8125 0.01041-0.03078 0.02133-0.06274 0.03125-0.09375 0.09046-0.27808 0.1388-0.5794 0.1875-0.875 0.053-0.318 0.094-0.634 0.094-0.969v-2-68-2c0-3.324-2.676-6-6-6h-72z"/>
  <path id="path3615" style="opacity:.2;fill:url(#radialGradient3619)" d="m12 90c-3.324 0-6-2.676-6-6v-2-68-2c0-0.33472 0.04135-0.6507 0.09375-0.96875 0.0487-0.2956 0.09704-0.59692 0.1875-0.875 0.0099-0.03 0.0209-0.063 0.0313-0.094 0.0989-0.2873 0.2349-0.547 0.375-0.812 0.1446-0.2735 0.3156-0.5356 0.5-0.7812 0.1844-0.2457 0.3738-0.4735 0.5937-0.6876 0.44-0.428 0.943-0.8145 1.5-1.0937 0.2786-0.1396 0.5735-0.2469 0.8748-0.3437-0.256 0.1002-0.4865 0.2362-0.7185 0.375-0.00741 0.0044-0.023866-0.0045-0.03125 0-0.031933 0.0193-0.062293 0.04251-0.09375 0.0625-0.1204 0.0767-0.23102 0.16351-0.34375 0.25-0.10617 0.0808-0.21328 0.16111-0.3125 0.25-0.1779 0.1614-0.3474 0.3453-0.5 0.5312-0.1075 0.1303-0.2183 0.2653-0.3124 0.4063-0.0251 0.0383-0.0385 0.0858-0.0626 0.125-0.0647 0.103-0.1302 0.2045-0.1874 0.3124-0.1011 0.1948-0.2057 0.4158-0.2813 0.625-0.008 0.0219-0.0236 0.0406-0.0313 0.0626-0.0318 0.0919-0.0358 0.1868-0.0624 0.2812-0.0304 0.1066-0.0704 0.203-0.0938 0.3125-0.0729 0.3415-0.125 0.6985-0.125 1.0625v2 68 2c0 2.7818 2.2182 5 5 5h2 68 2c2.7818 0 5-2.2182 5-5v-2-68-2c0-0.364-0.052-0.721-0.125-1.0625-0.044-0.2069-0.088-0.3977-0.156-0.5937-0.008-0.022-0.024-0.0407-0.031-0.0626-0.063-0.1737-0.139-0.3674-0.219-0.5312-0.042-0.0828-0.079-0.17-0.125-0.25-0.055-0.0972-0.127-0.1884-0.188-0.2812-0.094-0.141-0.205-0.276-0.312-0.4063-0.143-0.1745-0.303-0.347-0.469-0.5-0.011-0.0102-0.02-0.0211-0.031-0.0313-0.139-0.1255-0.285-0.2344-0.438-0.3437-0.102-0.0731-0.204-0.1534-0.312-0.2187-0.0074-0.0045-0.02384 0.0044-0.03125 0-0.23204-0.13873-0.46255-0.27478-0.71875-0.375 0.30153 0.0968 0.59646 0.20414 0.875 0.34375 0.55709 0.27922 1.0601 0.66569 1.5 1.0938 0.21997 0.21403 0.40937 0.44186 0.59375 0.6875s0.35541 0.50774 0.5 0.78125c0.14012 0.26505 0.27614 0.52473 0.375 0.8125 0.01041 0.03078 0.02133 0.06274 0.03125 0.09375 0.09046 0.27808 0.1388 0.5794 0.1875 0.875 0.053 0.318 0.094 0.634 0.094 0.969v2 68 2c0 3.324-2.676 6-6 6h-72z"/>
  <path id="path4016" style="color:#000000;fill:url(#radialGradient4024)" d="m80 48a32 32 0 1 1 -64 0 32 32 0 1 1 64 0z"/>
  <path id="path3938" style="color:#000000;fill:url(#linearGradient3979)" d="m48 16c-3.4896 0-6.8559 0.56115-10 1.5938v30.406c0 5.5228 4.4772 10 10 10s10-4.4772 10-10c0-5.523-4.477-10-10-10v-10c11.046 0 20 8.954 20 20s-8.954 20-20 20-20-8.954-20-20v-24.969c-7.31 5.865-12 14.868-12 24.969 0 17.673 14.327 32 32 32s32-14.327 32-32-14.327-32-32-32z"/>
  <path id="path3973" style="color:#000000;fill:url(#linearGradient3977)" d="m88 56a32 32 0 1 1 -64 0 32 32 0 1 1 64 0z" transform="matrix(0,-1,1,0,-108,104)"/>
  <path id="path3975" style="color:#000000;fill:#fff" d="m-72 8v40c0 11.046 8.9543 20 20 20s20-8.9543 20-20-8.9543-20-20-20v10c5.5228 0 10 4.4772 10 10s-4.4772 10-10 10-10-4.4772-10-10v-40h-10z"/>
  <path id="path3982" style="opacity:.7;color:#000000;fill:#fff" d="m48 28v1c10.878 0 19.735 8.6854 20 19.5 0.0041-0.16622 0-0.3328 0-0.5 0-11.046-8.954-20-20-20zm-10 20v1c0 5.5228 4.4772 10 10 10s10-4.4772 10-10c0-0.16738-0.02312-0.33464-0.03125-0.5-0.26 5.291-4.614 9.5-9.969 9.5-5.523 0-10-4.477-10-10zm42 0.5c-0.267 17.443-14.494 31.5-32 31.5-17.465 0-31.668-13.99-32-31.375-0.0015 0.12578 0 0.24888 0 0.375 0 17.673 14.327 32 32 32s32-14.327 32-32c0-0.16667 0.0025-0.33394 0-0.5z"/>
  <path id="path3991" style="opacity:.3;color:#000000" d="m48 15c-3.4896 0-6.8559 0.56115-10 1.5938v1c3.144-1.033 6.51-1.594 10-1.594 17.506 0 31.733 14.057 32 31.5 0.003-0.166 0-0.333 0-0.5 0-17.673-14.327-32-32-32zm-20 7.031c-7.31 5.865-12 14.868-12 24.969 0 0.20834-0.004 0.41761 0 0.625 0.11533-9.9477 4.781-18.802 12-24.594v-1zm20 14.969v1c5.3555 0 9.7087 4.209 9.9688 9.5 0.008-0.165 0.031-0.333 0.031-0.5 0-5.523-4.477-10-10-10zm-20 10v1c0 11.046 8.9543 20 20 20s20-8.9543 20-20c0-0.1672 0.0041-0.33378 0-0.5-0.265 10.815-9.122 19.5-20 19.5-11.046 0-20-8.954-20-20z"/>
  <path id="path4000" style="opacity:.3;color:#000000" d="m48 16c-3.4896 0-6.8559 0.56115-10 1.5938v1c3.144-1.033 6.51-1.594 10-1.594 17.506 0 31.733 14.057 32 31.5 0.003-0.166 0-0.333 0-0.5 0-17.673-14.327-32-32-32zm-20 7.031c-7.31 5.865-12 14.868-12 24.969 0 0.20834-0.004 0.41761 0 0.625 0.11533-9.9477 4.781-18.802 12-24.594v-1zm20 14.969v1c5.3555 0 9.7087 4.209 9.9688 9.5 0.008-0.165 0.031-0.333 0.031-0.5 0-5.523-4.477-10-10-10zm-20 10v1c0 11.046 8.9543 20 20 20s20-8.9543 20-20c0-0.1672 0.0041-0.33378 0-0.5-0.265 10.815-9.122 19.5-20 19.5-11.046 0-20-8.954-20-20z"/>
  <path id="path4009" style="opacity:0.12;color:#000000" d="m48 16c-3.4896 0-6.8559 0.56115-10 1.5938v30.406c0 5.5228 4.4772 10 10 10s10-4.4772 10-10c0-5.523-4.477-10-10-10v-10c11.046 0 20 8.954 20 20s-8.954 20-20 20-20-8.954-20-20v-24.969c-7.31 5.865-12 14.868-12 24.969 0 17.673 14.327 32 32 32s32-14.327 32-32-14.327-32-32-32zm0 1.0625c17.101 0 30.938 13.837 30.938 30.938s-13.837 30.938-30.938 30.938-30.938-13.837-30.938-30.938c0-8.8981 3.8664-16.794 9.875-22.438v22.438c0.001 11.618 9.445 21.062 21.063 21.062s21.062-9.444 21.062-21.062-9.444-21.062-21.062-21.062a1.0584 1.0584 0 0 0 -1.062 1.062v10a1.0584 1.0584 0 0 0 1.062 1.062c4.9509 0 8.9375 3.9866 8.9375 8.9375s-3.9866 8.9375-8.9375 8.9375-8.9375-3.9866-8.9375-8.9375v-29.594c2.836-0.856 5.822-1.344 8.938-1.344z"/>
 </g>
 <g id="layer5" style="display:none">
  <rect id="rect3171" style="opacity:.1;filter:url(#filter3794);stroke:#fff;stroke-linecap:round;stroke-width:.5;fill:url(#linearGradient3613)" clip-path="url(#clipPath3613)" rx="12" ry="12" height="66" width="66" y="15" x="15"/>
 </g>
</svg>
