<?xml version="1.0" encoding="UTF-8" standalone="no"?>
<!-- Created with Inkscape (http://www.inkscape.org/) -->
<svg id="svg2408" xmlns:rdf="http://www.w3.org/1999/02/22-rdf-syntax-ns#" xmlns="http://www.w3.org/2000/svg" height="96" width="96" version="1.0" xmlns:cc="http://creativecommons.org/ns#" xmlns:xlink="http://www.w3.org/1999/xlink" xmlns:dc="http://purl.org/dc/elements/1.1/">
 <defs id="defs2410">
  <linearGradient id="ButtonShadow" y2="7.0165" gradientUnits="userSpaceOnUse" x2="45.448" gradientTransform="scale(1.0059 .99417)" y1="92.54" x1="45.448">
   <stop id="stop3750" offset="0"/>
   <stop id="stop3752" style="stop-opacity:.58824" offset="1"/>
  </linearGradient>
  <linearGradient id="linearGradient3737">
   <stop id="stop3739" style="stop-color:#fff" offset="0"/>
   <stop id="stop3741" style="stop-color:#fff;stop-opacity:0" offset="1"/>
  </linearGradient>
  <filter id="filter3174" color-interpolation-filters="sRGB">
   <feGaussianBlur id="feGaussianBlur3176" stdDeviation="1.71"/>
  </filter>
  <linearGradient id="ButtonShadow-0" y2="7.0165" gradientUnits="userSpaceOnUse" x2="45.448" gradientTransform="matrix(1.0059 0 0 .99417 100 0)" y1="92.54" x1="45.448">
   <stop id="stop3750-8" offset="0"/>
   <stop id="stop3752-5" style="stop-opacity:.58824" offset="1"/>
  </linearGradient>
  <linearGradient id="linearGradient3780" y2="90.239" xlink:href="#ButtonShadow-0" gradientUnits="userSpaceOnUse" x2="32.251" gradientTransform="matrix(1.0238 0 0 1.0119 -1.1429 -98.071)" y1="6.1317" x1="32.251"/>
  <linearGradient id="linearGradient3721" y2="90.239" xlink:href="#ButtonShadow-0" gradientUnits="userSpaceOnUse" x2="32.251" gradientTransform="translate(0,-97)" y1="6.1317" x1="32.251"/>
  <filter id="filter4349">
   <feGaussianBlur id="feGaussianBlur4351" stdDeviation="1.8587318"/>
  </filter>
  <linearGradient id="linearGradient6084" y2="10.294" gradientUnits="userSpaceOnUse" x2="41.879" y1="84.817" x1="41.879">
   <stop id="stop4197" style="stop-color:#7d2003" offset="0"/>
   <stop id="stop4199" style="stop-color:#da2e00" offset="1"/>
  </linearGradient>
  <radialGradient id="radialGradient6088" xlink:href="#linearGradient3737" gradientUnits="userSpaceOnUse" cy="90.172" cx="48" gradientTransform="matrix(1.1573 0 0 .99591 -7.551 .19713)" r="42"/>
  <linearGradient id="linearGradient6091" y2="63.893" xlink:href="#linearGradient3737" gradientUnits="userSpaceOnUse" x2="36.357" y1="6" x1="36.357"/>
  <linearGradient id="linearGradient6094" y2="5.9877" gradientUnits="userSpaceOnUse" x2="48" y1="90" x1="48">
   <stop id="stop3932" style="stop-color:#322101" offset="0"/>
   <stop id="stop3934" style="stop-color:#845300" offset="1"/>
  </linearGradient>
 </defs>
 <metadata id="metadata2413">
  <rdf:RDF>
   <cc:Work rdf:about="">
    <dc:format>image/svg+xml</dc:format>
    <dc:type rdf:resource="http://purl.org/dc/dcmitype/StillImage"/>
    <dc:title/>
   </cc:Work>
  </rdf:RDF>
 </metadata>
 <g id="layer2" style="display:none">
  <rect id="rect3745" style="opacity:.9;filter:url(#filter3174);fill:url(#ButtonShadow)" rx="6" ry="6" height="85" width="86" y="7" x="5"/>
 </g>
 <g id="layer3">
  <path id="path3786" style="opacity:0.08;fill:url(#linearGradient3780)" d="m12-95.031c-5.5111 0-10.031 4.5202-10.031 10.031v71c0 5.5111 4.5202 10.031 10.031 10.031h72c5.5111 0 10.031-4.5202 10.031-10.031v-71c0-5.5111-4.5202-10.031-10.031-10.031h-72z" transform="scale(1,-1)"/>
  <path id="path3778" style="opacity:.1;fill:url(#linearGradient3780)" d="m12-94.031c-4.9716 0-9.0312 4.0596-9.0312 9.0312v71c0 4.9716 4.0596 9.0312 9.0312 9.0312h72c4.9716 0 9.0312-4.0596 9.0312-9.0312v-71c0-4.9716-4.0596-9.0312-9.0312-9.0312h-72z" transform="scale(1,-1)"/>
  <path id="path3770" style="opacity:.2;fill:url(#linearGradient3780)" d="m12-93c-4.4091 0-8 3.5909-8 8v71c0 4.4091 3.5909 8 8 8h72c4.4091 0 8-3.5909 8-8v-71c0-4.4091-3.5909-8-8-8h-72z" transform="scale(1,-1)"/>
  <rect id="rect3723" style="opacity:.3;fill:url(#linearGradient3780)" transform="scale(1,-1)" rx="7" ry="7" height="85" width="86" y="-92" x="5"/>
  <rect id="rect3716" style="opacity:.45;fill:url(#linearGradient3721)" transform="scale(1,-1)" rx="6" ry="6" height="84" width="84" y="-91" x="6"/>
 </g>
 <rect id="rect2419" style="fill:url(#linearGradient6094)" rx="6" ry="6" height="84" width="84" y="6" x="6"/>
 <path id="rect3728" d="m12 6c-3.324 0-6 2.676-6 6v2 68 2c0 0.33472 0.04135 0.6507 0.09375 0.96875 0.0487 0.2956 0.09704 0.59692 0.1875 0.875 0.00988 0.03038 0.020892 0.0636 0.03125 0.09375 0.098865 0.28777 0.23488 0.54745 0.375 0.8125 0.14459 0.27351 0.31562 0.53562 0.5 0.78125 0.18438 0.24564 0.37378 0.47347 0.59375 0.6875 0.43995 0.42806 0.94291 0.81453 1.5 1.0938 0.27854 0.13961 0.57347 0.24695 0.875 0.34375-0.2562-0.10022-0.48671-0.23627-0.71875-0.375-0.00741-0.0044-0.023866 0.0045-0.03125 0-0.031933-0.0193-0.062293-0.04251-0.09375-0.0625-0.1204-0.0767-0.23102-0.16351-0.34375-0.25-0.10617-0.0808-0.21328-0.16111-0.3125-0.25-0.1778-0.162-0.3473-0.346-0.4999-0.531-0.1075-0.131-0.2183-0.266-0.3124-0.407-0.0251-0.038-0.0385-0.086-0.0626-0.125-0.0647-0.103-0.1302-0.204-0.1874-0.312-0.1011-0.195-0.2057-0.416-0.2813-0.625-0.008-0.022-0.0236-0.041-0.0313-0.063-0.0318-0.092-0.0358-0.187-0.0624-0.281-0.0304-0.107-0.0704-0.203-0.0938-0.313-0.0729-0.341-0.125-0.698-0.125-1.062v-2-68-2c0-2.782 2.2182-5 5-5h2 68 2c2.7818 0 5 2.2182 5 5v2 68 2c0 0.3643-0.05212 0.72099-0.125 1.0625-0.04415 0.20689-0.08838 0.39766-0.15625 0.59375-0.0077 0.02195-0.0233 0.04069-0.03125 0.0625-0.06274 0.17374-0.13838 0.36745-0.21875 0.53125-0.04158 0.0828-0.07904 0.16995-0.125 0.25-0.0546 0.09721-0.12677 0.18835-0.1875 0.28125-0.09411 0.14096-0.20492 0.276-0.3125 0.40625-0.14317 0.17445-0.30314 0.347-0.46875 0.5-0.01117 0.0102-0.01998 0.02115-0.03125 0.03125-0.13839 0.12556-0.28509 0.23444-0.4375 0.34375-0.10257 0.07315-0.20432 0.15336-0.3125 0.21875-0.0074 0.0045-0.02384-0.0044-0.03125 0-0.23204 0.13873-0.46255 0.27478-0.71875 0.375 0.30153-0.0968 0.59646-0.20414 0.875-0.34375 0.55709-0.27922 1.0601-0.66569 1.5-1.0938 0.21997-0.21403 0.40937-0.44186 0.59375-0.6875s0.35541-0.50774 0.5-0.78125c0.14012-0.26505 0.27614-0.52473 0.375-0.8125 0.01041-0.03078 0.02133-0.06274 0.03125-0.09375 0.09046-0.27808 0.1388-0.5794 0.1875-0.875 0.053-0.318 0.094-0.634 0.094-0.969v-2-68-2c0-3.324-2.676-6-6-6h-72z" style="opacity:.35;fill:url(#linearGradient6091)"/>
 <path id="path3615" d="m12 90c-3.324 0-6-2.676-6-6v-2-68-2c0-0.33472 0.04135-0.6507 0.09375-0.96875 0.0487-0.2956 0.09704-0.59692 0.1875-0.875 0.0099-0.03 0.0209-0.063 0.0313-0.094 0.0989-0.2873 0.2349-0.547 0.375-0.812 0.1446-0.2735 0.3156-0.5356 0.5-0.7812 0.1844-0.2457 0.3738-0.4735 0.5937-0.6876 0.44-0.428 0.943-0.8145 1.5-1.0937 0.2786-0.1396 0.5735-0.2469 0.8748-0.3437-0.256 0.1002-0.4865 0.2362-0.7185 0.375-0.00741 0.0044-0.023866-0.0045-0.03125 0-0.031933 0.0193-0.062293 0.04251-0.09375 0.0625-0.1204 0.0767-0.23102 0.16351-0.34375 0.25-0.10617 0.0808-0.21328 0.16111-0.3125 0.25-0.1779 0.1614-0.3474 0.3453-0.5 0.5312-0.1075 0.1303-0.2183 0.2653-0.3124 0.4063-0.0251 0.0383-0.0385 0.0858-0.0626 0.125-0.0647 0.103-0.1302 0.2045-0.1874 0.3124-0.1011 0.1948-0.2057 0.4158-0.2813 0.625-0.008 0.0219-0.0236 0.0406-0.0313 0.0626-0.0318 0.0919-0.0358 0.1868-0.0624 0.2812-0.0304 0.1066-0.0704 0.203-0.0938 0.3125-0.0729 0.3415-0.125 0.6985-0.125 1.0625v2 68 2c0 2.7818 2.2182 5 5 5h2 68 2c2.7818 0 5-2.2182 5-5v-2-68-2c0-0.364-0.052-0.721-0.125-1.0625-0.044-0.2069-0.088-0.3977-0.156-0.5937-0.008-0.022-0.024-0.0407-0.031-0.0626-0.063-0.1737-0.139-0.3674-0.219-0.5312-0.042-0.0828-0.079-0.17-0.125-0.25-0.055-0.0972-0.127-0.1884-0.188-0.2812-0.094-0.141-0.205-0.276-0.312-0.4063-0.143-0.1745-0.303-0.347-0.469-0.5-0.011-0.0102-0.02-0.0211-0.031-0.0313-0.139-0.1255-0.285-0.2344-0.438-0.3437-0.102-0.0731-0.204-0.1534-0.312-0.2187-0.0074-0.0045-0.02384 0.0044-0.03125 0-0.23204-0.13873-0.46255-0.27478-0.71875-0.375 0.30153 0.0968 0.59646 0.20414 0.875 0.34375 0.55709 0.27922 1.0601 0.66569 1.5 1.0938 0.21997 0.21403 0.40937 0.44186 0.59375 0.6875s0.35541 0.50774 0.5 0.78125c0.14012 0.26505 0.27614 0.52473 0.375 0.8125 0.01041 0.03078 0.02133 0.06274 0.03125 0.09375 0.09046 0.27808 0.1388 0.5794 0.1875 0.875 0.053 0.318 0.094 0.634 0.094 0.969v2 68 2c0 3.324-2.676 6-6 6h-72z" style="opacity:.2;fill:url(#radialGradient6088)"/>
 <path id="path3928" style="opacity:.2;stroke:#000;stroke-width:2" d="m28.25 10.75c-2.9982-0.12379-5.5246 1.7792-11 1.8125-6.2575 0.03807-4.9375 7.0313-4.9375 7.0312 0 0-0.37925 5.3012 0 9.0938 0.37925 3.7925 0.97513 7.0115 0.40625 11.562-0.56888 4.551-0.39775 11.379-1.1562 13.844-0.7585 2.4651-2.0838 4.5549-0.1875 10.812 1.8963 6.2576 0.94175 10.818 0.5625 13.094-0.37925 2.2755-0.74001 5.8686 1.1562 6.4375 1.8963 0.56888 6.047-2.2691 10.219-0.5625 4.1718 1.7066 5.7011 0.56037 10.062 0.75 4.3614 0.18963 9.4909-0.9375 13.094-0.9375 3.6029 0 9.0931 1.3104 11.938 1.5 2.8444 0.18963 7.5279 0.85013 13.406 0.28125 5.88-0.569 8.957-1.594 10.095-1.594 6.185 2.011 1.767-11.302 2.094-15.937 0.18963-3.7925 0.63753-8.6014 0.1875-12.906-0.5139-4.9158-1.1335-7.2032-0.375-11.375s2.0938-9.8665 2.0938-10.625-2.0938-8.3261-2.0938-12.688c0-4.3614 0.57802-9.2919-3.5938-8.3438-4.1718 0.94813-4.5655 1.9062-9.875 1.9062s-8.7117-3.2379-12.125-1.5312c-3.4133 1.7066-7.1173-2.3185-11.75-1.3125-3.1464 0.68326-11.222 1.2488-16.875-0.125-0.458-0.111-0.916-0.169-1.344-0.187z"/>
 <path id="rect3911" d="m28.25 10.75c-2.9982-0.12379-5.5246 1.7792-11 1.8125-6.2575 0.03807-4.9375 7.0313-4.9375 7.0312 0 0-0.37925 5.3012 0 9.0938 0.37925 3.7925 0.97513 7.0115 0.40625 11.562-0.56888 4.551-0.39775 11.379-1.1562 13.844-0.7585 2.4651-2.0838 4.5549-0.1875 10.812 1.8963 6.2576 0.94175 10.818 0.5625 13.094-0.37925 2.2755-0.74001 5.8686 1.1562 6.4375 1.8963 0.56888 6.047-2.2691 10.219-0.5625 4.1718 1.7066 5.7011 0.56037 10.062 0.75 4.3614 0.18963 9.4909-0.9375 13.094-0.9375 3.6029 0 9.0931 1.3104 11.938 1.5 2.8444 0.18963 7.5279 0.85013 13.406 0.28125 5.88-0.569 8.957-1.594 10.095-1.594 6.185 2.011 1.767-11.302 2.094-15.937 0.18963-3.7925 0.63753-8.6014 0.1875-12.906-0.5139-4.9158-1.1335-7.2032-0.375-11.375s2.0938-9.8665 2.0938-10.625-2.0938-8.3261-2.0938-12.688c0-4.3614 0.57802-9.2919-3.5938-8.3438-4.1718 0.94813-4.5655 1.9062-9.875 1.9062s-8.7117-3.2379-12.125-1.5312c-3.4133 1.7066-7.1173-2.3185-11.75-1.3125-3.1464 0.68326-11.222 1.2488-16.875-0.125-0.458-0.111-0.916-0.169-1.344-0.187z" style="fill:url(#linearGradient6084)"/>
 <path id="path4275" d="m20.174 66.903c28.137-21.061 13.516 1.181 15.152 8.85 10.147-16.688-11.157-14.098-15.822-22.258 18.631 8.256 19.7 15.404 42.505 21.722l-8.984-13.409s16.224 8.1792 16.627 8.8497c0.40226 0.67043 4.8271 7.3747 4.8271 7.3747s0.53634-32.717 0.53634-33.655c0-0.9386-12.604 6.302-12.47 8.0451 0.13408 1.7431-3.084 1.2068-3.084 1.2068l-28.426-0.805-10.727-9.922 26.952 6.034 20.515-10.325 9.117-14.615-23.867 14.213-37.141 4.559 8.581-12.336c-0.66797-5.292-3.1167-11.969 8.5815-7.6429l9.9223 2.5476-11.129 8.8497 17.297-0.13408 13.409-13.14" style="stroke-linejoin:round;filter:url(#filter4349);stroke:#eed8c4;stroke-linecap:round;stroke-width:8;fill:none"/>
 <g id="g4029" transform="matrix(.099626 -.45067 .45067 .099626 59.528 79.395)">
  <path id="path4031" style="opacity:.4;stroke-linejoin:round;stroke:#000;stroke-linecap:round;stroke-width:4.3332" d="m41.528-27.297c0 3.6432-1.8253 6.5966-4.077 6.5966-2.2516 0-4.077-2.9534-4.077-6.5966s1.8253-6.5966 4.077-6.5966c2.2516 0 4.077 2.9534 4.077 6.5966z"/>
  <path id="path4033" style="fill:#4e9a06" d="m41.528-27.297c0 3.6432-1.8253 6.5966-4.077 6.5966-2.2516 0-4.077-2.9534-4.077-6.5966s1.8253-6.5966 4.077-6.5966c2.2516 0 4.077 2.9534 4.077 6.5966z"/>
  <path id="path4035" style="opacity:.60091;fill:#fff" d="m41.528-27.297c0 3.6432-1.8253 6.5966-4.077 6.5966-2.2516 0-4.077-2.9534-4.077-6.5966s1.8253-6.5966 4.077-6.5966c2.2516 0 4.077 2.9534 4.077 6.5966z" transform="matrix(.42276 0 0 .42276 23.007 -16.87)"/>
 </g>
 <g id="g6379">
  <path id="use5719" d="m16.657 22.257 1.0025-0.47108" style="stroke:#366a04;stroke-width:3;fill:none"/>
  <path id="use5721" d="m63.141 34.552 1.0025-0.47108" style="stroke:#366a04;stroke-width:3;fill:none"/>
  <path id="use5723" d="m63.235 28.349 0.97456 2.5087" style="stroke:#366a04;stroke-width:3;fill:none"/>
  <path id="use5725" d="m59.6 26.622-1.8677-2.7104" style="stroke:#366a04;stroke-width:3;fill:none"/>
  <path id="use5727" style="stroke:#366a04;stroke-width:3;fill:none" d="m56.075 36.198 3.356-1.814"/>
  <path id="use5729" d="m65.674 30.118 0.47817-2.9863" style="stroke:#366a04;stroke-width:3;fill:none"/>
  <path id="use5731" d="m64.66 37.237-1.8677-2.7104" style="stroke:#366a04;stroke-width:3;fill:none"/>
  <path id="use5733" d="m34.383 70.499 1.0025-0.47108" style="stroke:#366a04;stroke-width:3;fill:none"/>
  <path id="use5735" d="m47.929 68.761 0.47817-2.9863" style="stroke:#366a04;stroke-width:3;fill:none"/>
  <path id="use5737" d="m39.319 68.746 0.97456 2.5087" style="stroke:#366a04;stroke-width:3;fill:none"/>
  <path id="use5739" d="m73.814 45.099 0.97456 2.5087" style="stroke:#366a04;stroke-width:3;fill:none"/>
  <path id="use5741" style="stroke:#366a04;stroke-width:3;fill:none" d="m34.465 40.033-0.868-1.484"/>
  <path id="use5743" d="m30.173 37.188 0.97456 2.5087" style="stroke:#366a04;stroke-width:3;fill:none"/>
  <path id="use5745" d="m30.225 34.565 1.0025-0.47108" style="stroke:#366a04;stroke-width:3;fill:none"/>
  <path id="use5747" style="stroke:#366a04;stroke-width:3;fill:none" d="m33.091 30.473-0.869-1.485"/>
  <path id="use5761" style="stroke:#366a04;stroke-width:3;fill:none" d="m56.062 54.165-0.869-1.484"/>
  <path id="use5763" d="m78.561 66.069-1.8677-2.7104" style="stroke:#366a04;stroke-width:3;fill:none"/>
  <path id="use5765" d="m53.05 76.314 0.47817-2.9863" style="stroke:#366a04;stroke-width:3;fill:none"/>
  <path id="use5767" d="m50.25 78.344 0.47817-2.9863" style="stroke:#366a04;stroke-width:3;fill:none"/>
  <path id="use5769" d="m53.99 67.954 1.0025-0.47108" style="stroke:#366a04;stroke-width:3;fill:none"/>
  <path id="use5771" d="m58.921 60.599-1.8677-2.7104" style="stroke:#366a04;stroke-width:3;fill:none"/>
  <path id="use5789" style="stroke:#366a04;stroke-width:3;fill:none" d="m23.416 57.011-0.869-1.485"/>
  <path id="use5791" style="stroke:#366a04;stroke-width:3;fill:none" d="m22.383 76.754-0.869-1.484"/>
  <path id="use5793" d="m15.991 74.674-1.8677-2.7104" style="stroke:#366a04;stroke-width:3;fill:none"/>
  <path id="use5795" d="m17.24 67.007-1.8677-2.7104" style="stroke:#366a04;stroke-width:3;fill:none"/>
  <path id="use5797" d="m19.491 56.009 0.47817-2.9863" style="stroke:#366a04;stroke-width:3;fill:none"/>
  <path id="use5799" style="stroke:#366a04;stroke-width:3;fill:none" d="m26.953 60.346 3.356-1.815"/>
  <path id="use5801" d="m32.47 57.459 1.0025-0.47108" style="stroke:#366a04;stroke-width:3;fill:none"/>
  <path id="use5811" d="m74.342 57.38-1.8677-2.7104" style="stroke:#366a04;stroke-width:3;fill:none"/>
  <path id="use5813" style="stroke:#366a04;stroke-width:3;fill:none" d="m64.351 47.575-0.869-1.484"/>
  <path id="use5815" d="m61.106 50.867 0.47817-2.9863" style="stroke:#366a04;stroke-width:3;fill:none"/>
  <path id="use5823" d="m41.786 22.795 1.0025-0.47108" style="stroke:#366a04;stroke-width:3;fill:none"/>
  <path id="use5825" style="stroke:#366a04;stroke-width:3;fill:none" d="m39.539 26.776 3.3562-1.8145"/>
  <path id="use5827" d="m48.802 43.471 1.0025-0.47108" style="stroke:#366a04;stroke-width:3;fill:none"/>
  <path id="use5829" d="m45.074 40.282 0.97456 2.5087" style="stroke:#366a04;stroke-width:3;fill:none"/>
  <path id="use5886" d="m29.454 29.948 0.47817-2.9863" style="stroke:#366a04;stroke-width:3;fill:none"/>
  <path id="use5888" style="stroke:#366a04;stroke-width:3;fill:none" d="m35.345 25.774-0.868-1.484"/>
  <path id="use5890" d="m25.616 28.394 0.478-2.987" style="stroke:#366a04;stroke-width:3;fill:none"/>
  <path id="use5892" d="m29.821 29.391-1.8677-2.7104" style="stroke:#366a04;stroke-width:3;fill:none"/>
  <path id="use5894" d="m37.272 27.784 1.0025-0.47108" style="stroke:#366a04;stroke-width:3;fill:none"/>
  <path id="use5896" style="stroke:#366a04;stroke-width:3;fill:none" d="m26.758 33.318 3.357-1.814"/>
  <path id="use5898" style="stroke:#366a04;stroke-width:3;fill:none" d="m21.058 39.211 3.356-1.814"/>
  <path id="use5900" d="m36.107 61.977 1.0025-0.47108" style="stroke:#366a04;stroke-width:3;fill:none"/>
  <path id="use5902" d="m45.709 59.285-1.8677-2.7104" style="stroke:#366a04;stroke-width:3;fill:none"/>
  <path id="use5904" style="stroke:#366a04;stroke-width:3;fill:none" d="m43.742 78.064 3.356-1.814"/>
  <path id="use5906" d="m54.818 47.576-1.8677-2.7104" style="stroke:#366a04;stroke-width:3;fill:none"/>
  <path id="use5908" d="m42.891 41.703-1.8677-2.7104" style="stroke:#366a04;stroke-width:3;fill:none"/>
  <path id="use5910" style="stroke:#366a04;stroke-width:3;fill:none" d="m31.031 46.937 3.356-1.815"/>
  <path id="use5912" style="stroke:#366a04;stroke-width:3;fill:none" d="m44.086 31.826 3.356-1.815"/>
  <path id="use5916" style="stroke:#366a04;stroke-width:3;fill:none" d="m66.375 60.1-0.869-1.484"/>
  <path id="use5918" style="stroke:#366a04;stroke-width:3;fill:none" d="m63.544 55.555 3.356-1.814"/>
  <path id="use5920" d="m68.856 56.379 0.97456 2.5087" style="stroke:#366a04;stroke-width:3;fill:none"/>
  <path id="use5922" d="m69.795 54.738 1.0025-0.47108" style="stroke:#366a04;stroke-width:3;fill:none"/>
  <path id="use5924" d="m63.846 67.614 1.0025-0.47108" style="stroke:#366a04;stroke-width:3;fill:none"/>
  <path id="use5926" d="m62.094 73.776 1.0025-0.47108" style="stroke:#366a04;stroke-width:3;fill:none"/>
  <path id="use5928" d="m65.482 76.442 0.97456 2.5087" style="stroke:#366a04;stroke-width:3;fill:none"/>
  <path id="use5930" style="stroke:#366a04;stroke-width:3;fill:none" d="m73.016 74.672-0.869-1.485"/>
  <path id="use5932" style="stroke:#366a04;stroke-width:3;fill:none" d="m32.851 17.756 3.3562-1.8145"/>
  <path id="use5934" style="stroke:#366a04;stroke-width:3;fill:none" d="m22.414 52.902 3.356-1.814"/>
  <path id="use5936" d="m21.018 47.1 0.97456 2.5087" style="stroke:#366a04;stroke-width:3;fill:none"/>
  <path id="use5938" d="m26.718 56.748 1.0025-0.47108" style="stroke:#366a04;stroke-width:3;fill:none"/>
 </g>
 <g id="g5831">
  <g id="g3989" transform="matrix(.46864 -.39315 .39315 .46864 63.507 52.379)">
   <path id="path3991" style="opacity:.4;stroke-linejoin:round;stroke:#000;stroke-linecap:round;stroke-width:3.2695" d="m41.528-27.297c0 3.6432-1.8253 6.5966-4.077 6.5966-2.2516 0-4.077-2.9534-4.077-6.5966s1.8253-6.5966 4.077-6.5966c2.2516 0 4.077 2.9534 4.077 6.5966z"/>
   <path id="path3993" style="fill:#4e9a06" d="m41.528-27.297c0 3.6432-1.8253 6.5966-4.077 6.5966-2.2516 0-4.077-2.9534-4.077-6.5966s1.8253-6.5966 4.077-6.5966c2.2516 0 4.077 2.9534 4.077 6.5966z"/>
   <path id="path3995" style="opacity:.60091;fill:#fff" d="m41.528-27.297c0 3.6432-1.8253 6.5966-4.077 6.5966-2.2516 0-4.077-2.9534-4.077-6.5966s1.8253-6.5966 4.077-6.5966c2.2516 0 4.077 2.9534 4.077 6.5966z" transform="matrix(.42276 0 0 .42276 23.007 -16.87)"/>
  </g>
  <g id="g4005" transform="matrix(.49888 .046867 -.046867 .49888 1.9444 59.46)">
   <path id="path4007" style="opacity:.4;stroke-linejoin:round;stroke:#000;stroke-linecap:round;stroke-width:3.9914" d="m41.528-27.297c0 3.6432-1.8253 6.5966-4.077 6.5966-2.2516 0-4.077-2.9534-4.077-6.5966s1.8253-6.5966 4.077-6.5966c2.2516 0 4.077 2.9534 4.077 6.5966z"/>
   <path id="path4009" style="fill:#4e9a06" d="m41.528-27.297c0 3.6432-1.8253 6.5966-4.077 6.5966-2.2516 0-4.077-2.9534-4.077-6.5966s1.8253-6.5966 4.077-6.5966c2.2516 0 4.077 2.9534 4.077 6.5966z"/>
   <path id="path4011" style="opacity:.60091;fill:#fff" d="m41.528-27.297c0 3.6432-1.8253 6.5966-4.077 6.5966-2.2516 0-4.077-2.9534-4.077-6.5966s1.8253-6.5966 4.077-6.5966c2.2516 0 4.077 2.9534 4.077 6.5966z" transform="matrix(.42276 0 0 .42276 23.007 -16.87)"/>
  </g>
  <g id="g4013" transform="matrix(-.52530 .049348 .049348 .52530 95.503 86.907)">
   <path id="path4015" style="opacity:.4;stroke-linejoin:round;stroke:#000;stroke-linecap:round;stroke-width:3.7907" d="m41.528-27.297c0 3.6432-1.8253 6.5966-4.077 6.5966-2.2516 0-4.077-2.9534-4.077-6.5966s1.8253-6.5966 4.077-6.5966c2.2516 0 4.077 2.9534 4.077 6.5966z"/>
   <path id="path4017" style="fill:#4e9a06" d="m41.528-27.297c0 3.6432-1.8253 6.5966-4.077 6.5966-2.2516 0-4.077-2.9534-4.077-6.5966s1.8253-6.5966 4.077-6.5966c2.2516 0 4.077 2.9534 4.077 6.5966z"/>
   <path id="path4019" style="opacity:.60091;fill:#fff" d="m41.528-27.297c0 3.6432-1.8253 6.5966-4.077 6.5966-2.2516 0-4.077-2.9534-4.077-6.5966s1.8253-6.5966 4.077-6.5966c2.2516 0 4.077 2.9534 4.077 6.5966z" transform="matrix(.42276 0 0 .42276 23.007 -16.87)"/>
  </g>
  <g id="g4021" transform="matrix(.11408 -.51603 .51603 .11408 33.63 99.607)">
   <path id="path4023" style="opacity:.4;stroke-linejoin:round;stroke:#000;stroke-linecap:round;stroke-width:3.7843" d="m41.528-27.297c0 3.6432-1.8253 6.5966-4.077 6.5966-2.2516 0-4.077-2.9534-4.077-6.5966s1.8253-6.5966 4.077-6.5966c2.2516 0 4.077 2.9534 4.077 6.5966z"/>
   <path id="path4025" style="fill:#4e9a06" d="m41.528-27.297c0 3.6432-1.8253 6.5966-4.077 6.5966-2.2516 0-4.077-2.9534-4.077-6.5966s1.8253-6.5966 4.077-6.5966c2.2516 0 4.077 2.9534 4.077 6.5966z"/>
   <path id="path4027" style="opacity:.60091;fill:#fff" d="m41.528-27.297c0 3.6432-1.8253 6.5966-4.077 6.5966-2.2516 0-4.077-2.9534-4.077-6.5966s1.8253-6.5966 4.077-6.5966c2.2516 0 4.077 2.9534 4.077 6.5966z" transform="matrix(.42276 0 0 .42276 23.007 -16.87)"/>
  </g>
  <g id="g4037" transform="matrix(-.39261 -.41026 -.41026 .39261 51.216 63.957)">
   <path id="path4039" style="opacity:.4;stroke-linejoin:round;stroke:#000;stroke-linecap:round;stroke-width:3.5221" d="m41.528-27.297c0 3.6432-1.8253 6.5966-4.077 6.5966-2.2516 0-4.077-2.9534-4.077-6.5966s1.8253-6.5966 4.077-6.5966c2.2516 0 4.077 2.9534 4.077 6.5966z"/>
   <path id="path4041" style="fill:#4e9a06" d="m41.528-27.297c0 3.6432-1.8253 6.5966-4.077 6.5966-2.2516 0-4.077-2.9534-4.077-6.5966s1.8253-6.5966 4.077-6.5966c2.2516 0 4.077 2.9534 4.077 6.5966z"/>
   <path id="path4043" style="opacity:.60091;fill:#fff" d="m41.528-27.297c0 3.6432-1.8253 6.5966-4.077 6.5966-2.2516 0-4.077-2.9534-4.077-6.5966s1.8253-6.5966 4.077-6.5966c2.2516 0 4.077 2.9534 4.077 6.5966z" transform="matrix(.42276 0 0 .42276 23.007 -16.87)"/>
  </g>
  <g id="g4169" transform="matrix(.51696 0 0 .51696 24.311 35.283)">
   <path id="path4171" style="opacity:.4;stroke-linejoin:round;stroke:#000;stroke-linecap:round;stroke-width:3.8687;fill:#be0000" d="m69.322-29.973c0 4.7764-3.8721 8.6485-8.6485 8.6485s-8.6485-3.8721-8.6485-8.6485 3.8721-8.6485 8.6485-8.6485 8.6485 3.8721 8.6485 8.6485z"/>
   <path id="path4173" style="fill:#be0000" d="m69.322-29.973c0 4.7764-3.8721 8.6485-8.6485 8.6485s-8.6485-3.8721-8.6485-8.6485 3.8721-8.6485 8.6485-8.6485 8.6485 3.8721 8.6485 8.6485z"/>
  </g>
  <g id="g4175" transform="matrix(.47619 0 0 .47619 24.987 89.447)">
   <path id="path4177" style="opacity:.4;stroke-linejoin:round;stroke:#000;stroke-linecap:round;stroke-width:4.2;fill:#be0000" d="m69.322-29.973c0 4.7764-3.8721 8.6485-8.6485 8.6485s-8.6485-3.8721-8.6485-8.6485 3.8721-8.6485 8.6485-8.6485 8.6485 3.8721 8.6485 8.6485z"/>
   <path id="path4179" style="fill:#be0000" d="m69.322-29.973c0 4.7764-3.8721 8.6485-8.6485 8.6485s-8.6485-3.8721-8.6485-8.6485 3.8721-8.6485 8.6485-8.6485 8.6485 3.8721 8.6485 8.6485z"/>
  </g>
  <g id="g4185" transform="matrix(.60031 0 0 .60031 33.484 78.238)">
   <path id="path4187" style="opacity:.4;stroke-linejoin:round;stroke:#000;stroke-linecap:round;stroke-width:3.3316;fill:#be0000" d="m69.322-29.973c0 4.7764-3.8721 8.6485-8.6485 8.6485s-8.6485-3.8721-8.6485-8.6485 3.8721-8.6485 8.6485-8.6485 8.6485 3.8721 8.6485 8.6485z"/>
   <path id="path4189" style="fill:#be0000" d="m69.322-29.973c0 4.7764-3.8721 8.6485-8.6485 8.6485s-8.6485-3.8721-8.6485-8.6485 3.8721-8.6485 8.6485-8.6485 8.6485 3.8721 8.6485 8.6485z"/>
  </g>
  <g id="g4207" transform="matrix(.46139 0 0 .46139 .17250 78.552)">
   <path id="path4209" style="opacity:.4;stroke-linejoin:round;stroke:#000;stroke-linecap:round;stroke-width:4.3347;fill:#be0000" d="m69.322-29.973c0 4.7764-3.8721 8.6485-8.6485 8.6485s-8.6485-3.8721-8.6485-8.6485 3.8721-8.6485 8.6485-8.6485 8.6485 3.8721 8.6485 8.6485z"/>
   <path id="path4211" style="fill:#be0000" d="m69.322-29.973c0 4.7764-3.8721 8.6485-8.6485 8.6485s-8.6485-3.8721-8.6485-8.6485 3.8721-8.6485 8.6485-8.6485 8.6485 3.8721 8.6485 8.6485z"/>
  </g>
  <g id="g4219" transform="matrix(.52530 .049348 -.049348 .52530 -.57332 34.614)">
   <path id="path4221" style="opacity:.4;stroke-linejoin:round;stroke:#000;stroke-linecap:round;stroke-width:3.7907" d="m41.528-27.297c0 3.6432-1.8253 6.5966-4.077 6.5966-2.2516 0-4.077-2.9534-4.077-6.5966s1.8253-6.5966 4.077-6.5966c2.2516 0 4.077 2.9534 4.077 6.5966z"/>
   <path id="path4223" style="fill:#4e9a06" d="m41.528-27.297c0 3.6432-1.8253 6.5966-4.077 6.5966-2.2516 0-4.077-2.9534-4.077-6.5966s1.8253-6.5966 4.077-6.5966c2.2516 0 4.077 2.9534 4.077 6.5966z"/>
   <path id="path4225" style="opacity:.60091;fill:#fff" d="m41.528-27.297c0 3.6432-1.8253 6.5966-4.077 6.5966-2.2516 0-4.077-2.9534-4.077-6.5966s1.8253-6.5966 4.077-6.5966c2.2516 0 4.077 2.9534 4.077 6.5966z" transform="matrix(.42276 0 0 .42276 23.007 -16.87)"/>
  </g>
  <g id="g4227" transform="matrix(.049348 -.52530 .52530 .049348 88.449 57.388)">
   <path id="path4229" style="opacity:.4;stroke-linejoin:round;stroke:#000;stroke-linecap:round;stroke-width:3.7907" d="m41.528-27.297c0 3.6432-1.8253 6.5966-4.077 6.5966-2.2516 0-4.077-2.9534-4.077-6.5966s1.8253-6.5966 4.077-6.5966c2.2516 0 4.077 2.9534 4.077 6.5966z"/>
   <path id="path4231" style="fill:#4e9a06" d="m41.528-27.297c0 3.6432-1.8253 6.5966-4.077 6.5966-2.2516 0-4.077-2.9534-4.077-6.5966s1.8253-6.5966 4.077-6.5966c2.2516 0 4.077 2.9534 4.077 6.5966z"/>
   <path id="path4233" style="opacity:.60091;fill:#fff" d="m41.528-27.297c0 3.6432-1.8253 6.5966-4.077 6.5966-2.2516 0-4.077-2.9534-4.077-6.5966s1.8253-6.5966 4.077-6.5966c2.2516 0 4.077 2.9534 4.077 6.5966z" transform="matrix(.42276 0 0 .42276 23.007 -16.87)"/>
  </g>
  <g id="g4235" transform="matrix(.52733 0 0 .52733 .58524 46.328)">
   <path id="path4237" style="opacity:.4;stroke-linejoin:round;stroke:#000;stroke-linecap:round;stroke-width:3.7927;fill:#be0000" d="m69.322-29.973c0 4.7764-3.8721 8.6485-8.6485 8.6485s-8.6485-3.8721-8.6485-8.6485 3.8721-8.6485 8.6485-8.6485 8.6485 3.8721 8.6485 8.6485z"/>
   <path id="path4239" style="fill:#be0000" d="m69.322-29.973c0 4.7764-3.8721 8.6485-8.6485 8.6485s-8.6485-3.8721-8.6485-8.6485 3.8721-8.6485 8.6485-8.6485 8.6485 3.8721 8.6485 8.6485z"/>
  </g>
  <g id="g4241" transform="matrix(.51696 0 0 .51696 31.215 59.733)">
   <path id="path4243" style="opacity:.4;stroke-linejoin:round;stroke:#000;stroke-linecap:round;stroke-width:3.8687;fill:#be0000" d="m69.322-29.973c0 4.7764-3.8721 8.6485-8.6485 8.6485s-8.6485-3.8721-8.6485-8.6485 3.8721-8.6485 8.6485-8.6485 8.6485 3.8721 8.6485 8.6485z"/>
   <path id="path4245" style="fill:#be0000" d="m69.322-29.973c0 4.7764-3.8721 8.6485-8.6485 8.6485s-8.6485-3.8721-8.6485-8.6485 3.8721-8.6485 8.6485-8.6485 8.6485 3.8721 8.6485 8.6485z"/>
  </g>
  <g id="g4247" transform="matrix(.51696 0 0 .51696 9.1659 66.339)">
   <path id="path4249" style="opacity:.4;stroke-linejoin:round;stroke:#000;stroke-linecap:round;stroke-width:3.8687;fill:#be0000" d="m69.322-29.973c0 4.7764-3.8721 8.6485-8.6485 8.6485s-8.6485-3.8721-8.6485-8.6485 3.8721-8.6485 8.6485-8.6485 8.6485 3.8721 8.6485 8.6485z"/>
   <path id="path4251" style="fill:#be0000" d="m69.322-29.973c0 4.7764-3.8721 8.6485-8.6485 8.6485s-8.6485-3.8721-8.6485-8.6485 3.8721-8.6485 8.6485-8.6485 8.6485 3.8721 8.6485 8.6485z"/>
  </g>
  <g id="g4253" transform="matrix(-.33286 -.34782 -.34782 .33286 42.375 98.43)">
   <path id="path4255" style="opacity:.4;stroke-linejoin:round;stroke:#000;stroke-linecap:round;stroke-width:4.1543" d="m41.528-27.297c0 3.6432-1.8253 6.5966-4.077 6.5966-2.2516 0-4.077-2.9534-4.077-6.5966s1.8253-6.5966 4.077-6.5966c2.2516 0 4.077 2.9534 4.077 6.5966z"/>
   <path id="path4257" style="fill:#4e9a06" d="m41.528-27.297c0 3.6432-1.8253 6.5966-4.077 6.5966-2.2516 0-4.077-2.9534-4.077-6.5966s1.8253-6.5966 4.077-6.5966c2.2516 0 4.077 2.9534 4.077 6.5966z"/>
   <path id="path4259" style="opacity:.60091;fill:#fff" d="m41.528-27.297c0 3.6432-1.8253 6.5966-4.077 6.5966-2.2516 0-4.077-2.9534-4.077-6.5966s1.8253-6.5966 4.077-6.5966c2.2516 0 4.077 2.9534 4.077 6.5966z" transform="matrix(.42276 0 0 .42276 23.007 -16.87)"/>
  </g>
 </g>
</svg>
