<?xml version="1.0" encoding="UTF-8" standalone="no"?>
<!-- Created with Inkscape (http://www.inkscape.org/) -->
<svg id="svg2408" xmlns:rdf="http://www.w3.org/1999/02/22-rdf-syntax-ns#" xmlns="http://www.w3.org/2000/svg" height="96" width="96" version="1.0" xmlns:cc="http://creativecommons.org/ns#" xmlns:xlink="http://www.w3.org/1999/xlink" xmlns:dc="http://purl.org/dc/elements/1.1/">
 <defs id="defs2410">
  <linearGradient id="ButtonShadow" y2="7.0165" gradientUnits="userSpaceOnUse" x2="45.448" gradientTransform="scale(1.0059 .99417)" y1="92.54" x1="45.448">
   <stop id="stop3750" offset="0"/>
   <stop id="stop3752" style="stop-opacity:.58824" offset="1"/>
  </linearGradient>
  <filter id="filter3174" color-interpolation-filters="sRGB">
   <feGaussianBlur id="feGaussianBlur3176" stdDeviation="1.71"/>
  </filter>
  <linearGradient id="linearGradient8478" y2="138.66" gradientUnits="userSpaceOnUse" x2="48" y1="20.221" x1="48">
   <stop id="stop3739-00" style="stop-color:#fff" offset="0"/>
   <stop id="stop3741-66" style="stop-color:#fff;stop-opacity:0" offset="1"/>
  </linearGradient>
  <filter id="filter3174-9" color-interpolation-filters="sRGB">
   <feGaussianBlur id="feGaussianBlur3176-8" stdDeviation="1.71"/>
  </filter>
  <filter id="filter3794-71" height="1.384" width="1.384" color-interpolation-filters="sRGB" y="-.192" x="-.192">
   <feGaussianBlur id="feGaussianBlur3796-90" stdDeviation="5.28"/>
  </filter>
  <clipPath id="clipPath3613-01">
   <rect id="rect3615-422" style="fill:#fff" rx="6" ry="6" height="84" width="84" y="6" x="6"/>
  </clipPath>
  <filter id="filter3174-28" color-interpolation-filters="sRGB">
   <feGaussianBlur id="feGaussianBlur3176-3" stdDeviation="1.71"/>
  </filter>
  <filter id="filter3174-1" color-interpolation-filters="sRGB">
   <feGaussianBlur id="feGaussianBlur3176-1" stdDeviation="1.71"/>
  </filter>
  <filter id="filter3174-0" color-interpolation-filters="sRGB">
   <feGaussianBlur id="feGaussianBlur3176-34" stdDeviation="1.71"/>
  </filter>
  <filter id="filter3174-0-6" color-interpolation-filters="sRGB">
   <feGaussianBlur id="feGaussianBlur3176-34-9" stdDeviation="1.71"/>
  </filter>
  <filter id="filter3174-1-0" color-interpolation-filters="sRGB">
   <feGaussianBlur id="feGaussianBlur3176-1-6" stdDeviation="1.71"/>
  </filter>
  <filter id="filter3174-28-9" color-interpolation-filters="sRGB">
   <feGaussianBlur id="feGaussianBlur3176-3-7" stdDeviation="1.71"/>
  </filter>
  <clipPath id="clipPath3613-01-0">
   <rect id="rect3615-422-5" style="fill:#fff" rx="6" ry="6" height="84" width="84" y="6" x="6"/>
  </clipPath>
  <filter id="filter3794-71-2" height="1.384" width="1.384" color-interpolation-filters="sRGB" y="-.192" x="-.192">
   <feGaussianBlur id="feGaussianBlur3796-90-1" stdDeviation="5.28"/>
  </filter>
  <filter id="filter3174-9-1" color-interpolation-filters="sRGB">
   <feGaussianBlur id="feGaussianBlur3176-8-6" stdDeviation="1.71"/>
  </filter>
  <filter id="filter3174-8" color-interpolation-filters="sRGB">
   <feGaussianBlur id="feGaussianBlur3176-95" stdDeviation="1.71"/>
  </filter>
  <filter id="filter3174-4" color-interpolation-filters="sRGB">
   <feGaussianBlur id="feGaussianBlur3176-0" stdDeviation="1.71"/>
  </filter>
  <radialGradient id="radialGradient3881" xlink:href="#linearGradient5800" gradientUnits="userSpaceOnUse" cy="25.375" cx="17.062" gradientTransform="matrix(1,0,0,1.2,0,-5.075)" r="2.8125"/>
  <radialGradient id="radialGradient3879" xlink:href="#linearGradient5155" gradientUnits="userSpaceOnUse" cy="51.275" cx="39.775" gradientTransform="matrix(1 0 0 1.0863 0 -4.4267)" r="24.572"/>
  <radialGradient id="radialGradient3877" xlink:href="#linearGradient5147" gradientUnits="userSpaceOnUse" cy="51.275" cx="39.775" gradientTransform="matrix(1 0 0 1.0863 0 -4.4267)" r="24.572"/>
  <radialGradient id="radialGradient3875" xlink:href="#linearGradient5794" gradientUnits="userSpaceOnUse" cy="51.275" cx="39.775" gradientTransform="matrix(1 0 0 1.0863 0 -4.4267)" r="24.572"/>
  <radialGradient id="radialGradient3829" gradientUnits="userSpaceOnUse" cy="51.275" cx="39.775" gradientTransform="matrix(1 0 0 1.0863 0 -4.4267)" r="24.572">
   <stop id="stop5133" style="stop-color:#54c8ff" offset="0"/>
   <stop id="stop5135" style="stop-color:#54c8ff;stop-opacity:0" offset="1"/>
  </radialGradient>
  <radialGradient id="radialGradient3827" gradientUnits="userSpaceOnUse" cy="90.172" cx="48" gradientTransform="matrix(1.1573 0 0 .99591 -7.1142 1.1794)" r="42">
   <stop id="stop3739-7" style="stop-color:#fff" offset="0"/>
   <stop id="stop3741-5" style="stop-color:#fff;stop-opacity:0" offset="1"/>
  </radialGradient>
  <linearGradient id="linearGradient3825" y2="63.893" gradientUnits="userSpaceOnUse" x2="36.357" gradientTransform="matrix(1.0021 0 0 1 -.19460 .97250)" y1="6" x1="36.357">
   <stop id="stop3739-3" style="stop-color:#fff" offset="0"/>
   <stop id="stop3741-8" style="stop-color:#fff;stop-opacity:0" offset="1"/>
  </linearGradient>
  <linearGradient id="linearGradient3823" y2="90.239" gradientUnits="userSpaceOnUse" x2="32.251" gradientTransform="translate(0,-97)" y1="6.1317" x1="32.251">
   <stop id="stop11724" offset="0"/>
   <stop id="stop11726" offset="1"/>
  </linearGradient>
  <linearGradient id="linearGradient3821" y2="90.239" xlink:href="#ButtonShadow-0" gradientUnits="userSpaceOnUse" x2="32.251" gradientTransform="matrix(1.0238 0 0 1.0119 -1.1429 -98.071)" y1="6.1317" x1="32.251"/>
  <linearGradient id="linearGradient3819-4" y2="90.239" xlink:href="#ButtonShadow-0" gradientUnits="userSpaceOnUse" x2="32.251" gradientTransform="matrix(1.0238 0 0 -1.0005 -1.1429 98.026)" y1="6.1317" x1="32.251"/>
  <filter id="filter9603" height="1.5776" width="1.5168" color-interpolation-filters="sRGB" y="-.28881" x="-.25841">
   <feGaussianBlur id="feGaussianBlur9605" stdDeviation="0.72327179"/>
  </filter>
  <filter id="filter9453" height="1.576" width="1.5154" color-interpolation-filters="sRGB" y="-0.288" x="-.25769">
   <feGaussianBlur id="feGaussianBlur9455" stdDeviation="0.72125148"/>
  </filter>
  <linearGradient id="ButtonShadow-0" y2="7.0165" gradientUnits="userSpaceOnUse" x2="45.448" gradientTransform="matrix(1.0059 0 0 .99417 100 0)" y1="92.54" x1="45.448">
   <stop id="stop3750-8" offset="0"/>
   <stop id="stop3752-5" style="stop-opacity:.58824" offset="1"/>
  </linearGradient>
  <clipPath id="clipPath3613">
   <rect id="rect3615" style="fill:#fff" rx="6" ry="6" height="84" width="84" y="6" x="6"/>
  </clipPath>
  <filter id="filter3794" height="1.384" width="1.384" color-interpolation-filters="sRGB" y="-.192" x="-.192">
   <feGaussianBlur id="feGaussianBlur3796" stdDeviation="5.28"/>
  </filter>
  <filter id="filter3174-15" color-interpolation-filters="sRGB">
   <feGaussianBlur id="feGaussianBlur3176-09" stdDeviation="1.71"/>
  </filter>
  <linearGradient id="linearGradient5147">
   <stop id="stop5149" style="stop-color:#fff" offset="0"/>
   <stop id="stop5151" style="stop-color:#fff;stop-opacity:0" offset="1"/>
  </linearGradient>
  <linearGradient id="linearGradient5155">
   <stop id="stop5157" style="stop-color:#d0f5ff" offset="0"/>
   <stop id="stop5159" style="stop-color:#d0f5ff;stop-opacity:0" offset="1"/>
  </linearGradient>
  <linearGradient id="linearGradient5794">
   <stop id="stop5796" style="stop-color:#7739b5" offset="0"/>
   <stop id="stop5798" style="stop-color:#4a395a;stop-opacity:0" offset="1"/>
  </linearGradient>
  <linearGradient id="linearGradient5800">
   <stop id="stop5802" style="stop-color:#9f3986" offset="0"/>
   <stop id="stop5804" style="stop-color:#8c4c7d;stop-opacity:0" offset="1"/>
  </linearGradient>
 </defs>
 <metadata id="metadata2413">
  <rdf:RDF>
   <cc:Work rdf:about="">
    <dc:format>image/svg+xml</dc:format>
    <dc:type rdf:resource="http://purl.org/dc/dcmitype/StillImage"/>
    <dc:title/>
   </cc:Work>
  </rdf:RDF>
 </metadata>
 <g id="layer2" style="display:none">
  <rect id="rect3745" style="opacity:.9;filter:url(#filter3174);fill:url(#ButtonShadow)" rx="6" ry="6" height="85" width="86" y="7" x="5"/>
 </g>
 <g id="layer2-6" style="display:none" transform="translate(115.54 .85219)">
  <rect id="rect3745-02" style="opacity:.9;filter:url(#filter3174-0);fill:url(#ButtonShadow)" rx="6" ry="6" height="85" width="86" y="7" x="5"/>
 </g>
 <g id="layer2-7" style="display:none" transform="translate(235.43 .85219)">
  <rect id="rect3745-0" style="opacity:.9;filter:url(#filter3174-9);fill:url(#ButtonShadow)" rx="6" ry="6" height="85" width="86" y="7" x="5"/>
 </g>
 <g id="layer2-9" style="display:none" transform="matrix(.95833 0 0 .94792 252.01 5.1359)">
  <rect id="rect3745-3" style="opacity:.9;filter:url(#filter3174-1);fill:url(#ButtonShadow)" rx="6" ry="6" height="85" width="86" y="7" x="5"/>
 </g>
 <g id="layer2-20" style="display:none" transform="matrix(1.0222 0 0 1.0111 248.67 2.1302)">
  <rect id="rect3745-64" style="opacity:.9;filter:url(#filter3174-28);fill:url(#ButtonShadow)" rx="6" ry="6" height="85" width="86" y="7" x="5"/>
 </g>
 <g id="layer5-35" style="display:none" transform="matrix(1.0222 0 0 1.0111 248.67 2.1302)">
  <rect id="rect3171-20" style="opacity:.1;filter:url(#filter3794-71);stroke:#fff;stroke-linecap:round;stroke-width:.5;fill:url(#linearGradient8478)" clip-path="url(#clipPath3613-01)" rx="12" ry="12" height="66" width="66" y="15" x="15"/>
 </g>
 <g id="layer2-92" style="display:none" transform="translate(126.96 -5.7242)">
  <rect id="rect3745-31" style="opacity:.9;filter:url(#filter3174-8);fill:url(#ButtonShadow)" rx="6" ry="6" height="85" width="86" y="7" x="5"/>
 </g>
 <g id="layer2-6-8" style="display:none" transform="translate(242.5 -4.8721)">
  <rect id="rect3745-02-7" style="opacity:.9;filter:url(#filter3174-0-6);fill:url(#ButtonShadow)" rx="6" ry="6" height="85" width="86" y="7" x="5"/>
 </g>
 <g id="layer2-7-6" style="display:none" transform="translate(362.39 -4.8721)">
  <rect id="rect3745-0-3" style="opacity:.9;filter:url(#filter3174-9-1);fill:url(#ButtonShadow)" rx="6" ry="6" height="85" width="86" y="7" x="5"/>
 </g>
 <g id="layer2-9-8" style="display:none" transform="matrix(.95833 0 0 .94792 378.97 -.58833)">
  <rect id="rect3745-3-5" style="opacity:.9;filter:url(#filter3174-1-0);fill:url(#ButtonShadow)" rx="6" ry="6" height="85" width="86" y="7" x="5"/>
 </g>
 <g id="layer2-20-5" style="display:none" transform="matrix(1.0222 0 0 1.0111 375.63 -3.594)">
  <rect id="rect3745-64-0" style="opacity:.9;filter:url(#filter3174-28-9);fill:url(#ButtonShadow)" rx="6" ry="6" height="85" width="86" y="7" x="5"/>
 </g>
 <g id="layer5-35-1" style="display:none" transform="matrix(1.0222 0 0 1.0111 375.63 -3.594)">
  <rect id="rect3171-20-2" style="opacity:.1;filter:url(#filter3794-71-2);stroke:#fff;stroke-linecap:round;stroke-width:.5;fill:url(#linearGradient8478)" clip-path="url(#clipPath3613-01-0)" rx="12" ry="12" height="66" width="66" y="15" x="15"/>
 </g>
 <g id="layer2-8" style="display:none" transform="translate(124.25 -23.161)">
  <rect id="rect3745-6" style="opacity:.9;filter:url(#filter3174-4);fill:url(#ButtonShadow)" rx="6" ry="6" height="85" width="86" y="7" x="5"/>
 </g>
 <g id="g29970" transform="matrix(.95833 0 0 .95608 2.2065 2.982)">
  <g id="layer2-68" style="display:none">
   <rect id="rect3745-2" style="opacity:.9;filter:url(#filter3174-15);fill:url(#ButtonShadow)" rx="6" ry="6" height="85" width="86" y="7" x="5"/>
  </g>
  <g id="layer5" style="display:none">
   <rect id="rect3171" style="opacity:.1;filter:url(#filter3794);stroke:#fff;stroke-linecap:round;stroke-width:.5;fill:url(#linearGradient8478)" clip-path="url(#clipPath3613)" rx="12" ry="12" height="66" width="66" y="15" x="15"/>
  </g>
  <g id="g3463" transform="matrix(1.0659 0 0 1.0902 -3.3904 -6.3014)">
   <g id="layer6" transform="matrix(1 0 0 .99745 0 .015261)">
    <path id="path3778" style="opacity:.1;fill:url(#linearGradient3819-4)" d="m12 94.031c-4.9716 0-9.0312-4.0137-9.0312-8.929v-70.197c0-4.9147 4.0596-8.9284 9.0312-8.9284h72c4.9716 0 9.0312 4.0137 9.0312 8.929v70.197c0 4.9154-4.0596 8.929-9.0312 8.929h-72z"/>
    <path id="path3770" style="opacity:.2;fill:url(#linearGradient3819-4)" d="m12 93.012c-4.4091 0-8-3.5502-8-7.9095v-70.196c0-4.36 3.5909-7.9098 8-7.9098h72c4.4091 0 8 3.5502 8 7.9095v70.196c0 4.3592-3.5909 7.9095-8 7.9095h-72z"/>
    <rect id="rect3723" style="opacity:.3;fill:url(#linearGradient3821)" transform="scale(1,-1)" rx="7" ry="7" height="85" width="86" y="-92" x="5"/>
    <rect id="rect3716" style="fill:url(#linearGradient3823)" transform="scale(1,-1)" rx="6" ry="6" height="84" width="84" y="-91" x="6"/>
   </g>
   <path id="rect3728" style="opacity:.30702;fill:url(#linearGradient3825)" d="m11.831 6.9725c-3.331 0-6.0126 2.676-6.0126 6v2 68 2c0 0.33472 0.04139 0.6507 0.0939 0.96875 0.0488 0.2956 0.0972 0.59692 0.18789 0.875 0.01002 0.03038 0.02094 0.0636 0.03127 0.09375 0.09911 0.28777 0.23538 0.54745 0.37579 0.8125 0.14489 0.27351 0.31628 0.53562 0.50105 0.78125 0.18477 0.24564 0.37457 0.47347 0.595 0.6875 0.44088 0.42806 0.9449 0.81453 1.5032 1.0938 0.27913 0.13961 0.57468 0.24695 0.87684 0.34375-0.25674-0.10022-0.48774-0.23627-0.72026-0.375-0.007-0.0044-0.02395 0.0045-0.03127 0-0.03197-0.0193-0.06243-0.04251-0.0939-0.0625-0.12064-0.0767-0.23151-0.16351-0.34447-0.25-0.10639-0.0808-0.21373-0.16111-0.31316-0.25-0.1783-0.16143-0.34819-0.34539-0.50105-0.53125-0.10781-0.13026-0.21885-0.26528-0.31316-0.40625-0.02515-0.03838-0.03848-0.08587-0.06263-0.125-0.06494-0.10303-0.1305-0.20452-0.1879-0.3125-0.10122-0.19471-0.2061-0.4157-0.28184-0.625-0.008-0.02181-0.02365-0.04055-0.03127-0.0625-0.03187-0.09195-0.03587-0.18683-0.06263-0.28125-0.03036-0.10662-0.07055-0.20303-0.0939-0.3125-0.07305-0.34151-0.12526-0.6982-0.12526-1.0625v-2-68-2c0-2.7818 2.2228-5 5.0105-5h2.0042 68.143 2.0042c2.7877 0 5.0105 2.2182 5.0105 5v2 68 2c0 0.3643-0.05221 0.72099-0.12526 1.0625-0.04429 0.20689-0.08859 0.39766-0.15658 0.59375-0.008 0.02195-0.02335 0.04069-0.03127 0.0625-0.06283 0.17374-0.13867 0.36745-0.21921 0.53125-0.04169 0.0828-0.07917 0.16995-0.12526 0.25-0.05471 0.09721-0.12704 0.18835-0.18789 0.28125-0.0943 0.14096-0.20535 0.276-0.31316 0.40625-0.14347 0.17445-0.30378 0.347-0.46974 0.5-0.01122 0.0102-0.02004 0.02115-0.03127 0.03125-0.13868 0.12556-0.28569 0.23444-0.43842 0.34375-0.10278 0.07315-0.20475 0.15336-0.31316 0.21875-0.007 0.0045-0.02385-0.0044-0.03127 0-0.23253 0.13873-0.46352 0.27478-0.72026 0.375 0.30216-0.0968 0.59771-0.20414 0.87684-0.34375 0.55826-0.27922 1.0623-0.66569 1.5032-1.0938 0.22043-0.21403 0.41023-0.44186 0.595-0.6875s0.35616-0.50774 0.50105-0.78125c0.14042-0.26505 0.27671-0.52473 0.37579-0.8125 0.01042-0.03078 0.02134-0.06274 0.03126-0.09375 0.09069-0.27808 0.13909-0.5794 0.1879-0.875 0.05251-0.31805 0.0939-0.63403 0.0939-0.96875v-2-68-2c0-3.324-2.6816-6-6.0126-6h-72.152z"/>
   <path id="path3615" style="opacity:.2;fill:url(#radialGradient3827)" d="m12.437 90.982c-3.324 0-6-2.676-6-6v-2-68-2c0-0.33472 0.04135-0.6507 0.09375-0.96875 0.0487-0.2956 0.09704-0.59692 0.1875-0.875 0.0099-0.03038 0.02089-0.0636 0.03125-0.09375 0.09887-0.28777 0.23488-0.54745 0.375-0.8125 0.14459-0.27351 0.31562-0.53562 0.5-0.78125 0.18438-0.24564 0.37378-0.47347 0.59375-0.6875 0.43995-0.42806 0.94291-0.81453 1.5-1.0937 0.27854-0.13961 0.57347-0.24695 0.875-0.34375-0.2562 0.10022-0.48671 0.23627-0.71875 0.375-0.0074 0.0044-0.02387-0.0045-0.03125 0-0.03193 0.0193-0.06229 0.04251-0.09375 0.0625-0.1204 0.0767-0.23102 0.16351-0.34375 0.25-0.10617 0.0808-0.21328 0.16111-0.3125 0.25-0.17793 0.16143-0.34746 0.34539-0.5 0.53125-0.10758 0.13026-0.21839 0.26528-0.3125 0.40625-0.02509 0.03838-0.03845 0.08587-0.0625 0.125-0.06476 0.10303-0.13023 0.20452-0.1875 0.3125-0.10101 0.19471-0.20568 0.4157-0.28125 0.625-0.008 0.02181-0.02359 0.04055-0.03125 0.0625-0.03182 0.09195-0.0358 0.18683-0.0625 0.28125-0.03033 0.10662-0.07039 0.20303-0.09375 0.3125-0.07288 0.34151-0.125 0.6982-0.125 1.0625v2 68 2c0 2.7818 2.2182 5 5 5h2 68 2c2.7818 0 5-2.2182 5-5v-2-68-2c0-0.3643-0.05212-0.72099-0.125-1.0625-0.04415-0.20689-0.08838-0.39766-0.15625-0.59375-0.0077-0.02195-0.0233-0.04069-0.03125-0.0625-0.06274-0.17374-0.13838-0.36745-0.21875-0.53125-0.04158-0.0828-0.07904-0.16995-0.125-0.25-0.0546-0.09721-0.12677-0.18835-0.1875-0.28125-0.09411-0.14096-0.20492-0.276-0.3125-0.40625-0.14317-0.17445-0.30314-0.347-0.46875-0.5-0.01117-0.0102-0.01998-0.02115-0.03125-0.03125-0.13838-0.12556-0.28509-0.23444-0.4375-0.34375-0.10257-0.07315-0.20432-0.15336-0.3125-0.21875-0.0074-0.0045-0.02384 0.0044-0.03125 0-0.23204-0.13873-0.46255-0.27478-0.71875-0.375 0.30153 0.0968 0.59646 0.20414 0.875 0.34375 0.55709 0.27922 1.0601 0.66569 1.5 1.0937 0.21997 0.21403 0.40937 0.44186 0.59375 0.6875s0.35541 0.50774 0.5 0.78125c0.14012 0.26505 0.27614 0.52473 0.375 0.8125 0.01041 0.03078 0.02133 0.06274 0.03125 0.09375 0.09046 0.27808 0.1388 0.5794 0.1875 0.875 0.0524 0.31805 0.09375 0.63403 0.09375 0.96875v2 68 2c0 3.324-2.676 6-6 6h-72z"/>
   <path id="path8881" style="opacity:.70507;fill:#595959" d="m64.347 51.275a24.572 26.693 0 1 1 -49.144 0 24.572 26.693 0 1 1 49.144 0z" transform="matrix(1.1149 0 0 .99027 11.205 7.1245)"/>
   <path id="path8883" style="opacity:.92166;fill:url(#radialGradient3829)" d="m64.347 51.275a24.572 26.693 0 1 1 -49.144 0 24.572 26.693 0 1 1 49.144 0z" transform="matrix(1.0229 0 0 .83168 13.884 14.884)"/>
   <path id="path5093" style="opacity:.91031;stroke-opacity:.58824;stroke:#648afa;stroke-width:3.1717;fill:none" d="m64.347 51.275a24.572 26.693 0 1 1 -49.144 0 24.572 26.693 0 1 1 49.144 0z" transform="matrix(1.0762 0 0 .92803 12.894 10.258)"/>
   <path id="path8911" style="opacity:.58296;stroke:#fff;stroke-width:1.37;fill:none" d="m64.347 51.275a24.572 26.693 0 1 1 -49.144 0 24.572 26.693 0 1 1 49.144 0z" transform="matrix(.98833 0 0 .84717 16.455 14.464)"/>
   <path id="path8921" style="opacity:.57848;fill:url(#radialGradient3877)" d="m64.347 51.275a24.572 26.693 0 1 1 -49.144 0 24.572 26.693 0 1 1 49.144 0z" transform="matrix(.28654 -.21851 .080560 .13162 25.706 43.968)"/>
   <path id="path8947" style="opacity:.61883;fill:url(#radialGradient3879)" d="m64.347 51.275a24.572 26.693 0 1 1 -49.144 0 24.572 26.693 0 1 1 49.144 0z" transform="matrix(.25852 -.16699 .088022 .082215 52.612 77.364)"/>
   <path id="path8989" style="opacity:.58065;filter:url(#filter9453);fill:#fff" d="m33.941 81.681a3.3588 3.0052 0 1 1 -6.7175 0 3.3588 3.0052 0 1 1 6.7175 0z" transform="matrix(.26375 0 0 .24756 33.847 29.928)"/>
   <path id="path8991" style="opacity:.35426;fill:#fff" d="m33.941 81.681a3.3588 3.0052 0 1 1 -6.7175 0 3.3588 3.0052 0 1 1 6.7175 0z" transform="matrix(.30808 0 0 .32115 26.646 29.319)"/>
   <path id="path8993" style="opacity:.35426;fill:#fff" d="m33.941 81.681a3.3588 3.0052 0 1 1 -6.7175 0 3.3588 3.0052 0 1 1 6.7175 0z" transform="matrix(.34241 0 0 .35693 25.644 24.527)"/>
   <path id="path8995" style="opacity:.35426;fill:#fff" d="m33.941 81.681a3.3588 3.0052 0 1 1 -6.7175 0 3.3588 3.0052 0 1 1 6.7175 0z" transform="matrix(.31984 0 0 .33340 30.477 37.716)"/>
   <path id="path8997" style="opacity:.35426;fill:#fff" d="m33.941 81.681a3.3588 3.0052 0 1 1 -6.7175 0 3.3588 3.0052 0 1 1 6.7175 0z" transform="matrix(.33375 0 0 .34790 27.331 29.365)"/>
   <path id="path8999" style="opacity:.35426;fill:#fff" d="m33.941 81.681a3.3588 3.0052 0 1 1 -6.7175 0 3.3588 3.0052 0 1 1 6.7175 0z" transform="matrix(.26668 0 0 .27799 29.955 43.883)"/>
   <path id="path9001" style="opacity:.35426;fill:#fff" d="m33.941 81.681a3.3588 3.0052 0 1 1 -6.7175 0 3.3588 3.0052 0 1 1 6.7175 0z" transform="matrix(.31226 0 0 .32550 28.217 37.251)"/>
   <path id="path9003" style="opacity:.35426;fill:#fff" d="m33.941 81.681a3.3588 3.0052 0 1 1 -6.7175 0 3.3588 3.0052 0 1 1 6.7175 0z" transform="matrix(.30080 0 0 .31355 33.435 44.407)"/>
   <path id="path9005" style="opacity:.35426;fill:#fff" d="m33.941 81.681a3.3588 3.0052 0 1 1 -6.7175 0 3.3588 3.0052 0 1 1 6.7175 0z" transform="matrix(.32695 0 0 .34081 34.915 35.856)"/>
   <path id="path9007" style="opacity:.35426;fill:#fff" d="m33.941 81.681a3.3588 3.0052 0 1 1 -6.7175 0 3.3588 3.0052 0 1 1 6.7175 0z" transform="matrix(.27054 0 0 .28201 36.865 45.799)"/>
   <path id="path9009" style="opacity:.35426;fill:#fff" d="m33.941 81.681a3.3588 3.0052 0 1 1 -6.7175 0 3.3588 3.0052 0 1 1 6.7175 0z" transform="matrix(.27416 0 0 .28578 35.696 47.489)"/>
   <path id="path9011" style="opacity:.35426;fill:#fff" d="m33.941 81.681a3.3588 3.0052 0 1 1 -6.7175 0 3.3588 3.0052 0 1 1 6.7175 0z" transform="matrix(.29435 0 0 .30683 38.918 50.398)"/>
   <path id="path9013" style="opacity:.35426;fill:#fff" d="m33.941 81.681a3.3588 3.0052 0 1 1 -6.7175 0 3.3588 3.0052 0 1 1 6.7175 0z" transform="matrix(.25946 0 0 .27046 39.889 44.592)"/>
   <path id="path9015" style="opacity:.58065;fill:#fff" d="m33.941 81.681a3.3588 3.0052 0 1 1 -6.7175 0 3.3588 3.0052 0 1 1 6.7175 0z" transform="matrix(.27529 0 0 .25839 45.307 20.143)"/>
   <path id="path9019" style="opacity:.19731;fill:#fff" d="m33.941 81.681a3.3588 3.0052 0 1 1 -6.7175 0 3.3588 3.0052 0 1 1 6.7175 0z" transform="matrix(.27065 0 0 .26624 51.373 21.732)"/>
   <path id="path9021" style="opacity:.18386;fill:#fff" d="m33.941 81.681a3.3588 3.0052 0 1 1 -6.7175 0 3.3588 3.0052 0 1 1 6.7175 0z" transform="matrix(.26312 0 0 .25883 53.765 24.33)"/>
   <path id="path9023" style="opacity:.18386;fill:#fff" d="m33.941 81.681a3.3588 3.0052 0 1 1 -6.7175 0 3.3588 3.0052 0 1 1 6.7175 0z" transform="matrix(.34364 0 0 .33804 57.436 14.178)"/>
   <path id="path9025" style="opacity:.18386;fill:#fff" d="m33.941 81.681a3.3588 3.0052 0 1 1 -6.7175 0 3.3588 3.0052 0 1 1 6.7175 0z" transform="matrix(.32151 0 0 .31628 59.298 22.208)"/>
   <path id="path9027" style="opacity:.18386;fill:#fff" d="m33.941 81.681a3.3588 3.0052 0 1 1 -6.7175 0 3.3588 3.0052 0 1 1 6.7175 0z" transform="matrix(.28039 0 0 .27582 60.044 25.312)"/>
   <path id="path9029" style="opacity:.18386;fill:#fff" d="m33.941 81.681a3.3588 3.0052 0 1 1 -6.7175 0 3.3588 3.0052 0 1 1 6.7175 0z" transform="matrix(.34027 0 0 .33472 58.904 23.897)"/>
   <path id="path9031" style="opacity:.18386;fill:#fff" d="m33.941 81.681a3.3588 3.0052 0 1 1 -6.7175 0 3.3588 3.0052 0 1 1 6.7175 0z" transform="matrix(.27994 0 0 .27538 64.148 36.501)"/>
   <path id="path9033" style="opacity:.18386;fill:#fff" d="m33.941 81.681a3.3588 3.0052 0 1 1 -6.7175 0 3.3588 3.0052 0 1 1 6.7175 0z" transform="matrix(.33143 0 0 .32603 56.336 29.873)"/>
   <path id="path9035" style="opacity:.18386;fill:#fff" d="m33.941 81.681a3.3588 3.0052 0 1 1 -6.7175 0 3.3588 3.0052 0 1 1 6.7175 0z" transform="matrix(.28103 0 0 .27645 59.5 34.811)"/>
   <path id="path9037" style="opacity:.18386;fill:#fff" d="m33.941 81.681a3.3588 3.0052 0 1 1 -6.7175 0 3.3588 3.0052 0 1 1 6.7175 0z" transform="matrix(.31270 0 0 .30761 60.066 42.075)"/>
   <path id="path9039" style="opacity:.18386;fill:#fff" d="m33.941 81.681a3.3588 3.0052 0 1 1 -6.7175 0 3.3588 3.0052 0 1 1 6.7175 0z" transform="matrix(.30750 0 0 .30249 58.891 45.911)"/>
   <path id="path9041" style="opacity:.18386;fill:#fff" d="m33.941 81.681a3.3588 3.0052 0 1 1 -6.7175 0 3.3588 3.0052 0 1 1 6.7175 0z" transform="matrix(.22870 0 0 .23276 66.636 52.984)"/>
   <path id="path9043" style="opacity:.18386;fill:#fff" d="m33.941 81.681a3.3588 3.0052 0 1 1 -6.7175 0 3.3588 3.0052 0 1 1 6.7175 0z" transform="matrix(.25796 0 0 .25376 63.275 43.102)"/>
   <path id="path9045" style="opacity:.18386;fill:#fff" d="m33.941 81.681a3.3588 3.0052 0 1 1 -6.7175 0 3.3588 3.0052 0 1 1 6.7175 0z" transform="matrix(.24891 0 0 .25333 62.891 52.709)"/>
   <path id="path9047" style="opacity:.18386;fill:#fff" d="m33.941 81.681a3.3588 3.0052 0 1 1 -6.7175 0 3.3588 3.0052 0 1 1 6.7175 0z" transform="matrix(.25814 0 0 .25394 60.583 49.539)"/>
   <path id="path9049" style="opacity:.18386;fill:#fff" d="m33.941 81.681a3.3588 3.0052 0 1 1 -6.7175 0 3.3588 3.0052 0 1 1 6.7175 0z" transform="matrix(.23316 0 0 .27346 63.911 49.309)"/>
   <path id="path9051" style="opacity:.18386;fill:#fff" d="m33.941 81.681a3.3588 3.0052 0 1 1 -6.7175 0 3.3588 3.0052 0 1 1 6.7175 0z" transform="matrix(.30860 0 0 .30358 59.898 48.478)"/>
   <path id="path9053" style="opacity:.18386;fill:#fff" d="m33.941 81.681a3.3588 3.0052 0 1 1 -6.7175 0 3.3588 3.0052 0 1 1 6.7175 0z" transform="matrix(.31906 0 0 .31386 53.997 44.967)"/>
   <path id="path9055" style="opacity:.18386;fill:#fff" d="m33.941 81.681a3.3588 3.0052 0 1 1 -6.7175 0 3.3588 3.0052 0 1 1 6.7175 0z" transform="matrix(.26045 0 0 .25621 58.901 49.986)"/>
   <path id="path9077" style="opacity:.42857;stroke:#fff;stroke-width:4.2917;fill:none" d="m58.69 48.801a5.6569 5.4801 0 1 1 -11.314 0 5.6569 5.4801 0 1 1 11.314 0z" transform="matrix(.76962 0 0 .79540 20.981 18.027)"/>
   <path id="path9087" style="opacity:.42857;stroke:#fff;stroke-width:4.2917;fill:none" d="m58.69 48.801a5.6569 5.4801 0 1 1 -11.314 0 5.6569 5.4801 0 1 1 11.314 0z" transform="matrix(.76962 0 0 .79540 9.6999 20.142)"/>
   <path id="path9089" style="opacity:.42857;stroke:#fff;stroke-width:4.2917;fill:none" d="m58.69 48.801a5.6569 5.4801 0 1 1 -11.314 0 5.6569 5.4801 0 1 1 11.314 0z" transform="matrix(.76962 0 0 .79540 17.758 26.909)"/>
   <path id="path9091" style="opacity:.42857;stroke:#fff;stroke-width:4.2917;fill:none" d="m58.69 48.801a5.6569 5.4801 0 1 1 -11.314 0 5.6569 5.4801 0 1 1 11.314 0z" transform="matrix(.76962 0 0 .79540 13.352 10.977)"/>
   <path id="path9689" style="opacity:.41014;filter:url(#filter9603);fill:#fff" d="m33.941 81.681a3.3588 3.0052 0 1 1 -6.7175 0 3.3588 3.0052 0 1 1 6.7175 0z" transform="matrix(.11460 0 0 .12469 69.296 71.566)"/>
   <path id="path9691" style="opacity:.41014;filter:url(#filter9603);fill:#fff" d="m33.941 81.681a3.3588 3.0052 0 1 1 -6.7175 0 3.3588 3.0052 0 1 1 6.7175 0z" transform="matrix(.14413 0 0 .15682 69.297 66.973)"/>
   <path id="path9693" style="opacity:.41014;filter:url(#filter9603);fill:#fff" d="m33.941 81.681a3.3588 3.0052 0 1 1 -6.7175 0 3.3588 3.0052 0 1 1 6.7175 0z" transform="matrix(.14182 0 0 .15430 71.199 67.948)"/>
   <path id="path9695" style="opacity:.18386;fill:#fff" d="m33.941 81.681a3.3588 3.0052 0 1 1 -6.7175 0 3.3588 3.0052 0 1 1 6.7175 0z" transform="matrix(.11646 0 0 .12671 72.886 65.233)"/>
   <path id="path9697" style="opacity:.18386;fill:#fff" d="m33.941 81.681a3.3588 3.0052 0 1 1 -6.7175 0 3.3588 3.0052 0 1 1 6.7175 0z" transform="matrix(.14056 0 0 .15294 74.23 62.304)"/>
   <path id="path9699" style="opacity:.18386;fill:#fff" d="m33.941 81.681a3.3588 3.0052 0 1 1 -6.7175 0 3.3588 3.0052 0 1 1 6.7175 0z" transform="matrix(.15425 0 0 .16783 74.791 63.147)"/>
   <path id="path9701" style="opacity:.41014;filter:url(#filter9603);fill:#fff" d="m33.941 81.681a3.3588 3.0052 0 1 1 -6.7175 0 3.3588 3.0052 0 1 1 6.7175 0z" transform="matrix(.15477 0 0 .16839 73.685 66.131)"/>
   <path id="path9703" style="opacity:.41014;filter:url(#filter9603);fill:#fff" d="m33.941 81.681a3.3588 3.0052 0 1 1 -6.7175 0 3.3588 3.0052 0 1 1 6.7175 0z" transform="matrix(.12361 0 0 .13450 76.99 68.985)"/>
   <path id="path9705" style="opacity:.41014;filter:url(#filter9603);fill:#fff" d="m33.941 81.681a3.3588 3.0052 0 1 1 -6.7175 0 3.3588 3.0052 0 1 1 6.7175 0z" transform="matrix(.13002 0 0 .14146 74.557 72.403)"/>
   <path id="path9707" style="opacity:.41014;filter:url(#filter9603);fill:#fff" d="m33.941 81.681a3.3588 3.0052 0 1 1 -6.7175 0 3.3588 3.0052 0 1 1 6.7175 0z" transform="matrix(.12909 0 0 .14046 76.356 73.781)"/>
   <path id="path9709" style="opacity:.41014;filter:url(#filter9603);fill:#fff" d="m33.941 81.681a3.3588 3.0052 0 1 1 -6.7175 0 3.3588 3.0052 0 1 1 6.7175 0z" transform="matrix(.13203 0 0 .14366 76.946 75.187)"/>
   <path id="path9711" style="opacity:.41014;filter:url(#filter9603);fill:#fff" d="m33.941 81.681a3.3588 3.0052 0 1 1 -6.7175 0 3.3588 3.0052 0 1 1 6.7175 0z" transform="matrix(.12190 0 0 .13263 80.778 76.12)"/>
   <path id="path9713" style="opacity:.41014;filter:url(#filter9603);fill:#fff" d="m33.941 81.681a3.3588 3.0052 0 1 1 -6.7175 0 3.3588 3.0052 0 1 1 6.7175 0z" transform="matrix(.11576 0 0 .12595 81.69 74.952)"/>
   <path id="path9715" style="opacity:.41014;filter:url(#filter9603);fill:#fff" d="m33.941 81.681a3.3588 3.0052 0 1 1 -6.7175 0 3.3588 3.0052 0 1 1 6.7175 0z" transform="matrix(.15198 0 0 .16537 83.267 73.855)"/>
   <path id="path9717" style="opacity:.41014;filter:url(#filter9603);fill:#fff" d="m33.941 81.681a3.3588 3.0052 0 1 1 -6.7175 0 3.3588 3.0052 0 1 1 6.7175 0z" transform="matrix(.15285 0 0 .16631 78.749 74.344)"/>
   <path id="path9719" style="opacity:.41014;filter:url(#filter9603);fill:#fff" d="m33.941 81.681a3.3588 3.0052 0 1 1 -6.7175 0 3.3588 3.0052 0 1 1 6.7175 0z" transform="matrix(.14557 0 0 .15839 79.956 73.452)"/>
   <path id="path9721" style="opacity:.41014;filter:url(#filter9603);fill:#fff" d="m33.941 81.681a3.3588 3.0052 0 1 1 -6.7175 0 3.3588 3.0052 0 1 1 6.7175 0z" transform="matrix(.14953 0 0 .16269 78.727 76.189)"/>
   <path id="path9723" style="opacity:.41014;filter:url(#filter9603);fill:#fff" d="m33.941 81.681a3.3588 3.0052 0 1 1 -6.7175 0 3.3588 3.0052 0 1 1 6.7175 0z" transform="matrix(.13780 0 0 .14993 78.567 74.065)"/>
   <path id="path5163" style="opacity:.60538;stroke-opacity:.64921;stroke:#648afa;stroke-width:1.2125;fill:none" d="m64.347 51.275a24.572 26.693 0 1 1 -49.144 0 24.572 26.693 0 1 1 49.144 0z" transform="matrix(1.1558 0 0 1.0068 9.8687 6.3582)"/>
   <path id="path5165" style="opacity:.40807;stroke-opacity:.58824;stroke:#648afa;stroke-width:1.2125;fill:none" d="m64.347 51.275a24.572 26.693 0 1 1 -49.144 0 24.572 26.693 0 1 1 49.144 0z" transform="matrix(1.2109 0 0 1.0526 7.6745 4.0098)"/>
   <path id="path5167" style="opacity:.23318;stroke-opacity:.58824;stroke:#648afa;stroke-width:1.2125;fill:none" d="m64.347 51.275a24.572 26.693 0 1 1 -49.144 0 24.572 26.693 0 1 1 49.144 0z" transform="matrix(1.2689 0 0 1.0984 5.3 1.6629)"/>
   <path id="path5169" style="opacity:.30942;stroke:#fff;stroke-width:1.1071;fill:none" d="m64.347 51.275a24.572 26.693 0 1 1 -49.144 0 24.572 26.693 0 1 1 49.144 0z" transform="matrix(1.0336 0 0 .88537 14.703 12.456)"/>
   <path id="path5171" style="opacity:.30942;stroke:#fff;stroke-width:1.1071;fill:none" d="m64.347 51.275a24.572 26.693 0 1 1 -49.144 0 24.572 26.693 0 1 1 49.144 0z" transform="matrix(.96136 0 0 .82222 17.332 15.546)"/>
   <g id="g5594" transform="matrix(.079673 0 0 .083667 63.445 13.069)">
    <path id="path5596" style="opacity:.70507;fill:#595959" d="m64.347 51.275a24.572 26.693 0 1 1 -49.144 0 24.572 26.693 0 1 1 49.144 0z" transform="matrix(1.0055 0 0 .88904 99.42 -10.897)"/>
    <path id="path5598" style="fill:url(#radialGradient3875)" d="m64.347 51.275a24.572 26.693 0 1 1 -49.144 0 24.572 26.693 0 1 1 49.144 0z" transform="matrix(.92258 0 0 .74666 101.84 -3.9309)"/>
    <path id="path5600" style="opacity:.91031;stroke-opacity:.58824;stroke:#648afa;stroke-width:3.1717;fill:none" d="m64.347 51.275a24.572 26.693 0 1 1 -49.144 0 24.572 26.693 0 1 1 49.144 0z" transform="matrix(.97065 0 0 .83316 100.94 -8.0842)"/>
    <path id="path5602" style="opacity:.51121;stroke:#6c83f7;stroke-width:1.37;fill:none" d="m64.347 51.275a24.572 26.693 0 1 1 -49.144 0 24.572 26.693 0 1 1 49.144 0z" transform="matrix(.89136 0 0 .76057 104.16 -4.308)"/>
    <path id="path5604" style="opacity:.57848;fill:url(#radialGradient3877)" d="m64.347 51.275a24.572 26.693 0 1 1 -49.144 0 24.572 26.693 0 1 1 49.144 0z" transform="matrix(.25843 -.19618 .072656 .11816 112.5 22.18)"/>
    <path id="path5606" style="opacity:.61883;fill:url(#radialGradient3879)" d="m64.347 51.275a24.572 26.693 0 1 1 -49.144 0 24.572 26.693 0 1 1 49.144 0z" transform="matrix(.15895 -.096004 .054121 .047267 140.66 51.644)"/>
    <path id="path5608" style="opacity:.43498;filter:url(#filter9453);fill:#fff" d="m33.941 81.681a3.3588 3.0052 0 1 1 -6.7175 0 3.3588 3.0052 0 1 1 6.7175 0z" transform="matrix(.23787 0 0 .22225 119.84 9.5752)"/>
    <path id="path5610" style="opacity:.35426;fill:#fff" d="m33.941 81.681a3.3588 3.0052 0 1 1 -6.7175 0 3.3588 3.0052 0 1 1 6.7175 0z" transform="matrix(.27786 0 0 .28832 113.35 9.0283)"/>
    <path id="path5612" style="opacity:.35426;fill:#fff" d="m33.941 81.681a3.3588 3.0052 0 1 1 -6.7175 0 3.3588 3.0052 0 1 1 6.7175 0z" transform="matrix(.30882 0 0 .32044 112.44 4.7261)"/>
    <path id="path5614" style="opacity:.35426;fill:#fff" d="m33.941 81.681a3.3588 3.0052 0 1 1 -6.7175 0 3.3588 3.0052 0 1 1 6.7175 0z" transform="matrix(.28846 0 0 .29932 116.8 16.568)"/>
    <path id="path5616" style="opacity:.35426;fill:#fff" d="m33.941 81.681a3.3588 3.0052 0 1 1 -6.7175 0 3.3588 3.0052 0 1 1 6.7175 0z" transform="matrix(0.301 0 0 .31233 113.96 9.0698)"/>
    <path id="path5618" style="opacity:.35426;fill:#fff" d="m33.941 81.681a3.3588 3.0052 0 1 1 -6.7175 0 3.3588 3.0052 0 1 1 6.7175 0z" transform="matrix(.24052 0 0 .24957 116.33 22.103)"/>
    <path id="path5620" style="opacity:.35426;fill:#fff" d="m33.941 81.681a3.3588 3.0052 0 1 1 -6.7175 0 3.3588 3.0052 0 1 1 6.7175 0z" transform="matrix(.28163 0 0 .29223 114.76 16.15)"/>
    <path id="path5622" style="opacity:.35426;fill:#fff" d="m33.941 81.681a3.3588 3.0052 0 1 1 -6.7175 0 3.3588 3.0052 0 1 1 6.7175 0z" transform="matrix(.27129 0 0 .28150 119.47 22.574)"/>
    <path id="path5624" style="opacity:.35426;fill:#fff" d="m33.941 81.681a3.3588 3.0052 0 1 1 -6.7175 0 3.3588 3.0052 0 1 1 6.7175 0z" transform="matrix(.29487 0 0 .30597 120.8 14.897)"/>
    <path id="path5626" style="opacity:.35426;fill:#fff" d="m33.941 81.681a3.3588 3.0052 0 1 1 -6.7175 0 3.3588 3.0052 0 1 1 6.7175 0z" transform="matrix(.24399 0 0 .25318 122.56 23.824)"/>
    <path id="path5628" style="opacity:.35426;fill:#fff" d="m33.941 81.681a3.3588 3.0052 0 1 1 -6.7175 0 3.3588 3.0052 0 1 1 6.7175 0z" transform="matrix(.24726 0 0 .25657 121.51 25.341)"/>
    <path id="path5630" style="opacity:.35426;fill:#fff" d="m33.941 81.681a3.3588 3.0052 0 1 1 -6.7175 0 3.3588 3.0052 0 1 1 6.7175 0z" transform="matrix(.26547 0 0 .27547 124.41 27.953)"/>
    <path id="path5632" style="opacity:.35426;fill:#fff" d="m33.941 81.681a3.3588 3.0052 0 1 1 -6.7175 0 3.3588 3.0052 0 1 1 6.7175 0z" transform="matrix(.23401 0 0 .24282 125.29 22.741)"/>
    <path id="path5634" style="opacity:.34529;fill:#fff" d="m33.941 81.681a3.3588 3.0052 0 1 1 -6.7175 0 3.3588 3.0052 0 1 1 6.7175 0z" transform="matrix(.24828 0 0 .23197 130.18 .79085)"/>
    <path id="path5636" style="opacity:.19731;fill:#fff" d="m33.941 81.681a3.3588 3.0052 0 1 1 -6.7175 0 3.3588 3.0052 0 1 1 6.7175 0z" transform="matrix(.24410 0 0 .23903 135.65 2.2168)"/>
    <path id="path5638" style="opacity:.18386;fill:#fff" d="m33.941 81.681a3.3588 3.0052 0 1 1 -6.7175 0 3.3588 3.0052 0 1 1 6.7175 0z" transform="matrix(.23730 0 0 .23237 137.8 4.5491)"/>
    <path id="path5640" style="opacity:.18386;fill:#fff" d="m33.941 81.681a3.3588 3.0052 0 1 1 -6.7175 0 3.3588 3.0052 0 1 1 6.7175 0z" transform="matrix(.30992 0 0 .30348 141.12 -4.5651)"/>
    <path id="path5642" style="opacity:.18386;fill:#fff" d="m33.941 81.681a3.3588 3.0052 0 1 1 -6.7175 0 3.3588 3.0052 0 1 1 6.7175 0z" transform="matrix(.28997 0 0 .28395 142.79 2.6448)"/>
    <path id="path5644" style="opacity:.18386;fill:#fff" d="m33.941 81.681a3.3588 3.0052 0 1 1 -6.7175 0 3.3588 3.0052 0 1 1 6.7175 0z" transform="matrix(.25288 0 0 .24762 143.47 5.4314)"/>
    <path id="path5646" style="opacity:.18386;fill:#fff" d="m33.941 81.681a3.3588 3.0052 0 1 1 -6.7175 0 3.3588 3.0052 0 1 1 6.7175 0z" transform="matrix(.30688 0 0 .30050 142.44 4.1607)"/>
    <path id="path5648" style="opacity:.18386;fill:#fff" d="m33.941 81.681a3.3588 3.0052 0 1 1 -6.7175 0 3.3588 3.0052 0 1 1 6.7175 0z" transform="matrix(.25247 0 0 .24723 147.17 15.477)"/>
    <path id="path5650" style="opacity:.18386;fill:#fff" d="m33.941 81.681a3.3588 3.0052 0 1 1 -6.7175 0 3.3588 3.0052 0 1 1 6.7175 0z" transform="matrix(.29891 0 0 .29270 140.12 9.5262)"/>
    <path id="path5652" style="opacity:.18386;fill:#fff" d="m33.941 81.681a3.3588 3.0052 0 1 1 -6.7175 0 3.3588 3.0052 0 1 1 6.7175 0z" transform="matrix(.25346 0 0 .24819 142.98 13.959)"/>
    <path id="path5654" style="opacity:.18386;fill:#fff" d="m33.941 81.681a3.3588 3.0052 0 1 1 -6.7175 0 3.3588 3.0052 0 1 1 6.7175 0z" transform="matrix(.28202 0 0 .27616 143.49 20.481)"/>
    <path id="path5656" style="opacity:.18386;fill:#fff" d="m33.941 81.681a3.3588 3.0052 0 1 1 -6.7175 0 3.3588 3.0052 0 1 1 6.7175 0z" transform="matrix(.27733 0 0 .27157 142.43 23.924)"/>
    <path id="path5658" style="opacity:.18386;fill:#fff" d="m33.941 81.681a3.3588 3.0052 0 1 1 -6.7175 0 3.3588 3.0052 0 1 1 6.7175 0z" transform="matrix(.20626 0 0 .20897 149.41 30.274)"/>
    <path id="path5660" style="opacity:.18386;fill:#fff" d="m33.941 81.681a3.3588 3.0052 0 1 1 -6.7175 0 3.3588 3.0052 0 1 1 6.7175 0z" transform="matrix(.23265 0 0 .22782 146.38 21.403)"/>
    <path id="path5662" style="opacity:.18386;fill:#fff" d="m33.941 81.681a3.3588 3.0052 0 1 1 -6.7175 0 3.3588 3.0052 0 1 1 6.7175 0z" transform="matrix(.22448 0 0 .22743 146.03 30.028)"/>
    <path id="path5664" style="opacity:.18386;fill:#fff" d="m33.941 81.681a3.3588 3.0052 0 1 1 -6.7175 0 3.3588 3.0052 0 1 1 6.7175 0z" transform="matrix(.23281 0 0 .22798 143.95 27.182)"/>
    <path id="path5666" style="opacity:.18386;fill:#fff" d="m33.941 81.681a3.3588 3.0052 0 1 1 -6.7175 0 3.3588 3.0052 0 1 1 6.7175 0z" transform="matrix(.21028 0 0 .20328 146.95 32.298)"/>
    <path id="path5668" style="opacity:.18386;fill:#fff" d="m33.941 81.681a3.3588 3.0052 0 1 1 -6.7175 0 3.3588 3.0052 0 1 1 6.7175 0z" transform="matrix(.27833 0 0 .27254 143.34 26.229)"/>
    <path id="path5670" style="opacity:.18386;fill:#fff" d="m33.941 81.681a3.3588 3.0052 0 1 1 -6.7175 0 3.3588 3.0052 0 1 1 6.7175 0z" transform="matrix(.28775 0 0 .28177 138.01 23.077)"/>
    <path id="path5672" style="opacity:.18386;fill:#fff" d="m33.941 81.681a3.3588 3.0052 0 1 1 -6.7175 0 3.3588 3.0052 0 1 1 6.7175 0z" transform="matrix(.23490 0 0 .23002 142.44 27.583)"/>
    <path id="path5674" style="opacity:.60538;stroke-opacity:.64921;stroke:#648afa;stroke-width:1.2125;fill:none" d="m64.347 51.275a24.572 26.693 0 1 1 -49.144 0 24.572 26.693 0 1 1 49.144 0z" transform="matrix(1.0424 0 0 .90387 98.215 -11.585)"/>
    <path id="path5676" style="opacity:.40807;stroke-opacity:.58824;stroke:#648afa;stroke-width:1.2125;fill:none" d="m64.347 51.275a24.572 26.693 0 1 1 -49.144 0 24.572 26.693 0 1 1 49.144 0z" transform="matrix(1.0921 0 0 .94499 96.236 -13.693)"/>
    <path id="path5678" style="opacity:.098655;stroke:#fff;stroke-width:1.1071;fill:none" d="m64.347 51.275a24.572 26.693 0 1 1 -49.144 0 24.572 26.693 0 1 1 49.144 0z" transform="matrix(.93222 0 0 .79486 102.57 -6.1107)"/>
    <path id="path5680" style="opacity:.094170;stroke:#fff;stroke-width:1.1071;fill:none" d="m64.347 51.275a24.572 26.693 0 1 1 -49.144 0 24.572 26.693 0 1 1 49.144 0z" transform="matrix(.85844 0 0 .73825 105.5 -3.3407)"/>
    <path id="path5682" style="opacity:.93274;fill:url(#radialGradient3881)" d="m19.875 25.375a2.8125 3.375 0 1 1 -5.625 0 2.8125 3.375 0 1 1 5.625 0z" transform="matrix(1.7298 0 0 1.3706 109.08 -.94969)"/>
    <path id="path5684" style="opacity:.84753;fill:#c549a7" d="m19.875 25.375a2.8125 3.375 0 1 1 -5.625 0 2.8125 3.375 0 1 1 5.625 0z" transform="matrix(.75556 0 0 .61111 126.15 18.411)"/>
   </g>
   <g id="g5806" transform="matrix(.068359 0 0 .069228 8.6947 12.335)">
    <path id="path5808" style="opacity:.70507;fill:#595959" d="m64.347 51.275a24.572 26.693 0 1 1 -49.144 0 24.572 26.693 0 1 1 49.144 0z" transform="matrix(1.0055 0 0 .88904 99.42 -10.897)"/>
    <path id="path5810" style="fill:url(#radialGradient3875)" d="m64.347 51.275a24.572 26.693 0 1 1 -49.144 0 24.572 26.693 0 1 1 49.144 0z" transform="matrix(.92258 0 0 .74666 101.84 -3.9309)"/>
    <path id="path5812" style="opacity:.91031;stroke-opacity:.58824;stroke:#648afa;stroke-width:3.1717;fill:none" d="m64.347 51.275a24.572 26.693 0 1 1 -49.144 0 24.572 26.693 0 1 1 49.144 0z" transform="matrix(.97065 0 0 .83316 100.94 -8.0842)"/>
    <path id="path5814" style="opacity:.51121;stroke:#6c83f7;stroke-width:1.37;fill:none" d="m64.347 51.275a24.572 26.693 0 1 1 -49.144 0 24.572 26.693 0 1 1 49.144 0z" transform="matrix(.89136 0 0 .76057 104.16 -4.308)"/>
    <path id="path5816" style="opacity:.57848;fill:url(#radialGradient3877)" d="m64.347 51.275a24.572 26.693 0 1 1 -49.144 0 24.572 26.693 0 1 1 49.144 0z" transform="matrix(.25843 -.19618 .072656 .11816 112.5 22.18)"/>
    <path id="path5818" style="opacity:.61883;fill:url(#radialGradient3879)" d="m64.347 51.275a24.572 26.693 0 1 1 -49.144 0 24.572 26.693 0 1 1 49.144 0z" transform="matrix(.15895 -.096004 .054121 .047267 140.66 51.644)"/>
    <path id="path5820" style="opacity:.43498;filter:url(#filter9453);fill:#fff" d="m33.941 81.681a3.3588 3.0052 0 1 1 -6.7175 0 3.3588 3.0052 0 1 1 6.7175 0z" transform="matrix(.23787 0 0 .22225 119.84 9.5752)"/>
    <path id="path5822" style="opacity:.35426;fill:#fff" d="m33.941 81.681a3.3588 3.0052 0 1 1 -6.7175 0 3.3588 3.0052 0 1 1 6.7175 0z" transform="matrix(.27786 0 0 .28832 113.35 9.0283)"/>
    <path id="path5824" style="opacity:.35426;fill:#fff" d="m33.941 81.681a3.3588 3.0052 0 1 1 -6.7175 0 3.3588 3.0052 0 1 1 6.7175 0z" transform="matrix(.30882 0 0 .32044 112.44 4.7261)"/>
    <path id="path5826" style="opacity:.35426;fill:#fff" d="m33.941 81.681a3.3588 3.0052 0 1 1 -6.7175 0 3.3588 3.0052 0 1 1 6.7175 0z" transform="matrix(.28846 0 0 .29932 116.8 16.568)"/>
    <path id="path5828" style="opacity:.35426;fill:#fff" d="m33.941 81.681a3.3588 3.0052 0 1 1 -6.7175 0 3.3588 3.0052 0 1 1 6.7175 0z" transform="matrix(0.301 0 0 .31233 113.96 9.0698)"/>
    <path id="path5830" style="opacity:.35426;fill:#fff" d="m33.941 81.681a3.3588 3.0052 0 1 1 -6.7175 0 3.3588 3.0052 0 1 1 6.7175 0z" transform="matrix(.24052 0 0 .24957 116.33 22.103)"/>
    <path id="path5832" style="opacity:.35426;fill:#fff" d="m33.941 81.681a3.3588 3.0052 0 1 1 -6.7175 0 3.3588 3.0052 0 1 1 6.7175 0z" transform="matrix(.28163 0 0 .29223 114.76 16.15)"/>
    <path id="path5834" style="opacity:.35426;fill:#fff" d="m33.941 81.681a3.3588 3.0052 0 1 1 -6.7175 0 3.3588 3.0052 0 1 1 6.7175 0z" transform="matrix(.27129 0 0 .28150 119.47 22.574)"/>
    <path id="path5836" style="opacity:.35426;fill:#fff" d="m33.941 81.681a3.3588 3.0052 0 1 1 -6.7175 0 3.3588 3.0052 0 1 1 6.7175 0z" transform="matrix(.29487 0 0 .30597 120.8 14.897)"/>
    <path id="path5838" style="opacity:.35426;fill:#fff" d="m33.941 81.681a3.3588 3.0052 0 1 1 -6.7175 0 3.3588 3.0052 0 1 1 6.7175 0z" transform="matrix(.24399 0 0 .25318 122.56 23.824)"/>
    <path id="path5840" style="opacity:.35426;fill:#fff" d="m33.941 81.681a3.3588 3.0052 0 1 1 -6.7175 0 3.3588 3.0052 0 1 1 6.7175 0z" transform="matrix(.24726 0 0 .25657 121.51 25.341)"/>
    <path id="path5842" style="opacity:.35426;fill:#fff" d="m33.941 81.681a3.3588 3.0052 0 1 1 -6.7175 0 3.3588 3.0052 0 1 1 6.7175 0z" transform="matrix(.26547 0 0 .27547 124.41 27.953)"/>
    <path id="path5844" style="opacity:.35426;fill:#fff" d="m33.941 81.681a3.3588 3.0052 0 1 1 -6.7175 0 3.3588 3.0052 0 1 1 6.7175 0z" transform="matrix(.23401 0 0 .24282 125.29 22.741)"/>
    <path id="path5846" style="opacity:.34529;fill:#fff" d="m33.941 81.681a3.3588 3.0052 0 1 1 -6.7175 0 3.3588 3.0052 0 1 1 6.7175 0z" transform="matrix(.24828 0 0 .23197 130.18 .79085)"/>
    <path id="path5848" style="opacity:.19731;fill:#fff" d="m33.941 81.681a3.3588 3.0052 0 1 1 -6.7175 0 3.3588 3.0052 0 1 1 6.7175 0z" transform="matrix(.24410 0 0 .23903 135.65 2.2168)"/>
    <path id="path5850" style="opacity:.18386;fill:#fff" d="m33.941 81.681a3.3588 3.0052 0 1 1 -6.7175 0 3.3588 3.0052 0 1 1 6.7175 0z" transform="matrix(.23730 0 0 .23237 137.8 4.5491)"/>
    <path id="path5852" style="opacity:.18386;fill:#fff" d="m33.941 81.681a3.3588 3.0052 0 1 1 -6.7175 0 3.3588 3.0052 0 1 1 6.7175 0z" transform="matrix(.30992 0 0 .30348 141.12 -4.5651)"/>
    <path id="path5854" style="opacity:.18386;fill:#fff" d="m33.941 81.681a3.3588 3.0052 0 1 1 -6.7175 0 3.3588 3.0052 0 1 1 6.7175 0z" transform="matrix(.28997 0 0 .28395 142.79 2.6448)"/>
    <path id="path5856" style="opacity:.18386;fill:#fff" d="m33.941 81.681a3.3588 3.0052 0 1 1 -6.7175 0 3.3588 3.0052 0 1 1 6.7175 0z" transform="matrix(.25288 0 0 .24762 143.47 5.4314)"/>
    <path id="path5858" style="opacity:.18386;fill:#fff" d="m33.941 81.681a3.3588 3.0052 0 1 1 -6.7175 0 3.3588 3.0052 0 1 1 6.7175 0z" transform="matrix(.30688 0 0 .30050 142.44 4.1607)"/>
    <path id="path5860" style="opacity:.18386;fill:#fff" d="m33.941 81.681a3.3588 3.0052 0 1 1 -6.7175 0 3.3588 3.0052 0 1 1 6.7175 0z" transform="matrix(.25247 0 0 .24723 147.17 15.477)"/>
    <path id="path5862" style="opacity:.18386;fill:#fff" d="m33.941 81.681a3.3588 3.0052 0 1 1 -6.7175 0 3.3588 3.0052 0 1 1 6.7175 0z" transform="matrix(.29891 0 0 .29270 140.12 9.5262)"/>
    <path id="path5864" style="opacity:.18386;fill:#fff" d="m33.941 81.681a3.3588 3.0052 0 1 1 -6.7175 0 3.3588 3.0052 0 1 1 6.7175 0z" transform="matrix(.25346 0 0 .24819 142.98 13.959)"/>
    <path id="path5866" style="opacity:.18386;fill:#fff" d="m33.941 81.681a3.3588 3.0052 0 1 1 -6.7175 0 3.3588 3.0052 0 1 1 6.7175 0z" transform="matrix(.28202 0 0 .27616 143.49 20.481)"/>
    <path id="path5868" style="opacity:.18386;fill:#fff" d="m33.941 81.681a3.3588 3.0052 0 1 1 -6.7175 0 3.3588 3.0052 0 1 1 6.7175 0z" transform="matrix(.27733 0 0 .27157 142.43 23.924)"/>
    <path id="path5870" style="opacity:.18386;fill:#fff" d="m33.941 81.681a3.3588 3.0052 0 1 1 -6.7175 0 3.3588 3.0052 0 1 1 6.7175 0z" transform="matrix(.20626 0 0 .20897 149.41 30.274)"/>
    <path id="path5872" style="opacity:.18386;fill:#fff" d="m33.941 81.681a3.3588 3.0052 0 1 1 -6.7175 0 3.3588 3.0052 0 1 1 6.7175 0z" transform="matrix(.23265 0 0 .22782 146.38 21.403)"/>
    <path id="path5874" style="opacity:.18386;fill:#fff" d="m33.941 81.681a3.3588 3.0052 0 1 1 -6.7175 0 3.3588 3.0052 0 1 1 6.7175 0z" transform="matrix(.22448 0 0 .22743 146.03 30.028)"/>
    <path id="path5876" style="opacity:.18386;fill:#fff" d="m33.941 81.681a3.3588 3.0052 0 1 1 -6.7175 0 3.3588 3.0052 0 1 1 6.7175 0z" transform="matrix(.23281 0 0 .22798 143.95 27.182)"/>
    <path id="path5878" style="opacity:.18386;fill:#fff" d="m33.941 81.681a3.3588 3.0052 0 1 1 -6.7175 0 3.3588 3.0052 0 1 1 6.7175 0z" transform="matrix(.21028 0 0 .20328 146.95 32.298)"/>
    <path id="path5880" style="opacity:.18386;fill:#fff" d="m33.941 81.681a3.3588 3.0052 0 1 1 -6.7175 0 3.3588 3.0052 0 1 1 6.7175 0z" transform="matrix(.27833 0 0 .27254 143.34 26.229)"/>
    <path id="path5882" style="opacity:.18386;fill:#fff" d="m33.941 81.681a3.3588 3.0052 0 1 1 -6.7175 0 3.3588 3.0052 0 1 1 6.7175 0z" transform="matrix(.28775 0 0 .28177 138.01 23.077)"/>
    <path id="path5884" style="opacity:.18386;fill:#fff" d="m33.941 81.681a3.3588 3.0052 0 1 1 -6.7175 0 3.3588 3.0052 0 1 1 6.7175 0z" transform="matrix(.23490 0 0 .23002 142.44 27.583)"/>
    <path id="path5886" style="opacity:.60538;stroke-opacity:.64921;stroke:#648afa;stroke-width:1.2125;fill:none" d="m64.347 51.275a24.572 26.693 0 1 1 -49.144 0 24.572 26.693 0 1 1 49.144 0z" transform="matrix(1.0424 0 0 .90387 98.215 -11.585)"/>
    <path id="path5888" style="opacity:.40807;stroke-opacity:.58824;stroke:#648afa;stroke-width:1.2125;fill:none" d="m64.347 51.275a24.572 26.693 0 1 1 -49.144 0 24.572 26.693 0 1 1 49.144 0z" transform="matrix(1.0921 0 0 .94499 96.236 -13.693)"/>
    <path id="path5890" style="opacity:.098655;stroke:#fff;stroke-width:1.1071;fill:none" d="m64.347 51.275a24.572 26.693 0 1 1 -49.144 0 24.572 26.693 0 1 1 49.144 0z" transform="matrix(.93222 0 0 .79486 102.57 -6.1107)"/>
    <path id="path5892" style="opacity:.094170;stroke:#fff;stroke-width:1.1071;fill:none" d="m64.347 51.275a24.572 26.693 0 1 1 -49.144 0 24.572 26.693 0 1 1 49.144 0z" transform="matrix(.85844 0 0 .73825 105.5 -3.3407)"/>
    <path id="path5894" style="opacity:.93274;fill:url(#radialGradient3881)" d="m19.875 25.375a2.8125 3.375 0 1 1 -5.625 0 2.8125 3.375 0 1 1 5.625 0z" transform="matrix(1.7298 0 0 1.3706 109.08 -.94969)"/>
    <path id="path5896" style="opacity:.84753;fill:#c549a7" d="m19.875 25.375a2.8125 3.375 0 1 1 -5.625 0 2.8125 3.375 0 1 1 5.625 0z" transform="matrix(.75556 0 0 .61111 126.15 18.411)"/>
   </g>
   <g id="g5906" transform="matrix(0.134 0 0 .14628 53.731 19.267)">
    <path id="path5908" style="opacity:.70507;fill:#595959" d="m64.347 51.275a24.572 26.693 0 1 1 -49.144 0 24.572 26.693 0 1 1 49.144 0z" transform="matrix(1.0055 0 0 .88904 99.42 -10.897)"/>
    <path id="path5910" style="fill:url(#radialGradient3875)" d="m64.347 51.275a24.572 26.693 0 1 1 -49.144 0 24.572 26.693 0 1 1 49.144 0z" transform="matrix(.92258 0 0 .74666 101.84 -3.9309)"/>
    <path id="path5912" style="opacity:.91031;stroke-opacity:.58824;stroke:#648afa;stroke-width:3.1717;fill:none" d="m64.347 51.275a24.572 26.693 0 1 1 -49.144 0 24.572 26.693 0 1 1 49.144 0z" transform="matrix(.97065 0 0 .83316 100.94 -8.0842)"/>
    <path id="path5914" style="opacity:.51121;stroke:#6c83f7;stroke-width:1.37;fill:none" d="m64.347 51.275a24.572 26.693 0 1 1 -49.144 0 24.572 26.693 0 1 1 49.144 0z" transform="matrix(.89136 0 0 .76057 104.16 -4.308)"/>
    <path id="path5916" style="opacity:.57848;fill:url(#radialGradient3877)" d="m64.347 51.275a24.572 26.693 0 1 1 -49.144 0 24.572 26.693 0 1 1 49.144 0z" transform="matrix(.25843 -.19618 .072656 .11816 112.5 22.18)"/>
    <path id="path5918" style="opacity:.61883;fill:url(#radialGradient3879)" d="m64.347 51.275a24.572 26.693 0 1 1 -49.144 0 24.572 26.693 0 1 1 49.144 0z" transform="matrix(.15895 -.096004 .054121 .047267 140.66 51.644)"/>
    <path id="path5920" style="opacity:.43498;filter:url(#filter9453);fill:#fff" d="m33.941 81.681a3.3588 3.0052 0 1 1 -6.7175 0 3.3588 3.0052 0 1 1 6.7175 0z" transform="matrix(.23787 0 0 .22225 119.84 9.5752)"/>
    <path id="path5922" style="opacity:.35426;fill:#fff" d="m33.941 81.681a3.3588 3.0052 0 1 1 -6.7175 0 3.3588 3.0052 0 1 1 6.7175 0z" transform="matrix(.27786 0 0 .28832 113.35 9.0283)"/>
    <path id="path5924" style="opacity:.35426;fill:#fff" d="m33.941 81.681a3.3588 3.0052 0 1 1 -6.7175 0 3.3588 3.0052 0 1 1 6.7175 0z" transform="matrix(.30882 0 0 .32044 112.44 4.7261)"/>
    <path id="path5926" style="opacity:.35426;fill:#fff" d="m33.941 81.681a3.3588 3.0052 0 1 1 -6.7175 0 3.3588 3.0052 0 1 1 6.7175 0z" transform="matrix(.28846 0 0 .29932 116.8 16.568)"/>
    <path id="path5928" style="opacity:.35426;fill:#fff" d="m33.941 81.681a3.3588 3.0052 0 1 1 -6.7175 0 3.3588 3.0052 0 1 1 6.7175 0z" transform="matrix(0.301 0 0 .31233 113.96 9.0698)"/>
    <path id="path5930" style="opacity:.35426;fill:#fff" d="m33.941 81.681a3.3588 3.0052 0 1 1 -6.7175 0 3.3588 3.0052 0 1 1 6.7175 0z" transform="matrix(.24052 0 0 .24957 116.33 22.103)"/>
    <path id="path5932" style="opacity:.35426;fill:#fff" d="m33.941 81.681a3.3588 3.0052 0 1 1 -6.7175 0 3.3588 3.0052 0 1 1 6.7175 0z" transform="matrix(.28163 0 0 .29223 114.76 16.15)"/>
    <path id="path5934" style="opacity:.35426;fill:#fff" d="m33.941 81.681a3.3588 3.0052 0 1 1 -6.7175 0 3.3588 3.0052 0 1 1 6.7175 0z" transform="matrix(.27129 0 0 .28150 119.47 22.574)"/>
    <path id="path5936" style="opacity:.35426;fill:#fff" d="m33.941 81.681a3.3588 3.0052 0 1 1 -6.7175 0 3.3588 3.0052 0 1 1 6.7175 0z" transform="matrix(.29487 0 0 .30597 120.8 14.897)"/>
    <path id="path5938" style="opacity:.35426;fill:#fff" d="m33.941 81.681a3.3588 3.0052 0 1 1 -6.7175 0 3.3588 3.0052 0 1 1 6.7175 0z" transform="matrix(.24399 0 0 .25318 122.56 23.824)"/>
    <path id="path5940" style="opacity:.35426;fill:#fff" d="m33.941 81.681a3.3588 3.0052 0 1 1 -6.7175 0 3.3588 3.0052 0 1 1 6.7175 0z" transform="matrix(.24726 0 0 .25657 121.51 25.341)"/>
    <path id="path5942" style="opacity:.35426;fill:#fff" d="m33.941 81.681a3.3588 3.0052 0 1 1 -6.7175 0 3.3588 3.0052 0 1 1 6.7175 0z" transform="matrix(.26547 0 0 .27547 124.41 27.953)"/>
    <path id="path5944" style="opacity:.35426;fill:#fff" d="m33.941 81.681a3.3588 3.0052 0 1 1 -6.7175 0 3.3588 3.0052 0 1 1 6.7175 0z" transform="matrix(.23401 0 0 .24282 125.29 22.741)"/>
    <path id="path5946" style="opacity:.34529;fill:#fff" d="m33.941 81.681a3.3588 3.0052 0 1 1 -6.7175 0 3.3588 3.0052 0 1 1 6.7175 0z" transform="matrix(.24828 0 0 .23197 130.18 .79085)"/>
    <path id="path5948" style="opacity:.19731;fill:#fff" d="m33.941 81.681a3.3588 3.0052 0 1 1 -6.7175 0 3.3588 3.0052 0 1 1 6.7175 0z" transform="matrix(.24410 0 0 .23903 135.65 2.2168)"/>
    <path id="path5950" style="opacity:.18386;fill:#fff" d="m33.941 81.681a3.3588 3.0052 0 1 1 -6.7175 0 3.3588 3.0052 0 1 1 6.7175 0z" transform="matrix(.23730 0 0 .23237 137.8 4.5491)"/>
    <path id="path5952" style="opacity:.18386;fill:#fff" d="m33.941 81.681a3.3588 3.0052 0 1 1 -6.7175 0 3.3588 3.0052 0 1 1 6.7175 0z" transform="matrix(.30992 0 0 .30348 141.12 -4.5651)"/>
    <path id="path5954" style="opacity:.18386;fill:#fff" d="m33.941 81.681a3.3588 3.0052 0 1 1 -6.7175 0 3.3588 3.0052 0 1 1 6.7175 0z" transform="matrix(.28997 0 0 .28395 142.79 2.6448)"/>
    <path id="path5956" style="opacity:.18386;fill:#fff" d="m33.941 81.681a3.3588 3.0052 0 1 1 -6.7175 0 3.3588 3.0052 0 1 1 6.7175 0z" transform="matrix(.25288 0 0 .24762 143.47 5.4314)"/>
    <path id="path5958" style="opacity:.18386;fill:#fff" d="m33.941 81.681a3.3588 3.0052 0 1 1 -6.7175 0 3.3588 3.0052 0 1 1 6.7175 0z" transform="matrix(.30688 0 0 .30050 142.44 4.1607)"/>
    <path id="path5960" style="opacity:.18386;fill:#fff" d="m33.941 81.681a3.3588 3.0052 0 1 1 -6.7175 0 3.3588 3.0052 0 1 1 6.7175 0z" transform="matrix(.25247 0 0 .24723 147.17 15.477)"/>
    <path id="path5962" style="opacity:.18386;fill:#fff" d="m33.941 81.681a3.3588 3.0052 0 1 1 -6.7175 0 3.3588 3.0052 0 1 1 6.7175 0z" transform="matrix(.29891 0 0 .29270 140.12 9.5262)"/>
    <path id="path5964" style="opacity:.18386;fill:#fff" d="m33.941 81.681a3.3588 3.0052 0 1 1 -6.7175 0 3.3588 3.0052 0 1 1 6.7175 0z" transform="matrix(.25346 0 0 .24819 142.98 13.959)"/>
    <path id="path5966" style="opacity:.18386;fill:#fff" d="m33.941 81.681a3.3588 3.0052 0 1 1 -6.7175 0 3.3588 3.0052 0 1 1 6.7175 0z" transform="matrix(.28202 0 0 .27616 143.49 20.481)"/>
    <path id="path5968" style="opacity:.18386;fill:#fff" d="m33.941 81.681a3.3588 3.0052 0 1 1 -6.7175 0 3.3588 3.0052 0 1 1 6.7175 0z" transform="matrix(.27733 0 0 .27157 142.43 23.924)"/>
    <path id="path5970" style="opacity:.18386;fill:#fff" d="m33.941 81.681a3.3588 3.0052 0 1 1 -6.7175 0 3.3588 3.0052 0 1 1 6.7175 0z" transform="matrix(.20626 0 0 .20897 149.41 30.274)"/>
    <path id="path5972" style="opacity:.18386;fill:#fff" d="m33.941 81.681a3.3588 3.0052 0 1 1 -6.7175 0 3.3588 3.0052 0 1 1 6.7175 0z" transform="matrix(.23265 0 0 .22782 146.38 21.403)"/>
    <path id="path5974" style="opacity:.18386;fill:#fff" d="m33.941 81.681a3.3588 3.0052 0 1 1 -6.7175 0 3.3588 3.0052 0 1 1 6.7175 0z" transform="matrix(.22448 0 0 .22743 146.03 30.028)"/>
    <path id="path5976" style="opacity:.18386;fill:#fff" d="m33.941 81.681a3.3588 3.0052 0 1 1 -6.7175 0 3.3588 3.0052 0 1 1 6.7175 0z" transform="matrix(.23281 0 0 .22798 143.95 27.182)"/>
    <path id="path5978" style="opacity:.18386;fill:#fff" d="m33.941 81.681a3.3588 3.0052 0 1 1 -6.7175 0 3.3588 3.0052 0 1 1 6.7175 0z" transform="matrix(.21028 0 0 .20328 146.95 32.298)"/>
    <path id="path5980" style="opacity:.18386;fill:#fff" d="m33.941 81.681a3.3588 3.0052 0 1 1 -6.7175 0 3.3588 3.0052 0 1 1 6.7175 0z" transform="matrix(.27833 0 0 .27254 143.34 26.229)"/>
    <path id="path5982" style="opacity:.18386;fill:#fff" d="m33.941 81.681a3.3588 3.0052 0 1 1 -6.7175 0 3.3588 3.0052 0 1 1 6.7175 0z" transform="matrix(.28775 0 0 .28177 138.01 23.077)"/>
    <path id="path5984" style="opacity:.18386;fill:#fff" d="m33.941 81.681a3.3588 3.0052 0 1 1 -6.7175 0 3.3588 3.0052 0 1 1 6.7175 0z" transform="matrix(.23490 0 0 .23002 142.44 27.583)"/>
    <path id="path5986" style="opacity:.60538;stroke-opacity:.64921;stroke:#648afa;stroke-width:1.2125;fill:none" d="m64.347 51.275a24.572 26.693 0 1 1 -49.144 0 24.572 26.693 0 1 1 49.144 0z" transform="matrix(1.0424 0 0 .90387 98.215 -11.585)"/>
    <path id="path5988" style="opacity:.40807;stroke-opacity:.58824;stroke:#648afa;stroke-width:1.2125;fill:none" d="m64.347 51.275a24.572 26.693 0 1 1 -49.144 0 24.572 26.693 0 1 1 49.144 0z" transform="matrix(1.0921 0 0 .94499 96.236 -13.693)"/>
    <path id="path5990" style="opacity:.098655;stroke:#fff;stroke-width:1.1071;fill:none" d="m64.347 51.275a24.572 26.693 0 1 1 -49.144 0 24.572 26.693 0 1 1 49.144 0z" transform="matrix(.93222 0 0 .79486 102.57 -6.1107)"/>
    <path id="path5992" style="opacity:.094170;stroke:#fff;stroke-width:1.1071;fill:none" d="m64.347 51.275a24.572 26.693 0 1 1 -49.144 0 24.572 26.693 0 1 1 49.144 0z" transform="matrix(.85844 0 0 .73825 105.5 -3.3407)"/>
    <path id="path5994" style="opacity:.93274;fill:url(#radialGradient3881)" d="m19.875 25.375a2.8125 3.375 0 1 1 -5.625 0 2.8125 3.375 0 1 1 5.625 0z" transform="matrix(1.7298 0 0 1.3706 109.08 -.94969)"/>
    <path id="path5996" style="opacity:.84753;fill:#c549a7" d="m19.875 25.375a2.8125 3.375 0 1 1 -5.625 0 2.8125 3.375 0 1 1 5.625 0z" transform="matrix(.75556 0 0 .61111 126.15 18.411)"/>
   </g>
   <g id="g6006" transform="matrix(.12490 0 0 .13175 1.9021 30.215)">
    <path id="path6008" style="opacity:.70507;fill:#595959" d="m64.347 51.275a24.572 26.693 0 1 1 -49.144 0 24.572 26.693 0 1 1 49.144 0z" transform="matrix(1.0055 0 0 .88904 99.42 -10.897)"/>
    <path id="path6010" style="fill:url(#radialGradient3875)" d="m64.347 51.275a24.572 26.693 0 1 1 -49.144 0 24.572 26.693 0 1 1 49.144 0z" transform="matrix(.92258 0 0 .74666 101.84 -3.9309)"/>
    <path id="path6012" style="opacity:.91031;stroke-opacity:.58824;stroke:#648afa;stroke-width:3.1717;fill:none" d="m64.347 51.275a24.572 26.693 0 1 1 -49.144 0 24.572 26.693 0 1 1 49.144 0z" transform="matrix(.97065 0 0 .83316 100.94 -8.0842)"/>
    <path id="path6014" style="opacity:.51121;stroke:#6c83f7;stroke-width:1.37;fill:none" d="m64.347 51.275a24.572 26.693 0 1 1 -49.144 0 24.572 26.693 0 1 1 49.144 0z" transform="matrix(.89136 0 0 .76057 104.16 -4.308)"/>
    <path id="path6016" style="opacity:.57848;fill:url(#radialGradient3877)" d="m64.347 51.275a24.572 26.693 0 1 1 -49.144 0 24.572 26.693 0 1 1 49.144 0z" transform="matrix(.25843 -.19618 .072656 .11816 112.5 22.18)"/>
    <path id="path6018" style="opacity:.61883;fill:url(#radialGradient3879)" d="m64.347 51.275a24.572 26.693 0 1 1 -49.144 0 24.572 26.693 0 1 1 49.144 0z" transform="matrix(.15895 -.096004 .054121 .047267 140.66 51.644)"/>
    <path id="path6020" style="opacity:.43498;filter:url(#filter9453);fill:#fff" d="m33.941 81.681a3.3588 3.0052 0 1 1 -6.7175 0 3.3588 3.0052 0 1 1 6.7175 0z" transform="matrix(.23787 0 0 .22225 119.84 9.5752)"/>
    <path id="path6022" style="opacity:.35426;fill:#fff" d="m33.941 81.681a3.3588 3.0052 0 1 1 -6.7175 0 3.3588 3.0052 0 1 1 6.7175 0z" transform="matrix(.27786 0 0 .28832 113.35 9.0283)"/>
    <path id="path6024" style="opacity:.35426;fill:#fff" d="m33.941 81.681a3.3588 3.0052 0 1 1 -6.7175 0 3.3588 3.0052 0 1 1 6.7175 0z" transform="matrix(.30882 0 0 .32044 112.44 4.7261)"/>
    <path id="path6026" style="opacity:.35426;fill:#fff" d="m33.941 81.681a3.3588 3.0052 0 1 1 -6.7175 0 3.3588 3.0052 0 1 1 6.7175 0z" transform="matrix(.28846 0 0 .29932 116.8 16.568)"/>
    <path id="path6028" style="opacity:.35426;fill:#fff" d="m33.941 81.681a3.3588 3.0052 0 1 1 -6.7175 0 3.3588 3.0052 0 1 1 6.7175 0z" transform="matrix(0.301 0 0 .31233 113.96 9.0698)"/>
    <path id="path6030" style="opacity:.35426;fill:#fff" d="m33.941 81.681a3.3588 3.0052 0 1 1 -6.7175 0 3.3588 3.0052 0 1 1 6.7175 0z" transform="matrix(.24052 0 0 .24957 116.33 22.103)"/>
    <path id="path6032" style="opacity:.35426;fill:#fff" d="m33.941 81.681a3.3588 3.0052 0 1 1 -6.7175 0 3.3588 3.0052 0 1 1 6.7175 0z" transform="matrix(.28163 0 0 .29223 114.76 16.15)"/>
    <path id="path6034" style="opacity:.35426;fill:#fff" d="m33.941 81.681a3.3588 3.0052 0 1 1 -6.7175 0 3.3588 3.0052 0 1 1 6.7175 0z" transform="matrix(.27129 0 0 .28150 119.47 22.574)"/>
    <path id="path6036" style="opacity:.35426;fill:#fff" d="m33.941 81.681a3.3588 3.0052 0 1 1 -6.7175 0 3.3588 3.0052 0 1 1 6.7175 0z" transform="matrix(.29487 0 0 .30597 120.8 14.897)"/>
    <path id="path6038" style="opacity:.35426;fill:#fff" d="m33.941 81.681a3.3588 3.0052 0 1 1 -6.7175 0 3.3588 3.0052 0 1 1 6.7175 0z" transform="matrix(.24399 0 0 .25318 122.56 23.824)"/>
    <path id="path6040" style="opacity:.35426;fill:#fff" d="m33.941 81.681a3.3588 3.0052 0 1 1 -6.7175 0 3.3588 3.0052 0 1 1 6.7175 0z" transform="matrix(.24726 0 0 .25657 121.51 25.341)"/>
    <path id="path6042" style="opacity:.35426;fill:#fff" d="m33.941 81.681a3.3588 3.0052 0 1 1 -6.7175 0 3.3588 3.0052 0 1 1 6.7175 0z" transform="matrix(.26547 0 0 .27547 124.41 27.953)"/>
    <path id="path6044" style="opacity:.35426;fill:#fff" d="m33.941 81.681a3.3588 3.0052 0 1 1 -6.7175 0 3.3588 3.0052 0 1 1 6.7175 0z" transform="matrix(.23401 0 0 .24282 125.29 22.741)"/>
    <path id="path6046" style="opacity:.34529;fill:#fff" d="m33.941 81.681a3.3588 3.0052 0 1 1 -6.7175 0 3.3588 3.0052 0 1 1 6.7175 0z" transform="matrix(.24828 0 0 .23197 130.18 .79085)"/>
    <path id="path6048" style="opacity:.19731;fill:#fff" d="m33.941 81.681a3.3588 3.0052 0 1 1 -6.7175 0 3.3588 3.0052 0 1 1 6.7175 0z" transform="matrix(.24410 0 0 .23903 135.65 2.2168)"/>
    <path id="path6050" style="opacity:.18386;fill:#fff" d="m33.941 81.681a3.3588 3.0052 0 1 1 -6.7175 0 3.3588 3.0052 0 1 1 6.7175 0z" transform="matrix(.23730 0 0 .23237 137.8 4.5491)"/>
    <path id="path6052" style="opacity:.18386;fill:#fff" d="m33.941 81.681a3.3588 3.0052 0 1 1 -6.7175 0 3.3588 3.0052 0 1 1 6.7175 0z" transform="matrix(.30992 0 0 .30348 141.12 -4.5651)"/>
    <path id="path6054" style="opacity:.18386;fill:#fff" d="m33.941 81.681a3.3588 3.0052 0 1 1 -6.7175 0 3.3588 3.0052 0 1 1 6.7175 0z" transform="matrix(.28997 0 0 .28395 142.79 2.6448)"/>
    <path id="path6056" style="opacity:.18386;fill:#fff" d="m33.941 81.681a3.3588 3.0052 0 1 1 -6.7175 0 3.3588 3.0052 0 1 1 6.7175 0z" transform="matrix(.25288 0 0 .24762 143.47 5.4314)"/>
    <path id="path6058" style="opacity:.18386;fill:#fff" d="m33.941 81.681a3.3588 3.0052 0 1 1 -6.7175 0 3.3588 3.0052 0 1 1 6.7175 0z" transform="matrix(.30688 0 0 .30050 142.44 4.1607)"/>
    <path id="path6060" style="opacity:.18386;fill:#fff" d="m33.941 81.681a3.3588 3.0052 0 1 1 -6.7175 0 3.3588 3.0052 0 1 1 6.7175 0z" transform="matrix(.25247 0 0 .24723 147.17 15.477)"/>
    <path id="path6062" style="opacity:.18386;fill:#fff" d="m33.941 81.681a3.3588 3.0052 0 1 1 -6.7175 0 3.3588 3.0052 0 1 1 6.7175 0z" transform="matrix(.29891 0 0 .29270 140.12 9.5262)"/>
    <path id="path6064" style="opacity:.18386;fill:#fff" d="m33.941 81.681a3.3588 3.0052 0 1 1 -6.7175 0 3.3588 3.0052 0 1 1 6.7175 0z" transform="matrix(.25346 0 0 .24819 142.98 13.959)"/>
    <path id="path6066" style="opacity:.18386;fill:#fff" d="m33.941 81.681a3.3588 3.0052 0 1 1 -6.7175 0 3.3588 3.0052 0 1 1 6.7175 0z" transform="matrix(.28202 0 0 .27616 143.49 20.481)"/>
    <path id="path6068" style="opacity:.18386;fill:#fff" d="m33.941 81.681a3.3588 3.0052 0 1 1 -6.7175 0 3.3588 3.0052 0 1 1 6.7175 0z" transform="matrix(.27733 0 0 .27157 142.43 23.924)"/>
    <path id="path6070" style="opacity:.18386;fill:#fff" d="m33.941 81.681a3.3588 3.0052 0 1 1 -6.7175 0 3.3588 3.0052 0 1 1 6.7175 0z" transform="matrix(.20626 0 0 .20897 149.41 30.274)"/>
    <path id="path6072" style="opacity:.18386;fill:#fff" d="m33.941 81.681a3.3588 3.0052 0 1 1 -6.7175 0 3.3588 3.0052 0 1 1 6.7175 0z" transform="matrix(.23265 0 0 .22782 146.38 21.403)"/>
    <path id="path6074" style="opacity:.18386;fill:#fff" d="m33.941 81.681a3.3588 3.0052 0 1 1 -6.7175 0 3.3588 3.0052 0 1 1 6.7175 0z" transform="matrix(.22448 0 0 .22743 146.03 30.028)"/>
    <path id="path6076" style="opacity:.18386;fill:#fff" d="m33.941 81.681a3.3588 3.0052 0 1 1 -6.7175 0 3.3588 3.0052 0 1 1 6.7175 0z" transform="matrix(.23281 0 0 .22798 143.95 27.182)"/>
    <path id="path6078" style="opacity:.18386;fill:#fff" d="m33.941 81.681a3.3588 3.0052 0 1 1 -6.7175 0 3.3588 3.0052 0 1 1 6.7175 0z" transform="matrix(.21028 0 0 .20328 146.95 32.298)"/>
    <path id="path6080" style="opacity:.18386;fill:#fff" d="m33.941 81.681a3.3588 3.0052 0 1 1 -6.7175 0 3.3588 3.0052 0 1 1 6.7175 0z" transform="matrix(.27833 0 0 .27254 143.34 26.229)"/>
    <path id="path6082" style="opacity:.18386;fill:#fff" d="m33.941 81.681a3.3588 3.0052 0 1 1 -6.7175 0 3.3588 3.0052 0 1 1 6.7175 0z" transform="matrix(.28775 0 0 .28177 138.01 23.077)"/>
    <path id="path6084" style="opacity:.18386;fill:#fff" d="m33.941 81.681a3.3588 3.0052 0 1 1 -6.7175 0 3.3588 3.0052 0 1 1 6.7175 0z" transform="matrix(.23490 0 0 .23002 142.44 27.583)"/>
    <path id="path6086" style="opacity:.60538;stroke-opacity:.64921;stroke:#648afa;stroke-width:1.2125;fill:none" d="m64.347 51.275a24.572 26.693 0 1 1 -49.144 0 24.572 26.693 0 1 1 49.144 0z" transform="matrix(1.0424 0 0 .90387 98.215 -11.585)"/>
    <path id="path6088" style="opacity:.40807;stroke-opacity:.58824;stroke:#648afa;stroke-width:1.2125;fill:none" d="m64.347 51.275a24.572 26.693 0 1 1 -49.144 0 24.572 26.693 0 1 1 49.144 0z" transform="matrix(1.0921 0 0 .94499 96.236 -13.693)"/>
    <path id="path6090" style="opacity:.098655;stroke:#fff;stroke-width:1.1071;fill:none" d="m64.347 51.275a24.572 26.693 0 1 1 -49.144 0 24.572 26.693 0 1 1 49.144 0z" transform="matrix(.93222 0 0 .79486 102.57 -6.1107)"/>
    <path id="path6092" style="opacity:.094170;stroke:#fff;stroke-width:1.1071;fill:none" d="m64.347 51.275a24.572 26.693 0 1 1 -49.144 0 24.572 26.693 0 1 1 49.144 0z" transform="matrix(.85844 0 0 .73825 105.5 -3.3407)"/>
    <path id="path6094" style="opacity:.93274;fill:url(#radialGradient3881)" d="m19.875 25.375a2.8125 3.375 0 1 1 -5.625 0 2.8125 3.375 0 1 1 5.625 0z" transform="matrix(1.7298 0 0 1.3706 109.08 -.94969)"/>
    <path id="path6096" style="opacity:.84753;fill:#c549a7" d="m19.875 25.375a2.8125 3.375 0 1 1 -5.625 0 2.8125 3.375 0 1 1 5.625 0z" transform="matrix(.75556 0 0 .61111 126.15 18.411)"/>
   </g>
   <g id="g6106" transform="matrix(.054845 0 0 .054875 10.707 58.209)">
    <path id="path6108" style="opacity:.70507;fill:#595959" d="m64.347 51.275a24.572 26.693 0 1 1 -49.144 0 24.572 26.693 0 1 1 49.144 0z" transform="matrix(1.0055 0 0 .88904 99.42 -10.897)"/>
    <path id="path6110" style="fill:url(#radialGradient3875)" d="m64.347 51.275a24.572 26.693 0 1 1 -49.144 0 24.572 26.693 0 1 1 49.144 0z" transform="matrix(.92258 0 0 .74666 101.84 -3.9309)"/>
    <path id="path6112" style="opacity:.91031;stroke-opacity:.58824;stroke:#648afa;stroke-width:3.1717;fill:none" d="m64.347 51.275a24.572 26.693 0 1 1 -49.144 0 24.572 26.693 0 1 1 49.144 0z" transform="matrix(.97065 0 0 .83316 100.94 -8.0842)"/>
    <path id="path6114" style="opacity:.51121;stroke:#6c83f7;stroke-width:1.37;fill:none" d="m64.347 51.275a24.572 26.693 0 1 1 -49.144 0 24.572 26.693 0 1 1 49.144 0z" transform="matrix(.89136 0 0 .76057 104.16 -4.308)"/>
    <path id="path6116" style="opacity:.57848;fill:url(#radialGradient3877)" d="m64.347 51.275a24.572 26.693 0 1 1 -49.144 0 24.572 26.693 0 1 1 49.144 0z" transform="matrix(.25843 -.19618 .072656 .11816 112.5 22.18)"/>
    <path id="path6118" style="opacity:.61883;fill:url(#radialGradient3879)" d="m64.347 51.275a24.572 26.693 0 1 1 -49.144 0 24.572 26.693 0 1 1 49.144 0z" transform="matrix(.15895 -.096004 .054121 .047267 140.66 51.644)"/>
    <path id="path6120" style="opacity:.43498;filter:url(#filter9453);fill:#fff" d="m33.941 81.681a3.3588 3.0052 0 1 1 -6.7175 0 3.3588 3.0052 0 1 1 6.7175 0z" transform="matrix(.23787 0 0 .22225 119.84 9.5752)"/>
    <path id="path6122" style="opacity:.35426;fill:#fff" d="m33.941 81.681a3.3588 3.0052 0 1 1 -6.7175 0 3.3588 3.0052 0 1 1 6.7175 0z" transform="matrix(.27786 0 0 .28832 113.35 9.0283)"/>
    <path id="path6124" style="opacity:.35426;fill:#fff" d="m33.941 81.681a3.3588 3.0052 0 1 1 -6.7175 0 3.3588 3.0052 0 1 1 6.7175 0z" transform="matrix(.30882 0 0 .32044 112.44 4.7261)"/>
    <path id="path6126" style="opacity:.35426;fill:#fff" d="m33.941 81.681a3.3588 3.0052 0 1 1 -6.7175 0 3.3588 3.0052 0 1 1 6.7175 0z" transform="matrix(.28846 0 0 .29932 116.8 16.568)"/>
    <path id="path6128" style="opacity:.35426;fill:#fff" d="m33.941 81.681a3.3588 3.0052 0 1 1 -6.7175 0 3.3588 3.0052 0 1 1 6.7175 0z" transform="matrix(0.301 0 0 .31233 113.96 9.0698)"/>
    <path id="path6130" style="opacity:.35426;fill:#fff" d="m33.941 81.681a3.3588 3.0052 0 1 1 -6.7175 0 3.3588 3.0052 0 1 1 6.7175 0z" transform="matrix(.24052 0 0 .24957 116.33 22.103)"/>
    <path id="path6132" style="opacity:.35426;fill:#fff" d="m33.941 81.681a3.3588 3.0052 0 1 1 -6.7175 0 3.3588 3.0052 0 1 1 6.7175 0z" transform="matrix(.28163 0 0 .29223 114.76 16.15)"/>
    <path id="path6134" style="opacity:.35426;fill:#fff" d="m33.941 81.681a3.3588 3.0052 0 1 1 -6.7175 0 3.3588 3.0052 0 1 1 6.7175 0z" transform="matrix(.27129 0 0 .28150 119.47 22.574)"/>
    <path id="path6136" style="opacity:.35426;fill:#fff" d="m33.941 81.681a3.3588 3.0052 0 1 1 -6.7175 0 3.3588 3.0052 0 1 1 6.7175 0z" transform="matrix(.29487 0 0 .30597 120.8 14.897)"/>
    <path id="path6138" style="opacity:.35426;fill:#fff" d="m33.941 81.681a3.3588 3.0052 0 1 1 -6.7175 0 3.3588 3.0052 0 1 1 6.7175 0z" transform="matrix(.24399 0 0 .25318 122.56 23.824)"/>
    <path id="path6140" style="opacity:.35426;fill:#fff" d="m33.941 81.681a3.3588 3.0052 0 1 1 -6.7175 0 3.3588 3.0052 0 1 1 6.7175 0z" transform="matrix(.24726 0 0 .25657 121.51 25.341)"/>
    <path id="path6142" style="opacity:.35426;fill:#fff" d="m33.941 81.681a3.3588 3.0052 0 1 1 -6.7175 0 3.3588 3.0052 0 1 1 6.7175 0z" transform="matrix(.26547 0 0 .27547 124.41 27.953)"/>
    <path id="path6144" style="opacity:.35426;fill:#fff" d="m33.941 81.681a3.3588 3.0052 0 1 1 -6.7175 0 3.3588 3.0052 0 1 1 6.7175 0z" transform="matrix(.23401 0 0 .24282 125.29 22.741)"/>
    <path id="path6146" style="opacity:.34529;fill:#fff" d="m33.941 81.681a3.3588 3.0052 0 1 1 -6.7175 0 3.3588 3.0052 0 1 1 6.7175 0z" transform="matrix(.24828 0 0 .23197 130.18 .79085)"/>
    <path id="path6148" style="opacity:.19731;fill:#fff" d="m33.941 81.681a3.3588 3.0052 0 1 1 -6.7175 0 3.3588 3.0052 0 1 1 6.7175 0z" transform="matrix(.24410 0 0 .23903 135.65 2.2168)"/>
    <path id="path6150" style="opacity:.18386;fill:#fff" d="m33.941 81.681a3.3588 3.0052 0 1 1 -6.7175 0 3.3588 3.0052 0 1 1 6.7175 0z" transform="matrix(.23730 0 0 .23237 137.8 4.5491)"/>
    <path id="path6152" style="opacity:.18386;fill:#fff" d="m33.941 81.681a3.3588 3.0052 0 1 1 -6.7175 0 3.3588 3.0052 0 1 1 6.7175 0z" transform="matrix(.30992 0 0 .30348 141.12 -4.5651)"/>
    <path id="path6154" style="opacity:.18386;fill:#fff" d="m33.941 81.681a3.3588 3.0052 0 1 1 -6.7175 0 3.3588 3.0052 0 1 1 6.7175 0z" transform="matrix(.28997 0 0 .28395 142.79 2.6448)"/>
    <path id="path6156" style="opacity:.18386;fill:#fff" d="m33.941 81.681a3.3588 3.0052 0 1 1 -6.7175 0 3.3588 3.0052 0 1 1 6.7175 0z" transform="matrix(.25288 0 0 .24762 143.47 5.4314)"/>
    <path id="path6158" style="opacity:.18386;fill:#fff" d="m33.941 81.681a3.3588 3.0052 0 1 1 -6.7175 0 3.3588 3.0052 0 1 1 6.7175 0z" transform="matrix(.30688 0 0 .30050 142.44 4.1607)"/>
    <path id="path6160" style="opacity:.18386;fill:#fff" d="m33.941 81.681a3.3588 3.0052 0 1 1 -6.7175 0 3.3588 3.0052 0 1 1 6.7175 0z" transform="matrix(.25247 0 0 .24723 147.17 15.477)"/>
    <path id="path6162" style="opacity:.18386;fill:#fff" d="m33.941 81.681a3.3588 3.0052 0 1 1 -6.7175 0 3.3588 3.0052 0 1 1 6.7175 0z" transform="matrix(.29891 0 0 .29270 140.12 9.5262)"/>
    <path id="path6164" style="opacity:.18386;fill:#fff" d="m33.941 81.681a3.3588 3.0052 0 1 1 -6.7175 0 3.3588 3.0052 0 1 1 6.7175 0z" transform="matrix(.25346 0 0 .24819 142.98 13.959)"/>
    <path id="path6166" style="opacity:.18386;fill:#fff" d="m33.941 81.681a3.3588 3.0052 0 1 1 -6.7175 0 3.3588 3.0052 0 1 1 6.7175 0z" transform="matrix(.28202 0 0 .27616 143.49 20.481)"/>
    <path id="path6168" style="opacity:.18386;fill:#fff" d="m33.941 81.681a3.3588 3.0052 0 1 1 -6.7175 0 3.3588 3.0052 0 1 1 6.7175 0z" transform="matrix(.27733 0 0 .27157 142.43 23.924)"/>
    <path id="path6170" style="opacity:.18386;fill:#fff" d="m33.941 81.681a3.3588 3.0052 0 1 1 -6.7175 0 3.3588 3.0052 0 1 1 6.7175 0z" transform="matrix(.20626 0 0 .20897 149.41 30.274)"/>
    <path id="path6172" style="opacity:.18386;fill:#fff" d="m33.941 81.681a3.3588 3.0052 0 1 1 -6.7175 0 3.3588 3.0052 0 1 1 6.7175 0z" transform="matrix(.23265 0 0 .22782 146.38 21.403)"/>
    <path id="path6174" style="opacity:.18386;fill:#fff" d="m33.941 81.681a3.3588 3.0052 0 1 1 -6.7175 0 3.3588 3.0052 0 1 1 6.7175 0z" transform="matrix(.22448 0 0 .22743 146.03 30.028)"/>
    <path id="path6176" style="opacity:.18386;fill:#fff" d="m33.941 81.681a3.3588 3.0052 0 1 1 -6.7175 0 3.3588 3.0052 0 1 1 6.7175 0z" transform="matrix(.23281 0 0 .22798 143.95 27.182)"/>
    <path id="path6178" style="opacity:.18386;fill:#fff" d="m33.941 81.681a3.3588 3.0052 0 1 1 -6.7175 0 3.3588 3.0052 0 1 1 6.7175 0z" transform="matrix(.21028 0 0 .20328 146.95 32.298)"/>
    <path id="path6180" style="opacity:.18386;fill:#fff" d="m33.941 81.681a3.3588 3.0052 0 1 1 -6.7175 0 3.3588 3.0052 0 1 1 6.7175 0z" transform="matrix(.27833 0 0 .27254 143.34 26.229)"/>
    <path id="path6182" style="opacity:.18386;fill:#fff" d="m33.941 81.681a3.3588 3.0052 0 1 1 -6.7175 0 3.3588 3.0052 0 1 1 6.7175 0z" transform="matrix(.28775 0 0 .28177 138.01 23.077)"/>
    <path id="path6184" style="opacity:.18386;fill:#fff" d="m33.941 81.681a3.3588 3.0052 0 1 1 -6.7175 0 3.3588 3.0052 0 1 1 6.7175 0z" transform="matrix(.23490 0 0 .23002 142.44 27.583)"/>
    <path id="path6186" style="opacity:.60538;stroke-opacity:.64921;stroke:#648afa;stroke-width:1.2125;fill:none" d="m64.347 51.275a24.572 26.693 0 1 1 -49.144 0 24.572 26.693 0 1 1 49.144 0z" transform="matrix(1.0424 0 0 .90387 98.215 -11.585)"/>
    <path id="path6188" style="opacity:.40807;stroke-opacity:.58824;stroke:#648afa;stroke-width:1.2125;fill:none" d="m64.347 51.275a24.572 26.693 0 1 1 -49.144 0 24.572 26.693 0 1 1 49.144 0z" transform="matrix(1.0921 0 0 .94499 96.236 -13.693)"/>
    <path id="path6190" style="opacity:.098655;stroke:#fff;stroke-width:1.1071;fill:none" d="m64.347 51.275a24.572 26.693 0 1 1 -49.144 0 24.572 26.693 0 1 1 49.144 0z" transform="matrix(.93222 0 0 .79486 102.57 -6.1107)"/>
    <path id="path6192" style="opacity:.094170;stroke:#fff;stroke-width:1.1071;fill:none" d="m64.347 51.275a24.572 26.693 0 1 1 -49.144 0 24.572 26.693 0 1 1 49.144 0z" transform="matrix(.85844 0 0 .73825 105.5 -3.3407)"/>
    <path id="path6194" style="opacity:.93274;fill:url(#radialGradient3881)" d="m19.875 25.375a2.8125 3.375 0 1 1 -5.625 0 2.8125 3.375 0 1 1 5.625 0z" transform="matrix(1.7298 0 0 1.3706 109.08 -.94969)"/>
    <path id="path6196" style="opacity:.84753;fill:#c549a7" d="m19.875 25.375a2.8125 3.375 0 1 1 -5.625 0 2.8125 3.375 0 1 1 5.625 0z" transform="matrix(.75556 0 0 .61111 126.15 18.411)"/>
   </g>
   <g id="g6206" transform="matrix(.17951 0 0 .18499 -6.661 71.535)">
    <path id="path6208" style="opacity:.70507;fill:#595959" d="m64.347 51.275a24.572 26.693 0 1 1 -49.144 0 24.572 26.693 0 1 1 49.144 0z" transform="matrix(1.0055 0 0 .88904 99.42 -10.897)"/>
    <path id="path6210" style="fill:url(#radialGradient3875)" d="m64.347 51.275a24.572 26.693 0 1 1 -49.144 0 24.572 26.693 0 1 1 49.144 0z" transform="matrix(.92258 0 0 .74666 101.84 -3.9309)"/>
    <path id="path6212" style="opacity:.91031;stroke-opacity:.58824;stroke:#648afa;stroke-width:3.1717;fill:none" d="m64.347 51.275a24.572 26.693 0 1 1 -49.144 0 24.572 26.693 0 1 1 49.144 0z" transform="matrix(.97065 0 0 .83316 100.94 -8.0842)"/>
    <path id="path6214" style="opacity:.51121;stroke:#6c83f7;stroke-width:1.37;fill:none" d="m64.347 51.275a24.572 26.693 0 1 1 -49.144 0 24.572 26.693 0 1 1 49.144 0z" transform="matrix(.89136 0 0 .76057 104.16 -4.308)"/>
    <path id="path6216" style="opacity:.57848;fill:url(#radialGradient3877)" d="m64.347 51.275a24.572 26.693 0 1 1 -49.144 0 24.572 26.693 0 1 1 49.144 0z" transform="matrix(.25843 -.19618 .072656 .11816 112.5 22.18)"/>
    <path id="path6218" style="opacity:.61883;fill:url(#radialGradient3879)" d="m64.347 51.275a24.572 26.693 0 1 1 -49.144 0 24.572 26.693 0 1 1 49.144 0z" transform="matrix(.15895 -.096004 .054121 .047267 140.66 51.644)"/>
    <path id="path6220" style="opacity:.43498;filter:url(#filter9453);fill:#fff" d="m33.941 81.681a3.3588 3.0052 0 1 1 -6.7175 0 3.3588 3.0052 0 1 1 6.7175 0z" transform="matrix(.23787 0 0 .22225 119.84 9.5752)"/>
    <path id="path6222" style="opacity:.35426;fill:#fff" d="m33.941 81.681a3.3588 3.0052 0 1 1 -6.7175 0 3.3588 3.0052 0 1 1 6.7175 0z" transform="matrix(.27786 0 0 .28832 113.35 9.0283)"/>
    <path id="path6224" style="opacity:.35426;fill:#fff" d="m33.941 81.681a3.3588 3.0052 0 1 1 -6.7175 0 3.3588 3.0052 0 1 1 6.7175 0z" transform="matrix(.30882 0 0 .32044 112.44 4.7261)"/>
    <path id="path6226" style="opacity:.35426;fill:#fff" d="m33.941 81.681a3.3588 3.0052 0 1 1 -6.7175 0 3.3588 3.0052 0 1 1 6.7175 0z" transform="matrix(.28846 0 0 .29932 116.8 16.568)"/>
    <path id="path6228" style="opacity:.35426;fill:#fff" d="m33.941 81.681a3.3588 3.0052 0 1 1 -6.7175 0 3.3588 3.0052 0 1 1 6.7175 0z" transform="matrix(0.301 0 0 .31233 113.96 9.0698)"/>
    <path id="path6230" style="opacity:.35426;fill:#fff" d="m33.941 81.681a3.3588 3.0052 0 1 1 -6.7175 0 3.3588 3.0052 0 1 1 6.7175 0z" transform="matrix(.24052 0 0 .24957 116.33 22.103)"/>
    <path id="path6232" style="opacity:.35426;fill:#fff" d="m33.941 81.681a3.3588 3.0052 0 1 1 -6.7175 0 3.3588 3.0052 0 1 1 6.7175 0z" transform="matrix(.28163 0 0 .29223 114.76 16.15)"/>
    <path id="path6234" style="opacity:.35426;fill:#fff" d="m33.941 81.681a3.3588 3.0052 0 1 1 -6.7175 0 3.3588 3.0052 0 1 1 6.7175 0z" transform="matrix(.27129 0 0 .28150 119.47 22.574)"/>
    <path id="path6236" style="opacity:.35426;fill:#fff" d="m33.941 81.681a3.3588 3.0052 0 1 1 -6.7175 0 3.3588 3.0052 0 1 1 6.7175 0z" transform="matrix(.29487 0 0 .30597 120.8 14.897)"/>
    <path id="path6238" style="opacity:.35426;fill:#fff" d="m33.941 81.681a3.3588 3.0052 0 1 1 -6.7175 0 3.3588 3.0052 0 1 1 6.7175 0z" transform="matrix(.24399 0 0 .25318 122.56 23.824)"/>
    <path id="path6240" style="opacity:.35426;fill:#fff" d="m33.941 81.681a3.3588 3.0052 0 1 1 -6.7175 0 3.3588 3.0052 0 1 1 6.7175 0z" transform="matrix(.24726 0 0 .25657 121.51 25.341)"/>
    <path id="path6242" style="opacity:.35426;fill:#fff" d="m33.941 81.681a3.3588 3.0052 0 1 1 -6.7175 0 3.3588 3.0052 0 1 1 6.7175 0z" transform="matrix(.26547 0 0 .27547 124.41 27.953)"/>
    <path id="path6244" style="opacity:.35426;fill:#fff" d="m33.941 81.681a3.3588 3.0052 0 1 1 -6.7175 0 3.3588 3.0052 0 1 1 6.7175 0z" transform="matrix(.23401 0 0 .24282 125.29 22.741)"/>
    <path id="path6246" style="opacity:.34529;fill:#fff" d="m33.941 81.681a3.3588 3.0052 0 1 1 -6.7175 0 3.3588 3.0052 0 1 1 6.7175 0z" transform="matrix(.24828 0 0 .23197 130.18 .79085)"/>
    <path id="path6248" style="opacity:.19731;fill:#fff" d="m33.941 81.681a3.3588 3.0052 0 1 1 -6.7175 0 3.3588 3.0052 0 1 1 6.7175 0z" transform="matrix(.24410 0 0 .23903 135.65 2.2168)"/>
    <path id="path6250" style="opacity:.18386;fill:#fff" d="m33.941 81.681a3.3588 3.0052 0 1 1 -6.7175 0 3.3588 3.0052 0 1 1 6.7175 0z" transform="matrix(.23730 0 0 .23237 137.8 4.5491)"/>
    <path id="path6252" style="opacity:.18386;fill:#fff" d="m33.941 81.681a3.3588 3.0052 0 1 1 -6.7175 0 3.3588 3.0052 0 1 1 6.7175 0z" transform="matrix(.30992 0 0 .30348 141.12 -4.5651)"/>
    <path id="path6254" style="opacity:.18386;fill:#fff" d="m33.941 81.681a3.3588 3.0052 0 1 1 -6.7175 0 3.3588 3.0052 0 1 1 6.7175 0z" transform="matrix(.28997 0 0 .28395 142.79 2.6448)"/>
    <path id="path6256" style="opacity:.18386;fill:#fff" d="m33.941 81.681a3.3588 3.0052 0 1 1 -6.7175 0 3.3588 3.0052 0 1 1 6.7175 0z" transform="matrix(.25288 0 0 .24762 143.47 5.4314)"/>
    <path id="path6258" style="opacity:.18386;fill:#fff" d="m33.941 81.681a3.3588 3.0052 0 1 1 -6.7175 0 3.3588 3.0052 0 1 1 6.7175 0z" transform="matrix(.30688 0 0 .30050 142.44 4.1607)"/>
    <path id="path6260" style="opacity:.18386;fill:#fff" d="m33.941 81.681a3.3588 3.0052 0 1 1 -6.7175 0 3.3588 3.0052 0 1 1 6.7175 0z" transform="matrix(.25247 0 0 .24723 147.17 15.477)"/>
    <path id="path6262" style="opacity:.18386;fill:#fff" d="m33.941 81.681a3.3588 3.0052 0 1 1 -6.7175 0 3.3588 3.0052 0 1 1 6.7175 0z" transform="matrix(.29891 0 0 .29270 140.12 9.5262)"/>
    <path id="path6264" style="opacity:.18386;fill:#fff" d="m33.941 81.681a3.3588 3.0052 0 1 1 -6.7175 0 3.3588 3.0052 0 1 1 6.7175 0z" transform="matrix(.25346 0 0 .24819 142.98 13.959)"/>
    <path id="path6266" style="opacity:.18386;fill:#fff" d="m33.941 81.681a3.3588 3.0052 0 1 1 -6.7175 0 3.3588 3.0052 0 1 1 6.7175 0z" transform="matrix(.28202 0 0 .27616 143.49 20.481)"/>
    <path id="path6268" style="opacity:.18386;fill:#fff" d="m33.941 81.681a3.3588 3.0052 0 1 1 -6.7175 0 3.3588 3.0052 0 1 1 6.7175 0z" transform="matrix(.27733 0 0 .27157 142.43 23.924)"/>
    <path id="path6270" style="opacity:.18386;fill:#fff" d="m33.941 81.681a3.3588 3.0052 0 1 1 -6.7175 0 3.3588 3.0052 0 1 1 6.7175 0z" transform="matrix(.20626 0 0 .20897 149.41 30.274)"/>
    <path id="path6272" style="opacity:.18386;fill:#fff" d="m33.941 81.681a3.3588 3.0052 0 1 1 -6.7175 0 3.3588 3.0052 0 1 1 6.7175 0z" transform="matrix(.23265 0 0 .22782 146.38 21.403)"/>
    <path id="path6274" style="opacity:.18386;fill:#fff" d="m33.941 81.681a3.3588 3.0052 0 1 1 -6.7175 0 3.3588 3.0052 0 1 1 6.7175 0z" transform="matrix(.22448 0 0 .22743 146.03 30.028)"/>
    <path id="path6276" style="opacity:.18386;fill:#fff" d="m33.941 81.681a3.3588 3.0052 0 1 1 -6.7175 0 3.3588 3.0052 0 1 1 6.7175 0z" transform="matrix(.23281 0 0 .22798 143.95 27.182)"/>
    <path id="path6278" style="opacity:.18386;fill:#fff" d="m33.941 81.681a3.3588 3.0052 0 1 1 -6.7175 0 3.3588 3.0052 0 1 1 6.7175 0z" transform="matrix(.21028 0 0 .20328 146.95 32.298)"/>
    <path id="path6280" style="opacity:.18386;fill:#fff" d="m33.941 81.681a3.3588 3.0052 0 1 1 -6.7175 0 3.3588 3.0052 0 1 1 6.7175 0z" transform="matrix(.27833 0 0 .27254 143.34 26.229)"/>
    <path id="path6282" style="opacity:.18386;fill:#fff" d="m33.941 81.681a3.3588 3.0052 0 1 1 -6.7175 0 3.3588 3.0052 0 1 1 6.7175 0z" transform="matrix(.28775 0 0 .28177 138.01 23.077)"/>
    <path id="path6284" style="opacity:.18386;fill:#fff" d="m33.941 81.681a3.3588 3.0052 0 1 1 -6.7175 0 3.3588 3.0052 0 1 1 6.7175 0z" transform="matrix(.23490 0 0 .23002 142.44 27.583)"/>
    <path id="path6286" style="opacity:.60538;stroke-opacity:.64921;stroke:#648afa;stroke-width:1.2125;fill:none" d="m64.347 51.275a24.572 26.693 0 1 1 -49.144 0 24.572 26.693 0 1 1 49.144 0z" transform="matrix(1.0424 0 0 .90387 98.215 -11.585)"/>
    <path id="path6288" style="opacity:.40807;stroke-opacity:.58824;stroke:#648afa;stroke-width:1.2125;fill:none" d="m64.347 51.275a24.572 26.693 0 1 1 -49.144 0 24.572 26.693 0 1 1 49.144 0z" transform="matrix(1.0921 0 0 .94499 96.236 -13.693)"/>
    <path id="path6290" style="opacity:.098655;stroke:#fff;stroke-width:1.1071;fill:none" d="m64.347 51.275a24.572 26.693 0 1 1 -49.144 0 24.572 26.693 0 1 1 49.144 0z" transform="matrix(.93222 0 0 .79486 102.57 -6.1107)"/>
    <path id="path6292" style="opacity:.094170;stroke:#fff;stroke-width:1.1071;fill:none" d="m64.347 51.275a24.572 26.693 0 1 1 -49.144 0 24.572 26.693 0 1 1 49.144 0z" transform="matrix(.85844 0 0 .73825 105.5 -3.3407)"/>
    <path id="path6294" style="opacity:.93274;fill:url(#radialGradient3881)" d="m19.875 25.375a2.8125 3.375 0 1 1 -5.625 0 2.8125 3.375 0 1 1 5.625 0z" transform="matrix(1.7298 0 0 1.3706 109.08 -.94969)"/>
    <path id="path6296" style="opacity:.84753;fill:#c549a7" d="m19.875 25.375a2.8125 3.375 0 1 1 -5.625 0 2.8125 3.375 0 1 1 5.625 0z" transform="matrix(.75556 0 0 .61111 126.15 18.411)"/>
   </g>
  </g>
 </g>
</svg>
