<?xml version="1.0" encoding="UTF-8" standalone="no"?>
<!-- Created with Inkscape (http://www.inkscape.org/) -->
<svg id="svg2408" xmlns:rdf="http://www.w3.org/1999/02/22-rdf-syntax-ns#" xmlns="http://www.w3.org/2000/svg" height="96" width="96" version="1.0" xmlns:cc="http://creativecommons.org/ns#" xmlns:xlink="http://www.w3.org/1999/xlink" xmlns:dc="http://purl.org/dc/elements/1.1/">
 <defs id="defs2410">
  <linearGradient id="linearGradient4052">
   <stop id="stop4054" style="stop-color:#f4a615" offset="0"/>
   <stop id="stop4056" style="stop-color:#f47d15" offset="1"/>
  </linearGradient>
  <linearGradient id="ButtonShadow" y2="7.0165" gradientUnits="userSpaceOnUse" x2="45.448" gradientTransform="scale(1.0059 .99417)" y1="92.54" x1="45.448">
   <stop id="stop3750" offset="0"/>
   <stop id="stop3752" style="stop-opacity:.58824" offset="1"/>
  </linearGradient>
  <linearGradient id="linearGradient3737">
   <stop id="stop3739" style="stop-color:#fff" offset="0"/>
   <stop id="stop3741" style="stop-color:#fff;stop-opacity:0" offset="1"/>
  </linearGradient>
  <filter id="filter3174" color-interpolation-filters="sRGB">
   <feGaussianBlur id="feGaussianBlur3176" stdDeviation="1.71"/>
  </filter>
  <linearGradient id="linearGradient3188" y2="63.893" xlink:href="#linearGradient3737" gradientUnits="userSpaceOnUse" x2="36.357" y1="6" x1="36.357"/>
  <filter id="filter3794" height="1.384" width="1.384" color-interpolation-filters="sRGB" y="-.192" x="-.192">
   <feGaussianBlur id="feGaussianBlur3796" stdDeviation="5.28"/>
  </filter>
  <radialGradient id="radialGradient3619" xlink:href="#linearGradient3737" gradientUnits="userSpaceOnUse" cy="90.172" cx="48" gradientTransform="matrix(1.1573 0 0 .99591 -7.551 .19713)" r="42"/>
  <clipPath id="clipPath3613">
   <rect id="rect3615" style="fill:#fff" rx="6" ry="6" height="84" width="84" y="6" x="6"/>
  </clipPath>
  <linearGradient id="linearGradient3617" y2="5.9877" gradientUnits="userSpaceOnUse" x2="48" y1="90" x1="48">
   <stop id="stop3702" style="stop-color:#502d16" offset="0"/>
   <stop id="stop3704" style="stop-color:#8a512c" offset="1"/>
  </linearGradient>
  <linearGradient id="ButtonShadow-0" y2="7.0165" gradientUnits="userSpaceOnUse" x2="45.448" gradientTransform="matrix(1.0059 0 0 .99417 100 0)" y1="92.54" x1="45.448">
   <stop id="stop3750-8" offset="0"/>
   <stop id="stop3752-5" style="stop-opacity:.58824" offset="1"/>
  </linearGradient>
  <linearGradient id="linearGradient3780" y2="90.239" xlink:href="#ButtonShadow-0" gradientUnits="userSpaceOnUse" x2="32.251" gradientTransform="matrix(1.0238 0 0 1.0119 -1.1429 -98.071)" y1="6.1317" x1="32.251"/>
  <linearGradient id="linearGradient3721" y2="90.239" xlink:href="#ButtonShadow-0" gradientUnits="userSpaceOnUse" x2="32.251" gradientTransform="translate(0,-97)" y1="6.1317" x1="32.251"/>
  <linearGradient id="linearGradient3683" y2="48" gradientUnits="userSpaceOnUse" x2="80" y1="48" x1="16">
   <stop id="stop3679" style="stop-color:#190e07" offset="0"/>
   <stop id="stop3681" style="stop-color:#311e12" offset="1"/>
  </linearGradient>
  <linearGradient id="linearGradient3792" y2="15.502" gradientUnits="userSpaceOnUse" x2="32" gradientTransform="matrix(1 0 0 .71875 0 13.5)" y1="80" x1="32">
   <stop id="stop3679-0" offset="0"/>
   <stop id="stop3681-3" style="stop-color:#311e12" offset="1"/>
  </linearGradient>
  <linearGradient id="linearGradient4050" y2="5.9877" gradientUnits="userSpaceOnUse" x2="48" gradientTransform="translate(0,-100)" y1="90" x1="48">
   <stop id="stop3702-3-5" style="stop-color:#502d16" offset="0"/>
   <stop id="stop3704-3-1" style="stop-color:#9b5b31" offset="1"/>
  </linearGradient>
  <linearGradient id="linearGradient4058" y2="15.5" xlink:href="#linearGradient4052" spreadMethod="reflect" gradientUnits="userSpaceOnUse" x2="90" y1="15.5" x1="47.997"/>
  <linearGradient id="linearGradient4074" y2="70.5" xlink:href="#linearGradient4052" spreadMethod="reflect" gradientUnits="userSpaceOnUse" x2="90" y1="70.5" x1="47.973"/>
  <linearGradient id="linearGradient4076" y2="25.5" xlink:href="#linearGradient4052" spreadMethod="reflect" gradientUnits="userSpaceOnUse" x2="90" y1="25.5" x1="47.973"/>
  <linearGradient id="linearGradient4122" y2="15.5" xlink:href="#linearGradient4052" spreadMethod="reflect" gradientUnits="userSpaceOnUse" x2="90" gradientTransform="matrix(1,0,0,-1,0,96)" y1="15.5" x1="47.997"/>
  <linearGradient id="linearGradient4148" y2="64.022" gradientUnits="userSpaceOnUse" x2="48" y1="41" x1="48">
   <stop id="stop4144" style="stop-color:#f4a615" offset="0"/>
   <stop id="stop4146" style="stop-color:#f4a615;stop-opacity:0" offset="1"/>
  </linearGradient>
  <linearGradient id="linearGradient4168" y2="43" xlink:href="#linearGradient4052" spreadMethod="reflect" gradientUnits="userSpaceOnUse" x2="58" y1="43" x1="48"/>
  <linearGradient id="linearGradient4176" y2="67" xlink:href="#linearGradient4052" gradientUnits="userSpaceOnUse" x2="48" y1="31.772" x1="48"/>
 </defs>
 <metadata id="metadata2413">
  <rdf:RDF>
   <cc:Work rdf:about="">
    <dc:format>image/svg+xml</dc:format>
    <dc:type rdf:resource="http://purl.org/dc/dcmitype/StillImage"/>
    <dc:title/>
   </cc:Work>
  </rdf:RDF>
 </metadata>
 <g id="layer2" style="display:none">
  <rect id="rect3745" style="opacity:.9;filter:url(#filter3174);fill:url(#ButtonShadow)" rx="6" ry="6" height="85" width="86" y="7" x="5"/>
 </g>
 <g id="layer3">
  <path id="path3786" style="opacity:0.08;fill:url(#linearGradient3780)" d="m12-95.031c-5.5111 0-10.031 4.5202-10.031 10.031v71c0 5.5111 4.5202 10.031 10.031 10.031h72c5.5111 0 10.031-4.5202 10.031-10.031v-71c0-5.5111-4.5202-10.031-10.031-10.031h-72z" transform="scale(1,-1)"/>
  <path id="path3778" style="opacity:.1;fill:url(#linearGradient3780)" d="m12-94.031c-4.9716 0-9.0312 4.0596-9.0312 9.0312v71c0 4.9716 4.0596 9.0312 9.0312 9.0312h72c4.9716 0 9.0312-4.0596 9.0312-9.0312v-71c0-4.9716-4.0596-9.0312-9.0312-9.0312h-72z" transform="scale(1,-1)"/>
  <path id="path3770" style="opacity:.2;fill:url(#linearGradient3780)" d="m12-93c-4.4091 0-8 3.5909-8 8v71c0 4.4091 3.5909 8 8 8h72c4.4091 0 8-3.5909 8-8v-71c0-4.4091-3.5909-8-8-8h-72z" transform="scale(1,-1)"/>
  <rect id="rect3723" style="opacity:.3;fill:url(#linearGradient3780)" transform="scale(1,-1)" rx="7" ry="7" height="85" width="86" y="-92" x="5"/>
  <rect id="rect3716" style="opacity:.45;fill:url(#linearGradient3721)" transform="scale(1,-1)" rx="6" ry="6" height="84" width="84" y="-91" x="6"/>
 </g>
 <g id="layer1">
  <rect id="rect2419" style="fill:url(#linearGradient3617)" rx="6" ry="6" height="84" width="84" y="6" x="6"/>
  <rect id="rect3757" style="color:#000000;fill:url(#linearGradient3792)" height="46" width="84" y="25" x="6"/>
  <path id="path3615" style="opacity:.15;fill:url(#radialGradient3619)" d="m12 90c-3.324 0-6-2.676-6-6v-2-68-2c0-0.33472 0.04135-0.6507 0.09375-0.96875 0.0487-0.2956 0.09704-0.59692 0.1875-0.875 0.0099-0.03 0.0209-0.063 0.0313-0.094 0.0989-0.2873 0.2349-0.547 0.375-0.812 0.1446-0.2735 0.3156-0.5356 0.5-0.7812 0.1844-0.2457 0.3738-0.4735 0.5937-0.6876 0.44-0.428 0.943-0.8145 1.5-1.0937 0.2786-0.1396 0.5735-0.2469 0.8748-0.3437-0.256 0.1002-0.4865 0.2362-0.7185 0.375-0.00741 0.0044-0.023866-0.0045-0.03125 0-0.031933 0.0193-0.062293 0.04251-0.09375 0.0625-0.1204 0.0767-0.23102 0.16351-0.34375 0.25-0.10617 0.0808-0.21328 0.16111-0.3125 0.25-0.1779 0.1614-0.3474 0.3453-0.5 0.5312-0.1075 0.1303-0.2183 0.2653-0.3124 0.4063-0.0251 0.0383-0.0385 0.0858-0.0626 0.125-0.0647 0.103-0.1302 0.2045-0.1874 0.3124-0.1011 0.1948-0.2057 0.4158-0.2813 0.625-0.008 0.0219-0.0236 0.0406-0.0313 0.0626-0.0318 0.0919-0.0358 0.1868-0.0624 0.2812-0.0304 0.1066-0.0704 0.203-0.0938 0.3125-0.0729 0.3415-0.125 0.6985-0.125 1.0625v2 68 2c0 2.7818 2.2182 5 5 5h2 68 2c2.7818 0 5-2.2182 5-5v-2-68-2c0-0.364-0.052-0.721-0.125-1.0625-0.044-0.2069-0.088-0.3977-0.156-0.5937-0.008-0.022-0.024-0.0407-0.031-0.0626-0.063-0.1737-0.139-0.3674-0.219-0.5312-0.042-0.0828-0.079-0.17-0.125-0.25-0.055-0.0972-0.127-0.1884-0.188-0.2812-0.094-0.141-0.205-0.276-0.312-0.4063-0.143-0.1745-0.303-0.347-0.469-0.5-0.011-0.0102-0.02-0.0211-0.031-0.0313-0.139-0.1255-0.285-0.2344-0.438-0.3437-0.102-0.0731-0.204-0.1534-0.312-0.2187-0.0074-0.0045-0.02384 0.0044-0.03125 0-0.23204-0.13873-0.46255-0.27478-0.71875-0.375 0.30153 0.0968 0.59646 0.20414 0.875 0.34375 0.55709 0.27922 1.0601 0.66569 1.5 1.0938 0.21997 0.21403 0.40937 0.44186 0.59375 0.6875s0.35541 0.50774 0.5 0.78125c0.14012 0.26505 0.27614 0.52473 0.375 0.8125 0.01041 0.03078 0.02133 0.06274 0.03125 0.09375 0.09046 0.27808 0.1388 0.5794 0.1875 0.875 0.053 0.318 0.094 0.634 0.094 0.969v2 68 2c0 3.324-2.676 6-6 6h-72z"/>
  <path id="path3935" style="color:#000000;fill:url(#linearGradient4058)" d="m6.9688 9v8 1h7v-1h-6v-7h12v0.03125h1v11.969h0.031 0.969 0.031 1 12 1v-8-1h-7v1h6v7h-12v-0.03125h-1v-11.969h-0.031-0.969-0.03125-1-12-1zm18 0v8 1h7v-1h-6v-7h12v0.03125h1v11.969h0.031 0.969 0.031 1 12 1v-8-1h-7v1h6v7h-12v-0.03125h-1v-11.969h-0.031-0.969-0.03125-1-12-1zm18 0v8 1h7v-1h-6v-7h12v0.03125h1v11.969h0.031 0.969 0.031 1 12 1v-8-1h-7v1h6v7h-12v-0.03125h-1v-11.969h-0.031-0.969-0.03125-1-12-1zm18 0v8 1h7v-1h-6v-7h12v0.03125h1v11.969h0.031 0.969 0.031 1 12 1v-8-1h-7v1h6v7h-12v-0.03125h-1v-11.969h-0.031-0.969-0.03125-1-12-1zm18 0v8 1h7v-1h-6v-7h9.6875c-0.123-0.3502-0.286-0.6833-0.468-1h-9.2188-1zm-67.969 4v1h6v7h-11v1h11 1v-8-1h-7z"/>
  <path id="path3933" style="color:#000000;fill:url(#linearGradient4076)" d="m6 26v-1h84v1h-84z"/>
  <path id="path4060" style="color:#000000;fill:url(#linearGradient4122)" d="m6.9688 87v-8-1h7v1h-6v7h12v-0.03125h1v-11.969h0.031 0.969 0.031 1 12 1v8 1h-7v-1h6v-7h-12v0.03125h-1v11.969h-0.031-0.969-0.03125-1-12-1zm18 0v-8-1h7v1h-6v7h12v-0.03125h1v-11.969h0.031 0.969 0.031 1 12 1v8 1h-7v-1h6v-7h-12v0.03125h-1v11.969h-0.031-0.969-0.03125-1-12-1zm18 0v-8-1h7v1h-6v7h12v-0.03125h1v-11.969h0.031 0.969 0.031 1 12 1v8 1h-7v-1h6v-7h-12v0.03125h-1v11.969h-0.031-0.969-0.03125-1-12-1zm18 0v-8-1h7v1h-6v7h12v-0.03125h1v-11.969h0.031 0.969 0.031 1 12 1v8 1h-7v-1h6v-7h-12v0.03125h-1v11.969h-0.031-0.969-0.03125-1-12-1zm18 0v-8-1h7v1h-6v7h9.6875c-0.12321 0.35023-0.28596 0.6833-0.46875 1h-9.2188-1zm-67.969-4v-1h6v-7h-11v-1h11 1v8 1h-7z"/>
  <path id="path3931" style="color:#000000;fill:url(#linearGradient4074)" d="m6 70v1h84v-1h-84z"/>
  <path id="rect3728" style="opacity:.3;fill:url(#linearGradient3188)" d="m12 6c-3.324 0-6 2.676-6 6v2 68 2c0 0.33472 0.04135 0.6507 0.09375 0.96875 0.0487 0.2956 0.09704 0.59692 0.1875 0.875 0.00988 0.03038 0.020892 0.0636 0.03125 0.09375 0.098865 0.28777 0.23488 0.54745 0.375 0.8125 0.14459 0.27351 0.31562 0.53562 0.5 0.78125 0.18438 0.24564 0.37378 0.47347 0.59375 0.6875 0.43995 0.42806 0.94291 0.81453 1.5 1.0938 0.27854 0.13961 0.57347 0.24695 0.875 0.34375-0.2562-0.10022-0.48671-0.23627-0.71875-0.375-0.00741-0.0044-0.023866 0.0045-0.03125 0-0.031933-0.0193-0.062293-0.04251-0.09375-0.0625-0.1204-0.0767-0.23102-0.16351-0.34375-0.25-0.10617-0.0808-0.21328-0.16111-0.3125-0.25-0.1778-0.162-0.3473-0.346-0.4999-0.531-0.1075-0.131-0.2183-0.266-0.3124-0.407-0.0251-0.038-0.0385-0.086-0.0626-0.125-0.0647-0.103-0.1302-0.204-0.1874-0.312-0.1011-0.195-0.2057-0.416-0.2813-0.625-0.008-0.022-0.0236-0.041-0.0313-0.063-0.0318-0.092-0.0358-0.187-0.0624-0.281-0.0304-0.107-0.0704-0.203-0.0938-0.313-0.0729-0.341-0.125-0.698-0.125-1.062v-2-68-2c0-2.782 2.2182-5 5-5h2 68 2c2.7818 0 5 2.2182 5 5v2 68 2c0 0.3643-0.05212 0.72099-0.125 1.0625-0.04415 0.20689-0.08838 0.39766-0.15625 0.59375-0.0077 0.02195-0.0233 0.04069-0.03125 0.0625-0.06274 0.17374-0.13838 0.36745-0.21875 0.53125-0.04158 0.0828-0.07904 0.16995-0.125 0.25-0.0546 0.09721-0.12677 0.18835-0.1875 0.28125-0.09411 0.14096-0.20492 0.276-0.3125 0.40625-0.14317 0.17445-0.30314 0.347-0.46875 0.5-0.01117 0.0102-0.01998 0.02115-0.03125 0.03125-0.13839 0.12556-0.28509 0.23444-0.4375 0.34375-0.10257 0.07315-0.20432 0.15336-0.3125 0.21875-0.0074 0.0045-0.02384-0.0044-0.03125 0-0.23204 0.13873-0.46255 0.27478-0.71875 0.375 0.30153-0.0968 0.59646-0.20414 0.875-0.34375 0.55709-0.27922 1.0601-0.66569 1.5-1.0938 0.21997-0.21403 0.40937-0.44186 0.59375-0.6875s0.35541-0.50774 0.5-0.78125c0.14012-0.26505 0.27614-0.52473 0.375-0.8125 0.01041-0.03078 0.02133-0.06274 0.03125-0.09375 0.09046-0.27808 0.1388-0.5794 0.1875-0.875 0.053-0.318 0.094-0.634 0.094-0.969v-2-68-2c0-3.324-2.676-6-6-6h-72z"/>
 </g>
 <g id="layer5">
  <rect id="rect3171" style="opacity:.15;filter:url(#filter3794);stroke:#fff;stroke-linecap:round;stroke-width:.5;fill:#c87137" clip-path="url(#clipPath3613)" rx="12" ry="12" height="66" width="66" y="15" x="15"/>
 </g>
 <g id="layer4">
  <path id="path4158" style="opacity:0.11" d="m31.688 30.812c-1.3418 0.149-2.0688 1.5596-1.875 2.8056 0.01949 2.2725-0.03984 4.5506 0.03125 6.8194 0.2452 1.3286 1.6442 1.9348 2.8774 1.75 0.9809-0.06804 1.871-0.10536 0.7264 0.96567-2.0366 2.9784-3.1041 6.6678-2.4713 10.265 0.62868 5.2678 4.3017 9.9081 9.1484 11.986 5.6341 2.6995 12.556 2.2469 17.836-1.0678 4.625-2.708 7.439-8.007 7.32-13.336 0.027-3.228-1.459-6.232-3.281-8.812 1.338-0.08341 3.0542 0.38597 3.9062-0.96875 0.6647-1.1039 0.26581-2.4636 0.375-3.6912-0.05071-1.7256 0.10853-3.476-0.09375-5.1838-0.34452-1.216-1.6609-1.6856-2.8149-1.5312-4.2381 0.02065-8.482-0.04142-12.716 0.03125-1.3286 0.2452-1.9348 1.6442-1.75 2.8774 0.10265 1.4098-0.41966 3.1736 0.94686 4.1362 4.174 3.8028 6.4821 9.6402 5.9952 15.27-0.26354 3.2756-2.1969 6.7934-5.6595 7.4589-3.079 0.69193-6.8077-0.07258-8.4921-2.9896-2.4223-4.1272-1.6863-9.3275 0.12604-13.539 1.0996-2.6026 2.8614-4.874 4.9585-6.7445 0.7077-1.1761 0.29578-2.6132 0.40625-3.9192 0.24696-1.4731-1.13-2.8332-2.5996-2.5808h-12.9z"/>
  <path id="rect4135" style="color:#000000;fill:url(#linearGradient4148)" d="m42 41v21h1v-21h-1zm4 0v21h1v-21h-1zm4 0v21h1v-21h-1zm4 0v21h1v-21h-1z"/>
  <rect id="rect4131" style="color:#000000;fill:url(#linearGradient4168)" height="2" width="20" y="42" x="38"/>
  <path id="path4154" style="opacity:.15" d="m31.812 32a1.011 1.011 0 0 0 -0.812 1v7a1.011 1.011 0 0 0 1 1h3a1.011 1.011 0 0 0 1 -1c0-1.2935 0.15108-2.1175 0.34375-2.5312 0.19267-0.4138 0.3224-0.51045 0.75-0.625 0.46402-0.12431 2.0651 0.02804 3.1875 0.09375-0.90082 0.77508-1.9321 1.666-3.0312 2.875-2.582 2.84-5.25 6.766-5.25 11.187 0 5.604 2.6258 9.4246 5.8438 11.719 3.1965 2.2789 6.9016 3.1428 9.4688 3.25 0.01727 0.000721 0.04534-0.000651 0.0625 0 0.22043 0.01744 0.43658 0.02702 0.6875 0.03125a1.011 1.011 0 0 0 0.0625 0c0.2121-0.0053 0.40676-0.01628 0.59375-0.03125 0.01716-0.000651 0.04523 0.000721 0.0625 0 2.5671-0.10717 6.2723-0.97114 9.4688-3.25 3.218-2.2942 5.8438-6.1147 5.8438-11.719 0-4.4212-2.6679-8.3472-5.25-11.188-1.0991-1.209-2.1304-2.0999-3.0312-2.875 1.1224-0.06571 2.7235-0.21806 3.1875-0.09375 0.4276 0.11455 0.55733 0.2112 0.75 0.625s0.34375 1.2377 0.34375 2.5312a1.011 1.011 0 0 0 1 1h3a1.011 1.011 0 0 0 1 -1v-7a1.011 1.011 0 0 0 -1 -1h-13a1.011 1.011 0 0 0 -1 1v3a1.011 1.011 0 0 0 0.34375 0.78125c4.5729 3.873 6.977 10.348 6.6562 15.719-0.16038 2.6853-0.97292 5.0692-2.4375 6.75-1.4474 1.6611-3.5211 2.7067-6.4688 2.75-0.03504 0.000515-0.05846-0.000231-0.09375 0-0.029 0.002-0.122 0.001-0.095 0.001-3.004-0.02-5.098-1.069-6.562-2.75-1.465-1.681-2.278-4.065-2.438-6.75-0.321-5.371 2.083-11.846 6.656-15.719a1.011 1.011 0 0 0 0.344 -0.781v-3a1.011 1.011 0 0 0 -1 -1h-13a1.011 1.011 0 0 0 -0.1875 0z"/>
  <path id="path4150" style="opacity:.3" d="m32 33v7h3c0-5.4522 2.2504-4.1983 8-4 0 0-10 7-10 15 0 10.593 9.6704 13.789 14.406 13.969 0.20536 0.01793 0.42724 0.02686 0.6875 0.03125 0.21815-0.0055 0.41633-0.01575 0.59375-0.03125 4.735-0.18 14.406-3.376 14.406-13.969 0-8-10-15-10-15 5.7496-0.19826 8-1.4522 8 4h3v-7h-13v3c9.7148 8.2279 9.9862 26.915-3 27-0.027-0.002-0.07 0-0.094 0-12.986-0.085-12.715-18.772-3-27v-3h-13z"/>
  <path id="path3675" style="color:#000000;fill:url(#linearGradient3683)" d="m80 48a32 32 0 1 1 -64 0 32 32 0 1 1 64 0z" transform="matrix(0,-1.125,1.125,0,84,102)"/>
  <path id="path3685" style="color:#000000;fill:#f49215" d="m138 14c-18.778 0-34 15.222-34 34s15.222 34 34 34 34-15.222 34-34-15.222-34-34-34zm0 1c18.225 0 33 14.775 33 33s-14.775 33-33 33-33-14.775-33-33 14.775-33 33-33z"/>
  <path id="rect3697" style="color:#000000;fill:#f49215" d="m134 16v1 6h1v-6h5v3h-2v1h3v-1-4h-1-5-1zm2 2v1 3 1h7v-1h-6v-3h2v-1h-3z"/>
  <path id="path3714" style="color:#000000;fill:#f49215" d="m144.24 16.361-0.31377 0.9495-1.8826 5.697 0.9495 0.31377 1.8826-5.697 4.7475 1.5688-0.94129 2.8485-1.899-0.62753-0.31377 0.9495 2.8485 0.9413 0.31377-0.9495 1.2551-3.798-0.9495-0.31377-4.7475-1.5688-0.9495-0.31377zm1.2715 2.5265-0.31377 0.9495-0.9413 2.8485-0.31376 0.9495 6.6465 2.1964 0.31377-0.9495-5.697-1.8826 0.9413-2.8485 1.899 0.62753 0.31377-0.9495-2.8485-0.9413z"/>
  <path id="path3716" style="color:#000000;fill:#f49215" d="m153.69 19.825-0.59114 0.80657-3.5468 4.8394 0.80657 0.59114 3.5468-4.8394 4.0329 2.9557-1.7734 2.4197-1.6131-1.1823-0.59114 0.80657 2.4197 1.7734 0.59113-0.80657 2.3646-3.2263-0.80657-0.59114-4.0329-2.9557-0.80658-0.59114zm0.43087 2.7954-0.59114 0.80657-1.7734 2.4197-0.59113 0.80657 5.646 4.138 0.59113-0.80657-4.8394-3.5468 1.7734-2.4197 1.6132 1.1823 0.59113-0.80657-2.4197-1.7734z"/>
  <path id="path3718" style="color:#000000;fill:#f49215" d="m161.56 25.981-0.80966 0.5869-4.858 3.5214 0.5869 0.80966 4.858-3.5214 2.9345 4.0483-2.429 1.7607-1.1738-1.6193-0.80967 0.5869 1.7607 2.429 0.80967-0.5869 3.2386-2.3476-0.58689-0.80966-2.9345-4.0483-0.5869-0.80966zm-0.44552 2.7931-0.80967 0.5869-2.429 1.7607-0.80966 0.5869 4.1083 5.6676 0.80967-0.5869-3.5214-4.858 2.429-1.7607 1.1738 1.6193 0.80967-0.5869-1.7607-2.429z"/>
  <path id="path3720" style="color:#000000;fill:#f49215" d="m167.21 34.331-0.95131 0.30824-5.7078 1.8495 0.30824 0.95131 5.7078-1.8495 1.5412 4.7565-2.8539 0.92474-0.61649-1.9026-0.9513 0.30825 0.92473 2.8539 0.95131-0.30824 3.8052-1.233-0.30825-0.95131-1.5412-4.7565-0.30824-0.95131zm-1.2861 2.5191-0.95131 0.30824-2.8539 0.92474-0.95131 0.30824 2.1577 6.6591 0.95131-0.30825-1.8495-5.7078 2.8539-0.92474 0.61649 1.9026 0.95131-0.30825-0.92473-2.8539z"/>
  <path id="path3722" style="color:#000000;fill:#f49215" d="m170.01 44.082-1-0.0026-6-0.01535-0.003 1 6 0.01535-0.0128 5-3-0.0077 0.005-2-0.99999-0.0026-0.008 3 0.99999 0.0026 4 0.01023 0.003-1 0.0128-5 0.003-1zm-2.0051 1.9949-1-0.0026-3-0.0077-0.99999-0.0026-0.0179 7 0.99999 0.0026 0.0153-6 3 0.0077-0.005 2 1 0.0026 0.008-3z"/>
  <path id="path3724" style="color:#000000;fill:#f49215" d="m169.62 54.317-0.94874-0.31604-5.6926-1.896-0.31604 0.94875 5.6926 1.896-1.58 4.7438-2.8463-0.94802 0.63198-1.8975-0.94875-0.31604-0.94802 2.8463 0.94875 0.31604 3.795 1.264 0.31604-0.94875 1.58-4.7438 0.31604-0.94875zm-2.5295 1.2655-0.94875-0.31604-2.8463-0.94802-0.94875-0.31604-2.212 6.6413 0.94875 0.31604 1.896-5.6926 2.8463 0.94802-0.63198 1.8975 0.94875 0.31604 0.94802-2.8463z"/>
  <path id="path3726" style="color:#000000;fill:#f49215" d="m166.12 63.794-0.80436-0.59413-4.8264-3.5646-0.59413 0.80437 4.8264 3.5646-2.9705 4.022-2.4132-1.7823 1.1882-1.6088-0.80437-0.59413-1.7823 2.4132 0.80436 0.59413 3.2176 2.3764 0.59414-0.80437 2.9705-4.022 0.59413-0.80437zm-2.797 0.42059-0.80437-0.59413-2.4132-1.7823-0.80436-0.59413-4.1587 5.6307 0.80437 0.59413 3.5646-4.8264 2.4132 1.7823-1.1882 1.6088 0.80436 0.59413 1.7823-2.4132z"/>
  <path id="path3728" style="color:#000000;fill:#f49215" d="m159.8 71.761-0.57946-0.815-3.477-4.8899-0.815 0.57946 3.477 4.8899-4.0749 2.8975-1.7385-2.4449 1.6299-1.159-0.57946-0.815-2.4449 1.7385 0.57946 0.815 2.318 3.2599 0.815-0.57946 4.0749-2.8975 0.815-0.57946zm-2.7889-0.47096-0.57946-0.815-1.7385-2.4449-0.57946-0.815-5.7048 4.0565 0.57946 0.815 4.8899-3.477 1.7385 2.4449-1.6299 1.159 0.57946 0.815 2.4449-1.7385z"/>
  <path id="path3730" style="color:#000000;fill:#f49215" d="m151.26 77.398-0.29484-0.95554-1.7693-5.7332-0.95555 0.29485 1.7693 5.7332-4.7777 1.4744-0.88463-2.8666 1.9111-0.58978-0.29485-0.95555-2.8666 0.88463 0.29484 0.95554 1.1795 3.8221 0.95555-0.29484 4.7777-1.4744 0.95555-0.29484zm-2.5008-1.3213-0.29485-0.95555-0.88463-2.8666-0.29484-0.95554-6.6887 2.0642 0.29484 0.95554 5.7332-1.7693 0.88463 2.8666-1.9111 0.58978 0.29485 0.95554 2.8666-0.88463z"/>
  <path id="path3732" style="color:#000000;fill:#f49215" d="m141.49 80.06 0.016-0.99987 0.0958-5.9992-0.99987-0.016-0.0958 5.9992-4.9994-0.07979 0.0479-2.9996 1.9998 0.0319 0.016-0.99987-2.9996-0.0479-0.016 0.99987-0.0638 3.9995 0.99987 0.016 4.9994 0.07979 0.99987 0.016zm-1.9678-2.0317 0.016-0.99987 0.0479-2.9996 0.016-0.99987-6.9991-0.11171-0.016 0.99987 5.9992 0.09575-0.0479 2.9996-1.9998-0.0319-0.016 0.99987 2.9996 0.0479z"/>
  <path id="path3734" style="color:#000000;fill:#f49215" d="m131.45 79.578 0.32291-0.94643 1.9372-5.6787-0.94643-0.32291-1.9372 5.6787-4.7322-1.6144 0.96863-2.8393 1.8929 0.64573 0.32291-0.94643-2.8393-0.96864-0.32291 0.94643-1.2915 3.7858 0.94643 0.32291 4.7322 1.6144 0.94643 0.32291zm-1.2471-2.5386 0.32291-0.94643 0.96863-2.8393 0.32291-0.94643-6.6251-2.2601-0.32291 0.94643 5.6787 1.9372-0.96864 2.8393-1.8929-0.64573-0.32291 0.94643 2.8393 0.96864z"/>
  <path id="path3736" style="color:#000000;fill:#f49215" d="m118 75.998 0.60014-0.79989 3.6006-4.7995-0.7999-0.60014-3.6006 4.7995-3.9996-3.0005 1.8004-2.3997 1.5998 1.2002 0.60014-0.79989-2.3997-1.8003-0.60014 0.79989-2.4004 3.1997 0.7999 0.60014 3.9996 3.0005 0.7999 0.60014zm-0.39962-2.8001 0.60014-0.7999 1.8003-2.3997 0.60014-0.79989-5.5994-4.2008-0.60014 0.7999 4.7995 3.6006-1.8003 2.3997-1.5998-1.2002-0.60014 0.79989 2.3997 1.8003z"/>
  <path id="path3738" style="color:#000000;fill:#f49215" d="m110.11 83.661 0.81845-0.57458 4.9105-3.4477-0.57458-0.81845-4.9105 3.4477-2.8731-4.0921 2.4553-1.7238 1.1492 1.6368 0.81845-0.57458-1.7238-2.4553-0.81845 0.57458-3.2737 2.2985 0.57459 0.81845 2.8731 4.0921 0.57458 0.81845zm0.48762-2.7861 0.81845-0.57458 2.4553-1.7238 0.81845-0.57458-4.0223-5.729-0.81845 0.57458 3.4477 4.9105-2.4553 1.7238-1.1492-1.6368-0.81845 0.57458 1.7238 2.4553z"/>
  <path id="path3740" style="color:#000000;fill:#f49215" d="m108.58 61.21 0.95602-0.29328 5.7361-1.76-0.29328-0.95603-5.7361 1.7599-1.4666-4.7801 2.868-0.87995 0.58667 1.912 0.95602-0.29328-0.87995-2.868-0.95602 0.29328-3.8241 1.1733 0.29329 0.95603 1.4666 4.7801 0.29328 0.95602zm1.3254-2.4987 0.95603-0.29329 2.868-0.87995 0.95603-0.29328-2.0533-6.6921-0.95602 0.29329 1.76 5.7361-2.868 0.87995-0.58666-1.912-0.95603 0.29328 0.87995 2.868z"/>
  <path id="path3742" style="color:#000000;fill:#f49215" d="m105.94 51.484 0.99987 0.01614 5.9992 0.09661 0.0161-0.99987-5.9992-0.09661 0.0805-4.9994 2.9996 0.04833-0.0322 1.9997 0.99987 0.01614 0.0483-2.9996-0.99987-0.01614-3.9995-0.06441-0.0161 0.99987-0.0805 4.9994-0.0161 0.99987zm2.0319-1.9675 0.99987 0.01614 2.9996 0.04833 0.99987 0.01614 0.11272-6.9991-0.99987-0.01614-0.0966 5.9992-2.9996-0.04833 0.0322-1.9997-0.99986-0.01614-0.0483 2.9996z"/>
  <path id="path3744" style="color:#000000;fill:#f49215" d="m106.43 41.422 0.9461 0.32387 5.6767 1.943 0.32388-0.9461-5.6767-1.943 1.6192-4.7306 2.8383 0.97153-0.64766 1.8922 0.9461 0.32387 0.97153-2.8383-0.9461-0.32387-3.7845-1.2953-0.32387 0.9461-1.6192 4.7306-0.32387 0.9461zm2.5399-1.2446 0.9461 0.32387 2.8383 0.97153 0.9461 0.32387 2.2668-6.6228-0.9461-0.32387-1.943 5.6767-2.8383-0.97153 0.64765-1.8922-0.9461-0.32387-0.97153 2.8383z"/>
  <path id="path3746" style="color:#000000;fill:#f49215" d="m109.9 32.185 0.80391 0.59474 4.8236 3.5683 0.59474-0.80392-4.8236-3.5683 2.9736-4.0197 2.4118 1.7842-1.1894 1.6079 0.80392 0.59474 1.7842-2.4118-0.80392-0.59474-3.2158-2.3789-0.59475 0.80392-2.9736 4.0197-0.59474 0.80391zm2.7973-0.41845 0.80392 0.59474 2.4118 1.7842 0.80391 0.59474 4.163-5.6276-0.80391-0.59475-3.5683 4.8236-2.4118-1.7842 1.1894-1.6079-0.80391-0.59474-1.7842 2.4118z"/>
  <path id="path3748" style="color:#000000;fill:#f49215" d="m116.26 24.183 0.57736 0.81648 3.4644 4.8988 0.81649-0.57737-3.4644-4.8988 4.0823-2.887 1.7322 2.4494-1.6329 1.1548 0.57737 0.81648 2.4494-1.7322-0.57736-0.81648-2.3096-3.2659-0.81649 0.57737-4.0823 2.887-0.81648 0.57736zm2.7877 0.47813 0.57737 0.81649 1.7322 2.4494 0.57736 0.81648 5.7152-4.0418-0.57737-0.81649-4.8988 3.4644-1.7322-2.4494 1.6329-1.1548-0.57737-0.81648-2.4494 1.7322z"/>
  <path id="path3750" style="color:#000000;fill:#f49215" d="m124.44 18.74 0.30464 0.95247 1.8281 5.7147 0.95246-0.30464-1.8281-5.7147 4.7623-1.5234 0.91402 2.8574-1.9049 0.60938 0.30464 0.95247 2.8574-0.91402-0.30464-0.95246-1.2187-3.8098-0.95247 0.30464-4.7623 1.5234-0.95247 0.30464zm2.5143 1.2955 0.30464 0.95247 0.91402 2.8574 0.30464 0.95246 6.6672-2.1328-0.30465-0.95247-5.7147 1.8281-0.91402-2.8574 1.9049-0.60938-0.30464-0.95246-2.8574 0.91402z"/>
  <path id="path3752" style="color:#000000;fill:#f49215" d="m138 24c-13.255 0-24 10.745-24 24s10.745 24 24 24 24-10.745 24-24-10.745-24-24-24zm0 1c12.703 0 23 10.297 23 23s-10.297 23-23 23-23-10.297-23-23 10.297-23 23-23z"/>
  <path id="path3947" style="color:#000000;fill:#f49215" d="m92.969-9v-11.969h-1v-0.03125h-12v7h6v1h-7v-1-8h1 12 1 0.03125 0.96875 0.03125v11.969h1v0.03125h12v-7h-6v-1h7v1 8h-1-12-1-0.03125-0.969-0.031z"/>
  <rect id="rect2419-6" style="fill:url(#linearGradient4050)" rx="6" ry="6" height="84" width="84" y="-94" x="6"/>
  <path id="path4126" style="fill:url(#linearGradient4176)" d="m32 32v7h3c0-5.4522 2.2504-4.1983 8-4 0 0-10 7-10 15 0 10.593 9.6704 13.789 14.406 13.969 0.20536 0.01794 0.42724 0.02686 0.6875 0.03125 0.21815-0.0055 0.41633-0.01575 0.59375-0.03125 4.735-0.18 14.406-3.376 14.406-13.969 0-8-10-15-10-15 5.7496-0.19826 8-1.4522 8 4h3v-7h-13v3c9.7148 8.2279 9.9862 26.915-3 27-0.027-0.002-0.07 0-0.094 0-12.986-0.085-12.715-18.772-3-27v-3h-13z"/>
  <path id="path4178" style="opacity:.3;fill:#fff" d="m32 32v1h13v-1h-13zm19.094 0v1h13v-1h-13zm-9.3125 3.9375c-2.631 2.123-8.782 7.755-8.782 14.062 0 0.19235 0.02496 0.375 0.03125 0.5625 0.352-7.816 9.969-14.562 9.969-14.562-0.438-0.015-0.821-0.039-1.219-0.062zm12.531 0c-0.39798 0.02393-0.7807 0.0474-1.2188 0.0625 0 0 9.6169 6.7463 9.9688 14.562 0.0063-0.1875 0.03125-0.37015 0.03125-0.5625 0-6.3074-6.1509-11.939-8.7812-14.062zm-16.344 15.031c-0.188 6.4 2.947 11.985 10.031 12.031 0.02419 0.000185 0.06721-0.0023 0.09375 0 7.084-0.046 10.218-5.631 10.031-12.031-0.154 5.972-3.318 10.987-10.031 11.031-0.027-0.002-0.07 0-0.094 0-6.714-0.044-9.877-5.059-10.031-11.031z"/>
  <rect id="rect4187" style="color:#000000;fill:#ffda45" height="1" width="1" y="41" x="42"/>
  <rect id="rect4189" style="color:#000000;fill:#ffda45" height="1" width="1" y="41" x="46"/>
  <rect id="rect4191" style="color:#000000;fill:#ffda45" height="1" width="1" y="41" x="50"/>
  <rect id="rect4193" style="color:#000000;fill:#ffda45" height="1" width="1" y="41" x="54"/>
 </g>
</svg>
