<?xml version="1.0" encoding="UTF-8" standalone="no"?>
<!-- Created with Inkscape (http://www.inkscape.org/) -->
<svg id="svg2408" xmlns:rdf="http://www.w3.org/1999/02/22-rdf-syntax-ns#" xmlns="http://www.w3.org/2000/svg" height="96" width="96" version="1.0" xmlns:cc="http://creativecommons.org/ns#" xmlns:xlink="http://www.w3.org/1999/xlink" xmlns:dc="http://purl.org/dc/elements/1.1/">
 <defs id="defs2410">
  <linearGradient id="ButtonShadow" y2="7.0165" gradientUnits="userSpaceOnUse" x2="45.448" gradientTransform="scale(1.0059 .99417)" y1="92.54" x1="45.448">
   <stop id="stop3750" offset="0"/>
   <stop id="stop3752" style="stop-opacity:.58824" offset="1"/>
  </linearGradient>
  <linearGradient id="linearGradient3737">
   <stop id="stop3739" style="stop-color:#fff" offset="0"/>
   <stop id="stop3741" style="stop-color:#fff;stop-opacity:0" offset="1"/>
  </linearGradient>
  <filter id="filter3174" color-interpolation-filters="sRGB">
   <feGaussianBlur id="feGaussianBlur3176" stdDeviation="1.71"/>
  </filter>
  <linearGradient id="ButtonShadow-0" y2="7.0165" gradientUnits="userSpaceOnUse" x2="45.448" gradientTransform="matrix(1.0059 0 0 .99417 100 0)" y1="92.54" x1="45.448">
   <stop id="stop3750-8" offset="0"/>
   <stop id="stop3752-5" style="stop-opacity:.58824" offset="1"/>
  </linearGradient>
  <linearGradient id="linearGradient3780" y2="90.239" xlink:href="#ButtonShadow-0" gradientUnits="userSpaceOnUse" x2="32.251" gradientTransform="matrix(1.0238 0 0 1.0119 -1.1429 -98.071)" y1="6.1317" x1="32.251"/>
  <linearGradient id="linearGradient3721" y2="90.239" xlink:href="#ButtonShadow-0" gradientUnits="userSpaceOnUse" x2="32.251" gradientTransform="translate(0,-97)" y1="6.1317" x1="32.251"/>
  <radialGradient id="radialGradient3215" xlink:href="#linearGradient3737" gradientUnits="userSpaceOnUse" cy="90.172" cx="48" gradientTransform="matrix(1.1573 0 0 .99591 -7.551 .19713)" r="42"/>
  <linearGradient id="linearGradient3218" y2="63.893" xlink:href="#linearGradient3737" gradientUnits="userSpaceOnUse" x2="36.357" y1="6" x1="36.357"/>
  <linearGradient id="linearGradient3221" y2="5.9877" gradientUnits="userSpaceOnUse" x2="48" y1="90" x1="48">
   <stop id="stop3690" style="stop-color:#242424" offset="0"/>
   <stop id="stop3692" style="stop-color:#606060" offset="1"/>
  </linearGradient>
  <radialGradient id="radialGradient4025" gradientUnits="userSpaceOnUse" cy=".20930" cx="-35.838" gradientTransform="matrix(1.619 0 0 .97247 22.182 .0057613)" r="25.694">
   <stop id="stop4021" style="stop-color:#b40d0d" offset="0"/>
   <stop id="stop4023" style="stop-color:#b40d0d;stop-opacity:0" offset="1"/>
  </radialGradient>
  <linearGradient id="linearGradient4044" y2="19.005" gradientUnits="userSpaceOnUse" x2="67.577" y1="74.866" x1="27.705">
   <stop id="stop4040" style="stop-color:#be0000" offset="0"/>
   <stop id="stop4042" style="stop-color:#ffa1a1" offset="1"/>
  </linearGradient>
 </defs>
 <metadata id="metadata2413">
  <rdf:RDF>
   <cc:Work rdf:about="">
    <dc:format>image/svg+xml</dc:format>
    <dc:type rdf:resource="http://purl.org/dc/dcmitype/StillImage"/>
    <dc:title/>
   </cc:Work>
  </rdf:RDF>
 </metadata>
 <g id="layer2" style="display:none">
  <rect id="rect3745" style="opacity:.9;filter:url(#filter3174);fill:url(#ButtonShadow)" rx="6" ry="6" height="85" width="86" y="7" x="5"/>
 </g>
 <g id="layer3">
  <path id="path3786" style="opacity:0.08;fill:url(#linearGradient3780)" d="m12-95.031c-5.5111 0-10.031 4.5202-10.031 10.031v71c0 5.5111 4.5202 10.031 10.031 10.031h72c5.5111 0 10.031-4.5202 10.031-10.031v-71c0-5.5111-4.5202-10.031-10.031-10.031h-72z" transform="scale(1,-1)"/>
  <path id="path3778" style="opacity:.1;fill:url(#linearGradient3780)" d="m12-94.031c-4.9716 0-9.0312 4.0596-9.0312 9.0312v71c0 4.9716 4.0596 9.0312 9.0312 9.0312h72c4.9716 0 9.0312-4.0596 9.0312-9.0312v-71c0-4.9716-4.0596-9.0312-9.0312-9.0312h-72z" transform="scale(1,-1)"/>
  <path id="path3770" style="opacity:.2;fill:url(#linearGradient3780)" d="m12-93c-4.4091 0-8 3.5909-8 8v71c0 4.4091 3.5909 8 8 8h72c4.4091 0 8-3.5909 8-8v-71c0-4.4091-3.5909-8-8-8h-72z" transform="scale(1,-1)"/>
  <rect id="rect3723" style="opacity:.3;fill:url(#linearGradient3780)" transform="scale(1,-1)" rx="7" ry="7" height="85" width="86" y="-92" x="5"/>
  <rect id="rect3716" style="opacity:.45;fill:url(#linearGradient3721)" transform="scale(1,-1)" rx="6" ry="6" height="84" width="84" y="-91" x="6"/>
 </g>
 <rect id="rect2419" style="fill:url(#linearGradient3221)" rx="6" ry="6" height="84" width="84" y="6" x="6"/>
 <path id="rect3728" d="m12 6c-3.324 0-6 2.676-6 6v2 68 2c0 0.33472 0.04135 0.6507 0.09375 0.96875 0.0487 0.2956 0.09704 0.59692 0.1875 0.875 0.00988 0.03038 0.020892 0.0636 0.03125 0.09375 0.098865 0.28777 0.23488 0.54745 0.375 0.8125 0.14459 0.27351 0.31562 0.53562 0.5 0.78125 0.18438 0.24564 0.37378 0.47347 0.59375 0.6875 0.43995 0.42806 0.94291 0.81453 1.5 1.0938 0.27854 0.13961 0.57347 0.24695 0.875 0.34375-0.2562-0.10022-0.48671-0.23627-0.71875-0.375-0.00741-0.0044-0.023866 0.0045-0.03125 0-0.031933-0.0193-0.062293-0.04251-0.09375-0.0625-0.1204-0.0767-0.23102-0.16351-0.34375-0.25-0.10617-0.0808-0.21328-0.16111-0.3125-0.25-0.1778-0.162-0.3473-0.346-0.4999-0.531-0.1075-0.131-0.2183-0.266-0.3124-0.407-0.0251-0.038-0.0385-0.086-0.0626-0.125-0.0647-0.103-0.1302-0.204-0.1874-0.312-0.1011-0.195-0.2057-0.416-0.2813-0.625-0.008-0.022-0.0236-0.041-0.0313-0.063-0.0318-0.092-0.0358-0.187-0.0624-0.281-0.0304-0.107-0.0704-0.203-0.0938-0.313-0.0729-0.341-0.125-0.698-0.125-1.062v-2-68-2c0-2.782 2.2182-5 5-5h2 68 2c2.7818 0 5 2.2182 5 5v2 68 2c0 0.3643-0.05212 0.72099-0.125 1.0625-0.04415 0.20689-0.08838 0.39766-0.15625 0.59375-0.0077 0.02195-0.0233 0.04069-0.03125 0.0625-0.06274 0.17374-0.13838 0.36745-0.21875 0.53125-0.04158 0.0828-0.07904 0.16995-0.125 0.25-0.0546 0.09721-0.12677 0.18835-0.1875 0.28125-0.09411 0.14096-0.20492 0.276-0.3125 0.40625-0.14317 0.17445-0.30314 0.347-0.46875 0.5-0.01117 0.0102-0.01998 0.02115-0.03125 0.03125-0.13839 0.12556-0.28509 0.23444-0.4375 0.34375-0.10257 0.07315-0.20432 0.15336-0.3125 0.21875-0.0074 0.0045-0.02384-0.0044-0.03125 0-0.23204 0.13873-0.46255 0.27478-0.71875 0.375 0.30153-0.0968 0.59646-0.20414 0.875-0.34375 0.55709-0.27922 1.0601-0.66569 1.5-1.0938 0.21997-0.21403 0.40937-0.44186 0.59375-0.6875s0.35541-0.50774 0.5-0.78125c0.14012-0.26505 0.27614-0.52473 0.375-0.8125 0.01041-0.03078 0.02133-0.06274 0.03125-0.09375 0.09046-0.27808 0.1388-0.5794 0.1875-0.875 0.053-0.318 0.094-0.634 0.094-0.969v-2-68-2c0-3.324-2.676-6-6-6h-72z" style="opacity:.35;fill:url(#linearGradient3218)"/>
 <path id="path3615" d="m12 90c-3.324 0-6-2.676-6-6v-2-68-2c0-0.33472 0.04135-0.6507 0.09375-0.96875 0.0487-0.2956 0.09704-0.59692 0.1875-0.875 0.0099-0.03 0.0209-0.063 0.0313-0.094 0.0989-0.2873 0.2349-0.547 0.375-0.812 0.1446-0.2735 0.3156-0.5356 0.5-0.7812 0.1844-0.2457 0.3738-0.4735 0.5937-0.6876 0.44-0.428 0.943-0.8145 1.5-1.0937 0.2786-0.1396 0.5735-0.2469 0.8748-0.3437-0.256 0.1002-0.4865 0.2362-0.7185 0.375-0.00741 0.0044-0.023866-0.0045-0.03125 0-0.031933 0.0193-0.062293 0.04251-0.09375 0.0625-0.1204 0.0767-0.23102 0.16351-0.34375 0.25-0.10617 0.0808-0.21328 0.16111-0.3125 0.25-0.1779 0.1614-0.3474 0.3453-0.5 0.5312-0.1075 0.1303-0.2183 0.2653-0.3124 0.4063-0.0251 0.0383-0.0385 0.0858-0.0626 0.125-0.0647 0.103-0.1302 0.2045-0.1874 0.3124-0.1011 0.1948-0.2057 0.4158-0.2813 0.625-0.008 0.0219-0.0236 0.0406-0.0313 0.0626-0.0318 0.0919-0.0358 0.1868-0.0624 0.2812-0.0304 0.1066-0.0704 0.203-0.0938 0.3125-0.0729 0.3415-0.125 0.6985-0.125 1.0625v2 68 2c0 2.7818 2.2182 5 5 5h2 68 2c2.7818 0 5-2.2182 5-5v-2-68-2c0-0.364-0.052-0.721-0.125-1.0625-0.044-0.2069-0.088-0.3977-0.156-0.5937-0.008-0.022-0.024-0.0407-0.031-0.0626-0.063-0.1737-0.139-0.3674-0.219-0.5312-0.042-0.0828-0.079-0.17-0.125-0.25-0.055-0.0972-0.127-0.1884-0.188-0.2812-0.094-0.141-0.205-0.276-0.312-0.4063-0.143-0.1745-0.303-0.347-0.469-0.5-0.011-0.0102-0.02-0.0211-0.031-0.0313-0.139-0.1255-0.285-0.2344-0.438-0.3437-0.102-0.0731-0.204-0.1534-0.312-0.2187-0.0074-0.0045-0.02384 0.0044-0.03125 0-0.23204-0.13873-0.46255-0.27478-0.71875-0.375 0.30153 0.0968 0.59646 0.20414 0.875 0.34375 0.55709 0.27922 1.0601 0.66569 1.5 1.0938 0.21997 0.21403 0.40937 0.44186 0.59375 0.6875s0.35541 0.50774 0.5 0.78125c0.14012 0.26505 0.27614 0.52473 0.375 0.8125 0.01041 0.03078 0.02133 0.06274 0.03125 0.09375 0.09046 0.27808 0.1388 0.5794 0.1875 0.875 0.053 0.318 0.094 0.634 0.094 0.969v2 68 2c0 3.324-2.676 6-6 6h-72z" style="opacity:.2;fill:url(#radialGradient3215)"/>
 <g id="g4014" style="fill:url(#radialGradient4025)" transform="matrix(1.56 0 0 1.56 103.91 47.673)">
  <path id="path4032" style="opacity:.03;stroke:#fff;stroke-width:4;fill:none" d="m42.5 23.938c-6.428 0.154-12.646 2.653-16.969 6.374 0 0-16.067 14.732-2.062 34.282 0 0 4.73 7.618 16.531 7.218 0 0 15.892 0.879 19.594-14.187 0 0 2.733-21.231-17.094-24.437 0 0-13.442-1.444-15.094 13.781 0 0-2.132 13.788 12.5 14.75 0 0 10.628-0.093 10.156-10.188 0 0 0.341-10.33-8.156-10.25 0 0-6.781-0.953-6.781 6.657 0 0-0.47 6.421 4.563 6.343 0 0 2.671 0.236 2.75-2.969 0 0-0.247-3.634-3-2.031-0.873-2.896 1.994-2.756 3.468-1.906 0.549 0.219 3.33 3.218 0.313 7.375 0 0-4.251 4.013-8.344-1.031 0 0-4.547-5.458 0.25-12.031 11.613-10.36 26.769 9.501 12.281 20.031-20.358 11.035-29.298-17.81-15.844-27.313 0 0 9.292-7.378 19.282-0.968 0 0 7.164 3.273 10.312 14.656 0 0 3.455-10.51 3.532-10.75-5.335-9.947-13.923-13.605-22.188-13.406zm30.938 15.531c-0.152 0.016-0.295 0.087-0.438 0.219 0 0-0.532 0.56 0.375 1.843 0 0 3.33 5.134 3.844 6.938 0.51 1.799 1.149 6.185-2.157 8.75 0 0-4.975 3.844-8.593-3.25-1.398-5.627-0.566-6.637-1.219-12.063-4.36 17.594-1.307 20.867-13.062 29.406 8.593-0.776 17.851-1.301 24.437-7.5 3.036-3.644 4.17-8.13 5.781-12.406 0.992-2.631 1.804-5.088 4.344-7.156l1.219-1.062s0.621-1.104-1.031-0.782c0 0-1.057 0.171-2.407 2.063-0.33 0.462-1.868 2.895-2.593 3.625 0 0-1.497 1.25-2.938 0.156-2.447-2.65-2.562-7.191-5.062-8.688-0.184-0.092-0.349-0.11-0.5-0.093zm-54.938 21.187c-0.628 2.063-1.283 3.123-2.188 4.688-1.563 2.701-8.4058 4.25-8.4058 4.25s2.3188 0.829 5.3748 1.468c3.056 0.64 16.813 1 16.813 1-6.837-2.176-7.529-5.716-11.594-11.406z" transform="matrix(.64102 0 0 .64102 -66.607 -30.56)"/>
  <path id="path4030" d="m42.5 23.938c-6.428 0.154-12.646 2.653-16.969 6.374 0 0-16.067 14.732-2.062 34.282 0 0 4.73 7.618 16.531 7.218 0 0 15.892 0.879 19.594-14.187 0 0 2.733-21.231-17.094-24.437 0 0-13.442-1.444-15.094 13.781 0 0-2.132 13.788 12.5 14.75 0 0 10.628-0.093 10.156-10.188 0 0 0.341-10.33-8.156-10.25 0 0-6.781-0.953-6.781 6.657 0 0-0.47 6.421 4.563 6.343 0 0 2.671 0.236 2.75-2.969 0 0-0.247-3.634-3-2.031-0.873-2.896 1.994-2.756 3.468-1.906 0.549 0.219 3.33 3.218 0.313 7.375 0 0-4.251 4.013-8.344-1.031 0 0-4.547-5.458 0.25-12.031 11.613-10.36 26.769 9.501 12.281 20.031-20.358 11.035-29.298-17.81-15.844-27.313 0 0 9.292-7.378 19.282-0.968 0 0 7.164 3.273 10.312 14.656 0 0 3.455-10.51 3.532-10.75-5.335-9.947-13.923-13.605-22.188-13.406zm30.938 15.531c-0.152 0.016-0.295 0.087-0.438 0.219 0 0-0.532 0.56 0.375 1.843 0 0 3.33 5.134 3.844 6.938 0.51 1.799 1.149 6.185-2.157 8.75 0 0-4.975 3.844-8.593-3.25-1.398-5.627-0.566-6.637-1.219-12.063-4.36 17.594-1.307 20.867-13.062 29.406 8.593-0.776 17.851-1.301 24.437-7.5 3.036-3.644 4.17-8.13 5.781-12.406 0.992-2.631 1.804-5.088 4.344-7.156l1.219-1.062s0.621-1.104-1.031-0.782c0 0-1.057 0.171-2.407 2.063-0.33 0.462-1.868 2.895-2.593 3.625 0 0-1.497 1.25-2.938 0.156-2.447-2.65-2.562-7.191-5.062-8.688-0.184-0.092-0.349-0.11-0.5-0.093zm-54.938 21.187c-0.628 2.063-1.283 3.123-2.188 4.688-1.563 2.701-8.4058 4.25-8.4058 4.25s2.3188 0.829 5.3748 1.468c3.056 0.64 16.813 1 16.813 1-6.837-2.176-7.529-5.716-11.594-11.406z" style="opacity:.05;stroke:#fff;stroke-width:2;fill:none" transform="matrix(.64102 0 0 .64102 -66.607 -30.56)"/>
  <path id="path4008" style="fill:url(#linearGradient4044)" d="m42.5 23.938c-6.428 0.154-12.646 2.653-16.969 6.374 0 0-16.067 14.732-2.062 34.282 0 0 4.73 7.618 16.531 7.218 0 0 15.892 0.879 19.594-14.187 0 0 2.733-21.231-17.094-24.437 0 0-13.442-1.444-15.094 13.781 0 0-2.132 13.788 12.5 14.75 0 0 10.628-0.093 10.156-10.188 0 0 0.341-10.33-8.156-10.25 0 0-6.781-0.953-6.781 6.657 0 0-0.47 6.421 4.563 6.343 0 0 2.671 0.236 2.75-2.969 0 0-0.247-3.634-3-2.031-0.873-2.896 1.994-2.756 3.468-1.906 0.549 0.219 3.33 3.218 0.313 7.375 0 0-4.251 4.013-8.344-1.031 0 0-4.547-5.458 0.25-12.031 11.613-10.36 26.769 9.501 12.281 20.031-20.358 11.035-29.298-17.81-15.844-27.313 0 0 9.292-7.378 19.282-0.968 0 0 7.164 3.273 10.312 14.656 0 0 3.455-10.51 3.532-10.75-5.335-9.947-13.923-13.605-22.188-13.406zm30.938 15.531c-0.152 0.016-0.295 0.087-0.438 0.219 0 0-0.532 0.56 0.375 1.843 0 0 3.33 5.134 3.844 6.938 0.51 1.799 1.149 6.185-2.157 8.75 0 0-4.975 3.844-8.593-3.25-1.398-5.627-0.566-6.637-1.219-12.063-4.36 17.594-1.307 20.867-13.062 29.406 8.593-0.776 17.851-1.301 24.437-7.5 3.036-3.644 4.17-8.13 5.781-12.406 0.992-2.631 1.804-5.088 4.344-7.156l1.219-1.062s0.621-1.104-1.031-0.782c0 0-1.057 0.171-2.407 2.063-0.33 0.462-1.868 2.895-2.593 3.625 0 0-1.497 1.25-2.938 0.156-2.447-2.65-2.562-7.191-5.062-8.688-0.184-0.092-0.349-0.11-0.5-0.093zm-54.938 21.187c-0.628 2.063-1.283 3.123-2.188 4.688-1.563 2.701-8.4058 4.25-8.4058 4.25s2.3188 0.829 5.3748 1.468c3.056 0.64 16.813 1 16.813 1-6.837-2.176-7.529-5.716-11.594-11.406z" transform="matrix(.64102 0 0 .64102 -66.607 -30.56)"/>
 </g>
</svg>
