<?xml version="1.0" encoding="UTF-8" standalone="no"?>
<!-- Created with Inkscape (http://www.inkscape.org/) -->
<svg id="svg3029" xmlns:rdf="http://www.w3.org/1999/02/22-rdf-syntax-ns#" xmlns="http://www.w3.org/2000/svg" height="16" width="16" version="1.1" xmlns:cc="http://creativecommons.org/ns#" xmlns:dc="http://purl.org/dc/elements/1.1/">
 <metadata id="metadata3034">
  <rdf:RDF>
   <cc:Work rdf:about="">
    <dc:format>image/svg+xml</dc:format>
    <dc:type rdf:resource="http://purl.org/dc/dcmitype/StillImage"/>
    <dc:title/>
   </cc:Work>
  </rdf:RDF>
 </metadata>
 <g id="layer1" transform="translate(0 -1036.4)">
  <path id="path3039" style="color:#000000;fill:#bebebe" d="m8 0c-4.4183 0-8 3.5817-8 8 0 4.418 3.5817 8 8 8 4.418 0 8-3.582 8-8 0-4.4183-3.582-8-8-8zm-0.0312 2c1.1006 0 2 0.9367 2 2.0625 0 0.9852-0.6854 1.7785-1.5938 1.9687 1.738-0.0027 3.612 0 5.25 0 0.153-0.0174 0.32 0.0753 0.375 0.2188 0.055 0.1434-0.03 0.3182-0.156 0.4062l-3.375 0.8126s-0.439 0.9987-0.469 1.5312c-0.0843 1.495 0.312 4.531 0.312 4.531 0.093 0.162 0.038 0.377-0.124 0.469-0.163 0.092-0.3763 0.037-0.4692-0.125l-1.75-3.375-1.7188 3.375c-0.1045 0.156-0.312 0.198-0.4688 0.094-0.1567-0.104-0.1982-0.313-0.0937-0.469 0 0 0.4517-3.061 0.3125-4.5625-0.0485-0.5235-0.5938-1.4375-0.5938-1.4375l-3.1874-0.8438c-0.112-0.0586-0.189-0.1552-0.1876-0.2812 0.0016-0.126 0.1354-0.3385 0.2813-0.3125 1.9135 0 3.5588 0.0028 5.3437 0-0.9542-0.1519-1.6874-0.9815-1.6874-2 0-1.1258 0.8993-2.0625 2-2.0625z" transform="translate(0 1036.4)"/>
  <path id="path3059" style="fill:#f00" d="m-10.79 1040.4c0 0.6523-0.51754 1.1817-1.1552 1.1817-0.63768 0-1.1552-0.5294-1.1552-1.1817 0-0.6522 0.51754-1.1816 1.1552-1.1816 0.63768 0 1.1552 0.5294 1.1552 1.1816zm2.8833 1.2565c-2.798 0.6523-5.2745 0.6378-8.2779 0.012-0.14592-0.026-0.28536 0.1884-0.28692 0.3144-0.0014 0.126 0.07729 0.2347 0.18925 0.2933l3.0755 0.998-0.02103 2.2909-1.0852 3.4312c-0.10452 0.1561-0.07266 0.3568 0.08411 0.461 0.15678 0.1041 0.37911 0.073 0.48364-0.083l1.7513-3.7034 1.7183 3.697c0.09291 0.1621 0.30002 0.2183 0.46261 0.1258 0.16259-0.092 0.21907-0.299 0.12616-0.461l-1.0651-3.4459-0.04205-2.2219 3.1186-1.1001c0.12601-0.088 0.18074-0.2547 0.12617-0.3981-0.05459-0.1435-0.20457-0.227-0.35748-0.2096h0.000012z"/>
  <path id="path2991" d="m29.97 1040.4c0 1.1259-0.89331 2.0396-1.994 2.0396s-1.994-0.9137-1.994-2.0396c0-1.1258 0.89331-2.0395 1.994-2.0395s1.994 0.9137 1.994 2.0395z" style="fill:#f00"/>
  <path id="path2993" d="m33.628 1042.4c-3.5295 0-7.2679 0.012-11.319 0.012-0.14592-0.026-0.28536 0.1884-0.28692 0.3144-0.0014 0.126 0.07729 0.2347 0.18925 0.2933l3.1909 0.8292s0.54932 0.9362 0.59782 1.4597c0.13915 1.5019-0.31318 4.556-0.31318 4.556-0.10452 0.1561-0.07266 0.3568 0.08411 0.461 0.15678 0.1041 0.37911 0.073 0.48364-0.083l1.7232-3.3654 1.7464 3.359c0.09291 0.1621 0.30002 0.2183 0.46261 0.1258 0.16259-0.092 0.21907-0.299 0.12616-0.461 0 0-0.39721-3.0477-0.31293-4.5426 0.03002-0.5325 0.46428-1.5313 0.46428-1.5313l3.3946-0.8188c0.12601-0.088 0.18074-0.2547 0.12617-0.3981-0.05459-0.1435-0.20457-0.227-0.35748-0.2096h0.000012z" style="fill:#f00"/>
 </g>
</svg>
