<?xml version="1.0" encoding="UTF-8" standalone="no"?>
<!-- Created with Inkscape (http://www.inkscape.org/) -->
<svg id="svg2408" xmlns:rdf="http://www.w3.org/1999/02/22-rdf-syntax-ns#" xmlns="http://www.w3.org/2000/svg" height="96" width="96" version="1.0" xmlns:cc="http://creativecommons.org/ns#" xmlns:xlink="http://www.w3.org/1999/xlink" xmlns:dc="http://purl.org/dc/elements/1.1/">
 <defs id="defs2410">
  <linearGradient id="ButtonShadow" y2="7.0165" gradientUnits="userSpaceOnUse" x2="45.448" gradientTransform="scale(1.0059 .99417)" y1="92.54" x1="45.448">
   <stop id="stop3750" offset="0"/>
   <stop id="stop3752" style="stop-opacity:.58824" offset="1"/>
  </linearGradient>
  <filter id="filter3174" color-interpolation-filters="sRGB">
   <feGaussianBlur id="feGaussianBlur3176" stdDeviation="1.71"/>
  </filter>
  <linearGradient id="linearGradient8478" y2="138.66" gradientUnits="userSpaceOnUse" x2="48" y1="20.221" x1="48">
   <stop id="stop3739-00" style="stop-color:#fff" offset="0"/>
   <stop id="stop3741-66" style="stop-color:#fff;stop-opacity:0" offset="1"/>
  </linearGradient>
  <filter id="filter3174-9" color-interpolation-filters="sRGB">
   <feGaussianBlur id="feGaussianBlur3176-8" stdDeviation="1.71"/>
  </filter>
  <filter id="filter3794-71" height="1.384" width="1.384" color-interpolation-filters="sRGB" y="-.192" x="-.192">
   <feGaussianBlur id="feGaussianBlur3796-90" stdDeviation="5.28"/>
  </filter>
  <clipPath id="clipPath3613-01">
   <rect id="rect3615-422" style="fill:#fff" rx="6" ry="6" height="84" width="84" y="6" x="6"/>
  </clipPath>
  <filter id="filter3174-28" color-interpolation-filters="sRGB">
   <feGaussianBlur id="feGaussianBlur3176-3" stdDeviation="1.71"/>
  </filter>
  <filter id="filter3174-1" color-interpolation-filters="sRGB">
   <feGaussianBlur id="feGaussianBlur3176-1" stdDeviation="1.71"/>
  </filter>
  <filter id="filter3174-0" color-interpolation-filters="sRGB">
   <feGaussianBlur id="feGaussianBlur3176-34" stdDeviation="1.71"/>
  </filter>
  <filter id="filter3174-0-6" color-interpolation-filters="sRGB">
   <feGaussianBlur id="feGaussianBlur3176-34-9" stdDeviation="1.71"/>
  </filter>
  <filter id="filter3174-1-0" color-interpolation-filters="sRGB">
   <feGaussianBlur id="feGaussianBlur3176-1-6" stdDeviation="1.71"/>
  </filter>
  <filter id="filter3174-28-9" color-interpolation-filters="sRGB">
   <feGaussianBlur id="feGaussianBlur3176-3-7" stdDeviation="1.71"/>
  </filter>
  <clipPath id="clipPath3613-01-0">
   <rect id="rect3615-422-5" style="fill:#fff" rx="6" ry="6" height="84" width="84" y="6" x="6"/>
  </clipPath>
  <filter id="filter3794-71-2" height="1.384" width="1.384" color-interpolation-filters="sRGB" y="-.192" x="-.192">
   <feGaussianBlur id="feGaussianBlur3796-90-1" stdDeviation="5.28"/>
  </filter>
  <filter id="filter3174-9-1" color-interpolation-filters="sRGB">
   <feGaussianBlur id="feGaussianBlur3176-8-6" stdDeviation="1.71"/>
  </filter>
  <filter id="filter3174-8" color-interpolation-filters="sRGB">
   <feGaussianBlur id="feGaussianBlur3176-95" stdDeviation="1.71"/>
  </filter>
  <filter id="filter3174-4" color-interpolation-filters="sRGB">
   <feGaussianBlur id="feGaussianBlur3176-0" stdDeviation="1.71"/>
  </filter>
  <linearGradient id="ButtonShadow-0-1" y2="7.0165" gradientUnits="userSpaceOnUse" x2="45.448" gradientTransform="matrix(1.0059 0 0 .99417 100 0)" y1="92.54" x1="45.448">
   <stop id="stop3750-8-5" offset="0"/>
   <stop id="stop3752-5-0" style="stop-opacity:.58824" offset="1"/>
  </linearGradient>
  <filter id="filter3174-36" color-interpolation-filters="sRGB">
   <feGaussianBlur id="feGaussianBlur3176-9" stdDeviation="1.71"/>
  </filter>
  <radialGradient id="radialGradient5709" gradientUnits="userSpaceOnUse" cy="57.14" cx="51.743" gradientTransform="matrix(1.375 .45799 -.31722 .90804 -7.4521 -18.581)" r="6.3614">
   <stop id="stop4284" style="stop-color:#d5edd2" offset="0"/>
   <stop id="stop4286" style="stop-color:#a6daa3;stop-opacity:0" offset="1"/>
  </radialGradient>
  <radialGradient id="radialGradient5726" gradientUnits="userSpaceOnUse" cy="55.207" cx="88.278" gradientTransform="matrix(1.0034 .0077439 -.010712 1.3993 .74528 -19.867)" r="41.971">
   <stop id="stop4984" style="stop-color:#1a3617" offset="0"/>
   <stop id="stop4986" style="stop-color:#151515" offset="1"/>
  </radialGradient>
  <radialGradient id="radialGradient5733" gradientUnits="userSpaceOnUse" cy="60.455" cx="101.52" gradientTransform="matrix(.27366 -.0046876 .0089781 .95702 21.525 -.57523)" r="40.178">
   <stop id="stop4192" style="stop-color:#abdda9" offset="0"/>
   <stop id="stop4196" style="stop-color:#74c16b" offset="1"/>
  </radialGradient>
  <linearGradient id="linearGradient5736" y2="-.11510" xlink:href="#ButtonShadow-0-1" gradientUnits="userSpaceOnUse" x2="150.13" gradientTransform="matrix(1.0262 0 0 1.0244 -104.12 6.093)" y1="82.777" x1="149.76"/>
  <linearGradient id="linearGradient5739" y2="-.11510" xlink:href="#ButtonShadow-0-1" gradientUnits="userSpaceOnUse" x2="150.13" gradientTransform="matrix(1.047 0 0 1.0311 -107.19 6.1309)" y1="82.777" x1="149.76"/>
  <linearGradient id="linearGradient5742" y2="-.11510" xlink:href="#ButtonShadow-0-1" gradientUnits="userSpaceOnUse" x2="150.13" gradientTransform="matrix(1.0644 0 0 1.0418 -109.81 5.9504)" y1="82.777" x1="149.76"/>
  <linearGradient id="linearGradient5745" y2="-.11510" xlink:href="#ButtonShadow-0-1" gradientUnits="userSpaceOnUse" x2="150.13" gradientTransform="matrix(1.0803 0 0 1.0613 -112.16 5.2255)" y1="82.777" x1="149.76"/>
  <linearGradient id="linearGradient5748" y2="-.11510" xlink:href="#ButtonShadow-0-1" gradientUnits="userSpaceOnUse" x2="150.13" gradientTransform="matrix(1.0961 0 0 1.0643 -114.38 5.9909)" y1="82.777" x1="149.76"/>
  <linearGradient id="linearGradient16825" y2="23.422" gradientUnits="userSpaceOnUse" x2="37.055" gradientTransform="matrix(1.0024 0 0 1.0154 .38085 -.10693)" y1="6" x1="36.357">
   <stop id="stop3739-0-3-3" style="stop-color:#fff" offset="0"/>
   <stop id="stop3741-83-3-1" style="stop-color:#fff;stop-opacity:0" offset="1"/>
  </linearGradient>
  <radialGradient id="radialGradient17809" gradientUnits="userSpaceOnUse" cy="90.094" cx="48.374" gradientTransform="matrix(1.1645 0 0 1.013 -7.1298 .014848)" r="42">
   <stop id="stop3739-0-3-8" style="stop-color:#fff" offset="0"/>
   <stop id="stop3741-83-3-4" style="stop-color:#fff;stop-opacity:0" offset="1"/>
  </radialGradient>
  <radialGradient id="radialGradient17851" gradientUnits="userSpaceOnUse" cy="56.453" cx="51.841" gradientTransform="matrix(1.4032 .32617 -.25449 1.1038 -6.4382 -20.577)" r="6.3614">
   <stop id="stop6630" style="stop-color:#c0e5bf" offset="0"/>
   <stop id="stop6632" style="stop-color:#a7dba4;stop-opacity:0" offset="1"/>
  </radialGradient>
 </defs>
 <metadata id="metadata2413">
  <rdf:RDF>
   <cc:Work rdf:about="">
    <dc:format>image/svg+xml</dc:format>
    <dc:type rdf:resource="http://purl.org/dc/dcmitype/StillImage"/>
    <dc:title/>
   </cc:Work>
  </rdf:RDF>
 </metadata>
 <g id="layer2" style="display:none">
  <rect id="rect3745" style="opacity:.9;filter:url(#filter3174);fill:url(#ButtonShadow)" rx="6" ry="6" height="85" width="86" y="7" x="5"/>
 </g>
 <g id="layer2-6" style="display:none" transform="translate(115.54 .85219)">
  <rect id="rect3745-02" style="opacity:.9;filter:url(#filter3174-0);fill:url(#ButtonShadow)" rx="6" ry="6" height="85" width="86" y="7" x="5"/>
 </g>
 <g id="layer2-7" style="display:none" transform="translate(235.43 .85219)">
  <rect id="rect3745-0" style="opacity:.9;filter:url(#filter3174-9);fill:url(#ButtonShadow)" rx="6" ry="6" height="85" width="86" y="7" x="5"/>
 </g>
 <g id="layer2-9" style="display:none" transform="matrix(.95833 0 0 .94792 252.01 5.1359)">
  <rect id="rect3745-3" style="opacity:.9;filter:url(#filter3174-1);fill:url(#ButtonShadow)" rx="6" ry="6" height="85" width="86" y="7" x="5"/>
 </g>
 <g id="layer2-20" style="display:none" transform="matrix(1.0222 0 0 1.0111 248.67 2.1302)">
  <rect id="rect3745-64" style="opacity:.9;filter:url(#filter3174-28);fill:url(#ButtonShadow)" rx="6" ry="6" height="85" width="86" y="7" x="5"/>
 </g>
 <g id="layer5-35" style="display:none" transform="matrix(1.0222 0 0 1.0111 248.67 2.1302)">
  <rect id="rect3171-20" style="opacity:.1;filter:url(#filter3794-71);stroke:#fff;stroke-linecap:round;stroke-width:.5;fill:url(#linearGradient8478)" clip-path="url(#clipPath3613-01)" rx="12" ry="12" height="66" width="66" y="15" x="15"/>
 </g>
 <g id="layer2-92" style="display:none" transform="translate(126.96 -5.7242)">
  <rect id="rect3745-31" style="opacity:.9;filter:url(#filter3174-8);fill:url(#ButtonShadow)" rx="6" ry="6" height="85" width="86" y="7" x="5"/>
 </g>
 <g id="layer2-6-8" style="display:none" transform="translate(242.5 -4.8721)">
  <rect id="rect3745-02-7" style="opacity:.9;filter:url(#filter3174-0-6);fill:url(#ButtonShadow)" rx="6" ry="6" height="85" width="86" y="7" x="5"/>
 </g>
 <g id="layer2-7-6" style="display:none" transform="translate(362.39 -4.8721)">
  <rect id="rect3745-0-3" style="opacity:.9;filter:url(#filter3174-9-1);fill:url(#ButtonShadow)" rx="6" ry="6" height="85" width="86" y="7" x="5"/>
 </g>
 <g id="layer2-9-8" style="display:none" transform="matrix(.95833 0 0 .94792 378.97 -.58833)">
  <rect id="rect3745-3-5" style="opacity:.9;filter:url(#filter3174-1-0);fill:url(#ButtonShadow)" rx="6" ry="6" height="85" width="86" y="7" x="5"/>
 </g>
 <g id="layer2-20-5" style="display:none" transform="matrix(1.0222 0 0 1.0111 375.63 -3.594)">
  <rect id="rect3745-64-0" style="opacity:.9;filter:url(#filter3174-28-9);fill:url(#ButtonShadow)" rx="6" ry="6" height="85" width="86" y="7" x="5"/>
 </g>
 <g id="layer5-35-1" style="display:none" transform="matrix(1.0222 0 0 1.0111 375.63 -3.594)">
  <rect id="rect3171-20-2" style="opacity:.1;filter:url(#filter3794-71-2);stroke:#fff;stroke-linecap:round;stroke-width:.5;fill:url(#linearGradient8478)" clip-path="url(#clipPath3613-01-0)" rx="12" ry="12" height="66" width="66" y="15" x="15"/>
 </g>
 <g id="layer2-8" style="display:none" transform="translate(124.25 -23.161)">
  <rect id="rect3745-6" style="opacity:.9;filter:url(#filter3174-4);fill:url(#ButtonShadow)" rx="6" ry="6" height="85" width="86" y="7" x="5"/>
 </g>
 <g id="layer2-84" style="display:none" transform="matrix(.95833 0 0 .95101 1.8538 3.8033)">
  <rect id="rect3745-08" style="opacity:.9;filter:url(#filter3174-36);fill:url(#ButtonShadow)" rx="6" ry="6" height="85" width="86" y="7" x="5"/>
 </g>
 <g id="g17828">
  <path id="path5461" style="opacity:0.08;fill:url(#linearGradient5748)" d="m9.1926 5.3402c-3.6408 0-6.5763 2.8823-6.5763 6.4526v47.696c7.4041 5.4705 8.1862 5.5545 8.1862 5.5545s0.07395-7.596 0.03425-10.743c-0.04-3.147-4.9668-4.424-4.9668-4.424l0.06849-0.63195 17.057 0.03326-0.03424 0.73173s-4.2447 0.88587-4.2815 4.2241c-0.03677 3.3382 0.10263 10.976 0.10263 10.976s2.105 0.01828 5.2748-0.03326c2.4994-0.04062 5.1678 0.50635 8.3574-0.36587 3.3761-0.92321 7.7409-3.7307 10.687-5.9537 12.216-9.218 14.724-17.529 11.749-32.562-2.777-14.031-16.955-20.322-16.955-20.322s5.5623 0.068908 15.516 11.109c14.934 16.564 4.6582 35.489 4.6582 35.489-3.8302 6.4839-7.2851 10.252-13.016 14.335-3.3807 2.2702-7.7322 5.9399-12.639 6.9182-2.7599 0.55031-5.3067 0.09724-8.4259 0.29935-1.6004 0.10373-3.694 0.07599-5.172 0.13304l-0.03424 11.475-2.4319 9.6456 33.258 0.09974 3.7677-6.6854 1.7811 6.6854h0.51378l2.9114-5.1887 1.3701 5.1887 28.121 0.09974c3.6408 0.01071 6.5421-2.8824 6.5421-6.4526v-33.36l-4.2815-3.0932 4.2815-0.46565v-0.83152l-4.2815-3.0932 4.2815-0.46565v-36.021c0-3.5702-2.9013-6.4526-6.5421-6.4526h-7.9806l-1.5756 4.5235-2.1236-4.5235h-4.35l-0.78779 5.4548-3.9389-5.4548h-58.125zm-6.5763 64.326v19.458c0 3.5702 2.9014 6.2791 6.5421 6.253l4.1445-0.03317-2.4661-9.7121v-11.442c-0.125-0.085-0.206-0.1-0.206-0.1-2.4438-1.257-4.9867-2.125-8.0147-4.423z"/>
  <path id="path4651" style="opacity:.1;fill:url(#linearGradient5745)" d="m9.6431 4.5765c-3.5884 0-6.4817 2.8742-6.4817 6.4344v47.561c7.2976 5.4551 8.0684 5.5389 8.0684 5.5389s0.07288-7.5745 0.03376-10.713c-0.03923-3.1384-4.895-4.4112-4.895-4.4112l0.067505-0.63017 16.812 0.03316-0.03375 0.72967s-4.1836 0.88337-4.2199 4.2122c-0.03624 3.3288 0.10115 10.945 0.10115 10.945s2.0747 0.01823 5.1989-0.03316c2.4635-0.04051 5.0934 0.50492 8.2372-0.36484 3.3276-0.9206 7.6295-3.7202 10.533-5.9369 12.039-9.192 14.511-17.48 11.578-32.47-2.737-13.992-16.71-20.265-16.71-20.265s5.4823 0.068714 15.293 11.078c14.719 16.518 4.5912 35.389 4.5912 35.389-3.7751 6.4656-7.1803 10.223-12.828 14.295-3.3321 2.2638-7.6209 5.9231-12.457 6.8987-2.7202 0.54875-5.2303 0.09696-8.3047 0.2985-1.5774 0.10344-3.6409 0.07577-5.0976 0.13266l-0.03375 11.443-2.3969 9.6184 32.78 0.09946 3.7135-6.6665 1.7555 6.6665h0.50638l2.8695-5.174 1.3504 5.174 27.716 0.09946c3.5884 0.01068 6.448-2.8742 6.448-6.4344v-33.266l-4.2199-3.0845 4.2199-0.46434v-0.82917l-4.2199-3.0845 4.2199-0.46434v-35.92c0-3.5602-2.8595-6.4344-6.448-6.4344h-7.8658l-1.5529 4.5107-2.093-4.5107h-4.2874l-0.77645 5.4394-3.8823-5.4394h-57.289zm-6.4817 64.145v19.403c0 3.5602 2.8596 6.2614 6.4479 6.2354l4.0848-0.03308-2.4306-9.6847v-11.409c-0.124-0.086-0.203-0.1-0.203-0.1-2.4089-1.254-4.9152-2.119-7.8996-4.412z"/>
  <path id="path4647" style="opacity:.2;fill:url(#linearGradient5742)" d="m10.202 5.3134c-3.5357 0-6.3864 2.8212-6.3864 6.3156v46.684c7.1903 5.3544 7.9497 5.4367 7.9497 5.4367s0.07181-7.4347 0.03326-10.515c-0.03866-3.0805-4.8231-4.3298-4.8231-4.3298l0.066512-0.61854 16.565 0.03255-0.03326 0.7162s-4.1221 0.86707-4.1578 4.1345c-0.03572 3.2674 0.09967 10.743 0.09967 10.743s2.0442 0.01791 5.1224-0.03255c2.4272-0.03976 5.0185 0.4956 8.116-0.3581 3.2786-0.90361 7.5173-3.6515 10.378-5.8273 11.862-9.023 14.298-17.159 11.409-31.872-2.697-13.734-16.465-19.891-16.465-19.891s5.4017 0.067447 15.068 10.873c14.503 16.213 4.5237 34.736 4.5237 34.736-3.7196 6.3463-7.0747 10.034-12.64 14.031-3.2831 2.2221-7.5089 5.8138-12.274 6.7714-2.6801 0.53863-5.1534 0.09518-8.1826 0.29299-1.5542 0.10154-3.5874 0.07438-5.0226 0.13021l-0.03326 11.231-2.3616 9.4409 32.298 0.09762 3.6589-6.5435 1.7296 6.5435h0.49894l2.8273-5.0785 1.3305 5.0785 27.308 0.09762c3.5357 0.01049 6.3531-2.8212 6.3531-6.3156v-32.653l-4.1578-3.0276 4.1578-0.45577v-0.81387l-4.1578-3.0276 4.1578-0.45577v-35.257c0-3.4945-2.8175-6.3156-6.3531-6.3156h-7.7501l-1.5301 4.4275-2.0623-4.4275h-4.2243l-0.76504 5.339-3.8252-5.339h-56.446zm-6.3864 62.961v19.045c0 3.4945 2.8176 6.1458 6.3531 6.1203l4.0248-0.03247-2.3949-9.506v-11.199c-0.12157-0.08339-0.19958-0.09764-0.19958-0.09764-2.3733-1.229-4.8428-2.078-7.7834-4.328z"/>
  <path id="path4643" style="opacity:.3;fill:url(#linearGradient5739)" d="m10.855 5.5004c-3.4778 0-6.2819 2.7923-6.2819 6.2511v46.206c7.0727 5.2997 7.8197 5.3811 7.8197 5.3811s0.07064-7.3587 0.03266-10.408c-0.03798-3.049-4.7442-4.2855-4.7442-4.2855l0.06542-0.61222 16.294 0.03221-0.03266 0.70888s-4.0547 0.8582-4.0898 4.0922c-0.03511 3.234 0.09807 10.633 0.09807 10.633s2.0108 0.01772 5.0386-0.03222c2.3875-0.03935 4.9364 0.49054 7.9833-0.35444 3.225-0.89438 7.3943-3.6142 10.208-5.7677 11.669-8.931 14.065-16.983 11.223-31.546-2.653-13.593-16.196-19.687-16.196-19.687s5.3133 0.066756 14.821 10.762c14.266 16.047 4.4497 34.381 4.4497 34.381-3.6588 6.2815-6.959 9.9316-12.433 13.888-3.2294 2.1993-7.3861 5.7544-12.073 6.7022-2.6363 0.53312-5.0691 0.0942-8.0487 0.29-1.5287 0.1005-3.5287 0.07362-4.9405 0.12889l-0.03266 11.117-2.323 9.3444 31.77 0.09664 3.599-6.4766 1.7014 6.4766h0.49077l2.7811-5.0266 1.3087 5.0266 26.862 0.09664c3.4778 0.01034 6.2492-2.7923 6.2492-6.2511v-32.319l-4.0898-2.9967 4.0898-0.45111v-0.80555l-4.0898-2.9967 4.0898-0.45111v-34.896c0-3.4587-2.7714-6.2511-6.2492-6.2511h-7.6234l-1.5051 4.3822-2.0285-4.3822h-4.1552l-0.75253 5.2844-3.7626-5.2844h-55.523zm-6.2819 62.317v18.85c0 3.4587 2.7715 6.083 6.2492 6.0577l3.9589-0.03214-2.3557-9.4088v-11.084c-0.12-0.082-0.196-0.096-0.196-0.096-2.3349-1.219-4.7639-2.059-7.6564-4.286z"/>
  <path id="path4616" style="opacity:.45;fill:url(#linearGradient5736)" d="m11.577 5.4666c-3.4086 0-6.1569 2.7743-6.1569 6.2107v45.908c6.9319 5.2655 7.6641 5.3463 7.6641 5.3463s0.06926-7.3112 0.03201-10.341c-0.03725-3.0293-4.6498-4.2579-4.6498-4.2579l0.064136-0.60827 15.97 0.03202-0.03201 0.70431s-3.974 0.85266-4.0084 4.0658c-0.03438 3.2131 0.09614 10.565 0.09614 10.565s1.9708 0.0176 4.9384-0.03202c2.34-0.0391 4.8382 0.48736 7.8245-0.35215 3.161-0.888 7.247-3.59 10.005-5.73 11.436-8.872 13.785-16.873 10.999-31.342-2.6-13.505-15.873-19.56-15.873-19.56s5.2076 0.066324 14.527 10.693c13.982 15.943 4.3612 34.159 4.3612 34.159-3.586 6.2409-6.8205 9.8675-12.186 13.798-3.1652 2.1851-7.2391 5.7172-11.833 6.6589-2.5839 0.52967-4.9683 0.09357-7.8886 0.28813-1.4983 0.09982-3.4585 0.07318-4.8422 0.12806l-0.03201 11.045-2.2768 9.2841 31.137 0.09599 3.5274-6.4348 1.6675 6.4348h0.48101l2.7257-4.9942 1.2827 4.9942 26.327 0.09599c3.4086 0.01024 6.1249-2.7743 6.1249-6.2107v-32.11l-4.0084-2.9773 4.0084-0.4482v-0.80035l-4.0084-2.9773 4.0084-0.4482v-34.671c0-3.4364-2.7162-6.2107-6.1249-6.2107h-7.4717l-1.4751 4.3539-1.9882-4.3539h-4.0726l-0.73755 5.2503-3.6878-5.2503h-54.418zm-6.1569 61.915v18.728c0 3.4364 2.7163 6.0437 6.1249 6.0186l3.8802-0.03196-2.3089-9.3481v-11.013c-0.11721-0.08196-0.1924-0.09604-0.1924-0.09604-2.288-1.211-4.6686-2.046-7.5036-4.258z"/>
  <rect id="rect6670" style="fill:url(#radialGradient5733)" rx="4.1041" ry="6.0334" height="77.374" width="54.721" y="6.7665" x="6.3835"/>
  <rect id="rect4614" style="fill:#74c16b" rx="0" ry="6.5133" height="7.5812" width="10.173" y="83.73" x="13.075"/>
  <path id="path4288" style="fill:#151515" d="m20.366 86.001-2.0068-2.6942 3.6975 0.87092z"/>
  <path id="path6656" style="fill:#181818" d="m52.01 43.271 3.4439 2.6321-3.7828-0.33895z"/>
  <path id="path6653" style="fill:#151515" d="m43.883 68.062-0.07697-4.345 2.0794 3.1909z"/>
  <path id="rect5790" style="fill:url(#radialGradient5726)" d="m12.398 6.1344c-3.3331 0-6.0206 2.7284-6.0206 6.108v45.149c6.7784 5.1784 7.4944 5.2579 7.4944 5.2579s0.06778-7.1903 0.03136-10.17c-0.03642-2.9792-4.5468-4.1874-4.5468-4.1874l0.062715-0.59821 15.616 0.03148-0.03136 0.69266s-3.886 0.83856-3.9197 3.9985c-0.03364 3.16 0.09407 10.39 0.09407 10.39s1.9271 0.0173 4.829-0.03148c2.2882-0.03845 4.7311 0.4793 7.6512-0.34633 3.09-0.874 7.534-2.636 10.23-4.74 11.183-8.726 13.032-17.49 10.308-31.719-2.542-13.283-15.522-19.237-15.522-19.237s5.0923 0.065229 14.205 10.516c13.672 15.68 4.8247 33.594 4.8247 33.594-3.5066 6.1377-5.4373 9.8163-11.58 14.13-3.0951 2.149-7.9749 5.0626-12.467 5.9887-2.5266 0.52091-4.8583 0.09202-7.7139 0.28336-1.4651 0.09817-3.3819 0.07198-4.7349 0.12594l-0.03136 10.862-2.2264 9.1305 30.448 0.09445 3.4493-6.3284 1.6306 6.3284h0.47036l2.6654-4.9116 1.2543 4.9116 25.744 0.09445c3.3331 0.0098 5.9892-2.7284 5.9892-6.108v-31.579l-3.9197-2.9281 3.9197-0.44078v-0.78712l-3.9197-2.9281 3.9197-0.44078v-34.098c0-3.3796-2.6561-6.108-5.9892-6.108h-7.3062l-1.4424 4.2819-1.9442-4.2819h-3.9824l-0.72122 5.1635-3.6061-5.1635zm-6.0206 60.891v18.418c0 3.3796 2.6562 5.9438 5.9892 5.9191l3.7942-0.03148-2.2577-9.1935v-10.831c-0.116-0.079-0.189-0.093-0.189-0.093-2.238-1.19-4.5658-2.011-7.3379-4.187z"/>
  <path id="path6664" style="fill:#181818" d="m20.122 53.936a1.2717 0.95763 0 1 0 0.02064 -0.17188"/>
  <path id="path3388" style="fill:#74c16b" d="m21.595 47.731 15.877-0.11286-0.000003 0.93108s-3.934 0.79-3.8216 3.16-0.10558 30.291-0.10558 30.291l-2.2432 9.3877-2.7209 0.01369-2.5736-9.3341 0.1686-30.415s-0.30443-1.9008-2.3885-2.7086c-1.0668-0.41347-1.6731-0.30256-2.041-0.55277-0.4266-0.29013-0.15087-0.66045-0.15087-0.66045z"/>
  <path id="path6662" style="fill:#151515" d="m33.401 84.883-2.0068-2.6943 3.6975 0.87092z"/>
  <path id="path6660" style="fill:#181818" d="m34.997 52.946a1.1127 0.79803 0 1 1 -0.01807 -0.14324"/>
  <path id="path6612" style="stroke:url(#radialGradient17851);stroke-linecap:round;stroke-width:1.0055px;fill:none" d="m44.867 65.187s7.3121-4.3093 11.763-13.407"/>
  <path id="path6658" style="fill:#181818" d="m35.503 57.904a1.2717 0.95763 0 1 1 -0.021 -0.172"/>
  <path id="path6624" style="stroke:url(#radialGradient5709);stroke-linecap:round;stroke-width:1.0001px;fill:none" d="m37.837 61.957s7.9283-3.1308 13.703-11.319"/>
  <path id="path4290" style="fill:#181818" d="m20.281 60.16a1.2717 0.95763 0 1 0 0.02064 -0.17188"/>
  <path id="path5792-3" style="opacity:.3;fill:url(#linearGradient16825)" d="m12.396 5.9901c-3.3319 0-5.9883 2.7043-5.9883 6.0795v2.0368 69.035 2.0368c0 0.33988 0.039558 0.66459 0.092123 0.98754 0.048801 0.30015 0.093619 0.61259 0.18426 0.89495 0.00981 0.0308 0.020358 0.0619 0.030711 0.0926 0.099131 0.29222 0.22805 0.56411 0.36851 0.83324 0.14494 0.27773 0.30652 0.5221 0.49135 0.77152 0.18483 0.24941 0.39369 0.49247 0.61418 0.70979 0.44099 0.43466 0.94634 0.82746 1.5048 1.111 0.2792 0.14178 0.55761 0.24118 0.85986 0.33947-0.25681-0.10171-0.47372-0.22946-0.70631-0.37033-0.00703-0.004-0.023301 0.004-0.030711 0-0.032019-0.0197-0.060669-0.0415-0.092123-0.0617-0.12066-0.0779-0.25552-0.15906-0.36851-0.24688-0.1064-0.082-0.20764-0.15662-0.30709-0.24689-0.17835-0.16392-0.33844-0.36676-0.49135-0.55549-0.1078-0.13224-0.21277-0.25804-0.30709-0.40119-0.025163-0.0389-0.037368-0.0837-0.061422-0.12344-0.064879-0.10464-0.1269-0.22983-0.18426-0.33946-0.10123-0.19772-0.23134-0.4047-0.30709-0.61722-0.00842-0.0222-0.023013-0.0394-0.030711-0.0617-0.03188-0.0934-0.034713-0.21273-0.061422-0.3086-0.030344-0.10832-0.068773-0.19745-0.092123-0.30861-0.072983-0.34677-0.12284-0.71021-0.12284-1.0801v-2.0368-69.035-2.0368c0-2.8247 2.2172-5.0611 5.0056-5.0611h2.0268 52.789l-1.5048-2.0368h-53.311zm57.027 0-0.3378 2.0368h5.8962l-1.1362-2.0368h-4.4221zm7.2474 0-0.61418 2.0368h6.5104 2.0268c2.7884 0 5.0056 2.2364 5.0056 5.0611v2.0368 69.035 2.0368c0 0.36991-0.04985 0.73335-0.12284 1.0801-0.04432 0.21008-0.08557 0.41809-0.15355 0.61721-0.0084 0.0223-0.02273 0.0396-0.0307 0.0617-0.06293 0.17642-0.16511 0.3583-0.24567 0.52463-0.04166 0.0841-0.07685 0.16561-0.12284 0.24689-0.05467 0.0988-0.12341 0.21428-0.18426 0.3086-0.09437 0.1431-0.19926 0.26894-0.30709 0.40119-0.14351 0.17715-0.29463 0.36926-0.46064 0.52463-0.01118 0.0103-0.01938 0.0206-0.03071 0.0309-0.1387 0.12754-0.30786 0.22847-0.46064 0.33947-0.10277 0.0743-0.19865 0.14964-0.30709 0.21602-0.0068 0.004-0.02329-0.004-0.03071 0-0.23259 0.1409-0.44951 0.26856-0.70631 0.37033 0.30224-0.0983 0.58065-0.19769 0.85986-0.33947 0.55841-0.28352 1.0638-0.67632 1.5048-1.111 0.22049-0.21732 0.42937-0.46038 0.61418-0.70979 0.18483-0.24942 0.34641-0.49379 0.49135-0.77152 0.14046-0.26913 0.26942-0.54102 0.36851-0.83323 0.0098-0.0313 0.02077-0.061 0.03071-0.0926 0.09074-0.28237 0.13543-0.59481 0.18426-0.89496 0.05258-0.32295 0.09212-0.64766 0.09212-0.98754v-2.0368-69.035-2.0368c0-3.3752-2.6564-6.0795-5.9883-6.0795h-7.923z"/>
  <path id="path5794" style="opacity:.2;fill:url(#radialGradient17809)" d="m10.68 6.2619c-0.304 0.0985-0.583 0.1973-0.8634 0.3394-0.5605 0.284-1.0678 0.7061-1.5105 1.1415-0.2213 0.2177-0.431 0.4289-0.6165 0.6787-0.1856 0.2499-0.3478 0.524-0.4932 0.8022-0.141 0.2696-0.2705 0.5403-0.37 0.8333-0.01039 0.03072-0.021 0.06168-0.030831 0.09255-0.090975 0.28285-0.13598 0.59406-0.18496 0.89471-0.052771 0.32352-0.092483 0.64682-0.092483 0.98727v2.0362 69.14 2.0362c0 3.381 2.6666 6.1087 6.0112 6.1087l15.99 0.15852-0.49323-2.0363-13.462-0.15852h-2.0346c-2.7987-0.001-5.0244-2.262-5.0244-5.092v-2.0362-69.14-2.0362c0-0.37053 0.050044-0.73245 0.12331-1.0798 0.023438-0.11134 0.062022-0.23087 0.092483-0.33937 0.026805-0.096034 0.029652-0.18416 0.061652-0.27767 0.00769-0.022344 0.022409-0.039509 0.030831-0.061704 0.076-0.2127 0.2066-0.4497 0.3082-0.6477 0.0576-0.1099 0.1199-0.2037 0.185-0.3086 0.0241-0.0398 0.0364-0.0843 0.0617-0.1234 0.0946-0.1434 0.2-0.2686 0.3082-0.401 0.1535-0.1891 0.3142-0.3912 0.4933-0.5554 0.0998-0.0904 0.2014-0.1646 0.3082-0.2468 0.1134-0.088 0.2488-0.1688 0.3699-0.2468 0.031578-0.020284 0.060339-0.041999 0.09248-0.061704 0.00744-0.0044 0.023804 0.0044 0.030833 0 0.2333-0.1411 0.4513-0.2992 0.7093-0.4011zm76.173 0c0.25779 0.10194 0.47553 0.25994 0.70901 0.40108 0.0074 0.0044 0.02391-0.0044 0.03083 0 0.10886 0.066512 0.20511 0.14157 0.30827 0.21597 0.15337 0.11118 0.32317 0.21161 0.4624 0.33937 0.01137 0.010287 0.0196 0.020564 0.03083 0.030851 0.16664 0.15562 0.31834 0.34705 0.4624 0.52449 0.10824 0.13249 0.21353 0.25773 0.30827 0.40108 0.06108 0.094494 0.13008 0.17872 0.18496 0.27767 0.04618 0.081417 0.08149 0.16257 0.12331 0.24682 0.08087 0.16662 0.18346 0.37862 0.24661 0.55534 0.0079 0.022053 0.02233 0.039359 0.03083 0.061704 0.06824 0.19945 0.10964 0.40661 0.15413 0.61704 0.07326 0.34738 0.12331 0.70929 0.12331 1.0798v2.0362 69.14 2.0362c0 2.8296-2.2256 5.0906-5.0247 5.0906h-2.0346-24.877l0.55488 2.0363h26.357c3.3446 0 6.0112-2.7277 6.0112-6.1087v-2.0362-69.14-2.0362c0-0.34045-0.0397-0.66375-0.09248-0.98727-0.04902-0.30066-0.09388-0.61186-0.18496-0.89471-0.01-0.03161-0.02096-0.06124-0.03083-0.09255-0.1-0.292-0.229-0.5627-0.37-0.8323-0.146-0.2782-0.308-0.5523-0.493-0.8022-0.186-0.2498-0.396-0.461-0.617-0.6787-0.443-0.4354-0.95-0.8575-1.51-1.1415-0.281-0.142-0.56-0.2409-0.864-0.3394zm-55.097 83.212l-0.49322 2.0363 18.108-0.06365 1.1494-2.0519-18.765 0.07926zm22.072-0.15852 0.63691 2.1599 0.51506-0.06763 1.1686-2.0923z"/>
 </g>
</svg>
