<?xml version="1.0" encoding="UTF-8" standalone="no"?>
<!-- Created with Inkscape (http://www.inkscape.org/) -->
<svg id="svg2408" xmlns:rdf="http://www.w3.org/1999/02/22-rdf-syntax-ns#" xmlns="http://www.w3.org/2000/svg" height="96" width="96" version="1.0" xmlns:cc="http://creativecommons.org/ns#" xmlns:xlink="http://www.w3.org/1999/xlink" xmlns:dc="http://purl.org/dc/elements/1.1/">
 <defs id="defs2410">
  <linearGradient id="linearGradient3847">
   <stop id="stop3849" style="stop-color:#fff" offset="0"/>
   <stop id="stop3851" style="stop-color:#fff;stop-opacity:0" offset="1"/>
  </linearGradient>
  <linearGradient id="ButtonShadow" y2="7.0165" gradientUnits="userSpaceOnUse" x2="45.448" gradientTransform="scale(1.0059 .99417)" y1="92.54" x1="45.448">
   <stop id="stop3750" offset="0"/>
   <stop id="stop3752" style="stop-opacity:.58824" offset="1"/>
  </linearGradient>
  <filter id="filter3174" color-interpolation-filters="sRGB">
   <feGaussianBlur id="feGaussianBlur3176" stdDeviation="1.71"/>
  </filter>
  <linearGradient id="linearGradient3188" y2="63.893" xlink:href="#linearGradient3847" gradientUnits="userSpaceOnUse" x2="36.357" y1="6" x1="36.357"/>
  <filter id="filter3794" height="1.384" width="1.384" color-interpolation-filters="sRGB" y="-.192" x="-.192">
   <feGaussianBlur id="feGaussianBlur3796" stdDeviation="5.28"/>
  </filter>
  <linearGradient id="linearGradient3613" y2="138.66" xlink:href="#linearGradient3847" gradientUnits="userSpaceOnUse" x2="48" y1="20.221" x1="48"/>
  <radialGradient id="radialGradient3619" xlink:href="#linearGradient3847" gradientUnits="userSpaceOnUse" cy="90.172" cx="48" gradientTransform="matrix(1.1573 0 0 .99591 -7.551 .19713)" r="42"/>
  <clipPath id="clipPath3613">
   <rect id="rect3615" style="fill:#fff" rx="6" ry="6" height="84" width="84" y="6" x="6"/>
  </clipPath>
  <linearGradient id="linearGradient3617" y2="5.9877" gradientUnits="userSpaceOnUse" x2="48" y1="90" x1="48">
   <stop id="stop3702" style="stop-color:#3f9fc5" offset="0"/>
   <stop id="stop3704" style="stop-color:#89cde9" offset="1"/>
  </linearGradient>
  <linearGradient id="ButtonShadow-0" y2="7.0165" gradientUnits="userSpaceOnUse" x2="45.448" gradientTransform="matrix(1.0059 0 0 .99417 100 0)" y1="92.54" x1="45.448">
   <stop id="stop3750-8" offset="0"/>
   <stop id="stop3752-5" style="stop-opacity:.58824" offset="1"/>
  </linearGradient>
  <linearGradient id="linearGradient3780" y2="90.239" xlink:href="#ButtonShadow-0" gradientUnits="userSpaceOnUse" x2="32.251" gradientTransform="matrix(1.0238 0 0 1.0119 -1.1429 -98.071)" y1="6.1317" x1="32.251"/>
  <linearGradient id="linearGradient3721" y2="90.239" xlink:href="#ButtonShadow-0" gradientUnits="userSpaceOnUse" x2="32.251" gradientTransform="translate(0,-97)" y1="6.1317" x1="32.251"/>
  <linearGradient id="linearGradient3699" y2="16" gradientUnits="userSpaceOnUse" x2="56" y1="64" x1="56">
   <stop id="stop3703" style="stop-color:#1c4a5b" offset="0"/>
   <stop id="stop3705" style="stop-color:#228cb8" offset="1"/>
  </linearGradient>
  <linearGradient id="linearGradient3796" y2="66" gradientUnits="userSpaceOnUse" x2="52" y1="66" x1="44">
   <stop id="stop3792" style="stop-color:#e6e6e6" offset="0"/>
   <stop id="stop3794" style="stop-color:#b4b4b4" offset="1"/>
  </linearGradient>
  <linearGradient id="linearGradient3853" y2="77.08" xlink:href="#linearGradient3847" gradientUnits="userSpaceOnUse" x2="49" y1="52" x1="49"/>
  <radialGradient id="radialGradient3861" gradientUnits="userSpaceOnUse" cy="45.167" cx="48" gradientTransform="matrix(1.1429 1.563e-7 -1.9842e-7 1.4508 -6.8571 -20.53)" r="7">
   <stop id="stop3907" style="stop-color:#47bbee" offset="0"/>
   <stop id="stop3909" style="stop-color:#175f7f" offset="1"/>
  </radialGradient>
  <radialGradient id="radialGradient3891" xlink:href="#linearGradient3847" gradientUnits="userSpaceOnUse" cy="47.93" cx="48" gradientTransform="matrix(1 0 0 .83333 0 6.0582)" r="6"/>
  <linearGradient id="linearGradient3903" y2="51.5" xlink:href="#linearGradient3847" gradientUnits="userSpaceOnUse" x2="49.4" y1="34" x1="49.4"/>
  <linearGradient id="linearGradient3922" y2="8" gradientUnits="userSpaceOnUse" x2="56" y1="48" x1="56">
   <stop id="stop3918" style="stop-color:#fff" offset="0"/>
   <stop id="stop3920" style="stop-color:#fff;stop-opacity:0" offset="1"/>
  </linearGradient>
 </defs>
 <metadata id="metadata2413">
  <rdf:RDF>
   <cc:Work rdf:about="">
    <dc:format>image/svg+xml</dc:format>
    <dc:type rdf:resource="http://purl.org/dc/dcmitype/StillImage"/>
    <dc:title/>
   </cc:Work>
  </rdf:RDF>
 </metadata>
 <g id="layer2" style="display:none">
  <rect id="rect3745" style="opacity:.9;filter:url(#filter3174);fill:url(#ButtonShadow)" rx="6" ry="6" height="85" width="86" y="7" x="5"/>
 </g>
 <g id="layer3">
  <path id="path3786" style="opacity:0.08;fill:url(#linearGradient3780)" d="m12-95.031c-5.5111 0-10.031 4.5202-10.031 10.031v71c0 5.5111 4.5202 10.031 10.031 10.031h72c5.5111 0 10.031-4.5202 10.031-10.031v-71c0-5.5111-4.5202-10.031-10.031-10.031h-72z" transform="scale(1,-1)"/>
  <path id="path3778" style="opacity:.1;fill:url(#linearGradient3780)" d="m12-94.031c-4.9716 0-9.0312 4.0596-9.0312 9.0312v71c0 4.9716 4.0596 9.0312 9.0312 9.0312h72c4.9716 0 9.0312-4.0596 9.0312-9.0312v-71c0-4.9716-4.0596-9.0312-9.0312-9.0312h-72z" transform="scale(1,-1)"/>
  <path id="path3770" style="opacity:.2;fill:url(#linearGradient3780)" d="m12-93c-4.4091 0-8 3.5909-8 8v71c0 4.4091 3.5909 8 8 8h72c4.4091 0 8-3.5909 8-8v-71c0-4.4091-3.5909-8-8-8h-72z" transform="scale(1,-1)"/>
  <rect id="rect3723" style="opacity:.3;fill:url(#linearGradient3780)" transform="scale(1,-1)" rx="7" ry="7" height="85" width="86" y="-92" x="5"/>
  <rect id="rect3716" style="opacity:.45;fill:url(#linearGradient3721)" transform="scale(1,-1)" rx="6" ry="6" height="84" width="84" y="-91" x="6"/>
 </g>
 <g id="layer1">
  <rect id="rect2419" style="fill:url(#linearGradient3617)" rx="6" ry="6" height="84" width="84" y="6" x="6"/>
  <path id="path3911" style="opacity:.4;color:#000000;fill:url(#linearGradient3922)" d="m12 6c-3.324 0-6 2.676-6 6v24.125c11.823 5.2583 26.322 8.375 42 8.375s30.177-3.1167 42-8.375v-24.125c0-3.324-2.676-6-6-6h-72z"/>
  <path id="path3665" style="opacity:.6;block-progression:tb;text-indent:0;color:#000000;text-transform:none;fill:url(#linearGradient3699)" d="m26.812 15.688a4.0004 4.0004 0 0 0 -2.875 1.25c-13.244 13.244-13.244 34.881 0 48.125a4.0217 4.0217 0 1 0 5.688 -5.688c-10.187-10.187-10.187-26.563 0-36.75a4.0004 4.0004 0 0 0 0.5625 -5.125 4.0004 4.0004 0 0 0 -3.375 -1.8125zm42.375 0a4.0004 4.0004 0 0 0 -3.375 1.8125 4.0004 4.0004 0 0 0 0.5625 5.125c10.187 10.187 10.187 26.563 0 36.75a4.0217 4.0217 0 1 0 5.6875 5.6875c13.244-13.244 13.244-34.881 0-48.125a4.0004 4.0004 0 0 0 -2.875 -1.25zm-32.906 10.062a4.0004 4.0004 0 0 0 -2.4688 1.2188c-7.777 7.777-7.777 20.504 0 28.281a4.0004 4.0004 0 1 0 5.6562 -5.6562c-4.7198-4.7198-4.7198-12.249 0-16.969a4.0004 4.0004 0 0 0 0.094 -5.656 4.0004 4.0004 0 0 0 -3.281 -1.219zm22.625 0a4.0004 4.0004 0 0 0 -2.4688 1.2188 4.0004 4.0004 0 0 0 0.09375 5.6562c4.7198 4.7198 4.7198 12.249 0 16.969a4.0004 4.0004 0 1 0 5.657 5.656c7.777-7.777 7.777-20.504 0-28.281a4.0004 4.0004 0 0 0 -3.282 -1.219z"/>
  <path id="path3767" style="opacity:.05;block-progression:tb;text-indent:0;color:#000000;text-transform:none" d="m26.75 15.688c-0.88092 0.04443-1.6171 0.37964-2.2812 0.84375-0.11728 0.08195-0.23145 0.15917-0.34375 0.25-0.04487 0.03817-0.08058 0.08631-0.125 0.125-0.29256 0.25484-0.5697 0.50594-0.84375 0.78125-0.15177 0.1661-0.29188 0.32594-0.4375 0.5-0.6553 0.78327-1.273 1.6411-1.9062 2.3438-0.21082 0.28995-0.42208 0.57999-0.625 0.875-0.03872 0.05404-0.08664 0.10198-0.125 0.15625-0.31812 0.46645-0.63281 0.93713-0.9375 1.4062-0.06876 0.10587-0.15046 0.20682-0.21875 0.3125-0.07968 0.13032-0.141 0.27486-0.21875 0.40625-0.13833 0.23065-0.27414 0.45366-0.40625 0.6875-0.07535 0.13499-0.14539 0.27023-0.21875 0.40625-0.80143 1.486-1.4989 3.0359-2.0625 4.625-0.27408 0.77279-0.50119 1.553-0.71875 2.3438-0.0088 0.03203-0.02253 0.06169-0.03125 0.09375-0.21866 0.80389-0.40235 1.6196-0.5625 2.4375-0.14796 0.75567-0.27713 1.5172-0.375 2.2812-0.01735 0.13545-0.04673 0.2706-0.0625 0.40625-0.06133 0.52746-0.08754 1.064-0.125 1.5938-0.02502 0.37408-0.04946 0.75026-0.0625 1.125-0.01696 0.43741-0.03056 0.87478-0.03125 1.3125 0.001 0.4273 0.0147 0.85425 0.03125 1.2812 0.01268 0.36436 0.0385 0.73 0.0625 1.0938 0.03985 0.5686 0.0889 1.1216 0.15625 1.6875 0.0076 0.06346 0.02335 0.12408 0.03125 0.1875 0.20332 1.6326 0.50604 3.2575 0.9375 4.8438 0.0087 0.03206 0.02244 0.06172 0.03125 0.09375 0.21756 0.79078 0.44467 1.571 0.71875 2.3438 0.28179 0.79453 0.59615 1.604 0.9375 2.375 0.34135 0.77103 0.72429 1.507 1.125 2.25 0.15389 0.28192 0.30596 0.56631 0.46875 0.84375 0.07193 0.12438 0.1451 0.25156 0.21875 0.375 0.05617 0.0927 0.09907 0.18909 0.15625 0.28125 0.05525 0.0855 0.13194 0.16436 0.1875 0.25 0.34942 0.55951 0.70841 1.1185 1.0938 1.6562 0.12382 0.18001 0.24836 0.35293 0.375 0.53125 0.08484 0.11329 0.16352 0.23155 0.25 0.34375 0.0094 0.01042 0.02187 0.02077 0.03125 0.03125 0.76352 0.85334 1.4879 1.8788 2.3125 2.7812 0.41852 0.42044 0.84945 0.81695 1.3125 1.1875 0.678 0.47235 1.439 0.77989 2.3438 0.8125 0.1475 0.0046 0.29555-0.01963 0.4375-0.03125 1.4681-0.2221 2.8119-1.3013 3.3438-2.6875 0.07-0.178 0.118-0.346 0.158-0.532s0.085-0.37 0.094-0.562c0.018-0.386-0.034-0.788-0.156-1.188-0.41-0.877-0.963-1.671-1.563-2.438-0.865-0.896-1.662-1.861-2.375-2.874-0.074-0.093-0.146-0.188-0.219-0.282-0.746-0.961-1.416-1.986-1.843-3.156-0.209-0.406-0.379-0.834-0.563-1.25-0.836-1.887-1.416-3.854-1.75-5.875-0.211-1.275-0.357-2.551-0.375-3.844-0.005-0.178 0.001-0.353 0-0.531 0.0012-0.18724-0.0052-0.3753 0-0.5625 0.01801-1.293 0.16398-2.5995 0.375-3.875 0.40802-2.4662 1.1549-4.8762 2.3125-7.125 0.4277-1.1697 1.0971-2.1633 1.8438-3.125 0.06682-0.09794 0.15051-0.18425 0.21875-0.28125 0.70854-1.0071 1.4848-1.9827 2.3438-2.875 0.60553-0.77196 1.1806-1.5529 1.5938-2.4375 0.12203-0.39971 0.17463-0.8016 0.15625-1.1875-0.0092-0.19295-0.05376-0.40763-0.09375-0.59375-0.02789-0.12981-0.05206-0.24944-0.09375-0.375-0.01687-0.05343-0.04357-0.1035-0.0625-0.15625-0.54342-1.4164-1.9322-2.4987-3.4375-2.6875-0.136-0.018-0.269-0.031-0.406-0.032zm42.312 0c-1.3136 0.09793-2.6005 0.88849-3.3125 2-0.06688 0.11561-0.13105 0.22263-0.1875 0.34375-0.02573 0.05075-0.03906 0.10441-0.0625 0.15625-0.05245 0.12435-0.1152 0.24664-0.15625 0.375-0.03382 0.10331-0.06937 0.20603-0.09375 0.3125-0.03071 0.13412-0.04777 0.26781-0.0625 0.40625-0.04088 0.38416-0.0047 0.78134 0.09375 1.1875 0.38246 0.97328 0.95219 1.8286 1.5938 2.6562 0.82863 0.8576 1.5919 1.7853 2.2812 2.75 0.01862 0.02268 0.04395 0.03977 0.0625 0.0625 0.86613 1.0615 1.6305 2.1816 2.0938 3.5 0.20891 0.40583 0.3785 0.83442 0.5625 1.25 1.3631 3.0785 2.0786 6.4077 2.125 9.75 0.002 0.07197-0.0014 0.14677 0 0.21875 0.0012 0.22003 0.0043 0.43622 0 0.65625-0.000407 0.07335 0.001 0.14542 0 0.21875-0.04643 3.3423-0.76195 6.6403-2.125 9.7188-0.184 0.41558-0.35359 0.84417-0.5625 1.25-0.43775 1.2458-1.1597 2.303-1.9688 3.3125-0.04714 0.05882-0.07731 0.12906-0.125 0.1875-0.73204 1.0343-1.5464 2.0256-2.4375 2.9375-0.60441 0.79245-1.1355 1.6038-1.5 2.5312-0.09849 0.40616-0.13463 0.80334-0.09375 1.1875 0.01473 0.13844 0.03179 0.27213 0.0625 0.40625 0.0119 0.05197 0.01707 0.10501 0.03125 0.15625 0.0147 0.05254 0.04587 0.10424 0.0625 0.15625 0.05474 0.16846 0.14087 0.34127 0.21875 0.5 0.004 0.0087-0.0041 0.02255 0 0.03125 0.06253 0.12502 0.11195 0.22581 0.1875 0.34375 0.71757 1.1202 2.0192 1.912 3.3438 2 0.03235-0.000943 0.06116 0.0018 0.09375 0 0.20189-0.0011 0.39456 0.000801 0.59375-0.03125 0.57503-0.09253 1.143-0.32867 1.625-0.65625 0.01669-0.01488 0.04584-0.01633 0.0625-0.03125 0.33531-0.30831 0.64822-0.615 0.96875-0.9375 0.12796-0.12603 0.24947-0.24665 0.375-0.375 0.0562-0.05856 0.10053-0.12852 0.15625-0.1875 0.379-0.40122 0.76829-0.79839 1.125-1.2188 0.40916-0.48216 0.80815-0.99451 1.1875-1.5 1.1381-1.5165 2.1395-3.1214 3-4.8125 0.28684-0.56371 0.55753-1.1396 0.8125-1.7188 0.06025-0.13686 0.12905-0.2686 0.1875-0.40625 0.18337-0.43553 0.36604-0.90087 0.53125-1.3438 0.44516-1.1854 0.81251-2.3974 1.125-3.625 0.15624-0.61382 0.28395-1.2536 0.40625-1.875 0.03892-0.19774 0.08956-0.39537 0.125-0.59375 0.07515-0.42637 0.15967-0.85302 0.21875-1.2812 0.01174-0.08382 0.02013-0.1661 0.03125-0.25 0.06679-0.51152 0.1126-1.0497 0.15625-1.5625 0.0018-0.02091-0.0018-0.04159 0-0.0625 0.05027-0.59989 0.10682-1.211 0.125-1.8125 0.000917-0.03109-0.000829-0.06265 0-0.09375 0.01679-0.61141 0.01686-1.2013 0-1.8125-0.000567-0.02065 0.000605-0.04185 0-0.0625-0.01804-0.61161-0.07278-1.2342-0.125-1.8438-0.0017-0.02082 0.0018-0.04169 0-0.0625-0.0516-0.60623-0.10359-1.2083-0.1875-1.8125-0.05847-0.41744-0.14497-0.83492-0.21875-1.25-0.03672-0.20834-0.08446-0.41723-0.125-0.625-0.121-0.626-0.248-1.235-0.404-1.849-0.432-1.696-0.973-3.358-1.657-4.968-0.057-0.137-0.128-0.271-0.187-0.406-0.51-1.159-1.083-2.314-1.719-3.407-0.636-1.092-1.335-2.145-2.094-3.156-0.379-0.505-0.778-0.987-1.187-1.469s-0.843-0.949-1.282-1.406c-0.127-0.133-0.245-0.276-0.374-0.406-0.321-0.316-0.634-0.637-0.969-0.938-0.019-0.013-0.044-0.018-0.063-0.031-0.148-0.101-0.308-0.202-0.468-0.281-0.181-0.09-0.371-0.157-0.563-0.219-0.38425-0.12314-0.78372-0.18523-1.1875-0.1875-0.04183 0.0017-0.08326-0.0031-0.125 0zm-42.094 1.9688c1.6657 0.05446 2.6259 2.4486 1.25 3.5625-0.51383 0.49918-1.0011 1.0243-1.4688 1.5625-0.4238 0.48769-0.83341 0.9834-1.2188 1.5-0.1122 0.15042-0.20359 0.31604-0.3125 0.46875-0.04704 0.06586-0.10978 0.12124-0.15625 0.1875-0.29194 0.41735-0.5763 0.84824-0.84375 1.2812-0.74643 1.2085-1.3857 2.4724-1.9375 3.7812-1.1035 2.6177-1.8345 5.3907-2.125 8.2188-0.05872 0.57171-0.06939 1.1447-0.09375 1.7188-0.01044 0.34463-0.03338 0.68641-0.03125 1.0312-0.0022 0.33984 0.02125 0.69161 0.03125 1.0312 0.02436 0.57406 0.03503 1.147 0.09375 1.7188 0.29046 2.8281 1.0215 5.6323 2.125 8.25 0.53924 1.2791 1.181 2.5039 1.9062 3.6875 0.02901 0.04734 0.0332 0.10909 0.0625 0.15625 0.35018 0.55915 0.73621 1.0919 1.125 1.625 0.0308 0.04219 0.06269 0.08299 0.09375 0.125 0.39929 0.54101 0.81303 1.0827 1.25 1.5938 0.01922 0.02219 0.0432 0.04037 0.0625 0.0625 0.45889 0.52622 0.93437 1.0112 1.4375 1.5 1.4677 1.1882 0.27537 3.8215-1.5938 3.5312-0.27012-0.03889-0.54234-0.11572-0.78125-0.25-0.14798-0.13314-0.29279-0.26963-0.4375-0.40625l-0.0625 0.0625c-1.933-1.885-3.553-4.031-4.904-6.344-0.58-0.99-1.126-2.014-1.594-3.062-0.185-0.414-0.364-0.829-0.532-1.25-0.04621-0.11263-0.07999-0.23077-0.125-0.34375-0.02469-0.06138-0.03824-0.12597-0.0625-0.1875-0.11723-0.31088-0.23605-0.62313-0.34375-0.9375-0.20548-0.57797-0.3933-1.1617-0.5625-1.75-0.426-1.482-0.737-3.004-0.937-4.531-0.097-0.746-0.174-1.499-0.219-2.25-0.0069-0.10404 0.0059-0.2084 0-0.3125-0.028-0.574-0.064-1.145-0.062-1.719-0.002-0.575 0.034-1.145 0.062-1.719 0.0059-0.1041-0.0069-0.20846 0-0.3125 0.04462-0.75136 0.12101-1.5037 0.21875-2.25 0.19823-1.5136 0.51665-2.9983 0.9375-4.4688 0.01164-0.04166 0.01944-0.08339 0.03125-0.125 0.14308-0.49192 0.30027-0.98401 0.46875-1.4688 0.12946-0.38658 0.26243-0.77487 0.40625-1.1562 0.02396-0.06076 0.03812-0.12688 0.0625-0.1875 0.03342-0.08389 0.05967-0.1663 0.09375-0.25 0.57956-1.4727 1.271-2.8801 2.0625-4.25 0.054-0.092 0.103-0.189 0.157-0.281 0.27175-0.45926 0.57965-0.89899 0.875-1.3438 0.63362-0.95417 1.322-1.8718 2.0625-2.75 0.61064-0.72414 1.2244-1.4604 1.9062-2.125l0.0625 0.0625c0.14471-0.13662 0.28952-0.27311 0.4375-0.40625 0.23891-0.13428 0.51113-0.21111 0.78125-0.25 0.11682-0.01814 0.2327-0.03488 0.34375-0.03125zm41.97 0.031c0.6663-0.01426 1.2092 0.25153 1.6875 0.625l0.03125-0.03125c0.04154 0.04152 0.08369 0.08325 0.125 0.125 0.18497 0.15808 0.3313 0.34353 0.5 0.53125 0.0557 0.0589 0.101 0.12818 0.15625 0.1875 1.1279 1.2109 2.1667 2.5043 3.0938 3.875 0.34673 0.51269 0.68395 1.0303 1 1.5625 0.08579 0.14446 0.16654 0.29168 0.25 0.4375 0.0071 0.01237 0.02416 0.01887 0.03125 0.03125 0.39683 0.67834 0.75382 1.3885 1.0938 2.0938 0.004 0.0083-0.004 0.02291 0 0.03125 1.3771 2.8639 2.2995 5.9263 2.75 9.0625 0.0015 0.01013-0.0015 0.02112 0 0.03125 0.22296 1.5628 0.34754 3.1392 0.34375 4.7188 0.000034 0.01031-0.000025 0.02094 0 0.03125-0.0026 0.78452-0.0356 1.5613-0.09375 2.3438-0.000718 0.01042 0.000728 0.02083 0 0.03125-0.05889 0.78245-0.13584 1.5676-0.25 2.3438-0.0015 0.01024 0.0015 0.02102 0 0.03125-0.4505 3.1362-1.3729 6.1986-2.75 9.0625-0.0041 0.0086 0.0041 0.02268 0 0.03125-0.33654 0.70908-0.70314 1.3807-1.0938 2.0625-0.0072 0.01229-0.02404 0.01897-0.03125 0.03125-0.08346 0.14582-0.16421 0.29304-0.25 0.4375-0.31605 0.53219-0.65327 1.0498-1 1.5625-0.44887 0.66371-0.93991 1.3095-1.4375 1.9375-0.50904 0.64249-1.037 1.2734-1.5938 1.875-0.25522 0.30629-0.48934 0.60272-0.78125 0.84375-0.02255 0.01862-0.03965 0.04447-0.0625 0.0625-0.48207 0.38054-1.0451 0.60817-1.7188 0.59375-1.447-0.14861-2.3004-1.8659-1.5312-3.0938 1.8087-1.8613 3.4621-3.8859 4.7812-6.125 0.21519-0.36526 0.42857-0.71749 0.625-1.0938 0.0043-0.0084-0.0043-0.02289 0-0.03125 0.20026-0.38466 0.38354-0.79108 0.5625-1.1875 0.16749-0.34822 0.31784-0.70802 0.46875-1.0625 0.48905-1.2033 0.92871-2.4281 1.25-3.6875 0.34624-1.3572 0.60388-2.7319 0.75-4.125 0.002-0.02068-0.002-0.04182 0-0.0625 0.04595-0.44738 0.06881-0.8948 0.09375-1.3438 0.0054-0.11474-0.004-0.22894 0-0.34375 0.01305-0.37588 0.03316-0.74882 0.03125-1.125 0.0016-0.36043-0.01907-0.73359-0.03125-1.0938-0.0054-0.12484 0.0071-0.25023 0-0.375-0.02089-0.44464-0.05169-0.86943-0.09375-1.3125-0.0021-0.02036 0.0021-0.04215 0-0.0625-0.1461-1.3934-0.40368-2.7987-0.75-4.1562-0.32129-1.2594-0.76095-2.4842-1.25-3.6875-0.15091-0.35448-0.30126-0.71428-0.46875-1.0625-0.1827-0.40471-0.35761-0.79504-0.5625-1.1875-0.1954-0.37968-0.41207-0.75482-0.625-1.125-1.3191-2.2391-2.9725-4.2637-4.7812-6.125-0.76913-1.2278 0.08427-2.9451 1.5312-3.0938zm-32.219 8.0312c-2.9389 0.10461-4.491 3.0872-5.9688 5.2188-0.88854 1.46-1.5762 3.0226-2.0312 4.6562-0.14625 0.52501-0.27278 1.0582-0.375 1.5938-0.0076 0.04007 0.0074 0.08488 0 0.125-0.07604 0.41204-0.13726 0.8338-0.1875 1.25-0.02512 0.20812-0.0438 0.41615-0.0625 0.625-0.03272 0.36538-0.04934 0.72699-0.0625 1.0938-0.01226 0.34173-0.03588 0.68925-0.03125 1.0312 0.0022 0.11555 0.02711 0.22827 0.03125 0.34375 0.01391 0.38765 0.02673 0.77017 0.0625 1.1562 0.01444 0.15584 0.01324 0.31332 0.03125 0.46875 0.05434 0.46888 0.13171 0.9426 0.21875 1.4062 0.10434 0.55578 0.22331 1.1117 0.375 1.6562 0.45507 1.6337 1.1427 3.1962 2.0312 4.6562 1.4778 2.1315 3.0299 5.1141 5.9688 5.2188 2.2246 0.02556 3.8743-1.8813 3.9688-3.9062-0.009-0.10593-0.01211-0.20485-0.03125-0.3125-0.32861-1.1778-1.0037-2.2051-1.75-3.1875-0.005-0.0066 0.005-0.02465 0-0.03125-1.2401-1.6303-2.6379-3.1704-2.75-5.375-0.12266-0.57159-0.19081-1.1444-0.21875-1.7188-0.01626-0.20747-0.02654-0.41661-0.03125-0.625 0.000177-0.02081-0.000295-0.04169 0-0.0625-0.0041-0.23967 0.01956-0.4785 0.03125-0.71875 0.02794-0.57436 0.09609-1.1472 0.21875-1.7188 0.11214-2.2047 1.5099-3.7759 2.75-5.4062 0.0048-0.0057-0.0048-0.02552 0-0.03125 0.74633-0.98244 1.4214-1.9784 1.75-3.1562 0.01725-0.097 0.02223-0.18564 0.03125-0.28125-0.07877-2.0363-1.7327-3.9944-3.9688-3.9688zm22.625 0c-2.2781-0.10845-3.9568 1.9552-4.0312 4.0312-0.00075 0.02091 0.000424 0.04159 0 0.0625 0.000525 0.01036-0.000605 0.0209 0 0.03125 0.05448 0.93303 0.44096 1.828 1.2188 2.5 2.3837 2.2386 3.5387 5.4384 3.5 8.625 0.03865 3.1866-1.1163 6.3864-3.5 8.625-0.77779 0.672-1.1643 1.567-1.2188 2.5-0.0012 0.02026 0.000878 0.04222 0 0.0625 0.000278 0.0099-0.00035 0.02138 0 0.03125 0.07368 2.0766 1.7525 4.1397 4.0312 4.0312 0.66347-0.0095 1.3284-0.17379 1.9062-0.5 4.0069-3.233 6.271-8.1397 6.6875-13.219 0.0054-0.08384 0.02688-0.16609 0.03125-0.25 0.0079-0.11275-0.0061-0.23088 0-0.34375 0.01653-0.30802 0.02836-0.62905 0.03125-0.9375-0.0031-0.31406-0.01404-0.62391-0.03125-0.9375-0.0037-0.10427 0.0053-0.20831 0-0.3125-0.005-0.074-0.026-0.146-0.031-0.219-0.41-5.09-2.673-10.042-6.688-13.281-0.57782-0.32621-1.2428-0.49049-1.9062-0.5zm-0.032 1.719c0.31916-0.0057 0.65616 0.061 0.96875 0.25 3.5096 3.0467 5.4222 7.5431 5.6875 12.125 0.0063 0.09476 0.02641 0.1864 0.03125 0.28125 0.0027 0.06175-0.002 0.12572 0 0.1875 0.01909 0.46469 0.01542 0.94132 0 1.4062-0.0022 0.05266 0.0027 0.10361 0 0.15625-0.0035 0.08461-0.0266 0.16545-0.03125 0.25-0.25323 4.6005-2.1642 9.0977-5.6875 12.156-1.5094 0.91265-3.379-0.7278-2.9688-2.2812 0.02692-0.2566 0.10441-0.516 0.25-0.75 1.6653-1.8638 3.2571-3.9288 3.9062-6.4062 0.19728-0.62374 0.3396-1.2379 0.4375-1.875 0.0014-0.01021-0.0014-0.02103 0-0.03125 0.04739-0.31337 0.10071-0.62271 0.125-0.9375 0.00074-0.01045-0.000716-0.0208 0-0.03125 0.0228-0.30483 0.02954-0.63246 0.03125-0.9375-0.000022-0.02097 0.00012-0.04153 0-0.0625 0.000319-0.30436-0.01115-0.60282-0.03125-0.90625-0.0015-0.02063 0.0016-0.04187 0-0.0625-0.02151-0.30365-0.0836-0.60466-0.125-0.90625-0.003-0.02013 0.0031-0.04238 0-0.0625-0.09786-0.6269-0.24333-1.2611-0.4375-1.875-0.6492-2.4774-2.2409-4.5424-3.9062-6.4062-0.14559-0.234-0.22308-0.4934-0.25-0.75-0.32533-1.2317 0.77801-2.5095 2-2.5312zm-22.437 0.031c1.2364 0.03882 1.8986 1.233 1.7812 2.3125 0.01437 0.52845-0.13847 1.0552-0.59375 1.4375-2.6424 2.5144-4.0012 6.0781-4.0625 9.6562-0.000715 0.04174 0.000363 0.08326 0 0.125 0.000113 0.01046-0.000135 0.02079 0 0.03125-0.000069 0.01046 0.000047 0.02079 0 0.03125 0.05395 3.5887 1.4124 7.1346 4.0625 9.6562 0.459 0.38543 0.61158 0.93595 0.59375 1.4688 0.11734 1.0795-0.54486 2.2424-1.7812 2.2812-2.0755-0.0039-3.0416-2.4179-4.1875-3.8125-1.738-2.691-2.613-5.852-2.688-9.03-0.02021-0.44202-0.01107-0.87026 0-1.3125 0.07934-3.1694 0.95499-6.3153 2.6875-9 1.1459-1.3946 2.112-3.8398 4.1875-3.8438z"/>
  <path id="rect3728" style="opacity:.45;fill:url(#linearGradient3188)" d="m12 6c-3.324 0-6 2.676-6 6v2 68 2c0 0.33472 0.04135 0.6507 0.09375 0.96875 0.0487 0.2956 0.09704 0.59692 0.1875 0.875 0.00988 0.03038 0.020892 0.0636 0.03125 0.09375 0.098865 0.28777 0.23488 0.54745 0.375 0.8125 0.14459 0.27351 0.31562 0.53562 0.5 0.78125 0.18438 0.24564 0.37378 0.47347 0.59375 0.6875 0.43995 0.42806 0.94291 0.81453 1.5 1.0938 0.27854 0.13961 0.57347 0.24695 0.875 0.34375-0.2562-0.10022-0.48671-0.23627-0.71875-0.375-0.00741-0.0044-0.023866 0.0045-0.03125 0-0.031933-0.0193-0.062293-0.04251-0.09375-0.0625-0.1204-0.0767-0.23102-0.16351-0.34375-0.25-0.10617-0.0808-0.21328-0.16111-0.3125-0.25-0.1778-0.162-0.3473-0.346-0.4999-0.531-0.1075-0.131-0.2183-0.266-0.3124-0.407-0.0251-0.038-0.0385-0.086-0.0626-0.125-0.0647-0.103-0.1302-0.204-0.1874-0.312-0.1011-0.195-0.2057-0.416-0.2813-0.625-0.008-0.022-0.0236-0.041-0.0313-0.063-0.0318-0.092-0.0358-0.187-0.0624-0.281-0.0304-0.107-0.0704-0.203-0.0938-0.313-0.0729-0.341-0.125-0.698-0.125-1.062v-2-68-2c0-2.782 2.2182-5 5-5h2 68 2c2.7818 0 5 2.2182 5 5v2 68 2c0 0.3643-0.05212 0.72099-0.125 1.0625-0.04415 0.20689-0.08838 0.39766-0.15625 0.59375-0.0077 0.02195-0.0233 0.04069-0.03125 0.0625-0.06274 0.17374-0.13838 0.36745-0.21875 0.53125-0.04158 0.0828-0.07904 0.16995-0.125 0.25-0.0546 0.09721-0.12677 0.18835-0.1875 0.28125-0.09411 0.14096-0.20492 0.276-0.3125 0.40625-0.14317 0.17445-0.30314 0.347-0.46875 0.5-0.01117 0.0102-0.01998 0.02115-0.03125 0.03125-0.13839 0.12556-0.28509 0.23444-0.4375 0.34375-0.10257 0.07315-0.20432 0.15336-0.3125 0.21875-0.0074 0.0045-0.02384-0.0044-0.03125 0-0.23204 0.13873-0.46255 0.27478-0.71875 0.375 0.30153-0.0968 0.59646-0.20414 0.875-0.34375 0.55709-0.27922 1.0601-0.66569 1.5-1.0938 0.21997-0.21403 0.40937-0.44186 0.59375-0.6875s0.35541-0.50774 0.5-0.78125c0.14012-0.26505 0.27614-0.52473 0.375-0.8125 0.01041-0.03078 0.02133-0.06274 0.03125-0.09375 0.09046-0.27808 0.1388-0.5794 0.1875-0.875 0.053-0.318 0.094-0.634 0.094-0.969v-2-68-2c0-3.324-2.676-6-6-6h-72z"/>
  <path id="path3615" style="opacity:.2;fill:url(#radialGradient3619)" d="m12 90c-3.324 0-6-2.676-6-6v-2-68-2c0-0.33472 0.04135-0.6507 0.09375-0.96875 0.0487-0.2956 0.09704-0.59692 0.1875-0.875 0.0099-0.03 0.0209-0.063 0.0313-0.094 0.0989-0.2873 0.2349-0.547 0.375-0.812 0.1446-0.2735 0.3156-0.5356 0.5-0.7812 0.1844-0.2457 0.3738-0.4735 0.5937-0.6876 0.44-0.428 0.943-0.8145 1.5-1.0937 0.2786-0.1396 0.5735-0.2469 0.8748-0.3437-0.256 0.1002-0.4865 0.2362-0.7185 0.375-0.00741 0.0044-0.023866-0.0045-0.03125 0-0.031933 0.0193-0.062293 0.04251-0.09375 0.0625-0.1204 0.0767-0.23102 0.16351-0.34375 0.25-0.10617 0.0808-0.21328 0.16111-0.3125 0.25-0.1779 0.1614-0.3474 0.3453-0.5 0.5312-0.1075 0.1303-0.2183 0.2653-0.3124 0.4063-0.0251 0.0383-0.0385 0.0858-0.0626 0.125-0.0647 0.103-0.1302 0.2045-0.1874 0.3124-0.1011 0.1948-0.2057 0.4158-0.2813 0.625-0.008 0.0219-0.0236 0.0406-0.0313 0.0626-0.0318 0.0919-0.0358 0.1868-0.0624 0.2812-0.0304 0.1066-0.0704 0.203-0.0938 0.3125-0.0729 0.3415-0.125 0.6985-0.125 1.0625v2 68 2c0 2.7818 2.2182 5 5 5h2 68 2c2.7818 0 5-2.2182 5-5v-2-68-2c0-0.364-0.052-0.721-0.125-1.0625-0.044-0.2069-0.088-0.3977-0.156-0.5937-0.008-0.022-0.024-0.0407-0.031-0.0626-0.063-0.1737-0.139-0.3674-0.219-0.5312-0.042-0.0828-0.079-0.17-0.125-0.25-0.055-0.0972-0.127-0.1884-0.188-0.2812-0.094-0.141-0.205-0.276-0.312-0.4063-0.143-0.1745-0.303-0.347-0.469-0.5-0.011-0.0102-0.02-0.0211-0.031-0.0313-0.139-0.1255-0.285-0.2344-0.438-0.3437-0.102-0.0731-0.204-0.1534-0.312-0.2187-0.0074-0.0045-0.02384 0.0044-0.03125 0-0.23204-0.13873-0.46255-0.27478-0.71875-0.375 0.30153 0.0968 0.59646 0.20414 0.875 0.34375 0.55709 0.27922 1.0601 0.66569 1.5 1.0938 0.21997 0.21403 0.40937 0.44186 0.59375 0.6875s0.35541 0.50774 0.5 0.78125c0.14012 0.26505 0.27614 0.52473 0.375 0.8125 0.01041 0.03078 0.02133 0.06274 0.03125 0.09375 0.09046 0.27808 0.1388 0.5794 0.1875 0.875 0.053 0.318 0.094 0.634 0.094 0.969v2 68 2c0 3.324-2.676 6-6 6h-72z"/>
  <path id="path3745" style="opacity:.2;block-progression:tb;text-indent:0;color:#000000;text-transform:none;fill:#fff" d="m30.812 20.25a4.0004 4.0004 0 0 1 -1.187 2.375c-5.03 5.03-7.562 11.568-7.625 18.125 0.298-6.22 2.85-12.35 7.625-17.125a4.0004 4.0004 0 0 0 1.1875 -3.375zm34.375 0a4.0004 4.0004 0 0 0 1.1875 3.375c4.776 4.775 7.328 10.905 7.626 17.125-0.063-6.557-2.595-13.095-7.625-18.125a4.0004 4.0004 0 0 1 -1.187 -2.375zm-24.531 10a4.0004 4.0004 0 0 1 -1.1875 2.375c-2.4909 2.4909-3.6695 5.7701-3.5312 9 0.12058-2.8949 1.2988-5.7676 3.5312-8a4.0004 4.0004 0 0 0 1.1875 -3.375zm14.688 0.03125a4.0004 4.0004 0 0 0 1.1875 3.3438c2.2324 2.2324 3.4107 5.1051 3.5312 8 0.13828-3.2299-1.0403-6.5091-3.5312-9a4.0004 4.0004 0 0 1 -1.1875 -2.3438zm-41.344 11.219c-0.12975 8.887 3.188 17.813 9.9375 24.562a4.0217 4.0217 0 0 0 6.812 -3.343 4.0217 4.0217 0 0 1 -6.812 2.343c-6.495-6.494-9.813-15.01-9.938-23.562zm68 0c-0.12486 8.5518-3.4426 17.068-9.9375 23.562a4.0217 4.0217 0 0 1 -6.843 -2.281 4.0217 4.0217 0 0 0 6.843 3.281c6.75-6.749 10.068-15.675 9.938-24.562zm-54 0.125c-0.12957 5.2902 1.7985 10.611 5.8125 14.625a4.0004 4.0004 0 0 0 6.844 -3.25 4.0004 4.0004 0 0 1 -6.844 2.25c-3.76-3.761-5.689-8.668-5.812-13.625zm40 0c-0.12339 4.9566-2.0516 9.8641-5.8125 13.625a4.0004 4.0004 0 0 1 -6.844 -2.312 4.0004 4.0004 0 0 0 6.844 3.312c4.014-4.014 5.942-9.335 5.812-14.625z"/>
  <path id="path3754" style="opacity:.3;block-progression:tb;text-indent:0;color:#000000;text-transform:none" d="m26.812 15.688a4.0004 4.0004 0 0 0 -2.875 1.25c-6.749 6.749-10.067 15.675-9.937 24.562 0.125-8.552 3.443-17.068 9.938-23.562a4.0004 4.0004 0 0 1 2.875 -1.25 4.0004 4.0004 0 0 1 3.375 1.8125 4.0004 4.0004 0 0 1 0.625 1.75 4.0004 4.0004 0 0 0 -0.625 -2.75 4.0004 4.0004 0 0 0 -3.375 -1.8125zm42.375 0a4.0004 4.0004 0 0 0 -3.375 1.8125 4.0004 4.0004 0 0 0 -0.625 2.75 4.0004 4.0004 0 0 1 0.625 -1.75 4.0004 4.0004 0 0 1 3.375 -1.8125 4.0004 4.0004 0 0 1 2.875 1.25c6.495 6.494 9.813 15.01 9.938 23.562 0.13-8.887-3.188-17.813-9.938-24.562a4.0004 4.0004 0 0 0 -2.875 -1.25zm-32.468 10.031a4.0004 4.0004 0 0 0 -0.438 0.031 4.0004 4.0004 0 0 0 -2.469 1.219c-4.016 4.016-5.944 9.363-5.812 14.656 0.121-4.959 2.05-9.893 5.812-13.656a4.0004 4.0004 0 0 1 2.469 -1.219 4.0004 4.0004 0 0 1 3.281 1.219 4.0004 4.0004 0 0 1 1.094 2.281 4.0004 4.0004 0 0 0 -1.094 -3.281 4.0004 4.0004 0 0 0 -2.8438 -1.25zm22.625 0a4.0004 4.0004 0 0 0 -0.4375 0.03125 4.0004 4.0004 0 0 0 -2.4688 1.2188 4.0004 4.0004 0 0 0 -1.0938 3.3125 4.0004 4.0004 0 0 1 1.0938 -2.3125 4.0004 4.0004 0 0 1 2.4688 -1.2188 4.0004 4.0004 0 0 1 3.2812 1.2188c3.762 3.763 5.691 8.697 5.812 13.656 0.132-5.293-1.796-10.64-5.812-14.656a4.0004 4.0004 0 0 0 -2.8438 -1.25zm-23.406 15.906c-0.13435 3.2255 1.0439 6.4814 3.5312 8.9688a4.0004 4.0004 0 0 1 1.187 2.406 4.0004 4.0004 0 0 0 -1.187 -3.406c-2.229-2.229-3.408-5.079-3.531-7.969zm24.125 0c-0.12373 2.8902-1.3024 5.7399-3.5312 7.9688a4.0004 4.0004 0 0 0 -1.1875 3.3438 4.0004 4.0004 0 0 1 1.1875 -2.3438c2.487-2.488 3.665-5.744 3.53-8.969zm-38.063 0.625c0.06287 6.5575 2.5951 13.095 7.625 18.125a4.0217 4.0217 0 0 1 1.125 2.281 4.0217 4.0217 0 0 0 -1.125 -3.281c-4.775-4.775-7.327-10.905-7.625-17.125zm52 0c-0.29845 6.22-2.8498 12.35-7.625 17.125a4.0217 4.0217 0 0 0 -1.156 3.406 4.0217 4.0217 0 0 1 1.156 -2.406c5.03-5.03 7.562-11.568 7.625-18.125z"/>
  <path id="path3763" style="opacity:.1;block-progression:tb;text-indent:0;color:#000000;text-transform:none" d="m26.812 15.688a4.0004 4.0004 0 0 0 -1.187 0.187 4.0217 4.0217 0 0 0 -0.344 0.094 4.0004 4.0004 0 0 0 -0.031 0.031 4.0004 4.0004 0 0 0 -1.312 0.938c-3.725 3.725-6.4016 8.102-8.0312 12.781-0.35543 1.0205-0.68174 2.0495-0.9375 3.0938-0.0048 0.01973 0.0048 0.04276 0 0.0625-0.12934 0.5322-0.24028 1.0882-0.34375 1.625-0.09631 0.50696-0.20799 1.0211-0.28125 1.5312-0.003 0.02055 0.003 0.04195 0 0.0625-0.07371 0.52-0.13773 1.0401-0.1875 1.5625-0.002 0.02061 0.002 0.04189 0 0.0625-0.04881 0.52228-0.10012 1.0388-0.125 1.5625-0.0015 0.03064 0.0015 0.0631 0 0.09375-0.024 0.515-0.032 1.049-0.032 1.564-0.000038 0.02095 0 0.04155 0 0.0625 0.000956 0.52406 0.0064 1.0389 0.03125 1.5625 0.000956 0.02094-0.000995 0.04156 0 0.0625 0.02583 0.52364 0.07524 1.0403 0.125 1.5625 0.0028 0.03057-0.0029 0.06319 0 0.09375 0.05018 0.51194 0.11432 1.0216 0.1875 1.5312 0.0043 0.03078-0.0044 0.06298 0 0.09375 0.07462 0.50997 0.18358 1.0245 0.28125 1.5312 0.0039 0.02042-0.0039 0.04208 0 0.0625 0.20497 1.0532 0.47665 2.0916 0.78125 3.125 0.0057 0.01954-0.0058 0.04297 0 0.0625 1.556 5.244 4.408 10.188 8.532 14.312a4.0004 4.0004 0 0 0 1.312 0.906 4.0217 4.0217 0 0 0 0.25 0.094 4.0004 4.0004 0 0 0 0.125 0.0625 4.0217 4.0217 0 0 0 0.40625 0.09375 4.0004 4.0004 0 0 0 0.375 0.0625 4.0217 4.0217 0 0 0 0.4375 0.03125 4.0004 4.0004 0 0 0 0.75 -0.09375 4.0217 4.0217 0 0 0 0.03125 0 4.0004 4.0004 0 0 0 0.09375 -0.03125 4.0217 4.0217 0 0 0 0.3125 -0.09375 4.0217 4.0217 0 0 0 0.375 -0.125 4.0217 4.0217 0 0 0 1.532 -1.156 4.0004 4.0004 0 0 0 0.031 -0.062 4.0217 4.0217 0 0 0 -0.344 -5.313c-3.1835-3.1835-5.3687-6.9855-6.5625-11-0.0058-0.01949 0.0058-0.04299 0-0.0625-0.2397-0.81306-0.43558-1.6092-0.59375-2.4375-0.07563-0.38868-0.16109-0.76516-0.21875-1.1562-0.003-0.02077 0.003-0.04173 0-0.0625-0.05528-0.38125-0.11803-0.77336-0.15625-1.1562-0.003-0.03084 0.0029-0.0629 0-0.09375-0.038-0.393-0.074-0.764-0.094-1.157-0.000995-0.02073 0.000945-0.04176 0-0.0625-0.0199-0.41467 0-0.83496 0-1.25 0.000995-0.41493-0.02088-0.83549 0-1.25 0.01891-0.39405 0.05688-0.79446 0.09375-1.1875 0.002-0.02086-0.0021-0.04164 0-0.0625 0.03686-0.383 0.10233-0.77485 0.15625-1.1562 0.0043-0.02996-0.0044-0.06381 0-0.09375 0.05673-0.39119 0.14406-0.76743 0.21875-1.1562 0.0039-0.02013-0.004-0.04238 0-0.0625 0.07567-0.38887 0.15634-0.77043 0.25-1.1562 0.0048-0.0197-0.0049-0.04281 0-0.0625 0.19421-0.79179 0.44872-1.5692 0.71875-2.3438 1.2515-3.5901 3.3071-6.9634 6.1875-9.8438a4.0217 4.0217 0 0 0 0.34375 -5.3125 4.0217 4.0217 0 0 0 -0.03125 -0.0625 4.0004 4.0004 0 0 0 -0.21875 -0.25 4.0217 4.0217 0 0 0 -1.3125 -0.90625 4.0217 4.0217 0 0 0 -0.375 -0.15625 4.0217 4.0217 0 0 0 -0.75 -0.15625 4.0004 4.0004 0 0 0 -0.03125 0 4.0217 4.0217 0 0 0 -0.4375 -0.03125zm42.188 0a4.0217 4.0217 0 0 0 -0.21875 0.03125 4.0004 4.0004 0 0 0 -0.1875 0.03125 4.0217 4.0217 0 0 0 -0.40625 0.0625 4.0217 4.0217 0 0 0 -0.375 0.125 4.0217 4.0217 0 0 0 -0.375 0.15625 4.0004 4.0004 0 0 0 -0.15625 0.0625 4.0217 4.0217 0 0 0 -0.1875 0.125 4.0004 4.0004 0 0 0 -0.156 0.093 4.0217 4.0217 0 0 0 -0.188 0.156 4.0217 4.0217 0 0 0 -0.375 6.031c2.8804 2.8804 4.936 6.2537 6.1875 9.8438 0.27003 0.77459 0.52454 1.552 0.71875 2.3438 0.005 0.01969-0.005 0.0428 0 0.0625 0.0937 0.38582 0.17433 0.76738 0.25 1.1562 0.004 0.02012-0.004 0.04237 0 0.0625 0.0747 0.38882 0.16203 0.76506 0.21875 1.1562 0.004 0.02994-0.004 0.06379 0 0.09375 0.0539 0.3814 0.1194 0.77325 0.15625 1.1562 0.002 0.02086-0.002 0.04164 0 0.0625 0.0369 0.39304 0.0748 0.79345 0.0937 1.1875 0.001 0.02061-0.00099 0.04188 0 0.0625 0.018 0.39397 0 0.79321 0 1.1875 0.00005 0.02075 0 0.04175 0 0.0625-0.00095 0.39429 0.0189 0.79357 0 1.1875-0.00095 0.02074 0.00099 0.04177 0 0.0625-0.0198 0.39349-0.056 0.7638-0.0937 1.1562-0.003 0.03085 0.003 0.06291 0 0.09375-0.0382 0.38289-0.10097 0.775-0.15625 1.1562-0.003 0.02077 0.003 0.04173 0 0.0625-0.0577 0.39109-0.14312 0.76757-0.21875 1.1562-0.15817 0.82834-0.35405 1.6244-0.59375 2.4375-0.006 0.01951 0.006 0.04301 0 0.0625-1.1938 4.0145-3.379 7.8165-6.5625 11a4.0217 4.0217 0 0 0 0.0937 5.7812 4.0217 4.0217 0 0 0 0.28125 0.25 4.0217 4.0217 0 0 0 0.34375 0.21875 4.0004 4.0004 0 0 0 0.25 0.15625 4.0217 4.0217 0 0 0 0.468 0.222 4.0004 4.0004 0 0 0 0.188 0.062 4.0217 4.0217 0 0 0 0.59375 0.125 4.0004 4.0004 0 0 0 0.1875 0.03125 4.0217 4.0217 0 0 0 0.625 0.03125 4.0004 4.0004 0 0 0 0.1875 -0.03125 4.0217 4.0217 0 0 0 0.406 -0.062 4.0004 4.0004 0 0 0 0.75 -0.25 4.0004 4.0004 0 0 0 1.312 -0.906c4.1238-4.1238 6.9755-9.0681 8.5312-14.312 0.006-0.01953-0.006-0.04296 0-0.0625 0.3046-1.0334 0.57628-2.0718 0.78125-3.125 0.004-0.02042-0.004-0.04208 0-0.0625 0.0977-0.50675 0.20663-1.0213 0.28125-1.5312 0.004-0.03077-0.004-0.06297 0-0.09375 0.0732-0.50963 0.13732-1.0193 0.1875-1.5312 0.003-0.03056-0.003-0.06318 0-0.09375 0.0498-0.5222 0.0992-1.0389 0.125-1.5625 0.00099-0.02094-0.00096-0.04156 0-0.0625 0.0254-0.53403 0.0308-1.0592 0.0312-1.5938-0.00052-0.56521-0.003-1.1229-0.0312-1.6875-0.0249-0.52368-0.0762-1.0402-0.125-1.5625-0.002-0.02061 0.002-0.04189 0-0.0625-0.0498-0.52235-0.11379-1.0425-0.1875-1.5625-0.003-0.02055 0.003-0.04195 0-0.0625-0.073-0.513-0.185-1.027-0.281-1.534-0.10347-0.53682-0.21441-1.0928-0.34375-1.625-0.005-0.01974 0.005-0.04277 0-0.0625-0.25576-1.0443-0.58207-2.0732-0.9375-3.0938-1.63-4.679-4.307-9.057-8.032-12.781a4.0004 4.0004 0 0 0 -0.593 -0.532 4.0004 4.0004 0 0 0 -0.344 -0.218 4.0004 4.0004 0 0 0 -0.563 -0.25 4.0004 4.0004 0 0 0 -0.562 -0.157 4.0004 4.0004 0 0 0 -0.40625 -0.0625 4.0004 4.0004 0 0 0 -0.375 -0.03125 4.0217 4.0217 0 0 0 -0.0312 0 4.0004 4.0004 0 0 0 -0.1875 0zm-42.5 0.96875c0.08279-0.009 0.07311 0.0048 0.15625 0s0.07297 0.000625 0.15625 0c0.10328-0.000668 0.08438-0.0058 0.1875 0s0.08494 0.01906 0.1875 0.03125 0.08591-0.01857 0.1875 0 0.08726 0.03763 0.1875 0.0625 0.08901 0.000178 0.1875 0.03125c0.09849 0.03107 0.09114 0.02535 0.1875 0.0625s0.06239 0.05066 0.15625 0.09375 0.09651 0.01364 0.1875 0.0625 0.06849 0.03931 0.15625 0.09375 0.07205 0.06519 0.15625 0.125 0.07595 0.0288 0.15625 0.09375 0.08016 0.05517 0.15625 0.125 0.05341 0.08181 0.125 0.15625 0.05819 0.04624 0.125 0.125 0.06323 0.07348 0.125 0.15625 0.03727 0.06979 0.09375 0.15625c0.0807 0.12028 0.08638 0.09188 0.15625 0.21875s0.06649 0.1175 0.125 0.25 0.04704 0.1129 0.09375 0.25 0.02796 0.10934 0.0625 0.25 0.04039 0.10686 0.0625 0.25 0.02173 0.13672 0.03125 0.28125c0.0095 0.14453 0.0032 0.10519 0 0.25s-0.01545 0.13727-0.03125 0.28125-0.0029 0.10796-0.03125 0.25c-0.02833 0.14204-0.02186 0.14223-0.0625 0.28125s-0.04111 0.11506-0.09375 0.25-0.02952 0.08893-0.09375 0.21875-0.04967 0.12629-0.125 0.25-0.07039 0.1021-0.15625 0.21875-0.06052 0.11005-0.15625 0.21875-0.08264 0.08759-0.1875 0.1875a0.96391 0.96391 0 0 0 -0.03125 0c-2.9678 2.9678-5.1078 6.4529-6.4062 10.156-0.28854 0.82296-0.5439 1.6581-0.75 2.5-0.09444 0.39154-0.17337 0.79292-0.25 1.1875-0.004 0.0204 0.004 0.04209 0 0.0625-0.0776 0.40453-0.15985 0.81173-0.21875 1.2188-0.003 0.02025 0.0029 0.04225 0 0.0625-0.05791 0.40684-0.11701 0.81014-0.15625 1.2188-0.002 0.02063 0.002 0.04187 0 0.0625-0.03827 0.40849-0.07414 0.80921-0.09375 1.2188-0.02257 0.43997-0.03022 0.87206-0.03125 1.3125 0 0.43082 0.01064 0.85082 0.03125 1.2812 0.000956 0.02099-0.001 0.04152 0 0.0625 0.02056 0.40951 0.05453 0.81033 0.09375 1.2188 0.0028 0.03051-0.0029 0.06325 0 0.09375 0.03963 0.39819 0.09888 0.79104 0.15625 1.1875 0.0044 0.03082-0.0045 0.06294 0 0.09375 0.0588 0.39673 0.14217 0.79318 0.21875 1.1875 0.0058 0.0302-0.0059 0.06357 0 0.09375 0.07798 0.39438 0.15421 0.79622 0.25 1.1875 0.0049 0.02025-0.005 0.04226 0 0.0625 0.09917 0.40121 0.22584 0.79026 0.34375 1.1875 0.0057 0.01938-0.0057 0.04313 0 0.0625 0.11896 0.39756 0.2685 0.79463 0.40625 1.1875 1.2984 3.7033 3.4384 7.1884 6.4062 10.156a0.96391 0.96391 0 0 0 0.03125 0c0.10486 0.09991 0.09177 0.0788 0.1875 0.1875s0.07039 0.1021 0.15625 0.21875 0.08092 0.09504 0.15625 0.21875 0.06077 0.12018 0.125 0.25 0.04111 0.08381 0.09375 0.21875 0.05311 0.11098 0.09375 0.25 0.03417 0.13921 0.0625 0.28125c0.02835 0.14204 0.01545 0.10602 0.03125 0.25s0.02805 0.13644 0.03125 0.28125 0.0095 0.10547 0 0.25-0.0091 0.13811-0.03125 0.28125c-0.02211 0.14314-0.02796 0.10934-0.0625 0.25s-0.01579 0.1129-0.0625 0.25-0.03524 0.1175-0.09375 0.25-0.05513 0.12313-0.125 0.25-0.07555 0.09847-0.15625 0.21875c-0.05648 0.08646-0.03198 0.07348-0.09375 0.15625s-0.05819 0.07749-0.125 0.15625-0.05341 0.05056-0.125 0.125-0.04891 0.08642-0.125 0.15625-0.07595 0.06005-0.15625 0.125-0.07205 0.03394-0.15625 0.09375-0.06849 0.07056-0.15625 0.125-0.06526 0.04489-0.15625 0.09375-0.09364 0.01941-0.1875 0.0625-0.05989 0.0566-0.15625 0.09375-0.08901 0.03143-0.1875 0.0625-0.08726 0.0064-0.1875 0.03125c-0.10024 0.02487-0.08591 0.04393-0.1875 0.0625s-0.08495-0.01219-0.1875 0c-0.10256 0.01219-0.08438 0.02545-0.1875 0.03125s-0.08423 0.000668-0.1875 0c-0.08328-0.000625-0.07311 0.0048-0.15625 0s-0.07346 0.009-0.15625 0c-0.083-0.013-0.043-0.022-0.125-0.035s-0.075-0.014-0.156-0.031c-0.082-0.018-0.076-0.01-0.157-0.031-0.08-0.022-0.076-0.006-0.156-0.032-0.079-0.025-0.047-0.033-0.125-0.062-0.078-0.03-0.08-0.03-0.156-0.063s-0.05-0.025-0.125-0.062c-0.07461-0.03701-0.0836-0.02179-0.15625-0.0625s-0.05449-0.04943-0.125-0.09375-0.05681-0.01469-0.125-0.0625-0.0593-0.04257-0.125-0.09375-0.06196-0.03933-0.125-0.09375-0.03352-0.06748-0.09375-0.125c-0.05059-0.04832-0.05683-0.06214-0.09375-0.09375h-0.03125c-3.627-3.632-6.233-7.91-7.813-12.469-0.16951-0.48638-0.35381-0.97637-0.5-1.4688-0.0058-0.0195 0.0057-0.04299 0-0.0625-0.1451-0.49196-0.28441-0.97172-0.40625-1.4688-0.0048-0.01972 0.0048-0.04277 0-0.0625-0.12092-0.4972-0.24609-0.99865-0.34375-1.5-0.0039-0.02034 0.0039-0.04216 0-0.0625-0.09665-0.50105-0.17657-0.99572-0.25-1.5-0.003-0.0207 0.0029-0.0418 0-0.0625-0.07105-0.49441-0.13876-1.0034-0.1875-1.5-0.0029-0.03083 0.0029-0.06291 0-0.09375-0.04735-0.49651-0.09994-1.0021-0.125-1.5-0.0015-0.0311 0.0014-0.06265 0-0.09375-0.02514-0.52883-0.03125-1.0332-0.03125-1.5625 0.000985-0.5292 0.0051-1.0651 0.03125-1.5938 0.02416-0.50822 0.07762-1.0244 0.125-1.5312 0.002-0.02079-0.002-0.04171 0-0.0625 0.0483-0.50655 0.116-0.99573 0.1875-1.5 0.0029-0.02047-0.003-0.04203 0-0.0625 0.0711-0.49473 0.15656-1.0083 0.25-1.5 0.10097-0.53129 0.2167-1.0358 0.34375-1.5625 0.0048-0.01971-0.0048-0.0428 0-0.0625 1.3812-5.6791 4.3027-11.047 8.7188-15.469h0.03125c0.038-0.032 0.044-0.046 0.095-0.094 0.06023-0.05752 0.03071-0.07058 0.09375-0.125s0.0593-0.04257 0.125-0.09375 0.05681-0.04594 0.125-0.09375 0.05449-0.01818 0.125-0.0625 0.05235-0.05304 0.125-0.09375 0.08164-0.02549 0.15625-0.0625 0.04863-0.02929 0.125-0.0625 0.0783-0.03318 0.15625-0.0625 0.04568-0.03714 0.125-0.0625 0.07575-0.0099 0.15625-0.03125c0.0805-0.02134 0.07478-0.01399 0.15625-0.03125s0.07401-0.01811 0.15625-0.03125 0.04221-0.02226 0.125-0.03125zm42.5 0c0.10312-0.0058 0.0842-0.000668 0.1875 0 0.0833 0.000625 0.0731-0.0048 0.15625 0 0.0831 0.0048 0.0735-0.009 0.15625 0 0.0828 0.009 0.0428 0.01811 0.125 0.03125s0.0748 0.01399 0.15625 0.03125c0.0815 0.01726 0.0757 0.0099 0.15625 0.03125 0.0805 0.02134 0.0769 0.0059 0.15625 0.03125 0.0793 0.02536 0.047 0.03318 0.125 0.0625s0.0799 0.02929 0.15625 0.0625c0.0764 0.03321 0.0504 0.02549 0.125 0.0625s0.0836 0.02179 0.15625 0.0625c0.0726 0.04071 0.0545 0.04943 0.125 0.09375s0.0568 0.01469 0.125 0.0625 0.0593 0.04257 0.125 0.09375 0.062 0.03933 0.125 0.09375 0.0335 0.06748 0.0937 0.125c0.0506 0.04832 0.0568 0.06214 0.0937 0.09375 0.007 0.006 0.0221-0.0097 0.0312 0 4.416 4.4221 7.3376 9.7896 8.7188 15.469 0.005 0.0197-0.005 0.04279 0 0.0625 0.12705 0.5267 0.24278 1.0312 0.34375 1.5625 0.0934 0.49166 0.1789 1.0053 0.25 1.5 0.003 0.02047-0.003 0.04203 0 0.0625 0.0715 0.50427 0.1392 0.99345 0.1875 1.5 0.002 0.02079-0.002 0.04171 0 0.0625 0.0474 0.50686 0.10084 1.023 0.125 1.5312 0.0266 0.53904 0.0308 1.0854 0.0312 1.625-0.00049 0.51874-0.007 1.013-0.0312 1.5312-0.001 0.0311 0.001 0.06265 0 0.09375-0.0251 0.49786-0.0777 1.0035-0.125 1.5-0.003 0.03084 0.003 0.06292 0 0.09375-0.0487 0.49663-0.11645 1.0056-0.1875 1.5-0.003 0.0207 0.003 0.0418 0 0.0625-0.0734 0.50428-0.15335 0.99895-0.25 1.5-0.004 0.02034 0.004 0.04216 0 0.0625-0.0977 0.50135-0.22283 1.0028-0.34375 1.5-0.005 0.01973 0.005 0.04278 0 0.0625-0.12184 0.49702-0.26114 0.97679-0.40625 1.4688-0.006 0.01951 0.006 0.043 0 0.0625-0.14619 0.49238-0.33049 0.98237-0.5 1.4688-1.5798 4.5592-4.1856 8.8368-7.8125 12.469h-0.0312c-0.0369 0.03161-0.0432 0.04543-0.0937 0.09375-0.0602 0.05752-0.0308 0.07058-0.0937 0.125-0.063 0.05442-0.0593 0.04257-0.125 0.09375s-0.0568 0.04594-0.125 0.09375-0.0545 0.01818-0.125 0.0625-0.0524 0.05304-0.125 0.09375c-0.0727 0.04071-0.0816 0.02549-0.15625 0.0625-0.0746 0.03701-0.0486 0.02929-0.125 0.0625-0.0763 0.03321-0.0782 0.03318-0.15625 0.0625-0.078 0.02932-0.0457 0.03714-0.125 0.0625-0.0794 0.02535-0.0757 0.0099-0.15625 0.03125-0.0805 0.02135-0.0747 0.01399-0.15625 0.03125-0.0814 0.01726-0.074 0.01811-0.15625 0.03125-0.0822 0.01314-0.0422 0.02225-0.125 0.03125s-0.0731-0.0048-0.15625 0c-0.0831 0.0048-0.0729-0.000625-0.15625 0-0.1033 0.000668-0.0844 0.0058-0.1875 0-0.105-0.005-0.087-0.018-0.19-0.03-0.102-0.012-0.085 0.019-0.187 0s-0.087-0.038-0.187-0.062c-0.101-0.025-0.09-0.001-0.188-0.032s-0.091-0.025-0.188-0.062c-0.096-0.037-0.062-0.051-0.156-0.094-0.0939-0.04309-0.0965-0.01364-0.1875-0.0625s-0.0684-0.03931-0.15625-0.09375c-0.0877-0.05444-0.0721-0.06519-0.15625-0.125-0.0841-0.05981-0.076-0.0288-0.15625-0.09375-0.0803-0.06495-0.0802-0.05517-0.15625-0.125-0.0761-0.06983-0.0534-0.08181-0.125-0.15625s-0.0582-0.04624-0.125-0.125-0.0632-0.07348-0.125-0.15625c-0.0617-0.08277-0.0373-0.06979-0.0937-0.15625-0.0807-0.12028-0.0863-0.09188-0.15625-0.21875-0.0699-0.12687-0.0665-0.1175-0.125-0.25s-0.047-0.1129-0.0937-0.25-0.028-0.10934-0.0625-0.25-0.0404-0.10686-0.0625-0.25c-0.0222-0.14314-0.0212-0.13672-0.0312-0.28125s-0.003-0.10519 0-0.25 0.0155-0.13727 0.0312-0.28125 0.003-0.10796 0.0312-0.25c0.0283-0.14204 0.0219-0.14223 0.0625-0.28125s0.0412-0.11506 0.0937-0.25c0.0526-0.13494 0.0296-0.08893 0.0937-0.21875 0.0642-0.12982 0.0497-0.12629 0.125-0.25 0.0754-0.12371 0.0704-0.1021 0.15625-0.21875 0.0858-0.11665 0.0606-0.11005 0.15625-0.21875 0.0957-0.1087 0.0827-0.08759 0.1875-0.1875a0.96391 0.96391 0 0 0 0.0312 0c2.9678-2.9678 5.1078-6.4529 6.4062-10.156 0.13775-0.39287 0.28729-0.78994 0.40625-1.1875 0.006-0.01937-0.006-0.04312 0-0.0625 0.11791-0.39724 0.24458-0.78629 0.34375-1.1875 0.005-0.02024-0.005-0.04225 0-0.0625 0.0958-0.39128 0.17202-0.79312 0.25-1.1875 0.006-0.03018-0.006-0.06355 0-0.09375 0.0766-0.39432 0.15995-0.79077 0.21875-1.1875 0.004-0.03081-0.004-0.06293 0-0.09375 0.0574-0.39646 0.11662-0.78931 0.15625-1.1875 0.003-0.0305-0.003-0.06324 0-0.09375 0.0392-0.40842 0.0732-0.80924 0.0937-1.2188 0.001-0.02098-0.00096-0.04151 0-0.0625 0.0206-0.43043 0.0312-0.85043 0.0312-1.2812-0.001-0.44044-0.009-0.87253-0.0312-1.3125-0.0196-0.40954-0.0555-0.81026-0.0937-1.2188-0.002-0.02063 0.002-0.04187 0-0.0625-0.0392-0.40861-0.0983-0.81191-0.15625-1.2188-0.003-0.02025 0.003-0.04225 0-0.0625-0.0589-0.40702-0.14115-0.81422-0.21875-1.2188-0.004-0.02041 0.004-0.0421 0-0.0625-0.0766-0.39458-0.15556-0.79596-0.25-1.1875-0.2061-0.84191-0.46146-1.677-0.75-2.5-1.298-3.698-3.438-7.183-6.406-10.15a0.96391 0.96391 0 0 0 -0.0312 0c-0.105-0.1-0.092-0.079-0.187-0.188-0.096-0.109-0.071-0.102-0.157-0.219-0.085-0.116-0.08-0.095-0.156-0.219-0.0753-0.12371-0.0608-0.12018-0.125-0.25s-0.0412-0.08381-0.0937-0.21875c-0.0526-0.13494-0.0532-0.11098-0.0937-0.25-0.0406-0.13902-0.0342-0.13921-0.0625-0.28125s-0.0156-0.10602-0.0312-0.25c-0.0158-0.14398-0.0281-0.13644-0.0312-0.28125-0.003-0.14481-0.01-0.10547 0-0.25s0.009-0.13811 0.0312-0.28125c0.0221-0.14314 0.028-0.10934 0.0625-0.25s0.0158-0.1129 0.0625-0.25 0.0353-0.1175 0.0937-0.25c0.0585-0.1325 0.0551-0.12313 0.125-0.25s0.0756-0.09847 0.15625-0.21875c0.0565-0.08646 0.032-0.07348 0.0937-0.15625 0.0618-0.08277 0.0582-0.07749 0.125-0.15625s0.0534-0.05056 0.125-0.125 0.0489-0.08642 0.125-0.15625 0.076-0.06005 0.15625-0.125c0.0803-0.06495 0.0721-0.03394 0.15625-0.09375 0.0842-0.05981 0.0685-0.07056 0.15625-0.125 0.0878-0.05444 0.0653-0.04489 0.15625-0.09375 0.091-0.04886 0.0936-0.01941 0.1875-0.0625s0.0599-0.0566 0.15625-0.09375c0.0964-0.03715 0.089-0.03143 0.1875-0.0625s0.0873-0.0064 0.1875-0.03125c0.10024-0.02487 0.0859-0.04393 0.1875-0.0625 0.10159-0.01857 0.085 0.01219 0.1875 0 0.10255-0.01219 0.0844-0.02548 0.1875-0.03125zm-32.281 9.0625a4.0004 4.0004 0 0 0 -0.438 0.03 4.0004 4.0004 0 0 0 -2.469 1.219c-3.4024 3.4024-5.3247 7.7504-5.75 12.219-0.04836 0.59636-0.09831 1.1833-0.09375 1.7812-0.000393 0.05155 0 0.1047 0 0.15625 0.0082 0.5376 0.04277 1.0894 0.09375 1.625 0.4253 4.4684 2.3476 8.8163 5.75 12.219a4.0004 4.0004 0 0 0 2.4688 1.2188 4.0004 4.0004 0 0 0 0.4375 0.03125 4.0004 4.0004 0 0 0 2.8438 -1.25 4.0004 4.0004 0 0 0 1.125 -2.5938 4.0004 4.0004 0 0 0 0 -0.09375 4.0004 4.0004 0 0 0 -1.2188 -2.6875c-2.1386-2.1386-3.2994-4.8555-3.5-7.625-0.03189-0.3299-0.02694-0.66893-0.03125-1 0.0043-0.33107-0.00064-0.6701 0.03125-1 0.19567-2.7775 1.3554-5.4804 3.5-7.625a4.0004 4.0004 0 0 0 1.1875 -2.4062 4.0004 4.0004 0 0 0 0.0312 -0.1875 4.0004 4.0004 0 0 0 0 -0.21875 4.0004 4.0004 0 0 0 -1.125 -2.5625 4.0004 4.0004 0 0 0 -2.8438 -1.25zm22.625 0a4.0004 4.0004 0 0 0 -0.4375 0.03125 4.0004 4.0004 0 0 0 -2.4688 1.2188 4.0004 4.0004 0 0 0 -1.125 2.5 4.0004 4.0004 0 0 0 0 0.40625 4.0004 4.0004 0 0 0 1.2188 2.4688c2.1446 2.1446 3.3043 4.8475 3.5 7.625 0.0269 0.2784 0.024 0.56442 0.0312 0.84375 0 0.38278 0.006 0.77484-0.0312 1.1562-0.20055 2.7695-1.3614 5.4864-3.5 7.625a4.0004 4.0004 0 0 0 -1.2188 2.4688 4.0004 4.0004 0 0 0 0 0.375 4.0004 4.0004 0 0 0 0 0.03125 4.0004 4.0004 0 0 0 1.125 2.5 4.0004 4.0004 0 0 0 2.4688 1.2188 4.0004 4.0004 0 0 0 0.4375 0.03125 4.0004 4.0004 0 0 0 2.8438 -1.25c3.4024-3.4024 5.3247-7.7504 5.75-12.219 0.0608-0.63834 0.0937-1.2967 0.0937-1.9375-0.008-0.5376-0.0428-1.0894-0.0937-1.625-0.4253-4.4684-2.3476-8.8163-5.75-12.219a4.0004 4.0004 0 0 0 -2.8438 -1.25zm-22.688 0.6875c0.08225-0.00084 0.07405 0.02795 0.15625 0.03125 0.08225 0.0033 0.07425-0.0073 0.15625 0 0.08195 0.0073 0.07475-0.0114 0.15625 0 0.08145 0.0114 0.07545 0.01581 0.15625 0.03125s0.0451 0.01182 0.125 0.03125c0.07995 0.01943 0.07735 0.0079 0.15625 0.03125 0.07885 0.02338 0.07865 0.03522 0.15625 0.0625s0.0488 0.0314 0.125 0.0625 0.0505 0.02765 0.125 0.0625c0.07455 0.03485 0.08355 0.02399 0.15625 0.0625s0.0543 0.02043 0.125 0.0625 0.0565 0.04821 0.125 0.09375 0.0588 0.04486 0.125 0.09375 0.0613 0.01038 0.125 0.0625 0.064 0.06978 0.125 0.125 0.03555 0.03557 0.09375 0.09375c0.0581 0.05818 0.03855 0.03275 0.09375 0.09375s0.0729 0.06133 0.125 0.125 0.0136 0.05882 0.0625 0.125c0.0488 0.06618 0.04825 0.05647 0.09375 0.125s0.05165 0.05429 0.09375 0.125 0.024 0.05229 0.0625 0.125 0.0276 0.08172 0.0625 0.15625 0.0314 0.04883 0.0625 0.125 0.0352 0.04737 0.0625 0.125 0.0391 0.07736 0.0625 0.15625c0.0232 0.07889 0.01185 0.0763 0.03125 0.15625s0.01585 0.04418 0.03125 0.125 0.01985 0.07476 0.03125 0.15625-0.007 0.0743 0 0.15625-0.003 0.07404 0 0.15625c0.0032 0.08221 0.03209 0.07398 0.03125 0.15625-0.0008 0.08227-0.02625 0.04287-0.03125 0.125s0.009 0.07446 0 0.15625c-0.00041 0.0131 0.0003 0.01501 0 0.03125-0.003 0.16242 0.0186 0.11988 0 0.28125s-0.0282 0.15373-0.0625 0.3125-0.04405 0.12661-0.09375 0.28125-0.02915 0.13222-0.09375 0.28125-0.0461 0.10803-0.125 0.25-0.0638 0.11645-0.15625 0.25c-0.0925 0.13355-0.0824 0.12615-0.1875 0.25-0.10511 0.12385-0.0708 0.1058-0.1875 0.21875a0.96391 0.96391 0 0 0 -0.03125 0c-2.2235 2.2235-3.4721 5.0471-3.75 7.9375-0.03475 0.36143-0.05817 0.73102-0.0625 1.0938 0.0043 0.36273 0.02775 0.73232 0.0625 1.0938 0.27793 2.8904 1.5265 5.714 3.75 7.9375a0.96391 0.96391 0 0 0 0.03125 0c0.1167 0.11295 0.08239 0.0949 0.1875 0.21875 0.1051 0.12385 0.095 0.11645 0.1875 0.25 0.09245 0.13355 0.07735 0.10803 0.15625 0.25s0.0604 0.10097 0.125 0.25 0.04405 0.12661 0.09375 0.28125 0.05945 0.12248 0.09375 0.28125 0.0439 0.15113 0.0625 0.3125-0.003 0.11883 0 0.28125c0.0018 0.01043-0.0017 0.01552 0 0.03125 0.009 0.08179-0.005 0.07412 0 0.15625s0.03045 0.04273 0.03125 0.125c0.00084 0.08227-0.02805 0.07404-0.03125 0.15625-0.003 0.08221 0.007 0.0743 0 0.15625s0.0114 0.07476 0 0.15625-0.01585 0.07543-0.03125 0.15625-0.01185 0.04505-0.03125 0.125-0.008 0.07736-0.03125 0.15625c-0.0234 0.07889-0.0352 0.07862-0.0625 0.15625s-0.0314 0.04883-0.0625 0.125-0.0276 0.05047-0.0625 0.125-0.024 0.08354-0.0625 0.15625-0.0204 0.05429-0.0625 0.125-0.04825 0.05647-0.09375 0.125-0.04495 0.05882-0.09375 0.125c-0.0489 0.06618-0.0104 0.06133-0.0625 0.125s-0.0698 0.064-0.125 0.125-0.03565 0.03557-0.09375 0.09375c-0.0582 0.05818-0.03275 0.03853-0.09375 0.09375s-0.0613 0.07288-0.125 0.125-0.0588 0.01361-0.125 0.0625-0.0565 0.04821-0.125 0.09375-0.0543 0.05168-0.125 0.09375-0.0523 0.02399-0.125 0.0625-0.0817 0.02765-0.15625 0.0625c-0.0745 0.03485-0.0488 0.0314-0.125 0.0625s-0.0474 0.03522-0.125 0.0625-0.0774 0.03912-0.15625 0.0625c-0.0789 0.02338-0.0763 0.01182-0.15625 0.03125-0.0799 0.01943-0.0442 0.01581-0.125 0.03125s-0.0748 0.01985-0.15625 0.03125c-0.0815 0.0114-0.0743-0.0073-0.15625 0-0.082 0.0073-0.074-0.0033-0.15625 0-0.0822 0.0033-0.074 0.03209-0.15625 0.03125-0.0823-0.000837-0.0429-0.02632-0.125-0.03125-0.0821-0.0049-0.0745 0.009-0.15625 0-0.0818-0.009-0.075-0.01819-0.15625-0.03125-0.0812-0.01306-0.0758-0.01417-0.15625-0.03125-0.0805-0.01708-0.0767-0.0102-0.15625-0.03125-0.0795-0.02105-0.0466-0.0063-0.125-0.03125-0.0784-0.02498-0.0792-0.03365-0.15625-0.0625-0.0771-0.02885-0.0495 0.0014-0.125-0.03125-0.0755-0.03264-0.0824-0.02614-0.15625-0.0625-0.0738-0.03636-0.0531-0.05377-0.125-0.09375s-0.0552-0.019-0.125-0.0625-0.0574-0.04683-0.125-0.09375-0.0598-0.04353-0.125-0.09375-0.0624-0.04035-0.125-0.09375c-0.063-0.054-0.034-0.038-0.094-0.094-0.06-0.057-0.068-0.035-0.125-0.094a0.96391 0.96391 0 0 0 0 -0.03125c-3.311-3.312-5.119-7.558-5.469-11.907-0.058-0.607-0.093-1.234-0.093-1.844 0.008-0.506 0.045-1.026 0.093-1.531 0.35-4.348 2.158-8.595 5.469-11.906a0.96391 0.96391 0 0 0 0 -0.03125c0.057-0.05935 0.0651-0.03731 0.125-0.09375 0.0598-0.05644 0.03115-0.04035 0.09375-0.09375s0.0598-0.04353 0.125-0.09375 0.0574-0.04683 0.125-0.09375 0.0552-0.05025 0.125-0.09375 0.0531-0.02252 0.125-0.0625 0.0512-0.05739 0.125-0.09375c0.07385-0.03636 0.08075-0.02986 0.15625-0.0625 0.0755-0.03265 0.0479-0.0024 0.125-0.03125 0.07705-0.02885 0.07785-0.03752 0.15625-0.0625 0.0784-0.02495 0.0455-0.0102 0.125-0.03125 0.08-0.022 0.076-0.015 0.156-0.032 0.081-0.017 0.076-0.018 0.157-0.031s0.074-0.023 0.156-0.031c0.08175-0.009 0.07415 0.0049 0.15625 0s0.0427-0.03041 0.125-0.03125zm22.688 0c0.0823 0.00084 0.0429 0.02635 0.125 0.03125s0.0744-0.009 0.15625 0c0.0817 0.009 0.0751 0.01819 0.15625 0.03125 0.0812 0.01306 0.0757 0.01417 0.15625 0.03125 0.0804 0.01708 0.0768 0.0102 0.15625 0.03125 0.0795 0.02105 0.0466 0.0063 0.125 0.03125 0.0784 0.02498 0.0791 0.03365 0.15625 0.0625 0.0771 0.02885 0.0495-0.0014 0.125 0.03125 0.0756 0.03264 0.0824 0.02614 0.15625 0.0625 0.0738 0.03636 0.0531 0.05377 0.125 0.09375s0.0552 0.019 0.125 0.0625 0.0574 0.04683 0.125 0.09375 0.0598 0.04353 0.125 0.09375 0.0624 0.04035 0.125 0.09375 0.0339 0.03731 0.0937 0.09375c0.0599 0.05644 0.068 0.0344 0.125 0.09375a0.96391 0.96391 0 0 0 0 0.03125c3.3114 3.3114 5.1189 7.5578 5.4688 11.906 0.0481 0.50448 0.0856 1.0249 0.0937 1.5312 0 0.60941-0.0359 1.2366-0.0937 1.8438-0.34987 4.3485-2.1573 8.5948-5.4688 11.906a0.96391 0.96391 0 0 0 0 0.03125c-0.057 0.05935-0.0651 0.03731-0.125 0.09375s-0.0311 0.04035-0.0937 0.09375-0.0598 0.04353-0.125 0.09375-0.0574 0.04683-0.125 0.09375-0.0552 0.05025-0.125 0.09375-0.0531 0.02252-0.125 0.0625-0.0512 0.05739-0.125 0.09375-0.0807 0.02986-0.15625 0.0625c-0.0755 0.03264-0.0479 0.0024-0.125 0.03125s-0.0779 0.03752-0.15625 0.0625c-0.0784 0.02498-0.0455 0.0102-0.125 0.03125s-0.0758 0.01417-0.15625 0.03125c-0.0805 0.01708-0.075 0.01819-0.15625 0.03125-0.0812 0.01306-0.0745 0.02225-0.15625 0.03125-0.0818 0.009-0.0741-0.0049-0.15625 0-0.0821 0.0049-0.0427 0.03041-0.125 0.03125-0.0823 0.000837-0.074-0.028-0.15625-0.03125-0.0822-0.0033-0.0743 0.0073-0.15625 0-0.082-0.0073-0.0748 0.0114-0.15625 0-0.0815-0.0114-0.0754-0.01581-0.15625-0.03125-0.0808-0.01544-0.0451-0.01182-0.125-0.03125s-0.0774-0.0079-0.15625-0.03125c-0.0789-0.02338-0.0786-0.03522-0.15625-0.0625-0.0776-0.02728-0.0488-0.0314-0.125-0.0625s-0.0505-0.02765-0.125-0.0625c-0.075-0.036-0.084-0.025-0.157-0.064-0.073-0.038-0.054-0.02-0.125-0.062s-0.056-0.048-0.125-0.094-0.059-0.045-0.125-0.094c-0.0662-0.04889-0.0613-0.01038-0.125-0.0625s-0.064-0.06978-0.125-0.125-0.0357-0.03557-0.0937-0.09375c-0.0582-0.05818-0.0386-0.03275-0.0937-0.09375-0.0552-0.061-0.0729-0.06133-0.125-0.125s-0.0136-0.05882-0.0625-0.125-0.0482-0.05647-0.0937-0.125-0.0517-0.05429-0.0937-0.125c-0.0421-0.07071-0.024-0.05229-0.0625-0.125-0.038-0.072-0.027-0.081-0.062-0.156s-0.032-0.049-0.063-0.125-0.035-0.047-0.062-0.125c-0.028-0.078-0.039-0.077-0.063-0.156-0.023-0.079-0.012-0.077-0.031-0.156-0.0194-0.07995-0.0159-0.04418-0.0312-0.125-0.0154-0.08082-0.0199-0.07476-0.0312-0.15625-0.0114-0.08149 0.007-0.0743 0-0.15625s0.003-0.07404 0-0.15625-0.0322-0.07398-0.0312-0.15625c0.00084-0.08227 0.0263-0.04287 0.0312-0.125 0.005-0.08213-0.009-0.07446 0-0.15625 0.002-0.01573-0.002-0.02082 0-0.03125 0.003-0.16242-0.0186-0.11988 0-0.28125s0.0282-0.15373 0.0625-0.3125 0.044-0.12661 0.0937-0.28125 0.0292-0.13222 0.0937-0.28125c0.0646-0.14903 0.0461-0.10803 0.125-0.25 0.079-0.14197 0.0637-0.11645 0.15625-0.25 0.0925-0.13355 0.0824-0.12615 0.1875-0.25s0.0708-0.1058 0.1875-0.21875a0.96391 0.96391 0 0 0 0.0312 0c2.2235-2.2235 3.4721-5.0471 3.75-7.9375 0.0397-0.41291 0.0625-0.83558 0.0625-1.25-0.007-0.31101-0.0327-0.62756-0.0625-0.9375-0.27793-2.8904-1.5265-5.714-3.75-7.9375a0.96391 0.96391 0 0 0 -0.0312 0c-0.11674-0.11295-0.0824-0.0949-0.1875-0.21875-0.10511-0.12385-0.095-0.11645-0.1875-0.25s-0.0773-0.10803-0.15625-0.25c-0.0789-0.14197-0.0604-0.10097-0.125-0.25s-0.044-0.12661-0.0937-0.28125-0.0594-0.12248-0.0937-0.28125-0.0439-0.15113-0.0625-0.3125 0.003-0.11883 0-0.28125c-0.0003-0.01624 0.00041-0.01815 0-0.03125-0.009-0.08179 0.005-0.07412 0-0.15625s-0.0304-0.04273-0.0312-0.125c-0.0009-0.08227 0.0282-0.07404 0.0312-0.15625s-0.007-0.0743 0-0.15625-0.0114-0.07476 0-0.15625c0.0113-0.08149 0.0159-0.07543 0.0312-0.15625 0.0154-0.08082 0.0118-0.04505 0.0312-0.125s0.008-0.07736 0.0312-0.15625c0.0234-0.07889 0.0352-0.07862 0.0625-0.15625s0.0314-0.04883 0.0625-0.125 0.0276-0.05047 0.0625-0.125 0.024-0.08354 0.0625-0.15625 0.0204-0.05429 0.0625-0.125c0.042-0.07071 0.0482-0.05647 0.0937-0.125s0.0448-0.05882 0.0937-0.125 0.0104-0.06133 0.0625-0.125 0.0698-0.064 0.125-0.125 0.0356-0.03557 0.0937-0.09375 0.0327-0.03853 0.0937-0.09375 0.0613-0.07288 0.125-0.125 0.0588-0.01361 0.125-0.0625 0.0565-0.04821 0.125-0.09375 0.0543-0.05168 0.125-0.09375 0.0523-0.02399 0.125-0.0625 0.0817-0.02765 0.15625-0.0625c0.0745-0.03485 0.0488-0.0314 0.125-0.0625s0.0474-0.03522 0.125-0.0625c0.0777-0.02728 0.0773-0.03912 0.15625-0.0625 0.0789-0.02335 0.0764-0.01182 0.15625-0.03125 0.0799-0.01943 0.0442-0.01581 0.125-0.03125s0.0747-0.01985 0.15625-0.03125c0.0815-0.0114 0.0743 0.0073 0.15625 0 0.082-0.0073 0.074 0.0033 0.15625 0 0.0823-0.0033 0.0739-0.03209 0.15625-0.03125z"/>
 </g>
 <g id="layer5">
  <rect id="rect3171" style="opacity:.1;filter:url(#filter3794);stroke:#fff;stroke-linecap:round;stroke-width:.5;fill:url(#linearGradient3613)" clip-path="url(#clipPath3613)" rx="12" ry="12" height="66" width="66" y="15" x="15"/>
 </g>
 <g id="layer4">
  <path id="path3838" style="opacity:.05;color:#000000" d="m48 31.906c-5.5453 0-10.094 4.5485-10.094 10.094 0 4.1435 2.5585 7.7321 6.1562 9.2812-1.852 1.286-3.156 3.313-3.156 5.719v20c0 3.8941 3.1996 7.0938 7.0938 7.0938 3.8941 0 7.0938-3.1996 7.0938-7.0938v-20c0-2.4059-1.3039-4.4334-3.1562-5.7188 3.597-1.549 6.156-5.138 6.156-9.281 0-5.545-4.549-10.094-10.094-10.094z"/>
  <path id="path3833" style="opacity:.1;color:#000000" d="m48 33.031c-4.9301 0-8.9688 4.0387-8.9688 8.9688s4.0387 8.9688 8.9688 8.9688 8.9688-4.0387 8.9688-8.9688-4.0387-8.9688-8.9688-8.9688zm0 18c-3.2774 0-5.9688 2.6913-5.9688 5.9688v20c0 3.2774 2.6913 5.9688 5.9688 5.9688 3.2774 0 5.9688-2.6913 5.9688-5.9688v-20c0-3.2774-2.6913-5.9688-5.9688-5.9688z"/>
  <path id="path3829" style="opacity:.15;color:#000000" d="m48 34.062c-4.37 0-7.9375 3.5675-7.9375 7.9375s3.5675 7.9375 7.9375 7.9375 7.9375-3.5675 7.9375-7.9375-3.5675-7.9375-7.9375-7.9375zm0 18c-2.7165 0-4.9375 2.221-4.9375 4.9375v20c0 2.7165 2.221 4.9375 4.9375 4.9375s4.9375-2.221 4.9375-4.9375v-20c0-2.7165-2.221-4.9375-4.9375-4.9375z"/>
  <path id="rect3816" style="opacity:.3;color:#000000" d="m48 35c-3.866 0-7 3.134-7 7s3.134 7 7 7 7-3.134 7-7-3.134-7-7-7zm0 18c-2.216 0-4 1.784-4 4v20c0 2.216 1.784 4 4 4s4-1.784 4-4v-20c0-2.216-1.784-4-4-4z"/>
  <rect id="rect3661" style="color:#000000;fill:url(#linearGradient3796)" rx="4" ry="4" height="28" width="8" y="52" x="44"/>
  <path id="path3663" style="color:#000000;fill:url(#radialGradient3861)" d="m55 41a7 7 0 1 1 -14 0 7 7 0 1 1 14 0z"/>
  <path id="rect3807" style="opacity:.2;color:#000000" d="m44 75v1c0 2.216 1.784 4 4 4s4-1.784 4-4v-1c0 2.216-1.784 4-4 4s-4-1.784-4-4z"/>
  <path id="rect3844" style="opacity:.6;color:#000000;fill:url(#linearGradient3853)" d="m48 52c-2.216 0-4 1.784-4 4v20c0 2.216 1.784 4 4 4s4-1.784 4-4v-20c0-2.216-1.784-4-4-4zm0 1c1.6742 0 3 1.3258 3 3v20c0 1.6742-1.3258 3-3 3s-3-1.3258-3-3v-20c0-1.6742 1.3258-3 3-3z"/>
  <path id="path3868" style="opacity:.3;color:#000000;fill:url(#radialGradient3891)" d="m42.031 40.625c-0.007 0.123-0.031 0.251-0.031 0.375 0 3.3137 2.6863 6 6 6s6-2.6863 6-6c0-0.12447-0.02378-0.25241-0.03125-0.375-0.308 3.026-2.862 5.375-5.969 5.375s-5.661-2.349-5.969-5.375z"/>
  <path id="path3893" style="color:#000000;fill:url(#linearGradient3903)" d="m55 41a7 7 0 1 1 -14 0 7 7 0 1 1 14 0z" transform="matrix(.71429 0 0 .5 13.714 18)"/>
 </g>
</svg>
