<?xml version="1.0" encoding="UTF-8" standalone="no"?>
<!-- Created with Inkscape (http://www.inkscape.org/) -->
<svg id="svg2408" xmlns:rdf="http://www.w3.org/1999/02/22-rdf-syntax-ns#" xmlns="http://www.w3.org/2000/svg" height="96" width="96" version="1.0" xmlns:cc="http://creativecommons.org/ns#" xmlns:xlink="http://www.w3.org/1999/xlink" xmlns:dc="http://purl.org/dc/elements/1.1/">
 <defs id="defs2410">
  <linearGradient id="linearGradient4747">
   <stop id="stop4749" style="stop-color:#fd898b" offset="0"/>
   <stop id="stop4751" style="stop-color:#fc575a;stop-opacity:0" offset="1"/>
  </linearGradient>
  <linearGradient id="linearGradient4585">
   <stop id="stop4587" style="stop-color:#ff7272" offset="0"/>
   <stop id="stop4589" style="stop-color:#ef2b2b;stop-opacity:.48117" offset="1"/>
  </linearGradient>
  <linearGradient id="ButtonShadow" y2="7.0165" gradientUnits="userSpaceOnUse" x2="45.448" gradientTransform="scale(1.0059 .99417)" y1="92.54" x1="45.448">
   <stop id="stop3750" offset="0"/>
   <stop id="stop3752" style="stop-opacity:.58824" offset="1"/>
  </linearGradient>
  <linearGradient id="linearGradient3737">
   <stop id="stop3739" style="stop-color:#fff" offset="0"/>
   <stop id="stop3741" style="stop-color:#fff;stop-opacity:0" offset="1"/>
  </linearGradient>
  <filter id="filter3174" color-interpolation-filters="sRGB">
   <feGaussianBlur id="feGaussianBlur3176" stdDeviation="1.71"/>
  </filter>
  <linearGradient id="ButtonShadow-0" y2="7.0165" gradientUnits="userSpaceOnUse" x2="45.448" gradientTransform="matrix(1.0059 0 0 .99417 100 0)" y1="92.54" x1="45.448">
   <stop id="stop3750-8" offset="0"/>
   <stop id="stop3752-5" style="stop-opacity:.58824" offset="1"/>
  </linearGradient>
  <linearGradient id="linearGradient3780" y2="90.239" xlink:href="#ButtonShadow-0" gradientUnits="userSpaceOnUse" x2="32.251" gradientTransform="matrix(1.0238 0 0 1.0119 -1.1429 -98.071)" y1="6.1317" x1="32.251"/>
  <linearGradient id="linearGradient3721" y2="90.239" xlink:href="#ButtonShadow-0" gradientUnits="userSpaceOnUse" x2="32.251" gradientTransform="translate(0,-97)" y1="6.1317" x1="32.251"/>
  <style id="style3273" type="text/css">.fil6 {fill:#803031}
    .fil3 {fill:#ED3237}
    .fil0 {fill:#943233}
    .fil1 {fill:#AB3235}
    .fil2 {fill:#C73336}
    .fil4 {fill:#EF4B3F}
    .fil5 {fill:#F15F4A}</style>
  <radialGradient id="radialGradient3584" xlink:href="#linearGradient3737" gradientUnits="userSpaceOnUse" cy="90.172" cx="48" gradientTransform="matrix(1.1573 0 0 .99591 -7.551 .19713)" r="42"/>
  <linearGradient id="linearGradient3604" y2="63.893" xlink:href="#linearGradient3737" gradientUnits="userSpaceOnUse" x2="36.357" y1="6" x1="36.357"/>
  <linearGradient id="linearGradient3607" y2="5.9877" gradientUnits="userSpaceOnUse" x2="48" y1="90" x1="48">
   <stop id="stop4525" style="stop-color:#5a0606" offset="0"/>
   <stop id="stop4527" style="stop-color:#b40e0e" offset="1"/>
  </linearGradient>
  <radialGradient id="radialGradient4591" xlink:href="#linearGradient4585" gradientUnits="userSpaceOnUse" cy="45.19" cx="40.013" gradientTransform="matrix(1.0202 0 0 .58453 -2.5915 18.545)" r="15.407"/>
  <radialGradient id="radialGradient4593" xlink:href="#linearGradient4585" gradientUnits="userSpaceOnUse" cy="9.7008" cx="43.35" gradientTransform="matrix(1 0 0 .86325 1.8894 1.5393)" r="11.238"/>
  <radialGradient id="radialGradient4595" xlink:href="#linearGradient4585" gradientUnits="userSpaceOnUse" cy="32.986" cx="8.8361" gradientTransform="matrix(1.027 0 0 1.3752 .38034 -11.301)" r="8.8361"/>
  <radialGradient id="radialGradient4597" xlink:href="#linearGradient4585" gradientUnits="userSpaceOnUse" cy="9.8533" cx="16.16" gradientTransform="matrix(1.0004 .11714 -.092421 .79144 1.5928 -2.3896)" r="12.267"/>
  <radialGradient id="radialGradient4721" gradientUnits="userSpaceOnUse" cy="39.378" cx="27.28" gradientTransform="matrix(1 0 0 .50132 0 19.637)" r="12.431">
   <stop id="stop4717" style="stop-color:#ef4b3f" offset="0"/>
   <stop id="stop4719" style="stop-color:#ef4b3f;stop-opacity:0" offset="1"/>
  </radialGradient>
  <radialGradient id="radialGradient4729" gradientUnits="userSpaceOnUse" cy="26.537" cx="48.847" gradientTransform="matrix(1 0 0 2.1895 0 -31.566)" r="5.7759">
   <stop id="stop4725" style="stop-color:#ef4b3f" offset="0"/>
   <stop id="stop4727" style="stop-color:#ef4b3f;stop-opacity:0" offset="1"/>
  </radialGradient>
  <radialGradient id="radialGradient4737" gradientUnits="userSpaceOnUse" cy="9.6033" cx="32.187" gradientTransform="matrix(1 0 0 .45779 0 5.207)" r="9.6462">
   <stop id="stop4733" style="stop-color:#ed3237" offset="0"/>
   <stop id="stop4735" style="stop-color:#ed3237;stop-opacity:0" offset="1"/>
  </radialGradient>
  <radialGradient id="radialGradient4745" gradientUnits="userSpaceOnUse" cy="21.528" cx="13.96" gradientTransform="matrix(1 0 0 1.6315 0 -13.595)" r="5.8296">
   <stop id="stop4741" style="stop-color:#ed3237" offset="0"/>
   <stop id="stop4743" style="stop-color:#ed3237;stop-opacity:0" offset="1"/>
  </radialGradient>
  <radialGradient id="radialGradient4753" xlink:href="#linearGradient4747" gradientUnits="userSpaceOnUse" cy="20.778" cx="38.616" gradientTransform="matrix(1 0 0 1.2624 0 -5.4518)" r="5.0569"/>
  <radialGradient id="radialGradient4755" xlink:href="#linearGradient4747" gradientUnits="userSpaceOnUse" cy="15.767" cx="25.15" gradientTransform="matrix(1 0 0 .84328 0 2.4711)" r="4.9038"/>
  <radialGradient id="radialGradient4757" xlink:href="#linearGradient4747" gradientUnits="userSpaceOnUse" cy="30.564" cx="24.503" gradientTransform="matrix(1 0 0 .76303 0 7.2427)" r="6.4267"/>
  <radialGradient id="radialGradient4759" xlink:href="#linearGradient4747" gradientUnits="userSpaceOnUse" cy="29.967" cx="39.494" gradientTransform="matrix(1 0 0 1.0204 0 -.61259)" r="6.0602"/>
  <radialGradient id="radialGradient4767" gradientUnits="userSpaceOnUse" cy="26.216" cx="34.816" gradientTransform="matrix(1 0 0 1.3028 0 -7.9371)" r="3.8856">
   <stop id="stop4763" style="stop-color:#e03f43" offset="0"/>
   <stop id="stop4765" style="stop-color:#e03f43;stop-opacity:0" offset="1"/>
  </radialGradient>
  <radialGradient id="radialGradient4783" gradientUnits="userSpaceOnUse" cy="16.709" cx="30.617" gradientTransform="matrix(1 0 0 .31199 0 11.496)" r="5.8205">
   <stop id="stop4779" style="stop-color:#e03f43" offset="0"/>
   <stop id="stop4781" style="stop-color:#e03f43;stop-opacity:0" offset="1"/>
  </radialGradient>
  <radialGradient id="radialGradient4791" gradientUnits="userSpaceOnUse" cy="24.721" cx="23.468" gradientTransform="matrix(1 0 0 1.5025 0 -12.422)" r="3.7073">
   <stop id="stop4787" style="stop-color:#e03f43" offset="0"/>
   <stop id="stop4789" style="stop-color:#e03f43;stop-opacity:0" offset="1"/>
  </radialGradient>
 </defs>
 <metadata id="metadata2413">
  <rdf:RDF>
   <cc:Work rdf:about="">
    <dc:format>image/svg+xml</dc:format>
    <dc:type rdf:resource="http://purl.org/dc/dcmitype/StillImage"/>
    <dc:title/>
   </cc:Work>
  </rdf:RDF>
 </metadata>
 <g id="layer2" style="display:none">
  <rect id="rect3745" style="opacity:.9;filter:url(#filter3174);fill:url(#ButtonShadow)" rx="6" ry="6" height="85" width="86" y="7" x="5"/>
 </g>
 <g id="layer3">
  <path id="path3786" style="opacity:0.08;fill:url(#linearGradient3780)" d="m12-95.031c-5.5111 0-10.031 4.5202-10.031 10.031v71c0 5.5111 4.5202 10.031 10.031 10.031h72c5.5111 0 10.031-4.5202 10.031-10.031v-71c0-5.5111-4.5202-10.031-10.031-10.031h-72z" transform="scale(1,-1)"/>
  <path id="path3778" style="opacity:.1;fill:url(#linearGradient3780)" d="m12-94.031c-4.9716 0-9.0312 4.0596-9.0312 9.0312v71c0 4.9716 4.0596 9.0312 9.0312 9.0312h72c4.9716 0 9.0312-4.0596 9.0312-9.0312v-71c0-4.9716-4.0596-9.0312-9.0312-9.0312h-72z" transform="scale(1,-1)"/>
  <path id="path3770" style="opacity:.2;fill:url(#linearGradient3780)" d="m12-93c-4.4091 0-8 3.5909-8 8v71c0 4.4091 3.5909 8 8 8h72c4.4091 0 8-3.5909 8-8v-71c0-4.4091-3.5909-8-8-8h-72z" transform="scale(1,-1)"/>
  <rect id="rect3723" style="opacity:.3;fill:url(#linearGradient3780)" transform="scale(1,-1)" rx="7" ry="7" height="85" width="86" y="-92" x="5"/>
  <rect id="rect3716" style="opacity:.45;fill:url(#linearGradient3721)" transform="scale(1,-1)" rx="6" ry="6" height="84" width="84" y="-91" x="6"/>
 </g>
 <rect id="rect2419" style="fill:url(#linearGradient3607)" rx="6" ry="6" height="84" width="84" y="6" x="6"/>
 <g id="g3707" transform="matrix(1.4783 -.16645 .16645 1.4783 1.1051 15.531)">
  <g id="g3711">
   <path id="path3713" style="fill:#e03f43" d="m33.934 26.787c3.9569-3.5777 3.1224-5.9977-2.5035-7.26 3.9126 1.9463 4.7471 4.3663 2.5035 7.26z" class="fil0"/>
   <path id="path3715" style="fill:#e03f43" d="m33.559 28.664c-3.3458 1.8077-5.5155 1.2653-6.509-1.6272 1.9564 1.6157 4.1261 2.1581 6.509 1.6272z" class="fil0"/>
   <path id="path3717" style="fill:#e03f43" d="m28.426 18.525c-4.5171 0.64598-5.6019 2.6904-3.2544 6.1334-0.20395-3.0792 0.88086-5.1237 3.2544-6.1334z" class="fil0"/>
   <path id="path3719" style="fill:url(#radialGradient4767)" d="m37.314 21.154c3.1141 7.4537 0.98622 10.792-6.3838 10.014 4.8972-1.5264 7.0252-4.8643 6.3838-10.014z" class="fil1"/>
   <path id="path3721" style="fill:url(#radialGradient4791)" d="m27.175 30.292c-8.3558-1.5359-9.6493-5.2492-3.8803-11.14-1.6669 4.1866-0.37352 7.9 3.8803 11.14z" class="fil1"/>
   <path id="path3723" style="fill:url(#radialGradient4783)" d="m36.438 18.525c-3.8601-4.6695-7.7404-4.8364-11.641-0.50068 3.871-1.499 7.7513-1.3321 11.641 0.50068z" class="fil1"/>
   <path id="path3725" style="fill:url(#radialGradient4753)" d="m39.942 27.162c6.5815-8.2031 4.4536-12.459-6.3838-12.768 5.1158 2.5525 7.2437 6.8083 6.3838 12.768z" class="fil2"/>
   <path id="path3727" style="fill:url(#radialGradient4755)" d="m20.416 19.902c-0.97193-7.7708 2.2408-10.066 9.6382-6.8844-4.5432 0.64587-7.756 2.9407-9.6382 6.8844z" class="fil2"/>
   <path id="path3729" style="fill:url(#radialGradient4757)" d="m30.93 32.67c-9.6671 5.3575-13.881 3.021-12.642-7.0096 2.1427 5.0399 6.3568 7.3765 12.642 7.0096z" class="fil2"/>
   <path id="path3747" style="fill:url(#radialGradient4591)" d="m43.252 54.364c-8.0922-1.2182-8.1409-3.3725-12.384-3.3322-2.6214 0.02488-2.4935-0.2312-4.0919-1.7494 1.1395-1.5586 1.9111-2.5696 6.6459-3.2631 6.2009 0.81822 9.1248-1.1465 12.97-4.9432 1.1234-1.723 3.1666-3.4302 6.1297-5.1215 2.0935 1.1657 1.7413 2.507-0.12769 4.6856-2.5531 2.9759-0.66067 5.511-0.89392 8.1726-1.5538 6.5001-2.6801 5.3646-8.2477 5.5512z" class="fil5"/>
   <path id="path3731" style="fill:url(#radialGradient4759)" d="m43.823 23.783c4.2079 12.029 0.7448 15.284-10.389 9.7634 4.9882-1.0023 8.4512-4.2568 10.389-9.7634z" class="fil3"/>
   <path id="path3733" style="fill:url(#radialGradient4745)" d="m10.643 27.563c0.51548 1.2264-3.7108-10.046 4.0575-13.499 2.0924-2.329 4.2612-2.6664 5.0895-1.172-2.207 4.2739-3.4588 10.115-3.7551 17.524-1.9121 1.3807-4.2998 0.36309-5.3919-2.8535z" class="fil3"/>
   <path id="path3735" style="fill:url(#radialGradient4737)" d="m25.548 7.6354c-3.481 0.64059-3.94 1.475-1.3769 2.5034 6.0824 0.7751 11.59 2.0686 16.523 3.8803 1.3284-0.83329 1.4952-1.7929 0.50068-2.879-3.9846-6.5136-9.2002-7.6819-15.646-3.5048z" class="fil3"/>
   <path id="path3737" style="fill:url(#radialGradient4721)" d="m15.909 35.799c-1.5639-1.9393-1.397-2.8155 0.50074-2.6286 4.995 4.1251 12.213 5.2934 21.655 3.5048 1.8483 0.76121 2.1404 1.7209 0.87621 2.879-10.248 9.1751-17.925 7.9234-23.032-3.7552z" class="fil4"/>
   <path id="path3739" style="fill:url(#radialGradient4729)" d="m47.953 17.148c-2.0131-3.6483-3.1813-4.2324-3.5048-1.7524 5.7974 10.087 5.3385 17.639-1.3769 22.656 1.8829 1.5083 3.4684 1.5083 4.7565 0 9.0184-5.1588 9.0601-12.127 0.12516-20.904z" class="fil4"/>
   <path id="path3741" style="fill:url(#radialGradient4595)" d="m3.7398 47.602c-2.8847-2.144-2.5411-10.002-1.9703-13.171-0.055339-7.6566 4.6229-8.0551 4.5194-8.9909 1.5917 1.7296 1.6233 3.2378 1.6599 5.6217 0.52463 6.032 2.451 8.5791 5.6115 9.4031 2.8019 1.5875 9.1625 7.5691 9.0174 10.181-1.4025 0.67986-5.1324 2.2522-10.996-1.2679z" class="fil5"/>
   <path id="path3743" style="fill:url(#radialGradient4597)" d="m4.2201 12.179c-0.1931 3.615 0.7595 4.516 2.8576 2.705 3.6703-2.045 6.7083-4.147 9.1143-6.3057 1.968-2.4654 4.524-3.702 7.669-3.7099 3.164-0.2957 5.184-1.288 6.059-2.9767-0.501-2.0671-2.102-3.2199-4.8-3.4584-5.521 0.136-9.455-0.2368-11.802-1.1186-4.7731 1.0303-7.5822 2.9833-8.4271 5.8591 0.0831 3.7786-0.1405 6.7804-0.6708 9.0052z" class="fil5"/>
   <path id="path3745" style="fill:url(#radialGradient4593)" d="m37.826 0.46305c-3.8174 0.054172-4.7771 1.0138-2.879 2.879 2.0044 1.837 4.2575 2.9635 6.7593 3.3796 4.6495 2.5943 7.3615 5.3064 8.1361 8.1362 1.5305 2.8558 3.0744 4.4413 4.6314 4.7565 1.0248-0.86933 1.6507-2.3297 1.8776-4.381-0.54355-1.9975-0.50183-4.8764 0.12516-8.6368-1.0641-2.4932-3.7344-4.621-8.011-6.3838-4.5051 0.57041-8.0516 0.65385-10.64 0.25031z" class="fil5"/>
   <path id="path3749" style="fill:#e03f43" d="m31.688 20.886c-1.9459-0.71812-3.4093-0.38695-4.3903 0.99345 1.6495-0.76632 3.1129-1.0975 4.3903-0.99345z" class="fil6"/>
   <path id="path3751" style="fill:#e03f43" d="m27.298 23.098c0.50677 2.8836 1.9489 3.2361 4.3262 1.0576-2.2187 1.5889-3.6608 1.2364-4.3262-1.0576z" class="fil6"/>
   <path id="path3753" style="fill:#e03f43" d="m32.041 22.425c1.6544 1.7795 1.366 3.1681-0.86525 4.166 1.5258-1.3082 1.8142-2.6968 0.86525-4.166z" class="fil6"/>
  </g>
 </g>
 <path id="rect3728" d="m12 6c-3.324 0-6 2.676-6 6v2 68 2c0 0.33472 0.04135 0.6507 0.09375 0.96875 0.0487 0.2956 0.09704 0.59692 0.1875 0.875 0.00988 0.03038 0.020892 0.0636 0.03125 0.09375 0.098865 0.28777 0.23488 0.54745 0.375 0.8125 0.14459 0.27351 0.31562 0.53562 0.5 0.78125 0.18438 0.24564 0.37378 0.47347 0.59375 0.6875 0.43995 0.42806 0.94291 0.81453 1.5 1.0938 0.27854 0.13961 0.57347 0.24695 0.875 0.34375-0.2562-0.10022-0.48671-0.23627-0.71875-0.375-0.00741-0.0044-0.023866 0.0045-0.03125 0-0.031933-0.0193-0.062293-0.04251-0.09375-0.0625-0.1204-0.0767-0.23102-0.16351-0.34375-0.25-0.10617-0.0808-0.21328-0.16111-0.3125-0.25-0.1778-0.162-0.3473-0.346-0.4999-0.531-0.1075-0.131-0.2183-0.266-0.3124-0.407-0.0251-0.038-0.0385-0.086-0.0626-0.125-0.0647-0.103-0.1302-0.204-0.1874-0.312-0.1011-0.195-0.2057-0.416-0.2813-0.625-0.008-0.022-0.0236-0.041-0.0313-0.063-0.0318-0.092-0.0358-0.187-0.0624-0.281-0.0304-0.107-0.0704-0.203-0.0938-0.313-0.0729-0.341-0.125-0.698-0.125-1.062v-2-68-2c0-2.782 2.2182-5 5-5h2 68 2c2.7818 0 5 2.2182 5 5v2 68 2c0 0.3643-0.05212 0.72099-0.125 1.0625-0.04415 0.20689-0.08838 0.39766-0.15625 0.59375-0.0077 0.02195-0.0233 0.04069-0.03125 0.0625-0.06274 0.17374-0.13838 0.36745-0.21875 0.53125-0.04158 0.0828-0.07904 0.16995-0.125 0.25-0.0546 0.09721-0.12677 0.18835-0.1875 0.28125-0.09411 0.14096-0.20492 0.276-0.3125 0.40625-0.14317 0.17445-0.30314 0.347-0.46875 0.5-0.01117 0.0102-0.01998 0.02115-0.03125 0.03125-0.13839 0.12556-0.28509 0.23444-0.4375 0.34375-0.10257 0.07315-0.20432 0.15336-0.3125 0.21875-0.0074 0.0045-0.02384-0.0044-0.03125 0-0.23204 0.13873-0.46255 0.27478-0.71875 0.375 0.30153-0.0968 0.59646-0.20414 0.875-0.34375 0.55709-0.27922 1.0601-0.66569 1.5-1.0938 0.21997-0.21403 0.40937-0.44186 0.59375-0.6875s0.35541-0.50774 0.5-0.78125c0.14012-0.26505 0.27614-0.52473 0.375-0.8125 0.01041-0.03078 0.02133-0.06274 0.03125-0.09375 0.09046-0.27808 0.1388-0.5794 0.1875-0.875 0.053-0.318 0.094-0.634 0.094-0.969v-2-68-2c0-3.324-2.676-6-6-6h-72z" style="opacity:.35;fill:url(#linearGradient3604)"/>
 <path id="path3615" d="m12 90c-3.324 0-6-2.676-6-6v-2-68-2c0-0.33472 0.04135-0.6507 0.09375-0.96875 0.0487-0.2956 0.09704-0.59692 0.1875-0.875 0.0099-0.03 0.0209-0.063 0.0313-0.094 0.0989-0.2873 0.2349-0.547 0.375-0.812 0.1446-0.2735 0.3156-0.5356 0.5-0.7812 0.1844-0.2457 0.3738-0.4735 0.5937-0.6876 0.44-0.428 0.943-0.8145 1.5-1.0937 0.2786-0.1396 0.5735-0.2469 0.8748-0.3437-0.256 0.1002-0.4865 0.2362-0.7185 0.375-0.00741 0.0044-0.023866-0.0045-0.03125 0-0.031933 0.0193-0.062293 0.04251-0.09375 0.0625-0.1204 0.0767-0.23102 0.16351-0.34375 0.25-0.10617 0.0808-0.21328 0.16111-0.3125 0.25-0.1779 0.1614-0.3474 0.3453-0.5 0.5312-0.1075 0.1303-0.2183 0.2653-0.3124 0.4063-0.0251 0.0383-0.0385 0.0858-0.0626 0.125-0.0647 0.103-0.1302 0.2045-0.1874 0.3124-0.1011 0.1948-0.2057 0.4158-0.2813 0.625-0.008 0.0219-0.0236 0.0406-0.0313 0.0626-0.0318 0.0919-0.0358 0.1868-0.0624 0.2812-0.0304 0.1066-0.0704 0.203-0.0938 0.3125-0.0729 0.3415-0.125 0.6985-0.125 1.0625v2 68 2c0 2.7818 2.2182 5 5 5h2 68 2c2.7818 0 5-2.2182 5-5v-2-68-2c0-0.364-0.052-0.721-0.125-1.0625-0.044-0.2069-0.088-0.3977-0.156-0.5937-0.008-0.022-0.024-0.0407-0.031-0.0626-0.063-0.1737-0.139-0.3674-0.219-0.5312-0.042-0.0828-0.079-0.17-0.125-0.25-0.055-0.0972-0.127-0.1884-0.188-0.2812-0.094-0.141-0.205-0.276-0.312-0.4063-0.143-0.1745-0.303-0.347-0.469-0.5-0.011-0.0102-0.02-0.0211-0.031-0.0313-0.139-0.1255-0.285-0.2344-0.438-0.3437-0.102-0.0731-0.204-0.1534-0.312-0.2187-0.0074-0.0045-0.02384 0.0044-0.03125 0-0.23204-0.13873-0.46255-0.27478-0.71875-0.375 0.30153 0.0968 0.59646 0.20414 0.875 0.34375 0.55709 0.27922 1.0601 0.66569 1.5 1.0938 0.21997 0.21403 0.40937 0.44186 0.59375 0.6875s0.35541 0.50774 0.5 0.78125c0.14012 0.26505 0.27614 0.52473 0.375 0.8125 0.01041 0.03078 0.02133 0.06274 0.03125 0.09375 0.09046 0.27808 0.1388 0.5794 0.1875 0.875 0.053 0.318 0.094 0.634 0.094 0.969v2 68 2c0 3.324-2.676 6-6 6h-72z" style="opacity:.2;fill:url(#radialGradient3584)"/>
 <g id="g3399" style="opacity:.15;stroke:#000;stroke-width:.67222;fill:none" transform="matrix(1.4783 -.16645 .16645 1.4783 1.1051 15.531)">
  <g id="g3403" style="stroke:#000;stroke-width:.67222;fill:none">
   <path id="path3405" d="m33.934 26.787c3.9569-3.5777 3.1224-5.9977-2.5035-7.26 3.9126 1.9463 4.7471 4.3663 2.5035 7.26z" class="fil0" style="stroke:#000;stroke-width:.67222;fill:none"/>
   <path id="path3407" d="m33.559 28.664c-3.3458 1.8077-5.5155 1.2653-6.509-1.6272 1.9564 1.6157 4.1261 2.1581 6.509 1.6272z" class="fil0" style="stroke:#000;stroke-width:.67222;fill:none"/>
   <path id="path3409" d="m28.426 18.525c-4.5171 0.64598-5.6019 2.6904-3.2544 6.1334-0.20395-3.0792 0.88086-5.1237 3.2544-6.1334z" class="fil0" style="stroke:#000;stroke-width:.67222;fill:none"/>
   <path id="path3411" d="m37.314 21.154c3.1141 7.4537 0.98622 10.792-6.3838 10.014 4.8972-1.5264 7.0252-4.8643 6.3838-10.014z" class="fil1" style="stroke:#000;stroke-width:.67222;fill:none"/>
   <path id="path3413" d="m27.175 30.292c-8.3558-1.5359-9.6493-5.2492-3.8803-11.14-1.6669 4.1866-0.37352 7.9 3.8803 11.14z" class="fil1" style="stroke:#000;stroke-width:.67222;fill:none"/>
   <path id="path3415" d="m36.438 18.525c-3.8601-4.6695-7.7404-4.8364-11.641-0.50068 3.871-1.499 7.7513-1.3321 11.641 0.50068z" class="fil1" style="stroke:#000;stroke-width:.67222;fill:none"/>
   <path id="path3417" d="m39.942 27.162c6.5815-8.2031 4.4536-12.459-6.3838-12.768 5.1158 2.5525 7.2437 6.8083 6.3838 12.768z" class="fil2" style="stroke:#000;stroke-width:.67222;fill:none"/>
   <path id="path3419" d="m20.416 19.902c-0.97193-7.7708 2.2408-10.066 9.6382-6.8844-4.5432 0.64587-7.756 2.9407-9.6382 6.8844z" class="fil2" style="stroke:#000;stroke-width:.67222;fill:none"/>
   <path id="path3421" d="m30.93 32.67c-9.6671 5.3575-13.881 3.021-12.642-7.0096 2.1427 5.0399 6.3568 7.3765 12.642 7.0096z" class="fil2" style="stroke:#000;stroke-width:.67222;fill:none"/>
   <path id="path3423" style="stroke:#000;stroke-width:.67222;fill:none" d="m43.252 54.364c-8.0922-1.2182-8.1409-3.3725-12.384-3.3322-2.6214 0.02488-2.4935-0.2312-4.0919-1.7494 1.1395-1.5586 1.9111-2.5696 6.6459-3.2631 6.2009 0.81822 9.1248-1.1465 12.97-4.9432 1.1234-1.723 3.1666-3.4302 6.1297-5.1215 2.0935 1.1657 1.7413 2.507-0.12769 4.6856-2.5531 2.9759-0.66067 5.511-0.89392 8.1726-1.5538 6.5001-2.6801 5.3646-8.2477 5.5512z" class="fil5"/>
   <path id="path3425" d="m43.823 23.783c4.2079 12.029 0.7448 15.284-10.389 9.7634 4.9882-1.0023 8.4512-4.2568 10.389-9.7634z" class="fil3" style="stroke:#000;stroke-width:.67222;fill:none"/>
   <path id="path3427" style="stroke:#000;stroke-width:.67222;fill:none" d="m10.643 27.563c0.51548 1.2264-3.7108-10.046 4.0575-13.499 2.0924-2.329 4.2612-2.6664 5.0895-1.172-2.207 4.2739-3.4588 10.115-3.7551 17.524-1.9121 1.3807-4.2998 0.36309-5.3919-2.8535z" class="fil3"/>
   <path id="path3429" d="m25.548 7.6354c-3.481 0.64059-3.94 1.475-1.3769 2.5034 6.0824 0.7751 11.59 2.0686 16.523 3.8803 1.3284-0.83329 1.4952-1.7929 0.50068-2.879-3.9846-6.5136-9.2002-7.6819-15.646-3.5048z" class="fil3" style="stroke:#000;stroke-width:.67222;fill:none"/>
   <path id="path3431" d="m15.909 35.799c-1.5639-1.9393-1.397-2.8155 0.50074-2.6286 4.995 4.1251 12.213 5.2934 21.655 3.5048 1.8483 0.76121 2.1404 1.7209 0.87621 2.879-10.248 9.1751-17.925 7.9234-23.032-3.7552z" class="fil4" style="stroke:#000;stroke-width:.67222;fill:none"/>
   <path id="path3433" d="m47.953 17.148c-2.0131-3.6483-3.1813-4.2324-3.5048-1.7524 5.7974 10.087 5.3385 17.639-1.3769 22.656 1.8829 1.5083 3.4684 1.5083 4.7565 0 9.0184-5.1588 9.0601-12.127 0.12516-20.904z" class="fil4" style="stroke:#000;stroke-width:.67222;fill:none"/>
   <path id="path3435" style="stroke:#000;stroke-width:.67222;fill:none" d="m3.7398 47.602c-2.8847-2.144-2.5411-10.002-1.9703-13.171-0.055339-7.6566 4.6229-8.0551 4.5194-8.9909 1.5917 1.7296 1.6233 3.2378 1.6599 5.6217 0.52463 6.032 2.451 8.5791 5.6115 9.4031 2.8019 1.5875 9.1625 7.5691 9.0174 10.181-1.4025 0.67986-5.1324 2.2522-10.996-1.2679z" class="fil5"/>
   <path id="path3437" d="m4.2201 12.179c-0.1931 3.615 0.7595 4.516 2.8576 2.705 3.6703-2.045 6.7083-4.147 9.1143-6.3057 1.968-2.4654 4.524-3.702 7.669-3.7099 3.164-0.2957 5.184-1.288 6.059-2.9767-0.501-2.0671-2.102-3.2199-4.8-3.4584-5.521 0.136-9.455-0.2368-11.802-1.1186-4.7731 1.0303-7.5822 2.9833-8.4271 5.8591 0.0831 3.7786-0.1405 6.7804-0.6708 9.0052z" class="fil5" style="stroke:#000;stroke-width:.67222;fill:none"/>
   <path id="path3439" d="m37.826 0.46305c-3.8174 0.054172-4.7771 1.0138-2.879 2.879 2.0044 1.837 4.2575 2.9635 6.7593 3.3796 4.6495 2.5943 7.3615 5.3064 8.1361 8.1362 1.5305 2.8558 3.0744 4.4413 4.6314 4.7565 1.0248-0.86933 1.6507-2.3297 1.8776-4.381-0.54355-1.9975-0.50183-4.8764 0.12516-8.6368-1.0641-2.4932-3.7344-4.621-8.011-6.3838-4.5051 0.57041-8.0516 0.65385-10.64 0.25031z" class="fil5" style="stroke:#000;stroke-width:.67222;fill:none"/>
   <path id="path3441" d="m31.688 20.886c-1.9459-0.71812-3.4093-0.38695-4.3903 0.99345 1.6495-0.76632 3.1129-1.0975 4.3903-0.99345z" class="fil6" style="stroke:#000;stroke-width:.67222;fill:none"/>
   <path id="path3443" d="m27.298 23.098c0.50677 2.8836 1.9489 3.2361 4.3262 1.0576-2.2187 1.5889-3.6608 1.2364-4.3262-1.0576z" class="fil6" style="stroke:#000;stroke-width:.67222;fill:none"/>
   <path id="path3445" d="m32.041 22.425c1.6544 1.7795 1.366 3.1681-0.86525 4.166 1.5258-1.3082 1.8142-2.6968 0.86525-4.166z" class="fil6" style="stroke:#000;stroke-width:.67222;fill:none"/>
  </g>
 </g>
</svg>
