<?xml version="1.0" encoding="UTF-8" standalone="no"?>
<!-- Created with Inkscape (http://www.inkscape.org/) -->
<svg id="svg2408" xmlns:rdf="http://www.w3.org/1999/02/22-rdf-syntax-ns#" xmlns="http://www.w3.org/2000/svg" height="96" width="96" version="1.0" xmlns:cc="http://creativecommons.org/ns#" xmlns:xlink="http://www.w3.org/1999/xlink" xmlns:dc="http://purl.org/dc/elements/1.1/">
 <defs id="defs2410">
  <linearGradient id="ButtonShadow" y2="7.0165" gradientUnits="userSpaceOnUse" x2="45.448" gradientTransform="scale(1.0059 .99417)" y1="92.54" x1="45.448">
   <stop id="stop3750" offset="0"/>
   <stop id="stop3752" style="stop-opacity:.58824" offset="1"/>
  </linearGradient>
  <filter id="filter3174" color-interpolation-filters="sRGB">
   <feGaussianBlur id="feGaussianBlur3176" stdDeviation="1.71"/>
  </filter>
  <linearGradient id="linearGradient8478" y2="138.66" gradientUnits="userSpaceOnUse" x2="48" y1="20.221" x1="48">
   <stop id="stop3739-00" style="stop-color:#fff" offset="0"/>
   <stop id="stop3741-66" style="stop-color:#fff;stop-opacity:0" offset="1"/>
  </linearGradient>
  <filter id="filter3174-9" color-interpolation-filters="sRGB">
   <feGaussianBlur id="feGaussianBlur3176-8" stdDeviation="1.71"/>
  </filter>
  <filter id="filter3794-71" height="1.384" width="1.384" color-interpolation-filters="sRGB" y="-.192" x="-.192">
   <feGaussianBlur id="feGaussianBlur3796-90" stdDeviation="5.28"/>
  </filter>
  <clipPath id="clipPath3613-01">
   <rect id="rect3615-422" style="fill:#fff" rx="6" ry="6" height="84" width="84" y="6" x="6"/>
  </clipPath>
  <filter id="filter3174-28" color-interpolation-filters="sRGB">
   <feGaussianBlur id="feGaussianBlur3176-3" stdDeviation="1.71"/>
  </filter>
  <filter id="filter3174-1" color-interpolation-filters="sRGB">
   <feGaussianBlur id="feGaussianBlur3176-1" stdDeviation="1.71"/>
  </filter>
  <filter id="filter3174-0" color-interpolation-filters="sRGB">
   <feGaussianBlur id="feGaussianBlur3176-34" stdDeviation="1.71"/>
  </filter>
  <filter id="filter3174-0-6" color-interpolation-filters="sRGB">
   <feGaussianBlur id="feGaussianBlur3176-34-9" stdDeviation="1.71"/>
  </filter>
  <filter id="filter3174-1-0" color-interpolation-filters="sRGB">
   <feGaussianBlur id="feGaussianBlur3176-1-6" stdDeviation="1.71"/>
  </filter>
  <filter id="filter3174-28-9" color-interpolation-filters="sRGB">
   <feGaussianBlur id="feGaussianBlur3176-3-7" stdDeviation="1.71"/>
  </filter>
  <clipPath id="clipPath3613-01-0">
   <rect id="rect3615-422-5" style="fill:#fff" rx="6" ry="6" height="84" width="84" y="6" x="6"/>
  </clipPath>
  <filter id="filter3794-71-2" height="1.384" width="1.384" color-interpolation-filters="sRGB" y="-.192" x="-.192">
   <feGaussianBlur id="feGaussianBlur3796-90-1" stdDeviation="5.28"/>
  </filter>
  <filter id="filter3174-9-1" color-interpolation-filters="sRGB">
   <feGaussianBlur id="feGaussianBlur3176-8-6" stdDeviation="1.71"/>
  </filter>
  <filter id="filter3174-8" color-interpolation-filters="sRGB">
   <feGaussianBlur id="feGaussianBlur3176-95" stdDeviation="1.71"/>
  </filter>
  <filter id="filter3174-4" color-interpolation-filters="sRGB">
   <feGaussianBlur id="feGaussianBlur3176-0" stdDeviation="1.71"/>
  </filter>
  <radialGradient id="radialGradient4606" gradientUnits="userSpaceOnUse" cy="27.688" cx="51.562" gradientTransform="matrix(1.4375 0 0 .46417 -26.905 17.251)" r="14.688">
   <stop id="stop4467" style="stop-color:#d9cfc5" offset="0"/>
   <stop id="stop4469" style="stop-color:#d9cfc5;stop-opacity:0" offset="1"/>
  </radialGradient>
  <radialGradient id="radialGradient4603" xlink:href="#linearGradient4381" gradientUnits="userSpaceOnUse" cy="51.125" cx="18.312" gradientTransform="matrix(1.2809 .086409 -.27295 2.3984 34.527 -51.747)" r="2.9375"/>
  <radialGradient id="radialGradient4601" xlink:href="#linearGradient4381" gradientUnits="userSpaceOnUse" cy="51.125" cx="18.312" gradientTransform="matrix(1.4694 .092483 .25380 2.567 5.9715 -59.754)" r="2.9375"/>
  <radialGradient id="radialGradient4599" xlink:href="#linearGradient4381" gradientUnits="userSpaceOnUse" cy="51.125" cx="18.312" gradientTransform="matrix(1.4694 .092483 .25380 2.567 8.6929 -60.253)" r="2.9375"/>
  <radialGradient id="radialGradient4597" xlink:href="#linearGradient4381" gradientUnits="userSpaceOnUse" cy="31.812" cx="17.812" gradientTransform="matrix(-0.323 .40425 1.8075 .42353 13.202 -1.8)" r="6.0625"/>
  <radialGradient id="radialGradient4595" xlink:href="#linearGradient4381" gradientUnits="userSpaceOnUse" cy="31.812" cx="17.812" gradientTransform="matrix(-.58934 0 0 .87452 91.437 -.39440)" r="6.0625"/>
  <radialGradient id="radialGradient4593" xlink:href="#linearGradient4381" gradientUnits="userSpaceOnUse" cy="31.812" cx="17.812" gradientTransform="matrix(-.28388 .98031 1.8395 .58912 21.595 -13.101)" r="6.0625"/>
  <radialGradient id="radialGradient4591" xlink:href="#linearGradient4381" gradientUnits="userSpaceOnUse" cy="31.812" cx="17.812" gradientTransform="matrix(-1.0477 0 0 .77264 96.369 3.4645)" r="6.0625"/>
  <radialGradient id="radialGradient4589" xlink:href="#linearGradient4381" gradientUnits="userSpaceOnUse" cy="51.125" cx="18.312" gradientTransform="matrix(.43129 -1.1904 3.5361 2.181 -162.58 -25.92)" r="2.9375"/>
  <radialGradient id="radialGradient4587" xlink:href="#linearGradient4381" gradientUnits="userSpaceOnUse" cy="51.125" cx="18.312" gradientTransform="matrix(.43129 -1.1904 3.5361 2.181 -162.71 -28.672)" r="2.9375"/>
  <radialGradient id="radialGradient4585" xlink:href="#linearGradient4381" gradientUnits="userSpaceOnUse" cy="51.125" cx="18.312" gradientTransform="matrix(1.2148 -.086611 .57501 4.7714 -32.688 -193.64)" r="2.9375"/>
  <radialGradient id="radialGradient4583" xlink:href="#linearGradient4381" gradientUnits="userSpaceOnUse" cy="31.812" cx="17.812" gradientTransform="matrix(.30930 1.0242 -2.0042 .61552 76.621 -14.413)" r="6.0625"/>
  <radialGradient id="radialGradient4581" xlink:href="#linearGradient9937" gradientUnits="userSpaceOnUse" cy="96.932" cx="137.81" gradientTransform="matrix(.31218 0 0 .27004 27.349 9.4806)" r="2.4749"/>
  <radialGradient id="radialGradient4579" xlink:href="#linearGradient9937" gradientUnits="userSpaceOnUse" cy="97.404" cx="137.81" gradientTransform="matrix(.31218 0 0 .27004 27.609 6.2949)" r="2.4749"/>
  <radialGradient id="radialGradient4577" xlink:href="#linearGradient9937" gradientUnits="userSpaceOnUse" cy="97.404" cx="137.4" gradientTransform="matrix(.31218 0 0 .27004 27.739 3.364)" r="2.4749"/>
  <radialGradient id="radialGradient4575" xlink:href="#linearGradient9479" gradientUnits="userSpaceOnUse" cy="45.25" cx="279.25" gradientTransform="matrix(.39032 0.135 -.078830 .065922 -66.476 -6.4789)" r="11.25"/>
  <radialGradient id="radialGradient4573" xlink:href="#linearGradient9937" gradientUnits="userSpaceOnUse" cy="97.404" cx="139.48" gradientTransform="matrix(.31122 -.023918 .021509 .26921 -34.381 8.174)" r="2.4749"/>
  <radialGradient id="radialGradient4571" xlink:href="#linearGradient9937" gradientUnits="userSpaceOnUse" cy="97.404" cx="139.48" gradientTransform="matrix(.31122 -.023918 .021509 .26921 -34.033 11.226)" r="2.4749"/>
  <radialGradient id="radialGradient4569" xlink:href="#linearGradient9937" gradientUnits="userSpaceOnUse" cy="97.404" cx="139.48" gradientTransform="matrix(.31122 -.023918 .021509 .26921 -33.832 13.741)" r="2.4749"/>
  <radialGradient id="radialGradient4567" xlink:href="#linearGradient9937" gradientUnits="userSpaceOnUse" cy="97.404" cx="139.48" gradientTransform="matrix(.31122 -.023918 .021509 .26921 -33.394 16.668)" r="2.4749"/>
  <radialGradient id="radialGradient4565" xlink:href="#linearGradient9937" gradientUnits="userSpaceOnUse" cy="97.404" cx="139.48" gradientTransform="matrix(.31122 -.023918 .021509 .26921 -33.147 18.942)" r="2.4749"/>
  <radialGradient id="radialGradient4563" xlink:href="#linearGradient9937" gradientUnits="userSpaceOnUse" cy="97.404" cx="139.48" gradientTransform="matrix(.31122 -.023918 .021509 .26921 -32.734 21.547)" r="2.4749"/>
  <radialGradient id="radialGradient4561" xlink:href="#linearGradient9937" gradientUnits="userSpaceOnUse" cy="97.404" cx="139.48" gradientTransform="matrix(.31122 -.023918 .021509 .26921 -32.273 24.19)" r="2.4749"/>
  <radialGradient id="radialGradient4559" xlink:href="#linearGradient9937" gradientUnits="userSpaceOnUse" cy="97.404" cx="139.48" gradientTransform="matrix(.30668 -.057187 .051426 .26528 -33.949 31.948)" r="2.4749"/>
  <radialGradient id="radialGradient4557" xlink:href="#linearGradient9937" gradientUnits="userSpaceOnUse" cy="97.404" cx="139.48" gradientTransform="matrix(.30668 -.057187 .051426 .26528 -33.185 35.252)" r="2.4749"/>
  <radialGradient id="radialGradient4555" xlink:href="#linearGradient9937" gradientUnits="userSpaceOnUse" cy="97.404" cx="139.48" gradientTransform="matrix(.30668 -.057187 .051426 .26528 -32.456 38.051)" r="2.4749"/>
  <radialGradient id="radialGradient4553" xlink:href="#linearGradient4381" gradientUnits="userSpaceOnUse" cy="51.125" cx="18.312" gradientTransform="matrix(1.2148 -.086611 .57501 4.7714 -34.491 -192.15)" r="2.9375"/>
  <radialGradient id="radialGradient4551" xlink:href="#linearGradient9937" gradientUnits="userSpaceOnUse" cy="97.404" cx="139.48" gradientTransform="matrix(.30668 -.057187 .051426 .26528 -31.975 40.53)" r="2.4749"/>
  <radialGradient id="radialGradient4549" xlink:href="#linearGradient9937" gradientUnits="userSpaceOnUse" cy="97.404" cx="139.48" gradientTransform="matrix(.30668 -.057187 .051426 .26528 -31.392 43.54)" r="2.4749"/>
  <radialGradient id="radialGradient4547" xlink:href="#linearGradient9937" gradientUnits="userSpaceOnUse" cy="97.404" cx="139.48" gradientTransform="matrix(.31218 0 0 .27004 6.5729 56.523)" r="2.4749"/>
  <radialGradient id="radialGradient4545" xlink:href="#linearGradient9937" gradientUnits="userSpaceOnUse" cy="97.404" cx="139.48" gradientTransform="matrix(.31218 0 0 .27004 6.5729 52.919)" r="2.4749"/>
  <radialGradient id="radialGradient4543" xlink:href="#linearGradient9937" gradientUnits="userSpaceOnUse" cy="97.404" cx="139.48" gradientTransform="matrix(.31218 0 0 .27004 1.428 56.523)" r="2.4749"/>
  <radialGradient id="radialGradient4541" xlink:href="#linearGradient9937" gradientUnits="userSpaceOnUse" cy="97.404" cx="139.48" gradientTransform="matrix(.31218 0 0 .27004 1.428 52.919)" r="2.4749"/>
  <radialGradient id="radialGradient4539" xlink:href="#linearGradient9937" gradientUnits="userSpaceOnUse" cy="97.404" cx="139.48" gradientTransform="matrix(-.31161 .018491 .016628 .26954 98.268 34.729)" r="2.4749"/>
  <radialGradient id="radialGradient4537" xlink:href="#linearGradient9937" gradientUnits="userSpaceOnUse" cy="97.404" cx="139.48" gradientTransform="matrix(-.31161 .018491 .016628 .26954 98.262 37.618)" r="2.4749"/>
  <radialGradient id="radialGradient4535" xlink:href="#linearGradient9937" gradientUnits="userSpaceOnUse" cy="97.404" cx="139.48" gradientTransform="matrix(-.31161 .018491 .016628 .26954 98.417 40.136)" r="2.4749"/>
  <radialGradient id="radialGradient4533" xlink:href="#linearGradient9937" gradientUnits="userSpaceOnUse" cy="97.404" cx="139.48" gradientTransform="matrix(-.31161 .018491 .016628 .26954 98.606 43.194)" r="2.4749"/>
  <radialGradient id="radialGradient4531" xlink:href="#linearGradient9937" gradientUnits="userSpaceOnUse" cy="97.404" cx="139.48" gradientTransform="matrix(.31218 0 0 .27004 -6.1055 37.06)" r="2.4749"/>
  <radialGradient id="radialGradient4529" xlink:href="#linearGradient9937" gradientUnits="userSpaceOnUse" cy="97.404" cx="139.48" gradientTransform="matrix(.31218 0 0 .27004 -5.9218 39.943)" r="2.4749"/>
  <radialGradient id="radialGradient4527" xlink:href="#linearGradient9937" gradientUnits="userSpaceOnUse" cy="97.404" cx="139.48" gradientTransform="matrix(.31218 0 0 .27004 -5.9218 42.466)" r="2.4749"/>
  <radialGradient id="radialGradient4525" xlink:href="#linearGradient9937" gradientUnits="userSpaceOnUse" cy="97.404" cx="139.48" gradientTransform="matrix(.31218 0 0 .27004 -5.9218 45.53)" r="2.4749"/>
  <linearGradient id="linearGradient4523" y2="81.75" xlink:href="#linearGradient9871" gradientUnits="userSpaceOnUse" x2="44.5" gradientTransform="matrix(-.21156 .99810 -2.5869 -.52744 278.4 35.435)" y1="77.25" x1="44"/>
  <radialGradient id="radialGradient4521" xlink:href="#linearGradient4381" gradientUnits="userSpaceOnUse" cy="31.812" cx="17.812" gradientTransform="matrix(.67509 0 0 1.0825 0.24 -7.0098)" r="6.0625"/>
  <linearGradient id="linearGradient4519" y2="81.75" xlink:href="#linearGradient9871" gradientUnits="userSpaceOnUse" x2="44.5" gradientTransform="translate(1.125)" y1="77.25" x1="44"/>
  <linearGradient id="linearGradient4517" y2="37.461" xlink:href="#linearGradient9656" gradientUnits="userSpaceOnUse" x2="443.5" y1="1.6012" x1="446.04"/>
  <linearGradient id="linearGradient4515" y2="65.241" gradientUnits="userSpaceOnUse" x2="443.5" y1="1.6012" x1="446.04">
   <stop id="stop10228" style="stop-color:#f7f7f7" offset="0"/>
   <stop id="stop10230" style="stop-color:#1b40ff" offset="1"/>
  </linearGradient>
  <linearGradient id="linearGradient4513" y2="65.241" xlink:href="#linearGradient9656" gradientUnits="userSpaceOnUse" x2="443.5" y1="1.6012" x1="446.04"/>
  <radialGradient id="radialGradient4511" xlink:href="#linearGradient9479" gradientUnits="userSpaceOnUse" cy="45.25" cx="279.25" gradientTransform="matrix(.41156 .098632 -.061175 .18839 -65.672 .17480)" r="11.25"/>
  <linearGradient id="linearGradient4509" y2="69.516" xlink:href="#linearGradient9467" gradientUnits="userSpaceOnUse" x2="373.52" gradientTransform="matrix(.53589 0 0 .53982 -161.18 17.641)" y1="74.266" x1="371.25"/>
  <linearGradient id="linearGradient4507" y2="68.516" xlink:href="#linearGradient9467" gradientUnits="userSpaceOnUse" x2="405.52" gradientTransform="matrix(.51556 0 0 .52953 -151.71 17.713)" y1="75.766" x1="409.25"/>
  <radialGradient id="radialGradient4505" xlink:href="#linearGradient9937" gradientUnits="userSpaceOnUse" cy="96.932" cx="137.81" gradientTransform="matrix(.31218 0 0 .27004 16.876 2.8127)" r="2.4749"/>
  <linearGradient id="linearGradient4503" y2="26.516" gradientUnits="userSpaceOnUse" x2="389.52" gradientTransform="matrix(.53589 0 0 .53982 -160.92 17.656)" y1="61.266" x1="391.25">
   <stop id="stop9445" style="stop-color:#a5230e" offset="0"/>
   <stop id="stop9447" style="stop-color:#e8aa27" offset="1"/>
  </linearGradient>
  <linearGradient id="linearGradient4501" y2="38.375" gradientUnits="userSpaceOnUse" x2="451.71" gradientTransform="matrix(.53589 0 0 .53982 -178.07 23.729)" y1="35.375" x1="445.75">
   <stop id="stop9457" style="stop-color:#631a00" offset="0"/>
   <stop id="stop9459" style="stop-color:#ff5b20" offset="1"/>
  </linearGradient>
  <radialGradient id="radialGradient4499" xlink:href="#linearGradient9937" gradientUnits="userSpaceOnUse" cy="97.404" cx="137.81" gradientTransform="matrix(.31218 0 0 .27004 17.136 -.37301)" r="2.4749"/>
  <radialGradient id="radialGradient4497" gradientUnits="userSpaceOnUse" cy="48.977" cx="163.87" gradientTransform="matrix(.69730 0 0 .45593 -67.002 15.777)" r="35.179">
   <stop id="stop9563" style="stop-color:#e7ce5c" offset="0"/>
   <stop id="stop9565" style="stop-color:#e7ce5c;stop-opacity:0" offset="1"/>
  </radialGradient>
  <radialGradient id="radialGradient4495" xlink:href="#linearGradient4381" gradientUnits="userSpaceOnUse" cy="31.812" cx="17.812" gradientTransform="matrix(1.2002 0 0 .95638 -5.4098 -2.2332)" r="6.0625"/>
  <radialGradient id="radialGradient4493" gradientUnits="userSpaceOnUse" cy="48.977" cx="163.87" gradientTransform="matrix(.61112 0 0 .37140 -51.26 32.081)" r="35.179">
   <stop id="stop9583" style="stop-color:#e11f00" offset="0"/>
   <stop id="stop9585" style="stop-color:#e11f00;stop-opacity:0" offset="1"/>
  </radialGradient>
  <radialGradient id="radialGradient4491" xlink:href="#linearGradient9937" gradientUnits="userSpaceOnUse" cy="97.404" cx="137.4" gradientTransform="matrix(.31218 0 0 .27004 17.265 -3.3039)" r="2.4749"/>
  <linearGradient id="linearGradient4489" y2="35.933" gradientUnits="userSpaceOnUse" x2="57.851" gradientTransform="matrix(.98220 0 0 .95714 -.69442 3.7754)" y1="47.954" x1="56.956">
   <stop id="stop9189" style="stop-color:#413b31" offset="0"/>
   <stop id="stop9191" style="stop-color:#544c40" offset="1"/>
  </linearGradient>
  <linearGradient id="linearGradient4487" y2="-18.524" gradientUnits="userSpaceOnUse" x2="220.33" gradientTransform="matrix(.48595 0 0 .45590 -80.95 30.404)" y1="11.597" x1="249.94">
   <stop id="stop9181" style="stop-color:#322d26" offset="0"/>
   <stop id="stop9183" style="stop-color:#1c1813" offset="1"/>
  </linearGradient>
  <linearGradient id="linearGradient4485" y2="131.41" xlink:href="#linearGradient9233" gradientUnits="userSpaceOnUse" x2="221.03" gradientTransform="matrix(.48294 0 0 .45537 -47.912 11.116)" y1="144.65" x1="230.15"/>
  <linearGradient id="linearGradient4483" y2="130.23" xlink:href="#linearGradient9233" gradientUnits="userSpaceOnUse" x2="162.03" gradientTransform="matrix(.48130 0 0 .45590 -47.722 11.028)" y1="139.73" x1="155.93"/>
  <linearGradient id="linearGradient4481" y2="84.71" xlink:href="#linearGradient14142" gradientUnits="userSpaceOnUse" x2="173.26" gradientTransform="matrix(1.0665 0 0 1.0562 -144.5 -.34871)" y1="87.748" x1="173.2"/>
  <linearGradient id="linearGradient4479" y2="7.3856" xlink:href="#linearGradient14142" gradientUnits="userSpaceOnUse" x2="158.58" gradientTransform="matrix(1.0665 0 0 1.0215 -144.5 -.22334)" y1="3.8501" x1="158.53"/>
  <linearGradient id="linearGradient4477" y2="-44.5" gradientUnits="userSpaceOnUse" x2="47" gradientTransform="matrix(1.0665 0 0 -1.0603 -3.1877 -4.3395)" y1="-91.5" x1="46.5">
   <stop id="stop14158" style="stop-color:#5f564f" offset="0"/>
   <stop id="stop14160" style="stop-color:#9a9085" offset="1"/>
  </linearGradient>
  <filter id="filter9887" height="1.0253" width="1.6327" color-interpolation-filters="sRGB" y="-.012654" x="-.31635">
   <feGaussianBlur id="feGaussianBlur9889" stdDeviation="0.03295283"/>
  </filter>
  <filter id="filter9511" color-interpolation-filters="sRGB">
   <feGaussianBlur id="feGaussianBlur9513" stdDeviation="0.075342261"/>
  </filter>
  <clipPath id="clipPath3613">
   <rect id="rect3615" style="fill:#fff" rx="6" ry="6" height="84" width="84" y="6" x="6"/>
  </clipPath>
  <filter id="filter3794" height="1.384" width="1.384" color-interpolation-filters="sRGB" y="-.192" x="-.192">
   <feGaussianBlur id="feGaussianBlur3796" stdDeviation="5.28"/>
  </filter>
  <filter id="filter3174-93" color-interpolation-filters="sRGB">
   <feGaussianBlur id="feGaussianBlur3176-7" stdDeviation="1.71"/>
  </filter>
  <linearGradient id="linearGradient9233">
   <stop id="stop9235" offset="0"/>
   <stop id="stop9237" style="stop-opacity:0" offset="1"/>
  </linearGradient>
  <linearGradient id="linearGradient9467">
   <stop id="stop9469" style="stop-color:#160402" offset="0"/>
   <stop id="stop9471" style="stop-color:#1a1202;stop-opacity:0" offset="1"/>
  </linearGradient>
  <linearGradient id="linearGradient9479">
   <stop id="stop9481" style="stop-color:#fff" offset="0"/>
   <stop id="stop9483" style="stop-color:#fff;stop-opacity:0" offset="1"/>
  </linearGradient>
  <linearGradient id="linearGradient9656">
   <stop id="stop9658" style="stop-color:#f7f7f7" offset="0"/>
   <stop id="stop9660" style="stop-color:#3d5cff" offset="1"/>
  </linearGradient>
  <linearGradient id="linearGradient9871">
   <stop id="stop9873" style="stop-color:#e3e3e3" offset="0"/>
   <stop id="stop9875" style="stop-color:#e3e3e3;stop-opacity:0" offset="1"/>
  </linearGradient>
  <linearGradient id="linearGradient9937">
   <stop id="stop9939" style="stop-color:#fff" offset="0"/>
   <stop id="stop9941" style="stop-color:#0f0d0b" offset="1"/>
  </linearGradient>
  <linearGradient id="linearGradient14142">
   <stop id="stop14144" style="stop-color:#fefefe" offset="0"/>
   <stop id="stop14146" style="stop-color:#fefefe;stop-opacity:0" offset="1"/>
  </linearGradient>
  <linearGradient id="linearGradient4381">
   <stop id="stop4383" style="stop-color:#d9cfc5" offset="0"/>
   <stop id="stop4385" style="stop-color:#d9cfc5;stop-opacity:0" offset="1"/>
  </linearGradient>
 </defs>
 <metadata id="metadata2413">
  <rdf:RDF>
   <cc:Work rdf:about="">
    <dc:format>image/svg+xml</dc:format>
    <dc:type rdf:resource="http://purl.org/dc/dcmitype/StillImage"/>
    <dc:title/>
   </cc:Work>
  </rdf:RDF>
 </metadata>
 <g id="layer2" style="display:none">
  <rect id="rect3745" style="opacity:.9;filter:url(#filter3174);fill:url(#ButtonShadow)" rx="6" ry="6" height="85" width="86" y="7" x="5"/>
 </g>
 <g id="layer2-6" style="display:none" transform="translate(115.54 .85219)">
  <rect id="rect3745-02" style="opacity:.9;filter:url(#filter3174-0);fill:url(#ButtonShadow)" rx="6" ry="6" height="85" width="86" y="7" x="5"/>
 </g>
 <g id="layer2-7" style="display:none" transform="translate(235.43 .85219)">
  <rect id="rect3745-0" style="opacity:.9;filter:url(#filter3174-9);fill:url(#ButtonShadow)" rx="6" ry="6" height="85" width="86" y="7" x="5"/>
 </g>
 <g id="layer2-9" style="display:none" transform="matrix(.95833 0 0 .94792 252.01 5.1359)">
  <rect id="rect3745-3" style="opacity:.9;filter:url(#filter3174-1);fill:url(#ButtonShadow)" rx="6" ry="6" height="85" width="86" y="7" x="5"/>
 </g>
 <g id="layer2-20" style="display:none" transform="matrix(1.0222 0 0 1.0111 248.67 2.1302)">
  <rect id="rect3745-64" style="opacity:.9;filter:url(#filter3174-28);fill:url(#ButtonShadow)" rx="6" ry="6" height="85" width="86" y="7" x="5"/>
 </g>
 <g id="layer5-35" style="display:none" transform="matrix(1.0222 0 0 1.0111 248.67 2.1302)">
  <rect id="rect3171-20" style="opacity:.1;filter:url(#filter3794-71);stroke:#fff;stroke-linecap:round;stroke-width:.5;fill:url(#linearGradient8478)" clip-path="url(#clipPath3613-01)" rx="12" ry="12" height="66" width="66" y="15" x="15"/>
 </g>
 <g id="layer2-92" style="display:none" transform="translate(126.96 -5.7242)">
  <rect id="rect3745-31" style="opacity:.9;filter:url(#filter3174-8);fill:url(#ButtonShadow)" rx="6" ry="6" height="85" width="86" y="7" x="5"/>
 </g>
 <g id="layer2-6-8" style="display:none" transform="translate(242.5 -4.8721)">
  <rect id="rect3745-02-7" style="opacity:.9;filter:url(#filter3174-0-6);fill:url(#ButtonShadow)" rx="6" ry="6" height="85" width="86" y="7" x="5"/>
 </g>
 <g id="layer2-7-6" style="display:none" transform="translate(362.39 -4.8721)">
  <rect id="rect3745-0-3" style="opacity:.9;filter:url(#filter3174-9-1);fill:url(#ButtonShadow)" rx="6" ry="6" height="85" width="86" y="7" x="5"/>
 </g>
 <g id="layer2-9-8" style="display:none" transform="matrix(.95833 0 0 .94792 378.97 -.58833)">
  <rect id="rect3745-3-5" style="opacity:.9;filter:url(#filter3174-1-0);fill:url(#ButtonShadow)" rx="6" ry="6" height="85" width="86" y="7" x="5"/>
 </g>
 <g id="layer2-20-5" style="display:none" transform="matrix(1.0222 0 0 1.0111 375.63 -3.594)">
  <rect id="rect3745-64-0" style="opacity:.9;filter:url(#filter3174-28-9);fill:url(#ButtonShadow)" rx="6" ry="6" height="85" width="86" y="7" x="5"/>
 </g>
 <g id="layer5-35-1" style="display:none" transform="matrix(1.0222 0 0 1.0111 375.63 -3.594)">
  <rect id="rect3171-20-2" style="opacity:.1;filter:url(#filter3794-71-2);stroke:#fff;stroke-linecap:round;stroke-width:.5;fill:url(#linearGradient8478)" clip-path="url(#clipPath3613-01-0)" rx="12" ry="12" height="66" width="66" y="15" x="15"/>
 </g>
 <g id="layer2-8" style="display:none" transform="translate(124.25 -23.161)">
  <rect id="rect3745-6" style="opacity:.9;filter:url(#filter3174-4);fill:url(#ButtonShadow)" rx="6" ry="6" height="85" width="86" y="7" x="5"/>
 </g>
 <g id="g35442" transform="matrix(.95833 0 0 .94792 1.9367 4.0292)">
  <g id="layer2-2" style="display:none">
   <rect id="rect3745-35" style="opacity:.9;filter:url(#filter3174-93);fill:url(#ButtonShadow)" rx="6" ry="6" height="85" width="86" y="7" x="5"/>
  </g>
  <g id="layer5" style="display:none">
   <rect id="rect3171" style="opacity:.1;filter:url(#filter3794);stroke:#fff;stroke-linecap:round;stroke-width:.5;fill:url(#linearGradient8478)" clip-path="url(#clipPath3613)" rx="12" ry="12" height="66" width="66" y="15" x="15"/>
  </g>
  <g id="g4397" transform="matrix(1.0094 0 0 1.0354 -.48025 -2.7456)">
   <path id="path4506" style="opacity:.11765" d="m7.3241 2.2989c-3.7634 0-6.7931 2.9609-6.7931 6.6388v70.261h2.5474v-4.0455c0-0.62757 0.32481-1.141 0.70762-1.141h7.8546c0.3828 0 0.67224 0.51347 0.67224 1.141v5.3595h3.3966c0.25521 0 0.45995 0.31773 0.45995 0.72612v4.1493c0 0.4084-0.20474 0.72612-0.45995 0.72612h-5.2364c-0.25521 0-0.45995-0.31773-0.45995-0.72612v-2.7662h-4.1042v2.5241c0 0.49791-0.27068 0.899-0.60148 0.899h-4.7764v2.5587c0 3.6779 3.0297 6.6388 6.7931 6.6388h81.518c3.7634 0 6.7931-2.9609 6.7931-6.6388v-12.171h-3.6442c-0.25521 0-0.45995-0.31772-0.45995-0.72612v-4.1493c0-0.4084 0.20474-0.72612 0.45995-0.72612h3.6442v-61.893c0-3.6779-3.0297-6.6388-6.7931-6.6388h-9.8359v4.9445h4.6349c0.31595 0 0.5661 0.41495 0.5661 0.93358v5.2211c0 0.51863-0.25015 0.93358-0.5661 0.93358h-6.4747c-0.31595 0-0.5661-0.41495-0.5661-0.93358v-3.1465h-6.4393v1.556c0 0.29973-0.13823 0.55324-0.31843 0.55324h-3.715c-0.1802 0-0.31843-0.2535-0.31843-0.55324v-3.0082c0-0.29973 0.13823-0.55323 0.31843-0.55323h2.229v-5.9473h-61.032zm76.175 68.532h5.2364c0.25521 0 0.45995 0.31773 0.45995 0.72612v4.1493c0 0.40839-0.20474 0.72612-0.45995 0.72612h-5.2364c-0.25521 0-0.45995-0.31772-0.45995-0.72612v-4.1493c0-0.4084 0.20475-0.72612 0.45995-0.72612zm0 8.0219h5.2364c0.25521 0 0.45995 0.31773 0.45995 0.72612v4.1493c0 0.4084-0.20474 0.72612-0.45995 0.72612h-5.2364c-0.25521 0-0.45995-0.31773-0.45995-0.72612v-4.1493c0-0.4084 0.20475-0.72612 0.45995-0.72612z"/>
   <path id="path4504" style="opacity:.043860" d="m7.8466 3.217c-3.7168 0-6.709 2.9176-6.709 6.5418v69.234h2.5159v-3.9864c0-0.6184 0.32079-1.1244 0.69885-1.1244h7.7573c0.37806 0 0.66391 0.50597 0.66391 1.1244v5.2811h3.3545c0.25205 0 0.45426 0.31308 0.45426 0.71551v4.0886c0 0.40243-0.20221 0.71551-0.45426 0.71551h-5.1715c-0.25205 0-0.45425-0.31308-0.45425-0.71551v-2.7257h-4.0534v2.4872c0 0.49063-0.26732 0.88586-0.59403 0.88586h-4.7173v2.5213c0 3.6241 2.9922 6.5418 6.709 6.5418h80.508c3.7168 0 6.709-2.9176 6.709-6.5418v-11.993h-3.5991c-0.25205 0-0.45425-0.31308-0.45425-0.71551v-4.0886c0-0.40243 0.20221-0.71551 0.45425-0.71551h3.5991v-60.988c0-3.6241-2.9922-6.5418-6.709-6.5418h-9.7141v4.8723h4.5775c0.31204 0 0.55908 0.40889 0.55908 0.91994v5.1448c0 0.51105-0.24705 0.91994-0.55908 0.91994h-6.3945c-0.31204 0-0.55908-0.40888-0.55908-0.91994v-3.1005h-6.3596v1.5332c0 0.29535-0.13652 0.54515-0.31448 0.54515h-3.669c-0.17797 0-0.31449-0.2498-0.31449-0.54515v-2.9642c0-0.29535 0.13652-0.54515 0.31449-0.54515h2.2014v-5.8603h-60.276zm75.232 67.53h5.1715c0.25205 0 0.45426 0.31308 0.45426 0.71551v4.0886c0 0.40243-0.20221 0.71551-0.45426 0.71551h-5.1715c-0.25205 0-0.45426-0.31308-0.45426-0.71551v-4.0886c0-0.40243 0.20221-0.71551 0.45426-0.71551zm0 7.9046h5.1715c0.25205 0 0.45426 0.31308 0.45426 0.71551v4.0886c0 0.40243-0.20221 0.71551-0.45426 0.71551h-5.1715c-0.25205 0-0.45426-0.31308-0.45426-0.71551v-4.0886c0-0.40243 0.20221-0.71551 0.45426-0.71551z"/>
   <path id="path4502" style="opacity:.14474" d="m8.3179 3.9494c-3.6646 0-6.6147 2.8593-6.6147 6.411v67.85h2.4805v-3.9067c0-0.60604 0.31628-1.1019 0.68903-1.1019h7.6483c0.37275 0 0.65458 0.49586 0.65458 1.1019v5.1755h3.3074c0.2485 0 0.44787 0.30682 0.44787 0.7012v4.0069c0 0.39438-0.19937 0.7012-0.44787 0.7012h-5.0989c-0.2485 0-0.44787-0.30682-0.44787-0.7012v-2.6712h-3.9964v2.4375c0 0.48082-0.26357 0.86815-0.58568 0.86815h-4.651v2.4709c0 3.5517 2.9502 6.411 6.6147 6.411h79.377c3.6646 0 6.6147-2.8593 6.6147-6.411v-11.753h-3.5485c-0.2485 0-0.44787-0.30682-0.44787-0.7012v-4.0069c0-0.39438 0.19937-0.7012 0.44787-0.7012h3.5485v-59.769c0-3.5517-2.9502-6.411-6.6147-6.411h-9.5776v4.7749h4.5132c0.30765 0 0.55123 0.40071 0.55123 0.90155v5.042c0 0.50084-0.24358 0.90155-0.55123 0.90155h-6.3047c-0.30765 0-0.55123-0.40071-0.55123-0.90155v-3.0385h-6.2702v1.5026c0 0.28945-0.1346 0.53425-0.31007 0.53425h-3.6174c-0.17547 0-0.31007-0.2448-0.31007-0.53425v-2.905c0-0.28945 0.1346-0.53425 0.31007-0.53425h2.1705v-5.7432h-59.429zm74.175 66.18h5.0989c0.2485 0 0.44787 0.30682 0.44787 0.7012v4.0069c0 0.39438-0.19937 0.7012-0.44787 0.7012h-5.0989c-0.2485 0-0.44787-0.30682-0.44787-0.7012v-4.0069c0-0.39438 0.19937-0.7012 0.44787-0.7012zm0 7.7466h5.0989c0.2485 0 0.44787 0.30682 0.44787 0.7012v4.0069c0 0.39438-0.19937 0.7012-0.44787 0.7012h-5.0989c-0.2485 0-0.44787-0.30682-0.44787-0.7012v-4.0069c0-0.39438 0.19937-0.7012 0.44787-0.7012z"/>
   <path id="path4498" style="opacity:.12745" d="m8.9644 4.6818c-3.6049 0-6.507 2.8185-6.507 6.3194v66.881h2.4401v-3.8509c0-0.59738 0.31113-1.0862 0.67781-1.0862h7.5237c0.36668 0 0.64392 0.48877 0.64392 1.0862v5.1016h3.2535c0.24446 0 0.44058 0.30244 0.44058 0.69119v3.9496c0 0.38875-0.19612 0.69119-0.44058 0.69119h-5.0158c-0.24446 0-0.44058-0.30244-0.44058-0.69119v-2.6331h-3.9313v2.4027c0 0.47395-0.25927 0.85576-0.57614 0.85576h-4.5752v2.4356c0 3.501 2.9021 6.3194 6.507 6.3194h78.084c3.6049 0 6.507-2.8185 6.507-6.3194v-11.586h-3.4907c-0.24446 0-0.44058-0.30244-0.44058-0.69119v-3.9496c0-0.38875 0.19612-0.69119 0.44058-0.69119h3.4907v-58.916c0-3.501-2.9021-6.3194-6.507-6.3194h-9.4216v4.7067h4.4397c0.30264 0 0.54225 0.39499 0.54225 0.88867v4.97c0 0.49368-0.23961 0.88867-0.54225 0.88867h-6.202c-0.30264 0-0.54225-0.39499-0.54225-0.88867v-2.9952h-6.1681v1.4811c0 0.28531-0.13241 0.52662-0.30502 0.52662h-3.5585c-0.17261 0-0.30502-0.24131-0.30502-0.52662v-2.8635c0-0.28531 0.13241-0.52662 0.30502-0.52662h2.1351v-5.6612h-58.461zm72.966 65.235h5.0158c0.24446 0 0.44058 0.30244 0.44058 0.69119v3.9496c0 0.38875-0.19612 0.69119-0.44058 0.69119h-5.0158c-0.24446 0-0.44058-0.30244-0.44058-0.69119v-3.9496c0-0.38875 0.19612-0.69119 0.44058-0.69119zm0 7.636h5.0158c0.24446 0 0.44058 0.30244 0.44058 0.69119v3.9496c0 0.38875-0.19612 0.69119-0.44058 0.69119h-5.0158c-0.24446 0-0.44058-0.30244-0.44058-0.69119v-3.9496c0-0.38875 0.19612-0.69119 0.44058-0.69119z"/>
   <path id="rect14020" style="fill:url(#linearGradient4477)" d="m9.6108 3.0826c-3.5452 0-6.3993 2.8374-6.3993 6.3618v67.329h2.3997v-3.8767c0-0.60138 0.30598-1.0934 0.66659-1.0934h7.3991c0.36061 0 0.63326 0.49205 0.63326 1.0934v5.1358h3.1996c0.24041 0 0.43328 0.30447 0.43328 0.69582v3.9761c0 0.39135-0.19287 0.69582-0.43328 0.69582h-4.9328c-0.24041 0-0.43328-0.30447-0.43328-0.69582v-2.6507h-3.8662v2.4188c0 0.47713-0.25498 0.86149-0.5666 0.86149h-4.4995v2.4519c0 3.5244 2.8541 6.3618 6.3993 6.3618h76.791c3.5452 0 6.3993-2.8374 6.3993-6.3618v-11.663h-3.4329c-0.24041 0-0.43328-0.30447-0.43328-0.69582v-3.9761c0-0.39135 0.19287-0.69582 0.43328-0.69582h3.4329v-59.31c0-3.5244-2.8541-6.3618-6.3993-6.3618h-9.2656v4.7382h4.3662c0.29763 0 0.53327 0.39763 0.53327 0.89462v5.0033c0 0.49699-0.23564 0.89462-0.53327 0.89462h-6.0993c-0.29763 0-0.53327-0.39763-0.53327-0.89462v-3.0152h-6.066v1.491c0 0.28722-0.13021 0.53015-0.29996 0.53015h-3.4996c-0.16975 0-0.29996-0.24292-0.29996-0.53015v-2.8827c0-0.28722 0.13021-0.53015 0.29996-0.53015h2.0998v-5.6991h-57.493zm71.758 65.672h4.9328c0.24041 0 0.43328 0.30447 0.43328 0.69582v3.9761c0 0.39135-0.19287 0.69582-0.43328 0.69582h-4.9328c-0.24041 0-0.43328-0.30447-0.43328-0.69582v-3.9761c0-0.39135 0.19287-0.69582 0.43328-0.69582zm0 7.6871h4.9328c0.24041 0 0.43328 0.30447 0.43328 0.69582v3.9761c0 0.39135-0.19287 0.69582-0.43328 0.69582h-4.9328c-0.24041 0-0.43328-0.30447-0.43328-0.69582v-3.9761c0-0.39135 0.19287-0.69582 0.43328-0.69582z"/>
   <path id="path4477" style="opacity:.15686" d="m11.425 17.863s-6.8399 3.4606-6.6551 9.8626c0.18486 6.402 7.2414 39.277 7.2414 39.277l30.84 21.974s5.1762 1.9033 8.134 0.17303 31.057-22.148 31.242-23.532c0.18486-1.3842 5.7308-37.72 5.7308-37.72s0.18487-7.2672-4.9913-9.3435-30.614-8.3577-37.158-7.6132c-6.5435 0.74448-33.46 6.5751-33.46 6.5751z"/>
   <path id="path4475" style="opacity:.38725" d="m12.182 18.425s-6.6738 3.3816-6.4934 9.6376c0.18037 6.256 7.0654 38.381 7.0654 38.381l30.091 21.473s5.0504 1.8599 7.9364 0.16908 30.302-21.642 30.483-22.995c0.18037-1.3526 5.5915-36.86 5.5915-36.86s0.18038-7.1014-4.87-9.1304-29.87-8.167-36.255-7.4395c-6.3845 0.7275-32.647 6.4251-32.647 6.4251z"/>
   <path id="path4473" style="opacity:.54412" d="m12.939 18.822s-6.5076 3.3106-6.3317 9.4351c0.17588 6.1245 6.8895 37.575 6.8895 37.575l29.342 21.022s4.9247 1.8208 7.7387 0.16553c2.8141-1.6553 29.548-21.188 29.724-22.512 0.17588-1.3242 5.4523-36.085 5.4523-36.085s0.17589-6.9522-4.7488-8.9385-29.126-7.9954-35.352-7.2832c-6.2255 0.71221-31.834 6.2901-31.834 6.2901z"/>
   <path id="path14138" style="opacity:.42857;stroke:url(#linearGradient4479);stroke-width:1.0384;fill:none" d="m9.5957 3.463c-3.5267 0-6.3659 2.7195-6.3659 6.0974v64.531h2.3872v-3.7156c0-0.57639 0.30439-1.048 0.66311-1.048h7.3606c0.35873 0 0.62996 0.4716 0.62996 1.048v4.9224h3.1829c0.23916 0 0.43103 0.29181 0.43103 0.66691v3.8109c0 0.37509-0.19187 0.66691-0.43103 0.66691h-4.9071c-0.23916 0-0.43102-0.29182-0.43102-0.66691v-2.5406h-3.8461v2.3183c0 0.4573-0.25366 0.8257-0.56366 0.8257h-4.476v2.3501c0 3.378 2.8392 6.0974 6.3659 6.0974h76.391c3.5267 0 6.3659-2.7195 6.3659-6.0974v-11.179h-3.4151c-0.23916 0-0.43103-0.29182-0.43103-0.66691v-3.8109c0-0.37509 0.19187-0.66691 0.43103-0.66691h3.4151v-56.846c0-3.378-2.8392-6.0974-6.3659-6.0974h-9.2173v4.5413h4.3434c0.29608 0 0.5305 0.38111 0.5305 0.85745v4.7954c0 0.47634-0.23442 0.85745-0.5305 0.85745h-6.0675c-0.29608 0-0.5305-0.38111-0.5305-0.85745v-2.8899h-6.0344v1.4291c0 0.27529-0.12954 0.50812-0.29841 0.50812h-3.4814c-0.16886 0-0.29841-0.23283-0.29841-0.50812v-2.7629c0-0.27529 0.12954-0.50812 0.29841-0.50812h2.0888v-5.4623h-57.194zm71.384 62.943h4.9071c0.23916 0 0.43103 0.29182 0.43103 0.66691v3.8109c0 0.37509-0.19187 0.66691-0.43103 0.66691h-4.9071c-0.23915 0-0.43102-0.29182-0.43102-0.66691v-3.8109c0-0.37509 0.19187-0.66691 0.43102-0.66691zm0 7.3677h4.9071c0.23916 0 0.43103 0.29182 0.43103 0.66691v3.8109c0 0.37509-0.19187 0.66691-0.43103 0.66691h-4.9071c-0.23915 0-0.43102-0.29182-0.43102-0.66691v-3.8109c0-0.37509 0.19187-0.66691 0.43102-0.66691z"/>
   <path id="path14150" style="opacity:.34101;stroke:url(#linearGradient4481);stroke-width:1.0559;fill:none" d="m9.5957 3.463c-3.5267 0-6.3659 2.8119-6.3659 6.3048v66.726h2.3872v-3.842c0-0.596 0.30439-1.0836 0.66311-1.0836h7.3606c0.35873 0 0.62996 0.48764 0.62996 1.0836v5.0898h3.1829c0.23916 0 0.43103 0.30174 0.43103 0.68959v3.9405c0 0.38785-0.19187 0.68959-0.43103 0.68959h-4.9071c-0.23916 0-0.43102-0.30174-0.43102-0.68959v-2.627h-3.8461v2.3971c0 0.47286-0.25366 0.85378-0.56366 0.85378h-4.476v2.43c0 3.4929 2.8392 6.3048 6.3659 6.3048h76.391c3.5267 0 6.3659-2.8119 6.3659-6.3048v-11.559h-3.4151c-0.23916 0-0.43103-0.30174-0.43103-0.68959v-3.9405c0-0.38785 0.19187-0.68959 0.43103-0.68959h3.4151v-58.779c0-3.4929-2.8392-6.3048-6.3659-6.3048h-9.2173v4.6958h4.3434c0.29608 0 0.5305 0.39407 0.5305 0.88661v4.9585c0 0.49254-0.23442 0.88661-0.5305 0.88661h-6.0675c-0.29608 0-0.5305-0.39407-0.5305-0.88661v-2.9882h-6.0344v1.4777c0 0.28465-0.12954 0.5254-0.29841 0.5254h-3.4814c-0.16886 0-0.29841-0.24075-0.29841-0.5254v-2.8569c0-0.28465 0.12954-0.5254 0.29841-0.5254h2.0888v-5.6481h-57.194zm71.384 65.084h4.9071c0.23916 0 0.43103 0.30174 0.43103 0.68959v3.9405c0 0.38785-0.19187 0.68959-0.43103 0.68959h-4.9071c-0.23915 0-0.43102-0.30174-0.43102-0.68959v-3.9405c0-0.38785 0.19187-0.68959 0.43102-0.68959zm0 7.6183h4.9071c0.23916 0 0.43103 0.30174 0.43103 0.68959v3.9405c0 0.38785-0.19187 0.68959-0.43103 0.68959h-4.9071c-0.23915 0-0.43102-0.30174-0.43102-0.68959v-3.9405c0-0.38785 0.19187-0.68959 0.43102-0.68959z"/>
   <path id="path9173" style="fill:#2b261d" d="m14.203 19.367s-6.2961 3.2237-6.1259 9.1876c0.17016 5.9639 6.6656 36.589 6.6656 36.589l28.388 20.471s4.7646 1.773 7.4872 0.16118c2.7226-1.6119 28.588-20.632 28.758-21.921 0.17016-1.2895 5.2751-35.139 5.2751-35.139s0.17017-6.7698-4.5944-8.7041c-4.7646-1.9342-28.18-7.7857-34.203-7.0922-6.0232 0.69353-30.8 6.1251-30.8 6.1251z"/>
   <path id="path9241" style="opacity:.72350;fill:url(#linearGradient4483)" d="m14.742 64.688 28.388 20.471s4.7646 1.773 7.4872 0.16118c2.723-1.612 28.588-20.632 28.759-21.921 7.286-36.651-68.746-32.337-64.634 1.289z"/>
   <path id="path9229" style="opacity:.72350;fill:url(#linearGradient4485)" d="m14.765 64.713 28.485 20.447s4.7809 1.771 7.5128 0.16099c2.732-1.61 28.685-20.608 28.856-21.896 12.506-39.317-71.426-52.327-64.854 1.288z"/>
   <path id="path9175" style="opacity:.90783;fill:url(#linearGradient4487)" d="m46.532 19.167s-20.273 1.0062-23.71 8.7432c-3.4362 7.7369 1.2027 28.864 1.2027 28.864l21.637-10.662z"/>
   <path id="path9177" style="opacity:.82028;fill:url(#linearGradient4489)" d="m46.534 20.012 20.59 3.5461s6.1259 3.3849 5.4453 9.3488c-0.41263 3.6155-2.5525 22.083-2.5525 22.083l-17.357 9.9935s-2.3823 1.4507-7.4872 0.48356c-5.1049-0.96712-20.831-9.8991-20.831-9.8991l21.269-10.041z"/>
   <path id="path10176" style="opacity:.59447;fill:url(#radialGradient4491)" d="m61.304 23.694a0.7726 0.6683 0 1 1 -1.5452 0 0.7726 0.6683 0 1 1 1.5452 0z"/>
   <path id="path9569" style="fill:url(#radialGradient4493)" d="m70.384 50.271a21.498 13.065 0 0 1 -42.996 0 21.498 13.065 0 1 1 42.996 0z"/>
   <path id="path4379" style="opacity:.27941;fill:url(#radialGradient4495)" d="m23.244 28.192a7.2759 5.798 0 0 1 -14.552 0 7.2759 5.798 0 1 1 14.552 0z"/>
   <path id="path9559" style="opacity:.64977;fill:url(#radialGradient4497)" d="m71.796 38.107a24.53 16.039 0 0 1 -49.06 0 24.53 16.039 0 1 1 49.06 0z"/>
   <path id="path10178" style="opacity:.59447;fill:url(#radialGradient4499)" d="m61.174 26.624a0.7726 0.6683 0 1 1 -1.5452 0 0.7726 0.6683 0 1 1 1.5452 0z"/>
   <path id="path9453" style="fill:url(#linearGradient4501)" d="m57.725 40.464s5.0909 1.2146 5.7608 2.0243c0.66986 0.80973 2.2775 1.7544 0.53589 2.969s-6.2967 1.8894-6.2967 1.8894z"/>
   <path id="path9441" style="fill:url(#linearGradient4503)" d="m46.606 25.889s-13.14 3.1152-15.139 5.1283c-1.4737 1.4845-1.7416 2.0243-1.7416 5.5331 0 3.104 1.0718 16.06 1.7416 16.464 0.66986 0.40486 12.727 8.2322 14.737 8.3672 2.0096 0.13495 4.689 0.67477 8.3063-1.6195 3.6173-2.2942 10.523-5.6923 10.718-6.4778 0.53589-2.1593 0.40192-7.5574-0.13397-8.772s-7.3685 2.1593-7.3685 2.1593 0.66986-9.4468-1.4737-11.876-9.2441-5.2632-9.2441-5.2632 2.1436 1.3495 3.2153 2.1593c1.0718 0.80973 5.7608 2.2942 5.7608 3.7787s0.26794-1.3495 0.26794-1.3495 0.53589-7.1526-2.5455-7.8274c-3.0814-0.67477-7.1005-0.40486-7.1005-0.40486z"/>
   <path id="path10180" style="opacity:.59447;fill:url(#radialGradient4505)" d="m60.914 29.81a0.7726 0.6683 0 1 1 -1.5452 0 0.7726 0.6683 0 1 1 1.5452 0z"/>
   <path id="path9451" style="fill:#5c4109" d="m47.275 28.048s4.689-2.0243 5.8948-1.8894c1.2058 0.13495 2.9474 1.3495 3.0814 2.6991 0.13397 1.3495 0 2.969 0 2.969s-0.26794-0.94468-2.9474-1.6195c-2.6794-0.67477-6.0287-2.1593-6.0287-2.1593z"/>
   <path id="path9463" style="opacity:.67281;filter:url(#filter9511);fill:url(#linearGradient4507)" d="m33.377 52.397c0.64446 0.39714 12.245 8.0753 14.178 8.2076 1.9334 0.13238 4.5112 0.66191 7.9913-1.5886s10.124-5.5837 10.311-6.3543c9.766-38.744-47.449-19.37-32.48-0.265z" transform="matrix(1.0394 0 0 1.0194 -3.3559 -.28890)"/>
   <path id="path9473" style="opacity:.67281;fill:url(#linearGradient4509)" d="m31.207 52.999c0.66986 0.40486 12.727 8.2322 14.737 8.3672 2.0096 0.13495 4.689 0.67477 8.3063-1.6195 3.6172-2.2942 10.523-5.6923 10.718-6.4778 0.158-34.249-35.792-17.966-33.761-0.27z"/>
   <path id="path9477" style="opacity:.46083;fill:url(#radialGradient4511)" d="m51.118 37.352a4.7653 2.2194 12.222 1 1 -9.2601 -2.2192 4.7653 2.2194 12.222 0 1 9.2601 2.2192z"/>
   <g id="g9644" style="stroke:url(#linearGradient4517);stroke-width:1.0632;fill:none" transform="matrix(.54802 0 0 .52124 -195.16 29.398)">
    <path id="path9640" style="stroke:url(#linearGradient4513);stroke-width:1.0632;fill:none" d="m443.36-9.7125-38.19 10.253 4.24 47.376 34.3 17.678 34.65-19.445 1.41-44.901z"/>
    <path id="path9642" style="stroke:url(#linearGradient4515);stroke-width:1.0632;fill:none" d="m479.77 1.2399-37.47 13.089 1.06 51.619-1.42-51.972-36.38-12.893"/>
   </g>
   <path id="path9927" style="opacity:.19816;filter:url(#filter9887);stroke:url(#linearGradient4519);stroke-width:.5;fill:none" d="m45.375 76.326 0.25 6.424" transform="matrix(1.0394 0 0 2.5914 11.577 -175.75)"/>
   <path id="path4393" style="opacity:.18627;fill:url(#radialGradient4521)" d="m16.358 27.427a4.0927 6.5626 0 0 1 -8.1854 0 4.0927 6.5626 0 1 1 8.1854 0z"/>
   <path id="path9931" style="opacity:.23041;stroke:url(#linearGradient4523);stroke-width:.82061;fill:none" d="m71.782 39.342-16.865-3.137"/>
   <path id="path9935" style="opacity:.58986;fill:url(#radialGradient4525)" d="m38.116 72.527a0.7726 0.6683 0 1 1 -1.5452 0 0.7726 0.6683 0 1 1 1.5452 0z"/>
   <path id="path9949" style="opacity:.58986;fill:url(#radialGradient4527)" d="m38.116 69.464a0.7726 0.6683 0 1 1 -1.5452 0 0.7726 0.6683 0 1 1 1.5452 0z"/>
   <path id="path9953" style="opacity:.58986;fill:url(#radialGradient4529)" d="m38.116 66.941a0.7726 0.6683 0 1 1 -1.5452 0 0.7726 0.6683 0 1 1 1.5452 0z"/>
   <path id="path9957" style="opacity:.58986;fill:url(#radialGradient4531)" d="m37.933 64.057a0.7726 0.6683 0 1 1 -1.5452 0 0.7726 0.6683 0 1 1 1.5452 0z"/>
   <path id="path9993" style="opacity:.60369;fill:url(#radialGradient4533)" d="m56.31 72.751a0.66834 0.77255 87.003 1 0 1.5424 -0.09152 0.66834 0.77255 87.003 1 0 -1.5424 0.09152z"/>
   <path id="path9995" style="opacity:.60369;fill:url(#radialGradient4535)" d="m56.122 69.693a0.66834 0.77255 87.003 1 0 1.5424 -0.09152 0.66834 0.77255 87.003 1 0 -1.5424 0.09152z"/>
   <path id="path9997" style="opacity:.60369;fill:url(#radialGradient4537)" d="m55.966 67.175a0.66834 0.77255 87.003 1 0 1.5424 -0.09153 0.66834 0.77255 87.003 1 0 -1.5424 0.09153z"/>
   <path id="path9999" style="opacity:.88018;fill:url(#radialGradient4539)" d="m55.972 64.286a0.66834 0.77255 87.003 1 0 1.5424 -0.09153 0.66834 0.77255 87.003 1 0 -1.5424 0.09153z"/>
   <path id="path10009" style="opacity:.52074;fill:url(#radialGradient4541)" d="m45.466 79.916a0.7726 0.6683 0 1 1 -1.5452 0 0.7726 0.6683 0 1 1 1.5452 0z"/>
   <path id="path10013" style="opacity:.57143;fill:url(#radialGradient4543)" d="m45.466 83.52a0.7726 0.6683 0 1 1 -1.5452 0 0.7726 0.6683 0 1 1 1.5452 0z"/>
   <path id="path10017" style="opacity:.59447;fill:url(#radialGradient4545)" d="m50.611 79.916a0.7726 0.6683 0 1 1 -1.5452 0 0.7726 0.6683 0 1 1 1.5452 0z"/>
   <path id="path10019" style="opacity:.59447;fill:url(#radialGradient4547)" d="m50.611 83.52a0.7726 0.6683 0 1 1 -1.5452 0 0.7726 0.6683 0 1 1 1.5452 0z"/>
   <path id="path10025" style="opacity:.52995;fill:url(#radialGradient4549)" d="m17.013 61.995a0.6687 0.77215 80.663 1 1 -1.518 0.28306 0.6687 0.77215 80.663 1 1 1.518 -0.28306z"/>
   <path id="path10027" style="opacity:.52995;fill:url(#radialGradient4551)" d="m16.429 58.985a0.6687 0.77215 80.663 1 1 -1.518 0.28306 0.6687 0.77215 80.663 1 1 1.518 -0.28306z"/>
   <path id="path4407" style="opacity:.13725;fill:url(#radialGradient4553)" d="m20.722 49.945a14.118 3.5731 82.937 0 1 -7.1372 0.50884 14.118 3.5731 82.937 1 1 7.1372 -0.50884z"/>
   <path id="path10029" style="opacity:.52995;fill:url(#radialGradient4555)" d="m15.949 56.507a0.6687 0.77215 80.663 1 1 -1.518 0.28306 0.6687 0.77215 80.663 1 1 1.518 -0.28306z"/>
   <path id="path10031" style="opacity:.52995;fill:url(#radialGradient4557)" d="m15.219 53.708a0.6687 0.77215 80.663 1 1 -1.518 0.28306 0.6687 0.77215 80.663 1 1 1.518 -0.28306z"/>
   <path id="path10041" style="opacity:.52995;fill:url(#radialGradient4559)" d="m14.455 50.403a0.6687 0.77215 80.663 1 1 -1.518 0.28306 0.6687 0.77215 80.663 1 1 1.518 -0.28306z"/>
   <path id="path10043" style="opacity:.52995;fill:url(#radialGradient4561)" d="m13.781 47.731a0.66837 0.77252 86.121 1 1 -1.5405 0.11839 0.66837 0.77252 86.121 1 1 1.5405 -0.11839z"/>
   <path id="path10045" style="opacity:.52995;fill:url(#radialGradient4563)" d="m13.32 45.088a0.66837 0.77252 86.121 1 1 -1.5405 0.11839 0.66837 0.77252 86.121 1 1 1.5405 -0.11839z"/>
   <path id="path10047" style="opacity:.52995;fill:url(#radialGradient4565)" d="m12.907 42.483a0.66837 0.77252 86.121 1 1 -1.5405 0.11839 0.66837 0.77252 86.121 1 1 1.5405 -0.11839z"/>
   <path id="path10057" style="opacity:.52995;fill:url(#radialGradient4567)" d="m12.66 40.209a0.66837 0.77252 86.121 1 1 -1.5405 0.11839 0.66837 0.77252 86.121 1 1 1.5405 -0.11839z"/>
   <path id="path10059" style="opacity:.52995;fill:url(#radialGradient4569)" d="m12.221 37.282a0.66837 0.77252 86.121 1 1 -1.5405 0.11839 0.66837 0.77252 86.121 1 1 1.5405 -0.11839z"/>
   <path id="path10061" style="opacity:.52995;fill:url(#radialGradient4571)" d="m12.02 34.766a0.66837 0.77252 86.121 1 1 -1.5405 0.11839 0.66837 0.77252 86.121 1 1 1.5405 -0.11839z"/>
   <path id="path10063" style="opacity:.52995;fill:url(#radialGradient4573)" d="m11.673 31.715a0.66837 0.77252 86.121 1 1 -1.5405 0.11839 0.66837 0.77252 86.121 1 1 1.5405 -0.11839z"/>
   <path id="path10093" style="opacity:.58065;fill:url(#radialGradient4575)" d="m43.345 35.721a4.6861 0.98235 17.467 0 1 -8.7822 -3.0374 4.6861 0.98235 17.467 1 1 8.7822 3.0374z"/>
   <path id="path10097" style="stroke:#eee;stroke-width:.31490;fill:none" d="m60.166 27.749-19.742 6.62"/>
   <path id="path10099" style="stroke:#eee;stroke-width:.31490;fill:none" d="m53.18 25.8-19.513 6.5302"/>
   <path id="path10101" style="stroke:#eee;stroke-width:.30298;fill:none" d="m61.609 32.047-19.056-6.538"/>
   <path id="path10103" style="stroke:#eee;stroke-width:.30298;fill:none" d="m53.529 34.585-19.491-6.707"/>
   <path id="path10164" style="opacity:.59447;fill:url(#radialGradient4577)" d="m71.777 30.361a0.7726 0.6683 0 1 1 -1.5452 0 0.7726 0.6683 0 1 1 1.5452 0z"/>
   <path id="path10168" style="opacity:.59447;fill:url(#radialGradient4579)" d="m71.647 33.292a0.7726 0.6683 0 1 1 -1.5452 0 0.7726 0.6683 0 1 1 1.5452 0z"/>
   <path id="path10172" style="opacity:.59447;fill:url(#radialGradient4581)" d="m71.387 36.478a0.7726 0.6683 0 1 1 -1.5452 0 0.7726 0.6683 0 1 1 1.5452 0z"/>
   <path id="path4389" style="opacity:.36765;fill:url(#radialGradient4583)" d="m20.247 29.622a6.4863 12.711 72.833 1 1 -3.751 -12.418 6.4863 12.711 72.833 0 1 3.751 12.418z"/>
   <path id="path4397" style="opacity:.22549;fill:url(#radialGradient4585)" d="m22.525 48.453a14.118 3.5731 82.937 1 1 -7.1372 0.50884 14.118 3.5731 82.937 0 1 7.1372 -0.50884z"/>
   <path id="path4411" style="opacity:.22549;fill:url(#radialGradient4587)" d="m27.239 57.534a12.23 3.6337 32.825 0 1 -2.5338 6.9937 12.23 3.6337 32.825 1 1 2.5338 -6.9937z"/>
   <path id="path4413" style="opacity:.13725;fill:url(#radialGradient4589)" d="m27.369 60.285a12.23 3.6337 32.825 0 1 -2.5338 6.9937 12.23 3.6337 32.825 1 1 2.5338 -6.9937z"/>
   <path id="path4419" style="opacity:.27941;fill:url(#radialGradient4591)" d="m71.355 28.044a6.3518 4.6841 0 0 0 12.704 0 6.3518 4.6841 0 1 0 -12.704 0z"/>
   <path id="path4421" style="opacity:.36765;fill:url(#radialGradient4593)" d="m73.336 29.045a11.712 6.1839 18.38 1 0 3.442 -11.886 11.712 6.1839 18.38 1 0 -3.442 11.886z"/>
   <path id="path4423" style="opacity:.18627;fill:url(#radialGradient4595)" d="m77.366 27.426a3.5729 5.3018 0 0 0 7.1457 0 3.5729 5.3018 0 1 0 -7.1457 0z"/>
   <path id="path4447" style="opacity:.36765;fill:url(#radialGradient4597)" d="m62.993 21.325a11.341 2.8115 11.374 1 0 3.9164 -4.9016 11.341 2.8115 11.374 0 0 -3.9164 4.9016z"/>
   <path id="path4451" style="opacity:.22549;fill:url(#radialGradient4599)" d="m52.893 72.949a7.6235 4.2428 80.1 0 1 -8.6327 -0.54334 7.6235 4.2428 80.1 0 1 8.6327 0.54334z"/>
   <path id="path4453" style="opacity:.13725;fill:url(#radialGradient4601)" d="m50.172 73.447a7.6235 4.2428 80.1 1 1 -8.6327 -0.54334 7.6235 4.2428 80.1 0 1 8.6327 0.54334z"/>
   <path id="path4459" style="opacity:.11765;fill:url(#radialGradient4603)" d="m47.792 72.705a3.7657 7.0936 7.5279 0 1 -7.5254 -0.50765 3.7657 7.0936 7.5279 0 1 7.5254 0.50765z"/>
   <path id="path4463" style="opacity:.73039;fill:url(#radialGradient4606)" d="m68.329 30.103a21.113 6.8175 0 0 1 -42.226 0 21.113 6.8175 0 1 1 42.226 0z"/>
  </g>
 </g>
</svg>
