<?xml version="1.0" encoding="UTF-8" standalone="no"?>
<!-- Created with Inkscape (http://www.inkscape.org/) -->
<svg id="svg2408" xmlns:rdf="http://www.w3.org/1999/02/22-rdf-syntax-ns#" xmlns="http://www.w3.org/2000/svg" height="96" width="96" version="1.0" xmlns:cc="http://creativecommons.org/ns#" xmlns:xlink="http://www.w3.org/1999/xlink" xmlns:dc="http://purl.org/dc/elements/1.1/">
 <defs id="defs2410">
  <linearGradient id="linearGradient4384">
   <stop id="stop4386" style="stop-color:#fff" offset="0"/>
   <stop id="stop4388" style="stop-color:#fff;stop-opacity:0" offset="1"/>
  </linearGradient>
  <linearGradient id="ButtonShadow" y2="7.0165" gradientUnits="userSpaceOnUse" x2="45.448" gradientTransform="scale(1.0059 .99417)" y1="92.54" x1="45.448">
   <stop id="stop3750" offset="0"/>
   <stop id="stop3752" style="stop-opacity:.58824" offset="1"/>
  </linearGradient>
  <filter id="filter3174" color-interpolation-filters="sRGB">
   <feGaussianBlur id="feGaussianBlur3176" stdDeviation="1.71"/>
  </filter>
  <filter id="filter3794" height="1.384" width="1.384" color-interpolation-filters="sRGB" y="-.192" x="-.192">
   <feGaussianBlur id="feGaussianBlur3796" stdDeviation="5.28"/>
  </filter>
  <linearGradient id="linearGradient3613" y2="138.66" gradientUnits="userSpaceOnUse" x2="48" y1="20.221" x1="48">
   <stop id="stop3739" style="stop-color:#fff" offset="0"/>
   <stop id="stop3741" style="stop-color:#fff;stop-opacity:0" offset="1"/>
  </linearGradient>
  <linearGradient id="ButtonShadow-0" y2="7.0165" gradientUnits="userSpaceOnUse" x2="45.448" gradientTransform="matrix(1.0059 0 0 .99417 100 0)" y1="92.54" x1="45.448">
   <stop id="stop3750-8" offset="0"/>
   <stop id="stop3752-5" style="stop-opacity:.58824" offset="1"/>
  </linearGradient>
  <linearGradient id="linearGradient3780" y2="90.239" xlink:href="#ButtonShadow-0" gradientUnits="userSpaceOnUse" x2="32.251" gradientTransform="matrix(1.0238 0 0 1.0119 -1.1429 -98.071)" y1="6.1317" x1="32.251"/>
  <linearGradient id="linearGradient3721" y2="90.239" xlink:href="#ButtonShadow-0" gradientUnits="userSpaceOnUse" x2="32.251" gradientTransform="translate(0,-97)" y1="6.1317" x1="32.251"/>
  <clipPath id="clipPath4355">
   <rect id="rect4357" style="fill:#fff" rx="6" ry="6" height="80" width="84" y="6" x="6"/>
  </clipPath>
  <radialGradient id="radialGradient4375" gradientUnits="userSpaceOnUse" cy="87.792" cx="48" gradientTransform="matrix(1 -6.7115e-8 8.4282e-8 1.2558 110 -24.506)" r="42">
   <stop id="stop4369" style="stop-color:#fff;stop-opacity:.71756" offset="0"/>
   <stop id="stop4371" style="stop-color:#fff" offset="1"/>
  </radialGradient>
  <linearGradient id="linearGradient4390" y2="-40" xlink:href="#linearGradient4384" gradientUnits="userSpaceOnUse" x2="48" gradientTransform="matrix(1,0,0,-1,0,92)" y1="88" x1="48"/>
  <linearGradient id="linearGradient4429" y2="82.455" xlink:href="#linearGradient4384" spreadMethod="reflect" gradientUnits="userSpaceOnUse" x2="112.12" y1="82" x1="48"/>
  <linearGradient id="linearGradient3228" y2="88" spreadMethod="reflect" gradientUnits="userSpaceOnUse" x2="48" y1="88" x1="90">
   <stop id="stop3894" style="stop-opacity:.58824" offset="0"/>
   <stop id="stop3896" style="stop-opacity:.47059" offset=".11780"/>
   <stop id="stop3898" style="stop-opacity:.39216" offset=".23810"/>
   <stop id="stop3900" style="stop-opacity:.31373" offset="1"/>
  </linearGradient>
  <linearGradient id="linearGradient3301" y2="46.187" gradientUnits="userSpaceOnUse" x2="81.065" y1="46.187" x1="10.48">
   <stop id="stop3270" style="stop-color:#e4e4e4" offset="0"/>
   <stop id="stop3272" style="stop-color:#7a7a7a" offset="1"/>
  </linearGradient>
  <linearGradient id="linearGradient3229" y2="5.9877" gradientUnits="userSpaceOnUse" x2="48" y1="90" x1="48">
   <stop id="stop3259" style="stop-color:#aaa" offset="0"/>
   <stop id="stop3261" style="stop-color:#d2d2d2" offset="1"/>
  </linearGradient>
  <radialGradient id="radialGradient3301" gradientUnits="userSpaceOnUse" cy="76.335" cx="62.717" gradientTransform="matrix(1.1493 -.66353 .71670 1.2414 -64.071 17.196)" r="27.757">
   <stop id="stop3305" style="stop-color:#f1b9ff" offset="0"/>
   <stop id="stop3307" style="stop-color:#fff;stop-opacity:0" offset="1"/>
  </radialGradient>
  <linearGradient id="linearGradient3298" y2="52.816" xlink:href="#linearGradient3287" gradientUnits="userSpaceOnUse" x2="47.856" y1="21.754" x1="47.856"/>
  <linearGradient id="linearGradient3287">
   <stop id="stop3290" style="stop-color:#71c837" offset="0"/>
   <stop id="stop3292" style="stop-color:#71c837;stop-opacity:0" offset="1"/>
  </linearGradient>
  <linearGradient id="linearGradient3310" y2="7.7925" gradientUnits="userSpaceOnUse" x2="51.985" y1="47.406" x1="51.985">
   <stop id="stop3306" style="stop-color:#d42aff" offset="0"/>
   <stop id="stop3308" style="stop-color:#d42aff;stop-opacity:0" offset="1"/>
  </linearGradient>
  <radialGradient id="radialGradient3430" gradientUnits="userSpaceOnUse" cy="55.809" cx="48.453" gradientTransform="matrix(.39612 -1.5008 1.5792 .41680 -60.155 93.679)" r="18.109">
   <stop id="stop3385" style="stop-color:#fff;stop-opacity:0" offset="0"/>
   <stop id="stop3389" style="stop-color:#fff;stop-opacity:0" offset=".65574"/>
   <stop id="stop3387" style="stop-color:#fff" offset="1"/>
  </radialGradient>
  <linearGradient id="linearGradient3278" y2="47.26" gradientUnits="userSpaceOnUse" x2="84.095" y1="47.26" x1="14.647">
   <stop id="stop3262" offset="0"/>
   <stop id="stop3264" style="stop-opacity:0" offset="1"/>
  </linearGradient>
  <clipPath id="clipPath3733">
   <rect id="rect3735" style="fill:#fff" rx="6" ry="6" height="73.389" width="74.697" y="11.328" x="10.399"/>
  </clipPath>
  <radialGradient id="radialGradient3299" gradientUnits="userSpaceOnUse" cy="48" cx="48" gradientTransform="matrix(.81060 0 0 .80759 9.0914 9.2357)" r="42">
   <stop id="stop4694" style="stop-opacity:0" offset="0"/>
   <stop id="stop3355" style="stop-opacity:0" offset=".53446"/>
   <stop id="stop3289" style="stop-opacity:.50407" offset=".88369"/>
   <stop id="stop4696" style="stop-opacity:.86179" offset="1"/>
  </radialGradient>
  <clipPath id="clipPath2521">
   <rect id="rect2523" style="fill:#fff" rx="9.3705" ry="9.3705" height="131.19" width="131.19" y="-17.096" x="-17.694"/>
  </clipPath>
  <linearGradient id="linearGradient4571" y2="24.147" xlink:href="#linearGradient4321" gradientUnits="userSpaceOnUse" x2="97.732" gradientTransform="matrix(1.0777 0 0 1.0777 -5.3853 -3.7078)" y1="24.147" x1="48.917"/>
  <linearGradient id="linearGradient4321">
   <stop id="stop4323" style="stop-color:#959595" offset="0"/>
   <stop id="stop4325" style="stop-color:#5d5d5d" offset="1"/>
  </linearGradient>
  <linearGradient id="linearGradient4560" y2="24.147" xlink:href="#linearGradient4321" gradientUnits="userSpaceOnUse" x2="97.732" gradientTransform="matrix(.76208 .76208 -.76208 .76208 48.272 -29.567)" y1="24.147" x1="48.917"/>
  <linearGradient id="linearGradient4556" y2="23.509" xlink:href="#linearGradient4341" gradientUnits="userSpaceOnUse" x2="53.392" gradientTransform="matrix(.76208 .76208 -.76208 .76208 48.272 -29.567)" y1="22.625" x1="56.27"/>
  <linearGradient id="linearGradient4341">
   <stop id="stop4343" offset="0"/>
   <stop id="stop4345" style="stop-opacity:0" offset="1"/>
  </linearGradient>
  <linearGradient id="linearGradient4553" y2="24.147" xlink:href="#linearGradient4321" gradientUnits="userSpaceOnUse" x2="97.732" gradientTransform="matrix(0 1.0777 -1.0777 0 101.32 -7.344)" y1="24.147" x1="48.917"/>
  <linearGradient id="linearGradient4549" y2="23.509" xlink:href="#linearGradient4341" gradientUnits="userSpaceOnUse" x2="53.392" gradientTransform="matrix(0 1.0777 -1.0777 0 101.32 -7.344)" y1="22.625" x1="56.27"/>
  <linearGradient id="linearGradient4546" y2="24.147" xlink:href="#linearGradient4321" gradientUnits="userSpaceOnUse" x2="97.732" gradientTransform="matrix(-.76208 .76208 -.76208 -.76208 123.3 45.941)" y1="24.147" x1="48.917"/>
  <linearGradient id="linearGradient4542" y2="23.509" xlink:href="#linearGradient4341" gradientUnits="userSpaceOnUse" x2="53.392" gradientTransform="matrix(-.76208 .76208 -.76208 -.76208 123.3 45.941)" y1="22.625" x1="56.27"/>
  <linearGradient id="linearGradient4539" y2="24.147" xlink:href="#linearGradient4321" gradientUnits="userSpaceOnUse" x2="97.732" gradientTransform="matrix(-1.0777 0 0 -1.0777 102.59 101.76)" y1="24.147" x1="48.917"/>
  <linearGradient id="linearGradient4535" y2="23.509" xlink:href="#linearGradient4341" gradientUnits="userSpaceOnUse" x2="53.392" gradientTransform="matrix(-1.0777 0 0 -1.0777 102.59 101.76)" y1="22.625" x1="56.27"/>
  <linearGradient id="linearGradient4532" y2="24.147" xlink:href="#linearGradient4321" gradientUnits="userSpaceOnUse" x2="97.732" gradientTransform="matrix(-.76208 -.76208 .76208 -.76208 48.297 122.99)" y1="24.147" x1="48.917"/>
  <linearGradient id="linearGradient4528" y2="23.509" xlink:href="#linearGradient4341" gradientUnits="userSpaceOnUse" x2="53.392" gradientTransform="matrix(-.76208 -.76208 .76208 -.76208 48.297 122.99)" y1="22.625" x1="56.27"/>
  <linearGradient id="linearGradient4525" y2="24.147" xlink:href="#linearGradient4321" gradientUnits="userSpaceOnUse" x2="97.732" gradientTransform="matrix(0 -1.0777 1.0777 0 -6.7689 100.51)" y1="24.147" x1="48.917"/>
  <linearGradient id="linearGradient4521" y2="23.509" xlink:href="#linearGradient4341" gradientUnits="userSpaceOnUse" x2="53.392" gradientTransform="matrix(0 -1.0777 1.0777 0 -6.7689 100.51)" y1="22.625" x1="56.27"/>
  <linearGradient id="linearGradient4518" y2="24.147" xlink:href="#linearGradient4321" gradientUnits="userSpaceOnUse" x2="97.732" gradientTransform="matrix(.76208 -.76208 .76208 .76208 -27.993 47.228)" y1="24.147" x1="48.917"/>
  <linearGradient id="linearGradient4514" y2="23.509" xlink:href="#linearGradient4341" gradientUnits="userSpaceOnUse" x2="53.392" gradientTransform="matrix(.76208 -.76208 .76208 .76208 -27.993 47.228)" y1="22.625" x1="56.27"/>
  <linearGradient id="linearGradient4567" y2="23.509" xlink:href="#linearGradient4341" gradientUnits="userSpaceOnUse" x2="53.392" gradientTransform="matrix(1.0777 0 0 1.0777 -5.3853 -3.7078)" y1="22.625" x1="56.27"/>
 </defs>
 <metadata id="metadata2413">
  <rdf:RDF>
   <cc:Work rdf:about="">
    <dc:format>image/svg+xml</dc:format>
    <dc:type rdf:resource="http://purl.org/dc/dcmitype/StillImage"/>
    <dc:title/>
   </cc:Work>
  </rdf:RDF>
 </metadata>
 <g id="layer2" style="display:none">
  <rect id="rect3745" style="opacity:.9;filter:url(#filter3174);fill:url(#ButtonShadow)" rx="6" ry="6" height="85" width="86" y="7" x="5"/>
 </g>
 <g id="layer3">
  <path id="path3786" style="opacity:0.08;fill:url(#linearGradient3780)" d="m12-95.031c-5.5111 0-10.031 4.5202-10.031 10.031v71c0 5.5111 4.5202 10.031 10.031 10.031h72c5.5111 0 10.031-4.5202 10.031-10.031v-71c0-5.5111-4.5202-10.031-10.031-10.031h-72z" transform="scale(1,-1)"/>
  <path id="path3778" style="opacity:.1;fill:url(#linearGradient3780)" d="m12-94.031c-4.9716 0-9.0312 4.0596-9.0312 9.0312v71c0 4.9716 4.0596 9.0312 9.0312 9.0312h72c4.9716 0 9.0312-4.0596 9.0312-9.0312v-71c0-4.9716-4.0596-9.0312-9.0312-9.0312h-72z" transform="scale(1,-1)"/>
  <path id="path3770" style="opacity:.2;fill:url(#linearGradient3780)" d="m12-93c-4.4091 0-8 3.5909-8 8v71c0 4.4091 3.5909 8 8 8h72c4.4091 0 8-3.5909 8-8v-71c0-4.4091-3.5909-8-8-8h-72z" transform="scale(1,-1)"/>
  <rect id="rect3723" style="opacity:.3;fill:url(#linearGradient3780)" transform="scale(1,-1)" rx="7" ry="7" height="85" width="86" y="-92" x="5"/>
  <rect id="rect3716" style="opacity:.45;fill:url(#linearGradient3721)" transform="scale(1,-1)" rx="6" ry="6" height="84" width="84" y="-91" x="6"/>
 </g>
 <g id="layer9">
  <path id="path2955" style="fill:#333" d="m64 48a16 16 0 1 1 -32 0 16 16 0 1 1 32 0z" transform="translate(0,-2)"/>
  <g id="g4592" transform="matrix(.58883 0 0 .58883 19.082 18.054)" clip-path="url(#clipPath2521)">
   <path id="path4319" style="fill:url(#linearGradient4571);fill-rule:evenodd" d="m63.746 52.942-18.232-65.8 54.43 4.549v60.162l-36.199 1.0887z"/>
   <path id="path4329" style="opacity:.4;fill:#fff;fill-rule:evenodd" d="m45.879-13.705 17.879 66.646 1.5326-0.64021-17.879-66.612-1.5326 0.60653z"/>
   <path id="path4424" style="fill:url(#linearGradient4560);fill-rule:evenodd" d="m57.098 59.374 31.706-54.916 37.206 37.202-42.545 42.541-26.367-24.827z"/>
   <path id="path4426" style="opacity:.4;fill:#fff;fill-rule:evenodd" d="m88.806 4.4407-31.698 54.941 1.695 0.538 31.674-54.917-1.671-0.5623z"/>
   <path id="path4428" style="opacity:.6;fill:url(#linearGradient4556);fill-rule:evenodd" d="m85.302 1.0891-31.243 55.245 3.1198 2.9292 31.626-54.822-3.5032-3.3516z"/>
   <path id="path4436" style="fill:url(#linearGradient4553);fill-rule:evenodd" d="m44.668 61.788 61.252-16.412v52.611h-60.162l-1.0887-36.199z"/>
   <path id="path4438" style="opacity:.4;fill:#fff;fill-rule:evenodd" d="m105.93 45.364-61.263 16.436 0.03368 1.8359 61.229-16.436v-1.8359z"/>
   <path id="path4440" style="opacity:.6;fill:url(#linearGradient4549);fill-rule:evenodd" d="m105.93 41.054-61.263 16.436 0.13472 4.2773 61.128-16.402v-4.311z"/>
   <path id="path4448" style="fill:url(#linearGradient4546);fill-rule:evenodd" d="m34.359 54.767 54.916 31.705-37.202 37.198-42.54-42.537 24.826-26.366z"/>
   <path id="path4450" style="opacity:.4;fill:#fff;fill-rule:evenodd" d="m89.292 86.474-54.941-31.698-1.0976 1.3924 54.917 31.674 1.1214-1.3686z"/>
   <path id="path4452" style="opacity:.6;fill:url(#linearGradient4542);fill-rule:evenodd" d="m92.341 83.426-54.942-31.698l-2.9292 3.1198 54.822 31.626 3.0483-3.0483z"/>
   <path id="path4460" style="fill:url(#linearGradient4539);fill-rule:evenodd" d="m33.461 45.115 16.412 61.251h-52.611v-60.162l36.199-1.0887z"/>
   <path id="path4462" style="opacity:.4;fill:#fff;fill-rule:evenodd" d="m49.884 106.38-16.436-61.263-1.6843 0.48858 16.436 61.229 1.6843-0.4549z"/>
   <path id="path4464" style="opacity:.6;fill:url(#linearGradient4535);fill-rule:evenodd" d="m54.195 106.38-16.436-61.263-4.2773 0.13472 16.402 61.128h4.311z"/>
   <path id="path4472" style="fill:url(#linearGradient4532);fill-rule:evenodd" d="m39.472 34.048-31.706 54.916-37.202-37.202 42.541-42.541 26.367 24.827z"/>
   <path id="path4474" style="opacity:.4;fill:#fff;fill-rule:evenodd" d="m7.7642 88.981 31.698-54.941-1.392-1.193-31.674 54.917 1.3682 1.217z"/>
   <path id="path4476" style="opacity:.6;fill:url(#linearGradient4528);fill-rule:evenodd" d="m10.813 92.029 31.697-54.941-3.119-2.929-31.627 54.822 3.049 3.048z"/>
   <path id="path4484" style="fill:url(#linearGradient4525);fill-rule:evenodd" d="m-11.375-4.8125v52.594l61.25-16.406-1.0312-34.094-0.5625-2.0938h-59.656z"/>
   <path id="path4486" style="opacity:.4;fill:#fff;fill-rule:evenodd" d="m-11.383 47.805 61.263-16.436-0.48858-1.6843-61.229 16.436 0.4549 1.6843z"/>
   <path id="path4488" style="opacity:.6;fill:url(#linearGradient4521);fill-rule:evenodd" d="m-11.383 52.116 61.263-16.436-0.13472-4.2773-61.128 16.402v4.311z"/>
   <path id="path4496" style="fill:url(#linearGradient4518);fill-rule:evenodd" d="m43.219-30.5-37.188 37.188 53.625 30.969-13.277-49.293h18.094l-21.254-18.864z"/>
   <path id="path4498" style="opacity:.4;fill:#fff;fill-rule:evenodd" d="m6.6532 5.1793-0.6532 1.5082 53.656 30.968-0.503-2.227-52.5-30.25z"/>
   <path id="path4500" style="opacity:.6;fill:url(#linearGradient4514);fill-rule:evenodd" d="m6 6.6875-3.0312 3.0625 54.937 31.688 2.156-2.282-0.406-1.531-53.656-30.938z"/>
   <path id="path4334" style="opacity:.6;fill:url(#linearGradient4567);fill-rule:evenodd" d="m41.635-13.544 17.803 66.482l1.4062-0.03125 1.9688-3.4375-16.865-63.013h-4.3125z"/>
  </g>
 </g>
 <g id="layer8">
  <rect id="rect3277" style="fill:url(#radialGradient3299)" transform="translate(0,-2)" clip-path="url(#clipPath3733)" rx="6" ry="6" height="84" width="84" y="6" x="6"/>
 </g>
 <g id="layer7">
  <path id="path3258" style="opacity:.93585;fill:url(#linearGradient3278)" d="m84.095 47.26a34.724 34.345 0 1 1 -69.448 0 34.724 34.345 0 1 1 69.448 0z" transform="matrix(0 -1.0367 1.0482 0 -1.5372 97.185)"/>
  <path id="path3272" style="opacity:.6;fill:url(#radialGradient3301)" d="m21.924 59.648c0.18965 0.36216 0.37602 0.71379 0.58231 1.0711 8.124 14.071 26.142 18.898 40.213 10.775 14.071-8.124 18.898-26.142 10.775-40.213-0.207-0.357-0.418-0.694-0.637-1.04 7.09 13.857 2.118 31.001-11.513 38.871s-30.964 3.604-39.42-9.464z"/>
  <path id="path3296" style="opacity:.2;fill:url(#linearGradient3298)" d="m75.004 31.098a27.148 16.162 0 1 1 -54.296 0 27.148 16.162 0 1 1 54.296 0z" transform="matrix(1.3163 0 0 1.3163 -15.136 -11.836)"/>
  <path id="path3277" style="opacity:.4;fill:url(#linearGradient3298)" d="m75.004 31.098a27.148 16.162 0 1 1 -54.296 0 27.148 16.162 0 1 1 54.296 0z" transform="matrix(.74884 0 0 .74884 12.02 3.5377)"/>
  <path id="path3300" style="opacity:.2;fill:url(#linearGradient3310)" d="m75.004 31.098a27.148 16.162 0 1 1 -54.296 0 27.148 16.162 0 1 1 54.296 0z" transform="matrix(.56134 0 0 .56134 20.993 49.27)"/>
  <path id="path3312" style="opacity:.4;fill-opacity:.37607;stroke:#e67cff;stroke-linecap:square;stroke-width:1.125;fill:#e064ff" d="m40.357 62.875a4.0179 4.0179 0 1 1 -8.0357 0 4.0179 4.0179 0 1 1 8.0357 0z" transform="matrix(.88889 0 0 .88889 29.591 3.9683)"/>
  <path id="path3322" style="opacity:.3;fill-opacity:.37607;stroke:#e67cff;stroke-linecap:square;stroke-width:2.0455;fill:#e064ff" d="m40.357 62.875a4.0179 4.0179 0 1 1 -8.0357 0 4.0179 4.0179 0 1 1 8.0357 0z" transform="matrix(.48889 0 0 .48889 37.698 23.261)"/>
  <path id="path3324" style="opacity:.4;fill-opacity:.5;stroke:#8de951;stroke-linecap:square;stroke-width:1.3235;fill:#b1e88b" d="m40.357 62.875a4.0179 4.0179 0 1 1 -8.0357 0 4.0179 4.0179 0 1 1 8.0357 0z" transform="matrix(.75556 0 0 .75556 32.115 -21.041)"/>
  <path id="path3416" style="fill:url(#radialGradient3430)" d="m18.399 37.385c-0.599 2.364-0.925 4.836-0.915 7.386l11.454-0.04735c-0.0045-1.5482 0.148-3.1323 0.56171-4.6998 0.25368-0.96115 0.56142-1.875 0.95317-2.7542l-10.361-4.7061c-0.69391 1.544-1.2693 3.1512-1.6927 4.8214zm3.9989-9.0284 9.4912 6.2865c0.95436-1.4415 2.1016-2.7295 3.4003-3.8213 0.64932-0.54588 1.3261-1.0476 2.0434-1.4968 0.71727-0.44925 1.4784-0.83687 2.2515-1.1834l-0.02224-0.03819c0.98481-0.4382 2.0055-0.77743 3.0531-1.0364l-0.008 0.03022c0.35493-0.0892 0.70388-0.16765 1.0643-0.23622 1.0812-0.20572 2.1947-0.31719 3.3166-0.32048l-0.047-11.454c-1.6794 0.0063-3.3275 0.16512-4.9327 0.44337l-0.02224-0.03819c-0.23335 0.04091-0.45215 0.09616-0.68405 0.14266-0.60916 0.12214-1.1965 0.27137-1.7945 0.43134-1.6785 0.44898-3.3197 1.0189-4.8891 1.7477-0.91764 0.42682-1.8081 0.91193-2.6716 1.428-0.11344 0.0678-0.23126 0.13088-0.34371 0.20016-0.19431 0.11888-0.3893 0.24051-0.58083 0.36382-0.10546 0.06839-0.20897 0.13844-0.3135 0.20814-0.40769 0.26983-0.7996 0.55871-1.1936 0.8485-0.054 0.03972-0.107 0.07908-0.16074 0.11918-0.1908 0.14336-0.37937 0.28439-0.56656 0.43223-0.34516 0.27087-0.69361 0.54159-1.0265 0.82795-0.1028 0.08889-0.19767 0.18627-0.29923 0.27654-1.9296 1.7153-3.6348 3.6796-5.0639 5.8385z"/>
 </g>
 <g id="layer1">
  <path id="rect2476" style="fill:url(#linearGradient3229)" d="m12 6c-3.324 0-6 2.676-6 6v72c0 3.324 2.676 6 6 6h72c3.324 0 6-2.676 6-6v-72c0-3.324-2.676-6-6-6zm36 5c19.32 0 35 15.68 35 35s-15.68 35-35 35-35-15.68-35-35 15.68-35 35-35z"/>
  <path id="path2522" style="stroke:url(#linearGradient3301);stroke-linecap:square;stroke-width:1.9432;fill:none" d="m81.065 46.187a35.292 32.767 0 1 1 -70.584 0 35.292 32.767 0 1 1 70.584 0z" transform="matrix(0 -.99172 1.0682 0 -1.3347 91.394)"/>
  <g id="text2997" style="opacity:.4" transform="matrix(.52652 -.85016 .85016 .52652 27.395 -12.941)">
   <path id="path3021" d="m-38.055 9.2452c-0.0035 0.12756-0.0287 0.24215-0.07574 0.34378-0.0457 0.10036-0.11184 0.18584-0.19842 0.25644-0.08524 0.069333-0.18957 0.12187-0.31297 0.1576-0.12211 0.03577-0.26191 0.05152-0.4194 0.04726-0.13797-0.0037-0.271-0.02166-0.39908-0.053788-0.12678-0.032089-0.24407-0.078248-0.35185-0.13848l0.01522-0.56229c0.06167 0.031629 0.124 0.062624 0.187 0.092985 0.06304 0.029061 0.1268 0.055535 0.19128 0.079424 0.06578 0.023925 0.13104 0.043276 0.19577 0.058053 0.06603 0.014814 0.13158 0.023101 0.19666 0.024862 0.06638 0.0018 0.1232-0.00383 0.17044-0.016878 0.04858-0.014315 0.08754-0.034101 0.11688-0.059359 0.03068-0.026523 0.05301-0.057831 0.06702-0.093924 0.01534-0.037358 0.02361-0.078165 0.02481-0.12242 0.0014-0.053365-0.009-0.10054-0.03134-0.14152-0.021-0.04225-0.05185-0.08151-0.09255-0.11778-0.03936-0.037536-0.08787-0.074019-0.14553-0.10945-0.05636-0.035391-0.11982-0.072929-0.19038-0.11262-0.05903-0.032858-0.12504-0.072419-0.19803-0.11868-0.07299-0.046262-0.1418-0.10283-0.20642-0.16971-0.06328-0.068142-0.1158-0.14902-0.15755-0.24263-0.04172-0.094912-0.06082-0.20745-0.05729-0.33761 0.0035-0.12756 0.02736-0.24088 0.07173-0.33998 0.0457-0.10036 0.10853-0.18398 0.1885-0.25085 0.08-0.06817 0.17581-0.11898 0.28743-0.15243 0.11292-0.033412 0.23837-0.048252 0.37634-0.044519 0.06898 0.00187 0.13589 0.00824 0.20073 0.019111 0.06613 0.010911 0.13086 0.025689 0.19418 0.044334 0.06462 0.018686 0.12914 0.041273 0.19355 0.067762 0.06441 0.026495 0.13067 0.056945 0.19877 0.09135l-0.20798 0.46525c-0.05783-0.028917-0.11185-0.054477-0.16205-0.076679-0.0502-0.022198-0.09919-0.041108-0.14696-0.056732-0.04777-0.015619-0.095-0.027318-0.14168-0.035097-0.04535-0.00904-0.09145-0.014196-0.1383-0.015467-0.10153-0.00275-0.18036 0.022474-0.23651 0.075659-0.05481 0.051923-0.08343 0.12279-0.08586 0.2126-0.0013 0.048161 0.0053 0.091326 0.01994 0.12949 0.01593 0.036905 0.04103 0.072102 0.07529 0.10559 0.03556 0.033529 0.08087 0.06797 0.13593 0.10333 0.05635 0.035394 0.1243 0.075659 0.20384 0.12079 0.09621 0.054709 0.18458 0.11051 0.2651 0.16739 0.08056 0.055587 0.14922 0.11736 0.206 0.18533 0.05811 0.066702 0.10231 0.14214 0.1326 0.22633 0.03028 0.084185 0.04391 0.18225 0.04088 0.29418"/>
   <path id="path3023" d="m-35.377 10.263-0.60096-0.05551 0.11335-1.2272-0.96659-0.089278-0.11335 1.2272-0.6029-0.05569 0.26262-2.8434 0.6029 0.055687-0.10293 1.1144 0.96659 0.089278 0.10293-1.1144 0.60096 0.055507-0.26262 2.8434"/>
   <path id="path3025" d="m-32.024 9.3525c-0.03689 0.21694-0.09618 0.41026-0.17786 0.57995-0.08041 0.16992-0.1834 0.30957-0.30898 0.41898-0.12559 0.1094-0.27386 0.18523-0.44482 0.22748-0.16968 0.04247-0.36234 0.04537-0.578 0.0087s-0.39718-0.1032-0.54456-0.19958c-0.1461-0.09617-0.26034-0.21663-0.3427-0.36139-0.08108-0.14454-0.13213-0.3104-0.15313-0.49756-0.0195-0.18822-0.0107-0.39145 0.0264-0.60967 0.03711-0.21822 0.09575-0.41165 0.17594-0.58028 0.08169-0.1697 0.18521-0.3086 0.31058-0.41672s0.27278-0.18277 0.44224-0.22396c0.17096-0.042248 0.36491-0.04493 0.58185-0.00804 0.21565 0.036673 0.39653 0.10309 0.54264 0.19925 0.14632 0.094884 0.26002 0.2146 0.34111 0.35914 0.08258 0.14348 0.13374 0.30869 0.15346 0.49563 0.02122 0.18588 0.01317 0.38857-0.02415 0.60807m-1.91-0.3248c-0.0251 0.14762-0.03486 0.28266-0.02927 0.40512 0.0058 0.12118 0.02804 0.22732 0.06671 0.31842 0.04016 0.090039 0.09697 0.16376 0.17042 0.22115 0.07345 0.057397 0.16601 0.095588 0.27769 0.11458 0.11424 0.01943 0.21551 0.01419 0.30381-0.0157 0.08957-0.02967 0.16691-0.080581 0.23201-0.15272 0.0666-0.073204 0.12202-0.16614 0.16628-0.27881 0.04575-0.11373 0.08118-0.24441 0.10628-0.39203s0.03475-0.28202 0.02894-0.4032c-0.0043-0.12224-0.0258-0.22892-0.06445-0.32002-0.03738-0.090883-0.09279-0.16502-0.16624-0.22242-0.07345-0.057394-0.16666-0.095696-0.27962-0.11491-0.11168-0.018988-0.21231-0.013646-0.30188 0.016027-0.08958 0.029677-0.16831 0.081007-0.23619 0.15399-0.0666 0.073207-0.12278 0.16667-0.16853 0.2804-0.04554 0.11245-0.08086 0.24248-0.10596 0.3901"/>
   <path id="path3027" d="m-30.792 11.122-0.5868-0.14105 0.54961-2.2864-0.69694-0.16753 0.11777-0.48995 1.9788 0.47566-0.11777 0.48995-0.69505-0.16707-0.54961 2.2864"/>
   <path id="path3029" d="m-27.138 12.213-0.65384-0.21248 0.10087-1.4479c0.0011-0.02018 0.0033-0.0482 0.0068-0.08405 0.0047-0.03545 0.0095-0.07563 0.01453-0.12055 0.005-0.04492 0.01063-0.0917 0.01685-0.14033 0.0062-0.04864 0.01266-0.09583 0.01931-0.14159 0.0067-0.04575 0.01272-0.087595 0.0182-0.12552 0.0071-0.038758 0.01306-0.069686 0.01783-0.092782-0.0097 0.021487-0.02371 0.049798-0.04198 0.084935-0.01663 0.034303-0.0357 0.071918-0.05721 0.11284-0.02112 0.03969-0.04345 0.08104-0.06701 0.12404-0.02232 0.0434-0.04466 0.08475-0.06701 0.12404-0.02111 0.03969-0.04102 0.07566-0.05972 0.10792s-0.03374 0.05749-0.04514 0.07569l-0.76465 1.2281-0.6557-0.21308 0.22868-2.9282 0.56654 0.18411-0.17336 1.5825c-0.0027 0.02102-0.0072 0.05173-0.01351 0.09213-0.0046 0.03957-0.01028 0.08428-0.0169 0.13416-0.0066 0.04987-0.01405 0.10222-0.02229 0.15705-0.007 0.05523-0.01421 0.10902-0.02164 0.16137-0.0074 0.05235-0.01447 0.1014-0.02113 0.14716-0.0063 0.04452-0.01195 0.081-0.01709 0.10945 0.01257-0.02604 0.02879-0.0591 0.04866-0.09919 0.02111-0.03969 0.04303-0.08185 0.06575-0.1265 0.02312-0.04588 0.04727-0.0928 0.07244-0.14075 0.02641-0.04755 0.05036-0.09179 0.07188-0.13272 0.02192-0.04217 0.0414-0.07896 0.05846-0.11038 0.0187-0.03226 0.03232-0.05521 0.04086-0.06887l0.87145-1.3988 0.50524 0.16419-0.11731 1.6438c-0.0011 0.01607-0.0042 0.04244-0.0093 0.07913-0.0034 0.03585-0.0087 0.07727-0.01574 0.12427-0.0054 0.04616-0.01204 0.09603-0.01987 0.14962-0.0078 0.05359-0.01588 0.10574-0.02414 0.15645-0.0066 0.04987-0.01368 0.09687-0.02117 0.14098-0.0063 0.04452-0.01195 0.081-0.01709 0.10945 0.01257-0.02604 0.02879-0.0591 0.04866-0.09919 0.02151-0.04093 0.04465-0.08475 0.06942-0.13146 0.02476-0.04672 0.04993-0.09467 0.0755-0.14386 0.0268-0.04879 0.05219-0.0953 0.07615-0.13954s0.04507-0.08393 0.06334-0.11907c0.0199-0.03597 0.03493-0.06326 0.04509-0.08187l0.79005-1.3821 0.56654 0.18411-1.5364 2.5032"/>
   <path id="path3031" d="m-24.638 13.222-1.5191-0.62996 1.0938-2.6377 1.5191 0.62996-0.19004 0.45825-0.9598-0.39803-0.24016 0.57913 0.89305 0.37035-0.19004 0.45825-0.89305-0.37035-0.28206 0.68016 0.9598 0.39803-0.19153 0.46186"/>
   <path id="path3033" d="m-24.094 13.471 1.2448-2.5698 0.5449 0.26396-1.0269 2.1199 0.93512 0.45298-0.21798 0.44998-1.48-0.71693"/>
   <path id="path3035" d="m-22.177 14.423 1.388-2.4954 0.52913 0.29431-1.1449 2.0585 0.90805 0.50507-0.24304 0.43696-1.4372-0.79938"/>
  </g>
  <g id="text3001" style="opacity:.4" transform="matrix(-.33993 .83073 -.83073 -.33993 75.316 98.79)">
   <path id="path3038" d="m-38.939 8.431 0.12463 0.00404c0.17843 0.00578 0.31375-0.025292 0.40594-0.093213 0.09355-0.067873 0.14291-0.18149 0.14807-0.34086 0.0048-0.14847-0.03251-0.25944-0.11194-0.33292-0.07807-0.073429-0.2036-0.11295-0.37659-0.11855l-0.16141-0.00523-0.02871 0.88673m1.3209-0.43174c-0.0042 0.13076-0.02804 0.25544-0.07142 0.37402-0.04339 0.11859-0.11218 0.22203-0.2064 0.31034-0.09286 0.088352-0.2144 0.15737-0.36463 0.20704-0.14887 0.049723-0.33228 0.071055-0.55021 0.063998l-0.14506-0.0047-0.0344 1.0624-0.63338-0.020506 0.09671-2.9871 0.82952 0.026857c0.19206 0.00622 0.35685 0.033373 0.49437 0.081456 0.13893 0.046771 0.25204 0.11179 0.33934 0.19506 0.0887 0.08196 0.15297 0.18153 0.19281 0.29872 0.03988 0.11583 0.05746 0.24662 0.05275 0.39236"/>
   <path id="path3040" d="m-35.199 10.287-0.62042-0.06176 0.13222-1.3283c0.01633-0.16409 0.0028-0.28938-0.04065-0.37588-0.04194-0.087716-0.1158-0.13684-0.22158-0.14737-0.08001-0.00796-0.14876 0.00163-0.20624 0.028775-0.05749 0.027149-0.10567 0.070972-0.14456 0.13147-0.03889 0.060499-0.06978 0.13686-0.09265 0.22908-0.02288 0.092224-0.04032 0.19868-0.05233 0.31938l-0.1065 1.07-0.62042-0.06175 0.31505-3.1652 0.62043 0.061755-0.06419 0.64484c-0.0057 0.056959-0.01303 0.11717-0.02209 0.18064-0.0089 0.062114-0.01805 0.11941-0.02738 0.17189-0.01163 0.061844-0.02246 0.1224-0.03246 0.18166l0.03255 0.00324c0.07819-0.11137 0.17139-0.18769 0.27958-0.22896 0.10833-0.042628 0.22759-0.057463 0.35778-0.044507 0.11256 0.011206 0.21264 0.037603 0.30027 0.079192 0.08911 0.040372 0.16284 0.097699 0.22118 0.17198 0.05834 0.074287 0.09988 0.16607 0.12461 0.27536 0.02486 0.10793 0.03001 0.23513 0.01543 0.38159l-0.148 1.4832"/>
   <path id="path3042" d="m-33.86 9.3299c-0.03778 0.22443-0.0347 0.39908 0.0092 0.52395 0.04416 0.12352 0.13747 0.19727 0.27993 0.22125 0.14111 0.02375 0.25286-0.01617 0.33526-0.11977 0.08239-0.1036 0.14236-0.26695 0.17991-0.49004 0.03778-0.22443 0.03436-0.39707-0.01026-0.5179-0.04439-0.12218-0.13848-0.19537-0.28228-0.21957-0.14111-0.02375-0.25264 0.01483-0.33458 0.11574-0.08037 0.099797-0.13944 0.26191-0.17722 0.48634m1.4313 0.24091c-0.03167 0.18815-0.08391 0.35072-0.15672 0.48772-0.07147 0.13723-0.1606 0.24799-0.26737 0.33228-0.10544 0.08452-0.22708 0.14213-0.36492 0.17282-0.13627 0.02958-0.28437 0.03091-0.44429 0.004-0.14918-0.02511-0.28196-0.07372-0.39834-0.14582-0.11616-0.07345-0.21157-0.16759-0.28621-0.28242-0.0733-0.1146-0.12327-0.24878-0.14991-0.40252s-0.02412-0.32468 0.0075-0.51283c0.03144-0.1868 0.0829-0.34882 0.15437-0.48605 0.07281-0.137 0.16182-0.24709 0.26704-0.33026 0.10678-0.084292 0.22831-0.14123 0.36458-0.17081 0.13627-0.029577 0.28504-0.030794 0.44631-0.00365 0.14917 0.025111 0.28195 0.073719 0.39834 0.14582 0.11639 0.072108 0.21123 0.16546 0.28454 0.28007 0.07487 0.11349 0.12563 0.2471 0.15227 0.40084 0.02663 0.15374 0.02423 0.32401-0.0072 0.51082"/>
   <path id="path3044" d="m-31.086 10.581c0.05981 0.01355 0.1178 0.01971 0.17398 0.01847 0.0575-0.000942 0.11643-0.0051 0.17677-0.01234l-0.10256 0.45256c-0.06378 0.01629-0.14031 0.0241-0.22959 0.02343-0.08825 0.00096-0.18222-0.0099-0.2819-0.03245-0.09703-0.02199-0.18485-0.05377-0.26346-0.09534s-0.14216-0.0972-0.19065-0.16688c-0.04819-0.07101-0.07953-0.15776-0.09403-0.26026-0.01287-0.10353-0.003-0.22706 0.02949-0.37061l0.24353-1.0746-0.29108-0.065966 0.05828-0.25718 0.38102-0.12745 0.28207-0.43075 0.38877 0.088106-0.10753 0.47449 0.54228 0.1229-0.10347 0.45655-0.54228-0.1229-0.24353 1.0746c-0.01958 0.08639-0.01277 0.15501 0.02042 0.20585s0.08435 0.08409 0.15346 0.09976"/>
   <path id="path3046" d="m-29.588 10.251c-0.0627 0.21878-0.07922 0.39268-0.04956 0.52168 0.03003 0.12769 0.11449 0.21144 0.25336 0.25124 0.13756 0.03942 0.25308 0.01228 0.34657-0.08143s0.17139-0.2493 0.23372-0.46678c0.0627-0.21878 0.07866-0.39071 0.04787-0.51579-0.03041-0.12638-0.11571-0.20966-0.25588-0.24984-0.13756-0.039422-0.25271-0.013588-0.34544 0.0775-0.09105 0.090157-0.16793 0.24463-0.23063 0.46341m1.3952 0.39986c-0.05257 0.18341-0.12271 0.3391-0.21042 0.46708-0.0864 0.12835-0.18738 0.22842-0.30294 0.30021-0.11425 0.07217-0.24158 0.11577-0.38199 0.13082-0.13873 0.01411-0.28604-0.0012-0.44194-0.04585-0.14542-0.04168-0.27191-0.10486-0.37948-0.18956-0.1072-0.08601-0.19144-0.19026-0.25274-0.31273-0.05999-0.1221-0.0946-0.26103-0.10384-0.41679-0.0092-0.15576 0.01243-0.32534 0.065-0.50875 0.05219-0.1821 0.12148-0.33732 0.20789-0.46567 0.08771-0.12797 0.1885-0.22738 0.30238-0.29824 0.11556-0.071788 0.2427-0.11474 0.38143-0.12886 0.13872-0.014113 0.28669 0.00136 0.4439 0.046411 0.14542 0.041678 0.27191 0.10487 0.37948 0.18957 0.10757 0.084702 0.19135 0.1881 0.25134 0.3102 0.06167 0.12117 0.09713 0.25963 0.10636 0.41539 0.0092 0.15576-0.01225 0.32469-0.06443 0.50679"/>
   <path id="path3048" d="m-25.804 12.739 0.28922-2.4176-0.017-0.007c-0.04034 0.119-0.08037 0.23369-0.1201 0.34409-0.01674 0.04764-0.03464 0.09628-0.05368 0.14592-0.01778 0.05016-0.03594 0.09943-0.05446 0.14781-0.01726 0.0489-0.03501 0.09539-0.05323 0.13948-0.01696 0.0446-0.03273 0.08454-0.04731 0.1198l-0.53099 1.2847-0.52331-0.2163 1.1416-2.762 0.79725 0.32953-0.27602 2.3589 0.01133 0.0047 1.5078-1.8498 0.79725 0.32953-1.1416 2.762-0.54598-0.22567 0.54036-1.3073c0.01353-0.03275 0.02889-0.0699 0.04607-0.11146 0.01844-0.04104 0.03792-0.0846 0.05844-0.13068s0.0413-0.09279 0.06234-0.14013c0.0223-0.04682 0.04345-0.09264 0.06345-0.13746 0.04876-0.10371 0.09872-0.2121 0.14988-0.32515l-0.01511-0.0062-1.5478 1.893-0.53843-0.22255"/>
   <path id="path3050" d="m-22.265 14.381 0.03463-0.33151-0.01637-0.0084c-0.06802 0.03401-0.1323 0.06075-0.19285 0.08022-0.05993 0.01825-0.12007 0.02797-0.18042 0.02915-0.06035 0.0012-0.12335-0.0074-0.18898-0.02579-0.06442-0.01776-0.13542-0.04655-0.21301-0.08639-0.08244-0.04233-0.15228-0.09427-0.20953-0.15584-0.05662-0.06278-0.09762-0.13361-0.12298-0.21251-0.02353-0.07949-0.0293-0.16671-0.01731-0.26166 0.01261-0.09617 0.04724-0.19941 0.10388-0.30974 0.1108-0.2158 0.26145-0.33914 0.45195-0.37001 0.19112-0.03209 0.42708 0.01706 0.70789 0.14745l0.3293 0.15529 0.07843-0.15276c0.04295-0.08365 0.05045-0.15793 0.0225-0.22284s-0.08558-0.11977-0.17286-0.16459c-0.08729-0.04482-0.1793-0.07597-0.27602-0.09346-0.09551-0.01687-0.19599-0.02556-0.30143-0.02608l0.0086-0.45978c0.13109-0.0047 0.26687 0.0083 0.40734 0.0391 0.14046 0.03076 0.27859 0.081 0.41438 0.15072 0.25338 0.1301 0.41686 0.2891 0.49043 0.477 0.07478 0.18853 0.04992 0.40403-0.07457 0.6465l-0.69562 1.3548-0.38735-0.19888m0.32-1.026-0.18741-0.08703c-0.0752-0.03555-0.14262-0.0579-0.20225-0.06708-0.05964-0.0092-0.11268-0.0073-0.15914 0.0056-0.04463 0.01232-0.08449 0.03475-0.11957 0.06729-0.03326 0.03195-0.06233 0.07217-0.08723 0.12066-0.04358 0.08487-0.05409 0.15606-0.03154 0.2136 0.02317 0.05632 0.06809 0.1016 0.13477 0.13584 0.05092 0.02614 0.10256 0.04193 0.15492 0.04737 0.05298 0.0042 0.10395-0.0025 0.1529-0.02031 0.05078-0.01835 0.09803-0.04771 0.14174-0.08808 0.04433-0.04158 0.0833-0.09511 0.11691-0.16057l0.0859-0.1673"/>
   <path id="path3052" d="m-19.615 15.91-0.53457-0.3209 0.68704-1.1445c0.08487-0.14138 0.12673-0.26011 0.12558-0.35617 0.000719-0.09653-0.04566-0.17285-0.13913-0.22896-0.07011-0.04208-0.13695-0.06313-0.20052-0.06315-0.06357-0.000013-0.12586 0.01902-0.18687 0.0571-0.05984 0.03879-0.1198 0.09498-0.17988 0.16859s-0.12134 0.16241-0.18376 0.2664l-0.55342 0.92192-0.53457-0.3209 1.1763-1.9595 0.40838 0.24514-0.07859 0.29377 0.0298 0.01789c0.0582-0.03341 0.11804-0.0563 0.17951-0.06868 0.06264-0.01167 0.12492-0.01481 0.18686-0.0094 0.06193 0.0054 0.12293 0.01896 0.183 0.04071 0.06076 0.02058 0.11919 0.04771 0.17528 0.08137 0.09581 0.05752 0.17444 0.12379 0.2359 0.19883 0.06215 0.07387 0.10374 0.15685 0.12475 0.24894s0.01936 0.19282-0.005 0.3022c-0.02363 0.10821-0.07332 0.22541-0.14907 0.3516l-0.767 1.2777"/>
   <path id="path3054" d="m-17.987 17.018 0.07809-0.32403-0.01511-0.01049c-0.07192 0.02474-0.13917 0.04276-0.20176 0.05406-0.06181 0.01018-0.12271 0.01188-0.18269 0.0051-0.05998-0.0068-0.12129-0.02363-0.18392-0.05051-0.06151-0.0261-0.12809-0.06402-0.19974-0.11375-0.07613-0.05284-0.13851-0.11355-0.18712-0.18213-0.04784-0.0697-0.07912-0.14533-0.09385-0.22688-0.01283-0.0819-0.007-0.16912 0.01738-0.26166 0.02519-0.09366 0.07315-0.19143 0.14386-0.29331 0.13832-0.19928 0.30393-0.30166 0.49683-0.30712 0.19368-0.0066 0.42109 0.07329 0.68223 0.2396l0.30592 0.1974 0.09791-0.14107c0.05362-0.07725 0.07085-0.14989 0.05172-0.21792-0.01914-0.06803-0.06902-0.13002-0.14962-0.18596-0.08061-0.05595-0.1677-0.09897-0.26127-0.12908-0.09245-0.02933-0.1909-0.05121-0.29535-0.06564l0.06919-0.45463c0.13056 0.01265 0.26344 0.0435 0.39862 0.09253s0.26546 0.11706 0.39086 0.20409c0.23399 0.16241 0.37505 0.3416 0.42317 0.53757 0.04924 0.19675-0.0038 0.40708-0.15926 0.631l-0.86836 1.2511-0.35771-0.24827m0.45263-0.97482-0.17428-0.11101c-0.06985-0.04516-0.13372-0.07622-0.19162-0.09319-0.0579-0.01696-0.11073-0.02211-0.15849-0.01544-0.04586 0.0063-0.08833 0.0233-0.12741 0.05092-0.03718 0.02728-0.07131 0.06331-0.1024 0.10809-0.05439 0.07837-0.07421 0.14756-0.05946 0.20757 0.01553 0.05889 0.05408 0.1097 0.11566 0.15244 0.04702 0.03264 0.09612 0.0551 0.14731 0.0674 0.05196 0.01118 0.10337 0.0112 0.15424 0.000054 0.05276-0.01149 0.10347-0.03436 0.15212-0.0686 0.04943-0.03537 0.09512-0.08328 0.13709-0.14374l0.10723-0.1545"/>
   <path id="path3056" d="m-14.217 17.032-0.21035 0.26628-0.3261-0.12474c-0.0073 0.05326-0.02236 0.10305-0.04505 0.14937-0.02186 0.04526-0.05053 0.09034-0.08601 0.13526-0.07181 0.0909-0.15214 0.16291-0.24099 0.21603-0.08801 0.05205-0.18147 0.08242-0.28039 0.09112s-0.20298-0.0058-0.31218-0.04341c-0.10836-0.03871-0.21922-0.10284-0.33258-0.19238-0.0246-0.01943-0.05049-0.04162-0.07767-0.06657-0.02634-0.02602-0.04519-0.04612-0.05656-0.06031-0.03575 0.0013-0.06807 0.007-0.09695 0.0172-0.02697 0.01-0.05144 0.02884-0.0734 0.05664-0.01774 0.02246-0.02515 0.04613-0.02223 0.07101 0.0038 0.02381 0.0135 0.04887 0.0292 0.07517 0.01654 0.02523 0.03852 0.05127 0.06593 0.07813 0.02825 0.02579 0.05842 0.05136 0.0905 0.0767l0.27911 0.22049c0.08662 0.06843 0.15613 0.13983 0.20852 0.21422 0.05323 0.07332 0.08733 0.14888 0.10228 0.22668 0.01602 0.07865 0.01194 0.15966-0.01223 0.24303-0.02333 0.0823-0.06921 0.16676-0.13764 0.25338-0.08026 0.10159-0.1728 0.17698-0.27764 0.22615-0.10569 0.05024-0.22155 0.0716-0.3476 0.06408-0.12582-0.0056-0.26045-0.04076-0.40388-0.10543-0.14427-0.0636-0.29501-0.1575-0.45221-0.28168-0.12191-0.09631-0.21902-0.19213-0.29134-0.28746-0.07316-0.09427-0.1229-0.1874-0.14922-0.27939-0.02716-0.09093-0.03218-0.17912-0.01504-0.26458 0.01821-0.08461 0.05773-0.16541 0.11855-0.24241 0.05153-0.06523 0.10754-0.11304 0.16801-0.14342s0.12294-0.0479 0.1874-0.05255c0.06446-0.0047 0.12867 0.000911 0.19262 0.01669 0.06502 0.01663 0.1273 0.03891 0.18686 0.06685-0.01486-0.02737-0.02675-0.05847-0.03569-0.09332-0.0079-0.03401-0.01203-0.06942-0.01247-0.10624 0.00063-0.03597 0.0056-0.07197 0.01498-0.108 0.01127-0.03625 0.02873-0.06935 0.05239-0.09929 0.02703-0.03422 0.05634-0.06143 0.08793-0.08163 0.03266-0.01936 0.0679-0.03319 0.10574-0.04152 0.03868-0.0094 0.0809-0.01337 0.12667-0.01195 0.04577 0.0014 0.0957 0.0053 0.1498 0.01153-0.06201-0.11498-0.08533-0.23935-0.06998-0.37311 0.01642-0.13291 0.07278-0.26032 0.16909-0.38224 0.07603-0.09625 0.15901-0.1705 0.24893-0.22278 0.08992-0.05227 0.18445-0.0818 0.2836-0.08858 0.09999-0.0079 0.20374 0.0081 0.31126 0.04789 0.10751 0.03978 0.21688 0.1036 0.3281 0.19145 0.02139 0.0169 0.04418 0.03751 0.06838 0.06183 0.02504 0.02326 0.04871 0.04716 0.071 0.07172 0.0242 0.02433 0.04584 0.0475 0.06492 0.06952s0.03376 0.0397 0.04406 0.05305l0.60956 0.48153m-2.8977 1.0299c-0.02112 0.02673-0.03605 0.05662-0.04478 0.08967-0.0085 0.03496-0.0075 0.0722 0.0029 0.11172 0.01046 0.03952 0.03232 0.0811 0.06558 0.12475 0.03241 0.04471 0.0791 0.09114 0.14006 0.13929 0.16683 0.13179 0.31107 0.20752 0.43272 0.22721 0.12165 0.01968 0.21374-0.01004 0.27625-0.08918 0.05322-0.06737 0.0625-0.13298 0.02784-0.19684-0.03466-0.06385-0.10706-0.13928-0.21721-0.2263l-0.22618-0.17867c-0.02887-0.02281-0.06242-0.0441-0.10064-0.06387-0.03907-0.0187-0.07926-0.03048-0.12058-0.03533-0.04132-0.0049-0.08259-0.000982-0.1238 0.01162-0.04099 0.01451-0.07838 0.04316-0.11217 0.08593m1.3296-1.3203c-0.07688 0.09732-0.11826 0.18707-0.12413 0.26926-0.0059 0.08219 0.02807 0.15244 0.10186 0.21072 0.077 0.06083 0.15372 0.07802 0.23018 0.05158s0.15313-0.08831 0.23-0.18563c0.07603-0.09625 0.11932-0.18622 0.12988-0.26994 0.01162-0.08287-0.0216-0.15513-0.09967-0.2168-0.14651-0.11573-0.30255-0.0688-0.46813 0.1408"/>
   <path id="path3058" d="m-13.364 18.313c-0.0822-0.07368-0.17663-0.10615-0.28328-0.09743-0.10564 0.0096-0.218 0.07272-0.33709 0.18926l0.59216 0.53076c0.04537-0.05267 0.08153-0.10628 0.10847-0.16083 0.02693-0.05455 0.04232-0.10848 0.04617-0.16177 0.0047-0.0543-0.003-0.10696-0.02312-0.15798-0.02016-0.05101-0.0546-0.09835-0.10331-0.14201m-1.2259 1.4872c-0.12178-0.10915-0.218-0.22742-0.28866-0.35481s-0.1112-0.2598-0.12161-0.39724c-0.0095-0.13846 0.01361-0.28062 0.06933-0.4265 0.05764-0.14599 0.15241-0.29256 0.28431-0.43971 0.13371-0.14918 0.26937-0.26276 0.40698-0.34074 0.1376-0.07798 0.2731-0.12399 0.40648-0.13804 0.1353-0.01415 0.26697 0.0023 0.39501 0.04933 0.12905 0.04795 0.25142 0.12378 0.36711 0.22748 0.11264 0.10097 0.19866 0.20918 0.25806 0.32464 0.06132 0.11536 0.09387 0.23421 0.09767 0.35657 0.0048 0.12327-0.01925 0.24812-0.07217 0.37454-0.051 0.12632-0.13199 0.25139-0.24296 0.3752l-0.20193 0.22529-1.0382-0.93053c-0.05619 0.06677-0.09879 0.13473-0.12783 0.20387-0.02711 0.06904-0.04029 0.13683-0.03955 0.20339 0.0027 0.06645 0.01921 0.13068 0.04962 0.19272 0.03143 0.06294 0.0781 0.12216 0.14 0.17764 0.05175 0.04639 0.10274 0.08751 0.15296 0.12337 0.05214 0.03575 0.10503 0.0676 0.15868 0.09556 0.05364 0.02795 0.10905 0.05291 0.16623 0.07487 0.05808 0.02095 0.11946 0.04027 0.18413 0.05797l-0.322 0.35925c-0.0597-0.01507-0.11717-0.03365-0.17242-0.05572-0.05333-0.02218-0.10738-0.04866-0.16214-0.07944s-0.11035-0.0678-0.16676-0.11104c-0.05732-0.04223-0.11744-0.09154-0.18036-0.14793"/>
   <path id="path3060" d="m-11.024 19.944c0.01155 0.01158 0.02358 0.0246 0.0361 0.03906 0.01444 0.01447 0.02695 0.02894 0.03754 0.0434 0.01251 0.01447 0.0231 0.02797 0.03176 0.0405 0.01059 0.01254 0.0178 0.02266 0.02165 0.03038l-0.41382 0.413c-0.0058-0.0096-0.01444-0.02218-0.02598-0.03761-0.01155-0.01543-0.02454-0.03134-0.03898-0.04774-0.01251-0.01639-0.02599-0.03183-0.04043-0.0463-0.01348-0.01543-0.02503-0.02797-0.03465-0.03762-0.0568-0.05691-0.1165-0.10226-0.17911-0.13605-0.06164-0.03282-0.12619-0.05023-0.19364-0.05223-0.06553-0.002-0.13445 0.01384-0.20675 0.0475-0.07038 0.03366-0.14367 0.08852-0.21988 0.16457l-0.82329 0.82168-0.44044-0.44131 1.6176-1.6145 0.33358 0.33424-0.1781 0.30772 0.02166 0.0217c0.06458-0.01825 0.12723-0.03071 0.18795-0.0374 0.06072-0.0067 0.11902-0.0052 0.1749 0.0045 0.05781 0.0097 0.11368 0.02902 0.16762 0.05798 0.05586 0.02896 0.11075 0.07046 0.16466 0.12447"/>
  </g>
  <path id="rect4359" style="opacity:.2;fill:url(#radialGradient4375)" d="m120.78 6.125c-2.74 0.5576-4.78 2.9665-4.78 5.875v68c0 3.324 2.676 6 6 6h72c3.324 0 6-2.676 6-6v-68c0-2.9085-2.0422-5.3174-4.7812-5.875 2.2051 0.53621 3.8125 2.4908 3.8125 4.875v68c0 2.8049-2.2264 5.0312-5.0312 5.0312h-72c-2.8049 0-5.0312-2.2264-5.0312-5.0312v-68c0-2.3842 1.6074-4.3388 3.8125-4.875z"/>
  <path id="rect4377" style="opacity:.4;fill:url(#linearGradient4390)" d="m12 86c-3.324 0-6-2.676-6-6v-68c0-3.324 2.676-6 6-6h72c3.324 0 6 2.676 6 6v68c0 3.324-2.676 6-6 6zm0-0.96875h72c2.8049 0 5.0312-2.2264 5.0312-5.0312v-68c0-2.8049-2.226-5.0312-5.031-5.0312h-72c-2.8049 0-5.0312 2.2263-5.0312 5.0312v68c0 2.8049 2.2264 5.0312 5.0312 5.0312z"/>
  <path id="rect4414" style="opacity:.15;fill:url(#linearGradient4429)" d="m6 78v2c0 3.324 2.676 6 6 6h72c3.324 0 6-2.676 6-6v-2c0 3.324-2.676 6-6 6h-72c-3.324 0-6-2.676-6-6z"/>
  <path id="path4412" style="opacity:.15" d="m6 100v1c0 3.324 2.676 6 6 6h72c3.324 0 6-2.676 6-6v-1c0 3.324-2.676 6-6 6h-72c-3.324 0-6-2.676-6-6z"/>
 </g>
 <g id="layer4">
  <path id="path3888" style="fill:url(#linearGradient3228)" d="m6 80v4c0 3.324 2.676 6 6 6h72c3.324 0 6-2.676 6-6v-4c0 3.324-2.676 6-6 6h-72c-3.324 0-6-2.676-6-6z"/>
  <path id="rect4345" style="opacity:.1;color:#000000" d="m6 82v2c0 3.324 2.676 6 6 6h72c3.324 0 6-2.676 6-6v-2c0 3.324-2.676 6-6 6h-72c-3.324 0-6-2.676-6-6z"/>
  <path id="rect4336" style="opacity:.15;color:#000000" d="m6 83v1c0 3.324 2.676 6 6 6h72c3.324 0 6-2.676 6-6v-1c0 3.324-2.676 6-6 6h-72c-3.324 0-6-2.676-6-6z"/>
 </g>
 <g id="layer5">
  <rect id="rect3171" style="opacity:.1;filter:url(#filter3794);stroke:#fff;stroke-linecap:round;stroke-width:.5;fill:url(#linearGradient3613)" clip-path="url(#clipPath4355)" rx="12" ry="12" height="62" width="66" y="15" x="15"/>
 </g>
</svg>
