<?xml version="1.0" encoding="UTF-8" standalone="no"?>
<!-- Created with Inkscape (http://www.inkscape.org/) -->
<svg id="svg2408" xmlns:rdf="http://www.w3.org/1999/02/22-rdf-syntax-ns#" xmlns="http://www.w3.org/2000/svg" height="96" width="96" version="1.0" xmlns:cc="http://creativecommons.org/ns#" xmlns:xlink="http://www.w3.org/1999/xlink" xmlns:dc="http://purl.org/dc/elements/1.1/">
 <defs id="defs2410">
  <linearGradient id="linearGradient3928">
   <stop id="stop3930" style="stop-color:#3a240f" offset="0"/>
   <stop id="stop3932" style="stop-color:#3a240f;stop-opacity:0" offset="1"/>
  </linearGradient>
  <linearGradient id="linearGradient4414">
   <stop id="stop4416" style="stop-color:#dac3a2" offset="0"/>
   <stop id="stop4418" style="stop-color:#dac3a2;stop-opacity:0" offset="1"/>
  </linearGradient>
  <linearGradient id="linearGradient4370">
   <stop id="stop4372" style="stop-color:#8a5b30" offset="0"/>
   <stop id="stop4374" style="stop-color:#8a5b30;stop-opacity:0" offset="1"/>
  </linearGradient>
  <linearGradient id="linearGradient4295">
   <stop id="stop4297" style="stop-color:#b88f56" offset="0"/>
   <stop id="stop4299" style="stop-color:#d9bd98" offset="1"/>
  </linearGradient>
  <linearGradient id="ButtonShadow" y2="7.0165" gradientUnits="userSpaceOnUse" x2="45.448" gradientTransform="scale(1.0059 .99417)" y1="92.54" x1="45.448">
   <stop id="stop3750" offset="0"/>
   <stop id="stop3752" style="stop-opacity:.58824" offset="1"/>
  </linearGradient>
  <linearGradient id="linearGradient3737">
   <stop id="stop3739" style="stop-color:#fff" offset="0"/>
   <stop id="stop3741" style="stop-color:#fff;stop-opacity:0" offset="1"/>
  </linearGradient>
  <linearGradient id="linearGradient3706" y2="39.853" gradientUnits="userSpaceOnUse" x2="54.187" y1="90" x1="54.187">
   <stop id="stop4291" style="stop-color:#996c3b" offset="0"/>
   <stop id="stop4293" style="stop-color:#c19e6d" offset="1"/>
  </linearGradient>
  <filter id="filter3174" color-interpolation-filters="sRGB">
   <feGaussianBlur id="feGaussianBlur3176" stdDeviation="1.71"/>
  </filter>
  <filter id="filter4362" height="1.8526" width="1.6231" color-interpolation-filters="sRGB" y="-.42628" x="-.31156">
   <feGaussianBlur id="feGaussianBlur4364" stdDeviation="6.2124381"/>
  </filter>
  <linearGradient id="linearGradient5100" y2="9.4099" gradientUnits="userSpaceOnUse" x2="6.5963" y1="32.783" x1="47.079">
   <stop id="stop5094" style="stop-color:#be9f6a" offset="0"/>
   <stop id="stop5096" style="stop-color:#e5d2b2" offset="1"/>
  </linearGradient>
  <linearGradient id="linearGradient2489" y2="18.202" xlink:href="#linearGradient4295" gradientUnits="userSpaceOnUse" x2="6.7813" y1="42" x1="48"/>
  <linearGradient id="linearGradient3264" y2="18.082" xlink:href="#linearGradient4295" gradientUnits="userSpaceOnUse" x2="6.3304" gradientTransform="matrix(-1,0,0,1,96,0)" y1="29.04" x1="47.227"/>
  <linearGradient id="linearGradient3277" y2="47.295" gradientUnits="userSpaceOnUse" x2="50.499" y1="19.882" x1="50.499">
   <stop id="stop4311" style="stop-color:#d8cab2" offset="0"/>
   <stop id="stop4321" style="stop-color:#d2b98c" offset=".45711"/>
   <stop id="stop4323" style="stop-color:#f9f7ef" offset=".48590"/>
   <stop id="stop4325" style="stop-color:#fff" offset=".49110"/>
   <stop id="stop4327" style="stop-color:#fbf9f4" offset=".49180"/>
   <stop id="stop4329" style="stop-color:#efe7d0" offset=".4946"/>
   <stop id="stop4331" style="stop-color:#e4d6b0" offset=".49770"/>
   <stop id="stop4333" style="stop-color:#dac894" offset=".5011"/>
   <stop id="stop4335" style="stop-color:#c7a572" offset=".50490"/>
   <stop id="stop4347" style="stop-color:#d7c198" offset="1"/>
  </linearGradient>
  <linearGradient id="linearGradient3285" y2="6" xlink:href="#linearGradient3737" gradientUnits="userSpaceOnUse" x2="66.964" y1="42" x1="23.143"/>
  <linearGradient id="linearGradient4376" y2="71.877" xlink:href="#linearGradient4370" gradientUnits="userSpaceOnUse" x2="8" y1="38.127" x1="8"/>
  <linearGradient id="linearGradient4394" y2="89.666" xlink:href="#linearGradient3737" gradientUnits="userSpaceOnUse" x2="10" y1="40.263" x1="10"/>
  <linearGradient id="linearGradient4400" y2="87.03" xlink:href="#linearGradient4370" gradientUnits="userSpaceOnUse" x2="8" gradientTransform="matrix(-1,0,0,1,96,0)" y1="38.127" x1="8"/>
  <linearGradient id="linearGradient4402" y2="89.666" xlink:href="#linearGradient3737" gradientUnits="userSpaceOnUse" x2="10" gradientTransform="matrix(-1,0,0,1,96,0)" y1="40.263" x1="10"/>
  <linearGradient id="linearGradient4420" y2="52.263" xlink:href="#linearGradient4414" gradientUnits="userSpaceOnUse" x2="8.9651" y1="44.04" x1="8.9651"/>
  <linearGradient id="linearGradient4424" y2="52.263" xlink:href="#linearGradient4414" gradientUnits="userSpaceOnUse" x2="8.9651" gradientTransform="matrix(-1 0 0 1 96.087 0)" y1="44.04" x1="8.9651"/>
  <radialGradient id="radialGradient4432" gradientUnits="userSpaceOnUse" cy="73.146" cx="48" gradientTransform="matrix(.86776 0 0 .095238 6.3473 36.19)" r="42">
   <stop id="stop4428" style="stop-color:#71461e" offset="0"/>
   <stop id="stop4430" style="stop-color:#71461e;stop-opacity:0" offset="1"/>
  </radialGradient>
  <linearGradient id="linearGradient3832" y2="50.069" xlink:href="#linearGradient3737" gradientUnits="userSpaceOnUse" x2="65.263" gradientTransform="matrix(.625 0 0 .625 28.5 31.25)" y1="64.205" x1="65.263"/>
  <radialGradient id="radialGradient2858" gradientUnits="userSpaceOnUse" cy="90.172" cx="48" gradientTransform="matrix(1.1573 0 0 .99591 -7.551 .19713)" r="42">
   <stop id="stop3739-1" style="stop-color:#fff" offset="0"/>
   <stop id="stop3741-8" style="stop-color:#fff;stop-opacity:0" offset="1"/>
  </radialGradient>
  <linearGradient id="linearGradient3773" y2="72" gradientUnits="userSpaceOnUse" x2="88" gradientTransform="matrix(.9375 0 0 .9375 -140.5 3.5)" y1="72" x1="56">
   <stop id="stop3780" style="stop-color:#499119" offset="0"/>
   <stop id="stop3782" style="stop-color:#8fd625" offset="1"/>
  </linearGradient>
  <linearGradient id="linearGradient3788" y2="75.095" xlink:href="#linearGradient3737" gradientUnits="userSpaceOnUse" x2="70" gradientTransform="translate(0,4)" y1="54" x1="70"/>
  <filter id="filter3806" color-interpolation-filters="sRGB">
   <feGaussianBlur id="feGaussianBlur3808" stdDeviation="1.2"/>
  </filter>
  <linearGradient id="linearGradient3812" y2="50.069" gradientUnits="userSpaceOnUse" x2="65.263" gradientTransform="matrix(.625 0 0 .625 78.5 32.25)" y1="64.205" x1="65.263">
   <stop id="stop5012" offset="0"/>
   <stop id="stop5014" style="stop-opacity:0" offset="1"/>
  </linearGradient>
  <clipPath id="clipPath3823">
   <path id="path3825" style="fill:#fff" d="m108.81 58c-1.56 0-2.81 1.254-2.81 2.812v24.375c0 1.559 1.25 2.813 2.81 2.813h24.375c1.57 0 2.82-1.254 2.82-2.812v-24.375c0-1.559-1.25-2.813-2.81-2.813h-24.375zm7.1875 4.5h10v8.75h5l-10 13.75-10-13.75h5v-8.75z"/>
  </clipPath>
  <filter id="filter3831" color-interpolation-filters="sRGB">
   <feGaussianBlur id="feGaussianBlur3833" stdDeviation="0.6375"/>
  </filter>
  <linearGradient id="linearGradient3844" y2="72.786" gradientUnits="userSpaceOnUse" x2="90.714" y1="72.786" x1="51.429">
   <stop id="stop3702-1" style="stop-color:#d70751" offset="0"/>
   <stop id="stop3704-1" style="stop-color:#e7466b" offset="1"/>
  </linearGradient>
  <clipPath id="clipPath3871">
   <path id="path3873" style="fill:#fff" d="m0 96v60h96v-60h-96zm68 20c9.9411 0 18 8.0589 18 18s-8.0589 18-18 18-18-8.0589-18-18 8.0589-18 18-18z"/>
  </clipPath>
  <linearGradient id="linearGradient3857-6" y2="84.89" gradientUnits="userSpaceOnUse" x2="64.321" gradientTransform="translate(-2)" y1="55.31" x1="64.321">
   <stop id="stop3739-5" style="stop-color:#fff" offset="0"/>
   <stop id="stop3741-9" style="stop-color:#fff;stop-opacity:0" offset="1"/>
  </linearGradient>
  <linearGradient id="ButtonShadow-0" y2="7.0165" gradientUnits="userSpaceOnUse" x2="45.448" gradientTransform="matrix(1.0059 0 0 .99417 100 0)" y1="92.54" x1="45.448">
   <stop id="stop3750-8" offset="0"/>
   <stop id="stop3752-5" style="stop-opacity:.58824" offset="1"/>
  </linearGradient>
  <linearGradient id="linearGradient3780" y2="90.239" xlink:href="#ButtonShadow-0" gradientUnits="userSpaceOnUse" x2="32.251" gradientTransform="matrix(1.0238 0 0 1.0119 -1.1429 -98.071)" y1="6.1317" x1="32.251"/>
  <linearGradient id="linearGradient3721" y2="90.239" xlink:href="#ButtonShadow-0" gradientUnits="userSpaceOnUse" x2="32.251" gradientTransform="translate(0,-97)" y1="6.1317" x1="32.251"/>
  <linearGradient id="linearGradient3934" y2="4.6666" xlink:href="#linearGradient3928" gradientUnits="userSpaceOnUse" x2="48.401" y1="61.991" x1="48.401"/>
  <linearGradient id="linearGradient3942" y2="6.0179" xlink:href="#linearGradient3928" gradientUnits="userSpaceOnUse" x2="46.796" y1="60.307" x1="46.796"/>
 </defs>
 <metadata id="metadata2413">
  <rdf:RDF>
   <cc:Work rdf:about="">
    <dc:format>image/svg+xml</dc:format>
    <dc:type rdf:resource="http://purl.org/dc/dcmitype/StillImage"/>
    <dc:title/>
   </cc:Work>
  </rdf:RDF>
 </metadata>
 <g id="layer2" style="display:none">
  <path id="rect3745" style="opacity:.9;filter:url(#filter3174);fill:url(#ButtonShadow)" d="m11 7 37-2 37 2c3.324 0 6 2.676 6 6v73c0 3.324-2.676 6-6 6h-74c-3.324 0-6-2.676-6-6v-73c0-3.324 2.676-6 6-6z"/>
 </g>
 <g id="layer3">
  <path id="path3786" style="opacity:0.08;fill:url(#linearGradient3780)" d="m12-95.031c-5.5111 0-10.031 4.5202-10.031 10.031v71c0 5.5111 4.5202 10.031 10.031 10.031h72c5.5111 0 10.031-4.5202 10.031-10.031v-71c0-5.5111-4.5202-10.031-10.031-10.031h-72z" transform="scale(1,-1)"/>
  <path id="path3778" style="opacity:.1;fill:url(#linearGradient3780)" d="m12-94.031c-4.9716 0-9.0312 4.0596-9.0312 9.0312v71c0 4.9716 4.0596 9.0312 9.0312 9.0312h72c4.9716 0 9.0312-4.0596 9.0312-9.0312v-71c0-4.9716-4.0596-9.0312-9.0312-9.0312h-72z" transform="scale(1,-1)"/>
  <path id="path3770" style="opacity:.2;fill:url(#linearGradient3780)" d="m12-93c-4.4091 0-8 3.5909-8 8v71c0 4.4091 3.5909 8 8 8h72c4.4091 0 8-3.5909 8-8v-71c0-4.4091-3.5909-8-8-8h-72z" transform="scale(1,-1)"/>
  <rect id="rect3723" style="opacity:.3;fill:url(#linearGradient3780)" transform="scale(1,-1)" rx="7" ry="7" height="85" width="86" y="-92" x="5"/>
  <rect id="rect3716" style="opacity:.45;fill:url(#linearGradient3721)" transform="scale(1,-1)" rx="6" ry="6" height="84" width="84" y="-91" x="6"/>
 </g>
 <g id="layer1">
  <path id="rect5138" style="fill:url(#linearGradient4376)" d="m6 36v48c0 1.7818 0.77457 3.3717 2 4.4688v-52.469h-2z"/>
  <rect id="rect2419" style="fill:url(#linearGradient3706)" rx="6" ry="6" height="84" width="84" y="6" x="6"/>
  <path id="path3287" style="fill:url(#radialGradient4432)" d="m6 36v2c0 3.324 2.676 6 6 6h72c3.324 0 6-2.676 6-6v-2c0 3.324-2.676 6-6 6h-72c-3.324 0-6-2.676-6-6z"/>
  <path id="path4396" style="fill:url(#linearGradient4400)" d="m90 36v48c0 1.7818-0.77457 3.3717-2 4.4688v-52.469h2z"/>
  <rect id="rect2483" style="fill:#3c2510" rx="6" ry="6" height="24" width="84" y="18" x="6"/>
  <path id="path4398" style="opacity:.3;fill:url(#linearGradient4402)" d="m88 36v52.469c-0.57686 0.51642-1.2549 0.92309-2 1.1875v-53.656h2z"/>
  <path id="path4378" style="opacity:.3;fill:url(#linearGradient4394)" d="m8 36v52.469c0.57686 0.51642 1.2549 0.92309 2 1.1875v-53.656h-2z"/>
  <path id="path5055" style="fill:url(#linearGradient5100)" d="m12 6c-3.2266 0-6 2.2593-6 7v2 20.656l42 0.035v-29.691h-34-2z"/>
  <rect id="rect4356" style="opacity:.3;filter:url(#filter4362);fill:#dac7a8" transform="matrix(1 0 0 .85560 10 8.5841)" rx="6" ry="6" height="34.977" width="47.856" y="41.957" x="12.753"/>
  <path id="rect2481" style="fill:url(#linearGradient2489)" d="m12 6c-3.324 0-6 2.676-6 6v24c0 3.324 2.676 6 6 6l36-2v-36l-36 2z"/>
  <path id="path5008" style="opacity:.5;fill:#3a240f" d="m54.12 7h-12.12l0.06 24.062 0.135 28.938 5.6868-0.49473 6.0439-0.52533 0.03264-5.5512 0.10201-22.367 0.06018-24.062z"/>
  <path id="path3262" style="fill:url(#linearGradient3264)" d="m84 6c3.324 0 6 2.676 6 6v24c0 3.324-2.676 6-6 6l-36-2v-36l36 2z"/>
  <path id="path3926" style="opacity:.1;fill:url(#linearGradient3934)" d="m41.688 5.125c0.0042-0.0007112-0.19165 0.032337-0.1875 0.03125 0.0042-0.00109-0.16029 0.063954-0.15625 0.0625 0.004-0.00145-0.16014 0.064309-0.15625 0.0625 0.0039-0.00181-0.12871 0.06465-0.125 0.0625 0.0037-0.00215-0.15976 0.096223-0.15625 0.09375 0.0035-0.00247-0.12827 0.12778-0.125 0.125 0.0033-0.00278-0.12801 0.096809-0.125 0.09375 0.003-0.00306-0.12772 0.12832-0.125 0.125 0.0027-0.00332-0.09617 0.1598-0.09375 0.15625 0.0024-0.00355-0.09584 0.12875-0.09375 0.125 0.0021-0.00375-0.06424 0.16017-0.0625 0.15625 0.0017-0.00392-0.06389 0.16031-0.0625 0.15625 0.0014-0.00406-0.03227 0.16042-0.03125 0.15625 0.001-0.00417-0.06314 0.16049-0.0625 0.15625 0.000642-0.00424-0.00026 0.19178 0 0.1875 0.000208-0.00343 0.000769 0.08233 0 0.125v0.03125l0.062 24.031 0.124 28.938a1.0058 1.0058 0 0 0 0 0.03125c-0.000042-0.0025 0.000168 0.0962 0 0.09375-0.000168-0.0025 0.000294 0.09619 0 0.09375-0.000294-0.0024 0.03167 0.09617 0.03125 0.09375-0.000419-0.0024 0.000542 0.09615 0 0.09375s0.03191 0.09611 0.03125 0.09375c-0.000664-0.0024 0.03204 0.09608 0.03125 0.09375-0.000785-0.0023 0.03215 0.06479 0.03125 0.0625-0.000903-0.0023 0.03227 0.09599 0.03125 0.09375-0.001-0.0022 0.06363 0.09593 0.0625 0.09375-0.0011-0.0022 0.03249 0.09587 0.03125 0.09375-0.0012-0.0021 0.06385 0.06455 0.0625 0.0625-0.0014-0.0021 0.0327 0.09573 0.03125 0.09375-0.0015-0.002 0.06405 0.0644 0.0625 0.0625-0.0016-0.0019 0.06415 0.09557 0.0625 0.09375-0.0016-0.0018 0.06424 0.06423 0.0625 0.0625-0.0017-0.0017 0.09558 0.06414 0.09375 0.0625-0.0018-0.0016 0.06441 0.06405 0.0625 0.0625-0.0019-0.0015 0.06448 0.06395 0.0625 0.0625-0.002-0.0014 0.09581 0.06384 0.09375 0.0625-0.0021-0.0013 0.06462 0.03249 0.0625 0.03125-0.0021-0.0012 0.09593 0.06363 0.09375 0.0625-0.0022-0.0011 0.09599 0.03226 0.09375 0.03125-0.0022-0.001 0.09604 0.03215 0.09375 0.03125-0.0023-0.000897 0.09608 0.03203 0.09375 0.03125-0.0023-0.000779 0.09612 0.03191 0.09375 0.03125-0.0024-0.000658 0.09615 0.03179 0.09375 0.03125-0.0024-0.000536 0.09617 0.000412 0.09375 0-0.0024-0.000412 0.09619 0.03154 0.09375 0.03125-0.0024-0.000288 0.0962 0.000162 0.09375 0-0.0025-0.000162 0.09621 0.000036 0.09375 0-0.0025-0.000036 0.0962-0.00009 0.09375 0-0.0025 0.00009 0.0962-0.000216 0.09375 0l5.6875-0.5 6.0312-0.53125c-0.000893 0.000051 0.02019 0.0012 0.03125 0 0.04424-0.0047 0.12854-0.000537 0.125 0-0.0044 0.000671 0.19184-0.06358 0.1875-0.0625-0.0043 0.0011 0.16047-0.03273 0.15625-0.03125-0.0042 0.0015 0.16031-0.06437 0.15625-0.0625-0.0041 0.0019 0.16012-0.09599 0.15625-0.09375-0.0039 0.0022 0.1599-0.09634 0.15625-0.09375-0.0036 0.0026 0.12839-0.09667 0.125-0.09375-0.0034 0.0029 0.1281-0.12822 0.125-0.125-0.0031 0.0032 0.12779-0.1285 0.125-0.125-0.0028 0.0035 0.0962-0.15999 0.09375-0.15625-0.0025 0.0037 0.09584-0.1602 0.09375-0.15625-0.0021 0.004 0.09546-0.16038 0.09375-0.15625-0.0017 0.0041 0.06382-0.16052 0.0625-0.15625-0.0013 0.0043 0.03217-0.16063 0.03125-0.15625-0.000916 0.0044 0.03175-0.19194 0.03125-0.1875-0.000504 0.0044 0.000087-0.16072 0-0.15625a1.0058 1.0058 0 0 0 0 -0.03125l0.031-5.531 0.094-22.376 0.062-24.062c-0.000073 0.00479-0.000406-0.16103 0-0.15625s-0.03213-0.19221-0.03125-0.1875c0.000881 0.00471-0.0326-0.1921-0.03125-0.1875 0.0013 0.0046-0.0643-0.19194-0.0625-0.1875s-0.09599-0.16049-0.09375-0.15625c0.0022 0.00424-0.0964-0.16025-0.09375-0.15625 0.0026 0.004-0.09678-0.15996-0.09375-0.15625 0.003 0.00371-0.12839-0.15964-0.125-0.15625 0.0034 0.00339-0.15996-0.12803-0.15625-0.125 0.0037 0.00303-0.16025-0.096398-0.15625-0.09375 0.004 0.00265-0.16049-0.095986-0.15625-0.09375 0.0042 0.00224-0.16069-0.095551-0.15625-0.09375 0.0044 0.0018-0.1921-0.063848-0.1875-0.0625 0.0046 0.00135-0.19221-0.032132-0.1875-0.03125 0.0047 0.0008815-0.19228-0.031656-0.1875-0.03125 0.0048 0.0004063-0.16104 0.000073-0.15625 0h-12.031c0.0026 0.0002364-0.04386 0.00229-0.09375 0-0.03326-0.00153-0.06424 0-0.0625 0 0.0043 0-0.19183 0.000394-0.1875 0a1.0058 1.0058 0 0 0 -0.0625 0z"/>
  <path id="path3922" style="opacity:.2;fill:url(#linearGradient3942)" d="m42 6.125a0.86198 0.86198 0 0 0 -0.875 0.875l0.063 24.062 0.124 28.938a0.86198 0.86198 0 0 0 0.9375 0.84375l5.6875-0.5 6.062-0.532a0.86198 0.86198 0 0 0 0.8125 -0.84375l0.032-5.53 0.094-22.376 0.062-24.062a0.86198 0.86198 0 0 0 -0.875 -0.875h-12.125z"/>
  <path id="polygon120" style="fill:url(#linearGradient3277)" transform="matrix(1.0201 0 0 1.0201 -5.2982 5.7562)" d="m58.191-1.3603-5.941-0.4332-5.941 0.4332 0.059 25.188 0.132 28.369l5.575-0.485 5.925-0.515 0.032-5.442 0.1-21.927 0.059-25.188z"/>
  <path id="rect3266" style="opacity:.3;fill:url(#linearGradient3285)" d="m12 6c-3.324 0-6 2.676-6 6v24c0 3.324 2.676 6 6 6l36-2 36 2c3.324 0 6-2.676 6-6v-24c0-3.324-2.676-6-6-6l-36-2-36 2zm0 2 36-2 36 2c2.2458 0 4 1.7542 4 4v24c0 2.2458-1.7542 4-4 4l-36-2-36 2c-2.2458 0-4-1.754-4-4v-24c0-2.2458 1.7542-4 4-4z"/>
  <rect id="rect4363" style="opacity:.2;fill:#8d6137" height="35.714" width="1" y="4.125" x="47"/>
  <rect id="rect4365" style="opacity:.2;fill:#fff" height="35.714" width="1" y="4.125" x="48"/>
  <path id="path4404" style="fill:url(#linearGradient4420);fill-rule:evenodd" d="m6.1872 37.285c2.3991 5.5558 1.894 16.036 1.894 16.036l1.8309-0.252c-0.2525-8.208 0.4419-11.238 4.9879-11.365-7.1692-1.195-8.7128-4.419-8.7128-4.419z"/>
  <path id="path4422" style="fill:url(#linearGradient4424);fill-rule:evenodd" d="m89.9 37.285c-2.3991 5.5558-1.894 16.036-1.894 16.036l-1.831-0.252c0.252-8.208-0.442-11.238-4.988-11.365 7.169-1.195 8.713-4.419 8.713-4.419z"/>
  <path id="path3615" style="opacity:.2;fill:url(#radialGradient2858)" d="m12 90c-3.324 0-6-2.676-6-6v-2-68-2c0-0.33472 0.04135-0.6507 0.09375-0.96875 0.0487-0.2956 0.09704-0.59692 0.1875-0.875 0.0099-0.03 0.0209-0.063 0.0313-0.094 0.0989-0.2873 0.2349-0.547 0.375-0.812 0.1446-0.2735 0.3156-0.5356 0.5-0.7812 0.1844-0.2457 0.3738-0.4735 0.5937-0.6876 0.44-0.428 0.943-0.8145 1.5-1.0937 0.2786-0.1396 0.5735-0.2469 0.8748-0.3437-0.256 0.1002-0.4865 0.2362-0.7185 0.375-0.00741 0.0044-0.023866-0.0045-0.03125 0-0.031933 0.0193-0.062293 0.04251-0.09375 0.0625-0.1204 0.0767-0.23102 0.16351-0.34375 0.25-0.10617 0.0808-0.21328 0.16111-0.3125 0.25-0.1779 0.1614-0.3474 0.3453-0.5 0.5312-0.1075 0.1303-0.2183 0.2653-0.3124 0.4063-0.0251 0.0383-0.0385 0.0858-0.0626 0.125-0.0647 0.103-0.1302 0.2045-0.1874 0.3124-0.1011 0.1948-0.2057 0.4158-0.2813 0.625-0.008 0.0219-0.0236 0.0406-0.0313 0.0626-0.0318 0.0919-0.0358 0.1868-0.0624 0.2812-0.0304 0.1066-0.0704 0.203-0.0938 0.3125-0.0729 0.3415-0.125 0.6985-0.125 1.0625v2 68 2c0 2.7818 2.2182 5 5 5h2 68 2c2.7818 0 5-2.2182 5-5v-2-68-2c0-0.364-0.052-0.721-0.125-1.0625-0.044-0.2069-0.088-0.3977-0.156-0.5937-0.008-0.022-0.024-0.0407-0.031-0.0626-0.063-0.1737-0.139-0.3674-0.219-0.5312-0.042-0.0828-0.079-0.17-0.125-0.25-0.055-0.0972-0.127-0.1884-0.188-0.2812-0.094-0.141-0.205-0.276-0.312-0.4063-0.143-0.1745-0.303-0.347-0.469-0.5-0.011-0.0102-0.02-0.0211-0.031-0.0313-0.139-0.1255-0.285-0.2344-0.438-0.3437-0.102-0.0731-0.204-0.1534-0.312-0.2187-0.0074-0.0045-0.02384 0.0044-0.03125 0-0.23204-0.13873-0.46255-0.27478-0.71875-0.375 0.30153 0.0968 0.59646 0.20414 0.875 0.34375 0.55709 0.27922 1.0601 0.66569 1.5 1.0938 0.21997 0.21403 0.40937 0.44186 0.59375 0.6875s0.35541 0.50774 0.5 0.78125c0.14012 0.26505 0.27614 0.52473 0.375 0.8125 0.01041 0.03078 0.02133 0.06274 0.03125 0.09375 0.09046 0.27808 0.1388 0.5794 0.1875 0.875 0.053 0.318 0.094 0.634 0.094 0.969v2 68 2c0 3.324-2.676 6-6 6h-72z"/>
 </g>
 <g id="layer5">
  <g id="g3745" transform="translate(0,-2)">
   <rect id="rect3739" style="stroke:#825023;fill:none" rx="1.8667" ry="2" height="19" width="14" y="49.5" x="15.5"/>
   <path id="path3741" style="fill:#825023" d="m18.25 66v-9.25h-1.25l2.5-4.75 2.5 4.75h-1.25v9.25h-2.5z"/>
   <path id="path3743" style="fill:#825023" d="m24.25 66v-9.25h-1.25l2.5-4.75 2.5 4.75h-1.25v9.25h-2.5z"/>
  </g>
  <g id="text3750" style="fill:#553417">
   <path id="path3137" d="m15.148 74.082h1.0937v0.30762h-0.64941v0.25h0.55469v0.28906h-0.55469v0.58496h-0.44434v-1.4316"/>
   <path id="path3139" d="m17.176 75.278h-0.50391l-0.06934 0.23633h-0.45215l0.53809-1.4316h0.48242l0.53809 1.4316h-0.46289l-0.07031-0.23633m-0.09277-0.30957-0.1582-0.51465-0.15723 0.51465h0.31543"/>
   <path id="path3141" d="m17.849 74.082h1.1855v0.30566h-0.74219v0.22754h0.68848v0.29199h-0.68848v0.28223h0.76367v0.32422h-1.207v-1.4316"/>
   <path id="path3143" d="m19.298 74.082h0.41308l0.53906 0.79199v-0.79199h0.41699v1.4316h-0.41699l-0.53613-0.78613v0.78613h-0.41602v-1.4316"/>
   <path id="path3145" d="m20.927 74.082h1.252v0.28613l-0.80273 0.83789h0.83203v0.30762h-1.3584v-0.29688l0.79395-0.8291h-0.7168v-0.30566"/>
   <path id="path3147" d="m23.289 75.278h-0.50391l-0.06934 0.23633h-0.45215l0.53809-1.4316h0.48242l0.53809 1.4316h-0.46289l-0.07031-0.23633m-0.09277-0.30957-0.1582-0.51465-0.15723 0.51465h0.31543"/>
  </g>
  <g id="text3754" style="fill:#553417">
   <path id="path3037" d="m15.11 81.514v-1.0737h0.14209v0.53247l0.5332-0.53247h0.19263l-0.45044 0.43506 0.47022 0.63867h-0.1875l-0.38232-0.54346-0.17578 0.17139v0.37207h-0.14209"/>
   <path id="path3039" d="m16.633 81.263 0.13623 0.01685c-0.02149 0.07959-0.06128 0.14136-0.11938 0.1853-0.05811 0.04395-0.13232 0.06592-0.22266 0.06592-0.11377 0-0.2041-0.03491-0.271-0.10474-0.06641-0.07031-0.09961-0.1687-0.09961-0.29517 0-0.13086 0.03369-0.23242 0.10107-0.30469 0.06738-0.07226 0.15478-0.1084 0.26221-0.1084 0.104 0.000001 0.18896 0.0354 0.25488 0.1062s0.09888 0.17041 0.09888 0.29883c-0.000001 0.0078-0.000245 0.01953-0.000733 0.03516h-0.58008c0.0049 0.08545 0.02905 0.15088 0.07251 0.19629s0.09766 0.06812 0.1626 0.06812c0.04834 0 0.0896-0.0127 0.12378-0.03809s0.06128-0.06592 0.0813-0.12158m-0.43286-0.21314h0.43433c-0.0059-0.06543-0.02246-0.1145-0.0498-0.14722-0.04199-0.05078-0.09644-0.07617-0.16333-0.07617-0.06055 0.000001-0.11157 0.02026-0.15308 0.06079-0.04102 0.04053-0.06372 0.09473-0.06812 0.1626"/>
   <path id="path3041" d="m17.468 81.263 0.13623 0.01685c-0.02149 0.07959-0.06128 0.14136-0.11938 0.1853-0.05811 0.04395-0.13232 0.06592-0.22266 0.06592-0.11377 0-0.2041-0.03491-0.271-0.10474-0.06641-0.07031-0.09961-0.1687-0.09961-0.29517 0-0.13086 0.03369-0.23242 0.10107-0.30469 0.06738-0.07226 0.15478-0.1084 0.26221-0.1084 0.104 0.000001 0.18896 0.0354 0.25488 0.1062s0.09888 0.17041 0.09888 0.29883c-0.000001 0.0078-0.000245 0.01953-0.000733 0.03516h-0.58008c0.0049 0.08545 0.02905 0.15088 0.07251 0.19629s0.09766 0.06812 0.1626 0.06812c0.04834 0 0.0896-0.0127 0.12378-0.03809s0.06128-0.06592 0.0813-0.12158m-0.43286-0.21314h0.43433c-0.0059-0.06543-0.02246-0.1145-0.0498-0.14722-0.04199-0.05078-0.09644-0.07617-0.16333-0.07617-0.06055 0.000001-0.11157 0.02026-0.15308 0.06079-0.04102 0.04053-0.06372 0.09473-0.06812 0.1626"/>
   <path id="path3043" d="m17.771 81.812v-1.0759h0.12012v0.10107c0.02832-0.03955 0.0603-0.06909 0.09595-0.08862 0.03564-0.02002 0.07886-0.03003 0.12964-0.03003 0.06641 0.000001 0.125 0.01709 0.17578 0.05127s0.08911 0.08252 0.11499 0.14502c0.02588 0.06201 0.03882 0.13013 0.03882 0.20435-0.000001 0.07959-0.01441 0.15137-0.04321 0.21533-0.02832 0.06348-0.06983 0.1123-0.12451 0.14648-0.0542 0.03369-0.11133 0.05054-0.17139 0.05054-0.04395 0-0.0835-0.0093-0.11865-0.02783-0.03467-0.01855-0.06323-0.04199-0.08569-0.07031v0.37866h-0.13184m0.11938-0.68262c0 0.1001 0.02026 0.17407 0.06079 0.22192s0.0896 0.07178 0.14722 0.07178c0.05859 0 0.10864-0.02466 0.15015-0.07398 0.04199-0.0498 0.06299-0.12671 0.06299-0.23071 0-0.09912-0.02051-0.17334-0.06152-0.22266-0.04053-0.04932-0.08911-0.07397-0.14575-0.07398-0.05615 0.000001-0.10596 0.02637-0.14941 0.0791-0.04297 0.05225-0.06445 0.12842-0.06445 0.22852"/>
   <path id="path3045" d="m19.022 80.592v-0.15161h0.13184v0.15161h-0.13184m0 0.92212v-0.77783h0.13184v0.77783h-0.13184"/>
   <path id="path3047" d="m19.356 81.514v-0.77783h0.11865v0.1106c0.05713-0.08545 0.13965-0.12817 0.24756-0.12817 0.04687 0.000001 0.08984 0.0085 0.12891 0.02564 0.03955 0.0166 0.06909 0.03857 0.08862 0.06592 0.01953 0.02734 0.0332 0.05982 0.04102 0.09741 0.0049 0.02441 0.0073 0.06714 0.0073 0.12817v0.47827h-0.13184v-0.47314c-0.000001-0.05371-0.0051-0.09375-0.01538-0.12012-0.01025-0.02685-0.02857-0.0481-0.05493-0.06372-0.02588-0.01611-0.0564-0.02417-0.09155-0.02417-0.05615 0-0.10474 0.01782-0.14575 0.05347-0.04053 0.03565-0.06079 0.10327-0.06079 0.20288v0.4248h-0.13184"/>
   <path id="path3049" d="m21.114 81.418c-0.04883 0.0415-0.09595 0.0708-0.14136 0.08789-0.04492 0.01709-0.09326 0.02563-0.14502 0.02563-0.08545 0-0.15112-0.02075-0.19702-0.06226-0.0459-0.04199-0.06885-0.09546-0.06885-0.1604 0-0.03809 0.0085-0.07275 0.02563-0.104 0.01758-0.03174 0.04028-0.05713 0.06812-0.07617 0.02832-0.01904 0.06006-0.03345 0.09521-0.04321 0.02588-0.0068 0.06494-0.01343 0.11719-0.01977 0.10644-0.0127 0.18481-0.02783 0.23511-0.04541 0.000488-0.01807 0.000732-0.02954 0.000733-0.03442-0.000001-0.05371-0.01245-0.09155-0.03735-0.11352-0.03369-0.02979-0.08374-0.04468-0.15015-0.04468-0.06201 0.000001-0.10791 0.01099-0.1377 0.03296-0.0293 0.02148-0.05103 0.05982-0.06519 0.11499l-0.12891-0.01758c0.01172-0.05517 0.03101-0.09961 0.05786-0.1333 0.02686-0.03418 0.06567-0.0603 0.11646-0.07837 0.05078-0.01855 0.10962-0.02783 0.17651-0.02783 0.06641 0.000001 0.12036 0.0078 0.16186 0.02344 0.0415 0.01563 0.07202 0.0354 0.09155 0.05933 0.01953 0.02344 0.0332 0.05322 0.04102 0.08935 0.0044 0.02246 0.0066 0.06299 0.0066 0.12158v0.17578c0 0.12256 0.0027 0.2002 0.0081 0.23291 0.0059 0.03223 0.01709 0.06323 0.03369 0.09302h-0.1377c-0.01367-0.02734-0.02246-0.05933-0.02637-0.09595m-0.01099-0.29443c-0.04785 0.01953-0.11963 0.03613-0.21533 0.04981-0.0542 0.0078-0.09253 0.0166-0.11499 0.02637-0.02246 0.0098-0.0398 0.02417-0.052 0.04321-0.01221 0.01855-0.01831 0.03931-0.01831 0.06226 0 0.03516 0.01318 0.06445 0.03955 0.08789 0.02686 0.02344 0.06592 0.03516 0.11719 0.03516 0.05078 0 0.09595-0.01099 0.1355-0.03296 0.03955-0.02246 0.0686-0.05298 0.08716-0.09155 0.01416-0.02978 0.02124-0.07373 0.02124-0.13184v-0.04834"/>
   <path id="path3051" d="m21.805 81.282 0.13037-0.02051c0.0073 0.05225 0.02759 0.09229 0.06079 0.12012 0.03369 0.02783 0.08057 0.04175 0.14062 0.04175 0.06055 0 0.10547-0.01221 0.13476-0.03662 0.0293-0.0249 0.04395-0.05395 0.04395-0.08716-0.000001-0.02979-0.01294-0.05322-0.03882-0.07031-0.01807-0.01172-0.06299-0.02661-0.13476-0.04468-0.09668-0.02441-0.16382-0.04541-0.20142-0.06299-0.03711-0.01807-0.06543-0.04272-0.08496-0.07398-0.01904-0.03174-0.02857-0.06665-0.02857-0.10474 0-0.03467 0.0078-0.06665 0.02344-0.09595 0.01611-0.02978 0.03784-0.05444 0.06518-0.07397 0.02051-0.01514 0.04834-0.02783 0.0835-0.03809 0.03564-0.01074 0.07373-0.01611 0.11426-0.01611 0.06104 0.000001 0.1145 0.0088 0.1604 0.02637 0.04639 0.01758 0.08057 0.04151 0.10254 0.07178 0.02197 0.02979 0.03711 0.06982 0.04541 0.12012l-0.12891 0.01758c-0.0059-0.04004-0.02295-0.07129-0.05127-0.09375-0.02783-0.02246-0.06738-0.03369-0.11865-0.03369-0.06055 0.000001-0.10376 0.01001-0.12964 0.03003s-0.03882 0.04346-0.03882 0.07031c0 0.01709 0.0054 0.03247 0.01611 0.04614 0.01074 0.01416 0.02759 0.02588 0.05054 0.03516 0.01318 0.0049 0.052 0.01611 0.11646 0.03369 0.09326 0.0249 0.1582 0.04541 0.19482 0.06152 0.03711 0.01563 0.06616 0.03858 0.08716 0.06885s0.03149 0.06787 0.03149 0.11279c-0.000001 0.04395-0.01294 0.08545-0.03882 0.12451-0.02539 0.03858-0.06226 0.0686-0.1106 0.09009-0.04834 0.021-0.10303 0.03149-0.16406 0.03149-0.10107 0-0.17822-0.021-0.23144-0.06299-0.05274-0.04199-0.08643-0.10425-0.10107-0.18677"/>
   <path id="path3053" d="m23.115 81.418c-0.04883 0.0415-0.09595 0.0708-0.14136 0.08789-0.04492 0.01709-0.09326 0.02563-0.14502 0.02563-0.08545 0-0.15112-0.02075-0.19702-0.06226-0.0459-0.04199-0.06885-0.09546-0.06885-0.1604 0-0.03809 0.0085-0.07275 0.02563-0.104 0.01758-0.03174 0.04028-0.05713 0.06812-0.07617 0.02832-0.01904 0.06006-0.03345 0.09521-0.04321 0.02588-0.0068 0.06494-0.01343 0.11719-0.01977 0.10644-0.0127 0.18481-0.02783 0.23511-0.04541 0.000488-0.01807 0.000732-0.02954 0.000732-0.03442 0-0.05371-0.01245-0.09155-0.03735-0.11352-0.03369-0.02979-0.08374-0.04468-0.15015-0.04468-0.06201 0.000001-0.10791 0.01099-0.1377 0.03296-0.0293 0.02148-0.05102 0.05982-0.06518 0.11499l-0.12891-0.01758c0.01172-0.05517 0.03101-0.09961 0.05786-0.1333 0.02686-0.03418 0.06567-0.0603 0.11646-0.07837 0.05078-0.01855 0.10962-0.02783 0.17651-0.02783 0.06641 0.000001 0.12036 0.0078 0.16187 0.02344 0.0415 0.01563 0.07202 0.0354 0.09155 0.05933 0.01953 0.02344 0.0332 0.05322 0.04102 0.08935 0.0044 0.02246 0.0066 0.06299 0.0066 0.12158v0.17578c-0.000001 0.12256 0.0027 0.2002 0.0081 0.23291 0.0059 0.03223 0.01709 0.06323 0.03369 0.09302h-0.1377c-0.01367-0.02734-0.02246-0.05933-0.02637-0.09595m-0.01099-0.29443c-0.04785 0.01953-0.11963 0.03613-0.21533 0.04981-0.0542 0.0078-0.09253 0.0166-0.11499 0.02637-0.02246 0.0098-0.03979 0.02417-0.052 0.04321-0.01221 0.01855-0.01831 0.03931-0.01831 0.06226 0 0.03516 0.01318 0.06445 0.03955 0.08789 0.02686 0.02344 0.06592 0.03516 0.11719 0.03516 0.05078 0 0.09595-0.01099 0.1355-0.03296 0.03955-0.02246 0.0686-0.05298 0.08716-0.09155 0.01416-0.02978 0.02124-0.07373 0.02124-0.13184v-0.04834"/>
   <path id="path3055" d="m23.474 81.514v-0.67529h-0.11646v-0.10254h0.11646v-0.08276c0-0.05224 0.0046-0.09106 0.01392-0.11646 0.0127-0.03418 0.03491-0.06177 0.06665-0.08276 0.03223-0.02148 0.07715-0.03223 0.13477-0.03223 0.03711 0.000001 0.07813 0.0044 0.12305 0.01318l-0.01977 0.11499c-0.02735-0.0049-0.05322-0.0073-0.07764-0.0073-0.04004 0.000001-0.06836 0.0085-0.08496 0.02564-0.0166 0.01709-0.0249 0.04907-0.0249 0.09595v0.07178h0.15161v0.10254h-0.15161v0.67529h-0.1311"/>
   <path id="path3057" d="m24.391 81.263 0.13623 0.01685c-0.02148 0.07959-0.06128 0.14136-0.11938 0.1853-0.05811 0.04395-0.13232 0.06592-0.22266 0.06592-0.11377 0-0.2041-0.03491-0.271-0.10474-0.06641-0.07031-0.09961-0.1687-0.09961-0.29517 0-0.13086 0.03369-0.23242 0.10107-0.30469 0.06738-0.07226 0.15478-0.1084 0.26221-0.1084 0.104 0.000001 0.18896 0.0354 0.25488 0.1062s0.09888 0.17041 0.09888 0.29883c0 0.0078-0.000245 0.01953-0.000732 0.03516h-0.58008c0.0049 0.08545 0.02905 0.15088 0.07251 0.19629s0.09766 0.06812 0.1626 0.06812c0.04834 0 0.0896-0.0127 0.12378-0.03809s0.06128-0.06592 0.0813-0.12158m-0.43286-0.21314h0.43433c-0.0059-0.06543-0.02246-0.1145-0.0498-0.14722-0.04199-0.05078-0.09644-0.07617-0.16333-0.07617-0.06055 0.000001-0.11157 0.02026-0.15308 0.06079-0.04102 0.04053-0.06372 0.09473-0.06811 0.1626"/>
   <path id="path3059" d="m25.11 81.812v-1.0759h0.12012v0.10107c0.02832-0.03955 0.0603-0.06909 0.09595-0.08862 0.03564-0.02002 0.07886-0.03003 0.12964-0.03003 0.06641 0.000001 0.125 0.01709 0.17578 0.05127s0.08911 0.08252 0.11499 0.14502c0.02588 0.06201 0.03882 0.13013 0.03882 0.20435-0.000001 0.07959-0.01441 0.15137-0.04321 0.21533-0.02832 0.06348-0.06983 0.1123-0.12451 0.14648-0.0542 0.03369-0.11133 0.05054-0.17139 0.05054-0.04395 0-0.0835-0.0093-0.11865-0.02783-0.03467-0.01855-0.06323-0.04199-0.08569-0.07031v0.37866h-0.13184m0.11938-0.68262c0 0.1001 0.02026 0.17407 0.06079 0.22192s0.0896 0.07178 0.14722 0.07178c0.05859 0 0.10864-0.02466 0.15015-0.07398 0.04199-0.0498 0.06299-0.12671 0.06299-0.23071 0-0.09912-0.02051-0.17334-0.06152-0.22266-0.04053-0.04932-0.08911-0.07397-0.14575-0.07398-0.05615 0.000001-0.10596 0.02637-0.14941 0.0791-0.04297 0.05225-0.06445 0.12842-0.06445 0.22852"/>
   <path id="path3061" d="m25.942 81.514v-1.0737h0.13184v1.0737h-0.13184"/>
   <path id="path3063" d="m26.786 81.418c-0.04883 0.0415-0.09595 0.0708-0.14136 0.08789-0.04492 0.01709-0.09326 0.02563-0.14502 0.02563-0.08545 0-0.15112-0.02075-0.19702-0.06226-0.0459-0.04199-0.06885-0.09546-0.06885-0.1604 0-0.03809 0.0085-0.07275 0.02563-0.104 0.01758-0.03174 0.04028-0.05713 0.06812-0.07617 0.02832-0.01904 0.06006-0.03345 0.09521-0.04321 0.02588-0.0068 0.06494-0.01343 0.11719-0.01977 0.10644-0.0127 0.18481-0.02783 0.23511-0.04541 0.000488-0.01807 0.000732-0.02954 0.000733-0.03442-0.000001-0.05371-0.01245-0.09155-0.03735-0.11352-0.03369-0.02979-0.08374-0.04468-0.15015-0.04468-0.06201 0.000001-0.10791 0.01099-0.1377 0.03296-0.0293 0.02148-0.05103 0.05982-0.06519 0.11499l-0.12891-0.01758c0.01172-0.05517 0.03101-0.09961 0.05786-0.1333 0.02686-0.03418 0.06567-0.0603 0.11646-0.07837 0.05078-0.01855 0.10962-0.02783 0.17651-0.02783 0.06641 0.000001 0.12036 0.0078 0.16186 0.02344 0.0415 0.01563 0.07202 0.0354 0.09155 0.05933 0.01953 0.02344 0.0332 0.05322 0.04102 0.08935 0.0044 0.02246 0.0066 0.06299 0.0066 0.12158v0.17578c0 0.12256 0.0027 0.2002 0.0081 0.23291 0.0059 0.03223 0.01709 0.06323 0.03369 0.09302h-0.1377c-0.01367-0.02734-0.02246-0.05933-0.02637-0.09595m-0.01099-0.29443c-0.04785 0.01953-0.11963 0.03613-0.21533 0.04981-0.0542 0.0078-0.09253 0.0166-0.11499 0.02637-0.02246 0.0098-0.0398 0.02417-0.052 0.04321-0.01221 0.01855-0.01831 0.03931-0.01831 0.06226 0 0.03516 0.01318 0.06445 0.03955 0.08789 0.02686 0.02344 0.06592 0.03516 0.11719 0.03516 0.05078 0 0.09595-0.01099 0.1355-0.03296 0.03955-0.02246 0.0686-0.05298 0.08716-0.09155 0.01416-0.02978 0.02124-0.07373 0.02124-0.13184v-0.04834"/>
   <path id="path3065" d="m27.621 81.229 0.12964 0.01685c-0.01416 0.08936-0.05054 0.15942-0.10913 0.2102-0.05811 0.05029-0.12964 0.07544-0.2146 0.07544-0.10645 0-0.19214-0.03467-0.25708-0.104-0.06445-0.06982-0.09668-0.16968-0.09668-0.29956 0-0.08398 0.01392-0.15747 0.04175-0.22046s0.07007-0.11011 0.12671-0.14136c0.05713-0.03174 0.11914-0.04761 0.18604-0.04761 0.08447 0.000001 0.15356 0.02149 0.20728 0.06445 0.05371 0.04248 0.08813 0.10303 0.10327 0.18164l-0.12817 0.01978c-0.01221-0.05224-0.03394-0.09155-0.06518-0.11792-0.03076-0.02637-0.06812-0.03955-0.11206-0.03955-0.06641 0.000001-0.12036 0.02393-0.16186 0.07178-0.0415 0.04736-0.06226 0.12256-0.06226 0.22559 0 0.10449 0.02002 0.18042 0.06006 0.22778s0.09229 0.07104 0.15674 0.07104c0.05176 0 0.09497-0.01587 0.12964-0.04761s0.05664-0.08057 0.06592-0.14648"/>
   <path id="path3067" d="m28.396 81.263 0.13623 0.01685c-0.02149 0.07959-0.06128 0.14136-0.11938 0.1853-0.05811 0.04395-0.13232 0.06592-0.22266 0.06592-0.11377 0-0.2041-0.03491-0.271-0.10474-0.06641-0.07031-0.09961-0.1687-0.09961-0.29517 0-0.13086 0.03369-0.23242 0.10107-0.30469 0.06738-0.07226 0.15478-0.1084 0.26221-0.1084 0.104 0.000001 0.18896 0.0354 0.25488 0.1062s0.09888 0.17041 0.09888 0.29883c-0.000001 0.0078-0.000245 0.01953-0.000732 0.03516h-0.58008c0.0049 0.08545 0.02905 0.15088 0.07251 0.19629s0.09766 0.06812 0.1626 0.06812c0.04834 0 0.0896-0.0127 0.12378-0.03809s0.06128-0.06592 0.0813-0.12158m-0.43286-0.21314h0.43433c-0.0059-0.06543-0.02246-0.1145-0.0498-0.14722-0.04199-0.05078-0.09644-0.07617-0.16333-0.07617-0.06055 0.000001-0.11157 0.02026-0.15308 0.06079-0.04102 0.04053-0.06372 0.09473-0.06811 0.1626"/>
   <path id="path3069" style="fill:#553417" d="m16.077 83.389h-0.23584l-0.09375-0.2439h-0.4292l-0.08862 0.2439h-0.22998l0.41821-1.0737h0.22925l0.42993 1.0737m-0.39917-0.4248-0.14795-0.39844-0.14502 0.39844h0.29297"/>
   <path id="path3071" style="fill:#553417" d="m16.905 83.389h-0.19116v-0.11426c-0.03174 0.04443-0.06934 0.07764-0.11279 0.09961-0.04297 0.02148-0.08643 0.03223-0.13037 0.03223-0.08936 0-0.16602-0.03589-0.22998-0.10767-0.06348-0.07227-0.09521-0.17285-0.09521-0.30176 0-0.13184 0.03101-0.23193 0.09302-0.30029 0.06201-0.06885 0.14038-0.10327 0.23511-0.10327 0.08691 0.000001 0.16211 0.03613 0.22559 0.1084v-0.38672h0.20581v1.0737m-0.54932-0.40576c0 0.08301 0.01147 0.14307 0.03442 0.18018 0.0332 0.05371 0.07959 0.08057 0.13916 0.08057 0.04736 0 0.08765-0.02002 0.12085-0.06006 0.0332-0.04053 0.0498-0.10083 0.0498-0.18091 0-0.08935-0.01611-0.15356-0.04834-0.19263-0.03223-0.03955-0.07349-0.05933-0.12378-0.05933-0.04883 0-0.08984 0.01953-0.12305 0.05859-0.03271 0.03858-0.04907 0.09644-0.04907 0.17358"/>
   <path id="path3073" style="fill:#553417" d="m17.093 82.611h0.1897v0.1062c0.06787-0.08252 0.14868-0.12378 0.24243-0.12378 0.0498 0.000001 0.09302 0.01026 0.12964 0.03076 0.03662 0.02051 0.06665 0.05151 0.09009 0.09302 0.03418-0.0415 0.07104-0.07251 0.1106-0.09302 0.03955-0.02051 0.08179-0.03076 0.12671-0.03076 0.05713 0.000001 0.10547 0.01172 0.14502 0.03516 0.03955 0.02295 0.06909 0.05689 0.08862 0.10181 0.01416 0.0332 0.02124 0.08691 0.02124 0.16113v0.49731h-0.20581v-0.44458c-0.000001-0.07715-0.0071-0.12695-0.02124-0.14941-0.01904-0.0293-0.04834-0.04395-0.08789-0.04395-0.02881 0-0.05591 0.0088-0.0813 0.02637-0.02539 0.01758-0.0437 0.04346-0.05493 0.07764-0.01123 0.03369-0.01685 0.08716-0.01685 0.1604v0.37354h-0.20581v-0.42627c-0.000001-0.07568-0.0037-0.12451-0.01099-0.14648-0.0073-0.02197-0.0188-0.03833-0.03442-0.04907-0.01514-0.01074-0.03589-0.01611-0.06226-0.01611-0.03174 0-0.0603 0.0085-0.08569 0.02563-0.02539 0.01709-0.0437 0.04175-0.05493 0.07397-0.01074 0.03223-0.01611 0.08569-0.01611 0.1604v0.37793h-0.20581v-0.77783"/>
   <path id="path3075" style="fill:#553417" d="m18.442 82.506v-0.19043h0.20581v0.19043h-0.20581m0 0.8833v-0.77783h0.20581v0.77783h-0.20581"/>
   <path id="path3077" style="fill:#553417" d="m19.565 83.389h-0.20581v-0.39697c-0.000001-0.08398-0.0044-0.13818-0.01318-0.1626-0.0088-0.0249-0.02319-0.04419-0.04321-0.05786-0.01953-0.01367-0.04321-0.02051-0.07105-0.02051-0.03564 0-0.06763 0.0098-0.09595 0.0293-0.02832 0.01953-0.04785 0.04541-0.05859 0.07764-0.01026 0.03223-0.01538 0.0918-0.01538 0.17871v0.3523h-0.20581v-0.77783h0.19116v0.11426c0.06787-0.08789 0.15332-0.13184 0.25635-0.13184 0.04541 0.000001 0.08691 0.0083 0.12451 0.0249 0.0376 0.01611 0.06592 0.03687 0.08496 0.06226 0.01953 0.02539 0.03296 0.0542 0.04028 0.08643 0.0078 0.03223 0.01172 0.07837 0.01172 0.13843v0.4834"/>
   <path id="path3079" style="fill:#553417" d="m19.775 82.506v-0.19043h0.20581v0.19043h-0.20581m0 0.8833v-0.77783h0.20581v0.77783h-0.20581"/>
   <path id="path3081" style="fill:#553417" d="m20.118 83.167 0.20654-0.03149c0.0088 0.04004 0.02661 0.07056 0.05347 0.09155 0.02685 0.02051 0.06445 0.03076 0.11279 0.03076 0.05322 0 0.09326-0.0098 0.12012-0.0293 0.01807-0.01367 0.0271-0.03198 0.0271-0.05493-0.000001-0.01563-0.0049-0.02856-0.01465-0.03882-0.01025-0.0098-0.0332-0.0188-0.06885-0.0271-0.16602-0.03662-0.27124-0.07007-0.31567-0.10034-0.06152-0.04199-0.09229-0.10034-0.09229-0.17505-0.000001-0.06738 0.02661-0.12402 0.07983-0.16992s0.13574-0.06885 0.24756-0.06885c0.10644 0.000001 0.18555 0.01734 0.2373 0.052 0.05176 0.03467 0.0874 0.08594 0.10693 0.15381l-0.19409 0.03589c-0.0083-0.03027-0.02417-0.05347-0.04761-0.06958-0.02295-0.01611-0.05591-0.02417-0.09888-0.02417-0.0542 0.000001-0.09302 0.0076-0.11646 0.0227-0.01563 0.01074-0.02344 0.02466-0.02344 0.04175-0.000001 0.01465 0.0068 0.0271 0.02051 0.03735 0.01855 0.01367 0.08252 0.03296 0.1919 0.05786 0.10986 0.0249 0.18652 0.05542 0.22998 0.09155 0.04297 0.03662 0.06445 0.08765 0.06445 0.15308-0.000001 0.07129-0.02979 0.13257-0.08936 0.18384s-0.14771 0.0769-0.2644 0.0769c-0.10596 0-0.18994-0.02148-0.25195-0.06445-0.06152-0.04297-0.10181-0.10132-0.12085-0.17505"/>
   <path id="path3083" style="fill:#553417" d="m21.382 82.611v0.16406h-0.14062v0.31348c0 0.06348 0.0012 0.10059 0.0037 0.11133 0.0029 0.01025 0.009 0.0188 0.01831 0.02563 0.0098 0.0068 0.02148 0.01025 0.03516 0.01025 0.01904 0 0.04663-0.0066 0.08276-0.01977l0.01758 0.15967c-0.04785 0.02051-0.10205 0.03076-0.1626 0.03076-0.03711 0-0.07056-0.0061-0.10034-0.01831-0.02979-0.0127-0.05176-0.02881-0.06592-0.04834-0.01367-0.02002-0.02319-0.04687-0.02856-0.08057-0.0044-0.02393-0.0066-0.07227-0.0066-0.14502v-0.33911h-0.09448v-0.16406h0.09448v-0.15454l0.20654-0.12012v0.27466h0.14062"/>
   <path id="path3085" style="fill:#553417" d="m21.724 83.389h-0.20581v-0.77783h0.19116v0.1106c0.03271-0.05225 0.06201-0.08667 0.08789-0.10327 0.02637-0.0166 0.05615-0.0249 0.08936-0.0249 0.04687 0.000001 0.09204 0.01294 0.1355 0.03882l-0.06372 0.17944c-0.03467-0.02246-0.06689-0.03369-0.09668-0.03369-0.02881 0.000001-0.05322 0.0081-0.07324 0.02417-0.02002 0.01563-0.03589 0.04419-0.04761 0.08569-0.01123 0.0415-0.01685 0.12842-0.01685 0.26074v0.24023"/>
   <path id="path3087" style="fill:#553417" d="m22.263 82.848-0.18677-0.03369c0.021-0.07519 0.05713-0.13086 0.1084-0.16699s0.12744-0.0542 0.22852-0.0542c0.0918 0.000001 0.16016 0.01099 0.20508 0.03296 0.04492 0.02148 0.07642 0.04907 0.09448 0.08276 0.01855 0.0332 0.02783 0.09448 0.02783 0.18384l-0.0022 0.24023c-0.000001 0.06836 0.0032 0.1189 0.0095 0.15161 0.0068 0.03223 0.01929 0.0669 0.03735 0.104h-0.20361c-0.0054-0.01367-0.01196-0.03393-0.01977-0.06079-0.0034-0.01221-0.0059-0.02026-0.0073-0.02417-0.03516 0.03418-0.07276 0.05982-0.11279 0.0769-0.04004 0.01709-0.08276 0.02563-0.12817 0.02563-0.08008 0-0.14331-0.02173-0.1897-0.06518-0.0459-0.04346-0.06885-0.09839-0.06885-0.1648 0-0.04395 0.0105-0.08301 0.03149-0.11719 0.021-0.03467 0.05029-0.06103 0.08789-0.0791 0.03809-0.01855 0.09277-0.03467 0.16406-0.04834 0.09619-0.01807 0.16284-0.03491 0.19995-0.05054v-0.02051c0-0.03955-0.0098-0.06763-0.0293-0.08423-0.01953-0.01709-0.0564-0.02563-0.1106-0.02563-0.03662 0-0.06519 0.0073-0.08569 0.02197-0.02051 0.01416-0.03711 0.03931-0.0498 0.07544m0.27539 0.16699c-0.02637 0.0088-0.06811 0.01929-0.12524 0.03149-0.05713 0.01221-0.09448 0.02417-0.11206 0.03589-0.02686 0.01904-0.04028 0.04321-0.04028 0.07251 0 0.02881 0.01074 0.05371 0.03223 0.07471 0.02148 0.021 0.04883 0.03149 0.08203 0.03149 0.03711 0 0.07251-0.01221 0.1062-0.03662 0.0249-0.01855 0.04126-0.04126 0.04907-0.06812 0.0054-0.01758 0.0081-0.05102 0.0081-0.10034v-0.04102"/>
   <path id="path3089" style="fill:#553417" d="m23.301 82.611v0.16406h-0.14062v0.31348c-0.000001 0.06348 0.0012 0.10059 0.0037 0.11133 0.0029 0.01025 0.009 0.0188 0.01831 0.02563 0.0098 0.0068 0.02148 0.01025 0.03516 0.01025 0.01904 0 0.04663-0.0066 0.08276-0.01977l0.01758 0.15967c-0.04785 0.02051-0.10205 0.03076-0.1626 0.03076-0.03711 0-0.07056-0.0061-0.10034-0.01831-0.02979-0.0127-0.05176-0.02881-0.06592-0.04834-0.01367-0.02002-0.02319-0.04687-0.02857-0.08057-0.0044-0.02393-0.0066-0.07227-0.0066-0.14502v-0.33911h-0.09448v-0.16406h0.09448v-0.15454l0.20654-0.12012v0.27466h0.14062"/>
   <path id="path3091" style="fill:#553417" d="m23.398 82.989c0-0.06836 0.01685-0.13452 0.05054-0.19849 0.03369-0.06396 0.0813-0.11279 0.14282-0.14648 0.06201-0.03369 0.1311-0.05054 0.20728-0.05054 0.11768 0.000001 0.21411 0.03833 0.28931 0.11499 0.07519 0.07617 0.11279 0.17261 0.11279 0.28931-0.000001 0.11768-0.03809 0.21533-0.11426 0.29297-0.07568 0.07715-0.17114 0.11572-0.28638 0.11572-0.07129 0-0.1394-0.01611-0.20435-0.04834-0.06445-0.03223-0.11352-0.07935-0.14722-0.14136-0.03369-0.0625-0.05054-0.13843-0.05054-0.22778m0.21094 0.01099c-0.000001 0.07715 0.01831 0.13623 0.05493 0.17725s0.08179 0.06152 0.1355 0.06152 0.09863-0.02051 0.13477-0.06152c0.03662-0.04102 0.05493-0.10058 0.05493-0.17871-0.000001-0.07617-0.01831-0.13476-0.05493-0.17578-0.03613-0.04102-0.08105-0.06152-0.13477-0.06152-0.05371 0-0.09888 0.02051-0.1355 0.06152-0.03662 0.04102-0.05493 0.1001-0.05493 0.17725"/>
   <path id="path3093" style="fill:#553417" d="m24.56 83.389h-0.20581v-0.77783h0.19116v0.1106c0.03271-0.05225 0.06201-0.08667 0.08789-0.10327 0.02637-0.0166 0.05615-0.0249 0.08936-0.0249 0.04687 0.000001 0.09204 0.01294 0.1355 0.03882l-0.06372 0.17944c-0.03467-0.02246-0.0669-0.03369-0.09668-0.03369-0.02881 0.000001-0.05322 0.0081-0.07324 0.02417-0.02002 0.01563-0.03589 0.04419-0.04761 0.08569-0.01123 0.0415-0.01685 0.12842-0.01685 0.26074v0.24023"/>
   <path id="path3095" style="fill:#553417" d="m24.873 83.167 0.20654-0.03149c0.0088 0.04004 0.02661 0.07056 0.05347 0.09155 0.02685 0.02051 0.06445 0.03076 0.11279 0.03076 0.05322 0 0.09326-0.0098 0.12012-0.0293 0.01807-0.01367 0.0271-0.03198 0.0271-0.05493 0-0.01563-0.0049-0.02856-0.01465-0.03882-0.01025-0.0098-0.0332-0.0188-0.06885-0.0271-0.16602-0.03662-0.27124-0.07007-0.31567-0.10034-0.06152-0.04199-0.09229-0.10034-0.09229-0.17505 0-0.06738 0.02661-0.12402 0.07983-0.16992s0.13574-0.06885 0.24756-0.06885c0.10644 0.000001 0.18555 0.01734 0.2373 0.052 0.05176 0.03467 0.0874 0.08594 0.10693 0.15381l-0.19409 0.03589c-0.0083-0.03027-0.02417-0.05347-0.04761-0.06958-0.02295-0.01611-0.05591-0.02417-0.09888-0.02417-0.0542 0.000001-0.09302 0.0076-0.11646 0.0227-0.01563 0.01074-0.02344 0.02466-0.02344 0.04175 0 0.01465 0.0068 0.0271 0.02051 0.03735 0.01855 0.01367 0.08252 0.03296 0.1919 0.05786 0.10986 0.0249 0.18652 0.05542 0.22998 0.09155 0.04297 0.03662 0.06445 0.08765 0.06445 0.15308 0 0.07129-0.02979 0.13257-0.08936 0.18384s-0.14771 0.0769-0.2644 0.0769c-0.10596 0-0.18994-0.02148-0.25195-0.06445-0.06152-0.04297-0.10181-0.10132-0.12085-0.17505"/>
   <path id="path3097" style="fill:#553417" d="m26.149 82.989c0-0.06836 0.01685-0.13452 0.05054-0.19849 0.03369-0.06396 0.0813-0.11279 0.14282-0.14648 0.06201-0.03369 0.1311-0.05054 0.20728-0.05054 0.11768 0.000001 0.21411 0.03833 0.28931 0.11499 0.0752 0.07617 0.11279 0.17261 0.11279 0.28931-0.000001 0.11768-0.03809 0.21533-0.11426 0.29297-0.07568 0.07715-0.17114 0.11572-0.28638 0.11572-0.07129 0-0.1394-0.01611-0.20434-0.04834-0.06445-0.03223-0.11353-0.07935-0.14722-0.14136-0.03369-0.0625-0.05054-0.13843-0.05054-0.22778m0.21094 0.01099c0 0.07715 0.01831 0.13623 0.05493 0.17725s0.08179 0.06152 0.1355 0.06152 0.09863-0.02051 0.13477-0.06152c0.03662-0.04102 0.05493-0.10058 0.05493-0.17871 0-0.07617-0.01831-0.13476-0.05493-0.17578-0.03613-0.04102-0.08106-0.06152-0.13477-0.06152s-0.09888 0.02051-0.1355 0.06152c-0.03662 0.04102-0.05493 0.1001-0.05493 0.17725"/>
   <path id="path3099" style="fill:#553417" d="m27.821 83.389h-0.20581v-0.39697c0-0.08398-0.0044-0.13818-0.01318-0.1626-0.0088-0.0249-0.02319-0.04419-0.04321-0.05786-0.01953-0.01367-0.04321-0.02051-0.07105-0.02051-0.03564 0-0.06763 0.0098-0.09595 0.0293-0.02832 0.01953-0.04785 0.04541-0.05859 0.07764-0.01025 0.03223-0.01538 0.0918-0.01538 0.17871v0.3523h-0.20581v-0.77783h0.19116v0.11426c0.06787-0.08789 0.15332-0.13184 0.25635-0.13184 0.04541 0.000001 0.08691 0.0083 0.12451 0.0249 0.0376 0.01611 0.06592 0.03687 0.08496 0.06226 0.01953 0.02539 0.03296 0.0542 0.04028 0.08643 0.0078 0.03223 0.01172 0.07837 0.01172 0.13843v0.4834"/>
   <path id="path3101" style="fill:#553417" d="m28.031 83.389v-1.0737h0.20581v1.0737h-0.20581"/>
   <path id="path3103" style="fill:#553417" d="m28.349 82.611h0.21899l0.18604 0.55225 0.18164-0.55225h0.21314l-0.27466 0.74854-0.04907 0.1355c-0.01807 0.04541-0.0354 0.08008-0.052 0.104-0.01611 0.02393-0.03491 0.04321-0.0564 0.05786-0.021 0.01514-0.04712 0.02685-0.07837 0.03516-0.03076 0.0083-0.06567 0.01245-0.10474 0.01245-0.03955 0-0.07837-0.0042-0.11646-0.01245l-0.01831-0.16113c0.03223 0.0063 0.06128 0.0095 0.08716 0.0095 0.04785 0 0.08325-0.01416 0.1062-0.04248 0.02295-0.02783 0.04053-0.06348 0.05273-0.10693l-0.2959-0.78003"/>
  </g>
  <g id="text3762" style="fill:#553417">
   <path id="path3106" d="m15.052 78.159 0.31567-0.01978c0.0068 0.05127 0.02075 0.09033 0.04175 0.11719 0.03418 0.04346 0.08301 0.06518 0.14648 0.06518 0.04736 0 0.08374-0.01099 0.10913-0.03296 0.02588-0.02246 0.03882-0.04834 0.03882-0.07764 0-0.02783-0.01221-0.05273-0.03662-0.07471-0.02441-0.02197-0.08106-0.04272-0.16992-0.06226-0.14551-0.03271-0.24927-0.07617-0.31128-0.13037-0.0625-0.0542-0.09375-0.12329-0.09375-0.20728 0-0.05517 0.01587-0.10718 0.04761-0.15601 0.03223-0.04932 0.08032-0.08789 0.14429-0.11572 0.06445-0.02832 0.15259-0.04248 0.2644-0.04248 0.13721 0.000001 0.2417 0.02564 0.31348 0.0769 0.07226 0.05078 0.11523 0.13184 0.12891 0.24316l-0.31274 0.01831c-0.0083-0.04834-0.02588-0.0835-0.05273-0.10547-0.02637-0.02197-0.06299-0.03296-0.10986-0.03296-0.03857 0.000001-0.06763 0.0083-0.08716 0.0249-0.01953 0.01611-0.0293 0.03589-0.0293 0.05933 0 0.01709 0.0081 0.03247 0.02417 0.04614 0.01562 0.01416 0.05273 0.02734 0.11133 0.03955 0.14502 0.03125 0.24878 0.06299 0.31128 0.09521 0.06299 0.03174 0.10864 0.07129 0.13696 0.11865 0.02881 0.04736 0.04321 0.10034 0.04321 0.15894-0.000001 0.06885-0.01904 0.13232-0.05713 0.19043-0.03809 0.0581-0.09131 0.1023-0.15967 0.13257-0.06836 0.02978-0.15454 0.04468-0.25854 0.04468-0.18262 0-0.30908-0.03516-0.37939-0.10547s-0.11011-0.15967-0.11938-0.26807"/>
   <path id="path3108" d="m16.137 78.127c0-0.11865 0.04004-0.21631 0.12012-0.29297 0.08008-0.07715 0.18823-0.11572 0.32446-0.11572 0.15576 0.000001 0.27344 0.04517 0.35303 0.1355 0.06396 0.07275 0.09595 0.16235 0.09595 0.2688-0.000001 0.11963-0.0398 0.21777-0.11938 0.29443-0.0791 0.07617-0.18872 0.11426-0.32886 0.11426-0.125 0-0.22608-0.03174-0.30322-0.09521-0.09473-0.07861-0.14209-0.18164-0.14209-0.30908m0.29883-0.000732c0 0.06934 0.01392 0.12061 0.04175 0.15381 0.02832 0.0332 0.06372 0.0498 0.1062 0.0498 0.04297 0 0.07812-0.01636 0.10547-0.04907 0.02783-0.03271 0.04175-0.0852 0.04175-0.15747 0-0.06738-0.01392-0.11743-0.04175-0.15015-0.02783-0.0332-0.06226-0.0498-0.10327-0.04981-0.04346 0.000001-0.07935 0.01685-0.10767 0.05054-0.02832 0.0332-0.04248 0.08398-0.04248 0.15234"/>
   <path id="path3110" d="m17.508 77.736h0.14209v0.21826h-0.14209v0.55957h-0.29883v-0.55957h-0.11133v-0.21826h0.11133v-0.03516c0-0.03174 0.0034-0.06665 0.01025-0.10474 0.0068-0.03809 0.01953-0.06909 0.03809-0.09302 0.01904-0.02441 0.04541-0.04394 0.0791-0.05859 0.03418-0.01514 0.08398-0.0227 0.14941-0.02271 0.05224 0.000001 0.12817 0.0061 0.22778 0.01831l-0.03296 0.18018c-0.03564-0.0059-0.06445-0.0088-0.08643-0.0088-0.02686 0.000001-0.04614 0.0046-0.05786 0.01392-0.01172 0.0088-0.02002 0.02295-0.0249 0.04248-0.0024 0.01074-0.0037 0.03345-0.0037 0.06811"/>
   <path id="path3112" d="m18.119 77.44v0.2959h0.16406v0.21753h-0.16406v0.27612c0 0.0332 0.0032 0.05518 0.0095 0.06592 0.0098 0.0166 0.02685 0.0249 0.05127 0.0249 0.02197 0 0.05273-0.0063 0.09229-0.01904l0.02197 0.20581c-0.07373 0.01611-0.14258 0.02417-0.20654 0.02417-0.07422 0-0.12891-0.0095-0.16406-0.02856-0.03516-0.01904-0.06128-0.04785-0.07837-0.08643-0.0166-0.03906-0.0249-0.10205-0.0249-0.18896v-0.27393h-0.10986v-0.21753h0.10986v-0.14282l0.29883-0.15308"/>
   <path id="path3114" d="m18.336 77.736h0.28857l0.12524 0.48999 0.1582-0.48999h0.2688l0.16406 0.48999 0.12524-0.48999h0.28638l-0.28638 0.77783h-0.26514l-0.15747-0.46802-0.15234 0.46802h-0.2666l-0.28857-0.77783"/>
   <path id="path3116" d="m20.093 77.988-0.28491-0.03003c0.01074-0.0498 0.02612-0.08887 0.04614-0.11719 0.02051-0.02881 0.0498-0.05371 0.08789-0.07471 0.02734-0.01514 0.06494-0.02685 0.11279-0.03516 0.04785-0.0083 0.09961-0.01245 0.15527-0.01245 0.08936 0.000001 0.16113 0.0051 0.21533 0.01538 0.0542 0.0098 0.09936 0.03052 0.1355 0.06226 0.02539 0.02197 0.04541 0.05322 0.06006 0.09375 0.01465 0.04004 0.02197 0.07837 0.02197 0.11499v0.34351c-0.000001 0.03662 0.0022 0.06543 0.0066 0.08643 0.0049 0.02051 0.01514 0.04687 0.03076 0.0791h-0.27978c-0.01123-0.02002-0.01855-0.03516-0.02197-0.04541-0.0034-0.01074-0.0068-0.02734-0.01025-0.0498-0.03906 0.0376-0.07788 0.06445-0.11646 0.08057-0.05273 0.02148-0.11401 0.03223-0.18384 0.03223-0.09277 0-0.16333-0.02148-0.21167-0.06445-0.04785-0.04297-0.07178-0.09595-0.07178-0.15894 0-0.05908 0.01733-0.10767 0.052-0.14575 0.03467-0.03809 0.09863-0.06641 0.1919-0.08496 0.11182-0.02246 0.18432-0.03809 0.21753-0.04687 0.0332-0.0093 0.06836-0.02124 0.10547-0.03589-0.000001-0.03662-0.0076-0.06226-0.02271-0.0769-0.01514-0.01465-0.04175-0.02197-0.07983-0.02197-0.04883 0.000001-0.08545 0.0078-0.10986 0.02344-0.01904 0.01221-0.03442 0.03516-0.04614 0.06885m0.25854 0.15674c-0.04102 0.01465-0.08374 0.02759-0.12817 0.03882-0.06055 0.01611-0.09888 0.03198-0.11499 0.04761-0.0166 0.01611-0.0249 0.03442-0.0249 0.05493 0 0.02344 0.0081 0.04273 0.02417 0.05786 0.0166 0.01465 0.04077 0.02197 0.07251 0.02197 0.0332 0 0.06396-0.0081 0.09228-0.02417 0.02881-0.01611 0.04907-0.03564 0.06079-0.05859 0.01221-0.02344 0.01831-0.05371 0.01831-0.09082v-0.04761"/>
   <path id="path3118" d="m20.826 77.736h0.27905v0.12744c0.02686-0.05518 0.05444-0.09302 0.08276-0.11353 0.02881-0.02099 0.06421-0.03149 0.1062-0.03149 0.04394 0.000001 0.09204 0.01367 0.14429 0.04102l-0.09229 0.2124c-0.03516-0.01465-0.06299-0.02197-0.0835-0.02197-0.03906 0.000001-0.06934 0.01611-0.09082 0.04834-0.03076 0.04541-0.04614 0.13037-0.04614 0.25488v0.26074h-0.29956v-0.77783"/>
   <path id="path3120" d="m22.375 78.199h-0.59766c0.0054 0.04785 0.01831 0.0835 0.03882 0.10693 0.02881 0.03369 0.06641 0.05054 0.11279 0.05054 0.0293 0.000001 0.05713-0.0073 0.0835-0.02197 0.01611-0.0093 0.03345-0.02564 0.052-0.04907l0.2937 0.0271c-0.04492 0.07813-0.09912 0.13428-0.1626 0.16846-0.06348 0.03369-0.15454 0.05054-0.27319 0.05054-0.10303 0-0.18408-0.0144-0.24316-0.04321-0.05908-0.0293-0.10815-0.07544-0.14722-0.13843-0.03858-0.06348-0.05786-0.13794-0.05786-0.22339 0-0.12158 0.03882-0.21997 0.11646-0.29517 0.07813-0.0752 0.18579-0.11279 0.323-0.11279 0.11133 0.000001 0.19922 0.01685 0.26367 0.05054s0.11352 0.08252 0.14722 0.14648c0.03369 0.06397 0.05054 0.14722 0.05054 0.24976v0.03369m-0.303-0.143c-0.0059-0.05762-0.02148-0.09888-0.04687-0.12378-0.0249-0.0249-0.05786-0.03735-0.09888-0.03735-0.04736 0-0.08521 0.0188-0.11353 0.0564-0.01807 0.02344-0.02954 0.05835-0.03442 0.10474h0.2937"/>
   <path id="path3122" d="m23.017 77.736h0.27832v0.11353c0.04004-0.04736 0.08032-0.08105 0.12085-0.10108 0.04101-0.02002 0.09033-0.03003 0.14795-0.03003 0.06201 0.000001 0.11108 0.01099 0.14722 0.03296 0.03613 0.02197 0.06567 0.05469 0.08862 0.09815 0.04687-0.05078 0.0896-0.08521 0.12817-0.10327 0.03857-0.01855 0.08618-0.02783 0.14282-0.02783 0.08349 0.000001 0.14868 0.0249 0.19556 0.07471 0.04687 0.04932 0.07031 0.12671 0.07031 0.23218v0.48852h-0.29883v-0.44312c-0.000001-0.03516-0.0068-0.06128-0.02051-0.07837-0.02002-0.02685-0.04492-0.04028-0.07471-0.04028-0.03516 0-0.06348 0.0127-0.08496 0.03809-0.02149 0.02539-0.03223 0.06616-0.03223 0.12231v0.40137h-0.29883v-0.42847c0-0.03418-0.002-0.05737-0.0059-0.06958-0.0063-0.01953-0.01733-0.03516-0.03296-0.04687-0.01563-0.01221-0.03394-0.01831-0.05493-0.01831-0.03418 0-0.06226 0.01294-0.08423 0.03882s-0.03296 0.06836-0.03296 0.12744v0.39697h-0.29883v-0.77783"/>
   <path id="path3124" d="m24.787 77.988-0.28491-0.03003c0.01074-0.0498 0.02612-0.08887 0.04614-0.11719 0.02051-0.02881 0.0498-0.05371 0.08789-0.07471 0.02734-0.01514 0.06494-0.02685 0.11279-0.03516 0.04785-0.0083 0.09961-0.01245 0.15527-0.01245 0.08935 0.000001 0.16113 0.0051 0.21533 0.01538 0.0542 0.0098 0.09936 0.03052 0.1355 0.06226 0.02539 0.02197 0.04541 0.05322 0.06006 0.09375 0.01465 0.04004 0.02197 0.07837 0.02197 0.11499v0.34351c-0.000001 0.03662 0.0022 0.06543 0.0066 0.08643 0.0049 0.02051 0.01514 0.04687 0.03076 0.0791h-0.27978c-0.01123-0.02002-0.01855-0.03516-0.02197-0.04541-0.0034-0.01074-0.0068-0.02734-0.01025-0.0498-0.03906 0.0376-0.07788 0.06445-0.11646 0.08057-0.05274 0.02148-0.11401 0.03223-0.18384 0.03223-0.09277 0-0.16333-0.02148-0.21167-0.06445-0.04785-0.04297-0.07178-0.09595-0.07178-0.15894 0-0.05908 0.01733-0.10767 0.052-0.14575 0.03467-0.03809 0.09863-0.06641 0.1919-0.08496 0.11182-0.02246 0.18433-0.03809 0.21753-0.04687 0.0332-0.0093 0.06836-0.02124 0.10547-0.03589-0.000001-0.03662-0.0076-0.06226-0.0227-0.0769-0.01514-0.01465-0.04175-0.02197-0.07983-0.02197-0.04883 0.000001-0.08545 0.0078-0.10986 0.02344-0.01904 0.01221-0.03443 0.03516-0.04614 0.06885m0.25854 0.15674c-0.04102 0.01465-0.08374 0.02759-0.12817 0.03882-0.06055 0.01611-0.09888 0.03198-0.11499 0.04761-0.0166 0.01611-0.0249 0.03442-0.0249 0.05493-0.000001 0.02344 0.0081 0.04273 0.02417 0.05786 0.0166 0.01465 0.04077 0.02197 0.07251 0.02197 0.0332 0 0.06396-0.0081 0.09229-0.02417 0.02881-0.01611 0.04907-0.03564 0.06079-0.05859 0.01221-0.02344 0.01831-0.05371 0.01831-0.09082v-0.04761"/>
   <path id="path3126" d="m25.517 77.736h0.27759v0.12671c0.0415-0.05176 0.0835-0.08862 0.12598-0.1106 0.04248-0.02246 0.09424-0.03369 0.15527-0.03369 0.08252 0.000001 0.14697 0.02466 0.19336 0.07398 0.04687 0.04883 0.07031 0.12451 0.07031 0.22705v0.49438h-0.29956v-0.42773c-0.000001-0.04883-0.009-0.08325-0.0271-0.10327-0.01807-0.02051-0.04346-0.03076-0.07617-0.03076-0.03613 0-0.06543 0.01367-0.08789 0.04102-0.02246 0.02734-0.03369 0.07642-0.03369 0.14722v0.37354h-0.2981v-0.77783"/>
   <path id="path3128" d="m26.791 77.988-0.28491-0.03003c0.01074-0.0498 0.02612-0.08887 0.04614-0.11719 0.02051-0.02881 0.0498-0.05371 0.08789-0.07471 0.02734-0.01514 0.06494-0.02685 0.11279-0.03516 0.04785-0.0083 0.09961-0.01245 0.15527-0.01245 0.08936 0.000001 0.16113 0.0051 0.21533 0.01538 0.0542 0.0098 0.09936 0.03052 0.1355 0.06226 0.02539 0.02197 0.04541 0.05322 0.06006 0.09375 0.01465 0.04004 0.02197 0.07837 0.02197 0.11499v0.34351c-0.000001 0.03662 0.0022 0.06543 0.0066 0.08643 0.0049 0.02051 0.01514 0.04687 0.03076 0.0791h-0.27978c-0.01123-0.02002-0.01856-0.03516-0.02197-0.04541-0.0034-0.01074-0.0068-0.02734-0.01025-0.0498-0.03906 0.0376-0.07788 0.06445-0.11646 0.08057-0.05274 0.02148-0.11401 0.03223-0.18384 0.03223-0.09277 0-0.16333-0.02148-0.21167-0.06445-0.04785-0.04297-0.07178-0.09595-0.07178-0.15894 0-0.05908 0.01733-0.10767 0.052-0.14575 0.03467-0.03809 0.09863-0.06641 0.19189-0.08496 0.11182-0.02246 0.18433-0.03809 0.21753-0.04687 0.0332-0.0093 0.06836-0.02124 0.10547-0.03589 0-0.03662-0.0076-0.06226-0.0227-0.0769-0.01514-0.01465-0.04175-0.02197-0.07983-0.02197-0.04883 0.000001-0.08545 0.0078-0.10986 0.02344-0.01904 0.01221-0.03442 0.03516-0.04614 0.06885m0.25854 0.15674c-0.04102 0.01465-0.08374 0.02759-0.12817 0.03882-0.06055 0.01611-0.09888 0.03198-0.11499 0.04761-0.0166 0.01611-0.0249 0.03442-0.0249 0.05493 0 0.02344 0.0081 0.04273 0.02417 0.05786 0.0166 0.01465 0.04077 0.02197 0.07251 0.02197 0.0332 0 0.06396-0.0081 0.09229-0.02417 0.02881-0.01611 0.04907-0.03564 0.06079-0.05859 0.01221-0.02344 0.01831-0.05371 0.01831-0.09082v-0.04761"/>
   <path id="path3130" d="m28.085 77.736h0.27905v0.73462l0.000732 0.03442c-0.000001 0.04883-0.0105 0.09521-0.03149 0.13916-0.02051 0.04443-0.0481 0.08032-0.08276 0.10767-0.03418 0.02734-0.07788 0.04712-0.1311 0.05933-0.05273 0.01221-0.11328 0.01831-0.18164 0.01831-0.15625 0-0.26367-0.02344-0.32226-0.07031-0.05811-0.04687-0.08716-0.10962-0.08716-0.18823 0-0.0098 0.000488-0.02295 0.0015-0.03955l0.28931 0.03296c0.0073 0.02686 0.01855 0.04541 0.03369 0.05566 0.02197 0.01514 0.04956 0.02271 0.08276 0.02271 0.04297 0 0.07495-0.01147 0.09595-0.03442 0.02148-0.02295 0.03223-0.06299 0.03223-0.12012v-0.11792c-0.0293 0.03467-0.05859 0.05982-0.08789 0.07544-0.0459 0.02441-0.09546 0.03662-0.14868 0.03662-0.104 0-0.18799-0.04541-0.25195-0.13623-0.04541-0.06445-0.06812-0.14966-0.06812-0.25562 0-0.12109 0.0293-0.21338 0.08789-0.27686s0.13525-0.09521 0.22998-0.09522c0.06055 0.000001 0.11035 0.01026 0.14942 0.03076 0.03955 0.02051 0.07642 0.05444 0.1106 0.10181v-0.11499m-0.28052 0.3772c-0.000001 0.05615 0.01196 0.0979 0.03589 0.12524 0.02393 0.02685 0.05542 0.04028 0.09448 0.04028 0.03711 0 0.06811-0.01392 0.09302-0.04175 0.02539-0.02832 0.03809-0.0708 0.03809-0.12744s-0.01318-0.09985-0.03955-0.12964c-0.02637-0.03027-0.05859-0.04541-0.09668-0.04541-0.03809 0.000001-0.0686 0.01392-0.09155 0.04175-0.02246 0.02734-0.03369 0.073-0.03369 0.13696"/>
   <path id="path3132" d="m29.41 78.199h-0.59766c0.0054 0.04785 0.01831 0.0835 0.03882 0.10693 0.02881 0.03369 0.06641 0.05054 0.11279 0.05054 0.0293 0.000001 0.05713-0.0073 0.0835-0.02197 0.01611-0.0093 0.03345-0.02564 0.052-0.04907l0.2937 0.0271c-0.04492 0.07813-0.09912 0.13428-0.1626 0.16846-0.06348 0.03369-0.15454 0.05054-0.27319 0.05054-0.10303 0-0.18408-0.0144-0.24316-0.04321-0.05908-0.0293-0.10815-0.07544-0.14722-0.13843-0.03857-0.06348-0.05786-0.13794-0.05786-0.22339 0-0.12158 0.03882-0.21997 0.11646-0.29517 0.07813-0.0752 0.18579-0.11279 0.323-0.11279 0.11133 0.000001 0.19922 0.01685 0.26367 0.05054s0.11352 0.08252 0.14722 0.14648c0.03369 0.06397 0.05054 0.14722 0.05054 0.24976v0.03369m-0.304-0.143c-0.0059-0.05762-0.02149-0.09888-0.04687-0.12378-0.0249-0.0249-0.05786-0.03735-0.09888-0.03735-0.04736 0-0.0852 0.0188-0.11352 0.0564-0.01807 0.02344-0.02954 0.05835-0.03442 0.10474h0.2937"/>
   <path id="path3134" d="m29.551 77.736h0.27905v0.12744c0.02686-0.05518 0.05444-0.09302 0.08276-0.11353 0.02881-0.02099 0.06421-0.03149 0.1062-0.03149 0.04395 0.000001 0.09204 0.01367 0.14429 0.04102l-0.09228 0.2124c-0.03516-0.01465-0.06299-0.02197-0.0835-0.02197-0.03906 0.000001-0.06934 0.01611-0.09082 0.04834-0.03076 0.04541-0.04614 0.13037-0.04614 0.25488v0.26074h-0.29956v-0.77783"/>
  </g>
 </g>
 <g id="layer4" style="display:none">
  <rect id="rect3790" style="opacity:.6;filter:url(#filter3806)" transform="matrix(0,-1,1,0,0,4)" rx="2.8125" ry="2.8125" height="30" width="30" y="56" x="-86"/>
  <rect id="rect2993" style="fill:url(#linearGradient3773)" transform="rotate(-90)" rx="2.8125" ry="2.8125" height="30" width="30" y="56" x="-88"/>
  <path id="rect3775" style="opacity:.5;fill:url(#linearGradient3788)" d="m58.812 58c-1.558 0-2.812 1.254-2.812 2.812v24.375c0 0.87307 0.41082 1.6412 1.0312 2.1562-0.003-0.053-0.031-0.101-0.031-0.155v-24.375c0-1.559 1.171-2.813 2.625-2.813h22.75c1.454 0 2.625 1.254 2.625 2.812v24.375c0 0.05463-0.02841 0.10241-0.03125 0.15625 0.62-0.514 1.031-1.282 1.031-2.155v-24.375c0-1.559-1.254-2.813-2.812-2.813h-24.375z"/>
  <path id="path3810" style="opacity:.6;filter:url(#filter3831);display:inline;fill:url(#linearGradient3812)" d="m116 63.5v8.75h-5l10 13.75 10-13.75h-5v-8.75h-10z" clip-path="url(#clipPath3823)" transform="translate(-50)"/>
  <path id="path4278" style="fill:url(#linearGradient3832);display:inline" d="m66 62.5v8.75h-5l10 13.75 10-13.75h-5v-8.75h-10z"/>
 </g>
 <g id="layer6">
  <path id="path3950" style="opacity:.05" d="m68 116c-11.06 0-20 8.9399-20 20s8.9399 20 20 20 20-8.9399 20-20-8.9399-20-20-20z" transform="translate(1.3733e-7 -61)"/>
  <path id="path3946" style="opacity:.15" d="m68 117c-10.516 0-19 8.4845-19 19s8.4845 19 19 19 19-8.4845 19-19-8.4845-19-19-19z" transform="translate(1.3733e-7 -61)"/>
  <rect id="rect3859" style="opacity:0.31" transform="translate(1.3733e-7 -61)" clip-path="url(#clipPath3871)" rx="18" ry="18" height="36" width="36" y="118" x="50"/>
  <path id="path3836" style="fill:url(#linearGradient3844)" d="m90.714 72.786a19.643 19.643 0 1 1 -39.286 0 19.643 19.643 0 1 1 39.286 0z" transform="matrix(0 -.91636 .91636 0 1.3018 139.13)"/>
  <path id="path4108" style="opacity:.05" d="m67.469 60.375c-0.68007 0.08338-1.7793 0.07031-2.875 0.6875l-0.032-0.062c-1.5514 0.47172-2.4628 1.415-3.1562 1.5625a1.1295 1.1295 0 0 0 -0.4375 0.21875c-0.88126 0.69154-1.7897 1.5341-2.5312 2.5312v0.03125c-0.03037 0.02361-0.034 0.03833-0.0625 0.0625-0.0541 0.07473-0.1355 0.11065-0.1875 0.1875l0.03125 0.03125c-0.40303 0.44097-0.70976 0.93644-0.84375 1.25-0.16788 0.39286-0.2542 0.50236-0.25 0.5a1.1295 1.1295 0 0 0 -0.40625 0.40625c-0.795 1.411-1.314 2.965-1.656 4.47a1.1295 1.1295 0 0 0 0 0.59375c0.13214 0.43103-0.02719 1.3157 0.0625 2.4688-0.000205 0.041 0.00003 0.08391 0 0.125-0.0015 2.0957 0.24821 4.2994 1.0938 6.375h-0.03125c0.005 0.01295 0.02618 0.01831 0.03125 0.03125 1.7007 4.3435 5.3252 8.1764 9.9375 9.4062 0.0094 0.0025 0.02185-0.0025 0.03125 0 1.2113 0.33389 2.552 0.50814 3.875 0.3125a1.1295 1.1295 0 0 0 0.219 -0.063c1.903-0.65834 1.7588-3.5699-0.1875-4.0625-0.71219-0.18029-1.356-0.26407-1.8125-0.40625s-0.67353-0.26796-0.875-0.59375a1.1295 1.1295 0 0 0 -0.3125 -0.34375c-0.391-0.272-0.729-0.379-0.906-0.468-0.178-0.089-0.206-0.119-0.282-0.219a1.1295 1.1295 0 0 0 -0.53125 -0.375c-0.02843-0.03674-0.01522-0.02986-0.0625-0.09375-0.15107-0.20414-0.5194-0.4875-0.96875-0.71875-0.2923-0.61703-0.64079-1.0964-1.0312-1.4375-0.08271-0.25427-0.09955-0.6067-0.1875-0.75-0.18282-0.29787-0.25536-0.40302-0.25-0.375h-0.03125c0.002-1.2777-0.62121-2.4273-1.6875-3.0938-0.0013-0.0057 0.0013-0.02526 0-0.03125-0.03851-0.1829-0.0499-0.53125-0.125-0.9375a1.1295 1.1295 0 0 0 -0.032 -0.063c-0.20972-0.84588-0.38186-1.443-0.3125-1.9688 0.0024-0.01447-0.0023-0.01686 0-0.03125 0.21042-1.3117 0.1107-2.2797 0.4375-2.7812a1.1295 1.1295 0 0 0 0.03125 -0.0625c0.3568-0.62184 0.52541-1.1913 0.6875-1.5938 0.16209-0.40247 0.27254-0.61538 0.5-0.78125a1.1295 1.1295 0 0 0 0.1875 -0.15625c0.53036-0.58813 0.90364-0.7501 1.6562-1a1.1295 1.1295 0 0 0 0.71875 -0.6875c0.05686-0.16081-0.09139-0.03753 0.21875-0.125s1.0133-0.14086 1.6875-0.6875a1.1295 1.1295 0 0 0 0.187 -0.189c0.01745-0.02332 0.08324-0.07377 0.46875-0.125 0.31823-0.04229 0.81286-0.09561 1.3438-0.21875 1.3176-0.05536 2.5635 0.4198 3.4375 1.25-2.164-1.1219-4.9828-0.93349-6.7188 1.0312a1.1295 1.1295 0 0 0 -0.0625 0.0625c-0.59451 0.78504-1.4536 1.6473-1.9375 2.9688-0.0088 0.024-0.02273 0.03819-0.03125 0.0625h0.03125c-0.63513 1.5379-0.36646 3.1154 0 4.375a1.1295 1.1295 0 0 0 0.064 0.126c0.02215 0.05228 0.01872 0.407 0.0625 1 0.03943 0.53396 0.32349 1.3239 0.96875 1.875l-0.03125 0.03125c0.05987 0.06479 0.1567 0.09283 0.21875 0.15625 1.6395 1.6759 4.0176 2.8694 6.5312 2.5938 0.04207-0.0046 0.08286 0.0054 0.125 0v-0.03125c0.8896-0.08652 1.5414-0.61951 1.8438-0.90625 0.31846-0.30198 0.26645-0.31356 0.4375-0.3125a1.1295 1.1295 0 0 0 0.312 -0.031c0.77415-0.22709 1.3329-0.64719 1.7812-0.96875 0.44835-0.32156 0.80812-0.53774 1.0938-0.625a1.1295 1.1295 0 0 0 0.65625 -0.5625c0.16927-0.32344 0.82618-0.75406 1.25-1.8125a1.1295 1.1295 0 0 0 0.0625 -0.375c0.01089-0.0138 0.03447-0.05047 0.125-0.15625 0.21401-0.25008 0.65509-0.81869 0.6875-1.625h0.03125c0.000822-0.02293-0.000065-0.03914 0-0.0625 0.02387-0.27602 0.13665-0.55548 0.28125-0.96875 0.13936-0.39832 0.28649-0.93309 0.34375-1.5625 0.18731-0.27378 0.50728-0.48786 0.5625-0.78125 0.11044-0.58677 0.02156-1.1426-0.21875-1.6562a1.1295 1.1295 0 0 0 -0.03125 -0.0625c-0.08388-0.16149-0.09994-0.39274-0.09375-0.9375 0.0056-0.49494-0.05714-1.2614-0.5-1.9688h0.03125c-0.01588-0.03523-0.04622-0.05879-0.0625-0.09375-0.02822-0.04146-0.03122-0.08411-0.0625-0.125h-0.03125c-1.0223-2.1026-2.7519-3.7206-4.6875-4.8125-0.05716-0.03224-0.09877-0.09367-0.15625-0.125l-0.03 0.031c-0.70613-0.45557-1.446-0.50165-1.875-0.5-0.46845 0.0018-0.53232 0.0183-0.625-0.0625a1.1295 1.1295 0 0 0 -0.5 -0.25c-0.157-0.036-0.516-0.242-1.032-0.437-0.446-0.169-1.134-0.242-1.812-0.031v-0.0625c0.06589-0.01178-0.44518-0.11705-1.125-0.34375a1.1295 1.1295 0 0 0 -0.344 -0.063h-0.09375-0.09375a1.1295 1.1295 0 0 0 -0.125 0zm-9.0312 6.9375c0.10077-0.02337 0.27203-0.21499 0.75 0.25 0.23899 0.23249 0.33098 0.71595 0.28125 0.9375s-0.10112 0.25884-0.09375 0.25l-0.687-0.562-0.032-0.188-0.031 0.125-0.125-0.094 0.0625 0.25-0.3125 0.78125c0.03202 0.01202-0.01973 0.007-0.15625-0.125-0.13652-0.13202-0.33831-0.5557-0.25-0.9375s0.3035-0.52699 0.40625-0.59375 0.13712-0.08206 0.1875-0.09375zm11.188 5.2188c0.55139-0.11072 1.1458-0.01154 1.5 0.375a1.1295 1.1295 0 0 0 0.125 0.125c0.82442 0.67548 1.9867 0.50177 2.6562-0.03125 0.09557-0.07608 0.1351-0.21626 0.21875-0.3125-0.0011 0.0211 0.0013 0.04139 0 0.0625-0.07797 0.55067-0.04202 1.0562-0.0625 1.375-0.02281 0.35493-0.0786 0.3811-0.03125 0.34375a1.1295 1.1295 0 0 0 -0.344 0.406c-0.19537 0.43972-0.33164 0.78765-0.4375 0.9375s-0.06454 0.13677-0.25 0.15625a1.1295 1.1295 0 0 0 -0.71875 0.375c-0.32537 0.36837-0.91363 0.51796-1.6875 0.59375-1.472-0.13295-2.7161-1.9584-2.1875-3.3438a1.1295 1.1295 0 0 0 0.032 -0.094c0.14521-0.51714 0.63611-0.85803 1.1875-0.96875z"/>
  <g id="g4106">
   <path id="path3846" style="opacity:.2;fill:url(#linearGradient3857-6)" d="m68 56c-9.9411 0-18 8.0589-18 18 0 3.6617 1.0907 7.064 2.9688 9.9062-1.247-2.364-1.969-5.047-1.969-7.906 0-9.3888 7.6112-17 17-17s17 7.6112 17 17c0 2.8588-0.72212 5.5418-1.9688 7.9062 1.878-2.842 2.969-6.244 2.969-9.906 0-9.941-8.059-18-18-18z"/>
   <path id="path4097" style="opacity:.3;fill:#fff" d="m68 56c-9.9411 0-18 8.0589-18 18 0 0.16859 0.02664 0.33252 0.03125 0.5 0.267-9.708 8.196-17.5 17.969-17.5 9.7305 0 17.637 7.7253 17.969 17.375v-1c-0.332-9.65-8.238-17.375-17.969-17.375z"/>
  </g>
  <path id="path4102" style="opacity:.15" d="m67.594 61.5c-0.93355 0.11445-1.854-0.0058-2.6843 0.59033-1.1672 0.35488-2.0884 1.3261-3.2469 1.5725-0.92972 0.72957-1.8539 1.5629-2.5239 2.5531-0.70934 0.53695-0.68107 1.6968-1.4433 2.1256-0.72281 1.2799-1.2231 2.7156-1.5474 4.1445 0.26974 0.8799-0.0044 1.8689 0.09209 2.8275-0.01028 2.0572 0.21693 4.1543 1.0065 6.0786 1.5786 4.0619 5.0145 7.6527 9.2222 8.7641 1.0989 0.3059 2.2988 0.43504 3.4244 0.26858 0.85866-0.29705 0.80008-1.6707-0.08068-1.8936-1.2181-0.30835-2.6341-0.31446-3.3761-1.5143-0.5343-0.37272-1.0351-0.39523-1.442-0.93298-0.51244 0.04806-0.59034-0.96635-1.4319-1.0215-0.139-0.70185-0.65431-1.1658-1.1875-1.625 0.09361-0.64057-0.49103-0.98607-0.6012-1.5626 0.09068-0.87944-0.4456-1.9014-1.2029-2.3685-0.59503-0.16695-0.56188-1.1378-0.66467-1.6939-0.1955-0.7885-0.46111-1.5842-0.33368-2.4468 0.17829-1.0838-0.01307-2.2881 0.60891-3.2427 0.53244-0.92793 0.59737-2.0298 1.5196-2.7024 0.68052-0.75465 1.3391-1.0602 2.1459-1.328 0.3756-1.0622 1.4896-0.70334 2.2453-1.316 0.57028-0.76212 1.7958-0.49599 2.6709-0.78246 1.7565-0.0738 3.5959 0.49888 4.7285 1.9081 1.2693 1.303 1.8813 3.1232 1.7675 4.9206-0.15597 0.8342 0.12162 1.9849-0.54714 2.5124-0.34792 0.78304-0.59304 1.6541-1.587 1.7585-0.64371 0.7288-1.5938 0.93035-2.5283 1.0077-2.3138-0.12311-4.0953-2.7202-3.2622-4.9038 0.54372-1.9364 3.3009-2.481 4.6295-1.0312 0.76949 0.63048 1.9753-0.32742 1.5352-1.2196-1.4208-2.4184-5.2366-2.9284-7.1299-0.78548-0.66663 0.88027-1.4339 1.6326-1.8076 2.6982-0.49424 1.1497-0.28943 2.5417 0.05191 3.715 0.34794 0.82103-0.17431 1.8736 0.83388 2.536 1.4578 1.5773 3.6665 2.7002 5.8515 2.4184 1.1304-0.04068 1.3143-1.2646 2.4579-1.2575 1.0942-0.32096 1.8021-1.2809 2.8413-1.5983 0.33481-0.63973 0.91611-0.99052 1.1834-1.6581-0.11642-0.70934 0.84938-1.0202 0.85162-1.8305 0.05408-0.97581 0.59721-1.6649 0.6488-2.7398 0.61661-0.32883 0.7015-1.1601 0.41558-1.7712-0.50215-0.96679 0.12468-2.0035-0.60625-2.959-0.90614-2.0106-2.6009-3.5913-4.506-4.6298-0.84682-0.66957-1.9033 0.03739-2.7294-0.68279-0.78378-0.18207-1.6058-0.88935-2.4173-0.48916-0.52344 0.09354-1.1179-0.23175-1.6504-0.40933l-0.101-0.008-0.094 0.003zm-8.9375 6.5c0.9368 0.35161-0.7648 0.74548-0.16675 0.02787l0.167-0.028zm-0.281 0.406c0.77629 0.07721-0.15298 0.99576 0 0zm16.031 8.0625c0.07227 0.5008-0.09616 0.18373 0 0z"/>
  <path id="path4098" style="opacity:.3" d="m76.326 74.056c0.02715 0.72856-0.2126 1.0826-0.42941 1.7086l-0.38991 0.1939c-0.31874 0.61939 0.0316 0.39323-0.19662 0.88567-0.49817 0.44238-1.5096 1.3838-1.8335 1.4701-0.23671-0.005 0.16014-0.27924 0.212-0.38629-0.66614 0.45716-0.53465 0.68634-1.5536 0.96468l-0.02955-0.06664c-2.512 1.1821-6.0015-1.1601-5.9557-4.3554-0.02653 0.20264-0.07623 0.15198-0.13182 0.2334-0.1296-1.6438 0.75932-3.2948 2.2586-3.97 1.4665-0.72554 3.1856-0.42821 4.2353 0.55154-0.57658-0.7557-1.7252-1.5569-3.0855-1.4827-1.3332 0.02173-2.5807 0.86878-2.9969 1.7888-0.68272 0.42972-0.76232 1.6573-1.0597 1.8823-0.40078 2.9432 0.75298 4.2142 2.7049 5.7102 0.30638 0.20687 0.08624 0.23853 0.12722 0.39594-0.64834-0.30336-1.2418-0.76172-1.7303-1.3229 0.25934 0.37906 0.53887 0.74756 0.90045 1.037-0.61187-0.20656-1.4288-1.4815-1.6667-1.5334 1.0539 1.8871 4.2754 3.3096 5.9632 2.6036-0.78102 0.02894-1.7728 0.01604-2.6498-0.30819-0.36939-0.18968-0.86968-0.582-0.78011-0.65528 2.3027 0.85973 4.6807 0.65076 6.6728-0.94598 0.50722-0.39504 1.0609-1.0666 1.221-1.0756-0.24095 0.36247 0.0413 0.1743-0.14389 0.49425 0.5042-0.8145-0.21984-0.33171 0.52169-1.4065l0.27381 0.37694c-0.1026-0.67669 0.83983-1.4975 0.74393-2.5668 0.21622-0.32689 0.24095 0.35222 0.01114 1.1043 0.31814-0.83441 0.08417-0.9686 0.16557-1.6573 0.08783 0.23159 0.20445 0.47736 0.26385 0.72192-0.20747-0.80666 0.212-1.3579 0.31633-1.8268-0.10307-0.04523-0.31995 0.35644-0.37001-0.59588 0.008-0.41373 0.11546-0.21682 0.15676-0.31874-0.08085-0.04674-0.29402-0.36398-0.42338-0.97221 0.09323-0.14323 0.2509 0.37061 0.37875 0.39142-0.08227-0.48339-0.22375-0.8522-0.22978-1.2234-0.37392-0.78103-0.1323 0.10433-0.43514-0.33533-0.39804-1.2406 0.32991-0.28798 0.37936-0.85129 0.60251 0.873 0.94598 2.227 1.1043 2.7876-0.12055-0.68362-0.31514-1.3461-0.55306-1.9869 0.18365 0.0775-0.29522-1.4062 0.23852-0.42368-0.56951-2.0943-2.4358-4.0514-4.1532-4.9693 0.20958 0.19209 0.47466 0.43334 0.37997 0.47133-0.85461-0.50812-0.70443-0.54823-0.82687-0.76294-0.69509-0.28316-0.74153 0.02322-1.2014 0.000619-1.3118-0.69599-1.5645-0.62211-2.7716-1.0576l0.0548 0.25692c-0.86878-0.28949-1.0123 0.10918-1.9511 0.000618-0.05702-0.04433 0.30096-0.16163 0.59588-0.20415-0.84015 0.11097-0.80093-0.16586-1.623 0.03046 0.20234-0.14204 0.41705-0.23642 0.63296-0.35704-0.68483 0.04161-1.6356 0.39866-1.3422 0.07357-1.1173 0.49877-3.1018 1.1987-4.2154 2.243l-0.03495-0.23401c-0.51024 0.61246-2.2252 1.8292-2.3618 2.6232l-0.13659 0.03167c-0.26508 0.4496-0.43726 0.95893-0.64775 1.4212-0.34709 0.59195-0.50901 0.22797-0.45957 0.32085-0.68302 1.3847-1.0229 2.5481-1.3157 3.5029 0.20868 0.31211 0.0047 1.8793 0.08385 3.1335-0.34255 6.1951 4.3478 12.21 9.4749 13.598 0.75147 0.26929 1.8688 0.25964 2.8192 0.28618-1.1212-0.32085-1.2659-0.16978-2.3588-0.55064-0.78796-0.37152-0.96045-0.7952-1.5189-1.2798l0.22104 0.39051c-1.0947-0.38751-0.6366-0.47948-1.5274-0.76144l0.23612-0.30789c-0.35494-0.02714-0.93995-0.59768-1.0998-0.91462l-0.3884 0.0154c-0.4662-0.57479-0.71498-0.99003-0.69659-1.3118l-0.12547 0.22375c-0.141-0.242-1.715-2.157-0.899-1.711-0.151-0.138-0.353-0.226-0.572-0.623l0.16616-0.18968c-0.39233-0.50571-0.72312-1.1538-0.69779-1.3697 0.20958 0.28286 0.35492 0.33593 0.49907 0.38448-0.99242-2.4619-1.0482-0.13538-1.7994-2.5059l0.15866-0.0127c-0.1215-0.18415-0.19602-0.38287-0.29371-0.57858l0.0694-0.68905c-0.713-0.825-0.199-3.511-0.096-4.984 0.07084-0.59889 0.59618-1.2367 0.99512-2.2369l-0.24305-0.04161c0.465-0.81058 2.6543-3.2565 3.6687-3.131 0.49124-0.61698-0.09767-0.0024-0.19389-0.15741 1.0793-1.1167 1.4185-0.78887 2.1468-0.99 0.78494-0.4659-0.67398 0.18214-0.30186-0.17762 1.3579-0.34649 0.96196-0.78826 2.733-0.96407 0.18696 0.10614-0.43334 0.16405-0.58894 0.30186 1.1308-0.55365 3.5792-0.4273 5.1702 0.30698 1.8446 0.86275 3.9184 3.4118 4.0004 5.8101l0.09323 0.02503c-0.04701 0.95352 0.14596 2.0563-0.18908 3.0689l0.22648-0.47978"/>
  <path id="path2536" style="fill:#fff" d="m76.326 73.056c0.02715 0.72856-0.2126 1.0826-0.42941 1.7086l-0.38991 0.1939c-0.31874 0.61939 0.0316 0.39323-0.19662 0.88567-0.49817 0.44238-1.5096 1.3838-1.8335 1.4701-0.23671-0.005 0.16014-0.27924 0.212-0.38629-0.66614 0.45716-0.53465 0.68634-1.5536 0.96468l-0.02955-0.06664c-2.512 1.1821-6.0015-1.1601-5.9557-4.3554-0.02653 0.20264-0.07623 0.15198-0.13182 0.2334-0.1296-1.6438 0.75932-3.2948 2.2586-3.97 1.4665-0.72554 3.1856-0.42821 4.2353 0.55154-0.57658-0.7557-1.7252-1.5569-3.0855-1.4827-1.3332 0.02173-2.5807 0.86878-2.9969 1.7888-0.68272 0.42972-0.76232 1.6573-1.0597 1.8823-0.40078 2.9432 0.75298 4.2142 2.7049 5.7102 0.30638 0.20687 0.08624 0.23853 0.12722 0.39594-0.64834-0.30336-1.2418-0.76172-1.7303-1.3229 0.25934 0.37906 0.53887 0.74756 0.90045 1.037-0.61187-0.20656-1.4288-1.4815-1.6667-1.5334 1.0539 1.8871 4.2754 3.3096 5.9632 2.6036-0.78102 0.02894-1.7728 0.01604-2.6498-0.30819-0.36939-0.18968-0.86968-0.582-0.78011-0.65528 2.3027 0.85973 4.6807 0.65076 6.6728-0.94598 0.50722-0.39504 1.0609-1.0666 1.221-1.0756-0.24095 0.36247 0.0413 0.1743-0.14389 0.49425 0.5042-0.8145-0.21984-0.33171 0.52169-1.4065l0.27381 0.37694c-0.1026-0.67669 0.83983-1.4975 0.74393-2.5668 0.21622-0.32689 0.24095 0.35222 0.01114 1.1043 0.31814-0.83441 0.08417-0.9686 0.16557-1.6573 0.08783 0.23159 0.20445 0.47736 0.26385 0.72192-0.20747-0.80666 0.212-1.3579 0.31633-1.8268-0.10307-0.04523-0.31995 0.35644-0.37001-0.59588 0.008-0.41373 0.11546-0.21682 0.15676-0.31874-0.08085-0.04674-0.29402-0.36398-0.42338-0.97221 0.09323-0.14323 0.2509 0.37061 0.37875 0.39142-0.08227-0.48339-0.22375-0.8522-0.22978-1.2234-0.37392-0.78103-0.1323 0.10433-0.43514-0.33533-0.39804-1.2406 0.32991-0.28798 0.37936-0.85129 0.60251 0.873 0.94598 2.227 1.1043 2.7876-0.12055-0.68362-0.31514-1.3461-0.55306-1.9869 0.18365 0.0775-0.29522-1.4062 0.23852-0.42368-0.56951-2.0943-2.4358-4.0514-4.1532-4.9693 0.20958 0.19209 0.47466 0.43334 0.37997 0.47133-0.85461-0.50812-0.70443-0.54823-0.82687-0.76294-0.69509-0.28316-0.74153 0.02322-1.2014 0.000619-1.3118-0.69599-1.5645-0.62211-2.7716-1.0576l0.0548 0.25692c-0.86878-0.28949-1.0123 0.10918-1.9511 0.000618-0.05702-0.04433 0.30096-0.16163 0.59588-0.20415-0.84015 0.11097-0.80093-0.16586-1.623 0.03046 0.20234-0.14204 0.41705-0.23642 0.63296-0.35704-0.68483 0.04161-1.6356 0.39866-1.3422 0.07357-1.1173 0.49877-3.1018 1.1987-4.2154 2.243l-0.03495-0.23401c-0.51024 0.61246-2.2252 1.8292-2.3618 2.6232l-0.13659 0.03167c-0.26508 0.4496-0.43726 0.95893-0.64775 1.4212-0.34709 0.59195-0.50901 0.22797-0.45957 0.32085-0.68302 1.3847-1.0229 2.5481-1.3157 3.5029 0.20868 0.31211 0.0047 1.8793 0.08385 3.1335-0.34255 6.1951 4.3478 12.21 9.4749 13.598 0.75147 0.26929 1.8688 0.25964 2.8192 0.28618-1.1212-0.32085-1.2659-0.16978-2.3588-0.55064-0.78796-0.37152-0.96045-0.7952-1.5189-1.2798l0.22104 0.39051c-1.0947-0.38751-0.6366-0.47948-1.5274-0.76144l0.23612-0.30789c-0.35494-0.02714-0.93995-0.59768-1.0998-0.91462l-0.3884 0.0154c-0.4662-0.57479-0.71498-0.99003-0.69659-1.3118l-0.12547 0.22375c-0.141-0.242-1.715-2.157-0.899-1.711-0.151-0.138-0.353-0.226-0.572-0.623l0.16616-0.18968c-0.39233-0.50571-0.72312-1.1538-0.69779-1.3697 0.20958 0.28286 0.35492 0.33593 0.49907 0.38448-0.99242-2.4619-1.0482-0.13538-1.7994-2.5059l0.15866-0.0127c-0.1215-0.18415-0.19602-0.38287-0.29371-0.57858l0.0694-0.68905c-0.713-0.825-0.199-3.511-0.096-4.984 0.07084-0.59889 0.59618-1.2367 0.99512-2.2369l-0.24305-0.04161c0.465-0.81058 2.6543-3.2565 3.6687-3.131 0.49124-0.61698-0.09767-0.0024-0.19389-0.15741 1.0793-1.1167 1.4185-0.78887 2.1468-0.99 0.78494-0.4659-0.67398 0.18214-0.30186-0.17762 1.3579-0.34649 0.96196-0.78826 2.733-0.96407 0.18696 0.10614-0.43334 0.16405-0.58894 0.30186 1.1308-0.55365 3.5792-0.4273 5.1702 0.30698 1.8446 0.86275 3.9184 3.4118 4.0004 5.8101l0.09323 0.02503c-0.04701 0.95352 0.14596 2.0563-0.18908 3.0689l0.22648-0.47978"/>
 </g>
</svg>
