<?xml version="1.0" encoding="UTF-8" standalone="no"?>
<!-- Created with Inkscape (http://www.inkscape.org/) -->
<svg id="svg2408" xmlns:rdf="http://www.w3.org/1999/02/22-rdf-syntax-ns#" xmlns="http://www.w3.org/2000/svg" height="96" width="96" version="1.0" xmlns:cc="http://creativecommons.org/ns#" xmlns:xlink="http://www.w3.org/1999/xlink" xmlns:dc="http://purl.org/dc/elements/1.1/">
 <defs id="defs2410">
  <linearGradient id="ButtonShadow" y2="7.0165" gradientUnits="userSpaceOnUse" x2="45.448" gradientTransform="scale(1.0059 .99417)" y1="92.54" x1="45.448">
   <stop id="stop3750" offset="0"/>
   <stop id="stop3752" style="stop-opacity:.58824" offset="1"/>
  </linearGradient>
  <linearGradient id="linearGradient3737">
   <stop id="stop3739" style="stop-color:#fff" offset="0"/>
   <stop id="stop3741" style="stop-color:#fff;stop-opacity:0" offset="1"/>
  </linearGradient>
  <filter id="filter3174" color-interpolation-filters="sRGB">
   <feGaussianBlur id="feGaussianBlur3176" stdDeviation="1.71"/>
  </filter>
  <linearGradient id="linearGradient3188" y2="63.893" xlink:href="#linearGradient3737" gradientUnits="userSpaceOnUse" x2="36.357" y1="6" x1="36.357"/>
  <filter id="filter3794" height="1.384" width="1.384" color-interpolation-filters="sRGB" y="-.192" x="-.192">
   <feGaussianBlur id="feGaussianBlur3796" stdDeviation="5.28"/>
  </filter>
  <radialGradient id="radialGradient3619" xlink:href="#linearGradient3737" gradientUnits="userSpaceOnUse" cy="90.172" cx="48" gradientTransform="matrix(1.1573 0 0 .99591 -7.551 .19713)" r="42"/>
  <clipPath id="clipPath3613">
   <rect id="rect3615" style="fill:#fff" rx="6" ry="6" height="84" width="84" y="6" x="6"/>
  </clipPath>
  <linearGradient id="linearGradient3617" y2="5.9877" gradientUnits="userSpaceOnUse" x2="48" gradientTransform="matrix(1.0172 0 0 1.0172 -1.1034 -1.1034)" y1="90" x1="48">
   <stop id="stop3876" style="stop-color:#f8d21a" offset="0"/>
   <stop id="stop3878" style="stop-color:#fdee9f" offset="1"/>
  </linearGradient>
  <linearGradient id="linearGradient3300" y2="64" gradientUnits="userSpaceOnUse" x2="11.227" gradientTransform="translate(1 -15.321)" y1="64" x1="5">
   <stop id="stop3841" offset="0"/>
   <stop id="stop3843" style="stop-color:#2d190c;stop-opacity:0" offset="1"/>
  </linearGradient>
  <linearGradient id="linearGradient3238">
   <stop id="stop3240" offset="0"/>
   <stop id="stop3242" style="stop-opacity:0" offset="1"/>
  </linearGradient>
  <linearGradient id="linearGradient3250">
   <stop id="stop3252" style="stop-color:#e3d1b3" offset="0"/>
   <stop id="stop3254" style="stop-color:#eadec5;stop-opacity:0" offset="1"/>
  </linearGradient>
  <linearGradient id="linearGradient3913" y2="28" xlink:href="#linearGradient3238" gradientUnits="userSpaceOnUse" x2="21" gradientTransform="matrix(1.125 0 0 1 .375 -4)" y1="28" x1="5"/>
  <linearGradient id="linearGradient3915" y2="27" xlink:href="#linearGradient3250" gradientUnits="userSpaceOnUse" x2="21" gradientTransform="matrix(1.125 0 0 1 .375 -10)" y1="27" x1="5"/>
  <linearGradient id="ButtonShadow-0" y2="7.0165" gradientUnits="userSpaceOnUse" x2="45.448" gradientTransform="matrix(1.0059 0 0 .99417 100 0)" y1="92.54" x1="45.448">
   <stop id="stop3750-8" offset="0"/>
   <stop id="stop3752-5" style="stop-opacity:.58824" offset="1"/>
  </linearGradient>
  <linearGradient id="linearGradient3780" y2="90.239" xlink:href="#ButtonShadow-0" gradientUnits="userSpaceOnUse" x2="32.251" gradientTransform="matrix(1.0238 0 0 1.0119 -1.1429 -98.071)" y1="6.1317" x1="32.251"/>
  <linearGradient id="linearGradient3721" y2="90.239" xlink:href="#ButtonShadow-0" gradientUnits="userSpaceOnUse" x2="32.251" gradientTransform="translate(0,-97)" y1="6.1317" x1="32.251"/>
  <linearGradient id="linearGradient3065" y2="138.66" xlink:href="#linearGradient3737" gradientUnits="userSpaceOnUse" x2="48" y1="20.221" x1="48"/>
 </defs>
 <metadata id="metadata2413">
  <rdf:RDF>
   <cc:Work rdf:about="">
    <dc:format>image/svg+xml</dc:format>
    <dc:type rdf:resource="http://purl.org/dc/dcmitype/StillImage"/>
    <dc:title/>
   </cc:Work>
  </rdf:RDF>
 </metadata>
 <g id="layer2" style="display:none">
  <rect id="rect3745" style="opacity:.9;filter:url(#filter3174);fill:url(#ButtonShadow)" rx="6" ry="6" height="85" width="86" y="7" x="5"/>
 </g>
 <g id="layer3">
  <path id="path3786" style="opacity:0.08;fill:url(#linearGradient3780)" d="m12-95.031c-5.5111 0-10.031 4.5202-10.031 10.031v71c0 5.5111 4.5202 10.031 10.031 10.031h72c5.5111 0 10.031-4.5202 10.031-10.031v-71c0-5.5111-4.5202-10.031-10.031-10.031h-72z" transform="scale(1,-1)"/>
  <path id="path3778" style="opacity:.1;fill:url(#linearGradient3780)" d="m12-94.031c-4.9716 0-9.0312 4.0596-9.0312 9.0312v71c0 4.9716 4.0596 9.0312 9.0312 9.0312h72c4.9716 0 9.0312-4.0596 9.0312-9.0312v-71c0-4.9716-4.0596-9.0312-9.0312-9.0312h-72z" transform="scale(1,-1)"/>
  <path id="path3770" style="opacity:.2;fill:url(#linearGradient3780)" d="m12-93c-4.4091 0-8 3.5909-8 8v71c0 4.4091 3.5909 8 8 8h72c4.4091 0 8-3.5909 8-8v-71c0-4.4091-3.5909-8-8-8h-72z" transform="scale(1,-1)"/>
  <rect id="rect3723" style="opacity:.3;fill:url(#linearGradient3780)" transform="scale(1,-1)" rx="7" ry="7" height="85" width="86" y="-92" x="5"/>
  <rect id="rect3716" style="opacity:.45;fill:url(#linearGradient3721)" transform="scale(1,-1)" rx="6" ry="6" height="84" width="84" y="-91" x="6"/>
 </g>
 <g id="layer1">
  <rect id="rect2419" style="fill:url(#linearGradient3617)" rx="6" ry="6" height="84" width="84" y="6" x="6"/>
  <path id="rect3170" style="fill:#3d2211" d="m12 6c-3.324 0-6 2.676-6 6v72c0 3.324 2.676 6 6 6h12v-84h-12z"/>
  <g id="g3903" transform="translate(0,2)">
   <rect id="rect3236" style="fill:url(#linearGradient3913)" height="2" width="18" y="20" x="6"/>
   <rect id="rect3246" style="opacity:.40980;fill:url(#linearGradient3915)" height="2" width="18" y="16" x="6"/>
  </g>
  <g id="g3907" transform="translate(0,20)">
   <rect id="rect3909" style="fill:url(#linearGradient3913)" height="2" width="18" y="20" x="6"/>
   <rect id="rect3911" style="opacity:.40980;fill:url(#linearGradient3915)" height="2" width="18" y="16" x="6"/>
  </g>
  <g id="g3917" transform="translate(0,56)">
   <rect id="rect3919" style="fill:url(#linearGradient3913)" height="2" width="18" y="20" x="6"/>
   <rect id="rect3921" style="opacity:.40980;fill:url(#linearGradient3915)" height="2" width="18" y="16" x="6"/>
  </g>
  <g id="g3927" transform="translate(0,38)">
   <rect id="rect3929" style="fill:url(#linearGradient3913)" height="2" width="18" y="20" x="6"/>
   <rect id="rect3931" style="opacity:.40980;fill:url(#linearGradient3915)" height="2" width="18" y="16" x="6"/>
  </g>
  <path id="path3292" style="fill:url(#linearGradient3300)" d="m12 6c-3.324 0-6 2.676-6 6v72c0 3.324 2.676 6 6 6h9.125v-84h-9.125z"/>
  <path id="rect3728" style="opacity:.4;fill:url(#linearGradient3188)" d="m12 6c-3.324 0-6 2.676-6 6v2 68 2c0 0.33472 0.04135 0.6507 0.09375 0.96875 0.0487 0.2956 0.09704 0.59692 0.1875 0.875 0.00988 0.03038 0.020892 0.0636 0.03125 0.09375 0.098865 0.28777 0.23488 0.54745 0.375 0.8125 0.14459 0.27351 0.31562 0.53562 0.5 0.78125 0.18438 0.24564 0.37378 0.47347 0.59375 0.6875 0.43995 0.42806 0.94291 0.81453 1.5 1.0938 0.27854 0.13961 0.57347 0.24695 0.875 0.34375-0.2562-0.10022-0.48671-0.23627-0.71875-0.375-0.00741-0.0044-0.023866 0.0045-0.03125 0-0.031933-0.0193-0.062293-0.04251-0.09375-0.0625-0.1204-0.0767-0.23102-0.16351-0.34375-0.25-0.10617-0.0808-0.21328-0.16111-0.3125-0.25-0.1778-0.162-0.3473-0.346-0.4999-0.531-0.1075-0.131-0.2183-0.266-0.3124-0.407-0.0251-0.038-0.0385-0.086-0.0626-0.125-0.0647-0.103-0.1302-0.204-0.1874-0.312-0.1011-0.195-0.2057-0.416-0.2813-0.625-0.008-0.022-0.0236-0.041-0.0313-0.063-0.0318-0.092-0.0358-0.187-0.0624-0.281-0.0304-0.107-0.0704-0.203-0.0938-0.313-0.0729-0.341-0.125-0.698-0.125-1.062v-2-68-2c0-2.782 2.2182-5 5-5h2 68 2c2.7818 0 5 2.2182 5 5v2 68 2c0 0.3643-0.05212 0.72099-0.125 1.0625-0.04415 0.20689-0.08838 0.39766-0.15625 0.59375-0.0077 0.02195-0.0233 0.04069-0.03125 0.0625-0.06274 0.17374-0.13838 0.36745-0.21875 0.53125-0.04158 0.0828-0.07904 0.16995-0.125 0.25-0.0546 0.09721-0.12677 0.18835-0.1875 0.28125-0.09411 0.14096-0.20492 0.276-0.3125 0.40625-0.14317 0.17445-0.30314 0.347-0.46875 0.5-0.01117 0.0102-0.01998 0.02115-0.03125 0.03125-0.13839 0.12556-0.28509 0.23444-0.4375 0.34375-0.10257 0.07315-0.20432 0.15336-0.3125 0.21875-0.0074 0.0045-0.02384-0.0044-0.03125 0-0.23204 0.13873-0.46255 0.27478-0.71875 0.375 0.30153-0.0968 0.59646-0.20414 0.875-0.34375 0.55709-0.27922 1.0601-0.66569 1.5-1.0938 0.21997-0.21403 0.40937-0.44186 0.59375-0.6875s0.35541-0.50774 0.5-0.78125c0.14012-0.26505 0.27614-0.52473 0.375-0.8125 0.01041-0.03078 0.02133-0.06274 0.03125-0.09375 0.09046-0.27808 0.1388-0.5794 0.1875-0.875 0.053-0.318 0.094-0.634 0.094-0.969v-2-68-2c0-3.324-2.676-6-6-6h-72z"/>
  <rect id="rect3941" style="opacity:.1;fill:#fff" height="84" width="1" y="6" x="24"/>
  <rect id="rect3943" height="84" width="1" y="6" x="23"/>
  <path id="path3189" style="opacity:.55870;fill:#6c4935;fill-rule:evenodd" d="m28 10v0.49836 5.2016 0.49836h0.49948 4.5578v4.1426h-1.4984v-2.118-0.49836h-0.49948-2.5598-0.49948v0.49836 2.6164 0.49836h0.49948 2.0604v53.325h-2.0604-0.49948v0.49836 2.6475 0.49836h0.49948 2.5598 0.49948v-0.49836-2.1492h1.4984v4.1426h-4.5578-0.49948v0.498 5.202 0.498h0.49948 5.0572 0.49948v-0.49836-4.7033h4.2456v1.6508h-2.154-0.49948v0.49836 2.5541 0.49836h0.49948 2.6535 0.49948v-0.49836-2.0557h35.399v2.0557 0.49836h0.49948 2.6847 0.49948v-0.49836-2.5541-0.49836h-0.49948-2.1852v-1.6508h4.2456v4.7033 0.49836h0.49948 5.0572 0.499v-0.498-5.202-0.49836h-0.49948-4.5578v-4.1426h1.5297v2.1492 0.49836h0.49948 2.5286 0.49948v-0.49836-2.6475-0.49836h-0.49948-2.0291v-53.325h2.0291 0.49948v-0.49836-2.6164-0.49836h-0.49948-2.5286-0.49948v0.49836 2.118h-1.5297v-4.1426h4.5578 0.49948v-0.498-5.202-0.498h-0.49948-5.0572-0.49948v0.49836 4.7033h-4.2456v-1.6508h2.1852 0.49948v-0.46721-2.5852-0.49836h-0.49948-2.6847-0.49948v0.49836 2.0869h-35.399v-2.0869-0.49836h-0.49948-2.6535-0.49948v0.49836 2.5852 0.46721h0.49948 2.154v1.6508h-4.2456v-4.7033-0.49836h-0.49948-5.058-0.499zm0.99896 0.99672h4.0583v4.2049h-4.0583v-4.2049zm7.6483 0h1.6545v1.5885h-1.6545v-1.5885zm39.051 0h1.6857v1.5885h-1.6857v-1.5885zm5.2445 0h4.0583v4.2049h-4.0583v-4.2049zm-41.642 2.5541h35.399v1.6508h-2.0916-0.49948v0.49836 2.5852 0.46721h0.49948 2.5911 0.49948v-0.46721-2.0869h4.2456v4.1426h-2.154-0.49948v0.49836 2.5852 0.46721h0.49948 2.6535 0.49948v-0.46721-2.0869h1.5297v53.325h-1.5297v-2.0557-0.49836h-0.49948-2.6535-0.49948v0.49836 2.5541 0.49836h0.49948 2.154v4.1426h-4.2456v-2.0557-0.49836h-0.49948-2.5911-0.49948v0.49836 2.5541 0.49836h0.49948 2.0916v1.6508h-35.399v-1.6508h2.1228 0.49948v-0.49836-2.5541-0.49836h-0.49948-2.6223-0.49948v0.49836 2.0557h-4.2456v-4.1426h2.1852 0.49948v-0.49836-2.5541-0.49836h-0.49948-2.6847-0.49948v0.49836 2.0557h-1.4984v-53.325h1.4984v2.0869 0.46721h0.49948 2.6847 0.49948v-0.46721-2.5852-0.49836h-0.49948-2.1852v-4.1426h4.2456v2.0869 0.46721h0.49948 2.6223 0.49948v-0.46721-2.5852-0.49836h-0.49948-2.1228v-1.6508zm0 2.6475h1.6233v1.5885h-1.6233v-1.5885zm33.806 0h1.5921v1.5885h-1.5921v-1.5885zm-44.108 2.4918h1.5609v1.6508h-1.5609v-1.6508zm54.472 0h1.5297v1.6508h-1.5297v-1.6508zm-49.415 2.6475h1.6857v1.5885h-1.6857v-1.5885zm44.233 0h1.6545v1.5885h-1.6545v-1.5885zm-44.233 51.767h1.6857v1.5574h-1.6857v-1.5574zm44.233 0h1.6545v1.5574h-1.6545v-1.5574zm-49.29 2.5541h1.5609v1.6508h-1.5609v-1.6508zm54.472 0h1.5297v1.6508h-1.5297v-1.6508zm-44.171 2.5852h1.6233v1.5574h-1.6233v-1.5574zm33.806 0h1.5921v1.5574h-1.5921v-1.5574zm-44.108 2.5541h4.0583v4.2049h-4.0583v-4.2049zm51.944 0h4.0583v4.2049h-4.0583v-4.2049zm-44.296 2.6475h1.6545v1.5574h-1.6545v-1.5574zm39.051 0h1.6857v1.5574h-1.6857v-1.5574z"/>
  <path id="text3202" style="fill:#6c4935" d="m45.606 29.721h-1.0168l-5.5682 14.114c-0.48419 1.2589-0.58103 1.4284-0.94417 1.8157-0.38735 0.45998-1.0652 0.75049-1.7189 0.75049h-0.09684v1.1378h6.4155v-1.1378h-0.48419c-1.3073 0-1.961-0.45998-1.961-1.3799 0-0.29051 0.07263-0.62944 0.21788-1.0168l0.79891-2.1304h6.4155l1.3073 3.2441c0.14526 0.36314 0.19367 0.53261 0.19367 0.65365 0 0.38735-0.60523 0.62944-1.501 0.62944h-1.0168v1.1378h7.5049v-1.1378h-0.33893c-1.2105 0-1.4768-0.19368-2.0336-1.5494l-6.173-15.131m-1.1863 3.9703 2.7357 6.8755h-5.4229l2.6872-6.8755m13.888-3.9945-4.164 0.2663v1.041h0.84733c0.89575 0 1.041 0.16947 1.041 1.2105v9.4174c0 3.2441-0.12105 4.8177-0.43577 6.246h0.91996l1.1863-1.8883c0.99258 1.3073 2.1304 1.9125 3.6314 1.9125 2.9777 0 5.205-2.5904 5.205-6.0766 0-3.4861-2.0336-5.9313-4.9387-5.9313-1.4768 0-2.3725 0.5084-3.2925 1.8883v-8.0859m2.8567 7.4323c1.8157 0 2.8325 1.7673 2.8325 4.9387 0 3.0504-0.99259 4.7935-2.7599 4.7935-1.9125 0-3.0504-1.7673-3.0504-4.745 0-3.2198 1.041-4.9871 2.9778-4.9871m15.631 6.8513c-0.7747 1.7431-1.5978 2.4451-2.8567 2.4451-1.9367 0-3.1472-1.7673-3.1472-4.5998 0-2.9293 1.1863-4.8903 2.9778-4.8903 0.72628 0 1.3557 0.33893 1.3557 0.72628 0 0.07263-0.0484 0.14526-0.14526 0.29051-0.38734 0.45998-0.48418 0.70207-0.48418 1.1136 0 0.79891 0.60524 1.3557 1.4526 1.3557 0.84732 0 1.4768-0.67786 1.4768-1.6462 0-1.622-1.622-2.8809-3.7767-2.8809-3.1472 0-5.3987 2.5904-5.3987 6.1976 0 3.4377 2.0578 5.8102 5.0598 5.8102 2.1546 0 3.3893-0.99259 4.4303-3.5588l-0.94417-0.36314"/>
  <path id="text3210" style="fill:#6c4935" d="m44.307 51.4h-0.13441l-0.13794 0.21576c-0.22991-0.18392-0.38553-0.24405-0.64374-0.24405-0.27942 0-0.49872 0.07782-0.72155 0.2582-0.35016 0.28296-0.51287 0.6402-0.51287 1.1177 0 0.36078 0.10611 0.66142 0.31126 0.89132 0.21929 0.24759 0.5447 0.39261 0.88425 0.39261 0.29711 0 0.50579-0.09196 0.7357-0.32187l0.13087 0.31833h0.14855v-0.77814c0-0.191 0-0.19454 0.02123-0.2193 0.03184-0.03537 0.10611-0.04952 0.29711-0.04952h0.05305v-0.16624h-1.1248v0.16624h0.0672c0.29711 0 0.32187 0.01769 0.32187 0.21222 0 0.15209-0.0283 0.29357-0.07074 0.37846-0.08843 0.17331-0.31479 0.29357-0.5447 0.29357-0.22637 0-0.45627-0.11672-0.57653-0.29357-0.13087-0.19453-0.18746-0.44566-0.18746-0.82412 0-0.78875 0.26174-1.2097 0.75338-1.2097 0.40322 0 0.68264 0.29004 0.82766 0.85596h0.15209l-0.04952-0.9939m1.1578 0.93023-0.6119 0.0389v0.15209h0.12733c0.13087 0 0.15209 0.02476 0.15209 0.17685v0.84534 0.14148c0 0.14148-0.0389 0.16624-0.26527 0.16624h-0.01415v0.12733h0.89486v-0.12733h-0.01415c-0.2299 0-0.26881-0.02476-0.26881-0.16624v-0.14148-0.36785c0-0.17331 0.02476-0.33248 0.06367-0.41383 0.07428-0.15916 0.23344-0.26881 0.38553-0.26881 0.09196 0 0.19807 0.05305 0.25113 0.1238 0.05305 0.07428 0.07782 0.18392 0.07782 0.3537v0.573 0.14148c0 0.14148-0.0389 0.16624-0.26881 0.16624h-0.01415v0.12733h0.89486v-0.12733h-0.01415c-0.22637 0-0.26527-0.02476-0.26527-0.16624v-0.14148-0.55531c0-0.25466-0.01061-0.31833-0.07428-0.43859-0.08843-0.16978-0.26881-0.27235-0.4775-0.27235-0.22636 0-0.40322 0.10611-0.55885 0.33955v-0.2865m2.3462-0.05305c-0.43151 0-0.77107 0.38553-0.77107 0.88071 0 0.48457 0.33955 0.87364 0.76399 0.87364s0.76399-0.38907 0.76399-0.87718c0-0.48457-0.33955-0.87718-0.75692-0.87718m0 0.15209c0.24759 0 0.38553 0.2582 0.38553 0.72509 0 0.47042-0.13794 0.72508-0.39261 0.72508-0.25466 0-0.39261-0.25466-0.39261-0.72155 0-0.48103 0.13441-0.72862 0.39968-0.72862m1.5881-0.09904-0.62959 0.0389v0.15209h0.14502c0.13087 0 0.15209 0.02476 0.15209 0.17685v0.84534 0.13794c0 0.14502-0.0389 0.16978-0.26528 0.16978h-0.01415v0.12733h0.89132v-0.12733h-0.01415c-0.22637 0-0.26528-0.02476-0.26528-0.16978v-0.13794-0.50226c0-0.31479 0.17331-0.54824 0.40322-0.54824 0.09196 0 0.191 0.04952 0.23344 0.11672 0.04952 0.0672 0.07074 0.16978 0.07074 0.31479v0.61898 0.14148c0 0.14148-0.0389 0.16624-0.26881 0.16624h-0.01415v0.12733h0.89486v-0.12733h-0.01415c-0.22637 0-0.26528-0.02476-0.26528-0.16624v-0.14148-0.47042c0-0.3537 0.15916-0.58007 0.40676-0.58007 0.11672 0 0.21222 0.06721 0.2582 0.17685 0.03183 0.07782 0.04244 0.15563 0.04244 0.29357v0.58007 0.14148c0 0.14148-0.0389 0.16624-0.26881 0.16624h-0.01415v0.12733h0.89486v-0.12733h-0.01415c-0.22637 0-0.26528-0.02476-0.26528-0.16978v-0.13794-0.65081c0-0.21929-0.02123-0.29357-0.11318-0.41383-0.10255-0.13086-0.24757-0.2016-0.41735-0.2016-0.22991 0-0.39968 0.10965-0.55177 0.3537-0.06013-0.21222-0.25113-0.3537-0.48811-0.3537-0.21222 0-0.37138 0.10257-0.50933 0.3254v-0.27235m4.077 0.85242c0.0035-0.53055-0.29711-0.90547-0.72862-0.90547-0.45274 0-0.79229 0.39261-0.79229 0.92316 0 0.49518 0.32187 0.8312 0.79936 0.8312 0.33602 0 0.57653-0.16624 0.72155-0.50226l-0.12379-0.0672c-0.14502 0.27235-0.29357 0.37846-0.53055 0.37846-0.18039 0-0.31126-0.07782-0.40322-0.23344-0.06367-0.10611-0.09196-0.2299-0.08843-0.42444h1.146m-1.1425-0.15209c0-0.10965 0.01415-0.18746 0.04952-0.2865 0.07428-0.21222 0.18746-0.31479 0.35724-0.31479 0.21576 0 0.35724 0.18746 0.35724 0.47042 0 0.10257-0.03184 0.13087-0.14502 0.13087h-0.61898m2.7318 0.51287v0.10257c0 0.14855-0.03184 0.16624-0.31479 0.16624h-0.0672v0.16624h1.1884c0.31479 0 0.55531-0.04952 0.74277-0.15563 0.35724-0.20161 0.55531-0.60483 0.55531-1.1354 0-0.48457-0.17685-0.8701-0.50226-1.0823-0.19454-0.1238-0.45627-0.18039-0.85949-0.18039h-1.1248v0.16624h0.0672c0.28296 0 0.31479 0.01769 0.31479 0.16624v0.10257 1.6836m0.59776 0.26881c-0.17685 0-0.20161-0.02123-0.20161-0.19454v-1.8286c0-0.17331 0.02476-0.19807 0.20161-0.19807h0.18392c0.60483 0 0.85595 0.32894 0.85595 1.1106 0 0.79229-0.2299 1.1106-0.79936 1.1106h-0.24052m2.3958-1.482-0.66496 0.0389v0.15209h0.18039c0.13087 0 0.15209 0.02476 0.15209 0.17685v0.84534 0.14148c0 0.14148-0.0389 0.16624-0.26528 0.16624h-0.02476v0.12733h0.91608v-0.12733h-0.02476c-0.2299 0-0.26881-0.02476-0.26881-0.16624v-0.14148-1.2132m-0.16624-0.88071c-0.11318 0-0.20515 0.09196-0.20515 0.20515 0 0.10965 0.09196 0.20515 0.20161 0.20515 0.11672 0 0.20868-0.09196 0.20868-0.20515 0-0.11318-0.09196-0.20515-0.20515-0.20515m1.9187 2.009c-0.11318 0.25466-0.23344 0.35724-0.41737 0.35724-0.28296 0-0.45981-0.2582-0.45981-0.67203 0-0.42798 0.17331-0.71447 0.43505-0.71447 0.10611 0 0.19807 0.04952 0.19807 0.10611 0 0.01061-0.007 0.02123-0.02123 0.04244-0.05659 0.0672-0.07074 0.10257-0.07074 0.1627 0 0.11672 0.08843 0.19807 0.21222 0.19807 0.1238 0 0.21576-0.09904 0.21576-0.24052 0-0.23698-0.23698-0.4209-0.55177-0.4209-0.45981 0-0.78875 0.37846-0.78875 0.90547 0 0.50226 0.30065 0.84888 0.73923 0.84888 0.31479 0 0.49518-0.14502 0.64727-0.51994l-0.13794-0.05305m0.88552-1.1283v-0.70033h-0.14502c-0.03537 0.45981-0.191 0.69325-0.4775 0.71447v0.13794h0.29003v0.90194c0 0.24759 0.007 0.33602 0.04244 0.41736 0.05659 0.14855 0.19807 0.22991 0.40322 0.22991 0.13794 0 0.2582-0.04244 0.33955-0.12026 0.11672-0.11318 0.18392-0.30064 0.18392-0.49518 0-0.02123 0-0.04598-0.0035-0.08135h-0.14855c-0.01061 0.31833-0.10257 0.48103-0.27589 0.48103-0.08135 0-0.15209-0.04244-0.17685-0.10257-0.02123-0.04952-0.03184-0.13794-0.03184-0.26528v-0.9656h0.51994v-0.15209h-0.51994m1.4172 0-0.66496 0.0389v0.15209h0.18039c0.13087 0 0.15209 0.02476 0.15209 0.17685v0.84534 0.14148c0 0.14148-0.0389 0.16624-0.26527 0.16624h-0.02476v0.12733h0.91608v-0.12733h-0.02476c-0.2299 0-0.26881-0.02476-0.26881-0.16624v-0.14148-1.2132m-0.16624-0.88071c-0.11318 0-0.20515 0.09196-0.20515 0.20515 0 0.10965 0.09196 0.20515 0.20161 0.20515 0.11672 0 0.20868-0.09196 0.20868-0.20515 0-0.11318-0.09196-0.20515-0.20515-0.20515m1.4412 0.82766c-0.43151 0-0.77107 0.38553-0.77107 0.88071 0 0.48457 0.33955 0.87364 0.76399 0.87364s0.76399-0.38907 0.76399-0.87718c0-0.48457-0.33955-0.87718-0.75692-0.87718m0 0.15209c0.24759 0 0.38553 0.2582 0.38553 0.72509 0 0.47042-0.13794 0.72508-0.39261 0.72508-0.25466 0-0.39261-0.25466-0.39261-0.72155 0-0.48103 0.13441-0.72862 0.39968-0.72862m1.5846-0.09904-0.6119 0.0389v0.15209h0.12733c0.13087 0 0.15209 0.02476 0.15209 0.17685v0.84534 0.14148c0 0.14148-0.0389 0.16624-0.26528 0.16624h-0.01415v0.12733h0.89486v-0.12733h-0.01415c-0.2299 0-0.26881-0.02476-0.26881-0.16624v-0.14148-0.36785c0-0.17331 0.02476-0.33248 0.06367-0.41383 0.07428-0.15916 0.23344-0.26881 0.38553-0.26881 0.09196 0 0.19807 0.05305 0.25113 0.1238 0.05305 0.07428 0.07782 0.18392 0.07782 0.3537v0.573 0.14148c0 0.14148-0.0389 0.16624-0.26881 0.16624h-0.01415v0.12733h0.89486v-0.12733h-0.01415c-0.22637 0-0.26528-0.02476-0.26528-0.16624v-0.14148-0.55531c0-0.25466-0.01061-0.31833-0.07428-0.43859-0.08843-0.16978-0.26881-0.27235-0.4775-0.27235-0.22637 0-0.40322 0.10611-0.55885 0.33955v-0.2865m3.0536 0.50933c0-0.22283-0.0389-0.33602-0.14148-0.4209-0.11672-0.09196-0.29004-0.14148-0.5164-0.14148-0.39614 0-0.68971 0.18746-0.68971 0.44212 0 0.13441 0.08135 0.21929 0.20515 0.21929 0.10965 0 0.191-0.07428 0.191-0.18039 0-0.04598-0.01769-0.0955-0.05305-0.14502-0.02123-0.02476-0.02476-0.03537-0.02476-0.04598 0-0.07428 0.14502-0.13794 0.31479-0.13794 0.10965 0 0.23344 0.03537 0.29003 0.08843 0.0672 0.05659 0.09196 0.14148 0.09196 0.30064v0.13794c-0.37138 0.06367-0.48457 0.09196-0.65788 0.15916-0.30418 0.11318-0.45274 0.27942-0.45274 0.50225 0 0.25113 0.20161 0.41383 0.51286 0.41383 0.24405 0 0.46335-0.09904 0.61544-0.27942 0.05659 0.18039 0.14502 0.25113 0.31126 0.25113 0.15917 0 0.32541-0.10257 0.32541-0.20515 0-0.02476-0.01769-0.04244-0.03537-0.04244-0.01415 0-0.0283 0.0035-0.05305 0.01415-0.05659 0.02123-0.07074 0.02476-0.09904 0.02476-0.09904 0-0.13441-0.0672-0.13441-0.24405v-0.71094m-0.33248 0.43151c0 0.21222-0.01061 0.26174-0.07074 0.3537-0.08843 0.13087-0.25113 0.21929-0.40322 0.21929-0.15916 0-0.27942-0.11672-0.27942-0.27589 0-0.14855 0.07428-0.25466 0.2299-0.32894 0.10965-0.04952 0.24759-0.08489 0.52348-0.13087v0.1627m1.4029-0.94084-0.62605 0.0389v0.15209h0.14502c0.13087 0 0.15209 0.02476 0.15209 0.17685v0.84534 0.14148c0 0.14148-0.0389 0.16624-0.26881 0.16624h-0.01415v0.12733h0.94438v-0.12733h-0.0672c-0.22637 0-0.26528-0.02476-0.26528-0.16624v-0.14148-0.03537c0-0.26528 0.04952-0.53409 0.13794-0.7357 0.08489-0.19807 0.20515-0.30772 0.3537-0.3254-0.04952 0.05659-0.06367 0.09196-0.06367 0.15916 0 0.11318 0.08135 0.19454 0.19453 0.19454 0.12733 0 0.21576-0.0955 0.21576-0.24052 0-0.16978-0.12026-0.28296-0.30772-0.28296-0.22283 0-0.41737 0.18039-0.53055 0.49164v-0.43859m1.9289 1.199-0.38907-0.90901c-0.01415-0.03184-0.02123-0.05659-0.02123-0.07428 0-0.06367 0.04244-0.08843 0.1627-0.08843h0.07428v-0.12733h-0.84181v0.12733h0.0389c0.11318 0 0.17685 0.04952 0.24052 0.191l0.57653 1.3052-0.06013 0.1238c-0.12733 0.26881-0.29357 0.45627-0.40676 0.45627-0.03183 0-0.05659-0.01415-0.05659-0.03537 0-0.007 0.0035-0.01769 0.007-0.03184 0.01061-0.03184 0.01769-0.06367 0.01769-0.09196 0-0.09196-0.07782-0.15916-0.18039-0.15916-0.1238 0-0.21222 0.09196-0.21222 0.21929 0 0.15563 0.13794 0.27235 0.32187 0.27235 0.18746 0 0.34663-0.09196 0.48811-0.28296 0.10965-0.14855 0.18039-0.29003 0.33602-0.68264l0.40322-0.99743c0.08843-0.21576 0.1627-0.2865 0.29711-0.2865h0.02123v-0.12733h-0.7074v0.12733h0.05659c0.13441 0 0.191 0.0389 0.191 0.13087 0 0.03537-0.01061 0.08136-0.03537 0.14148l-0.32187 0.79936"/>
  <path id="path3615" style="opacity:.2;fill:url(#radialGradient3619)" d="m12 90c-3.324 0-6-2.676-6-6v-2-68-2c0-0.33472 0.04135-0.6507 0.09375-0.96875 0.0487-0.2956 0.09704-0.59692 0.1875-0.875 0.0099-0.03 0.0209-0.063 0.0313-0.094 0.0989-0.2873 0.2349-0.547 0.375-0.812 0.1446-0.2735 0.3156-0.5356 0.5-0.7812 0.1844-0.2457 0.3738-0.4735 0.5937-0.6876 0.44-0.428 0.943-0.8145 1.5-1.0937 0.2786-0.1396 0.5735-0.2469 0.8748-0.3437-0.256 0.1002-0.4865 0.2362-0.7185 0.375-0.00741 0.0044-0.023866-0.0045-0.03125 0-0.031933 0.0193-0.062293 0.04251-0.09375 0.0625-0.1204 0.0767-0.23102 0.16351-0.34375 0.25-0.10617 0.0808-0.21328 0.16111-0.3125 0.25-0.1779 0.1614-0.3474 0.3453-0.5 0.5312-0.1075 0.1303-0.2183 0.2653-0.3124 0.4063-0.0251 0.0383-0.0385 0.0858-0.0626 0.125-0.0647 0.103-0.1302 0.2045-0.1874 0.3124-0.1011 0.1948-0.2057 0.4158-0.2813 0.625-0.008 0.0219-0.0236 0.0406-0.0313 0.0626-0.0318 0.0919-0.0358 0.1868-0.0624 0.2812-0.0304 0.1066-0.0704 0.203-0.0938 0.3125-0.0729 0.3415-0.125 0.6985-0.125 1.0625v2 68 2c0 2.7818 2.2182 5 5 5h2 68 2c2.7818 0 5-2.2182 5-5v-2-68-2c0-0.364-0.052-0.721-0.125-1.0625-0.044-0.2069-0.088-0.3977-0.156-0.5937-0.008-0.022-0.024-0.0407-0.031-0.0626-0.063-0.1737-0.139-0.3674-0.219-0.5312-0.042-0.0828-0.079-0.17-0.125-0.25-0.055-0.0972-0.127-0.1884-0.188-0.2812-0.094-0.141-0.205-0.276-0.312-0.4063-0.143-0.1745-0.303-0.347-0.469-0.5-0.011-0.0102-0.02-0.0211-0.031-0.0313-0.139-0.1255-0.285-0.2344-0.438-0.3437-0.102-0.0731-0.204-0.1534-0.312-0.2187-0.0074-0.0045-0.02384 0.0044-0.03125 0-0.23204-0.13873-0.46255-0.27478-0.71875-0.375 0.30153 0.0968 0.59646 0.20414 0.875 0.34375 0.55709 0.27922 1.0601 0.66569 1.5 1.0938 0.21997 0.21403 0.40937 0.44186 0.59375 0.6875s0.35541 0.50774 0.5 0.78125c0.14012 0.26505 0.27614 0.52473 0.375 0.8125 0.01041 0.03078 0.02133 0.06274 0.03125 0.09375 0.09046 0.27808 0.1388 0.5794 0.1875 0.875 0.053 0.318 0.094 0.634 0.094 0.969v2 68 2c0 3.324-2.676 6-6 6h-72z"/>
 </g>
 <g id="layer5" transform="translate(-98.1)">
  <rect id="rect3171" style="opacity:.1;filter:url(#filter3794);stroke:#fff;stroke-linecap:round;stroke-width:.5;fill:url(#linearGradient3065)" transform="translate(98.1)" clip-path="url(#clipPath3613)" rx="12" ry="12" height="66" width="66" y="15" x="15"/>
 </g>
</svg>
