<?xml version="1.0" encoding="UTF-8" standalone="no"?>
<!-- Created with Inkscape (http://www.inkscape.org/) -->
<svg id="svg2408" xmlns:rdf="http://www.w3.org/1999/02/22-rdf-syntax-ns#" xmlns="http://www.w3.org/2000/svg" height="96" width="96" version="1.0" xmlns:cc="http://creativecommons.org/ns#" xmlns:xlink="http://www.w3.org/1999/xlink" xmlns:dc="http://purl.org/dc/elements/1.1/">
 <defs id="defs2410">
  <linearGradient id="linearGradient3832">
   <stop id="stop3834" style="stop-color:#595959" offset="0"/>
   <stop id="stop3836" style="stop-color:#595959;stop-opacity:0" offset="1"/>
  </linearGradient>
  <linearGradient id="linearGradient4167">
   <stop id="stop4169" style="stop-color:#777" offset="0"/>
   <stop id="stop4171" style="stop-color:#777;stop-opacity:0" offset="1"/>
  </linearGradient>
  <linearGradient id="linearGradient4118">
   <stop id="stop4120" style="stop-color:#95890c" offset="0"/>
   <stop id="stop4122" style="stop-color:#ecdb18" offset="1"/>
  </linearGradient>
  <linearGradient id="ButtonShadow" y2="7.0165" gradientUnits="userSpaceOnUse" x2="45.448" gradientTransform="scale(1.0059 .99417)" y1="92.54" x1="45.448">
   <stop id="stop3750" offset="0"/>
   <stop id="stop3752" style="stop-opacity:.58824" offset="1"/>
  </linearGradient>
  <linearGradient id="linearGradient3737">
   <stop id="stop3739" style="stop-color:#fff" offset="0"/>
   <stop id="stop3741" style="stop-color:#fff;stop-opacity:0" offset="1"/>
  </linearGradient>
  <filter id="filter3174" color-interpolation-filters="sRGB">
   <feGaussianBlur id="feGaussianBlur3176" stdDeviation="1.71"/>
  </filter>
  <linearGradient id="linearGradient3188" y2="63.893" xlink:href="#linearGradient3737" gradientUnits="userSpaceOnUse" x2="36.357" y1="6" x1="36.357"/>
  <radialGradient id="radialGradient3619" xlink:href="#linearGradient3737" gradientUnits="userSpaceOnUse" cy="90.172" cx="48" gradientTransform="matrix(1.1573 0 0 .99591 -7.551 .19713)" r="42"/>
  <linearGradient id="linearGradient4152" y2="109.11" xlink:href="#linearGradient3737" gradientUnits="userSpaceOnUse" x2="48" y1="6" x1="48"/>
  <linearGradient id="linearGradient4206" y2="5.9877" gradientUnits="userSpaceOnUse" x2="48" y1="90" x1="48">
   <stop id="stop4086" style="stop-color:#43a9d6" offset="0"/>
   <stop id="stop4088" style="stop-color:#c1e9f3" offset="1"/>
  </linearGradient>
  <linearGradient id="linearGradient4214" y2="5.9877" gradientUnits="userSpaceOnUse" x2="48" y1="90" x1="48">
   <stop id="stop4210" style="stop-color:#f3840c" offset="0"/>
   <stop id="stop4212" style="stop-color:#f2b80c" offset="1"/>
  </linearGradient>
  <linearGradient id="ButtonShadow-0" y2="7.0165" gradientUnits="userSpaceOnUse" x2="45.448" gradientTransform="matrix(1.0059 0 0 .99417 100 0)" y1="92.54" x1="45.448">
   <stop id="stop3750-8" offset="0"/>
   <stop id="stop3752-5" style="stop-opacity:.58824" offset="1"/>
  </linearGradient>
  <linearGradient id="linearGradient3780" y2="90.239" xlink:href="#ButtonShadow-0" gradientUnits="userSpaceOnUse" x2="32.251" gradientTransform="matrix(1.0238 0 0 1.0119 -1.1429 -98.071)" y1="6.1317" x1="32.251"/>
  <linearGradient id="linearGradient3721" y2="90.239" xlink:href="#ButtonShadow-0" gradientUnits="userSpaceOnUse" x2="32.251" gradientTransform="translate(0,-97)" y1="6.1317" x1="32.251"/>
  <linearGradient id="linearGradient4116" y2="48.488" gradientUnits="userSpaceOnUse" x2="239.38" gradientTransform="matrix(1.0326 0 0 1.0519 -181.04 -15.552)" y1="44.066" x1="239.38">
   <stop id="stop4112" style="stop-color:#fad72a" offset="0"/>
   <stop id="stop4114" style="stop-color:#b29405" offset="1"/>
  </linearGradient>
  <linearGradient id="linearGradient4124" y2="77.968" xlink:href="#linearGradient4118" gradientUnits="userSpaceOnUse" x2="211.09" gradientTransform="matrix(1.0326 0 0 1.0519 -181.04 -15.552)" y1="83.054" x1="207.07"/>
  <linearGradient id="linearGradient4132" y2="76.702" xlink:href="#linearGradient4118" gradientUnits="userSpaceOnUse" x2="235.04" gradientTransform="matrix(1.0003 0 0 .98063 -173.71 -9.4046)" y1="81.567" x1="238.62"/>
  <radialGradient id="radialGradient4173" xlink:href="#linearGradient4167" gradientUnits="userSpaceOnUse" cy="61.506" cx="62.244" gradientTransform="matrix(1 0 0 .98462 0 .94624)" r="7.1862"/>
  <radialGradient id="radialGradient3838" xlink:href="#linearGradient3832" gradientUnits="userSpaceOnUse" cy="32.208" cx="42.012" gradientTransform="matrix(1 0 0 .97917 0 .67101)" r="5.3068"/>
  <radialGradient id="radialGradient3876" gradientUnits="userSpaceOnUse" cy="51.666" cx="64.344" gradientTransform="matrix(1 0 0 .94643 0 2.7678)" r="6.1912">
   <stop id="stop3872" style="stop-color:#fff" offset="0"/>
   <stop id="stop3874" style="stop-color:#fff;stop-opacity:0" offset="1"/>
  </radialGradient>
  <radialGradient id="radialGradient3892" gradientUnits="userSpaceOnUse" cy="32.208" cx="42.012" gradientTransform="matrix(1 0 0 .97917 0 .67101)" r="5.3068">
   <stop id="stop3888" style="stop-color:#1a1a1a" offset="0"/>
   <stop id="stop3890" style="stop-color:#1a1a1a;stop-opacity:0" offset="1"/>
  </radialGradient>
 </defs>
 <metadata id="metadata2413">
  <rdf:RDF>
   <cc:Work rdf:about="">
    <dc:format>image/svg+xml</dc:format>
    <dc:type rdf:resource="http://purl.org/dc/dcmitype/StillImage"/>
    <dc:title/>
   </cc:Work>
  </rdf:RDF>
 </metadata>
 <g id="layer2" style="display:none">
  <rect id="rect3745" style="opacity:.9;filter:url(#filter3174);fill:url(#ButtonShadow)" rx="6" ry="6" height="85" width="86" y="7" x="5"/>
 </g>
 <g id="g3974">
  <g id="layer4">
   <path id="path3786" style="opacity:0.08;fill:url(#linearGradient3780)" d="m12-95.031c-5.5111 0-10.031 4.5202-10.031 10.031v71c0 5.5111 4.5202 10.031 10.031 10.031h72c5.5111 0 10.031-4.5202 10.031-10.031v-71c0-5.5111-4.5202-10.031-10.031-10.031h-72z" transform="scale(1,-1)"/>
   <path id="path3778" style="opacity:.1;fill:url(#linearGradient3780)" d="m12-94.031c-4.9716 0-9.0312 4.0596-9.0312 9.0312v71c0 4.9716 4.0596 9.0312 9.0312 9.0312h72c4.9716 0 9.0312-4.0596 9.0312-9.0312v-71c0-4.9716-4.0596-9.0312-9.0312-9.0312h-72z" transform="scale(1,-1)"/>
   <path id="path3770" style="opacity:.2;fill:url(#linearGradient3780)" d="m12-93c-4.4091 0-8 3.5909-8 8v71c0 4.4091 3.5909 8 8 8h72c4.4091 0 8-3.5909 8-8v-71c0-4.4091-3.5909-8-8-8h-72z" transform="scale(1,-1)"/>
   <rect id="rect3723" style="opacity:.3;fill:url(#linearGradient3780)" transform="scale(1,-1)" rx="7" ry="7" height="85" width="86" y="-92" x="5"/>
   <rect id="rect3716" style="opacity:.45;fill:url(#linearGradient3721)" transform="scale(1,-1)" rx="6" ry="6" height="84" width="84" y="-91" x="6"/>
  </g>
  <g id="layer1">
   <rect id="rect2419" style="fill:url(#linearGradient4214)" rx="6" ry="6" height="84" width="84" y="6" x="6"/>
   <rect id="rect4204" style="fill:url(#linearGradient4206)" rx="6" ry="6" height="84" width="84" y="6" x="6"/>
   <path id="rect3728" style="opacity:.5;fill:url(#linearGradient3188)" d="m12 6c-3.324 0-6 2.676-6 6v2 68 2c0 0.33472 0.04135 0.6507 0.09375 0.96875 0.0487 0.2956 0.09704 0.59692 0.1875 0.875 0.00988 0.03038 0.020892 0.0636 0.03125 0.09375 0.098865 0.28777 0.23488 0.54745 0.375 0.8125 0.14459 0.27351 0.31562 0.53562 0.5 0.78125 0.18438 0.24564 0.37378 0.47347 0.59375 0.6875 0.43995 0.42806 0.94291 0.81453 1.5 1.0938 0.27854 0.13961 0.57347 0.24695 0.875 0.34375-0.2562-0.10022-0.48671-0.23627-0.71875-0.375-0.00741-0.0044-0.023866 0.0045-0.03125 0-0.031933-0.0193-0.062293-0.04251-0.09375-0.0625-0.1204-0.0767-0.23102-0.16351-0.34375-0.25-0.10617-0.0808-0.21328-0.16111-0.3125-0.25-0.1778-0.162-0.3473-0.346-0.4999-0.531-0.1075-0.131-0.2183-0.266-0.3124-0.407-0.0251-0.038-0.0385-0.086-0.0626-0.125-0.0647-0.103-0.1302-0.204-0.1874-0.312-0.1011-0.195-0.2057-0.416-0.2813-0.625-0.008-0.022-0.0236-0.041-0.0313-0.063-0.0318-0.092-0.0358-0.187-0.0624-0.281-0.0304-0.107-0.0704-0.203-0.0938-0.313-0.0729-0.341-0.125-0.698-0.125-1.062v-2-68-2c0-2.782 2.2182-5 5-5h2 68 2c2.7818 0 5 2.2182 5 5v2 68 2c0 0.3643-0.05212 0.72099-0.125 1.0625-0.04415 0.20689-0.08838 0.39766-0.15625 0.59375-0.0077 0.02195-0.0233 0.04069-0.03125 0.0625-0.06274 0.17374-0.13838 0.36745-0.21875 0.53125-0.04158 0.0828-0.07904 0.16995-0.125 0.25-0.0546 0.09721-0.12677 0.18835-0.1875 0.28125-0.09411 0.14096-0.20492 0.276-0.3125 0.40625-0.14317 0.17445-0.30314 0.347-0.46875 0.5-0.01117 0.0102-0.01998 0.02115-0.03125 0.03125-0.13839 0.12556-0.28509 0.23444-0.4375 0.34375-0.10257 0.07315-0.20432 0.15336-0.3125 0.21875-0.0074 0.0045-0.02384-0.0044-0.03125 0-0.23204 0.13873-0.46255 0.27478-0.71875 0.375 0.30153-0.0968 0.59646-0.20414 0.875-0.34375 0.55709-0.27922 1.0601-0.66569 1.5-1.0938 0.21997-0.21403 0.40937-0.44186 0.59375-0.6875s0.35541-0.50774 0.5-0.78125c0.14012-0.26505 0.27614-0.52473 0.375-0.8125 0.01041-0.03078 0.02133-0.06274 0.03125-0.09375 0.09046-0.27808 0.1388-0.5794 0.1875-0.875 0.053-0.318 0.094-0.634 0.094-0.969v-2-68-2c0-3.324-2.676-6-6-6h-72z"/>
   <path id="path3615" style="opacity:.2;fill:url(#radialGradient3619)" d="m12 90c-3.324 0-6-2.676-6-6v-2-68-2c0-0.33472 0.04135-0.6507 0.09375-0.96875 0.0487-0.2956 0.09704-0.59692 0.1875-0.875 0.0099-0.03 0.0209-0.063 0.0313-0.094 0.0989-0.2873 0.2349-0.547 0.375-0.812 0.1446-0.2735 0.3156-0.5356 0.5-0.7812 0.1844-0.2457 0.3738-0.4735 0.5937-0.6876 0.44-0.428 0.943-0.8145 1.5-1.0937 0.2786-0.1396 0.5735-0.2469 0.8748-0.3437-0.256 0.1002-0.4865 0.2362-0.7185 0.375-0.00741 0.0044-0.023866-0.0045-0.03125 0-0.031933 0.0193-0.062293 0.04251-0.09375 0.0625-0.1204 0.0767-0.23102 0.16351-0.34375 0.25-0.10617 0.0808-0.21328 0.16111-0.3125 0.25-0.1779 0.1614-0.3474 0.3453-0.5 0.5312-0.1075 0.1303-0.2183 0.2653-0.3124 0.4063-0.0251 0.0383-0.0385 0.0858-0.0626 0.125-0.0647 0.103-0.1302 0.2045-0.1874 0.3124-0.1011 0.1948-0.2057 0.4158-0.2813 0.625-0.008 0.0219-0.0236 0.0406-0.0313 0.0626-0.0318 0.0919-0.0358 0.1868-0.0624 0.2812-0.0304 0.1066-0.0704 0.203-0.0938 0.3125-0.0729 0.3415-0.125 0.6985-0.125 1.0625v2 68 2c0 2.7818 2.2182 5 5 5h2 68 2c2.7818 0 5-2.2182 5-5v-2-68-2c0-0.364-0.052-0.721-0.125-1.0625-0.044-0.2069-0.088-0.3977-0.156-0.5937-0.008-0.022-0.024-0.0407-0.031-0.0626-0.063-0.1737-0.139-0.3674-0.219-0.5312-0.042-0.0828-0.079-0.17-0.125-0.25-0.055-0.0972-0.127-0.1884-0.188-0.2812-0.094-0.141-0.205-0.276-0.312-0.4063-0.143-0.1745-0.303-0.347-0.469-0.5-0.011-0.0102-0.02-0.0211-0.031-0.0313-0.139-0.1255-0.285-0.2344-0.438-0.3437-0.102-0.0731-0.204-0.1534-0.312-0.2187-0.0074-0.0045-0.02384 0.0044-0.03125 0-0.23204-0.13873-0.46255-0.27478-0.71875-0.375 0.30153 0.0968 0.59646 0.20414 0.875 0.34375 0.55709 0.27922 1.0601 0.66569 1.5 1.0938 0.21997 0.21403 0.40937 0.44186 0.59375 0.6875s0.35541 0.50774 0.5 0.78125c0.14012 0.26505 0.27614 0.52473 0.375 0.8125 0.01041 0.03078 0.02133 0.06274 0.03125 0.09375 0.09046 0.27808 0.1388 0.5794 0.1875 0.875 0.053 0.318 0.094 0.634 0.094 0.969v2 68 2c0 3.324-2.676 6-6 6h-72z"/>
   <path id="path4141" style="opacity:.45;fill:url(#linearGradient4152)" d="m20.875 6 25.781 40.656-40.656-26.156v18.5l40.219 9-40.219 8.75v18.375l40.656-25.781-26.156 40.656h18.5l9-40.219 8.75 40.219h18.375l-25.781-40.656 40.656 26.156v-18.5l-40.219-9 40.219-8.75v-18.375l-40.656 25.781 26.156-40.656h-18.5l-9 40.219-8.75-40.219h-18.375z"/>
  </g>
  <g id="g3962" style="opacity:.1" transform="matrix(1.1612 0 0 1.1286 -134.84 -5.9842)">
   <path id="path3964" style="fill:#1a1a1a" d="m162.33 73.626s15.796-17.785 17.673-17.632c1.8768 0.15332 3.7535 0 3.2843 2.2998s-12.981 16.406-14.232 16.712c-1.2512 0.30664-6.8814 0.15332-6.8814 0.15332z"/>
   <path id="path3966" style="fill:#1a1a1a" d="m158.62 18.58s-11.737-0.83421-13.357 9.0709c-1.5983 9.7687 1.0965 9.0315-2.055 13.025-6.0409 7.6548-9.5898 16.746-8.9048 20.468 0.68498 3.7214-0.45666 1.1629-2.5116 4.8843-2.055 3.7214-4.3383 5.3495 0.45666 5.3495 4.7949 0 36.989 0.23259 38.588-0.46517 1.5983-0.69776 7.7632-5.5821 6.1649-16.049-1.5983-10.466-5.9366-11.397-5.7082-12.792 0.22833-1.3955 1.7616-14.992-4.6808-20.119-3.6533-2.9073-7.9915-3.3725-7.9915-3.3725z"/>
   <path id="path3968" style="fill:#1a1a1a" d="m184.65 32.681c-0.12924 2.4317-14.854 4.7695-16.791 4.4405-1.9374-0.32893-3.2258-0.65774-3.0676-5.0984 0.11892-3.3375 2.7447-5.9207 7.2654-4.2761s12.723 2.5023 12.593 4.9339z"/>
   <path id="path3970" style="fill:#1a1a1a" d="m171.61 42.865s-6.7357-5.5821-12.786 5.0006c-2.9258 5.1172-4.6651 12.643-1.8266 17.909 3.1966 5.931 11.416 5.931 13.928 5.0006 2.5116-0.93035 6.8635-5.5386 6.2791-14.072-0.68499-10.001-5.5941-13.839-5.5941-13.839z"/>
   <path id="path3972" style="fill:#1a1a1a" d="m147.49 69.568c4.8594 2.2215 5.9936 0.74824 8.1466 2.6438 1.6972 1.4943 1.584 3.2186-0.56574 3.2186-2.1498 0-10.07 0.80464-10.975-0.34485-0.90518-1.1495-12.786-15.288-12.672-16.897 0.11315-1.6093 1.584-2.6438 2.9418-2.299 7.5477 4.8334 8.409 10.517 13.125 13.679z"/>
  </g>
  <g id="g3950" style="opacity:.2" transform="matrix(1.1216 0 0 1.0958 -128.77 -4.593)">
   <path id="path3952" style="fill:#1a1a1a" d="m162.33 73.626s15.796-17.785 17.673-17.632c1.8768 0.15332 3.7535 0 3.2843 2.2998s-12.981 16.406-14.232 16.712c-1.2512 0.30664-6.8814 0.15332-6.8814 0.15332z"/>
   <path id="path3954" style="fill:#1a1a1a" d="m158.62 18.58s-11.737-0.83421-13.357 9.0709c-1.5983 9.7687 1.0965 9.0315-2.055 13.025-6.0409 7.6548-9.5898 16.746-8.9048 20.468 0.68498 3.7214-0.45666 1.1629-2.5116 4.8843-2.055 3.7214-4.3383 5.3495 0.45666 5.3495 4.7949 0 36.989 0.23259 38.588-0.46517 1.5983-0.69776 7.7632-5.5821 6.1649-16.049-1.5983-10.466-5.9366-11.397-5.7082-12.792 0.22833-1.3955 1.7616-14.992-4.6808-20.119-3.6533-2.9073-7.9915-3.3725-7.9915-3.3725z"/>
   <path id="path3956" style="fill:#1a1a1a" d="m184.65 32.681c-0.12924 2.4317-14.854 4.7695-16.791 4.4405-1.9374-0.32893-3.2258-0.65774-3.0676-5.0984 0.11892-3.3375 2.7447-5.9207 7.2654-4.2761s12.723 2.5023 12.593 4.9339z"/>
   <path id="path3958" style="fill:#1a1a1a" d="m171.61 42.865s-6.7357-5.5821-12.786 5.0006c-2.9258 5.1172-4.6651 12.643-1.8266 17.909 3.1966 5.931 11.416 5.931 13.928 5.0006 2.5116-0.93035 6.8635-5.5386 6.2791-14.072-0.68499-10.001-5.5941-13.839-5.5941-13.839z"/>
   <path id="path3960" style="fill:#1a1a1a" d="m147.49 69.568c4.8594 2.2215 5.9936 0.74824 8.1466 2.6438 1.6972 1.4943 1.584 3.2186-0.56574 3.2186-2.1498 0-10.07 0.80464-10.975-0.34485-0.90518-1.1495-12.786-15.288-12.672-16.897 0.11315-1.6093 1.584-2.6438 2.9418-2.299 7.5477 4.8334 8.409 10.517 13.125 13.679z"/>
  </g>
  <g id="g3938" style="opacity:.3" transform="matrix(1.0849 0 0 1.0712 -122.93 -3.5105)">
   <path id="path3940" style="fill:#1a1a1a" d="m162.33 73.626s15.796-17.785 17.673-17.632c1.8768 0.15332 3.7535 0 3.2843 2.2998s-12.981 16.406-14.232 16.712c-1.2512 0.30664-6.8814 0.15332-6.8814 0.15332z"/>
   <path id="path3942" style="fill:#1a1a1a" d="m158.62 18.58s-11.737-0.83421-13.357 9.0709c-1.5983 9.7687 1.0965 9.0315-2.055 13.025-6.0409 7.6548-9.5898 16.746-8.9048 20.468 0.68498 3.7214-0.45666 1.1629-2.5116 4.8843-2.055 3.7214-4.3383 5.3495 0.45666 5.3495 4.7949 0 36.989 0.23259 38.588-0.46517 1.5983-0.69776 7.7632-5.5821 6.1649-16.049-1.5983-10.466-5.9366-11.397-5.7082-12.792 0.22833-1.3955 1.7616-14.992-4.6808-20.119-3.6533-2.9073-7.9915-3.3725-7.9915-3.3725z"/>
   <path id="path3944" style="fill:#1a1a1a" d="m184.65 32.681c-0.12924 2.4317-14.854 4.7695-16.791 4.4405-1.9374-0.32893-3.2258-0.65774-3.0676-5.0984 0.11892-3.3375 2.7447-5.9207 7.2654-4.2761s12.723 2.5023 12.593 4.9339z"/>
   <path id="path3946" style="fill:#1a1a1a" d="m171.61 42.865s-6.7357-5.5821-12.786 5.0006c-2.9258 5.1172-4.6651 12.643-1.8266 17.909 3.1966 5.931 11.416 5.931 13.928 5.0006 2.5116-0.93035 6.8635-5.5386 6.2791-14.072-0.68499-10.001-5.5941-13.839-5.5941-13.839z"/>
   <path id="path3948" style="fill:#1a1a1a" d="m147.49 69.568c4.8594 2.2215 5.9936 0.74824 8.1466 2.6438 1.6972 1.4943 1.584 3.2186-0.56574 3.2186-2.1498 0-10.07 0.80464-10.975-0.34485-0.90518-1.1495-12.786-15.288-12.672-16.897 0.11315-1.6093 1.584-2.6438 2.9418-2.299 7.5477 4.8334 8.409 10.517 13.125 13.679z"/>
  </g>
  <g id="g3912" style="opacity:.45" transform="matrix(1.0481 0 0 1.0356 -116.92 -1.7555)">
   <path id="path3896" style="fill:#1a1a1a" d="m162.33 73.626s15.796-17.785 17.673-17.632c1.8768 0.15332 3.7535 0 3.2843 2.2998s-12.981 16.406-14.232 16.712c-1.2512 0.30664-6.8814 0.15332-6.8814 0.15332z"/>
   <path id="path3898" style="fill:#1a1a1a" d="m158.62 18.58s-11.737-0.83421-13.357 9.0709c-1.5983 9.7687 1.0965 9.0315-2.055 13.025-6.0409 7.6548-9.5898 16.746-8.9048 20.468 0.68498 3.7214-0.45666 1.1629-2.5116 4.8843-2.055 3.7214-4.3383 5.3495 0.45666 5.3495 4.7949 0 36.989 0.23259 38.588-0.46517 1.5983-0.69776 7.7632-5.5821 6.1649-16.049-1.5983-10.466-5.9366-11.397-5.7082-12.792 0.22833-1.3955 1.7616-14.992-4.6808-20.119-3.6533-2.9073-7.9915-3.3725-7.9915-3.3725z"/>
   <path id="path3900" style="fill:#1a1a1a" d="m184.65 32.681c-0.12924 2.4317-14.854 4.7695-16.791 4.4405-1.9374-0.32893-3.2258-0.65774-3.0676-5.0984 0.11892-3.3375 2.7447-5.9207 7.2654-4.2761s12.723 2.5023 12.593 4.9339z"/>
   <path id="path3902" style="fill:#1a1a1a" d="m171.61 42.865s-6.7357-5.5821-12.786 5.0006c-2.9258 5.1172-4.6651 12.643-1.8266 17.909 3.1966 5.931 11.416 5.931 13.928 5.0006 2.5116-0.93035 6.8635-5.5386 6.2791-14.072-0.68499-10.001-5.5941-13.839-5.5941-13.839z"/>
   <path id="path3904" style="fill:#1a1a1a" d="m147.49 69.568c4.8594 2.2215 5.9936 0.74824 8.1466 2.6438 1.6972 1.4943 1.584 3.2186-0.56574 3.2186-2.1498 0-10.07 0.80464-10.975-0.34485-0.90518-1.1495-12.786-15.288-12.672-16.897 0.11315-1.6093 1.584-2.6438 2.9418-2.299 7.5477 4.8334 8.409 10.517 13.125 13.679z"/>
  </g>
  <path id="path4108" style="fill:url(#linearGradient4132)" d="m53.197 73.626s15.796-17.785 17.673-17.632c1.8768 0.15332 3.7535 0 3.2843 2.2998s-12.981 16.406-14.232 16.712c-1.2512 0.30664-6.8815 0.15332-6.8815 0.15332z"/>
  <path id="path4096" style="fill:#010101" d="m49.485 18.58s-11.737-0.83421-13.357 9.0709c-1.5983 9.7687 1.0965 9.0315-2.055 13.025-6.0409 7.6548-9.5898 16.746-8.9049 20.468 0.68498 3.7214-0.45666 1.1629-2.5116 4.8843-2.055 3.7214-4.3383 5.3495 0.45666 5.3495 4.7949 0 36.989 0.23259 38.588-0.46517 1.598-0.699 7.763-5.583 6.165-16.05-1.599-10.466-5.937-11.396-5.709-12.792 0.229-1.395 1.762-14.992-4.68-20.119-3.654-2.907-7.992-3.372-7.992-3.372z"/>
  <path id="path4098" style="fill:url(#linearGradient4116)" d="m75.518 32.681c-0.12923 2.4317-14.854 4.7695-16.791 4.4405-1.9374-0.32893-3.2258-0.65774-3.0676-5.0984 0.11892-3.3375 2.7447-5.9207 7.2654-4.2761s12.723 2.5023 12.593 4.9339z"/>
  <path id="path4100" style="fill:#fff" d="m197.46 29.997a2.8192 3.9801 0 1 1 -0.0458 -0.71438" transform="matrix(1.1136 0 0 .86196 -165.29 1.5998)"/>
  <path id="path4102" d="m197.46 29.997a2.8192 3.9801 0 1 1 -0.0458 -0.71438" transform="matrix(.85040 0 0 .62821 -113.09 9.6584)"/>
  <path id="path4104" style="fill:#fff" d="m62.476 42.865s-6.7357-5.5821-12.786 5.0006c-2.9258 5.1172-4.6651 12.643-1.8266 17.909 3.1966 5.931 11.416 5.931 13.928 5.0006 2.5116-0.93035 6.8635-5.5386 6.2791-14.072-0.685-10.001-5.5941-13.839-5.5941-13.839z"/>
  <path id="path4175" style="opacity:.25339;fill:url(#radialGradient4173)" d="m69.43 61.506a7.1862 7.0757 0 1 1 -0.117 -1.27" transform="matrix(1.6363 0 0 1.4956 -43.256 -31.333)"/>
  <path id="path3868" style="opacity:.91855;fill:url(#radialGradient3876)" d="m70.536 51.666a6.1912 5.8595 0 1 1 -0.101 -1.051" transform="matrix(1.2539 0 0 1.4091 -22.43 -21.915)"/>
  <path id="path3860" style="opacity:.61538;fill:url(#radialGradient3838)" d="m47.319 32.208a5.3068 5.1962 0 1 1 -0.08618 -0.93266" transform="matrix(1.4476 .57437 -1.0483 1.6883 7.7957 -18.663)"/>
  <path id="path4106" style="fill:url(#linearGradient4124)" d="m38.357 69.568c4.8594 2.2215 5.9936 0.74824 8.1466 2.6438 1.6972 1.4943 1.5841 3.2186-0.56574 3.2186s-10.07 0.80464-10.975-0.34485c-0.905-1.15-12.786-15.288-12.673-16.898 0.11314-1.6093 1.5841-2.6438 2.9418-2.299 7.5477 4.8334 8.409 10.517 13.125 13.679z"/>
  <path id="path3864" style="opacity:.61538;fill:url(#radialGradient3838)" d="m47.319 32.208a5.3068 5.1962 0 1 1 -0.08618 -0.93266" transform="matrix(1.4476 .57437 -1.0483 1.6883 10.079 -14.942)"/>
  <path id="path4136" style="fill:#050505" d="m50.717 51.238c1.8266 0.46518 9.2603 6.9199 6.8499 7.6754-2.9683 0.93035-10.96-1.1629-13.7-1.8607-2.74-0.69776 1.1416-8.6057 3.1966-7.908 2.055 0.69776 3.6533 2.0933 3.6533 2.0933z"/>
  <path id="path4157" style="opacity:.33484;fill:url(#radialGradient4173)" d="m69.43 61.506a7.1862 7.0757 0 1 1 -0.117 -1.27" transform="matrix(1.7158 0 0 1.5285 -50.826 -30.332)"/>
  <path id="path3830" style="opacity:.79186;fill:url(#radialGradient3838)" d="m47.319 32.208a5.3068 5.1962 0 1 1 -0.08618 -0.93266" transform="matrix(1.2047 0 0 1.5219 -9.9421 -14.06)"/>
  <path id="path3840" style="opacity:.79186;fill:url(#radialGradient3838)" d="m47.319 32.208a5.3068 5.1962 0 1 1 -0.08618 -0.93266" transform="matrix(1.2047 0 0 1.7904 -9.0287 -27.594)"/>
  <path id="path3844" style="opacity:.61538;fill:url(#radialGradient3838)" d="m47.319 32.208a5.3068 5.1962 0 1 1 -0.08618 -0.93266" transform="matrix(1.1036 .51233 -.79916 1.5059 23.175 -44.507)"/>
  <path id="path3848" style="opacity:.79186;fill:url(#radialGradient3838)" d="m47.319 32.208a5.3068 5.1962 0 1 1 -0.08618 -0.93266" transform="matrix(.99360 .35211 -.68709 2.022 18.775 -39.028)"/>
  <path id="path3852" style="opacity:.61538;fill:url(#radialGradient3838)" d="m47.319 32.208a5.3068 5.1962 0 1 1 -0.08618 -0.93266" transform="matrix(1.4652 .58156 -1.061 1.7094 6.897 -29.066)"/>
  <path id="path3856" style="opacity:.61538;fill:url(#radialGradient3838)" d="m47.319 32.208a5.3068 5.1962 0 1 1 -0.08618 -0.93266" transform="matrix(1.4476 .57437 -1.0483 1.6883 11.677 -27.967)"/>
  <path id="path3882" style="opacity:.95475;fill:url(#radialGradient3892)" d="m47.319 32.208a5.3068 5.1962 0 1 1 -0.08618 -0.93266" transform="matrix(1.4248 .98102 -.90543 .59145 19.908 -5.1228)"/>
  <path id="path3878" style="opacity:.75113;fill:url(#radialGradient3838)" d="m47.319 32.208a5.3068 5.1962 0 1 1 -0.08618 -0.93266" transform="matrix(.82914 .89735 -.91139 -.21698 46.494 23.615)"/>
  <path id="path3894" style="stroke:#000;stroke-linecap:round;stroke-width:1.0469px;fill:none" d="m55.855 32.631 19.582 0.11629"/>
 </g>
</svg>
