<?xml version="1.0" encoding="UTF-8" standalone="no"?>
<!-- Created with Inkscape (http://www.inkscape.org/) -->
<svg id="svg2408" xmlns:rdf="http://www.w3.org/1999/02/22-rdf-syntax-ns#" xmlns="http://www.w3.org/2000/svg" height="96" width="96" version="1.0" xmlns:cc="http://creativecommons.org/ns#" xmlns:xlink="http://www.w3.org/1999/xlink" xmlns:dc="http://purl.org/dc/elements/1.1/">
 <defs id="defs2410">
  <linearGradient id="ButtonShadow" y2="7.0165" gradientUnits="userSpaceOnUse" x2="45.448" gradientTransform="matrix(1.0059 0 0 .99417 100 0)" y1="92.54" x1="45.448">
   <stop id="stop3750" offset="0"/>
   <stop id="stop3752" style="stop-opacity:.58824" offset="1"/>
  </linearGradient>
  <linearGradient id="linearGradient3737">
   <stop id="stop3739" style="stop-color:#fff" offset="0"/>
   <stop id="stop3741" style="stop-color:#fff;stop-opacity:0" offset="1"/>
  </linearGradient>
  <filter id="filter3174" color-interpolation-filters="sRGB">
   <feGaussianBlur id="feGaussianBlur3176" stdDeviation="1.71"/>
  </filter>
  <linearGradient id="linearGradient2867-449-88-871-390-598-476-591-434-148">
   <stop id="stop4631" style="stop-color:#407abb" offset="0"/>
   <stop id="stop4633" style="stop-color:#0e417a" offset="1"/>
  </linearGradient>
  <linearGradient id="linearGradient3721" y2="90.239" xlink:href="#ButtonShadow" gradientUnits="userSpaceOnUse" x2="32.251" gradientTransform="translate(0,-97)" y1="6.1317" x1="32.251"/>
  <linearGradient id="linearGradient3725" y2="90.239" xlink:href="#ButtonShadow" gradientUnits="userSpaceOnUse" x2="32.251" gradientTransform="matrix(1.0238 0 0 1.0119 -1.1429 -98.071)" y1="6.1317" x1="32.251"/>
  <filter id="filter4019" color-interpolation-filters="sRGB">
   <feGaussianBlur id="feGaussianBlur4021" stdDeviation="16.087627"/>
  </filter>
  <linearGradient id="linearGradient3630">
   <stop id="stop3638" style="stop-color:#469ff9" offset="0"/>
   <stop id="stop3642" style="stop-color:#c2cfdc;stop-opacity:.49804" offset=".67285"/>
   <stop id="stop3634" style="stop-color:#47a0fa;stop-opacity:0" offset="1"/>
  </linearGradient>
  <linearGradient id="linearGradient2427">
   <stop id="stop2429" style="stop-color:#a6c0ce" offset="0"/>
   <stop id="stop2433" style="stop-color:#fff;stop-opacity:0" offset="1"/>
  </linearGradient>
  <linearGradient id="linearGradient3821">
   <stop id="stop3823" style="stop-opacity:0" offset="0"/>
   <stop id="stop3825" style="stop-opacity:0" offset=".19851"/>
   <stop id="stop3827" offset="1"/>
  </linearGradient>
  <linearGradient id="linearGradient3854">
   <stop id="stop3856" style="stop-color:#e4e6e8" offset="0"/>
   <stop id="stop3858" style="stop-color:#4f7b8c;stop-opacity:0" offset="1"/>
  </linearGradient>
  <radialGradient id="radialGradient3931" xlink:href="#linearGradient3630" gradientUnits="userSpaceOnUse" cy="603.79" cx="377.24" gradientTransform="matrix(4.8418e-8 -1.7997 .93734 -6.2464e-8 -188.72 1320.5)" r="329.18"/>
  <radialGradient id="radialGradient3933" xlink:href="#linearGradient2427" gradientUnits="userSpaceOnUse" cy="513.24" cx="1760.7" gradientTransform="matrix(.85177 1.0562e-7 0 .96139 -1122.5 348.04)" r="336.14"/>
  <radialGradient id="radialGradient3935" xlink:href="#linearGradient3821" gradientUnits="userSpaceOnUse" cy="525.67" cx="377.24" gradientTransform="matrix(2.0137 .0000053317 -2.1109e-8 2.2176 -382.41 -635.95)" r="335.63"/>
  <linearGradient id="linearGradient3937" y2="331.37" xlink:href="#linearGradient3854" gradientUnits="userSpaceOnUse" x2="377.24" y1="139.98" x1="377.24"/>
  <clipPath id="clipPath4055" clipPathUnits="userSpaceOnUse">
   <path id="path4057" style="fill:url(#linearGradient4059)" d="m164.83 402.03c-17.132 0-30.924 13.792-30.924 30.924v371.09c0 17.132 13.792 30.924 30.924 30.924h371.09c17.132 0 30.924-13.792 30.924-30.924v-371.09c0-17.132-13.792-30.924-30.924-30.924h-371.09zm185.55 28.831c103.6 0 187.64 84.037 187.64 187.64s-84.037 187.48-187.64 187.48-187.64-83.876-187.64-187.48 84.037-187.64 187.64-187.64z"/>
  </clipPath>
  <linearGradient id="linearGradient4059" y2="5.9877" xlink:href="#linearGradient2867-449-88-871-390-598-476-591-434-148" gradientUnits="userSpaceOnUse" x2="48" gradientTransform="matrix(5.1541 0 0 -5.1541 102.97 865.86)" y1="90" x1="48"/>
  <radialGradient id="radialGradient3152" xlink:href="#linearGradient3737" gradientUnits="userSpaceOnUse" cy="90.172" cx="48" gradientTransform="matrix(1.1573 0 0 .99591 -7.551 .19713)" r="42"/>
  <linearGradient id="linearGradient3155" y2="63.893" xlink:href="#linearGradient3737" gradientUnits="userSpaceOnUse" x2="36.357" y1="6" x1="36.357"/>
  <linearGradient id="linearGradient3173" y2="5.9877" xlink:href="#linearGradient2867-449-88-871-390-598-476-591-434-148" gradientUnits="userSpaceOnUse" x2="48" gradientTransform="translate(0,-96)" y1="90" x1="48"/>
 </defs>
 <metadata id="metadata2413">
  <rdf:RDF>
   <cc:Work rdf:about="">
    <dc:format>image/svg+xml</dc:format>
    <dc:type rdf:resource="http://purl.org/dc/dcmitype/StillImage"/>
    <dc:title/>
   </cc:Work>
  </rdf:RDF>
 </metadata>
 <g id="layer2" style="display:none">
  <rect id="rect3745" style="opacity:.9;filter:url(#filter3174);fill:url(#ButtonShadow)" rx="6" ry="6" height="85" width="86" y="7" x="105"/>
 </g>
 <g id="layer3">
  <path id="path3786" style="opacity:0.08;fill:url(#linearGradient3725)" d="m12-95.031c-5.5111 0-10.031 4.5202-10.031 10.031v71c0 5.5111 4.5202 10.031 10.031 10.031h72c5.5111 0 10.031-4.5202 10.031-10.031v-71c0-5.5111-4.5202-10.031-10.031-10.031h-72z" transform="scale(1,-1)"/>
  <path id="path3778" style="opacity:.1;fill:url(#linearGradient3725)" d="m12-94.031c-4.9716 0-9.0312 4.0596-9.0312 9.0312v71c0 4.9716 4.0596 9.0312 9.0312 9.0312h72c4.9716 0 9.0312-4.0596 9.0312-9.0312v-71c0-4.9716-4.0596-9.0312-9.0312-9.0312h-72z" transform="scale(1,-1)"/>
  <path id="path3770" style="opacity:.2;fill:url(#linearGradient3725)" d="m12-93c-4.4091 0-8 3.5909-8 8v71c0 4.4091 3.5909 8 8 8h72c4.4091 0 8-3.5909 8-8v-71c0-4.4091-3.5909-8-8-8h-72z" transform="scale(1,-1)"/>
  <rect id="rect3723" style="opacity:.3;fill:url(#linearGradient3725)" transform="scale(1,-1)" rx="7" ry="7" height="85" width="86" y="-92" x="5"/>
  <rect id="rect3716" style="opacity:.45;fill:url(#linearGradient3721)" transform="scale(1,-1)" rx="6" ry="6" height="84" width="84" y="-91" x="6"/>
 </g>
 <g id="g3175">
  <rect id="rect2419" style="fill:url(#linearGradient3173)" transform="scale(1,-1)" rx="6" ry="6" height="84" width="84" y="-90" x="6"/>
  <g id="g4008" style="opacity:.5;enable-background:new" clip-path="url(#clipPath4055)" transform="matrix(.19402 0 0 .19402 -19.981 -72.002)">
   <g id="g4010">
    <path id="path4012" style="opacity:.58482;filter:url(#filter4019);enable-background:new;fill:#040608" d="m391.16 63.906c-7.46 4.485-13.57 14.654-24.88 24.094-101.07 105.21-185.03 228.8-236.16 365.62a10.178 10.178 0 0 1 -0.0312 0.0312c-38.536 101.63-62.412 208.64-75.684 316.79-0.0052 0.0423-0.02606 0.0827-0.03125 0.125-1.7551 25.316-9.5867 47.705-4.9688 66.969 0.51613 0.24378 1.3416 0.3728 3.2812 0.5 3.32 0.21772 8.3473-0.43894 14.406 0.1875v-0.0312c0.09344 0.008 0.1878 0.0236 0.28125 0.0312 45.215 3.7069 91.643 10.174 134.97 28.312a10.178 10.178 0 0 1 0.0312 0c71.52 30.3 129.7 82.6 181.63 136.97 3.4159 3.4948 11.796 3.5631 14.438-0.125a10.178 10.178 0 0 1 1.2812 -1.4688c44.702-42.28 89.123-88.733 146.62-118.53 0.0411-0.0221 0.0839-0.0404 0.125-0.0625 38.338-20.629 80.361-34.508 123.62-40.219v0.0312c13.056-3.3687 25.582-2.5172 36.562-2.5938 11.059-0.0771 20.095-1.0696 27.812-5.75 0.9909-0.93239 1.3846-1.9041 1.4375-4.8125 0.0586-3.2243-0.80781-7.8134-1.6562-12.5a10.178 10.178 0 0 1 -0.125 -0.6875c-15.87-142.61-43.81-285.27-103.46-415.36a10.178 10.178 0 0 1 0 -0.0312c-57.37-126.27-139.53-241.56-239.5-337.47z"/>
   </g>
   <g id="g4014">
    <g id="g4016">
     <path id="path4018" style="fill:#0278dc" d="m378.19 50.781c-2.9624-0.09066-5.8242 1.0791-7.875 3.2188-29.59 30.877-59.664 65.523-86.844 98.5-0.0316 0.0414-0.0628 0.0831-0.0937 0.125-66.98 83.53-117.89 169.36-154.79 261.26-34.364 85.6-54.458 159.65-72.746 267.53-4.005 23.62-8.052 52.24-10.844 75.28-1.396 11.517-2.4798 21.621-3.0938 29.094-0.30697 3.7364-0.48582 6.8016-0.53125 9.2812-0.02271 1.2398-0.0263 2.2736 0.09375 3.5625 0.06003 0.64448 0.11633 1.3322 0.4375 2.5s0.05906 3.5384 4.75 6.4375c2.5313 1.5645 2.872 1.2554 3.5 1.4062 0.62796 0.1508 1.1144 0.26043 1.625 0.34375 1.0212 0.16665 2.1056 0.27412 3.3438 0.40625 2.4763 0.26426 5.5426 0.51019 8.7812 0.6875 25.68 1.4059 63.549 7.9313 88.656 15.281 16.95 4.962 28.11 9.0671 44.656 16.406 3.8229 1.6956 7.3285 3.2462 9.9375 4.375 1.3045 0.5644 2.3754 1.0037 3.1875 1.3438 0.38203 0.15999 0.72066 0.28279 1.0312 0.40625 0.0195 0.008 0.043 0.0236 0.0625 0.0312 0.005 0.002 0.0258-0.003 0.0312 0 0.011 0.004 0.0203 0.0269 0.0312 0.0312 0.11631 0.0604 0.23661 0.11198 0.4375 0.21875-0.0119-0.0275-0.0543-0.0784-0.0937-0.0937 0.0588 0.0218 0.0827 0.0363 0.15625 0.0625 0.13196 0.047 0.27515 0.12393 0.59375 0.21875 0.12568 0.0374 0.22161 0.10822 0.375 0.1875-0.0737-0.0173-0.35088-0.0129-0.40625-0.0312 0.73325 0.39462 1.6037 0.88375 2.7812 1.5312 2.8009 1.5402 6.649 3.6738 10.844 6.0312 40.522 22.773 70.826 46.258 119.22 92.625 6.3757 6.1088 12.317 11.65 16.812 15.75 2.2479 2.0498 4.1147 3.7366 5.5938 5 0.73953 0.63168 1.3646 1.1464 2.0312 1.6562 0.3333 0.25492 0.65593 0.51682 1.2188 0.875 0.28141 0.17909 0.62679 0.38732 1.25 0.6875s1.2433 0.89056 4.125 1.0312c3.4523 0.16841 4.1687-0.59022 4.875-0.90625 0.70628-0.31603 1.069-0.53075 1.375-0.71875 0.612-0.376 0.95595-0.63916 1.3125-0.90625 0.7131-0.53419 1.3566-1.0775 2.1562-1.75 1.5993-1.345 3.6419-3.1684 6.0938-5.375 4.9037-4.4132 11.391-10.409 18.375-17.031 40.031-37.959 59.409-54.006 87.281-72.5 60.869-40.389 115.11-58.316 198.38-65.344l6.75-0.5625c5.4265-0.45316 9.5985-4.9922 9.5938-10.438v-3.9688c-0.01-8.27-1.98-25.36-4.64-46.53s-6.05-45.26-9.12-63.56c-18.27-108.85-39.04-185.51-73.85-272.19-31.36-78.09-76.25-156.97-129.91-228.37-0.12049-0.1598-0.24554-0.31612-0.375-0.46875-36.11-42.75-71.04-87.625-109.15-129.22-1.9068-2.0899-4.5786-3.3186-7.4062-3.4062z"/>
     <path id="path4020" style="opacity:.5;fill-rule:evenodd;fill:url(#radialGradient3931)" d="m377.24 641.59 78.3-509.4-75.27-84.36-81.77 90.85 78.74 502.91-179.97-351.06-60.06 111.51 240.03 239.55-277.36-144.4-24.163 95.79 301.52 48.61-322.73 51.27-9.831 117.61 332.56-168.88-192.5 191.99l76.131 39.681 116.37-231.67-46.708 289.29 46.708 42.714 47.617-42.059-47.617-289.95 119.07 232.31 71.924-40.643-190.99-191.66 325.79 167.35-5.52-116.44-320.27-50.91 300.62-43.39-25.11-98.34-275.51 141.73 242.02-237.71-59.08-122.79-182.94 360.5z"/>
    </g>
   </g>
   <g id="g4022" style="opacity:.70089">
    <path id="path4024" d="m42.002 807.89c19.38-128.58 73.778-383.73 158.81-534.19 50.45-89.28 132.06-132.21 176.43-132.21 43.069 0 138.87 59.218 181.77 142.85 77.657 151.38 112.11 344.95 155.28 526.34-206.34 10.86-209.67 81.04-337.05 162.34-72.28-50.1-162.56-150.81-335.24-165.13z" style="fill-rule:evenodd;fill:url(#radialGradient3933)"/>
   </g>
   <g id="g4026">
    <path id="path4028" style="enable-background:new;fill:url(#radialGradient3935)" d="m377.24 49.968c-16.167 5.6602-23.426 22.936-35.991 33.427-82.27 89.765-153.88 190.5-202.28 302.64-46.841 105.95-74.101 219.46-90.143 333.88-3.4497 25.468-7.1876 51.007-8.6207 76.656 3.0774 17.249 23.875 12.058 36.213 14.143 67.916 6.2362 134.46 29.783 189.44 70.47 36.13 25.95 68.6 56.689 100.16 87.839 14.596 10.445 26.417-6.2663 35.811-15.34 44.013-42.125 90.465-83.316 146.38-108.95 47.765-23.247 100.74-32.793 153.33-36.608 16.014-4.0116 8.98-24.226 8.2216-35.906-16.25-150.89-51.17-301.67-120.7-437.43-33.57-65.89-73.88-128.53-122.14-184.66-27.52-33.07-54.37-66.77-83.84-98.167l-2.77-1.4428-3.0722-0.56186z"/>
   </g>
   <g id="g4030">
    <path id="path4032" style="fill-rule:evenodd;enable-background:new;fill:url(#linearGradient3937)" d="m44.998 817.2c32.819-241.8 96.972-383.27 163.15-504.42 58.982-107.98 125.04-172.55 169.41-172.55 43.069 0 120.4 82.542 178.89 178.87 94.529 155.7 121.46 253.82 156.5 492.63l-667.95 5.4767z"/>
   </g>
   <g id="g4034">
    <path id="path4036" style="fill:#040608" d="m354.18 967.21c-35.38-34.7-57.46-54.27-81.71-72.45-45.84-34.37-95.5-56.93-148.29-67.37-20.5-4.05-51.779-7.91-73.089-9.02-10.009-0.52-18.396-1.15-18.637-1.39-1.248-1.25 11.266-96.25 17.762-134.85 30.448-180.91 83.574-321.47 171.31-453.26 39.75-59.7 95.2-127.1 145.6-177l10.103-10 20.279 20.5c104.38 105.52 184.79 227.08 237.47 359.01 36.379 91.111 61.665 191.95 78.609 313.49 5.3269 38.21 9.7533 75.956 9.4041 80.193l-0.31375 3.8068-7 0.23327c-54.981 1.8322-91.014 7.6216-129.51 20.809-57.058 19.544-103.78 50.51-165.99 110-21.515 20.579-42.061 39.466-42.863 39.403-0.35009-0.0274-10.762-9.9786-23.137-22.114zm49.303-25.729c40.191-38.11 60.323-54.83 88.67-73.64 62.099-41.205 118.87-59.933 203.28-67.057l6.75-0.56972v-3.9432c0-12.265-7.5177-72.267-13.581-108.4-18.186-108.36-38.693-183.95-73.246-270-30.979-77.144-75.447-155.32-128.56-226-36.296-42.965-71.163-87.716-108.89-128.9-29.337 30.613-59.276 65.069-86.331 97.896-66.408 82.819-116.72 167.75-153.21 258.65-34.118 84.981-53.962 157.94-72.172 265.35-7.9307 46.78-16.104 114.21-14.002 115.51 0.61957 0.38291 6.1587 0.97169 12.309 1.3084 26.837 1.4692 64.85 8.0181 91.035 15.683 17.264 5.054 29.126 9.4096 45.961 16.877 7.597 3.3696 13.968 6.1266 14.159 6.1266 0.19029 0 7.248 3.8789 15.684 8.6199 41.272 23.195 72.643 47.552 121.34 94.215 12.65 12.121 23.587 22.066 24.303 22.101 0.71687 0.035 12.642-10.688 26.5-23.829zm-92.336-47.31c2.4245-6.9039 33.818-52.282 50.175-71.947 4.8717-5.8568 8.8577-11.335 8.8577-12.174 0-1.95-32.911-30.801-50.162-45.123-7.3272-6.0829-24.268-16.73-23.787-16.73 2.6489 0 52.629 33.352 69.449 47.029 5.5 4.472 10.675 8.1278 11.5 8.124 0.825-0.004 7.35-4.7528 14.5-10.553 13.023-10.565 61.51-47.444 63.687-47.424 0.63715 0.006-0.41655 1.2434-2.3416 2.7494-18.738 14.66-68.845 59.427-68.845 61.953 0 0.85305 3.0764 5.2062 6.8364 9.6736 16.077 19.101 44.957 50.892 52.373 64.463 4.0856 7.4759 2.5279 5.9391-8.1085-8-15.299-20.05-54.937-58.84-58.235-58.84-3.0828 0-40.996 46.003-57.166 67.01-8.3779 10.884-9.5977 12.251-8.7328 9.7878zm212.09-74.13c-20.126-26.596-44.066-55.38-70.421-84.666-19.241-21.382-73.192-75-75.466-75-2.3907 0-39.579 36.182-62.805 61.106-29.935 32.124-63.113 69.439-85.073 98.297-16.206 21.297-16.855 20.538-2.3165-2.7121 31.785-50.832 80.085-113.48 121.4-161.57 5.8477-6.8063 10.641-12.881 10.652-13.5 0.0243-1.4008-21.816-22.708-39.352-38.392-54.08-48.37-132.31-102.12-186.62-127.82-7.2725-3.4422-12.436-6.9917-11.821-7.1969 3.1737-1.0579 76.592 34.309 102.28 48.813 48.782 27.547 106.83 67.664 144.06 99.561 4.7635 4.0811 9.0113 7.4201 9.4396 7.4201 0.42826 0 4.6761-3.339 9.4396-7.4201 37.329-31.981 95.15-71.942 144.05-99.553 26.209-14.8 89.972-44.487 95.437-44.451 0.95971 0.006-23.919 12.437-33.078 17.314-51.918 27.642-105.83 66.192-158.51 113.34-17.554 15.709-39.377 37.001-39.352 38.394 0.0107 0.61601 5.8437 7.9226 12.962 16.237 23.939 27.96 49.273 60.376 71.232 91.143 24.462 34.274 59.732 85.77 58.319 87.179-0.17806 0.17748-9.7959-10.372-14.443-16.513zm-381.15-17.708c-0.11053-5.6432 19.218-77.401 29.739-109.27 4.1422-12.545 7.271-23.488 6.9529-24.317-1.2565-3.2744-36.821-18.52-62.59-26.831-18.826-6.0715-40.228-10.493-39.691-11.03 0.8236-0.8236 37.137 5.5454 53.191 9.4588 17.331 4.2248 33.274 8.986 46.181 13.792 7.5636 2.8163 8.2914 2.9213 9.6443 1.3912 0.80478-0.91023 6.4639-11.67 12.576-23.91 12.785-25.604 38.167-71.339 43.202-78.59 4.1788-6.0181-1.3236 4.8246-11.233 27.84-7.4183 17.229-32.111 74.635-33.414 79.825-0.49915 1.9888 0.42529 2.9694 6.7328 7.1415 19.218 12.712 67.172 50.055 77.268 60.765 4.8312 5.1247-3.6934-1.0182-16.874-10.492-22.047-15.846-70.456-44.914-73.067-42.747-3.2628 2.7079-24.788 55.814-35.564 87.74-6.852 20.301-12.994 42.315-13.054 39.23zm470.4 2.8875c-0.33379-0.825-9.3814-30.57-13.176-41.845-10.767-31.992-32.342-85.279-35.636-88.013-2.6225-2.1765-54.501 30.104-76.075 45.718-13.841 10.017-14.394 10.067-4.4904 0.4038 12.942-12.629 52.198-43.5 73.072-57.205l2.4308-1.5959-3.8315-10.404c-8.4437-22.928-21.809-55.005-27.85-68.617-3.5137-7.9165-17.42-32.871-17.42-33.247 0-1.2096 18.17 25.864 24.259 36.647 3.2567 5.7669 12.446 24.615 20.421 40.298 16.978 33.388 13.26 30.776 33.65 23.641 19.759-6.9138 63.695-17.917 79.69-19.962 8.9216-1.1408-9.2252 3.6047-28.675 9.8096-28.651 9.1402-61.907 24.388-63.265 27.926-0.32367 0.84344 2.5767 11.111 6.4452 22.817 13.504 40.861 32.818 110.47 31.485 114-0.26894 0.712-0.65251 0.57541-1.0344-0.36834zm-353.73-287.24c17.609-31.735 60.907-94.837 104.31-143.75 2.2708-2.5594 4.1288-5.324 4.1288-6.1435 0-2.4357-25.197-25.972-42.968-40.135-18.913-15.074-52.109-34.15-69.462-45.755-6.7375-4.506-32.095-19.737-32.095-19.988 0-1.0134 35.608 18.169 49.047 25.869 23.438 13.429 69.917 41.502 92.646 60.535 6.4176 5.3739 12.192 9.7708 12.832 9.7708 0.63981 0 6.6182-4.5709 13.285-10.157 25.094-21.027 66.504-53.034 92.89-67.393 9.2036-5.0085 42.68-18.502 42.68-17.746 0 0.25835-28.642 14.913-35.93 19.791-15.75 10.543-51.127 37.645-66.665 50.362-13.921 11.394-36.26 32.871-36.26 34.861 0 0.81211 1.858 3.5706 4.1288 6.13 36.468 41.102 77.114 95.383 92.378 125.04 7.7615 15.079 16.28 26.796 15.406 26.796-0.29755 0-3.7999-4.6125-7.783-10.25-8.707-12.324-39.681-59.651-50.042-71.902-20.159-23.838-61.454-66.528-64.352-66.528-1.5403 0-36.741 35.782-51.156 52-15.626 17.581-51.094 68.903-61.807 84.1-4.3615 6.1875-8.1606 11.25-8.4424 11.25-0.28187 0 1.1729-3.0375 3.2328-6.75z"/>
   </g>
  </g>
  <path id="rect3728" style="opacity:.4;fill:url(#linearGradient3155)" d="m12 6c-3.324 0-6 2.676-6 6v2 68 2c0 0.33472 0.04135 0.6507 0.09375 0.96875 0.0487 0.2956 0.09704 0.59692 0.1875 0.875 0.00988 0.03038 0.020892 0.0636 0.03125 0.09375 0.098865 0.28777 0.23488 0.54745 0.375 0.8125 0.14459 0.27351 0.31562 0.53562 0.5 0.78125 0.18438 0.24564 0.37378 0.47347 0.59375 0.6875 0.43995 0.42806 0.94291 0.81453 1.5 1.0938 0.27854 0.13961 0.57347 0.24695 0.875 0.34375-0.2562-0.10022-0.48671-0.23627-0.71875-0.375-0.00741-0.0044-0.023866 0.0045-0.03125 0-0.031933-0.0193-0.062293-0.04251-0.09375-0.0625-0.1204-0.0767-0.23102-0.16351-0.34375-0.25-0.10617-0.0808-0.21328-0.16111-0.3125-0.25-0.1778-0.162-0.3473-0.346-0.4999-0.531-0.1075-0.131-0.2183-0.266-0.3124-0.407-0.0251-0.038-0.0385-0.086-0.0626-0.125-0.0647-0.103-0.1302-0.204-0.1874-0.312-0.1011-0.195-0.2057-0.416-0.2813-0.625-0.008-0.022-0.0236-0.041-0.0313-0.063-0.0318-0.092-0.0358-0.187-0.0624-0.281-0.0304-0.107-0.0704-0.203-0.0938-0.313-0.0729-0.341-0.125-0.698-0.125-1.062v-2-68-2c0-2.782 2.2182-5 5-5h2 68 2c2.7818 0 5 2.2182 5 5v2 68 2c0 0.3643-0.05212 0.72099-0.125 1.0625-0.04415 0.20689-0.08838 0.39766-0.15625 0.59375-0.0077 0.02195-0.0233 0.04069-0.03125 0.0625-0.06274 0.17374-0.13838 0.36745-0.21875 0.53125-0.04158 0.0828-0.07904 0.16995-0.125 0.25-0.0546 0.09721-0.12677 0.18835-0.1875 0.28125-0.09411 0.14096-0.20492 0.276-0.3125 0.40625-0.14317 0.17445-0.30314 0.347-0.46875 0.5-0.01117 0.0102-0.01998 0.02115-0.03125 0.03125-0.13839 0.12556-0.28509 0.23444-0.4375 0.34375-0.10257 0.07315-0.20432 0.15336-0.3125 0.21875-0.0074 0.0045-0.02384-0.0044-0.03125 0-0.23204 0.13873-0.46255 0.27478-0.71875 0.375 0.30153-0.0968 0.59646-0.20414 0.875-0.34375 0.55709-0.27922 1.0601-0.66569 1.5-1.0938 0.21997-0.21403 0.40937-0.44186 0.59375-0.6875s0.35541-0.50774 0.5-0.78125c0.14012-0.26505 0.27614-0.52473 0.375-0.8125 0.01041-0.03078 0.02133-0.06274 0.03125-0.09375 0.09046-0.27808 0.1388-0.5794 0.1875-0.875 0.053-0.318 0.094-0.634 0.094-0.969v-2-68-2c0-3.324-2.676-6-6-6h-72z"/>
  <path id="path3615" style="opacity:.2;fill:url(#radialGradient3152)" d="m12 90c-3.324 0-6-2.676-6-6v-2-68-2c0-0.33472 0.04135-0.6507 0.09375-0.96875 0.0487-0.2956 0.09704-0.59692 0.1875-0.875 0.0099-0.03 0.0209-0.063 0.0313-0.094 0.0989-0.2873 0.2349-0.547 0.375-0.812 0.1446-0.2735 0.3156-0.5356 0.5-0.7812 0.1844-0.2457 0.3738-0.4735 0.5937-0.6876 0.44-0.428 0.943-0.8145 1.5-1.0937 0.2786-0.1396 0.5735-0.2469 0.8748-0.3437-0.256 0.1002-0.4865 0.2362-0.7185 0.375-0.00741 0.0044-0.023866-0.0045-0.03125 0-0.031933 0.0193-0.062293 0.04251-0.09375 0.0625-0.1204 0.0767-0.23102 0.16351-0.34375 0.25-0.10617 0.0808-0.21328 0.16111-0.3125 0.25-0.1779 0.1614-0.3474 0.3453-0.5 0.5312-0.1075 0.1303-0.2183 0.2653-0.3124 0.4063-0.0251 0.0383-0.0385 0.0858-0.0626 0.125-0.0647 0.103-0.1302 0.2045-0.1874 0.3124-0.1011 0.1948-0.2057 0.4158-0.2813 0.625-0.008 0.0219-0.0236 0.0406-0.0313 0.0626-0.0318 0.0919-0.0358 0.1868-0.0624 0.2812-0.0304 0.1066-0.0704 0.203-0.0938 0.3125-0.0729 0.3415-0.125 0.6985-0.125 1.0625v2 68 2c0 2.7818 2.2182 5 5 5h2 68 2c2.7818 0 5-2.2182 5-5v-2-68-2c0-0.364-0.052-0.721-0.125-1.0625-0.044-0.2069-0.088-0.3977-0.156-0.5937-0.008-0.022-0.024-0.0407-0.031-0.0626-0.063-0.1737-0.139-0.3674-0.219-0.5312-0.042-0.0828-0.079-0.17-0.125-0.25-0.055-0.0972-0.127-0.1884-0.188-0.2812-0.094-0.141-0.205-0.276-0.312-0.4063-0.143-0.1745-0.303-0.347-0.469-0.5-0.011-0.0102-0.02-0.0211-0.031-0.0313-0.139-0.1255-0.285-0.2344-0.438-0.3437-0.102-0.0731-0.204-0.1534-0.312-0.2187-0.0074-0.0045-0.02384 0.0044-0.03125 0-0.23204-0.13873-0.46255-0.27478-0.71875-0.375 0.30153 0.0968 0.59646 0.20414 0.875 0.34375 0.55709 0.27922 1.0601 0.66569 1.5 1.0938 0.21997 0.21403 0.40937 0.44186 0.59375 0.6875s0.35541 0.50774 0.5 0.78125c0.14012 0.26505 0.27614 0.52473 0.375 0.8125 0.01041 0.03078 0.02133 0.06274 0.03125 0.09375 0.09046 0.27808 0.1388 0.5794 0.1875 0.875 0.053 0.318 0.094 0.634 0.094 0.969v2 68 2c0 3.324-2.676 6-6 6h-72z"/>
  <path id="path3939" style="fill:#fff" d="m100.65 59.116a44.928 44.928 0 1 1 -89.856 0 44.928 44.928 0 1 1 89.856 0z" transform="matrix(.81011 0 0 .81011 2.8621 .10966)"/>
  <g id="g3901" style="enable-background:new" transform="matrix(.067525 0 0 .067525 21.534 11.873)">
   <g id="g3907">
    <g id="g3909">
     <path id="path3911" style="fill:#0278dc" d="m378.19 50.781c-2.9624-0.09066-5.8242 1.0791-7.875 3.2188-29.59 30.877-59.664 65.523-86.844 98.5-0.0316 0.0414-0.0628 0.0831-0.0937 0.125-66.98 83.53-117.89 169.36-154.79 261.26-34.364 85.6-54.458 159.65-72.746 267.53-4.005 23.62-8.052 52.24-10.844 75.28-1.396 11.517-2.4798 21.621-3.0938 29.094-0.30697 3.7364-0.48582 6.8016-0.53125 9.2812-0.02271 1.2398-0.0263 2.2736 0.09375 3.5625 0.06003 0.64448 0.11633 1.3322 0.4375 2.5s0.05906 3.5384 4.75 6.4375c2.5313 1.5645 2.872 1.2554 3.5 1.4062 0.62796 0.1508 1.1144 0.26043 1.625 0.34375 1.0212 0.16665 2.1056 0.27412 3.3438 0.40625 2.4763 0.26426 5.5426 0.51019 8.7812 0.6875 25.68 1.4059 63.549 7.9313 88.656 15.281 16.95 4.962 28.11 9.0671 44.656 16.406 3.8229 1.6956 7.3285 3.2462 9.9375 4.375 1.3045 0.5644 2.3754 1.0037 3.1875 1.3438 0.38203 0.15999 0.72066 0.28279 1.0312 0.40625 0.0195 0.008 0.043 0.0236 0.0625 0.0312 0.005 0.002 0.0258-0.003 0.0312 0 0.011 0.004 0.0203 0.0269 0.0312 0.0312 0.11631 0.0604 0.23661 0.11198 0.4375 0.21875-0.0119-0.0275-0.0543-0.0784-0.0937-0.0937 0.0588 0.0218 0.0827 0.0363 0.15625 0.0625 0.13196 0.047 0.27515 0.12393 0.59375 0.21875 0.12568 0.0374 0.22161 0.10822 0.375 0.1875-0.0737-0.0173-0.35088-0.0129-0.40625-0.0312 0.73325 0.39462 1.6037 0.88375 2.7812 1.5312 2.8009 1.5402 6.649 3.6738 10.844 6.0312 40.522 22.773 70.826 46.258 119.22 92.625 6.3757 6.1088 12.317 11.65 16.812 15.75 2.2479 2.0498 4.1147 3.7366 5.5938 5 0.73953 0.63168 1.3646 1.1464 2.0312 1.6562 0.3333 0.25492 0.65593 0.51682 1.2188 0.875 0.28141 0.17909 0.62679 0.38732 1.25 0.6875s1.2433 0.89056 4.125 1.0312c3.4523 0.16841 4.1687-0.59022 4.875-0.90625 0.70628-0.31603 1.069-0.53075 1.375-0.71875 0.612-0.376 0.95595-0.63916 1.3125-0.90625 0.7131-0.53419 1.3566-1.0775 2.1562-1.75 1.5993-1.345 3.6419-3.1684 6.0938-5.375 4.9037-4.4132 11.391-10.409 18.375-17.031 40.031-37.959 59.409-54.006 87.281-72.5 60.869-40.389 115.11-58.316 198.38-65.344l6.75-0.5625c5.4265-0.45316 9.5985-4.9922 9.5938-10.438v-3.9688c-0.01-8.27-1.98-25.36-4.64-46.53s-6.05-45.26-9.12-63.56c-18.27-108.85-39.04-185.51-73.85-272.19-31.36-78.09-76.25-156.97-129.91-228.37-0.12049-0.1598-0.24554-0.31612-0.375-0.46875-36.11-42.75-71.04-87.625-109.15-129.22-1.9068-2.0899-4.5786-3.3186-7.4062-3.4062z"/>
     <path id="path3913" style="opacity:.5;fill-rule:evenodd;fill:url(#radialGradient3931)" d="m377.24 641.59 78.3-509.4-75.27-84.36-81.77 90.85 78.74 502.91-179.97-351.06-60.06 111.51 240.03 239.55-277.36-144.4-24.163 95.79 301.52 48.61-322.73 51.27-9.831 117.61 332.56-168.88-192.5 191.99l76.131 39.681 116.37-231.67-46.708 289.29 46.708 42.714 47.617-42.059-47.617-289.95 119.07 232.31 71.924-40.643-190.99-191.66 325.79 167.35-5.52-116.44-320.27-50.91 300.62-43.39-25.11-98.34-275.51 141.73 242.02-237.71-59.08-122.79-182.94 360.5z"/>
    </g>
   </g>
   <g id="g3915" style="opacity:.70089">
    <path id="path3917" d="m42.002 807.89c19.38-128.58 73.778-383.73 158.81-534.19 50.45-89.28 132.06-132.21 176.43-132.21 43.069 0 138.87 59.218 181.77 142.85 77.657 151.38 112.11 344.95 155.28 526.34-206.34 10.86-209.67 81.04-337.05 162.34-72.28-50.1-162.56-150.81-335.24-165.13z" style="fill-rule:evenodd;fill:url(#radialGradient3933)"/>
   </g>
   <g id="g3919">
    <path id="path3921" style="enable-background:new;fill:url(#radialGradient3935)" d="m377.24 49.968c-16.167 5.6602-23.426 22.936-35.991 33.427-82.27 89.765-153.88 190.5-202.28 302.64-46.841 105.95-74.101 219.46-90.143 333.88-3.4497 25.468-7.1876 51.007-8.6207 76.656 3.0774 17.249 23.875 12.058 36.213 14.143 67.916 6.2362 134.46 29.783 189.44 70.47 36.13 25.95 68.6 56.689 100.16 87.839 14.596 10.445 26.417-6.2663 35.811-15.34 44.013-42.125 90.465-83.316 146.38-108.95 47.765-23.247 100.74-32.793 153.33-36.608 16.014-4.0116 8.98-24.226 8.2216-35.906-16.25-150.89-51.17-301.67-120.7-437.43-33.57-65.89-73.88-128.53-122.14-184.66-27.52-33.07-54.37-66.77-83.84-98.167l-2.77-1.4428-3.0722-0.56186z"/>
   </g>
   <g id="g3923">
    <path id="path3925" style="fill-rule:evenodd;enable-background:new;fill:url(#linearGradient3937)" d="m44.998 817.2c32.819-241.8 96.972-383.27 163.15-504.42 58.982-107.98 125.04-172.55 169.41-172.55 43.069 0 120.4 82.542 178.89 178.87 94.529 155.7 121.46 253.82 156.5 492.63l-667.95 5.4767z"/>
   </g>
   <g id="g3927">
    <path id="path3929" style="fill:#040608" d="m354.18 967.21c-35.38-34.7-57.46-54.27-81.71-72.45-45.84-34.37-95.5-56.93-148.29-67.37-20.5-4.05-51.779-7.91-73.089-9.02-10.009-0.52-18.396-1.15-18.637-1.39-1.248-1.25 11.266-96.25 17.762-134.85 30.448-180.91 83.574-321.47 171.31-453.26 39.75-59.7 95.2-127.1 145.6-177l10.103-10 20.279 20.5c104.38 105.52 184.79 227.08 237.47 359.01 36.379 91.111 61.665 191.95 78.609 313.49 5.3269 38.21 9.7533 75.956 9.4041 80.193l-0.31375 3.8068-7 0.23327c-54.981 1.8322-91.014 7.6216-129.51 20.809-57.058 19.544-103.78 50.51-165.99 110-21.515 20.579-42.061 39.466-42.863 39.403-0.35009-0.0274-10.762-9.9786-23.137-22.114zm49.303-25.729c40.191-38.11 60.323-54.83 88.67-73.64 62.099-41.205 118.87-59.933 203.28-67.057l6.75-0.56972v-3.9432c0-12.265-7.5177-72.267-13.581-108.4-18.186-108.36-38.693-183.95-73.246-270-30.979-77.144-75.447-155.32-128.56-226-36.296-42.965-71.163-87.716-108.89-128.9-29.337 30.613-59.276 65.069-86.331 97.896-66.408 82.819-116.72 167.75-153.21 258.65-34.118 84.981-53.962 157.94-72.172 265.35-7.9307 46.78-16.104 114.21-14.002 115.51 0.61957 0.38291 6.1587 0.97169 12.309 1.3084 26.837 1.4692 64.85 8.0181 91.035 15.683 17.264 5.054 29.126 9.4096 45.961 16.877 7.597 3.3696 13.968 6.1266 14.159 6.1266 0.19029 0 7.248 3.8789 15.684 8.6199 41.272 23.195 72.643 47.552 121.34 94.215 12.65 12.121 23.587 22.066 24.303 22.101 0.71687 0.035 12.642-10.688 26.5-23.829zm-92.336-47.31c2.4245-6.9039 33.818-52.282 50.175-71.947 4.8717-5.8568 8.8577-11.335 8.8577-12.174 0-1.95-32.911-30.801-50.162-45.123-7.3272-6.0829-24.268-16.73-23.787-16.73 2.6489 0 52.629 33.352 69.449 47.029 5.5 4.472 10.675 8.1278 11.5 8.124 0.825-0.004 7.35-4.7528 14.5-10.553 13.023-10.565 61.51-47.444 63.687-47.424 0.63715 0.006-0.41655 1.2434-2.3416 2.7494-18.738 14.66-68.845 59.427-68.845 61.953 0 0.85305 3.0764 5.2062 6.8364 9.6736 16.077 19.101 44.957 50.892 52.373 64.463 4.0856 7.4759 2.5279 5.9391-8.1085-8-15.299-20.05-54.937-58.84-58.235-58.84-3.0828 0-40.996 46.003-57.166 67.01-8.3779 10.884-9.5977 12.251-8.7328 9.7878zm212.09-74.13c-20.126-26.596-44.066-55.38-70.421-84.666-19.241-21.382-73.192-75-75.466-75-2.3907 0-39.579 36.182-62.805 61.106-29.935 32.124-63.113 69.439-85.073 98.297-16.206 21.297-16.855 20.538-2.3165-2.7121 31.785-50.832 80.085-113.48 121.4-161.57 5.8477-6.8063 10.641-12.881 10.652-13.5 0.0243-1.4008-21.816-22.708-39.352-38.392-54.08-48.37-132.31-102.12-186.62-127.82-7.2725-3.4422-12.436-6.9917-11.821-7.1969 3.1737-1.0579 76.592 34.309 102.28 48.813 48.782 27.547 106.83 67.664 144.06 99.561 4.7635 4.0811 9.0113 7.4201 9.4396 7.4201 0.42826 0 4.6761-3.339 9.4396-7.4201 37.329-31.981 95.15-71.942 144.05-99.553 26.209-14.8 89.972-44.487 95.437-44.451 0.95971 0.006-23.919 12.437-33.078 17.314-51.918 27.642-105.83 66.192-158.51 113.34-17.554 15.709-39.377 37.001-39.352 38.394 0.0107 0.61601 5.8437 7.9226 12.962 16.237 23.939 27.96 49.273 60.376 71.232 91.143 24.462 34.274 59.732 85.77 58.319 87.179-0.17806 0.17748-9.7959-10.372-14.443-16.513zm-381.15-17.708c-0.11053-5.6432 19.218-77.401 29.739-109.27 4.1422-12.545 7.271-23.488 6.9529-24.317-1.2565-3.2744-36.821-18.52-62.59-26.831-18.826-6.0715-40.228-10.493-39.691-11.03 0.8236-0.8236 37.137 5.5454 53.191 9.4588 17.331 4.2248 33.274 8.986 46.181 13.792 7.5636 2.8163 8.2914 2.9213 9.6443 1.3912 0.80478-0.91023 6.4639-11.67 12.576-23.91 12.785-25.604 38.167-71.339 43.202-78.59 4.1788-6.0181-1.3236 4.8246-11.233 27.84-7.4183 17.229-32.111 74.635-33.414 79.825-0.49915 1.9888 0.42529 2.9694 6.7328 7.1415 19.218 12.712 67.172 50.055 77.268 60.765 4.8312 5.1247-3.6934-1.0182-16.874-10.492-22.047-15.846-70.456-44.914-73.067-42.747-3.2628 2.7079-24.788 55.814-35.564 87.74-6.852 20.301-12.994 42.315-13.054 39.23zm470.4 2.8875c-0.33379-0.825-9.3814-30.57-13.176-41.845-10.767-31.992-32.342-85.279-35.636-88.013-2.6225-2.1765-54.501 30.104-76.075 45.718-13.841 10.017-14.394 10.067-4.4904 0.4038 12.942-12.629 52.198-43.5 73.072-57.205l2.4308-1.5959-3.8315-10.404c-8.4437-22.928-21.809-55.005-27.85-68.617-3.5137-7.9165-17.42-32.871-17.42-33.247 0-1.2096 18.17 25.864 24.259 36.647 3.2567 5.7669 12.446 24.615 20.421 40.298 16.978 33.388 13.26 30.776 33.65 23.641 19.759-6.9138 63.695-17.917 79.69-19.962 8.9216-1.1408-9.2252 3.6047-28.675 9.8096-28.651 9.1402-61.907 24.388-63.265 27.926-0.32367 0.84344 2.5767 11.111 6.4452 22.817 13.504 40.861 32.818 110.47 31.485 114-0.26894 0.712-0.65251 0.57541-1.0344-0.36834zm-353.73-287.24c17.609-31.735 60.907-94.837 104.31-143.75 2.2708-2.5594 4.1288-5.324 4.1288-6.1435 0-2.4357-25.197-25.972-42.968-40.135-18.913-15.074-52.109-34.15-69.462-45.755-6.7375-4.506-32.095-19.737-32.095-19.988 0-1.0134 35.608 18.169 49.047 25.869 23.438 13.429 69.917 41.502 92.646 60.535 6.4176 5.3739 12.192 9.7708 12.832 9.7708 0.63981 0 6.6182-4.5709 13.285-10.157 25.094-21.027 66.504-53.034 92.89-67.393 9.2036-5.0085 42.68-18.502 42.68-17.746 0 0.25835-28.642 14.913-35.93 19.791-15.75 10.543-51.127 37.645-66.665 50.362-13.921 11.394-36.26 32.871-36.26 34.861 0 0.81211 1.858 3.5706 4.1288 6.13 36.468 41.102 77.114 95.383 92.378 125.04 7.7615 15.079 16.28 26.796 15.406 26.796-0.29755 0-3.7999-4.6125-7.783-10.25-8.707-12.324-39.681-59.651-50.042-71.902-20.159-23.838-61.454-66.528-64.352-66.528-1.5403 0-36.741 35.782-51.156 52-15.626 17.581-51.094 68.903-61.807 84.1-4.3615 6.1875-8.1606 11.25-8.4424 11.25-0.28187 0 1.1729-3.0375 3.2328-6.75z"/>
   </g>
  </g>
  <path id="path3941" style="opacity:.2;stroke:#fff;stroke-width:4.9376;fill:none" d="m100.65 59.116a44.928 44.928 0 1 1 -89.856 0 44.928 44.928 0 1 1 89.856 0z" transform="matrix(.81011 0 0 .81011 2.8621 .10966)"/>
 </g>
</svg>
