<?xml version="1.0" encoding="UTF-8" standalone="no"?>
<!-- Created with Inkscape (http://www.inkscape.org/) -->
<svg id="svg2408" xmlns:rdf="http://www.w3.org/1999/02/22-rdf-syntax-ns#" xmlns="http://www.w3.org/2000/svg" height="96" width="96" version="1.0" xmlns:cc="http://creativecommons.org/ns#" xmlns:xlink="http://www.w3.org/1999/xlink" xmlns:dc="http://purl.org/dc/elements/1.1/">
 <defs id="defs2410">
  <linearGradient id="linearGradient4384">
   <stop id="stop4386" style="stop-color:#fff" offset="0"/>
   <stop id="stop4388" style="stop-color:#fff;stop-opacity:0" offset="1"/>
  </linearGradient>
  <linearGradient id="ButtonShadow" y2="7.0165" gradientUnits="userSpaceOnUse" x2="45.448" gradientTransform="scale(1.0059 .99417)" y1="92.54" x1="45.448">
   <stop id="stop3750" offset="0"/>
   <stop id="stop3752" style="stop-opacity:.58824" offset="1"/>
  </linearGradient>
  <filter id="filter3174" color-interpolation-filters="sRGB">
   <feGaussianBlur id="feGaussianBlur3176" stdDeviation="1.71"/>
  </filter>
  <filter id="filter3794" height="1.384" width="1.384" color-interpolation-filters="sRGB" y="-.192" x="-.192">
   <feGaussianBlur id="feGaussianBlur3796" stdDeviation="5.28"/>
  </filter>
  <linearGradient id="linearGradient3613" y2="138.66" gradientUnits="userSpaceOnUse" x2="48" y1="20.221" x1="48">
   <stop id="stop3739" style="stop-color:#fff" offset="0"/>
   <stop id="stop3741" style="stop-color:#fff;stop-opacity:0" offset="1"/>
  </linearGradient>
  <linearGradient id="ButtonShadow-0" y2="7.0165" gradientUnits="userSpaceOnUse" x2="45.448" gradientTransform="matrix(1.0059 0 0 .99417 100 0)" y1="92.54" x1="45.448">
   <stop id="stop3750-8" offset="0"/>
   <stop id="stop3752-5" style="stop-opacity:.58824" offset="1"/>
  </linearGradient>
  <linearGradient id="linearGradient3780" y2="90.239" xlink:href="#ButtonShadow-0" gradientUnits="userSpaceOnUse" x2="32.251" gradientTransform="matrix(1.0238 0 0 1.0119 -1.1429 -98.071)" y1="6.1317" x1="32.251"/>
  <linearGradient id="linearGradient3721" y2="90.239" xlink:href="#ButtonShadow-0" gradientUnits="userSpaceOnUse" x2="32.251" gradientTransform="translate(0,-97)" y1="6.1317" x1="32.251"/>
  <clipPath id="clipPath4355">
   <rect id="rect4357" style="fill:#fff" rx="6" ry="6" height="80" width="84" y="6" x="6"/>
  </clipPath>
  <radialGradient id="radialGradient4375" gradientUnits="userSpaceOnUse" cy="87.792" cx="48" gradientTransform="matrix(1 -6.7115e-8 8.4282e-8 1.2558 110 -24.506)" r="42">
   <stop id="stop4369" style="stop-color:#fff;stop-opacity:.71756" offset="0"/>
   <stop id="stop4371" style="stop-color:#fff" offset="1"/>
  </radialGradient>
  <linearGradient id="linearGradient4390" y2="-40" xlink:href="#linearGradient4384" gradientUnits="userSpaceOnUse" x2="48" gradientTransform="matrix(1,0,0,-1,0,92)" y1="88" x1="48"/>
  <linearGradient id="linearGradient4429" y2="82.455" xlink:href="#linearGradient4384" spreadMethod="reflect" gradientUnits="userSpaceOnUse" x2="112.12" y1="82" x1="48"/>
  <linearGradient id="linearGradient3228" y2="88" spreadMethod="reflect" gradientUnits="userSpaceOnUse" x2="48" y1="88" x1="90">
   <stop id="stop3894" style="stop-opacity:.58824" offset="0"/>
   <stop id="stop3896" style="stop-opacity:.47059" offset=".11780"/>
   <stop id="stop3898" style="stop-opacity:.39216" offset=".23810"/>
   <stop id="stop3900" style="stop-opacity:.31373" offset="1"/>
  </linearGradient>
  <linearGradient id="linearGradient3235" y2="5.9877" gradientUnits="userSpaceOnUse" x2="48" gradientTransform="matrix(1.0172 0 0 1.0172 -1.1034 -1.1034)" y1="90" x1="48">
   <stop id="stop3401" style="stop-color:#a67150" offset="0"/>
   <stop id="stop3403" style="stop-color:#d1a57e" offset="1"/>
  </linearGradient>
  <linearGradient id="linearGradient4132-4" y2="78.168" xlink:href="#linearGradient4007-0" gradientUnits="userSpaceOnUse" x2="83.447" gradientTransform="matrix(.92074 .39018 -.39018 .92074 11.483 -9.7523)" y1="14.908" x1="22.221"/>
  <linearGradient id="linearGradient4007-0">
   <stop id="stop4009-4" offset="0"/>
   <stop id="stop4011-8" style="stop-opacity:0" offset="1"/>
  </linearGradient>
  <radialGradient id="radialGradient3217-7" gradientUnits="userSpaceOnUse" cy="95.866" cx="63.938" gradientTransform="matrix(.14332 -.14331 .83745 .83740 38.232 -15.648)" r="20.688">
   <stop id="stop3407-7" style="stop-color:#d0d0d0" offset="0"/>
   <stop id="stop3409-2" style="stop-color:#a1a1a1" offset="1"/>
  </radialGradient>
  <linearGradient id="linearGradient3219-7" y2="75.04" gradientUnits="userSpaceOnUse" x2="40.113" y1="2.6025" x1="40.113">
   <stop id="stop3555-2" style="stop-color:#5496b4;stop-opacity:.19847" offset="0"/>
   <stop id="stop3557-6" style="stop-color:#dfecf2;stop-opacity:0" offset="1"/>
  </linearGradient>
  <linearGradient id="linearGradient3221-1" y2="64" gradientUnits="userSpaceOnUse" x2="63.25" y1="11.75" x1="12.75">
   <stop id="stop3194-6" style="stop-color:#404040" offset="0"/>
   <stop id="stop3200-1" style="stop-color:#b7b7b7" offset=".5"/>
   <stop id="stop3196-5" style="stop-color:#404040" offset="1"/>
  </linearGradient>
  <filter id="filter3274-9" color-interpolation-filters="sRGB">
   <feGaussianBlur id="feGaussianBlur3276-4" stdDeviation="1.9857422"/>
  </filter>
  <linearGradient id="linearGradient3223-9" y2="48.321" xlink:href="#linearGradient4384" gradientUnits="userSpaceOnUse" x2="24.881" gradientTransform="matrix(.99310 0 0 .99310 .51207 .51034)" y1="-4.4534" x1="31.623"/>
  <linearGradient id="linearGradient3225-7" y2="21.098" xlink:href="#linearGradient4384" gradientUnits="userSpaceOnUse" x2="10.007" y1="42.894" x1="124.34"/>
  <radialGradient id="radialGradient3227-7" xlink:href="#linearGradient4384" gradientUnits="userSpaceOnUse" cy="22.818" cx="31.357" gradientTransform="matrix(1 4.829e-8 -3.481e-8 .72085 -.0000065191 6.3697)" r="7.357"/>
  <linearGradient id="linearGradient3229-1" y2="81.817" gradientUnits="userSpaceOnUse" x2="61.487" gradientTransform="matrix(.68752 -.68749 .68752 .68749 23.861 39.569)" y1="73.685" x1="53.797">
   <stop id="stop3427-5" offset="0"/>
   <stop id="stop3429-9" style="stop-opacity:0" offset="1"/>
  </linearGradient>
  <linearGradient id="linearGradient3231-7" y2="129.12" gradientUnits="userSpaceOnUse" x2="55.941" gradientTransform="matrix(.97228 0 0 .97228 -11.108 44.853)" y1="129.12" x1="72">
   <stop id="stop3365-6" offset="0"/>
   <stop id="stop3377-7" style="stop-color:#646464" offset=".2"/>
   <stop id="stop3371-3" style="stop-color:#c8c8c8" offset="0.3"/>
   <stop id="stop3373-6" style="stop-color:#646464" offset="0.4"/>
   <stop id="stop3367-5" offset="1"/>
  </linearGradient>
  <linearGradient id="linearGradient3233-6" y2="75.818" xlink:href="#linearGradient4384" gradientUnits="userSpaceOnUse" x2="64.414" gradientTransform="matrix(.68752 -.68749 .68752 .68749 23.861 39.569)" y1="87.406" x1="64.414"/>
  <filter id="filter3439-3" height="1.3335" width="1.1875" color-interpolation-filters="sRGB" y="-.16673" x="-.093730">
   <feGaussianBlur id="feGaussianBlur3441-9" stdDeviation="0.31930287"/>
  </filter>
  <linearGradient id="linearGradient4207" y2="78.168" xlink:href="#linearGradient4007-0" gradientUnits="userSpaceOnUse" x2="83.447" gradientTransform="matrix(.98449 .17543 -.17543 .98449 3.9932 -3.2123)" y1="14.908" x1="22.221"/>
  <linearGradient id="linearGradient4180-6" y2="63.998" xlink:href="#linearGradient4065-1" gradientUnits="userSpaceOnUse" x2="39.919" y1="21.915" x1="39.919"/>
  <linearGradient id="linearGradient4065-1">
   <stop id="stop4067-8" style="stop-color:#2e2a27" offset="0"/>
   <stop id="stop4069-5" style="stop-color:#2e2a27;stop-opacity:0" offset="1"/>
  </linearGradient>
 </defs>
 <metadata id="metadata2413">
  <rdf:RDF>
   <cc:Work rdf:about="">
    <dc:format>image/svg+xml</dc:format>
    <dc:type rdf:resource="http://purl.org/dc/dcmitype/StillImage"/>
    <dc:title/>
   </cc:Work>
  </rdf:RDF>
 </metadata>
 <g id="layer2" style="display:none">
  <rect id="rect3745" style="opacity:.9;filter:url(#filter3174);fill:url(#ButtonShadow)" rx="6" ry="6" height="85" width="86" y="7" x="5"/>
 </g>
 <g id="layer3">
  <path id="path3786" style="opacity:0.08;fill:url(#linearGradient3780)" d="m12-95.031c-5.5111 0-10.031 4.5202-10.031 10.031v71c0 5.5111 4.5202 10.031 10.031 10.031h72c5.5111 0 10.031-4.5202 10.031-10.031v-71c0-5.5111-4.5202-10.031-10.031-10.031h-72z" transform="scale(1,-1)"/>
  <path id="path3778" style="opacity:.1;fill:url(#linearGradient3780)" d="m12-94.031c-4.9716 0-9.0312 4.0596-9.0312 9.0312v71c0 4.9716 4.0596 9.0312 9.0312 9.0312h72c4.9716 0 9.0312-4.0596 9.0312-9.0312v-71c0-4.9716-4.0596-9.0312-9.0312-9.0312h-72z" transform="scale(1,-1)"/>
  <path id="path3770" style="opacity:.2;fill:url(#linearGradient3780)" d="m12-93c-4.4091 0-8 3.5909-8 8v71c0 4.4091 3.5909 8 8 8h72c4.4091 0 8-3.5909 8-8v-71c0-4.4091-3.5909-8-8-8h-72z" transform="scale(1,-1)"/>
  <rect id="rect3723" style="opacity:.3;fill:url(#linearGradient3780)" transform="scale(1,-1)" rx="7" ry="7" height="85" width="86" y="-92" x="5"/>
  <rect id="rect3716" style="opacity:.45;fill:url(#linearGradient3721)" transform="scale(1,-1)" rx="6" ry="6" height="84" width="84" y="-91" x="6"/>
 </g>
 <g id="layer1">
  <rect id="rect2419-1" style="fill:url(#linearGradient3235)" rx="6" ry="6" height="84" width="84" y="6" x="6"/>
  <path id="rect4359" style="opacity:.2;fill:url(#radialGradient4375)" d="m120.78 6.125c-2.74 0.5576-4.78 2.9665-4.78 5.875v68c0 3.324 2.676 6 6 6h72c3.324 0 6-2.676 6-6v-68c0-2.9085-2.0422-5.3174-4.7812-5.875 2.2051 0.53621 3.8125 2.4908 3.8125 4.875v68c0 2.8049-2.2264 5.0312-5.0312 5.0312h-72c-2.8049 0-5.0312-2.2264-5.0312-5.0312v-68c0-2.3842 1.6074-4.3388 3.8125-4.875z"/>
  <path id="rect4377" style="opacity:.3;fill:url(#linearGradient4390)" d="m12 86c-3.324 0-6-2.676-6-6v-68c0-3.324 2.676-6 6-6h72c3.324 0 6 2.676 6 6v68c0 3.324-2.676 6-6 6zm0-0.96875h72c2.8049 0 5.0312-2.2264 5.0312-5.0312v-68c0-2.8049-2.226-5.0312-5.031-5.0312h-72c-2.8049 0-5.0312 2.2263-5.0312 5.0312v68c0 2.8049 2.2264 5.0312 5.0312 5.0312z"/>
  <path id="rect4414" style="opacity:.1;fill:url(#linearGradient4429)" d="m6 78v2c0 3.324 2.676 6 6 6h72c3.324 0 6-2.676 6-6v-2c0 3.324-2.676 6-6 6h-72c-3.324 0-6-2.676-6-6z"/>
  <path id="path4412" style="opacity:.15" d="m6 100v1c0 3.324 2.676 6 6 6h72c3.324 0 6-2.676 6-6v-1c0 3.324-2.676 6-6 6h-72c-3.324 0-6-2.676-6-6z"/>
 </g>
 <g id="layer4">
  <path id="path3888" style="fill:url(#linearGradient3228)" d="m6 80v4c0 3.324 2.676 6 6 6h72c3.324 0 6-2.676 6-6v-4c0 3.324-2.676 6-6 6h-72c-3.324 0-6-2.676-6-6z"/>
  <path id="rect4345" style="opacity:.1;color:#000000" d="m6 82v2c0 3.324 2.676 6 6 6h72c3.324 0 6-2.676 6-6v-2c0 3.324-2.676 6-6 6h-72c-3.324 0-6-2.676-6-6z"/>
  <path id="rect4336" style="opacity:.15;color:#000000" d="m6 83v1c0 3.324 2.676 6 6 6h72c3.324 0 6-2.676 6-6v-1c0 3.324-2.676 6-6 6h-72c-3.324 0-6-2.676-6-6z"/>
 </g>
 <g id="layer5">
  <rect id="rect3171" style="opacity:.1;filter:url(#filter3794);stroke:#fff;stroke-linecap:round;stroke-width:.5;fill:url(#linearGradient3613)" clip-path="url(#clipPath4355)" rx="12" ry="12" height="62" width="66" y="15" x="15"/>
 </g>
 <g id="layer6">
  <g id="g4142" transform="translate(0,-2)">
   <path id="path4063" style="fill-rule:evenodd;fill:url(#linearGradient4180-6)" d="m37.688 21.781c-0.8065 0.03022-1.5657 0.50227-2.2812 1.1562-0.71556 0.65398-1.3709 1.5064-1.8438 2.4688-0.47282 0.96233-0.77792 2.0356-0.75 3.0625s0.39884 2.0332 1.25 2.7812c0.48632 0.42738 1.0075 0.68027 1.5312 0.71875 0.52378 0.03848 1.0326-0.12463 1.4688-0.40625 0.87234-0.56324 1.5413-1.595 2.0312-2.75 0.48998-1.155 0.78214-2.4452 0.8125-3.625 0.03-1.179-0.164-2.284-0.907-2.937-0.366-0.321-0.852-0.486-1.312-0.469zm-10.656 1.5c-0.80288 0.0863-1.4393 0.62617-1.9375 1.3125-0.49822 0.68633-0.85685 1.5632-1.125 2.4375-0.26815 0.87432-0.43753 1.7474-0.46875 2.5-0.01561 0.37632 0.0048 0.72882 0.0625 1.0312 0.05771 0.30243 0.14492 0.59262 0.375 0.8125 0.42848 0.4095 0.91628 0.61318 1.4062 0.625 0.48997 0.01182 0.94856-0.1752 1.3438-0.46875 0.79037-0.5871 1.4081-1.5916 1.8438-2.6875 0.43566-1.0959 0.67485-2.29 0.625-3.3125-0.02493-0.51123-0.11831-0.97526-0.34375-1.375s-0.61272-0.70964-1.0938-0.8125c-0.22338-0.04777-0.4644-0.08648-0.6875-0.0625zm19.406 6.219c-1.6557 0.18644-3.5315 1.3648-4.75 2.8438-0.60926 0.73945-1.0595 1.5674-1.1562 2.4375-0.09679 0.87012 0.20388 1.7827 0.96875 2.5 0.94121 0.88268 2.1107 1.0311 3.1562 0.6875 1.0455-0.34355 2.0133-1.1326 2.7812-2.0625s1.3376-2.0225 1.5938-3.0625c0.255-1.04 0.188-2.106-0.532-2.782-0.538-0.504-1.299-0.648-2.062-0.562zm-14.344 4.6562c-1.1659-0.07018-2.3135 0.39608-3.9375 0.5625-1.5648 0.16036-2.5501 0.06952-3.3438 0.125-0.79365 0.05548-1.457 0.38003-1.9688 1.1875-1.0788 1.7021-0.96492 3.7766-0.125 5.7188 0.83992 1.9421 2.3984 3.7917 4.2188 5.3125s3.903 2.6999 5.9375 3.1562 4.0488 0.17037 5.4688-1.25c0.68198-0.6822 0.83201-1.4298 0.71875-2.25-0.11326-0.82018-0.38022-1.7731-0.53125-3.3125-0.16237-1.6549 0.0982-2.8773-0.15625-4-0.127-0.561-0.412-1.094-0.937-1.531-0.491-0.408-1.212-0.744-2.157-1.063-0.498-0.892-0.964-1.547-1.469-1.968-0.537-0.449-1.134-0.653-1.718-0.688zm15.406 6.063c-0.72449-0.05585-1.4987 0.20346-2.25 0.625-0.75126 0.42154-1.4822 1.0354-2.0625 1.7188-0.58035 0.68339-1.0006 1.437-1.125 2.25-0.12441 0.81296 0.10114 1.6975 0.8125 2.3438 0.25055 0.22762 0.56292 0.28554 0.875 0.28125 0.31208-0.0043 0.64749-0.07306 1-0.1875 0.70502-0.22888 1.4929-0.63916 2.2188-1.1875 0.72585-0.54834 1.3892-1.2475 1.8125-2.0312 0.42329-0.78378 0.60992-1.6942 0.28125-2.5938-0.258-0.706-0.879-1.167-1.563-1.219z"/>
   <path id="path4114" style="opacity:.05;fill-rule:evenodd" d="m32.094 34.156c-1.1659-0.07018-2.3135 0.39608-3.9375 0.5625-1.5648 0.16036-2.5501 0.06952-3.3438 0.125-0.79365 0.05548-1.457 0.38003-1.9688 1.1875-1.0788 1.7021-0.96492 3.7766-0.125 5.7188 0.83992 1.9421 2.3984 3.7917 4.2188 5.3125s3.903 2.6999 5.9375 3.1562 4.0488 0.17037 5.4688-1.25c0.68198-0.6822 0.83201-1.4298 0.71875-2.25-0.11326-0.82018-0.38022-1.7731-0.53125-3.3125-0.16237-1.6549 0.0982-2.8773-0.15625-4-0.127-0.561-0.412-1.094-0.937-1.531-0.491-0.408-1.212-0.744-2.157-1.063-0.498-0.892-0.964-1.547-1.469-1.968-0.537-0.449-1.134-0.653-1.718-0.688zm-0.156 2.844c0.04172 0.0025-0.03407-0.0233 0.03125 0.03125 0.05017 0.04189 0.3936 0.43746 0.8125 1.1875a2.8568 2.8568 0 0 0 1.5938 1.3125c0.76262 0.25748 1.1721 0.46682 1.2188 0.5 0.000433 0.000308-0.000367 0.03098 0 0.03125 0.05832 0.29145-0.10922 1.5563 0.09375 3.625 0.16545 1.6864 0.41565 2.7712 0.5 3.3125-0.59206 0.52356-1.3727 0.73239-2.6875 0.4375-1.4153-0.31743-3.1635-1.2632-4.7188-2.5625-1.5615-1.3045-2.8463-2.883-3.4375-4.25-0.55541-1.2843-0.53112-2.2126-0.125-2.9375 0.48299-0.01552 1.5382 0.04722 3.2188-0.125 2.0264-0.20767 3.2037-0.58033 3.5-0.5625z"/>
   <path id="path4095" style="opacity:0.08;fill-rule:evenodd" d="m37.688 21.781c-0.8065 0.03022-1.5657 0.50227-2.2812 1.1562-0.71556 0.65398-1.3709 1.5064-1.8438 2.4688-0.47282 0.96233-0.77792 2.0356-0.75 3.0625s0.39884 2.0332 1.25 2.7812c0.48632 0.42738 1.0075 0.68027 1.5312 0.71875 0.52378 0.03848 1.0326-0.12463 1.4688-0.40625 0.87234-0.56324 1.5413-1.595 2.0312-2.75 0.48998-1.155 0.78214-2.4452 0.8125-3.625 0.03-1.179-0.164-2.284-0.907-2.937-0.366-0.321-0.852-0.486-1.312-0.469zm-10.656 1.5c-0.80288 0.0863-1.4393 0.62617-1.9375 1.3125-0.49822 0.68633-0.85685 1.5632-1.125 2.4375-0.26815 0.87432-0.43753 1.7474-0.46875 2.5-0.01561 0.37632 0.0048 0.72882 0.0625 1.0312 0.05771 0.30243 0.14492 0.59262 0.375 0.8125 0.42848 0.4095 0.91628 0.61318 1.4062 0.625 0.48997 0.01182 0.94856-0.1752 1.3438-0.46875 0.79037-0.5871 1.4081-1.5916 1.8438-2.6875 0.43566-1.0959 0.67485-2.29 0.625-3.3125-0.02493-0.51123-0.11831-0.97526-0.34375-1.375s-0.61272-0.70964-1.0938-0.8125c-0.22338-0.04777-0.4644-0.08648-0.6875-0.0625zm10.687 0.469c0.05806 0.0619 0.27358 0.45878 0.25 1.375-0.02305 0.89558-0.26107 2.006-0.65625 2.9375-0.4041 0.95252-0.96872 1.653-1.3125 1.875-0.14469 0.09342-0.21843 0.09607-0.25 0.09375 0.0031 0.000227-0.15164-0.02625-0.40625-0.25-0.41196-0.36203-0.57761-0.78134-0.59375-1.375-0.01646-0.60534 0.19602-1.4104 0.5625-2.1562 0.35964-0.73196 0.87538-1.3898 1.4062-1.875 0.53441-0.48841 0.88823-0.61209 1-0.625zm-10.562 1.5625c0.02355 0.08059 0.05235 0.10424 0.0625 0.3125 0.03153 0.64673-0.15322 1.6277-0.5 2.5-0.35325 0.88859-0.86012 1.6006-1.1875 1.8438-0.07532 0.05595-0.04375 0.05564-0.0625 0.0625-0.01298-0.11972-0.03893-0.22114-0.03125-0.40625 0.02173-0.52386 0.14594-1.2844 0.375-2.0312 0.2325-0.75809 0.54745-1.4356 0.84375-1.8438 0.26728-0.3682 0.41551-0.40683 0.5-0.4375zm19.843 4.157c-0.18715-0.0093-0.3715 0.0097-0.5625 0.03125-1.6557 0.18644-3.5315 1.3648-4.75 2.8438-0.60926 0.73945-1.0595 1.5674-1.1562 2.4375-0.09679 0.87012 0.20388 1.7827 0.96875 2.5 0.94121 0.88268 2.1107 1.0311 3.1562 0.6875 1.0455-0.34355 2.0133-1.1326 2.7812-2.0625s1.3376-2.0225 1.5938-3.0625c0.256-1.04 0.189-2.106-0.531-2.782-0.403-0.378-0.939-0.565-1.5-0.593zm-0.34375 1.9688c0.3814-0.04295 0.49462 0.02621 0.5 0.03125 0.02004 0.0188 0.16355 0.24222 0 0.90625-0.17167 0.697-0.62636 1.5639-1.2188 2.2812-0.60102 0.72781-1.3302 1.2897-1.875 1.4688-0.47929 0.15749-0.78448 0.15727-1.2188-0.25-0.3501-0.32833-0.40636-0.5931-0.375-0.875 0.03853-0.34636 0.26351-0.85373 0.71875-1.4062 0.91811-1.1143 2.5561-2.0535 3.4688-2.1562zm-14.562 2.7188c-1.1659-0.07018-2.3135 0.39608-3.9375 0.5625-1.5648 0.16036-2.5501 0.06952-3.3438 0.125-0.79365 0.05548-1.457 0.38003-1.9688 1.1875-1.0788 1.7021-0.96492 3.7766-0.125 5.7188 0.83992 1.9421 2.3984 3.7917 4.2188 5.3125s3.903 2.6999 5.9375 3.1562 4.0488 0.17037 5.4688-1.25c0.68198-0.6822 0.83201-1.4298 0.71875-2.25-0.11326-0.82018-0.38022-1.7731-0.53125-3.3125-0.16237-1.6549 0.0982-2.8773-0.15625-4-0.12723-0.56135-0.41232-1.0944-0.9375-1.5312-0.49001-0.40757-1.2116-0.74355-2.1562-1.0625-0.49819-0.89202-0.96414-1.5474-1.4688-1.9688-0.53784-0.44912-1.1346-0.65234-1.7188-0.6875zm-0.125 1.9375c0.21491 0.01294 0.37756 0.06947 0.59375 0.25 0.19526 0.16305 0.58704 0.61087 1.0312 1.4062a1.9447 1.9447 0 0 0 1.0625 0.90625c0.8369 0.28256 1.3589 0.57536 1.5312 0.71875 0.19322 0.16071 0.23378 0.25931 0.28125 0.46875 0.12394 0.54685-0.06619 1.8013 0.125 3.75 0.16516 1.6834 0.44671 2.7941 0.53125 3.4062 0.05953 0.43107 0.12435 0.31306-0.15625 0.59375-0.86209 0.86236-2.0584 1.0771-3.6562 0.71875-1.613-0.36177-3.4851-1.38-5.125-2.75-1.6441-1.3736-3.0169-3.0431-3.6875-4.5938-0.66509-1.5379-0.66325-2.8598 0-3.9062 0.23122-0.36481 0.09492-0.2573 0.4375-0.28125 0.5347-0.03737 1.685 0.05139 3.4062-0.125 1.8979-0.1945 3.051-0.59705 3.625-0.5625zm14.969 4.125c-0.55862 0.06913-1.1241 0.30884-1.6875 0.625-0.75126 0.42154-1.4822 1.0354-2.0625 1.7188-0.58035 0.68339-1.0006 1.437-1.125 2.25-0.12441 0.81296 0.10114 1.6975 0.8125 2.3438 0.25055 0.22762 0.56292 0.28554 0.875 0.28125 0.31208-0.0043 0.64749-0.07306 1-0.1875 0.70502-0.22888 1.4929-0.63916 2.2188-1.1875 0.72585-0.54834 1.3892-1.2475 1.8125-2.0312 0.42329-0.78378 0.60992-1.6942 0.28125-2.5938-0.25779-0.70555-0.8788-1.166-1.5625-1.2188-0.18112-0.01396-0.3763-0.02304-0.5625 0zm0.28125 1.9688c0.06863 0.25442 0.05855 0.50852-0.15625 0.90625-0.2494 0.4618-0.73503 0.99361-1.2812 1.4062-0.55808 0.4216-1.1644 0.75672-1.625 0.90625-0.03081 0.01-0.03442-0.0081-0.0625 0-0.028-0.097-0.114-0.185-0.094-0.313 0.05255-0.34337 0.23268-0.78247 0.65625-1.2812 0.43081-0.5073 1.0131-0.99053 1.5312-1.2812 0.49259-0.2764 0.83789-0.335 1.0312-0.34375z"/>
   <path id="path4082" style="opacity:0.12;fill-rule:evenodd" d="m37.688 21.781c-0.8065 0.03022-1.5657 0.50227-2.2812 1.1562-0.71556 0.65398-1.3709 1.5064-1.8438 2.4688-0.47282 0.96233-0.77792 2.0356-0.75 3.0625s0.39884 2.0332 1.25 2.7812c0.48632 0.42738 1.0075 0.68027 1.5312 0.71875 0.52378 0.03848 1.0326-0.12463 1.4688-0.40625 0.87234-0.56324 1.5413-1.595 2.0312-2.75 0.48998-1.155 0.78214-2.4452 0.8125-3.625 0.03-1.179-0.164-2.284-0.907-2.937-0.366-0.321-0.852-0.486-1.312-0.469zm0.03125 1.1875c0.14409-0.0054 0.37751 0.07985 0.5 0.1875 0.31697 0.27856 0.5265 0.97039 0.5 2-0.02585 1.0044-0.28726 2.1704-0.71875 3.1875-0.43699 1.0301-1.0476 1.8661-1.5938 2.2188-0.25631 0.16549-0.49869 0.23492-0.71875 0.21875-0.19868-0.01459-0.5004-0.13576-0.84375-0.4375-0.58-0.509-0.823-1.146-0.844-1.905-0.02085-0.76677 0.2178-1.6712 0.625-2.5 0.40298-0.82018 0.99215-1.5752 1.5938-2.125 0.61585-0.56284 1.1325-0.82998 1.5-0.84375zm-10.688 0.3125c-0.80288 0.0863-1.4393 0.62617-1.9375 1.3125-0.49822 0.68633-0.85685 1.5632-1.125 2.4375-0.26815 0.87432-0.43753 1.7474-0.46875 2.5-0.01561 0.37632 0.0048 0.72882 0.0625 1.0312 0.05771 0.30243 0.14492 0.59262 0.375 0.8125 0.42848 0.4095 0.91628 0.61318 1.4062 0.625 0.48997 0.01182 0.94856-0.1752 1.3438-0.46875 0.79037-0.5871 1.4081-1.5916 1.8438-2.6875 0.43566-1.0959 0.67485-2.29 0.625-3.3125-0.02493-0.51123-0.11831-0.97526-0.34375-1.375s-0.61272-0.70964-1.0938-0.8125c-0.22338-0.04777-0.4644-0.08648-0.6875-0.0625zm0.125 1.1875c-0.0046 0.000499 0.1321 0.02392 0.3125 0.0625 0.12793 0.02736 0.24554 0.10001 0.3125 0.21875 0.09992 0.17718 0.16795 0.44283 0.1875 0.84375 0.03855 0.79062-0.18168 1.8546-0.5625 2.8125-0.38481 0.96797-0.93281 1.7814-1.4375 2.1562-0.23433 0.17406-0.42687 0.25403-0.59375 0.25-0.17694-0.0043-0.35042-0.07995-0.59375-0.3125 0.04164 0.03979 0.01123 0.06638-0.03125-0.15625-0.03529-0.18494-0.07503-0.44792-0.0625-0.75 0.02536-0.61147 0.19347-1.4231 0.4375-2.2188 0.24615-0.8026 0.56387-1.5478 0.9375-2.0625 0.38858-0.53531 0.75254-0.80707 1.0938-0.84375zm19.844 5c-0.18715-0.0093-0.3715 0.0097-0.5625 0.03125-1.6557 0.18644-3.5315 1.3648-4.75 2.8438-0.60926 0.73945-1.0595 1.5674-1.1562 2.4375-0.09679 0.87012 0.20388 1.7827 0.96875 2.5 0.94121 0.88268 2.1107 1.0311 3.1562 0.6875 1.0455-0.34355 2.0133-1.1326 2.7812-2.0625s1.3376-2.0225 1.5938-3.0625c0.256-1.039 0.189-2.105-0.531-2.781-0.403-0.378-0.939-0.565-1.5-0.593zm-0.4375 1.2188c0.52792-0.05945 0.91571 0.05373 1.125 0.25 0.28824 0.27032 0.38651 0.81699 0.1875 1.625-0.20402 0.82835-0.7154 1.795-1.375 2.5938-0.66493 0.8052-1.4822 1.4455-2.2188 1.6875-0.69614 0.22874-1.3403 0.15183-1.9688-0.4375-0.50894-0.47729-0.65017-0.99284-0.59375-1.5 0.06084-0.54694 0.39203-1.1884 0.90625-1.8125 1.0332-1.2539 2.7403-2.2714 3.9375-2.4062zm-14.469 3.4688c-1.1659-0.07018-2.3135 0.39608-3.9375 0.5625-1.5648 0.16036-2.5501 0.06952-3.3438 0.125-0.79365 0.05548-1.457 0.38003-1.9688 1.1875-1.0788 1.7021-0.96492 3.7766-0.125 5.7188 0.83992 1.9421 2.3984 3.7917 4.2188 5.3125s3.903 2.6999 5.9375 3.1562 4.0488 0.17037 5.4688-1.25c0.68198-0.6822 0.83201-1.4298 0.71875-2.25-0.11326-0.82018-0.38022-1.7731-0.53125-3.3125-0.16237-1.6549 0.0982-2.8773-0.15625-4-0.12723-0.56135-0.41232-1.0944-0.9375-1.5312-0.49001-0.40757-1.2116-0.74355-2.1562-1.0625-0.49819-0.89202-0.96414-1.5474-1.4688-1.9688-0.53784-0.44912-1.1346-0.65234-1.7188-0.6875zm-0.0625 1.1875c0.35632 0.02145 0.66063 0.12286 1 0.40625 0.31373 0.26198 0.72262 0.82386 1.1875 1.6562a1.1999 1.1999 0 0 0 0.6875 0.53125c0.87817 0.2965 1.456 0.63044 1.75 0.875 0.32035 0.26645 0.48449 0.49954 0.5625 0.84375 0.17392 0.76737-0.05515 2.0388 0.125 3.875 0.15975 1.6283 0.43571 2.6519 0.53125 3.3438 0.0801 0.58008 0.05931 0.81555-0.375 1.25-1.0757 1.0761-2.6099 1.3334-4.375 0.9375-1.7744-0.39797-3.6972-1.4785-5.4062-2.9062-1.7116-1.43-3.1708-3.1744-3.9062-4.875-0.73204-1.6927-0.79115-3.2962 0.03125-4.5938 0.33867-0.53433 0.54718-0.62023 1.0625-0.65625 0.63387-0.04431 1.7137 0.04525 3.375-0.125 1.793-0.18374 2.9493-0.61069 3.75-0.5625zm14.906 4.875c-0.55862 0.06913-1.1241 0.30884-1.6875 0.625-0.75126 0.42154-1.4822 1.0354-2.0625 1.7188-0.58035 0.68339-1.0006 1.437-1.125 2.25-0.12441 0.81296 0.10114 1.6975 0.8125 2.3438 0.25055 0.22762 0.56292 0.28554 0.875 0.28125 0.31208-0.0043 0.64749-0.07306 1-0.1875 0.70502-0.22888 1.4929-0.63916 2.2188-1.1875 0.72585-0.54834 1.3892-1.2475 1.8125-2.0312 0.42329-0.78378 0.60992-1.6942 0.28125-2.5938-0.25779-0.70555-0.8788-1.166-1.5625-1.2188-0.18112-0.01396-0.3763-0.02304-0.5625 0zm0.15625 1.1875c0.11505-0.01508 0.21865-0.0072 0.3125 0 0.20524 0.01582 0.42886 0.15728 0.53125 0.4375 0.18886 0.51689 0.09 1.0533-0.21875 1.625-0.316 0.58511-0.85374 1.1604-1.4688 1.625-0.62233 0.47014-1.3208 0.82008-1.875 1-0.27418 0.08901-0.50857 0.15422-0.65625 0.15625-0.05089 0.0007-0.05322-0.000407-0.0625 0-0.371-0.359-0.474-0.794-0.404-1.25 0.08007-0.5232 0.36014-1.0868 0.84375-1.6562 0.48808-0.57474 1.1426-1.1279 1.75-1.4688 0.4707-0.26411 0.90485-0.42352 1.25-0.46875z"/>
   <path id="path4073" style="opacity:.3;fill-rule:evenodd" d="m37.688 21.781c-0.8065 0.03022-1.5657 0.50227-2.2812 1.1562-0.71556 0.65398-1.3709 1.5064-1.8438 2.4688-0.47282 0.96233-0.77792 2.0356-0.75 3.0625 0.002 0.07504 0.02549 0.14402 0.03125 0.21875 0.09619-0.78019 0.36414-1.5595 0.71875-2.2812 0.47282-0.96233 1.1282-1.8148 1.8438-2.4688 0.71556-0.65398 1.4748-1.126 2.2812-1.1562 0.46073-0.01726 0.9467 0.14729 1.3125 0.46875 0.60384 0.53066 0.82216 1.3564 0.875 2.2812 0.0076-0.11383 0.02837-0.2317 0.03125-0.34375 0.03-1.179-0.164-2.284-0.907-2.937-0.366-0.321-0.852-0.486-1.312-0.469zm-10.656 1.5c-0.80288 0.0863-1.4393 0.62617-1.9375 1.3125-0.49822 0.68633-0.85685 1.5632-1.125 2.4375-0.26815 0.87432-0.43753 1.7474-0.46875 2.5-0.01171 0.28224 0.0019 0.53688 0.03125 0.78125 0.05073-0.70379 0.19346-1.4855 0.4375-2.2812 0.26815-0.87432 0.62678-1.7512 1.125-2.4375 0.49822-0.68633 1.1346-1.2262 1.9375-1.3125 0.2231-0.02398 0.46412 0.01473 0.6875 0.0625 0.48103 0.10286 0.86831 0.41276 1.0938 0.8125 0.20617 0.36556 0.30982 0.78998 0.34375 1.25 0.02863-0.30404 0.01382-0.59159 0-0.875-0.02493-0.51123-0.11831-0.97526-0.34375-1.375s-0.61272-0.70964-1.0938-0.8125c-0.22338-0.04777-0.4644-0.08648-0.6875-0.0625zm19.968 6.188c-0.18715-0.0093-0.3715 0.0097-0.5625 0.03125-1.6557 0.18644-3.5315 1.3648-4.75 2.8438-0.60926 0.73945-1.0595 1.5674-1.1562 2.4375-0.02991 0.26888-0.01672 0.54253 0.03125 0.8125 0.13569-0.80245 0.55907-1.5631 1.125-2.25 1.2185-1.4789 3.0943-2.6573 4.75-2.8438 0.764-0.08603 1.5247 0.05811 2.0625 0.5625 0.35227 0.33036 0.54659 0.75045 0.625 1.2188 0.106-0.85-0.034-1.666-0.625-2.22-0.403-0.378-0.939-0.565-1.5-0.593zm-14.906 4.6875c-1.1659-0.07018-2.3135 0.39608-3.9375 0.5625-1.5648 0.16036-2.5501 0.06952-3.3438 0.125-0.79365 0.05548-1.457 0.38003-1.9688 1.1875-0.63331 0.99919-0.84432 2.1275-0.75 3.2812 0.06918-0.80186 0.30056-1.5722 0.75-2.2812 0.51179-0.80747 1.1751-1.132 1.9688-1.1875 0.79365-0.05548 1.779 0.03536 3.3438-0.125 1.624-0.16642 2.7716-0.63268 3.9375-0.5625 0.58415 0.03516 1.1809 0.23838 1.7188 0.6875 0.50461 0.42137 0.97056 1.0767 1.4688 1.9688 0.94468 0.31895 1.6662 0.65493 2.1562 1.0625 0.52518 0.43682 0.81027 0.9699 0.9375 1.5312 0.09538 0.42085 0.0937 0.87734 0.09375 1.3438 0.01407-0.86771 0.06627-1.6377-0.09375-2.3438-0.12723-0.56135-0.41232-1.0944-0.9375-1.5312-0.49001-0.40757-1.2116-0.74355-2.1562-1.0625-0.49819-0.89202-0.96414-1.5474-1.4688-1.9688-0.53784-0.44912-1.1346-0.65234-1.7188-0.6875zm14.844 6.0625c-0.55862 0.06913-1.1241 0.30884-1.6875 0.625-0.75126 0.42154-1.4822 1.0354-2.0625 1.7188-0.58035 0.68339-1.0006 1.437-1.125 2.25-0.04516 0.29509-0.02231 0.60712 0.03125 0.90625 0.14201-0.77573 0.5367-1.5003 1.0938-2.1562 0.58035-0.68339 1.3112-1.2972 2.0625-1.7188 0.75126-0.42154 1.5255-0.68085 2.25-0.625 0.6837 0.05271 1.3047 0.5132 1.5625 1.2188 0.06005 0.16435 0.09765 0.33576 0.125 0.5 0.0912-0.48782 0.05964-0.99468-0.125-1.5-0.25779-0.70555-0.8788-1.166-1.5625-1.2188-0.18112-0.01396-0.3763-0.02304-0.5625 0zm-8.4375 2.375c-0.01093 0.55512-0.03519 1.1354 0.03125 1.8125 0.14575 1.4856 0.38064 2.4178 0.5 3.2188 0.04873-0.29284 0.07456-0.59259 0.03125-0.90625-0.11326-0.82018-0.38022-1.7731-0.53125-3.3125-0.0285-0.29048-0.02374-0.54687-0.03125-0.8125z"/>
   <path id="path4133" style="opacity:.2;fill:#fff;fill-rule:evenodd" d="m39.875 25.531c-0.07196 1.0847-0.3378 2.236-0.78125 3.2812-0.48998 1.155-1.1589 2.1868-2.0312 2.75-0.43617 0.28162-0.94497 0.44473-1.4688 0.40625-0.52378-0.03848-1.0449-0.29137-1.5312-0.71875-0.78023-0.68567-1.1399-1.5946-1.2188-2.5312-0.02938 0.24964-0.03795 0.50353-0.03125 0.75 0.02792 1.0269 0.39884 2.0332 1.25 2.7812 0.48632 0.42738 1.0075 0.68027 1.5312 0.71875 0.52378 0.03848 1.0326-0.12463 1.4688-0.40625 0.87234-0.56324 1.5413-1.595 2.0312-2.75 0.48998-1.155 0.78214-2.4452 0.8125-3.625 0.0057-0.22131-0.01905-0.44272-0.03125-0.65625zm-10.719 0.875c-0.07465 0.79286-0.3101 1.6454-0.625 2.4375-0.43566 1.0959-1.0534 2.1004-1.8438 2.6875-0.39519 0.29355-0.85378 0.48057-1.3438 0.46875-0.48997-0.01182-0.97777-0.2155-1.4062-0.625-0.23008-0.21988-0.31729-0.51007-0.375-0.8125-0.01443-0.07561-0.02147-0.16854-0.03125-0.25-0.005 0.06953-0.02844 0.15108-0.03125 0.21875-0.01561 0.37632 0.0048 0.72882 0.0625 1.0312 0.05771 0.30243 0.14492 0.59262 0.375 0.8125 0.42848 0.4095 0.91628 0.61318 1.4062 0.625 0.48997 0.01182 0.94856-0.1752 1.3438-0.46875 0.79037-0.5871 1.4081-1.5916 1.8438-2.6875 0.43566-1.0959 0.67485-2.29 0.625-3.3125-0.0021-0.04371 0.0032-0.08199 0-0.125zm19.969 5.906c-0.02325 0.17669-0.05009 0.354-0.09375 0.53125-0.25615 1.04-0.82585 2.1326-1.5938 3.0625-0.7679 0.9299-1.7357 1.7189-2.7812 2.0625-1.0455 0.34355-2.215 0.19518-3.1562-0.6875-0.52852-0.49565-0.83024-1.0838-0.9375-1.6875-0.01039 0.06144-0.02437 0.12562-0.03125 0.1875-0.09679 0.87012 0.20388 1.7827 0.96875 2.5 0.94121 0.88268 2.1107 1.0311 3.1562 0.6875 1.0455-0.34355 2.0133-1.1326 2.7812-2.0625s1.3376-2.0225 1.5938-3.0625c0.12807-0.52 0.16853-1.0504 0.09375-1.5312zm-27.031 7c-0.09688 1.1229 0.13499 2.3045 0.625 3.4375 0.83992 1.9421 2.3984 3.7917 4.2188 5.3125s3.903 2.6999 5.9375 3.1562 4.0488 0.17037 5.4688-1.25c0.68198-0.6822 0.83201-1.4298 0.71875-2.25-0.004-0.02871-0.02692-0.0647-0.03125-0.09375-0.07869 0.47289-0.26633 0.92245-0.6875 1.3438-1.4199 1.4204-3.4342 1.7063-5.4688 1.25-2.0345-0.4563-4.1171-1.6354-5.9375-3.1562s-3.3788-3.3704-4.2188-5.3125c-0.34686-0.80204-0.55864-1.6259-0.625-2.4375zm16.375 2.4375c-0.0044 0.26984 0.02288 0.54779 0.03125 0.84375 0.0058-0.293-0.03122-0.57504-0.03125-0.84375zm10.719 1.1875c-0.07115 0.38055-0.22075 0.75027-0.40625 1.0938-0.42329 0.78378-1.0866 1.4829-1.8125 2.0312-0.72585 0.54834-1.5137 0.95862-2.2188 1.1875-0.35251 0.11444-0.68792 0.18321-1 0.1875-0.31208 0.0043-0.62445-0.05363-0.875-0.28125-0.45315-0.41168-0.68726-0.91254-0.78125-1.4375-0.0059 0.03245-0.02625 0.0611-0.03125 0.09375-0.12441 0.81296 0.10114 1.6975 0.8125 2.3438 0.25055 0.22762 0.56292 0.28554 0.875 0.28125 0.31208-0.0043 0.64749-0.07306 1-0.1875 0.70502-0.22888 1.4929-0.63916 2.2188-1.1875 0.72585-0.54834 1.3892-1.2475 1.8125-2.0312 0.34595-0.64057 0.52858-1.3591 0.40625-2.0938z"/>
  </g>
  <g id="g4150" transform="matrix(.65852 .27277 -.27277 .65852 18.254 35.031)">
   <path id="path4152" style="fill-rule:evenodd;fill:url(#linearGradient4180-6)" d="m37.688 21.781c-0.8065 0.03022-1.5657 0.50227-2.2812 1.1562-0.71556 0.65398-1.3709 1.5064-1.8438 2.4688-0.47282 0.96233-0.77792 2.0356-0.75 3.0625s0.39884 2.0332 1.25 2.7812c0.48632 0.42738 1.0075 0.68027 1.5312 0.71875 0.52378 0.03848 1.0326-0.12463 1.4688-0.40625 0.87234-0.56324 1.5413-1.595 2.0312-2.75 0.48998-1.155 0.78214-2.4452 0.8125-3.625 0.03-1.179-0.164-2.284-0.907-2.937-0.366-0.321-0.852-0.486-1.312-0.469zm-10.656 1.5c-0.80288 0.0863-1.4393 0.62617-1.9375 1.3125-0.49822 0.68633-0.85685 1.5632-1.125 2.4375-0.26815 0.87432-0.43753 1.7474-0.46875 2.5-0.01561 0.37632 0.0048 0.72882 0.0625 1.0312 0.05771 0.30243 0.14492 0.59262 0.375 0.8125 0.42848 0.4095 0.91628 0.61318 1.4062 0.625 0.48997 0.01182 0.94856-0.1752 1.3438-0.46875 0.79037-0.5871 1.4081-1.5916 1.8438-2.6875 0.43566-1.0959 0.67485-2.29 0.625-3.3125-0.02493-0.51123-0.11831-0.97526-0.34375-1.375s-0.61272-0.70964-1.0938-0.8125c-0.22338-0.04777-0.4644-0.08648-0.6875-0.0625zm19.406 6.219c-1.6557 0.18644-3.5315 1.3648-4.75 2.8438-0.60926 0.73945-1.0595 1.5674-1.1562 2.4375-0.09679 0.87012 0.20388 1.7827 0.96875 2.5 0.94121 0.88268 2.1107 1.0311 3.1562 0.6875 1.0455-0.34355 2.0133-1.1326 2.7812-2.0625s1.3376-2.0225 1.5938-3.0625c0.255-1.04 0.188-2.106-0.532-2.782-0.538-0.504-1.299-0.648-2.062-0.562zm-14.344 4.6562c-1.1659-0.07018-2.3135 0.39608-3.9375 0.5625-1.5648 0.16036-2.5501 0.06952-3.3438 0.125-0.79365 0.05548-1.457 0.38003-1.9688 1.1875-1.0788 1.7021-0.96492 3.7766-0.125 5.7188 0.83992 1.9421 2.3984 3.7917 4.2188 5.3125s3.903 2.6999 5.9375 3.1562 4.0488 0.17037 5.4688-1.25c0.68198-0.6822 0.83201-1.4298 0.71875-2.25-0.11326-0.82018-0.38022-1.7731-0.53125-3.3125-0.16237-1.6549 0.0982-2.8773-0.15625-4-0.127-0.561-0.412-1.094-0.937-1.531-0.491-0.408-1.212-0.744-2.157-1.063-0.498-0.892-0.964-1.547-1.469-1.968-0.537-0.449-1.134-0.653-1.718-0.688zm15.406 6.063c-0.72449-0.05585-1.4987 0.20346-2.25 0.625-0.75126 0.42154-1.4822 1.0354-2.0625 1.7188-0.58035 0.68339-1.0006 1.437-1.125 2.25-0.12441 0.81296 0.10114 1.6975 0.8125 2.3438 0.25055 0.22762 0.56292 0.28554 0.875 0.28125 0.31208-0.0043 0.64749-0.07306 1-0.1875 0.70502-0.22888 1.4929-0.63916 2.2188-1.1875 0.72585-0.54834 1.3892-1.2475 1.8125-2.0312 0.42329-0.78378 0.60992-1.6942 0.28125-2.5938-0.258-0.706-0.879-1.167-1.563-1.219z"/>
   <path id="path4154" style="opacity:.05;fill-rule:evenodd" d="m32.094 34.156c-1.1659-0.07018-2.3135 0.39608-3.9375 0.5625-1.5648 0.16036-2.5501 0.06952-3.3438 0.125-0.79365 0.05548-1.457 0.38003-1.9688 1.1875-1.0788 1.7021-0.96492 3.7766-0.125 5.7188 0.83992 1.9421 2.3984 3.7917 4.2188 5.3125s3.903 2.6999 5.9375 3.1562 4.0488 0.17037 5.4688-1.25c0.68198-0.6822 0.83201-1.4298 0.71875-2.25-0.11326-0.82018-0.38022-1.7731-0.53125-3.3125-0.16237-1.6549 0.0982-2.8773-0.15625-4-0.127-0.561-0.412-1.094-0.937-1.531-0.491-0.408-1.212-0.744-2.157-1.063-0.498-0.892-0.964-1.547-1.469-1.968-0.537-0.449-1.134-0.653-1.718-0.688zm-0.156 2.844c0.04172 0.0025-0.03407-0.0233 0.03125 0.03125 0.05017 0.04189 0.3936 0.43746 0.8125 1.1875a2.8568 2.8568 0 0 0 1.5938 1.3125c0.76262 0.25748 1.1721 0.46682 1.2188 0.5 0.000433 0.000308-0.000367 0.03098 0 0.03125 0.05832 0.29145-0.10922 1.5563 0.09375 3.625 0.16545 1.6864 0.41565 2.7712 0.5 3.3125-0.59206 0.52356-1.3727 0.73239-2.6875 0.4375-1.4153-0.31743-3.1635-1.2632-4.7188-2.5625-1.5615-1.3045-2.8463-2.883-3.4375-4.25-0.55541-1.2843-0.53112-2.2126-0.125-2.9375 0.48299-0.01552 1.5382 0.04722 3.2188-0.125 2.0264-0.20767 3.2037-0.58033 3.5-0.5625z"/>
   <path id="path4156" style="opacity:0.08;fill-rule:evenodd" d="m37.688 21.781c-0.8065 0.03022-1.5657 0.50227-2.2812 1.1562-0.71556 0.65398-1.3709 1.5064-1.8438 2.4688-0.47282 0.96233-0.77792 2.0356-0.75 3.0625s0.39884 2.0332 1.25 2.7812c0.48632 0.42738 1.0075 0.68027 1.5312 0.71875 0.52378 0.03848 1.0326-0.12463 1.4688-0.40625 0.87234-0.56324 1.5413-1.595 2.0312-2.75 0.48998-1.155 0.78214-2.4452 0.8125-3.625 0.03-1.179-0.164-2.284-0.907-2.937-0.366-0.321-0.852-0.486-1.312-0.469zm-10.656 1.5c-0.80288 0.0863-1.4393 0.62617-1.9375 1.3125-0.49822 0.68633-0.85685 1.5632-1.125 2.4375-0.26815 0.87432-0.43753 1.7474-0.46875 2.5-0.01561 0.37632 0.0048 0.72882 0.0625 1.0312 0.05771 0.30243 0.14492 0.59262 0.375 0.8125 0.42848 0.4095 0.91628 0.61318 1.4062 0.625 0.48997 0.01182 0.94856-0.1752 1.3438-0.46875 0.79037-0.5871 1.4081-1.5916 1.8438-2.6875 0.43566-1.0959 0.67485-2.29 0.625-3.3125-0.02493-0.51123-0.11831-0.97526-0.34375-1.375s-0.61272-0.70964-1.0938-0.8125c-0.22338-0.04777-0.4644-0.08648-0.6875-0.0625zm10.687 0.469c0.05806 0.0619 0.27358 0.45878 0.25 1.375-0.02305 0.89558-0.26107 2.006-0.65625 2.9375-0.4041 0.95252-0.96872 1.653-1.3125 1.875-0.14469 0.09342-0.21843 0.09607-0.25 0.09375 0.0031 0.000227-0.15164-0.02625-0.40625-0.25-0.41196-0.36203-0.57761-0.78134-0.59375-1.375-0.01646-0.60534 0.19602-1.4104 0.5625-2.1562 0.35964-0.73196 0.87538-1.3898 1.4062-1.875 0.53441-0.48841 0.88823-0.61209 1-0.625zm-10.562 1.5625c0.02355 0.08059 0.05235 0.10424 0.0625 0.3125 0.03153 0.64673-0.15322 1.6277-0.5 2.5-0.35325 0.88859-0.86012 1.6006-1.1875 1.8438-0.07532 0.05595-0.04375 0.05564-0.0625 0.0625-0.01298-0.11972-0.03893-0.22114-0.03125-0.40625 0.02173-0.52386 0.14594-1.2844 0.375-2.0312 0.2325-0.75809 0.54745-1.4356 0.84375-1.8438 0.26728-0.3682 0.41551-0.40683 0.5-0.4375zm19.843 4.157c-0.18715-0.0093-0.3715 0.0097-0.5625 0.03125-1.6557 0.18644-3.5315 1.3648-4.75 2.8438-0.60926 0.73945-1.0595 1.5674-1.1562 2.4375-0.09679 0.87012 0.20388 1.7827 0.96875 2.5 0.94121 0.88268 2.1107 1.0311 3.1562 0.6875 1.0455-0.34355 2.0133-1.1326 2.7812-2.0625s1.3376-2.0225 1.5938-3.0625c0.256-1.04 0.189-2.106-0.531-2.782-0.403-0.378-0.939-0.565-1.5-0.593zm-0.34375 1.9688c0.3814-0.04295 0.49462 0.02621 0.5 0.03125 0.02004 0.0188 0.16355 0.24222 0 0.90625-0.17167 0.697-0.62636 1.5639-1.2188 2.2812-0.60102 0.72781-1.3302 1.2897-1.875 1.4688-0.47929 0.15749-0.78448 0.15727-1.2188-0.25-0.3501-0.32833-0.40636-0.5931-0.375-0.875 0.03853-0.34636 0.26351-0.85373 0.71875-1.4062 0.91811-1.1143 2.5561-2.0535 3.4688-2.1562zm-14.562 2.7188c-1.1659-0.07018-2.3135 0.39608-3.9375 0.5625-1.5648 0.16036-2.5501 0.06952-3.3438 0.125-0.79365 0.05548-1.457 0.38003-1.9688 1.1875-1.0788 1.7021-0.96492 3.7766-0.125 5.7188 0.83992 1.9421 2.3984 3.7917 4.2188 5.3125s3.903 2.6999 5.9375 3.1562 4.0488 0.17037 5.4688-1.25c0.68198-0.6822 0.83201-1.4298 0.71875-2.25-0.11326-0.82018-0.38022-1.7731-0.53125-3.3125-0.16237-1.6549 0.0982-2.8773-0.15625-4-0.12723-0.56135-0.41232-1.0944-0.9375-1.5312-0.49001-0.40757-1.2116-0.74355-2.1562-1.0625-0.49819-0.89202-0.96414-1.5474-1.4688-1.9688-0.53784-0.44912-1.1346-0.65234-1.7188-0.6875zm-0.125 1.9375c0.21491 0.01294 0.37756 0.06947 0.59375 0.25 0.19526 0.16305 0.58704 0.61087 1.0312 1.4062a1.9447 1.9447 0 0 0 1.0625 0.90625c0.8369 0.28256 1.3589 0.57536 1.5312 0.71875 0.19322 0.16071 0.23378 0.25931 0.28125 0.46875 0.12394 0.54685-0.06619 1.8013 0.125 3.75 0.16516 1.6834 0.44671 2.7941 0.53125 3.4062 0.05953 0.43107 0.12435 0.31306-0.15625 0.59375-0.86209 0.86236-2.0584 1.0771-3.6562 0.71875-1.613-0.36177-3.4851-1.38-5.125-2.75-1.6441-1.3736-3.0169-3.0431-3.6875-4.5938-0.66509-1.5379-0.66325-2.8598 0-3.9062 0.23122-0.36481 0.09492-0.2573 0.4375-0.28125 0.5347-0.03737 1.685 0.05139 3.4062-0.125 1.8979-0.1945 3.051-0.59705 3.625-0.5625zm14.969 4.125c-0.55862 0.06913-1.1241 0.30884-1.6875 0.625-0.75126 0.42154-1.4822 1.0354-2.0625 1.7188-0.58035 0.68339-1.0006 1.437-1.125 2.25-0.12441 0.81296 0.10114 1.6975 0.8125 2.3438 0.25055 0.22762 0.56292 0.28554 0.875 0.28125 0.31208-0.0043 0.64749-0.07306 1-0.1875 0.70502-0.22888 1.4929-0.63916 2.2188-1.1875 0.72585-0.54834 1.3892-1.2475 1.8125-2.0312 0.42329-0.78378 0.60992-1.6942 0.28125-2.5938-0.25779-0.70555-0.8788-1.166-1.5625-1.2188-0.18112-0.01396-0.3763-0.02304-0.5625 0zm0.28125 1.9688c0.06863 0.25442 0.05855 0.50852-0.15625 0.90625-0.2494 0.4618-0.73503 0.99361-1.2812 1.4062-0.55808 0.4216-1.1644 0.75672-1.625 0.90625-0.03081 0.01-0.03442-0.0081-0.0625 0-0.028-0.097-0.114-0.185-0.094-0.313 0.05255-0.34337 0.23268-0.78247 0.65625-1.2812 0.43081-0.5073 1.0131-0.99053 1.5312-1.2812 0.49259-0.2764 0.83789-0.335 1.0312-0.34375z"/>
   <path id="path4158" style="opacity:0.12;fill-rule:evenodd" d="m37.688 21.781c-0.8065 0.03022-1.5657 0.50227-2.2812 1.1562-0.71556 0.65398-1.3709 1.5064-1.8438 2.4688-0.47282 0.96233-0.77792 2.0356-0.75 3.0625s0.39884 2.0332 1.25 2.7812c0.48632 0.42738 1.0075 0.68027 1.5312 0.71875 0.52378 0.03848 1.0326-0.12463 1.4688-0.40625 0.87234-0.56324 1.5413-1.595 2.0312-2.75 0.48998-1.155 0.78214-2.4452 0.8125-3.625 0.03-1.179-0.164-2.284-0.907-2.937-0.366-0.321-0.852-0.486-1.312-0.469zm0.03125 1.1875c0.14409-0.0054 0.37751 0.07985 0.5 0.1875 0.31697 0.27856 0.5265 0.97039 0.5 2-0.02585 1.0044-0.28726 2.1704-0.71875 3.1875-0.43699 1.0301-1.0476 1.8661-1.5938 2.2188-0.25631 0.16549-0.49869 0.23492-0.71875 0.21875-0.19868-0.01459-0.5004-0.13576-0.84375-0.4375-0.58-0.509-0.823-1.146-0.844-1.905-0.02085-0.76677 0.2178-1.6712 0.625-2.5 0.40298-0.82018 0.99215-1.5752 1.5938-2.125 0.61585-0.56284 1.1325-0.82998 1.5-0.84375zm-10.688 0.3125c-0.80288 0.0863-1.4393 0.62617-1.9375 1.3125-0.49822 0.68633-0.85685 1.5632-1.125 2.4375-0.26815 0.87432-0.43753 1.7474-0.46875 2.5-0.01561 0.37632 0.0048 0.72882 0.0625 1.0312 0.05771 0.30243 0.14492 0.59262 0.375 0.8125 0.42848 0.4095 0.91628 0.61318 1.4062 0.625 0.48997 0.01182 0.94856-0.1752 1.3438-0.46875 0.79037-0.5871 1.4081-1.5916 1.8438-2.6875 0.43566-1.0959 0.67485-2.29 0.625-3.3125-0.02493-0.51123-0.11831-0.97526-0.34375-1.375s-0.61272-0.70964-1.0938-0.8125c-0.22338-0.04777-0.4644-0.08648-0.6875-0.0625zm0.125 1.1875c-0.0046 0.000499 0.1321 0.02392 0.3125 0.0625 0.12793 0.02736 0.24554 0.10001 0.3125 0.21875 0.09992 0.17718 0.16795 0.44283 0.1875 0.84375 0.03855 0.79062-0.18168 1.8546-0.5625 2.8125-0.38481 0.96797-0.93281 1.7814-1.4375 2.1562-0.23433 0.17406-0.42687 0.25403-0.59375 0.25-0.17694-0.0043-0.35042-0.07995-0.59375-0.3125 0.04164 0.03979 0.01123 0.06638-0.03125-0.15625-0.03529-0.18494-0.07503-0.44792-0.0625-0.75 0.02536-0.61147 0.19347-1.4231 0.4375-2.2188 0.24615-0.8026 0.56387-1.5478 0.9375-2.0625 0.38858-0.53531 0.75254-0.80707 1.0938-0.84375zm19.844 5c-0.18715-0.0093-0.3715 0.0097-0.5625 0.03125-1.6557 0.18644-3.5315 1.3648-4.75 2.8438-0.60926 0.73945-1.0595 1.5674-1.1562 2.4375-0.09679 0.87012 0.20388 1.7827 0.96875 2.5 0.94121 0.88268 2.1107 1.0311 3.1562 0.6875 1.0455-0.34355 2.0133-1.1326 2.7812-2.0625s1.3376-2.0225 1.5938-3.0625c0.256-1.039 0.189-2.105-0.531-2.781-0.403-0.378-0.939-0.565-1.5-0.593zm-0.4375 1.2188c0.52792-0.05945 0.91571 0.05373 1.125 0.25 0.28824 0.27032 0.38651 0.81699 0.1875 1.625-0.20402 0.82835-0.7154 1.795-1.375 2.5938-0.66493 0.8052-1.4822 1.4455-2.2188 1.6875-0.69614 0.22874-1.3403 0.15183-1.9688-0.4375-0.50894-0.47729-0.65017-0.99284-0.59375-1.5 0.06084-0.54694 0.39203-1.1884 0.90625-1.8125 1.0332-1.2539 2.7403-2.2714 3.9375-2.4062zm-14.469 3.4688c-1.1659-0.07018-2.3135 0.39608-3.9375 0.5625-1.5648 0.16036-2.5501 0.06952-3.3438 0.125-0.79365 0.05548-1.457 0.38003-1.9688 1.1875-1.0788 1.7021-0.96492 3.7766-0.125 5.7188 0.83992 1.9421 2.3984 3.7917 4.2188 5.3125s3.903 2.6999 5.9375 3.1562 4.0488 0.17037 5.4688-1.25c0.68198-0.6822 0.83201-1.4298 0.71875-2.25-0.11326-0.82018-0.38022-1.7731-0.53125-3.3125-0.16237-1.6549 0.0982-2.8773-0.15625-4-0.12723-0.56135-0.41232-1.0944-0.9375-1.5312-0.49001-0.40757-1.2116-0.74355-2.1562-1.0625-0.49819-0.89202-0.96414-1.5474-1.4688-1.9688-0.53784-0.44912-1.1346-0.65234-1.7188-0.6875zm-0.0625 1.1875c0.35632 0.02145 0.66063 0.12286 1 0.40625 0.31373 0.26198 0.72262 0.82386 1.1875 1.6562a1.1999 1.1999 0 0 0 0.6875 0.53125c0.87817 0.2965 1.456 0.63044 1.75 0.875 0.32035 0.26645 0.48449 0.49954 0.5625 0.84375 0.17392 0.76737-0.05515 2.0388 0.125 3.875 0.15975 1.6283 0.43571 2.6519 0.53125 3.3438 0.0801 0.58008 0.05931 0.81555-0.375 1.25-1.0757 1.0761-2.6099 1.3334-4.375 0.9375-1.7744-0.39797-3.6972-1.4785-5.4062-2.9062-1.7116-1.43-3.1708-3.1744-3.9062-4.875-0.73204-1.6927-0.79115-3.2962 0.03125-4.5938 0.33867-0.53433 0.54718-0.62023 1.0625-0.65625 0.63387-0.04431 1.7137 0.04525 3.375-0.125 1.793-0.18374 2.9493-0.61069 3.75-0.5625zm14.906 4.875c-0.55862 0.06913-1.1241 0.30884-1.6875 0.625-0.75126 0.42154-1.4822 1.0354-2.0625 1.7188-0.58035 0.68339-1.0006 1.437-1.125 2.25-0.12441 0.81296 0.10114 1.6975 0.8125 2.3438 0.25055 0.22762 0.56292 0.28554 0.875 0.28125 0.31208-0.0043 0.64749-0.07306 1-0.1875 0.70502-0.22888 1.4929-0.63916 2.2188-1.1875 0.72585-0.54834 1.3892-1.2475 1.8125-2.0312 0.42329-0.78378 0.60992-1.6942 0.28125-2.5938-0.25779-0.70555-0.8788-1.166-1.5625-1.2188-0.18112-0.01396-0.3763-0.02304-0.5625 0zm0.15625 1.1875c0.11505-0.01508 0.21865-0.0072 0.3125 0 0.20524 0.01582 0.42886 0.15728 0.53125 0.4375 0.18886 0.51689 0.09 1.0533-0.21875 1.625-0.316 0.58511-0.85374 1.1604-1.4688 1.625-0.62233 0.47014-1.3208 0.82008-1.875 1-0.27418 0.08901-0.50857 0.15422-0.65625 0.15625-0.05089 0.0007-0.05322-0.000407-0.0625 0-0.371-0.359-0.474-0.794-0.404-1.25 0.08007-0.5232 0.36014-1.0868 0.84375-1.6562 0.48808-0.57474 1.1426-1.1279 1.75-1.4688 0.4707-0.26411 0.90485-0.42352 1.25-0.46875z"/>
   <path id="path4160" style="opacity:.3;fill-rule:evenodd" d="m37.688 21.781c-0.8065 0.03022-1.5657 0.50227-2.2812 1.1562-0.71556 0.65398-1.3709 1.5064-1.8438 2.4688-0.47282 0.96233-0.77792 2.0356-0.75 3.0625 0.002 0.07504 0.02549 0.14402 0.03125 0.21875 0.09619-0.78019 0.36414-1.5595 0.71875-2.2812 0.47282-0.96233 1.1282-1.8148 1.8438-2.4688 0.71556-0.65398 1.4748-1.126 2.2812-1.1562 0.46073-0.01726 0.9467 0.14729 1.3125 0.46875 0.60384 0.53066 0.82216 1.3564 0.875 2.2812 0.0076-0.11383 0.02837-0.2317 0.03125-0.34375 0.03-1.179-0.164-2.284-0.907-2.937-0.366-0.321-0.852-0.486-1.312-0.469zm-10.656 1.5c-0.80288 0.0863-1.4393 0.62617-1.9375 1.3125-0.49822 0.68633-0.85685 1.5632-1.125 2.4375-0.26815 0.87432-0.43753 1.7474-0.46875 2.5-0.01171 0.28224 0.0019 0.53688 0.03125 0.78125 0.05073-0.70379 0.19346-1.4855 0.4375-2.2812 0.26815-0.87432 0.62678-1.7512 1.125-2.4375 0.49822-0.68633 1.1346-1.2262 1.9375-1.3125 0.2231-0.02398 0.46412 0.01473 0.6875 0.0625 0.48103 0.10286 0.86831 0.41276 1.0938 0.8125 0.20617 0.36556 0.30982 0.78998 0.34375 1.25 0.02863-0.30404 0.01382-0.59159 0-0.875-0.02493-0.51123-0.11831-0.97526-0.34375-1.375s-0.61272-0.70964-1.0938-0.8125c-0.22338-0.04777-0.4644-0.08648-0.6875-0.0625zm19.968 6.188c-0.18715-0.0093-0.3715 0.0097-0.5625 0.03125-1.6557 0.18644-3.5315 1.3648-4.75 2.8438-0.60926 0.73945-1.0595 1.5674-1.1562 2.4375-0.02991 0.26888-0.01672 0.54253 0.03125 0.8125 0.13569-0.80245 0.55907-1.5631 1.125-2.25 1.2185-1.4789 3.0943-2.6573 4.75-2.8438 0.764-0.08603 1.5247 0.05811 2.0625 0.5625 0.35227 0.33036 0.54659 0.75045 0.625 1.2188 0.106-0.85-0.034-1.666-0.625-2.22-0.403-0.378-0.939-0.565-1.5-0.593zm-14.906 4.6875c-1.1659-0.07018-2.3135 0.39608-3.9375 0.5625-1.5648 0.16036-2.5501 0.06952-3.3438 0.125-0.79365 0.05548-1.457 0.38003-1.9688 1.1875-0.63331 0.99919-0.84432 2.1275-0.75 3.2812 0.06918-0.80186 0.30056-1.5722 0.75-2.2812 0.51179-0.80747 1.1751-1.132 1.9688-1.1875 0.79365-0.05548 1.779 0.03536 3.3438-0.125 1.624-0.16642 2.7716-0.63268 3.9375-0.5625 0.58415 0.03516 1.1809 0.23838 1.7188 0.6875 0.50461 0.42137 0.97056 1.0767 1.4688 1.9688 0.94468 0.31895 1.6662 0.65493 2.1562 1.0625 0.52518 0.43682 0.81027 0.9699 0.9375 1.5312 0.09538 0.42085 0.0937 0.87734 0.09375 1.3438 0.01407-0.86771 0.06627-1.6377-0.09375-2.3438-0.12723-0.56135-0.41232-1.0944-0.9375-1.5312-0.49001-0.40757-1.2116-0.74355-2.1562-1.0625-0.49819-0.89202-0.96414-1.5474-1.4688-1.9688-0.53784-0.44912-1.1346-0.65234-1.7188-0.6875zm14.844 6.0625c-0.55862 0.06913-1.1241 0.30884-1.6875 0.625-0.75126 0.42154-1.4822 1.0354-2.0625 1.7188-0.58035 0.68339-1.0006 1.437-1.125 2.25-0.04516 0.29509-0.02231 0.60712 0.03125 0.90625 0.14201-0.77573 0.5367-1.5003 1.0938-2.1562 0.58035-0.68339 1.3112-1.2972 2.0625-1.7188 0.75126-0.42154 1.5255-0.68085 2.25-0.625 0.6837 0.05271 1.3047 0.5132 1.5625 1.2188 0.06005 0.16435 0.09765 0.33576 0.125 0.5 0.0912-0.48782 0.05964-0.99468-0.125-1.5-0.25779-0.70555-0.8788-1.166-1.5625-1.2188-0.18112-0.01396-0.3763-0.02304-0.5625 0zm-8.4375 2.375c-0.01093 0.55512-0.03519 1.1354 0.03125 1.8125 0.14575 1.4856 0.38064 2.4178 0.5 3.2188 0.04873-0.29284 0.07456-0.59259 0.03125-0.90625-0.11326-0.82018-0.38022-1.7731-0.53125-3.3125-0.0285-0.29048-0.02374-0.54687-0.03125-0.8125z"/>
   <path id="path4162" style="opacity:.2;fill:#fff;fill-rule:evenodd" d="m39.875 25.531c-0.07196 1.0847-0.3378 2.236-0.78125 3.2812-0.48998 1.155-1.1589 2.1868-2.0312 2.75-0.43617 0.28162-0.94497 0.44473-1.4688 0.40625-0.52378-0.03848-1.0449-0.29137-1.5312-0.71875-0.78023-0.68567-1.1399-1.5946-1.2188-2.5312-0.02938 0.24964-0.03795 0.50353-0.03125 0.75 0.02792 1.0269 0.39884 2.0332 1.25 2.7812 0.48632 0.42738 1.0075 0.68027 1.5312 0.71875 0.52378 0.03848 1.0326-0.12463 1.4688-0.40625 0.87234-0.56324 1.5413-1.595 2.0312-2.75 0.48998-1.155 0.78214-2.4452 0.8125-3.625 0.0057-0.22131-0.01905-0.44272-0.03125-0.65625zm-10.719 0.875c-0.07465 0.79286-0.3101 1.6454-0.625 2.4375-0.43566 1.0959-1.0534 2.1004-1.8438 2.6875-0.39519 0.29355-0.85378 0.48057-1.3438 0.46875-0.48997-0.01182-0.97777-0.2155-1.4062-0.625-0.23008-0.21988-0.31729-0.51007-0.375-0.8125-0.01443-0.07561-0.02147-0.16854-0.03125-0.25-0.005 0.06953-0.02844 0.15108-0.03125 0.21875-0.01561 0.37632 0.0048 0.72882 0.0625 1.0312 0.05771 0.30243 0.14492 0.59262 0.375 0.8125 0.42848 0.4095 0.91628 0.61318 1.4062 0.625 0.48997 0.01182 0.94856-0.1752 1.3438-0.46875 0.79037-0.5871 1.4081-1.5916 1.8438-2.6875 0.43566-1.0959 0.67485-2.29 0.625-3.3125-0.0021-0.04371 0.0032-0.08199 0-0.125zm19.969 5.906c-0.02325 0.17669-0.05009 0.354-0.09375 0.53125-0.25615 1.04-0.82585 2.1326-1.5938 3.0625-0.7679 0.9299-1.7357 1.7189-2.7812 2.0625-1.0455 0.34355-2.215 0.19518-3.1562-0.6875-0.52852-0.49565-0.83024-1.0838-0.9375-1.6875-0.01039 0.06144-0.02437 0.12562-0.03125 0.1875-0.09679 0.87012 0.20388 1.7827 0.96875 2.5 0.94121 0.88268 2.1107 1.0311 3.1562 0.6875 1.0455-0.34355 2.0133-1.1326 2.7812-2.0625s1.3376-2.0225 1.5938-3.0625c0.12807-0.52 0.16853-1.0504 0.09375-1.5312zm-27.031 7c-0.09688 1.1229 0.13499 2.3045 0.625 3.4375 0.83992 1.9421 2.3984 3.7917 4.2188 5.3125s3.903 2.6999 5.9375 3.1562 4.0488 0.17037 5.4688-1.25c0.68198-0.6822 0.83201-1.4298 0.71875-2.25-0.004-0.02871-0.02692-0.0647-0.03125-0.09375-0.07869 0.47289-0.26633 0.92245-0.6875 1.3438-1.4199 1.4204-3.4342 1.7063-5.4688 1.25-2.0345-0.4563-4.1171-1.6354-5.9375-3.1562s-3.3788-3.3704-4.2188-5.3125c-0.34686-0.80204-0.55864-1.6259-0.625-2.4375zm16.375 2.4375c-0.0044 0.26984 0.02288 0.54779 0.03125 0.84375 0.0058-0.293-0.03122-0.57504-0.03125-0.84375zm10.719 1.1875c-0.07115 0.38055-0.22075 0.75027-0.40625 1.0938-0.42329 0.78378-1.0866 1.4829-1.8125 2.0312-0.72585 0.54834-1.5137 0.95862-2.2188 1.1875-0.35251 0.11444-0.68792 0.18321-1 0.1875-0.31208 0.0043-0.62445-0.05363-0.875-0.28125-0.45315-0.41168-0.68726-0.91254-0.78125-1.4375-0.0059 0.03245-0.02625 0.0611-0.03125 0.09375-0.12441 0.81296 0.10114 1.6975 0.8125 2.3438 0.25055 0.22762 0.56292 0.28554 0.875 0.28125 0.31208-0.0043 0.64749-0.07306 1-0.1875 0.70502-0.22888 1.4929-0.63916 2.2188-1.1875 0.72585-0.54834 1.3892-1.2475 1.8125-2.0312 0.34595-0.64057 0.52858-1.3591 0.40625-2.0938z"/>
  </g>
  <g id="g4166" transform="matrix(.68849 .18448 -.18448 .68849 53.954 -2.9189)">
   <path id="path4168" style="fill:url(#linearGradient4180-6);fill-rule:evenodd" d="m37.688 21.781c-0.8065 0.03022-1.5657 0.50227-2.2812 1.1562-0.71556 0.65398-1.3709 1.5064-1.8438 2.4688-0.47282 0.96233-0.77792 2.0356-0.75 3.0625s0.39884 2.0332 1.25 2.7812c0.48632 0.42738 1.0075 0.68027 1.5312 0.71875 0.52378 0.03848 1.0326-0.12463 1.4688-0.40625 0.87234-0.56324 1.5413-1.595 2.0312-2.75 0.48998-1.155 0.78214-2.4452 0.8125-3.625 0.03-1.179-0.164-2.284-0.907-2.937-0.366-0.321-0.852-0.486-1.312-0.469zm-10.656 1.5c-0.80288 0.0863-1.4393 0.62617-1.9375 1.3125-0.49822 0.68633-0.85685 1.5632-1.125 2.4375-0.26815 0.87432-0.43753 1.7474-0.46875 2.5-0.01561 0.37632 0.0048 0.72882 0.0625 1.0312 0.05771 0.30243 0.14492 0.59262 0.375 0.8125 0.42848 0.4095 0.91628 0.61318 1.4062 0.625 0.48997 0.01182 0.94856-0.1752 1.3438-0.46875 0.79037-0.5871 1.4081-1.5916 1.8438-2.6875 0.43566-1.0959 0.67485-2.29 0.625-3.3125-0.02493-0.51123-0.11831-0.97526-0.34375-1.375s-0.61272-0.70964-1.0938-0.8125c-0.22338-0.04777-0.4644-0.08648-0.6875-0.0625zm19.406 6.219c-1.6557 0.18644-3.5315 1.3648-4.75 2.8438-0.60926 0.73945-1.0595 1.5674-1.1562 2.4375-0.09679 0.87012 0.20388 1.7827 0.96875 2.5 0.94121 0.88268 2.1107 1.0311 3.1562 0.6875 1.0455-0.34355 2.0133-1.1326 2.7812-2.0625s1.3376-2.0225 1.5938-3.0625c0.255-1.04 0.188-2.106-0.532-2.782-0.538-0.504-1.299-0.648-2.062-0.562zm-14.344 4.6562c-1.1659-0.07018-2.3135 0.39608-3.9375 0.5625-1.5648 0.16036-2.5501 0.06952-3.3438 0.125-0.79365 0.05548-1.457 0.38003-1.9688 1.1875-1.0788 1.7021-0.96492 3.7766-0.125 5.7188 0.83992 1.9421 2.3984 3.7917 4.2188 5.3125s3.903 2.6999 5.9375 3.1562 4.0488 0.17037 5.4688-1.25c0.68198-0.6822 0.83201-1.4298 0.71875-2.25-0.11326-0.82018-0.38022-1.7731-0.53125-3.3125-0.16237-1.6549 0.0982-2.8773-0.15625-4-0.127-0.561-0.412-1.094-0.937-1.531-0.491-0.408-1.212-0.744-2.157-1.063-0.498-0.892-0.964-1.547-1.469-1.968-0.537-0.449-1.134-0.653-1.718-0.688zm15.406 6.063c-0.72449-0.05585-1.4987 0.20346-2.25 0.625-0.75126 0.42154-1.4822 1.0354-2.0625 1.7188-0.58035 0.68339-1.0006 1.437-1.125 2.25-0.12441 0.81296 0.10114 1.6975 0.8125 2.3438 0.25055 0.22762 0.56292 0.28554 0.875 0.28125 0.31208-0.0043 0.64749-0.07306 1-0.1875 0.70502-0.22888 1.4929-0.63916 2.2188-1.1875 0.72585-0.54834 1.3892-1.2475 1.8125-2.0312 0.42329-0.78378 0.60992-1.6942 0.28125-2.5938-0.258-0.706-0.879-1.167-1.563-1.219z"/>
   <path id="path4170" style="opacity:.05;fill-rule:evenodd" d="m32.094 34.156c-1.1659-0.07018-2.3135 0.39608-3.9375 0.5625-1.5648 0.16036-2.5501 0.06952-3.3438 0.125-0.79365 0.05548-1.457 0.38003-1.9688 1.1875-1.0788 1.7021-0.96492 3.7766-0.125 5.7188 0.83992 1.9421 2.3984 3.7917 4.2188 5.3125s3.903 2.6999 5.9375 3.1562 4.0488 0.17037 5.4688-1.25c0.68198-0.6822 0.83201-1.4298 0.71875-2.25-0.11326-0.82018-0.38022-1.7731-0.53125-3.3125-0.16237-1.6549 0.0982-2.8773-0.15625-4-0.127-0.561-0.412-1.094-0.937-1.531-0.491-0.408-1.212-0.744-2.157-1.063-0.498-0.892-0.964-1.547-1.469-1.968-0.537-0.449-1.134-0.653-1.718-0.688zm-0.156 2.844c0.04172 0.0025-0.03407-0.0233 0.03125 0.03125 0.05017 0.04189 0.3936 0.43746 0.8125 1.1875a2.8568 2.8568 0 0 0 1.5938 1.3125c0.76262 0.25748 1.1721 0.46682 1.2188 0.5 0.000433 0.000308-0.000367 0.03098 0 0.03125 0.05832 0.29145-0.10922 1.5563 0.09375 3.625 0.16545 1.6864 0.41565 2.7712 0.5 3.3125-0.59206 0.52356-1.3727 0.73239-2.6875 0.4375-1.4153-0.31743-3.1635-1.2632-4.7188-2.5625-1.5615-1.3045-2.8463-2.883-3.4375-4.25-0.55541-1.2843-0.53112-2.2126-0.125-2.9375 0.48299-0.01552 1.5382 0.04722 3.2188-0.125 2.0264-0.20767 3.2037-0.58033 3.5-0.5625z"/>
   <path id="path4172" style="opacity:0.08;fill-rule:evenodd" d="m37.688 21.781c-0.8065 0.03022-1.5657 0.50227-2.2812 1.1562-0.71556 0.65398-1.3709 1.5064-1.8438 2.4688-0.47282 0.96233-0.77792 2.0356-0.75 3.0625s0.39884 2.0332 1.25 2.7812c0.48632 0.42738 1.0075 0.68027 1.5312 0.71875 0.52378 0.03848 1.0326-0.12463 1.4688-0.40625 0.87234-0.56324 1.5413-1.595 2.0312-2.75 0.48998-1.155 0.78214-2.4452 0.8125-3.625 0.03-1.179-0.164-2.284-0.907-2.937-0.366-0.321-0.852-0.486-1.312-0.469zm-10.656 1.5c-0.80288 0.0863-1.4393 0.62617-1.9375 1.3125-0.49822 0.68633-0.85685 1.5632-1.125 2.4375-0.26815 0.87432-0.43753 1.7474-0.46875 2.5-0.01561 0.37632 0.0048 0.72882 0.0625 1.0312 0.05771 0.30243 0.14492 0.59262 0.375 0.8125 0.42848 0.4095 0.91628 0.61318 1.4062 0.625 0.48997 0.01182 0.94856-0.1752 1.3438-0.46875 0.79037-0.5871 1.4081-1.5916 1.8438-2.6875 0.43566-1.0959 0.67485-2.29 0.625-3.3125-0.02493-0.51123-0.11831-0.97526-0.34375-1.375s-0.61272-0.70964-1.0938-0.8125c-0.22338-0.04777-0.4644-0.08648-0.6875-0.0625zm10.687 0.469c0.05806 0.0619 0.27358 0.45878 0.25 1.375-0.02305 0.89558-0.26107 2.006-0.65625 2.9375-0.4041 0.95252-0.96872 1.653-1.3125 1.875-0.14469 0.09342-0.21843 0.09607-0.25 0.09375 0.0031 0.000227-0.15164-0.02625-0.40625-0.25-0.41196-0.36203-0.57761-0.78134-0.59375-1.375-0.01646-0.60534 0.19602-1.4104 0.5625-2.1562 0.35964-0.73196 0.87538-1.3898 1.4062-1.875 0.53441-0.48841 0.88823-0.61209 1-0.625zm-10.562 1.5625c0.02355 0.08059 0.05235 0.10424 0.0625 0.3125 0.03153 0.64673-0.15322 1.6277-0.5 2.5-0.35325 0.88859-0.86012 1.6006-1.1875 1.8438-0.07532 0.05595-0.04375 0.05564-0.0625 0.0625-0.01298-0.11972-0.03893-0.22114-0.03125-0.40625 0.02173-0.52386 0.14594-1.2844 0.375-2.0312 0.2325-0.75809 0.54745-1.4356 0.84375-1.8438 0.26728-0.3682 0.41551-0.40683 0.5-0.4375zm19.843 4.157c-0.18715-0.0093-0.3715 0.0097-0.5625 0.03125-1.6557 0.18644-3.5315 1.3648-4.75 2.8438-0.60926 0.73945-1.0595 1.5674-1.1562 2.4375-0.09679 0.87012 0.20388 1.7827 0.96875 2.5 0.94121 0.88268 2.1107 1.0311 3.1562 0.6875 1.0455-0.34355 2.0133-1.1326 2.7812-2.0625s1.3376-2.0225 1.5938-3.0625c0.256-1.04 0.189-2.106-0.531-2.782-0.403-0.378-0.939-0.565-1.5-0.593zm-0.34375 1.9688c0.3814-0.04295 0.49462 0.02621 0.5 0.03125 0.02004 0.0188 0.16355 0.24222 0 0.90625-0.17167 0.697-0.62636 1.5639-1.2188 2.2812-0.60102 0.72781-1.3302 1.2897-1.875 1.4688-0.47929 0.15749-0.78448 0.15727-1.2188-0.25-0.3501-0.32833-0.40636-0.5931-0.375-0.875 0.03853-0.34636 0.26351-0.85373 0.71875-1.4062 0.91811-1.1143 2.5561-2.0535 3.4688-2.1562zm-14.562 2.7188c-1.1659-0.07018-2.3135 0.39608-3.9375 0.5625-1.5648 0.16036-2.5501 0.06952-3.3438 0.125-0.79365 0.05548-1.457 0.38003-1.9688 1.1875-1.0788 1.7021-0.96492 3.7766-0.125 5.7188 0.83992 1.9421 2.3984 3.7917 4.2188 5.3125s3.903 2.6999 5.9375 3.1562 4.0488 0.17037 5.4688-1.25c0.68198-0.6822 0.83201-1.4298 0.71875-2.25-0.11326-0.82018-0.38022-1.7731-0.53125-3.3125-0.16237-1.6549 0.0982-2.8773-0.15625-4-0.12723-0.56135-0.41232-1.0944-0.9375-1.5312-0.49001-0.40757-1.2116-0.74355-2.1562-1.0625-0.49819-0.89202-0.96414-1.5474-1.4688-1.9688-0.53784-0.44912-1.1346-0.65234-1.7188-0.6875zm-0.125 1.9375c0.21491 0.01294 0.37756 0.06947 0.59375 0.25 0.19526 0.16305 0.58704 0.61087 1.0312 1.4062a1.9447 1.9447 0 0 0 1.0625 0.90625c0.8369 0.28256 1.3589 0.57536 1.5312 0.71875 0.19322 0.16071 0.23378 0.25931 0.28125 0.46875 0.12394 0.54685-0.06619 1.8013 0.125 3.75 0.16516 1.6834 0.44671 2.7941 0.53125 3.4062 0.05953 0.43107 0.12435 0.31306-0.15625 0.59375-0.86209 0.86236-2.0584 1.0771-3.6562 0.71875-1.613-0.36177-3.4851-1.38-5.125-2.75-1.6441-1.3736-3.0169-3.0431-3.6875-4.5938-0.66509-1.5379-0.66325-2.8598 0-3.9062 0.23122-0.36481 0.09492-0.2573 0.4375-0.28125 0.5347-0.03737 1.685 0.05139 3.4062-0.125 1.8979-0.1945 3.051-0.59705 3.625-0.5625zm14.969 4.125c-0.55862 0.06913-1.1241 0.30884-1.6875 0.625-0.75126 0.42154-1.4822 1.0354-2.0625 1.7188-0.58035 0.68339-1.0006 1.437-1.125 2.25-0.12441 0.81296 0.10114 1.6975 0.8125 2.3438 0.25055 0.22762 0.56292 0.28554 0.875 0.28125 0.31208-0.0043 0.64749-0.07306 1-0.1875 0.70502-0.22888 1.4929-0.63916 2.2188-1.1875 0.72585-0.54834 1.3892-1.2475 1.8125-2.0312 0.42329-0.78378 0.60992-1.6942 0.28125-2.5938-0.25779-0.70555-0.8788-1.166-1.5625-1.2188-0.18112-0.01396-0.3763-0.02304-0.5625 0zm0.28125 1.9688c0.06863 0.25442 0.05855 0.50852-0.15625 0.90625-0.2494 0.4618-0.73503 0.99361-1.2812 1.4062-0.55808 0.4216-1.1644 0.75672-1.625 0.90625-0.03081 0.01-0.03442-0.0081-0.0625 0-0.028-0.097-0.114-0.185-0.094-0.313 0.05255-0.34337 0.23268-0.78247 0.65625-1.2812 0.43081-0.5073 1.0131-0.99053 1.5312-1.2812 0.49259-0.2764 0.83789-0.335 1.0312-0.34375z"/>
   <path id="path4174" style="opacity:0.12;fill-rule:evenodd" d="m37.688 21.781c-0.8065 0.03022-1.5657 0.50227-2.2812 1.1562-0.71556 0.65398-1.3709 1.5064-1.8438 2.4688-0.47282 0.96233-0.77792 2.0356-0.75 3.0625s0.39884 2.0332 1.25 2.7812c0.48632 0.42738 1.0075 0.68027 1.5312 0.71875 0.52378 0.03848 1.0326-0.12463 1.4688-0.40625 0.87234-0.56324 1.5413-1.595 2.0312-2.75 0.48998-1.155 0.78214-2.4452 0.8125-3.625 0.03-1.179-0.164-2.284-0.907-2.937-0.366-0.321-0.852-0.486-1.312-0.469zm0.03125 1.1875c0.14409-0.0054 0.37751 0.07985 0.5 0.1875 0.31697 0.27856 0.5265 0.97039 0.5 2-0.02585 1.0044-0.28726 2.1704-0.71875 3.1875-0.43699 1.0301-1.0476 1.8661-1.5938 2.2188-0.25631 0.16549-0.49869 0.23492-0.71875 0.21875-0.19868-0.01459-0.5004-0.13576-0.84375-0.4375-0.58-0.509-0.823-1.146-0.844-1.905-0.02085-0.76677 0.2178-1.6712 0.625-2.5 0.40298-0.82018 0.99215-1.5752 1.5938-2.125 0.61585-0.56284 1.1325-0.82998 1.5-0.84375zm-10.688 0.3125c-0.80288 0.0863-1.4393 0.62617-1.9375 1.3125-0.49822 0.68633-0.85685 1.5632-1.125 2.4375-0.26815 0.87432-0.43753 1.7474-0.46875 2.5-0.01561 0.37632 0.0048 0.72882 0.0625 1.0312 0.05771 0.30243 0.14492 0.59262 0.375 0.8125 0.42848 0.4095 0.91628 0.61318 1.4062 0.625 0.48997 0.01182 0.94856-0.1752 1.3438-0.46875 0.79037-0.5871 1.4081-1.5916 1.8438-2.6875 0.43566-1.0959 0.67485-2.29 0.625-3.3125-0.02493-0.51123-0.11831-0.97526-0.34375-1.375s-0.61272-0.70964-1.0938-0.8125c-0.22338-0.04777-0.4644-0.08648-0.6875-0.0625zm0.125 1.1875c-0.0046 0.000499 0.1321 0.02392 0.3125 0.0625 0.12793 0.02736 0.24554 0.10001 0.3125 0.21875 0.09992 0.17718 0.16795 0.44283 0.1875 0.84375 0.03855 0.79062-0.18168 1.8546-0.5625 2.8125-0.38481 0.96797-0.93281 1.7814-1.4375 2.1562-0.23433 0.17406-0.42687 0.25403-0.59375 0.25-0.17694-0.0043-0.35042-0.07995-0.59375-0.3125 0.04164 0.03979 0.01123 0.06638-0.03125-0.15625-0.03529-0.18494-0.07503-0.44792-0.0625-0.75 0.02536-0.61147 0.19347-1.4231 0.4375-2.2188 0.24615-0.8026 0.56387-1.5478 0.9375-2.0625 0.38858-0.53531 0.75254-0.80707 1.0938-0.84375zm19.844 5c-0.18715-0.0093-0.3715 0.0097-0.5625 0.03125-1.6557 0.18644-3.5315 1.3648-4.75 2.8438-0.60926 0.73945-1.0595 1.5674-1.1562 2.4375-0.09679 0.87012 0.20388 1.7827 0.96875 2.5 0.94121 0.88268 2.1107 1.0311 3.1562 0.6875 1.0455-0.34355 2.0133-1.1326 2.7812-2.0625s1.3376-2.0225 1.5938-3.0625c0.256-1.039 0.189-2.105-0.531-2.781-0.403-0.378-0.939-0.565-1.5-0.593zm-0.4375 1.2188c0.52792-0.05945 0.91571 0.05373 1.125 0.25 0.28824 0.27032 0.38651 0.81699 0.1875 1.625-0.20402 0.82835-0.7154 1.795-1.375 2.5938-0.66493 0.8052-1.4822 1.4455-2.2188 1.6875-0.69614 0.22874-1.3403 0.15183-1.9688-0.4375-0.50894-0.47729-0.65017-0.99284-0.59375-1.5 0.06084-0.54694 0.39203-1.1884 0.90625-1.8125 1.0332-1.2539 2.7403-2.2714 3.9375-2.4062zm-14.469 3.4688c-1.1659-0.07018-2.3135 0.39608-3.9375 0.5625-1.5648 0.16036-2.5501 0.06952-3.3438 0.125-0.79365 0.05548-1.457 0.38003-1.9688 1.1875-1.0788 1.7021-0.96492 3.7766-0.125 5.7188 0.83992 1.9421 2.3984 3.7917 4.2188 5.3125s3.903 2.6999 5.9375 3.1562 4.0488 0.17037 5.4688-1.25c0.68198-0.6822 0.83201-1.4298 0.71875-2.25-0.11326-0.82018-0.38022-1.7731-0.53125-3.3125-0.16237-1.6549 0.0982-2.8773-0.15625-4-0.12723-0.56135-0.41232-1.0944-0.9375-1.5312-0.49001-0.40757-1.2116-0.74355-2.1562-1.0625-0.49819-0.89202-0.96414-1.5474-1.4688-1.9688-0.53784-0.44912-1.1346-0.65234-1.7188-0.6875zm-0.0625 1.1875c0.35632 0.02145 0.66063 0.12286 1 0.40625 0.31373 0.26198 0.72262 0.82386 1.1875 1.6562a1.1999 1.1999 0 0 0 0.6875 0.53125c0.87817 0.2965 1.456 0.63044 1.75 0.875 0.32035 0.26645 0.48449 0.49954 0.5625 0.84375 0.17392 0.76737-0.05515 2.0388 0.125 3.875 0.15975 1.6283 0.43571 2.6519 0.53125 3.3438 0.0801 0.58008 0.05931 0.81555-0.375 1.25-1.0757 1.0761-2.6099 1.3334-4.375 0.9375-1.7744-0.39797-3.6972-1.4785-5.4062-2.9062-1.7116-1.43-3.1708-3.1744-3.9062-4.875-0.73204-1.6927-0.79115-3.2962 0.03125-4.5938 0.33867-0.53433 0.54718-0.62023 1.0625-0.65625 0.63387-0.04431 1.7137 0.04525 3.375-0.125 1.793-0.18374 2.9493-0.61069 3.75-0.5625zm14.906 4.875c-0.55862 0.06913-1.1241 0.30884-1.6875 0.625-0.75126 0.42154-1.4822 1.0354-2.0625 1.7188-0.58035 0.68339-1.0006 1.437-1.125 2.25-0.12441 0.81296 0.10114 1.6975 0.8125 2.3438 0.25055 0.22762 0.56292 0.28554 0.875 0.28125 0.31208-0.0043 0.64749-0.07306 1-0.1875 0.70502-0.22888 1.4929-0.63916 2.2188-1.1875 0.72585-0.54834 1.3892-1.2475 1.8125-2.0312 0.42329-0.78378 0.60992-1.6942 0.28125-2.5938-0.25779-0.70555-0.8788-1.166-1.5625-1.2188-0.18112-0.01396-0.3763-0.02304-0.5625 0zm0.15625 1.1875c0.11505-0.01508 0.21865-0.0072 0.3125 0 0.20524 0.01582 0.42886 0.15728 0.53125 0.4375 0.18886 0.51689 0.09 1.0533-0.21875 1.625-0.316 0.58511-0.85374 1.1604-1.4688 1.625-0.62233 0.47014-1.3208 0.82008-1.875 1-0.27418 0.08901-0.50857 0.15422-0.65625 0.15625-0.05089 0.0007-0.05322-0.000407-0.0625 0-0.371-0.359-0.474-0.794-0.404-1.25 0.08007-0.5232 0.36014-1.0868 0.84375-1.6562 0.48808-0.57474 1.1426-1.1279 1.75-1.4688 0.4707-0.26411 0.90485-0.42352 1.25-0.46875z"/>
   <path id="path4176" style="opacity:.3;fill-rule:evenodd" d="m37.688 21.781c-0.8065 0.03022-1.5657 0.50227-2.2812 1.1562-0.71556 0.65398-1.3709 1.5064-1.8438 2.4688-0.47282 0.96233-0.77792 2.0356-0.75 3.0625 0.002 0.07504 0.02549 0.14402 0.03125 0.21875 0.09619-0.78019 0.36414-1.5595 0.71875-2.2812 0.47282-0.96233 1.1282-1.8148 1.8438-2.4688 0.71556-0.65398 1.4748-1.126 2.2812-1.1562 0.46073-0.01726 0.9467 0.14729 1.3125 0.46875 0.60384 0.53066 0.82216 1.3564 0.875 2.2812 0.0076-0.11383 0.02837-0.2317 0.03125-0.34375 0.03-1.179-0.164-2.284-0.907-2.937-0.366-0.321-0.852-0.486-1.312-0.469zm-10.656 1.5c-0.80288 0.0863-1.4393 0.62617-1.9375 1.3125-0.49822 0.68633-0.85685 1.5632-1.125 2.4375-0.26815 0.87432-0.43753 1.7474-0.46875 2.5-0.01171 0.28224 0.0019 0.53688 0.03125 0.78125 0.05073-0.70379 0.19346-1.4855 0.4375-2.2812 0.26815-0.87432 0.62678-1.7512 1.125-2.4375 0.49822-0.68633 1.1346-1.2262 1.9375-1.3125 0.2231-0.02398 0.46412 0.01473 0.6875 0.0625 0.48103 0.10286 0.86831 0.41276 1.0938 0.8125 0.20617 0.36556 0.30982 0.78998 0.34375 1.25 0.02863-0.30404 0.01382-0.59159 0-0.875-0.02493-0.51123-0.11831-0.97526-0.34375-1.375s-0.61272-0.70964-1.0938-0.8125c-0.22338-0.04777-0.4644-0.08648-0.6875-0.0625zm19.968 6.188c-0.18715-0.0093-0.3715 0.0097-0.5625 0.03125-1.6557 0.18644-3.5315 1.3648-4.75 2.8438-0.60926 0.73945-1.0595 1.5674-1.1562 2.4375-0.02991 0.26888-0.01672 0.54253 0.03125 0.8125 0.13569-0.80245 0.55907-1.5631 1.125-2.25 1.2185-1.4789 3.0943-2.6573 4.75-2.8438 0.764-0.08603 1.5247 0.05811 2.0625 0.5625 0.35227 0.33036 0.54659 0.75045 0.625 1.2188 0.106-0.85-0.034-1.666-0.625-2.22-0.403-0.378-0.939-0.565-1.5-0.593zm-14.906 4.6875c-1.1659-0.07018-2.3135 0.39608-3.9375 0.5625-1.5648 0.16036-2.5501 0.06952-3.3438 0.125-0.79365 0.05548-1.457 0.38003-1.9688 1.1875-0.63331 0.99919-0.84432 2.1275-0.75 3.2812 0.06918-0.80186 0.30056-1.5722 0.75-2.2812 0.51179-0.80747 1.1751-1.132 1.9688-1.1875 0.79365-0.05548 1.779 0.03536 3.3438-0.125 1.624-0.16642 2.7716-0.63268 3.9375-0.5625 0.58415 0.03516 1.1809 0.23838 1.7188 0.6875 0.50461 0.42137 0.97056 1.0767 1.4688 1.9688 0.94468 0.31895 1.6662 0.65493 2.1562 1.0625 0.52518 0.43682 0.81027 0.9699 0.9375 1.5312 0.09538 0.42085 0.0937 0.87734 0.09375 1.3438 0.01407-0.86771 0.06627-1.6377-0.09375-2.3438-0.12723-0.56135-0.41232-1.0944-0.9375-1.5312-0.49001-0.40757-1.2116-0.74355-2.1562-1.0625-0.49819-0.89202-0.96414-1.5474-1.4688-1.9688-0.53784-0.44912-1.1346-0.65234-1.7188-0.6875zm14.844 6.0625c-0.55862 0.06913-1.1241 0.30884-1.6875 0.625-0.75126 0.42154-1.4822 1.0354-2.0625 1.7188-0.58035 0.68339-1.0006 1.437-1.125 2.25-0.04516 0.29509-0.02231 0.60712 0.03125 0.90625 0.14201-0.77573 0.5367-1.5003 1.0938-2.1562 0.58035-0.68339 1.3112-1.2972 2.0625-1.7188 0.75126-0.42154 1.5255-0.68085 2.25-0.625 0.6837 0.05271 1.3047 0.5132 1.5625 1.2188 0.06005 0.16435 0.09765 0.33576 0.125 0.5 0.0912-0.48782 0.05964-0.99468-0.125-1.5-0.25779-0.70555-0.8788-1.166-1.5625-1.2188-0.18112-0.01396-0.3763-0.02304-0.5625 0zm-8.4375 2.375c-0.01093 0.55512-0.03519 1.1354 0.03125 1.8125 0.14575 1.4856 0.38064 2.4178 0.5 3.2188 0.04873-0.29284 0.07456-0.59259 0.03125-0.90625-0.11326-0.82018-0.38022-1.7731-0.53125-3.3125-0.0285-0.29048-0.02374-0.54687-0.03125-0.8125z"/>
   <path id="path4178" style="opacity:.2;fill:#fff;fill-rule:evenodd" d="m39.875 25.531c-0.07196 1.0847-0.3378 2.236-0.78125 3.2812-0.48998 1.155-1.1589 2.1868-2.0312 2.75-0.43617 0.28162-0.94497 0.44473-1.4688 0.40625-0.52378-0.03848-1.0449-0.29137-1.5312-0.71875-0.78023-0.68567-1.1399-1.5946-1.2188-2.5312-0.02938 0.24964-0.03795 0.50353-0.03125 0.75 0.02792 1.0269 0.39884 2.0332 1.25 2.7812 0.48632 0.42738 1.0075 0.68027 1.5312 0.71875 0.52378 0.03848 1.0326-0.12463 1.4688-0.40625 0.87234-0.56324 1.5413-1.595 2.0312-2.75 0.48998-1.155 0.78214-2.4452 0.8125-3.625 0.0057-0.22131-0.01905-0.44272-0.03125-0.65625zm-10.719 0.875c-0.07465 0.79286-0.3101 1.6454-0.625 2.4375-0.43566 1.0959-1.0534 2.1004-1.8438 2.6875-0.39519 0.29355-0.85378 0.48057-1.3438 0.46875-0.48997-0.01182-0.97777-0.2155-1.4062-0.625-0.23008-0.21988-0.31729-0.51007-0.375-0.8125-0.01443-0.07561-0.02147-0.16854-0.03125-0.25-0.005 0.06953-0.02844 0.15108-0.03125 0.21875-0.01561 0.37632 0.0048 0.72882 0.0625 1.0312 0.05771 0.30243 0.14492 0.59262 0.375 0.8125 0.42848 0.4095 0.91628 0.61318 1.4062 0.625 0.48997 0.01182 0.94856-0.1752 1.3438-0.46875 0.79037-0.5871 1.4081-1.5916 1.8438-2.6875 0.43566-1.0959 0.67485-2.29 0.625-3.3125-0.0021-0.04371 0.0032-0.08199 0-0.125zm19.969 5.906c-0.02325 0.17669-0.05009 0.354-0.09375 0.53125-0.25615 1.04-0.82585 2.1326-1.5938 3.0625-0.7679 0.9299-1.7357 1.7189-2.7812 2.0625-1.0455 0.34355-2.215 0.19518-3.1562-0.6875-0.52852-0.49565-0.83024-1.0838-0.9375-1.6875-0.01039 0.06144-0.02437 0.12562-0.03125 0.1875-0.09679 0.87012 0.20388 1.7827 0.96875 2.5 0.94121 0.88268 2.1107 1.0311 3.1562 0.6875 1.0455-0.34355 2.0133-1.1326 2.7812-2.0625s1.3376-2.0225 1.5938-3.0625c0.12807-0.52 0.16853-1.0504 0.09375-1.5312zm-27.031 7c-0.09688 1.1229 0.13499 2.3045 0.625 3.4375 0.83992 1.9421 2.3984 3.7917 4.2188 5.3125s3.903 2.6999 5.9375 3.1562 4.0488 0.17037 5.4688-1.25c0.68198-0.6822 0.83201-1.4298 0.71875-2.25-0.004-0.02871-0.02692-0.0647-0.03125-0.09375-0.07869 0.47289-0.26633 0.92245-0.6875 1.3438-1.4199 1.4204-3.4342 1.7063-5.4688 1.25-2.0345-0.4563-4.1171-1.6354-5.9375-3.1562s-3.3788-3.3704-4.2188-5.3125c-0.34686-0.80204-0.55864-1.6259-0.625-2.4375zm16.375 2.4375c-0.0044 0.26984 0.02288 0.54779 0.03125 0.84375 0.0058-0.293-0.03122-0.57504-0.03125-0.84375zm10.719 1.1875c-0.07115 0.38055-0.22075 0.75027-0.40625 1.0938-0.42329 0.78378-1.0866 1.4829-1.8125 2.0312-0.72585 0.54834-1.5137 0.95862-2.2188 1.1875-0.35251 0.11444-0.68792 0.18321-1 0.1875-0.31208 0.0043-0.62445-0.05363-0.875-0.28125-0.45315-0.41168-0.68726-0.91254-0.78125-1.4375-0.0059 0.03245-0.02625 0.0611-0.03125 0.09375-0.12441 0.81296 0.10114 1.6975 0.8125 2.3438 0.25055 0.22762 0.56292 0.28554 0.875 0.28125 0.31208-0.0043 0.64749-0.07306 1-0.1875 0.70502-0.22888 1.4929-0.63916 2.2188-1.1875 0.72585-0.54834 1.3892-1.2475 1.8125-2.0312 0.34595-0.64057 0.52858-1.3591 0.40625-2.0938z"/>
  </g>
  <path id="path3188" style="opacity:.6;fill:url(#linearGradient4207)" d="m50.012 46.471c-2.6476 3.0982-6.0171 5.2393-9.6322 6.3918 1.8279 0.34134 3.7679 1.1565 5.2624 2.9203-0.52614 0.67745-0.71291 1.592-0.20015 2.3237l19.454 27.742c0.62896 0.89738 1.913 1.1163 2.8143 0.49079l4.5217-3.1374c0.90137-0.62567 1.1199-1.9169 0.49079-2.8143l-19.41-27.747c-0.5309-0.75745-1.5208-0.90349-2.3576-0.59645-1.0616-1.8929-1.1895-3.8383-0.94328-5.5746z"/>
  <g id="g3204" transform="matrix(.52466 0 0 .52466 -13.243 22.786)">
   <path id="path3310" style="fill-rule:evenodd;stroke:#404141;stroke-width:1.906px;fill:url(#radialGradient3217-7)" d="m101.04 56.585s14.868-7.1322 24.665 2.6645l5.844-5.6718c-9.8966-9.8961-2.7505-24.75-2.7505-24.75-2.1751 6.4212-2.9688 10.531-10.055 17.617-7.1292 7.1288-17.704 10.14-17.704 10.14z"/>
   <path id="path2420" style="stroke:url(#linearGradient3221-1);stroke-width:3.8462;fill:url(#linearGradient3219-7)" d="m74.25 37.75a36.25 36.25 0 1 1 -72.5 0 36.25 36.25 0 1 1 72.5 0z" transform="matrix(.99114 0 0 .99108 55.641 -16.41)"/>
   <path id="path3261" style="opacity:.4;filter:url(#filter3274-9);fill:#b0cedd" transform="matrix(.99802 0 0 .99797 55.503 -16.793)" d="m56.375 13.757c5.1373 5.4535 8.3125 12.862 8.3125 21.031-0.000002 16.735-13.28 30.344-29.625 30.344-6.3178 0-12.159-2.0437-16.969-5.5 5.3809 5.6651 12.897 9.1875 21.219 9.1875 16.345 0 29.625-13.577 29.625-30.312 0-10.231-4.974-19.259-12.562-24.75z"/>
   <g id="g3184" style="opacity:.69262" transform="matrix(.96593 -.25882 .25882 .96593 -2.475 25.129)">
    <path id="path3262" style="stroke:url(#linearGradient3225-7);stroke-width:1.9098;fill:url(#linearGradient3223-9)" d="m38.25 3.4688c-16.615 0-30.388 11.786-33.688 27.406a0.44507 0.44507 0 0 0 0.21875 0.5c8.1907 4.3501 19.485 7.1562 32.094 7.1562 13.928 0 26.283-3.443 34.562-8.5938a0.44507 0.44507 0 0 0 0.1875 -0.5c-3.818-14.9-17.268-25.968-33.374-25.968z" transform="matrix(.99802 0 0 .99797 54.75 -17.441)"/>
    <path id="path3278" style="opacity:.6;fill:url(#radialGradient3227-7)" d="m38.714 22.818a7.357 5.3033 0 1 1 -14.714 0 7.357 5.3033 0 1 1 14.714 0z" transform="matrix(1.433 0 0 1.4329 36.223 -31.24)"/>
   </g>
   <path id="path3423" style="opacity:.6;fill:url(#linearGradient3229-1);fill-rule:evenodd" d="m122.72 43.55c-9.3346 9.4619 0.48615 13.368 0.48615 13.368-4.2538-3.2814-15.314-3.0383-15.314-3.0383s3.6461-0.97226 14.828-10.33z"/>
   <rect id="rect3361" style="stroke:#000;stroke-width:1.906;fill:url(#linearGradient3231-7)" transform="matrix(.70713 -.70709 .70713 .70709 0 0)" rx="1.9446" ry="1.9446" height="69.032" width="14.584" y="130.9" x="43.826"/>
   <path id="path3413" style="fill:url(#linearGradient3233-6);fill-rule:evenodd" d="m127.25 56.327-5.3812-5.2594s-1.3996-3.8332 2.4592-7.631c0.3507 6.974 5.092 10.763 5.092 10.763l-2.17 2.1269z"/>
   <path id="path3433" style="opacity:.4;fill-rule:evenodd;filter:url(#filter3439-3);fill:#fff" transform="matrix(.68752 -.68749 .68752 .68749 23.861 39.569)" d="m62.358 89.065 8.1759 0.04419s-2.9027 0.51644-3.403 4.552c-0.35355-4.0659-4.773-4.5962-4.773-4.5962z"/>
   <path id="path3443" style="opacity:.4;fill-rule:evenodd;filter:url(#filter3439-3);fill:#fff" transform="matrix(.68752 -.68749 -.68752 -.68749 194.53 210.23)" d="m62.358 89.065 8.1759 0.04419s-2.9027 0.51644-3.403 4.552c-0.35355-4.0659-4.773-4.5962-4.773-4.5962z"/>
  </g>
  <path id="path4130" style="opacity:.2;fill:url(#linearGradient4132-4)" d="m45.288 48.929c-3.2708 2.4311-7.0323 3.7684-10.813 4.0873 1.7061 0.73967 3.4159 1.9662 4.4803 4.0184-0.66374 0.54334-1.0494 1.3933-0.71237 2.2208l12.79 31.376c0.41342 1.0149 1.6165 1.5142 2.6344 1.1049l5.1066-2.0522c1.018-0.40932 1.5185-1.6195 1.1049-2.6344l-12.747-31.37c-0.34897-0.85662-1.2815-1.2193-2.1657-1.1063-0.61363-2.0818-0.30523-4.0068 0.32128-5.6447z"/>
 </g>
</svg>
