<?xml version="1.0" encoding="UTF-8" standalone="no"?>
<!-- Created with Inkscape (http://www.inkscape.org/) -->
<svg id="svg2408" xmlns:rdf="http://www.w3.org/1999/02/22-rdf-syntax-ns#" xmlns="http://www.w3.org/2000/svg" height="96" width="96" version="1.0" xmlns:cc="http://creativecommons.org/ns#" xmlns:xlink="http://www.w3.org/1999/xlink" xmlns:dc="http://purl.org/dc/elements/1.1/">
 <defs id="defs2410">
  <linearGradient id="ButtonShadow" y2="7.0165" gradientUnits="userSpaceOnUse" x2="45.448" gradientTransform="scale(1.0059 .99417)" y1="92.54" x1="45.448">
   <stop id="stop3750" offset="0"/>
   <stop id="stop3752" style="stop-opacity:.58824" offset="1"/>
  </linearGradient>
  <linearGradient id="linearGradient3737">
   <stop id="stop3739" style="stop-color:#fff" offset="0"/>
   <stop id="stop3741" style="stop-color:#fff;stop-opacity:0" offset="1"/>
  </linearGradient>
  <filter id="filter3174" color-interpolation-filters="sRGB">
   <feGaussianBlur id="feGaussianBlur3176" stdDeviation="1.71"/>
  </filter>
  <linearGradient id="linearGradient3188" y2="63.893" xlink:href="#linearGradient3737" gradientUnits="userSpaceOnUse" x2="36.357" y1="6" x1="36.357"/>
  <filter id="filter3794" height="1.384" width="1.384" color-interpolation-filters="sRGB" y="-.192" x="-.192">
   <feGaussianBlur id="feGaussianBlur3796" stdDeviation="5.28"/>
  </filter>
  <linearGradient id="linearGradient3613" y2="138.66" xlink:href="#linearGradient3737" gradientUnits="userSpaceOnUse" x2="48" y1="20.221" x1="48"/>
  <radialGradient id="radialGradient3619" xlink:href="#linearGradient3737" gradientUnits="userSpaceOnUse" cy="90.172" cx="48" gradientTransform="matrix(1.1573 0 0 .99591 -7.551 .19713)" r="42"/>
  <clipPath id="clipPath3613">
   <rect id="rect3615" style="fill:#fff" rx="6" ry="6" height="84" width="84" y="6" x="6"/>
  </clipPath>
  <linearGradient id="linearGradient3617" y2="5.9877" gradientUnits="userSpaceOnUse" x2="48" y1="90" x1="48">
   <stop id="stop3678" style="stop-color:#68d003" offset="0"/>
   <stop id="stop3680" style="stop-color:#c0f988" offset="1"/>
  </linearGradient>
  <linearGradient id="ButtonShadow-0" y2="7.0165" gradientUnits="userSpaceOnUse" x2="45.448" gradientTransform="matrix(1.0059 0 0 .99417 100 0)" y1="92.54" x1="45.448">
   <stop id="stop3750-8" offset="0"/>
   <stop id="stop3752-5" style="stop-opacity:.58824" offset="1"/>
  </linearGradient>
  <linearGradient id="linearGradient3780" y2="90.239" xlink:href="#ButtonShadow-0" gradientUnits="userSpaceOnUse" x2="32.251" gradientTransform="matrix(1.0238 0 0 1.0119 -1.1429 -98.071)" y1="6.1317" x1="32.251"/>
  <linearGradient id="linearGradient3721" y2="90.239" xlink:href="#ButtonShadow-0" gradientUnits="userSpaceOnUse" x2="32.251" gradientTransform="translate(0,-97)" y1="6.1317" x1="32.251"/>
  <linearGradient id="linearGradient3709" y2="48" gradientUnits="userSpaceOnUse" x2="83.25" gradientTransform="matrix(0,-1,1,0,0,96)" y1="48" x1="12.75">
   <stop id="stop3705" style="stop-color:#a8e66c" offset="0"/>
   <stop id="stop3707" style="stop-color:#dbfabd" offset="1"/>
  </linearGradient>
  <radialGradient id="radialGradient3773" gradientUnits="userSpaceOnUse" cy="48" cx="48" r="35.25">
   <stop id="stop3769" style="stop-color:#6bd107" offset="0"/>
   <stop id="stop3771" style="stop-color:#6bd107;stop-opacity:0" offset="1"/>
  </radialGradient>
 </defs>
 <metadata id="metadata2413">
  <rdf:RDF>
   <cc:Work rdf:about="">
    <dc:format>image/svg+xml</dc:format>
    <dc:type rdf:resource="http://purl.org/dc/dcmitype/StillImage"/>
    <dc:title/>
   </cc:Work>
  </rdf:RDF>
 </metadata>
 <g id="layer2" style="display:none">
  <rect id="rect3745" style="opacity:.9;filter:url(#filter3174);fill:url(#ButtonShadow)" rx="6" ry="6" height="85" width="86" y="7" x="5"/>
 </g>
 <g id="layer3">
  <path id="path3786" style="opacity:0.08;fill:url(#linearGradient3780)" d="m12-95.031c-5.5111 0-10.031 4.5202-10.031 10.031v71c0 5.5111 4.5202 10.031 10.031 10.031h72c5.5111 0 10.031-4.5202 10.031-10.031v-71c0-5.5111-4.5202-10.031-10.031-10.031h-72z" transform="scale(1,-1)"/>
  <path id="path3778" style="opacity:.1;fill:url(#linearGradient3780)" d="m12-94.031c-4.9716 0-9.0312 4.0596-9.0312 9.0312v71c0 4.9716 4.0596 9.0312 9.0312 9.0312h72c4.9716 0 9.0312-4.0596 9.0312-9.0312v-71c0-4.9716-4.0596-9.0312-9.0312-9.0312h-72z" transform="scale(1,-1)"/>
  <path id="path3770" style="opacity:.2;fill:url(#linearGradient3780)" d="m12-93c-4.4091 0-8 3.5909-8 8v71c0 4.4091 3.5909 8 8 8h72c4.4091 0 8-3.5909 8-8v-71c0-4.4091-3.5909-8-8-8h-72z" transform="scale(1,-1)"/>
  <rect id="rect3723" style="opacity:.3;fill:url(#linearGradient3780)" transform="scale(1,-1)" rx="7" ry="7" height="85" width="86" y="-92" x="5"/>
  <rect id="rect3716" style="opacity:.45;fill:url(#linearGradient3721)" transform="scale(1,-1)" rx="6" ry="6" height="84" width="84" y="-91" x="6"/>
 </g>
 <g id="layer1">
  <rect id="rect2419" style="fill:url(#linearGradient3617)" rx="6" ry="6" height="84" width="84" y="6" x="6"/>
  <path id="rect3728" style="opacity:.5;fill:url(#linearGradient3188)" d="m12 6c-3.324 0-6 2.676-6 6v2 68 2c0 0.33472 0.04135 0.6507 0.09375 0.96875 0.0487 0.2956 0.09704 0.59692 0.1875 0.875 0.00988 0.03038 0.020892 0.0636 0.03125 0.09375 0.098865 0.28777 0.23488 0.54745 0.375 0.8125 0.14459 0.27351 0.31562 0.53562 0.5 0.78125 0.18438 0.24564 0.37378 0.47347 0.59375 0.6875 0.43995 0.42806 0.94291 0.81453 1.5 1.0938 0.27854 0.13961 0.57347 0.24695 0.875 0.34375-0.2562-0.10022-0.48671-0.23627-0.71875-0.375-0.00741-0.0044-0.023866 0.0045-0.03125 0-0.031933-0.0193-0.062293-0.04251-0.09375-0.0625-0.1204-0.0767-0.23102-0.16351-0.34375-0.25-0.10617-0.0808-0.21328-0.16111-0.3125-0.25-0.1778-0.162-0.3473-0.346-0.4999-0.531-0.1075-0.131-0.2183-0.266-0.3124-0.407-0.0251-0.038-0.0385-0.086-0.0626-0.125-0.0647-0.103-0.1302-0.204-0.1874-0.312-0.1011-0.195-0.2057-0.416-0.2813-0.625-0.008-0.022-0.0236-0.041-0.0313-0.063-0.0318-0.092-0.0358-0.187-0.0624-0.281-0.0304-0.107-0.0704-0.203-0.0938-0.313-0.0729-0.341-0.125-0.698-0.125-1.062v-2-68-2c0-2.782 2.2182-5 5-5h2 68 2c2.7818 0 5 2.2182 5 5v2 68 2c0 0.3643-0.05212 0.72099-0.125 1.0625-0.04415 0.20689-0.08838 0.39766-0.15625 0.59375-0.0077 0.02195-0.0233 0.04069-0.03125 0.0625-0.06274 0.17374-0.13838 0.36745-0.21875 0.53125-0.04158 0.0828-0.07904 0.16995-0.125 0.25-0.0546 0.09721-0.12677 0.18835-0.1875 0.28125-0.09411 0.14096-0.20492 0.276-0.3125 0.40625-0.14317 0.17445-0.30314 0.347-0.46875 0.5-0.01117 0.0102-0.01998 0.02115-0.03125 0.03125-0.13839 0.12556-0.28509 0.23444-0.4375 0.34375-0.10257 0.07315-0.20432 0.15336-0.3125 0.21875-0.0074 0.0045-0.02384-0.0044-0.03125 0-0.23204 0.13873-0.46255 0.27478-0.71875 0.375 0.30153-0.0968 0.59646-0.20414 0.875-0.34375 0.55709-0.27922 1.0601-0.66569 1.5-1.0938 0.21997-0.21403 0.40937-0.44186 0.59375-0.6875s0.35541-0.50774 0.5-0.78125c0.14012-0.26505 0.27614-0.52473 0.375-0.8125 0.01041-0.03078 0.02133-0.06274 0.03125-0.09375 0.09046-0.27808 0.1388-0.5794 0.1875-0.875 0.053-0.318 0.094-0.634 0.094-0.969v-2-68-2c0-3.324-2.676-6-6-6h-72z"/>
  <path id="path3615" style="opacity:.3;fill:url(#radialGradient3619)" d="m12 90c-3.324 0-6-2.676-6-6v-2-68-2c0-0.33472 0.04135-0.6507 0.09375-0.96875 0.0487-0.2956 0.09704-0.59692 0.1875-0.875 0.0099-0.03 0.0209-0.063 0.0313-0.094 0.0989-0.2873 0.2349-0.547 0.375-0.812 0.1446-0.2735 0.3156-0.5356 0.5-0.7812 0.1844-0.2457 0.3738-0.4735 0.5937-0.6876 0.44-0.428 0.943-0.8145 1.5-1.0937 0.2786-0.1396 0.5735-0.2469 0.8748-0.3437-0.256 0.1002-0.4865 0.2362-0.7185 0.375-0.00741 0.0044-0.023866-0.0045-0.03125 0-0.031933 0.0193-0.062293 0.04251-0.09375 0.0625-0.1204 0.0767-0.23102 0.16351-0.34375 0.25-0.10617 0.0808-0.21328 0.16111-0.3125 0.25-0.1779 0.1614-0.3474 0.3453-0.5 0.5312-0.1075 0.1303-0.2183 0.2653-0.3124 0.4063-0.0251 0.0383-0.0385 0.0858-0.0626 0.125-0.0647 0.103-0.1302 0.2045-0.1874 0.3124-0.1011 0.1948-0.2057 0.4158-0.2813 0.625-0.008 0.0219-0.0236 0.0406-0.0313 0.0626-0.0318 0.0919-0.0358 0.1868-0.0624 0.2812-0.0304 0.1066-0.0704 0.203-0.0938 0.3125-0.0729 0.3415-0.125 0.6985-0.125 1.0625v2 68 2c0 2.7818 2.2182 5 5 5h2 68 2c2.7818 0 5-2.2182 5-5v-2-68-2c0-0.364-0.052-0.721-0.125-1.0625-0.044-0.2069-0.088-0.3977-0.156-0.5937-0.008-0.022-0.024-0.0407-0.031-0.0626-0.063-0.1737-0.139-0.3674-0.219-0.5312-0.042-0.0828-0.079-0.17-0.125-0.25-0.055-0.0972-0.127-0.1884-0.188-0.2812-0.094-0.141-0.205-0.276-0.312-0.4063-0.143-0.1745-0.303-0.347-0.469-0.5-0.011-0.0102-0.02-0.0211-0.031-0.0313-0.139-0.1255-0.285-0.2344-0.438-0.3437-0.102-0.0731-0.204-0.1534-0.312-0.2187-0.0074-0.0045-0.02384 0.0044-0.03125 0-0.23204-0.13873-0.46255-0.27478-0.71875-0.375 0.30153 0.0968 0.59646 0.20414 0.875 0.34375 0.55709 0.27922 1.0601 0.66569 1.5 1.0938 0.21997 0.21403 0.40937 0.44186 0.59375 0.6875s0.35541 0.50774 0.5 0.78125c0.14012 0.26505 0.27614 0.52473 0.375 0.8125 0.01041 0.03078 0.02133 0.06274 0.03125 0.09375 0.09046 0.27808 0.1388 0.5794 0.1875 0.875 0.053 0.318 0.094 0.634 0.094 0.969v2 68 2c0 3.324-2.676 6-6 6h-72z"/>
 </g>
 <g id="layer5">
  <rect id="rect3171" style="opacity:.1;filter:url(#filter3794);stroke:#fff;stroke-linecap:round;stroke-width:.5;fill:url(#linearGradient3613)" clip-path="url(#clipPath3613)" rx="12" ry="12" height="66" width="66" y="15" x="15"/>
 </g>
 <g id="layer4">
  <path id="path3752" style="opacity:.05;color:#000000" d="m40.406 10.969c-5.0546 1.0831-9.9699 3.0449-14.188 6.0625-0.97144 3.4827-1.3641 8.3414-5.917 9.1425-4.8076-0.43599-6.4181 4.3489-8.0796 7.9759-1.0939 3.6363-4.0825 7.8675-0.29977 10.744 2.3971 3.0036 1.2887 7.5009-1.4536 9.8874-1.164 4.4043 1.8884 8.9103 3.6032 12.889 1.1549 5.3854 7.613 2.6138 10.027 6.6959 1.8301 3.3626 1.09 7.9672 5.9371 8.9289 3.8727 1.4861 8.5502 4.9376 12.63 2.873 2.81-3.5083 8.3933-2.9233 11.115 0.36342 3.1265 1.1504 6.4009-0.94166 9.3863-1.8832 2.6549-1.5564 6.9643-2.358 7.3675-5.9257-0.37636-4.2523 3.7088-7.3956 7.6916-7.2978 4.168-1.6111 5.083-7.355 6.889-11.134 3.0108-4.5004-2.3844-7.0621-2.3575-11.286-0.37888-3.9241 5.0282-6.0669 2.6721-10.062-1.172-4.199-2.974-8.289-5.553-11.817-3.717-0.727-8.572-1.654-9.202-6.31 0.464-4.924-5.096-6.17-8.615-7.928-3.327-1.306-5.596-1.786-7.704-1.707-2.665 2.78-7.1 4.296-10.477 1.714-1.16-0.708-1.904-2.143-3.471-1.925zm7.594 32.812c5.3537-0.41198 7.2693 8.0625 2.2237 10.005-4.409 2.161-9.483-3.245-6.752-7.413 0.913-1.577 2.681-2.673 4.528-2.592z"/>
  <path id="path3748" style="opacity:.1;color:#000000" d="m40.594 11.938c-0.0024 0.000042-0.09134 0.03107-0.09375 0.03125a0.83026 0.83026 0 0 0 -0.09375 0c-0.0028 0.000506-0.09097 0.03056-0.09375 0.03125-0.000653 0.000163-0.0215-0.0028-0.03125 0-0.03168 0.009-0.09167 0.03058-0.09375 0.03125-4.6622 0.98463-9.0294 2.854-12.875 5.375-0.0076 0.005-0.02361-0.005-0.03125 0-0.02595 0.01793-0.06079 0.06123-0.0625 0.0625-0.0022 0.0016-0.09164 0.06072-0.09375 0.0625-0.0021 0.0018-0.09176 0.09183-0.09375 0.09375-0.002 0.0019-0.09189 0.06046-0.09375 0.0625-0.0019 0.002-0.06078 0.09159-0.0625 0.09375-0.0017 0.0022-0.06092 0.09148-0.0625 0.09375-0.0016 0.0023-0.06107 0.09139-0.0625 0.09375-0.0014 0.0024-0.06123 0.0913-0.0625 0.09375-0.0013 0.0024-0.06139 0.12247-0.0625 0.125-0.0011 0.0025-0.03031 0.09116-0.03125 0.09375-0.000943 0.0026-0.03048 0.12235-0.03125 0.125-0.000772 0.0026-0.03065 0.09106-0.03125 0.09375-0.000599 0.0027-0.03083 0.12227-0.03125 0.125-0.000423 0.0027 0.000245 0.12225 0 0.125-0.000245 0.0027-0.03118 0.09099-0.03125 0.09375-0.000066 0.0028-0.000113 0.12224 0 0.125 0.08905 2.2265-0.67966 4.4297-2.375 6.125s-3.8985 2.4641-6.125 2.375c-0.0028-0.000113-0.12224-0.000066-0.125 0-0.0028 0.000066-0.091 0.03101-0.09375 0.03125-0.0027 0.000245-0.12227-0.000423-0.125 0-0.0027 0.000423-0.12231 0.03065-0.125 0.03125-0.0027 0.000599-0.0911 0.03048-0.09375 0.03125-0.0026 0.000772-0.12241 0.03031-0.125 0.03125-0.0026 0.000943-0.09122 0.03014-0.09375 0.03125-0.0025 0.0011-0.12255 0.06123-0.125 0.0625-0.0024 0.0013-0.09139 0.06107-0.09375 0.0625-0.0024 0.0014-0.09148 0.06092-0.09375 0.0625-0.0023 0.0016-0.09159 0.06078-0.09375 0.0625-0.0022 0.0017-0.09171 0.06064-0.09375 0.0625-0.002 0.0019-0.06058 0.09176-0.0625 0.09375-0.0019 0.002-0.09197 0.09164-0.09375 0.09375-0.0018 0.0021-0.06086 0.09153-0.0625 0.09375-0.0013 0.0017-0.04457 0.03655-0.0625 0.0625-0.0054 0.0078 0.000345 0.03072 0 0.03125-2.535 3.867-4.427 8.252-5.408 12.94-0.0021 0.0098 0.0021 0.02141 0 0.03125-0.0059 0.03115-0.03093 0.09167-0.03125 0.09375-0.000419 0.0027 0.000242 0.12226 0 0.125-0.000242 0.0027 0.000063 0.091 0 0.09375-0.000063 0.0028-0.000115 0.12225 0 0.125 0.000115 0.0028-0.000293 0.12226 0 0.125 0.000293 0.0027 0.03078 0.09103 0.03125 0.09375 0.00047 0.0027-0.000645 0.12232 0 0.125 0.000645 0.0027 0.03043 0.12237 0.03125 0.125 0.000817 0.0026 0.03026 0.09118 0.03125 0.09375 0.000985 0.0026 0.06135 0.09125 0.0625 0.09375 0.0012 0.0025 0.06119 0.12258 0.0625 0.125 0.0013 0.0024 0.02979 0.09142 0.03125 0.09375 0.0015 0.0023 0.09214 0.09152 0.09375 0.09375 0.0016 0.0022 0.06075 0.09163 0.0625 0.09375 0.0018 0.0021 0.06061 0.09174 0.0625 0.09375 0.0019 0.002 0.09174 0.06062 0.09375 0.0625a0.83026 0.83026 0 0 0 0 0.03125c1.6462 1.5063 2.6562 3.6189 2.6562 6.0312 0 2.4124-1.0101 4.525-2.6562 6.0312a0.83026 0.83026 0 0 0 0 0.03125c-0.002 0.0019-0.09186 0.06049-0.09375 0.0625-0.0019 0.002-0.06075 0.09163-0.0625 0.09375-0.0018 0.0021-0.06089 0.09152-0.0625 0.09375-0.0016 0.0022-0.09229 0.09142-0.09375 0.09375-0.0015 0.0023-0.02994 0.09133-0.03125 0.09375-0.0013 0.0024-0.06135 0.1225-0.0625 0.125-0.0012 0.0025-0.06151 0.09118-0.0625 0.09375-0.000985 0.0026-0.03043 0.09112-0.03125 0.09375-0.000817 0.0026-0.0306 0.12232-0.03125 0.125-0.000645 0.0027 0.00047 0.12228 0 0.125-0.00047 0.0027-0.03096 0.09101-0.03125 0.09375-0.000293 0.0027 0.000115 0.12225 0 0.125-0.000115 0.0028-0.000063 0.12225 0 0.125 0.000063 0.0028-0.000242 0.09101 0 0.09375 0.000242 0.0027-0.000419 0.12228 0 0.125 0.00032 0.0021 0.02538 0.0626 0.03125 0.09375 0.0021 0.0098-0.0021 0.02141 0 0.03125 0.98086 4.688 2.873 9.0732 5.4062 12.938 0.000345 0.000535-0.0054 0.02346 0 0.03125 0.01793 0.02595 0.06123 0.06079 0.0625 0.0625 0.0016 0.0022 0.06072 0.09164 0.0625 0.09375 0.0018 0.0021 0.09183 0.09176 0.09375 0.09375 0.0019 0.002 0.06046 0.09189 0.0625 0.09375 0.002 0.0019 0.09159 0.06078 0.09375 0.0625 0.0022 0.0017 0.09148 0.06092 0.09375 0.0625 0.0023 0.0016 0.09139 0.06107 0.09375 0.0625 0.0024 0.0014 0.0913 0.06123 0.09375 0.0625 0.0024 0.0013 0.12247 0.06139 0.125 0.0625 0.0025 0.0011 0.09116 0.03031 0.09375 0.03125 0.0026 0.000943 0.12235 0.03048 0.125 0.03125 0.0026 0.000772 0.09106 0.03065 0.09375 0.03125 0.0027 0.000599 0.12227 0.03083 0.125 0.03125 0.0027 0.000423 0.12225-0.000245 0.125 0 0.0027 0.000245 0.09099 0.03118 0.09375 0.03125 0.0028 0.000066 0.12224 0.000113 0.125 0 2.2265-0.08905 4.4297 0.67966 6.125 2.375s2.4641 3.8985 2.375 6.125c-0.000113 0.0028-0.000066 0.12224 0 0.125 0.000066 0.0028 0.03101 0.091 0.03125 0.09375 0.000245 0.0027-0.000423 0.12227 0 0.125 0.000423 0.0027 0.03065 0.12231 0.03125 0.125 0.000599 0.0027 0.03048 0.0911 0.03125 0.09375 0.000772 0.0027 0.03031 0.12241 0.03125 0.125 0.000943 0.0026 0.03014 0.09122 0.03125 0.09375 0.0011 0.0025 0.06123 0.12255 0.0625 0.125 0.0013 0.0024 0.06107 0.09139 0.0625 0.09375 0.0014 0.0024 0.06092 0.09149 0.0625 0.09375 0.0016 0.0023 0.06078 0.09159 0.0625 0.09375 0.0017 0.0022 0.06064 0.09171 0.0625 0.09375 0.0019 0.002 0.09176 0.06058 0.09375 0.0625 0.002 0.0019 0.09164 0.09197 0.09375 0.09375 0.0021 0.0018 0.09153 0.06086 0.09375 0.0625 0.0017 0.0013 0.03655 0.04457 0.0625 0.0625 0.0078 0.0054 0.03072-0.000345 0.03125 0 3.8643 2.5333 8.2495 4.4254 12.938 5.4062 0.0098 0.0021 0.02141-0.0021 0.03125 0 0.03115 0.0059 0.09167 0.03093 0.09375 0.03125 0.0027 0.000419 0.12226-0.000242 0.125 0 0.0027 0.000242 0.091-0.000063 0.09375 0 0.0028 0.000063 0.12225 0.000115 0.125 0 0.0028-0.000115 0.12226 0.000293 0.125 0 0.0027-0.000293 0.09103-0.03078 0.09375-0.03125 0.0027-0.00047 0.12232 0.000645 0.125 0 0.0027-0.000645 0.12237-0.03043 0.125-0.03125 0.0026-0.000817 0.09118-0.03026 0.09375-0.03125 0.0026-0.000985 0.09125-0.06135 0.09375-0.0625 0.0025-0.0011 0.12258-0.06119 0.125-0.0625 0.0024-0.0013 0.09142-0.02979 0.09375-0.03125 0.0023-0.0015 0.09152-0.09214 0.09375-0.09375 0.0022-0.0016 0.09163-0.06075 0.09375-0.0625 0.0021-0.0018 0.09174-0.06061 0.09375-0.0625 0.002-0.0019 0.06062-0.09174 0.0625-0.09375a0.83026 0.83026 0 0 0 0.03125 0c1.507-1.645 3.62-2.656 6.032-2.656 2.4124 0 4.525 1.0101 6.0312 2.6562a0.83026 0.83026 0 0 0 0.03125 0c0.0019 0.002 0.06049 0.09186 0.0625 0.09375 0.002 0.0019 0.09163 0.06075 0.09375 0.0625 0.0021 0.0018 0.09152 0.06089 0.09375 0.0625 0.0022 0.0016 0.09142 0.09229 0.09375 0.09375 0.0023 0.0015 0.09133 0.02994 0.09375 0.03125 0.0024 0.0013 0.1225 0.06135 0.125 0.0625 0.0025 0.0011 0.09118 0.06151 0.09375 0.0625 0.0026 0.000985 0.09112 0.03043 0.09375 0.03125 0.0026 0.000817 0.12232 0.0306 0.125 0.03125 0.0027 0.000645 0.12228-0.00047 0.125 0 0.0027 0.00047 0.09101 0.03096 0.09375 0.03125 0.0027 0.000293 0.12225-0.000115 0.125 0 0.0028 0.000115 0.12225 0.000063 0.125 0 0.0028-0.000063 0.09101 0.000242 0.09375 0 0.0027-0.000242 0.12228 0.000419 0.125 0 0.0021-0.00032 0.0626-0.02538 0.09375-0.03125 0.0099-0.0021 0.02138 0.0021 0.03125 0 4.6708-0.97722 9.0493-2.8531 12.906-5.375 0.000535-0.000345 0.02346 0.0054 0.03125 0 0.02595-0.01793 0.06079-0.06123 0.0625-0.0625 0.0022-0.0016 0.09164-0.06072 0.09375-0.0625 0.0021-0.0018 0.09176-0.09183 0.09375-0.09375 0.002-0.0019 0.09189-0.06046 0.09375-0.0625 0.0019-0.002 0.06078-0.09159 0.0625-0.09375 0.0017-0.0022 0.06092-0.09149 0.0625-0.09375 0.0016-0.0023 0.06107-0.09139 0.0625-0.09375 0.0014-0.0024 0.06123-0.0913 0.0625-0.09375 0.0013-0.0024 0.06139-0.12247 0.0625-0.125 0.0011-0.0025 0.03031-0.09116 0.03125-0.09375 0.000943-0.0026 0.03048-0.12235 0.03125-0.125 0.000772-0.0027 0.03065-0.09106 0.03125-0.09375 0.000599-0.0027 0.03083-0.12227 0.03125-0.125 0.000423-0.0027-0.000245-0.12225 0-0.125 0.000245-0.0027 0.03118-0.09099 0.03125-0.09375 0.000066-0.0028 0.000113-0.12224 0-0.125-0.001-0.0238 0-0.19048 0-0.375 0-2.1019 0.78984-4.1648 2.4062-5.7812 1.6953-1.6953 3.8985-2.4641 6.125-2.375 0.0028 0.000113 0.12224 0.000066 0.125 0 0.0028-0.000066 0.091-0.031 0.09375-0.03125 0.0027-0.000245 0.12227 0.000423 0.125 0 0.0027-0.000423 0.12231-0.03065 0.125-0.03125 0.0027-0.000599 0.0911-0.03048 0.09375-0.03125 0.0027-0.000772 0.12241-0.03031 0.125-0.03125 0.0026-0.000943 0.09122-0.03014 0.09375-0.03125 0.0025-0.0011 0.12255-0.06123 0.125-0.0625 0.0024-0.0013 0.09139-0.06107 0.09375-0.0625 0.0024-0.0014 0.09149-0.06092 0.09375-0.0625 0.0023-0.0016 0.09159-0.06078 0.09375-0.0625 0.0022-0.0017 0.09171-0.06064 0.09375-0.0625 0.002-0.0019 0.06058-0.09176 0.0625-0.09375 0.0019-0.002 0.09197-0.09164 0.09375-0.09375 0.0018-0.0021 0.06086-0.09153 0.0625-0.09375 0.0013-0.0017 0.04457-0.03655 0.0625-0.0625 0.0054-0.0078-0.000345-0.03072 0-0.03125 2.535-3.866 4.427-8.251 5.408-12.939 0.0021-0.0098-0.0021-0.02141 0-0.03125 0.0059-0.03115 0.03093-0.09167 0.03125-0.09375 0.000419-0.0027-0.000242-0.12226 0-0.125 0.000242-0.0027-0.000063-0.091 0-0.09375 0.000063-0.0028 0.000115-0.12225 0-0.125-0.000115-0.0028 0.000293-0.12226 0-0.125-0.000293-0.0027-0.03078-0.09103-0.03125-0.09375-0.00047-0.0027 0.000645-0.12232 0-0.125-0.000645-0.0027-0.03043-0.12237-0.03125-0.125-0.000817-0.0026-0.03026-0.09118-0.03125-0.09375-0.000985-0.0026-0.06135-0.09125-0.0625-0.09375-0.0011-0.0025-0.06119-0.12258-0.0625-0.125-0.0013-0.0024-0.02979-0.09142-0.03125-0.09375-0.0015-0.0023-0.09214-0.09152-0.09375-0.09375-0.0016-0.0022-0.06075-0.09163-0.0625-0.09375-0.0018-0.0021-0.06061-0.09174-0.0625-0.09375-0.0019-0.002-0.09174-0.06062-0.09375-0.0625a0.83026 0.83026 0 0 0 0 -0.03125c-1.646-1.506-2.657-3.619-2.657-6.031 0-2.4124 1.0101-4.525 2.6562-6.0312a0.83026 0.83026 0 0 0 0 -0.03125c0.002-0.0019 0.09186-0.06049 0.09375-0.0625 0.0019-0.002 0.06075-0.09163 0.0625-0.09375 0.0018-0.0021 0.06089-0.09152 0.0625-0.09375 0.0016-0.0022 0.09229-0.09142 0.09375-0.09375 0.0015-0.0023 0.02994-0.09133 0.03125-0.09375 0.0013-0.0024 0.06135-0.1225 0.0625-0.125 0.0011-0.0025 0.06151-0.09118 0.0625-0.09375 0.000985-0.0026 0.03043-0.09112 0.03125-0.09375 0.000817-0.0026 0.0306-0.12232 0.03125-0.125 0.000645-0.0027-0.00047-0.12228 0-0.125 0.00047-0.0027 0.03096-0.09101 0.03125-0.09375 0.000293-0.0027-0.000115-0.12225 0-0.125 0.000115-0.0028 0.000063-0.12225 0-0.125-0.000063-0.0028 0.000242-0.09101 0-0.09375-0.000242-0.0027 0.000419-0.12228 0-0.125-0.00032-0.0021-0.02538-0.0626-0.03125-0.09375-0.0021-0.0098 0.0021-0.02141 0-0.03125-0.98086-4.688-2.873-9.0732-5.4062-12.938-0.000345-0.000535 0.0054-0.02346 0-0.03125-0.01793-0.02595-0.06123-0.06079-0.0625-0.0625-0.0016-0.0022-0.06072-0.09164-0.0625-0.09375-0.0018-0.0021-0.09183-0.09176-0.09375-0.09375-0.0019-0.002-0.06046-0.09189-0.0625-0.09375-0.002-0.0019-0.09159-0.06078-0.09375-0.0625-0.0022-0.0017-0.09149-0.06092-0.09375-0.0625-0.0023-0.0016-0.09139-0.06107-0.09375-0.0625-0.0024-0.0014-0.0913-0.06123-0.09375-0.0625-0.0024-0.0013-0.12247-0.06139-0.125-0.0625-0.0025-0.0011-0.09116-0.03031-0.09375-0.03125-0.0026-0.000943-0.12235-0.03048-0.125-0.03125-0.0027-0.000772-0.09106-0.03065-0.09375-0.03125-0.0027-0.000599-0.12227-0.03083-0.125-0.03125-0.0027-0.000423-0.12225 0.000245-0.125 0-0.0027-0.000245-0.09099-0.03118-0.09375-0.03125-0.0028-0.000066-0.12224-0.000113-0.125 0-2.2265 0.08905-4.4297-0.67966-6.125-2.375-1.615-1.619-2.405-3.682-2.405-5.784 0-0.18452-0.001-0.3512 0-0.375 0.000113-0.0028 0.000066-0.12224 0-0.125-0.000066-0.0028-0.031-0.091-0.03125-0.09375-0.000245-0.0027 0.000423-0.12227 0-0.125-0.000423-0.0027-0.03065-0.12231-0.03125-0.125-0.000599-0.0027-0.03048-0.0911-0.03125-0.09375-0.000772-0.0026-0.03031-0.12241-0.03125-0.125-0.000943-0.0026-0.03014-0.09122-0.03125-0.09375-0.0011-0.0025-0.06123-0.12255-0.0625-0.125-0.0013-0.0024-0.06107-0.09139-0.0625-0.09375-0.0014-0.0024-0.06092-0.09148-0.0625-0.09375-0.0016-0.0023-0.06078-0.09159-0.0625-0.09375-0.0017-0.0022-0.06064-0.09171-0.0625-0.09375-0.0019-0.002-0.09176-0.06058-0.09375-0.0625-0.002-0.0019-0.09164-0.09197-0.09375-0.09375-0.0021-0.0018-0.09153-0.06086-0.09375-0.0625-0.0017-0.0013-0.03655-0.04457-0.0625-0.0625-0.0076-0.005-0.02362 0.005-0.03125 0-3.857-2.521-8.235-4.397-12.906-5.374-0.000633-0.00014-0.02166 0.0018-0.03125 0-0.03115-0.0059-0.09167-0.03093-0.09375-0.03125-0.0027-0.000419-0.12226 0.000242-0.125 0-0.0027-0.000242-0.091 0.000063-0.09375 0-0.0028-0.000063-0.12225-0.000115-0.125 0-0.0028 0.000115-0.12226-0.000293-0.125 0-0.0027 0.000293-0.09103 0.03078-0.09375 0.03125-0.0027 0.00047-0.12232-0.000645-0.125 0-0.0027 0.000645-0.12237 0.03043-0.125 0.03125-0.0026 0.000817-0.09118 0.03026-0.09375 0.03125-0.0026 0.000985-0.09125 0.06135-0.09375 0.0625-0.0025 0.0012-0.12258 0.06119-0.125 0.0625-0.0024 0.0013-0.09142 0.02979-0.09375 0.03125-0.0023 0.0015-0.09152 0.09214-0.09375 0.09375-0.0022 0.0016-0.09163 0.06075-0.09375 0.0625-0.0021 0.0018-0.09174 0.06061-0.09375 0.0625-0.002 0.0019-0.06062 0.09174-0.0625 0.09375a0.83026 0.83026 0 0 0 -0.03125 0c-1.506 1.646-3.619 2.657-6.031 2.657-2.4124 0-4.525-1.0101-6.0312-2.6562-0.0016-0.0018-0.09203-0.0608-0.09375-0.0625-0.0017-0.0017-0.06068-0.0609-0.0625-0.0625-0.0018-0.0016-0.0606-0.06101-0.0625-0.0625-0.0019-0.0015-0.09177-0.06112-0.09375-0.0625-0.002-0.0014-0.09169-0.06123-0.09375-0.0625-0.0021-0.0013-0.09162-0.06135-0.09375-0.0625-0.0021-0.0011-0.06031-0.03023-0.0625-0.03125-0.0022-0.001-0.0915-0.0616-0.09375-0.0625-0.0022-0.000898-0.12271-0.03048-0.125-0.03125-0.0023-0.000769-0.09142-0.03061-0.09375-0.03125-0.0023-0.000637-0.09139 0.000504-0.09375 0-0.0024-0.000504-0.09136-0.03088-0.09375-0.03125-0.0024-0.000369-0.09134 0.000232-0.09375 0-0.0024-0.000232-0.09133-0.03116-0.09375-0.03125-0.0024-0.000095-0.12258-0.000042-0.125 0zm7.406 30.874c3.4566 0 6.1875 2.7309 6.1875 6.1875s-2.7309 6.1875-6.1875 6.1875-6.1875-2.7309-6.1875-6.1875 2.7309-6.1875 6.1875-6.1875z"/>
  <path id="path3744" style="opacity:.15;color:#000000" d="m40.562 12.781a0.95775 0.95775 0 0 0 -0.125 0.03125c-4.6028 0.95911-8.8935 2.7901-12.688 5.2812a0.95775 0.95775 0 0 0 -0.4375 0.84375c0.09772 2.4431-0.76317 4.8882-2.625 6.75s-4.3069 2.7227-6.75 2.625a0.95775 0.95775 0 0 0 -0.843 0.438c-2.4911 3.794-4.3221 8.0847-5.2812 12.688a0.95775 0.95775 0 0 0 0.28125 0.90625c1.8084 1.6547 2.9375 4.0079 2.9375 6.6562 0 2.6484-1.1291 5.0015-2.9375 6.6562a0.95775 0.95775 0 0 0 -0.282 0.906c0.95911 4.6028 2.7901 8.8935 5.2812 12.688a0.95775 0.95775 0 0 0 0.84375 0.4375c2.4431-0.09772 4.8882 0.76317 6.75 2.625s2.7227 4.3069 2.625 6.75a0.95775 0.95775 0 0 0 0.4375 0.84375c3.794 2.4911 8.0847 4.3221 12.688 5.2812a0.95775 0.95775 0 0 0 0.90625 -0.28125c1.6547-1.8084 4.0079-2.9375 6.6562-2.9375 2.6484 0 5.0015 1.1291 6.6562 2.9375a0.95775 0.95775 0 0 0 0.90625 0.28125c4.5868-0.95577 8.8703-2.7706 12.656-5.25a0.95775 0.95775 0 0 0 0.4375 -0.84375c-0.0038-0.08792 0-0.23406 0-0.40625 0-2.3135 0.88463-4.6034 2.6562-6.375 1.8618-1.8618 4.3069-2.7227 6.75-2.625a0.95775 0.95775 0 0 0 0.844 -0.438c2.4911-3.794 4.3221-8.0847 5.2812-12.688a0.95775 0.95775 0 0 0 -0.281 -0.906c-1.808-1.654-2.937-4.008-2.937-6.656 0-2.6484 1.1291-5.0015 2.9375-6.6562a0.95775 0.95775 0 0 0 0.282 -0.906c-0.96-4.603-2.791-8.894-5.282-12.688a0.95775 0.95775 0 0 0 -0.844 -0.438c-2.4431 0.09772-4.8882-0.76317-6.75-2.625-1.7716-1.7716-2.6562-4.0615-2.6562-6.375 0-0.17219-0.0038-0.31833 0-0.40625a0.95775 0.95775 0 0 0 -0.4375 -0.84375c-3.786-2.4794-8.0695-4.2942-12.656-5.25a0.95775 0.95775 0 0 0 -0.90625 0.28125c-1.6547 1.8084-4.0079 2.9375-6.6562 2.9375-2.6484 0-5.0015-1.1291-6.6562-2.9375a0.95775 0.95775 0 0 0 -0.782 -0.312zm7.438 29.188c3.9007 0 7.0312 3.1305 7.0312 7.0312s-3.1305 7.0312-7.0312 7.0312-7.0312-3.1305-7.0312-7.0312 3.1305-7.0312 7.0312-7.0312z"/>
  <path id="path3738" style="opacity:.3;color:#000000" d="m40.625 13.75c-4.4789 0.9333-8.6446 2.7274-12.344 5.1562 0.10781 2.6954-0.85119 5.4137-2.9062 7.4688-2.0551 2.0551-4.7733 3.0141-7.4688 2.9062-2.429 3.699-4.223 7.865-5.156 12.344 1.998 1.828 3.25 4.453 3.25 7.375 0 2.9219-1.2518 5.5466-3.25 7.375 0.9333 4.4789 2.7274 8.6446 5.1562 12.344 2.6954-0.10781 5.4137 0.85119 7.4688 2.9062 2.0551 2.0551 3.0141 4.7733 2.9062 7.4688 3.699 2.429 7.865 4.223 12.344 5.156 1.828-1.998 4.453-3.25 7.375-3.25 2.9219 0 5.5466 1.2518 7.375 3.25 4.4644-0.93028 8.6222-2.7083 12.312-5.125-0.0063-0.14435 0-0.29318 0-0.4375 0-2.5592 0.98488-5.1099 2.9375-7.0625 2.0551-2.0551 4.7733-3.0141 7.4688-2.9062 2.43-3.699 4.224-7.865 5.157-12.344-1.998-1.828-3.25-4.453-3.25-7.375s1.252-5.547 3.25-7.375c-0.933-4.479-2.727-8.645-5.156-12.344-2.696 0.108-5.414-0.851-7.469-2.906-1.9526-1.9526-2.9375-4.5033-2.9375-7.0625 0-0.14432-0.0063-0.29315 0-0.4375-3.691-2.417-7.849-4.195-12.313-5.125-1.828 1.998-4.453 3.25-7.375 3.25s-5.547-1.252-7.375-3.25zm7.375 27.25c4.4183 0 8 3.5817 8 8s-3.5817 8-8 8-8-3.5817-8-8 3.5817-8 8-8z"/>
  <path id="path3683" style="color:#000000;fill:url(#linearGradient3709)" d="m40.625 12.75c-4.4789 0.9333-8.6446 2.7274-12.344 5.1562 0.10781 2.6954-0.85119 5.4137-2.9062 7.4688-2.0551 2.0551-4.7733 3.0141-7.4688 2.9062-2.429 3.699-4.223 7.865-5.156 12.344 1.998 1.828 3.25 4.453 3.25 7.375 0 2.9219-1.2518 5.5466-3.25 7.375 0.9333 4.4789 2.7274 8.6446 5.1562 12.344 2.6954-0.10781 5.4137 0.85119 7.4688 2.9062 2.0551 2.0551 3.0141 4.7733 2.9062 7.4688 3.699 2.429 7.865 4.223 12.344 5.156 1.828-1.998 4.453-3.25 7.375-3.25 2.9219 0 5.5466 1.2518 7.375 3.25 4.4644-0.93028 8.6222-2.7083 12.312-5.125-0.0063-0.14435 0-0.29318 0-0.4375 0-2.5592 0.98488-5.1099 2.9375-7.0625 2.0551-2.0551 4.7733-3.0141 7.4688-2.9062 2.43-3.699 4.224-7.865 5.157-12.344-1.998-1.828-3.25-4.453-3.25-7.375s1.252-5.547 3.25-7.375c-0.933-4.479-2.727-8.645-5.156-12.344-2.696 0.108-5.414-0.851-7.469-2.906-1.9526-1.9526-2.9375-4.5033-2.9375-7.0625 0-0.14432-0.0063-0.29315 0-0.4375-3.691-2.417-7.849-4.195-12.313-5.125-1.828 1.998-4.453 3.25-7.375 3.25s-5.547-1.252-7.375-3.25zm7.375 27.25c4.4183 0 8 3.5817 8 8s-3.5817 8-8 8-8-3.5817-8-8 3.5817-8 8-8z"/>
  <path id="path3765" style="color:#000000;fill:url(#radialGradient3773)" d="m40.625 12.75c-4.4789 0.9333-8.6446 2.7274-12.344 5.1562 0.10781 2.6954-0.85119 5.4137-2.9062 7.4688-2.0551 2.0551-4.7733 3.0141-7.4688 2.9062-2.429 3.699-4.223 7.865-5.156 12.344 1.998 1.828 3.25 4.453 3.25 7.375 0 2.9219-1.2518 5.5466-3.25 7.375 0.9333 4.4789 2.7274 8.6446 5.1562 12.344 2.6954-0.10781 5.4137 0.85119 7.4688 2.9062 2.0551 2.0551 3.0141 4.7733 2.9062 7.4688 3.699 2.429 7.865 4.223 12.344 5.156 1.828-1.998 4.453-3.25 7.375-3.25 2.9219 0 5.5466 1.2518 7.375 3.25 4.4644-0.93028 8.6222-2.7083 12.312-5.125-0.0063-0.14435 0-0.29318 0-0.4375 0-2.5592 0.98488-5.1099 2.9375-7.0625 2.0551-2.0551 4.7733-3.0141 7.4688-2.9062 2.43-3.699 4.224-7.865 5.157-12.344-1.998-1.828-3.25-4.453-3.25-7.375s1.252-5.547 3.25-7.375c-0.933-4.479-2.727-8.645-5.156-12.344-2.696 0.108-5.414-0.851-7.469-2.906-1.9526-1.9526-2.9375-4.5033-2.9375-7.0625 0-0.14432-0.0063-0.29315 0-0.4375-3.691-2.417-7.849-4.195-12.313-5.125-1.828 1.998-4.453 3.25-7.375 3.25s-5.547-1.252-7.375-3.25zm7.375 27.25c4.4183 0 8 3.5817 8 8s-3.5817 8-8 8-8-3.5817-8-8 3.5817-8 8-8z"/>
  <path id="path3324" d="m58.193 25.127c-2.6251 0-4.7507 2.1372-4.7507 4.7719s2.1256 4.7719 4.7507 4.7719 4.7507-2.1372 4.7507-4.7719-2.1256-4.7719-4.7507-4.7719zm-10.033 3.738c-2.9298 0.000382-5.9002 0.74311-8.5712 2.0689-0.09498 0.04732-0.15422 0.13131-0.18272 0.23359-0.02887 0.10228-0.023 0.21026 0.03323 0.30033l3.8537 6.1234c0.09764 0.15571 0.29603 0.22153 0.4651 0.15016 1.4263-0.60567 2.9064-0.90099 4.4019-0.90099 5.5009 0 10.3 4.0944 11.162 9.5271 0.02887 0.18243 0.18192 0.31702 0.36544 0.31702h7.2423c0.10562 0 0.21133-0.03817 0.28238-0.1168 0.07105-0.07862 0.10954-0.17755 0.09967-0.28365-0.39059-4.0309-2.1062-7.9337-4.8171-10.962-0.12234-0.13739-0.32708-0.15043-0.48172-0.05006-1.0931 0.7091-2.3333 1.0845-3.5879 1.0845-3.66 0-6.6273-2.9868-6.6277-6.6406 0.00038-0.0019 0-0.12737 0-0.13348 0-0.18204-0.13589-0.35246-0.3156-0.38376-1.1444-0.19922-2.2553-0.3337-3.3222-0.3337zm-11.628 4.0044c-0.05015 0.01236-0.10827 0.03449-0.1495 0.06673-3.1414 2.4303-5.4973 5.8482-6.6443 9.6273-0.04483 0.1477-0.0049 0.30427 0.11628 0.40044 1.5787 1.256 2.5248 3.1893 2.5248 5.1724 0 1.983-0.94578 3.9164-2.5248 5.1724-0.12044 0.0958-0.16111 0.25236-0.11628 0.40044 1.1379 3.7474 3.4752 7.1522 6.5779 9.5772 0.08321 0.06526 0.17828 0.10175 0.28238 0.08342 0.10373-0.01793 0.19255-0.09461 0.24916-0.18353l3.8869-6.1067c0.09916-0.15609 0.07224-0.36136-0.06645-0.48387-2.4351-2.1521-3.8371-5.2378-3.8371-8.4593 0-3.2455 1.4098-6.3398 3.8703-8.4927 0.13868-0.12175 0.18146-0.32701 0.08305-0.48387l-3.8537-6.1234c-0.05623-0.08931-0.14544-0.14853-0.24916-0.16685-0.05186-0.0092-0.09934-0.01236-0.1495 0zm-10.713 10.478c-2.6866 0-4.867 2.192-4.867 4.8887s2.1804 4.872 4.867 4.872 4.867-2.1754 4.867-4.872c0-2.6967-2.1804-4.8887-4.867-4.8887zm41.112 6.3069-7.2423 0.01669c-0.18275 0.000382-0.35279 0.13612-0.38205 0.31702-0.87426 5.3923-5.6602 9.4604-11.146 9.4604-1.5129 0-3.0094-0.31381-4.4517-0.93436-0.1687-0.07213-0.36594-0.02108-0.4651 0.13348l-3.8869 6.1234c-0.05661 0.08969-0.06133 0.19767-0.03323 0.30033 0.0281 0.10228 0.08811 0.18627 0.18272 0.23359 2.6919 1.3537 5.6906 2.0689 8.6542 2.0689 1.0992 0 2.2468-0.11054 3.4052-0.31702 0.16262-0.02862 0.27962-0.15253 0.299-0.31702 0.38603-3.3489 3.2056-5.8731 6.5613-5.8731 1.0403 0 2.111 0.26374 3.073 0.76751 0.14628 0.07671 0.316 0.05195 0.43188-0.06674 3.0339-3.1077 4.9518-7.2051 5.3819-11.513 0.01064-0.10572-0.02824-0.20464-0.09966-0.28364-0.07144-0.079-0.17676-0.11718-0.28238-0.1168zm-8.5546 12.898c-2.6866 0-4.867 2.1726-4.867 4.8553 0 2.6828 2.1804 4.8553 4.867 4.8553s4.867-2.1726 4.867-4.8553c0-2.6828-2.1804-4.8553-4.867-4.8553z"/>
  <path id="path3711" style="opacity:.4;color:#000000;fill:#fff" d="m40.625 12.75c-4.4789 0.9333-8.6446 2.7274-12.344 5.1562 0.10781 2.6954-0.85119 5.4137-2.9062 7.4688-2.0551 2.0551-4.7733 3.0141-7.4688 2.9062-2.429 3.699-4.223 7.865-5.156 12.344 1.998 1.828 3.25 4.453 3.25 7.375 0 2.9219-1.2518 5.5466-3.25 7.375 0.9333 4.4789 2.7274 8.6446 5.1562 12.344 2.6954-0.10781 5.4137 0.85119 7.4688 2.9062 2.0551 2.0551 3.0141 4.7733 2.9062 7.4688 3.699 2.429 7.865 4.223 12.344 5.156 1.828-1.998 4.453-3.25 7.375-3.25 2.9219 0 5.5466 1.2518 7.375 3.25 4.4644-0.93028 8.6222-2.7083 12.312-5.125-0.0063-0.14435 0-0.29318 0-0.4375 0-2.5592 0.98488-5.1099 2.9375-7.0625 2.0551-2.0551 4.7733-3.0141 7.4688-2.9062 2.43-3.699 4.224-7.865 5.157-12.344-1.998-1.828-3.25-4.453-3.25-7.375s1.252-5.547 3.25-7.375c-0.933-4.479-2.727-8.645-5.156-12.344-2.696 0.108-5.414-0.851-7.469-2.906-1.9526-1.9526-2.9375-4.5033-2.9375-7.0625 0-0.14432-0.0063-0.29315 0-0.4375-3.691-2.417-7.849-4.195-12.313-5.125-1.828 1.998-4.453 3.25-7.375 3.25s-5.547-1.252-7.375-3.25zm-0.15625 1.1562c1.9784 1.8771 4.5935 3.125 7.5312 3.125s5.5528-1.2479 7.5312-3.125c4.0206 0.88744 7.7821 2.4801 11.156 4.625 0.05544 2.7515 1.0945 5.5008 3.1875 7.5938 2.0783 2.0783 4.805 2.9928 7.5312 3.0625 2.1837 3.405 3.7897 7.2154 4.6875 11.281-1.8771 1.9784-3.125 4.5935-3.125 7.5312s1.2479 5.5528 3.125 7.5312c-0.89781 4.0658-2.5038 7.8763-4.6875 11.281-2.7263 0.06969-5.4529 0.98416-7.5312 3.0625-2.093 2.093-3.1321 4.8423-3.1875 7.5938-3.3742 2.1449-7.1356 3.7376-11.156 4.625-1.9784-1.8771-4.5935-3.125-7.5312-3.125s-5.5528 1.2479-7.5312 3.125c-4.0658-0.89781-7.8763-2.5038-11.281-4.6875-0.06969-2.7263-0.98416-5.4529-3.0625-7.5312s-4.805-2.9928-7.5312-3.0625c-2.1837-3.405-3.7897-7.2154-4.6875-11.281 1.8771-1.9784 3.125-4.5935 3.125-7.5312s-1.2479-5.5528-3.125-7.5312c0.89781-4.0658 2.5038-7.8763 4.6875-11.281 2.7263-0.06969 5.4529-0.98416 7.5312-3.0625s2.9928-4.805 3.0625-7.5312c3.405-2.1837 7.2154-3.7897 11.281-4.6875zm7.531 25.094c-4.9706 0-9 4.0294-9 9s4.0294 9 9 9 9-4.0294 9-9-4.0294-9-9-9zm0 1c4.4183 0 8 3.5817 8 8s-3.5817 8-8 8-8-3.5817-8-8 3.5817-8 8-8z"/>
  <path id="rect3756" style="opacity:.2;fill:#fff" d="m12 6c-3.324 0-6 2.676-6 6v72c0 3.324 2.676 6 6 6h17.625l11.25-84h-28.875z"/>
 </g>
</svg>
