<?xml version="1.0" encoding="UTF-8" standalone="no"?>
<!-- Created with Inkscape (http://www.inkscape.org/) -->
<svg id="svg2408" xmlns:rdf="http://www.w3.org/1999/02/22-rdf-syntax-ns#" xmlns="http://www.w3.org/2000/svg" height="96" width="96" version="1.0" xmlns:cc="http://creativecommons.org/ns#" xmlns:xlink="http://www.w3.org/1999/xlink" xmlns:dc="http://purl.org/dc/elements/1.1/">
 <defs id="defs2410">
  <linearGradient id="linearGradient4235">
   <stop id="stop4237" style="stop-color:#fff;stop-opacity:0" offset="0"/>
   <stop id="stop4245" style="stop-color:#fff;stop-opacity:0" offset=".25"/>
   <stop id="stop4243" style="stop-color:#fff;stop-opacity:.70161" offset=".5"/>
   <stop id="stop4247" style="stop-color:#fff;stop-opacity:0" offset=".75"/>
   <stop id="stop4239" style="stop-color:#fff;stop-opacity:0" offset="1"/>
  </linearGradient>
  <linearGradient id="ButtonShadow" y2="7.0165" gradientUnits="userSpaceOnUse" x2="45.448" gradientTransform="scale(1.0059 .99417)" y1="92.54" x1="45.448">
   <stop id="stop3750" offset="0"/>
   <stop id="stop3752" style="stop-opacity:.58824" offset="1"/>
  </linearGradient>
  <linearGradient id="linearGradient3737">
   <stop id="stop3739" style="stop-color:#fff" offset="0"/>
   <stop id="stop3741" style="stop-color:#fff;stop-opacity:0" offset="1"/>
  </linearGradient>
  <filter id="filter3174" color-interpolation-filters="sRGB">
   <feGaussianBlur id="feGaussianBlur3176" stdDeviation="1.71"/>
  </filter>
  <filter id="filter3794" height="1.384" width="1.384" color-interpolation-filters="sRGB" y="-.192" x="-.192">
   <feGaussianBlur id="feGaussianBlur3796" stdDeviation="5.28"/>
  </filter>
  <linearGradient id="linearGradient3613" y2="138.66" xlink:href="#linearGradient3737" gradientUnits="userSpaceOnUse" x2="48" y1="20.221" x1="48"/>
  <clipPath id="clipPath3613">
   <rect id="rect3615" style="fill:#fff" rx="6" ry="6" height="84" width="84" y="6" x="6"/>
  </clipPath>
  <clipPath id="clipPath2862">
   <path id="path2864" style="fill:#f0f" d="m0 0v96h96v-96h-96zm12 6h72c3.324 0 6 2.676 6 6v72c0 3.324-2.676 6-6 6h-72c-3.324 0-6-2.676-6-6v-72c0-3.324 2.676-6 6-6z"/>
  </clipPath>
  <clipPath id="clipPath4187">
   <path id="path4189" style="fill:#bbb1bf" d="m48 102c-19.882 0-36 16.118-36 36s16.118 36 36 36 36-16.118 36-36-16.118-36-36-36zm0 24c6.6274 0 12 5.3726 12 12s-5.3726 12-12 12-12-5.3726-12-12 5.3726-12 12-12z"/>
  </clipPath>
  <filter id="filter4195" height="1.36" width="1.36" color-interpolation-filters="sRGB" y="-0.18" x="-0.18">
   <feGaussianBlur id="feGaussianBlur4197" stdDeviation="5.2159999"/>
  </filter>
  <linearGradient id="linearGradient4584" y2="4.788" gradientUnits="userSpaceOnUse" x2="47.921" y1="89.669" x1="47.921">
   <stop id="stop4580" style="stop-color:#a0a0a0;stop-opacity:.54118" offset="0"/>
   <stop id="stop4582" style="stop-color:#a0a0a0;stop-opacity:.34510" offset="1"/>
  </linearGradient>
  <clipPath id="clipPath4592">
   <path id="path4594" style="fill:#f0f" d="m12 6c-3.324 0-6 2.676-6 6v72c0 3.324 2.676 6 6 6h72c3.324 0 6-2.676 6-6v-72c0-3.324-2.676-6-6-6h-72zm36 4c20.987 0 38 17.013 38 38s-17.013 38-38 38-38-17.013-38-38 17.013-38 38-38z"/>
  </clipPath>
  <radialGradient id="radialGradient4646" gradientUnits="userSpaceOnUse" cy="47.765" cx="46.467" r="35.86">
   <stop id="stop4642" style="stop-opacity:0" offset="0"/>
   <stop id="stop4648" style="stop-opacity:0" offset="0.93"/>
   <stop id="stop4644" offset="1"/>
  </radialGradient>
  <filter id="filter4662" height="1.24" width="1.24" color-interpolation-filters="sRGB" y="-.12" x="-.12">
   <feGaussianBlur id="feGaussianBlur4664" stdDeviation="4.2"/>
  </filter>
  <filter id="filter3751" color-interpolation-filters="sRGB">
   <feGaussianBlur id="feGaussianBlur3753" stdDeviation="1.44"/>
  </filter>
  <clipPath id="clipPath3721">
   <path id="path3723" style="fill:#f00" d="m76.014 47.513a28.284 28.284 0 1 1 -56.569 0 28.284 28.284 0 1 1 56.569 0z" transform="matrix(1.3435 0 0 1.3435 -16.125 74.167)"/>
  </clipPath>
  <linearGradient id="ButtonShadow-0" y2="7.0165" gradientUnits="userSpaceOnUse" x2="45.448" gradientTransform="matrix(1.0059 0 0 .99417 100 0)" y1="92.54" x1="45.448">
   <stop id="stop3750-8" offset="0"/>
   <stop id="stop3752-5" style="stop-opacity:.58824" offset="1"/>
  </linearGradient>
  <linearGradient id="linearGradient3780" y2="90.239" xlink:href="#ButtonShadow-0" gradientUnits="userSpaceOnUse" x2="32.251" gradientTransform="matrix(1.0238 0 0 -1.0119 -1.1429 98.071)" y1="6.1317" x1="32.251"/>
  <linearGradient id="linearGradient3721" y2="90.239" xlink:href="#ButtonShadow-0" gradientUnits="userSpaceOnUse" x2="32.251" gradientTransform="matrix(1,0,0,-1,0,97)" y1="6.1317" x1="32.251"/>
  <linearGradient id="linearGradient4052" y2="63.184" gradientUnits="userSpaceOnUse" x2="48.253" y1="7.409" x1="48">
   <stop id="stop3702" style="stop-color:#fff;stop-opacity:0" offset="0"/>
   <stop id="stop3704" style="stop-color:#fff;stop-opacity:.23387" offset="1"/>
  </linearGradient>
  <linearGradient id="linearGradient4055" y2="49.028" xlink:href="#linearGradient4235" gradientUnits="userSpaceOnUse" x2="88.142" gradientTransform="matrix(-.69554 -.69554 -.69554 .69554 115.12 46.921)" y1="49.028" x1="6.8121"/>
  <linearGradient id="linearGradient4058" y2="49.028" xlink:href="#linearGradient4235" gradientUnits="userSpaceOnUse" x2="88.142" gradientTransform="matrix(.69554 -.69554 .69554 .69554 -19.123 46.921)" y1="49.028" x1="6.8121"/>
  <linearGradient id="linearGradient4062" y2="48" xlink:href="#linearGradient4235" gradientUnits="userSpaceOnUse" x2="88" gradientTransform="matrix(.70711 -.70711 .70711 .70711 -19.882 48)" y1="48" x1="8"/>
  <radialGradient id="radialGradient4065" xlink:href="#linearGradient3737" gradientUnits="userSpaceOnUse" cy="90.172" cx="48" gradientTransform="matrix(1.1573 0 0 .99591 -7.551 .19713)" r="42"/>
  <linearGradient id="linearGradient4068" y2="63.893" xlink:href="#linearGradient3737" gradientUnits="userSpaceOnUse" x2="36.357" y1="6" x1="36.357"/>
  <radialGradient id="radialGradient4083" gradientUnits="userSpaceOnUse" cy="61.922" cx="59.894" gradientTransform="matrix(0 .29065 -.29243 0 66.108 30.592)" r="33.714">
   <stop id="stop3344" style="stop-opacity:0" offset="0"/>
   <stop id="stop3350" style="stop-opacity:0" offset="0.85"/>
   <stop id="stop3346" offset="1"/>
  </radialGradient>
  <linearGradient id="linearGradient4085" y2="61.922" gradientUnits="userSpaceOnUse" x2="93.608" gradientTransform="matrix(0 .29065 -.34916 0 69.621 30.592)" y1="61.922" x1="26.18">
   <stop id="stop3332" style="stop-color:#fff;stop-opacity:.20312" offset="0"/>
   <stop id="stop3334" style="stop-color:#fff;stop-opacity:.67969" offset="1"/>
  </linearGradient>
  <linearGradient id="linearGradient4088" y2="61.922" gradientUnits="userSpaceOnUse" x2="94.568" gradientTransform="matrix(0 .16827 -.20214 0 60.517 37.922)" y1="61.922" x1="25.22">
   <stop id="stop3364" style="stop-color:#4d4d4d" offset="0"/>
   <stop id="stop3366" style="stop-color:#fff" offset="1"/>
  </linearGradient>
  <radialGradient id="radialGradient4755" gradientUnits="userSpaceOnUse" cy="47.295" cx="42.865" gradientTransform="matrix(3.0929 0 0 3.0927 148.31 121.82)" r="36">
   <stop id="stop3940" style="stop-color:#fff;stop-opacity:0" offset="0"/>
   <stop id="stop3915" style="stop-color:#fff;stop-opacity:0.276" offset=".32766"/>
   <stop id="stop3942" style="stop-color:#fff;stop-opacity:0.928" offset="1"/>
  </radialGradient>
 </defs>
 <metadata id="metadata2413">
  <rdf:RDF>
   <cc:Work rdf:about="">
    <dc:format>image/svg+xml</dc:format>
    <dc:type rdf:resource="http://purl.org/dc/dcmitype/StillImage"/>
   </cc:Work>
  </rdf:RDF>
 </metadata>
 <g id="layer2" style="display:none">
  <rect id="rect3745" style="opacity:.9;filter:url(#filter3174);fill:url(#ButtonShadow)" clip-path="url(#clipPath2862)" rx="6" ry="6" height="85" width="86" y="7" x="5"/>
 </g>
 <g id="layer3">
  <path id="path3786" style="opacity:0.08;fill:url(#linearGradient3780)" d="m12 3.9688c-5.5111 0-10.031 4.5201-10.031 10.031v71c0 5.5111 4.5202 10.031 10.031 10.031h72c5.5111 0 10.031-4.5202 10.031-10.031v-71c0-5.5111-4.52-10.031-10.031-10.031h-72zm0 2.0312h72c3.324 0 6 2.676 6 6v72c0 3.324-2.676 6-6 6h-72c-3.324 0-6-2.676-6-6v-72c0-3.324 2.676-6 6-6z"/>
  <path id="path3778" style="opacity:.1;fill:url(#linearGradient3780)" d="m12 4.9688c-4.9716 0-9.0312 4.0596-9.0312 9.0312v71c0 4.9716 4.0596 9.0312 9.0312 9.0312h72c4.9716 0 9.0312-4.0596 9.0312-9.0312v-71c0-4.9716-4.059-9.0312-9.031-9.0312h-72zm0 1.0312h72c3.324 0 6 2.676 6 6v72c0 3.324-2.676 6-6 6h-72c-3.324 0-6-2.676-6-6v-72c0-3.324 2.676-6 6-6z"/>
  <path id="path3770" style="opacity:.2;fill:url(#linearGradient3780)" d="m11.188 6.0312c-4.028 0.4107-7.188 3.8352-7.188 7.9688v71c0 4.4091 3.5909 8 8 8h72c4.4091 0 8-3.5909 8-8v-71c0-4.1971-3.259-7.646-7.375-7.9688 3.033 0.3062 5.375 2.8526 5.375 5.9688v72c0 3.324-2.676 6-6 6h-72c-3.324 0-6-2.676-6-6v-72c0-3.1162 2.3421-5.6626 5.375-5.9688-0.06227 0.00488-0.12563-0.00631-0.1875 0z"/>
  <path id="rect3723" style="opacity:.3;fill:url(#linearGradient3780)" d="m6.4375 9.75c-0.8995 1.177-1.4375 2.647-1.4375 4.25v71c0 3.878 3.122 7 7 7h72c3.878 0 7-3.122 7-7v-71c0-1.603-0.538-3.073-1.438-4.25 0.28 0.694 0.438 1.454 0.438 2.25v72c0 3.324-2.676 6-6 6h-72c-3.324 0-6-2.676-6-6v-72c0-0.796 0.1582-1.556 0.4375-2.25z"/>
  <path id="rect3716" style="opacity:.45;fill:url(#linearGradient3721)" d="m6 84v1c0 3.324 2.676 6 6 6h72c3.324 0 6-2.676 6-6v-1c0 3.324-2.676 6-6 6h-72c-3.324 0-6-2.676-6-6z"/>
 </g>
 <g id="layer7">
  <rect id="rect4576" style="fill:url(#linearGradient4584)" rx="6" ry="6" height="84" width="84" y="6" x="6"/>
  <path id="path4630" style="opacity:.4;fill:url(#radialGradient4646)" d="m82.327 47.765a35.86 35.86 0 1 1 -71.721 0 35.86 35.86 0 1 1 71.721 0z" transform="matrix(1.0597 0 0 1.0597 -1.2394 -2.6151)"/>
  <path id="path3724" style="opacity:.8;filter:url(#filter3751)" d="m48 102c-19.882 0-36 16.118-36 36s16.118 36 36 36 36-16.118 36-36-16.118-36-36-36zm0 24c6.6274 0 12 5.3726 12 12s-5.3726 12-12 12-12-5.3726-12-12 5.3726-12 12-12z" clip-path="url(#clipPath3721)" transform="translate(0,-90)"/>
 </g>
 <g id="g4731" transform="translate(-235.41 -220.67)">
  <g id="g4733">
   <path id="path4735" style="fill:#f57900" d="m301.39 299.87a36 36 0 0 0 13.123 -49.146l-20.73 11.969a12 12 0 0 1 -4.3923 16.392l12 20.785z"/>
   <path id="path4737" style="fill:#e9b913" d="m301.4 237.51a36 36 0 0 0 -49.123 13.208 36 36 0 0 0 13.123 49.146l12-20.785a12 12 0 0 1 -4.3923 -16.392 12 12 0 0 1 16.392 -4.3923l12-20.785z"/>
   <path id="path4739" style="fill:#a40000" d="m247.4 268.69a36 36 0 0 0 36 35.938v-23.938a12 12 0 0 1 -12 -12h-24z"/>
   <path id="path4741" style="fill:#a40000" d="m247.42 268.69a36 36 0 0 0 36 35.937 36 36 0 0 0 36 -35.937h-24a12 12 0 0 1 -12 12 12 12 0 0 1 -12 -12h-24z"/>
   <path id="path4743" style="fill:#f57900" d="m301.42 299.92a36 36 0 0 0 13.123 -49.146 36 36 0 0 0 -49.123 -13.208l12 20.785a12 12 0 0 1 16.392 4.3923 12 12 0 0 1 -4.3923 16.392l12 20.785z"/>
   <path id="path4745" style="fill:#a40000" d="m295.4 268.69a12 12 0 0 1 -12 12v23.938a36 36 0 0 0 36 -35.938h-8.4688c1.1522 1.017 1.875 2.4986 1.875 4.1562 0 3.0651-2.4661 5.5312-5.5312 5.5312s-5.5625-2.4661-5.5625-5.5312c0-1.6521 0.72942-3.1396 1.875-4.1562h-8.1875z"/>
   <path id="path4747" style="fill:#e9b913" d="m301.4 237.51a36 36 0 0 0 -49.123 13.208l20.73 11.969a12 12 0 0 1 16.392 -4.3923l12-20.785z"/>
   <path id="path4749" style="fill:#f57900" d="m277.39 258.3a12 12 0 0 1 16.392 4.3923l20.73-11.969a36 36 0 0 0 -49.123 -13.208l4.2344 7.3342c0.3046-1.5063 1.2264-2.8731 2.6619-3.7019 2.6545-1.5326 6.0233-0.62992 7.5558 2.0246 1.5326 2.6545 0.64554 6.0503-2.009 7.5829-1.4308 0.82607-3.0836 0.93808-4.5369 0.45432l4.0938 7.0906z"/>
   <path id="path4751" style="fill:#e9b913" d="m277.4 279.08a12 12 0 0 1 -4.3923 -16.392l-20.73-11.969a36 36 0 0 0 13.123 49.146l4.2344-7.3342c-1.4568 0.48938-3.1014 0.37449-4.5369-0.45433-2.6545-1.5326-3.5571-4.9013-2.0246-7.5558 1.5326-2.6545 4.917-3.5842 7.5714-2.0516 1.4308 0.82607 2.3542 2.2015 2.6619 3.7019l4.0938-7.0906z"/>
  </g>
  <path id="path4753" d="m284.44 232.69a36 36 0 0 0 -37.031 36 36 36 0 0 0 72 0 36 36 0 0 0 -34.969 -36zm-0.6875 24a12 12 0 0 1 11.656 12 12 12 0 0 1 -24 0 12 12 0 0 1 12.344 -12z" style="fill:url(#radialGradient4755)"/>
 </g>
 <path id="path3992" d="m48 36c-6.6274 0-12 5.3726-12 12s5.3726 12 12 12 12-5.3726 12-12-5.3726-12-12-12zm0 7c2.7614 0 5 2.2386 5 5s-2.2386 5-5 5-5-2.2386-5-5 2.2386-5 5-5z" style="opacity:.3;fill:#fff"/>
 <path id="path4002" d="m48 53.5a5.5 5.5 0 1 1 0 -11 5.5 5.5 0 1 1 0 11z" style="opacity:.6;stroke:url(#linearGradient4088);stroke-linecap:round;fill:none"/>
 <path id="path4010" d="m48 57.5a9.5 9.4999 0 1 1 0 -19 9.5 9.4999 0 1 1 0 19z" style="opacity:.5;fill-rule:evenodd;stroke:url(#linearGradient4085);stroke-linecap:round;fill:url(#radialGradient4083)"/>
 <path id="path3986" d="m48 33.5c-8.0081 0-14.5 6.4919-14.5 14.5s6.4919 14.5 14.5 14.5 14.5-6.4919 14.5-14.5-6.4919-14.5-14.5-14.5zm0 2.5c6.6274 0 12 5.3726 12 12s-5.3726 12-12 12-12-5.3726-12-12 5.3726-12 12-12z" style="opacity:.2"/>
 <path id="path4199" d="m48 12c-19.882 0-36 16.118-36 36 0 0.33707 0.022 0.66516 0.0312 1 0.534-19.416 16.424-35 35.969-35s35.435 15.584 35.969 35c0.009-0.335 0.031-0.663 0.031-1 0-19.882-16.118-36-36-36z" style="opacity:.4;fill:#fff"/>
 <g id="g4070">
  <path id="rect3728" style="opacity:.6;fill:url(#linearGradient4068)" d="m12 6c-3.324 0-6 2.676-6 6v2 68 2c0 0.33472 0.04135 0.6507 0.09375 0.96875 0.0487 0.2956 0.09704 0.59692 0.1875 0.875 0.00988 0.03038 0.020892 0.0636 0.03125 0.09375 0.098865 0.28777 0.23488 0.54745 0.375 0.8125 0.14459 0.27351 0.31562 0.53562 0.5 0.78125 0.18438 0.24564 0.37378 0.47347 0.59375 0.6875 0.43995 0.42806 0.94291 0.81453 1.5 1.0938 0.27854 0.13961 0.57347 0.24695 0.875 0.34375-0.2562-0.10022-0.48671-0.23627-0.71875-0.375-0.00741-0.0044-0.023866 0.0045-0.03125 0-0.031933-0.0193-0.062293-0.04251-0.09375-0.0625-0.1204-0.0767-0.23102-0.16351-0.34375-0.25-0.10617-0.0808-0.21328-0.16111-0.3125-0.25-0.1778-0.162-0.3473-0.346-0.4999-0.531-0.1075-0.131-0.2183-0.266-0.3124-0.407-0.0251-0.038-0.0385-0.086-0.0626-0.125-0.0647-0.103-0.1302-0.204-0.1874-0.312-0.1011-0.195-0.2057-0.416-0.2813-0.625-0.008-0.022-0.0236-0.041-0.0313-0.063-0.0318-0.092-0.0358-0.187-0.0624-0.281-0.0304-0.107-0.0704-0.203-0.0938-0.313-0.0729-0.341-0.125-0.698-0.125-1.062v-2-68-2c0-2.782 2.2182-5 5-5h2 68 2c2.7818 0 5 2.2182 5 5v2 68 2c0 0.3643-0.05212 0.72099-0.125 1.0625-0.04415 0.20689-0.08838 0.39766-0.15625 0.59375-0.0077 0.02195-0.0233 0.04069-0.03125 0.0625-0.06274 0.17374-0.13838 0.36745-0.21875 0.53125-0.04158 0.0828-0.07904 0.16995-0.125 0.25-0.0546 0.09721-0.12677 0.18835-0.1875 0.28125-0.09411 0.14096-0.20492 0.276-0.3125 0.40625-0.14317 0.17445-0.30314 0.347-0.46875 0.5-0.01117 0.0102-0.01998 0.02115-0.03125 0.03125-0.13839 0.12556-0.28509 0.23444-0.4375 0.34375-0.10257 0.07315-0.20432 0.15336-0.3125 0.21875-0.0074 0.0045-0.02384-0.0044-0.03125 0-0.23204 0.13873-0.46255 0.27478-0.71875 0.375 0.30153-0.0968 0.59646-0.20414 0.875-0.34375 0.55709-0.27922 1.0601-0.66569 1.5-1.0938 0.21997-0.21403 0.40937-0.44186 0.59375-0.6875s0.35541-0.50774 0.5-0.78125c0.14012-0.26505 0.27614-0.52473 0.375-0.8125 0.01041-0.03078 0.02133-0.06274 0.03125-0.09375 0.09046-0.27808 0.1388-0.5794 0.1875-0.875 0.053-0.318 0.094-0.634 0.094-0.969v-2-68-2c0-3.324-2.676-6-6-6h-72z"/>
  <path id="path3615" style="opacity:.3;fill:url(#radialGradient4065)" d="m12 90c-3.324 0-6-2.676-6-6v-2-68-2c0-0.33472 0.04135-0.6507 0.09375-0.96875 0.0487-0.2956 0.09704-0.59692 0.1875-0.875 0.0099-0.03 0.0209-0.063 0.0313-0.094 0.0989-0.2873 0.2349-0.547 0.375-0.812 0.1446-0.2735 0.3156-0.5356 0.5-0.7812 0.1844-0.2457 0.3738-0.4735 0.5937-0.6876 0.44-0.428 0.943-0.8145 1.5-1.0937 0.2786-0.1396 0.5735-0.2469 0.8748-0.3437-0.256 0.1002-0.4865 0.2362-0.7185 0.375-0.00741 0.0044-0.023866-0.0045-0.03125 0-0.031933 0.0193-0.062293 0.04251-0.09375 0.0625-0.1204 0.0767-0.23102 0.16351-0.34375 0.25-0.10617 0.0808-0.21328 0.16111-0.3125 0.25-0.1779 0.1614-0.3474 0.3453-0.5 0.5312-0.1075 0.1303-0.2183 0.2653-0.3124 0.4063-0.0251 0.0383-0.0385 0.0858-0.0626 0.125-0.0647 0.103-0.1302 0.2045-0.1874 0.3124-0.1011 0.1948-0.2057 0.4158-0.2813 0.625-0.008 0.0219-0.0236 0.0406-0.0313 0.0626-0.0318 0.0919-0.0358 0.1868-0.0624 0.2812-0.0304 0.1066-0.0704 0.203-0.0938 0.3125-0.0729 0.3415-0.125 0.6985-0.125 1.0625v2 68 2c0 2.7818 2.2182 5 5 5h2 68 2c2.7818 0 5-2.2182 5-5v-2-68-2c0-0.364-0.052-0.721-0.125-1.0625-0.044-0.2069-0.088-0.3977-0.156-0.5937-0.008-0.022-0.024-0.0407-0.031-0.0626-0.063-0.1737-0.139-0.3674-0.219-0.5312-0.042-0.0828-0.079-0.17-0.125-0.25-0.055-0.0972-0.127-0.1884-0.188-0.2812-0.094-0.141-0.205-0.276-0.312-0.4063-0.143-0.1745-0.303-0.347-0.469-0.5-0.011-0.0102-0.02-0.0211-0.031-0.0313-0.139-0.1255-0.285-0.2344-0.438-0.3437-0.102-0.0731-0.204-0.1534-0.312-0.2187-0.0074-0.0045-0.02384 0.0044-0.03125 0-0.23204-0.13873-0.46255-0.27478-0.71875-0.375 0.30153 0.0968 0.59646 0.20414 0.875 0.34375 0.55709 0.27922 1.0601 0.66569 1.5 1.0938 0.21997 0.21403 0.40937 0.44186 0.59375 0.6875s0.35541 0.50774 0.5 0.78125c0.14012 0.26505 0.27614 0.52473 0.375 0.8125 0.01041 0.03078 0.02133 0.06274 0.03125 0.09375 0.09046 0.27808 0.1388 0.5794 0.1875 0.875 0.053 0.318 0.094 0.634 0.094 0.969v2 68 2c0 3.324-2.676 6-6 6h-72z"/>
  <path id="path4230" style="opacity:.6;fill:url(#linearGradient4062);display:none" d="m19.716 19.716c-15.621 15.621-15.621 40.948 0 56.569s40.948 15.621 56.569 0 15.621-40.948 0-56.569c-15.622-15.621-40.948-15.621-56.569 0zm1.4142 1.4142c14.84-14.84 38.9-14.84 53.74 0s14.84 38.9 0 53.74-38.9 14.84-53.74 0-14.84-38.9 0-53.74z"/>
  <path id="path4590" style="opacity:.8;filter:url(#filter4662);stroke:#fff;stroke-width:2;fill:none" clip-path="url(#clipPath4592)" d="m12 6c-3.324 0-6 2.676-6 6v72c0 3.324 2.676 6 6 6h72c3.324 0 6-2.676 6-6v-72c0-3.324-2.676-6-6-6h-72zm36 4c20.987 0 38 17.013 38 38s-17.013 38-38 38-38-17.013-38-38 17.013-38 38-38z"/>
  <path id="path4616" style="stroke:url(#linearGradient4058);stroke-linecap:round;stroke-width:2;fill:none" d="m75.577 20.423a39 39 0 0 1 -55.154 55.154 39 39 0 1 1 55.154 -55.154z"/>
  <path id="path4626" style="opacity:.4;stroke:url(#linearGradient4055);stroke-linecap:round;stroke-width:2;fill:none" d="m20.423 20.423a39 39 0 0 0 55.154 55.154 39 39 0 1 0 -55.154 -55.154z"/>
 </g>
 <path id="rect3638" d="m12 6c-3.324 0-6 2.676-6 6v43.656c18.407-8.8738 43.001-14.312 70.062-14.312 4.7286 0 9.3777 0.17935 13.938 0.5v-29.844c0-3.324-2.676-6-6-6h-72z" style="opacity:.8;fill:url(#linearGradient4052)"/>
 <g id="layer5" style="display:none">
  <rect id="rect3171" style="opacity:.1;filter:url(#filter3794);stroke:#fff;stroke-linecap:round;stroke-width:.5;fill:url(#linearGradient3613)" clip-path="url(#clipPath3613)" rx="12" ry="12" height="66" width="66" y="15" x="15"/>
 </g>
</svg>
