<?xml version="1.0" encoding="UTF-8" standalone="no"?>
<!-- Created with Inkscape (http://www.inkscape.org/) -->
<svg id="svg2408" xmlns:rdf="http://www.w3.org/1999/02/22-rdf-syntax-ns#" xmlns="http://www.w3.org/2000/svg" height="96" width="96" version="1.0" xmlns:cc="http://creativecommons.org/ns#" xmlns:xlink="http://www.w3.org/1999/xlink" xmlns:dc="http://purl.org/dc/elements/1.1/">
 <defs id="defs2410">
  <linearGradient id="linearGradient4384">
   <stop id="stop4386" style="stop-color:#fff" offset="0"/>
   <stop id="stop4388" style="stop-color:#fff;stop-opacity:0" offset="1"/>
  </linearGradient>
  <linearGradient id="ButtonShadow" y2="7.0165" gradientUnits="userSpaceOnUse" x2="45.448" gradientTransform="scale(1.0059 .99417)" y1="92.54" x1="45.448">
   <stop id="stop3750" offset="0"/>
   <stop id="stop3752" style="stop-opacity:.58824" offset="1"/>
  </linearGradient>
  <filter id="filter3174" color-interpolation-filters="sRGB">
   <feGaussianBlur id="feGaussianBlur3176" stdDeviation="1.71"/>
  </filter>
  <filter id="filter3794" height="1.384" width="1.384" color-interpolation-filters="sRGB" y="-.192" x="-.192">
   <feGaussianBlur id="feGaussianBlur3796" stdDeviation="5.28"/>
  </filter>
  <linearGradient id="linearGradient3613" y2="138.66" gradientUnits="userSpaceOnUse" x2="48" y1="20.221" x1="48">
   <stop id="stop3739" style="stop-color:#fff" offset="0"/>
   <stop id="stop3741" style="stop-color:#fff;stop-opacity:0" offset="1"/>
  </linearGradient>
  <linearGradient id="ButtonShadow-0" y2="7.0165" gradientUnits="userSpaceOnUse" x2="45.448" gradientTransform="matrix(1.0059 0 0 .99417 100 0)" y1="92.54" x1="45.448">
   <stop id="stop3750-8" offset="0"/>
   <stop id="stop3752-5" style="stop-opacity:.58824" offset="1"/>
  </linearGradient>
  <linearGradient id="linearGradient3780" y2="90.239" xlink:href="#ButtonShadow-0" gradientUnits="userSpaceOnUse" x2="32.251" gradientTransform="matrix(1.0238 0 0 1.0119 -1.1429 -98.071)" y1="6.1317" x1="32.251"/>
  <linearGradient id="linearGradient3721" y2="90.239" xlink:href="#ButtonShadow-0" gradientUnits="userSpaceOnUse" x2="32.251" gradientTransform="translate(0,-97)" y1="6.1317" x1="32.251"/>
  <clipPath id="clipPath4355">
   <rect id="rect4357" style="fill:#fff" rx="6" ry="6" height="80" width="84" y="6" x="6"/>
  </clipPath>
  <radialGradient id="radialGradient4375" gradientUnits="userSpaceOnUse" cy="87.792" cx="48" gradientTransform="matrix(1 -6.7115e-8 8.4282e-8 1.2558 110 -24.506)" r="42">
   <stop id="stop4369" style="stop-color:#fff;stop-opacity:.71756" offset="0"/>
   <stop id="stop4371" style="stop-color:#fff" offset="1"/>
  </radialGradient>
  <linearGradient id="linearGradient4390" y2="-40" xlink:href="#linearGradient4384" gradientUnits="userSpaceOnUse" x2="48" gradientTransform="matrix(1,0,0,-1,0,92)" y1="88" x1="48"/>
  <linearGradient id="linearGradient4429" y2="82.455" xlink:href="#linearGradient4384" spreadMethod="reflect" gradientUnits="userSpaceOnUse" x2="112.12" y1="82" x1="48"/>
  <linearGradient id="linearGradient3228" y2="88" spreadMethod="reflect" gradientUnits="userSpaceOnUse" x2="48" y1="88" x1="90">
   <stop id="stop3894" style="stop-opacity:.58824" offset="0"/>
   <stop id="stop3896" style="stop-opacity:.47059" offset=".11780"/>
   <stop id="stop3898" style="stop-opacity:.39216" offset=".23810"/>
   <stop id="stop3900" style="stop-opacity:.31373" offset="1"/>
  </linearGradient>
  <linearGradient id="linearGradient3354" y2="-48" gradientUnits="userSpaceOnUse" x2="-47.358" gradientTransform="translate(4)" y1="-48" x1="-90">
   <stop id="stop3942" offset="0"/>
   <stop id="stop3944" style="stop-opacity:0" offset="1"/>
  </linearGradient>
  <linearGradient id="linearGradient4392">
   <stop id="stop4394" style="stop-color:#ad432d" offset="0"/>
   <stop id="stop4396" style="stop-color:#ce5b43" offset="1"/>
  </linearGradient>
  <linearGradient id="linearGradient3815">
   <stop id="stop3817" style="stop-color:#b01e1e" offset="0"/>
   <stop id="stop3819" style="stop-color:#bc3d29" offset="1"/>
  </linearGradient>
  <linearGradient id="linearGradient4122">
   <stop id="stop4124" style="stop-color:#a2351c" offset="0"/>
   <stop id="stop4126" style="stop-color:#c14929" offset="1"/>
  </linearGradient>
  <linearGradient id="linearGradient3812" y2="48" gradientUnits="userSpaceOnUse" x2="90" gradientTransform="translate(-96,-96)" y1="48" x1="6">
   <stop id="stop3670" style="stop-color:#bfb179" offset="0"/>
   <stop id="stop3672" style="stop-color:#d4c588" offset="1"/>
  </linearGradient>
  <linearGradient id="linearGradient5592" y2="41.82" xlink:href="#linearGradient3815" gradientUnits="userSpaceOnUse" x2="29.697" y1="54.081" x1="36.776"/>
  <linearGradient id="linearGradient5596" y2="41.783" xlink:href="#linearGradient3815" gradientUnits="userSpaceOnUse" x2="55.353" y1="54.752" x1="61.471"/>
  <linearGradient id="linearGradient5614" y2="28.106" xlink:href="#linearGradient4122" gradientUnits="userSpaceOnUse" x2="42.061" y1="39.743" x1="48.135"/>
  <linearGradient id="linearGradient5616" y2="14.147" xlink:href="#linearGradient4122" gradientUnits="userSpaceOnUse" x2="54.165" y1="25.929" x1="59.431"/>
  <linearGradient id="linearGradient5632" y2="13.792" xlink:href="#linearGradient4392" gradientUnits="userSpaceOnUse" x2="30.545" y1="26.196" x1="33.868"/>
  <linearGradient id="linearGradient5634" y2="-.083031" xlink:href="#linearGradient4392" gradientUnits="userSpaceOnUse" x2="38.572" y1="11.929" x1="45.507"/>
  <linearGradient id="linearGradient5640" y2="28.106" xlink:href="#linearGradient4122" gradientUnits="userSpaceOnUse" x2="42.061" gradientTransform="translate(-40,-64)" y1="39.743" x1="48.135"/>
  <linearGradient id="linearGradient5642" y2="41.82" xlink:href="#linearGradient3815" gradientUnits="userSpaceOnUse" x2="29.697" gradientTransform="translate(0,-64)" y1="54.081" x1="36.776"/>
  <linearGradient id="linearGradient5644" y2="-.083031" xlink:href="#linearGradient4392" gradientUnits="userSpaceOnUse" x2="38.572" gradientTransform="translate(40,-32)" y1="11.929" x1="45.507"/>
  <linearGradient id="linearGradient5646" y2="41.783" xlink:href="#linearGradient3815" gradientUnits="userSpaceOnUse" x2="55.353" gradientTransform="translate(0,-64)" y1="54.752" x1="61.471"/>
  <clipPath id="clipPath5649">
   <rect id="rect5651" style="opacity:.5;fill:#f0f" transform="matrix(0,-1,-1,0,0,0)" rx="6" ry="6" height="84" width="84" y="-90" x="38"/>
  </clipPath>
 </defs>
 <metadata id="metadata2413">
  <rdf:RDF>
   <cc:Work rdf:about="">
    <dc:format>image/svg+xml</dc:format>
    <dc:type rdf:resource="http://purl.org/dc/dcmitype/StillImage"/>
    <dc:title/>
   </cc:Work>
  </rdf:RDF>
 </metadata>
 <g id="layer2" style="display:none">
  <rect id="rect3745" style="opacity:.9;filter:url(#filter3174);fill:url(#ButtonShadow)" rx="6" ry="6" height="85" width="86" y="7" x="5"/>
 </g>
 <g id="layer3">
  <path id="path3786" style="opacity:0.08;fill:url(#linearGradient3780)" d="m12-95.031c-5.5111 0-10.031 4.5202-10.031 10.031v71c0 5.5111 4.5202 10.031 10.031 10.031h72c5.5111 0 10.031-4.5202 10.031-10.031v-71c0-5.5111-4.5202-10.031-10.031-10.031h-72z" transform="scale(1,-1)"/>
  <path id="path3778" style="opacity:.1;fill:url(#linearGradient3780)" d="m12-94.031c-4.9716 0-9.0312 4.0596-9.0312 9.0312v71c0 4.9716 4.0596 9.0312 9.0312 9.0312h72c4.9716 0 9.0312-4.0596 9.0312-9.0312v-71c0-4.9716-4.0596-9.0312-9.0312-9.0312h-72z" transform="scale(1,-1)"/>
  <path id="path3770" style="opacity:.2;fill:url(#linearGradient3780)" d="m12-93c-4.4091 0-8 3.5909-8 8v71c0 4.4091 3.5909 8 8 8h72c4.4091 0 8-3.5909 8-8v-71c0-4.4091-3.5909-8-8-8h-72z" transform="scale(1,-1)"/>
  <rect id="rect3723" style="opacity:.3;fill:url(#linearGradient3780)" transform="scale(1,-1)" rx="7" ry="7" height="85" width="86" y="-92" x="5"/>
  <rect id="rect3716" style="opacity:.45;fill:url(#linearGradient3721)" transform="scale(1,-1)" rx="6" ry="6" height="84" width="84" y="-91" x="6"/>
 </g>
 <g id="layer1">
  <rect id="rect2419" style="fill:url(#linearGradient3812)" transform="matrix(0,-1,-1,0,0,0)" rx="7" ry="7" height="84" width="84" y="-90" x="-90"/>
  <g id="g4890" transform="translate(0,128)" clip-path="url(#clipPath5649)">
   <g id="g4006" transform="matrix(-1,0,0,1,124,-110)">
    <path id="path4008" style="opacity:.5;color:#000000;fill:#7f7037" d="m19.5 41.406c-1.1574 0-2.0938 0.93637-2.0938 2.0938v9c0 1.1574 0.93637 2.0938 2.0938 2.0938h21c1.1574 0 2.0938-0.93637 2.0938-2.0938v-9c0-1.1574-0.93637-2.0938-2.0938-2.0938h-21z"/>
    <rect id="rect4010" style="color:#000000;fill:url(#linearGradient5592)" rx="1.5" ry="1.5" height="12" width="24" y="42" x="18"/>
    <path id="path4012" style="opacity:.3;color:#000000;fill:#e9c6af" d="m19.5 42c-0.14889 0-0.30193 0.02246-0.4375 0.0625-0.621 0.184-1.062 0.756-1.062 1.438v0.96875c0.21712-0.46321 0.6086-0.71409 0.53125-1.3438 0.696-0.6017 1.6516-0.65128 2.5312-0.65625 0.63712-0.0082 0.91336 1.0837 1.0938 1.5938-0.09807-0.54106 0.25661-0.95139 0.71875-0.96875 0.92512-0.77658 2.0106-0.25402 3.125-0.375 0.90374-0.36661 1.8226-0.22054 2.625 0.21875 1.051-0.15974 2.0935-0.16665 3.1562-0.0625 0.91209 0.24591 2.0863-0.74769 2.5312 0.4375 1.1061 0.54922 1.6506-0.89209 2.75-0.59375 0.9275-0.03221 2.0013-0.95355 2.75 0.0625 0.77614 0.07291 1.4764 0.34296 1.5938 1.25 0.07283 0.35636 0.33049 0.51258 0.59375 0.53125v-1.063c0-0.831-0.669-1.5-1.5-1.5h-20.969c-0.009 0.002-0.021-0.002-0.031 0z"/>
    <path id="path4014" style="opacity:.3;fill:#501616" d="m18 47.062v5.438c0 0.831 0.669 1.5 1.5 1.5h21c0.831 0 1.5-0.669 1.5-1.5v-3.4688c-0.06512 0.20664-0.15642 0.40848-0.28125 0.59375-0.23442 0.58765-0.28496 1.0388-0.375 1.625 0.004 0.52142-0.22256 1.0538-0.6875 1.1875-0.36664 0.22111-1.0092 0.13993-1.5312 0.15625-0.56351-0.04729-1.2044-0.19694-1.7188 0.0625-0.83586 0.000501-1.6639-0.000366-2.5 0-0.43101 0.13571-0.95906 0.07256-1.4375 0.09375-0.5958-0.05869-1.1004 0.1036-1.6875 0.0625-0.78848-0.05152-0.63444-0.73136-1.25-0.9375-0.57128-0.18938-0.31569 0.86941-0.65625 0.9375-0.62851-0.2777-0.79688-0.73863-1.2188-1.2812-0.24491-0.59158-0.12514 0.68286-0.15625 1-0.09065 0.48052-0.64157 0.23157-1.0312 0.28125-0.79-0.129-1.617-0.045-2.438-0.062-0.499 0.003-0.941 0.191-1.156 0.469-0.506 0.241-1.242-0.147-1.875-0.094-0.48698 0.06669-1.2518 0.22082-1.625-0.0625-0.42377-0.33032-0.5477-0.4792-0.75-1 0.01408-0.48868 0.11403-0.94281-0.46875-1.2188-0.04549-0.5147 0.01284-1.1329 0.53125-1.2188 0.29732-0.38364 0.30333-1.2631 0-1.4375-0.33923-0.25892-0.84834-0.41878-1.2812-0.625-0.231-0.079-0.343-0.268-0.406-0.5z"/>
   </g>
   <g id="g3874" transform="translate(0,-124)">
    <path id="path3846" style="opacity:.5;color:#000000;fill:#7f7037" d="m19.5 41.406c-1.1574 0-2.0938 0.93637-2.0938 2.0938v9c0 1.1574 0.93637 2.0938 2.0938 2.0938h21c1.1574 0 2.0938-0.93637 2.0938-2.0938v-9c0-1.1574-0.93637-2.0938-2.0938-2.0938h-21z"/>
    <rect id="rect3710" style="color:#000000;fill:url(#linearGradient5592)" rx="1.5" ry="1.5" height="12" width="24" y="42" x="18"/>
    <path id="rect3827" style="opacity:.3;color:#000000;fill:#e9c6af" d="m19.5 42c-0.14889 0-0.30193 0.02246-0.4375 0.0625-0.621 0.184-1.062 0.756-1.062 1.438v0.96875c0.21712-0.46321 0.6086-0.71409 0.53125-1.3438 0.696-0.6017 1.6516-0.65128 2.5312-0.65625 0.63712-0.0082 0.91336 1.0837 1.0938 1.5938-0.09807-0.54106 0.25661-0.95139 0.71875-0.96875 0.92512-0.77658 2.0106-0.25402 3.125-0.375 0.90374-0.36661 1.8226-0.22054 2.625 0.21875 1.051-0.15974 2.0935-0.16665 3.1562-0.0625 0.91209 0.24591 2.0863-0.74769 2.5312 0.4375 1.1061 0.54922 1.6506-0.89209 2.75-0.59375 0.9275-0.03221 2.0013-0.95355 2.75 0.0625 0.77614 0.07291 1.4764 0.34296 1.5938 1.25 0.07283 0.35636 0.33049 0.51258 0.59375 0.53125v-1.063c0-0.831-0.669-1.5-1.5-1.5h-20.969c-0.009 0.002-0.021-0.002-0.031 0z"/>
    <path id="path3835" style="opacity:.3;fill:#501616" d="m18 47.062v5.438c0 0.831 0.669 1.5 1.5 1.5h21c0.831 0 1.5-0.669 1.5-1.5v-3.4688c-0.06512 0.20664-0.15642 0.40848-0.28125 0.59375-0.23442 0.58765-0.28496 1.0388-0.375 1.625 0.004 0.52142-0.22256 1.0538-0.6875 1.1875-0.36664 0.22111-1.0092 0.13993-1.5312 0.15625-0.56351-0.04729-1.2044-0.19694-1.7188 0.0625-0.83586 0.000501-1.6639-0.000366-2.5 0-0.43101 0.13571-0.95906 0.07256-1.4375 0.09375-0.5958-0.05869-1.1004 0.1036-1.6875 0.0625-0.78848-0.05152-0.63444-0.73136-1.25-0.9375-0.57128-0.18938-0.31569 0.86941-0.65625 0.9375-0.62851-0.2777-0.79688-0.73863-1.2188-1.2812-0.24491-0.59158-0.12514 0.68286-0.15625 1-0.09065 0.48052-0.64157 0.23157-1.0312 0.28125-0.79-0.129-1.617-0.045-2.438-0.062-0.499 0.003-0.941 0.191-1.156 0.469-0.506 0.241-1.242-0.147-1.875-0.094-0.48698 0.06669-1.2518 0.22082-1.625-0.0625-0.42377-0.33032-0.5477-0.4792-0.75-1 0.01408-0.48868 0.11403-0.94281-0.46875-1.2188-0.04549-0.5147 0.01284-1.1329 0.53125-1.2188 0.29732-0.38364 0.30333-1.2631 0-1.4375-0.33923-0.25892-0.84834-0.41878-1.2812-0.625-0.231-0.079-0.343-0.268-0.406-0.5z"/>
   </g>
   <g id="g3880" transform="translate(0,-124)">
    <path id="path3872" style="opacity:.5;color:#000000;fill:#7f7037" d="m19.5 41.406c-1.1574 0-2.0938 0.93637-2.0938 2.0938v9c0 1.1574 0.93637 2.0938 2.0938 2.0938h21c1.1574 0 2.0938-0.93637 2.0938-2.0938v-9c0-1.1574-0.93637-2.0938-2.0938-2.0938h-21z" transform="translate(26)"/>
    <rect id="rect3712" style="color:#000000;fill:url(#linearGradient5596)" rx="1.5" ry="1.5" height="12" width="24" y="42" x="44"/>
    <path id="path3858" style="opacity:.3;fill:#e9c6af" d="m45.5 42c-0.831 0-1.5 0.669-1.5 1.5v2.2188c0.17218 0.03194 0.38499-0.04094 0.6875-0.25 0.55536 0.07408 1.5362 1.6221 1.3438 0.34375 0.5816-0.40029-2.2387-2.1865-0.6875-2.9688 1.3035 0.62761 2.4577-0.35877 3.7812-0.125 1.101-0.014 2.289-1.164 2.969 0.281 1.48 0.076 2.888-0.812 4.406-0.594 1.417-0.151 2.852-0.089 4.281-0.094 0.256-0.095 0.578-0.212 0.907-0.312h-16.188zm18.344 0c0.23784 0.17122 0.40979 0.4492 0.46875 0.875-0.03849 0.75934-0.11974 1.3986 0.5 0.5 0.38005-1.2783 1.4005-1.8336 2.0625-0.5 0.30534 0.14673 0.6859 0.14012 1 0.03125-0.227-0.538-0.752-0.906-1.375-0.906h-2.6562z"/>
    <path id="path3865" style="opacity:.3;fill:#501616" d="m63.156 51.156c-0.39166 0.24384-1.0516 0.59047-1.3125 1.0625 0.25476 0.87774-0.49968 1.2212-1.25 1.0312-0.9898-0.11438-1.9582 0.49597-2.9375 0.09375-1.9969-0.0052-3.9718 0.0057-5.9688 0-0.8723-0.02878-1.7261-0.04093-2.5625 0.1875-0.94258 0.36229-1.6573-0.51494-2.5-0.3125-1.1384 0.43752-1.0235-0.83921-1.2188-1.5312-0.35834 0.44614-0.86227 0.79168-1.375 1.1562 0.152 0.671 0.753 1.157 1.47 1.157h21c0.831 0 1.5-0.669 1.5-1.5v-0.625c-0.63275 0.14683-0.51223 1.1312-1.125 1.0938-0.675 0.14576-1.4454 0.08574-2.2188 0.25-1.0866-0.0058-1.2075-1.2616-1.5-2.0625z"/>
   </g>
   <g id="g3886" transform="matrix(-1,0,0,1,72,-138)">
    <path id="path3888-5" style="opacity:.5;color:#000000;fill:#7f7037" d="m19.5 41.406c-1.1574 0-2.0938 0.93637-2.0938 2.0938v9c0 1.1574 0.93637 2.0938 2.0938 2.0938h21c1.1574 0 2.0938-0.93637 2.0938-2.0938v-9c0-1.1574-0.93637-2.0938-2.0938-2.0938h-21z" transform="translate(26)"/>
    <rect id="rect3890" style="color:#000000;fill:url(#linearGradient5596)" rx="1.5" ry="1.5" height="12" width="24" y="42" x="44"/>
    <path id="path3892" style="opacity:.3;fill:#e9c6af" d="m45.5 42c-0.831 0-1.5 0.669-1.5 1.5v2.2188c0.17218 0.03194 0.38499-0.04094 0.6875-0.25 0.55536 0.07408 1.5362 1.6221 1.3438 0.34375 0.5816-0.40029-2.2387-2.1865-0.6875-2.9688 1.3035 0.62761 2.4577-0.35877 3.7812-0.125 1.101-0.014 2.289-1.164 2.969 0.281 1.48 0.076 2.888-0.812 4.406-0.594 1.417-0.151 2.852-0.089 4.281-0.094 0.256-0.095 0.578-0.212 0.907-0.312h-16.188zm18.344 0c0.23784 0.17122 0.40979 0.4492 0.46875 0.875-0.03849 0.75934-0.11974 1.3986 0.5 0.5 0.38005-1.2783 1.4005-1.8336 2.0625-0.5 0.30534 0.14673 0.6859 0.14012 1 0.03125-0.227-0.538-0.752-0.906-1.375-0.906h-2.6562z"/>
    <path id="path3894" style="opacity:.3;fill:#501616" d="m63.156 51.156c-0.39166 0.24384-1.0516 0.59047-1.3125 1.0625 0.25476 0.87774-0.49968 1.2212-1.25 1.0312-0.9898-0.11438-1.9582 0.49597-2.9375 0.09375-1.9969-0.0052-3.9718 0.0057-5.9688 0-0.8723-0.02878-1.7261-0.04093-2.5625 0.1875-0.94258 0.36229-1.6573-0.51494-2.5-0.3125-1.1384 0.43752-1.0235-0.83921-1.2188-1.5312-0.35834 0.44614-0.86227 0.79168-1.375 1.1562 0.152 0.671 0.753 1.157 1.47 1.157h21c0.831 0 1.5-0.669 1.5-1.5v-0.625c-0.63275 0.14683-0.51223 1.1312-1.125 1.0938-0.675 0.14576-1.4454 0.08574-2.2188 0.25-1.0866-0.0058-1.2075-1.2616-1.5-2.0625z"/>
   </g>
   <g id="g3898" transform="translate(38,-138)">
    <path id="path3900" style="opacity:.5;color:#000000;fill:#7f7037" d="m19.5 41.406c-1.1574 0-2.0938 0.93637-2.0938 2.0938v9c0 1.1574 0.93637 2.0938 2.0938 2.0938h21c1.1574 0 2.0938-0.93637 2.0938-2.0938v-9c0-1.1574-0.93637-2.0938-2.0938-2.0938h-21z"/>
    <rect id="rect3902" style="color:#000000;fill:url(#linearGradient5592)" rx="1.5" ry="1.5" height="12" width="24" y="42" x="18"/>
    <path id="path3904" style="opacity:.3;color:#000000;fill:#e9c6af" d="m19.5 42c-0.14889 0-0.30193 0.02246-0.4375 0.0625-0.621 0.184-1.062 0.756-1.062 1.438v0.96875c0.21712-0.46321 0.6086-0.71409 0.53125-1.3438 0.696-0.6017 1.6516-0.65128 2.5312-0.65625 0.63712-0.0082 0.91336 1.0837 1.0938 1.5938-0.09807-0.54106 0.25661-0.95139 0.71875-0.96875 0.92512-0.77658 2.0106-0.25402 3.125-0.375 0.90374-0.36661 1.8226-0.22054 2.625 0.21875 1.051-0.15974 2.0935-0.16665 3.1562-0.0625 0.91209 0.24591 2.0863-0.74769 2.5312 0.4375 1.1061 0.54922 1.6506-0.89209 2.75-0.59375 0.9275-0.03221 2.0013-0.95355 2.75 0.0625 0.77614 0.07291 1.4764 0.34296 1.5938 1.25 0.07283 0.35636 0.33049 0.51258 0.59375 0.53125v-1.063c0-0.831-0.669-1.5-1.5-1.5h-20.969c-0.009 0.002-0.021-0.002-0.031 0z"/>
    <path id="path3906" style="opacity:.3;fill:#501616" d="m18 47.062v5.438c0 0.831 0.669 1.5 1.5 1.5h21c0.831 0 1.5-0.669 1.5-1.5v-3.4688c-0.06512 0.20664-0.15642 0.40848-0.28125 0.59375-0.23442 0.58765-0.28496 1.0388-0.375 1.625 0.004 0.52142-0.22256 1.0538-0.6875 1.1875-0.36664 0.22111-1.0092 0.13993-1.5312 0.15625-0.56351-0.04729-1.2044-0.19694-1.7188 0.0625-0.83586 0.000501-1.6639-0.000366-2.5 0-0.43101 0.13571-0.95906 0.07256-1.4375 0.09375-0.5958-0.05869-1.1004 0.1036-1.6875 0.0625-0.78848-0.05152-0.63444-0.73136-1.25-0.9375-0.57128-0.18938-0.31569 0.86941-0.65625 0.9375-0.62851-0.2777-0.79688-0.73863-1.2188-1.2812-0.24491-0.59158-0.12514 0.68286-0.15625 1-0.09065 0.48052-0.64157 0.23157-1.0312 0.28125-0.79-0.129-1.617-0.045-2.438-0.062-0.499 0.003-0.941 0.191-1.156 0.469-0.506 0.241-1.242-0.147-1.875-0.094-0.48698 0.06669-1.2518 0.22082-1.625-0.0625-0.42377-0.33032-0.5477-0.4792-0.75-1 0.01408-0.48868 0.11403-0.94281-0.46875-1.2188-0.04549-0.5147 0.01284-1.1329 0.53125-1.2188 0.29732-0.38364 0.30333-1.2631 0-1.4375-0.33923-0.25892-0.84834-0.41878-1.2812-0.625-0.231-0.079-0.343-0.268-0.406-0.5z"/>
   </g>
   <g id="g3910" transform="matrix(-1,0,0,1,138,-152)">
    <path id="path3912" style="opacity:.5;color:#000000;fill:#7f7037" d="m19.5 41.406c-1.1574 0-2.0938 0.93637-2.0938 2.0938v9c0 1.1574 0.93637 2.0938 2.0938 2.0938h21c1.1574 0 2.0938-0.93637 2.0938-2.0938v-9c0-1.1574-0.93637-2.0938-2.0938-2.0938h-21z" transform="translate(26)"/>
    <rect id="rect3914" style="color:#000000;fill:url(#linearGradient5596)" rx="1.5" ry="1.5" height="12" width="24" y="42" x="44"/>
    <path id="path3916" style="opacity:.3;fill:#e9c6af" d="m45.5 42c-0.831 0-1.5 0.669-1.5 1.5v2.2188c0.17218 0.03194 0.38499-0.04094 0.6875-0.25 0.55536 0.07408 1.5362 1.6221 1.3438 0.34375 0.5816-0.40029-2.2387-2.1865-0.6875-2.9688 1.3035 0.62761 2.4577-0.35877 3.7812-0.125 1.101-0.014 2.289-1.164 2.969 0.281 1.48 0.076 2.888-0.812 4.406-0.594 1.417-0.151 2.852-0.089 4.281-0.094 0.256-0.095 0.578-0.212 0.907-0.312h-16.188zm18.344 0c0.23784 0.17122 0.40979 0.4492 0.46875 0.875-0.03849 0.75934-0.11974 1.3986 0.5 0.5 0.38005-1.2783 1.4005-1.8336 2.0625-0.5 0.30534 0.14673 0.6859 0.14012 1 0.03125-0.227-0.538-0.752-0.906-1.375-0.906h-2.6562z"/>
    <path id="path3918" style="opacity:.3;fill:#501616" d="m63.156 51.156c-0.39166 0.24384-1.0516 0.59047-1.3125 1.0625 0.25476 0.87774-0.49968 1.2212-1.25 1.0312-0.9898-0.11438-1.9582 0.49597-2.9375 0.09375-1.9969-0.0052-3.9718 0.0057-5.9688 0-0.8723-0.02878-1.7261-0.04093-2.5625 0.1875-0.94258 0.36229-1.6573-0.51494-2.5-0.3125-1.1384 0.43752-1.0235-0.83921-1.2188-1.5312-0.35834 0.44614-0.86227 0.79168-1.375 1.1562 0.152 0.671 0.753 1.157 1.47 1.157h21c0.831 0 1.5-0.669 1.5-1.5v-0.625c-0.63275 0.14683-0.51223 1.1312-1.125 1.0938-0.675 0.14576-1.4454 0.08574-2.2188 0.25-1.0866-0.0058-1.2075-1.2616-1.5-2.0625z"/>
   </g>
   <g id="g3922" transform="matrix(-1,0,0,1,124,-166)">
    <path id="path3924" style="opacity:.5;color:#000000;fill:#7f7037" d="m19.5 41.406c-1.1574 0-2.0938 0.93637-2.0938 2.0938v9c0 1.1574 0.93637 2.0938 2.0938 2.0938h21c1.1574 0 2.0938-0.93637 2.0938-2.0938v-9c0-1.1574-0.93637-2.0938-2.0938-2.0938h-21z"/>
    <rect id="rect3926" style="color:#000000;fill:url(#linearGradient5592)" rx="1.5" ry="1.5" height="12" width="24" y="42" x="18"/>
    <path id="path3928" style="opacity:.3;color:#000000;fill:#e9c6af" d="m19.5 42c-0.14889 0-0.30193 0.02246-0.4375 0.0625-0.621 0.184-1.062 0.756-1.062 1.438v0.96875c0.21712-0.46321 0.6086-0.71409 0.53125-1.3438 0.696-0.6017 1.6516-0.65128 2.5312-0.65625 0.63712-0.0082 0.91336 1.0837 1.0938 1.5938-0.09807-0.54106 0.25661-0.95139 0.71875-0.96875 0.92512-0.77658 2.0106-0.25402 3.125-0.375 0.90374-0.36661 1.8226-0.22054 2.625 0.21875 1.051-0.15974 2.0935-0.16665 3.1562-0.0625 0.91209 0.24591 2.0863-0.74769 2.5312 0.4375 1.1061 0.54922 1.6506-0.89209 2.75-0.59375 0.9275-0.03221 2.0013-0.95355 2.75 0.0625 0.77614 0.07291 1.4764 0.34296 1.5938 1.25 0.07283 0.35636 0.33049 0.51258 0.59375 0.53125v-1.063c0-0.831-0.669-1.5-1.5-1.5h-20.969c-0.009 0.002-0.021-0.002-0.031 0z"/>
    <path id="path3930" style="opacity:.3;fill:#501616" d="m18 47.062v5.438c0 0.831 0.669 1.5 1.5 1.5h21c0.831 0 1.5-0.669 1.5-1.5v-3.4688c-0.06512 0.20664-0.15642 0.40848-0.28125 0.59375-0.23442 0.58765-0.28496 1.0388-0.375 1.625 0.004 0.52142-0.22256 1.0538-0.6875 1.1875-0.36664 0.22111-1.0092 0.13993-1.5312 0.15625-0.56351-0.04729-1.2044-0.19694-1.7188 0.0625-0.83586 0.000501-1.6639-0.000366-2.5 0-0.43101 0.13571-0.95906 0.07256-1.4375 0.09375-0.5958-0.05869-1.1004 0.1036-1.6875 0.0625-0.78848-0.05152-0.63444-0.73136-1.25-0.9375-0.57128-0.18938-0.31569 0.86941-0.65625 0.9375-0.62851-0.2777-0.79688-0.73863-1.2188-1.2812-0.24491-0.59158-0.12514 0.68286-0.15625 1-0.09065 0.48052-0.64157 0.23157-1.0312 0.28125-0.79-0.129-1.617-0.045-2.438-0.062-0.499 0.003-0.941 0.191-1.156 0.469-0.506 0.241-1.242-0.147-1.875-0.094-0.48698 0.06669-1.2518 0.22082-1.625-0.0625-0.42377-0.33032-0.5477-0.4792-0.75-1 0.01408-0.48868 0.11403-0.94281-0.46875-1.2188-0.04549-0.5147 0.01284-1.1329 0.53125-1.2188 0.29732-0.38364 0.30333-1.2631 0-1.4375-0.33923-0.25892-0.84834-0.41878-1.2812-0.625-0.231-0.079-0.343-0.268-0.406-0.5z"/>
   </g>
   <g id="g3934" transform="translate(-14,-166)">
    <path id="path3936" style="opacity:.5;color:#000000;fill:#7f7037" d="m19.5 41.406c-1.1574 0-2.0938 0.93637-2.0938 2.0938v9c0 1.1574 0.93637 2.0938 2.0938 2.0938h21c1.1574 0 2.0938-0.93637 2.0938-2.0938v-9c0-1.1574-0.93637-2.0938-2.0938-2.0938h-21z"/>
    <rect id="rect3938" style="color:#000000;fill:url(#linearGradient5592)" rx="1.5" ry="1.5" height="12" width="24" y="42" x="18"/>
    <path id="path3940" style="opacity:.3;color:#000000;fill:#e9c6af" d="m19.5 42c-0.14889 0-0.30193 0.02246-0.4375 0.0625-0.621 0.184-1.062 0.756-1.062 1.438v0.96875c0.21712-0.46321 0.6086-0.71409 0.53125-1.3438 0.696-0.6017 1.6516-0.65128 2.5312-0.65625 0.63712-0.0082 0.91336 1.0837 1.0938 1.5938-0.09807-0.54106 0.25661-0.95139 0.71875-0.96875 0.92512-0.77658 2.0106-0.25402 3.125-0.375 0.90374-0.36661 1.8226-0.22054 2.625 0.21875 1.051-0.15974 2.0935-0.16665 3.1562-0.0625 0.91209 0.24591 2.0863-0.74769 2.5312 0.4375 1.1061 0.54922 1.6506-0.89209 2.75-0.59375 0.9275-0.03221 2.0013-0.95355 2.75 0.0625 0.77614 0.07291 1.4764 0.34296 1.5938 1.25 0.07283 0.35636 0.33049 0.51258 0.59375 0.53125v-1.063c0-0.831-0.669-1.5-1.5-1.5h-20.969c-0.009 0.002-0.021-0.002-0.031 0z"/>
    <path id="path3942" style="opacity:.3;fill:#501616" d="m18 47.062v5.438c0 0.831 0.669 1.5 1.5 1.5h21c0.831 0 1.5-0.669 1.5-1.5v-3.4688c-0.06512 0.20664-0.15642 0.40848-0.28125 0.59375-0.23442 0.58765-0.28496 1.0388-0.375 1.625 0.004 0.52142-0.22256 1.0538-0.6875 1.1875-0.36664 0.22111-1.0092 0.13993-1.5312 0.15625-0.56351-0.04729-1.2044-0.19694-1.7188 0.0625-0.83586 0.000501-1.6639-0.000366-2.5 0-0.43101 0.13571-0.95906 0.07256-1.4375 0.09375-0.5958-0.05869-1.1004 0.1036-1.6875 0.0625-0.78848-0.05152-0.63444-0.73136-1.25-0.9375-0.57128-0.18938-0.31569 0.86941-0.65625 0.9375-0.62851-0.2777-0.79688-0.73863-1.2188-1.2812-0.24491-0.59158-0.12514 0.68286-0.15625 1-0.09065 0.48052-0.64157 0.23157-1.0312 0.28125-0.79-0.129-1.617-0.045-2.438-0.062-0.499 0.003-0.941 0.191-1.156 0.469-0.506 0.241-1.242-0.147-1.875-0.094-0.48698 0.06669-1.2518 0.22082-1.625-0.0625-0.42377-0.33032-0.5477-0.4792-0.75-1 0.01408-0.48868 0.11403-0.94281-0.46875-1.2188-0.04549-0.5147 0.01284-1.1329 0.53125-1.2188 0.29732-0.38364 0.30333-1.2631 0-1.4375-0.33923-0.25892-0.84834-0.41878-1.2812-0.625-0.231-0.079-0.343-0.268-0.406-0.5z"/>
   </g>
   <g id="g3946" transform="translate(-40,-110)">
    <path id="path3948" style="opacity:.5;color:#000000;fill:#7f7037" d="m19.5 41.406c-1.1574 0-2.0938 0.93637-2.0938 2.0938v9c0 1.1574 0.93637 2.0938 2.0938 2.0938h21c1.1574 0 2.0938-0.93637 2.0938-2.0938v-9c0-1.1574-0.93637-2.0938-2.0938-2.0938h-21z" transform="translate(26)"/>
    <rect id="rect3950" style="color:#000000;fill:url(#linearGradient5596)" rx="1.5" ry="1.5" height="12" width="24" y="42" x="44"/>
    <path id="path3952" style="opacity:.3;fill:#e9c6af" d="m45.5 42c-0.831 0-1.5 0.669-1.5 1.5v2.2188c0.17218 0.03194 0.38499-0.04094 0.6875-0.25 0.55536 0.07408 1.5362 1.6221 1.3438 0.34375 0.5816-0.40029-2.2387-2.1865-0.6875-2.9688 1.3035 0.62761 2.4577-0.35877 3.7812-0.125 1.101-0.014 2.289-1.164 2.969 0.281 1.48 0.076 2.888-0.812 4.406-0.594 1.417-0.151 2.852-0.089 4.281-0.094 0.256-0.095 0.578-0.212 0.907-0.312h-16.188zm18.344 0c0.23784 0.17122 0.40979 0.4492 0.46875 0.875-0.03849 0.75934-0.11974 1.3986 0.5 0.5 0.38005-1.2783 1.4005-1.8336 2.0625-0.5 0.30534 0.14673 0.6859 0.14012 1 0.03125-0.227-0.538-0.752-0.906-1.375-0.906h-2.6562z"/>
    <path id="path3954" style="opacity:.3;fill:#501616" d="m63.156 51.156c-0.39166 0.24384-1.0516 0.59047-1.3125 1.0625 0.25476 0.87774-0.49968 1.2212-1.25 1.0312-0.9898-0.11438-1.9582 0.49597-2.9375 0.09375-1.9969-0.0052-3.9718 0.0057-5.9688 0-0.8723-0.02878-1.7261-0.04093-2.5625 0.1875-0.94258 0.36229-1.6573-0.51494-2.5-0.3125-1.1384 0.43752-1.0235-0.83921-1.2188-1.5312-0.35834 0.44614-0.86227 0.79168-1.375 1.1562 0.152 0.671 0.753 1.157 1.47 1.157h21c0.831 0 1.5-0.669 1.5-1.5v-0.625c-0.63275 0.14683-0.51223 1.1312-1.125 1.0938-0.675 0.14576-1.4454 0.08574-2.2188 0.25-1.0866-0.0058-1.2075-1.2616-1.5-2.0625z"/>
   </g>
   <g id="g3958" transform="matrix(-1,0,0,1,60,-96)">
    <path id="path3960" style="opacity:.5;color:#000000;fill:#7f7037" d="m19.5 41.406c-1.1574 0-2.0938 0.93637-2.0938 2.0938v15c0 1.1574 0.93637 2.0938 2.0938 2.0938h21c1.1574 0 2.0938-0.93637 2.0938-2.0938v-15c0-1.1574-0.93637-2.0938-2.0938-2.0938z"/>
    <rect id="rect3962" style="color:#000000;fill:url(#linearGradient5592)" rx="1.5" ry="1.5" height="12" width="24" y="42" x="18"/>
    <path id="path3964" style="opacity:.3;color:#000000;fill:#e9c6af" d="m19.5 42c-0.14889 0-0.30193 0.02246-0.4375 0.0625-0.621 0.184-1.062 0.756-1.062 1.438v0.96875c0.21712-0.46321 0.6086-0.71409 0.53125-1.3438 0.696-0.6017 1.6516-0.65128 2.5312-0.65625 0.63712-0.0082 0.91336 1.0837 1.0938 1.5938-0.09807-0.54106 0.25661-0.95139 0.71875-0.96875 0.92512-0.77658 2.0106-0.25402 3.125-0.375 0.90374-0.36661 1.8226-0.22054 2.625 0.21875 1.051-0.15974 2.0935-0.16665 3.1562-0.0625 0.91209 0.24591 2.0863-0.74769 2.5312 0.4375 1.1061 0.54922 1.6506-0.89209 2.75-0.59375 0.9275-0.03221 2.0013-0.95355 2.75 0.0625 0.77614 0.07291 1.4764 0.34296 1.5938 1.25 0.07283 0.35636 0.33049 0.51258 0.59375 0.53125v-1.063c0-0.831-0.669-1.5-1.5-1.5h-20.969c-0.009 0.002-0.021-0.002-0.031 0z"/>
    <path id="path3966" style="opacity:.3;fill:#501616" d="m18 47.062v5.438c0 0.831 0.669 1.5 1.5 1.5h21c0.831 0 1.5-0.669 1.5-1.5v-3.4688c-0.06512 0.20664-0.15642 0.40848-0.28125 0.59375-0.23442 0.58765-0.28496 1.0388-0.375 1.625 0.004 0.52142-0.22256 1.0538-0.6875 1.1875-0.36664 0.22111-1.0092 0.13993-1.5312 0.15625-0.56351-0.04729-1.2044-0.19694-1.7188 0.0625-0.83586 0.000501-1.6639-0.000366-2.5 0-0.43101 0.13571-0.95906 0.07256-1.4375 0.09375-0.5958-0.05869-1.1004 0.1036-1.6875 0.0625-0.78848-0.05152-0.63444-0.73136-1.25-0.9375-0.57128-0.18938-0.31569 0.86941-0.65625 0.9375-0.62851-0.2777-0.79688-0.73863-1.2188-1.2812-0.24491-0.59158-0.12514 0.68286-0.15625 1-0.09065 0.48052-0.64157 0.23157-1.0312 0.28125-0.79-0.129-1.617-0.045-2.438-0.062-0.499 0.003-0.941 0.191-1.156 0.469-0.506 0.241-1.242-0.147-1.875-0.094-0.48698 0.06669-1.2518 0.22082-1.625-0.0625-0.42377-0.33032-0.5477-0.4792-0.75-1 0.01408-0.48868 0.11403-0.94281-0.46875-1.2188-0.04549-0.5147 0.01284-1.1329 0.53125-1.2188 0.29732-0.38364 0.30333-1.2631 0-1.4375-0.33923-0.25892-0.84834-0.41878-1.2812-0.625-0.231-0.079-0.343-0.268-0.406-0.5z"/>
   </g>
   <g id="g3994" transform="translate(26,-96)">
    <path id="path3996" style="opacity:.5;color:#000000;fill:#7f7037" transform="translate(26)" d="m19.5 41.406c-1.1574 0-2.0938 0.93637-2.0938 2.0938v15c0 1.1574 0.93637 2.0938 2.0938 2.0938h21c1.1574 0 2.0938-0.93637 2.0938-2.0938v-15c0-1.1574-0.93637-2.0938-2.0938-2.0938z"/>
    <rect id="rect3998" style="color:#000000;fill:url(#linearGradient5596)" rx="1.5" ry="1.5" height="12" width="24" y="42" x="44"/>
    <path id="path4000" style="opacity:.3;fill:#e9c6af" d="m45.5 42c-0.831 0-1.5 0.669-1.5 1.5v2.2188c0.17218 0.03194 0.38499-0.04094 0.6875-0.25 0.55536 0.07408 1.5362 1.6221 1.3438 0.34375 0.5816-0.40029-2.2387-2.1865-0.6875-2.9688 1.3035 0.62761 2.4577-0.35877 3.7812-0.125 1.101-0.014 2.289-1.164 2.969 0.281 1.48 0.076 2.888-0.812 4.406-0.594 1.417-0.151 2.852-0.089 4.281-0.094 0.256-0.095 0.578-0.212 0.907-0.312h-16.188zm18.344 0c0.23784 0.17122 0.40979 0.4492 0.46875 0.875-0.03849 0.75934-0.11974 1.3986 0.5 0.5 0.38005-1.2783 1.4005-1.8336 2.0625-0.5 0.30534 0.14673 0.6859 0.14012 1 0.03125-0.227-0.538-0.752-0.906-1.375-0.906h-2.6562z"/>
    <path id="path4002" style="opacity:.3;fill:#501616" d="m63.156 51.156c-0.39166 0.24384-1.0516 0.59047-1.3125 1.0625 0.25476 0.87774-0.49968 1.2212-1.25 1.0312-0.9898-0.11438-1.9582 0.49597-2.9375 0.09375-1.9969-0.0052-3.9718 0.0057-5.9688 0-0.8723-0.02878-1.7261-0.04093-2.5625 0.1875-0.94258 0.36229-1.6573-0.51494-2.5-0.3125-1.1384 0.43752-1.0235-0.83921-1.2188-1.5312-0.35834 0.44614-0.86227 0.79168-1.375 1.1562 0.152 0.671 0.753 1.157 1.47 1.157h21c0.831 0 1.5-0.669 1.5-1.5v-0.625c-0.63275 0.14683-0.51223 1.1312-1.125 1.0938-0.675 0.14576-1.4454 0.08574-2.2188 0.25-1.0866-0.0058-1.2075-1.2616-1.5-2.0625z"/>
   </g>
   <path id="path4024" style="opacity:.3;fill:#501616" d="m35.515-78.023c-0.38045-0.07576-0.6432 0.3814-1.0251 0.33321 0.07688 0.36723 0.58595 0.24373 0.87456 0.29111 0.29479 0.26387 0.7368 0.04317 1.0381 0.27639 0.41976-0.08331 0.64901 0.27128 0.7649 0.60241-0.10149 0.42228 0.25747 0.69808 0.32194 1.0868 0.10049 0.18201-0.17558 0.80248 0.13137 0.67046 0.20648-0.40008 0.08434-0.89569 0.27262-1.2988 0.11934-0.37999-0.02005-0.7849 0.0482-1.1739 0.08501-0.47372-0.54977-0.45469-0.87247-0.48506-0.44133-0.01801-0.8107-0.35084-1.2739-0.29413-0.09336-0.004-0.1868-0.0059-0.28021-0.0084z"/>
   <path id="path4056" style="opacity:.3;color:#000000;fill:#782121" d="m81.565 23.481a1.0642 1.0642 0 1 1 -2.1284 0 1.0642 1.0642 0 1 1 2.1284 0z" transform="translate(0,-124)"/>
   <path id="path4058" style="opacity:.3;color:#000000;fill:#782121" d="m78.144 22.607a0.72215 0.72215 0 1 1 -1.4443 0 0.72215 0.72215 0 1 1 1.4443 0z" transform="translate(0,-124)"/>
   <path id="path4060" style="opacity:.3;color:#000000;fill:#782121" d="m78.676 36.48a0.76016 0.76016 0 1 1 -1.5203 0 0.76016 0.76016 0 1 1 1.5203 0z" transform="translate(0,-124)"/>
   <path id="path4062" style="opacity:.3;color:#000000;fill:#782121" d="m76.168 35.606a1.7864 1.7864 0 1 1 -3.5727 0 1.7864 1.7864 0 1 1 3.5727 0z" transform="translate(0,-124)"/>
   <path id="path4064" style="opacity:.3;color:#000000;fill:#782121" d="m22.425 33.705a0.76016 0.87418 0 1 1 -1.5203 0 0.76016 0.87418 0 1 1 1.5203 0z" transform="translate(0,-124)"/>
   <path id="path4066" style="opacity:.3;color:#000000;fill:#782121" d="m12.342 33.743a1.23 0.76016 0 1 1 -2.4599 0 1.23 0.76016 0 1 1 2.4599 0z" transform="translate(0,-124)"/>
   <path id="path4068" style="opacity:.3;color:#000000;fill:#782121" d="m15.735 36.594a1.9004 0.9502 0 1 1 -3.8008 0 1.9004 0.9502 0 1 1 3.8008 0z" transform="translate(0,-124)"/>
   <path id="path4070" style="opacity:.3;color:#000000;fill:#782121" d="m67.122 50.885a1.3683 0.72215 0 1 1 -2.7366 0 1.3683 0.72215 0 1 1 2.7366 0z" transform="translate(0,-124)"/>
   <path id="path4072" style="opacity:.3;color:#000000;fill:#782121" d="m50.094 45.184a0.9882 0.4941 0 1 1 -1.9764 0 0.9882 0.4941 0 1 1 1.9764 0z" transform="translate(0,-124)"/>
   <path id="path4074" style="opacity:.3;color:#000000;fill:#782121" d="m52.983 47.274a1.5203 0.76016 0 1 1 -3.0406 0 1.5203 0.76016 0 1 1 3.0406 0z" transform="translate(0,-124)"/>
   <path id="path4076" style="opacity:.3;color:#000000;fill:#782121" d="m35.575 48.452a1.1402 0.57012 0 1 1 -2.2805 0 1.1402 0.57012 0 1 1 2.2805 0z" transform="translate(0,-124)"/>
   <path id="path4078" style="opacity:.3;color:#000000;fill:#782121" d="m23.483 47.236a1.7834 1.1022 0 1 1 -3.5669 0 1.7834 1.1022 0 1 1 3.5669 0z" transform="translate(0,-124)"/>
   <path id="path4080" style="opacity:.3;color:#000000;fill:#782121" d="m23.791 7.7839a1.2915 0.79816 0 1 1 -2.5829 0 1.2915 0.79816 0 1 1 2.5829 0z" transform="translate(0,-124)"/>
   <path id="path4082" style="opacity:.3;color:#000000;fill:#782121" d="m21.261 5.3514a1.6604 1.0262 0 1 1 -3.3209 0 1.6604 1.0262 0 1 1 3.3209 0z" transform="translate(0,-124)"/>
   <path id="path4084" style="opacity:.3;color:#000000;fill:#782121" d="m16.115 7.7078a1.4443 0.72215 0 1 1 -2.8886 0 1.4443 0.72215 0 1 1 2.8886 0z" transform="translate(0,-124)"/>
   <path id="path4086" style="opacity:.3;color:#000000;fill:#782121" d="m10.967 9.3802a0.92247 0.57012 0 1 1 -1.8449 0 0.92247 0.57012 0 1 1 1.8449 0z" transform="translate(0,-124)"/>
   <path id="path4088" style="opacity:.3;color:#000000;fill:#782121" d="m9.3499 63.465a1.0642 0.53211 0 1 1 -2.1284 0 1.0642 0.53211 0 1 1 2.1284 0z" transform="translate(0,-124)"/>
   <path id="path4090" style="opacity:.3;color:#000000;fill:#782121" d="m23.033 58.562a1.1402 0.57012 0 1 1 -2.2805 0 1.1402 0.57012 0 1 1 2.2805 0z" transform="translate(0,-124)"/>
   <path id="path4092" style="opacity:.3;color:#000000;fill:#782121" d="m38.236 74.906a1.1402 0.57012 0 1 1 -2.2805 0 1.1402 0.57012 0 1 1 2.2805 0z" transform="translate(0,-124)"/>
   <path id="path4094" style="opacity:.3;color:#000000;fill:#782121" d="m25.541 76.008a2.2805 1.1402 0 1 1 -4.5609 0 2.2805 1.1402 0 1 1 4.5609 0z" transform="translate(0,-124)"/>
   <path id="path4096" style="opacity:.3;color:#000000;fill:#782121" d="m27.697 74.64a1.23 0.76016 0 1 1 -2.4599 0 1.23 0.76016 0 1 1 2.4599 0z" transform="translate(0,-124)"/>
   <path id="path4108" style="opacity:.3;color:#000000;fill:#782121" d="m86.278 72.625a1.9384 0.64613 0 1 1 -3.8768 0 1.9384 0.64613 0 1 1 3.8768 0z" transform="translate(0,-124)"/>
   <path id="path4110" style="opacity:.1;color:#000000;fill:#e9c6af" d="m30.178 45.07a1.0642 0.53211 0 1 1 -2.1284 0 1.0642 0.53211 0 1 1 2.1284 0z" transform="translate(0,-124)"/>
   <path id="path4112" style="opacity:.1;color:#000000;fill:#e9c6af" d="m64.841 45.944a1.5583 0.4941 0 1 1 -3.1166 0 1.5583 0.4941 0 1 1 3.1166 0z" transform="translate(0,-124)"/>
   <path id="path4114" style="opacity:.1;color:#000000;fill:#e9c6af" d="m20.752 37.05a1.4443 0.64613 0 1 1 -2.8886 0 1.4443 0.64613 0 1 1 2.8886 0z" transform="translate(0,-124)"/>
   <path id="path4116" style="opacity:.1;color:#000000;fill:#e9c6af" d="m83.237 16.868a1.8624 0.53211 0 1 1 -3.7248 0 1.8624 0.53211 0 1 1 3.7248 0z" transform="translate(0,-124)"/>
   <path id="path4118" style="opacity:.1;color:#000000;fill:#e9c6af" d="m34.207 76.806a0.9502 0.57012 0 1 1 -1.9004 0 0.9502 0.57012 0 1 1 1.9004 0z" transform="translate(0,-124)"/>
   <path id="path4120" style="opacity:.1;color:#000000;fill:#e9c6af" d="m37.02 77.87a0.87418 0.4941 0 1 1 -1.7484 0 0.87418 0.4941 0 1 1 1.7484 0z" transform="translate(0,-124)"/>
   <g id="g4198" transform="translate(0,-124)">
    <path id="path4132" style="opacity:.5;color:#000000;fill:#7f7037" d="m19.5 41.406c-1.1574 0-2.0938 0.93637-2.0938 2.0938v9c0 1.1574 0.93637 2.0938 2.0938 2.0938h21c1.1574 0 2.0938-0.93637 2.0938-2.0938v-9c0-1.1574-0.93637-2.0938-2.0938-2.0938h-21z" transform="translate(12,-14)"/>
    <rect id="rect3721" style="color:#000000;fill:url(#linearGradient5614)" rx="1.5" ry="1.5" height="12" width="24" y="28" x="30"/>
    <path id="path4148" style="opacity:.3;fill:#fca" d="m31.5 28c-0.78986 0-1.4382 0.60156-1.5 1.375 0.49595-0.26287 1.1986-0.23748 1.375-0.09375-0.06605-0.89457 0.91623-1.1897 1.5312-0.75 0.72997-0.1202 1.5028-0.6548 2.0312 0.09375 0.9557 0.08592 1.9032-0.16836 2.8438-0.21875 0.70222 0.27893 1.4991 0.12458 2.0938 0.5-0.39536 0.2309-0.92376 1.4978-0.0625 1.4062 0.38541-0.72225 1.6109-0.753 1.4375-1.6875 0.64261-0.77069 1.6816-0.0602 2.25 0.4375 0.37549 0.44581 0.77461 0.38455 0.53125-0.25 0.48123-0.8993 1.6501-0.47792 2.4688-0.5 1.1623 0.11016 2.3817 0.36827 3.5312 0.03125 1.2249-0.15037 2.2016 0.66839 3.2188 0.9375 0.21756 0.10332 0.49618 0.15264 0.75 0.15625-0.032-0.802-0.69-1.437-1.5-1.437h-21z"/>
    <path id="path4155" style="opacity:.3;fill:#502d16" d="m30 32.656v3.625c0.25078-0.26974 0.52319-0.53156 0.75-0.8125-0.944-0.833 0.427-1.341 1.125-1.468 0.343-0.908-1.023-1.042-1.875-1.344zm24 3.125c-0.2403 0.2015-0.45664 0.6699-0.71875 0.9375-0.41498 0.9317-0.39667 2.2292-1.75 2.3438-1.2066 0.83329-2.5108 0.10497-3.75-0.1875-1.2764 0.39639-2.2934-0.76032-3.5-0.90625-0.93115 0.13843-1.5584 1.1061-2.4688 1.4062-1.1321 0.51859-2.3259-0.31198-3.5 0.03125-1.3884 0.36368-2.8077 0.15449-4.2188 0.0625-0.922 0.114-1.749-0.736-2.655-0.218-0.195 0.262-0.447 0.435-0.719 0.531 0.227 0.138 0.495 0.219 0.781 0.219h21c0.831 0 1.5-0.669 1.5-1.5v-2.7188z"/>
   </g>
   <g id="g4192" transform="translate(0,-124)">
    <path id="path4172" style="opacity:.5;color:#000000;fill:#7f7037" d="m19.5 41.406c-1.1574 0-2.0938 0.93637-2.0938 2.0938v9c0 1.1574 0.93637 2.0938 2.0938 2.0938h21c1.1574 0 2.0938-0.93637 2.0938-2.0938v-9c0-1.1574-0.93637-2.0938-2.0938-2.0938h-21z" transform="translate(26,-28)"/>
    <rect id="rect3731" style="color:#000000;fill:url(#linearGradient5616)" rx="1.5" ry="1.5" height="12" width="24" y="14" x="44"/>
    <path id="path4174" style="opacity:.3;fill:#e9c6af" d="m48.281 14c0.63601 0.94092 1.8157 1.2641 2.5938 0.25 0.11295-0.09197 0.24712-0.16592 0.375-0.25h-2.9688zm5.8438 0c1.2013 0.61919 2.6276 0.5759 3.9375 0.8125 1.964 0.0654 3.9499-0.38518 5.9062-0.0625 0.93643 0.49398 1.8179 0.7228 2.875 0.84375 0.332 0.306 0.732 0.889 1.156 1.156v-1.25c0-0.831-0.669-1.5-1.5-1.5h-12.375zm-10.125 2.781v1.3125c0.68465 0.01896 1.5322 0.49786 1.8438 0.28125 0.104-1.215-1.057-1.264-1.844-1.594z"/>
    <path id="path4183" style="opacity:.3;fill:#502d16" d="m44 21.531v2.969c0 0.831 0.669 1.5 1.5 1.5h21c0.831 0 1.5-0.669 1.5-1.5v-1.5c-0.63233 0.24671-1.1657 1.5606-1.8125 1.875-1.0009 0.68391-2.0449-0.2579-3-0.5625-0.75684 0.35133-1.7511 0.79559-2.7188 0.78125-0.79424 0.24914-1.6254 0.20437-2.4375 0.0625-0.82971-0.2488-1.6619 0.06977-2.4688 0-0.94739-0.49256-0.89364-1.7175-1.2812-2.5625-0.15494 1.0117-1.6061 0.5333-1.8125 1.625-0.33941 1.4773-2.0689 0.54927-2.375-0.46875-0.30903 0.05833-0.75747 1.7728-1.7812 1.4062-1.0924 0.09798-2.4959 0.15844-3.1875-0.875-0.28082-0.91635-0.36441-2.0802-1.125-2.75z"/>
   </g>
   <g id="g4204" transform="matrix(-1,0,0,1,110,-152)">
    <path id="path4206" style="opacity:.5;color:#000000;fill:#7f7037" d="m19.5 41.406c-1.1574 0-2.0938 0.93637-2.0938 2.0938v9c0 1.1574 0.93637 2.0938 2.0938 2.0938h21c1.1574 0 2.0938-0.93637 2.0938-2.0938v-9c0-1.1574-0.93637-2.0938-2.0938-2.0938h-21z" transform="translate(12,-14)"/>
    <rect id="rect4208" style="color:#000000;fill:url(#linearGradient5614)" rx="1.5" ry="1.5" height="12" width="24" y="28" x="30"/>
    <path id="path4210" style="opacity:.3;fill:#fca" d="m31.5 28c-0.78986 0-1.4382 0.60156-1.5 1.375 0.49595-0.26287 1.1986-0.23748 1.375-0.09375-0.06605-0.89457 0.91623-1.1897 1.5312-0.75 0.72997-0.1202 1.5028-0.6548 2.0312 0.09375 0.9557 0.08592 1.9032-0.16836 2.8438-0.21875 0.70222 0.27893 1.4991 0.12458 2.0938 0.5-0.39536 0.2309-0.92376 1.4978-0.0625 1.4062 0.38541-0.72225 1.6109-0.753 1.4375-1.6875 0.64261-0.77069 1.6816-0.0602 2.25 0.4375 0.37549 0.44581 0.77461 0.38455 0.53125-0.25 0.48123-0.8993 1.6501-0.47792 2.4688-0.5 1.1623 0.11016 2.3817 0.36827 3.5312 0.03125 1.2249-0.15037 2.2016 0.66839 3.2188 0.9375 0.21756 0.10332 0.49618 0.15264 0.75 0.15625-0.032-0.802-0.69-1.437-1.5-1.437h-21z"/>
    <path id="path4212" style="opacity:.3;fill:#502d16" d="m30 32.656v3.625c0.25078-0.26974 0.52319-0.53156 0.75-0.8125-0.944-0.833 0.427-1.341 1.125-1.468 0.343-0.908-1.023-1.042-1.875-1.344zm24 3.125c-0.2403 0.2015-0.45664 0.6699-0.71875 0.9375-0.41498 0.9317-0.39667 2.2292-1.75 2.3438-1.2066 0.83329-2.5108 0.10497-3.75-0.1875-1.2764 0.39639-2.2934-0.76032-3.5-0.90625-0.93115 0.13843-1.5584 1.1061-2.4688 1.4062-1.1321 0.51859-2.3259-0.31198-3.5 0.03125-1.3884 0.36368-2.8077 0.15449-4.2188 0.0625-0.922 0.114-1.749-0.736-2.655-0.218-0.195 0.262-0.447 0.435-0.719 0.531 0.227 0.138 0.495 0.219 0.781 0.219h21c0.831 0 1.5-0.669 1.5-1.5v-2.7188z"/>
   </g>
   <g id="g4216" transform="matrix(-1,0,0,1,60,-124)">
    <path id="path4218" style="opacity:.5;color:#000000;fill:#7f7037" d="m19.5 41.406c-1.1574 0-2.0938 0.93637-2.0938 2.0938v9c0 1.1574 0.93637 2.0938 2.0938 2.0938h21c1.1574 0 2.0938-0.93637 2.0938-2.0938v-9c0-1.1574-0.93637-2.0938-2.0938-2.0938h-21z" transform="translate(26,-28)"/>
    <rect id="rect4220" style="color:#000000;fill:url(#linearGradient5616)" rx="1.5" ry="1.5" height="12" width="24" y="14" x="44"/>
    <path id="path4222" style="opacity:.3;fill:#e9c6af" d="m48.281 14c0.63601 0.94092 1.8157 1.2641 2.5938 0.25 0.11295-0.09197 0.24712-0.16592 0.375-0.25h-2.9688zm5.8438 0c1.2013 0.61919 2.6276 0.5759 3.9375 0.8125 1.964 0.0654 3.9499-0.38518 5.9062-0.0625 0.93643 0.49398 1.8179 0.7228 2.875 0.84375 0.332 0.306 0.732 0.889 1.156 1.156v-1.25c0-0.831-0.669-1.5-1.5-1.5h-12.375zm-10.125 2.781v1.3125c0.68465 0.01896 1.5322 0.49786 1.8438 0.28125 0.104-1.215-1.057-1.264-1.844-1.594z"/>
    <path id="path4224" style="opacity:.3;fill:#502d16" d="m44 21.531v2.969c0 0.831 0.669 1.5 1.5 1.5h21c0.831 0 1.5-0.669 1.5-1.5v-1.5c-0.63233 0.24671-1.1657 1.5606-1.8125 1.875-1.0009 0.68391-2.0449-0.2579-3-0.5625-0.75684 0.35133-1.7511 0.79559-2.7188 0.78125-0.79424 0.24914-1.6254 0.20437-2.4375 0.0625-0.82971-0.2488-1.6619 0.06977-2.4688 0-0.94739-0.49256-0.89364-1.7175-1.2812-2.5625-0.15494 1.0117-1.6061 0.5333-1.8125 1.625-0.33941 1.4773-2.0689 0.54927-2.375-0.46875-0.30903 0.05833-0.75747 1.7728-1.7812 1.4062-1.0924 0.09798-2.4959 0.15844-3.1875-0.875-0.28082-0.91635-0.36441-2.0802-1.125-2.75z"/>
   </g>
   <g id="g4228" transform="matrix(-1,0,0,1,46,-110)">
    <path id="path4230" style="opacity:.5;color:#000000;fill:#7f7037" d="m19.5 41.406c-1.1574 0-2.0938 0.93637-2.0938 2.0938v9c0 1.1574 0.93637 2.0938 2.0938 2.0938h21c1.1574 0 2.0938-0.93637 2.0938-2.0938v-9c0-1.1574-0.93637-2.0938-2.0938-2.0938h-21z" transform="translate(12,-14)"/>
    <rect id="rect4232" style="color:#000000;fill:url(#linearGradient5614)" rx="1.5" ry="1.5" height="12" width="24" y="28" x="30"/>
    <path id="path4234" style="opacity:.3;fill:#fca" d="m31.5 28c-0.78986 0-1.4382 0.60156-1.5 1.375 0.49595-0.26287 1.1986-0.23748 1.375-0.09375-0.06605-0.89457 0.91623-1.1897 1.5312-0.75 0.72997-0.1202 1.5028-0.6548 2.0312 0.09375 0.9557 0.08592 1.9032-0.16836 2.8438-0.21875 0.70222 0.27893 1.4991 0.12458 2.0938 0.5-0.39536 0.2309-0.92376 1.4978-0.0625 1.4062 0.38541-0.72225 1.6109-0.753 1.4375-1.6875 0.64261-0.77069 1.6816-0.0602 2.25 0.4375 0.37549 0.44581 0.77461 0.38455 0.53125-0.25 0.48123-0.8993 1.6501-0.47792 2.4688-0.5 1.1623 0.11016 2.3817 0.36827 3.5312 0.03125 1.2249-0.15037 2.2016 0.66839 3.2188 0.9375 0.21756 0.10332 0.49618 0.15264 0.75 0.15625-0.032-0.802-0.69-1.437-1.5-1.437h-21z"/>
    <path id="path4236" style="opacity:.3;fill:#502d16" d="m30 32.656v3.625c0.25078-0.26974 0.52319-0.53156 0.75-0.8125-0.944-0.833 0.427-1.341 1.125-1.468 0.343-0.908-1.023-1.042-1.875-1.344zm24 3.125c-0.2403 0.2015-0.45664 0.6699-0.71875 0.9375-0.41498 0.9317-0.39667 2.2292-1.75 2.3438-1.2066 0.83329-2.5108 0.10497-3.75-0.1875-1.2764 0.39639-2.2934-0.76032-3.5-0.90625-0.93115 0.13843-1.5584 1.1061-2.4688 1.4062-1.1321 0.51859-2.3259-0.31198-3.5 0.03125-1.3884 0.36368-2.8077 0.15449-4.2188 0.0625-0.922 0.114-1.749-0.736-2.655-0.218-0.195 0.262-0.447 0.435-0.719 0.531 0.227 0.138 0.495 0.219 0.781 0.219h21c0.831 0 1.5-0.669 1.5-1.5v-2.7188z"/>
   </g>
   <g id="g4240" transform="translate(-52,-68)">
    <path id="path4242" style="opacity:.5;color:#000000;fill:#7f7037" transform="translate(26,-28)" d="m19.5 41.406c-1.1574 0-2.0938 0.93637-2.0938 2.0938v15c0 1.1574 0.93637 2.0938 2.0938 2.0938h21c1.1574 0 2.0938-0.93637 2.0938-2.0938v-15c0-1.1574-0.93637-2.0938-2.0938-2.0938z"/>
    <rect id="rect4244" style="color:#000000;fill:url(#linearGradient5616)" rx="1.5" ry="1.5" height="12" width="24" y="14" x="44"/>
    <path id="path4246" style="opacity:.3;fill:#e9c6af" d="m48.281 14c0.63601 0.94092 1.8157 1.2641 2.5938 0.25 0.11295-0.09197 0.24712-0.16592 0.375-0.25h-2.9688zm5.8438 0c1.2013 0.61919 2.6276 0.5759 3.9375 0.8125 1.964 0.0654 3.9499-0.38518 5.9062-0.0625 0.93643 0.49398 1.8179 0.7228 2.875 0.84375 0.332 0.306 0.732 0.889 1.156 1.156v-1.25c0-0.831-0.669-1.5-1.5-1.5h-12.375zm-10.125 2.781v1.3125c0.68465 0.01896 1.5322 0.49786 1.8438 0.28125 0.104-1.215-1.057-1.264-1.844-1.594z"/>
    <path id="path4248" style="opacity:.3;fill:#502d16" d="m44 21.531v2.969c0 0.831 0.669 1.5 1.5 1.5h21c0.831 0 1.5-0.669 1.5-1.5v-1.5c-0.63233 0.24671-1.1657 1.5606-1.8125 1.875-1.0009 0.68391-2.0449-0.2579-3-0.5625-0.75684 0.35133-1.7511 0.79559-2.7188 0.78125-0.79424 0.24914-1.6254 0.20437-2.4375 0.0625-0.82971-0.2488-1.6619 0.06977-2.4688 0-0.94739-0.49256-0.89364-1.7175-1.2812-2.5625-0.15494 1.0117-1.6061 0.5333-1.8125 1.625-0.33941 1.4773-2.0689 0.54927-2.375-0.46875-0.30903 0.05833-0.75747 1.7728-1.7812 1.4062-1.0924 0.09798-2.4959 0.15844-3.1875-0.875-0.28082-0.91635-0.36441-2.0802-1.125-2.75z"/>
   </g>
   <g id="g4252" transform="translate(-14,-82)">
    <path id="path4254" style="opacity:.5;color:#000000;fill:#7f7037" d="m19.5 41.406c-1.1574 0-2.0938 0.93637-2.0938 2.0938v9c0 1.1574 0.93637 2.0938 2.0938 2.0938h21c1.1574 0 2.0938-0.93637 2.0938-2.0938v-9c0-1.1574-0.93637-2.0938-2.0938-2.0938h-21z" transform="translate(26,-28)"/>
    <rect id="rect4256" style="color:#000000;fill:url(#linearGradient5616)" rx="1.5" ry="1.5" height="12" width="24" y="14" x="44"/>
    <path id="path4258" style="opacity:.3;fill:#e9c6af" d="m48.281 14c0.63601 0.94092 1.8157 1.2641 2.5938 0.25 0.11295-0.09197 0.24712-0.16592 0.375-0.25h-2.9688zm5.8438 0c1.2013 0.61919 2.6276 0.5759 3.9375 0.8125 1.964 0.0654 3.9499-0.38518 5.9062-0.0625 0.93643 0.49398 1.8179 0.7228 2.875 0.84375 0.332 0.306 0.732 0.889 1.156 1.156v-1.25c0-0.831-0.669-1.5-1.5-1.5h-12.375zm-10.125 2.781v1.3125c0.68465 0.01896 1.5322 0.49786 1.8438 0.28125 0.104-1.215-1.057-1.264-1.844-1.594z"/>
    <path id="path4260" style="opacity:.3;fill:#502d16" d="m44 21.531v2.969c0 0.831 0.669 1.5 1.5 1.5h21c0.831 0 1.5-0.669 1.5-1.5v-1.5c-0.63233 0.24671-1.1657 1.5606-1.8125 1.875-1.0009 0.68391-2.0449-0.2579-3-0.5625-0.75684 0.35133-1.7511 0.79559-2.7188 0.78125-0.79424 0.24914-1.6254 0.20437-2.4375 0.0625-0.82971-0.2488-1.6619 0.06977-2.4688 0-0.94739-0.49256-0.89364-1.7175-1.2812-2.5625-0.15494 1.0117-1.6061 0.5333-1.8125 1.625-0.33941 1.4773-2.0689 0.54927-2.375-0.46875-0.30903 0.05833-0.75747 1.7728-1.7812 1.4062-1.0924 0.09798-2.4959 0.15844-3.1875-0.875-0.28082-0.91635-0.36441-2.0802-1.125-2.75z"/>
   </g>
   <g id="g4264" transform="matrix(-1,0,0,1,110,-96)">
    <path id="path4266" style="opacity:.5;color:#000000;fill:#7f7037" d="m19.5 41.406c-1.1574 0-2.0938 0.93637-2.0938 2.0938v9c0 1.1574 0.93637 2.0938 2.0938 2.0938h21c1.1574 0 2.0938-0.93637 2.0938-2.0938v-9c0-1.1574-0.93637-2.0938-2.0938-2.0938h-21z" transform="translate(12,-14)"/>
    <rect id="rect4268" style="color:#000000;fill:url(#linearGradient5614)" rx="1.5" ry="1.5" height="12" width="24" y="28" x="30"/>
    <path id="path4270" style="opacity:.3;fill:#fca" d="m31.5 28c-0.78986 0-1.4382 0.60156-1.5 1.375 0.49595-0.26287 1.1986-0.23748 1.375-0.09375-0.06605-0.89457 0.91623-1.1897 1.5312-0.75 0.72997-0.1202 1.5028-0.6548 2.0312 0.09375 0.9557 0.08592 1.9032-0.16836 2.8438-0.21875 0.70222 0.27893 1.4991 0.12458 2.0938 0.5-0.39536 0.2309-0.92376 1.4978-0.0625 1.4062 0.38541-0.72225 1.6109-0.753 1.4375-1.6875 0.64261-0.77069 1.6816-0.0602 2.25 0.4375 0.37549 0.44581 0.77461 0.38455 0.53125-0.25 0.48123-0.8993 1.6501-0.47792 2.4688-0.5 1.1623 0.11016 2.3817 0.36827 3.5312 0.03125 1.2249-0.15037 2.2016 0.66839 3.2188 0.9375 0.21756 0.10332 0.49618 0.15264 0.75 0.15625-0.032-0.802-0.69-1.437-1.5-1.437h-21z"/>
    <path id="path4272" style="opacity:.3;fill:#502d16" d="m30 32.656v3.625c0.25078-0.26974 0.52319-0.53156 0.75-0.8125-0.944-0.833 0.427-1.341 1.125-1.468 0.343-0.908-1.023-1.042-1.875-1.344zm24 3.125c-0.2403 0.2015-0.45664 0.6699-0.71875 0.9375-0.41498 0.9317-0.39667 2.2292-1.75 2.3438-1.2066 0.83329-2.5108 0.10497-3.75-0.1875-1.2764 0.39639-2.2934-0.76032-3.5-0.90625-0.93115 0.13843-1.5584 1.1061-2.4688 1.4062-1.1321 0.51859-2.3259-0.31198-3.5 0.03125-1.3884 0.36368-2.8077 0.15449-4.2188 0.0625-0.922 0.114-1.749-0.736-2.655-0.218-0.195 0.262-0.447 0.435-0.719 0.531 0.227 0.138 0.495 0.219 0.781 0.219h21c0.831 0 1.5-0.669 1.5-1.5v-2.7188z"/>
   </g>
   <g id="g4276" transform="matrix(-1,0,0,1,150,-110)">
    <path id="path4278" style="opacity:.5;color:#000000;fill:#7f7037" d="m19.5 41.406c-1.1574 0-2.0938 0.93637-2.0938 2.0938v9c0 1.1574 0.93637 2.0938 2.0938 2.0938h21c1.1574 0 2.0938-0.93637 2.0938-2.0938v-9c0-1.1574-0.93637-2.0938-2.0938-2.0938h-21z" transform="translate(26,-28)"/>
    <rect id="rect4280" style="color:#000000;fill:url(#linearGradient5616)" rx="1.5" ry="1.5" height="12" width="24" y="14" x="44"/>
    <path id="path4282" style="opacity:.3;fill:#e9c6af" d="m48.281 14c0.63601 0.94092 1.8157 1.2641 2.5938 0.25 0.11295-0.09197 0.24712-0.16592 0.375-0.25h-2.9688zm5.8438 0c1.2013 0.61919 2.6276 0.5759 3.9375 0.8125 1.964 0.0654 3.9499-0.38518 5.9062-0.0625 0.93643 0.49398 1.8179 0.7228 2.875 0.84375 0.332 0.306 0.732 0.889 1.156 1.156v-1.25c0-0.831-0.669-1.5-1.5-1.5h-12.375zm-10.125 2.781v1.3125c0.68465 0.01896 1.5322 0.49786 1.8438 0.28125 0.104-1.215-1.057-1.264-1.844-1.594z"/>
    <path id="path4284" style="opacity:.3;fill:#502d16" d="m44 21.531v2.969c0 0.831 0.669 1.5 1.5 1.5h21c0.831 0 1.5-0.669 1.5-1.5v-1.5c-0.63233 0.24671-1.1657 1.5606-1.8125 1.875-1.0009 0.68391-2.0449-0.2579-3-0.5625-0.75684 0.35133-1.7511 0.79559-2.7188 0.78125-0.79424 0.24914-1.6254 0.20437-2.4375 0.0625-0.82971-0.2488-1.6619 0.06977-2.4688 0-0.94739-0.49256-0.89364-1.7175-1.2812-2.5625-0.15494 1.0117-1.6061 0.5333-1.8125 1.625-0.33941 1.4773-2.0689 0.54927-2.375-0.46875-0.30903 0.05833-0.75747 1.7728-1.7812 1.4062-1.0924 0.09798-2.4959 0.15844-3.1875-0.875-0.28082-0.91635-0.36441-2.0802-1.125-2.75z"/>
   </g>
   <path id="path4300" style="opacity:.3;color:#000000;fill:#502d16" d="m13.379 45.184a1.2923 0.79816 0 1 1 -2.5845 0 1.2923 0.79816 0 1 1 2.5845 0z" transform="translate(0,-124)"/>
   <path id="path4302" style="opacity:.3;color:#000000;fill:#502d16" d="m35.195 64.644a0.76016 0.4941 0 1 1 -1.5203 0 0.76016 0.4941 0 1 1 1.5203 0z" transform="translate(0,-124)"/>
   <path id="path4304" style="opacity:.3;color:#000000;fill:#502d16" d="m41.809 62.857a1.5203 0.91219 0 1 1 -3.0406 0 1.5203 0.91219 0 1 1 3.0406 0z" transform="translate(0,-124)"/>
   <path id="path4306" style="opacity:.3;color:#000000;fill:#502d16" d="m52.451 60.729a1.0642 0.45609 0 1 1 -2.1284 0 1.0642 0.45609 0 1 1 2.1284 0z" transform="translate(0,-124)"/>
   <path id="path4308" style="opacity:.3;color:#000000;fill:#502d16" d="m60.356 63.085a1.1782 0.60813 0 1 1 -2.3565 0 1.1782 0.60813 0 1 1 2.3565 0z" transform="translate(0,-124)"/>
   <path id="path4310" style="opacity:.3;color:#000000;fill:#502d16" d="m70.999 60.615a1.2543 0.72215 0 1 1 -2.5085 0 1.2543 0.72215 0 1 1 2.5085 0z" transform="translate(0,-124)"/>
   <path id="path4312" style="opacity:.3;color:#000000;fill:#502d16" d="m7.6016 73.081a1.0642 0.41809 0 1 1 -2.1284 0 1.0642 0.41809 0 1 1 2.1284 0z" transform="translate(0,-124)"/>
   <path id="path4314" style="opacity:.3;color:#000000;fill:#502d16" d="m13.987 77.148a1.3683 0.9882 0 1 1 -2.7366 0 1.3683 0.9882 0 1 1 2.7366 0z" transform="translate(0,-124)"/>
   <path id="path4316" style="opacity:.3;color:#000000;fill:#502d16" d="m7.7536 77.794a1.2923 0.57012 0 1 1 -2.5845 0 1.2923 0.57012 0 1 1 2.5845 0z" transform="translate(0,-124)"/>
   <path id="path4322" style="opacity:.3;color:#000000;fill:#502d16" d="m35.575 32.565a1.0262 0.34207 0 1 1 -2.0524 0 1.0262 0.34207 0 1 1 2.0524 0z" transform="translate(0,-124)"/>
   <path id="path4324" style="opacity:.3;color:#000000;fill:#502d16" d="m44.241 35.834a1.2543 0.64613 0 1 1 -2.5085 0 1.2543 0.64613 0 1 1 2.5085 0z" transform="translate(0,-124)"/>
   <path id="path4326" style="opacity:.3;color:#000000;fill:#502d16" d="m47.586 35.111a1.0642 0.60813 0 1 1 -2.1284 0 1.0642 0.60813 0 1 1 2.1284 0z" transform="translate(0,-124)"/>
   <path id="path4328" style="opacity:.3;color:#000000;fill:#502d16" d="m50.778 31.805a1.5203 0.79816 0 1 1 -3.0406 0 1.5203 0.79816 0 1 1 3.0406 0z" transform="translate(0,-124)"/>
   <path id="path4330" style="opacity:.3;color:#000000;fill:#502d16" d="m52.603 17.78a2.0144 0.76016 0 1 1 -4.0288 0 2.0144 0.76016 0 1 1 4.0288 0z" transform="translate(0,-124)"/>
   <path id="path4332" style="opacity:.3;color:#000000;fill:#502d16" d="m51.843 19.87a1.0262 0.19004 0 1 1 -2.0524 0 1.0262 0.19004 0 1 1 2.0524 0z" transform="translate(0,-124)"/>
   <path id="path4334" style="opacity:.3;color:#000000;fill:#502d16" d="m61.649 22.873a1.1022 0.53211 0 1 1 -2.2045 0 1.1022 0.53211 0 1 1 2.2045 0z" transform="translate(0,-124)"/>
   <path id="path4336" style="opacity:.3;color:#000000;fill:#502d16" d="m63.473 4.5152a1.4063 0.72215 0 1 1 -2.8126 0 1.4063 0.72215 0 1 1 2.8126 0z" transform="translate(0,-124)"/>
   <path id="path4338" style="opacity:.3;color:#000000;fill:#502d16" d="m61.345 9.1521a0.79816 0.34207 0 1 1 -1.5963 0 0.79816 0.34207 0 1 1 1.5963 0z" transform="translate(0,-124)"/>
   <path id="path4340" style="opacity:.3;color:#000000;fill:#502d16" d="m12.391 21.011a1.2543 0.72215 0 1 1 -2.5085 0 1.2543 0.72215 0 1 1 2.5085 0z" transform="translate(0,-124)"/>
   <path id="path4342" style="opacity:.3;color:#000000;fill:#502d16" d="m87.114 33.933a0.83617 0.34207 0 1 1 -1.6723 0 0.83617 0.34207 0 1 1 1.6723 0z" transform="translate(0,-124)"/>
   <path id="path4344" style="opacity:.3;color:#000000;fill:#502d16" d="m88.026 36.176a1.9004 0.53211 0 1 1 -3.8008 0 1.9004 0.53211 0 1 1 3.8008 0z" transform="translate(0,-124)"/>
   <path id="path4346" style="opacity:.1;color:#000000;fill:#e9c6af" d="m58.152 21.923a1.2163 0.72215 0 1 1 -2.4325 0 1.2163 0.72215 0 1 1 2.4325 0z" transform="translate(0,-124)"/>
   <path id="path4348" style="opacity:.1;color:#000000;fill:#e9c6af" d="m69.098 3.9071a1.1022 0.41809 0 1 1 -2.2045 0 1.1022 0.41809 0 1 1 2.2045 0z" transform="translate(0,-124)"/>
   <path id="path4350" style="opacity:.1;color:#000000;fill:#e9c6af" d="m76.776 8.24a1.6343 0.64613 0 1 1 -3.2687 0 1.6343 0.64613 0 1 1 3.2687 0z" transform="translate(0,-124)"/>
   <path id="path4352" style="opacity:.1;color:#000000;fill:#e9c6af" d="m90.079 31.501a0.83617 0.41809 0 1 1 -1.6723 0 0.83617 0.41809 0 1 1 1.6723 0z" transform="translate(0,-124)"/>
   <path id="path4354" style="opacity:.1;color:#000000;fill:#e9c6af" d="m35.347 36.974a1.2543 0.57012 0 1 1 -2.5085 0 1.2543 0.57012 0 1 1 2.5085 0z" transform="translate(0,-124)"/>
   <path id="path4356" style="opacity:.1;color:#000000;fill:#e9c6af" d="m9.0459 45.792a0.64613 0.26605 0 1 1 -1.2923 0 0.64613 0.26605 0 1 1 1.2923 0z" transform="translate(0,-124)"/>
   <path id="path4358" style="opacity:.1;color:#000000;fill:#e9c6af" d="m13.987 50.923a1.4063 0.83617 0 1 1 -2.8126 0 1.4063 0.83617 0 1 1 2.8126 0z" transform="translate(0,-124)"/>
   <path id="path4360" style="opacity:.1;color:#000000;fill:#e9c6af" d="m36.183 59.018a0.64613 0.26605 0 1 1 -1.2923 0 0.64613 0.26605 0 1 1 1.2923 0z" transform="translate(0,-124)"/>
   <path id="path4362" style="opacity:.1;color:#000000;fill:#e9c6af" d="m52.299 64.035a1.1402 0.57012 0 1 1 -2.2805 0 1.1402 0.57012 0 1 1 2.2805 0z" transform="translate(0,-124)"/>
   <path id="path4364" style="opacity:.1;color:#000000;fill:#e9c6af" d="m60.813 59.36a1.3683 0.60813 0 1 1 -2.7366 0 1.3683 0.60813 0 1 1 2.7366 0z" transform="translate(0,-124)"/>
   <path id="path4366" style="opacity:.1;color:#000000;fill:#e9c6af" d="m63.397 61.071a0.9882 0.4941 0 1 1 -1.9764 0 0.9882 0.4941 0 1 1 1.9764 0z" transform="translate(0,-124)"/>
   <path id="path4368" style="opacity:.1;color:#000000;fill:#e9c6af" d="m12.467 73.423a1.1402 0.45609 0 1 1 -2.2805 0 1.1402 0.45609 0 1 1 2.2805 0z" transform="translate(0,-124)"/>
   <path id="path4370" style="opacity:.1;color:#000000;fill:#e9c6af" d="m15.507 74.526a0.9502 0.41809 0 1 1 -1.9004 0 0.9502 0.41809 0 1 1 1.9004 0z" transform="translate(0,-124)"/>
   <g id="g4449" transform="translate(0,-124)">
    <path id="path4376" style="opacity:.5;color:#000000;fill:#7f7037" d="m19.5 41.406c-1.1574 0-2.0938 0.93637-2.0938 2.0938v9c0 1.1574 0.93637 2.0938 2.0938 2.0938h21c1.1574 0 2.0938-0.93637 2.0938-2.0938v-9c0-1.1574-0.93637-2.0938-2.0938-2.0938h-21z" transform="translate(0,-28)"/>
    <rect id="rect3729" style="color:#000000;fill:url(#linearGradient5632)" rx="1.5" ry="1.5" height="12" width="24" y="14" x="18"/>
    <path id="path4400" style="opacity:.3;fill:#f4d7d7" d="m19.5 14c-0.831 0-1.5 0.669-1.5 1.5v0.28125c0.38313-0.53322 0.78347-1.0024 1.4375-0.53125 0.77081-0.497 1.6632-0.64878 2.5625-0.59375 1.0898-0.10845 2.5145-0.39278 3.0625 0.875 0.25396 0.41335 0.3875 1.019 0.5 0.21875 0.36482-1.0175 1.5194-1.0899 2.4375-1.0625 1.8328-0.05682 3.6669-0.1806 5.5-0.1875 1.2747 0.03031 2.5757-0.0776 3.8125 0.3125 0.87126 0.58062 1.8456-0.53133 2.5938 0.03125 0.05472 0.2652-0.64444 1.5141-0.1875 1.2812 0.26455-1.1156 1.8637-1.276 2.2188-0.125 0.02133 0.012 0.04131 0.02072 0.0625 0.03125v-0.531c0-0.831-0.669-1.5-1.5-1.5h-21z"/>
    <path id="path4408" style="opacity:.3;fill:#501616" d="m42 19.812c-0.20071 0.02776-0.41188 0.14152-0.59375 0.375-0.88527-0.3707-0.84412 0.69148-0.53125 1.1875 0.14917 0.50735 0.64387 0.66599 1.125 0.84375v-2.406zm-24 3.094v1.594c0 0.831 0.669 1.5 1.5 1.5h21c0.831 0 1.5-0.669 1.5-1.5v-0.03125c-0.46304 0.07658-0.95921 0.14408-1.25 0.375-1.3167 0.60047-2.6001-0.2783-3.9375-0.15625-1.1662 0.1405-2.2749 0.3956-3.4375 0.53125-1.4142 0.05498-2.8499-0.18702-4.25 0.125-1.4008 0.55802-2.3313-0.46982-3.0312-1.5-1.3681-0.73505-0.99136 1.8353-2.4375 1.2812-1.291-0.422-2.612 0.004-3.906-0.094-0.806-0.45-1.216-1.346-1.75-2.125z"/>
   </g>
   <g id="g4443" transform="translate(0,-124)">
    <path id="path4416" style="opacity:.5;color:#000000;fill:#7f7037" d="m19.5 41.406c-1.1574 0-2.0938 0.93637-2.0938 2.0938v9c0 1.1574 0.93637 2.0938 2.0938 2.0938h21c1.1574 0 2.0938-0.93637 2.0938-2.0938v-9c0-1.1574-0.93637-2.0938-2.0938-2.0938h-21z" transform="translate(12,-42)"/>
    <rect id="rect3739" style="color:#000000;fill:url(#linearGradient5634)" rx="1.5" ry="1.5" height="12" width="24" y="0" x="30"/>
    <path id="path4418" style="opacity:.3;fill:#f4d7d7" d="m33.031 0c0.42908 0.3739 0.9604 0.64797 1.4688 0.90625 1.0233-0.035155 1.9699-0.78397 3-0.1875 1.0819 0.094266 2.2961-0.44293 3.25 0.28125 0.65929 0.74519 1.2573-0.79964 2.1875-0.40625 1.334 0.21193 2.6928 0.11051 4.0312 0 1.2039-0.073282 2.6119-0.12324 3.4375 0.9375 0.459 0.32366 0.66287 1.7787 0.875 0.59375 0.19393-0.842 1.1894-2.227 2-1.25 0.166 0.4957 0.56 1.0309 0.718 1.5625v-0.9375c0-0.831-0.669-1.5-1.5-1.5h-19.469zm-1.843 0.03125c-0.685 0.13941-1.188 0.74163-1.188 1.4688v1.75c0.259-0.0649 0.497-0.1032 0.594-0.0938-0.36-0.9824-0.555-2.1861 0.5-2.7812 0.045-0.07688 0.059-0.22054 0.094-0.34375zm22.812 3.1562c-0.037 0.1083-0.073 0.2388-0.156 0.3437-0.174 0.4635-0.066 0.6931 0.156 0.7813v-1.125z"/>
    <path id="path4427" style="opacity:.3;fill:#501616" d="m53.938 6c-0.453 0.0629-0.723 0.3889-0.563 0.9375-0.14 0.5182 0.212 0.6468 0.625 0.75v-1.6875c-0.019 0.0017-0.044-0.0026-0.062 0zm-23.938 1.25v3.25c0 0.831 0.669 1.5 1.5 1.5h21c0.831 0 1.5-0.669 1.5-1.5v-0.875c-0.26507 0.21539-0.4878 0.46913-0.5625 0.75-0.57575 1.2809-2.0687 0.6229-3.1562 0.8125-1.2502 0.29507-2.5413 0.18223-3.8125 0.21875-1.1264 0.11033-1.358-0.96089-1.375-1.7812-0.80403 0.070726-0.81852 2.0299-1.7188 1.0938-0.7057-0.69368-0.29283 0.08315-0.21875 0.53125-0.57826 0.54987-1.7083 0.007-2.4688 0.46875-0.99899 0.56037-1.9195 0.11082-2.5-0.8125-0.55793-0.08221-0.83568 1.0574-1.6562 0.8125-1.1724 0.04933-2.3306-0.06061-3.5-0.09375-1.213 0.477-2.415-0.335-2.406-1.6562-0.567-0.9888 0.806-1.3783 0.781-2.125-0.467-0.1181-1.01-0.2639-1.406-0.5938z"/>
   </g>
   <g id="g4455" transform="translate(40,-82)">
    <path id="path4457" style="opacity:.5;color:#000000;fill:#7f7037" d="m19.5 41.406c-1.1574 0-2.0938 0.93637-2.0938 2.0938v9c0 1.1574 0.93637 2.0938 2.0938 2.0938h21c1.1574 0 2.0938-0.93637 2.0938-2.0938v-9c0-1.1574-0.93637-2.0938-2.0938-2.0938h-21z" transform="translate(12,-42)"/>
    <rect id="rect4459" style="color:#000000;fill:url(#linearGradient5634)" rx="1.5" ry="1.5" height="12" width="24" y="0" x="30"/>
    <path id="path4461" style="opacity:.3;fill:#f4d7d7" d="m33.031 0c0.42908 0.3739 0.9604 0.64797 1.4688 0.90625 1.0233-0.035155 1.9699-0.78397 3-0.1875 1.0819 0.094266 2.2961-0.44293 3.25 0.28125 0.65929 0.74519 1.2573-0.79964 2.1875-0.40625 1.334 0.21193 2.6928 0.11051 4.0312 0 1.2039-0.073282 2.6119-0.12324 3.4375 0.9375 0.459 0.32366 0.66287 1.7787 0.875 0.59375 0.19393-0.842 1.1894-2.227 2-1.25 0.166 0.4957 0.56 1.0309 0.718 1.5625v-0.9375c0-0.831-0.669-1.5-1.5-1.5h-19.469zm-1.843 0.03125c-0.685 0.13941-1.188 0.74163-1.188 1.4688v1.75c0.259-0.0649 0.497-0.1032 0.594-0.0938-0.36-0.9824-0.555-2.1861 0.5-2.7812 0.045-0.07688 0.059-0.22054 0.094-0.34375zm22.812 3.1562c-0.037 0.1083-0.073 0.2388-0.156 0.3437-0.174 0.4635-0.066 0.6931 0.156 0.7813v-1.125z"/>
    <path id="path4463" style="opacity:.3;fill:#501616" d="m53.938 6c-0.453 0.0629-0.723 0.3889-0.563 0.9375-0.14 0.5182 0.212 0.6468 0.625 0.75v-1.6875c-0.019 0.0017-0.044-0.0026-0.062 0zm-23.938 1.25v3.25c0 0.831 0.669 1.5 1.5 1.5h21c0.831 0 1.5-0.669 1.5-1.5v-0.875c-0.26507 0.21539-0.4878 0.46913-0.5625 0.75-0.57575 1.2809-2.0687 0.6229-3.1562 0.8125-1.2502 0.29507-2.5413 0.18223-3.8125 0.21875-1.1264 0.11033-1.358-0.96089-1.375-1.7812-0.80403 0.070726-0.81852 2.0299-1.7188 1.0938-0.7057-0.69368-0.29283 0.08315-0.21875 0.53125-0.57826 0.54987-1.7083 0.007-2.4688 0.46875-0.99899 0.56037-1.9195 0.11082-2.5-0.8125-0.55793-0.08221-0.83568 1.0574-1.6562 0.8125-1.1724 0.04933-2.3306-0.06061-3.5-0.09375-1.213 0.477-2.415-0.335-2.406-1.6562-0.567-0.9888 0.806-1.3783 0.781-2.125-0.467-0.1181-1.01-0.2639-1.406-0.5938z"/>
   </g>
   <g id="g4467" transform="matrix(-1,0,0,1,86,-68)">
    <path id="path4469" style="opacity:.5;color:#000000;fill:#7f7037" transform="translate(0,-28)" d="m19.5 41.406c-1.1574 0-2.0938 0.93637-2.0938 2.0938v15c0 1.1574 0.93637 2.0938 2.0938 2.0938h21c1.1574 0 2.0938-0.93637 2.0938-2.0938v-15c0-1.1574-0.93637-2.0938-2.0938-2.0938z"/>
    <rect id="rect4471" style="color:#000000;fill:url(#linearGradient5632)" rx="1.5" ry="1.5" height="12" width="24" y="14" x="18"/>
    <path id="path4473" style="opacity:.3;fill:#f4d7d7" d="m19.5 14c-0.831 0-1.5 0.669-1.5 1.5v0.28125c0.38313-0.53322 0.78347-1.0024 1.4375-0.53125 0.77081-0.497 1.6632-0.64878 2.5625-0.59375 1.0898-0.10845 2.5145-0.39278 3.0625 0.875 0.25396 0.41335 0.3875 1.019 0.5 0.21875 0.36482-1.0175 1.5194-1.0899 2.4375-1.0625 1.8328-0.05682 3.6669-0.1806 5.5-0.1875 1.2747 0.03031 2.5757-0.0776 3.8125 0.3125 0.87126 0.58062 1.8456-0.53133 2.5938 0.03125 0.05472 0.2652-0.64444 1.5141-0.1875 1.2812 0.26455-1.1156 1.8637-1.276 2.2188-0.125 0.02133 0.012 0.04131 0.02072 0.0625 0.03125v-0.531c0-0.831-0.669-1.5-1.5-1.5h-21z"/>
    <path id="path4475" style="opacity:.3;fill:#501616" d="m42 19.812c-0.20071 0.02776-0.41188 0.14152-0.59375 0.375-0.88527-0.3707-0.84412 0.69148-0.53125 1.1875 0.14917 0.50735 0.64387 0.66599 1.125 0.84375v-2.406zm-24 3.094v1.594c0 0.831 0.669 1.5 1.5 1.5h21c0.831 0 1.5-0.669 1.5-1.5v-0.03125c-0.46304 0.07658-0.95921 0.14408-1.25 0.375-1.3167 0.60047-2.6001-0.2783-3.9375-0.15625-1.1662 0.1405-2.2749 0.3956-3.4375 0.53125-1.4142 0.05498-2.8499-0.18702-4.25 0.125-1.4008 0.55802-2.3313-0.46982-3.0312-1.5-1.3681-0.73505-0.99136 1.8353-2.4375 1.2812-1.291-0.422-2.612 0.004-3.906-0.094-0.806-0.45-1.216-1.346-1.75-2.125z"/>
   </g>
   <path id="path4563" style="opacity:.3;color:#000000;fill:#501616" d="m35.156 22.741a1.5005 0.69668 0 1 1 -3.0011 0 1.5005 0.69668 0 1 1 3.0011 0z" transform="translate(0,-124)"/>
   <path id="path4565" style="opacity:.3;color:#000000;fill:#501616" d="m37.835 20.115a0.53591 0.32155 0 1 1 -1.0718 0 0.53591 0.32155 0 1 1 1.0718 0z" transform="translate(0,-124)"/>
   <path id="path4567" style="opacity:.3;color:#000000;fill:#501616" d="m21.329 21.884a0.75027 0.48232 0 1 1 -1.5005 0 0.75027 0.48232 0 1 1 1.5005 0z" transform="translate(0,-124)"/>
   <path id="path4569" style="opacity:.3;color:#000000;fill:#501616" d="m35.584 10.04a0.91105 0.53591 0 1 1 -1.8221 0 0.91105 0.53591 0 1 1 1.8221 0z" transform="translate(0,-124)"/>
   <path id="path4571" style="opacity:.3;color:#000000;fill:#501616" d="m74.92 45.732a1.3398 0.85746 0 1 1 -2.6796 0 1.3398 0.85746 0 1 1 2.6796 0z" transform="translate(0,-124)"/>
   <path id="path4573" style="opacity:.3;color:#000000;fill:#501616" d="m78.136 50.072a0.69668 0.48232 0 1 1 -1.3934 0 0.69668 0.48232 0 1 1 1.3934 0z" transform="translate(0,-124)"/>
   <path id="path4575" style="opacity:.3;color:#000000;fill:#501616" d="m54.127 78.529a1.7685 0.85746 0 1 1 -3.537 0 1.7685 0.85746 0 1 1 3.537 0z" transform="translate(0,-124)"/>
   <path id="path4577" style="opacity:.3;color:#000000;fill:#501616" d="m64.095 75.475a0.69668 0.37514 0 1 1 -1.3934 0 0.69668 0.37514 0 1 1 1.3934 0z" transform="translate(0,-124)"/>
   <path id="path4579" style="opacity:.3;color:#000000;fill:#501616" d="m84.459 46.268a1.0182 0.42873 0 1 1 -2.0365 0 1.0182 0.42873 0 1 1 2.0365 0z" transform="translate(0,-124)"/>
   <path id="path4581" style="opacity:.1;color:#000000;fill:#f4d7d7" d="m32.369 16.525a1.1254 0.5895 0 1 1 -2.2508 0 1.1254 0.5895 0 1 1 2.2508 0z" transform="translate(0,-124)"/>
   <path id="path4583" style="opacity:.1;color:#000000;fill:#f4d7d7" d="m75.456 51.68a1.3398 0.69668 0 1 1 -2.6796 0 1.3398 0.69668 0 1 1 2.6796 0z" transform="translate(0,-124)"/>
   <path id="path4585" style="opacity:.1;color:#000000;fill:#f4d7d7" d="m81.458 47.768a2.09 1.0718 0 1 1 -4.1801 0 2.09 1.0718 0 1 1 4.1801 0z" transform="translate(0,-124)"/>
   <path id="path4587" style="opacity:.1;color:#000000;fill:#f4d7d7" d="m60.022 74.188a1.6613 0.91105 0 1 1 -3.3226 0 1.6613 0.91105 0 1 1 3.3226 0z" transform="translate(0,-124)"/>
   <g id="g4808" transform="matrix(1,0,0,-1,2,-67)">
    <rect id="rect4794" style="color:#000000;fill:url(#linearGradient5640)" rx="1.5" ry="1.5" height="12" width="24" y="-36" x="-10"/>
    <path id="path4796" style="opacity:.3;fill:#fca" d="m-8.5-36c-0.78986 0-1.4382 0.60156-1.5 1.375 0.49595-0.26287 1.1986-0.23748 1.375-0.09375-0.06605-0.89457 0.91623-1.1897 1.5312-0.75 0.72997-0.1202 1.5028-0.6548 2.0312 0.09375 0.9557 0.08592 1.9032-0.16836 2.8438-0.21875 0.70222 0.27893 1.4991 0.12458 2.0938 0.5-0.39536 0.2309-0.92376 1.4978-0.0625 1.4062 0.38541-0.72225 1.6109-0.753 1.4375-1.6875 0.64261-0.77069 1.6816-0.0602 2.25 0.4375 0.37549 0.44581 0.77461 0.38455 0.53125-0.25 0.48123-0.8993 1.6501-0.47792 2.4688-0.5 1.1623 0.11016 2.3817 0.36827 3.5312 0.03125 1.2249-0.15037 2.2016 0.66839 3.2188 0.9375 0.21756 0.10332 0.49618 0.15264 0.75 0.15625-0.032-0.802-0.69-1.437-1.5-1.437h-21z"/>
    <path id="path4798" style="opacity:.3;fill:#502d16" d="m-10-31.344v3.625c0.25078-0.26974 0.52319-0.53156 0.75-0.8125-0.94372-0.8334 0.42666-1.342 1.125-1.4688 0.3426-0.90756-1.0231-1.0417-1.875-1.3438zm24 3.125c-0.2403 0.2015-0.45664 0.6699-0.71875 0.9375-0.41498 0.9317-0.39667 2.2292-1.75 2.3438-1.2066 0.83329-2.5108 0.10497-3.75-0.1875-1.2764 0.39639-2.2934-0.76032-3.5-0.90625-0.93115 0.13843-1.5584 1.1061-2.4688 1.4062-1.1321 0.51859-2.3259-0.31198-3.5 0.03125-1.3884 0.36368-2.8077 0.15449-4.2188 0.0625-0.92297 0.11313-1.7501-0.73639-2.6562-0.21875-0.19409 0.26206-0.44686 0.43516-0.71875 0.53125 0.2275 0.138 0.4963 0.219 0.782 0.219h21c0.831 0 1.5-0.669 1.5-1.5v-2.7188z"/>
   </g>
   <g id="g4833" transform="matrix(1 0 0 -1 52 -53)">
    <rect id="rect4819" style="color:#000000;fill:url(#linearGradient5642)" rx="1.5" ry="1.5" height="12" width="24" y="-22" x="18"/>
    <path id="path4821" style="opacity:.3;color:#000000;fill:#e9c6af" d="m19.5-22c-0.14889 0-0.30193 0.02246-0.4375 0.0625-0.621 0.184-1.062 0.756-1.062 1.438v0.96875c0.21712-0.46321 0.6086-0.71409 0.53125-1.3438 0.696-0.6017 1.6516-0.65128 2.5312-0.65625 0.63712-0.0082 0.91336 1.0837 1.0938 1.5938-0.09807-0.54106 0.25661-0.95139 0.71875-0.96875 0.92512-0.77658 2.0106-0.25402 3.125-0.375 0.90374-0.36661 1.8226-0.22054 2.625 0.21875 1.051-0.15974 2.0935-0.16665 3.1562-0.0625 0.91209 0.24591 2.0863-0.74769 2.5312 0.4375 1.1061 0.54922 1.6506-0.89209 2.75-0.59375 0.9275-0.03221 2.0013-0.95355 2.75 0.0625 0.77614 0.07291 1.4764 0.34296 1.5938 1.25 0.07283 0.35636 0.33049 0.51258 0.59375 0.53125v-1.063c0-0.831-0.669-1.5-1.5-1.5h-20.969c-0.0096 0.0018-0.02152-0.0017-0.03125 0z"/>
    <path id="path4823" style="opacity:.3;fill:#501616" d="m18-16.938v5.4375c0 0.831 0.669 1.5 1.5 1.5h21c0.831 0 1.5-0.669 1.5-1.5v-3.4688c-0.06512 0.20664-0.15642 0.40848-0.28125 0.59375-0.23442 0.58765-0.28496 1.0388-0.375 1.625 0.004 0.52142-0.22256 1.0538-0.6875 1.1875-0.36664 0.22111-1.0092 0.13993-1.5312 0.15625-0.56351-0.04729-1.2044-0.19694-1.7188 0.0625-0.83586 0.000501-1.6639-0.000366-2.5 0-0.43101 0.13571-0.95906 0.07256-1.4375 0.09375-0.5958-0.05869-1.1004 0.1036-1.6875 0.0625-0.78848-0.05152-0.63444-0.73136-1.25-0.9375-0.57128-0.18938-0.31569 0.86941-0.65625 0.9375-0.62851-0.2777-0.79688-0.73863-1.2188-1.2812-0.24491-0.59158-0.12514 0.68286-0.15625 1-0.09065 0.48052-0.64157 0.23157-1.0312 0.28125-0.79022-0.12947-1.6167-0.04506-2.4375-0.0625-0.49952 0.0028-0.94076 0.19056-1.1562 0.46875-0.50608 0.24159-1.2425-0.14666-1.875-0.09375-0.48698 0.06669-1.2518 0.22082-1.625-0.0625-0.42377-0.33032-0.5477-0.4792-0.75-1 0.01408-0.48868 0.11403-0.94281-0.46875-1.2188-0.04549-0.5147 0.01284-1.1329 0.53125-1.2188 0.29732-0.38364 0.30333-1.2631 0-1.4375-0.33923-0.25892-0.84834-0.41878-1.2812-0.625-0.23142-0.07945-0.34276-0.26833-0.40625-0.5z"/>
   </g>
   <g id="g4858" transform="matrix(1,0,0,-1,-26,-63)">
    <rect id="rect4844" style="color:#000000;fill:url(#linearGradient5644)" rx="1.5" ry="1.5" height="12" width="24" y="-32" x="70"/>
    <path id="path4846" style="opacity:.3;fill:#f4d7d7" d="m73.031-32c0.42908 0.3739 0.9604 0.64797 1.4688 0.90625 1.0233-0.03515 1.9699-0.78397 3-0.1875 1.0819 0.09427 2.2961-0.44293 3.25 0.28125 0.65929 0.74519 1.2573-0.79964 2.1875-0.40625 1.334 0.21193 2.6928 0.11051 4.0312 0 1.2039-0.07328 2.6119-0.12324 3.4375 0.9375 0.459 0.32366 0.66287 1.7787 0.875 0.59375 0.19393-0.842 1.1894-2.227 2-1.25 0.16631 0.4957 0.56029 1.0309 0.71875 1.5625l-0.001-0.938c0-0.831-0.669-1.5-1.5-1.5h-19.469zm-1.8438 0.03125c-0.684 0.14-1.187 0.742-1.187 1.469v1.75c0.25915-0.0649 0.4966-0.10324 0.59375-0.09375-0.35983-0.98248-0.55477-2.1861 0.5-2.7812 0.04545-0.07688 0.05967-0.22054 0.09375-0.34375zm22.813 3.157c-0.03741 0.10835-0.07317 0.23876-0.15625 0.34375-0.17374 0.46349-0.06617 0.69307 0.15625 0.78125v-1.125z"/>
    <path id="path4848" style="opacity:.3;fill:#501616" d="m93.938-26c-0.45225 0.06289-0.7222 0.38895-0.5625 0.9375-0.14022 0.51817 0.21245 0.6468 0.625 0.75v-1.688c-0.0193 0.0017-0.04373-0.0026-0.0625 0zm-23.938 1.25v3.25c0 0.831 0.669 1.5 1.5 1.5h21c0.831 0 1.5-0.669 1.5-1.5v-0.875c-0.26507 0.21539-0.4878 0.46913-0.5625 0.75-0.57575 1.2809-2.0687 0.6229-3.1562 0.8125-1.2502 0.29507-2.5413 0.18223-3.8125 0.21875-1.1264 0.11033-1.358-0.96089-1.375-1.7812-0.80403 0.07073-0.81852 2.0299-1.7188 1.0938-0.7057-0.69368-0.29283 0.08315-0.21875 0.53125-0.57826 0.54987-1.7083 0.007-2.4688 0.46875-0.99899 0.56037-1.9195 0.11082-2.5-0.8125-0.55793-0.08221-0.83568 1.0574-1.6562 0.8125-1.1724 0.04933-2.3306-0.06061-3.5-0.09375-1.2132 0.47717-2.4154-0.33546-2.4062-1.6562-0.56712-0.98873 0.80564-1.3783 0.78125-2.125-0.467-0.118-1.01-0.264-1.406-0.594z"/>
   </g>
   <g id="g4883" transform="matrix(-1,0,0,-1,86,-53)">
    <rect id="rect4869" style="color:#000000;fill:url(#linearGradient5646)" rx="1.5" ry="1.5" height="12" width="24" y="-22" x="44"/>
    <path id="path4871" style="opacity:.3;fill:#e9c6af" d="m45.5-22c-0.831 0-1.5 0.669-1.5 1.5v2.2188c0.17218 0.03194 0.38499-0.04094 0.6875-0.25 0.55536 0.07408 1.5362 1.6221 1.3438 0.34375 0.5816-0.40029-2.2387-2.1865-0.6875-2.9688 1.3035 0.62761 2.4577-0.35877 3.7812-0.125 1.101-0.01338 2.2893-1.1634 2.9688 0.28125 1.4801 0.07582 2.8887-0.81181 4.4062-0.59375 1.4169-0.15088 2.8524-0.08907 4.2812-0.09375 0.25599-0.09541 0.57786-0.21228 0.90625-0.3125h-16.187zm18.344 0c0.23784 0.17122 0.40979 0.4492 0.46875 0.875-0.03849 0.75934-0.11974 1.3986 0.5 0.5 0.38005-1.2783 1.4005-1.8336 2.0625-0.5 0.30534 0.14673 0.6859 0.14012 1 0.03125-0.227-0.538-0.752-0.906-1.375-0.906h-2.6562z"/>
    <path id="path4873" style="opacity:.3;fill:#501616" d="m63.156-12.844c-0.39166 0.24384-1.0516 0.59047-1.3125 1.0625 0.25476 0.87774-0.49968 1.2212-1.25 1.0312-0.9898-0.11438-1.9582 0.49597-2.9375 0.09375-1.9969-0.0052-3.9718 0.0057-5.9688 0-0.8723-0.02878-1.7261-0.04093-2.5625 0.1875-0.94258 0.36229-1.6573-0.51494-2.5-0.3125-1.1384 0.43752-1.0235-0.83921-1.2188-1.5312-0.35834 0.44614-0.86227 0.79168-1.375 1.1562 0.152 0.671 0.753 1.157 1.47 1.157h21c0.831 0 1.5-0.669 1.5-1.5v-0.625c-0.63275 0.14683-0.51223 1.1312-1.125 1.0938-0.675 0.14576-1.4454 0.08574-2.2188 0.25-1.0866-0.0058-1.2075-1.2616-1.5-2.0625z"/>
   </g>
  </g>
  <path id="rect4359" style="opacity:.2;fill:url(#radialGradient4375)" d="m120.78 6.125c-2.74 0.5576-4.78 2.9665-4.78 5.875v68c0 3.324 2.676 6 6 6h72c3.324 0 6-2.676 6-6v-68c0-2.9085-2.0422-5.3174-4.7812-5.875 2.2051 0.53621 3.8125 2.4908 3.8125 4.875v68c0 2.8049-2.2264 5.0312-5.0312 5.0312h-72c-2.8049 0-5.0312-2.2264-5.0312-5.0312v-68c0-2.3842 1.6074-4.3388 3.8125-4.875z"/>
  <path id="rect4377" style="opacity:.3;fill:url(#linearGradient4390)" d="m12 86c-3.324 0-6-2.676-6-6v-68c0-3.324 2.676-6 6-6h72c3.324 0 6 2.676 6 6v68c0 3.324-2.676 6-6 6zm0-0.96875h72c2.8049 0 5.0312-2.2264 5.0312-5.0312v-68c0-2.8049-2.226-5.0312-5.031-5.0312h-72c-2.8049 0-5.0312 2.2263-5.0312 5.0312v68c0 2.8049 2.2264 5.0312 5.0312 5.0312z"/>
  <path id="rect4414" style="opacity:.1;fill:url(#linearGradient4429)" d="m6 78v2c0 3.324 2.676 6 6 6h72c3.324 0 6-2.676 6-6v-2c0 3.324-2.676 6-6 6h-72c-3.324 0-6-2.676-6-6z"/>
  <path id="path4412" style="opacity:.15" d="m6 100v1c0 3.324 2.676 6 6 6h72c3.324 0 6-2.676 6-6v-1c0 3.324-2.676 6-6 6h-72c-3.324 0-6-2.676-6-6z"/>
  <rect id="rect3163" style="opacity:.15;fill:url(#linearGradient3354)" transform="matrix(0,-1,-1,0,0,0)" rx="6" ry="6" height="84" width="80" y="-90" x="-86"/>
 </g>
 <g id="layer4">
  <path id="path3888" style="fill:url(#linearGradient3228)" d="m6 80v4c0 3.324 2.676 6 6 6h72c3.324 0 6-2.676 6-6v-4c0 3.324-2.676 6-6 6h-72c-3.324 0-6-2.676-6-6z"/>
  <path id="rect4345" style="opacity:.1;color:#000000" d="m6 82v2c0 3.324 2.676 6 6 6h72c3.324 0 6-2.676 6-6v-2c0 3.324-2.676 6-6 6h-72c-3.324 0-6-2.676-6-6z"/>
  <path id="rect4336" style="opacity:.15;color:#000000" d="m6 83v1c0 3.324 2.676 6 6 6h72c3.324 0 6-2.676 6-6v-1c0 3.324-2.676 6-6 6h-72c-3.324 0-6-2.676-6-6z"/>
 </g>
 <g id="layer5">
  <rect id="rect3171" style="opacity:.1;filter:url(#filter3794);stroke:#fff;stroke-linecap:round;stroke-width:.5;fill:url(#linearGradient3613)" clip-path="url(#clipPath4355)" rx="12" ry="12" height="62" width="66" y="15" x="15"/>
 </g>
</svg>
