<?xml version="1.0" encoding="UTF-8" standalone="no"?>
<!-- Created with Inkscape (http://www.inkscape.org/) -->
<svg id="svg2408" xmlns:rdf="http://www.w3.org/1999/02/22-rdf-syntax-ns#" xmlns="http://www.w3.org/2000/svg" height="96" width="96" version="1.0" xmlns:cc="http://creativecommons.org/ns#" xmlns:xlink="http://www.w3.org/1999/xlink" xmlns:dc="http://purl.org/dc/elements/1.1/">
 <defs id="defs2410">
  <linearGradient id="linearGradient3879">
   <stop id="stop3881" style="stop-color:#fff" offset="0"/>
   <stop id="stop3883" style="stop-color:#fff;stop-opacity:0" offset="1"/>
  </linearGradient>
  <linearGradient id="linearGradient3688">
   <stop id="stop3690" style="stop-color:#393939" offset="0"/>
   <stop id="stop3692" style="stop-color:#4e4e4e" offset="1"/>
  </linearGradient>
  <linearGradient id="ButtonShadow" y2="7.0165" gradientUnits="userSpaceOnUse" x2="45.448" gradientTransform="scale(1.0059 .99417)" y1="92.54" x1="45.448">
   <stop id="stop3750" offset="0"/>
   <stop id="stop3752" style="stop-opacity:.58824" offset="1"/>
  </linearGradient>
  <filter id="filter3174" color-interpolation-filters="sRGB">
   <feGaussianBlur id="feGaussianBlur3176" stdDeviation="1.71"/>
  </filter>
  <linearGradient id="linearGradient3188" y2="63.893" xlink:href="#linearGradient3879" gradientUnits="userSpaceOnUse" x2="36.357" y1="6" x1="36.357"/>
  <radialGradient id="radialGradient3619" xlink:href="#linearGradient3879" gradientUnits="userSpaceOnUse" cy="90.172" cx="48" gradientTransform="matrix(1.1573 0 0 .99591 -7.551 .19713)" r="42"/>
  <linearGradient id="linearGradient3617" y2="5.9877" xlink:href="#linearGradient3688" gradientUnits="userSpaceOnUse" x2="48" y1="90" x1="48"/>
  <linearGradient id="ButtonShadow-0" y2="7.0165" gradientUnits="userSpaceOnUse" x2="45.448" gradientTransform="matrix(1.0059 0 0 .99417 100 0)" y1="92.54" x1="45.448">
   <stop id="stop3750-8" offset="0"/>
   <stop id="stop3752-5" style="stop-opacity:.58824" offset="1"/>
  </linearGradient>
  <linearGradient id="linearGradient3780" y2="90.239" xlink:href="#ButtonShadow-0" gradientUnits="userSpaceOnUse" x2="32.251" gradientTransform="matrix(1.0238 0 0 1.0119 -1.1429 -98.071)" y1="6.1317" x1="32.251"/>
  <linearGradient id="linearGradient3721" y2="90.239" xlink:href="#ButtonShadow-0" gradientUnits="userSpaceOnUse" x2="32.251" gradientTransform="translate(0,-97)" y1="6.1317" x1="32.251"/>
  <clipPath id="clipPath3831" clipPathUnits="userSpaceOnUse">
   <rect id="rect3833" style="fill:url(#linearGradient3617)" rx="6" ry="6" height="84" width="84" y="6" x="6"/>
  </clipPath>
  <linearGradient id="linearGradient3843" y2="6" gradientUnits="userSpaceOnUse" x2="42.619" y1="90" x1="42.619">
   <stop id="stop3839" style="stop-color:#272727" offset="0"/>
   <stop id="stop3841" style="stop-color:#3c3c3c" offset="1"/>
  </linearGradient>
  <radialGradient id="radialGradient3822" gradientUnits="userSpaceOnUse" cy="18.759" cx="17.896" gradientTransform="matrix(1.7802 0 0 1.13 -10.257 .00067213)" r="42">
   <stop id="stop3815" style="stop-color:#c5f0fe" offset="0"/>
   <stop id="stop3818" style="stop-color:#18c3fc" offset="1"/>
  </radialGradient>
  <radialGradient id="radialGradient3885" xlink:href="#linearGradient3879" gradientUnits="userSpaceOnUse" cy="16.107" cx="14.145" gradientTransform="matrix(1.3093 0 0 1.3093 -1.3746 -1.9811)" r="39.143"/>
  <radialGradient id="radialGradient3889" xlink:href="#linearGradient3879" gradientUnits="userSpaceOnUse" cy="16.107" cx="14.145" gradientTransform="matrix(-1.264 0 0 -1.264 96.735 82.252)" r="39.143"/>
 </defs>
 <metadata id="metadata2413">
  <rdf:RDF>
   <cc:Work rdf:about="">
    <dc:format>image/svg+xml</dc:format>
    <dc:type rdf:resource="http://purl.org/dc/dcmitype/StillImage"/>
    <dc:title/>
   </cc:Work>
  </rdf:RDF>
 </metadata>
 <g id="layer2" style="display:none">
  <rect id="rect3745" style="opacity:.9;filter:url(#filter3174);fill:url(#ButtonShadow)" rx="6" ry="6" height="85" width="86" y="7" x="5"/>
 </g>
 <g id="layer3">
  <path id="path3786" style="opacity:0.08;fill:url(#linearGradient3780)" d="m12-95.031c-5.5111 0-10.031 4.5202-10.031 10.031v71c0 5.5111 4.5202 10.031 10.031 10.031h72c5.5111 0 10.031-4.5202 10.031-10.031v-71c0-5.5111-4.5202-10.031-10.031-10.031h-72z" transform="scale(1,-1)"/>
  <path id="path3778" style="opacity:.1;fill:url(#linearGradient3780)" d="m12-94.031c-4.9716 0-9.0312 4.0596-9.0312 9.0312v71c0 4.9716 4.0596 9.0312 9.0312 9.0312h72c4.9716 0 9.0312-4.0596 9.0312-9.0312v-71c0-4.9716-4.0596-9.0312-9.0312-9.0312h-72z" transform="scale(1,-1)"/>
  <path id="path3770" style="opacity:.2;fill:url(#linearGradient3780)" d="m12-93c-4.4091 0-8 3.5909-8 8v71c0 4.4091 3.5909 8 8 8h72c4.4091 0 8-3.5909 8-8v-71c0-4.4091-3.5909-8-8-8h-72z" transform="scale(1,-1)"/>
  <rect id="rect3723" style="opacity:.3;fill:url(#linearGradient3780)" transform="scale(1,-1)" rx="7" ry="7" height="85" width="86" y="-92" x="5"/>
  <rect id="rect3716" style="opacity:.45;fill:url(#linearGradient3721)" transform="scale(1,-1)" rx="6" ry="6" height="84" width="84" y="-91" x="6"/>
 </g>
 <g id="layer1">
  <rect id="rect2419" style="fill:url(#linearGradient3617)" rx="6" ry="6" height="84" width="84" y="6" x="6"/>
  <rect id="rect3827" style="stroke:url(#linearGradient3843);stroke-width:9;fill:url(#radialGradient3822)" clip-path="url(#clipPath3831)" rx="6" ry="6" height="84" width="84" y="6" x="6"/>
  <path id="path3887" d="m77.393 69c3.66 0 6.607-2.947 6.607-6.607v-65.553c0-2.8122-1.7321-5.1682-4.1982-6.1252 0.28859 0.74367 0.44735 1.5607 0.44735 2.4088v65.519c0 3.6603-2.9467 6.607-6.607 6.607h-65.519c-0.85024 0-1.6635-0.15733-2.4088-0.44735 0.9594 2.46 3.3509 4.197 6.1598 4.197h65.519z" style="opacity:.43478;fill:url(#radialGradient3889)"/>
  <path id="rect3867" style="opacity:.43478;fill:url(#radialGradient3885)" d="m18.607 12c-3.66 0-6.607 2.947-6.607 6.607v65.553c0 2.8122 1.7321 5.1682 4.1982 6.1252-0.28859-0.74367-0.44735-1.5607-0.44735-2.4088v-65.519c0-3.6603 2.9467-6.607 6.607-6.607h65.519c0.85024 0 1.6635 0.15733 2.4088 0.44735-0.96-2.46-3.351-4.197-6.16-4.197h-65.519z"/>
  <path id="path3838" style="block-progression:tb;text-indent:0;color:#000000;text-transform:none;fill:#2c2c2c" d="m58.979 7.2812-6.3961 1.0938 8.5558 63.688h6.3684l8.555-63.688-6.396-1.0938-5.343 39.907-5.344-39.907z"/>
  <path id="rect3728" style="opacity:.35;fill:url(#linearGradient3188)" d="m12 6c-3.324 0-6 2.676-6 6v2 68 2c0 0.33472 0.04135 0.6507 0.09375 0.96875 0.0487 0.2956 0.09704 0.59692 0.1875 0.875 0.00988 0.03038 0.020892 0.0636 0.03125 0.09375 0.098865 0.28777 0.23488 0.54745 0.375 0.8125 0.14459 0.27351 0.31562 0.53562 0.5 0.78125 0.18438 0.24564 0.37378 0.47347 0.59375 0.6875 0.43995 0.42806 0.94291 0.81453 1.5 1.0938 0.27854 0.13961 0.57347 0.24695 0.875 0.34375-0.2562-0.10022-0.48671-0.23627-0.71875-0.375-0.00741-0.0044-0.023866 0.0045-0.03125 0-0.031933-0.0193-0.062293-0.04251-0.09375-0.0625-0.1204-0.0767-0.23102-0.16351-0.34375-0.25-0.10617-0.0808-0.21328-0.16111-0.3125-0.25-0.1778-0.162-0.3473-0.346-0.4999-0.531-0.1075-0.131-0.2183-0.266-0.3124-0.407-0.0251-0.038-0.0385-0.086-0.0626-0.125-0.0647-0.103-0.1302-0.204-0.1874-0.312-0.1011-0.195-0.2057-0.416-0.2813-0.625-0.008-0.022-0.0236-0.041-0.0313-0.063-0.0318-0.092-0.0358-0.187-0.0624-0.281-0.0304-0.107-0.0704-0.203-0.0938-0.313-0.0729-0.341-0.125-0.698-0.125-1.062v-2-68-2c0-2.782 2.2182-5 5-5h2 68 2c2.7818 0 5 2.2182 5 5v2 68 2c0 0.3643-0.05212 0.72099-0.125 1.0625-0.04415 0.20689-0.08838 0.39766-0.15625 0.59375-0.0077 0.02195-0.0233 0.04069-0.03125 0.0625-0.06274 0.17374-0.13838 0.36745-0.21875 0.53125-0.04158 0.0828-0.07904 0.16995-0.125 0.25-0.0546 0.09721-0.12677 0.18835-0.1875 0.28125-0.09411 0.14096-0.20492 0.276-0.3125 0.40625-0.14317 0.17445-0.30314 0.347-0.46875 0.5-0.01117 0.0102-0.01998 0.02115-0.03125 0.03125-0.13839 0.12556-0.28509 0.23444-0.4375 0.34375-0.10257 0.07315-0.20432 0.15336-0.3125 0.21875-0.0074 0.0045-0.02384-0.0044-0.03125 0-0.23204 0.13873-0.46255 0.27478-0.71875 0.375 0.30153-0.0968 0.59646-0.20414 0.875-0.34375 0.55709-0.27922 1.0601-0.66569 1.5-1.0938 0.21997-0.21403 0.40937-0.44186 0.59375-0.6875s0.35541-0.50774 0.5-0.78125c0.14012-0.26505 0.27614-0.52473 0.375-0.8125 0.01041-0.03078 0.02133-0.06274 0.03125-0.09375 0.09046-0.27808 0.1388-0.5794 0.1875-0.875 0.053-0.318 0.094-0.634 0.094-0.969v-2-68-2c0-3.324-2.676-6-6-6h-72z"/>
  <path id="rect3828" style="fill:#2c2c2c" d="m9 70.651h78c3.324 0 1 2.676 1 6v7.0055c0 3.324-0.676 5-4 5h-71c-3.324 0-6-1.676-6-5v-7.0055c0-3.324-1.324-6 2-6z"/>
  <g id="text3824" style="fill:#25c6fc" transform="matrix(.91216 0 0 .99733 2.218 3.7449)">
   <path id="path3915" d="m14.05 85.021-5.3725-15.031h3.2911l3.8038 11.124 3.6807-11.124h3.2194l-5.3827 15.031h-3.2399"/>
   <path id="path3917" d="m25.225 77.455-2.6145-0.47163c0.29391-1.0526 0.79972-1.8318 1.5174-2.3376 0.71769-0.50579 1.784-0.75869 3.1989-0.75871 1.285 0.000012 2.2419 0.1538 2.8708 0.46138 0.62883 0.30076 1.0697 0.68695 1.3226 1.1586 0.25973 0.4648 0.3896 1.3226 0.38961 2.5734l-0.03076 3.3629c-0.000011 0.95693 0.04442 1.6644 0.13329 2.1223 0.09568 0.45112 0.26998 0.93642 0.52289 1.4559h-2.8503c-0.0752-0.19138-0.16747-0.47504-0.27682-0.85098-0.04785-0.17088-0.08203-0.28366-0.10253-0.33834-0.49214 0.47846-1.0184 0.83731-1.5789 1.0765-0.56049 0.23923-1.1586 0.35885-1.7942 0.35885-1.121 0-2.0061-0.30416-2.6555-0.9125-0.64251-0.60833-0.96376-1.3773-0.96376-2.3069 0-0.61516 0.14696-1.162 0.44087-1.6404 0.29391-0.48529 0.70402-0.85439 1.2303-1.1073 0.53314-0.25973 1.2987-0.48529 2.2966-0.67668 1.3465-0.2529 2.2795-0.48871 2.799-0.70744v-0.28708c-0.000007-0.55364-0.13671-0.94666-0.41011-1.1791-0.27341-0.23922-0.78947-0.35884-1.5482-0.35885-0.51264 0.000009-0.9125 0.10254-1.1996 0.30758-0.28708 0.19823-0.51948 0.55024-0.69719 1.056m3.855 2.3376c-0.36911 0.12304-0.95351 0.27-1.7532 0.44087-0.79972 0.17088-1.3226 0.33835-1.5687 0.50239-0.37594 0.26658-0.56391 0.60492-0.5639 1.015-0.000004 0.40328 0.15037 0.75187 0.45112 1.0458 0.30074 0.29392 0.68351 0.44087 1.1483 0.44087 0.51947 0.000001 1.015-0.17088 1.4867-0.51264 0.34859-0.25974 0.57757-0.57757 0.68694-0.95351 0.07518-0.24606 0.11277-0.71427 0.11278-1.4046v-0.57416"/>
   <path id="path3919" d="m37.518 85.021h-2.881v-10.888h2.676v1.5482c0.45795-0.73136 0.86806-1.2132 1.2303-1.4456 0.3691-0.23238 0.78604-0.34858 1.2508-0.3486 0.65617 0.000012 1.2884 0.18114 1.8968 0.5434l-0.89199 2.5119c-0.4853-0.31441-0.93643-0.47162-1.3534-0.47163-0.40328 0.000009-0.74504 0.11279-1.0253 0.33834-0.28025 0.21873-0.50239 0.61859-0.66643 1.1996-0.15721 0.581-0.23582 1.7977-0.23581 3.65v3.3629"/>
   <path id="path3921" d="m42.922 72.656v-2.6657h2.881v2.6657h-2.881m0 12.365v-10.888h2.881v10.888h-2.881"/>
   <path id="path3923" d="m58.383 79.495 2.9425 0.933c-0.45114 1.6404-1.203 2.8605-2.2556 3.6602-1.0458 0.79288-2.3752 1.1893-3.9883 1.1893-1.9959 0-3.6363-0.6801-4.9213-2.0403-1.285-1.367-1.9275-3.233-1.9275-5.598-0.000001-2.5017 0.64592-4.4429 1.9378-5.8236 1.2918-1.3875 2.9904-2.0813 5.0956-2.0813 1.8387 0.000015 3.3321 0.54341 4.4805 1.6302 0.6835 0.64252 1.1961 1.5653 1.5379 2.7682l-3.0041 0.7177c-0.17772-0.7792-0.55024-1.3944-1.1176-1.8455-0.5605-0.45111-1.244-0.67667-2.0506-0.67668-1.1141 0.000013-2.0198 0.39987-2.717 1.1996-0.69036 0.79973-1.0355 2.095-1.0355 3.8858-0.000004 1.9002 0.34175 3.2536 1.0253 4.0601 0.68351 0.80655 1.5721 1.2098 2.6657 1.2098 0.80654 0.000002 1.5003-0.25632 2.0813-0.76896 0.58098-0.51264 0.99793-1.3192 1.2508-2.4197"/>
   <path id="path3925" d="m77.494 85.021h-3.3014l-1.3124-3.4142h-6.0081l-1.2406 3.4142h-3.2194l5.8543-15.031h3.2091l6.0184 15.031m-5.5878-5.9466-2.0711-5.5775-2.03 5.5775h4.1011"/>
   <path id="path3927" d="m79.104 69.991h5.5468c1.2508 0.000015 2.2043 0.09571 2.8605 0.28708 0.88173 0.25975 1.637 0.72113 2.2659 1.3841 0.62882 0.66302 1.1073 1.4764 1.4354 2.4402 0.32808 0.95694 0.49212 2.1394 0.49213 3.5475-0.000014 1.2372-0.1538 2.3035-0.46138 3.1989-0.37595 1.0936-0.91251 1.9788-1.6097 2.6555-0.52632 0.51264-1.2372 0.9125-2.1326 1.1996-0.66986 0.21189-1.5653 0.31784-2.6862 0.31784h-5.7108v-15.031m3.0348 2.5427v9.9554h2.2659c0.84756 0.000002 1.4593-0.04784 1.8352-0.14354 0.49212-0.12303 0.89882-0.3315 1.2201-0.62542 0.32808-0.29391 0.59465-0.77579 0.79972-1.4456 0.20504-0.67668 0.30757-1.596 0.30758-2.758-0.000011-1.162-0.10254-2.054-0.30758-2.676-0.20507-0.62199-0.49214-1.1073-0.86123-1.4559-0.36911-0.34858-0.83732-0.5844-1.4046-0.70744-0.42379-0.09568-1.2543-0.14353-2.4914-0.14354h-1.3636"/>
  </g>
  <path id="path3615" style="opacity:.2;fill:url(#radialGradient3619)" d="m12 90c-3.324 0-6-2.676-6-6v-2-68-2c0-0.33472 0.04135-0.6507 0.09375-0.96875 0.0487-0.2956 0.09704-0.59692 0.1875-0.875 0.0099-0.03 0.0209-0.063 0.0313-0.094 0.0989-0.2873 0.2349-0.547 0.375-0.812 0.1446-0.2735 0.3156-0.5356 0.5-0.7812 0.1844-0.2457 0.3738-0.4735 0.5937-0.6876 0.44-0.428 0.943-0.8145 1.5-1.0937 0.2786-0.1396 0.5735-0.2469 0.8748-0.3437-0.256 0.1002-0.4865 0.2362-0.7185 0.375-0.00741 0.0044-0.023866-0.0045-0.03125 0-0.031933 0.0193-0.062293 0.04251-0.09375 0.0625-0.1204 0.0767-0.23102 0.16351-0.34375 0.25-0.10617 0.0808-0.21328 0.16111-0.3125 0.25-0.1779 0.1614-0.3474 0.3453-0.5 0.5312-0.1075 0.1303-0.2183 0.2653-0.3124 0.4063-0.0251 0.0383-0.0385 0.0858-0.0626 0.125-0.0647 0.103-0.1302 0.2045-0.1874 0.3124-0.1011 0.1948-0.2057 0.4158-0.2813 0.625-0.008 0.0219-0.0236 0.0406-0.0313 0.0626-0.0318 0.0919-0.0358 0.1868-0.0624 0.2812-0.0304 0.1066-0.0704 0.203-0.0938 0.3125-0.0729 0.3415-0.125 0.6985-0.125 1.0625v2 68 2c0 2.7818 2.2182 5 5 5h2 68 2c2.7818 0 5-2.2182 5-5v-2-68-2c0-0.364-0.052-0.721-0.125-1.0625-0.044-0.2069-0.088-0.3977-0.156-0.5937-0.008-0.022-0.024-0.0407-0.031-0.0626-0.063-0.1737-0.139-0.3674-0.219-0.5312-0.042-0.0828-0.079-0.17-0.125-0.25-0.055-0.0972-0.127-0.1884-0.188-0.2812-0.094-0.141-0.205-0.276-0.312-0.4063-0.143-0.1745-0.303-0.347-0.469-0.5-0.011-0.0102-0.02-0.0211-0.031-0.0313-0.139-0.1255-0.285-0.2344-0.438-0.3437-0.102-0.0731-0.204-0.1534-0.312-0.2187-0.0074-0.0045-0.02384 0.0044-0.03125 0-0.23204-0.13873-0.46255-0.27478-0.71875-0.375 0.30153 0.0968 0.59646 0.20414 0.875 0.34375 0.55709 0.27922 1.0601 0.66569 1.5 1.0938 0.21997 0.21403 0.40937 0.44186 0.59375 0.6875s0.35541 0.50774 0.5 0.78125c0.14012 0.26505 0.27614 0.52473 0.375 0.8125 0.01041 0.03078 0.02133 0.06274 0.03125 0.09375 0.09046 0.27808 0.1388 0.5794 0.1875 0.875 0.053 0.318 0.094 0.634 0.094 0.969v2 68 2c0 3.324-2.676 6-6 6h-72z"/>
 </g>
</svg>
