<?xml version="1.0" encoding="UTF-8" standalone="no"?>
<!-- Created with Inkscape (http://www.inkscape.org/) -->
<svg id="svg2408" xmlns:rdf="http://www.w3.org/1999/02/22-rdf-syntax-ns#" xmlns="http://www.w3.org/2000/svg" height="96" width="96" version="1.0" xmlns:cc="http://creativecommons.org/ns#" xmlns:xlink="http://www.w3.org/1999/xlink" xmlns:dc="http://purl.org/dc/elements/1.1/">
 <defs id="defs2410">
  <linearGradient id="linearGradient4152">
   <stop id="stop4154" style="stop-color:#fff" offset="0"/>
   <stop id="stop4156" style="stop-color:#ebebeb" offset="1"/>
  </linearGradient>
  <linearGradient id="linearGradient4142">
   <stop id="stop4144" style="stop-color:#402a1a" offset="0"/>
   <stop id="stop4146" style="stop-color:#402a1a;stop-opacity:0" offset="1"/>
  </linearGradient>
  <linearGradient id="linearGradient4102">
   <stop id="stop4104" offset="0"/>
   <stop id="stop4114" style="stop-opacity:.25197" offset=".5"/>
   <stop id="stop4106" style="stop-opacity:0" offset="1"/>
  </linearGradient>
  <linearGradient id="linearGradient4013">
   <stop id="stop4015" style="stop-color:#e3c979" offset="0"/>
   <stop id="stop4021" style="stop-color:#d3b762" offset="0.85"/>
   <stop id="stop4017" style="stop-color:#b0984d;stop-opacity:.61417" offset="1"/>
  </linearGradient>
  <linearGradient id="ButtonShadow" y2="7.0165" gradientUnits="userSpaceOnUse" x2="45.448" gradientTransform="scale(1.0059 .99417)" y1="92.54" x1="45.448">
   <stop id="stop3750" offset="0"/>
   <stop id="stop3752" style="stop-opacity:.58824" offset="1"/>
  </linearGradient>
  <filter id="filter3174" color-interpolation-filters="sRGB">
   <feGaussianBlur id="feGaussianBlur3176" stdDeviation="1.71"/>
  </filter>
  <linearGradient id="linearGradient3613" y2="138.66" gradientUnits="userSpaceOnUse" x2="48" y1="20.221" x1="48">
   <stop id="stop3739" style="stop-color:#ffec83" offset="0"/>
   <stop id="stop3741" style="stop-color:#fff2ab;stop-opacity:0" offset="1"/>
  </linearGradient>
  <linearGradient id="linearGradient3617" y2="5.9877" gradientUnits="userSpaceOnUse" x2="48" y1="90" x1="48">
   <stop id="stop3702" style="stop-color:#a16331" offset="0"/>
   <stop id="stop3704" style="stop-color:#d2aa57" offset="1"/>
  </linearGradient>
  <linearGradient id="ButtonShadow-0" y2="7.0165" gradientUnits="userSpaceOnUse" x2="45.448" gradientTransform="matrix(1.0059 0 0 .99417 100 0)" y1="92.54" x1="45.448">
   <stop id="stop3750-8" offset="0"/>
   <stop id="stop3752-5" style="stop-opacity:.58824" offset="1"/>
  </linearGradient>
  <linearGradient id="linearGradient3780" y2="90.239" xlink:href="#ButtonShadow-0" gradientUnits="userSpaceOnUse" x2="32.251" gradientTransform="matrix(1.0238 0 0 1.0119 -1.1429 -98.071)" y1="6.1317" x1="32.251"/>
  <linearGradient id="linearGradient3721" y2="90.239" xlink:href="#ButtonShadow-0" gradientUnits="userSpaceOnUse" x2="32.251" gradientTransform="translate(0,-97)" y1="6.1317" x1="32.251"/>
  <clipPath id="clipPath4355">
   <rect id="rect4357" style="fill:#fff" rx="6" ry="6" height="80" width="84" y="6" x="6"/>
  </clipPath>
  <radialGradient id="radialGradient4375" gradientUnits="userSpaceOnUse" cy="87.792" cx="48" gradientTransform="matrix(1 -6.7115e-8 8.4282e-8 1.2558 110 -24.506)" r="42">
   <stop id="stop4369" style="stop-color:#fff;stop-opacity:.71756" offset="0"/>
   <stop id="stop4371" style="stop-color:#fff" offset="1"/>
  </radialGradient>
  <linearGradient id="linearGradient3228" y2="88" spreadMethod="reflect" gradientUnits="userSpaceOnUse" x2="48" y1="88" x1="90">
   <stop id="stop3894" style="stop-opacity:.58824" offset="0"/>
   <stop id="stop3896" style="stop-opacity:.47059" offset=".11780"/>
   <stop id="stop3898" style="stop-opacity:.39216" offset=".23810"/>
   <stop id="stop3900" style="stop-opacity:.31373" offset="1"/>
  </linearGradient>
  <linearGradient id="linearGradient3978" y2="48" spreadMethod="repeat" gradientUnits="userSpaceOnUse" x2="8" gradientTransform="translate(0,-96)" y1="48" x1="6">
   <stop id="stop3974" style="stop-color:#784421" offset="0"/>
   <stop id="stop3980" style="stop-color:#784421;stop-opacity:0" offset="0.7"/>
   <stop id="stop3976" style="stop-color:#784421;stop-opacity:.74803" offset="1"/>
  </linearGradient>
  <filter id="filter4002" height="1.7432" width="1.6982" color-interpolation-filters="sRGB" y="-.37161" x="-.34909">
   <feGaussianBlur id="feGaussianBlur4004" stdDeviation="9.6"/>
  </filter>
  <linearGradient id="linearGradient4019" y2="48" xlink:href="#linearGradient4013" spreadMethod="reflect" gradientUnits="userSpaceOnUse" x2="47.614" y1="48" x1="42"/>
  <linearGradient id="linearGradient4429-1" y2="82.455" xlink:href="#linearGradient4384-8" spreadMethod="reflect" gradientUnits="userSpaceOnUse" x2="112.12" y1="82" x1="48"/>
  <linearGradient id="linearGradient4384-8">
   <stop id="stop4386-6" style="stop-color:#fff" offset="0"/>
   <stop id="stop4388-2" style="stop-color:#fff;stop-opacity:0" offset="1"/>
  </linearGradient>
  <linearGradient id="linearGradient4047" y2="-40" xlink:href="#linearGradient4384-8" gradientUnits="userSpaceOnUse" x2="48" gradientTransform="matrix(1,0,0,-1,0,92)" y1="88" x1="48"/>
  <linearGradient id="linearGradient4088" y2="80" gradientUnits="userSpaceOnUse" x2="48" y1="8" x1="48">
   <stop id="stop4386" style="stop-color:#fff" offset="0"/>
   <stop id="stop4388" style="stop-color:#fff;stop-opacity:0" offset="1"/>
  </linearGradient>
  <linearGradient id="linearGradient4108" y2="48" xlink:href="#linearGradient4102" gradientUnits="userSpaceOnUse" x2="56" y1="48" x1="54"/>
  <linearGradient id="linearGradient4112" y2="48" xlink:href="#linearGradient4102" gradientUnits="userSpaceOnUse" x2="56" gradientTransform="translate(-96)" y1="48" x1="54"/>
  <linearGradient id="linearGradient4127" y2="55.88" xlink:href="#linearGradient4384-8" spreadMethod="reflect" gradientUnits="userSpaceOnUse" x2="48.069" y1="31.18" x1="45.485"/>
  <linearGradient id="linearGradient4158" y2="24" xlink:href="#linearGradient4152" gradientUnits="userSpaceOnUse" x2="38" gradientTransform="translate(0,-36)" y1="20" x1="34"/>
  <linearGradient id="linearGradient4166" y2="25" xlink:href="#ButtonShadow-0" gradientUnits="userSpaceOnUse" x2="34" gradientTransform="translate(0,-36)" y1="7" x1="34"/>
  <linearGradient id="linearGradient4398" y2="25" xlink:href="#ButtonShadow-0" gradientUnits="userSpaceOnUse" x2="34" gradientTransform="matrix(1,0,0,-1,-50,36)" y1="7" x1="34"/>
  <linearGradient id="linearGradient4400" y2="24" xlink:href="#linearGradient4152" gradientUnits="userSpaceOnUse" x2="38" gradientTransform="translate(-50,-36)" y1="20" x1="34"/>
  <linearGradient id="linearGradient3368" y2="-97.84" xlink:href="#linearGradient4142" gradientUnits="userSpaceOnUse" x2="70" gradientTransform="matrix(1 0 0 1.0203 89.906 29.02)" y1="55.05" x1="70"/>
  <linearGradient id="linearGradient3202" y2="-97.84" xlink:href="#linearGradient4142" gradientUnits="userSpaceOnUse" x2="70" gradientTransform="matrix(.76923 0 0 .78488 66.406 36.793)" y1="55.05" x1="70"/>
  <linearGradient id="linearGradient3230" y2="-97.84" xlink:href="#linearGradient4142" gradientUnits="userSpaceOnUse" x2="70" gradientTransform="matrix(.76923 0 0 .78488 106.41 36.793)" y1="55.05" x1="70"/>
  <linearGradient id="linearGradient3211" y2="-97.84" xlink:href="#linearGradient4142" gradientUnits="userSpaceOnUse" x2="70" gradientTransform="matrix(.76923 0 0 .78488 16.406 36.793)" y1="55.05" x1="70"/>
 </defs>
 <metadata id="metadata2413">
  <rdf:RDF>
   <cc:Work rdf:about="">
    <dc:format>image/svg+xml</dc:format>
    <dc:type rdf:resource="http://purl.org/dc/dcmitype/StillImage"/>
    <dc:title/>
   </cc:Work>
  </rdf:RDF>
 </metadata>
 <g id="layer2" style="display:none">
  <rect id="rect3745" style="opacity:.9;filter:url(#filter3174);fill:url(#ButtonShadow)" rx="6" ry="6" height="85" width="86" y="7" x="5"/>
 </g>
 <g id="layer3">
  <path id="path3786" style="opacity:0.08;fill:url(#linearGradient3780)" d="m12-95.031c-5.5111 0-10.031 4.5202-10.031 10.031v71c0 5.5111 4.5202 10.031 10.031 10.031h72c5.5111 0 10.031-4.5202 10.031-10.031v-71c0-5.5111-4.5202-10.031-10.031-10.031h-72z" transform="scale(1,-1)"/>
  <path id="path3778" style="opacity:.1;fill:url(#linearGradient3780)" d="m12-94.031c-4.9716 0-9.0312 4.0596-9.0312 9.0312v71c0 4.9716 4.0596 9.0312 9.0312 9.0312h72c4.9716 0 9.0312-4.0596 9.0312-9.0312v-71c0-4.9716-4.0596-9.0312-9.0312-9.0312h-72z" transform="scale(1,-1)"/>
  <path id="path3770" style="opacity:.2;fill:url(#linearGradient3780)" d="m12-93c-4.4091 0-8 3.5909-8 8v71c0 4.4091 3.5909 8 8 8h72c4.4091 0 8-3.5909 8-8v-71c0-4.4091-3.5909-8-8-8h-72z" transform="scale(1,-1)"/>
  <rect id="rect3723" style="opacity:.3;fill:url(#linearGradient3780)" transform="scale(1,-1)" rx="7" ry="7" height="85" width="86" y="-92" x="5"/>
  <rect id="rect3716" style="opacity:.45;fill:url(#linearGradient3721)" transform="scale(1,-1)" rx="6" ry="6" height="84" width="84" y="-91" x="6"/>
 </g>
 <g id="layer1">
  <rect id="rect2419" style="fill:url(#linearGradient3617)" rx="6" ry="6" height="84" width="84" y="6" x="6"/>
  <rect id="rect3970" style="opacity:.1;fill:url(#linearGradient3978)" transform="rotate(90)" rx="6" ry="6" height="84" width="84" y="-90" x="6"/>
  <path id="rect4359" style="opacity:.2;fill:url(#radialGradient4375)" d="m120.78 6.125c-2.74 0.5576-4.78 2.9665-4.78 5.875v68c0 3.324 2.676 6 6 6h72c3.324 0 6-2.676 6-6v-68c0-2.9085-2.0422-5.3174-4.7812-5.875 2.2051 0.53621 3.8125 2.4908 3.8125 4.875v68c0 2.8049-2.2264 5.0312-5.0312 5.0312h-72c-2.8049 0-5.0312-2.2264-5.0312-5.0312v-68c0-2.3842 1.6074-4.3388 3.8125-4.875z"/>
  <path id="path4412" style="opacity:.15" d="m6 100v1c0 3.324 2.676 6 6 6h72c3.324 0 6-2.676 6-6v-1c0 3.324-2.676 6-6 6h-72c-3.324 0-6-2.676-6-6z"/>
 </g>
 <g id="layer5">
  <rect id="rect3171" style="opacity:.2;filter:url(#filter4002);stroke:#fff;stroke-linecap:round;stroke-width:.5;fill:url(#linearGradient3613)" clip-path="url(#clipPath4355)" rx="12" ry="12" height="62" width="66" y="15" x="15"/>
 </g>
 <g id="layer7">
  <rect id="rect4011" style="opacity:.7;color:#000000;fill:url(#linearGradient4019)" height="84" width="12" y="6" x="42"/>
  <rect id="rect4086" style="opacity:.2;color:#000000;fill:url(#linearGradient4088)" height="80" width="1" y="6" x="48"/>
  <rect id="rect4090" style="opacity:.1;color:#000000;fill:url(#linearGradient4108)" height="84" width="2" y="6" x="54"/>
  <rect id="rect4110" style="opacity:.05;color:#000000;fill:url(#linearGradient4112)" transform="scale(-1,1)" height="84" width="2" y="6" x="-42"/>
  <path id="rect4116" style="opacity:.5;color:#000000;fill:url(#linearGradient4019)" d="m42 6v84h1v-84h-1z"/>
  <rect id="rect4125" style="opacity:.2;color:#000000;fill:url(#linearGradient4127)" height="84" width="12" y="6" x="42"/>
 </g>
 <g id="layer8">
  <path id="rect4377" style="opacity:.3;fill:url(#linearGradient4047)" d="m12 86c-3.324 0-6-2.676-6-6v-68c0-3.324 2.676-6 6-6h72c3.324 0 6 2.676 6 6v68c0 3.324-2.676 6-6 6zm0-0.96875h72c2.8049 0 5.0312-2.2264 5.0312-5.0312v-68c0-2.8049-2.226-5.0312-5.031-5.0312h-72c-2.8049 0-5.0312 2.2263-5.0312 5.0312v68c0 2.8049 2.2264 5.0312 5.0312 5.0312z"/>
  <path id="rect4414" style="opacity:.1;fill:url(#linearGradient4429-1)" d="m6 78v2c0 3.324 2.676 6 6 6h72c3.324 0 6-2.676 6-6v-2c0 3.324-2.676 6-6 6h-72c-3.324 0-6-2.676-6-6z"/>
 </g>
 <g id="layer4">
  <path id="path3888" style="fill:url(#linearGradient3228)" d="m6 80v4c0 3.324 2.676 6 6 6h72c3.324 0 6-2.676 6-6v-4c0 3.324-2.676 6-6 6h-72c-3.324 0-6-2.676-6-6z"/>
  <path id="rect4345" style="opacity:.1;color:#000000" d="m6 82v2c0 3.324 2.676 6 6 6h72c3.324 0 6-2.676 6-6v-2c0 3.324-2.676 6-6 6h-72c-3.324 0-6-2.676-6-6z"/>
  <path id="rect4336" style="opacity:.15;color:#000000" d="m6 83v1c0 3.324 2.676 6 6 6h72c3.324 0 6-2.676 6-6v-1c0 3.324-2.676 6-6 6h-72c-3.324 0-6-2.676-6-6z"/>
 </g>
 <path id="path3344" style="opacity:.57444;color:#000000;fill:url(#linearGradient3368)" d="m158.08 56.63c-1.2806 0.02016-2.8203 0.33905-4.7125 1.1375l-2.4375 8.8156c2.0061-0.84513 3.5483-1.27 4.875-1.2594 2.0117 0.01515 3.4373 0.883 4.7531 1.7875l2.4781-8.7344c-1.37-0.944-2.83-1.781-4.96-1.748zm6.2562 2.6812-2.4375 8.775c2.1798 1.508 4.7969 2.7335 9.6281 0.52812l2.47-8.774c-5.0391 2.1247-7.4873 0.97133-9.6688-0.52812zm-9.1406 7.7188c-1.2795 0.03176-2.786 0.38551-4.6719 1.1781h-0.0406l-2.49 8.735c5.0491-2.13 7.4402-0.89171 9.6281 0.60938l2.4781-8.8156c-1.3624-0.94381-2.7831-1.7592-4.9156-1.7062zm6.2969 2.5188-2.5188 8.7344c2.1839 1.5109 4.6252 2.7378 9.6688 0.60938l2.3969-8.5312c-5.1386 1.7926-7.3606 0.68818-9.5469-0.8125z"/>
 <path id="path4164" style="opacity:0.07;color:#000000;fill:url(#linearGradient4166)" transform="scale(1,-1)" d="m13-33c-1.0858 0-2 0.91421-2 2v18c0 1.0858 0.91421 2 2 2h24c1.0858 0 2-0.91421 2-2v-18c0-1.0858-0.91421-2-2-2z"/>
 <rect id="rect4150" style="color:#000000;fill:url(#linearGradient4158)" rx="1" transform="scale(1,-1)" height="20" width="26" y="-32" x="12"/>
 <rect id="rect4168" style="color:#000000;fill:#333" height="8" width="1" y="22" x="14"/>
 <rect id="rect4170" style="opacity:.6;color:#000000;fill:#333" height="8" width="1" y="22" x="16"/>
 <rect id="rect4172" style="color:#000000;fill:#333" height="6" width="1" y="22" x="18"/>
 <rect id="rect4174" style="opacity:.8;color:#000000;fill:#333" height="6" width="1" y="22" x="20"/>
 <rect id="rect4176" style="opacity:.6;color:#000000;fill:#333" height="6" width="1" y="22" x="22"/>
 <rect id="rect4178" style="color:#000000;fill:#333" height="6" width="1" y="22" x="24"/>
 <rect id="rect4180" style="opacity:.6;color:#000000;fill:#333" height="6" width="1" y="22" x="26"/>
 <rect id="rect4182" style="opacity:.8;color:#000000;fill:#333" height="6" width="1" y="22" x="28"/>
 <rect id="rect4184" style="color:#000000;fill:#333" height="6" width="1" y="22" x="30"/>
 <rect id="rect4186" style="opacity:.6;color:#000000;fill:#333" height="6" width="1" y="22" x="32"/>
 <rect id="rect4188" style="color:#000000;fill:#333" height="8" width="1" y="22" x="34"/>
 <rect id="rect4192" style="opacity:.2;color:#000000;fill:#333" height="1" width="1" y="29" x="18"/>
 <rect id="rect4194" style="opacity:.2;color:#000000;fill:#333" height="1" width="1" y="29" x="20"/>
 <rect id="rect4196" style="opacity:.2;color:#000000;fill:#333" height="1" width="1" y="29" x="22"/>
 <rect id="rect4198" style="opacity:.2;color:#000000;fill:#333" height="1" width="1" y="29" x="24"/>
 <rect id="rect4200" style="opacity:.2;color:#000000;fill:#333" height="1" width="1" y="29" x="26"/>
 <rect id="rect4202" style="opacity:.2;color:#000000;fill:#333" height="1" width="1" y="29" x="28"/>
 <rect id="rect4204" style="opacity:.2;color:#000000;fill:#333" height="1" width="1" y="29" x="30"/>
 <rect id="rect4206" style="opacity:.2;color:#000000;fill:#333" height="1" width="1" y="29" x="32"/>
 <g id="text4208" style="fill:#724d28">
  <path id="path4452" style="fill:#724d28" d="m12.818 35.706c0.33131 0.000003 0.58568 0.05878 0.76309 0.17634 0.17741 0.11543 0.26612 0.30567 0.26612 0.57072-0.000002 0.26719-0.08978 0.46064-0.26933 0.58034-0.17955 0.11756-0.43605 0.17635-0.7695 0.17634h-0.15711v0.74386h-0.50018v-2.1899c0.10901-0.02137 0.22444-0.03634 0.34628-0.04489 0.12184-0.0085 0.22871-0.01282 0.32063-0.01282m0.03206 0.42643c-0.03634 0.000002-0.07268 0.0011-0.10901 0.0032-0.0342 0.0021-0.06413 0.0043-0.08978 0.0064v0.64125h0.15711c0.17314 0.000001 0.30352-0.02351 0.39116-0.07054 0.08764-0.04702 0.13146-0.13466 0.13146-0.26291-0.000002-0.06199-0.01176-0.11329-0.03527-0.1539-0.02138-0.04061-0.05344-0.07267-0.09619-0.09619-0.04061-0.02565-0.09085-0.04275-0.1507-0.0513-0.05985-0.01069-0.12611-0.01603-0.19879-0.01603"/>
  <path id="path4454" style="fill:#724d28" d="m15.486 37.954c-0.02351-0.07695-0.05023-0.15604-0.08016-0.23726-0.02779-0.08123-0.05558-0.16245-0.08336-0.24368h-0.86569c-0.02779 0.08123-0.05664 0.16245-0.08657 0.24368-0.02779 0.08122-0.05344 0.16031-0.07695 0.23726h-0.51942c0.08336-0.2394 0.16245-0.46063 0.23726-0.6637 0.07481-0.20306 0.14749-0.39437 0.21803-0.57392 0.07268-0.17955 0.14321-0.34948 0.21161-0.5098 0.07054-0.16245 0.14321-0.32062 0.21803-0.47453h0.47773c0.07267 0.1539 0.14428 0.31208 0.21482 0.47453 0.07054 0.16032 0.14107 0.33025 0.21161 0.5098 0.07267 0.17955 0.14642 0.37086 0.22123 0.57392s0.1539 0.4243 0.23726 0.6637h-0.53545m-0.6-1.719c-0.01069 0.03206-0.02672 0.07588-0.04809 0.13146-0.02138 0.05558-0.04596 0.1197-0.07375 0.19238s-0.05878 0.15283-0.09298 0.24047c-0.03206 0.08764-0.06519 0.17955-0.09939 0.27574h0.63164c-0.0342-0.09619-0.06733-0.1881-0.09939-0.27574s-0.06306-0.16779-0.09298-0.24047c-0.02779-0.07267-0.05237-0.1368-0.07374-0.19238-0.02138-0.05557-0.03848-0.09939-0.0513-0.13146"/>
  <path id="path4456" style="fill:#724d28" d="m17.241 37.999c-0.36124 0-0.63698-0.10046-0.82722-0.30139-0.1881-0.20093-0.28215-0.48628-0.28215-0.85607 0-0.18382 0.02886-0.34734 0.08657-0.49056 0.05771-0.14535 0.1368-0.26719 0.23726-0.36552 0.10046-0.10046 0.22016-0.17634 0.3591-0.22764s0.28963-0.07695 0.45208-0.07695c0.09405 0.000002 0.17955 0.0075 0.2565 0.02244 0.07695 0.01283 0.14428 0.02886 0.202 0.04809 0.05771 0.0171 0.10581 0.03527 0.14428 0.05451s0.06626 0.0342 0.08336 0.04489l-0.14428 0.40399c-0.0684-0.03634-0.14856-0.06733-0.24047-0.09298-0.08978-0.02565-0.19238-0.03847-0.3078-0.03848-0.07695 0.000002-0.15283 0.01283-0.22764 0.03848-0.07268 0.02565-0.13787 0.06733-0.19558 0.12504-0.05558 0.05558-0.10046 0.12825-0.13466 0.21803s-0.0513 0.19879-0.0513 0.32704c-0.000001 0.1026 0.01069 0.19879 0.03206 0.28856 0.02351 0.08764 0.05985 0.16352 0.10901 0.22765 0.0513 0.06413 0.11756 0.11543 0.19879 0.1539 0.08122 0.03634 0.17955 0.05451 0.29498 0.05451 0.07268 0.000001 0.13787-0.0043 0.19558-0.01282 0.05771-0.0085 0.10901-0.01817 0.1539-0.02886 0.04489-0.01282 0.08443-0.02672 0.11863-0.04168s0.06519-0.02886 0.09298-0.04168l0.13787 0.40078c-0.07054 0.04275-0.16993 0.08123-0.29818 0.11543s-0.27681 0.0513-0.44567 0.0513"/>
  <path id="path4458" style="fill:#724d28" d="m19.618 37.954c-0.04489-0.07268-0.09833-0.1507-0.16031-0.23406-0.05985-0.0855-0.12611-0.16993-0.19879-0.2533-0.07054-0.0855-0.14428-0.16673-0.22123-0.24368-0.07695-0.07909-0.1539-0.14856-0.23085-0.20841v0.93944h-0.50018v-2.2219h0.50018v0.84004c0.13039-0.1368 0.26078-0.27894 0.39116-0.42643 0.13252-0.14962 0.25543-0.28749 0.36872-0.41361h0.59316c-0.15176 0.17955-0.3046 0.35269-0.4585 0.51942-0.15176 0.16673-0.31208 0.33452-0.48094 0.50338 0.17741 0.14749 0.34841 0.32276 0.513 0.52583 0.16672 0.20306 0.32597 0.4275 0.47774 0.67332h-0.59316"/>
  <path id="path4460" style="fill:#724d28" d="m22.067 37.954c-0.02351-0.07695-0.05023-0.15604-0.08016-0.23726-0.02779-0.08123-0.05558-0.16245-0.08336-0.24368h-0.86569c-0.02779 0.08123-0.05664 0.16245-0.08657 0.24368-0.02779 0.08122-0.05344 0.16031-0.07695 0.23726h-0.51942c0.08336-0.2394 0.16245-0.46063 0.23726-0.6637 0.07481-0.20306 0.14749-0.39437 0.21803-0.57392 0.07268-0.17955 0.14321-0.34948 0.21161-0.5098 0.07054-0.16245 0.14321-0.32062 0.21803-0.47453h0.47773c0.07267 0.1539 0.14428 0.31208 0.21482 0.47453 0.07054 0.16032 0.14107 0.33025 0.21161 0.5098 0.07267 0.17955 0.14642 0.37086 0.22123 0.57392s0.1539 0.4243 0.23726 0.6637h-0.53545m-0.599-1.719c-0.01069 0.03206-0.02672 0.07588-0.04809 0.13146-0.02138 0.05558-0.04596 0.1197-0.07374 0.19238-0.02779 0.07268-0.05878 0.15283-0.09298 0.24047-0.03206 0.08764-0.06519 0.17955-0.0994 0.27574h0.63164c-0.0342-0.09619-0.06733-0.1881-0.09939-0.27574s-0.06306-0.16779-0.09298-0.24047c-0.02779-0.07267-0.05237-0.1368-0.07374-0.19238-0.02138-0.05557-0.03848-0.09939-0.0513-0.13146"/>
  <path id="path4462" style="fill:#724d28" d="m23.893 36.117c-0.23299 0.000002-0.40185 0.0652-0.50659 0.19558-0.1026 0.12825-0.1539 0.3046-0.1539 0.52904 0 0.10901 0.01282 0.20841 0.03848 0.29818 0.02565 0.08764 0.06413 0.16352 0.11543 0.22764 0.0513 0.06413 0.11542 0.11436 0.19238 0.1507 0.07695 0.0342 0.16672 0.0513 0.26933 0.0513 0.05557 0.000001 0.1026-0.0011 0.14108-0.0032 0.04061-0.0021 0.07588-0.0064 0.10581-0.01282v-0.77271h0.50018v1.0998c-0.05985 0.02351-0.15604 0.04809-0.28856 0.07374-0.13253 0.02779-0.29605 0.04168-0.49056 0.04168-0.16673 0-0.31849-0.02565-0.45529-0.07695-0.13466-0.0513-0.25009-0.12611-0.34628-0.22444s-0.171-0.2191-0.22444-0.36231c-0.0513-0.14321-0.07695-0.30673-0.07695-0.49056 0-0.18596 0.02886-0.35055 0.08657-0.49377 0.05771-0.14321 0.1368-0.26398 0.23726-0.36231 0.10046-0.10046 0.21802-0.17634 0.35269-0.22764 0.1368-0.0513 0.28215-0.07695 0.43605-0.07695 0.10474 0.000002 0.19879 0.0075 0.28215 0.02244 0.0855 0.01283 0.15817 0.02886 0.21803 0.04809 0.06199 0.0171 0.11222 0.03527 0.1507 0.05451 0.04061 0.01924 0.06947 0.0342 0.08657 0.04489l-0.14428 0.40078c-0.0684-0.03634-0.14749-0.06733-0.23726-0.09298-0.08764-0.02779-0.18383-0.04168-0.28856-0.04168"/>
  <path id="path4464" style="fill:#724d28" d="m25.057 37.954v-2.2219h1.5005v0.42002h-1.0004v0.43605h0.88814v0.4104h-0.88814v0.53545h1.0741v0.42002h-1.5743"/>
  <path id="path4466" style="fill:#724d28" d="m27.769 35.732h0.50018v2.2219h-0.50018v-2.2219"/>
  <path id="path4468" style="fill:#724d28" d="m30.274 37.954c-0.14322-0.25436-0.29818-0.50552-0.46491-0.75347s-0.34414-0.48201-0.53224-0.70217v1.4556h-0.49376v-2.2219h0.4072c0.07054 0.07054 0.14856 0.15711 0.23406 0.25971s0.17207 0.21268 0.25971 0.33025c0.08977 0.11543 0.17848 0.2362 0.26612 0.36231 0.08764 0.12398 0.16993 0.24368 0.24688 0.3591v-1.3114h0.49697v2.2219h-0.42002"/>
  <path id="path4470" style="fill:#724d28" d="m31.813 37.572c0.07054 0.000001 0.12825-0.0053 0.17314-0.01603 0.04702-0.01282 0.08443-0.02886 0.11222-0.04809 0.02779-0.02137 0.04702-0.04596 0.05771-0.07374 0.01069-0.02779 0.01603-0.05878 0.01603-0.09298-0.000002-0.07267-0.0342-0.13252-0.1026-0.17955-0.0684-0.04916-0.18596-0.10153-0.35269-0.15711-0.07268-0.02565-0.14535-0.05451-0.21803-0.08657-0.07268-0.0342-0.13787-0.07588-0.19558-0.12504-0.05771-0.0513-0.10474-0.11222-0.14108-0.18276-0.03634-0.07267-0.05451-0.16031-0.05451-0.26291s0.01924-0.19451 0.05771-0.27574c0.03847-0.08336 0.09298-0.1539 0.16352-0.21161s0.15604-0.10153 0.2565-0.13146c0.10046-0.03206 0.21375-0.04809 0.33986-0.04809 0.14962 0.000002 0.27894 0.01603 0.38796 0.04809 0.10901 0.03206 0.19879 0.06733 0.26933 0.10581l-0.14428 0.39437c-0.06199-0.03206-0.13146-0.05985-0.20841-0.08336-0.07481-0.02565-0.16566-0.03847-0.27253-0.03848-0.1197 0.000002-0.20627 0.0171-0.25971 0.0513-0.0513 0.03206-0.07695 0.0823-0.07695 0.1507-0.000001 0.04061 0.0096 0.07482 0.02886 0.1026 0.01924 0.02779 0.04595 0.05344 0.08016 0.07695 0.03634 0.02138 0.07695 0.04168 0.12184 0.06092 0.04702 0.0171 0.09832 0.03527 0.1539 0.05451 0.11542 0.04275 0.21589 0.0855 0.30139 0.12825 0.0855 0.04061 0.15604 0.08871 0.21161 0.14428 0.05771 0.05558 0.10046 0.12077 0.12825 0.19558s0.04168 0.16566 0.04168 0.27253c-0.000002 0.20734-0.07268 0.36872-0.21803 0.48415-0.14535 0.11329-0.36445 0.16993-0.65729 0.16993-0.09833 0-0.18703-0.0064-0.26612-0.01924-0.07909-0.01069-0.14963-0.02458-0.21161-0.04168-0.05985-0.0171-0.11222-0.03527-0.15711-0.05451-0.04275-0.01924-0.07909-0.03741-0.10901-0.05451l0.14108-0.39758c0.06626 0.03634 0.14749 0.06947 0.24368 0.09939 0.09832 0.02779 0.21803 0.04168 0.3591 0.04168"/>
  <path id="path4472" style="fill:#724d28" d="m33.073 35.732h0.50018v2.2219h-0.50018v-2.2219"/>
  <path id="path4474" style="fill:#724d28" d="m34.588 37.547c0.02351 0.0021 0.05023 0.0043 0.08016 0.0064h0.11222c0.25009 0 0.43498-0.06306 0.55468-0.18917 0.12184-0.12611 0.18276-0.30032 0.18276-0.52262-0.000002-0.23299-0.05771-0.40933-0.17314-0.52904-0.11543-0.1197-0.29818-0.17955-0.54827-0.17955-0.0342 0.000002-0.06947 0.0011-0.10581 0.0032-0.03634 0.000001-0.07054 0.0021-0.1026 0.0064v1.4043m1.446-0.70538c-0.000003 0.19238-0.02993 0.36017-0.08978 0.50338s-0.14535 0.26185-0.2565 0.3559c-0.10902 0.09405-0.24261 0.16459-0.40078 0.21161-0.15818 0.04702-0.33559 0.07054-0.53224 0.07054-0.08978 0-0.19452-0.0043-0.31422-0.01282-0.1197-0.0064-0.23726-0.02137-0.35269-0.04489v-2.1642c0.11542-0.02137 0.23513-0.03527 0.3591-0.04168 0.12611-0.0085 0.23406-0.01282 0.32383-0.01282 0.19024 0.000003 0.36231 0.02138 0.51621 0.06413 0.15604 0.04275 0.28963 0.11008 0.40078 0.202s0.19665 0.20948 0.2565 0.35269c0.05985 0.14322 0.08977 0.31528 0.08978 0.51621"/>
  <path id="path4476" style="fill:#724d28" d="m36.448 37.954v-2.2219h1.5005v0.42002h-1.0004v0.43605h0.88814v0.4104h-0.88814v0.53545h1.0741v0.42002h-1.5743"/>
  <path id="path4478" d="m12.686 41.74c0.3249 0.000001 0.48735-0.11115 0.48735-0.33345-0.000001-0.0684-0.01496-0.12611-0.04489-0.17314-0.02779-0.04916-0.06626-0.09084-0.11543-0.12504-0.04916-0.03634-0.10581-0.06733-0.16993-0.09298-0.06199-0.02565-0.12825-0.0513-0.19879-0.07695-0.08123-0.02779-0.15818-0.05878-0.23085-0.09298-0.07268-0.03634-0.13573-0.07802-0.18917-0.12504-0.05344-0.04916-0.09619-0.10688-0.12825-0.17314-0.02993-0.06626-0.04489-0.14642-0.04489-0.24047 0-0.19451 0.06626-0.34628 0.19879-0.45529 0.13252-0.10901 0.31528-0.16352 0.54827-0.16352 0.13466 0.000002 0.2565 0.01496 0.36552 0.04489 0.11115 0.02779 0.19237 0.05878 0.24368 0.09298l-0.09939 0.2533c-0.04489-0.02779-0.11222-0.0545-0.202-0.08016-0.08764-0.02779-0.19024-0.04168-0.3078-0.04168-0.05985 0.000002-0.11543 0.0064-0.16673 0.01924-0.0513 0.01283-0.09619 0.03207-0.13466 0.05771-0.03848 0.02565-0.06947 0.05878-0.09298 0.09939-0.02138 0.03848-0.03206 0.08443-0.03206 0.13787-0.000001 0.05985 0.01176 0.11008 0.03527 0.15069s0.05664 0.07695 0.09939 0.10901c0.04275 0.02993 0.09191 0.05771 0.14749 0.08336 0.05771 0.02565 0.12077 0.0513 0.18917 0.07695 0.09619 0.03848 0.18382 0.07695 0.26291 0.11543 0.08122 0.03848 0.15069 0.08443 0.20841 0.13787 0.05985 0.05344 0.10581 0.11756 0.13787 0.19238 0.03206 0.07268 0.04809 0.16138 0.04809 0.26612-0.000002 0.19451-0.07161 0.34414-0.21482 0.44888-0.14108 0.10474-0.34094 0.15711-0.59957 0.15711-0.08764 0-0.16886-0.0064-0.24368-0.01924-0.07268-0.01069-0.13787-0.02351-0.19558-0.03848-0.05771-0.0171-0.10794-0.0342-0.15069-0.0513-0.04061-0.01924-0.07268-0.03527-0.09619-0.04809l0.09298-0.2565c0.04916 0.02779 0.12398 0.05878 0.22444 0.09298s0.22337 0.0513 0.36872 0.0513"/>
  <path id="path4480" d="m13.854 41.962v-2.4368l0.29818-0.0513v0.85287c0.05558-0.02137 0.11436-0.0374 0.17634-0.04809 0.06412-0.01282 0.12718-0.01924 0.18917-0.01924 0.13252 0.000001 0.24261 0.01924 0.33025 0.05771 0.08764 0.03634 0.15711 0.08871 0.20841 0.15711 0.05344 0.06626 0.09084 0.14642 0.11222 0.24047 0.02137 0.09405 0.03206 0.19772 0.03206 0.31101v0.93623h-0.29818v-0.8721c-0.000001-0.1026-0.0075-0.19024-0.02244-0.26291-0.01283-0.07267-0.03527-0.13146-0.06733-0.17634-0.03206-0.04489-0.07481-0.07695-0.12825-0.09619-0.05344-0.02137-0.1197-0.03206-0.19879-0.03206-0.03206 0.000001-0.0652 0.0021-0.09939 0.0064-0.0342 0.0043-0.06733 0.0096-0.09939 0.01603-0.02993 0.0043-0.05771 0.0096-0.08336 0.01603-0.02351 0.0064-0.04061 0.01176-0.0513 0.01603v1.3851h-0.29818"/>
  <path id="path4482" d="m15.981 41.962h-0.29818v-1.6673h0.29818v1.6673m-0.1507-1.9686c-0.05344 0.000002-0.09939-0.0171-0.13787-0.0513-0.03634-0.03634-0.05451-0.08443-0.05451-0.14428s0.01817-0.10687 0.05451-0.14108c0.03848-0.03634 0.08443-0.0545 0.13787-0.05451 0.05344 0.000003 0.09832 0.01817 0.13466 0.05451 0.03847 0.0342 0.05771 0.08123 0.05771 0.14108s-0.01924 0.10795-0.05771 0.14428c-0.03634 0.0342-0.08123 0.0513-0.13466 0.0513"/>
  <path id="path4484" d="m17.654 41.131c-0.000001-0.19451-0.04809-0.34414-0.14428-0.44888s-0.22444-0.1571-0.38475-0.15711c-0.08978 0.000002-0.16031 0.0032-0.21161 0.0096-0.04916 0.0064-0.08871 0.01389-0.11863 0.02244v1.0517c0.03634 0.02993 0.08871 0.05878 0.15711 0.08657s0.14321 0.04168 0.22444 0.04168c0.0855 0 0.15818-0.01496 0.21803-0.04489 0.06199-0.03206 0.11222-0.07481 0.15069-0.12825 0.03847-0.05557 0.06626-0.1197 0.08336-0.19238 0.0171-0.07481 0.02565-0.15497 0.02565-0.24047m0.31101 0c-0.000002 0.12611-0.0171 0.24261-0.0513 0.34948-0.03206 0.10688-0.08016 0.19879-0.14428 0.27574-0.06413 0.07695-0.14322 0.1368-0.23726 0.17955-0.09191 0.04275-0.19772 0.06412-0.31742 0.06412-0.09619 0-0.18169-0.01282-0.2565-0.03847-0.07268-0.02565-0.12718-0.05023-0.16352-0.07374v0.6669h-0.29818v-2.2091c0.07054-0.0171 0.15818-0.03527 0.26291-0.05451 0.10688-0.02137 0.22978-0.03206 0.36872-0.03206 0.12825 0.000001 0.24368 0.02031 0.34628 0.06092s0.19024 0.09833 0.26291 0.17314c0.07267 0.07482 0.12825 0.16673 0.16673 0.27574 0.04061 0.10688 0.06092 0.22765 0.06092 0.36231"/>
  <path id="path4486" d="m19.406 40.294h0.63164v0.25009h-0.63164v0.7695c-0.000001 0.08336 0.0064 0.15283 0.01924 0.20841 0.01282 0.05344 0.03206 0.09619 0.05771 0.12825 0.02565 0.02992 0.05771 0.0513 0.09619 0.06413 0.03847 0.01283 0.08336 0.01924 0.13466 0.01924 0.08977 0 0.16138-0.0096 0.21482-0.02886 0.05557-0.02137 0.09405-0.03634 0.11542-0.04489l0.05771 0.24688c-0.02993 0.01496-0.08229 0.03313-0.15711 0.05451-0.07481 0.02351-0.16031 0.03527-0.2565 0.03527-0.11329 0-0.20734-0.01389-0.28215-0.04168-0.07268-0.02993-0.13146-0.07375-0.17634-0.13146-0.04489-0.05771-0.07695-0.12825-0.09619-0.21161-0.0171-0.0855-0.02565-0.18383-0.02565-0.29498v-1.4877l0.29818-0.0513v0.51621"/>
  <path id="path4488" d="m21.845 41.128c-0.000001 0.13253-0.01924 0.25223-0.05771 0.3591-0.03848 0.10688-0.09298 0.19879-0.16352 0.27574-0.0684 0.07695-0.1507 0.1368-0.24688 0.17955-0.09619 0.04061-0.20093 0.06092-0.31422 0.06092s-0.21803-0.02031-0.31421-0.06092c-0.09619-0.04275-0.17955-0.1026-0.25009-0.17955-0.0684-0.07695-0.12184-0.16886-0.16031-0.27574-0.03848-0.10688-0.05771-0.22658-0.05771-0.3591-0.000001-0.13039 0.01924-0.24902 0.05771-0.3559 0.03847-0.10901 0.09191-0.20199 0.16031-0.27895 0.07054-0.07695 0.1539-0.13573 0.25009-0.17634 0.09619-0.04275 0.20092-0.06412 0.31421-0.06413 0.11329 0.000002 0.21803 0.02138 0.31422 0.06413 0.09619 0.04061 0.17848 0.0994 0.24688 0.17634 0.07054 0.07695 0.12504 0.16993 0.16352 0.27895 0.03847 0.10688 0.05771 0.22551 0.05771 0.3559m-0.31101 0c-0.000001-0.1881-0.04275-0.33666-0.12825-0.44567-0.08336-0.11115-0.19772-0.16672-0.34307-0.16673-0.14535 0.000002-0.26078 0.05558-0.34628 0.16673-0.08336 0.10902-0.12504 0.25757-0.12504 0.44567-0.000001 0.1881 0.04168 0.33773 0.12504 0.44888 0.0855 0.10901 0.20093 0.16352 0.34628 0.16352 0.14535 0.000001 0.25971-0.05451 0.34307-0.16352 0.0855-0.11115 0.12825-0.26078 0.12825-0.44888"/>
  <path id="path4490" d="m22.617 41.788c0 0.05771-0.01924 0.10794-0.05771 0.15069s-0.09084 0.06413-0.15711 0.06413c-0.06626 0-0.11863-0.02138-0.15711-0.06413s-0.05771-0.09298-0.05771-0.15069 0.01924-0.10794 0.05771-0.1507c0.03848-0.04275 0.09084-0.06412 0.15711-0.06413 0.06626 0.000001 0.11863 0.02138 0.15711 0.06413s0.05771 0.09298 0.05771 0.1507m0-1.2793c0 0.05771-0.01924 0.10795-0.05771 0.15069-0.03847 0.04275-0.09084 0.06413-0.15711 0.06413-0.06626 0.000001-0.11863-0.02137-0.15711-0.06413-0.03848-0.04275-0.05771-0.09298-0.05771-0.15069s0.01924-0.10794 0.05771-0.1507c0.03848-0.04275 0.09084-0.06412 0.15711-0.06412 0.06626 0.000001 0.11863 0.02138 0.15711 0.06412 0.03848 0.04275 0.05771 0.09298 0.05771 0.1507"/>
 </g>
 <rect id="rect4213" style="color:#000000;fill:#b32849" height="6" width="22" y="14" x="14"/>
 <path id="path4348" style="opacity:.05;color:#000000;fill:url(#linearGradient4398)" d="m-37 29c-1.0858 0-2-0.91421-2-2v-14c0-1.0858 0.91421-2 2-2h24c1.0858 0 2 0.91421 2 2v14c0 1.0858-0.91421 2-2 2z"/>
 <rect id="rect4350" style="color:#000000;fill:url(#linearGradient4400)" rx="1" transform="scale(1,-1)" height="16" width="26" y="-28" x="-38"/>
 <rect id="rect4352" style="color:#000000;fill:#333" height="8" width="1" y="18" x="-36"/>
 <rect id="rect4354" style="opacity:.4;color:#000000;fill:#333" height="8" width="1" y="18" x="-34"/>
 <rect id="rect4356" style="color:#000000;fill:#333" height="6" width="1" y="18" x="-32"/>
 <rect id="rect4358" style="opacity:.7;color:#000000;fill:#333" height="6" width="1" y="18" x="-30"/>
 <rect id="rect4360" style="opacity:.4;color:#000000;fill:#333" height="6" width="1" y="18" x="-28"/>
 <rect id="rect4362" style="color:#000000;fill:#333" height="6" width="1" y="18" x="-26"/>
 <rect id="rect4364" style="opacity:.4;color:#000000;fill:#333" height="6" width="1" y="18" x="-24"/>
 <rect id="rect4366" style="opacity:.7;color:#000000;fill:#333" height="6" width="1" y="18" x="-22"/>
 <rect id="rect4368" style="color:#000000;fill:#333" height="6" width="1" y="18" x="-20"/>
 <rect id="rect4370" style="opacity:.4;color:#000000;fill:#333" height="6" width="1" y="18" x="-18"/>
 <rect id="rect4372" style="color:#000000;fill:#333" height="8" width="1" y="18" x="-16"/>
 <rect id="rect4374" style="opacity:.2;color:#000000;fill:#333" height="1" width="1" y="25" x="-32"/>
 <rect id="rect4376" style="opacity:.2;color:#000000;fill:#333" height="1" width="1" y="25" x="-30"/>
 <rect id="rect4378" style="opacity:.2;color:#000000;fill:#333" height="1" width="1" y="25" x="-28"/>
 <rect id="rect4380" style="opacity:.2;color:#000000;fill:#333" height="1" width="1" y="25" x="-26"/>
 <rect id="rect4382" style="opacity:.2;color:#000000;fill:#333" height="1" width="1" y="25" x="-24"/>
 <rect id="rect4384" style="opacity:.2;color:#000000;fill:#333" height="1" width="1" y="25" x="-22"/>
 <rect id="rect4386" style="opacity:.2;color:#000000;fill:#333" height="1" width="1" y="25" x="-20"/>
 <rect id="rect4388" style="opacity:.2;color:#000000;fill:#333" height="1" width="1" y="25" x="-18"/>
 <text id="text4390" y="35.953751" x="-38.105804" xml:space="preserve" style="font-size:3.2063px;letter-spacing:0px;word-spacing:0px;font-family:Ubuntu;line-height:125%;fill:#724d28"><tspan id="tspan4392" y="35.953751" x="-38.105804" style="font-weight:bold;fill:#724d28">PACKAGE INSIDE</tspan><tspan id="tspan4394" y="39.96159" x="-38.105804">Ship to:</tspan></text>
 <rect id="rect4396" style="color:#000000;fill:#e6e6e6" height="2" width="22" y="14" x="-36"/>
 <text id="text4412" y="-2.0323544" x="14.914495" xml:space="preserve" style="font-size:2.311px;font-weight:bold;letter-spacing:0px;word-spacing:0px;font-family:Ubuntu;line-height:125%;fill:#ffffff"><tspan id="tspan4414" y="-2.0323544" x="14.914495">Wine Uninstaller</tspan></text>
 <g id="text3226" style="fill:#fff">
  <path id="path3231" d="m16.174 16.537c0.01849 0.06317 0.03852 0.13481 0.06008 0.21492 0.02311 0.07857 0.04699 0.16023 0.07164 0.24496 0.02619 0.08474 0.05238 0.16947 0.07857 0.2542 0.02619 0.08474 0.05161 0.16331 0.07626 0.23572 0.02003-0.07857 0.04005-0.16408 0.06008-0.25652 0.02157-0.09244 0.0416-0.18796 0.06009-0.28656s0.0362-0.19643 0.05315-0.29349c0.01849-0.0986 0.03543-0.19335 0.05084-0.28425h0.37438c-0.05392 0.26807-0.11632 0.54-0.18719 0.81577-0.06933 0.27578-0.14482 0.53768-0.22647 0.78573h-0.33047c-0.05392-0.1479-0.10631-0.30274-0.15714-0.4645-0.05084-0.16331-0.10091-0.32661-0.15021-0.48992-0.0493 0.16331-0.0986 0.32662-0.1479 0.48992-0.0493 0.16177-0.10091 0.3166-0.15483 0.4645h-0.33047c-0.08165-0.24804-0.15792-0.50995-0.22878-0.78573-0.06933-0.27577-0.13095-0.5477-0.18488-0.81577h0.39055c0.01541 0.0909 0.03235 0.18565 0.05084 0.28425 0.01849 0.09706 0.03775 0.19489 0.05777 0.29349 0.02003 0.0986 0.04006 0.19412 0.06009 0.28656 0.02157 0.09244 0.04314 0.17794 0.06471 0.25652 0.02773-0.07549 0.05469-0.1556 0.08088-0.24034 0.02619-0.08473 0.05161-0.16947 0.07626-0.2542s0.04699-0.16639 0.06702-0.24496c0.02157-0.07857 0.04083-0.14867 0.05777-0.2103h0.30736"/>
  <path id="path3233" d="m17.61 17.968h-0.34433v-1.2156h0.34433v1.2156m0.03235-1.5668c0 0.06317-0.0208 0.11324-0.0624 0.15021-0.04006 0.03544-0.08782 0.05315-0.14328 0.05315-0.05546 0.000001-0.10399-0.01772-0.14559-0.05315-0.04006-0.03697-0.06009-0.08704-0.06008-0.15021-0.000001-0.06317 0.02003-0.11246 0.06008-0.1479 0.0416-0.03697 0.09013-0.05546 0.14559-0.05546 0.05546 0.000002 0.10322 0.01849 0.14328 0.05546 0.0416 0.03544 0.0624 0.08474 0.0624 0.1479"/>
  <path id="path3235" d="m17.933 16.794c0.05854-0.01695 0.13404-0.03235 0.22647-0.04622 0.09244-0.01541 0.1895-0.02311 0.29118-0.02311 0.10322 0.000001 0.18873 0.01387 0.25652 0.0416 0.06933 0.02619 0.12402 0.06394 0.16408 0.11324 0.04005 0.0493 0.06856 0.10784 0.08551 0.17563s0.02542 0.14328 0.02542 0.22647v0.68636h-0.34433v-0.64476c-0.000001-0.11093-0.01464-0.1895-0.04391-0.23572s-0.08397-0.06933-0.16408-0.06933c-0.02465 0.000001-0.05084 0.0015-0.07857 0.0046-0.02773 0.0015-0.05238 0.0039-0.07395 0.0069v0.93825h-0.34433v-1.174"/>
  <path id="path3237" d="m19.239 17.369c0-0.10784 0.01618-0.20182 0.04853-0.28194 0.03389-0.08165 0.0778-0.14944 0.13172-0.20336s0.11555-0.09475 0.18488-0.12248c0.07087-0.02773 0.14328-0.0416 0.21723-0.0416 0.17255 0.000001 0.3089 0.05315 0.40904 0.15946 0.10014 0.10476 0.15021 0.2596 0.15021 0.4645-0.000001 0.02003-0.000772 0.04237-0.0023 0.06702-0.0015 0.02311-0.0031 0.04391-0.0046 0.0624h-0.7811c0.0077 0.07087 0.04083 0.1271 0.09937 0.1687s0.13712 0.0624 0.23572 0.06239c0.06317 0.000001 0.12479-0.0054 0.18488-0.01618 0.06162-0.01233 0.1117-0.02696 0.15021-0.04391l0.04622 0.27962c-0.01849 0.0092-0.04314 0.01849-0.07395 0.02773-0.03081 0.0092-0.06548 0.01695-0.10399 0.02311-0.03698 0.0077-0.07703 0.01387-0.12017 0.01849-0.04314 0.0046-0.08628 0.0069-0.12941 0.0069-0.10939 0-0.2049-0.01618-0.28656-0.04853-0.08011-0.03235-0.14713-0.07626-0.20105-0.13172-0.05238-0.057-0.09167-0.12402-0.11786-0.20105-0.02465-0.07703-0.03698-0.16023-0.03698-0.24958m0.80884-0.13172c-0.0015-0.02927-0.0069-0.05777-0.01618-0.08551-0.0077-0.02773-0.0208-0.05238-0.03929-0.07395-0.01695-0.02157-0.03929-0.03928-0.06702-0.05315-0.02619-0.01387-0.05932-0.0208-0.09937-0.0208-0.03852 0.000001-0.07164 0.0069-0.09937 0.0208-0.02773 0.01233-0.05084 0.02927-0.06933 0.05084s-0.03312 0.04699-0.04391 0.07626c-0.0092 0.02773-0.01618 0.05623-0.0208 0.08551h0.45526"/>
  <path id="path3239" d="m21.851 18c-0.11247 0-0.20953-0.01541-0.29118-0.04622-0.08165-0.03235-0.14944-0.07626-0.20336-0.13172-0.05238-0.057-0.09167-0.12402-0.11786-0.20105-0.02465-0.07857-0.03698-0.16485-0.03698-0.25883v-0.99602h0.36051v0.96598c-0.000001 0.06471 0.0069 0.12017 0.0208 0.16639 0.01541 0.04468 0.03543 0.08166 0.06009 0.11093 0.02619 0.02773 0.057 0.04776 0.09244 0.06009 0.03697 0.01233 0.07703 0.01849 0.12017 0.01849 0.08782 0 0.15868-0.02696 0.21261-0.08088 0.05546-0.05392 0.08319-0.14559 0.08319-0.275v-0.96598h0.36051v0.99602c-0.000001 0.09398-0.0131 0.18026-0.03929 0.25883s-0.06625 0.14636-0.12017 0.20336c-0.05392 0.05546-0.12248 0.0986-0.20568 0.12941-0.08319 0.03081-0.1818 0.04622-0.2958 0.04622"/>
  <path id="path3241" d="m22.835 16.794c0.05854-0.01695 0.13404-0.03235 0.22647-0.04622 0.09244-0.01541 0.1895-0.02311 0.29118-0.02311 0.10322 0.000001 0.18873 0.01387 0.25652 0.0416 0.06933 0.02619 0.12402 0.06394 0.16408 0.11324 0.04005 0.0493 0.06856 0.10784 0.08551 0.17563s0.02542 0.14328 0.02542 0.22647v0.68636h-0.34433v-0.64476c-0.000001-0.11093-0.01464-0.1895-0.04391-0.23572s-0.08397-0.06933-0.16408-0.06933c-0.02465 0.000001-0.05084 0.0015-0.07857 0.0046-0.02773 0.0015-0.05238 0.0039-0.07395 0.0069v0.93825h-0.34433v-1.174"/>
  <path id="path3243" d="m24.543 17.968h-0.34433v-1.2156h0.34433v1.2156m0.03235-1.5668c0 0.06317-0.0208 0.11324-0.0624 0.15021-0.04006 0.03544-0.08782 0.05315-0.14328 0.05315-0.05546 0.000001-0.10399-0.01772-0.14559-0.05315-0.04006-0.03697-0.06008-0.08704-0.06008-0.15021s0.02003-0.11246 0.06008-0.1479c0.0416-0.03697 0.09013-0.05546 0.14559-0.05546 0.05546 0.000002 0.10322 0.01849 0.14328 0.05546 0.0416 0.03544 0.0624 0.08474 0.0624 0.1479"/>
  <path id="path3245" d="m24.866 16.794c0.05854-0.01695 0.13404-0.03235 0.22647-0.04622 0.09244-0.01541 0.1895-0.02311 0.29118-0.02311 0.10322 0.000001 0.18873 0.01387 0.25652 0.0416 0.06933 0.02619 0.12402 0.06394 0.16408 0.11324s0.06856 0.10784 0.08551 0.17563 0.02542 0.14328 0.02542 0.22647v0.68636h-0.34433v-0.64476c-0.000001-0.11093-0.01464-0.1895-0.04391-0.23572s-0.08397-0.06933-0.16408-0.06933c-0.02465 0.000001-0.05084 0.0015-0.07857 0.0046-0.02773 0.0015-0.05238 0.0039-0.07395 0.0069v0.93825h-0.34433v-1.174"/>
  <path id="path3247" d="m26.578 17.72c0.06317 0 0.10784-0.0062 0.13404-0.01849 0.02619-0.01232 0.03928-0.0362 0.03929-0.07164-0.000001-0.02773-0.01695-0.05161-0.05084-0.07164-0.0339-0.02157-0.08551-0.04545-0.15483-0.07164-0.05392-0.02003-0.10322-0.04083-0.1479-0.06239-0.04314-0.02157-0.08011-0.04699-0.11093-0.07626-0.03081-0.03081-0.05469-0.06702-0.07164-0.10862s-0.02542-0.09167-0.02542-0.15021c0-0.11401 0.04237-0.20413 0.1271-0.27038s0.20105-0.09937 0.34896-0.09937c0.07395 0.000001 0.14482 0.0069 0.21261 0.0208 0.06779 0.01233 0.12171 0.02619 0.16177 0.0416l-0.06009 0.26807c-0.04006-0.01386-0.08397-0.02619-0.13172-0.03698-0.04622-0.01078-0.0986-0.01618-0.15714-0.01618-0.10784 0-0.16177 0.03004-0.16177 0.09013 0 0.01387 0.0023 0.02619 0.0069 0.03697 0.0046 0.01079 0.01386 0.02157 0.02773 0.03235 0.01387 0.0092 0.03235 0.02003 0.05546 0.03235 0.02465 0.01078 0.05546 0.02311 0.09244 0.03697 0.07549 0.02773 0.13789 0.05546 0.18719 0.08319 0.0493 0.02619 0.08782 0.05546 0.11555 0.08782 0.02927 0.03081 0.0493 0.06548 0.06009 0.10399 0.01232 0.03852 0.01849 0.08319 0.01849 0.13404-0.000001 0.12017-0.04545 0.21107-0.13635 0.27269-0.08936 0.06162-0.21646 0.09244-0.38131 0.09244-0.10784 0-0.19797-0.0092-0.27038-0.02773-0.07087-0.01849-0.12017-0.03389-0.1479-0.04622l0.05777-0.27962c0.05854 0.02311 0.11863 0.0416 0.18026 0.05546 0.06162 0.01233 0.12248 0.01849 0.18256 0.01849"/>
  <path id="path3249" d="m27.337 16.449 0.34433-0.05546v0.3582h0.41366v0.28656h-0.41366v0.42753c-0.000001 0.07241 0.01232 0.13018 0.03697 0.17332 0.02619 0.04314 0.0778 0.06471 0.15483 0.06471 0.03697 0.000001 0.07472-0.0031 0.11324-0.0092 0.04006-0.0077 0.07626-0.01772 0.10862-0.03004l0.04853 0.26807c-0.0416 0.01695-0.08782 0.03158-0.13866 0.04391s-0.11324 0.01849-0.18719 0.01849c-0.09398 0-0.17178-0.01233-0.23341-0.03698-0.06163-0.02619-0.11093-0.06163-0.1479-0.1063-0.03698-0.04622-0.06317-0.10168-0.07857-0.16639-0.01387-0.06471-0.0208-0.13635-0.0208-0.21492v-1.0214"/>
  <path id="path3251" d="m28.793 17.727c0.03389 0 0.06625-0.00077 0.09706-0.0023 0.03081-0.0015 0.05546-0.0039 0.07395-0.0069v-0.26114c-0.01387-0.0031-0.03467-0.0062-0.0624-0.0092-0.02773-0.0031-0.05315-0.0046-0.07626-0.0046-0.03235 0.000001-0.06317 0.0023-0.09244 0.0069-0.02773 0.0031-0.05238 0.01001-0.07395 0.0208-0.02157 0.01078-0.03852 0.02542-0.05084 0.04391s-0.01849 0.0416-0.01849 0.06933c-0.000001 0.05392 0.01772 0.09167 0.05315 0.11324 0.03697 0.02003 0.08704 0.03004 0.15021 0.03004m-0.02773-1.0076c0.10168 0.000001 0.18642 0.01156 0.25421 0.03466 0.06779 0.02311 0.12171 0.05623 0.16177 0.09937 0.0416 0.04314 0.07087 0.09552 0.08782 0.15714 0.01695 0.06163 0.02542 0.13018 0.02542 0.20568v0.7164c-0.0493 0.01078-0.11786 0.02311-0.20568 0.03698-0.08782 0.01541-0.19412 0.02311-0.31891 0.02311-0.07857 0-0.15021-0.0069-0.21492-0.0208-0.06317-0.01387-0.11786-0.0362-0.16408-0.06702-0.04622-0.03235-0.08165-0.07395-0.1063-0.12479s-0.03698-0.11324-0.03698-0.18719c0-0.07087 0.01387-0.13095 0.0416-0.18026 0.02927-0.0493 0.06779-0.08859 0.11555-0.11786s0.10245-0.05007 0.16408-0.0624c0.06162-0.01386 0.12556-0.0208 0.19181-0.0208 0.04468 0 0.08396 0.0023 0.11786 0.0069 0.03543 0.0031 0.06394 0.0077 0.08551 0.01387v-0.03235c-0.000001-0.05854-0.01772-0.10553-0.05315-0.14097-0.03544-0.03543-0.09706-0.05315-0.18488-0.05315-0.05855 0.000001-0.11632 0.0046-0.17332 0.01387-0.057 0.0077-0.1063 0.01926-0.1479 0.03466l-0.04391-0.27731c0.02003-0.0062 0.04468-0.01232 0.07395-0.01849 0.03081-0.0077 0.06394-0.01387 0.09937-0.01849 0.03543-0.0062 0.07241-0.01078 0.11093-0.01386 0.04006-0.0046 0.08011-0.0069 0.12017-0.0069"/>
  <path id="path3253" d="m30.091 17.991c-0.10014-0.0015-0.1818-0.01233-0.24496-0.03235-0.06163-0.02003-0.11093-0.04776-0.1479-0.08319-0.03543-0.03697-0.06009-0.08088-0.07395-0.13172-0.01233-0.05238-0.01849-0.11093-0.01849-0.17563v-1.338l0.34433-0.05546v1.3242c-0.000001 0.03081 0.0023 0.05854 0.0069 0.08319s0.01309 0.04545 0.02542 0.0624c0.01386 0.01695 0.03312 0.03081 0.05777 0.0416s0.05777 0.01772 0.09937 0.0208l-0.04853 0.28425"/>
  <path id="path3255" d="m30.822 17.991c-0.10014-0.0015-0.1818-0.01233-0.24496-0.03235-0.06163-0.02003-0.11093-0.04776-0.1479-0.08319-0.03543-0.03697-0.06009-0.08088-0.07395-0.13172-0.01233-0.05238-0.01849-0.11093-0.01849-0.17563v-1.338l0.34433-0.05546v1.3242c-0.000001 0.03081 0.0023 0.05854 0.0069 0.08319s0.01309 0.04545 0.02542 0.0624c0.01387 0.01695 0.03312 0.03081 0.05777 0.0416s0.05777 0.01772 0.09937 0.0208l-0.04853 0.28425"/>
  <path id="path3257" d="m31.01 17.369c0-0.10784 0.01618-0.20182 0.04853-0.28194 0.03389-0.08165 0.0778-0.14944 0.13172-0.20336s0.11555-0.09475 0.18488-0.12248c0.07087-0.02773 0.14328-0.0416 0.21723-0.0416 0.17255 0.000001 0.3089 0.05315 0.40904 0.15946 0.10014 0.10476 0.15021 0.2596 0.15021 0.4645-0.000001 0.02003-0.000771 0.04237-0.0023 0.06702-0.0015 0.02311-0.0031 0.04391-0.0046 0.0624h-0.7811c0.0077 0.07087 0.04083 0.1271 0.09937 0.1687s0.13712 0.0624 0.23572 0.06239c0.06316 0.000001 0.12479-0.0054 0.18488-0.01618 0.06162-0.01233 0.1117-0.02696 0.15021-0.04391l0.04622 0.27962c-0.01849 0.0092-0.04314 0.01849-0.07395 0.02773-0.03081 0.0092-0.06548 0.01695-0.10399 0.02311-0.03698 0.0077-0.07703 0.01387-0.12017 0.01849-0.04314 0.0046-0.08628 0.0069-0.12941 0.0069-0.10939 0-0.20491-0.01618-0.28656-0.04853-0.08011-0.03235-0.14713-0.07626-0.20105-0.13172-0.05238-0.057-0.09167-0.12402-0.11786-0.20105-0.02465-0.07703-0.03698-0.16023-0.03698-0.24958m0.80884-0.13172c-0.0015-0.02927-0.0069-0.05777-0.01618-0.08551-0.0077-0.02773-0.0208-0.05238-0.03929-0.07395-0.01695-0.02157-0.03929-0.03928-0.06702-0.05315-0.02619-0.01387-0.05932-0.0208-0.09937-0.0208-0.03852 0.000001-0.07164 0.0069-0.09937 0.0208-0.02773 0.01233-0.05084 0.02927-0.06933 0.05084s-0.03312 0.04699-0.04391 0.07626c-0.0092 0.02773-0.01618 0.05623-0.0208 0.08551h0.45526"/>
  <path id="path3259" d="m33.15 17.057c-0.03081-0.0077-0.06702-0.0154-0.10862-0.02311-0.0416-0.0092-0.08628-0.01386-0.13404-0.01387-0.02157 0.000001-0.04776 0.0023-0.07857 0.0069-0.02927 0.0031-0.05161 0.0069-0.06702 0.01155v0.929h-0.34433v-1.1509c0.06162-0.02157 0.13404-0.0416 0.21723-0.06009 0.08473-0.02003 0.17871-0.03004 0.28194-0.03004 0.01849 0.000001 0.04083 0.0015 0.06702 0.0046 0.02619 0.0015 0.05238 0.0046 0.07857 0.0092 0.02619 0.0031 0.05238 0.0077 0.07857 0.01387 0.02619 0.0046 0.04853 0.01079 0.06702 0.01849l-0.05777 0.28425"/>
 </g>
 <path id="path3200" style="opacity:.57444;color:#000000;fill:url(#linearGradient3202)" d="m110 26c-1.108 0-2 0.892-2 2v22c0 1.108 0.892 2 2 2h22c1.108 0 2-0.892 2-2v-22c0-1.108-0.892-2-2-2h-22zm1 2h20c0.554 0 1 0.446 1 1v20c0 0.554-0.446 1-1 1h-20c-0.554 0-1-0.446-1-1v-20c0-0.554 0.446-1 1-1zm10 1-9 11h4v8h10v-8h4l-9-11zm-11 25c-1.108 0-2 0.892-2 2v22c0 1.108 0.892 2 2 2h22c1.108 0 2-0.892 2-2v-22c0-1.108-0.892-2-2-2h-22zm1 2h20c0.554 0 1 0.446 1 1v20c0 0.554-0.446 1-1 1h-20c-0.554 0-1-0.446-1-1v-20c0-0.554 0.446-1 1-1zm7.8438 2.0312c-0.9851 0.01551-2.1694 0.26081-3.625 0.875l-1.875 6.7812c1.5431-0.6501 2.7295-0.97694 3.75-0.96875 1.5475 0.01165 2.644 0.67923 3.6562 1.375l1.9062-6.7188c-1.0509-0.72522-2.1707-1.3696-3.8125-1.3438zm4.8125 2.0625-1.875 6.75c1.6768 1.16 3.6899 2.1027 7.4062 0.40625l1.9062-6.75c-3.8762 1.6344-5.7595 0.74717-7.4375-0.40625zm-7.0312 5.9375c-0.98426 0.02443-2.1431 0.29654-3.5938 0.90625h-0.0312l-1.9062 6.7188c3.8839-1.6385 5.7233-0.68593 7.4062 0.46875l1.9062-6.7812c-1.048-0.72601-2.1408-1.3532-3.7812-1.3125zm4.8438 1.9375-1.9375 6.7188c1.6799 1.1622 3.5579 2.106 7.4375 0.46875l1.8438-6.5625c-3.9528 1.3789-5.662 0.52937-7.3438-0.625z"/>
 <path id="path3228" style="opacity:.57444;color:#000000;fill:url(#linearGradient3230)" d="m150 26c-1.108 0-2 0.892-2 2v22c0 1.108 0.892 2 2 2h22c1.108 0 2-0.892 2-2v-22c0-1.108-0.892-2-2-2zm1 2h20c0.554 0 1 0.446 1 1v20c0 0.554-0.446 1-1 1h-20c-0.554 0-1-0.446-1-1v-20c0-0.554 0.446-1 1-1zm10 1-9 11h4v8h10v-8h4z"/>
 <path id="path3209" style="opacity:.57444;color:#000000;fill:url(#linearGradient3211)" d="m60 26c-1.108 0-2 0.892-2 2v22c0 1.108 0.892 2 2 2h22c1.108 0 2-0.892 2-2v-22c0-1.108-0.892-2-2-2h-22zm1 2h20c0.554 0 1 0.446 1 1v20c0 0.554-0.446 1-1 1h-20c-0.554 0-1-0.446-1-1v-20c0-0.554 0.446-1 1-1zm5.0625 3.2188-2.8438 2.8438 4.9375 4.9375-4.9375 4.9375 2.8438 2.8438l4.938-4.938 4.938 4.937 2.843-2.843-4.937-4.938 4.937-4.938-2.843-2.843-4.938 4.937-4.938-4.937zm-6.062 22.781c-1.108 0-2 0.892-2 2v22c0 1.108 0.892 2 2 2h22c1.108 0 2-0.892 2-2v-22c0-1.108-0.892-2-2-2h-22zm1 2h20c0.554 0 1 0.446 1 1v20c0 0.554-0.446 1-1 1h-20c-0.554 0-1-0.446-1-1v-20c0-0.554 0.446-1 1-1zm10 2-4 4 4 4 4-4-4-4zm-5 5-4 4 4 4 4-4-4-4zm10 0-4 4 4 4 4-4-4-4zm-5 5-4 4 4 4 4-4-4-4z"/>
</svg>
