<?xml version="1.0" encoding="UTF-8" standalone="no"?>
<!-- Created with Inkscape (http://www.inkscape.org/) -->
<svg id="svg2408" xmlns:rdf="http://www.w3.org/1999/02/22-rdf-syntax-ns#" xmlns="http://www.w3.org/2000/svg" height="96" width="96" version="1.0" xmlns:cc="http://creativecommons.org/ns#" xmlns:xlink="http://www.w3.org/1999/xlink" xmlns:dc="http://purl.org/dc/elements/1.1/">
 <defs id="defs2410">
  <linearGradient id="ButtonShadow" y2="7.0165" gradientUnits="userSpaceOnUse" x2="45.448" gradientTransform="scale(1.0059 .99417)" y1="92.54" x1="45.448">
   <stop id="stop3750" offset="0"/>
   <stop id="stop3752" style="stop-opacity:.58824" offset="1"/>
  </linearGradient>
  <filter id="filter3174" color-interpolation-filters="sRGB">
   <feGaussianBlur id="feGaussianBlur3176" stdDeviation="1.71"/>
  </filter>
  <linearGradient id="linearGradient3059-5" y2="90.239" xlink:href="#ButtonShadow-0-3" gradientUnits="userSpaceOnUse" x2="32.251" gradientTransform="matrix(1.0238 0 0 1.0119 -1.1429 -98.071)" y1="6.1317" x1="32.251"/>
  <linearGradient id="ButtonShadow-0-3" y2="7.0165" gradientUnits="userSpaceOnUse" x2="45.448" gradientTransform="matrix(1.0059 0 0 .99417 100 0)" y1="92.54" x1="45.448">
   <stop id="stop3750-8-0" offset="0"/>
   <stop id="stop3752-5-1" style="stop-opacity:.58824" offset="1"/>
  </linearGradient>
  <linearGradient id="linearGradient3721-6" y2="90.239" xlink:href="#ButtonShadow-0-3" gradientUnits="userSpaceOnUse" x2="32.251" gradientTransform="translate(0,-97)" y1="6.1317" x1="32.251"/>
  <linearGradient id="linearGradient3737-4">
   <stop id="stop3739-7" style="stop-color:#fff" offset="0"/>
   <stop id="stop3741-2" style="stop-color:#fff;stop-opacity:0" offset="1"/>
  </linearGradient>
  <radialGradient id="radialGradient8098" xlink:href="#linearGradient3737-4" gradientUnits="userSpaceOnUse" cy="90.172" cx="48" gradientTransform="matrix(1.1565 0 0 .99522 -7.1822 -1.1002)" r="42"/>
  <linearGradient id="linearGradient8101" y2="63.893" xlink:href="#linearGradient3737-4" gradientUnits="userSpaceOnUse" x2="36.357" gradientTransform="matrix(.99932 0 0 .99931 .36371 -1.2972)" y1="6" x1="36.357"/>
  <linearGradient id="linearGradient8108" y2="5.9877" gradientUnits="userSpaceOnUse" x2="48" gradientTransform="matrix(.99932 0 0 .99931 .36371 -1.2972)" y1="90" x1="48">
   <stop id="stop4210-2" style="stop-color:#f3840c" offset="0"/>
   <stop id="stop4212-7" style="stop-color:#f2b80c" offset="1"/>
  </linearGradient>
  <linearGradient id="linearGradient8630" y2="74.585" gradientUnits="userSpaceOnUse" x2="43.365" y1="6.5414" x1="42.762">
   <stop id="stop8626" style="stop-color:#f4e868" offset="0"/>
   <stop id="stop8715" style="stop-color:#e0b004" offset=".45370"/>
   <stop id="stop8628" style="stop-color:#68cff4" offset="1"/>
  </linearGradient>
  <radialGradient id="radialGradient8792" gradientUnits="userSpaceOnUse" cy="-10.499" cx="254.27" gradientTransform="matrix(1 0 0 1.0311 0 -.39247)" r="57.767">
   <stop id="stop8721" style="stop-color:#393939" offset="0"/>
   <stop id="stop8723" style="stop-color:#151515" offset="1"/>
  </radialGradient>
  <linearGradient id="linearGradient8794" y2="18.565" gradientUnits="userSpaceOnUse" x2="244.19" y1="74.727" x1="259.56">
   <stop id="stop8733" style="stop-color:#b6b6b6" offset="0"/>
   <stop id="stop8735" style="stop-color:#b6b6b6;stop-opacity:0" offset="1"/>
  </linearGradient>
  <linearGradient id="linearGradient8796" y2="-5.0142" gradientUnits="userSpaceOnUse" x2="225.35" gradientTransform="translate(-453.15 170.83)" y1="7.5732" x1="251.8">
   <stop id="stop8743" style="stop-color:#9b9b9b" offset="0"/>
   <stop id="stop8745" style="stop-color:#a7a7a7" offset="1"/>
  </linearGradient>
  <linearGradient id="linearGradient8798" y2="91.366" gradientUnits="userSpaceOnUse" x2="227.46" gradientTransform="translate(-405.5 40.46)" y1="85.971" x1="224.17">
   <stop id="stop8765" style="stop-color:#dbdbdb" offset="0"/>
   <stop id="stop8767" style="stop-color:#bdbdbd" offset="1"/>
  </linearGradient>
  <radialGradient id="radialGradient8808" gradientUnits="userSpaceOnUse" cy="52.927" cx="64.212" gradientTransform="matrix(1 0 0 1.1288 0 -6.8164)" r="20.98">
   <stop id="stop8804" offset="0"/>
   <stop id="stop8806" style="stop-opacity:0" offset="1"/>
  </radialGradient>
 </defs>
 <metadata id="metadata2413">
  <rdf:RDF>
   <cc:Work rdf:about="">
    <dc:format>image/svg+xml</dc:format>
    <dc:type rdf:resource="http://purl.org/dc/dcmitype/StillImage"/>
    <dc:title/>
   </cc:Work>
  </rdf:RDF>
 </metadata>
 <g id="layer2" style="display:none">
  <rect id="rect3745" style="opacity:.9;filter:url(#filter3174);fill:url(#ButtonShadow)" rx="6" ry="6" height="85" width="86" y="7" x="5"/>
 </g>
 <g id="g8812">
  <g id="layer4-0" transform="matrix(.99932 0 0 .99931 .36371 -1.2972)">
   <path id="path3786-6" style="opacity:0.08;fill:url(#linearGradient3059-5)" d="m12-95.031c-5.5111 0-10.031 4.5202-10.031 10.031v71c0 5.5111 4.5202 10.031 10.031 10.031h72c5.5111 0 10.031-4.5202 10.031-10.031v-71c0-5.5111-4.5202-10.031-10.031-10.031h-72z" transform="scale(1,-1)"/>
   <path id="path3778-9" style="opacity:.1;fill:url(#linearGradient3059-5)" d="m12-94.031c-4.9716 0-9.0312 4.0596-9.0312 9.0312v71c0 4.9716 4.0596 9.0312 9.0312 9.0312h72c4.9716 0 9.0312-4.0596 9.0312-9.0312v-71c0-4.9716-4.0596-9.0312-9.0312-9.0312h-72z" transform="scale(1,-1)"/>
   <path id="path3770-5" style="opacity:.2;fill:url(#linearGradient3059-5)" d="m12-93c-4.4091 0-8 3.5909-8 8v71c0 4.4091 3.5909 8 8 8h72c4.4091 0 8-3.5909 8-8v-71c0-4.4091-3.5909-8-8-8h-72z" transform="scale(1,-1)"/>
   <rect id="rect3723-5" style="opacity:.3;fill:url(#linearGradient3059-5)" transform="scale(1,-1)" rx="7" ry="7" height="85" width="86" y="-92" x="5"/>
   <rect id="rect3716-7" style="opacity:.45;fill:url(#linearGradient3721-6)" transform="scale(1,-1)" rx="6" ry="6" height="84" width="84" y="-91" x="6"/>
  </g>
  <rect id="rect2419-7" style="fill:url(#linearGradient8108)" rx="5.9959" ry="5.9959" height="83.942" width="83.943" y="4.6987" x="6.3596"/>
  <rect id="rect4204-7" style="fill:url(#linearGradient8630)" rx="5.9959" ry="5.9959" height="83.942" width="83.943" y="4.6987" x="6.3596"/>
  <g id="g8709" transform="matrix(.39455 0 0 .36210 -104.99 70.045)">
   <path id="path8701" style="fill:#68cff4" d="m282.29-40.404s25.296-21.717 29.495-36.414c5.3946-18.881 9.4406-13.487 9.4406-13.487s5.3946 22.927 16.184 33.716c9.8594 9.8594 15.734 0 15.734 0s25.175-51.698 30.569-52.148c5.3946-0.44955 23.377 43.606 25.624 40.46 2.2478-3.1469 5.8442-5.8442 5.8442-5.8442s12.587 30.12 22.478 45.854c3.4834 5.5417 12.587 2.6973 15.285-8.0919 2.6973-10.789 13.487-47.203 19.331-50.35 5.8442-3.1469 19.78 44.506 22.028 48.552 2.2478 4.046 0.23355 72.378 0.23355 72.378s-0.95274 12.258-5.815 13.338c-19.901 4.42-192.22 2.9665-192.22 2.9665s-13.422-19.462-13.422-23.508-0.78815-67.422-0.78815-67.422z"/>
   <path id="path8703" style="fill:#fff" d="m383.26-110.08c-6.6614 0.12186-33.716 50.799-34.166 55.744-0.44955 4.9451 6.7433 10.789 7.6424 3.1469 0.8991-7.6424 2.2478-16.184 4.4955-11.688 2.2478 4.4955 4.4955 13.487 8.0919 11.688 3.5964-1.7982 1.3487-8.0919 3.5964-8.5415 2.2478-0.44956-0.8991 19.331-4.046 20.23-3.1469 0.8991 3.5964 7.6424 9.8901 3.5964s9.4406-10.789 9.4406-10.789 2.6973 10.34-0.44955 12.138c-3.1469 1.7982 2.2478 3.1469 2.2478 3.1469s7.6424 1.7982 6.7433-2.6973-6.2937-13.487-2.6973-13.936c3.5964-0.44955 0.8991 5.8442 5.3946 8.0919 4.4955 2.2478 4.046-9.4406 5.8442-8.0919 1.7982 1.3486 1.3486 7.6424 4.046 9.8901 2.6973 2.2478 7.6424 2.2478 8.5415-1.7982s0 7.1928 4.9451 7.1928 12.029 4.5596 12.029 0.96316-17.177-46.077-19.671-44.12c-5.3858 4.2267-7.0733 7.4297-8.0312 5.3946-11.507-24.446-17.225-39.682-23.887-39.561z"/>
   <path id="path8705" style="fill:#fff" d="m319.87-92.103s-2.2478-1.7982-7.1928 12.138c-4.9451 13.936-13.936 20.679-10.34 25.624 3.5964 4.9451 7.1928 0.8991 8.0919-4.046s5.8442-6.2937 5.8442-6.2937 0.89909 17.982 4.046 11.688c3.1469-6.2937 1.7982-13.037 5.3946-8.991s9.8901 1.7982 9.8901 1.7982-9.8901-15.285-11.688-22.478c-1.7479-6.9917-4.046-9.4406-4.046-9.4406z"/>
   <path id="path8707" style="fill:#fff" d="m472.72-89.855c-6.9589-0.2632-13.59 29.433-17.083 40.909-3.1469 10.34 1.7982 15.285 3.5964 14.386 1.7982-0.8991 0.44955-18.432 5.8442-14.835 5.3946 3.5964 8.5415 10.34 6.2937 12.587-2.2478 2.2478 5.8442-2.2478 6.2937-4.9451 0.44956-2.6973-3.5964 26.524 2.2478 25.175 5.8442-1.3486 9.8901-21.129 9.8901-24.725 0-3.5964 4.9451 7.1928 5.3946 3.1469 0.44955-4.046-15.519-51.435-22.478-51.698z"/>
  </g>
  <path id="path8800" style="fill:url(#radialGradient8808)" d="m85.192 52.927a20.98 23.682 0 1 1 -41.96 0 20.98 23.682 0 1 1 41.96 0z" transform="matrix(1.1165 0 0 .95262 -24.022 -17.766)"/>
  <path id="rect3728-5" style="opacity:.5;fill:url(#linearGradient8101)" d="m12.356 4.6987c-3.3217 0-5.9959 2.6742-5.9959 5.9959v1.9986 67.953 1.9986c0 0.33449 0.041322 0.65025 0.093686 0.96808 0.048667 0.29539 0.096974 0.59651 0.18737 0.8744 0.00987 0.03036 0.020878 0.06356 0.031229 0.09369 0.098798 0.28757 0.23472 0.54708 0.37475 0.81194 0.14449 0.27332 0.3154 0.53525 0.49966 0.78071 0.18426 0.24547 0.37352 0.47315 0.59335 0.68703 0.43965 0.42776 0.94227 0.81397 1.499 1.093 0.27836 0.13952 0.57308 0.24678 0.87441 0.34351-0.25603-0.10015-0.48638-0.23611-0.71826-0.37474-0.00741-0.0044-0.02385 0.0045-0.031229 0-0.031911-0.01929-0.062251-0.04248-0.093686-0.06246-0.1207-0.077-0.2313-0.164-0.3439-0.25-0.1061-0.081-0.2132-0.161-0.3123-0.25-0.1778-0.162-0.3472-0.345-0.4997-0.531-0.1075-0.13-0.2182-0.265-0.3123-0.406-0.025-0.039-0.0384-0.086-0.0624-0.125-0.0647-0.103-0.1302-0.204-0.1874-0.312-0.1009-0.195-0.2055-0.416-0.2811-0.625-0.00795-0.02179-0.023573-0.04052-0.031229-0.06246-0.031804-0.09189-0.03578-0.1867-0.062458-0.28106-0.0303-0.106-0.0703-0.202-0.0936-0.312-0.0729-0.341-0.1249-0.697-0.1249-1.061v-1.9986-67.953-1.9986c0-2.7799 2.2166-4.9966 4.9966-4.9966h1.9986 67.954 1.9986c2.78 0 4.9966 2.2166 4.9966 4.9966v1.9986 67.953 1.9986c0 0.36404-0.05209 0.72049-0.12492 1.0618-0.04412 0.20675-0.08832 0.39738-0.15614 0.59334-0.0077 0.02193-0.02328 0.04066-0.03123 0.06246-0.0627 0.17362-0.13829 0.3672-0.2186 0.53089-0.04155 0.08274-0.07899 0.16984-0.12492 0.24983-0.05456 0.09714-0.12669 0.18822-0.18737 0.28106-0.09405 0.14087-0.20478 0.2758-0.31229 0.40597-0.14308 0.17433-0.30294 0.34676-0.46843 0.49966-0.01116 0.01019-0.01997 0.02114-0.03123 0.03123-0.13829 0.12547-0.2849 0.23428-0.4372 0.34352-0.1025 0.0731-0.20418 0.15326-0.31229 0.2186-0.0074 0.0045-0.02382-0.0044-0.03123 0-0.23188 0.13863-0.46223 0.27459-0.71826 0.37474 0.30132-0.09673 0.59605-0.204 0.87441-0.34351 0.55671-0.27903 1.0593-0.66524 1.499-1.093 0.21982-0.21388 0.40909-0.44156 0.59335-0.68703s0.35517-0.5074 0.49966-0.78071c0.14002-0.26487 0.27595-0.52437 0.37475-0.81194 0.0104-0.03076 0.02132-0.0627 0.03123-0.09369 0.0904-0.27789 0.1387-0.57901 0.18737-0.8744 0.05237-0.31783 0.09369-0.63359 0.09369-0.96808v-1.9986-67.953-1.9986c0-3.3217-2.6742-5.9959-5.9959-5.9959h-71.951z"/>
  <path id="path3615-1" style="opacity:.2;fill:url(#radialGradient8098)" d="m12.356 88.641c-3.3217 0-5.9959-2.6742-5.9959-5.9959v-1.9986-67.953-1.9986c0-0.33449 0.041322-0.65025 0.093686-0.96809 0.048667-0.29539 0.096974-0.59651 0.18737-0.8744 0.00987-0.030359 0.020878-0.063556 0.031229-0.093686 0.0983-0.2869 0.2342-0.5464 0.3743-0.8113 0.1445-0.2733 0.3154-0.5352 0.4996-0.7807 0.1843-0.2455 0.3736-0.4732 0.5934-0.687 0.4396-0.4278 0.9422-0.814 1.499-1.093 0.2783-0.1396 0.5733-0.2468 0.8743-0.3436-0.256 0.1002-0.486 0.2362-0.7182 0.3748-0.00741 0.0044-0.02385-0.0045-0.031229 0-0.031911 0.019287-0.062251 0.042481-0.093686 0.062457-0.1203 0.0766-0.2309 0.1633-0.3435 0.2498-0.1061 0.0807-0.2132 0.161-0.3123 0.2498-0.1778 0.1613-0.3472 0.3452-0.4997 0.5309-0.1075 0.1302-0.2182 0.2651-0.3123 0.406-0.025 0.0383-0.0384 0.0858-0.0624 0.1249-0.0647 0.1029-0.1302 0.2043-0.1874 0.3123-0.1009 0.1945-0.2055 0.4154-0.2811 0.6245-0.00795 0.021795-0.023573 0.040522-0.031229 0.062457-0.031804 0.091887-0.03578 0.1867-0.062458 0.28106-0.0303 0.1066-0.0703 0.2029-0.0936 0.3123-0.0729 0.3413-0.1249 0.6978-0.1249 1.0618v1.9986 67.953 1.9986c0 2.7799 2.2166 4.9966 4.9966 4.9966h1.9986 67.954 1.9986c2.78 0 4.9966-2.2166 4.9966-4.9966v-1.9986-67.953-1.9986c0-0.36404-0.05209-0.72049-0.12492-1.0618-0.04412-0.20675-0.08832-0.39739-0.15614-0.59334-0.0077-0.021935-0.02328-0.040662-0.03123-0.062457-0.0627-0.17362-0.13829-0.3672-0.2186-0.53089-0.043-0.0824-0.081-0.1695-0.127-0.2495-0.054-0.0971-0.126-0.1882-0.187-0.281-0.094-0.1409-0.205-0.2758-0.312-0.406-0.143-0.1743-0.303-0.3468-0.469-0.4997-0.011-0.0102-0.02-0.0211-0.031-0.0312-0.138-0.1255-0.285-0.2343-0.437-0.3435-0.103-0.0731-0.204-0.1533-0.312-0.2186-0.0074-0.0045-0.02382 0.0044-0.03123 0-0.23188-0.13863-0.46223-0.27459-0.71826-0.37474 0.30132 0.096734 0.59605 0.204 0.87441 0.34351 0.55671 0.27903 1.0593 0.66524 1.499 1.093 0.21982 0.21388 0.40909 0.44156 0.59335 0.68703s0.35517 0.50739 0.49966 0.78071c0.14002 0.26487 0.27595 0.52437 0.37475 0.81194 0.0104 0.030759 0.02132 0.062697 0.03123 0.093686 0.0904 0.27789 0.1387 0.57901 0.18737 0.8744 0.05237 0.31783 0.09369 0.63359 0.09369 0.96809v1.9986 67.953 1.9986c0 3.3217-2.6742 5.9959-5.9959 5.9959h-71.951z"/>
  <g id="g8777" transform="matrix(.33069 0 0 .31215 117.4 -28.102)">
   <path id="path8717" style="fill:url(#radialGradient8792)" d="m313.34 12.608a57.767 59.566 0 1 1 -115.53 0 57.767 59.566 0 1 1 115.53 0z" transform="matrix(1.035 0 0 1.0566 -473.56 176.18)"/>
   <path id="path8727" style="opacity:.50877;stroke:url(#linearGradient8794);stroke-width:3.6777;fill:none" d="m313.34 12.608a57.767 59.566 0 1 1 -115.53 0 57.767 59.566 0 1 1 115.53 0z" transform="matrix(.98163 0 0 1.0426 -459.92 174.11)"/>
   <path id="path8739" style="fill:url(#linearGradient8796)" d="m-220.73 151.74s-32.368 20.679-24.276 30.569c8.0919 9.8901 15.285 8.991 19.331 14.386 4.046 5.3946 34.166 11.688 43.606 3.5964 9.4406-8.0919 1.3487-20.23 2.2478-28.322 0.8991-8.0919-4.36-13.102-19.331-16.184-15.285-3.1469-21.578-4.046-21.578-4.046z"/>
   <path id="path8749" style="fill:#303030" d="m242.31-21.782a8.7663 10.789 0 1 1 -17.532 0 8.7663 10.789 0 1 1 17.532 0z" transform="translate(-455.85 196)"/>
   <path id="path8751" style="fill:#303030" d="m242.31-21.782a8.7663 10.789 0 1 1 -17.532 0 8.7663 10.789 0 1 1 17.532 0z" transform="matrix(.94659 .32245 -.32245 .94659 -425.67 125.38)"/>
   <path id="path8753" style="fill:#949494" d="m-241.41 196.25s-12.587 6.7433-12.587 12.138c0 5.3946 8.991 17.982 13.936 12.587 4.9451-5.3946 12.138-13.037 9.8901-19.331-2.692-7.5377-11.239-5.3946-11.239-5.3946z"/>
   <path id="path8755" style="fill:#949494" d="m-224.47 210.39s-4.282 13.623-0.50951 17.479c3.7725 3.8562 19.002 6.5663 18.764-0.748-0.23772-7.3143-0.44059-17.807-6.4486-20.734-7.1956-3.5055-11.806 4.0033-11.806 4.0033z"/>
   <path id="path8757" style="fill:#949494" d="m-200.18 215.15s1.7262 10.686 5.5038 12.102c3.7776 1.4161 14.732-1.6486 12.131-6.5675-2.6007-4.9189-6.2404-12.02-11.182-12.08-5.919-0.0717-6.4523 6.545-6.4523 6.545z"/>
   <path id="path8759" style="stroke-opacity:.22816;stroke:#b6b6b6;stroke-width:1.5" d="m224.78 100.27a9.2158 6.0689 0 1 1 -18.432 0 9.2158 6.0689 0 1 1 18.432 0z" transform="matrix(.89056 .45486 -.45486 .89056 -336.3 -46.616)"/>
   <path id="path8761" style="stroke-opacity:.83495;stroke:#000;stroke-width:2.1;fill:url(#linearGradient8798)" d="m-195.55 140.51s4.4955-17.532 26.524-17.083c22.028 0.44955 13.487 8.0919 13.487 8.0919s-15.285-6.2937-25.175 3.1469c-10.829 10.337-4.4955 12.587-9.8901 11.688-5.3946-0.8991-4.9451-5.8442-4.9451-5.8442z"/>
   <path id="path8771" style="fill:#efd539" d="m254 90.156c-0.23413 0.26715-15.406-8.3568-15.738-8.2325-0.32763 0.12235-5.7573 16.456-6.1004 16.388-0.34842-0.06919-0.46561-17.52-0.73963-17.746-0.26977-0.22256-17.13 3.242-17.242 2.9108-0.11429-0.33634 14.94-9.1632 14.999-9.5136 0.0579-0.34491-11.373-13.214-11.142-13.477 0.23413-0.26715 15.406 8.3568 15.738 8.2325 0.32763-0.12235 5.7573-16.456 6.1004-16.388 0.34842 0.06919 0.46561 17.52 0.73963 17.746 0.26977 0.22256 17.13-3.242 17.242-2.9108 0.11429 0.33634-14.94 9.1632-14.999 9.5136-0.0579 0.34491 11.373 13.214 11.142 13.477z" transform="matrix(.77357 0 0 .84357 -334.97 64.38)"/>
   <path id="path8773" style="fill:#c3a910" d="m254 90.156c-0.23413 0.26715-15.406-8.3568-15.738-8.2325-0.32763 0.12235-5.7573 16.456-6.1004 16.388-0.34842-0.06919-0.46561-17.52-0.73963-17.746-0.26977-0.22256-17.13 3.242-17.242 2.9108-0.11429-0.33634 14.94-9.1632 14.999-9.5136 0.0579-0.34491-11.373-13.214-11.142-13.477 0.23413-0.26715 15.406 8.3568 15.738 8.2325 0.32763-0.12235 5.7573-16.456 6.1004-16.388 0.34842 0.06919 0.46561 17.52 0.73963 17.746 0.26977 0.22256 17.13-3.242 17.242-2.9108 0.11429 0.33634-14.94 9.1632-14.999 9.5136-0.0579 0.34491 11.373 13.214 11.142 13.477z" transform="matrix(.51626 0 0 .45250 -274.47 94.285)"/>
   <path id="path8775" style="fill:#c31010" d="m254 90.156c-0.23413 0.26715-15.406-8.3568-15.738-8.2325-0.32763 0.12235-5.7573 16.456-6.1004 16.388-0.34842-0.06919-0.46561-17.52-0.73963-17.746-0.26977-0.22256-17.13 3.242-17.242 2.9108-0.11429-0.33634 14.94-9.1632 14.999-9.5136 0.0579-0.34491-11.373-13.214-11.142-13.477 0.23413-0.26715 15.406 8.3568 15.738 8.2325 0.32763-0.12235 5.7573-16.456 6.1004-16.388 0.34842 0.06919 0.46561 17.52 0.73963 17.746 0.26977 0.22256 17.13-3.242 17.242-2.9108 0.11429 0.33634-14.94 9.1632-14.999 9.5136-0.0579 0.34491 11.373 13.214 11.142 13.477z" transform="matrix(.23837 0 0 .27652 -209.11 107.99)"/>
  </g>
 </g>
</svg>
