<?xml version="1.0" encoding="UTF-8" standalone="no"?>
<!-- Created with Inkscape (http://www.inkscape.org/) -->
<svg id="svg2408" xmlns:rdf="http://www.w3.org/1999/02/22-rdf-syntax-ns#" xmlns="http://www.w3.org/2000/svg" height="96" width="96" version="1.0" xmlns:cc="http://creativecommons.org/ns#" xmlns:xlink="http://www.w3.org/1999/xlink" xmlns:dc="http://purl.org/dc/elements/1.1/">
 <defs id="defs2410">
  <linearGradient id="linearGradient3742">
   <stop id="stop3744" offset="0"/>
   <stop id="stop3746" style="stop-opacity:0" offset="1"/>
  </linearGradient>
  <linearGradient id="ButtonShadow" y2="7.0165" gradientUnits="userSpaceOnUse" x2="45.448" gradientTransform="scale(1.0059 .99417)" y1="92.54" x1="45.448">
   <stop id="stop3750" offset="0"/>
   <stop id="stop3752" style="stop-opacity:.58824" offset="1"/>
  </linearGradient>
  <linearGradient id="linearGradient3737">
   <stop id="stop3739" style="stop-color:#fff" offset="0"/>
   <stop id="stop3741" style="stop-color:#fff;stop-opacity:0" offset="1"/>
  </linearGradient>
  <filter id="filter3174" color-interpolation-filters="sRGB">
   <feGaussianBlur id="feGaussianBlur3176" stdDeviation="1.71"/>
  </filter>
  <linearGradient id="linearGradient3188" y2="63.893" xlink:href="#linearGradient3737" gradientUnits="userSpaceOnUse" x2="36.357" y1="6" x1="36.357"/>
  <filter id="filter3794" height="1.384" width="1.384" color-interpolation-filters="sRGB" y="-.192" x="-.192">
   <feGaussianBlur id="feGaussianBlur3796" stdDeviation="5.28"/>
  </filter>
  <linearGradient id="linearGradient3613" y2="138.66" xlink:href="#linearGradient3737" gradientUnits="userSpaceOnUse" x2="48" y1="20.221" x1="48"/>
  <radialGradient id="radialGradient3619" xlink:href="#linearGradient3737" gradientUnits="userSpaceOnUse" cy="90.172" cx="48" gradientTransform="matrix(1.1573 0 0 .99591 -7.551 .19713)" r="42"/>
  <clipPath id="clipPath3613">
   <rect id="rect3615" style="fill:#fff" rx="6" ry="6" height="84" width="84" y="6" x="6"/>
  </clipPath>
  <linearGradient id="linearGradient3617" y2="5.9877" gradientUnits="userSpaceOnUse" x2="48" y1="90" x1="48">
   <stop id="stop3616" style="stop-color:#b9b9b9" offset="0"/>
   <stop id="stop3618" style="stop-color:#dedede" offset="1"/>
  </linearGradient>
  <linearGradient id="linearGradient3947" y2="75.083" gradientUnits="userSpaceOnUse" x2="22" y1="21" x1="22">
   <stop id="stop3702" style="stop-color:#ebebeb" offset="0"/>
   <stop id="stop3704" style="stop-color:#c8c8c8" offset="1"/>
  </linearGradient>
  <linearGradient id="linearGradient3963" y2="71" xlink:href="#linearGradient3737" gradientUnits="userSpaceOnUse" x2="21" y1="21" x1="21"/>
  <linearGradient id="linearGradient3972" y2="-.23647" gradientUnits="userSpaceOnUse" x2="22" y1="76" x1="22">
   <stop id="stop3992" style="stop-color:#5d5d5d" offset="0"/>
   <stop id="stop3994" style="stop-color:#909090" offset="1"/>
  </linearGradient>
  <linearGradient id="linearGradient3980" y2="23.962" xlink:href="#linearGradient3742" gradientUnits="userSpaceOnUse" x2="22" y1="76" x1="22"/>
  <linearGradient id="linearGradient4008" y2="52" gradientUnits="userSpaceOnUse" x2="23" y1="42" x1="23">
   <stop id="stop3956" style="stop-color:#1a1a1a" offset="0"/>
   <stop id="stop3958" style="stop-color:#3a3a3a" offset="1"/>
  </linearGradient>
  <linearGradient id="ButtonShadow-0" y2="7.0165" gradientUnits="userSpaceOnUse" x2="45.448" gradientTransform="matrix(1.0059 0 0 .99417 100 0)" y1="92.54" x1="45.448">
   <stop id="stop3750-8" offset="0"/>
   <stop id="stop3752-5" style="stop-opacity:.58824" offset="1"/>
  </linearGradient>
  <linearGradient id="linearGradient3780" y2="90.239" xlink:href="#ButtonShadow-0" gradientUnits="userSpaceOnUse" x2="32.251" gradientTransform="matrix(1.0238 0 0 1.0119 -1.1429 -98.071)" y1="6.1317" x1="32.251"/>
  <linearGradient id="linearGradient3721" y2="90.239" xlink:href="#ButtonShadow-0" gradientUnits="userSpaceOnUse" x2="32.251" gradientTransform="translate(0,-97)" y1="6.1317" x1="32.251"/>
  <linearGradient id="linearGradient3367" y2="438.43" xlink:href="#ButtonShadow" gradientUnits="userSpaceOnUse" x2="316.37" gradientTransform="matrix(.061656 0 0 .061656 34.47 30.103)" y1="155.22" x1="316.37"/>
 </defs>
 <metadata id="metadata2413">
  <rdf:RDF>
   <cc:Work rdf:about="">
    <dc:format>image/svg+xml</dc:format>
    <dc:type rdf:resource="http://purl.org/dc/dcmitype/StillImage"/>
   </cc:Work>
  </rdf:RDF>
 </metadata>
 <g id="layer2" style="display:none">
  <rect id="rect3745" style="opacity:.9;filter:url(#filter3174);fill:url(#ButtonShadow)" rx="6" ry="6" height="85" width="86" y="7" x="5"/>
 </g>
 <g id="layer3">
  <path id="path3786" style="opacity:0.08;fill:url(#linearGradient3780)" d="m12-95.031c-5.5111 0-10.031 4.5202-10.031 10.031v71c0 5.5111 4.5202 10.031 10.031 10.031h72c5.5111 0 10.031-4.5202 10.031-10.031v-71c0-5.5111-4.5202-10.031-10.031-10.031h-72z" transform="scale(1,-1)"/>
  <path id="path3778" style="opacity:.1;fill:url(#linearGradient3780)" d="m12-94.031c-4.9716 0-9.0312 4.0596-9.0312 9.0312v71c0 4.9716 4.0596 9.0312 9.0312 9.0312h72c4.9716 0 9.0312-4.0596 9.0312-9.0312v-71c0-4.9716-4.0596-9.0312-9.0312-9.0312h-72z" transform="scale(1,-1)"/>
  <path id="path3770" style="opacity:.2;fill:url(#linearGradient3780)" d="m12-93c-4.4091 0-8 3.5909-8 8v71c0 4.4091 3.5909 8 8 8h72c4.4091 0 8-3.5909 8-8v-71c0-4.4091-3.5909-8-8-8h-72z" transform="scale(1,-1)"/>
  <rect id="rect3723" style="opacity:.3;fill:url(#linearGradient3780)" transform="scale(1,-1)" rx="7" ry="7" height="85" width="86" y="-92" x="5"/>
  <rect id="rect3716" style="opacity:.45;fill:url(#linearGradient3721)" transform="scale(1,-1)" rx="6" ry="6" height="84" width="84" y="-91" x="6"/>
 </g>
 <g id="layer1">
  <rect id="rect2419" style="fill:url(#linearGradient3617)" rx="6" ry="6" height="84" width="84" y="6" x="6"/>
  <path id="rect3728" style="opacity:.5;fill:url(#linearGradient3188)" d="m12 6c-3.324 0-6 2.676-6 6v2 68 2c0 0.33472 0.04135 0.6507 0.09375 0.96875 0.0487 0.2956 0.09704 0.59692 0.1875 0.875 0.00988 0.03038 0.020892 0.0636 0.03125 0.09375 0.098865 0.28777 0.23488 0.54745 0.375 0.8125 0.14459 0.27351 0.31562 0.53562 0.5 0.78125 0.18438 0.24564 0.37378 0.47347 0.59375 0.6875 0.43995 0.42806 0.94291 0.81453 1.5 1.0938 0.27854 0.13961 0.57347 0.24695 0.875 0.34375-0.2562-0.10022-0.48671-0.23627-0.71875-0.375-0.00741-0.0044-0.023866 0.0045-0.03125 0-0.031933-0.0193-0.062293-0.04251-0.09375-0.0625-0.1204-0.0767-0.23102-0.16351-0.34375-0.25-0.10617-0.0808-0.21328-0.16111-0.3125-0.25-0.1778-0.162-0.3473-0.346-0.4999-0.531-0.1075-0.131-0.2183-0.266-0.3124-0.407-0.0251-0.038-0.0385-0.086-0.0626-0.125-0.0647-0.103-0.1302-0.204-0.1874-0.312-0.1011-0.195-0.2057-0.416-0.2813-0.625-0.008-0.022-0.0236-0.041-0.0313-0.063-0.0318-0.092-0.0358-0.187-0.0624-0.281-0.0304-0.107-0.0704-0.203-0.0938-0.313-0.0729-0.341-0.125-0.698-0.125-1.062v-2-68-2c0-2.782 2.2182-5 5-5h2 68 2c2.7818 0 5 2.2182 5 5v2 68 2c0 0.3643-0.05212 0.72099-0.125 1.0625-0.04415 0.20689-0.08838 0.39766-0.15625 0.59375-0.0077 0.02195-0.0233 0.04069-0.03125 0.0625-0.06274 0.17374-0.13838 0.36745-0.21875 0.53125-0.04158 0.0828-0.07904 0.16995-0.125 0.25-0.0546 0.09721-0.12677 0.18835-0.1875 0.28125-0.09411 0.14096-0.20492 0.276-0.3125 0.40625-0.14317 0.17445-0.30314 0.347-0.46875 0.5-0.01117 0.0102-0.01998 0.02115-0.03125 0.03125-0.13839 0.12556-0.28509 0.23444-0.4375 0.34375-0.10257 0.07315-0.20432 0.15336-0.3125 0.21875-0.0074 0.0045-0.02384-0.0044-0.03125 0-0.23204 0.13873-0.46255 0.27478-0.71875 0.375 0.30153-0.0968 0.59646-0.20414 0.875-0.34375 0.55709-0.27922 1.0601-0.66569 1.5-1.0938 0.21997-0.21403 0.40937-0.44186 0.59375-0.6875s0.35541-0.50774 0.5-0.78125c0.14012-0.26505 0.27614-0.52473 0.375-0.8125 0.01041-0.03078 0.02133-0.06274 0.03125-0.09375 0.09046-0.27808 0.1388-0.5794 0.1875-0.875 0.053-0.318 0.094-0.634 0.094-0.969v-2-68-2c0-3.324-2.676-6-6-6h-72z"/>
  <path id="path3615" style="opacity:.25;fill:url(#radialGradient3619)" d="m12 90c-3.324 0-6-2.676-6-6v-2-68-2c0-0.33472 0.04135-0.6507 0.09375-0.96875 0.0487-0.2956 0.09704-0.59692 0.1875-0.875 0.0099-0.03 0.0209-0.063 0.0313-0.094 0.0989-0.2873 0.2349-0.547 0.375-0.812 0.1446-0.2735 0.3156-0.5356 0.5-0.7812 0.1844-0.2457 0.3738-0.4735 0.5937-0.6876 0.44-0.428 0.943-0.8145 1.5-1.0937 0.2786-0.1396 0.5735-0.2469 0.8748-0.3437-0.256 0.1002-0.4865 0.2362-0.7185 0.375-0.00741 0.0044-0.023866-0.0045-0.03125 0-0.031933 0.0193-0.062293 0.04251-0.09375 0.0625-0.1204 0.0767-0.23102 0.16351-0.34375 0.25-0.10617 0.0808-0.21328 0.16111-0.3125 0.25-0.1779 0.1614-0.3474 0.3453-0.5 0.5312-0.1075 0.1303-0.2183 0.2653-0.3124 0.4063-0.0251 0.0383-0.0385 0.0858-0.0626 0.125-0.0647 0.103-0.1302 0.2045-0.1874 0.3124-0.1011 0.1948-0.2057 0.4158-0.2813 0.625-0.008 0.0219-0.0236 0.0406-0.0313 0.0626-0.0318 0.0919-0.0358 0.1868-0.0624 0.2812-0.0304 0.1066-0.0704 0.203-0.0938 0.3125-0.0729 0.3415-0.125 0.6985-0.125 1.0625v2 68 2c0 2.7818 2.2182 5 5 5h2 68 2c2.7818 0 5-2.2182 5-5v-2-68-2c0-0.364-0.052-0.721-0.125-1.0625-0.044-0.2069-0.088-0.3977-0.156-0.5937-0.008-0.022-0.024-0.0407-0.031-0.0626-0.063-0.1737-0.139-0.3674-0.219-0.5312-0.042-0.0828-0.079-0.17-0.125-0.25-0.055-0.0972-0.127-0.1884-0.188-0.2812-0.094-0.141-0.205-0.276-0.312-0.4063-0.143-0.1745-0.303-0.347-0.469-0.5-0.011-0.0102-0.02-0.0211-0.031-0.0313-0.139-0.1255-0.285-0.2344-0.438-0.3437-0.102-0.0731-0.204-0.1534-0.312-0.2187-0.0074-0.0045-0.02384 0.0044-0.03125 0-0.23204-0.13873-0.46255-0.27478-0.71875-0.375 0.30153 0.0968 0.59646 0.20414 0.875 0.34375 0.55709 0.27922 1.0601 0.66569 1.5 1.0938 0.21997 0.21403 0.40937 0.44186 0.59375 0.6875s0.35541 0.50774 0.5 0.78125c0.14012 0.26505 0.27614 0.52473 0.375 0.8125 0.01041 0.03078 0.02133 0.06274 0.03125 0.09375 0.09046 0.27808 0.1388 0.5794 0.1875 0.875 0.053 0.318 0.094 0.634 0.094 0.969v2 68 2c0 3.324-2.676 6-6 6h-72z"/>
 </g>
 <g id="layer5">
  <rect id="rect3171" style="opacity:.1;filter:url(#filter3794);stroke:#fff;stroke-linecap:round;stroke-width:.5;fill:url(#linearGradient3613)" clip-path="url(#clipPath3613)" rx="12" ry="12" height="66" width="66" y="15" x="15"/>
 </g>
 <g id="layer4">
  <path id="path3986" style="opacity:.05;color:#000000;fill:url(#linearGradient3980)" d="m19 15c-2.753 0-5 2.247-5 5v56c0 2.753 2.247 5 5 5h8c2.753 0 5-2.247 5-5v-56c0-2.753-2.247-5-5-5h-8z"/>
  <path id="path3978" style="opacity:.1;color:#000000;fill:url(#linearGradient3980)" d="m19 15.969c-2.2208 0-4.0312 1.8104-4.0312 4.0312v56c0 2.2208 1.8104 4.0312 4.0312 4.0312h8c2.2208 0 4.0312-1.8104 4.0312-4.0312v-56c0-2.2208-1.8104-4.0312-4.0312-4.0312h-8z"/>
  <path id="rect3935" style="color:#000000;fill:url(#linearGradient3972)" d="m19 17h8c1.662 0 3 1.338 3 3v56c0 1.662-1.338 3-3 3h-8c-1.662 0-3-1.338-3-3v-56c0-1.662 1.338-3 3-3z"/>
  <path id="path3939" style="color:#000000;fill:url(#linearGradient3947)" d="m19 17.969c-1.1365 0-2.0312 0.8948-2.0312 2.0312v56c0 1.1365 0.8948 2.0312 2.0312 2.0312h8c1.1365 0 2.0312-0.8948 2.0312-2.0312v-56c0-1.1365-0.8948-2.0312-2.0312-2.0312h-8z"/>
  <path id="path3949" style="opacity:.8;color:#000000;fill:url(#linearGradient3963)" d="m19 17.969c-1.1365 0-2.0312 0.8948-2.0312 2.0312v56c0 1.1365 0.8948 2.0312 2.0312 2.0312h8c1.1365 0 2.0312-0.8948 2.0312-2.0312v-56c0-1.1365-0.8948-2.0312-2.0312-2.0312h-8zm0 1.0625h8c0.57573 0 0.96875 0.39302 0.96875 0.96875v56c0 0.57573-0.39302 0.96875-0.96875 0.96875h-8c-0.57573 0-0.96875-0.39302-0.96875-0.96875v-56c0-0.57573 0.39302-0.96875 0.96875-0.96875z"/>
  <path id="path4000" style="opacity:.8;fill:url(#linearGradient4008)" d="m19 47 7 5v-10l-7 5z"/>
  <path id="path4010" style="opacity:.5" d="m26 42-7 5 0.6875 0.5l6.312-4.5v-1z"/>
  <path id="path4019" style="opacity:.5;fill:#fff" d="m19.688 47.5-0.688 0.5l7 5v-1l-6.3125-4.5z"/>
  <path id="path2870" style="opacity:.2" d="m70.604 25.043-11.991 13.712-11.115-13.683l-9.8318 9.1316 3.9677 4.3178c2.0865 0.7737 5.3593 2.6309 7.6437 5.018 0.34452 0.34266 1.2951-1.1195 3.4134-0.75854 0.60898 0.05752 5.5169 1.35 7.5562 0.96276 0.65099-0.41041 0.68062-1.4701 1.2253-2.0422 0.06805 0.33696 0.11567 0.64813 0.1167 0.81689-0.66713 0.53128-0.64476 1.7193-1.342 2.1589-2.0393 0.38723-6.9472-0.90524-7.5562-0.96276-2.1183-0.36093-3.0689 1.1012-3.4134 0.75854-1.8226-1.9046-4.262-3.4797-6.2434-4.4345l4.9889 5.4265c0.04475-0.08733 0.06836-0.17455 0.1167-0.26257 0.16645 0.16409 0.28254 0.30963 0.32092 0.37927-0.04745 0.07533-0.07202 0.15842-0.1167 0.2334l1.663 1.8088-13.654 14.587 8.8982 8.8399 12.545-14.704 12.487 14.5 9.8902-9.1608-13.625-14.529 1.4879-1.5171c-0.2621 0.05859-0.55589 0.09364-0.81689-0.02917-0.5587-0.31267-0.59852-1.4603-0.46679-1.6046 0.000776 0.0027 0.02839-0.0027 0.02918 0 0.04516 0.155 0.11601 0.31431 0.20422 0.43762 0.0038 0.0081-0.0039 0.02115 0 0.02917 0.0073 0.0098 0.02152 0.01977 0.02917 0.02918 0.19092 0.37455 0.54443 0.69829 1.2837 0.84606l2.888-2.945c-2.0917-0.56623-3.7031-0.45978-3.7343-0.7002-0.02449-0.41545-0.02784-1.5736-0.08752-1.9839-0.3421-2.7772-1.6722-2.0994-1.8672-2.1006-0.557 0.07827-0.81783 0.44597-0.90441 0.96276-0.12319-1.0031 0.05051-1.7764 0.90441-1.8963 0.04875 0.00028 0.16198-0.03898 0.32092-0.05835 0.47683-0.0581 1.2897 0.076 1.5463 2.1589 0.05969 0.4103 0.06303 1.5684 0.08752 1.9839 0.03488 0.2682 2.0219 0.08031 4.4637 0.90441l1.5463-1.6046c0.07516-0.46196 0.21094-0.88672 0.43762-1.1086 0.05858-0.05734 0.09966 0.20493 0.1167 0.55432l5.8349-5.9808-9.2483-8.4898zm-8.1105 12.808c0.30162 0.07699 0.75623-0.02179 1.838 2.6257 0.18042 0.2791 0.42141 0.47212 0.58349 0.49597 0.06485 0.22707 0.13109 0.44418 0.20422 0.67102 0.05094 0.47377-0.46697 0.26278-0.78771-0.2334-1.0818-2.6475-1.5364-2.5487-1.838-2.6257-0.23619-0.04869-0.95576 0.30873-1.1962 1.0211-0.02402-0.13112-0.08679-0.3484-0.08752-0.40844-0.02231-1.071 0.99477-1.6058 1.2837-1.5463zm5.2806 5.7182c0.12684 0.15272 0.29622 0.26257 0.49597 0.26257 0.18616 0 0.37694-0.09798 0.49597-0.2334 0.0956 0.12176 0.17505 0.26789 0.17505 0.43762 0 0.38939-0.2987 0.72936-0.67101 0.72936-0.09308 0-0.18072-0.01974-0.26257-0.05835 0.37346-0.0798 0.67468-0.22319 0.58349-0.2334-0.41421-0.04593-0.72904-0.13953-0.96276-0.26257-0.01592-0.06048-0.02918-0.11091-0.02918-0.17505 0-0.17894 0.06995-0.34238 0.17505-0.46679zm0.72936 7.3812c0.0056 0.01165 0.02301 0.01763 0.02918 0.02917 0.30761 0.57654 0.44454 0.409 1.4587 1.663 0.64606 0.7988 0.77451 1.316 0.37927 1.4879-0.09906-0.16736-0.21412-0.35011-0.37927-0.55431-1.0142-1.254-1.1511-1.0864-1.4587-1.663-0.18485-0.34647-0.14502-0.73212-0.02917-0.96276zm-21.561 1.05c0.03552 0.53766 0.05222 0.91868-0.02917 1.0211-0.12507 0.18427-0.85438 0.98725-1.2837 1.6338-0.07365-0.01568-0.13745-0.05709-0.20422-0.08752-0.59987-0.27348 1.2845-2.1801 1.4879-2.4798 0.01197-0.01507 0.02199-0.06193 0.02917-0.08752zm19.985 2.3048c0.10711 0.0011 0.22276 0.0022 0.3501 0.02917 0.01053 0.0023 0.01854 0.02684 0.02918 0.02917 0.38455 0.46022 0.79923 0.96001 0.90441 1.2545 0.1839 0.49183 0.15265 0.77087 0 0.93359-0.21522-0.60257-1.8118-2.1234-1.5463-2.2173 0.07093-0.02506 0.1693-0.0301 0.26257-0.02917zm-19.314 0.758c0.05899 0.01052 0.07612 0.08156 0.02917 0.26257-0.11894 0.45855-0.4554 1.2075-0.61267 1.838-0.22579-0.36098 0.0824-1.2395 0.3501-1.9839 0.08525-0.04801 0.18529-0.12529 0.2334-0.1167z"/>
  <path id="path602" style="fill:url(#linearGradient3367);fill-rule:evenodd" d="m70.166 46.184c-0.65955-0.13136-2.6555 1.0849-2.5107 1.2073 0.2048 0.17316 2.824-1.1387 2.5107-1.2073zm-3.2346-1.4038c0.59964 0.28217 1.4767-0.18802 1.3278-0.20468-1.2945-0.14355-1.5169-0.74934-1.7147-1.3429-0.19168-0.19835-0.23173 1.2014 0.38689 1.5476zm1.6815-1.5357c0 0.37726-0.2809 0.71341-0.64161 0.71341s-0.66546-0.33616-0.66546-0.71341c0-0.37732 0.29285-0.68352 0.65351-0.68352 0.36071 0 0.65356 0.3062 0.65356 0.68352zm-33.104-6.907c-0.1453-0.24646 0.96088 0.1958 1.7916 0.65987 0.83076 0.46408 3.0819 1.3321 3.764 1.4702 1.7624 0.35679 5.8484 2.437 8.5043 5.2123 0.33378 0.33198 1.246-1.0836 3.2983-0.73393 0.59 0.05573 5.3429 1.3207 7.3187 0.94549 0.67554-0.42589 0.66656-1.581 1.3129-2.0957-0.0027-0.436-0.37443-1.8404-0.3781-2.1385-0.02161-1.0376 0.9504-1.5494 1.2303-1.4917 0.29222 0.07459 0.75536-0.0069 1.8034 2.5581 0.31075 0.48072 0.78883 0.67231 0.73948 0.2133-0.57809-1.7932-0.98768-3.7068 0.37652-3.8985 0.18892 0.0011 1.4929-0.64911 1.8243 2.0416 0.05782 0.39752 0.04343 1.5169 0.06717 1.9194 0.04529 0.34823 3.4778-0.10956 6.8351 2.0862 0.39142 0.23544 2.0529 1.9239 0.43249 3.264-1.0869 0.9014-5.8029 3.2248-6.1183 3.4464-0.17974 0.12317-0.349 0.65834-0.11022 1.1059 0.29802 0.55857 0.4353 0.3801 1.4179 1.595 0.98259 1.2149 0.76997 1.7828-0.78811 1.3856-0.52087-0.13279-1.8642-0.83616-2.414-0.64187-0.25727 0.09096 1.2821 1.5677 1.4906 2.1515 0.69109 1.8483-1.654 0.85653-2.5099 0.44878s-2.3404-1.2775-2.8674-1.3057c-1.0239 0.43915-6.556 0.92374-11.473-0.24212-0.2993 0.08069-2.7936 2.5849-2.9774 2.6801-1.5399 0.4867-0.35207-1.8125-0.10495-2.7652 0.1213-0.46765-0.21739-0.186-0.50924-0.01903-0.13742 0.07862-1.0493 0.44173-1.6305 0.17677-0.58118-0.26496 1.2493-2.1135 1.4464-2.4038 0.27196-0.34228-0.81999-3.5394 1.4851-7.1988-0.23504-0.42654-3.2292-2.949-5.4471-4.1845-2.0959-1.1946-7.1581-3.4697-7.2952-3.6276-0.21992-0.1565-0.84352-0.60147-0.51548-0.61337zm35.043 10.652c-0.55546-0.04133-1.9199 1.4209-1.775 1.5433 0.20485 0.17316 2.0509-1.5221 1.775-1.5433zm4.7013-7.4067c-0.07221-0.19103-1.7813 1.9641-1.4801 2.7564 0.13143 0.34566 1.7072-2.1558 1.4801-2.7564zm-1.8428-0.33846c-0.63888 0.62546-0.52302 2.9346-0.38343 2.9089 0.65418-0.12028 0.57638-3.0978 0.38343-2.9089z"/>
  <path id="path4175" style="opacity:.5;fill-rule:evenodd" d="m35.509 36.274c-0.01796 0.01058-0.01816 0.02572 0 0.05653-0.32804 0.0119 0.28886 0.46534 0.50878 0.62184 0.09707 0.11177 2.6556 1.2746 4.8899 2.3743 0.04763 0.01215 0.13132 0.04878 0.16959 0.05653 1.7624 0.35679 5.8238 2.4255 8.4797 5.2009 0.33378 0.33198 1.2548-1.0846 3.3071-0.7349 0.59 0.05573 5.345 1.3079 7.3208 0.93276 0.67554-0.42589 0.65388-1.5769 1.3002-2.0916-0.000994-0.1635-0.04713-0.46497-0.11306-0.79144-0.52774 0.55429-0.55645 1.581-1.1872 1.9786-1.9757 0.37517-6.7308-0.87704-7.3208-0.93276-2.0523-0.34968-2.9733 1.0669-3.3071 0.7349-2.656-2.775-6.717-4.844-8.479-5.201-0.683-0.138-2.957-1.006-3.788-1.47-0.727-0.406-1.655-0.809-1.781-0.735zm30.075 0.70664c-0.15399 0.01876-0.26369 0.0568-0.31092 0.05653-0.8273 0.11624-0.99558 0.86538-0.87623 1.8373 0.08388-0.50069 0.33658-0.85694 0.87623-0.93276 0.18892 0.0011 1.4775-0.65556 1.809 2.0351 0.05782 0.39752 0.06106 1.5196 0.0848 1.9221 0.04529 0.34823 3.483-0.10414 6.8403 2.0916 0.22454 0.13506 0.84468 0.74678 1.0458 1.4981 0.34754-1.0854-0.67734-2.1478-1.0176-2.3743-0.12306 0.13168-0.22706 0.21321-0.25439 0.14133-0.03501-0.0921-0.04185-0.21608-0.02827-0.33919-0.13712-0.08429-0.28714-0.17842-0.42398-0.25439-0.07744 0.20727-0.17899 0.37146-0.31092 0.39572-0.0442 0.0081-0.06857-0.26106-0.0848-0.59358-2.9821-1.4967-5.7257-1.1584-5.7662-1.4698-0.02373-0.40251-0.02697-1.5245-0.0848-1.9221-0.24858-2.018-1.0361-2.1479-1.4981-2.0916zm-3.2223 1.1872c-0.27991-0.0577-1.2653 0.46046-1.2437 1.4981 0.000714 0.05818 0.06152 0.26868 0.0848 0.39572 0.2329-0.69018 0.93006-1.0365 1.1589-0.98929 0.29222 0.07459 0.73267-0.02111 1.7807 2.5439 0.31075 0.48072 0.81253 0.68513 0.76317 0.22612-0.07085-0.21976-0.13503-0.43012-0.19786-0.65011-0.15703-0.02311-0.39051-0.21011-0.56531-0.48051-1.0481-2.565-1.4885-2.4693-1.7807-2.5439zm11.052 1.0741c-0.47916 0.4691-0.54204 1.876-0.48051 2.5439 0.03808-0.63734 0.17044-1.3358 0.48051-1.6394 0.04824-0.04722 0.08886 0.113 0.11306 0.36745 0.0311-0.71132-0.01943-1.3636-0.11306-1.2719zm1.8373 0.33919c-0.07221-0.19103-1.771 1.9778-1.4698 2.77 0.02079 0.05468 0.08937 0.01248 0.16959-0.05653 0.2581-0.57988 0.6875-1.2412 0.98929-1.5829 0.011-0.01245 0.01768-0.01662 0.02827-0.02827 0.21777-0.46513 0.36104-0.89499 0.28266-1.1024zm-7.773 4.1268c-0.10182 0.12054-0.16959 0.27889-0.16959 0.45225 0 0.06214 0.01284 0.111 0.02827 0.16959 0.22644 0.11921 0.53146 0.20989 0.93276 0.25439 0.08835 0.0099-0.20349 0.14881-0.56531 0.22612 0.0793 0.03741 0.16421 0.05653 0.25439 0.05653 0.36072 0 0.65011-0.32938 0.65011-0.70664 0-0.16444-0.07697-0.30602-0.16959-0.42398-0.11531 0.1312-0.30016 0.22612-0.48051 0.22612-0.19353 0-0.35762-0.10643-0.48051-0.25439zm-0.98929 0.42398c-0.12762 0.13977-0.08904 1.2517 0.45225 1.5546 0.59964 0.28217 1.4774-0.1812 1.3285-0.19786-0.94352-0.10463-1.3163-0.46421-1.5263-0.87623-0.0074-0.0091-0.02116-0.0188-0.02827-0.02827-0.0038-0.0078 0.0037-0.02041 0-0.02827-0.08547-0.11947-0.15411-0.27382-0.19786-0.42398-0.000761-0.0026-0.02752 0.0026-0.02827 0zm-18.033 1.1589c-1.1404 2.0768-1.234 3.965-1.1872 5.2009 0.05222-1.2963 0.35326-3.016 1.4981-4.8334-0.03718-0.06747-0.14966-0.20848-0.31092-0.36745zm21.397 1.809c-0.8219 0.14646-2.3314 1.08-2.2047 1.1872 0.13633 0.11527 1.308-0.42364 2.0069-0.8197 0.17425-0.14689 0.34657-0.28008 0.50878-0.36745-0.08245-0.01642-0.19351-0.02092-0.31092 0zm0.70664 0.79144c-0.55546-0.04133-1.9256 1.4321-1.7807 1.5546 0.20485 0.17316 2.0566-1.5334 1.7807-1.5546zm-2.3743 2.9679c-0.11224 0.22346-0.15082 0.59709 0.02827 0.93276 0.29802 0.55857 0.43069 0.39625 1.4133 1.6111 0.16001 0.19784 0.27148 0.37489 0.36745 0.53704 0.38293-0.16659 0.25848-0.66764-0.36745-1.4415-0.98259-1.2149-1.1153-1.0526-1.4133-1.6111-0.006-0.01119-0.0228-0.01698-0.02827-0.02827zm-20.888 1.0176c-0.007 0.02479-0.01667 0.0702-0.02826 0.0848-0.19707 0.29036-2.0227 2.1376-1.4415 2.4026 0.06469 0.02949 0.1265 0.06961 0.19786 0.0848 0.41593-0.62638 1.1225-1.4043 1.2437-1.5829 0.07885-0.09924 0.06268-0.46839 0.02826-0.98929zm19.362 2.233c-0.09037-0.000898-0.18567 0.004-0.25439 0.02827-0.25727 0.09096 1.2896 1.5644 1.4981 2.1482 0.1479-0.15764 0.17817-0.42799 0-0.9045-0.1019-0.28532-0.50366-0.76954-0.87623-1.2154-0.0103-0.0023-0.01806-0.0261-0.02826-0.02826-0.12337-0.02612-0.23542-0.02724-0.33919-0.02827zm-18.712 0.7349c-0.04661-0.0083-0.14353 0.06654-0.22612 0.11306-0.25935 0.72122-0.55794 1.5723-0.33919 1.9221 0.15237-0.61081 0.47834-1.3365 0.59358-1.7807 0.04549-0.17537 0.02889-0.2442-0.02827-0.25439z"/>
  <path id="path4184" style="opacity:.5;fill:#fff;fill-rule:evenodd" d="m35.509 37.179c-0.01796 0.01058-0.01816 0.02572 0 0.05653-0.32804 0.0119 0.28886 0.46534 0.50878 0.62184 0.13708 0.15783 5.1966 2.4234 7.2925 3.618 1.8671 1.0401 4.2861 2.9698 5.1443 3.8158 0.09784-0.17817 0.19708-0.35633 0.31092-0.53704-0.23504-0.42654-3.2373-2.9477-5.4552-4.1833-0.61171-0.34867-1.4817-0.79044-2.4026-1.2437-0.8011-0.20428-2.8338-0.97524-3.618-1.4133-0.72691-0.40606-1.655-0.80901-1.7807-0.7349zm28.887 1.6959c-0.10218 0.6099 0.06388 1.4528 0.31092 2.3178 0.12214 0.01797 0.21945-0.05357 0.19786-0.25439-0.22752-0.70572-0.43132-1.4327-0.50878-2.0634zm-3.194 1.1872c-0.05199 0.15406-0.08874 0.31943-0.0848 0.50878 0.0023 0.1863 0.1445 0.78438 0.25439 1.3285 0.03752-0.03941 0.07016-0.0789 0.11306-0.11306-0.0022-0.35091-0.18668-1.2003-0.28266-1.7242zm14.048 0.42398c-0.01685-0.04459-0.13382 0.03397-0.28266 0.19786-0.01058 0.01165-0.01727 0.01582-0.02827 0.02827-0.31338 0.65912-0.74197 1.3701-0.98929 1.5829-0.10109 0.22713-0.17701 0.43295-0.19786 0.62184 0.08426 0.0518 0.17017 0.11451 0.25439 0.16959 0.008 0.0048 0.01933 0.02231 0.02827 0.02827 0.46866-0.50151 1.3952-2.153 1.2154-2.6287zm-1.7242 0.0848c-0.03821 0.7358-0.18169 1.5227-0.50878 1.5829-0.03154 0.0058-0.06411-0.12466-0.0848-0.31092-0.01226 0.23916-0.0094 0.42933 0 0.62184 0.13262 0.06656 0.26239 0.12384 0.39572 0.19786 0.20492-0.54842 0.24522-1.5232 0.19786-2.0916zm-5.5683 1.9786c-0.36066 0-0.65011 0.32932-0.65011 0.70664 0 0.17485 0.06343 0.32443 0.16959 0.45225 0.11978-0.14181 0.28556-0.25439 0.48051-0.25439 0.20351 0 0.36061 0.12994 0.48051 0.28266 0.11531-0.1312 0.16959-0.29189 0.16959-0.48051 0-0.37732-0.2894-0.70664-0.65011-0.70664zm-1.4698 0.67837c-0.07627 0.08353-0.11383 0.50741 0 0.9045 0.000749 0.0026 0.02751-0.0026 0.02827 0 0.01067 0.000559 0.01629-0.0124 0.02826 0 0.04675 0.14026 0.10629 0.28862 0.16959 0.42398 0.0037 0.0079-0.0038 0.02046 0 0.02827 0.0071 0.0095 0.02087 0.01916 0.02827 0.02827 0.05773 0.07102 0.12053 0.12632 0.19786 0.16959 0.24382 0.11473 0.51524 0.08124 0.76317 0.02827-0.18564-0.08758-0.31265-0.27232-0.36745-0.48051-0.50401-0.26534-0.65494-0.69281-0.79144-1.1024-0.02396-0.02479-0.0383-0.01997-0.05653 0zm8.5645 2.2612c-0.09386 0.29314-0.28425 0.56878-0.62184 0.84797-1.0869 0.9014-5.8182 3.2268-6.1336 3.4484-0.17188 0.11778-0.30798 0.61143-0.11306 1.0458 0.03442-0.06214 0.07331-0.11409 0.11306-0.14133 0.31544-0.22157 5.0467-2.547 6.1336-3.4484 0.69087-0.57136 0.77134-1.1941 0.62184-1.7525zm-5.2009 0.70664c-0.8219 0.14646-2.3314 1.08-2.2047 1.1872 0.2048 0.17316 2.829-1.1185 2.5156-1.1872-0.08245-0.01642-0.19351-0.02092-0.31092 0zm0.70664 0.79144c-0.10276-0.0077-0.25226 0.03579-0.39572 0.11306 0.10478 0.02294-0.15779 0.16854-0.50878 0.36745-0.50465 0.42541-0.96397 0.99989-0.87623 1.0741 0.20485 0.17316 2.0566-1.5334 1.7807-1.5546zm-23.291 3.5332c-0.02065 0.54596 0.0033 0.97934 0.02826 1.3567 0.05378-0.19034-0.000258-0.66033-0.02826-1.3567zm19.39 2.6852c-0.09037-0.000898-0.18567 0.004-0.25439 0.02827-0.12863 0.04548 0.21484 0.45097 0.59358 0.9045 0.0102 0.0022 0.01796 0.02597 0.02826 0.02826 0.62442 0.13938 1.4342 0.52629 1.809 0.62184 1.3044 0.33254 1.6523-0.01437 1.1589-0.84797-0.2182 0.09493-0.59333 0.08765-1.1589-0.05653-0.45576-0.11619-1.5439-0.67209-2.1764-0.67837zm-18.712 0.7349c-0.09526-0.01699-0.29811 0.15003-0.48051 0.25439-0.12213 0.06987-0.87179 0.37566-1.4415 0.25439-0.26053 0.39234-0.42169 0.71765-0.19786 0.8197 0.58118 0.26496 1.502-0.09097 1.6394-0.16959 0.09317-0.0533 0.16816-0.09276 0.25439-0.14133 0.10104-0.28096 0.20243-0.56285 0.25439-0.76317 0.04549-0.17537 0.02889-0.2442-0.02827-0.25439zm3.1092 0.33919c-0.2993 0.08069-2.784 2.5901-2.9679 2.6852-0.38497 0.12167-0.60531 0.0772-0.70664-0.0848-0.17439 0.69909-0.11518 1.249 0.70664 0.98929 0.18384-0.09514 2.6686-2.6045 2.9679-2.6852 4.9167 1.1659 10.452 0.69354 11.476 0.25439 0.52697 0.02821 1.9989 0.89247 2.8548 1.3002 0.85161 0.4057 3.173 1.3867 2.5156-0.42398-0.44253 0.42674-1.8871-0.18108-2.5156-0.48051-0.8559-0.40775-2.3279-1.272-2.8548-1.3002-1.0239 0.43915-6.5591 0.91147-11.476-0.25439z"/>
  <path id="path4193" style="opacity:.2" d="m108.25 33.212 10.53-9.7635 11.9 14.64 12.854-14.671 9.8898 9.0821-14.229 14.594 14.578 15.548-10.573 9.8432l-13.4-15.56-13.42 15.761-9.55-9.452 14.65-15.637-13.23-14.384z"/>
 </g>
</svg>
