<?xml version="1.0" encoding="UTF-8" standalone="no"?>
<!-- Created with Inkscape (http://www.inkscape.org/) -->
<svg id="svg2408" xmlns:rdf="http://www.w3.org/1999/02/22-rdf-syntax-ns#" xmlns="http://www.w3.org/2000/svg" height="96" width="96" version="1.0" xmlns:cc="http://creativecommons.org/ns#" xmlns:xlink="http://www.w3.org/1999/xlink" xmlns:dc="http://purl.org/dc/elements/1.1/">
 <defs id="defs2410">
  <linearGradient id="ButtonShadow" y2="7.0165" gradientUnits="userSpaceOnUse" x2="45.448" gradientTransform="scale(1.0059 .99417)" y1="92.54" x1="45.448">
   <stop id="stop3750" offset="0"/>
   <stop id="stop3752" style="stop-opacity:.58824" offset="1"/>
  </linearGradient>
  <filter id="filter3174" color-interpolation-filters="sRGB">
   <feGaussianBlur id="feGaussianBlur3176" stdDeviation="1.71"/>
  </filter>
  <linearGradient id="ButtonShadow-0" y2="7.0165" gradientUnits="userSpaceOnUse" x2="45.448" gradientTransform="matrix(1.0059 0 0 .99417 100 0)" y1="92.54" x1="45.448">
   <stop id="stop3750-8" offset="0"/>
   <stop id="stop3752-5" style="stop-opacity:.58824" offset="1"/>
  </linearGradient>
  <linearGradient id="linearGradient8478" y2="138.66" gradientUnits="userSpaceOnUse" x2="48" y1="20.221" x1="48">
   <stop id="stop3739-00" style="stop-color:#fff" offset="0"/>
   <stop id="stop3741-66" style="stop-color:#fff;stop-opacity:0" offset="1"/>
  </linearGradient>
  <filter id="filter3174-9" color-interpolation-filters="sRGB">
   <feGaussianBlur id="feGaussianBlur3176-8" stdDeviation="1.71"/>
  </filter>
  <filter id="filter3794-71" height="1.384" width="1.384" color-interpolation-filters="sRGB" y="-.192" x="-.192">
   <feGaussianBlur id="feGaussianBlur3796-90" stdDeviation="5.28"/>
  </filter>
  <clipPath id="clipPath3613-01">
   <rect id="rect3615-422" style="fill:#fff" rx="6" ry="6" height="84" width="84" y="6" x="6"/>
  </clipPath>
  <filter id="filter3174-28" color-interpolation-filters="sRGB">
   <feGaussianBlur id="feGaussianBlur3176-3" stdDeviation="1.71"/>
  </filter>
  <filter id="filter3174-1" color-interpolation-filters="sRGB">
   <feGaussianBlur id="feGaussianBlur3176-1" stdDeviation="1.71"/>
  </filter>
  <linearGradient id="linearGradient3737-75">
   <stop id="stop3739-39" style="stop-color:#fff" offset="0"/>
   <stop id="stop3741-84" style="stop-color:#fff;stop-opacity:0" offset="1"/>
  </linearGradient>
  <filter id="filter3174-0" color-interpolation-filters="sRGB">
   <feGaussianBlur id="feGaussianBlur3176-34" stdDeviation="1.71"/>
  </filter>
  <linearGradient id="linearGradient16256" y2="90.239" xlink:href="#ButtonShadow-0" gradientUnits="userSpaceOnUse" x2="32.251" gradientTransform="matrix(1.0238 0 0 -1.0005 -1.1429 98.037)" y1="6.1317" x1="32.251"/>
  <linearGradient id="linearGradient16258" y2="90.239" xlink:href="#ButtonShadow-0" gradientUnits="userSpaceOnUse" x2="32.251" gradientTransform="matrix(1.0238 0 0 1.0119 -1.1429 -98.071)" y1="6.1317" x1="32.251"/>
  <linearGradient id="linearGradient16264" y2="90.239" xlink:href="#ButtonShadow-0" gradientUnits="userSpaceOnUse" x2="32.251" gradientTransform="translate(0,-97)" y1="6.1317" x1="32.251"/>
  <linearGradient id="linearGradient20651" y2="63.893" xlink:href="#linearGradient3737-75" gradientUnits="userSpaceOnUse" x2="36.357" gradientTransform="matrix(.99864 0 0 1.0042 -.38438 -.92056)" y1="6" x1="36.357"/>
  <radialGradient id="radialGradient20666" xlink:href="#linearGradient3737-75" gradientUnits="userSpaceOnUse" cy="87.753" cx="49.189" gradientTransform="matrix(.79706 -.011471 .014436 .98589 7.9619 .62038)" r="42"/>
  <radialGradient id="radialGradient21309" gradientUnits="userSpaceOnUse" cy="71.051" cx="25.939" gradientTransform="matrix(1.945 0 0 1.2211 -24.512 -10.394)" r="30.109">
   <stop id="stop21305" style="stop-color:#000e1e" offset="0"/>
   <stop id="stop21307" style="stop-color:#0057b9" offset="1"/>
  </radialGradient>
  <radialGradient id="radialGradient21342" gradientUnits="userSpaceOnUse" cy="70.294" cx="46.965" gradientTransform="matrix(1.7328 -.0056698 .0058422 1.7855 -18.428 -61.493)" r="42">
   <stop id="stop21346" style="stop-color:#06185c" offset="0"/>
   <stop id="stop21348" offset="1"/>
  </radialGradient>
  <linearGradient id="linearGradient21377" y2="74.169" gradientUnits="userSpaceOnUse" x2="208" gradientTransform="translate(-180.37 -9.9249)" y1="39.001" x1="209.58">
   <stop id="stop21373" style="stop-color:#410c00" offset="0"/>
   <stop id="stop21375" style="stop-color:#100300" offset="1"/>
  </linearGradient>
  <radialGradient id="radialGradient21399" gradientUnits="userSpaceOnUse" cy="48.39" cx="31.148" gradientTransform="matrix(1.1023 -.0043474 .0056225 .73920 -3.4573 13.022)" r="27.332">
   <stop id="stop21395" style="stop-color:#643112" offset="0"/>
   <stop id="stop21397" style="stop-color:#4f270e;stop-opacity:0" offset="1"/>
  </radialGradient>
 </defs>
 <metadata id="metadata2413">
  <rdf:RDF>
   <cc:Work rdf:about="">
    <dc:format>image/svg+xml</dc:format>
    <dc:type rdf:resource="http://purl.org/dc/dcmitype/StillImage"/>
    <dc:title/>
   </cc:Work>
  </rdf:RDF>
 </metadata>
 <g id="layer2" style="display:none">
  <rect id="rect3745" style="opacity:.9;filter:url(#filter3174);fill:url(#ButtonShadow)" rx="6" ry="6" height="85" width="86" y="7" x="5"/>
 </g>
 <g id="layer2-6" style="display:none" transform="translate(115.54 .85219)">
  <rect id="rect3745-02" style="opacity:.9;filter:url(#filter3174-0);fill:url(#ButtonShadow)" rx="6" ry="6" height="85" width="86" y="7" x="5"/>
 </g>
 <g id="layer2-7" style="display:none" transform="translate(235.43 .85219)">
  <rect id="rect3745-0" style="opacity:.9;filter:url(#filter3174-9);fill:url(#ButtonShadow)" rx="6" ry="6" height="85" width="86" y="7" x="5"/>
 </g>
 <g id="layer2-9" style="display:none" transform="matrix(.95833 0 0 .94792 252.01 5.1359)">
  <rect id="rect3745-3" style="opacity:.9;filter:url(#filter3174-1);fill:url(#ButtonShadow)" rx="6" ry="6" height="85" width="86" y="7" x="5"/>
 </g>
 <g id="layer2-20" style="display:none" transform="matrix(1.0222 0 0 1.0111 248.67 2.1302)">
  <rect id="rect3745-64" style="opacity:.9;filter:url(#filter3174-28);fill:url(#ButtonShadow)" rx="6" ry="6" height="85" width="86" y="7" x="5"/>
 </g>
 <g id="layer5-35" style="display:none" transform="matrix(1.0222 0 0 1.0111 248.67 2.1302)">
  <rect id="rect3171-20" style="opacity:.1;filter:url(#filter3794-71);stroke:#fff;stroke-linecap:round;stroke-width:.5;fill:url(#linearGradient8478)" clip-path="url(#clipPath3613-01)" rx="12" ry="12" height="66" width="66" y="15" x="15"/>
 </g>
 <g id="g21428" transform="matrix(1 0 0 1.0111 0 .34303)">
  <g id="layer5" transform="matrix(.99932 0 0 .99931 .0013366 -1.0176)">
   <path id="path3786" style="opacity:0.08;fill:url(#linearGradient16256)" d="m12 95.031c-5.5111 0-10.031-4.469-10.031-9.9177v-70.197c-0.0002-5.4478 4.5199-9.9168 10.031-9.9168h72c5.5111 0 10.031 4.469 10.031 9.9177v70.197c0 5.4487-4.5202 9.9177-10.031 9.9177h-72z"/>
   <path id="path3778" style="opacity:.1;fill:url(#linearGradient16258)" d="m12-94.031c-4.9716 0-9.0312 4.0596-9.0312 9.0312v71c0 4.9716 4.0596 9.0312 9.0312 9.0312h72c4.9716 0 9.0312-4.0596 9.0312-9.0312v-71c0-4.9716-4.0596-9.0312-9.0312-9.0312h-72z" transform="scale(1,-1)"/>
   <path id="path3770" style="opacity:.2;fill:url(#linearGradient16258)" d="m12-93c-4.4091 0-8 3.5909-8 8v71c0 4.4091 3.5909 8 8 8h72c4.4091 0 8-3.5909 8-8v-71c0-4.4091-3.5909-8-8-8h-72z" transform="scale(1,-1)"/>
   <rect id="rect3723" style="opacity:.3;fill:url(#linearGradient16258)" transform="scale(1,-1)" rx="7" ry="7" height="85" width="86" y="-92" x="5"/>
   <rect id="rect3716" style="opacity:.45;fill:url(#linearGradient16264)" transform="scale(1,-1)" rx="6" ry="6" height="84" width="84" y="-91" x="6"/>
  </g>
  <g id="layer1-0" transform="matrix(.99864 0 0 .99863 -.35476 -.88835)">
   <rect id="rect2419-3" style="fill:url(#radialGradient21342)" rx="6" ry="6" height="84" width="84" y="6" x="6"/>
  </g>
  <path id="path21391" style="fill:url(#radialGradient21399)" d="m62.057 51.641a27.332 25.092 0 1 1 -0.444 -4.503" transform="matrix(1.002 0 0 1.3371 -2.5915 -28.44)"/>
  <path id="path21389" style="opacity:.2;fill:#f7701a" d="m28.284 80.67c2.662-0.11379 2.2934-8.3765 7.5995-9.9338 8.8362-2.5933 24.079-12.423 20.052-13.384-4.9959-1.1927-9.8315 4.0877-15.66-2.3101-6.108-6.7047 0.97419-12.269 6.4581-15.614 5.5276-3.3716 9.8972-9.8832 6.7869-10.611-4.4463-1.0409-9.2947-0.21205-9.2947-0.21205s0.70108 1.456 6.7714 0.47467c5.4865-0.88694 2.9028-4.715 2.9028-4.715s-3.6031-6.3195-8.218-5.7c-4.4515 0.59764-6.3378-0.58405-7.529-1.2797-1.1913-0.69565-7.4309 0.78554-17.954 7.5681-10.522 6.782-15.114 14.097-15.114 14.097l7.792-0.815-7.3914 8.523 6.7864-1.236s-3.138 4.5572-5.779 8.2862c-2.6362 3.722-0.96602 9.5818-0.96602 9.5818s4.1919 3.5364 9.7165 5.284c5.4336 1.7188 6.4448 2.8609 8.7405 5.3406 2.3485 2.5366 1.6386 6.7683 4.3006 6.6545z"/>
  <path id="path21387" style="opacity:.3;fill:#f7701a" d="m27.694 80.907c2.5239-0.11178 2.1745-8.2288 7.2053-9.7585 8.3778-2.5475 22.83-12.204 19.012-13.148-4.7368-1.1716-10.223 3.4709-15.749-2.814-5.7911-6.5864 2.255-14.001 7.9801-16.664 5.6003-2.6054 9.8086-8.5534 5.479-8.5534s-8.8125-0.20831-8.8125-0.20831 0.71782 0.49494 6.4732-0.46905c5.2019-0.87129 4.2392-3.6965 4.2392-3.6965s-4.0535-6.5932-8.4289-5.9845c-4.2206 0.58709-6.2214-0.24362-7.3509-0.927-1.1295-0.68337-7.3641 0.93674-17.341 7.5996-9.976 6.66-14.852 14.436-14.852 14.436l7.5385-1.5011-7.6839 8.8394 7.11-1.6806s-2.9752 4.4768-5.4793 8.14c-2.4994 3.6564-0.91591 9.4128-0.91591 9.4128s3.9745 3.474 9.2125 5.1908c5.1517 1.6884 6.1105 2.8104 8.2871 5.2464 2.2266 2.4919 1.5536 6.6489 4.0775 6.5371z"/>
  <path id="path21385" style="opacity:.45;fill:#f7701a" d="m25.973 81.019c2.3781-0.10822 2.0489-7.9665 6.7892-9.4476 7.894-2.4664 21.934-10.73 18.336-11.645-4.4633-1.1343-11.005 1.9505-15.262-5.327-4.257-7.2776 5.9758-15.501 11.37-18.08 5.2769-2.5223 6.3412-5.6835 2.2616-5.6835s-9.2536 0.66591-9.2536 0.66591 1.1286-2.7315 6.6272-2.7315 5.8943-2.7111 5.8943-2.7111-6.0145-6.9571-9.9167-5.4685-3.9676-0.06389-5.0318-0.72548c-1.0643-0.6616-8.3366 1.8194-17.737 8.27-9.399 6.453-14.838 14.09-14.838 14.09l6.9976-1.5617-6.5014 8.7747 5.9606-1.8439s-2.4867 5.5271-4.8462 9.0735c-2.3551 3.5398-1.1797 7.9199-1.1797 7.9199s3.745 3.3633 8.6806 5.0254c4.8543 1.6346 5.7577 2.7209 7.8086 5.0792 2.0981 2.4125 1.4639 6.437 3.842 6.3288z"/>
  <path id="path21340" style="opacity:0.08;fill:#0057b9" d="m41.18 4.3809c5.829 5.0314 10.034 12.433 11.432 21.083l0.48762 6.1367c0 16.758-10.846 29.75-24.923 34.268-1.8197 0.58409-3.4671 9.362-5.3858 9.362-2.3107 0-3.9921-8.6188-6.1546-9.4531-3.9991-1.5429-7.7541-3.7265-11.053-6.4709v11.605c5.0773 3.1594 11.129 6.0601 17.373 6.0601 19.34 0 34.829-18.403 34.829-39.751l-0.568-6.926c-1.832-11.082-7.848-20.316-16.037-25.914z"/>
  <path id="path21338" style="opacity:.15;fill:#0057b9" d="m41.984 5.7251c5.98 5.0309 10.293 12.433 11.727 21.084l0.50018 6.1367c0 16.758-11.125 29.75-25.565 34.268-1.8665 0.58409-3.5564 9.362-5.5245 9.362-2.3702 0-4.0949-8.6188-6.3131-9.4531-4.101-1.543-7.953-3.727-11.337-6.471v11.605c5.2081 3.1594 11.416 6.0601 17.82 6.0601 19.838 0 35.726-18.403 35.726-39.751l-0.582-6.927c-1.879-11.082-8.05-20.315-16.451-25.914z"/>
  <path id="path21336" style="opacity:.25;fill:#0057b9" d="m42.791 6.9132c6.086 5.0314 10.475 12.433 11.935 21.084l0.50906 6.1367c0 16.758-11.322 29.75-26.018 34.268-1.8997 0.58409-3.6195 9.362-5.6225 9.362-2.4123 0-4.1676-8.6188-6.4251-9.4531-4.1749-1.5429-8.095-3.7265-11.539-6.4709v11.605c5.3005 3.1594 11.619 6.0601 18.137 6.0601 20.19 0 36.36-18.403 36.36-39.751l-0.5939-6.9266c-1.913-11.082-8.194-20.315-16.743-25.914z"/>
  <path id="path21334" style="opacity:.35294;fill:#0057b9" d="m43.493 7.9825c6.201 5.0315 10.673 12.432 12.16 21.084l0.51867 6.1367c0 16.758-11.536 29.75-26.51 34.268-1.9355 0.58409-3.6879 9.362-5.7288 9.362-2.4578 0-4.2463-8.6188-6.5465-9.4531-4.253-1.543-8.2475-3.726-11.756-6.471v11.605c5.4007 3.1594 11.838 6.0601 18.48 6.0601 20.572 0 37.047-18.403 37.047-39.751l-0.605-6.926c-1.949-11.083-8.348-20.316-17.059-25.914z"/>
  <path id="path21332" style="opacity:.45;fill:#0057b9" d="m44.483 9.2147c6.345 5.0313 10.921 12.433 12.443 21.083l0.53071 6.1367c0 16.758-11.804 29.75-27.125 34.268-1.9804 0.58409-3.7735 9.362-5.8617 9.362-2.5149 0-4.3448-8.6188-6.6984-9.4531-4.353-1.542-8.44-3.726-12.03-6.471v11.605c5.526 3.1594 12.113 6.0601 18.908 6.0601 21.049 0 37.907-18.403 37.907-39.751l-0.619-6.926c-1.994-11.083-8.542-20.316-17.455-25.914z"/>
  <path id="path21330" style="opacity:.085973;fill:#50a3ff" d="m50.789 13.214c6.9903 5.3205 12.032 13.147 13.708 22.295l0.5847 6.4893c0 17.721-13.005 31.459-29.884 36.237-2.1819 0.61764-6.8525 6.2085-9.1531 6.2085-2.7707 0-2.0917-5.4226-4.6847-6.3048-4.795-1.631-9.298-3.94-13.253-6.842v12.272c6.0881 3.3409 13.108 5.2364 20.594 5.2364 23.19 0 42.001-18.288 42.001-40.863l-0.683-7.325c-2.196-11.719-9.41-21.482-19.23-27.403z"/>
  <path id="path21299" style="opacity:.1;fill:#50a3ff" d="m49.997 12.185c6.9903 5.3205 12.032 13.147 13.708 22.295l0.5847 6.4893c0 17.721-13.005 31.459-29.884 36.237-2.1819 0.61764-6.8525 6.2085-9.1531 6.2085-2.7707 0-2.0917-5.4226-4.6847-6.3048-4.7952-1.6315-9.2978-3.9405-13.253-6.8427v12.272c6.0881 3.3409 13.108 5.2364 20.594 5.2364 23.19 0 42.001-18.288 42.001-40.863l-0.683-7.324c-2.196-11.719-9.41-21.483-19.23-27.403z"/>
  <path id="path21297" style="opacity:.2;fill:#258bff" d="m49.086 11.313c6.9903 5.3205 12.032 13.147 13.708 22.295l0.5847 6.4893c0 17.721-13.005 31.459-29.884 36.237-2.1819 0.61764-5.5083 6.8806-7.8089 6.8806-2.7707 0-3.4359-6.0947-6.0289-6.9769-4.795-1.631-9.298-3.94-13.253-6.842v12.272c6.0881 3.3409 13.108 5.2364 20.594 5.2364 23.19 0 42.001-18.288 42.001-40.863l-0.682-7.325c-2.197-11.719-9.411-21.482-19.231-27.403z"/>
  <path id="path21295" style="opacity:.3;fill:#258bff" d="m48.057 10.68c6.9903 5.3205 12.032 13.147 13.708 22.295l0.5847 6.4893c0 17.721-13.005 31.459-29.884 36.237-2.1819 0.61764-4.5001 7.1046-6.8007 7.1046-2.7707 0-4.4441-6.3187-7.0371-7.201-4.796-1.632-9.2987-3.941-13.254-6.843v12.272c6.088 3.341 13.108 5.236 20.594 5.236 23.19 0 42.001-18.288 42.001-40.863l-0.682-7.324c-2.197-11.719-9.41-21.483-19.23-27.403z"/>
  <path id="path21293" style="opacity:.4;fill:#fff" d="m47.451 10.799c6.825 5.2307 11.747 12.925 13.384 21.919l0.57087 6.3798c0 17.422-12.697 30.928-29.178 35.626-2.1303 0.60722-4.287 8.5038-6.5332 8.5038-2.7052 0-4.4457-7.7312-6.9774-8.5986-4.683-1.604-9.0792-3.875-12.941-6.728v12.065c5.9442 3.2846 12.798 5.1481 20.107 5.1481 22.642 0 41.008-17.98 41.008-40.174l-0.666-7.201c-2.145-11.521-9.188-21.12-18.775-26.94z"/>
  <path id="path3615-0" style="opacity:.2;fill:url(#radialGradient20666)" d="m11.11 88.956c-3.3195 0-5.9919-2.6494-5.9919-5.9403v-1.9801-67.323-1.9801c0-0.33139 0.041272-0.64422 0.093636-0.95911 0.048667-0.29266 0.096934-0.59098 0.18724-0.86629 0.00999-0.030077 0.020886-0.062971 0.031179-0.092817 0.0988-0.2855 0.2346-0.5426 0.3746-0.805 0.1444-0.2708 0.3151-0.5303 0.4993-0.7735 0.1841-0.2432 0.3733-0.4687 0.5929-0.6806 0.4394-0.4238 0.9417-0.8064 1.498-1.0829 0.2782-0.1382 0.5727-0.2445 0.8738-0.3403-0.2559 0.0992-0.486 0.2339-0.7178 0.3712-0.007 0.00435-0.023784-0.00445-0.031179 0-0.031878 0.019107-0.062258 0.042087-0.093636 0.061878-0.1202 0.076-0.2307 0.1619-0.3433 0.2475-0.106 0.08-0.213 0.1595-0.3121 0.2476-0.1776 0.1598-0.3469 0.3419-0.4993 0.5259-0.1074 0.129-0.2181 0.2627-0.3121 0.4022-0.025 0.038-0.0383 0.085-0.0624 0.1238-0.0647 0.102-0.13 0.2025-0.1873 0.3094-0.1008 0.1927-0.2053 0.4115-0.2808 0.6187-0.008 0.0216-0.0236 0.0402-0.0312 0.0619-0.0318 0.0911-0.0358 0.185-0.0624 0.2785-0.0302 0.1055-0.0702 0.201-0.0936 0.3094-0.0727 0.3385-0.1248 0.6915-0.1248 1.0515v1.9801 67.323 1.9801c0 2.7542 2.2151 4.9502 4.9932 4.9502h1.9973 67.908 1.9973c2.7781 0 4.9932-2.1961 4.9932-4.9502v-1.9801-67.323-1.9801c0-0.36067-0.05207-0.71381-0.12484-1.0519-0.04407-0.20483-0.08824-0.3937-0.15603-0.58784-0.008-0.021726-0.02329-0.040283-0.03118-0.061888-0.062-0.1717-0.138-0.3634-0.218-0.5256-0.041-0.082-0.079-0.1683-0.125-0.2475-0.054-0.0963-0.126-0.1865-0.187-0.2785-0.094-0.1395-0.205-0.2732-0.312-0.4022-0.143-0.1727-0.303-0.3435-0.468-0.495-0.011-0.0101-0.02-0.021-0.031-0.0309-0.139-0.1244-0.285-0.2322-0.437-0.3404-0.103-0.0724-0.204-0.1518-0.312-0.2166-0.007-0.00445-0.02378 0.00435-0.03118 0-0.23172-0.13735-0.46192-0.27204-0.71777-0.37127 0.30112 0.095837 0.59564 0.20211 0.87381 0.34033 0.55633 0.27645 1.0586 0.65907 1.498 1.0829 0.21968 0.2119 0.40881 0.43747 0.59295 0.68066s0.35493 0.50269 0.49932 0.77348c0.13994 0.26241 0.27576 0.51951 0.3745 0.80442 0.01039 0.030468 0.02129 0.062109 0.03118 0.092817 0.09034 0.27532 0.13861 0.57364 0.18724 0.86629 0.05236 0.31488 0.09364 0.62772 0.09364 0.95911v1.9801 67.323 1.9801c0 3.2909-2.6724 5.9403-5.9919 5.9403h-71.846z"/>
  <path id="rect3728-1" style="opacity:.3;fill:url(#linearGradient20651)" d="m11.599 5.1047c-3.3195 0-5.9919 2.6873-5.9919 6.0252v2.0084 68.286 2.0084c0 0.33613 0.041272 0.65343 0.093636 0.97282 0.048667 0.29684 0.096934 0.59942 0.18724 0.87868 0.00999 0.03051 0.020886 0.06386 0.031179 0.09415 0.098733 0.28898 0.23456 0.54975 0.37449 0.81592 0.1444 0.27466 0.3152 0.53787 0.49933 0.78454 0.18412 0.24667 0.37327 0.47546 0.59294 0.69039 0.43935 0.42986 0.94163 0.81795 1.498 1.0983 0.27817 0.1402 0.5727 0.24798 0.87382 0.3452-0.25586-0.10064-0.48605-0.23727-0.71777-0.37658-0.007-0.0044-0.023784 0.0045-0.031179 0-0.031878-0.01939-0.062258-0.0427-0.093636-0.06276-0.1199-0.076-0.2303-0.163-0.3429-0.25-0.106-0.081-0.213-0.161-0.3121-0.251-0.1777-0.162-0.347-0.347-0.4993-0.533-0.1074-0.131-0.2181-0.267-0.3121-0.408-0.0251-0.039-0.0384-0.086-0.0624-0.126-0.0647-0.103-0.1301-0.205-0.1873-0.314-0.1009-0.195-0.2054-0.417-0.2809-0.627-0.00799-0.02191-0.023584-0.04072-0.031179-0.06277-0.031778-0.09234-0.035776-0.18762-0.062458-0.28243-0.030279-0.10707-0.070252-0.20389-0.093636-0.31382-0.07275-0.34295-0.12484-0.70114-0.12484-1.067v-2.0084-68.286-2.0084c0-2.7935 2.2151-5.021 4.9932-5.021h1.9973 67.908 1.9973c2.7781 0 4.9932 2.2275 4.9932 5.021v2.0084 68.286 2.0084c0 0.36583-0.05206 0.72402-0.12484 1.067-0.04407 0.20776-0.08824 0.39933-0.15603 0.59625-0.008 0.02205-0.02328 0.04086-0.03118 0.06278-0.06266 0.17447-0.1382 0.36899-0.21845 0.53348-0.04157 0.08315-0.07895 0.17067-0.12484 0.25105-0.05456 0.09761-0.1266 0.18914-0.18724 0.28243-0.09394 0.14156-0.20464 0.27715-0.31208 0.40796-0.14298 0.17518-0.30273 0.34846-0.46811 0.5021-0.01119 0.01025-0.01999 0.02124-0.03118 0.03138-0.13821 0.12608-0.28471 0.23542-0.43691 0.34519-0.10243 0.07346-0.20404 0.15401-0.31207 0.21967-0.007 0.0045-0.02378-0.0044-0.03118 0-0.23173 0.13931-0.46193 0.27593-0.71778 0.37658 0.30112-0.09721 0.59564-0.205 0.87382-0.3452 0.55633-0.2804 1.0586-0.66849 1.498-1.0983 0.21967-0.21493 0.40881-0.44372 0.59295-0.69039s0.35492-0.50988 0.49932-0.78454c0.13992-0.26616 0.27576-0.52694 0.37449-0.81592 0.01039-0.03091 0.02129-0.06301 0.03118-0.09414 0.09034-0.27926 0.13862-0.58184 0.18725-0.87868 0.05236-0.3194 0.09364-0.6367 0.09364-0.97283v-2.0084-68.286-2.0084c0-3.338-2.6724-6.0252-5.9919-6.0252z"/>
  <path id="path21301" style="opacity:.64253;fill:#c6d9ff" d="m46.046 9.8483c6.595 5.0857 11.352 12.568 12.933 21.312l0.55163 6.203c0 16.939-12.27 30.071-28.195 34.639-2.0585 0.5904-3.9223 9.4631-6.0928 9.4631-2.614 0-4.5162-8.7119-6.9625-9.5552-4.524-1.56-8.7723-3.767-12.504-6.542v11.73c5.7439 3.1936 12.59 6.1256 19.654 6.1256 21.879 0 39.402-18.601 39.402-40.181l-0.644-7.001c-2.072-11.202-8.878-20.535-18.143-26.194z"/>
  <path id="path21381" style="opacity:.76471;fill:#f7701a" d="m25.285 81.355c2.2736-0.10604 1.9589-7.8063 6.4908-9.2575 7.5471-2.4167 20.756-10.734 17.316-11.63-4.2671-1.1115-10.307 2.1308-14.377-5.0004-4.0699-7.1312 5.7131-17.055 10.871-19.582 5.045-2.4716 6.0625-3.7032 2.1622-3.7032s-9.8107 0.43299-9.8107 0.43299 2.7925-4.9816 8.0494-4.9816 5.7423-1.1199 5.7423-1.1199-6.4998-6.3781-10.231-4.9194c-3.7307 1.4586-3.9003 0.48622-4.9178-0.16207s-7.9702 1.7828-16.958 8.1036c-8.986 6.321-14.186 13.804-14.186 13.804l6.69-1.5303-6.1086 8.3786 5.5915-1.5873s-2.2704 6.4038-4.5261 9.8789c-2.2516 3.4686-1.2349 6.7727-1.2349 6.7727s3.5804 3.2957 8.299 4.9243c4.6409 1.6017 5.5046 2.6662 7.4654 4.977 2.0058 2.364 1.3995 6.3075 3.6732 6.2015z"/>
  <path id="path21286" style="fill:url(#radialGradient21309)" d="m46.75 10.25c6.7249 5.1755 11.575 12.789 13.188 21.688l0.562 6.312c0 17.238-12.511 30.602-28.75 35.25-2.0991 0.60082-4.1138 9.7441-6.327 9.7441-2.6655 0-4.4909-8.9797-6.9855-9.8379-4.614-1.587-8.9453-3.833-12.75-6.656v11.938c5.857 3.2499 12.61 5.0938 19.812 5.0938 22.31 0 40.406-17.79 40.406-39.75l-0.656-7.126c-2.113-11.399-9.053-20.897-18.5-26.656z"/>
  <path id="path21369" style="fill:url(#linearGradient21377)" d="m25.25 80.689c1.532-0.10365 1.669-7.4263 5.9462-8.6937 4.2772-1.2673 19.685-10.105 16.472-10.98-3.9862-1.0864-10.22 1.7731-14.022-5.1972s4.9671-17.29 9.785-19.76c4.7129-2.4158 6.0334-3.0003 2.3898-3.0003s-9.1649 0.42322-9.1649 0.42322 2.5346-6.495 7.4455-6.495 6.1782-0.47525 6.1782-0.47525-6.8119-5.2277-10.297-3.802c-3.4852 1.4257-3.6436 0.47525-4.5941-0.15842-0.9505-0.63366-7.4456 1.7426-15.842 7.9208-8.396 6.177-13.031 12.253-13.031 12.253l7.804-2.115-7.7786 9.196 6.3336-2.636s-2.5459 8.4968-5.0421 11.592c-2.5473 3.1581-2.0416 5.6135-2.0416 5.6135s4.1586 4.3826 8.6407 5.8197c4.3851 1.4059 5.6602 2.3738 7.4919 4.6325 1.8738 2.3106 1.7947 5.965 3.3267 5.8614z"/>
  <path id="path21407" style="opacity:.1;fill:#f48a46" d="m25.015 29.766s5.5369-5.5215 7.2854-3.9439 4.8083 2.2086 2.1856 4.1017-3.2056 2.9974-5.3912 2.5241c-2.1856-0.47327-4.0798-2.6819-4.0798-2.6819z"/>
  <path id="path21405" style="opacity:.2;fill:#f48a46" d="m25.49 29.653s4.9516-4.8049 6.5153-3.4321 4.3001 1.922 1.9546 3.5694-2.8667 2.6084-4.8213 2.1965c-1.955-0.412-3.649-2.334-3.649-2.334z"/>
  <path id="path21403" style="opacity:.3;fill:#f48a46" d="m26.282 29.58s4.241-4.0883 5.5802-2.9202 3.6829 1.6353 1.6741 3.037c-2.0089 1.4017-2.4553 2.2194-4.1294 1.869-1.6741-0.35043-3.1249-1.9858-3.1249-1.9858z"/>
  <path id="path21401" style="opacity:.4;fill:#f48a46" d="m26.955 29.53s3.6139-3.2471 4.7551-2.3194c1.1412 0.92775 3.1384 1.2988 1.4265 2.4121-1.7118 1.1133-2.0923 1.7627-3.5188 1.4844-1.4265-0.27832-2.6629-1.5772-2.6629-1.5772z"/>
  <path id="path21379" style="stroke:#f57524;stroke-width:.42486;fill:#a76031" d="m27.906 29.376s2.7151-2.219 3.5725-1.585c0.8574 0.63399 2.3579 0.88758 1.0718 1.6484-1.2861 0.76078-1.5719 1.2046-2.6437 1.0144s-2.0006-1.0778-2.0006-1.0778z"/>
 </g>
</svg>
