<?xml version="1.0" encoding="UTF-8" standalone="no"?>
<!-- Created with Inkscape (http://www.inkscape.org/) -->
<svg id="svg2408" xmlns:rdf="http://www.w3.org/1999/02/22-rdf-syntax-ns#" xmlns="http://www.w3.org/2000/svg" height="96" width="96" version="1.0" xmlns:cc="http://creativecommons.org/ns#" xmlns:xlink="http://www.w3.org/1999/xlink" xmlns:dc="http://purl.org/dc/elements/1.1/">
 <defs id="defs2410">
  <linearGradient id="ButtonShadow" y2="7.0165" gradientUnits="userSpaceOnUse" x2="45.448" gradientTransform="scale(1.0059 .99417)" y1="92.54" x1="45.448">
   <stop id="stop3750" offset="0"/>
   <stop id="stop3752" style="stop-opacity:.58824" offset="1"/>
  </linearGradient>
  <filter id="filter3174" color-interpolation-filters="sRGB">
   <feGaussianBlur id="feGaussianBlur3176" stdDeviation="1.71"/>
  </filter>
  <linearGradient id="linearGradient3188" y2="63.893" gradientUnits="userSpaceOnUse" x2="36.357" y1="6" x1="36.357">
   <stop id="stop3739" style="stop-color:#fff" offset="0"/>
   <stop id="stop3741" style="stop-color:#fff;stop-opacity:0" offset="1"/>
  </linearGradient>
  <linearGradient id="linearGradient3638" y2="7.0165" xlink:href="#ButtonShadow" gradientUnits="userSpaceOnUse" x2="45.448" gradientTransform="scale(1.0059 .99417)" y1="92.54" x1="45.448"/>
  <linearGradient id="linearGradient3646" y2="5.9877" gradientUnits="userSpaceOnUse" x2="48" y1="90" x1="48">
   <stop id="stop3599" style="stop-color:#dcdcdc" offset="0"/>
   <stop id="stop3601" style="stop-color:#f5f5f5" offset="1"/>
  </linearGradient>
  <radialGradient id="radialGradient2855" gradientUnits="userSpaceOnUse" cy="90.172" cx="48" gradientTransform="matrix(1.1573 0 0 .99591 -7.551 .19713)" r="42">
   <stop id="stop3739-6" style="stop-color:#fff" offset="0"/>
   <stop id="stop3741-4" style="stop-color:#fff;stop-opacity:0" offset="1"/>
  </radialGradient>
  <linearGradient id="linearGradient3779" y2="5.9877" xlink:href="#ButtonShadow" gradientUnits="userSpaceOnUse" x2="48" gradientTransform="matrix(1.0238 0 0 1.0119 -1.1429 .92857)" y1="90" x1="48"/>
  <linearGradient id="linearGradient3786" y2="5.9877" gradientUnits="userSpaceOnUse" x2="48" gradientTransform="translate(0,1)" y1="90" x1="48">
   <stop id="stop3750-8" offset="0"/>
   <stop id="stop3752-5" style="stop-opacity:.58824" offset="1"/>
  </linearGradient>
  <linearGradient id="linearGradient4167" y2="-10.067" gradientUnits="userSpaceOnUse" x2="84" y1="80" x1="32">
   <stop id="stop4163" offset="0"/>
   <stop id="stop4165" style="stop-opacity:0" offset="1"/>
  </linearGradient>
  <linearGradient id="linearGradient3946" y2="36.917" xlink:href="#linearGradient3936" gradientUnits="userSpaceOnUse" x2="137.93" gradientTransform="matrix(.69627 .52508 -.52508 .69627 12.351 -40.127)" y1="79.295" x1="103.95"/>
  <linearGradient id="linearGradient3936">
   <stop id="stop3938" offset="0"/>
   <stop id="stop3940" style="stop-opacity:0" offset="1"/>
  </linearGradient>
  <radialGradient id="radialGradient3890" gradientUnits="userSpaceOnUse" cy="356.62" cx="425.51" gradientTransform="matrix(-.021224 -.017025 .22621 -0.282 -136.43 244.92)" r="143.34">
   <stop id="stop3296" style="stop-color:#7bade5" offset="0"/>
   <stop id="stop3302" style="stop-color:#255995" offset=".50094"/>
   <stop id="stop3298" style="stop-color:#062951" offset="1"/>
  </radialGradient>
  <radialGradient id="radialGradient3892" xlink:href="#linearGradient3202" gradientUnits="userSpaceOnUse" cy="390.45" cx="289.44" gradientTransform="matrix(.087305 .069485 -.10650 .13382 -66.303 90.119)" r="17.677"/>
  <linearGradient id="linearGradient3202">
   <stop id="stop3204" style="stop-color:#2b2b2b" offset="0"/>
   <stop id="stop3250" style="stop-color:#828383" offset=".5"/>
   <stop id="stop3206" style="stop-color:#dadbdb" offset="1"/>
  </linearGradient>
  <radialGradient id="radialGradient3894" xlink:href="#linearGradient3202" gradientUnits="userSpaceOnUse" cy="382.15" cx="283.51" gradientTransform="matrix(.087305 .069485 -.10650 .13382 -44.944 65.935)" r="17.677"/>
  <radialGradient id="radialGradient3896" gradientUnits="userSpaceOnUse" cy="181.19" cx="418.46" gradientTransform="matrix(-.013803 -.012573 .35517 -.38992 -103.15 193.49)" r="63.069">
   <stop id="stop3244" style="stop-color:#282828" offset="0"/>
   <stop id="stop3252" style="stop-color:#969696" offset=".39253"/>
   <stop id="stop3246" style="stop-color:#e3e3e3" offset="1"/>
  </radialGradient>
  <linearGradient id="linearGradient3007" y2="27.597" xlink:href="#linearGradient3936" gradientUnits="userSpaceOnUse" x2="144.1" gradientTransform="matrix(.83325 .25728 -.25728 .83325 -22.973 -24.07)" y1="78.68" x1="102.76"/>
 </defs>
 <metadata id="metadata2413">
  <rdf:RDF>
   <cc:Work rdf:about="">
    <dc:format>image/svg+xml</dc:format>
    <dc:type rdf:resource="http://purl.org/dc/dcmitype/StillImage"/>
    <dc:title/>
   </cc:Work>
  </rdf:RDF>
 </metadata>
 <g id="layer2" style="display:none">
  <path id="rect3745" style="opacity:.9;filter:url(#filter3174);fill:url(#linearGradient3638)" d="m11 7c-3.324 0-6 2.676-6 6v73c0 3.324 2.676 6 6 6h74c3.324 0 6-2.676 6-6v-73c0-3.324-2.676-6-6-6h-5v2.5c1.4703 0.7406 2.5 2.2424 2.5 4 0 2.484-2.016 4.5-4.5 4.5s-4.5-2.016-4.5-4.5c0-1.7576 1.0297-3.2594 2.5-4v-2.5h-8v2.5c1.4703 0.7406 2.5 2.2424 2.5 4 0 2.484-2.016 4.5-4.5 4.5s-4.5-2.016-4.5-4.5c0-1.7576 1.0297-3.2594 2.5-4v-2.5h-8v2.5c1.4703 0.7406 2.5 2.2424 2.5 4 0 2.484-2.016 4.5-4.5 4.5s-4.5-2.016-4.5-4.5c0-1.7576 1.0297-3.2594 2.5-4v-2.5h-8v2.5c1.4703 0.7406 2.5 2.2424 2.5 4 0 2.484-2.016 4.5-4.5 4.5s-4.5-2.016-4.5-4.5c0-1.7576 1.0297-3.2594 2.5-4v-2.5h-8v2.5c1.4703 0.7406 2.5 2.2424 2.5 4 0 2.484-2.016 4.5-4.5 4.5s-4.5-2.016-4.5-4.5c0-1.7576 1.0297-3.2594 2.5-4v-2.5h-8v2.5c1.4703 0.7406 2.5 2.2424 2.5 4 0 2.484-2.016 4.5-4.5 4.5s-4.5-2.016-4.5-4.5c0-1.7576 1.0297-3.2594 2.5-4v-2.5h-5z"/>
 </g>
 <g id="layer4">
  <path id="path3822" style="opacity:0.08;fill:url(#linearGradient3779)" d="m20.906 4.0312c-1.1199-0.039226-2.3944 0.038225-3.5 0.8125a0.90583 0.90583 0 0 0 -0.187 0.2188c-0.125-0.1239-0.171-0.3445-0.313-0.4375-0.565-0.3703-1.191-0.4854-1.781-0.5312-1.1793-0.091752-2.3755 0.078075-3.0312 0a0.90583 0.90583 0 0 0 -0.0625 0c-6.0503-0.1796-10.658 5.6506-9.9382 11.437 0.0000552 0.04167-0.0000543 0.08333 0 0.125 0.030515 23.42-0.077539 46.823 0.03125 70.25a0.90583 0.90583 0 0 0 0 0.0625c0.42992 5.7967 6.1856 9.6082 11.656 8.9375 0.04188-0.0051 0.08315 0.0057 0.125 0 23.669-0.03053 47.324 0.07754 71-0.03125a0.90583 0.90583 0 0 0 0.0625 0c5.7967-0.42992 9.6082-6.1856 8.9375-11.656-0.0051-0.04188 0.0057-0.08315 0-0.125-0.03051-23.336 0.07754-46.657-0.03125-70a0.90583 0.90583 0 0 0 0 -0.0625c-0.424-5.7281-6.055-9.4653-11.468-8.905-0.101-0.0206-0.209-0.0169-0.312-0.0312-0.885-0.1227-1.849-0.0273-2.688 0.4062-0.269 0.1393-0.463 0.3966-0.687 0.625-0.373-0.424-0.836-0.8095-1.469-0.9688a0.90583 0.90583 0 0 0 -0.219 -0.0312c-3.033 0.0346-6.229-0.2378-9.406 0.125a0.90583 0.90583 0 0 0 -0.3125 0.09375c-0.41429 0.21416-0.60892 0.61093-0.875 0.9375-0.18544-0.21407-0.27292-0.54653-0.5-0.6875-0.586-0.3639-1.232-0.4886-1.843-0.5313-1.222-0.0853-2.452 0.1125-3.156 0.0313a0.90583 0.90583 0 0 0 -0.21875 0c-0.81275 0.11136-1.8504-0.02345-2.9688-0.0625-1.1183-0.03905-2.3929 0.037212-3.5 0.8125a0.90583 0.90583 0 0 0 -0.188 0.2187c-0.01486 0.019982-0.01689 0.042383-0.03125 0.0625-0.15-0.1514-0.201-0.4234-0.375-0.5312-0.586-0.3639-1.232-0.4886-1.844-0.5313-1.222-0.0853-2.451 0.1125-3.156 0.0313a0.90583 0.90583 0 0 0 -0.21875 0c-0.81275 0.11136-1.8504-0.02345-2.9688-0.0625-1.1183-0.03905-2.3929 0.037212-3.5 0.8125a0.90583 0.90583 0 0 0 -0.187 0.2187c-0.015 0.02-0.017 0.0424-0.031 0.0625-0.15-0.1514-0.201-0.4234-0.375-0.5312-0.586-0.3639-1.233-0.4886-1.844-0.5313-1.222-0.0853-2.451 0.1125-3.156 0.0313a0.90583 0.90583 0 0 0 -0.21875 0c-0.81275 0.11136-1.8504-0.02345-2.9688-0.0625-1.1183-0.03905-2.3929 0.037212-3.5 0.8125a0.90583 0.90583 0 0 0 -0.187 0.2187c-0.01486 0.019982-0.01688 0.042383-0.03125 0.0625-0.151-0.1514-0.202-0.4234-0.375-0.5312-0.586-0.3639-1.233-0.4886-1.844-0.5313-1.222-0.0853-2.452 0.1125-3.156 0.0313a0.90583 0.90583 0 0 0 -0.21875 0c-0.808 0.1107-1.849-0.0233-2.969-0.0626zm57.844 8.3128c0.20103 0.22509 0.34456 0.4936 0.625 0.65625v0.03125c0.04503 0.02958 0.0521 0.03375 0.09375 0.0625 0.98578 0.68046 1.0842 1.154 1 1.5312-0.0878 0.3932-0.57114 0.93273-1.2188 1.2188-0.6476 0.28602-1.3662 0.29638-1.7188 0.09375-0.33652-0.19342-0.58745-0.62548-0.4375-1.8125 0.13147-0.3489 0.62236-0.73748 1.2812-1.3125 0.13605-0.11874 0.23855-0.3256 0.375-0.46875zm-61.469 0.094c0.40819 0.45097 0.86354 0.81374 1.1875 1.0938 0.28627 0.24744 0.45681 0.45874 0.53125 0.625s0.09357 0.3039-0.03125 0.6875a0.90583 0.90583 0 0 0 0 0.03125c-0.32543 1.0955-0.74352 1.3106-1.1562 1.375-0.41273 0.06439-0.99383-0.12618-1.4688-0.5625-0.47492-0.43632-0.77059-1.0597-0.75-1.5s0.20083-0.85457 1.2188-1.2812a0.90583 0.90583 0 0 0 0.28125 -0.1875c0.09005-0.08243 0.1097-0.19271 0.1875-0.28125zm12.281 0c0.40819 0.45097 0.86354 0.81374 1.1875 1.0938 0.28627 0.24744 0.45681 0.45874 0.53125 0.625s0.09357 0.3039-0.03125 0.6875a0.90583 0.90583 0 0 0 0 0.03125c-0.32543 1.0955-0.74352 1.3106-1.1562 1.375-0.41273 0.06439-0.99383-0.12618-1.4688-0.5625-0.47492-0.43632-0.77059-1.0597-0.75-1.5s0.20083-0.85457 1.2188-1.2812a0.90583 0.90583 0 0 0 0.28125 -0.1875c0.09005-0.08243 0.1097-0.19271 0.1875-0.28125zm12.281 0c0.40819 0.45097 0.86354 0.81374 1.1875 1.0938 0.28627 0.24744 0.45681 0.45874 0.53125 0.625s0.09357 0.3039-0.03125 0.6875a0.90583 0.90583 0 0 0 0 0.03125c-0.32543 1.0955-0.74352 1.3106-1.1562 1.375-0.41273 0.06439-0.99383-0.12618-1.4688-0.5625-0.47492-0.43632-0.77059-1.0597-0.75-1.5s0.20083-0.85457 1.2188-1.2812a0.90583 0.90583 0 0 0 0.28125 -0.1875c0.09005-0.08243 0.1097-0.19271 0.1875-0.28125zm12.281 0c0.40834 0.45069 0.86385 0.81413 1.1875 1.0938 0.286 0.24709 0.45693 0.4588 0.53125 0.625s0.09375 0.30276-0.03125 0.6875a0.90583 0.90583 0 0 0 0 0.03125c-0.31729 1.0918-0.71382 1.3114-1.125 1.375-0.41118 0.06363-1.0217-0.15623-1.5-0.59375-0.47833-0.43752-0.76917-1.0311-0.75-1.4688 0.01917-0.43761 0.19881-0.8564 1.2188-1.2812a0.90583 0.90583 0 0 0 0.28125 -0.1875c0.09005-0.08243 0.1097-0.19271 0.1875-0.28125zm12.25 0c0.39574 0.43642 0.83522 0.79004 1.1562 1.0625 0.30195 0.25627 0.51351 0.45363 0.59375 0.625s0.09739 0.32374-0.03125 0.71875a0.90583 0.90583 0 0 0 0 0.03125c-0.31729 1.0918-0.71382 1.3114-1.125 1.375-0.41118 0.06363-1.0217-0.15623-1.5-0.59375-0.47833-0.43752-0.76917-1.0311-0.75-1.4688 0.01917-0.43761 0.19881-0.8564 1.2188-1.2812a0.90583 0.90583 0 0 0 0.28125 -0.1875c0.08798-0.08054 0.08078-0.1955 0.15625-0.28125z"/>
  <path id="path2961" style="opacity:.3;fill:url(#linearGradient3779)" d="m12 7c-3.878 0-7 3.122-7 7v71c0 3.878 3.122 7 7 7h72c3.878 0 7-3.122 7-7v-71c0-3.878-3.122-7-7-7h-3.25v3.5312c1.5053 0.74942 2.5625 2.284 2.5625 4.0625 0 2.5136-2.0506 4.5625-4.5938 4.5625-2.5431 0-4.625-2.0489-4.625-4.5625 0-1.7785 1.0572-3.3131 2.5625-4.0625v-3.5312h-8.1875v3.5312c1.5053 0.74942 2.5625 2.284 2.5625 4.0625 0 2.5136-2.0506 4.5625-4.5938 4.5625-2.5431 0-4.625-2.0489-4.625-4.5625 0-1.7785 1.0572-3.3131 2.5625-4.0625v-3.5312h-8.1875v3.5312c1.5053 0.74942 2.5625 2.284 2.5625 4.0625 0 2.5136-2.0506 4.5625-4.5938 4.5625-2.5431 0-4.625-2.0489-4.625-4.5625 0-1.7785 1.0572-3.3131 2.5625-4.0625v-3.5312h-8.1875v3.5312c1.5053 0.74942 2.5625 2.284 2.5625 4.0625 0 2.5136-2.0819 4.5625-4.625 4.5625s-4.5938-2.0489-4.5938-4.5625c0-1.7785 1.0572-3.3131 2.5625-4.0625v-3.5312h-8.1875v3.5312c1.5053 0.74942 2.5625 2.284 2.5625 4.0625 0 2.5136-2.0819 4.5625-4.625 4.5625s-4.5938-2.0489-4.5938-4.5625c0-1.7785 1.0572-3.3131 2.5625-4.0625v-3.5312h-8.1875v3.5312c1.5053 0.74942 2.5625 2.284 2.5625 4.0625 0 2.5136-2.0819 4.5625-4.625 4.5625s-4.5938-2.0489-4.5938-4.5625c0-1.7785 1.0572-3.3131 2.5625-4.0625l0.004-3.531h-3.25z"/>
  <path id="path3781" style="opacity:.45;fill:url(#linearGradient3786)" d="m12 7c-3.324 0-6 2.676-6 6v72c0 3.324 2.676 6 6 6h72c3.324 0 6-2.676 6-6v-72c0-3.324-2.676-6-6-6h-4v3.5c1.4703 0.7406 2.5 2.2424 2.5 4 0 2.484-2.016 4.5-4.5 4.5s-4.5-2.016-4.5-4.5c0-1.7576 1.0297-3.2594 2.5-4v-3.5h-8v3.5c1.4703 0.7406 2.5 2.2424 2.5 4 0 2.484-2.016 4.5-4.5 4.5s-4.5-2.016-4.5-4.5c0-1.7576 1.0297-3.2594 2.5-4v-3.5h-8v3.5c1.4703 0.7406 2.5 2.2424 2.5 4 0 2.484-2.016 4.5-4.5 4.5s-4.5-2.016-4.5-4.5c0-1.7576 1.0297-3.2594 2.5-4v-3.5h-8v3.5c1.4703 0.7406 2.5 2.2424 2.5 4 0 2.484-2.016 4.5-4.5 4.5s-4.5-2.016-4.5-4.5c0-1.7576 1.0297-3.2594 2.5-4v-3.5h-8v3.5c1.4703 0.7406 2.5 2.2424 2.5 4 0 2.484-2.016 4.5-4.5 4.5s-4.5-2.016-4.5-4.5c0-1.7576 1.0297-3.2594 2.5-4v-3.5h-8v3.5c1.4703 0.7406 2.5 2.2424 2.5 4 0 2.484-2.016 4.5-4.5 4.5s-4.5-2.016-4.5-4.5c0-1.7576 1.0297-3.2594 2.5-4v-3.5h-4z"/>
  <path id="path3792" style="opacity:.15;fill:url(#linearGradient3779)" d="m12 6.0312c-4.3908 0-7.9688 3.578-7.9688 7.9688v71c0 4.3908 3.5779 7.9688 7.9688 7.9688h72c4.3908 0 7.9688-3.5779 7.9688-7.9688v-71c0-4.3908-3.578-7.9688-7.969-7.9688h-3.25a0.95563 0.95563 0 0 0 -0.969 0.9688v3.5312a0.95563 0.95563 0 0 0 0.531 0.844c1.1992 0.59704 2.0312 1.8189 2.0312 3.2188 0 1.9939-1.5951 3.5938-3.625 3.5938s-3.6562-1.6078-3.6562-3.5938c0-1.3999 0.83203-2.6217 2.0312-3.2188a0.95563 0.95563 0 0 0 0.532 -0.844v-3.531a0.95563 0.95563 0 0 0 -0.969 -0.9688h-8.1875a0.95563 0.95563 0 0 0 -0.968 0.9688v3.5312a0.95563 0.95563 0 0 0 0.53125 0.84375c1.1992 0.59704 2.0312 1.8189 2.0312 3.2188 0 1.9939-1.5951 3.5938-3.625 3.5938s-3.6562-1.6078-3.6562-3.5938c0-1.3999 0.83203-2.6217 2.0312-3.2188a0.95563 0.95563 0 0 0 0.53125 -0.84375l0.001-3.531a0.95563 0.95563 0 0 0 -0.969 -0.9688h-8.1875a0.95563 0.95563 0 0 0 -0.969 0.9688v3.5312a0.95563 0.95563 0 0 0 0.531 0.844c1.1992 0.59704 2.0312 1.8189 2.0312 3.2188 0 1.9939-1.5951 3.5938-3.625 3.5938s-3.6562-1.6078-3.6562-3.5938c0-1.3999 0.83203-2.6217 2.0312-3.2188a0.95563 0.95563 0 0 0 0.531 -0.844v-3.531a0.95563 0.95563 0 0 0 -0.968 -0.9688h-8.1875a0.95563 0.95563 0 0 0 -0.968 0.9688v3.5312a0.95563 0.95563 0 0 0 0.53125 0.84375c1.1992 0.59704 2.0312 1.8189 2.0312 3.2188 0 1.986-1.6263 3.5938-3.6562 3.5938s-3.625-1.5999-3.625-3.5938c0-1.3999 0.83203-2.6217 2.0312-3.2188a0.95563 0.95563 0 0 0 0.53125 -0.84375v-3.531a0.95563 0.95563 0 0 0 -0.969 -0.9688h-8.1875a0.95563 0.95563 0 0 0 -0.968 0.9688v3.5312a0.95563 0.95563 0 0 0 0.532 0.844c1.1992 0.59704 2.0312 1.8189 2.0312 3.2188 0 1.986-1.6263 3.5938-3.6562 3.5938s-3.625-1.5999-3.625-3.5938c0-1.3999 0.83203-2.6217 2.0312-3.2188a0.95563 0.95563 0 0 0 0.531 -0.844v-3.531a0.95563 0.95563 0 0 0 -0.969 -0.9688h-8.1875a0.95563 0.95563 0 0 0 -0.969 0.9688v3.5312a0.95563 0.95563 0 0 0 0.53125 0.84375c1.1992 0.59704 2.0312 1.8189 2.0312 3.2188 0 1.986-1.6263 3.5938-3.6562 3.5938s-3.625-1.5999-3.625-3.5938c0-1.3999 0.83203-2.6217 2.0312-3.2188a0.95563 0.95563 0 0 0 0.53125 -0.84375l0.001-3.531a0.95563 0.95563 0 0 0 -0.969 -0.9688h-3.25z"/>
  <path id="path3800" style="opacity:.1;fill:url(#linearGradient3779)" d="m12 5c-5.4829-0.1628-9.7257 5.247-9 10.519 0.0311 23.465-0.0622 46.934 0.0468 70.397 0.3902 5.262 5.7137 8.762 10.725 8.084 23.714-0.031 47.432 0.062 71.144-0.047 5.262-0.39 8.762-5.714 8.084-10.725-0.031-23.381 0.062-46.765-0.047-70.144-0.39-5.2619-5.714-8.762-10.725-8.084-1.534-0.3127-3.676 0.3364-3.478 2.2531 0.22412 1.6435-0.70048 4.0832 1.125 5.0281 5.1786 3.4016-4.6214 7.7713-3.6775 1.5959 0.48842-1.4964 2.8828-1.914 2.4587-3.8522-0.12198-1.7119 0.64957-4.4212-1.625-4.9937-3.0908 0.035211-6.2559-0.22404-9.3125 0.125-2.0708 1.0704-1.0057 3.8042-1.2188 5.6562 0.30778 1.8073 3.218 2.0449 2.4811 4.3078-1.5244 5.2453-8.3381-0.99555-3.3873-3.0578 1.4663-1.3422 0.53172-3.6817 0.75-5.4375-0.684-2.4454-3.664-1.4115-5.513-1.6249-1.984 0.2718-4.323-0.6158-6.05 0.5938-1.116 1.5002-0.44 3.6014-0.531 5.3442 0.41451 1.6962 3.1665 1.9768 2.4498 4.1828-1.525 5.245-8.338-0.996-3.388-3.059 1.467-1.342 0.532-3.6812 0.75-5.437-0.684-2.4455-3.663-1.4116-5.512-1.625-1.984 0.2718-4.323-0.6158-6.05 0.5938-1.1159 1.5002-0.44067 3.6014-0.53125 5.3438 0.4123 1.6952 3.1652 1.9739 2.4484 4.1768-1.561 5.254-8.327-0.98-3.386-3.052 1.467-1.342 0.532-3.6812 0.75-5.437-0.684-2.4455-3.663-1.4116-5.513-1.625-1.983 0.2718-4.322-0.6158-6.049 0.5938-1.116 1.5002-0.441 3.6014-0.531 5.3442 0.4123 1.6952 3.1652 1.9739 2.4484 4.1768-1.561 5.253-8.328-0.981-3.386-3.053 1.466-1.342 0.532-3.6812 0.75-5.437-0.684-2.4455-3.663-1.4116-5.513-1.625-1.983 0.2718-4.322-0.6158-6.049 0.5938-1.1159 1.5002-0.44067 3.6014-0.53125 5.3438 0.4123 1.6952 3.1652 1.9739 2.4484 4.1768-1.561 5.254-8.328-0.98-3.386-3.052 1.466-1.342 0.531-3.6812 0.75-5.437-0.602-2.4121-3.459-1.4154-5.219-1.625z"/>
 </g>
 <g id="layer1">
  <path id="rect2419" style="fill:url(#linearGradient3646)" d="m12 6c-3.324 0-6 2.676-6 6v72c0 3.324 2.676 6 6 6h72c3.324 0 6-2.676 6-6v-72c0-3.324-2.676-6-6-6h-4v3.5c1.4703 0.7406 2.5 2.2424 2.5 4 0 2.484-2.016 4.5-4.5 4.5s-4.5-2.016-4.5-4.5c0-1.7576 1.0297-3.2594 2.5-4v-3.5h-8v3.5c1.4703 0.7406 2.5 2.2424 2.5 4 0 2.484-2.016 4.5-4.5 4.5s-4.5-2.016-4.5-4.5c0-1.7576 1.0297-3.2594 2.5-4v-3.5h-8v3.5c1.4703 0.7406 2.5 2.2424 2.5 4 0 2.484-2.016 4.5-4.5 4.5s-4.5-2.016-4.5-4.5c0-1.7576 1.0297-3.2594 2.5-4v-3.5h-8v3.5c1.4703 0.7406 2.5 2.2424 2.5 4 0 2.484-2.016 4.5-4.5 4.5s-4.5-2.016-4.5-4.5c0-1.7576 1.0297-3.2594 2.5-4v-3.5h-8v3.5c1.4703 0.7406 2.5 2.2424 2.5 4 0 2.484-2.016 4.5-4.5 4.5s-4.5-2.016-4.5-4.5c0-1.7576 1.0297-3.2594 2.5-4v-3.5h-8v3.5c1.4703 0.7406 2.5 2.2424 2.5 4 0 2.484-2.016 4.5-4.5 4.5s-4.5-2.016-4.5-4.5c0-1.7576 1.0297-3.2594 2.5-4v-3.5h-4z"/>
  <path id="rect3728" style="opacity:.5;fill:url(#linearGradient3188)" d="m12 6c-3.324 0-6 2.676-6 6v2 68 2c0 0.33472 0.04135 0.6507 0.09375 0.96875 0.0487 0.2956 0.09704 0.59692 0.1875 0.875 0.00988 0.03038 0.020892 0.0636 0.03125 0.09375 0.098865 0.28777 0.23488 0.54745 0.375 0.8125 0.14459 0.27351 0.31562 0.53562 0.5 0.78125 0.18438 0.24564 0.37378 0.47347 0.59375 0.6875 0.43995 0.42806 0.94291 0.81453 1.5 1.0938 0.27854 0.13961 0.57347 0.24695 0.875 0.34375-0.2562-0.10022-0.48671-0.23627-0.71875-0.375-0.00741-0.0044-0.023866 0.0045-0.03125 0-0.031933-0.0193-0.062293-0.04251-0.09375-0.0625-0.1204-0.0767-0.23102-0.16351-0.34375-0.25-0.10617-0.0808-0.21328-0.16111-0.3125-0.25-0.1778-0.162-0.3473-0.346-0.4999-0.531-0.1075-0.131-0.2183-0.266-0.3124-0.407-0.0251-0.038-0.0385-0.086-0.0626-0.125-0.0647-0.103-0.1302-0.204-0.1874-0.312-0.1011-0.195-0.2057-0.416-0.2813-0.625-0.008-0.022-0.0236-0.041-0.0313-0.063-0.0318-0.092-0.0358-0.187-0.0624-0.281-0.0304-0.107-0.0704-0.203-0.0938-0.313-0.0729-0.341-0.125-0.698-0.125-1.062v-2-68-2c0-2.782 2.2182-5 5-5h2 2v-2h-4zm8 0v2h8v-2h-8zm12 0v2h8v-2h-8zm12 0v2h8v-2h-8zm12 0v2h8v-2h-8zm12 0v2h8v-2h-8zm12 0v2h2 2c2.7818 0 5 2.2182 5 5v2 68 2c0 0.3643-0.05212 0.72099-0.125 1.0625-0.04415 0.20689-0.08838 0.39766-0.15625 0.59375-0.0077 0.02195-0.0233 0.04069-0.03125 0.0625-0.06274 0.17374-0.13838 0.36745-0.21875 0.53125-0.04158 0.0828-0.07904 0.16995-0.125 0.25-0.0546 0.09721-0.12677 0.18835-0.1875 0.28125-0.09411 0.14096-0.20492 0.276-0.3125 0.40625-0.14317 0.17445-0.30314 0.347-0.46875 0.5-0.01117 0.0102-0.01998 0.02115-0.03125 0.03125-0.13839 0.12556-0.28509 0.23444-0.4375 0.34375-0.10257 0.07315-0.20432 0.15336-0.3125 0.21875-0.0074 0.0045-0.02384-0.0044-0.03125 0-0.23204 0.13873-0.46255 0.27478-0.71875 0.375 0.30153-0.0968 0.59646-0.20414 0.875-0.34375 0.55709-0.27922 1.0601-0.66569 1.5-1.0938 0.21997-0.21403 0.40937-0.44186 0.59375-0.6875s0.35541-0.50774 0.5-0.78125c0.14012-0.26505 0.27614-0.52473 0.375-0.8125 0.01041-0.03078 0.02133-0.06274 0.03125-0.09375 0.09046-0.27808 0.1388-0.5794 0.1875-0.875 0.053-0.318 0.094-0.634 0.094-0.969v-2-68-2c0-3.324-2.676-6-6-6h-4z"/>
  <path id="path3615" style="opacity:.6;fill:url(#radialGradient2855)" d="m12 90c-3.324 0-6-2.676-6-6v-2-68-2c0-0.33472 0.04135-0.6507 0.09375-0.96875 0.0487-0.2956 0.09704-0.59692 0.1875-0.875 0.0099-0.03 0.0209-0.063 0.0313-0.094 0.0989-0.2873 0.2349-0.547 0.375-0.812 0.1446-0.2735 0.3156-0.5356 0.5-0.7812 0.1844-0.2457 0.3738-0.4735 0.5937-0.6876 0.44-0.428 0.943-0.8145 1.5-1.0937 0.2786-0.1396 0.5735-0.2469 0.8748-0.3437-0.256 0.1002-0.4865 0.2362-0.7185 0.375-0.00741 0.0044-0.023866-0.0045-0.03125 0-0.031933 0.0193-0.062293 0.04251-0.09375 0.0625-0.1204 0.0767-0.23102 0.16351-0.34375 0.25-0.10617 0.0808-0.21328 0.16111-0.3125 0.25-0.1779 0.1614-0.3474 0.3453-0.5 0.5312-0.1075 0.1303-0.2183 0.2653-0.3124 0.4063-0.0251 0.0383-0.0385 0.0858-0.0626 0.125-0.0647 0.103-0.1302 0.2045-0.1874 0.3124-0.1011 0.1948-0.2057 0.4158-0.2813 0.625-0.008 0.0219-0.0236 0.0406-0.0313 0.0626-0.0318 0.0919-0.0358 0.1868-0.0624 0.2812-0.0304 0.1066-0.0704 0.203-0.0938 0.3125-0.0729 0.3415-0.125 0.6985-0.125 1.0625v2 68 2c0 2.7818 2.2182 5 5 5h2 68 2c2.7818 0 5-2.2182 5-5v-2-68-2c0-0.364-0.052-0.721-0.125-1.0625-0.044-0.2069-0.088-0.3977-0.156-0.5937-0.008-0.022-0.024-0.0407-0.031-0.0626-0.063-0.1737-0.139-0.3674-0.219-0.5312-0.042-0.0828-0.079-0.17-0.125-0.25-0.055-0.0972-0.127-0.1884-0.188-0.2812-0.094-0.141-0.205-0.276-0.312-0.4063-0.143-0.1745-0.303-0.347-0.469-0.5-0.011-0.0102-0.02-0.0211-0.031-0.0313-0.139-0.1255-0.285-0.2344-0.438-0.3437-0.102-0.0731-0.204-0.1534-0.312-0.2187-0.0074-0.0045-0.02384 0.0044-0.03125 0-0.23204-0.13873-0.46255-0.27478-0.71875-0.375 0.30153 0.0968 0.59646 0.20414 0.875 0.34375 0.55709 0.27922 1.0601 0.66569 1.5 1.0938 0.21997 0.21403 0.40937 0.44186 0.59375 0.6875s0.35541 0.50774 0.5 0.78125c0.14012 0.26505 0.27614 0.52473 0.375 0.8125 0.01041 0.03078 0.02133 0.06274 0.03125 0.09375 0.09046 0.27808 0.1388 0.5794 0.1875 0.875 0.053 0.318 0.094 0.634 0.094 0.969v2 68 2c0 3.324-2.676 6-6 6h-72z"/>
  <path id="text1485-8" style="opacity:.9;fill:url(#linearGradient4167)" d="m52.966 46.384c0.1787 0.20186 0.65308 0.65003 1.4232 1.3445 10.81 10.765 16.006 16.793 15.587 18.083-0.30052 0.94893-1.1668 1.7536-2.5987 2.414-1.4296 0.62196-2.7175 0.90398-3.8638 0.84608-0.90756-0.04583-5.2167-4.5826-12.927-13.61-1.5559-1.891-2.4697-2.9591-2.7414-3.2043-1.1297 1.177-2.8185 3.5984-5.0662 7.264-2.1975 3.6297-3.7236 6.5027-4.5781 8.6191 1.4945-0.8886 2.7195-1.3088 3.6748-1.2605 0.47761 0.02413 0.79469 0.31009 0.95125 0.85788 0.20673 0.51178 0.21874 1.0716 0.03603 1.6793-0.17045 0.4156-1.3233 1.2058-3.4584 2.3705-1.5374 0.80932-2.5083 1.3773-2.9125 1.704-1.2508 0.82379-2.1154 1.9756-2.5936 3.4554-0.66598 2.1645-2.3602 3.178-5.0827 3.0405-1.4329-0.07237-2.3133-0.54103-2.6412-1.406-0.32787-0.86496-0.19379-2.2079 0.40222-4.0289 1.1442-3.6443 6.6471-12.487 16.509-26.527-0.05609-0.61982-1.4691-2.87-4.239-6.7506-2.7699-3.8805-4.969-6.5753-6.5973-8.0845-1.7642-1.6316-2.4985-2.8834-2.2029-3.7555 0.66595-2.1644 2.7662-3.1574 6.3007-2.979 1.7195 0.0869 4.7841 3.481 9.194 10.182 1.8837 2.7561 3.1175 4.438 3.7014 5.046 1.0169-0.91269 2.4665-2.5941 4.3488-5.0443 1.8847-2.4885 3.188-4.5051 3.9101-6.0498 0.71459-1.4293 1.8418-2.5678 3.3817-3.4156 1.5398-0.84771 3.0023-1.2366 4.3875-1.1667 2.1493 0.10859 2.9272 1.0541 2.3337 2.8366-0.66601 2.1645-4.5413 6.9242-11.626 14.279-1.8478 1.912-2.8519 2.9989-3.0124 3.2607"/>
 </g>
 <g id="layer3">
  <path id="path3902" style="opacity:.25;fill:url(#linearGradient3007)" d="m100.25 29.75s-0.24013 0.14795-0.2466 0.15203c-1.9141-0.29277-7.1955 0.91161-21.816 10.52-0.01299-0.01637-0.10607-0.11832-0.10607-0.11832l-0.57743 0.39214c0.06463 0.07623 0.12254 0.15214 0.18611 0.22859-9.7526 6.0787-20.272 13.297-21.112 13.874-0.000561-0.0011-0.01797-0.03404-0.01795-0.03407l-0.0099-0.06012-0.04208 0.04405c-0.000504-0.0013-0.01795-0.03408-0.01795-0.03408l-0.7639 0.53422c0.0057 0.01107 0.01225 0.023 0.01795 0.03407l-0.03403 0.01801 0.01795 0.03408c0.000029 0.000055 0.0337 0.06347 0.03601 0.06816-9.1302 7.1584-14.957 12.691-14.846 13.442 0.14916 1.01 17.551-8.0295 18.283-8.5014 0.02452 0.02613 0.15004 0.16033 0.15011 0.16044l0.026 0.008 0.8401-0.59625-0.01796-0.03407c-0.00012-0.000112-0.0566-0.07086-0.06199-0.07618 1.753-1.0129 11.335-6.5877 21.48-13.219 0.12222 0.21449 0.23399 0.44303 0.23399 0.44303l0.57743-0.39214c-0.01577-0.032-0.03746-0.06962-0.05395-0.10223 0.75304-0.44455 16.638-9.8447 18.862-14.255 0.20235-0.11206 0.28623-0.16781 0.48515-0.27802 0 0 0.17913-1.5841-1.4724-2.2515z"/>
  <g id="g3861" transform="matrix(.77031 .12230 -.12230 .77031 140.21 -59.201)">
   <g id="g4820" transform="matrix(.21052 0 0 .21052 -139.34 79.703)">
    <path id="path4824" style="fill:#4d4d4d" d="m279.48 404.24c-0.007-0.004-7.446-4.112-16.804-11.401-8.082-6.285-13.538-12.214-13.544-12.22l-0.122-0.133 3.646-4.669 0.157-0.205 0.169 0.197c0.017 0.01 5.4 6.295 13.725 12.78 7.913 6.157 16.594 10.586 16.612 10.595l0.229 0.117-3.911 5.026-0.157-0.087zm-16.542-11.737c8.545 6.656 15.469 10.644 16.589 11.275l3.372-4.334c-1.423-0.743-9.253-4.919-16.453-10.521-7.504-5.845-12.637-11.533-13.614-12.645l-3.264 4.184c0.849 0.905 6.01 6.32 13.37 12.041z"/>
   </g>
   <path id="path3254" style="fill-rule:evenodd;stroke:#07213e;stroke-width:.64106;fill:url(#radialGradient3890)" d="m-80.52 164.42s11.205-12.022 22.174-25.259l0.47909 0.14793s22.747-24.929 17.183-26.947c0 0-2.782-5.5094-24.601 21.001l-0.04196 0.39783c-10.067 11.61-21.253 25.766-21.253 25.766-8.64 12.42-13.77 21.6-13.346 22.487 0.57673 1.2059 19.44-17.473 19.407-17.594z"/>
   <path id="path2430" style="fill:url(#radialGradient3892);fill-rule:evenodd" d="m-86.948 159.76c2.4493 2.5072 6.4415 5.0529 6.4415 5.0529l0.79072-1.0029c-2.709-1.4158-6.48-5.0143-6.48-5.0143l-0.75215 0.96428z"/>
   <path id="path3236" style="fill:url(#radialGradient3894);fill-rule:evenodd" d="m-65.762 133.69c4.32 2.7579 7.7143 6.0943 7.7143 6.0943l0.57857-0.675c-2.304-2.4379-7.7233-6.1263-7.7233-6.1263l-0.56961 0.70696z"/>
   <path id="path3240" style="fill:url(#radialGradient3896);fill-rule:evenodd" d="m-42.031 111.66c2.2757 0.19285 2.6614 2.1986 2.6614 2.1986-10.376 10.8-25.573 26.499-25.573 26.499l-0.77143-0.65572c13.384-16.046 23.683-28.042 23.683-28.042"/>
  </g>
  <path id="path3944" style="opacity:.4;fill:url(#linearGradient3946)" d="m109.96 52.358s-0.2761 0.05757-0.28358 0.05921c-1.7008-0.9257-7.0772-1.5874-24.092 2.4817-0.0067-0.0198-0.05957-0.14732-0.05957-0.14732l-0.67631 0.17263c0.03489 0.09365 0.06356 0.18473 0.09737 0.27823-11.238 2.4035-23.584 5.6188-24.57 5.876-0.000132-0.0012-0.0053-0.03811-0.0053-0.03814l0.0111-0.0599-0.05454 0.02713c-0.000017-0.0014-0.0053-0.03813-0.0053-0.03813l-0.89996 0.24289c0.0016 0.01234 0.0038 0.0258 0.0053 0.03814l-0.03814 0.0054 0.0053 0.03814c0.000008 0.000062 0.01014 0.07114 0.0107 0.07634-11.019 3.6305-18.379 6.8541-18.53 7.598-0.20288 1.0006 19.235-1.5886 20.084-1.7837 0.01418 0.0329 0.08664 0.20177 0.08667 0.2019l0.02172 0.0164 0.99271-0.27535-0.0053-0.03814c-0.000073-0.000147-0.02917-0.08588-0.03242-0.09271 1.9929-0.35707 12.899-2.3447 24.693-5.1344 0.04208 0.24326 0.06954 0.49617 0.06954 0.49617l0.67631-0.17262c-0.004-0.03545-0.01157-0.07822-0.01601-0.11448 0.8593-0.16228 18.993-3.6062 22.583-6.9986 0.2284-0.03664 0.32621-0.06058 0.55076-0.09665 0 0 0.70669-1.429-0.61989-2.6178z"/>
 </g>
</svg>
