<?xml version="1.0" encoding="UTF-8" standalone="no"?>
<!-- Created with Inkscape (http://www.inkscape.org/) -->
<svg id="svg2408" xmlns:rdf="http://www.w3.org/1999/02/22-rdf-syntax-ns#" xmlns="http://www.w3.org/2000/svg" height="96" width="96" version="1.0" xmlns:cc="http://creativecommons.org/ns#" xmlns:xlink="http://www.w3.org/1999/xlink" xmlns:dc="http://purl.org/dc/elements/1.1/">
 <defs id="defs2410">
  <linearGradient id="ButtonShadow" y2="7.0165" gradientUnits="userSpaceOnUse" x2="45.448" gradientTransform="scale(1.0059 .99417)" y1="92.54" x1="45.448">
   <stop id="stop3750" offset="0"/>
   <stop id="stop3752" style="stop-opacity:.58824" offset="1"/>
  </linearGradient>
  <linearGradient id="linearGradient3737">
   <stop id="stop3739" style="stop-color:#fff" offset="0"/>
   <stop id="stop3741" style="stop-color:#fff;stop-opacity:0" offset="1"/>
  </linearGradient>
  <filter id="filter3174" color-interpolation-filters="sRGB">
   <feGaussianBlur id="feGaussianBlur3176" stdDeviation="1.71"/>
  </filter>
  <linearGradient id="linearGradient3188" y2="63.893" xlink:href="#linearGradient3737" gradientUnits="userSpaceOnUse" x2="36.357" y1="6" x1="36.357"/>
  <filter id="filter3794" height="1.384" width="1.384" color-interpolation-filters="sRGB" y="-.192" x="-.192">
   <feGaussianBlur id="feGaussianBlur3796" stdDeviation="5.28"/>
  </filter>
  <linearGradient id="linearGradient3613" y2="138.66" xlink:href="#linearGradient3737" gradientUnits="userSpaceOnUse" x2="48" y1="20.221" x1="48"/>
  <radialGradient id="radialGradient3619" xlink:href="#linearGradient3737" gradientUnits="userSpaceOnUse" cy="90.172" cx="48" gradientTransform="matrix(1.1573 0 0 .99591 -7.551 .19713)" r="42"/>
  <clipPath id="clipPath3613">
   <rect id="rect3615" style="fill:#fff" rx="6" ry="6" height="84" width="84" y="6" x="6"/>
  </clipPath>
  <linearGradient id="linearGradient3617" y2="5.9877" gradientUnits="userSpaceOnUse" x2="48" y1="90" x1="48">
   <stop id="stop4919" style="stop-color:#2684a3" offset="0"/>
   <stop id="stop4921" style="stop-color:#46b0d4" offset="1"/>
  </linearGradient>
  <linearGradient id="ButtonShadow-0" y2="7.0165" gradientUnits="userSpaceOnUse" x2="45.448" gradientTransform="matrix(1.0059 0 0 .99417 100 0)" y1="92.54" x1="45.448">
   <stop id="stop3750-8" offset="0"/>
   <stop id="stop3752-5" style="stop-opacity:.58824" offset="1"/>
  </linearGradient>
  <linearGradient id="linearGradient3780" y2="90.239" xlink:href="#ButtonShadow-0" gradientUnits="userSpaceOnUse" x2="32.251" gradientTransform="matrix(1.0238 0 0 1.0119 -1.1429 -98.071)" y1="6.1317" x1="32.251"/>
  <linearGradient id="linearGradient3721" y2="90.239" xlink:href="#ButtonShadow-0" gradientUnits="userSpaceOnUse" x2="32.251" gradientTransform="translate(0,-97)" y1="6.1317" x1="32.251"/>
  <linearGradient id="linearGradient4939" y2="15.502" gradientUnits="userSpaceOnUse" x2="48" y1="80" x1="48">
   <stop id="stop4935" style="stop-color:#ebebeb" offset="0"/>
   <stop id="stop4937" style="stop-color:#fafafa" offset="1"/>
  </linearGradient>
 </defs>
 <metadata id="metadata2413">
  <rdf:RDF>
   <cc:Work rdf:about="">
    <dc:format>image/svg+xml</dc:format>
    <dc:type rdf:resource="http://purl.org/dc/dcmitype/StillImage"/>
    <dc:title/>
   </cc:Work>
  </rdf:RDF>
 </metadata>
 <g id="layer2" style="display:none">
  <rect id="rect3745" style="opacity:.9;filter:url(#filter3174);fill:url(#ButtonShadow)" rx="6" ry="6" height="85" width="86" y="7" x="5"/>
 </g>
 <g id="layer3">
  <path id="path3786" style="opacity:0.08;fill:url(#linearGradient3780)" d="m12-95.031c-5.5111 0-10.031 4.5202-10.031 10.031v71c0 5.5111 4.5202 10.031 10.031 10.031h72c5.5111 0 10.031-4.5202 10.031-10.031v-71c0-5.5111-4.5202-10.031-10.031-10.031h-72z" transform="scale(1,-1)"/>
  <path id="path3778" style="opacity:.1;fill:url(#linearGradient3780)" d="m12-94.031c-4.9716 0-9.0312 4.0596-9.0312 9.0312v71c0 4.9716 4.0596 9.0312 9.0312 9.0312h72c4.9716 0 9.0312-4.0596 9.0312-9.0312v-71c0-4.9716-4.0596-9.0312-9.0312-9.0312h-72z" transform="scale(1,-1)"/>
  <path id="path3770" style="opacity:.2;fill:url(#linearGradient3780)" d="m12-93c-4.4091 0-8 3.5909-8 8v71c0 4.4091 3.5909 8 8 8h72c4.4091 0 8-3.5909 8-8v-71c0-4.4091-3.5909-8-8-8h-72z" transform="scale(1,-1)"/>
  <rect id="rect3723" style="opacity:.3;fill:url(#linearGradient3780)" transform="scale(1,-1)" rx="7" ry="7" height="85" width="86" y="-92" x="5"/>
  <rect id="rect3716" style="opacity:.45;fill:url(#linearGradient3721)" transform="scale(1,-1)" rx="6" ry="6" height="84" width="84" y="-91" x="6"/>
 </g>
 <g id="layer1">
  <rect id="rect2419" style="fill:url(#linearGradient3617)" rx="6" ry="6" height="84" width="84" y="6" x="6"/>
  <path id="rect3728" style="opacity:.5;fill:url(#linearGradient3188)" d="m12 6c-3.324 0-6 2.676-6 6v2 68 2c0 0.33472 0.04135 0.6507 0.09375 0.96875 0.0487 0.2956 0.09704 0.59692 0.1875 0.875 0.00988 0.03038 0.020892 0.0636 0.03125 0.09375 0.098865 0.28777 0.23488 0.54745 0.375 0.8125 0.14459 0.27351 0.31562 0.53562 0.5 0.78125 0.18438 0.24564 0.37378 0.47347 0.59375 0.6875 0.43995 0.42806 0.94291 0.81453 1.5 1.0938 0.27854 0.13961 0.57347 0.24695 0.875 0.34375-0.2562-0.10022-0.48671-0.23627-0.71875-0.375-0.00741-0.0044-0.023866 0.0045-0.03125 0-0.031933-0.0193-0.062293-0.04251-0.09375-0.0625-0.1204-0.0767-0.23102-0.16351-0.34375-0.25-0.10617-0.0808-0.21328-0.16111-0.3125-0.25-0.1778-0.162-0.3473-0.346-0.4999-0.531-0.1075-0.131-0.2183-0.266-0.3124-0.407-0.0251-0.038-0.0385-0.086-0.0626-0.125-0.0647-0.103-0.1302-0.204-0.1874-0.312-0.1011-0.195-0.2057-0.416-0.2813-0.625-0.008-0.022-0.0236-0.041-0.0313-0.063-0.0318-0.092-0.0358-0.187-0.0624-0.281-0.0304-0.107-0.0704-0.203-0.0938-0.313-0.0729-0.341-0.125-0.698-0.125-1.062v-2-68-2c0-2.782 2.2182-5 5-5h2 68 2c2.7818 0 5 2.2182 5 5v2 68 2c0 0.3643-0.05212 0.72099-0.125 1.0625-0.04415 0.20689-0.08838 0.39766-0.15625 0.59375-0.0077 0.02195-0.0233 0.04069-0.03125 0.0625-0.06274 0.17374-0.13838 0.36745-0.21875 0.53125-0.04158 0.0828-0.07904 0.16995-0.125 0.25-0.0546 0.09721-0.12677 0.18835-0.1875 0.28125-0.09411 0.14096-0.20492 0.276-0.3125 0.40625-0.14317 0.17445-0.30314 0.347-0.46875 0.5-0.01117 0.0102-0.01998 0.02115-0.03125 0.03125-0.13839 0.12556-0.28509 0.23444-0.4375 0.34375-0.10257 0.07315-0.20432 0.15336-0.3125 0.21875-0.0074 0.0045-0.02384-0.0044-0.03125 0-0.23204 0.13873-0.46255 0.27478-0.71875 0.375 0.30153-0.0968 0.59646-0.20414 0.875-0.34375 0.55709-0.27922 1.0601-0.66569 1.5-1.0938 0.21997-0.21403 0.40937-0.44186 0.59375-0.6875s0.35541-0.50774 0.5-0.78125c0.14012-0.26505 0.27614-0.52473 0.375-0.8125 0.01041-0.03078 0.02133-0.06274 0.03125-0.09375 0.09046-0.27808 0.1388-0.5794 0.1875-0.875 0.053-0.318 0.094-0.634 0.094-0.969v-2-68-2c0-3.324-2.676-6-6-6h-72z"/>
  <path id="path3615" style="opacity:.2;fill:url(#radialGradient3619)" d="m12 90c-3.324 0-6-2.676-6-6v-2-68-2c0-0.33472 0.04135-0.6507 0.09375-0.96875 0.0487-0.2956 0.09704-0.59692 0.1875-0.875 0.0099-0.03 0.0209-0.063 0.0313-0.094 0.0989-0.2873 0.2349-0.547 0.375-0.812 0.1446-0.2735 0.3156-0.5356 0.5-0.7812 0.1844-0.2457 0.3738-0.4735 0.5937-0.6876 0.44-0.428 0.943-0.8145 1.5-1.0937 0.2786-0.1396 0.5735-0.2469 0.8748-0.3437-0.256 0.1002-0.4865 0.2362-0.7185 0.375-0.00741 0.0044-0.023866-0.0045-0.03125 0-0.031933 0.0193-0.062293 0.04251-0.09375 0.0625-0.1204 0.0767-0.23102 0.16351-0.34375 0.25-0.10617 0.0808-0.21328 0.16111-0.3125 0.25-0.1779 0.1614-0.3474 0.3453-0.5 0.5312-0.1075 0.1303-0.2183 0.2653-0.3124 0.4063-0.0251 0.0383-0.0385 0.0858-0.0626 0.125-0.0647 0.103-0.1302 0.2045-0.1874 0.3124-0.1011 0.1948-0.2057 0.4158-0.2813 0.625-0.008 0.0219-0.0236 0.0406-0.0313 0.0626-0.0318 0.0919-0.0358 0.1868-0.0624 0.2812-0.0304 0.1066-0.0704 0.203-0.0938 0.3125-0.0729 0.3415-0.125 0.6985-0.125 1.0625v2 68 2c0 2.7818 2.2182 5 5 5h2 68 2c2.7818 0 5-2.2182 5-5v-2-68-2c0-0.364-0.052-0.721-0.125-1.0625-0.044-0.2069-0.088-0.3977-0.156-0.5937-0.008-0.022-0.024-0.0407-0.031-0.0626-0.063-0.1737-0.139-0.3674-0.219-0.5312-0.042-0.0828-0.079-0.17-0.125-0.25-0.055-0.0972-0.127-0.1884-0.188-0.2812-0.094-0.141-0.205-0.276-0.312-0.4063-0.143-0.1745-0.303-0.347-0.469-0.5-0.011-0.0102-0.02-0.0211-0.031-0.0313-0.139-0.1255-0.285-0.2344-0.438-0.3437-0.102-0.0731-0.204-0.1534-0.312-0.2187-0.0074-0.0045-0.02384 0.0044-0.03125 0-0.23204-0.13873-0.46255-0.27478-0.71875-0.375 0.30153 0.0968 0.59646 0.20414 0.875 0.34375 0.55709 0.27922 1.0601 0.66569 1.5 1.0938 0.21997 0.21403 0.40937 0.44186 0.59375 0.6875s0.35541 0.50774 0.5 0.78125c0.14012 0.26505 0.27614 0.52473 0.375 0.8125 0.01041 0.03078 0.02133 0.06274 0.03125 0.09375 0.09046 0.27808 0.1388 0.5794 0.1875 0.875 0.053 0.318 0.094 0.634 0.094 0.969v2 68 2c0 3.324-2.676 6-6 6h-72z"/>
 </g>
 <g id="layer5">
  <rect id="rect3171" style="opacity:.1;filter:url(#filter3794);stroke:#fff;stroke-linecap:round;stroke-width:.5;fill:url(#linearGradient3613)" clip-path="url(#clipPath3613)" rx="12" ry="12" height="66" width="66" y="15" x="15"/>
 </g>
 <g id="layer4">
  <path id="path4973" style="opacity:.05" d="m47.5 12.938c-15.913 0-28.819 12.826-30.281 28.969-0.9682 1.1104-2.0901 2.252-3 3.8438-1.1023 1.9284-1.6706 4.3806-1.25 7.1875 0.45521 3.0375 2.2989 5.1775 4.3438 6.2812 1.1506 0.62106 2.2001 0.77502 3.2188 0.9375 1.8504 7.3704-0.06223 10.936-1.625 14.031-0.38089 0.75451-0.81714 1.5382-1.125 2.4688-0.3251 0.98266-0.52875 2.3284 0.0625 3.6875 0.59805 1.3748 1.7952 2.1834 2.9062 2.6875 1.1057 0.50165 2.3925 0.83329 4 1.1562 11.577 2.326 30.041 0.68856 44.75-17.062 5.1122-6.1693 7.5731-13.117 8.3438-20.656 0.6247-0.44707 1.4567-1.0277 2.5-2.2812 1.528-1.8358 3.0965-4.5804 2.8125-7.9375 0.0028 0.03286-0.0022-0.04186 0-0.03125h0.03125v-0.03125a1.0188 1.0188 0 0 0 -0.03125 -0.0625 1.0188 1.0188 0 0 0 0 -0.0625c0.000083 0.00071-0.00014-0.15695 0-0.15625 0.000058 0.00029-0.02358-0.03084-0.03125-0.0625-0.0043-0.02356-0.0268-0.03904-0.03125-0.0625-0.0019-0.0077-0.000034-0.03137 0-0.03125-0.58522-3.0313-2.4771-5.2388-4.7188-6.4688-1.7475-0.9588-3.6038-1.284-5.3438-1.5-5.397-8.807-14.733-14.846-25.531-14.846zm3.7188 11.969c8.4469 0 15.281 7.0011 15.281 15.906 0 5.0802-2.3186 9.4396-5.8125 12.344-0.12409-0.95249-0.28729-2.0836-0.5-3.2812-0.45113-2.54-0.98662-5.1282-1.125-5.8125-0.000022-0.000128 0.1253 0.50724 0-0.0625 0.0022 0.0099-0.06233-0.18685-0.0625-0.1875-0.000207-0.000774-0.06222-0.2805-0.0625-0.28125-0.000275-0.000753-0.12466-0.24928-0.125-0.25-0.000085-0.000181-0.05357-0.11012-0.0625-0.125-0.0089-0.01488-0.01954-0.01175-0.03125-0.03125-0.02341-0.039-0.03105-0.06215-0.03125-0.0625-0.000404-0.000692-0.12454-0.24935-0.125-0.25-0.000464-0.000653-0.15573-0.18689-0.15625-0.1875-0.000087-0.000101-0.02261-0.0224-0.03125-0.03125 0.41589-0.94026 0.75-1.9614 0.75-3.0938 0-1.3493-0.45603-2.5293-1.0312-3.5938 0.00041-0.000524 0.12463-0.18695 0.125-0.1875 0 0 0.06107-0.09095 0.0625-0.09375 0.0042-0.0064-0.0073-0.02001 0-0.03125 0.006-0.01205 0.02345-0.01564 0.03125-0.03125 0.0068-0.009 0.02579-0.02397 0.03125-0.03125 0 0 0.0026-0.03486 0-0.03125 0.01964-0.03282 0.11107-0.15966 0.125-0.1875 0.01561-0.0312 0.06238-0.15594 0.0625-0.15625 0 0 0.06173-0.15258 0.0625-0.15625 0.000771-0.0037-0.000302-0.02977 0-0.03125 0.003-0.01507-0.0039-0.043 0-0.0625 0.000193-0.000637 0.06235-0.18685 0.0625-0.1875 0.000145-0.000649 0.03115-0.21809 0.03125-0.21875 0.000048-0.000329-0.0078 0.0078 0-0.03125 0.0039-0.0195 0.02826-0.04754 0.03125-0.0625 0.000495-0.0025-0.000491-0.02875 0-0.03125 0.000048-0.000664 0.03125-0.34308 0.03125-0.34375 0-0.000285 0.000623-0.05156 0-0.09375-0.000004 0.00028-0.000004-0.09403 0-0.09375a1.0188 1.0188 0 0 0 0 -0.03125 1.0188 1.0188 0 0 0 -0.03125 -0.03125c-0.07916-0.74106-0.1937-2.081-0.5-3.375-0.159-0.671-0.367-1.315-0.657-1.938-0.257-0.554-0.876-1.744-2.281-2.281-0.375-0.144-0.958-0.284-1.687-0.188-1.0755 0.14226-1.8576 0.64275-2.3125 1-0.50859 0.39945-0.93636 0.85247-1.3125 1.25-0.78657 0.8313-1.5003 1.7171-1.9375 2.2812-0.000396 0.000525-0.12464 0.18695-0.125 0.1875-0.000022 0.000035-0.06143 0.09163-0.0625 0.09375-0.0086 0.01142-0.01954 0.01566-0.03125 0.03125-0.0037 0.0074 0.0039 0.02345 0 0.03125-0.01559 0.03121-0.03109 0.03096-0.03125 0.03125 0 0-0.0028 0.03507 0 0.03125-0.01984 0.0407-0.1864 0.33957-0.1875 0.34375-0.0012 0.0046 0.0015 0.02512 0 0.03125-0.000114 0.000308 0.01561-0.0077 0 0.03125-0.0039 0.01561 0.0028 0.01985 0 0.03125-0.0012 0.0031-0.02997-0.0034-0.03125 0-0.004 0.01285 0.000033 0.03112 0 0.03125-0.0187 0.05081-0.03119 0.1248-0.03125 0.125-0.000182 0.000632-0.06236 0.18686-0.0625 0.1875-0.000136 0.000644-0.03116 0.24935-0.03125 0.25 0 0-0.03123 0.12195-0.03125 0.125-0.000006 0.005 0.000001 0.02375 0 0.03125-0.000001 0.01499-0.000008 0.043 0 0.0625-0.00004 0.000656-0.000008 0.18684 0 0.1875 0.000005 0.000415 0.03019 0.08865 0.03125 0.15625-2.4365 1.3885-4.125 3.9828-4.125 6.9688 0 2.9998 1.6988 5.6072 4.1562 7-0.000888 0.05792 0.000002 0.15579 0 0.15625-0.000003 0.000647-0.000043 0.2181 0 0.21875-0.000008 0.01561-0.000001 0.01909 0 0.03125 0 0.0061-0.000006 0.02686 0 0.03125 0.000089 0.000641 0.06236 0.37437 0.0625 0.375 0.000135 0.000633 0.06232 0.18688 0.0625 0.1875 0.00009 0.00031 0.04689 0.1485 0.0625 0.1875s-0.000112 0.03095 0 0.03125c0 0 0.0613 0.09131 0.0625 0.09375 0.0012 0.0024-0.000524 0.03019 0 0.03125 0.006 0.012 0.02344 0.0469 0.03125 0.0625 0.000267 0.000589 0.09344 0.21818 0.09375 0.21875 0.000155 0.000284 0.01566 0.000039 0.03125 0.03125 0.0078 0.01561 0.02526 0.01926 0.03125 0.03125 0.001 0.002-0.001 0.02919 0 0.03125 0.001 0.0021 0.06248 0.09372 0.0625 0.09375 0.000349 0.000545 0.12461 0.18698 0.125 0.1875-0.065-0.08441 0.46587 0.58335 1.125 1.4375s1.5445 1.9817 2.4375 3.0938c0.90036 1.1212 1.7998 2.2211 2.5312 3.0625 0.03103 0.03569 0.06321 0.05867 0.09375 0.09375-1.0106 0.23979-1.9951 0.5625-3.0625 0.5625-8.4398 0-15.281-7.0328-15.281-15.938 0-8.9051 6.8344-15.906 15.281-15.906zm-3.438 20.593l0.625 0.4375-0.71875-0.25c0.0036-0.0072-0.0028-0.0256 0-0.03125 0.01398-0.03376 0.01976-0.07341 0.03125-0.09375 0.0082-0.01453 0.02451-0.02079 0.03125-0.03125-0.0025 0.0038 0.03125-0.03125 0.03125-0.03125z"/>
  <path id="path4969" style="opacity:.1" d="m47.5 13.969c-15.488 0-28.094 12.576-29.344 28.406-1.0332 1.2044-2.1908 2.3501-3.0625 3.875-0.99451 1.7398-1.5134 3.9395-1.125 6.5312 0.40673 2.714 2.0205 4.564 3.8125 5.5312 1.2662 0.68344 2.5108 0.9378 3.625 1.0625 0.01419 0.03083 0.01625 0.06199 0.03125 0.09375 2.1305 7.9565-0.03621 12.04-1.625 15.188-0.39246 0.77744-0.7929 1.4976-1.0625 2.3125-0.27728 0.83811-0.42598 1.9177 0.03125 2.9688 0.46007 1.0576 1.3828 1.7061 2.375 2.1562 0.98962 0.44897 2.2079 0.77764 3.7812 1.0938 11.284 2.2672 29.319 0.73451 43.781-16.719 5.0757-6.1253 7.485-12.976 8.1875-20.531 0.62132-0.44113 1.5466-1.073 2.6562-2.4062 1.4318-1.7202 2.8469-4.1952 2.5938-7.1875-0.0037-0.04329 0.0044-0.0815 0-0.125-0.000005-0.01185 0.000008-0.03108 0-0.03125a0.99205 0.99205 0 0 0 -0.031 -0.158c-0.50421-2.7678-2.2128-4.726-4.25-5.8438-1.7118-0.93922-3.6036-1.3015-5.4062-1.5-5.188-8.754-14.382-14.718-24.969-14.718zm3.7188 9.9062c9.0125 0 16.312 7.5067 16.312 16.938 0 6.1062-3.081 11.386-7.6875 14.375 0.0079-0.11637 0.03481-0.22494 0.03125-0.34375-0.01261-0.4207-0.09703-0.84383-0.15625-1.3125-0.12276-0.97157-0.30557-2.1981-0.53125-3.4688-0.44768-2.5206-0.98446-5.1175-1.125-5.8125-0.000022-0.000128 0.0017-0.02352 0-0.03125-0.0088-0.03994-0.03108-0.1556-0.03125-0.15625-0.000207-0.000774-0.06222-0.18675-0.0625-0.1875-0.000275-0.000753-0.06216-0.15552-0.0625-0.15625-0.000341-0.000725-0.09335-0.15556-0.09375-0.15625-0.000404-0.000692-0.09329-0.1556-0.09375-0.15625-0.000464-0.000653-0.09323-0.12439-0.09375-0.125-0.000521-0.000609-0.12443-0.12444-0.125-0.125-0.000573-0.000561-0.12438-0.12449-0.125-0.125-0.00062-0.000508-0.15559-0.12455-0.15625-0.125-0.000254-0.000172-0.03508-0.01435-0.0625-0.03125 0.55598-1.0198 0.9375-2.144 0.9375-3.375 0-1.4243-0.52077-2.6952-1.25-3.8125 0.000545-0.000382 0.12448-0.09333 0.125-0.09375 0.000515-0.000421 0.12452-0.09329 0.125-0.09375 0.000483-0.000458 0.0933-0.09326 0.09375-0.09375 0.000447-0.000492 0.09334-0.12448 0.09375-0.125 0.00041-0.000524 0.09338-0.12445 0.09375-0.125 0.00037-0.000553 0.06217-0.12442 0.0625-0.125 0.000328-0.000579 0.09347-0.1244 0.09375-0.125 0.000284-0.000602 0.06226-0.12438 0.0625-0.125 0.000239-0.000621 0.03106-0.15561 0.03125-0.15625 0.000193-0.000637 0.0311-0.12435 0.03125-0.125 0.000145-0.000649 0.03115-0.15559 0.03125-0.15625 0.000097-0.000658 0.0312-0.15559 0.03125-0.15625 0.000048-0.000664 0.000001-0.15558 0-0.15625-0.000001-0.000665 0.000051-0.12434 0-0.125a0.99205 0.99205 0 0 0 0 -0.03125c-0.07924-0.74176-0.214-2.0105-0.5-3.2188-0.14557-0.61498-0.33784-1.199-0.59375-1.75-0.22835-0.49168-0.70808-1.3949-1.7188-1.7812-0.23144-0.08848-0.66485-0.19417-1.1875-0.125-0.81824 0.10824-1.4226 0.50625-1.8125 0.8125-0.43947 0.34516-0.81776 0.73423-1.1875 1.125-0.746 0.78843-1.4476 1.6672-1.875 2.2188-0.000396 0.000525-0.09339 0.12445-0.09375 0.125-0.000357 0.000553-0.06218 0.12442-0.0625 0.125-0.000315 0.000577-0.09348 0.1244-0.09375 0.125-0.000272 0.000599-0.03102 0.12438-0.03125 0.125-0.000228 0.000617-0.06232 0.15562-0.0625 0.15625-0.000182 0.000632-0.03111 0.12436-0.03125 0.125-0.000136 0.000644-0.03116 0.1556-0.03125 0.15625-0.000088 0.000652 0.00004 0.15559 0 0.15625-0.00004 0.000656-0.000008 0.12434 0 0.125 0.000008 0.000658-0.000056 0.1556 0 0.15625 0.000056 0.000655-0.000103 0.1556 0 0.15625s0.0311 0.12436 0.03125 0.125c0.000151 0.00064 0.0623 0.15562 0.0625 0.15625 0.000093 0.000295-0.01146 0.03016 0 0.0625-2.4657 1.0783-4.1875 3.5985-4.1875 6.4688 0 2.9033 1.7663 5.4659 4.2812 6.5312-0.01227 0.03593-0.03115 0.06217-0.03125 0.0625-0.000187 0.000619-0.06236 0.12437-0.0625 0.125-0.000142 0.000631-0.03115 0.15561-0.03125 0.15625-0.000096 0.00064 0.00005 0.1556 0 0.15625-0.00005 0.000645 0.000003 0.12435 0 0.125-0.000003 0.000647-0.000043 0.1556 0 0.15625 0.000043 0.000646-0.000089 0.12436 0 0.125 0.000089 0.000641 0.03111 0.15562 0.03125 0.15625 0.000135 0.000633 0.03107 0.12438 0.03125 0.125 0.00018 0.000621 0.06228 0.15564 0.0625 0.15625 0.000224 0.000607 0.06223 0.12441 0.0625 0.125 0.000267 0.000589 0.06219 0.12443 0.0625 0.125 0.000309 0.000568 0.06215 0.12446 0.0625 0.125 0.000349 0.000545 0.09336 0.12448 0.09375 0.125 0.03711 0.04819 1.7577 2.3227 3.5312 4.5312 0.89058 1.109 1.8091 2.2006 2.5312 3.0312 0.35594 0.4094 0.66594 0.76308 0.96875 1.0625 0.14957 0.1479 0.29432 0.23402 0.4375 0.34375-1.6318 0.56666-3.3408 0.9375-5.1562 0.9375-9.0082 0-16.312-7.538-16.312-16.969 0-9.4308 7.3-16.938 16.312-16.938z"/>
  <path id="path4965" style="opacity:.15" d="m47.5 14.969c-15.054 0-27.338 12.284-28.406 27.781-1.1129 1.3181-2.2782 2.5186-3.125 4-0.89895 1.5726-1.3884 3.4918-1.0312 5.875 0.36047 2.4053 1.7561 3.9724 3.3125 4.8125 1.3167 0.71069 2.6588 0.94891 3.8125 1.0312 0.11147 0.24864 0.21151 0.48843 0.34375 0.75 2.1994 8.2137-0.13379 12.735-1.7188 15.875-0.39788 0.78818-0.76747 1.4847-1 2.1875-0.23253 0.70285-0.32739 1.4974 0 2.25s0.99745 1.2581 1.875 1.6562c0.87755 0.39813 2.0272 0.72278 3.5625 1.0312 11.004 2.2108 28.621 0.78912 42.844-16.375 5.0273-6.0668 7.3573-12.82 8-20.375 0.57588-0.40659 1.6598-1.14 2.8438-2.5625 1.355-1.628 2.6134-3.9032 2.3438-6.5938a1.0189 1.0189 0 0 0 0 -0.09375c-0.44987-2.4695-1.9269-4.156-3.75-5.1562-1.6735-0.91821-3.6319-1.2949-5.5-1.4688-4.975-8.715-14.016-14.623-24.406-14.623zm3.7188 7.9062c9.565 0 17.312 7.9915 17.312 17.938 0 9.946-7.7496 17.969-17.312 17.969-9.5629 0-17.312-8.0228-17.312-17.969 0-9.946 7.7475-17.938 17.312-17.938zm2.625 5.0938c-0.59393 0.07857-0.93797 0.33084-1.3125 0.625s-0.7379 0.65516-1.0938 1.0312c-0.7117 0.75218-1.4028 1.5963-1.8125 2.125a1.0189 1.0189 0 0 0 0.9375 1.625c0.26223-0.03014 0.4799-0.03125 0.65625-0.03125 1.4602 0 2.7638 0.53946 3.8125 1.4688a1.0189 1.0189 0 0 0 1.6875 -0.84375c-0.079-0.748-0.203-1.977-0.468-3.094-0.13226-0.55875-0.30727-1.0802-0.53125-1.5625-0.22398-0.48227-0.46746-0.9867-1.1562-1.25-0.16936-0.06475-0.4049-0.13529-0.71875-0.09375zm-2.625 5.5c-3.2432 0-5.875 2.7317-5.875 6.0312 0 3.2996 2.6238 6.0625 5.875 6.0625s5.875-2.7629 5.875-6.0625-2.6318-6.0312-5.875-6.0312zm4.843 10.093a1.0189 1.0189 0 0 0 -0.687 0.313c-1.0806 1.1057-2.5395 1.7812-4.1562 1.7812-0.22437 0-0.44389 0.01918-0.625 0a1.0189 1.0189 0 0 0 -0.90625 1.625c0.05871 0.07624 1.7669 2.3028 3.5312 4.5 0.88219 1.0986 1.7885 2.1816 2.5 3 0.35576 0.40919 0.64588 0.74254 0.90625 1 0.13019 0.12873 0.26376 0.23726 0.40625 0.34375 0.07124 0.05325 0.13997 0.12438 0.28125 0.1875s0.40298 0.21122 0.875 0c0.37247-0.16693 0.49977-0.44277 0.5625-0.59375s0.08084-0.25218 0.09375-0.34375c0.02582-0.18314 0.0363-0.33167 0.03125-0.5-0.01009-0.33666-0.06519-0.74537-0.125-1.2188-0.11962-0.94676-0.30782-2.1482-0.53125-3.4062-0.44687-2.516-0.9869-5.1605-1.125-5.8438a1.0189 1.0189 0 0 0 -1.032 -0.844z"/>
  <path id="path4959" style="opacity:.3" d="m47.514 16c-14.612 0-26.569 12.005-27.443 27.168-2.4101 2.9011-4.7963 4.9404-4.1423 9.3041 0.63285 4.2228 4.5224 4.9693 6.8122 5.0323 0.20547 0.44927 0.42088 0.89085 0.64724 1.3268 4.6427 17.109-10.062 19.973 1.9094 22.378 10.719 2.1536 27.898 0.84923 41.876-16.019 4.9816-6.0117 7.2358-12.608 7.8154-20.178 0.72255-0.48738 5.625-3.9706 5.1617-8.5921-0.7938-4.3574-4.9428-5.6057-8.8186-5.8899-4.744-8.685-13.622-14.53-23.817-14.53zm3.7054 5.8575c10.134 0 18.349 8.486 18.349 18.964s-8.2151 18.98-18.349 18.98-18.349-8.5022-18.349-18.98 8.2151-18.964 18.349-18.964zm2.7508 7.1196c-0.90689 0.11997-2.7277 2.3659-3.5275 3.398 0.25479-0.02929 0.51435-0.04855 0.77669-0.04855 1.7253 0 3.2996 0.65489 4.5145 1.7314-0.15538-1.4546-0.61357-4.7054-1.5534-5.0646-0.06283-0.02402-0.13207-0.02655-0.21035-0.01619zm-2.7508 5.5177c-2.6768 0-4.8543 2.2483-4.8543 5.0161s2.1775 5.0161 4.8543 5.0161 4.8381-2.2483 4.8381-5.0161-2.1613-5.0161-4.8381-5.0161zm4.8867 10.113c-1.2552 1.2843-2.9813 2.0873-4.8867 2.0873-0.24203 0-0.49249-0.0074-0.72814-0.03236 0.09959 0.12932 6.8664 8.8911 7.2814 8.7054 0.45223-0.20267-1.3903-9.3933-1.6666-10.76z"/>
  <path id="path2885" style="fill:#298daf" d="m169.84-28.406c-28.219 0-51.312 23.184-53 52.469-4.6546 5.6028-9.263 9.5414-8 17.969 1.2222 8.1555 8.734 9.5971 13.156 9.7188 0.39682 0.86766 0.81284 1.7205 1.25 2.5625 8.9663 33.042-19.433 38.573 3.6875 43.219 20.701 4.1592 53.879 1.6401 80.875-30.938 9.6209-11.61 13.974-24.35 15.094-38.969 1.3954-0.94126 10.863-7.6683 9.9688-16.594-1.533-8.4153-9.546-10.826-17.031-11.375-9.1638-16.775-26.31-28.062-46-28.062zm7.16 11.312c19.572 0 35.438 16.389 35.438 36.625s-15.866 36.656-35.438 36.656-35.438-16.42-35.438-36.656 15.866-36.625 35.438-36.625zm5.3125 13.75c-1.7515 0.23169-5.268 4.5693-6.8125 6.5625 0.49207-0.056549 0.99336-0.09375 1.5-0.09375 3.3321 0 6.3725 1.2648 8.7188 3.3438-0.30009-2.8092-1.185-9.0874-3-9.7812-0.12134-0.046378-0.25507-0.051269-0.40625-0.03125zm-5.31 10.656c-5.1697 0-9.375 4.3421-9.375 9.6875s4.2053 9.6875 9.375 9.6875 9.3438-4.3421 9.3438-9.6875-4.174-9.6875-9.3438-9.6875zm9.4375 19.531c-2.43 2.48-5.76 4.031-9.44 4.031-0.46742 0-0.95113-0.01425-1.4062-0.0625 0.19234 0.24976 13.261 17.171 14.062 16.812 0.87339-0.39142-2.6851-18.141-3.2188-20.781z"/>
  <path id="path4931" style="fill:url(#linearGradient4939)" d="m47.514 15c-14.612 0-26.569 12.005-27.443 27.168-2.4101 2.9011-4.7963 4.9404-4.1423 9.3041 0.63285 4.2228 4.5224 4.9693 6.8122 5.0323 0.20547 0.44927 0.42088 0.89085 0.64724 1.3268 4.6427 17.109-10.062 19.973 1.9094 22.378 10.719 2.1536 27.898 0.84923 41.876-16.019 4.9816-6.0117 7.2358-12.608 7.8154-20.178 0.72255-0.48738 5.625-3.9706 5.1617-8.5921-0.7938-4.3574-4.9428-5.6057-8.8186-5.8899-4.744-8.685-13.622-14.53-23.817-14.53zm3.7054 5.8575c10.134 0 18.349 8.486 18.349 18.964s-8.2151 18.98-18.349 18.98-18.349-8.5022-18.349-18.98 8.2151-18.964 18.349-18.964zm2.7508 7.1196c-0.90689 0.11997-2.7277 2.3659-3.5275 3.398 0.25479-0.02929 0.51435-0.04855 0.77669-0.04855 1.7253 0 3.2996 0.65489 4.5145 1.7314-0.15538-1.4546-0.61357-4.7054-1.5534-5.0646-0.06283-0.02402-0.13207-0.02655-0.21035-0.01619zm-2.7508 5.5177c-2.6768 0-4.8543 2.2483-4.8543 5.0161s2.1775 5.0161 4.8543 5.0161 4.8381-2.2483 4.8381-5.0161-2.1613-5.0161-4.8381-5.0161zm4.8867 10.113c-1.2552 1.2843-2.9813 2.0873-4.8867 2.0873-0.24203 0-0.49249-0.0074-0.72814-0.03236 0.09959 0.12932 6.8664 8.8911 7.2814 8.7054 0.45223-0.20267-1.3903-9.3933-1.6666-10.76z"/>
  <path id="path4941" style="fill:#fff" d="m47.5 15c-14.612 0-26.564 11.993-27.438 27.156-2.246 2.705-4.457 4.681-4.218 8.469 0.176-3.154 2.178-5.013 4.218-7.469 0.874-15.163 12.826-27.156 27.438-27.156 10.195 0 19.099 5.8452 23.844 14.531 3.8758 0.28418 8.0187 1.5176 8.8125 5.875 0.01896-0.32137 0.03347-0.66604 0-1-0.7938-4.3574-4.9367-5.5908-8.8125-5.875-4.745-8.686-13.649-14.531-23.844-14.531zm6.4688 12.969c-0.90689 0.11997-2.7315 2.3742-3.5312 3.4062 0.25479-0.02929 0.51892-0.0625 0.78125-0.0625 0.03227 0 0.06159-0.000457 0.09375 0 0.87982-1.0471 2.0006-2.257 2.6562-2.3438 0.07828-0.01036 0.15592 0.0072 0.21875 0.03125 0.74861 0.28616 1.1784 2.3825 1.4062 3.9688 0.04026 0.03411 0.08549 0.05874 0.125 0.09375-0.156-1.455-0.592-4.704-1.531-5.063-0.063-0.024-0.141-0.042-0.219-0.031zm-2.75 5.5312c-2.6768 0-4.8438 2.2322-4.8438 5 0 0.16281-0.01473 0.34113 0 0.5 0.24903-2.5276 2.3342-4.5 4.8438-4.5 2.5095 0 4.5653 1.9724 4.8125 4.5 0.01463-0.1589 0.03125-0.33715 0.03125-0.5 0-2.7678-2.1669-5-4.8438-5zm-18.312 6.8125c-0.0043 0.16805-0.03125 0.33088-0.03125 0.5 0 10.478 8.2096 19 18.344 19s18.344-8.5219 18.344-19c0-0.16912-0.027-0.33195-0.03125-0.5-0.25929 10.245-8.3419 18.5-18.312 18.5-9.9706 0-18.053-8.2554-18.312-18.5zm23.188 3.2812c-1.2552 1.2843-2.9697 2.0938-4.875 2.0938-0.24203 0-0.48309-0.0063-0.71875-0.03125 0.01152 0.01496 0.64278 0.81258 0.8125 1.0312 1.8685-0.02563 3.5465-0.83036 4.7812-2.0938 0.22448 1.1105 1.4657 7.3261 1.6875 9.75 0.39888-0.39018-1.4141-9.3977-1.6875-10.75zm-31.783 21.282c-0.16227 7.534-4.3854 10.971-3.75 13.062 0.53956-2.2865 3.9268-6.0039 3.75-13.062z"/>
  <path id="path4950" style="opacity:0" d="m51.219 19.844c-10.134 0-18.344 8.4906-18.344 18.969 0 0.16912 0.027 0.33194 0.03125 0.5 0.25929-10.244 8.3419-18.469 18.312-18.469 9.9706 0 18.053 8.2247 18.312 18.469 0.0043-0.16806 0.03125-0.33088 0.03125-0.5 0-10.478-8.2096-18.969-18.344-18.969zm0.093 10.468c-0.33718 0.40128-0.65343 0.77656-0.875 1.0625 0.25479-0.02929 0.51892-0.0625 0.78125-0.0625 1.7253 0 3.2852 0.67352 4.5 1.75-0.03161-0.29593-0.06682-0.68861-0.125-1.0938-1.1746-0.99509-2.6497-1.6331-4.2812-1.6562zm28.844 5.2188c-0.321 4.062-4.493 7.021-5.156 7.469-0.58 7.57-2.831 14.176-7.812 20.188-13.979 16.868-31.157 18.184-41.876 16.031-3.1599-0.63487-4.4608-1.329-4.75-2.2812-0.36241 1.5358 0.57401 2.4422 4.75 3.2812 10.719 2.1536 27.897 0.83715 41.875-16.031 4.982-6.012 7.233-12.618 7.813-20.188 0.7161-0.48303 5.5213-3.9087 5.1562-8.4688zm-33.781 2.5c-0.01461 0.15826 0 0.30657 0 0.46875 0 2.7678 2.1669 5.0312 4.8438 5.0312 2.6768 0 4.8438-2.2634 4.8438-5.0312 0-0.16222-0.01673-0.31045-0.03125-0.46875-0.24725 2.5276-2.303 4.5-4.8125 4.5s-4.5947-1.9724-4.8438-4.5zm4.125 7.625c0.09959 0.12932 6.8662 8.9045 7.2812 8.7188 0.08486-0.03803 0.05123-0.47136 0-1.0312-0.0043 0.0042 0.0049 0.02907 0 0.03125-0.36705 0.16425-5.1709-6.0153-6.4688-7.6875-0.03091 0.000424-0.06274 0-0.09375 0-0.24203 0-0.48309-0.0063-0.71875-0.03125zm-34.656 4.032c-0.02643 0.55367-0.0029 1.1363 0.09375 1.7812 0.63285 4.2228 4.5227 4.9683 6.8125 5.0312 0.20547 0.44927 0.39864 0.90776 0.625 1.3438 0.58034 2.1386 0.87189 4.0296 0.9375 5.75 0.01657-1.966-0.24393-4.1941-0.9375-6.75-0.226-0.436-0.42-0.895-0.625-1.344-2.2898-0.06299-6.1796-0.80841-6.8125-5.0312-0.04087-0.27273-0.07589-0.5259-0.09375-0.78125z"/>
 </g>
</svg>
