<?xml version="1.0" encoding="UTF-8" standalone="no"?>
<!-- Created with Inkscape (http://www.inkscape.org/) -->
<svg id="svg2408" xmlns:rdf="http://www.w3.org/1999/02/22-rdf-syntax-ns#" xmlns="http://www.w3.org/2000/svg" height="96" width="96" version="1.0" xmlns:cc="http://creativecommons.org/ns#" xmlns:xlink="http://www.w3.org/1999/xlink" xmlns:dc="http://purl.org/dc/elements/1.1/">
 <defs id="defs2410">
  <linearGradient id="ButtonShadow" y2="7.0165" gradientUnits="userSpaceOnUse" x2="45.448" gradientTransform="scale(1.0059 .99417)" y1="92.54" x1="45.448">
   <stop id="stop3750" offset="0"/>
   <stop id="stop3752" style="stop-opacity:.58824" offset="1"/>
  </linearGradient>
  <filter id="filter3174" color-interpolation-filters="sRGB">
   <feGaussianBlur id="feGaussianBlur3176" stdDeviation="1.71"/>
  </filter>
  <linearGradient id="ButtonShadow-0" y2="7.0165" gradientUnits="userSpaceOnUse" x2="45.448" gradientTransform="matrix(1.0059 0 0 .99417 100 0)" y1="92.54" x1="45.448">
   <stop id="stop3750-8" offset="0"/>
   <stop id="stop3752-5" style="stop-opacity:.58824" offset="1"/>
  </linearGradient>
  <linearGradient id="linearGradient3780" y2="90.239" xlink:href="#ButtonShadow-0" gradientUnits="userSpaceOnUse" x2="32.251" gradientTransform="matrix(1.0238 0 0 1.0119 -1.1429 -98.071)" y1="6.1317" x1="32.251"/>
  <linearGradient id="linearGradient3721" y2="90.239" xlink:href="#ButtonShadow-0" gradientUnits="userSpaceOnUse" x2="32.251" gradientTransform="translate(0,-97)" y1="6.1317" x1="32.251"/>
  <linearGradient id="linearGradient3923-0" y2="63.893" gradientUnits="userSpaceOnUse" x2="36.357" y1="6" x1="36.357">
   <stop id="stop3739-9-7" style="stop-color:#fff" offset="0"/>
   <stop id="stop3741-3-7" style="stop-color:#fff;stop-opacity:0" offset="1"/>
  </linearGradient>
  <radialGradient id="radialGradient2886-8" gradientUnits="userSpaceOnUse" cy="90.172" cx="48" gradientTransform="matrix(1.1573 0 0 .99591 -7.551 .19713)" r="42">
   <stop id="stop3739-6-6" style="stop-color:#fff" offset="0"/>
   <stop id="stop3741-0-7" style="stop-color:#fff;stop-opacity:0" offset="1"/>
  </radialGradient>
  <clipPath id="clipPath3613-0">
   <rect id="rect3615-6" style="fill:#fff" rx="6" ry="6" height="84" width="84" y="6" x="6"/>
  </clipPath>
  <filter id="filter3794" height="1.384" width="1.384" color-interpolation-filters="sRGB" y="-.192" x="-.192">
   <feGaussianBlur id="feGaussianBlur3796" stdDeviation="5.28"/>
  </filter>
  <linearGradient id="linearGradient3121" y2="138.66" gradientUnits="userSpaceOnUse" x2="48" y1="20.221" x1="48">
   <stop id="stop3739-2-0" style="stop-color:#fff" offset="0"/>
   <stop id="stop3741-1-9" style="stop-color:#fff;stop-opacity:0" offset="1"/>
  </linearGradient>
  <linearGradient id="linearGradient4143" y2="8" gradientUnits="userSpaceOnUse" x2="64" y1="64" x1="64">
   <stop id="stop48" style="stop-color:#d8d8d8" offset="0"/>
   <stop id="stop50" style="stop-color:#f9f9f9" offset="1"/>
  </linearGradient>
  <linearGradient id="linearGradient4159" y2="48" gradientUnits="userSpaceOnUse" x2="24" y1="88" x1="24">
   <stop id="stop3702" style="stop-color:#b5b5b5" offset="0"/>
   <stop id="stop3704" style="stop-color:#dedede" offset="1"/>
  </linearGradient>
  <linearGradient id="linearGradient3999" y2="48" gradientUnits="userSpaceOnUse" x2="72" y1="88" x1="72">
   <stop id="stop4163" style="stop-color:#737373" offset="0"/>
   <stop id="stop4165" style="stop-color:#989898" offset="1"/>
  </linearGradient>
  <linearGradient id="linearGradient4007" y2="8" gradientUnits="userSpaceOnUse" x2="24" y1="64" x1="24">
   <stop id="stop3327" style="stop-color:#f06805" offset="0"/>
   <stop id="stop3329" style="stop-color:#ffb03c" offset="1"/>
  </linearGradient>
 </defs>
 <metadata id="metadata2413">
  <rdf:RDF>
   <cc:Work rdf:about="">
    <dc:format>image/svg+xml</dc:format>
    <dc:type rdf:resource="http://purl.org/dc/dcmitype/StillImage"/>
    <dc:title/>
   </cc:Work>
  </rdf:RDF>
 </metadata>
 <g id="layer2" style="display:none">
  <rect id="rect3745" style="opacity:.9;filter:url(#filter3174);fill:url(#ButtonShadow)" rx="6" ry="6" height="85" width="86" y="7" x="5"/>
 </g>
 <g id="layer6">
  <path id="path3786" style="opacity:0.08;fill:url(#linearGradient3780)" d="m12-95.031c-5.5111 0-10.031 4.5202-10.031 10.031v71c0 5.5111 4.5202 10.031 10.031 10.031h72c5.5111 0 10.031-4.5202 10.031-10.031v-71c0-5.5111-4.5202-10.031-10.031-10.031h-72z" transform="scale(1,-1)"/>
  <path id="path3778" style="opacity:.1;fill:url(#linearGradient3780)" d="m12-94.031c-4.9716 0-9.0312 4.0596-9.0312 9.0312v71c0 4.9716 4.0596 9.0312 9.0312 9.0312h72c4.9716 0 9.0312-4.0596 9.0312-9.0312v-71c0-4.9716-4.0596-9.0312-9.0312-9.0312h-72z" transform="scale(1,-1)"/>
  <path id="path3770" style="opacity:.2;fill:url(#linearGradient3780)" d="m12-93c-4.4091 0-8 3.5909-8 8v71c0 4.4091 3.5909 8 8 8h72c4.4091 0 8-3.5909 8-8v-71c0-4.4091-3.5909-8-8-8h-72z" transform="scale(1,-1)"/>
  <rect id="rect3723" style="opacity:.3;fill:url(#linearGradient3780)" transform="scale(1,-1)" rx="7" ry="7" height="85" width="86" y="-92" x="5"/>
  <rect id="rect3716" style="opacity:.45;fill:url(#linearGradient3721)" transform="scale(1,-1)" rx="6" ry="6" height="84" width="84" y="-91" x="6"/>
 </g>
 <g id="layer1">
  <rect id="rect2419" style="fill:#323232" rx="6" ry="6" height="84" width="84" y="6" x="6"/>
  <path id="path4111" style="color:#000000;fill:url(#linearGradient3999)" d="m49.531 49.531v4.2812 3.1875 9.5312c-0.0036 0.19833-0.1308 0.38918-0.3125 0.46875-1.1043 0.55215-2.8403 0.43068-5.2812-1.375-0.35901-0.1895-0.85305-0.4818-1.375-0.71875s-1.066-0.40102-1.375-0.40625c-1.2867 0-2.4743 0.75019-3.375 2.0625-0.90072 1.3123-1.4688 3.1615-1.4688 5.2188s0.56863 3.9146 1.4688 5.2188c0.88538 1.2828 2.0484 2.0073 3.3125 2.0312 0.02105 0.000399 0.0414 0 0.0625 0 0.94925-0.1261 2.3515-0.80388 2.6875-1.0625 2.4847-1.8635 4.2363-1.96 5.3438-1.4062 0.1817 0.07957 0.30894 0.27042 0.3125 0.46875v12.968h34.469c3.324 0 6-2.676 6-6v-34.469h-17.781c-0.23229 0.73497-0.15399 1.9301 1.375 3.9688 0.47058 0.61134 1.1989 1.9643 1.3438 3.25 0.0012 0.02081 0.0012 0.04169 0 0.0625 0 1.6956-1.0143 3.2088-2.5312 4.25-1.517 1.0412-3.562 1.6562-5.8125 1.6562s-4.303-0.61445-5.8125-1.6562-2.5-2.5562-2.5-4.25c0.01027-0.60633 0.26979-1.2366 0.53125-1.8125 0.26146-0.57593 0.54238-1.1034 0.71875-1.4375 0.01902-0.02255 0.03995-0.04348 0.0625-0.0625 1.529-2.0387 1.6073-3.2338 1.375-3.9688h-4.9688-3.1875z"/>
  <path id="path4113" style="color:#000000;fill:url(#linearGradient4143)" d="m49.406 6v15.844c0.76355 0.28246 2.0183 0.22843 4.1562-1.375 0.58554-0.45072 1.9677-1.1403 3.2188-1.2812 0.01041-0.00039 0.02084-0.00039 0.03125 0 1.6547 0 3.1291 0.97223 4.1562 2.4688 1.0271 1.4965 1.625 3.5188 1.625 5.75s-0.59737 4.2611-1.625 5.75-2.503 2.4375-4.1562 2.4375c-0.5766-0.0098-1.1795-0.24099-1.75-0.5-0.57053-0.25901-1.1009-0.54107-1.4375-0.71875-0.02166-0.0086-0.04259-0.01911-0.0625-0.03125-2.1379-1.6034-3.3927-1.6575-4.1562-1.375v7.0312 3.1875 5.4062h3.4062 3.1875 5.375c0.15215-0.0028 0.30257 0.08491 0.375 0.21875 0.53183 1.0637 0.42872 2.7557-1.375 5.1875-0.0083 0.01577-0.02255 0.04613-0.03125 0.0625-0.18791 0.35351-0.45869 0.83973-0.6875 1.3438-0.2394 0.52735-0.43176 1.0675-0.4375 1.4062 0 1.3276 0.79222 2.554 2.125 3.4688 1.3328 0.91477 3.2046 1.5 5.2812 1.5s3.9565-0.58571 5.2812-1.5c1.3143-0.9071 2.0818-2.1206 2.0938-3.4375-0.000971-0.0086 0.0011-0.02256 0-0.03125-0.11994-0.98112-0.84254-2.3831-1.125-2.75-1.8508-2.4677-1.908-4.184-1.375-5.25 0.07243-0.13384 0.22285-0.22158 0.375-0.21875h18.125v-36.594c0-3.324-2.676-6-6-6z"/>
  <path id="path4109" style="color:#000000;fill:url(#linearGradient4159)" d="m6 49.531v34.469c0 3.324 2.676 6 6 6h36.469v-12.562c-0.73497-0.23229-1.9301-0.15399-3.9688 1.375-0.62256 0.47921-1.9739 1.1688-3.25 1.3125-0.02081 0.0012-0.04169 0.0012-0.0625 0-1.6938 0-3.2082-0.99053-4.25-2.5s-1.6562-3.562-1.6562-5.8125 0.61505-4.2955 1.6562-5.8125 2.5544-2.5312 4.25-2.5312c0.606 0.01 1.236 0.27 1.812 0.531 0.57593 0.26146 1.1034 0.54238 1.4375 0.71875 0.02255 0.01902 0.04348 0.03995 0.0625 0.0625 2.0407 1.5305 3.2385 1.6309 3.9688 1.4062v-9.1875-3.1875-4.2812h-4.2812-3.1875-14.781c-0.23229 0.73497-0.15399 1.9301 1.375 3.9688 0.47058 0.61134 1.1989 1.9643 1.3438 3.25 0.0012 0.02081 0.0012 0.04169 0 0.0625 0 1.6956-1.0143 3.2088-2.5312 4.25-1.517 1.0412-3.562 1.6562-5.8125 1.6562s-4.303-0.61445-5.8125-1.6562-2.5-2.5562-2.5-4.25c0.01027-0.60633 0.26979-1.2366 0.53125-1.8125 0.26146-0.57593 0.54238-1.1034 0.71875-1.4375 0.01902-0.02255 0.03995-0.04348 0.0625-0.0625 1.529-2.0387 1.6073-3.2338 1.375-3.9688z"/>
  <path id="path4115" style="color:#000000;fill:url(#linearGradient4007)" d="m12 6c-3.324 0-6 2.676-6 6v36.594h9.375c0.15215-0.0028 0.30257 0.08491 0.375 0.21875 0.53183 1.0637 0.42872 2.7557-1.375 5.1875-0.0083 0.01577-0.02255 0.04613-0.03125 0.0625-0.18791 0.35351-0.45869 0.83973-0.6875 1.3438-0.2394 0.52735-0.43176 1.0675-0.4375 1.4062 0 1.3276 0.79222 2.554 2.125 3.4688 1.3328 0.91477 3.2046 1.5 5.2812 1.5s3.9565-0.58571 5.2812-1.5c1.3143-0.9071 2.0818-2.1206 2.0938-3.4375-0.000971-0.0086 0.0011-0.02256 0-0.03125-0.11994-0.98112-0.84254-2.3831-1.125-2.75-1.8508-2.4677-1.908-4.184-1.375-5.25 0.07243-0.13384 0.22285-0.22158 0.375-0.21875h14.125 4.1875 4.4062v-5.4062-3.1875-7.3125c-0.0028-0.15215 0.08491-0.30257 0.21875-0.375 1.0568-0.5284 2.7538-0.46072 5.1875 1.3438 0.02114 0.01567 0.04125 0.01531 0.0625 0.03125 0.35734 0.19056 0.83932 0.48258 1.3438 0.71875 0.52755 0.247 1.0723 0.43184 1.4062 0.4375 1.3276 0 2.554-0.79222 3.4688-2.125 0.91477-1.3328 1.5-3.2046 1.5-5.2812s-0.58571-3.9565-1.5-5.2812c-0.9071-1.3143-2.1206-2.0818-3.4375-2.0938-0.01043-0.000095-0.0208 0-0.03125 0-0.98112 0.11994-2.3831 0.84255-2.75 1.125-2.4677 1.8508-4.184 1.908-5.25 1.375-0.13384-0.07243-0.22158-0.22285-0.21875-0.375v-16.188z"/>
  <path id="rect3728-1" style="opacity:.4;fill:url(#linearGradient3923-0)" d="m12 6c-3.324 0-6 2.676-6 6v2 68 2c0 0.33472 0.0413 0.6507 0.0937 0.96875 0.0487 0.2956 0.097 0.59692 0.1875 0.875 0.01 0.03038 0.0209 0.0636 0.0312 0.09375 0.0989 0.28777 0.23488 0.54745 0.375 0.8125 0.14459 0.27351 0.31562 0.53562 0.5 0.78125 0.18438 0.24564 0.37378 0.47347 0.59375 0.6875 0.43995 0.42806 0.94291 0.81453 1.5 1.0938 0.27854 0.13961 0.57347 0.24695 0.875 0.34375-0.2562-0.10022-0.48671-0.23627-0.71875-0.375-0.007-0.0044-0.0239 0.0045-0.0312 0-0.0319-0.0193-0.0623-0.04251-0.0937-0.0625-0.1204-0.0767-0.23102-0.16351-0.34375-0.25-0.10617-0.0808-0.21328-0.16111-0.3125-0.25-0.178-0.162-0.3475-0.346-0.5001-0.531-0.1075-0.131-0.2183-0.266-0.3124-0.407-0.0252-0.038-0.0384-0.086-0.0626-0.125-0.0648-0.103-0.1302-0.204-0.1874-0.312-0.1011-0.195-0.2057-0.416-0.2813-0.625-0.008-0.022-0.0236-0.041-0.0312-0.063-0.0318-0.092-0.0358-0.187-0.0625-0.281-0.0303-0.107-0.0704-0.203-0.0937-0.313-0.073-0.341-0.1251-0.698-0.1251-1.062v-2-68-2c0-2.782 2.2182-5 5-5h2 68 2c2.7818 0 5 2.2182 5 5v2 68 2c0 0.3643-0.0521 0.72099-0.125 1.0625-0.0442 0.20689-0.0884 0.39766-0.15625 0.59375-0.008 0.02195-0.0233 0.04069-0.0312 0.0625-0.0627 0.17374-0.13838 0.36745-0.21875 0.53125-0.0416 0.0828-0.079 0.16995-0.125 0.25-0.0546 0.09721-0.12677 0.18835-0.1875 0.28125-0.0941 0.14096-0.20492 0.276-0.3125 0.40625-0.14317 0.17445-0.30314 0.347-0.46875 0.5-0.0112 0.0102-0.02 0.02115-0.0312 0.03125-0.13839 0.12556-0.28509 0.23444-0.4375 0.34375-0.10257 0.07315-0.20432 0.15336-0.3125 0.21875-0.007 0.0045-0.0238-0.0044-0.0312 0-0.23204 0.13873-0.46255 0.27478-0.71875 0.375 0.30153-0.0968 0.59645-0.20414 0.875-0.34375 0.55709-0.27922 1.06-0.66569 1.5-1.0938 0.21997-0.21403 0.40937-0.44186 0.59375-0.6875s0.35541-0.50774 0.5-0.78125c0.14012-0.26505 0.27613-0.52473 0.375-0.8125 0.0104-0.03078 0.0213-0.06274 0.0312-0.09375 0.0905-0.27808 0.1388-0.5794 0.1875-0.875 0.053-0.318 0.094-0.634 0.094-0.969v-2-68-2c0-3.324-2.676-6-6-6h-72z"/>
  <path id="path3615-0" style="opacity:.2;fill:url(#radialGradient2886-8)" d="m12 90c-3.324 0-6-2.676-6-6v-2-68-2c0-0.33472 0.0413-0.6507 0.0937-0.96875 0.0487-0.2956 0.097-0.59692 0.1875-0.875 0.01-0.03038 0.0209-0.0636 0.0312-0.09375 0.0989-0.2873 0.2349-0.547 0.375-0.812 0.1446-0.2735 0.3156-0.5356 0.5-0.7812 0.1844-0.2457 0.3738-0.4735 0.5938-0.6876 0.4399-0.428 0.9429-0.8145 1.5-1.0937 0.2785-0.1396 0.5734-0.2469 0.8748-0.3437-0.256 0.1002-0.4866 0.2362-0.7186 0.375-0.007 0.0044-0.0239-0.0045-0.0312 0-0.0319 0.0193-0.0623 0.04251-0.0937 0.0625-0.1204 0.0767-0.23102 0.16351-0.34375 0.25-0.10617 0.0808-0.21328 0.16111-0.3125 0.25-0.1779 0.1614-0.3474 0.3453-0.5 0.5312-0.1075 0.1303-0.2183 0.2653-0.3124 0.4063-0.0252 0.0383-0.0384 0.0858-0.0626 0.125-0.0648 0.103-0.1302 0.2045-0.1874 0.3124-0.1011 0.1948-0.2057 0.4158-0.2813 0.625-0.008 0.0219-0.0236 0.0406-0.0312 0.0626-0.0318 0.0919-0.0358 0.1868-0.0625 0.2812-0.0303 0.1066-0.0704 0.203-0.0937 0.3125-0.073 0.3415-0.1251 0.6985-0.1251 1.0625v2 68 2c0 2.7818 2.2182 5 5 5h2 68 2c2.7818 0 5-2.2182 5-5v-2-68-2c0-0.364-0.052-0.721-0.125-1.0625-0.044-0.2069-0.088-0.3977-0.156-0.5937-0.008-0.022-0.024-0.0407-0.031-0.0626-0.063-0.1737-0.139-0.3674-0.219-0.5312-0.042-0.0828-0.079-0.17-0.125-0.25-0.055-0.0972-0.127-0.1884-0.188-0.2812-0.094-0.141-0.205-0.276-0.312-0.4063-0.143-0.1745-0.303-0.347-0.469-0.5-0.011-0.0102-0.02-0.0211-0.031-0.0313-0.139-0.1255-0.285-0.2344-0.438-0.3437-0.102-0.0731-0.204-0.1534-0.312-0.2187-0.007-0.0045-0.0238 0.0044-0.0312 0-0.23204-0.13873-0.46255-0.27478-0.71875-0.375 0.30153 0.0968 0.59645 0.20414 0.875 0.34375 0.55709 0.27922 1.06 0.66569 1.5 1.0938 0.21997 0.21403 0.40937 0.44186 0.59375 0.6875s0.35541 0.50774 0.5 0.78125c0.14012 0.26505 0.27613 0.52473 0.375 0.8125 0.0104 0.03078 0.0213 0.06274 0.0312 0.09375 0.0905 0.27808 0.1388 0.5794 0.1875 0.875 0.053 0.318 0.094 0.634 0.094 0.969v2 68 2c0 3.324-2.676 6-6 6h-72z"/>
  <rect id="rect3654" style="fill:#f0f" rx="6" ry="6" height="84" width="84" y="6" x="-94"/>
  <rect id="rect3797" style="stroke-width:.5;color:#000000;stroke-dashoffset:8.6;stroke:#000;stroke-linecap:round;fill:#fff" height="16" width="16" y="8" x="112"/>
  <text id="text3799" y="11.969256" x="131.39261" xml:space="preserve" style="font-size:4px;line-height:125%;font-family:Liberation Sans;fill:#000000"><tspan id="tspan3801" y="11.969256" x="131.39261">Width: 2px</tspan><tspan id="tspan3803" y="16.969257" x="131.39261">Blur: 12</tspan><tspan id="tspan3807" y="21.969257" x="131.39261">Opacity: 60</tspan></text>
  <path id="path4237" style="opacity:.3;fill:#fff" d="m44 17.406c-0.00002 0.13452-0.03568 0.25807-0.10681 0.37059-0.07135 0.11256-0.14952 0.16884-0.23468 0.16882-0.70294 0.07896-1.2775 0.34606-1.7236 0.80137-0.44624 0.45536-0.90662 1.324-1.3812 2.6059l-7.264 19.377c-0.047 0.18-0.18 0.27-0.399 0.27-0.171 0-0.303-0.09-0.398-0.27l-4.073-10.086-4.686 10.086c-0.094 0.18-0.227 0.27-0.398 0.27-0.209 0-0.347-0.09-0.413-0.27l-7.135-19.378c-0.4462-1.2037-0.91614-2.0443-1.4099-2.522-0.49372-0.47761-1.1821-0.77269-2.0652-0.88526-0.07589 0.000013-0.14706-0.04787-0.21338-0.1436-0.067-0.095-0.1-0.205-0.1-0.329 0-0.31496 0.07589-0.47246 0.22773-0.47248 0.63625 0.000025 1.3009 0.03401 1.994 0.10189 0.64553 0.06724 1.2531 0.10088 1.8227 0.10088 0.5789 0.000012 1.2624-0.03364 2.0505-0.10088 0.82632-0.06789 1.5573-0.10191 2.193-0.10191 0.15236 0.000025 0.2286 0.15752 0.2286 0.47248 0 0.31501-0.04761 0.4725-0.1425 0.47249-0.63627 0.05636-1.1372 0.24741-1.5029 0.57336-0.36566 0.326-0.54848 0.75319-0.54846 1.2816-0.00002 0.26972 0.07628 0.60701 0.22859 1.0119l5.8958 15.769 3.3465-7.4877-3.1187-7.7409c-0.56035-1.3835-1.0209-2.2747-1.3816-2.6738-0.36073-0.39904-0.90675-0.64352-1.638-0.73343-0.06604 0.000012-0.12997-0.04787-0.19166-0.1436-0.06165-0.09576-0.0926-0.20532-0.0926-0.32889 0-0.31496 0.0664-0.47246 0.19904-0.47248 0.63625 0.000025 1.2201 0.03401 1.7515 0.10189 0.51282 0.06724 1.0587 0.10088 1.6376 0.10088 0.56959 0.000012 1.1725-0.03364 1.8088-0.10088 0.65538-0.06789 1.3009-0.10191 1.9366-0.10191 0.15236 0.000025 0.22859 0.15752 0.2286 0.47248-0.000018 0.31501-0.04744 0.4725-0.1425 0.47249-1.2725 0.10088-1.9088 0.52808-1.9088 1.2816-0.00002 0.33766 0.14724 0.86058 0.44155 1.5688l2.0653 4.9585 2.0505-4.5375c0.28509-0.64026 0.42763-1.1796 0.42764-1.6182-0.000016-1.0348-0.63627-1.5859-1.9088-1.6532-0.11365 0.000011-0.1704-0.15748-0.1704-0.47249-0.000018-0.11256 0.02828-0.2194 0.0852-0.32065 0.05675-0.10113 0.11384-0.1518 0.17116-0.15182 0.45544 0.000025 1.0155 0.03401 1.6802 0.10189 0.63625 0.06725 1.1584 0.10088 1.5663 0.10088 0.29435 0.000013 0.72636-0.02809 1.296-0.08444 0.72143-0.07896 1.3244-0.11833 1.8088-0.11833 0.11345 0.000025 0.17038 0.1352 0.17038 0.40556-0.000036 0.35963-0.10436 0.53942-0.31292 0.53941-0.74059 0.08985-1.3363 0.33165-1.7871 0.72519-0.45085 0.39359-1.0135 1.2876-1.688 2.6821l-2.7337 5.9869 3.702 8.9381 5.4691-15.061c0.19004-0.55035 0.28507-1.0561 0.28511-1.5173-0.00004-1.1021-0.63629-1.6868-1.9088-1.7541-0.11421 0.000013-0.17134-0.15748-0.17114-0.47249-0.000019-0.31496 0.08539-0.47246 0.25642-0.47248 0.46529 0.000025 1.0161 0.03401 1.6524 0.10189 0.58872 0.06724 1.0824 0.10088 1.4811 0.10088 0.41778 0.000013 0.90191-0.03363 1.4525-0.10088 0.56959-0.06788 1.0821-0.10189 1.5376-0.10189 0.1332 0.000025 0.19988 0.1352 0.19992 0.40556z"/>
  <path id="text2810" style="fill:#803300" d="m44 16.406c-0.00002 0.13452-0.03568 0.25807-0.10681 0.37059-0.07135 0.11256-0.14952 0.16884-0.23468 0.16882-0.70294 0.07896-1.2775 0.34606-1.7236 0.80137-0.44624 0.45536-0.90662 1.324-1.3812 2.6059l-7.264 19.377c-0.047 0.18-0.18 0.27-0.399 0.27-0.171 0-0.303-0.09-0.398-0.27l-4.073-10.086-4.686 10.086c-0.094 0.18-0.227 0.27-0.398 0.27-0.209 0-0.347-0.09-0.413-0.27l-7.135-19.378c-0.4462-1.2037-0.91614-2.0443-1.4099-2.522-0.49372-0.47761-1.1821-0.77269-2.0652-0.88526-0.07589 0.000013-0.14706-0.04787-0.21338-0.1436-0.067-0.095-0.1-0.205-0.1-0.329 0-0.31496 0.07589-0.47246 0.22773-0.47248 0.63625 0.000025 1.3009 0.03401 1.994 0.10189 0.64553 0.06724 1.2531 0.10088 1.8227 0.10088 0.5789 0.000012 1.2624-0.03364 2.0505-0.10088 0.82632-0.06789 1.5573-0.10191 2.193-0.10191 0.15236 0.000025 0.2286 0.15752 0.2286 0.47248 0 0.31501-0.04761 0.4725-0.1425 0.47249-0.63627 0.05636-1.1372 0.24741-1.5029 0.57336-0.36566 0.326-0.54848 0.75319-0.54846 1.2816-0.00002 0.26972 0.07628 0.60701 0.22859 1.0119l5.8958 15.769 3.3465-7.4877-3.1187-7.7409c-0.56035-1.3835-1.0209-2.2747-1.3816-2.6738-0.36073-0.39904-0.90675-0.64352-1.638-0.73343-0.06604 0.000012-0.12997-0.04787-0.19166-0.1436-0.06165-0.09576-0.0926-0.20532-0.0926-0.32889 0-0.31496 0.0664-0.47246 0.19904-0.47248 0.63625 0.000025 1.2201 0.03401 1.7515 0.10189 0.51282 0.06724 1.0587 0.10088 1.6376 0.10088 0.56959 0.000012 1.1725-0.03364 1.8088-0.10088 0.65538-0.06789 1.3009-0.10191 1.9366-0.10191 0.15236 0.000025 0.22859 0.15752 0.2286 0.47248-0.000018 0.31501-0.04744 0.4725-0.1425 0.47249-1.2725 0.10088-1.9088 0.52808-1.9088 1.2816-0.00002 0.33766 0.14724 0.86058 0.44155 1.5688l2.0653 4.9585 2.0505-4.5375c0.28509-0.64026 0.42763-1.1796 0.42764-1.6182-0.000016-1.0348-0.63627-1.5859-1.9088-1.6532-0.11365 0.000011-0.1704-0.15748-0.1704-0.47249-0.000018-0.11256 0.02828-0.2194 0.0852-0.32065 0.05675-0.10113 0.11384-0.1518 0.17116-0.15182 0.45544 0.000025 1.0155 0.03401 1.6802 0.10189 0.63625 0.06725 1.1584 0.10088 1.5663 0.10088 0.29435 0.000013 0.72636-0.02809 1.296-0.08444 0.72143-0.07896 1.3244-0.11833 1.8088-0.11833 0.11345 0.000025 0.17038 0.1352 0.17038 0.40556-0.000036 0.35963-0.10436 0.53942-0.31292 0.53941-0.74059 0.08985-1.3363 0.33165-1.7871 0.72519-0.45085 0.39359-1.0135 1.2876-1.688 2.6821l-2.7337 5.9869 3.702 8.9381 5.4691-15.061c0.19004-0.55035 0.28507-1.0561 0.28511-1.5173-0.00004-1.1021-0.63629-1.6868-1.9088-1.7541-0.11421 0.000013-0.17134-0.15748-0.17114-0.47249-0.000019-0.31496 0.08539-0.47246 0.25642-0.47248 0.46529 0.000025 1.0161 0.03401 1.6524 0.10189 0.58872 0.06724 1.0824 0.10088 1.4811 0.10088 0.41778 0.000013 0.90191-0.03363 1.4525-0.10088 0.56959-0.06788 1.0821-0.10189 1.5376-0.10189 0.1332 0.000025 0.19988 0.1352 0.19992 0.40556z"/>
  <path id="path3927" style="opacity:.4;color:#000000;fill:#fff" d="m56.812 20.062c-0.98112 0.11994-2.3831 0.84255-2.75 1.125-2.4677 1.8508-4.184 1.908-5.25 1.375-0.13384-0.07243-0.22158-0.22285-0.21875-0.375v1c-0.0028 0.15215 0.08491 0.30257 0.21875 0.375 1.066 0.53299 2.7823 0.4758 5.25-1.375 0.36695-0.28245 1.7689-1.0051 2.75-1.125 0.01045 0 0.02082-0.000095 0.03125 0 1.3169 0.012 2.5304 0.77944 3.4375 2.0938 0.84108 1.2187 1.384 2.902 1.4688 4.7812 0.0074-0.16348 0.03125-0.33372 0.03125-0.5 0-2.0766-0.58571-3.9565-1.5-5.2812-0.9071-1.3143-2.1206-2.0818-3.4375-2.0938-0.01043-0.000095-0.0208 0-0.03125 0zm-40.843 30.563c-0.135 0.914-0.591 2.023-1.594 3.375-0.0083 0.01577-0.02255 0.04613-0.03125 0.0625-0.18791 0.35351-0.45869 0.83973-0.6875 1.3438-0.2394 0.52735-0.43176 1.0675-0.4375 1.4062 0 0.22035 0.02 0.44244 0.0625 0.65625 0.07081-0.31437 0.2012-0.67966 0.375-1.0625 0.22881-0.50402 0.49959-0.99024 0.6875-1.3438 0.0087-0.01637 0.02295-0.04673 0.03125-0.0625 1.399-1.8862 1.7437-3.3269 1.5938-4.375zm9.2812 0c-0.16969 1.0589 0.17906 2.5096 1.625 4.4375 0.25447 0.33059 0.85607 1.4913 1.0625 2.4375 0.04266-0.21195 0.06051-0.43768 0.0625-0.65625-0.000971-0.0086 0.0011-0.02256 0-0.03125-0.11994-0.98112-0.84254-2.3831-1.125-2.75-1.0296-1.3728-1.4984-2.5124-1.625-3.4375z"/>
  <path id="path3946" style="opacity:.7;color:#000000;fill:#fff" d="m6 49.531v1h8.9688c0.01452 0.04594 0.01944 0.10663 0.03125 0.15625 0.08661-0.4802 0.06367-0.8559-0.03125-1.1562h-8.9688zm20.219 0c-0.09492 0.30035-0.11786 0.67605-0.03125 1.1562 0.01181-0.04962 0.01673-0.11032 0.03125-0.15625h14.781 3.1875 4.2812v-1h-4.2812-3.1875-14.781zm-13.907 7.969c-0.0143 0.10157-0.02955 0.21189-0.03125 0.3125 0 1.6938 0.99053 3.2082 2.5 4.25s3.562 1.6562 5.8125 1.6562 4.2955-0.61505 5.8125-1.6562 2.5312-2.5544 2.5312-4.25c0.0012-0.02081 0.0012-0.04169 0-0.0625-0.0083-0.07351-0.05056-0.14495-0.0625-0.21875-0.2424 1.3992-1.1718 2.6411-2.4688 3.5312-1.517 1.0412-3.562 1.6562-5.8125 1.6562s-4.303-0.61445-5.8125-1.6562c-1.301-0.898-2.241-2.148-2.468-3.562zm23 14.812c-0.0067 0.16447-0.03125 0.33314-0.03125 0.5 0 2.2505 0.61445 4.303 1.6562 5.8125s2.5562 2.5 4.25 2.5c0.02081 0.0012 0.04169 0.0012 0.0625 0 1.2761-0.14372 2.6274-0.83329 3.25-1.3125 2.0387-1.529 3.2338-1.6073 3.9688-1.375v-1c-0.73497-0.23229-1.9301-0.15399-3.9688 1.375-0.62256 0.47921-1.9739 1.1688-3.25 1.3125-0.02081 0.0012-0.04169 0.0012-0.0625 0-1.6938 0-3.2082-0.99053-4.25-2.5-0.96455-1.3976-1.5416-3.2578-1.625-5.3125z"/>
  <path id="path3955" style="color:#000000;fill:#fff" d="m62.562 27.906c-0.08399 2.0289-0.64524 3.8757-1.5938 5.25-1.0276 1.4889-2.503 2.4375-4.1562 2.4375-0.5766-0.0098-1.1795-0.24099-1.75-0.5-0.57053-0.25901-1.1009-0.54107-1.4375-0.71875-0.02166-0.0086-0.04259-0.01911-0.0625-0.03125-2.1379-1.6034-3.3927-1.6575-4.1562-1.375v1c0.76355-0.28246 2.0183-0.22843 4.1562 1.375 0.01991 0.01214 0.04084 0.02265 0.0625 0.03125 0.33663 0.17768 0.86697 0.45974 1.4375 0.71875s1.1734 0.4902 1.75 0.5c1.6533 0 3.1286-0.94855 4.1562-2.4375 1.0276-1.4889 1.625-3.5188 1.625-5.75 0-0.17179-0.02424-0.33083-0.03125-0.5zm-0.593 22.719c-0.135 0.914-0.591 2.023-1.594 3.375-0.0083 0.01577-0.02255 0.04613-0.03125 0.0625-0.18791 0.35351-0.45869 0.83973-0.6875 1.3438-0.2394 0.52735-0.43176 1.0675-0.4375 1.4062 0 0.22035 0.02 0.44244 0.0625 0.65625 0.07081-0.31437 0.2012-0.67966 0.375-1.0625 0.22881-0.50402 0.49959-0.99024 0.6875-1.3438 0.0087-0.01637 0.02295-0.04673 0.03125-0.0625 1.399-1.8862 1.7437-3.3269 1.5938-4.375zm9.2812 0c-0.16969 1.0589 0.17906 2.5096 1.625 4.4375 0.25447 0.33059 0.85607 1.4913 1.0625 2.4375 0.04266-0.21195 0.06051-0.43768 0.0625-0.65625-0.000971-0.0086 0.0011-0.02256 0-0.03125-0.11994-0.98112-0.84254-2.3831-1.125-2.75-1.0296-1.3728-1.4984-2.5124-1.625-3.4375z"/>
  <path id="path3965" style="opacity:.3;color:#000000;fill:#fff" d="m49.531 49.531v1h3.2812 3.1875 4.9688c0.01452 0.04594 0.01944 0.10663 0.03125 0.15625 0.08661-0.4802 0.06368-0.8559-0.03125-1.1562h-4.9688-3.1875-3.2812zm22.688 0c-0.09493 0.30035-0.11786 0.67605-0.03125 1.1562 0.01181-0.04962 0.01673-0.11032 0.03125-0.15625h17.781v-1h-17.781zm-13.907 7.969c-0.0143 0.10157-0.02955 0.21189-0.03125 0.3125 0 1.6938 0.99053 3.2082 2.5 4.25s3.562 1.6562 5.8125 1.6562 4.2955-0.61505 5.8125-1.6562 2.5312-2.5544 2.5312-4.25c0.0012-0.02081 0.0012-0.04169 0-0.0625-0.0083-0.07351-0.05056-0.14495-0.0625-0.21875-0.2424 1.3992-1.1718 2.6411-2.4688 3.5312-1.517 1.0412-3.562 1.6562-5.8125 1.6562s-4.303-0.61445-5.8125-1.6562c-1.301-0.898-2.241-2.148-2.468-3.562zm-17.125 7c-1.2867 0-2.4743 0.75019-3.375 2.0625-0.90072 1.3123-1.4688 3.1615-1.4688 5.2188 0 0.17159 0.02348 0.3314 0.03125 0.5 0.08535-1.8518 0.61191-3.5159 1.4375-4.7188 0.90072-1.3123 2.0883-2.0625 3.375-2.0625 0.30898 0.0052 0.85305 0.1693 1.375 0.40625s1.016 0.52925 1.375 0.71875c2.4409 1.8057 4.177 1.9272 5.2812 1.375 0.1817-0.07957 0.3089-0.27042 0.3125-0.46875v-1c-0.003 0.199-0.131 0.389-0.312 0.469-1.105 0.552-2.841 0.431-5.281-1.375-0.36-0.189-0.854-0.482-1.376-0.719-0.521-0.237-1.066-0.401-1.374-0.406z"/>
 </g>
 <g id="layer3" style="display:none">
  <rect id="rect3171" style="opacity:.5;filter:url(#filter3794);stroke:#fff;stroke-linecap:round;stroke-width:.5;display:inline;fill:url(#linearGradient3121)" clip-path="url(#clipPath3613-0)" rx="12" ry="12" height="66" width="66" y="15" x="15"/>
 </g>
</svg>
