<?xml version="1.0" encoding="UTF-8" standalone="no"?>
<!-- Created with Inkscape (http://www.inkscape.org/) -->
<svg id="svg2408" xmlns:rdf="http://www.w3.org/1999/02/22-rdf-syntax-ns#" xmlns="http://www.w3.org/2000/svg" height="96" width="96" version="1.0" xmlns:cc="http://creativecommons.org/ns#" xmlns:xlink="http://www.w3.org/1999/xlink" xmlns:dc="http://purl.org/dc/elements/1.1/">
 <defs id="defs2410">
  <linearGradient id="ButtonShadow" y2="7.0165" gradientUnits="userSpaceOnUse" x2="45.448" gradientTransform="scale(1.0059 .99417)" y1="92.54" x1="45.448">
   <stop id="stop3750" offset="0"/>
   <stop id="stop3752" style="stop-opacity:.58824" offset="1"/>
  </linearGradient>
  <linearGradient id="linearGradient3737">
   <stop id="stop3739" style="stop-color:#fff" offset="0"/>
   <stop id="stop3741" style="stop-color:#fff;stop-opacity:0" offset="1"/>
  </linearGradient>
  <filter id="filter3174" color-interpolation-filters="sRGB">
   <feGaussianBlur id="feGaussianBlur3176" stdDeviation="1.71"/>
  </filter>
  <linearGradient id="linearGradient3188" y2="63.893" xlink:href="#linearGradient3737" gradientUnits="userSpaceOnUse" x2="36.357" y1="6" x1="36.357"/>
  <radialGradient id="radialGradient3619" xlink:href="#linearGradient3737" gradientUnits="userSpaceOnUse" cy="90.172" cx="48" gradientTransform="matrix(1.1573 0 0 .99591 -7.551 .19713)" r="42"/>
  <linearGradient id="linearGradient3617" y2="5.9877" gradientUnits="userSpaceOnUse" x2="48" gradientTransform="translate(0,-96)" y1="90" x1="48">
   <stop id="stop3189" style="stop-color:#ff0a0a" offset="0"/>
   <stop id="stop4551" style="stop-color:#c70404" offset=".5"/>
   <stop id="stop3191" style="stop-color:#7c0000" offset="1"/>
  </linearGradient>
  <linearGradient id="ButtonShadow-0" y2="7.0165" gradientUnits="userSpaceOnUse" x2="45.448" gradientTransform="matrix(1.0059 0 0 .99417 100 0)" y1="92.54" x1="45.448">
   <stop id="stop3750-8" offset="0"/>
   <stop id="stop3752-5" style="stop-opacity:.58824" offset="1"/>
  </linearGradient>
  <linearGradient id="linearGradient3780" y2="90.239" xlink:href="#ButtonShadow-0" gradientUnits="userSpaceOnUse" x2="32.251" gradientTransform="matrix(1.0238 0 0 1.0119 -1.1429 -98.071)" y1="6.1317" x1="32.251"/>
  <linearGradient id="linearGradient3721" y2="90.239" xlink:href="#ButtonShadow-0" gradientUnits="userSpaceOnUse" x2="32.251" gradientTransform="translate(0,-97)" y1="6.1317" x1="32.251"/>
  <filter id="filter4689" color-interpolation-filters="sRGB">
   <feGaussianBlur id="feGaussianBlur4691" stdDeviation="0.65275495"/>
  </filter>
  <filter id="filter3503" height="1.0634" width="1.5008" color-interpolation-filters="sRGB" y="-.031692" x="-.25042">
   <feGaussianBlur id="feGaussianBlur3505" stdDeviation="1.236517"/>
  </filter>
  <filter id="filter3499" height="1.0712" width="1.4674" color-interpolation-filters="sRGB" y="-.035587" x="-.23372">
   <feGaussianBlur id="feGaussianBlur3501" stdDeviation="1.236517"/>
  </filter>
  <filter id="filter3513" height="1.0531" width="1.502" color-interpolation-filters="sRGB" y="-.026537" x="-0.251">
   <feGaussianBlur id="feGaussianBlur3515" stdDeviation="0.78924581"/>
  </filter>
  <filter id="filter3525" height="1.0557" width="1.6175" color-interpolation-filters="sRGB" y="-.027864" x="-.30875">
   <feGaussianBlur id="feGaussianBlur3527" stdDeviation="1.0871431"/>
  </filter>
  <radialGradient id="radialGradient3784" gradientUnits="userSpaceOnUse" cy="54.148" cx="46.29" r="13.781">
   <stop id="stop4461" style="stop-color:#fff" offset="0"/>
   <stop id="stop3483" style="stop-color:#fff;stop-opacity:.34146" offset=".5"/>
   <stop id="stop4463" style="stop-color:#fff;stop-opacity:0" offset="1"/>
  </radialGradient>
  <linearGradient id="linearGradient4599" y2="74.247" gradientUnits="userSpaceOnUse" x2="57.663" gradientTransform="matrix(.68946 0 0 .68946 5.4582 5.1965)" y1="74.247" x1="63.19">
   <stop id="stop4595" offset="0"/>
   <stop id="stop4597" style="stop-opacity:0" offset="1"/>
  </linearGradient>
  <linearGradient id="linearGradient4459-2">
   <stop id="stop4461-7" style="stop-color:#fff" offset="0"/>
   <stop id="stop3483-0" style="stop-color:#fff;stop-opacity:.34146" offset=".5"/>
   <stop id="stop4463-3" style="stop-color:#fff;stop-opacity:0" offset="1"/>
  </linearGradient>
  <radialGradient id="radialGradient3889" xlink:href="#linearGradient4459-2" gradientUnits="userSpaceOnUse" cy="54.148" cx="46.29" r="13.781"/>
  <linearGradient id="linearGradient3901" y2="25.297" xlink:href="#linearGradient4459-2" spreadMethod="reflect" gradientUnits="userSpaceOnUse" x2="148.75" gradientTransform="matrix(.71186 0 0 .71186 2.4407 2.4407)" y1="25.297" x1="64"/>
  <radialGradient id="radialGradient3904" gradientUnits="userSpaceOnUse" cy="6.7089" cx="-26.369" gradientTransform="matrix(.57988 0 8.2928e-8 0.316 52.085 12.067)" r="59">
   <stop id="stop4629" style="stop-color:#595959" offset="0"/>
   <stop id="stop4625" offset="1"/>
  </radialGradient>
 </defs>
 <metadata id="metadata2413">
  <rdf:RDF>
   <cc:Work rdf:about="">
    <dc:format>image/svg+xml</dc:format>
    <dc:type rdf:resource="http://purl.org/dc/dcmitype/StillImage"/>
   </cc:Work>
  </rdf:RDF>
 </metadata>
 <g id="layer2" style="display:none">
  <rect id="rect3745" style="opacity:.9;filter:url(#filter3174);fill:url(#ButtonShadow)" rx="6" ry="6" height="85" width="86" y="7" x="5"/>
 </g>
 <g id="layer3">
  <path id="path3786" style="opacity:0.08;fill:url(#linearGradient3780)" d="m12-95.031c-5.5111 0-10.031 4.5202-10.031 10.031v71c0 5.5111 4.5202 10.031 10.031 10.031h72c5.5111 0 10.031-4.5202 10.031-10.031v-71c0-5.5111-4.5202-10.031-10.031-10.031h-72z" transform="scale(1,-1)"/>
  <path id="path3778" style="opacity:.1;fill:url(#linearGradient3780)" d="m12-94.031c-4.9716 0-9.0312 4.0596-9.0312 9.0312v71c0 4.9716 4.0596 9.0312 9.0312 9.0312h72c4.9716 0 9.0312-4.0596 9.0312-9.0312v-71c0-4.9716-4.0596-9.0312-9.0312-9.0312h-72z" transform="scale(1,-1)"/>
  <path id="path3770" style="opacity:.2;fill:url(#linearGradient3780)" d="m12-93c-4.4091 0-8 3.5909-8 8v71c0 4.4091 3.5909 8 8 8h72c4.4091 0 8-3.5909 8-8v-71c0-4.4091-3.5909-8-8-8h-72z" transform="scale(1,-1)"/>
  <rect id="rect3723" style="opacity:.3;fill:url(#linearGradient3780)" transform="scale(1,-1)" rx="7" ry="7" height="85" width="86" y="-92" x="5"/>
  <rect id="rect3716" style="opacity:.45;fill:url(#linearGradient3721)" transform="scale(1,-1)" rx="6" ry="6" height="84" width="84" y="-91" x="6"/>
 </g>
 <g id="layer1">
  <rect id="rect2419" style="fill:url(#linearGradient3617)" transform="scale(1,-1)" rx="6" ry="6" height="84" width="84" y="-90" x="6"/>
  <g id="g3529" transform="matrix(.71186 0 0 .70954 2.4407 2.4523)">
   <path id="path3489" style="opacity:.3;filter:url(#filter3503);fill:#680000;fill-opacity:.75;fill-rule:evenodd" d="m29.682 23.053s-10.386 51.34 3.5336 93.64c-10.247-65.724 4.5936-92.226 4.5936-92.226l-8.1272-1.4134z"/>
   <path id="path3487" style="opacity:.3;filter:url(#filter3499);fill:#680000;fill-opacity:.75;fill-rule:evenodd" d="m15.548 19.873s-10.74 41.446 0.70671 83.392c-6.3604-60.424 7.4205-81.979 7.4205-81.979l-8.1272-1.4134z"/>
   <path id="path3517" style="opacity:.3;filter:url(#filter3513);fill:#f55;fill-opacity:.75;fill-rule:evenodd" transform="matrix(.99964 -.029857 .026689 1.1183 22.576 6.0344)" d="m21.555 103.62s-4.2403-38.163 3.5336-71.378c-6.4975 16.731-11.307 38.163-3.5336 71.378z"/>
   <path id="path3507" style="opacity:.3;filter:url(#filter3513);fill:#f55;fill-opacity:.75;fill-rule:evenodd" transform="matrix(.99964 -.026689 .026689 .99964 -1.452 6.2468)" d="m21.555 103.62s-4.2403-38.163 3.5336-71.378c-6.4975 16.731-11.307 38.163-3.5336 71.378z"/>
   <path id="path3519" style="opacity:.3;filter:url(#filter3525);fill:#680000;fill-opacity:.75;fill-rule:evenodd" transform="matrix(1 0 0 0.67 0 7.6075)" d="m52.297 23.053s-1.9056 49.758 3.5336 93.64c-2.1201-64.67 4.5936-92.226 4.5936-92.226l-8.127-1.414z"/>
  </g>
  <g id="g3536" transform="matrix(-.71186 0 0 .70954 94.557 2.4523)">
   <path id="path3538" style="opacity:.3;filter:url(#filter3503);fill:#680000;fill-opacity:.75;fill-rule:evenodd" d="m29.682 23.053s-10.386 51.34 3.5336 93.64c-10.247-65.724 4.5936-92.226 4.5936-92.226l-8.1272-1.4134z"/>
   <path id="path3540" style="opacity:.3;filter:url(#filter3499);fill:#680000;fill-opacity:.75;fill-rule:evenodd" d="m15.548 19.873s-10.74 41.446 0.70671 83.392c-6.3604-60.424 7.4205-81.979 7.4205-81.979l-8.1272-1.4134z"/>
   <path id="path3542" style="opacity:.3;filter:url(#filter3513);fill:#f55;fill-opacity:.75;fill-rule:evenodd" transform="matrix(.99964 -.029857 .026689 1.1183 22.576 6.0344)" d="m21.555 103.62s-4.2403-38.163 3.5336-71.378c-6.4975 16.731-11.307 38.163-3.5336 71.378z"/>
   <path id="path3544" style="opacity:.3;filter:url(#filter3513);fill:#f55;fill-opacity:.75;fill-rule:evenodd" transform="matrix(.99964 -.026689 .026689 .99964 -1.452 6.2468)" d="m21.555 103.62s-4.2403-38.163 3.5336-71.378c-6.4975 16.731-11.307 38.163-3.5336 71.378z"/>
   <path id="path3546" style="opacity:.3;filter:url(#filter3525);fill:#680000;fill-opacity:.75;fill-rule:evenodd" transform="matrix(1 0 0 0.67 0 7.6075)" d="m52.297 23.053s-1.9056 49.758 3.5336 93.64c-2.1201-64.67 4.5936-92.226 4.5936-92.226l-8.127-1.414z"/>
  </g>
  <path id="path4669" style="opacity:.8;filter:url(#filter4689);fill:#ffd903" d="m89.45 33.898a25.486 9.8984 0 1 1 -50.972 0 25.486 9.8984 0 1 1 50.972 0z" transform="matrix(.66937 0 0 1.0212 5.1589 -9.4603)"/>
  <path id="path4655" style="fill-opacity:.75;fill-rule:evenodd" d="m39.729 22.845c2.0075 0.02339 2.6665 2.4579 1.9211 4.018-0.45695 2.166-2.5351 3.3516-3.3464 5.3067-1.0464 2.6341-0.14678 5.5251 1.1659 7.8868 1.0602 2.2183 2.3696 4.8546 4.9612 5.5179 1.5253 0.48426 2.7862-0.91415 4.2828-0.5866 1.8921 0.32011 3.7899 1.9926 5.7305 0.92991 1.298-0.949 2.068-2.4435 2.9136-3.7767 1.8954-3.2823 1.258-7.5345-0.89017-10.537-0.8473-1.3806-2.157-2.4622-2.8639-3.9159-0.51973-2.0341 0.66826-4.1727-0.1881-6.1597-1.2085-1.4935-3.3856-0.87502-4.9804-0.4897-2.2677 0.70647-4.6685 2.0183-7.0804 1.1617-0.60475-0.07335-1.2405 0.17181-1.6258 0.64508z"/>
  <path id="path2678" style="fill-opacity:.70588;fill-rule:evenodd" d="m18.791 41.374v0c0-4.4899-8.4806 5.7666-7.5463 9.026 1.1432 3.9883 0.3775 5.0144 4.7793 5.0144 2.6364 0 4.0802-2.1631 5.2824-3.7608 1.76-2.339 2.2639-3.5293 2.2639-6.0173 0-0.7923-1.6562-2.8927-2.2639-3.4499-0.89342-0.81927-0.61524-0.43354-2.5154-0.81234z"/>
  <path id="path2684" style="fill-opacity:.70588;fill-rule:evenodd" d="m76.642 41.81c-2.2813-1.5665-6.5961-2.0338-6.2583 1.149 0.43305 4.0804 1.7853 5.307 3.2897 7.2967 0.53742 0.7108 3.317 3.2405 4.3128 3.6422 2.3797 0.95996 3.6871-0.64681 4.8687-2.1032 1.7354-2.139-1.9549-7.5933-3.2588-9.3178-1.0919-1.4441-0.93328-1.3605-2.0319-1.8037-0.45319-0.18282-0.61484 0.75784-0.92228 1.1368z"/>
  <path id="path3456" style="fill-opacity:.70588;fill-rule:evenodd" d="m36.556 57.415c-0.58453-0.46305-2.7089-0.86975-3.7291-0.94664-0.61575-0.04641-2.9553 2.0134-3.6033 2.6569-1.1626 1.1547-2.3715 2.7314-3.4522 4.1991-0.72823 0.989-1.2113 2.2403-1.806 3.9904-0.69262 2.0383-0.33099 2.9609-0.90736 4.6572-0.57672 1.6973 0.30063 2.4167 1.1799 3.1506 0.46135 0.38506 2.5196 0.4476 3.3343 0.78377 0.76777 0.31678 1.7737 1.0278 2.675 1.3996 0.78771 0.32501 1.3712 0.2901 2.7569-0.93433 1.2566-1.1104 1.9722 0.32664 4.2479-1.799 1.0316-0.96354 2.3003-4.1204 2.73-5.3851 0.77909-2.2928 0.36616-4.2074 0.22705-4.6419-0.45833-1.4318-0.62451-3.5562-1.1545-5.2119-0.58195-1.8179-1.0066-0.81186-2.4986-1.9188z"/>
  <path id="path3458" style="fill-opacity:.70588;fill-rule:evenodd" d="m59.184 58.333c0.53672-1.6826 3.3898-1.0166 5.1476-0.23088 1.9469 0.8702 2.1394 1.2461 3.56 3.1199 1.9732 2.6026 2.6021 2.5294 3.1714 5.2336 0.57199 2.7168-1.0566 3.9016-1.6082 5.6306-0.28979 0.90846-1.6562 2.0478-2.1723 2.686-0.61125 0.75581-1.8851 1.0948-2.8151 1.7557-1.3936 0.99032-3.2962-0.86788-4.224-1.4862-1.598-1.0649-1.9384-3.3683-2.1601-4.4215-0.33436-1.5881-1.6092-2.605-2.4779-4.6037-0.57014-1.3119-1.5197-4.299-1.6404-4.8724-0.24122-1.1457 1.1527-1.8087 1.7536-2.5516 0.42839-0.52969 1.2775-0.97817 2.5048-1.372 0.76762-0.24629 0.34645-0.30058 0.96058 1.1125z"/>
  <path id="path3460" style="fill-opacity:.70588;fill-rule:evenodd" d="m20.304 81.611c-1.0954-0.04144-2.4126 0.13304-3.5148 0.13304-1.648 0-5.2945 3.1751-5.2945 4.7672 0 0.70898 0.10147 1.8751 0.22246 3.1486 0.26356 0.03207 0.52832 0.06648 0.80085 0.06648h13.681c0.05766-0.67265-0.04065-1.345-0.35593-1.9734-0.73548-1.4662-1.7157-2.9837-2.2691-3.2595-0.0823-0.04101-1.084-2.4542-2.2691-2.7495-0.29582-0.07371-0.63593-0.11922-1.0011-0.13304z"/>
  <path id="path3462" style="fill-opacity:.70588;fill-rule:evenodd" d="m77.075 80.458c-0.42036 0.005-0.83169 0.09042-1.179 0.28825-1.7882 1.0185-5.5392 5.1393-5.5392 6.0089 0 0.64874 0.11499 1.7546 0.31144 2.9712h12.814c0.39682 0 0.7799-0.04378 1.1568-0.11087-0.04983-0.78389-0.24643-1.559-0.44492-2.3504-0.34468-1.3742-1.2103-2.8674-2.0244-4.5233-0.74665-1.5188-1.4423-1.5401-3.2701-1.9956-0.42211-0.10518-1.1236-0.29701-1.8242-0.28825z"/>
  <path id="path4457" style="opacity:.7;fill:url(#radialGradient3784)" d="m60.071 54.148a13.781 13.781 0 1 1 -27.562 0 13.781 13.781 0 1 1 27.562 0z" transform="matrix(1.2595 0 0 1.2553 -29.447 -27.353)"/>
 </g>
 <g id="layer4">
  <path id="path4553" style="opacity:.2;block-progression:tb;text-indent:0;color:#000000;text-transform:none;fill:#fc0" d="m48.594 14.906-0.969 0.219c5.039 25.063-1.885 49.503 1.969 74.875l1-0.125c-3.8121-25.1 3.0982-49.611-2-74.969z"/>
  <path id="path4591" style="opacity:.4;fill:url(#linearGradient4599)" d="m44.219 16.228v73.772h5.4941c-3.71-24.941 2.876-49.062-1.724-73.772h-3.7705z"/>
 </g>
 <g id="layer6">
  <path id="path3926" style="opacity:.1" d="m12 9c-3.324 0-6 2.676-6 6v0.531 3.469 1.906c9.2696 4.4145 24.62 7.3125 42 7.3125s32.73-2.898 42-7.3125v-1.906-3.469-0.531c0-3.324-2.676-6-6-6h-0.531-70.938-0.531z"/>
  <path id="path3924" style="opacity:.15" d="m12 8c-3.324 0-6 2.676-6 6v0.531 3.469 1.906c9.2696 4.4145 24.62 7.3125 42 7.3125s32.73-2.898 42-7.3125v-1.906-3.469-0.531c0-3.324-2.676-6-6-6h-0.531-70.938-0.531z"/>
  <path id="path3920" style="opacity:.3" d="m12 7c-3.324 0-6 2.676-6 6v0.531 3.469 1.906c9.2696 4.4145 24.62 7.3125 42 7.3125s32.73-2.898 42-7.3125v-1.906-3.469-0.531c0-3.324-2.676-6-6-6h-0.531-70.938-0.531z"/>
  <path id="path4612" style="fill:url(#radialGradient3904)" d="m12 6c-3.324 0-6 2.676-6 6v0.531 3.469 1.906c9.2696 4.4145 24.62 7.3125 42 7.3125s32.73-2.898 42-7.3125v-1.906-3.469-0.531c0-3.324-2.676-6-6-6h-0.531-70.938-0.531z"/>
  <path id="path4617" style="opacity:.2;fill:url(#linearGradient3901)" d="m6 15.677v2.2246c9.27 4.414 24.62 7.318 42 7.318s32.73-2.9044 42-7.3189v-2.2246c-9.2697 4.0467-24.62 6.696-42 6.696s-32.73-2.6493-42-6.696z"/>
  <path id="path3477" style="opacity:.7;fill:url(#radialGradient3889)" d="m60.071 54.148a13.781 13.781 0 1 1 -27.562 0 13.781 13.781 0 1 1 27.562 0z" transform="matrix(.47458 0 0 .47458 14.179 -11.022)"/>
 </g>
 <g id="layer5">
  <path id="path3615" style="opacity:.2;fill:url(#radialGradient3619)" d="m12 90c-3.324 0-6-2.676-6-6v-2-68-2c0-0.33472 0.04135-0.6507 0.09375-0.96875 0.0487-0.2956 0.09704-0.59692 0.1875-0.875 0.0099-0.03 0.0209-0.063 0.0313-0.094 0.0989-0.2873 0.2349-0.547 0.375-0.812 0.1446-0.2735 0.3156-0.5356 0.5-0.7812 0.1844-0.2457 0.3738-0.4735 0.5937-0.6876 0.44-0.428 0.943-0.8145 1.5-1.0937 0.2786-0.1396 0.5735-0.2469 0.8748-0.3437-0.256 0.1002-0.4865 0.2362-0.7185 0.375-0.00741 0.0044-0.023866-0.0045-0.03125 0-0.031933 0.0193-0.062293 0.04251-0.09375 0.0625-0.1204 0.0767-0.23102 0.16351-0.34375 0.25-0.10617 0.0808-0.21328 0.16111-0.3125 0.25-0.1779 0.1614-0.3474 0.3453-0.5 0.5312-0.1075 0.1303-0.2183 0.2653-0.3124 0.4063-0.0251 0.0383-0.0385 0.0858-0.0626 0.125-0.0647 0.103-0.1302 0.2045-0.1874 0.3124-0.1011 0.1948-0.2057 0.4158-0.2813 0.625-0.008 0.0219-0.0236 0.0406-0.0313 0.0626-0.0318 0.0919-0.0358 0.1868-0.0624 0.2812-0.0304 0.1066-0.0704 0.203-0.0938 0.3125-0.0729 0.3415-0.125 0.6985-0.125 1.0625v2 68 2c0 2.7818 2.2182 5 5 5h2 68 2c2.7818 0 5-2.2182 5-5v-2-68-2c0-0.364-0.052-0.721-0.125-1.0625-0.044-0.2069-0.088-0.3977-0.156-0.5937-0.008-0.022-0.024-0.0407-0.031-0.0626-0.063-0.1737-0.139-0.3674-0.219-0.5312-0.042-0.0828-0.079-0.17-0.125-0.25-0.055-0.0972-0.127-0.1884-0.188-0.2812-0.094-0.141-0.205-0.276-0.312-0.4063-0.143-0.1745-0.303-0.347-0.469-0.5-0.011-0.0102-0.02-0.0211-0.031-0.0313-0.139-0.1255-0.285-0.2344-0.438-0.3437-0.102-0.0731-0.204-0.1534-0.312-0.2187-0.0074-0.0045-0.02384 0.0044-0.03125 0-0.23204-0.13873-0.46255-0.27478-0.71875-0.375 0.30153 0.0968 0.59646 0.20414 0.875 0.34375 0.55709 0.27922 1.0601 0.66569 1.5 1.0938 0.21997 0.21403 0.40937 0.44186 0.59375 0.6875s0.35541 0.50774 0.5 0.78125c0.14012 0.26505 0.27614 0.52473 0.375 0.8125 0.01041 0.03078 0.02133 0.06274 0.03125 0.09375 0.09046 0.27808 0.1388 0.5794 0.1875 0.875 0.053 0.318 0.094 0.634 0.094 0.969v2 68 2c0 3.324-2.676 6-6 6h-72z"/>
  <path id="rect3728" style="opacity:.3;fill:url(#linearGradient3188)" d="m12 6c-3.324 0-6 2.676-6 6v2 68 2c0 0.33472 0.04135 0.6507 0.09375 0.96875 0.0487 0.2956 0.09704 0.59692 0.1875 0.875 0.00988 0.03038 0.020892 0.0636 0.03125 0.09375 0.098865 0.28777 0.23488 0.54745 0.375 0.8125 0.14459 0.27351 0.31562 0.53562 0.5 0.78125 0.18438 0.24564 0.37378 0.47347 0.59375 0.6875 0.43995 0.42806 0.94291 0.81453 1.5 1.0938 0.27854 0.13961 0.57347 0.24695 0.875 0.34375-0.2562-0.10022-0.48671-0.23627-0.71875-0.375-0.00741-0.0044-0.023866 0.0045-0.03125 0-0.031933-0.0193-0.062293-0.04251-0.09375-0.0625-0.1204-0.0767-0.23102-0.16351-0.34375-0.25-0.10617-0.0808-0.21328-0.16111-0.3125-0.25-0.1778-0.162-0.3473-0.346-0.4999-0.531-0.1075-0.131-0.2183-0.266-0.3124-0.407-0.0251-0.038-0.0385-0.086-0.0626-0.125-0.0647-0.103-0.1302-0.204-0.1874-0.312-0.1011-0.195-0.2057-0.416-0.2813-0.625-0.008-0.022-0.0236-0.041-0.0313-0.063-0.0318-0.092-0.0358-0.187-0.0624-0.281-0.0304-0.107-0.0704-0.203-0.0938-0.313-0.0729-0.341-0.125-0.698-0.125-1.062v-2-68-2c0-2.782 2.2182-5 5-5h2 68 2c2.7818 0 5 2.2182 5 5v2 68 2c0 0.3643-0.05212 0.72099-0.125 1.0625-0.04415 0.20689-0.08838 0.39766-0.15625 0.59375-0.0077 0.02195-0.0233 0.04069-0.03125 0.0625-0.06274 0.17374-0.13838 0.36745-0.21875 0.53125-0.04158 0.0828-0.07904 0.16995-0.125 0.25-0.0546 0.09721-0.12677 0.18835-0.1875 0.28125-0.09411 0.14096-0.20492 0.276-0.3125 0.40625-0.14317 0.17445-0.30314 0.347-0.46875 0.5-0.01117 0.0102-0.01998 0.02115-0.03125 0.03125-0.13839 0.12556-0.28509 0.23444-0.4375 0.34375-0.10257 0.07315-0.20432 0.15336-0.3125 0.21875-0.0074 0.0045-0.02384-0.0044-0.03125 0-0.23204 0.13873-0.46255 0.27478-0.71875 0.375 0.30153-0.0968 0.59646-0.20414 0.875-0.34375 0.55709-0.27922 1.0601-0.66569 1.5-1.0938 0.21997-0.21403 0.40937-0.44186 0.59375-0.6875s0.35541-0.50774 0.5-0.78125c0.14012-0.26505 0.27614-0.52473 0.375-0.8125 0.01041-0.03078 0.02133-0.06274 0.03125-0.09375 0.09046-0.27808 0.1388-0.5794 0.1875-0.875 0.053-0.318 0.094-0.634 0.094-0.969v-2-68-2c0-3.324-2.676-6-6-6h-72z"/>
 </g>
</svg>
