<?xml version="1.0" encoding="UTF-8" standalone="no"?>
<!-- Created with Inkscape (http://www.inkscape.org/) -->
<svg id="svg2408" xmlns:rdf="http://www.w3.org/1999/02/22-rdf-syntax-ns#" xmlns="http://www.w3.org/2000/svg" height="96" width="96" version="1.0" xmlns:cc="http://creativecommons.org/ns#" xmlns:xlink="http://www.w3.org/1999/xlink" xmlns:dc="http://purl.org/dc/elements/1.1/">
 <defs id="defs2410">
  <linearGradient id="ButtonShadow" y2="7.0165" gradientUnits="userSpaceOnUse" x2="45.448" gradientTransform="scale(1.0059 .99417)" y1="92.54" x1="45.448">
   <stop id="stop3750" offset="0"/>
   <stop id="stop3752" style="stop-opacity:.58824" offset="1"/>
  </linearGradient>
  <filter id="filter3174" color-interpolation-filters="sRGB">
   <feGaussianBlur id="feGaussianBlur3176" stdDeviation="1.71"/>
  </filter>
  <filter id="filter3794" height="1.384" width="1.384" color-interpolation-filters="sRGB" y="-.192" x="-.192">
   <feGaussianBlur id="feGaussianBlur3796" stdDeviation="5.28"/>
  </filter>
  <linearGradient id="linearGradient3613" y2="138.66" gradientUnits="userSpaceOnUse" x2="48" y1="20.221" x1="48">
   <stop id="stop3739" style="stop-color:#fff" offset="0"/>
   <stop id="stop3741" style="stop-color:#fff;stop-opacity:0" offset="1"/>
  </linearGradient>
  <linearGradient id="ButtonShadow-0" y2="7.0165" gradientUnits="userSpaceOnUse" x2="45.448" gradientTransform="matrix(1.0059 0 0 .99417 100 0)" y1="92.54" x1="45.448">
   <stop id="stop3750-8" offset="0"/>
   <stop id="stop3752-5" style="stop-opacity:.58824" offset="1"/>
  </linearGradient>
  <linearGradient id="linearGradient3780" y2="90.239" xlink:href="#ButtonShadow-0" gradientUnits="userSpaceOnUse" x2="32.251" gradientTransform="matrix(1.0238 0 0 1.0119 -1.1429 -98.071)" y1="6.1317" x1="32.251"/>
  <linearGradient id="linearGradient3721" y2="90.239" xlink:href="#ButtonShadow-0" gradientUnits="userSpaceOnUse" x2="32.251" gradientTransform="translate(0,-97)" y1="6.1317" x1="32.251"/>
  <clipPath id="clipPath4355">
   <rect id="rect4357" style="fill:#fff" rx="6" ry="6" height="80" width="84" y="6" x="6"/>
  </clipPath>
  <radialGradient id="radialGradient4375" gradientUnits="userSpaceOnUse" cy="87.792" cx="48" gradientTransform="matrix(1 -6.7115e-8 8.4282e-8 1.2558 110 -24.506)" r="42">
   <stop id="stop4369" style="stop-color:#fff;stop-opacity:.71756" offset="0"/>
   <stop id="stop4371" style="stop-color:#fff" offset="1"/>
  </radialGradient>
  <linearGradient id="linearGradient3228" y2="88" spreadMethod="reflect" gradientUnits="userSpaceOnUse" x2="48" y1="88" x1="90">
   <stop id="stop3894" style="stop-opacity:.58824" offset="0"/>
   <stop id="stop3896" style="stop-opacity:.47059" offset=".11780"/>
   <stop id="stop3898" style="stop-opacity:.39216" offset=".23810"/>
   <stop id="stop3900" style="stop-opacity:.31373" offset="1"/>
  </linearGradient>
  <radialGradient id="radialGradient3891" gradientUnits="userSpaceOnUse" cy="32" cx="64" r="32">
   <stop id="stop3754-6-9" style="stop-color:#fff" offset="0"/>
   <stop id="stop3756-2-8" style="stop-color:#fff" offset=".77642"/>
   <stop id="stop3758-7-4" style="stop-color:#bebdc7;stop-opacity:0" offset="1"/>
  </radialGradient>
  <radialGradient id="radialGradient3897" gradientUnits="userSpaceOnUse" cy="43.852" cx="52.148" gradientTransform="matrix(1.2642 -5.2425e-8 5.305e-8 1.2792 -13.775 -12.245)" r="32">
   <stop id="stop3901" style="stop-color:#f7edc4" offset="0"/>
   <stop id="stop3903" style="stop-color:#c7b586" offset="0.8"/>
   <stop id="stop3905" style="stop-color:#9d8c64" offset="1"/>
  </radialGradient>
  <linearGradient id="linearGradient3818" y2="43" gradientUnits="userSpaceOnUse" x2="75" gradientTransform="matrix(0 1 -1 0 91 -5)" y1="43" x1="21">
   <stop id="stop3814" style="stop-color:#a49265" offset="0"/>
   <stop id="stop3816" style="stop-color:#ece8df" offset="1"/>
  </linearGradient>
  <linearGradient id="linearGradient4031" y2="87.368" gradientUnits="userSpaceOnUse" x2="28.572" y1="22.918" x1="59.578">
   <stop id="stop4027" style="stop-color:#a18a56" offset="0"/>
   <stop id="stop4029" style="stop-color:#a18a56;stop-opacity:0" offset="1"/>
  </linearGradient>
  <filter id="filter4045" color-interpolation-filters="sRGB">
   <feGaussianBlur id="feGaussianBlur4047" stdDeviation="0.46710064"/>
  </filter>
  <filter id="filter4057" color-interpolation-filters="sRGB">
   <feGaussianBlur id="feGaussianBlur4059" stdDeviation="0.4121875"/>
  </filter>
  <filter id="filter4082" color-interpolation-filters="sRGB">
   <feGaussianBlur id="feGaussianBlur4084" stdDeviation="0.3846875"/>
  </filter>
  <linearGradient id="linearGradient3191" y2="55.536" gradientUnits="userSpaceOnUse" x2="64.996" y1="-.90906" x1="64.996">
   <stop id="stop4092-1" style="stop-color:#fff" offset="0"/>
   <stop id="stop4094-0" style="stop-color:#fff;stop-opacity:0" offset="1"/>
  </linearGradient>
  <radialGradient id="radialGradient4316" xlink:href="#linearGradient4263" gradientUnits="userSpaceOnUse" cy="18" cx="18" r="2"/>
  <linearGradient id="linearGradient4263">
   <stop id="stop4265" style="stop-color:#fff" offset="0"/>
   <stop id="stop4279" style="stop-color:#fff;stop-opacity:.24031" offset=".5"/>
   <stop id="stop4267" style="stop-color:#fff;stop-opacity:0" offset="1"/>
  </linearGradient>
  <linearGradient id="linearGradient4429-9" y2="82.455" xlink:href="#linearGradient4384-6" spreadMethod="reflect" gradientUnits="userSpaceOnUse" x2="112.12" y1="82" x1="48"/>
  <linearGradient id="linearGradient4384-6">
   <stop id="stop4386-9" style="stop-color:#fff" offset="0"/>
   <stop id="stop4388-3" style="stop-color:#fff;stop-opacity:0" offset="1"/>
  </linearGradient>
  <linearGradient id="linearGradient3449" y2="-40" xlink:href="#linearGradient4384-6" gradientUnits="userSpaceOnUse" x2="48" gradientTransform="matrix(1,0,0,-1,0,92)" y1="88" x1="48"/>
  <linearGradient id="linearGradient4068" y2="6.9368" gradientUnits="userSpaceOnUse" x2="48" y1="90" x1="48">
   <stop id="stop3808-0" style="stop-color:#656290" offset="0"/>
   <stop id="stop3810-4" style="stop-color:#484373" offset="1"/>
  </linearGradient>
  <clipPath id="clipPath3974">
   <rect id="rect3976" style="fill:#f0f" rx="6" ry="6" height="84" width="84" y="6" x="6"/>
  </clipPath>
  <linearGradient id="linearGradient3982" y2="29.471" xlink:href="#linearGradient3814-9" gradientUnits="userSpaceOnUse" x2="44.586" gradientTransform="matrix(-.96032 .27889 .27889 .96032 111.44 15.295)" y1="13.056" x1="39.819"/>
  <linearGradient id="linearGradient3814-9">
   <stop id="stop3816-9" style="stop-color:#e2e1ed" offset="0"/>
   <stop id="stop3818-8" style="stop-color:#e2e1ed;stop-opacity:0" offset="1"/>
  </linearGradient>
  <linearGradient id="linearGradient3980" y2="89.995" xlink:href="#linearGradient3814-9" gradientUnits="userSpaceOnUse" x2="35.838" gradientTransform="translate(-10,-3)" y1="56.924" x1="35.838"/>
  <linearGradient id="linearGradient3929" y2="48.086" xlink:href="#linearGradient3814-9" gradientUnits="userSpaceOnUse" x2="45.967" gradientTransform="translate(44.277 16.233)" y1="28.946" x1="45.967"/>
  <linearGradient id="linearGradient3926" y2="56.865" xlink:href="#linearGradient3814-9" gradientUnits="userSpaceOnUse" x2="76.758" gradientTransform="matrix(-1 0 0 1 80.942 38.325)" y1="27.41" x1="76.758"/>
  <linearGradient id="linearGradient4117" y2="76.55" gradientUnits="userSpaceOnUse" x2="75.918" gradientTransform="matrix(-1 0 0 1 85.594 12)" y1="63.139" x1="75.918">
   <stop id="stop3864-9" style="stop-color:#fff" offset="0"/>
   <stop id="stop3866-2" style="stop-color:#fff;stop-opacity:0" offset="1"/>
  </linearGradient>
 </defs>
 <metadata id="metadata2413">
  <rdf:RDF>
   <cc:Work rdf:about="">
    <dc:format>image/svg+xml</dc:format>
    <dc:type rdf:resource="http://purl.org/dc/dcmitype/StillImage"/>
    <dc:title/>
   </cc:Work>
  </rdf:RDF>
 </metadata>
 <g id="layer2" style="display:none">
  <rect id="rect3745" style="opacity:.9;filter:url(#filter3174);fill:url(#ButtonShadow)" rx="6" ry="6" height="85" width="86" y="7" x="5"/>
 </g>
 <g id="layer3">
  <path id="path3786" style="opacity:0.08;fill:url(#linearGradient3780)" d="m12-95.031c-5.5111 0-10.031 4.5202-10.031 10.031v71c0 5.5111 4.5202 10.031 10.031 10.031h72c5.5111 0 10.031-4.5202 10.031-10.031v-71c0-5.5111-4.5202-10.031-10.031-10.031h-72z" transform="scale(1,-1)"/>
  <path id="path3778" style="opacity:.1;fill:url(#linearGradient3780)" d="m12-94.031c-4.9716 0-9.0312 4.0596-9.0312 9.0312v71c0 4.9716 4.0596 9.0312 9.0312 9.0312h72c4.9716 0 9.0312-4.0596 9.0312-9.0312v-71c0-4.9716-4.0596-9.0312-9.0312-9.0312h-72z" transform="scale(1,-1)"/>
  <path id="path3770" style="opacity:.2;fill:url(#linearGradient3780)" d="m12-93c-4.4091 0-8 3.5909-8 8v71c0 4.4091 3.5909 8 8 8h72c4.4091 0 8-3.5909 8-8v-71c0-4.4091-3.5909-8-8-8h-72z" transform="scale(1,-1)"/>
  <rect id="rect3723" style="opacity:.3;fill:url(#linearGradient3780)" transform="scale(1,-1)" rx="7" ry="7" height="85" width="86" y="-92" x="5"/>
  <rect id="rect3716" style="opacity:.45;fill:url(#linearGradient3721)" transform="scale(1,-1)" rx="6" ry="6" height="84" width="84" y="-91" x="6"/>
 </g>
 <g id="layer1">
  <path id="rect4359" style="opacity:.2;fill:url(#radialGradient4375)" d="m120.78 6.125c-2.74 0.5576-4.78 2.9665-4.78 5.875v68c0 3.324 2.676 6 6 6h72c3.324 0 6-2.676 6-6v-68c0-2.9085-2.0422-5.3174-4.7812-5.875 2.2051 0.53621 3.8125 2.4908 3.8125 4.875v68c0 2.8049-2.2264 5.0312-5.0312 5.0312h-72c-2.8049 0-5.0312-2.2264-5.0312-5.0312v-68c0-2.3842 1.6074-4.3388 3.8125-4.875z"/>
  <path id="path4412" style="opacity:.15" d="m6 98v1c0 3.324 2.676 6 6 6h72c3.324 0 6-2.676 6-6v-1c0 3.324-2.676 6-6 6h-72c-3.324 0-6-2.676-6-6z"/>
  <rect id="rect2419" style="fill:url(#linearGradient4068)" rx="6" ry="6" height="84" width="84" y="6" x="6"/>
 </g>
 <g id="layer5">
  <rect id="rect3171" style="opacity:.1;filter:url(#filter3794);stroke:#fff;stroke-linecap:round;stroke-width:.5;fill:url(#linearGradient3613)" clip-path="url(#clipPath4355)" rx="12" ry="12" height="62" width="66" y="15" x="15"/>
 </g>
 <g id="layer6">
  <g id="g4105">
   <path id="path3651" style="opacity:.25;color:#000000;fill:url(#radialGradient3891)" d="m96 32a32 32 0 1 1 -64 0 32 32 0 1 1 64 0z" transform="matrix(1.0312 0 0 1.0312 -18 10)"/>
   <path id="path3695" style="color:#000000;fill:url(#radialGradient3897)" d="m96 32a32 32 0 1 1 -64 0 32 32 0 1 1 64 0z" transform="matrix(.84375 0 0 .84375 -6 16)"/>
   <path id="path3695-8" style="opacity:.6;color:#000000;fill:url(#linearGradient3818)" d="m75 43c0-14.912-12.088-27-27-27s-27 12.088-27 27 12.088 27 27 27 27-12.088 27-27zm-1 0c0 14.359-11.641 26-26 26s-26-11.641-26-26 11.641-26 26-26 26 11.641 26 26z"/>
   <path id="path3907" style="opacity:.4;filter:url(#filter4045);fill:url(#linearGradient4031)" d="m41.125 16.875c-2.6301 0.69019-5.0914 1.7882-7.3438 3.1875-0.68559 0.94402-1.3241 1.9093-2 2.8125-0.44835 0.97474-1.8406 0.83498-3 1.1875-0.06669 0.06767-0.15277 0.11914-0.21875 0.1875-1.5872 2.0861-3.4998 4.031-4.5 6.4688-1.2855 2.5334 4.1736 2.0034 1.4375 4.5-1.0401 1.5092-0.61372 4.8138 1.25 5.875 1.601 1.5614-3.1816 3.1704-1 5.1562 2.0378 0.73589 4.2898-0.98819 6.2188-0.25 1.3054 1.4218-0.7982 3.0113 0.59375 4.3438-1.7701-0.07326-3.5754 0.4308-2.9688 2.6562-0.29197 2.7503 4.4792 2.6209 3.875-0.3125 0.1098-1.3721 1.5049-2.7989 2.3438-0.84375-0.12123 2.0713 3.7972 0.92391 2.0312 3.25-3.68 0.0401-1.4122 5.5623 0.84375 3.625 0.19786-2.1792 2.2637-1.9169 3.5312-1.0625 3.1599-0.74717-0.3395-4.4046 0.78125-6.0625 1.1605 0.02707 1.3284 2.549 2.375 0.3125 1.4659-2.6601-0.73326-4.896-3.1562-5.625-2.399-0.83518-0.7641-3.1485-1-4.5625-2.1749-1.6884-3.1512 0.84978-2.9688 2.5938-2.6243 0.40125-1.9803-3.0004-3.9375-4.0938-1.3587-0.98452-4.425-0.96683-2.5625-3.5625 1.8829-0.8553 4.1589-1.6 3.4688-4.25 0.90293-2.5218-4.2017-1.5295-2.0625-3.8125 2.7269-0.04313 4.4938-2.2037 3.7812-4.9062 0.6186-1.8762 3.3812-1.4157 4.2812-2.9375 0.24257 0.33937 0.51576 0.67548 0.875 0.90625 0.51749 0.48859 1.3315 0.07499 1.8438-0.25 0.03671-0.5471 0.08066-1.4451 0.9375-1.25 0.89458 0.08748 1.8053 0.04968 2.6562-0.1875 0.13244-0.62698-0.82857-1.4179-1.5938-1.3438-0.69089 0.2469-1.5754-0.2789-2.125 0.25-0.68361 0.000591-1.3789 0.000185-2.0625 0 0.03031-0.71964-0.21557-1.434-0.625-2zm12.156 2.875c-0.49783 0.14127-0.77761 0.55806-0.6875 1.0938 0.28182 0.50293 0.65538 0.80476 1 1.4688 0.72553 0.77285 1.1719 1.6062 1.5625 2.5625 0.67915 0.63615 0.92496 2.0582 2.125 1.7812 0.89226-0.13706 1.7511 0.04415 2.625 0.1875 0.81732-0.11595 1.5191 1.0114 2.3438 0.5625 1.2188 0.20939 1.1796-1.2451 0.53125-1.875-0.72764-0.82903-2.0189-0.21868-3-0.40625-0.6743 0.40594-2.7682 0.25916-1.9688-0.8125 0.06822-1.3448-0.9582-2.0785-2.2188-2.2188-0.715-0.339-0.21-0.622 0.219-0.844 0.155-1.303-1.634-1.243-2.531-1.5zm-2.906 2.812c-1.7691 0.20815-1.5697 3.3208-2.5312 4.4688-1.7814 0.71071-2.7896-1.271-2.5312-2.625-0.95357-0.68666-1.3939-0.9838-1.625 0.28125-1.4811 0.99581-2.7795-1.9018-4.4062-1.2812 1.6504-0.29336-2.3793 1.4411-0.96875 2.6562 0.88257 1.3337 0.54781 2.8096-1.2188 2.7812-1.7682 0.77981-0.9348 2.3716 0.625 2.375 1.9278 2.2716-2.1462 3.9386-0.96875 6.4062 0.8291 2.8137 4.2936-0.08276 2.75-2.125-0.63476-3.1038 3.5167-2.0519 3.1875 0.46875 1.0975 0.71463 4.2437 0.75758 2.8125 3.125-1.9898 0.4136-1.6349 3.0069 0 3.6562-1.2734 0.81022-1.0704 4.5212 0.6875 2.5938 2.5503-2.294 2.2384 3.3449 5.0312 1.8125 1.476-2.1551-1.9225-3.2937-2.9375-4.7188-1.6957-2.3202 3.5134-1.2581 1.4688-3.2188-2.2168-1.0744-0.91523-3.6625 1.2812-2.625 2.5979 0.48816-1.2498-3.7752 1.4688-2.6562 0.21477 1.8354 3.6296 1.4258 1.5938-0.375-0.55258-2.0387 2.8375-3.7251 0.75-5.875-2.498-0.742-1.952-3.633-3.593-5.031-0.343-0.103-0.622-0.123-0.875-0.094zm14.5 9.1875c-0.15918 0.0062-0.35248 0.04505-0.53125 0.09375-1.1362 1.201-2.4506 1.5776-4.0625 1.125-0.45334-0.25339-1.4925-0.72051-1.9062-0.5625-1.6014-0.15718-1.201 1.5848-1.375 2.4062-1.0836 0.16904-1.8586 0.98938-0.90625 1.9688 0.59466 1.888-1.7501 0.54745-2.5625 0.75-1.5429 0.59052 0.94523 1.3236-0.34375 2.1875-1.1489 0.11566-3.0841 1.5388-1.625 2.4688 1.0596 0.31895 3.3659-0.85616 3 1.2812-0.63107 1.4577 2.5559 3.1035 1.9062 0.90625-0.55365-1.031-1.9648-3.6495 0.34375-3.125 0.43383 0.71075 0.81144 1.1619 1.875 0.78125 0.29434-1.512 2.4246-1.1232 3.4375-0.40625 1.8148 0.38138 0.40729-2.7539 2.3125-2.9375 1.2841-1.0528 0.56874-3.0046-0.75-3.625 0.19235-1.5172 2.5911-1.4186 3.6875-1.6875-0.73147-0.75719-1.3858-1.6682-2.5-1.625zm9.7812 7c-0.25994 0.02868-0.53625 0.30012-0.6875 0.5-0.29098 0.5982-1.001 0.52622-1.2188 0.9375-0.14153 0.37803-0.49505 0.10317-0.6875 0.46875-0.19099-0.13956-1.3073-0.02574-0.8125 0.25-0.6862 0.34335-0.16029 1.299-0.3125 1.9062-0.17303 0.70354 0.44968 1.0582 0.65625 1.625 0.16489 0.17637 0.42437-0.04738 0.53125 0.3125 0.0051 0.32446 0.59115 0.02429 0.625 0.375-0.43559 0.20829 0.82273 0.4871 0.875 0 0.28535-0.36319 0.63666-1.0147 0.96875-1.4062 0.064-0.147 0.23-0.202 0.407-0.25 0.003-0.158 0-0.31 0-0.469 0-1.443-0.126-2.868-0.344-4.25zm-8.1875 0.875c-0.37996 0.04703-0.73359 0.29326-0.875 0.75-0.49716 0.76901-0.63786 2.0665-1.75 2.0938-0.56535 0.2637-1.0696 0.83367-1.75 0.75-0.85311-0.52782-2.0506-0.57879-2.9062-0.03125-0.97964 0.62659 0.92095 1.6452-0.28125 2-1.1816 0.04876-1.2901 1.3639-0.53125 2.0312 0.7827 0.69818 2.1469 0.7128 2.5625 1.8125 0.27615 0.72932 0.98701 1.4634 0.65625 2.3125-0.47251 0.90254-1.5361 0.13307-2.25 0.4375-1.0299 0.43094-0.52332 1.8332 0.53125 1.5 1.2136 0.13831 1.8731 1.5249 1.5312 2.625-0.05927 0.9616-1.4506 1.4808-0.96875 2.5 0.35582 0.69829 1.6231 1.1316 2.0312 0.28125 0.0049-0.93472 0.77327-1.6486 0.875-2.5938 0.16108-0.88259 0.16206-1.9097-0.3125-2.6875-0.95486-0.70967-0.23324-1.9177 0.46875-2.5 0.57935-0.41083 1.0879-1.2863 1.625-1.5 0.57674 0.35422 1.4761 1.6638 1.8125 0.34375 0.42309-1.0331 0.17236-2.3017 0.9375-3.1875 0.51083-0.51359 2.0839-0.10724 1.6562-1.25-0.525-0.733-1.841-0.14-1.842-1.281-0.245-1.288 0.356-2.66-0.188-3.906-0.24769-0.40748-0.65129-0.54703-1.0312-0.5zm8.2188 7.4375c-0.09061 0.0746-0.09338 0.09269-0.3125 0.25l0.188-0.062c-0.07924 0.07122-0.07566 0.05184-0.1875 0.15625-1.077 0.99467-1.6564 2.5292-2.8438 3.1875-1.889 0.0592-0.73836-2.535-2-3-1.6473 0.06331-0.88277 2.2333-1.8125 3.0312-1.082 0.62902-2.4987 1.7262-1.1562 2.9375 0.876 1.0467 0.49585 2.4916 0.34375 3.7188-0.5717 0.71729-0.30535 2.4183 0.84375 1.5625 0.395-1.2407-0.22737-2.9684 1-3.9062 0.75973-1.1888 2.4825-0.54026 3.5938-1.1562 0.14132 0.04149 0.25163 0.04979 0.375 0.0625 0.92284-2.1 1.6058-4.3171 1.9688-6.6562l-0.09375 0.03125c0.0398-0.03553 0.05177-0.05233 0.09375-0.09375 0.003-0.01994-0.003-0.04254 0-0.0625z"/>
   <path id="path3986" style="opacity:.4;color:#000000;filter:url(#filter4057);fill:#a18a56" d="m62.25 24.094c-0.7621 0-1.375 0.6129-1.375 1.375s0.6129 1.375 1.375 1.375 1.375-0.6129 1.375-1.375-0.6129-1.375-1.375-1.375zm-20.406 1.625c-0.6288 0.12867-1.0938 0.70816-1.0938 1.375 0 0.7621 0.6129 1.375 1.375 1.375s1.375-0.6129 1.375-1.375-0.6129-1.375-1.375-1.375c-0.09526 0-0.19142-0.01838-0.28125 0zm-9.938 0.156c-0.493 0-0.906 0.382-0.906 0.875 0 0.49312 0.41313 0.90625 0.90625 0.90625s0.875-0.41313 0.875-0.90625-0.38188-0.875-0.875-0.875zm28 2.5938c-0.80693 0-1.4688 0.66182-1.4688 1.4688 0 0.80693 0.66182 1.4375 1.4688 1.4375 0.80693 0 1.4688-0.63057 1.4688-1.4375s-0.66182-1.4688-1.4688-1.4688zm-3.9688 2.75c-0.40346 0-0.75 0.34654-0.75 0.75s0.34654 0.71875 0.75 0.71875 0.71875-0.31529 0.71875-0.71875-0.31529-0.75-0.71875-0.75zm-10.062 0.156c-0.40346 0-0.75 0.34654-0.75 0.75s0.34654 0.71875 0.75 0.71875 0.71875-0.31529 0.71875-0.71875-0.31529-0.75-0.71875-0.75zm-15.438 0.5c-1.0311 0-1.875 0.84393-1.875 1.875s0.84393 1.8438 1.875 1.8438 1.875-0.81268 1.875-1.8438-0.84393-1.875-1.875-1.875zm38 4.875c-0.58278 0-1.0625 0.47972-1.0625 1.0625s0.47972 1.0312 1.0625 1.0312 1.0312-0.44847 1.0312-1.0312c0-0.58278-0.44847-1.0625-1.0312-1.0625zm-31.093 2.75c-0.62761 0-1.1562 0.52864-1.1562 1.1562 0 0.62761 0.52864 1.125 1.1562 1.125 0.62761 0 1.125-0.49739 1.125-1.125s-0.49739-1.1562-1.125-1.1562zm26.375 0.65625c-0.85176 0-1.5312 0.67949-1.5312 1.5312 0 0.85176 0.67949 1.5625 1.5312 1.5625 0.85176 0 1.5312-0.71074 1.5312-1.5625s-0.67949-1.5312-1.5312-1.5312zm-34.688 3.25c-0.43521 0-0.78125 0.19977-0.78125 0.46875s0.34604 0.5 0.78125 0.5 0.78125-0.23102 0.78125-0.5-0.34604-0.46875-0.78125-0.46875zm9.5938 2.75c-0.71727 0-1.2812 0.59523-1.2812 1.3125s0.56398 1.2812 1.2812 1.2812c0.71727 0 1.3125-0.56398 1.3125-1.2812 0-0.71727-0.59523-1.3125-1.3125-1.3125zm-10.125 1.782c-0.49312 0-0.90625 0.41313-0.90625 0.90625s0.41313 0.875 0.90625 0.875 0.875-0.38188 0.875-0.875-0.38188-0.90625-0.875-0.90625zm29.375 0c-0.49312 0-0.90625 0.41313-0.90625 0.90625s0.41313 0.875 0.90625 0.875 0.90625-0.38188 0.90625-0.875-0.41313-0.90625-0.90625-0.90625zm-4.3125 0.5c-0.80693 0-1.4375 0.66182-1.4375 1.4688 0 0.80693 0.63057 1.4375 1.4375 1.4375s1.4688-0.63057 1.4688-1.4375-0.66182-1.4688-1.4688-1.4688zm4.0625 6.1562c-0.44829 0-0.8125 0.36421-0.8125 0.8125s0.36421 0.8125 0.8125 0.8125 0.8125-0.36421 0.8125-0.8125-0.36421-0.8125-0.8125-0.8125zm-27.843 0.656c-0.85176 0-1.5312 0.67949-1.5312 1.5312 0 0.85176 0.67949 1.5625 1.5312 1.5625 0.85176 0 1.5625-0.71074 1.5625-1.5625s-0.71074-1.5312-1.5625-1.5312zm5.375 3.0938c-0.40346 0-0.75 0.31529-0.75 0.71875s0.34654 0.75 0.75 0.75 0.71875-0.34654 0.71875-0.75-0.31529-0.71875-0.71875-0.71875zm17.688 3.875c-0.67244 0-1.2188 0.54631-1.2188 1.2188 0 0.67244 0.54631 1.2188 1.2188 1.2188 0.67244 0 1.2188-0.54631 1.2188-1.2188 0-0.67244-0.54631-1.2188-1.2188-1.2188z"/>
   <path id="path4061" style="opacity:.5;color:#000000;filter:url(#filter4082);fill:#fff" d="m57.469 28.469c-0.53795 0-0.96875 0.4308-0.96875 0.96875s0.4308 0.96875 0.96875 0.96875 0.96875-0.4308 0.96875-0.96875-0.4308-0.96875-0.96875-0.96875zm-15.031 7.781c-1.2104 0-2.1875 0.97711-2.1875 2.1875s0.97711 2.2188 2.1875 2.2188 2.2188-1.0084 2.2188-2.2188-1.0084-2.1875-2.2188-2.1875zm-7.938 0.5c-0.58278 0-1.0625 0.47972-1.0625 1.0625s0.47972 1.0312 1.0625 1.0312 1.0625-0.44847 1.0625-1.0312c0-0.58278-0.47972-1.0625-1.0625-1.0625zm-10.406 3.0938c-1.0311 0-1.8438 0.81268-1.8438 1.8438s0.81268 1.875 1.8438 1.875 1.875-0.84393 1.875-1.875-0.84393-1.8438-1.875-1.8438zm0.656 5.344c-0.67244 0-1.2188 0.54631-1.2188 1.2188 0 0.67244 0.54631 1.2188 1.2188 1.2188 0.67244 0 1.2188-0.54631 1.2188-1.2188 0-0.67244-0.54631-1.2188-1.2188-1.2188zm30.438 0.15625c-0.53795 0-0.96875 0.4308-0.96875 0.96875s0.4308 1 0.96875 1 0.96875-0.46205 0.96875-1-0.4308-0.96875-0.96875-0.96875zm-5.8438 7c-0.80693 0-1.4375 0.63057-1.4375 1.4375s0.63057 1.4688 1.4375 1.4688 1.4688-0.66182 1.4688-1.4688c0-0.80693-0.66182-1.4375-1.4688-1.4375zm-3.9688 6.8125c-1.3897 0-2.5312 1.1103-2.5312 2.5s1.1415 2.5312 2.5312 2.5312 2.5312-1.1415 2.5312-2.5312-1.1415-2.5-2.5312-2.5zm15.5 0.46875c-0.80693 0-1.4688 0.66182-1.4688 1.4688 0 0.80693 0.66182 1.4688 1.4688 1.4688 0.80693 0 1.4688-0.66182 1.4688-1.4688 0-0.80693-0.66182-1.4688-1.4688-1.4688zm-21.094 1.7812c-1.0759 0-1.9688 0.89285-1.9688 1.9688 0 1.0759 0.89285 1.9375 1.9688 1.9375 1.0759 0 1.9375-0.8616 1.9375-1.9375s-0.8616-1.9688-1.9375-1.9688z"/>
   <path id="path4086" style="opacity:.5;color:#000000;fill:url(#linearGradient3191)" d="m96 32a32 32 0 1 1 -64 0 32 32 0 1 1 64 0z" transform="matrix(.58747 0 0 .37002 10.402 18.734)"/>
  </g>
  <path id="path4261" style="color:#000000;fill:url(#radialGradient4316)" d="m20 18a2 2 0 1 1 -4 0 2 2 0 1 1 4 0z" transform="translate(-.40828 -.57160)"/>
  <path id="path4275" style="color:#000000;fill:url(#radialGradient4316)" d="m20 18a2 2 0 1 1 -4 0 2 2 0 1 1 4 0z" transform="matrix(2,0,0,2,45,39)"/>
  <path id="path4281" style="color:#000000;fill:url(#radialGradient4316)" d="m20 18a2 2 0 1 1 -4 0 2 2 0 1 1 4 0z" transform="matrix(1.5 0 0 1.5 54.023 .098233)"/>
  <path id="path4285" style="color:#000000;fill:url(#radialGradient4316)" d="m20 18a2 2 0 1 1 -4 0 2 2 0 1 1 4 0z" transform="translate(-5.2647 10.301)"/>
  <path id="path4297" style="color:#000000;fill:url(#radialGradient4316)" d="m20 18a2 2 0 1 1 -4 0 2 2 0 1 1 4 0z" transform="translate(43.59 59.668)"/>
  <path id="path4306" style="color:#000000;fill:url(#radialGradient4316)" d="m20 18a2 2 0 1 1 -4 0 2 2 0 1 1 4 0z" transform="matrix(1.5 0 0 1.5 23.99 51.966)"/>
  <path id="path4314" style="color:#000000;fill:url(#radialGradient4316)" d="m20 18a2 2 0 1 1 -4 0 2 2 0 1 1 4 0z" transform="translate(39.486 -7.456)"/>
 </g>
 <g id="layer8">
  <g id="g3963" clip-path="url(#clipPath3974)">
   <path id="path3870" style="color:#000000;fill:url(#linearGradient3982)" d="m63.176 37.577c1.3695-0.39771 2.8078 0.36799 3.2055 1.7375 0.26277 0.90483 0.01648 1.8361-0.58162 2.4793 0.58655 0.47866 1.0897 1.0561 1.5055 1.7105 0.67528-0.47186 1.3964-0.88205 2.1926-1.19-0.06956-0.13999-0.14562-0.27731-0.19075-0.43272-0.40846-1.4065 0.40358-2.8832 1.8101-3.2917 1.0305-0.29927 2.09 0.06539 2.7465 0.82944 0.71646-1.3394 1.9296-2.4116 3.4859-2.8997-0.36546-1.2584 0.35998-2.5777 1.6184-2.9431 1.1849-0.34412 2.4063 0.29254 2.8521 1.4171 0.32427-0.23589 0.70211-0.43169 1.1094-0.54996 1.8877-0.54819 3.8665 0.53996 4.4147 2.4276 0.01796 0.06184 0.0078 0.1268 0.02228 0.18878 0.5619-0.24483 1.1335-0.45935 1.7357-0.63424 1.6025-0.46537 3.1983-0.63221 4.7794-0.57446 0.79208-1.3548 2.0873-2.4285 3.7134-2.9007 3.3682-0.97815 6.8831 0.9547 7.8612 4.3229 0.14672 0.50522 0.22646 1.0197 0.24699 1.5228 2.1491-0.3304 4.2499 0.9638 4.8726 3.1082 0.12227 0.42102 0.17183 0.83567 0.16855 1.2527 0.2622 0.12185 0.51679 0.24917 0.76579 0.39589 0.63234-0.96454 1.5939-1.732 2.8112-2.0855 2.6279-0.76317 5.3354 0.66766 6.0663 3.1845 0.73092 2.5169-0.78897 5.1754-3.4169 5.9385-0.39479 0.11465-0.79196 0.1614-1.184 0.18113 0.12908 3.8894-2.3625 7.5197-6.2725 8.6552-1.2289 0.3569-2.4795 0.42203-3.669 0.252-1.92 2.7901-4.7482 4.9584-8.2544 5.9767-4.7374 1.3758-9.6028 0.33061-13.287-2.3892-0.58501 0.61766-1.3331 1.103-2.2091 1.3574-2.331 0.67695-4.7547-0.41753-5.8058-2.5117-0.02951 0.0088-0.06039 0.01754-0.09003 0.02614-3.47 1.0077-7.0196 0.12201-9.6027-2.0274-0.85466 1.6019-2.3363 2.8588-4.2177 3.4051-3.3969 0.98648-6.954-0.7078-8.3443-3.8572-0.39834 0.22718-0.80841 0.43002-1.2682 0.56353-3.1461 0.91365-6.4442-0.89994-7.3578-4.046-0.91365-3.1461 0.89994-6.4442 4.046-7.3578 0.32887-0.09551 0.65822-0.15163 0.98647-0.18886 0.33617-0.60813 0.87158-1.0666 1.5527-1.2644 0.70433-0.20454 1.4424-0.08217 2.0659 0.27864-0.12887-3.2244 1.9287-6.2548 5.1671-7.1953 0.70473-0.20466 1.4091-0.26407 2.1065-0.25381-0.06387-1.1722 0.66728-2.2764 1.843-2.6179z"/>
   <path id="path3739" style="color:#000000;fill:url(#linearGradient3980)" d="m20.5 50.312c-0.95045 0-1.8285 0.30559-2.5312 0.8125-0.58004-0.08942-1.1762-0.15625-1.7812-0.15625-2.6437 0-5.0504 0.91554-7 2.4062-0.2257-0.035-0.4522-0.062-0.688-0.062-2.3125 0-4.1875 1.7719-4.1875 3.9688 0 0.82384 0.26727 1.5839 0.71875 2.2188-0.268 0.97769-0.40625 1.9997-0.40625 3.0625 0 1.0735 0.13301 2.1073 0.40625 3.0938-0.6199-0.279-1.3073-0.437-2.0312-0.437-2.7365 0-4.9375 2.201-4.9375 4.9375s2.201 4.9688 4.9375 4.9688c0.36612 0 0.719-0.04965 1.0625-0.125-0.000643 0.04129 0 0.08355 0 0.125 0 4.3167 3.4958 7.8125 7.8125 7.8125 2.786 0 5.2097-1.4621 6.5938-3.6562 2.0411 1.841 4.7536 2.9688 7.7188 2.9688 4.015 0 7.533-2.072 9.5938-5.1875 1.2942 0.97115 2.8824 1.5625 4.625 1.5625 2.725 0 5.1192-1.4353 6.5-3.5625 0.69317 0.55616 1.5421 0.90625 2.5 0.90625 1.3093 0 2.4789-0.6295 3.2188-1.5938 0.32267 0.20323 0.71549 0.34375 1.125 0.34375 1.1563 0 2.0938-0.93749 2.0938-2.0938s-0.93749-2.0938-2.0938-2.0938c-0.18067 0-0.36401 0.01947-0.53125 0.0625-0.509-1.456-1.821-2.527-3.408-2.688-0.086-1.348-1.192-2.406-2.562-2.406-0.3812 0-0.73681 0.07047-1.0625 0.21875-1.4183-1.5835-3.4881-2.5938-5.7812-2.5938-1.0245 0-1.9799 0.20126-2.875 0.5625-0.22426-2.3734-2.2241-4.25-4.6562-4.25-0.28018 0-0.54588 0.04651-0.8125 0.09375 0.03207-0.21766 0.0625-0.42967 0.0625-0.65625 0-2.5052-2.0573-4.5312-4.5625-4.5312-0.93946 0-1.8073 0.2609-2.5312 0.75-0.12466-0.14758-0.24323-0.29637-0.375-0.4375 0.01212-0.12327 0.03125-0.24872 0.03125-0.375 0-2.1969-1.875-3.9688-4.1875-3.9688z"/>
   <path id="path3772" style="color:#000000;fill:url(#linearGradient3929)" d="m94.09 34.889c-1.7951 0-3.2871 1.3348-3.5312 3.0625-0.99024 0.39781-1.8962 0.90849-2.7188 1.5625-0.48316-0.50848-1.1494-0.84375-1.9062-0.84375-1.4646 0-2.6562 1.1917-2.6562 2.6562 0 0.01073-0.00013 0.02055 0 0.03125-1.0357 0.06809-2.0271 0.26679-2.9688 0.59375-0.55027-0.63705-1.3734-1.0312-2.2813-1.0312-1.6368 0-2.9673 1.3085-3 2.9375-0.04347-0.0022-0.08097-0.03125-0.125-0.03125-1.2037 0-2.2233 0.86986-2.4688 2-2.4536 0.16605-4.5626 1.5198-5.7812 3.5-0.4926-0.20835-1.0253-0.3125-1.5938-0.3125-2.274 0-4.125 1.851-4.125 4.125s1.851 4.0938 4.125 4.0938c0.53425 0 1.0316-0.09607 1.5-0.28125 1.2861 2.1833 3.6578 3.625 6.375 3.625 0.87777 0 1.7188-0.15691 2.5-0.4375 2.0858 2.4103 5.156 3.9375 8.5938 3.9375 3.5742 0 6.7584-1.6406 8.8438-4.2188 1.215 1.3833 2.9829 2.2812 4.9688 2.2812 1.5447 0 2.9666-0.55175 4.0938-1.4375 1.0575 0.54918 2.2573 0.875 3.5312 0.875 1.5489 0 2.9813-0.46094 4.1875-1.25 0.49805 0.25713 1.0571 0.40625 1.6562 0.40625 1.7433 0 3.213-1.236 3.5625-2.875 0.23611 1.5401 1.5501 2.7188 3.1562 2.7188 1.7729 0 3.2188-1.4146 3.2188-3.1875 0-1.6151-1.1974-2.9623-2.75-3.1875 0.0458-0.25866 0.0937-0.54069 0.0937-0.8125 0-2.5052-2.026-4.5312-4.5312-4.5312-0.84008 0-1.6378 0.25822-2.3125 0.65625-0.22398-0.31986-0.44981-0.65593-0.71875-0.9375 0.10594-0.25048 0.15625-0.52343 0.15625-0.8125 0-1.1563-0.93749-2.0938-2.0938-2.0938-0.0932 0-0.1913 0.01945-0.28125 0.03125-0.0172-1.7967-1.4805-3.25-3.2812-3.25-0.47744 0-0.93457 0.09784-1.3438 0.28125-1.4251-2.523-3.8275-4.4148-6.6875-5.1875-0.40134-1.5259-1.7544-2.6562-3.4062-2.6562z"/>
   <path id="path3671" style="opacity:.8;color:#000000;fill:url(#linearGradient3926)" d="m10.661 61.763c3.0264 0.30734 5.375 2.8925 5.375 6 0 0.50225-0.07128 0.97124-0.1875 1.4375 1.3556-0.82923 2.9508-1.3125 4.6562-1.3125 0.69713 0 1.3801 0.09893 2.0312 0.25 0.47506-1.3625 1.7568-2.3438 3.2812-2.3438 1.9271 0 3.4688 1.5729 3.4688 3.5 0 0.92305-0.35225 1.751-0.9375 2.375 0.19649-0.02238 0.39127 0 0.59375 0 2.8907 0 5.25 2.3281 5.25 5.2188s-2.3593 5.25-5.25 5.25c-0.40398 0-0.77855-0.06962-1.1562-0.15625-1.0117 1.427-2.4356 2.5193-4.0938 3.1562 0.0042 0.11543 0.03125 0.2273 0.03125 0.34375 0 5.2417-4.2583 9.4688-9.5 9.4688-1.5304 0-2.9698-0.3566-4.25-1-2.6246 1.7834-5.8064 2.8438-9.2188 2.8438-6.8387 0-12.693-4.2051-15.156-10.156-4.7852-0.59661-8.5-4.647-8.5-9.5938 0-5.3573 4.3302-9.7188 9.6875-9.7188 1.1595 0 2.2818 0.22061 3.3125 0.59375 0.85422-0.73119 1.7894-1.3932 2.7812-1.9375-0.0827-0.23333-0.15625-0.48833-0.15625-0.75 0-1.2333 1.0166-2.2188 2.25-2.2188 0.94828 0 1.7699 0.57244 2.0938 1.4062 1.0568-0.24278 2.1573-0.40621 3.2813-0.4375 0.31043-1.2856 1.4628-2.2188 2.8438-2.2188 1.1744 0 2.1886 0.6901 2.6562 1.6875 1.0788-1.0542 2.5545-1.6875 4.1875-1.6875 0.20716 0 0.42324-0.02049 0.625 0z"/>
   <path id="path3713" style="opacity:.8;color:#000000;fill:url(#linearGradient4117)" d="m7.6562 74.656c3.5005 0 6.464 2.1862 7.625 5.2812 2.9227 0.05208 5.2812 2.4399 5.2812 5.375 0 2.9677-2.4073 5.375-5.375 5.375-1.1753 0-2.2405-0.3911-3.125-1.0312-1.2736 0.82112-2.7782 1.3125-4.4062 1.3125-0.41217 0-0.82299-0.03481-1.2188-0.09375-0.4608 0.55836-1.157 0.9375-1.9375 0.9375-1.11 0-2.0426-0.72039-2.375-1.7188-0.573 0.1721-1.1834 0.28125-1.8125 0.28125-3.4688 0-6.2812-2.8125-6.2812-6.2812 0-2.9051 1.9776-5.3448 4.6562-6.0625-0.02473-0.15323-0.0625-0.30854-0.0625-0.46875 0-1.6188 1.3187-2.9062 2.9375-2.9062 0.86619 0 1.6509 0.37137 2.1875 0.96875 1.1569-0.62848 2.4971-0.96875 3.9062-0.96875z"/>
  </g>
 </g>
 <g id="layer4">
  <path id="path3888" style="fill:url(#linearGradient3228)" d="m6 80v4c0 3.324 2.676 6 6 6h72c3.324 0 6-2.676 6-6v-4c0 3.324-2.676 6-6 6h-72c-3.324 0-6-2.676-6-6z"/>
  <path id="rect4345" style="opacity:.1;color:#000000" d="m6 82v2c0 3.324 2.676 6 6 6h72c3.324 0 6-2.676 6-6v-2c0 3.324-2.676 6-6 6h-72c-3.324 0-6-2.676-6-6z"/>
  <path id="rect4336" style="opacity:.15;color:#000000" d="m6 83v1c0 3.324 2.676 6 6 6h72c3.324 0 6-2.676 6-6v-1c0 3.324-2.676 6-6 6h-72c-3.324 0-6-2.676-6-6z"/>
 </g>
 <g id="layer7">
  <path id="rect4377" style="opacity:.2;fill:url(#linearGradient3449)" d="m12 86c-3.324 0-6-2.676-6-6v-68c0-3.324 2.676-6 6-6h72c3.324 0 6 2.676 6 6v68c0 3.324-2.676 6-6 6zm0-0.96875h72c2.8049 0 5.0312-2.2264 5.0312-5.0312v-68c0-2.8049-2.226-5.0312-5.031-5.0312h-72c-2.8049 0-5.0312 2.2263-5.0312 5.0312v68c0 2.8049 2.2264 5.0312 5.0312 5.0312z"/>
  <path id="rect4414" style="opacity:0.07;fill:url(#linearGradient4429-9)" d="m6 78v2c0 3.324 2.676 6 6 6h72c3.324 0 6-2.676 6-6v-2c0 3.324-2.676 6-6 6h-72c-3.324 0-6-2.676-6-6z"/>
 </g>
</svg>
