<?xml version="1.0" encoding="UTF-8" standalone="no"?>
<!-- Created with Inkscape (http://www.inkscape.org/) -->
<svg id="svg2408" xmlns:rdf="http://www.w3.org/1999/02/22-rdf-syntax-ns#" xmlns="http://www.w3.org/2000/svg" height="96" width="96" version="1.0" xmlns:cc="http://creativecommons.org/ns#" xmlns:xlink="http://www.w3.org/1999/xlink" xmlns:dc="http://purl.org/dc/elements/1.1/">
 <defs id="defs2410">
  <linearGradient id="ButtonShadow" y2="7.0165" gradientUnits="userSpaceOnUse" x2="45.448" gradientTransform="scale(1.0059 .99417)" y1="92.54" x1="45.448">
   <stop id="stop3750" offset="0"/>
   <stop id="stop3752" style="stop-opacity:.58824" offset="1"/>
  </linearGradient>
  <linearGradient id="linearGradient3737">
   <stop id="stop3739" style="stop-color:#fff" offset="0"/>
   <stop id="stop3741" style="stop-color:#fff;stop-opacity:0" offset="1"/>
  </linearGradient>
  <filter id="filter3174" color-interpolation-filters="sRGB">
   <feGaussianBlur id="feGaussianBlur3176" stdDeviation="1.71"/>
  </filter>
  <linearGradient id="linearGradient3188" y2="63.893" xlink:href="#linearGradient3737" gradientUnits="userSpaceOnUse" x2="36.357" y1="6" x1="36.357"/>
  <filter id="filter3794" height="1.384" width="1.384" color-interpolation-filters="sRGB" y="-.192" x="-.192">
   <feGaussianBlur id="feGaussianBlur3796" stdDeviation="5.28"/>
  </filter>
  <linearGradient id="linearGradient3613" y2="138.66" xlink:href="#linearGradient3737" gradientUnits="userSpaceOnUse" x2="48" y1="20.221" x1="48"/>
  <radialGradient id="radialGradient3619" xlink:href="#linearGradient3737" gradientUnits="userSpaceOnUse" cy="90.172" cx="48" gradientTransform="matrix(1.1573 0 0 .99591 -7.551 .19713)" r="42"/>
  <clipPath id="clipPath3613">
   <rect id="rect3615" style="fill:#fff" rx="6" ry="6" height="84" width="84" y="6" x="6"/>
  </clipPath>
  <linearGradient id="linearGradient3617" y2="5.9877" gradientUnits="userSpaceOnUse" x2="48" y1="90" x1="48">
   <stop id="stop3189" style="stop-color:#d18c1d" offset="0"/>
   <stop id="stop3191" style="stop-color:#ffcf0f" offset="1"/>
  </linearGradient>
  <linearGradient id="linearGradient3198" y2="36.266" xlink:href="#linearGradient3192" gradientUnits="userSpaceOnUse" x2="56.466" y1="11.35" x1="56.466"/>
  <linearGradient id="linearGradient3192">
   <stop id="stop3194" offset="0"/>
   <stop id="stop3196" style="stop-opacity:0" offset="1"/>
  </linearGradient>
  <filter id="filter3861" height="1.2783" width="1.211" color-interpolation-filters="sRGB" y="-.13913" x="-.10550">
   <feGaussianBlur id="feGaussianBlur3863" stdDeviation="2.9050996"/>
  </filter>
  <clipPath id="clipPath3865">
   <path id="path3867" style="fill:#fff" d="m-88 6c-3.324 0-6 2.676-6 6v72c0 3.324 2.676 6 6 6h72c3.324 0 6-2.676 6-6v-72c0-3.324-2.676-6-6-6h-72zm33.625 22c1.8804-0.06833 3.7884 0.9599 4.75 2.9062 0.57991 1.1738 0.63033 3.0734 0.125 4.4062-0.76105 2.0074-2.5279 3.2188-4.6875 3.2188-1.1372 0-1.2022 0.0223-1.125 0.375 0.04475 0.20434 0.32386 4.6601 0.625 9.9062 0.41215 7.18 0.51191 9.7047 0.375 10.219-0.10003 0.37562-0.15653 0.7315-0.125 0.78125 1.574 0.88863 3.1921 1.7992 4.9062 2.3125 1.3362-1.8775 3.7721-4.7441 4.25-4.9688 3.318-0.46209 6.8806-0.48062 10.188 0.03125 5.6574 6.5601 11.175 13.764 16.188 20.844l-41.25 0.09375 8.7188-13.75c-0.03569-0.02979-2.8082-1.4835-6.1875-3.25-5.4967-2.8734-6.6386-3.3721-6.625-2.9062 0.0022 0.07386 0.42188 1.8756 0.9375 4l1.1875 3.8438 0.03125 5.625c0.01843 5.4432-0.0022 5.6617-0.34375 6-0.37544 0.37185-1.1128 0.39669-3.3125 0.1875-0.79265-0.07539-1.8409-0.40602-2.125-0.6875l0.03125-11.625-0.9375-3.6875-0.9375-3.6875-5.1875 9c-2.8489 4.9626-5.4722 9.333-5.8125 9.6875-0.86375 0.89982-1.3545 0.83885-2.8438-0.25-1.2752-0.93239-1.5725-1.3836-1.4062-2.25 0.14983-0.78064 0.01677-0.5461 6.0938-11.125 3.0117-5.2429 5.5233-9.7032 5.5625-9.9062 0.06098-0.31595-0.19336-0.50391-1.7812-1.3438-1.8336-0.96981-1.8759-0.97723-2.125-0.625-0.44244 0.62563-1.0745 0.45173-2.3125-0.65625-1.6988-1.5204-1.7451-1.2972 2-8.2812 1.698-3.1666 3.271-5.9512 3.5-6.1875l0.40625-0.40625 7.4375-0.0625 7.4375-0.0625-0.254-0.78c-0.5915-1.8856 0.02988-4.2211 1.4688-5.5938 0.91557-0.87346 2.028-1.3028 3.1562-1.3438zm-14.5 13.25c-0.25354 0.000182-0.59873 0.01989-1.0312 0.03125l-1.844 0.063-1.969 3.656c-1.084 2.0252-1.9496 3.7383-1.9062 3.7812 0.11052 0.10946 3.3004 1.7482 3.4062 1.75 0.04772 0.000818 0.96279-1.9591 2.0312-4.3438 1.0685-2.3846 1.9668-4.4875 2.0312-4.6562 0.08147-0.21333 0.04187-0.2818-0.71875-0.28125zm9.4375 7c-0.14708-0.02701-0.58039 0.85738-1.6875 3.3438-0.89663 2.0137-1.6561 3.7204-1.6875 3.7812-0.06085 0.11785 3.8157 2.1791 3.9375 2.0938 0.03957-0.02773-0.03025-2.0193-0.15625-4.4062-0.126-2.387-0.28519-4.5323-0.34375-4.75-0.01033-0.0384-0.04149-0.05864-0.0625-0.0625z"/>
  </clipPath>
  <clipPath id="clipPath3873">
   <path id="path3875" style="fill:#fff" d="m-55.764 76.871c-0.79265-0.07539-1.8141-0.39406-2.0982-0.67554l0.0091-11.63-0.93814-3.6951-0.93814-3.6951-5.1797 9.0229c-2.8489 4.9626-5.4581 9.3129-5.7984 9.6674-0.86375 0.89982-1.3658 0.85948-2.855-0.22936-1.2752-0.93239-1.5612-1.3962-1.3949-2.2626 0.14983-0.78064 0.01978-0.54339 6.0968-11.122 3.0117-5.2429 5.5079-9.6986 5.5471-9.9017 0.06098-0.31595-0.19657-0.5109-1.7845-1.3507-1.8336-0.96981-1.8587-0.97725-2.1078-0.62502-0.44244 0.62563-1.0767 0.44356-2.3147-0.66443-1.6988-1.5204-1.7577-1.2758 1.9874-8.2598 1.698-3.1666 3.2747-5.9508 3.5037-6.1871l0.41632-0.42966 7.4387-0.04987 7.4387-0.04987-0.25392-0.80946c-0.5915-1.8856 0.0095-4.1966 1.4484-5.5693 2.4415-2.3292 6.364-1.5557 7.9025 1.5585 0.57991 1.1738 0.63589 3.0555 0.13056 4.3884-0.76105 2.0074-2.5339 3.2258-4.6934 3.2258-1.1372 0-1.1938 0.01883-1.1165 0.37153 0.04475 0.20434 0.32776 4.6639 0.6289 9.91 0.41215 7.18 0.50256 9.7074 0.36566 10.221-0.10003 0.37562-0.15608 0.72364-0.12456 0.77339 1.574 0.88863 3.1906 1.8015 4.9048 2.3148 1.3362-1.8775 3.7973-4.7292 4.2752-4.9538 3.318-0.46209 6.8529-0.48897 10.16 0.0229 5.6574 6.5601 11.184 13.765 16.197 20.845l-41.234 0.08249 8.7135-13.735c-0.03569-0.02979-2.8298-1.4995-6.2091-3.266-5.4967-2.8734-6.6195-3.3664-6.6059-2.9006 0.0022 0.07386 0.42578 1.8724 0.9414 3.9968l1.19 3.8625 0.01906 5.6271c0.01843 5.4432 0.0075 5.6385-0.33406 5.9768-0.37544 0.37185-1.1343 0.40383-3.3339 0.19464zm6.7209-24.808c-0.126-2.387-0.27701-4.518-0.33557-4.7357-0.08264-0.30718-0.47145 0.42387-1.7367 3.2654-0.89663 2.0137-1.656 3.711-1.6874 3.7719-0.06085 0.11785 3.795 2.1741 3.9168 2.0888 0.03957-0.02773-0.03115-2.0034-0.15715-4.3904zm-11.16-6.8789c1.0685-2.3846 1.9954-4.4737 2.0598-4.6425 0.10863-0.28444-0.01879-0.30322-1.7489-0.2578l-1.866 0.04899-1.971 3.6822c-1.084 2.0252-1.9355 3.7173-1.8922 3.7602 0.11052 0.10946 3.2829 1.7412 3.3888 1.743 0.04772 0.000818 0.96095-1.9495 2.0294-4.3342z"/>
  </clipPath>
  <filter id="filter3881" color-interpolation-filters="sRGB">
   <feGaussianBlur id="feGaussianBlur3883" stdDeviation="0.58101993"/>
  </filter>
  <linearGradient id="ButtonShadow-0" y2="7.0165" gradientUnits="userSpaceOnUse" x2="45.448" gradientTransform="matrix(1.0059 0 0 .99417 100 0)" y1="92.54" x1="45.448">
   <stop id="stop3750-8" offset="0"/>
   <stop id="stop3752-5" style="stop-opacity:.58824" offset="1"/>
  </linearGradient>
  <linearGradient id="linearGradient3780" y2="90.239" xlink:href="#ButtonShadow-0" gradientUnits="userSpaceOnUse" x2="32.251" gradientTransform="matrix(1.0238 0 0 1.0119 -1.1429 -98.071)" y1="6.1317" x1="32.251"/>
  <linearGradient id="linearGradient3721" y2="90.239" xlink:href="#ButtonShadow-0" gradientUnits="userSpaceOnUse" x2="32.251" gradientTransform="translate(0,-97)" y1="6.1317" x1="32.251"/>
 </defs>
 <metadata id="metadata2413">
  <rdf:RDF>
   <cc:Work rdf:about="">
    <dc:format>image/svg+xml</dc:format>
    <dc:type rdf:resource="http://purl.org/dc/dcmitype/StillImage"/>
   </cc:Work>
  </rdf:RDF>
 </metadata>
 <g id="layer2" style="display:none">
  <rect id="rect3745" style="opacity:.9;filter:url(#filter3174);fill:url(#ButtonShadow)" rx="6" ry="6" height="85" width="86" y="7" x="5"/>
 </g>
 <g id="layer6">
  <path id="path3786" style="opacity:0.08;fill:url(#linearGradient3780)" d="m12-95.031c-5.5111 0-10.031 4.5202-10.031 10.031v71c0 5.5111 4.5202 10.031 10.031 10.031h72c5.5111 0 10.031-4.5202 10.031-10.031v-71c0-5.5111-4.5202-10.031-10.031-10.031h-72z" transform="scale(1,-1)"/>
  <path id="path3778" style="opacity:.1;fill:url(#linearGradient3780)" d="m12-94.031c-4.9716 0-9.0312 4.0596-9.0312 9.0312v71c0 4.9716 4.0596 9.0312 9.0312 9.0312h72c4.9716 0 9.0312-4.0596 9.0312-9.0312v-71c0-4.9716-4.0596-9.0312-9.0312-9.0312h-72z" transform="scale(1,-1)"/>
  <path id="path3770" style="opacity:.2;fill:url(#linearGradient3780)" d="m12-93c-4.4091 0-8 3.5909-8 8v71c0 4.4091 3.5909 8 8 8h72c4.4091 0 8-3.5909 8-8v-71c0-4.4091-3.5909-8-8-8h-72z" transform="scale(1,-1)"/>
  <rect id="rect3723" style="opacity:.3;fill:url(#linearGradient3780)" transform="scale(1,-1)" rx="7" ry="7" height="85" width="86" y="-92" x="5"/>
  <rect id="rect3716" style="opacity:.45;fill:url(#linearGradient3721)" transform="scale(1,-1)" rx="6" ry="6" height="84" width="84" y="-91" x="6"/>
 </g>
 <g id="layer1">
  <rect id="rect2419" style="fill:url(#linearGradient3617)" rx="6" ry="6" height="84" width="84" y="6" x="6"/>
  <g id="g4638" style="fill:url(#linearGradient3198)" transform="matrix(.71698 0 0 .75 2.8302 1.5)">
   <path id="rect4629" style="opacity:.8;fill-rule:evenodd;fill:url(#linearGradient3198)" d="m18 6h16l-8 16h-16l8-16z"/>
   <path id="path4632" style="opacity:.8;fill-rule:evenodd;fill:url(#linearGradient3198)" d="m44 6h16l-8 16h-16l8-16z"/>
   <path id="path4634" style="opacity:.8;fill-rule:evenodd;fill:url(#linearGradient3198)" d="m72 6h16l-8 16h-16l8-16z"/>
   <path id="path4636" style="opacity:.8;fill-rule:evenodd;fill:url(#linearGradient3198)" d="m100 6h16l-8 16h-16l8-16z"/>
  </g>
  <path id="rect3728" style="opacity:.5;fill:url(#linearGradient3188)" d="m12 6c-3.324 0-6 2.676-6 6v2 68 2c0 0.33472 0.04135 0.6507 0.09375 0.96875 0.0487 0.2956 0.09704 0.59692 0.1875 0.875 0.00988 0.03038 0.020892 0.0636 0.03125 0.09375 0.098865 0.28777 0.23488 0.54745 0.375 0.8125 0.14459 0.27351 0.31562 0.53562 0.5 0.78125 0.18438 0.24564 0.37378 0.47347 0.59375 0.6875 0.43995 0.42806 0.94291 0.81453 1.5 1.0938 0.27854 0.13961 0.57347 0.24695 0.875 0.34375-0.2562-0.10022-0.48671-0.23627-0.71875-0.375-0.00741-0.0044-0.023866 0.0045-0.03125 0-0.031933-0.0193-0.062293-0.04251-0.09375-0.0625-0.1204-0.0767-0.23102-0.16351-0.34375-0.25-0.10617-0.0808-0.21328-0.16111-0.3125-0.25-0.1778-0.162-0.3473-0.346-0.4999-0.531-0.1075-0.131-0.2183-0.266-0.3124-0.407-0.0251-0.038-0.0385-0.086-0.0626-0.125-0.0647-0.103-0.1302-0.204-0.1874-0.312-0.1011-0.195-0.2057-0.416-0.2813-0.625-0.008-0.022-0.0236-0.041-0.0313-0.063-0.0318-0.092-0.0358-0.187-0.0624-0.281-0.0304-0.107-0.0704-0.203-0.0938-0.313-0.0729-0.341-0.125-0.698-0.125-1.062v-2-68-2c0-2.782 2.2182-5 5-5h2 68 2c2.7818 0 5 2.2182 5 5v2 68 2c0 0.3643-0.05212 0.72099-0.125 1.0625-0.04415 0.20689-0.08838 0.39766-0.15625 0.59375-0.0077 0.02195-0.0233 0.04069-0.03125 0.0625-0.06274 0.17374-0.13838 0.36745-0.21875 0.53125-0.04158 0.0828-0.07904 0.16995-0.125 0.25-0.0546 0.09721-0.12677 0.18835-0.1875 0.28125-0.09411 0.14096-0.20492 0.276-0.3125 0.40625-0.14317 0.17445-0.30314 0.347-0.46875 0.5-0.01117 0.0102-0.01998 0.02115-0.03125 0.03125-0.13839 0.12556-0.28509 0.23444-0.4375 0.34375-0.10257 0.07315-0.20432 0.15336-0.3125 0.21875-0.0074 0.0045-0.02384-0.0044-0.03125 0-0.23204 0.13873-0.46255 0.27478-0.71875 0.375 0.30153-0.0968 0.59646-0.20414 0.875-0.34375 0.55709-0.27922 1.0601-0.66569 1.5-1.0938 0.21997-0.21403 0.40937-0.44186 0.59375-0.6875s0.35541-0.50774 0.5-0.78125c0.14012-0.26505 0.27614-0.52473 0.375-0.8125 0.01041-0.03078 0.02133-0.06274 0.03125-0.09375 0.09046-0.27808 0.1388-0.5794 0.1875-0.875 0.053-0.318 0.094-0.634 0.094-0.969v-2-68-2c0-3.324-2.676-6-6-6h-72z"/>
  <path id="path3615" style="opacity:.15;fill:url(#radialGradient3619)" d="m12 90c-3.324 0-6-2.676-6-6v-2-68-2c0-0.33472 0.04135-0.6507 0.09375-0.96875 0.0487-0.2956 0.09704-0.59692 0.1875-0.875 0.0099-0.03 0.0209-0.063 0.0313-0.094 0.0989-0.2873 0.2349-0.547 0.375-0.812 0.1446-0.2735 0.3156-0.5356 0.5-0.7812 0.1844-0.2457 0.3738-0.4735 0.5937-0.6876 0.44-0.428 0.943-0.8145 1.5-1.0937 0.2786-0.1396 0.5735-0.2469 0.8748-0.3437-0.256 0.1002-0.4865 0.2362-0.7185 0.375-0.00741 0.0044-0.023866-0.0045-0.03125 0-0.031933 0.0193-0.062293 0.04251-0.09375 0.0625-0.1204 0.0767-0.23102 0.16351-0.34375 0.25-0.10617 0.0808-0.21328 0.16111-0.3125 0.25-0.1779 0.1614-0.3474 0.3453-0.5 0.5312-0.1075 0.1303-0.2183 0.2653-0.3124 0.4063-0.0251 0.0383-0.0385 0.0858-0.0626 0.125-0.0647 0.103-0.1302 0.2045-0.1874 0.3124-0.1011 0.1948-0.2057 0.4158-0.2813 0.625-0.008 0.0219-0.0236 0.0406-0.0313 0.0626-0.0318 0.0919-0.0358 0.1868-0.0624 0.2812-0.0304 0.1066-0.0704 0.203-0.0938 0.3125-0.0729 0.3415-0.125 0.6985-0.125 1.0625v2 68 2c0 2.7818 2.2182 5 5 5h2 68 2c2.7818 0 5-2.2182 5-5v-2-68-2c0-0.364-0.052-0.721-0.125-1.0625-0.044-0.2069-0.088-0.3977-0.156-0.5937-0.008-0.022-0.024-0.0407-0.031-0.0626-0.063-0.1737-0.139-0.3674-0.219-0.5312-0.042-0.0828-0.079-0.17-0.125-0.25-0.055-0.0972-0.127-0.1884-0.188-0.2812-0.094-0.141-0.205-0.276-0.312-0.4063-0.143-0.1745-0.303-0.347-0.469-0.5-0.011-0.0102-0.02-0.0211-0.031-0.0313-0.139-0.1255-0.285-0.2344-0.438-0.3437-0.102-0.0731-0.204-0.1534-0.312-0.2187-0.0074-0.0045-0.02384 0.0044-0.03125 0-0.23204-0.13873-0.46255-0.27478-0.71875-0.375 0.30153 0.0968 0.59646 0.20414 0.875 0.34375 0.55709 0.27922 1.0601 0.66569 1.5 1.0938 0.21997 0.21403 0.40937 0.44186 0.59375 0.6875s0.35541 0.50774 0.5 0.78125c0.14012 0.26505 0.27614 0.52473 0.375 0.8125 0.01041 0.03078 0.02133 0.06274 0.03125 0.09375 0.09046 0.27808 0.1388 0.5794 0.1875 0.875 0.053 0.318 0.094 0.634 0.094 0.969v2 68 2c0 3.324-2.676 6-6 6h-72z"/>
 </g>
 <g id="layer5">
  <rect id="rect3171" style="opacity:.1;filter:url(#filter3794);stroke:#fff;stroke-linecap:round;stroke-width:.5;fill:url(#linearGradient3613)" clip-path="url(#clipPath3613)" rx="12" ry="12" height="66" width="66" y="15" x="15"/>
 </g>
 <g id="layer3">
  <path id="path3859" style="opacity:.8;filter:url(#filter3861);fill:#feeeb7" d="m-65.764 77.871c-0.79265-0.07539-1.8141-0.39406-2.0982-0.67554l0.0091-11.63-0.93814-3.6951-0.93814-3.6951-5.1797 9.0229c-2.8489 4.9626-5.4581 9.3129-5.7984 9.6674-0.86375 0.89982-1.3658 0.85948-2.855-0.22936-1.2752-0.93239-1.5612-1.3962-1.3949-2.2626 0.14983-0.78064 0.01978-0.54339 6.0968-11.122 3.0117-5.2429 5.5079-9.6986 5.5471-9.9017 0.06098-0.31595-0.19657-0.5109-1.7845-1.3507-1.8336-0.96981-1.8587-0.97725-2.1078-0.62502-0.44244 0.62563-1.0767 0.44356-2.3147-0.66443-1.6988-1.5204-1.7577-1.2758 1.9874-8.2598 1.698-3.1666 3.2747-5.9508 3.5037-6.1871l0.41632-0.42966 7.4387-0.04987 7.4387-0.04987-0.25392-0.80946c-0.5915-1.8856 0.0095-4.1966 1.4484-5.5693 2.4415-2.3292 6.364-1.5557 7.9025 1.5585 0.57991 1.1738 0.63589 3.0555 0.13056 4.3884-0.76105 2.0074-2.5339 3.2258-4.6934 3.2258-1.1372 0-1.1938 0.01883-1.1165 0.37153 0.04475 0.20434 0.32776 4.6639 0.6289 9.91 0.41215 7.18 0.50256 9.7074 0.36566 10.221-0.10003 0.37562-0.15608 0.72364-0.12456 0.77339 1.574 0.88863 3.1906 1.8015 4.9048 2.3148 1.3362-1.8775 3.7973-4.7292 4.2752-4.9538 3.318-0.46209 6.8529-0.48897 10.16 0.0229 5.6574 6.5601 11.184 13.765 16.197 20.845l-41.234 0.08249 8.7135-13.735c-0.03569-0.02979-2.8298-1.4995-6.2091-3.266-5.4967-2.8734-6.6195-3.3664-6.6059-2.9006 0.0022 0.07386 0.42578 1.8724 0.9414 3.9968l1.19 3.8625 0.01906 5.6271c0.01843 5.4432 0.0075 5.6385-0.33406 5.9768-0.37544 0.37185-1.1343 0.40383-3.3339 0.19464zm6.7209-24.808c-0.126-2.387-0.27701-4.518-0.33557-4.7357-0.08264-0.30718-0.47145 0.42387-1.7367 3.2654-0.89663 2.0137-1.656 3.711-1.6874 3.7719-0.06085 0.11785 3.795 2.1741 3.9168 2.0888 0.03957-0.02773-0.03115-2.0034-0.15715-4.3904zm-11.16-6.8789c1.0685-2.3846 1.9954-4.4737 2.0598-4.6425 0.10863-0.28444-0.01879-0.30322-1.7489-0.2578l-1.866 0.04899-1.971 3.6822c-1.084 2.0252-1.9355 3.7173-1.8922 3.7602 0.11052 0.10946 3.2829 1.7412 3.3888 1.743 0.04772 0.000818 0.96095-1.9495 2.0294-4.3342z" clip-path="url(#clipPath3865)" transform="translate(100)"/>
  <path id="path3856" style="fill:#3a2d01" d="m34.236 77.871c-0.79265-0.07539-1.8141-0.39406-2.0982-0.67554l0.0091-11.63-0.93814-3.6951-0.93814-3.6951-5.1797 9.0229c-2.8489 4.9626-5.4581 9.3129-5.7984 9.6674-0.86375 0.89982-1.3658 0.85948-2.855-0.22936-1.2752-0.93239-1.5612-1.3962-1.3949-2.2626 0.14983-0.78064 0.01978-0.54339 6.0968-11.122 3.0117-5.2429 5.5079-9.6986 5.5471-9.9017 0.06098-0.31595-0.19657-0.5109-1.7845-1.3507-1.8336-0.96981-1.8587-0.97725-2.1078-0.62502-0.44244 0.62563-1.0767 0.44356-2.3147-0.66443-1.6988-1.5204-1.7577-1.2758 1.9874-8.2598 1.698-3.1666 3.2747-5.9508 3.5037-6.1871l0.41632-0.42966 7.4387-0.04987 7.4387-0.04987-0.25392-0.80946c-0.5915-1.8856 0.0095-4.1966 1.4484-5.5693 2.4415-2.3292 6.364-1.5557 7.9025 1.5585 0.57991 1.1738 0.63589 3.0555 0.13056 4.3884-0.76105 2.0074-2.5339 3.2258-4.6934 3.2258-1.1372 0-1.1938 0.01883-1.1165 0.37153 0.04475 0.20434 0.32776 4.6639 0.6289 9.91 0.41215 7.18 0.50256 9.7074 0.36566 10.221-0.10003 0.37562-0.15608 0.72364-0.12456 0.77339 1.574 0.88863 3.1906 1.8015 4.9048 2.3148 1.3362-1.8775 3.7973-4.7292 4.2752-4.9538 3.318-0.46209 6.8529-0.48897 10.16 0.0229 5.6574 6.5601 11.184 13.765 16.197 20.845l-41.234 0.08249 8.7135-13.735c-0.03569-0.02979-2.8298-1.4995-6.2091-3.266-5.4967-2.8734-6.6195-3.3664-6.6059-2.9006 0.0022 0.07386 0.42578 1.8724 0.9414 3.9968l1.19 3.8625 0.01906 5.6271c0.01843 5.4432 0.0075 5.6385-0.33406 5.9768-0.37544 0.37185-1.1343 0.40383-3.3339 0.19464zm6.7209-24.808c-0.126-2.387-0.27701-4.518-0.33557-4.7357-0.08264-0.30718-0.47145 0.42387-1.7367 3.2654-0.89663 2.0137-1.656 3.711-1.6874 3.7719-0.06085 0.11785 3.795 2.1741 3.9168 2.0888 0.03957-0.02773-0.03115-2.0034-0.15715-4.3904zm-11.16-6.8789c1.0685-2.3846 1.9954-4.4737 2.0598-4.6425 0.10863-0.28444-0.01879-0.30322-1.7489-0.2578l-1.866 0.04899-1.971 3.6822c-1.084 2.0252-1.9355 3.7173-1.8922 3.7602 0.11052 0.10946 3.2829 1.7412 3.3888 1.743 0.04772 0.000818 0.96095-1.9495 2.0294-4.3342z"/>
  <path id="path3869" style="opacity:.8;filter:url(#filter3881);stroke:#000;fill:none" d="m-55.764 77.871c-0.79265-0.07539-1.8141-0.39406-2.0982-0.67554l0.0091-11.63-0.93814-3.6951-0.93814-3.6951-5.1797 9.0229c-2.8489 4.9626-5.4581 9.3129-5.7984 9.6674-0.86375 0.89982-1.3658 0.85948-2.855-0.22936-1.2752-0.93239-1.5612-1.3962-1.3949-2.2626 0.14983-0.78064 0.01978-0.54339 6.0968-11.122 3.0117-5.2429 5.5079-9.6986 5.5471-9.9017 0.06098-0.31595-0.19657-0.5109-1.7845-1.3507-1.8336-0.96981-1.8587-0.97725-2.1078-0.62502-0.44244 0.62563-1.0767 0.44356-2.3147-0.66443-1.6988-1.5204-1.7577-1.2758 1.9874-8.2598 1.698-3.1666 3.2747-5.9508 3.5037-6.1871l0.41632-0.42966 7.4387-0.04987 7.4387-0.04987-0.25392-0.80946c-0.5915-1.8856 0.0095-4.1966 1.4484-5.5693 2.4415-2.3292 6.364-1.5557 7.9025 1.5585 0.57991 1.1738 0.63589 3.0555 0.13056 4.3884-0.76105 2.0074-2.5339 3.2258-4.6934 3.2258-1.1372 0-1.1938 0.01883-1.1165 0.37153 0.04475 0.20434 0.32776 4.6639 0.6289 9.91 0.41215 7.18 0.50256 9.7074 0.36566 10.221-0.10003 0.37562-0.15608 0.72364-0.12456 0.77339 1.574 0.88863 3.1906 1.8015 4.9048 2.3148 1.3362-1.8775 3.7973-4.7292 4.2752-4.9538 3.318-0.46209 6.8529-0.48897 10.16 0.0229 5.6574 6.5601 11.184 13.765 16.197 20.845l-41.234 0.08249 8.7135-13.735c-0.03569-0.02979-2.8298-1.4995-6.2091-3.266-5.4967-2.8734-6.6195-3.3664-6.6059-2.9006 0.0022 0.07386 0.42578 1.8724 0.9414 3.9968l1.19 3.8625 0.01906 5.6271c0.01843 5.4432 0.0075 5.6385-0.33406 5.9768-0.37544 0.37185-1.1343 0.40383-3.3339 0.19464zm6.7209-24.808c-0.126-2.387-0.27701-4.518-0.33557-4.7357-0.08264-0.30718-0.47145 0.42387-1.7367 3.2654-0.89663 2.0137-1.656 3.711-1.6874 3.7719-0.06085 0.11785 3.795 2.1741 3.9168 2.0888 0.03957-0.02773-0.03115-2.0034-0.15715-4.3904zm-11.16-6.8789c1.0685-2.3846 1.9954-4.4737 2.0598-4.6425 0.10863-0.28444-0.01879-0.30322-1.7489-0.2578l-1.866 0.04899-1.971 3.6822c-1.084 2.0252-1.9355 3.7173-1.8922 3.7602 0.11052 0.10946 3.2829 1.7412 3.3888 1.743 0.04772 0.000818 0.96095-1.9495 2.0294-4.3342z" clip-path="url(#clipPath3873)" transform="translate(90,1)"/>
 </g>
</svg>
