<?xml version="1.0" encoding="UTF-8" standalone="no"?>
<!-- Created with Inkscape (http://www.inkscape.org/) -->
<svg id="svg2408" xmlns:rdf="http://www.w3.org/1999/02/22-rdf-syntax-ns#" xmlns="http://www.w3.org/2000/svg" height="96" width="96" version="1.0" xmlns:cc="http://creativecommons.org/ns#" xmlns:xlink="http://www.w3.org/1999/xlink" xmlns:dc="http://purl.org/dc/elements/1.1/">
 <defs id="defs2410">
  <linearGradient id="ButtonShadow" y2="7.0165" gradientUnits="userSpaceOnUse" x2="45.448" gradientTransform="scale(1.0059 .99417)" y1="92.54" x1="45.448">
   <stop id="stop3750" offset="0"/>
   <stop id="stop3752" style="stop-opacity:.58824" offset="1"/>
  </linearGradient>
  <filter id="filter3174" color-interpolation-filters="sRGB">
   <feGaussianBlur id="feGaussianBlur3176" stdDeviation="1.71"/>
  </filter>
  <filter id="filter3794" height="1.384" width="1.384" color-interpolation-filters="sRGB" y="-.192" x="-.192">
   <feGaussianBlur id="feGaussianBlur3796" stdDeviation="5.28"/>
  </filter>
  <linearGradient id="linearGradient3613" y2="138.66" gradientUnits="userSpaceOnUse" x2="48" y1="20.221" x1="48">
   <stop id="stop3739" style="stop-color:#fff" offset="0"/>
   <stop id="stop3741" style="stop-color:#fff;stop-opacity:0" offset="1"/>
  </linearGradient>
  <clipPath id="clipPath3613">
   <rect id="rect3615" style="fill:#fff" rx="6" ry="6" height="84" width="84" y="6" x="6"/>
  </clipPath>
  <radialGradient id="radialGradient2874" gradientUnits="userSpaceOnUse" cy="90.172" cx="48" gradientTransform="matrix(1.1573 0 0 .99591 -7.551 .19713)" r="42">
   <stop id="stop3739-2" style="stop-color:#fff" offset="0"/>
   <stop id="stop3741-7" style="stop-color:#fff;stop-opacity:0" offset="1"/>
  </radialGradient>
  <linearGradient id="linearGradient3279" y2="83.295" gradientUnits="userSpaceOnUse" x2="43.179" gradientTransform="matrix(1.0294 0 0 -1.0294 -1.4118 97.412)" y1="13" x1="43.179">
   <stop id="stop3275" style="stop-color:#b2b2b2" offset="0"/>
   <stop id="stop3277" style="stop-color:#898989" offset="1"/>
  </linearGradient>
  <linearGradient id="linearGradient3188-8" y2="63.893" gradientUnits="userSpaceOnUse" x2="36.357" y1="6" x1="36.357">
   <stop id="stop3739-4" style="stop-color:#fff" offset="0"/>
   <stop id="stop3741-76" style="stop-color:#fff;stop-opacity:0" offset="1"/>
  </linearGradient>
  <linearGradient id="linearGradient2912" y2="5.9877" gradientUnits="userSpaceOnUse" x2="48" y1="90" x1="48">
   <stop id="stop3189-7" style="stop-color:#656565" offset="0"/>
   <stop id="stop3191-8" style="stop-color:#dcdcdc" offset="1"/>
  </linearGradient>
  <linearGradient id="linearGradient3880" y2="8.5507" gradientUnits="userSpaceOnUse" x2="60.777" gradientTransform="matrix(.68606 0 0 .68376 4.2424 5.7272)" y1="115.28" x1="60.777">
   <stop id="stop3236" style="stop-color:#232323" offset="0"/>
   <stop id="stop3238" style="stop-color:#4b4b4b" offset="1"/>
  </linearGradient>
  <clipPath id="clipPath3918">
   <rect id="rect3920" style="fill:#fff" rx="3" ry="3" height="68" width="68" y="14" x="14"/>
  </clipPath>
  <linearGradient id="linearGradient7450">
   <stop id="stop7452" style="stop-color:#e3e3e3" offset="0"/>
   <stop id="stop7454" style="stop-color:#939393" offset="1"/>
  </linearGradient>
  <filter id="filter7809" color-interpolation-filters="sRGB">
   <feGaussianBlur id="feGaussianBlur7811" stdDeviation="1.8596875"/>
  </filter>
  <filter id="filter7813" color-interpolation-filters="sRGB">
   <feGaussianBlur id="feGaussianBlur7815" stdDeviation="1.4521875"/>
  </filter>
  <linearGradient id="linearGradient3298">
   <stop id="stop3300" style="stop-color:#f9f9f9" offset="0"/>
   <stop id="stop3302" style="stop-color:#3c3c3c" offset="1"/>
  </linearGradient>
  <filter id="filter7542" color-interpolation-filters="sRGB">
   <feGaussianBlur id="feGaussianBlur7544" stdDeviation="0.063379309"/>
  </filter>
  <filter id="filter4244" color-interpolation-filters="sRGB">
   <feGaussianBlur id="feGaussianBlur4246" stdDeviation="1.56844"/>
  </filter>
  <radialGradient id="radialGradient4255" xlink:href="#linearGradient7450" gradientUnits="userSpaceOnUse" cy="1.4733" cx="48.969" gradientTransform="matrix(.99999 .0036856 -.0020988 .56946 .0034247 .45341)" r="83.476"/>
  <linearGradient id="linearGradient4257" y2="19.184" gradientUnits="userSpaceOnUse" x2="49.625" y1="34.162" x1="73.195">
   <stop id="stop3189-0" style="stop-color:#656565" offset="0"/>
   <stop id="stop3191-1" style="stop-color:#dcdcdc" offset="1"/>
  </linearGradient>
  <linearGradient id="linearGradient4261" y2="37.811" xlink:href="#linearGradient7450" gradientUnits="userSpaceOnUse" x2="77.52" y1="18.785" x1="39.292"/>
  <filter id="filter4278" color-interpolation-filters="sRGB">
   <feGaussianBlur id="feGaussianBlur4280" stdDeviation="1.8909375"/>
  </filter>
  <clipPath id="clipPath4290">
   <path id="path4292" style="fill:#fff" d="m81.776 33.017-1.6986 4.0609-0.4881 2.909 0.09754 1.1129-4.3928 0.56619-0.19524-1.0738-1.2105-2.6943-2.6943-3.4947-2.7529 0.7419-0.58571 4.3538 0.29286 2.9481 0.37095 1.0348-4.0805 1.6986-0.46856-0.99571-1.8743-2.2843-3.5143-2.6748-2.46 1.4252 0.56619 4.3733 1.0348 2.7528 0.62476 0.91762-3.4948 2.6943-0.72239-0.83952-2.4014-1.7376-4.0804-1.6595-2.0109 2.0109 1.679 4.0609 1.7181 2.4014 0.83952 0.72238-2.6943 3.5143-0.89809-0.62476-2.7724-1.0543-4.3538-0.56619-1.4252 2.4795 2.6552 3.4947 2.3038 1.8743 0.9762 0.46857-1.679 4.0805-1.0348-0.37095-2.9481-0.29286-4.3538 0.60524-0.74191 2.7333 3.4752 2.6943 2.6943 1.23 1.0933 0.19524-0.58571 4.3733-1.0933-0.07809-2.9286 0.46857-4.0609 1.6986v2.8505l4.0609 1.6986 2.9286 0.48809 1.0933-0.09763 0.58571 4.3928-1.0933 0.19524-2.6943 1.2105-3.4752 2.6943 0.74191 2.7528 4.3538 0.58571 2.9481-0.29285 1.0348-0.37095 1.679 4.0805-0.9762 0.46857-2.3038 1.8743-2.6552 3.5143 1.4252 2.46 4.3538-0.56618 2.7724-1.0348 0.89809-0.62476 2.6943 3.4948-0.83952 0.72237-1.7181 2.4014-1.679 4.0805 2.0109 2.0109 4.0804-1.679 2.4014-1.7181 0.72239-0.83952 3.4948 2.6943-0.62476 0.89809-1.0348 2.7724-0.56619 4.3538 2.46 1.4252 3.5143-2.6552 1.8743-2.3038 0.46856-0.97618 4.0805 1.679-0.37095 1.0348-0.29286 2.9481 0.58571 4.3538 2.7529 0.74191 2.6943-3.4752 1.2105-2.6943 0.19524-1.0933 4.3928 0.58571-0.09754 1.0933 0.4881 2.9286 1.6986 4.0609h2.8505l1.6986-4.0609 0.46858-2.9286-0.07803-1.0933 4.3733-0.58571 0.19524 1.0933 1.23 2.6943 2.6943 3.4752 2.7333-0.74191 0.60524-4.3538-0.29286-2.9481-0.37096-1.0348 4.0805-1.679 0.46858 0.97618 1.8743 2.3038 3.4948 2.6552 2.4795-1.4252-0.56619-4.3538-1.0543-2.7724-0.62476-0.89809 3.5143-2.6943 0.72239 0.83952 2.4014 1.7181 4.0609 1.679 2.011-2.0109-1.6595-4.0805-1.7376-2.4014-0.83953-0.72237 2.6943-3.4948 0.91761 0.62476 2.7529 1.0348 4.3733 0.56618 1.4252-2.46-2.6748-3.5143-2.2843-1.8743-0.9957-0.46857 1.6986-4.0805 1.0348 0.37095 2.9481 0.29285 4.3538-0.58571 0.74188-2.7528-3.4947-2.6943-2.6943-1.2105-1.0738-0.19524 0.56619-4.3928 1.1128 0.09763 2.9091-0.48809 4.0609-1.6986v-2.8505l-4.0609-1.6986-2.9091-0.46857-1.1128 0.07809-0.56619-4.3733 1.0738-0.19524 2.6943-1.23 3.4947-2.6943-0.74188-2.7333-4.3538-0.60524-2.9481 0.29286-1.0348 0.37095-1.6986-4.0805 0.9957-0.46857 2.2843-1.8743 2.6748-3.4947-1.4252-2.4795-4.3733 0.56619-2.7529 1.0543-0.91761 0.62476-2.6943-3.5143 0.83953-0.72238 1.7376-2.4014 1.6595-4.0609-2.011-2.0109-4.0609 1.6595-2.4014 1.7376-0.72239 0.83952-3.5143-2.6943 0.62476-0.91762 1.0543-2.7528 0.56619-4.3733-2.4795-1.4252-3.4948 2.6748-1.8743 2.2843-0.46858 0.99571-4.0805-1.6986 0.37096-1.0348 0.29286-2.9481-0.60525-4.3538-2.7333-0.7419-2.6943 3.4947-1.23 2.6943-0.19524 1.0738-4.3733-0.56619 0.07803-1.1129-0.46858-2.909-1.6986-4.0609h-2.8505zm1.4252 14.916c4.751 0 9.2828 0.91552 13.452 2.5576l-7.9462 15.404c-1.7493-0.51244-3.5914-0.80047-5.5057-0.80047-3.7958 0-7.3447 1.0972-10.348 2.9676l-11.792-12.71c6.1625-4.6533 13.829-7.419 22.14-7.419zm20.109 6.0133c10.023 6.5674 16.654 17.877 16.654 30.75 0 0.96141-0.0447 1.9075-0.1172 2.8505l-17.05-3.084c-0.07-6.124-2.97-11.566-7.436-15.111l7.946-15.405zm-47.755 6.5014 11.792 12.71c-2.3658 3.2389-3.7485 7.2234-3.7485 11.539 0 1.593 0.18745 3.144 0.54665 4.6271l-15.756 7.2238c-1.2694-3.7223-1.9719-7.7016-1.9719-11.851 0-9.287 3.4491-17.776 9.1371-24.248zm45.9 31.375 17.064 3.1043c-3.6462 12.613-13.872 22.447-26.708 25.537l-2.3233-17.2c5.479-1.8582 9.871-6.0765 11.968-11.441zm-34.186 4.3147c3.3504 4.6538 8.6989 7.7707 14.779 8.1219l2.3233 17.2c-0.38936 0.0122-0.77909 0.0196-1.1714 0.0196-13.489 0-25.285-7.2763-31.687-18.118l15.756-7.2238z"/>
  </clipPath>
  <clipPath id="clipPath4300">
   <path id="path4302" style="fill:#fff" d="m81.882 32.767-1.7134 4.0964-0.49236 2.9345 0.09839 1.1226-4.4312 0.57114-0.19695-1.0832-1.221-2.7178-2.7178-3.5253-2.7769 0.74839-0.59083 4.3918 0.29542 2.9738 0.37419 1.0438-4.1161 1.7134-0.47266-1.0044-1.8907-2.3042-3.545-2.6981-2.4815 1.4377 0.57114 4.4115 1.0438 2.7769 0.63022 0.92564-3.5253 2.7178-0.7287-0.84686-2.4224-1.7528-4.1161-1.674-2.0285 2.0285 1.6937 4.0964 1.7331 2.4224 0.84686 0.72869-2.7178 3.545-0.90594-0.63022-2.7966-1.0635-4.3918-0.57114-1.4377 2.5012 2.6784 3.5253 2.3239 1.8907 0.98473 0.47266-1.6937 4.1161-1.0438-0.37419-2.9738-0.29542-4.3918 0.61053-0.74839 2.7572 3.5056 2.7178 2.7178 1.2407 1.1029 0.19694-0.59083 4.4115-1.1029-0.07877-2.9542 0.47266-4.0964 1.7134v2.8754l4.0964 1.7134 2.9542 0.49236 1.1029-0.09848 0.59083 4.4312-1.1029 0.19694-2.7178 1.2211-3.5056 2.7178 0.74839 2.7769 4.3918 0.59083 2.9738-0.29541 1.0438-0.3742 1.6937 4.1161-0.98473 0.47267-2.3239 1.8906-2.6784 3.545 1.4377 2.4815 4.3918-0.57113 2.7966-1.0438 0.90594-0.63022 2.7178 3.5253-0.84686 0.72869-1.7331 2.4224-1.6937 4.1161 2.0285 2.0285 4.1161-1.6937 2.4224-1.7331 0.7287-0.84686 3.5253 2.7178-0.63022 0.90594-1.0438 2.7966-0.57114 4.3918 2.4815 1.4377 3.545-2.6784 1.8907-2.3239 0.47266-0.98471 4.1161 1.6937-0.37419 1.0438-0.29542 2.9738 0.59083 4.3918 2.7769 0.74839 2.7178-3.5056 1.221-2.7178 0.19695-1.1029 4.4312 0.59083-0.09839 1.1029 0.49236 2.9542 1.7134 4.0964h2.8754l1.7134-4.0964 0.47267-2.9542-0.07872-1.1029 4.4115-0.59083 0.19695 1.1029 1.2407 2.7178 2.7178 3.5056 2.7572-0.74839 0.61052-4.3918-0.29542-2.9738-0.3742-1.0438 4.1161-1.6937 0.47268 0.98471 1.8906 2.3239 3.5253 2.6784 2.5012-1.4377-0.57114-4.3918-1.0635-2.7966-0.63021-0.90594 3.545-2.7178 0.72871 0.84686 2.4224 1.7331 4.0964 1.6937 2.0285-2.0285-1.674-4.1161-1.7528-2.4224-0.84687-0.72869 2.7178-3.5253 0.92564 0.63022 2.7769 1.0438 4.4115 0.57113 1.4377-2.4815-2.6981-3.545-2.3042-1.8906-1.0044-0.47267 1.7134-4.1161 1.0438 0.3742 2.9738 0.29541 4.3918-0.59083 0.74836-2.7769-3.5253-2.7178-2.7178-1.2211-1.0832-0.19694 0.57114-4.4312 1.1226 0.09848 2.9345-0.49236 4.0964-1.7134v-2.8754l-4.0964-1.7134-2.9345-0.47266-1.1226 0.07877-0.57114-4.4115 1.0832-0.19694 2.7178-1.2407 3.5253-2.7178-0.74836-2.7572-4.3918-0.61053-2.9738 0.29542-1.0438 0.37419-1.7134-4.1161 1.0044-0.47266 2.3042-1.8907 2.6981-3.5253-1.4377-2.5012-4.4115 0.57114-2.7769 1.0635-0.92564 0.63022-2.7178-3.545 0.84686-0.72869 1.7528-2.4224 1.674-4.0964-2.0285-2.0285-4.0964 1.674-2.4224 1.7528-0.7287 0.84686-3.545-2.7178 0.63022-0.92564 1.0635-2.7769 0.57114-4.4115-2.5012-1.4377-3.5253 2.6981-1.8906 2.3042-0.47268 1.0044-4.1161-1.7134 0.3742-1.0438 0.29542-2.9738-0.61054-4.3918-2.7572-0.74839-2.7178 3.5253-1.2407 2.7178-0.19695 1.0832-4.4115-0.57114 0.07872-1.1226-0.47267-2.9345-1.7134-4.0964h-2.8754zm1.4377 15.047c4.7925 0 9.364 0.92352 13.569 2.58l-8.0156 15.539c-1.764-0.518-3.622-0.808-5.553-0.808-3.829 0-7.4089 1.1067-10.438 2.9935l-11.895-12.821c6.2163-4.6939 13.95-7.4839 22.333-7.4839zm20.285 6.0659c10.111 6.6248 16.799 18.033 16.799 31.019 0 0.96982-0.0451 1.9242-0.11822 2.8754l-17.193-3.1117c-0.0737-6.177-2.999-11.667-7.5036-15.243l8.0156-15.539zm-48.172 6.5582 11.895 12.821c-2.3865 3.2672-3.7813 7.2865-3.7813 11.639 0 1.6069 0.18909 3.1715 0.55143 4.6676l-15.893 7.2869c-1.2805-3.7549-1.9891-7.7689-1.9891-11.954 0-9.3682 3.4792-17.931 9.217-24.46zm46.301 31.649 17.213 3.1314c-3.67 12.722-13.99 22.642-26.935 25.762l-2.3436-17.351c5.5269-1.8744 9.9572-6.1296 12.073-11.541zm-34.485 4.3525c3.3797 4.6944 8.7749 7.8386 14.909 8.1929l2.3436 17.351c-0.39277 0.0123-0.7859 0.0198-1.1817 0.0198-13.607 0-25.506-7.3399-31.964-18.276l15.893-7.2869z"/>
  </clipPath>
  <filter id="filter4308" color-interpolation-filters="sRGB">
   <feGaussianBlur id="feGaussianBlur4310" stdDeviation="1.8975"/>
  </filter>
  <filter id="filter4325" color-interpolation-filters="sRGB">
   <feGaussianBlur id="feGaussianBlur4327" stdDeviation="1.439999"/>
  </filter>
  <radialGradient id="radialGradient4338" xlink:href="#linearGradient7450" gradientUnits="userSpaceOnUse" cy="55.979" cx="56.055" gradientTransform="matrix(.62430 -.62430 .39740 .39740 57.19 56.707)" r="52.252"/>
  <linearGradient id="linearGradient4340" y2="130.51" gradientUnits="userSpaceOnUse" x2="113.84" gradientTransform="matrix(.68606 0 0 .68606 75.974 5.5532)" y1="42.24" x1="50.76">
   <stop id="stop4284" style="stop-color:#e8e8e8" offset="0"/>
   <stop id="stop4286" style="stop-color:#828282" offset="1"/>
  </linearGradient>
  <linearGradient id="linearGradient4342" y2="84.938" xlink:href="#linearGradient3298" gradientUnits="userSpaceOnUse" x2="82.574" y1="82.615" x1="80.875"/>
  <linearGradient id="linearGradient4344" y2="82.652" xlink:href="#linearGradient3298" gradientUnits="userSpaceOnUse" x2="81.313" y1="85.362" x1="82.312"/>
  <clipPath id="clipPath4350">
   <rect id="rect4352" style="fill:#fff" rx="3" ry="3" height="68" width="68" y="14" x="84"/>
  </clipPath>
  <clipPath id="clipPath4354">
   <rect id="rect4356" style="fill:#fff" rx="3" ry="3" height="68" width="68" y="14" x="-36"/>
  </clipPath>
  <filter id="filter3773" height="1.336" width="1.336" color-interpolation-filters="sRGB" y="-.168" x="-.168">
   <feGaussianBlur id="feGaussianBlur3775" stdDeviation="5.04"/>
  </filter>
  <linearGradient id="ButtonShadow-0" y2="7.0165" gradientUnits="userSpaceOnUse" x2="45.448" gradientTransform="matrix(1.0059 0 0 .99417 100 0)" y1="92.54" x1="45.448">
   <stop id="stop3750-8" offset="0"/>
   <stop id="stop3752-5" style="stop-opacity:.58824" offset="1"/>
  </linearGradient>
  <linearGradient id="linearGradient3780" y2="90.239" xlink:href="#ButtonShadow-0" gradientUnits="userSpaceOnUse" x2="32.251" gradientTransform="matrix(1.0238 0 0 1.0119 -1.1429 -98.071)" y1="6.1317" x1="32.251"/>
  <linearGradient id="linearGradient3721" y2="90.239" xlink:href="#ButtonShadow-0" gradientUnits="userSpaceOnUse" x2="32.251" gradientTransform="translate(0,-97)" y1="6.1317" x1="32.251"/>
 </defs>
 <metadata id="metadata2413">
  <rdf:RDF>
   <cc:Work rdf:about="">
    <dc:format>image/svg+xml</dc:format>
    <dc:type rdf:resource="http://purl.org/dc/dcmitype/StillImage"/>
   </cc:Work>
  </rdf:RDF>
 </metadata>
 <g id="layer2" style="display:none">
  <rect id="rect3745" style="opacity:.9;filter:url(#filter3174);fill:url(#ButtonShadow)" rx="6" ry="6" height="85" width="86" y="7" x="5"/>
 </g>
 <g id="layer6">
  <path id="path3786" style="opacity:0.08;fill:url(#linearGradient3780)" d="m12-95.031c-5.5111 0-10.031 4.5202-10.031 10.031v71c0 5.5111 4.5202 10.031 10.031 10.031h72c5.5111 0 10.031-4.5202 10.031-10.031v-71c0-5.5111-4.5202-10.031-10.031-10.031h-72z" transform="scale(1,-1)"/>
  <path id="path3778" style="opacity:.1;fill:url(#linearGradient3780)" d="m12-94.031c-4.9716 0-9.0312 4.0596-9.0312 9.0312v71c0 4.9716 4.0596 9.0312 9.0312 9.0312h72c4.9716 0 9.0312-4.0596 9.0312-9.0312v-71c0-4.9716-4.0596-9.0312-9.0312-9.0312h-72z" transform="scale(1,-1)"/>
  <path id="path3770" style="opacity:.2;fill:url(#linearGradient3780)" d="m12-93c-4.4091 0-8 3.5909-8 8v71c0 4.4091 3.5909 8 8 8h72c4.4091 0 8-3.5909 8-8v-71c0-4.4091-3.5909-8-8-8h-72z" transform="scale(1,-1)"/>
  <rect id="rect3723" style="opacity:.3;fill:url(#linearGradient3780)" transform="scale(1,-1)" rx="7" ry="7" height="85" width="86" y="-92" x="5"/>
  <rect id="rect3716" style="opacity:.45;fill:url(#linearGradient3721)" transform="scale(1,-1)" rx="6" ry="6" height="84" width="84" y="-91" x="6"/>
 </g>
 <g id="layer3">
  <rect id="rect3232" style="fill:url(#linearGradient3880);fill-rule:evenodd" rx="7.5467" ry="7.5213" height="72" width="72" y="14" x="12"/>
  <g id="g4329" transform="translate(-69,1)" clip-path="url(#clipPath4350)">
   <path id="path4312" style="block-progression:tb;text-indent:0;filter:url(#filter4325);color:#000000;text-transform:none" d="m131.78 29.594-0.125 0.3125-1.1562 2.7812-0.0312 0.0625v0.03125l-0.34375 2v0.0625 0.0625l0.0312 0.3125-2.0938 0.25-0.0312-0.25v-0.0625l-0.04-0.062-0.84-1.844-0.04-0.062-0.03-0.063-1.84-2.375-0.1875-0.28125-0.34375 0.09375-1.875 0.5-0.34375 0.09375-0.0312 0.34375-0.40625 2.9688v0.0625 0.0625l0.21875 2.0312v0.0625 0.0625l0.0937 0.25-1.9062 0.78125-0.125-0.21875-0.03-0.062-0.03-0.062-1.28-1.563-0.0312-0.03125-0.0625-0.0625-2.4062-1.8125-0.28125-0.21875-0.28125 0.15625-1.6875 1-0.28125 0.15625 0.0312 0.34375 0.40625 3v0.0625l0.0312 0.03125 0.6875 1.9062 0.0312 0.0625 0.0312 0.03125 0.15625 0.25-1.6562 1.2812-0.1875-0.21875-0.0312-0.0625-0.0312-0.03125-1.6562-1.1875-0.0625-0.03125-0.0312-0.03125-2.8125-1.125-0.3125-0.125-0.21875 0.21875-1.4062 1.375-0.21875 0.25 0.125 0.3125 1.1562 2.7812 0.0312 0.0625 0.0312 0.03125 1.1562 1.6562 0.0312 0.0625 0.0625 0.03125 0.21875 0.1875-1.2812 1.6562-0.21875-0.15625-0.0625-0.03125-0.0312-0.03125-1.9062-0.71875-0.0625-0.03125h-0.0625l-3-0.375-0.3125-0.0625-0.1875 0.3125-0.96875 1.6875-0.15625 0.28125 0.1875 0.28125 1.8125 2.4062 0.0625 0.03125 0.0312 0.03125 1.5938 1.3125 0.0312 0.03125 0.0625 0.03125 0.25 0.125-0.78125 1.9062-0.28125-0.09375-0.0625-0.03125h-0.0625l-2.0312-0.1875-0.0312-0.03125-0.06 0.034-3 0.407-0.312 0.031-0.0937 0.34375-0.53125 1.875-0.0625 0.3125 0.25 0.21875 2.375 1.8438 0.0625 0.03125 0.0625 0.03125 1.8438 0.84375 0.0625 0.03125h0.0625l0.28125 0.03125-0.28125 2.0938-0.28125-0.03125h-0.0625-0.0625l-2 0.3125-0.0625 0.03125h-0.0625l-2.7812 1.1875-0.3125 0.125v0.3125 1.9688 0.34375l0.3125 0.125 2.7812 1.1562 0.0625 0.03125h0.0625l2 0.34375h0.0625 0.0625l0.28125-0.03125 0.2812 2.0938-0.28125 0.03125h-0.0625l-0.0625 0.03125-1.8438 0.84375-0.0625 0.03125-0.0625 0.03125-2.375 1.8438-0.25 0.21875 0.0625 0.3125 0.53125 1.875 0.0937 0.34375 0.3125 0.03125 3 0.40625h0.0625 0.0312l2.0312-0.1875 0.0625-0.03125h0.0625l0.28125-0.09375 0.78125 1.9062-0.25 0.125-0.06 0.031-0.0312 0.03125-1.5938 1.2812-0.0312 0.0625-0.0625 0.03125-1.8125 2.4062-0.1875 0.28125 0.15625 0.28125 0.96875 1.6875 0.1875 0.28125 0.3125-0.03125 3-0.40625h0.0625 0.0312l1.9062-0.71875 0.0625-0.03125 0.06-0.031 0.22-0.156 1.28 1.656-0.22 0.188-0.06 0.031-0.03 0.031-1.16 1.656-0.06 0.063v0.031l-1.1562 2.8125-0.125 0.3125 0.21875 0.25 1.4062 1.375 0.21875 0.21875 0.3125-0.125 2.8125-1.1562h0.0312l0.0625-0.03125 1.6562-1.1875 0.0312-0.03125 0.0312-0.0625 0.1875-0.21875 1.6562 1.2812-0.15625 0.21875-0.0312 0.0625-0.0312 0.0625-0.6875 1.9062-0.0312 0.03125v0.0625l-0.40625 3-0.0312 0.3125 0.28125 0.1875 1.6875 0.96875 0.28125 0.15625 0.28125-0.1875 2.4062-1.8125 0.0625-0.03125 0.0312-0.0625 1.2812-1.5938 0.0312-0.03125 0.0312-0.0625 0.125-0.21875 1.9062 0.78125-0.0937 0.25v0.0625 0.0625l-0.21875 2.0312v0.0625 0.03125l0.40625 3 0.0312 0.34375 0.34375 0.0625 1.875 0.53125 0.34375 0.0625 0.1875-0.25 1.8438-2.375 0.03-0.063 0.04-0.062 0.84-1.844 0.0312-0.0625v-0.0625l0.0312-0.28125 2.0938 0.28125-0.0312 0.28125v0.0625 0.0625l0.34375 2.0312v0.03125l0.0312 0.0625 1.1562 2.7812 0.125 0.3125h0.34375 1.9688 0.3125l0.125-0.3125 1.1875-2.7812 0.0312-0.0625v-0.0625l0.3125-2v-0.0625-0.0625-0.28125l2.0625-0.28125 0.0312 0.28125 0.0312 0.0625v0.0625l0.84375 1.875 0.0312 0.03125 0.0312 0.0625 1.875 2.375 0.1875 0.28125 0.3125-0.0937 1.9062-0.53125 0.3125-0.0625 0.0312-0.34375 0.4375-3v-0.03125-0.0625l-0.21875-2.0312v-0.0625l-0.0312-0.0625-0.0937-0.25 1.9375-0.78125 0.125 0.21875v0.0625l0.0625 0.03125 1.2812 1.5938 0.0312 0.03125 0.0625 0.0625 2.375 1.8125 0.28125 0.1875 0.28125-0.15625 1.7188-0.96875 0.28125-0.1875-0.0625-0.3125-0.375-3v-0.0625l-0.0312-0.03125-0.72-1.907-0.03-0.062-0.03-0.063-0.16-0.218 1.66-1.282 0.1875 0.21875 0.0312 0.0625 0.0625 0.03125 1.6562 1.1875 0.0312 0.03125h0.0625l2.7812 1.1562 0.3125 0.125 0.25-0.21875 1.375-1.375 0.21875-0.25-0.125-0.3125-1.125-2.7812-0.0312-0.0625-0.0312-0.0625-1.1875-1.6563-0.0312-0.03125-0.06-0.03-0.22-0.188 1.2812-1.6562 0.25 0.15625 0.0312 0.03125 0.0625 0.03125 1.9062 0.71875h0.0312 0.0625l3 0.40625 0.34375 0.03125 0.15625-0.28125 1-1.6875 0.15625-0.28125-0.19-0.281-1.84-2.407-0.03-0.031-0.07-0.062-1.56-1.282-0.06-0.031-0.0312-0.03125-0.25-0.125 0.78125-1.9062 0.28125 0.09375h0.0312l0.0625 0.03125 2.0312 0.1875h0.0625 0.0625l3-0.40625 0.3125-0.03125 0.0937-0.34375 0.5-1.875 0.0937-0.3125-0.25-0.21875-2.4062-1.8438-0.0625-0.03125-0.0312-0.03125-1.875-0.84375h-0.0312l-0.0625-0.03125-0.28125-0.0625 0.25-2.0625 0.3125 0.03125h0.0625 0.0625l2-0.34375h0.0312l0.0625-0.03125 2.7812-1.1562 0.3125-0.125v-0.34375-1.9688-0.3125l-0.3125-0.125-2.7812-1.1875h-0.0625l-0.0312-0.03125-2-0.3125h-0.0625-0.0625l-0.3125 0.03125-0.25-2.0625 0.28125-0.0625h0.0625l0.0312-0.03125 1.875-0.84375 0.0312-0.03125 0.0625-0.03125 2.4062-1.8438 0.25-0.21875-0.0937-0.3125-0.5-1.875-0.0937-0.34375-0.3125-0.03125-3-0.40625-0.0625-0.03125-0.0625 0.03125-2.0312 0.1875h-0.0625l-0.0312 0.03125-0.28125 0.09375-0.78125-1.9062 0.25-0.125 0.0312-0.03125 0.0625-0.0625 1.5625-1.2812 0.0625-0.03125 0.0312-0.03125 1.84-2.408 0.1875-0.28125-0.15625-0.28125-1-1.6875-0.15625-0.3125-0.34375 0.0625-3 0.375h-0.0625l-0.0312 0.03125-1.9062 0.71875-0.0625 0.03125-0.0312 0.03125-0.25 0.15625-1.28-1.656 0.22-0.188 0.0625-0.03125 0.0312-0.0625 1.1875-1.6562 0.0312-0.03125 0.0312-0.0625 1.125-2.7812 0.125-0.3125-0.21875-0.25-1.375-1.375-0.25-0.21875-0.3125 0.125-2.7812 1.125-0.0625 0.03125-0.0312 0.03125-1.6562 1.1875-0.0625 0.03125-0.0312 0.0625-0.19 0.219-1.66-1.281 0.16-0.25 0.0312-0.03125 0.0312-0.0625 0.71875-1.875 0.0312-0.0625v-0.0625l0.375-3 0.0625-0.34375-0.28125-0.15625-1.7188-1-0.28125-0.15625-0.28125 0.21875-2.375 1.8125-0.0625 0.0625-0.0312 0.03125-1.2812 1.5625-0.0625 0.0625v0.0625l-0.125 0.21875-1.94-0.781 0.0937-0.25 0.0312-0.0625v-0.0625l0.21875-2.0312v-0.0625-0.0625l-0.4375-3-0.0312-0.3125-0.3125-0.09375-1.9062-0.5-0.3125-0.09375-0.1875 0.28125-1.875 2.375-0.0312 0.0625-0.0312 0.0625-0.84375 1.8438v0.0625l-0.0312 0.0625-0.0312 0.25-2.0625-0.25v-0.3125-0.0625-0.03125l-0.3125-2v-0.0625l-0.0312-0.0625-1.1875-2.7812-0.125-0.3125h-0.3125-1.9688-0.34375zm1.3125 11.25c3.0049 0 5.8668 0.5801 8.5312 1.5625l-5.0312 9.7188c-1.1193-0.29204-2.2866-0.5-3.5-0.5-2.5358 0-4.8872 0.75317-6.9375 1.9375l-7.5-8.0312c4.0703-2.9329 9.0402-4.6875 14.438-4.6875zm14 4.4062c6.4793 4.4643 10.75 11.881 10.75 20.344 0 0.46501-0.004 0.91495-0.0312 1.375l-10.81-1.969c-0.16937-4.0466-2.034-7.6197-4.9375-10.062l5.0312-9.6875zm-32.938 4.4688 7.4688 8.0312c-1.5375 2.2438-2.5 4.9229-2.5 7.8438 0 0.99261 0.1463 1.9388 0.34375 2.875l-9.9375 4.5625c-0.74755-2.3574-1.1875-4.8347-1.1875-7.4375 0-6.0479 2.207-11.575 5.8125-15.875zm31.75 21.312 10.75 1.9375c-2.5297 8.0632-9.0364 14.329-17.25 16.5l-1.4375-10.812c3.5908-1.3384 6.441-4.1145 7.9375-7.625zm-23.875 3.0312c2.3181 3.0227 5.8352 5.0548 9.8438 5.4062l1.4688 10.875c-0.0809 0.00092-0.16914 0-0.25 0-8.8764 0-16.595-4.6966-20.969-11.719l9.9062-4.5625z"/>
   <path id="path6159" style="stroke:url(#linearGradient4340);fill:url(#radialGradient4338)" d="m132.13 28.09-1.1667 2.7894-0.33527 1.9982 0.067 0.76441-3.0174 0.38891-0.13411-0.73759-0.83146-1.8507-1.8507-2.4005-1.8909 0.5096-0.40232 2.9906 0.20116 2.025 0.2548 0.71076-2.8028 1.1667-0.32185-0.68394-1.2874-1.569-2.4139-1.8373-1.6898 0.97898 0.38891 3.004 0.71077 1.8909 0.42914 0.6303-2.4005 1.8507-0.4962-0.57666-1.6495-1.1935-2.8028-1.1399-1.3813 1.3813 1.1533 2.7894 1.1801 1.6495 0.57666 0.4962-1.8507 2.4139-0.61689-0.42914-1.9043-0.72418-2.9906-0.38891-0.97898 1.7032 1.8238 2.4005 1.5825 1.2874 0.67054 0.32186-1.1533 2.8028-0.71076-0.2548-2.025-0.20116-2.9906 0.41573-0.50961 1.8775 2.3871 1.8507 1.8507 0.84487 0.751 0.13411-0.40232 3.004-0.751-0.05364-2.0116 0.32186-2.7894 1.1667v1.958l2.7894 1.1667 2.0116 0.33527 0.751-0.06706 0.40232 3.0174-0.751 0.13411-1.8507 0.83146-2.3871 1.8507 0.50961 1.8909 2.9906 0.40232 2.025-0.20116 0.71076-0.2548 1.1533 2.8028-0.67054 0.32186-1.5825 1.2874-1.8238 2.4139 0.97898 1.6897 2.9906-0.38891 1.9043-0.71077 0.61689-0.42914 1.8507 2.4005-0.57666 0.49619-1.1801 1.6495-1.1533 2.8028 1.3813 1.3813 2.8028-1.1533 1.6495-1.1801 0.4962-0.57666 2.4005 1.8507-0.42914 0.61689-0.71077 1.9043-0.38891 2.9906 1.6898 0.97898 2.4139-1.8239 1.2874-1.5825 0.32185-0.67053 2.8028 1.1533-0.2548 0.71076-0.20116 2.025 0.40232 2.9906 1.8909 0.50961 1.8507-2.3871 0.83146-1.8507 0.13411-0.751 3.0174 0.40232-0.067 0.751 0.33527 2.0116 1.1667 2.7894h1.958l1.1667-2.7894 0.32186-2.0116-0.0536-0.751 3.004-0.40232 0.13411 0.751 0.84487 1.8507 1.8507 2.3871 1.8775-0.50961 0.41573-2.9906-0.20116-2.025-0.25481-0.71076 2.8028-1.1533 0.32186 0.67053 1.2874 1.5825 2.4005 1.8239 1.7032-0.97898-0.38891-2.9906-0.72418-1.9043-0.42914-0.61689 2.4139-1.8507 0.4962 0.57666 1.6495 1.1801 2.7894 1.1533 1.3813-1.3813-1.1399-2.8028-1.1936-1.6495-0.57666-0.49619 1.8507-2.4005 0.6303 0.42914 1.8909 0.71077 3.004 0.38891 0.97898-1.6897-1.8373-2.4139-1.569-1.2874-0.68394-0.32186 1.1667-2.8028 0.71077 0.2548 2.025 0.20116 2.9906-0.40232 0.50959-1.8909-2.4005-1.8507-1.8507-0.83146-0.73759-0.13411 0.38891-3.0174 0.7644 0.06706 1.9982-0.33527 2.7894-1.1667v-1.958l-2.7894-1.1667-1.9982-0.32186-0.7644 0.05364-0.38891-3.004 0.73759-0.13411 1.8507-0.84487 2.4005-1.8507-0.50959-1.8775-2.9906-0.41573-2.025 0.20116-0.71077 0.2548-1.1667-2.8028 0.68394-0.32186 1.569-1.2874 1.8373-2.4005-0.97898-1.7032-3.004 0.38891-1.8909 0.72418-0.6303 0.42914-1.8507-2.4139 0.57666-0.4962 1.1935-1.6495 1.1399-2.7894-1.3813-1.3813-2.7894 1.1399-1.6495 1.1935-0.4962 0.57666-2.4139-1.8507 0.42914-0.6303 0.72418-1.8909 0.38891-3.004-1.7032-0.97898-2.4005 1.8373-1.2874 1.569-0.32186 0.68394-2.8028-1.1667 0.25481-0.71076 0.20116-2.025-0.41574-2.9906-1.8775-0.5096-1.8507 2.4005-0.84487 1.8507-0.13411 0.73759-3.004-0.38891 0.0536-0.76441-0.32186-1.9982-1.1667-2.7894h-1.958zm0.97898 10.246c3.2634 0 6.3763 0.62886 9.24 1.7568l-5.4581 10.581c-1.2016-0.35199-2.4669-0.54984-3.7818-0.54984-2.6073 0-5.045 0.75362-7.1076 2.0384l-8.1-8.7303c4.233-3.1963 9.4992-5.0961 15.208-5.0961zm13.813 4.1305c6.8848 4.5111 11.439 12.279 11.439 21.122 0 0.66039-0.0307 1.3102-0.0805 1.958l-11.707-2.1189c-0.0502-4.2061-2.0422-7.9444-5.1095-10.38l5.4582-10.581zm-32.802 4.4658 8.1 8.7303c-1.625 2.2248-2.5748 4.9617-2.5748 7.9257 0 1.0942 0.12876 2.1596 0.37549 3.1783l-10.822 4.9619c-0.87197-2.5568-1.3545-5.2902-1.3545-8.1403 0-6.3792 2.3691-12.21 6.2762-16.656zm31.528 21.551 11.721 2.1323c-2.5046 8.6635-9.5289 15.419-18.346 17.541l-1.5959-11.815c3.7635-1.2764 6.7803-4.1739 8.2207-7.8586zm-23.482 2.9638c2.3014 3.1966 5.9752 5.3376 10.152 5.5788l1.5959 11.815c-0.26745 0.0084-0.53515 0.01345-0.80464 0.01345-9.2657 0-17.368-4.998-21.766-12.445l10.81-4.963z"/>
   <path id="path7458" style="stroke-linejoin:round;stroke:url(#linearGradient4342);stroke-width:.45234;fill:#b8b8b8" d="m83.039 84.007a1.2367 1.2367 0 1 1 -2.4735 0 1.2367 1.2367 0 1 1 2.4735 0z" transform="matrix(2.2107 0 0 2.2107 -47.743 -122.12)"/>
   <path id="path7536" style="stroke-linejoin:round;filter:url(#filter7542);stroke:#fff;stroke-width:.089896;fill:none" d="m83.039 84.007a1.2367 1.2367 0 1 1 -2.4735 0 1.2367 1.2367 0 1 1 2.4735 0z" transform="matrix(22.248 0 0 22.248 -1686.8 -1805.4)"/>
   <path id="path7546" style="stroke-linejoin:round;stroke:url(#linearGradient4344);stroke-width:.34587;fill:none" d="m83.039 84.007a1.2367 1.2367 0 1 1 -2.4735 0 1.2367 1.2367 0 1 1 2.4735 0z" transform="matrix(5.7825 0 0 5.7825 -339.92 -422.18)"/>
   <path id="path7663" style="opacity:.15;filter:url(#filter4278)" clip-path="url(#clipPath4290)" d="m108 40.531-2.625 2-0.0312 0.0625-1.0312 1.25-19.281 39.969 44.562 11.219-0.0937-0.0625-2.3125-1.0312h-0.0625l-1.0312-0.21875a1.2352 1.2352 0 0 1 -0.96875 -1.375l0.59375-4.375a1.2352 1.2352 0 0 1 1.3125 -1.0625l0.875 0.0625 2.7812-0.46875h0.0312l3.0312-1.2812v-1.25l-3.0938-1.2812-2.75-0.46875h-0.0625l-0.85 0.06a1.2352 1.2352 0 0 1 -1.2812 -1.0625l-0.59375-4.375a1.2352 1.2352 0 0 1 1 -1.375l0.96875-0.15625 2.4062-1.0938 2.7188-2.125-0.3125-1.1562-3.4375-0.46875-2.5938 0.25-0.90625 0.34375a1.2352 1.2352 0 0 1 -1.59 -0.687l-1.6875-4.0938a1.2352 1.2352 0 0 1 0.625 -1.5938l0.875-0.40625 2.0938-1.75 0.0625-0.03125 2-2.625-0.625-1.0938-3.375 0.4375-2.5 0.96875-0.85 0.563a1.2352 1.2352 0 0 1 -1.6562 -0.28125l-2.6875-3.5a1.2352 1.2352 0 0 1 0.15625 -1.6875l0.75-0.65625 1.4688-2 0.0312-0.0625 1.3438-3.2812-0.84375-0.8125-3.2188 1.3125-0.0937 0.03125-2 1.4688-0.65625 0.78125a1.2352 1.2352 0 0 1 -1.6875 0.15625l-3.52-2.719a1.2352 1.2352 0 0 1 -0.28125 -1.6562l0.5625-0.8125 0.96875-2.5 0.4375-3.375-1.0625-0.625zm-4.5938 12.031a1.2352 1.2352 0 0 1 0.6875 0.21875c10.369 6.7943 17.25 18.499 17.25 31.812 0 1.0074-0.0823 1.9764-0.15625 2.9375a1.2352 1.2352 0 0 1 -1.4375 1.125l-17.06-3.094a1.2352 1.2352 0 0 1 -1.0312 -1.2188c-0.0685-5.7468-2.8053-10.826-7-14.156a1.2352 1.2352 0 0 1 -0.3125 -1.5312l7.962-15.406a1.2352 1.2352 0 0 1 1.0938 -0.6875zm-66.469 21.594 0.09375 0.0625 2.4062 1.0938 0.96875 0.15625a1.2352 1.2352 0 0 1 1 1.375l-0.59375 4.375a1.2352 1.2352 0 0 1 -1.2812 1.0625l-0.84375-0.0625h-0.0625l-2.7812 0.46875-3.0938 1.2812v1.25l3.0312 1.2812h0.03125l2.8125 0.46875 0.875-0.0625a1.2352 1.2352 0 0 1 1.3125 1.0625l0.59375 4.375a1.2352 1.2352 0 0 1 -0.96875 1.375l-1.0312 0.21875h-0.0625l-2.3125 1.0312-2.7188 2.125 0.3125 1.1875 3.4375 0.4375 2.5938-0.25 0.90625-0.34375a1.2352 1.2352 0 0 1 1.5938 0.6875l1.6875 4.0938a1.2352 1.2352 0 0 1 -0.625 1.5938l-0.8125 0.40625-2.0938 1.6562-2.0625 2.7812 0.59375 1.0312 3.3438-0.4375 2.5312-0.9375 0.8125-0.5625a1.2352 1.2352 0 0 1 1.6562 0.28125l2.6875 3.5a1.2352 1.2352 0 0 1 -0.15625 1.6875l-0.75 0.65625-1.4688 2-0.03125 0.0625-1.3438 3.2812 0.84375 0.8125 3.25-1.3125 0.0625-0.0312 2-1.4688 0.65625-0.75a1.2352 1.2352 0 0 1 1.682 -0.16l3.5 2.6875a1.2352 1.2352 0 0 1 0.28125 1.6562l-0.5625 0.8125-0.9375 2.5312-0.4375 3.3438 1.0625 0.59375 2.7812-2.0625 0.84375-1.0625 3.5-7.2812c-6.271-3.3-11.558-8.22-15.156-14.31a1.2352 1.2352 0 0 1 0.53125 -1.75l15.75-7.25a1.2352 1.2352 0 0 1 1.5312 0.40625c1.5444 2.1451 3.6194 3.8434 5.9375 5.1562l7.25-15.064-16.219-4.094c-0.19636 1.0763-0.375 2.1418-0.375 3.2812 0 1.5064 0.1341 2.962 0.46875 4.3438a1.2352 1.2352 0 0 1 -0.6875 1.4062l-15.781 7.25a1.2352 1.2352 0 0 1 -1.657 -0.718c-1.3134-3.8513-2.0625-7.9887-2.0625-12.281 0-2.7953 0.39441-5.502 0.96875-8.125l-9.2188-2.3125z" transform="matrix(.68689 0 0 .68689 75.955 5.4108)"/>
   <path id="path7661" style="opacity:.5;filter:url(#filter4308);fill:#fff" clip-path="url(#clipPath4300)" d="m82.562 33.938-1.375 3.2812-0.4375 2.5v0.0625l0.09375 1.0625a1.0935 1.0935 0 0 1 -0.96875 1.1875l-4.4062 0.5625a1.0935 1.0935 0 0 1 -1.188 -0.906l-0.125-0.813-0.031-0.063-1.125-2.5-2.188-2.812-1.312 0.344-0.5 3.5625 0.28125 2.625 0.3125 0.90625a1.0935 1.0935 0 0 1 -0.594 1.374l-4.0625 1.7188a1.0935 1.0935 0 0 1 -1.438 -0.531l-0.438-0.938-0.031-0.062-1.625-1.9375-2.875-2.1875-1.1875 0.6875 0.4375 3.5625 0.9375 2.4688 0.5625 0.8125a1.0935 1.0935 0 0 1 -0.25 1.5l-3.5 2.7188a1.0935 1.0935 0 0 1 -1.5 -0.15625l-0.6875-0.78125-0.03125-0.0625-2.1562-1.5312-3.1875-1.3125-1.0312 1 1.375 3.3125 1.4688 2.0625 0.84375 0.71875a1.0935 1.0935 0 0 1 0.15625 1.5l-2.6875 3.5a1.0935 1.0935 0 0 1 -1.5 0.25l-0.8125-0.5625-2.5-0.96875-3.5312-0.4375-0.6875 1.2188 2.1562 2.8438 1.0625 0.875 0.0625 0.03125 7.3125 3.5312c1.4174-2.7199 3.1203-5.2814 5.125-7.5625a1.0935 1.0935 0 0 1 1.625 -0.03125l11.812 12.719a1.0935 1.0935 0 0 1 0.0625 1.4062c-0.43719 0.59853-0.76212 1.2543-1.125 1.9062l15.407 7.437 4.157-16.531c-1.1288-0.22338-2.2519-0.4375-3.4375-0.4375-3.5902 0.000002-6.973 1.0438-9.8125 2.8125a1.0935 1.0935 0 0 1 -1.375 -0.1875l-11.813-12.719a1.0935 1.0935 0 0 1 0.15625 -1.625c6.3521-4.7964 14.28-7.6562 22.844-7.6562 2.8191 0.000001 5.5479 0.38014 8.1875 0.96875l2.5-9.9062-0.4375 0.5625-1.125 2.5-0.03125 0.0625-0.15625 0.84375a1.0935 1.0935 0 0 1 -1.1875 0.875l-4.375-0.5625a1.0935 1.0935 0 0 1 -0.96875 -1.1875l0.09375-0.9375-0.46875-2.7812v-0.03125l-1.3438-3.1562h-1.4062zm1.4062 52.25-4.1562 16.531c0.79062 0.16027 1.5706 0.32855 2.375 0.375a1.0935 1.0935 0 0 1 1.0312 0.9375l2.3125 17.219a1.0935 1.0935 0 0 1 -1.0625 1.25c-0.43459 0.0136-0.8174 0-1.1875 0-2.827 0-5.5697-0.37984-8.2188-0.96875l-2.5 9.9375 0.4375-0.5625 1.125-2.5 0.15625-0.90625a1.0935 1.0935 0 0 1 1.1875 -0.90625l4.4062 0.5625a1.0935 1.0935 0 0 1 0.96875 1.1875l-0.093 1.03v0.0625l0.4375 2.5312 1.375 3.2812h1.4062l1.3438-3.1562v-0.0312l0.4375-2.8125-0.0625-0.90625a1.0935 1.0935 0 0 1 0.96875 -1.1875l4.375-0.5625a1.0935 1.0935 0 0 1 1.1875 0.875l0.15625 0.875 0.03125 0.0625 1.125 2.5 2.1562 2.7812 1.3438-0.375 0.5-3.5312-0.28125-2.625-0.3125-0.9375a1.0935 1.0935 0 0 1 0.625 -1.375l4.0938-1.6562a1.0935 1.0935 0 0 1 1.375 0.53125l0.34375 0.75 0.0625 0.0625 1.7188 2.125 2.8438 2.1562 1.1875-0.6875-0.4375-3.5312-0.96875-2.5-0.5625-0.8125a1.0935 1.0935 0 0 1 0.25 -1.5l3.52-2.7a1.0935 1.0935 0 0 1 1.5 0.15625l0.71875 0.84375 2.0625 1.4688 3.2812 1.3438 1.0312-1-1.375-3.3125-1.4688-2.0625-0.84375-0.71875a1.0935 1.0935 0 0 1 -0.15625 -1.5l2.6875-3.5a1.0935 1.0935 0 0 1 1.4688 -0.25l0.71875 0.5 0.0625 0.0312 2.4688 0.9375h0.0937l3.5625 0.5 0.6875-1.1875-2.1875-2.875-0.96875-0.84375-0.0625-0.0312-7.5-3.5938c-4.9966 9.5998-13.851 16.875-24.625 19.469a1.0935 1.0935 0 0 1 -1.343 -0.91l-2.3438-17.219a1.0935 1.0935 0 0 1 0.75 -1.1875c4.3626-1.4796 7.9336-4.5991 10.156-8.5625l-15.405-7.4z" transform="matrix(.68094 0 0 .68094 76.369 5.7774)"/>
  </g>
  <g id="g4248" transform="translate(50)" clip-path="url(#clipPath4354)">
   <path id="path4226" style="filter:url(#filter4244)" d="m-35.406-27.281-0.3125 0.03125-0.125 0.28125-1.2812 3.0312v0.0625l-0.0312 0.0625-0.34375 2.1875v0.0625 0.0625l0.0312 0.34375-2.3438 0.3125-0.0625-0.34375v-0.0625l-0.0312-0.0625-0.9375-2v-0.0625l-0.0625-0.03125-2-2.5938-0.1875-0.28125-0.34375 0.09375-2.0625 0.5625-0.3125 0.09375-0.0625 0.3125-0.40625 3.2812-0.0312 0.0625 0.0312 0.0625 0.21875 2.1875v0.0625l0.0312 0.03125 0.125 0.375-2.1562 0.875-0.15625-0.3125-0.0312-0.03125-0.0625-0.0625-1.4062-1.7188-0.0312-0.03125-0.0625-0.03125-2.625-1.9688-0.25-0.21875-0.28125 0.1875-1.8438 1.0625-0.3125 0.15625 0.0625 0.34375 0.40625 3.25 0.0312 0.0625v0.0625l0.8125 2.0625 0.0312 0.0625 0.0312 0.03125 0.1875 0.28125-1.875 1.4688-0.21875-0.28125-0.0312-0.03125-0.067-0.057-1.8125-1.2812-0.0312-0.03125h-0.0625l-3.0625-1.25-0.28125-0.125-0.25 0.21875-1.5 1.5312-0.25 0.25 0.125 0.28125 1.2812 3.0625 0.0312 0.03125 0.0312 0.0625 1.2812 1.8125 0.0312 0.03125 0.0625 0.03125 0.25 0.21875-1.4375 1.9062-0.28125-0.1875-0.0312-0.0625h-0.0625l-2.0625-0.8125h-0.0625l-0.0625-0.03125-3.25-0.375-0.34375-0.0625-0.15625 0.3125-1.0625 1.8438-0.15625 0.28125 0.1875 0.28125 2 2.5938 0.0312 0.0625 0.0625 0.03125 1.7188 1.4062 0.0312 0.03125 0.0625 0.03125 0.3125 0.15625-0.875 2.1562-0.34375-0.125h-0.0625-0.0625l-2.1875-0.21875-0.0625-0.03125-0.0625 0.03125-3.2812 0.46875-0.34375 0.03125-0.0625 0.3125-0.53125 2.0938-0.0937 0.3125 0.25 0.1875 2.625 2 0.0312 0.03125 0.0625 0.03125 2.0312 0.90625 0.0625 0.03125h0.0312l0.375 0.0625-0.3125 2.3438-0.34375-0.03125h-0.0625-0.0625l-2.1875 0.375h-0.0625l-0.0312 0.03125-3.0312 1.2812-0.3125 0.125v0.34375 2.125 0.34375l0.3125 0.125 3.0312 1.25 0.0625 0.03125h0.0625l2.1875 0.34375 0.0625 0.03125h0.0625l0.34375-0.03125 0.3125 2.3125-0.3125 0.0625-0.0625 0.03125-0.0625 0.03125-2.0312 0.90625-0.0625 0.03125-0.0625 0.03125-2.5938 2.0312-0.25 0.21875 0.0937 0.3125 0.5625 2.0625 0.0937 0.3125 0.3125 0.03125 3.2812 0.4375h0.0312 0.0625l2.2188-0.21875h0.0625l0.0625-0.03125 0.3125-0.125 0.90625 2.1875-0.3125 0.15625-0.0625 0.03125-0.0312 0.03125-1.7188 1.4062-0.0312 0.03125-0.0312 0.0625-2 2.625-0.1875 0.25 0.15625 0.28125 1.0625 1.8438 0.15625 0.3125 0.34375-0.0625 3.2812-0.4375h0.0625l0.0312-0.0312 2.0938-0.78125h0.0625l0.0312-0.0625 0.28125-0.1875 1.4688 1.875-0.28125 0.21875-0.0312 0.0312-0.0312 0.0625-1.3125 1.7812-0.0312 0.0625-0.0312 0.0312-1.2188 3.0938-0.125 0.28125 0.25 0.25 1.5 1.5 0.21875 0.21875 0.3125-0.125 3.0625-1.2812h0.0312l0.0625-0.0312 1.7812-1.3125 0.0625-0.0312 0.0312-0.0312 0.21875-0.28125 1.875 1.4375-0.1875 0.28125-0.0312 0.0625-0.0312 0.0625-0.75 2.0625-0.0312 0.0625v0.0625l-0.40625 3.2812-0.0625 0.3125 0.3125 0.1875 1.8438 1.0312 0.28125 0.1875 0.28125-0.21875 2.5938-2 0.0312-0.0312 0.0312-0.0625 1.4062-1.7188 0.0625-0.0312v-0.0625l0.15625-0.3125 2.1875 0.875-0.125 0.34375v0.0625l-0.0312 0.0625-0.1875 2.1875v0.0625 0.0625l0.4375 3.25 0.0625 0.34375 0.3125 0.0937 2.0625 0.53125 0.3125 0.0937 0.21875-0.25 2-2.625 0.0312-0.0625 0.0312-0.0312 0.90625-2.0312 0.0312-0.0625v-0.0625l0.0625-0.34375 2.3438 0.3125-0.0312 0.34375v0.0625 0.0625l0.375 2.1875 0.0312 0.0625v0.0312l1.2812 3.0625 0.125 0.3125 0.34375-0.0312h2.125 0.34375l0.125-0.3125 1.25-3.0312 0.0312-0.0625v-0.0625l0.34375-2.1875 0.0312-0.0625-0.0312-0.0625-0.0312-0.34375 2.3438-0.3125 0.0625 0.34375 0.0312 0.0625 0.0312 0.0625 0.90625 2 0.0312 0.0312 0.0312 0.0625 2.0312 2.625 0.1875 0.25 0.3125-0.0937 2.0625-0.53125 0.34375-0.0937 0.0312-0.34375 0.4375-3.2812v-0.0625-0.0625l-0.25-2.1875v-0.0625l-0.0312-0.0625-0.125-0.34375 2.1875-0.875 0.15625 0.3125 0.0312 0.0312 0.0312 0.0625 1.4375 1.7188 0.03125 0.0312 0.03125 0.0312 2.625 1.9688 0.28125 0.21875 0.28125-0.15625 1.8438-1.0938 0.28125-0.15625-0.03125-0.34375-0.4375-3.25v-0.0625l-0.03125-0.0625-0.78125-2.0625-0.03125-0.0625-0.03125-0.0312-0.1875-0.3125 1.875-1.4062 0.21875 0.25 0.03125 0.0625 0.0625 0.0312 1.7812 1.2812 0.0625 0.0312h0.0625l3.0312 1.25 0.3125 0.125 0.25-0.21875 1.5-1.5312 0.25-0.21875-0.15625-0.3125-1.25-3.0625-0.03125-0.0312-0.03125-0.0625-1.2812-1.7812-0.0625-0.0625-0.03125-0.0312-0.28125-0.21875 1.4375-1.875 0.28125 0.1875 0.0625 0.03125h0.0625l2.0625 0.78125 0.03125 0.0312h0.0625l3.2812 0.40625 0.34375 0.0625 0.15625-0.3125 1.0625-1.8438 0.15625-0.28125-0.1875-0.28125-2-2.5938-0.0315-0.058-0.0625-0.031-1.7188-1.407-0.0312-0.031-0.0625-0.031-0.3125-0.156 0.875-2.156 0.34375 0.09375 0.0625 0.03125h0.03125l2.2188 0.21875h0.0625 0.03125l3.2812-0.4375 0.3438-0.032 0.0625-0.343 0.5625-2.063 0.0938-0.344-0.2813-0.187-2.625-2-0.03125-0.0625h-0.0625l-2-0.90625-0.0625-0.03125h-0.0625l-0.3438-0.063 0.2812-2.343 0.3438 0.031h0.0625 0.0625l2.1875-0.375h0.0625l0.0625-0.03125 3.0312-1.2812 0.3125-0.125v-0.34375-2.125-0.34375l-0.3124-0.125-3.0626-1.25-0.0312-0.0312h-0.0625l-2.1875-0.3438-0.0625-0.0312-0.0625 0.0312-0.3438 0.0312-0.3124-2.3437 0.3124-0.0625 0.0626-0.0312 0.06245-0.0313 2.0312-0.9063 0.0626-0.0312 0.0312-0.0312 2.5938-2.0313 0.25-0.1875-0.0625-0.3125-0.5625-2.0625-0.0938-0.34375-0.3437-0.03125-3.25-0.4375h-0.0625-0.0625l-2.1875 0.21875h-0.0625l-0.0625 0.03125-0.3438 0.125-0.9062-2.1875 0.3438-0.1562 0.0312-0.0313 0.0625-0.0313 1.6875-1.4062 0.03125-0.03125 0.0625-0.03125 2-2.625 0.1875-0.28125-0.1563-0.2812-1.0938-1.8438-0.1562-0.2812-0.34375 0.03125-3.25 0.4375h-0.0625l-0.0625 0.03125-2.0625 0.78125-0.0625 0.03125-0.03125 0.03125-0.28125 0.1875-1.4688-1.875 0.25-0.21875 0.0625-0.03125 0.03125-0.0625 1.2812-1.7816 0.0312-0.062 0.03125-0.0625 1.25-3.0312 0.125-0.3125-0.25-0.25-1.5-1.5-0.125-0.09375-0.15625-0.03125-0.125-0.03125-0.125 0.0625-3.0625 1.25-0.0625 0.03125-0.0625 0.03125-1.7812 1.3125-0.03125 0.03125-0.03125 0.03125-0.21875 0.28125-1.875-1.4375 0.1875-0.28125 0.03125-0.0625 0.03125-0.0625 0.75-2.0625 0.03125-0.0625v-0.0625l0.40625-3.25 0.03125-0.34375-0.28125-0.15625-1.8438-1.0625-0.28125-0.1875-0.28125 0.21875-2.5938 2.0312-0.0625 0.03125-0.03125 0.03125-1.4062 1.7188-0.0312 0.03125-0.0312 0.0625-0.15625 0.3125-2.1875-0.875 0.125-0.3125 0.0312-0.0625v-0.0625l0.21875-2.2188v-0.0625-0.0625l-0.46875-3.25-0.0312-0.34375-0.34375-0.09375-2.0625-0.53125-0.3125-0.0625-0.1875 0.25-2.0312 2.5938-0.0312 0.0625v0.03125l-0.90625 2.0625-0.0312 0.03125-0.0312 0.0625-0.0625 0.34375-2.3125-0.3125v-0.34375l0.0312-0.0625-0.0312-0.0625-0.375-2.1875v-0.03125l-0.0312-0.0625-1.25-3.0312-0.125-0.3125h-0.34375-2.1562zm1.125 14.969c6.1978-0.02284 12.409 2.3185 17.156 7.0312 9.4953 9.4255 9.5814 24.786 0.15625 34.281-9.4252 9.4949-24.786 9.5193-34.281 0.09375-9.4953-9.4255-9.5505-24.755-0.125-34.25 4.7128-4.7476 10.896-7.1334 17.094-7.1562z"/>
   <g id="g2645" style="stroke:url(#linearGradient4261);stroke-width:1.4576;fill:url(#radialGradient4255)" transform="matrix(.33202 .32958 -.32958 .33202 -34.179 9.9232)">
    <path id="path2647" style="stroke:url(#linearGradient4257);stroke-width:1.4576;fill:url(#radialGradient4255)" transform="matrix(1.4665 0 0 1.4665 -26.232 -12.973)" d="m16.344-47.562-1.875 4.4375-0.5 3.1875 0.09375 1.1875-4.7812 0.625-0.21875-1.1875-1.3438-2.9375-2.9375-3.7812-3 0.78125-0.625 4.7812 0.3125 3.1875 0.40625 1.1562-4.4688 1.8438-0.5-1.0938-2.0625-2.5-3.8125-2.9062-2.6875 1.5625 0.59375 4.75 1.1562 3.0312 0.6875 0.96875-3.8438 2.9375-0.78125-0.90625-2.625-1.875-4.4375-1.8438-2.1875 2.2188 1.8125 4.4375 1.875 2.625 0.9375 0.78125-2.9375 3.8125-1-0.6875-3.0312-1.125-4.75-0.625l-1.561 2.718 2.9062 3.8125 2.5 2.0312 1.0938 0.53125-1.8438 4.4375-1.125-0.40625-3.2188-0.3125-4.75 0.65625-0.8125 3 3.7812 2.9375 2.969 1.312 1.156 0.21875-0.625 4.7812-1.1875-0.09375-3.1875 0.53125-4.4375 1.8438v3.125l4.4375 1.8438 3.1875 0.53125 1.1875-0.09375 0.625 4.7812-1.156 0.219-2.969 1.312-3.781 2.938 0.8125 3 4.75 0.65625 3.2188-0.3125 1.125-0.40625 1.8438 4.4375-1.0938 0.53125-2.5 2.0312-2.9062 3.8438 1.5625 2.6875 4.75-0.625 3.0312-1.125 1-0.6875 2.9375 3.8125-0.9375 0.78125-1.875 2.625-1.8125 4.4375 2.1875 2.2188 4.4375-1.8438 2.625-1.875 0.78125-0.90625 3.8438 2.9375-0.6875 0.96875-1.1562 3.0312-0.59375 4.7812 2.6875 1.5312 3.8125-2.9062 2.0625-2.5 0.5-1.0938 4.4688 1.875-0.40625 1.125-0.3125 3.2188 0.625 4.75 3 0.8125 2.9375-3.8125 1.3465-2.938 0.21875-1.1875 4.7812 0.625-0.09375 1.1875 0.5 3.1875 1.875 4.4375h3.0938l1.8438-4.4375 0.53-3.187-0.093-1.187 4.781-0.626 0.219 1.188 1.343 2.938 2.938 3.812 3-0.8125 0.625-4.75-0.3125-3.2188-0.40625-1.125 4.4688-1.875 0.5 1.0938 2.0625 2.5 3.812 2.906 2.688-1.531-0.594-4.782-1.156-3.031-0.688-0.969 3.844-2.937 0.781 0.906 2.625 1.875 4.438 1.844 2.187-2.219-1.813-4.437-1.906-2.626-0.906-0.781 2.9375-3.8125 1 0.6875 3 1.125 4.7812 0.625 1.5625-2.6875-2.9375-3.8438-2.5-2.0312-1.0625-0.53125 1.8438-4.4375 1.125 0.40625 3.2188 0.3125 4.75-0.65625 0.8125-3-3.813-2.937-2.938-1.312-1.187-0.219 0.656-4.781 1.188 0.093 3.187-0.531 4.4375-1.8438v-3.125l-4.437-1.8437-3.187-0.5313-1.188 0.0938-0.656-4.7812 1.187-0.2188 2.9375-1.3125 3.8125-2.9375-0.8125-3-4.75-0.65625-3.2188 0.3125-1.125 0.40625-1.8438-4.4375 1.0625-0.53125 2.5-2.0312 2.9375-3.8125-1.5625-2.7188-4.7812 0.625-3 1.125-1 0.6875-2.9375-3.8125 0.90625-0.78125 1.9062-2.625 1.8125-4.4375-2.1875-2.2188-4.4375 1.8438-2.625 1.875-0.78125 0.90625-3.8438-2.9375 0.6875-0.96875 1.1562-3.0312 0.59375-4.75-2.6875-1.5625-3.8125 2.9062-2.0625 2.5-0.5 1.0938-4.4688-1.8438 0.40625-1.1562 0.3125-3.1875-0.625-4.78-3-0.781-2.938 3.781-1.343 2.938-0.219 1.187-4.7812-0.625 0.09375-1.1875-0.53125-3.1875-1.8438-4.4375h-3.0938zm1.5312 20.375c19.895 0 36.062 16.136 36.062 36.031s-16.167 36.031-36.062 36.031-36.031-16.136-36.031-36.031c0-19.896 16.136-36.032 36.031-36.032z"/>
   </g>
   <path id="path7797" style="opacity:.2;filter:url(#filter7809)" transform="matrix(.48690 .48333 -.48333 .48690 -38.613 -3.0295)" d="m17.875-29.219c12.794 0 24.065 6.3904 30.969 16.094l6.531-4.219-2.719-3.531c-0.64814-0.84683-0.5249-2.0519 0.28125-2.75l0.75-0.625 1.5938-2.2188 1.2188-3-0.28125-0.28125-2.9375 1.2188-2.3438 1.6562-0.5625 0.65625c-0.6981 0.80615-1.9032 0.92939-2.75 0.28125l-3.844-2.937c-11.993-26.554-105.45 7.543-25.906-0.344zm30.969 60.031c-6.904 9.704-18.175 16.094-30.969 16.094l19.719 3.219c1.0015-0.43114 2.1642 0.01182 2.625 1l0.406 0.875 1.75 2.1562 2.5312 1.9062 0.375-0.21875-0.40625-3.2188-0.96875-2.5-0.5625-0.8125c-0.61206-0.88639-0.41942-2.0973 0.4375-2.75l3.843-2.937c0.84683-0.64814 2.0519-0.5249 2.75 0.28125l0.5625 0.65625 2.3438 1.6562 2.9375 1.2188 0.28125-0.28125-1.2188-3-1.5938-2.2188-0.75-0.625c-0.80615-0.6981-0.92939-1.9032-0.28125-2.75l2.719-3.531-6.531-4.219z"/>
   <path id="path7803" style="opacity:.5;filter:url(#filter7813);fill:#fff" transform="matrix(.48690 .48333 -.48333 .48690 -38.613 -3.0295)" d="m59.5-9.5625-6.5625 3.25c2.021 4.6572 3.2188 9.7664 3.2188 15.156-0.001 5.3905-1.199 10.5-3.219 15.156l6.5625 3.25 1.3438-3.2188c0.44626-1.0909 1.6692-1.6405 2.7812-1.25l0.96875 0.34375 2.5312 0.25 3.0938-0.4375 0.0625-0.15625-2.4062-1.8125-2.5-1.1562-0.9375-0.15625c-1.1692-0.21911-1.956-1.3234-1.7812-2.5l0.655-4.781c0.159-1.1658 1.2025-2.0033 2.375-1.9062l0.9375 0.0625 2.7188-0.4375 2.75-1.1562v-0.1875l-2.75-1.1562-2.7188-0.4375-0.9375 0.0625c-1.172 0.0967-2.215-0.7408-2.375-1.9066l-0.656-4.7812c-0.17472-1.1766 0.61206-2.2809 1.7812-2.5l0.9375-0.15625 2.5-1.1562 2.4062-1.8125-0.0625-0.15625-3.0938-0.4375-2.5312 0.25-0.96875 0.34375c-1.112 0.3905-2.335-0.15915-2.7812-1.25l-1.343-3.2188z"/>
  </g>
  <path id="rect3916" style="block-progression:tb;text-indent:0;filter:url(#filter3773);color:#000000;text-transform:none" clip-path="url(#clipPath3918)" d="m17 12c-2.7354 0-5 2.2646-5 5v62c0 2.7354 2.2646 5 5 5h62c2.7354 0 5-2.2646 5-5v-62c0-2.7354-2.2646-5-5-5h-62zm0 4h62c0.58859 0 1 0.41141 1 1v62c0 0.58859-0.41141 1-1 1h-62c-0.58859 0-1-0.41141-1-1v-62c0-0.58859 0.41141-1 1-1z"/>
  <rect id="rect3906" style="fill:#f00" rx="3" ry="3" height="68" width="68" y="114" x="14"/>
  <path id="rect3784" style="opacity:.15" d="m17 14c-1.662 0-3 1.338-3 3v62c0 1.662 1.338 3 3 3h62c1.662 0 3-1.338 3-3v-62c0-1.662-1.338-3-3-3h-62zm0 1.7812h62c0.7036 0 1.2188 0.51515 1.2188 1.2188v62c0 0.7036-0.51515 1.2188-1.2188 1.2188h-62c-0.7036 0-1.2188-0.51515-1.2188-1.2188v-62c0-0.7036 0.51515-1.2188 1.2188-1.2188z"/>
  <path id="rect3777" style="opacity:.2" d="m17 14c-1.662 0-3 1.338-3 3v62c0 1.662 1.338 3 3 3h62c1.662 0 3-1.338 3-3v-62c0-1.662-1.338-3-3-3h-62zm0 1h62c1.1198 0 2 0.88015 2 2v62c0 1.1198-0.88015 2-2 2h-62c-1.1198 0-2-0.88015-2-2v-62c0-1.1198 0.88015-2 2-2z"/>
 </g>
 <g id="layer1">
  <path id="rect2419" style="fill:url(#linearGradient2912)" d="m12 6c-3.324 0-6 2.676-6 6v72c0 3.324 2.676 6 6 6h72c3.324 0 6-2.676 6-6v-72c0-3.324-2.676-6-6-6h-72zm5 7h62c2.216 0 4 1.784 4 4v62c0.000001 2.216-1.784 4-4 4h-62c-2.216 0.000001-4-1.784-4-4v-62c0-2.216 1.784-4 4-4z"/>
  <path id="rect3728" style="opacity:.5;fill:url(#linearGradient3188-8)" d="m12 6c-3.324 0-6 2.676-6 6v2 68 2c0 0.33472 0.04135 0.6507 0.09375 0.96875 0.0487 0.2956 0.09704 0.59692 0.1875 0.875 0.00988 0.03038 0.020892 0.0636 0.03125 0.09375 0.098865 0.28777 0.23488 0.54745 0.375 0.8125 0.14459 0.27351 0.31562 0.53562 0.5 0.78125 0.18438 0.24564 0.37378 0.47347 0.59375 0.6875 0.43995 0.42806 0.94291 0.81453 1.5 1.0938 0.27854 0.13961 0.57347 0.24695 0.875 0.34375-0.2562-0.10022-0.48671-0.23627-0.71875-0.375-0.00741-0.0044-0.023866 0.0045-0.03125 0-0.031933-0.0193-0.062293-0.04251-0.09375-0.0625-0.1204-0.0767-0.23102-0.16351-0.34375-0.25-0.10617-0.0808-0.21328-0.16111-0.3125-0.25-0.1778-0.162-0.3473-0.346-0.4999-0.531-0.1075-0.131-0.2183-0.266-0.3124-0.407-0.0251-0.038-0.0385-0.086-0.0626-0.125-0.0647-0.103-0.1302-0.204-0.1874-0.312-0.1011-0.195-0.2057-0.416-0.2813-0.625-0.008-0.022-0.0236-0.041-0.0313-0.063-0.0318-0.092-0.0358-0.187-0.0624-0.281-0.0304-0.107-0.0704-0.203-0.0938-0.313-0.0729-0.341-0.125-0.698-0.125-1.062v-2-68-2c0-2.782 2.2182-5 5-5h2 68 2c2.7818 0 5 2.2182 5 5v2 68 2c0 0.3643-0.05212 0.72099-0.125 1.0625-0.04415 0.20689-0.08838 0.39766-0.15625 0.59375-0.0077 0.02195-0.0233 0.04069-0.03125 0.0625-0.06274 0.17374-0.13838 0.36745-0.21875 0.53125-0.04158 0.0828-0.07904 0.16995-0.125 0.25-0.0546 0.09721-0.12677 0.18835-0.1875 0.28125-0.09411 0.14096-0.20492 0.276-0.3125 0.40625-0.14317 0.17445-0.30314 0.347-0.46875 0.5-0.01117 0.0102-0.01998 0.02115-0.03125 0.03125-0.13839 0.12556-0.28509 0.23444-0.4375 0.34375-0.10257 0.07315-0.20432 0.15336-0.3125 0.21875-0.0074 0.0045-0.02384-0.0044-0.03125 0-0.23204 0.13873-0.46255 0.27478-0.71875 0.375 0.30153-0.0968 0.59646-0.20414 0.875-0.34375 0.55709-0.27922 1.0601-0.66569 1.5-1.0938 0.21997-0.21403 0.40937-0.44186 0.59375-0.6875s0.35541-0.50774 0.5-0.78125c0.14012-0.26505 0.27614-0.52473 0.375-0.8125 0.01041-0.03078 0.02133-0.06274 0.03125-0.09375 0.09046-0.27808 0.1388-0.5794 0.1875-0.875 0.053-0.318 0.094-0.634 0.094-0.969v-2-68-2c0-3.324-2.676-6-6-6h-72z"/>
  <path id="rect3425" style="fill:url(#linearGradient3279)" d="m17 84c-2.7527 0-5-2.2473-5-5v-62c0-2.7527 2.2473-5 5-5h62c2.7527 0 5 2.2473 5 5v62c0 2.7527-2.2473 5-5 5h-62zm0-2h62c1.6793 0 3-1.3207 3-3v-62c0.000001-1.6793-1.3207-3-3-3h-62c-1.6793 0-3 1.3207-3 3v62c0 1.6793 1.3207 3 3 3z"/>
  <path id="path3615" style="opacity:.2;fill:url(#radialGradient2874)" d="m12 90c-3.324 0-6-2.676-6-6v-2-68-2c0-0.33472 0.04135-0.6507 0.09375-0.96875 0.0487-0.2956 0.09704-0.59692 0.1875-0.875 0.0099-0.03 0.0209-0.063 0.0313-0.094 0.0989-0.2873 0.2349-0.547 0.375-0.812 0.1446-0.2735 0.3156-0.5356 0.5-0.7812 0.1844-0.2457 0.3738-0.4735 0.5937-0.6876 0.44-0.428 0.943-0.8145 1.5-1.0937 0.2786-0.1396 0.5735-0.2469 0.8748-0.3437-0.256 0.1002-0.4865 0.2362-0.7185 0.375-0.00741 0.0044-0.023866-0.0045-0.03125 0-0.031933 0.0193-0.062293 0.04251-0.09375 0.0625-0.1204 0.0767-0.23102 0.16351-0.34375 0.25-0.10617 0.0808-0.21328 0.16111-0.3125 0.25-0.1779 0.1614-0.3474 0.3453-0.5 0.5312-0.1075 0.1303-0.2183 0.2653-0.3124 0.4063-0.0251 0.0383-0.0385 0.0858-0.0626 0.125-0.0647 0.103-0.1302 0.2045-0.1874 0.3124-0.1011 0.1948-0.2057 0.4158-0.2813 0.625-0.008 0.0219-0.0236 0.0406-0.0313 0.0626-0.0318 0.0919-0.0358 0.1868-0.0624 0.2812-0.0304 0.1066-0.0704 0.203-0.0938 0.3125-0.0729 0.3415-0.125 0.6985-0.125 1.0625v2 68 2c0 2.7818 2.2182 5 5 5h2 68 2c2.7818 0 5-2.2182 5-5v-2-68-2c0-0.364-0.052-0.721-0.125-1.0625-0.044-0.2069-0.088-0.3977-0.156-0.5937-0.008-0.022-0.024-0.0407-0.031-0.0626-0.063-0.1737-0.139-0.3674-0.219-0.5312-0.042-0.0828-0.079-0.17-0.125-0.25-0.055-0.0972-0.127-0.1884-0.188-0.2812-0.094-0.141-0.205-0.276-0.312-0.4063-0.143-0.1745-0.303-0.347-0.469-0.5-0.011-0.0102-0.02-0.0211-0.031-0.0313-0.139-0.1255-0.285-0.2344-0.438-0.3437-0.102-0.0731-0.204-0.1534-0.312-0.2187-0.0074-0.0045-0.02384 0.0044-0.03125 0-0.23204-0.13873-0.46255-0.27478-0.71875-0.375 0.30153 0.0968 0.59646 0.20414 0.875 0.34375 0.55709 0.27922 1.0601 0.66569 1.5 1.0938 0.21997 0.21403 0.40937 0.44186 0.59375 0.6875s0.35541 0.50774 0.5 0.78125c0.14012 0.26505 0.27614 0.52473 0.375 0.8125 0.01041 0.03078 0.02133 0.06274 0.03125 0.09375 0.09046 0.27808 0.1388 0.5794 0.1875 0.875 0.053 0.318 0.094 0.634 0.094 0.969v2 68 2c0 3.324-2.676 6-6 6h-72z"/>
 </g>
 <g id="layer5" style="display:none">
  <rect id="rect3171" style="opacity:.1;filter:url(#filter3794);stroke:#fff;stroke-linecap:round;stroke-width:.5;fill:url(#linearGradient3613)" clip-path="url(#clipPath3613)" rx="12" ry="12" height="66" width="66" y="15" x="15"/>
 </g>
</svg>
