<?xml version="1.0" encoding="UTF-8" standalone="no"?>
<!-- Created with Inkscape (http://www.inkscape.org/) -->
<svg id="svg2408" xmlns:rdf="http://www.w3.org/1999/02/22-rdf-syntax-ns#" xmlns="http://www.w3.org/2000/svg" height="96" width="96" version="1.0" xmlns:cc="http://creativecommons.org/ns#" xmlns:xlink="http://www.w3.org/1999/xlink" xmlns:dc="http://purl.org/dc/elements/1.1/">
 <defs id="defs2410">
  <linearGradient id="linearGradient3807">
   <stop id="stop3809" style="stop-color:#fff" offset="0"/>
   <stop id="stop3811" style="stop-color:#fff;stop-opacity:0" offset="1"/>
  </linearGradient>
  <linearGradient id="ButtonShadow" y2="7.0165" gradientUnits="userSpaceOnUse" x2="45.448" gradientTransform="scale(1.0059 .99417)" y1="92.54" x1="45.448">
   <stop id="stop3750" offset="0"/>
   <stop id="stop3752" style="stop-opacity:.58824" offset="1"/>
  </linearGradient>
  <filter id="filter3174" color-interpolation-filters="sRGB">
   <feGaussianBlur id="feGaussianBlur3176" stdDeviation="1.71"/>
  </filter>
  <linearGradient id="linearGradient3188" y2="63.893" xlink:href="#linearGradient3807" gradientUnits="userSpaceOnUse" x2="36.357" y1="6" x1="36.357"/>
  <filter id="filter3794" height="1.384" width="1.384" color-interpolation-filters="sRGB" y="-.192" x="-.192">
   <feGaussianBlur id="feGaussianBlur3796" stdDeviation="5.28"/>
  </filter>
  <linearGradient id="linearGradient3613" y2="138.66" xlink:href="#linearGradient3807" gradientUnits="userSpaceOnUse" x2="48" y1="20.221" x1="48"/>
  <radialGradient id="radialGradient3619" xlink:href="#linearGradient3807" gradientUnits="userSpaceOnUse" cy="90.172" cx="48" gradientTransform="matrix(1.1573 0 0 .99591 -7.551 .19713)" r="42"/>
  <clipPath id="clipPath3613">
   <rect id="rect3615" style="fill:#fff" rx="6" ry="6" height="84" width="84" y="6" x="6"/>
  </clipPath>
  <linearGradient id="linearGradient3617" y2="5.9877" gradientUnits="userSpaceOnUse" x2="48" gradientTransform="matrix(1.0172 0 0 1.0172 -1.1034 -1.1034)" y1="90" x1="48">
   <stop id="stop3189" style="stop-color:#243c53" offset="0"/>
   <stop id="stop3191" style="stop-color:#4975a7" offset="1"/>
  </linearGradient>
  <clipPath id="clipPath3730">
   <path id="path3732" style="fill:#fff" d="m13.571 58.321 18.215-11.428 9.464-1.25 9.286-15.536 4.285 5.893 13.215-14.643 16.607 18.393l-0.17857 72.5-71.429-5.8929 0.53572-48.036z"/>
  </clipPath>
  <linearGradient id="linearGradient3740" y2="63.438" gradientUnits="userSpaceOnUse" x2="50.714" y1="32.607" x1="50.714">
   <stop id="stop3736" style="stop-color:#cbf44b" offset="0"/>
   <stop id="stop3738" style="stop-color:#cbf44b;stop-opacity:0" offset="1"/>
  </linearGradient>
  <filter id="filter3746" height="1.4362" width="1.5335" color-interpolation-filters="sRGB" y="-.21811" x="-.26677">
   <feGaussianBlur id="feGaussianBlur3748" stdDeviation="4.9821428"/>
  </filter>
  <clipPath id="clipPath3789">
   <path id="path3791" style="fill:#fff" d="m16.429 67.429 14.107-9.8214 7.3214 4.4643 6.0714-10.536 9.1071 17.321l10.715-7.321 6.25 5.535 12.857-3.3929 5 41.071-73.214-3.0357 1.7857-34.286z"/>
  </clipPath>
  <linearGradient id="linearGradient3799" y2="76.918" gradientUnits="userSpaceOnUse" x2="44.821" y1="54.036" x1="44.821">
   <stop id="stop3795" style="stop-color:#ffb100" offset="0"/>
   <stop id="stop3797" style="stop-color:#ffb100;stop-opacity:0" offset="1"/>
  </linearGradient>
  <filter id="filter3801" height="1.5367" width="1.4342" color-interpolation-filters="sRGB" y="-.26833" x="-.21708">
   <feGaussianBlur id="feGaussianBlur3803" stdDeviation="4.3125"/>
  </filter>
  <linearGradient id="linearGradient3813" y2="18.316" xlink:href="#linearGradient3807" gradientUnits="userSpaceOnUse" x2="28.893" y1="79.393" x1="28.893"/>
  <linearGradient id="linearGradient3817" y2="18.316" xlink:href="#linearGradient3807" gradientUnits="userSpaceOnUse" x2="28.893" gradientTransform="translate(12)" y1="79.393" x1="28.893"/>
  <linearGradient id="linearGradient3821" y2="18.316" xlink:href="#linearGradient3807" gradientUnits="userSpaceOnUse" x2="28.893" gradientTransform="translate(24)" y1="79.393" x1="28.893"/>
  <linearGradient id="linearGradient3825" y2="18.316" xlink:href="#linearGradient3807" gradientUnits="userSpaceOnUse" x2="28.893" gradientTransform="translate(36)" y1="79.393" x1="28.893"/>
  <linearGradient id="ButtonShadow-0" y2="7.0165" gradientUnits="userSpaceOnUse" x2="45.448" gradientTransform="matrix(1.0059 0 0 .99417 100 0)" y1="92.54" x1="45.448">
   <stop id="stop3750-8" offset="0"/>
   <stop id="stop3752-5" style="stop-opacity:.58824" offset="1"/>
  </linearGradient>
  <linearGradient id="linearGradient3780" y2="90.239" xlink:href="#ButtonShadow-0" gradientUnits="userSpaceOnUse" x2="32.251" gradientTransform="matrix(1.0238 0 0 1.0119 -1.1429 -98.071)" y1="6.1317" x1="32.251"/>
  <linearGradient id="linearGradient3721" y2="90.239" xlink:href="#ButtonShadow-0" gradientUnits="userSpaceOnUse" x2="32.251" gradientTransform="translate(0,-97)" y1="6.1317" x1="32.251"/>
 </defs>
 <metadata id="metadata2413">
  <rdf:RDF>
   <cc:Work rdf:about="">
    <dc:format>image/svg+xml</dc:format>
    <dc:type rdf:resource="http://purl.org/dc/dcmitype/StillImage"/>
   </cc:Work>
  </rdf:RDF>
 </metadata>
 <g id="layer2" style="display:none">
  <rect id="rect3745" style="opacity:.9;filter:url(#filter3174);fill:url(#ButtonShadow)" rx="6" ry="6" height="85" width="86" y="7" x="5"/>
 </g>
 <g id="layer6">
  <path id="path3786" style="opacity:0.08;fill:url(#linearGradient3780)" d="m12-95.031c-5.5111 0-10.031 4.5202-10.031 10.031v71c0 5.5111 4.5202 10.031 10.031 10.031h72c5.5111 0 10.031-4.5202 10.031-10.031v-71c0-5.5111-4.5202-10.031-10.031-10.031h-72z" transform="scale(1,-1)"/>
  <path id="path3778" style="opacity:.1;fill:url(#linearGradient3780)" d="m12-94.031c-4.9716 0-9.0312 4.0596-9.0312 9.0312v71c0 4.9716 4.0596 9.0312 9.0312 9.0312h72c4.9716 0 9.0312-4.0596 9.0312-9.0312v-71c0-4.9716-4.0596-9.0312-9.0312-9.0312h-72z" transform="scale(1,-1)"/>
  <path id="path3770" style="opacity:.2;fill:url(#linearGradient3780)" d="m12-93c-4.4091 0-8 3.5909-8 8v71c0 4.4091 3.5909 8 8 8h72c4.4091 0 8-3.5909 8-8v-71c0-4.4091-3.5909-8-8-8h-72z" transform="scale(1,-1)"/>
  <rect id="rect3723" style="opacity:.3;fill:url(#linearGradient3780)" transform="scale(1,-1)" rx="7" ry="7" height="85" width="86" y="-92" x="5"/>
  <rect id="rect3716" style="opacity:.45;fill:url(#linearGradient3721)" transform="scale(1,-1)" rx="6" ry="6" height="84" width="84" y="-91" x="6"/>
 </g>
 <g id="layer1">
  <rect id="rect2419" style="fill:url(#linearGradient3617)" rx="6" ry="6" height="84" width="84" y="6" x="6"/>
  <path id="rect3728" style="opacity:.4;fill:url(#linearGradient3188)" d="m12 6c-3.324 0-6 2.676-6 6v2 68 2c0 0.33472 0.04135 0.6507 0.09375 0.96875 0.0487 0.2956 0.09704 0.59692 0.1875 0.875 0.00988 0.03038 0.020892 0.0636 0.03125 0.09375 0.098865 0.28777 0.23488 0.54745 0.375 0.8125 0.14459 0.27351 0.31562 0.53562 0.5 0.78125 0.18438 0.24564 0.37378 0.47347 0.59375 0.6875 0.43995 0.42806 0.94291 0.81453 1.5 1.0938 0.27854 0.13961 0.57347 0.24695 0.875 0.34375-0.2562-0.10022-0.48671-0.23627-0.71875-0.375-0.00741-0.0044-0.023866 0.0045-0.03125 0-0.031933-0.0193-0.062293-0.04251-0.09375-0.0625-0.1204-0.0767-0.23102-0.16351-0.34375-0.25-0.10617-0.0808-0.21328-0.16111-0.3125-0.25-0.1778-0.162-0.3473-0.346-0.4999-0.531-0.1075-0.131-0.2183-0.266-0.3124-0.407-0.0251-0.038-0.0385-0.086-0.0626-0.125-0.0647-0.103-0.1302-0.204-0.1874-0.312-0.1011-0.195-0.2057-0.416-0.2813-0.625-0.008-0.022-0.0236-0.041-0.0313-0.063-0.0318-0.092-0.0358-0.187-0.0624-0.281-0.0304-0.107-0.0704-0.203-0.0938-0.313-0.0729-0.341-0.125-0.698-0.125-1.062v-2-68-2c0-2.782 2.2182-5 5-5h2 68 2c2.7818 0 5 2.2182 5 5v2 68 2c0 0.3643-0.05212 0.72099-0.125 1.0625-0.04415 0.20689-0.08838 0.39766-0.15625 0.59375-0.0077 0.02195-0.0233 0.04069-0.03125 0.0625-0.06274 0.17374-0.13838 0.36745-0.21875 0.53125-0.04158 0.0828-0.07904 0.16995-0.125 0.25-0.0546 0.09721-0.12677 0.18835-0.1875 0.28125-0.09411 0.14096-0.20492 0.276-0.3125 0.40625-0.14317 0.17445-0.30314 0.347-0.46875 0.5-0.01117 0.0102-0.01998 0.02115-0.03125 0.03125-0.13839 0.12556-0.28509 0.23444-0.4375 0.34375-0.10257 0.07315-0.20432 0.15336-0.3125 0.21875-0.0074 0.0045-0.02384-0.0044-0.03125 0-0.23204 0.13873-0.46255 0.27478-0.71875 0.375 0.30153-0.0968 0.59646-0.20414 0.875-0.34375 0.55709-0.27922 1.0601-0.66569 1.5-1.0938 0.21997-0.21403 0.40937-0.44186 0.59375-0.6875s0.35541-0.50774 0.5-0.78125c0.14012-0.26505 0.27614-0.52473 0.375-0.8125 0.01041-0.03078 0.02133-0.06274 0.03125-0.09375 0.09046-0.27808 0.1388-0.5794 0.1875-0.875 0.053-0.318 0.094-0.634 0.094-0.969v-2-68-2c0-3.324-2.676-6-6-6h-72z"/>
  <path id="path3615" style="opacity:.2;fill:url(#radialGradient3619)" d="m12 90c-3.324 0-6-2.676-6-6v-2-68-2c0-0.33472 0.04135-0.6507 0.09375-0.96875 0.0487-0.2956 0.09704-0.59692 0.1875-0.875 0.0099-0.03 0.0209-0.063 0.0313-0.094 0.0989-0.2873 0.2349-0.547 0.375-0.812 0.1446-0.2735 0.3156-0.5356 0.5-0.7812 0.1844-0.2457 0.3738-0.4735 0.5937-0.6876 0.44-0.428 0.943-0.8145 1.5-1.0937 0.2786-0.1396 0.5735-0.2469 0.8748-0.3437-0.256 0.1002-0.4865 0.2362-0.7185 0.375-0.00741 0.0044-0.023866-0.0045-0.03125 0-0.031933 0.0193-0.062293 0.04251-0.09375 0.0625-0.1204 0.0767-0.23102 0.16351-0.34375 0.25-0.10617 0.0808-0.21328 0.16111-0.3125 0.25-0.1779 0.1614-0.3474 0.3453-0.5 0.5312-0.1075 0.1303-0.2183 0.2653-0.3124 0.4063-0.0251 0.0383-0.0385 0.0858-0.0626 0.125-0.0647 0.103-0.1302 0.2045-0.1874 0.3124-0.1011 0.1948-0.2057 0.4158-0.2813 0.625-0.008 0.0219-0.0236 0.0406-0.0313 0.0626-0.0318 0.0919-0.0358 0.1868-0.0624 0.2812-0.0304 0.1066-0.0704 0.203-0.0938 0.3125-0.0729 0.3415-0.125 0.6985-0.125 1.0625v2 68 2c0 2.7818 2.2182 5 5 5h2 68 2c2.7818 0 5-2.2182 5-5v-2-68-2c0-0.364-0.052-0.721-0.125-1.0625-0.044-0.2069-0.088-0.3977-0.156-0.5937-0.008-0.022-0.024-0.0407-0.031-0.0626-0.063-0.1737-0.139-0.3674-0.219-0.5312-0.042-0.0828-0.079-0.17-0.125-0.25-0.055-0.0972-0.127-0.1884-0.188-0.2812-0.094-0.141-0.205-0.276-0.312-0.4063-0.143-0.1745-0.303-0.347-0.469-0.5-0.011-0.0102-0.02-0.0211-0.031-0.0313-0.139-0.1255-0.285-0.2344-0.438-0.3437-0.102-0.0731-0.204-0.1534-0.312-0.2187-0.0074-0.0045-0.02384 0.0044-0.03125 0-0.23204-0.13873-0.46255-0.27478-0.71875-0.375 0.30153 0.0968 0.59646 0.20414 0.875 0.34375 0.55709 0.27922 1.0601 0.66569 1.5 1.0938 0.21997 0.21403 0.40937 0.44186 0.59375 0.6875s0.35541 0.50774 0.5 0.78125c0.14012 0.26505 0.27614 0.52473 0.375 0.8125 0.01041 0.03078 0.02133 0.06274 0.03125 0.09375 0.09046 0.27808 0.1388 0.5794 0.1875 0.875 0.053 0.318 0.094 0.634 0.094 0.969v2 68 2c0 3.324-2.676 6-6 6h-72z"/>
 </g>
 <g id="layer5">
  <rect id="rect3171" style="opacity:.1;filter:url(#filter3794);stroke:#fff;stroke-linecap:round;stroke-width:.5;fill:url(#linearGradient3613)" clip-path="url(#clipPath3613)" rx="12" ry="12" height="66" width="66" y="15" x="15"/>
 </g>
 <g id="layer3">
  <path id="path3715" style="opacity:0.08" d="m16.25 14.062c-1.8266 0.36099-1.9873 2.638-2.9006 3.9574-0.60157 1.3511-2.0929 3.0472-0.66192 4.3863 0.79296 0.59096 1.8189 0.40703 1.375 1.751-0.04302 1.9462 0.08514 4.0636-0.0625 5.9052-2.6928 0.01603-2.6495 4.9444 0.0625 4.875-0.04261 2.3532 0.0846 4.8763-0.0625 7.125-2.6928 0.01603-2.6495 4.9444 0.0625 4.875-0.04261 2.3532 0.0846 4.8763-0.0625 7.125-2.6928 0.01603-2.6495 4.9444 0.0625 4.875-0.04261 2.3532 0.0846 4.8763-0.0625 7.125-2.6928 0.01603-2.6495 4.9444 0.0625 4.875v7.125c-1.4886-0.32974-3.2814 0.63182-3 2.3441-0.33173 1.6092 1.2138 2.8841 2.7507 2.5309 0.54402 0.48775-0.04503 2.3869 1.2806 2.75 1.4715 0.72856 4.0217 0.1407 3.8438-1.8908-0.3783-1.6134 1.9098-0.56041 2.8461-0.8592h52.279c-0.09503 1.7027 2.1248 2.6044 3.3267 1.5085 1.663-0.952 3.622-1.578 5.079-2.696 1.101-1.237 0.044-3.057-1.353-3.332-1.731-0.714-3.327-1.961-5.116-2.356-1.0434-0.0064-1.9859 0.94774-1.9375 2h-55.125v-55.125c1.7027 0.09502 2.6044-2.1248 1.5085-3.3267-0.976-1.684-1.58-3.688-2.758-5.141-0.427-0.307-0.914-0.44-1.438-0.407z"/>
  <path id="path3711" style="opacity:0.12" d="m16.406 15.062a0.93784 0.93784 0 0 0 -0.75 0.53125l-1.25 2.5-1.25 2.5a0.93784 0.93784 0 0 0 0.844 1.345h1.0625v9.125h-1.0625a0.93784 0.93784 0 0 0 -0.938 0.937v1a0.93784 0.93784 0 0 0 0.938 0.938h1.0625v9.125h-1.0625a0.93784 0.93784 0 0 0 -0.938 0.937v1a0.93784 0.93784 0 0 0 0.938 0.938h1.0625v9.125h-1.0625a0.93784 0.93784 0 0 0 -0.938 0.937v1a0.93784 0.93784 0 0 0 0.938 0.938h1.0625v9.125h-1.0625a0.93784 0.93784 0 0 0 -0.938 0.937v1a0.93784 0.93784 0 0 0 0.938 0.938h1.0625v9.125h-2.0625a0.93784 0.93784 0 0 0 -0.938 0.937v1a0.93784 0.93784 0 0 0 0.938 0.938h2.0625v2.0625a0.93784 0.93784 0 0 0 0.938 0.938h1a0.93784 0.93784 0 0 0 0.938 -0.938v-2.0625h57.125v1.0625a0.93784 0.93784 0 0 0 1.3438 0.84375l2.5-1.25 2.5-1.25a0.93784 0.93784 0 0 0 0 -1.6875l-2.5-1.25-2.5-1.25a0.93784 0.93784 0 0 0 -1.345 0.844v1.0625h-57.125v-57.125h1.0625a0.93784 0.93784 0 0 0 0.84375 -1.3438l-1.25-2.5-1.25-2.5a0.93784 0.93784 0 0 0 -0.9375 -0.53125z"/>
  <path id="rect2920" style="opacity:.2" d="m16.5 16-1.25 2.5-1.25 2.5h2v11h-2v1h2v11h-2v1h2v11h-2v1h2v11h-2v1h2v11h-3v1h3v3h1v-3h59v2l2.5-1.25 2.5-1.25-2.5-1.25-2.5-1.25v2h-59v-59h2l-1.25-2.5-1.25-2.5z"/>
  <rect id="rect3634" style="fill:#fff" height="63" width="1" y="20" x="16"/>
  <rect id="rect3636" style="fill:#fff" transform="rotate(90)" height="63" width="1" y="-76" x="79"/>
  <path id="path3641" style="fill:#fff" d="m16.289 15.186 1.5865 2.748 1.5866 2.748-3.1731-0.000001h-3.1731l1.5866-2.748z" transform="matrix(.78787 0 0 .90976 3.6666 1.1848)"/>
  <path id="path3643" style="fill:#fff" d="m16.289 15.186 1.5865 2.748 1.5866 2.748-3.1731-0.000001h-3.1731l1.5866-2.748z" transform="matrix(0 .78787 -.90976 0 94.815 66.667)"/>
  <rect id="rect3645" style="fill:#fff" height="1" width="2" y="67" x="14"/>
  <rect id="rect3649" style="fill:#fff" height="1" width="2" y="55" x="14"/>
  <rect id="rect3651" style="fill:#fff" height="1" width="2" y="43" x="14"/>
  <rect id="rect3653" style="fill:#fff" height="1" width="2" y="31" x="14"/>
  <rect id="rect3805" style="opacity:.4;fill:url(#linearGradient3813)" height="63" width="1" y="17" x="28"/>
  <rect id="rect3815" style="opacity:.4;fill:url(#linearGradient3817)" height="63" width="1" y="17" x="40"/>
  <rect id="rect3819" style="opacity:.4;fill:url(#linearGradient3821)" height="63" width="1" y="17" x="52"/>
  <rect id="rect3823" style="opacity:.4;fill:url(#linearGradient3825)" height="63" width="1" y="17" x="64"/>
 </g>
 <g id="layer4">
  <rect id="rect3762" style="opacity:.4;filter:url(#filter3801);fill:url(#linearGradient3799)" clip-path="url(#clipPath3789)" height="38.571" width="47.679" y="40.464" x="25.536"/>
  <rect id="rect3720" style="opacity:.2;filter:url(#filter3746);fill:url(#linearGradient3740)" clip-path="url(#clipPath3730)" transform="translate(0,-3)" ry="0" width="44.821" y="16.536" x="26.429" height="54.821"/>
  <path id="path3251" style="stroke:#cbf44b;stroke-linecap:round;stroke-width:2.0166;fill:none" d="m75.992 26.515-7.888-8.091-13.234 14.785-4.35-5.676-9.053 15.105-9.377 1.226-10.082 6.128"/>
  <path id="path3231" style="stroke:#ffb100;stroke-linecap:round;stroke-width:2.0164;fill:none" d="m75.992 65.648-5.9362 1.5657-6.4692-5.6525-10.888 7.4309-8.7119-17.245-6.5376 10.433-7.5348-4.315-7.9055 5.7408"/>
 </g>
</svg>
