<?xml version="1.0" encoding="UTF-8" standalone="no"?>
<!-- Created with Inkscape (http://www.inkscape.org/) -->
<svg id="svg2408" xmlns:rdf="http://www.w3.org/1999/02/22-rdf-syntax-ns#" xmlns="http://www.w3.org/2000/svg" height="96" width="96" version="1.2" xmlns:cc="http://creativecommons.org/ns#" xmlns:xlink="http://www.w3.org/1999/xlink" xmlns:dc="http://purl.org/dc/elements/1.1/">
 <metadata id="metadata83">
  <rdf:RDF>
   <cc:Work rdf:about="">
    <dc:format>image/svg+xml</dc:format>
    <dc:type rdf:resource="http://purl.org/dc/dcmitype/StillImage"/>
    <dc:title/>
   </cc:Work>
  </rdf:RDF>
 </metadata>
 <defs id="defs2410">
  <linearGradient id="linearGradient3737">
   <stop id="stop3739" style="stop-color:#fff" offset="0"/>
   <stop id="stop3741" style="stop-color:#fff;stop-opacity:0" offset="1"/>
  </linearGradient>
  <filter id="filter3174" color-interpolation-filters="sRGB">
   <feGaussianBlur id="feGaussianBlur3176" stdDeviation="1.71"/>
  </filter>
  <linearGradient id="linearGradient3188" y2="73.995" xlink:href="#linearGradient3737" gradientUnits="userSpaceOnUse" x2="36.357" y1="18" x1="36.357"/>
  <linearGradient id="linearGradient4010" y2="58.466" xlink:href="#linearGradient3737" gradientUnits="userSpaceOnUse" x2="23.607" y1="6" x1="23.607"/>
  <linearGradient id="linearGradient4018" y2="5.2972" gradientUnits="userSpaceOnUse" x2="45.448" gradientTransform="matrix(1.0059 0 0 .99417 0 12)" y1="80.472" x1="45.448">
   <stop id="stop3750" offset="0"/>
   <stop id="stop3752" style="stop-opacity:.58824" offset="1"/>
  </linearGradient>
  <linearGradient id="linearGradient4023" y2="32.013" gradientUnits="userSpaceOnUse" x2="34.86" gradientTransform="matrix(.72 0 0 .72 1.92 -5.52)" y1="17.736" x1="34.86">
   <stop id="stop3350" style="stop-color:#95c070" offset="0"/>
   <stop id="stop3356" style="stop-color:#52802d" offset=".71692"/>
   <stop id="stop3352" style="stop-color:#52802d" offset="1"/>
  </linearGradient>
  <linearGradient id="linearGradient3312" y2="5.9877" gradientUnits="userSpaceOnUse" x2="48" gradientTransform="translate(0,12)" y1="78" x1="48">
   <stop id="stop3189" style="stop-color:#52802d" offset="0"/>
   <stop id="stop3191" style="stop-color:#95c070" offset="1"/>
  </linearGradient>
  <radialGradient id="radialGradient3662" gradientUnits="userSpaceOnUse" cy="90.172" cx="48" gradientTransform="matrix(1.1573 0 0 .99591 -7.551 .19713)" r="42">
   <stop id="stop3739-0" style="stop-color:#fff" offset="0"/>
   <stop id="stop3741-4" style="stop-color:#fff;stop-opacity:0" offset="1"/>
  </radialGradient>
  <linearGradient id="linearGradient3671" y2="6.9171" xlink:href="#ButtonShadow-1" gradientUnits="userSpaceOnUse" x2="26.5" y1="90.313" x1="26.5"/>
  <linearGradient id="ButtonShadow-1" y2="7.0165" gradientUnits="userSpaceOnUse" x2="45.448" gradientTransform="matrix(1.0059 0 0 .99417 0 12)" y1="80.472" x1="45.448">
   <stop id="stop3750-3" offset="0"/>
   <stop id="stop3752-5" style="stop-opacity:.58824" offset="1"/>
  </linearGradient>
  <linearGradient id="linearGradient3692" y2="6.9171" xlink:href="#ButtonShadow-1" gradientUnits="userSpaceOnUse" x2="26.5" gradientTransform="matrix(1.0278 0 0 1.0127 -1.3333 .030880)" y1="90.313" x1="26.5"/>
  <linearGradient id="linearGradient3701" y2="6.9171" xlink:href="#ButtonShadow-1" gradientUnits="userSpaceOnUse" x2="26.5" gradientTransform="matrix(1.0278 0 0 1.0127 -1.3333 .030880)" y1="90.313" x1="26.5"/>
  <linearGradient id="linearGradient3104-8" y2="1.8332" xlink:href="#linearGradient3877-4" gradientUnits="userSpaceOnUse" x2="8.9155" gradientTransform="matrix(2.5842 0 0 2.5842 18.116 22.973)" y1="18.869" x1="8.9155"/>
  <linearGradient id="linearGradient3877-4">
   <stop id="stop3879-6" style="stop-color:#527f2d;stop-opacity:.78431" offset="0"/>
   <stop id="stop3883-9" style="stop-color:#527f2d;stop-opacity:.39216" offset="1"/>
  </linearGradient>
 </defs>
 <g id="layer2" style="display:none">
  <path id="rect3745" style="opacity:.9;filter:url(#filter3174);fill:url(#linearGradient4018)" d="m14.969 8.8029c-1.64 0-2.969 1.2821-2.969 2.8751v7.322c-3.324 0-7 2.676-7 6v61c0 3.324 2.676 6 6 6h74c3.324 0 6-2.676 6-6v-61c0-3.324-3.7474-6-7.0714-6v-0.13461c0-2.3891-1.9777-4.3125-4.4375-4.3125h-43.335l-1.4688-2.875c-0.734-1.424-1.329-2.8741-2.969-2.8741h-16.75z"/>
 </g>
 <g id="layer4">
  <path id="path3715" style="opacity:0.08;fill:url(#linearGradient3701)" d="m13.969 4c-3.301 0-6.094 2.6931-6.094 6.031v7.0625c-3.4361 1.5607-6 4.8407-6 8.9062v59c0 5.5613 4.5637 10.125 10.125 10.125h72c5.5613 0 10.125-4.5637 10.125-10.125v-59c0-4.0908-2.5938-7.3894-6.0625-8.9375-0.16038-3.9934-3.4736-7.2188-7.5-7.2188h-42.5l-0.625-1.219c-0.303-0.596-0.703-1.5848-1.5-2.5625-0.904-1.1067-2.384-2.0625-4.219-2.0625h-17.75z" transform="matrix(.99729 0 0 .99863 .13008 .0054870)"/>
  <path id="path3707" style="opacity:.1;fill:url(#linearGradient3701)" d="m13.969 4.9688c-2.7832 0-5.125 2.2573-5.125 5.0625v7.3125 0.3125c-3.4369 1.2903-6 4.4397-6 8.3438v59c0 5.0399 4.1163 9.1562 9.1562 9.1562h72c5.0399 0 9.1562-4.1163 9.1562-9.1562v-59c0-3.904-2.5631-7.0534-6-8.3438v-0.3125c0-3.6027-2.9854-6.5312-6.5938-6.5312h-43.094l-0.875-1.75c-0.329-0.651-0.709-1.5531-1.405-2.4068-0.751-0.9189-1.959-1.6874-3.469-1.6874h-17.75z" transform="matrix(.99654 0 0 .99790 .16609 .041696)"/>
  <path id="path3698" style="opacity:.2;fill:url(#linearGradient3701)" d="m13.969 6c-2.232 0-4.094 1.7965-4.094 4.031v7.3125 0.96875c-3.4279 0.95094-6 3.9595-6 7.6875v59c0 4.4838 3.6412 8.125 8.125 8.125h72c4.4838 0 8.125-3.6412 8.125-8.125v-59c0-3.728-2.5721-6.7366-6-7.6875v-0.96875c0-3.0378-2.5058-5.5-5.5625-5.5h-43.719l-1.1562-2.3125c-0.353-0.695-0.699-1.505-1.281-2.218s-1.532-1.3125-2.687-1.3125h-17.75z" transform="matrix(.99717 0 0 .99857 .13598 .0086083)"/>
  <path id="path3679" style="opacity:.3;fill:url(#linearGradient3692)" d="m13.969 7.125c-1.64 0-2.969 1.2904-2.969 2.906v7.3125 1.75c-3.3973 0.485-6 3.37-6 6.906v59c0 3.878 3.122 7 7 7h72c3.878 0 7-3.122 7-7v-59c0-3.5358-2.6027-6.4206-6-6.9062v-1.75c0-2.4238-1.9777-4.375-4.4375-4.375h-44.406l-1.4688-2.9375c-0.733-1.446-1.328-2.907-2.968-2.907h-17.75z"/>
  <path id="path2885" style="opacity:.45;fill:url(#linearGradient3671)" d="m14.875 7c-1.596 0-2.875 1.2795-2.875 2.875v7.219 1.906c-3.324 0-6 2.676-6 6v60c0 3.324 2.676 6 6 6h72c3.324 0 6-2.676 6-6v-60c0-3.324-2.676-6-6-6v-1.9062c0-2.394-1.919-4.344-4.312-4.344h-43.219l-1.4375-2.875c-0.714-1.4271-1.28-2.875-2.876-2.875h-17.281z"/>
 </g>
 <g id="layer3">
  <path id="rect3325" style="fill:url(#linearGradient4023)" d="m14.88 6c-1.596 0-2.88 1.2845-2.88 2.88v7.2 50.4 4.32c0 2.3933 1.9267 4.32 4.32 4.32h63.36c2.3933 0 4.32-1.9267 4.32-4.32v-54.72c0-2.3933-1.9267-4.32-4.32-4.32h-43.2l-1.44-2.88c-0.714-1.4271-1.284-2.88-2.88-2.88h-17.28z"/>
  <path id="path3997" style="opacity:.3;fill:url(#linearGradient4010)" d="m14.875 6c-1.596 0-2.875 1.2795-2.875 2.875v7.2188 50.375 4.3438c0 2.3933 1.9192 4.3125 4.3125 4.3125h63.375c2.394-0.001 4.313-1.92 4.313-4.314v-54.718c0-2.394-1.919-4.344-4.312-4.344h-43.219l-1.4375-2.875c-0.714-1.4271-1.28-2.875-2.876-2.875h-17.281zm0 1.9375h17.281c0.48716 0 0.66045 0.11267 0.96875 0.5s0.62967 1.0718 1 1.8125l1.4375 2.875c0.17338 0.34199 0.52284 0.55889 0.90625 0.5625h43.219c1.8354 0 3.2812 1.4682 3.2812 3.3125v54.719c0 1.8443-1.4369 3.2812-3.2812 3.2812h-63.375c-1.8443 0-3.2812-1.4369-3.2812-3.2812v-4.3438-50.375-7.2188c0-1.0466 0.79716-1.8438 1.8438-1.8438z"/>
 </g>
 <g id="layer1">
  <path id="rect2419" style="fill:url(#linearGradient3312)" d="m12 18c-3.324 0-6 2.676-6 6v60c0 3.324 2.676 6 6 6h72c3.324 0 6-2.676 6-6v-60c0-3.324-2.676-6-6-6h-72z"/>
  <path id="rect3728" style="opacity:.5;fill:url(#linearGradient3188)" d="m12 18c-3.324 0-6 2.676-6 6v2 56 2c0 0.33472 0.04135 0.6507 0.09375 0.96875 0.0487 0.2956 0.09704 0.59692 0.1875 0.875 0.00988 0.03038 0.020892 0.0636 0.03125 0.09375 0.098865 0.28777 0.23488 0.54745 0.375 0.8125 0.14459 0.27351 0.31562 0.53562 0.5 0.78125 0.18438 0.24564 0.37378 0.47347 0.59375 0.6875 0.43995 0.42806 0.94291 0.81453 1.5 1.0938 0.27854 0.13961 0.57347 0.24695 0.875 0.34375-0.2562-0.10022-0.48671-0.23627-0.71875-0.375-0.00741-0.0044-0.023866 0.0045-0.03125 0-0.031933-0.0193-0.062293-0.04251-0.09375-0.0625-0.1204-0.0767-0.23102-0.16351-0.34375-0.25-0.10617-0.0808-0.21328-0.16111-0.3125-0.25-0.1778-0.162-0.3473-0.346-0.4999-0.531-0.1075-0.131-0.2183-0.266-0.3124-0.407-0.0251-0.038-0.0385-0.086-0.0626-0.125-0.0647-0.103-0.1302-0.204-0.1874-0.312-0.1011-0.195-0.2057-0.416-0.2813-0.625-0.008-0.022-0.0236-0.041-0.0313-0.063-0.0318-0.092-0.0358-0.187-0.0624-0.281-0.0304-0.107-0.0704-0.203-0.0938-0.313-0.0729-0.341-0.125-0.698-0.125-1.062v-2-56-2c0-2.7818 2.2182-5 5-5h2 68 2c2.7818 0 5 2.2182 5 5v2 56 2c0 0.3643-0.05212 0.72099-0.125 1.0625-0.04415 0.20689-0.08838 0.39766-0.15625 0.59375-0.0077 0.02195-0.0233 0.04069-0.03125 0.0625-0.06274 0.17374-0.13838 0.36745-0.21875 0.53125-0.04158 0.0828-0.07904 0.16995-0.125 0.25-0.0546 0.09721-0.12677 0.18835-0.1875 0.28125-0.09411 0.14096-0.20492 0.276-0.3125 0.40625-0.14317 0.17445-0.30314 0.347-0.46875 0.5-0.01117 0.0102-0.01998 0.02115-0.03125 0.03125-0.13839 0.12556-0.28509 0.23444-0.4375 0.34375-0.10257 0.07315-0.20432 0.15336-0.3125 0.21875-0.0074 0.0045-0.02384-0.0044-0.03125 0-0.23204 0.13873-0.46255 0.27478-0.71875 0.375 0.30153-0.0968 0.59646-0.20414 0.875-0.34375 0.55709-0.27922 1.0601-0.66569 1.5-1.0938 0.21997-0.21403 0.40937-0.44186 0.59375-0.6875s0.35541-0.50774 0.5-0.78125c0.14012-0.26505 0.27614-0.52473 0.375-0.8125 0.01041-0.03078 0.02133-0.06274 0.03125-0.09375 0.09046-0.27808 0.1388-0.5794 0.1875-0.875 0.053-0.318 0.094-0.634 0.094-0.969v-2-56-2c0-3.324-2.676-6-6-6h-72z"/>
  <path id="path3615" style="opacity:.2;fill:url(#radialGradient3662)" d="m12 90c-3.324 0-6-2.676-6-6v-2-56-2c0-0.33472 0.04135-0.6507 0.09375-0.96875 0.0487-0.2956 0.09704-0.59692 0.1875-0.875 0.00988-0.03038 0.020892-0.0636 0.03125-0.09375 0.098865-0.28777 0.23488-0.54745 0.375-0.8125 0.14459-0.27351 0.31562-0.53562 0.5-0.78125 0.18438-0.24564 0.37378-0.47347 0.59375-0.6875 0.43995-0.42806 0.94291-0.81453 1.5-1.0938 0.27854-0.13961 0.57347-0.24695 0.875-0.34375-0.2562 0.10022-0.48671 0.23627-0.71875 0.375-0.00741 0.0044-0.023866-0.0045-0.03125 0-0.031933 0.0193-0.062293 0.04251-0.09375 0.0625-0.1204 0.0767-0.23102 0.16351-0.34375 0.25-0.10617 0.0808-0.21328 0.16111-0.3125 0.25-0.17793 0.16143-0.34746 0.34539-0.5 0.53125-0.10758 0.13026-0.21839 0.26528-0.3125 0.40625-0.025089 0.03838-0.038446 0.08587-0.0625 0.125-0.064763 0.10303-0.13023 0.20452-0.1875 0.3125-0.10101 0.19471-0.20567 0.4157-0.28125 0.625-0.0079 0.022-0.0235 0.041-0.0312 0.063-0.0318 0.092-0.0358 0.187-0.0624 0.281-0.0304 0.107-0.0704 0.203-0.0938 0.313-0.0729 0.341-0.125 0.698-0.125 1.062v2 56 2c0 2.7818 2.2182 5 5 5h2 68 2c2.7818 0 5-2.2182 5-5v-2-56-2c0-0.3643-0.05212-0.72099-0.125-1.0625-0.04415-0.20689-0.08838-0.39766-0.15625-0.59375-0.0077-0.02195-0.0233-0.04069-0.03125-0.0625-0.06274-0.17374-0.13838-0.36745-0.21875-0.53125-0.04158-0.0828-0.07904-0.16995-0.125-0.25-0.0546-0.09721-0.12677-0.18835-0.1875-0.28125-0.09411-0.14096-0.20492-0.276-0.3125-0.40625-0.14317-0.17445-0.30314-0.347-0.46875-0.5-0.01117-0.0102-0.01998-0.02115-0.03125-0.03125-0.13839-0.12556-0.28509-0.23444-0.4375-0.34375-0.10257-0.07315-0.20432-0.15336-0.3125-0.21875-0.0074-0.0045-0.02384 0.0044-0.03125 0-0.23204-0.13873-0.46255-0.27478-0.71875-0.375 0.30153 0.0968 0.59646 0.20414 0.875 0.34375 0.55709 0.27922 1.0601 0.66569 1.5 1.0938 0.21997 0.21403 0.40937 0.44186 0.59375 0.6875s0.35541 0.50774 0.5 0.78125c0.14012 0.26505 0.27614 0.52473 0.375 0.8125 0.01041 0.03078 0.02133 0.06274 0.03125 0.09375 0.09046 0.27808 0.1388 0.5794 0.1875 0.875 0.053 0.318 0.094 0.634 0.094 0.969v2 56 2c0 3.324-2.676 6-6 6h-72z"/>
  <g id="layer6" transform="translate(.60215 3.9968)">
   <path id="path4663" style="opacity:.05;fill:#fff" d="m41.531 26c-4.4866 0-8.991 1.691-12.406 5.0938-6.8344 6.8094-6.8344 17.941 0 24.75 5.7593 5.7382 14.548 6.641 21.281 2.6875 0.34737 0.02725 0.71355 0.03673 1 0.09375 0.19392 0.0386 0.07969-0.03663 0.15625 0 0.0041 0.18838-0.0059 0.38784 0 0.75 0.01537 0.93752 0.27177 2.532 1.5 3.7188l-0.031 0.03 0.094 0.094 9.406 9.531s0.02999 0.02996 0.03125 0.03125c0.04704 0.04831 0.94182 0.96484 2.3438 1.1875 1.4394 0.22861 3.3421-0.34826 5.0312-2.0312 1.6909-1.6847 2.2622-3.5896 2.0312-5.0312-0.21891-1.3666-1.0643-2.2216-1.1562-2.3125l-0.062-0.063-9.406-9.531c-0.02156-0.02382-0.04063-0.0394-0.0625-0.0625-1.1965-1.264-2.8646-1.461-3.8125-1.4688-0.34687-0.0028-0.53057 0.0019-0.71875 0-0.03463-0.07217 0.04512 0.02628 0-0.1875-0.06-0.284-0.096-0.631-0.125-0.969 3.966-6.708 3.105-15.478-2.656-21.218-3.42-3.408-7.951-5.094-12.438-5.094zm0 2c3.9762 0 7.9684 1.5107 11 4.5312 5.2858 5.2664 5.9615 13.375 2.0312 19.375 0.05134 1.0199 0.20956 2.6656 0.875 3.25 0.90605 0.79574 3.0254-0.3386 4.4062 1.1875l9.532 9.656s1.8774 1.7577-0.875 4.5-4.5 0.875-4.5 0.875l-9.531-9.656c-1.532-1.376-0.42-3.504-1.219-4.407-0.587-0.662-2.226-0.792-3.25-0.843-6.0222 3.9159-14.152 3.2039-19.438-2.0625-6.0632-6.041-6.0632-15.834 0-21.875 3.032-3.02 6.993-4.531 10.969-4.531zm0.0625 5.1562c-2.8582 0-5.4381 1.1012-7.3125 2.9688s-3.0625 4.496-3.0625 7.3438c0 5.6955 4.6585 10.313 10.375 10.312 5.7165 0 10.344-4.617 10.344-10.312 0-5.6955-4.6273-10.312-10.344-10.312zm0 2c4.6317 0 8.3438 3.7082 8.3438 8.3125s-3.7121 8.3125-8.3438 8.3125c-4.6317 0.000002-8.375-3.7155-8.375-8.3125 0-2.2874 0.99359-4.4054 2.5-5.9062 1.5002-1.4947 3.5342-2.4062 5.875-2.4062z"/>
   <path id="path4652" style="opacity:.1;fill:#fff" d="m41.531 26.969c-4.2404 0-8.4886 1.5942-11.719 4.8125-6.4624 6.4387-6.4624 16.936 0 23.375 5.519 5.4988 13.956 6.2796 20.344 2.375 0.45598 0.0269 0.98857 0.06689 1.4375 0.15625 0.5175 0.10301 0.87889 0.3169 0.875 0.3125-0.01457-0.01646 0.03999 0.03681 0.0625 0.28125s-0.0073 0.61556 0 1.0625c0.01432 0.87341 0.19369 2.1502 1.1875 3.0938 0.02329 0.02211 0.03828 0.04074 0.0625 0.0625l9.469 9.593s0.69077 0.72809 1.8125 0.90625 2.6493-0.21746 4.1875-1.75c1.5391-1.5334 1.93-3.064 1.75-4.1875-0.17338-1.0824-0.82508-1.7326-0.875-1.7812l-0.031-0.032-9.469-9.594c-0.01093-0.01208-0.02023-0.01941-0.03125-0.03125-0.95149-1.0226-2.2421-1.1803-3.125-1.1875-0.44654-0.0036-0.81915 0.02058-1.0625 0s-0.29846-0.07762-0.28125-0.0625c0.0011 0.000974-0.23442-0.38819-0.34375-0.90625-0.09457-0.4481-0.12817-0.95875-0.15625-1.4062 3.9188-6.3645 3.1768-14.781-2.3438-20.281-3.2327-3.2208-7.5096-4.8125-11.75-4.8125zm0 1.0312c3.9762 0 7.9684 1.5107 11 4.5312 5.2858 5.2664 5.9615 13.375 2.0312 19.375 0.05134 1.0199 0.20956 2.6656 0.875 3.25 0.90605 0.79574 3.0254-0.3386 4.4062 1.1875l9.532 9.656s1.8774 1.7577-0.875 4.5-4.5 0.875-4.5 0.875l-9.531-9.656c-1.532-1.376-0.42-3.504-1.219-4.407-0.587-0.662-2.226-0.792-3.25-0.843-6.0222 3.9159-14.152 3.2039-19.438-2.0625-6.0632-6.041-6.0632-15.834 0-21.875 3.032-3.02 6.993-4.531 10.969-4.531zm0.0625 5.1562c-2.8582 0-5.4381 1.1012-7.3125 2.9688s-3.0625 4.496-3.0625 7.3438c0 5.6955 4.6585 10.313 10.375 10.312 5.7165 0 10.344-4.617 10.344-10.312 0-5.6955-4.6273-10.312-10.344-10.312zm0 1.0312c5.155 0 9.3125 4.1505 9.3125 9.2812 0 5.1308-4.1575 9.2812-9.3125 9.2812-5.155 0.000002-9.3438-4.1543-9.3438-9.2812 0-2.5578 1.0973-4.916 2.7812-6.5938 1.6807-1.6746 3.9721-2.6875 6.5625-2.6875z"/>
   <path id="Symbol" style="opacity:.9;fill:url(#linearGradient3104-8)" d="m30.547 32.531c-6.0632 6.041-6.0632 15.847 0 21.888 5.2858 5.2664 13.429 5.9678 19.451 2.052 1.0236 0.05117 2.6743 0.192 3.2609 0.85499 0.79867 0.90273-0.33032 3.0131 1.2014 4.3889l9.5261 9.6524s1.7671 1.8873 4.5195-0.85499 0.85814-4.5029 0.85814-4.5029l-9.526-9.653c-1.3809-1.5261-3.499-0.40125-4.4051-1.197-0.66544-0.58442-0.80679-2.2291-0.85813-3.249 3.9303-6.0001 3.2263-14.113-2.0595-19.38-6.0632-6.041-15.905-6.041-21.968 0zm3.7186 3.591c1.8744-1.8676 4.4645-2.964 7.3227-2.964 5.7165 0 10.355 4.6214 10.355 10.317 0 5.6955-4.6383 10.317-10.355 10.317-5.7165 0.000002-10.355-4.6214-10.355-10.317 0-2.8478 1.1576-5.4854 3.0321-7.3529z"/>
   <path id="path4624" style="opacity:.25;fill:url(#linearGradient3104-8)" d="m41.531 28c-3.9762 0-7.9371 1.5107-10.969 4.5312-6.0632 6.041-6.0632 15.834 0 21.875 5.2858 5.2664 13.415 5.9784 19.438 2.0625 1.0236 0.05117 2.6634 0.18076 3.25 0.84375 0.79867 0.90273-0.31296 3.0304 1.2188 4.4062l9.531 9.657s1.7476 1.8673 4.5-0.875 0.875-4.5 0.875-4.5l-9.5312-9.6562c-1.3809-1.5261-3.5002-0.39176-4.4062-1.1875-0.66544-0.58442-0.82366-2.2301-0.875-3.25 3.9303-6.0001 3.2545-14.109-2.0312-19.375-3.032-3.021-7.024-4.532-11.001-4.532zm0 1.9375c3.4839 0 6.9683 1.3217 9.625 3.9688 4.6377 4.6207 5.2157 11.694 1.7812 16.938a1.9441 1.9441 0 0 0 -0.312 1.155c0.02807 0.55765 0.0839 1.3067 0.25 2.0938 0.06215 0.2945 0.14655 0.62135 0.25 0.9375-0.331-0.108-0.663-0.22-0.969-0.281-0.786-0.156-1.52-0.192-2.062-0.219a1.9441 1.9441 0 0 0 -1.1562 0.3125c-5.2617 3.4213-12.358 2.8124-17-1.8125-5.3191-5.2996-5.3191-13.825 0-19.125 2.6615-2.6517 6.1099-3.9688 9.5938-3.9688zm0.0625 1.2812c-3.3575 0-6.452 1.3039-8.6875 3.5312-2.2295 2.2213-3.625 5.3303-3.625 8.7188 0 6.7555 5.5493 12.25 12.312 12.25 6.7632 0 12.281-5.5016 12.281-12.25s-5.5181-12.25-12.281-12.25zm0 1.9375c5.7165 0 10.344 4.617 10.344 10.312 0 5.6955-4.6273 10.312-10.344 10.312-5.7165 0.000002-10.375-4.617-10.375-10.312 0-2.8478 1.1881-5.4762 3.0625-7.3438s4.4543-2.9688 7.3125-2.9688zm13.5 23.844c0.36862 0.13102 0.77528 0.38196 1.0625 0.40625 0.54216 0.04585 0.94553-0.0027 1.2812 0 0.67143 0.0055 0.77104 0.03149 0.96875 0.25a1.9441 1.9441 0 0 0 0.0625 0.0625l9.532 9.657a1.9441 1.9441 0 0 0 0.03125 0.03125s0.0079-0.02089 0.03125 0.125c0.02337 0.14589 0.13502 0.52516-0.9375 1.5938-1.0742 1.0702-1.4481 0.92938-1.5938 0.90625-0.14564-0.02313-0.125 0-0.125 0a1.9441 1.9441 0 0 0 -0.031 -0.031l-9.5312-9.6562a1.9441 1.9441 0 0 0 -0.0625 -0.0625c-0.222-0.2-0.24-0.297-0.251-0.97-0.005-0.336 0.019-0.771-0.031-1.312-0.025-0.276-0.284-0.649-0.406-1z"/>
   <path id="path4602" style="fill:url(#linearGradient3104-8)" d="m41.531 28c-3.9762 0-7.9371 1.5107-10.969 4.5312-3.158 3.1465-4.6629 7.3123-4.5312 11.438 0.12362-3.7913 1.6287-7.5456 4.5312-10.438 6.0632-6.041 15.906-6.041 21.969 0 2.8866 2.876 4.3548 6.6088 4.5 10.375 0.10748-4.1012-1.3574-8.244-4.5-11.375-3.031-3.02-7.023-4.531-11-4.531zm-10.281 15.969c-0.0079 0.16598-0.03125 0.33245-0.03125 0.5 0 5.6955 4.6585 10.313 10.375 10.312 5.7165 0 10.344-4.617 10.344-10.312 0-0.16755-0.02331-0.3344-0.03125-0.5-0.26188 5.4637-4.7642 9.8125-10.312 9.8125-5.5483 0.000002-10.082-4.3488-10.344-9.8125zm23.375 8.8125c-0.02506 0.03903-0.03705 0.08614-0.0625 0.125 0.05134 1.0199 0.20956 2.6656 0.875 3.25 0.90605 0.79574 3.0254-0.3386 4.4062 1.1875l9.531 9.656s0.4162 0.421 0.5625 1.1562c0.275-1.355-0.563-2.156-0.563-2.156l-9.5312-9.6562c-1.3809-1.5261-3.5002-0.39176-4.4062-1.1875-0.49908-0.43831-0.71989-1.4548-0.8125-2.375z"/>
   <path id="path4611" style="opacity:.5;fill:url(#linearGradient3104-8)" d="m41.531 28c-3.9762 0-7.9371 1.5107-10.969 4.5312-6.0632 6.041-6.0632 15.834 0 21.875 5.2858 5.2664 13.415 5.9784 19.438 2.0625 1.0236 0.05117 2.6634 0.18076 3.25 0.84375 0.79867 0.90273-0.31296 3.0304 1.2188 4.4062l9.531 9.657s1.7476 1.8673 4.5-0.875 0.875-4.5 0.875-4.5l-9.5312-9.6562c-1.3809-1.5261-3.5002-0.39176-4.4062-1.1875-0.66544-0.58442-0.82366-2.2301-0.875-3.25 3.9303-6.0001 3.2545-14.109-2.0312-19.375-3.032-3.021-7.024-4.532-11.001-4.532zm0 1c3.7194 0 7.4452 1.4243 10.281 4.25 4.9478 4.9296 5.5779 12.488 1.9062 18.094a1.014 1.014 0 0 0 -0.15625 0.625c0.02692 0.53483 0.07033 1.2342 0.21875 1.9375 0.14842 0.70327 0.34268 1.4227 1 2 0.4635 0.40707 0.98839 0.52452 1.4375 0.5625s0.87977 0.02823 1.25 0.03125c0.74045 0.006 1.1915 0.05222 1.625 0.53125a1.014 1.014 0 0 0 0.032 0.031l9.5312 9.6562a1.014 1.014 0 0 0 0.032 0.032s0.20912 0.17467 0.28125 0.625 0.0303 1.1929-1.1875 2.4062c-1.2187 1.2142-1.9567 1.2589-2.4062 1.1875-0.451-0.072-0.626-0.281-0.626-0.281a1.014 1.014 0 0 0 -0.031 -0.032l-9.531-9.656a1.014 1.014 0 0 0 -0.032 -0.031c-0.482-0.433-0.55-0.915-0.562-1.657-0.006-0.37 0.01-0.77-0.032-1.218-0.041-0.449-0.154-0.977-0.562-1.438-0.58225-0.65811-1.2976-0.86019-2-1-0.70235-0.13981-1.41-0.16113-1.9375-0.1875a1.014 1.014 0 0 0 -0.625 0.15625c-5.6255 3.6579-13.206 2.9943-18.156-1.9375-5.6751-5.6543-5.6751-14.783 0-20.438 2.8386-2.8282 6.5306-4.25 10.25-4.25zm0.0625 3.1562c-3.1186 0-5.9685 1.1948-8.0312 3.25-2.0596 2.0521-3.3438 4.9327-3.3438 8.0625 0 6.2484 5.1126 11.313 11.375 11.312 6.2624 0 11.344-5.0678 11.344-11.312 0-6.2447-5.0814-11.312-11.344-11.312zm0 1c5.7165 0 10.344 4.617 10.344 10.312 0 5.6955-4.6273 10.312-10.344 10.312-5.7165 0.000002-10.375-4.617-10.375-10.312 0-2.8478 1.1881-5.4762 3.0625-7.3438s4.4543-2.9688 7.3125-2.9688z"/>
   <path id="path4637" style="opacity:.2;fill:#fff" d="m41.594 33.156c-2.8582 0-5.4381 1.1012-7.3125 2.9688s-3.0625 4.496-3.0625 7.3438c0 0.16755 0.02331 0.3344 0.03125 0.5 0.12677-2.6551 1.2671-5.0861 3.0312-6.8438 1.8744-1.8676 4.4543-2.9688 7.3125-2.9688 5.5483 0 10.051 4.3488 10.312 9.8125 0.0079-0.1656 0.03125-0.33245 0.03125-0.5 0-5.6955-4.6273-10.312-10.344-10.312zm15.438 10.75c-0.0733 2.797-0.87515 5.5671-2.4688 8 0.01284 0.25497 0.03163 0.56826 0.0625 0.875 1.7316-2.6968 2.5252-5.7893 2.4062-8.875zm-31 0.0625c-0.13461 4.1286 1.3705 8.2884 4.5312 11.438 5.2858 5.2664 13.415 5.9784 19.438 2.0625 1.0236 0.05117 2.6634 0.18076 3.25 0.84375 0.79867 0.90273-0.31296 3.0304 1.2188 4.4062l9.53 9.657s1.7476 1.8673 4.5-0.875c1.4215-1.4163 1.5938-2.5584 1.4375-3.3438-0.135 0.661-0.536 1.445-1.438 2.344-2.752 2.742-4.5 0.875-4.5 0.875l-9.531-9.656c-1.532-1.376-0.42-3.504-1.219-4.407-0.587-0.662-2.226-0.792-3.25-0.843-6.022 3.916-14.152 3.204-19.438-2.063-2.905-2.894-4.41-6.642-4.531-10.437z"/>
  </g>
 </g>
 <g id="layer5">
  <rect id="rect2942" style="stroke:#000;stroke-width:.2;fill:#0d6471" rx="2" height="16" width="16" y="8" x="104"/>
  <flowRoot id="flowRoot3716" xml:space="preserve" style="font-size:4px;line-height:125%;font-family:Liberation Sans;fill:#000000" transform="translate(136.36 .28238)"><flowRegion id="flowRegion3718"><rect id="rect3720" height="15.489" width="28.463" y="8.0485" x="-12.463"/></flowRegion><flowPara id="flowPara3722">Glow : 2</flowPara><flowPara id="flowPara3724">Opacity : 35%</flowPara><flowPara id="flowPara3774">Width : 1px</flowPara></flowRoot>
  <rect id="rect3726" style="stroke:#000;stroke-width:.2;fill:#fff" rx="2" height="16" width="16" y="28" x="104"/>
  <flowRoot id="flowRoot3728" xml:space="preserve" style="font-size:4px;line-height:125%;font-family:Liberation Sans;fill:#000000" transform="translate(136.36 20.282)"><flowRegion id="flowRegion3730"><rect id="rect3732" height="15.489" width="28.463" y="8.0485" x="-12.463"/></flowRegion><flowPara id="flowPara3734">Glow : 3</flowPara><flowPara id="flowPara3736">Opacity : 30%</flowPara><flowPara id="flowPara3776">Width : 1.5px</flowPara></flowRoot>
 </g>
</svg>
