<?xml version="1.0" encoding="UTF-8" standalone="no"?>
<!-- Created with Inkscape (http://www.inkscape.org/) -->
<svg id="svg2408" xmlns:rdf="http://www.w3.org/1999/02/22-rdf-syntax-ns#" xmlns="http://www.w3.org/2000/svg" height="96" width="96" version="1.0" xmlns:cc="http://creativecommons.org/ns#" xmlns:xlink="http://www.w3.org/1999/xlink" xmlns:dc="http://purl.org/dc/elements/1.1/">
 <defs id="defs2410">
  <linearGradient id="linearGradient3361" y2="85.821" gradientUnits="userSpaceOnUse" x2="48.036" gradientTransform="scale(1.0599 .94353)" y1="25.911" x1="48.036">
   <stop id="stop3319" style="stop-color:#c6953a" offset="0"/>
   <stop id="stop3321" style="stop-color:#ab7a1f" offset="1"/>
  </linearGradient>
  <linearGradient id="ButtonShadow" y2="7.0165" gradientUnits="userSpaceOnUse" x2="45.448" gradientTransform="matrix(1.0059 0 0 .99417 0 12)" y1="80.472" x1="45.448">
   <stop id="stop3750" offset="0"/>
   <stop id="stop3752" style="stop-opacity:.58824" offset="1"/>
  </linearGradient>
  <linearGradient id="linearGradient3706" y2="5.9877" gradientUnits="userSpaceOnUse" x2="48" gradientTransform="translate(0,8)" y1="78" x1="48">
   <stop id="stop3970" style="stop-color:#b0b0b0" offset="0"/>
   <stop id="stop3972" style="stop-color:#d7d7d7" offset="1"/>
  </linearGradient>
  <filter id="filter3174" color-interpolation-filters="sRGB">
   <feGaussianBlur id="feGaussianBlur3176" stdDeviation="1.71"/>
  </filter>
  <linearGradient id="linearGradient3664" y2="5.2972" xlink:href="#ButtonShadow" gradientUnits="userSpaceOnUse" x2="45.448" gradientTransform="matrix(1.0059 0 0 .99417 0 12)" y1="80.472" x1="45.448"/>
  <clipPath id="clipPath3860">
   <rect id="rect3862" style="fill:#f0f" rx="6" ry="6" height="72" width="84" y="18" x="6"/>
  </clipPath>
  <filter id="filter3870" height="1.3943" width="1.3312" color-interpolation-filters="sRGB" y="-.19716" x="-.16559">
   <feGaussianBlur id="feGaussianBlur3872" stdDeviation="5.1703125"/>
  </filter>
  <linearGradient id="linearGradient3123" y2="81.481" gradientUnits="userSpaceOnUse" x2="48.022" y1="22.933" x1="48.022">
   <stop id="stop3876" style="stop-color:#fff" offset="0"/>
   <stop id="stop3878" style="stop-color:#fff;stop-opacity:0" offset="1"/>
  </linearGradient>
  <linearGradient id="linearGradient3105" y2="26.987" gradientUnits="userSpaceOnUse" x2="34.86" gradientTransform="matrix(.72 0 0 .72 1.92 -5.52)" y1="16.275" x1="34.86">
   <stop id="stop3976" style="stop-color:#d2d2d2" offset="0"/>
   <stop id="stop3978" style="stop-color:#aaa" offset=".71692"/>
   <stop id="stop3980" style="stop-color:#808080" offset="1"/>
  </linearGradient>
  <linearGradient id="linearGradient3952" y2="7" xlink:href="#ButtonShadow" gradientUnits="userSpaceOnUse" x2="43" y1="91" x1="43"/>
  <linearGradient id="linearGradient3961" y2="7" xlink:href="#ButtonShadow" gradientUnits="userSpaceOnUse" x2="45" y1="92" x1="45"/>
  <radialGradient id="radialGradient2874" gradientUnits="userSpaceOnUse" cy="90.172" cx="48" gradientTransform="matrix(1.1573 0 0 .99591 -7.551 .19713)" r="42">
   <stop id="stop3739-0" style="stop-color:#fff" offset="0"/>
   <stop id="stop3741-4" style="stop-color:#fff;stop-opacity:0" offset="1"/>
  </radialGradient>
  <linearGradient id="linearGradient3938" y2="73.995" gradientUnits="userSpaceOnUse" x2="36.357" y1="16" x1="36.357">
   <stop id="stop3739" style="stop-color:#fff" offset="0"/>
   <stop id="stop3741" style="stop-color:#fff;stop-opacity:0" offset="1"/>
  </linearGradient>
  <linearGradient id="linearGradient2600-2" y2="96.025" gradientUnits="userSpaceOnUse" x2="45.5" gradientTransform="matrix(.70536 0 0 .70536 34.929 10.589)" y1=".48101" x1="45.5">
   <stop id="stop3950-6" style="stop-opacity:.56911" offset="0"/>
   <stop id="stop3952-2" style="stop-opacity:0" offset=".070175"/>
   <stop id="stop3954-8" style="stop-color:#3c3c3c;stop-opacity:.090196" offset=".20272"/>
   <stop id="stop3956-4" style="stop-color:#888;stop-opacity:.13725" offset=".26649"/>
   <stop id="stop3958-7" style="stop-color:#bbb;stop-opacity:.18431" offset=".35025"/>
   <stop id="stop3960-2" style="stop-color:#757575;stop-opacity:.13725" offset="0.439"/>
   <stop id="stop3962-4" style="stop-color:#383838;stop-opacity:.090196" offset=".49777"/>
   <stop id="stop3964-0" style="stop-color:#8a8a8a;stop-opacity:.19216" offset=".65896"/>
   <stop id="stop3966-6" style="stop-color:#292929;stop-opacity:.60976" offset="1"/>
  </linearGradient>
 </defs>
 <metadata id="metadata2413">
  <rdf:RDF>
   <cc:Work rdf:about="">
    <dc:format>image/svg+xml</dc:format>
    <dc:type rdf:resource="http://purl.org/dc/dcmitype/StillImage"/>
    <dc:title/>
   </cc:Work>
  </rdf:RDF>
 </metadata>
 <g id="layer2" style="display:none">
  <path id="rect3745" style="opacity:.9;filter:url(#filter3174);fill:url(#linearGradient3664)" d="m14.969 8.8029c-1.64 0-2.969 1.2821-2.969 2.8751v7.322c-3.324 0-7 2.676-7 6v61c0 3.324 2.676 6 6 6h74c3.324 0 6-2.676 6-6v-61c0-3.324-3.7474-6-7.0714-6v-0.13461c0-2.3891-1.9777-4.3125-4.4375-4.3125h-43.335l-1.4688-2.875c-0.734-1.424-1.329-2.8741-2.969-2.8741h-16.75z"/>
 </g>
 <g id="layer4">
  <path id="path3984" style="opacity:0.08;fill:url(#linearGradient3961)" d="m14.125 4c-4.4339 0-8.125 3.5684-8.125 8v2.1562c-2.3764 1.802-4 4.603-4 7.844v63c0 5.5036 4.4964 10 10 10h72c5.5036 0 10-4.4964 10-10v-63c0-3.483-1.853-6.453-4.531-8.219-0.987-3.289-3.943-5.781-7.594-5.781h-39.5c-1.403-1.3548-2.54-2.5096-3.687-3.1562-1.496-0.8424-2.931-0.8143-3.813-0.8438a0.9278 0.9278 0 0 0 -0.03125 0c-0.0012-0.0000173-0.03009-0.0000173-0.03125 0h-0.032-20.656z"/>
  <path id="path3975" style="opacity:.1;fill:url(#linearGradient3961)" d="m14.125 4.9375c-3.941 0-7.1875 3.1433-7.1875 7.0625v2.5938c-2.3826 1.6221-4 4.2939-4 7.4062v63c0 5.0014 4.0611 9.0625 9.0625 9.0625h72c5.0014 0 9.0625-4.0611 9.0625-9.0625v-63c0-3.2608-1.7732-6.0397-4.3438-7.625-0.76-3.096-3.477-5.4375-6.843-5.4375h-39.812c-1.598-1.5412-2.773-2.6775-3.844-3.2813-1.273-0.7172-2.448-0.6876-3.375-0.7187a1.0438 1.0438 0 0 0 -0.03125 0h-0.03125-20.656z"/>
  <path id="path3967" style="opacity:.2;fill:url(#linearGradient3961)" d="m14.125 5.9688c-3.389 0-6.1562 2.688-6.1562 6.0312v3.125c-2.3751 1.394-4 3.9205-4 6.875v63c0 4.4381 3.5931 8.0312 8.0312 8.0312h72c4.4381 0 8.0312-3.5931 8.0312-8.0312v-63c0-3.032-1.7122-5.6044-4.1875-6.9688-0.49189-2.8596-2.9286-5.0625-5.9688-5.0625h-40.188c-1.834-1.7751-3.008-2.8656-3.968-3.4065-1.038-0.5843-1.941-0.5614-2.907-0.5937a1.0438 1.0438 0 0 0 -0.03125 0h-20.656z"/>
  <path id="path3908-1" style="opacity:.3;fill:url(#linearGradient3961)" d="m14.125 7c-2.843 0-5.125 2.23-5.125 5v3.6875c-2.3641 1.121-4 3.512-4 6.312v63c0 3.878 3.122 7 7 7h72c3.878 0 7-3.122 7-7v-63c0-2.81-1.653-5.196-4.031-6.312-0.17-2.619-2.362-4.688-5.094-4.688h-40.594c-4.2205-4.1123-4.5028-3.9331-6.5-4h-20.656z"/>
  <path id="path3941" style="opacity:.45;fill:url(#linearGradient3952)" d="m15 7c-2.77 0-5 2.23-5 5v3.3438c-2.3335 0.821-4 3.035-4 5.656v64c0 3.324 2.676 6 6 6h72c3.324 0 6-2.676 6-6v-64c0-2.642-1.7-4.851-4.062-5.656-0.327-2.451-2.396-4.344-4.938-4.344h-40.531c-4.113-4.1123-4.367-3.9331-6.313-4h-19.156z"/>
 </g>
 <g id="layer3">
  <rect id="rect3352" style="fill:url(#linearGradient3361)" rx="6" ry="6" height="62.679" width="75" y="23.143" x="10.536"/>
  <path id="path3908" style="fill:url(#linearGradient3105)" d="m15 6c-2.77 0-5 2.23-5 5v59.812c0 2.3933 1.9192 4.3125 4.3125 4.3125h67.375c2.394 0.001 4.313-1.918 4.313-4.312v-55.812c0-2.77-2.23-5-5-5h-40.531c-4.113-4.1123-4.367-3.9331-6.313-4z"/>
  <path id="path3108" style="opacity:.2;fill:#fff" d="m15 6c-2.77 0-5 2.23-5 5v59.812c0 2.3933 1.9192 4.3125 4.3125 4.3125h67.375c2.394 0.001 4.313-1.918 4.313-4.312v-55.812c0-2.77-2.23-5-5-5h-40.531c-4.113-4.1123-4.367-3.9331-6.313-4h-19.156zm0 1.0312h19.125 0.03125c0.96498 0.031157 1.1925-0.016972 1.8125 0.34375 0.63029 0.36673 1.7068 1.3318 3.75 3.375a1.0438 1.0438 0 0 0 0.75 0.28125h40.531c2.2099 0 3.9688 1.7589 3.9688 3.9688v55.812c0 1.8353-1.4459 3.2812-3.2812 3.2812h-67.375c-1.8353 0-3.2812-1.4459-3.2812-3.2812v-59.812c0-2.2099 1.7589-3.9688 3.9688-3.9688z"/>
 </g>
 <g id="layer1">
  <rect id="rect2419" style="fill:url(#linearGradient3706)" rx="6" ry="6" height="76" width="84" y="14" x="6"/>
  <path id="rect3728" style="opacity:.35;fill:url(#linearGradient3938)" d="m12 14c-3.324 0-6 2.676-6 6v2 60 2c0 0.33472 0.04135 0.6507 0.09375 0.96875 0.0487 0.2956 0.09704 0.59692 0.1875 0.875 0.00988 0.03038 0.020892 0.0636 0.03125 0.09375 0.098865 0.28777 0.23488 0.54745 0.375 0.8125 0.14459 0.27351 0.31562 0.53562 0.5 0.78125 0.18438 0.24564 0.37378 0.47347 0.59375 0.6875 0.43995 0.42806 0.94291 0.81453 1.5 1.0938 0.27854 0.13961 0.57347 0.24695 0.875 0.34375-0.2562-0.10022-0.48671-0.23627-0.71875-0.375-0.00741-0.0044-0.023866 0.0045-0.03125 0-0.031933-0.0193-0.062293-0.04251-0.09375-0.0625-0.1204-0.0767-0.23102-0.16351-0.34375-0.25-0.10617-0.0808-0.21328-0.16111-0.3125-0.25-0.1778-0.162-0.3473-0.346-0.4999-0.531-0.1075-0.131-0.2183-0.266-0.3124-0.407-0.0251-0.038-0.0385-0.086-0.0626-0.125-0.0647-0.103-0.1302-0.204-0.1874-0.312-0.1011-0.195-0.2057-0.416-0.2813-0.625-0.008-0.022-0.0236-0.041-0.0313-0.063-0.0318-0.092-0.0358-0.187-0.0624-0.281-0.0304-0.107-0.0704-0.203-0.0938-0.313-0.0729-0.341-0.125-0.698-0.125-1.062v-2-60-2c0-2.7818 2.2182-5 5-5h2 68 2c2.7818 0 5 2.2182 5 5v2 60 2c0 0.3643-0.05212 0.72099-0.125 1.0625-0.04415 0.20689-0.08838 0.39766-0.15625 0.59375-0.0077 0.02195-0.0233 0.04069-0.03125 0.0625-0.06274 0.17374-0.13838 0.36745-0.21875 0.53125-0.04158 0.0828-0.07904 0.16995-0.125 0.25-0.0546 0.09721-0.12677 0.18835-0.1875 0.28125-0.09411 0.14096-0.20492 0.276-0.3125 0.40625-0.14317 0.17445-0.30314 0.347-0.46875 0.5-0.01117 0.0102-0.01998 0.02115-0.03125 0.03125-0.13839 0.12556-0.28509 0.23444-0.4375 0.34375-0.10257 0.07315-0.20432 0.15336-0.3125 0.21875-0.0074 0.0045-0.02384-0.0044-0.03125 0-0.23204 0.13873-0.46255 0.27478-0.71875 0.375 0.30153-0.0968 0.59646-0.20414 0.875-0.34375 0.55709-0.27922 1.0601-0.66569 1.5-1.0938 0.21997-0.21403 0.40937-0.44186 0.59375-0.6875s0.35541-0.50774 0.5-0.78125c0.14012-0.26505 0.27614-0.52473 0.375-0.8125 0.01041-0.03078 0.02133-0.06274 0.03125-0.09375 0.09046-0.27808 0.1388-0.5794 0.1875-0.875 0.053-0.318 0.094-0.634 0.094-0.969v-2-60-2c0-3.324-2.676-6-6-6z"/>
  <path id="path3615" style="opacity:.2;fill:url(#radialGradient2874)" d="m12 90c-3.324 0-6-2.676-6-6v-2-56-2c0-0.33472 0.04135-0.6507 0.09375-0.96875 0.0487-0.2956 0.09704-0.59692 0.1875-0.875 0.00988-0.03038 0.020892-0.0636 0.03125-0.09375 0.098865-0.28777 0.23488-0.54745 0.375-0.8125 0.14459-0.27351 0.31562-0.53562 0.5-0.78125 0.18438-0.24564 0.37378-0.47347 0.59375-0.6875 0.43995-0.42806 0.94291-0.81453 1.5-1.0938 0.27854-0.13961 0.57347-0.24695 0.875-0.34375-0.2562 0.10022-0.48671 0.23627-0.71875 0.375-0.00741 0.0044-0.023866-0.0045-0.03125 0-0.031933 0.0193-0.062293 0.04251-0.09375 0.0625-0.1204 0.0767-0.23102 0.16351-0.34375 0.25-0.10617 0.0808-0.21328 0.16111-0.3125 0.25-0.17793 0.16143-0.34746 0.34539-0.5 0.53125-0.10758 0.13026-0.21839 0.26528-0.3125 0.40625-0.025089 0.03838-0.038446 0.08587-0.0625 0.125-0.064763 0.10303-0.13023 0.20452-0.1875 0.3125-0.10101 0.19471-0.20567 0.4157-0.28125 0.625-0.0079 0.022-0.0235 0.041-0.0312 0.063-0.0318 0.092-0.0358 0.187-0.0624 0.281-0.0304 0.107-0.0704 0.203-0.0938 0.313-0.0729 0.341-0.125 0.698-0.125 1.062v2 56 2c0 2.7818 2.2182 5 5 5h2 68 2c2.7818 0 5-2.2182 5-5v-2-56-2c0-0.3643-0.05212-0.72099-0.125-1.0625-0.04415-0.20689-0.08838-0.39766-0.15625-0.59375-0.0077-0.02195-0.0233-0.04069-0.03125-0.0625-0.06274-0.17374-0.13838-0.36745-0.21875-0.53125-0.04158-0.0828-0.07904-0.16995-0.125-0.25-0.0546-0.09721-0.12677-0.18835-0.1875-0.28125-0.09411-0.14096-0.20492-0.276-0.3125-0.40625-0.14317-0.17445-0.30314-0.347-0.46875-0.5-0.01117-0.0102-0.01998-0.02115-0.03125-0.03125-0.13839-0.12556-0.28509-0.23444-0.4375-0.34375-0.10257-0.07315-0.20432-0.15336-0.3125-0.21875-0.0074-0.0045-0.02384 0.0044-0.03125 0-0.23204-0.13873-0.46255-0.27478-0.71875-0.375 0.30153 0.0968 0.59646 0.20414 0.875 0.34375 0.55709 0.27922 1.0601 0.66569 1.5 1.0938 0.21997 0.21403 0.40937 0.44186 0.59375 0.6875s0.35541 0.50774 0.5 0.78125c0.14012 0.26505 0.27614 0.52473 0.375 0.8125 0.01041 0.03078 0.02133 0.06274 0.03125 0.09375 0.09046 0.27808 0.1388 0.5794 0.1875 0.875 0.053 0.318 0.094 0.634 0.094 0.969v2 56 2c0 3.324-2.676 6-6 6h-72z"/>
 </g>
 <g id="layer5">
  <path id="path3850" style="opacity:.15;filter:url(#filter3870);fill:url(#linearGradient3123)" clip-path="url(#clipPath3860)" d="m15.969 22.531c-2.8459 0.0043-5.4332 2.5916-5.4375 5.4375v48.062c0.0043 2.8459 2.5916 5.4332 5.4375 5.4375h64.062c2.8459-0.0043 5.4332-2.5916 5.4375-5.4375v-48.062c-0.0043-2.8459-2.5916-5.4332-5.4375-5.4375z"/>
 </g>
 <g id="layer6">
  <path id="path3859" style="opacity:.05" d="m77.781 9.9688c-0.27-0.0104-0.558-0.0048-0.875 0.0312-0.04514 0.0051-0.07898-0.0068-0.125 0h-22.875a0.94004 0.94004 0 0 0 -0.156 0c-0.08984 0.01423-0.12037 0.04227-0.1875 0.0625h-0.5625c-2.1665 0-3.9375 1.771-3.9375 3.9375v0.03125a0.94004 0.94004 0 0 0 0.938 0.938h2.8125c0.24908 0.17452 0.44152 0.29886 0.59375 0.34375v63.719c-0.0411 2.6092 3.7251 3.5639 5 1.3438l0.032 0.03 0.062-0.094 9.594-13.562c3.3569 4.7015 6.6574 9.469 10.094 14.125a0.94004 0.94004 0 0 0 0.093 0.125c1.7482 1.7023 4.7508 0.02545 4.5-2.3125h0.03125c-0.000033-0.05208 0.000033-0.10417 0-0.15625-0.01346-21.374 0.01674-42.749-0.03125-64.125a0.94004 0.94004 0 0 0 0 -0.0625c-0.20656-2.661-2.6284-4.2841-5-4.375zm-24.781 1.0312h0.969 23.031c1.662 0 3 1.338 3 3v0.03125l0.0625 50.156v12 2.125l-11.969-16.938-12 16.938v-14.125-45.188l-0.094 0.001v-4.9688h-6v-0.031c0-1.662 1.338-3 3-3z"/>
  <path id="path3850-2" style="opacity:.1" d="m77.75 10.906c-0.28353-0.01087-0.56372-0.01023-0.84375 0.03125h-23c-0.088 0.014-0.146 0.037-0.218 0.063h0.28125 22 1.031c1.662 0 3 1.338 3 3l0.0625 50.188v12 2.125l-11.969-16.938-12 16.938v-14.125-45.188h-0.094v-5c0-1.4759-1.0686-2.6827-2.4688-2.9375-0.01026-0.0019-0.02095 0.0018-0.03125 0-0.79056 0.46336-0.42352 1.8146-0.46875 2.625 0.05117 1.0014 1.6314 0.54264 1.3125 1.5938v63.75c-0.02695 1.7111 2.5317 2.3675 3.3125 0.84375l10.438-14.75c3.626 5.0498 7.1628 10.2 10.844 15.188 1.1503 1.1201 3.2085-0.07211 2.9375-1.625-0.01371-21.427 0.01685-42.855-0.03125-64.281-0.16467-2.1214-2.109-3.4239-4.0938-3.5z"/>
  <path id="path3846" style="opacity:.15" d="m54 11.938v1.562c0.76467 0 1.3438 0.56165 1.3438 1.3125v50.094 14.094a0.77798 0.77798 0 0 0 1.406 0.438l11.344-16.032 11.375 16.032a0.77798 0.77798 0 0 0 1.406 -0.438v-2.0938-12-50.094c0-1.0203-0.538-1.8963-1.3438-2.4062 0.291 0.462 0.469 1.005 0.469 1.594l0.0625 50.188v12 2.125l-11.969-16.938-12 16.938v-14.125-45.188h-0.094v-5c0-0.79923-0.30644-1.5259-0.8125-2.0625h-1.1875z"/>
  <path id="path3202" style="opacity:.3" d="m54 12.719c0.94735 0 1.7286 0.61356 2 1.4688v-0.188c0-0.46494-0.12528-0.88922-0.3125-1.2812h-1.6875zm26 1.5 0.0625 49.969v12 2.125l-11.968-16.938-11.969 16.906v0.719l11.969-16.906 12 16.906v-2.0938-12-50.094c0-0.21466-0.03485-0.39881-0.09375-0.59375z"/>
  <path id="rect3204" style="fill:#646464" d="m53 11c1.662 0 3 1.338 3 3v5h0.09375v45.188 14.125l12-16.938 11.969 16.938v-2.125-12l-0.063-50.188c0-1.662-1.338-3-3-3h-1.0312-22-0.969z"/>
  <path id="path3173" style="fill:#828282" d="m54.875 11c1.172 0 3.125 0.283 3.125 2.125v58.469l10.094-13.594 9.875 13.594v-58.469c0-1.172-0.953-2.125-2.125-2.125h-1.969c1.172 0 2.125 0.953 2.125 2.125v52.562l-7.9062-11.312-8.1562 11.312v-52.562c0-1.976-1.953-2.125-3.126-2.125h-1.9375z"/>
  <path id="rect3196" style="fill:#323232" d="m53 11c-1.662 0-3 1.338-3 3v0.03125h6v-0.031c0-1.662-1.338-3-3-3z"/>
  <path id="path3177" style="fill:url(#linearGradient2600-2)" d="m53 11c1.662 0 3 1.338 3 3v5h0.0937v45.188 14.125l12-16.938 11.969 16.938v-2.125-12l-0.063-50.188c0-1.596-1.243-2.868-2.812-2.969-0.068-0.019-0.124-0.028-0.188-0.031h-23.031-0.969z"/>
 </g>
</svg>
