<?xml version="1.0" encoding="UTF-8" standalone="no"?>
<!-- Created with Inkscape (http://www.inkscape.org/) -->
<svg id="svg2408" xmlns="http://www.w3.org/2000/svg" height="96" width="96" version="1.2" xmlns:xlink="http://www.w3.org/1999/xlink">
 <defs id="defs2410">
  <linearGradient id="linearGradient3737">
   <stop id="stop3739" style="stop-color:#fff" offset="0"/>
   <stop id="stop3741" style="stop-color:#fff;stop-opacity:0" offset="1"/>
  </linearGradient>
  <filter id="filter3174" color-interpolation-filters="sRGB">
   <feGaussianBlur id="feGaussianBlur3176" stdDeviation="1.71"/>
  </filter>
  <linearGradient id="linearGradient3188" y2="73.995" xlink:href="#linearGradient3737" gradientUnits="userSpaceOnUse" x2="36.357" y1="18" x1="36.357"/>
  <linearGradient id="linearGradient4010" y2="58.466" xlink:href="#linearGradient3737" gradientUnits="userSpaceOnUse" x2="23.607" y1="6" x1="23.607"/>
  <linearGradient id="linearGradient4018" y2="5.2972" gradientUnits="userSpaceOnUse" x2="45.448" gradientTransform="matrix(1.0059 0 0 .99417 0 12)" y1="80.472" x1="45.448">
   <stop id="stop3750" offset="0"/>
   <stop id="stop3752" style="stop-opacity:.58824" offset="1"/>
  </linearGradient>
  <linearGradient id="linearGradient4023" y2="32.013" gradientUnits="userSpaceOnUse" x2="34.86" gradientTransform="matrix(.72 0 0 .72 1.92 -5.52)" y1="17.736" x1="34.86">
   <stop id="stop3350" style="stop-color:#95c070" offset="0"/>
   <stop id="stop3356" style="stop-color:#52802d" offset=".71692"/>
   <stop id="stop3352" style="stop-color:#52802d" offset="1"/>
  </linearGradient>
  <linearGradient id="linearGradient3312" y2="5.9877" gradientUnits="userSpaceOnUse" x2="48" gradientTransform="translate(0,12)" y1="78" x1="48">
   <stop id="stop3189" style="stop-color:#52802d" offset="0"/>
   <stop id="stop3191" style="stop-color:#95c070" offset="1"/>
  </linearGradient>
  <radialGradient id="radialGradient3662" gradientUnits="userSpaceOnUse" cy="90.172" cx="48" gradientTransform="matrix(1.1573 0 0 .99591 -7.551 .19713)" r="42">
   <stop id="stop3739-0" style="stop-color:#fff" offset="0"/>
   <stop id="stop3741-4" style="stop-color:#fff;stop-opacity:0" offset="1"/>
  </radialGradient>
  <linearGradient id="linearGradient3810" y2="32.185" gradientUnits="userSpaceOnUse" x2="45.765" gradientTransform="matrix(1.0742 0 0 1.0741 -3.2634 -4.1046)" y1="75.815" x1="45.765">
   <stop id="stop3692" style="stop-color:#52802d" offset="0"/>
   <stop id="stop3694" style="stop-color:#52802d;stop-opacity:.47059" offset="1"/>
  </linearGradient>
  <clipPath id="clipPath3818">
   <path id="path3820" style="opacity:.8;fill:#ff2a2a" d="m57.184 32c-2.4614 0-4.4545 1.9951-4.4545 4.4545 0 2.4595 1.9931 4.4545 4.4545 4.4545s4.4545-1.9951 4.4545-4.4545c0-2.459-1.993-4.454-4.454-4.454zm-9.4074 3.4888c-2.7471 0.000356-5.5323 0.69368-8.0368 1.9313-0.08906 0.04418-0.14461 0.12258-0.17133 0.21805-0.02708 0.09548-0.02158 0.19628 0.03115 0.28035l3.6135 5.7161c0.09156 0.14535 0.27757 0.2068 0.43611 0.14018 1.3374-0.56538 2.7252-0.84106 4.1274-0.84106 5.1579 0 9.6578 3.8221 10.467 8.8935 0.02707 0.17029 0.17058 0.29593 0.34266 0.29593h6.7908c0.09904 0 0.19816-0.03564 0.26478-0.10903s0.10271-0.16574 0.09345-0.26478c-0.36623-3.7628-1.9749-7.406-4.5168-10.233-0.11472-0.12825-0.30668-0.14042-0.45168-0.04673-1.025 0.66193-2.1879 1.0124-3.3642 1.0124-3.4318 0-6.2142-2.7881-6.2145-6.1989 0.000356-0.0018 0-0.1189 0-0.1246 0-0.16994-0.12742-0.32902-0.29593-0.35823-1.075-0.187-2.116-0.312-3.117-0.312zm-10.903 3.7381c-0.04702 0.01153-0.10152 0.0322-0.14018 0.0623-2.9456 2.2687-5.1545 5.4592-6.2301 8.9869-0.04204 0.13787-0.0046 0.28403 0.10903 0.37381 1.4803 1.1724 2.3674 2.9772 2.3674 4.8283s-0.88682 3.6559-2.3674 4.8283c-0.11293 0.08942-0.15107 0.23558-0.10903 0.3738 1.067 3.4981 3.2586 6.6765 6.1678 8.9402 0.07802 0.06092 0.16716 0.09498 0.26478 0.07788 0.09726-0.01675 0.18055-0.08832 0.23363-0.17133l3.6446-5.7005c0.09298-0.14571 0.06773-0.33732-0.0623-0.45168-2.2833-2.0089-3.5979-4.8895-3.5979-7.8966 0-3.0296 1.3219-5.9181 3.629-7.9278 0.13004-0.11365 0.17015-0.30526 0.07788-0.45168l-3.6135-5.7161c-0.05273-0.08337-0.13637-0.13865-0.23363-0.15575-0.04863-0.0086-0.09315-0.01153-0.14018 0zm-10.046 9.7812c-2.5191 0-4.5635 2.0462-4.5635 4.5635s2.0445 4.548 4.5635 4.548c2.5191 0 4.5635-2.0307 4.5635-4.548s-2.0445-4.5635-4.5635-4.5635zm38.549 5.8874-6.7908 0.01557c-0.17136 0.000357-0.3308 0.12706-0.35823 0.29593-0.81975 5.0336-5.3073 8.8312-10.451 8.8312-1.4186 0-2.8218-0.29294-4.1742-0.87221-0.15818-0.06733-0.34312-0.01968-0.43611 0.1246l-3.6446 5.7161c-0.05308 0.08372-0.05752 0.18452-0.03115 0.28035 0.02636 0.09548 0.08262 0.17388 0.17133 0.21805 2.5241 1.2637 5.3359 1.9313 8.1147 1.9313 1.0307 0 2.1067-0.10319 3.1929-0.29593 0.15248-0.02672 0.26218-0.14238 0.28035-0.29593 0.36196-3.1262 3.0057-5.4825 6.1522-5.4825 0.97544 0 1.9794 0.2462 2.8814 0.71646 0.13716 0.07161 0.2963 0.04849 0.40496-0.0623 2.8447-2.901 4.6431-6.7258 5.0464-10.747 0.01-0.09869-0.02647-0.19103-0.09345-0.26478s-0.16574-0.10938-0.26478-0.10903zm-8.0212 12.04c-2.5191 0-4.5635 2.0281-4.5635 4.5324s2.0445 4.5324 4.5635 4.5324c2.5191 0 4.5635-2.0281 4.5635-4.5324s-2.0445-4.5324-4.5635-4.5324z"/>
  </clipPath>
  <filter id="filter3822" color-interpolation-filters="sRGB">
   <feGaussianBlur id="feGaussianBlur3824" stdDeviation="0.43736038"/>
  </filter>
  <clipPath id="clipPath3835">
   <path id="path3837" style="opacity:.9;fill:#ff2a2a" d="m12.031 80.688c-0.554 0-1 0.446-1 1v63.531c0 0.554 0.446 1 1 1h67.094c0.554 0 1-0.446 1-1v-63.531c0-0.554-0.446-1-1-1h-67.094zm45.157 11.312c2.4614 0 4.4375 2.0093 4.4375 4.4688s-1.9761 4.4375-4.4375 4.4375-4.4688-1.978-4.4688-4.4375c0-2.46 2.007-4.469 4.469-4.469zm-9.4062 3.5c1.0004 0 2.0519 0.12651 3.125 0.3125 0.16851 0.02921 0.28125 0.17381 0.28125 0.34375 0 0.0057 0.000356 0.1232 0 0.125 0.000356 3.4108 2.7869 6.1875 6.2188 6.1875 1.1764 0 2.35-0.33807 3.375-1 0.145-0.0937 0.32278-0.0657 0.4375 0.0625 2.5419 2.8269 4.165 6.4559 4.5312 10.219 0.0093 0.099-0.02713 0.1766-0.09375 0.25s-0.18221 0.125-0.28125 0.125h-6.7812c-0.17207 0-0.31668-0.14221-0.34375-0.3125-0.80871-5.0714-5.3108-8.875-10.469-8.875-1.4022 0-2.7876 0.27836-4.125 0.84375-0.15854 0.0666-0.34594-0.0109-0.4375-0.15625l-3.625-5.7188c-0.053-0.079-0.059-0.181-0.032-0.276s0.099-0.175 0.188-0.219c2.505-1.237 5.284-1.906 8.031-1.906zm-10.907 3.719c0.04703-0.01153 0.07637-0.0086 0.125 0 0.09726 0.0171 0.19727 0.07288 0.25 0.15625l3.625 5.7188c0.09227 0.14643 0.03628 0.35511-0.09375 0.46875-2.3071 2.0097-3.625 4.8766-3.625 7.9062 0 3.0072 1.3105 5.8973 3.5938 7.9062 0.13003 0.11436 0.15548 0.29179 0.0625 0.4375l-3.6562 5.7188c-0.05308 0.083-0.12149 0.13945-0.21875 0.15625-0.09761 0.0171-0.20323-0.002-0.28125-0.0625-2.9092-2.2637-5.0893-5.4394-6.1562-8.9375-0.04204-0.13823 0.01207-0.2856 0.125-0.375 1.4806-1.1724 2.3438-2.9926 2.3438-4.8438 0-1.8511-0.86349-3.64-2.3438-4.8125-0.11363-0.0898-0.16704-0.23712-0.125-0.375 1.0755-3.5277 3.2732-6.7313 6.2188-9 0.03865-0.0301 0.10923-0.05097 0.15625-0.0625zm-10.063 9.781c2.5191 0 4.5938 2.0452 4.5938 4.5625s-2.0747 4.5625-4.5938 4.5625-4.5625-2.0452-4.5625-4.5625 2.0434-4.5625 4.5625-4.5625zm31.781 5.9062h6.7812c0.09904-0.00035 0.21427 0.02 0.28125 0.0937s0.10375 0.18255 0.09375 0.28125c-0.40328 4.0211-2.2178 7.849-5.0625 10.75-0.10866 0.1108-0.26909 0.1341-0.40625 0.0625-0.90205-0.47026-1.8996-0.71875-2.875-0.71875-3.1465 0-5.7943 2.3426-6.1562 5.4688-0.01817 0.15354-0.12877 0.25455-0.28125 0.28125-1.0862 0.19273-2.1568 0.3125-3.1875 0.3125-2.7788 0-5.6009-0.67385-8.125-1.9375-0.08871-0.0442-0.12989-0.12325-0.15625-0.21875-0.02637-0.0958-0.02183-0.19755 0.03125-0.28125l3.625-5.7188c0.09298-0.1443 0.27932-0.1923 0.4375-0.125 1.3524 0.57928 2.7689 0.875 4.1875 0.875 5.1437 0 9.6177-3.7789 10.438-8.8125 0.02743-0.16886 0.20364-0.31214 0.375-0.3125zm-1.25 12.031c2.5191 0 4.5625 2.0269 4.5625 4.5312s-2.0434 4.5312-4.5625 4.5312-4.5625-2.0269-4.5625-4.5312 2.0434-4.5312 4.5625-4.5312z"/>
  </clipPath>
  <filter id="filter3839" color-interpolation-filters="sRGB">
   <feGaussianBlur id="feGaussianBlur3841" stdDeviation="0.65604057"/>
  </filter>
  <linearGradient id="linearGradient3671" y2="6.9171" xlink:href="#ButtonShadow-8" gradientUnits="userSpaceOnUse" x2="26.5" y1="90.313" x1="26.5"/>
  <linearGradient id="ButtonShadow-8" y2="7.0165" gradientUnits="userSpaceOnUse" x2="45.448" gradientTransform="matrix(1.0059 0 0 .99417 0 12)" y1="80.472" x1="45.448">
   <stop id="stop3750-3" offset="0"/>
   <stop id="stop3752-4" style="stop-opacity:.58824" offset="1"/>
  </linearGradient>
  <linearGradient id="linearGradient3692" y2="6.9171" xlink:href="#ButtonShadow-8" gradientUnits="userSpaceOnUse" x2="26.5" gradientTransform="matrix(1.0278 0 0 1.0127 -1.3333 .030880)" y1="90.313" x1="26.5"/>
  <linearGradient id="linearGradient3701" y2="6.9171" xlink:href="#ButtonShadow-8" gradientUnits="userSpaceOnUse" x2="26.5" gradientTransform="matrix(1.0278 0 0 1.0127 -1.3333 .030880)" y1="90.313" x1="26.5"/>
 </defs>
 <g id="layer2" style="display:none">
  <path id="rect3745" style="opacity:.9;filter:url(#filter3174);fill:url(#linearGradient4018)" d="m14.969 8.8029c-1.64 0-2.969 1.2821-2.969 2.8751v7.322c-3.324 0-7 2.676-7 6v61c0 3.324 2.676 6 6 6h74c3.324 0 6-2.676 6-6v-61c0-3.324-3.7474-6-7.0714-6v-0.13461c0-2.3891-1.9777-4.3125-4.4375-4.3125h-43.335l-1.4688-2.875c-0.734-1.424-1.329-2.8741-2.969-2.8741h-16.75z"/>
 </g>
 <g id="layer4">
  <path id="path3715" style="opacity:0.08;fill:url(#linearGradient3701)" d="m13.969 4c-3.301 0-6.094 2.6931-6.094 6.031v7.0625c-3.4361 1.5607-6 4.8407-6 8.9062v59c0 5.5613 4.5637 10.125 10.125 10.125h72c5.5613 0 10.125-4.5637 10.125-10.125v-59c0-4.0908-2.5938-7.3894-6.0625-8.9375-0.16038-3.9934-3.4736-7.2188-7.5-7.2188h-42.5l-0.625-1.219c-0.303-0.596-0.703-1.5848-1.5-2.5625-0.904-1.1067-2.384-2.0625-4.219-2.0625h-17.75z" transform="matrix(.99729 0 0 .99863 .13008 .0054870)"/>
  <path id="path3707" style="opacity:.1;fill:url(#linearGradient3701)" d="m13.969 4.9688c-2.7832 0-5.125 2.2573-5.125 5.0625v7.3125 0.3125c-3.4369 1.2903-6 4.4397-6 8.3438v59c0 5.0399 4.1163 9.1562 9.1562 9.1562h72c5.0399 0 9.1562-4.1163 9.1562-9.1562v-59c0-3.904-2.5631-7.0534-6-8.3438v-0.3125c0-3.6027-2.9854-6.5312-6.5938-6.5312h-43.094l-0.875-1.75c-0.329-0.651-0.709-1.5531-1.405-2.4068-0.751-0.9189-1.959-1.6874-3.469-1.6874h-17.75z" transform="matrix(.99654 0 0 .99790 .16609 .041696)"/>
  <path id="path3698" style="opacity:.2;fill:url(#linearGradient3701)" d="m13.969 6c-2.232 0-4.094 1.7965-4.094 4.031v7.3125 0.96875c-3.4279 0.95094-6 3.9595-6 7.6875v59c0 4.4838 3.6412 8.125 8.125 8.125h72c4.4838 0 8.125-3.6412 8.125-8.125v-59c0-3.728-2.5721-6.7366-6-7.6875v-0.96875c0-3.0378-2.5058-5.5-5.5625-5.5h-43.719l-1.1562-2.3125c-0.353-0.695-0.699-1.505-1.281-2.218s-1.532-1.3125-2.687-1.3125h-17.75z" transform="matrix(.99717 0 0 .99857 .13598 .0086083)"/>
  <path id="path3679" style="opacity:.3;fill:url(#linearGradient3692)" d="m13.969 7.125c-1.64 0-2.969 1.2904-2.969 2.906v7.3125 1.75c-3.3973 0.485-6 3.37-6 6.906v59c0 3.878 3.122 7 7 7h72c3.878 0 7-3.122 7-7v-59c0-3.5358-2.6027-6.4206-6-6.9062v-1.75c0-2.4238-1.9777-4.375-4.4375-4.375h-44.406l-1.4688-2.9375c-0.733-1.446-1.328-2.907-2.968-2.907h-17.75z"/>
  <path id="path2885" style="opacity:.45;fill:url(#linearGradient3671)" d="m14.875 7c-1.596 0-2.875 1.2795-2.875 2.875v7.219 1.906c-3.324 0-6 2.676-6 6v60c0 3.324 2.676 6 6 6h72c3.324 0 6-2.676 6-6v-60c0-3.324-2.676-6-6-6v-1.9062c0-2.394-1.919-4.344-4.312-4.344h-43.219l-1.4375-2.875c-0.714-1.4271-1.28-2.875-2.876-2.875h-17.281z"/>
 </g>
 <g id="layer3">
  <path id="rect3325" style="fill:url(#linearGradient4023)" d="m14.88 6c-1.596 0-2.88 1.2845-2.88 2.88v7.2 50.4 4.32c0 2.3933 1.9267 4.32 4.32 4.32h63.36c2.3933 0 4.32-1.9267 4.32-4.32v-54.72c0-2.3933-1.9267-4.32-4.32-4.32h-43.2l-1.44-2.88c-0.714-1.4271-1.284-2.88-2.88-2.88h-17.28z"/>
  <path id="path3997" style="opacity:.3;fill:url(#linearGradient4010)" d="m14.875 6c-1.596 0-2.875 1.2795-2.875 2.875v7.2188 50.375 4.3438c0 2.3933 1.9192 4.3125 4.3125 4.3125h63.375c2.394-0.001 4.313-1.92 4.313-4.314v-54.718c0-2.394-1.919-4.344-4.312-4.344h-43.219l-1.4375-2.875c-0.714-1.4271-1.28-2.875-2.876-2.875h-17.281zm0 1.9375h17.281c0.48716 0 0.66045 0.11267 0.96875 0.5s0.62967 1.0718 1 1.8125l1.4375 2.875c0.17338 0.34199 0.52284 0.55889 0.90625 0.5625h43.219c1.8354 0 3.2812 1.4682 3.2812 3.3125v54.719c0 1.8443-1.4369 3.2812-3.2812 3.2812h-63.375c-1.8443 0-3.2812-1.4369-3.2812-3.2812v-4.3438-50.375-7.2188c0-1.0466 0.79716-1.8438 1.8438-1.8438z"/>
 </g>
 <g id="layer1">
  <path id="rect2419" style="fill:url(#linearGradient3312)" d="m12 18c-3.324 0-6 2.676-6 6v60c0 3.324 2.676 6 6 6h72c3.324 0 6-2.676 6-6v-60c0-3.324-2.676-6-6-6h-72z"/>
  <path id="rect3728" style="opacity:.5;fill:url(#linearGradient3188)" d="m12 18c-3.324 0-6 2.676-6 6v2 56 2c0 0.33472 0.04135 0.6507 0.09375 0.96875 0.0487 0.2956 0.09704 0.59692 0.1875 0.875 0.00988 0.03038 0.020892 0.0636 0.03125 0.09375 0.098865 0.28777 0.23488 0.54745 0.375 0.8125 0.14459 0.27351 0.31562 0.53562 0.5 0.78125 0.18438 0.24564 0.37378 0.47347 0.59375 0.6875 0.43995 0.42806 0.94291 0.81453 1.5 1.0938 0.27854 0.13961 0.57347 0.24695 0.875 0.34375-0.2562-0.10022-0.48671-0.23627-0.71875-0.375-0.00741-0.0044-0.023866 0.0045-0.03125 0-0.031933-0.0193-0.062293-0.04251-0.09375-0.0625-0.1204-0.0767-0.23102-0.16351-0.34375-0.25-0.10617-0.0808-0.21328-0.16111-0.3125-0.25-0.1778-0.162-0.3473-0.346-0.4999-0.531-0.1075-0.131-0.2183-0.266-0.3124-0.407-0.0251-0.038-0.0385-0.086-0.0626-0.125-0.0647-0.103-0.1302-0.204-0.1874-0.312-0.1011-0.195-0.2057-0.416-0.2813-0.625-0.008-0.022-0.0236-0.041-0.0313-0.063-0.0318-0.092-0.0358-0.187-0.0624-0.281-0.0304-0.107-0.0704-0.203-0.0938-0.313-0.0729-0.341-0.125-0.698-0.125-1.062v-2-56-2c0-2.7818 2.2182-5 5-5h2 68 2c2.7818 0 5 2.2182 5 5v2 56 2c0 0.3643-0.05212 0.72099-0.125 1.0625-0.04415 0.20689-0.08838 0.39766-0.15625 0.59375-0.0077 0.02195-0.0233 0.04069-0.03125 0.0625-0.06274 0.17374-0.13838 0.36745-0.21875 0.53125-0.04158 0.0828-0.07904 0.16995-0.125 0.25-0.0546 0.09721-0.12677 0.18835-0.1875 0.28125-0.09411 0.14096-0.20492 0.276-0.3125 0.40625-0.14317 0.17445-0.30314 0.347-0.46875 0.5-0.01117 0.0102-0.01998 0.02115-0.03125 0.03125-0.13839 0.12556-0.28509 0.23444-0.4375 0.34375-0.10257 0.07315-0.20432 0.15336-0.3125 0.21875-0.0074 0.0045-0.02384-0.0044-0.03125 0-0.23204 0.13873-0.46255 0.27478-0.71875 0.375 0.30153-0.0968 0.59646-0.20414 0.875-0.34375 0.55709-0.27922 1.0601-0.66569 1.5-1.0938 0.21997-0.21403 0.40937-0.44186 0.59375-0.6875s0.35541-0.50774 0.5-0.78125c0.14012-0.26505 0.27614-0.52473 0.375-0.8125 0.01041-0.03078 0.02133-0.06274 0.03125-0.09375 0.09046-0.27808 0.1388-0.5794 0.1875-0.875 0.053-0.318 0.094-0.634 0.094-0.969v-2-56-2c0-3.324-2.676-6-6-6h-72z"/>
  <path id="path3615" style="opacity:.2;fill:url(#radialGradient3662)" d="m12 90c-3.324 0-6-2.676-6-6v-2-56-2c0-0.33472 0.04135-0.6507 0.09375-0.96875 0.0487-0.2956 0.09704-0.59692 0.1875-0.875 0.00988-0.03038 0.020892-0.0636 0.03125-0.09375 0.098865-0.28777 0.23488-0.54745 0.375-0.8125 0.14459-0.27351 0.31562-0.53562 0.5-0.78125 0.18438-0.24564 0.37378-0.47347 0.59375-0.6875 0.43995-0.42806 0.94291-0.81453 1.5-1.0938 0.27854-0.13961 0.57347-0.24695 0.875-0.34375-0.2562 0.10022-0.48671 0.23627-0.71875 0.375-0.00741 0.0044-0.023866-0.0045-0.03125 0-0.031933 0.0193-0.062293 0.04251-0.09375 0.0625-0.1204 0.0767-0.23102 0.16351-0.34375 0.25-0.10617 0.0808-0.21328 0.16111-0.3125 0.25-0.17793 0.16143-0.34746 0.34539-0.5 0.53125-0.10758 0.13026-0.21839 0.26528-0.3125 0.40625-0.025089 0.03838-0.038446 0.08587-0.0625 0.125-0.064763 0.10303-0.13023 0.20452-0.1875 0.3125-0.10101 0.19471-0.20567 0.4157-0.28125 0.625-0.0079 0.022-0.0235 0.041-0.0312 0.063-0.0318 0.092-0.0358 0.187-0.0624 0.281-0.0304 0.107-0.0704 0.203-0.0938 0.313-0.0729 0.341-0.125 0.698-0.125 1.062v2 56 2c0 2.7818 2.2182 5 5 5h2 68 2c2.7818 0 5-2.2182 5-5v-2-56-2c0-0.3643-0.05212-0.72099-0.125-1.0625-0.04415-0.20689-0.08838-0.39766-0.15625-0.59375-0.0077-0.02195-0.0233-0.04069-0.03125-0.0625-0.06274-0.17374-0.13838-0.36745-0.21875-0.53125-0.04158-0.0828-0.07904-0.16995-0.125-0.25-0.0546-0.09721-0.12677-0.18835-0.1875-0.28125-0.09411-0.14096-0.20492-0.276-0.3125-0.40625-0.14317-0.17445-0.30314-0.347-0.46875-0.5-0.01117-0.0102-0.01998-0.02115-0.03125-0.03125-0.13839-0.12556-0.28509-0.23444-0.4375-0.34375-0.10257-0.07315-0.20432-0.15336-0.3125-0.21875-0.0074-0.0045-0.02384 0.0044-0.03125 0-0.23204-0.13873-0.46255-0.27478-0.71875-0.375 0.30153 0.0968 0.59646 0.20414 0.875 0.34375 0.55709 0.27922 1.0601 0.66569 1.5 1.0938 0.21997 0.21403 0.40937 0.44186 0.59375 0.6875s0.35541 0.50774 0.5 0.78125c0.14012 0.26505 0.27614 0.52473 0.375 0.8125 0.01041 0.03078 0.02133 0.06274 0.03125 0.09375 0.09046 0.27808 0.1388 0.5794 0.1875 0.875 0.053 0.318 0.094 0.634 0.094 0.969v2 56 2c0 3.324-2.676 6-6 6h-72z"/>
 </g>
 <g id="layer5">
  <rect id="rect2942" style="stroke:#000;stroke-width:.2;fill:#0d6471" rx="2" height="16" width="16" y="8" x="104"/>
  <flowRoot id="flowRoot3716" xml:space="preserve" style="font-size:4px;font-family:Liberation Sans;line-height:125%;fill:#000000" transform="translate(136.36 .28238)"><flowRegion id="flowRegion3718"><rect id="rect3720" height="15.489" width="28.463" y="8.0485" x="-12.463"/></flowRegion><flowPara id="flowPara3722">Glow : 2</flowPara><flowPara id="flowPara3724">Opacity : 35%</flowPara><flowPara id="flowPara3774">Width : 1px</flowPara></flowRoot>
  <rect id="rect3726" style="stroke:#000;stroke-width:.2;fill:#fff" rx="2" height="16" width="16" y="28" x="104"/>
  <flowRoot id="flowRoot3728" xml:space="preserve" style="font-size:4px;font-family:Liberation Sans;line-height:125%;fill:#000000" transform="translate(136.36 20.282)"><flowRegion id="flowRegion3730"><rect id="rect3732" height="15.489" width="28.463" y="8.0485" x="-12.463"/></flowRegion><flowPara id="flowPara3734">Glow : 3</flowPara><flowPara id="flowPara3736">Opacity : 30%</flowPara><flowPara id="flowPara3776">Width : 1.5px</flowPara></flowRoot>
  <path id="path3324" style="opacity:.9;fill:url(#linearGradient3810)" d="m58.161 30.369c-2.644 0-4.7849 2.143-4.7849 4.7848s2.1409 4.7848 4.7849 4.7848 4.7849-2.143 4.7849-4.7848-2.1409-4.7848-4.7849-4.7848zm-10.105 3.7475c-2.9509 0.000382-5.9426 0.74512-8.6329 2.0745-0.09567 0.04746-0.15533 0.13166-0.18403 0.23422-0.02909 0.10256-0.02318 0.21083 0.03346 0.30114l3.8815 6.1399c0.09835 0.15613 0.29816 0.22213 0.46845 0.15057 1.4366-0.6073 2.9273-0.90342 4.4336-0.90342 5.5405 0 10.374 4.1055 11.243 9.5529 0.02908 0.18292 0.18323 0.31787 0.36807 0.31787h7.2945c0.10638 0 0.21286-0.03828 0.28442-0.11711s0.11033-0.17803 0.10038-0.28441c-0.3934-4.0418-2.1214-7.9551-4.8518-10.992-0.12322-0.13776-0.32943-0.15083-0.48518-0.0502-1.101 0.71101-2.3502 1.0875-3.6138 1.0875-3.6864 0-6.6751-2.9948-6.6754-6.6586 0.000383-0.0019 0-0.12772 0-0.13384 0-0.18254-0.13687-0.35341-0.31788-0.38479-1.1526-0.19975-2.2715-0.3346-3.3461-0.3346zm-11.711 4.0152c-0.05051 0.01239-0.10905 0.03459-0.15057 0.06692-3.164 2.4369-5.5368 5.864-6.6922 9.6533-0.04516 0.1481-0.0049 0.30509 0.11711 0.40152 1.59 1.2594 2.543 3.1979 2.543 5.1863s-0.95259 3.9269-2.543 5.1863c-0.12131 0.09605-0.16227 0.25304-0.11711 0.40152 1.1461 3.7575 3.5003 7.1715 6.6252 9.6031 0.08381 0.06544 0.17956 0.10202 0.28442 0.08365 0.10447-0.01799 0.19394-0.09487 0.25096-0.18403l3.9149-6.1232c0.09988-0.15651 0.07275-0.36233-0.06692-0.48517-2.4526-2.1579-3.8647-5.252-3.8647-8.4822 0-3.2543 1.4199-6.3569 3.8982-8.5156 0.13968-0.12207 0.18277-0.32789 0.08366-0.48517l-3.8815-6.1399c-0.05664-0.08955-0.14648-0.14893-0.25096-0.1673-0.05224-0.0092-0.10006-0.01239-0.15057 0zm-10.791 10.507c-2.7059 0-4.902 2.198-4.902 4.9019 0 2.704 2.1961 4.8852 4.902 4.8852s4.902-2.1812 4.902-4.8852-2.1961-4.9019-4.902-4.9019zm41.408 6.324-7.2945 0.01673c-0.18407 0.000383-0.35533 0.13648-0.3848 0.31787-0.88055 5.4068-5.7009 9.486-11.226 9.486-1.5238 0-3.0311-0.31466-4.4838-0.93688-0.16991-0.07232-0.36857-0.02114-0.46845 0.13384l-3.9149 6.1399c-0.05702 0.08993-0.06179 0.1982-0.03346 0.30114 0.02832 0.10256 0.08875 0.18677 0.18404 0.23422 2.7113 1.3573 5.7316 2.0745 8.7165 2.0745 1.1071 0 2.2629-0.11084 3.4297-0.31787 0.16379-0.0287 0.28163-0.15294 0.30115-0.31787 0.3888-3.358 3.2287-5.889 6.6085-5.889 1.0478 0 2.1262 0.26445 3.0951 0.76958 0.14733 0.07692 0.31827 0.05209 0.43499-0.06692 3.0557-3.1161 4.9875-7.2245 5.4207-11.544 0.01074-0.10601-0.02843-0.2052-0.10038-0.28441-0.07195-0.07922-0.17803-0.11749-0.28442-0.11711zm-8.617 12.932c-2.7059 0-4.902 2.1784-4.902 4.8685 0 2.69 2.1961 4.8685 4.902 4.8685s4.902-2.1784 4.902-4.8685c0-2.69-2.1961-4.8685-4.902-4.8685z"/>
  <path id="path3814" style="opacity:.35;filter:url(#filter3822);stroke:#0d6471;stroke-width:.93096;fill:none" clip-path="url(#clipPath3818)" d="m57.184 32.5c-2.4614 0-4.4545 1.9951-4.4545 4.4545 0 2.4595 1.9931 4.4545 4.4545 4.4545s4.4545-1.9951 4.4545-4.4545c0-2.4595-1.9931-4.4545-4.4545-4.4545zm-9.4074 3.4888c-2.7471 0.000356-5.5323 0.69368-8.0368 1.9313-0.08906 0.04418-0.14461 0.12258-0.17133 0.21805-0.02708 0.09548-0.02158 0.19628 0.03115 0.28035l3.6135 5.7161c0.09156 0.14535 0.27757 0.2068 0.43611 0.14018 1.3374-0.56538 2.7252-0.84106 4.1274-0.84106 5.1579 0 9.6578 3.8221 10.467 8.8935 0.02707 0.17029 0.17058 0.29593 0.34266 0.29593h6.7908c0.09904 0 0.19816-0.03564 0.26478-0.10903s0.10271-0.16574 0.09345-0.26478c-0.36623-3.7628-1.9749-7.406-4.5168-10.233-0.11472-0.12825-0.30668-0.14042-0.45168-0.04673-1.025 0.66193-2.1879 1.0124-3.3642 1.0124-3.4318 0-6.2142-2.7881-6.2145-6.1989 0.000356-0.0018 0-0.1189 0-0.1246 0-0.16994-0.12742-0.32902-0.29593-0.35823-1.075-0.187-2.116-0.312-3.117-0.312zm-10.903 3.7381c-0.04702 0.01153-0.10152 0.0322-0.14018 0.0623-2.9456 2.2687-5.1545 5.4592-6.2301 8.9869-0.04204 0.13787-0.0046 0.28403 0.10903 0.37381 1.4803 1.1724 2.3674 2.9772 2.3674 4.8283s-0.88682 3.6559-2.3674 4.8283c-0.11293 0.08942-0.15107 0.23558-0.10903 0.3738 1.067 3.4981 3.2586 6.6765 6.1678 8.9402 0.07802 0.06092 0.16716 0.09498 0.26478 0.07788 0.09726-0.01675 0.18055-0.08832 0.23363-0.17133l3.6446-5.7005c0.09298-0.14571 0.06773-0.33732-0.0623-0.45168-2.2833-2.0089-3.5979-4.8895-3.5979-7.8966 0-3.0296 1.3219-5.9181 3.629-7.9278 0.13004-0.11365 0.17015-0.30526 0.07788-0.45168l-3.6135-5.7161c-0.05273-0.08337-0.13637-0.13865-0.23363-0.15575-0.04863-0.0086-0.09315-0.01153-0.14018 0zm-10.046 9.7812c-2.5191 0-4.5635 2.0462-4.5635 4.5635s2.0445 4.548 4.5635 4.548c2.5191 0 4.5635-2.0307 4.5635-4.548s-2.0445-4.5635-4.5635-4.5635zm38.549 5.8874-6.7908 0.01557c-0.17136 0.000357-0.3308 0.12706-0.35823 0.29593-0.81975 5.0336-5.3073 8.8312-10.451 8.8312-1.4186 0-2.8218-0.29294-4.1742-0.87221-0.15818-0.06733-0.34312-0.01968-0.43611 0.1246l-3.6446 5.7161c-0.05308 0.08372-0.05752 0.18452-0.03115 0.28035 0.02636 0.09548 0.08262 0.17388 0.17133 0.21805 2.5241 1.2637 5.3359 1.9313 8.1147 1.9313 1.0307 0 2.1067-0.10319 3.1929-0.29593 0.15248-0.02672 0.26218-0.14238 0.28035-0.29593 0.36196-3.1262 3.0057-5.4825 6.1522-5.4825 0.97544 0 1.9794 0.2462 2.8814 0.71646 0.13716 0.07161 0.2963 0.04849 0.40496-0.0623 2.8447-2.901 4.6431-6.7258 5.0464-10.747 0.01-0.09869-0.02647-0.19103-0.09345-0.26478s-0.16574-0.10938-0.26478-0.10903zm-8.0212 12.04c-2.5191 0-4.5635 2.0281-4.5635 4.5324s2.0445 4.5324 4.5635 4.5324c2.5191 0 4.5635-2.0281 4.5635-4.5324s-2.0445-4.5324-4.5635-4.5324z" transform="matrix(1.0742 0 0 1.0741 -3.2634 -4.0039)"/>
  <path id="path3826" style="opacity:.3;filter:url(#filter3839);stroke:#fff;stroke-width:1.3964;fill:none" clip-path="url(#clipPath3835)" d="m57.184 92c-2.4614 0-4.4545 1.9951-4.4545 4.4545 0 2.4595 1.9931 4.4545 4.4545 4.4545s4.4545-1.9951 4.4545-4.4545c0-2.459-1.993-4.454-4.454-4.454zm-9.4074 3.4888c-2.7471 0.000356-5.5323 0.69368-8.0368 1.9313-0.08906 0.04418-0.14461 0.12258-0.17133 0.21805-0.02708 0.09548-0.02158 0.19628 0.03115 0.28035l3.6135 5.7161c0.09156 0.14535 0.27757 0.2068 0.43611 0.14018 1.3374-0.56539 2.7252-0.84107 4.1274-0.84107 5.1579 0 9.6578 3.8221 10.467 8.8935 0.02707 0.17029 0.17058 0.29593 0.34266 0.29593h6.7908c0.09904 0 0.19816-0.0356 0.26478-0.10903 0.06662-0.0734 0.10271-0.16574 0.09345-0.26478-0.36623-3.7628-1.9749-7.406-4.5168-10.233-0.11472-0.12825-0.30668-0.14042-0.45168-0.0467-1.025 0.66193-2.1879 1.0124-3.3642 1.0124-3.4318 0-6.2142-2.7881-6.2145-6.1989 0.000356-0.0018 0-0.1189 0-0.1246 0-0.16994-0.12742-0.32902-0.29593-0.35823-1.075-0.193-2.116-0.318-3.117-0.318zm-10.903 3.7381c-0.04702 0.01153-0.10152 0.0322-0.14018 0.0623-2.9456 2.2687-5.1545 5.4592-6.2301 8.9869-0.04204 0.13788-0.0046 0.28403 0.10903 0.37381 1.4803 1.1724 2.3674 2.9772 2.3674 4.8283s-0.88682 3.6559-2.3674 4.8283c-0.11293 0.0894-0.15107 0.23557-0.10903 0.3738 1.067 3.4981 3.2586 6.6765 6.1678 8.9402 0.07802 0.0609 0.16716 0.095 0.26478 0.0779 0.09726-0.0168 0.18055-0.0883 0.23363-0.17133l3.6446-5.7005c0.09298-0.14571 0.06773-0.33732-0.0623-0.45168-2.2833-2.009-3.5979-4.8894-3.5979-7.8966 0-3.0296 1.3219-5.9181 3.629-7.9278 0.13004-0.11364 0.17015-0.30525 0.07788-0.45168l-3.6135-5.7161c-0.05273-0.08337-0.13637-0.13865-0.23363-0.15575-0.04863-0.0086-0.09315-0.01153-0.14018 0zm-10.046 9.7812c-2.5191 0-4.5635 2.0462-4.5635 4.5635s2.0445 4.548 4.5635 4.548c2.5191 0 4.5635-2.0307 4.5635-4.548s-2.0445-4.5635-4.5635-4.5635zm38.549 5.8874-6.7908 0.0156c-0.17136 0.00036-0.3308 0.12707-0.35823 0.29593-0.81975 5.0336-5.3073 8.8312-10.451 8.8312-1.4186 0-2.8218-0.29293-4.1742-0.87221-0.15818-0.0673-0.34312-0.0197-0.43611 0.1246l-3.6446 5.7161c-0.05308 0.0837-0.05752 0.18452-0.03115 0.28035 0.02636 0.0955 0.08262 0.17388 0.17133 0.21806 2.5241 1.2636 5.3359 1.9313 8.1147 1.9313 1.0307 0 2.1067-0.10319 3.1929-0.29592 0.15248-0.0267 0.26218-0.14239 0.28035-0.29593 0.36196-3.1262 3.0057-5.4825 6.1522-5.4825 0.97544 0 1.9794 0.2462 2.8814 0.71646 0.13716 0.0716 0.2963 0.0485 0.40496-0.0623 2.8447-2.901 4.6431-6.7258 5.0464-10.747 0.01-0.0987-0.02647-0.19104-0.09345-0.26478-0.06698-0.0737-0.16574-0.10938-0.26478-0.10903zm-8.0212 12.04c-2.5191 0-4.5635 2.0281-4.5635 4.5324s2.0445 4.5324 4.5635 4.5324c2.5191 0 4.5635-2.0281 4.5635-4.5324s-2.0445-4.5324-4.5635-4.5324z" transform="matrix(1.0742 0 0 1.0741 -3.2634 -68.453)"/>
 </g>
</svg>
