<?xml version="1.0" encoding="UTF-8" standalone="no"?>
<!-- Created with Inkscape (http://www.inkscape.org/) -->
<svg id="svg2" xmlns:rdf="http://www.w3.org/1999/02/22-rdf-syntax-ns#" xmlns="http://www.w3.org/2000/svg" height="16" width="16" version="1.0" xmlns:cc="http://creativecommons.org/ns#" xmlns:xlink="http://www.w3.org/1999/xlink" xmlns:dc="http://purl.org/dc/elements/1.1/">
 <metadata id="metadata7">
  <rdf:RDF>
   <cc:Work rdf:about="">
    <dc:format>image/svg+xml</dc:format>
    <dc:type rdf:resource="http://purl.org/dc/dcmitype/StillImage"/>
    <dc:title/>
   </cc:Work>
  </rdf:RDF>
 </metadata>
 <g id="layer2" style="display:none" transform="translate(0,-6)">
  <rect id="rect4898" style="fill:#333;display:inline" height="22" width="22" y="0" x="0"/>
 </g>
 <g id="layer3" style="display:none" transform="translate(0,-6)">
  <rect id="rect4126" style="fill:#efebe7" height="22" width="22" y="0" x="0"/>
 </g>
 <g id="layer1" transform="translate(0,-6)">
  <path id="path4951" style="fill:#d40000" d="m-13.375 32c-0.69219 0.04617-1.4852 0.35032-2.125 0.875-0.7839 0.64287-1.4206 2.2772-1.25 3.1875 0.08798 0.46934 0.44215 1.0404 0.78125 1.2188 0.63148 0.33208 1.7824-0.21877 2.8438-1.3438 1.1465-1.2153 1.673-2.5543 1.2812-3.3125-0.241-0.466-0.839-0.671-1.531-0.625zm-5.6562 0.71875c-0.96296 0.000866-1.4724 0.67796-1.4688 1.9688 0.0025 0.88392 0.31322 1.6791 0.71875 1.875 0.30151 0.14563 0.30905 0.13204 0.6875 0 0.62686-0.21871 1.2158-1.6786 1.0938-2.6562-0.09989-0.80016-0.44381-1.188-1.0312-1.1875zm-3.8125 1.3125c-0.18018 0.02605-0.3609 0.14201-0.53125 0.3125-0.34336 0.34365-0.34794 0.53096-0.34375 1.1875 0.0049 0.7743 0.1939 1.1965 0.71875 1.75 0.3926 0.41405 0.67572 0.4388 1.0312 0.0625 0.38514-0.40763 0.50472-1.0477 0.375-1.75-0.19783-1.0711-0.70945-1.6407-1.25-1.5625zm-2.6875 2.3438c-0.18695 0.03041-0.35545 0.13656-0.53125 0.3125-0.46135 0.46173-0.13867 1.7314 0.59375 2.375 0.87418 0.76817 1.5801 0.06483 1.2812-1.2812-0.21265-0.95791-0.7829-1.4975-1.3438-1.4062zm8.032 1.686c-0.61906-0.01065-1.3128 0.04097-2.0312 0.1875-1.8508 0.37747-3.3317 1.0754-4.2812 2.0312-0.54689 0.55046-0.8598 1.0601-1.125 1.8438-0.64192 1.897 0.5469 4.5957 2.8125 6.4375 0.84409 0.6862 1.3592 0.99331 2.2188 1.2812 0.44574 0.14931 0.79916 0.18399 1.625 0.15625 0.94672-0.03181 1.1393-0.07408 1.75-0.375 0.89504-0.44099 1.9096-1.461 2.3438-2.3438 0.26488-0.5385 0.30732-0.76863 0.28125-1.2188-0.04452-0.76858-0.34266-0.97776-1.3125-0.96875-1.3845 0.01285-1.9658 0.33393-2.25 1.3125-0.21469 0.73912-0.45204 1-0.9375 1-0.76937 0-1.5625-0.61179-1.5625-1.25 0-0.44399 0.71531-1.1058 2.5-2.3125 2.5141-1.6999 3.3785-2.7341 3.25-3.875-0.13273-1.1786-1.4241-1.8743-3.2812-1.9062z"/>
  <g id="layer1-8" transform="matrix(.32326 0 0 .32326 .66648 6.056)">
   <path id="path5667" style="opacity:.19444;stroke:#fff;stroke-linecap:round;stroke-width:1px;fill:none" d="m37.757 11.747s5.1406 5.0353 5.157 12.721c0.01653 7.7518-5.3553 12.986-5.3553 12.986"/>
   <path id="path5669" style="opacity:.18981;stroke:#fff;stroke-linecap:round;stroke-width:1px;fill:none" d="m30.616 16.915s3.6866 2.5011 3.6363 7.6855c-0.04959 5.1182-3.6363 7.288-3.6363 7.288"/>
   <path id="path5070" style="fill-rule:evenodd;stroke:#bebebe;stroke-width:1px;fill:#bebebe" d="m3.0334 11.648 21.638 12.77-21.654 12.78 0.0164-25.55z"/>
   <path id="path5665" style="opacity:.18056;fill:none" d="m4.0419 13.453 18.522 10.968-18.536 10.89 0.0139-21.858z"/>
   <path id="path5689" style="opacity:.32407;stroke:#fff;stroke-linecap:round;stroke-width:1px;fill:none" d="m38.154 11.237s5.4271 5.4639 5.4271 13.249c0 7.8509-5.4271 13.182-5.4271 13.182"/>
   <path id="path5691" style="opacity:.32407;stroke:#fff;stroke-linecap:round;stroke-width:1px;fill:none" d="m33.305 17.049s2.7797 2.8784 2.7797 7.2205c0 4.2759-2.515 7.2205-2.515 7.2205"/>
   <path id="path5067" style="stroke-linejoin:round;stroke:#bebebe;stroke-linecap:round;fill:#bebebe" d="m44.983 24.546c0-11.316-9.17-20.5-20.469-20.5-6.5242 0-12.313 3.0771-16.062 7.8438l2.5625 1.625c3.1985-3.9148 8.0855-6.4062 13.531-6.4062 9.6255-1e-7 17.438 7.812 17.438 17.438 0 9.6255-7.812 17.438-17.438 17.438-5.43 0-10.301-2.4797-13.5-6.375l-2.5625 1.625c3.7499 4.7469 9.5228 7.8125 16.031 7.8125 11.299 0 20.469-9.184 20.469-20.5z"/>
   <path id="path5648" style="stroke-linejoin:round;stroke:#bebebe;stroke-linecap:round;fill:#bebebe" d="m37.046 24.577c0-6.9172-5.614-12.531-12.531-12.531-3.6828 0-6.9878 1.5929-9.2812 4.125l2.6562 1.6562c1.7085-1.6874 4.0442-2.7188 6.625-2.7188 5.2267 0 9.4688 4.27 9.4688 9.5312 0 5.2613-4.242 9.5312-9.4688 9.5312-2.6289 0.000001-5.0025-1.0693-6.7188-2.8125l-2.5625 1.625c2.2934 2.5321 5.5985 4.125 9.2812 4.125 6.9172 0 12.531-5.614 12.531-12.531z"/>
   <path id="path5664" style="opacity:.33333;fill:none" d="m10.045 37.421c3.5605 4.0718 8.3265 6.5625 14.453 6.5625 10.721 0 19.422-8.722 19.422-19.469s-8.7012-19.469-19.422-19.469c-6.1579 0-10.831 2.5142-14.453 6.6875"/>
   <path id="path5677" style="opacity:.33333;fill:none" d="m16.827 33.202c2.1644 1.8985 4.3312 2.8437 7.625 2.8438 6.3652 0 11.531-5.152 11.531-11.5s-5.166-11.5-11.531-11.5c-3.3097 0-5.5527 1.2078-7.6562 3.125"/>
  </g>
 </g>
</svg>
