<?xml version="1.0" encoding="UTF-8" standalone="no"?>
<!-- Created with Inkscape (http://www.inkscape.org/) -->
<svg id="svg2408" xmlns:rdf="http://www.w3.org/1999/02/22-rdf-syntax-ns#" xmlns="http://www.w3.org/2000/svg" height="96" width="96" version="1.0" xmlns:cc="http://creativecommons.org/ns#" xmlns:xlink="http://www.w3.org/1999/xlink" xmlns:dc="http://purl.org/dc/elements/1.1/">
 <defs id="defs2410">
  <filter id="filter3276" color-interpolation-filters="sRGB">
   <feGaussianBlur id="feGaussianBlur3278" stdDeviation="0.56241694"/>
  </filter>
  <linearGradient id="linearGradient4368">
   <stop id="stop4370" style="stop-color:#828282" offset="0"/>
   <stop id="stop4372" style="stop-color:#5a5a5a" offset="1"/>
  </linearGradient>
  <linearGradient id="linearGradient4360">
   <stop id="stop4362" style="stop-color:#6e6e6e" offset="0"/>
   <stop id="stop4364" style="stop-color:#8c8c8c" offset="1"/>
  </linearGradient>
  <radialGradient id="radialGradient3354" gradientUnits="userSpaceOnUse" cy="32.812" cx="65.548" gradientTransform="matrix(.45865 -2.5902e-8 1.2821e-8 .28169 17.666 21.191)" r="51.413">
   <stop id="stop7107" style="stop-color:#515151" offset="0"/>
   <stop id="stop7113" style="stop-color:#272727" offset="1"/>
  </radialGradient>
  <filter id="filter3279" height="1.244" width="1.1012" color-interpolation-filters="sRGB" y="-.12199" x="-.050591">
   <feGaussianBlur id="feGaussianBlur3281" stdDeviation="1.7481104"/>
  </filter>
  <linearGradient id="linearGradient7175">
   <stop id="stop7177" offset="0"/>
   <stop id="stop7179" style="stop-opacity:0" offset="1"/>
  </linearGradient>
  <linearGradient id="linearGradient7155">
   <stop id="stop7157" style="stop-color:#fff" offset="0"/>
   <stop id="stop7159" style="stop-color:#fff;stop-opacity:0" offset="1"/>
  </linearGradient>
  <linearGradient id="ButtonShadow" y2="7.0165" gradientUnits="userSpaceOnUse" x2="45.448" gradientTransform="scale(1.0059 .99417)" y1="92.54" x1="45.448">
   <stop id="stop3750" offset="0"/>
   <stop id="stop3752" style="stop-opacity:.58824" offset="1"/>
  </linearGradient>
  <linearGradient id="linearGradient3706" y2="5.9877" gradientUnits="userSpaceOnUse" x2="48" gradientTransform="matrix(0,1,-1,0,96,0)" y1="90" x1="48">
   <stop id="stop3174" style="stop-color:#a0a0a0" offset="0"/>
   <stop id="stop3188" style="stop-color:#dcdcdc" offset=".13621"/>
   <stop id="stop3180" style="stop-color:#f5f5f5" offset=".30236"/>
   <stop id="stop3190" style="stop-color:#dcdcdc" offset=".61225"/>
   <stop id="stop3176" style="stop-color:#b4b4b4" offset="1"/>
  </linearGradient>
  <filter id="filter3179" height="1.9231" width="1.5902" color-interpolation-filters="sRGB" y="-.46154" x="-.29508">
   <feGaussianBlur id="feGaussianBlur3181" stdDeviation="6.6964288"/>
  </filter>
  <filter id="filter3174" color-interpolation-filters="sRGB">
   <feGaussianBlur id="feGaussianBlur3176" stdDeviation="1.71"/>
  </filter>
  <linearGradient id="linearGradient3188" y2="63.893" gradientUnits="userSpaceOnUse" x2="36.357" y1="6" x1="36.357">
   <stop id="stop3739" style="stop-color:#fff" offset="0"/>
   <stop id="stop3741" style="stop-color:#fff;stop-opacity:0" offset="1"/>
  </linearGradient>
  <linearGradient id="linearGradient3536" y2="5.9877" gradientUnits="userSpaceOnUse" x2="48" gradientTransform="matrix(1.0172 0 0 1.0172 -1.1034 -1.1034)" y1="90" x1="48">
   <stop id="stop3189" style="stop-opacity:.15625" offset="0"/>
   <stop id="stop3191" style="stop-color:#fff;stop-opacity:0" offset="1"/>
  </linearGradient>
  <linearGradient id="linearGradient3659" y2="103.55" xlink:href="#linearGradient4360" gradientUnits="userSpaceOnUse" x2="69.921" y1="103.55" x1="87.229"/>
  <linearGradient id="linearGradient3661" y2="97.972" xlink:href="#linearGradient4368" gradientUnits="userSpaceOnUse" x2="86.749" y1="87.433" x1="82.856"/>
  <linearGradient id="linearGradient3663" y2="68.296" xlink:href="#linearGradient4368" gradientUnits="userSpaceOnUse" x2="61.13" y1="76.541" x1="52.106"/>
  <linearGradient id="linearGradient3665" y2="80.815" xlink:href="#linearGradient4360" gradientUnits="userSpaceOnUse" x2="75.281" y1="63.589" x1="66.74"/>
  <linearGradient id="linearGradient3667" y2="93.471" xlink:href="#linearGradient4360" gradientUnits="userSpaceOnUse" x2="48.194" y1="104.22" x1="43.245"/>
  <linearGradient id="linearGradient3669" y2="110.66" xlink:href="#linearGradient4368" gradientUnits="userSpaceOnUse" x2="46.921" y1="106.16" x1="60.414"/>
  <linearGradient id="linearGradient3273" y2="47.795" gradientUnits="userSpaceOnUse" x2="48.223" y1="13.313" x1="48.223">
   <stop id="stop7099" style="stop-color:#919191" offset="0"/>
   <stop id="stop7101" style="stop-color:#fff" offset="1"/>
  </linearGradient>
  <linearGradient id="linearGradient4412" y2="110.74" xlink:href="#linearGradient7155" gradientUnits="userSpaceOnUse" x2="26.985" gradientTransform="matrix(.70974 0 0 .70974 49.188 2.4513)" y1="5" x1="26.985"/>
  <linearGradient id="linearGradient4493" y2="110.67" xlink:href="#linearGradient7155" gradientUnits="userSpaceOnUse" x2="26.985" gradientTransform="matrix(.089016 0 0 .70974 11.943 2.4513)" y1="5" x1="26.985"/>
  <linearGradient id="linearGradient4496" y2="176.65" xlink:href="#linearGradient7175" gradientUnits="userSpaceOnUse" x2="26.985" gradientTransform="matrix(.28082 0 0 .70974 70.101 2.7021)" y1="5" x1="26.985"/>
  <linearGradient id="linearGradient4499" y2="68.695" xlink:href="#linearGradient7155" gradientUnits="userSpaceOnUse" x2="26.985" gradientTransform="matrix(.14184 0 0 .70974 78.151 2.4513)" y1="5" x1="26.985"/>
  <linearGradient id="linearGradient4502" y2="120.64" xlink:href="#linearGradient7175" gradientUnits="userSpaceOnUse" x2="26.985" gradientTransform="matrix(.77577 0 0 -.70974 33.237 93.549)" y1="5" x1="26.985"/>
  <linearGradient id="linearGradient4505" y2="70.167" xlink:href="#linearGradient7175" gradientUnits="userSpaceOnUse" x2="26.985" gradientTransform="matrix(.96067 0 0 .70974 6.6793 -93.298)" y1="5" x1="26.985"/>
  <linearGradient id="linearGradient4508" y2="68.695" xlink:href="#linearGradient7155" gradientUnits="userSpaceOnUse" x2="26.985" gradientTransform="matrix(.35315 0 0 -.70974 10.754 93.298)" y1="5" x1="26.985"/>
  <linearGradient id="linearGradient4511" y2="96.04" xlink:href="#linearGradient7155" spreadMethod="reflect" gradientUnits="userSpaceOnUse" x2="26.985" gradientTransform="matrix(.28712 0 0 -.70974 36.517 93.298)" y1="54.295" x1="26.985"/>
  <radialGradient id="radialGradient2893" gradientUnits="userSpaceOnUse" cy="90.172" cx="48" gradientTransform="matrix(1.1573 0 0 .99591 -7.551 .19713)" r="42">
   <stop id="stop3739-6" style="stop-color:#fff" offset="0"/>
   <stop id="stop3741-4" style="stop-color:#fff;stop-opacity:0" offset="1"/>
  </radialGradient>
  <linearGradient id="ButtonShadow-0" y2="7.0165" gradientUnits="userSpaceOnUse" x2="45.448" gradientTransform="matrix(1.0059 0 0 .99417 100 0)" y1="92.54" x1="45.448">
   <stop id="stop3750-8" offset="0"/>
   <stop id="stop3752-5" style="stop-opacity:.58824" offset="1"/>
  </linearGradient>
  <linearGradient id="linearGradient3780" y2="90.239" xlink:href="#ButtonShadow-0" gradientUnits="userSpaceOnUse" x2="32.251" gradientTransform="matrix(1.0238 0 0 1.0119 -1.1429 -98.071)" y1="6.1317" x1="32.251"/>
  <linearGradient id="linearGradient3721" y2="90.239" xlink:href="#ButtonShadow-0" gradientUnits="userSpaceOnUse" x2="32.251" gradientTransform="translate(0,-97)" y1="6.1317" x1="32.251"/>
 </defs>
 <metadata id="metadata2413">
  <rdf:RDF>
   <cc:Work rdf:about="">
    <dc:format>image/svg+xml</dc:format>
    <dc:type rdf:resource="http://purl.org/dc/dcmitype/StillImage"/>
   </cc:Work>
  </rdf:RDF>
 </metadata>
 <g id="layer2" style="display:none">
  <rect id="rect3745" style="opacity:.9;filter:url(#filter3174);fill:url(#ButtonShadow)" rx="6" ry="6" height="85" width="86" y="7" x="5"/>
 </g>
 <g id="layer5">
  <path id="path3786" style="opacity:0.08;fill:url(#linearGradient3780)" d="m12-95.031c-5.5111 0-10.031 4.5202-10.031 10.031v71c0 5.5111 4.5202 10.031 10.031 10.031h72c5.5111 0 10.031-4.5202 10.031-10.031v-71c0-5.5111-4.5202-10.031-10.031-10.031h-72z" transform="scale(1,-1)"/>
  <path id="path3778" style="opacity:.1;fill:url(#linearGradient3780)" d="m12-94.031c-4.9716 0-9.0312 4.0596-9.0312 9.0312v71c0 4.9716 4.0596 9.0312 9.0312 9.0312h72c4.9716 0 9.0312-4.0596 9.0312-9.0312v-71c0-4.9716-4.0596-9.0312-9.0312-9.0312h-72z" transform="scale(1,-1)"/>
  <path id="path3770" style="opacity:.2;fill:url(#linearGradient3780)" d="m12-93c-4.4091 0-8 3.5909-8 8v71c0 4.4091 3.5909 8 8 8h72c4.4091 0 8-3.5909 8-8v-71c0-4.4091-3.5909-8-8-8h-72z" transform="scale(1,-1)"/>
  <rect id="rect3723" style="opacity:.3;fill:url(#linearGradient3780)" transform="scale(1,-1)" rx="7" ry="7" height="85" width="86" y="-92" x="5"/>
  <rect id="rect3716" style="opacity:.45;fill:url(#linearGradient3721)" transform="scale(1,-1)" rx="6" ry="6" height="84" width="84" y="-91" x="6"/>
 </g>
 <g id="layer3">
  <rect id="rect3344" style="fill:url(#radialGradient3354);fill-rule:evenodd" height="51.116" width="74.185" y="8" x="10.637"/>
  <path id="path3301" style="stroke-linejoin:round;filter:url(#filter3279);stroke:#000;stroke-linecap:round;stroke-width:3.8316;fill:none" d="m103.44 30.554a40.477 16.241 0 1 1 -80.955 0 40.477 16.241 0 1 1 80.955 0z" transform="matrix(.76586 0 0 .80044 -.22222 2.0431)"/>
 </g>
 <g id="layer1">
  <path id="rect2419" style="fill:url(#linearGradient3706)" d="m12 6c-3.324 0-6 2.676-6 6v72c0 3.324 2.676 6 6 6h72c3.324 0 6-2.676 6-6v-72c0-3.324-2.676-6-6-6h-72zm36 7c17.112 0 31 5.824 31 13 0.000001 7.176-13.888 13-31 13s-31-5.824-31-13c0.000001-7.176 13.888-13 31-13z"/>
  <path id="rect3480" style="fill:url(#linearGradient3536)" d="m12 6c-3.324 0-6 2.676-6 6v72c0 3.324 2.676 6 6 6h72c3.324 0 6-2.676 6-6v-72c0-3.324-2.676-6-6-6h-72zm36 7c17.112 0 31 5.824 31 13 0.000001 7.176-13.888 13-31 13s-31-5.824-31-13c0.000001-7.176 13.888-13 31-13z"/>
  <g id="g3368" transform="matrix(.71186 0 0 .71186 2.4407 5.2998)">
   <path id="path3358" style="fill:#a4a4a4;fill-rule:evenodd" d="m123 42.75c-13.51 7.606-35.088 12.531-59.406 12.531-23.834 0-45.04-4.744-58.594-12.093v2c13.554 7.349 34.76 12.093 58.594 12.093 24.318 0 45.896-4.925 59.406-12.531v-2z"/>
   <path id="path3366" style="fill:#e8e8e8;fill-rule:evenodd" d="m123 44.75c-13.51 7.606-35.088 12.531-59.406 12.531-23.834 0-45.04-4.744-58.594-12.093v2c13.554 7.349 34.76 12.093 58.594 12.093 24.318 0 45.896-4.925 59.406-12.531v-2z"/>
  </g>
  <path id="rect2399" style="opacity:.15;filter:url(#filter3179);fill:#fff" d="m23.094 13.875c-5.4253 0-9.7812 4.4453-9.7812 9.9375v18.531c0 5.4922 4.356 9.9062 9.7812 9.9062h39.688c5.4253 0 9.7812-4.414 9.7812-9.9062v-8.4375c-5.669 3.094-14.547 5.094-24.563 5.094-17.112 0-31-5.824-31-13 0.000001-5.5398 8.2903-10.254 19.938-12.125h-13.844zm35.969 0c3.9844 0.64 7.5634 1.616 10.562 2.8438-1.764-1.746-4.171-2.844-6.844-2.844h-3.7188z"/>
  <g id="g4516">
   <path id="rect7153" style="opacity:.6;fill:url(#linearGradient4412);fill-rule:evenodd" d="m61.594 6v7.9688c3.136 0.63883 5.988 1.4717 8.4375 2.5 1.9578 0.82188 3.6634 1.7575 5.0625 2.7812v-13.25h-13.5zm13.5 26.719c-1.3997 1.0253-3.1032 1.9609-5.0625 2.7812-2.4495 1.0256-5.3015 1.8607-8.4375 2.5v51.75h13.5v-57.031z"/>
   <path id="rect7163" style="opacity:.3;fill:url(#linearGradient4511);fill-rule:evenodd" d="m41.531 6v6.9375c1.769-0.156 3.604-0.226 5.469-0.25v-6.688h-5.469zm0 33.031v50.719h5.4688v-50.438c-1.8651-0.02479-3.6996-0.12488-5.4688-0.28125z"/>
   <path id="rect7167" style="opacity:.4;fill:url(#linearGradient4508);fill-rule:evenodd" d="m16.938 6v18.312c0.37396-1.2877 1.1538-2.5068 2.2812-3.625 1.1399-1.1305 2.635-2.1633 4.4062-3.0938v-11.593h-6.687zm0 21.688v62.062h6.6875v-55.344c-1.772-0.931-3.267-1.965-4.407-3.094-1.128-1.116-1.908-2.344-2.281-3.624z"/>
   <rect id="rect7171" style="opacity:.15;fill:url(#linearGradient4505);fill-rule:evenodd" transform="scale(1,-1)" height="83.749" width="18.243" y="-89.749" x="23.481"/>
   <path id="rect7185" style="opacity:.1;fill:url(#linearGradient4502);fill-rule:evenodd" d="m46.812 6.25v6.7812c0.399-0.006 0.786-0.031 1.188-0.031 4.8554 0 9.4386 0.4769 13.531 1.3125v-8.0625h-14.719zm14.719 31.438c-4.092 0.835-8.676 1.312-13.531 1.312-0.40244 0-0.78877-0.02487-1.1875-0.03125v51.031h14.719v-52.312z"/>
   <rect id="rect7189" style="opacity:.4;fill:url(#linearGradient4499);fill-rule:evenodd" height="83.749" width="2.6935" y="6" x="80.632"/>
   <path id="rect7193" style="opacity:.1;fill:url(#linearGradient4496);fill-rule:evenodd" d="m75 6.25v13.375c2.5367 1.8845 4 4.058 4 6.375s-1.4633 4.4905-4 6.375v57.625h5.3438v-83.75h-5.344z"/>
   <rect id="rect7197" style="opacity:.4;fill:url(#linearGradient4493);fill-rule:evenodd" height="83.749" width="1.6904" y="6" x="13.5"/>
  </g>
  <path id="rect3728" style="opacity:.5;fill:url(#linearGradient3188)" d="m12 6c-3.324 0-6 2.676-6 6v2 68 2c0 0.33472 0.04135 0.6507 0.09375 0.96875 0.0487 0.2956 0.09704 0.59692 0.1875 0.875 0.00988 0.03038 0.020892 0.0636 0.03125 0.09375 0.098865 0.28777 0.23488 0.54745 0.375 0.8125 0.14459 0.27351 0.31562 0.53562 0.5 0.78125 0.18438 0.24564 0.37378 0.47347 0.59375 0.6875 0.43995 0.42806 0.94291 0.81453 1.5 1.0938 0.27854 0.13961 0.57347 0.24695 0.875 0.34375-0.2562-0.10022-0.48671-0.23627-0.71875-0.375-0.00741-0.0044-0.023866 0.0045-0.03125 0-0.031933-0.0193-0.062293-0.04251-0.09375-0.0625-0.1204-0.0767-0.23102-0.16351-0.34375-0.25-0.10617-0.0808-0.21328-0.16111-0.3125-0.25-0.17793-0.16143-0.34746-0.34539-0.5-0.53125-0.10758-0.13026-0.21839-0.26528-0.3125-0.40625-0.025089-0.03838-0.038446-0.08587-0.0625-0.125-0.064763-0.10303-0.13023-0.20452-0.1875-0.3125-0.10101-0.19471-0.20567-0.4157-0.28125-0.625-0.00796-0.02181-0.023589-0.04055-0.03125-0.0625-0.0318-0.092-0.0358-0.187-0.0624-0.281-0.0304-0.107-0.0704-0.203-0.0938-0.313-0.0729-0.341-0.125-0.698-0.125-1.062v-2-68-2c0-2.782 2.2182-5 5-5h2 68 2c2.7818 0 5 2.2182 5 5v2 68 2c0 0.3643-0.05212 0.72099-0.125 1.0625-0.04415 0.20689-0.08838 0.39766-0.15625 0.59375-0.0077 0.02195-0.0233 0.04069-0.03125 0.0625-0.06274 0.17374-0.13838 0.36745-0.21875 0.53125-0.04158 0.0828-0.07904 0.16995-0.125 0.25-0.0546 0.09721-0.12677 0.18835-0.1875 0.28125-0.09411 0.14096-0.20492 0.276-0.3125 0.40625-0.14317 0.17445-0.30314 0.347-0.46875 0.5-0.01117 0.0102-0.01998 0.02115-0.03125 0.03125-0.13839 0.12556-0.28509 0.23444-0.4375 0.34375-0.10257 0.07315-0.20432 0.15336-0.3125 0.21875-0.0074 0.0045-0.02384-0.0044-0.03125 0-0.23204 0.13873-0.46255 0.27478-0.71875 0.375 0.30153-0.0968 0.59646-0.20414 0.875-0.34375 0.55709-0.27922 1.0601-0.66569 1.5-1.0938 0.21997-0.21403 0.40937-0.44186 0.59375-0.6875s0.35541-0.50774 0.5-0.78125c0.14012-0.26505 0.27614-0.52473 0.375-0.8125 0.01041-0.03078 0.02133-0.06274 0.03125-0.09375 0.09046-0.27808 0.1388-0.5794 0.1875-0.875 0.053-0.318 0.094-0.634 0.094-0.969v-2-68-2c0-3.324-2.676-6-6-6h-72z"/>
  <path id="path7095" style="stroke-linejoin:round;stroke:url(#linearGradient3273);stroke-linecap:round;stroke-width:1.9158;fill:none" d="m103.44 30.554a40.477 16.241 0 1 1 -80.955 0 40.477 16.241 0 1 1 80.955 0z" transform="matrix(.76586 0 0 .80044 -.22222 1.5431)"/>
  <path id="path3615" style="opacity:.3;fill:url(#radialGradient2893)" d="m12 90c-3.324 0-6-2.676-6-6v-2-68-2c0-0.33472 0.04135-0.6507 0.09375-0.96875 0.0487-0.2956 0.09704-0.59692 0.1875-0.875 0.0099-0.03 0.0209-0.063 0.0313-0.094 0.0989-0.2873 0.2349-0.547 0.375-0.812 0.1446-0.2735 0.3156-0.5356 0.5-0.7812 0.1844-0.2457 0.3738-0.4735 0.5937-0.6876 0.44-0.428 0.943-0.8145 1.5-1.0937 0.2786-0.1396 0.5735-0.2469 0.8748-0.3437-0.256 0.1002-0.4865 0.2362-0.7185 0.375-0.00741 0.0044-0.023866-0.0045-0.03125 0-0.031933 0.0193-0.062293 0.04251-0.09375 0.0625-0.1204 0.0767-0.23102 0.16351-0.34375 0.25-0.10617 0.0808-0.21328 0.16111-0.3125 0.25-0.1779 0.1614-0.3474 0.3453-0.5 0.5312-0.1075 0.1303-0.2183 0.2653-0.3124 0.4063-0.0251 0.0383-0.0385 0.0858-0.0626 0.125-0.0647 0.103-0.1302 0.2045-0.1874 0.3124-0.1011 0.1948-0.2057 0.4158-0.2813 0.625-0.008 0.0219-0.0236 0.0406-0.0313 0.0626-0.0318 0.0919-0.0358 0.1868-0.0624 0.2812-0.0304 0.1066-0.0704 0.203-0.0938 0.3125-0.0729 0.3415-0.125 0.6985-0.125 1.0625v2 68 2c0 2.7818 2.2182 5 5 5h2 68 2c2.7818 0 5-2.2182 5-5v-2-68-2c0-0.364-0.052-0.721-0.125-1.0625-0.044-0.2069-0.088-0.3977-0.156-0.5937-0.008-0.022-0.024-0.0407-0.031-0.0626-0.063-0.1737-0.139-0.3674-0.219-0.5312-0.042-0.0828-0.079-0.17-0.125-0.25-0.055-0.0972-0.127-0.1884-0.188-0.2812-0.094-0.141-0.205-0.276-0.312-0.4063-0.143-0.1745-0.303-0.347-0.469-0.5-0.011-0.0102-0.02-0.0211-0.031-0.0313-0.139-0.1255-0.285-0.2344-0.438-0.3437-0.102-0.0731-0.204-0.1534-0.312-0.2187-0.0074-0.0045-0.02384 0.0044-0.03125 0-0.23204-0.13873-0.46255-0.27478-0.71875-0.375 0.30153 0.0968 0.59646 0.20414 0.875 0.34375 0.55709 0.27922 1.0601 0.66569 1.5 1.0938 0.21997 0.21403 0.40937 0.44186 0.59375 0.6875s0.35541 0.50774 0.5 0.78125c0.14012 0.26505 0.27614 0.52473 0.375 0.8125 0.01041 0.03078 0.02133 0.06274 0.03125 0.09375 0.09046 0.27808 0.1388 0.5794 0.1875 0.875 0.053 0.318 0.094 0.634 0.094 0.969v2 68 2c0 3.324-2.676 6-6 6h-72z"/>
 </g>
 <g id="layer4">
  <g id="g3648" transform="translate(0,-1)">
   <path id="path3270" style="opacity:.8;filter:url(#filter3276)" transform="matrix(.62074 0 0 .62074 2.6639 22.255)" d="m75.778 90.69 6.3317-11.357 0.0301 4.1536 13.326-0.03009c2.3811-0.25234 4.4687-1.2201 5.9805-3.0399-4.825 9.8683-6.2147 16.851-16.226 16.855h-3.0806l-0.0301 4.6151-6.3317-11.197zm14.5-8.9587-5.8802-10.835 11.881-7.1935 5.7497 11.518c0.17409 2.7563-4.2769 6.592-7.0396 6.5622l-4.7107-0.05088zm-36.131-24.001 6.07-9.096c5.8874-2.1923 9.2977 2.5406 11.45 5.524l-5.719 10.976-11.801-7.404zm23.982 4.5275c-1.221-2.878-2.852-6.17-4.892-9.032-1.826-2.563-4.033-4.798-5.704-5.797l15.353-0.03009c2.7572 0.24748 4.0968 1.8546 5.5591 4.0532l2.2076 3.8827 3.4117-2.1771-6.422 11.437-13.848 0.03009 4.3349-2.3677zm-21.244 4.2464 7.3428 10.731-3.7316-1.8255-5.9163 11.938c-0.83607 2.2434-0.90083 4.5431 0.05403 6.7077-6.682-8.719-12.313-13.077-7.852-22.038l1.3739-2.7568-4.1179-2.0852 12.847-0.67259zm1.6825 16.973 13.538-0.42958-0.07542 13.84-12.875 0.0086c-2.5451-1.0735-3.9936-6.7673-2.7347-9.2263l2.1465-4.1929z"/>
   <path id="path3280" style="opacity:.8;filter:url(#filter3276);fill:#fff" transform="matrix(.62074 0 0 .62074 2.6639 22.013)" d="m75.778 92.69 6.3317-11.357 0.0301 4.1536 13.326-0.03009c2.3811-0.25235 4.4687-1.2201 5.9805-3.0399-4.825 9.8683-6.2147 16.851-16.226 16.855h-3.0806l-0.0301 4.6151-6.3317-11.197zm14.5-8.9587-5.8802-10.835 11.881-7.1935 5.7497 11.518c0.17409 2.7563-4.2769 6.592-7.0396 6.5622l-4.7107-0.05088zm-36.131-24.001 6.07-9.096c5.8874-2.1923 9.2977 2.5406 11.45 5.524l-5.719 10.976-11.801-7.404zm23.982 4.5275c-1.221-2.878-2.852-6.17-4.892-9.032-1.826-2.563-4.033-4.798-5.704-5.797l15.353-0.03009c2.7572 0.24748 4.0968 1.8546 5.5591 4.0532l2.2076 3.8827 3.4117-2.1771-6.422 11.437-13.848 0.03009 4.3349-2.3677zm-21.244 4.2464 7.3428 10.731-3.7316-1.8255-5.9163 11.938c-0.83607 2.2434-0.90083 4.5431 0.05403 6.7077-6.682-8.719-12.313-13.077-7.852-22.038l1.3739-2.7568-4.1179-2.0852 12.847-0.67259zm1.6825 16.973 13.538-0.42959-0.07542 13.84-12.875 0.0086c-2.5451-1.0735-3.9936-6.7673-2.7347-9.2263l2.1465-4.1929z"/>
   <g id="g3350" transform="matrix(.62074 0 0 .62074 8.2741 12.705)">
    <path id="path3292" style="fill:url(#linearGradient3659)" d="m66.74 106.88 6.3317-11.357 0.0301 4.1536 13.326-0.03009c2.3811-0.25234 4.4687-1.2201 5.9805-3.0399-4.825 9.8683-6.2147 16.851-16.226 16.855h-3.0806l-0.0301 4.6151-6.3317-11.197z"/>
    <path id="path3290" style="fill:url(#linearGradient3661)" d="m81.24 97.921-5.88-10.835 11.881-7.193 5.749 11.517c0.17409 2.7563-4.2769 6.592-7.0396 6.5622l-4.7107-0.05088z"/>
    <path id="path3288" style="fill:url(#linearGradient3663)" d="m45.109 73.92 6.07-9.0957c5.8874-2.1923 9.2977 2.5406 11.45 5.524l-5.719 10.976-11.801-7.404z"/>
    <path id="path3286" style="fill:url(#linearGradient3665)" d="m69.091 78.447c-1.221-2.878-2.852-6.169-4.892-9.031-1.826-2.563-4.033-4.798-5.704-5.797l15.353-0.03009c2.7572 0.24748 4.0968 1.8546 5.5591 4.0532l2.2076 3.8827 3.4117-2.1771-6.422 11.437-13.848 0.03009 4.3349-2.3677z"/>
    <path id="path3284" style="fill:url(#linearGradient3667)" d="m47.847 82.694 7.3428 10.731-3.7316-1.8255-5.9163 11.938c-0.83607 2.2434-0.90083 4.5431 0.05403 6.7077-6.682-8.719-12.313-13.077-7.8518-22.037l1.3739-2.7568-4.1179-2.0852 12.847-0.67259z"/>
    <path id="path4068" style="fill:url(#linearGradient3669)" d="m49.529 99.667 13.538-0.42958-0.07542 13.84-12.875 0.009c-2.5451-1.0735-3.9936-6.7673-2.7347-9.2263l2.1465-4.1929z"/>
   </g>
  </g>
 </g>
</svg>
