<?xml version="1.0" encoding="UTF-8" standalone="no"?>
<!-- Created with Inkscape (http://www.inkscape.org/) -->
<svg id="svg2" xmlns:rdf="http://www.w3.org/1999/02/22-rdf-syntax-ns#" xmlns="http://www.w3.org/2000/svg" height="16" width="16" version="1.0" xmlns:cc="http://creativecommons.org/ns#" xmlns:dc="http://purl.org/dc/elements/1.1/">
 <metadata id="metadata7">
  <rdf:RDF>
   <cc:Work rdf:about="">
    <dc:format>image/svg+xml</dc:format>
    <dc:type rdf:resource="http://purl.org/dc/dcmitype/StillImage"/>
    <dc:title/>
   </cc:Work>
  </rdf:RDF>
 </metadata>
 <g id="layer1" transform="translate(0,-6)">
  <path id="path3775" style="opacity:.45;fill:#bebebe" d="m2 20.75c0 0.692 0.5575 1.25 1.25 1.25h8.5c0.692 0 1.25-0.558 1.25-1.25v-11.5c0-0.6925-0.558-1.25-1.25-1.25h-1.75v-1-0.5c0-0.277-0.223-0.5-0.5-0.5h-0.5-3-0.5c-0.277 0-0.5 0.223-0.5 0.5v0.5 1h-1.75c-0.6925 0-1.25 0.5575-1.25 1.25v11.5zm2-1.5v-8.5c0-0.416 0.3345-0.75 0.75-0.75h5.5c0.4155 0 0.75 0.3345 0.75 0.75v8.5c0 0.416-0.334 0.75-0.75 0.75h-5.5c-0.4155 0-0.75-0.334-0.75-0.75z"/>
 </g>
</svg>
