<?xml version="1.0" encoding="UTF-8" standalone="no"?>
<!-- Created with Inkscape (http://www.inkscape.org/) -->
<svg id="svg2" xmlns:rdf="http://www.w3.org/1999/02/22-rdf-syntax-ns#" xmlns="http://www.w3.org/2000/svg" height="16" width="16" version="1.0" xmlns:cc="http://creativecommons.org/ns#" xmlns:xlink="http://www.w3.org/1999/xlink" xmlns:dc="http://purl.org/dc/elements/1.1/">
 <metadata id="metadata7">
  <rdf:RDF>
   <cc:Work rdf:about="">
    <dc:format>image/svg+xml</dc:format>
    <dc:type rdf:resource="http://purl.org/dc/dcmitype/StillImage"/>
    <dc:title/>
   </cc:Work>
  </rdf:RDF>
 </metadata>
 <g id="layer3" transform="translate(-.46426 -3)">
  <path id="path3620" style="fill:#bebebe" d="m8.4643 4c-4.4183 0-8 2.9163-8 6.5312 0 2.3027 1.4592 4.3333 3.6562 5.5-0.08355 0.60818-0.4801 2.1159-2.2812 2.625 2.3328 0.25353 3.8963-0.89153 4.7188-1.75 0.61176 0.12255 1.2483 0.1875 1.9062 0.1875 4.4183 0 8-2.9475 8-6.5625s-3.5817-6.5312-8-6.5312zm-0.21875 2c0.43228 0.0000089 0.8505 0.05219 1.2188 0.15625 0.36824 0.10008 0.66932 0.24138 0.9375 0.4375 0.26817 0.19214 0.47289 0.43857 0.625 0.71875 0.1521 0.28019 0.24999 0.58127 0.25 0.9375-0.000006 0.32822-0.05219 0.64608-0.15625 0.90625-0.10007 0.26018-0.26462 0.50261-0.46875 0.71875-0.20414 0.21615-0.47305 0.40963-0.78125 0.59375-0.30421 0.18012-0.65423 0.33189-1.0625 0.5l-0.25 1.125h-0.75l-0.25-1.5c0.35223-0.14009 0.65085-0.31187 0.875-0.5 0.22415-0.19212 0.40316-0.40885 0.53125-0.625 0.13208-0.22014 0.23321-0.44733 0.28125-0.6875 0.04803-0.24015 0.06249-0.47458 0.0625-0.71875-0.000004-0.19612-0.02648-0.37114-0.0625-0.53125-0.036-0.1645-0.0762-0.2905-0.1562-0.4066-0.0761-0.1201-0.1885-0.2172-0.3125-0.2813-0.1201-0.064-0.2694-0.0937-0.4375-0.0937-0.18413 0.0000081-0.34467 0.040952-0.46875 0.125-0.12409 0.084064-0.2052 0.17241-0.28125 0.3125-0.07605 0.1401-0.15148 0.31188-0.1875 0.5-0.03202 0.18813-0.03125 0.38562-0.03125 0.59375-0.25217 0.000007-0.47536-0.02647-0.6875-0.0625-0.21214-0.03601-0.4064-0.0882-0.5625-0.15625-0.1521-0.072041-0.28694-0.14192-0.375-0.25-0.084057-0.10806-0.125-0.2309-0.125-0.375-5e-7 -0.20013 0.05218-0.39038 0.15625-0.5625 0.10407-0.17611 0.28786-0.34066 0.5-0.46875 0.216-0.128 0.4841-0.2092 0.8124-0.2812 0.3282-0.0761 0.7039-0.125 1.1562-0.125zm-0.0625 7.0312c0.13609 0.000002 0.25492 0.03048 0.375 0.0625 0.12408 0.03202 0.25168 0.0802 0.34375 0.15625 0.09206 0.07605 0.13546 0.18442 0.1875 0.3125 0.05603 0.12408 0.09374 0.28063 0.09375 0.46875-0.000004 0.18412-0.03771 0.31342-0.09375 0.4375-0.05204 0.12408-0.09544 0.23645-0.1875 0.3125s-0.21967 0.12423-0.34375 0.15625c-0.12008 0.03602-0.23891 0.0625-0.375 0.0625-0.1401 0-0.28217-0.02647-0.40625-0.0625-0.12408-0.03202-0.22044-0.0802-0.3125-0.15625-0.08806-0.07605-0.16672-0.18842-0.21875-0.3125-0.05204-0.12408-0.0625-0.25338-0.0625-0.4375-0.000002-0.18812 0.01046-0.34467 0.0625-0.46875 0.05203-0.12808 0.13069-0.23645 0.21875-0.3125 0.09206-0.07605 0.18842-0.12423 0.3125-0.15625s0.26615-0.0625 0.40625-0.0625z"/>
 </g>
</svg>
