<?xml version="1.0" encoding="UTF-8" standalone="no"?>
<!-- Created with Inkscape (http://www.inkscape.org/) -->
<svg id="svg2" xmlns:rdf="http://www.w3.org/1999/02/22-rdf-syntax-ns#" xmlns="http://www.w3.org/2000/svg" height="16" width="16" version="1.0" xmlns:cc="http://creativecommons.org/ns#" xmlns:dc="http://purl.org/dc/elements/1.1/">
 <metadata id="metadata7">
  <rdf:RDF>
   <cc:Work rdf:about="">
    <dc:format>image/svg+xml</dc:format>
    <dc:type rdf:resource="http://purl.org/dc/dcmitype/StillImage"/>
    <dc:title/>
   </cc:Work>
  </rdf:RDF>
 </metadata>
 <g id="layer1">
  <path id="path3042" style="fill:#bebebe" d="m11 2v2h-1.0312c-3.5741 0-4.1378 2.5061-6.25 4.3125-0.5105 0.4365-0.988 0.6875-1.75 0.6875h-0.9688v2h0.9688c1.2565 0 2.2996-0.505 3.0624-1.1875 1.7928-1.6046 2.5713-3.8125 4.9376-3.8125h1.0312v2l4-3-4-3zm0 6v2h-1.0312c-1.1238 0-1.8763-0.5239-2.5626-1.2188-0.383 0.4641-0.8197 0.9506-1.3437 1.4688 0.9018 0.98 1.9442 1.75 3.9063 1.75h1.0312v2l4-3-4-3zm-10-3v2h0.9688c0.5138 0 0.8975 0.1356 1.25 0.3438 0.4809-0.4472 0.8979-0.966 1.3437-1.5-0.704-0.4927-1.571-0.8438-2.5937-0.8438h-0.9688z"/>
 </g>
</svg>
