<?xml version="1.0" encoding="UTF-8" standalone="no"?>
<!-- Created with Inkscape (http://www.inkscape.org/) -->
<svg id="svg2" xmlns:rdf="http://www.w3.org/1999/02/22-rdf-syntax-ns#" xmlns="http://www.w3.org/2000/svg" height="16" width="16" version="1.0" xmlns:cc="http://creativecommons.org/ns#" xmlns:xlink="http://www.w3.org/1999/xlink" xmlns:dc="http://purl.org/dc/elements/1.1/">
 <metadata id="metadata7">
  <rdf:RDF>
   <cc:Work rdf:about="">
    <dc:format>image/svg+xml</dc:format>
    <dc:type rdf:resource="http://purl.org/dc/dcmitype/StillImage"/>
    <dc:title/>
   </cc:Work>
  </rdf:RDF>
 </metadata>
 <g id="layer1">
  <path id="path3691" style="opacity:.3" d="m5.2019-11.889c-0.021495 0.009-0.04239 0.01947-0.0625 0.03125l-1.9688 1.9688c-0.098992 0.09781-0.15658 0.23603-0.15625 0.375v1.5312l-1.8125 1.7812c-0.26923 0.26923-0.26923 0.73077 0 1s0.73077 0.26923 1 0l1.7812-1.8125h1.5312c0.13907-0.000056 0.27723-0.05762 0.375-0.15625l1.9688-1.9688c0.010849-0.01 0.021278-0.0204 0.03125-0.03125 0.0003103-0.01041 0.0003103-0.02084 0-0.03125l-2.6875-2.6875z"/>
  <path id="path2956" style="opacity:.2;fill:#f00" d="m5.9054 19.128-4.7035 4.682c-0.26923 0.26923-0.26923 0.71872 0 0.98795s0.71872 0.26923 0.98795 0l4.7895-4.789c-0.3854-0.263-0.7349-0.563-1.0739-0.881z"/>
  <path id="path2958" style="opacity:.2;fill:#f00" d="m10.875 8.4688a0.53395 0.53395 0 0 0 -0.25 0.1562l-2 2a0.53395 0.53395 0 0 0 -0.1562 0.375v2a0.53395 0.53395 0 0 0 0.5312 0.531h2a0.53395 0.53395 0 0 0 0.375 -0.156l2-2a0.53395 0.53395 0 0 0 0 -0.75l-2-2a0.53395 0.53395 0 0 0 -0.5 -0.15625z" transform="matrix(.98812 0 0 .98537 -4.3682 8.6666)"/>
  <path id="path2971" style="opacity:.3" d="m10.785-12.097c0.0215-0.009 0.04239-0.01947 0.0625-0.03125l1.9688-1.9688c0.09899-0.09781 0.15658-0.23603 0.15625-0.375v-1.5312l1.8125-1.7813c0.26923-0.26923 0.26923-0.73077 0-1s-0.73077-0.26923-1 0l-1.7812 1.8125h-1.5312c-0.13907 0.000056-0.27723 0.05762-0.375 0.15625l-1.9687 1.9688c-0.010849 0.01-0.021278 0.0204-0.03125 0.03125-0.0003103 0.01041-0.0003103 0.02084 0 0.03125l2.6875 2.6875z"/>
  <path id="path3708" style="opacity:.45;fill:#bebebe" d="m4.8438 8c-0.1085 0.0357-0.2068 0.1012-0.2813 0.1875l-2.375 2.3745c-0.1159 0.115-0.1846 0.275-0.1875 0.438v1.875l-1.75 1.75c-0.31442 0.31442-0.31442 0.81058 0 1.125s0.81058 0.31442 1.125 0l1.75-1.75h1.875c0.1627-0.0033 0.32313-0.07206 0.4375-0.1875l2.375-2.375c0.22391-0.23233 0.22391-0.64267 0-0.875l-2.375-2.3745c-0.1479-0.1584-0.3814-0.2321-0.5937-0.1875z"/>
  <path id="path3713" style="opacity:.45;fill:#bebebe" d="m11.16 7.9723c0.1084-0.035684 0.20675-0.10125 0.28125-0.1875l2.375-2.375c0.11586-0.11443 0.18464-0.27492 0.1875-0.4375v-1.875l1.75-1.75c0.31442-0.31442 0.31442-0.81058 0-1.125s-0.81058-0.31442-1.125 0l-1.75 1.75h-1.875c-0.1627 0.0033-0.32313 0.072059-0.4375 0.1875l-2.375 2.375c-0.22391 0.23233-0.22391 0.64267 0 0.875l2.375 2.375c0.14793 0.15838 0.38136 0.2321 0.59375 0.1875z"/>
 </g>
</svg>
