<?xml version="1.0" encoding="UTF-8" standalone="no"?>
<!-- Created with Inkscape (http://www.inkscape.org/) -->
<svg id="svg2408" xmlns:rdf="http://www.w3.org/1999/02/22-rdf-syntax-ns#" xmlns="http://www.w3.org/2000/svg" height="96" width="96" version="1.0" xmlns:cc="http://creativecommons.org/ns#" xmlns:xlink="http://www.w3.org/1999/xlink" xmlns:dc="http://purl.org/dc/elements/1.1/">
 <defs id="defs2410">
  <linearGradient id="linearGradient4384">
   <stop id="stop4386" style="stop-color:#fff" offset="0"/>
   <stop id="stop4388" style="stop-color:#fff;stop-opacity:0" offset="1"/>
  </linearGradient>
  <linearGradient id="ButtonShadow" y2="7.0165" gradientUnits="userSpaceOnUse" x2="45.448" gradientTransform="scale(1.0059 .99417)" y1="92.54" x1="45.448">
   <stop id="stop3750" offset="0"/>
   <stop id="stop3752" style="stop-opacity:.58824" offset="1"/>
  </linearGradient>
  <filter id="filter3174" color-interpolation-filters="sRGB">
   <feGaussianBlur id="feGaussianBlur3176" stdDeviation="1.71"/>
  </filter>
  <filter id="filter3794" height="1.384" width="1.384" color-interpolation-filters="sRGB" y="-.192" x="-.192">
   <feGaussianBlur id="feGaussianBlur3796" stdDeviation="5.28"/>
  </filter>
  <linearGradient id="linearGradient3613" y2="138.66" gradientUnits="userSpaceOnUse" x2="48" y1="20.221" x1="48">
   <stop id="stop3739" style="stop-color:#fff" offset="0"/>
   <stop id="stop3741" style="stop-color:#fff;stop-opacity:0" offset="1"/>
  </linearGradient>
  <linearGradient id="ButtonShadow-0" y2="7.0165" gradientUnits="userSpaceOnUse" x2="45.448" gradientTransform="matrix(1.0059 0 0 .99417 100 0)" y1="92.54" x1="45.448">
   <stop id="stop3750-8" offset="0"/>
   <stop id="stop3752-5" style="stop-opacity:.58824" offset="1"/>
  </linearGradient>
  <linearGradient id="linearGradient3780" y2="90.239" xlink:href="#ButtonShadow-0" gradientUnits="userSpaceOnUse" x2="32.251" gradientTransform="matrix(1.0238 0 0 1.0119 -1.1429 -98.071)" y1="6.1317" x1="32.251"/>
  <linearGradient id="linearGradient3721" y2="90.239" xlink:href="#ButtonShadow-0" gradientUnits="userSpaceOnUse" x2="32.251" gradientTransform="translate(0,-97)" y1="6.1317" x1="32.251"/>
  <clipPath id="clipPath4355">
   <rect id="rect4357" style="fill:#fff" rx="6" ry="6" height="80" width="84" y="6" x="6"/>
  </clipPath>
  <radialGradient id="radialGradient4375" gradientUnits="userSpaceOnUse" cy="87.792" cx="48" gradientTransform="matrix(1 -6.7115e-8 8.4282e-8 1.2558 110 -24.506)" r="42">
   <stop id="stop4369" style="stop-color:#fff;stop-opacity:.71756" offset="0"/>
   <stop id="stop4371" style="stop-color:#fff" offset="1"/>
  </radialGradient>
  <linearGradient id="linearGradient4390" y2="-40" xlink:href="#linearGradient4384" gradientUnits="userSpaceOnUse" x2="48" gradientTransform="matrix(1,0,0,-1,0,92)" y1="88" x1="48"/>
  <linearGradient id="linearGradient4429" y2="82.455" xlink:href="#linearGradient4384" spreadMethod="reflect" gradientUnits="userSpaceOnUse" x2="112.12" y1="82" x1="48"/>
  <linearGradient id="linearGradient3228" y2="88" spreadMethod="reflect" gradientUnits="userSpaceOnUse" x2="48" y1="88" x1="90">
   <stop id="stop3894" style="stop-opacity:.58824" offset="0"/>
   <stop id="stop3896" style="stop-opacity:.47059" offset=".11780"/>
   <stop id="stop3898" style="stop-opacity:.39216" offset=".23810"/>
   <stop id="stop3900" style="stop-opacity:.31373" offset="1"/>
  </linearGradient>
  <linearGradient id="linearGradient3161" y2="5.9877" gradientUnits="userSpaceOnUse" x2="48" y1="90" x1="48">
   <stop id="stop4083" style="stop-color:#8c8c8c" offset="0"/>
   <stop id="stop4085" style="stop-color:#dcdcdc" offset="1"/>
  </linearGradient>
  <linearGradient id="linearGradient4077-0" y2="66.233" xlink:href="#linearGradient4071-3" gradientUnits="userSpaceOnUse" x2="126.14" y1="48.047" x1="48.234"/>
  <linearGradient id="linearGradient4071-3">
   <stop id="stop4073-8" offset="0"/>
   <stop id="stop4075-4" style="stop-opacity:0" offset="1"/>
  </linearGradient>
  <linearGradient id="linearGradient4069-9" y2="62.839" xlink:href="#linearGradient4071-3" gradientUnits="userSpaceOnUse" x2="126.67" y1="48.032" x1="48.055"/>
  <linearGradient id="linearGradient4061-6" y2="60.29" xlink:href="#linearGradient4071-3" gradientUnits="userSpaceOnUse" x2="127.05" y1="48.029" x1="47.997"/>
  <linearGradient id="linearGradient4053-2" y2="57.665" xlink:href="#linearGradient4071-3" gradientUnits="userSpaceOnUse" x2="127.42" y1="48.029" x1="47.998"/>
  <radialGradient id="radialGradient3814-9" gradientUnits="userSpaceOnUse" cy="47.598" cx="48.41" gradientTransform="matrix(1 0 0 .98496 -30 .71591)" r="30.64">
   <stop id="stop3798-4" style="stop-color:#fff;stop-opacity:0" offset="0"/>
   <stop id="stop3800-9" style="stop-color:#fff" offset="1"/>
  </radialGradient>
  <radialGradient id="radialGradient5008" gradientUnits="userSpaceOnUse" cy="47.887" cx="48.265" gradientTransform="matrix(1 0 0 1.0138 -30 -.66141)" r="28.879">
   <stop id="stop3782-4" style="stop-opacity:0" offset="0"/>
   <stop id="stop3784-9" offset="1"/>
  </radialGradient>
  <linearGradient id="linearGradient4145-0" y2="66.233" xlink:href="#linearGradient4384" gradientUnits="userSpaceOnUse" x2="126.14" y1="48.047" x1="48.234"/>
  <linearGradient id="linearGradient4137-7" y2="62.839" xlink:href="#linearGradient4384" gradientUnits="userSpaceOnUse" x2="126.67" y1="48.032" x1="48.055"/>
  <linearGradient id="linearGradient4129-8" y2="60.29" xlink:href="#linearGradient4384" gradientUnits="userSpaceOnUse" x2="127.05" y1="48.029" x1="47.997"/>
  <linearGradient id="linearGradient4121-6" y2="57.665" xlink:href="#linearGradient4384" gradientUnits="userSpaceOnUse" x2="127.42" y1="48.029" x1="47.998"/>
  <clipPath id="clipPath4311">
   <rect id="rect4313" style="fill:#f0f" rx="6" ry="6" height="80" width="84" y="8" x="6"/>
  </clipPath>
  <linearGradient id="linearGradient3832" y2="79.814" gradientUnits="userSpaceOnUse" x2="49.485" gradientTransform="matrix(.90090 0 0 .90090 3.4189 4.0953)" y1="13.214" x1="49.485">
   <stop id="stop4283-9" style="stop-color:#1e1e1e" offset="0"/>
   <stop id="stop4285-8" style="stop-color:#505050" offset="1"/>
  </linearGradient>
  <clipPath id="clipPath3942">
   <path id="path3944" style="opacity:.8;fill:#f0f" d="m72.75 15.906c-0.45848 0-0.89696 0.17133-1.2188 0.5l-12.219 12.219h-5.5625c-0.45801-0.0037-0.92588 0.17638-1.25 0.5l-8.0938 8.0938c-0.65734 0.64358-0.65734 1.8564 0 2.5l9.906 9.906c0.33069 0.33042 0.78266 0.5112 1.25 0.5 0.44862-0.0037 0.90127-0.18301 1.2188-0.5l8.125-8.125c0.32362-0.32412 0.50366-0.76074 0.5-1.2188v-5.5938l12.188-12.187c0.65734-0.64358 0.65734-1.8564 0-2.5l-3.594-3.594c-0.32179-0.32867-0.79152-0.5-1.25-0.5zm-32.312 25.969c-0.44862 0.0037-0.90127 0.21426-1.2188 0.53125l-8.125 8.094c-0.32362 0.32412-0.50366 0.79199-0.5 1.25v5.5625l-12.188 12.219c-0.65734 0.64358-0.65734 1.8252 0 2.4688l3.594 3.593c0.64358 0.65734 1.8252 0.65734 2.4688 0l12.219-12.188h5.5625c0.45801 0.0037 0.92588-0.17638 1.25-0.5l8.0938-8.125c0.65734-0.64358 0.65734-1.8252 0-2.4688l-9.907-9.906c-0.33069-0.33042-0.78266-0.54246-1.25-0.53125z"/>
  </clipPath>
  <filter id="filter3946" color-interpolation-filters="sRGB">
   <feGaussianBlur id="feGaussianBlur3948" stdDeviation="0.90265505"/>
  </filter>
 </defs>
 <metadata id="metadata2413">
  <rdf:RDF>
   <cc:Work rdf:about="">
    <dc:format>image/svg+xml</dc:format>
    <dc:type rdf:resource="http://purl.org/dc/dcmitype/StillImage"/>
    <dc:title/>
   </cc:Work>
  </rdf:RDF>
 </metadata>
 <g id="layer2" style="display:none">
  <rect id="rect3745" style="opacity:.9;filter:url(#filter3174);fill:url(#ButtonShadow)" rx="6" ry="6" height="85" width="86" y="7" x="5"/>
 </g>
 <g id="layer3">
  <path id="path3786" style="opacity:0.08;fill:url(#linearGradient3780)" d="m12-95.031c-5.5111 0-10.031 4.5202-10.031 10.031v71c0 5.5111 4.5202 10.031 10.031 10.031h72c5.5111 0 10.031-4.5202 10.031-10.031v-71c0-5.5111-4.5202-10.031-10.031-10.031h-72z" transform="scale(1,-1)"/>
  <path id="path3778" style="opacity:.1;fill:url(#linearGradient3780)" d="m12-94.031c-4.9716 0-9.0312 4.0596-9.0312 9.0312v71c0 4.9716 4.0596 9.0312 9.0312 9.0312h72c4.9716 0 9.0312-4.0596 9.0312-9.0312v-71c0-4.9716-4.0596-9.0312-9.0312-9.0312h-72z" transform="scale(1,-1)"/>
  <path id="path3770" style="opacity:.2;fill:url(#linearGradient3780)" d="m12-93c-4.4091 0-8 3.5909-8 8v71c0 4.4091 3.5909 8 8 8h72c4.4091 0 8-3.5909 8-8v-71c0-4.4091-3.5909-8-8-8h-72z" transform="scale(1,-1)"/>
  <rect id="rect3723" style="opacity:.3;fill:url(#linearGradient3780)" transform="scale(1,-1)" rx="7" ry="7" height="85" width="86" y="-92" x="5"/>
  <rect id="rect3716" style="opacity:.45;fill:url(#linearGradient3721)" transform="scale(1,-1)" rx="6" ry="6" height="84" width="84" y="-91" x="6"/>
 </g>
 <g id="layer1">
  <rect id="rect2419-3" style="fill:url(#linearGradient3161)" rx="6" ry="6" height="84" width="84" y="6" x="6"/>
  <g id="g4165" transform="translate(0,-2)" clip-path="url(#clipPath4311)">
   <g id="g4011" style="opacity:.9" transform="matrix(.14137 .99272 -1.1652 .12045 96.937 -5.1947)">
    <path id="path4009" style="opacity:.05;color:#000000;fill:url(#linearGradient4077-0)" d="m108.9 48a60.896 60.896 0 0 1 -6.5462 27.467l-54.35-27.467z" transform="matrix(.99411 -.10837 .10837 .99411 -5.1582 5.4919)"/>
    <path id="path4007" style="opacity:0.07;color:#000000;fill:url(#linearGradient4069-9)" d="m108.9 48a60.896 60.896 0 0 1 -4.4572 22.869l-56.44-22.869z" transform="matrix(.99786 -.065374 .065374 .99786 -3.094 3.2416)"/>
    <path id="path4005" style="opacity:.1;color:#000000;fill:url(#linearGradient4061-6)" d="m108.9 48a60.896 60.896 0 0 1 -3.1299 19.272l-57.77-19.272z" transform="matrix(.99945 -.033121 .033121 .99945 -1.5635 1.6161)"/>
    <path id="path4003" style="opacity:.1;color:#000000;fill:url(#linearGradient4053-2)" d="m108.9 48a60.896 60.896 0 0 1 -2.075 15.761l-58.82-15.761z"/>
   </g>
   <g id="g3802" transform="matrix(1.8327 0 0 1.8327 14.258 -39.234)">
    <path id="path2875" style="opacity:.2;stroke:url(#radialGradient3814-9);stroke-width:.47875;fill:none" d="m19.196 49.867c-3.7383 2.563-5.6052-4.8991-1.155-4.812 4.3871-0.23608 3.9791 6.8014-0.14484 6.6146-3.1737 0.24264-5.0987-3.8987-3.1036-6.2853 2.0277-2.9808 7.1712-1.6842 7.7389 1.8175 0.96896 3.6362-3.1572 7.0386-6.5673 5.5229-3.9462-1.2697-4.4898-7.147-1.1071-9.3662 3.5697-2.7958 9.3917 0.23728 9.2058 4.7583 0.25677 4.3508-4.6893 7.6722-8.6482 5.9348-4.7194-1.5512-5.692-8.4202-1.9094-11.473 3.6589-3.435 10.363-1.4582 11.675 3.3588 1.5931 4.5594-2.0643 9.9214-6.9194 10.009-4.9341 0.46502-9.3835-4.3388-8.5226-9.2263 0.48048-5.0458 6.044-8.5972 10.839-7.0428 5.1784 1.2462 7.9642 7.5811 5.6619 12.315-2.0703 5.1795-9.0655 7.066-13.621 4.0018-5.1937-3.019-5.9263-10.893-1.749-15.07 4.296-4.829 12.905-3.785 16.13 1.741 3.588 5.436 0.745 13.65-5.446 15.695-6.086 2.396-13.647-1.743-14.738-8.237-1.4747-6.41 3.513-13.362 10.125-13.808 6.547-0.848 13.055 4.594 13.184 11.238 0.523 6.584-5.016 12.887-11.659 13.025-6.796 0.538-13.3-5.181-13.44-12.038-0.5528-7.008 5.345-13.715 12.417-13.857 7.223-0.57 14.129 5.518 14.276 12.799 0.544 7.071-5.079 13.91-12.151 14.606-7.06 1.019-14.41-3.962-15.813-11.012-1.7657-7.233 2.7908-15.364 10.015-17.379 7.396-2.396 16.205 1.872 18.685 9.293 2.829 7.457-1.114 16.692-8.577 19.625-7.624 3.345-17.458-0.452-20.711-8.155-3.6267-7.73 0.0276-17.902 7.832-21.439 7.827-3.917 18.336-0.419 22.166 7.477 4.217 7.914 0.888 18.76-7.088 22.89-7.991 4.527-19.172 1.382-23.611-6.665-4.8441-8.058-1.8978-19.571 6.209-24.326 7.972-5.073 19.561-2.547 24.767 5.318 5.623 7.877 3.599 19.843-4.151 25.573-7.618 6.053-19.659 4.732-25.992-2.574-6.5371-7.045-6.3484-18.848 0.0056-25.943 5.9692-7.142 17.094-8.694 25.012-3.988 7.87 4.287 11.778 14.219 9.324 22.774-2.103 8.654-10.4 15.241-19.316 15.262-9.351 0.375-18.515-6.176-20.825-15.313-2.8403-9.826 2.3763-21.277 11.857-25.282 9.8-4.531 22.58-0.439 27.807 9.04 5.626 9.457 2.708 22.791-6.297 29.09-8.847 6.617-22.359 5.123-29.763-2.992-7.4444-7.667-7.9889-20.556-1.7346-29.099 5.6922-8.332 17.147-11.703 26.557-8.289 9.341 3.005 16.04 12.41 15.838 22.219 0.143 10.289-6.983 20.254-16.957 23.049-10.921 3.426-23.853-1.921-28.876-12.275-5.5969-10.683-1.9008-25.098 8.1677-31.748 9.8773-6.965 24.558-5.161 32.664 3.725 8.12 8.388 8.871 22.382 2.264 31.88-5.872 9.029-17.788 13.194-28.077 10.261-10.334-2.561-18.453-12.028-19.261-22.667-1.2474-11.537 5.8426-23.476 16.82-27.472 11.762-4.671 26.426 0.214 32.851 11.167 6.963 11.11 4.255 26.939-5.848 35.24-9.018 7.808-23.123 8.436-33.026 1.904-9.3102-5.773-14.27-17.436-12.265-28.169 1.6444-10.784 10.062-20.17 20.686-22.756 11.827-3.17 25.393 2.05 31.78 12.56 6.786 10.594 5.379 25.435-2.951 34.783-7.206 8.462-19.472 11.822-30.072 8.71-10.579-2.807-19.154-11.944-21.08-22.748-2.4683-12.198 3.3554-25.652 14.214-31.864 11.255-6.7882 26.724-4.9539 36.275 3.9991 8.6483 7.7558 11.835 20.656 8.3267 31.654-2.022 6.6789-6.3258 12.653-12.119 16.565"/>
    <path id="path3650" style="opacity:.1;stroke:url(#radialGradient5008);stroke-width:.47875;fill:none" d="m16.909 49.337c-3.8859-1.8589 1.3687-6.9414 3.4117-3.2373 2.279 3.4987-3.7071 6.5071-5.513 3.024-1.7078-2.4969 0.78598-6.0492 3.6983-5.5412 3.4169 0.25246 4.7939 5.102 2.1816 7.2332-2.5323 2.5254-7.2934 0.74614-7.6664-2.7808-0.83017-3.8513 3.7489-7.0916 7.1828-5.362 3.9974 1.6095 4.2675 7.8427 0.45822 9.8381-3.459 2.2788-8.5429-0.21377-8.9943-4.2978-0.96594-4.6215 4.2255-8.6861 8.5353-7.0233 4.5659 1.3792 6.1246 7.8364 2.7832 11.205-2.9956 3.4778-9.1468 3.0156-11.526-0.93872-2.7274-3.8401-0.88788-9.785 3.5439-11.399 4.3813-2.0023 9.9481 0.8892 10.947 5.5743 1.435 4.8543-2.4551 10.158-7.4458 10.512-5.2468 0.75731-10.124-4.1037-9.7664-9.3095 0.01802-5.7097 6.1502-10.054 11.573-8.6004 6.0158 1.2412 9.2475 8.8224 6.232 14.102-2.7696 5.5367-10.88 7.1-15.506 2.9765-4.8644-3.8703-5.051-12.061-0.2246-16.044 4.5753-4.26 12.667-3.4584 16.177 1.7717 3.809 4.9861 2.4225 12.928-2.9849 16.191-5.17 3.559-12.99 1.995-16.26-3.407-3.6723-5.338-2.0567-13.409 3.521-16.782 5.5054-3.7848 13.829-2.1176 17.306 3.6355 3.9019 5.6738 2.1722 14.252-3.7509 17.832-5.561 3.806-13.862 2.429-17.796-3.061-4.1935-5.327-3.5858-13.743 1.5496-18.248 5.114-4.8903 13.972-5.0041 19.064-0.0154 5.4857 4.9484 6.1591 14.227 1.2302 19.795-4.7938 5.8719-14.268 7.0146-20.228 2.2654-6.3771-4.685-7.9251-14.583-3.1307-20.921 4.6389-6.6583 14.748-8.4844 21.367-3.7419 6.9435 4.5805 9.0581 14.893 4.3795 21.797-4.5098 7.2319-15.018 9.6462-22.208 5.0438-7.5228-4.4262-10.247-15.123-5.7334-22.6 4.3297-7.8161 15.206-10.862 22.972-6.4494 7.9638 4.1507 11.391 14.89 7.3919 22.912-3.811 8.37-14.622 12.391-23.021 8.734-8.6022-3.393-13.237-13.932-10.232-22.616 2.6917-8.728 12.496-14.181 21.355-12.323 8.7143 1.5195 15.279 9.9382 15.168 18.692 0.21089 8.5145-6.1061 16.451-14.314 18.497-8.122 2.38-17.486-1.318-21.74-8.647-4.7527-7.518-3.7156-18.174 2.7072-24.416 6.7378-7.008 18.641-8.155 26.444-2.255 8.385 5.912 11.091 18.375 5.772 27.182-5.11 9.125-17.471 13.059-26.934 8.641-9.6501-4.137-14.842-15.969-11.681-25.919 2.7728-9.77 13.122-16.343 23.126-15.255 9.563 0.725 17.78 8.551 19.441 17.919 1.966 9.116-2.591 19.099-10.761 23.593-8.4 5.008-19.988 3.878-27.028-3.004-8.0092-7.36-9.7539-20.544-3.6191-29.599 6.1331-9.683 19.754-13.491 30.012-8.364 10.427 4.82 15.918 17.76 12.456 28.655-3.045 10.669-14.207 17.937-25.163 17.012-10.222-0.542-19.313-8.37-21.788-18.233-2.8025-9.722 1.1312-20.904 9.5037-26.624 8.9031-6.5096 22.099-6.3475 30.604 0.789 9.4344 7.4613 12.381 21.852 6.4198 32.345-5.836 11.011-20.151 16.303-31.784 11.933-10.712-3.712-17.932-15.023-17.261-26.278 0.3269-10.406 7.5699-20.031 17.356-23.48 9.658-3.772 21.383-1.303 28.559 6.212 8.23 8.228 10.38 21.874 4.764 32.125-5.494 10.62-18.378 16.514-30.03 14.1-10.389-1.91-18.983-10.409-21.459-20.612-2.717-10.041 0.7284-21.441 8.7055-28.16 8.8671-7.828 22.708-9.428 32.98-3.442 10.936 6.037 16.777 19.641 13.947 31.756-2.274 10.804-11.377 19.557-22.097 21.896-6.458 1.509-13.42 0.806-19.393-2.103"/>
   </g>
   <g id="g4027" style="opacity:.9;fill:#fff" transform="matrix(1.0628 -.13088 -.74010 3.2275 32.525 -100.67)">
    <path id="path4029" style="opacity:.2;color:#000000;fill:url(#linearGradient4145-0)" d="m108.9 48a60.896 60.896 0 0 1 -6.5462 27.467l-54.35-27.467z" transform="matrix(.99411 -.10837 .10837 .99411 -5.1582 5.4919)"/>
    <path id="path4031" style="opacity:.4;color:#000000;fill:url(#linearGradient4137-7)" d="m108.9 48a60.896 60.896 0 0 1 -4.4572 22.869l-56.44-22.869z" transform="matrix(.99786 -.065374 .065374 .99786 -3.094 3.2416)"/>
    <path id="path4033" style="opacity:.6;color:#000000;fill:url(#linearGradient4129-8)" d="m108.9 48a60.896 60.896 0 0 1 -3.1299 19.272l-57.77-19.272z" transform="matrix(.99945 -.033121 .033121 .99945 -1.5635 1.6161)"/>
    <path id="path4035" style="opacity:.8;color:#000000;fill:url(#linearGradient4121-6)" d="m108.9 48a60.896 60.896 0 0 1 -2.075 15.761l-58.82-15.761z"/>
   </g>
   <g id="g4079" style="opacity:.5" transform="matrix(-.61679 .78713 -.78713 -.61679 115 40.012)">
    <path id="path4081" style="opacity:.05;color:#000000;fill:url(#linearGradient4077-0)" d="m108.9 48a60.896 60.896 0 0 1 -6.5462 27.467l-54.35-27.467z" transform="matrix(.99411 -.10837 .10837 .99411 -5.1582 5.4919)"/>
    <path id="path4083" style="opacity:0.07;color:#000000;fill:url(#linearGradient4069-9)" d="m108.9 48a60.896 60.896 0 0 1 -4.4572 22.869l-56.44-22.869z" transform="matrix(.99786 -.065374 .065374 .99786 -3.094 3.2416)"/>
    <path id="path4085" style="opacity:.1;color:#000000;fill:url(#linearGradient4061-6)" d="m108.9 48a60.896 60.896 0 0 1 -3.1299 19.272l-57.77-19.272z" transform="matrix(.99945 -.033121 .033121 .99945 -1.5635 1.6161)"/>
    <path id="path4087" style="opacity:.1;color:#000000;fill:url(#linearGradient4053-2)" d="m108.9 48a60.896 60.896 0 0 1 -2.075 15.761l-58.82-15.761z"/>
   </g>
   <g id="g4097" style="opacity:.8" transform="matrix(-.068172 -1.046 2.7107 .60163 -79.095 69.08)">
    <path id="path4099" style="opacity:.05;color:#000000;fill:url(#linearGradient4077-0)" d="m108.9 48a60.896 60.896 0 0 1 -6.5462 27.467l-54.35-27.467z" transform="matrix(.99411 -.10837 .10837 .99411 -5.1582 5.4919)"/>
    <path id="path4101" style="opacity:0.07;color:#000000;fill:url(#linearGradient4069-9)" d="m108.9 48a60.896 60.896 0 0 1 -4.4572 22.869l-56.44-22.869z" transform="matrix(.99786 -.065374 .065374 .99786 -3.094 3.2416)"/>
    <path id="path4103" style="opacity:.1;color:#000000;fill:url(#linearGradient4061-6)" d="m108.9 48a60.896 60.896 0 0 1 -3.1299 19.272l-57.77-19.272z" transform="matrix(.99945 -.033121 .033121 .99945 -1.5635 1.6161)"/>
    <path id="path4105" style="opacity:.1;color:#000000;fill:url(#linearGradient4053-2)" d="m108.9 48a60.896 60.896 0 0 1 -2.075 15.761l-58.82-15.761z"/>
   </g>
   <g id="g4147" style="opacity:.9;fill:#fff" transform="matrix(-1.0628 .13088 .74010 -3.2275 62.997 196.67)">
    <path id="path4149" style="opacity:.2;color:#000000;fill:url(#linearGradient4145-0)" d="m108.9 48a60.896 60.896 0 0 1 -6.5462 27.467l-54.35-27.467z" transform="matrix(.99411 -.10837 .10837 .99411 -5.1582 5.4919)"/>
    <path id="path4151" style="opacity:.4;color:#000000;fill:url(#linearGradient4137-7)" d="m108.9 48a60.896 60.896 0 0 1 -4.4572 22.869l-56.44-22.869z" transform="matrix(.99786 -.065374 .065374 .99786 -3.094 3.2416)"/>
    <path id="path4153" style="opacity:.6;color:#000000;fill:url(#linearGradient4129-8)" d="m108.9 48a60.896 60.896 0 0 1 -3.1299 19.272l-57.77-19.272z" transform="matrix(.99945 -.033121 .033121 .99945 -1.5635 1.6161)"/>
    <path id="path4155" style="opacity:.8;color:#000000;fill:url(#linearGradient4121-6)" d="m108.9 48a60.896 60.896 0 0 1 -2.075 15.761l-58.82-15.761z"/>
   </g>
  </g>
  <path id="rect4359" style="opacity:.2;fill:url(#radialGradient4375)" d="m120.78 6.125c-2.74 0.5576-4.78 2.9665-4.78 5.875v68c0 3.324 2.676 6 6 6h72c3.324 0 6-2.676 6-6v-68c0-2.9085-2.0422-5.3174-4.7812-5.875 2.2051 0.53621 3.8125 2.4908 3.8125 4.875v68c0 2.8049-2.2264 5.0312-5.0312 5.0312h-72c-2.8049 0-5.0312-2.2264-5.0312-5.0312v-68c0-2.3842 1.6074-4.3388 3.8125-4.875z"/>
  <path id="rect4377" style="opacity:.4;fill:url(#linearGradient4390)" d="m12 86c-3.324 0-6-2.676-6-6v-68c0-3.324 2.676-6 6-6h72c3.324 0 6 2.676 6 6v68c0 3.324-2.676 6-6 6zm0-0.96875h72c2.8049 0 5.0312-2.2264 5.0312-5.0312v-68c0-2.8049-2.226-5.0312-5.031-5.0312h-72c-2.8049 0-5.0312 2.2263-5.0312 5.0312v68c0 2.8049 2.2264 5.0312 5.0312 5.0312z"/>
  <path id="rect4414" style="opacity:.1;fill:url(#linearGradient4429)" d="m6 78v2c0 3.324 2.676 6 6 6h72c3.324 0 6-2.676 6-6v-2c0 3.324-2.676 6-6 6h-72c-3.324 0-6-2.676-6-6z"/>
  <path id="path4412" style="opacity:.15" d="m6 100v1c0 3.324 2.676 6 6 6h72c3.324 0 6-2.676 6-6v-1c0 3.324-2.676 6-6 6h-72c-3.324 0-6-2.676-6-6z"/>
 </g>
 <g id="layer4">
  <path id="path3888" style="fill:url(#linearGradient3228)" d="m6 80v4c0 3.324 2.676 6 6 6h72c3.324 0 6-2.676 6-6v-4c0 3.324-2.676 6-6 6h-72c-3.324 0-6-2.676-6-6z"/>
  <path id="rect4345" style="opacity:.1;color:#000000" d="m6 82v2c0 3.324 2.676 6 6 6h72c3.324 0 6-2.676 6-6v-2c0 3.324-2.676 6-6 6h-72c-3.324 0-6-2.676-6-6z"/>
  <path id="rect4336" style="opacity:.15;color:#000000" d="m6 83v1c0 3.324 2.676 6 6 6h72c3.324 0 6-2.676 6-6v-1c0 3.324-2.676 6-6 6h-72c-3.324 0-6-2.676-6-6z"/>
 </g>
 <g id="layer5" style="display:none">
  <rect id="rect3171" style="opacity:.1;filter:url(#filter3794);stroke:#fff;stroke-linecap:round;stroke-width:.5;fill:url(#linearGradient3613)" clip-path="url(#clipPath4355)" rx="12" ry="12" height="62" width="66" y="15" x="15"/>
 </g>
 <g id="layer6">
  <path id="path3853" style="opacity:.6;fill:#fff" d="m78.031 21.75c-0.07587 0.28444-0.22766 0.54455-0.4375 0.75l-12.188 12.188v1l12.188-12.188c0.44749-0.43813 0.59929-1.1434 0.4375-1.75zm-34.062 17.219c-0.16179 0.60657-0.01 1.3119 0.4375 1.75l9.906 9.906c0.33069 0.33042 0.78266 0.5112 1.25 0.5 0.44862-0.0037 0.90127-0.18301 1.2188-0.5l8.125-8.125c0.32362-0.32412 0.50366-0.76074 0.5-1.2188v-1c0.0037 0.45801-0.17638 0.89463-0.5 1.2188l-8.125 8.125c-0.31748 0.31699-0.77012 0.4963-1.2188 0.5-0.46734 0.0112-0.91931-0.16958-1.25-0.5l-9.9062-9.9062c-0.20984-0.20545-0.36163-0.46556-0.4375-0.75zm8.031 15.093c-0.07808 0.26663-0.20526 0.52196-0.40625 0.71875l-8.094 8.125c-0.32412 0.32362-0.79199 0.5037-1.25 0.5h-5.5625l-12.219 12.188c-0.64358 0.65734-1.8252 0.65734-2.4688 0l-3.593-3.594c-0.208-0.204-0.33-0.473-0.406-0.75-0.177 0.605-0.05 1.303 0.406 1.75l3.594 3.594c0.64358 0.65734 1.8252 0.65734 2.4688 0l12.219-12.188h5.5625c0.45801 0.0037 0.92588-0.17638 1.25-0.5l8.0938-8.125c0.448-0.44 0.57-1.119 0.405-1.719z"/>
  <path id="path3804" style="opacity:.8;fill:url(#linearGradient3832)" d="m72.75 15.906c-0.45848 0-0.89696 0.17133-1.2188 0.5l-12.219 12.219h-5.5625c-0.45801-0.0037-0.92588 0.17638-1.25 0.5l-8.0938 8.0938c-0.65734 0.64358-0.65734 1.8564 0 2.5l9.906 9.906c0.33069 0.33042 0.78266 0.5112 1.25 0.5 0.44862-0.0037 0.90127-0.18301 1.2188-0.5l8.125-8.125c0.32362-0.32412 0.50366-0.76074 0.5-1.2188v-5.5938l12.188-12.187c0.65734-0.64358 0.65734-1.8564 0-2.5l-3.594-3.594c-0.32179-0.32867-0.79152-0.5-1.25-0.5zm-32.312 25.969c-0.44862 0.0037-0.90127 0.21426-1.2188 0.53125l-8.125 8.094c-0.32362 0.32412-0.50366 0.79199-0.5 1.25v5.5625l-12.188 12.219c-0.65734 0.64358-0.65734 1.8252 0 2.4688l3.594 3.593c0.64358 0.65734 1.8252 0.65734 2.4688 0l12.219-12.188h5.5625c0.45801 0.0037 0.92588-0.17638 1.25-0.5l8.0938-8.125c0.65734-0.64358 0.65734-1.8252 0-2.4688l-9.907-9.906c-0.33069-0.33042-0.78266-0.54246-1.25-0.53125z"/>
  <path id="path3935" style="opacity:.4;filter:url(#filter3946);stroke:#000;stroke-width:2;fill:none" clip-path="url(#clipPath3942)" d="m72.75 16.906c-0.45848 0-0.89696 0.17133-1.2188 0.5l-12.219 12.219h-5.5625c-0.45801-0.0037-0.92588 0.17638-1.25 0.5l-8.0938 8.0938c-0.65734 0.64358-0.65734 1.8564 0 2.5l9.906 9.906c0.33069 0.33042 0.78266 0.5112 1.25 0.5 0.44862-0.0037 0.90127-0.18301 1.2188-0.5l8.125-8.125c0.32362-0.32412 0.50366-0.76074 0.5-1.2188v-5.5938l12.188-12.187c0.65734-0.64358 0.65734-1.8564 0-2.5l-3.594-3.594c-0.32179-0.32867-0.79152-0.5-1.25-0.5zm-32.312 25.969c-0.44862 0.0037-0.90127 0.21426-1.2188 0.53125l-8.125 8.094c-0.32362 0.32412-0.50366 0.79199-0.5 1.25v5.5625l-12.188 12.219c-0.65734 0.64358-0.65734 1.8252 0 2.4688l3.594 3.593c0.64358 0.65734 1.8252 0.65734 2.4688 0l12.219-12.188h5.5625c0.45801 0.0037 0.92588-0.17638 1.25-0.5l8.0938-8.125c0.65734-0.64358 0.65734-1.8252 0-2.4688l-9.907-9.906c-0.33069-0.33042-0.78266-0.54246-1.25-0.53125z"/>
 </g>
</svg>
