<?xml version="1.0" encoding="UTF-8" standalone="no"?>
<!-- Created with Inkscape (http://www.inkscape.org/) -->
<svg id="svg2" xmlns:rdf="http://www.w3.org/1999/02/22-rdf-syntax-ns#" xmlns="http://www.w3.org/2000/svg" height="16" width="16" version="1.0" xmlns:cc="http://creativecommons.org/ns#" xmlns:dc="http://purl.org/dc/elements/1.1/">
 <metadata id="metadata7">
  <rdf:RDF>
   <cc:Work rdf:about="">
    <dc:format>image/svg+xml</dc:format>
    <dc:type rdf:resource="http://purl.org/dc/dcmitype/StillImage"/>
    <dc:title/>
   </cc:Work>
  </rdf:RDF>
 </metadata>
 <g id="layer1" transform="translate(0,-6)">
  <path id="path3018" style="fill:#bebebe" d="m8 0s-2 3-6 3c0 11 6 13 6 13s6-2 6-13c-4 0-6-3-6-3zm0 3c0.9002 0.7402 2.082 1.3257 3.688 1.75-0.28 3.9231-1.384 6.221-2.4068 7.5-0.5348 0.669-0.9398 1.038-1.2812 1.281-0.3414-0.243-0.7464-0.612-1.2812-1.281-1.0232-1.279-2.1266-3.5769-2.4063-7.5 1.6054-0.4243 2.7873-1.0098 3.6875-1.75z" transform="translate(0,6)"/>
  <path id="path3797" style="opacity:.45;fill:#bebebe" d="m8 4c-0.7519 0.5264-1.6526 0.9648-2.7188 1.3125 0.3483 3.3104 1.2585 5.3625 2.0938 6.4065 0.2773 0.346 0.4306 0.44 0.625 0.625 0.1944-0.185 0.3477-0.279 0.625-0.625 0.8353-1.044 1.746-3.0961 2.094-6.4065-1.0664-0.3477-1.9671-0.7861-2.719-1.3125z" transform="translate(0,6)"/>
 </g>
</svg>
