<?xml version="1.0" encoding="UTF-8" standalone="no"?>
<!-- Created with Inkscape (http://www.inkscape.org/) -->
<svg id="svg2" xmlns:rdf="http://www.w3.org/1999/02/22-rdf-syntax-ns#" xmlns="http://www.w3.org/2000/svg" height="16" width="16" version="1.0" xmlns:cc="http://creativecommons.org/ns#" xmlns:xlink="http://www.w3.org/1999/xlink" xmlns:dc="http://purl.org/dc/elements/1.1/">
 <metadata id="metadata7">
  <rdf:RDF>
   <cc:Work rdf:about="">
    <dc:format>image/svg+xml</dc:format>
    <dc:type rdf:resource="http://purl.org/dc/dcmitype/StillImage"/>
   </cc:Work>
  </rdf:RDF>
 </metadata>
 <g id="layer3" transform="translate(-.46426 -3)">
  <path id="path2892" style="opacity:.45;fill:#bebebe" d="m8 2c-3.866 0-7 2.4101-7 6 0 3.59 3.134 6 7 6 1.065 0 2.065-0.23 2.969-0.625l4.031 1.625-1.438-3.562c0.904-1.095 1.438-1.9524 1.438-3.438 0-3.5899-3.134-6-7-6zm-2 2l2 2 2-2 2 2-2 2 2 2-2 2-2-2-2 2-2-2 2-2-2-2 2-2z" transform="translate(.46426 3)"/>
 </g>
</svg>
