<?xml version="1.0" encoding="UTF-8" standalone="no"?>
<!-- Created with Inkscape (http://www.inkscape.org/) -->
<svg id="svg2408" xmlns:rdf="http://www.w3.org/1999/02/22-rdf-syntax-ns#" xmlns="http://www.w3.org/2000/svg" height="96" width="96" version="1.0" xmlns:cc="http://creativecommons.org/ns#" xmlns:xlink="http://www.w3.org/1999/xlink" xmlns:dc="http://purl.org/dc/elements/1.1/">
 <defs id="defs2410">
  <linearGradient id="ButtonShadow" y2="7.0165" gradientUnits="userSpaceOnUse" x2="45.448" gradientTransform="scale(1.0059 .99417)" y1="92.54" x1="45.448">
   <stop id="stop3750" offset="0"/>
   <stop id="stop3752" style="stop-opacity:.58824" offset="1"/>
  </linearGradient>
  <filter id="filter3174" color-interpolation-filters="sRGB">
   <feGaussianBlur id="feGaussianBlur3176" stdDeviation="1.71"/>
  </filter>
  <filter id="filter3794" height="1.384" width="1.384" color-interpolation-filters="sRGB" y="-.192" x="-.192">
   <feGaussianBlur id="feGaussianBlur3796" stdDeviation="5.28"/>
  </filter>
  <linearGradient id="linearGradient3613" y2="138.66" gradientUnits="userSpaceOnUse" x2="48" y1="20.221" x1="48">
   <stop id="stop3739" style="stop-color:#fff" offset="0"/>
   <stop id="stop3741" style="stop-color:#fff;stop-opacity:0" offset="1"/>
  </linearGradient>
  <linearGradient id="ButtonShadow-0" y2="7.0165" gradientUnits="userSpaceOnUse" x2="45.448" gradientTransform="matrix(1.0059 0 0 .99417 100 0)" y1="92.54" x1="45.448">
   <stop id="stop3750-8" offset="0"/>
   <stop id="stop3752-5" style="stop-opacity:.58824" offset="1"/>
  </linearGradient>
  <linearGradient id="linearGradient3780" y2="90.239" xlink:href="#ButtonShadow-0" gradientUnits="userSpaceOnUse" x2="32.251" gradientTransform="matrix(1.0238 0 0 1.0119 -1.1429 -98.071)" y1="6.1317" x1="32.251"/>
  <linearGradient id="linearGradient3721" y2="90.239" xlink:href="#ButtonShadow-0" gradientUnits="userSpaceOnUse" x2="32.251" gradientTransform="translate(0,-97)" y1="6.1317" x1="32.251"/>
  <clipPath id="clipPath4355">
   <rect id="rect4357" style="fill:#fff" rx="6" ry="6" height="80" width="84" y="6" x="6"/>
  </clipPath>
  <radialGradient id="radialGradient4375" gradientUnits="userSpaceOnUse" cy="87.792" cx="48" gradientTransform="matrix(1 -6.7115e-8 8.4282e-8 1.2558 110 -24.506)" r="42">
   <stop id="stop4369" style="stop-color:#fff;stop-opacity:.71756" offset="0"/>
   <stop id="stop4371" style="stop-color:#fff" offset="1"/>
  </radialGradient>
  <linearGradient id="linearGradient3228" y2="88" spreadMethod="reflect" gradientUnits="userSpaceOnUse" x2="48" y1="88" x1="90">
   <stop id="stop3894" style="stop-opacity:.58824" offset="0"/>
   <stop id="stop3896" style="stop-opacity:.47059" offset=".11780"/>
   <stop id="stop3898" style="stop-opacity:.39216" offset=".23810"/>
   <stop id="stop3900" style="stop-opacity:.31373" offset="1"/>
  </linearGradient>
  <linearGradient id="linearGradient4384-7">
   <stop id="stop4386-8" style="stop-color:#fff" offset="0"/>
   <stop id="stop4388-2" style="stop-color:#fff;stop-opacity:0" offset="1"/>
  </linearGradient>
  <linearGradient id="linearGradient4429-5" y2="82.455" xlink:href="#linearGradient4384-7" spreadMethod="reflect" gradientUnits="userSpaceOnUse" x2="112.12" y1="82" x1="48"/>
  <linearGradient id="linearGradient3672" y2="-40" xlink:href="#linearGradient4384-7" gradientUnits="userSpaceOnUse" x2="48" gradientTransform="matrix(1,0,0,-1,0,92)" y1="88" x1="48"/>
  <clipPath id="clipPath4076-5">
   <rect id="rect4078-9" style="fill:#f0f" rx="6" ry="6" height="84" width="84" y="6" x="6"/>
  </clipPath>
  <radialGradient id="radialGradient3763" xlink:href="#linearGradient4384-7" gradientUnits="userSpaceOnUse" cy="37.73" cx="46.917" gradientTransform="matrix(1 0 0 .29360 0 26.652)" r="57.435"/>
  <filter id="filter3850" height="2.3168" width="1.2935" color-interpolation-filters="sRGB" y="-.65842" x="-.14674">
   <feGaussianBlur id="feGaussianBlur3852" stdDeviation="6.333489"/>
  </filter>
  <filter id="filter3866" height="1.5993" width="1.2573" color-interpolation-filters="sRGB" y="-.29965" x="-.12864">
   <feGaussianBlur id="feGaussianBlur3868" stdDeviation="3.5967545"/>
  </filter>
  <filter id="filter3886" height="1.3459" width="1.1838" color-interpolation-filters="sRGB" y="-.17294" x="-.091876">
   <feGaussianBlur id="feGaussianBlur3888" stdDeviation="2.6148777"/>
  </filter>
  <filter id="filter3895" height="1.7654" width="1.1423" color-interpolation-filters="sRGB" y="-.38268" x="-.071157">
   <feGaussianBlur id="feGaussianBlur3897" stdDeviation="1.9987577"/>
  </filter>
  <filter id="filter3966" height="2.1315" width="1.3046" color-interpolation-filters="sRGB" y="-.56575" x="-.15231">
   <feGaussianBlur id="feGaussianBlur3968" stdDeviation="3.3648619"/>
  </filter>
  <linearGradient id="linearGradient3186" y2="5.9877" gradientUnits="userSpaceOnUse" x2="48" y1="90" x1="48">
   <stop id="stop3702-0" style="stop-color:#808080" offset="0"/>
   <stop id="stop3704-8" style="stop-color:#cecece" offset="1"/>
  </linearGradient>
  <linearGradient id="linearGradient3901" y2="32" gradientUnits="userSpaceOnUse" x2="72" gradientTransform="translate(-4,-4)" y1="80" x1="72">
   <stop id="stop3890" style="stop-color:#fff" offset="0"/>
   <stop id="stop3892" style="stop-color:#fff;stop-opacity:0" offset="1"/>
  </linearGradient>
 </defs>
 <metadata id="metadata2413">
  <rdf:RDF>
   <cc:Work rdf:about="">
    <dc:format>image/svg+xml</dc:format>
    <dc:type rdf:resource="http://purl.org/dc/dcmitype/StillImage"/>
    <dc:title/>
   </cc:Work>
  </rdf:RDF>
 </metadata>
 <g id="layer2" style="display:none">
  <rect id="rect3745" style="opacity:.9;filter:url(#filter3174);fill:url(#ButtonShadow)" rx="6" ry="6" height="85" width="86" y="7" x="5"/>
 </g>
 <g id="layer3">
  <path id="path3786" style="opacity:0.08;fill:url(#linearGradient3780)" d="m12-95.031c-5.5111 0-10.031 4.5202-10.031 10.031v71c0 5.5111 4.5202 10.031 10.031 10.031h72c5.5111 0 10.031-4.5202 10.031-10.031v-71c0-5.5111-4.5202-10.031-10.031-10.031h-72z" transform="scale(1,-1)"/>
  <path id="path3778" style="opacity:.1;fill:url(#linearGradient3780)" d="m12-94.031c-4.9716 0-9.0312 4.0596-9.0312 9.0312v71c0 4.9716 4.0596 9.0312 9.0312 9.0312h72c4.9716 0 9.0312-4.0596 9.0312-9.0312v-71c0-4.9716-4.0596-9.0312-9.0312-9.0312h-72z" transform="scale(1,-1)"/>
  <path id="path3770" style="opacity:.2;fill:url(#linearGradient3780)" d="m12-93c-4.4091 0-8 3.5909-8 8v71c0 4.4091 3.5909 8 8 8h72c4.4091 0 8-3.5909 8-8v-71c0-4.4091-3.5909-8-8-8h-72z" transform="scale(1,-1)"/>
  <rect id="rect3723" style="opacity:.3;fill:url(#linearGradient3780)" transform="scale(1,-1)" rx="7" ry="7" height="85" width="86" y="-92" x="5"/>
  <rect id="rect3716" style="opacity:.45;fill:url(#linearGradient3721)" transform="scale(1,-1)" rx="6" ry="6" height="84" width="84" y="-91" x="6"/>
 </g>
 <g id="layer1">
  <rect id="rect2419" style="fill:url(#linearGradient3186)" rx="6" ry="6" height="84" width="84" y="6" x="6"/>
  <path id="rect4359" style="opacity:.2;fill:url(#radialGradient4375)" d="m120.78 6.125c-2.74 0.5576-4.78 2.9665-4.78 5.875v68c0 3.324 2.676 6 6 6h72c3.324 0 6-2.676 6-6v-68c0-2.9085-2.0422-5.3174-4.7812-5.875 2.2051 0.53621 3.8125 2.4908 3.8125 4.875v68c0 2.8049-2.2264 5.0312-5.0312 5.0312h-72c-2.8049 0-5.0312-2.2264-5.0312-5.0312v-68c0-2.3842 1.6074-4.3388 3.8125-4.875z"/>
  <path id="path4412" style="opacity:.15" d="m6 100v1c0 3.324 2.676 6 6 6h72c3.324 0 6-2.676 6-6v-1c0 3.324-2.676 6-6 6h-72c-3.324 0-6-2.676-6-6z"/>
 </g>
 <g id="layer5" style="display:none">
  <rect id="rect3171" style="opacity:.1;filter:url(#filter3794);stroke:#fff;stroke-linecap:round;stroke-width:.5;fill:url(#linearGradient3613)" clip-path="url(#clipPath4355)" rx="12" ry="12" height="62" width="66" y="15" x="15"/>
 </g>
 <g id="layer7">
  <g id="g4062" clip-path="url(#clipPath4076-5)">
   <path id="path3761" style="opacity:.4;color:#000000;fill:url(#radialGradient3763)" d="m104.35 37.73a57.435 16.863 0 1 1 -114.87 0 57.435 16.863 0 1 1 114.87 0z" transform="matrix(1.2791 0 0 1.4084 -17.935 22.541)"/>
   <path id="path2955" style="opacity:.3;color:#000000;fill:url(#radialGradient3763)" d="m104.35 37.73a57.435 16.863 0 1 1 -114.87 0 57.435 16.863 0 1 1 114.87 0z" transform="matrix(1 0 0 .83663 0 8.9187)"/>
   <path id="path3737" style="opacity:.4;color:#000000;fill:url(#radialGradient3763)" d="m104.35 37.73a57.435 16.863 0 1 1 -114.87 0 57.435 16.863 0 1 1 114.87 0z" transform="matrix(1 0 0 1.0198 -20.87 19.955)"/>
   <path id="path3749" style="opacity:.3;color:#000000;fill:url(#radialGradient3763)" d="m104.35 37.73a57.435 16.863 0 1 1 -114.87 0 57.435 16.863 0 1 1 114.87 0z" transform="matrix(1 0 0 .83663 -9.6839 56.336)"/>
   <path id="path3753" style="opacity:.4;color:#000000;fill:url(#radialGradient3763)" d="m104.35 37.73a57.435 16.863 0 1 1 -114.87 0 57.435 16.863 0 1 1 114.87 0z" transform="matrix(.70388 0 0 .71782 36.744 -14.149)"/>
   <path id="path3757" style="opacity:.2;color:#000000;fill:url(#radialGradient3763)" d="m104.35 37.73a57.435 16.863 0 1 1 -114.87 0 57.435 16.863 0 1 1 114.87 0z" transform="matrix(.94049 0 0 .30888 19.076 41.019)"/>
   <path id="path3789" style="opacity:.2;filter:url(#filter3850);fill:#fff" d="m60.107 22.536c-12.445-0.968-24.995-0.114-37.387-1.831-1.0872 2.848 7.2073 5.1241 1.9631 6.5651-6.663 0.29957-13.57-1.6999-20.029 0.72023-3.0093-1.9162-12.023 0.31463-7.3489 4.2227 4.2478 1.6913 8.4882-1.5443 12.806-0.68058 7.56-0.02414 15.438-1.2992 22.695 1.4798 3.5759 2.8759 5.452 9.8227 11.215 8.3557 13.124-1.8173 26.393-1.2454 39.564-0.36128 4.5354 0.25513 9.0758 0.4672 13.619 0.46099 3.8269 1.9617 2.5203-5.6487-0.45914-2.7119-7.9777 0.03327-15.795-3.692-23.786-1.8433-3.7243-1.5914 0.7425-11.04-5.6427-7.8654-5.2755 0.84648-4.6422-8.358 0.65412-5.6777 3.5556 0.60586 10.825 3.0378 11.16-2.5553-2.9854-4.4681-8.3899-0.44889-12.446-0.34985-2.2725 0.36518-4.6006 0.82921-6.5785 2.0716z"/>
   <path id="path3854" style="opacity:.1;filter:url(#filter3866);fill:#fff" d="m-1.3357 52.089c6.7325-1.211 13.591-0.486 20.383-0.668-0.39192 2.1712-6.5855 1.0721-4.3429 3.4948 4.264 0.86118 8.6545 0.3193 12.955 0.60079 1.6735-0.71233 6.1403 1.4816 2.6598 2.3976-1.0253-0.20768-4.3455-0.26456-3.2909 1.0763 3.9797 0.45924 7.992 0.68318 11.985 0.31094 8.7176 0.05365 17.433-0.20634 26.15-0.15853 2.4574 2.0801-3.2324 2.2528-4.6868 2.115-1.2123-0.29603-5.7351-0.25417-3.988 1.5112 1.3115 0.18199 5.5629-0.09401 3.8831 1.9302-5.4228 1.3808-11.102-0.20408-16.537 1.183-5.338 0.80643-10.831 0.99872-15.96 2.8339-2.1351 3.2596 3.4472 3.4221 5.4632 2.8981 3.4668 0.14215 6.9765-0.2141 10.416 0.16043 1.3655 0.02787 5.3206 1.086 2.4968 2.4582-5.0295 1.0518-10.208 0.33561-15.284 0.96121-5.8098 0.25646-11.627 0.29084-17.441 0.26958-0.15892 3.2826 5.9322 0.50962 5.1344 3.8826-5.057 1.383-10.331 0.568-15.49 0.787-2.7817-0.676-2.2891-4.108-1.3016-6.079 2.7885-5.188 2.3413-11.268 2.358-16.963-0.012-3.303-3.779-3.947-5.5611-5.002z"/>
   <path id="path3870" style="opacity:.1;filter:url(#filter3886);fill:#fff" d="m61.609 37.563c-11.632 0.000052-23.264-0.000069-34.895 0-1.1592 0.39416-5.9743 1.1874-2.4362 1.8967 1.3143-0.4398 5.8997 0.50655 3.0568 1.8631-4.4092 1.3563-9.3486-0.05556-13.533 2.2139-1.0609 2.3581 3.8513 1.4557 5.2423 1.8231 5.3035 0.11736 10.616-0.53703 15.907-0.28829 2.1389-0.88829 5.9738 2.4885 2.5807 3.1065-2.0022-1.1659-5.8366 2.553-2.0767 2.4299 3.2758 0.22068 2.7471 3.8825-0.41596 3.5408-3.1759 0.70278-7.1585 0.1808-9.4416 2.9504-1.6599 4.0175 4.4412 3.8587 6.7907 2.8184 4.0154-0.51134 8.0847-0.15809 12.097-0.23408 2.7172 0.15516 2.5784 2.9883 0.54003 3.7162 0.20367 3.3714 4.7291 1.956 6.9344 1.8548 5.6853-0.70677 11.388-1.2749 17.082-1.914 3.1443-2.1521-2.5866-2.4302-3.8858-3.1378-2.1732-1.122-8.8522-1.5608-5.5567-5.0519 2.1878-1.2975 4.9308-0.9706 7.1439-2.2253 2.3354-0.70316 6.9755 0.45947 7.0801-3.0825-1.0387-2.054-8.3019-0.50878-5.0339-3.789 2.952-1.5886 6.3983-1.5898 9.5527-2.5447 2.9105 0.64508 5.6562-4.0841 1.4906-4.2109-3.381-0.87674-7.3275 1.5465-10.338-0.58233-1.637-4.0268 4.0944-3.7485 6.4447-4.7047 3.5778-1.0328 1.5138-4.4809-1.3512-4.1579-5.858-0.69136-11.777-0.03738-17.66-0.32597-2.2525-0.92216-4.4147 1.916-1.5652 2.9482 2.7714 0.8796 6.5956-0.36339 8.5837 2.5558 1.3991 2.0204-0.15623 4.0418-2.3364 2.5312z"/>
   <path id="path3890" style="opacity:.1;filter:url(#filter3895);fill:#fff" d="m101.35 70.515c-6.8465 1.1037-13.797 0.51946-20.696 0.67319-7.6959 0.05407-15.406-0.1274-23.093 0.07721-1.3348 1.1204 3.0284 1.2818 3.9967 1.8302 1.1651 0.58194 3.4983-0.2084 3.996 0.77634-3.4936 1.025-7.2358 0.51318-10.837 0.65866-3.8505 0.1159-7.7676-0.42478-11.534 0.58809-2.397 0.57156-5.0812 0.67258-7.3881 0.85141 2.591 0.79426 5.3834 0.64082 7.9422 1.5599 0.78493 1.8088-4.1599 1.1778-1.2064 1.9589 5.3235 0.30332 10.695-0.6129 15.987 0.16036 2.4463 1.4072-2.9625 2.156-0.16865 2.8531 2.8531 0.53757 5.7684-0.46173 8.6701-0.26657 5.0262-0.0535 10.059-0.07789 15.083 0.02261 3.467 0.78443 7.0322 0.5879 10.562 0.66844 2.9495 0.18298 5.9177 0.12236 8.8698 0.07116 2.8637-0.63014 1.2838-4.0366 0.85863-5.9304-0.72639-2.1243 0.15351-4.5903-1.0418-6.5527z"/>
   <path id="path3956" style="opacity:.3;filter:url(#filter3966);fill:#fff" d="m25.711 35.71c3.9141 0.53607 7.9394-0.3611 11.796 0.65862 2.1362 0.26651 4.4161-0.45551 6.4383 0.52899-0.90778 1.6466-3.3526 0.87869-4.9089 1.4534-3.0971 0.43488-6.2737-0.03452-9.3437 0.57676-1.7318 1.53 2.5997 2.1125 3.788 1.7851 2.8476-0.02599 5.6792-0.56714 8.5301-0.32537 6.0819-0.20901 12.152 0.50343 18.098 1.7458 1.8071-0.20297 4.3391 2.8561 1.4543 3.2883-3.4852-0.013-6.9678 0.31206-10.451 0.01957-7.2543-0.13258-14.51 0.0075-21.766-0.04741-3.4381 0.000001-6.8763 0.000001-10.314 0.000002-0.17215 2.3605 3.4711 0.48896 4.8271 1.4841 1.3959 0.02418 5.4395 0.01145 3.7897 2.2776-1.7479 1.421-4.0867 0.52338-6.1095 0.53658-2.7529-0.76962-5.5598-1.3222-8.3279-2.0316-2.1632 0.71455-5.2555-2.5186-1.8421-3.1364 2.2404-0.96449 4.6993-1.4679 7.1412-1.3147 1.8789-0.61709 4.3138 0.10693 5.7727-1.5044 0.45892-2.9301-4.2421-2.2272-5.915-3.5991 0.70403-2.5108 4.1766-1.1543 6.0237-2.2402 0.65078-0.13864 1.3212-0.22552 1.9866-0.15571"/>
  </g>
  <path id="path2960" style="opacity:.7;block-progression:tb;text-indent:0;color:#000000;text-transform:none;fill:url(#linearGradient3901)" d="m72.594 52c-0.57758-0.01295-1.1876 0.02903-1.8125 0.125-1.6663 0.25591-3.4878 0.90187-5.375 2.3125-6.4891 4.8504-11.094 0.15625-11.094 0.15625a1.3443 1.7405 0 1 0 -1.5625 2.75s6.3206 5.8964 14 0.15625c6.334-4.7345 11.094-0.09375 11.094-0.09375a1.3675 1.7705 0 1 0 1.562 -2.906s-2.7695-2.4094-6.8125-2.5zm0 8c-0.57758-0.01295-1.1876 0.02903-1.8125 0.125-1.6663 0.25591-3.4878 0.90187-5.375 2.3125-6.4891 4.8504-11.094 0.15625-11.094 0.15625a1.3443 1.7405 0 1 0 -1.5625 2.75s6.3206 5.8964 14 0.15625c6.334-4.7345 11.094-0.09375 11.094-0.09375a1.3675 1.7705 0 1 0 1.562 -2.906s-2.7695-2.4094-6.8125-2.5zm0 8c-0.57758-0.01295-1.1876 0.02903-1.8125 0.125-1.6663 0.25591-3.4878 0.90187-5.375 2.3125-6.4891 4.8504-11.094 0.15625-11.094 0.15625a1.3443 1.7405 0 1 0 -1.5625 2.75s6.3206 5.8964 14 0.15625c6.334-4.7345 11.094-0.09375 11.094-0.09375a1.3675 1.7705 0 1 0 1.562 -2.906s-2.7695-2.4094-6.8125-2.5z"/>
 </g>
 <g id="layer4">
  <path id="path3888" style="fill:url(#linearGradient3228)" d="m6 80v4c0 3.324 2.676 6 6 6h72c3.324 0 6-2.676 6-6v-4c0 3.324-2.676 6-6 6h-72c-3.324 0-6-2.676-6-6z"/>
  <path id="rect4345" style="opacity:.1;color:#000000" d="m6 82v2c0 3.324 2.676 6 6 6h72c3.324 0 6-2.676 6-6v-2c0 3.324-2.676 6-6 6h-72c-3.324 0-6-2.676-6-6z"/>
  <path id="rect4336" style="opacity:.15;color:#000000" d="m6 83v1c0 3.324 2.676 6 6 6h72c3.324 0 6-2.676 6-6v-1c0 3.324-2.676 6-6 6h-72c-3.324 0-6-2.676-6-6z"/>
 </g>
 <g id="layer8">
  <path id="rect4377" style="opacity:.3;fill:url(#linearGradient3672)" d="m12 86c-3.324 0-6-2.676-6-6v-68c0-3.324 2.676-6 6-6h72c3.324 0 6 2.676 6 6v68c0 3.324-2.676 6-6 6zm0-0.96875h72c2.8049 0 5.0312-2.2264 5.0312-5.0312v-68c0-2.8049-2.226-5.0312-5.031-5.0312h-72c-2.8049 0-5.0312 2.2263-5.0312 5.0312v68c0 2.8049 2.2264 5.0312 5.0312 5.0312z"/>
  <path id="rect4414" style="opacity:.1;fill:url(#linearGradient4429-5)" d="m6 78v2c0 3.324 2.676 6 6 6h72c3.324 0 6-2.676 6-6v-2c0 3.324-2.676 6-6 6h-72c-3.324 0-6-2.676-6-6z"/>
 </g>
</svg>
