<?xml version="1.0" encoding="UTF-8" standalone="no"?>
<!-- Created with Inkscape (http://www.inkscape.org/) -->
<svg id="svg2" xmlns:rdf="http://www.w3.org/1999/02/22-rdf-syntax-ns#" xmlns="http://www.w3.org/2000/svg" height="16" width="16" version="1.0" xmlns:cc="http://creativecommons.org/ns#" xmlns:xlink="http://www.w3.org/1999/xlink" xmlns:dc="http://purl.org/dc/elements/1.1/">
 <metadata id="metadata7">
  <rdf:RDF>
   <cc:Work rdf:about="">
    <dc:format>image/svg+xml</dc:format>
    <dc:type rdf:resource="http://purl.org/dc/dcmitype/StillImage"/>
    <dc:title/>
   </cc:Work>
  </rdf:RDF>
 </metadata>
 <g id="layer1">
  <path id="path3753" style="color:#000000;fill:#6e6e6e" d="m13.647 34.761-3.8758-2.929-0.6133 3.419-1.5401-3.047-2.5702 3.79 0.5192-4.544-3.7288 1.972 2.3298-3.651-4.1678-0.388 3.7957-1.765-3.4152-2.421 4.1695 0.37-1.3252-3.117l3.0041 1.7183 0.38852-4.1678 1.7649 3.7957 2.2705-2.9656-0.21957 3.72 4.553-2.5716-3.154 4.2504 4.168 0.388-3.7957 1.7649 2.9656 2.4204-3.72-0.36942 2.197 4.3282z"/>
  <path id="path3755" style="color:#000000;fill:#6e6e6e" d="m13 13-3.2961-2.313-0.3738 4.009-1.6978-3.651-2.3285 3.285 0.3554-4.011-3.6592 1.681 2.3134-3.2961-4.0096-0.3738 3.6515-1.6978-3.2854-2.3285 4.0112 0.3554-1.6811-3.6592 3.2961 2.3134 0.3738-4.0096 1.6978 3.6515 2.3283-3.2854-0.355 4.0112 3.659-1.6811-2.313 3.2961 4.009 0.3738-3.651 1.6978 3.285 2.3285-4.011-0.3554 1.681 3.6592z" transform="matrix(1.0395 0 0 1.0395 -.31584 -19.276)"/>
  <path id="path4639" style="color:#000000;fill:#bebebe" d="m6.625 0s-0.1579 2.7769-0.875 3.125-2.9375-1.375-2.9375-1.375 1.3039 2.5373 0.8125 3.1562c-0.4914 0.619-3.25 0.2813-3.25 0.2813s2.326 1.4731 2.2812 2.3125c-0.0447 0.8394-2.6562 1.875-2.6562 1.875s2.7502 0.1846 3.125 0.875c0.3748 0.69-1.375 2.938-1.375 2.938s2.5106-1.304 3.1562-0.813c0.6457 0.491 0.2813 3.25 0.2813 3.25s1.4463-2.353 2.3125-2.281c0.8662 0.071 1.875 2.656 1.875 2.656s0.1044-2.777 0.875-3.125c0.771-0.348 2.938 1.375 2.938 1.375s-1.331-2.511-0.813-3.156c0.518-0.646 3.25-0.282 3.25-0.282s-2.326-1.5795-2.281-2.312c0.044-0.7325 2.656-1.875 2.656-1.875s-2.777-0.1312-3.125-0.875 1.375-2.9375 1.375-2.9375-2.591 1.2504-3.156 0.8125c-0.566-0.4379-0.282-3.25-0.282-3.25s-1.526 2.3527-2.312 2.2812c-0.786-0.0714-1.875-2.6562-1.875-2.6562z"/>
  <path id="path3084" style="color:#000000;fill:#bebebe" d="m13 13-2.837-1.321-0.8329 3.017-1.7968-2.562-2.2295 2.196-0.2748-3.118-3.029 0.788 1.3208-2.8374-3.017-0.8325 2.5626-1.7968-2.1965-2.2295 3.1176-0.2748-0.7875-3.029 2.8374 1.3208 0.8325-3.017 1.7968 2.5626 2.2293-2.1965 0.275 3.1176 3.029-0.7875l-1.3208 2.8374 3.017 0.83251-2.5626 1.7968 2.1965 2.2295-3.1176 0.27481z" transform="matrix(1.0395 0 0 1.0395 -20.316 .72364)"/>
 </g>
</svg>
