<?xml version="1.0" encoding="UTF-8" standalone="no"?>
<!-- Created with Inkscape (http://www.inkscape.org/) -->
<svg id="svg2" xmlns:rdf="http://www.w3.org/1999/02/22-rdf-syntax-ns#" xmlns="http://www.w3.org/2000/svg" height="16" width="16" version="1.0" xmlns:cc="http://creativecommons.org/ns#" xmlns:xlink="http://www.w3.org/1999/xlink" xmlns:dc="http://purl.org/dc/elements/1.1/">
 <metadata id="metadata7">
  <rdf:RDF>
   <cc:Work rdf:about="">
    <dc:format>image/svg+xml</dc:format>
    <dc:type rdf:resource="http://purl.org/dc/dcmitype/StillImage"/>
    <dc:title/>
   </cc:Work>
  </rdf:RDF>
 </metadata>
 <g id="layer1">
  <path id="path4792" style="opacity:.2;color:#000000;fill:#bebebe" d="m-10 1c-3.3137 0-6 2.6863-6 6 0 0.79391 0.15743 1.5564 0.4375 2.25 0.47026-0.2238 0.99948-0.34375 1.5625-0.34375 1.9124 0 3.4723 1.3706 3.9062 3.1562 0.5695 0.10406 1.0776 0.39006 1.4688 0.78125 2.6546-0.618 4.625-2.9999 4.625-5.843 0-3.3137-2.6863-6-6-6z"/>
  <path id="path2931" style="color:#000000;fill:#bebebe" d="m-10 1c-3.3137 0-6 2.6863-6 6 0 0.82843 0.16513 1.6259 0.46875 2.3438 0.462-0.2201 0.977-0.3438 1.531-0.3438 1.8839 0 3.4039 1.3594 3.8125 3.125 0.56707 0.08288 1.0777 0.33734 1.4688 0.71875 2.1185-0.4557 3.8012-2.0168 4.4375-4.0625-0.86458 1.0062-2.1319 1.6562-3.5625 1.6562-2.6036 0-4.7188-2.1151-4.7188-4.7188 0-2.2579 1.5991-4.1324 3.7188-4.5938-0.3746-0.0731-0.7603-0.1249-1.1563-0.1249z"/>
  <path id="path3115" style="color:#000000;fill:#bebebe" d="m11 10c1.3013 0 2.397 0.84165 2.8125 2 0.06184-0.0058 0.12415 0 0.1875 0 1.1046 0 2 0.89543 2 2s-0.89543 2-2 2h-3-3.5c-0.8284 0-1.5-0.672-1.5-1.5s0.6716-1.5 1.5-1.5h0.5c0-1.6569 1.3431-3 3-3z"/>
  <path id="path3891" style="opacity:.35;color:#000000;fill:#bebebe" d="m7 1c-3.3137 0-6 2.6863-6 6 0 2.8752 2.019 5.258 4.7188 5.844 0.3907-0.381 0.9002-0.636 1.4687-0.719 0.1676-0.721 0.5138-1.354 1-1.875-0.1576-0.3479 0.0634-0.7997 0.4063-0.9688 0.3086-0.1733 0.9433-0.0997 0.6874-0.625-0.1749-0.2397-0.9901-0.2562-0.5624-0.6874 0.401-0.3777-0.3388-0.5044-0.4688-0.125-0.359 0.4149-0.9607 0.4901-1.4688 0.625-0.2614 0.1071-0.8104-0.0287-0.4374-0.3438 0.2573 0.0578 0.7629-0.1029 0.5-0.4688-0.4778-0.3353 0.1013-0.6589 0.4374-0.75 0.0488-0.3285 0.3923-0.3538 0.6876-0.3124-0.0641-0.1774-0.3505-0.5755 0.125-0.5 0.5769-0.0564 0.3781-0.6301 0.4062-1 0.2364-0.3601 0.7229-0.3049 1.0938-0.3126l0.0937 0.0626c0.5705 0.0357 0.1866 0.6974 0.5935 0.9062 0.609 0.1873 0.062 0.7674 0.188 1.1562 0.577 0.4558 0.528-0.7464 1-0.625 0.39 0.3633 0.059 0.9255 0.062 1.375 0.029 0.5074-0.426 0.8908-0.531 1.3438 0.553 0 1.072 0.1238 1.531 0.3438 0.304-0.7179 0.469-1.5154 0.469-2.3438 0-3.3137-2.686-6-6-6zm-1.625 1.9062c0.2658 0.2989-0.2472 0.9228-0.6562 0.75-0.4803-0.3829 0.2927-0.7713 0.6562-0.75zm3.0312 0.125c0.3249 0.0457 0.6146 0.2017 0.9063 0.3438 0.4546 0.0963 0.4947 0.6313 0.7495 0.9375 0.298 0.2099 0.728 0.5743 0.532 0.9687-0.231-0.0134-0.338-0.508-0.6565-0.5937-0.2625-0.3985-0.9945-0.076-1.0625-0.5937 0.1608-0.4816-0.9904-0.6083-0.4688-1.0626zm-1.5 0.6563c0.1929 0.0247 0.3739 0.044 0.5626 0.0937 0.5887 0.1217 0.8284 0.8785 0.5937 1.375-0.2144 0.4347-0.7912 0.298-1.0937 0.0313-0.456-0.3614-0.7692 0.1667-0.9376 0.5313-0.2171 0.5354-0.7399-0.1177-1 0.2812-0.243 0.4701-0.6798-0.0734-0.625-0.3438 0.3968 0.0644 0.7097-0.3528 0.5-0.7187-0.3874-0.3619 0.0556-0.7059 0.4376-0.7813 0.4459-0.3683 1.0488-0.268 1.5624-0.4687zm-2.7187 0.2187c0.606-0.0585 0.3244 0.7361 0.1875 1.0626-0.2604 0.3073-1.0263 0.6428-1.2812 0.1562-0.0163-0.5589 0.5417-0.832 0.875-1.1875 0.0723 0 0.1463-0.0323 0.2187-0.0313zm2.2813 1.5c0.053-0.0189 0.1237-0.0069 0.1874 0 0.3016 0.0551 0.7958 0.0641 0.875 0.4376 0.0206 0.5-0.6941 0.8588-1.0937 0.5624-0.4309-0.156-0.3403-0.867 0.0313-1zm-2.5626 0.4376c0.0491 0.0002 0.085 0.0195 0.125 0.0312 0.3733 0.3606-0.236 0.7074-0.5624 0.5312-0.4225-0.2923 0.094-0.5639 0.4374-0.5624zm3.9688 2.5624c0.0731-0.0126 0.1444-0.0009 0.2188 0 0.3683 0.172 0.2593 0.823-0.125 0.9063-0.2952 0.4794-0.7805 0.1384-1.1876 0.0937-0.3758 0.3785-1.0144 0.4417-1.3437-0.0624-0.208-0.5025 0.4951-0.8587 0.9063-0.6876 0.525 0.2064 1.0194-0.1614 1.5312-0.25zm-1.75 1.5626c0.1153 0.0292 0.1838 0.1382 0.2188 0.2502-0.0786 0.546-0.7997-0.2943-0.2188-0.2502zm0.9062 0l0.0626 0.0312 0.125 0.031c0.6024-0.036 0.3444 0.95-0.1563 0.875-0.4216-0.082-0.5503-0.9174-0.0313-0.9372z"/>
  <path id="path3098" style="color:#000000;fill:#bebebe" d="m7 1c-3.3137 0-6 2.6863-6 6 0 2.8752 2.019 5.258 4.7188 5.844 0.3907-0.381 0.9002-0.636 1.4687-0.719 0.0389-0.167 0.0982-0.341 0.1563-0.5-0.1159 0.009-0.2258 0.031-0.3438 0.031-2.5773 0-4.6562-2.0787-4.6562-4.656s2.0789-4.6562 4.6562-4.6562 4.656 2.0789 4.656 4.6562c0 0.7252-0.173 1.3878-0.468 2 0.482 0.0248 0.936 0.1486 1.343 0.3438 0.304-0.7179 0.469-1.5154 0.469-2.3438 0-3.3137-2.686-6-6-6z"/>
 </g>
</svg>
