<?xml version="1.0" encoding="UTF-8" standalone="no"?>
<!-- Created with Inkscape (http://www.inkscape.org/) -->
<svg id="svg2" xmlns:rdf="http://www.w3.org/1999/02/22-rdf-syntax-ns#" xmlns="http://www.w3.org/2000/svg" height="16" width="16" version="1.0" xmlns:cc="http://creativecommons.org/ns#" xmlns:xlink="http://www.w3.org/1999/xlink" xmlns:dc="http://purl.org/dc/elements/1.1/">
 <metadata id="metadata7">
  <rdf:RDF>
   <cc:Work rdf:about="">
    <dc:format>image/svg+xml</dc:format>
    <dc:type rdf:resource="http://purl.org/dc/dcmitype/StillImage"/>
    <dc:title/>
   </cc:Work>
  </rdf:RDF>
 </metadata>
 <g id="layer1">
  <path id="path3798" style="color:#000000;fill:#f00" d="m7.5 19c-1.4497 0-2.6874 0.869-3.2188 2.125-0.2474-0.082-0.5062-0.125-0.7812-0.125-1.3807 0-2.5 1.119-2.5 2.5s1.1193 2.5 2.5 2.5h4 5.5c1.1046 0 2-0.89543 2-2s-0.89543-2-2-2h-0.09375c0.054-0.154 0.094-0.327 0.094-0.5 0-0.828-0.672-1.5-1.5-1.5-0.446 0-0.85 0.191-1.125 0.5-0.632-0.91-1.6829-1.5-2.875-1.5z"/>
  <path id="path3805" style="color:#000000;fill:#bebebe" d="m7 1c-1.8769 0-3.4437 1.2876-3.875 3.0312-1.201 0.1826-2.125 1.2169-2.125 2.4688 0 1.3807 1.1193 2.5 2.5 2.5h1.7812c0.3461-0.5969 0.9792-1 1.7188-1s1.3727 0.4031 1.7188 1h3.7812c1.381 0 2.5-1.1193 2.5-2.5 0-1.2081-0.861-2.2044-2-2.4375 0.001-0.021 0-0.0414 0-0.0625 0-1.1046-0.895-2-2-2-0.38 0-0.729 0.1286-1.0312 0.3125-0.732-0.8099-1.7912-1.3125-2.9688-1.3125z"/>
  <path id="path3854" style="opacity:.35;color:#000000;fill:#bebebe" d="m6 14a1 1 0 1 1 -2 0 1 1 0 1 1 2 0z" transform="matrix(1.372 0 0 1.372 -.85984 -5.2075)"/>
  <path id="path3856" style="opacity:.35;color:#000000;fill:#bebebe" d="m6 14a1 1 0 1 1 -2 0 1 1 0 1 1 2 0z" transform="matrix(1.372 0 0 1.372 3.1402 -7.2075)"/>
  <path id="path3859" style="opacity:.35;color:#000000;fill:#bebebe" d="m6 14a1 1 0 1 1 -2 0 1 1 0 1 1 2 0z" transform="matrix(1.372 0 0 1.372 .14016 -9.2075)"/>
  <path id="path3863" style="color:#000000;fill:#6e6e6e" d="m7-18c-1.8769 0-3.4437 1.2876-3.875 3.0312-1.201 0.183-2.125 1.217-2.125 2.469 0 1.3807 1.1193 2.5 2.5 2.5h9c1.3807 0 2.5-1.1193 2.5-2.5 0-1.2081-0.86079-2.2044-2-2.4375 0.00065-0.02096 0-0.04138 0-0.0625 0-1.1046-0.89543-2-2-2-0.37992 0-0.72874 0.12856-1.0312 0.3125-0.732-0.809-1.7912-1.312-2.9688-1.312z"/>
  <path id="path3855" style="color:#000000;fill:#bebebe" d="m6 14a1 1 0 1 1 -2 0 1 1 0 1 1 2 0z" transform="translate(2 -4)"/>
  <path id="path3862" style="color:#000000;fill:#bebebe" d="m6 14a1 1 0 1 1 -2 0 1 1 0 1 1 2 0z" transform="translate(1 -.00000406)"/>
  <path id="path3864" style="color:#000000;fill:#bebebe" d="m6 14a1 1 0 1 1 -2 0 1 1 0 1 1 2 0z" transform="translate(5 -2)"/>
 </g>
</svg>
