<?xml version="1.0" encoding="UTF-8" standalone="no"?>
<!-- Created with Inkscape (http://www.inkscape.org/) -->
<svg id="svg2" xmlns:rdf="http://www.w3.org/1999/02/22-rdf-syntax-ns#" xmlns="http://www.w3.org/2000/svg" height="16" width="16" version="1.0" xmlns:cc="http://creativecommons.org/ns#" xmlns:xlink="http://www.w3.org/1999/xlink" xmlns:dc="http://purl.org/dc/elements/1.1/">
 <metadata id="metadata7">
  <rdf:RDF>
   <cc:Work rdf:about="">
    <dc:format>image/svg+xml</dc:format>
    <dc:type rdf:resource="http://purl.org/dc/dcmitype/StillImage"/>
    <dc:title/>
   </cc:Work>
  </rdf:RDF>
 </metadata>
 <g id="layer1">
  <path id="path3798" style="color:#000000;fill:#f00" d="m7.5 19c-1.4497 0-2.6874 0.869-3.2188 2.125-0.2474-0.082-0.5062-0.125-0.7812-0.125-1.3807 0-2.5 1.119-2.5 2.5s1.1193 2.5 2.5 2.5h4 5.5c1.1046 0 2-0.89543 2-2s-0.89543-2-2-2h-0.09375c0.054-0.154 0.094-0.327 0.094-0.5 0-0.828-0.672-1.5-1.5-1.5-0.446 0-0.85 0.191-1.125 0.5-0.632-0.91-1.6829-1.5-2.875-1.5z"/>
  <path id="path3863" style="color:#000000;fill:#6e6e6e" d="m7-18c-1.8769 0-3.4437 1.2876-3.875 3.0312-1.201 0.183-2.125 1.217-2.125 2.469 0 1.3807 1.1193 2.5 2.5 2.5h9c1.3807 0 2.5-1.1193 2.5-2.5 0-1.2081-0.86079-2.2044-2-2.4375 0.00065-0.02096 0-0.04138 0-0.0625 0-1.1046-0.89543-2-2-2-0.37992 0-0.72874 0.12856-1.0312 0.3125-0.732-0.809-1.7912-1.312-2.9688-1.312z"/>
  <path id="path3888" style="color:#000000;fill:#bebebe" d="m7 1c-1.8769 0-3.4437 1.2876-3.875 3.0312-1.201 0.1826-2.125 1.2169-2.125 2.4688 0 1.3807 1.1193 2.5 2.5 2.5h9c1.381 0 2.5-1.1193 2.5-2.5 0-1.2081-0.861-2.2044-2-2.4375 0.001-0.021 0-0.0414 0-0.0625 0-1.1046-0.895-2-2-2-0.38 0-0.729 0.1286-1.0312 0.3125-0.732-0.8099-1.7912-1.3125-2.9688-1.3125z"/>
  <path id="rect3093" style="color:#000000;fill:#bebebe" d="m2.9935 14.784c-0.1726 0.299-0.5489 0.345-0.7828 0.21s-0.3796-0.488-0.2097-0.783c0.1698-0.294 1.0663-0.7 1.0663-0.7s0.098719 0.97503-0.073848 1.2739z"/>
  <path id="path3870" d="m3.9935 12.784c-0.1726 0.299-0.5489 0.345-0.7828 0.21s-0.3796-0.488-0.2097-0.783c0.1698-0.294 1.0663-0.7 1.0663-0.7s0.098719 0.97503-0.073848 1.2739z" style="color:#000000;fill:#bebebe"/>
  <path id="path3872" style="color:#000000;fill:#bebebe" d="m4.9935 10.784c-0.1726 0.299-0.5489 0.345-0.7828 0.21s-0.3796-0.488-0.2097-0.783c0.1698-0.2937 1.0663-0.7005 1.0663-0.7005s0.098719 0.97503-0.073848 1.2739z"/>
  <path id="path3874" d="m5.9935 14.784c-0.1726 0.299-0.5489 0.345-0.7828 0.21s-0.3796-0.488-0.2097-0.783c0.1698-0.294 1.0663-0.7 1.0663-0.7s0.098719 0.97503-0.073848 1.2739z" style="color:#000000;fill:#bebebe"/>
  <path id="path3876" style="color:#000000;fill:#bebebe" d="m6.9935 12.784c-0.1726 0.299-0.5489 0.345-0.7828 0.21s-0.3796-0.488-0.2097-0.783c0.1698-0.294 1.0663-0.7 1.0663-0.7s0.098719 0.97503-0.073848 1.2739z"/>
  <path id="path3878" d="m7.9935 10.784c-0.1726 0.299-0.5489 0.345-0.7828 0.21s-0.3796-0.488-0.2097-0.783c0.1698-0.2937 1.0663-0.7005 1.0663-0.7005s0.098719 0.97503-0.073848 1.2739z" style="color:#000000;fill:#bebebe"/>
  <path id="path3880" style="color:#000000;fill:#bebebe" d="m8.9935 14.784c-0.1726 0.299-0.5489 0.345-0.7828 0.21s-0.3796-0.488-0.2097-0.783c0.1698-0.294 1.0663-0.7 1.0663-0.7s0.098719 0.97503-0.073848 1.2739z"/>
  <path id="path3882" d="m9.9935 12.784c-0.1726 0.299-0.5489 0.345-0.7828 0.21s-0.3796-0.488-0.2097-0.783c0.16984-0.29418 1.0663-0.70091 1.0663-0.70091s0.09872 0.97503-0.073848 1.2739z" style="color:#000000;fill:#bebebe"/>
  <path id="path3884" style="color:#000000;fill:#bebebe" d="m10.993 10.784c-0.17256 0.29889-0.54881 0.3448-0.78274 0.20974s-0.37958-0.48857-0.20974-0.78274c0.16984-0.29418 1.0663-0.70091 1.0663-0.70091s0.09872 0.97503-0.07385 1.2739z"/>
 </g>
</svg>
