<?xml version="1.0" encoding="UTF-8" standalone="no"?>
<!-- Created with Inkscape (http://www.inkscape.org/) -->
<svg id="svg2" xmlns:rdf="http://www.w3.org/1999/02/22-rdf-syntax-ns#" xmlns="http://www.w3.org/2000/svg" height="16" width="16" version="1.0" xmlns:cc="http://creativecommons.org/ns#" xmlns:dc="http://purl.org/dc/elements/1.1/">
 <metadata id="metadata7">
  <rdf:RDF>
   <cc:Work rdf:about="">
    <dc:format>image/svg+xml</dc:format>
    <dc:type rdf:resource="http://purl.org/dc/dcmitype/StillImage"/>
    <dc:title/>
   </cc:Work>
  </rdf:RDF>
 </metadata>
 <g id="layer3" transform="translate(-.46426 -3)">
  <path id="path3620" class="error" style="fill:#d40000" d="m8.4643 4c-4.4183 0-8 2.9163-8 6.5312 0 2.3027 1.4592 4.3333 3.6562 5.5-0.08355 0.60818-0.4801 2.1159-2.2812 2.625 2.3328 0.25353 3.8963-0.89153 4.7188-1.75 0.61176 0.12255 1.2483 0.1875 1.9062 0.1875 4.4183 0 8-2.9475 8-6.5625s-3.5817-6.5312-8-6.5312zm-2 2.5 2 2 2-2 2 2-2 2 2 2-2 2-2-2-2 2-2-2 2-2-2-2 2-2z"/>
 </g>
</svg>
