<?xml version="1.0" encoding="UTF-8" standalone="no"?>
<!-- Created with Inkscape (http://www.inkscape.org/) -->
<svg id="svg2408" xmlns:rdf="http://www.w3.org/1999/02/22-rdf-syntax-ns#" xmlns="http://www.w3.org/2000/svg" height="96" width="96" version="1.0" xmlns:cc="http://creativecommons.org/ns#" xmlns:xlink="http://www.w3.org/1999/xlink" xmlns:dc="http://purl.org/dc/elements/1.1/">
 <defs id="defs2410">
  <linearGradient id="linearGradient3824">
   <stop id="stop3826" style="stop-color:#e4e4e4" offset="0"/>
   <stop id="stop3828" style="stop-color:#989898" offset="1"/>
  </linearGradient>
  <linearGradient id="linearGradient3763">
   <stop id="stop3765" style="stop-color:#dadada" offset="0"/>
   <stop id="stop3767" style="stop-color:#fff" offset=".39129"/>
   <stop id="stop3769" style="stop-color:#b9b9b9" offset="1"/>
  </linearGradient>
  <linearGradient id="linearGradient3742">
   <stop id="stop3744" offset="0"/>
   <stop id="stop3746" style="stop-opacity:0" offset="1"/>
  </linearGradient>
  <linearGradient id="linearGradient4120">
   <stop id="stop4122" style="stop-color:#fff" offset="0"/>
   <stop id="stop4124" style="stop-color:#989898" offset="1"/>
  </linearGradient>
  <linearGradient id="linearGradient3677">
   <stop id="stop3679" style="stop-color:#fff" offset="0"/>
   <stop id="stop3681" style="stop-color:#fff;stop-opacity:0" offset="1"/>
  </linearGradient>
  <linearGradient id="ButtonShadow" y2="7.0165" gradientUnits="userSpaceOnUse" x2="45.448" gradientTransform="scale(1.0059 .99417)" y1="92.54" x1="45.448">
   <stop id="stop3750" offset="0"/>
   <stop id="stop3752" style="stop-opacity:.58824" offset="1"/>
  </linearGradient>
  <filter id="filter3174" color-interpolation-filters="sRGB">
   <feGaussianBlur id="feGaussianBlur3176" stdDeviation="1.71"/>
  </filter>
  <linearGradient id="linearGradient3188" y2="63.893" xlink:href="#linearGradient3677" gradientUnits="userSpaceOnUse" x2="36.357" y1="6" x1="36.357"/>
  <filter id="filter3794" height="1.384" width="1.384" color-interpolation-filters="sRGB" y="-.192" x="-.192">
   <feGaussianBlur id="feGaussianBlur3796" stdDeviation="5.28"/>
  </filter>
  <linearGradient id="linearGradient3613" y2="138.66" xlink:href="#linearGradient3677" gradientUnits="userSpaceOnUse" x2="48" y1="20.221" x1="48"/>
  <radialGradient id="radialGradient3619" xlink:href="#linearGradient3677" gradientUnits="userSpaceOnUse" cy="90.172" cx="48" gradientTransform="matrix(1.1573 0 0 .99591 -7.551 .19713)" r="42"/>
  <clipPath id="clipPath3613">
   <rect id="rect3615" style="fill:#fff" rx="6" ry="6" height="84" width="84" y="6" x="6"/>
  </clipPath>
  <linearGradient id="linearGradient3617" y2="5.9877" gradientUnits="userSpaceOnUse" x2="48" y1="90" x1="48">
   <stop id="stop3616" style="stop-color:#b9b9b9" offset="0"/>
   <stop id="stop3618" style="stop-color:#dedede" offset="1"/>
  </linearGradient>
  <linearGradient id="linearGradient3628" y2="48" gradientUnits="userSpaceOnUse" x2="81" gradientTransform="matrix(.96970 0 0 .96970 -94.545 1.4545)" y1="48" x1="15">
   <stop id="stop3861" style="stop-color:#808080" offset="0"/>
   <stop id="stop3863" style="stop-color:#d0d0d0" offset="1"/>
  </linearGradient>
  <linearGradient id="linearGradient3867" y2="76" xlink:href="#linearGradient3763" gradientUnits="userSpaceOnUse" x2="88" gradientTransform="matrix(.66667 0 0 1.5 23.333 -84)" y1="76" x1="82"/>
  <linearGradient id="linearGradient3748" y2="48" xlink:href="#linearGradient3742" gradientUnits="userSpaceOnUse" x2="-15" gradientTransform="translate(1,1)" y1="48" x1="-83"/>
  <linearGradient id="linearGradient3761" y2="104.2" gradientUnits="userSpaceOnUse" x2="38.75" y1="15" x1="38.75">
   <stop id="stop3757" style="stop-color:#fff" offset="0"/>
   <stop id="stop3759" style="stop-color:#fff;stop-opacity:0" offset="1"/>
  </linearGradient>
  <linearGradient id="linearGradient3779" y2="76" xlink:href="#linearGradient3763" gradientUnits="userSpaceOnUse" x2="88" gradientTransform="matrix(.66667 0 0 1.5 23.333 -48)" y1="76" x1="82"/>
  <radialGradient id="radialGradient3816" gradientUnits="userSpaceOnUse" cy="43.639" cx="57" gradientTransform="matrix(1.4248 -5.0547e-8 1.82e-8 .51299 -24.212 14.391)" r="11">
   <stop id="stop3740" style="stop-color:#9ae8fb" offset="0"/>
   <stop id="stop3742" style="stop-color:#50bad4" offset="1"/>
  </radialGradient>
  <linearGradient id="linearGradient3822" y2="30.783" xlink:href="#linearGradient3824" gradientUnits="userSpaceOnUse" x2="55.733" gradientTransform="translate(0,-2)" y1="40.798" x1="55.733"/>
  <linearGradient id="linearGradient3837" y2="39.283" gradientUnits="userSpaceOnUse" x2="49.929" gradientTransform="translate(0,-2)" y1="32.338" x1="49.914">
   <stop id="stop3833" style="stop-color:#267387" offset="0"/>
   <stop id="stop3835" style="stop-color:#5bb9d2" offset="1"/>
  </linearGradient>
  <linearGradient id="linearGradient3860" y2="41.967" xlink:href="#linearGradient2949" gradientUnits="userSpaceOnUse" x2="48.904" gradientTransform="translate(0,-88)" y1="46.02" x1="48.904"/>
  <linearGradient id="linearGradient2949">
   <stop id="stop2951" style="stop-color:#323232" offset="0"/>
   <stop id="stop2953" style="stop-color:#505050" offset="1"/>
  </linearGradient>
  <linearGradient id="linearGradient3980" y2="41.967" xlink:href="#linearGradient2949" gradientUnits="userSpaceOnUse" x2="48.904" gradientTransform="translate(8,-88)" y1="46.02" x1="48.904"/>
  <linearGradient id="linearGradient3990" y2="41.967" xlink:href="#linearGradient2949" gradientUnits="userSpaceOnUse" x2="48.904" gradientTransform="translate(16,-88)" y1="46.02" x1="48.904"/>
  <linearGradient id="linearGradient4016" y2="41.967" xlink:href="#linearGradient2949" gradientUnits="userSpaceOnUse" x2="48.904" gradientTransform="translate(0,-94)" y1="46.02" x1="48.904"/>
  <linearGradient id="linearGradient4018" y2="41.967" xlink:href="#linearGradient2949" gradientUnits="userSpaceOnUse" x2="48.904" gradientTransform="translate(8,-94)" y1="46.02" x1="48.904"/>
  <linearGradient id="linearGradient4020" y2="41.967" xlink:href="#linearGradient2949" gradientUnits="userSpaceOnUse" x2="48.904" gradientTransform="translate(16,-94)" y1="46.02" x1="48.904"/>
  <linearGradient id="linearGradient4046" y2="41.967" xlink:href="#linearGradient2949" gradientUnits="userSpaceOnUse" x2="48.904" gradientTransform="translate(0,-100)" y1="46.02" x1="48.904"/>
  <linearGradient id="linearGradient4048" y2="41.967" xlink:href="#linearGradient2949" gradientUnits="userSpaceOnUse" x2="48.904" gradientTransform="translate(8,-100)" y1="46.02" x1="48.904"/>
  <linearGradient id="linearGradient4051" y2="41.967" xlink:href="#linearGradient2949" gradientUnits="userSpaceOnUse" x2="48.904" gradientTransform="translate(16,-100)" y1="46.02" x1="48.904"/>
  <linearGradient id="linearGradient4077" y2="41.967" xlink:href="#linearGradient2949" gradientUnits="userSpaceOnUse" x2="48.904" gradientTransform="translate(0,-106)" y1="46.02" x1="48.904"/>
  <linearGradient id="linearGradient4079" y2="41.967" xlink:href="#linearGradient2949" gradientUnits="userSpaceOnUse" x2="48.904" gradientTransform="translate(8,-106)" y1="46.02" x1="48.904"/>
  <linearGradient id="linearGradient4081" y2="41.967" xlink:href="#linearGradient2949" gradientUnits="userSpaceOnUse" x2="48.904" gradientTransform="translate(16,-106)" y1="46.02" x1="48.904"/>
  <linearGradient id="linearGradient3820" y2="38.358" xlink:href="#linearGradient4120" gradientUnits="userSpaceOnUse" x2="36.618" y1="38.358" x1="24.117"/>
  <linearGradient id="linearGradient3841" y2="52" xlink:href="#linearGradient3677" gradientUnits="userSpaceOnUse" x2="35" gradientTransform="translate(1)" y1="52.359" x1="27"/>
  <linearGradient id="linearGradient3849" y2="52" xlink:href="#linearGradient4120" gradientUnits="userSpaceOnUse" x2="33" gradientTransform="translate(1)" y1="52" x1="27"/>
  <linearGradient id="linearGradient3891" y2="38.358" xlink:href="#linearGradient3824" gradientUnits="userSpaceOnUse" x2="36.618" y1="36.796" x1="28.805"/>
  <filter id="filter3901" height="1.15" width="1.6" color-interpolation-filters="sRGB" y="-0.075" x="-0.3">
   <feGaussianBlur id="feGaussianBlur3903" stdDeviation="0.75"/>
  </filter>
  <radialGradient id="radialGradient3916" xlink:href="#linearGradient3677" gradientUnits="userSpaceOnUse" cy="47" cx="53" r="3"/>
  <radialGradient id="radialGradient3920" xlink:href="#linearGradient3677" gradientUnits="userSpaceOnUse" cy="47" cx="53" gradientTransform="translate(8)" r="3"/>
  <radialGradient id="radialGradient3926" xlink:href="#linearGradient3677" gradientUnits="userSpaceOnUse" cy="47" cx="53" gradientTransform="translate(0,6)" r="3"/>
  <radialGradient id="radialGradient3928" xlink:href="#linearGradient3677" gradientUnits="userSpaceOnUse" cy="47" cx="53" gradientTransform="translate(8,6)" r="3"/>
  <radialGradient id="radialGradient3934" xlink:href="#linearGradient3677" gradientUnits="userSpaceOnUse" cy="47" cx="53" gradientTransform="translate(0,12)" r="3"/>
  <radialGradient id="radialGradient3936" xlink:href="#linearGradient3677" gradientUnits="userSpaceOnUse" cy="47" cx="53" gradientTransform="translate(8,12)" r="3"/>
  <linearGradient id="ButtonShadow-0" y2="7.0165" gradientUnits="userSpaceOnUse" x2="45.448" gradientTransform="matrix(1.0059 0 0 .99417 100 0)" y1="92.54" x1="45.448">
   <stop id="stop3750-8" offset="0"/>
   <stop id="stop3752-5" style="stop-opacity:.58824" offset="1"/>
  </linearGradient>
  <linearGradient id="linearGradient3780" y2="90.239" xlink:href="#ButtonShadow-0" gradientUnits="userSpaceOnUse" x2="32.251" gradientTransform="matrix(1.0238 0 0 1.0119 -1.1429 -98.071)" y1="6.1317" x1="32.251"/>
  <linearGradient id="linearGradient3721" y2="90.239" xlink:href="#ButtonShadow-0" gradientUnits="userSpaceOnUse" x2="32.251" gradientTransform="translate(0,-97)" y1="6.1317" x1="32.251"/>
 </defs>
 <metadata id="metadata2413">
  <rdf:RDF>
   <cc:Work rdf:about="">
    <dc:format>image/svg+xml</dc:format>
    <dc:type rdf:resource="http://purl.org/dc/dcmitype/StillImage"/>
   </cc:Work>
  </rdf:RDF>
 </metadata>
 <g id="layer2" style="display:none">
  <rect id="rect3745" style="opacity:.9;filter:url(#filter3174);fill:url(#ButtonShadow)" rx="6" ry="6" height="85" width="86" y="7" x="5"/>
 </g>
 <g id="layer6">
  <path id="path3786" style="opacity:0.08;fill:url(#linearGradient3780)" d="m12-95.031c-5.5111 0-10.031 4.5202-10.031 10.031v71c0 5.5111 4.5202 10.031 10.031 10.031h72c5.5111 0 10.031-4.5202 10.031-10.031v-71c0-5.5111-4.5202-10.031-10.031-10.031h-72z" transform="scale(1,-1)"/>
  <path id="path3778" style="opacity:.1;fill:url(#linearGradient3780)" d="m12-94.031c-4.9716 0-9.0312 4.0596-9.0312 9.0312v71c0 4.9716 4.0596 9.0312 9.0312 9.0312h72c4.9716 0 9.0312-4.0596 9.0312-9.0312v-71c0-4.9716-4.0596-9.0312-9.0312-9.0312h-72z" transform="scale(1,-1)"/>
  <path id="path3770" style="opacity:.2;fill:url(#linearGradient3780)" d="m12-93c-4.4091 0-8 3.5909-8 8v71c0 4.4091 3.5909 8 8 8h72c4.4091 0 8-3.5909 8-8v-71c0-4.4091-3.5909-8-8-8h-72z" transform="scale(1,-1)"/>
  <rect id="rect3723" style="opacity:.3;fill:url(#linearGradient3780)" transform="scale(1,-1)" rx="7" ry="7" height="85" width="86" y="-92" x="5"/>
  <rect id="rect3716" style="opacity:.45;fill:url(#linearGradient3721)" transform="scale(1,-1)" rx="6" ry="6" height="84" width="84" y="-91" x="6"/>
 </g>
 <g id="layer1">
  <rect id="rect2419" style="fill:url(#linearGradient3617)" rx="6" ry="6" height="84" width="84" y="6" x="6"/>
  <path id="rect3728" style="opacity:.5;fill:url(#linearGradient3188)" d="m12 6c-3.324 0-6 2.676-6 6v2 68 2c0 0.33472 0.04135 0.6507 0.09375 0.96875 0.0487 0.2956 0.09704 0.59692 0.1875 0.875 0.00988 0.03038 0.020892 0.0636 0.03125 0.09375 0.098865 0.28777 0.23488 0.54745 0.375 0.8125 0.14459 0.27351 0.31562 0.53562 0.5 0.78125 0.18438 0.24564 0.37378 0.47347 0.59375 0.6875 0.43995 0.42806 0.94291 0.81453 1.5 1.0938 0.27854 0.13961 0.57347 0.24695 0.875 0.34375-0.2562-0.10022-0.48671-0.23627-0.71875-0.375-0.00741-0.0044-0.023866 0.0045-0.03125 0-0.031933-0.0193-0.062293-0.04251-0.09375-0.0625-0.1204-0.0767-0.23102-0.16351-0.34375-0.25-0.10617-0.0808-0.21328-0.16111-0.3125-0.25-0.1778-0.162-0.3473-0.346-0.4999-0.531-0.1075-0.131-0.2183-0.266-0.3124-0.407-0.0251-0.038-0.0385-0.086-0.0626-0.125-0.0647-0.103-0.1302-0.204-0.1874-0.312-0.1011-0.195-0.2057-0.416-0.2813-0.625-0.008-0.022-0.0236-0.041-0.0313-0.063-0.0318-0.092-0.0358-0.187-0.0624-0.281-0.0304-0.107-0.0704-0.203-0.0938-0.313-0.0729-0.341-0.125-0.698-0.125-1.062v-2-68-2c0-2.782 2.2182-5 5-5h2 68 2c2.7818 0 5 2.2182 5 5v2 68 2c0 0.3643-0.05212 0.72099-0.125 1.0625-0.04415 0.20689-0.08838 0.39766-0.15625 0.59375-0.0077 0.02195-0.0233 0.04069-0.03125 0.0625-0.06274 0.17374-0.13838 0.36745-0.21875 0.53125-0.04158 0.0828-0.07904 0.16995-0.125 0.25-0.0546 0.09721-0.12677 0.18835-0.1875 0.28125-0.09411 0.14096-0.20492 0.276-0.3125 0.40625-0.14317 0.17445-0.30314 0.347-0.46875 0.5-0.01117 0.0102-0.01998 0.02115-0.03125 0.03125-0.13839 0.12556-0.28509 0.23444-0.4375 0.34375-0.10257 0.07315-0.20432 0.15336-0.3125 0.21875-0.0074 0.0045-0.02384-0.0044-0.03125 0-0.23204 0.13873-0.46255 0.27478-0.71875 0.375 0.30153-0.0968 0.59646-0.20414 0.875-0.34375 0.55709-0.27922 1.0601-0.66569 1.5-1.0938 0.21997-0.21403 0.40937-0.44186 0.59375-0.6875s0.35541-0.50774 0.5-0.78125c0.14012-0.26505 0.27614-0.52473 0.375-0.8125 0.01041-0.03078 0.02133-0.06274 0.03125-0.09375 0.09046-0.27808 0.1388-0.5794 0.1875-0.875 0.053-0.318 0.094-0.634 0.094-0.969v-2-68-2c0-3.324-2.676-6-6-6h-72z"/>
  <path id="path3615" style="opacity:.25;fill:url(#radialGradient3619)" d="m12 90c-3.324 0-6-2.676-6-6v-2-68-2c0-0.33472 0.04135-0.6507 0.09375-0.96875 0.0487-0.2956 0.09704-0.59692 0.1875-0.875 0.0099-0.03 0.0209-0.063 0.0313-0.094 0.0989-0.2873 0.2349-0.547 0.375-0.812 0.1446-0.2735 0.3156-0.5356 0.5-0.7812 0.1844-0.2457 0.3738-0.4735 0.5937-0.6876 0.44-0.428 0.943-0.8145 1.5-1.0937 0.2786-0.1396 0.5735-0.2469 0.8748-0.3437-0.256 0.1002-0.4865 0.2362-0.7185 0.375-0.00741 0.0044-0.023866-0.0045-0.03125 0-0.031933 0.0193-0.062293 0.04251-0.09375 0.0625-0.1204 0.0767-0.23102 0.16351-0.34375 0.25-0.10617 0.0808-0.21328 0.16111-0.3125 0.25-0.1779 0.1614-0.3474 0.3453-0.5 0.5312-0.1075 0.1303-0.2183 0.2653-0.3124 0.4063-0.0251 0.0383-0.0385 0.0858-0.0626 0.125-0.0647 0.103-0.1302 0.2045-0.1874 0.3124-0.1011 0.1948-0.2057 0.4158-0.2813 0.625-0.008 0.0219-0.0236 0.0406-0.0313 0.0626-0.0318 0.0919-0.0358 0.1868-0.0624 0.2812-0.0304 0.1066-0.0704 0.203-0.0938 0.3125-0.0729 0.3415-0.125 0.6985-0.125 1.0625v2 68 2c0 2.7818 2.2182 5 5 5h2 68 2c2.7818 0 5-2.2182 5-5v-2-68-2c0-0.364-0.052-0.721-0.125-1.0625-0.044-0.2069-0.088-0.3977-0.156-0.5937-0.008-0.022-0.024-0.0407-0.031-0.0626-0.063-0.1737-0.139-0.3674-0.219-0.5312-0.042-0.0828-0.079-0.17-0.125-0.25-0.055-0.0972-0.127-0.1884-0.188-0.2812-0.094-0.141-0.205-0.276-0.312-0.4063-0.143-0.1745-0.303-0.347-0.469-0.5-0.011-0.0102-0.02-0.0211-0.031-0.0313-0.139-0.1255-0.285-0.2344-0.438-0.3437-0.102-0.0731-0.204-0.1534-0.312-0.2187-0.0074-0.0045-0.02384 0.0044-0.03125 0-0.23204-0.13873-0.46255-0.27478-0.71875-0.375 0.30153 0.0968 0.59646 0.20414 0.875 0.34375 0.55709 0.27922 1.0601 0.66569 1.5 1.0938 0.21997 0.21403 0.40937 0.44186 0.59375 0.6875s0.35541 0.50774 0.5 0.78125c0.14012 0.26505 0.27614 0.52473 0.375 0.8125 0.01041 0.03078 0.02133 0.06274 0.03125 0.09375 0.09046 0.27808 0.1388 0.5794 0.1875 0.875 0.053 0.318 0.094 0.634 0.094 0.969v2 68 2c0 3.324-2.676 6-6 6h-72z"/>
 </g>
 <g id="layer4">
  <path id="path3940" style="opacity:.1;fill:url(#linearGradient3748)" d="m-79 13c-2.2042 0-4 1.7958-4 4v62c0 2.2042 1.7958 4 4 4h60c2.2042 0 4-1.7958 4-4v-62c0-2.2042-1.7958-4-4-4h-60z" transform="rotate(-90)"/>
  <rect id="rect3740" style="opacity:.2;fill:url(#linearGradient3748)" transform="rotate(-90)" rx="3" ry="3" height="68" width="66" y="14" x="-82"/>
  <rect id="rect3736" style="opacity:.4" transform="rotate(-90)" rx="2" ry="2" height="66" width="66" y="15" x="-81"/>
  <rect id="rect3620" style="fill:url(#linearGradient3628)" transform="rotate(-90)" height="64" width="64" y="16" x="-80"/>
  <rect id="rect3771" style="opacity:.4" rx="2" ry="2" height="14" width="6" y="23" x="77"/>
  <path id="rect3750" style="opacity:.5;fill:url(#linearGradient3761)" d="m16 16v64h64v-64h-64zm2 2h60v60h-60v-60z"/>
  <rect id="rect3789" style="fill:url(#linearGradient3867)" rx="1" ry="1" height="12" width="4" y="24" x="78"/>
  <rect id="rect3775" style="opacity:.4" rx="2" ry="2" height="14" width="6" y="59" x="77"/>
  <rect id="rect3777" style="fill:url(#linearGradient3779)" rx="1" ry="1" height="12" width="4" y="60" x="78"/>
  <rect id="rect3912" style="opacity:.2" height="1" width="4" y="30" x="78"/>
  <rect id="rect3914" style="opacity:.2" height="1" width="4" y="66" x="78"/>
  <path id="rect3916" style="fill:#fff" d="m79 24c-0.554 0-1 0.446-1 1v1c0-0.554 0.446-1 1-1h2c0.554 0 1 0.446 1 1v-1c0-0.554-0.446-1-1-1h-2z"/>
  <path id="path3926" style="fill:#fff" d="m79 60c-0.554 0-1 0.446-1 1v1c0-0.554 0.446-1 1-1h2c0.554 0 1 0.446 1 1v-1c0-0.554-0.446-1-1-1h-2z"/>
 </g>
 <g id="layer5">
  <rect id="rect3171" style="opacity:.1;filter:url(#filter3794);stroke:#fff;stroke-linecap:round;stroke-width:.5;fill:url(#linearGradient3613)" clip-path="url(#clipPath3613)" rx="12" ry="12" height="66" width="66" y="15" x="15"/>
 </g>
 <g id="layer3">
  <rect id="rect3893" style="opacity:.1;filter:url(#filter3901)" rx="1" ry="1" height="24" width="6" y="42" x="32"/>
  <path id="path3865" style="opacity:.15" d="m36.618 38.358a6.2503 6.2503 0 1 1 -12.501 0 6.2503 6.2503 0 1 1 12.501 0z" transform="matrix(0 1.1199 1.1199 0 -11.959 3.9899)"/>
  <path id="path3871" style="opacity:.4" d="m36.618 38.358a6.2503 6.2503 0 1 1 -12.501 0 6.2503 6.2503 0 1 1 12.501 0z" transform="matrix(0 .95995 .95995 0 -5.822 9.8485)"/>
  <rect id="rect3818" style="fill:url(#linearGradient3822)" rx="2" ry="2" height="10" width="24" y="29" x="45"/>
  <rect id="rect3718" style="stroke:url(#linearGradient3837);fill:url(#radialGradient3816)" rx="1" ry="1" height="7" width="21" y="30.5" x="46.5"/>
  <rect id="rect3760" style="fill:url(#linearGradient3860)" transform="scale(1,-1)" rx=".5" ry=".5" height="4" width="6" y="-46" x="46"/>
  <text id="text3812" y="34.94722" x="48.368675" xml:space="preserve" style="opacity:.4;font-size:1.9444px;font-family:Lilliput Steps;line-height:125%;fill:#000000"><tspan id="tspan3814" y="34.94722" x="48.368675">ENTER CODE</tspan></text>
  <path id="rect3950" style="opacity:.2" d="m46 45.5v1c0 0.277 0.223 0.5 0.5 0.5h5c0.277 0 0.5-0.223 0.5-0.5v-1c0 0.277-0.223 0.5-0.5 0.5h-5c-0.277 0-0.5-0.223-0.5-0.5z"/>
  <text id="text3968" y="45.18573" x="49.001682" xml:space="preserve" style="font-size:3.4445px;text-anchor:middle;text-align:center;font-family:Liberation Sans;line-height:125%;fill:#ffffff"><tspan id="tspan3970" y="45.18573" x="49.001682">7</tspan></text>
  <rect id="rect3972" style="fill:url(#linearGradient3980)" transform="scale(1,-1)" rx=".5" ry=".5" height="4" width="6" y="-46" x="54"/>
  <path id="path3974" style="opacity:.2" d="m54 45.5v1c0 0.277 0.223 0.5 0.5 0.5h5c0.277 0 0.5-0.223 0.5-0.5v-1c0 0.277-0.223 0.5-0.5 0.5h-5c-0.277 0-0.5-0.223-0.5-0.5z"/>
  <text id="text3976" y="45.18573" x="57.001682" xml:space="preserve" style="font-size:3.4445px;text-anchor:middle;text-align:center;font-family:Liberation Sans;line-height:125%;fill:#ffffff"><tspan id="tspan3978" y="45.18573" x="57.001682">8</tspan></text>
  <rect id="rect3982" style="fill:url(#linearGradient3990)" transform="scale(1,-1)" rx=".5" ry=".5" height="4" width="6" y="-46" x="62"/>
  <path id="path3984" style="opacity:.2" d="m62 45.5v1c0 0.277 0.223 0.5 0.5 0.5h5c0.277 0 0.5-0.223 0.5-0.5v-1c0 0.277-0.223 0.5-0.5 0.5h-5c-0.277 0-0.5-0.223-0.5-0.5z"/>
  <text id="text3986" y="45.18573" x="65.001678" xml:space="preserve" style="font-size:3.4445px;text-anchor:middle;text-align:center;font-family:Liberation Sans;line-height:125%;fill:#ffffff"><tspan id="tspan3988" y="45.18573" x="65.001678">9</tspan></text>
  <rect id="rect3992" style="fill:url(#linearGradient4016)" transform="scale(1,-1)" rx=".5" ry=".5" height="4" width="6" y="-52" x="46"/>
  <path id="path3994" style="opacity:.2" d="m46 51.5v1c0 0.277 0.223 0.5 0.5 0.5h5c0.277 0 0.5-0.223 0.5-0.5v-1c0 0.277-0.223 0.5-0.5 0.5h-5c-0.277 0-0.5-0.223-0.5-0.5z"/>
  <text id="text3996" y="51.18573" x="49.001682" xml:space="preserve" style="font-size:3.4445px;text-anchor:middle;text-align:center;font-family:Liberation Sans;line-height:125%;fill:#ffffff"><tspan id="tspan3998" y="51.18573" x="49.001682">4</tspan></text>
  <rect id="rect4000" style="fill:url(#linearGradient4018)" transform="scale(1,-1)" rx=".5" ry=".5" height="4" width="6" y="-52" x="54"/>
  <path id="path4002" style="opacity:.2" d="m54 51.5v1c0 0.277 0.223 0.5 0.5 0.5h5c0.277 0 0.5-0.223 0.5-0.5v-1c0 0.277-0.223 0.5-0.5 0.5h-5c-0.277 0-0.5-0.223-0.5-0.5z"/>
  <text id="text4004" y="51.18573" x="57.001682" xml:space="preserve" style="font-size:3.4445px;text-anchor:middle;text-align:center;font-family:Liberation Sans;line-height:125%;fill:#ffffff"><tspan id="tspan4006" y="51.18573" x="57.001682">5</tspan></text>
  <rect id="rect4008" style="fill:url(#linearGradient4020)" transform="scale(1,-1)" rx=".5" ry=".5" height="4" width="6" y="-52" x="62"/>
  <path id="path4010" style="opacity:.2" d="m62 51.5v1c0 0.277 0.223 0.5 0.5 0.5h5c0.277 0 0.5-0.223 0.5-0.5v-1c0 0.277-0.223 0.5-0.5 0.5h-5c-0.277 0-0.5-0.223-0.5-0.5z"/>
  <text id="text4012" y="51.18573" x="65.001678" xml:space="preserve" style="font-size:3.4445px;text-anchor:middle;text-align:center;font-family:Liberation Sans;line-height:125%;fill:#ffffff"><tspan id="tspan4014" y="51.18573" x="65.001678">6</tspan></text>
  <rect id="rect4022" style="fill:url(#linearGradient4046)" transform="scale(1,-1)" rx=".5" ry=".5" height="4" width="6" y="-58" x="46"/>
  <path id="path4024" style="opacity:.2" d="m46 57.5v1c0 0.277 0.223 0.5 0.5 0.5h5c0.277 0 0.5-0.223 0.5-0.5v-1c0 0.277-0.223 0.5-0.5 0.5h-5c-0.277 0-0.5-0.223-0.5-0.5z"/>
  <text id="text4026" y="57.18573" x="49.001682" xml:space="preserve" style="font-size:3.4445px;text-anchor:middle;text-align:center;font-family:Liberation Sans;line-height:125%;fill:#ffffff"><tspan id="tspan4028" y="57.18573" x="49.001682">1</tspan></text>
  <rect id="rect4030" style="fill:url(#linearGradient4048)" transform="scale(1,-1)" rx=".5" ry=".5" height="4" width="6" y="-58" x="54"/>
  <path id="path4032" style="opacity:.2" d="m54 57.5v1c0 0.277 0.223 0.5 0.5 0.5h5c0.277 0 0.5-0.223 0.5-0.5v-1c0 0.277-0.223 0.5-0.5 0.5h-5c-0.277 0-0.5-0.223-0.5-0.5z"/>
  <text id="text4034" y="57.18573" x="57.001682" xml:space="preserve" style="font-size:3.4445px;text-anchor:middle;text-align:center;font-family:Liberation Sans;line-height:125%;fill:#ffffff"><tspan id="tspan4036" y="57.18573" x="57.001682">2</tspan></text>
  <rect id="rect4038" style="fill:url(#linearGradient4051)" transform="scale(1,-1)" rx=".5" ry=".5" height="4" width="6" y="-58" x="62"/>
  <path id="path4040" style="opacity:.2" d="m62 57.5v1c0 0.277 0.223 0.5 0.5 0.5h5c0.277 0 0.5-0.223 0.5-0.5v-1c0 0.277-0.223 0.5-0.5 0.5h-5c-0.277 0-0.5-0.223-0.5-0.5z"/>
  <text id="text4042" y="57.18573" x="65.001678" xml:space="preserve" style="font-size:3.4445px;text-anchor:middle;text-align:center;font-family:Liberation Sans;line-height:125%;fill:#ffffff"><tspan id="tspan4044" y="57.18573" x="65.001678">3</tspan></text>
  <rect id="rect4053" style="fill:url(#linearGradient4077)" transform="scale(1,-1)" rx=".5" ry=".5" height="4" width="6" y="-64" x="46"/>
  <path id="path4055" style="opacity:.2" d="m46 63.5v1c0 0.277 0.223 0.5 0.5 0.5h5c0.277 0 0.5-0.223 0.5-0.5v-1c0 0.277-0.223 0.5-0.5 0.5h-5c-0.277 0-0.5-0.223-0.5-0.5z"/>
  <text id="text4057" y="63.18573" x="49.001682" xml:space="preserve" style="font-size:3.4445px;text-anchor:middle;text-align:center;font-family:Liberation Sans;line-height:125%;fill:#ffffff"><tspan id="tspan4059" y="63.18573" x="49.001682">*</tspan></text>
  <rect id="rect4061" style="fill:url(#linearGradient4079)" transform="scale(1,-1)" rx=".5" ry=".5" height="4" width="6" y="-64" x="54"/>
  <path id="path4063" style="opacity:.2" d="m54 63.5v1c0 0.277 0.223 0.5 0.5 0.5h5c0.277 0 0.5-0.223 0.5-0.5v-1c0 0.277-0.223 0.5-0.5 0.5h-5c-0.277 0-0.5-0.223-0.5-0.5z"/>
  <text id="text4065" y="63.18573" x="57.001682" xml:space="preserve" style="font-size:3.4445px;text-anchor:middle;text-align:center;font-family:Liberation Sans;line-height:125%;fill:#ffffff"><tspan id="tspan4067" y="63.18573" x="57.001682">0</tspan></text>
  <rect id="rect4069" style="fill:url(#linearGradient4081)" transform="scale(1,-1)" rx=".5" ry=".5" height="4" width="6" y="-64" x="62"/>
  <path id="path4071" style="opacity:.2" d="m62 63.5v1c0 0.277 0.223 0.5 0.5 0.5h5c0.277 0 0.5-0.223 0.5-0.5v-1c0 0.277-0.223 0.5-0.5 0.5h-5c-0.277 0-0.5-0.223-0.5-0.5z"/>
  <text id="text4073" y="63.18573" x="65.001678" xml:space="preserve" style="font-size:3.4445px;text-anchor:middle;text-align:center;font-family:Liberation Sans;line-height:125%;fill:#ffffff"><tspan id="tspan4075" y="63.18573" x="65.001678">#</tspan></text>
  <path id="path3806" style="fill:url(#linearGradient3820)" d="m36.618 38.358a6.2503 6.2503 0 1 1 -12.501 0 6.2503 6.2503 0 1 1 12.501 0z" transform="matrix(0 .95995 .95995 0 -5.822 8.8485)"/>
  <path id="path3880" style="opacity:.15" d="m32 34c-1.8769 0-3.4437 1.2876-3.875 3.0312-0.63237 0.0919-1.125 0.54482-1.125 1.125v25.688c0 0.646 0.605 1.156 1.344 1.156h1 4.3125 1c0.739 0 1.344-0.51 1.344-1.156v-25.688c0-0.02262 0.0014-0.0402 0-0.0625 0.000722-0.03127 0-0.06231 0-0.09375 0-2.2091-1.7909-4-4-4z"/>
  <path id="rect3875" style="opacity:.4" d="m28.344 37c-0.076 0-0.147 0.021-0.219 0.031-0.076 0.309-0.125 0.637-0.125 0.969 0 0.03144-0.000722 0.06248 0 0.09375-0.0014 0.0223 0 0.03988 0 0.0625v25.688c0 0.646 0.605 1.156 1.344 1.156h4.3125c0.739 0 1.344-0.51 1.344-1.156v-25.688c0-0.646-0.605-1.156-1.344-1.156h-5.3125z"/>
  <rect id="rect3808" style="fill:url(#linearGradient3849)" rx="1" ry="1" height="24" width="6" y="40" x="28"/>
  <path id="path3811" style="fill:url(#linearGradient3891)" d="m36.618 38.358a6.2503 6.2503 0 1 1 -12.501 0 6.2503 6.2503 0 1 1 12.501 0z" transform="matrix(.63997 0 0 .63997 11.566 13.452)"/>
  <path id="rect3822" style="fill:url(#linearGradient3841)" d="m28.062 40.719c-0.028 0.093-0.062 0.178-0.062 0.281v22c0 0.554 0.446 1 1 1h4c0.554 0 1-0.446 1-1v-22c0-0.103-0.034-0.188-0.062-0.281-0.272 0.294-0.59 0.517-0.938 0.719v21.062c0 0.277-0.223 0.5-0.5 0.5h-3c-0.277 0-0.5-0.223-0.5-0.5v-21.062c-0.34837-0.20196-0.66594-0.42491-0.9375-0.71875z"/>
  <path id="path3886" style="opacity:.2" d="m31 34c-2.2091 0-4 1.7909-4 4 0 0.17012 0.04189 0.33547 0.0625 0.5 0.248-1.972 1.899-3.5 3.938-3.5s3.6904 1.528 3.9375 3.5c0.02-0.165 0.062-0.33 0.062-0.5 0-2.209-1.791-4-4-4z"/>
  <path id="rect3905" style="opacity:.4;fill:url(#radialGradient3916)" d="m52 44v3h-2v1h2v2h2v-2h2v-1h-2v-3h-2z"/>
  <path id="path3918" style="opacity:.4;fill:url(#radialGradient3920)" d="m60 44v3h-2v1h2v2h2v-2h2v-1h-2v-3h-2z"/>
  <path id="path3922" style="opacity:.4;fill:url(#radialGradient3926)" d="m52 50v3h-2v1h2v2h2v-2h2v-1h-2v-3h-2z"/>
  <path id="path3924" style="opacity:.4;fill:url(#radialGradient3928)" d="m60 50v3h-2v1h2v2h2v-2h2v-1h-2v-3h-2z"/>
  <path id="path3930" style="opacity:.4;fill:url(#radialGradient3934)" d="m52 56v3h-2v1h2v2h2v-2h2v-1h-2v-3h-2z"/>
  <path id="path3932" style="opacity:.4;fill:url(#radialGradient3936)" d="m60 56v3h-2v1h2v2h2v-2h2v-1h-2v-3h-2z"/>
 </g>
</svg>
