<?xml version="1.0" encoding="UTF-8" standalone="no"?>
<!-- Created with Inkscape (http://www.inkscape.org/) -->
<svg id="svg2408" xmlns:rdf="http://www.w3.org/1999/02/22-rdf-syntax-ns#" xmlns="http://www.w3.org/2000/svg" height="96" width="96" version="1.0" xmlns:cc="http://creativecommons.org/ns#" xmlns:xlink="http://www.w3.org/1999/xlink" xmlns:dc="http://purl.org/dc/elements/1.1/">
 <defs id="defs2410">
  <linearGradient id="linearGradient4384">
   <stop id="stop4386" style="stop-color:#fff" offset="0"/>
   <stop id="stop4388" style="stop-color:#fff;stop-opacity:0" offset="1"/>
  </linearGradient>
  <linearGradient id="ButtonShadow" y2="7.0165" gradientUnits="userSpaceOnUse" x2="45.448" gradientTransform="scale(1.0059 .99417)" y1="92.54" x1="45.448">
   <stop id="stop3750" offset="0"/>
   <stop id="stop3752" style="stop-opacity:.58824" offset="1"/>
  </linearGradient>
  <filter id="filter3174" color-interpolation-filters="sRGB">
   <feGaussianBlur id="feGaussianBlur3176" stdDeviation="1.71"/>
  </filter>
  <filter id="filter3794" height="1.384" width="1.384" color-interpolation-filters="sRGB" y="-.192" x="-.192">
   <feGaussianBlur id="feGaussianBlur3796" stdDeviation="5.28"/>
  </filter>
  <linearGradient id="linearGradient3613" y2="138.66" xlink:href="#linearGradient4384" gradientUnits="userSpaceOnUse" x2="48" y1="20.221" x1="48"/>
  <linearGradient id="linearGradient3617" y2="5.9877" gradientUnits="userSpaceOnUse" x2="48" y1="90" x1="48">
   <stop id="stop2883" style="stop-color:#296cd4" offset="0"/>
   <stop id="stop2885" style="stop-color:#7da8e9" offset="1"/>
  </linearGradient>
  <linearGradient id="ButtonShadow-0" y2="7.0165" gradientUnits="userSpaceOnUse" x2="45.448" gradientTransform="matrix(1.0059 0 0 .99417 100 0)" y1="92.54" x1="45.448">
   <stop id="stop3750-8" offset="0"/>
   <stop id="stop3752-5" style="stop-opacity:.58824" offset="1"/>
  </linearGradient>
  <linearGradient id="linearGradient3780" y2="90.239" xlink:href="#ButtonShadow-0" gradientUnits="userSpaceOnUse" x2="32.251" gradientTransform="matrix(1.0238 0 0 1.0119 -1.1429 -98.071)" y1="6.1317" x1="32.251"/>
  <linearGradient id="linearGradient3721" y2="90.239" xlink:href="#ButtonShadow-0" gradientUnits="userSpaceOnUse" x2="32.251" gradientTransform="translate(0,-97)" y1="6.1317" x1="32.251"/>
  <clipPath id="clipPath4355">
   <rect id="rect4357" style="fill:#fff" rx="6" ry="6" height="80" width="84" y="6" x="6"/>
  </clipPath>
  <radialGradient id="radialGradient4375" gradientUnits="userSpaceOnUse" cy="87.792" cx="48" gradientTransform="matrix(1 -6.7115e-8 8.4282e-8 1.2558 110 -24.506)" r="42">
   <stop id="stop4369" style="stop-color:#fff;stop-opacity:.71756" offset="0"/>
   <stop id="stop4371" style="stop-color:#fff" offset="1"/>
  </radialGradient>
  <linearGradient id="linearGradient4390" y2="-40" xlink:href="#linearGradient4384" gradientUnits="userSpaceOnUse" x2="48" gradientTransform="matrix(1,0,0,-1,0,92)" y1="88" x1="48"/>
  <linearGradient id="linearGradient4429" y2="82.455" xlink:href="#linearGradient4384" spreadMethod="reflect" gradientUnits="userSpaceOnUse" x2="112.12" y1="82" x1="48"/>
  <linearGradient id="linearGradient3870" y2="1033.4" spreadMethod="reflect" gradientUnits="userSpaceOnUse" x2="50" gradientTransform="translate(-2 -956.36)" y1="1033.4" x1="8">
   <stop id="stop3845" style="stop-color:#523823" offset="0"/>
   <stop id="stop3847" style="stop-color:#79563a" offset=".11780"/>
   <stop id="stop3849" style="stop-color:#875c38" offset=".23810"/>
   <stop id="stop3851" style="stop-color:#a66e40" offset="1"/>
  </linearGradient>
  <linearGradient id="linearGradient3114" y2="16.973" gradientUnits="userSpaceOnUse" x2="46.655" y1="75.562" x1="48.082">
   <stop id="stop3733" style="stop-color:#dcdcdc" offset="0"/>
   <stop id="stop3757" style="stop-color:#ebebeb" offset=".30654"/>
   <stop id="stop3737" style="stop-color:#fff" offset=".70706"/>
   <stop id="stop3759" style="stop-color:#fafafa" offset=".84501"/>
   <stop id="stop3735" style="stop-color:#f0f0f0" offset="1"/>
  </linearGradient>
  <linearGradient id="linearGradient3869" y2="104" xlink:href="#linearGradient4384" gradientUnits="userSpaceOnUse" x2="40" y1="16" x1="40"/>
 </defs>
 <metadata id="metadata2413">
  <rdf:RDF>
   <cc:Work rdf:about="">
    <dc:format>image/svg+xml</dc:format>
    <dc:type rdf:resource="http://purl.org/dc/dcmitype/StillImage"/>
    <dc:title/>
   </cc:Work>
  </rdf:RDF>
 </metadata>
 <g id="layer2" style="display:none">
  <rect id="rect3745" style="opacity:.9;filter:url(#filter3174);fill:url(#ButtonShadow)" rx="6" ry="6" height="85" width="86" y="7" x="5"/>
 </g>
 <g id="layer3">
  <path id="path3786" style="opacity:0.08;fill:url(#linearGradient3780)" d="m12-95.031c-5.5111 0-10.031 4.5202-10.031 10.031v71c0 5.5111 4.5202 10.031 10.031 10.031h72c5.5111 0 10.031-4.5202 10.031-10.031v-71c0-5.5111-4.5202-10.031-10.031-10.031h-72z" transform="scale(1,-1)"/>
  <path id="path3778" style="opacity:.1;fill:url(#linearGradient3780)" d="m12-94.031c-4.9716 0-9.0312 4.0596-9.0312 9.0312v71c0 4.9716 4.0596 9.0312 9.0312 9.0312h72c4.9716 0 9.0312-4.0596 9.0312-9.0312v-71c0-4.9716-4.0596-9.0312-9.0312-9.0312h-72z" transform="scale(1,-1)"/>
  <path id="path3770" style="opacity:.2;fill:url(#linearGradient3780)" d="m12-93c-4.4091 0-8 3.5909-8 8v71c0 4.4091 3.5909 8 8 8h72c4.4091 0 8-3.5909 8-8v-71c0-4.4091-3.5909-8-8-8h-72z" transform="scale(1,-1)"/>
  <rect id="rect3723" style="opacity:.3;fill:url(#linearGradient3780)" transform="scale(1,-1)" rx="7" ry="7" height="85" width="86" y="-92" x="5"/>
  <rect id="rect3716" style="opacity:.45;fill:url(#linearGradient3721)" transform="scale(1,-1)" rx="6" ry="6" height="84" width="84" y="-91" x="6"/>
 </g>
 <g id="layer4">
  <rect id="rect2841" style="color:#000000;fill:url(#linearGradient3870)" rx="6" ry="6" height="26" width="84" y="64" x="6"/>
  <path id="rect4345" style="opacity:.1;color:#000000" d="m6 82v2c0 3.324 2.676 6 6 6h72c3.324 0 6-2.676 6-6v-2c0 3.324-2.676 6-6 6h-72c-3.324 0-6-2.676-6-6z"/>
  <path id="rect4336" style="opacity:.1;color:#000000" d="m6 83v1c0 3.324 2.676 6 6 6h72c3.324 0 6-2.676 6-6v-1c0 3.324-2.676 6-6 6h-72c-3.324 0-6-2.676-6-6z"/>
  <path id="path4412" style="opacity:.2" d="m6 80v1c0 3.324 2.676 6 6 6h72c3.324 0 6-2.676 6-6v-1c0 3.324-2.676 6-6 6h-72c-3.324 0-6-2.676-6-6z"/>
 </g>
 <g id="layer1">
  <rect id="rect2419" style="fill:url(#linearGradient3617)" rx="6" ry="6" height="80" width="84" y="6" x="6"/>
  <path id="rect4359" style="opacity:.2;fill:url(#radialGradient4375)" d="m120.78 6.125c-2.74 0.5576-4.78 2.9665-4.78 5.875v68c0 3.324 2.676 6 6 6h72c3.324 0 6-2.676 6-6v-68c0-2.9085-2.0422-5.3174-4.7812-5.875 2.2051 0.53621 3.8125 2.4908 3.8125 4.875v68c0 2.8049-2.2264 5.0312-5.0312 5.0312h-72c-2.8049 0-5.0312-2.2264-5.0312-5.0312v-68c0-2.3842 1.6074-4.3388 3.8125-4.875z"/>
  <path id="rect4377" style="opacity:.3;fill:url(#linearGradient4390)" d="m12 86c-3.324 0-6-2.676-6-6v-68c0-3.324 2.676-6 6-6h72c3.324 0 6 2.676 6 6v68c0 3.324-2.676 6-6 6zm0-0.96875h72c2.8049 0 5.0312-2.2264 5.0312-5.0312v-68c0-2.8049-2.226-5.0312-5.031-5.0312h-72c-2.8049 0-5.0312 2.2263-5.0312 5.0312v68c0 2.8049 2.2264 5.0312 5.0312 5.0312z"/>
  <path id="rect4414" style="opacity:.1;fill:url(#linearGradient4429)" d="m6 78v2c0 3.324 2.676 6 6 6h72c3.324 0 6-2.676 6-6v-2c0 3.324-2.676 6-6 6h-72c-3.324 0-6-2.676-6-6z"/>
 </g>
 <g id="layer5">
  <rect id="rect3171" style="opacity:.1;filter:url(#filter3794);stroke:#fff;stroke-linecap:round;stroke-width:.5;fill:url(#linearGradient3613)" clip-path="url(#clipPath4355)" rx="12" ry="12" height="62" width="66" y="15" x="15"/>
 </g>
 <g id="layer6">
  <path id="path3887" style="opacity:.05" d="m48 14.938c-13.065-0.07431-26.859 6.1489-33.156 18.188-4.7535 8.7975-3.4994 20.075 2.7188 27.812 0.009 0.01174 0.02222 0.01953 0.03125 0.03125 2.4651 3.1996 5.5665 5.8217 8.9688 7.9375-0.81545 3.3496-3.7381 5.9498-7.125 6.7188a0.99095 0.99095 0 0 0 -0.21875 0.09375c-2.5893 1.3307-1.6477 5.5594 1.2188 5.6875v0.03125c0.01075 0.000434 0.02044-0.000317 0.03125 0 0.03664 0.0011 0.0565 0.03154 0.09375 0.03125v-0.03125c7.4865 0.88026 15.121-1.8361 20.531-7.0312 13.926 2.4507 29.607-2.4238 38.062-14.25h0.03125c0.0047-0.0065-0.0047-0.02472 0-0.03125 6.4664-8.7912 6.4664-21.459 0-30.25-0.0047-0.0066 0.0047-0.02462 0-0.03125h-0.03125c-7.02-9.931-19.34-14.941-31.156-14.906zm-6.4375 17.125c-0.15324 0.43962-0.32346 0.91969-0.4375 1.25-0.17703 0.51276-0.35396 0.70928-0.3125 0.6875 0.02073-0.01089 0.05427 0.02339-0.0625 0s-0.3673-0.12418-0.71875-0.34375a0.99095 0.99095 0 0 0 -0.03125 0c-0.3691-0.22266-0.25561-0.1962-0.25-0.25 0.0056-0.0538 0.11798-0.35126 0.4375-0.65625 0.38623-0.36865 0.86336-0.47707 1.375-0.6875zm12.156 0.84375c0.43796 0.31542 0.88227 0.60266 1.2188 1 0.91892 1.0851 1.3986 2.3988 1.1562 3.8438a0.99095 0.99095 0 0 0 -0.03125 0.09375c-0.10444 1.7223-0.95713 3.049-2.25 4.1875-0.25597 0.2254-0.58913 0.3884-0.875 0.59375 1.4838-2.9981 1.7197-6.5136 0.78125-9.7188zm-7.156 26.343a0.99095 0.99095 0 0 0 0.40625 0c0.48979-0.0762 0.54593 0.04613 0.65625 0.1875s0.23244 0.46824 0.1875 0.8125-0.24375 0.65304-0.40625 0.78125-0.28998 0.17767-0.75 0a0.99095 0.99095 0 0 0 -0.375 -0.0625c-0.26543 0.0052-0.27871-0.03524-0.375-0.1875s-0.15996-0.46874-0.125-0.78125c0.03496-0.31252 0.16362-0.57748 0.28125-0.6875 0.11762-0.11002 0.17476-0.15112 0.5-0.0625z"/>
  <path id="path3881" style="opacity:0.08" d="m48 15.938c-12.745-0.07249-26.191 6.0232-32.276 17.656-4.553 8.4264-3.3709 19.32 2.6045 26.739 2.549 3.3184 5.7968 6.0696 9.39 8.1987-0.67733 4.0784-4.129 7.1694-8.0625 8.0625-1.7525 0.90066-1.0907 3.8906 0.90625 3.875 7.3813 0.90748 15.01-1.8429 20.25-7.0938 13.701 2.579 29.28-2.2004 37.556-13.81 6.2152-8.4297 6.2152-20.7 0-29.129-6.788-9.634-18.82-14.532-30.368-14.498zm-4.0312 14.5c-2.445 1.044-1.139 6.142-4.469 4.062-2.318-1.398 1.367-3.875 2.965-3.873 0.486-0.154 1.002-0.136 1.504-0.189zm7.5 0.28125c3.2168 0.75377 6.1795 3.6739 5.5902 7.1871-0.24572 4.0519-4.1293 6.3882-7.5277 7.7191 3.7976-3.2591 4.8502-9.1185 2.9801-13.663-0.21427-0.52356-0.59467-0.91357-1.0426-1.2433zm-3.875 16.25c-0.40579 0.52923-0.50724 3.305-0.72129 1.5913-0.20374-0.85297-0.34471-1.2977 0.72129-1.5913zm-0.78125 11.312c3.0416-0.47321 2.3762 4.7867-0.49602 3.6774-2.3125 0.04499-1.9129-4.3337 0.49602-3.6774z"/>
  <path id="path3877" style="opacity:0.12" d="m48 17c-18.668 0-34 12.428-34 28 0 9.6667 6.0049 18.085 14.938 23.094-0.21039 1.191-0.62231 2.8655-1.7188 4.5625-1.2531 1.9395-3.2942 3.7956-6.7812 4.7812a1.0003 1.0003 0 0 0 0.1875 1.9688c9.696 1.054 16.242-3.524 19.843-7.156 2.43 0.455 4.933 0.75 7.531 0.75 18.668 0 34-12.428 34-28s-15.332-28-34-28zm-0.90625 12.062c1.6487 0.000034 3.1576 0.20559 4.5312 0.59375a1.0003 1.0003 0 0 0 0.03125 0c1.3704 0.37242 2.5039 0.91939 3.4688 1.625 0.95736 0.68592 1.7143 1.5133 2.25 2.5 0.52293 0.96335 0.78123 2.0582 0.78125 3.3438-0.000023 1.2069-0.20006 2.2501-0.5625 3.1562a1.0003 1.0003 0 0 0 0 0.03125c-0.35326 0.91844-0.85858 1.7216-1.5938 2.5-0.74584 0.78972-1.6794 1.5544-2.8438 2.25v-0.03125c-1.165 0.69-2.559 1.374-4.156 2.031a1.0003 1.0003 0 0 0 -0.59375 0.71875l-0.8125 3.6875h-1.3438l-0.75-4.5312c1.1208-0.5134 2.1969-1.0447 3-1.7188a1.0003 1.0003 0 0 0 0 -0.03125c0.95864-0.82168 1.7617-1.7054 2.3438-2.6875h-0.03125c0.57761-0.96268 1.0015-1.9765 1.2188-3.0625 0.20581-1.0291 0.31248-2.0562 0.3125-3.0938-0.000018-0.84794-0.08639-1.6477-0.25-2.375-0.16158-0.73596-0.41278-1.4091-0.8125-2-0.0083-0.01318-0.02276-0.0182-0.03125-0.03125-0.40416-0.62133-0.94587-1.0879-1.5625-1.4062-0.65484-0.34919-1.3973-0.49996-2.1875-0.5-0.88475 0.00004-1.7193 0.22217-2.4062 0.6875-0.62122 0.42086-1.1501 0.98542-1.5312 1.6875-0.36914 0.68001-0.59267 1.4284-0.75 2.25a1.0003 1.0003 0 0 0 -0.03125 0.03125c-0.08056 0.47326-0.0618 0.97449-0.09375 1.4688-0.60219-0.03142-1.2341-0.06863-1.75-0.15625-0.77101-0.1309-1.3717-0.30084-1.9062-0.53125-0.0097-0.0046-0.02164 0.0046-0.03125 0-0.49824-0.23954-0.83078-0.49685-1.0625-0.78125-0.21146-0.27185-0.3125-0.55544-0.3125-0.90625-0.000002-0.62665 0.13779-1.1401 0.46875-1.6875a1.0003 1.0003 0 0 0 0.03 -0.033c0.31306-0.52977 0.82443-1.0338 1.5312-1.4688 0.01472-0.0091 0.01635-0.02225 0.03125-0.03125 0.73101-0.42736 1.7399-0.79273 2.9688-1.0625 1.2232-0.2834 2.6889-0.43746 4.4375-0.4375zm-0.282 28.157c0.47158 0.000006 0.89566 0.05344 1.2812 0.15625 0.36416 0.09399 0.69042 0.26465 0.9375 0.46875 0.2392 0.19762 0.4112 0.44009 0.5625 0.8125a1.0003 1.0003 0 0 0 0.032 0.032c0.13485 0.29862 0.21874 0.79453 0.21875 1.4688-0.000014 0.65652-0.08074 1.1319-0.21875 1.4375a1.0003 1.0003 0 0 0 -0.031 0.031c-0.15371 0.36651-0.33659 0.62587-0.5625 0.8125-0.22115 0.18268-0.53523 0.33368-0.9375 0.4375a1.0003 1.0003 0 0 0 -0.03125 0c-0.38603 0.1158-0.79709 0.1875-1.25 0.1875-0.47155-0.000001-0.87082-0.06835-1.2812-0.1875a1.0003 1.0003 0 0 0 -0.03125 0c-0.38614-0.09965-0.68776-0.23412-0.90625-0.40625-0.009-0.0077-0.0223-0.02313-0.03125-0.03125-0.20043-0.18197-0.37769-0.44631-0.53125-0.8125-0.14106-0.33635-0.25001-0.82674-0.25-1.4688-0.000007-0.66002 0.11177-1.1704 0.25-1.5 0.15094-0.37157 0.32045-0.6227 0.53125-0.8125 0.0094-0.0085 0.02172-0.02302 0.03125-0.03125 0.24229-0.19256 0.55663-0.34727 0.90625-0.4375 0.4096-0.1057 0.8228-0.15624 1.3125-0.15625z"/>
  <path id="path3871" style="opacity:.3" d="m48 18c-18.225 0-33 12.088-33 27 0 9.4984 5.9998 17.843 15.062 22.656-0.34462 2.5088-1.914 8.6498-9.3438 10.75 9.6229 1.0458 16.014-3.6463 19.406-7.1875 2.525 0.506 5.162 0.782 7.876 0.782 18.225 0 33-12.088 33-27s-14.775-27-33-27zm-0.90625 10.062c1.7291 0.000036 3.3395 0.20876 4.8125 0.625 1.473 0.4003 2.7398 0.99676 3.8125 1.7812 1.0727 0.76854 1.9228 1.723 2.5312 2.8438 0.60838 1.1208 0.90622 2.3876 0.90625 3.8125-0.000025 1.3129-0.20875 2.4906-0.625 3.5312-0.40029 1.0407-0.99598 1.9792-1.8125 2.8438-0.81656 0.8646-1.8297 1.6698-3.0625 2.4062-1.217 0.721-2.648 1.422-4.281 2.094l-1 4.4688h-3l-0.96875-6.0625c1.4089-0.56036 2.5409-1.2162 3.4375-1.9688 0.89658-0.76849 1.6126-1.5729 2.125-2.4375 0.52834-0.88056 0.90161-1.7893 1.0938-2.75 0.19211-0.96062 0.28123-1.9296 0.28125-2.9062 0-0.785-0.075-1.516-0.219-2.156-0.144-0.657-0.367-1.224-0.687-1.688-0.305-0.48-0.723-0.838-1.219-1.094-0.481-0.256-1.047-0.375-1.719-0.375-0.7365 0.000033-1.3474 0.16381-1.8438 0.5-0.49634 0.33626-0.91456 0.78341-1.2188 1.3438-0.30421 0.5604-0.51216 1.2163-0.65625 1.9688-0.12809 0.75253-0.18751 1.5425-0.1875 2.375-1.0087 0.000026-1.9639-0.07463-2.8125-0.21875-0.84857-0.14407-1.5631-0.35279-2.1875-0.625-0.60841-0.28816-1.0853-0.63018-1.4375-1.0625-0.33623-0.43226-0.53125-0.95484-0.53125-1.5312-0.000002-0.8005 0.20872-1.5303 0.625-2.2188 0.41628-0.70444 1.0577-1.3314 1.9062-1.8438 0.86457-0.51231 1.9684-0.89927 3.2812-1.1875 1.3129-0.30417 2.847-0.46871 4.6562-0.46875zm-0.282 28.157c0.54435 0.000007 1.0509 0.05942 1.5312 0.1875 0.49632 0.12809 0.94424 0.35205 1.3125 0.65625 0.36823 0.30421 0.66685 0.70641 0.875 1.2188 0.22413 0.49634 0.31248 1.1225 0.3125 1.875-0.000016 0.73649-0.08837 1.3474-0.3125 1.8438-0.20815 0.49633-0.50677 0.91455-0.875 1.2188-0.36826 0.3042-0.81618 0.49691-1.3125 0.625-0.48033 0.1441-0.9869 0.21875-1.5312 0.21875-0.56038-0.000001-1.0662-0.07466-1.5625-0.21875-0.49634-0.12809-0.94426-0.3208-1.3125-0.625-0.352-0.304-0.635-0.723-0.843-1.219-0.20815-0.49633-0.31251-1.1073-0.3125-1.8438-0.000008-0.7525 0.10435-1.3787 0.3125-1.875 0.20813-0.51234 0.49151-0.91454 0.84375-1.2188 0.36824-0.3042 0.81616-0.52816 1.3125-0.65625 0.49632-0.12808 1.0021-0.18749 1.5625-0.1875z"/>
  <path id="path3620" style="fill:url(#linearGradient3114)" d="m48 17c-18.225 0-33 12.088-33 27 0 9.4984 5.9998 17.843 15.062 22.656-0.34462 2.5088-1.914 8.6498-9.3438 10.75 9.6229 1.0458 16.014-3.6463 19.406-7.1875 2.525 0.506 5.162 0.782 7.876 0.782 18.225 0 33-12.088 33-27s-14.775-27-33-27zm-0.90625 10.062c1.7291 0.000036 3.3395 0.20876 4.8125 0.625 1.473 0.4003 2.7398 0.99676 3.8125 1.7812 1.0727 0.76854 1.9228 1.723 2.5312 2.8438 0.60838 1.1208 0.90622 2.3876 0.90625 3.8125-0.000025 1.3129-0.20875 2.4906-0.625 3.5312-0.40029 1.0407-0.99598 1.9792-1.8125 2.8438-0.81656 0.8646-1.8297 1.6698-3.0625 2.4062-1.217 0.721-2.648 1.422-4.281 2.094l-1 4.4688h-3l-0.96875-6.0625c1.4089-0.56036 2.5409-1.2162 3.4375-1.9688 0.89658-0.76849 1.6126-1.5729 2.125-2.4375 0.52834-0.88056 0.90161-1.7893 1.0938-2.75 0.19211-0.96062 0.28123-1.9296 0.28125-2.9062 0-0.785-0.075-1.516-0.219-2.156-0.144-0.657-0.367-1.224-0.687-1.688-0.305-0.48-0.723-0.838-1.219-1.094-0.481-0.256-1.047-0.375-1.719-0.375-0.7365 0.000033-1.3474 0.16381-1.8438 0.5-0.49634 0.33626-0.91456 0.78341-1.2188 1.3438-0.30421 0.5604-0.51216 1.2163-0.65625 1.9688-0.12809 0.75253-0.18751 1.5425-0.1875 2.375-1.0087 0.000026-1.9639-0.07463-2.8125-0.21875-0.84857-0.14407-1.5631-0.35279-2.1875-0.625-0.60841-0.28816-1.0853-0.63018-1.4375-1.0625-0.33623-0.43226-0.53125-0.95484-0.53125-1.5312-0.000002-0.8005 0.20872-1.5303 0.625-2.2188 0.41628-0.70444 1.0577-1.3314 1.9062-1.8438 0.86457-0.51231 1.9684-0.89927 3.2812-1.1875 1.3129-0.30417 2.847-0.46871 4.6562-0.46875zm-0.282 28.157c0.54435 0.000007 1.0509 0.05942 1.5312 0.1875 0.49632 0.12809 0.94424 0.35205 1.3125 0.65625 0.36823 0.30421 0.66685 0.70641 0.875 1.2188 0.22413 0.49634 0.31248 1.1225 0.3125 1.875-0.000016 0.73649-0.08837 1.3474-0.3125 1.8438-0.20815 0.49633-0.50677 0.91455-0.875 1.2188-0.36826 0.3042-0.81618 0.49691-1.3125 0.625-0.48033 0.1441-0.9869 0.21875-1.5312 0.21875-0.56038-0.000001-1.0662-0.07466-1.5625-0.21875-0.49634-0.12809-0.94426-0.3208-1.3125-0.625-0.352-0.304-0.635-0.723-0.843-1.219-0.20815-0.49633-0.31251-1.1073-0.3125-1.8438-0.000008-0.7525 0.10435-1.3787 0.3125-1.875 0.20813-0.51234 0.49151-0.91454 0.84375-1.2188 0.36824-0.3042 0.81616-0.52816 1.3125-0.65625 0.49632-0.12808 1.0021-0.18749 1.5625-0.1875z"/>
  <path id="path3079" style="opacity:.4;fill:#fff" d="m48 17c-18.225 0-33 12.088-33 27 0 0.20841 0.0255 0.41773 0.03125 0.625 0.884-14.266 15.313-25.625 32.969-25.625 17.811 0 32.318 11.557 32.969 26 0.015-0.336 0.031-0.661 0.031-1 0-14.912-14.775-27-33-27zm-0.5 13.031c-0.7365 0.000033-1.3474 0.16381-1.8438 0.5-0.49634 0.33626-0.91456 0.78341-1.2188 1.3438-0.30421 0.5604-0.51216 1.2163-0.65625 1.9688-0.12809 0.75253-0.18751 1.5425-0.1875 2.375-1.0087 0.000026-1.9639-0.07463-2.8125-0.21875-0.84857-0.14407-1.5631-0.35279-2.1875-0.625-0.60841-0.28816-1.0853-0.63018-1.4375-1.0625-0.1541-0.19812-0.2854-0.4237-0.375-0.65625-0.09878 0.35953-0.15625 0.73534-0.15625 1.125-0.000002 0.57641 0.19502 1.099 0.53125 1.5312 0.35223 0.43232 0.82909 0.77434 1.4375 1.0625 0.62441 0.27221 1.3389 0.48093 2.1875 0.625 0.84856 0.14412 1.8038 0.21878 2.8125 0.21875-0.000009-0.83253 0.05941-1.6225 0.1875-2.375 0.14409-0.75247 0.35204-1.4083 0.65625-1.9688 0.30419-0.56034 0.72241-1.0075 1.2188-1.3438 0.49632-0.33619 1.1072-0.49997 1.8438-0.5 0.67244 0.000033 1.2384 0.11886 1.7188 0.375 0.49632 0.2562 0.91453 0.61346 1.2188 1.0938 0.3202 0.46434 0.54339 1.0311 0.6875 1.6875 0.08799 0.39117 0.12123 0.83088 0.15625 1.2812 0.02696-0.37195 0.06249-0.75075 0.0625-1.125 0-0.784-0.075-1.515-0.219-2.155-0.144-0.657-0.367-1.224-0.687-1.688-0.305-0.48-0.723-0.838-1.219-1.094-0.481-0.256-1.047-0.375-1.719-0.375zm11.594 7.219c-0.08649 0.87143-0.2684 1.671-0.5625 2.4062-0.40029 1.0407-0.99598 1.9792-1.8125 2.8438-0.81656 0.8646-1.8297 1.6698-3.0625 2.4062-1.217 0.721-2.648 1.422-4.281 2.094l-1 4.4688h-3l-0.65625-4.1875c-0.10529 0.04431-0.20394 0.08183-0.3125 0.125l0.96875 6.0625h3l1-4.4688c1.6331-0.67243 3.0644-1.3733 4.2812-2.0938 1.2328-0.73647 2.2459-1.5417 3.0625-2.4062 0.81652-0.86456 1.4122-1.803 1.8125-2.8438 0.41625-1.0407 0.62498-2.2184 0.625-3.5312-0.000005-0.30245-0.03554-0.58668-0.0625-0.875zm-16.219 22.906c-0.04902 0.30512-0.09375 0.63506-0.09375 1-0.000008 0.73649 0.10435 1.3474 0.3125 1.8438 0.20813 0.49633 0.49151 0.91455 0.84375 1.2188 0.36824 0.3042 0.81616 0.49691 1.3125 0.625 0.49632 0.14409 1.0021 0.21875 1.5625 0.21875 0.54435-0.000001 1.0509-0.07466 1.5312-0.21875 0.49632-0.12809 0.94424-0.3208 1.3125-0.625 0.36823-0.3042 0.66685-0.72242 0.875-1.2188 0.22413-0.49633 0.31248-1.1073 0.3125-1.8438-0.000008-0.36489-0.01554-0.69492-0.0625-1-0.05011 0.30684-0.13794 0.59558-0.25 0.84375-0.20815 0.49633-0.50677 0.91455-0.875 1.2188-0.36826 0.3042-0.81618 0.49691-1.3125 0.625-0.48033 0.1441-0.9869 0.21875-1.5312 0.21875-0.56038-0.000001-1.0662-0.07466-1.5625-0.21875-0.49634-0.12809-0.94426-0.3208-1.3125-0.625-0.353-0.304-0.636-0.723-0.844-1.219-0.104-0.248-0.167-0.537-0.219-0.844zm-13.187 8.282c-0.78888 2.9258-2.9421 7.2652-8.9688 8.9688 1.4386 0.15635 2.7988 0.17086 4.0938 0.09375 3.9509-2.7354 4.9814-6.8885 5.25-8.8438-0.1292-0.06861-0.24706-0.14871-0.375-0.21875z"/>
  <path id="path3856" style="fill:url(#linearGradient3869)" d="m48 17c-18.225 0-33 12.088-33 27 0 9.4984 5.9998 17.843 15.062 22.656-0.34462 2.5088-1.914 8.6498-9.3438 10.75 9.6229 1.0458 16.014-3.6463 19.406-7.1875 2.525 0.506 5.162 0.782 7.876 0.782 18.225 0 33-12.088 33-27s-14.775-27-33-27zm0 1.0625c17.76 0 31.938 11.721 31.938 25.938 0 14.216-14.178 25.938-31.938 25.938-2.6426 0-5.199-0.25777-7.6562-0.75a1.0529 1.0529 0 0 0 -0.969 0.312c-2.6485 2.7645-7.2618 6.0878-13.812 6.75 1.4589-1.0421 2.5757-2.2629 3.375-3.5 1.4811-2.2923 1.9704-4.5844 2.1562-5.9375a1.0529 1.0529 0 0 0 -0.532 -1.093c-8.787-4.667-14.5-12.664-14.5-21.719 0-14.216 14.178-25.938 31.938-25.938zm-0.906 7.938c-1.8612 0.000037-3.4741 0.17798-4.875 0.5-0.0089 0.002-0.02238-0.0021-0.03125 0-1.3716 0.30336-2.5676 0.72294-3.5625 1.3125-0.97292 0.58746-1.7632 1.3421-2.2812 2.2188-0.50608 0.83702-0.78125 1.7665-0.78125 2.75-0.000003 0.81388 0.28244 1.5864 0.75 2.1875a1.0529 1.0529 0 0 0 0.03125 0c0.47438 0.58224 1.1052 1.0087 1.8125 1.3438a1.0529 1.0529 0 0 0 0.03125 0.03125c0.71339 0.311 1.4884 0.53167 2.4062 0.6875 0.91798 0.15591 1.9394 0.25003 3 0.25a1.0529 1.0529 0 0 0 1.0625 -1.0625c-0.000008-0.78243 0.03957-1.502 0.15625-2.1875 0.13015-0.67969 0.32663-1.2217 0.5625-1.6562 0.2232-0.41115 0.51011-0.72155 0.875-0.96875 0.29564-0.20026 0.66954-0.31247 1.25-0.3125 0.54844 0.000027 0.9221 0.09181 1.2188 0.25a1.0529 1.0529 0 0 0 0.03125 0c0.35605 0.1838 0.61539 0.40755 0.8125 0.71875a1.0529 1.0529 0 0 0 0 0.03125c0.22272 0.32298 0.40874 0.75449 0.53125 1.3125 0.1235 0.54903 0.18748 1.2198 0.1875 1.9375-0.000016 0.91265-0.07231 1.799-0.25 2.6875-0.16576 0.82875-0.49227 1.6434-0.96875 2.4375-0.43904 0.74088-1.075 1.4437-1.9062 2.1562-0.79312 0.66566-1.7983 1.2848-3.125 1.8125a1.0529 1.0529 0 0 0 -0.65625 1.125l0.96875 6.0625a1.0529 1.0529 0 0 0 1.0312 0.90625h3a1.0529 1.0529 0 0 0 1.0312 -0.84375l0.875-3.9688c1.4409-0.61625 2.7803-1.2396 3.9062-1.9062 1.3048-0.7795 2.3902-1.6503 3.2812-2.5938 0.89185-0.94432 1.5502-2.0026 2-3.1562h0.03125c0.0032-0.0081-0.0031-0.0231 0-0.03125 0.46552-1.1752 0.71872-2.4927 0.71875-3.9062-0.000028-1.5716-0.33292-3.026-1.0312-4.3125-0.68503-1.2618-1.6497-2.332-2.8438-3.1875-1.1863-0.86752-2.5753-1.5391-4.1562-1.9688v0.03125c-1.577-0.446-3.279-0.688-5.093-0.688zm0 1.0625c1.7291 0.000036 3.3395 0.20876 4.8125 0.625 1.473 0.4003 2.7398 0.99676 3.8125 1.7812 1.0727 0.76854 1.9228 1.723 2.5312 2.8438 0.60838 1.1208 0.90622 2.3876 0.90625 3.8125-0.000025 1.3129-0.20875 2.4906-0.625 3.5312-0.40029 1.0407-0.99598 1.9792-1.8125 2.8438-0.81656 0.8646-1.8297 1.6698-3.0625 2.4062-1.217 0.721-2.648 1.422-4.281 2.094l-1 4.4688h-3l-0.96875-6.0625c1.4089-0.56036 2.5409-1.2162 3.4375-1.9688 0.89658-0.76849 1.6126-1.5729 2.125-2.4375 0.52834-0.88056 0.90161-1.7893 1.0938-2.75 0.19211-0.96062 0.28123-1.9296 0.28125-2.9062 0-0.785-0.075-1.516-0.219-2.156-0.144-0.657-0.367-1.224-0.687-1.688-0.305-0.48-0.723-0.838-1.219-1.094-0.481-0.256-1.047-0.375-1.719-0.375-0.7365 0.000033-1.3474 0.16381-1.8438 0.5-0.49634 0.33626-0.91456 0.78341-1.2188 1.3438-0.30421 0.5604-0.51216 1.2163-0.65625 1.9688-0.12809 0.75253-0.18751 1.5425-0.1875 2.375-1.0087 0.000026-1.9639-0.07463-2.8125-0.21875-0.84857-0.14407-1.5631-0.35279-2.1875-0.625-0.60841-0.28816-1.0853-0.63018-1.4375-1.0625-0.33623-0.43226-0.53125-0.95484-0.53125-1.5312-0.000002-0.8005 0.20872-1.5303 0.625-2.2188 0.41628-0.70444 1.0577-1.3314 1.9062-1.8438 0.86457-0.51231 1.9684-0.89927 3.2812-1.1875 1.3129-0.30417 2.847-0.46871 4.6562-0.46875zm-0.282 27.094c-0.63479 0.000008-1.2249 0.06712-1.8125 0.21875-0.63545 0.16399-1.2229 0.46542-1.7188 0.875a1.0529 1.0529 0 0 0 -0.031 0.031c-0.48826 0.42168-0.86377 0.9507-1.125 1.5938-0.28174 0.67182-0.40626 1.4314-0.40625 2.2812-0.000009 0.83595 0.12748 1.5853 0.40625 2.25 0.25836 0.61611 0.6229 1.1601 1.125 1.5938a1.0529 1.0529 0 0 0 0.03125 0.03125c0.51168 0.4227 1.1049 0.65819 1.6875 0.8125 0.0065 0.0017 0.02669-0.007 0.03125 0 0.57794 0.1649 1.1694 0.28125 1.8125 0.28125 0.61938-0.000001 1.2187-0.11856 1.7812-0.28125v0.03125c0.02173-0.0056 0.04076-0.02539 0.0625-0.03125 0.57391-0.15471 1.1522-0.39615 1.6562-0.8125 0.5068-0.41867 0.89118-0.97753 1.1562-1.5938h0.03125c0.0034-0.0079-0.0033-0.02331 0-0.03125 0.30476-0.68944 0.40623-1.4402 0.40625-2.25-0.000018-0.82394-0.09825-1.5844-0.40625-2.2812-0.0058-0.01431-0.0253-0.01703-0.03125-0.03125-0.268-0.64-0.663-1.186-1.157-1.593-0.488-0.404-1.062-0.71-1.687-0.875-0.0099-0.0026-0.02138 0.0026-0.03125 0-0.57092-0.14917-1.1709-0.21874-1.7812-0.21875zm0 1.0625c0.54435 0.000007 1.0509 0.05942 1.5312 0.1875 0.49632 0.12809 0.94424 0.35205 1.3125 0.65625 0.36823 0.30421 0.66685 0.70641 0.875 1.2188 0.22413 0.49634 0.31248 1.1225 0.3125 1.875-0.000016 0.73649-0.08837 1.3474-0.3125 1.8438-0.20815 0.49633-0.50677 0.91455-0.875 1.2188-0.36826 0.3042-0.81618 0.49691-1.3125 0.625-0.48033 0.1441-0.9869 0.21875-1.5312 0.21875-0.56038-0.000001-1.0662-0.07466-1.5625-0.21875-0.49634-0.12809-0.94426-0.3208-1.3125-0.625-0.352-0.303-0.635-0.722-0.843-1.218-0.20815-0.49633-0.31251-1.1073-0.3125-1.8438-0.000008-0.7525 0.10435-1.3787 0.3125-1.875 0.20813-0.51234 0.49151-0.91454 0.84375-1.2188 0.36824-0.3042 0.81616-0.52816 1.3125-0.65625 0.49632-0.12808 1.0021-0.18749 1.5625-0.1875z"/>
 </g>
</svg>
