<?xml version="1.0" encoding="UTF-8" standalone="no"?>
<!-- Created with Inkscape (http://www.inkscape.org/) -->
<svg id="svg2408" xmlns:rdf="http://www.w3.org/1999/02/22-rdf-syntax-ns#" xmlns="http://www.w3.org/2000/svg" height="96" width="96" version="1.0" xmlns:cc="http://creativecommons.org/ns#" xmlns:xlink="http://www.w3.org/1999/xlink" xmlns:dc="http://purl.org/dc/elements/1.1/">
 <defs id="defs2410">
  <linearGradient id="linearGradient4384">
   <stop id="stop4386" style="stop-color:#fff" offset="0"/>
   <stop id="stop4388" style="stop-color:#fff;stop-opacity:0" offset="1"/>
  </linearGradient>
  <linearGradient id="ButtonShadow" y2="7.0165" gradientUnits="userSpaceOnUse" x2="45.448" gradientTransform="scale(1.0059 .99417)" y1="92.54" x1="45.448">
   <stop id="stop3750" offset="0"/>
   <stop id="stop3752" style="stop-opacity:.58824" offset="1"/>
  </linearGradient>
  <filter id="filter3174" color-interpolation-filters="sRGB">
   <feGaussianBlur id="feGaussianBlur3176" stdDeviation="1.71"/>
  </filter>
  <filter id="filter3794" height="1.384" width="1.384" color-interpolation-filters="sRGB" y="-.192" x="-.192">
   <feGaussianBlur id="feGaussianBlur3796" stdDeviation="5.28"/>
  </filter>
  <linearGradient id="linearGradient3613" y2="138.66" xlink:href="#linearGradient4384" gradientUnits="userSpaceOnUse" x2="48" y1="20.221" x1="48"/>
  <linearGradient id="linearGradient3617" y2="5.9877" gradientUnits="userSpaceOnUse" x2="48" y1="90" x1="48">
   <stop id="stop2883" style="stop-color:#bf0e0e" offset="0"/>
   <stop id="stop2885" style="stop-color:#f05530" offset="1"/>
  </linearGradient>
  <linearGradient id="ButtonShadow-0" y2="7.0165" gradientUnits="userSpaceOnUse" x2="45.448" gradientTransform="matrix(1.0059 0 0 .99417 100 0)" y1="92.54" x1="45.448">
   <stop id="stop3750-8" offset="0"/>
   <stop id="stop3752-5" style="stop-opacity:.58824" offset="1"/>
  </linearGradient>
  <linearGradient id="linearGradient3780" y2="90.239" xlink:href="#ButtonShadow-0" gradientUnits="userSpaceOnUse" x2="32.251" gradientTransform="matrix(1.0238 0 0 1.0119 -1.1429 -98.071)" y1="6.1317" x1="32.251"/>
  <linearGradient id="linearGradient3721" y2="90.239" xlink:href="#ButtonShadow-0" gradientUnits="userSpaceOnUse" x2="32.251" gradientTransform="translate(0,-97)" y1="6.1317" x1="32.251"/>
  <clipPath id="clipPath4355">
   <rect id="rect4357" style="fill:#fff" rx="6" ry="6" height="80" width="84" y="6" x="6"/>
  </clipPath>
  <radialGradient id="radialGradient4375" gradientUnits="userSpaceOnUse" cy="87.792" cx="48" gradientTransform="matrix(1 -6.7115e-8 8.4282e-8 1.2558 110 -24.506)" r="42">
   <stop id="stop4369" style="stop-color:#fff;stop-opacity:.71756" offset="0"/>
   <stop id="stop4371" style="stop-color:#fff" offset="1"/>
  </radialGradient>
  <linearGradient id="linearGradient4390" y2="-40" xlink:href="#linearGradient4384" gradientUnits="userSpaceOnUse" x2="48" gradientTransform="matrix(1,0,0,-1,0,92)" y1="88" x1="48"/>
  <linearGradient id="linearGradient4429" y2="82.455" xlink:href="#linearGradient4384" spreadMethod="reflect" gradientUnits="userSpaceOnUse" x2="112.12" y1="82" x1="48"/>
  <linearGradient id="linearGradient3870" y2="1033.4" spreadMethod="reflect" gradientUnits="userSpaceOnUse" x2="50" gradientTransform="translate(-2 -956.36)" y1="1033.4" x1="8">
   <stop id="stop3845" style="stop-color:#523823" offset="0"/>
   <stop id="stop3847" style="stop-color:#79563a" offset=".11780"/>
   <stop id="stop3849" style="stop-color:#875c38" offset=".23810"/>
   <stop id="stop3851" style="stop-color:#a66e40" offset="1"/>
  </linearGradient>
  <linearGradient id="linearGradient3707" y2="16.973" gradientUnits="userSpaceOnUse" x2="46.655" y1="75.562" x1="48.082">
   <stop id="stop3733" style="stop-color:#dcdcdc" offset="0"/>
   <stop id="stop3757" style="stop-color:#ebebeb" offset=".30654"/>
   <stop id="stop3737" style="stop-color:#fff" offset=".70706"/>
   <stop id="stop3759" style="stop-color:#fafafa" offset=".84501"/>
   <stop id="stop3735" style="stop-color:#f0f0f0" offset="1"/>
  </linearGradient>
  <linearGradient id="linearGradient3887" y2="121" xlink:href="#linearGradient4384" gradientUnits="userSpaceOnUse" x2="32" y1="16.973" x1="32"/>
 </defs>
 <metadata id="metadata2413">
  <rdf:RDF>
   <cc:Work rdf:about="">
    <dc:format>image/svg+xml</dc:format>
    <dc:type rdf:resource="http://purl.org/dc/dcmitype/StillImage"/>
    <dc:title/>
   </cc:Work>
  </rdf:RDF>
 </metadata>
 <g id="layer2" style="display:none">
  <rect id="rect3745" style="opacity:.9;filter:url(#filter3174);fill:url(#ButtonShadow)" rx="6" ry="6" height="85" width="86" y="7" x="5"/>
 </g>
 <g id="layer3">
  <path id="path3786" style="opacity:0.08;fill:url(#linearGradient3780)" d="m12-95.031c-5.5111 0-10.031 4.5202-10.031 10.031v71c0 5.5111 4.5202 10.031 10.031 10.031h72c5.5111 0 10.031-4.5202 10.031-10.031v-71c0-5.5111-4.5202-10.031-10.031-10.031h-72z" transform="scale(1,-1)"/>
  <path id="path3778" style="opacity:.1;fill:url(#linearGradient3780)" d="m12-94.031c-4.9716 0-9.0312 4.0596-9.0312 9.0312v71c0 4.9716 4.0596 9.0312 9.0312 9.0312h72c4.9716 0 9.0312-4.0596 9.0312-9.0312v-71c0-4.9716-4.0596-9.0312-9.0312-9.0312h-72z" transform="scale(1,-1)"/>
  <path id="path3770" style="opacity:.2;fill:url(#linearGradient3780)" d="m12-93c-4.4091 0-8 3.5909-8 8v71c0 4.4091 3.5909 8 8 8h72c4.4091 0 8-3.5909 8-8v-71c0-4.4091-3.5909-8-8-8h-72z" transform="scale(1,-1)"/>
  <rect id="rect3723" style="opacity:.3;fill:url(#linearGradient3780)" transform="scale(1,-1)" rx="7" ry="7" height="85" width="86" y="-92" x="5"/>
  <rect id="rect3716" style="opacity:.45;fill:url(#linearGradient3721)" transform="scale(1,-1)" rx="6" ry="6" height="84" width="84" y="-91" x="6"/>
 </g>
 <g id="layer4">
  <rect id="rect2841" style="color:#000000;fill:url(#linearGradient3870)" rx="6" ry="6" height="26" width="84" y="64" x="6"/>
  <path id="rect4345" style="opacity:.1;color:#000000" d="m6 82v2c0 3.324 2.676 6 6 6h72c3.324 0 6-2.676 6-6v-2c0 3.324-2.676 6-6 6h-72c-3.324 0-6-2.676-6-6z"/>
  <path id="rect4336" style="opacity:.1;color:#000000" d="m6 83v1c0 3.324 2.676 6 6 6h72c3.324 0 6-2.676 6-6v-1c0 3.324-2.676 6-6 6h-72c-3.324 0-6-2.676-6-6z"/>
  <path id="path4412" style="opacity:.2" d="m6 80v1c0 3.324 2.676 6 6 6h72c3.324 0 6-2.676 6-6v-1c0 3.324-2.676 6-6 6h-72c-3.324 0-6-2.676-6-6z"/>
 </g>
 <g id="layer1">
  <rect id="rect2419" style="fill:url(#linearGradient3617)" rx="6" ry="6" height="80" width="84" y="6" x="6"/>
  <path id="rect4359" style="opacity:.2;fill:url(#radialGradient4375)" d="m120.78 6.125c-2.74 0.5576-4.78 2.9665-4.78 5.875v68c0 3.324 2.676 6 6 6h72c3.324 0 6-2.676 6-6v-68c0-2.9085-2.0422-5.3174-4.7812-5.875 2.2051 0.53621 3.8125 2.4908 3.8125 4.875v68c0 2.8049-2.2264 5.0312-5.0312 5.0312h-72c-2.8049 0-5.0312-2.2264-5.0312-5.0312v-68c0-2.3842 1.6074-4.3388 3.8125-4.875z"/>
  <path id="rect4377" style="opacity:.3;fill:url(#linearGradient4390)" d="m12 86c-3.324 0-6-2.676-6-6v-68c0-3.324 2.676-6 6-6h72c3.324 0 6 2.676 6 6v68c0 3.324-2.676 6-6 6zm0-0.96875h72c2.8049 0 5.0312-2.2264 5.0312-5.0312v-68c0-2.8049-2.226-5.0312-5.031-5.0312h-72c-2.8049 0-5.0312 2.2263-5.0312 5.0312v68c0 2.8049 2.2264 5.0312 5.0312 5.0312z"/>
  <path id="rect4414" style="opacity:.1;fill:url(#linearGradient4429)" d="m6 78v2c0 3.324 2.676 6 6 6h72c3.324 0 6-2.676 6-6v-2c0 3.324-2.676 6-6 6h-72c-3.324 0-6-2.676-6-6z"/>
 </g>
 <g id="layer5">
  <rect id="rect3171" style="opacity:.1;filter:url(#filter3794);stroke:#fff;stroke-linecap:round;stroke-width:.5;fill:url(#linearGradient3613)" clip-path="url(#clipPath4355)" rx="12" ry="12" height="62" width="66" y="15" x="15"/>
 </g>
 <g id="layer6">
  <path id="path3870" style="opacity:.05" d="m48 13.969c-13.053-0.074-26.831 6.128-33.125 18.156-4.7542 8.7897-3.5176 20.062 2.7188 27.781 0.009 0.01172 0.02219 0.01954 0.03125 0.03125 2.4732 3.1966 5.5927 5.8229 9 7.9375-0.84455 3.3124-3.6812 5.975-7.0312 6.75a0.99358 0.99358 0 0 0 -0.1875 0.0625c-2.6306 1.1667-1.9053 5.4349 0.9375 5.6875v0.03125c0.02086 0.0026 0.04164-0.0026 0.0625 0 7.5205 0.92222 15.211-1.8121 20.656-7.0312 13.926 2.4504 29.605-2.4202 38.062-14.25h0.03125c0.0047-0.0065-0.0047-0.02472 0-0.03125 6.4606-8.7803 6.4606-21.407 0-30.188-0.0047-0.0066 0.0047-0.02463 0-0.03125h-0.03125c-7.014-9.923-19.317-14.941-31.124-14.907zm-7.844 18.281c2.0367 2.0147 3.9965 4.1711 6.2188 6.125a0.99358 0.99358 0 0 0 0.1875 0.125c0.66148 0.34449 1.4065 0.42319 2.0312 0.28125 0.62474-0.14194 1.1058-0.46075 1.5312-0.8125 0.852-0.704 1.493-1.568 1.97-1.969a0.99358 0.99358 0 0 0 0.0625 -0.0625l3.688-3.688 2.906 2.906c-2.0147 2.0367-4.1711 3.9965-6.125 6.2188a0.99358 0.99358 0 0 0 -0.125 0.187c-0.34449 0.66148-0.42319 1.4065-0.28125 2.0312 0.14194 0.62474 0.46075 1.1058 0.8125 1.5312 0.7035 0.85096 1.5673 1.4925 1.9688 1.9688a0.99358 0.99358 0 0 0 0.0625 0.0625l3.688 3.688-2.906 2.906c-2.037-2.015-3.997-4.171-6.219-6.125a0.99358 0.99358 0 0 0 -0.187 -0.125c-0.662-0.344-1.407-0.423-2.032-0.281-0.624 0.142-1.106 0.461-1.531 0.812-0.851 0.704-1.492 1.568-1.969 1.969a0.99358 0.99358 0 0 0 -0.0625 0.0625l-3.688 3.688-2.906-2.906c2.0147-2.0367 4.1711-3.9965 6.125-6.2188a0.99358 0.99358 0 0 0 0.125 -0.187c0.34449-0.66148 0.42319-1.4065 0.28125-2.0312-0.142-0.625-0.461-1.107-0.812-1.532-0.704-0.851-1.568-1.492-1.969-1.969a0.99358 0.99358 0 0 0 -0.0625 -0.0625l-3.688-3.688 2.906-2.906z" transform="translate(0,1)"/>
  <path id="path3864" style="opacity:0.08" d="m48 15.969c-12.733-0.07223-26.166 6.0186-32.247 17.64-4.5531 8.4181-3.3659 19.307 2.6247 26.706 2.556 3.3136 5.8086 6.0589 9.4036 8.1855-0.71514 4.0182-4.0507 7.1874-7.9688 8.0938-1.7457 0.77425-1.2575 3.6941 0.65625 3.8125 7.395 0.92665 15.055-1.8028 20.312-7.0625 13.701 2.5784 29.283-2.1849 37.561-13.798 6.2091-8.4186 6.2091-20.674 0-29.092-6.784-9.625-18.804-14.519-30.342-14.486zm-7.844 15.906c2.3101 2.2278 4.4701 4.6355 6.875 6.75 1.935 1.0077 3.1745-1.3088 4.4278-2.3653l4.3847-4.3847 4.2812 4.2812c-2.2278 2.3101-4.6355 4.4701-6.75 6.875-1.0077 1.935 1.3088 3.1745 2.3653 4.4278l4.3847 4.3847-4.2812 4.2812c-2.3101-2.2278-4.4701-4.6355-6.875-6.75-1.935-1.0077-3.1745 1.3088-4.4278 2.3653l-4.3847 4.3847-4.2812-4.2812c2.2278-2.3101 4.6355-4.4701 6.75-6.875 1.0077-1.935-1.3088-3.1745-2.3653-4.4278l-4.385-4.385 4.281-4.281z"/>
  <path id="path3858" style="opacity:0.12" d="m48 15c-18.673 0-34 12.419-34 28 0 9.6663 6.0104 18.082 14.938 23.094-0.21005 1.1898-0.65432 2.8354-1.75 4.5312-1.2516 1.9373-3.2659 3.8276-6.75 4.8125a1.0131 1.0131 0 0 0 0.15625 1.9688c9.6743 1.0514 16.235-3.4967 19.844-7.125 2.439 0.458 4.952 0.718 7.562 0.718 18.673 0 34-12.419 34-28s-15.327-28-34-28zm-7.8438 13.438 7.125 7.125a1.0131 1.0131 0 0 0 1.4375 0l7.125-7.125 5.7188 5.7188-7.125 7.125a1.0131 1.0131 0 0 0 0 1.4375l7.125 7.125-5.7188 5.7188-7.125-7.125a1.0131 1.0131 0 0 0 -1.4375 0l-7.125 7.125-5.7188-5.7188 7.125-7.125a1.0131 1.0131 0 0 0 0 -1.4375l-7.125-7.125 5.7188-5.7188z" transform="translate(0,2)"/>
  <path id="path3080" style="opacity:.3" d="m48 18c-18.225 0-33 12.088-33 27 0 9.4984 5.9998 17.843 15.062 22.656-0.34462 2.5088-1.914 8.6498-9.3438 10.75 9.6229 1.0458 16.014-3.6463 19.406-7.1875 2.525 0.506 5.162 0.782 7.876 0.782 18.225 0 33-12.088 33-27s-14.775-27-33-27zm-7.844 11 7.844 7.844 7.844-7.844 7.156 7.156-7.844 7.844 7.844 7.844-7.156 7.156-7.844-7.844-7.844 7.844-7.156-7.156 7.844-7.844-7.844-7.844 7.156-7.156z"/>
  <path id="path3620" style="fill:url(#linearGradient3707)" d="m48 17c-18.225 0-33 12.088-33 27 0 9.4984 5.9998 17.843 15.062 22.656-0.34462 2.5088-1.914 8.6498-9.3438 10.75 9.6229 1.0458 16.014-3.6463 19.406-7.1875 2.525 0.506 5.162 0.782 7.876 0.782 18.225 0 33-12.088 33-27s-14.775-27-33-27zm-7.844 11 7.844 7.844 7.844-7.844 7.156 7.156-7.844 7.844 7.844 7.844-7.156 7.156-7.844-7.844-7.844 7.844-7.156-7.156 7.844-7.844-7.844-7.844 7.156-7.156z"/>
  <path id="path3735" style="opacity:.4;fill:#fff" d="m48 17c-18.225 0-33 12.088-33 27 0 0.20841 0.0255 0.41773 0.03125 0.625 0.884-14.266 15.313-25.625 32.969-25.625 17.811 0 32.318 11.557 32.969 26 0.015-0.336 0.031-0.661 0.031-1 0-14.912-14.775-27-33-27zm-14 19.156-1 1 6.8438 6.8438 1-1l-6.844-6.844zm28 0l-6.844 6.844 1 1 6.844-6.844-1-1zm-14 14l-7.844 7.844-6.156-6.156-1 1 7.156 7.156 7.844-7.844 7.844 7.844 7.156-7.156-1-1-6.156 6.156-7.844-7.844zm-18.312 18.282c-0.78888 2.9258-2.9421 7.2652-8.9688 8.9688 1.4386 0.15635 2.7988 0.17086 4.0938 0.09375 3.9509-2.7354 4.9814-6.8885 5.25-8.8438-0.1292-0.06861-0.24706-0.14871-0.375-0.21875z"/>
  <path id="path3874" style="fill:url(#linearGradient3887)" d="m48 17c-18.225 0-33 12.088-33 27 0 9.4984 5.9998 17.843 15.062 22.656-0.34462 2.5088-1.914 8.6498-9.3438 10.75 9.6229 1.0458 16.014-3.6463 19.406-7.1875 2.525 0.506 5.162 0.782 7.876 0.782 18.225 0 33-12.088 33-27s-14.775-27-33-27zm0 1.0625c17.758 0 31.938 11.724 31.938 25.938s-14.179 25.938-31.938 25.938c-2.6423 0-5.1992-0.25782-7.6562-0.75a1.057 1.057 0 0 0 -0.969 0.312c-2.644 2.7597-7.2483 6.049-13.781 6.7188 1.4424-1.0371 2.5504-2.2409 3.3438-3.4688 1.4815-2.293 2.0016-4.584 2.1875-5.9375a1.057 1.057 0 0 0 -0.564 -1.093c-8.786-4.666-14.5-12.666-14.5-21.719 0-14.214 14.18-25.938 31.938-25.938zm-8.0312 8.875a1.057 1.057 0 0 0 -0.563 0.313l-7.156 7.156a1.057 1.057 0 0 0 0 1.5l7.094 7.094-7.094 7.094a1.057 1.057 0 0 0 0 1.5l7.156 7.156a1.057 1.057 0 0 0 1.5 0l7.094-7.094 7.094 7.094a1.057 1.057 0 0 0 1.5 0l7.156-7.156a1.057 1.057 0 0 0 0 -1.5l-7.094-7.094 7.094-7.094a1.057 1.057 0 0 0 0 -1.5l-7.156-7.156a1.057 1.057 0 0 0 -1.5 0l-7.094 7.094-7.094-7.094a1.057 1.057 0 0 0 -0.84375 -0.3125 1.057 1.057 0 0 0 -0.09375 0zm0.187 1.063 7.844 7.844 7.844-7.844 7.156 7.156-7.844 7.844 7.844 7.844-7.156 7.156-7.844-7.844-7.844 7.844-7.156-7.156 7.844-7.844-7.844-7.844 7.156-7.156z"/>
 </g>
</svg>
