<?xml version="1.0" encoding="UTF-8" standalone="no"?>
<!-- Created with Inkscape (http://www.inkscape.org/) -->
<svg id="svg2" xmlns:rdf="http://www.w3.org/1999/02/22-rdf-syntax-ns#" xmlns="http://www.w3.org/2000/svg" height="16" width="16" version="1.0" xmlns:cc="http://creativecommons.org/ns#" xmlns:xlink="http://www.w3.org/1999/xlink" xmlns:dc="http://purl.org/dc/elements/1.1/">
 <metadata id="metadata7">
  <rdf:RDF>
   <cc:Work rdf:about="">
    <dc:format>image/svg+xml</dc:format>
    <dc:type rdf:resource="http://purl.org/dc/dcmitype/StillImage"/>
    <dc:title/>
   </cc:Work>
  </rdf:RDF>
 </metadata>
 <g id="layer1">
  <rect id="rect3139" style="color:#000000;fill:#bebebe" rx="2.5" height="12" width="5" y="0" x="3"/>
  <rect id="rect3143" style="color:#000000;fill:#bebebe" height="2" width="1" y="5" x="0"/>
  <rect id="rect3145" style="color:#000000;fill:#bebebe" height="2" width="1" y="5" x="10"/>
  <rect id="rect3147" style="color:#000000;fill:#bebebe" height="3" width="1" y="13" x="5"/>
  <rect id="rect3149" style="color:#000000;fill:#bebebe" height="1" width="5" y="15" x="3"/>
  <path id="path3929" style="color:#000000;fill:#bebebe" d="m1 5v4.5c0 2.462 2.0385 4.5 4.5 4.5s4.5-2.038 4.5-4.5v-4.5h-0.9688v4.5c0 1.9219-1.6093 3.5312-3.5312 3.5312s-3.5312-1.6093-3.5312-3.5312v-4.5z"/>
  <rect id="rect3939" style="color:#000000;fill:#bebebe" rx=".5" height="3" width="4" y="13" x="12"/>
  <rect id="rect3941" style="color:#000000;fill:#bebebe" rx=".5" height="3" width="4" y="9" x="12"/>
  <rect id="rect3943" style="opacity:.45;color:#000000;fill:#bebebe" rx=".5" height="3" width="4" y="5" x="12"/>
 </g>
</svg>
