<?xml version="1.0" encoding="UTF-8" standalone="no"?>
<!-- Created with Inkscape (http://www.inkscape.org/) -->
<svg id="svg2" xmlns:rdf="http://www.w3.org/1999/02/22-rdf-syntax-ns#" xmlns="http://www.w3.org/2000/svg" height="16" width="16" version="1.0" xmlns:cc="http://creativecommons.org/ns#" xmlns:xlink="http://www.w3.org/1999/xlink" xmlns:dc="http://purl.org/dc/elements/1.1/">
 <metadata id="metadata7">
  <rdf:RDF>
   <cc:Work rdf:about="">
    <dc:format>image/svg+xml</dc:format>
    <dc:type rdf:resource="http://purl.org/dc/dcmitype/StillImage"/>
    <dc:title/>
   </cc:Work>
  </rdf:RDF>
 </metadata>
 <g id="layer1">
  <path id="path3708" style="opacity:.45;fill:#bebebe" d="m5.8438 7a0.63313 0.63137 0 0 0 -0.2813 0.1875l-2.375 2.375a0.63313 0.63137 0 0 0 -0.1875 0.4375v1.875l-2.75 2.75c-0.31442 0.314-0.31442 0.811 0 1.125s0.8106 0.314 1.125 0l2.75-2.75h1.875a0.63313 0.63137 0 0 0 0.4375 -0.188l2.375-2.374a0.63313 0.63137 0 0 0 0 -0.8755l-2.375-2.375a0.63313 0.63137 0 0 0 -0.5937 -0.1875z"/>
  <path id="path3713" style="opacity:.45;fill:#bebebe" d="m10.16 8.9723a0.63313 0.63137 0 0 0 0.28125 -0.1875l2.375-2.375a0.63313 0.63137 0 0 0 0.1875 -0.4375v-1.875l2.75-2.75c0.31442-0.31442 0.31442-0.81058 0-1.125s-0.81058-0.31442-1.125 0l-2.75 2.75h-1.875a0.63313 0.63137 0 0 0 -0.4375 0.1875l-2.375 2.375a0.63313 0.63137 0 0 0 0 0.875l2.375 2.375a0.63313 0.63137 0 0 0 0.59375 0.1875z"/>
  <path id="path3106" style="color:#000000;fill:#bebebe" d="m22.009 15a1 1 0 1 1 -2 0 1 1 0 1 1 2 0z" transform="translate(-10)"/>
  <path id="path3108" style="color:#000000;fill:#bebebe" d="m22.009 15a1 1 0 1 1 -2 0 1 1 0 1 1 2 0z" transform="translate(-13)"/>
  <path id="path3110" style="color:#000000;fill:#bebebe" d="m22.009 15a1 1 0 1 1 -2 0 1 1 0 1 1 2 0z" transform="translate(-16)"/>
 </g>
</svg>
