<?xml version="1.0" encoding="UTF-8" standalone="no"?>
<!-- Created with Inkscape (http://www.inkscape.org/) -->
<svg id="svg2408" xmlns:rdf="http://www.w3.org/1999/02/22-rdf-syntax-ns#" xmlns="http://www.w3.org/2000/svg" height="96" width="96" version="1.0" xmlns:cc="http://creativecommons.org/ns#" xmlns:xlink="http://www.w3.org/1999/xlink" xmlns:dc="http://purl.org/dc/elements/1.1/">
 <defs id="defs2410">
  <linearGradient id="ButtonShadow" y2="7.0165" gradientUnits="userSpaceOnUse" x2="45.448" gradientTransform="scale(1.0059 .99417)" y1="92.54" x1="45.448">
   <stop id="stop3750" offset="0"/>
   <stop id="stop3752" style="stop-opacity:.58824" offset="1"/>
  </linearGradient>
  <filter id="filter3174" color-interpolation-filters="sRGB">
   <feGaussianBlur id="feGaussianBlur3176" stdDeviation="1.71"/>
  </filter>
  <filter id="filter3794" height="1.384" width="1.384" color-interpolation-filters="sRGB" y="-.192" x="-.192">
   <feGaussianBlur id="feGaussianBlur3796" stdDeviation="5.28"/>
  </filter>
  <linearGradient id="linearGradient3613" y2="138.66" gradientUnits="userSpaceOnUse" x2="48" y1="20.221" x1="48">
   <stop id="stop3739" style="stop-color:#fff" offset="0"/>
   <stop id="stop3741" style="stop-color:#fff;stop-opacity:0" offset="1"/>
  </linearGradient>
  <linearGradient id="ButtonShadow-0" y2="7.0165" gradientUnits="userSpaceOnUse" x2="45.448" gradientTransform="matrix(1.0059 0 0 .99417 100 0)" y1="92.54" x1="45.448">
   <stop id="stop3750-8" offset="0"/>
   <stop id="stop3752-5" style="stop-opacity:.58824" offset="1"/>
  </linearGradient>
  <linearGradient id="linearGradient3780" y2="90.239" xlink:href="#ButtonShadow-0" gradientUnits="userSpaceOnUse" x2="32.251" gradientTransform="matrix(1.0238 0 0 1.0119 -1.1429 -98.071)" y1="6.1317" x1="32.251"/>
  <linearGradient id="linearGradient3721" y2="90.239" xlink:href="#ButtonShadow-0" gradientUnits="userSpaceOnUse" x2="32.251" gradientTransform="translate(0,-97)" y1="6.1317" x1="32.251"/>
  <clipPath id="clipPath4355">
   <rect id="rect4357" style="fill:#fff" rx="6" ry="6" height="80" width="84" y="6" x="6"/>
  </clipPath>
  <radialGradient id="radialGradient4375" gradientUnits="userSpaceOnUse" cy="87.792" cx="48" gradientTransform="matrix(1 -6.7115e-8 8.4282e-8 1.2558 110 -24.506)" r="42">
   <stop id="stop4369" style="stop-color:#fff;stop-opacity:.71756" offset="0"/>
   <stop id="stop4371" style="stop-color:#fff" offset="1"/>
  </radialGradient>
  <linearGradient id="linearGradient3228" y2="88" spreadMethod="reflect" gradientUnits="userSpaceOnUse" x2="48" y1="88" x1="90">
   <stop id="stop3894" style="stop-opacity:.58824" offset="0"/>
   <stop id="stop3896" style="stop-opacity:.47059" offset=".11780"/>
   <stop id="stop3898" style="stop-opacity:.39216" offset=".23810"/>
   <stop id="stop3900" style="stop-opacity:.31373" offset="1"/>
  </linearGradient>
  <linearGradient id="linearGradient4384-7">
   <stop id="stop4386-8" style="stop-color:#fff" offset="0"/>
   <stop id="stop4388-2" style="stop-color:#fff;stop-opacity:0" offset="1"/>
  </linearGradient>
  <linearGradient id="linearGradient4429-5" y2="82.455" xlink:href="#linearGradient4384-7" spreadMethod="reflect" gradientUnits="userSpaceOnUse" x2="112.12" y1="82" x1="48"/>
  <linearGradient id="linearGradient3672" y2="-40" xlink:href="#linearGradient4384-7" gradientUnits="userSpaceOnUse" x2="48" gradientTransform="matrix(1,0,0,-1,0,92)" y1="88" x1="48"/>
  <linearGradient id="linearGradient3218" y2="5.9877" gradientUnits="userSpaceOnUse" x2="48" y1="90" x1="48">
   <stop id="stop3702-7" style="stop-color:#66707c" offset="0"/>
   <stop id="stop3704-0" style="stop-color:#a4a8ac" offset="1"/>
  </linearGradient>
  <radialGradient id="radialGradient5156" xlink:href="#linearGradient4864" gradientUnits="userSpaceOnUse" cy="70.319" cx="49.422" gradientTransform="matrix(1 0 0 .61803 0 26.859)" r="21.228"/>
  <linearGradient id="linearGradient4864">
   <stop id="stop4866" offset="0"/>
   <stop id="stop4868" style="stop-opacity:0" offset="1"/>
  </linearGradient>
  <linearGradient id="linearGradient5009" y2="35.276" xlink:href="#linearGradient4384-7" spreadMethod="reflect" gradientUnits="userSpaceOnUse" x2="43.27" y1="66.94" x1="42.818"/>
  <linearGradient id="linearGradient4906" y2="51.033" xlink:href="#linearGradient4384-7" spreadMethod="reflect" gradientUnits="userSpaceOnUse" x2="49.649" y1="69.251" x1="49.649"/>
  <linearGradient id="linearGradient4900" y2="35.249" xlink:href="#linearGradient4384-7" spreadMethod="reflect" gradientUnits="userSpaceOnUse" x2="73.867" y1="66.903" x1="73.867"/>
  <linearGradient id="linearGradient4892" y2="28.449" xlink:href="#linearGradient4384-7" spreadMethod="reflect" gradientUnits="userSpaceOnUse" x2="97.049" gradientTransform="translate(-.96593 .25882)" y1="60.691" x1="97.049"/>
  <linearGradient id="linearGradient4896" y2="38.526" xlink:href="#linearGradient4384-7" spreadMethod="reflect" gradientUnits="userSpaceOnUse" x2="87.27" y1="70.558" x1="87.27"/>
  <linearGradient id="linearGradient4890" y2="31.981" xlink:href="#linearGradient4384-7" spreadMethod="reflect" gradientUnits="userSpaceOnUse" x2="27.484" gradientTransform="translate(-.44829 2.1907)" y1="63.802" x1="27.484"/>
  <linearGradient id="linearGradient4910" y2="39.915" xlink:href="#linearGradient4384-7" spreadMethod="reflect" gradientUnits="userSpaceOnUse" x2="34.689" y1="57.868" x1="34.176"/>
  <linearGradient id="linearGradient4902" y2="36.758" xlink:href="#linearGradient4384-7" spreadMethod="reflect" gradientUnits="userSpaceOnUse" x2="64.448" y1="54.933" x1="64.448"/>
  <linearGradient id="linearGradient4894" y2="34.626" xlink:href="#linearGradient4384-7" spreadMethod="reflect" gradientUnits="userSpaceOnUse" x2="99.48" y1="46.581" x1="99.48"/>
  <linearGradient id="linearGradient3222" y2="39.915" xlink:href="#linearGradient4384-7" spreadMethod="reflect" gradientUnits="userSpaceOnUse" x2="34.689" gradientTransform="translate(-12.109 1.174)" y1="57.868" x1="34.176"/>
  <linearGradient id="linearGradient3998" y2="35.276" xlink:href="#linearGradient4384-7" spreadMethod="reflect" gradientUnits="userSpaceOnUse" x2="43.27" gradientTransform="translate(-4.5015 6.3825)" y1="66.94" x1="42.818"/>
  <linearGradient id="linearGradient4002" y2="44.44" xlink:href="#linearGradient4384-7" spreadMethod="reflect" gradientUnits="userSpaceOnUse" x2="56.461" gradientTransform="translate(12.247 7.0711)" y1="56.037" x1="56.461"/>
  <linearGradient id="linearGradient4006" y2="44.44" xlink:href="#linearGradient4384-7" spreadMethod="reflect" gradientUnits="userSpaceOnUse" x2="56.461" gradientTransform="translate(47.021 -2.2464)" y1="56.037" x1="56.461"/>
  <linearGradient id="linearGradient4010" y2="51.033" xlink:href="#linearGradient4384-7" spreadMethod="reflect" gradientUnits="userSpaceOnUse" x2="49.649" gradientTransform="translate(33.858 -20.46)" y1="69.251" x1="49.649"/>
  <linearGradient id="linearGradient4014" y2="51.033" xlink:href="#linearGradient4384-7" spreadMethod="reflect" gradientUnits="userSpaceOnUse" x2="49.649" gradientTransform="translate(41.914 -17.442)" y1="69.251" x1="49.649"/>
  <linearGradient id="linearGradient4018" y2="36.758" xlink:href="#linearGradient4384-7" spreadMethod="reflect" gradientUnits="userSpaceOnUse" x2="64.448" gradientTransform="translate(-3.6557 13.403)" y1="54.933" x1="64.448"/>
  <linearGradient id="linearGradient4022" y2="44.44" xlink:href="#linearGradient4384-7" spreadMethod="reflect" gradientUnits="userSpaceOnUse" x2="56.461" gradientTransform="translate(-9.7286 -1.5343)" y1="56.037" x1="56.461"/>
  <linearGradient id="linearGradient4026" y2="44.44" xlink:href="#linearGradient4384-7" spreadMethod="reflect" gradientUnits="userSpaceOnUse" x2="56.461" gradientTransform="translate(-3.725 9.2803)" y1="56.037" x1="56.461"/>
  <linearGradient id="linearGradient4030" y2="35.249" xlink:href="#linearGradient4384-7" spreadMethod="reflect" gradientUnits="userSpaceOnUse" x2="73.867" gradientTransform="translate(-2.7777 -6.5027)" y1="66.903" x1="73.867"/>
  <linearGradient id="linearGradient4034" y2="35.249" xlink:href="#linearGradient4384-7" spreadMethod="reflect" gradientUnits="userSpaceOnUse" x2="73.867" gradientTransform="translate(-43.347 4.3677)" y1="66.903" x1="73.867"/>
  <linearGradient id="linearGradient4038" y2="35.249" xlink:href="#linearGradient4384-7" spreadMethod="reflect" gradientUnits="userSpaceOnUse" x2="73.867" gradientTransform="translate(-26.926 -.032185)" y1="66.903" x1="73.867"/>
  <linearGradient id="linearGradient4042" y2="35.249" xlink:href="#linearGradient4384-7" spreadMethod="reflect" gradientUnits="userSpaceOnUse" x2="73.867" gradientTransform="translate(14.35 -12.127)" y1="66.903" x1="73.867"/>
  <linearGradient id="linearGradient4046" y2="35.249" xlink:href="#linearGradient4384-7" spreadMethod="reflect" gradientUnits="userSpaceOnUse" x2="73.867" gradientTransform="translate(-7.8661 -6.1745)" y1="66.903" x1="73.867"/>
  <linearGradient id="linearGradient4054" y2="35.276" xlink:href="#linearGradient4384-7" spreadMethod="reflect" gradientUnits="userSpaceOnUse" x2="43.27" gradientTransform="translate(14.11 2.4309)" y1="66.94" x1="42.818"/>
  <linearGradient id="linearGradient4058" y2="51.033" xlink:href="#linearGradient4384-7" spreadMethod="reflect" gradientUnits="userSpaceOnUse" x2="49.649" gradientTransform="translate(28.719 -8.7305)" y1="69.251" x1="49.649"/>
  <linearGradient id="linearGradient3984" y2="56.865" xlink:href="#linearGradient4384-7" gradientUnits="userSpaceOnUse" x2="76.758" gradientTransform="matrix(-1 0 0 1 88.942 -20.675)" y1="27.41" x1="76.758"/>
  <linearGradient id="linearGradient3860-8-4" y2="91.666" xlink:href="#linearGradient4384-7" gradientUnits="userSpaceOnUse" x2="46.77" gradientTransform="translate(10 -63)" y1="78.496" x1="46.77"/>
  <linearGradient id="linearGradient3953-72" y2="76.55" xlink:href="#linearGradient4384-7" gradientUnits="userSpaceOnUse" x2="75.918" gradientTransform="translate(-5 -60)" y1="63.139" x1="75.918"/>
  <linearGradient id="linearGradient3852-0-0" y2="73.401" xlink:href="#linearGradient4384-7" gradientUnits="userSpaceOnUse" x2="29.3" gradientTransform="matrix(-1 0 0 1 96.25 -27)" y1="52.948" x1="29.3"/>
  <linearGradient id="linearGradient4104" y2="44.721" xlink:href="#linearGradient4384-7" gradientUnits="userSpaceOnUse" x2="38.535" gradientTransform="translate(-1.977 -5.023)" y1="8.6325" x1="38.535"/>
  <linearGradient id="linearGradient3844-1-5" y2="86.111" xlink:href="#linearGradient4384-7" gradientUnits="userSpaceOnUse" x2="35.838" gradientTransform="translate(-23,-31)" y1="56.924" x1="35.838"/>
  <linearGradient id="linearGradient3828-0-06" y2="38.688" xlink:href="#linearGradient4384-7" gradientUnits="userSpaceOnUse" x2="45.967" gradientTransform="translate(-24.723 -5.7668)" y1="18.874" x1="45.967"/>
  <linearGradient id="linearGradient3836-6" y2="44.915" xlink:href="#linearGradient4384-7" gradientUnits="userSpaceOnUse" x2="76.758" gradientTransform="translate(12.348 -14.675)" y1="27.41" x1="76.758"/>
  <linearGradient id="linearGradient3872-4" y2="33.077" xlink:href="#linearGradient4384-7" gradientUnits="userSpaceOnUse" x2="45.634" gradientTransform="matrix(-.96032 .27889 .27889 .96032 101.44 15.295)" y1="13.056" x1="39.819"/>
  <linearGradient id="linearGradient3868-5-2" y2="76.55" xlink:href="#linearGradient4384-7" gradientUnits="userSpaceOnUse" x2="75.918" gradientTransform="translate(-55 -41)" y1="63.139" x1="75.918"/>
  <linearGradient id="linearGradient4209" y2="91.666" xlink:href="#linearGradient4384-7" gradientUnits="userSpaceOnUse" x2="46.77" gradientTransform="translate(46 -75)" y1="78.496" x1="46.77"/>
  <linearGradient id="linearGradient4238-9" y2="76.55" xlink:href="#linearGradient4384-7" gradientUnits="userSpaceOnUse" x2="75.918" gradientTransform="matrix(-1 0 0 1 148.59 -34)" y1="63.139" x1="75.918"/>
  <linearGradient id="linearGradient3546" y2="38.688" xlink:href="#linearGradient4384-7" gradientUnits="userSpaceOnUse" x2="45.967" gradientTransform="translate(46.277 18.233)" y1="18.874" x1="45.967"/>
  <clipPath id="clipPath4929">
   <rect id="rect4931" style="fill:#f0f" rx="6" ry="6" height="80" width="84" y="6" x="6"/>
  </clipPath>
 </defs>
 <metadata id="metadata2413">
  <rdf:RDF>
   <cc:Work rdf:about="">
    <dc:format>image/svg+xml</dc:format>
    <dc:type rdf:resource="http://purl.org/dc/dcmitype/StillImage"/>
    <dc:title/>
   </cc:Work>
  </rdf:RDF>
 </metadata>
 <g id="layer2" style="display:none">
  <rect id="rect3745" style="opacity:.9;filter:url(#filter3174);fill:url(#ButtonShadow)" rx="6" ry="6" height="85" width="86" y="7" x="5"/>
 </g>
 <g id="layer3">
  <path id="path3786" style="opacity:0.08;fill:url(#linearGradient3780)" d="m12-95.031c-5.5111 0-10.031 4.5202-10.031 10.031v71c0 5.5111 4.5202 10.031 10.031 10.031h72c5.5111 0 10.031-4.5202 10.031-10.031v-71c0-5.5111-4.5202-10.031-10.031-10.031h-72z" transform="scale(1,-1)"/>
  <path id="path3778" style="opacity:.1;fill:url(#linearGradient3780)" d="m12-94.031c-4.9716 0-9.0312 4.0596-9.0312 9.0312v71c0 4.9716 4.0596 9.0312 9.0312 9.0312h72c4.9716 0 9.0312-4.0596 9.0312-9.0312v-71c0-4.9716-4.0596-9.0312-9.0312-9.0312h-72z" transform="scale(1,-1)"/>
  <path id="path3770" style="opacity:.2;fill:url(#linearGradient3780)" d="m12-93c-4.4091 0-8 3.5909-8 8v71c0 4.4091 3.5909 8 8 8h72c4.4091 0 8-3.5909 8-8v-71c0-4.4091-3.5909-8-8-8h-72z" transform="scale(1,-1)"/>
  <rect id="rect3723" style="opacity:.3;fill:url(#linearGradient3780)" transform="scale(1,-1)" rx="7" ry="7" height="85" width="86" y="-92" x="5"/>
  <rect id="rect3716" style="opacity:.45;fill:url(#linearGradient3721)" transform="scale(1,-1)" rx="6" ry="6" height="84" width="84" y="-91" x="6"/>
 </g>
 <g id="layer1">
  <rect id="rect2419" style="fill:url(#linearGradient3218)" rx="6" ry="6" height="84" width="84" y="6" x="6"/>
  <path id="rect4359" style="opacity:.2;fill:url(#radialGradient4375)" d="m120.78 6.125c-2.74 0.5576-4.78 2.9665-4.78 5.875v68c0 3.324 2.676 6 6 6h72c3.324 0 6-2.676 6-6v-68c0-2.9085-2.0422-5.3174-4.7812-5.875 2.2051 0.53621 3.8125 2.4908 3.8125 4.875v68c0 2.8049-2.2264 5.0312-5.0312 5.0312h-72c-2.8049 0-5.0312-2.2264-5.0312-5.0312v-68c0-2.3842 1.6074-4.3388 3.8125-4.875z"/>
  <path id="path4412" style="opacity:.15" d="m6 100v1c0 3.324 2.676 6 6 6h72c3.324 0 6-2.676 6-6v-1c0 3.324-2.676 6-6 6h-72c-3.324 0-6-2.676-6-6z"/>
 </g>
 <g id="layer5" style="display:none">
  <rect id="rect3171" style="opacity:.1;filter:url(#filter3794);stroke:#fff;stroke-linecap:round;stroke-width:.5;fill:url(#linearGradient3613)" clip-path="url(#clipPath4355)" rx="12" ry="12" height="62" width="66" y="15" x="15"/>
 </g>
 <g id="layer7">
  <g id="g4062" clip-path="url(#clipPath4929)">
   <path id="path4876" style="opacity:.1;color:#000000;fill:url(#radialGradient5156)" d="m70.651 70.319a21.228 13.12 0 1 1 -42.457 0 21.228 13.12 0 1 1 42.457 0z" transform="matrix(1.6806 0 0 1.6806 7.2143 -47.445)"/>
   <path id="path4880" style="opacity:.1;color:#000000;fill:url(#radialGradient5156)" d="m70.651 70.319a21.228 13.12 0 1 1 -42.457 0 21.228 13.12 0 1 1 42.457 0z" transform="matrix(1.6115 0 0 1.6115 -47.716 -20.258)"/>
   <path id="path4872" style="opacity:.1;color:#000000;fill:url(#radialGradient5156)" d="m70.651 70.319a21.228 13.12 0 1 1 -42.457 0 21.228 13.12 0 1 1 42.457 0z" transform="matrix(1.1381 0 0 1.1381 -34.32 -16.97)"/>
   <rect id="rect4800" style="opacity:.4;color:#000000;fill:url(#linearGradient5009)" transform="rotate(15)" height="64" width="2" y="34.94" x="42.818"/>
   <rect id="rect4818" style="opacity:.4;color:#000000;fill:url(#linearGradient4906)" transform="rotate(15)" height="36" width="2" y="51.251" x="49.649"/>
   <rect id="rect4822" style="opacity:.4;color:#000000;fill:url(#linearGradient4900)" transform="rotate(15)" height="64" width="2" y="34.903" x="73.867"/>
   <rect id="rect4826" style="opacity:.4;color:#000000;fill:url(#linearGradient4892)" transform="rotate(15)" height="64" width="2" y="28.95" x="96.083"/>
   <rect id="rect4830" style="opacity:.4;color:#000000;fill:url(#linearGradient4896)" transform="rotate(15)" height="64" width="2" y="38.558" x="87.27"/>
   <rect id="rect4834" style="opacity:.4;color:#000000;fill:url(#linearGradient4890)" transform="rotate(15)" height="64" width="2" y="33.993" x="27.035"/>
   <rect id="rect4842" style="opacity:.4;color:#000000;fill:url(#linearGradient4910)" transform="rotate(15)" height="36" width="2" y="39.868" x="34.176"/>
   <rect id="rect4846" style="opacity:.4;color:#000000;fill:url(#linearGradient4902)" transform="rotate(15)" height="36" width="2" y="36.933" x="64.448"/>
   <rect id="rect4854" style="opacity:.4;color:#000000;fill:url(#linearGradient4894)" transform="rotate(15)" height="24" width="2" y="34.581" x="99.48"/>
   <rect id="rect3220" style="opacity:.4;color:#000000;fill:url(#linearGradient3222)" transform="rotate(15)" height="36" width="2" y="41.042" x="22.067"/>
   <rect id="rect3224" style="opacity:.2;color:#000000;fill:url(#linearGradient3998)" transform="rotate(15)" height="64" width="2" y="41.322" x="38.317"/>
   <rect id="rect4000" style="opacity:0.18;color:#000000;fill:url(#linearGradient4002)" transform="rotate(15)" height="24" width="2" y="51.108" x="68.709"/>
   <rect id="rect4004" style="opacity:.4;color:#000000;fill:url(#linearGradient4006)" transform="rotate(15)" height="24" width="2" y="41.791" x="103.48"/>
   <rect id="rect4008" style="opacity:.2;color:#000000;fill:url(#linearGradient4010)" transform="rotate(15)" height="36" width="2" y="30.79" x="83.507"/>
   <rect id="rect4012" style="opacity:.2;color:#000000;fill:url(#linearGradient4014)" transform="rotate(15)" height="36" width="2" y="33.808" x="91.563"/>
   <rect id="rect4016" style="opacity:.4;color:#000000;fill:url(#linearGradient4018)" transform="rotate(15)" height="36" width="2" y="50.336" x="60.792"/>
   <rect id="rect4020" style="opacity:.4;color:#000000;fill:url(#linearGradient4022)" transform="rotate(15)" height="24" width="2" y="42.503" x="46.733"/>
   <rect id="rect4024" style="opacity:.2;color:#000000;fill:url(#linearGradient4026)" transform="rotate(15)" height="24" width="2" y="53.318" x="52.736"/>
   <rect id="rect4028" style="opacity:.1;color:#000000;fill:url(#linearGradient4030)" transform="rotate(15)" height="64" width="2" y="28.4" x="71.089"/>
   <rect id="rect4032" style="opacity:.1;color:#000000;fill:url(#linearGradient4034)" transform="rotate(15)" height="64" width="2" y="39.27" x="30.52"/>
   <rect id="rect4036" style="opacity:.1;color:#000000;fill:url(#linearGradient4038)" transform="rotate(15)" height="64" width="2" y="34.871" x="46.941"/>
   <rect id="rect4040" style="opacity:.1;color:#000000;fill:url(#linearGradient4042)" transform="rotate(15)" height="64" width="2" y="22.775" x="88.217"/>
   <rect id="rect4044" style="opacity:.1;color:#000000;fill:url(#linearGradient4046)" transform="rotate(15)" height="64" width="2" y="28.728" x="66.001"/>
   <rect id="rect4052" style="opacity:.4;color:#000000;fill:url(#linearGradient4054)" transform="rotate(15)" height="64" width="2" y="37.371" x="56.928"/>
   <rect id="rect4056" style="opacity:.4;color:#000000;fill:url(#linearGradient4058)" transform="rotate(15)" height="36" width="2" y="42.52" x="78.368"/>
   <path id="path4203" style="opacity:.3;color:#000000;fill:url(#linearGradient3984)" d="m18.661 2.7626c3.0264 0.30734 5.375 2.8925 5.375 6 0 0.50225-0.07128 0.97124-0.1875 1.4375 1.3556-0.82923 2.9508-1.3125 4.6562-1.3125 0.69713 0 1.3801 0.09893 2.0312 0.25 0.47506-1.3625 1.7568-2.3438 3.2812-2.3438 1.9271 0 3.4688 1.5729 3.4688 3.5 0 0.92305-0.35225 1.751-0.9375 2.375 0.19649-0.02238 0.39127 0 0.59375 0 2.8907 0 5.25 2.3281 5.25 5.2188s-2.3593 5.25-5.25 5.25c-0.40398 0-0.77855-0.06962-1.1562-0.15625-1.0117 1.427-2.4356 2.5193-4.0938 3.1562 0.0042 0.11543 0.03125 0.2273 0.03125 0.34375 0 5.2417-4.2583 9.4688-9.5 9.4688-1.5304 0-2.9698-0.3566-4.25-1-2.6246 1.7834-5.8064 2.8438-9.2188 2.8438-6.8387 0-12.693-4.2051-15.156-10.156-4.7852-0.59661-8.5-4.647-8.5-9.5938 0-5.3573 4.3302-9.7188 9.6875-9.7188 1.1595 0 2.2818 0.22061 3.3125 0.59375 0.85422-0.73119 1.7894-1.3932 2.7812-1.9375-0.0827-0.23333-0.15625-0.48833-0.15625-0.75 0-1.2333 1.0166-2.2188 2.25-2.2188 0.94828 0 1.7699 0.57244 2.0938 1.4062 1.0568-0.24278 2.1573-0.40621 3.2813-0.4375 0.31043-1.2856 1.4628-2.2188 2.8438-2.2188 1.1744 0 2.1886 0.6901 2.6562 1.6875 1.0788-1.0542 2.5545-1.6875 4.1875-1.6875 0.20716 0 0.42324-0.02049 0.625 0z"/>
   <path id="path3724" style="opacity:.3;color:#000000;fill:url(#linearGradient3860-8-4)" d="m54.094 15.5c-1.259 0-2.334 0.69184-2.9062 1.7188-1.9182 0.13278-3.6115 1.0249-4.7812 2.4062-0.53405-0.72001-1.3784-1.1875-2.3438-1.1875-1.6188 0-2.9375 1.3187-2.9375 2.9375 0 0.44432 0.10432 0.84141 0.28125 1.2188-1.5885 0.35705-2.7812 1.7412-2.7812 3.4375 0 1.9656 1.5656 3.5625 3.5312 3.5625 1.5444 0 2.8512-0.99995 3.3438-2.375 1.141 2.241 3.467 3.781 6.155 3.781 1.0952 0 2.1424-0.26513 3.0625-0.71875 0.57196 0.52723 1.3483 0.84375 2.1875 0.84375 1.6569 0 2.9848-1.2636 3.1562-2.875 0.30913 0.04735 0.61513 0.09375 0.9375 0.09375 1.5171 0 2.9214-0.56524 4-1.4688 0.71605 0.81008 1.7713 1.3125 2.9375 1.3125 2.1584 0 3.9062-1.7479 3.9062-3.9062 0-2.1584-1.7479-3.9062-3.9062-3.9062-0.31601 0-0.64322 0.0542-0.9375 0.125-0.71569-2.64-3.1335-4.5938-6-4.5938-1.5007 0-2.8639 0.55146-3.9375 1.4375-0.552-1.092-1.661-1.844-2.968-1.844z"/>
   <path id="path3874" style="opacity:.2;color:#000000;fill:url(#linearGradient3953-72)" d="m72.938 2.6562c-3.5005 0-6.464 2.1862-7.625 5.2812-2.9227 0.05208-5.2812 2.4399-5.2812 5.375 0 2.9677 2.4073 5.375 5.375 5.375 1.1753 0 2.2405-0.3911 3.125-1.0312 1.2736 0.82112 2.7782 1.3125 4.4062 1.3125 0.41217 0 0.82299-0.03481 1.2188-0.09375 0.4608 0.55836 1.157 0.9375 1.9375 0.9375 1.11 0 2.0426-0.72039 2.375-1.7188 0.573 0.1721 1.1834 0.28125 1.8125 0.28125 3.4688 0 6.2812-2.8125 6.2812-6.2812 0-2.9051-1.9776-5.3448-4.6562-6.0625 0.02473-0.15323 0.0625-0.30854 0.0625-0.46875 0-1.6188-1.3187-2.9062-2.9375-2.9062-0.86619 0-1.6509 0.37137-2.1875 0.96875-1.157-0.6279-2.497-0.9682-3.906-0.9682z"/>
   <path id="path3646" style="opacity:.5;color:#000000;fill:url(#linearGradient3852-0-0)" d="m68.812 20.156c2.1969 0 4 1.7719 4 3.9688 0 0.74779-0.2349 1.4337-0.59375 2.0312 0.39647 0.46247 0.79097 0.9255 1.125 1.4375 0.68153-0.13582 1.4015-0.1875 2.125-0.1875 2.3423 0 4.4861 0.73926 6.2188 2 1.1746-2.4369 3.5287-4.0938 6.25-4.0938 3.8928 0 7.0625 3.3927 7.0625 7.5938 0 1.9117-0.67101 3.6637-1.75 5 1.4288 1.6503 2.3125 3.7998 2.3125 6.125 0 5.2417-4.3854 9.4688-9.7812 9.4688-1.8794 0-3.6351-0.51283-5.125-1.4062-1.1591 1.3147-2.6697 2.3513-4.375 2.9062-2.5789 2.6941-6.226 4.375-10.25 4.375-4.2967 0-8.152-1.917-10.75-4.9375-1.905-0.36612-3.6277-1.2715-5.0312-2.5-0.15556 0.01128-0.31031 0.03125-0.46875 0.03125-2.1099 0-3.9859-1.0224-5.1562-2.5938-0.34661 0.04367-0.70314 0.09375-1.0625 0.09375-4.3553 0-7.875-3.3208-7.875-7.4062 0-4.0855 3.5197-7.4062 7.875-7.4062 0.08406 0 0.16657 0.0288 0.25 0.03125 0.13822-2.2711 2.0844-4.0625 4.5-4.0625 0.05453 0 0.10219 0.02943 0.15625 0.03125 1.8914-5.4662 7.0468-9.375 13.156-9.375 1.3663 0 2.6895 0.19651 3.9375 0.5625 0.71942-1.026 1.9018-1.6875 3.25-1.6875z"/>
   <path id="path3686" style="opacity:.2;color:#000000;fill:url(#linearGradient4104)" d="m50.585 2.9145c-1.4261 0-2.5938 1.1364-2.5938 2.5625 0 0.94222 0.49623 1.7678 1.25 2.2188-0.42979 0.62326-0.75196 1.3181-0.96875 2.0625-0.78008-0.26481-1.587-0.45761-2.4375-0.53125 0.02776-0.15383 0.0625-0.30692 0.0625-0.46875 0-1.4646-1.1917-2.6562-2.6562-2.6562-1.0731 0-1.9888 0.64566-2.4062 1.5625-1.0616-1.0864-2.5256-1.7778-4.1562-1.8125 0-1.3104-1.0646-2.375-2.375-2.375-1.2339 0-2.2293 0.95203-2.3438 2.1562-0.37719-0.13609-0.79464-0.21875-1.2188-0.21875-1.9656 0-3.5625 1.5969-3.5625 3.5625 0 0.06439 0.02787 0.12395 0.03125 0.1875-0.60789-0.07841-1.2167-0.125-1.8438-0.125-1.6687 0-3.2477 0.28484-4.75 0.78125-1.1385-1.0802-2.6817-1.75-4.375-1.75-3.5073 0-6.3438 2.8364-6.3438 6.3438 0 0.5261 0.06691 1.0424 0.1875 1.5312-2.156 0.28208-3.8125 2.1108-3.8125 4.3438 0 0.43842 0.06804 0.85044 0.1875 1.25-0.21782 0.19014-0.4268 0.38341-0.625 0.59375-0.87625-0.74992-2.0137-1.2188-3.2812-1.2188-2.7365 0-4.9375 2.1291-4.9375 4.75s2.201 4.75 4.9375 4.75c0.4111 0 0.80555-0.06587 1.1875-0.15625 0.96074 3.7711 4.3659 6.5625 8.4375 6.5625 1.2797 0 2.4989-0.28622 3.5938-0.78125 2.6219 2.1439 5.9427 3.4375 9.5938 3.4375 4.9332 0 9.314-2.3606 12.094-6 0.73405 0.43 1.5878 0.6875 2.5 0.6875 2.4273 0 4.4496-1.727 4.875-4.0312 0.03081 0.000267 0.06288 0 0.09375 0 3.6133 0 6.7751-1.8405 8.6562-4.625 1.2675 1.3 3.0409 2.0938 5 2.0938 3.5372 0 6.4807-2.6191 6.9375-6.0312 0.4459 0.10707 0.89626 0.1875 1.375 0.1875 3.2761 0 5.9375-2.6614 5.9375-5.9375s-2.6614-5.9375-5.9375-5.9375c-0.34246 0-0.67439 0.03796-1 0.09375-0.49243-0.49025-1.1345-0.78125-1.8438-0.78125-0.73343 0-1.4081 0.32335-1.9062 0.84375-0.77547-3.1324-3.5965-5.4687-6.9688-5.4687-0.73385 0-1.4269 0.13939-2.0938 0.34375-0.26558-1.1435-1.2757-2-2.5-2z"/>
   <path id="path3739" style="opacity:.5;color:#000000;fill:url(#linearGradient3844-1-5)" d="m7.5 22.312c-0.95045 0-1.8285 0.30559-2.5312 0.8125-0.58004-0.08942-1.1762-0.15625-1.7812-0.15625-2.6437 0-5.0504 0.91554-7 2.4062-0.2252-0.03559-0.45167-0.0625-0.6875-0.0625-2.3125 0-4.1875 1.7719-4.1875 3.9688 0 0.82384 0.26727 1.5839 0.71875 2.2188-0.268 0.97769-0.40625 1.9997-0.40625 3.0625 0 1.0735 0.13301 2.1073 0.40625 3.0938-0.61992-0.27902-1.3073-0.4375-2.0312-0.4375-2.7365 0-4.9375 2.201-4.9375 4.9375s2.201 4.9688 4.9375 4.9688c0.36612 0 0.719-0.04965 1.0625-0.125-0.000643 0.04129 0 0.08355 0 0.125 0 4.3167 3.4958 7.8125 7.8125 7.8125 2.786 0 5.2097-1.4621 6.5938-3.6562 2.0411 1.841 4.7536 2.9688 7.7188 2.9688 4.015 0 7.533-2.072 9.5938-5.1875 1.2942 0.97115 2.8824 1.5625 4.625 1.5625 2.725 0 5.1192-1.4353 6.5-3.5625 0.69317 0.55616 1.5421 0.90625 2.5 0.90625 1.3093 0 2.4789-0.6295 3.2188-1.5938 0.32267 0.20323 0.71549 0.34375 1.125 0.34375 1.1563 0 2.0938-0.93749 2.0938-2.0938s-0.93749-2.0938-2.0938-2.0938c-0.18067 0-0.36401 0.01947-0.53125 0.0625-0.508-1.456-1.82-2.527-3.407-2.688-0.086-1.348-1.192-2.406-2.562-2.406-0.3812 0-0.73681 0.07047-1.0625 0.21875-1.4183-1.5835-3.4881-2.5938-5.7812-2.5938-1.0245 0-1.9799 0.20126-2.875 0.5625-0.22426-2.3734-2.2241-4.25-4.6562-4.25-0.28018 0-0.54588 0.04651-0.8125 0.09375 0.03207-0.21766 0.0625-0.42967 0.0625-0.65625 0-2.5052-2.0573-4.5312-4.5625-4.5312-0.93946 0-1.8073 0.2609-2.5312 0.75-0.12466-0.14758-0.24323-0.29637-0.375-0.4375 0.01212-0.12327 0.03125-0.24872 0.03125-0.375 0-2.1969-1.875-3.9688-4.1875-3.9688z"/>
   <path id="path3772" style="opacity:.5;color:#000000;fill:url(#linearGradient3828-0-06)" d="m25.09 12.889c-1.7951 0-3.2871 1.3348-3.5312 3.0625-0.99024 0.39781-1.8962 0.90849-2.7188 1.5625-0.48316-0.50848-1.1494-0.84375-1.9062-0.84375-1.4646 0-2.6562 1.1917-2.6562 2.6562 0 0.01073-0.000127 0.02055 0 0.03125-1.0357 0.06809-2.0271 0.26679-2.9688 0.59375-0.55027-0.63705-1.3734-1.0312-2.2812-1.0312-1.6368 0-2.9673 1.3085-3 2.9375-0.04347-0.0022-0.08097-0.03125-0.125-0.03125-1.2037 0-2.2233 0.86986-2.4688 2-2.4536 0.16605-4.5626 1.5198-5.7812 3.5-0.4926-0.20835-1.0253-0.3125-1.5938-0.3125-2.274 0-4.125 1.851-4.125 4.125s1.851 4.0938 4.125 4.0938c0.53425 0 1.0316-0.09607 1.5-0.28125 1.2861 2.1833 3.6578 3.625 6.375 3.625 0.87777 0 1.7188-0.15691 2.5-0.4375 2.0858 2.4103 5.156 3.9375 8.5938 3.9375 3.5742 0 6.7584-1.6406 8.8438-4.2188 1.2151 1.3833 2.9829 2.2812 4.9688 2.2812 1.5447 0 2.9666-0.55175 4.0938-1.4375 1.0575 0.54918 2.2573 0.875 3.5312 0.875 1.5489 0 2.9813-0.46094 4.1875-1.25 0.49805 0.25713 1.0571 0.40625 1.6562 0.40625 1.7433 0 3.213-1.236 3.5625-2.875 0.23611 1.5401 1.5501 2.7188 3.1562 2.7188 1.7729 0 3.2188-1.4146 3.2188-3.1875 0-1.6151-1.1974-2.9623-2.75-3.1875 0.04583-0.25866 0.09375-0.54069 0.09375-0.8125 0-2.5052-2.026-4.5312-4.5312-4.5312-0.84007 0-1.6378 0.25822-2.3125 0.65625-0.22397-0.31986-0.4498-0.65593-0.71875-0.9375 0.10594-0.25048 0.15625-0.52343 0.15625-0.8125 0-1.1563-0.93749-2.0938-2.0938-2.0938-0.09318 0-0.19129 0.01945-0.28125 0.03125-0.01718-1.7967-1.4805-3.25-3.2812-3.25-0.47744 0-0.93457 0.09784-1.3438 0.28125-1.4251-2.523-3.8275-4.4148-6.6875-5.1875-0.40134-1.5259-1.7544-2.6562-3.4062-2.6562z"/>
   <path id="path3671" style="opacity:.4;color:#000000;fill:url(#linearGradient3836-6)" d="m82.629 8.7626c-3.0264 0.30734-5.375 2.8925-5.375 6 0 0.50225 0.07128 0.97124 0.1875 1.4375-1.3556-0.82923-2.9508-1.3125-4.6562-1.3125-0.69713 0-1.3801 0.09893-2.0312 0.25-0.47506-1.3625-1.7568-2.3438-3.2812-2.3438-1.9271 0-3.4688 1.5729-3.4688 3.5 0 0.92305 0.35225 1.751 0.9375 2.375-0.19649-0.02238-0.39127 0-0.59375 0-2.8907 0-5.25 2.3281-5.25 5.2188s2.3593 5.25 5.25 5.25c0.40398 0 0.77855-0.06962 1.1562-0.15625 1.0117 1.427 2.4356 2.5193 4.0938 3.1562-0.0042 0.11543-0.03125 0.2273-0.03125 0.34375 0 5.2417 4.2583 9.4688 9.5 9.4688 1.5304 0 2.9698-0.3566 4.25-1 2.6246 1.7834 5.8064 2.8438 9.2188 2.8438 6.8387 0 12.693-4.2051 15.156-10.156 4.7852-0.59661 8.5-4.647 8.5-9.5938 0-5.3573-4.3302-9.7188-9.6875-9.7188-1.1595 0-2.2818 0.22061-3.3125 0.59375-0.85422-0.73119-1.7894-1.3932-2.7812-1.9375 0.0827-0.23333 0.15625-0.48833 0.15625-0.75 0-1.2333-1.0166-2.2188-2.25-2.2188-0.94828 0-1.7699 0.57244-2.0938 1.4062-1.0568-0.24278-2.1573-0.40621-3.2812-0.4375-0.31043-1.2856-1.4628-2.2187-2.8438-2.2187-1.1744 0-2.1886 0.6901-2.6562 1.6875-1.0788-1.0542-2.5545-1.6875-4.1875-1.6875-0.20716 0-0.42324-0.02049-0.625 0z"/>
   <path id="path3870" style="opacity:.4;color:#000000;fill:url(#linearGradient3872-4)" d="m53.176 37.577c1.3695-0.39771 2.8078 0.36799 3.2055 1.7375 0.26277 0.90483 0.01648 1.8361-0.58162 2.4793 0.58655 0.47866 1.0897 1.0561 1.5055 1.7105 0.67528-0.47186 1.3964-0.88205 2.1926-1.19-0.06956-0.13999-0.14562-0.27731-0.19075-0.43272-0.40846-1.4065 0.40358-2.8832 1.8101-3.2917 1.0305-0.29927 2.09 0.06539 2.7465 0.82944 0.71646-1.3394 1.9296-2.4116 3.4859-2.8997-0.36546-1.2584 0.35998-2.5777 1.6184-2.9431 1.1849-0.34412 2.4063 0.29254 2.8521 1.4171 0.32427-0.23589 0.70211-0.43169 1.1094-0.54996 1.8877-0.54819 3.8665 0.53996 4.4147 2.4276 0.01796 0.06184 0.0078 0.1268 0.02228 0.18878 0.5619-0.24483 1.1335-0.45935 1.7357-0.63424 1.6025-0.46537 3.1983-0.63221 4.7794-0.57446 0.79208-1.3548 2.0873-2.4285 3.7134-2.9007 3.3682-0.97815 6.8831 0.9547 7.8612 4.3229 0.14672 0.50522 0.22646 1.0197 0.24699 1.5228 2.1491-0.3304 4.2499 0.9638 4.8726 3.1082 0.12227 0.42102 0.17183 0.83567 0.16855 1.2527 0.2622 0.12185 0.51679 0.24917 0.76579 0.39589 0.63234-0.96454 1.5939-1.732 2.8112-2.0855 2.6279-0.76317 5.3354 0.66766 6.0663 3.1845 0.73092 2.5169-0.78897 5.1754-3.4169 5.9385-0.39479 0.11465-0.79196 0.1614-1.184 0.18113 0.12908 3.8894-2.3625 7.5197-6.2725 8.6552-1.2289 0.3569-2.4795 0.42203-3.669 0.252-1.92 2.7901-4.7482 4.9584-8.2544 5.9767-4.7374 1.3758-9.6028 0.33061-13.287-2.3892-0.58501 0.61766-1.3331 1.103-2.2091 1.3574-2.331 0.67695-4.7547-0.41753-5.8058-2.5117-0.02951 0.0088-0.06039 0.01754-0.09003 0.02614-3.47 1.0077-7.0196 0.12201-9.6027-2.0274-0.85466 1.6019-2.3363 2.8588-4.2177 3.4051-3.3969 0.98648-6.954-0.7078-8.3443-3.8572-0.39834 0.22718-0.80841 0.43002-1.2682 0.56353-3.1461 0.91365-6.4442-0.89994-7.3578-4.046-0.91365-3.1461 0.89994-6.4442 4.046-7.3578 0.32887-0.09551 0.65822-0.15163 0.98647-0.18886 0.33617-0.60813 0.87158-1.0666 1.5527-1.2644 0.70433-0.20454 1.4424-0.08217 2.0659 0.27864-0.12887-3.2244 1.9287-6.2548 5.1671-7.1953 0.70473-0.20466 1.4091-0.26407 2.1065-0.25381-0.06387-1.1722 0.66728-2.2764 1.843-2.6179z"/>
   <path id="path3713" style="opacity:.5;color:#000000;fill:url(#linearGradient3868-5-2)" d="m22.938 21.656c-3.5005 0-6.464 2.1862-7.625 5.2812-2.9227 0.05208-5.2812 2.4399-5.2812 5.375 0 2.9677 2.4073 5.375 5.375 5.375 1.1753 0 2.2405-0.3911 3.125-1.0312 1.2736 0.82112 2.7782 1.3125 4.4062 1.3125 0.41217 0 0.82299-0.03481 1.2188-0.09375 0.4608 0.55836 1.157 0.9375 1.9375 0.9375 1.11 0 2.0426-0.72039 2.375-1.7188 0.573 0.1721 1.1834 0.28125 1.8125 0.28125 3.4688 0 6.2812-2.8125 6.2812-6.2812 0-2.9051-1.9776-5.3448-4.6562-6.0625 0.02473-0.15323 0.0625-0.30854 0.0625-0.46875 0-1.6188-1.3187-2.9062-2.9375-2.9062-0.86619 0-1.6509 0.37137-2.1875 0.96875-1.1569-0.62848-2.4971-0.96875-3.9062-0.96875z"/>
   <path id="path4207" style="opacity:.3;color:#000000;fill:url(#linearGradient4209)" d="m90.094 3.5c-1.259 0-2.334 0.69184-2.9062 1.7188-1.9182 0.13278-3.6115 1.0249-4.7812 2.4062-0.53405-0.72001-1.3784-1.1875-2.3438-1.1875-1.6188 0-2.9375 1.3187-2.9375 2.9375 0 0.44432 0.10432 0.84141 0.28125 1.2188-1.5885 0.35705-2.7812 1.7412-2.7812 3.4375 0 1.9656 1.5656 3.5625 3.5312 3.5625 1.5444 0 2.8512-0.99995 3.3438-2.375 1.141 2.241 3.467 3.781 6.155 3.781 1.0952 0 2.1424-0.26513 3.0625-0.71875 0.57196 0.52723 1.3483 0.84375 2.1875 0.84375 1.6569 0 2.9848-1.2636 3.1562-2.875 0.30913 0.04735 0.61513 0.09375 0.9375 0.09375 1.5171 0 2.9214-0.56524 4-1.4688 0.71605 0.81008 1.7713 1.3125 2.9375 1.3125 2.1584 0 3.9062-1.7479 3.9062-3.9062 0-2.1584-1.7479-3.9063-3.9062-3.9063-0.31601 0-0.64322 0.0542-0.9375 0.125-0.71569-2.64-3.1335-4.5938-6-4.5938-1.5007 0-2.8639 0.55146-3.9375 1.4375-0.55212-1.0915-1.662-1.8438-2.9688-1.8438z"/>
   <path id="path4236" style="opacity:.3;color:#000000;fill:url(#linearGradient4238-9)" d="m70.656 28.656c3.5005 0 6.464 2.1862 7.625 5.2812 2.9227 0.05208 5.2812 2.4399 5.2812 5.375 0 2.9677-2.4073 5.375-5.375 5.375-1.1753 0-2.2405-0.3911-3.125-1.0312-1.2736 0.82112-2.7782 1.3125-4.4062 1.3125-0.41217 0-0.82299-0.03481-1.2188-0.09375-0.4608 0.55836-1.157 0.9375-1.9375 0.9375-1.11 0-2.0426-0.72039-2.375-1.7188-0.573 0.1721-1.1834 0.28125-1.8125 0.28125-3.4688 0-6.2812-2.8125-6.2812-6.2812 0-2.9051 1.9776-5.3448 4.6562-6.0625-0.02473-0.15323-0.0625-0.30854-0.0625-0.46875 0-1.6188 1.3187-2.9062 2.9375-2.9062 0.86619 0 1.6509 0.37137 2.1875 0.96875 1.1569-0.62848 2.4971-0.96875 3.9062-0.96875z"/>
   <path id="path4240" style="opacity:.5;color:#000000;fill:url(#linearGradient3546)" d="m96.09 36.889c-1.7951 0-3.2871 1.3348-3.5312 3.0625-0.99024 0.39781-1.8962 0.90849-2.7188 1.5625-0.48316-0.50848-1.1494-0.84375-1.9062-0.84375-1.4646 0-2.6562 1.1917-2.6562 2.6562 0 0.01073-0.00013 0.02055 0 0.03125-1.0357 0.06809-2.0271 0.26679-2.9688 0.59375-0.55027-0.63705-1.3734-1.0312-2.2812-1.0312-1.6368 0-2.9673 1.3085-3 2.9375-0.04347-0.0022-0.08097-0.03125-0.125-0.03125-1.2037 0-2.2233 0.86986-2.4688 2-2.4536 0.16605-4.5626 1.5198-5.7812 3.5-0.4926-0.20835-1.0253-0.3125-1.5938-0.3125-2.274 0-4.125 1.851-4.125 4.125s1.851 4.0938 4.125 4.0938c0.53425 0 1.0316-0.09607 1.5-0.28125 1.2861 2.1833 3.6578 3.625 6.375 3.625 0.87777 0 1.7188-0.15691 2.5-0.4375 2.0858 2.4103 5.156 3.9375 8.5938 3.9375 3.5742 0 6.7584-1.6406 8.8438-4.2188 1.215 1.3833 2.9829 2.2812 4.9688 2.2812 1.5447 0 2.9666-0.55175 4.0938-1.4375 1.0575 0.54918 2.2573 0.875 3.5312 0.875 1.5489 0 2.9813-0.46094 4.1875-1.25 0.49805 0.25713 1.0571 0.40625 1.6562 0.40625 1.7433 0 3.213-1.236 3.5625-2.875 0.23611 1.5401 1.5501 2.7188 3.1562 2.7188 1.7729 0 3.2188-1.4146 3.2188-3.1875 0-1.6151-1.1974-2.9623-2.75-3.1875 0.0458-0.25866 0.0937-0.54069 0.0937-0.8125 0-2.5052-2.026-4.5312-4.5312-4.5312-0.84008 0-1.6378 0.25822-2.3125 0.65625-0.22398-0.31986-0.44981-0.65593-0.71875-0.9375 0.10594-0.25048 0.15625-0.52343 0.15625-0.8125 0-1.1563-0.93749-2.0938-2.0938-2.0938-0.0932 0-0.1913 0.01945-0.28125 0.03125-0.0172-1.7967-1.4805-3.25-3.2812-3.25-0.47744 0-0.93457 0.09784-1.3438 0.28125-1.4251-2.523-3.8275-4.4148-6.6875-5.1875-0.40134-1.5259-1.7544-2.6562-3.4062-2.6562z"/>
  </g>
 </g>
 <g id="layer4">
  <path id="path3888" style="fill:url(#linearGradient3228)" d="m6 80v4c0 3.324 2.676 6 6 6h72c3.324 0 6-2.676 6-6v-4c0 3.324-2.676 6-6 6h-72c-3.324 0-6-2.676-6-6z"/>
  <path id="rect4345" style="opacity:.1;color:#000000" d="m6 82v2c0 3.324 2.676 6 6 6h72c3.324 0 6-2.676 6-6v-2c0 3.324-2.676 6-6 6h-72c-3.324 0-6-2.676-6-6z"/>
  <path id="rect4336" style="opacity:.15;color:#000000" d="m6 83v1c0 3.324 2.676 6 6 6h72c3.324 0 6-2.676 6-6v-1c0 3.324-2.676 6-6 6h-72c-3.324 0-6-2.676-6-6z"/>
 </g>
 <g id="layer8">
  <path id="rect4377" style="opacity:.3;fill:url(#linearGradient3672)" d="m12 86c-3.324 0-6-2.676-6-6v-68c0-3.324 2.676-6 6-6h72c3.324 0 6 2.676 6 6v68c0 3.324-2.676 6-6 6zm0-0.96875h72c2.8049 0 5.0312-2.2264 5.0312-5.0312v-68c0-2.8049-2.226-5.0312-5.031-5.0312h-72c-2.8049 0-5.0312 2.2263-5.0312 5.0312v68c0 2.8049 2.2264 5.0312 5.0312 5.0312z"/>
  <path id="rect4414" style="opacity:.1;fill:url(#linearGradient4429-5)" d="m6 78v2c0 3.324 2.676 6 6 6h72c3.324 0 6-2.676 6-6v-2c0 3.324-2.676 6-6 6h-72c-3.324 0-6-2.676-6-6z"/>
 </g>
</svg>
