<?xml version="1.0" encoding="UTF-8" standalone="no"?>
<!-- Created with Inkscape (http://www.inkscape.org/) -->
<svg id="svg2" xmlns:rdf="http://www.w3.org/1999/02/22-rdf-syntax-ns#" xmlns="http://www.w3.org/2000/svg" height="16" width="16" version="1.0" xmlns:cc="http://creativecommons.org/ns#" xmlns:xlink="http://www.w3.org/1999/xlink" xmlns:dc="http://purl.org/dc/elements/1.1/">
 <metadata id="metadata7">
  <rdf:RDF>
   <cc:Work rdf:about="">
    <dc:format>image/svg+xml</dc:format>
    <dc:type rdf:resource="http://purl.org/dc/dcmitype/StillImage"/>
    <dc:title/>
   </cc:Work>
  </rdf:RDF>
 </metadata>
 <g id="layer1">
  <path id="path3798" style="color:#000000;fill:#f00" d="m7.5 19c-1.4497 0-2.6874 0.869-3.2188 2.125-0.2474-0.082-0.5062-0.125-0.7812-0.125-1.3807 0-2.5 1.119-2.5 2.5s1.1193 2.5 2.5 2.5h4 5.5c1.1046 0 2-0.89543 2-2s-0.89543-2-2-2h-0.09375c0.054-0.154 0.094-0.327 0.094-0.5 0-0.828-0.672-1.5-1.5-1.5-0.446 0-0.85 0.191-1.125 0.5-0.632-0.91-1.6829-1.5-2.875-1.5z"/>
  <path id="path3863" style="color:#000000;fill:#6e6e6e" d="m7-18c-1.8769 0-3.4437 1.2876-3.875 3.0312-1.201 0.183-2.125 1.217-2.125 2.469 0 1.3807 1.1193 2.5 2.5 2.5h9c1.3807 0 2.5-1.1193 2.5-2.5 0-1.2081-0.86079-2.2044-2-2.4375 0.00065-0.02096 0-0.04138 0-0.0625 0-1.1046-0.89543-2-2-2-0.37992 0-0.72874 0.12856-1.0312 0.3125-0.732-0.809-1.7912-1.312-2.9688-1.312z"/>
  <path id="path2960" style="block-progression:tb;text-indent:0;color:#000000;text-transform:none;fill:#bebebe" d="m10.396 10.06c-0.83315 0.12795-1.7448 0.45486-2.6883 1.1602-3.2445 2.4252-5.5447 0.07251-5.5447 0.07251a0.67215 0.87021 0 1 0 -0.7841 1.3777s3.1613 2.9425 7.0009 0.07251c3.1669-2.3672 5.5447-0.03626 5.5447-0.03626a0.68365 0.8851 0 0 0 0.7841 -1.4502s-1.8131-1.5803-4.3125-1.1964z"/>
  <path id="path3746" style="block-progression:tb;text-indent:0;color:#000000;text-transform:none;fill:#bebebe" d="m10.396 6.0601c-0.8333 0.128-1.745 0.4549-2.6885 1.1602-3.2445 2.4251-5.5447 0.0725-5.5447 0.0725a0.67215 0.87021 0 1 0 -0.7841 1.3777s3.1613 2.9425 7.0009 0.07251c3.1664-2.3672 5.5444-0.0363 5.5444-0.0363a0.68365 0.8851 0 0 0 0.7841 -1.4502s-1.8131-1.5803-4.3125-1.1964z"/>
  <path id="path3748" style="block-progression:tb;text-indent:0;color:#000000;text-transform:none;fill:#bebebe" d="m10.396 2.0601c-0.8333 0.128-1.745 0.4549-2.6885 1.1602-3.2445 2.4251-5.5447 0.0725-5.5447 0.0725a0.67215 0.87021 0 1 0 -0.7841 1.3777s3.1613 2.9425 7.0009 0.07251c3.1664-2.3672 5.5444-0.0363 5.5444-0.0363a0.68365 0.8851 0 0 0 0.7841 -1.4502s-1.8131-1.5803-4.3125-1.1964z"/>
 </g>
</svg>
