<?xml version="1.0" encoding="UTF-8" standalone="no"?>
<!-- Created with Inkscape (http://www.inkscape.org/) -->
<svg id="svg2408" xmlns:rdf="http://www.w3.org/1999/02/22-rdf-syntax-ns#" xmlns="http://www.w3.org/2000/svg" height="96" width="96" version="1.0" xmlns:cc="http://creativecommons.org/ns#" xmlns:xlink="http://www.w3.org/1999/xlink" xmlns:dc="http://purl.org/dc/elements/1.1/">
 <defs id="defs2410">
  <linearGradient id="ButtonShadow" y2="7.0165" gradientUnits="userSpaceOnUse" x2="45.448" gradientTransform="scale(1.0059 .99417)" y1="92.54" x1="45.448">
   <stop id="stop3750" offset="0"/>
   <stop id="stop3752" style="stop-opacity:.58824" offset="1"/>
  </linearGradient>
  <linearGradient id="linearGradient3737">
   <stop id="stop3739" style="stop-color:#fff" offset="0"/>
   <stop id="stop3741" style="stop-color:#fff;stop-opacity:0" offset="1"/>
  </linearGradient>
  <filter id="filter3174" color-interpolation-filters="sRGB">
   <feGaussianBlur id="feGaussianBlur3176" stdDeviation="1.71"/>
  </filter>
  <linearGradient id="linearGradient3188" y2="63.893" xlink:href="#linearGradient3737" gradientUnits="userSpaceOnUse" x2="36.357" y1="6" x1="36.357"/>
  <filter id="filter3794" height="1.384" width="1.384" color-interpolation-filters="sRGB" y="-.192" x="-.192">
   <feGaussianBlur id="feGaussianBlur3796" stdDeviation="5.28"/>
  </filter>
  <linearGradient id="linearGradient3613" y2="138.66" xlink:href="#linearGradient3737" gradientUnits="userSpaceOnUse" x2="48" y1="20.221" x1="48"/>
  <radialGradient id="radialGradient3619" xlink:href="#linearGradient3737" gradientUnits="userSpaceOnUse" cy="90.172" cx="48" gradientTransform="matrix(1.1573 0 0 .99591 -7.551 .19713)" r="42"/>
  <clipPath id="clipPath3613">
   <rect id="rect3615" style="fill:#fff" rx="6" ry="6" height="84" width="84" y="6" x="6"/>
  </clipPath>
  <linearGradient id="linearGradient3617" y2="5.9877" gradientUnits="userSpaceOnUse" x2="48" y1="90" x1="48">
   <stop id="stop3702" style="stop-color:#bebebe" offset="0"/>
   <stop id="stop3704" style="stop-color:#dcdcdc" offset="1"/>
  </linearGradient>
  <linearGradient id="ButtonShadow-0" y2="7.0165" gradientUnits="userSpaceOnUse" x2="45.448" gradientTransform="matrix(1.0059 0 0 .99417 100 0)" y1="92.54" x1="45.448">
   <stop id="stop3750-8" offset="0"/>
   <stop id="stop3752-5" style="stop-opacity:.58824" offset="1"/>
  </linearGradient>
  <linearGradient id="linearGradient3780" y2="90.239" xlink:href="#ButtonShadow-0" gradientUnits="userSpaceOnUse" x2="32.251" gradientTransform="matrix(1.0238 0 0 1.0119 -1.1429 -98.071)" y1="6.1317" x1="32.251"/>
  <linearGradient id="linearGradient3721" y2="90.239" xlink:href="#ButtonShadow-0" gradientUnits="userSpaceOnUse" x2="32.251" gradientTransform="translate(0,-97)" y1="6.1317" x1="32.251"/>
  <linearGradient id="StandardGradient-3" y2="19.387" gradientUnits="userSpaceOnUse" x2="11.999" gradientTransform="scale(.92195 1.0847)" y1=".92195" x1="11.999">
   <stop id="stop3283-5" style="stop-opacity:.86275" offset="0"/>
   <stop id="stop2651-2" style="stop-opacity:.47059" offset="1"/>
  </linearGradient>
  <linearGradient id="linearGradient3736" y2="80" xlink:href="#StandardGradient-3" gradientUnits="userSpaceOnUse" x2="56" gradientTransform="matrix(.94249 0 0 .94249 -88.24 .87540)" y1="16" x1="56"/>
  <linearGradient id="linearGradient2902" y2="80" xlink:href="#StandardGradient-3" gradientUnits="userSpaceOnUse" x2="56" gradientTransform="matrix(.70687 0 0 .70687 -101.63 12.657)" y1="16" x1="56"/>
  <linearGradient id="linearGradient3886" y2="76" xlink:href="#StandardGradient-3" gradientUnits="userSpaceOnUse" x2="49" gradientTransform="matrix(.85714 0 0 .85714 14.857 6.8571)" y1="20" x1="49"/>
  <linearGradient id="linearGradient3081" y2="76" xlink:href="#StandardGradient-3" gradientUnits="userSpaceOnUse" x2="49" gradientTransform="matrix(.57143 0 0 .57143 4.1623 24.571)" y1="20" x1="49"/>
 </defs>
 <metadata id="metadata2413">
  <rdf:RDF>
   <cc:Work rdf:about="">
    <dc:format>image/svg+xml</dc:format>
    <dc:type rdf:resource="http://purl.org/dc/dcmitype/StillImage"/>
    <dc:title/>
   </cc:Work>
  </rdf:RDF>
 </metadata>
 <g id="layer2" style="display:none">
  <rect id="rect3745" style="opacity:.9;filter:url(#filter3174);fill:url(#ButtonShadow)" rx="6" ry="6" height="85" width="86" y="7" x="5"/>
 </g>
 <g id="layer3">
  <path id="path3786" style="opacity:0.08;fill:url(#linearGradient3780)" d="m12-95.031c-5.5111 0-10.031 4.5202-10.031 10.031v71c0 5.5111 4.5202 10.031 10.031 10.031h72c5.5111 0 10.031-4.5202 10.031-10.031v-71c0-5.5111-4.5202-10.031-10.031-10.031h-72z" transform="scale(1,-1)"/>
  <path id="path3778" style="opacity:.1;fill:url(#linearGradient3780)" d="m12-94.031c-4.9716 0-9.0312 4.0596-9.0312 9.0312v71c0 4.9716 4.0596 9.0312 9.0312 9.0312h72c4.9716 0 9.0312-4.0596 9.0312-9.0312v-71c0-4.9716-4.0596-9.0312-9.0312-9.0312h-72z" transform="scale(1,-1)"/>
  <path id="path3770" style="opacity:.2;fill:url(#linearGradient3780)" d="m12-93c-4.4091 0-8 3.5909-8 8v71c0 4.4091 3.5909 8 8 8h72c4.4091 0 8-3.5909 8-8v-71c0-4.4091-3.5909-8-8-8h-72z" transform="scale(1,-1)"/>
  <rect id="rect3723" style="opacity:.3;fill:url(#linearGradient3780)" transform="scale(1,-1)" rx="7" ry="7" height="85" width="86" y="-92" x="5"/>
  <rect id="rect3716" style="opacity:.45;fill:url(#linearGradient3721)" transform="scale(1,-1)" rx="6" ry="6" height="84" width="84" y="-91" x="6"/>
 </g>
 <g id="layer1">
  <rect id="rect2419" style="fill:url(#linearGradient3617)" rx="6" ry="6" height="84" width="84" y="6" x="6"/>
  <path id="rect3728" style="opacity:.5;fill:url(#linearGradient3188)" d="m12 6c-3.324 0-6 2.676-6 6v2 68 2c0 0.33472 0.04135 0.6507 0.09375 0.96875 0.0487 0.2956 0.09704 0.59692 0.1875 0.875 0.00988 0.03038 0.020892 0.0636 0.03125 0.09375 0.098865 0.28777 0.23488 0.54745 0.375 0.8125 0.14459 0.27351 0.31562 0.53562 0.5 0.78125 0.18438 0.24564 0.37378 0.47347 0.59375 0.6875 0.43995 0.42806 0.94291 0.81453 1.5 1.0938 0.27854 0.13961 0.57347 0.24695 0.875 0.34375-0.2562-0.10022-0.48671-0.23627-0.71875-0.375-0.00741-0.0044-0.023866 0.0045-0.03125 0-0.031933-0.0193-0.062293-0.04251-0.09375-0.0625-0.1204-0.0767-0.23102-0.16351-0.34375-0.25-0.10617-0.0808-0.21328-0.16111-0.3125-0.25-0.1778-0.162-0.3473-0.346-0.4999-0.531-0.1075-0.131-0.2183-0.266-0.3124-0.407-0.0251-0.038-0.0385-0.086-0.0626-0.125-0.0647-0.103-0.1302-0.204-0.1874-0.312-0.1011-0.195-0.2057-0.416-0.2813-0.625-0.008-0.022-0.0236-0.041-0.0313-0.063-0.0318-0.092-0.0358-0.187-0.0624-0.281-0.0304-0.107-0.0704-0.203-0.0938-0.313-0.0729-0.341-0.125-0.698-0.125-1.062v-2-68-2c0-2.782 2.2182-5 5-5h2 68 2c2.7818 0 5 2.2182 5 5v2 68 2c0 0.3643-0.05212 0.72099-0.125 1.0625-0.04415 0.20689-0.08838 0.39766-0.15625 0.59375-0.0077 0.02195-0.0233 0.04069-0.03125 0.0625-0.06274 0.17374-0.13838 0.36745-0.21875 0.53125-0.04158 0.0828-0.07904 0.16995-0.125 0.25-0.0546 0.09721-0.12677 0.18835-0.1875 0.28125-0.09411 0.14096-0.20492 0.276-0.3125 0.40625-0.14317 0.17445-0.30314 0.347-0.46875 0.5-0.01117 0.0102-0.01998 0.02115-0.03125 0.03125-0.13839 0.12556-0.28509 0.23444-0.4375 0.34375-0.10257 0.07315-0.20432 0.15336-0.3125 0.21875-0.0074 0.0045-0.02384-0.0044-0.03125 0-0.23204 0.13873-0.46255 0.27478-0.71875 0.375 0.30153-0.0968 0.59646-0.20414 0.875-0.34375 0.55709-0.27922 1.0601-0.66569 1.5-1.0938 0.21997-0.21403 0.40937-0.44186 0.59375-0.6875s0.35541-0.50774 0.5-0.78125c0.14012-0.26505 0.27614-0.52473 0.375-0.8125 0.01041-0.03078 0.02133-0.06274 0.03125-0.09375 0.09046-0.27808 0.1388-0.5794 0.1875-0.875 0.053-0.318 0.094-0.634 0.094-0.969v-2-68-2c0-3.324-2.676-6-6-6h-72z"/>
  <path id="path3615" style="opacity:.2;fill:url(#radialGradient3619)" d="m12 90c-3.324 0-6-2.676-6-6v-2-68-2c0-0.33472 0.04135-0.6507 0.09375-0.96875 0.0487-0.2956 0.09704-0.59692 0.1875-0.875 0.0099-0.03 0.0209-0.063 0.0313-0.094 0.0989-0.2873 0.2349-0.547 0.375-0.812 0.1446-0.2735 0.3156-0.5356 0.5-0.7812 0.1844-0.2457 0.3738-0.4735 0.5937-0.6876 0.44-0.428 0.943-0.8145 1.5-1.0937 0.2786-0.1396 0.5735-0.2469 0.8748-0.3437-0.256 0.1002-0.4865 0.2362-0.7185 0.375-0.00741 0.0044-0.023866-0.0045-0.03125 0-0.031933 0.0193-0.062293 0.04251-0.09375 0.0625-0.1204 0.0767-0.23102 0.16351-0.34375 0.25-0.10617 0.0808-0.21328 0.16111-0.3125 0.25-0.1779 0.1614-0.3474 0.3453-0.5 0.5312-0.1075 0.1303-0.2183 0.2653-0.3124 0.4063-0.0251 0.0383-0.0385 0.0858-0.0626 0.125-0.0647 0.103-0.1302 0.2045-0.1874 0.3124-0.1011 0.1948-0.2057 0.4158-0.2813 0.625-0.008 0.0219-0.0236 0.0406-0.0313 0.0626-0.0318 0.0919-0.0358 0.1868-0.0624 0.2812-0.0304 0.1066-0.0704 0.203-0.0938 0.3125-0.0729 0.3415-0.125 0.6985-0.125 1.0625v2 68 2c0 2.7818 2.2182 5 5 5h2 68 2c2.7818 0 5-2.2182 5-5v-2-68-2c0-0.364-0.052-0.721-0.125-1.0625-0.044-0.2069-0.088-0.3977-0.156-0.5937-0.008-0.022-0.024-0.0407-0.031-0.0626-0.063-0.1737-0.139-0.3674-0.219-0.5312-0.042-0.0828-0.079-0.17-0.125-0.25-0.055-0.0972-0.127-0.1884-0.188-0.2812-0.094-0.141-0.205-0.276-0.312-0.4063-0.143-0.1745-0.303-0.347-0.469-0.5-0.011-0.0102-0.02-0.0211-0.031-0.0313-0.139-0.1255-0.285-0.2344-0.438-0.3437-0.102-0.0731-0.204-0.1534-0.312-0.2187-0.0074-0.0045-0.02384 0.0044-0.03125 0-0.23204-0.13873-0.46255-0.27478-0.71875-0.375 0.30153 0.0968 0.59646 0.20414 0.875 0.34375 0.55709 0.27922 1.0601 0.66569 1.5 1.0938 0.21997 0.21403 0.40937 0.44186 0.59375 0.6875s0.35541 0.50774 0.5 0.78125c0.14012 0.26505 0.27614 0.52473 0.375 0.8125 0.01041 0.03078 0.02133 0.06274 0.03125 0.09375 0.09046 0.27808 0.1388 0.5794 0.1875 0.875 0.053 0.318 0.094 0.634 0.094 0.969v2 68 2c0 3.324-2.676 6-6 6h-72z"/>
 </g>
 <g id="layer5">
  <rect id="rect3171" style="opacity:.1;filter:url(#filter3794);stroke:#fff;stroke-linecap:round;stroke-width:.5;fill:url(#linearGradient3613)" clip-path="url(#clipPath3613)" rx="12" ry="12" height="66" width="66" y="15" x="15"/>
 </g>
 <g id="layer4">
  <path id="path3798" style="enable-background:new;fill:url(#linearGradient3736)" d="m-43 16c-6.5781 0-11.911 4.9335-11.911 11.019 0.01598 0.69744 0.0261 1.4938 0.09926 2.3613-1.041 0.5501-1.1767 2.7014-0.24814 4.8701 0.35807 0.83628 0.84645 1.5158 1.34 2.0661 0.01645 0.0184 0.03308 0.0312 0.04963 0.04913 0.1178 0.573 0.20494 1.0262 0.3474 1.6726 0.44133 1.3124 2.265 3.781 3.871 5.9032 0.16015 1.6371 0.17332 3.2539-0.14889 5.1161-4.6224 3.8014-16.445 5.5096-16.427 9.445l-1.5881 10.232c0 2.0964 3.1594 4.0158 8.1886 5.3128l0.69479 2.804a1.7296 1.7144 0 0 0 1.0918 1.1314c0.22323 0.08562 0.38076 0.26668 0.99255 0.44273 3.222 0.928 8.129 1.575 13.647 1.575 5.5177 0 10.475-0.64673 13.697-1.5742 0.61179-0.17606 0.76933-0.35716 0.99255-0.44273a1.7296 1.7144 0 0 0 1.0422 -1.0822l0.84367-2.9516c4.9063-1.2949 8.0397-3.1476 8.0397-5.2145l-1.5881-10.232c-0.01886-3.3682-11.911-5.5096-16.476-9.4451-0.18486-1.5075-0.19338-2.9917-0.09928-4.4765 1.4601-2.2326 3.3824-5.0898 3.871-6.5427 0.17957-0.75242 0.25756-1.2724 0.39702-1.9185 0.43116-0.52238 0.82316-1.126 1.1414-1.8693 0.88183-2.0595 0.7995-4.0538-0.09926-4.7225 0.0628-0.89489 0.12262-1.744 0.14888-2.5088-0.001-6.084-5.334-11.017-11.912-11.017z"/>
  <path id="path3698" style="opacity:.1;enable-background:new" d="m-43 16c-6.5781 0-11.906 4.9455-11.906 11.031 0.01598 0.69744 0.02059 1.4763 0.09375 2.3438-1.041 0.5501-1.1786 2.7063-0.25 4.875 0.35807 0.83628 0.85025 1.5122 1.3438 2.0625 0.01645 0.0184 0.04595 0.04457 0.0625 0.0625 0.1178 0.573 0.20129 1.0099 0.34375 1.6562 0.44133 1.3124 2.2691 3.7841 3.875 5.9062 0.16015 1.6371 0.16597 3.2628-0.15625 5.125-4.6224 3.8014-16.455 5.5021-16.438 9.4375l-1.594 10.252c0 2.0964 3.1583 4.0155 8.1875 5.3125l0.71875 2.7812a1.7296 1.7144 0 0 0 1.0938 1.125c0.22323 0.08562 0.35696 0.29269 0.96875 0.46875 3.222 0.928 8.138 1.563 13.656 1.563 5.5177 0 10.465-0.63506 13.688-1.5625 0.61179-0.17606 0.77678-0.38317 1-0.46875a1.7296 1.7144 0 0 0 1.0312 -1.0625l0.84375-2.9688c4.9063-1.2949 8.0625-3.1206 8.0625-5.1875l-1.595-10.25c-0.01886-3.3682-11.903-5.5021-16.469-9.4375-0.18486-1.5075-0.2191-2.984-0.125-4.4688 1.4601-2.2326 3.3864-5.1096 3.875-6.5625 0.17957-0.75242 0.26679-1.2602 0.40625-1.9062 0.43116-0.52238 0.83797-1.1316 1.1562-1.875 0.88183-2.0595 0.77376-4.0501-0.125-4.7188 0.0628-0.89489 0.13-1.7352 0.15625-2.5 0.001-6.086-5.327-11.032-11.905-11.032zm0 1.9375c5.5891 0 9.932 4.0976 9.9688 9.0312 0.000156 0.02098 0 0.04149 0 0.0625-0.02545 0.68878-0.063 1.4916-0.125 2.375a1.9261 1.9261 0 0 0 0.625 1.5625c-0.04866-0.03591 0.081 0.10177 0.09375 0.46875 0.017 0.48931-0.1274 1.2653-0.46875 2.0625-0.23444 0.54754-0.53324 0.99218-0.875 1.4062a1.9261 1.9261 0 0 0 -0.375 0.8125c-0.13846 0.64146-0.22938 1.1236-0.375 1.75-0.14036 0.39015-0.69185 1.4197-1.375 2.5312-0.69971 1.1385-1.5463 2.4074-2.2812 3.5312a1.9261 1.9261 0 0 0 -0.3125 0.9375c-0.10107 1.5947-0.0436 3.214 0.15625 4.8438a1.9261 1.9261 0 0 0 0.65625 1.2188c2.7784 2.3948 6.9709 3.8225 10.469 5.25 1.7489 0.71376 3.3258 1.3894 4.3125 2 0.49336 0.30528 0.83039 0.62117 0.96875 0.78125 0.02661 0.03078 0.02025 0.01685 0.03125 0.03125 0.0028 0.0078-0.0026 0.02524 0 0.03125a1.9261 1.9261 0 0 0 0.03125 0.15625l1.5625 9.9688c0 0.05314-0.14679 0.5408-1.2812 1.25-1.1345 0.7092-3.008 1.446-5.3438 2.0625a1.9261 1.9261 0 0 0 -1.3438 1.3438l-0.78125 2.7812c-0.66838 0.27161-0.48991 0.32241-0.78125 0.40625-2.9439 0.8472-7.7863 1.4688-13.156 1.4688-5.3699 0-10.178-0.62063-13.125-1.4688-0.28413-0.08176 0.01006-0.09166-0.78125-0.40625l-0.65625-2.5938a1.9261 1.9261 0 0 0 -1.4062 -1.4062c-2.3866-0.61548-4.2598-1.363-5.4062-2.0938-1.1465-0.73073-1.3125-1.2627-1.3125-1.3438l1.5625-9.9688a1.9261 1.9261 0 0 0 0.03 -0.282c-0.000082-0.01817 0.08294-0.37888 1.0312-1 0.94831-0.62112 2.4877-1.2868 4.2188-1.9688 3.462-1.364 7.6437-2.6454 10.469-4.9688a1.9261 1.9261 0 0 0 0.6875 -1.1562c0.35499-2.0516 0.32799-3.9007 0.15625-5.6562a1.9261 1.9261 0 0 0 -0.375 -0.96875c-0.79801-1.0545-1.6358-2.1934-2.3125-3.1875-0.66528-0.97737-1.1562-1.8961-1.25-2.1562 0-0.004-0.029-0.027-0.03-0.031-0.107-0.496-0.177-0.9-0.281-1.406a1.9261 1.9261 0 0 0 -0.469 -0.938c-0.1567-0.16977-0.17256-0.18931-0.03125-0.03125-0.39514-0.44064-0.74549-0.93683-1-1.5312-0.35985-0.84044-0.49657-1.6828-0.46875-2.1875 0.01391-0.25233 0.05994-0.35537 0.0625-0.375a1.9261 1.9261 0 0 0 0.78125 -1.7188c-0.06469-0.76712-0.04649-1.4757-0.0625-2.1875 0-0.0105-0.000039-0.02075 0-0.03125 0.01844-4.9477 4.3678-9.0625 9.9688-9.0625z"/>
  <path id="path3691" style="opacity:.15;enable-background:new" d="m-43 16c-6.5781 0-11.906 4.9455-11.906 11.031 0.01598 0.69744 0.02059 1.4763 0.09375 2.3438-1.041 0.5501-1.1786 2.7063-0.25 4.875 0.35807 0.83628 0.85025 1.5122 1.3438 2.0625 0.01645 0.0184 0.04595 0.04457 0.0625 0.0625 0.1178 0.573 0.20129 1.0099 0.34375 1.6562 0.44133 1.3124 2.2691 3.7841 3.875 5.9062 0.16015 1.6371 0.16597 3.2628-0.15625 5.125-4.6224 3.8014-16.455 5.5021-16.438 9.4375l-1.594 10.252c0 2.0964 3.1583 4.0155 8.1875 5.3125l0.71875 2.7812a1.7296 1.7144 0 0 0 1.0938 1.125c0.22323 0.08562 0.35696 0.29269 0.96875 0.46875 3.222 0.928 8.138 1.563 13.656 1.563 5.5177 0 10.465-0.63506 13.688-1.5625 0.61179-0.17606 0.77678-0.38317 1-0.46875a1.7296 1.7144 0 0 0 1.0312 -1.0625l0.84375-2.9688c4.9063-1.2949 8.0625-3.1206 8.0625-5.1875l-1.595-10.25c-0.01886-3.3682-11.903-5.5021-16.469-9.4375-0.18486-1.5075-0.2191-2.984-0.125-4.4688 1.4601-2.2326 3.3864-5.1096 3.875-6.5625 0.17957-0.75242 0.26679-1.2602 0.40625-1.9062 0.43116-0.52238 0.83797-1.1316 1.1562-1.875 0.88183-2.0595 0.77376-4.0501-0.125-4.7188 0.0628-0.89489 0.13-1.7352 0.15625-2.5 0.001-6.086-5.327-11.032-11.905-11.032zm0 1.0625c6.0394 0 10.825 4.4797 10.844 9.9375 0.000036 0.01053 0 0.02072 0 0.03125-0.02575 0.72307-0.0938 1.5476-0.15625 2.4375a1.0516 1.0516 0 0 0 0.4375 0.90625c0.0647 0.04813 0.28999 0.38333 0.3125 1.0312 0.02251 0.64792-0.1447 1.5347-0.53125 2.4375-0.2725 0.63644-0.61765 1.1618-1 1.625a1.0516 1.0516 0 0 0 -0.21875 0.4375c-0.13696 0.63452-0.21944 1.1164-0.375 1.7812-0.0084 0.03588-0.02241 0.05671-0.03125 0.09375-0.19661 0.54609-0.74828 1.566-1.4375 2.6875-0.71127 1.1573-1.5485 2.4421-2.2812 3.5625a1.0516 1.0516 0 0 0 -0.1875 0.5c-0.09791 1.5448-0.0368 3.082 0.15625 4.6562a1.0516 1.0516 0 0 0 0.34375 0.65625c2.5534 2.2009 6.6999 3.6889 10.219 5.125 1.7594 0.71805 3.3593 1.4266 4.4375 2.0938 0.53908 0.33357 0.95956 0.64252 1.1875 0.90625s0.24937 0.41906 0.25 0.53125a1.0516 1.0516 0 0 0 0.03 0.157l1.562 10.094c0 0.49821-0.43142 1.2148-1.6875 2-1.2561 0.78522-3.2047 1.5257-5.5938 2.1562a1.0516 1.0516 0 0 0 -0.71875 0.75l-0.8125 2.9062-0.03125 0.03125c-0.0095 0.02386-0.0015 0.03464 0 0.03125 0.0015-0.0034-0.0204-0.02329-0.03125 0-0.0217 0.04658 0.02427 0.01721 0 0.0625s-0.0045-0.01261-0.03125 0.03125c-0.02676 0.04386-0.0021-0.01105-0.03125 0.03125-0.03147 0.04061 0.0024-0.0075-0.03125 0.03125-0.03367 0.03879 0.0045-0.0056-0.03125 0.03125-0.03578 0.03686 0.0065-0.0036-0.03125 0.03125-0.03776 0.03481 0.0084-0.0014-0.03125 0.03125-0.01982 0.01633-0.01013 0.03132 0 0.03125-0.04138 0.03042 0.01175-0.02808-0.03125 0s0.01323 0.0056-0.03125 0.03125-0.01667 0.0081-0.0625 0.03125 0.01579-0.02059-0.03125 0 0.01685-0.01796-0.03125 0a1.0516 1.0516 0 0 0 0 0.03125c-0.59102 0.22658-0.4568 0.30816-0.90625 0.4375-3.0705 0.88363-7.9692 1.5-13.406 1.5-5.437 0-10.303-0.61587-13.375-1.5-0.44-0.125-0.254-0.198-0.875-0.436a1.0516 1.0516 0 0 0 -0.03125 -0.03125c-0.05173-0.01761 0.01936 0.02062-0.03125 0s-0.01318-0.0077-0.0625-0.03125c-0.04932-0.02356 0.0166 0.02642-0.03125 0s0.01496-0.0021-0.03125-0.03125c-0.04621-0.02919 0.01317 0.000613-0.03125-0.03125-0.04442-0.03186 0.01121 0.0032-0.03125-0.03125-0.02123-0.01721-0.03379-0.0089-0.03125 0-0.04036-0.03688 0.0069 0.008-0.03125-0.03125-0.03811-0.0392 0.0045 0.01014-0.03125-0.03125 0.0086 0.0028 0.01661-0.0095 0-0.03125-0.03322-0.04344-0.000663 0.01408-0.03125-0.03125-0.03059-0.04533-0.0034 0.01582-0.03125-0.03125s0.025 0.01739 0-0.03125-0.0092 0.0188-0.03125-0.03125c-0.01103-0.02502-0.0015-0.0349 0-0.03125v-0.03125c-0.01905-0.05127-0.01528 0.02107-0.03125-0.03125l-0.6875-2.7188a1.0516 1.0516 0 0 0 -0.78125 -0.78125c-2.4447-0.63047-4.3864-1.4094-5.6562-2.2188-1.2698-0.80938-1.7188-1.5423-1.7188-2.0625l1.562-10.095a1.0516 1.0516 0 0 0 0.031 -0.156c-0.0021-0.45661 0.38442-1.029 1.4375-1.7188 1.0531-0.68974 2.6277-1.3741 4.375-2.0625 3.4946-1.3768 7.627-2.7123 10.219-4.8438a1.0516 1.0516 0 0 0 0.375 -0.625c0.34011-1.9656 0.32273-3.7045 0.15625-5.4062a1.0516 1.0516 0 0 0 -0.1875 -0.53125c-0.80026-1.0575-1.6506-2.2005-2.3438-3.2188-0.6931-1.0182-1.2305-1.9767-1.375-2.4062-0.12136-0.55822-0.20229-0.99513-0.3125-1.5312a1.0516 1.0516 0 0 0 -0.25 -0.5c-0.02327-0.02521-0.04683-0.0175-0.0625-0.03125-0.4398-0.49044-0.85472-1.077-1.1562-1.7812-0.40727-0.95119-0.56843-1.9192-0.53125-2.5938 0.03718-0.67456 0.27681-0.91864 0.3125-0.9375a1.0516 1.0516 0 0 0 0.5625 -1.0312c-0.0681-0.80747-0.07798-1.5479-0.09375-2.25 0-0.01053-0.000036-0.02072 0-0.03125 0.01844-5.4578 4.8043-9.9375 10.844-9.9375z"/>
  <path id="path3682" style="opacity:.5;enable-background:new" d="m-43 16c-6.5781 0-11.906 4.9455-11.906 11.031 0.0048 0.20934 0.02565 0.42984 0.03125 0.65625 0.199-5.924 5.423-10.687 11.875-10.687 6.3839 0 11.573 4.6631 11.875 10.5 0.0071-0.14912 0.02633-0.32531 0.03125-0.46875 0-6.085-5.328-11.031-11.906-11.031zm-11.875 13.406c-0.6096 0.37012-0.87378 1.329-0.78125 2.5 0.09528-0.72212 0.38782-1.2903 0.84375-1.5312-0.02837-0.3364-0.04907-0.65537-0.0625-0.96875zm23.688 0.1875c-0.0211 0.32076-0.03894 0.60183-0.0625 0.9375 0.40783 0.30343 0.62969 0.89343 0.6875 1.625 0.13658-1.1547-0.0914-2.1058-0.625-2.5625zm-18.188 17.156c-0.02908 0.73555-0.0793 1.5066-0.21875 2.3125-4.6224 3.8014-16.455 5.5021-16.438 9.4375l-1.593 10.25c0 0.17361 0.0199 0.32907 0.0625 0.5l1.5312-9.75c-0.01772-3.9354 11.815-5.6361 16.438-9.4375 0.20342-1.1756 0.23527-2.2656 0.21875-3.3125zm12.781 0.40625c-0.0082 0.9636 0.03649 1.9296 0.15625 2.9062 4.5658 3.9354 16.45 6.0693 16.469 9.4375l1.5312 9.75c0.0422-0.16803 0.0625-0.32884 0.0625-0.5l-1.593-10.25c-0.01886-3.3682-11.903-5.5021-16.469-9.4375-0.07832-0.63868-0.13563-1.2741-0.15625-1.9062z"/>
  <path id="path3705" style="opacity:.5;enable-background:new;fill:#fff" d="m-31.125 27.5c-0.03069 0.64597-0.07398 1.3042-0.125 2.0312 0.02247 0.01672 0.04105 0.04415 0.0625 0.0625 0.03516-0.53438 0.07734-1.0846 0.09375-1.5625 0-0.17965-0.02206-0.35371-0.03125-0.53125zm-23.75 0.1875c-0.0039 0.11558-0.03125 0.2273-0.03125 0.34375 0.0098 0.42698 0.01005 0.88025 0.03125 1.375 0.0193-0.01172 0.04253-0.0207 0.0625-0.03125-0.0512-0.60711-0.04943-1.1596-0.0625-1.6875zm-0.78125 4.2812c-0.10649 0.91862 0.0832 2.0888 0.59375 3.2812 0.35807 0.83628 0.85025 1.5122 1.3438 2.0625 0.01645 0.0184 0.04595 0.04457 0.0625 0.0625 0.1178 0.573 0.20129 1.0099 0.34375 1.6562 0.44133 1.3124 2.2691 3.7841 3.875 5.9062 0.05904 0.60356 0.05285 1.2011 0.0625 1.8125 0.03812-0.964 0.02834-1.8839-0.0625-2.8125-1.6059-2.1222-3.4337-4.5938-3.875-5.9062-0.14246-0.64634-0.22595-1.0832-0.34375-1.6562-0.01655-0.01793-0.04605-0.0441-0.0625-0.0625-0.4935-0.55032-0.98568-1.2262-1.3438-2.0625-0.3387-0.79103-0.53052-1.5717-0.59375-2.2812zm25.094 0.1875c-0.07751 0.65529-0.25123 1.3668-0.5625 2.0938-0.31828 0.74336-0.72508 1.3526-1.1562 1.875-0.13946 0.64609-0.22668 1.1538-0.40625 1.9062-0.48858 1.4529-2.4149 4.3299-3.875 6.5625-0.0212 0.33454 0.0099 0.66525 0 1 1.4601-2.2326 3.3864-5.1096 3.875-6.5625 0.17957-0.75242 0.26679-1.2602 0.40625-1.9062 0.43116-0.52238 0.83797-1.1316 1.1562-1.875 0.48169-1.125 0.63209-2.2131 0.5625-3.0938zm-37 37.094-0.0625 0.5c0 2.0964 3.1583 4.0155 8.1875 5.3125l0.71875 2.7812a1.7296 1.7144 0 0 0 1.0938 1.125c0.22323 0.08562 0.35696 0.29269 0.96875 0.46875 3.22 0.928 8.136 1.563 13.654 1.563 5.5177 0 10.465-0.63506 13.688-1.5625 0.61179-0.17606 0.77678-0.38317 1-0.46875a1.7296 1.7144 0 0 0 1.0312 -1.0625l0.84375-2.9688c4.9063-1.2949 8.0625-3.1206 8.0625-5.1875l-0.0625-0.5c-0.46743 1.861-3.5 3.4998-8 4.6875l-0.84375 2.9688a1.7296 1.7144 0 0 1 -1.0312 1.0625c-0.22322 0.08558-0.38821 0.29269-1 0.46875-3.224 0.926-8.171 1.561-13.689 1.561-5.5177 0-10.434-0.63506-13.656-1.5625-0.61179-0.17606-0.74552-0.38313-0.96875-0.46875a1.7296 1.7144 0 0 1 -1.0938 -1.125l-0.719-2.782c-4.6127-1.1896-7.6532-2.9194-8.125-4.8125z"/>
  <path id="path2889" style="enable-background:new;fill:url(#linearGradient2902)" d="m-67.688 24c-4.9336 0-8.9375 3.6857-8.9375 8.25 0.01199 0.52308 0.0076 1.1306 0.0625 1.7812-0.78078 0.41258-0.88394 2.0297-0.1875 3.6562 0.26855 0.62721 0.62988 1.1498 1 1.5625 0.01233 0.0138 0.05009 0.01781 0.0625 0.03125 0.08835 0.42975 0.14315 0.76524 0.25 1.25 0.331 0.9843 1.7018 2.8459 2.9062 4.4375 0.12011 1.2278 0.11666 2.4159-0.125 3.8125-3.4668 2.8511-12.326 4.1422-12.312 7.0938l-1.1875 7.6875c0 1.5723 2.3531 2.996 6.125 3.9688l0.531 2.094a1.2972 1.2858 0 0 0 0.8125 0.875c0.16742 0.06421 0.29116 0.18046 0.75 0.3125 2.3037 0.66295 5.786 1.1135 9.6875 1.1562-0.82286-0.88581-1.375-1.9423-1.375-3.2188a2.0082 2.0082 0 0 1 0.03125 -0.3125l1.563-9.938 0.031-0.312h0.0625c0.14866-1.7991 1.3855-3.0955 2.7188-3.9688 1.4196-0.92983 3.1332-1.6329 4.9375-2.3438 0.59055-0.23267 1.1894-0.48327 1.7812-0.71875-1.6607-0.715-3.2354-1.4735-4.2812-2.375-0.13864-1.1306-0.13308-2.2302-0.0625-3.3438 1.0951-1.6744 2.5086-3.8166 2.875-4.9062 0.13468-0.56432 0.2079-0.95293 0.3125-1.4375 0.32337-0.39179 0.60504-0.84873 0.84375-1.4062 0.66138-1.5446 0.61156-3.0297-0.0625-3.5312 0.0471-0.67116 0.10531-1.3326 0.125-1.9062 0.000003-4.5643-4.0039-8.25-8.9375-8.25z"/>
  <path id="path2904" style="opacity:.5;enable-background:new" d="m-67.688 24c-4.9336 0-8.9375 3.6857-8.9375 8.25 0.0034 0.14697 0.02879 0.34061 0.03125 0.5 0.28179-4.3287 4.1556-7.75 8.9062-7.75 4.705 0 8.5588 3.3555 8.9062 7.625 0.0065-0.11919 0.02737-0.26202 0.03125-0.375 0.000003-4.5643-4.0039-8.25-8.9375-8.25zm-8.9062 10.062c-0.48213 0.28754-0.69253 1.0617-0.59375 2 0.08435-0.48969 0.30579-0.86257 0.625-1.0312-0.02985-0.35381-0.02429-0.64707-0.03125-0.96875zm17.781 0.15625c-0.02264 0.31611-0.03933 0.6074-0.0625 0.9375 0.24093 0.17926 0.42254 0.48662 0.5 0.875 0.08262-0.80734-0.06662-1.4763-0.4375-1.8125zm-13.656 12.657c-0.01837 0.60633-0.07055 1.2304-0.1875 1.9062-3.4668 2.8511-12.326 4.1422-12.312 7.0938l-1.1875 7.6875c0 0.1663 0.01096 0.33738 0.0625 0.5l1.125-7.1875c-0.01329-2.9516 8.8457-4.2427 12.312-7.0938 0.18125-1.0475 0.22588-1.9887 0.1875-2.9062zm9.5938 0.5625c-0.01684 0.77444-0.003 1.5544 0.09375 2.3438 0.79004 0.68097 1.8911 1.2831 3.0938 1.8438 0.39505-0.16016 0.7941-0.31224 1.1875-0.46875-1.6607-0.715-3.2354-1.4735-4.2812-2.375-0.05518-0.45001-0.07926-0.90074-0.09375-1.3438zm-6.6875 21.906-0.03125 0.09375a2.0082 2.0082 0 0 0 -0.032 0.312c0 0.81779 0.24573 1.5373 0.625 2.1875 0.25345 0.0063 0.49268 0.02843 0.75 0.03125-0.69018-0.74297-1.1693-1.6128-1.3125-2.625z"/>
  <path id="path3699" style="opacity:.1;enable-background:new" d="m-67.688 24c-4.9336 0-8.9375 3.6857-8.9375 8.25 0.01199 0.52308 0.0076 1.1306 0.0625 1.7812-0.78078 0.41258-0.88394 2.0297-0.1875 3.6562 0.26855 0.62721 0.62988 1.1498 1 1.5625 0.01233 0.0138 0.05009 0.01781 0.0625 0.03125 0.08835 0.42975 0.14315 0.76524 0.25 1.25 0.331 0.9843 1.7018 2.8459 2.9062 4.4375 0.12011 1.2278 0.11666 2.4159-0.125 3.8125-3.4668 2.8511-12.326 4.1422-12.312 7.0938l-1.1875 7.6875c0 1.5723 2.3531 2.996 6.125 3.9688l0.531 2.094a1.2972 1.2858 0 0 0 0.8125 0.875c0.16742 0.06421 0.29116 0.18046 0.75 0.3125 2.3037 0.66295 5.786 1.1135 9.6875 1.1562-0.82286-0.88581-1.375-1.9423-1.375-3.2188a2.0082 2.0082 0 0 1 0.03125 -0.3125l1.563-9.938 0.031-0.312h0.0625c0.14866-1.7991 1.3855-3.0955 2.7188-3.9688 1.4196-0.92983 3.1332-1.6329 4.9375-2.3438 0.59055-0.23267 1.1894-0.48327 1.7812-0.71875-1.6607-0.715-3.2354-1.4735-4.2812-2.375-0.13864-1.1306-0.13308-2.2302-0.0625-3.3438 1.0951-1.6744 2.5086-3.8166 2.875-4.9062 0.13468-0.56432 0.2079-0.95293 0.3125-1.4375 0.32337-0.39179 0.60504-0.84873 0.84375-1.4062 0.66138-1.5446 0.61156-3.0297-0.0625-3.5312 0.0471-0.67116 0.10531-1.3326 0.125-1.9062 0.000003-4.5643-4.0039-8.25-8.9375-8.25zm0 1.9375c3.9463 0 6.9632 2.8443 7 6.25 0.000227 0.02097 0 0.04149 0 0.0625-0.01886 0.48732-0.07796 1.111-0.125 1.7812a1.9338 1.9338 0 0 0 0.5 1.4375c0.0018-0.0028 0.02887-0.01259 0.03125 0.09375 0.0062 0.27813-0.07698 0.82494-0.3125 1.375-0.17256 0.40302-0.35808 0.68984-0.5625 0.9375a1.9338 1.9338 0 0 0 -0.375 0.8125c-0.09577 0.4437-0.18434 0.79658-0.28125 1.2188-0.06582 0.19573-0.45856 1.0052-0.96875 1.8438-0.51019 0.83853-1.1381 1.785-1.6875 2.625a1.9338 1.9338 0 0 0 -0.3125 0.9375c-0.07525 1.1874-0.06409 2.4316 0.09375 3.7188a1.9338 1.9338 0 0 0 0.65625 1.2188c0.33508 0.28882 0.72307 0.50449 1.0938 0.75-1.1376 0.48867-2.3049 0.91332-3.3438 1.5938-1.4352 0.94004-2.9346 2.4939-3.4062 4.6562a1.9338 1.9338 0 0 0 -0.25 0.75l-0.031 0.31-1.531 9.813a1.9338 1.9338 0 0 0 0 0.625h-0.0625c0 0.38599 0.18139 0.70158 0.25 1.0625-2.4359-0.18384-4.6623-0.4318-6.0938-0.84375-0.13705-0.03944-0.26238-0.12476-0.3125-0.15625l-0.4375-1.75a1.9338 1.9338 0 0 0 -1.4062 -1.4062c-1.7592-0.45369-3.1204-1.0314-3.9062-1.5312-0.5894-0.37488-0.72325-0.60904-0.75-0.625l1.1562-7.3438a1.9338 1.9338 0 0 0 0.03125 -0.1875c0.0056 0.0361 0.07383-0.11609 0.5625-0.4375 0.65156-0.42854 1.7755-0.92778 3.0625-1.4375 2.5741-1.0194 5.7219-1.9647 7.9688-3.8125a1.9338 1.9338 0 0 0 0.687 -1.155c0.27255-1.5751 0.28848-2.9921 0.15625-4.3438a1.9338 1.9338 0 0 0 -0.406 -0.969c-0.59633-0.78801-1.2204-1.641-1.7188-2.375-0.49835-0.73396-0.84916-1.4544-0.875-1.5312-0.06836-0.331-0.10816-0.61407-0.1875-1a1.9338 1.9338 0 0 0 -0.5 -0.9375c-0.01653-0.0179-0.01533 0.01675-0.03125 0-0.0087-0.0097-0.02258-0.02137-0.03125-0.03125-0.23706-0.26997-0.45666-0.60684-0.625-1-0.24336-0.56837-0.32812-1.1541-0.3125-1.4375a1.9338 1.9338 0 0 0 0.65625 -1.625c-0.04483-0.53132-0.05027-1.0681-0.0625-1.625 0-0.01051-0.000057-0.02076 0-0.03125 0.01849-3.4196 3.0416-6.2812 7-6.2812z"/>
  <path id="path3685" style="opacity:.5;enable-background:new;fill:#fff" d="m-58.781 32.625c-0.02645 0.486-0.05593 0.99227-0.09375 1.5312 0.02407 0.01791 0.04002 0.04212 0.0625 0.0625 0.02339-0.3266 0.0525-0.67726 0.0625-0.96875 0-0.21141-0.01438-0.41764-0.03125-0.625zm-17.812 0.125c-0.01085 0.16665-0.03125 0.33079-0.03125 0.5 0.0055 0.23862 0.02541 0.54265 0.03125 0.8125 0.01258-0.0075 0.0183-0.0244 0.03125-0.03125-0.03947-0.46782-0.02495-0.87336-0.03125-1.2812zm-0.59375 3.3125c-0.12196 0.70806 0.02579 1.6635 0.4375 2.625 0.26855 0.62721 0.62988 1.1498 1 1.5625 0.01233 0.0138 0.05009 0.01781 0.0625 0.03125 0.08835 0.42975 0.14315 0.76524 0.25 1.25 0.331 0.9843 1.7018 2.8459 2.9062 4.4375 0.02797 0.28588 0.04938 0.55904 0.0625 0.84375 0.01606-0.62507-0.0024-1.2298-0.0625-1.8438-1.2045-1.5916-2.5753-3.4532-2.9062-4.4375-0.10685-0.48476-0.16165-0.82025-0.25-1.25-0.01241-0.01344-0.05017-0.01745-0.0625-0.03125-0.37012-0.41274-0.73145-0.93529-1-1.5625-0.24206-0.56533-0.3835-1.1121-0.4375-1.625zm18.812 0.03125c-0.05765 0.49807-0.19908 1.0369-0.4375 1.5938-0.23871 0.55752-0.52038 1.0145-0.84375 1.4062-0.1046 0.48457-0.17782 0.87318-0.3125 1.4375-0.36644 1.0897-1.7799 3.2318-2.875 4.9062-0.04249 0.67036-0.05316 1.33-0.03125 2 0.0073-0.33478 0.0099-0.6639 0.03125-1 1.0951-1.6744 2.5086-3.8166 2.875-4.9062 0.13468-0.56432 0.2079-0.95293 0.3125-1.4375 0.32337-0.39179 0.60504-0.84873 0.84375-1.4062 0.41336-0.9654 0.55853-1.9005 0.4375-2.5938zm-1.313 15.532c-0.19933 0.08082-0.3957 0.17197-0.59375 0.25-1.8043 0.71087-3.5179 1.4139-4.9375 2.3438-1.3332 0.87324-2.5701 2.1697-2.7188 3.9688h-0.0625l-0.03125 0.3125-1.5625 9.9375a2.0082 2.0082 0 0 0 -0.031 0.312c0 0.20583 0.03497 0.39916 0.0625 0.59375l1.531-9.844 0.031-0.312h0.0625c0.14866-1.7991 1.3855-3.0955 2.7188-3.9688 1.4196-0.92983 3.1332-1.6329 4.9375-2.3438 0.59055-0.23267 1.1894-0.48327 1.7812-0.71875-0.40624-0.1749-0.79804-0.34969-1.1875-0.53125zm-26.406 12.438-0.0625 0.5c0 1.5723 2.3531 2.996 6.125 3.9688l0.531 2.093a1.2972 1.2858 0 0 0 0.8125 0.875c0.16742 0.06421 0.29116 0.18046 0.75 0.3125 2.3037 0.66295 5.786 1.1135 9.6875 1.1562-0.29567-0.31829-0.53729-0.6666-0.75-1.0312-3.5895-0.08941-6.7858-0.50577-8.9375-1.125-0.45884-0.13204-0.58258-0.24829-0.75-0.3125a1.2972 1.2858 0 0 1 -0.812 -0.875l-0.53125-2.0938c-3.373-0.86986-5.6267-2.0939-6.0625-3.4688z"/>
  <path id="path3694" style="opacity:.15;enable-background:new" d="m-67.688 24c-4.9336 0-8.9375 3.6857-8.9375 8.25 0.01199 0.52308 0.0076 1.1306 0.0625 1.7812-0.78078 0.41258-0.88394 2.0297-0.1875 3.6562 0.26855 0.62721 0.62988 1.1498 1 1.5625 0.01233 0.0138 0.05009 0.01781 0.0625 0.03125 0.08835 0.42975 0.14315 0.76524 0.25 1.25 0.331 0.9843 1.7018 2.8459 2.9062 4.4375 0.12011 1.2278 0.11666 2.4159-0.125 3.8125-3.4668 2.8511-12.326 4.1422-12.312 7.0938l-1.1875 7.6875c0 1.5723 2.3531 2.996 6.125 3.9688l0.531 2.094a1.2972 1.2858 0 0 0 0.8125 0.875c0.16742 0.06421 0.29116 0.18046 0.75 0.3125 2.3037 0.66295 5.786 1.1135 9.6875 1.1562-0.82286-0.88581-1.375-1.9423-1.375-3.2188a2.0082 2.0082 0 0 1 0.03125 -0.3125l1.563-9.938 0.031-0.312h0.0625c0.14866-1.7991 1.3855-3.0955 2.7188-3.9688 1.4196-0.92983 3.1332-1.6329 4.9375-2.3438 0.59055-0.23267 1.1894-0.48327 1.7812-0.71875-1.6607-0.715-3.2354-1.4735-4.2812-2.375-0.13864-1.1306-0.13308-2.2302-0.0625-3.3438 1.0951-1.6744 2.5086-3.8166 2.875-4.9062 0.13468-0.56432 0.2079-0.95293 0.3125-1.4375 0.32337-0.39179 0.60504-0.84873 0.84375-1.4062 0.66138-1.5446 0.61156-3.0297-0.0625-3.5312 0.0471-0.67116 0.10531-1.3326 0.125-1.9062 0.000003-4.5643-4.0039-8.25-8.9375-8.25zm0 1c4.4215 0 7.919 3.2562 7.9375 7.2188 0.000049 0.01052 0 0.02072 0 0.03125-0.01921 0.5274-0.07787 1.1722-0.125 1.8438a1.0047 1.0047 0 0 0 0.40625 0.875c-0.03445-0.02563 0.11502 0.14798 0.125 0.59375 0.01 0.44577-0.12501 1.0619-0.40625 1.7188-0.20434 0.47725-0.42593 0.87059-0.6875 1.1875a1.0047 1.0047 0 0 0 -0.186 0.406c-0.10038 0.46504-0.16728 0.85675-0.28125 1.3438-0.0031 0.01319-0.0281 0.01787-0.03125 0.03125-0.0032 0.0091 0.0035 0.05295 0 0.0625-0.14123 0.3835-0.56193 1.1148-1.0625 1.9375-0.52262 0.85896-1.139 1.7863-1.6875 2.625a1.0047 1.0047 0 0 0 -0.15625 0.5c-0.07301 1.1519-0.08612 2.3193 0.0625 3.5312a1.0047 1.0047 0 0 0 0.34375 0.625c0.70061 0.60389 1.7121 1.0052 2.625 1.4688-1.7565 0.6935-3.4788 1.3991-4.9688 2.375-1.3116 0.85907-2.4956 2.2575-2.9062 4.0938a1.0047 1.0047 0 0 0 -0.312 0.625l-0.03125 0.25v0.0625l-1.5625 9.875a1.0047 1.0047 0 0 0 0.0625 0.46875h-0.09375c0 0.76139 0.19003 1.4549 0.46875 2.0938-3.0022-0.14913-5.7264-0.48961-7.5-1-0.35438-0.10198-0.26484-0.13113-0.65625-0.28125a1.0047 1.0047 0 0 0 -0.03125 0c-0.04326-0.01546 0.01102 0.01802-0.03125 0 0.01042-0.003 0.02056-0.02099 0-0.03125-0.04112-0.02051 0.0086 0.02294-0.03125 0-0.03839-0.02528 0.0056-0.0037-0.03125-0.03125-0.0351-0.0297 0.002 0.03176-0.03125 0-0.03326-0.03176 0.0313 0.0025 0-0.03125-0.02922-0.03553-0.0042 0.006-0.03125-0.03125-0.02236-0.04023 0.0199 0.01026 0-0.03125-0.0099-0.02076-0.02809-0.01052-0.03125 0-0.01735-0.04264 0.01475 0.01237 0-0.03125l-0.53125-2.0938a1.0047 1.0047 0 0 0 -0.71875 -0.71875c-1.8201-0.46939-3.27-1.0415-4.1875-1.625-0.8952-0.56939-1.1435-1.0559-1.1562-1.3438l1.1562-7.5625a1.0047 1.0047 0 0 0 0 -0.15625c-0.0011-0.23505 0.20607-0.62337 0.96875-1.125s1.9456-1.0146 3.25-1.5312c2.6088-1.0332 5.7186-2.0113 7.7188-3.6562a1.0047 1.0047 0 0 0 0.375 -0.625c0.25771-1.4893 0.25141-2.7703 0.125-4.0625a1.0047 1.0047 0 0 0 -0.1875 -0.5c-0.59916-0.79176-1.2342-1.6466-1.75-2.4062-0.49124-0.72349-0.88443-1.3545-1-1.6562-0.005-0.02264 0.0048-0.04048 0-0.0625-0.0022-0.0062-0.02929-0.02543-0.03125-0.03125-0.08689-0.40576-0.13344-0.71002-0.21875-1.125a1.0047 1.0047 0 0 0 -0.21875 -0.5c-0.06865-0.07435-0.04352-0.02163-0.09375-0.0625-0.29122-0.33347-0.57147-0.76005-0.78125-1.25-0.29374-0.68604-0.43182-1.3485-0.40625-1.8125 0.02557-0.46396 0.19781-0.60097 0.125-0.5625a1.0047 1.0047 0 0 0 0.53125 -0.96875c-0.04921-0.58316-0.05075-1.1497-0.0625-1.6875 0-0.01053-0.000049-0.02073 0-0.03125 0.019-3.964 3.517-7.22 7.938-7.22z"/>
  <path id="path3159" style="fill:url(#linearGradient3886)" d="m56 24c-7.1156 0-12.818 5.3588-12.818 12 0.01605 0.7072 0.06889 1.7294 0.13637 2.5909-1.2168 0.51643-1.3056 2.8846-0.27273 5.3182 0.40958 0.96505 0.93124 1.706 1.5 2.3182 0.13819 0.68394 0.10193 0.99099 0.27272 1.7727 0.4766 1.4298 2.3556 4.232 4.0909 6.5455 0.17016 1.7767 0.34667 3.5697 0 5.5909-5.0001 4.1484-17.883 5.9327-17.864 10.227l-0.272 1.636h50.454l-0.272-1.636c-0.021-3.676-12.925-5.933-17.864-10.228-0.2-1.644-0.238-3.289-0.136-4.909 1.581-2.44 3.696-5.634 4.227-7.227 0.19078-0.80644 0.26022-1.3511 0.40909-2.0455 0.47382-0.57394 0.87824-1.2231 1.2273-2.0455 0.98122-2.3119 0.9178-4.5189-0.13635-5.1818 0.06215-0.9315 0.10898-1.9227 0.13635-2.7273 0-6.641-5.702-12-12.818-12z"/>
  <path id="path3079" style="opacity:.6;fill:url(#linearGradient3081)" d="m31.594 36c-4.7437 0-8.5625 3.5725-8.5625 8 0.01067 0.47147 0.04877 1.1444 0.09375 1.7188-0.8112 0.34429-0.84483 1.9401-0.15625 3.5625 0.27306 0.64337 0.62083 1.1232 1 1.5312 0.09213 0.45596 0.04239 0.66634 0.15625 1.1875 0.31773 0.9532 1.5931 2.8327 2.75 4.375 0.11344 1.1845 0.23112 2.3713 0 3.7188-3.3334 2.7656-11.919 3.9494-11.906 6.8125l-0.188 1.094h17.719c2.1694-1.7092 6.4061-3.0656 10.281-4.625-2.3852-0.9563-4.9725-1.9801-6.4688-3.2812-0.13322-1.096-0.16147-2.2018-0.09375-3.2812 1.0541-1.6268 2.4586-3.7508 2.8125-4.8125 0.12719-0.53763 0.182-0.91208 0.28125-1.375 0.31588-0.38262 0.57981-0.79549 0.8125-1.3438 0.65415-1.5413 0.60902-3.0268-0.09375-3.4688 0.04144-0.621 0.07549-1.2761 0.09375-1.8125-0.000001-4.4275-3.7875-8-8.5312-8z"/>
  <path id="path3854" style="opacity:.5;fill:#fff" d="m43.219 36.5c-0.0074 0.16863-0.03125 0.32962-0.03125 0.5 0.01006 0.44327 0.06357 1.0505 0.09375 1.625 0.01311-0.0061 0.01787-0.02557 0.03125-0.03125-0.05446-0.69531-0.07286-1.4385-0.09375-2.0938zm25.562 0.03125c-0.02514 0.69625-0.04375 1.4381-0.09375 2.1875 0.01252 0.0079 0.01901 0.02294 0.03125 0.03125 0.0293-0.60453 0.07613-1.2319 0.09375-1.75 0-0.15977-0.02472-0.31052-0.03125-0.46875zm-26.437 4.844c-0.08524 0.98521 0.1406 2.2427 0.6875 3.5312 0.40958 0.96505 0.93124 1.7004 1.5 2.3125 0.13819 0.68394 0.11046 0.99951 0.28125 1.7812 0.4766 1.4298 2.3585 4.2178 4.0938 6.5312 0.07447 0.77753 0.15498 1.5729 0.1875 2.375 0.01439-1.1584-0.08258-2.2795-0.1875-3.375-1.736-2.313-3.618-5.101-4.095-6.531-0.17079-0.78174-0.14306-1.0973-0.28125-1.7812-0.56876-0.61214-1.0904-1.3475-1.5-2.3125-0.37329-0.87952-0.60895-1.7541-0.6875-2.5312zm27.125 0.0625c-0.07899 0.76257-0.28829 1.6018-0.65625 2.4688-0.34904 0.82239-0.74493 1.4886-1.2188 2.0625-0.14887 0.69438-0.21547 1.2248-0.40625 2.0312-0.53084 1.5925-2.6375 4.7786-4.2188 7.2188-0.04623 0.73696-0.07365 1.4741-0.0625 2.2188 0.0087-0.40743 0.03711-0.81394 0.0625-1.2188 1.5812-2.4402 3.6879-5.6262 4.2188-7.2188 0.19078-0.80644 0.25738-1.3369 0.40625-2.0312 0.47382-0.57394 0.86971-1.2401 1.2188-2.0625 0.53747-1.2664 0.7337-2.5003 0.65625-3.4688zm-46.407 2.968c-0.01567 0.1985-0.03125 0.39142-0.03125 0.59375 0.0047 0.20559 0.01787 0.49267 0.03125 0.75 0.01978-0.01045 0.0417-0.02242 0.0625-0.03125-0.03433-0.43842-0.04532-0.89264-0.0625-1.3125zm17.031 0.03125c-0.01926 0.44353-0.03107 0.90405-0.0625 1.375 0.0251 0.01578 0.03908 0.0441 0.0625 0.0625 0.01521-0.29682 0.02244-0.61626 0.03125-0.875 0-0.1917-0.01728-0.37423-0.03125-0.5625zm-17.562 3.25c-0.10986 0.68763 0.02999 1.6336 0.4375 2.5938 0.27306 0.64337 0.62083 1.1232 1 1.5312 0.09213 0.45596 0.04239 0.66634 0.15625 1.1875 0.31773 0.9532 1.5931 2.8327 2.75 4.375 0.05477 0.57191 0.10799 1.1592 0.125 1.75 0.05909-0.95778-0.03992-1.8617-0.125-2.75-1.1569-1.5423-2.4323-3.4218-2.75-4.375-0.11386-0.52116-0.06412-0.73154-0.15625-1.1875-0.37917-0.4081-0.72694-0.88788-1-1.5312-0.23418-0.55176-0.37256-1.0963-0.4375-1.5938zm18 0.09375c-0.06297 0.46994-0.18522 0.97923-0.40625 1.5-0.23269 0.54826-0.49662 0.96113-0.8125 1.3438-0.09925 0.46292-0.15406 0.83737-0.28125 1.375-0.35389 1.0617-1.7584 3.1857-2.8125 4.8125-0.03767 0.6005-0.05452 1.2019-0.03125 1.8125 0.0048-0.2727 0.01431-0.54253 0.03125-0.8125 1.0541-1.6268 2.4586-3.7508 2.8125-4.8125 0.12719-0.53763 0.182-0.91208 0.28125-1.375 0.31588-0.38262 0.57981-0.79549 0.8125-1.3438 0.39167-0.92284 0.50702-1.8292 0.40625-2.5zm-25.593 20.219l-0.15625 1h16.75c0.248-0.347 0.565-0.683 0.968-1h-17.562zm16 4-0.15625 1h50.438l-0.15625-1h-50.125z"/>
  <path id="path3887" style="opacity:.1" d="m56 24c-7.1156 0-12.812 5.3588-12.812 12 0.01605 0.7072 0.05752 1.7323 0.125 2.5938-1.2168 0.51643-1.3141 2.8789-0.28125 5.3125 0.40958 0.96505 0.93124 1.7004 1.5 2.3125 0.13819 0.68394 0.11046 0.99951 0.28125 1.7812 0.4766 1.4298 2.3585 4.2178 4.0938 6.5312 0.17016 1.7767 0.34667 3.5725 0 5.5938-1.5099 1.2527-3.7499 2.2942-6.125 3.25-2.3852-0.9563-4.9725-1.9801-6.4688-3.2812-0.13322-1.096-0.16147-2.2018-0.09375-3.2812 1.0541-1.6268 2.4586-3.7508 2.8125-4.8125 0.12719-0.53763 0.182-0.91208 0.28125-1.375 0.31588-0.38262 0.57981-0.79549 0.8125-1.3438 0.65415-1.5413 0.60902-3.0268-0.09375-3.4688 0.04144-0.621 0.07549-1.2761 0.09375-1.8125-0.000001-4.4275-3.7875-8-8.5312-8s-8.5625 3.5725-8.5625 8c0.01067 0.47147 0.04877 1.1444 0.09375 1.7188-0.8112 0.34429-0.84483 1.9401-0.15625 3.5625 0.27306 0.64337 0.62083 1.1232 1 1.5312 0.09213 0.45596 0.04239 0.66634 0.15625 1.1875 0.31773 0.9532 1.5931 2.8327 2.75 4.375 0.11344 1.1845 0.23112 2.3713 0 3.7188-3.3334 2.7656-11.919 3.9494-11.906 6.8125l-0.189 1.094h17.719c-0.90425 0.71241-1.4727 1.4931-1.4688 2.375l-0.25 1.625h50.438l-0.25-1.625c-0.0205-3.6756-12.936-5.9554-17.875-10.25-0.19983-1.644-0.22657-3.287-0.125-4.9062 1.5812-2.4402 3.6879-5.6262 4.2188-7.2188 0.19078-0.80644 0.25738-1.3369 0.40625-2.0312 0.47382-0.57394 0.86971-1.2401 1.2188-2.0625 0.98122-2.3119 0.92915-4.5246-0.125-5.1875 0.062-0.932 0.097-1.914 0.124-2.719 0-6.641-5.696-12-12.812-12zm0 1.9688c6.1088 0 10.808 4.4764 10.844 9.9688 0.000139 0.02114 0 0.04133 0 0.0625-0.02699 0.78981-0.06704 1.725-0.125 2.5938a1.9585 1.9585 0 0 0 0.781 1.687c0.01137 0.04678 0.05581 0.1891 0.0625 0.46875 0.01338 0.55929-0.16454 1.4686-0.5625 2.4062-0.28957 0.68227-0.56512 1.1493-0.90625 1.5625a1.9585 1.9585 0 0 0 -0.406 0.844c-0.15612 0.72818-0.22786 1.2263-0.375 1.875-0.16028 0.45337-0.75106 1.6118-1.5 2.8438-0.76521 1.2587-1.7051 2.6483-2.5 3.875a1.9585 1.9585 0 0 0 -0.313 0.938c-0.1081 1.7233-0.05992 3.5029 0.15625 5.2812a1.9585 1.9585 0 0 0 0.65625 1.2188c2.9778 2.5894 7.5102 4.1402 11.312 5.6875 1.9011 0.77363 3.6336 1.5482 4.7188 2.2188 0.33764 0.20864 0.45847 0.36286 0.65625 0.53125h-45.219c0.07928-0.1344 0.03511-0.18298 0.4375-0.5a1.9585 1.9585 0 0 0 -1.2188 -3.5h-13.719c0.53455-0.25101 0.91784-0.48625 1.5938-0.75 2.4892-0.97134 5.5531-1.8648 7.75-3.6875a1.9585 1.9585 0 0 0 0.6875 -1.1562c0.28222-1.6455 0.11302-3.0699 0-4.25a1.9585 1.9585 0 0 0 -0.375 -1c-0.556-0.743-1.127-1.557-1.593-2.282-0.448-0.696-0.789-1.33-0.844-1.468-0.03249-0.23458-0.002-0.39134-0.125-1a1.9585 1.9585 0 0 0 -0.46875 -0.96875c-0.26463-0.28482-0.44878-0.5223-0.625-0.9375-0.2381-0.561-0.3126-1.1045-0.3125-1.375a1.9585 1.9585 0 0 0 0.594 -1.594c-0.041-0.53-0.052-1.152-0.062-1.562 0-0.01053-0.000058-0.02074 0-0.03125 0.01806-3.2873 2.8453-6 6.5938-6 3.7365 0 6.5269 2.6867 6.5625 5.9688 0.000228 0.02106 0 0.04139 0 0.0625-0.01775 0.49864-0.05508 1.1081-0.09375 1.6875a1.9585 1.9585 0 0 0 0.5625 1.5c0.0071 0.25402-0.08016 0.79631-0.3125 1.3438-0.16276 0.3835-0.28348 0.58148-0.5 0.84375a1.9585 1.9585 0 0 0 -0.40625 0.84375c-0.10298 0.48034-0.16016 0.81788-0.25 1.2188-0.07574 0.20099-0.4529 0.95287-0.9375 1.75-0.50165 0.82518-1.1249 1.7425-1.6562 2.5625a1.9585 1.9585 0 0 0 -0.312 0.937c-0.07508 1.1968-0.02326 2.4365 0.125 3.6562a1.9585 1.9585 0 0 0 0.65625 1.2188c1.9559 1.7008 4.652 2.6711 7.0312 3.625a1.9585 1.9585 0 0 0 1.4375 0c2.4367-0.98052 4.8244-2.0427 6.6562-3.5625a1.9585 1.9585 0 0 0 0.6875 -1.1562c0.39807-2.3209 0.16984-4.3516 0-6.125a1.9585 1.9585 0 0 0 -0.375 -1c-1.6733-2.2309-3.5225-5.1805-3.7812-5.9062-0.10011-0.52254-0.09398-0.82155-0.25-1.5938a1.9585 1.9585 0 0 0 -0.469 -0.97c-0.4429-0.47669-0.80928-0.97486-1.125-1.7188-0.41875-0.98665-0.59022-1.9692-0.5625-2.5312 0.01271-0.25777 0.03325-0.32335 0.03125-0.34375-0.00018-0.0018 0.000807-0.03069 0-0.03125a1.9585 1.9585 0 0 0 0.937 -1.812c-0.062-0.794-0.078-1.765-0.094-2.438 0-0.01058-0.000035-0.02067 0-0.03125 0.01806-5.5068 4.7232-10 10.844-10z"/>
  <path id="path3878" style="opacity:.15" d="m56 24c-7.1156 0-12.812 5.3588-12.812 12 0.01605 0.7072 0.05752 1.7323 0.125 2.5938-1.2168 0.51643-1.3141 2.8789-0.28125 5.3125 0.40958 0.96505 0.93124 1.7004 1.5 2.3125 0.13819 0.68394 0.11046 0.99951 0.28125 1.7812 0.4766 1.4298 2.3585 4.2178 4.0938 6.5312 0.17016 1.7767 0.34667 3.5725 0 5.5938-1.5099 1.2527-3.7499 2.2942-6.125 3.25-2.3852-0.9563-4.9725-1.9801-6.4688-3.2812-0.13322-1.096-0.16147-2.2018-0.09375-3.2812 1.0541-1.6268 2.4586-3.7508 2.8125-4.8125 0.12719-0.53763 0.182-0.91208 0.28125-1.375 0.31588-0.38262 0.57981-0.79549 0.8125-1.3438 0.65415-1.5413 0.60902-3.0268-0.09375-3.4688 0.04144-0.621 0.07549-1.2761 0.09375-1.8125-0.000001-4.4275-3.7875-8-8.5312-8s-8.5625 3.5725-8.5625 8c0.01067 0.47147 0.04877 1.1444 0.09375 1.7188-0.8112 0.34429-0.84483 1.9401-0.15625 3.5625 0.27306 0.64337 0.62083 1.1232 1 1.5312 0.09213 0.45596 0.04239 0.66634 0.15625 1.1875 0.31773 0.9532 1.5931 2.8327 2.75 4.375 0.11344 1.1845 0.23112 2.3713 0 3.7188-3.3334 2.7656-11.919 3.9494-11.906 6.8125l-0.189 1.094h17.719c-0.90425 0.71241-1.4727 1.4931-1.4688 2.375l-0.25 1.625h50.438l-0.25-1.625c-0.0205-3.6756-12.936-5.9554-17.875-10.25-0.19983-1.644-0.22657-3.287-0.125-4.9062 1.5812-2.4402 3.6879-5.6262 4.2188-7.2188 0.19078-0.80644 0.25738-1.3369 0.40625-2.0312 0.47382-0.57394 0.86971-1.2401 1.2188-2.0625 0.98122-2.3119 0.92915-4.5246-0.125-5.1875 0.062-0.932 0.097-1.914 0.124-2.719 0-6.641-5.696-12-12.812-12zm0 0.96875c6.6154 0 11.826 4.93 11.844 11 0.000032 0.01059 0 0.02065 0 0.03125-0.02718 0.79752-0.06494 1.7561-0.125 2.6562a0.97331 0.97331 0 0 0 0.4375 0.875c0.12011 0.07553 0.35722 0.44423 0.375 1.1875 0.01779 0.74327-0.18043 1.765-0.625 2.8125-0.31948 0.75275-0.65462 1.3184-1.0625 1.8125a0.97331 0.97331 0 0 0 -0.188 0.406c-0.15023 0.70072-0.21318 1.2324-0.375 1.9375-0.000503 0.0022-0.03075-0.0022-0.03125 0-0.20486 0.61457-0.84698 1.814-1.625 3.0938s-1.676 2.6829-2.4688 3.9062a0.97331 0.97331 0 0 0 -0.156 0.468c-0.10482 1.6709-0.08295 3.383 0.125 5.0938a0.97331 0.97331 0 0 0 0.34375 0.625c2.722 2.367 7.2056 3.9432 11.031 5.5 1.9128 0.7784 3.6551 1.5467 4.8438 2.2812 0.59433 0.36727 1.0477 0.7245 1.3125 1.0312 0.26484 0.30675 0.34278 0.51273 0.34375 0.6875a0.97331 0.97331 0 0 0 0 0.15625l0.0625 0.5h-48.125l0.0625-0.5a0.97331 0.97331 0 0 0 -0.001 -0.156c-0.0021-0.4612 0.30524-1.0038 1.0938-1.625a0.97331 0.97331 0 0 0 -0.594 -1.719h-16.562a0.97331 0.97331 0 0 0 0 -0.125c-0.001-0.22908 0.19974-0.58214 0.9375-1.0625s1.8935-0.97599 3.1562-1.4688c2.5256-0.98552 5.5386-1.9299 7.4688-3.5312a0.97331 0.97331 0 0 0 0.344 -0.594c0.25651-1.4956 0.11323-2.7865 0-3.9688a0.97331 0.97331 0 0 0 -0.1875 -0.5c-0.567-0.756-1.171-1.59-1.656-2.343-0.48492-0.75344-0.84149-1.462-0.9375-1.75-0.06315-0.34739-0.01728-0.52937-0.125-1.0625a0.97331 0.97331 0 0 0 -0.25 -0.46875c-0.32225-0.34683-0.58757-0.72002-0.8125-1.25-0.29723-0.70032-0.42284-1.3931-0.40625-1.8438 0.01244-0.33797 0.06994-0.4253 0.0625-0.4375a0.97331 0.97331 0 0 0 0.5625 -0.96875c-0.043-0.548-0.083-1.217-0.094-1.657-0.000202-0.0083 0.000184-0.02313 0-0.03125 0.01822-3.8533 3.3503-7 7.5938-7 4.2434 0 7.5444 3.1421 7.5625 7 0.00005 0.01061 0 0.02063 0 0.03125-0.01801 0.51735-0.05369 1.1497-0.09375 1.75a0.97331 0.97331 0 0 0 0.438 0.875c-0.05667-0.03563 0.11273 0.09349 0.125 0.53125s-0.12625 1.0903-0.40625 1.75c-0.198 0.467-0.39 0.771-0.657 1.094a0.97331 0.97331 0 0 0 -0.1875 0.40625c-0.09896 0.46159-0.14804 0.83326-0.25 1.2812h-0.03125c-0.11638 0.34915-0.51679 1.1537-1.0312 2-0.51446 0.84625-1.127 1.7771-1.6562 2.5938a0.97331 0.97331 0 0 0 -0.156 0.469c-0.07138 1.1378-0.04694 2.3113 0.09375 3.4688a0.97331 0.97331 0 0 0 0.34375 0.625c1.7247 1.4998 4.3365 2.4824 6.7188 3.4375a0.97331 0.97331 0 0 0 0.75 0c2.4057-0.96806 4.7051-2.0208 6.375-3.4062a0.97331 0.97331 0 0 0 0.343 -0.595c0.37221-2.1701 0.17-4.0687 0-5.8438a0.97331 0.97331 0 0 0 -0.1875 -0.5c-1.713-2.283-3.584-5.189-3.938-6.249-0.129-0.632-0.103-0.931-0.25-1.657a0.97331 0.97331 0 0 0 -0.25 -0.469c-0.50621-0.54483-0.94956-1.1761-1.3125-2.0312-0.46789-1.1024-0.66258-2.1756-0.625-2.9375 0.03758-0.76192 0.2493-1.0404 0.375-1.0938a0.97331 0.97331 0 0 0 0.59375 -0.96875c-0.065-0.822-0.11-1.841-0.126-2.531-0.000198-0.0085 0.000191-0.02285 0-0.03125 0.01811-6.07 5.2284-11 11.844-11z"/>
  <path id="path3868" style="opacity:.5" d="m56 24c-7.1156 0-12.812 5.3588-12.812 12 0.0031 0.13642 0.02626 0.34338 0.03125 0.5 0.282-6.404 5.848-11.5 12.781-11.5 6.944 0 12.516 5.112 12.781 11.531 0.006-0.169 0.026-0.374 0.031-0.531 0-6.641-5.696-12-12.812-12zm-24.406 12c-4.7437 0-8.5625 3.5725-8.5625 8 0.0025 0.11157 0.02593 0.27609 0.03125 0.40625 0.327-4.145 4.004-7.406 8.531-7.406 4.5383 0 8.1913 3.2774 8.5 7.4375 0.0061-0.14131 0.02684-0.30789 0.03125-0.4375-0.000001-4.4275-3.7875-8-8.5312-8zm11.688 2.625c-0.7482 0.34946-1.0739 1.4005-0.9375 2.75 0.07574-0.87545 0.39624-1.5383 0.96875-1.7812-0.02518-0.32152-0.01328-0.6267-0.03125-0.96875zm25.438 0.125c-0.01621 0.33433-0.0091 0.63704-0.03125 0.96875 0.4643 0.29197 0.70842 0.88692 0.78125 1.6562 0.11416-1.2175-0.12899-2.2034-0.75-2.625zm-45.656 7c-0.48925 0.25857-0.65236 1.0098-0.53125 1.9375 0.07577-0.47427 0.26263-0.82822 0.59375-0.96875-0.02537-0.32389-0.0452-0.63596-0.0625-0.96875zm17.031 0.125c-0.01633 0.31853-0.04105 0.61604-0.0625 0.9375 0.28199 0.17732 0.43247 0.5192 0.5 0.96875 0.11673-0.87122-0.02674-1.5835-0.4375-1.9062zm22.812 11.781c-0.01552 1.1503 0.04659 2.3095 0.1875 3.4688 4.9388 4.2946 17.854 6.5744 17.875 10.25l0.093 0.625h0.15625l-0.25-1.625c-0.0205-3.6756-12.936-5.9554-17.875-10.25-0.09992-0.82199-0.16853-1.6501-0.1875-2.4688zm-13.812 0.25c-0.0089 0.72028-0.05459 1.4438-0.1875 2.2188-1.5099 1.2527-3.7499 2.2942-6.125 3.25-2.3852-0.9563-4.9725-1.9801-6.4688-3.2812-0.05911-0.48631-0.10644-0.98174-0.125-1.4688-0.01436 0.81768 0.0251 1.6469 0.125 2.4688 1.4963 1.3011 4.0836 2.325 6.4688 3.2812 2.3751-0.95576 4.6151-1.9973 6.125-3.25 0.19496-1.1367 0.22929-2.188 0.1875-3.2188zm-22.095 1.282c-0.0204 0.29991-0.07089 0.59076-0.125 0.90625-3.3334 2.7656-11.919 3.9494-11.906 6.8125l-0.188 1.093h0.157l0.031-0.094c-0.013-2.863 8.573-4.047 11.906-6.812 0.116-0.674 0.14-1.293 0.125-1.906zm4.531 9.812c-0.30978 0.4326-0.50218 0.8857-0.5 1.375l-0.25 1.625h0.15625l0.09375-0.625c-0.004-0.882 0.565-1.663 1.469-2.375h-0.96875z"/>
 </g>
</svg>
