<?xml version="1.0" encoding="UTF-8" standalone="no"?>
<!-- Created with Inkscape (http://www.inkscape.org/) -->
<svg id="svg2" xmlns:rdf="http://www.w3.org/1999/02/22-rdf-syntax-ns#" xmlns="http://www.w3.org/2000/svg" height="16" width="16" version="1.0" xmlns:cc="http://creativecommons.org/ns#" xmlns:xlink="http://www.w3.org/1999/xlink" xmlns:dc="http://purl.org/dc/elements/1.1/">
 <metadata id="metadata7">
  <rdf:RDF>
   <cc:Work rdf:about="">
    <dc:format>image/svg+xml</dc:format>
    <dc:type rdf:resource="http://purl.org/dc/dcmitype/StillImage"/>
    <dc:title/>
   </cc:Work>
  </rdf:RDF>
 </metadata>
 <g id="layer1">
  <path id="rect3139" style="color:#000000;fill:#bebebe" d="m7.5 0c-1.385 0-2.5 1.115-2.5 2.5v7c0 1.385 1.115 2.5 2.5 2.5s2.5-1.115 2.5-2.5v-7c0-1.385-1.115-2.5-2.5-2.5zm-5.5 5v2h1v2.5c0 2.2914 1.7702 4.1824 4 4.4375v1.062h-2v1h5v-1h-2v-1.0625c2.23-0.256 4-2.147 4-4.438v-2.5h1v-2h-1-0.96875v4.5c0 1.7966-1.4029 3.309-3.1562 3.5h-0.75c-1.7532-0.191-3.156-1.703-3.156-3.5v-4.5h-0.9688-1z"/>
 </g>
</svg>
