<?xml version="1.0" encoding="UTF-8" standalone="no"?>
<!-- Created with Inkscape (http://www.inkscape.org/) -->
<svg id="svg2" xmlns:rdf="http://www.w3.org/1999/02/22-rdf-syntax-ns#" xmlns="http://www.w3.org/2000/svg" height="16" width="16" version="1.0" xmlns:cc="http://creativecommons.org/ns#" xmlns:xlink="http://www.w3.org/1999/xlink" xmlns:dc="http://purl.org/dc/elements/1.1/">
 <metadata id="metadata7">
  <rdf:RDF>
   <cc:Work rdf:about="">
    <dc:format>image/svg+xml</dc:format>
    <dc:type rdf:resource="http://purl.org/dc/dcmitype/StillImage"/>
    <dc:title/>
   </cc:Work>
  </rdf:RDF>
 </metadata>
 <g id="layer1" transform="translate(0,-6)">
  <path id="path3929" style="fill:#bebebe" d="m2.5 0c-0.8682-0.03424-1.5763 0.77719-1.5 1.625 0.0037 2.9887-0.01296 4.9803 0 7.9688 0.0379 0.8462 0.8637 1.4752 1.6875 1.4062 1.2759-0.001 2.2736-0.001 3.3125 0h1 4 1c1.143 0.002 0.248 0.005 1.656 0 0.854-0.044 1.447-0.904 1.344-1.7188-0.003-2.9652 0.01-4.9411 0-7.9062-0.031-0.85091-0.869-1.4524-1.688-1.375h-10.812zm0.5 2h10v7h-10v-7z" transform="translate(0,6)"/>
  <path id="path3927" style="opacity:.45;fill:#bebebe" d="m3 8h10v7h-10z"/>
  <path id="rect2932" style="fill:#bebebe" d="m2.6331 18c-0.11151 0.03642-0.21515 0.12492-0.29276 0.25l-2.2166 2.312c-0.30867 0.46-0.058991 1.414 0.37641 1.438h14.973c0.4354-0.02444 0.68508-0.97796 0.37641-1.4375l-2.216-2.312c-0.099-0.15-0.236-0.241-0.377-0.25h-1.2547-1.3383-5.3534-1.3383-1.2547c-0.027831-0.003-0.055816-0.003-0.083647 0z"/>
 </g>
</svg>
