<?xml version="1.0" encoding="UTF-8" standalone="no"?>
<!-- Created with Inkscape (http://www.inkscape.org/) -->
<svg id="svg2408" xmlns:rdf="http://www.w3.org/1999/02/22-rdf-syntax-ns#" xmlns="http://www.w3.org/2000/svg" height="96" width="96" version="1.0" xmlns:cc="http://creativecommons.org/ns#" xmlns:xlink="http://www.w3.org/1999/xlink" xmlns:dc="http://purl.org/dc/elements/1.1/">
 <defs id="defs2410">
  <linearGradient id="ButtonShadow" y2="7.0165" gradientUnits="userSpaceOnUse" x2="45.448" gradientTransform="scale(1.0059 .99417)" y1="92.54" x1="45.448">
   <stop id="stop3750" offset="0"/>
   <stop id="stop3752" style="stop-opacity:.58824" offset="1"/>
  </linearGradient>
  <filter id="filter3174" color-interpolation-filters="sRGB">
   <feGaussianBlur id="feGaussianBlur3176" stdDeviation="1.71"/>
  </filter>
  <filter id="filter3794" height="1.384" width="1.384" color-interpolation-filters="sRGB" y="-.192" x="-.192">
   <feGaussianBlur id="feGaussianBlur3796" stdDeviation="5.28"/>
  </filter>
  <linearGradient id="linearGradient3613" y2="138.66" gradientUnits="userSpaceOnUse" x2="48" y1="20.221" x1="48">
   <stop id="stop3739" style="stop-color:#fff" offset="0"/>
   <stop id="stop3741" style="stop-color:#fff;stop-opacity:0" offset="1"/>
  </linearGradient>
  <linearGradient id="linearGradient3617" y2="-8" gradientUnits="userSpaceOnUse" x2="32" gradientTransform="translate(0,-96)" y1="88" x1="32">
   <stop id="stop4329" style="stop-color:#f0f0f0" offset="0"/>
   <stop id="stop4331" style="stop-color:#b4b4b4" offset="1"/>
  </linearGradient>
  <linearGradient id="ButtonShadow-0" y2="7.0165" gradientUnits="userSpaceOnUse" x2="45.448" gradientTransform="matrix(1.0059 0 0 .99417 100 0)" y1="92.54" x1="45.448">
   <stop id="stop3750-8" offset="0"/>
   <stop id="stop3752-5" style="stop-opacity:.58824" offset="1"/>
  </linearGradient>
  <linearGradient id="linearGradient3780" y2="90.239" xlink:href="#ButtonShadow-0" gradientUnits="userSpaceOnUse" x2="32.251" gradientTransform="matrix(1.0238 0 0 1.0119 -1.1429 -98.071)" y1="6.1317" x1="32.251"/>
  <linearGradient id="linearGradient3721" y2="90.239" xlink:href="#ButtonShadow-0" gradientUnits="userSpaceOnUse" x2="32.251" gradientTransform="translate(0,-97)" y1="6.1317" x1="32.251"/>
  <clipPath id="clipPath4355">
   <rect id="rect4357" style="fill:#fff" rx="6" ry="6" height="80" width="84" y="6" x="6"/>
  </clipPath>
  <radialGradient id="radialGradient4375" gradientUnits="userSpaceOnUse" cy="87.792" cx="48" gradientTransform="matrix(1 -6.7115e-8 8.4282e-8 1.2558 110 -24.506)" r="42">
   <stop id="stop4369" style="stop-color:#fff;stop-opacity:.71756" offset="0"/>
   <stop id="stop4371" style="stop-color:#fff" offset="1"/>
  </radialGradient>
  <linearGradient id="linearGradient4390" y2="-40" gradientUnits="userSpaceOnUse" x2="48" gradientTransform="matrix(1,0,0,-1,0,92)" y1="88" x1="48">
   <stop id="stop4386" style="stop-color:#fff" offset="0"/>
   <stop id="stop4388" style="stop-color:#fff;stop-opacity:0" offset="1"/>
  </linearGradient>
  <linearGradient id="linearGradient3140" y2="88" spreadMethod="reflect" gradientUnits="userSpaceOnUse" x2="48" y1="88" x1="90">
   <stop id="stop3894-4" style="stop-opacity:.58824" offset="0"/>
   <stop id="stop3896-3" style="stop-opacity:.47059" offset=".11780"/>
   <stop id="stop3898-3" style="stop-opacity:.39216" offset=".23810"/>
   <stop id="stop3900-6" style="stop-opacity:.31373" offset="1"/>
  </linearGradient>
  <clipPath id="clipPath3919-4">
   <rect id="rect3921-3" style="fill:#f0f" transform="scale(1,-1)" rx="6.1" ry="6.1" height="76" width="84" y="-82" x="6"/>
  </clipPath>
  <filter id="filter3927-5" height="1.54" width="1.432" color-interpolation-filters="sRGB" y="-0.27" x="-0.216">
   <feGaussianBlur id="feGaussianBlur3929-0" stdDeviation="7.2000001"/>
  </filter>
  <linearGradient id="linearGradient3185" y2="21.555" gradientUnits="userSpaceOnUse" x2="48" gradientTransform="translate(0,2)" y1="62" x1="48">
   <stop id="stop3769" style="stop-color:#4d4d4d;stop-opacity:.70732" offset="0"/>
   <stop id="stop3771" style="stop-color:#4d4d4d;stop-opacity:.31373" offset="1"/>
  </linearGradient>
  <clipPath id="clipPath3824">
   <path id="path3826" style="fill:#fff" d="m16 12c-2.216 0-4 1.784-4 4v52c0 2.216 1.784 4 4 4h64c2.216 0 4-1.784 4-4v-52c0-2.216-1.784-4-4-4h-64zm32 8 2.6562 2.25 18.688 15.625l2.656 2.25-2.656 2.219-13.969 11.718v-8.875l6.031-5.062-13.406-11.25-13.406 11.25 6.0312 5.0625v8.875l-13.969-11.718-2.656-2.219 2.656-2.25 18.688-15.625 2.656-2.25zm-3.75 20.031h7.5v21.969h-7.5v-21.969z"/>
  </clipPath>
  <filter id="filter3810" height="1.5143" width="1.45" color-interpolation-filters="sRGB" y="-.25714" x="-0.225">
   <feGaussianBlur id="feGaussianBlur3812" stdDeviation="4.5"/>
  </filter>
  <filter id="filter4180-4" height="3.8298" width="1.2289" color-interpolation-filters="sRGB" y="-1.4149" x="-.11445">
   <feGaussianBlur id="feGaussianBlur4182-4" stdDeviation="3.5372897"/>
  </filter>
  <radialGradient id="radialGradient5588" gradientUnits="userSpaceOnUse" cy="85.5" cx="48" gradientTransform="matrix(1 0 0 .046875 0 81.492)" r="32">
   <stop id="stop3177-4" style="stop-color:#7bff9d" offset="0"/>
   <stop id="stop3179-8" style="stop-color:#2ea04c;stop-opacity:0" offset="1"/>
  </radialGradient>
 </defs>
 <metadata id="metadata2413">
  <rdf:RDF>
   <cc:Work rdf:about="">
    <dc:format>image/svg+xml</dc:format>
    <dc:type rdf:resource="http://purl.org/dc/dcmitype/StillImage"/>
    <dc:title/>
   </cc:Work>
  </rdf:RDF>
 </metadata>
 <g id="layer2" style="display:none">
  <rect id="rect3745" style="opacity:.9;filter:url(#filter3174);fill:url(#ButtonShadow)" rx="6" ry="6" height="85" width="86" y="7" x="5"/>
 </g>
 <g id="layer3">
  <path id="path3786" style="opacity:0.08;fill:url(#linearGradient3780)" d="m12-95.031c-5.5111 0-10.031 4.5202-10.031 10.031v71c0 5.5111 4.5202 10.031 10.031 10.031h72c5.5111 0 10.031-4.5202 10.031-10.031v-71c0-5.5111-4.5202-10.031-10.031-10.031h-72z" transform="scale(1,-1)"/>
  <path id="path3778" style="opacity:.1;fill:url(#linearGradient3780)" d="m12-94.031c-4.9716 0-9.0312 4.0596-9.0312 9.0312v71c0 4.9716 4.0596 9.0312 9.0312 9.0312h72c4.9716 0 9.0312-4.0596 9.0312-9.0312v-71c0-4.9716-4.0596-9.0312-9.0312-9.0312h-72z" transform="scale(1,-1)"/>
  <path id="path3770" style="opacity:.2;fill:url(#linearGradient3780)" d="m12-93c-4.4091 0-8 3.5909-8 8v71c0 4.4091 3.5909 8 8 8h72c4.4091 0 8-3.5909 8-8v-71c0-4.4091-3.5909-8-8-8h-72z" transform="scale(1,-1)"/>
  <rect id="rect3723" style="opacity:.3;fill:url(#linearGradient3780)" transform="scale(1,-1)" rx="7" ry="7" height="85" width="86" y="-92" x="5"/>
  <rect id="rect3716" style="opacity:.45;fill:url(#linearGradient3721)" transform="scale(1,-1)" rx="6" ry="6" height="84" width="84" y="-91" x="6"/>
 </g>
 <g id="layer1">
  <rect id="rect2419" style="fill:url(#linearGradient3617)" transform="scale(1,-1)" rx="6.1" ry="6.1" height="84" width="84" y="-90" x="6"/>
  <path id="rect4359" style="opacity:.2;fill:url(#radialGradient4375)" d="m120.78 6.125c-2.74 0.5576-4.78 2.9665-4.78 5.875v68c0 3.324 2.676 6 6 6h72c3.324 0 6-2.676 6-6v-68c0-2.9085-2.0422-5.3174-4.7812-5.875 2.2051 0.53621 3.8125 2.4908 3.8125 4.875v68c0 2.8049-2.2264 5.0312-5.0312 5.0312h-72c-2.8049 0-5.0312-2.2264-5.0312-5.0312v-68c0-2.3842 1.6074-4.3388 3.8125-4.875z"/>
  <path id="path4412" style="opacity:.15" d="m6 100v1c0 3.324 2.676 6 6 6h72c3.324 0 6-2.676 6-6v-1c0 3.324-2.676 6-6 6h-72c-3.324 0-6-2.676-6-6z"/>
 </g>
 <g id="layer7">
  <g id="g3915" style="opacity:.2;filter:url(#filter3927-5)" clip-path="url(#clipPath3919-4)">
   <path id="path3911" style="opacity:.35656;color:#000000" d="m48 36a16 20 0 1 1 -32 0 16 20 0 1 1 32 0z" transform="matrix(1.25,0,0,1,-12,0)"/>
   <path id="path3913" style="opacity:.2;color:#000000" d="m80 52a24 28 0 1 1 -48 0 24 28 0 1 1 48 0z" transform="matrix(1.1667 0 0 1 -5.3333 0)"/>
  </g>
 </g>
 <g id="layer8">
  <path id="rect4028" style="opacity:.15;fill:#fff" d="m6 73.906v2c0 3.38 2.7144 6.094 6.094 6.094h71.812c3.38 0 6.094-2.714 6.094-6.094v-2c0 3.38-2.714 6.094-6.094 6.094h-71.812c-3.3796 0-6.094-2.714-6.094-6.094z"/>
  <path id="rect4377" style="opacity:.8;fill:url(#linearGradient4390)" d="m12 82c-3.324 0-6-2.676-6-6v-64c0-3.324 2.676-6 6-6h72c3.324 0 6 2.676 6 6v64c0 3.324-2.676 6-6 6zm0-0.96875h72c2.8049 0 5.0312-2.2264 5.0312-5.0312v-64c0-2.8049-2.226-5.0312-5.031-5.0312h-72c-2.8049 0-5.0312 2.2263-5.0312 5.0312v64c0 2.8049 2.2264 5.0312 5.0312 5.0312z"/>
 </g>
 <g id="layer4">
  <path id="path3888" style="opacity:.5;fill:url(#linearGradient3140)" d="m6 76v8c0 3.324 2.676 6 6 6h72c3.324 0 6-2.676 6-6v-8c0 3.324-2.676 6-6 6h-72c-3.324 0-6-2.676-6-6z"/>
  <path id="path4010" style="opacity:.8" d="m6 78v4c0 3.324 2.676 6 6 6h72c3.324 0 6-2.676 6-6v-4c0 3.324-2.676 6-6 6h-72c-3.324 0-6-2.676-6-6z"/>
  <path id="path4054" style="opacity:.4;fill:#fff" d="m6 82v1c0 3.324 2.676 6 6 6h72c3.324 0 6-2.676 6-6v-1c0 3.324-2.676 6-6 6h-72c-3.324 0-6-2.676-6-6z"/>
  <path id="path4059" style="opacity:.2" d="m6 77v1c0 3.324 2.676 6 6 6h72c3.324 0 6-2.676 6-6v-1c0 3.324-2.676 6-6 6h-72c-3.324 0-6-2.676-6-6z"/>
  <rect id="rect3323" style="opacity:.6;filter:url(#filter4180-4);fill:#00aa2c" transform="matrix(1 0 0 0.5 3.7195e-8 44)" rx="6.7435" ry="6" height="6" width="74.179" y="80" x="10.911"/>
  <rect id="rect3311" style="fill:url(#radialGradient5588)" rx="5.8182" ry="3" height="3" width="64" y="84" x="16"/>
 </g>
 <g id="layer5">
  <rect id="rect3171" style="opacity:.2;filter:url(#filter3794);stroke:#fff;stroke-linecap:round;stroke-width:.5;fill:url(#linearGradient3613)" clip-path="url(#clipPath4355)" rx="12" ry="12" height="62" width="66" y="15" x="15"/>
 </g>
 <g id="layer6">
  <path id="path3242" style="opacity:.7;fill:url(#linearGradient3185);fill-rule:evenodd" d="m72 42.125-2.654-2.236-18.692-15.653-2.654-2.236-2.654 2.236-18.692 15.653-2.654 2.236l2.6538 2.2118 13.962 11.715v-8.8715l-6.029-5.055 13.413-11.253 13.413 11.253-6.0288 5.0556v8.8715l13.962-11.715 2.654-2.212zm-20.258-0.08494v21.96h-7.4836v-21.96h7.4836z"/>
  <path id="path4072" style="opacity:.05;fill-rule:evenodd" d="m48 22-2.656 2.25-18.688 15.625-2.656 2.25 2.656 2.219 13.969 11.718v-8.875l-6.031-5.062 13.406-11.25 13.406 11.25-6.0312 5.0625v8.875l13.969-11.718 2.656-2.219-2.656-2.25-18.688-15.625-2.656-2.25zm0 1.0625 2.125 1.8125 18.688 15.625 1.9062 1.625-1.9062 1.5938-12.625 10.594v-6.75l5.75-4.8125a0.82591 0.82591 0 0 0 0 -1.25l-13.407-11.25a0.82591 0.82591 0 0 0 -1.0625 0l-13.406 11.25a0.82591 0.82591 0 0 0 0 1.25l5.75 4.8125v6.75l-12.624-10.593-1.907-1.594 1.907-1.625 18.687-15.625 2.125-1.813zm-3.75 18.969v21.969h7.5v-21.969h-7.5zm0.8125 0.8125h5.875v20.344h-5.875v-20.344z"/>
  <path id="path3775" style="opacity:.2;fill-rule:evenodd" d="m48 22-2.656 2.25-18.688 15.625-2.656 2.25l0.59375 0.5 2.0625-1.75 18.688-15.625 2.656-2.25 2.6562 2.25 18.688 15.625 2.0625 1.75 0.594-0.5-2.656-2.25-18.688-15.625-2.656-2.25zm-3.75 20.031v1h7.5v-1h-7.5zm-9.0625 0.59375-0.59375 0.5 6.0312 5.0625v-1l-5.4375-4.5625zm25.625 0-5.4375 4.5625v1l6.0312-5.0625-0.59375-0.5z"/>
  <path id="path3814" style="opacity:.8;fill-rule:evenodd;filter:url(#filter3810);fill:#fff" clip-path="url(#clipPath3824)" d="m47.938 19.281a0.71436 0.71436 0 0 0 -0.40625 0.1875l-2.6562 2.25v-0.03125l-18.688 15.625a0.71436 0.71436 0 0 0 0 0.03125l-2.6562 2.25a0.71436 0.71436 0 0 0 0 1.0938l2.656 2.219 13.968 11.719a0.71436 0.71436 0 0 0 1.1875 -0.5625v-8.875a0.71436 0.71436 0 0 0 -0.25 -0.5625l-5.375-4.5 12.281-10.28 12.281 10.281-5.375 4.5a0.71436 0.71436 0 0 0 -0.25 0.5625v8.875a0.71436 0.71436 0 0 0 1.1875 0.5625l13.968-11.72 2.657-2.218a0.71436 0.71436 0 0 0 0 -1.0938l-2.6562-2.25a0.71436 0.71436 0 0 0 0 -0.03125l-18.688-15.625v0.03125l-2.6562-2.25a0.71436 0.71436 0 0 0 -0.53125 -0.1875zm-3.75 20.031a0.71436 0.71436 0 0 0 -0.65625 0.71875v21.969a0.71436 0.71436 0 0 0 0.718 0.719h7.5a0.71436 0.71436 0 0 0 0.719 -0.719v-21.969a0.71436 0.71436 0 0 0 -0.719 -0.719h-7.5a0.71436 0.71436 0 0 0 -0.0625 0z" transform="translate(0,2)"/>
 </g>
</svg>
