<?xml version="1.0" encoding="UTF-8" standalone="no"?>
<!-- Created with Inkscape (http://www.inkscape.org/) -->
<svg id="svg2408" xmlns:rdf="http://www.w3.org/1999/02/22-rdf-syntax-ns#" xmlns="http://www.w3.org/2000/svg" height="96" width="96" version="1.0" xmlns:cc="http://creativecommons.org/ns#" xmlns:xlink="http://www.w3.org/1999/xlink" xmlns:dc="http://purl.org/dc/elements/1.1/">
 <defs id="defs2410">
  <linearGradient id="ButtonShadow" y2="7.0165" gradientUnits="userSpaceOnUse" x2="45.448" gradientTransform="scale(1.0059 .99417)" y1="92.54" x1="45.448">
   <stop id="stop3750" offset="0"/>
   <stop id="stop3752" style="stop-opacity:.58824" offset="1"/>
  </linearGradient>
  <filter id="filter3174" color-interpolation-filters="sRGB">
   <feGaussianBlur id="feGaussianBlur3176" stdDeviation="1.71"/>
  </filter>
  <filter id="filter3794" height="1.384" width="1.384" color-interpolation-filters="sRGB" y="-.192" x="-.192">
   <feGaussianBlur id="feGaussianBlur3796" stdDeviation="5.28"/>
  </filter>
  <linearGradient id="linearGradient3613" y2="138.66" gradientUnits="userSpaceOnUse" x2="48" y1="20.221" x1="48">
   <stop id="stop3739" style="stop-color:#fff" offset="0"/>
   <stop id="stop3741" style="stop-color:#fff;stop-opacity:0" offset="1"/>
  </linearGradient>
  <linearGradient id="linearGradient3617" y2="-8" gradientUnits="userSpaceOnUse" x2="32" gradientTransform="translate(0,-96)" y1="88" x1="32">
   <stop id="stop4329" style="stop-color:#f0f0f0" offset="0"/>
   <stop id="stop4331" style="stop-color:#b4b4b4" offset="1"/>
  </linearGradient>
  <linearGradient id="ButtonShadow-0" y2="7.0165" gradientUnits="userSpaceOnUse" x2="45.448" gradientTransform="matrix(1.0059 0 0 .99417 100 0)" y1="92.54" x1="45.448">
   <stop id="stop3750-8" offset="0"/>
   <stop id="stop3752-5" style="stop-opacity:.58824" offset="1"/>
  </linearGradient>
  <linearGradient id="linearGradient3780" y2="90.239" xlink:href="#ButtonShadow-0" gradientUnits="userSpaceOnUse" x2="32.251" gradientTransform="matrix(1.0238 0 0 1.0119 -1.1429 -98.071)" y1="6.1317" x1="32.251"/>
  <linearGradient id="linearGradient3721" y2="90.239" xlink:href="#ButtonShadow-0" gradientUnits="userSpaceOnUse" x2="32.251" gradientTransform="translate(0,-97)" y1="6.1317" x1="32.251"/>
  <clipPath id="clipPath4355">
   <rect id="rect4357" style="fill:#fff" rx="6" ry="6" height="80" width="84" y="6" x="6"/>
  </clipPath>
  <radialGradient id="radialGradient4375" gradientUnits="userSpaceOnUse" cy="87.792" cx="48" gradientTransform="matrix(1 -6.7115e-8 8.4282e-8 1.2558 110 -24.506)" r="42">
   <stop id="stop4369" style="stop-color:#fff;stop-opacity:.71756" offset="0"/>
   <stop id="stop4371" style="stop-color:#fff" offset="1"/>
  </radialGradient>
  <linearGradient id="linearGradient4390" y2="-40" gradientUnits="userSpaceOnUse" x2="48" gradientTransform="matrix(1,0,0,-1,0,92)" y1="88" x1="48">
   <stop id="stop4386" style="stop-color:#fff" offset="0"/>
   <stop id="stop4388" style="stop-color:#fff;stop-opacity:0" offset="1"/>
  </linearGradient>
  <linearGradient id="linearGradient3140" y2="88" spreadMethod="reflect" gradientUnits="userSpaceOnUse" x2="48" y1="88" x1="90">
   <stop id="stop3894-4" style="stop-opacity:.58824" offset="0"/>
   <stop id="stop3896-3" style="stop-opacity:.47059" offset=".11780"/>
   <stop id="stop3898-3" style="stop-opacity:.39216" offset=".23810"/>
   <stop id="stop3900-6" style="stop-opacity:.31373" offset="1"/>
  </linearGradient>
  <clipPath id="clipPath3919-4">
   <rect id="rect3921-3" style="fill:#f0f" transform="scale(1,-1)" rx="6.1" ry="6.1" height="76" width="84" y="-82" x="6"/>
  </clipPath>
  <filter id="filter3927-5" height="1.54" width="1.432" color-interpolation-filters="sRGB" y="-0.27" x="-0.216">
   <feGaussianBlur id="feGaussianBlur3929-0" stdDeviation="7.2000001"/>
  </filter>
  <linearGradient id="linearGradient3193" y2="62.971" gradientUnits="userSpaceOnUse" x2="24.668" gradientTransform="matrix(0 .67664 -.84794 0 101.4 -1.6916)" y1="62.971" x1="105.56">
   <stop id="stop3769" style="stop-color:#4d4d4d;stop-opacity:.70732" offset="0"/>
   <stop id="stop3771" style="stop-color:#4d4d4d;stop-opacity:.31373" offset="1"/>
  </linearGradient>
  <clipPath id="clipPath3520">
   <path id="path3522" style="fill:#fff" d="m9.9375 33.688c-3.2233 0-5.8438 1.784-5.8438 4v67.719c0 2.216 2.6205 4 5.8438 4h77.625c3.2233 0 5.8438-1.784 5.8438-4v-67.719c0-2.216-2.6205-4-5.8438-4h-77.625zm37.968 8.312c3.4319 0 6.2188 2.1981 6.2188 4.9375 0 2.1817-1.7642 4.0541-4.2188 4.7188v3.5625c0.01488 0.49755 0.29869 1.0673 0.6875 1.4688 0.09978 0.07533 8.1924 6.2001 8.2188 6.2188 0.0084 0.0065 0.02327-0.0068 0.03125 0 0.02396 0.01835 0.04599 0.04881 0.0625 0.0625 0.0042 0.0036 0.02447-0.006 0.03125 0 0.0068 0.006 0.03104 0.06226 0.03125 0.0625 0.000026 0.000029 0.06248 0.06248 0.0625 0.0625 0 0 0.000001 0.03125 0 0.03125 0.01173 0.01044 0.01956 0.02072 0.03125 0.03125 1.0961 0.9886 2 2.3551 2 3.8125v4.0938c1.724 0.628 2.938 2.024 2.938 3.657 0 2.2201-2.2042 4.0313-4.9375 4.0312-2.7333 0-4.9688-1.8111-4.9688-4.0312 0-1.6554 1.2361-3.0718 3-3.6875-0.000235-1.0474-0.000001-2.3794 0-4.0938-0.01444-0.49788-0.29736-1.0345-0.6875-1.4375l-6.5-4.9375v28.125h4.4688l-6.375 9.312-6.375-9.3125h4.3125v-21.969l-6.5312 4.9375c-0.3949 0.40606-0.67319 0.90899-0.6875 1.4062v3.8125h2.8125v7.9062h-9.5312v-7.9062h2.7812v-3.75c0-1.4421 0.88924-2.7945 1.9688-3.7812 0 0 0.0213-0.01152 0.03125-0.03125 0.0043-0.0039-0.0044-0.02734 0-0.03125l0.03125-0.03125c0.000015-0.000021 0.03122-0.03122 0.03125-0.03125 0.000203-0.000243 0.05499-0.08694 0.0625-0.09375 0.0047-0.004-0.0046-0.02742 0-0.03125 0.01531-0.01278 0.07133-0.01367 0.09375-0.03125 0.0079-0.01061 0.02312-0.02513 0.03125-0.03125 0.01626-0.01224 0.03151-0.0079 0.0625-0.03125 0.06197-0.04673 0.16688-0.13246 0.28125-0.21875 0.22873-0.17257 0.51658-0.42467 0.90625-0.71875 0.77935-0.58816 1.8392-1.3432 2.875-2.125 2.0463-1.5445 4.0441-3.0875 4.0938-3.125 0.39272-0.40316 0.67163-0.90931 0.6875-1.4062v-6.1562c-0.003-0.04389-0.000459-0.02213 0-0.03125 0.000459-0.0091-0.000001-0.03827 0-0.03125v-3.5312c-2.454-0.665-4.248-2.537-4.248-4.719 0-2.74 2.785-4.938 6.218-4.938z"/>
  </clipPath>
  <filter id="filter3536" height="1.2868" width="1.4834" color-interpolation-filters="sRGB" y="-.14339" x="-.24171">
   <feGaussianBlur id="feGaussianBlur3538" stdDeviation="3.525"/>
  </filter>
  <filter id="filter4180-5" height="3.8298" width="1.2289" color-interpolation-filters="sRGB" y="-1.4149" x="-.11445">
   <feGaussianBlur id="feGaussianBlur4182-6" stdDeviation="3.5372897"/>
  </filter>
  <radialGradient id="radialGradient4138-3" gradientUnits="userSpaceOnUse" cy="84" cx="48" gradientTransform="matrix(1.0667 0 0 0.05 -3.2 81.3)" r="30">
   <stop id="stop3177-4" style="stop-color:#7bff9d" offset="0"/>
   <stop id="stop3179-8" style="stop-color:#2ea04c;stop-opacity:0" offset="1"/>
  </radialGradient>
 </defs>
 <metadata id="metadata2413">
  <rdf:RDF>
   <cc:Work rdf:about="">
    <dc:format>image/svg+xml</dc:format>
    <dc:type rdf:resource="http://purl.org/dc/dcmitype/StillImage"/>
    <dc:title/>
   </cc:Work>
  </rdf:RDF>
 </metadata>
 <g id="layer2" style="display:none">
  <rect id="rect3745" style="opacity:.9;filter:url(#filter3174);fill:url(#ButtonShadow)" rx="6" ry="6" height="85" width="86" y="7" x="5"/>
 </g>
 <g id="layer3">
  <path id="path3786" style="opacity:0.08;fill:url(#linearGradient3780)" d="m12-95.031c-5.5111 0-10.031 4.5202-10.031 10.031v71c0 5.5111 4.5202 10.031 10.031 10.031h72c5.5111 0 10.031-4.5202 10.031-10.031v-71c0-5.5111-4.5202-10.031-10.031-10.031h-72z" transform="scale(1,-1)"/>
  <path id="path3778" style="opacity:.1;fill:url(#linearGradient3780)" d="m12-94.031c-4.9716 0-9.0312 4.0596-9.0312 9.0312v71c0 4.9716 4.0596 9.0312 9.0312 9.0312h72c4.9716 0 9.0312-4.0596 9.0312-9.0312v-71c0-4.9716-4.0596-9.0312-9.0312-9.0312h-72z" transform="scale(1,-1)"/>
  <path id="path3770" style="opacity:.2;fill:url(#linearGradient3780)" d="m12-93c-4.4091 0-8 3.5909-8 8v71c0 4.4091 3.5909 8 8 8h72c4.4091 0 8-3.5909 8-8v-71c0-4.4091-3.5909-8-8-8h-72z" transform="scale(1,-1)"/>
  <rect id="rect3723" style="opacity:.3;fill:url(#linearGradient3780)" transform="scale(1,-1)" rx="7" ry="7" height="85" width="86" y="-92" x="5"/>
  <rect id="rect3716" style="opacity:.45;fill:url(#linearGradient3721)" transform="scale(1,-1)" rx="6" ry="6" height="84" width="84" y="-91" x="6"/>
 </g>
 <g id="layer1">
  <rect id="rect2419" style="fill:url(#linearGradient3617)" transform="scale(1,-1)" rx="6.1" ry="6.1" height="84" width="84" y="-90" x="6"/>
  <path id="rect4359" style="opacity:.2;fill:url(#radialGradient4375)" d="m120.78 6.125c-2.74 0.5576-4.78 2.9665-4.78 5.875v68c0 3.324 2.676 6 6 6h72c3.324 0 6-2.676 6-6v-68c0-2.9085-2.0422-5.3174-4.7812-5.875 2.2051 0.53621 3.8125 2.4908 3.8125 4.875v68c0 2.8049-2.2264 5.0312-5.0312 5.0312h-72c-2.8049 0-5.0312-2.2264-5.0312-5.0312v-68c0-2.3842 1.6074-4.3388 3.8125-4.875z"/>
  <path id="path4412" style="opacity:.15" d="m6 100v1c0 3.324 2.676 6 6 6h72c3.324 0 6-2.676 6-6v-1c0 3.324-2.676 6-6 6h-72c-3.324 0-6-2.676-6-6z"/>
 </g>
 <g id="layer7">
  <g id="g3915" style="opacity:.2;filter:url(#filter3927-5)" clip-path="url(#clipPath3919-4)">
   <path id="path3911" style="opacity:.35656;color:#000000" d="m48 36a16 20 0 1 1 -32 0 16 20 0 1 1 32 0z" transform="matrix(1.25,0,0,1,-12,0)"/>
   <path id="path3913" style="opacity:.2;color:#000000" d="m80 52a24 28 0 1 1 -48 0 24 28 0 1 1 48 0z" transform="matrix(1.1667 0 0 1 -5.3333 0)"/>
  </g>
 </g>
 <g id="layer8">
  <path id="rect4028" style="opacity:.15;fill:#fff" d="m6 73.906v2c0 3.38 2.7144 6.094 6.094 6.094h71.812c3.38 0 6.094-2.714 6.094-6.094v-2c0 3.38-2.714 6.094-6.094 6.094h-71.812c-3.3796 0-6.094-2.714-6.094-6.094z"/>
  <path id="rect4377" style="opacity:.8;fill:url(#linearGradient4390)" d="m12 82c-3.324 0-6-2.676-6-6v-64c0-3.324 2.676-6 6-6h72c3.324 0 6 2.676 6 6v64c0 3.324-2.676 6-6 6zm0-0.96875h72c2.8049 0 5.0312-2.2264 5.0312-5.0312v-64c0-2.8049-2.226-5.0312-5.031-5.0312h-72c-2.8049 0-5.0312 2.2263-5.0312 5.0312v64c0 2.8049 2.2264 5.0312 5.0312 5.0312z"/>
 </g>
 <g id="layer4">
  <path id="path3888" style="opacity:.5;fill:url(#linearGradient3140)" d="m6 76v8c0 3.324 2.676 6 6 6h72c3.324 0 6-2.676 6-6v-8c0 3.324-2.676 6-6 6h-72c-3.324 0-6-2.676-6-6z"/>
  <path id="path4010" style="opacity:.8" d="m6 78v4c0 3.324 2.676 6 6 6h72c3.324 0 6-2.676 6-6v-4c0 3.324-2.676 6-6 6h-72c-3.324 0-6-2.676-6-6z"/>
  <path id="path4054" style="opacity:.4;fill:#fff" d="m6 82v1c0 3.324 2.676 6 6 6h72c3.324 0 6-2.676 6-6v-1c0 3.324-2.676 6-6 6h-72c-3.324 0-6-2.676-6-6z"/>
  <path id="path4059" style="opacity:.2" d="m6 77v1c0 3.324 2.676 6 6 6h72c3.324 0 6-2.676 6-6v-1c0 3.324-2.676 6-6 6h-72c-3.324 0-6-2.676-6-6z"/>
  <rect id="rect3323" style="opacity:.6;filter:url(#filter4180-5);fill:#00aa2c" transform="matrix(1 0 0 0.5 3.7195e-8 44)" rx="6.7435" ry="6" height="6" width="74.179" y="80" x="10.911"/>
  <rect id="rect3311" style="fill:url(#radialGradient4138-3)" rx="5.8182" ry="3" height="3" width="64" y="84" x="16"/>
 </g>
 <g id="layer5">
  <rect id="rect3171" style="opacity:.2;filter:url(#filter3794);stroke:#fff;stroke-linecap:round;stroke-width:.5;fill:url(#linearGradient3613)" clip-path="url(#clipPath4355)" rx="12" ry="12" height="62" width="66" y="15" x="15"/>
 </g>
 <g id="layer6">
  <path id="path1334" style="opacity:.75;fill:url(#linearGradient3193)" d="m64 47.713c0-1.6326-1.2147-3.0314-2.938-3.6591v-4.0767c0-1.4574-0.91153-2.8296-2.0076-3.8182-0.01169-0.01054-0.01276-0.02933-0.02449-0.03977v-0.01989c-0.000017-0.000021-0.04894-0.05963-0.04897-0.05966-0.00021-0.000241-0.04218-0.05362-0.04897-0.05966-0.0068-0.006-0.0203 0.0036-0.02448 0-0.0042-0.0036 0.0041-0.01646 0-0.01988-0.01651-0.01369-0.04949-0.02143-0.07345-0.03977-0.008-0.0068-0.01614-0.01341-0.02449-0.01989-0.02631-0.01864-8.1267-6.1491-8.2265-6.2244-0.38881-0.40146-0.67066-0.95415-0.68554-1.4517v-3.5597c2.4546-0.66468 4.2357-2.5313 4.2357-4.7131 0-2.739-2.787-4.951-6.219-4.951-3.4329 0-6.2188 2.2123-6.2188 4.9517 0.000003 2.1822 1.7797 4.0485 4.2357 4.7131v3.5199c0-0.007 0.000459 0.03066 0 0.03977-0.000458 0.0091-0.003-0.0041 0 0.03977v6.1449c-0.01587 0.49694-0.29283 1.0088-0.68554 1.4119-0.04962 0.03746-2.0424 1.5578-4.0888 3.1023-1.0358 0.78181-2.0852 1.5596-2.8646 2.1477-0.38967 0.29408-0.70164 0.54334-0.93037 0.71591-0.11437 0.08629-0.20735 0.15214-0.26932 0.19886-0.03098 0.02336-0.05719 0.02753-0.07345 0.03977-0.0081 0.0061-0.0166 0.02917-0.02448 0.03977-0.02242 0.01758-0.05814 0.027-0.07345 0.03977-0.0046 0.0038 0.0047 0.01588 0 0.01989-0.0047 0.004-0.01698-0.0068-0.02448 0s-0.04876 0.0793-0.04897 0.07955c-0.000027 0.000031-0.04895 0.03975-0.04897 0.03977v0.01989l-0.02448 0.01989c-0.0044 0.0039 0.0043 0.01597 0 0.01989-0.0099 0.01973-0.02448 0.03977-0.02448 0.03977-1.0795 0.98676-1.9832 2.3363-1.9832 3.7784v3.7386h-2.7666v7.9347h9.5173v-7.9347h-2.7844v-3.7983c0.01431-0.49726 0.29064-1.0059 0.68554-1.4119l6.5126-4.9318v21.974h-4.2956l6.365 9.307 6.3664-9.3068h-4.4692v-28.119l6.5126 4.9119c0.39014 0.40295 0.6711 0.95383 0.68554 1.4517 0 1.7143-0.000235 3.0492 0 4.0966-1.7639 0.61572-3.0115 2.0236-3.0115 3.679 0 2.2201 2.2368 4.0369 4.9702 4.0369 2.734 0 4.946-1.817 4.946-4.037z"/>
  <path id="path4153" style="opacity:.05" d="m47.906 15c-3.4329 0-6.2188 2.1981-6.2188 4.9375 0.000003 2.1822 1.794 4.0541 4.25 4.7188v3.5312c0-0.007 0.000459 0.02214 0 0.03125-0.000458 0.0091-0.003-0.01262 0 0.03125 0.02738 0.02742 0.63142 0.60104 0.6875 0.65625-0.0019 0.0025 0.000002 0.03125 0 0.03125-0.01585 0.01494-0.03125 0.03125-0.03125 0.03125l-0.655-0.718v6.1562c-0.01587 0.49694-0.29478 1.0031-0.6875 1.4062-0.04962 0.03746-2.0474 1.5805-4.0938 3.125-1.0358 0.78181-2.0957 1.5368-2.875 2.125-0.38967 0.29408-0.67752 0.54618-0.90625 0.71875-0.11437 0.08629-0.21928 0.17202-0.28125 0.21875-0.03098 0.02336-0.04624 0.01901-0.0625 0.03125-0.0081 0.0061-0.02337 0.02065-0.03125 0.03125-0.02242 0.01758-0.07844 0.01848-0.09375 0.03125-0.0046 0.0038 0.0047 0.02724 0 0.03125-0.0075 0.0068-0.06229 0.0935-0.0625 0.09375l-0.032 0.032-0.031 0.031c-0.0044 0.0039 0.0043 0.02733 0 0.03125-0.0099 0.01973-0.03125 0.03125-0.03125 0.03125-1.0795 0.98676-1.9688 2.3392-1.9688 3.7812v3.75h-2.7812v7.9062h9.5312v-7.9062h-2.8125v-3.8125c0.01431-0.49726 0.2926-1.0002 0.6875-1.4062l6.5312-4.9375v21.969h-4.3125l6.375 9.312 6.375-9.3125h-4.4688v-28.125l6.5 4.9375c0.39014 0.40295 0.67306 0.93962 0.6875 1.4375 0 1.7143-0.000235 3.0464 0 4.0938-1.7639 0.61572-3 2.0321-3 3.6875 0 2.2201 2.2354 4.0312 4.9688 4.0312 2.734 0 4.938-1.811 4.938-4.031 0-1.633-1.214-3.029-2.938-3.657v-4.0938c0-1.4574-0.90388-2.8239-2-3.8125-0.01169-0.01054-0.01952-0.02081-0.03125-0.03125v-0.03125l-0.0625-0.0625c-0.00021-0.000241-0.02446-0.05646-0.03125-0.0625-0.0068-0.006-0.02707 0.0036-0.03125 0-0.01651-0.01369-0.03854-0.04416-0.0625-0.0625-0.008-0.0068-0.0229 0.0065-0.03125 0-0.02631-0.01864-8.119-6.1434-8.2188-6.2188-0.38881-0.40146-0.67262-0.9712-0.6875-1.4688v-3.5625c2.455-0.662 4.219-2.535 4.219-4.716 0-2.74-2.787-4.938-6.219-4.938zm0 1c2.9996 0 5.2188 1.8846 5.2188 3.9375 0 1.6361-1.359 3.1787-3.4688 3.75a1.0123 1.0123 0 0 0 -0.75 0.96875v3.5625a1.0123 1.0123 0 0 0 0 0.03125c0.02569 0.85888 0.41824 1.5878 0.96875 2.1562a1.0123 1.0123 0 0 0 0.094 0.093c0.0474 0.03579 8.0258 6.0351 8.1875 6.1562a1.0123 1.0123 0 0 0 0.03125 0.03125c0.000173 0.000129-0.000119 0.03116 0 0.03125 0.000158 0.000117 0.03119-0.000045 0.03125 0 0.0014 0.000679-0.002 0.0303 0 0.03125 0.0044 0.0021 0.02447-0.0032 0.03125 0a1.0123 1.0123 0 0 0 0.03125 0.0625h0.03125a1.0123 1.0123 0 0 0 0.03125 0.0625c-0.06743-0.06001-0.05636-0.04774 0.03125 0.03125 0.95714 0.86325 1.6875 2.0236 1.6875 3.0625v4.0938a1.0123 1.0123 0 0 0 0.657 0.938c1.413 0.515 2.281 1.588 2.281 2.719 0 1.55-1.651 3.031-3.938 3.031-2.2862 0-3.9688-1.4906-3.9688-3.0312 0-1.1515 0.89698-2.2137 2.3438-2.7188a1.0123 1.0123 0 0 0 0.65625 -0.96875c-0.000235-1.047 0-2.3793 0-4.0938a1.0123 1.0123 0 0 0 0 -0.03125c-0.024-0.86-0.436-1.575-0.968-2.125a1.0123 1.0123 0 0 0 -0.094 -0.093l-6.5-4.9375a1.0123 1.0123 0 0 0 -1.625 0.8125v28.125a1.0123 1.0123 0 0 0 1 1h2.5625l-4.468 6.532-4.469-6.531h2.4062a1.0123 1.0123 0 0 0 1 -1v-21.969a1.0123 1.0123 0 0 0 -1.625 -0.8125l-6.5312 4.9375a1.0123 1.0123 0 0 0 -0.093 0.094c-0.52045 0.53515-0.94415 1.2389-0.96875 2.0938a1.0123 1.0123 0 0 0 0 0.03125v3.8125a1.0123 1.0123 0 0 0 1 1h1.8125v5.9062h-7.5312v-5.9062h1.7812a1.0123 1.0123 0 0 0 1 -1v-3.75c0-1.026 0.71238-2.1685 1.6562-3.0312l-0.032-0.033c0.01029-0.0064 0.01989-0.02318 0.03125-0.03125l0.03125 0.03125c0.001 0 0.021-0.047 0.032-0.062l0.03125-0.03125 0.03125-0.03125a1.0123 1.0123 0 0 0 0 -0.03125c0.01219-0.01685 0.01884-0.01409 0.03125-0.03125 0.01338-0.0073 0.01798-0.02342 0.03125-0.03125 0.0036-0.0046 0.02715 0.0053 0.03125 0 0.01295-0.0081 0.01912-0.02284 0.03125-0.03125 0.0083-0.0058 0.02346 0.0059 0.03125 0 0.09868-0.07441 0.18662-0.14735 0.28125-0.21875 0.28116-0.21212 0.54729-0.44785 0.90625-0.71875 0.75962-0.57327 1.8243-1.332 2.875-2.125 1.0261-0.77448 2.0185-1.5405 2.7812-2.125 0.38136-0.29224 0.71089-0.54441 0.9375-0.71875s0.42273-0.31728 0.375-0.28125a1.0123 1.0123 0 0 0 0.09375 -0.09375c0.52103-0.53489 0.9415-1.2406 0.96875-2.0938a1.0123 1.0123 0 0 0 0 -0.03125v-6.0625c0.0021-0.0172-0.000948-0.01934 0-0.03125-0.000008 0.000103-0.000434-0.02279 0-0.03125 0.0013-0.02522-0.000223-0.02091 0-0.03125a1.0123 1.0123 0 0 0 0 -0.03125c-0.000212-0.0035 0.000036-0.02657 0-0.03125v-0.03125c-0.000082-0.0043 0.000012-0.06236 0-0.0625v-3.4375a1.0123 1.0123 0 0 0 -0.75 -0.96875c-2.1133-0.57189-3.5-2.1226-3.5-3.75 0-2.0531 2.2179-3.9375 5.2188-3.9375z"/>
  <path id="path3504" style="opacity:.2" d="m47.906 15c-3.4329 0-6.2188 2.1981-6.2188 4.9375 0 0.13698 0.04875 0.27198 0.0625 0.40625 0.373-2.454 2.979-4.344 6.156-4.344 3.2044 0 5.8514 1.9206 6.1875 4.4062 0.018-0.153 0.031-0.311 0.031-0.468 0-2.74-2.787-4.938-6.219-4.938zm2 13.219v1c0.01488 0.49755 0.29869 1.0673 0.6875 1.4688 0.09978 0.07533 8.1924 6.2001 8.2188 6.2188 0.0084 0.0065 0.02327-0.0068 0.03125 0 0.02396 0.01835 0.04599 0.04881 0.0625 0.0625 0.0042 0.0036 0.02447-0.006 0.03125 0 0.0068 0.006 0.03104 0.06226 0.03125 0.0625 0.000026 0.000029 0.06248 0.06248 0.0625 0.0625 0 0 0.000001 0.03125 0 0.03125 0.01173 0.01044 0.01956 0.02072 0.03125 0.03125 1.0961 0.9886 2 2.3551 2 3.8125v-1c0.000001-1.4574-0.90388-2.8239-2-3.8125-0.01169-0.01053-0.01952-0.02081-0.03125-0.03125 0.000001 0.000001 0-0.03125 0-0.03125-0.000016-0.000021-0.06247-0.06247-0.0625-0.0625-0.000208-0.000241-0.02446-0.05646-0.03125-0.0625-0.0068-0.006-0.02707 0.0036-0.03125 0-0.01651-0.01369-0.03854-0.04415-0.0625-0.0625-0.008-0.0068-0.0229 0.0065-0.03125 0-0.02631-0.01863-8.119-6.1434-8.2188-6.2188-0.38881-0.40146-0.67262-0.9712-0.6875-1.4688zm-3.9688 6.1875c-0.01587 0.49694-0.29478 1.0031-0.6875 1.4062-0.04962 0.03746-2.0474 1.5805-4.0938 3.125-1.0358 0.78181-2.0957 1.5368-2.875 2.125-0.38967 0.29408-0.67752 0.54618-0.90625 0.71875-0.11437 0.08629-0.21928 0.17202-0.28125 0.21875-0.03099 0.02336-0.04624 0.01901-0.0625 0.03125-0.0081 0.0061-0.02336 0.02064-0.03125 0.03125-0.02242 0.01758-0.07844 0.01847-0.09375 0.03125-0.0046 0.0038 0.0047 0.02724 0 0.03125-0.0075 0.0068-0.0623 0.09351-0.0625 0.09375-0.000028 0.000031-0.03124 0.03123-0.03125 0.03125 0 0.000001-0.03125 0.03125-0.03125 0.03125-0.0044 0.0039 0.0043 0.02733 0 0.03125-0.0099 0.01973-0.03125 0.03125-0.03125 0.03125-1.0795 0.98676-1.9688 2.3392-1.9688 3.7812v1c0-1.4421 0.88924-2.7945 1.9688-3.7812 0 0 0.0213-0.01152 0.03125-0.03125 0.0043-0.0039-0.0044-0.02734 0-0.03125l0.03125-0.03125c0.000015-0.000021 0.03122-0.03122 0.03125-0.03125 0.000203-0.000243 0.05499-0.08693 0.0625-0.09375 0.0047-0.004-0.0046-0.02742 0-0.03125 0.01531-0.01278 0.07133-0.01367 0.09375-0.03125 0.0079-0.01061 0.02312-0.02513 0.03125-0.03125 0.01626-0.01224 0.03151-0.0079 0.0625-0.03125 0.06197-0.04673 0.16688-0.13246 0.28125-0.21875 0.22873-0.17257 0.51658-0.42467 0.90625-0.71875 0.77935-0.58816 1.8392-1.3432 2.875-2.125 2.0463-1.5445 4.0441-3.0875 4.0938-3.125 0.39272-0.40316 0.67163-0.90931 0.6875-1.4062v-1zm11.156 9.625c-1.7639 0.61572-3 2.0321-3 3.6875 0 0.18207 0.03337 0.35539 0.0625 0.53125 0.20676-1.4531 1.3395-2.6609 2.9375-3.2188-0.000057-0.25585 0.000012-0.7085 0-1zm3.9688 0.03125v1c1.5528 0.56556 2.6646 1.7629 2.875 3.1875 0.029-0.176 0.063-0.349 0.063-0.531 0-1.633-1.214-3.029-2.938-3.657zm-29.062 5.813v1h2.7812v-1h-2.7812zm6.7188 0v1h2.8125v-1h-2.8125zm2.9062 11.812 0.6875 1h3.625v-1h-4.3125zm8.2812 0v1h3.7812l0.6875-1h-4.4688z"/>
  <path id="path3518" style="opacity:.8;filter:url(#filter3536);stroke:#fff;stroke-width:3;fill:none" d="m64 74.713c0-1.6326-1.2147-3.0314-2.938-3.6591v-4.0767c0-1.4574-0.91153-2.8296-2.0076-3.8182-0.01169-0.01054-0.01276-0.02933-0.02449-0.03977v-0.01989c-0.000017-0.000021-0.04894-0.05963-0.04897-0.05966-0.00021-0.000241-0.04218-0.05362-0.04897-0.05966-0.0068-0.006-0.0203 0.0036-0.02448 0-0.0042-0.0036 0.0041-0.01646 0-0.01988-0.01651-0.01369-0.04949-0.02143-0.07345-0.03977-0.008-0.0068-0.01614-0.01341-0.02449-0.01989-0.02631-0.01864-8.1267-6.1491-8.2265-6.2244-0.38881-0.40146-0.67066-0.95415-0.68554-1.4517v-3.5597c2.4546-0.66468 4.2357-2.5313 4.2357-4.7131 0-2.739-2.787-4.951-6.219-4.951-3.4329 0-6.2188 2.2123-6.2188 4.9517 0.000003 2.1822 1.7797 4.0485 4.2357 4.7131v3.5199c0-0.007 0.000459 0.03066 0 0.03977-0.000458 0.0091-0.003-0.0041 0 0.03977v6.1449c-0.01587 0.49694-0.29283 1.0088-0.68554 1.4119-0.04962 0.03746-2.0424 1.5578-4.0888 3.1023-1.0358 0.78181-2.0852 1.5596-2.8646 2.1477-0.38967 0.29408-0.70164 0.54334-0.93037 0.71591-0.11437 0.08629-0.20735 0.15214-0.26932 0.19886-0.03098 0.02336-0.05719 0.02753-0.07345 0.03977-0.0081 0.0061-0.0166 0.02917-0.02448 0.03977-0.02242 0.01758-0.05814 0.027-0.07345 0.03977-0.0046 0.0038 0.0047 0.01588 0 0.01989-0.0047 0.004-0.01698-0.0068-0.02448 0s-0.04876 0.0793-0.04897 0.07955c-0.000027 0.000031-0.04895 0.03975-0.04897 0.03977v0.01989l-0.02448 0.01989c-0.0044 0.0039 0.0043 0.01597 0 0.01989-0.0099 0.01973-0.02448 0.03977-0.02448 0.03977-1.0795 0.98676-1.9832 2.3363-1.9832 3.7784v3.7386h-2.7666v7.9347h9.5173v-7.9347h-2.7844v-3.7983c0.01431-0.49726 0.29064-1.0059 0.68554-1.4119l6.5126-4.9318v21.974h-4.2956l6.365 9.307 6.3664-9.3068h-4.4692v-28.119l6.5126 4.9119c0.39014 0.40295 0.6711 0.95383 0.68554 1.4517 0 1.7143-0.000235 3.0492 0 4.0966-1.7639 0.61572-3.0115 2.0236-3.0115 3.679 0 2.2201 2.2368 4.0369 4.9702 4.0369 2.734 0 4.946-1.817 4.946-4.037z" clip-path="url(#clipPath3520)" transform="translate(2.2888e-7 -27)"/>
 </g>
</svg>
