<?xml version="1.0" encoding="UTF-8" standalone="no"?>
<!-- Created with Inkscape (http://www.inkscape.org/) -->
<svg id="svg2408" xmlns:rdf="http://www.w3.org/1999/02/22-rdf-syntax-ns#" xmlns="http://www.w3.org/2000/svg" height="96" width="96" version="1.0" xmlns:cc="http://creativecommons.org/ns#" xmlns:xlink="http://www.w3.org/1999/xlink" xmlns:dc="http://purl.org/dc/elements/1.1/">
 <defs id="defs2410">
  <linearGradient id="linearGradient3901">
   <stop id="stop3903" style="stop-color:#a2dfff" offset="0"/>
   <stop id="stop3905" style="stop-color:#006dff;stop-opacity:0" offset="1"/>
  </linearGradient>
  <linearGradient id="ButtonShadow" y2="7.0165" gradientUnits="userSpaceOnUse" x2="45.448" gradientTransform="scale(1.0059 .99417)" y1="92.54" x1="45.448">
   <stop id="stop3750" offset="0"/>
   <stop id="stop3752" style="stop-opacity:.58824" offset="1"/>
  </linearGradient>
  <filter id="filter3174" color-interpolation-filters="sRGB">
   <feGaussianBlur id="feGaussianBlur3176" stdDeviation="1.71"/>
  </filter>
  <filter id="filter3794" height="1.384" width="1.384" color-interpolation-filters="sRGB" y="-.192" x="-.192">
   <feGaussianBlur id="feGaussianBlur3796" stdDeviation="5.28"/>
  </filter>
  <linearGradient id="linearGradient3613" y2="138.66" gradientUnits="userSpaceOnUse" x2="48" y1="20.221" x1="48">
   <stop id="stop3739" style="stop-color:#fff" offset="0"/>
   <stop id="stop3741" style="stop-color:#fff;stop-opacity:0" offset="1"/>
  </linearGradient>
  <linearGradient id="linearGradient3617" y2="-8" gradientUnits="userSpaceOnUse" x2="32" gradientTransform="translate(0,-96)" y1="88" x1="32">
   <stop id="stop4329" style="stop-color:#f0f0f0" offset="0"/>
   <stop id="stop4331" style="stop-color:#b4b4b4" offset="1"/>
  </linearGradient>
  <linearGradient id="ButtonShadow-0" y2="7.0165" gradientUnits="userSpaceOnUse" x2="45.448" gradientTransform="matrix(1.0059 0 0 .99417 100 0)" y1="92.54" x1="45.448">
   <stop id="stop3750-8" offset="0"/>
   <stop id="stop3752-5" style="stop-opacity:.58824" offset="1"/>
  </linearGradient>
  <linearGradient id="linearGradient3780" y2="90.239" xlink:href="#ButtonShadow-0" gradientUnits="userSpaceOnUse" x2="32.251" gradientTransform="matrix(1.0238 0 0 1.0119 -1.1429 -98.071)" y1="6.1317" x1="32.251"/>
  <linearGradient id="linearGradient3721" y2="90.239" xlink:href="#ButtonShadow-0" gradientUnits="userSpaceOnUse" x2="32.251" gradientTransform="translate(0,-97)" y1="6.1317" x1="32.251"/>
  <clipPath id="clipPath4355">
   <rect id="rect4357" style="fill:#fff" rx="6" ry="6" height="80" width="84" y="6" x="6"/>
  </clipPath>
  <radialGradient id="radialGradient4375" gradientUnits="userSpaceOnUse" cy="87.792" cx="48" gradientTransform="matrix(1 -6.7115e-8 8.4282e-8 1.2558 110 -24.506)" r="42">
   <stop id="stop4369" style="stop-color:#fff;stop-opacity:.71756" offset="0"/>
   <stop id="stop4371" style="stop-color:#fff" offset="1"/>
  </radialGradient>
  <linearGradient id="linearGradient4390" y2="-40" gradientUnits="userSpaceOnUse" x2="48" gradientTransform="matrix(1,0,0,-1,0,92)" y1="88" x1="48">
   <stop id="stop4386" style="stop-color:#fff" offset="0"/>
   <stop id="stop4388" style="stop-color:#fff;stop-opacity:0" offset="1"/>
  </linearGradient>
  <linearGradient id="linearGradient3140" y2="88" spreadMethod="reflect" gradientUnits="userSpaceOnUse" x2="48" y1="88" x1="90">
   <stop id="stop3894-4" style="stop-opacity:.58824" offset="0"/>
   <stop id="stop3896-3" style="stop-opacity:.47059" offset=".11780"/>
   <stop id="stop3898-3" style="stop-opacity:.39216" offset=".23810"/>
   <stop id="stop3900-6" style="stop-opacity:.31373" offset="1"/>
  </linearGradient>
  <radialGradient id="radialGradient4087" xlink:href="#linearGradient3901" gradientUnits="userSpaceOnUse" cy="85.5" cx="48" gradientTransform="matrix(1 0 0 .013889 0 84.312)" r="36"/>
  <clipPath id="clipPath3919-4">
   <rect id="rect3921-3" style="fill:#f0f" transform="scale(1,-1)" rx="6.1" ry="6.1" height="76" width="84" y="-82" x="6"/>
  </clipPath>
  <filter id="filter3927-5" height="1.54" width="1.432" color-interpolation-filters="sRGB" y="-0.27" x="-0.216">
   <feGaussianBlur id="feGaussianBlur3929-0" stdDeviation="7.2000001"/>
  </filter>
  <radialGradient id="radialGradient4138" gradientUnits="userSpaceOnUse" cy="84" cx="48" gradientTransform="matrix(1.0667 0 0 0.05 -3.2 81.3)" r="30">
   <stop id="stop3177-4" style="stop-color:#7bff9d" offset="0"/>
   <stop id="stop3179-8" style="stop-color:#2ea04c;stop-opacity:0" offset="1"/>
  </radialGradient>
  <filter id="filter4180" height="3.8298" width="1.2289" color-interpolation-filters="sRGB" y="-1.4149" x="-.11445">
   <feGaussianBlur id="feGaussianBlur4182" stdDeviation="3.5372897"/>
  </filter>
  <clipPath id="clipPath4114">
   <path id="path4116" style="fill:#f0f" d="m12.094 6c-3.3796 0-6.094 2.7144-6.094 6.094v67.812c0 3.38 2.7144 6.094 6.094 6.094h71.812c3.38 0 6.094-2.714 6.094-6.094v-67.812c0-3.3796-2.714-6.094-6.094-6.094h-71.812zm32.875 18h6.0625c0.8658 0 1.5625 0.6682 1.5625 1.4688v2.8125c1.548 0.374 3.053 0.94 4.406 1.656l2.1875-2c0.62268-0.56608 1.6065-0.5878 2.2188-0.03125l4.3125 3.9062c0.61221 0.55656 0.59137 1.4339-0.03125 2l-2.2188 2.0312c0.78715 1.2304 1.4313 2.5614 1.8438 3.9688h3.0938c0.879-0.001 1.592 0.65 1.592 1.437v5.5c0 0.7871-0.71316 1.4375-1.5938 1.4375h-3.0938c-0.41248 1.4074-1.0566 2.7383-1.8438 3.9688l2.2188 2.0312c0.62268 0.56608 0.64352 1.4434 0.03125 2l-4.3125 3.9062c-0.61222 0.55656-1.5961 0.53484-2.2188-0.03125l-2.1875-2c-1.3534 0.71559-2.8581 1.2813-4.4062 1.6562v2.8125c0 0.8-0.697 1.468-1.563 1.468h-6.0625c-0.86581 0-1.5625-0.6682-1.5625-1.4688v-2.8125c-1.548-0.374-3.053-0.94-4.406-1.656l-2.1875 2c-0.31134 0.28304-0.69084 0.4344-1.0938 0.4375-0.40291 0.0031-0.8189-0.12797-1.125-0.40625l-4.3125-3.9062c-0.61221-0.55656-0.59136-1.4339 0.03125-2l2.2188-2.0312c-0.786-1.23-1.43-2.561-1.842-3.968h-3.0938c-0.881 0-1.594-0.651-1.594-1.438v-5.5c0-0.7871 0.71315-1.4375 1.5938-1.4375h3.0938c0.41249-1.4074 1.0566-2.7383 1.8438-3.9688l-2.22-2.031c-0.62268-0.56608-0.64353-1.4434-0.03125-2l4.3125-3.9062c0.61221-0.55656 1.5961-0.53483 2.2188 0.03125l2.1875 2c1.3534-0.71559 2.8581-1.2813 4.4062-1.6562v-2.8125c0-0.8 0.697-1.468 1.563-1.468zm3.031 13.969c-3.6714 0-6.6562 2.6936-6.6562 6.0312 0 3.3377 2.9848 6.0312 6.6562 6.0312s6.6562-2.6936 6.6562-6.0312c0-3.3377-2.9848-6.0312-6.6562-6.0312z"/>
  </clipPath>
  <filter id="filter4118" height="1.504" width="1.4582" color-interpolation-filters="sRGB" y="-.252" x="-.22909">
   <feGaussianBlur id="feGaussianBlur4120" stdDeviation="4.2000002"/>
  </filter>
  <linearGradient id="linearGradient4144" y2="45.017" gradientUnits="userSpaceOnUse" x2="20.759" gradientTransform="matrix(1.0233 0 0 -.93023 23.442 65.395)" y1="1" x1="20.759">
   <stop id="stop3769-2" style="stop-color:#4d4d4d;stop-opacity:.70732" offset="0"/>
   <stop id="stop3771-9" style="stop-color:#4d4d4d;stop-opacity:.31373" offset="1"/>
  </linearGradient>
 </defs>
 <metadata id="metadata2413">
  <rdf:RDF>
   <cc:Work rdf:about="">
    <dc:format>image/svg+xml</dc:format>
    <dc:type rdf:resource="http://purl.org/dc/dcmitype/StillImage"/>
    <dc:title/>
   </cc:Work>
  </rdf:RDF>
 </metadata>
 <g id="layer2" style="display:none">
  <rect id="rect3745" style="opacity:.9;filter:url(#filter3174);fill:url(#ButtonShadow)" rx="6" ry="6" height="85" width="86" y="7" x="5"/>
 </g>
 <g id="layer3">
  <path id="path3786" style="opacity:0.08;fill:url(#linearGradient3780)" d="m12-95.031c-5.5111 0-10.031 4.5202-10.031 10.031v71c0 5.5111 4.5202 10.031 10.031 10.031h72c5.5111 0 10.031-4.5202 10.031-10.031v-71c0-5.5111-4.5202-10.031-10.031-10.031h-72z" transform="scale(1,-1)"/>
  <path id="path3778" style="opacity:.1;fill:url(#linearGradient3780)" d="m12-94.031c-4.9716 0-9.0312 4.0596-9.0312 9.0312v71c0 4.9716 4.0596 9.0312 9.0312 9.0312h72c4.9716 0 9.0312-4.0596 9.0312-9.0312v-71c0-4.9716-4.0596-9.0312-9.0312-9.0312h-72z" transform="scale(1,-1)"/>
  <path id="path3770" style="opacity:.2;fill:url(#linearGradient3780)" d="m12-93c-4.4091 0-8 3.5909-8 8v71c0 4.4091 3.5909 8 8 8h72c4.4091 0 8-3.5909 8-8v-71c0-4.4091-3.5909-8-8-8h-72z" transform="scale(1,-1)"/>
  <rect id="rect3723" style="opacity:.3;fill:url(#linearGradient3780)" transform="scale(1,-1)" rx="7" ry="7" height="85" width="86" y="-92" x="5"/>
  <rect id="rect3716" style="opacity:.45;fill:url(#linearGradient3721)" transform="scale(1,-1)" rx="6" ry="6" height="84" width="84" y="-91" x="6"/>
 </g>
 <g id="layer1">
  <rect id="rect2419" style="fill:url(#linearGradient3617)" transform="scale(1,-1)" rx="6.1" ry="6.1" height="84" width="84" y="-90" x="6"/>
  <path id="rect4359" style="opacity:.2;fill:url(#radialGradient4375)" d="m120.78 6.125c-2.74 0.5576-4.78 2.9665-4.78 5.875v68c0 3.324 2.676 6 6 6h72c3.324 0 6-2.676 6-6v-68c0-2.9085-2.0422-5.3174-4.7812-5.875 2.2051 0.53621 3.8125 2.4908 3.8125 4.875v68c0 2.8049-2.2264 5.0312-5.0312 5.0312h-72c-2.8049 0-5.0312-2.2264-5.0312-5.0312v-68c0-2.3842 1.6074-4.3388 3.8125-4.875z"/>
  <path id="path4412" style="opacity:.15" d="m6 100v1c0 3.324 2.676 6 6 6h72c3.324 0 6-2.676 6-6v-1c0 3.324-2.676 6-6 6h-72c-3.324 0-6-2.676-6-6z"/>
 </g>
 <g id="layer7">
  <g id="g3915" style="opacity:.2;filter:url(#filter3927-5)" clip-path="url(#clipPath3919-4)">
   <path id="path3911" style="opacity:.35656;color:#000000" d="m48 36a16 20 0 1 1 -32 0 16 20 0 1 1 32 0z" transform="matrix(1.25,0,0,1,-12,0)"/>
   <path id="path3913" style="opacity:.2;color:#000000" d="m80 52a24 28 0 1 1 -48 0 24 28 0 1 1 48 0z" transform="matrix(1.1667 0 0 1 -5.3333 0)"/>
  </g>
 </g>
 <g id="layer8">
  <path id="rect4028" style="opacity:.15;fill:#fff" d="m6 73.906v2c0 3.38 2.7144 6.094 6.094 6.094h71.812c3.38 0 6.094-2.714 6.094-6.094v-2c0 3.38-2.714 6.094-6.094 6.094h-71.812c-3.3796 0-6.094-2.714-6.094-6.094z"/>
  <path id="rect4377" style="opacity:.8;fill:url(#linearGradient4390)" d="m12 82c-3.324 0-6-2.676-6-6v-64c0-3.324 2.676-6 6-6h72c3.324 0 6 2.676 6 6v64c0 3.324-2.676 6-6 6zm0-0.96875h72c2.8049 0 5.0312-2.2264 5.0312-5.0312v-64c0-2.8049-2.226-5.0312-5.031-5.0312h-72c-2.8049 0-5.0312 2.2263-5.0312 5.0312v64c0 2.8049 2.2264 5.0312 5.0312 5.0312z"/>
 </g>
 <g id="layer4">
  <path id="path3888" style="opacity:.5;fill:url(#linearGradient3140)" d="m6 76v8c0 3.324 2.676 6 6 6h72c3.324 0 6-2.676 6-6v-8c0 3.324-2.676 6-6 6h-72c-3.324 0-6-2.676-6-6z"/>
  <path id="path4010" style="opacity:.8" d="m6 78v4c0 3.324 2.676 6 6 6h72c3.324 0 6-2.676 6-6v-4c0 3.324-2.676 6-6 6h-72c-3.324 0-6-2.676-6-6z"/>
  <path id="path4054" style="opacity:.4;fill:#fff" d="m6 82v1c0 3.324 2.676 6 6 6h72c3.324 0 6-2.676 6-6v-1c0 3.324-2.676 6-6 6h-72c-3.324 0-6-2.676-6-6z"/>
  <path id="path4059" style="opacity:.2" d="m6 77v1c0 3.324 2.676 6 6 6h72c3.324 0 6-2.676 6-6v-1c0 3.324-2.676 6-6 6h-72c-3.324 0-6-2.676-6-6z"/>
  <path id="path4089" style="opacity:.5;color:#000000;fill:url(#radialGradient4087)" d="m84 85.5a36 0.5 0 1 1 -72 0 36 0.5 0 1 1 72 0z" transform="matrix(1.0833 0 0 8 -4 -579)"/>
  <path id="path4061" style="color:#000000;fill:url(#radialGradient4087)" d="m84 85.5a36 0.5 0 1 1 -72 0 36 0.5 0 1 1 72 0z" transform="matrix(1,0,0,2,0,-66)"/>
  <rect id="rect3323" style="opacity:.6;filter:url(#filter4180);fill:#00aa2c" transform="matrix(1 0 0 0.5 0 44)" rx="6.7435" ry="6" height="6" width="74.179" y="80" x="10.911"/>
  <rect id="rect3311" style="fill:url(#radialGradient4138)" rx="5.8182" ry="3" height="3" width="64" y="84" x="16"/>
 </g>
 <g id="layer5">
  <rect id="rect3171" style="opacity:.2;filter:url(#filter3794);stroke:#fff;stroke-linecap:round;stroke-width:.5;fill:url(#linearGradient3613)" clip-path="url(#clipPath4355)" rx="12" ry="12" height="62" width="66" y="15" x="15"/>
 </g>
 <g id="layer6">
  <path id="rect3267" style="opacity:.7;display:block;fill:url(#linearGradient4144)" d="m44.962 64c-0.86581 0-1.5669-0.65294-1.5669-1.4535v-2.8198c-1.5481-0.37498-3.0274-0.94138-4.3808-1.657l-2.2064 2.0058c-0.31134 0.28304-0.68429 0.43294-1.0872 0.43605-0.40291 0.0031-0.81308-0.1287-1.1192-0.40698l-4.317-3.924c-0.61221-0.55656-0.5907-1.4397 0.03191-2.0058l2.2064-2.0058c-0.78715-1.2304-1.4102-2.5752-1.8227-3.9826h-3.1017c-0.8806 0-1.5988-0.63732-1.5988-1.4244v-5.5233c0-0.7871 0.71823-1.4244 1.5988-1.4244h3.1017c0.41249-1.4074 1.0355-2.7522 1.8227-3.9826l-2.2064-2.0058c-0.62268-0.56608-0.64419-1.4493-0.03191-2.0058l4.3169-3.9244c0.61221-0.55656 1.5837-0.537 2.2064 0.02908l2.2064 2.0058c1.3534-0.71559 2.8327-1.282 4.3808-1.657v-2.8198c0-0.8 0.701-1.453 1.567-1.453h6.0756c0.8658 0 1.5669 0.65294 1.5669 1.4535v2.8198c1.5481 0.37498 3.0274 0.94138 4.3808 1.657l2.2064-2.0058c0.62268-0.56608 1.5942-0.58563 2.2064-0.02908l4.3168 3.9244c0.61221 0.55656 0.5907 1.4397-0.03192 2.0058l-2.2064 2.0058c0.78715 1.2304 1.4102 2.5752 1.8227 3.9826h3.1017c0.8806 0 1.5988 0.63732 1.5988 1.4244v5.5233c0 0.7871-0.71824 1.4244-1.5988 1.4244h-3.1017c-0.41248 1.4074-1.0355 2.7522-1.8227 3.9826l2.2064 2.0058c0.62268 0.56608 0.6442 1.4493 0.03192 2.0058l-4.3168 3.9244c-0.61222 0.55656-1.5837 0.53701-2.2064-0.02908l-2.2064-2.0058c-1.3534 0.71559-2.8327 1.282-4.3808 1.657v2.8198c0 0.80055-0.70105 1.4535-1.5669 1.4535h-6.0756zm3.0378-13.953c3.6714 0 6.6511-2.7088 6.6511-6.0465s-2.9797-6.0465-6.6511-6.0465-6.6511 2.7088-6.6511 6.0465 2.9797 6.0465 6.6511 6.0465z"/>
  <path id="path4053" style="opacity:.05;display:block" d="m44.969 24c-0.86581 0-1.5625 0.6682-1.5625 1.4688v2.8125c-1.548 0.374-3.053 0.94-4.406 1.656l-2.1875-2c-0.62268-0.56608-1.6065-0.58781-2.2188-0.03125l-4.3125 3.9062c-0.61228 0.55656-0.59143 1.4339 0.03125 2l2.2188 2.0312c-0.78715 1.2304-1.4313 2.5614-1.8438 3.9688h-3.0938c-0.879-0.001-1.592 0.65-1.592 1.437v5.5c0 0.7871 0.71315 1.4375 1.5938 1.4375h3.0938c0.41249 1.4074 1.0566 2.7383 1.8438 3.9688l-2.22 2.031c-0.62261 0.56608-0.64346 1.4434-0.03125 2l4.3125 3.9062c0.3061 0.27828 0.72209 0.40935 1.125 0.40625s0.78241-0.15446 1.0938-0.4375l2.1875-2c1.3534 0.71559 2.8581 1.2813 4.4062 1.6562v2.8125c0 0.80055 0.69669 1.4688 1.5625 1.4688h6.0625c0.8658 0 1.5625-0.6682 1.5625-1.4688v-2.8125c1.55-0.376 3.055-0.942 4.408-1.658l2.1875 2c0.62268 0.56609 1.6065 0.58781 2.2188 0.03125l4.3125-3.9062c0.61228-0.55656 0.59143-1.4339-0.03125-2l-2.2188-2.0312c0.78715-1.2304 1.4313-2.5614 1.8438-3.9688h3.0938c0.879 0.001 1.592-0.65 1.592-1.437v-5.5c0-0.7871-0.71316-1.4375-1.5938-1.4375h-3.0938c-0.412-1.407-1.056-2.738-1.843-3.968l2.219-2.032c0.62262-0.56608 0.64346-1.4434 0.03125-2l-4.3125-3.9062c-0.612-0.556-1.596-0.535-2.218 0.032l-2.1875 2c-1.3534-0.71559-2.8581-1.2813-4.4062-1.6562v-2.8125c0-0.802-0.697-1.47-1.563-1.47h-6.0625zm0 0.96875h6.0625c0.36816 0 0.59375 0.26061 0.59375 0.5v2.8125a0.96732 0.96732 0 0 0 0.75 0.9375c1.4712 0.35634 2.9097 0.88691 4.1875 1.5625a0.96732 0.96732 0 0 0 1.0938 -0.125l2.1875-2c0.254-0.234 0.683-0.233 0.904-0.032l4.3125 3.9062c0.22976 0.20888 0.23126 0.32383-0.03125 0.5625l-2.219 2.031a0.96732 0.96732 0 0 0 -0.15625 1.25c0.74559 1.1655 1.3364 2.4142 1.7188 3.7188a0.96732 0.96732 0 0 0 0.9375 0.6875h3.0938c0.40434 0 0.625 0.26588 0.625 0.46875v5.5c0 0.20286-0.22066 0.46875-0.625 0.46875h-3.0938a0.96732 0.96732 0 0 0 -0.9375 0.6875c-0.38233 1.3045-0.97316 2.5533-1.7188 3.7188a0.96732 0.96732 0 0 0 0.15625 1.25l2.2188 2.0312c0.26256 0.23869 0.26106 0.3536 0.03125 0.5625l-4.311 3.905c-0.22131 0.20119-0.64968 0.202-0.90625-0.03125l-2.1875-2a0.96732 0.96732 0 0 0 -1.0938 -0.125c-1.2778 0.67559-2.7163 1.2062-4.1875 1.5625a0.96732 0.96732 0 0 0 -0.75 0.9375v2.8125c0 0.23939-0.22559 0.5-0.59375 0.5h-6.0625c-0.36817 0-0.59375-0.26061-0.59375-0.5v-2.8125a0.96732 0.96732 0 0 0 -0.75 -0.9375c-1.4712-0.35634-2.9097-0.88691-4.1875-1.5625a0.96732 0.96732 0 0 0 -1.0938 0.125l-2.1875 2c-0.14887 0.13534-0.27213 0.18623-0.4375 0.1875-0.185 0.001-0.371-0.07-0.466-0.157l-4.3125-3.9062c-0.22976-0.20887-0.23126-0.32383 0.03125-0.5625l2.219-2.031a0.96732 0.96732 0 0 0 0.15625 -1.25c-0.746-1.165-1.337-2.414-1.719-3.719a0.96732 0.96732 0 0 0 -0.9375 -0.6875h-3.0938c-0.40435 0-0.625-0.26588-0.625-0.46875v-5.5c0-0.20287 0.22065-0.46875 0.625-0.46875h3.0938a0.96732 0.96732 0 0 0 0.9375 -0.6875c0.38234-1.3045 0.97316-2.5533 1.7188-3.7188a0.96732 0.96732 0 0 0 -0.15625 -1.25l-2.2188-2.0312c-0.26256-0.23869-0.26106-0.3536-0.03125-0.5625l4.311-3.905c0.22129-0.20118 0.64969-0.20199 0.90625 0.03125l2.1875 2a0.96732 0.96732 0 0 0 1.0938 0.125c1.2778-0.67559 2.7163-1.2062 4.1875-1.5625a0.96732 0.96732 0 0 0 0.75 -0.9375v-2.8125c0-0.23939 0.22558-0.5 0.59375-0.5zm3.031 12.031c-4.1445 0-7.625 3.0857-7.625 7s3.4805 7 7.625 7 7.625-3.0857 7.625-7-3.4805-7-7.625-7zm0 0.96875c3.6714 0 6.6562 2.6936 6.6562 6.0312 0 3.3377-2.9848 6.0312-6.6562 6.0312s-6.6562-2.6936-6.6562-6.0312c0-3.3377 2.9848-6.0312 6.6562-6.0312z"/>
  <path id="path4044" style="opacity:.2;display:block" d="m44.969 24c-0.86581 0-1.5625 0.6682-1.5625 1.4688v1c0-0.801 0.697-1.469 1.563-1.469h6.0625c0.8658 0 1.5625 0.6682 1.5625 1.4688v-1c0-0.801-0.697-1.469-1.563-1.469h-6.0625zm-9.5625 3.5c-0.29329 0.04824-0.58292 0.19754-0.8125 0.40625l-4.3125 3.9062c-0.43929 0.39931-0.54491 0.97092-0.34375 1.4688 0.07436-0.16991 0.19068-0.32961 0.34375-0.46875l4.3125-3.9062c0.61221-0.55656 1.5961-0.53483 2.2188 0.03125l2.1875 2c1.3534-0.71559 2.8581-1.2813 4.4062-1.6562v-1c-1.548 0.375-3.053 0.941-4.406 1.657l-2.1875-2c-0.389-0.354-0.917-0.518-1.406-0.438zm24.906 0c-0.39724 0.0061-0.81366 0.15446-1.125 0.4375l-2.1875 2c-1.3534-0.71559-2.8581-1.2813-4.4062-1.6562v1c1.548 0.374 3.053 0.94 4.406 1.656l2.1875-2c0.62268-0.56608 1.6065-0.5878 2.2188-0.03125l4.3125 3.9062c0.15305 0.13914 0.2694 0.29884 0.34375 0.46875 0.20114-0.49783 0.09549-1.0694-0.34375-1.4688l-4.3125-3.9062c-0.308-0.279-0.698-0.413-1.096-0.407zm-28.156 9c-0.60307 1.0492-1.1275 2.1483-1.4688 3.3125h-3.0938c-0.88 0-1.593 0.651-1.593 1.438v1c0-0.7871 0.71315-1.4375 1.5938-1.4375h3.0938c0.41249-1.4074 1.0566-2.7383 1.8438-3.9688l-0.376-0.343zm31.688 0-0.375 0.34375c0.78715 1.2304 1.4313 2.5614 1.8438 3.9688h3.0938c0.88-0.001 1.593 0.65 1.593 1.437v-1c0-0.7871-0.71316-1.4375-1.5938-1.4375h-3.0938c-0.341-1.164-0.865-2.263-1.468-3.312zm-22.469 8.125c-0.0083 0.12349-0.03125 0.24963-0.03125 0.375 0 3.3377 2.9848 6.0312 6.6562 6.0312s6.6562-2.6936 6.6562-6.0312c0-0.12537-0.02296-0.25151-0.03125-0.375-0.34081 3.0478-3.183 5.4062-6.625 5.4062s-6.2842-2.3585-6.625-5.4062zm-9.219 7.875-1.844 1.688c-0.46696 0.42456-0.59804 1.0215-0.375 1.5312 0.07921-0.19604 0.19909-0.37131 0.375-0.53125l2.2188-2.0312c-0.136-0.213-0.249-0.438-0.375-0.657zm31.688 0c-0.12598 0.21917-0.23899 0.44364-0.375 0.65625l2.2188 2.0312c0.17593 0.15994 0.29578 0.33521 0.375 0.53125 0.22306-0.50973 0.09201-1.1067-0.375-1.5312l-1.844-1.687z"/>
  <path id="path4067" style="filter:url(#filter4118);display:block;fill:#fff" clip-path="url(#clipPath4114)" d="m44.962 64c-0.86581 0-1.5669-0.65294-1.5669-1.4535v-2.8198c-1.5481-0.37498-3.0274-0.94138-4.3808-1.657l-2.2064 2.0058c-0.31134 0.28304-0.68429 0.43294-1.0872 0.43605-0.40291 0.0031-0.81308-0.1287-1.1192-0.40698l-4.317-3.924c-0.61221-0.55656-0.5907-1.4397 0.03191-2.0058l2.2064-2.0058c-0.78715-1.2304-1.4102-2.5752-1.8227-3.9826h-3.1017c-0.8806 0-1.5988-0.63732-1.5988-1.4244v-5.5233c0-0.7871 0.71823-1.4244 1.5988-1.4244h3.1017c0.41249-1.4074 1.0355-2.7522 1.8227-3.9826l-2.2064-2.0058c-0.62268-0.56608-0.64419-1.4493-0.03191-2.0058l4.3169-3.9244c0.61221-0.55656 1.5837-0.537 2.2064 0.02908l2.2064 2.0058c1.3534-0.71559 2.8327-1.282 4.3808-1.657v-2.8198c0-0.8 0.701-1.453 1.567-1.453h6.0756c0.8658 0 1.5669 0.65294 1.5669 1.4535v2.8198c1.5481 0.37498 3.0274 0.94138 4.3808 1.657l2.2064-2.0058c0.62268-0.56608 1.5942-0.58563 2.2064-0.02908l4.3168 3.9244c0.61221 0.55656 0.5907 1.4397-0.03192 2.0058l-2.2064 2.0058c0.78715 1.2304 1.4102 2.5752 1.8227 3.9826h3.1017c0.8806 0 1.5988 0.63732 1.5988 1.4244v5.5233c0 0.7871-0.71824 1.4244-1.5988 1.4244h-3.1017c-0.41248 1.4074-1.0355 2.7522-1.8227 3.9826l2.2064 2.0058c0.62268 0.56608 0.6442 1.4493 0.03192 2.0058l-4.3168 3.9244c-0.61222 0.55656-1.5837 0.53701-2.2064-0.02908l-2.2064-2.0058c-1.3534 0.71559-2.8327 1.282-4.3808 1.657v2.8198c0 0.80055-0.70105 1.4535-1.5669 1.4535h-6.0756zm3.0378-13.953c3.6714 0 6.6511-2.7088 6.6511-6.0465s-2.9797-6.0465-6.6511-6.0465-6.6511 2.7088-6.6511 6.0465 2.9797 6.0465 6.6511 6.0465z"/>
 </g>
</svg>
