<?xml version="1.0" encoding="UTF-8" standalone="no"?>
<!-- Created with Inkscape (http://www.inkscape.org/) -->
<svg id="svg2408" xmlns:rdf="http://www.w3.org/1999/02/22-rdf-syntax-ns#" xmlns="http://www.w3.org/2000/svg" height="96" width="96" version="1.0" xmlns:cc="http://creativecommons.org/ns#" xmlns:xlink="http://www.w3.org/1999/xlink" xmlns:dc="http://purl.org/dc/elements/1.1/">
 <defs id="defs2410">
  <linearGradient id="ButtonShadow" y2="7.0165" gradientUnits="userSpaceOnUse" x2="45.448" gradientTransform="scale(1.0059 .99417)" y1="92.54" x1="45.448">
   <stop id="stop3750" offset="0"/>
   <stop id="stop3752" style="stop-opacity:.58824" offset="1"/>
  </linearGradient>
  <filter id="filter3174" color-interpolation-filters="sRGB">
   <feGaussianBlur id="feGaussianBlur3176" stdDeviation="1.71"/>
  </filter>
  <filter id="filter3794" height="1.384" width="1.384" color-interpolation-filters="sRGB" y="-.192" x="-.192">
   <feGaussianBlur id="feGaussianBlur3796" stdDeviation="5.28"/>
  </filter>
  <linearGradient id="linearGradient3613" y2="138.66" gradientUnits="userSpaceOnUse" x2="48" y1="20.221" x1="48">
   <stop id="stop3739" style="stop-color:#fff" offset="0"/>
   <stop id="stop3741" style="stop-color:#fff;stop-opacity:0" offset="1"/>
  </linearGradient>
  <linearGradient id="linearGradient3617" y2="-8" gradientUnits="userSpaceOnUse" x2="32" gradientTransform="translate(0,-96)" y1="88" x1="32">
   <stop id="stop4329" style="stop-color:#f0f0f0" offset="0"/>
   <stop id="stop4331" style="stop-color:#b4b4b4" offset="1"/>
  </linearGradient>
  <linearGradient id="ButtonShadow-0" y2="7.0165" gradientUnits="userSpaceOnUse" x2="45.448" gradientTransform="matrix(1.0059 0 0 .99417 100 0)" y1="92.54" x1="45.448">
   <stop id="stop3750-8" offset="0"/>
   <stop id="stop3752-5" style="stop-opacity:.58824" offset="1"/>
  </linearGradient>
  <linearGradient id="linearGradient3780" y2="90.239" xlink:href="#ButtonShadow-0" gradientUnits="userSpaceOnUse" x2="32.251" gradientTransform="matrix(1.0238 0 0 1.0119 -1.1429 -98.071)" y1="6.1317" x1="32.251"/>
  <linearGradient id="linearGradient3721" y2="90.239" xlink:href="#ButtonShadow-0" gradientUnits="userSpaceOnUse" x2="32.251" gradientTransform="translate(0,-97)" y1="6.1317" x1="32.251"/>
  <clipPath id="clipPath4355">
   <rect id="rect4357" style="fill:#fff" rx="6" ry="6" height="80" width="84" y="6" x="6"/>
  </clipPath>
  <radialGradient id="radialGradient4375" gradientUnits="userSpaceOnUse" cy="87.792" cx="48" gradientTransform="matrix(1 -6.7115e-8 8.4282e-8 1.2558 110 -24.506)" r="42">
   <stop id="stop4369" style="stop-color:#fff;stop-opacity:.71756" offset="0"/>
   <stop id="stop4371" style="stop-color:#fff" offset="1"/>
  </radialGradient>
  <linearGradient id="linearGradient4390" y2="-40" gradientUnits="userSpaceOnUse" x2="48" gradientTransform="matrix(1,0,0,-1,0,92)" y1="88" x1="48">
   <stop id="stop4386" style="stop-color:#fff" offset="0"/>
   <stop id="stop4388" style="stop-color:#fff;stop-opacity:0" offset="1"/>
  </linearGradient>
  <linearGradient id="linearGradient3140" y2="88" spreadMethod="reflect" gradientUnits="userSpaceOnUse" x2="48" y1="88" x1="90">
   <stop id="stop3894-4" style="stop-opacity:.58824" offset="0"/>
   <stop id="stop3896-3" style="stop-opacity:.47059" offset=".11780"/>
   <stop id="stop3898-3" style="stop-opacity:.39216" offset=".23810"/>
   <stop id="stop3900-6" style="stop-opacity:.31373" offset="1"/>
  </linearGradient>
  <clipPath id="clipPath3919-4">
   <rect id="rect3921-3" style="fill:#f0f" transform="scale(1,-1)" rx="6.1" ry="6.1" height="76" width="84" y="-82" x="6"/>
  </clipPath>
  <filter id="filter3927-5" height="1.54" width="1.432" color-interpolation-filters="sRGB" y="-0.27" x="-0.216">
   <feGaussianBlur id="feGaussianBlur3929-0" stdDeviation="7.2000001"/>
  </filter>
  <linearGradient id="linearGradient3208" y2="66" gradientUnits="userSpaceOnUse" x2="16.92" gradientTransform="matrix(0 .70588 -.8125 0 101.62 8)" y1="66" x1="85">
   <stop id="stop3769" style="stop-color:#4d4d4d;stop-opacity:.70732" offset="0"/>
   <stop id="stop3771" style="stop-color:#4d4d4d;stop-opacity:.31373" offset="1"/>
  </linearGradient>
  <clipPath id="clipPath3532">
   <path id="path3534" style="fill:#fff" d="m12-14c-3.324 0-6 2.676-6 6v58c0 3.324 2.676 6 6 6h72c3.324 0 6-2.676 6-6v-58c0-3.324-2.676-6-6-6h-72zm53.281 10 8.719 7.5625-10.938 9.3435-8.718-7.4685 10.937-9.4375zm-33.312 0.375 3.3438 2.8125-10 8.6562l-3.313-2.8749 9.969-8.5938zm6.656 5.6875 3.313 2.8437-9.969 8.5938-3.313-2.844 9.969-8.5935zm9.2188 7.3125c5.9007-0.000001 10.688 4.1339 10.688 9.2188-0.000002 5.0849-4.7861 9.1875-10.688 9.1875-5.9014-0.00059-10.688-4.1032-10.688-9.1875s4.7861-9.2188 10.688-9.2188zm0 4.0625c-3.3048-0.000002-6 2.3099-6 5.1562-0.000684 2.8481 2.6952 5.1562 6 5.1562 3.3062-0.000001 5.9688-2.3081 5.9688-5.1562-0.000002-2.8464-2.6626-5.1562-5.9688-5.1562zm-7.0625 18.406h14.125v4.0625h-14.125v-4.0625zm0 8.0938h14.125v4.0625h-14.125v-4.0625z"/>
  </clipPath>
  <filter id="filter3548" height="1.2496" width="1.2311" color-interpolation-filters="sRGB" y="-.1248" x="-.11556">
   <feGaussianBlur id="feGaussianBlur3550" stdDeviation="2.6"/>
  </filter>
  <filter id="filter4180-9" height="3.8298" width="1.2289" color-interpolation-filters="sRGB" y="-1.4149" x="-.11445">
   <feGaussianBlur id="feGaussianBlur4182-7" stdDeviation="3.5372897"/>
  </filter>
  <radialGradient id="radialGradient4138-7" gradientUnits="userSpaceOnUse" cy="84" cx="48" gradientTransform="matrix(1.0667 0 0 0.05 -3.2 81.3)" r="30">
   <stop id="stop3177-4" style="stop-color:#7bff9d" offset="0"/>
   <stop id="stop3179-8" style="stop-color:#2ea04c;stop-opacity:0" offset="1"/>
  </radialGradient>
 </defs>
 <metadata id="metadata2413">
  <rdf:RDF>
   <cc:Work rdf:about="">
    <dc:format>image/svg+xml</dc:format>
    <dc:type rdf:resource="http://purl.org/dc/dcmitype/StillImage"/>
    <dc:title/>
   </cc:Work>
  </rdf:RDF>
 </metadata>
 <g id="layer2" style="display:none">
  <rect id="rect3745" style="opacity:.9;filter:url(#filter3174);fill:url(#ButtonShadow)" rx="6" ry="6" height="85" width="86" y="7" x="5"/>
 </g>
 <g id="layer3">
  <path id="path3786" style="opacity:0.08;fill:url(#linearGradient3780)" d="m12-95.031c-5.5111 0-10.031 4.5202-10.031 10.031v71c0 5.5111 4.5202 10.031 10.031 10.031h72c5.5111 0 10.031-4.5202 10.031-10.031v-71c0-5.5111-4.5202-10.031-10.031-10.031h-72z" transform="scale(1,-1)"/>
  <path id="path3778" style="opacity:.1;fill:url(#linearGradient3780)" d="m12-94.031c-4.9716 0-9.0312 4.0596-9.0312 9.0312v71c0 4.9716 4.0596 9.0312 9.0312 9.0312h72c4.9716 0 9.0312-4.0596 9.0312-9.0312v-71c0-4.9716-4.0596-9.0312-9.0312-9.0312h-72z" transform="scale(1,-1)"/>
  <path id="path3770" style="opacity:.2;fill:url(#linearGradient3780)" d="m12-93c-4.4091 0-8 3.5909-8 8v71c0 4.4091 3.5909 8 8 8h72c4.4091 0 8-3.5909 8-8v-71c0-4.4091-3.5909-8-8-8h-72z" transform="scale(1,-1)"/>
  <rect id="rect3723" style="opacity:.3;fill:url(#linearGradient3780)" transform="scale(1,-1)" rx="7" ry="7" height="85" width="86" y="-92" x="5"/>
  <rect id="rect3716" style="opacity:.45;fill:url(#linearGradient3721)" transform="scale(1,-1)" rx="6" ry="6" height="84" width="84" y="-91" x="6"/>
 </g>
 <g id="layer1">
  <rect id="rect2419" style="fill:url(#linearGradient3617)" transform="scale(1,-1)" rx="6.1" ry="6.1" height="84" width="84" y="-90" x="6"/>
  <path id="rect4359" style="opacity:.2;fill:url(#radialGradient4375)" d="m120.78 6.125c-2.74 0.5576-4.78 2.9665-4.78 5.875v68c0 3.324 2.676 6 6 6h72c3.324 0 6-2.676 6-6v-68c0-2.9085-2.0422-5.3174-4.7812-5.875 2.2051 0.53621 3.8125 2.4908 3.8125 4.875v68c0 2.8049-2.2264 5.0312-5.0312 5.0312h-72c-2.8049 0-5.0312-2.2264-5.0312-5.0312v-68c0-2.3842 1.6074-4.3388 3.8125-4.875z"/>
  <path id="path4412" style="opacity:.15" d="m6 100v1c0 3.324 2.676 6 6 6h72c3.324 0 6-2.676 6-6v-1c0 3.324-2.676 6-6 6h-72c-3.324 0-6-2.676-6-6z"/>
 </g>
 <g id="layer7">
  <g id="g3915" style="opacity:.2;filter:url(#filter3927-5)" clip-path="url(#clipPath3919-4)">
   <path id="path3911" style="opacity:.35656;color:#000000" d="m48 36a16 20 0 1 1 -32 0 16 20 0 1 1 32 0z" transform="matrix(1.25,0,0,1,-12,0)"/>
   <path id="path3913" style="opacity:.2;color:#000000" d="m80 52a24 28 0 1 1 -48 0 24 28 0 1 1 48 0z" transform="matrix(1.1667 0 0 1 -5.3333 0)"/>
  </g>
 </g>
 <g id="layer8">
  <path id="rect4028" style="opacity:.15;fill:#fff" d="m6 73.906v2c0 3.38 2.7144 6.094 6.094 6.094h71.812c3.38 0 6.094-2.714 6.094-6.094v-2c0 3.38-2.714 6.094-6.094 6.094h-71.812c-3.3796 0-6.094-2.714-6.094-6.094z"/>
  <path id="rect4377" style="opacity:.8;fill:url(#linearGradient4390)" d="m12 82c-3.324 0-6-2.676-6-6v-64c0-3.324 2.676-6 6-6h72c3.324 0 6 2.676 6 6v64c0 3.324-2.676 6-6 6zm0-0.96875h72c2.8049 0 5.0312-2.2264 5.0312-5.0312v-64c0-2.8049-2.226-5.0312-5.031-5.0312h-72c-2.8049 0-5.0312 2.2263-5.0312 5.0312v64c0 2.8049 2.2264 5.0312 5.0312 5.0312z"/>
 </g>
 <g id="layer4">
  <path id="path3888" style="opacity:.5;fill:url(#linearGradient3140)" d="m6 76v8c0 3.324 2.676 6 6 6h72c3.324 0 6-2.676 6-6v-8c0 3.324-2.676 6-6 6h-72c-3.324 0-6-2.676-6-6z"/>
  <path id="path4010" style="opacity:.8" d="m6 78v4c0 3.324 2.676 6 6 6h72c3.324 0 6-2.676 6-6v-4c0 3.324-2.676 6-6 6h-72c-3.324 0-6-2.676-6-6z"/>
  <path id="path4054" style="opacity:.4;fill:#fff" d="m6 82v1c0 3.324 2.676 6 6 6h72c3.324 0 6-2.676 6-6v-1c0 3.324-2.676 6-6 6h-72c-3.324 0-6-2.676-6-6z"/>
  <path id="path4059" style="opacity:.2" d="m6 77v1c0 3.324 2.676 6 6 6h72c3.324 0 6-2.676 6-6v-1c0 3.324-2.676 6-6 6h-72c-3.324 0-6-2.676-6-6z"/>
  <rect id="rect3323" style="opacity:.6;filter:url(#filter4180-9);fill:#00aa2c" transform="matrix(1 0 0 0.5 3.7195e-8 44)" rx="6.7435" ry="6" height="6" width="74.179" y="80" x="10.911"/>
  <rect id="rect3311" style="fill:url(#radialGradient4138-7)" rx="5.8182" ry="3" height="3" width="64" y="84" x="16"/>
 </g>
 <g id="layer5">
  <rect id="rect3171" style="opacity:.2;filter:url(#filter3794);stroke:#fff;stroke-linecap:round;stroke-width:.5;fill:url(#linearGradient3613)" clip-path="url(#clipPath4355)" rx="12" ry="12" height="62" width="66" y="15" x="15"/>
 </g>
 <g id="layer6">
  <path id="path2582" style="opacity:.7;fill:url(#linearGradient3208)" d="m37.156 42.587c0-5.0843 4.7842-9.2072 10.686-9.2072 5.9007 0 10.685 4.1223 10.685 9.2072s-4.7836 9.209-10.685 9.209c-5.9014-0.000589-10.686-4.1247-10.686-9.209m10.686 5.1569c3.3062 0 5.9822-2.3087 5.9822-5.1569 0-2.8464-2.676-5.1575-5.9822-5.1575-3.3048 0-5.9829 2.3111-5.9829 5.1575-0.000685 2.8481 2.6781 5.1569 5.9829 5.1569zm-7.0541 8.1024h14.103v4.0497h-14.103v-4.0497zm0 8.1h14.103v4.0533h-14.103v-4.0533zm-12.14-29.302 3.3253 2.8676 9.9747-8.5952-3.3247-2.867-9.9753 8.5946m-6.648-5.682 3.323 2.867 9.976-8.644-3.326-2.818-9.973 8.595m43.29-8.963-10.952 9.436 8.71 7.458 10.952-9.342-8.71-7.552"/>
  <path id="path4001" style="opacity:.05" d="m65.281 20-10.937 9.438 8.718 7.468 10.938-9.344-8.719-7.562zm-33.312 0.375-9.969 8.594l3.3125 2.875 10-8.6562-3.3438-2.8125zm33.312 0.65625 7.5312 6.5312-9.75 8.3125-7.5312-6.4375 9.75-8.4062zm-33.312 0.375 2.1562 1.7812-8.8125 7.625-2.125-1.8438 8.7812-7.5625zm6.656 4.656-9.969 8.594 3.313 2.844 9.969-8.594-3.313-2.844zm0 1.0312 2.125 1.8125-8.7812 7.5625-2.125-1.8125 8.7812-7.5625zm9.2188 6.2812c-5.9014 0-10.688 4.1345-10.688 9.2188s4.7861 9.1869 10.688 9.1875c5.9014 0 10.688-4.1026 10.688-9.1875s-4.7868-9.2188-10.688-9.2188zm0 0.78125c5.5429 0 9.9062 3.8334 9.9062 8.4375 0 4.606-4.36 8.408-9.906 8.408-5.547-0.001-9.906-3.803-9.906-8.406 0-4.6036 4.3627-8.4375 9.9062-8.4375zm0 2.5c-3.6617 0-6.7812 2.6076-6.7812 5.9375-0.000801 3.3316 3.1198 5.9375 6.7812 5.9375 3.6627 0 6.75-2.612 6.75-5.9375 0-3.3241-3.087-5.9375-6.75-5.9375zm0 0.78125c3.3062 0 5.9688 2.3099 5.9688 5.1562 0 2.8481-2.6626 5.1562-5.9688 5.1562-3.3048 0-6.0007-2.3081-6-5.1562 0-2.8464 2.6952-5.1562 6-5.1562zm-7.0625 18.406v4.0625h14.125v-4.0625h-14.125zm0.78125 0.78125h12.562v2.5h-12.562v-2.5zm-0.78125 7.3125v4.0625h14.125v-4.0625h-14.125zm0.78125 0.78125h12.562v2.5h-12.562v-2.5z"/>
  <path id="path3991" style="opacity:.2" d="m65.281 20-10.938 9.4375 0.59375 0.5l10.344-8.938 8.125 7.062 0.594-0.5-8.719-7.562zm-33.312 0.375-9.969 8.594l0.5625 0.5 9.4062-8.0938 2.75 2.3125 0.59375-0.5-3.3438-2.8125zm6.6562 5.6875-9.9688 8.5938 0.59375 0.5 9.375-8.0938 2.7188 2.3438 0.59375-0.5-3.3125-2.8438zm9.2188 7.3125c-5.9014 0-10.688 4.1345-10.688 9.2188 0 0.16943 0.02076 0.33282 0.03125 0.5 0.3043-4.8495 4.9515-8.7188 10.656-8.7188 5.704 0 10.352 3.8687 10.656 8.7188 0.01049-0.1672 0.03125-0.33055 0.03125-0.5 0-5.0849-4.7868-9.2188-10.688-9.2188zm-5.9688 9.75c-0.01596 0.15348-0.03125 0.31171-0.03125 0.46875-0.000685 2.8481 2.6952 5.1562 6 5.1562 3.3062 0 5.9688-2.3081 5.9688-5.1562 0-0.15704-0.0153-0.31527-0.03125-0.46875-0.3061 2.6004-2.838 4.625-5.9375 4.625-3.0982 0-5.6629-2.0246-5.9688-4.625zm-1.0938 12.719v1h14.125v-1h-14.125zm0 8.0938v1h14.125v-1h-14.125z"/>
  <path id="path3521" style="opacity:.8;filter:url(#filter3548);stroke:#fff;stroke-width:2;fill:none" d="m37.156 18.587c0-5.0843 4.7842-9.2072 10.686-9.2072 5.9007 0 10.685 4.1223 10.685 9.2072s-4.7836 9.209-10.685 9.209c-5.9014-0.000589-10.686-4.1247-10.686-9.209m10.686 5.1569c3.3062 0 5.9822-2.3087 5.9822-5.1569 0-2.8464-2.676-5.1575-5.9822-5.1575-3.3048 0-5.9829 2.3111-5.9829 5.1575-0.000685 2.8481 2.6781 5.1569 5.9829 5.1569zm-7.0541 8.1024h14.103v4.0497h-14.103v-4.0497zm0 8.1h14.103v4.0533h-14.103v-4.0533zm-12.14-29.302 3.3253 2.8676 9.9747-8.5952-3.3247-2.867-9.9753 8.5946m-6.648-5.6811 3.323 2.867 9.976-8.6436-3.326-2.8186-9.973 8.5952m43.29-8.9629-10.952 9.4362 8.71 7.4578 10.952-9.3416-8.71-7.5524" clip-path="url(#clipPath3532)" transform="translate(-2.2888e-7 24)"/>
 </g>
</svg>
