<?xml version="1.0" encoding="UTF-8" standalone="no"?>
<!-- Created with Inkscape (http://www.inkscape.org/) -->
<svg id="svg2" xmlns:rdf="http://www.w3.org/1999/02/22-rdf-syntax-ns#" xmlns="http://www.w3.org/2000/svg" height="16" width="16" version="1.0" xmlns:cc="http://creativecommons.org/ns#" xmlns:xlink="http://www.w3.org/1999/xlink" xmlns:dc="http://purl.org/dc/elements/1.1/">
 <metadata id="metadata7">
  <rdf:RDF>
   <cc:Work rdf:about="">
    <dc:format>image/svg+xml</dc:format>
    <dc:type rdf:resource="http://purl.org/dc/dcmitype/StillImage"/>
    <dc:title/>
   </cc:Work>
  </rdf:RDF>
 </metadata>
 <g id="layer1" transform="translate(0,-6)">
  <path id="path3929" style="fill:#bebebe" d="m2.4062 0c-0.8464 0.037895-1.4754 0.86372-1.4062 1.6875v12.968c0.044 0.854 0.9042 1.447 1.7188 1.344 2.9652-0.003 6.9411 0.01 9.9062 0 0.851-0.031 1.452-0.869 1.375-1.688v-12.812c0.034-0.86824-0.777-1.5763-1.625-1.5-2.9887 0.00371-6.9803-0.01296-9.9688 0zm5.0938 1c3.038 0 5.5 2.4624 5.5 5.5 0 2.964-2.346 5.385-5.2812 5.5l-0.0313 0.188a0.98961 0.98961 0 0 1 -0.125 0.312c-0.8182 1.417-2.6522 1.877-4.0625 1.062-1.4172-0.818-1.8767-2.652-1.0625-4.062a0.98961 0.98961 0 0 1 0.1875 -0.25l0.0625-0.0625c-0.4446-0.7938-0.6875-1.7129-0.6875-2.6875 0-3.0376 2.4624-5.5 5.5-5.5zm0.5 4.8125l-4.7188 4.1875c-0.5522 0.957-0.2378 2.166 0.7188 2.719 0.9566 0.552 2.1665 0.238 2.7188-0.719l1.2812-6.1875z" transform="translate(0,6)"/>
  <path id="path3952" style="opacity:.45;color:#000000;fill:#bebebe" d="m12 6.5c0 2.4853-2.0147 4.5-4.5 4.5s-4.5-2.0147-4.5-4.5 2.0147-4.5 4.5-4.5 4.5 2.0147 4.5 4.5z" transform="translate(0,6)"/>
  <path id="path3963" d="m-5.9948 7.4885c0.03424-0.86824-0.77719-1.5763-1.625-1.5-2.9887 0.00371-6.9803-0.01296-9.9688 0-0.84642 0.037895-1.4755 0.86372-1.4062 1.6875v12.969c0.04404 0.8535 0.90423 1.4463 1.7188 1.3438 2.9652-0.0028 6.9411 0.0096 9.9062 0 0.85091-0.03063 1.4524-0.86892 1.375-1.6875z" style="fill:#bebebe"/>
  <path id="path3965" style="opacity:.35;color:#000000;fill:#1a1a1a" d="m12 6.5c0 2.4853-2.0147 4.5-4.5 4.5s-4.5-2.0147-4.5-4.5 2.0147-4.5 4.5-4.5 4.5 2.0147 4.5 4.5z" transform="translate(-20,6)"/>
  <path id="path3967" d="m-12 11.804-4.732 4.196c-0.55228 0.95658-0.22453 2.1798 0.73205 2.7321 0.95658 0.55228 2.1798 0.22453 2.7321-0.73205l1.268-6.196z"/>
  <path id="path3969" d="m7.9688 10.812a0.98961 0.98961 0 0 0 -0.625 0.25l-4.7188 4.188a0.98961 0.98961 0 0 0 -0.1875 0.25c-0.8142 1.41-0.3547 3.244 1.0625 4.062 1.4103 0.815 3.2443 0.355 4.0625-1.062a0.98961 0.98961 0 0 0 0.125 -0.3125l1.2813-6.188a0.98961 0.98961 0 0 0 -1 -1.1875z" transform="translate(-20)"/>
 </g>
</svg>
