<?xml version="1.0" encoding="UTF-8" standalone="no"?>
<!-- Created with Inkscape (http://www.inkscape.org/) -->
<svg id="svg2408" xmlns:rdf="http://www.w3.org/1999/02/22-rdf-syntax-ns#" xmlns="http://www.w3.org/2000/svg" height="96" width="96" version="1.0" xmlns:cc="http://creativecommons.org/ns#" xmlns:xlink="http://www.w3.org/1999/xlink" xmlns:dc="http://purl.org/dc/elements/1.1/">
 <defs id="defs2410">
  <linearGradient id="linearGradient3901">
   <stop id="stop3903" style="stop-color:#a2dfff" offset="0"/>
   <stop id="stop3905" style="stop-color:#006dff;stop-opacity:0" offset="1"/>
  </linearGradient>
  <linearGradient id="ButtonShadow" y2="7.0165" gradientUnits="userSpaceOnUse" x2="45.448" gradientTransform="scale(1.0059 .99417)" y1="92.54" x1="45.448">
   <stop id="stop3750" offset="0"/>
   <stop id="stop3752" style="stop-opacity:.58824" offset="1"/>
  </linearGradient>
  <filter id="filter3174" color-interpolation-filters="sRGB">
   <feGaussianBlur id="feGaussianBlur3176" stdDeviation="1.71"/>
  </filter>
  <filter id="filter3794" height="1.384" width="1.384" color-interpolation-filters="sRGB" y="-.192" x="-.192">
   <feGaussianBlur id="feGaussianBlur3796" stdDeviation="5.28"/>
  </filter>
  <linearGradient id="linearGradient3613" y2="138.66" gradientUnits="userSpaceOnUse" x2="48" y1="20.221" x1="48">
   <stop id="stop3739" style="stop-color:#fff" offset="0"/>
   <stop id="stop3741" style="stop-color:#fff;stop-opacity:0" offset="1"/>
  </linearGradient>
  <linearGradient id="linearGradient3617" y2="-8" gradientUnits="userSpaceOnUse" x2="32" gradientTransform="translate(0,-96)" y1="88" x1="32">
   <stop id="stop4329" style="stop-color:#f0f0f0" offset="0"/>
   <stop id="stop4331" style="stop-color:#b4b4b4" offset="1"/>
  </linearGradient>
  <linearGradient id="ButtonShadow-0" y2="7.0165" gradientUnits="userSpaceOnUse" x2="45.448" gradientTransform="matrix(1.0059 0 0 .99417 100 0)" y1="92.54" x1="45.448">
   <stop id="stop3750-8" offset="0"/>
   <stop id="stop3752-5" style="stop-opacity:.58824" offset="1"/>
  </linearGradient>
  <linearGradient id="linearGradient3780" y2="90.239" xlink:href="#ButtonShadow-0" gradientUnits="userSpaceOnUse" x2="32.251" gradientTransform="matrix(1.0238 0 0 1.0119 -1.1429 -98.071)" y1="6.1317" x1="32.251"/>
  <linearGradient id="linearGradient3721" y2="90.239" xlink:href="#ButtonShadow-0" gradientUnits="userSpaceOnUse" x2="32.251" gradientTransform="translate(0,-97)" y1="6.1317" x1="32.251"/>
  <clipPath id="clipPath4355">
   <rect id="rect4357" style="fill:#fff" rx="6" ry="6" height="80" width="84" y="6" x="6"/>
  </clipPath>
  <radialGradient id="radialGradient4375" gradientUnits="userSpaceOnUse" cy="87.792" cx="48" gradientTransform="matrix(1 -6.7115e-8 8.4282e-8 1.2558 110 -24.506)" r="42">
   <stop id="stop4369" style="stop-color:#fff;stop-opacity:.71756" offset="0"/>
   <stop id="stop4371" style="stop-color:#fff" offset="1"/>
  </radialGradient>
  <linearGradient id="linearGradient4390" y2="-40" gradientUnits="userSpaceOnUse" x2="48" gradientTransform="matrix(1,0,0,-1,0,92)" y1="88" x1="48">
   <stop id="stop4386" style="stop-color:#fff" offset="0"/>
   <stop id="stop4388" style="stop-color:#fff;stop-opacity:0" offset="1"/>
  </linearGradient>
  <linearGradient id="linearGradient3140" y2="88" spreadMethod="reflect" gradientUnits="userSpaceOnUse" x2="48" y1="88" x1="90">
   <stop id="stop3894-4" style="stop-opacity:.58824" offset="0"/>
   <stop id="stop3896-3" style="stop-opacity:.47059" offset=".11780"/>
   <stop id="stop3898-3" style="stop-opacity:.39216" offset=".23810"/>
   <stop id="stop3900-6" style="stop-opacity:.31373" offset="1"/>
  </linearGradient>
  <radialGradient id="radialGradient4087" xlink:href="#linearGradient3901" gradientUnits="userSpaceOnUse" cy="85.5" cx="48" gradientTransform="matrix(1 0 0 .013889 0 84.312)" r="36"/>
  <clipPath id="clipPath3919-4">
   <rect id="rect3921-3" style="fill:#f0f" transform="scale(1,-1)" rx="6.1" ry="6.1" height="76" width="84" y="-82" x="6"/>
  </clipPath>
  <filter id="filter3927-5" height="1.54" width="1.432" color-interpolation-filters="sRGB" y="-0.27" x="-0.216">
   <feGaussianBlur id="feGaussianBlur3929-0" stdDeviation="7.2000001"/>
  </filter>
  <linearGradient id="linearGradient3767">
   <stop id="stop3769" style="stop-color:#4d4d4d;stop-opacity:.70732" offset="0"/>
   <stop id="stop3771" style="stop-color:#4d4d4d;stop-opacity:.31373" offset="1"/>
  </linearGradient>
  <linearGradient id="linearGradient3942" y2="24" xlink:href="#linearGradient3767" gradientUnits="userSpaceOnUse" x2="48" gradientTransform="translate(-100)" y1="64" x1="48"/>
  <linearGradient id="linearGradient3968" y2="24" xlink:href="#linearGradient3767" gradientUnits="userSpaceOnUse" x2="56" y1="64" x1="56"/>
  <radialGradient id="radialGradient4138" gradientUnits="userSpaceOnUse" cy="84" cx="48" gradientTransform="matrix(1.0667 0 0 0.05 -3.2 81.3)" r="30">
   <stop id="stop3177-4" style="stop-color:#7bff9d" offset="0"/>
   <stop id="stop3179-8" style="stop-color:#2ea04c;stop-opacity:0" offset="1"/>
  </radialGradient>
  <filter id="filter4180" height="3.8298" width="1.2289" color-interpolation-filters="sRGB" y="-1.4149" x="-.11445">
   <feGaussianBlur id="feGaussianBlur4182" stdDeviation="3.5372897"/>
  </filter>
 </defs>
 <metadata id="metadata2413">
  <rdf:RDF>
   <cc:Work rdf:about="">
    <dc:format>image/svg+xml</dc:format>
    <dc:type rdf:resource="http://purl.org/dc/dcmitype/StillImage"/>
    <dc:title/>
   </cc:Work>
  </rdf:RDF>
 </metadata>
 <g id="layer2" style="display:none">
  <rect id="rect3745" style="opacity:.9;filter:url(#filter3174);fill:url(#ButtonShadow)" rx="6" ry="6" height="85" width="86" y="7" x="5"/>
 </g>
 <g id="layer3">
  <path id="path3786" style="opacity:0.08;fill:url(#linearGradient3780)" d="m12-95.031c-5.5111 0-10.031 4.5202-10.031 10.031v71c0 5.5111 4.5202 10.031 10.031 10.031h72c5.5111 0 10.031-4.5202 10.031-10.031v-71c0-5.5111-4.5202-10.031-10.031-10.031h-72z" transform="scale(1,-1)"/>
  <path id="path3778" style="opacity:.1;fill:url(#linearGradient3780)" d="m12-94.031c-4.9716 0-9.0312 4.0596-9.0312 9.0312v71c0 4.9716 4.0596 9.0312 9.0312 9.0312h72c4.9716 0 9.0312-4.0596 9.0312-9.0312v-71c0-4.9716-4.0596-9.0312-9.0312-9.0312h-72z" transform="scale(1,-1)"/>
  <path id="path3770" style="opacity:.2;fill:url(#linearGradient3780)" d="m12-93c-4.4091 0-8 3.5909-8 8v71c0 4.4091 3.5909 8 8 8h72c4.4091 0 8-3.5909 8-8v-71c0-4.4091-3.5909-8-8-8h-72z" transform="scale(1,-1)"/>
  <rect id="rect3723" style="opacity:.3;fill:url(#linearGradient3780)" transform="scale(1,-1)" rx="7" ry="7" height="85" width="86" y="-92" x="5"/>
  <rect id="rect3716" style="opacity:.45;fill:url(#linearGradient3721)" transform="scale(1,-1)" rx="6" ry="6" height="84" width="84" y="-91" x="6"/>
 </g>
 <g id="layer1">
  <rect id="rect2419" style="fill:url(#linearGradient3617)" transform="scale(1,-1)" rx="6.1" ry="6.1" height="84" width="84" y="-90" x="6"/>
  <path id="rect4359" style="opacity:.2;fill:url(#radialGradient4375)" d="m120.78 6.125c-2.74 0.5576-4.78 2.9665-4.78 5.875v68c0 3.324 2.676 6 6 6h72c3.324 0 6-2.676 6-6v-68c0-2.9085-2.0422-5.3174-4.7812-5.875 2.2051 0.53621 3.8125 2.4908 3.8125 4.875v68c0 2.8049-2.2264 5.0312-5.0312 5.0312h-72c-2.8049 0-5.0312-2.2264-5.0312-5.0312v-68c0-2.3842 1.6074-4.3388 3.8125-4.875z"/>
  <path id="path4412" style="opacity:.15" d="m6 100v1c0 3.324 2.676 6 6 6h72c3.324 0 6-2.676 6-6v-1c0 3.324-2.676 6-6 6h-72c-3.324 0-6-2.676-6-6z"/>
 </g>
 <g id="layer7">
  <g id="g3915" style="opacity:.2;filter:url(#filter3927-5)" clip-path="url(#clipPath3919-4)">
   <path id="path3911" style="opacity:.35656;color:#000000" d="m48 36a16 20 0 1 1 -32 0 16 20 0 1 1 32 0z" transform="matrix(1.25,0,0,1,-12,0)"/>
   <path id="path3913" style="opacity:.2;color:#000000" d="m80 52a24 28 0 1 1 -48 0 24 28 0 1 1 48 0z" transform="matrix(1.1667 0 0 1 -5.3333 0)"/>
  </g>
 </g>
 <g id="layer8">
  <path id="rect4028" style="opacity:.15;fill:#fff" d="m6 73.906v2c0 3.38 2.7144 6.094 6.094 6.094h71.812c3.38 0 6.094-2.714 6.094-6.094v-2c0 3.38-2.714 6.094-6.094 6.094h-71.812c-3.3796 0-6.094-2.714-6.094-6.094z"/>
  <path id="rect4377" style="opacity:.8;fill:url(#linearGradient4390)" d="m12 82c-3.324 0-6-2.676-6-6v-64c0-3.324 2.676-6 6-6h72c3.324 0 6 2.676 6 6v64c0 3.324-2.676 6-6 6zm0-0.96875h72c2.8049 0 5.0312-2.2264 5.0312-5.0312v-64c0-2.8049-2.226-5.0312-5.031-5.0312h-72c-2.8049 0-5.0312 2.2263-5.0312 5.0312v64c0 2.8049 2.2264 5.0312 5.0312 5.0312z"/>
 </g>
 <g id="layer4">
  <path id="path3888" style="opacity:.5;fill:url(#linearGradient3140)" d="m6 76v8c0 3.324 2.676 6 6 6h72c3.324 0 6-2.676 6-6v-8c0 3.324-2.676 6-6 6h-72c-3.324 0-6-2.676-6-6z"/>
  <path id="path4010" style="opacity:.8" d="m6 78v4c0 3.324 2.676 6 6 6h72c3.324 0 6-2.676 6-6v-4c0 3.324-2.676 6-6 6h-72c-3.324 0-6-2.676-6-6z"/>
  <path id="path4054" style="opacity:.4;fill:#fff" d="m6 82v1c0 3.324 2.676 6 6 6h72c3.324 0 6-2.676 6-6v-1c0 3.324-2.676 6-6 6h-72c-3.324 0-6-2.676-6-6z"/>
  <path id="path4059" style="opacity:.2" d="m6 77v1c0 3.324 2.676 6 6 6h72c3.324 0 6-2.676 6-6v-1c0 3.324-2.676 6-6 6h-72c-3.324 0-6-2.676-6-6z"/>
  <path id="path4089" style="opacity:.5;color:#000000;fill:url(#radialGradient4087)" d="m84 85.5a36 0.5 0 1 1 -72 0 36 0.5 0 1 1 72 0z" transform="matrix(1.0833 0 0 8 -4 -579)"/>
  <path id="path4061" style="color:#000000;fill:url(#radialGradient4087)" d="m84 85.5a36 0.5 0 1 1 -72 0 36 0.5 0 1 1 72 0z" transform="matrix(1,0,0,2,0,-66)"/>
  <rect id="rect3323" style="opacity:.6;filter:url(#filter4180);fill:#00aa2c" transform="matrix(1 0 0 0.5 0 44)" rx="6.7435" ry="6" height="6" width="74.179" y="80" x="10.911"/>
  <rect id="rect3311" style="fill:url(#radialGradient4138)" rx="5.8182" ry="3" height="3" width="64" y="84" x="16"/>
 </g>
 <g id="layer5">
  <rect id="rect3171" style="opacity:.2;filter:url(#filter3794);stroke:#fff;stroke-linecap:round;stroke-width:.5;fill:url(#linearGradient3613)" clip-path="url(#clipPath4355)" rx="12" ry="12" height="62" width="66" y="15" x="15"/>
 </g>
 <g id="layer6">
  <path id="path4011" style="opacity:.05;color:#000000;fill:#fff" d="m48 20c-10.25-0.07413-20.967 5.0562-25.75 14.531-3.671 7.0622-2.7965 16.014 2.0312 22.312 0.47866 0.59697 0.90527 1.0568 1 1.2188-0.02935 0.02452-0.07014 0.08577-0.375 0.21875a0.95299 0.95299 0 0 0 -0.28125 0.1875c-1.6256 1.5446-1.9653 3.7745-1.4062 5.6875 0.54863 1.8773 1.9486 3.5362 3.875 4.25v0.03125c0.01889 0.0086 0.04355-0.0084 0.0625 0 0.01135 0.005 0.01987 0.0263 0.03125 0.03125 3.1861 1.3866 7.073 0.0066 8.7812-2.9688 0.45688 0.42312 0.99492 0.74476 1.5312 0.96875 1.0484 0.43785 2.1592 0.6116 3.0312 0.84375a0.95299 0.95299 0 0 0 0.03125 0.03125c10.952 2.569 23.569-0.762 30.719-9.843 5.183-6.364 6.276-15.647 2.469-22.969-4.772-9.491-15.516-14.592-25.75-14.531zm-10.125 37.844c-0.59606 0.5996-1.1795 1.1741-1.75 1.8125-0.14168-0.31583-0.3491-0.67573-0.5625-1.0312l2.3125-0.78125z"/>
  <path id="path4004" style="opacity:0.08;color:#000000;fill:#fff" d="m48 20.938c-9.9243-0.07177-20.309 4.945-24.894 14.029-3.4892 6.7125-2.6574 15.288 1.9373 21.283 0.92029 1.1478 2.1525 2.0667 0.24158 2.9002-2.6902 2.5562-1.0764 7.2536 2.2197 8.3993 3.2019 1.4518 7.6014-0.32416 8.3707-3.8921 0.64751 1.9523 3.0654 2.2685 4.9137 2.7606 10.613 2.4888 22.874-0.75894 29.756-9.4984 4.9359-6.0603 5.9679-14.994 2.3496-21.952-4.576-9.099-14.986-14.09-24.896-14.03zm-6.688 34.687c-1.682 1.7988-3.5596 3.4668-5.125 5.3438-0.61813 1.0855-1.0608-2.616-2.4375-2.7188 2.5208-0.875 5.0417-1.75 7.5625-2.625zm-5.375 6.6562c1.4171 0.27447 1.0368 0.24431 0 0z"/>
  <path id="path3999" style="opacity:0.12;color:#000000;fill:#fff" d="m48 22.094c-14.128 0-25.906 9.6708-25.906 22 0 5.2404 2.1804 10.046 5.7188 13.781 0.0015 0.0015 0.09217 0.09233 0.09375 0.09375 0.0016 0.0014 0.09208 0.09245 0.09375 0.09375 0.0017 0.0013 0.12324 0.09257 0.125 0.09375 0.0018 0.0012 0.12316 0.06145 0.125 0.0625 0.0018 0.001 0.12309 0.06159 0.125 0.0625 0.000956 0.000457 0.03139 0.01772 0.0625 0.03125-1.627 0.48475-2.9997 1.6867-3.3125 3.4688-0.45306 2.5816 1.6481 4.7817 4.1875 5.0938 2.5086 0.30824 5.1145-1.1348 5.5625-3.6875 0.45306-2.5816-1.6481-4.7817-4.1875-5.0938l14.875-5.1875-8.1875 8.375a0.91789 0.91789 0 0 0 -0.03125 0.03125c-0.0012 0.0013-0.06135 0.09235-0.0625 0.09375-0.0011 0.0014-0.06144 0.09229-0.0625 0.09375-0.0011 0.0015-0.06153 0.09223-0.0625 0.09375-0.000969 0.0015-0.06163 0.09217-0.0625 0.09375-0.000874 0.0016-0.06172 0.09212-0.0625 0.09375-0.000776 0.0016-0.06182 0.12332-0.0625 0.125-0.000675 0.0017-0.03068 0.09204-0.03125 0.09375-0.000572 0.0017-0.03078 0.12326-0.03125 0.125-0.000467 0.0017-0.03089 0.12323-0.03125 0.125-0.000359 0.0018 0.000251 0.09196 0 0.09375-0.000251 0.0018-0.03111 0.1232-0.03125 0.125-0.000141 0.0018 0.000031 0.12319 0 0.125-0.000031 0.0018-0.000079 0.1232 0 0.125s-0.000189 0.09195 0 0.09375 0.03095 0.12322 0.03125 0.125c0.000298 0.0018 0.03084 0.12324 0.03125 0.125 0.000406 0.0018 0.03074 0.09202 0.03125 0.09375 0.000513 0.0017 0.03063 0.1233 0.03125 0.125 0.000617 0.0017 0.03053 0.09209 0.03125 0.09375 0.00072 0.0017 0.06168 0.12339 0.0625 0.125 0.000819 0.0016 0.06158 0.09219 0.0625 0.09375 0.000916 0.0016 0.06149 0.09225 0.0625 0.09375 0.001 0.0015 0.0614 0.09232 0.0625 0.09375 0.0011 0.0014 0.06132 0.09239 0.0625 0.09375 0.0012 0.0014 0.09249 0.09246 0.09375 0.09375 0.0013 0.0013 0.06116 0.09254 0.0625 0.09375 0.0013 0.0012 0.09234 0.06137 0.09375 0.0625 0.0014 0.0011 0.09227 0.06146 0.09375 0.0625 0.0015 0.001 0.09221 0.06155 0.09375 0.0625 0.0015 0.000945 0.12341 0.06165 0.125 0.0625 0.0016 0.00085 0.09211 0.06175 0.09375 0.0625 0.0016 0.000751 0.09206 0.0306 0.09375 0.03125a0.91789 0.91789 0 0 0 0.03125 0.03125c3.0579 1.0697 6.4171 1.625 9.9062 1.625 14.125 0 25.906-9.6394 25.906-21.969 0-12.329-11.778-22-25.906-22z"/>
  <path id="path3993" style="opacity:.2;color:#000000;fill:#fff" d="m48 23c-13.711 0-25 9.3529-25 21.094 0 4.9863 2.0708 9.5695 5.4688 13.156a1.0066 1.0066 0 0 0 1.0625 0.25l19-6.625a1.0066 1.0066 0 0 0 -0.375 -1.9375c-0.03473 0.000722-0.07947 0-0.15625 0-3.4132 0-6-2.259-6-4.8438 0-2.5847 2.5922-4.875 6-4.875s6 2.2903 6 4.875c0 1.4148-0.77735 2.7036-2.0625 3.625 0.009-0.0065 0.0056-0.01573-0.0625 0.03125a1.0066 1.0066 0 0 0 -0.15625 0.15625l-13.689 14.032a1.0066 1.0066 0 0 0 0.375 1.625c2.9574 1.0346 6.2055 1.5938 9.5938 1.5938 13.709 0 25-9.3216 25-21.062 0-11.742-11.289-21.095-25-21.095zm0 16.75c-2.6633 0-5 1.8452-5 4.3438s2.3367 4.3438 5 4.3438 5-1.8452 5-4.3438c0-2.499-2.337-4.344-5-4.344zm-18.219 19.219c-1.7935 0.08419-3.4407 1.2064-3.75 2.9688-0.35193 2.0053 1.3141 3.7742 3.4062 4.0312 2.0965 0.2576 4.1791-0.93076 4.5312-2.9375 0.353-2.006-1.313-3.775-3.406-4.032-0.23025-0.02829-0.50051-0.04442-0.78125-0.03125z"/>
  <path id="path4003" style="opacity:.05;color:#000000;fill:#fff" d="m48 20c-10.132-0.06655-20.717 4.9016-25.594 14.188-3.7148 6.8658-3.065 15.632 1.5 21.938 0.0083 0.0115 0.0229 0.01976 0.03125 0.03125 1.3157 1.9702 3.0258 3.5649 4.5625 5.0625a0.9791 0.9791 0 0 0 0.09375 0.09375c0.99515 0.74335 2.4834 1.101 3.8438 0.46875v0.03125c0.0294-0.01029 0.03374-0.05151 0.0625-0.0625 0.02985-0.01463 0.06402 0.01564 0.09375 0l-0.032-0.033c0.65078-0.26557 1.1228-0.72344 1.5-1.2188-0.0013 0.87799-0.06652 1.6865 0.0625 2.5938a0.9791 0.9791 0 0 0 0.03125 0.125c0.37677 1.4505 1.4829 2.3245 2.5938 2.8125 1.1108 0.48804 2.2971 0.70642 3.1562 0.96875a0.9791 0.9791 0 0 0 0.03125 0c11.08 2.8607 24.037-0.3894 31.344-9.5938 0.0091-0.01111 0.02219-0.02012 0.03125-0.03125 5.1533-6.3297 6.2308-15.627 2.4375-22.906-0.0041-0.008 0.0041-0.02324 0-0.03125-4.793-9.454-15.547-14.497-25.748-14.438zm0 23a0.9791 0.9791 0 0 0 0.1875 0c0.83662-0.15237 1.4221 0.40455 1.5938 0.90625 0.0858 0.25085 0.05442 0.39598-0.03125 0.53125s-0.29174 0.34567-0.90625 0.4375a0.9791 0.9791 0 0 0 -0.28125 0.09375c-0.69464 0.33398-1.764-0.09136-2.2188-0.65625-0.22736-0.28245-0.24486-0.50583-0.21875-0.59375s0.12352-0.30546 0.84375-0.53125a0.9791 0.9791 0 0 0 0.03125 0c0.302-0.107 0.666-0.188 1-0.188z" transform="translate(-100)"/>
  <path id="path3967" style="opacity:.075;color:#000000;fill:#fff" d="m-52 20.969c-9.8037-0.0644-20.06 4.7993-24.732 13.693-3.5314 6.5268-2.909 14.941 1.4477 20.931 1.2321 1.8568 2.904 3.4255 4.4616 4.9435 0.71365 0.53307 2.0266 0.82239 2.9472 0.33822 1.5917-0.55716 1.9658-2.6075 2.8438-4.0625 0.07963 2.0459-0.16178 4.1396 0.125 6.1562 0.5754 2.2152 3.2271 2.5308 5.0984 3.1022 10.739 2.7728 23.306-0.43144 30.325-9.3051 4.9255-6.0233 5.9677-14.923 2.3471-21.845-4.584-9.064-14.984-14.009-24.864-13.952zm0 21.062c2.639-0.48063 4.2567 3.3301 1.0111 3.8151-2.4325 1.1695-5.9334-2.4697-2.3124-3.6048 0.41692-0.14661 0.86025-0.21046 1.3013-0.21029z"/>
  <path id="path3963" style="opacity:.1;color:#000000;fill:#fff" d="m48 23c-14.155 0-26 9.666-26 22 0 6.1331 3.0086 11.659 7.6875 15.594 0.0057 0.0048-0.0057 0.02643 0 0.03125 0.02075 0.01678 0.09192 0.06111 0.09375 0.0625 0.0022 0.0017 0.09146 0.06096 0.09375 0.0625 0.0023 0.0015 0.09137 0.06109 0.09375 0.0625 0.0024 0.0014 0.0913 0.06123 0.09375 0.0625 0.0025 0.0013 0.09123 0.03012 0.09375 0.03125 0.0025 0.0011 0.09117 0.06151 0.09375 0.0625 0.0026 0.000987 0.12237 0.03041 0.125 0.03125 0.0026 0.000838 0.09107 0.03056 0.09375 0.03125 0.0027 0.000687 0.12229 0.03072 0.125 0.03125 0.0027 0.000533 0.12226-0.000378 0.125 0 0.0027 0.000378 0.09099 0.03103 0.09375 0.03125 0.0028 0.000222 0.12224-0.000064 0.125 0 0.0028 0.000064 0.09099 0.000093 0.09375 0 0.0028-0.000093 0.12225 0.00025 0.125 0 0.0028-0.00025 0.12227-0.03084 0.125-0.03125 0.0027-0.000407 0.09104-0.03069 0.09375-0.03125 0.0027-0.000562 0.12233 0.000715 0.125 0 0.0027-0.000715 0.09113-0.03038 0.09375-0.03125 0.0026-0.000866 0.12243-0.06149 0.125-0.0625 0.0026-0.001 0.09124-0.03009 0.09375-0.03125 0.0025-0.0012 0.09131-0.0612 0.09375-0.0625 0.0024-0.0013 0.09139-0.06106 0.09375-0.0625 0.0024-0.0014 0.09148-0.02968 0.09375-0.03125 0.0023-0.0016 0.09157-0.09206 0.09375-0.09375 0.0022-0.0017 0.09167-0.06068 0.09375-0.0625 0.0021-0.0018 0.09177-0.06057 0.09375-0.0625 0.002-0.0019 0.06064-0.09171 0.0625-0.09375 0.0019-0.002 0.09201-0.09161 0.09375-0.09375 0.0017-0.0021 0.06088-0.09151 0.0625-0.09375 0.0016-0.0022 0.06101-0.09142 0.0625-0.09375 0.0015-0.0023 0.06115-0.09134 0.0625-0.09375 0.0014-0.0024 0.06129-0.09127 0.0625-0.09375h-0.03125l3.25-6.5312v9.75c-0.000003 0.0037 0.03098 0.1526 0.03125 0.15625 0.000273 0.0036-0.000546 0.15264 0 0.15625 0.000546 0.0036 0.03043 0.12144 0.03125 0.125 0.000817 0.0036 0.03017 0.15276 0.03125 0.15625 0.0011 0.0035 0.06116 0.1216 0.0625 0.125 0.0013 0.0034 0.0609 0.15296 0.0625 0.15625 0.0016 0.0033 0.06066 0.12184 0.0625 0.125 0.0018 0.0032 0.09168 0.12199 0.09375 0.125 0.0021 0.003 0.09146 0.12215 0.09375 0.125 0.0023 0.0028 0.09125 0.12233 0.09375 0.125 0.0025 0.0027 0.09106 0.09128 0.09375 0.09375 0.0027 0.0025 0.12213 0.09149 0.125 0.09375 0.0029 0.0023 0.12197 0.09171 0.125 0.09375 0.003 0.002 0.12182 0.09194 0.125 0.09375 0.0032 0.0018 0.12169 0.06094 0.125 0.0625 0.0033 0.0016 0.12159 0.06119 0.125 0.0625 3.274 1.256 6.906 1.94 10.716 1.94 14.155 0 26-9.666 26-22s-11.845-22-26-22zm0 19c2.425 0 4 1.5599 4 3s-1.575 3-4 3-4-1.5599-4-3 1.575-3 4-3z" transform="translate(-100,-1)"/>
  <path id="path3959" style="opacity:.2;color:#000000;fill:#fff" d="m48 23.938c-13.737 0-25.062 9.323-25.062 21.062 0 5.8418 2.8329 11.12 7.3438 14.906a1.0699 1.0699 0 0 0 1.656 -0.344l5-10.031v13.656a1.0699 1.0699 0 0 0 0.6875 1c3.1686 1.2124 6.6756 1.875 10.375 1.875 13.736 0 25.061-9.323 25.061-21.062s-11.325-21.062-25.062-21.062zm0 17.125c2.8319 0 4.9375 1.8699 4.9375 3.9375s-2.1056 3.9375-4.9375 3.9375-4.9375-1.8699-4.9375-3.9375 2.1056-3.9375 4.9375-3.9375z" transform="translate(-100,-1)"/>
  <path id="path3154" style="opacity:.6;color:#000000;fill:url(#linearGradient3942)" d="m-52 24c-13.255 0-24 8.9543-24 20 0 5.4963 2.6623 10.473 6.9688 14.089l7.031-14.089v18.177c3.045 1.165 6.43 1.823 10 1.823 13.255 0 24-8.9543 24-20s-10.745-20-24-20zm0 15c3.3137 0 6 2.2386 6 5s-2.6863 5-6 5-6-2.2386-6-5 2.6863-5 6-5z"/>
  <path id="path3944" style="opacity:.2;color:#000000" d="m-52 24c-13.255 0-24 8.9543-24 20 0 0.1664-0.0049 0.33457 0 0.5 0.31853-10.815 10.946-19.5 24-19.5s23.681 8.6854 24 19.5c0.0049-0.16622 0-0.3328 0-0.5 0-11.046-10.745-20-24-20zm-5.9688 20.5c-0.02 0.168-0.031 0.327-0.031 0.5 0 2.7614 2.6863 5 6 5s6-2.2386 6-5c0-0.17259-0.01077-0.33192-0.03125-0.5-0.30726 2.5213-2.8621 4.5-5.9688 4.5-3.1066 0-5.6615-1.9787-5.9688-4.5z"/>
  <path id="path3157" style="opacity:.7;color:#000000;fill:url(#linearGradient3968)" d="m48 24c-13.255 0-24 9.003-24 20.094 0 4.7094 1.9432 9.0442 5.1875 12.469l19-6.625c-0.06252 0.0013-0.12459 0-0.1875 0-3.866 0-7-2.6089-7-5.8438 0-3.2348 3.134-5.875 7-5.875s7 2.6402 7 5.875c0 1.7805-0.97035 3.3633-2.4688 4.4375-0.0329 0.02359-0.06033 0.03943-0.09375 0.0625l-13.688 14.031c2.8469 0.99591 5.9714 1.5312 9.25 1.5312 13.255 0 24-8.9717 24-20.062 0-11.091-10.745-20.094-24-20.094zm0 16.75c-2.2091 0-4 1.4953-4 3.3438s1.7909 3.3438 4 3.3438 4-1.4953 4-3.3438c0-1.849-1.791-3.344-4-3.344zm-18.156 19.219c-1.3932 0.0654-2.6019 0.95606-2.8125 2.1562-0.24072 1.3716 0.89198 2.6423 2.5312 2.8438 1.6393 0.20142 3.1655-0.75336 3.4062-2.125 0.24-1.372-0.892-2.643-2.531-2.844-0.205-0.025-0.395-0.041-0.594-0.031z"/>
  <path id="path3948" style="opacity:.2;color:#000000" d="m72 48a24 24 0 1 1 -48 0 24 24 0 1 1 48 0z" transform="translate(0,-80)"/>
  <path id="path3950" style="opacity:.2;color:#000000" d="m54 48a6 6 0 1 1 -12 0 6 6 0 1 1 12 0z" transform="matrix(1.1667 0 0 1.1667 -8 -88)"/>
  <path id="path3952" style="opacity:.2;color:#000000" d="m54 48a6 6 0 1 1 -12 0 6 6 0 1 1 12 0z" transform="matrix(.66667 0 0 .66667 16 -64)"/>
  <path id="path3954" d="m25.779-15.673 26.915-11.209-18.473 22.555z"/>
  <path id="path3956" style="opacity:.2;color:#000000" d="m31 68a3 3 0 1 1 -6 0 3 3 0 1 1 6 0z" transform="matrix(.98939 .14529 -.14529 .98939 12.177 -81.347)"/>
  <path id="path3980" style="opacity:.2;color:#000000" d="m48 24c-13.255 0-24 9.003-24 20.094 0 0.12634 0.02847 0.2492 0.03125 0.375 0.397-10.801 10.965-19.469 23.969-19.469 13.054 0 23.681 8.7347 24 19.594 0.0049-0.16689 0-0.33211 0-0.5 0-11.091-10.745-20.094-24-20.094zm0 16.75c-2.2091 0-4 1.4953-4 3.3438 0 0.16779 0.03402 0.33889 0.0625 0.5 0.286-1.614 1.929-2.844 3.938-2.844 2.0086 0 3.6522 1.2299 3.9375 2.8438 0.028-0.161 0.062-0.332 0.062-0.5 0-1.849-1.791-3.344-4-3.344zm-6.9688 3.9375c-0.011 0.136-0.031 0.267-0.031 0.406 0 2.655 2.1057 4.8784 5 5.5938l2.1875-0.75c-0.06252 0.0013-0.12459 0-0.1875 0-3.6244 0-6.6103-2.298-6.9688-5.25zm13.938 0.0625c-0.20622 1.5104-1.1264 2.8413-2.4375 3.7812-0.0329 0.02359-0.06033 0.03943-0.09375 0.0625l-13.688 14.031c0.24346 0.08517 0.50256 0.14036 0.75 0.21875l12.938-13.25c0.03342-0.02307 0.06085-0.03891 0.09375-0.0625 1.498-1.075 2.468-2.658 2.468-4.438 0-0.118-0.023-0.228-0.031-0.344zm-25.125 15.219c-1.3932 0.0654-2.6019 0.95606-2.8125 2.1562-0.05257 0.29956-0.03816 0.59516 0.03125 0.875 0.27032-1.136 1.4374-1.9682 2.7812-2.0312 0.19903-0.0093 0.38884 0.0061 0.59375 0.03125 1.2813 0.15743 2.2516 0.96723 2.5 1.9688 0.0098-0.04129 0.02386-0.0829 0.03125-0.125 0.24-1.372-0.892-2.643-2.531-2.844-0.205-0.025-0.395-0.041-0.594-0.031z"/>
  <path id="path4013" style="opacity:.05;color:#000000" d="m48 24c-13.255 0-24 9.003-24 20.094 0 4.7094 1.9432 9.0442 5.1875 12.469l19-6.625c-0.06252 0.0013-0.12459 0-0.1875 0-3.866 0-7-2.6089-7-5.8438 0-3.2348 3.134-5.875 7-5.875s7 2.6402 7 5.875c0 1.7805-0.97035 3.3633-2.4688 4.4375-0.0329 0.02359-0.06033 0.03943-0.09375 0.0625l-13.688 14.031c2.8469 0.99591 5.9714 1.5312 9.25 1.5312 13.255 0 24-8.9717 24-20.062 0-11.091-10.745-20.094-24-20.094zm0 1.0938c12.762 0 22.906 8.6121 22.906 19s-10.143 18.969-22.906 18.969c-2.5195 0-4.8965-0.41471-7.1562-1.0312l12.218-12.532c-0.004 0.0028 0.01554-0.03767 0.09375-0.09375 0.02431-0.01743 0.0384-0.04481 0.0625-0.0625 1.6897-1.2405 2.875-3.1047 2.875-5.25 0-3.9378-3.7323-6.9688-8.0938-6.9688s-8.0938 3.031-8.0938 6.9688c0 2.7178 1.8413 4.9178 4.375 6.0625l-14.719 5.125c-2.8002-3.162-4.4688-6.9999-4.4688-11.188 0-10.388 10.144-19 22.906-19zm0 15.656c-2.2091 0-4 1.4953-4 3.3438s1.7909 3.3438 4 3.3438 4-1.4953 4-3.3438c0-1.849-1.791-3.344-4-3.344zm0 1.0938c1.718 0 2.9062 1.1045 2.9062 2.25s-1.1882 2.25-2.9062 2.25-2.9062-1.1045-2.9062-2.25 1.1882-2.25 2.9062-2.25zm-18.156 18.125c-1.3932 0.0654-2.6019 0.95606-2.8125 2.1562-0.24072 1.3716 0.89198 2.6423 2.5312 2.8438 1.6393 0.20142 3.1655-0.75336 3.4062-2.125 0.24-1.372-0.892-2.643-2.531-2.844-0.205-0.025-0.395-0.041-0.594-0.031zm0.0625 1.0938c0.11067-0.0052 0.22874 0.0094 0.40625 0.03125 1.1496 0.14125 1.7142 0.87608 1.5938 1.5625-0.1202 0.68491-1.0738 1.3594-2.2188 1.2188-1.1496-0.14125-1.7142-0.87608-1.5938-1.5625 0.10395-0.59229 0.85218-1.2049 1.8125-1.25z"/>
 </g>
</svg>
