<?xml version="1.0" encoding="UTF-8" standalone="no"?>
<!-- Created with Inkscape (http://www.inkscape.org/) -->
<svg id="svg2" xmlns:rdf="http://www.w3.org/1999/02/22-rdf-syntax-ns#" xmlns="http://www.w3.org/2000/svg" height="16" width="16" version="1.0" xmlns:cc="http://creativecommons.org/ns#" xmlns:xlink="http://www.w3.org/1999/xlink" xmlns:dc="http://purl.org/dc/elements/1.1/">
 <metadata id="metadata7">
  <rdf:RDF>
   <cc:Work rdf:about="">
    <dc:format>image/svg+xml</dc:format>
    <dc:type rdf:resource="http://purl.org/dc/dcmitype/StillImage"/>
    <dc:title/>
   </cc:Work>
  </rdf:RDF>
 </metadata>
 <g id="layer1" transform="translate(0,-6)">
  <path id="rect2932" style="fill:#bebebe" d="m1.5 8c-0.86824-0.0342-1.5763 0.7772-1.5 1.625 0.00371 2.989-0.01296 5.98 0 8.969 0.037895 0.846 0.86372 1.475 1.6875 1.406 4.9951-0.005 7.974 0.019 12.968 0 0.854-0.044 1.447-0.904 1.344-1.719-0.003-2.965 0.01-5.941 0-8.906-0.031-0.8509-0.869-1.4524-1.688-1.375zm0.5 2h2v2h-2zm3 0h2v2h-2zm3 0h2v2h-2zm3 0h2v2h-2zm-8 3h2v2h-2zm3 0h2v2h-2zm3 0h2v2h-2zm3 0h2v2h-2zm-10 3h2v2h-2zm3 0h6v2h-6zm7 0h2v2h-2z"/>
 </g>
</svg>
