<?xml version="1.0" encoding="UTF-8" standalone="no"?>
<!-- Created with Inkscape (http://www.inkscape.org/) -->
<svg id="svg2408" xmlns:rdf="http://www.w3.org/1999/02/22-rdf-syntax-ns#" xmlns="http://www.w3.org/2000/svg" height="96" width="96" version="1.0" xmlns:cc="http://creativecommons.org/ns#" xmlns:xlink="http://www.w3.org/1999/xlink" xmlns:dc="http://purl.org/dc/elements/1.1/">
 <defs id="defs2410">
  <linearGradient id="linearGradient4364">
   <stop id="stop4366" style="stop-color:#ccc" offset="0"/>
   <stop id="stop4368" style="stop-color:#1a1a1a" offset="1"/>
  </linearGradient>
  <linearGradient id="linearGradient4180">
   <stop id="stop4182" style="stop-color:#008eca" offset="0"/>
   <stop id="stop4184" style="stop-color:#35c3ff" offset="1"/>
  </linearGradient>
  <linearGradient id="linearGradient4042">
   <stop id="stop4044" style="stop-color:#ff9800" offset="0"/>
   <stop id="stop4046" style="stop-color:#ff4600" offset="1"/>
  </linearGradient>
  <linearGradient id="linearGradient4034">
   <stop id="stop4036" style="stop-color:#fff" offset="0"/>
   <stop id="stop4038" style="stop-color:#fff;stop-opacity:0" offset="1"/>
  </linearGradient>
  <linearGradient id="ButtonShadow" y2="7.0165" gradientUnits="userSpaceOnUse" x2="45.448" gradientTransform="scale(1.0059 .99417)" y1="92.54" x1="45.448">
   <stop id="stop3750" offset="0"/>
   <stop id="stop3752" style="stop-opacity:.58824" offset="1"/>
  </linearGradient>
  <filter id="filter3174" color-interpolation-filters="sRGB">
   <feGaussianBlur id="feGaussianBlur3176" stdDeviation="1.71"/>
  </filter>
  <linearGradient id="linearGradient3188" y2="63.893" xlink:href="#linearGradient4034" gradientUnits="userSpaceOnUse" x2="36.357" y1="6" x1="36.357"/>
  <filter id="filter3794" height="1.384" width="1.384" color-interpolation-filters="sRGB" y="-.192" x="-.192">
   <feGaussianBlur id="feGaussianBlur3796" stdDeviation="5.28"/>
  </filter>
  <linearGradient id="linearGradient3613" y2="138.66" xlink:href="#linearGradient4034" gradientUnits="userSpaceOnUse" x2="48" y1="20.221" x1="48"/>
  <radialGradient id="radialGradient3619" xlink:href="#linearGradient4034" gradientUnits="userSpaceOnUse" cy="90.172" cx="48" gradientTransform="matrix(1.1573 0 0 .99591 -7.551 .19713)" r="42"/>
  <clipPath id="clipPath3613">
   <rect id="rect3615" style="fill:#fff" rx="6" ry="6" height="84" width="84" y="6" x="6"/>
  </clipPath>
  <linearGradient id="linearGradient3617" y2="5.9877" gradientUnits="userSpaceOnUse" x2="48" y1="90" x1="48">
   <stop id="stop3702" style="stop-color:#141414" offset="0"/>
   <stop id="stop3704" style="stop-color:#323232" offset="1"/>
  </linearGradient>
  <linearGradient id="ButtonShadow-0" y2="7.0165" gradientUnits="userSpaceOnUse" x2="45.448" gradientTransform="matrix(1.0059 0 0 .99417 100 0)" y1="92.54" x1="45.448">
   <stop id="stop3750-8" offset="0"/>
   <stop id="stop3752-5" style="stop-opacity:.58824" offset="1"/>
  </linearGradient>
  <linearGradient id="linearGradient3780" y2="90.239" xlink:href="#ButtonShadow-0" gradientUnits="userSpaceOnUse" x2="32.251" gradientTransform="matrix(1.0238 0 0 1.0119 -1.1429 -98.071)" y1="6.1317" x1="32.251"/>
  <linearGradient id="linearGradient3721" y2="90.239" xlink:href="#ButtonShadow-0" gradientUnits="userSpaceOnUse" x2="32.251" gradientTransform="translate(0,-97)" y1="6.1317" x1="32.251"/>
  <linearGradient id="linearGradient3963" y2="5.9877" gradientUnits="userSpaceOnUse" x2="48" y1="90" x1="48">
   <stop id="stop3942" style="stop-color:#b4b4b4" offset="0"/>
   <stop id="stop3944" style="stop-color:#dcdcdc" offset="1"/>
  </linearGradient>
  <linearGradient id="linearGradient2675" y2="69.688" gradientUnits="userSpaceOnUse" x2="65.156" gradientTransform="matrix(1.1608 0 0 1.1608 -8.7333 -6.7176)" y1="16.125" x1="65.156">
   <stop id="stop3739-3" style="stop-color:#fff" offset="0"/>
   <stop id="stop3741-1" style="stop-color:#fff;stop-opacity:0" offset="1"/>
  </linearGradient>
  <linearGradient id="linearGradient3104" y2="64.188" gradientUnits="userSpaceOnUse" x2="142.47" gradientTransform="matrix(1.1608 0 0 1.1608 -101.6 -6.7176)" y1="16.125" x1="142.47">
   <stop id="stop3689" style="stop-color:#fff" offset="0"/>
   <stop id="stop3691" style="stop-color:#fff;stop-opacity:0" offset="1"/>
  </linearGradient>
  <linearGradient id="linearGradient4040" y2="75" xlink:href="#linearGradient4034" gradientUnits="userSpaceOnUse" x2="24" y1="62" x1="24"/>
  <linearGradient id="linearGradient4048" y2="72" xlink:href="#linearGradient4042" gradientUnits="userSpaceOnUse" x2="30" gradientTransform="translate(-96,-48)" y1="72" x1="18"/>
  <linearGradient id="linearGradient4136" y2="72" xlink:href="#linearGradient4180" gradientUnits="userSpaceOnUse" x2="30" gradientTransform="translate(-96,-48)" y1="72" x1="18"/>
  <linearGradient id="linearGradient4156" y2="72" gradientUnits="userSpaceOnUse" x2="32" gradientTransform="translate(-96,-48)" y1="72" x1="18">
   <stop id="stop4194" style="stop-color:#ffdb5b" offset="0"/>
   <stop id="stop4196" style="stop-color:#26a4bc" offset="1"/>
  </linearGradient>
  <linearGradient id="linearGradient4176" y2="72" gradientUnits="userSpaceOnUse" x2="30" gradientTransform="translate(-96,-48)" y1="72" x1="18">
   <stop id="stop4188" style="stop-color:#a535c0" offset="0"/>
   <stop id="stop4190" style="stop-color:#732586" offset="1"/>
  </linearGradient>
  <linearGradient id="linearGradient4262" y2="72" xlink:href="#linearGradient4364" gradientUnits="userSpaceOnUse" x2="30" gradientTransform="translate(-96,-48)" y1="72" x1="18"/>
  <linearGradient id="linearGradient4266" y2="72" gradientUnits="userSpaceOnUse" x2="30" gradientTransform="translate(-96,-48)" y1="72" x1="18">
   <stop id="stop4360" style="stop-color:#71c837" offset="0"/>
   <stop id="stop4362" style="stop-color:#447821" offset="1"/>
  </linearGradient>
  <linearGradient id="linearGradient4270" y2="72" gradientUnits="userSpaceOnUse" x2="30" gradientTransform="translate(-96,-48)" y1="72" x1="18">
   <stop id="stop4372" style="stop-color:#2a7fff" offset="0"/>
   <stop id="stop4374" style="stop-color:#003380" offset="1"/>
  </linearGradient>
  <linearGradient id="linearGradient4346" y2="72" gradientUnits="userSpaceOnUse" x2="30" gradientTransform="translate(-96,-48)" y1="72" x1="18">
   <stop id="stop4378" style="stop-color:#deaa87" offset="0"/>
   <stop id="stop4380" style="stop-color:#784421" offset="1"/>
  </linearGradient>
  <linearGradient id="linearGradient4401" y2="84" gradientUnits="userSpaceOnUse" x2="32" y1="72" x1="32">
   <stop id="stop4394" style="stop-color:#808080" offset="0"/>
   <stop id="stop4396" style="stop-color:#808080;stop-opacity:0" offset="1"/>
  </linearGradient>
 </defs>
 <metadata id="metadata2413">
  <rdf:RDF>
   <cc:Work rdf:about="">
    <dc:format>image/svg+xml</dc:format>
    <dc:type rdf:resource="http://purl.org/dc/dcmitype/StillImage"/>
    <dc:title/>
   </cc:Work>
  </rdf:RDF>
 </metadata>
 <g id="layer2" style="display:none">
  <rect id="rect3745" style="opacity:.9;filter:url(#filter3174);fill:url(#ButtonShadow)" rx="6" ry="6" height="85" width="86" y="7" x="5"/>
 </g>
 <g id="layer3">
  <path id="path3786" style="opacity:0.08;fill:url(#linearGradient3780)" d="m12-95.031c-5.5111 0-10.031 4.5202-10.031 10.031v71c0 5.5111 4.5202 10.031 10.031 10.031h72c5.5111 0 10.031-4.5202 10.031-10.031v-71c0-5.5111-4.5202-10.031-10.031-10.031h-72z" transform="scale(1,-1)"/>
  <path id="path3778" style="opacity:.1;fill:url(#linearGradient3780)" d="m12-94.031c-4.9716 0-9.0312 4.0596-9.0312 9.0312v71c0 4.9716 4.0596 9.0312 9.0312 9.0312h72c4.9716 0 9.0312-4.0596 9.0312-9.0312v-71c0-4.9716-4.0596-9.0312-9.0312-9.0312h-72z" transform="scale(1,-1)"/>
  <path id="path3770" style="opacity:.2;fill:url(#linearGradient3780)" d="m12-93c-4.4091 0-8 3.5909-8 8v71c0 4.4091 3.5909 8 8 8h72c4.4091 0 8-3.5909 8-8v-71c0-4.4091-3.5909-8-8-8h-72z" transform="scale(1,-1)"/>
  <rect id="rect3723" style="opacity:.3;fill:url(#linearGradient3780)" transform="scale(1,-1)" rx="7" ry="7" height="85" width="86" y="-92" x="5"/>
  <rect id="rect3716" style="opacity:.45;fill:url(#linearGradient3721)" transform="scale(1,-1)" rx="6" ry="6" height="84" width="84" y="-91" x="6"/>
 </g>
 <g id="layer1">
  <rect id="rect2419" style="fill:url(#linearGradient3617)" rx="6" ry="6" height="84" width="84" y="6" x="6"/>
  <path id="rect3966" style="opacity:.4;stroke:#000;stroke-width:2;fill:none" d="m12 10c-1.2025 0-2 0.7975-2 2v72c0 1.2025 0.7975 2 2 2h72c1.2025 0 2-0.7975 2-2v-72c0-1.2025-0.7975-2-2-2h-72z"/>
  <path id="rect3938" style="fill:url(#linearGradient3963)" d="m12 6c-3.324 0-6 2.676-6 6v72c0 3.324 2.676 6 6 6h72c3.324 0 6-2.676 6-6v-72c0-3.324-2.676-6-6-6h-72zm0 4h72c1.2025 0 2 0.7975 2 2v72c0 1.2025-0.7975 2-2 2h-72c-1.2025 0-2-0.7975-2-2v-72c0-1.2025 0.7975-2 2-2z"/>
  <path id="rect3728" style="opacity:.5;fill:url(#linearGradient3188)" d="m12 6c-3.324 0-6 2.676-6 6v2 68 2c0 0.33472 0.04135 0.6507 0.09375 0.96875 0.0487 0.2956 0.09704 0.59692 0.1875 0.875 0.00988 0.03038 0.020892 0.0636 0.03125 0.09375 0.098865 0.28777 0.23488 0.54745 0.375 0.8125 0.14459 0.27351 0.31562 0.53562 0.5 0.78125 0.18438 0.24564 0.37378 0.47347 0.59375 0.6875 0.43995 0.42806 0.94291 0.81453 1.5 1.0938 0.27854 0.13961 0.57347 0.24695 0.875 0.34375-0.2562-0.10022-0.48671-0.23627-0.71875-0.375-0.00741-0.0044-0.023866 0.0045-0.03125 0-0.031933-0.0193-0.062293-0.04251-0.09375-0.0625-0.1204-0.0767-0.23102-0.16351-0.34375-0.25-0.10617-0.0808-0.21328-0.16111-0.3125-0.25-0.1778-0.162-0.3473-0.346-0.4999-0.531-0.1075-0.131-0.2183-0.266-0.3124-0.407-0.0251-0.038-0.0385-0.086-0.0626-0.125-0.0647-0.103-0.1302-0.204-0.1874-0.312-0.1011-0.195-0.2057-0.416-0.2813-0.625-0.008-0.022-0.0236-0.041-0.0313-0.063-0.0318-0.092-0.0358-0.187-0.0624-0.281-0.0304-0.107-0.0704-0.203-0.0938-0.313-0.0729-0.341-0.125-0.698-0.125-1.062v-2-68-2c0-2.782 2.2182-5 5-5h2 68 2c2.7818 0 5 2.2182 5 5v2 68 2c0 0.3643-0.05212 0.72099-0.125 1.0625-0.04415 0.20689-0.08838 0.39766-0.15625 0.59375-0.0077 0.02195-0.0233 0.04069-0.03125 0.0625-0.06274 0.17374-0.13838 0.36745-0.21875 0.53125-0.04158 0.0828-0.07904 0.16995-0.125 0.25-0.0546 0.09721-0.12677 0.18835-0.1875 0.28125-0.09411 0.14096-0.20492 0.276-0.3125 0.40625-0.14317 0.17445-0.30314 0.347-0.46875 0.5-0.01117 0.0102-0.01998 0.02115-0.03125 0.03125-0.13839 0.12556-0.28509 0.23444-0.4375 0.34375-0.10257 0.07315-0.20432 0.15336-0.3125 0.21875-0.0074 0.0045-0.02384-0.0044-0.03125 0-0.23204 0.13873-0.46255 0.27478-0.71875 0.375 0.30153-0.0968 0.59646-0.20414 0.875-0.34375 0.55709-0.27922 1.0601-0.66569 1.5-1.0938 0.21997-0.21403 0.40937-0.44186 0.59375-0.6875s0.35541-0.50774 0.5-0.78125c0.14012-0.26505 0.27614-0.52473 0.375-0.8125 0.01041-0.03078 0.02133-0.06274 0.03125-0.09375 0.09046-0.27808 0.1388-0.5794 0.1875-0.875 0.053-0.318 0.094-0.634 0.094-0.969v-2-68-2c0-3.324-2.676-6-6-6h-72z"/>
  <path id="path3615" style="opacity:.4;fill:url(#radialGradient3619)" d="m12 90c-3.324 0-6-2.676-6-6v-2-68-2c0-0.33472 0.04135-0.6507 0.09375-0.96875 0.0487-0.2956 0.09704-0.59692 0.1875-0.875 0.0099-0.03 0.0209-0.063 0.0313-0.094 0.0989-0.2873 0.2349-0.547 0.375-0.812 0.1446-0.2735 0.3156-0.5356 0.5-0.7812 0.1844-0.2457 0.3738-0.4735 0.5937-0.6876 0.44-0.428 0.943-0.8145 1.5-1.0937 0.2786-0.1396 0.5735-0.2469 0.8748-0.3437-0.256 0.1002-0.4865 0.2362-0.7185 0.375-0.00741 0.0044-0.023866-0.0045-0.03125 0-0.031933 0.0193-0.062293 0.04251-0.09375 0.0625-0.1204 0.0767-0.23102 0.16351-0.34375 0.25-0.10617 0.0808-0.21328 0.16111-0.3125 0.25-0.1779 0.1614-0.3474 0.3453-0.5 0.5312-0.1075 0.1303-0.2183 0.2653-0.3124 0.4063-0.0251 0.0383-0.0385 0.0858-0.0626 0.125-0.0647 0.103-0.1302 0.2045-0.1874 0.3124-0.1011 0.1948-0.2057 0.4158-0.2813 0.625-0.008 0.0219-0.0236 0.0406-0.0313 0.0626-0.0318 0.0919-0.0358 0.1868-0.0624 0.2812-0.0304 0.1066-0.0704 0.203-0.0938 0.3125-0.0729 0.3415-0.125 0.6985-0.125 1.0625v2 68 2c0 2.7818 2.2182 5 5 5h2 68 2c2.7818 0 5-2.2182 5-5v-2-68-2c0-0.364-0.052-0.721-0.125-1.0625-0.044-0.2069-0.088-0.3977-0.156-0.5937-0.008-0.022-0.024-0.0407-0.031-0.0626-0.063-0.1737-0.139-0.3674-0.219-0.5312-0.042-0.0828-0.079-0.17-0.125-0.25-0.055-0.0972-0.127-0.1884-0.188-0.2812-0.094-0.141-0.205-0.276-0.312-0.4063-0.143-0.1745-0.303-0.347-0.469-0.5-0.011-0.0102-0.02-0.0211-0.031-0.0313-0.139-0.1255-0.285-0.2344-0.438-0.3437-0.102-0.0731-0.204-0.1534-0.312-0.2187-0.0074-0.0045-0.02384 0.0044-0.03125 0-0.23204-0.13873-0.46255-0.27478-0.71875-0.375 0.30153 0.0968 0.59646 0.20414 0.875 0.34375 0.55709 0.27922 1.0601 0.66569 1.5 1.0938 0.21997 0.21403 0.40937 0.44186 0.59375 0.6875s0.35541 0.50774 0.5 0.78125c0.14012 0.26505 0.27614 0.52473 0.375 0.8125 0.01041 0.03078 0.02133 0.06274 0.03125 0.09375 0.09046 0.27808 0.1388 0.5794 0.1875 0.875 0.053 0.318 0.094 0.634 0.094 0.969v2 68 2c0 3.324-2.676 6-6 6h-72z"/>
  <path id="rect4387" style="opacity:.8;color:#000000;fill:url(#linearGradient4401)" d="m14 72v8c0 1.108 0.892 2 2 2h64c1.108 0 2-0.892 2-2v-8h-68z"/>
 </g>
 <g id="layer6">
  <g id="g4111">
   <path id="path4056" style="opacity:.25;color:#000000" d="m-77 16.969c-1.6667 0-3.0312 1.3645-3.0312 3.0312v8c0 1.6667 1.3645 3.0312 3.0312 3.0312h8c1.6667 0 3.0312-1.3645 3.0312-3.0312v-8c0-1.6667-1.3645-3.0312-3.0312-3.0312h-8z" transform="rotate(-90)"/>
   <rect id="rect4050" style="opacity:.5;color:#000000" transform="rotate(-90)" rx="2" ry="2" height="12" width="12" y="18" x="-79"/>
   <rect id="rect4020" style="color:#000000;fill:url(#linearGradient4048)" transform="rotate(-90)" rx="2" ry="2" height="12" width="12" y="18" x="-78"/>
   <path id="path4028" style="color:#000000;fill:url(#linearGradient4040)" d="m20 66c-1.108 0-2 0.892-2 2v2.625c1.4666 0.84118 3.5928 1.375 6 1.375s4.5334-0.53382 6-1.375v-2.625c0-1.108-0.892-2-2-2h-8z"/>
   <path id="path4109" style="opacity:.15;display:block" d="m23.438 67.969c-0.43181 0-0.8125 0.37662-0.8125 0.8125v0.21875c-0.04203 0.01818-0.08448 0.04317-0.125 0.0625l-0.15625-0.15625c-0.31766-0.31766-0.84128-0.315-1.1562 0l-0.78125 0.78125c-0.31498 0.31498-0.31764 0.83857 0 1.1562l0.154 0.155c-0.01933 0.04052-0.04432 0.08297-0.0625 0.125h-0.21875c-0.43588 0-0.8125 0.38069-0.8125 0.8125v1.125c0 0.43181 0.37662 0.8125 0.8125 0.8125h0.21875c0.01818 0.04203 0.04317 0.08448 0.0625 0.125l-0.15625 0.15625c-0.31766 0.31766-0.31501 0.84128 0 1.1562l0.78125 0.78125c0.31498 0.31498 0.83857 0.31764 1.1562 0l0.157-0.156c0.04052 0.01933 0.08297 0.04432 0.125 0.0625v0.21875c0 0.43588 0.38069 0.8125 0.8125 0.8125h1.125c0.43181 0 0.8125-0.37662 0.8125-0.8125l-0.001-0.22c0.04203-0.01818 0.08448-0.04317 0.125-0.0625l0.15625 0.15625c0.31766 0.31766 0.84128 0.31501 1.1562 0l0.78125-0.78125c0.31497-0.31498 0.31764-0.83857 0-1.1562l-0.155-0.157c0.01933-0.04052 0.04432-0.08297 0.0625-0.125h0.21875c0.43588 0 0.8125-0.3807 0.8125-0.8125v-1.125c0-0.43181-0.37662-0.8125-0.8125-0.8125h-0.21875c-0.019-0.041-0.044-0.083-0.063-0.124l0.15625-0.15625c0.10363-0.10363 0.2479-0.31388 0.25-0.5625 0.0023-0.26541-0.07854-0.42231-0.25-0.59375l-0.782-0.782c-0.31498-0.31497-0.83857-0.31764-1.1562 0l-0.156 0.156c-0.041-0.019-0.083-0.044-0.125-0.062v-0.21875c-0.000003-0.43587-0.38069-0.8125-0.8125-0.8125h-1.125zm0.562 3.843c0.3731 0 0.6875 0.3144 0.6875 0.6875 0 0.37311-0.31439 0.6875-0.6875 0.6875-0.3731 0-0.6875-0.31439-0.6875-0.6875 0-0.3731 0.3144-0.6875 0.6875-0.6875z"/>
   <path id="path4105" style="opacity:.3;display:block" d="m28 71.948c0-0.15742-0.13059-0.28489-0.2907-0.28489h-0.56395c-0.07499-0.28148-0.18828-0.55043-0.3314-0.79651l0.40116-0.40116c0.05661-0.05661 0.08659-0.12442 0.08721-0.19768 0.000626-0.07326-0.02574-0.14783-0.0814-0.20349l-0.78488-0.78488c-0.11131-0.11131-0.28795-0.1074-0.40116 0.0058l-0.40116 0.40116c-0.24608-0.14308-0.51503-0.25636-0.79651-0.33136v-0.56395c-0.000001-0.16011-0.12746-0.2907-0.28488-0.2907h-1.1047c-0.15742 0-0.28488 0.13059-0.28488 0.2907v0.56395c-0.28148 0.075-0.55043 0.18828-0.79651 0.3314l-0.40116-0.40116c-0.11322-0.11321-0.28985-0.11712-0.40116-0.0058l-0.78488 0.78488c-0.11131 0.11131-0.1074 0.28795 0.0058 0.40116l0.40114 0.40116c-0.14312 0.24608-0.2564 0.51503-0.3314 0.79651h-0.56395c-0.16011 0-0.2907 0.12747-0.2907 0.28489v1.1046c0 0.15742 0.13059 0.28488 0.2907 0.28488h0.56395c0.075 0.28148 0.18828 0.55043 0.3314 0.79651l-0.40116 0.40116c-0.11322 0.11322-0.11713 0.28985-0.0058 0.40116l0.78488 0.78488c0.11131 0.11131 0.28795 0.1074 0.40116-0.0058l0.40116-0.40116c0.24608 0.14312 0.51504 0.2564 0.79651 0.3314v0.56395c0 0.16011 0.12746 0.2907 0.28488 0.2907h1.1047c0.15742 0 0.28488-0.13059 0.28488-0.2907v-0.56395c0.28148-0.07499 0.55043-0.18828 0.79651-0.3314l0.40116 0.40116c0.11321 0.11321 0.28985 0.11713 0.40116 0.0058l0.78488-0.78488c0.11131-0.11131 0.1074-0.28795-0.0058-0.40116l-0.40116-0.40116c0.14312-0.24608 0.2564-0.51503 0.3314-0.79651h0.56395c0.16011 0 0.2907-0.12746 0.2907-0.28488v-1.1047zm-2.7907 0.55232c0 0.66754-0.54177 1.2093-1.2093 1.2093s-1.2093-0.54177-1.2093-1.2093 0.54177-1.2093 1.2093-1.2093c0.66754 0 1.2093 0.54177 1.2093 1.2093z"/>
   <path id="path5066" style="display:block;fill:#fff" d="m28 71.448c0-0.15742-0.13059-0.28489-0.2907-0.28489h-0.56395c-0.07499-0.28148-0.18828-0.55043-0.3314-0.79651l0.40116-0.40116c0.05661-0.05661 0.08659-0.12442 0.08721-0.19768 0.000626-0.07326-0.02574-0.14783-0.0814-0.20349l-0.78488-0.78488c-0.11131-0.11131-0.28795-0.1074-0.40116 0.0058l-0.40116 0.40116c-0.246-0.143-0.515-0.256-0.797-0.331v-0.56395c-0.000001-0.16011-0.12746-0.2907-0.28488-0.2907h-1.1047c-0.15742 0-0.28488 0.13059-0.28488 0.2907v0.56395c-0.28148 0.075-0.55043 0.18828-0.79651 0.3314l-0.40116-0.40116c-0.11322-0.11321-0.28985-0.11712-0.40116-0.0058l-0.78488 0.78488c-0.11131 0.11131-0.1074 0.28795 0.0058 0.40116l0.40114 0.40116c-0.14312 0.24608-0.2564 0.51503-0.3314 0.79651h-0.56395c-0.16011 0-0.2907 0.12747-0.2907 0.28489v1.1046c0 0.15742 0.13059 0.28488 0.2907 0.28488h0.56395c0.075 0.28148 0.18828 0.55043 0.3314 0.79651l-0.40116 0.40116c-0.11322 0.11322-0.11713 0.28985-0.0058 0.40116l0.78488 0.78488c0.11131 0.11131 0.28795 0.1074 0.40116-0.0058l0.402-0.402c0.24608 0.14312 0.51504 0.2564 0.79651 0.3314v0.56395c0 0.16011 0.12746 0.2907 0.28488 0.2907h1.1047c0.15742 0 0.28488-0.13059 0.28488-0.2907v-0.56395c0.28148-0.07499 0.55043-0.18828 0.79651-0.3314l0.40116 0.40116c0.11321 0.11321 0.28985 0.11713 0.40116 0.0058l0.78488-0.78488c0.11131-0.11131 0.1074-0.28795-0.0058-0.40116l-0.40116-0.40116c0.14312-0.24608 0.2564-0.51503 0.3314-0.79651h0.56395c0.16011 0 0.2907-0.12746 0.2907-0.28488v-1.1047zm-2.7907 0.55232c0 0.66754-0.54177 1.2093-1.2093 1.2093s-1.2093-0.54177-1.2093-1.2093 0.54177-1.2093 1.2093-1.2093c0.66754 0 1.2093 0.54177 1.2093 1.2093z"/>
  </g>
  <g id="g4120" transform="translate(16)">
   <path id="path4122" style="opacity:.25;color:#000000" d="m-77 16.969c-1.6667 0-3.0312 1.3645-3.0312 3.0312v8c0 1.6667 1.3645 3.0312 3.0312 3.0312h8c1.6667 0 3.0312-1.3645 3.0312-3.0312v-8c0-1.6667-1.3645-3.0312-3.0312-3.0312h-8z" transform="rotate(-90)"/>
   <rect id="rect4124" style="opacity:.5;color:#000000" transform="rotate(-90)" rx="2" ry="2" height="12" width="12" y="18" x="-79"/>
   <rect id="rect4126" style="color:#000000;fill:url(#linearGradient4136)" transform="rotate(-90)" rx="2" ry="2" height="12" width="12" y="18" x="-78"/>
   <path id="path4128" style="color:#000000;fill:url(#linearGradient4040)" d="m20 66c-1.108 0-2 0.892-2 2v2.625c1.4666 0.84118 3.5928 1.375 6 1.375s4.5334-0.53382 6-1.375v-2.625c0-1.108-0.892-2-2-2h-8z"/>
   <path id="path4130" style="opacity:.15;display:block" d="m23.438 67.969c-0.43181 0-0.8125 0.37662-0.8125 0.8125v0.21875c-0.04203 0.01818-0.08448 0.04317-0.125 0.0625l-0.15625-0.15625c-0.31766-0.31766-0.84128-0.315-1.1562 0l-0.78125 0.78125c-0.31498 0.31498-0.31764 0.83857 0 1.1562l0.154 0.155c-0.01933 0.04052-0.04432 0.08297-0.0625 0.125h-0.21875c-0.43588 0-0.8125 0.38069-0.8125 0.8125v1.125c0 0.43181 0.37662 0.8125 0.8125 0.8125h0.21875c0.01818 0.04203 0.04317 0.08448 0.0625 0.125l-0.15625 0.15625c-0.31766 0.31766-0.31501 0.84128 0 1.1562l0.78125 0.78125c0.31498 0.31498 0.83857 0.31764 1.1562 0l0.157-0.156c0.04052 0.01933 0.08297 0.04432 0.125 0.0625v0.21875c0 0.43588 0.38069 0.8125 0.8125 0.8125h1.125c0.43181 0 0.8125-0.37662 0.8125-0.8125l-0.001-0.22c0.04203-0.01818 0.08448-0.04317 0.125-0.0625l0.15625 0.15625c0.31766 0.31766 0.84128 0.31501 1.1562 0l0.78125-0.78125c0.31497-0.31498 0.31764-0.83857 0-1.1562l-0.155-0.157c0.01933-0.04052 0.04432-0.08297 0.0625-0.125h0.21875c0.43588 0 0.8125-0.3807 0.8125-0.8125v-1.125c0-0.43181-0.37662-0.8125-0.8125-0.8125h-0.21875c-0.019-0.041-0.044-0.083-0.063-0.124l0.15625-0.15625c0.10363-0.10363 0.2479-0.31388 0.25-0.5625 0.0023-0.26541-0.07854-0.42231-0.25-0.59375l-0.782-0.782c-0.31498-0.31497-0.83857-0.31764-1.1562 0l-0.156 0.156c-0.041-0.019-0.083-0.044-0.125-0.062v-0.21875c-0.000003-0.43587-0.38069-0.8125-0.8125-0.8125h-1.125zm0.562 3.843c0.3731 0 0.6875 0.3144 0.6875 0.6875 0 0.37311-0.31439 0.6875-0.6875 0.6875-0.3731 0-0.6875-0.31439-0.6875-0.6875 0-0.3731 0.3144-0.6875 0.6875-0.6875z"/>
   <path id="path4132" style="opacity:.3;display:block" d="m28 71.948c0-0.15742-0.13059-0.28489-0.2907-0.28489h-0.56395c-0.07499-0.28148-0.18828-0.55043-0.3314-0.79651l0.40116-0.40116c0.05661-0.05661 0.08659-0.12442 0.08721-0.19768 0.000626-0.07326-0.02574-0.14783-0.0814-0.20349l-0.78488-0.78488c-0.11131-0.11131-0.28795-0.1074-0.40116 0.0058l-0.40116 0.40116c-0.24608-0.14308-0.51503-0.25636-0.79651-0.33136v-0.56395c-0.000001-0.16011-0.12746-0.2907-0.28488-0.2907h-1.1047c-0.15742 0-0.28488 0.13059-0.28488 0.2907v0.56395c-0.28148 0.075-0.55043 0.18828-0.79651 0.3314l-0.40116-0.40116c-0.11322-0.11321-0.28985-0.11712-0.40116-0.0058l-0.78488 0.78488c-0.11131 0.11131-0.1074 0.28795 0.0058 0.40116l0.40114 0.40116c-0.14312 0.24608-0.2564 0.51503-0.3314 0.79651h-0.56395c-0.16011 0-0.2907 0.12747-0.2907 0.28489v1.1046c0 0.15742 0.13059 0.28488 0.2907 0.28488h0.56395c0.075 0.28148 0.18828 0.55043 0.3314 0.79651l-0.40116 0.40116c-0.11322 0.11322-0.11713 0.28985-0.0058 0.40116l0.78488 0.78488c0.11131 0.11131 0.28795 0.1074 0.40116-0.0058l0.40116-0.40116c0.24608 0.14312 0.51504 0.2564 0.79651 0.3314v0.56395c0 0.16011 0.12746 0.2907 0.28488 0.2907h1.1047c0.15742 0 0.28488-0.13059 0.28488-0.2907v-0.56395c0.28148-0.07499 0.55043-0.18828 0.79651-0.3314l0.40116 0.40116c0.11321 0.11321 0.28985 0.11713 0.40116 0.0058l0.78488-0.78488c0.11131-0.11131 0.1074-0.28795-0.0058-0.40116l-0.40116-0.40116c0.14312-0.24608 0.2564-0.51503 0.3314-0.79651h0.56395c0.16011 0 0.2907-0.12746 0.2907-0.28488v-1.1047zm-2.7907 0.55232c0 0.66754-0.54177 1.2093-1.2093 1.2093s-1.2093-0.54177-1.2093-1.2093 0.54177-1.2093 1.2093-1.2093c0.66754 0 1.2093 0.54177 1.2093 1.2093z"/>
   <path id="path4134" style="display:block;fill:#fff" d="m28 71.448c0-0.15742-0.13059-0.28489-0.2907-0.28489h-0.56395c-0.07499-0.28148-0.18828-0.55043-0.3314-0.79651l0.40116-0.40116c0.05661-0.05661 0.08659-0.12442 0.08721-0.19768 0.000626-0.07326-0.02574-0.14783-0.0814-0.20349l-0.78488-0.78488c-0.11131-0.11131-0.28795-0.1074-0.40116 0.0058l-0.40116 0.40116c-0.246-0.143-0.515-0.256-0.797-0.331v-0.56395c-0.000001-0.16011-0.12746-0.2907-0.28488-0.2907h-1.1047c-0.15742 0-0.28488 0.13059-0.28488 0.2907v0.56395c-0.28148 0.075-0.55043 0.18828-0.79651 0.3314l-0.40116-0.40116c-0.11322-0.11321-0.28985-0.11712-0.40116-0.0058l-0.78488 0.78488c-0.11131 0.11131-0.1074 0.28795 0.0058 0.40116l0.40114 0.40116c-0.14312 0.24608-0.2564 0.51503-0.3314 0.79651h-0.56395c-0.16011 0-0.2907 0.12747-0.2907 0.28489v1.1046c0 0.15742 0.13059 0.28488 0.2907 0.28488h0.56395c0.075 0.28148 0.18828 0.55043 0.3314 0.79651l-0.40116 0.40116c-0.11322 0.11322-0.11713 0.28985-0.0058 0.40116l0.78488 0.78488c0.11131 0.11131 0.28795 0.1074 0.40116-0.0058l0.402-0.402c0.24608 0.14312 0.51504 0.2564 0.79651 0.3314v0.56395c0 0.16011 0.12746 0.2907 0.28488 0.2907h1.1047c0.15742 0 0.28488-0.13059 0.28488-0.2907v-0.56395c0.28148-0.07499 0.55043-0.18828 0.79651-0.3314l0.40116 0.40116c0.11321 0.11321 0.28985 0.11713 0.40116 0.0058l0.78488-0.78488c0.11131-0.11131 0.1074-0.28795-0.0058-0.40116l-0.40116-0.40116c0.14312-0.24608 0.2564-0.51503 0.3314-0.79651h0.56395c0.16011 0 0.2907-0.12746 0.2907-0.28488v-1.1047zm-2.7907 0.55232c0 0.66754-0.54177 1.2093-1.2093 1.2093s-1.2093-0.54177-1.2093-1.2093 0.54177-1.2093 1.2093-1.2093c0.66754 0 1.2093 0.54177 1.2093 1.2093z"/>
  </g>
  <g id="g4140" transform="translate(32)">
   <path id="path4142" style="opacity:.25;color:#000000" d="m-77 16.969c-1.6667 0-3.0312 1.3645-3.0312 3.0312v8c0 1.6667 1.3645 3.0312 3.0312 3.0312h8c1.6667 0 3.0312-1.3645 3.0312-3.0312v-8c0-1.6667-1.3645-3.0312-3.0312-3.0312h-8z" transform="rotate(-90)"/>
   <rect id="rect4144" style="opacity:.5;color:#000000" transform="rotate(-90)" rx="2" ry="2" height="12" width="12" y="18" x="-79"/>
   <rect id="rect4146" style="color:#000000;fill:url(#linearGradient4156)" transform="rotate(-90)" rx="2" ry="2" height="12" width="12" y="18" x="-78"/>
   <path id="path4148" style="color:#000000;fill:url(#linearGradient4040)" d="m20 66c-1.108 0-2 0.892-2 2v2.625c1.4666 0.84118 3.5928 1.375 6 1.375s4.5334-0.53382 6-1.375v-2.625c0-1.108-0.892-2-2-2h-8z"/>
   <path id="path4150" style="opacity:.15;display:block" d="m23.438 67.969c-0.43181 0-0.8125 0.37662-0.8125 0.8125v0.21875c-0.04203 0.01818-0.08448 0.04317-0.125 0.0625l-0.15625-0.15625c-0.31766-0.31766-0.84128-0.315-1.1562 0l-0.78125 0.78125c-0.31498 0.31498-0.31764 0.83857 0 1.1562l0.154 0.155c-0.01933 0.04052-0.04432 0.08297-0.0625 0.125h-0.21875c-0.43588 0-0.8125 0.38069-0.8125 0.8125v1.125c0 0.43181 0.37662 0.8125 0.8125 0.8125h0.21875c0.01818 0.04203 0.04317 0.08448 0.0625 0.125l-0.15625 0.15625c-0.31766 0.31766-0.31501 0.84128 0 1.1562l0.78125 0.78125c0.31498 0.31498 0.83857 0.31764 1.1562 0l0.157-0.156c0.04052 0.01933 0.08297 0.04432 0.125 0.0625v0.21875c0 0.43588 0.38069 0.8125 0.8125 0.8125h1.125c0.43181 0 0.8125-0.37662 0.8125-0.8125l-0.001-0.22c0.04203-0.01818 0.08448-0.04317 0.125-0.0625l0.15625 0.15625c0.31766 0.31766 0.84128 0.31501 1.1562 0l0.78125-0.78125c0.31497-0.31498 0.31764-0.83857 0-1.1562l-0.155-0.157c0.01933-0.04052 0.04432-0.08297 0.0625-0.125h0.21875c0.43588 0 0.8125-0.3807 0.8125-0.8125v-1.125c0-0.43181-0.37662-0.8125-0.8125-0.8125h-0.21875c-0.019-0.041-0.044-0.083-0.063-0.124l0.15625-0.15625c0.10363-0.10363 0.2479-0.31388 0.25-0.5625 0.0023-0.26541-0.07854-0.42231-0.25-0.59375l-0.782-0.782c-0.31498-0.31497-0.83857-0.31764-1.1562 0l-0.156 0.156c-0.041-0.019-0.083-0.044-0.125-0.062v-0.21875c-0.000003-0.43587-0.38069-0.8125-0.8125-0.8125h-1.125zm0.562 3.843c0.3731 0 0.6875 0.3144 0.6875 0.6875 0 0.37311-0.31439 0.6875-0.6875 0.6875-0.3731 0-0.6875-0.31439-0.6875-0.6875 0-0.3731 0.3144-0.6875 0.6875-0.6875z"/>
   <path id="path4152" style="opacity:.3;display:block" d="m28 71.948c0-0.15742-0.13059-0.28489-0.2907-0.28489h-0.56395c-0.07499-0.28148-0.18828-0.55043-0.3314-0.79651l0.40116-0.40116c0.05661-0.05661 0.08659-0.12442 0.08721-0.19768 0.000626-0.07326-0.02574-0.14783-0.0814-0.20349l-0.78488-0.78488c-0.11131-0.11131-0.28795-0.1074-0.40116 0.0058l-0.40116 0.40116c-0.24608-0.14308-0.51503-0.25636-0.79651-0.33136v-0.56395c-0.000001-0.16011-0.12746-0.2907-0.28488-0.2907h-1.1047c-0.15742 0-0.28488 0.13059-0.28488 0.2907v0.56395c-0.28148 0.075-0.55043 0.18828-0.79651 0.3314l-0.40116-0.40116c-0.11322-0.11321-0.28985-0.11712-0.40116-0.0058l-0.78488 0.78488c-0.11131 0.11131-0.1074 0.28795 0.0058 0.40116l0.40114 0.40116c-0.14312 0.24608-0.2564 0.51503-0.3314 0.79651h-0.56395c-0.16011 0-0.2907 0.12747-0.2907 0.28489v1.1046c0 0.15742 0.13059 0.28488 0.2907 0.28488h0.56395c0.075 0.28148 0.18828 0.55043 0.3314 0.79651l-0.40116 0.40116c-0.11322 0.11322-0.11713 0.28985-0.0058 0.40116l0.78488 0.78488c0.11131 0.11131 0.28795 0.1074 0.40116-0.0058l0.40116-0.40116c0.24608 0.14312 0.51504 0.2564 0.79651 0.3314v0.56395c0 0.16011 0.12746 0.2907 0.28488 0.2907h1.1047c0.15742 0 0.28488-0.13059 0.28488-0.2907v-0.56395c0.28148-0.07499 0.55043-0.18828 0.79651-0.3314l0.40116 0.40116c0.11321 0.11321 0.28985 0.11713 0.40116 0.0058l0.78488-0.78488c0.11131-0.11131 0.1074-0.28795-0.0058-0.40116l-0.40116-0.40116c0.14312-0.24608 0.2564-0.51503 0.3314-0.79651h0.56395c0.16011 0 0.2907-0.12746 0.2907-0.28488v-1.1047zm-2.7907 0.55232c0 0.66754-0.54177 1.2093-1.2093 1.2093s-1.2093-0.54177-1.2093-1.2093 0.54177-1.2093 1.2093-1.2093c0.66754 0 1.2093 0.54177 1.2093 1.2093z"/>
   <path id="path4154" style="display:block;fill:#fff" d="m28 71.448c0-0.15742-0.13059-0.28489-0.2907-0.28489h-0.56395c-0.07499-0.28148-0.18828-0.55043-0.3314-0.79651l0.40116-0.40116c0.05661-0.05661 0.08659-0.12442 0.08721-0.19768 0.000626-0.07326-0.02574-0.14783-0.0814-0.20349l-0.78488-0.78488c-0.11131-0.11131-0.28795-0.1074-0.40116 0.0058l-0.40116 0.40116c-0.246-0.143-0.515-0.256-0.797-0.331v-0.56395c-0.000001-0.16011-0.12746-0.2907-0.28488-0.2907h-1.1047c-0.15742 0-0.28488 0.13059-0.28488 0.2907v0.56395c-0.28148 0.075-0.55043 0.18828-0.79651 0.3314l-0.40116-0.40116c-0.11322-0.11321-0.28985-0.11712-0.40116-0.0058l-0.78488 0.78488c-0.11131 0.11131-0.1074 0.28795 0.0058 0.40116l0.40114 0.40116c-0.14312 0.24608-0.2564 0.51503-0.3314 0.79651h-0.56395c-0.16011 0-0.2907 0.12747-0.2907 0.28489v1.1046c0 0.15742 0.13059 0.28488 0.2907 0.28488h0.56395c0.075 0.28148 0.18828 0.55043 0.3314 0.79651l-0.40116 0.40116c-0.11322 0.11322-0.11713 0.28985-0.0058 0.40116l0.78488 0.78488c0.11131 0.11131 0.28795 0.1074 0.40116-0.0058l0.402-0.402c0.24608 0.14312 0.51504 0.2564 0.79651 0.3314v0.56395c0 0.16011 0.12746 0.2907 0.28488 0.2907h1.1047c0.15742 0 0.28488-0.13059 0.28488-0.2907v-0.56395c0.28148-0.07499 0.55043-0.18828 0.79651-0.3314l0.40116 0.40116c0.11321 0.11321 0.28985 0.11713 0.40116 0.0058l0.78488-0.78488c0.11131-0.11131 0.1074-0.28795-0.0058-0.40116l-0.40116-0.40116c0.14312-0.24608 0.2564-0.51503 0.3314-0.79651h0.56395c0.16011 0 0.2907-0.12746 0.2907-0.28488v-1.1047zm-2.7907 0.55232c0 0.66754-0.54177 1.2093-1.2093 1.2093s-1.2093-0.54177-1.2093-1.2093 0.54177-1.2093 1.2093-1.2093c0.66754 0 1.2093 0.54177 1.2093 1.2093z"/>
  </g>
  <g id="g4160" transform="translate(48)">
   <path id="path4162" style="opacity:.25;color:#000000" d="m-77 16.969c-1.6667 0-3.0312 1.3645-3.0312 3.0312v8c0 1.6667 1.3645 3.0312 3.0312 3.0312h8c1.6667 0 3.0312-1.3645 3.0312-3.0312v-8c0-1.6667-1.3645-3.0312-3.0312-3.0312h-8z" transform="rotate(-90)"/>
   <rect id="rect4164" style="opacity:.5;color:#000000" transform="rotate(-90)" rx="2" ry="2" height="12" width="12" y="18" x="-79"/>
   <rect id="rect4166" style="color:#000000;fill:url(#linearGradient4176)" transform="rotate(-90)" rx="2" ry="2" height="12" width="12" y="18" x="-78"/>
   <path id="path4168" style="color:#000000;fill:url(#linearGradient4040)" d="m20 66c-1.108 0-2 0.892-2 2v2.625c1.4666 0.84118 3.5928 1.375 6 1.375s4.5334-0.53382 6-1.375v-2.625c0-1.108-0.892-2-2-2h-8z"/>
   <path id="path4170" style="opacity:.15;display:block" d="m23.438 67.969c-0.43181 0-0.8125 0.37662-0.8125 0.8125v0.21875c-0.04203 0.01818-0.08448 0.04317-0.125 0.0625l-0.15625-0.15625c-0.31766-0.31766-0.84128-0.315-1.1562 0l-0.78125 0.78125c-0.31498 0.31498-0.31764 0.83857 0 1.1562l0.154 0.155c-0.01933 0.04052-0.04432 0.08297-0.0625 0.125h-0.21875c-0.43588 0-0.8125 0.38069-0.8125 0.8125v1.125c0 0.43181 0.37662 0.8125 0.8125 0.8125h0.21875c0.01818 0.04203 0.04317 0.08448 0.0625 0.125l-0.15625 0.15625c-0.31766 0.31766-0.31501 0.84128 0 1.1562l0.78125 0.78125c0.31498 0.31498 0.83857 0.31764 1.1562 0l0.157-0.156c0.04052 0.01933 0.08297 0.04432 0.125 0.0625v0.21875c0 0.43588 0.38069 0.8125 0.8125 0.8125h1.125c0.43181 0 0.8125-0.37662 0.8125-0.8125l-0.001-0.22c0.04203-0.01818 0.08448-0.04317 0.125-0.0625l0.15625 0.15625c0.31766 0.31766 0.84128 0.31501 1.1562 0l0.78125-0.78125c0.31497-0.31498 0.31764-0.83857 0-1.1562l-0.155-0.157c0.01933-0.04052 0.04432-0.08297 0.0625-0.125h0.21875c0.43588 0 0.8125-0.3807 0.8125-0.8125v-1.125c0-0.43181-0.37662-0.8125-0.8125-0.8125h-0.21875c-0.019-0.041-0.044-0.083-0.063-0.124l0.15625-0.15625c0.10363-0.10363 0.2479-0.31388 0.25-0.5625 0.0023-0.26541-0.07854-0.42231-0.25-0.59375l-0.782-0.782c-0.31498-0.31497-0.83857-0.31764-1.1562 0l-0.156 0.156c-0.041-0.019-0.083-0.044-0.125-0.062v-0.21875c-0.000003-0.43587-0.38069-0.8125-0.8125-0.8125h-1.125zm0.562 3.843c0.3731 0 0.6875 0.3144 0.6875 0.6875 0 0.37311-0.31439 0.6875-0.6875 0.6875-0.3731 0-0.6875-0.31439-0.6875-0.6875 0-0.3731 0.3144-0.6875 0.6875-0.6875z"/>
   <path id="path4172" style="opacity:.3;display:block" d="m28 71.948c0-0.15742-0.13059-0.28489-0.2907-0.28489h-0.56395c-0.07499-0.28148-0.18828-0.55043-0.3314-0.79651l0.40116-0.40116c0.05661-0.05661 0.08659-0.12442 0.08721-0.19768 0.000626-0.07326-0.02574-0.14783-0.0814-0.20349l-0.78488-0.78488c-0.11131-0.11131-0.28795-0.1074-0.40116 0.0058l-0.40116 0.40116c-0.24608-0.14308-0.51503-0.25636-0.79651-0.33136v-0.56395c-0.000001-0.16011-0.12746-0.2907-0.28488-0.2907h-1.1047c-0.15742 0-0.28488 0.13059-0.28488 0.2907v0.56395c-0.28148 0.075-0.55043 0.18828-0.79651 0.3314l-0.40116-0.40116c-0.11322-0.11321-0.28985-0.11712-0.40116-0.0058l-0.78488 0.78488c-0.11131 0.11131-0.1074 0.28795 0.0058 0.40116l0.40114 0.40116c-0.14312 0.24608-0.2564 0.51503-0.3314 0.79651h-0.56395c-0.16011 0-0.2907 0.12747-0.2907 0.28489v1.1046c0 0.15742 0.13059 0.28488 0.2907 0.28488h0.56395c0.075 0.28148 0.18828 0.55043 0.3314 0.79651l-0.40116 0.40116c-0.11322 0.11322-0.11713 0.28985-0.0058 0.40116l0.78488 0.78488c0.11131 0.11131 0.28795 0.1074 0.40116-0.0058l0.40116-0.40116c0.24608 0.14312 0.51504 0.2564 0.79651 0.3314v0.56395c0 0.16011 0.12746 0.2907 0.28488 0.2907h1.1047c0.15742 0 0.28488-0.13059 0.28488-0.2907v-0.56395c0.28148-0.07499 0.55043-0.18828 0.79651-0.3314l0.40116 0.40116c0.11321 0.11321 0.28985 0.11713 0.40116 0.0058l0.78488-0.78488c0.11131-0.11131 0.1074-0.28795-0.0058-0.40116l-0.40116-0.40116c0.14312-0.24608 0.2564-0.51503 0.3314-0.79651h0.56395c0.16011 0 0.2907-0.12746 0.2907-0.28488v-1.1047zm-2.7907 0.55232c0 0.66754-0.54177 1.2093-1.2093 1.2093s-1.2093-0.54177-1.2093-1.2093 0.54177-1.2093 1.2093-1.2093c0.66754 0 1.2093 0.54177 1.2093 1.2093z"/>
   <path id="path4174" style="display:block;fill:#fff" d="m28 71.448c0-0.15742-0.13059-0.28489-0.2907-0.28489h-0.56395c-0.07499-0.28148-0.18828-0.55043-0.3314-0.79651l0.40116-0.40116c0.05661-0.05661 0.08659-0.12442 0.08721-0.19768 0.000626-0.07326-0.02574-0.14783-0.0814-0.20349l-0.78488-0.78488c-0.11131-0.11131-0.28795-0.1074-0.40116 0.0058l-0.40116 0.40116c-0.246-0.143-0.515-0.256-0.797-0.331v-0.56395c-0.000001-0.16011-0.12746-0.2907-0.28488-0.2907h-1.1047c-0.15742 0-0.28488 0.13059-0.28488 0.2907v0.56395c-0.28148 0.075-0.55043 0.18828-0.79651 0.3314l-0.40116-0.40116c-0.11322-0.11321-0.28985-0.11712-0.40116-0.0058l-0.78488 0.78488c-0.11131 0.11131-0.1074 0.28795 0.0058 0.40116l0.40114 0.40116c-0.14312 0.24608-0.2564 0.51503-0.3314 0.79651h-0.56395c-0.16011 0-0.2907 0.12747-0.2907 0.28489v1.1046c0 0.15742 0.13059 0.28488 0.2907 0.28488h0.56395c0.075 0.28148 0.18828 0.55043 0.3314 0.79651l-0.40116 0.40116c-0.11322 0.11322-0.11713 0.28985-0.0058 0.40116l0.78488 0.78488c0.11131 0.11131 0.28795 0.1074 0.40116-0.0058l0.402-0.402c0.24608 0.14312 0.51504 0.2564 0.79651 0.3314v0.56395c0 0.16011 0.12746 0.2907 0.28488 0.2907h1.1047c0.15742 0 0.28488-0.13059 0.28488-0.2907v-0.56395c0.28148-0.07499 0.55043-0.18828 0.79651-0.3314l0.40116 0.40116c0.11321 0.11321 0.28985 0.11713 0.40116 0.0058l0.78488-0.78488c0.11131-0.11131 0.1074-0.28795-0.0058-0.40116l-0.40116-0.40116c0.14312-0.24608 0.2564-0.51503 0.3314-0.79651h0.56395c0.16011 0 0.2907-0.12746 0.2907-0.28488v-1.1047zm-2.7907 0.55232c0 0.66754-0.54177 1.2093-1.2093 1.2093s-1.2093-0.54177-1.2093-1.2093 0.54177-1.2093 1.2093-1.2093c0.66754 0 1.2093 0.54177 1.2093 1.2093z"/>
  </g>
  <g id="g4198" transform="translate(0,-48)">
   <path id="path4200" style="opacity:.25;color:#000000" d="m-77 16.969c-1.6667 0-3.0312 1.3645-3.0312 3.0312v8c0 1.6667 1.3645 3.0312 3.0312 3.0312h8c1.6667 0 3.0312-1.3645 3.0312-3.0312v-8c0-1.6667-1.3645-3.0312-3.0312-3.0312h-8z" transform="rotate(-90)"/>
   <rect id="rect4202" style="opacity:.5;color:#000000" transform="rotate(-90)" rx="2" ry="2" height="12" width="12" y="18" x="-79"/>
   <rect id="rect4204" style="color:#000000;fill:url(#linearGradient4262)" transform="rotate(-90)" rx="2" ry="2" height="12" width="12" y="18" x="-78"/>
   <path id="path4206" style="color:#000000;fill:url(#linearGradient4040)" d="m20 66c-1.108 0-2 0.892-2 2v2.625c1.4666 0.84118 3.5928 1.375 6 1.375s4.5334-0.53382 6-1.375v-2.625c0-1.108-0.892-2-2-2h-8z"/>
   <path id="path4208" style="opacity:.15;display:block" d="m23.438 67.969c-0.43181 0-0.8125 0.37662-0.8125 0.8125v0.21875c-0.04203 0.01818-0.08448 0.04317-0.125 0.0625l-0.15625-0.15625c-0.31766-0.31766-0.84128-0.315-1.1562 0l-0.78125 0.78125c-0.31498 0.31498-0.31764 0.83857 0 1.1562l0.154 0.155c-0.01933 0.04052-0.04432 0.08297-0.0625 0.125h-0.21875c-0.43588 0-0.8125 0.38069-0.8125 0.8125v1.125c0 0.43181 0.37662 0.8125 0.8125 0.8125h0.21875c0.01818 0.04203 0.04317 0.08448 0.0625 0.125l-0.15625 0.15625c-0.31766 0.31766-0.31501 0.84128 0 1.1562l0.78125 0.78125c0.31498 0.31498 0.83857 0.31764 1.1562 0l0.157-0.156c0.04052 0.01933 0.08297 0.04432 0.125 0.0625v0.21875c0 0.43588 0.38069 0.8125 0.8125 0.8125h1.125c0.43181 0 0.8125-0.37662 0.8125-0.8125l-0.001-0.22c0.04203-0.01818 0.08448-0.04317 0.125-0.0625l0.15625 0.15625c0.31766 0.31766 0.84128 0.31501 1.1562 0l0.78125-0.78125c0.31497-0.31498 0.31764-0.83857 0-1.1562l-0.155-0.157c0.01933-0.04052 0.04432-0.08297 0.0625-0.125h0.21875c0.43588 0 0.8125-0.3807 0.8125-0.8125v-1.125c0-0.43181-0.37662-0.8125-0.8125-0.8125h-0.21875c-0.019-0.041-0.044-0.083-0.063-0.124l0.15625-0.15625c0.10363-0.10363 0.2479-0.31388 0.25-0.5625 0.0023-0.26541-0.07854-0.42231-0.25-0.59375l-0.782-0.782c-0.31498-0.31497-0.83857-0.31764-1.1562 0l-0.156 0.156c-0.041-0.019-0.083-0.044-0.125-0.062v-0.21875c-0.000003-0.43587-0.38069-0.8125-0.8125-0.8125h-1.125zm0.562 3.843c0.3731 0 0.6875 0.3144 0.6875 0.6875 0 0.37311-0.31439 0.6875-0.6875 0.6875-0.3731 0-0.6875-0.31439-0.6875-0.6875 0-0.3731 0.3144-0.6875 0.6875-0.6875z"/>
   <path id="path4210" style="opacity:.3;display:block" d="m28 71.948c0-0.15742-0.13059-0.28489-0.2907-0.28489h-0.56395c-0.07499-0.28148-0.18828-0.55043-0.3314-0.79651l0.40116-0.40116c0.05661-0.05661 0.08659-0.12442 0.08721-0.19768 0.000626-0.07326-0.02574-0.14783-0.0814-0.20349l-0.78488-0.78488c-0.11131-0.11131-0.28795-0.1074-0.40116 0.0058l-0.40116 0.40116c-0.24608-0.14308-0.51503-0.25636-0.79651-0.33136v-0.56395c-0.000001-0.16011-0.12746-0.2907-0.28488-0.2907h-1.1047c-0.15742 0-0.28488 0.13059-0.28488 0.2907v0.56395c-0.28148 0.075-0.55043 0.18828-0.79651 0.3314l-0.40116-0.40116c-0.11322-0.11321-0.28985-0.11712-0.40116-0.0058l-0.78488 0.78488c-0.11131 0.11131-0.1074 0.28795 0.0058 0.40116l0.40114 0.40116c-0.14312 0.24608-0.2564 0.51503-0.3314 0.79651h-0.56395c-0.16011 0-0.2907 0.12747-0.2907 0.28489v1.1046c0 0.15742 0.13059 0.28488 0.2907 0.28488h0.56395c0.075 0.28148 0.18828 0.55043 0.3314 0.79651l-0.40116 0.40116c-0.11322 0.11322-0.11713 0.28985-0.0058 0.40116l0.78488 0.78488c0.11131 0.11131 0.28795 0.1074 0.40116-0.0058l0.40116-0.40116c0.24608 0.14312 0.51504 0.2564 0.79651 0.3314v0.56395c0 0.16011 0.12746 0.2907 0.28488 0.2907h1.1047c0.15742 0 0.28488-0.13059 0.28488-0.2907v-0.56395c0.28148-0.07499 0.55043-0.18828 0.79651-0.3314l0.40116 0.40116c0.11321 0.11321 0.28985 0.11713 0.40116 0.0058l0.78488-0.78488c0.11131-0.11131 0.1074-0.28795-0.0058-0.40116l-0.40116-0.40116c0.14312-0.24608 0.2564-0.51503 0.3314-0.79651h0.56395c0.16011 0 0.2907-0.12746 0.2907-0.28488v-1.1047zm-2.7907 0.55232c0 0.66754-0.54177 1.2093-1.2093 1.2093s-1.2093-0.54177-1.2093-1.2093 0.54177-1.2093 1.2093-1.2093c0.66754 0 1.2093 0.54177 1.2093 1.2093z"/>
   <path id="path4212" style="display:block;fill:#ececec" d="m28 71.448c0-0.15742-0.13059-0.28489-0.2907-0.28489h-0.56395c-0.07499-0.28148-0.18828-0.55043-0.3314-0.79651l0.40116-0.40116c0.05661-0.05661 0.08659-0.12442 0.08721-0.19768 0.000626-0.07326-0.02574-0.14783-0.0814-0.20349l-0.78488-0.78488c-0.11131-0.11131-0.28795-0.1074-0.40116 0.0058l-0.40116 0.40116c-0.246-0.143-0.515-0.256-0.797-0.331v-0.56395c-0.000001-0.16011-0.12746-0.2907-0.28488-0.2907h-1.1047c-0.15742 0-0.28488 0.13059-0.28488 0.2907v0.56395c-0.28148 0.075-0.55043 0.18828-0.79651 0.3314l-0.40116-0.40116c-0.11322-0.11321-0.28985-0.11712-0.40116-0.0058l-0.78488 0.78488c-0.11131 0.11131-0.1074 0.28795 0.0058 0.40116l0.40114 0.40116c-0.14312 0.24608-0.2564 0.51503-0.3314 0.79651h-0.56395c-0.16011 0-0.2907 0.12747-0.2907 0.28489v1.1046c0 0.15742 0.13059 0.28488 0.2907 0.28488h0.56395c0.075 0.28148 0.18828 0.55043 0.3314 0.79651l-0.40116 0.40116c-0.11322 0.11322-0.11713 0.28985-0.0058 0.40116l0.78488 0.78488c0.11131 0.11131 0.28795 0.1074 0.40116-0.0058l0.402-0.402c0.24608 0.14312 0.51504 0.2564 0.79651 0.3314v0.56395c0 0.16011 0.12746 0.2907 0.28488 0.2907h1.1047c0.15742 0 0.28488-0.13059 0.28488-0.2907v-0.56395c0.28148-0.07499 0.55043-0.18828 0.79651-0.3314l0.40116 0.40116c0.11321 0.11321 0.28985 0.11713 0.40116 0.0058l0.78488-0.78488c0.11131-0.11131 0.1074-0.28795-0.0058-0.40116l-0.40116-0.40116c0.14312-0.24608 0.2564-0.51503 0.3314-0.79651h0.56395c0.16011 0 0.2907-0.12746 0.2907-0.28488v-1.1047zm-2.7907 0.55232c0 0.66754-0.54177 1.2093-1.2093 1.2093s-1.2093-0.54177-1.2093-1.2093 0.54177-1.2093 1.2093-1.2093c0.66754 0 1.2093 0.54177 1.2093 1.2093z"/>
  </g>
  <g id="g4214" transform="translate(16,-48)">
   <path id="path4216" style="opacity:.25;color:#000000" d="m-77 16.969c-1.6667 0-3.0312 1.3645-3.0312 3.0312v8c0 1.6667 1.3645 3.0312 3.0312 3.0312h8c1.6667 0 3.0312-1.3645 3.0312-3.0312v-8c0-1.6667-1.3645-3.0312-3.0312-3.0312h-8z" transform="rotate(-90)"/>
   <rect id="rect4218" style="opacity:.5;color:#000000" transform="rotate(-90)" rx="2" ry="2" height="12" width="12" y="18" x="-79"/>
   <rect id="rect4220" style="color:#000000;fill:url(#linearGradient4266)" transform="rotate(-90)" rx="2" ry="2" height="12" width="12" y="18" x="-78"/>
   <path id="path4222" style="color:#000000;fill:url(#linearGradient4040)" d="m20 66c-1.108 0-2 0.892-2 2v2.625c1.4666 0.84118 3.5928 1.375 6 1.375s4.5334-0.53382 6-1.375v-2.625c0-1.108-0.892-2-2-2h-8z"/>
   <path id="path4224" style="opacity:.15;display:block" d="m23.438 67.969c-0.43181 0-0.8125 0.37662-0.8125 0.8125v0.21875c-0.04203 0.01818-0.08448 0.04317-0.125 0.0625l-0.15625-0.15625c-0.31766-0.31766-0.84128-0.315-1.1562 0l-0.78125 0.78125c-0.31498 0.31498-0.31764 0.83857 0 1.1562l0.154 0.155c-0.01933 0.04052-0.04432 0.08297-0.0625 0.125h-0.21875c-0.43588 0-0.8125 0.38069-0.8125 0.8125v1.125c0 0.43181 0.37662 0.8125 0.8125 0.8125h0.21875c0.01818 0.04203 0.04317 0.08448 0.0625 0.125l-0.15625 0.15625c-0.31766 0.31766-0.31501 0.84128 0 1.1562l0.78125 0.78125c0.31498 0.31498 0.83857 0.31764 1.1562 0l0.157-0.156c0.04052 0.01933 0.08297 0.04432 0.125 0.0625v0.21875c0 0.43588 0.38069 0.8125 0.8125 0.8125h1.125c0.43181 0 0.8125-0.37662 0.8125-0.8125l-0.001-0.22c0.04203-0.01818 0.08448-0.04317 0.125-0.0625l0.15625 0.15625c0.31766 0.31766 0.84128 0.31501 1.1562 0l0.78125-0.78125c0.31497-0.31498 0.31764-0.83857 0-1.1562l-0.155-0.157c0.01933-0.04052 0.04432-0.08297 0.0625-0.125h0.21875c0.43588 0 0.8125-0.3807 0.8125-0.8125v-1.125c0-0.43181-0.37662-0.8125-0.8125-0.8125h-0.21875c-0.019-0.041-0.044-0.083-0.063-0.124l0.15625-0.15625c0.10363-0.10363 0.2479-0.31388 0.25-0.5625 0.0023-0.26541-0.07854-0.42231-0.25-0.59375l-0.782-0.782c-0.31498-0.31497-0.83857-0.31764-1.1562 0l-0.156 0.156c-0.041-0.019-0.083-0.044-0.125-0.062v-0.21875c-0.000003-0.43587-0.38069-0.8125-0.8125-0.8125h-1.125zm0.562 3.843c0.3731 0 0.6875 0.3144 0.6875 0.6875 0 0.37311-0.31439 0.6875-0.6875 0.6875-0.3731 0-0.6875-0.31439-0.6875-0.6875 0-0.3731 0.3144-0.6875 0.6875-0.6875z"/>
   <path id="path4226" style="opacity:.3;display:block" d="m28 71.948c0-0.15742-0.13059-0.28489-0.2907-0.28489h-0.56395c-0.07499-0.28148-0.18828-0.55043-0.3314-0.79651l0.40116-0.40116c0.05661-0.05661 0.08659-0.12442 0.08721-0.19768 0.000626-0.07326-0.02574-0.14783-0.0814-0.20349l-0.78488-0.78488c-0.11131-0.11131-0.28795-0.1074-0.40116 0.0058l-0.40116 0.40116c-0.24608-0.14308-0.51503-0.25636-0.79651-0.33136v-0.56395c-0.000001-0.16011-0.12746-0.2907-0.28488-0.2907h-1.1047c-0.15742 0-0.28488 0.13059-0.28488 0.2907v0.56395c-0.28148 0.075-0.55043 0.18828-0.79651 0.3314l-0.40116-0.40116c-0.11322-0.11321-0.28985-0.11712-0.40116-0.0058l-0.78488 0.78488c-0.11131 0.11131-0.1074 0.28795 0.0058 0.40116l0.40114 0.40116c-0.14312 0.24608-0.2564 0.51503-0.3314 0.79651h-0.56395c-0.16011 0-0.2907 0.12747-0.2907 0.28489v1.1046c0 0.15742 0.13059 0.28488 0.2907 0.28488h0.56395c0.075 0.28148 0.18828 0.55043 0.3314 0.79651l-0.40116 0.40116c-0.11322 0.11322-0.11713 0.28985-0.0058 0.40116l0.78488 0.78488c0.11131 0.11131 0.28795 0.1074 0.40116-0.0058l0.40116-0.40116c0.24608 0.14312 0.51504 0.2564 0.79651 0.3314v0.56395c0 0.16011 0.12746 0.2907 0.28488 0.2907h1.1047c0.15742 0 0.28488-0.13059 0.28488-0.2907v-0.56395c0.28148-0.07499 0.55043-0.18828 0.79651-0.3314l0.40116 0.40116c0.11321 0.11321 0.28985 0.11713 0.40116 0.0058l0.78488-0.78488c0.11131-0.11131 0.1074-0.28795-0.0058-0.40116l-0.40116-0.40116c0.14312-0.24608 0.2564-0.51503 0.3314-0.79651h0.56395c0.16011 0 0.2907-0.12746 0.2907-0.28488v-1.1047zm-2.7907 0.55232c0 0.66754-0.54177 1.2093-1.2093 1.2093s-1.2093-0.54177-1.2093-1.2093 0.54177-1.2093 1.2093-1.2093c0.66754 0 1.2093 0.54177 1.2093 1.2093z"/>
   <path id="path4228" style="display:block;fill:#fff" d="m28 71.448c0-0.15742-0.13059-0.28489-0.2907-0.28489h-0.56395c-0.07499-0.28148-0.18828-0.55043-0.3314-0.79651l0.40116-0.40116c0.05661-0.05661 0.08659-0.12442 0.08721-0.19768 0.000626-0.07326-0.02574-0.14783-0.0814-0.20349l-0.78488-0.78488c-0.11131-0.11131-0.28795-0.1074-0.40116 0.0058l-0.40116 0.40116c-0.246-0.143-0.515-0.256-0.797-0.331v-0.56395c-0.000001-0.16011-0.12746-0.2907-0.28488-0.2907h-1.1047c-0.15742 0-0.28488 0.13059-0.28488 0.2907v0.56395c-0.28148 0.075-0.55043 0.18828-0.79651 0.3314l-0.40116-0.40116c-0.11322-0.11321-0.28985-0.11712-0.40116-0.0058l-0.78488 0.78488c-0.11131 0.11131-0.1074 0.28795 0.0058 0.40116l0.40114 0.40116c-0.14312 0.24608-0.2564 0.51503-0.3314 0.79651h-0.56395c-0.16011 0-0.2907 0.12747-0.2907 0.28489v1.1046c0 0.15742 0.13059 0.28488 0.2907 0.28488h0.56395c0.075 0.28148 0.18828 0.55043 0.3314 0.79651l-0.40116 0.40116c-0.11322 0.11322-0.11713 0.28985-0.0058 0.40116l0.78488 0.78488c0.11131 0.11131 0.28795 0.1074 0.40116-0.0058l0.402-0.402c0.24608 0.14312 0.51504 0.2564 0.79651 0.3314v0.56395c0 0.16011 0.12746 0.2907 0.28488 0.2907h1.1047c0.15742 0 0.28488-0.13059 0.28488-0.2907v-0.56395c0.28148-0.07499 0.55043-0.18828 0.79651-0.3314l0.40116 0.40116c0.11321 0.11321 0.28985 0.11713 0.40116 0.0058l0.78488-0.78488c0.11131-0.11131 0.1074-0.28795-0.0058-0.40116l-0.40116-0.40116c0.14312-0.24608 0.2564-0.51503 0.3314-0.79651h0.56395c0.16011 0 0.2907-0.12746 0.2907-0.28488v-1.1047zm-2.7907 0.55232c0 0.66754-0.54177 1.2093-1.2093 1.2093s-1.2093-0.54177-1.2093-1.2093 0.54177-1.2093 1.2093-1.2093c0.66754 0 1.2093 0.54177 1.2093 1.2093z"/>
  </g>
  <g id="g4230" transform="translate(32,-48)">
   <path id="path4232" style="opacity:.25;color:#000000" d="m-77 16.969c-1.6667 0-3.0312 1.3645-3.0312 3.0312v8c0 1.6667 1.3645 3.0312 3.0312 3.0312h8c1.6667 0 3.0312-1.3645 3.0312-3.0312v-8c0-1.6667-1.3645-3.0312-3.0312-3.0312h-8z" transform="rotate(-90)"/>
   <rect id="rect4234" style="opacity:.5;color:#000000" transform="rotate(-90)" rx="2" ry="2" height="12" width="12" y="18" x="-79"/>
   <rect id="rect4236" style="color:#000000;fill:url(#linearGradient4270)" transform="rotate(-90)" rx="2" ry="2" height="12" width="12" y="18" x="-78"/>
   <path id="path4238" style="color:#000000;fill:url(#linearGradient4040)" d="m20 66c-1.108 0-2 0.892-2 2v2.625c1.4666 0.84118 3.5928 1.375 6 1.375s4.5334-0.53382 6-1.375v-2.625c0-1.108-0.892-2-2-2h-8z"/>
   <path id="path4240" style="opacity:.15;display:block" d="m23.438 67.969c-0.43181 0-0.8125 0.37662-0.8125 0.8125v0.21875c-0.04203 0.01818-0.08448 0.04317-0.125 0.0625l-0.15625-0.15625c-0.31766-0.31766-0.84128-0.315-1.1562 0l-0.78125 0.78125c-0.31498 0.31498-0.31764 0.83857 0 1.1562l0.154 0.155c-0.01933 0.04052-0.04432 0.08297-0.0625 0.125h-0.21875c-0.43588 0-0.8125 0.38069-0.8125 0.8125v1.125c0 0.43181 0.37662 0.8125 0.8125 0.8125h0.21875c0.01818 0.04203 0.04317 0.08448 0.0625 0.125l-0.15625 0.15625c-0.31766 0.31766-0.31501 0.84128 0 1.1562l0.78125 0.78125c0.31498 0.31498 0.83857 0.31764 1.1562 0l0.157-0.156c0.04052 0.01933 0.08297 0.04432 0.125 0.0625v0.21875c0 0.43588 0.38069 0.8125 0.8125 0.8125h1.125c0.43181 0 0.8125-0.37662 0.8125-0.8125l-0.001-0.22c0.04203-0.01818 0.08448-0.04317 0.125-0.0625l0.15625 0.15625c0.31766 0.31766 0.84128 0.31501 1.1562 0l0.78125-0.78125c0.31497-0.31498 0.31764-0.83857 0-1.1562l-0.155-0.157c0.01933-0.04052 0.04432-0.08297 0.0625-0.125h0.21875c0.43588 0 0.8125-0.3807 0.8125-0.8125v-1.125c0-0.43181-0.37662-0.8125-0.8125-0.8125h-0.21875c-0.019-0.041-0.044-0.083-0.063-0.124l0.15625-0.15625c0.10363-0.10363 0.2479-0.31388 0.25-0.5625 0.0023-0.26541-0.07854-0.42231-0.25-0.59375l-0.782-0.782c-0.31498-0.31497-0.83857-0.31764-1.1562 0l-0.156 0.156c-0.041-0.019-0.083-0.044-0.125-0.062v-0.21875c-0.000003-0.43587-0.38069-0.8125-0.8125-0.8125h-1.125zm0.562 3.843c0.3731 0 0.6875 0.3144 0.6875 0.6875 0 0.37311-0.31439 0.6875-0.6875 0.6875-0.3731 0-0.6875-0.31439-0.6875-0.6875 0-0.3731 0.3144-0.6875 0.6875-0.6875z"/>
   <path id="path4242" style="opacity:.3;display:block" d="m28 71.948c0-0.15742-0.13059-0.28489-0.2907-0.28489h-0.56395c-0.07499-0.28148-0.18828-0.55043-0.3314-0.79651l0.40116-0.40116c0.05661-0.05661 0.08659-0.12442 0.08721-0.19768 0.000626-0.07326-0.02574-0.14783-0.0814-0.20349l-0.78488-0.78488c-0.11131-0.11131-0.28795-0.1074-0.40116 0.0058l-0.40116 0.40116c-0.24608-0.14308-0.51503-0.25636-0.79651-0.33136v-0.56395c-0.000001-0.16011-0.12746-0.2907-0.28488-0.2907h-1.1047c-0.15742 0-0.28488 0.13059-0.28488 0.2907v0.56395c-0.28148 0.075-0.55043 0.18828-0.79651 0.3314l-0.40116-0.40116c-0.11322-0.11321-0.28985-0.11712-0.40116-0.0058l-0.78488 0.78488c-0.11131 0.11131-0.1074 0.28795 0.0058 0.40116l0.40114 0.40116c-0.14312 0.24608-0.2564 0.51503-0.3314 0.79651h-0.56395c-0.16011 0-0.2907 0.12747-0.2907 0.28489v1.1046c0 0.15742 0.13059 0.28488 0.2907 0.28488h0.56395c0.075 0.28148 0.18828 0.55043 0.3314 0.79651l-0.40116 0.40116c-0.11322 0.11322-0.11713 0.28985-0.0058 0.40116l0.78488 0.78488c0.11131 0.11131 0.28795 0.1074 0.40116-0.0058l0.40116-0.40116c0.24608 0.14312 0.51504 0.2564 0.79651 0.3314v0.56395c0 0.16011 0.12746 0.2907 0.28488 0.2907h1.1047c0.15742 0 0.28488-0.13059 0.28488-0.2907v-0.56395c0.28148-0.07499 0.55043-0.18828 0.79651-0.3314l0.40116 0.40116c0.11321 0.11321 0.28985 0.11713 0.40116 0.0058l0.78488-0.78488c0.11131-0.11131 0.1074-0.28795-0.0058-0.40116l-0.40116-0.40116c0.14312-0.24608 0.2564-0.51503 0.3314-0.79651h0.56395c0.16011 0 0.2907-0.12746 0.2907-0.28488v-1.1047zm-2.7907 0.55232c0 0.66754-0.54177 1.2093-1.2093 1.2093s-1.2093-0.54177-1.2093-1.2093 0.54177-1.2093 1.2093-1.2093c0.66754 0 1.2093 0.54177 1.2093 1.2093z"/>
   <path id="path4244" style="display:block;fill:#fff" d="m28 71.448c0-0.15742-0.13059-0.28489-0.2907-0.28489h-0.56395c-0.07499-0.28148-0.18828-0.55043-0.3314-0.79651l0.40116-0.40116c0.05661-0.05661 0.08659-0.12442 0.08721-0.19768 0.000626-0.07326-0.02574-0.14783-0.0814-0.20349l-0.78488-0.78488c-0.11131-0.11131-0.28795-0.1074-0.40116 0.0058l-0.40116 0.40116c-0.246-0.143-0.515-0.256-0.797-0.331v-0.56395c-0.000001-0.16011-0.12746-0.2907-0.28488-0.2907h-1.1047c-0.15742 0-0.28488 0.13059-0.28488 0.2907v0.56395c-0.28148 0.075-0.55043 0.18828-0.79651 0.3314l-0.40116-0.40116c-0.11322-0.11321-0.28985-0.11712-0.40116-0.0058l-0.78488 0.78488c-0.11131 0.11131-0.1074 0.28795 0.0058 0.40116l0.40114 0.40116c-0.14312 0.24608-0.2564 0.51503-0.3314 0.79651h-0.56395c-0.16011 0-0.2907 0.12747-0.2907 0.28489v1.1046c0 0.15742 0.13059 0.28488 0.2907 0.28488h0.56395c0.075 0.28148 0.18828 0.55043 0.3314 0.79651l-0.40116 0.40116c-0.11322 0.11322-0.11713 0.28985-0.0058 0.40116l0.78488 0.78488c0.11131 0.11131 0.28795 0.1074 0.40116-0.0058l0.402-0.402c0.24608 0.14312 0.51504 0.2564 0.79651 0.3314v0.56395c0 0.16011 0.12746 0.2907 0.28488 0.2907h1.1047c0.15742 0 0.28488-0.13059 0.28488-0.2907v-0.56395c0.28148-0.07499 0.55043-0.18828 0.79651-0.3314l0.40116 0.40116c0.11321 0.11321 0.28985 0.11713 0.40116 0.0058l0.78488-0.78488c0.11131-0.11131 0.1074-0.28795-0.0058-0.40116l-0.40116-0.40116c0.14312-0.24608 0.2564-0.51503 0.3314-0.79651h0.56395c0.16011 0 0.2907-0.12746 0.2907-0.28488v-1.1047zm-2.7907 0.55232c0 0.66754-0.54177 1.2093-1.2093 1.2093s-1.2093-0.54177-1.2093-1.2093 0.54177-1.2093 1.2093-1.2093c0.66754 0 1.2093 0.54177 1.2093 1.2093z"/>
  </g>
  <g id="g4246" transform="translate(48,-48)">
   <path id="path4248" style="opacity:.25;color:#000000" d="m-77 16.969c-1.6667 0-3.0312 1.3645-3.0312 3.0312v8c0 1.6667 1.3645 3.0312 3.0312 3.0312h8c1.6667 0 3.0312-1.3645 3.0312-3.0312v-8c0-1.6667-1.3645-3.0312-3.0312-3.0312h-8z" transform="rotate(-90)"/>
   <rect id="rect4250" style="opacity:.5;color:#000000" transform="rotate(-90)" rx="2" ry="2" height="12" width="12" y="18" x="-79"/>
   <rect id="rect4252" style="color:#000000;fill:url(#linearGradient4048)" transform="rotate(-90)" rx="2" ry="2" height="12" width="12" y="18" x="-78"/>
   <path id="path4254" style="color:#000000;fill:url(#linearGradient4040)" d="m20 66c-1.108 0-2 0.892-2 2v2.625c1.4666 0.84118 3.5928 1.375 6 1.375s4.5334-0.53382 6-1.375v-2.625c0-1.108-0.892-2-2-2h-8z"/>
   <path id="path4256" style="opacity:.15;display:block" d="m23.438 67.969c-0.43181 0-0.8125 0.37662-0.8125 0.8125v0.21875c-0.04203 0.01818-0.08448 0.04317-0.125 0.0625l-0.15625-0.15625c-0.31766-0.31766-0.84128-0.315-1.1562 0l-0.78125 0.78125c-0.31498 0.31498-0.31764 0.83857 0 1.1562l0.154 0.155c-0.01933 0.04052-0.04432 0.08297-0.0625 0.125h-0.21875c-0.43588 0-0.8125 0.38069-0.8125 0.8125v1.125c0 0.43181 0.37662 0.8125 0.8125 0.8125h0.21875c0.01818 0.04203 0.04317 0.08448 0.0625 0.125l-0.15625 0.15625c-0.31766 0.31766-0.31501 0.84128 0 1.1562l0.78125 0.78125c0.31498 0.31498 0.83857 0.31764 1.1562 0l0.157-0.156c0.04052 0.01933 0.08297 0.04432 0.125 0.0625v0.21875c0 0.43588 0.38069 0.8125 0.8125 0.8125h1.125c0.43181 0 0.8125-0.37662 0.8125-0.8125l-0.001-0.22c0.04203-0.01818 0.08448-0.04317 0.125-0.0625l0.15625 0.15625c0.31766 0.31766 0.84128 0.31501 1.1562 0l0.78125-0.78125c0.31497-0.31498 0.31764-0.83857 0-1.1562l-0.155-0.157c0.01933-0.04052 0.04432-0.08297 0.0625-0.125h0.21875c0.43588 0 0.8125-0.3807 0.8125-0.8125v-1.125c0-0.43181-0.37662-0.8125-0.8125-0.8125h-0.21875c-0.019-0.041-0.044-0.083-0.063-0.124l0.15625-0.15625c0.10363-0.10363 0.2479-0.31388 0.25-0.5625 0.0023-0.26541-0.07854-0.42231-0.25-0.59375l-0.782-0.782c-0.31498-0.31497-0.83857-0.31764-1.1562 0l-0.156 0.156c-0.041-0.019-0.083-0.044-0.125-0.062v-0.21875c-0.000003-0.43587-0.38069-0.8125-0.8125-0.8125h-1.125zm0.562 3.843c0.3731 0 0.6875 0.3144 0.6875 0.6875 0 0.37311-0.31439 0.6875-0.6875 0.6875-0.3731 0-0.6875-0.31439-0.6875-0.6875 0-0.3731 0.3144-0.6875 0.6875-0.6875z"/>
   <path id="path4258" style="opacity:.3;display:block" d="m28 71.948c0-0.15742-0.13059-0.28489-0.2907-0.28489h-0.56395c-0.07499-0.28148-0.18828-0.55043-0.3314-0.79651l0.40116-0.40116c0.05661-0.05661 0.08659-0.12442 0.08721-0.19768 0.000626-0.07326-0.02574-0.14783-0.0814-0.20349l-0.78488-0.78488c-0.11131-0.11131-0.28795-0.1074-0.40116 0.0058l-0.40116 0.40116c-0.24608-0.14308-0.51503-0.25636-0.79651-0.33136v-0.56395c-0.000001-0.16011-0.12746-0.2907-0.28488-0.2907h-1.1047c-0.15742 0-0.28488 0.13059-0.28488 0.2907v0.56395c-0.28148 0.075-0.55043 0.18828-0.79651 0.3314l-0.40116-0.40116c-0.11322-0.11321-0.28985-0.11712-0.40116-0.0058l-0.78488 0.78488c-0.11131 0.11131-0.1074 0.28795 0.0058 0.40116l0.40114 0.40116c-0.14312 0.24608-0.2564 0.51503-0.3314 0.79651h-0.56395c-0.16011 0-0.2907 0.12747-0.2907 0.28489v1.1046c0 0.15742 0.13059 0.28488 0.2907 0.28488h0.56395c0.075 0.28148 0.18828 0.55043 0.3314 0.79651l-0.40116 0.40116c-0.11322 0.11322-0.11713 0.28985-0.0058 0.40116l0.78488 0.78488c0.11131 0.11131 0.28795 0.1074 0.40116-0.0058l0.40116-0.40116c0.24608 0.14312 0.51504 0.2564 0.79651 0.3314v0.56395c0 0.16011 0.12746 0.2907 0.28488 0.2907h1.1047c0.15742 0 0.28488-0.13059 0.28488-0.2907v-0.56395c0.28148-0.07499 0.55043-0.18828 0.79651-0.3314l0.40116 0.40116c0.11321 0.11321 0.28985 0.11713 0.40116 0.0058l0.78488-0.78488c0.11131-0.11131 0.1074-0.28795-0.0058-0.40116l-0.40116-0.40116c0.14312-0.24608 0.2564-0.51503 0.3314-0.79651h0.56395c0.16011 0 0.2907-0.12746 0.2907-0.28488v-1.1047zm-2.7907 0.55232c0 0.66754-0.54177 1.2093-1.2093 1.2093s-1.2093-0.54177-1.2093-1.2093 0.54177-1.2093 1.2093-1.2093c0.66754 0 1.2093 0.54177 1.2093 1.2093z"/>
   <path id="path4260" style="display:block;fill:#a40" d="m28 71.448c0-0.15742-0.13059-0.28489-0.2907-0.28489h-0.56395c-0.07499-0.28148-0.18828-0.55043-0.3314-0.79651l0.40116-0.40116c0.05661-0.05661 0.08659-0.12442 0.08721-0.19768 0.000626-0.07326-0.02574-0.14783-0.0814-0.20349l-0.78488-0.78488c-0.11131-0.11131-0.28795-0.1074-0.40116 0.0058l-0.40116 0.40116c-0.246-0.143-0.515-0.256-0.797-0.331v-0.56395c-0.000001-0.16011-0.12746-0.2907-0.28488-0.2907h-1.1047c-0.15742 0-0.28488 0.13059-0.28488 0.2907v0.56395c-0.28148 0.075-0.55043 0.18828-0.79651 0.3314l-0.40116-0.40116c-0.11322-0.11321-0.28985-0.11712-0.40116-0.0058l-0.78488 0.78488c-0.11131 0.11131-0.1074 0.28795 0.0058 0.40116l0.40114 0.40116c-0.14312 0.24608-0.2564 0.51503-0.3314 0.79651h-0.56395c-0.16011 0-0.2907 0.12747-0.2907 0.28489v1.1046c0 0.15742 0.13059 0.28488 0.2907 0.28488h0.56395c0.075 0.28148 0.18828 0.55043 0.3314 0.79651l-0.40116 0.40116c-0.11322 0.11322-0.11713 0.28985-0.0058 0.40116l0.78488 0.78488c0.11131 0.11131 0.28795 0.1074 0.40116-0.0058l0.402-0.402c0.24608 0.14312 0.51504 0.2564 0.79651 0.3314v0.56395c0 0.16011 0.12746 0.2907 0.28488 0.2907h1.1047c0.15742 0 0.28488-0.13059 0.28488-0.2907v-0.56395c0.28148-0.07499 0.55043-0.18828 0.79651-0.3314l0.40116 0.40116c0.11321 0.11321 0.28985 0.11713 0.40116 0.0058l0.78488-0.78488c0.11131-0.11131 0.1074-0.28795-0.0058-0.40116l-0.40116-0.40116c0.14312-0.24608 0.2564-0.51503 0.3314-0.79651h0.56395c0.16011 0 0.2907-0.12746 0.2907-0.28488v-1.1047zm-2.7907 0.55232c0 0.66754-0.54177 1.2093-1.2093 1.2093s-1.2093-0.54177-1.2093-1.2093 0.54177-1.2093 1.2093-1.2093c0.66754 0 1.2093 0.54177 1.2093 1.2093z"/>
  </g>
  <g id="g4278" transform="translate(0,-32)">
   <path id="path4280" style="opacity:.25;color:#000000" d="m-77 16.969c-1.6667 0-3.0312 1.3645-3.0312 3.0312v8c0 1.6667 1.3645 3.0312 3.0312 3.0312h8c1.6667 0 3.0312-1.3645 3.0312-3.0312v-8c0-1.6667-1.3645-3.0312-3.0312-3.0312h-8z" transform="rotate(-90)"/>
   <rect id="rect4282" style="opacity:.5;color:#000000" transform="rotate(-90)" rx="2" ry="2" height="12" width="12" y="18" x="-79"/>
   <rect id="rect4284" style="color:#000000;fill:url(#linearGradient4136)" transform="rotate(-90)" rx="2" ry="2" height="12" width="12" y="18" x="-78"/>
   <path id="path4286" style="color:#000000;fill:url(#linearGradient4040)" d="m20 66c-1.108 0-2 0.892-2 2v2.625c1.4666 0.84118 3.5928 1.375 6 1.375s4.5334-0.53382 6-1.375v-2.625c0-1.108-0.892-2-2-2h-8z"/>
   <path id="path4288" style="opacity:.15;display:block" d="m23.438 67.969c-0.43181 0-0.8125 0.37662-0.8125 0.8125v0.21875c-0.04203 0.01818-0.08448 0.04317-0.125 0.0625l-0.15625-0.15625c-0.31766-0.31766-0.84128-0.315-1.1562 0l-0.78125 0.78125c-0.31498 0.31498-0.31764 0.83857 0 1.1562l0.154 0.155c-0.01933 0.04052-0.04432 0.08297-0.0625 0.125h-0.21875c-0.43588 0-0.8125 0.38069-0.8125 0.8125v1.125c0 0.43181 0.37662 0.8125 0.8125 0.8125h0.21875c0.01818 0.04203 0.04317 0.08448 0.0625 0.125l-0.15625 0.15625c-0.31766 0.31766-0.31501 0.84128 0 1.1562l0.78125 0.78125c0.31498 0.31498 0.83857 0.31764 1.1562 0l0.157-0.156c0.04052 0.01933 0.08297 0.04432 0.125 0.0625v0.21875c0 0.43588 0.38069 0.8125 0.8125 0.8125h1.125c0.43181 0 0.8125-0.37662 0.8125-0.8125l-0.001-0.22c0.04203-0.01818 0.08448-0.04317 0.125-0.0625l0.15625 0.15625c0.31766 0.31766 0.84128 0.31501 1.1562 0l0.78125-0.78125c0.31497-0.31498 0.31764-0.83857 0-1.1562l-0.155-0.157c0.01933-0.04052 0.04432-0.08297 0.0625-0.125h0.21875c0.43588 0 0.8125-0.3807 0.8125-0.8125v-1.125c0-0.43181-0.37662-0.8125-0.8125-0.8125h-0.21875c-0.019-0.041-0.044-0.083-0.063-0.124l0.15625-0.15625c0.10363-0.10363 0.2479-0.31388 0.25-0.5625 0.0023-0.26541-0.07854-0.42231-0.25-0.59375l-0.782-0.782c-0.31498-0.31497-0.83857-0.31764-1.1562 0l-0.156 0.156c-0.041-0.019-0.083-0.044-0.125-0.062v-0.21875c-0.000003-0.43587-0.38069-0.8125-0.8125-0.8125h-1.125zm0.562 3.843c0.3731 0 0.6875 0.3144 0.6875 0.6875 0 0.37311-0.31439 0.6875-0.6875 0.6875-0.3731 0-0.6875-0.31439-0.6875-0.6875 0-0.3731 0.3144-0.6875 0.6875-0.6875z"/>
   <path id="path4290" style="opacity:.3;display:block" d="m28 71.948c0-0.15742-0.13059-0.28489-0.2907-0.28489h-0.56395c-0.07499-0.28148-0.18828-0.55043-0.3314-0.79651l0.40116-0.40116c0.05661-0.05661 0.08659-0.12442 0.08721-0.19768 0.000626-0.07326-0.02574-0.14783-0.0814-0.20349l-0.78488-0.78488c-0.11131-0.11131-0.28795-0.1074-0.40116 0.0058l-0.40116 0.40116c-0.24608-0.14308-0.51503-0.25636-0.79651-0.33136v-0.56395c-0.000001-0.16011-0.12746-0.2907-0.28488-0.2907h-1.1047c-0.15742 0-0.28488 0.13059-0.28488 0.2907v0.56395c-0.28148 0.075-0.55043 0.18828-0.79651 0.3314l-0.40116-0.40116c-0.11322-0.11321-0.28985-0.11712-0.40116-0.0058l-0.78488 0.78488c-0.11131 0.11131-0.1074 0.28795 0.0058 0.40116l0.40114 0.40116c-0.14312 0.24608-0.2564 0.51503-0.3314 0.79651h-0.56395c-0.16011 0-0.2907 0.12747-0.2907 0.28489v1.1046c0 0.15742 0.13059 0.28488 0.2907 0.28488h0.56395c0.075 0.28148 0.18828 0.55043 0.3314 0.79651l-0.40116 0.40116c-0.11322 0.11322-0.11713 0.28985-0.0058 0.40116l0.78488 0.78488c0.11131 0.11131 0.28795 0.1074 0.40116-0.0058l0.40116-0.40116c0.24608 0.14312 0.51504 0.2564 0.79651 0.3314v0.56395c0 0.16011 0.12746 0.2907 0.28488 0.2907h1.1047c0.15742 0 0.28488-0.13059 0.28488-0.2907v-0.56395c0.28148-0.07499 0.55043-0.18828 0.79651-0.3314l0.40116 0.40116c0.11321 0.11321 0.28985 0.11713 0.40116 0.0058l0.78488-0.78488c0.11131-0.11131 0.1074-0.28795-0.0058-0.40116l-0.40116-0.40116c0.14312-0.24608 0.2564-0.51503 0.3314-0.79651h0.56395c0.16011 0 0.2907-0.12746 0.2907-0.28488v-1.1047zm-2.7907 0.55232c0 0.66754-0.54177 1.2093-1.2093 1.2093s-1.2093-0.54177-1.2093-1.2093 0.54177-1.2093 1.2093-1.2093c0.66754 0 1.2093 0.54177 1.2093 1.2093z"/>
   <path id="path4292" style="display:block;fill:#fff" d="m28 71.448c0-0.15742-0.13059-0.28489-0.2907-0.28489h-0.56395c-0.07499-0.28148-0.18828-0.55043-0.3314-0.79651l0.40116-0.40116c0.05661-0.05661 0.08659-0.12442 0.08721-0.19768 0.000626-0.07326-0.02574-0.14783-0.0814-0.20349l-0.78488-0.78488c-0.11131-0.11131-0.28795-0.1074-0.40116 0.0058l-0.40116 0.40116c-0.246-0.143-0.515-0.256-0.797-0.331v-0.56395c-0.000001-0.16011-0.12746-0.2907-0.28488-0.2907h-1.1047c-0.15742 0-0.28488 0.13059-0.28488 0.2907v0.56395c-0.28148 0.075-0.55043 0.18828-0.79651 0.3314l-0.40116-0.40116c-0.11322-0.11321-0.28985-0.11712-0.40116-0.0058l-0.78488 0.78488c-0.11131 0.11131-0.1074 0.28795 0.0058 0.40116l0.40114 0.40116c-0.14312 0.24608-0.2564 0.51503-0.3314 0.79651h-0.56395c-0.16011 0-0.2907 0.12747-0.2907 0.28489v1.1046c0 0.15742 0.13059 0.28488 0.2907 0.28488h0.56395c0.075 0.28148 0.18828 0.55043 0.3314 0.79651l-0.40116 0.40116c-0.11322 0.11322-0.11713 0.28985-0.0058 0.40116l0.78488 0.78488c0.11131 0.11131 0.28795 0.1074 0.40116-0.0058l0.402-0.402c0.24608 0.14312 0.51504 0.2564 0.79651 0.3314v0.56395c0 0.16011 0.12746 0.2907 0.28488 0.2907h1.1047c0.15742 0 0.28488-0.13059 0.28488-0.2907v-0.56395c0.28148-0.07499 0.55043-0.18828 0.79651-0.3314l0.40116 0.40116c0.11321 0.11321 0.28985 0.11713 0.40116 0.0058l0.78488-0.78488c0.11131-0.11131 0.1074-0.28795-0.0058-0.40116l-0.40116-0.40116c0.14312-0.24608 0.2564-0.51503 0.3314-0.79651h0.56395c0.16011 0 0.2907-0.12746 0.2907-0.28488v-1.1047zm-2.7907 0.55232c0 0.66754-0.54177 1.2093-1.2093 1.2093s-1.2093-0.54177-1.2093-1.2093 0.54177-1.2093 1.2093-1.2093c0.66754 0 1.2093 0.54177 1.2093 1.2093z"/>
  </g>
  <g id="g4294" transform="translate(16,-32)">
   <path id="path4296" style="opacity:.25;color:#000000" d="m-77 16.969c-1.6667 0-3.0312 1.3645-3.0312 3.0312v8c0 1.6667 1.3645 3.0312 3.0312 3.0312h8c1.6667 0 3.0312-1.3645 3.0312-3.0312v-8c0-1.6667-1.3645-3.0312-3.0312-3.0312h-8z" transform="rotate(-90)"/>
   <rect id="rect4298" style="opacity:.5;color:#000000" transform="rotate(-90)" rx="2" ry="2" height="12" width="12" y="18" x="-79"/>
   <rect id="rect4300" style="color:#000000;fill:url(#linearGradient4346)" transform="rotate(-90)" rx="2" ry="2" height="12" width="12" y="18" x="-78"/>
   <path id="path4302" style="color:#000000;fill:url(#linearGradient4040)" d="m20 66c-1.108 0-2 0.892-2 2v2.625c1.4666 0.84118 3.5928 1.375 6 1.375s4.5334-0.53382 6-1.375v-2.625c0-1.108-0.892-2-2-2h-8z"/>
   <path id="path4304" style="opacity:.15;display:block" d="m23.438 67.969c-0.43181 0-0.8125 0.37662-0.8125 0.8125v0.21875c-0.04203 0.01818-0.08448 0.04317-0.125 0.0625l-0.15625-0.15625c-0.31766-0.31766-0.84128-0.315-1.1562 0l-0.78125 0.78125c-0.31498 0.31498-0.31764 0.83857 0 1.1562l0.154 0.155c-0.01933 0.04052-0.04432 0.08297-0.0625 0.125h-0.21875c-0.43588 0-0.8125 0.38069-0.8125 0.8125v1.125c0 0.43181 0.37662 0.8125 0.8125 0.8125h0.21875c0.01818 0.04203 0.04317 0.08448 0.0625 0.125l-0.15625 0.15625c-0.31766 0.31766-0.31501 0.84128 0 1.1562l0.78125 0.78125c0.31498 0.31498 0.83857 0.31764 1.1562 0l0.157-0.156c0.04052 0.01933 0.08297 0.04432 0.125 0.0625v0.21875c0 0.43588 0.38069 0.8125 0.8125 0.8125h1.125c0.43181 0 0.8125-0.37662 0.8125-0.8125l-0.001-0.22c0.04203-0.01818 0.08448-0.04317 0.125-0.0625l0.15625 0.15625c0.31766 0.31766 0.84128 0.31501 1.1562 0l0.78125-0.78125c0.31497-0.31498 0.31764-0.83857 0-1.1562l-0.155-0.157c0.01933-0.04052 0.04432-0.08297 0.0625-0.125h0.21875c0.43588 0 0.8125-0.3807 0.8125-0.8125v-1.125c0-0.43181-0.37662-0.8125-0.8125-0.8125h-0.21875c-0.019-0.041-0.044-0.083-0.063-0.124l0.15625-0.15625c0.10363-0.10363 0.2479-0.31388 0.25-0.5625 0.0023-0.26541-0.07854-0.42231-0.25-0.59375l-0.782-0.782c-0.31498-0.31497-0.83857-0.31764-1.1562 0l-0.156 0.156c-0.041-0.019-0.083-0.044-0.125-0.062v-0.21875c-0.000003-0.43587-0.38069-0.8125-0.8125-0.8125h-1.125zm0.562 3.843c0.3731 0 0.6875 0.3144 0.6875 0.6875 0 0.37311-0.31439 0.6875-0.6875 0.6875-0.3731 0-0.6875-0.31439-0.6875-0.6875 0-0.3731 0.3144-0.6875 0.6875-0.6875z"/>
   <path id="path4306" style="opacity:.3;display:block" d="m28 71.948c0-0.15742-0.13059-0.28489-0.2907-0.28489h-0.56395c-0.07499-0.28148-0.18828-0.55043-0.3314-0.79651l0.40116-0.40116c0.05661-0.05661 0.08659-0.12442 0.08721-0.19768 0.000626-0.07326-0.02574-0.14783-0.0814-0.20349l-0.78488-0.78488c-0.11131-0.11131-0.28795-0.1074-0.40116 0.0058l-0.40116 0.40116c-0.24608-0.14308-0.51503-0.25636-0.79651-0.33136v-0.56395c-0.000001-0.16011-0.12746-0.2907-0.28488-0.2907h-1.1047c-0.15742 0-0.28488 0.13059-0.28488 0.2907v0.56395c-0.28148 0.075-0.55043 0.18828-0.79651 0.3314l-0.40116-0.40116c-0.11322-0.11321-0.28985-0.11712-0.40116-0.0058l-0.78488 0.78488c-0.11131 0.11131-0.1074 0.28795 0.0058 0.40116l0.40114 0.40116c-0.14312 0.24608-0.2564 0.51503-0.3314 0.79651h-0.56395c-0.16011 0-0.2907 0.12747-0.2907 0.28489v1.1046c0 0.15742 0.13059 0.28488 0.2907 0.28488h0.56395c0.075 0.28148 0.18828 0.55043 0.3314 0.79651l-0.40116 0.40116c-0.11322 0.11322-0.11713 0.28985-0.0058 0.40116l0.78488 0.78488c0.11131 0.11131 0.28795 0.1074 0.40116-0.0058l0.40116-0.40116c0.24608 0.14312 0.51504 0.2564 0.79651 0.3314v0.56395c0 0.16011 0.12746 0.2907 0.28488 0.2907h1.1047c0.15742 0 0.28488-0.13059 0.28488-0.2907v-0.56395c0.28148-0.07499 0.55043-0.18828 0.79651-0.3314l0.40116 0.40116c0.11321 0.11321 0.28985 0.11713 0.40116 0.0058l0.78488-0.78488c0.11131-0.11131 0.1074-0.28795-0.0058-0.40116l-0.40116-0.40116c0.14312-0.24608 0.2564-0.51503 0.3314-0.79651h0.56395c0.16011 0 0.2907-0.12746 0.2907-0.28488v-1.1047zm-2.7907 0.55232c0 0.66754-0.54177 1.2093-1.2093 1.2093s-1.2093-0.54177-1.2093-1.2093 0.54177-1.2093 1.2093-1.2093c0.66754 0 1.2093 0.54177 1.2093 1.2093z"/>
   <path id="path4308" style="display:block;fill:#a0501c" d="m28 71.448c0-0.15742-0.13059-0.28489-0.2907-0.28489h-0.56395c-0.07499-0.28148-0.18828-0.55043-0.3314-0.79651l0.40116-0.40116c0.05661-0.05661 0.08659-0.12442 0.08721-0.19768 0.000626-0.07326-0.02574-0.14783-0.0814-0.20349l-0.78488-0.78488c-0.11131-0.11131-0.28795-0.1074-0.40116 0.0058l-0.40116 0.40116c-0.246-0.143-0.515-0.256-0.797-0.331v-0.56395c-0.000001-0.16011-0.12746-0.2907-0.28488-0.2907h-1.1047c-0.15742 0-0.28488 0.13059-0.28488 0.2907v0.56395c-0.28148 0.075-0.55043 0.18828-0.79651 0.3314l-0.40116-0.40116c-0.11322-0.11321-0.28985-0.11712-0.40116-0.0058l-0.78488 0.78488c-0.11131 0.11131-0.1074 0.28795 0.0058 0.40116l0.40114 0.40116c-0.14312 0.24608-0.2564 0.51503-0.3314 0.79651h-0.56395c-0.16011 0-0.2907 0.12747-0.2907 0.28489v1.1046c0 0.15742 0.13059 0.28488 0.2907 0.28488h0.56395c0.075 0.28148 0.18828 0.55043 0.3314 0.79651l-0.40116 0.40116c-0.11322 0.11322-0.11713 0.28985-0.0058 0.40116l0.78488 0.78488c0.11131 0.11131 0.28795 0.1074 0.40116-0.0058l0.402-0.402c0.24608 0.14312 0.51504 0.2564 0.79651 0.3314v0.56395c0 0.16011 0.12746 0.2907 0.28488 0.2907h1.1047c0.15742 0 0.28488-0.13059 0.28488-0.2907v-0.56395c0.28148-0.07499 0.55043-0.18828 0.79651-0.3314l0.40116 0.40116c0.11321 0.11321 0.28985 0.11713 0.40116 0.0058l0.78488-0.78488c0.11131-0.11131 0.1074-0.28795-0.0058-0.40116l-0.40116-0.40116c0.14312-0.24608 0.2564-0.51503 0.3314-0.79651h0.56395c0.16011 0 0.2907-0.12746 0.2907-0.28488v-1.1047zm-2.7907 0.55232c0 0.66754-0.54177 1.2093-1.2093 1.2093s-1.2093-0.54177-1.2093-1.2093 0.54177-1.2093 1.2093-1.2093c0.66754 0 1.2093 0.54177 1.2093 1.2093z"/>
  </g>
  <g id="g4310" transform="translate(32,-32)">
   <path id="path4312" style="opacity:.25;color:#000000" d="m-77 16.969c-1.6667 0-3.0312 1.3645-3.0312 3.0312v8c0 1.6667 1.3645 3.0312 3.0312 3.0312h8c1.6667 0 3.0312-1.3645 3.0312-3.0312v-8c0-1.6667-1.3645-3.0312-3.0312-3.0312h-8z" transform="rotate(-90)"/>
   <rect id="rect4314" style="opacity:.5;color:#000000" transform="rotate(-90)" rx="2" ry="2" height="12" width="12" y="18" x="-79"/>
   <rect id="rect4316" style="color:#000000;fill:url(#linearGradient4262)" transform="rotate(-90)" rx="2" ry="2" height="12" width="12" y="18" x="-78"/>
   <path id="path4318" style="color:#000000;fill:url(#linearGradient4040)" d="m20 66c-1.108 0-2 0.892-2 2v2.625c1.4666 0.84118 3.5928 1.375 6 1.375s4.5334-0.53382 6-1.375v-2.625c0-1.108-0.892-2-2-2h-8z"/>
   <path id="path4320" style="opacity:.15;display:block" d="m23.438 67.969c-0.43181 0-0.8125 0.37662-0.8125 0.8125v0.21875c-0.04203 0.01818-0.08448 0.04317-0.125 0.0625l-0.15625-0.15625c-0.31766-0.31766-0.84128-0.315-1.1562 0l-0.78125 0.78125c-0.31498 0.31498-0.31764 0.83857 0 1.1562l0.154 0.155c-0.01933 0.04052-0.04432 0.08297-0.0625 0.125h-0.21875c-0.43588 0-0.8125 0.38069-0.8125 0.8125v1.125c0 0.43181 0.37662 0.8125 0.8125 0.8125h0.21875c0.01818 0.04203 0.04317 0.08448 0.0625 0.125l-0.15625 0.15625c-0.31766 0.31766-0.31501 0.84128 0 1.1562l0.78125 0.78125c0.31498 0.31498 0.83857 0.31764 1.1562 0l0.157-0.156c0.04052 0.01933 0.08297 0.04432 0.125 0.0625v0.21875c0 0.43588 0.38069 0.8125 0.8125 0.8125h1.125c0.43181 0 0.8125-0.37662 0.8125-0.8125l-0.001-0.22c0.04203-0.01818 0.08448-0.04317 0.125-0.0625l0.15625 0.15625c0.31766 0.31766 0.84128 0.31501 1.1562 0l0.78125-0.78125c0.31497-0.31498 0.31764-0.83857 0-1.1562l-0.155-0.157c0.01933-0.04052 0.04432-0.08297 0.0625-0.125h0.21875c0.43588 0 0.8125-0.3807 0.8125-0.8125v-1.125c0-0.43181-0.37662-0.8125-0.8125-0.8125h-0.21875c-0.019-0.041-0.044-0.083-0.063-0.124l0.15625-0.15625c0.10363-0.10363 0.2479-0.31388 0.25-0.5625 0.0023-0.26541-0.07854-0.42231-0.25-0.59375l-0.782-0.782c-0.31498-0.31497-0.83857-0.31764-1.1562 0l-0.156 0.156c-0.041-0.019-0.083-0.044-0.125-0.062v-0.21875c-0.000003-0.43587-0.38069-0.8125-0.8125-0.8125h-1.125zm0.562 3.843c0.3731 0 0.6875 0.3144 0.6875 0.6875 0 0.37311-0.31439 0.6875-0.6875 0.6875-0.3731 0-0.6875-0.31439-0.6875-0.6875 0-0.3731 0.3144-0.6875 0.6875-0.6875z"/>
   <path id="path4322" style="opacity:.3;display:block" d="m28 71.948c0-0.15742-0.13059-0.28489-0.2907-0.28489h-0.56395c-0.07499-0.28148-0.18828-0.55043-0.3314-0.79651l0.40116-0.40116c0.05661-0.05661 0.08659-0.12442 0.08721-0.19768 0.000626-0.07326-0.02574-0.14783-0.0814-0.20349l-0.78488-0.78488c-0.11131-0.11131-0.28795-0.1074-0.40116 0.0058l-0.40116 0.40116c-0.24608-0.14308-0.51503-0.25636-0.79651-0.33136v-0.56395c-0.000001-0.16011-0.12746-0.2907-0.28488-0.2907h-1.1047c-0.15742 0-0.28488 0.13059-0.28488 0.2907v0.56395c-0.28148 0.075-0.55043 0.18828-0.79651 0.3314l-0.40116-0.40116c-0.11322-0.11321-0.28985-0.11712-0.40116-0.0058l-0.78488 0.78488c-0.11131 0.11131-0.1074 0.28795 0.0058 0.40116l0.40114 0.40116c-0.14312 0.24608-0.2564 0.51503-0.3314 0.79651h-0.56395c-0.16011 0-0.2907 0.12747-0.2907 0.28489v1.1046c0 0.15742 0.13059 0.28488 0.2907 0.28488h0.56395c0.075 0.28148 0.18828 0.55043 0.3314 0.79651l-0.40116 0.40116c-0.11322 0.11322-0.11713 0.28985-0.0058 0.40116l0.78488 0.78488c0.11131 0.11131 0.28795 0.1074 0.40116-0.0058l0.40116-0.40116c0.24608 0.14312 0.51504 0.2564 0.79651 0.3314v0.56395c0 0.16011 0.12746 0.2907 0.28488 0.2907h1.1047c0.15742 0 0.28488-0.13059 0.28488-0.2907v-0.56395c0.28148-0.07499 0.55043-0.18828 0.79651-0.3314l0.40116 0.40116c0.11321 0.11321 0.28985 0.11713 0.40116 0.0058l0.78488-0.78488c0.11131-0.11131 0.1074-0.28795-0.0058-0.40116l-0.40116-0.40116c0.14312-0.24608 0.2564-0.51503 0.3314-0.79651h0.56395c0.16011 0 0.2907-0.12746 0.2907-0.28488v-1.1047zm-2.7907 0.55232c0 0.66754-0.54177 1.2093-1.2093 1.2093s-1.2093-0.54177-1.2093-1.2093 0.54177-1.2093 1.2093-1.2093c0.66754 0 1.2093 0.54177 1.2093 1.2093z"/>
   <path id="path4324" style="display:block;fill:#fff" d="m28 71.448c0-0.15742-0.13059-0.28489-0.2907-0.28489h-0.56395c-0.07499-0.28148-0.18828-0.55043-0.3314-0.79651l0.40116-0.40116c0.05661-0.05661 0.08659-0.12442 0.08721-0.19768 0.000626-0.07326-0.02574-0.14783-0.0814-0.20349l-0.78488-0.78488c-0.11131-0.11131-0.28795-0.1074-0.40116 0.0058l-0.40116 0.40116c-0.246-0.143-0.515-0.256-0.797-0.331v-0.56395c-0.000001-0.16011-0.12746-0.2907-0.28488-0.2907h-1.1047c-0.15742 0-0.28488 0.13059-0.28488 0.2907v0.56395c-0.28148 0.075-0.55043 0.18828-0.79651 0.3314l-0.40116-0.40116c-0.11322-0.11321-0.28985-0.11712-0.40116-0.0058l-0.78488 0.78488c-0.11131 0.11131-0.1074 0.28795 0.0058 0.40116l0.40114 0.40116c-0.14312 0.24608-0.2564 0.51503-0.3314 0.79651h-0.56395c-0.16011 0-0.2907 0.12747-0.2907 0.28489v1.1046c0 0.15742 0.13059 0.28488 0.2907 0.28488h0.56395c0.075 0.28148 0.18828 0.55043 0.3314 0.79651l-0.40116 0.40116c-0.11322 0.11322-0.11713 0.28985-0.0058 0.40116l0.78488 0.78488c0.11131 0.11131 0.28795 0.1074 0.40116-0.0058l0.402-0.402c0.24608 0.14312 0.51504 0.2564 0.79651 0.3314v0.56395c0 0.16011 0.12746 0.2907 0.28488 0.2907h1.1047c0.15742 0 0.28488-0.13059 0.28488-0.2907v-0.56395c0.28148-0.07499 0.55043-0.18828 0.79651-0.3314l0.40116 0.40116c0.11321 0.11321 0.28985 0.11713 0.40116 0.0058l0.78488-0.78488c0.11131-0.11131 0.1074-0.28795-0.0058-0.40116l-0.40116-0.40116c0.14312-0.24608 0.2564-0.51503 0.3314-0.79651h0.56395c0.16011 0 0.2907-0.12746 0.2907-0.28488v-1.1047zm-2.7907 0.55232c0 0.66754-0.54177 1.2093-1.2093 1.2093s-1.2093-0.54177-1.2093-1.2093 0.54177-1.2093 1.2093-1.2093c0.66754 0 1.2093 0.54177 1.2093 1.2093z"/>
  </g>
 </g>
 <g id="layer5" style="display:none">
  <rect id="rect3171" style="opacity:.1;filter:url(#filter3794);stroke:#fff;stroke-linecap:round;stroke-width:.5;fill:url(#linearGradient3613)" clip-path="url(#clipPath3613)" rx="12" ry="12" height="66" width="66" y="15" x="15"/>
 </g>
 <g id="layer4">
  <path id="path3664" style="opacity:.6;fill:url(#linearGradient3104);fill-rule:evenodd" d="m46.585 12 25.574 74h10.81c0.62544 0 1.0157-0.39025 1.0157-1.0157v-71.969c-0.001-0.625-0.391-1.015-1.016-1.015h-36.384z"/>
  <path id="path2669" style="opacity:.4;fill:url(#linearGradient2675);fill-rule:evenodd" d="m46.585 12 25.574 74h1.161l-25.574-74h-1.161z"/>
 </g>
</svg>
