<?xml version="1.0" encoding="UTF-8" standalone="no"?>
<!-- Created with Inkscape (http://www.inkscape.org/) -->
<svg id="svg2408" xmlns:rdf="http://www.w3.org/1999/02/22-rdf-syntax-ns#" xmlns="http://www.w3.org/2000/svg" height="96" width="96" version="1.0" xmlns:cc="http://creativecommons.org/ns#" xmlns:xlink="http://www.w3.org/1999/xlink" xmlns:dc="http://purl.org/dc/elements/1.1/">
 <defs id="defs2410">
  <linearGradient id="linearGradient3836">
   <stop id="stop3838" style="stop-color:#b4b4b4" offset="0"/>
   <stop id="stop3840" style="stop-color:#ebebeb" offset="1"/>
  </linearGradient>
  <linearGradient id="ButtonShadow" y2="7.0165" gradientUnits="userSpaceOnUse" x2="45.448" gradientTransform="scale(1.0059 .99417)" y1="92.54" x1="45.448">
   <stop id="stop3750" offset="0"/>
   <stop id="stop3752" style="stop-opacity:.58824" offset="1"/>
  </linearGradient>
  <linearGradient id="linearGradient3737">
   <stop id="stop3739" style="stop-color:#fff" offset="0"/>
   <stop id="stop3741" style="stop-color:#fff;stop-opacity:0" offset="1"/>
  </linearGradient>
  <filter id="filter3174" color-interpolation-filters="sRGB">
   <feGaussianBlur id="feGaussianBlur3176" stdDeviation="1.71"/>
  </filter>
  <linearGradient id="linearGradient3188" y2="63.893" xlink:href="#linearGradient3737" gradientUnits="userSpaceOnUse" x2="36.357" y1="6" x1="36.357"/>
  <filter id="filter3794" height="1.384" width="1.384" color-interpolation-filters="sRGB" y="-.192" x="-.192">
   <feGaussianBlur id="feGaussianBlur3796" stdDeviation="5.28"/>
  </filter>
  <linearGradient id="linearGradient3613" y2="138.66" xlink:href="#linearGradient3737" gradientUnits="userSpaceOnUse" x2="48" y1="20.221" x1="48"/>
  <radialGradient id="radialGradient3619" xlink:href="#linearGradient3737" gradientUnits="userSpaceOnUse" cy="90.172" cx="48" gradientTransform="matrix(1.1573 0 0 .99591 -7.551 .19713)" r="42"/>
  <clipPath id="clipPath3613">
   <rect id="rect3615" style="fill:#fff" rx="6" ry="6" height="84" width="84" y="6" x="6"/>
  </clipPath>
  <linearGradient id="linearGradient3617" y2="5.9877" gradientUnits="userSpaceOnUse" x2="48" y1="90" x1="48">
   <stop id="stop3702" style="stop-color:#191919" offset="0"/>
   <stop id="stop3704" style="stop-color:#3c3c3c" offset="1"/>
  </linearGradient>
  <linearGradient id="ButtonShadow-0" y2="7.0165" gradientUnits="userSpaceOnUse" x2="45.448" gradientTransform="matrix(1.0059 0 0 .99417 100 0)" y1="92.54" x1="45.448">
   <stop id="stop3750-8" offset="0"/>
   <stop id="stop3752-5" style="stop-opacity:.58824" offset="1"/>
  </linearGradient>
  <linearGradient id="linearGradient3780" y2="90.239" xlink:href="#ButtonShadow-0" gradientUnits="userSpaceOnUse" x2="32.251" gradientTransform="matrix(1.0238 0 0 1.0119 -1.1429 -98.071)" y1="6.1317" x1="32.251"/>
  <linearGradient id="linearGradient3721" y2="90.239" xlink:href="#ButtonShadow-0" gradientUnits="userSpaceOnUse" x2="32.251" gradientTransform="translate(0,-97)" y1="6.1317" x1="32.251"/>
  <linearGradient id="linearGradient3842" y2="48" xlink:href="#linearGradient3836" gradientUnits="userSpaceOnUse" x2="80" gradientTransform="matrix(0,-1,1,0,0,96)" y1="48" x1="16"/>
  <radialGradient id="radialGradient3863" gradientUnits="userSpaceOnUse" cy="56" cx="48" r="16">
   <stop id="stop3859" style="stop-color:#414141" offset="0"/>
   <stop id="stop3861" offset="1"/>
  </radialGradient>
  <linearGradient id="linearGradient3875" y2="69.906" gradientUnits="userSpaceOnUse" x2="48.27" y1="32.608" x1="48.27">
   <stop id="stop3871" style="stop-color:#fff" offset="0"/>
   <stop id="stop3873" style="stop-color:#fff;stop-opacity:0" offset="1"/>
  </linearGradient>
  <radialGradient id="radialGradient3914" gradientUnits="userSpaceOnUse" cy="62.769" cx="55.385" gradientTransform="matrix(1.5385 5.7893e-8 -6.9471e-8 1.8462 -29.822 -53.112)" r="24">
   <stop id="stop3894" style="stop-color:#15deff" offset="0"/>
   <stop id="stop3896" style="stop-color:#014177" offset="1"/>
  </radialGradient>
  <linearGradient id="linearGradient3985" y2="48" xlink:href="#linearGradient3836" gradientUnits="userSpaceOnUse" x2="74" gradientTransform="matrix(0,1,-1,0,96,0)" y1="48" x1="22"/>
  <clipPath id="clipPath4014">
   <path id="path4016" style="color:#000000;fill:url(#linearGradient4018)" d="m16.5 143.12c0 68.613 14.327 124.24 32 124.24s32-55.622 32-124.24c0-68.613-14.327-124.24-32-124.24s-32 55.622-32 124.24zm8 0c0-51.46 10.745-93.176 24-93.176s24 41.717 24 93.176c0 51.46-10.745 93.176-24 93.176s-24-41.717-24-93.176z"/>
  </clipPath>
  <linearGradient id="linearGradient4018" y2="48" xlink:href="#linearGradient3836" gradientUnits="userSpaceOnUse" x2="80" gradientTransform="matrix(0 -3.8824 1 0 .5 329.47)" y1="48" x1="16"/>
  <linearGradient id="linearGradient4100" y2="98.867" gradientUnits="userSpaceOnUse" x2="49.958" y1="20.366" x1="49.958">
   <stop id="stop4096" style="stop-color:#fff" offset="0"/>
   <stop id="stop4098" style="stop-color:#fff;stop-opacity:0" offset="1"/>
  </linearGradient>
 </defs>
 <metadata id="metadata2413">
  <rdf:RDF>
   <cc:Work rdf:about="">
    <dc:format>image/svg+xml</dc:format>
    <dc:type rdf:resource="http://purl.org/dc/dcmitype/StillImage"/>
    <dc:title/>
   </cc:Work>
  </rdf:RDF>
 </metadata>
 <g id="layer2" style="display:none">
  <rect id="rect3745" style="opacity:.9;filter:url(#filter3174);fill:url(#ButtonShadow)" rx="6" ry="6" height="85" width="86" y="7" x="5"/>
 </g>
 <g id="layer3">
  <path id="path3786" style="opacity:0.08;fill:url(#linearGradient3780)" d="m12-95.031c-5.5111 0-10.031 4.5202-10.031 10.031v71c0 5.5111 4.5202 10.031 10.031 10.031h72c5.5111 0 10.031-4.5202 10.031-10.031v-71c0-5.5111-4.5202-10.031-10.031-10.031h-72z" transform="scale(1,-1)"/>
  <path id="path3778" style="opacity:.1;fill:url(#linearGradient3780)" d="m12-94.031c-4.9716 0-9.0312 4.0596-9.0312 9.0312v71c0 4.9716 4.0596 9.0312 9.0312 9.0312h72c4.9716 0 9.0312-4.0596 9.0312-9.0312v-71c0-4.9716-4.0596-9.0312-9.0312-9.0312h-72z" transform="scale(1,-1)"/>
  <path id="path3770" style="opacity:.2;fill:url(#linearGradient3780)" d="m12-93c-4.4091 0-8 3.5909-8 8v71c0 4.4091 3.5909 8 8 8h72c4.4091 0 8-3.5909 8-8v-71c0-4.4091-3.5909-8-8-8h-72z" transform="scale(1,-1)"/>
  <rect id="rect3723" style="opacity:.3;fill:url(#linearGradient3780)" transform="scale(1,-1)" rx="7" ry="7" height="85" width="86" y="-92" x="5"/>
  <rect id="rect3716" style="opacity:.45;fill:url(#linearGradient3721)" transform="scale(1,-1)" rx="6" ry="6" height="84" width="84" y="-91" x="6"/>
 </g>
 <g id="layer1">
  <rect id="rect2419" style="fill:url(#linearGradient3617)" rx="6" ry="6" height="84" width="84" y="6" x="6"/>
  <path id="path3957" style="opacity:.15;color:#000000" d="m48 15.031c-18.198 0-32.969 14.771-32.969 32.969s14.771 32.969 32.969 32.969 32.969-14.771 32.969-32.969-14.771-32.969-32.969-32.969z" transform="translate(0,1)"/>
  <path id="rect3728" style="opacity:.2;fill:url(#linearGradient3188)" d="m12 6c-3.324 0-6 2.676-6 6v2 68 2c0 0.33472 0.04135 0.6507 0.09375 0.96875 0.0487 0.2956 0.09704 0.59692 0.1875 0.875 0.00988 0.03038 0.020892 0.0636 0.03125 0.09375 0.098865 0.28777 0.23488 0.54745 0.375 0.8125 0.14459 0.27351 0.31562 0.53562 0.5 0.78125 0.18438 0.24564 0.37378 0.47347 0.59375 0.6875 0.43995 0.42806 0.94291 0.81453 1.5 1.0938 0.27854 0.13961 0.57347 0.24695 0.875 0.34375-0.2562-0.10022-0.48671-0.23627-0.71875-0.375-0.00741-0.0044-0.023866 0.0045-0.03125 0-0.031933-0.0193-0.062293-0.04251-0.09375-0.0625-0.1204-0.0767-0.23102-0.16351-0.34375-0.25-0.10617-0.0808-0.21328-0.16111-0.3125-0.25-0.1778-0.162-0.3473-0.346-0.4999-0.531-0.1075-0.131-0.2183-0.266-0.3124-0.407-0.0251-0.038-0.0385-0.086-0.0626-0.125-0.0647-0.103-0.1302-0.204-0.1874-0.312-0.1011-0.195-0.2057-0.416-0.2813-0.625-0.008-0.022-0.0236-0.041-0.0313-0.063-0.0318-0.092-0.0358-0.187-0.0624-0.281-0.0304-0.107-0.0704-0.203-0.0938-0.313-0.0729-0.341-0.125-0.698-0.125-1.062v-2-68-2c0-2.782 2.2182-5 5-5h2 68 2c2.7818 0 5 2.2182 5 5v2 68 2c0 0.3643-0.05212 0.72099-0.125 1.0625-0.04415 0.20689-0.08838 0.39766-0.15625 0.59375-0.0077 0.02195-0.0233 0.04069-0.03125 0.0625-0.06274 0.17374-0.13838 0.36745-0.21875 0.53125-0.04158 0.0828-0.07904 0.16995-0.125 0.25-0.0546 0.09721-0.12677 0.18835-0.1875 0.28125-0.09411 0.14096-0.20492 0.276-0.3125 0.40625-0.14317 0.17445-0.30314 0.347-0.46875 0.5-0.01117 0.0102-0.01998 0.02115-0.03125 0.03125-0.13839 0.12556-0.28509 0.23444-0.4375 0.34375-0.10257 0.07315-0.20432 0.15336-0.3125 0.21875-0.0074 0.0045-0.02384-0.0044-0.03125 0-0.23204 0.13873-0.46255 0.27478-0.71875 0.375 0.30153-0.0968 0.59646-0.20414 0.875-0.34375 0.55709-0.27922 1.0601-0.66569 1.5-1.0938 0.21997-0.21403 0.40937-0.44186 0.59375-0.6875s0.35541-0.50774 0.5-0.78125c0.14012-0.26505 0.27614-0.52473 0.375-0.8125 0.01041-0.03078 0.02133-0.06274 0.03125-0.09375 0.09046-0.27808 0.1388-0.5794 0.1875-0.875 0.053-0.318 0.094-0.634 0.094-0.969v-2-68-2c0-3.324-2.676-6-6-6h-72z"/>
  <path id="path3961" style="opacity:0.08;color:#000000" d="m48 13.906c-18.803 0-34.094 15.291-34.094 34.094s15.291 34.094 34.094 34.094 34.094-15.291 34.094-34.094-15.291-34.094-34.094-34.094z" transform="translate(0,1)"/>
  <path id="path3615" style="opacity:.15;fill:url(#radialGradient3619)" d="m12 90c-3.324 0-6-2.676-6-6v-2-68-2c0-0.33472 0.04135-0.6507 0.09375-0.96875 0.0487-0.2956 0.09704-0.59692 0.1875-0.875 0.0099-0.03 0.0209-0.063 0.0313-0.094 0.0989-0.2873 0.2349-0.547 0.375-0.812 0.1446-0.2735 0.3156-0.5356 0.5-0.7812 0.1844-0.2457 0.3738-0.4735 0.5937-0.6876 0.44-0.428 0.943-0.8145 1.5-1.0937 0.2786-0.1396 0.5735-0.2469 0.8748-0.3437-0.256 0.1002-0.4865 0.2362-0.7185 0.375-0.00741 0.0044-0.023866-0.0045-0.03125 0-0.031933 0.0193-0.062293 0.04251-0.09375 0.0625-0.1204 0.0767-0.23102 0.16351-0.34375 0.25-0.10617 0.0808-0.21328 0.16111-0.3125 0.25-0.1779 0.1614-0.3474 0.3453-0.5 0.5312-0.1075 0.1303-0.2183 0.2653-0.3124 0.4063-0.0251 0.0383-0.0385 0.0858-0.0626 0.125-0.0647 0.103-0.1302 0.2045-0.1874 0.3124-0.1011 0.1948-0.2057 0.4158-0.2813 0.625-0.008 0.0219-0.0236 0.0406-0.0313 0.0626-0.0318 0.0919-0.0358 0.1868-0.0624 0.2812-0.0304 0.1066-0.0704 0.203-0.0938 0.3125-0.0729 0.3415-0.125 0.6985-0.125 1.0625v2 68 2c0 2.7818 2.2182 5 5 5h2 68 2c2.7818 0 5-2.2182 5-5v-2-68-2c0-0.364-0.052-0.721-0.125-1.0625-0.044-0.2069-0.088-0.3977-0.156-0.5937-0.008-0.022-0.024-0.0407-0.031-0.0626-0.063-0.1737-0.139-0.3674-0.219-0.5312-0.042-0.0828-0.079-0.17-0.125-0.25-0.055-0.0972-0.127-0.1884-0.188-0.2812-0.094-0.141-0.205-0.276-0.312-0.4063-0.143-0.1745-0.303-0.347-0.469-0.5-0.011-0.0102-0.02-0.0211-0.031-0.0313-0.139-0.1255-0.285-0.2344-0.438-0.3437-0.102-0.0731-0.204-0.1534-0.312-0.2187-0.0074-0.0045-0.02384 0.0044-0.03125 0-0.23204-0.13873-0.46255-0.27478-0.71875-0.375 0.30153 0.0968 0.59646 0.20414 0.875 0.34375 0.55709 0.27922 1.0601 0.66569 1.5 1.0938 0.21997 0.21403 0.40937 0.44186 0.59375 0.6875s0.35541 0.50774 0.5 0.78125c0.14012 0.26505 0.27614 0.52473 0.375 0.8125 0.01041 0.03078 0.02133 0.06274 0.03125 0.09375 0.09046 0.27808 0.1388 0.5794 0.1875 0.875 0.053 0.318 0.094 0.634 0.094 0.969v2 68 2c0 3.324-2.676 6-6 6h-72z"/>
  <path id="path3953" style="opacity:.3;color:#000000" d="m80 48a32 32 0 1 1 -64 0 32 32 0 1 1 64 0z" transform="translate(0,1)"/>
 </g>
 <g id="layer5">
  <rect id="rect3171" style="opacity:.1;filter:url(#filter3794);stroke:#fff;stroke-linecap:round;stroke-width:.5;fill:url(#linearGradient3613)" clip-path="url(#clipPath3613)" rx="12" ry="12" height="66" width="66" y="15" x="15"/>
 </g>
 <g id="layer6">
  <path id="path3900" style="color:#000000;fill:url(#radialGradient3914)" d="m72 48a24 24 0 1 1 -48 0 24 24 0 1 1 48 0z" transform="matrix(1.0833 0 0 1.0833 -4 -4)"/>
  <path id="path3924" style="opacity:0.08;color:#000000" d="m48.281 17.031c-17.08 0-30.969 13.888-30.969 30.969s13.888 30.969 30.969 30.969 30.969-13.888 30.969-30.969-13.888-30.969-30.969-30.969zm-0.281 9.907c11.658 0 21.062 9.404 21.062 21.062s-9.404 21.062-21.062 21.062-21.062-9.404-21.062-21.062 9.404-21.062 21.062-21.062zm0 2.125c-10.439-0.001-18.938 8.498-18.938 18.937s8.499 18.938 18.938 18.938 18.938-8.499 18.938-18.938-8.499-18.938-18.938-18.938z"/>
  <path id="path3920" style="opacity:.2;color:#000000" d="m48.281 18c-16.55 0-30 13.45-30 30s13.45 30 30 30 30-13.45 30-30-13.45-30-30-30zm-0.281 7.969c12.185 0 22.031 9.846 22.031 22.031s-9.846 22.031-22.031 22.031-22.031-9.846-22.031-22.031 9.846-22.031 22.031-22.031zm0 4.0625c-9.9073 0-17.969 8.0615-17.969 17.969 0 9.9073 8.0615 17.969 17.969 17.969 9.9073 0 17.969-8.0615 17.969-17.969 0-9.9073-8.0615-17.969-17.969-17.969z"/>
  <path id="path3916" style="opacity:.4;color:#000000" d="m48.281 19c-16.009 0-29 12.991-29 29s12.991 29 29 29 29-12.991 29-29-12.991-29-29-29zm-0.281 5.969c12.725 0 23.031 10.306 23.031 23.031s-10.306 23.031-23.031 23.031-23.031-10.306-23.031-23.031 10.306-23.031 23.031-23.031zm0 6.0625c-9.3659 0-16.969 7.6028-16.969 16.969 0 9.3659 7.6028 16.969 16.969 16.969 9.3659 0 16.969-7.6028 16.969-16.969 0-9.3659-7.6028-16.969-16.969-16.969z"/>
  <path id="path3928" style="opacity:.6;color:#000000" d="m48 24c-13.255 0-24 10.745-24 24 0 0.16558-0.0033 0.33522 0 0.5 0.264-13.026 10.911-23.5 24-23.5s23.736 10.474 24 23.5c0.003-0.165 0-0.334 0-0.5 0-13.255-10.745-24-24-24z"/>
 </g>
 <g id="layer4">
  <path id="path3811" style="color:#000000;fill:url(#linearGradient3842)" d="m16 48c0 17.673 14.327 32 32 32s32-14.327 32-32-14.327-32-32-32-32 14.327-32 32zm8 0c0-13.255 10.745-24 24-24s24 10.745 24 24-10.745 24-24 24-24-10.745-24-24z"/>
  <path id="path3855" style="color:#000000;fill:url(#radialGradient3863)" d="m64 48a16 16 0 1 1 -32 0 16 16 0 1 1 32 0z"/>
  <path id="path3865" style="opacity:.6;color:#000000;fill:url(#linearGradient3875)" d="m64 48a16 16 0 1 1 -32 0 16 16 0 1 1 32 0z" transform="matrix(.69078 0 0 .46875 14.843 18)"/>
  <path id="path3877" style="opacity:.2;color:#000000;fill:#fff" d="m33.031 47.5c-0.005 0.168-0.031 0.331-0.031 0.5 0 8.2843 6.7157 15 15 15s15-6.7157 15-15c0-0.16922-0.02569-0.33214-0.03125-0.5-0.267 8.05-6.854 14.5-14.969 14.5s-14.702-6.45-14.969-14.5z"/>
  <path id="path3945" style="opacity:0.08;color:#000000" d="m43.386 39.195c-1.811 0.09931-3.3125 1.8572-3.1583 3.7033-0.0021 4.2286 0.0041 8.4572-0.0031 12.686 0.10605 1.6103 1.4031 3.0381 2.9866 3.2031 1.3777 0.24681 2.5185-0.67327 3.6498-1.3122 3.0699-1.8195 6.1686-3.622 9.2205-5.452 1.456-0.82692 2.1191-2.8028 1.4356-4.3566-0.507-1.409-1.951-1.95-3.108-2.68-3.064-1.796-6.111-3.629-9.187-5.402-0.568-0.282-1.196-0.47-1.837-0.389z"/>
  <path id="path3941" style="opacity:.15;color:#000000" d="m38.562 17.969c-0.05334 0.004-0.54102 0.05349-0.59375 0.0625-0.05273 0.009-0.5421 0.14235-0.59375 0.15625s-0.54362 0.16883-0.59375 0.1875-0.51434 0.19548-0.5625 0.21875-0.48548 0.28482-0.53125 0.3125c-0.04577 0.02767-0.45701 0.31192-0.5 0.34375s-0.46018 0.33928-0.5 0.375c-0.03982 0.03571-0.40119 0.39822-0.4375 0.4375s-0.34253 0.42624-0.375 0.46875c-0.03247 0.0425-0.31539 0.45464-0.34375 0.5s-0.28851 0.48344-0.3125 0.53125-0.23058 0.51266-0.25 0.5625-0.17283 0.51106-0.1875 0.5625-0.14646 0.54116-0.15625 0.59375c-0.0098 0.05259-0.05767 0.57173-0.0625 0.625-0.0048 0.05327-0.03142 0.54026-0.03125 0.59375v15.5 15.5c0.000137 0.07472 0.05262 0.76969 0.0625 0.84375 0.0099 0.07406 0.13679 0.77161 0.15625 0.84375s0.25255 0.74351 0.28125 0.8125 0.33754 0.7166 0.375 0.78125 0.42318 0.62829 0.46875 0.6875 0.50959 0.60349 0.5625 0.65625 0.59691 0.51709 0.65625 0.5625 0.654 0.43147 0.71875 0.46875 0.68094 0.34648 0.75 0.375 0.74031 0.26199 0.8125 0.28125 0.76966 0.14657 0.84375 0.15625c0.07409 0.0097 0.76903 0.06256 0.84375 0.0625 0.07472-0.000065 0.76968-0.05269 0.84375-0.0625 0.07407-0.0098 0.77159-0.13686 0.84375-0.15625s0.74349-0.25261 0.8125-0.28125 0.71656-0.3376 0.78125-0.375l13.406-7.75 13.406-7.75c0.06433-0.0375 0.62859-0.45445 0.6875-0.5s0.60376-0.50968 0.65625-0.5625 0.51732-0.5658 0.5625-0.625 0.43165-0.65418 0.46875-0.71875 0.34661-0.68116 0.375-0.75 0.26205-0.74055 0.28125-0.8125 0.14657-0.76992 0.15625-0.84375c0.0097-0.07383 0.0625-0.76929 0.0625-0.84375s-0.05282-0.76992-0.0625-0.84375c-0.0097-0.07383-0.13705-0.7718-0.15625-0.84375s-0.25286-0.74366-0.28125-0.8125-0.3379-0.68543-0.375-0.75-0.42358-0.65956-0.46875-0.71875c-0.04518-0.0592-0.51001-0.57218-0.5625-0.625s-0.59734-0.51695-0.65625-0.5625-0.62317-0.4625-0.6875-0.5l-13.406-7.75-13.406-7.75v0.03125c-0.0739-0.0436-0.79541-0.40545-0.875-0.4375s-0.85401-0.29273-0.9375-0.3125-0.88324-0.14919-0.96875-0.15625c-0.08551-0.0071-0.88315-0.0058-0.96875 0a2.4104 2.4104 0 0 0 -0.03125 0z" transform="matrix(.39947 0 0 .40764 28.044 32.698)"/>
  <path id="path3937" style="opacity:.3;color:#000000" d="m38.75 20.375a4.1237 4.1237 0 0 0 -3.812 4.125v15.5 15.5a4.1237 4.1237 0 0 0 6.1875 3.5625l13.406-7.75 13.406-7.75a4.1237 4.1237 0 0 0 0 -7.125l-13.407-7.749-13.406-7.75a4.1237 4.1237 0 0 0 -2.375 -0.563z" transform="matrix(.39947 0 0 .40764 28.044 32.698)"/>
  <path id="path3935" style="color:#000000;fill:url(#linearGradient4100)" d="m38.75 20.375a4.1237 4.1237 0 0 0 -3.812 4.125v15.5 15.5a4.1237 4.1237 0 0 0 6.1875 3.5625l13.406-7.75 13.406-7.75a4.1237 4.1237 0 0 0 0 -7.125l-13.407-7.749-13.406-7.75a4.1237 4.1237 0 0 0 -2.375 -0.563z" transform="matrix(.39947 0 0 .40764 28.044 31.698)"/>
  <path id="path3963" style="opacity:.6;color:#000000;fill:#fff" d="m48 16c-17.673 0-32 14.327-32 32 0 0.16667-0.0025 0.33394 0 0.5 0.267-17.443 14.494-31.5 32-31.5s31.733 14.057 32 31.5c0.003-0.166 0-0.333 0-0.5 0-17.673-14.327-32-32-32z"/>
  <path id="path3974" style="color:#000000;fill:url(#linearGradient3985)" d="m74 48c0-14.359-11.641-26-26-26s-26 11.641-26 26 11.641 26 26 26 26-11.641 26-26zm-2 0c0 13.255-10.745 24-24 24s-24-10.745-24-24 10.745-24 24-24 24 10.745 24 24z"/>
  <g id="g3993" transform="matrix(.70711 .70711 -.18213 .18213 39.772 -12.361)" clip-path="url(#clipPath4014)">
   <rect id="rect3987" style="opacity:.6;color:#000000" height="66" width="1" y="15" x="48"/>
   <rect id="rect3989" style="opacity:.2;color:#000000" height="66" width="1" y="15" x="49"/>
   <rect id="rect3991" style="opacity:.4;color:#000000;fill:#fff" height="66" width="1" y="15" x="47"/>
  </g>
  <g id="g4020" transform="matrix(-.70711 .70711 .18213 .18213 56.228 -12.361)" clip-path="url(#clipPath4014)">
   <rect id="rect4022" style="opacity:.6;color:#000000" height="66" width="1" y="15" x="48"/>
   <rect id="rect4024" style="opacity:.2;color:#000000" height="66" width="1" y="15" x="49"/>
   <rect id="rect4026" style="opacity:.4;color:#000000;fill:#fff" height="66" width="1" y="15" x="47"/>
  </g>
  <g id="g4036" transform="matrix(-.70711 -.70711 .18213 -.18213 56.228 108.36)" clip-path="url(#clipPath4014)">
   <rect id="rect4038" style="opacity:.6;color:#000000" height="66" width="1" y="15" x="48"/>
   <rect id="rect4040" style="opacity:.2;color:#000000" height="66" width="1" y="15" x="49"/>
   <rect id="rect4042" style="opacity:.4;color:#000000;fill:#fff" height="66" width="1" y="15" x="47"/>
  </g>
  <g id="g4044" transform="matrix(.70711 -.70711 -.18213 -.18213 39.772 108.36)" clip-path="url(#clipPath4014)">
   <rect id="rect4046" style="opacity:.6;color:#000000" height="66" width="1" y="15" x="48"/>
   <rect id="rect4048" style="opacity:.2;color:#000000" height="66" width="1" y="15" x="49"/>
   <rect id="rect4050" style="opacity:.4;color:#000000;fill:#fff" height="66" width="1" y="15" x="47"/>
  </g>
  <g id="text4054" style="fill:#666">
   <path id="path4062" style="fill:#666" d="m21.037 50.099-1.0579 0.83504 0.09339 0.85232 1.1358-0.12445 0.04063 0.37083-2.7356 0.29974-0.14104-1.2872c-0.01702-0.15532-0.01393-0.2945 0.0093-0.41756 0.02176-0.1242 0.06182-0.23076 0.12019-0.31968s0.13376-0.16005 0.22615-0.2134c0.0924-0.05335 0.19943-0.08669 0.32109-0.10002 0.08672-0.0095 0.17357-0.0059 0.26053 0.01075 0.08683 0.01538 0.16817 0.04642 0.24402 0.09312 0.07585 0.04671 0.14363 0.10936 0.20332 0.18796 0.0597 0.0786 0.10636 0.17566 0.13997 0.29117l1.0934-0.90573 0.0468 0.42713m-1.9433 0.26794c-0.08284 0.0091-0.15311 0.03119-0.21083 0.06633-0.05771 0.03514-0.10365 0.08209-0.13782 0.14085-0.03546 0.0589-0.05864 0.12825-0.06955 0.20803-0.0122 0.07993-0.01291 0.16908-0.0021 0.26745l0.09637 0.8795 1.0096-0.11062-0.09807-0.89503c-0.01163-0.10613-0.03464-0.19661-0.06904-0.27144-0.03569-0.07468-0.07953-0.13406-0.13151-0.17814-0.05212-0.04537-0.11118-0.07623-0.17715-0.09258-0.06611-0.01764-0.13606-0.02242-0.20984-0.01434"/>
   <path id="path4064" style="fill:#666" d="m20.972 49.155-2.7519 0.01802-0.01367-2.0878 0.30468-0.002 0.01123 1.7148 0.88279-0.0058-0.01046-1.5976 0.30078-0.002 0.01046 1.5976 0.95896-0.0063-0.01175-1.7949 0.30468-0.002 0.0142 2.1679"/>
   <path id="path4066" style="fill:#666" d="m21.258 43.873-0.05042 0.44245-1.7908 0.27557c-0.05078 0.0086-0.11077 0.01752-0.17996 0.02667-0.06904 0.0079-0.1347 0.01479-0.19698 0.0208-0.07292 0.0074-0.14714 0.01469-0.22265 0.0218 0.07312 0.02537 0.14437 0.04987 0.21376 0.0735 0.06048 0.02131 0.12282 0.04349 0.18703 0.06653 0.06421 0.02305 0.12009 0.04448 0.16762 0.06432l1.6824 0.67531-0.05042 0.44245-2.826 0.49373 0.04401-0.38617 1.7928-0.29303c0.08401-0.0127 0.16723-0.02419 0.24965-0.03445 0.08257-0.01156 0.15636-0.02084 0.22137-0.02785 0.07695-0.0083 0.14988-0.01568 0.21877-0.02225-0.08705-0.02958-0.17274-0.05965-0.25706-0.09023-0.03519-0.01318-0.07232-0.02659-0.1114-0.04022-0.03907-0.01362-0.0775-0.02718-0.11528-0.04066-0.03763-0.01477-0.0734-0.02868-0.1073-0.04171-0.03504-0.01448-0.067-0.02729-0.09587-0.03845l-1.6477-0.66939 0.04047-0.35512 1.7561-0.28149c0.03064-0.0044 0.06459-0.009 0.10184-0.01395 0.03611-0.0064 0.07409-0.01187 0.11393-0.0165 0.0387-0.0061 0.07861-0.01135 0.11975-0.01584 0.04114-0.0045 0.08033-0.0092 0.11759-0.01412 0.08904-0.01082 0.17994-0.02077 0.27271-0.02986 0.000147-0.0013-0.02118-0.0096-0.06399-0.02498-0.0441-0.01551-0.0989-0.03486-0.16441-0.05805-0.0655-0.02319-0.13603-0.04826-0.21159-0.07522-0.07671-0.0284-0.14759-0.05613-0.21265-0.08321l-1.6817-0.68113 0.04401-0.38617 2.6425 1.1169"/>
   <path id="path4068" style="fill:#666" d="m44.229 21.262-0.38259 0.05638-1.5123-2.5588 0.38838-0.05724 1.0361 1.8057c0.02786 0.05512 0.05573 0.11024 0.0836 0.16536 0.02768 0.05383 0.05256 0.10215 0.07467 0.14496 0.02582 0.05016 0.0508 0.09912 0.07495 0.14689 0.0084-0.04994 0.01778-0.10265 0.02803-0.15812 0.0088-0.04736 0.01806-0.10071 0.02774-0.16005 0.01097-0.05953 0.02285-0.12182 0.03563-0.18688l0.46723-2.0273 0.38838-0.05724-0.70981 2.8863"/>
   <path id="path4070" style="fill:#666" d="m48.225 19.578c0.0086 0.21467-0.01475 0.41108-0.07013 0.58923-0.05409 0.1781-0.13717 0.33195-0.24924 0.46156s-0.25132 0.23164-0.41773 0.30609c-0.16642 0.07446-0.35696 0.116-0.57163 0.12463-0.22638 0.0091-0.4262-0.01805-0.59946-0.08145-0.17331-0.0647-0.3191-0.15788-0.43736-0.27953-0.11832-0.12295-0.2096-0.27044-0.27386-0.44248-0.06425-0.17204-0.10054-0.36148-0.10886-0.56835-0.0086-0.21467 0.0135-0.40973 0.06639-0.58517s0.1348-0.32599 0.24572-0.45164c0.11087-0.12695 0.24957-0.22635 0.41609-0.29821 0.16777-0.0732 0.36159-0.11423 0.58146-0.12307 0.21857-0.0088 0.41376 0.0166 0.58556 0.07614 0.1731 0.0595 0.31936 0.1481 0.43877 0.26579 0.12071 0.11764 0.21446 0.26178 0.28127 0.43241 0.0668 0.17063 0.10447 0.36198 0.113 0.57405m-0.38055 0.0153c-0.0066-0.16523-0.03416-0.31464-0.08253-0.44822-0.04708-0.13363-0.11418-0.24691-0.20132-0.33984-0.08584-0.09298-0.19095-0.16303-0.31534-0.21016-0.12439-0.04712-0.2666-0.06747-0.42662-0.06103-0.16393 0.0066-0.30665 0.03839-0.42815 0.0954-0.12151 0.05701-0.22196 0.13533-0.30135 0.23495-0.07809 0.09957-0.13524 0.21785-0.17143 0.35483-0.03489 0.13693-0.04901 0.28801-0.04237 0.45324 0.0066 0.16523 0.03355 0.31596 0.08073 0.4522 0.04843 0.13488 0.11564 0.25076 0.20163 0.34765 0.08724 0.09553 0.19314 0.16881 0.31768 0.21984 0.12579 0.04967 0.2687 0.07129 0.42873 0.06486 0.17174-0.0069 0.31828-0.04082 0.43963-0.10173 0.12265-0.06097 0.22167-0.14248 0.29706-0.24455 0.07663-0.10342 0.13104-0.22485 0.16323-0.36428 0.03348-0.13948 0.04696-0.29053 0.04042-0.45316"/>
   <path id="path4072" style="fill:#666" d="m48.799 20.999 0.16196-2.7472 0.3724 0.02196-0.14403 2.443 1.3882 0.08184-0.01793 0.30416-1.7606-0.1038"/>
   <path id="path4074" style="fill:#666" d="m51.056 21.172 0.05167-0.4246 0.37807 0.04601-0.05168 0.4246-0.37807-0.04601"/>
   <path id="path4076" style="fill:#666" d="m54.438 20.56-0.18796 0.81453-0.27976-0.06456 0.18796-0.81453-0.80692-0.1862 0.06412-0.27785 0.80692 0.1862 0.18796-0.81453 0.27976 0.06455-0.18796 0.81453 0.80692 0.1862-0.06412 0.27786-0.80692-0.1862"/>
   <path id="path4078" style="fill:#666" d="m77.198 44.381-1.0177 0.1086 0.16291 1.5265-0.30685 0.03275-0.16291-1.5265-1.1089 0.11835-0.03959-0.37094 2.7364-0.29203 0.20747 1.944-0.30297 0.03233-0.16788-1.5731"/>
   <path id="path4080" style="fill:#666" d="m74.963 49.328 0.0038-0.4453 1.7521-0.46162c0.0496-0.0139 0.10832-0.02903 0.17618-0.04537 0.06784-0.01505 0.13241-0.02882 0.19372-0.04132 0.07174-0.01502 0.14479-0.03002 0.21914-0.04501-0.07538-0.01757-0.1488-0.03448-0.22028-0.05071-0.06238-0.01486-0.1267-0.03038-0.19297-0.04657s-0.12408-0.03166-0.17344-0.0464l-1.7439-0.49538 0.0038-0.4453 2.7588-0.78702-0.0033 0.38866-1.7522 0.4792c-0.08222 0.02143-0.16377 0.04157-0.24467 0.06041-0.0809 0.02014-0.15332 0.0371-0.21724 0.05088-0.07566 0.01628-0.14741 0.03129-0.21524 0.04504 0.08967 0.0203 0.17804 0.04123 0.2651 0.06281 0.03638 0.0094 0.07471 0.01887 0.115 0.02833 0.04028 0.0095 0.07992 0.01891 0.1189 0.02836 0.03897 0.01075 0.076 0.02083 0.11107 0.03025 0.03637 0.01073 0.06949 0.02012 0.09937 0.02819l1.7087 0.49312-0.0031 0.35741-1.7169 0.46387c-0.03001 0.0076-0.06329 0.01573-0.09982 0.02454-0.03524 0.01011-0.07244 0.01956-0.11157 0.02835-0.03785 0.01009-0.07699 0.01952-0.11743 0.02829-0.04044 0.0088-0.07893 0.01755-0.11546 0.02636-0.08741 0.02009-0.17678 0.0395-0.26808 0.05826-0.000011 0.0013 0.02207 0.0073 0.06625 0.01814 0.04548 0.0108 0.10201 0.02431 0.16958 0.04051s0.14034 0.03375 0.21831 0.05265c0.07926 0.02021 0.15266 0.04036 0.2202 0.06048l1.7438 0.50124-0.0033 0.38866-2.7449-0.83402"/>
   <path id="path4082" style="fill:#666" d="m75.964 53.012c-0.22715-0.03032-0.42328-0.09131-0.58839-0.18297-0.16382-0.09149-0.29652-0.20444-0.39812-0.33885-0.10031-0.13424-0.16994-0.28672-0.2089-0.45744-0.03784-0.16926-0.04427-0.34745-0.01929-0.5346l0.13617-1.0202 2.7278 0.36408-0.12041 0.90216c-0.02808 0.21037-0.08038 0.40044-0.15689 0.57019-0.0754 0.17122-0.17648 0.31339-0.30323 0.42652-0.12547 0.1133-0.27683 0.19425-0.45409 0.24284-0.17743 0.04988-0.3823 0.05932-0.61462 0.02831m0.04961-0.3717c0.18456 0.02463 0.34555 0.01919 0.48297-0.01633 0.13871-0.03535 0.25638-0.09518 0.35302-0.17948 0.09664-0.08431 0.17319-0.19035 0.22965-0.31812 0.05775-0.1276 0.09722-0.27077 0.11841-0.42952l0.07003-0.52464-2.1354-0.28501-0.08114 0.60789c-0.01912 0.14326-0.01355 0.27865 0.01672 0.40617 0.0301 0.12881 0.08502 0.24386 0.16477 0.34514s0.18467 0.18622 0.31476 0.25482c0.13009 0.06859 0.28548 0.11495 0.46617 0.13907"/>
   <path id="path4084" style="fill:#666" d="m51.636 74.753 0.38274-0.05536 1.5054 2.5628-0.38854 0.0562-1.0312-1.8085c-0.02772-0.05519-0.05544-0.11039-0.08315-0.16558-0.02753-0.05391-0.05229-0.10229-0.07428-0.14516-0.02568-0.05023-0.05054-0.09926-0.07456-0.14709-0.0086 0.04992-0.01805 0.1026-0.02845 0.15804-0.0089 0.04734-0.01833 0.10066-0.02817 0.15998-0.01113 0.0595-0.02317 0.12176-0.03613 0.18678l-0.47266 2.026-0.38854 0.0562 0.71754-2.8844"/>
   <path id="path4086" style="fill:#666" d="m47.636 76.426c-0.008-0.21469 0.01587-0.41104 0.07173-0.58904 0.05457-0.17795 0.13807-0.33158 0.25049-0.46088s0.25194-0.23096 0.41856-0.30496 0.35727-0.11503 0.57196-0.12308c0.2264-0.0085 0.42615 0.01921 0.59924 0.08308 0.17314 0.06517 0.31867 0.15875 0.4366 0.28072 0.11798 0.12327 0.20887 0.27101 0.27265 0.44322 0.06379 0.17221 0.09956 0.36176 0.10732 0.56864 0.008 0.21469-0.01461 0.40969-0.06798 0.58499s-0.13568 0.32562-0.24695 0.45097c-0.11122 0.12665-0.25018 0.22567-0.4169 0.29708-0.16796 0.07275-0.3619 0.11324-0.5818 0.12149-0.2186 0.0082-0.41371-0.01772-0.58535-0.07774-0.17294-0.05997-0.31895-0.14897-0.43804-0.26698-0.12039-0.11797-0.21375-0.26236-0.2801-0.43317-0.06634-0.17081-0.10348-0.36226-0.11144-0.57435m0.38059-0.01427c0.0062 0.16525 0.0333 0.31473 0.08131 0.44844 0.04671 0.13376 0.11351 0.24722 0.20039 0.34039 0.08559 0.09321 0.19051 0.16355 0.31477 0.21101s0.26642 0.06819 0.42646 0.06219c0.16395-0.0061 0.30675-0.03756 0.42841-0.09424s0.22232-0.13473 0.30199-0.23413c0.07836-0.09936 0.13583-0.21748 0.17239-0.35436 0.03526-0.13684 0.0498-0.28788 0.0436-0.45312-0.0062-0.16525-0.0327-0.31606-0.0795-0.45242-0.04806-0.13501-0.11495-0.25108-0.20068-0.3482-0.08698-0.09577-0.19268-0.16933-0.31708-0.2207-0.12566-0.05002-0.26851-0.07202-0.42856-0.06602-0.17175 0.0064-0.31839 0.03995-0.4399 0.10054-0.12281 0.06063-0.22205 0.14188-0.29772 0.24374-0.07691 0.10321-0.13165 0.22449-0.16422 0.36383-0.03386 0.13939-0.04775 0.2904-0.04165 0.45305"/>
   <path id="path4088" style="fill:#666" d="m47.066 75.004-0.16949 2.7467-0.37234-0.02298 0.15072-2.4426-1.388-0.08565 0.01877-0.30411 1.7603 0.10862"/>
   <path id="path4090" style="fill:#666" d="m44.809 74.825-0.05284 0.42446-0.37794-0.04705 0.05284-0.42446 0.37794 0.04705"/>
   <path id="path4092" style="fill:#666" d="m43.742 75.599-0.05271 0.30802-0.96257-0.16473 0.05271-0.30802 0.96257 0.16473"/>
  </g>
 </g>
</svg>
