<?xml version="1.0" encoding="UTF-8" standalone="no"?>
<!-- Created with Inkscape (http://www.inkscape.org/) -->
<svg id="svg2408" xmlns:rdf="http://www.w3.org/1999/02/22-rdf-syntax-ns#" xmlns="http://www.w3.org/2000/svg" height="96" width="96" version="1.0" xmlns:cc="http://creativecommons.org/ns#" xmlns:xlink="http://www.w3.org/1999/xlink" xmlns:dc="http://purl.org/dc/elements/1.1/">
 <defs id="defs2410">
  <linearGradient id="linearGradient4236">
   <stop id="stop4238" style="stop-color:#ffdf39" offset="0"/>
   <stop id="stop4240" style="stop-color:#eb9c00;stop-opacity:0" offset="1"/>
  </linearGradient>
  <linearGradient id="linearGradient4192">
   <stop id="stop4194" style="stop-color:#fff" offset="0"/>
   <stop id="stop4196" style="stop-color:#fff;stop-opacity:0" offset="1"/>
  </linearGradient>
  <linearGradient id="ButtonShadow" y2="7.0165" gradientUnits="userSpaceOnUse" x2="45.448" gradientTransform="scale(1.0059 .99417)" y1="92.54" x1="45.448">
   <stop id="stop3750" offset="0"/>
   <stop id="stop3752" style="stop-opacity:.58824" offset="1"/>
  </linearGradient>
  <linearGradient id="linearGradient3706" y2="5.9877" gradientUnits="userSpaceOnUse" x2="48" y1="90" x1="48">
   <stop id="stop4158" style="stop-color:#c6c6c6" offset="0"/>
   <stop id="stop4160" style="stop-color:#e7e7e7" offset="1"/>
  </linearGradient>
  <filter id="filter3174" color-interpolation-filters="sRGB">
   <feGaussianBlur id="feGaussianBlur3176" stdDeviation="1.71"/>
  </filter>
  <linearGradient id="linearGradient3188" y2="63.893" gradientUnits="userSpaceOnUse" x2="36.357" y1="6" x1="36.357">
   <stop id="stop3739" style="stop-color:#fff" offset="0"/>
   <stop id="stop3741" style="stop-color:#fff;stop-opacity:0" offset="1"/>
  </linearGradient>
  <radialGradient id="radialGradient2855" gradientUnits="userSpaceOnUse" cy="90.172" cx="48" gradientTransform="matrix(1.1573 0 0 .99591 -7.551 .19713)" r="42">
   <stop id="stop3739-7" style="stop-color:#fff" offset="0"/>
   <stop id="stop3741-2" style="stop-color:#fff;stop-opacity:0" offset="1"/>
  </radialGradient>
  <clipPath id="clipPath3613">
   <rect id="rect3615" style="fill:#fff" rx="6" ry="6" height="84" width="84" y="6" x="6"/>
  </clipPath>
  <filter id="filter3794" height="1.384" width="1.384" color-interpolation-filters="sRGB" y="-.192" x="-.192">
   <feGaussianBlur id="feGaussianBlur3796" stdDeviation="5.28"/>
  </filter>
  <linearGradient id="linearGradient2885" y2="138.66" gradientUnits="userSpaceOnUse" x2="48" y1="20.221" x1="48">
   <stop id="stop3739-73" style="stop-color:#fff" offset="0"/>
   <stop id="stop3741-6" style="stop-color:#fff;stop-opacity:0" offset="1"/>
  </linearGradient>
  <linearGradient id="linearGradient4182" y2="72" gradientUnits="userSpaceOnUse" x2="48" y1="24" x1="48">
   <stop id="stop4178" offset="0"/>
   <stop id="stop4180" style="stop-color:#393939" offset="1"/>
  </linearGradient>
  <linearGradient id="linearGradient4198" y2="32.988" xlink:href="#linearGradient4192" gradientUnits="userSpaceOnUse" x2="53" y1="74" x1="53"/>
  <linearGradient id="linearGradient4222" y2="24" xlink:href="#linearGradient4192" gradientUnits="userSpaceOnUse" x2="48" y1="72" x1="48"/>
  <radialGradient id="radialGradient4232" xlink:href="#linearGradient4192" gradientUnits="userSpaceOnUse" cy="70" cx="48" gradientTransform="matrix(1.1875 0 0 .5625 -9 27)" r="16"/>
  <linearGradient id="linearGradient4242" y2="61" xlink:href="#linearGradient4236" gradientUnits="userSpaceOnUse" x2="33" gradientTransform="matrix(.5 0 0 1 18 0)" y1="68" x1="33"/>
  <linearGradient id="linearGradient4298" y2="61" xlink:href="#linearGradient4236" gradientUnits="userSpaceOnUse" x2="33" gradientTransform="translate(0,40)" y1="68" x1="33"/>
  <linearGradient id="linearGradient4300" y2="61" xlink:href="#linearGradient4236" gradientUnits="userSpaceOnUse" x2="33" gradientTransform="translate(4,40)" y1="68" x1="33"/>
  <linearGradient id="linearGradient4302" y2="61" xlink:href="#linearGradient4236" gradientUnits="userSpaceOnUse" x2="33" gradientTransform="translate(8,40)" y1="68" x1="33"/>
  <linearGradient id="linearGradient4304" y2="61" xlink:href="#linearGradient4236" gradientUnits="userSpaceOnUse" x2="33" gradientTransform="translate(12,40)" y1="68" x1="33"/>
  <linearGradient id="linearGradient4306" y2="61" xlink:href="#linearGradient4236" gradientUnits="userSpaceOnUse" x2="33" gradientTransform="translate(16,40)" y1="68" x1="33"/>
  <linearGradient id="linearGradient4308" y2="61" xlink:href="#linearGradient4236" gradientUnits="userSpaceOnUse" x2="33" gradientTransform="translate(20,40)" y1="68" x1="33"/>
  <linearGradient id="linearGradient4310" y2="61" xlink:href="#linearGradient4236" gradientUnits="userSpaceOnUse" x2="33" gradientTransform="translate(24,40)" y1="68" x1="33"/>
  <linearGradient id="linearGradient4312" y2="61" xlink:href="#linearGradient4236" gradientUnits="userSpaceOnUse" x2="33" gradientTransform="translate(28,40)" y1="68" x1="33"/>
  <linearGradient id="linearGradient4316" y2="61" xlink:href="#linearGradient4236" gradientUnits="userSpaceOnUse" x2="33" gradientTransform="matrix(.5 0 0 1 22 0)" y1="68" x1="33"/>
  <linearGradient id="linearGradient4320" y2="61" xlink:href="#linearGradient4236" gradientUnits="userSpaceOnUse" x2="33" gradientTransform="matrix(.5 0 0 1 26 0)" y1="68" x1="33"/>
  <linearGradient id="linearGradient4324" y2="61" xlink:href="#linearGradient4236" gradientUnits="userSpaceOnUse" x2="33" gradientTransform="matrix(.5 0 0 1 30 0)" y1="68" x1="33"/>
  <linearGradient id="linearGradient4328" y2="61" xlink:href="#linearGradient4236" gradientUnits="userSpaceOnUse" x2="33" gradientTransform="matrix(.5 0 0 1 34 0)" y1="68" x1="33"/>
  <linearGradient id="linearGradient4332" y2="61" xlink:href="#linearGradient4236" gradientUnits="userSpaceOnUse" x2="33" gradientTransform="matrix(.5 0 0 1 38 0)" y1="68" x1="33"/>
  <linearGradient id="linearGradient4336" y2="61" xlink:href="#linearGradient4236" gradientUnits="userSpaceOnUse" x2="33" gradientTransform="matrix(.5 0 0 1 42 0)" y1="68" x1="33"/>
  <linearGradient id="linearGradient4340" y2="61" xlink:href="#linearGradient4236" gradientUnits="userSpaceOnUse" x2="33" gradientTransform="matrix(.5 0 0 1 46 0)" y1="68" x1="33"/>
  <linearGradient id="ButtonShadow-0" y2="7.0165" gradientUnits="userSpaceOnUse" x2="45.448" gradientTransform="matrix(1.0059 0 0 .99417 100 0)" y1="92.54" x1="45.448">
   <stop id="stop3750-8" offset="0"/>
   <stop id="stop3752-5" style="stop-opacity:.58824" offset="1"/>
  </linearGradient>
  <linearGradient id="linearGradient3780" y2="90.239" xlink:href="#ButtonShadow-0" gradientUnits="userSpaceOnUse" x2="32.251" gradientTransform="matrix(1.0238 0 0 1.0119 -1.1429 -98.071)" y1="6.1317" x1="32.251"/>
  <linearGradient id="linearGradient3721" y2="90.239" xlink:href="#ButtonShadow-0" gradientUnits="userSpaceOnUse" x2="32.251" gradientTransform="translate(0,-97)" y1="6.1317" x1="32.251"/>
  <linearGradient id="linearGradient2927-4-6" y2="11.016" gradientUnits="userSpaceOnUse" x2="19" gradientTransform="matrix(0 -3 2.9653 0 39.336 117)" y1="11.016" x1="11">
   <stop id="stop3185-9-3" style="stop-color:#c80000" offset="0"/>
   <stop id="stop3187-6-6" style="stop-color:#f3604d" offset="1"/>
  </linearGradient>
 </defs>
 <metadata id="metadata2413">
  <rdf:RDF>
   <cc:Work rdf:about="">
    <dc:format>image/svg+xml</dc:format>
    <dc:type rdf:resource="http://purl.org/dc/dcmitype/StillImage"/>
    <dc:title/>
   </cc:Work>
  </rdf:RDF>
 </metadata>
 <g id="layer2" style="display:none">
  <rect id="rect3745" style="opacity:.9;filter:url(#filter3174);fill:url(#ButtonShadow)" rx="6" ry="6" height="85" width="86" y="7" x="5"/>
 </g>
 <g id="layer5">
  <path id="path3786" style="opacity:0.08;fill:url(#linearGradient3780)" d="m12-95.031c-5.5111 0-10.031 4.5202-10.031 10.031v71c0 5.5111 4.5202 10.031 10.031 10.031h72c5.5111 0 10.031-4.5202 10.031-10.031v-71c0-5.5111-4.5202-10.031-10.031-10.031h-72z" transform="scale(1,-1)"/>
  <path id="path3778" style="opacity:.1;fill:url(#linearGradient3780)" d="m12-94.031c-4.9716 0-9.0312 4.0596-9.0312 9.0312v71c0 4.9716 4.0596 9.0312 9.0312 9.0312h72c4.9716 0 9.0312-4.0596 9.0312-9.0312v-71c0-4.9716-4.0596-9.0312-9.0312-9.0312h-72z" transform="scale(1,-1)"/>
  <path id="path3770" style="opacity:.2;fill:url(#linearGradient3780)" d="m12-93c-4.4091 0-8 3.5909-8 8v71c0 4.4091 3.5909 8 8 8h72c4.4091 0 8-3.5909 8-8v-71c0-4.4091-3.5909-8-8-8h-72z" transform="scale(1,-1)"/>
  <rect id="rect3723" style="opacity:.3;fill:url(#linearGradient3780)" transform="scale(1,-1)" rx="7" ry="7" height="85" width="86" y="-92" x="5"/>
  <rect id="rect3716" style="opacity:.45;fill:url(#linearGradient3721)" transform="scale(1,-1)" rx="6" ry="6" height="84" width="84" y="-91" x="6"/>
 </g>
 <g id="layer1">
  <rect id="rect2419" style="fill:url(#linearGradient3706)" rx="6" ry="6" height="84" width="84" y="6" x="6"/>
  <path id="path3522" style="opacity:.15" d="m-63.726 6.0817c1.6501 2.2167 0.11258 5.9183 2.6015 5.8816 1.2119 1.714-2.4155 0.5113 0.20359 1.8323 1.5061 1.1866-1.5934 1.8645 0.27179 2.9294-2.1497 1.1097 0.34844 5.804 1.9451 6.9788 2.628 2.2132 1.1622-4.6857 4.0945-5.0446 1.5934-1.8197 4.3918-2.9878 6.3793-4.8184-1.9423-0.15774-3.0765-1.3671-1.237-2.1163 3.3855 3.4704 0.8489-1.6435-1.0251-2.4532 1.8134-0.57705 3.577-0.15448 3.3254-1.6514 1.9163-1.4025-1.8423-1.8553-3.1839-1.5383h-13.375zm-27.802 1.4478c-2.4498 0.6982-2.6206 6.5549-0.15835 3.3027 0.60434-1.3354 3.3971-2.9447 0.15835-3.3027zm11.446 0.20359c-1.4123 2.2153 0.20492 3.9915 1.3799 1.2894 0.83171-1.1283-0.61793-1.2481-1.3799-1.2894zm3.529 0.49767c-2.7288 1.2652-0.6726 4.2156-0.60506 4.8717 2.8746 0.99483 4.4732-0.65044 5.5607 2.1615 2.7352 1.5769-0.05382 4.3171-1.0805 5.0307 1.8493-1.6112 5.4042 4.3805 4.4722 1.2149-1.1118-0.81208 2.9852 1.3046 0.85962-1.3347-1.9561-3.1527 0.15527-1.4114 0.97995-0.67561 2.8049-2.5161-3.1736-2.8202-1.6812-5.4096-1.3078-1.0596-3.0229-4.2695-5.3387-3.6421-1.5502 2.0056-0.21415-4.37-2.4886-1.1796-0.11789 1.7834-0.04285 4.0465-0.70571 0.95682-0.44407-0.54087 0.764-1.7983 0.0273-1.9942zm-5.5649 0.022621c-1.8316 0.61085-1.7332 3.0865 0.51896 3.3519 0.77144-0.87963 0.30649-3.1853-0.51896-3.3519zm-7.1484 0.79175c-2.3791 0.56388-1.408 2.4829-0.67957 3.0233-2.9449 0.73792 4.4957 0.94313 0.79268 1.4105-3.0808 1.2308 2.9667 2.6809 3.9588 1.2216 3.8044 0.93074 0.13691-3.0465-0.19704-5.2025-1.6128-1.7315-0.06366 3.9915-1.5219 0.18441-0.50879 1.1305-2.1265 0.1666-2.353-0.63725zm75.601 0.24884c-3.1924 1.2499 1.9842 5.9664 0.69764 1.6755-0.12816-0.51812 0.2882-1.8871-0.69764-1.6755zm-66.666 1.9002c-2.2941 2.1567 2.916 3.9402-0.6589 5.5469-0.53602-2.0029-1.4583 1.0021-3.5035-0.61542-3.5159 1.4645-5.3139-0.76283-8.2575-2.2896-1.768-0.22016-1.1038 1.6805-1.2209 3.4602v14.755c1.7335 1.8245 0.67633 0.80498 0 0.30175 0.95147 3.2416-0.41957 7.9802 3.3309 9.8658 0.63756 1.183 3.3129 6.2231 3.4362 4.715-1.3412-1.4051-2.7174-5.6174-0.4479-1.863 2.0328 3.5688 4.7747 5.8835 8.7805 6.7328 2.1901 0.74522 3.9912 3.307 5.9171 2.7433 1.0891 2.872-3.2274 5.6299 0.14491 8.3086 1.7605 2.7118 4.7162 4.4904 3.116 8.2976-1.1191 3.7183-0.63993 7.7697-1.6078 11.234-0.30039 2.1087 2.938 7.461 2.6575 3.1751 0.94557-2.9784 0.92064-6.2556 3.1476-8.3648 3.0471 0.02413 0.58238-3.2778 3.607-2.8464 1.8456-2.4201 2.3802-5.3071 5.4949-6.2681 0.37204-2.9376 5.1788-7.4366 0.21314-8.5803-1.3496-0.66545-4.8245-0.90473-4.559-1.2331 0.53803-2.9149-4.4935-3.7447-6.6342-4.9373-2.8108-1.9958-7.0342 3.3156-8.0245-1.261-0.59088-1.4399-2.7513-1.4633-1.7584-3.6852-1.7894 1.7803-5.2893 1.2392-4.373-2.1989 1.3916-2.8956 6.7356-3.0326 7.6463 0.45028-1.2644-3.8412 2.4439-6.8314 4.5025-9.5642 0.41916-1.3062 2.9097-2.4284 2.0527-0.69242 1.4602-0.05269 3.6733-2.6886 1.0794-1.472-0.03668-2.4039-2.273-1.7203-2.998-1.3789 1.3438-2.1336 8.245-0.96713 5.3551-4.4546-2.2393-0.90768-2.053-6.2044-4.318-3.2536 0.1906-1.8181-4.61-5.3771-4.5053-2.3283 0.58599 2.7281 0.10713 5.8709-1.1399 7.6591-0.26024-3.9976-7.0757-3.1141-6.1994-7.374 1.2694-2.0303 2.7529-4.8379 2.8942-4.5853 2.275-0.86894 4.1046-3.3965 1.4678-5.0581-0.14092 1.4482-1.983 4.4361-1.7237 0.82232-1.7058 2.0232-1.3162-3.2194-2.9138-3.7631zm54.45 1.4025c-3.9959 0.97784-5.5801 4.7958-7.5568 7.9582-2.9139 1.3142-2.8029 6.9583 0.45241 5.1557 0.87128 1.5223-0.6095 3.9217 1.9283 1.9312 2.047-2.7099 0.35794-7.0928 3.8414-8.8015 0.25373 1.3286-3.2133 6.2899 0.83699 5.4744 3.6616 0.13821-2.6619 0.36497-0.881 2.7047-1.8503-1.0982-0.88883 2.9993-3.304 2.0458-2.0923 1.1385-3.4643-0.52863-2.985-2.355-1.646 0.96057 0.5177 3.6704-2.3396 3.8333-0.64004 2.2737-5.9034 1.931-2.9102 4.2462 1.3289 3.4454-4.9515 0.21599-3.1685 4.3505 1.5254 4.0884 4.7224-1.3547 6.0194-2.4063 2.5025-1.9419 6.2107 3.3111 3.9588 3.5063 2.5251-0.33891 2.0062-2.7412-0.01696-3.6713-1.0927-2.8349 3.459 1.3903 3.2066 2.8117 1.6059 3.0083 0.94462-3.0801 2.5789-0.38456-0.19081 2.8434 6.5742 0.66856 3.3444 4.2924-2.7769 0.55951-5.5101-0.71614-7.9008 0.10093-2.2251-0.01969-2.1135-2.398-2.9236-2.9935-2.8304 0.23004-6.3279 0.20403-8.2228 2.4914-2.049 2.8123-5.0038 6.7438-2.7705 10.335 2.2349 5.3215 7.7772 0.27603 10.963 3.4188 0.94694 1.3104-0.82059 2.868 1.2967 4.2874 0.7967 3.0235-0.90449 5.8943 1.0523 8.7846 1.0118 2.7182 1.6398 6.7866 5.4058 4.3028 3.9858-2.3994 2.9242-6.8227 6.2129-9.2726-2.6023-5.0381 3.1836-7.2471 4.6272-11.337-3.1539 0.46191-5.9638-2.6838-6.7258-5.8499-1.3249-1.5379-0.98368-3.8055 0.49633-0.91647 2.0343 1.9719 2.0782 7.8231 5.8413 4.813 1.7203-0.71984 6.4186-3.4657 2.6751-4.7153-2.413 1.7484-5.0753-5.2243-1.5318-1.18 2.576 1.093 4.38 1.744 4.38-1.881v-29.497c-0.8024 0.82028-2.8638 2.3352-3.9043 1.3286-1.7904 0.24941-4.1539 3.7343-3.5912 0.36554-1.5562-0.10309-0.27858 3.0205-2.4166 3.1079-0.21529 1.6059-2.1599 0.29738-1.4294 1.8224-1.5006-1.0649-2.7707-4.427 0.18615-2.3167 4.391-1.3178-2.8956-4.2904-3.458-5.0089 0.94546-0.22662-1.0286-1.2122-1.2668-0.88224zm-36.24 0.88224c-1.4615 1.2182 2.7785 1.4476 0 0zm-19.522 0.65602c-1.6347 1.7105 2.6033 1.5724 0 0zm9.4784 1.6966c-1.2379 2.0286 1.829 0.74894 0 0zm27.101 2.3979c-1.4492 1.6691-3.3621-0.43926-3.3932 0.99535 0.26264 0.43347 1.3147 3.5273 3.6194 1.2442 1.237-0.52171 0.74996-1.8369-0.22621-2.2395zm-30.856 0.99535c-2.7488 2.4015 4.6683 2.6227 0.58232 0.27543l-0.58232-0.27543zm36.262 6.6507c-1.9791 1.291 0.94943 4.0328-0.04308 5.3207-1.2401 2.1615 4.6083-0.15226 1.4846-1.8768-0.22256-1.4816-1.83-3.2894-1.4415-3.444zm-1.3347 2.6015c-2.7574 0.77986-0.62596 4.8062 0.35066 1.014 0.05497-0.21986 0.12936-1.0214-0.35066-1.014zm-22.079 2.9182c-2.5652 1.7498-0.39843 3.4964 1.4816 2.7091-0.38596-1.0558-1.4642-1.721-1.4816-2.7091zm48.455 2.9408c1.2799 0.6462-2.3455 1.7501-0.04983 2.8874 1.336 1.5717 0.83231 4.9455-1.3392 2.5576 0.40344-2.666-2.9436-4.657 1.389-5.445zm-6.5829 0.02262c-0.17367 1.7128 3.694 4.3751-0.47505 3.5063-2.2047 0.25872-5.507-0.06739-2.7294-2.8157 0.87765-0.52708 3.1821 1.8185 1.9829-0.37395 0.42514-0.02713 0.82108-0.18767 1.2216-0.3167zm-12.736 3.7099c-1.6081 1.0364 1.112 1.8311 0 0zm-40.377 9.66c-0.2711 0.9048 5.086 1.8218 1.3893 0.37215l-0.55107-0.19405-0.83823-0.1781zm4.1624 1.2894c-1.6249 1.6502 3.3478 0.49302 0 0zm54.337 15.134c-3.5307 0.09113-3.0613 9.2016-0.60014 3.8108 0.23341-1.1698 1.1689-2.7138 0.60014-3.8108z"/>
  <path id="rect3728" style="opacity:.5;fill:url(#linearGradient3188)" d="m12 6c-3.324 0-6 2.676-6 6v2 68 2c0 0.33472 0.04135 0.6507 0.09375 0.96875 0.0487 0.2956 0.09704 0.59692 0.1875 0.875 0.00988 0.03038 0.020892 0.0636 0.03125 0.09375 0.098865 0.28777 0.23488 0.54745 0.375 0.8125 0.14459 0.27351 0.31562 0.53562 0.5 0.78125 0.18438 0.24564 0.37378 0.47347 0.59375 0.6875 0.43995 0.42806 0.94291 0.81453 1.5 1.0938 0.27854 0.13961 0.57347 0.24695 0.875 0.34375-0.2562-0.10022-0.48671-0.23627-0.71875-0.375-0.00741-0.0044-0.023866 0.0045-0.03125 0-0.031933-0.0193-0.062293-0.04251-0.09375-0.0625-0.1204-0.0767-0.23102-0.16351-0.34375-0.25-0.10617-0.0808-0.21328-0.16111-0.3125-0.25-0.1778-0.162-0.3473-0.346-0.4999-0.531-0.1075-0.131-0.2183-0.266-0.3124-0.407-0.0251-0.038-0.0385-0.086-0.0626-0.125-0.0647-0.103-0.1302-0.204-0.1874-0.312-0.1011-0.195-0.2057-0.416-0.2813-0.625-0.008-0.022-0.0236-0.041-0.0313-0.063-0.0318-0.092-0.0358-0.187-0.0624-0.281-0.0304-0.107-0.0704-0.203-0.0938-0.313-0.0729-0.341-0.125-0.698-0.125-1.062v-2-68-2c0-2.782 2.2182-5 5-5h2 68 2c2.7818 0 5 2.2182 5 5v2 68 2c0 0.3643-0.05212 0.72099-0.125 1.0625-0.04415 0.20689-0.08838 0.39766-0.15625 0.59375-0.0077 0.02195-0.0233 0.04069-0.03125 0.0625-0.06274 0.17374-0.13838 0.36745-0.21875 0.53125-0.04158 0.0828-0.07904 0.16995-0.125 0.25-0.0546 0.09721-0.12677 0.18835-0.1875 0.28125-0.09411 0.14096-0.20492 0.276-0.3125 0.40625-0.14317 0.17445-0.30314 0.347-0.46875 0.5-0.01117 0.0102-0.01998 0.02115-0.03125 0.03125-0.13839 0.12556-0.28509 0.23444-0.4375 0.34375-0.10257 0.07315-0.20432 0.15336-0.3125 0.21875-0.0074 0.0045-0.02384-0.0044-0.03125 0-0.23204 0.13873-0.46255 0.27478-0.71875 0.375 0.30153-0.0968 0.59646-0.20414 0.875-0.34375 0.55709-0.27922 1.0601-0.66569 1.5-1.0938 0.21997-0.21403 0.40937-0.44186 0.59375-0.6875s0.35541-0.50774 0.5-0.78125c0.14012-0.26505 0.27614-0.52473 0.375-0.8125 0.01041-0.03078 0.02133-0.06274 0.03125-0.09375 0.09046-0.27808 0.1388-0.5794 0.1875-0.875 0.053-0.318 0.094-0.634 0.094-0.969v-2-68-2c0-3.324-2.676-6-6-6h-72z"/>
  <path id="path3615" style="opacity:.2;fill:url(#radialGradient2855)" d="m12 90c-3.324 0-6-2.676-6-6v-2-68-2c0-0.33472 0.04135-0.6507 0.09375-0.96875 0.0487-0.2956 0.09704-0.59692 0.1875-0.875 0.0099-0.03 0.0209-0.063 0.0313-0.094 0.0989-0.2873 0.2349-0.547 0.375-0.812 0.1446-0.2735 0.3156-0.5356 0.5-0.7812 0.1844-0.2457 0.3738-0.4735 0.5937-0.6876 0.44-0.428 0.943-0.8145 1.5-1.0937 0.2786-0.1396 0.5735-0.2469 0.8748-0.3437-0.256 0.1002-0.4865 0.2362-0.7185 0.375-0.00741 0.0044-0.023866-0.0045-0.03125 0-0.031933 0.0193-0.062293 0.04251-0.09375 0.0625-0.1204 0.0767-0.23102 0.16351-0.34375 0.25-0.10617 0.0808-0.21328 0.16111-0.3125 0.25-0.1779 0.1614-0.3474 0.3453-0.5 0.5312-0.1075 0.1303-0.2183 0.2653-0.3124 0.4063-0.0251 0.0383-0.0385 0.0858-0.0626 0.125-0.0647 0.103-0.1302 0.2045-0.1874 0.3124-0.1011 0.1948-0.2057 0.4158-0.2813 0.625-0.008 0.0219-0.0236 0.0406-0.0313 0.0626-0.0318 0.0919-0.0358 0.1868-0.0624 0.2812-0.0304 0.1066-0.0704 0.203-0.0938 0.3125-0.0729 0.3415-0.125 0.6985-0.125 1.0625v2 68 2c0 2.7818 2.2182 5 5 5h2 68 2c2.7818 0 5-2.2182 5-5v-2-68-2c0-0.364-0.052-0.721-0.125-1.0625-0.044-0.2069-0.088-0.3977-0.156-0.5937-0.008-0.022-0.024-0.0407-0.031-0.0626-0.063-0.1737-0.139-0.3674-0.219-0.5312-0.042-0.0828-0.079-0.17-0.125-0.25-0.055-0.0972-0.127-0.1884-0.188-0.2812-0.094-0.141-0.205-0.276-0.312-0.4063-0.143-0.1745-0.303-0.347-0.469-0.5-0.011-0.0102-0.02-0.0211-0.031-0.0313-0.139-0.1255-0.285-0.2344-0.438-0.3437-0.102-0.0731-0.204-0.1534-0.312-0.2187-0.0074-0.0045-0.02384 0.0044-0.03125 0-0.23204-0.13873-0.46255-0.27478-0.71875-0.375 0.30153 0.0968 0.59646 0.20414 0.875 0.34375 0.55709 0.27922 1.0601 0.66569 1.5 1.0938 0.21997 0.21403 0.40937 0.44186 0.59375 0.6875s0.35541 0.50774 0.5 0.78125c0.14012 0.26505 0.27614 0.52473 0.375 0.8125 0.01041 0.03078 0.02133 0.06274 0.03125 0.09375 0.09046 0.27808 0.1388 0.5794 0.1875 0.875 0.053 0.318 0.094 0.634 0.094 0.969v2 68 2c0 3.324-2.676 6-6 6h-72z"/>
 </g>
 <g id="layer4">
  <rect id="rect3171" style="opacity:.15;filter:url(#filter3794);stroke:#fff;stroke-linecap:round;stroke-width:.5;fill:url(#linearGradient2885)" clip-path="url(#clipPath3613)" rx="12" ry="12" height="66" width="66" y="15" x="15"/>
 </g>
 <g id="layer3">
  <path id="path4188" style="opacity:.8;color:#000000;fill:url(#linearGradient4198)" d="m39.812 22.031a1.9844 1.9844 0 0 0 -1.781 1.969v2.0312h-2.0312a1.9844 1.9844 0 0 0 -1.969 1.969v2.0312h-7.0312c-2.7269 0-4.9688 2.2418-4.9688 4.9688v34c0 2.7269 2.2418 4.9688 4.9688 4.9688h42c2.7269 0 4.9688-2.2418 4.9688-4.9688v-34c0-2.7269-2.2418-4.9688-4.9688-4.9688h-7.0312v-2.0312a1.9844 1.9844 0 0 0 -1.969 -1.969h-2.0312v-2.0312a1.9844 1.9844 0 0 0 -1.969 -1.969h-16a1.9844 1.9844 0 0 0 -0.1875 0z"/>
  <path id="rect4162" style="color:#000000;fill:url(#linearGradient4182)" d="m40 24v4h-4v4h-9c-1.662 0-3 1.338-3 3v34c0 1.662 1.338 3 3 3h42c1.662 0 3-1.338 3-3v-34c0-1.662-1.338-3-3-3h-9v-4h-4v-4h-16z"/>
  <path id="rect4168" style="color:#000000" d="m130 24v4h-4v4h-9c-1.662 0-3 1.338-3 3v34c0 1.662 1.338 3 3 3h42c1.662 0 3-1.338 3-3v-34c0-1.662-1.338-3-3-3h-9v-4h-4v-4h-16z"/>
  <path id="path4200" style="opacity:.15;color:#000000" d="m40 22v2h16v-2h-16zm-4 4v2h4v-2h-4zm20 0v2h4v-2h-4zm-29 4c-1.662 0-3 1.338-3 3v2c0-1.662 1.338-3 3-3h9v-2h-9zm33 0v2h9c1.662 0 3 1.338 3 3v-2c0-1.662-1.338-3-3-3h-9z"/>
  <path id="path4209" style="opacity:.2;color:#000000;fill:url(#linearGradient4222)" d="m40 24v4h-4v4h-9c-1.662 0-3 1.338-3 3v34c0 1.662 1.338 3 3 3h42c1.662 0 3-1.338 3-3v-34c0-1.662-1.338-3-3-3h-9v-4h-4v-4h-16zm1.9688 1.9688h12.062v2.0312a1.975 1.975 0 0 0 1.969 1.969h2.0312v2.0312a1.975 1.975 0 0 0 1.969 1.969h9c0.60214 0 1.0312 0.42911 1.0312 1.0312v34c0 0.60214-0.42911 1.0312-1.0312 1.0312h-42c-0.60214 0-1.0312-0.42911-1.0312-1.0312v-34c0-0.60214 0.42911-1.0312 1.0312-1.0312h9a1.975 1.975 0 0 0 1.969 -1.969v-2.0312h2.0312a1.975 1.975 0 0 0 1.969 -1.969v-2.0312z"/>
  <rect id="rect4224" style="opacity:.2;color:#000000;fill:url(#radialGradient4232)" height="18" width="38" y="54" x="29"/>
  <rect id="rect4234" style="color:#000000;fill:url(#linearGradient4242)" height="7" width="1" y="61" x="34"/>
  <path id="path4276" style="opacity:.3;color:#000000" d="m40 23v1h16v-1h-16zm-4 4v1h4v-1h-4zm20 0v1h4v-1h-4zm-29 4c-1.662 0-3 1.338-3 3v1c0-1.662 1.338-3 3-3h9v-1h-9zm33 0v1h9c1.662 0 3 1.338 3 3v-1c0-1.662-1.338-3-3-3h-9z"/>
  <rect id="rect4282" style="color:#000000;fill:url(#linearGradient4298)" height="7" width="2" y="101" x="32"/>
  <rect id="rect4284" style="color:#000000;fill:url(#linearGradient4300)" height="7" width="2" y="101" x="36"/>
  <rect id="rect4286" style="color:#000000;fill:url(#linearGradient4302)" height="7" width="2" y="101" x="40"/>
  <rect id="rect4288" style="color:#000000;fill:url(#linearGradient4304)" height="7" width="2" y="101" x="44"/>
  <rect id="rect4290" style="color:#000000;fill:url(#linearGradient4306)" height="7" width="2" y="101" x="48"/>
  <rect id="rect4292" style="color:#000000;fill:url(#linearGradient4308)" height="7" width="2" y="101" x="52"/>
  <rect id="rect4294" style="color:#000000;fill:url(#linearGradient4310)" height="7" width="2" y="101" x="56"/>
  <rect id="rect4296" style="color:#000000;fill:url(#linearGradient4312)" height="7" width="2" y="101" x="60"/>
  <rect id="rect4314" style="color:#000000;fill:url(#linearGradient4316)" height="7" width="1" y="61" x="38"/>
  <rect id="rect4318" style="color:#000000;fill:url(#linearGradient4320)" height="7" width="1" y="61" x="42"/>
  <rect id="rect4322" style="color:#000000;fill:url(#linearGradient4324)" height="7" width="1" y="61" x="46"/>
  <rect id="rect4326" style="color:#000000;fill:url(#linearGradient4328)" height="7" width="1" y="61" x="50"/>
  <rect id="rect4330" style="color:#000000;fill:url(#linearGradient4332)" height="7" width="1" y="61" x="54"/>
  <rect id="rect4334" style="color:#000000;fill:url(#linearGradient4336)" height="7" width="1" y="61" x="58"/>
  <rect id="rect4338" style="color:#000000;fill:url(#linearGradient4340)" height="7" width="1" y="61" x="62"/>
  <path id="path3761" style="opacity:.1;fill-rule:evenodd" d="m53.844-38.969c0.000723-0.000084-0.09447 0.03137-0.09375 0.03125 0.000718-0.00012-0.09446 0.000155-0.09375 0 0.000711-0.000155-0.09445 0.03144-0.09375 0.03125 0.001-0.000262-0.126 0.03158-0.125 0.03125 0.001-0.000335-0.12598 0.06291-0.125 0.0625 0.000978-0.000408-0.1572 0.06298-0.15625 0.0625 0.000946-0.000478-0.12591 0.06305-0.125 0.0625 0.000908-0.000545-0.09462 0.09436-0.09375 0.09375 0.000866-0.00061-0.12582 0.06317-0.125 0.0625 0.00082-0.000671-0.09452 0.09448-0.09375 0.09375 0.000577-0.000547-0.06575 0.06523-0.09375 0.09375-0.0093 0.0095-0.03143 0.03145-0.03125 0.03125l-6 6.0625c0.000953-0.001-0.12585 0.15734-0.125 0.15625 0.000853-0.0011-0.0945 0.12616-0.09375 0.125 0.000746-0.0012-0.09438 0.15748-0.09375 0.15625 0.000632-0.0012-0.09426 0.18878-0.09375 0.1875 0.000513-0.0013-0.06289 0.15758-0.0625 0.15625 0.000389-0.0013-0.03151 0.18886-0.03125 0.1875 0.000261-0.0014-0.03138 0.18888-0.03125 0.1875 0.000131-0.0014 0 0.18888 0 0.1875 0-0.0014 0.000131 0.18888 0 0.1875-0.000131-0.0014 0.03151 0.18886 0.03125 0.1875-0.000261-0.0014 0.03164 0.18883 0.03125 0.1875-0.000389-0.0013 0.06301 0.15754 0.0625 0.15625-0.000513-0.0013 0.09438 0.18873 0.09375 0.1875-0.000632-0.0012 0.0945 0.15742 0.09375 0.15625-0.000746-0.0012 0.0946 0.12609 0.09375 0.125-0.000853-0.0011 0.12595 0.15725 0.125 0.15625l4.5 4.5625-4.5 4.5625c0.000953-0.001-0.12585 0.15734-0.125 0.15625 0.000853-0.0011-0.0945 0.12616-0.09375 0.125 0.000746-0.0012-0.09438 0.15748-0.09375 0.15625 0.000632-0.0012-0.09426 0.18878-0.09375 0.1875 0.000513-0.0013-0.06289 0.15758-0.0625 0.15625 0.000389-0.0013-0.03151 0.18886-0.03125 0.1875 0.000261-0.0014-0.03138 0.18888-0.03125 0.1875 0.000131-0.0014 0 0.18888 0 0.1875 0-0.0014 0.000131 0.18888 0 0.1875-0.000131-0.0014 0.03151 0.18886 0.03125 0.1875-0.000261-0.0014 0.03164 0.18883 0.03125 0.1875-0.000389-0.0013 0.06301 0.15754 0.0625 0.15625-0.000513-0.0013 0.09438 0.18873 0.09375 0.1875-0.000632-0.0012 0.0945 0.15742 0.09375 0.15625-0.000746-0.0012 0.0946 0.12609 0.09375 0.125-0.000853-0.0011 0.12595 0.15725 0.125 0.15625l6.0312 6.0938c-0.000987-0.001 0.12608 0.12593 0.125 0.125-0.0011-0.000927 0.15742 0.12582 0.15625 0.125-0.0012-0.000817 0.15749 0.09445 0.15625 0.09375-0.0012-0.000699 0.1888 0.09432 0.1875 0.09375-0.0013-0.000574 0.18885 0.06294 0.1875 0.0625-0.0014-0.000444 0.15764 0.06281 0.15625 0.0625-0.0014-0.00031 0.18892 0.03142 0.1875 0.03125-0.0014-0.000172 0.22018 0.000033 0.21875 0-0.0014-0.000033 0.18892-0.000106 0.1875 0-0.0014 0.000106 0.1889-0.03149 0.1875-0.03125-0.0014 0.000245 0.18887-0.03163 0.1875-0.03125-0.0014 0.000381 0.15758-0.06301 0.15625-0.0625-0.0013 0.000513 0.18877-0.06314 0.1875-0.0625-0.0013 0.000641 0.15746-0.09451 0.15625-0.09375-0.0012 0.000762 0.15737-0.12588 0.15625-0.125-0.0011 0.000876 0.15728-0.12598 0.15625-0.125l4.5938-4.5625 4.4062 4.5c-0.000508-0.000529 0.06303 0.063 0.0625 0.0625-0.000534-0.000503 0.09431 0.06298 0.09375 0.0625-0.000559-0.000476 0.06308 0.06295 0.0625 0.0625-0.000582-0.000447 0.09435 0.06292 0.09375 0.0625-0.000604-0.000417 0.06312 0.06289 0.0625 0.0625-0.000624-0.000386 0.09439 0.06285 0.09375 0.0625-0.000643-0.000354 0.09441 0.03157 0.09375 0.03125-0.00066-0.000321 0.09443 0.03154 0.09375 0.03125-0.000675-0.000288 0.06319 0.0315 0.0625 0.03125-0.000689-0.000253 0.09445 0.03147 0.09375 0.03125-0.0007-0.000218 0.09446 0.03143 0.09375 0.03125-0.000711-0.000183 0.12572 0.0314 0.125 0.03125-0.000719-0.000147 0.09448 0.03136 0.09375 0.03125-0.000725-0.00011 0.09448 0.000074 0.09375 0s0.09448 0.000037 0.09375 0c-0.000733-0.000037 0.09448 0 0.09375 0-0.000734 0 0.09448-0.000037 0.09375 0-0.000733 0.000037 0.09448-0.000074 0.09375 0s0.09448-0.00011 0.09375 0c-0.000725 0.00011 0.09447-0.0314 0.09375-0.03125-0.000719 0.000147 0.12571-0.03143 0.125-0.03125-0.000711 0.000183 0.09445-0.03147 0.09375-0.03125-0.0007 0.000218 0.09444-0.0315 0.09375-0.03125-0.000689 0.000253 0.06318-0.03154 0.0625-0.03125-0.000675 0.000288 0.09441-0.03157 0.09375-0.03125-0.00066 0.000321 0.09439-0.0316 0.09375-0.03125-0.000643 0.000354 0.09437-0.06289 0.09375-0.0625-0.000624 0.000386 0.0631-0.06292 0.0625-0.0625-0.000604 0.000417 0.09433-0.06295 0.09375-0.0625-0.000582 0.000447 0.06306-0.06298 0.0625-0.0625-0.000559 0.000476 0.09428-0.063 0.09375-0.0625-0.000534 0.000503 0.06301-0.06303 0.0625-0.0625l6.2188-6.2812c-0.000982 0.001 0.12588-0.15737 0.125-0.15625-0.000876 0.0011 0.12576-0.15746 0.125-0.15625-0.000762 0.0012 0.09439-0.15752 0.09375-0.15625-0.000641 0.0013 0.06301-0.18883 0.0625-0.1875-0.000513 0.0013 0.06288-0.15762 0.0625-0.15625-0.000381 0.0014 0.0315-0.1889 0.03125-0.1875-0.000245 0.0014 0.03136-0.18892 0.03125-0.1875-0.000106 0.0014-0.000033-0.18892 0-0.1875 0.000033 0.0014-0.000172-0.22016 0-0.21875 0.000172 0.0014-0.03156-0.18889-0.03125-0.1875 0.00031 0.0014-0.06294-0.1576-0.0625-0.15625 0.000444 0.0014-0.06307-0.1888-0.0625-0.1875 0.000574 0.0013-0.09445-0.18874-0.09375-0.1875 0.000699 0.0012-0.09457-0.15742-0.09375-0.15625 0.000817 0.0012-0.12593-0.15733-0.125-0.15625 0.000927 0.0011-0.12603-0.12599-0.125-0.125l-4.406-4.313 4.4062-4.3125c-0.001 0.000987 0.12593-0.12608 0.125-0.125-0.000927 0.0011 0.12582-0.15742 0.125-0.15625-0.000817 0.0012 0.09445-0.15749 0.09375-0.15625-0.000699 0.0012 0.09432-0.1888 0.09375-0.1875-0.000574 0.0013 0.06294-0.18885 0.0625-0.1875-0.000444 0.0014 0.06281-0.15764 0.0625-0.15625-0.00031 0.0014 0.03142-0.18892 0.03125-0.1875-0.000172 0.0014 0.000033-0.22018 0-0.21875-0.000033 0.0014-0.000106-0.18892 0-0.1875 0.000106 0.0014-0.0315-0.1889-0.03125-0.1875 0.000245 0.0014-0.03163-0.18887-0.03125-0.1875 0.000381 0.0014-0.06301-0.15758-0.0625-0.15625 0.000513 0.0013-0.06314-0.18877-0.0625-0.1875 0.000641 0.0013-0.09451-0.15746-0.09375-0.15625 0.000762 0.0012-0.12588-0.15737-0.125-0.15625 0.000876 0.0011-0.12598-0.15728-0.125-0.15625l-6.2188-6.2812c0.000508 0.000529-0.06303-0.063-0.0625-0.0625 0.000534 0.000503-0.09431-0.06298-0.09375-0.0625 0.000559 0.000476-0.06308-0.06295-0.0625-0.0625 0.000582 0.000447-0.09435-0.06292-0.09375-0.0625 0.000604 0.000417-0.06312-0.06289-0.0625-0.0625 0.000624 0.000386-0.09439-0.06285-0.09375-0.0625 0.000643 0.000354-0.09441-0.03157-0.09375-0.03125 0.00066 0.000321-0.09443-0.03154-0.09375-0.03125 0.000675 0.000288-0.06319-0.0315-0.0625-0.03125 0.000689 0.000253-0.09445-0.03147-0.09375-0.03125 0.0007 0.000218-0.09446-0.03143-0.09375-0.03125 0.000711 0.000183-0.12572-0.0314-0.125-0.03125 0.000719 0.000147-0.09448-0.03136-0.09375-0.03125 0.000725 0.00011-0.09448-0.000074-0.09375 0s-0.09448-0.000037-0.09375 0c0.000733 0.000037-0.09448 0-0.09375 0 0.000734 0-0.09448 0.000037-0.09375 0 0.000733-0.000037-0.09448 0.000074-0.09375 0s-0.09448 0.00011-0.09375 0c0.000725-0.00011-0.09447 0.0314-0.09375 0.03125 0.000719-0.000147-0.12571 0.03143-0.125 0.03125 0.000711-0.000183-0.09445 0.03147-0.09375 0.03125 0.0007-0.000218-0.09444 0.0315-0.09375 0.03125 0.000689-0.000253-0.06318 0.03154-0.0625 0.03125 0.000675-0.000288-0.09441 0.03157-0.09375 0.03125 0.00066-0.000321-0.09439 0.0316-0.09375 0.03125 0.000643-0.000354-0.09437 0.06289-0.09375 0.0625 0.000624-0.000386-0.0631 0.06292-0.0625 0.0625 0.000604-0.000417-0.09433 0.06295-0.09375 0.0625 0.000582-0.000447-0.06306 0.06298-0.0625 0.0625 0.000559-0.000476-0.09428 0.063-0.09375 0.0625 0.000534-0.000503-0.06301 0.06303-0.0625 0.0625l-4.4062 4.5-4.5625-4.5312c0.000171 0.000172-0.02075-0.0212-0.03125-0.03125-0.021-0.0201-0.06286-0.06283-0.0625-0.0625 0.000539 0.000491-0.06306-0.06296-0.0625-0.0625 0.000563 0.000463-0.06309-0.06294-0.0625-0.0625 0.000585 0.000435-0.09436-0.03166-0.09375-0.03125 0.000606 0.000405-0.09438-0.06287-0.09375-0.0625 0.000626 0.000374-0.06314-0.06284-0.0625-0.0625 0.000644 0.000342-0.09441-0.03156-0.09375-0.03125 0.00066 0.000309-0.09443-0.03153-0.09375-0.03125 0.000675 0.000276-0.09444-0.03149-0.09375-0.03125 0.000688 0.000242-0.09445-0.03146-0.09375-0.03125 0.000699 0.000207-0.09446-0.03142-0.09375-0.03125 0.000708 0.000172-0.09447-0.03139-0.09375-0.03125 0.000716 0.000136-0.09447-0.0001-0.09375 0 0.000722 0.0001-0.09448-0.03131-0.09375-0.03125 0.000726 0.000064-0.09448-0.000028-0.09375 0 0.000728 0.000028-0.09448 0.000009-0.09375 0a0.99658 0.99658 0 0 0 -0.0625 0c0.000726-0.000047-0.09447 0.000084-0.09375 0z" transform="translate(12,98)"/>
  <path id="path3757" style="opacity:.15;fill-rule:evenodd" d="m53.812-37.938a0.95278 0.95278 0 0 0 -0.46875 0.28125l-6.0312 6.0938a0.95278 0.95278 0 0 0 0 1.3125l5.188 5.25-5.1875 5.25a0.95278 0.95278 0 0 0 0 1.3125l6.0312 6.0938a0.95278 0.95278 0 0 0 1.3438 0.03125l5.2812-5.25 5.125 5.2188a0.95278 0.95278 0 0 0 1.375 0l6.22-6.281a0.95278 0.95278 0 0 0 -0.03125 -1.3438l-5.157-5.031 5.156-5.031a0.95278 0.95278 0 0 0 0.032 -1.344l-6.2188-6.2812a0.95278 0.95278 0 0 0 -1.375 0l-5.125 5.2188-5.2812-5.25a0.95278 0.95278 0 0 0 -0.875 -0.25z" transform="translate(12,98)"/>
  <path id="path3751" style="opacity:.3;fill-rule:evenodd" d="m60 78.906 6.023 6.094 5.931-5.906 5.838 5.906 6.208-6.281-5.838-5.719 5.838-5.719-6.208-6.281-5.838 5.906-5.931-5.906l-6.0232 6.0938 5.8378 5.9063-5.8378 5.9062z"/>
  <path id="path7165" style="fill:url(#linearGradient2927-4-6);fill-rule:evenodd" d="m60 77.906 6.023 6.094 5.931-5.906 5.838 5.906 6.208-6.281-5.838-5.719 5.838-5.719-6.208-6.281-5.838 5.906-5.931-5.906l-6.0232 6.0938 5.8378 5.9063-5.8378 5.9062z"/>
  <path id="path2970" style="opacity:.2;fill:#fff;fill-rule:evenodd" d="m66.031 60-6.0312 6.0938 1 1l5.031-5.094 5.938 5.906 5.812-5.906 5.219 5.25 1-0.969-6.219-6.281-5.812 5.906-5.938-5.906zm-0.19483 11.976-5.8364 5.9304 1 1l4.844-4.906-0.008-2.024zm12.343 0.047-0.023 1.977l4.8438 4.75 1-1.0312-5.8209-5.6957z"/>
 </g>
</svg>
