<?xml version="1.0" encoding="UTF-8" standalone="no"?>
<!-- Created with Inkscape (http://www.inkscape.org/) -->
<svg id="svg2408" xmlns:rdf="http://www.w3.org/1999/02/22-rdf-syntax-ns#" xmlns="http://www.w3.org/2000/svg" height="96" width="96" version="1.0" xmlns:cc="http://creativecommons.org/ns#" xmlns:xlink="http://www.w3.org/1999/xlink" xmlns:dc="http://purl.org/dc/elements/1.1/">
 <defs id="defs2410">
  <linearGradient id="linearGradient3980">
   <stop id="stop3982" style="stop-color:#cacaca" offset="0"/>
   <stop id="stop3984" style="stop-color:#f3f3f3" offset="1"/>
  </linearGradient>
  <linearGradient id="linearGradient3849">
   <stop id="stop3851" offset="0"/>
   <stop id="stop3853" style="stop-opacity:0" offset="1"/>
  </linearGradient>
  <linearGradient id="ButtonShadow" y2="7.0165" gradientUnits="userSpaceOnUse" x2="45.448" gradientTransform="scale(1.0059 .99417)" y1="92.54" x1="45.448">
   <stop id="stop3750" offset="0"/>
   <stop id="stop3752" style="stop-opacity:.58824" offset="1"/>
  </linearGradient>
  <linearGradient id="linearGradient3737">
   <stop id="stop3739" style="stop-color:#fff" offset="0"/>
   <stop id="stop3741" style="stop-color:#fff;stop-opacity:0" offset="1"/>
  </linearGradient>
  <filter id="filter3174" color-interpolation-filters="sRGB">
   <feGaussianBlur id="feGaussianBlur3176" stdDeviation="1.71"/>
  </filter>
  <linearGradient id="linearGradient3188" y2="63.893" xlink:href="#linearGradient3737" gradientUnits="userSpaceOnUse" x2="36.357" y1="6" x1="36.357"/>
  <filter id="filter3794" height="1.384" width="1.384" color-interpolation-filters="sRGB" y="-.192" x="-.192">
   <feGaussianBlur id="feGaussianBlur3796" stdDeviation="5.28"/>
  </filter>
  <linearGradient id="linearGradient3613" y2="138.66" xlink:href="#linearGradient3737" gradientUnits="userSpaceOnUse" x2="48" y1="20.221" x1="48"/>
  <radialGradient id="radialGradient3619" xlink:href="#linearGradient3737" gradientUnits="userSpaceOnUse" cy="90.172" cx="48" gradientTransform="matrix(1.1573 0 0 .99591 -7.551 .19713)" r="42"/>
  <clipPath id="clipPath3613">
   <rect id="rect3615" style="fill:#fff" rx="6" ry="6" height="84" width="84" y="6" x="6"/>
  </clipPath>
  <linearGradient id="linearGradient3617" y2="5.9877" gradientUnits="userSpaceOnUse" x2="48" y1="90" x1="48">
   <stop id="stop3702" style="stop-color:#bcbcbc" offset="0"/>
   <stop id="stop3704" style="stop-color:#dfdfdf" offset="1"/>
  </linearGradient>
  <linearGradient id="ButtonShadow-0" y2="7.0165" gradientUnits="userSpaceOnUse" x2="45.448" gradientTransform="matrix(1.0059 0 0 .99417 100 0)" y1="92.54" x1="45.448">
   <stop id="stop3750-8" offset="0"/>
   <stop id="stop3752-5" style="stop-opacity:.58824" offset="1"/>
  </linearGradient>
  <linearGradient id="linearGradient3780" y2="90.239" xlink:href="#ButtonShadow-0" gradientUnits="userSpaceOnUse" x2="32.251" gradientTransform="matrix(1.0238 0 0 1.0119 -1.1429 -98.071)" y1="6.1317" x1="32.251"/>
  <linearGradient id="linearGradient3721" y2="90.239" xlink:href="#ButtonShadow-0" gradientUnits="userSpaceOnUse" x2="32.251" gradientTransform="translate(0,-97)" y1="6.1317" x1="32.251"/>
  <linearGradient id="linearGradient3826" y2="13" gradientUnits="userSpaceOnUse" x2="47" gradientTransform="matrix(1.0059 0 0 .99417 100 0)" y1="9" x1="47">
   <stop id="stop2996" offset="0"/>
   <stop id="stop2998" style="stop-opacity:.34884" offset="1"/>
  </linearGradient>
  <linearGradient id="linearGradient3834" y2="88" xlink:href="#linearGradient3980" gradientUnits="userSpaceOnUse" x2="48" gradientTransform="translate(2)" y1="76" x1="48"/>
  <linearGradient id="linearGradient4013" y2="20" xlink:href="#linearGradient3980" gradientUnits="userSpaceOnUse" x2="-76" gradientTransform="translate(160)" y1="20" x1="-84"/>
  <linearGradient id="linearGradient4015" y2="80" xlink:href="#linearGradient3849" gradientUnits="userSpaceOnUse" x2="27" gradientTransform="matrix(0,-1,1,0,-60,100)" y1="80" x1="16"/>
  <linearGradient id="linearGradient4054" y2="96" xlink:href="#linearGradient3849" gradientUnits="userSpaceOnUse" x2="48" gradientTransform="matrix(1,0,0,-1,2,164)" y1="76" x1="48"/>
  <linearGradient id="linearGradient4083" y2="82" gradientUnits="userSpaceOnUse" x2="45" gradientTransform="matrix(.66667 0 0 .66667 18 26.667)" y1="86" x1="45">
   <stop id="stop3887" style="stop-color:#818181" offset="0"/>
   <stop id="stop3889" style="stop-color:#fdfdfd" offset="1"/>
  </linearGradient>
  <linearGradient id="linearGradient4087" y2="80" xlink:href="#linearGradient3849" gradientUnits="userSpaceOnUse" x2="27" gradientTransform="matrix(0,-1,1,0,-60,101)" y1="80" x1="16"/>
  <linearGradient id="linearGradient4090" y2="20" xlink:href="#linearGradient3980" gradientUnits="userSpaceOnUse" x2="-76" gradientTransform="translate(161)" y1="20" x1="-84"/>
  <linearGradient id="linearGradient4108" y2="76.068" gradientUnits="userSpaceOnUse" x2="41" y1="15.992" x1="41">
   <stop id="stop3467" style="stop-color:#c8c8c8" offset="0"/>
   <stop id="stop3469" style="stop-color:#fdfdfd" offset="1"/>
  </linearGradient>
  <linearGradient id="linearGradient2675" y2="69.688" gradientUnits="userSpaceOnUse" x2="65.156" y1="16.125" x1="65.156">
   <stop id="stop3739-8" style="stop-color:#fff" offset="0"/>
   <stop id="stop3741-1" style="stop-color:#fff;stop-opacity:0" offset="1"/>
  </linearGradient>
  <linearGradient id="linearGradient2935" y2="64.188" gradientUnits="userSpaceOnUse" x2="142.47" gradientTransform="translate(-80)" y1="16.125" x1="142.47">
   <stop id="stop3689" style="stop-color:#fff" offset="0"/>
   <stop id="stop3691" style="stop-color:#fff;stop-opacity:0" offset="1"/>
  </linearGradient>
  <radialGradient id="radialGradient4159" gradientUnits="userSpaceOnUse" cy="69.839" cx="48" gradientTransform="matrix(1.4062 -8.9961e-8 7.5993e-8 1.1879 -19.5 -11.962)" r="32">
   <stop id="stop3226" style="stop-color:#4f445a" offset="0"/>
   <stop id="stop3228" offset="1"/>
  </radialGradient>
 </defs>
 <metadata id="metadata2413">
  <rdf:RDF>
   <cc:Work rdf:about="">
    <dc:format>image/svg+xml</dc:format>
    <dc:type rdf:resource="http://purl.org/dc/dcmitype/StillImage"/>
    <dc:title/>
   </cc:Work>
  </rdf:RDF>
 </metadata>
 <g id="layer2" style="display:none">
  <rect id="rect3745" style="opacity:.9;filter:url(#filter3174);fill:url(#ButtonShadow)" rx="6" ry="6" height="85" width="86" y="7" x="5"/>
 </g>
 <g id="layer3">
  <path id="path3786" style="opacity:0.08;fill:url(#linearGradient3780)" d="m12-95.031c-5.5111 0-10.031 4.5202-10.031 10.031v71c0 5.5111 4.5202 10.031 10.031 10.031h72c5.5111 0 10.031-4.5202 10.031-10.031v-71c0-5.5111-4.5202-10.031-10.031-10.031h-72z" transform="scale(1,-1)"/>
  <path id="path3778" style="opacity:.1;fill:url(#linearGradient3780)" d="m12-94.031c-4.9716 0-9.0312 4.0596-9.0312 9.0312v71c0 4.9716 4.0596 9.0312 9.0312 9.0312h72c4.9716 0 9.0312-4.0596 9.0312-9.0312v-71c0-4.9716-4.0596-9.0312-9.0312-9.0312h-72z" transform="scale(1,-1)"/>
  <path id="path3770" style="opacity:.2;fill:url(#linearGradient3780)" d="m12-93c-4.4091 0-8 3.5909-8 8v71c0 4.4091 3.5909 8 8 8h72c4.4091 0 8-3.5909 8-8v-71c0-4.4091-3.5909-8-8-8h-72z" transform="scale(1,-1)"/>
  <rect id="rect3723" style="opacity:.3;fill:url(#linearGradient3780)" transform="scale(1,-1)" rx="7" ry="7" height="85" width="86" y="-92" x="5"/>
  <rect id="rect3716" style="opacity:.45;fill:url(#linearGradient3721)" transform="scale(1,-1)" rx="6" ry="6" height="84" width="84" y="-91" x="6"/>
 </g>
 <g id="layer1">
  <rect id="rect2419" style="fill:url(#linearGradient3617)" rx="6" ry="6" height="84" width="84" y="6" x="6"/>
  <path id="rect3728" style="opacity:.5;fill:url(#linearGradient3188)" d="m12 6c-3.324 0-6 2.676-6 6v2 68 2c0 0.33472 0.04135 0.6507 0.09375 0.96875 0.0487 0.2956 0.09704 0.59692 0.1875 0.875 0.00988 0.03038 0.020892 0.0636 0.03125 0.09375 0.098865 0.28777 0.23488 0.54745 0.375 0.8125 0.14459 0.27351 0.31562 0.53562 0.5 0.78125 0.18438 0.24564 0.37378 0.47347 0.59375 0.6875 0.43995 0.42806 0.94291 0.81453 1.5 1.0938 0.27854 0.13961 0.57347 0.24695 0.875 0.34375-0.2562-0.10022-0.48671-0.23627-0.71875-0.375-0.00741-0.0044-0.023866 0.0045-0.03125 0-0.031933-0.0193-0.062293-0.04251-0.09375-0.0625-0.1204-0.0767-0.23102-0.16351-0.34375-0.25-0.10617-0.0808-0.21328-0.16111-0.3125-0.25-0.1778-0.162-0.3473-0.346-0.4999-0.531-0.1075-0.131-0.2183-0.266-0.3124-0.407-0.0251-0.038-0.0385-0.086-0.0626-0.125-0.0647-0.103-0.1302-0.204-0.1874-0.312-0.1011-0.195-0.2057-0.416-0.2813-0.625-0.008-0.022-0.0236-0.041-0.0313-0.063-0.0318-0.092-0.0358-0.187-0.0624-0.281-0.0304-0.107-0.0704-0.203-0.0938-0.313-0.0729-0.341-0.125-0.698-0.125-1.062v-2-68-2c0-2.782 2.2182-5 5-5h2 68 2c2.7818 0 5 2.2182 5 5v2 68 2c0 0.3643-0.05212 0.72099-0.125 1.0625-0.04415 0.20689-0.08838 0.39766-0.15625 0.59375-0.0077 0.02195-0.0233 0.04069-0.03125 0.0625-0.06274 0.17374-0.13838 0.36745-0.21875 0.53125-0.04158 0.0828-0.07904 0.16995-0.125 0.25-0.0546 0.09721-0.12677 0.18835-0.1875 0.28125-0.09411 0.14096-0.20492 0.276-0.3125 0.40625-0.14317 0.17445-0.30314 0.347-0.46875 0.5-0.01117 0.0102-0.01998 0.02115-0.03125 0.03125-0.13839 0.12556-0.28509 0.23444-0.4375 0.34375-0.10257 0.07315-0.20432 0.15336-0.3125 0.21875-0.0074 0.0045-0.02384-0.0044-0.03125 0-0.23204 0.13873-0.46255 0.27478-0.71875 0.375 0.30153-0.0968 0.59646-0.20414 0.875-0.34375 0.55709-0.27922 1.0601-0.66569 1.5-1.0938 0.21997-0.21403 0.40937-0.44186 0.59375-0.6875s0.35541-0.50774 0.5-0.78125c0.14012-0.26505 0.27614-0.52473 0.375-0.8125 0.01041-0.03078 0.02133-0.06274 0.03125-0.09375 0.09046-0.27808 0.1388-0.5794 0.1875-0.875 0.053-0.318 0.094-0.634 0.094-0.969v-2-68-2c0-3.324-2.676-6-6-6h-72z"/>
  <path id="path3615" style="opacity:.2;fill:url(#radialGradient3619)" d="m12 90c-3.324 0-6-2.676-6-6v-2-68-2c0-0.33472 0.04135-0.6507 0.09375-0.96875 0.0487-0.2956 0.09704-0.59692 0.1875-0.875 0.0099-0.03 0.0209-0.063 0.0313-0.094 0.0989-0.2873 0.2349-0.547 0.375-0.812 0.1446-0.2735 0.3156-0.5356 0.5-0.7812 0.1844-0.2457 0.3738-0.4735 0.5937-0.6876 0.44-0.428 0.943-0.8145 1.5-1.0937 0.2786-0.1396 0.5735-0.2469 0.8748-0.3437-0.256 0.1002-0.4865 0.2362-0.7185 0.375-0.00741 0.0044-0.023866-0.0045-0.03125 0-0.031933 0.0193-0.062293 0.04251-0.09375 0.0625-0.1204 0.0767-0.23102 0.16351-0.34375 0.25-0.10617 0.0808-0.21328 0.16111-0.3125 0.25-0.1779 0.1614-0.3474 0.3453-0.5 0.5312-0.1075 0.1303-0.2183 0.2653-0.3124 0.4063-0.0251 0.0383-0.0385 0.0858-0.0626 0.125-0.0647 0.103-0.1302 0.2045-0.1874 0.3124-0.1011 0.1948-0.2057 0.4158-0.2813 0.625-0.008 0.0219-0.0236 0.0406-0.0313 0.0626-0.0318 0.0919-0.0358 0.1868-0.0624 0.2812-0.0304 0.1066-0.0704 0.203-0.0938 0.3125-0.0729 0.3415-0.125 0.6985-0.125 1.0625v2 68 2c0 2.7818 2.2182 5 5 5h2 68 2c2.7818 0 5-2.2182 5-5v-2-68-2c0-0.364-0.052-0.721-0.125-1.0625-0.044-0.2069-0.088-0.3977-0.156-0.5937-0.008-0.022-0.024-0.0407-0.031-0.0626-0.063-0.1737-0.139-0.3674-0.219-0.5312-0.042-0.0828-0.079-0.17-0.125-0.25-0.055-0.0972-0.127-0.1884-0.188-0.2812-0.094-0.141-0.205-0.276-0.312-0.4063-0.143-0.1745-0.303-0.347-0.469-0.5-0.011-0.0102-0.02-0.0211-0.031-0.0313-0.139-0.1255-0.285-0.2344-0.438-0.3437-0.102-0.0731-0.204-0.1534-0.312-0.2187-0.0074-0.0045-0.02384 0.0044-0.03125 0-0.23204-0.13873-0.46255-0.27478-0.71875-0.375 0.30153 0.0968 0.59646 0.20414 0.875 0.34375 0.55709 0.27922 1.0601 0.66569 1.5 1.0938 0.21997 0.21403 0.40937 0.44186 0.59375 0.6875s0.35541 0.50774 0.5 0.78125c0.14012 0.26505 0.27614 0.52473 0.375 0.8125 0.01041 0.03078 0.02133 0.06274 0.03125 0.09375 0.09046 0.27808 0.1388 0.5794 0.1875 0.875 0.053 0.318 0.094 0.634 0.094 0.969v2 68 2c0 3.324-2.676 6-6 6h-72z"/>
 </g>
 <g id="layer5">
  <rect id="rect3171" style="opacity:.1;filter:url(#filter3794);stroke:#fff;stroke-linecap:round;stroke-width:.5;fill:url(#linearGradient3613)" clip-path="url(#clipPath3613)" rx="12" ry="12" height="66" width="66" y="15" x="15"/>
 </g>
 <g id="layer4">
  <path id="path4106" style="color:#000000;fill:url(#linearGradient4108)" d="m18 14.156c-2.1046 0-3.8438 1.7391-3.8438 3.8438v54c0 2.1046 1.7391 3.8438 3.8438 3.8438h60c2.1046 0 3.8438-1.7391 3.8438-3.8438v-54c0-2.1046-1.7391-3.8438-3.8438-3.8438h-60z"/>
  <rect id="rect3664" style="color:#000000;fill:url(#radialGradient4159)" rx="2" ry="2" height="58" width="64" y="16" x="16"/>
  <path id="path3664" style="opacity:.7;fill:url(#linearGradient2935);fill-rule:evenodd" d="m47.656 16.125 20 57.875h10.344c0.86562 0 1.5954-0.54598 1.875-1.3125v-55.375c-0.201-0.552-0.636-0.987-1.187-1.188h-31.031z"/>
  <path id="rect3721" style="opacity:.2;color:#000000" d="m18 16c-1.108 0-2 0.892-2 2v54c0 1.108 0.892 2 2 2h60c1.108 0 2-0.892 2-2v-54c0-1.108-0.892-2-2-2h-60zm0 2h60v54h-60v-54z"/>
  <path id="path2669" style="opacity:.5;fill:url(#linearGradient2675);fill-rule:evenodd" d="m47.656 16.125 20 57.875h1l-20-57.875h-1z"/>
  <path id="rect3708" style="opacity:.4;color:#000000" d="m18 16c-1.108 0-2 0.892-2 2v54c0 1.108 0.892 2 2 2h60c1.108 0 2-0.892 2-2v-54c0-1.108-0.892-2-2-2h-60zm0 1.0938h60c0.52703 0 0.90625 0.37922 0.90625 0.90625v54c0 0.52703-0.37922 0.90625-0.90625 0.90625h-60c-0.52703 0-0.90625-0.37922-0.90625-0.90625v-54c0-0.52703 0.37922-0.90625 0.90625-0.90625z"/>
 </g>
 <g id="layer6">
  <rect id="rect3666" style="color:#000000;fill:url(#linearGradient3834)" rx="3" ry="3" height="12" width="20" y="76" x="38"/>
  <g id="text3772" style="fill:#999" transform="matrix(.94974 0 0 .81960 .59139 3.1145)">
   <path id="path3782" d="m16.777 10.845h-0.61693v-2.9572h1.695v0.51377h-1.0781v0.76256h1.0033v0.51175h-1.0033v1.1691"/>
   <path id="path3784" d="m19.698 10.845-0.11934-0.30745h-0.0182c-0.0445 0.06068-0.089 0.11327-0.1335 0.15777-0.0445 0.04315-0.09305 0.07889-0.14564 0.1072-0.05259 0.02832-0.11192 0.04922-0.178 0.0627-0.06473 0.01348-0.14024 0.02023-0.22654 0.02023-0.0917 0-0.17665-0.01416-0.25486-0.04248-0.07821-0.02967-0.14631-0.07349-0.20429-0.13148-0.05664-0.05933-0.10114-0.1335-0.1335-0.2225-0.03236-0.09035-0.04854-0.19688-0.04854-0.31959 0-0.24003 0.07686-0.41668 0.23059-0.52995 0.15373-0.11462 0.38364-0.178 0.68974-0.19014l0.36004-0.012136v-0.16991c-0.000002-0.093043-0.02697-0.16182-0.08091-0.20632-0.05394-0.044498-0.12946-0.066748-0.22654-0.06675-0.09709 0.0000018-0.19216 0.014161-0.2852 0.042477-0.0917 0.02832-0.18407 0.066077-0.27711 0.11327l-0.201-0.4096c0.11327-0.063376 0.23868-0.11327 0.37622-0.14968 0.13754-0.036407 0.28183-0.054611 0.43286-0.054613 0.28183 0.0000023 0.49758 0.066078 0.64727 0.19823 0.15103 0.13215 0.22654 0.33308 0.22654 0.60277v1.5069h-0.43084m-0.18204-1.0478-0.20429 0.00809c-0.08226 0.0027-0.1517 0.013486-0.20834 0.032363-0.05664 0.01888-0.10248 0.044501-0.13754 0.076863-0.03371 0.031016-0.05866 0.068773-0.07484 0.11327-0.01483 0.04315-0.02225 0.0917-0.02225 0.14564-0.000001 0.09439 0.02292 0.16182 0.06877 0.20227 0.04585 0.03911 0.10585 0.05866 0.18002 0.05866 0.05663 0 0.10923-0.0094 0.15777-0.02832 0.04854-0.02023 0.09035-0.04922 0.12541-0.08698 0.03641-0.0391 0.06472-0.0863 0.08495-0.14159 0.02023-0.05663 0.03034-0.12136 0.03034-0.19418v-0.18609"/>
   <path id="path3787" d="m21.678 8.9796c-0.10923 0.0000018-0.20025 0.038433-0.27307 0.11529-0.07147 0.076865-0.1126 0.19755-0.12339 0.36207h0.78684c-0.0014-0.068771-0.01011-0.13215-0.0263-0.19014-0.01618-0.057983-0.04046-0.10788-0.07282-0.14968-0.03237-0.043149-0.07282-0.076861-0.12136-0.10114-0.04855-0.024271-0.10518-0.036407-0.16991-0.036409m0.07889 1.9054c-0.16182 0-0.31082-0.0236-0.44702-0.0708s-0.25351-0.11799-0.35195-0.21238c-0.09844-0.09574-0.1753-0.21576-0.23059-0.36004-0.05394-0.14563-0.08091-0.31622-0.08091-0.51175-0.000001-0.19822 0.02495-0.3715 0.07484-0.51984 0.04989-0.14833 0.11934-0.27172 0.20834-0.37016 0.09035-0.099785 0.19822-0.17463 0.32363-0.22452 0.12676-0.049891 0.267-0.074838 0.42072-0.07484 0.14968 0.0000023 0.28453 0.022926 0.40454 0.068772 0.12136 0.044502 0.22384 0.11058 0.30745 0.19823 0.08495 0.087653 0.14968 0.19553 0.19418 0.32363 0.04585 0.12676 0.06877 0.27239 0.06877 0.43691v0.29936h-1.3795c0.0027 0.086303 0.01618 0.16451 0.04045 0.23463 0.02562 0.06877 0.06068 0.12743 0.10518 0.17598 0.04585 0.0472 0.10046 0.08361 0.16384 0.10923 0.06472 0.02562 0.13822 0.03843 0.22048 0.03843 0.06877 0 0.1335-0.0034 0.19418-0.01011 0.06203-0.0081 0.12204-0.01955 0.18002-0.03439 0.05798-0.01483 0.11529-0.03304 0.17193-0.05461 0.05663-0.02292 0.11462-0.04922 0.17395-0.07889v0.47736c-0.05394 0.02832-0.10855 0.05259-0.16384 0.07282-0.05394 0.01888-0.11125 0.03506-0.17193 0.04854-0.06068 0.01349-0.12608 0.02292-0.1962 0.02832-0.07012 0.0067-0.14698 0.01011-0.23059 0.01011"/>
   <path id="path3789" d="m25.137 10.845h-0.61693v-1.3208c-0.000002-0.16316-0.02495-0.2852-0.07484-0.36611-0.04855-0.082255-0.12676-0.12338-0.23463-0.12339-0.08091 0.0000018-0.14833 0.016184-0.20227 0.048545-0.05394 0.032365-0.09709 0.080236-0.12945 0.14361-0.03102 0.06338-0.05327 0.14159-0.06675 0.23463-0.01348 0.093046-0.02023 0.19958-0.02023 0.31959v1.0639h-0.61693v-2.2614h0.47129l0.08293 0.28925h0.03439c0.03236-0.057982 0.07147-0.10788 0.11732-0.14968 0.04719-0.0418 0.09844-0.076187 0.15373-0.10316 0.05529-0.026967 0.11394-0.04652 0.17598-0.058659 0.06203-0.013482 0.12541-0.020225 0.19014-0.020227 0.11057 0.0000023 0.21103 0.016184 0.30138 0.048545 0.09035 0.031017 0.16788 0.080236 0.23261 0.14766 0.06472 0.067426 0.11462 0.15373 0.14968 0.25891 0.03506 0.10383 0.05259 0.22857 0.05259 0.3742v1.4746"/>
   <path id="path3791" d="m27.223 10.845h-1.6627v-0.36409l0.92438-1.426h-0.86168v-0.47129h1.5615v0.4005l-0.89404 1.3896h0.93247v0.47129"/>
   <path id="path3793" d="m28.978 10.845-0.11934-0.30745h-0.0182c-0.0445 0.06068-0.089 0.11327-0.1335 0.15777-0.0445 0.04315-0.09305 0.07889-0.14564 0.1072-0.05259 0.02832-0.11192 0.04922-0.178 0.0627-0.06473 0.01348-0.14024 0.02023-0.22654 0.02023-0.0917 0-0.17665-0.01416-0.25486-0.04248-0.07821-0.02967-0.14631-0.07349-0.20429-0.13148-0.05664-0.05933-0.10114-0.1335-0.1335-0.2225-0.03236-0.09035-0.04854-0.19688-0.04854-0.31959 0-0.24003 0.07686-0.41668 0.23059-0.52995 0.15373-0.11462 0.38364-0.178 0.68974-0.19014l0.36004-0.012136v-0.16991c-0.000001-0.093043-0.02697-0.16182-0.08091-0.20632-0.05394-0.044498-0.12946-0.066748-0.22654-0.06675-0.09709 0.0000018-0.19216 0.014161-0.2852 0.042477-0.0917 0.02832-0.18407 0.066077-0.27711 0.11327l-0.201-0.4096c0.11327-0.063376 0.23868-0.11327 0.37622-0.14968 0.13754-0.036407 0.28183-0.054611 0.43286-0.054613 0.28183 0.0000023 0.49759 0.066078 0.64727 0.19823 0.15103 0.13215 0.22654 0.33308 0.22654 0.60277v1.5069h-0.43084m-0.182-1.0472-0.204 0.0081c-0.08226 0.0027-0.1517 0.013486-0.20834 0.032363-0.05664 0.01888-0.10248 0.044501-0.13754 0.076863-0.03371 0.031016-0.05866 0.068773-0.07484 0.11327-0.01483 0.04315-0.02225 0.0917-0.02225 0.14564-0.000001 0.09439 0.02292 0.16182 0.06877 0.20227 0.04585 0.03911 0.10586 0.05866 0.18002 0.05866 0.05663 0 0.10922-0.0094 0.15777-0.02832 0.04854-0.02023 0.09035-0.04922 0.12541-0.08698 0.03641-0.0391 0.06473-0.0863 0.08495-0.14159 0.02023-0.05663 0.03034-0.12136 0.03034-0.19418v-0.18609"/>
  </g>
  <path id="path3797" style="color:#000000;fill:#808080" d="m80 11a1 1 0 1 1 -2 0 1 1 0 1 1 2 0z" transform="translate(0,-20)"/>
  <path id="path3799" style="color:#000000;fill:#808080" d="m80 11a1 1 0 1 1 -2 0 1 1 0 1 1 2 0z" transform="translate(-4,-20)"/>
  <path id="path3801" style="color:#000000;fill:#808080" d="m80 11a1 1 0 1 1 -2 0 1 1 0 1 1 2 0z" transform="translate(-8,-20)"/>
  <path id="path3803" style="color:#000000;fill:#808080" d="m80 11a1 1 0 1 1 -2 0 1 1 0 1 1 2 0z" transform="translate(-12,-20)"/>
  <path id="path3805" style="color:#000000;fill:#808080" d="m80 11a1 1 0 1 1 -2 0 1 1 0 1 1 2 0z" transform="translate(-2,-22)"/>
  <path id="path3807" style="color:#000000;fill:#808080" d="m80 11a1 1 0 1 1 -2 0 1 1 0 1 1 2 0z" transform="translate(-6,-22)"/>
  <path id="path3809" style="color:#000000;fill:#808080" d="m80 11a1 1 0 1 1 -2 0 1 1 0 1 1 2 0z" transform="translate(-10,-22)"/>
  <rect id="rect3811" style="opacity:.4;color:#000000;fill:url(#linearGradient3826)" rx="2" ry="2" height="4" width="16" y="9" x="40"/>
  <rect id="rect3813" style="color:#000000;fill:#e6e6e6" rx="1" ry="1" height="2" width="14" y="10" x="41"/>
  <path id="rect3815" style="opacity:.6;color:#000000;fill:#fff" d="m42 10c-0.554 0-1 0.446-1 1 0 0.1879 0.06682 0.35014 0.15625 0.5 0.174-0.292 0.478-0.5 0.844-0.5h12c0.3661 0 0.66952 0.20801 0.84375 0.5 0.089-0.15 0.156-0.312 0.156-0.5 0-0.554-0.446-1-1-1h-12z"/>
  <rect id="rect3875" style="stroke-width:.5;stroke-opacity:.42308;color:#000000;stroke:#000;fill:url(#linearGradient4083)" rx=".66667" ry=".66667" height="4" width="8" y="80" x="44"/>
  <rect id="rect3672" style="color:#000000;fill:url(#linearGradient4090)" transform="matrix(0,1,1,0,0,0)" rx="2" ry="2" height="8" width="8" y="16" x="77"/>
  <path id="rect3965" style="opacity:.5;color:#000000;fill:url(#linearGradient4087)" d="m16 83c0 1.108 0.892 2 2 2h4c1.108 0 2-0.892 2-2v-4c0-1.108-0.892-2-2-2h-4c-1.108 0-2 0.892-2 2v4zm1 0v-4c0-0.56573 0.43427-1 1-1h4c0.56573 0 1 0.43427 1 1v4c0 0.56573-0.43427 1-1 1h-4c-0.56573 0-1-0.43427-1-1z"/>
  <path id="rect3972" style="color:#000000;fill:#fff" d="m18 78c-0.56573 0-1 0.43427-1 1v1c0-0.56573 0.43427-1 1-1h4c0.56573 0 1 0.43427 1 1v-1c0-0.56573-0.43427-1-1-1h-4z"/>
  <g id="g4005" transform="translate(10,1)">
   <rect id="rect4007" style="color:#000000;fill:url(#linearGradient4013)" transform="matrix(0,1,1,0,0,0)" rx="2" ry="2" height="8" width="8" y="16" x="76"/>
   <path id="path4009" style="opacity:.5;color:#000000;fill:url(#linearGradient4015)" d="m16 82c0 1.108 0.892 2 2 2h4c1.108 0 2-0.892 2-2v-4c0-1.108-0.892-2-2-2h-4c-1.108 0-2 0.892-2 2v4zm1 0v-4c0-0.56573 0.43427-1 1-1h4c0.56573 0 1 0.43427 1 1v4c0 0.56573-0.43427 1-1 1h-4c-0.56573 0-1-0.43427-1-1z"/>
   <path id="path4011" style="color:#000000;fill:#fff" d="m18 77c-0.56573 0-1 0.43427-1 1v1c0-0.56573 0.43427-1 1-1h4c0.56573 0 1 0.43427 1 1v-1c0-0.56573-0.43427-1-1-1h-4z"/>
  </g>
  <g id="g4017" transform="translate(56,1)">
   <rect id="rect4019" style="color:#000000;fill:url(#linearGradient4013)" transform="matrix(0,1,1,0,0,0)" rx="2" ry="2" height="8" width="8" y="16" x="76"/>
   <path id="path4021" style="opacity:.5;color:#000000;fill:url(#linearGradient4015)" d="m16 82c0 1.108 0.892 2 2 2h4c1.108 0 2-0.892 2-2v-4c0-1.108-0.892-2-2-2h-4c-1.108 0-2 0.892-2 2v4zm1 0v-4c0-0.56573 0.43427-1 1-1h4c0.56573 0 1 0.43427 1 1v4c0 0.56573-0.43427 1-1 1h-4c-0.56573 0-1-0.43427-1-1z"/>
   <path id="path4023" style="color:#000000;fill:#fff" d="m18 77c-0.56573 0-1 0.43427-1 1v1c0-0.56573 0.43427-1 1-1h4c0.56573 0 1 0.43427 1 1v-1c0-0.56573-0.43427-1-1-1h-4z"/>
  </g>
  <g id="g4029" transform="translate(46,1)">
   <rect id="rect4031" style="color:#000000;fill:url(#linearGradient4013)" transform="matrix(0,1,1,0,0,0)" rx="2" ry="2" height="8" width="8" y="16" x="76"/>
   <path id="path4033" style="opacity:.5;color:#000000;fill:url(#linearGradient4015)" d="m16 82c0 1.108 0.892 2 2 2h4c1.108 0 2-0.892 2-2v-4c0-1.108-0.892-2-2-2h-4c-1.108 0-2 0.892-2 2v4zm1 0v-4c0-0.56573 0.43427-1 1-1h4c0.56573 0 1 0.43427 1 1v4c0 0.56573-0.43427 1-1 1h-4c-0.56573 0-1-0.43427-1-1z"/>
   <path id="path4035" style="color:#000000;fill:#fff" d="m18 77c-0.56573 0-1 0.43427-1 1v1c0-0.56573 0.43427-1 1-1h4c0.56573 0 1 0.43427 1 1v-1c0-0.56573-0.43427-1-1-1h-4z"/>
  </g>
  <path id="rect4041" style="opacity:.5;color:#000000;fill:url(#linearGradient4054)" d="m41 88c-1.662 0-3-1.338-3-3v-6c0-1.662 1.338-3 3-3h14c1.662 0 3 1.338 3 3v6c0 1.662-1.338 3-3 3h-14zm0-1h14c1.1322 0 2-0.86776 2-2v-6c0-1.1322-0.86776-2-2-2h-14c-1.1322 0-2 0.86776-2 2v6c0 1.1322 0.86776 2 2 2z"/>
  <path id="rect4069" style="color:#000000;fill:#fff" d="m41 77c-1.1322 0-2 0.86776-2 2v1c0-1.1322 0.86776-2 2-2h14c1.1322 0 2 0.86776 2 2v-1c0-1.1322-0.86776-2-2-2h-14z"/>
  <path id="path4092" style="opacity:.6;color:#000000;fill:#fff" d="m18 84c-0.56573 0-1-0.43427-1-1v-1c0 0.56573 0.43427 1 1 1h4c0.56573 0 1-0.43427 1-1v1c0 0.56573-0.43427 1-1 1h-4z"/>
  <path id="path4094" style="opacity:.6;color:#000000;fill:#fff" d="m28 84c-0.56573 0-1-0.43427-1-1v-1c0 0.56573 0.43427 1 1 1h4c0.56573 0 1-0.43427 1-1v1c0 0.56573-0.43427 1-1 1h-4z"/>
  <path id="path4096" style="opacity:.6;color:#000000;fill:#fff" d="m64 84c-0.56573 0-1-0.43427-1-1v-1c0 0.56573 0.43427 1 1 1h4c0.56573 0 1-0.43427 1-1v1c0 0.56573-0.43427 1-1 1h-4z"/>
  <path id="path4098" style="opacity:.6;color:#000000;fill:#fff" d="m74 84c-0.56573 0-1-0.43427-1-1v-1c0 0.56573 0.43427 1 1 1h4c0.56573 0 1-0.43427 1-1v1c0 0.56573-0.43427 1-1 1h-4z"/>
 </g>
</svg>
