<?xml version="1.0" encoding="UTF-8" standalone="no"?>
<!-- Created with Inkscape (http://www.inkscape.org/) -->
<svg id="svg2" xmlns:rdf="http://www.w3.org/1999/02/22-rdf-syntax-ns#" xmlns="http://www.w3.org/2000/svg" height="16" width="16" version="1.0" xmlns:cc="http://creativecommons.org/ns#" xmlns:xlink="http://www.w3.org/1999/xlink" xmlns:dc="http://purl.org/dc/elements/1.1/">
 <metadata id="metadata7">
  <rdf:RDF>
   <cc:Work rdf:about="">
    <dc:format>image/svg+xml</dc:format>
    <dc:type rdf:resource="http://purl.org/dc/dcmitype/StillImage"/>
    <dc:title/>
   </cc:Work>
  </rdf:RDF>
 </metadata>
 <g id="layer1" transform="translate(0,-6)">
  <path id="rect2932" style="fill:#bebebe" d="m1.5 0c-0.86824-0.03424-1.5763 0.77719-1.5 1.625 0.00371 2.9887-0.01296 6.9803 0 9.969 0.037895 0.846 0.86372 1.475 1.6875 1.406 1.661-0.002 2.9491-0.002 4.3125 0v1h-1.9375c-0.0208-0.002-0.0417-0.002-0.0625 0-0.0833 0.018-0.1608 0.062-0.2188 0.125l-1.6562 1.156c-0.2306 0.23-0.0441 0.707 0.2812 0.719h11.188c0.32532-0.01222 0.51188-0.48898 0.28125-0.71875l-1.656-1.156c-0.074-0.075-0.177-0.12-0.281-0.125h-1.938v-1c1.4602 0.00098 2.863 0.0068 4.6562 0 0.854-0.044 1.447-0.904 1.344-1.719-0.003-2.965 0.01-6.9409 0-9.906-0.031-0.85091-0.869-1.4524-1.688-1.375zm0.5 2h12v9h-12z" transform="translate(0,6)"/>
  <rect id="rect3126" style="opacity:.45;color:#000000;fill:#bebebe" height="9" width="12" y="8" x="2"/>
 </g>
</svg>
