<?xml version="1.0" encoding="UTF-8" standalone="no"?>
<!-- Created with Inkscape (http://www.inkscape.org/) -->
<svg id="svg2408" xmlns:rdf="http://www.w3.org/1999/02/22-rdf-syntax-ns#" xmlns="http://www.w3.org/2000/svg" height="96" width="96" version="1.0" xmlns:cc="http://creativecommons.org/ns#" xmlns:xlink="http://www.w3.org/1999/xlink" xmlns:dc="http://purl.org/dc/elements/1.1/">
 <defs id="defs2410">
  <linearGradient id="ButtonShadow" y2="7.0165" gradientUnits="userSpaceOnUse" x2="45.448" gradientTransform="scale(1.0059 .99417)" y1="92.54" x1="45.448">
   <stop id="stop3750" offset="0"/>
   <stop id="stop3752" style="stop-opacity:.58824" offset="1"/>
  </linearGradient>
  <linearGradient id="linearGradient3706" y2="5.9877" gradientUnits="userSpaceOnUse" x2="48" y1="90" x1="48">
   <stop id="stop3702" style="stop-color:#e6e6e6" offset="0"/>
   <stop id="stop3704" style="stop-color:#f5f5f5" offset="1"/>
  </linearGradient>
  <filter id="filter3174" color-interpolation-filters="sRGB">
   <feGaussianBlur id="feGaussianBlur3176" stdDeviation="1.71"/>
  </filter>
  <linearGradient id="ButtonShadow-0" y2="7.0165" gradientUnits="userSpaceOnUse" x2="45.448" gradientTransform="matrix(1.0059 0 0 .99417 100 0)" y1="92.54" x1="45.448">
   <stop id="stop3750-8" offset="0"/>
   <stop id="stop3752-5" style="stop-opacity:.58824" offset="1"/>
  </linearGradient>
  <linearGradient id="linearGradient3780" y2="90.239" xlink:href="#ButtonShadow-0" gradientUnits="userSpaceOnUse" x2="32.251" gradientTransform="matrix(1.0238 0 0 1.0119 -1.1429 -98.071)" y1="6.1317" x1="32.251"/>
  <linearGradient id="linearGradient3721" y2="90.239" xlink:href="#ButtonShadow-0" gradientUnits="userSpaceOnUse" x2="32.251" gradientTransform="translate(0,-97)" y1="6.1317" x1="32.251"/>
  <radialGradient id="radialGradient2886" gradientUnits="userSpaceOnUse" cy="90.172" cx="48" gradientTransform="matrix(1.1573 0 0 .99591 -7.551 .19713)" r="42">
   <stop id="stop3739-6" style="stop-color:#fff" offset="0"/>
   <stop id="stop3741-0" style="stop-color:#fff;stop-opacity:0" offset="1"/>
  </radialGradient>
  <linearGradient id="linearGradient3923" y2="63.893" gradientUnits="userSpaceOnUse" x2="36.357" y1="6" x1="36.357">
   <stop id="stop3739-9" style="stop-color:#fff" offset="0"/>
   <stop id="stop3741-3" style="stop-color:#fff;stop-opacity:0" offset="1"/>
  </linearGradient>
  <clipPath id="clipPath4187">
   <path id="path4189" style="fill:#bbb1bf" d="m48 102c-19.882 0-36 16.118-36 36s16.118 36 36 36 36-16.118 36-36-16.118-36-36-36zm0 24c6.6274 0 12 5.3726 12 12s-5.3726 12-12 12-12-5.3726-12-12 5.3726-12 12-12z"/>
  </clipPath>
  <filter id="filter4195" height="1.36" width="1.36" color-interpolation-filters="sRGB" y="-0.18" x="-0.18">
   <feGaussianBlur id="feGaussianBlur4197" stdDeviation="5.2159999"/>
  </filter>
  <clipPath id="clipPath4031">
   <path id="path4033" style="fill:#bbb1bf" d="m48 32c-19.882 0-36 16.118-36 36s16.118 36 36 36 36-16.118 36-36-16.118-36-36-36zm0 24c6.6274 0 12 5.3726 12 12s-5.3726 12-12 12-12-5.3726-12-12 5.3726-12 12-12z"/>
  </clipPath>
  <filter id="filter4035" height="1.3414" width="1.3807" color-interpolation-filters="sRGB" y="-.17070" x="-.19037">
   <feGaussianBlur id="feGaussianBlur4037" stdDeviation="4.9476562"/>
  </filter>
  <radialGradient id="radialGradient4012" gradientUnits="userSpaceOnUse" cy="61.922" cx="59.894" gradientTransform="matrix(1 0 0 .83754 0 10.06)" r="33.714">
   <stop id="stop3344" style="stop-opacity:0" offset="0"/>
   <stop id="stop3350" style="stop-opacity:0" offset="0.85"/>
   <stop id="stop3346" offset="1"/>
  </radialGradient>
  <linearGradient id="linearGradient4014" y2="61.922" gradientUnits="userSpaceOnUse" x2="93.608" y1="61.922" x1="26.18">
   <stop id="stop3332" style="stop-color:#fff;stop-opacity:.20312" offset="0"/>
   <stop id="stop3334" style="stop-color:#fff;stop-opacity:.67969" offset="1"/>
  </linearGradient>
  <linearGradient id="linearGradient4004" y2="61.922" gradientUnits="userSpaceOnUse" x2="94.568" y1="61.922" x1="25.22">
   <stop id="stop3364" style="stop-color:#4d4d4d" offset="0"/>
   <stop id="stop3366" style="stop-color:#fff" offset="1"/>
  </linearGradient>
  <clipPath id="clipPath3613">
   <rect id="rect3615" style="fill:#fff" rx="6" ry="6" height="84" width="84" y="6" x="6"/>
  </clipPath>
  <filter id="filter3794" height="1.384" width="1.384" color-interpolation-filters="sRGB" y="-.192" x="-.192">
   <feGaussianBlur id="feGaussianBlur3796" stdDeviation="5.28"/>
  </filter>
  <linearGradient id="linearGradient3868" y2="138.66" gradientUnits="userSpaceOnUse" x2="48" y1="20.221" x1="48">
   <stop id="stop3739-2" style="stop-color:#fff" offset="0"/>
   <stop id="stop3741-1" style="stop-color:#fff;stop-opacity:0" offset="1"/>
  </linearGradient>
 </defs>
 <metadata id="metadata2413">
  <rdf:RDF>
   <cc:Work rdf:about="">
    <dc:format>image/svg+xml</dc:format>
    <dc:type rdf:resource="http://purl.org/dc/dcmitype/StillImage"/>
    <dc:title/>
   </cc:Work>
  </rdf:RDF>
 </metadata>
 <g id="layer2" style="display:none">
  <rect id="rect3745" style="opacity:.9;filter:url(#filter3174);fill:url(#ButtonShadow)" rx="6" ry="6" height="85" width="86" y="7" x="5"/>
 </g>
 <g id="layer6">
  <path id="path3786" style="opacity:0.08;fill:url(#linearGradient3780)" d="m12-95.031c-5.5111 0-10.031 4.5202-10.031 10.031v71c0 5.5111 4.5202 10.031 10.031 10.031h72c5.5111 0 10.031-4.5202 10.031-10.031v-71c0-5.5111-4.5202-10.031-10.031-10.031h-72z" transform="scale(1,-1)"/>
  <path id="path3778" style="opacity:.1;fill:url(#linearGradient3780)" d="m12-94.031c-4.9716 0-9.0312 4.0596-9.0312 9.0312v71c0 4.9716 4.0596 9.0312 9.0312 9.0312h72c4.9716 0 9.0312-4.0596 9.0312-9.0312v-71c0-4.9716-4.0596-9.0312-9.0312-9.0312h-72z" transform="scale(1,-1)"/>
  <path id="path3770" style="opacity:.2;fill:url(#linearGradient3780)" d="m12-93c-4.4091 0-8 3.5909-8 8v71c0 4.4091 3.5909 8 8 8h72c4.4091 0 8-3.5909 8-8v-71c0-4.4091-3.5909-8-8-8h-72z" transform="scale(1,-1)"/>
  <rect id="rect3723" style="opacity:.3;fill:url(#linearGradient3780)" transform="scale(1,-1)" rx="7" ry="7" height="85" width="86" y="-92" x="5"/>
  <rect id="rect3716" style="opacity:.45;fill:url(#linearGradient3721)" transform="scale(1,-1)" rx="6" ry="6" height="84" width="84" y="-91" x="6"/>
 </g>
 <g id="layer1">
  <rect id="rect2419" style="fill:url(#linearGradient3706)" rx="6" ry="6" height="84" width="84" y="6" x="6"/>
  <path id="rect3728" style="opacity:.5;fill:url(#linearGradient3923)" d="m12 6c-3.324 0-6 2.676-6 6v2 68 2c0 0.33472 0.04135 0.6507 0.09375 0.96875 0.0487 0.2956 0.09704 0.59692 0.1875 0.875 0.0099 0.03038 0.02089 0.0636 0.03125 0.09375 0.09886 0.28777 0.23488 0.54745 0.375 0.8125 0.14459 0.27351 0.31562 0.53562 0.5 0.78125 0.18438 0.24564 0.37378 0.47347 0.59375 0.6875 0.43995 0.42806 0.94291 0.81453 1.5 1.0938 0.27854 0.13961 0.57347 0.24695 0.875 0.34375-0.2562-0.10022-0.48671-0.23627-0.71875-0.375-0.0074-0.0044-0.02387 0.0045-0.03125 0-0.03193-0.0193-0.06229-0.04251-0.09375-0.0625-0.1204-0.0767-0.23102-0.16351-0.34375-0.25-0.10617-0.0808-0.21328-0.16111-0.3125-0.25-0.1778-0.162-0.3473-0.346-0.4999-0.531-0.1075-0.131-0.2183-0.266-0.3124-0.407-0.0251-0.038-0.0385-0.086-0.0626-0.125-0.0647-0.103-0.1302-0.204-0.1874-0.312-0.1011-0.195-0.2057-0.416-0.2813-0.625-0.008-0.022-0.0236-0.041-0.0313-0.063-0.0318-0.092-0.0358-0.187-0.0624-0.281-0.0304-0.107-0.0704-0.203-0.0938-0.313-0.0729-0.341-0.125-0.698-0.125-1.062v-2-68-2c0-2.782 2.2182-5 5-5h2 68 2c2.7818 0 5 2.2182 5 5v2 68 2c0 0.3643-0.05212 0.72099-0.125 1.0625-0.04415 0.20689-0.08838 0.39766-0.15625 0.59375-0.0077 0.02195-0.0233 0.04069-0.03125 0.0625-0.06274 0.17374-0.13838 0.36745-0.21875 0.53125-0.04158 0.0828-0.07904 0.16995-0.125 0.25-0.0546 0.09721-0.12677 0.18835-0.1875 0.28125-0.09411 0.14096-0.20492 0.276-0.3125 0.40625-0.14317 0.17445-0.30314 0.347-0.46875 0.5-0.01117 0.0102-0.01998 0.02115-0.03125 0.03125-0.13839 0.12556-0.28509 0.23444-0.4375 0.34375-0.10257 0.07315-0.20432 0.15336-0.3125 0.21875-0.0074 0.0045-0.02384-0.0044-0.03125 0-0.23204 0.13873-0.46255 0.27478-0.71875 0.375 0.30153-0.0968 0.59646-0.20414 0.875-0.34375 0.55709-0.27922 1.0601-0.66569 1.5-1.0938 0.21997-0.21403 0.40937-0.44186 0.59375-0.6875s0.35541-0.50774 0.5-0.78125c0.14012-0.26505 0.27614-0.52473 0.375-0.8125 0.01041-0.03078 0.02133-0.06274 0.03125-0.09375 0.09046-0.27808 0.1388-0.5794 0.1875-0.875 0.053-0.318 0.094-0.634 0.094-0.969v-2-68-2c0-3.324-2.676-6-6-6h-72z"/>
  <path id="path3615" style="opacity:.4;fill:url(#radialGradient2886)" d="m12 90c-3.324 0-6-2.676-6-6v-2-68-2c0-0.33472 0.04135-0.6507 0.09375-0.96875 0.0487-0.2956 0.09704-0.59692 0.1875-0.875 0.0099-0.03 0.0209-0.063 0.0313-0.094 0.0989-0.2873 0.2349-0.547 0.375-0.812 0.1446-0.2735 0.3156-0.5356 0.5-0.7812 0.1844-0.2457 0.3738-0.4735 0.5937-0.6876 0.44-0.428 0.943-0.8145 1.5-1.0937 0.2786-0.1396 0.5735-0.2469 0.8748-0.3437-0.256 0.1002-0.4865 0.2362-0.7185 0.375-0.00741 0.0044-0.023866-0.0045-0.03125 0-0.031933 0.0193-0.062293 0.04251-0.09375 0.0625-0.1204 0.0767-0.23102 0.16351-0.34375 0.25-0.10617 0.0808-0.21328 0.16111-0.3125 0.25-0.1779 0.1614-0.3474 0.3453-0.5 0.5312-0.1075 0.1303-0.2183 0.2653-0.3124 0.4063-0.0251 0.0383-0.0385 0.0858-0.0626 0.125-0.0647 0.103-0.1302 0.2045-0.1874 0.3124-0.1011 0.1948-0.2057 0.4158-0.2813 0.625-0.008 0.0219-0.0236 0.0406-0.0313 0.0626-0.0318 0.0919-0.0358 0.1868-0.0624 0.2812-0.0304 0.1066-0.0704 0.203-0.0938 0.3125-0.0729 0.3415-0.125 0.6985-0.125 1.0625v2 68 2c0 2.7818 2.2182 5 5 5h2 68 2c2.7818 0 5-2.2182 5-5v-2-68-2c0-0.364-0.052-0.721-0.125-1.0625-0.044-0.2069-0.088-0.3977-0.156-0.5937-0.008-0.022-0.024-0.0407-0.031-0.0626-0.063-0.1737-0.139-0.3674-0.219-0.5312-0.042-0.0828-0.079-0.17-0.125-0.25-0.055-0.0972-0.127-0.1884-0.188-0.2812-0.094-0.141-0.205-0.276-0.312-0.4063-0.143-0.1745-0.303-0.347-0.469-0.5-0.011-0.0102-0.02-0.0211-0.031-0.0313-0.139-0.1255-0.285-0.2344-0.438-0.3437-0.102-0.0731-0.204-0.1534-0.312-0.2187-0.0074-0.0045-0.02384 0.0044-0.03125 0-0.23204-0.13873-0.46255-0.27478-0.71875-0.375 0.30153 0.0968 0.59646 0.20414 0.875 0.34375 0.55709 0.27922 1.0601 0.66569 1.5 1.0938 0.21997 0.21403 0.40937 0.44186 0.59375 0.6875s0.35541 0.50774 0.5 0.78125c0.14012 0.26505 0.27614 0.52473 0.375 0.8125 0.01041 0.03078 0.02133 0.06274 0.03125 0.09375 0.09046 0.27808 0.1388 0.5794 0.1875 0.875 0.053 0.318 0.094 0.634 0.094 0.969v2 68 2c0 3.324-2.676 6-6 6h-72z"/>
  <rect id="rect3654" style="fill:#f0f" rx="6" ry="6" height="84" width="84" y="6" x="-94"/>
  <rect id="rect3797" style="stroke-width:.5;color:#000000;stroke-dashoffset:8.6;stroke:#000;stroke-linecap:round;fill:#fff" height="16" width="16" y="8" x="112"/>
  <text id="text3799" y="11.969256" x="131.39261" xml:space="preserve" style="font-size:4px;line-height:125%;font-family:Liberation Sans;fill:#000000"><tspan id="tspan3801" y="11.969256" x="131.39261">Width: 2px</tspan><tspan id="tspan3803" y="16.969257" x="131.39261">Blur: 12</tspan><tspan id="tspan3807" y="21.969257" x="131.39261">Opacity: 60</tspan></text>
 </g>
 <g id="layer4">
  <rect id="rect3171" style="opacity:.5;filter:url(#filter3794);stroke:#fff;stroke-linecap:round;stroke-width:.5;fill:url(#linearGradient3868)" clip-path="url(#clipPath3613)" rx="12" ry="12" height="66" width="66" y="15" x="15"/>
 </g>
 <g id="layer3">
  <path id="path3736" style="opacity:.05;color:#000000" d="m48 31c-9.926 0-18 8.074-18 18s8.074 18 18 18 18-8.074 18-18-8.074-18-18-18zm0 10c4.4365 0 8 3.5635 8 8s-3.5635 8-8 8-8-3.5635-8-8 3.5635-8 8-8z"/>
  <path id="path3725" style="opacity:.3;color:#000000" d="m48 33c-8.8366 0-16 7.1634-16 16s7.1634 16 16 16 16-7.1634 16-16-7.1634-16-16-16zm0 6c5.5228 0 10 4.4772 10 10s-4.4772 10-10 10-10-4.4772-10-10 4.4772-10 10-10z"/>
  <path id="path3732" style="opacity:.1;color:#000000" d="m48 31.969c-9.3975 0-17.031 7.6337-17.031 17.031 0 9.3975 7.6337 17.031 17.031 17.031 9.3975 0 17.031-7.6337 17.031-17.031 0-9.3975-7.6337-17.031-17.031-17.031zm0 8.0625c4.9619 0 8.9688 4.0069 8.9688 8.9688s-4.0069 8.9688-8.9688 8.9688-8.9688-4.0069-8.9688-8.9688 4.0069-8.9688 8.9688-8.9688z"/>
  <path id="path3978" style="fill:#bbb1bf" d="m48 18.085c-16.522 0-29.915 13.394-29.915 29.915 0 16.522 13.394 29.915 29.915 29.915 16.522 0 29.915-13.394 29.915-29.915 0-16.522-13.393-29.915-29.915-29.915zm0 19.944c5.5073 0 9.9718 4.4645 9.9718 9.9718s-4.4645 9.9718-9.9718 9.9718-9.9718-4.4645-9.9718-9.9718 4.4645-9.9718 9.9718-9.9718z"/>
  <path id="path3992" style="opacity:.3;fill:#fff" d="m48 38.028c-5.5073 0-9.9718 4.4645-9.9718 9.9718s4.4645 9.9718 9.9718 9.9718 9.9718-4.4645 9.9718-9.9718-4.4645-9.9718-9.9718-9.9718zm0 5.8169c2.2947 0 4.1549 1.8602 4.1549 4.1549s-1.8602 4.1549-4.1549 4.1549-4.1549-1.8602-4.1549-4.1549 1.8602-4.1549 4.1549-4.1549z"/>
  <path id="path4002" style="opacity:.6;stroke:url(#linearGradient4004);stroke-linecap:round;stroke-width:6.5249;fill:none" d="m92.58 61.922a32.686 27.208 0 1 1 -65.371 0 32.686 27.208 0 1 1 65.371 0z" transform="matrix(0 .13983 -.16798 0 58.402 39.625)"/>
  <path id="path4010" style="opacity:.5;fill-rule:evenodd;stroke:url(#linearGradient4014);stroke-linecap:round;stroke-width:3.7776;fill:url(#radialGradient4012)" d="m92.58 61.922a32.686 27.208 0 1 1 -65.371 0 32.686 27.208 0 1 1 65.371 0z" transform="matrix(0 .24152 -.29014 0 65.966 33.534)"/>
  <path id="path4018" style="opacity:.8;filter:url(#filter4035);fill:#fff" d="m57.312 33.219-9.312 34.781 31.188-18c-4.774-8.269-12.653-14.31-21.876-16.781zm-9.312 34.781-31.188 18c4.7739 8.2686 12.653 14.31 21.875 16.781l9.313-34.78z" clip-path="url(#clipPath4031)" transform="matrix(.83099 0 0 .83099 8.1127 -8.507)"/>
  <g id="g4175" style="opacity:.6;filter:url(#filter4195)" transform="matrix(.83099 0 0 .83099 8.1127 -66.676)" clip-path="url(#clipPath4187)">
   <path id="path4039" style="fill:#7137c8" d="m60.947 57.784a20.708 18.814 0 0 1 -2.6155 2.9059l-14.643-13.304z" transform="matrix(1.5055 .86922 -.95673 1.6571 27.56 21.5)"/>
   <path id="path4041" style="fill:#0cf" d="m60.779 58.011a20.708 18.814 0 0 1 -3.384 3.4788l-13.706-14.104z" transform="matrix(1.6792 .44994 -.49524 1.8483 -1.8956 30.76)"/>
   <path id="path4043" style="fill:#fc0" d="m62.724 54.796a20.708 18.814 0 0 1 -2.2597 3.6221l-16.775-11.032z" transform="matrix(1.7384 0 -6.0266e-8 1.9135 -27.951 47.328)"/>
   <path id="path4045" style="fill:#f00" d="m61.623 56.793a20.708 18.814 0 0 1 -1.6993 2.2728l-16.235-11.68z" transform="matrix(1.6792 -.44994 .49524 1.8483 -48.831 70.075)"/>
   <path id="path4144" style="fill:#0f0" d="m63.123 53.883a20.708 18.814 0 0 1 -2.37 4.1619l-17.064-10.659z" transform="matrix(1.6792 .44994 -.49524 1.8483 -1.8956 30.76)"/>
   <path id="path4155" style="fill:#7137c8" d="m60.947 57.784a20.708 18.814 0 0 1 -2.6155 2.9059l-14.643-13.304z" transform="matrix(-1.5055 -.86922 .95673 -1.6571 68.44 254.5)"/>
   <path id="path4157" style="fill:#0cf" d="m60.779 58.011a20.708 18.814 0 0 1 -3.384 3.4788l-13.706-14.104z" transform="matrix(-1.6792 -.44994 .49524 -1.8483 97.896 245.24)"/>
   <path id="path4159" style="fill:#fc0" d="m62.724 54.796a20.708 18.814 0 0 1 -2.2597 3.6221l-16.775-11.032z" transform="matrix(-1.7384 0 6.0266e-8 -1.9135 123.95 228.67)"/>
   <path id="path4161" style="fill:#f00" d="m61.623 56.793a20.708 18.814 0 0 1 -1.6993 2.2728l-16.235-11.68z" transform="matrix(-1.6792 .44994 -.49524 -1.8483 144.83 205.92)"/>
   <path id="path4163" style="fill:#0f0" d="m63.123 53.883a20.708 18.814 0 0 1 -2.37 4.1619l-17.064-10.659z" transform="matrix(-1.6792 -.44994 .49524 -1.8483 97.896 245.24)"/>
  </g>
  <path id="path3986" style="opacity:.2" d="m48 35.951c-6.6546 0-12.049 5.3947-12.049 12.049 0 6.6546 5.3947 12.049 12.049 12.049 6.6546 0 12.049-5.3947 12.049-12.049 0-6.6546-5.3947-12.049-12.049-12.049zm0 2.0775c5.5073 0 9.9718 4.4645 9.9718 9.9718s-4.4645 9.9718-9.9718 9.9718-9.9718-4.4645-9.9718-9.9718 4.4645-9.9718 9.9718-9.9718z"/>
  <path id="path4199" style="opacity:.4;fill:#fff" d="m-52 18.085c-16.522 0-29.915 13.394-29.915 29.915 0 0.2801 0.01828 0.55273 0.02593 0.83099 0.443-16.135 13.647-29.085 29.889-29.085s29.446 12.95 29.89 29.085c0.0076-0.27825 0.02597-0.55089 0.02597-0.83099-0.001-16.522-13.394-29.915-29.916-29.915z"/>
  <path id="path3738" style="opacity:.6;color:#000000;fill:#fff" d="m18 48.5c-0.0028 0.16833 0 0.331 0 0.5 0 16.569 13.431 30 30 30s30-13.431 30-30c0-0.169 0.0028-0.33167 0-0.5-0.27 16.335-13.6 29.5-30 29.5s-29.73-13.165-30-29.5z"/>
  <path id="path3749" style="opacity:.05;color:#000000" d="m48 18c-16.569 0-30 13.431-30 30s13.431 30 30 30 30-13.431 30-30-13.431-30-30-30zm0 3c14.912 0 27 12.088 27 27s-12.088 27-27 27-27-12.088-27-27 12.088-27 27-27z"/>
  <path id="path3743" style="opacity:.1;color:#000000" d="m48 18c-16.569 0-30 13.431-30 30s13.431 30 30 30 30-13.431 30-30-13.431-30-30-30zm0 2.0312c15.469 0 27.969 12.5 27.969 27.969s-12.5 27.969-27.969 27.969-27.969-12.5-27.969-27.969 12.5-27.969 27.969-27.969z"/>
  <path id="path3781" style="opacity:.15;color:#000000" d="m48 18c-16.569 0-30 13.431-30 30s13.431 30 30 30 30-13.431 30-30-13.431-30-30-30zm0 1c16.016 0 29 12.984 29 29s-12.984 29-29 29-29-12.984-29-29 12.984-29 29-29z"/>
  <path id="path3753" style="opacity:.2;color:#000000" d="m48 18c-16.569 0-30 13.431-30 30 0 0.169-0.0028 0.33167 0 0.5 0.27-16.335 13.6-29.5 30-29.5s29.73 13.165 30 29.5c0.003-0.168 0-0.331 0-0.5 0-16.569-13.431-30-30-30z"/>
 </g>
</svg>
