<?xml version="1.0" encoding="UTF-8" standalone="no"?>
<!-- Created with Inkscape (http://www.inkscape.org/) -->
<svg id="svg2408" xmlns:rdf="http://www.w3.org/1999/02/22-rdf-syntax-ns#" xmlns="http://www.w3.org/2000/svg" height="96" width="96" version="1.0" xmlns:cc="http://creativecommons.org/ns#" xmlns:xlink="http://www.w3.org/1999/xlink" xmlns:dc="http://purl.org/dc/elements/1.1/">
 <defs id="defs2410">
  <linearGradient id="ButtonShadow" y2="7.0165" gradientUnits="userSpaceOnUse" x2="45.448" gradientTransform="scale(1.0059 .99417)" y1="92.54" x1="45.448">
   <stop id="stop3750" offset="0"/>
   <stop id="stop3752" style="stop-opacity:.58824" offset="1"/>
  </linearGradient>
  <linearGradient id="linearGradient3706" y2="5.9877" gradientUnits="userSpaceOnUse" x2="48" y1="90" x1="48">
   <stop id="stop3702" style="stop-color:#e6e6e6" offset="0"/>
   <stop id="stop3704" style="stop-color:#f5f5f5" offset="1"/>
  </linearGradient>
  <filter id="filter3174" color-interpolation-filters="sRGB">
   <feGaussianBlur id="feGaussianBlur3176" stdDeviation="1.71"/>
  </filter>
  <linearGradient id="ButtonShadow-0" y2="7.0165" gradientUnits="userSpaceOnUse" x2="45.448" gradientTransform="matrix(1.0059 0 0 .99417 100 0)" y1="92.54" x1="45.448">
   <stop id="stop3750-8" offset="0"/>
   <stop id="stop3752-5" style="stop-opacity:.58824" offset="1"/>
  </linearGradient>
  <linearGradient id="linearGradient3780" y2="90.239" xlink:href="#ButtonShadow-0" gradientUnits="userSpaceOnUse" x2="32.251" gradientTransform="matrix(1.0238 0 0 1.0119 -1.1429 -98.071)" y1="6.1317" x1="32.251"/>
  <linearGradient id="linearGradient3721" y2="90.239" xlink:href="#ButtonShadow-0" gradientUnits="userSpaceOnUse" x2="32.251" gradientTransform="translate(0,-97)" y1="6.1317" x1="32.251"/>
  <radialGradient id="radialGradient2886" gradientUnits="userSpaceOnUse" cy="90.172" cx="48" gradientTransform="matrix(1.1573 0 0 .99591 -7.551 .19713)" r="42">
   <stop id="stop3739-6" style="stop-color:#fff" offset="0"/>
   <stop id="stop3741-0" style="stop-color:#fff;stop-opacity:0" offset="1"/>
  </radialGradient>
  <linearGradient id="linearGradient3923" y2="63.893" gradientUnits="userSpaceOnUse" x2="36.357" y1="6" x1="36.357">
   <stop id="stop3739-9" style="stop-color:#fff" offset="0"/>
   <stop id="stop3741-3" style="stop-color:#fff;stop-opacity:0" offset="1"/>
  </linearGradient>
  <clipPath id="clipPath3613">
   <rect id="rect3615" style="fill:#fff" rx="6" ry="6" height="84" width="84" y="6" x="6"/>
  </clipPath>
  <filter id="filter3794" height="1.384" width="1.384" color-interpolation-filters="sRGB" y="-.192" x="-.192">
   <feGaussianBlur id="feGaussianBlur3796" stdDeviation="5.28"/>
  </filter>
  <linearGradient id="linearGradient2890" y2="138.66" gradientUnits="userSpaceOnUse" x2="48" y1="20.221" x1="48">
   <stop id="stop3739-2" style="stop-color:#fff" offset="0"/>
   <stop id="stop3741-1" style="stop-color:#fff;stop-opacity:0" offset="1"/>
  </linearGradient>
  <linearGradient id="linearGradient4262" y2="59.906" xlink:href="#linearGradient3737-7" gradientUnits="userSpaceOnUse" x2="53.53" gradientTransform="matrix(.78380 0 0 .78380 10.378 10.378)" y1="36.094" x1="41.713"/>
  <linearGradient id="linearGradient3737-7">
   <stop id="stop3739-3" style="stop-color:#fff" offset="0"/>
   <stop id="stop3741-05" style="stop-color:#fff;stop-opacity:0" offset="1"/>
  </linearGradient>
  <linearGradient id="linearGradient3836" y2="48" gradientUnits="userSpaceOnUse" x2="54.531" gradientTransform="matrix(0 1.4372 -1.4372 0 116.99 -20.986)" y1="48" x1="41.469">
   <stop id="stop3832" style="stop-color:#fff" offset="0"/>
   <stop id="stop3834" style="stop-color:#3a3a3a" offset="1"/>
  </linearGradient>
  <linearGradient id="linearGradient4170" y2="48" gradientUnits="userSpaceOnUse" x2="60" gradientTransform="matrix(.78380 0 0 .78380 10.378 10.378)" y1="48" x1="36">
   <stop id="stop4166" style="stop-color:#fff" offset="0"/>
   <stop id="stop4168" style="stop-color:#fff;stop-opacity:0" offset="1"/>
  </linearGradient>
  <linearGradient id="linearGradient4126" y2="65.948" gradientUnits="userSpaceOnUse" x2="45.541" y1="37.153" x1="45.541">
   <stop id="stop4122" style="stop-color:#fff" offset="0"/>
   <stop id="stop4124" style="stop-color:#989898" offset="1"/>
  </linearGradient>
  <radialGradient id="radialGradient3838" gradientUnits="userSpaceOnUse" cy="45.745" cx="47.225" r="20.203">
   <stop id="stop3842" style="stop-opacity:0" offset="0"/>
   <stop id="stop3844" offset=".82844"/>
   <stop id="stop3846" style="stop-opacity:0" offset="1"/>
  </radialGradient>
  <linearGradient id="linearGradient3855" y2="65.948" gradientUnits="userSpaceOnUse" x2="45.541" gradientTransform="matrix(.64024 0 0 .64024 17.765 18.712)" y1="27.99" x1="45.541">
   <stop id="stop4061" style="stop-color:#ccc" offset="0"/>
   <stop id="stop4063" style="stop-color:#969696" offset="1"/>
  </linearGradient>
  <linearGradient id="linearGradient3960" y2="45.745" gradientUnits="userSpaceOnUse" x2="67.428" y1="45.745" x1="27.022">
   <stop id="stop3956" style="stop-color:#1a1a1a" offset="0"/>
   <stop id="stop3958" style="stop-color:#3a3a3a" offset="1"/>
  </linearGradient>
  <clipPath id="clipPath4009">
   <path id="path4011" style="fill:#f00" d="m67.428 45.745a20.203 20.203 0 1 1 -40.406 0 20.203 20.203 0 1 1 40.406 0z" transform="matrix(1.4146 -.81671 .81671 1.4146 -56.163 21.859)"/>
  </clipPath>
  <filter id="filter4021" height="1.2173" width="1.172" color-interpolation-filters="sRGB" y="-.10866" x="-.085979">
   <feGaussianBlur id="feGaussianBlur4023" stdDeviation="2.3558157"/>
  </filter>
  <linearGradient id="linearGradient4050" y2="45.745" xlink:href="#linearGradient3737-7" gradientUnits="userSpaceOnUse" x2="94.365" y1="45.745" x1="27.022"/>
  <linearGradient id="linearGradient3987" y2="46.054" gradientUnits="userSpaceOnUse" x2="59.081" y1="46.054" x1="35.061">
   <stop id="stop3983" style="stop-color:#b4b4b4" offset="0"/>
   <stop id="stop3989" style="stop-color:#787878" offset=".5"/>
   <stop id="stop3985" style="stop-color:#b4b4b4" offset="1"/>
  </linearGradient>
  <radialGradient id="radialGradient4046" gradientUnits="userSpaceOnUse" cy="48" cx="48" gradientTransform="matrix(.88889 0 0 -.88889 5.3333 90.667)" r="27">
   <stop id="stop3973" style="stop-opacity:0" offset="0"/>
   <stop id="stop3979" style="stop-opacity:0" offset=".87387"/>
   <stop id="stop3975" offset="1"/>
  </radialGradient>
 </defs>
 <metadata id="metadata2413">
  <rdf:RDF>
   <cc:Work rdf:about="">
    <dc:format>image/svg+xml</dc:format>
    <dc:type rdf:resource="http://purl.org/dc/dcmitype/StillImage"/>
    <dc:title/>
   </cc:Work>
  </rdf:RDF>
 </metadata>
 <g id="layer2" style="display:none">
  <rect id="rect3745" style="opacity:.9;filter:url(#filter3174);fill:url(#ButtonShadow)" rx="6" ry="6" height="85" width="86" y="7" x="5"/>
 </g>
 <g id="layer6">
  <path id="path3786" style="opacity:0.08;fill:url(#linearGradient3780)" d="m12-95.031c-5.5111 0-10.031 4.5202-10.031 10.031v71c0 5.5111 4.5202 10.031 10.031 10.031h72c5.5111 0 10.031-4.5202 10.031-10.031v-71c0-5.5111-4.5202-10.031-10.031-10.031h-72z" transform="scale(1,-1)"/>
  <path id="path3778" style="opacity:.1;fill:url(#linearGradient3780)" d="m12-94.031c-4.9716 0-9.0312 4.0596-9.0312 9.0312v71c0 4.9716 4.0596 9.0312 9.0312 9.0312h72c4.9716 0 9.0312-4.0596 9.0312-9.0312v-71c0-4.9716-4.0596-9.0312-9.0312-9.0312h-72z" transform="scale(1,-1)"/>
  <path id="path3770" style="opacity:.2;fill:url(#linearGradient3780)" d="m12-93c-4.4091 0-8 3.5909-8 8v71c0 4.4091 3.5909 8 8 8h72c4.4091 0 8-3.5909 8-8v-71c0-4.4091-3.5909-8-8-8h-72z" transform="scale(1,-1)"/>
  <rect id="rect3723" style="opacity:.3;fill:url(#linearGradient3780)" transform="scale(1,-1)" rx="7" ry="7" height="85" width="86" y="-92" x="5"/>
  <rect id="rect3716" style="opacity:.45;fill:url(#linearGradient3721)" transform="scale(1,-1)" rx="6" ry="6" height="84" width="84" y="-91" x="6"/>
 </g>
 <g id="layer1">
  <rect id="rect2419" style="fill:url(#linearGradient3706)" rx="6" ry="6" height="84" width="84" y="6" x="6"/>
  <path id="rect3728" style="opacity:.5;fill:url(#linearGradient3923)" d="m12 6c-3.324 0-6 2.676-6 6v2 68 2c0 0.33472 0.04135 0.6507 0.09375 0.96875 0.0487 0.2956 0.09704 0.59692 0.1875 0.875 0.0099 0.03038 0.02089 0.0636 0.03125 0.09375 0.09886 0.28777 0.23488 0.54745 0.375 0.8125 0.14459 0.27351 0.31562 0.53562 0.5 0.78125 0.18438 0.24564 0.37378 0.47347 0.59375 0.6875 0.43995 0.42806 0.94291 0.81453 1.5 1.0938 0.27854 0.13961 0.57347 0.24695 0.875 0.34375-0.2562-0.10022-0.48671-0.23627-0.71875-0.375-0.0074-0.0044-0.02387 0.0045-0.03125 0-0.03193-0.0193-0.06229-0.04251-0.09375-0.0625-0.1204-0.0767-0.23102-0.16351-0.34375-0.25-0.10617-0.0808-0.21328-0.16111-0.3125-0.25-0.1778-0.162-0.3473-0.346-0.4999-0.531-0.1075-0.131-0.2183-0.266-0.3124-0.407-0.0251-0.038-0.0385-0.086-0.0626-0.125-0.0647-0.103-0.1302-0.204-0.1874-0.312-0.1011-0.195-0.2057-0.416-0.2813-0.625-0.008-0.022-0.0236-0.041-0.0313-0.063-0.0318-0.092-0.0358-0.187-0.0624-0.281-0.0304-0.107-0.0704-0.203-0.0938-0.313-0.0729-0.341-0.125-0.698-0.125-1.062v-2-68-2c0-2.782 2.2182-5 5-5h2 68 2c2.7818 0 5 2.2182 5 5v2 68 2c0 0.3643-0.05212 0.72099-0.125 1.0625-0.04415 0.20689-0.08838 0.39766-0.15625 0.59375-0.0077 0.02195-0.0233 0.04069-0.03125 0.0625-0.06274 0.17374-0.13838 0.36745-0.21875 0.53125-0.04158 0.0828-0.07904 0.16995-0.125 0.25-0.0546 0.09721-0.12677 0.18835-0.1875 0.28125-0.09411 0.14096-0.20492 0.276-0.3125 0.40625-0.14317 0.17445-0.30314 0.347-0.46875 0.5-0.01117 0.0102-0.01998 0.02115-0.03125 0.03125-0.13839 0.12556-0.28509 0.23444-0.4375 0.34375-0.10257 0.07315-0.20432 0.15336-0.3125 0.21875-0.0074 0.0045-0.02384-0.0044-0.03125 0-0.23204 0.13873-0.46255 0.27478-0.71875 0.375 0.30153-0.0968 0.59646-0.20414 0.875-0.34375 0.55709-0.27922 1.0601-0.66569 1.5-1.0938 0.21997-0.21403 0.40937-0.44186 0.59375-0.6875s0.35541-0.50774 0.5-0.78125c0.14012-0.26505 0.27614-0.52473 0.375-0.8125 0.01041-0.03078 0.02133-0.06274 0.03125-0.09375 0.09046-0.27808 0.1388-0.5794 0.1875-0.875 0.053-0.318 0.094-0.634 0.094-0.969v-2-68-2c0-3.324-2.676-6-6-6h-72z"/>
  <path id="path3615" style="opacity:.4;fill:url(#radialGradient2886)" d="m12 90c-3.324 0-6-2.676-6-6v-2-68-2c0-0.33472 0.04135-0.6507 0.09375-0.96875 0.0487-0.2956 0.09704-0.59692 0.1875-0.875 0.0099-0.03 0.0209-0.063 0.0313-0.094 0.0989-0.2873 0.2349-0.547 0.375-0.812 0.1446-0.2735 0.3156-0.5356 0.5-0.7812 0.1844-0.2457 0.3738-0.4735 0.5937-0.6876 0.44-0.428 0.943-0.8145 1.5-1.0937 0.2786-0.1396 0.5735-0.2469 0.8748-0.3437-0.256 0.1002-0.4865 0.2362-0.7185 0.375-0.00741 0.0044-0.023866-0.0045-0.03125 0-0.031933 0.0193-0.062293 0.04251-0.09375 0.0625-0.1204 0.0767-0.23102 0.16351-0.34375 0.25-0.10617 0.0808-0.21328 0.16111-0.3125 0.25-0.1779 0.1614-0.3474 0.3453-0.5 0.5312-0.1075 0.1303-0.2183 0.2653-0.3124 0.4063-0.0251 0.0383-0.0385 0.0858-0.0626 0.125-0.0647 0.103-0.1302 0.2045-0.1874 0.3124-0.1011 0.1948-0.2057 0.4158-0.2813 0.625-0.008 0.0219-0.0236 0.0406-0.0313 0.0626-0.0318 0.0919-0.0358 0.1868-0.0624 0.2812-0.0304 0.1066-0.0704 0.203-0.0938 0.3125-0.0729 0.3415-0.125 0.6985-0.125 1.0625v2 68 2c0 2.7818 2.2182 5 5 5h2 68 2c2.7818 0 5-2.2182 5-5v-2-68-2c0-0.364-0.052-0.721-0.125-1.0625-0.044-0.2069-0.088-0.3977-0.156-0.5937-0.008-0.022-0.024-0.0407-0.031-0.0626-0.063-0.1737-0.139-0.3674-0.219-0.5312-0.042-0.0828-0.079-0.17-0.125-0.25-0.055-0.0972-0.127-0.1884-0.188-0.2812-0.094-0.141-0.205-0.276-0.312-0.4063-0.143-0.1745-0.303-0.347-0.469-0.5-0.011-0.0102-0.02-0.0211-0.031-0.0313-0.139-0.1255-0.285-0.2344-0.438-0.3437-0.102-0.0731-0.204-0.1534-0.312-0.2187-0.0074-0.0045-0.02384 0.0044-0.03125 0-0.23204-0.13873-0.46255-0.27478-0.71875-0.375 0.30153 0.0968 0.59646 0.20414 0.875 0.34375 0.55709 0.27922 1.0601 0.66569 1.5 1.0938 0.21997 0.21403 0.40937 0.44186 0.59375 0.6875s0.35541 0.50774 0.5 0.78125c0.14012 0.26505 0.27614 0.52473 0.375 0.8125 0.01041 0.03078 0.02133 0.06274 0.03125 0.09375 0.09046 0.27808 0.1388 0.5794 0.1875 0.875 0.053 0.318 0.094 0.634 0.094 0.969v2 68 2c0 3.324-2.676 6-6 6h-72z"/>
  <rect id="rect3654" style="fill:#f0f" rx="6" ry="6" height="84" width="84" y="6" x="-94"/>
  <rect id="rect3797" style="stroke-width:.5;color:#000000;stroke-dashoffset:8.6;stroke:#000;stroke-linecap:round;fill:#fff" height="16" width="16" y="8" x="112"/>
  <text id="text3799" y="11.969256" x="131.39261" xml:space="preserve" style="font-size:4px;line-height:125%;font-family:Liberation Sans;fill:#000000"><tspan id="tspan3801" y="11.969256" x="131.39261">Width: 2px</tspan><tspan id="tspan3803" y="16.969257" x="131.39261">Blur: 12</tspan><tspan id="tspan3807" y="21.969257" x="131.39261">Opacity: 60</tspan></text>
 </g>
 <g id="layer3" style="display:none">
  <rect id="rect3171" style="opacity:.5;filter:url(#filter3794);stroke:#fff;stroke-linecap:round;stroke-width:.5;fill:url(#linearGradient2890)" clip-path="url(#clipPath3613)" rx="12" ry="12" height="66" width="66" y="15" x="15"/>
 </g>
 <g id="layer4">
  <path id="path3918" style="opacity:.05" d="m47.219 24.312c-11.809 0-21.406 9.6302-21.406 21.438 0 11.807 9.5989 21.406 21.406 21.406s21.438-9.5968 21.438-21.406-9.6281-21.438-21.438-21.438z" transform="matrix(1.3715 -.79183 .79183 1.3715 -52.99 23.655)"/>
  <path id="path3914" style="opacity:.15" d="m47.219 24.906c-11.494 0-20.812 9.3513-20.812 20.844 0 11.492 9.3201 20.812 20.812 20.812s20.844-9.3189 20.844-20.812c0-11.494-9.3502-20.844-20.844-20.844z" transform="matrix(1.3715 -.79183 .79183 1.3715 -52.99 23.655)"/>
  <path id="path3908" style="opacity:.3" d="m67.428 45.745a20.203 20.203 0 1 1 -40.406 0 20.203 20.203 0 1 1 40.406 0z" transform="matrix(1.3715 -.79183 .79183 1.3715 -52.99 23.655)"/>
  <path id="path3870" style="fill:url(#linearGradient3987)" d="m67.428 45.745a20.203 20.203 0 1 1 -40.406 0 20.203 20.203 0 1 1 40.406 0z" transform="matrix(1.3639 -.78748 .78748 1.3639 -52.435 22.8)"/>
  <g id="g3999" style="filter:url(#filter4021)" transform="matrix(.97003 0 0 .97003 1.4385 1.444)" clip-path="url(#clipPath4009)">
   <path id="path3993" style="opacity:.2;fill:#fff" d="m67.328 47.745a20.203 20.203 0 0 1 -17.951 18.088l-2.1522-20.088z" transform="matrix(1.3224e-8 -1.6334 1.6334 1.3224e-8 -26.773 125.17)"/>
   <path id="path3991" style="fill:#fff" d="m67.428 45.745a20.203 20.203 0 0 1 -5.918 14.286l-14.285-14.286z" transform="matrix(.81671 -1.4146 1.4146 .81671 -55.309 77.451)"/>
   <path id="path3995" style="opacity:.2;fill:#fff" d="m66.786 50.796a20.203 20.203 0 0 1 -3.1369 6.7132l-16.424-11.764z" transform="matrix(1.6334 1.3224e-8 -1.3224e-8 1.6334 -29.107 -26.712)"/>
   <path id="path3997" style="fill:#fff" d="m67.428 45.745a20.203 20.203 0 0 1 -5.918 14.286l-14.285-14.286z" transform="matrix(-1.4146 .81671 -.81671 -1.4146 152.16 74.263)"/>
  </g>
  <path id="path4040" style="opacity:.6;fill:url(#linearGradient4050)" d="m67.428 45.745a20.203 20.203 0 1 1 -40.406 0 20.203 20.203 0 1 1 40.406 0z" transform="matrix(0 -1.2374 1.2374 0 -8.6064 106.44)"/>
  <path id="path3898" style="fill:url(#linearGradient3960)" d="m67.428 45.745a20.203 20.203 0 1 1 -40.406 0 20.203 20.203 0 1 1 40.406 0z" transform="matrix(0 -1.1879 1.1879 0 -6.3422 104.1)"/>
  <path id="path4031" style="opacity:.1" d="m47.75 29.719c-1.3916 0.20308-1.9337 1.6393-2.7646 2.5883-0.65138 0.86639-1.3028 1.7328-1.9541 2.5992-5.78 1.9407-10.093 7.6522-10.122 13.787-0.21857 6.3521 4.0726 12.504 10.086 14.544 5.6857 2.0865 12.512 0.27612 16.407-4.3715 4.183-4.6737 4.917-12.057 1.6153-17.413-1.7996-3.0927-4.809-5.3677-8.1047-6.62-1.179-1.515-2.268-3.127-3.506-4.582-0.448-0.419-1.051-0.576-1.656-0.531z"/>
  <path id="path4027" style="opacity:.15" d="m48.031 30.812a1.0481 1.0481 0 0 0 -0.875 0.4375l-3.375 4.5c-5.649 1.797-9.781 7.017-9.781 13.25 0 7.7103 6.2897 14 14 14s14-6.2897 14-14c0-6.2329-4.1324-11.453-9.7812-13.25l-3.375-4.5a1.0481 1.0481 0 0 0 -0.8125 -0.4375z"/>
  <path id="path4021" style="opacity:.3" d="m48 31.888-3.5032 4.6709c-5.445 1.526-9.432 6.509-9.432 12.441 0 7.1437 5.7911 12.935 12.935 12.935 7.1437 0 12.935-5.7911 12.935-12.935 0-5.9318-3.9869-10.915-9.4316-12.441l-3.503-4.671z"/>
  <path id="path3848" style="fill:url(#linearGradient3855)" d="m48 30.888-3.5032 4.6709c-5.445 1.526-9.432 6.509-9.432 12.441 0 7.1437 5.7911 12.935 12.935 12.935 7.1437 0 12.935-5.7911 12.935-12.935 0-5.9318-3.9869-10.915-9.4316-12.441l-3.503-4.671z"/>
  <path id="path4144" style="fill:url(#radialGradient3838)" d="m67.428 45.745a20.203 20.203 0 1 1 -40.406 0 20.203 20.203 0 1 1 40.406 0z" transform="matrix(.52834 0 0 .52834 23.049 24.157)"/>
  <path id="path3904" style="fill:url(#linearGradient4126)" d="m67.428 45.745a20.203 20.203 0 1 1 -40.406 0 20.203 20.203 0 1 1 40.406 0z" transform="matrix(.46555 0 0 .46555 26.014 26.703)"/>
  <path id="rect3893" style="opacity:.7;fill:#fff" d="m35.88 28.445 1.2447-0.7186 2.8744 4.9786-1.2447 0.7186-2.8744-4.9786zm-10.278 14.298 0.37198-1.3882 5.5529 1.4879-0.37198 1.3882-5.5529-1.4879zm2.8425 17.377-0.7186-1.2447 4.9786-2.8744 0.7186 1.2447-4.9786 2.8744zm14.298 10.278-1.3882-0.37198 1.4879-5.5529 1.3882 0.37197-1.4879 5.5529zm17.377-2.8425-1.2447 0.7186-2.8744-4.9786 1.2447-0.7186 2.8744 4.9786zm10.278-14.298-0.37198 1.3882-5.5529-1.4879 0.37197-1.3882 5.5529 1.4879zm-2.8425-17.377 0.7186 1.2447-4.9786 2.8744-0.7186-1.2447 4.9786-2.8744zm-14.298-10.278 1.3882 0.37198-1.4879 5.5529-1.3882-0.37198 1.4879-5.5529z"/>
  <path id="path3962" style="fill:url(#radialGradient4046)" d="m48 72c-13.255 0-24-10.745-24-24s10.745-24 24-24 24 10.745 24 24-10.745 24-24 24zm0-3.8889c11.1 0 20.111-9.0109 20.111-20.111s-9.0109-20.111-20.111-20.111-20.111 9.0109-20.111 20.111 9.0109 20.111 20.111 20.111z"/>
  <path id="path4072" style="opacity:.2;fill:url(#linearGradient4170)" d="m48 38.594c-0.41098 0-0.82051 0.02006-1.2247 0.07349l1.225 3.063 1.225-3.062c-0.405-0.053-0.814-0.074-1.225-0.074zm1.2247 0.07349 0.3919 3.2821 1.984-2.6453c-0.377-0.155-0.779-0.285-1.176-0.391-0.397-0.107-0.796-0.192-1.2-0.245zm2.3759 0.63684-0.46538 3.2577 2.5963-2.033c-0.324-0.248-0.673-0.48-1.029-0.685-0.356-0.206-0.726-0.383-1.102-0.539zm2.1309 1.2247-1.2982 3.0372 3.0372-1.2982c-0.249-0.323-0.518-0.64-0.809-0.93h-0.02449c-0.29061-0.29061-0.5827-0.56027-0.90627-0.80829zm1.739 1.739-2.0575 2.5963h0.02449l3.2577-0.46538c-0.15621-0.37658-0.33337-0.7463-0.53886-1.1022h-0.02449c-0.20549-0.35592-0.41298-0.70542-0.66133-1.0287zm1.2247 2.1309-2.6453 1.984 3.0372-0.83278c-0.10636-0.39698-0.2357-0.77462-0.3919-1.1512zm-2.6453 1.984 3.2821 0.3919c-0.054-0.404-0.139-0.803-0.246-1.2l-3.0372 0.80829zm3.2821 0.3919-3.0617 1.2247 3.0617 1.2247c0.05302-0.40423 0.07349-0.8137 0.07349-1.2247 0-0.41098-0.02006-0.82051-0.07349-1.2247zm0 2.4494-3.2821 0.3919 2.6453 1.984c0.15583-0.37673 0.28553-0.77872 0.3919-1.1757s0.19193-0.79596 0.24494-1.2002zm-0.63683 2.3759-3.2577-0.46538 2.033 2.5963c0.24802-0.32356 0.48033-0.67281 0.68582-1.0287 0.20549-0.35592 0.38303-0.72548 0.53886-1.1022zm-1.2247 2.1309-3.0372-1.2982 1.2982 3.0372c0.32332-0.24835 0.64015-0.51768 0.93076-0.80829v-0.02449c0.29061-0.29061 0.56027-0.5827 0.80829-0.90626zm-1.739 1.739-2.5963-2.0575v0.02449l0.46538 3.2577c0.37658-0.1562 0.74629-0.33337 1.1022-0.53886v-0.02449c0.35592-0.20549 0.70542-0.41298 1.0287-0.66133zm-2.1309 1.2247-1.984-2.6453 0.83279 3.0372c0.39698-0.10636 0.77462-0.2357 1.1512-0.3919zm-1.984-2.6453-0.3919 3.2821c0.40417-0.05342 0.80321-0.13856 1.2002-0.24494l-0.808-3.037zm-0.392 3.282-1.225-3.062-1.225 3.062c0.40423 0.05302 0.8137 0.07349 1.2247 0.07349 0.41098 0 0.82051-0.02006 1.2247-0.07349zm-2.4494 0-0.3919-3.2821-1.984 2.6453c0.37674 0.15583 0.77872 0.28553 1.1757 0.3919 0.39698 0.10636 0.79596 0.19192 1.2002 0.24494zm-2.3759-0.63684 0.46538-3.2577-2.5963 2.033c0.32357 0.24802 0.67281 0.48033 1.0287 0.68582 0.35592 0.20549 0.72548 0.38303 1.1022 0.53886zm-2.1309-1.2247 1.2982-3.0372-3.0372 1.2982c0.24835 0.32332 0.51768 0.64015 0.80829 0.93076h0.02449c0.29061 0.29061 0.5827 0.56027 0.90626 0.80829zm-1.739-1.739 2.0575-2.5963h-0.02449l-3.2577 0.46538c0.15621 0.37658 0.33337 0.74629 0.53886 1.1022h0.02449c0.20549 0.35592 0.41298 0.70542 0.66133 1.0287zm-1.2247-2.1309 2.6453-1.984-3.0372 0.83278c0.10636 0.39698 0.23569 0.77462 0.3919 1.1512zm2.6453-1.984-3.2821-0.3919c0.05342 0.40418 0.13857 0.80321 0.24494 1.2002l3.0372-0.80829zm-3.2821-0.3919 3.0617-1.2247-3.0617-1.2247c-0.053 0.40423-0.07349 0.8137-0.07349 1.2247 0 0.41098 0.02006 0.82051 0.07349 1.2247zm0-2.4494 3.2821-0.3919-2.6453-1.984c-0.15583 0.37674-0.28553 0.77872-0.3919 1.1757s-0.19193 0.79596-0.24494 1.2002zm0.63684-2.3759 3.2577 0.46538-2.033-2.5963c-0.24802 0.32357-0.48033 0.67281-0.68582 1.0287-0.20549 0.35592-0.38303 0.72548-0.53886 1.1022zm1.2247-2.1309 3.0372 1.2982-1.2982-3.0372c-0.32332 0.24835-0.64015 0.51768-0.93076 0.80829v0.02449c-0.29061 0.29061-0.56027 0.5827-0.80829 0.90627zm1.739-1.739 2.5963 2.0575v-0.02449l-0.46538-3.2577c-0.37658 0.1562-0.74629 0.33337-1.1022 0.53886v0.02449c-0.35592 0.20549-0.70542 0.41298-1.0287 0.66133zm2.1309-1.2247 1.984 2.6453-0.83278-3.0372c-0.39698 0.10636-0.77462 0.2357-1.1512 0.3919zm1.984 2.6453 0.3919-3.2821c-0.40418 0.05342-0.80321 0.13856-1.2002 0.24494l0.80829 3.0372z"/>
  <path id="path3825" style="fill:url(#linearGradient3836)" d="m57.387 48c0-5.1945-4.1922-9.3867-9.3867-9.3867s-9.3867 4.1922-9.3867 9.3867 4.1922 9.3867 9.3867 9.3867 9.3867-4.1922 9.3867-9.3867zm-3.0541 0c0 3.4907-2.8419 6.3327-6.3327 6.3327-3.4907 0-6.3327-2.8419-6.3327-6.3327 0-3.4907 2.8419-6.3327 6.3327-6.3327 3.4907 0 6.3327 2.8419 6.3327 6.3327z"/>
  <path id="path4079" style="opacity:.7;fill:url(#linearGradient4262)" d="m46.775 38.668-0.3919 3.2821c0.54-0.145 1.083-0.219 1.617-0.22l-1.225-3.062zm1.225 3.062c0.55893 0 1.1009 0.08322 1.6166 0.22044l-0.392-3.282-1.225 3.062zm1.6166 0.22044c0.53989 0.14466 1.056 0.34632 1.5186 0.61234l0.46538-3.2577-1.984 2.6453zm1.5186 0.61234c0.48405 0.27947 0.92014 0.62754 1.2982 1.0042l1.2982-3.0372-2.5963 2.033zm1.2982 1.0042c0.39523 0.39522 0.7121 0.83646 0.97975 1.2982l2.0575-2.5963-3.0372 1.2982zm-6.0499-1.6166-1.984-2.6453 0.46538 3.2577c0.48405-0.27947 1.0034-0.47331 1.5186-0.61234zm-4.1149-1.4206 1.2982 3.0372c0.39523-0.39523 0.83647-0.7121 1.2982-0.97975l-2.5963-2.0575zm1.2982 3.0372-3.0372-1.2982 2.033 2.5963c0.27947-0.48405 0.62754-0.92014 1.0042-1.2982zm-1.0042 1.2982-3.2577-0.46538 2.6453 1.984c0.14466-0.53989 0.34632-1.056 0.61234-1.5186zm-0.61234 1.5186-3.2821 0.3919 3.0617 1.2247c0-0.55893 0.08322-1.1009 0.22044-1.6166zm-0.22044 1.6166-3.0617 1.2247 3.2821 0.3919c-0.14466-0.53989-0.2195-1.0829-0.22044-1.6166zm0.22044 1.6166-2.6453 1.984 3.2577-0.46538c-0.27947-0.48405-0.47331-1.0034-0.61234-1.5186zm14.745-5.2171-3.2577 0.46538c0.27947 0.48405 0.47331 1.0034 0.61234 1.5186l2.6453-1.984zm-2.6453 1.984c0.14466 0.53989 0.2195 1.0829 0.22044 1.6166l3.0617-1.2247-3.2821-0.3919zm0.22044 1.6166c0 0.55893-0.08322 1.1009-0.22044 1.6166l3.2821-0.3919-3.0617-1.2247zm-0.22044 1.6166c-0.14466 0.53989-0.34632 1.056-0.61234 1.5186l3.2577 0.46538-2.6453-1.984zm-0.61234 1.5186c-0.27947 0.48405-0.62755 0.92014-1.0042 1.2982l3.0372 1.2982-2.033-2.5963zm-1.0042 1.2982c-0.39522 0.39523-0.83646 0.7121-1.2982 0.97974l2.5963 2.0575-1.2982-3.0372zm-9.8464-1.2982-2.0575 2.5963 3.0372-1.2982c-0.398-0.396-0.714-0.837-0.982-1.299zm0.97974 1.2982-1.2982 3.0372 2.5963-2.033c-0.486-0.28-0.922-0.628-1.3-1.005zm1.2982 1.0042-0.46538 3.2577 1.984-2.6453c-0.53989-0.14466-1.056-0.34632-1.5186-0.61234zm1.5186 0.61234 0.3919 3.2821l1.222-3.062c-0.55893 0-1.1009-0.08322-1.6166-0.22044zm1.614 0.22l1.2247 3.0617 0.3919-3.2821c-0.54 0.145-1.083 0.219-1.617 0.22zm1.6166-0.22044 1.984 2.6453-0.46538-3.2577c-0.48405 0.27947-1.0034 0.47331-1.5186 0.61234z"/>
  <path id="path4176" style="opacity:.3" d="m46.775 38.668 1.225 3.062 1.225-3.062-1.225 1.494-1.225-1.494zl-0.80829 1.739v0.02449l-1.5676-1.1267 1.984 2.6453 0.3919-3.2821zm-2.3759 0.63684-0.31842 1.9105-1.8125-0.68582 2.5963 2.0575v-0.02449l-0.46538-3.2577zm-2.1309 1.2247 0.19595 1.935-1.935-0.19595 3.0372 1.2982-1.2982-3.0372zm-1.739 1.739 0.68582 1.8125-1.9105 0.31842 3.2577 0.46538-2.033-2.5963zm-1.2247 2.1309 1.1267 1.5676-1.7635 0.80829 3.2821-0.3919-2.6453-1.984zm-0.63684 2.3759 1.4941 1.2247-1.4941 1.2247 3.0617-1.2247-3.0617-1.2247zm0 2.4494 1.739 0.80829h0.02449l-1.1267 1.5676 2.6453-1.984-3.2822-0.3919zm0.63684 2.3759 1.9105 0.31842-0.68582 1.8125 2.0575-2.5963h-0.02449l-3.2577 0.46538zm1.2247 2.1309 1.935-0.19595-0.19595 1.935 1.2982-3.0372-3.0372 1.2982zm1.739 1.739 1.8125-0.68582 0.31842 1.9105 0.46538-3.2577-2.5963 2.033zm2.1309 1.2247 1.5676-1.1267 0.80829 1.7635-0.3919-3.2821-1.984 2.6453zm2.376 0.636 1.225-1.494 1.225 1.494-1.225-3.062-1.225 3.062zm2.4494 0 0.80829-1.739v-0.02449l1.5676 1.1267-1.984-2.6453-0.3919 3.2822zm2.3759-0.63684 0.31842-1.9105 1.8125 0.68582-2.5963-2.0575v0.02449l0.46538 3.2577zm2.1309-1.2247-0.19595-1.935 1.935 0.19595-3.0372-1.2982 1.2982 3.0372zm1.739-1.739-0.68582-1.8125 1.9105-0.31842-3.2577-0.46538 2.033 2.5963zm1.2247-2.1309-1.1267-1.5676 1.7635-0.80829-3.2821 0.3919 2.6453 1.984zm0.63683-2.3759-1.4941-1.2247 1.4941-1.2247-3.0617 1.2247 3.0617 1.2247zm0-2.4494-1.739-0.80829h-0.02449l1.1267-1.5676-2.6453 1.984 3.2821 0.3919zm-0.63683-2.3759-1.9105-0.31842 0.68582-1.8125-2.0575 2.5963h0.02449l3.2577-0.46538zm-1.2247-2.1309-1.935 0.19595 0.19595-1.935-1.2982 3.0372 3.0372-1.2982zm-1.739-1.739-1.8125 0.68582-0.31842-1.9105-0.46538 3.2577 2.5963-2.033zm-2.1309-1.2247-1.5676 1.1267-0.80829-1.7635 0.3919 3.2821 1.984-2.6453z"/>
  <path id="path4012" style="opacity:.8;fill:#fff" d="m48 30.875-3.5 4.6875c-5.445 1.526-9.438 6.506-9.438 12.438 0 0.18082 0.0239 0.35224 0.03125 0.53125 0.207-5.721 4.108-10.484 9.407-11.969l3.5-4.6875 3.5 4.6875c5.2988 1.4846 9.2 6.2471 9.4062 11.969 0.008-0.179 0.032-0.35 0.032-0.531 0-5.932-3.993-10.912-9.438-12.438l-3.5-4.687z"/>
  <path id="path4037" style="opacity:.3;fill:#fff" d="m42.75 25.594-1.4062 0.375 0.78125 2.9062c0.46064-0.14154 0.9321-0.23525 1.4062-0.34375l-0.781-2.937zm16.125 2.125-1.5 2.625c0.42476 0.22615 0.84418 0.46355 1.25 0.71875l1.5-2.625-1.25-0.71875zm-30.438 8.1562-0.71875 1.25 2.625 1.5c0.22615-0.42476 0.46355-0.84418 0.71875-1.25l-2.625-1.5zm41.594 5.469-2.906 0.781c0.14154 0.46064 0.23525 0.9321 0.34375 1.4062l2.9375-0.78125-0.375-1.4062zm-41.5 11.125-2.9375 0.78125 0.375 1.4062l2.906-0.781c-0.14154-0.46064-0.23525-0.9321-0.34375-1.4062zm37.125 4.9062c-0.22615 0.42476-0.46355 0.84418-0.71875 1.25l2.625 1.5 0.71875-1.25-2.625-1.5zm-28.281 7.5625-1.5 2.625 1.25 0.71875 1.5-2.625c-0.42476-0.22615-0.84418-0.46355-1.25-0.71875zm16.5 2.1875c-0.46064 0.14154-0.9321 0.23525-1.4062 0.34375l0.78125 2.9375 1.4062-0.375-0.781-2.907z"/>
  <path id="path4044" style="opacity:.3;fill:#fff" d="m42.75 25.594-1.4062 0.375 0.78125 2.9062c0.46064-0.14154 0.9321-0.23525 1.4062-0.34375l-0.781-2.937zm16.125 2.125-1.5 2.625c0.42476 0.22615 0.84418 0.46355 1.25 0.71875l1.5-2.625-1.25-0.71875zm-30.438 8.1562-0.71875 1.25 2.625 1.5c0.22615-0.42476 0.46355-0.84418 0.71875-1.25l-2.625-1.5zm41.594 5.469-2.906 0.781c0.14154 0.46064 0.23525 0.9321 0.34375 1.4062l2.9375-0.78125-0.375-1.4062zm-41.5 11.125-2.9375 0.78125 0.375 1.4062l2.906-0.781c-0.14154-0.46064-0.23525-0.9321-0.34375-1.4062zm37.125 4.9062c-0.22615 0.42476-0.46355 0.84418-0.71875 1.25l2.625 1.5 0.71875-1.25-2.625-1.5zm-28.281 7.5625-1.5 2.625 1.25 0.71875 1.5-2.625c-0.42476-0.22615-0.84418-0.46355-1.25-0.71875zm16.5 2.1875c-0.46064 0.14154-0.9321 0.23525-1.4062 0.34375l0.78125 2.9375 1.4062-0.375-0.781-2.907z" transform="matrix(.96593 .25882 -.25882 .96593 14.059 -10.788)"/>
 </g>
</svg>
