<?xml version="1.0" encoding="UTF-8" standalone="no"?>
<!-- Created with Inkscape (http://www.inkscape.org/) -->
<svg id="svg2408" xmlns:rdf="http://www.w3.org/1999/02/22-rdf-syntax-ns#" xmlns="http://www.w3.org/2000/svg" height="96" width="96" version="1.0" xmlns:cc="http://creativecommons.org/ns#" xmlns:xlink="http://www.w3.org/1999/xlink" xmlns:dc="http://purl.org/dc/elements/1.1/">
 <defs id="defs2410">
  <linearGradient id="ButtonShadow" y2="7.0165" gradientUnits="userSpaceOnUse" x2="45.448" gradientTransform="scale(1.0059 .99417)" y1="92.54" x1="45.448">
   <stop id="stop3750" offset="0"/>
   <stop id="stop3752" style="stop-opacity:.58824" offset="1"/>
  </linearGradient>
  <linearGradient id="linearGradient3706" y2="5.9877" gradientUnits="userSpaceOnUse" x2="48" y1="90" x1="48">
   <stop id="stop3702" style="stop-color:#e6e6e6" offset="0"/>
   <stop id="stop3704" style="stop-color:#f5f5f5" offset="1"/>
  </linearGradient>
  <filter id="filter3174" color-interpolation-filters="sRGB">
   <feGaussianBlur id="feGaussianBlur3176" stdDeviation="1.71"/>
  </filter>
  <linearGradient id="ButtonShadow-0" y2="7.0165" gradientUnits="userSpaceOnUse" x2="45.448" gradientTransform="matrix(1.0059 0 0 .99417 100 0)" y1="92.54" x1="45.448">
   <stop id="stop3750-8" offset="0"/>
   <stop id="stop3752-5" style="stop-opacity:.58824" offset="1"/>
  </linearGradient>
  <linearGradient id="linearGradient3780" y2="90.239" xlink:href="#ButtonShadow-0" gradientUnits="userSpaceOnUse" x2="32.251" gradientTransform="matrix(1.0238 0 0 1.0119 -1.1429 -98.071)" y1="6.1317" x1="32.251"/>
  <linearGradient id="linearGradient3721" y2="90.239" xlink:href="#ButtonShadow-0" gradientUnits="userSpaceOnUse" x2="32.251" gradientTransform="translate(0,-97)" y1="6.1317" x1="32.251"/>
  <radialGradient id="radialGradient2886" gradientUnits="userSpaceOnUse" cy="90.172" cx="48" gradientTransform="matrix(1.1573 0 0 .99591 -7.551 .19713)" r="42">
   <stop id="stop3739-6" style="stop-color:#fff" offset="0"/>
   <stop id="stop3741-0" style="stop-color:#fff;stop-opacity:0" offset="1"/>
  </radialGradient>
  <linearGradient id="linearGradient3923" y2="63.893" gradientUnits="userSpaceOnUse" x2="36.357" y1="6" x1="36.357">
   <stop id="stop3739-9" style="stop-color:#fff" offset="0"/>
   <stop id="stop3741-3" style="stop-color:#fff;stop-opacity:0" offset="1"/>
  </linearGradient>
  <linearGradient id="linearGradient3836" y2="14845" gradientUnits="userSpaceOnUse" x2="2128.6" gradientTransform="matrix(-.25635 0 0 .25321 593.66 -3728)" y1="15027" x1="2128.6">
   <stop id="stop7991" style="stop-color:#42699a" offset="0"/>
   <stop id="stop7989" style="stop-color:#99b8e1" offset="1"/>
  </linearGradient>
  <clipPath id="clipPath3939">
   <path id="path3941" style="opacity:.47186;fill:#0ff;fill-rule:evenodd" d="m71.969 20c-4.3137 1.7655-18.155 7.5128-18.5 7.6562-3.8701-3.1502-8.9115-5.5981-14.125-5.875-12.646-0.79267-24.276 10.395-24.312 22.812-0.55518 11.18 4.5627 21.529 9.1875 31.406 3.8691-1.6089 17.958-7.4458 18.312-7.5938 3.7983 3.1637 8.648 5.4784 13.719 5.8438 12.444 1.0407 24.024-9.6555 24.656-21.781 0.90325-11.343-4.3443-21.858-8.75-32-0.064-0.157-0.123-0.31-0.187-0.468zm-34.25 7.3125c9.1497-0.0011 17.201 7.6835 17.625 14.062 0.35572 5.3455-1.4115 12.956-10.156 13.969 0.32372 0.86292 0.76946 1.7701 1.4062 2.6562l-5.094 0.001c-0.41418-0.96344-0.66792-1.9317-0.78125-2.875-4.2232-1.1216-7.9765-5.0988-8-10.625-0.03-7.0513 8.8276-7.7326 11.062-5.9375 0.86811 0.6973 0.83057 2.0616 0.0625 1.8125-4.7718-1.5486-7.7189 1.5261-7.5 4.5625 0.2282 3.1635 1.7295 5.3449 4.4062 6.2812 0.129-1.074 0.355-2.163 0.719-3.217h4.3125c-0.71666 1.2525-1.0774 2.6095-1.1875 3.6875 5.442-0.41916 6.996-5.9693 6.8438-8.3125-0.197-3.0332-2.8401-9.2978-11.094-10.438-3.8972-0.53757-7.1095 0.62637-9.4688 2.9062-2.3592 2.2801-3.7125 4.6637-3.9062 8.5312-0.20042 4.0004 0.69328 6.3453 3.0938 11.594 0.85744 1.8745 3.239 5.6505 5.0938 9.4375l-8.033 3.344c-2.729-6.585-6.357-12.371-6.437-23.125-0.084-11.11 9.473-18.312 17.031-18.313z"/>
  </clipPath>
  <clipPath id="clipPath3613">
   <rect id="rect3615" style="fill:#fff" rx="6" ry="6" height="84" width="84" y="6" x="6"/>
  </clipPath>
  <filter id="filter3794" height="1.384" width="1.384" color-interpolation-filters="sRGB" y="-.192" x="-.192">
   <feGaussianBlur id="feGaussianBlur3796" stdDeviation="5.28"/>
  </filter>
  <linearGradient id="linearGradient4006" y2="138.66" gradientUnits="userSpaceOnUse" x2="48" y1="20.221" x1="48">
   <stop id="stop3739-2" style="stop-color:#fff" offset="0"/>
   <stop id="stop3741-1" style="stop-color:#fff;stop-opacity:0" offset="1"/>
  </linearGradient>
 </defs>
 <metadata id="metadata2413">
  <rdf:RDF>
   <cc:Work rdf:about="">
    <dc:format>image/svg+xml</dc:format>
    <dc:type rdf:resource="http://purl.org/dc/dcmitype/StillImage"/>
    <dc:title/>
   </cc:Work>
  </rdf:RDF>
 </metadata>
 <g id="layer2" style="display:none">
  <rect id="rect3745" style="opacity:.9;filter:url(#filter3174);fill:url(#ButtonShadow)" rx="6" ry="6" height="85" width="86" y="7" x="5"/>
 </g>
 <g id="layer6">
  <path id="path3786" style="opacity:0.08;fill:url(#linearGradient3780)" d="m12-95.031c-5.5111 0-10.031 4.5202-10.031 10.031v71c0 5.5111 4.5202 10.031 10.031 10.031h72c5.5111 0 10.031-4.5202 10.031-10.031v-71c0-5.5111-4.5202-10.031-10.031-10.031h-72z" transform="scale(1,-1)"/>
  <path id="path3778" style="opacity:.1;fill:url(#linearGradient3780)" d="m12-94.031c-4.9716 0-9.0312 4.0596-9.0312 9.0312v71c0 4.9716 4.0596 9.0312 9.0312 9.0312h72c4.9716 0 9.0312-4.0596 9.0312-9.0312v-71c0-4.9716-4.0596-9.0312-9.0312-9.0312h-72z" transform="scale(1,-1)"/>
  <path id="path3770" style="opacity:.2;fill:url(#linearGradient3780)" d="m12-93c-4.4091 0-8 3.5909-8 8v71c0 4.4091 3.5909 8 8 8h72c4.4091 0 8-3.5909 8-8v-71c0-4.4091-3.5909-8-8-8h-72z" transform="scale(1,-1)"/>
  <rect id="rect3723" style="opacity:.3;fill:url(#linearGradient3780)" transform="scale(1,-1)" rx="7" ry="7" height="85" width="86" y="-92" x="5"/>
  <rect id="rect3716" style="opacity:.45;fill:url(#linearGradient3721)" transform="scale(1,-1)" rx="6" ry="6" height="84" width="84" y="-91" x="6"/>
 </g>
 <g id="layer1">
  <rect id="rect2419" style="fill:url(#linearGradient3706)" rx="6" ry="6" height="84" width="84" y="6" x="6"/>
  <path id="rect3728" style="opacity:.5;fill:url(#linearGradient3923)" d="m12 6c-3.324 0-6 2.676-6 6v2 68 2c0 0.33472 0.04135 0.6507 0.09375 0.96875 0.0487 0.2956 0.09704 0.59692 0.1875 0.875 0.0099 0.03038 0.02089 0.0636 0.03125 0.09375 0.09886 0.28777 0.23488 0.54745 0.375 0.8125 0.14459 0.27351 0.31562 0.53562 0.5 0.78125 0.18438 0.24564 0.37378 0.47347 0.59375 0.6875 0.43995 0.42806 0.94291 0.81453 1.5 1.0938 0.27854 0.13961 0.57347 0.24695 0.875 0.34375-0.2562-0.10022-0.48671-0.23627-0.71875-0.375-0.0074-0.0044-0.02387 0.0045-0.03125 0-0.03193-0.0193-0.06229-0.04251-0.09375-0.0625-0.1204-0.0767-0.23102-0.16351-0.34375-0.25-0.10617-0.0808-0.21328-0.16111-0.3125-0.25-0.1778-0.162-0.3473-0.346-0.4999-0.531-0.1075-0.131-0.2183-0.266-0.3124-0.407-0.0251-0.038-0.0385-0.086-0.0626-0.125-0.0647-0.103-0.1302-0.204-0.1874-0.312-0.1011-0.195-0.2057-0.416-0.2813-0.625-0.008-0.022-0.0236-0.041-0.0313-0.063-0.0318-0.092-0.0358-0.187-0.0624-0.281-0.0304-0.107-0.0704-0.203-0.0938-0.313-0.0729-0.341-0.125-0.698-0.125-1.062v-2-68-2c0-2.782 2.2182-5 5-5h2 68 2c2.7818 0 5 2.2182 5 5v2 68 2c0 0.3643-0.05212 0.72099-0.125 1.0625-0.04415 0.20689-0.08838 0.39766-0.15625 0.59375-0.0077 0.02195-0.0233 0.04069-0.03125 0.0625-0.06274 0.17374-0.13838 0.36745-0.21875 0.53125-0.04158 0.0828-0.07904 0.16995-0.125 0.25-0.0546 0.09721-0.12677 0.18835-0.1875 0.28125-0.09411 0.14096-0.20492 0.276-0.3125 0.40625-0.14317 0.17445-0.30314 0.347-0.46875 0.5-0.01117 0.0102-0.01998 0.02115-0.03125 0.03125-0.13839 0.12556-0.28509 0.23444-0.4375 0.34375-0.10257 0.07315-0.20432 0.15336-0.3125 0.21875-0.0074 0.0045-0.02384-0.0044-0.03125 0-0.23204 0.13873-0.46255 0.27478-0.71875 0.375 0.30153-0.0968 0.59646-0.20414 0.875-0.34375 0.55709-0.27922 1.0601-0.66569 1.5-1.0938 0.21997-0.21403 0.40937-0.44186 0.59375-0.6875s0.35541-0.50774 0.5-0.78125c0.14012-0.26505 0.27614-0.52473 0.375-0.8125 0.01041-0.03078 0.02133-0.06274 0.03125-0.09375 0.09046-0.27808 0.1388-0.5794 0.1875-0.875 0.053-0.318 0.094-0.634 0.094-0.969v-2-68-2c0-3.324-2.676-6-6-6h-72z"/>
  <path id="path3615" style="opacity:.4;fill:url(#radialGradient2886)" d="m12 90c-3.324 0-6-2.676-6-6v-2-68-2c0-0.33472 0.04135-0.6507 0.09375-0.96875 0.0487-0.2956 0.09704-0.59692 0.1875-0.875 0.0099-0.03 0.0209-0.063 0.0313-0.094 0.0989-0.2873 0.2349-0.547 0.375-0.812 0.1446-0.2735 0.3156-0.5356 0.5-0.7812 0.1844-0.2457 0.3738-0.4735 0.5937-0.6876 0.44-0.428 0.943-0.8145 1.5-1.0937 0.2786-0.1396 0.5735-0.2469 0.8748-0.3437-0.256 0.1002-0.4865 0.2362-0.7185 0.375-0.00741 0.0044-0.023866-0.0045-0.03125 0-0.031933 0.0193-0.062293 0.04251-0.09375 0.0625-0.1204 0.0767-0.23102 0.16351-0.34375 0.25-0.10617 0.0808-0.21328 0.16111-0.3125 0.25-0.1779 0.1614-0.3474 0.3453-0.5 0.5312-0.1075 0.1303-0.2183 0.2653-0.3124 0.4063-0.0251 0.0383-0.0385 0.0858-0.0626 0.125-0.0647 0.103-0.1302 0.2045-0.1874 0.3124-0.1011 0.1948-0.2057 0.4158-0.2813 0.625-0.008 0.0219-0.0236 0.0406-0.0313 0.0626-0.0318 0.0919-0.0358 0.1868-0.0624 0.2812-0.0304 0.1066-0.0704 0.203-0.0938 0.3125-0.0729 0.3415-0.125 0.6985-0.125 1.0625v2 68 2c0 2.7818 2.2182 5 5 5h2 68 2c2.7818 0 5-2.2182 5-5v-2-68-2c0-0.364-0.052-0.721-0.125-1.0625-0.044-0.2069-0.088-0.3977-0.156-0.5937-0.008-0.022-0.024-0.0407-0.031-0.0626-0.063-0.1737-0.139-0.3674-0.219-0.5312-0.042-0.0828-0.079-0.17-0.125-0.25-0.055-0.0972-0.127-0.1884-0.188-0.2812-0.094-0.141-0.205-0.276-0.312-0.4063-0.143-0.1745-0.303-0.347-0.469-0.5-0.011-0.0102-0.02-0.0211-0.031-0.0313-0.139-0.1255-0.285-0.2344-0.438-0.3437-0.102-0.0731-0.204-0.1534-0.312-0.2187-0.0074-0.0045-0.02384 0.0044-0.03125 0-0.23204-0.13873-0.46255-0.27478-0.71875-0.375 0.30153 0.0968 0.59646 0.20414 0.875 0.34375 0.55709 0.27922 1.0601 0.66569 1.5 1.0938 0.21997 0.21403 0.40937 0.44186 0.59375 0.6875s0.35541 0.50774 0.5 0.78125c0.14012 0.26505 0.27614 0.52473 0.375 0.8125 0.01041 0.03078 0.02133 0.06274 0.03125 0.09375 0.09046 0.27808 0.1388 0.5794 0.1875 0.875 0.053 0.318 0.094 0.634 0.094 0.969v2 68 2c0 3.324-2.676 6-6 6h-72z"/>
  <rect id="rect3654" style="fill:#f0f" rx="6" ry="6" height="84" width="84" y="6" x="-94"/>
  <rect id="rect3797" style="stroke-width:.5;color:#000000;stroke-dashoffset:8.6;stroke:#000;stroke-linecap:round;fill:#fff" height="16" width="16" y="8" x="112"/>
  <text id="text3799" y="11.969256" x="131.39261" xml:space="preserve" style="font-size:4px;line-height:125%;font-family:Liberation Sans;fill:#000000"><tspan id="tspan3801" y="11.969256" x="131.39261">Width: 2px</tspan><tspan id="tspan3803" y="16.969257" x="131.39261">Blur: 12</tspan><tspan id="tspan3807" y="21.969257" x="131.39261">Opacity: 60</tspan></text>
 </g>
 <g id="layer4">
  <rect id="rect3171" style="opacity:.5;filter:url(#filter3794);stroke:#fff;stroke-linecap:round;stroke-width:.5;fill:url(#linearGradient4006)" clip-path="url(#clipPath3613)" rx="12" ry="12" height="66" width="66" y="15" x="15"/>
 </g>
 <g id="layer3">
  <path id="path3603" style="fill:url(#linearGradient3836);fill-rule:evenodd" d="m71.964 20c-4.313 1.766-18.146 7.515-18.491 7.658-3.87-3.15-8.904-5.598-14.117-5.874-12.646-0.793-24.278 10.401-24.315 22.819-0.555 11.179 4.565 21.519 9.189 31.397 3.8691-1.6089 17.938-7.4537 18.293-7.6016 3.7983 3.1637 8.6629 5.4951 13.734 5.8605 12.443 1.041 24.008-9.674 24.641-21.8 0.903-11.343-4.343-21.835-8.749-31.978-0.064-0.158-0.121-0.323-0.185-0.481z"/>
  <path id="path3607" style="fill:#eeeeec;fill-rule:evenodd" d="m27.115 68.755c-2.729-6.585-6.347-12.387-6.427-23.141-0.08308-11.11 9.4788-18.303 17.036-18.304 9.1497-0.0011 17.2 7.7003 17.624 14.079 0.38309 5.7568-1.6722 14.129-12.281 14.067-5.0654-0.0293-10.329-4.4214-10.356-10.956-0.03-7.0513 8.8324-7.7392 11.067-5.9441 0.86812 0.6973 0.84157 2.0772 0.07355 1.8281-4.7718-1.5486-7.7197 1.5034-7.5008 4.5398 0.29719 4.1199 2.7495 6.5711 7.1454 6.7795 6.3411 0.30022 8.1163-5.8466 7.9542-8.3414-0.197-3.0332-2.8503-9.2718-11.104-10.411-3.8972-0.53757-7.1271 0.6259-9.4864 2.9058-2.3592 2.2801-3.6856 4.6378-3.8794 8.5054-0.20042 4.0004 0.67584 6.3476 3.0763 11.596 0.85744 1.8745 3.2525 5.6563 5.1072 9.4432l-8.0492 3.3537z"/>
  <path id="path3880" style="opacity:.05;fill-rule:evenodd" d="m68.562 26.562c-2.8788 1.1585-5.7854 2.3517-8.625 3.5938-1.0676 0.62553-1.017 2.0969-0.2918 2.9822 2.6218 5.198 6.0921 10.087 7.4271 15.838 0.59414 3.5918 0.26423 7.775-2.5537 10.409-2.2369 2.6645-5.9613 3.6388-9.2953 2.8806-4.415-0.612-8.444-4.157-8.911-8.704-0.0064-2.953 1.9315-6.3775 5.2005-6.4314 2.4571-0.23281 5.4071 0.79122 6.0887 3.4236 0.87271 1.9595-0.03769 4.652-2.4257 4.8035-1.73 0.26701-4.1831-1.4477-5.136 0.86386-0.8826 2.2948 1.3242 4.4476 3.5059 4.6873 4.4004 0.86583 9.7148-1.2276 11.108-5.7733 1.7043-6.284-2.6388-13.322-8.9017-14.907-5.3905-1.2786-11.838 0.65041-14.724 5.6099-2.1389 3.7204-2.7301 8.345-1.6552 12.491 2.0605 6.1741 7.7305 10.698 13.859 12.474 5.7603 1.7776 12.176 0.0458 16.67-3.8503 4.9061-4.0316 7.5994-10.477 7.1333-16.8-0.116-6.713-2.228-13.194-5.085-19.21-0.708-1.24-0.953-2.772-1.855-3.882-0.40164-0.40894-0.9687-0.55426-1.5312-0.5z"/>
  <path id="path3875" style="opacity:.1;fill-rule:evenodd" d="m68.781 27.438a0.8684 0.8684 0 0 0 -0.25 0.0625l-8.031 3.344a0.8684 0.8684 0 0 0 -0.4375 1.1875c1.8836 3.8464 4.3059 7.7146 5.0938 9.4375 2.3931 5.2325 3.1931 7.3642 3 11.219-0.18454 3.6827-1.361 5.7181-3.625 7.9062-2.1822 2.1088-5.0849 3.162-8.75 2.6562-3.9257-0.54168-6.4404-2.2532-8.0312-4.1875s-2.2278-4.1329-2.3125-5.4375c-0.06489-0.99856 0.29218-3.0446 1.375-4.6562s2.7678-2.8555 5.6562-2.7188c2.0447 0.09697 3.5061 0.7034 4.5312 1.6875 1.0252 0.9841 1.6442 2.3807 1.7812 4.2812 0.08787 1.2186-0.4353 2.4468-1.5 3.2188s-2.6667 1.1441-4.8438 0.4375c-0.41526-0.13457-1.0232-0.05832-1.3438 0.28125-0.32054 0.33957-0.37772 0.74682-0.375 1.0938 0.0055 0.69385 0.31441 1.4119 0.96875 1.9375 0.79796 0.64102 1.8978 0.91379 3.1562 1s2.667-0.04669 4.0312-0.5c2.7284-0.90662 5.2978-3.2357 5.2812-7.125-0.02971-6.9978-5.6535-11.812-11.219-11.844-5.5337-0.03268-9.0633 2.2428-11 5.2812-1.9367 3.0385-2.3565 6.7407-2.1562 9.75 0.23485 3.5291 2.4963 7.1959 5.8438 10.031 3.3474 2.8353 7.8382 4.8445 12.656 4.8438 8.1088-0.000443 17.993-7.5765 17.906-19.188-0.08188-10.947-3.8063-16.969-6.5-23.469a0.8684 0.8684 0 0 0 -0.906 -0.528z"/>
  <path id="path3871" style="opacity:.2;fill-rule:evenodd" d="m68.885 28.31c2.7291 6.585 6.347 12.387 6.4275 23.141 0.08308 11.11-9.4788 18.303-17.036 18.304-9.1497 0.0015-17.2-7.7001-17.624-14.078-0.38308-5.7574 1.6722-14.13 12.281-14.067 5.0654 0.02929 10.329 4.4214 10.356 10.956 0.03 7.0511-8.8325 7.7394-11.067 5.9441-0.8681-0.6973-0.8416-2.0769-0.07355-1.8281 4.7718 1.5488 7.7197-1.5037 7.5008-4.5399-0.29718-4.1199-2.7495-6.5706-7.1454-6.7791-6.3411-0.30022-8.1163 5.8468-7.9542 8.3411 0.197 3.0332 2.8503 9.2722 11.104 10.411 3.8972 0.5378 7.1271-0.62567 9.4863-2.9055 2.3593-2.2803 3.6857-4.638 3.8794-8.5049 0.20042-4.0006-0.67587-6.3476-3.0763-11.596-0.85742-1.8751-3.2525-5.6561-5.1072-9.4435l8.0492-3.3542z"/>
  <path id="path3611" style="fill:#a9c4e3;fill-rule:evenodd" d="m68.885 27.31c2.7291 6.585 6.347 12.387 6.4275 23.141 0.08308 11.11-9.4788 18.303-17.036 18.304-9.1497 0.0015-17.2-7.7001-17.624-14.078-0.38308-5.7574 1.6722-14.13 12.281-14.067 5.0654 0.02929 10.329 4.4214 10.356 10.956 0.03 7.0511-8.8325 7.7394-11.067 5.9441-0.8681-0.6973-0.8416-2.0769-0.07355-1.8281 4.7718 1.5488 7.7197-1.5037 7.5008-4.5399-0.29718-4.1199-2.7495-6.5706-7.1454-6.7791-6.3411-0.30022-8.1163 5.8468-7.9542 8.3411 0.197 3.0332 2.8503 9.2722 11.104 10.411 3.8972 0.5378 7.1271-0.62567 9.4863-2.9055 2.3593-2.2803 3.6857-4.638 3.8794-8.5049 0.20042-4.0006-0.67587-6.3476-3.0763-11.596-0.85742-1.8751-3.2525-5.6561-5.1072-9.4435l8.0492-3.3542z"/>
  <path id="path3613" style="fill:#eeeeec;fill-rule:evenodd" d="m37.711 27.286c-7.5573 0.000858-17.104 7.1963-17.021 18.307 0.08047 10.754 3.7138 16.562 6.4428 23.147l8.029-3.355c-0.716-1.464-1.501-2.865-2.259-4.217h-1.779v-3.2108c-0.43703-0.78468-0.81709-1.4866-1.0578-2.0128-2.4005-5.2485-3.2776-7.597-3.0772-11.597 0.19378-3.8676 1.5353-6.2023 3.8945-8.4824 2.3593-2.2799 5.5747-3.4609 9.4719-2.9233 3.9032 0.53898 6.5391 2.228 8.2699 4.1693h1.6347v2.3961c0.74417 1.432 1.1356 2.812 1.202 3.8338 0.07201 1.1084-0.27873 2.9362-1.202 4.6006v5.7028c4.385-2.767 5.369-8.177 5.096-12.268-0.424-6.379-8.496-14.091-17.645-14.09z"/>
  <path id="path3838" style="fill:#fff;fill-rule:evenodd" d="m15 46.938c-0.105 10.667 4.78 20.581 9.219 30.062 3.8691-1.6089 17.958-7.4458 18.312-7.5938 3.7983 3.1637 8.648 5.4784 13.719 5.8438 12.444 1.0407 24.024-9.6555 24.656-21.781 0.07667-0.9628 0.10142-1.9241 0.09375-2.875-0.01358 0.62059-0.04393 1.2493-0.09375 1.875-0.632 12.126-12.212 22.822-24.656 21.781-5.071-0.365-9.92-2.68-13.719-5.844-0.354 0.148-14.443 5.985-18.312 7.594-4.301-9.186-9.024-18.774-9.219-29.062z"/>
  <path id="path3855" style="opacity:.1;fill-rule:evenodd" d="m71.969 20c-4.3137 1.7655-18.155 7.5128-18.5 7.6562-3.8701-3.1502-8.9115-5.5981-14.125-5.875-12.646-0.79267-24.276 10.395-24.312 22.812-0.55518 11.18 4.5627 21.529 9.1875 31.406 3.8691-1.6089 17.958-7.4458 18.312-7.5938 3.7983 3.1637 8.648 5.4784 13.719 5.8438 12.444 1.0407 24.024-9.6555 24.656-21.781 0.90325-11.343-4.3443-21.858-8.75-32-0.064-0.157-0.123-0.31-0.187-0.468zm-0.875 2.1562c4.3146 9.8612 9.0157 19.787 8.1875 30.188a1.6425 1.6425 0 0 0 0 0.03125c-0.581 11.134-11.479 21.206-22.907 20.25-4.65-0.335-9.208-2.493-12.781-5.469a1.6425 1.6425 0 0 0 -1.688 -0.281c-0.23928 0.0998-11.907 4.9499-16.844 7-4.426-9.444-8.908-19.067-8.406-29.187a1.6425 1.6425 0 0 0 0.032 -0.094c0.033-11.396 10.941-21.916 22.562-21.188 4.7575 0.25265 9.5359 2.5589 13.188 5.5312a1.6425 1.6425 0 0 0 1.6562 0.25c0.29162-0.12132 11.763-4.8765 17-7.0312z"/>
  <path id="path3847" style="opacity:.15;fill-rule:evenodd" d="m71.969 20c-4.3137 1.7655-18.155 7.5128-18.5 7.6562-3.8701-3.1502-8.9115-5.5981-14.125-5.875-12.646-0.79267-24.276 10.395-24.312 22.812-0.55518 11.18 4.5627 21.529 9.1875 31.406 3.8691-1.6089 17.958-7.4458 18.312-7.5938 3.7983 3.1637 8.648 5.4784 13.719 5.8438 12.444 1.0407 24.024-9.6555 24.656-21.781 0.90325-11.343-4.3443-21.858-8.75-32-0.064-0.157-0.123-0.31-0.187-0.468zm-0.375 0.96875c4.3954 10.099 9.4702 20.432 8.5938 31.438a0.72935 0.72935 0 0 0 0 0.03125c-0.61 11.685-11.883 22.096-23.876 21.093-4.883-0.352-9.614-2.607-13.312-5.687a0.72935 0.72935 0 0 0 -0.75 -0.125c-0.301 0.125-13.242 5.478-17.656 7.312-4.544-9.688-9.375-19.708-8.844-30.406a0.72935 0.72935 0 0 0 0 -0.03125c0.035-11.964 11.372-22.858 23.562-22.094 5.011 0.266 9.915 2.648 13.688 5.719a0.72935 0.72935 0 0 0 0.75 0.125c0.32081-0.13346 13.062-5.4126 17.844-7.375z"/>
  <path id="path3862" style="opacity:.2;fill-rule:evenodd" d="m71.969 20c-4.3137 1.7655-18.155 7.5128-18.5 7.6562-3.8701-3.1502-8.9115-5.5981-14.125-5.875-12.646-0.79267-24.276 10.395-24.312 22.812-0.01657 0.33365 0.0066 0.66784 0 1 0.03623-12.418 11.666-23.605 24.312-22.812 5.2135 0.27686 10.255 2.7248 14.125 5.875 0.34489-0.14348 14.186-5.8907 18.5-7.6562 0.064 0.15825 0.12334 0.31052 0.1875 0.46875 3.855 8.8745 8.3532 18.035 8.8125 27.781-0.185-10.121-4.826-19.604-8.813-28.781-0.064-0.158-0.123-0.311-0.187-0.469z"/>
  <g id="g3896" clip-path="url(#clipPath3939)">
   <path id="path3894" style="opacity:.05;fill-rule:evenodd" d="m37.719 26.344c-8.806 0.001-19.092 8.0309-19 20.281 0.08374 11.198 3.9148 17.518 6.5625 23.906-0.0012-0.0027 0.09517 0.19008 0.09375 0.1875-0.0014-0.0026 0.09541 0.15868 0.09375 0.15625-0.0017-0.0024 0.1269 0.15851 0.125 0.15625-0.0019-0.0023 0.12711 0.15831 0.125 0.15625-0.0021-0.0021 0.15855 0.12684 0.15625 0.125-0.0023-0.0018 0.15872 0.09536 0.15625 0.09375-0.0025-0.0016 0.19012 0.12636 0.1875 0.125-0.0026-0.0014 0.15899 0.0636 0.15625 0.0625-0.0027-0.0011 0.19033 0.06332 0.1875 0.0625-0.0028-0.000821 0.1904 0.06304 0.1875 0.0625-0.0029-0.000539 0.22169 0.0315 0.21875 0.03125-0.0029-0.000251 0.19045-0.000038 0.1875 0-0.0029 0.000038 0.19043-0.03158 0.1875-0.03125-0.0029 0.000328 0.19038-0.03186 0.1875-0.03125-0.0029 0.000614 0.19031-0.03214 0.1875-0.03125-0.0028 0.000894 0.19021-0.06367 0.1875-0.0625l8.03-3.342a1.0405 1.0405 0 0 0 0.03125 -0.03125c-0.0027 0.0012 0.15885-0.06399 0.15625-0.0625-0.0026 0.0015 0.18994-0.12674 0.1875-0.125-0.0024 0.0017 0.1585-0.12698 0.15625-0.125-0.0023 0.002 0.12705-0.12719 0.125-0.125-0.002 0.0022 0.12682-0.15864 0.125-0.15625-0.0018 0.0024 0.12657-0.1588 0.125-0.15625-0.0016 0.0026 0.09506-0.1902 0.09375-0.1875-0.0013 0.0027 0.06353-0.19032 0.0625-0.1875-0.001 0.0028 0.06324-0.1904 0.0625-0.1875-0.000744 0.0029 0.06295-0.19046 0.0625-0.1875-0.00045 0.003 0.000152-0.22174 0-0.21875-0.000152 0.003-0.000148-0.1905 0-0.1875s-0.000447-0.19046 0-0.1875c0.000447 0.003-0.06324-0.22166-0.0625-0.21875 0.000741 0.0029-0.06353-0.19032-0.0625-0.1875 0.001 0.0028-0.0638-0.15895-0.0625-0.15625a1.0405 1.0405 0 0 0 0 -0.03125c-1.918-3.917-4.368-7.888-5.063-9.407-2.388-5.222-3.122-6.952-2.937-10.625 0.17344-3.4615 1.1654-5.1437 3.3125-7.2188 1.9612-1.8952 4.4401-2.8402 7.8125-2.375 3.6676 0.50645 5.8789 2.0695 7.3125 3.8125 1.4235 1.7308 2.0281 3.7699 2.0938 4.7812 0.04039 0.62157-0.31431 2.6169-1.2188 3.9688-0.9343 1.3965-2.1178 2.4014-4.6562 2.2812-1.8416-0.08734-3.0367-0.63152-3.8438-1.4062-0.80597-0.77369-1.3148-1.8308-1.4375-3.5312-0.05957-0.82618 0.33281-1.6937 1.0938-2.25 0.76949-0.56252 1.934-0.901 3.8438-0.28125 0.88393 0.2867 1.7711 0.11402 2.4688-0.625 0.55885-0.59197 0.69139-1.3472 0.6875-1.8438-0.008-1.0229-0.46642-2.0827-1.375-2.8125-1.0696-0.85911-2.4305-1.1553-3.8125-1.25-1.4094-0.09656-2.9285 0.0611-4.4375 0.5625-3.0727 1.0209-6.0499 3.8063-6.0312 8.1875 0.03224 7.5952 6.1069 12.902 12.312 12.938 5.8394 0.03425 9.8034-2.4019 11.938-5.75 2.1212-3.3279 2.5235-7.2667 2.3125-10.438-0.26315-3.9546-2.6972-7.8298-6.2188-10.812-3.5257-2.9862-8.2477-5.0944-13.375-5.0938z"/>
   <path id="path3890" style="opacity:.1;fill-rule:evenodd" d="m37.719 27.375c-8.1609 0.000928-18.056 7.5917-17.969 19.25 0.082 10.965 3.8096 17.009 6.5 23.5a0.9505 0.9505 0 0 0 1.25 0.5l8.0312-3.3438a0.9505 0.9505 0 0 0 0.469 -1.281c-1.8863-3.8514-4.2811-7.7294-5.0625-9.4375-2.393-5.2323-3.2237-7.2842-3.0312-11.125 0.1837-3.6662 1.3732-5.73 3.625-7.9062 2.1655-2.0926 5.0443-3.1588 8.6875-2.6562 3.9067 0.53947 6.3898 2.2678 7.9688 4.1875 1.5789 1.9197 2.2291 4.0905 2.3125 5.375 0.06336 0.97506-0.30361 3.0236-1.375 4.625s-2.7335 2.8542-5.5938 2.7188c-2.0302-0.09628-3.4916-0.71949-4.5-1.6875s-1.614-2.3332-1.75-4.2188c-0.08581-1.1901 0.45682-2.3937 1.5-3.1562 1.0432-0.7626 2.6257-1.1371 4.7812-0.4375 0.43635 0.14153 1.0646 0.01814 1.4062-0.34375 0.34164-0.36189 0.40908-0.76404 0.40625-1.125-0.0057-0.72191-0.32478-1.4576-1-2-0.82057-0.65911-1.9495-0.94429-3.2188-1.0312-1.2692-0.08696-2.687 0.07422-4.0625 0.53125-2.7509 0.91405-5.3292 3.2638-5.3125 7.1875 0.02989 7.0418 5.6687 11.874 11.281 11.906 5.5554 0.03259 9.1121-2.2213 11.062-5.2812 1.9504-3.0599 2.3573-6.7912 2.1562-9.8125-0.23699-3.5615-2.5145-7.2475-5.875-10.094-3.3605-2.8463-7.8465-4.8443-12.688-4.8438z"/>
   <path id="path3886" style="opacity:.2;fill-rule:evenodd" d="m27.115 69.755c-2.729-6.585-6.347-12.387-6.427-23.141-0.08308-11.11 9.4788-18.303 17.036-18.304 9.1497-0.0011 17.2 7.7003 17.624 14.079 0.38309 5.7568-1.6722 14.129-12.281 14.067-5.0654-0.0293-10.329-4.4214-10.356-10.956-0.03-7.0513 8.8324-7.7392 11.067-5.9441 0.86812 0.6973 0.84157 2.0772 0.07355 1.8281-4.7718-1.5486-7.7197 1.5034-7.5008 4.5398 0.29719 4.1199 2.7495 6.5711 7.1454 6.7795 6.3411 0.30022 8.1163-5.8466 7.9542-8.3414-0.197-3.0332-2.8503-9.2718-11.104-10.411-3.8972-0.53757-7.1271 0.6259-9.4864 2.9058-2.3592 2.2801-3.6856 4.6378-3.8794 8.5054-0.20042 4.0004 0.67584 6.3476 3.0763 11.596 0.85744 1.8745 3.2525 5.6563 5.1072 9.4432l-8.0492 3.3537z"/>
  </g>
 </g>
</svg>
