<?xml version="1.0" encoding="UTF-8" standalone="no"?>
<!-- Created with Inkscape (http://www.inkscape.org/) -->
<svg id="svg2408" xmlns:rdf="http://www.w3.org/1999/02/22-rdf-syntax-ns#" xmlns="http://www.w3.org/2000/svg" height="96" width="96" version="1.0" xmlns:cc="http://creativecommons.org/ns#" xmlns:xlink="http://www.w3.org/1999/xlink" xmlns:dc="http://purl.org/dc/elements/1.1/">
 <defs id="defs2410">
  <linearGradient id="ButtonShadow" y2="7.0165" gradientUnits="userSpaceOnUse" x2="45.448" gradientTransform="scale(1.0059 .99417)" y1="92.54" x1="45.448">
   <stop id="stop3750" offset="0"/>
   <stop id="stop3752" style="stop-opacity:.58824" offset="1"/>
  </linearGradient>
  <linearGradient id="linearGradient3706" y2="5.9877" gradientUnits="userSpaceOnUse" x2="48" y1="90" x1="48">
   <stop id="stop3702" style="stop-color:#e6e6e6" offset="0"/>
   <stop id="stop3704" style="stop-color:#f5f5f5" offset="1"/>
  </linearGradient>
  <filter id="filter3174" color-interpolation-filters="sRGB">
   <feGaussianBlur id="feGaussianBlur3176" stdDeviation="1.71"/>
  </filter>
  <linearGradient id="linearGradient3188" y2="63.893" gradientUnits="userSpaceOnUse" x2="36.357" y1="6" x1="36.357">
   <stop id="stop3739" style="stop-color:#fff" offset="0"/>
   <stop id="stop3741" style="stop-color:#fff;stop-opacity:0" offset="1"/>
  </linearGradient>
  <linearGradient id="ButtonShadow-0" y2="7.0165" gradientUnits="userSpaceOnUse" x2="45.448" gradientTransform="matrix(1.0059 0 0 .99417 100 0)" y1="92.54" x1="45.448">
   <stop id="stop3750-8" offset="0"/>
   <stop id="stop3752-5" style="stop-opacity:.58824" offset="1"/>
  </linearGradient>
  <linearGradient id="linearGradient3780" y2="90.239" xlink:href="#ButtonShadow-0" gradientUnits="userSpaceOnUse" x2="32.251" gradientTransform="matrix(1.0238 0 0 1.0119 -1.1429 -98.071)" y1="6.1317" x1="32.251"/>
  <linearGradient id="linearGradient3721" y2="90.239" xlink:href="#ButtonShadow-0" gradientUnits="userSpaceOnUse" x2="32.251" gradientTransform="translate(0,-97)" y1="6.1317" x1="32.251"/>
  <radialGradient id="radialGradient2903" gradientUnits="userSpaceOnUse" cy="90.172" cx="48" gradientTransform="matrix(1.1573 0 0 .99591 -7.551 .19713)" r="42">
   <stop id="stop3739-6" style="stop-color:#fff" offset="0"/>
   <stop id="stop3741-0" style="stop-color:#fff;stop-opacity:0" offset="1"/>
  </radialGradient>
  <clipPath id="clipPath3782">
   <path id="path3784" style="fill:#f0f" d="m-98 6c-3.324 0-6 2.676-6 6v72c0 3.324 2.676 6 6 6h72c3.324 0 6-2.676 6-6v-72c0-3.324-2.676-6-6-6h-72zm59.062 12c0.602-0.009 0.938 0.031 0.938 0.031v12.062c-12.051 0.213-15 11.969-15 11.969h9.0625v12.062h-14.094c-8.476 26.153-27.968 23.814-27.968 23.814v-12.062s12.376 2.2983 18.688-20.75c6.9081-25.227 24.168-27.061 28.375-27.125z"/>
  </clipPath>
  <filter id="filter3786" height="1.2592" width="1.324" color-interpolation-filters="sRGB" y="-.1296" x="-.162">
   <feGaussianBlur id="feGaussianBlur3788" stdDeviation="3.24"/>
  </filter>
  <linearGradient id="linearGradient3745" y2="36.246" gradientUnits="userSpaceOnUse" x2="46.907" gradientTransform="translate(-2)" y1="75.471" x1="46.907">
   <stop id="stop3731" style="stop-color:#1c59ad" offset="0"/>
   <stop id="stop3733" style="stop-color:#377ad6" offset="1"/>
  </linearGradient>
  <clipPath id="clipPath3613">
   <rect id="rect3615" style="fill:#fff" rx="6" ry="6" height="84" width="84" y="6" x="6"/>
  </clipPath>
  <filter id="filter3794" height="1.384" width="1.384" color-interpolation-filters="sRGB" y="-.192" x="-.192">
   <feGaussianBlur id="feGaussianBlur3796" stdDeviation="5.28"/>
  </filter>
  <linearGradient id="linearGradient4186" y2="138.66" gradientUnits="userSpaceOnUse" x2="48" y1="20.221" x1="48">
   <stop id="stop3739-2" style="stop-color:#fff" offset="0"/>
   <stop id="stop3741-1" style="stop-color:#fff;stop-opacity:0" offset="1"/>
  </linearGradient>
 </defs>
 <metadata id="metadata2413">
  <rdf:RDF>
   <cc:Work rdf:about="">
    <dc:format>image/svg+xml</dc:format>
    <dc:type rdf:resource="http://purl.org/dc/dcmitype/StillImage"/>
    <dc:title/>
   </cc:Work>
  </rdf:RDF>
 </metadata>
 <g id="layer2" style="display:none">
  <rect id="rect3745" style="opacity:.9;filter:url(#filter3174);fill:url(#ButtonShadow)" rx="6" ry="6" height="85" width="86" y="7" x="5"/>
 </g>
 <g id="layer7">
  <path id="path3786" style="opacity:0.08;fill:url(#linearGradient3780)" d="m12-95.031c-5.5111 0-10.031 4.5202-10.031 10.031v71c0 5.5111 4.5202 10.031 10.031 10.031h72c5.5111 0 10.031-4.5202 10.031-10.031v-71c0-5.5111-4.5202-10.031-10.031-10.031h-72z" transform="scale(1,-1)"/>
  <path id="path3778" style="opacity:.1;fill:url(#linearGradient3780)" d="m12-94.031c-4.9716 0-9.0312 4.0596-9.0312 9.0312v71c0 4.9716 4.0596 9.0312 9.0312 9.0312h72c4.9716 0 9.0312-4.0596 9.0312-9.0312v-71c0-4.9716-4.0596-9.0312-9.0312-9.0312h-72z" transform="scale(1,-1)"/>
  <path id="path3770" style="opacity:.2;fill:url(#linearGradient3780)" d="m12-93c-4.4091 0-8 3.5909-8 8v71c0 4.4091 3.5909 8 8 8h72c4.4091 0 8-3.5909 8-8v-71c0-4.4091-3.5909-8-8-8h-72z" transform="scale(1,-1)"/>
  <rect id="rect3723" style="opacity:.3;fill:url(#linearGradient3780)" transform="scale(1,-1)" rx="7" ry="7" height="85" width="86" y="-92" x="5"/>
  <rect id="rect3716" style="opacity:.45;fill:url(#linearGradient3721)" transform="scale(1,-1)" rx="6" ry="6" height="84" width="84" y="-91" x="6"/>
 </g>
 <g id="layer1">
  <rect id="rect2419" style="fill:url(#linearGradient3706)" rx="6" ry="6" height="84" width="84" y="6" x="6"/>
  <path id="rect3728" style="opacity:.5;fill:url(#linearGradient3188)" d="m12 6c-3.324 0-6 2.676-6 6v2 68 2c0 0.33472 0.04135 0.6507 0.09375 0.96875 0.0487 0.2956 0.09704 0.59692 0.1875 0.875 0.00988 0.03038 0.020892 0.0636 0.03125 0.09375 0.098865 0.28777 0.23488 0.54745 0.375 0.8125 0.14459 0.27351 0.31562 0.53562 0.5 0.78125 0.18438 0.24564 0.37378 0.47347 0.59375 0.6875 0.43995 0.42806 0.94291 0.81453 1.5 1.0938 0.27854 0.13961 0.57347 0.24695 0.875 0.34375-0.2562-0.10022-0.48671-0.23627-0.71875-0.375-0.00741-0.0044-0.023866 0.0045-0.03125 0-0.031933-0.0193-0.062293-0.04251-0.09375-0.0625-0.1204-0.0767-0.23102-0.16351-0.34375-0.25-0.10617-0.0808-0.21328-0.16111-0.3125-0.25-0.1778-0.162-0.3473-0.346-0.4999-0.531-0.1075-0.131-0.2183-0.266-0.3124-0.407-0.0251-0.038-0.0385-0.086-0.0626-0.125-0.0647-0.103-0.1302-0.204-0.1874-0.312-0.1011-0.195-0.2057-0.416-0.2813-0.625-0.008-0.022-0.0236-0.041-0.0313-0.063-0.0318-0.092-0.0358-0.187-0.0624-0.281-0.0304-0.107-0.0704-0.203-0.0938-0.313-0.0729-0.341-0.125-0.698-0.125-1.062v-2-68-2c0-2.782 2.2182-5 5-5h2 68 2c2.7818 0 5 2.2182 5 5v2 68 2c0 0.3643-0.05212 0.72099-0.125 1.0625-0.04415 0.20689-0.08838 0.39766-0.15625 0.59375-0.0077 0.02195-0.0233 0.04069-0.03125 0.0625-0.06274 0.17374-0.13838 0.36745-0.21875 0.53125-0.04158 0.0828-0.07904 0.16995-0.125 0.25-0.0546 0.09721-0.12677 0.18835-0.1875 0.28125-0.09411 0.14096-0.20492 0.276-0.3125 0.40625-0.14317 0.17445-0.30314 0.347-0.46875 0.5-0.01117 0.0102-0.01998 0.02115-0.03125 0.03125-0.13839 0.12556-0.28509 0.23444-0.4375 0.34375-0.10257 0.07315-0.20432 0.15336-0.3125 0.21875-0.0074 0.0045-0.02384-0.0044-0.03125 0-0.23204 0.13873-0.46255 0.27478-0.71875 0.375 0.30153-0.0968 0.59646-0.20414 0.875-0.34375 0.55709-0.27922 1.0601-0.66569 1.5-1.0938 0.21997-0.21403 0.40937-0.44186 0.59375-0.6875s0.35541-0.50774 0.5-0.78125c0.14012-0.26505 0.27614-0.52473 0.375-0.8125 0.01041-0.03078 0.02133-0.06274 0.03125-0.09375 0.09046-0.27808 0.1388-0.5794 0.1875-0.875 0.053-0.318 0.094-0.634 0.094-0.969v-2-68-2c0-3.324-2.676-6-6-6h-72z"/>
  <path id="path3615" style="opacity:.3;fill:url(#radialGradient2903)" d="m12 90c-3.324 0-6-2.676-6-6v-2-68-2c0-0.33472 0.04135-0.6507 0.09375-0.96875 0.0487-0.2956 0.09704-0.59692 0.1875-0.875 0.0099-0.03 0.0209-0.063 0.0313-0.094 0.0989-0.2873 0.2349-0.547 0.375-0.812 0.1446-0.2735 0.3156-0.5356 0.5-0.7812 0.1844-0.2457 0.3738-0.4735 0.5937-0.6876 0.44-0.428 0.943-0.8145 1.5-1.0937 0.2786-0.1396 0.5735-0.2469 0.8748-0.3437-0.256 0.1002-0.4865 0.2362-0.7185 0.375-0.00741 0.0044-0.023866-0.0045-0.03125 0-0.031933 0.0193-0.062293 0.04251-0.09375 0.0625-0.1204 0.0767-0.23102 0.16351-0.34375 0.25-0.10617 0.0808-0.21328 0.16111-0.3125 0.25-0.1779 0.1614-0.3474 0.3453-0.5 0.5312-0.1075 0.1303-0.2183 0.2653-0.3124 0.4063-0.0251 0.0383-0.0385 0.0858-0.0626 0.125-0.0647 0.103-0.1302 0.2045-0.1874 0.3124-0.1011 0.1948-0.2057 0.4158-0.2813 0.625-0.008 0.0219-0.0236 0.0406-0.0313 0.0626-0.0318 0.0919-0.0358 0.1868-0.0624 0.2812-0.0304 0.1066-0.0704 0.203-0.0938 0.3125-0.0729 0.3415-0.125 0.6985-0.125 1.0625v2 68 2c0 2.7818 2.2182 5 5 5h2 68 2c2.7818 0 5-2.2182 5-5v-2-68-2c0-0.364-0.052-0.721-0.125-1.0625-0.044-0.2069-0.088-0.3977-0.156-0.5937-0.008-0.022-0.024-0.0407-0.031-0.0626-0.063-0.1737-0.139-0.3674-0.219-0.5312-0.042-0.0828-0.079-0.17-0.125-0.25-0.055-0.0972-0.127-0.1884-0.188-0.2812-0.094-0.141-0.205-0.276-0.312-0.4063-0.143-0.1745-0.303-0.347-0.469-0.5-0.011-0.0102-0.02-0.0211-0.031-0.0313-0.139-0.1255-0.285-0.2344-0.438-0.3437-0.102-0.0731-0.204-0.1534-0.312-0.2187-0.0074-0.0045-0.02384 0.0044-0.03125 0-0.23204-0.13873-0.46255-0.27478-0.71875-0.375 0.30153 0.0968 0.59646 0.20414 0.875 0.34375 0.55709 0.27922 1.0601 0.66569 1.5 1.0938 0.21997 0.21403 0.40937 0.44186 0.59375 0.6875s0.35541 0.50774 0.5 0.78125c0.14012 0.26505 0.27614 0.52473 0.375 0.8125 0.01041 0.03078 0.02133 0.06274 0.03125 0.09375 0.09046 0.27808 0.1388 0.5794 0.1875 0.875 0.053 0.318 0.094 0.634 0.094 0.969v2 68 2c0 3.324-2.676 6-6 6h-72z"/>
  <path id="path3774" style="opacity:.6;filter:url(#filter3786);stroke:#fff;stroke-width:2;fill:none" d="m-38 18.02v12.07c-12.051 0.21176-15.013 11.964-15.013 11.964h9.0894v12.07h-14.094c-8.476 26.152-27.982 23.823-27.982 23.823v-12.07s12.378 2.2962 18.689-20.752c7.895-28.832 29.311-27.105 29.311-27.105z" clip-path="url(#clipPath3782)" transform="translate(110)"/>
  <rect id="rect3768" style="fill:#f0f" rx="6" ry="6" height="84" width="84" y="6" x="-104"/>
 </g>
 <g id="layer3">
  <rect id="rect3171" style="opacity:.5;filter:url(#filter3794);stroke:#fff;stroke-linecap:round;stroke-width:.5;fill:url(#linearGradient4186)" clip-path="url(#clipPath3613)" rx="12" ry="12" height="66" width="66" y="15" x="15"/>
 </g>
 <g id="layer4">
  <path id="rect3362" style="opacity:.5;fill:#999" d="m12 12v17.938l8.094-17.938h-8.094zm9.906 0 8.094 17.938v-17.938h-8.094zm-0.906 7.031l-3.0312 7h2.9286l1.7188 3.9688h3.2277l-2.375-5.2812-0.0625-0.125-2.406-5.563z"/>
  <path id="path3715" style="fill:url(#linearGradient3745)" d="m26 36v40h7.6562v-14.656h2.6562c3.0078 0.000014 5.4963-0.37613 7.4688-1.0938 2.0176-0.72729 3.6261-1.692 4.8125-2.875 1.2174-1.1958 2.0687-2.56 2.5938-4.125 0.53368-1.5909 0.81247-3.2577 0.8125-5-0.000032-1.9495-0.29403-3.6581-0.875-5.1562-0.578-1.509-1.482-2.756-2.687-3.782-1.184-1.039-2.724-1.844-4.626-2.406-1.873-0.577-4.163-0.906-6.812-0.906h-11zm7.6562 5.9688h2.9062c2.5114 0.000035 4.4274 0.5071 5.7188 1.625 1.3069 1.1127 1.9062 2.8428 1.9062 5-0.000026 2.3119-0.66857 4.1084-2.125 5.2188-1.4163 1.0962-3.4459 1.5625-6.0312 1.5625h-2.375v-13.406zm30.219 6.031c-1.4911 0.00003-2.8382 0.14666-4.0625 0.46875-1.2086 0.30604-2.2305 0.77815-3.0938 1.4062-0.86328 0.62815-1.5291 1.4248-2 2.375-0.47088 0.93416-0.71875 2.025-0.71875 3.2812-0.000001 1.1435 0.13942 2.1313 0.40625 2.9688 0.26683 0.82142 0.65383 1.5745 1.1875 2.2188 0.54936 0.64425 1.2619 1.2185 2.0938 1.75 0.84758 0.5154 1.8229 1.031 2.9688 1.5625 1.1772 0.54761 2.1219 1.0197 2.8125 1.4062 0.70631 0.37044 1.2327 0.72525 1.5938 1.0312 0.36099 0.28992 0.59332 0.56996 0.6875 0.84375 0.10986 0.2577 0.15624 0.53679 0.15625 0.875-0.000015 0.33823-0.0775 0.66274-0.21875 0.96875-0.12558 0.28991-0.32679 0.55578-0.625 0.78125-0.28254 0.20938-0.63858 0.37116-1.0938 0.5-0.4552 0.11275-1.0127 0.1875-1.6562 0.1875-0.58076 0.000005-1.2156-0.07475-1.9062-0.1875-0.675-0.113-1.371-0.245-2.094-0.438-0.722-0.209-1.449-0.476-2.187-0.75-0.722-0.274-1.403-0.568-2.063-0.906v6.0938c0.62784 0.28991 1.2316 0.52548 1.8438 0.71875 0.61214 0.19327 1.247 0.33991 1.9062 0.46875 0.65922 0.12885 1.356 0.23293 2.0938 0.28125 0.738 0.064 1.543 0.093 2.406 0.093 1.6324-0.000001 3.119-0.17692 4.4375-0.53125 1.3184-0.35433 2.4177-0.88509 3.3438-1.5938 0.927-0.709 1.655-1.593 2.157-2.656s0.75-2.302 0.75-3.719c0-1.192-0.186-2.225-0.531-3.062-0.346-0.838-0.825-1.56-1.469-2.188-0.64355-0.62811-1.4178-1.1731-2.3125-1.6562-0.89469-0.49927-1.8856-1.0007-3-1.5-0.95747-0.45095-1.7473-0.81897-2.3438-1.125-0.59646-0.3221-1.0454-0.61729-1.375-0.875-0.32963-0.27378-0.54638-0.53964-0.65625-0.78125-0.10988-0.25767-0.18751-0.55286-0.1875-0.875-0.00001-0.612 0.23245-1.0831 0.65625-1.4375 0.43948-0.3543 1.1206-0.53123 2.0938-0.53125 1.083 0.000022 2.167 0.16084 3.25 0.53125 1.083 0.37045 2.2446 0.85771 3.4375 1.4375l2.1562-5.2188c-1.49-0.741-2.93-1.286-4.343-1.657-1.413-0.37-2.93-0.562-4.5-0.562z"/>
  <path id="path3747" style="opacity:.6;fill:#123b72" d="m26 36v1h11c2.6493 0.000039 4.9393 0.32902 6.8125 0.90625 1.9011 0.56209 3.4414 1.367 4.625 2.4062 1.2055 1.0252 2.1091 2.2723 2.6875 3.7812 0.52607 1.3566 0.79347 2.9008 0.84375 4.625 0.003-0.158 0.03-0.31 0.03-0.469 0-1.949-0.294-3.658-0.875-5.156-0.578-1.509-1.482-2.756-2.687-3.782-1.184-1.039-2.724-1.844-4.626-2.406-1.873-0.577-4.163-0.906-6.812-0.906h-11zm37.875 12c-1.4911 0.00003-2.8382 0.14666-4.0625 0.46875-1.2086 0.30604-2.2305 0.77815-3.0938 1.4062-0.86328 0.62815-1.5291 1.4248-2 2.375-0.47088 0.93416-0.71875 2.025-0.71875 3.2812 0 0.159 0.02589 0.31576 0.03125 0.46875 0.06159-1.0307 0.28568-1.9529 0.6875-2.75 0.47088-0.95022 1.1367-1.7468 2-2.375 0.86328-0.6281 1.8852-1.1002 3.0938-1.4062 1.2243-0.32209 2.5714-0.46872 4.0625-0.46875 1.5696 0.00003 3.0873 0.19209 4.5 0.5625 1.303 0.34171 2.6318 0.84458 4 1.5l0.34375-0.84375c-1.491-0.74-2.931-1.285-4.344-1.656-1.413-0.37-2.93-0.562-4.5-0.562zm-19.719 1.125c-0.09773 2.054-0.75204 3.6646-2.0938 4.6875-1.4163 1.0962-3.4459 1.5625-6.0312 1.5625h-2.375v1h2.375c2.5853 0.000023 4.6149-0.46634 6.0312-1.5625 1.4564-1.1104 2.125-2.9068 2.125-5.2188-0.000002-0.16196-0.02445-0.31168-0.03125-0.46875zm17.031 6.7812c-0.04415 0.16447-0.0625 0.34-0.0625 0.53125-0.00001 0.32214 0.07762 0.61733 0.1875 0.875 0.10987 0.24161 0.32662 0.50747 0.65625 0.78125 0.3296 0.25771 0.77854 0.5529 1.375 0.875 0.59644 0.30603 1.3863 0.67405 2.3438 1.125 1.1144 0.4993 2.1053 1.0007 3 1.5 0.89465 0.48319 1.6689 1.0281 2.3125 1.6562 0.64352 0.62814 1.1234 1.35 1.4688 2.1875 0.299 0.72522 0.45722 1.5991 0.5 2.5938 0.009-0.177 0.032-0.348 0.032-0.531 0-1.192-0.186-2.225-0.531-3.062-0.346-0.838-0.825-1.56-1.469-2.188-0.64355-0.62811-1.4178-1.1731-2.3125-1.6562-0.89469-0.49927-1.8856-1.0007-3-1.5-0.95747-0.45095-1.7473-0.81897-2.3438-1.125-0.59646-0.3221-1.0454-0.61729-1.375-0.875-0.32963-0.27378-0.54638-0.53964-0.65625-0.78125-0.05494-0.12884-0.09186-0.25998-0.125-0.40625zm-7.125 12.438v1c0.65923 0.33823 1.3405 0.63246 2.0625 0.90625 0.73771 0.2738 1.4655 0.54063 2.1875 0.75 0.72201 0.19328 1.4188 0.32476 2.0938 0.4375 0.69062 0.11275 1.3255 0.1875 1.9062 0.1875 0.64352 0.000005 1.2011-0.07475 1.6562-0.1875 0.45517-0.12884 0.81121-0.29062 1.0938-0.5 0.29821-0.22548 0.49942-0.49134 0.625-0.78125 0.14125-0.306 0.21874-0.63052 0.21875-0.96875-0.000009-0.20841-0.02328-0.39016-0.0625-0.5625-0.03668 0.18266-0.07693 0.35942-0.15625 0.53125-0.12558 0.28991-0.32679 0.55578-0.625 0.78125-0.28254 0.20938-0.63858 0.37116-1.0938 0.5-0.4552 0.11275-1.0127 0.1875-1.6562 0.1875-0.58076 0.000005-1.2156-0.07475-1.9062-0.1875-0.676-0.113-1.372-0.245-2.095-0.438-0.722-0.209-1.449-0.476-2.187-0.75-0.722-0.274-1.403-0.568-2.063-0.906z"/>
  <path id="path3757" style="opacity:.2;fill:#0c2548" d="m26 36v40h7.6562v-14.656h2.6562c3.0078 0.000014 5.4963-0.37613 7.4688-1.0938 2.0176-0.72729 3.6261-1.692 4.8125-2.875 1.2174-1.1958 2.0687-2.56 2.5938-4.125 0.53368-1.5909 0.81247-3.2577 0.8125-5-0.000032-1.9495-0.29403-3.6581-0.875-5.1562-0.578-1.509-1.482-2.756-2.687-3.782-1.184-1.039-2.724-1.844-4.626-2.406-1.873-0.577-4.163-0.906-6.812-0.906h-11zm1.0625 1.0625h9.9375c2.5606 0.000038 4.7521 0.33638 6.5 0.875 1.7853 0.52787 3.1753 1.2713 4.2188 2.1875a1.071 1.071 0 0 0 0.03125 0c1.0802 0.91857 1.8595 1.9987 2.375 3.3438 0.52577 1.3558 0.81247 2.9395 0.8125 4.7812-0.00003 1.6281-0.25229 3.1726-0.75 4.6562-0.47371 1.412-1.2388 2.6333-2.3438 3.7188-1.0497 1.0468-2.5333 1.9386-4.4375 2.625-1.8135 0.65978-4.1752 1.0313-7.0938 1.0312h-2.6562a1.071 1.071 0 0 0 -1.0625 1.0625v13.594h-5.5312v-37.875zm6.4062 3.8438a1.071 1.071 0 0 0 -0.875 1.0625v13.406a1.071 1.071 0 0 0 1.0625 1.0625h2.375c2.7141 0.000024 4.9958-0.472 6.6875-1.7812 1.7737-1.3522 2.5312-3.5441 2.5312-6.0625-0.000028-2.3555-0.68016-4.4494-2.2812-5.8125-1.5665-1.3561-3.7507-1.875-6.4062-1.875h-2.9062a1.071 1.071 0 0 0 -0.1875 0zm0.1875 1.0625h2.9062c2.5114 0.000035 4.4274 0.5071 5.7188 1.625 1.3069 1.1127 1.9062 2.8428 1.9062 5-0.000026 2.3119-0.66857 4.1084-2.125 5.2188-1.4163 1.0962-3.4459 1.5625-6.0312 1.5625h-2.375v-13.406zm30.219 6.032c-1.4911 0.00003-2.8382 0.14666-4.0625 0.46875-1.2086 0.30604-2.2305 0.77815-3.0938 1.4062-0.86328 0.62815-1.5291 1.4248-2 2.375-0.47088 0.93416-0.71875 2.025-0.71875 3.2812-0.000001 1.1435 0.13942 2.1313 0.40625 2.9688 0.26683 0.82142 0.65383 1.5745 1.1875 2.2188 0.54936 0.64425 1.2619 1.2185 2.0938 1.75 0.84758 0.5154 1.8229 1.031 2.9688 1.5625 1.1772 0.54761 2.1219 1.0197 2.8125 1.4062 0.70631 0.37044 1.2327 0.72525 1.5938 1.0312 0.36099 0.28992 0.59332 0.56996 0.6875 0.84375 0.10986 0.2577 0.15624 0.53679 0.15625 0.875-0.000015 0.33823-0.0775 0.66274-0.21875 0.96875-0.12558 0.28991-0.32679 0.55578-0.625 0.78125-0.28254 0.20938-0.63858 0.37116-1.0938 0.5-0.4552 0.11275-1.0127 0.1875-1.6562 0.1875-0.58076 0.000005-1.2156-0.07475-1.9062-0.1875-0.675-0.113-1.371-0.245-2.094-0.438-0.722-0.209-1.449-0.476-2.187-0.75-0.722-0.274-1.403-0.568-2.063-0.906v6.0938c0.62784 0.28991 1.2316 0.52548 1.8438 0.71875 0.61214 0.19327 1.247 0.33991 1.9062 0.46875 0.65922 0.12885 1.356 0.23293 2.0938 0.28125 0.738 0.064 1.543 0.093 2.406 0.093 1.6324-0.000001 3.119-0.17692 4.4375-0.53125 1.3184-0.35433 2.4177-0.88509 3.3438-1.5938 0.927-0.709 1.655-1.593 2.157-2.656s0.75-2.302 0.75-3.719c0-1.192-0.186-2.225-0.531-3.062-0.346-0.838-0.825-1.56-1.469-2.188-0.64355-0.62811-1.4178-1.1731-2.3125-1.6562-0.89469-0.49927-1.8856-1.0007-3-1.5-0.95747-0.45095-1.7473-0.81897-2.3438-1.125-0.59646-0.3221-1.0454-0.61729-1.375-0.875-0.32963-0.27378-0.54638-0.53964-0.65625-0.78125-0.10988-0.25767-0.18751-0.55286-0.1875-0.875-0.00001-0.612 0.23245-1.0831 0.65625-1.4375 0.43948-0.3543 1.1206-0.53123 2.0938-0.53125 1.083 0.000022 2.167 0.16084 3.25 0.53125 1.083 0.37045 2.2446 0.85771 3.4375 1.4375l2.1562-5.2188c-1.49-0.741-2.93-1.286-4.343-1.657-1.413-0.37-2.93-0.562-4.5-0.562zm0 1.0625c1.4822 0.000028 2.9003 0.18554 4.2188 0.53125 1.0331 0.27092 2.1319 0.73555 3.2188 1.2188l-1.3438 3.2188c-0.847-0.378-1.705-0.759-2.5-1.031-1.201-0.411-2.405-0.594-3.594-0.594-1.103 0.000025-2.0565 0.1657-2.7812 0.75a1.071 1.071 0 0 0 0 0.03125c-0.63433 0.53038-1.0313 1.3668-1.0312 2.25-0.000015 0.49422 0.09576 0.91954 0.25 1.2812a1.071 1.071 0 0 0 0.031 0.032c0.20703 0.45529 0.52325 0.81218 0.9375 1.1562a1.071 1.071 0 0 0 0.03125 0.03125c0.38873 0.30394 0.89177 0.62342 1.5312 0.96875 0.62784 0.32214 1.4197 0.70634 2.375 1.1562a1.071 1.071 0 0 0 0.03125 0c1.0864 0.48676 2.0389 0.98476 2.9062 1.4688a1.071 1.071 0 0 0 0.03125 0c0.82575 0.44598 1.5046 0.95553 2.0625 1.5 0.54048 0.52756 0.92404 1.0978 1.2188 1.8125 0.27863 0.67584 0.46873 1.5758 0.46875 2.6562-0.00002 1.2925-0.23315 2.3545-0.65625 3.25-0.4296 0.90914-1.0442 1.6694-1.8438 2.2812-0.80623 0.61695-1.7651 1.0828-2.9688 1.4062-1.2099 0.32515-2.6013 0.5-4.1562 0.5-0.83903 0-1.614-0.03275-2.3125-0.09375a1.071 1.071 0 0 0 -0.03125 0c-0.682-0.044-1.311-0.158-1.938-0.281-0.636-0.124-1.255-0.261-1.812-0.437-0.36-0.113-0.731-0.257-1.094-0.406v-3.75c0.21026 0.08631 0.40985 0.19966 0.625 0.28125 0.74033 0.27478 1.4791 0.55771 2.25 0.78125a1.071 1.071 0 0 0 0.03125 0c0.77107 0.20641 1.4972 0.35346 2.1875 0.46875 0.71933 0.11744 1.4211 0.18751 2.0938 0.1875 0.72646 0.000006 1.3602-0.08349 1.9062-0.21875a1.071 1.071 0 0 0 0.03125 0c0.54039-0.15297 1.0212-0.34773 1.4375-0.65625a1.071 1.071 0 0 0 0.03125 -0.03125c0.4364-0.32996 0.741-0.73388 0.9375-1.1875 0.19954-0.43228 0.31248-0.90449 0.3125-1.4062-0.000018-0.41542-0.06046-0.82147-0.21875-1.2188-0.0079-0.01977 0.0084-0.04286 0-0.0625h-0.03125c-0.196-0.524-0.551-0.914-0.967-1.252-0.009-0.007-0.022-0.023-0.031-0.031-0.433-0.362-0.987-0.739-1.719-1.125-0.0093-0.0049-0.02185 0.0049-0.03125 0-0.7272-0.40599-1.6933-0.88781-2.875-1.4375-1.1164-0.51784-2.0369-1.0094-2.8438-1.5-0.77074-0.49241-1.3872-0.99579-1.8438-1.5312-0.42864-0.51743-0.73709-1.1405-0.96875-1.8438-0.0026-0.0082 0.0026-0.02304 0-0.03125-0.22086-0.70395-0.375-1.5807-0.375-2.625-0.000001-1.1154 0.23696-2.0427 0.625-2.8125 0.39827-0.8037 0.92944-1.4399 1.6562-1.9688 0.74461-0.54176 1.625-0.97304 2.7188-1.25a1.071 1.071 0 0 0 0.03125 0c1.1147-0.29326 2.3603-0.43747 3.7812-0.4375z"/>
  <path id="path3764" style="opacity:.8;fill:#fff" d="m33.656 41.969v1h2.9062c2.5114 0.000035 4.4274 0.5071 5.7188 1.625 1.2088 1.0291 1.7912 2.5963 1.875 4.5312 0.0084-0.17562 0.03125-0.34915 0.03125-0.53125-0.000026-2.1572-0.59936-3.8873-1.9062-5-1.2913-1.1179-3.2073-1.625-5.7188-1.625h-2.9062zm18.312 6.75c-0.04621 1.5703-0.29642 3.086-0.78125 4.5312-0.52506 1.565-1.3764 2.9292-2.5938 4.125-1.1864 1.183-2.7949 2.1477-4.8125 2.875-1.9725 0.71762-4.4609 1.0938-7.4688 1.0938h-2.6562v1h2.6562c3.0078 0.000014 5.4963-0.37613 7.4688-1.0938 2.0176-0.72729 3.6261-1.692 4.8125-2.875 1.2174-1.1958 2.0687-2.56 2.5938-4.125 0.53368-1.5909 0.81247-3.2577 0.8125-5-0.000003-0.18423-0.026-0.35129-0.03125-0.53125zm20.407 2.343-1.813 4.376c-1.192-0.58-2.354-1.068-3.437-1.438-1.083-0.37041-2.167-0.53123-3.25-0.53125-0.97316 0.000022-1.6543 0.17695-2.0938 0.53125-0.4238 0.35435-0.65626 0.8255-0.65625 1.4375-0.000005 0.16107 0.02936 0.32248 0.0625 0.46875 0.09712-0.36184 0.30239-0.66263 0.59375-0.90625 0.43948-0.3543 1.1206-0.53123 2.0938-0.53125 1.083 0.000022 2.167 0.16084 3.25 0.53125 1.083 0.37045 2.2446 0.85771 3.4375 1.4375l2.1562-5.2188c-0.115-0.057-0.228-0.1-0.343-0.156zm-18.344 4.938c-0.01 0.177-0.031 0.347-0.031 0.531-0.000001 1.1435 0.13942 2.1313 0.40625 2.9688 0.26683 0.82142 0.65383 1.5745 1.1875 2.2188 0.54936 0.64425 1.2619 1.2185 2.0938 1.75 0.84758 0.5154 1.8229 1.031 2.9688 1.5625 1.1772 0.54761 2.1219 1.0197 2.8125 1.4062 0.70631 0.37044 1.2327 0.72525 1.5938 1.0312 0.36099 0.28992 0.59332 0.56996 0.6875 0.84375 0.04216 0.0989 0.06932 0.20517 0.09375 0.3125 0.02864-0.14262 0.06249-0.2892 0.0625-0.4375-0.000015-0.33821-0.04639-0.6173-0.15625-0.875-0.09418-0.27379-0.32651-0.55384-0.6875-0.84375-0.36102-0.306-0.88744-0.6608-1.5938-1.0312-0.69063-0.38653-1.6353-0.85864-2.8125-1.4062-1.1458-0.53148-2.1212-1.0471-2.9688-1.5625-0.83189-0.53148-1.5444-1.1058-2.0938-1.75-0.533-0.643-0.92-1.397-1.187-2.218-0.229-0.721-0.342-1.553-0.375-2.5zm18.938 12.031c-0.056 1.195-0.281 2.262-0.719 3.188-0.502 1.063-1.23 1.947-2.156 2.656s-2.026 1.239-3.344 1.594c-1.318 0.354-2.805 0.531-4.438 0.531-0.863 0-1.668-0.029-2.406-0.094-0.737-0.048-1.434-0.152-2.094-0.281-0.659-0.129-1.294-0.275-1.906-0.469-0.612-0.193-1.216-0.429-1.844-0.718v1c0.62784 0.28991 1.2316 0.52548 1.8438 0.71875 0.61214 0.19327 1.247 0.33991 1.9062 0.46875 0.65922 0.12885 1.356 0.23293 2.0938 0.28125 0.738 0.064 1.543 0.093 2.406 0.093 1.6324-0.000001 3.119-0.17692 4.4375-0.53125 1.3184-0.35433 2.4177-0.88509 3.3438-1.5938 0.92604-0.70865 1.654-1.5933 2.1562-2.6562 0.50225-1.063 0.74998-2.3014 0.75-3.7188-0.000003-0.1598-0.02463-0.31475-0.03125-0.46875zm-46.969 7.969v1h7.6562v-1h-7.656z"/>
 </g>
</svg>
