<?xml version="1.0" encoding="UTF-8" standalone="no"?>
<!-- Created with Inkscape (http://www.inkscape.org/) -->
<svg id="svg2408" xmlns:rdf="http://www.w3.org/1999/02/22-rdf-syntax-ns#" xmlns="http://www.w3.org/2000/svg" height="96" width="96" version="1.0" xmlns:cc="http://creativecommons.org/ns#" xmlns:xlink="http://www.w3.org/1999/xlink" xmlns:dc="http://purl.org/dc/elements/1.1/">
 <defs id="defs2410">
  <linearGradient id="ButtonShadow" y2="7.0165" gradientUnits="userSpaceOnUse" x2="45.448" gradientTransform="scale(1.0059 .99417)" y1="92.54" x1="45.448">
   <stop id="stop3750" offset="0"/>
   <stop id="stop3752" style="stop-opacity:.58824" offset="1"/>
  </linearGradient>
  <linearGradient id="linearGradient3706" y2="5.9877" gradientUnits="userSpaceOnUse" x2="48" y1="90" x1="48">
   <stop id="stop3702" style="stop-color:#ebebeb" offset="0"/>
   <stop id="stop3704" style="stop-color:#fafafa" offset="1"/>
  </linearGradient>
  <filter id="filter3174" color-interpolation-filters="sRGB">
   <feGaussianBlur id="feGaussianBlur3176" stdDeviation="1.71"/>
  </filter>
  <linearGradient id="ButtonShadow-0" y2="7.0165" gradientUnits="userSpaceOnUse" x2="45.448" gradientTransform="matrix(1.0059 0 0 .99417 100 0)" y1="92.54" x1="45.448">
   <stop id="stop3750-8" offset="0"/>
   <stop id="stop3752-5" style="stop-opacity:.58824" offset="1"/>
  </linearGradient>
  <linearGradient id="linearGradient3780" y2="90.239" xlink:href="#ButtonShadow-0" gradientUnits="userSpaceOnUse" x2="32.251" gradientTransform="matrix(1.0238 0 0 1.0119 -1.1429 -98.071)" y1="6.1317" x1="32.251"/>
  <linearGradient id="linearGradient3721" y2="90.239" xlink:href="#ButtonShadow-0" gradientUnits="userSpaceOnUse" x2="32.251" gradientTransform="translate(0,-97)" y1="6.1317" x1="32.251"/>
  <radialGradient id="radialGradient2886" gradientUnits="userSpaceOnUse" cy="90.172" cx="48" gradientTransform="matrix(1.1573 0 0 .99591 -7.551 .19713)" r="42">
   <stop id="stop3739-6" style="stop-color:#fff" offset="0"/>
   <stop id="stop3741-0" style="stop-color:#fff;stop-opacity:0" offset="1"/>
  </radialGradient>
  <linearGradient id="linearGradient3923" y2="63.893" gradientUnits="userSpaceOnUse" x2="36.357" y1="6" x1="36.357">
   <stop id="stop3739-9" style="stop-color:#fff" offset="0"/>
   <stop id="stop3741-3" style="stop-color:#fff;stop-opacity:0" offset="1"/>
  </linearGradient>
  <linearGradient id="linearGradient3845" y2="23.99" gradientUnits="userSpaceOnUse" x2="48" y1="72" x1="48">
   <stop id="stop3699" style="stop-color:#bababa" offset="0"/>
   <stop id="stop3701" style="stop-color:#d2d2d2" offset="1"/>
  </linearGradient>
  <clipPath id="clipPath3875">
   <path id="path3877" style="fill:#f0f" d="m-88 6c-3.324 0-6 2.676-6 6v72c0 3.324 2.676 6 6 6h72c3.324 0 6-2.676 6-6v-72c0-3.324-2.676-6-6-6h-72zm36 18c13.255 0 24 10.745 24 24s-10.745 24-24 24-24-10.745-24-24 10.745-24 24-24zm0 6c-9.9411 0-18 8.0589-18 18s8.0589 18 18 18 18-8.0589 18-18-8.0589-18-18-18zm0.46875 4c1.7765 0.000028 3.3303 0.18919 4.6562 0.5625 1.3388 0.37336 2.5032 0.91148 3.4688 1.5938 0.97837 0.66945 1.7754 1.4481 2.4062 2.375 0.64365 0.91404 1.1395 1.9241 1.5 3.0312l-5 1.375c-0.18025-0.57929-0.47044-1.1284-0.84375-1.6562-0.37335-0.54067-0.85821-1.0255-1.4375-1.4375-0.56646-0.41193-1.2276-0.72413-2-0.96875-0.77243-0.25745-1.6466-0.40623-2.625-0.40625-1.3775 0.000023-2.5712 0.23695-3.5625 0.6875-0.99128 0.43772-1.7938 1.0824-2.4375 1.9062-0.63081 0.82393-1.0973 1.8101-1.4062 2.9688-0.2961 1.1458-0.43751 2.4148-0.4375 3.8438-0.000007 1.4161 0.1414 2.7219 0.4375 3.9062 0.30896 1.1715 0.76256 2.1816 1.4062 3.0312 0.64367 0.84966 1.4959 1.5237 2.5 2 1.017 0.47633 2.2089 0.71875 3.625 0.71875 1.0685 0.000004 2.0088-0.17265 2.7812-0.46875 0.78527-0.30896 1.4648-0.6983 2.0312-1.1875 0.57929-0.48919 1.0329-1.0383 1.4062-1.6562 0.38618-0.61792 0.72413-1.2442 0.96875-1.875l4.9375 1.875c-0.39911 0.9784-0.91885 1.9352-1.5625 2.875-0.6437 0.93977-1.4408 1.7791-2.4062 2.5-0.96554 0.72092-2.0987 1.2994-3.4375 1.75-1.326 0.437-2.917 0.656-4.719 0.656-2.3559 0-4.4-0.33608-6.125-1.0312-1.7251-0.70804-3.1484-1.6888-4.2812-2.9375-1.12-1.2616-1.9464-2.7749-2.5-4.5-0.54069-1.725-0.8125-3.6093-0.8125-5.6562-0.000002-2.1241 0.27181-4.0378 0.8125-5.75 0.55356-1.7122 1.3929-3.1777 2.5-4.375 1.1071-1.2101 2.5011-2.1063 4.1875-2.75 1.6993-0.65652 3.6772-0.99997 5.9688-1z"/>
  </clipPath>
  <filter id="filter3879" height="1.288" width="1.288" color-interpolation-filters="sRGB" y="-0.144" x="-0.144">
   <feGaussianBlur id="feGaussianBlur3881" stdDeviation="2.88"/>
  </filter>
  <clipPath id="clipPath3613">
   <rect id="rect3615" style="fill:#fff" rx="6" ry="6" height="84" width="84" y="6" x="6"/>
  </clipPath>
  <filter id="filter3794" height="1.384" width="1.384" color-interpolation-filters="sRGB" y="-.192" x="-.192">
   <feGaussianBlur id="feGaussianBlur3796" stdDeviation="5.28"/>
  </filter>
  <linearGradient id="linearGradient4458" y2="138.66" gradientUnits="userSpaceOnUse" x2="48" y1="20.221" x1="48">
   <stop id="stop3739-2" style="stop-color:#fff" offset="0"/>
   <stop id="stop3741-1" style="stop-color:#fff;stop-opacity:0" offset="1"/>
  </linearGradient>
 </defs>
 <metadata id="metadata2413">
  <rdf:RDF>
   <cc:Work rdf:about="">
    <dc:format>image/svg+xml</dc:format>
    <dc:type rdf:resource="http://purl.org/dc/dcmitype/StillImage"/>
    <dc:title/>
   </cc:Work>
  </rdf:RDF>
 </metadata>
 <g id="layer2" style="display:none">
  <rect id="rect3745" style="opacity:.9;filter:url(#filter3174);fill:url(#ButtonShadow)" rx="6" ry="6" height="85" width="86" y="7" x="5"/>
 </g>
 <g id="layer6">
  <path id="path3786" style="opacity:0.08;fill:url(#linearGradient3780)" d="m12-95.031c-5.5111 0-10.031 4.5202-10.031 10.031v71c0 5.5111 4.5202 10.031 10.031 10.031h72c5.5111 0 10.031-4.5202 10.031-10.031v-71c0-5.5111-4.5202-10.031-10.031-10.031h-72z" transform="scale(1,-1)"/>
  <path id="path3778" style="opacity:.1;fill:url(#linearGradient3780)" d="m12-94.031c-4.9716 0-9.0312 4.0596-9.0312 9.0312v71c0 4.9716 4.0596 9.0312 9.0312 9.0312h72c4.9716 0 9.0312-4.0596 9.0312-9.0312v-71c0-4.9716-4.0596-9.0312-9.0312-9.0312h-72z" transform="scale(1,-1)"/>
  <path id="path3770" style="opacity:.2;fill:url(#linearGradient3780)" d="m12-93c-4.4091 0-8 3.5909-8 8v71c0 4.4091 3.5909 8 8 8h72c4.4091 0 8-3.5909 8-8v-71c0-4.4091-3.5909-8-8-8h-72z" transform="scale(1,-1)"/>
  <rect id="rect3723" style="opacity:.3;fill:url(#linearGradient3780)" transform="scale(1,-1)" rx="7" ry="7" height="85" width="86" y="-92" x="5"/>
  <rect id="rect3716" style="opacity:.45;fill:url(#linearGradient3721)" transform="scale(1,-1)" rx="6" ry="6" height="84" width="84" y="-91" x="6"/>
 </g>
 <g id="layer1">
  <rect id="rect2419" style="fill:url(#linearGradient3706)" rx="6" ry="6" height="84" width="84" y="6" x="6"/>
  <path id="rect3728" style="opacity:.5;fill:url(#linearGradient3923)" d="m12 6c-3.324 0-6 2.676-6 6v2 68 2c0 0.33472 0.04135 0.6507 0.09375 0.96875 0.0487 0.2956 0.09704 0.59692 0.1875 0.875 0.0099 0.03038 0.02089 0.0636 0.03125 0.09375 0.09886 0.28777 0.23488 0.54745 0.375 0.8125 0.14459 0.27351 0.31562 0.53562 0.5 0.78125 0.18438 0.24564 0.37378 0.47347 0.59375 0.6875 0.43995 0.42806 0.94291 0.81453 1.5 1.0938 0.27854 0.13961 0.57347 0.24695 0.875 0.34375-0.2562-0.10022-0.48671-0.23627-0.71875-0.375-0.0074-0.0044-0.02387 0.0045-0.03125 0-0.03193-0.0193-0.06229-0.04251-0.09375-0.0625-0.1204-0.0767-0.23102-0.16351-0.34375-0.25-0.10617-0.0808-0.21328-0.16111-0.3125-0.25-0.1778-0.162-0.3473-0.346-0.4999-0.531-0.1075-0.131-0.2183-0.266-0.3124-0.407-0.0251-0.038-0.0385-0.086-0.0626-0.125-0.0647-0.103-0.1302-0.204-0.1874-0.312-0.1011-0.195-0.2057-0.416-0.2813-0.625-0.008-0.022-0.0236-0.041-0.0313-0.063-0.0318-0.092-0.0358-0.187-0.0624-0.281-0.0304-0.107-0.0704-0.203-0.0938-0.313-0.0729-0.341-0.125-0.698-0.125-1.062v-2-68-2c0-2.782 2.2182-5 5-5h2 68 2c2.7818 0 5 2.2182 5 5v2 68 2c0 0.3643-0.05212 0.72099-0.125 1.0625-0.04415 0.20689-0.08838 0.39766-0.15625 0.59375-0.0077 0.02195-0.0233 0.04069-0.03125 0.0625-0.06274 0.17374-0.13838 0.36745-0.21875 0.53125-0.04158 0.0828-0.07904 0.16995-0.125 0.25-0.0546 0.09721-0.12677 0.18835-0.1875 0.28125-0.09411 0.14096-0.20492 0.276-0.3125 0.40625-0.14317 0.17445-0.30314 0.347-0.46875 0.5-0.01117 0.0102-0.01998 0.02115-0.03125 0.03125-0.13839 0.12556-0.28509 0.23444-0.4375 0.34375-0.10257 0.07315-0.20432 0.15336-0.3125 0.21875-0.0074 0.0045-0.02384-0.0044-0.03125 0-0.23204 0.13873-0.46255 0.27478-0.71875 0.375 0.30153-0.0968 0.59646-0.20414 0.875-0.34375 0.55709-0.27922 1.0601-0.66569 1.5-1.0938 0.21997-0.21403 0.40937-0.44186 0.59375-0.6875s0.35541-0.50774 0.5-0.78125c0.14012-0.26505 0.27614-0.52473 0.375-0.8125 0.01041-0.03078 0.02133-0.06274 0.03125-0.09375 0.09046-0.27808 0.1388-0.5794 0.1875-0.875 0.053-0.318 0.094-0.634 0.094-0.969v-2-68-2c0-3.324-2.676-6-6-6h-72z"/>
  <path id="path3615" style="opacity:.4;fill:url(#radialGradient2886)" d="m12 90c-3.324 0-6-2.676-6-6v-2-68-2c0-0.33472 0.04135-0.6507 0.09375-0.96875 0.0487-0.2956 0.09704-0.59692 0.1875-0.875 0.0099-0.03 0.0209-0.063 0.0313-0.094 0.0989-0.2873 0.2349-0.547 0.375-0.812 0.1446-0.2735 0.3156-0.5356 0.5-0.7812 0.1844-0.2457 0.3738-0.4735 0.5937-0.6876 0.44-0.428 0.943-0.8145 1.5-1.0937 0.2786-0.1396 0.5735-0.2469 0.8748-0.3437-0.256 0.1002-0.4865 0.2362-0.7185 0.375-0.00741 0.0044-0.023866-0.0045-0.03125 0-0.031933 0.0193-0.062293 0.04251-0.09375 0.0625-0.1204 0.0767-0.23102 0.16351-0.34375 0.25-0.10617 0.0808-0.21328 0.16111-0.3125 0.25-0.1779 0.1614-0.3474 0.3453-0.5 0.5312-0.1075 0.1303-0.2183 0.2653-0.3124 0.4063-0.0251 0.0383-0.0385 0.0858-0.0626 0.125-0.0647 0.103-0.1302 0.2045-0.1874 0.3124-0.1011 0.1948-0.2057 0.4158-0.2813 0.625-0.008 0.0219-0.0236 0.0406-0.0313 0.0626-0.0318 0.0919-0.0358 0.1868-0.0624 0.2812-0.0304 0.1066-0.0704 0.203-0.0938 0.3125-0.0729 0.3415-0.125 0.6985-0.125 1.0625v2 68 2c0 2.7818 2.2182 5 5 5h2 68 2c2.7818 0 5-2.2182 5-5v-2-68-2c0-0.364-0.052-0.721-0.125-1.0625-0.044-0.2069-0.088-0.3977-0.156-0.5937-0.008-0.022-0.024-0.0407-0.031-0.0626-0.063-0.1737-0.139-0.3674-0.219-0.5312-0.042-0.0828-0.079-0.17-0.125-0.25-0.055-0.0972-0.127-0.1884-0.188-0.2812-0.094-0.141-0.205-0.276-0.312-0.4063-0.143-0.1745-0.303-0.347-0.469-0.5-0.011-0.0102-0.02-0.0211-0.031-0.0313-0.139-0.1255-0.285-0.2344-0.438-0.3437-0.102-0.0731-0.204-0.1534-0.312-0.2187-0.0074-0.0045-0.02384 0.0044-0.03125 0-0.23204-0.13873-0.46255-0.27478-0.71875-0.375 0.30153 0.0968 0.59646 0.20414 0.875 0.34375 0.55709 0.27922 1.0601 0.66569 1.5 1.0938 0.21997 0.21403 0.40937 0.44186 0.59375 0.6875s0.35541 0.50774 0.5 0.78125c0.14012 0.26505 0.27614 0.52473 0.375 0.8125 0.01041 0.03078 0.02133 0.06274 0.03125 0.09375 0.09046 0.27808 0.1388 0.5794 0.1875 0.875 0.053 0.318 0.094 0.634 0.094 0.969v2 68 2c0 3.324-2.676 6-6 6h-72z"/>
  <rect id="rect3654" style="fill:#f0f" rx="6" ry="6" height="84" width="84" y="6" x="-94"/>
  <rect id="rect3797" style="stroke-width:.5;color:#000000;stroke-dashoffset:8.6;stroke:#000;stroke-linecap:round;fill:#fff" height="16" width="16" y="8" x="112"/>
  <text id="text3799" y="11.969256" x="131.39261" xml:space="preserve" style="font-size:4px;line-height:125%;font-family:Liberation Sans;fill:#000000"><tspan id="tspan3801" y="11.969256" x="131.39261">Width: 2px</tspan><tspan id="tspan3803" y="16.969257" x="131.39261">Blur: 12</tspan><tspan id="tspan3807" y="21.969257" x="131.39261">Opacity: 60</tspan></text>
  <path id="path3866" style="opacity:.6;stroke-width:2;color:#000000;filter:url(#filter3879);stroke:#fff;fill:none" d="m-52 24c-13.255 0-24 10.745-24 24s10.745 24 24 24 24-10.745 24-24-10.745-24-24-24zm0 6c9.9411 0 18 8.0589 18 18s-8.0589 18-18 18-18-8.0589-18-18 8.0589-18 18-18zm0.46875 4c-2.2915 0.000028-4.2695 0.34348-5.9688 1-1.6864 0.6437-3.0804 1.5399-4.1875 2.75-1.1071 1.1973-1.9464 2.6628-2.5 4.375-0.54069 1.7122-0.8125 3.6259-0.8125 5.75-0.000002 2.0469 0.27181 3.9312 0.8125 5.6562 0.55356 1.7251 1.38 3.2384 2.5 4.5 1.1329 1.2487 2.5562 2.2295 4.2812 2.9375 1.725 0.69517 3.7691 1.0312 6.125 1.0312 1.8023 0 3.3928-0.21855 4.7188-0.65625 1.3388-0.45057 2.472-1.0291 3.4375-1.75 0.96549-0.72092 1.7625-1.5602 2.4062-2.5 0.64365-0.93976 1.1634-1.8966 1.5625-2.875l-4.9375-1.875c-0.24462 0.63081-0.58256 1.2571-0.96875 1.875-0.37336 0.61794-0.82696 1.1671-1.4062 1.6562-0.56646 0.4892-1.246 0.87854-2.0312 1.1875-0.77243 0.2961-1.7128 0.46875-2.7812 0.46875-1.4161 0.000004-2.608-0.24242-3.625-0.71875-1.0041-0.47632-1.8563-1.1503-2.5-2-0.64369-0.84965-1.0973-1.8597-1.4062-3.0312-0.2961-1.1844-0.43751-2.4901-0.4375-3.9062-0.000007-1.429 0.1414-2.698 0.4375-3.8438 0.30896-1.1586 0.77544-2.1448 1.4062-2.9688 0.64367-0.82389 1.4462-1.4685 2.4375-1.9062 0.99125-0.45055 2.185-0.68748 3.5625-0.6875 0.97838 0.000023 1.8526 0.1488 2.625 0.40625 0.7724 0.24462 1.4335 0.55682 2 0.96875 0.57929 0.41198 1.0641 0.89683 1.4375 1.4375 0.37331 0.52784 0.6635 1.077 0.84375 1.6562l5-1.375c-0.36049-1.1071-0.85635-2.1172-1.5-3.0312-0.63083-0.92687-1.4279-1.7056-2.4062-2.375-0.96554-0.68227-2.1299-1.2204-3.4688-1.5938-1.326-0.37331-2.8797-0.56247-4.6562-0.5625z" clip-path="url(#clipPath3875)" transform="translate(100)"/>
  <path id="path3836" style="color:#000000;fill:url(#linearGradient3845)" d="m48 24c-13.255 0-24 10.745-24 24s10.745 24 24 24 24-10.745 24-24-10.745-24-24-24zm0 6c9.9411 0 18 8.0589 18 18s-8.0589 18-18 18-18-8.0589-18-18 8.0589-18 18-18zm0.46875 4c-2.2915 0.000028-4.2695 0.34348-5.9688 1-1.6864 0.6437-3.0804 1.5399-4.1875 2.75-1.1071 1.1973-1.9464 2.6628-2.5 4.375-0.54069 1.7122-0.8125 3.6259-0.8125 5.75-0.000002 2.0469 0.27181 3.9312 0.8125 5.6562 0.55356 1.7251 1.38 3.2384 2.5 4.5 1.1329 1.2487 2.5562 2.2295 4.2812 2.9375 1.725 0.69517 3.7691 1.0312 6.125 1.0312 1.8023 0 3.3928-0.21855 4.7188-0.65625 1.3388-0.45057 2.472-1.0291 3.4375-1.75 0.96549-0.72092 1.7625-1.5602 2.4062-2.5 0.64365-0.93976 1.1634-1.8966 1.5625-2.875l-4.9375-1.875c-0.24462 0.63081-0.58256 1.2571-0.96875 1.875-0.37336 0.61794-0.82696 1.1671-1.4062 1.6562-0.56646 0.4892-1.246 0.87854-2.0312 1.1875-0.77243 0.2961-1.7128 0.46875-2.7812 0.46875-1.4161 0.000004-2.608-0.24242-3.625-0.71875-1.0041-0.47632-1.8563-1.1503-2.5-2-0.646-0.849-1.1-1.859-1.408-3.031-0.297-1.184-0.438-2.49-0.438-3.906-0.000007-1.429 0.1414-2.698 0.4375-3.8438 0.30896-1.1586 0.77544-2.1448 1.4062-2.9688 0.64367-0.82389 1.4462-1.4685 2.4375-1.9062 0.99125-0.45055 2.185-0.68748 3.5625-0.6875 0.97838 0.000023 1.8526 0.1488 2.625 0.40625 0.7724 0.24462 1.4335 0.55682 2 0.96875 0.57929 0.41198 1.0641 0.89683 1.4375 1.4375 0.37331 0.52784 0.6635 1.077 0.84375 1.6562l5-1.375c-0.36-1.108-0.856-2.118-1.5-3.032-0.631-0.927-1.428-1.705-2.406-2.375-0.966-0.682-2.13-1.22-3.469-1.594-1.326-0.373-2.88-0.562-4.656-0.562z"/>
  <path id="path3848" style="opacity:.2;color:#000000" d="m48 24c-13.255 0-24 10.745-24 24 0 0.16558-0.0033 0.33522 0 0.5 0.264-13.026 10.911-23.5 24-23.5s23.736 10.474 24 23.5c0.003-0.165 0-0.334 0-0.5 0-13.255-10.745-24-24-24zm0.46875 10c-2.2915 0.000028-4.2695 0.34348-5.9688 1-1.6864 0.6437-3.0804 1.5399-4.1875 2.75-1.1071 1.1973-1.9464 2.6628-2.5 4.375-0.54069 1.7122-0.8125 3.6259-0.8125 5.75 0 0.17072 0.02747 0.33154 0.03125 0.5 0.04002-1.9231 0.28385-3.6749 0.78125-5.25 0.55356-1.7122 1.3929-3.1777 2.5-4.375 1.1071-1.2101 2.5011-2.1063 4.1875-2.75 1.6993-0.65652 3.6772-0.99997 5.9688-1 1.7765 0.000028 3.3303 0.18919 4.6562 0.5625 1.3388 0.37336 2.5032 0.91148 3.4688 1.5938 0.97837 0.66945 1.7754 1.4481 2.4062 2.375 0.46453 0.65968 0.87226 1.3649 1.1875 2.125l0.311-0.094c-0.36-1.107-0.856-2.117-1.5-3.031-0.631-0.927-1.428-1.705-2.406-2.375-0.966-0.682-2.13-1.22-3.469-1.594-1.326-0.373-2.88-0.562-4.656-0.562zm-7.719 14.375c-0.0042 0.16842-0.000001 0.32695 0 0.5-0.000007 1.4161 0.1414 2.7219 0.4375 3.9062 0.30896 1.1715 0.76256 2.1816 1.4062 3.0312 0.64367 0.84966 1.4959 1.5237 2.5 2 1.017 0.47633 2.2089 0.71875 3.625 0.71875 1.0685 0.000004 2.0088-0.17265 2.7812-0.46875 0.78527-0.30896 1.4648-0.6983 2.0312-1.1875 0.57929-0.48919 1.0329-1.0383 1.4062-1.6562 0.38618-0.61792 0.72413-1.2442 0.96875-1.875l4.5312 1.7188c0.13819-0.28389 0.28897-0.55625 0.40625-0.84375l-4.9375-1.875c-0.24462 0.63081-0.58256 1.2571-0.96875 1.875-0.37336 0.61794-0.82696 1.1671-1.4062 1.6562-0.56646 0.4892-1.246 0.87854-2.0312 1.1875-0.77243 0.2961-1.7128 0.46875-2.7812 0.46875-1.4161 0.000004-2.608-0.24242-3.625-0.71875-1.0041-0.47632-1.8563-1.1503-2.5-2-0.644-0.85-1.098-1.86-1.406-3.032-0.261-1.041-0.408-2.185-0.438-3.406zm-10.719 0.125c-0.004 0.167-0.031 0.331-0.031 0.5 0 9.9411 8.0589 18 18 18s18-8.0589 18-18c0-0.16859-0.02664-0.33252-0.03125-0.5-0.267 9.708-8.196 17.5-17.969 17.5s-17.702-7.792-17.969-17.5z"/>
  <path id="path3857" style="color:#000000;fill:#fff" d="m48 30c-9.9411 0-18 8.0589-18 18 0 0.16859 0.02664 0.33252 0.03125 0.5 0.267-9.708 8.196-17.5 17.969-17.5s17.702 7.792 17.969 17.5c0.004-0.167 0.031-0.331 0.031-0.5 0-9.941-8.059-18-18-18zm0.59375 8.4688c-1.3775 0.000023-2.5712 0.23695-3.5625 0.6875-0.99128 0.43772-1.7938 1.0824-2.4375 1.9062-0.63081 0.82393-1.0973 1.8101-1.4062 2.9688-0.2961 1.1458-0.43751 2.4148-0.4375 3.8438-0.000001 0.17149-0.0042 0.33176 0 0.5 0.03027-1.2223 0.17726-2.3367 0.4375-3.3438 0.30896-1.1586 0.77544-2.1448 1.4062-2.9688 0.64367-0.82389 1.4462-1.4685 2.4375-1.9062 0.99125-0.45055 2.185-0.68748 3.5625-0.6875 0.97838 0.000023 1.8526 0.1488 2.625 0.40625 0.7724 0.24462 1.4335 0.55682 2 0.96875 0.57929 0.41198 1.0641 0.89683 1.4375 1.4375 0.37331 0.52784 0.6635 1.077 0.84375 1.6562l5-1.375c-0.1-0.309-0.191-0.614-0.312-0.907l-4.688 1.282c-0.18025-0.57929-0.47044-1.1284-0.84375-1.6562-0.37335-0.54067-0.85821-1.0255-1.4375-1.4375-0.56646-0.41193-1.2276-0.72413-2-0.96875-0.77243-0.25745-1.6466-0.40623-2.625-0.40625zm-13.563 9.906c-0.003 0.167-0.031 0.33-0.031 0.5-0.000002 2.0469 0.27181 3.9312 0.8125 5.6562 0.55356 1.7251 1.38 3.2384 2.5 4.5 1.1329 1.2487 2.5562 2.2295 4.2812 2.9375 1.725 0.69517 3.7691 1.0312 6.125 1.0312 1.8023 0 3.3928-0.21855 4.7188-0.65625 1.3388-0.45057 2.472-1.0291 3.4375-1.75 0.96549-0.72092 1.7625-1.5602 2.4062-2.5 0.64365-0.93976 1.1634-1.8966 1.5625-2.875l-0.406-0.157c-0.33209 0.68222-0.70173 1.3676-1.1562 2.0312-0.6437 0.93977-1.4408 1.7791-2.4062 2.5-0.96554 0.72092-2.0987 1.2994-3.4375 1.75-1.326 0.438-2.917 0.657-4.719 0.657-2.3559 0-4.4-0.33608-6.125-1.0312-1.7251-0.70804-3.1484-1.6888-4.2812-2.9375-1.12-1.2616-1.9464-2.7749-2.5-4.5-0.496-1.581-0.74-3.305-0.782-5.156zm-11.031 0.125c-0.0033 0.16478 0 0.33442 0 0.5 0 13.255 10.745 24 24 24s24-10.745 24-24c0-0.16558 0.0033-0.33522 0-0.5-0.264 13.026-10.911 23.5-24 23.5s-23.736-10.474-24-23.5z"/>
 </g>
 <g id="layer3">
  <rect id="rect3171" style="opacity:.5;filter:url(#filter3794);stroke:#fff;stroke-linecap:round;stroke-width:.5;fill:url(#linearGradient4458)" clip-path="url(#clipPath3613)" rx="12" ry="12" height="66" width="66" y="15" x="15"/>
 </g>
</svg>
