<?xml version="1.0" encoding="UTF-8" standalone="no"?>
<!-- Created with Inkscape (http://www.inkscape.org/) -->
<svg id="svg2408" xmlns:rdf="http://www.w3.org/1999/02/22-rdf-syntax-ns#" xmlns="http://www.w3.org/2000/svg" height="96" width="96" version="1.0" xmlns:cc="http://creativecommons.org/ns#" xmlns:xlink="http://www.w3.org/1999/xlink" xmlns:dc="http://purl.org/dc/elements/1.1/">
 <defs id="defs2410">
  <linearGradient id="linearGradient3827">
   <stop id="stop3829" style="stop-color:#fff" offset="0"/>
   <stop id="stop3831" style="stop-color:#fff;stop-opacity:0" offset="1"/>
  </linearGradient>
  <linearGradient id="linearGradient3739">
   <stop id="stop3742" style="stop-color:#eac456" offset="0"/>
   <stop id="stop3745" style="stop-color:#e9b92b;stop-opacity:0" offset="1"/>
  </linearGradient>
  <linearGradient id="ButtonShadow" y2="7.0165" gradientUnits="userSpaceOnUse" x2="45.448" gradientTransform="scale(1.0059 .99417)" y1="92.54" x1="45.448">
   <stop id="stop3750" offset="0"/>
   <stop id="stop3752" style="stop-opacity:.58824" offset="1"/>
  </linearGradient>
  <linearGradient id="linearGradient3706" y2="5.9877" gradientUnits="userSpaceOnUse" x2="48" y1="90" x1="48">
   <stop id="stop3702" style="stop-color:#e6e6e6" offset="0"/>
   <stop id="stop3704" style="stop-color:#f5f5f5" offset="1"/>
  </linearGradient>
  <filter id="filter3174" color-interpolation-filters="sRGB">
   <feGaussianBlur id="feGaussianBlur3176" stdDeviation="1.71"/>
  </filter>
  <linearGradient id="ButtonShadow-0" y2="7.0165" gradientUnits="userSpaceOnUse" x2="45.448" gradientTransform="matrix(1.0059 0 0 .99417 100 0)" y1="92.54" x1="45.448">
   <stop id="stop3750-8" offset="0"/>
   <stop id="stop3752-5" style="stop-opacity:.58824" offset="1"/>
  </linearGradient>
  <linearGradient id="linearGradient3780" y2="90.239" xlink:href="#ButtonShadow-0" gradientUnits="userSpaceOnUse" x2="32.251" gradientTransform="matrix(1.0238 0 0 1.0119 -1.1429 -98.071)" y1="6.1317" x1="32.251"/>
  <linearGradient id="linearGradient3721" y2="90.239" xlink:href="#ButtonShadow-0" gradientUnits="userSpaceOnUse" x2="32.251" gradientTransform="translate(0,-97)" y1="6.1317" x1="32.251"/>
  <radialGradient id="radialGradient2886" gradientUnits="userSpaceOnUse" cy="90.172" cx="48" gradientTransform="matrix(1.1573 0 0 .99591 -7.551 .19713)" r="42">
   <stop id="stop3739-6" style="stop-color:#fff" offset="0"/>
   <stop id="stop3741-0" style="stop-color:#fff;stop-opacity:0" offset="1"/>
  </radialGradient>
  <linearGradient id="linearGradient3923" y2="63.893" gradientUnits="userSpaceOnUse" x2="36.357" y1="6" x1="36.357">
   <stop id="stop3739-9" style="stop-color:#fff" offset="0"/>
   <stop id="stop3741-3" style="stop-color:#fff;stop-opacity:0" offset="1"/>
  </linearGradient>
  <linearGradient id="linearGradient3982" gradientUnits="userSpaceOnUse" x2="48" y1="56" x1="48">
   <stop id="stop3739" style="stop-color:#fff" offset="0"/>
   <stop id="stop3741" style="stop-color:#fff;stop-opacity:0" offset="1"/>
  </linearGradient>
  <radialGradient id="radialGradient3747" xlink:href="#linearGradient3739" gradientUnits="userSpaceOnUse" cy="64.058" cx="47.977" r="24.023"/>
  <radialGradient id="radialGradient3758" gradientUnits="userSpaceOnUse" cy="49.721" cx="60.563" r="19.437">
   <stop id="stop3930" style="stop-color:#f17c14" offset="0"/>
   <stop id="stop3932" style="stop-color:#e6b31f;stop-opacity:0" offset="1"/>
  </radialGradient>
  <radialGradient id="radialGradient3833" xlink:href="#linearGradient3827" gradientUnits="userSpaceOnUse" cy="37.5" cx="58.5" r="2.5"/>
  <radialGradient id="radialGradient3867" xlink:href="#linearGradient3739" gradientUnits="userSpaceOnUse" cy="49.721" cx="60.563" r="19.437"/>
  <radialGradient id="radialGradient3934" gradientUnits="userSpaceOnUse" cy="24" cx="56" r="16">
   <stop id="stop3743" style="stop-color:#e41111" offset="0"/>
   <stop id="stop3746" style="stop-color:#b61c1c;stop-opacity:0" offset="1"/>
  </radialGradient>
  <linearGradient id="linearGradient3938" y2="72" spreadMethod="reflect" gradientUnits="userSpaceOnUse" x2="48" y1="48" x1="48">
   <stop id="stop3942" style="stop-color:#f3931a" offset="0"/>
   <stop id="stop3944" style="stop-color:#a3351b" offset="1"/>
  </linearGradient>
  <clipPath id="clipPath2943">
   <rect id="rect2945" style="opacity:.65164;color:#000000;fill:#f00" rx="3" ry="3" height="56" width="72" y="20" x="12"/>
  </clipPath>
  <linearGradient id="linearGradient3924" y2="-40.067" gradientUnits="userSpaceOnUse" x2="64" gradientTransform="translate(-20)" y1="80" x1="64">
   <stop id="stop3720-6" offset="0"/>
   <stop id="stop3722-7" style="stop-opacity:0" offset="1"/>
  </linearGradient>
 </defs>
 <metadata id="metadata2413">
  <rdf:RDF>
   <cc:Work rdf:about="">
    <dc:format>image/svg+xml</dc:format>
    <dc:type rdf:resource="http://purl.org/dc/dcmitype/StillImage"/>
    <dc:title/>
   </cc:Work>
  </rdf:RDF>
 </metadata>
 <g id="layer2" style="display:none">
  <rect id="rect3745" style="opacity:.9;filter:url(#filter3174);fill:url(#ButtonShadow)" rx="6" ry="6" height="85" width="86" y="7" x="5"/>
 </g>
 <g id="layer6">
  <path id="path3786" style="opacity:0.08;fill:url(#linearGradient3780)" d="m12-95.031c-5.5111 0-10.031 4.5202-10.031 10.031v71c0 5.5111 4.5202 10.031 10.031 10.031h72c5.5111 0 10.031-4.5202 10.031-10.031v-71c0-5.5111-4.5202-10.031-10.031-10.031h-72z" transform="scale(1,-1)"/>
  <path id="path3778" style="opacity:.1;fill:url(#linearGradient3780)" d="m12-94.031c-4.9716 0-9.0312 4.0596-9.0312 9.0312v71c0 4.9716 4.0596 9.0312 9.0312 9.0312h72c4.9716 0 9.0312-4.0596 9.0312-9.0312v-71c0-4.9716-4.0596-9.0312-9.0312-9.0312h-72z" transform="scale(1,-1)"/>
  <path id="path3770" style="opacity:.2;fill:url(#linearGradient3780)" d="m12-93c-4.4091 0-8 3.5909-8 8v71c0 4.4091 3.5909 8 8 8h72c4.4091 0 8-3.5909 8-8v-71c0-4.4091-3.5909-8-8-8h-72z" transform="scale(1,-1)"/>
  <rect id="rect3723" style="opacity:.3;fill:url(#linearGradient3780)" transform="scale(1,-1)" rx="7" ry="7" height="85" width="86" y="-92" x="5"/>
  <rect id="rect3716" style="opacity:.45;fill:url(#linearGradient3721)" transform="scale(1,-1)" rx="6" ry="6" height="84" width="84" y="-91" x="6"/>
 </g>
 <g id="layer1">
  <rect id="rect2419" style="fill:url(#linearGradient3706)" rx="6" ry="6" height="84" width="84" y="6" x="6"/>
  <path id="rect3728" style="opacity:.5;fill:url(#linearGradient3923)" d="m12 6c-3.324 0-6 2.676-6 6v2 68 2c0 0.33472 0.04135 0.6507 0.09375 0.96875 0.0487 0.2956 0.09704 0.59692 0.1875 0.875 0.0099 0.03038 0.02089 0.0636 0.03125 0.09375 0.09886 0.28777 0.23488 0.54745 0.375 0.8125 0.14459 0.27351 0.31562 0.53562 0.5 0.78125 0.18438 0.24564 0.37378 0.47347 0.59375 0.6875 0.43995 0.42806 0.94291 0.81453 1.5 1.0938 0.27854 0.13961 0.57347 0.24695 0.875 0.34375-0.2562-0.10022-0.48671-0.23627-0.71875-0.375-0.0074-0.0044-0.02387 0.0045-0.03125 0-0.03193-0.0193-0.06229-0.04251-0.09375-0.0625-0.1204-0.0767-0.23102-0.16351-0.34375-0.25-0.10617-0.0808-0.21328-0.16111-0.3125-0.25-0.1778-0.162-0.3473-0.346-0.4999-0.531-0.1075-0.131-0.2183-0.266-0.3124-0.407-0.0251-0.038-0.0385-0.086-0.0626-0.125-0.0647-0.103-0.1302-0.204-0.1874-0.312-0.1011-0.195-0.2057-0.416-0.2813-0.625-0.008-0.022-0.0236-0.041-0.0313-0.063-0.0318-0.092-0.0358-0.187-0.0624-0.281-0.0304-0.107-0.0704-0.203-0.0938-0.313-0.0729-0.341-0.125-0.698-0.125-1.062v-2-68-2c0-2.782 2.2182-5 5-5h2 68 2c2.7818 0 5 2.2182 5 5v2 68 2c0 0.3643-0.05212 0.72099-0.125 1.0625-0.04415 0.20689-0.08838 0.39766-0.15625 0.59375-0.0077 0.02195-0.0233 0.04069-0.03125 0.0625-0.06274 0.17374-0.13838 0.36745-0.21875 0.53125-0.04158 0.0828-0.07904 0.16995-0.125 0.25-0.0546 0.09721-0.12677 0.18835-0.1875 0.28125-0.09411 0.14096-0.20492 0.276-0.3125 0.40625-0.14317 0.17445-0.30314 0.347-0.46875 0.5-0.01117 0.0102-0.01998 0.02115-0.03125 0.03125-0.13839 0.12556-0.28509 0.23444-0.4375 0.34375-0.10257 0.07315-0.20432 0.15336-0.3125 0.21875-0.0074 0.0045-0.02384-0.0044-0.03125 0-0.23204 0.13873-0.46255 0.27478-0.71875 0.375 0.30153-0.0968 0.59646-0.20414 0.875-0.34375 0.55709-0.27922 1.0601-0.66569 1.5-1.0938 0.21997-0.21403 0.40937-0.44186 0.59375-0.6875s0.35541-0.50774 0.5-0.78125c0.14012-0.26505 0.27614-0.52473 0.375-0.8125 0.01041-0.03078 0.02133-0.06274 0.03125-0.09375 0.09046-0.27808 0.1388-0.5794 0.1875-0.875 0.053-0.318 0.094-0.634 0.094-0.969v-2-68-2c0-3.324-2.676-6-6-6h-72z"/>
  <path id="path3615" style="opacity:.4;fill:url(#radialGradient2886)" d="m12 90c-3.324 0-6-2.676-6-6v-2-68-2c0-0.33472 0.04135-0.6507 0.09375-0.96875 0.0487-0.2956 0.09704-0.59692 0.1875-0.875 0.0099-0.03 0.0209-0.063 0.0313-0.094 0.0989-0.2873 0.2349-0.547 0.375-0.812 0.1446-0.2735 0.3156-0.5356 0.5-0.7812 0.1844-0.2457 0.3738-0.4735 0.5937-0.6876 0.44-0.428 0.943-0.8145 1.5-1.0937 0.2786-0.1396 0.5735-0.2469 0.8748-0.3437-0.256 0.1002-0.4865 0.2362-0.7185 0.375-0.00741 0.0044-0.023866-0.0045-0.03125 0-0.031933 0.0193-0.062293 0.04251-0.09375 0.0625-0.1204 0.0767-0.23102 0.16351-0.34375 0.25-0.10617 0.0808-0.21328 0.16111-0.3125 0.25-0.1779 0.1614-0.3474 0.3453-0.5 0.5312-0.1075 0.1303-0.2183 0.2653-0.3124 0.4063-0.0251 0.0383-0.0385 0.0858-0.0626 0.125-0.0647 0.103-0.1302 0.2045-0.1874 0.3124-0.1011 0.1948-0.2057 0.4158-0.2813 0.625-0.008 0.0219-0.0236 0.0406-0.0313 0.0626-0.0318 0.0919-0.0358 0.1868-0.0624 0.2812-0.0304 0.1066-0.0704 0.203-0.0938 0.3125-0.0729 0.3415-0.125 0.6985-0.125 1.0625v2 68 2c0 2.7818 2.2182 5 5 5h2 68 2c2.7818 0 5-2.2182 5-5v-2-68-2c0-0.364-0.052-0.721-0.125-1.0625-0.044-0.2069-0.088-0.3977-0.156-0.5937-0.008-0.022-0.024-0.0407-0.031-0.0626-0.063-0.1737-0.139-0.3674-0.219-0.5312-0.042-0.0828-0.079-0.17-0.125-0.25-0.055-0.0972-0.127-0.1884-0.188-0.2812-0.094-0.141-0.205-0.276-0.312-0.4063-0.143-0.1745-0.303-0.347-0.469-0.5-0.011-0.0102-0.02-0.0211-0.031-0.0313-0.139-0.1255-0.285-0.2344-0.438-0.3437-0.102-0.0731-0.204-0.1534-0.312-0.2187-0.0074-0.0045-0.02384 0.0044-0.03125 0-0.23204-0.13873-0.46255-0.27478-0.71875-0.375 0.30153 0.0968 0.59646 0.20414 0.875 0.34375 0.55709 0.27922 1.0601 0.66569 1.5 1.0938 0.21997 0.21403 0.40937 0.44186 0.59375 0.6875s0.35541 0.50774 0.5 0.78125c0.14012 0.26505 0.27614 0.52473 0.375 0.8125 0.01041 0.03078 0.02133 0.06274 0.03125 0.09375 0.09046 0.27808 0.1388 0.5794 0.1875 0.875 0.053 0.318 0.094 0.634 0.094 0.969v2 68 2c0 3.324-2.676 6-6 6h-72z"/>
  <rect id="rect3654" style="fill:#f0f" rx="6" ry="6" height="84" width="84" y="6" x="-94"/>
  <rect id="rect3797" style="stroke-width:.5;color:#000000;stroke-dashoffset:8.6;stroke:#000;stroke-linecap:round;fill:#fff" height="16" width="16" y="8" x="112"/>
  <text id="text3799" y="11.969256" x="131.39261" xml:space="preserve" style="font-size:4px;line-height:125%;font-family:Liberation Sans;fill:#000000"><tspan id="tspan3801" y="11.969256" x="131.39261">Width: 2px</tspan><tspan id="tspan3803" y="16.969257" x="131.39261">Blur: 12</tspan><tspan id="tspan3807" y="21.969257" x="131.39261">Opacity: 60</tspan></text>
 </g>
 <g id="layer3">
  <rect id="rect3727" style="opacity:.65164;color:#000000;fill:#f00" height="56" width="72" y="20" x="-88"/>
  <g id="g3871" clip-path="url(#clipPath2943)">
   <rect id="rect3966" style="color:#000000;fill:url(#linearGradient3938)" height="56" width="72" y="20" x="12"/>
   <path id="path3918" style="opacity:.5;color:#000000;fill:url(#radialGradient3934)" d="m72 24a16 16 0 1 1 -32 0 16 16 0 1 1 32 0z" transform="matrix(2.4668 0 0 2.4668 -110.14 -33.204)"/>
   <path id="path3865" style="opacity:.69672;color:#000000;fill:url(#radialGradient3867)" d="m80 49.721a19.437 19.437 0 1 1 -38.874 0 19.437 19.437 0 1 1 38.874 0z" transform="matrix(.92606 0 0 .92606 20.478 -.044489)"/>
   <path id="path3737" style="color:#000000;fill:url(#radialGradient3747)" d="m72 64.058a24.023 24.023 0 1 1 -48.045 0 24.023 24.023 0 1 1 48.045 0z" transform="translate(-24 -16.058)"/>
   <path id="path3749" style="opacity:.43443;color:#000000;fill:url(#radialGradient3758)" d="m80 49.721a19.437 19.437 0 1 1 -38.874 0 19.437 19.437 0 1 1 38.874 0z" transform="translate(-12.563 -5.1578)"/>
   <path id="path3779" style="opacity:.4;color:#000000;fill:#fff" d="m61 37.5a2.5 2.5 0 1 1 -5 0 2.5 2.5 0 1 1 5 0z"/>
   <path id="path3781" style="opacity:.50410;color:#000000;fill:#fff" d="m61 37.5a2.5 2.5 0 1 1 -5 0 2.5 2.5 0 1 1 5 0z" transform="translate(-33.5,10)"/>
   <path id="path3783" style="opacity:.3;color:#000000;fill:#fff" d="m61 37.5a2.5 2.5 0 1 1 -5 0 2.5 2.5 0 1 1 5 0z" transform="translate(4,13.5)"/>
   <path id="path3785" style="opacity:.50410;color:#000000;fill:#fff" d="m61 37.5a2.5 2.5 0 1 1 -5 0 2.5 2.5 0 1 1 5 0z" transform="translate(17,8.5)"/>
   <path id="path3787" style="opacity:.50410;color:#000000;fill:#fff" d="m61 37.5a2.5 2.5 0 1 1 -5 0 2.5 2.5 0 1 1 5 0z" transform="translate(-17,7.5)"/>
   <path id="path3789" style="opacity:.50410;color:#000000;fill:#fff" d="m61 37.5a2.5 2.5 0 1 1 -5 0 2.5 2.5 0 1 1 5 0z" transform="translate(-42,3.5)"/>
   <path id="path3791" style="opacity:.3;color:#000000;fill:#fff" d="m61 37.5a2.5 2.5 0 1 1 -5 0 2.5 2.5 0 1 1 5 0z" transform="translate(-42,3.5)"/>
   <path id="path3793" style="opacity:.50410;color:#000000;fill:#fff" d="m61 37.5a2.5 2.5 0 1 1 -5 0 2.5 2.5 0 1 1 5 0z" transform="matrix(.4 0 0 .4 -6.4 35)"/>
   <path id="path3795" style="opacity:.50410;color:#000000;fill:#fff" d="m61 37.5a2.5 2.5 0 1 1 -5 0 2.5 2.5 0 1 1 5 0z" transform="matrix(.4 0 0 .4 7.6 38)"/>
   <path id="path3797" style="opacity:.50410;color:#000000;fill:#fff" d="m61 37.5a2.5 2.5 0 1 1 -5 0 2.5 2.5 0 1 1 5 0z" transform="matrix(.4 0 0 .4 9.6 34)"/>
   <path id="path3799" style="opacity:.3;color:#000000;fill:#fff" d="m61 37.5a2.5 2.5 0 1 1 -5 0 2.5 2.5 0 1 1 5 0z" transform="matrix(.4 0 0 .4 16.6 36)"/>
   <path id="path3801" style="opacity:.50410;color:#000000;fill:#fff" d="m61 37.5a2.5 2.5 0 1 1 -5 0 2.5 2.5 0 1 1 5 0z" transform="matrix(.4 0 0 .4 28.6 28)"/>
   <path id="path3803" style="opacity:.50410;color:#000000;fill:#fff" d="m61 37.5a2.5 2.5 0 1 1 -5 0 2.5 2.5 0 1 1 5 0z" transform="matrix(.4 0 0 .4 45.6 33)"/>
   <path id="path3805" style="opacity:.50410;color:#000000;fill:#fff" d="m61 37.5a2.5 2.5 0 1 1 -5 0 2.5 2.5 0 1 1 5 0z" transform="matrix(.4 0 0 .4 47.6 29)"/>
   <path id="path3807" style="opacity:.50410;color:#000000;fill:#fff" d="m61 37.5a2.5 2.5 0 1 1 -5 0 2.5 2.5 0 1 1 5 0z" transform="matrix(.4 0 0 .4 55.6 23)"/>
   <path id="path3809" style="opacity:.50410;color:#000000;fill:#fff" d="m61 37.5a2.5 2.5 0 1 1 -5 0 2.5 2.5 0 1 1 5 0z" transform="matrix(.4 0 0 .4 38.6 30)"/>
   <path id="path3811" style="opacity:.50410;color:#000000;fill:#fff" d="m61 37.5a2.5 2.5 0 1 1 -5 0 2.5 2.5 0 1 1 5 0z" transform="matrix(.4 0 0 .4 38.6 30)"/>
   <path id="path3813" style="opacity:.50410;color:#000000;fill:#fff" d="m61 37.5a2.5 2.5 0 1 1 -5 0 2.5 2.5 0 1 1 5 0z" transform="matrix(.6 0 0 .6 -1.1 21)"/>
   <path id="path3815" style="opacity:.50410;color:#000000;fill:#fff" d="m61 37.5a2.5 2.5 0 1 1 -5 0 2.5 2.5 0 1 1 5 0z" transform="matrix(.6 0 0 .6 -6.6 18.5)"/>
   <path id="path3817" style="opacity:.50410;color:#000000;fill:#fff" d="m61 37.5a2.5 2.5 0 1 1 -5 0 2.5 2.5 0 1 1 5 0z" transform="matrix(.6 0 0 .6 15.9 31)"/>
   <path id="path3819" style="opacity:.50410;color:#000000;fill:#fff" d="m61 37.5a2.5 2.5 0 1 1 -5 0 2.5 2.5 0 1 1 5 0z" transform="matrix(.6 0 0 .6 19.4 26.5)"/>
   <path id="path3821" style="opacity:.50410;color:#000000;fill:#fff" d="m61 37.5a2.5 2.5 0 1 1 -5 0 2.5 2.5 0 1 1 5 0z" transform="matrix(.6 0 0 .6 19.4 26.5)"/>
   <path id="path3823" style="opacity:.50410;color:#000000;fill:#fff" d="m61 37.5a2.5 2.5 0 1 1 -5 0 2.5 2.5 0 1 1 5 0z" transform="matrix(.6 0 0 .6 37.9 29)"/>
   <path id="path3825" style="opacity:.3;color:#000000;fill:url(#radialGradient3833)" d="m61 37.5a2.5 2.5 0 1 1 -5 0 2.5 2.5 0 1 1 5 0z" transform="matrix(1.6,0,0,1.6,-43.6,-16)"/>
   <path id="path3835" style="opacity:.3;color:#000000;fill:url(#radialGradient3833)" d="m61 37.5a2.5 2.5 0 1 1 -5 0 2.5 2.5 0 1 1 5 0z" transform="matrix(1.6,0,0,1.6,-23.6,-10)"/>
   <path id="path3839" style="opacity:.3;color:#000000;fill:url(#radialGradient3833)" d="m61 37.5a2.5 2.5 0 1 1 -5 0 2.5 2.5 0 1 1 5 0z" transform="matrix(1.6,0,0,1.6,-72.6,-15)"/>
   <path id="path3843" style="opacity:.3;color:#000000;fill:url(#radialGradient3833)" d="m61 37.5a2.5 2.5 0 1 1 -5 0 2.5 2.5 0 1 1 5 0z" transform="matrix(1.6,0,0,1.6,-59.6,-9)"/>
   <path id="path3847" style="opacity:.3;color:#000000;fill:url(#radialGradient3833)" d="m61 37.5a2.5 2.5 0 1 1 -5 0 2.5 2.5 0 1 1 5 0z" transform="translate(-27,2.5)"/>
   <path id="path3851" style="opacity:.3;color:#000000;fill:url(#radialGradient3833)" d="m61 37.5a2.5 2.5 0 1 1 -5 0 2.5 2.5 0 1 1 5 0z" transform="translate(9,4.5)"/>
   <path id="path3855" style="opacity:.3;color:#000000;fill:url(#radialGradient3833)" d="m61 37.5a2.5 2.5 0 1 1 -5 0 2.5 2.5 0 1 1 5 0z" transform="translate(21,6.5)"/>
   <path id="path3859" style="opacity:.3;color:#000000;fill:url(#radialGradient3833)" d="m61 37.5a2.5 2.5 0 1 1 -5 0 2.5 2.5 0 1 1 5 0z" transform="translate(-35,12.5)"/>
   <path id="path3863" style="opacity:.50410;color:#000000;fill:#fff" d="m61 37.5a2.5 2.5 0 1 1 -5 0 2.5 2.5 0 1 1 5 0z" transform="matrix(.4 0 0 .4 39.6 24)"/>
  </g>
 </g>
 <g id="layer5">
  <path id="path3849" style="opacity:.7;fill:#fff" d="m62.028 71.749v-7.7282l-5.3964 0.02089v1.9217h3.4266v2.569c-0.19152 0.20888-0.41038 0.39687-0.6566 0.56397-0.24623 0.1671-0.51298 0.31332-0.80023 0.43864-0.27359 0.12533-0.56086 0.2228-0.86179 0.29243-0.28727 0.06963-0.56769 0.10444-0.84127 0.10444-0.77972 0.000002-1.4295-0.17406-1.9493-0.52219-0.51981-0.36205-0.93703-0.82854-1.2516-1.3995-0.30094-0.57093-0.51981-1.2115-0.6566-1.9217-0.12312-0.71018-0.18467-1.4204-0.18467-2.1305-0.000002-0.71017 0.06155-1.4204 0.18467-2.1305 0.13679-0.71017 0.35566-1.3507 0.6566-1.9217 0.31462-0.58484 0.72499-1.0513 1.2311-1.3995 0.5198-0.36204 1.1696-0.54307 1.9493-0.54308 0.49244 0.000014 0.90966 0.08357 1.2516 0.25065 0.35565 0.15319 0.65659 0.38296 0.90283 0.6893 0.2599 0.30637 0.47192 0.67538 0.63608 1.107 0.17782 0.43169 0.32829 0.91907 0.45141 1.4621l1.744-0.606c-0.151-0.724-0.356-1.386-0.616-1.984-0.246-0.599-0.574-1.114-0.985-1.546-0.396-0.432-0.875-0.759-1.436-0.982-0.561-0.237-1.217-0.355-1.97-0.355-1.1217 0.000015-2.0656 0.25067-2.8316 0.75196-0.76604 0.4874-1.3816 1.121-1.8467 1.9008-0.46509 0.7659-0.80023 1.6293-1.0054 2.5901-0.20519 0.96084-0.30778 1.9078-0.30778 2.8407-0.000001 0.94692 0.10943 1.8938 0.3283 2.8407 0.21887 0.93299 0.57452 1.7755 1.067 2.5274 0.49245 0.75196 1.1285 1.3647 1.9082 1.8381 0.77971 0.47345 1.7236 0.71018 2.8316 0.71018 0.56084 0 1.0943-0.13229 1.6005-0.39687 0.5198-0.25065 1.0122-0.51523 1.4774-0.79373v0.93995h1.9493"/>
  <path id="path3852" style="opacity:.7;fill:#fff" d="m68.001 72.05v-16h-2.0052v16h2.0052"/>
  <path id="path3854" style="opacity:.7;fill:#fff" d="m79.977 58.013v-1.9634h-7.9662v15.95h2.0052v-7.0058h5.0335v-1.9634h-5.0335v-5.0176h5.9609"/>
 </g>
 <g id="layer4">
  <path id="rect3969" style="opacity:.3;fill:url(#linearGradient3982)" d="m12 6c-3.324 0-6 2.676-6 6v53.375c15.66-11.05 42.933-18.375 74-18.375 3.3824 0 6.717 0.1124 10 0.28125v-35.281c0-3.324-2.676-6-6-6h-72z"/>
  <path id="rect2960" style="opacity:.3;color:#000000;fill:url(#linearGradient3924)" d="m15 20c-1.662 0-3 1.338-3 3v50c0 1.662 1.338 3 3 3h66c1.662 0 3-1.338 3-3v-50c0-1.662-1.338-3-3-3h-66zm0 0.96875h66c1.1465 0 2.0312 0.88473 2.0312 2.0312v50c0 1.1465-0.88473 2.0312-2.0312 2.0312h-66c-1.1465 0-2.0312-0.88473-2.0312-2.0312v-50c0-1.1465 0.88473-2.0312 2.0312-2.0312z"/>
  <path id="rect3750" style="opacity:.7;color:#000000;fill:#fff" d="m12 73v1c0 1.662 1.338 3 3 3h66c1.662 0 3-1.338 3-3v-1c0 1.662-1.338 3-3 3h-66c-1.662 0-3-1.338-3-3z"/>
 </g>
</svg>
