<?xml version="1.0" encoding="UTF-8" standalone="no"?>
<!-- Created with Inkscape (http://www.inkscape.org/) -->
<svg id="svg2408" xmlns:rdf="http://www.w3.org/1999/02/22-rdf-syntax-ns#" xmlns="http://www.w3.org/2000/svg" height="96" width="96" version="1.0" xmlns:cc="http://creativecommons.org/ns#" xmlns:xlink="http://www.w3.org/1999/xlink" xmlns:dc="http://purl.org/dc/elements/1.1/">
 <defs id="defs2410">
  <linearGradient id="ButtonShadow" y2="7.0165" gradientUnits="userSpaceOnUse" x2="45.448" gradientTransform="scale(1.0059 .99417)" y1="92.54" x1="45.448">
   <stop id="stop3750" offset="0"/>
   <stop id="stop3752" style="stop-opacity:.58824" offset="1"/>
  </linearGradient>
  <linearGradient id="linearGradient3706" y2="5.9877" gradientUnits="userSpaceOnUse" x2="48" y1="90" x1="48">
   <stop id="stop3702" style="stop-color:#e6e6e6" offset="0"/>
   <stop id="stop3704" style="stop-color:#f5f5f5" offset="1"/>
  </linearGradient>
  <filter id="filter3174" color-interpolation-filters="sRGB">
   <feGaussianBlur id="feGaussianBlur3176" stdDeviation="1.71"/>
  </filter>
  <linearGradient id="linearGradient3188" y2="63.893" gradientUnits="userSpaceOnUse" x2="36.357" y1="6" x1="36.357">
   <stop id="stop3739" style="stop-color:#fff" offset="0"/>
   <stop id="stop3741" style="stop-color:#fff;stop-opacity:0" offset="1"/>
  </linearGradient>
  <linearGradient id="ButtonShadow-0" y2="7.0165" gradientUnits="userSpaceOnUse" x2="45.448" gradientTransform="matrix(1.0059 0 0 .99417 100 0)" y1="92.54" x1="45.448">
   <stop id="stop3750-8" offset="0"/>
   <stop id="stop3752-5" style="stop-opacity:.58824" offset="1"/>
  </linearGradient>
  <linearGradient id="linearGradient3780" y2="90.239" xlink:href="#ButtonShadow-0" gradientUnits="userSpaceOnUse" x2="32.251" gradientTransform="matrix(1.0238 0 0 1.0119 -1.1429 -98.071)" y1="6.1317" x1="32.251"/>
  <linearGradient id="linearGradient3721" y2="90.239" xlink:href="#ButtonShadow-0" gradientUnits="userSpaceOnUse" x2="32.251" gradientTransform="translate(0,-97)" y1="6.1317" x1="32.251"/>
  <radialGradient id="radialGradient2903" gradientUnits="userSpaceOnUse" cy="90.172" cx="48" gradientTransform="matrix(1.1573 0 0 .99591 -7.551 .19713)" r="42">
   <stop id="stop3739-6" style="stop-color:#fff" offset="0"/>
   <stop id="stop3741-0" style="stop-color:#fff;stop-opacity:0" offset="1"/>
  </radialGradient>
  <clipPath id="clipPath3782">
   <path id="path3784" style="fill:#f0f" d="m-98 6c-3.324 0-6 2.676-6 6v72c0 3.324 2.676 6 6 6h72c3.324 0 6-2.676 6-6v-72c0-3.324-2.676-6-6-6h-72zm59.062 12c0.602-0.009 0.938 0.031 0.938 0.031v12.062c-12.051 0.213-15 11.969-15 11.969h9.0625v12.062h-14.094c-8.476 26.153-27.968 23.814-27.968 23.814v-12.062s12.376 2.2983 18.688-20.75c6.9081-25.227 24.168-27.061 28.375-27.125z"/>
  </clipPath>
  <filter id="filter3786" height="1.2592" width="1.324" color-interpolation-filters="sRGB" y="-.1296" x="-.162">
   <feGaussianBlur id="feGaussianBlur3788" stdDeviation="3.24"/>
  </filter>
  <linearGradient id="linearGradient3827" y2="35.372" gradientUnits="userSpaceOnUse" x2="46.882" gradientTransform="translate(-4)" y1="75.753" x1="46.882">
   <stop id="stop3823" style="stop-color:#de6a07" offset="0"/>
   <stop id="stop3825" style="stop-color:#f8a425" offset="1"/>
  </linearGradient>
  <clipPath id="clipPath3613">
   <rect id="rect3615" style="fill:#fff" rx="6" ry="6" height="84" width="84" y="6" x="6"/>
  </clipPath>
  <filter id="filter3794" height="1.384" width="1.384" color-interpolation-filters="sRGB" y="-.192" x="-.192">
   <feGaussianBlur id="feGaussianBlur3796" stdDeviation="5.28"/>
  </filter>
  <linearGradient id="linearGradient4163" y2="138.66" gradientUnits="userSpaceOnUse" x2="48" y1="20.221" x1="48">
   <stop id="stop3739-2" style="stop-color:#fff" offset="0"/>
   <stop id="stop3741-1" style="stop-color:#fff;stop-opacity:0" offset="1"/>
  </linearGradient>
 </defs>
 <metadata id="metadata2413">
  <rdf:RDF>
   <cc:Work rdf:about="">
    <dc:format>image/svg+xml</dc:format>
    <dc:type rdf:resource="http://purl.org/dc/dcmitype/StillImage"/>
    <dc:title/>
   </cc:Work>
  </rdf:RDF>
 </metadata>
 <g id="layer2" style="display:none">
  <rect id="rect3745" style="opacity:.9;filter:url(#filter3174);fill:url(#ButtonShadow)" rx="6" ry="6" height="85" width="86" y="7" x="5"/>
 </g>
 <g id="layer7">
  <path id="path3786" style="opacity:0.08;fill:url(#linearGradient3780)" d="m12-95.031c-5.5111 0-10.031 4.5202-10.031 10.031v71c0 5.5111 4.5202 10.031 10.031 10.031h72c5.5111 0 10.031-4.5202 10.031-10.031v-71c0-5.5111-4.5202-10.031-10.031-10.031h-72z" transform="scale(1,-1)"/>
  <path id="path3778" style="opacity:.1;fill:url(#linearGradient3780)" d="m12-94.031c-4.9716 0-9.0312 4.0596-9.0312 9.0312v71c0 4.9716 4.0596 9.0312 9.0312 9.0312h72c4.9716 0 9.0312-4.0596 9.0312-9.0312v-71c0-4.9716-4.0596-9.0312-9.0312-9.0312h-72z" transform="scale(1,-1)"/>
  <path id="path3770" style="opacity:.2;fill:url(#linearGradient3780)" d="m12-93c-4.4091 0-8 3.5909-8 8v71c0 4.4091 3.5909 8 8 8h72c4.4091 0 8-3.5909 8-8v-71c0-4.4091-3.5909-8-8-8h-72z" transform="scale(1,-1)"/>
  <rect id="rect3723" style="opacity:.3;fill:url(#linearGradient3780)" transform="scale(1,-1)" rx="7" ry="7" height="85" width="86" y="-92" x="5"/>
  <rect id="rect3716" style="opacity:.45;fill:url(#linearGradient3721)" transform="scale(1,-1)" rx="6" ry="6" height="84" width="84" y="-91" x="6"/>
 </g>
 <g id="layer1">
  <rect id="rect2419" style="fill:url(#linearGradient3706)" rx="6" ry="6" height="84" width="84" y="6" x="6"/>
  <path id="rect3728" style="opacity:.5;fill:url(#linearGradient3188)" d="m12 6c-3.324 0-6 2.676-6 6v2 68 2c0 0.33472 0.04135 0.6507 0.09375 0.96875 0.0487 0.2956 0.09704 0.59692 0.1875 0.875 0.00988 0.03038 0.020892 0.0636 0.03125 0.09375 0.098865 0.28777 0.23488 0.54745 0.375 0.8125 0.14459 0.27351 0.31562 0.53562 0.5 0.78125 0.18438 0.24564 0.37378 0.47347 0.59375 0.6875 0.43995 0.42806 0.94291 0.81453 1.5 1.0938 0.27854 0.13961 0.57347 0.24695 0.875 0.34375-0.2562-0.10022-0.48671-0.23627-0.71875-0.375-0.00741-0.0044-0.023866 0.0045-0.03125 0-0.031933-0.0193-0.062293-0.04251-0.09375-0.0625-0.1204-0.0767-0.23102-0.16351-0.34375-0.25-0.10617-0.0808-0.21328-0.16111-0.3125-0.25-0.1778-0.162-0.3473-0.346-0.4999-0.531-0.1075-0.131-0.2183-0.266-0.3124-0.407-0.0251-0.038-0.0385-0.086-0.0626-0.125-0.0647-0.103-0.1302-0.204-0.1874-0.312-0.1011-0.195-0.2057-0.416-0.2813-0.625-0.008-0.022-0.0236-0.041-0.0313-0.063-0.0318-0.092-0.0358-0.187-0.0624-0.281-0.0304-0.107-0.0704-0.203-0.0938-0.313-0.0729-0.341-0.125-0.698-0.125-1.062v-2-68-2c0-2.782 2.2182-5 5-5h2 68 2c2.7818 0 5 2.2182 5 5v2 68 2c0 0.3643-0.05212 0.72099-0.125 1.0625-0.04415 0.20689-0.08838 0.39766-0.15625 0.59375-0.0077 0.02195-0.0233 0.04069-0.03125 0.0625-0.06274 0.17374-0.13838 0.36745-0.21875 0.53125-0.04158 0.0828-0.07904 0.16995-0.125 0.25-0.0546 0.09721-0.12677 0.18835-0.1875 0.28125-0.09411 0.14096-0.20492 0.276-0.3125 0.40625-0.14317 0.17445-0.30314 0.347-0.46875 0.5-0.01117 0.0102-0.01998 0.02115-0.03125 0.03125-0.13839 0.12556-0.28509 0.23444-0.4375 0.34375-0.10257 0.07315-0.20432 0.15336-0.3125 0.21875-0.0074 0.0045-0.02384-0.0044-0.03125 0-0.23204 0.13873-0.46255 0.27478-0.71875 0.375 0.30153-0.0968 0.59646-0.20414 0.875-0.34375 0.55709-0.27922 1.0601-0.66569 1.5-1.0938 0.21997-0.21403 0.40937-0.44186 0.59375-0.6875s0.35541-0.50774 0.5-0.78125c0.14012-0.26505 0.27614-0.52473 0.375-0.8125 0.01041-0.03078 0.02133-0.06274 0.03125-0.09375 0.09046-0.27808 0.1388-0.5794 0.1875-0.875 0.053-0.318 0.094-0.634 0.094-0.969v-2-68-2c0-3.324-2.676-6-6-6h-72z"/>
  <path id="path3615" style="opacity:.3;fill:url(#radialGradient2903)" d="m12 90c-3.324 0-6-2.676-6-6v-2-68-2c0-0.33472 0.04135-0.6507 0.09375-0.96875 0.0487-0.2956 0.09704-0.59692 0.1875-0.875 0.0099-0.03 0.0209-0.063 0.0313-0.094 0.0989-0.2873 0.2349-0.547 0.375-0.812 0.1446-0.2735 0.3156-0.5356 0.5-0.7812 0.1844-0.2457 0.3738-0.4735 0.5937-0.6876 0.44-0.428 0.943-0.8145 1.5-1.0937 0.2786-0.1396 0.5735-0.2469 0.8748-0.3437-0.256 0.1002-0.4865 0.2362-0.7185 0.375-0.00741 0.0044-0.023866-0.0045-0.03125 0-0.031933 0.0193-0.062293 0.04251-0.09375 0.0625-0.1204 0.0767-0.23102 0.16351-0.34375 0.25-0.10617 0.0808-0.21328 0.16111-0.3125 0.25-0.1779 0.1614-0.3474 0.3453-0.5 0.5312-0.1075 0.1303-0.2183 0.2653-0.3124 0.4063-0.0251 0.0383-0.0385 0.0858-0.0626 0.125-0.0647 0.103-0.1302 0.2045-0.1874 0.3124-0.1011 0.1948-0.2057 0.4158-0.2813 0.625-0.008 0.0219-0.0236 0.0406-0.0313 0.0626-0.0318 0.0919-0.0358 0.1868-0.0624 0.2812-0.0304 0.1066-0.0704 0.203-0.0938 0.3125-0.0729 0.3415-0.125 0.6985-0.125 1.0625v2 68 2c0 2.7818 2.2182 5 5 5h2 68 2c2.7818 0 5-2.2182 5-5v-2-68-2c0-0.364-0.052-0.721-0.125-1.0625-0.044-0.2069-0.088-0.3977-0.156-0.5937-0.008-0.022-0.024-0.0407-0.031-0.0626-0.063-0.1737-0.139-0.3674-0.219-0.5312-0.042-0.0828-0.079-0.17-0.125-0.25-0.055-0.0972-0.127-0.1884-0.188-0.2812-0.094-0.141-0.205-0.276-0.312-0.4063-0.143-0.1745-0.303-0.347-0.469-0.5-0.011-0.0102-0.02-0.0211-0.031-0.0313-0.139-0.1255-0.285-0.2344-0.438-0.3437-0.102-0.0731-0.204-0.1534-0.312-0.2187-0.0074-0.0045-0.02384 0.0044-0.03125 0-0.23204-0.13873-0.46255-0.27478-0.71875-0.375 0.30153 0.0968 0.59646 0.20414 0.875 0.34375 0.55709 0.27922 1.0601 0.66569 1.5 1.0938 0.21997 0.21403 0.40937 0.44186 0.59375 0.6875s0.35541 0.50774 0.5 0.78125c0.14012 0.26505 0.27614 0.52473 0.375 0.8125 0.01041 0.03078 0.02133 0.06274 0.03125 0.09375 0.09046 0.27808 0.1388 0.5794 0.1875 0.875 0.053 0.318 0.094 0.634 0.094 0.969v2 68 2c0 3.324-2.676 6-6 6h-72z"/>
  <path id="path3774" style="opacity:.6;filter:url(#filter3786);stroke:#fff;stroke-width:2;fill:none" d="m-38 18.02v12.07c-12.051 0.21176-15.013 11.964-15.013 11.964h9.0894v12.07h-14.094c-8.476 26.152-27.982 23.823-27.982 23.823v-12.07s12.378 2.2962 18.689-20.752c7.895-28.832 29.311-27.105 29.311-27.105z" clip-path="url(#clipPath3782)" transform="translate(110)"/>
  <rect id="rect3768" style="fill:#f0f" rx="6" ry="6" height="84" width="84" y="6" x="-104"/>
 </g>
 <g id="layer3">
  <rect id="rect3171" style="opacity:.5;filter:url(#filter3794);stroke:#fff;stroke-linecap:round;stroke-width:.5;fill:url(#linearGradient4163)" clip-path="url(#clipPath3613)" rx="12" ry="12" height="66" width="66" y="15" x="15"/>
 </g>
 <g id="layer4">
  <path id="rect3362" style="opacity:.5;fill:#999" d="m12 12v17.938l8.094-17.938h-8.094zm9.906 0 8.094 17.938v-17.938h-8.094zm-0.906 7.031l-3.0312 7h2.9286l1.7188 3.9688h3.2277l-2.375-5.2812-0.0625-0.125-2.406-5.563z"/>
  <path id="path3799" style="fill:url(#linearGradient3827)" d="m34.875 36-12.875 40h8.4688l2.75-9.4688h13.656l2.6875 9.4688h8.5l-12.937-40h-10.25zm31.125 0.031c-0.59444 0.000042-1.1768 0.06115-1.7188 0.1875-0.52451 0.12644-0.97289 0.36253-1.375 0.6875-0.38464 0.307-0.71022 0.72641-0.9375 1.25-0.22729 0.50562-0.3125 1.1611-0.3125 1.9375-0.000004 0.7584 0.08521 1.3827 0.3125 1.9062 0.22728 0.52367 0.55286 0.95627 0.9375 1.2812 0.40211 0.30699 0.85049 0.51184 1.375 0.65625 0.54198 0.12643 1.1243 0.21878 1.7188 0.21875 0.59442 0.000034 1.1317-0.09232 1.6562-0.21875 0.52449-0.14442 0.99036-0.34926 1.375-0.65625 0.402-0.325 0.742-0.757 0.969-1.281 0.24475-0.5236 0.34374-1.1478 0.34375-1.9062-0.000013-0.77638-0.099-1.4319-0.34375-1.9375-0.2273-0.52359-0.56665-0.943-0.96875-1.25-0.38464-0.32497-0.85051-0.56106-1.375-0.6875-0.524-0.127-1.062-0.188-1.656-0.188zm-25.969 5.5938 4.875 17.812h-9.6562c1.5579-5.9397 3.6143-11.772 4.7812-17.812zm21.938 6.4062v27.969h8.0312v-27.969h-8.0312z"/>
  <path id="path3816" style="opacity:.8;fill:#fff" d="m61.688 40.594c-0.01018 0.16895-0.03125 0.31728-0.03125 0.5-0.000004 0.7584 0.08521 1.3827 0.3125 1.9062 0.22728 0.52367 0.55286 0.95627 0.9375 1.2812 0.40211 0.30699 0.85049 0.51184 1.375 0.65625 0.54198 0.12643 1.1243 0.21878 1.7188 0.21875 0.59442 0.000034 1.1317-0.09232 1.6562-0.21875 0.52449-0.14442 0.99036-0.34926 1.375-0.65625 0.401-0.325 0.741-0.757 0.968-1.281 0.24475-0.5236 0.34374-1.1478 0.34375-1.9062-0.000003-0.18227-0.01973-0.33143-0.03125-0.5-0.038 0.527-0.126 1.009-0.312 1.406-0.2273 0.52367-0.56665 0.95627-0.96875 1.2812-0.38464 0.30699-0.85051 0.51184-1.375 0.65625-0.52451 0.12643-1.0618 0.21878-1.6562 0.21875-0.59444 0.000034-1.1768-0.09232-1.7188-0.21875-0.52451-0.14442-0.97289-0.34926-1.375-0.65625-0.384-0.325-0.71-0.757-0.937-1.281-0.172-0.397-0.248-0.88-0.281-1.406zm-21.657 1.031c-0.07224 0.39967-0.15488 0.86132-0.28125 1.4062-0.10836 0.54499-0.24376 1.1324-0.40625 1.75-0.14447 0.59949-0.30626 1.1949-0.46875 1.8125-0.16252 0.61765-0.32432 1.2051-0.46875 1.75-0.14446 0.54499-0.27987 1.0197-0.40625 1.4375-0.10835 0.41783-0.19585 0.73771-0.25 0.9375l-2.5 8.7188h0.28125l2.2188-7.7188c0.05415-0.19979 0.14165-0.51967 0.25-0.9375 0.12638-0.41778 0.26178-0.89251 0.40625-1.4375 0.14443-0.54493 0.30623-1.1324 0.46875-1.75 0.16249-0.61759 0.32428-1.213 0.46875-1.8125 0.16249-0.61759 0.29789-1.205 0.40625-1.75 0.12637-0.54493 0.20901-1.0066 0.28125-1.4062 0.09026 0.63582 0.25206 1.4043 0.46875 2.3125 0.21665 0.9083 0.45275 1.8105 0.6875 2.7188 0.25277 0.89013 0.47081 1.6928 0.6875 2.4375 0.21665 0.7448 0.39164 1.298 0.5 1.625l2.25 7.7188h0.28125l-2.5312-8.7188c-0.10836-0.32695-0.28335-0.8802-0.5-1.625-0.21669-0.74475-0.43473-1.5474-0.6875-2.4375-0.235-0.908-0.471-1.81-0.688-2.718-0.217-0.909-0.378-1.677-0.469-2.313zm-6.812 24.906-2.75 9.469h-8.157l-0.312 1h8.4688l2.75-9.4688h13.656l2.6875 9.4688h8.5l-0.3125-1h-8.1875l-2.6875-9.4688h-13.656zm28.75 9.4688v1h8.0312v-1h-8.0312z"/>
  <path id="path3829" style="opacity:.4;fill:#803300" d="m34.875 36-12.875 40h0.312l12.563-39h10.25l12.625 39h0.312l-12.937-40h-10.25zm31.125 0.031c-0.59444 0.000042-1.1768 0.06115-1.7188 0.1875-0.52451 0.12644-0.97289 0.36253-1.375 0.6875-0.38464 0.307-0.71022 0.72641-0.9375 1.25-0.22729 0.50562-0.3125 1.1611-0.3125 1.9375-0.000001 0.18388 0.02042 0.33142 0.03125 0.5 0.03308-0.54893 0.10746-1.0509 0.28125-1.4375 0.22728-0.52359 0.55286-0.943 0.9375-1.25 0.40211-0.32497 0.85049-0.56106 1.375-0.6875 0.54198-0.12635 1.1243-0.18746 1.7188-0.1875 0.59442 0.000042 1.1317 0.06115 1.6562 0.1875 0.52449 0.12644 0.99036 0.36253 1.375 0.6875 0.4021 0.307 0.74146 0.72641 0.96875 1.25 0.18729 0.38692 0.27496 0.88804 0.3125 1.4375 0.01224-0.16817 0.03125-0.31662 0.03125-0.5-0.000013-0.77638-0.099-1.4319-0.34375-1.9375-0.2273-0.52359-0.56665-0.943-0.96875-1.25-0.38464-0.32497-0.85051-0.56106-1.375-0.6875-0.524-0.126-1.062-0.187-1.656-0.187zm-4.0312 12v1h8.0312v-1h-8.0312zm-26.438 11.407c-0.09067 0.33397-0.19349 0.66541-0.28125 1h9.6562l-0.28125-1h-9.0938z"/>
  <path id="path3838" style="opacity:.3;fill:#803300" d="m34.875 36-12.875 40h8.4688l2.75-9.4688h13.656l2.6875 9.4688h8.5l-12.937-40h-10.25zm31.125 0.031c-0.59444 0.000042-1.1768 0.06115-1.7188 0.1875-0.52451 0.12644-0.97289 0.36253-1.375 0.6875-0.38464 0.307-0.71022 0.72641-0.9375 1.25-0.22729 0.50562-0.3125 1.1611-0.3125 1.9375-0.000004 0.7584 0.08521 1.3827 0.3125 1.9062 0.22728 0.52367 0.55286 0.95627 0.9375 1.2812 0.40211 0.30699 0.85049 0.51184 1.375 0.65625 0.54198 0.12643 1.1243 0.21878 1.7188 0.21875 0.59442 0.000034 1.1317-0.09232 1.6562-0.21875 0.52449-0.14442 0.99036-0.34926 1.375-0.65625 0.402-0.325 0.742-0.757 0.969-1.281 0.24475-0.5236 0.34374-1.1478 0.34375-1.9062-0.000013-0.77638-0.099-1.4319-0.34375-1.9375-0.2273-0.52359-0.56665-0.943-0.96875-1.25-0.38464-0.32497-0.85051-0.56106-1.375-0.6875-0.524-0.127-1.062-0.188-1.656-0.188zm-30.375 0.969h8.75l12.281 38h-6.3438l-2.4688-8.75a1.0068 1.0068 0 0 0 -0.968 -0.719h-13.656a1.0068 1.0068 0 0 0 -0.969 0.719l-2.531 8.75h-6.313l12.219-38zm30.375 0.031c0.52548 0.000037 0.96208 0.04925 1.4062 0.15625 0.37896 0.09136 0.70659 0.27851 0.96875 0.5a1.0068 1.0068 0 0 0 0.03125 0.03125c0.26774 0.20441 0.4965 0.47576 0.65625 0.84375a1.0068 1.0068 0 0 0 0.03125 0.03125c0.14246 0.2943 0.24999 0.80918 0.25 1.5-0.000011 0.67082-0.09114 1.1289-0.25 1.4688a1.0068 1.0068 0 0 0 -0.03125 0.03125c-0.16221 0.37372-0.37848 0.68176-0.65625 0.90625-0.23938 0.19105-0.5794 0.34976-1 0.46875-0.0105 0.0025-0.02078-0.0025-0.03125 0-0.46901 0.1116-0.89558 0.18753-1.375 0.1875-0.47003 0.000027-0.9643-0.08038-1.4375-0.1875-0.41547-0.11439-0.72159-0.26263-1-0.46875-0.01022-0.0086-0.02111-0.02236-0.03125-0.03125-0.24972-0.21905-0.46345-0.50279-0.625-0.875-0.14751-0.33981-0.25-0.81701-0.25-1.5-0.000004-0.70271 0.08629-1.2366 0.21875-1.5312a1.0068 1.0068 0 0 0 0.03125 0c0.16564-0.38159 0.37327-0.67408 0.625-0.875 0.29538-0.23872 0.60758-0.40883 0.96875-0.5 0.0094-0.0022 0.0218 0.0022 0.03125 0 0.449-0.102 0.954-0.156 1.469-0.156zm-25.969 3.5625a1.0068 1.0068 0 0 0 -0.1875 0.03125 1.0068 1.0068 0 0 0 -0.8125 0.8125c-1.148 5.9424-3.178 11.756-4.75 17.75a1.0068 1.0068 0 0 0 0.96875 1.25h9.6562a1.0068 1.0068 0 0 0 0.969 -1.282l-4.875-17.812a1.0068 1.0068 0 0 0 -0.96875 -0.75zm0 1.0312 4.875 17.812h-9.6562c1.5579-5.9397 3.6143-11.772 4.7812-17.812zm21.938 6.4062v27.969h8.0312v-27.969h-8.0312zm1 1h6.0312v25.969h-6.0312v-25.969z"/>
 </g>
</svg>
