<?xml version="1.0" encoding="UTF-8" standalone="no"?>
<!-- Created with Inkscape (http://www.inkscape.org/) -->
<svg id="svg2408" xmlns:rdf="http://www.w3.org/1999/02/22-rdf-syntax-ns#" xmlns="http://www.w3.org/2000/svg" height="96" width="96" version="1.2" xmlns:cc="http://creativecommons.org/ns#" xmlns:xlink="http://www.w3.org/1999/xlink" xmlns:dc="http://purl.org/dc/elements/1.1/">
 <defs id="defs2410">
  <linearGradient id="ButtonShadow" y2="7.0165" gradientUnits="userSpaceOnUse" x2="45.448" gradientTransform="scale(1.0059 .99417)" y1="92.54" x1="45.448">
   <stop id="stop3750" offset="0"/>
   <stop id="stop3752" style="stop-opacity:.58824" offset="1"/>
  </linearGradient>
  <linearGradient id="linearGradient3706" y2="5.9877" gradientUnits="userSpaceOnUse" x2="48" y1="90" x1="48">
   <stop id="stop3702" style="stop-color:#e6e6e6" offset="0"/>
   <stop id="stop3704" style="stop-color:#f5f5f5" offset="1"/>
  </linearGradient>
  <filter id="filter3174" color-interpolation-filters="sRGB">
   <feGaussianBlur id="feGaussianBlur3176" stdDeviation="1.71"/>
  </filter>
  <linearGradient id="ButtonShadow-0" y2="7.0165" gradientUnits="userSpaceOnUse" x2="45.448" gradientTransform="matrix(1.0059 0 0 .99417 100 0)" y1="92.54" x1="45.448">
   <stop id="stop3750-8" offset="0"/>
   <stop id="stop3752-5" style="stop-opacity:.58824" offset="1"/>
  </linearGradient>
  <linearGradient id="linearGradient3780" y2="90.239" xlink:href="#ButtonShadow-0" gradientUnits="userSpaceOnUse" x2="32.251" gradientTransform="matrix(1.0238 0 0 1.0119 -1.1429 -98.071)" y1="6.1317" x1="32.251"/>
  <linearGradient id="linearGradient3721" y2="90.239" xlink:href="#ButtonShadow-0" gradientUnits="userSpaceOnUse" x2="32.251" gradientTransform="translate(0,-97)" y1="6.1317" x1="32.251"/>
  <radialGradient id="radialGradient2886" gradientUnits="userSpaceOnUse" cy="90.172" cx="48" gradientTransform="matrix(1.1573 0 0 .99591 -7.551 .19713)" r="42">
   <stop id="stop3739-6" style="stop-color:#fff" offset="0"/>
   <stop id="stop3741-0" style="stop-color:#fff;stop-opacity:0" offset="1"/>
  </radialGradient>
  <linearGradient id="linearGradient3680" y2="63.893" gradientUnits="userSpaceOnUse" x2="36.357" y1="6" x1="36.357">
   <stop id="stop3739-9-8" style="stop-color:#fff" offset="0"/>
   <stop id="stop3741-3" style="stop-color:#fff;stop-opacity:0" offset="1"/>
  </linearGradient>
  <clipPath id="clipPath3776">
   <path id="path3779" style="fill:#f0f" d="m-88 6c-3.324 0-6 2.676-6 6v72c0 3.324 2.676 6 6 6h72c3.324 0 6-2.676 6-6v-72c0-3.324-2.676-6-6-6h-72zm14.781 18h4.4062c0.94413 0.000013 1.6467 0.34287 2.1562 1.0938 0.40462 0.60557 0.65624 1.3308 0.65625 2.0938v5.6875c-0.000012 0.763-0.25163 1.4499-0.65625 2.0312-0.509 0.738-1.211 1.093-2.155 1.093h-4.4062c-0.92916 0-1.678-0.35497-2.1875-1.0938-0.405-0.581-0.594-1.268-0.594-2.031v-5.6875c0.000001-0.76299 0.18912-1.4882 0.59375-2.0938 0.50953-0.75088 1.2583-1.0937 2.1875-1.0938zm11.25 0h4.0938v11h3.875v1h-10v-1h3.875v-10h-1.8438v-1zm12.75 0h4.4062c0.94413 0.000013 1.6467 0.34287 2.1562 1.0938 0.40462 0.60557 0.65624 1.3308 0.65625 2.0938v5.6875c-0.000012 0.763-0.25163 1.4499-0.65625 2.0312-0.509 0.738-1.211 1.093-2.155 1.093h-4.4062c-0.92916 0-1.678-0.35497-2.1875-1.0938-0.405-0.581-0.594-1.268-0.594-2.031v-5.6875c0.000001-0.76299 0.18912-1.4882 0.59375-2.0938 0.50953-0.75088 1.2583-1.0937 2.1875-1.0938zm12 0h4.4062c0.94413 0.000013 1.6467 0.34287 2.1562 1.0938 0.40462 0.60557 0.65624 1.3308 0.65625 2.0938v5.6875c-0.000012 0.763-0.25163 1.4499-0.65625 2.0312-0.509 0.738-1.211 1.093-2.155 1.093h-4.4062c-0.92916 0-1.678-0.35497-2.1875-1.0938-0.405-0.581-0.594-1.268-0.594-2.031v-5.6875c0.000001-0.76299 0.18912-1.4882 0.59375-2.0938 0.50953-0.75088 1.2583-1.0937 2.1875-1.0938zm-34.875 1c-0.61444 0.000012-1.1078 0.26048-1.4375 0.78125-0.25477 0.41179-0.40625 0.89759-0.40625 1.4062v5.6875c-0.000002 0.36334 0.10013 0.70425 0.25 1.0312l4.5312-8.7812c-0.20982-0.08476-0.43274-0.12499-0.6875-0.125h-2.25zm24 0c-0.61444 0.000012-1.1078 0.26048-1.4375 0.78125-0.25477 0.41179-0.40625 0.89759-0.40625 1.4062v5.6875c-0.000002 0.36334 0.10013 0.70425 0.25 1.0312l4.5312-8.7812c-0.20982-0.08476-0.43274-0.12499-0.6875-0.125h-2.25zm12 0c-0.61444 0.000012-1.1078 0.26048-1.4375 0.78125-0.25477 0.41179-0.40625 0.89759-0.40625 1.4062v5.6875c-0.000002 0.36334 0.10013 0.70425 0.25 1.0312l4.5312-8.7812c-0.20982-0.08476-0.43274-0.12499-0.6875-0.125h-2.25zm-32.156 1.1562-4.5 8.75c0.19482 0.07266 0.43145 0.125 0.65625 0.125h2.25c0.61443 0.000002 1.0603-0.26047 1.375-0.78125 0.25476-0.39966 0.40624-0.87844 0.40625-1.375v-5.6875c-0.000007-0.35121-0.05263-0.69213-0.1875-1.0312zm24 0-4.5 8.75c0.19482 0.07266 0.43145 0.125 0.65625 0.125h2.25c0.61443 0.000002 1.0603-0.26047 1.375-0.78125 0.25476-0.39966 0.40624-0.87844 0.40625-1.375v-5.6875c-0.000007-0.35121-0.05263-0.69213-0.1875-1.0312zm12 0-4.5 8.75c0.19482 0.07266 0.43145 0.125 0.65625 0.125h2.25c0.61443 0.000002 1.0603-0.26047 1.375-0.78125 0.25476-0.39966 0.40624-0.87844 0.40625-1.375v-5.6875c-0.000007-0.35121-0.05263-0.69213-0.1875-1.0312zm-41.719 15.844h4.0938v11h3.875v1h-10v-1h3.875v-10h-1.8438v-1zm12 0h4.0938v11h3.875v1h-10v-1h3.875v-10h-1.8438v-1zm12.75 0h4.4062c0.94413 0.000013 1.6467 0.34287 2.1562 1.0938 0.40462 0.60557 0.65624 1.3308 0.65625 2.0938v5.6875c-0.000012 0.763-0.25163 1.4499-0.65625 2.0312-0.509 0.738-1.211 1.093-2.155 1.093h-4.4062c-0.92916 0-1.678-0.35497-2.1875-1.0938-0.405-0.581-0.594-1.268-0.594-2.031v-5.6875c0.000001-0.76299 0.18912-1.4882 0.59375-2.0938 0.50953-0.75088 1.2583-1.0937 2.1875-1.0938zm11.25 0h4.0938v11h3.875v1h-10v-1h3.875v-10h-1.8438v-1zm-10.125 1c-0.61444 0.000012-1.1078 0.26048-1.4375 0.78125-0.25477 0.41179-0.40625 0.89759-0.40625 1.4062v5.6875c-0.000002 0.36334 0.10013 0.70425 0.25 1.0312l4.5312-8.7812c-0.20982-0.08476-0.43274-0.12499-0.6875-0.125h-2.25zm3.8438 1.1562-4.5 8.75c0.19482 0.07266 0.43145 0.125 0.65625 0.125h2.25c0.61443 0.000002 1.0603-0.26047 1.375-0.78125 0.25476-0.39966 0.40624-0.87844 0.40625-1.375v-5.6875c-0.000007-0.35121-0.05263-0.69213-0.1875-1.0312zm-29.719 15.844h4.0938v11h3.875v1h-10v-1h3.875v-10h-1.8438v-1zm12.75 0h4.4062c0.94413 0.000013 1.6467 0.34287 2.1562 1.0938 0.40462 0.60557 0.65624 1.3308 0.65625 2.0938v5.6875c-0.000012 0.763-0.25163 1.4499-0.65625 2.0312-0.509 0.738-1.211 1.093-2.155 1.093h-4.4062c-0.92916 0-1.678-0.35497-2.1875-1.0938-0.405-0.581-0.594-1.268-0.594-2.031v-5.6875c0.000001-0.76299 0.18912-1.4882 0.59375-2.0938 0.50953-0.75088 1.2583-1.0937 2.1875-1.0938zm12 0h4.4062c0.94413 0.000013 1.6467 0.34287 2.1562 1.0938 0.40462 0.60557 0.65624 1.3308 0.65625 2.0938v5.6875c-0.000012 0.763-0.25163 1.4499-0.65625 2.0312-0.509 0.738-1.211 1.093-2.155 1.093h-4.4062c-0.92916 0-1.678-0.35497-2.1875-1.0938-0.405-0.581-0.594-1.268-0.594-2.031v-5.6875c0.000001-0.76299 0.18912-1.4882 0.59375-2.0938 0.50953-0.75088 1.2583-1.0937 2.1875-1.0938zm11.25 0h4.0938v11h3.875v1h-10v-1h3.875v-10h-1.8438v-1zm-22.125 1c-0.61444 0.000012-1.1078 0.26048-1.4375 0.78125-0.25477 0.41179-0.40625 0.89759-0.40625 1.4062v5.6875c-0.000002 0.36334 0.10013 0.70425 0.25 1.0312l4.5312-8.7812c-0.20982-0.08476-0.43274-0.12499-0.6875-0.125h-2.25zm12 0c-0.61444 0.000012-1.1078 0.26048-1.4375 0.78125-0.25477 0.41179-0.40625 0.89759-0.40625 1.4062v5.6875c-0.000002 0.36334 0.10013 0.70425 0.25 1.0312l4.5312-8.7812c-0.20982-0.08476-0.43274-0.12499-0.6875-0.125h-2.25zm-8.1562 1.1562-4.5 8.75c0.19482 0.07266 0.43145 0.125 0.65625 0.125h2.25c0.61443 0.000002 1.0603-0.26047 1.375-0.78125 0.25476-0.39966 0.40624-0.87844 0.40625-1.375v-5.6875c-0.000007-0.35121-0.05263-0.69213-0.1875-1.0312zm12 0-4.5 8.75c0.19482 0.07266 0.43145 0.125 0.65625 0.125h2.25c0.61443 0.000002 1.0603-0.26047 1.375-0.78125 0.25476-0.39966 0.40624-0.87844 0.40625-1.375v-5.6875c-0.000007-0.35121-0.05263-0.69213-0.1875-1.0312z"/>
  </clipPath>
  <filter id="filter3785" height="1.282" width="1.2943" color-interpolation-filters="sRGB" y="-.141" x="-.14713">
   <feGaussianBlur id="feGaussianBlur3787" stdDeviation="2.82"/>
  </filter>
  <linearGradient id="linearGradient3795" y2="24" gradientUnits="userSpaceOnUse" x2="42" y1="72" x1="42">
   <stop id="stop3791" style="stop-color:#949494" offset="0"/>
   <stop id="stop3793" style="stop-color:#b3b3b3" offset="1"/>
  </linearGradient>
  <clipPath id="clipPath3613">
   <rect id="rect3615" style="fill:#fff" rx="6" ry="6" height="84" width="84" y="6" x="6"/>
  </clipPath>
  <filter id="filter3794" height="1.384" width="1.384" color-interpolation-filters="sRGB" y="-.192" x="-.192">
   <feGaussianBlur id="feGaussianBlur3796" stdDeviation="5.28"/>
  </filter>
  <linearGradient id="linearGradient4209" y2="138.66" gradientUnits="userSpaceOnUse" x2="48" y1="20.221" x1="48">
   <stop id="stop3739-2" style="stop-color:#fff" offset="0"/>
   <stop id="stop3741-1" style="stop-color:#fff;stop-opacity:0" offset="1"/>
  </linearGradient>
 </defs>
 <metadata id="metadata2413">
  <rdf:RDF>
   <cc:Work rdf:about="">
    <dc:format>image/svg+xml</dc:format>
    <dc:type rdf:resource="http://purl.org/dc/dcmitype/StillImage"/>
   </cc:Work>
  </rdf:RDF>
 </metadata>
 <g id="layer2" style="display:none">
  <rect id="rect3745" style="opacity:.9;filter:url(#filter3174);fill:url(#ButtonShadow)" rx="6" ry="6" height="85" width="86" y="7" x="5"/>
 </g>
 <g id="layer4">
  <path id="path3786" style="opacity:0.08;fill:url(#linearGradient3780)" d="m12-95.031c-5.5111 0-10.031 4.5202-10.031 10.031v71c0 5.5111 4.5202 10.031 10.031 10.031h72c5.5111 0 10.031-4.5202 10.031-10.031v-71c0-5.5111-4.5202-10.031-10.031-10.031h-72z" transform="scale(1,-1)"/>
  <path id="path3778" style="opacity:.1;fill:url(#linearGradient3780)" d="m12-94.031c-4.9716 0-9.0312 4.0596-9.0312 9.0312v71c0 4.9716 4.0596 9.0312 9.0312 9.0312h72c4.9716 0 9.0312-4.0596 9.0312-9.0312v-71c0-4.9716-4.0596-9.0312-9.0312-9.0312h-72z" transform="scale(1,-1)"/>
  <path id="path3770" style="opacity:.2;fill:url(#linearGradient3780)" d="m12-93c-4.4091 0-8 3.5909-8 8v71c0 4.4091 3.5909 8 8 8h72c4.4091 0 8-3.5909 8-8v-71c0-4.4091-3.5909-8-8-8h-72z" transform="scale(1,-1)"/>
  <rect id="rect3723" style="opacity:.3;fill:url(#linearGradient3780)" transform="scale(1,-1)" rx="7" ry="7" height="85" width="86" y="-92" x="5"/>
  <rect id="rect3716" style="opacity:.45;fill:url(#linearGradient3721)" transform="scale(1,-1)" rx="6" ry="6" height="84" width="84" y="-91" x="6"/>
 </g>
 <g id="layer1">
  <rect id="rect2419" style="fill:url(#linearGradient3706)" rx="6" ry="6" height="84" width="84" y="6" x="6"/>
  <flowRoot id="flowRoot2424" xml:space="preserve" style="font-size:16px;font-family:Unispace;line-height:100%;fill:#b3b3b3" transform="matrix(1.0889 0 0 1.1265 2.5928 68.632)"><flowRegion id="flowRegion2426"><rect id="rect2428" style="fill:#b3b3b3" height="71.958" width="72.226" y="34.507" x="13.763"/></flowRegion><flowPara id="flowPara2430">0101110</flowPara><flowPara id="flowPara2432">1101001</flowPara><flowPara id="flowPara2434">0001011</flowPara></flowRoot>
  <path id="path3699" style="opacity:.6;filter:url(#filter3785);stroke:#fff;stroke-width:2;fill:none" d="m-73.219 24c-0.92916 0.000012-1.678 0.34287-2.1875 1.0938-0.40463 0.60557-0.59375 1.3308-0.59375 2.0938v5.6875c0 0.763 0.18912 1.4499 0.59375 2.0312 0.50953 0.73878 1.2583 1.0938 2.1875 1.0938h4.4062c0.94413 0 1.6467-0.35497 2.1562-1.0938 0.40462-0.58133 0.65624-1.2682 0.65625-2.0312v-5.6875c-0.000012-0.76299-0.25163-1.4882-0.65625-2.0938-0.509-0.751-1.211-1.094-2.155-1.094h-4.4062zm11.25 0v1h1.8438v10h-3.875v1h10v-1h-3.875v-11h-4.0938zm12.75 0c-0.92916 0.000012-1.678 0.34287-2.1875 1.0938-0.40463 0.60557-0.59375 1.3308-0.59375 2.0938v5.6875c0 0.763 0.18912 1.4499 0.59375 2.0312 0.50953 0.73878 1.2583 1.0938 2.1875 1.0938h4.4062c0.94413 0 1.6467-0.35497 2.1562-1.0938 0.40462-0.58133 0.65624-1.2682 0.65625-2.0312v-5.6875c-0.000012-0.76299-0.25163-1.4882-0.65625-2.0938-0.509-0.751-1.211-1.094-2.155-1.094h-4.4062zm12 0c-0.92916 0.000012-1.678 0.34287-2.1875 1.0938-0.40463 0.60557-0.59375 1.3308-0.59375 2.0938v5.6875c0 0.763 0.18912 1.4499 0.59375 2.0312 0.50953 0.73878 1.2583 1.0938 2.1875 1.0938h4.4062c0.94413 0 1.6467-0.35497 2.1562-1.0938 0.40462-0.58133 0.65624-1.2682 0.65625-2.0312v-5.6875c-0.000012-0.76299-0.25163-1.4882-0.65625-2.0938-0.509-0.751-1.211-1.094-2.155-1.094h-4.4062zm-34.875 1h2.25c0.25476 0.000011 0.47768 0.04024 0.6875 0.125l-4.5312 8.7812c-0.14987-0.327-0.25-0.66792-0.25-1.0312v-5.6875c-0.000002-0.50866 0.15148-0.99446 0.40625-1.4062 0.3297-0.52077 0.82306-0.78124 1.4375-0.78125zm24 0h2.25c0.25476 0.000011 0.47768 0.04024 0.6875 0.125l-4.5312 8.7812c-0.14987-0.327-0.25-0.66792-0.25-1.0312v-5.6875c-0.000002-0.50866 0.15148-0.99446 0.40625-1.4062 0.3297-0.52077 0.82306-0.78124 1.4375-0.78125zm12 0h2.25c0.25476 0.000011 0.47768 0.04024 0.6875 0.125l-4.5312 8.7812c-0.14987-0.327-0.25-0.66792-0.25-1.0312v-5.6875c-0.000002-0.50866 0.15148-0.99446 0.40625-1.4062 0.3297-0.52077 0.82306-0.78124 1.4375-0.78125zm-32.156 1.156c0.13487 0.33912 0.18749 0.68004 0.1875 1.0312v5.6875c-0.000007 0.49656-0.15149 0.97534-0.40625 1.375-0.31472 0.52078-0.76057 0.78125-1.375 0.78125h-2.25c-0.2248 0.000001-0.46143-0.05234-0.65625-0.125l4.5-8.75zm24 0c0.13487 0.33912 0.18749 0.68004 0.1875 1.0312v5.6875c-0.000007 0.49656-0.15149 0.97534-0.40625 1.375-0.31472 0.52078-0.76057 0.78125-1.375 0.78125h-2.25c-0.2248 0.000001-0.46143-0.05234-0.65625-0.125l4.5-8.75zm12 0c0.13487 0.33912 0.18749 0.68004 0.1875 1.0312v5.6875c-0.000007 0.49656-0.15149 0.97534-0.40625 1.375-0.31472 0.52078-0.76057 0.78125-1.375 0.78125h-2.25c-0.2248 0.000001-0.46143-0.05234-0.65625-0.125l4.5-8.75zm-41.719 15.844v1h1.8438v10h-3.875v1h10v-1h-3.875v-11h-4.0938zm12 0v1h1.8438v10h-3.875v1h10v-1h-3.875v-11h-4.0938zm12.75 0c-0.92916 0.000012-1.678 0.34287-2.1875 1.0938-0.40463 0.60557-0.59375 1.3308-0.59375 2.0938v5.6875c0 0.763 0.18912 1.4499 0.59375 2.0312 0.50953 0.73878 1.2583 1.0938 2.1875 1.0938h4.4062c0.94413 0 1.6467-0.35497 2.1562-1.0938 0.40462-0.58133 0.65624-1.2682 0.65625-2.0312v-5.6875c-0.000012-0.76299-0.25163-1.4882-0.65625-2.0938-0.509-0.751-1.211-1.094-2.155-1.094h-4.4062zm11.25 0v1h1.8438v10h-3.875v1h10v-1h-3.875v-11h-4.0938zm-10.125 1h2.25c0.25476 0.000011 0.47768 0.04024 0.6875 0.125l-4.5312 8.7812c-0.14987-0.327-0.25-0.66792-0.25-1.0312v-5.6875c-0.000002-0.50866 0.15148-0.99446 0.40625-1.4062 0.3297-0.52077 0.82306-0.78124 1.4375-0.78125zm3.8438 1.1562c0.13487 0.33912 0.18749 0.68004 0.1875 1.0312v5.6875c-0.000007 0.49656-0.15149 0.97534-0.40625 1.375-0.31472 0.52078-0.76057 0.78125-1.375 0.78125h-2.25c-0.2248 0.000001-0.46143-0.05234-0.65625-0.125l4.5-8.75zm-29.719 15.844v1h1.8438v10h-3.875v1h10v-1h-3.875v-11h-4.0938zm12.75 0c-0.92916 0.000012-1.678 0.34287-2.1875 1.0938-0.40463 0.60557-0.59375 1.3308-0.59375 2.0938v5.6875c0 0.763 0.18912 1.4499 0.59375 2.0312 0.50953 0.73878 1.2583 1.0938 2.1875 1.0938h4.4062c0.94413 0 1.6467-0.35497 2.1562-1.0938 0.40462-0.58133 0.65624-1.2682 0.65625-2.0312v-5.6875c-0.000012-0.76299-0.25163-1.4882-0.65625-2.0938-0.509-0.751-1.211-1.094-2.155-1.094h-4.4062zm12 0c-0.92916 0.000012-1.678 0.34287-2.1875 1.0938-0.40463 0.60557-0.59375 1.3308-0.59375 2.0938v5.6875c0 0.763 0.18912 1.4499 0.59375 2.0312 0.50953 0.73878 1.2583 1.0938 2.1875 1.0938h4.4062c0.94413 0 1.6467-0.35497 2.1562-1.0938 0.40462-0.58133 0.65624-1.2682 0.65625-2.0312v-5.6875c-0.000012-0.76299-0.25163-1.4882-0.65625-2.0938-0.509-0.751-1.211-1.094-2.155-1.094h-4.4062zm11.25 0v1h1.8438v10h-3.875v1h10v-1h-3.875v-11h-4.0938zm-22.125 1h2.25c0.25476 0.000011 0.47768 0.04024 0.6875 0.125l-4.5312 8.7812c-0.14987-0.327-0.25-0.66792-0.25-1.0312v-5.6875c-0.000002-0.50866 0.15148-0.99446 0.40625-1.4062 0.3297-0.52077 0.82306-0.78124 1.4375-0.78125zm12 0h2.25c0.25476 0.000011 0.47768 0.04024 0.6875 0.125l-4.5312 8.7812c-0.14987-0.327-0.25-0.66792-0.25-1.0312v-5.6875c-0.000002-0.50866 0.15148-0.99446 0.40625-1.4062 0.3297-0.52077 0.82306-0.78124 1.4375-0.78125zm-8.156 1.156c0.13487 0.33912 0.18749 0.68004 0.1875 1.0312v5.6875c-0.000007 0.49656-0.15149 0.97534-0.40625 1.375-0.31472 0.52078-0.76057 0.78125-1.375 0.78125h-2.25c-0.2248 0.000001-0.46143-0.05234-0.65625-0.125l4.5-8.75zm12 0c0.13487 0.33912 0.18749 0.68004 0.1875 1.0312v5.6875c-0.000007 0.49656-0.15149 0.97534-0.40625 1.375-0.31472 0.52078-0.76057 0.78125-1.375 0.78125h-2.25c-0.2248 0.000001-0.46143-0.05234-0.65625-0.125l4.5-8.75z" clip-path="url(#clipPath3776)" transform="translate(100)"/>
  <g id="g2467" style="fill:url(#linearGradient3795)" transform="translate(6)">
   <path id="path2439" style="fill:url(#linearGradient3795)" d="m20.782 24c-0.92916 0.000012-1.6679 0.35148-2.1774 1.1024-0.405 0.606-0.605 1.316-0.605 2.079v5.7008c0 0.763 0.20021 1.4344 0.60484 2.0157 0.509 0.738 1.248 1.102 2.177 1.102h4.3952c0.94413 0 1.6679-0.36358 2.1774-1.1024 0.405-0.582 0.646-1.253 0.646-2.016v-5.7008c-0.000012-0.76299-0.24054-1.4732-0.64516-2.0787-0.51-0.751-1.233-1.102-2.178-1.102h-4.3952zm1.1097 1.0079h2.2793c0.25476 0.000011 0.47567 0.04122 0.68548 0.12598l-4.5373 8.7874c-0.14987-0.327-0.24194-0.67604-0.24194-1.0394v-5.7008c-0.000002-0.50866 0.14846-0.97404 0.40323-1.3858 0.3297-0.52077 0.79685-0.78739 1.4113-0.7874zm3.8518 1.1339c0.13487 0.33912 0.20161 0.68816 0.20161 1.0394v5.7008c-0.000007 0.49656-0.14846 0.95467-0.40322 1.3543-0.31472 0.52078-0.75654 0.7874-1.371 0.7874h-2.2793c-0.2248 0.000001-0.45034-0.05332-0.64516-0.12598l4.497-8.7559z"/>
   <path id="flowRoot2412" style="fill:url(#linearGradient3795)" d="m40 36h-10v-0.99698h3.8605v-9.9879h-1.8255v-1.0151h4.0762v11.003h3.8888l0.001 0.997"/>
   <path id="path2447" style="fill:url(#linearGradient3795)" d="m44.782 24c-0.92916 0.000012-1.6679 0.35148-2.1774 1.1024-0.405 0.606-0.605 1.316-0.605 2.079v5.7008c0 0.763 0.20021 1.4344 0.60484 2.0157 0.509 0.738 1.248 1.102 2.177 1.102h4.3952c0.94413 0 1.6679-0.36358 2.1774-1.1024 0.405-0.582 0.646-1.253 0.646-2.016v-5.7008c-0.000012-0.76299-0.24054-1.4732-0.64516-2.0787-0.51-0.751-1.233-1.102-2.178-1.102h-4.3952zm1.1097 1.0079h2.2793c0.25476 0.000011 0.47567 0.04122 0.68548 0.12598l-4.5373 8.7874c-0.14987-0.327-0.24194-0.67604-0.24194-1.0394v-5.7008c-0.000002-0.50866 0.14846-0.97404 0.40323-1.3858 0.3297-0.52077 0.79685-0.78739 1.4113-0.7874zm3.8518 1.1339c0.13487 0.33912 0.20161 0.68816 0.20161 1.0394v5.7008c-0.000007 0.49656-0.14846 0.95467-0.40322 1.3543-0.31472 0.52078-0.75654 0.7874-1.371 0.7874h-2.2793c-0.2248 0.000001-0.45034-0.05332-0.64516-0.12598l4.497-8.7559z"/>
   <path id="path2449" style="fill:url(#linearGradient3795)" d="m56.782 24c-0.92916 0.000012-1.6679 0.35148-2.1774 1.1024-0.405 0.606-0.605 1.316-0.605 2.079v5.7008c0 0.763 0.20021 1.4344 0.60484 2.0157 0.509 0.738 1.248 1.102 2.177 1.102h4.3952c0.94413 0 1.6679-0.36358 2.1774-1.1024 0.405-0.582 0.646-1.253 0.646-2.016v-5.7008c-0.000012-0.76299-0.24054-1.4732-0.64516-2.0787-0.51-0.751-1.233-1.102-2.178-1.102h-4.3952zm1.1097 1.0079h2.2793c0.25476 0.000011 0.47567 0.04122 0.68548 0.12598l-4.5373 8.7874c-0.14987-0.327-0.24194-0.67604-0.24194-1.0394v-5.7008c-0.000002-0.50866 0.14846-0.97404 0.40323-1.3858 0.3297-0.52077 0.79685-0.78739 1.4113-0.7874zm3.8518 1.1339c0.13487 0.33912 0.20161 0.68816 0.20161 1.0394v5.7008c-0.000007 0.49656-0.14846 0.95467-0.40322 1.3543-0.31472 0.52078-0.75654 0.7874-1.371 0.7874h-2.2793c-0.2248 0.000001-0.45034-0.05332-0.64516-0.12598l4.497-8.7559z"/>
   <path id="path2451" style="fill:url(#linearGradient3795)" d="m28 54h-10v-0.99698h3.8605v-9.9879h-1.8255v-1.0151h4.0762v11.003h3.8888l0.001 0.997"/>
   <path id="path2453" style="fill:url(#linearGradient3795)" d="m40 54h-10v-0.99698h3.8605v-9.9879h-1.8255v-1.0151h4.0762v11.003h3.8888l0.001 0.997"/>
   <path id="path2455" style="fill:url(#linearGradient3795)" d="m44.782 42c-0.92916 0.000012-1.6679 0.35148-2.1774 1.1024-0.405 0.606-0.605 1.316-0.605 2.079v5.7008c0 0.763 0.20021 1.4344 0.60484 2.0157 0.509 0.738 1.248 1.102 2.177 1.102h4.3952c0.94413 0 1.6679-0.36358 2.1774-1.1024 0.405-0.582 0.646-1.253 0.646-2.016v-5.7008c-0.000012-0.76299-0.24054-1.4732-0.64516-2.0787-0.51-0.751-1.233-1.102-2.178-1.102h-4.3952zm1.1097 1.0079h2.2793c0.25476 0.000011 0.47567 0.04122 0.68548 0.12598l-4.5373 8.7874c-0.14987-0.327-0.24194-0.67604-0.24194-1.0394v-5.7008c-0.000002-0.50866 0.14846-0.97404 0.40323-1.3858 0.3297-0.52077 0.79685-0.78739 1.4113-0.7874zm3.8518 1.1339c0.13487 0.33912 0.20161 0.68816 0.20161 1.0394v5.7008c-0.000007 0.49656-0.14846 0.95467-0.40322 1.3543-0.31472 0.52078-0.75654 0.7874-1.371 0.7874h-2.2793c-0.2248 0.000001-0.45034-0.05332-0.64516-0.12598l4.497-8.7559z"/>
   <path id="path2457" style="fill:url(#linearGradient3795)" d="m64 54h-10v-0.99698h3.8605v-9.9879h-1.8255v-1.0151h4.0762v11.003h3.8888l0.001 0.997"/>
   <path id="path2459" style="fill:url(#linearGradient3795)" d="m28 72h-10v-0.99698h3.8605v-9.9879h-1.8255v-1.0151h4.0762v11.003h3.8888l0.001 0.997"/>
   <path id="path2461" style="fill:url(#linearGradient3795)" d="m32.782 60c-0.92916 0.000012-1.6679 0.35148-2.1774 1.1024-0.405 0.606-0.605 1.316-0.605 2.079v5.7008c0 0.763 0.20021 1.4344 0.60484 2.0157 0.509 0.738 1.248 1.102 2.177 1.102h4.3952c0.94413 0 1.6679-0.36358 2.1774-1.1024 0.405-0.582 0.646-1.253 0.646-2.016v-5.7008c-0.000012-0.76299-0.24054-1.4732-0.64516-2.0787-0.51-0.751-1.233-1.102-2.178-1.102h-4.3952zm1.1097 1.0079h2.2793c0.25476 0.000011 0.47567 0.04122 0.68548 0.12598l-4.5373 8.7874c-0.14987-0.327-0.24194-0.67604-0.24194-1.0394v-5.7008c-0.000002-0.50866 0.14846-0.97404 0.40323-1.3858 0.3297-0.52077 0.79685-0.78739 1.4113-0.7874zm3.8518 1.1339c0.13487 0.33912 0.20161 0.68816 0.20161 1.0394v5.7008c-0.000007 0.49656-0.14846 0.95467-0.40322 1.3543-0.31472 0.52078-0.75654 0.7874-1.371 0.7874h-2.2793c-0.2248 0.000001-0.45034-0.05332-0.64516-0.12598l4.497-8.7559z"/>
   <path id="path2463" style="fill:url(#linearGradient3795)" d="m44.782 60c-0.92916 0.000012-1.6679 0.35148-2.1774 1.1024-0.405 0.606-0.605 1.316-0.605 2.079v5.7008c0 0.763 0.20021 1.4344 0.60484 2.0157 0.509 0.738 1.248 1.102 2.177 1.102h4.3952c0.94413 0 1.6679-0.36358 2.1774-1.1024 0.405-0.582 0.646-1.253 0.646-2.016v-5.7008c-0.000012-0.76299-0.24054-1.4732-0.64516-2.0787-0.51-0.751-1.233-1.102-2.178-1.102h-4.3952zm1.1097 1.0079h2.2793c0.25476 0.000011 0.47567 0.04122 0.68548 0.12598l-4.5373 8.7874c-0.14987-0.327-0.24194-0.67604-0.24194-1.0394v-5.7008c-0.000002-0.50866 0.14846-0.97404 0.40323-1.3858 0.3297-0.52077 0.79685-0.78739 1.4113-0.7874zm3.8518 1.1339c0.13487 0.33912 0.20161 0.68816 0.20161 1.0394v5.7008c-0.000007 0.49656-0.14846 0.95467-0.40322 1.3543-0.31472 0.52078-0.75654 0.7874-1.371 0.7874h-2.2793c-0.2248 0.000001-0.45034-0.05332-0.64516-0.12598l4.497-8.7559z"/>
   <path id="path2465" style="fill:url(#linearGradient3795)" d="m64 72h-10v-0.99698h3.8605v-9.9879h-1.8255v-1.0151h4.0762v11.003h3.8888l0.001 0.997"/>
  </g>
  <path id="rect3728" style="opacity:.5;fill:url(#linearGradient3680)" d="m12 6c-3.324 0-6 2.676-6 6v2 68 2c0 0.33472 0.04135 0.6507 0.09375 0.96875 0.0487 0.2956 0.09704 0.59692 0.1875 0.875 0.0099 0.03038 0.02089 0.0636 0.03125 0.09375 0.09886 0.28777 0.23488 0.54745 0.375 0.8125 0.14459 0.27351 0.31562 0.53562 0.5 0.78125 0.18438 0.24564 0.37378 0.47347 0.59375 0.6875 0.43995 0.42806 0.94291 0.81453 1.5 1.0938 0.27854 0.13961 0.57347 0.24695 0.875 0.34375-0.2562-0.10022-0.48671-0.23627-0.71875-0.375-0.0074-0.0044-0.02387 0.0045-0.03125 0-0.03193-0.0193-0.06229-0.04251-0.09375-0.0625-0.1204-0.0767-0.23102-0.16351-0.34375-0.25-0.10617-0.0808-0.21328-0.16111-0.3125-0.25-0.1778-0.162-0.3473-0.346-0.4999-0.531-0.1075-0.131-0.2183-0.266-0.3124-0.407-0.0251-0.038-0.0385-0.086-0.0626-0.125-0.0647-0.103-0.1302-0.204-0.1874-0.312-0.1011-0.195-0.2057-0.416-0.2813-0.625-0.008-0.022-0.0236-0.041-0.0313-0.063-0.0318-0.092-0.0358-0.187-0.0624-0.281-0.0304-0.107-0.0704-0.203-0.0938-0.313-0.0729-0.341-0.125-0.698-0.125-1.062v-2-68-2c0-2.782 2.2182-5 5-5h2 68 2c2.7818 0 5 2.2182 5 5v2 68 2c0 0.3643-0.05212 0.72099-0.125 1.0625-0.04415 0.20689-0.08838 0.39766-0.15625 0.59375-0.0077 0.02195-0.0233 0.04069-0.03125 0.0625-0.06274 0.17374-0.13838 0.36745-0.21875 0.53125-0.04158 0.0828-0.07904 0.16995-0.125 0.25-0.0546 0.09721-0.12677 0.18835-0.1875 0.28125-0.09411 0.14096-0.20492 0.276-0.3125 0.40625-0.14317 0.17445-0.30314 0.347-0.46875 0.5-0.01117 0.0102-0.01998 0.02115-0.03125 0.03125-0.13839 0.12556-0.28509 0.23444-0.4375 0.34375-0.10257 0.07315-0.20432 0.15336-0.3125 0.21875-0.0074 0.0045-0.02384-0.0044-0.03125 0-0.23204 0.13873-0.46255 0.27478-0.71875 0.375 0.30153-0.0968 0.59646-0.20414 0.875-0.34375 0.55709-0.27922 1.0601-0.66569 1.5-1.0938 0.21997-0.21403 0.40937-0.44186 0.59375-0.6875s0.35541-0.50774 0.5-0.78125c0.14012-0.26505 0.27614-0.52473 0.375-0.8125 0.01041-0.03078 0.02133-0.06274 0.03125-0.09375 0.09046-0.27808 0.1388-0.5794 0.1875-0.875 0.053-0.318 0.094-0.634 0.094-0.969v-2-68-2c0-3.324-2.676-6-6-6h-72z"/>
  <path id="path3615" style="opacity:.4;fill:url(#radialGradient2886)" d="m12 90c-3.324 0-6-2.676-6-6v-2-68-2c0-0.33472 0.04135-0.6507 0.09375-0.96875 0.0487-0.2956 0.09704-0.59692 0.1875-0.875 0.0099-0.03 0.0209-0.063 0.0313-0.094 0.0989-0.2873 0.2349-0.547 0.375-0.812 0.1446-0.2735 0.3156-0.5356 0.5-0.7812 0.1844-0.2457 0.3738-0.4735 0.5937-0.6876 0.44-0.428 0.943-0.8145 1.5-1.0937 0.2786-0.1396 0.5735-0.2469 0.8748-0.3437-0.256 0.1002-0.4865 0.2362-0.7185 0.375-0.00741 0.0044-0.023866-0.0045-0.03125 0-0.031933 0.0193-0.062293 0.04251-0.09375 0.0625-0.1204 0.0767-0.23102 0.16351-0.34375 0.25-0.10617 0.0808-0.21328 0.16111-0.3125 0.25-0.1779 0.1614-0.3474 0.3453-0.5 0.5312-0.1075 0.1303-0.2183 0.2653-0.3124 0.4063-0.0251 0.0383-0.0385 0.0858-0.0626 0.125-0.0647 0.103-0.1302 0.2045-0.1874 0.3124-0.1011 0.1948-0.2057 0.4158-0.2813 0.625-0.008 0.0219-0.0236 0.0406-0.0313 0.0626-0.0318 0.0919-0.0358 0.1868-0.0624 0.2812-0.0304 0.1066-0.0704 0.203-0.0938 0.3125-0.0729 0.3415-0.125 0.6985-0.125 1.0625v2 68 2c0 2.7818 2.2182 5 5 5h2 68 2c2.7818 0 5-2.2182 5-5v-2-68-2c0-0.364-0.052-0.721-0.125-1.0625-0.044-0.2069-0.088-0.3977-0.156-0.5937-0.008-0.022-0.024-0.0407-0.031-0.0626-0.063-0.1737-0.139-0.3674-0.219-0.5312-0.042-0.0828-0.079-0.17-0.125-0.25-0.055-0.0972-0.127-0.1884-0.188-0.2812-0.094-0.141-0.205-0.276-0.312-0.4063-0.143-0.1745-0.303-0.347-0.469-0.5-0.011-0.0102-0.02-0.0211-0.031-0.0313-0.139-0.1255-0.285-0.2344-0.438-0.3437-0.102-0.0731-0.204-0.1534-0.312-0.2187-0.0074-0.0045-0.02384 0.0044-0.03125 0-0.23204-0.13873-0.46255-0.27478-0.71875-0.375 0.30153 0.0968 0.59646 0.20414 0.875 0.34375 0.55709 0.27922 1.0601 0.66569 1.5 1.0938 0.21997 0.21403 0.40937 0.44186 0.59375 0.6875s0.35541 0.50774 0.5 0.78125c0.14012 0.26505 0.27614 0.52473 0.375 0.8125 0.01041 0.03078 0.02133 0.06274 0.03125 0.09375 0.09046 0.27808 0.1388 0.5794 0.1875 0.875 0.053 0.318 0.094 0.634 0.094 0.969v2 68 2c0 3.324-2.676 6-6 6h-72z"/>
  <rect id="rect3691" style="fill:#f0f" rx="6" ry="6" height="84" width="84" y="6" x="-94"/>
  <rect id="rect3797" style="stroke-width:.5;color:#000000;stroke-dashoffset:8.6;stroke:#000;stroke-linecap:round;fill:#fff" height="16" width="16" y="8" x="112"/>
  <text id="text3799" y="11.969256" x="131.39261" xml:space="preserve" style="font-size:4px;font-family:Liberation Sans;line-height:125%;fill:#000000"><tspan id="tspan3801" y="11.969256" x="131.39261">Width: 2px</tspan><tspan id="tspan3803" y="16.969257" x="131.39261">Blur: 12</tspan><tspan id="tspan3807" y="21.969257" x="131.39261">Opacity: 60</tspan></text>
 </g>
 <g id="layer3">
  <rect id="rect3171" style="opacity:.5;filter:url(#filter3794);stroke:#fff;stroke-linecap:round;stroke-width:.5;fill:url(#linearGradient4209)" clip-path="url(#clipPath3613)" rx="12" ry="12" height="66" width="66" y="15" x="15"/>
 </g>
</svg>
