<?xml version="1.0" encoding="UTF-8" standalone="no"?>
<!-- Created with Inkscape (http://www.inkscape.org/) -->
<svg id="svg2408" xmlns:rdf="http://www.w3.org/1999/02/22-rdf-syntax-ns#" xmlns="http://www.w3.org/2000/svg" height="96" width="96" version="1.0" xmlns:cc="http://creativecommons.org/ns#" xmlns:xlink="http://www.w3.org/1999/xlink" xmlns:dc="http://purl.org/dc/elements/1.1/">
 <defs id="defs2410">
  <linearGradient id="linearGradient3746">
   <stop id="stop3748" offset="0"/>
   <stop id="stop3754" style="stop-opacity:0" offset="1"/>
  </linearGradient>
  <linearGradient id="ButtonShadow" y2="7.0165" gradientUnits="userSpaceOnUse" x2="45.448" gradientTransform="scale(1.0059 .99417)" y1="92.54" x1="45.448">
   <stop id="stop3750" offset="0"/>
   <stop id="stop3752" style="stop-opacity:.58824" offset="1"/>
  </linearGradient>
  <linearGradient id="linearGradient3706" y2="5.9877" gradientUnits="userSpaceOnUse" x2="48" y1="90" x1="48">
   <stop id="stop3702" style="stop-color:#ebebeb" offset="0"/>
   <stop id="stop3704" style="stop-color:#fafafa" offset="1"/>
  </linearGradient>
  <filter id="filter3174" color-interpolation-filters="sRGB">
   <feGaussianBlur id="feGaussianBlur3176" stdDeviation="1.71"/>
  </filter>
  <linearGradient id="ButtonShadow-0" y2="7.0165" gradientUnits="userSpaceOnUse" x2="45.448" gradientTransform="matrix(1.0059 0 0 .99417 100 0)" y1="92.54" x1="45.448">
   <stop id="stop3750-8" offset="0"/>
   <stop id="stop3752-5" style="stop-opacity:.58824" offset="1"/>
  </linearGradient>
  <linearGradient id="linearGradient3780" y2="90.239" xlink:href="#ButtonShadow-0" gradientUnits="userSpaceOnUse" x2="32.251" gradientTransform="matrix(1.0238 0 0 1.0119 -1.1429 -98.071)" y1="6.1317" x1="32.251"/>
  <linearGradient id="linearGradient3721" y2="90.239" xlink:href="#ButtonShadow-0" gradientUnits="userSpaceOnUse" x2="32.251" gradientTransform="translate(0,-97)" y1="6.1317" x1="32.251"/>
  <radialGradient id="radialGradient2886" gradientUnits="userSpaceOnUse" cy="90.172" cx="48" gradientTransform="matrix(1.1573 0 0 .99591 -7.551 .19713)" r="42">
   <stop id="stop3739-6" style="stop-color:#fff" offset="0"/>
   <stop id="stop3741-0" style="stop-color:#fff;stop-opacity:0" offset="1"/>
  </radialGradient>
  <linearGradient id="linearGradient3923" y2="63.893" gradientUnits="userSpaceOnUse" x2="36.357" y1="6" x1="36.357">
   <stop id="stop3739-9" style="stop-color:#fff" offset="0"/>
   <stop id="stop3741-3" style="stop-color:#fff;stop-opacity:0" offset="1"/>
  </linearGradient>
  <linearGradient id="linearGradient3188-6" y2="72.786" gradientUnits="userSpaceOnUse" x2="90.714" y1="72.786" x1="51.429">
   <stop id="stop3780" style="stop-color:#5e8a20" offset="0"/>
   <stop id="stop3782" style="stop-color:#a2d625" offset="1"/>
  </linearGradient>
  <linearGradient id="linearGradient3849" y2="42.4" xlink:href="#linearGradient3746" gradientUnits="userSpaceOnUse" x2="65.6" gradientTransform="matrix(.83333 0 0 .83333 -8.6667 -5.3333)" y1="86.849" x1="65.263"/>
  <linearGradient id="linearGradient3858" y2="43.78" gradientUnits="userSpaceOnUse" x2="65.263" gradientTransform="matrix(.83333 0 0 .83333 -8.6667 -6.3333)" y1="64.205" x1="65.263">
   <stop id="stop3739-5" style="stop-color:#fff" offset="0"/>
   <stop id="stop3741-1" style="stop-color:#fff;stop-opacity:0" offset="1"/>
  </linearGradient>
  <linearGradient id="linearGradient3861" y2="43.591" xlink:href="#linearGradient3746" gradientUnits="userSpaceOnUse" x2="65.263" gradientTransform="matrix(.83333 0 0 .83333 -8.6667 -5.3333)" y1="86.849" x1="65.263"/>
  <clipPath id="clipPath3894">
   <path id="path3896" style="fill:#f0f" d="m104.07 44.498c0-2.6119-2.1026-4.7146-4.7143-4.7146h-56.571c-2.6117 0-4.7143 2.1027-4.7143 4.7146v56.575c0 2.6119 2.1026 4.7146 4.7143 4.7146h56.571c2.6117 0 4.7143-2.1027 4.7143-4.7146v-56.575zm-13.356 28.288c0 10.848-8.7944 19.644-19.643 19.644-10.848 0-19.643-8.7956-19.643-19.644s8.7944-19.644 19.643-19.644c10.848 0 19.643 8.7956 19.643 19.644z"/>
  </clipPath>
  <filter id="filter3898" height="1.288" width="1.288" color-interpolation-filters="sRGB" y="-.14399" x="-.14401">
   <feGaussianBlur id="feGaussianBlur3900" stdDeviation="2.3571428"/>
  </filter>
  <clipPath id="clipPath3613">
   <rect id="rect3615" style="fill:#fff" rx="6" ry="6" height="84" width="84" y="6" x="6"/>
  </clipPath>
  <filter id="filter3794" height="1.384" width="1.384" color-interpolation-filters="sRGB" y="-.192" x="-.192">
   <feGaussianBlur id="feGaussianBlur3796" stdDeviation="5.28"/>
  </filter>
  <linearGradient id="linearGradient2965" y2="138.66" gradientUnits="userSpaceOnUse" x2="48" y1="20.221" x1="48">
   <stop id="stop3739-2" style="stop-color:#fff" offset="0"/>
   <stop id="stop3741-1-8" style="stop-color:#fff;stop-opacity:0" offset="1"/>
  </linearGradient>
 </defs>
 <metadata id="metadata2413">
  <rdf:RDF>
   <cc:Work rdf:about="">
    <dc:format>image/svg+xml</dc:format>
    <dc:type rdf:resource="http://purl.org/dc/dcmitype/StillImage"/>
   </cc:Work>
  </rdf:RDF>
 </metadata>
 <g id="layer2" style="display:none">
  <rect id="rect3745" style="opacity:.9;filter:url(#filter3174);fill:url(#ButtonShadow)" rx="6" ry="6" height="85" width="86" y="7" x="5"/>
 </g>
 <g id="layer6">
  <path id="path3786" style="opacity:0.08;fill:url(#linearGradient3780)" d="m12-95.031c-5.5111 0-10.031 4.5202-10.031 10.031v71c0 5.5111 4.5202 10.031 10.031 10.031h72c5.5111 0 10.031-4.5202 10.031-10.031v-71c0-5.5111-4.5202-10.031-10.031-10.031h-72z" transform="scale(1,-1)"/>
  <path id="path3778" style="opacity:.1;fill:url(#linearGradient3780)" d="m12-94.031c-4.9716 0-9.0312 4.0596-9.0312 9.0312v71c0 4.9716 4.0596 9.0312 9.0312 9.0312h72c4.9716 0 9.0312-4.0596 9.0312-9.0312v-71c0-4.9716-4.0596-9.0312-9.0312-9.0312h-72z" transform="scale(1,-1)"/>
  <path id="path3770" style="opacity:.2;fill:url(#linearGradient3780)" d="m12-93c-4.4091 0-8 3.5909-8 8v71c0 4.4091 3.5909 8 8 8h72c4.4091 0 8-3.5909 8-8v-71c0-4.4091-3.5909-8-8-8h-72z" transform="scale(1,-1)"/>
  <rect id="rect3723" style="opacity:.3;fill:url(#linearGradient3780)" transform="scale(1,-1)" rx="7" ry="7" height="85" width="86" y="-92" x="5"/>
  <rect id="rect3716" style="opacity:.45;fill:url(#linearGradient3721)" transform="scale(1,-1)" rx="6" ry="6" height="84" width="84" y="-91" x="6"/>
 </g>
 <g id="layer1">
  <rect id="rect2419" style="fill:url(#linearGradient3706)" rx="6" ry="6" height="84" width="84" y="6" x="6"/>
  <path id="rect3728" style="opacity:.5;fill:url(#linearGradient3923)" d="m12 6c-3.324 0-6 2.676-6 6v2 68 2c0 0.33472 0.04135 0.6507 0.09375 0.96875 0.0487 0.2956 0.09704 0.59692 0.1875 0.875 0.0099 0.03038 0.02089 0.0636 0.03125 0.09375 0.09886 0.28777 0.23488 0.54745 0.375 0.8125 0.14459 0.27351 0.31562 0.53562 0.5 0.78125 0.18438 0.24564 0.37378 0.47347 0.59375 0.6875 0.43995 0.42806 0.94291 0.81453 1.5 1.0938 0.27854 0.13961 0.57347 0.24695 0.875 0.34375-0.2562-0.10022-0.48671-0.23627-0.71875-0.375-0.0074-0.0044-0.02387 0.0045-0.03125 0-0.03193-0.0193-0.06229-0.04251-0.09375-0.0625-0.1204-0.0767-0.23102-0.16351-0.34375-0.25-0.10617-0.0808-0.21328-0.16111-0.3125-0.25-0.1778-0.162-0.3473-0.346-0.4999-0.531-0.1075-0.131-0.2183-0.266-0.3124-0.407-0.0251-0.038-0.0385-0.086-0.0626-0.125-0.0647-0.103-0.1302-0.204-0.1874-0.312-0.1011-0.195-0.2057-0.416-0.2813-0.625-0.008-0.022-0.0236-0.041-0.0313-0.063-0.0318-0.092-0.0358-0.187-0.0624-0.281-0.0304-0.107-0.0704-0.203-0.0938-0.313-0.0729-0.341-0.125-0.698-0.125-1.062v-2-68-2c0-2.782 2.2182-5 5-5h2 68 2c2.7818 0 5 2.2182 5 5v2 68 2c0 0.3643-0.05212 0.72099-0.125 1.0625-0.04415 0.20689-0.08838 0.39766-0.15625 0.59375-0.0077 0.02195-0.0233 0.04069-0.03125 0.0625-0.06274 0.17374-0.13838 0.36745-0.21875 0.53125-0.04158 0.0828-0.07904 0.16995-0.125 0.25-0.0546 0.09721-0.12677 0.18835-0.1875 0.28125-0.09411 0.14096-0.20492 0.276-0.3125 0.40625-0.14317 0.17445-0.30314 0.347-0.46875 0.5-0.01117 0.0102-0.01998 0.02115-0.03125 0.03125-0.13839 0.12556-0.28509 0.23444-0.4375 0.34375-0.10257 0.07315-0.20432 0.15336-0.3125 0.21875-0.0074 0.0045-0.02384-0.0044-0.03125 0-0.23204 0.13873-0.46255 0.27478-0.71875 0.375 0.30153-0.0968 0.59646-0.20414 0.875-0.34375 0.55709-0.27922 1.0601-0.66569 1.5-1.0938 0.21997-0.21403 0.40937-0.44186 0.59375-0.6875s0.35541-0.50774 0.5-0.78125c0.14012-0.26505 0.27614-0.52473 0.375-0.8125 0.01041-0.03078 0.02133-0.06274 0.03125-0.09375 0.09046-0.27808 0.1388-0.5794 0.1875-0.875 0.053-0.318 0.094-0.634 0.094-0.969v-2-68-2c0-3.324-2.676-6-6-6h-72z"/>
  <path id="path3615" style="opacity:.4;fill:url(#radialGradient2886)" d="m12 90c-3.324 0-6-2.676-6-6v-2-68-2c0-0.33472 0.04135-0.6507 0.09375-0.96875 0.0487-0.2956 0.09704-0.59692 0.1875-0.875 0.0099-0.03 0.0209-0.063 0.0313-0.094 0.0989-0.2873 0.2349-0.547 0.375-0.812 0.1446-0.2735 0.3156-0.5356 0.5-0.7812 0.1844-0.2457 0.3738-0.4735 0.5937-0.6876 0.44-0.428 0.943-0.8145 1.5-1.0937 0.2786-0.1396 0.5735-0.2469 0.8748-0.3437-0.256 0.1002-0.4865 0.2362-0.7185 0.375-0.00741 0.0044-0.023866-0.0045-0.03125 0-0.031933 0.0193-0.062293 0.04251-0.09375 0.0625-0.1204 0.0767-0.23102 0.16351-0.34375 0.25-0.10617 0.0808-0.21328 0.16111-0.3125 0.25-0.1779 0.1614-0.3474 0.3453-0.5 0.5312-0.1075 0.1303-0.2183 0.2653-0.3124 0.4063-0.0251 0.0383-0.0385 0.0858-0.0626 0.125-0.0647 0.103-0.1302 0.2045-0.1874 0.3124-0.1011 0.1948-0.2057 0.4158-0.2813 0.625-0.008 0.0219-0.0236 0.0406-0.0313 0.0626-0.0318 0.0919-0.0358 0.1868-0.0624 0.2812-0.0304 0.1066-0.0704 0.203-0.0938 0.3125-0.0729 0.3415-0.125 0.6985-0.125 1.0625v2 68 2c0 2.7818 2.2182 5 5 5h2 68 2c2.7818 0 5-2.2182 5-5v-2-68-2c0-0.364-0.052-0.721-0.125-1.0625-0.044-0.2069-0.088-0.3977-0.156-0.5937-0.008-0.022-0.024-0.0407-0.031-0.0626-0.063-0.1737-0.139-0.3674-0.219-0.5312-0.042-0.0828-0.079-0.17-0.125-0.25-0.055-0.0972-0.127-0.1884-0.188-0.2812-0.094-0.141-0.205-0.276-0.312-0.4063-0.143-0.1745-0.303-0.347-0.469-0.5-0.011-0.0102-0.02-0.0211-0.031-0.0313-0.139-0.1255-0.285-0.2344-0.438-0.3437-0.102-0.0731-0.204-0.1534-0.312-0.2187-0.0074-0.0045-0.02384 0.0044-0.03125 0-0.23204-0.13873-0.46255-0.27478-0.71875-0.375 0.30153 0.0968 0.59646 0.20414 0.875 0.34375 0.55709 0.27922 1.0601 0.66569 1.5 1.0938 0.21997 0.21403 0.40937 0.44186 0.59375 0.6875s0.35541 0.50774 0.5 0.78125c0.14012 0.26505 0.27614 0.52473 0.375 0.8125 0.01041 0.03078 0.02133 0.06274 0.03125 0.09375 0.09046 0.27808 0.1388 0.5794 0.1875 0.875 0.053 0.318 0.094 0.634 0.094 0.969v2 68 2c0 3.324-2.676 6-6 6h-72z"/>
  <path id="path3887" style="opacity:.6;filter:url(#filter3898);stroke:#fff;stroke-width:1.5715;fill:#fff" clip-path="url(#clipPath3894)" d="m90.714 72.786a19.643 19.643 0 1 1 -39.286 0 19.643 19.643 0 1 1 39.286 0z" transform="matrix(0 -1.2727 1.2726 0 -44.631 138.45)"/>
  <rect id="rect3797" style="stroke-width:.5;color:#000000;stroke-dashoffset:8.6;stroke:#000;stroke-linecap:round;fill:#fff" height="16" width="16" y="8" x="112"/>
  <text id="text3799" y="11.969256" x="131.39261" xml:space="preserve" style="font-size:4px;line-height:125%;font-family:Liberation Sans;fill:#000000"><tspan id="tspan3801" y="11.969256" x="131.39261">Width: 2px</tspan><tspan id="tspan3803" y="16.969257" x="131.39261">Blur: 12</tspan><tspan id="tspan3807" y="21.969257" x="131.39261">Opacity: 60</tspan></text>
  <rect id="rect3881" style="fill:#f0f" rx="6" ry="6" height="84" width="84" y="6" x="-94"/>
 </g>
 <g id="layer4">
  <rect id="rect3171" style="opacity:.5;filter:url(#filter3794);stroke:#fff;stroke-linecap:round;stroke-width:.5;fill:url(#linearGradient2965)" clip-path="url(#clipPath3613)" rx="12" ry="12" height="66" width="66" y="15" x="15"/>
 </g>
 <g id="layer3">
  <path id="path3836" style="fill:url(#linearGradient3188-6)" d="m90.714 72.786a19.643 19.643 0 1 1 -39.286 0 19.643 19.643 0 1 1 39.286 0z" transform="matrix(0 -1.2727 1.2726 0 -44.631 138.45)"/>
  <path id="path3802" style="opacity:.05" d="m48 23c-13.806 0-24.998 11.193-24.998 25s11.192 25 24.998 25 24.998-11.193 24.998-25-11.192-25-24.998-25zm0 3.125c12.08 0 21.874 9.7938 21.874 21.875s-9.7932 21.875-21.874 21.875c-12.08 0-21.874-9.7938-21.874-21.875s9.7932-21.875 21.874-21.875z"/>
  <path id="path3798" style="opacity:.1" d="m48 23c-13.806 0-24.998 11.193-24.998 25s11.192 25 24.998 25 24.998-11.193 24.998-25-11.192-25-24.998-25zm0 2.0833c12.656 0 22.915 10.26 22.915 22.917s-10.26 22.917-22.915 22.917c-12.656 0-22.915-10.26-22.915-22.917s10.26-22.917 22.915-22.917z"/>
  <path id="path3794" style="opacity:0.08" d="m48 23c-13.806 0-24.998 11.193-24.998 25s11.192 25 24.998 25 24.998-11.193 24.998-25-11.192-25-24.998-25zm0 1.0417c13.231 0 23.957 10.727 23.957 23.958 0 13.232-10.726 23.958-23.957 23.958s-23.957-10.727-23.957-23.958c0-13.232 10.726-23.958 23.957-23.958z"/>
  <g id="g3866">
   <path id="path3763" style="opacity:.1;fill:url(#linearGradient3849)" d="m39.906 29.938a1.0481 1.0481 0 0 0 -0.968 1.062v16.938h-5.5938a1.0481 1.0481 0 0 0 -0.8125 1.7188l14.656 18a1.0481 1.0481 0 0 0 1.625 0l14.656-18a1.0481 1.0481 0 0 0 -0.8125 -1.7188h-5.5938v-16.938a1.0481 1.0481 0 0 0 -1.062 -1.062h-16a1.0481 1.0481 0 0 0 -0.09375 0zm0.094 0.062h16v18h6.656l-14.656 18-14.656-18h6.656v-18z"/>
   <path id="path3772" style="opacity:.05;fill:url(#linearGradient3849)" d="m55.906 29c-0.1416-0.0024-0.29661 0.0059-0.4375 0.03125h-15.812c-1.2199 0.19936-1.7965 1.4665-1.625 2.5938v15.406c-1.737 0.041-3.494-0.081-5.219 0.063-1.472 0.34-1.927 2.422-0.812 3.406 4.8765 5.9653 9.7252 11.972 14.625 17.906 0.92098 0.93346 2.5077 0.60473 3.1562-0.46875l14.407-17.687c1.095-1.2108 0.01899-3.4209-1.625-3.2188h-4.5938v-16.312c-0.121-1.032-1.072-1.702-2.063-1.719zm-15.906 1h16v18h6.656l-14.656 18-14.656-18h6.656v-18z"/>
   <path id="path3741" style="opacity:.3;fill:url(#linearGradient3861)" d="m33.344 49 14.656 18 14.656-18h-0.812l-13.844 17-13.844-17h-0.8125z"/>
   <path id="path3867" style="fill:url(#linearGradient3858)" d="m40 30v18h-6.6667l14.667 18 14.667-18h-6.6667v-18h-16z"/>
  </g>
  <path id="path3811" style="opacity:.2" d="m48 23c-13.806 0-24.998 11.193-24.998 25 0 0.17248-0.0034 0.34918 0 0.52083 0.27482-13.569 11.365-24.479 24.998-24.479 13.634 0 24.724 10.91 24.998 24.479 0.0035-0.17165 0-0.34835 0-0.52083 0-13.807-11.192-25-24.998-25z"/>
  <path id="path3872" style="fill:#fff" d="m23 48.5c-0.0033 0.16749 0 0.33172 0 0.5 0 13.807 11.194 25 25 25s25-11.193 25-25c0-0.16828 0.0033-0.33251 0-0.5-0.268 13.575-11.362 24.5-25 24.5s-24.732-10.925-25-24.5z"/>
 </g>
</svg>
