<?xml version="1.0" encoding="UTF-8" standalone="no"?>
<!-- Created with Inkscape (http://www.inkscape.org/) -->
<svg id="svg2408" xmlns:rdf="http://www.w3.org/1999/02/22-rdf-syntax-ns#" xmlns="http://www.w3.org/2000/svg" height="96" width="96" version="1.0" xmlns:cc="http://creativecommons.org/ns#" xmlns:xlink="http://www.w3.org/1999/xlink" xmlns:dc="http://purl.org/dc/elements/1.1/">
 <defs id="defs2410">
  <linearGradient id="ButtonShadow" y2="7.0165" gradientUnits="userSpaceOnUse" x2="45.448" gradientTransform="scale(1.0059 .99417)" y1="92.54" x1="45.448">
   <stop id="stop3750" offset="0"/>
   <stop id="stop3752" style="stop-opacity:.58824" offset="1"/>
  </linearGradient>
  <linearGradient id="linearGradient3706" y2="5.9877" gradientUnits="userSpaceOnUse" x2="48" y1="90" x1="48">
   <stop id="stop3702" style="stop-color:#ebebeb" offset="0"/>
   <stop id="stop3704" style="stop-color:#fafafa" offset="1"/>
  </linearGradient>
  <filter id="filter3174" color-interpolation-filters="sRGB">
   <feGaussianBlur id="feGaussianBlur3176" stdDeviation="1.71"/>
  </filter>
  <linearGradient id="ButtonShadow-0" y2="7.0165" gradientUnits="userSpaceOnUse" x2="45.448" gradientTransform="matrix(1.0059 0 0 .99417 100 0)" y1="92.54" x1="45.448">
   <stop id="stop3750-8" offset="0"/>
   <stop id="stop3752-5" style="stop-opacity:.58824" offset="1"/>
  </linearGradient>
  <linearGradient id="linearGradient3780" y2="90.239" xlink:href="#ButtonShadow-0" gradientUnits="userSpaceOnUse" x2="32.251" gradientTransform="matrix(1.0238 0 0 1.0119 -1.1429 -98.071)" y1="6.1317" x1="32.251"/>
  <linearGradient id="linearGradient3721" y2="90.239" xlink:href="#ButtonShadow-0" gradientUnits="userSpaceOnUse" x2="32.251" gradientTransform="translate(0,-97)" y1="6.1317" x1="32.251"/>
  <radialGradient id="radialGradient2886" gradientUnits="userSpaceOnUse" cy="90.172" cx="48" gradientTransform="matrix(1.1573 0 0 .99591 -7.551 .19713)" r="42">
   <stop id="stop3739-6" style="stop-color:#fff" offset="0"/>
   <stop id="stop3741-0" style="stop-color:#fff;stop-opacity:0" offset="1"/>
  </radialGradient>
  <linearGradient id="linearGradient3923" y2="63.893" gradientUnits="userSpaceOnUse" x2="36.357" y1="6" x1="36.357">
   <stop id="stop3739-9" style="stop-color:#fff" offset="0"/>
   <stop id="stop3741-3" style="stop-color:#fff;stop-opacity:0" offset="1"/>
  </linearGradient>
  <linearGradient id="linearGradient2937" y2="26.414" gradientUnits="userSpaceOnUse" x2="71.672" gradientTransform="matrix(1.3333 0 0 1.3333 -50.402 -11.13)" y1="62.025" x1="71.672">
   <stop id="stop3699" style="stop-color:#bababa" offset="0"/>
   <stop id="stop3701" style="stop-color:#d2d2d2" offset="1"/>
  </linearGradient>
  <clipPath id="clipPath3730">
   <path id="path3732" style="fill:#f0f" d="m-88 6c-3.324 0-6 2.676-6 6v72c0 3.324 2.676 6 6 6h72c3.324 0 6-2.676 6-6v-72c0-3.324-2.676-6-6-6h-72zm38.656 18c1.6457 0.000047 3.0294 0.55915 4.1875 1.6562 1.1784 1.0972 1.75 2.4247 1.75 3.9688-0.00002 1.5442-0.57161 2.8716-1.75 3.9688-1.1581 1.0769-2.5418 1.625-4.1875 1.625-1.6457 0.000035-3.0716-0.54814-4.25-1.625-1.1784-1.0971-1.75-2.4246-1.75-3.9688-0.000011-1.5441 0.57158-2.8716 1.75-3.9688 1.1784-1.0971 2.6043-1.6562 4.25-1.6562zm-5.5938 16.25c2.4178 0.000031 4.2934 0.60287 5.5938 1.7812 1.3206 1.1581 1.9375 2.6933 1.9375 4.5625-0.000026 0.38606-0.02343 1.056-0.125 2.0312-0.08128 0.97526-0.25621 1.8436-0.5 2.6562l-2.5 8.875c-0.20319 0.71112-0.36872 1.5232-0.53125 2.4375-0.16256 0.91429-0.25002 1.5952-0.25 2.0625-0.000015 1.1784 0.25298 2.0108 0.78125 2.4375 0.52824 0.42667 1.4497 0.625 2.75 0.625 0.60951 0 1.3217-0.1093 2.0938-0.3125 0.77204-0.2235 1.3108-0.39995 1.6562-0.5625l-0.65625 2.75c-2.0114 0.79238-3.645 1.3749-4.8438 1.7812-1.1987 0.42667-2.5715 0.625-4.1562 0.625-2.4381 0-4.3575-0.57159-5.7188-1.75-1.341-1.1987-2-2.7027-2-4.5312-0.000005-0.7111 0.0859-1.4561 0.1875-2.1875 0.10159-0.75173 0.214-1.5966 0.4375-2.5312l2.5-8.875c0.22348-0.85331 0.42027-1.6545 0.5625-2.4062 0.16253-0.77204 0.24999-1.4639 0.25-2.0938-0.000008-1.1378-0.25146-1.928-0.71875-2.375-0.46731-0.44696-1.3356-0.71872-2.6562-0.71875-0.65016 0.000026-1.3092 0.14062-2 0.34375-0.67048 0.2032-1.2624 0.41092-1.75 0.59375l0.65625-2.75c1.6457-0.67045 3.2465-1.2514 4.75-1.7188 1.5035-0.48759 2.909-0.74997 4.25-0.75z"/>
  </clipPath>
  <filter id="filter3738" height="1.2076" width="1.4699" color-interpolation-filters="sRGB" y="-.10381" x="-.23495">
   <feGaussianBlur id="feGaussianBlur3740" stdDeviation="2.07625"/>
  </filter>
  <clipPath id="clipPath3613">
   <rect id="rect3615" style="fill:#fff" rx="6" ry="6" height="84" width="84" y="6" x="6"/>
  </clipPath>
  <filter id="filter3794" height="1.384" width="1.384" color-interpolation-filters="sRGB" y="-.192" x="-.192">
   <feGaussianBlur id="feGaussianBlur3796" stdDeviation="5.28"/>
  </filter>
  <linearGradient id="linearGradient4504" y2="138.66" gradientUnits="userSpaceOnUse" x2="48" y1="20.221" x1="48">
   <stop id="stop3739-2" style="stop-color:#fff" offset="0"/>
   <stop id="stop3741-1" style="stop-color:#fff;stop-opacity:0" offset="1"/>
  </linearGradient>
 </defs>
 <metadata id="metadata2413">
  <rdf:RDF>
   <cc:Work rdf:about="">
    <dc:format>image/svg+xml</dc:format>
    <dc:type rdf:resource="http://purl.org/dc/dcmitype/StillImage"/>
    <dc:title/>
   </cc:Work>
  </rdf:RDF>
 </metadata>
 <g id="layer2" style="display:none">
  <rect id="rect3745" style="opacity:.9;filter:url(#filter3174);fill:url(#ButtonShadow)" rx="6" ry="6" height="85" width="86" y="7" x="5"/>
 </g>
 <g id="layer6">
  <path id="path3786" style="opacity:0.08;fill:url(#linearGradient3780)" d="m12-95.031c-5.5111 0-10.031 4.5202-10.031 10.031v71c0 5.5111 4.5202 10.031 10.031 10.031h72c5.5111 0 10.031-4.5202 10.031-10.031v-71c0-5.5111-4.5202-10.031-10.031-10.031h-72z" transform="scale(1,-1)"/>
  <path id="path3778" style="opacity:.1;fill:url(#linearGradient3780)" d="m12-94.031c-4.9716 0-9.0312 4.0596-9.0312 9.0312v71c0 4.9716 4.0596 9.0312 9.0312 9.0312h72c4.9716 0 9.0312-4.0596 9.0312-9.0312v-71c0-4.9716-4.0596-9.0312-9.0312-9.0312h-72z" transform="scale(1,-1)"/>
  <path id="path3770" style="opacity:.2;fill:url(#linearGradient3780)" d="m12-93c-4.4091 0-8 3.5909-8 8v71c0 4.4091 3.5909 8 8 8h72c4.4091 0 8-3.5909 8-8v-71c0-4.4091-3.5909-8-8-8h-72z" transform="scale(1,-1)"/>
  <rect id="rect3723" style="opacity:.3;fill:url(#linearGradient3780)" transform="scale(1,-1)" rx="7" ry="7" height="85" width="86" y="-92" x="5"/>
  <rect id="rect3716" style="opacity:.45;fill:url(#linearGradient3721)" transform="scale(1,-1)" rx="6" ry="6" height="84" width="84" y="-91" x="6"/>
 </g>
 <g id="layer1">
  <rect id="rect2419" style="fill:url(#linearGradient3706)" rx="6" ry="6" height="84" width="84" y="6" x="6"/>
  <path id="rect3728" style="opacity:.5;fill:url(#linearGradient3923)" d="m12 6c-3.324 0-6 2.676-6 6v2 68 2c0 0.33472 0.04135 0.6507 0.09375 0.96875 0.0487 0.2956 0.09704 0.59692 0.1875 0.875 0.0099 0.03038 0.02089 0.0636 0.03125 0.09375 0.09886 0.28777 0.23488 0.54745 0.375 0.8125 0.14459 0.27351 0.31562 0.53562 0.5 0.78125 0.18438 0.24564 0.37378 0.47347 0.59375 0.6875 0.43995 0.42806 0.94291 0.81453 1.5 1.0938 0.27854 0.13961 0.57347 0.24695 0.875 0.34375-0.2562-0.10022-0.48671-0.23627-0.71875-0.375-0.0074-0.0044-0.02387 0.0045-0.03125 0-0.03193-0.0193-0.06229-0.04251-0.09375-0.0625-0.1204-0.0767-0.23102-0.16351-0.34375-0.25-0.10617-0.0808-0.21328-0.16111-0.3125-0.25-0.1778-0.162-0.3473-0.346-0.4999-0.531-0.1075-0.131-0.2183-0.266-0.3124-0.407-0.0251-0.038-0.0385-0.086-0.0626-0.125-0.0647-0.103-0.1302-0.204-0.1874-0.312-0.1011-0.195-0.2057-0.416-0.2813-0.625-0.008-0.022-0.0236-0.041-0.0313-0.063-0.0318-0.092-0.0358-0.187-0.0624-0.281-0.0304-0.107-0.0704-0.203-0.0938-0.313-0.0729-0.341-0.125-0.698-0.125-1.062v-2-68-2c0-2.782 2.2182-5 5-5h2 68 2c2.7818 0 5 2.2182 5 5v2 68 2c0 0.3643-0.05212 0.72099-0.125 1.0625-0.04415 0.20689-0.08838 0.39766-0.15625 0.59375-0.0077 0.02195-0.0233 0.04069-0.03125 0.0625-0.06274 0.17374-0.13838 0.36745-0.21875 0.53125-0.04158 0.0828-0.07904 0.16995-0.125 0.25-0.0546 0.09721-0.12677 0.18835-0.1875 0.28125-0.09411 0.14096-0.20492 0.276-0.3125 0.40625-0.14317 0.17445-0.30314 0.347-0.46875 0.5-0.01117 0.0102-0.01998 0.02115-0.03125 0.03125-0.13839 0.12556-0.28509 0.23444-0.4375 0.34375-0.10257 0.07315-0.20432 0.15336-0.3125 0.21875-0.0074 0.0045-0.02384-0.0044-0.03125 0-0.23204 0.13873-0.46255 0.27478-0.71875 0.375 0.30153-0.0968 0.59646-0.20414 0.875-0.34375 0.55709-0.27922 1.0601-0.66569 1.5-1.0938 0.21997-0.21403 0.40937-0.44186 0.59375-0.6875s0.35541-0.50774 0.5-0.78125c0.14012-0.26505 0.27614-0.52473 0.375-0.8125 0.01041-0.03078 0.02133-0.06274 0.03125-0.09375 0.09046-0.27808 0.1388-0.5794 0.1875-0.875 0.053-0.318 0.094-0.634 0.094-0.969v-2-68-2c0-3.324-2.676-6-6-6h-72z"/>
  <path id="path3615" style="opacity:.4;fill:url(#radialGradient2886)" d="m12 90c-3.324 0-6-2.676-6-6v-2-68-2c0-0.33472 0.04135-0.6507 0.09375-0.96875 0.0487-0.2956 0.09704-0.59692 0.1875-0.875 0.0099-0.03 0.0209-0.063 0.0313-0.094 0.0989-0.2873 0.2349-0.547 0.375-0.812 0.1446-0.2735 0.3156-0.5356 0.5-0.7812 0.1844-0.2457 0.3738-0.4735 0.5937-0.6876 0.44-0.428 0.943-0.8145 1.5-1.0937 0.2786-0.1396 0.5735-0.2469 0.8748-0.3437-0.256 0.1002-0.4865 0.2362-0.7185 0.375-0.00741 0.0044-0.023866-0.0045-0.03125 0-0.031933 0.0193-0.062293 0.04251-0.09375 0.0625-0.1204 0.0767-0.23102 0.16351-0.34375 0.25-0.10617 0.0808-0.21328 0.16111-0.3125 0.25-0.1779 0.1614-0.3474 0.3453-0.5 0.5312-0.1075 0.1303-0.2183 0.2653-0.3124 0.4063-0.0251 0.0383-0.0385 0.0858-0.0626 0.125-0.0647 0.103-0.1302 0.2045-0.1874 0.3124-0.1011 0.1948-0.2057 0.4158-0.2813 0.625-0.008 0.0219-0.0236 0.0406-0.0313 0.0626-0.0318 0.0919-0.0358 0.1868-0.0624 0.2812-0.0304 0.1066-0.0704 0.203-0.0938 0.3125-0.0729 0.3415-0.125 0.6985-0.125 1.0625v2 68 2c0 2.7818 2.2182 5 5 5h2 68 2c2.7818 0 5-2.2182 5-5v-2-68-2c0-0.364-0.052-0.721-0.125-1.0625-0.044-0.2069-0.088-0.3977-0.156-0.5937-0.008-0.022-0.024-0.0407-0.031-0.0626-0.063-0.1737-0.139-0.3674-0.219-0.5312-0.042-0.0828-0.079-0.17-0.125-0.25-0.055-0.0972-0.127-0.1884-0.188-0.2812-0.094-0.141-0.205-0.276-0.312-0.4063-0.143-0.1745-0.303-0.347-0.469-0.5-0.011-0.0102-0.02-0.0211-0.031-0.0313-0.139-0.1255-0.285-0.2344-0.438-0.3437-0.102-0.0731-0.204-0.1534-0.312-0.2187-0.0074-0.0045-0.02384 0.0044-0.03125 0-0.23204-0.13873-0.46255-0.27478-0.71875-0.375 0.30153 0.0968 0.59646 0.20414 0.875 0.34375 0.55709 0.27922 1.0601 0.66569 1.5 1.0938 0.21997 0.21403 0.40937 0.44186 0.59375 0.6875s0.35541 0.50774 0.5 0.78125c0.14012 0.26505 0.27614 0.52473 0.375 0.8125 0.01041 0.03078 0.02133 0.06274 0.03125 0.09375 0.09046 0.27808 0.1388 0.5794 0.1875 0.875 0.053 0.318 0.094 0.634 0.094 0.969v2 68 2c0 3.324-2.676 6-6 6h-72z"/>
  <rect id="rect3654" style="fill:#f0f" rx="6" ry="6" height="84" width="84" y="6" x="-94"/>
  <rect id="rect3797" style="stroke-width:.5;color:#000000;stroke-dashoffset:8.6;stroke:#000;stroke-linecap:round;fill:#fff" height="16" width="16" y="8" x="112"/>
  <text id="text3799" y="11.969256" x="131.39261" xml:space="preserve" style="font-size:4px;line-height:125%;font-family:Liberation Sans;fill:#000000"><tspan id="tspan3801" y="11.969256" x="131.39261">Width: 2px</tspan><tspan id="tspan3803" y="16.969257" x="131.39261">Blur: 12</tspan><tspan id="tspan3807" y="21.969257" x="131.39261">Opacity: 60</tspan></text>
  <path id="path3659" style="fill:url(#linearGradient2937)" d="m50.646 24c-1.6457 0.000047-3.0716 0.56957-4.25 1.6667-1.1784 1.0972-1.75 2.4142-1.75 3.9583-0.000011 1.5442 0.57158 2.8612 1.75 3.9583 1.1784 1.0769 2.6043 1.625 4.25 1.625 1.6457 0.000035 3.0502-0.54814 4.2083-1.625 1.1784-1.0971 1.75-2.4142 1.75-3.9583-0.00002-1.5441-0.57161-2.8611-1.75-3.9583-1.158-1.096-2.562-1.666-4.208-1.666zm-5.584 16.25c-1.341 0.000031-2.7465 0.26241-4.25 0.75-1.5035 0.46733-3.1043 1.0379-4.75 1.7083l-0.66667 2.75c0.48762-0.18283 1.0795-0.38013 1.75-0.58333 0.69079-0.20314 1.3498-0.33331 2-0.33333 1.3206 0.000026 2.1994 0.26137 2.6667 0.70833 0.46729 0.44701 0.70833 1.2372 0.70833 2.375-0.000007 0.62986-0.08747 1.3113-0.25 2.0833-0.14223 0.75177-0.31818 1.5634-0.54167 2.4167l-2.5 8.875c-0.2235 0.93462-0.35675 1.7899-0.45833 2.5417-0.1016 0.73144-0.16667 1.4556-0.16667 2.1667-0.000004 1.8286 0.65904 3.3429 2 4.5417 1.3613 1.1784 3.2702 1.75 5.7083 1.75 1.5847 0 2.9679-0.19833 4.1667-0.625 1.1987-0.40635 2.8219-0.99929 4.8333-1.7917l0.66667-2.75c-0.34542 0.16255-0.89462 0.35984-1.6667 0.58333-0.77208 0.2032-1.4738 0.29167-2.0833 0.29167-1.3003 0-2.2218-0.19833-2.75-0.625-0.52827-0.42666-0.79168-1.2382-0.79167-2.4167-0.000015-0.4673 0.08744-1.169 0.25-2.0833 0.16252-0.91428 0.33848-1.7055 0.54167-2.4167l2.5-8.875c0.24379-0.81268 0.41872-1.6914 0.5-2.6667 0.10157-0.97522 0.12497-1.6556 0.125-2.0417-0.00002-1.8692-0.63772-3.3835-1.9583-4.5417-1.299-1.178-3.165-1.791-5.583-1.791z"/>
  <path id="path3702" style="opacity:.2" d="m50.656 24c-1.6457 0.000047-3.0716 0.55915-4.25 1.6562-1.1784 1.0972-1.75 2.4247-1.75 3.9688-0.000001 0.15026 0.02039 0.29154 0.03125 0.4375 0.12551-1.3015 0.68763-2.4462 1.7188-3.4062 1.1784-1.0971 2.6043-1.6562 4.25-1.6562 1.6457 0.000047 3.0294 0.55915 4.1875 1.6562 1.0311 0.96004 1.5932 2.1047 1.7188 3.4062 0.01086-0.14596 0.03125-0.28724 0.03125-0.4375-0.00002-1.5441-0.57161-2.8716-1.75-3.9688-1.158-1.097-2.542-1.656-4.188-1.656zm-5.594 16.25c-1.341 0.000031-2.7465 0.26241-4.25 0.75-1.5035 0.46733-3.1043 1.0483-4.75 1.7188l-0.65625 2.75c0.07042-0.0264 0.17531-0.06677 0.25-0.09375l0.40625-1.6562c1.6457-0.67045 3.2465-1.2514 4.75-1.7188 1.5035-0.48759 2.909-0.74997 4.25-0.75 2.4178 0.000031 4.2934 0.60287 5.5938 1.7812 1.2682 1.1122 1.8888 2.5758 1.9375 4.3438 0.01855-0.34026-0.000013-0.58822 0-0.78125-0.00002-1.8692-0.61688-3.4044-1.9375-4.5625-1.3-1.179-3.176-1.782-5.594-1.782zm-2.562 7.938c-0.03465 0.47585-0.10191 0.97625-0.21875 1.5312-0.14223 0.75177-0.33902 1.5529-0.5625 2.4062l-2.5 8.875c-0.2235 0.93462-0.33591 1.7795-0.4375 2.5312-0.1016 0.73144-0.1875 1.4764-0.1875 2.1875 0 0.18513 0.01772 0.35256 0.03125 0.53125 0.02089-0.56282 0.07643-1.1441 0.15625-1.7188 0.10159-0.75173 0.214-1.5966 0.4375-2.5312l2.5-8.875c0.22348-0.85331 0.42027-1.6545 0.5625-2.4062 0.16253-0.77204 0.24999-1.4639 0.25-2.0938-0.000001-0.15918-0.02185-0.29192-0.03125-0.4375zm6.2188 16.938c-0.01574 0.18425-0.03126 0.38952-0.03125 0.53125-0.000015 1.1784 0.25298 2.0108 0.78125 2.4375 0.52824 0.42667 1.4497 0.625 2.75 0.625 0.60951 0 1.3217-0.1093 2.0938-0.3125 0.62528-0.18101 1.0632-0.32665 1.4062-0.46875l0.25-1.0938c-0.34542 0.16255-0.88421 0.339-1.6562 0.5625-0.77208 0.2032-1.4842 0.3125-2.0938 0.3125-1.3003 0-2.2218-0.19833-2.75-0.625-0.45214-0.36517-0.685-1.051-0.75-1.9688z"/>
  <path id="path3712" style="fill:#fff" d="m44.688 30.188c-0.01086 0.14596-0.03125 0.28725-0.03125 0.4375-0.000011 1.5442 0.57158 2.8716 1.75 3.9688 1.1784 1.0769 2.6043 1.625 4.25 1.625 1.6457 0.000035 3.0294-0.54814 4.1875-1.625 1.1784-1.0971 1.75-2.4246 1.75-3.9688-0.000002-0.15025-0.02039-0.29154-0.03125-0.4375-0.12553 1.3016-0.68766 2.4463-1.7188 3.4062-1.1581 1.0769-2.5418 1.625-4.1875 1.625-1.6457 0.000035-3.0716-0.54814-4.25-1.625-1.0311-0.95997-1.5932-2.1047-1.7188-3.4062zm-5.5312 14.344c-0.65016 0.000026-1.3092 0.14062-2 0.34375-0.57365 0.17386-1.0575 0.34015-1.5 0.5l-0.25 1.0938c0.48762-0.18283 1.0795-0.39055 1.75-0.59375 0.69079-0.20314 1.3498-0.34372 2-0.34375 1.3206 0.000026 2.1889 0.27179 2.6562 0.71875 0.40192 0.38447 0.62974 1.0425 0.6875 1.9375 0.01355-0.18609 0.03125-0.38543 0.03125-0.5625-0.000008-1.1378-0.25146-1.928-0.71875-2.375-0.46731-0.44696-1.3356-0.71872-2.6562-0.71875zm13.438 2.9062c-0.01884 0.33034-0.07673 0.72403-0.125 1.1875-0.08128 0.97526-0.25621 1.8436-0.5 2.6562l-2.5 8.875c-0.20319 0.71112-0.36872 1.5232-0.53125 2.4375-0.16256 0.91429-0.25002 1.5952-0.25 2.0625-0.000002 0.16983 0.02031 0.31421 0.03125 0.46875 0.03616-0.42324 0.10549-0.89426 0.21875-1.5312 0.16252-0.91428 0.32806-1.7264 0.53125-2.4375l2.5-8.875c0.24379-0.81268 0.41872-1.681 0.5-2.6562 0.10157-0.97522 0.12497-1.6452 0.125-2.0312-0.000001-0.05299 0.001-0.10383 0-0.15625zm-13.97 18.937c-0.0031 0.11258-0.03125 0.23179-0.03125 0.34375-0.000004 1.8286 0.65904 3.3325 2 4.5312 1.3613 1.1784 3.2806 1.75 5.7188 1.75 1.5847 0 2.9575-0.19833 4.1562-0.625 1.1987-0.40635 2.8323-0.98888 4.8438-1.7812l0.65625-2.75c-0.06566 0.0309-0.16948 0.0604-0.25 0.09375l-0.407 1.656c-2.011 0.792-3.645 1.375-4.843 1.781-1.199 0.427-2.572 0.625-4.157 0.625-2.438 0-4.357-0.572-5.718-1.75-1.174-1.049-1.825-2.344-1.969-3.875z"/>
  <path id="path3721" style="opacity:.6;filter:url(#filter3738);stroke:#fff;stroke-width:2;fill:none" d="m-49.354 24c-1.6457 0.000047-3.0716 0.56957-4.25 1.6667-1.1784 1.0972-1.75 2.4142-1.75 3.9583-0.000011 1.5442 0.57158 2.8612 1.75 3.9583 1.1784 1.0769 2.6043 1.625 4.25 1.625 1.6457 0.000035 3.0502-0.54814 4.2083-1.625 1.1784-1.0971 1.75-2.4142 1.75-3.9583-0.00002-1.5441-0.57161-2.8611-1.75-3.9583-1.158-1.096-2.562-1.666-4.208-1.666zm-5.584 16.25c-1.341 0.000031-2.7465 0.26241-4.25 0.75-1.5035 0.46733-3.1043 1.0379-4.75 1.7083l-0.66667 2.75c0.48762-0.18283 1.0795-0.38013 1.75-0.58333 0.69079-0.20314 1.3498-0.33331 2-0.33333 1.3206 0.000026 2.1994 0.26137 2.6667 0.70833 0.46729 0.44701 0.70833 1.2372 0.70833 2.375-0.000007 0.62986-0.08747 1.3113-0.25 2.0833-0.14223 0.75177-0.31818 1.5634-0.54167 2.4167l-2.5 8.875c-0.2235 0.93462-0.35675 1.7899-0.45833 2.5417-0.1016 0.73144-0.16667 1.4556-0.16667 2.1667-0.000004 1.8286 0.65904 3.3429 2 4.5417 1.3613 1.1784 3.2702 1.75 5.7083 1.75 1.5847 0 2.9679-0.19833 4.1667-0.625 1.1987-0.40635 2.8219-0.99929 4.8333-1.7917l0.66667-2.75c-0.34542 0.16255-0.89462 0.35984-1.6667 0.58333-0.77208 0.2032-1.4738 0.29167-2.0833 0.29167-1.3003 0-2.2218-0.19833-2.75-0.625-0.52827-0.42666-0.79168-1.2382-0.79167-2.4167-0.000015-0.4673 0.08744-1.169 0.25-2.0833 0.16252-0.91428 0.33848-1.7055 0.54167-2.4167l2.5-8.875c0.24379-0.81268 0.41872-1.6914 0.5-2.6667 0.10157-0.97522 0.12497-1.6556 0.125-2.0417-0.00002-1.8692-0.63772-3.3835-1.9583-4.5417-1.299-1.178-3.165-1.791-5.583-1.791z" clip-path="url(#clipPath3730)" transform="translate(100)"/>
 </g>
 <g id="layer3">
  <rect id="rect3171" style="opacity:.5;filter:url(#filter3794);stroke:#fff;stroke-linecap:round;stroke-width:.5;fill:url(#linearGradient4504)" clip-path="url(#clipPath3613)" rx="12" ry="12" height="66" width="66" y="15" x="15"/>
 </g>
</svg>
