<?xml version="1.0" encoding="UTF-8" standalone="no"?>
<!-- Created with Inkscape (http://www.inkscape.org/) -->
<svg id="svg2408" xmlns:rdf="http://www.w3.org/1999/02/22-rdf-syntax-ns#" xmlns="http://www.w3.org/2000/svg" height="96" width="96" version="1.0" xmlns:cc="http://creativecommons.org/ns#" xmlns:xlink="http://www.w3.org/1999/xlink" xmlns:dc="http://purl.org/dc/elements/1.1/">
 <defs id="defs2410">
  <linearGradient id="ButtonShadow" y2="7.0165" gradientUnits="userSpaceOnUse" x2="45.448" gradientTransform="scale(1.0059 .99417)" y1="92.54" x1="45.448">
   <stop id="stop3750" offset="0"/>
   <stop id="stop3752" style="stop-opacity:.58824" offset="1"/>
  </linearGradient>
  <linearGradient id="linearGradient3706" y2="5.9877" gradientUnits="userSpaceOnUse" x2="48" y1="90" x1="48">
   <stop id="stop3702" style="stop-color:#e6e6e6" offset="0"/>
   <stop id="stop3704" style="stop-color:#f5f5f5" offset="1"/>
  </linearGradient>
  <filter id="filter3174" color-interpolation-filters="sRGB">
   <feGaussianBlur id="feGaussianBlur3176" stdDeviation="1.71"/>
  </filter>
  <linearGradient id="ButtonShadow-0" y2="7.0165" gradientUnits="userSpaceOnUse" x2="45.448" gradientTransform="matrix(1.0059 0 0 .99417 100 0)" y1="92.54" x1="45.448">
   <stop id="stop3750-8" offset="0"/>
   <stop id="stop3752-5" style="stop-opacity:.58824" offset="1"/>
  </linearGradient>
  <linearGradient id="linearGradient3780" y2="90.239" xlink:href="#ButtonShadow-0" gradientUnits="userSpaceOnUse" x2="32.251" gradientTransform="matrix(1.0238 0 0 1.0119 -1.1429 -98.071)" y1="6.1317" x1="32.251"/>
  <linearGradient id="linearGradient3721" y2="90.239" xlink:href="#ButtonShadow-0" gradientUnits="userSpaceOnUse" x2="32.251" gradientTransform="translate(0,-97)" y1="6.1317" x1="32.251"/>
  <radialGradient id="radialGradient2886" gradientUnits="userSpaceOnUse" cy="90.172" cx="48" gradientTransform="matrix(1.1573 0 0 .99591 -7.551 .19713)" r="42">
   <stop id="stop3739-6" style="stop-color:#fff" offset="0"/>
   <stop id="stop3741-0" style="stop-color:#fff;stop-opacity:0" offset="1"/>
  </radialGradient>
  <linearGradient id="linearGradient3923" y2="63.893" gradientUnits="userSpaceOnUse" x2="36.357" y1="6" x1="36.357">
   <stop id="stop3739-9" style="stop-color:#fff" offset="0"/>
   <stop id="stop3741-3" style="stop-color:#fff;stop-opacity:0" offset="1"/>
  </linearGradient>
  <clipPath id="clipPath3613">
   <rect id="rect3615" style="fill:#fff" rx="6" ry="6" height="84" width="84" y="6" x="6"/>
  </clipPath>
  <filter id="filter3794" height="1.384" width="1.384" color-interpolation-filters="sRGB" y="-.192" x="-.192">
   <feGaussianBlur id="feGaussianBlur3796" stdDeviation="5.28"/>
  </filter>
  <linearGradient id="linearGradient4052" y2="138.66" gradientUnits="userSpaceOnUse" x2="48" y1="20.221" x1="48">
   <stop id="stop3739-2" style="stop-color:#fff" offset="0"/>
   <stop id="stop3741-1" style="stop-color:#fff;stop-opacity:0" offset="1"/>
  </linearGradient>
  <linearGradient id="linearGradient3871" y2="24" gradientUnits="userSpaceOnUse" x2="48" y1="72" x1="48">
   <stop id="stop3699" style="stop-color:#bababa" offset="0"/>
   <stop id="stop3701" style="stop-color:#d2d2d2" offset="1"/>
  </linearGradient>
  <clipPath id="clipPath3900">
   <path id="path3902" style="fill:#f0f" d="m12 6c-3.324 0-6 2.676-6 6v72c0 3.324 2.676 6 6 6h72c3.324 0 6-2.676 6-6v-72c0-3.324-2.676-6-6-6h-72zm36 18c7.1156 0 12.812 5.3588 12.812 12-0.02737 0.80462-0.06285 1.7872-0.125 2.7188 1.0542 0.66289 1.1062 2.8756 0.125 5.1875-0.34904 0.82239-0.74494 1.4886-1.2188 2.0625-0.14887 0.69438-0.21547 1.2248-0.40625 2.0312-0.53084 1.5925-2.6375 4.7786-4.2188 7.2188-0.10157 1.6192-0.07483 3.2623 0.125 4.9062 4.9388 4.2946 17.855 6.5744 17.875 10.25l0.25 1.625h-50.438l0.25-1.625c-0.01917-4.2946 12.875-6.1016 17.875-10.25 0.34667-2.0212 0.17016-3.8171 0-5.5938-1.734-2.312-3.616-5.1-4.093-6.53-0.17079-0.78174-0.14306-1.0973-0.28125-1.7812-0.56875-0.61214-1.0904-1.3475-1.5-2.3125-1.0329-2.4336-0.93555-4.7961 0.28125-5.3125-0.067-0.862-0.108-1.887-0.124-2.594 0-6.641 5.696-12 12.812-12z"/>
  </clipPath>
  <filter id="filter3904" height="1.2954" width="1.281" color-interpolation-filters="sRGB" y="-.14768" x="-.14050">
   <feGaussianBlur id="feGaussianBlur3906" stdDeviation="2.9536363"/>
  </filter>
 </defs>
 <metadata id="metadata2413">
  <rdf:RDF>
   <cc:Work rdf:about="">
    <dc:format>image/svg+xml</dc:format>
    <dc:type rdf:resource="http://purl.org/dc/dcmitype/StillImage"/>
    <dc:title/>
   </cc:Work>
  </rdf:RDF>
 </metadata>
 <g id="layer2" style="display:none">
  <rect id="rect3745" style="opacity:.9;filter:url(#filter3174);fill:url(#ButtonShadow)" rx="6" ry="6" height="85" width="86" y="7" x="5"/>
 </g>
 <g id="layer6">
  <path id="path3786" style="opacity:0.08;fill:url(#linearGradient3780)" d="m12-95.031c-5.5111 0-10.031 4.5202-10.031 10.031v71c0 5.5111 4.5202 10.031 10.031 10.031h72c5.5111 0 10.031-4.5202 10.031-10.031v-71c0-5.5111-4.5202-10.031-10.031-10.031h-72z" transform="scale(1,-1)"/>
  <path id="path3778" style="opacity:.1;fill:url(#linearGradient3780)" d="m12-94.031c-4.9716 0-9.0312 4.0596-9.0312 9.0312v71c0 4.9716 4.0596 9.0312 9.0312 9.0312h72c4.9716 0 9.0312-4.0596 9.0312-9.0312v-71c0-4.9716-4.0596-9.0312-9.0312-9.0312h-72z" transform="scale(1,-1)"/>
  <path id="path3770" style="opacity:.2;fill:url(#linearGradient3780)" d="m12-93c-4.4091 0-8 3.5909-8 8v71c0 4.4091 3.5909 8 8 8h72c4.4091 0 8-3.5909 8-8v-71c0-4.4091-3.5909-8-8-8h-72z" transform="scale(1,-1)"/>
  <rect id="rect3723" style="opacity:.3;fill:url(#linearGradient3780)" transform="scale(1,-1)" rx="7" ry="7" height="85" width="86" y="-92" x="5"/>
  <rect id="rect3716" style="opacity:.45;fill:url(#linearGradient3721)" transform="scale(1,-1)" rx="6" ry="6" height="84" width="84" y="-91" x="6"/>
 </g>
 <g id="layer1">
  <rect id="rect2419" style="fill:url(#linearGradient3706)" rx="6" ry="6" height="84" width="84" y="6" x="6"/>
  <path id="rect3728" style="opacity:.5;fill:url(#linearGradient3923)" d="m12 6c-3.324 0-6 2.676-6 6v2 68 2c0 0.33472 0.04135 0.6507 0.09375 0.96875 0.0487 0.2956 0.09704 0.59692 0.1875 0.875 0.0099 0.03038 0.02089 0.0636 0.03125 0.09375 0.09886 0.28777 0.23488 0.54745 0.375 0.8125 0.14459 0.27351 0.31562 0.53562 0.5 0.78125 0.18438 0.24564 0.37378 0.47347 0.59375 0.6875 0.43995 0.42806 0.94291 0.81453 1.5 1.0938 0.27854 0.13961 0.57347 0.24695 0.875 0.34375-0.2562-0.10022-0.48671-0.23627-0.71875-0.375-0.0074-0.0044-0.02387 0.0045-0.03125 0-0.03193-0.0193-0.06229-0.04251-0.09375-0.0625-0.1204-0.0767-0.23102-0.16351-0.34375-0.25-0.10617-0.0808-0.21328-0.16111-0.3125-0.25-0.1778-0.162-0.3473-0.346-0.4999-0.531-0.1075-0.131-0.2183-0.266-0.3124-0.407-0.0251-0.038-0.0385-0.086-0.0626-0.125-0.0647-0.103-0.1302-0.204-0.1874-0.312-0.1011-0.195-0.2057-0.416-0.2813-0.625-0.008-0.022-0.0236-0.041-0.0313-0.063-0.0318-0.092-0.0358-0.187-0.0624-0.281-0.0304-0.107-0.0704-0.203-0.0938-0.313-0.0729-0.341-0.125-0.698-0.125-1.062v-2-68-2c0-2.782 2.2182-5 5-5h2 68 2c2.7818 0 5 2.2182 5 5v2 68 2c0 0.3643-0.05212 0.72099-0.125 1.0625-0.04415 0.20689-0.08838 0.39766-0.15625 0.59375-0.0077 0.02195-0.0233 0.04069-0.03125 0.0625-0.06274 0.17374-0.13838 0.36745-0.21875 0.53125-0.04158 0.0828-0.07904 0.16995-0.125 0.25-0.0546 0.09721-0.12677 0.18835-0.1875 0.28125-0.09411 0.14096-0.20492 0.276-0.3125 0.40625-0.14317 0.17445-0.30314 0.347-0.46875 0.5-0.01117 0.0102-0.01998 0.02115-0.03125 0.03125-0.13839 0.12556-0.28509 0.23444-0.4375 0.34375-0.10257 0.07315-0.20432 0.15336-0.3125 0.21875-0.0074 0.0045-0.02384-0.0044-0.03125 0-0.23204 0.13873-0.46255 0.27478-0.71875 0.375 0.30153-0.0968 0.59646-0.20414 0.875-0.34375 0.55709-0.27922 1.0601-0.66569 1.5-1.0938 0.21997-0.21403 0.40937-0.44186 0.59375-0.6875s0.35541-0.50774 0.5-0.78125c0.14012-0.26505 0.27614-0.52473 0.375-0.8125 0.01041-0.03078 0.02133-0.06274 0.03125-0.09375 0.09046-0.27808 0.1388-0.5794 0.1875-0.875 0.053-0.318 0.094-0.634 0.094-0.969v-2-68-2c0-3.324-2.676-6-6-6h-72z"/>
  <path id="path3615" style="opacity:.4;fill:url(#radialGradient2886)" d="m12 90c-3.324 0-6-2.676-6-6v-2-68-2c0-0.33472 0.04135-0.6507 0.09375-0.96875 0.0487-0.2956 0.09704-0.59692 0.1875-0.875 0.0099-0.03 0.0209-0.063 0.0313-0.094 0.0989-0.2873 0.2349-0.547 0.375-0.812 0.1446-0.2735 0.3156-0.5356 0.5-0.7812 0.1844-0.2457 0.3738-0.4735 0.5937-0.6876 0.44-0.428 0.943-0.8145 1.5-1.0937 0.2786-0.1396 0.5735-0.2469 0.8748-0.3437-0.256 0.1002-0.4865 0.2362-0.7185 0.375-0.00741 0.0044-0.023866-0.0045-0.03125 0-0.031933 0.0193-0.062293 0.04251-0.09375 0.0625-0.1204 0.0767-0.23102 0.16351-0.34375 0.25-0.10617 0.0808-0.21328 0.16111-0.3125 0.25-0.1779 0.1614-0.3474 0.3453-0.5 0.5312-0.1075 0.1303-0.2183 0.2653-0.3124 0.4063-0.0251 0.0383-0.0385 0.0858-0.0626 0.125-0.0647 0.103-0.1302 0.2045-0.1874 0.3124-0.1011 0.1948-0.2057 0.4158-0.2813 0.625-0.008 0.0219-0.0236 0.0406-0.0313 0.0626-0.0318 0.0919-0.0358 0.1868-0.0624 0.2812-0.0304 0.1066-0.0704 0.203-0.0938 0.3125-0.0729 0.3415-0.125 0.6985-0.125 1.0625v2 68 2c0 2.7818 2.2182 5 5 5h2 68 2c2.7818 0 5-2.2182 5-5v-2-68-2c0-0.364-0.052-0.721-0.125-1.0625-0.044-0.2069-0.088-0.3977-0.156-0.5937-0.008-0.022-0.024-0.0407-0.031-0.0626-0.063-0.1737-0.139-0.3674-0.219-0.5312-0.042-0.0828-0.079-0.17-0.125-0.25-0.055-0.0972-0.127-0.1884-0.188-0.2812-0.094-0.141-0.205-0.276-0.312-0.4063-0.143-0.1745-0.303-0.347-0.469-0.5-0.011-0.0102-0.02-0.0211-0.031-0.0313-0.139-0.1255-0.285-0.2344-0.438-0.3437-0.102-0.0731-0.204-0.1534-0.312-0.2187-0.0074-0.0045-0.02384 0.0044-0.03125 0-0.23204-0.13873-0.46255-0.27478-0.71875-0.375 0.30153 0.0968 0.59646 0.20414 0.875 0.34375 0.55709 0.27922 1.0601 0.66569 1.5 1.0938 0.21997 0.21403 0.40937 0.44186 0.59375 0.6875s0.35541 0.50774 0.5 0.78125c0.14012 0.26505 0.27614 0.52473 0.375 0.8125 0.01041 0.03078 0.02133 0.06274 0.03125 0.09375 0.09046 0.27808 0.1388 0.5794 0.1875 0.875 0.053 0.318 0.094 0.634 0.094 0.969v2 68 2c0 3.324-2.676 6-6 6h-72z"/>
  <rect id="rect3654" style="fill:#f0f" rx="6" ry="6" height="84" width="84" y="6" x="-94"/>
  <rect id="rect3797" style="stroke-width:.5;color:#000000;stroke-dashoffset:8.6;stroke:#000;stroke-linecap:round;fill:#fff" height="16" width="16" y="8" x="112"/>
  <text id="text3799" y="11.969256" x="131.39261" xml:space="preserve" style="font-size:4px;line-height:125%;font-family:Liberation Sans;fill:#000000"><tspan id="tspan3801" y="11.969256" x="131.39261">Width: 2px</tspan><tspan id="tspan3803" y="16.969257" x="131.39261">Blur: 12</tspan><tspan id="tspan3807" y="21.969257" x="131.39261">Opacity: 60</tspan></text>
  <path id="path3159" style="fill:url(#linearGradient3871)" d="m48 24c-7.1156 0-12.818 5.3588-12.818 12 0.01605 0.7072 0.06889 1.7294 0.13637 2.5909-1.2168 0.51643-1.3056 2.8846-0.27273 5.3182 0.40958 0.96505 0.93125 1.706 1.5 2.3182 0.13819 0.68394 0.10193 0.99099 0.27273 1.7727 0.4766 1.4298 2.3556 4.232 4.0909 6.5455 0.17016 1.7767 0.34667 3.5697 0 5.5909-5.0001 4.1484-17.883 5.9327-17.864 10.227l-0.272 1.636h50.454l-0.272-1.636c-0.021-3.676-12.925-5.933-17.864-10.228-0.2-1.644-0.238-3.289-0.136-4.909 1.581-2.44 3.696-5.634 4.227-7.227 0.19078-0.80644 0.26022-1.3511 0.40909-2.0455 0.47382-0.57394 0.87824-1.2231 1.2273-2.0455 0.98122-2.3119 0.9178-4.5189-0.13635-5.1818 0.06215-0.9315 0.10898-1.9227 0.13635-2.7273 0-6.641-5.702-12-12.818-12z"/>
  <path id="path3873" style="fill:#fff" d="m35.219 36.5c-0.0074 0.16863-0.03125 0.32962-0.03125 0.5 0.01006 0.44327 0.06024 1.0514 0.09375 1.625 0.01311-0.0061 0.01787-0.02557 0.03125-0.03125-0.055-0.696-0.071-1.439-0.094-2.094zm25.562 0.03125c-0.02801 0.69841-0.04375 1.4381-0.09375 2.1875 0.01252 0.0079 0.01901 0.02294 0.03125 0.03125 0.03266-0.60705 0.07613-1.2319 0.09375-1.75 0-0.15977-0.02471-0.31052-0.03125-0.46875zm-26.406 4.875c-0.07443 0.98149 0.11599 2.2271 0.65625 3.5 0.40958 0.96505 0.93125 1.7004 1.5 2.3125 0.13819 0.68394 0.11046 0.99951 0.28125 1.7812 0.4766 1.4298 2.3585 4.2178 4.0938 6.5312 0.08508 0.88835 0.16544 1.7958 0.1875 2.7188 0.04371-1.2852-0.07217-2.5145-0.1875-3.7188-1.735-2.313-3.617-5.101-4.094-6.531-0.17079-0.78174-0.14306-1.0973-0.28125-1.7812-0.56875-0.61214-1.0904-1.3475-1.5-2.3125-0.36791-0.86687-0.57326-1.7305-0.65625-2.5zm27.094 0.03125c-0.07699 0.76157-0.28829 1.6018-0.65625 2.4688-0.34904 0.82239-0.74494 1.4886-1.2188 2.0625-0.14887 0.69438-0.21547 1.2248-0.40625 2.0312-0.53084 1.5925-2.6375 4.7786-4.2188 7.2188-0.04571 0.72865-0.07537 1.4819-0.0625 2.2188 0.0076-0.40769 0.03711-0.81394 0.0625-1.2188 1.5812-2.4402 3.6879-5.6262 4.2188-7.2188 0.19078-0.80644 0.25738-1.3369 0.40625-2.0312 0.47382-0.57394 0.86971-1.2401 1.2188-2.0625 0.53979-1.2718 0.73978-2.5 0.65625-3.4688zm-38.531 30.563l-0.15625 1h50.438l-0.15625-1h-50.125z"/>
  <path id="path3882" style="opacity:.2" d="m48 24c-7.1156 0-12.812 5.3588-12.812 12 0.0031 0.13642 0.02558 0.34355 0.03125 0.5 0.282-6.404 5.848-11.5 12.781-11.5 6.944 0 12.516 5.112 12.781 11.531 0.007-0.169 0.026-0.374 0.031-0.531 0-6.641-5.696-12-12.812-12zm-12.719 14.625c-0.75428 0.35244-1.0537 1.4142-0.90625 2.7812 0.06786-0.8949 0.35718-1.5662 0.9375-1.8125-0.02518-0.32152-0.0113-0.62719-0.03125-0.96875zm25.438 0.125c-0.01806 0.33572-0.0091 0.63704-0.03125 0.96875 0.46771 0.29412 0.70831 0.91114 0.78125 1.6875 0.11834-1.2305-0.12347-2.2311-0.75-2.6562zm-5.8125 18.938c-0.01105 1.1429 0.04762 2.2867 0.1875 3.4375 4.9388 4.2946 17.855 6.5744 17.875 10.25l0.094 0.624h0.15625l-0.25-1.625c-0.02049-3.6756-12.936-5.9554-17.875-10.25-0.09992-0.82199-0.16569-1.6181-0.1875-2.4375zm-13.812 0.96875c-0.02954 0.48009-0.10083 0.96344-0.1875 1.4688-5.0001 4.1484-17.894 5.9554-17.875 10.25l-0.25 1.625h0.15625l0.09375-0.625c-0.01917-4.2946 12.875-6.1016 17.875-10.25 0.1483-0.86464 0.18923-1.6711 0.1875-2.4688z"/>
  <path id="path3898" style="opacity:.6;filter:url(#filter3904);stroke:#fff;stroke-width:2;fill:none" clip-path="url(#clipPath3900)" d="m48 24c-7.1156 0-12.818 5.3588-12.818 12 0.01605 0.7072 0.06889 1.7294 0.13637 2.5909-1.2168 0.51643-1.3056 2.8846-0.27273 5.3182 0.40958 0.96505 0.93125 1.706 1.5 2.3182 0.13819 0.68394 0.10193 0.99099 0.27273 1.7727 0.4766 1.4298 2.3556 4.232 4.0909 6.5455 0.17016 1.7767 0.34667 3.5697 0 5.5909-5.0001 4.1484-17.883 5.9327-17.864 10.227l-0.272 1.636h50.454l-0.272-1.636c-0.021-3.676-12.925-5.933-17.864-10.228-0.2-1.644-0.238-3.289-0.136-4.909 1.581-2.44 3.696-5.634 4.227-7.227 0.19078-0.80644 0.26022-1.3511 0.40909-2.0455 0.47382-0.57394 0.87824-1.2231 1.2273-2.0455 0.98122-2.3119 0.9178-4.5189-0.13635-5.1818 0.06215-0.9315 0.10898-1.9227 0.13635-2.7273 0-6.641-5.702-12-12.818-12z"/>
 </g>
 <g id="layer3">
  <rect id="rect3171" style="opacity:.5;filter:url(#filter3794);stroke:#fff;stroke-linecap:round;stroke-width:.5;fill:url(#linearGradient4052)" clip-path="url(#clipPath3613)" rx="12" ry="12" height="66" width="66" y="15" x="15"/>
 </g>
</svg>
