<?xml version="1.0" encoding="UTF-8" standalone="no"?>
<!-- Created with Inkscape (http://www.inkscape.org/) -->
<svg id="svg2408" xmlns:rdf="http://www.w3.org/1999/02/22-rdf-syntax-ns#" xmlns="http://www.w3.org/2000/svg" height="96" width="96" version="1.0" xmlns:cc="http://creativecommons.org/ns#" xmlns:xlink="http://www.w3.org/1999/xlink" xmlns:dc="http://purl.org/dc/elements/1.1/">
 <defs id="defs2410">
  <linearGradient id="ButtonShadow" y2="7.0165" gradientUnits="userSpaceOnUse" x2="45.448" gradientTransform="scale(1.0059 .99417)" y1="92.54" x1="45.448">
   <stop id="stop3750" offset="0"/>
   <stop id="stop3752" style="stop-opacity:.58824" offset="1"/>
  </linearGradient>
  <linearGradient id="linearGradient3737">
   <stop id="stop3739" style="stop-color:#fff" offset="0"/>
   <stop id="stop3741" style="stop-color:#fff;stop-opacity:0" offset="1"/>
  </linearGradient>
  <filter id="filter3174" color-interpolation-filters="sRGB">
   <feGaussianBlur id="feGaussianBlur3176" stdDeviation="1.71"/>
  </filter>
  <linearGradient id="linearGradient3188" y2="63.893" xlink:href="#linearGradient3737" gradientUnits="userSpaceOnUse" x2="36.357" y1="6" x1="36.357"/>
  <filter id="filter3794" height="1.384" width="1.384" color-interpolation-filters="sRGB" y="-.192" x="-.192">
   <feGaussianBlur id="feGaussianBlur3796" stdDeviation="5.28"/>
  </filter>
  <linearGradient id="linearGradient3613" y2="138.66" xlink:href="#linearGradient3737" gradientUnits="userSpaceOnUse" x2="48" y1="20.221" x1="48"/>
  <radialGradient id="radialGradient3619" xlink:href="#linearGradient3737" gradientUnits="userSpaceOnUse" cy="90.172" cx="48" gradientTransform="matrix(1.1573 0 0 .99591 -7.551 .19713)" r="42"/>
  <clipPath id="clipPath3613">
   <rect id="rect3615" style="fill:#fff" rx="6" ry="6" height="84" width="84" y="6" x="6"/>
  </clipPath>
  <linearGradient id="linearGradient3633" y2="5.9795" gradientUnits="userSpaceOnUse" x2="54.75" y1="90" x1="54.75">
   <stop id="stop3629" style="stop-color:#5f101a" offset="0"/>
   <stop id="stop3631" style="stop-color:#811524" offset="1"/>
  </linearGradient>
  <linearGradient id="linearGradient3646" y2="8" gradientUnits="userSpaceOnUse" x2="16" y1="88" x1="16">
   <stop id="stop3642" style="stop-color:#1a1a1a" offset="0"/>
   <stop id="stop3644" style="stop-color:#2a2a2a" offset="1"/>
  </linearGradient>
  <clipPath id="clipPath3674">
   <g id="g3676" style="fill:#fff" transform="translate(0 -0.5)">
    <path id="path3678" d="m73.036 46.007c-0.000037 0.90512-0.07303 1.8175-0.21898 2.7372-0.13142 0.90512-0.3358 1.7737-0.61314 2.6058-0.26281 0.81753-0.60587 1.584-1.0292 2.2993-0.40879 0.70074-0.89054 1.3139-1.4453 1.8394-0.55478 0.52555-1.1898 0.94161-1.9051 1.2482-0.70076 0.29198-1.4745 0.43796-2.3212 0.43796-0.65696 0.000005-1.2555-0.10948-1.7956-0.32847-0.52557-0.21897-0.97813-0.51094-1.3577-0.87591-0.37959-0.36496-0.69346-0.78102-0.94161-1.2482-0.2336-0.48174-0.39418-0.97809-0.48175-1.4891h-0.08759c-0.2628 0.54015-0.59126 1.0511-0.9854 1.5328-0.39418 0.48176-0.85404 0.90512-1.3796 1.2701-0.51097 0.35037-1.0949 0.62774-1.7518 0.83212-0.64236 0.20438-1.3504 0.30657-2.1241 0.30657-1.1241 0.000005-2.1241-0.20438-3-0.61314-0.86133-0.40875-1.5913-0.9781-2.1898-1.708-0.59855-0.74452-1.0584-1.635-1.3796-2.6715-0.30658-1.0365-0.45986-2.1825-0.45985-3.438-0.000011-1.4744 0.21167-2.8248 0.63504-4.0511 0.43794-1.2263 1.0584-2.2847 1.8613-3.1752 0.82-0.891 1.806-1.585 2.959-2.081 1.1533-0.49633 2.4452-0.7445 3.8759-0.74452 0.65691 0.000023 1.3138 0.02922 1.9708 0.08759 0.65691 0.05842 1.2846 0.13871 1.8832 0.24088 0.59852 0.10221 1.146 0.219 1.6423 0.35036 0.51092 0.11681 0.93428 0.2336 1.2701 0.35036l-0.50365 9.1095c-0.01463 0.32118-0.02922 0.58396-0.0438 0.78832-0.000026 0.18979-0.000026 0.34308 0 0.45985-0.000026 0.1168-0.000026 0.20439 0 0.26277-0.000026 0.05841-0.000026 0.1095 0 0.15328-0.000026 0.77373 0.07297 1.4088 0.21898 1.9051 0.16056 0.49636 0.36494 0.89052 0.61314 1.1825 0.24815 0.29198 0.52552 0.49636 0.83212 0.61314 0.32114 0.1022 0.64961 0.15329 0.9854 0.15328 0.6715 0.000008 1.2627-0.21897 1.7737-0.65693 0.51092-0.45255 0.93427-1.0584 1.2701-1.8175 0.35033-0.75911 0.6131-1.6496 0.78832-2.6715 0.17515-1.0219 0.26274-2.1022 0.26277-3.2409-0.000033-2.073-0.3139-3.9124-0.9416-5.5182-0.62777-1.6204-1.4964-2.9854-2.6058-4.0949-1.1095-1.1095-2.4307-1.9489-3.9635-2.5182-1.5183-0.58391-3.1752-0.87588-4.9708-0.87591-2.4672 0.000029-4.6424 0.40879-6.5255 1.2263-1.8832 0.80295-3.4672 1.9343-4.7518 3.3942-1.2701 1.4453-2.2336 3.1679-2.8905 5.1679-0.65694 1.9854-0.98541 4.1606-0.9854 6.5255-0.000006 2.2044 0.28466 4.1606 0.85401 5.8686 0.58394 1.708 1.4306 3.146 2.5401 4.3139 1.1241 1.1679 2.5109 2.0511 4.1606 2.6496 1.6642 0.59854 3.5693 0.89781 5.7153 0.89781 0.89049-0.000001 1.7664-0.0511 2.6277-0.15328 0.87589-0.10219 1.7153-0.24088 2.5182-0.41606 0.81749-0.17518 1.5912-0.37226 2.3212-0.59124 0.7299-0.23358 1.4087-0.47445 2.0365-0.72263v3.0876c-1.2555 0.55474-2.6716 0.9927-4.2482 1.3139-1.5767 0.32116-3.3139 0.48175-5.2117 0.48175-2.6132-0.000004-4.9489-0.37227-7.0073-1.1168-2.0438-0.74453-3.781-1.8248-5.2117-3.2409-1.4161-1.4307-2.4964-3.1679-3.2409-5.2117-0.74453-2.0584-1.1168-4.3942-1.1168-7.0073-0.000002-2.7445 0.43065-5.2993 1.292-7.6642 0.86131-2.3795 2.0876-4.4379 3.6788-6.1752 1.6058-1.7372 3.5401-3.1022 5.8029-4.0949 2.2774-0.99267 4.8248-1.489 7.6423-1.4891 2.2773 0.000032 4.3722 0.3723 6.2847 1.1168 1.9124 0.72996 3.562 1.7884 4.9489 3.1752 1.4014 1.3723 2.489 3.0511 3.2628 5.0365 0.77369 1.9708 1.1605 4.1971 1.1606 6.6788m-21.964 2.8248c-0.000015 1.9416 0.36495 3.3504 1.0949 4.2263 0.74451 0.86132 1.7372 1.292 2.9781 1.292 0.8029 0.000008 1.489-0.16058 2.0584-0.48175 0.56932-0.33576 1.0365-0.80291 1.4015-1.4015 0.36494-0.61313 0.64231-1.3358 0.83212-2.1679 0.18976-0.8467 0.31385-1.7737 0.37226-2.781l0.30657-5.5401c-0.40878-0.11677-0.89783-0.21896-1.4672-0.30657-0.55477-0.10217-1.1387-0.15326-1.7518-0.15328-1.0803 0.000021-1.9927 0.2117-2.7372 0.63504-0.72994 0.42338-1.3285 0.97812-1.7956 1.6642-0.45257 0.68615-0.78104 1.4672-0.9854 2.3431-0.20439 0.87593-0.30658 1.7664-0.30657 2.6715"/>
   </g>
  </clipPath>
  <clipPath id="clipPath3724">
   <path id="path3726" style="opacity:.2;fill:#f0f" d="m32 24v48h48v-48h-48zm25.375 6c2.2773 0.000032 4.3688 0.38051 6.2812 1.125 1.9124 0.72996 3.5819 1.7694 4.9688 3.1562 1.4014 1.3723 2.4762 3.0771 3.25 5.0625 0.77369 1.9708 1.1562 4.1745 1.1562 6.6562-0.000037 0.90512-0.0728 1.8303-0.21875 2.75-0.13142 0.90512-0.31641 1.7616-0.59375 2.5938-0.26281 0.81753-0.60793 1.5972-1.0312 2.3125-0.40879 0.70074-0.91404 1.3182-1.4688 1.8438-0.55478 0.52555-1.191 0.94344-1.9062 1.25-0.70076 0.29198-1.4658 0.4375-2.3125 0.4375-0.65696 0.000005-1.2411-0.12477-1.7812-0.34375-0.52557-0.21897-0.99546-0.51003-1.375-0.875-0.37959-0.36496-0.68935-0.78284-0.9375-1.25-0.2336-0.48174-0.38118-0.98904-0.46875-1.5h-0.09375c-0.2628 0.54015-0.60586 1.0808-1 1.5625-0.39418 0.48176-0.84948 0.88504-1.375 1.25-0.51097 0.35037-1.0931 0.63938-1.75 0.84375-0.64236 0.20438-1.3513 0.3125-2.125 0.3125-1.1241 0.000005-2.1241-0.21624-3-0.625-0.86133-0.40875-1.589-0.98882-2.1875-1.7188-0.59855-0.74452-1.0538-1.6197-1.375-2.6562-0.30658-1.0365-0.46876-2.182-0.46875-3.4375-0.000011-1.4744 0.23288-2.8362 0.65625-4.0625 0.43794-1.2263 1.0408-2.2657 1.8438-3.1562 0.8175-0.89049 1.8154-1.5974 2.9688-2.0938 1.1533-0.49633 2.4443-0.74998 3.875-0.75 0.65691 0.000023 1.3118 0.03538 1.9688 0.09375 0.65691 0.05842 1.2764 0.14783 1.875 0.25 0.59852 0.10221 1.1599 0.21239 1.6562 0.34375 0.51092 0.11681 0.91421 0.22698 1.25 0.34375l-0.5 9.125c-0.01463 0.32118-0.01667 0.57688-0.03125 0.78125-0.000026 0.18979-0.000026 0.35197 0 0.46875-0.000026 0.1168-0.000026 0.19162 0 0.25-0.000026 0.05841-0.000026 0.11247 0 0.15625-0.000026 0.77373 0.07274 1.4099 0.21875 1.9062 0.16056 0.49636 0.34555 0.89554 0.59375 1.1875 0.24815 0.29198 0.53715 0.47697 0.84375 0.59375 0.32114 0.1022 0.6642 0.15626 1 0.15625 0.6715 0.000008 1.239-0.21829 1.75-0.65625 0.51092-0.45255 0.94545-1.0534 1.2812-1.8125 0.35033-0.75911 0.60603-1.6343 0.78125-2.6562 0.17515-1.0219 0.28122-2.1113 0.28125-3.25-0.000033-2.073-0.34105-3.9254-0.96875-5.5312-0.62777-1.6204-1.4843-2.9842-2.5938-4.0938-1.1095-1.1095-2.4359-1.9306-3.9688-2.5-1.5183-0.58391-3.1732-0.87497-4.9688-0.875-2.4672 0.000029-4.6481 0.40126-6.5312 1.2188-1.8832 0.80295-3.4653 1.9152-4.75 3.375-1.2701 1.4453-2.2181 3.1875-2.875 5.1875-0.65694 1.9854-1 4.1663-1 6.5312-0.000006 2.2044 0.30565 4.1357 0.875 5.8438 0.58394 1.708 1.4218 3.1446 2.5312 4.3125 1.1241 1.1679 2.5066 2.0577 4.1562 2.6562 1.666 0.598 3.575 0.906 5.721 0.906 0.89049 0 1.7637-0.0541 2.625-0.15625 0.87589-0.10219 1.7283-0.23107 2.5312-0.40625 0.81749-0.17519 1.5825-0.37478 2.3125-0.59375 0.73-0.234 1.403-0.471 2.031-0.719v3.0938c-1.2555 0.55474-2.6734 0.99133-4.25 1.3125-1.577 0.32-3.321 0.468-5.219 0.468-2.6132 0-4.9416-0.38048-7-1.125-2.0438-0.74453-3.7881-1.8027-5.2188-3.2188-1.4161-1.4307-2.4742-3.175-3.2188-5.2188-0.74453-2.0584-1.125-4.3869-1.125-7-0.000002-2.7445 0.41993-5.3225 1.2812-7.6875 0.86131-2.3795 2.0963-4.419 3.6875-6.1562 1.6058-1.7372 3.5497-3.101 5.8125-4.0938 2.2774-0.99267 4.8075-1.5 7.625-1.5zm-0.46875 11.531c-1.0803 0.000021-2.0055 0.20166-2.75 0.625-0.72994 0.42338-1.3141 0.97014-1.7812 1.6562-0.45257 0.68615-0.79564 1.4679-1 2.3438-0.20439 0.87593-0.31252 1.7824-0.3125 2.6875-0.000015 1.9416 0.36381 3.3428 1.0938 4.2188 0.74451 0.86132 1.7591 1.2813 3 1.2812 0.8029 0.000008 1.4931-0.14758 2.0625-0.46875 0.56932-0.33576 1.01-0.8077 1.375-1.4062 0.36494-0.61313 0.65395-1.3241 0.84375-2.1562 0.18976-0.8467 0.31658-1.7739 0.375-2.7812l0.3125-5.5625c-0.40878-0.11677-0.89943-0.22489-1.4688-0.3125-0.55477-0.10217-1.1369-0.12498-1.75-0.125z"/>
  </clipPath>
  <linearGradient id="linearGradient3751" y2="26" gradientUnits="userSpaceOnUse" x2="9" y1="22" x1="9">
   <stop id="stop3747" style="stop-color:#8a8a8a" offset="0"/>
   <stop id="stop3753" style="stop-color:#d5d5d5" offset=".40964"/>
   <stop id="stop3755" style="stop-color:#6f6f6f" offset=".72741"/>
   <stop id="stop3749" style="stop-color:#373737" offset="1"/>
  </linearGradient>
  <linearGradient id="linearGradient3767" y2="24" spreadMethod="reflect" gradientUnits="userSpaceOnUse" x2="12" y1="24" x1="4">
   <stop id="stop3763" offset="0"/>
   <stop id="stop3769" style="stop-opacity:.19380" offset=".5"/>
   <stop id="stop3765" style="stop-opacity:0" offset="1"/>
  </linearGradient>
  <linearGradient id="linearGradient3784" y2="24" gradientUnits="userSpaceOnUse" x2="18" gradientTransform="matrix(0,1,1,0,-10,10)" y1="24" x1="10">
   <stop id="stop3780" offset="0"/>
   <stop id="stop3786" style="stop-opacity:0" offset=".5"/>
   <stop id="stop3782" style="stop-color:#fff" offset="1"/>
  </linearGradient>
  <filter id="filter3669" color-interpolation-filters="sRGB">
   <feGaussianBlur id="feGaussianBlur3671" stdDeviation="0.52554746"/>
  </filter>
  <linearGradient id="ButtonShadow-0" y2="7.0165" gradientUnits="userSpaceOnUse" x2="45.448" gradientTransform="matrix(1.0059 0 0 .99417 100 0)" y1="92.54" x1="45.448">
   <stop id="stop3750-8" offset="0"/>
   <stop id="stop3752-5" style="stop-opacity:.58824" offset="1"/>
  </linearGradient>
  <linearGradient id="linearGradient3780" y2="90.239" xlink:href="#ButtonShadow-0" gradientUnits="userSpaceOnUse" x2="32.251" gradientTransform="matrix(1.0238 0 0 1.0119 -1.1429 -98.071)" y1="6.1317" x1="32.251"/>
  <linearGradient id="linearGradient3721" y2="90.239" xlink:href="#ButtonShadow-0" gradientUnits="userSpaceOnUse" x2="32.251" gradientTransform="translate(0,-97)" y1="6.1317" x1="32.251"/>
 </defs>
 <metadata id="metadata2413">
  <rdf:RDF>
   <cc:Work rdf:about="">
    <dc:format>image/svg+xml</dc:format>
    <dc:type rdf:resource="http://purl.org/dc/dcmitype/StillImage"/>
   </cc:Work>
  </rdf:RDF>
 </metadata>
 <g id="layer2" style="display:none">
  <rect id="rect3745" style="opacity:.9;filter:url(#filter3174);fill:url(#ButtonShadow)" rx="6" ry="6" height="85" width="86" y="7" x="5"/>
 </g>
 <g id="layer6">
  <path id="path3786" style="opacity:0.08;fill:url(#linearGradient3780)" d="m12-95.031c-5.5111 0-10.031 4.5202-10.031 10.031v71c0 5.5111 4.5202 10.031 10.031 10.031h72c5.5111 0 10.031-4.5202 10.031-10.031v-71c0-5.5111-4.5202-10.031-10.031-10.031h-72z" transform="scale(1,-1)"/>
  <path id="path3778" style="opacity:.1;fill:url(#linearGradient3780)" d="m12-94.031c-4.9716 0-9.0312 4.0596-9.0312 9.0312v71c0 4.9716 4.0596 9.0312 9.0312 9.0312h72c4.9716 0 9.0312-4.0596 9.0312-9.0312v-71c0-4.9716-4.0596-9.0312-9.0312-9.0312h-72z" transform="scale(1,-1)"/>
  <path id="path3770" style="opacity:.2;fill:url(#linearGradient3780)" d="m12-93c-4.4091 0-8 3.5909-8 8v71c0 4.4091 3.5909 8 8 8h72c4.4091 0 8-3.5909 8-8v-71c0-4.4091-3.5909-8-8-8h-72z" transform="scale(1,-1)"/>
  <rect id="rect3723" style="opacity:.3;fill:url(#linearGradient3780)" transform="scale(1,-1)" rx="7" ry="7" height="85" width="86" y="-92" x="5"/>
  <rect id="rect3716" style="opacity:.45;fill:url(#linearGradient3721)" transform="scale(1,-1)" rx="6" ry="6" height="84" width="84" y="-91" x="6"/>
 </g>
 <g id="layer1">
  <rect id="rect2419" style="fill:url(#linearGradient3633)" rx="6" ry="6" height="84" width="84" y="6" x="6"/>
  <rect id="rect3650" style="opacity:.15;fill:#fff" height="84" width="1" y="6" x="24"/>
  <path id="rect3635" style="fill:url(#linearGradient3646)" d="m12 6c-3.324 0-6 2.676-6 6v72c0 3.324 2.676 6 6 6h12v-84h-12z"/>
  <rect id="rect3648" style="opacity:.4" height="84" width="1" y="6" x="23"/>
  <path id="rect3728" style="opacity:.3;fill:url(#linearGradient3188)" d="m12 6c-3.324 0-6 2.676-6 6v2 68 2c0 0.33472 0.04135 0.6507 0.09375 0.96875 0.0487 0.2956 0.09704 0.59692 0.1875 0.875 0.00988 0.03038 0.020892 0.0636 0.03125 0.09375 0.098865 0.28777 0.23488 0.54745 0.375 0.8125 0.14459 0.27351 0.31562 0.53562 0.5 0.78125 0.18438 0.24564 0.37378 0.47347 0.59375 0.6875 0.43995 0.42806 0.94291 0.81453 1.5 1.0938 0.27854 0.13961 0.57347 0.24695 0.875 0.34375-0.2562-0.10022-0.48671-0.23627-0.71875-0.375-0.00741-0.0044-0.023866 0.0045-0.03125 0-0.031933-0.0193-0.062293-0.04251-0.09375-0.0625-0.1204-0.0767-0.23102-0.16351-0.34375-0.25-0.10617-0.0808-0.21328-0.16111-0.3125-0.25-0.1778-0.162-0.3473-0.346-0.4999-0.531-0.1075-0.131-0.2183-0.266-0.3124-0.407-0.0251-0.038-0.0385-0.086-0.0626-0.125-0.0647-0.103-0.1302-0.204-0.1874-0.312-0.1011-0.195-0.2057-0.416-0.2813-0.625-0.008-0.022-0.0236-0.041-0.0313-0.063-0.0318-0.092-0.0358-0.187-0.0624-0.281-0.0304-0.107-0.0704-0.203-0.0938-0.313-0.0729-0.341-0.125-0.698-0.125-1.062v-2-68-2c0-2.782 2.2182-5 5-5h2 68 2c2.7818 0 5 2.2182 5 5v2 68 2c0 0.3643-0.05212 0.72099-0.125 1.0625-0.04415 0.20689-0.08838 0.39766-0.15625 0.59375-0.0077 0.02195-0.0233 0.04069-0.03125 0.0625-0.06274 0.17374-0.13838 0.36745-0.21875 0.53125-0.04158 0.0828-0.07904 0.16995-0.125 0.25-0.0546 0.09721-0.12677 0.18835-0.1875 0.28125-0.09411 0.14096-0.20492 0.276-0.3125 0.40625-0.14317 0.17445-0.30314 0.347-0.46875 0.5-0.01117 0.0102-0.01998 0.02115-0.03125 0.03125-0.13839 0.12556-0.28509 0.23444-0.4375 0.34375-0.10257 0.07315-0.20432 0.15336-0.3125 0.21875-0.0074 0.0045-0.02384-0.0044-0.03125 0-0.23204 0.13873-0.46255 0.27478-0.71875 0.375 0.30153-0.0968 0.59646-0.20414 0.875-0.34375 0.55709-0.27922 1.0601-0.66569 1.5-1.0938 0.21997-0.21403 0.40937-0.44186 0.59375-0.6875s0.35541-0.50774 0.5-0.78125c0.14012-0.26505 0.27614-0.52473 0.375-0.8125 0.01041-0.03078 0.02133-0.06274 0.03125-0.09375 0.09046-0.27808 0.1388-0.5794 0.1875-0.875 0.053-0.318 0.094-0.634 0.094-0.969v-2-68-2c0-3.324-2.676-6-6-6h-72z"/>
  <path id="path3615" style="opacity:.2;fill:url(#radialGradient3619)" d="m12 90c-3.324 0-6-2.676-6-6v-2-68-2c0-0.33472 0.04135-0.6507 0.09375-0.96875 0.0487-0.2956 0.09704-0.59692 0.1875-0.875 0.0099-0.03 0.0209-0.063 0.0313-0.094 0.0989-0.2873 0.2349-0.547 0.375-0.812 0.1446-0.2735 0.3156-0.5356 0.5-0.7812 0.1844-0.2457 0.3738-0.4735 0.5937-0.6876 0.44-0.428 0.943-0.8145 1.5-1.0937 0.2786-0.1396 0.5735-0.2469 0.8748-0.3437-0.256 0.1002-0.4865 0.2362-0.7185 0.375-0.00741 0.0044-0.023866-0.0045-0.03125 0-0.031933 0.0193-0.062293 0.04251-0.09375 0.0625-0.1204 0.0767-0.23102 0.16351-0.34375 0.25-0.10617 0.0808-0.21328 0.16111-0.3125 0.25-0.1779 0.1614-0.3474 0.3453-0.5 0.5312-0.1075 0.1303-0.2183 0.2653-0.3124 0.4063-0.0251 0.0383-0.0385 0.0858-0.0626 0.125-0.0647 0.103-0.1302 0.2045-0.1874 0.3124-0.1011 0.1948-0.2057 0.4158-0.2813 0.625-0.008 0.0219-0.0236 0.0406-0.0313 0.0626-0.0318 0.0919-0.0358 0.1868-0.0624 0.2812-0.0304 0.1066-0.0704 0.203-0.0938 0.3125-0.0729 0.3415-0.125 0.6985-0.125 1.0625v2 68 2c0 2.7818 2.2182 5 5 5h2 68 2c2.7818 0 5-2.2182 5-5v-2-68-2c0-0.364-0.052-0.721-0.125-1.0625-0.044-0.2069-0.088-0.3977-0.156-0.5937-0.008-0.022-0.024-0.0407-0.031-0.0626-0.063-0.1737-0.139-0.3674-0.219-0.5312-0.042-0.0828-0.079-0.17-0.125-0.25-0.055-0.0972-0.127-0.1884-0.188-0.2812-0.094-0.141-0.205-0.276-0.312-0.4063-0.143-0.1745-0.303-0.347-0.469-0.5-0.011-0.0102-0.02-0.0211-0.031-0.0313-0.139-0.1255-0.285-0.2344-0.438-0.3437-0.102-0.0731-0.204-0.1534-0.312-0.2187-0.0074-0.0045-0.02384 0.0044-0.03125 0-0.23204-0.13873-0.46255-0.27478-0.71875-0.375 0.30153 0.0968 0.59646 0.20414 0.875 0.34375 0.55709 0.27922 1.0601 0.66569 1.5 1.0938 0.21997 0.21403 0.40937 0.44186 0.59375 0.6875s0.35541 0.50774 0.5 0.78125c0.14012 0.26505 0.27614 0.52473 0.375 0.8125 0.01041 0.03078 0.02133 0.06274 0.03125 0.09375 0.09046 0.27808 0.1388 0.5794 0.1875 0.875 0.053 0.318 0.094 0.634 0.094 0.969v2 68 2c0 3.324-2.676 6-6 6h-72z"/>
 </g>
 <g id="layer5">
  <rect id="rect3171" style="opacity:.1;filter:url(#filter3794);stroke:#fff;stroke-linecap:round;stroke-width:.5;fill:url(#linearGradient3613)" clip-path="url(#clipPath3613)" rx="12" ry="12" height="66" width="66" y="15" x="15"/>
 </g>
 <g id="layer3">
  <g id="g3718" style="opacity:.5;filter:url(#filter3669);stroke:#de8787;stroke-width:1.5;fill:none" clip-path="url(#clipPath3724)">
   <path id="path3720" style="stroke:#de8787;stroke-width:1.5;fill:none" d="m73.036 46.007c-0.000037 0.90512-0.07303 1.8175-0.21898 2.7372-0.13142 0.90512-0.3358 1.7737-0.61314 2.6058-0.26281 0.81753-0.60587 1.584-1.0292 2.2993-0.40879 0.70074-0.89054 1.3139-1.4453 1.8394-0.55478 0.52555-1.1898 0.94161-1.9051 1.2482-0.70076 0.29198-1.4745 0.43796-2.3212 0.43796-0.65696 0.000005-1.2555-0.10948-1.7956-0.32847-0.52557-0.21897-0.97813-0.51094-1.3577-0.87591-0.37959-0.36496-0.69346-0.78102-0.94161-1.2482-0.2336-0.48174-0.39418-0.97809-0.48175-1.4891h-0.08759c-0.2628 0.54015-0.59126 1.0511-0.9854 1.5328-0.39418 0.48176-0.85404 0.90512-1.3796 1.2701-0.51097 0.35037-1.0949 0.62774-1.7518 0.83212-0.64236 0.20438-1.3504 0.30657-2.1241 0.30657-1.1241 0.000005-2.1241-0.20438-3-0.61314-0.86133-0.40875-1.5913-0.9781-2.1898-1.708-0.59855-0.74452-1.0584-1.635-1.3796-2.6715-0.30658-1.0365-0.45986-2.1825-0.45985-3.438-0.000011-1.4744 0.21167-2.8248 0.63504-4.0511 0.43794-1.2263 1.0584-2.2847 1.8613-3.1752 0.82-0.891 1.806-1.585 2.959-2.081 1.1533-0.49633 2.4452-0.7445 3.8759-0.74452 0.65691 0.000023 1.3138 0.02922 1.9708 0.08759 0.65691 0.05842 1.2846 0.13871 1.8832 0.24088 0.59852 0.10221 1.146 0.219 1.6423 0.35036 0.51092 0.11681 0.93428 0.2336 1.2701 0.35036l-0.50365 9.1095c-0.01463 0.32118-0.02922 0.58396-0.0438 0.78832-0.000026 0.18979-0.000026 0.34308 0 0.45985-0.000026 0.1168-0.000026 0.20439 0 0.26277-0.000026 0.05841-0.000026 0.1095 0 0.15328-0.000026 0.77373 0.07297 1.4088 0.21898 1.9051 0.16056 0.49636 0.36494 0.89052 0.61314 1.1825 0.24815 0.29198 0.52552 0.49636 0.83212 0.61314 0.32114 0.1022 0.64961 0.15329 0.9854 0.15328 0.6715 0.000008 1.2627-0.21897 1.7737-0.65693 0.51092-0.45255 0.93427-1.0584 1.2701-1.8175 0.35033-0.75911 0.6131-1.6496 0.78832-2.6715 0.17515-1.0219 0.26274-2.1022 0.26277-3.2409-0.000033-2.073-0.3139-3.9124-0.9416-5.5182-0.62777-1.6204-1.4964-2.9854-2.6058-4.0949-1.1095-1.1095-2.4307-1.9489-3.9635-2.5182-1.5183-0.58391-3.1752-0.87588-4.9708-0.87591-2.4672 0.000029-4.6424 0.40879-6.5255 1.2263-1.8832 0.80295-3.4672 1.9343-4.7518 3.3942-1.2701 1.4453-2.2336 3.1679-2.8905 5.1679-0.65694 1.9854-0.98541 4.1606-0.9854 6.5255-0.000006 2.2044 0.28466 4.1606 0.85401 5.8686 0.58394 1.708 1.4306 3.146 2.5401 4.3139 1.1241 1.1679 2.5109 2.0511 4.1606 2.6496 1.6642 0.59854 3.5693 0.89781 5.7153 0.89781 0.89049-0.000001 1.7664-0.0511 2.6277-0.15328 0.87589-0.10219 1.7153-0.24088 2.5182-0.41606 0.81749-0.17518 1.5912-0.37226 2.3212-0.59124 0.7299-0.23358 1.4087-0.47445 2.0365-0.72263v3.0876c-1.2555 0.55474-2.6716 0.9927-4.2482 1.3139-1.5767 0.32116-3.3139 0.48175-5.2117 0.48175-2.6132-0.000004-4.9489-0.37227-7.0073-1.1168-2.0438-0.74453-3.781-1.8248-5.2117-3.2409-1.4161-1.4307-2.4964-3.1679-3.2409-5.2117-0.74453-2.0584-1.1168-4.3942-1.1168-7.0073-0.000002-2.7445 0.43065-5.2993 1.292-7.6642 0.86131-2.3795 2.0876-4.4379 3.6788-6.1752 1.6058-1.7372 3.5401-3.1022 5.8029-4.0949 2.2774-0.99267 4.8248-1.489 7.6423-1.4891 2.2773 0.000032 4.3722 0.3723 6.2847 1.1168 1.9124 0.72996 3.562 1.7884 4.9489 3.1752 1.4014 1.3723 2.489 3.0511 3.2628 5.0365 0.77369 1.9708 1.1605 4.1971 1.1606 6.6788m-21.964 2.8248c-0.000015 1.9416 0.36495 3.3504 1.0949 4.2263 0.74451 0.86132 1.7372 1.292 2.9781 1.292 0.8029 0.000008 1.489-0.16058 2.0584-0.48175 0.56932-0.33576 1.0365-0.80291 1.4015-1.4015 0.36494-0.61313 0.64231-1.3358 0.83212-2.1679 0.18976-0.8467 0.31385-1.7737 0.37226-2.781l0.30657-5.5401c-0.40878-0.11677-0.89783-0.21896-1.4672-0.30657-0.55477-0.10217-1.1387-0.15326-1.7518-0.15328-1.0803 0.000021-1.9927 0.2117-2.7372 0.63504-0.72994 0.42338-1.3285 0.97812-1.7956 1.6642-0.45257 0.68615-0.78104 1.4672-0.9854 2.3431-0.20439 0.87593-0.30658 1.7664-0.30657 2.6715"/>
  </g>
  <g id="text3653" style="fill:#fff">
   <path id="path3658" d="m73.036 46.007c-0.000037 0.90512-0.07303 1.8175-0.21898 2.7372-0.13142 0.90512-0.3358 1.7737-0.61314 2.6058-0.26281 0.81753-0.60587 1.584-1.0292 2.2993-0.40879 0.70074-0.89054 1.3139-1.4453 1.8394-0.55478 0.52555-1.1898 0.94161-1.9051 1.2482-0.70076 0.29198-1.4745 0.43796-2.3212 0.43796-0.65696 0.000005-1.2555-0.10948-1.7956-0.32847-0.52557-0.21897-0.97813-0.51094-1.3577-0.87591-0.37959-0.36496-0.69346-0.78102-0.94161-1.2482-0.2336-0.48174-0.39418-0.97809-0.48175-1.4891h-0.08759c-0.2628 0.54015-0.59126 1.0511-0.9854 1.5328-0.39418 0.48176-0.85404 0.90512-1.3796 1.2701-0.51097 0.35037-1.0949 0.62774-1.7518 0.83212-0.64236 0.20438-1.3504 0.30657-2.1241 0.30657-1.1241 0.000005-2.1241-0.20438-3-0.61314-0.86133-0.40875-1.5913-0.9781-2.1898-1.708-0.59855-0.74452-1.0584-1.635-1.3796-2.6715-0.30658-1.0365-0.45986-2.1825-0.45985-3.438-0.000011-1.4744 0.21167-2.8248 0.63504-4.0511 0.43794-1.2263 1.0584-2.2847 1.8613-3.1752 0.82-0.891 1.806-1.585 2.959-2.081 1.1533-0.49633 2.4452-0.7445 3.8759-0.74452 0.65691 0.000023 1.3138 0.02922 1.9708 0.08759 0.65691 0.05842 1.2846 0.13871 1.8832 0.24088 0.59852 0.10221 1.146 0.219 1.6423 0.35036 0.51092 0.11681 0.93428 0.2336 1.2701 0.35036l-0.50365 9.1095c-0.01463 0.32118-0.02922 0.58396-0.0438 0.78832-0.000026 0.18979-0.000026 0.34308 0 0.45985-0.000026 0.1168-0.000026 0.20439 0 0.26277-0.000026 0.05841-0.000026 0.1095 0 0.15328-0.000026 0.77373 0.07297 1.4088 0.21898 1.9051 0.16056 0.49636 0.36494 0.89052 0.61314 1.1825 0.24815 0.29198 0.52552 0.49636 0.83212 0.61314 0.32114 0.1022 0.64961 0.15329 0.9854 0.15328 0.6715 0.000008 1.2627-0.21897 1.7737-0.65693 0.51092-0.45255 0.93427-1.0584 1.2701-1.8175 0.35033-0.75911 0.6131-1.6496 0.78832-2.6715 0.17515-1.0219 0.26274-2.1022 0.26277-3.2409-0.000033-2.073-0.3139-3.9124-0.9416-5.5182-0.62777-1.6204-1.4964-2.9854-2.6058-4.0949-1.1095-1.1095-2.4307-1.9489-3.9635-2.5182-1.5183-0.58391-3.1752-0.87588-4.9708-0.87591-2.4672 0.000029-4.6424 0.40879-6.5255 1.2263-1.8832 0.80295-3.4672 1.9343-4.7518 3.3942-1.2701 1.4453-2.2336 3.1679-2.8905 5.1679-0.65694 1.9854-0.98541 4.1606-0.9854 6.5255-0.000006 2.2044 0.28466 4.1606 0.85401 5.8686 0.58394 1.708 1.4306 3.146 2.5401 4.3139 1.1241 1.1679 2.5109 2.0511 4.1606 2.6496 1.6642 0.59854 3.5693 0.89781 5.7153 0.89781 0.89049-0.000001 1.7664-0.0511 2.6277-0.15328 0.87589-0.10219 1.7153-0.24088 2.5182-0.41606 0.81749-0.17518 1.5912-0.37226 2.3212-0.59124 0.7299-0.23358 1.4087-0.47445 2.0365-0.72263v3.0876c-1.2555 0.55474-2.6716 0.9927-4.2482 1.3139-1.5767 0.32116-3.3139 0.48175-5.2117 0.48175-2.6132-0.000004-4.9489-0.37227-7.0073-1.1168-2.0438-0.74453-3.781-1.8248-5.2117-3.2409-1.4161-1.4307-2.4964-3.1679-3.2409-5.2117-0.74453-2.0584-1.1168-4.3942-1.1168-7.0073-0.000002-2.7445 0.43065-5.2993 1.292-7.6642 0.86131-2.3795 2.0876-4.4379 3.6788-6.1752 1.6058-1.7372 3.5401-3.1022 5.8029-4.0949 2.2774-0.99267 4.8248-1.489 7.6423-1.4891 2.2773 0.000032 4.3722 0.3723 6.2847 1.1168 1.9124 0.72996 3.562 1.7884 4.9489 3.1752 1.4014 1.3723 2.489 3.0511 3.2628 5.0365 0.77369 1.9708 1.1605 4.1971 1.1606 6.6788m-21.964 2.8248c-0.000015 1.9416 0.36495 3.3504 1.0949 4.2263 0.74451 0.86132 1.7372 1.292 2.9781 1.292 0.8029 0.000008 1.489-0.16058 2.0584-0.48175 0.56932-0.33576 1.0365-0.80291 1.4015-1.4015 0.36494-0.61313 0.64231-1.3358 0.83212-2.1679 0.18976-0.8467 0.31385-1.7737 0.37226-2.781l0.30657-5.5401c-0.40878-0.11677-0.89783-0.21896-1.4672-0.30657-0.55477-0.10217-1.1387-0.15326-1.7518-0.15328-1.0803 0.000021-1.9927 0.2117-2.7372 0.63504-0.72994 0.42338-1.3285 0.97812-1.7956 1.6642-0.45257 0.68615-0.78104 1.4672-0.9854 2.3431-0.20439 0.87593-0.30658 1.7664-0.30657 2.6715"/>
  </g>
  <g id="g3660" style="opacity:.25;stroke:#000;fill:none" transform="translate(0 0.5)" clip-path="url(#clipPath3674)">
   <path id="path3662" style="stroke:#000;fill:none" d="m73.036 46.007c-0.000037 0.90512-0.07303 1.8175-0.21898 2.7372-0.13142 0.90512-0.3358 1.7737-0.61314 2.6058-0.26281 0.81753-0.60587 1.584-1.0292 2.2993-0.40879 0.70074-0.89054 1.3139-1.4453 1.8394-0.55478 0.52555-1.1898 0.94161-1.9051 1.2482-0.70076 0.29198-1.4745 0.43796-2.3212 0.43796-0.65696 0.000005-1.2555-0.10948-1.7956-0.32847-0.52557-0.21897-0.97813-0.51094-1.3577-0.87591-0.37959-0.36496-0.69346-0.78102-0.94161-1.2482-0.2336-0.48174-0.39418-0.97809-0.48175-1.4891h-0.08759c-0.2628 0.54015-0.59126 1.0511-0.9854 1.5328-0.39418 0.48176-0.85404 0.90512-1.3796 1.2701-0.51097 0.35037-1.0949 0.62774-1.7518 0.83212-0.64236 0.20438-1.3504 0.30657-2.1241 0.30657-1.1241 0.000005-2.1241-0.20438-3-0.61314-0.86133-0.40875-1.5913-0.9781-2.1898-1.708-0.59855-0.74452-1.0584-1.635-1.3796-2.6715-0.30658-1.0365-0.45986-2.1825-0.45985-3.438-0.000011-1.4744 0.21167-2.8248 0.63504-4.0511 0.43794-1.2263 1.0584-2.2847 1.8613-3.1752 0.82-0.891 1.806-1.585 2.959-2.081 1.1533-0.49633 2.4452-0.7445 3.8759-0.74452 0.65691 0.000023 1.3138 0.02922 1.9708 0.08759 0.65691 0.05842 1.2846 0.13871 1.8832 0.24088 0.59852 0.10221 1.146 0.219 1.6423 0.35036 0.51092 0.11681 0.93428 0.2336 1.2701 0.35036l-0.50365 9.1095c-0.01463 0.32118-0.02922 0.58396-0.0438 0.78832-0.000026 0.18979-0.000026 0.34308 0 0.45985-0.000026 0.1168-0.000026 0.20439 0 0.26277-0.000026 0.05841-0.000026 0.1095 0 0.15328-0.000026 0.77373 0.07297 1.4088 0.21898 1.9051 0.16056 0.49636 0.36494 0.89052 0.61314 1.1825 0.24815 0.29198 0.52552 0.49636 0.83212 0.61314 0.32114 0.1022 0.64961 0.15329 0.9854 0.15328 0.6715 0.000008 1.2627-0.21897 1.7737-0.65693 0.51092-0.45255 0.93427-1.0584 1.2701-1.8175 0.35033-0.75911 0.6131-1.6496 0.78832-2.6715 0.17515-1.0219 0.26274-2.1022 0.26277-3.2409-0.000033-2.073-0.3139-3.9124-0.9416-5.5182-0.62777-1.6204-1.4964-2.9854-2.6058-4.0949-1.1095-1.1095-2.4307-1.9489-3.9635-2.5182-1.5183-0.58391-3.1752-0.87588-4.9708-0.87591-2.4672 0.000029-4.6424 0.40879-6.5255 1.2263-1.8832 0.80295-3.4672 1.9343-4.7518 3.3942-1.2701 1.4453-2.2336 3.1679-2.8905 5.1679-0.65694 1.9854-0.98541 4.1606-0.9854 6.5255-0.000006 2.2044 0.28466 4.1606 0.85401 5.8686 0.58394 1.708 1.4306 3.146 2.5401 4.3139 1.1241 1.1679 2.5109 2.0511 4.1606 2.6496 1.6642 0.59854 3.5693 0.89781 5.7153 0.89781 0.89049-0.000001 1.7664-0.0511 2.6277-0.15328 0.87589-0.10219 1.7153-0.24088 2.5182-0.41606 0.81749-0.17518 1.5912-0.37226 2.3212-0.59124 0.7299-0.23358 1.4087-0.47445 2.0365-0.72263v3.0876c-1.2555 0.55474-2.6716 0.9927-4.2482 1.3139-1.5767 0.32116-3.3139 0.48175-5.2117 0.48175-2.6132-0.000004-4.9489-0.37227-7.0073-1.1168-2.0438-0.74453-3.781-1.8248-5.2117-3.2409-1.4161-1.4307-2.4964-3.1679-3.2409-5.2117-0.74453-2.0584-1.1168-4.3942-1.1168-7.0073-0.000002-2.7445 0.43065-5.2993 1.292-7.6642 0.86131-2.3795 2.0876-4.4379 3.6788-6.1752 1.6058-1.7372 3.5401-3.1022 5.8029-4.0949 2.2774-0.99267 4.8248-1.489 7.6423-1.4891 2.2773 0.000032 4.3722 0.3723 6.2847 1.1168 1.9124 0.72996 3.562 1.7884 4.9489 3.1752 1.4014 1.3723 2.489 3.0511 3.2628 5.0365 0.77369 1.9708 1.1605 4.1971 1.1606 6.6788m-21.964 2.8248c-0.000015 1.9416 0.36495 3.3504 1.0949 4.2263 0.74451 0.86132 1.7372 1.292 2.9781 1.292 0.8029 0.000008 1.489-0.16058 2.0584-0.48175 0.56932-0.33576 1.0365-0.80291 1.4015-1.4015 0.36494-0.61313 0.64231-1.3358 0.83212-2.1679 0.18976-0.8467 0.31385-1.7737 0.37226-2.781l0.30657-5.5401c-0.40878-0.11677-0.89783-0.21896-1.4672-0.30657-0.55477-0.10217-1.1387-0.15326-1.7518-0.15328-1.0803 0.000021-1.9927 0.2117-2.7372 0.63504-0.72994 0.42338-1.3285 0.97812-1.7956 1.6642-0.45257 0.68615-0.78104 1.4672-0.9854 2.3431-0.20439 0.87593-0.30658 1.7664-0.30657 2.6715"/>
  </g>
  <path id="path3702" style="fill:#500" d="m57.375 29c-2.8175 0.000032-5.3476 0.50733-7.625 1.5-2.2628 0.99273-4.2067 2.3566-5.8125 4.0938-1.5912 1.7373-2.8262 3.7767-3.6875 6.1562-0.86132 2.365-1.2813 4.943-1.2812 7.6875 0 0.16082 0.02843 0.31003 0.03125 0.46875 0.05268-2.5417 0.44505-4.946 1.25-7.1562 0.86131-2.3795 2.0963-4.419 3.6875-6.1562 1.6058-1.7372 3.5497-3.101 5.8125-4.0938 2.2774-0.99267 4.8075-1.5 7.625-1.5 2.2773 0.000032 4.3688 0.38051 6.2812 1.125 1.9124 0.72996 3.5819 1.7694 4.9688 3.1562 1.4014 1.3723 2.4762 3.0771 3.25 5.0625 0.71362 1.8178 1.0696 3.8413 1.125 6.0938 0.004-0.146 0.031-0.295 0.031-0.439 0-2.482-0.382-4.685-1.156-6.656-0.774-1.986-1.849-3.69-3.25-5.063-1.387-1.387-3.056-2.426-4.969-3.156-1.912-0.744-4.004-1.125-6.281-1.125zm-0.46875 8.6875c-1.4307 0.000023-2.7217 0.25367-3.875 0.75-1.1533 0.49637-2.1512 1.2033-2.9688 2.0938-0.80293 0.89053-1.4058 1.93-1.8438 3.1562-0.42337 1.2263-0.65626 2.5881-0.65625 4.0625-0.000001 0.15134-0.0045 0.28934 0 0.4375 0.04739-1.2572 0.28727-2.4312 0.65625-3.5 0.43794-1.2263 1.0408-2.2657 1.8438-3.1562 0.8175-0.89049 1.8154-1.5974 2.9688-2.0938 1.1533-0.49633 2.4443-0.74998 3.875-0.75 0.65691 0.000023 1.3118 0.03538 1.9688 0.09375 0.65691 0.05842 1.2764 0.14783 1.875 0.25 0.59852 0.10221 1.1599 0.21239 1.6562 0.34375 0.48717 0.11138 0.85955 0.23241 1.1875 0.34375l0.0625-1c-0.33579-0.11677-0.73908-0.22694-1.25-0.34375-0.49638-0.13136-1.0577-0.24154-1.6562-0.34375-0.59856-0.10217-1.2181-0.19158-1.875-0.25-0.65696-0.05837-1.3118-0.09373-1.9688-0.09375zm3.1562 4.2812-0.25 4.5625c-0.05842 1.0073-0.18524 1.9345-0.375 2.7812-0.1898 0.83213-0.47881 1.5431-0.84375 2.1562-0.36498 0.59855-0.80568 1.0705-1.375 1.4062-0.56936 0.32118-1.2596 0.46876-2.0625 0.46875-1.2409 0.000008-2.2555-0.41993-3-1.2812-0.66208-0.79446-1.001-2.0475-1.0625-3.7188-0.0071 0.1673-0.03125 0.3317-0.03125 0.5-0.000015 1.9416 0.36381 3.3428 1.0938 4.2188 0.74451 0.86132 1.7591 1.2813 3 1.2812 0.8029 0.000008 1.4931-0.14758 2.0625-0.46875 0.56932-0.33576 1.01-0.8077 1.375-1.4062 0.36494-0.61313 0.65395-1.3241 0.84375-2.1562 0.18976-0.8467 0.31658-1.7739 0.375-2.7812l0.3125-5.5625c-0.01664-0.0048-0.04559 0.0047-0.0625 0zm9.7812 3.4062c-0.01889 0.98631-0.09636 1.9473-0.25 2.8438-0.17522 1.0219-0.43092 1.8971-0.78125 2.6562-0.3358 0.75913-0.77033 1.36-1.2812 1.8125-0.51098 0.43796-1.0785 0.65626-1.75 0.65625-0.3358 0.000008-0.67886-0.05405-1-0.15625-0.3066-0.11678-0.5956-0.30177-0.84375-0.59375-0.2482-0.29196-0.43319-0.69114-0.59375-1.1875-0.13743-0.46717-0.2107-1.0683-0.21875-1.7812-0.000026 0.18979-0.000026 0.35197 0 0.46875-0.000026 0.1168-0.000026 0.19162 0 0.25-0.000026 0.05841-0.000026 0.11247 0 0.15625-0.000026 0.77373 0.07274 1.4099 0.21875 1.9062 0.16056 0.49636 0.34555 0.89554 0.59375 1.1875 0.24815 0.29198 0.53715 0.47697 0.84375 0.59375 0.32114 0.1022 0.6642 0.15626 1 0.15625 0.6715 0.000008 1.239-0.21829 1.75-0.65625 0.51092-0.45255 0.94545-1.0534 1.2812-1.8125 0.35033-0.75911 0.60603-1.6343 0.78125-2.6562 0.17515-1.0219 0.28122-2.1113 0.28125-3.25-0.000003-0.20105-0.02534-0.3971-0.03125-0.59375zm-27.593 3.375c-0.0038 0.17744-0.03125 0.35162-0.03125 0.53125-0.000006 2.2044 0.30565 4.1357 0.875 5.8438 0.58394 1.708 1.4218 3.1446 2.5312 4.3125 1.1241 1.1679 2.5066 2.0577 4.1562 2.6562 1.6642 0.59854 3.5727 0.90625 5.7188 0.90625 0.89049-0.000001 1.7637-0.05407 2.625-0.15625 0.87589-0.10219 1.7283-0.23107 2.5312-0.40625 0.81749-0.17518 1.5825-0.37477 2.3125-0.59375 0.731-0.234 1.404-0.471 2.032-0.719v-1c-0.62776 0.24818-1.3014 0.48517-2.0312 0.71875-0.72995 0.21898-1.495 0.41857-2.3125 0.59375-0.80294 0.17518-1.6554 0.30406-2.5312 0.40625-0.861 0.102-1.735 0.156-2.625 0.156-2.146 0-4.055-0.308-5.719-0.906-1.649-0.599-3.032-1.489-4.156-2.656-1.109-1.168-1.947-2.605-2.531-4.313-0.528-1.582-0.805-3.367-0.844-5.375z"/>
 </g>
 <g id="layer4">
  <g id="g3799">
   <path id="path3773" style="opacity:.3;fill:url(#linearGradient3784)" d="m10 24c0-2.2091 1.7909-4 4-4s4 1.7909 4 4-1.7909 4-4 4-4-1.7909-4-4zm1 0c0 1.6569 1.3431 3 3 3s3-1.3431 3-3-1.3431-3-3-3-3 1.3431-3 3z"/>
   <path id="path3792" style="opacity:.3" d="m6 21v7h8c1.6464 0 3-1.5792 3-3.5 0-1.921-1.354-3.5-3-3.5h-8z"/>
   <path id="path3771" style="opacity:.6" d="m17 24a3 3 0 1 1 -6 0 3 3 0 1 1 6 0z"/>
   <rect id="rect3733" style="fill:url(#linearGradient3751)" rx="2" ry="2" height="4" width="12" y="22" x="4"/>
   <rect id="rect3759" style="opacity:.6;fill:url(#linearGradient3767)" rx="2" ry="2" height="4" width="12" y="22" x="4"/>
  </g>
  <use id="use3806" xlink:href="#g3799" transform="translate(0,12)" height="96" width="96" y="0" x="0"/>
  <use id="use3808" xlink:href="#g3799" transform="translate(0,24)" height="96" width="96" y="0" x="0"/>
  <use id="use3810" xlink:href="#g3799" transform="translate(0,36)" height="96" width="96" y="0" x="0"/>
  <use id="use3812" xlink:href="#g3799" transform="translate(0,48)" height="96" width="96" y="0" x="0"/>
 </g>
</svg>
