<?xml version="1.0" encoding="UTF-8" standalone="no"?>
<!-- Created with Inkscape (http://www.inkscape.org/) -->
<svg id="svg2408" xmlns:rdf="http://www.w3.org/1999/02/22-rdf-syntax-ns#" xmlns="http://www.w3.org/2000/svg" height="96" width="96" version="1.0" xmlns:cc="http://creativecommons.org/ns#" xmlns:xlink="http://www.w3.org/1999/xlink" xmlns:dc="http://purl.org/dc/elements/1.1/">
 <defs id="defs2410">
  <linearGradient id="linearGradient3637">
   <stop id="stop3639" style="stop-color:#f0f0f0" offset="0"/>
   <stop id="stop3641" style="stop-color:#aaa" offset="1"/>
  </linearGradient>
  <linearGradient id="ButtonShadow" y2="7.0165" gradientUnits="userSpaceOnUse" x2="45.448" gradientTransform="scale(1.0059 .99417)" y1="92.54" x1="45.448">
   <stop id="stop3750" offset="0"/>
   <stop id="stop3752" style="stop-opacity:.58824" offset="1"/>
  </linearGradient>
  <linearGradient id="linearGradient3737">
   <stop id="stop3739" style="stop-color:#fff" offset="0"/>
   <stop id="stop3741" style="stop-color:#fff;stop-opacity:0" offset="1"/>
  </linearGradient>
  <filter id="filter3174" color-interpolation-filters="sRGB">
   <feGaussianBlur id="feGaussianBlur3176" stdDeviation="1.71"/>
  </filter>
  <linearGradient id="linearGradient3188" y2="63.893" xlink:href="#linearGradient3737" gradientUnits="userSpaceOnUse" x2="36.357" y1="6" x1="36.357"/>
  <filter id="filter3794" height="1.384" width="1.384" color-interpolation-filters="sRGB" y="-.192" x="-.192">
   <feGaussianBlur id="feGaussianBlur3796" stdDeviation="5.28"/>
  </filter>
  <linearGradient id="linearGradient3613" y2="138.66" xlink:href="#linearGradient3737" gradientUnits="userSpaceOnUse" x2="48" y1="20.221" x1="48"/>
  <radialGradient id="radialGradient3619" xlink:href="#linearGradient3737" gradientUnits="userSpaceOnUse" cy="90.172" cx="48" gradientTransform="matrix(1.1573 0 0 .99591 -7.551 .19713)" r="42"/>
  <clipPath id="clipPath3613">
   <rect id="rect3615" style="fill:#fff" rx="6" ry="6" height="84" width="84" y="6" x="6"/>
  </clipPath>
  <linearGradient id="linearGradient2843" y2="5.9877" gradientUnits="userSpaceOnUse" x2="48" gradientTransform="translate(0,100)" y1="90" x1="48">
   <stop id="stop3702" style="stop-color:#2276c5" offset="0"/>
   <stop id="stop3704" style="stop-color:#68baf4" offset="1"/>
  </linearGradient>
  <clipPath id="clipPath3625">
   <path id="path3627" style="fill:#fff" d="m0 0v96h96v-96h-96zm12 6h72c3.324 0 6 2.676 6 6v72c0 3.324-2.676 6-6 6h-72c-3.324 0-6-2.676-6-6v-72c0-3.324 2.676-6 6-6z"/>
  </clipPath>
  <linearGradient id="linearGradient3643" y2="90.015" xlink:href="#linearGradient3637" gradientUnits="userSpaceOnUse" x2="44.512" y1="6" x1="44.512"/>
  <clipPath id="clipPath3649">
   <rect id="rect3651" style="fill:#fff" rx="4" ry="4" height="76" width="76" y="10" x="10"/>
  </clipPath>
  <filter id="filter3657" color-interpolation-filters="sRGB">
   <feGaussianBlur id="feGaussianBlur3659" stdDeviation="1.14"/>
  </filter>
  <linearGradient id="ButtonShadow-0" y2="7.0165" gradientUnits="userSpaceOnUse" x2="45.448" gradientTransform="matrix(1.0059 0 0 .99417 100 0)" y1="92.54" x1="45.448">
   <stop id="stop3750-8" offset="0"/>
   <stop id="stop3752-5" style="stop-opacity:.58824" offset="1"/>
  </linearGradient>
  <linearGradient id="linearGradient3780" y2="90.239" xlink:href="#ButtonShadow-0" gradientUnits="userSpaceOnUse" x2="32.251" gradientTransform="matrix(1.0238 0 0 -1.0119 -1.1429 98.071)" y1="6.1317" x1="32.251"/>
  <linearGradient id="linearGradient3721" y2="90.239" xlink:href="#ButtonShadow-0" gradientUnits="userSpaceOnUse" x2="32.251" gradientTransform="matrix(1,0,0,-1,0,97)" y1="6.1317" x1="32.251"/>
  <radialGradient id="radialGradient3619-3" xlink:href="#linearGradient3737" gradientUnits="userSpaceOnUse" cy="90.172" cx="48" gradientTransform="matrix(1.1573 0 0 .99591 -7.551 .19713)" r="42"/>
  <linearGradient id="linearGradient3905" y2="8" xlink:href="#linearGradient3637" gradientUnits="userSpaceOnUse" x2="120" gradientTransform="translate(-104,104)" y1="8" x1="104"/>
  <linearGradient id="linearGradient3913" y2="8" gradientUnits="userSpaceOnUse" x2="120" gradientTransform="translate(-144,104)" y1="8" x1="104">
   <stop id="stop3185-9" style="stop-color:#c80000" offset="0"/>
   <stop id="stop3187-6" style="stop-color:#f3604d" offset="1"/>
  </linearGradient>
  <linearGradient id="linearGradient4065" y2="20.237" xlink:href="#linearGradient3637" gradientUnits="userSpaceOnUse" x2="11.999" gradientTransform="matrix(2.7742 0 0 3.2616 -87.18 13.993)" y1="1.8417" x1="11.999"/>
  <linearGradient id="linearGradient3105" y2="20.237" xlink:href="#linearGradient3637" gradientUnits="userSpaceOnUse" x2="11.999" gradientTransform="matrix(2.7742 0 0 3.2616 2.8198 13.993)" y1="1.8417" x1="11.999"/>
 </defs>
 <metadata id="metadata2413">
  <rdf:RDF>
   <cc:Work rdf:about="">
    <dc:format>image/svg+xml</dc:format>
    <dc:type rdf:resource="http://purl.org/dc/dcmitype/StillImage"/>
    <dc:title/>
   </cc:Work>
  </rdf:RDF>
 </metadata>
 <g id="layer2" style="display:none">
  <rect id="rect3745" style="opacity:.9;filter:url(#filter3174);fill:url(#ButtonShadow)" clip-path="url(#clipPath3625)" rx="6" ry="6" height="85" width="86" y="7" x="5"/>
 </g>
 <g id="layer3">
  <path id="path3786" style="opacity:0.08;fill:url(#linearGradient3780)" d="m12 3.9688c-5.5111 0-10.031 4.5201-10.031 10.031v71c0 5.5111 4.5202 10.031 10.031 10.031h72c5.5111 0 10.031-4.5202 10.031-10.031v-71c0-5.5111-4.52-10.031-10.031-10.031h-72zm0 2.0312h72c3.324 0 6 2.676 6 6v72c0 3.324-2.676 6-6 6h-72c-3.324 0-6-2.676-6-6v-72c0-3.324 2.676-6 6-6z"/>
  <path id="path3778" style="opacity:.1;fill:url(#linearGradient3780)" d="m12 4.9688c-4.9716 0-9.0312 4.0596-9.0312 9.0312v71c0 4.9716 4.0596 9.0312 9.0312 9.0312h72c4.9716 0 9.0312-4.0596 9.0312-9.0312v-71c0-4.9716-4.059-9.0312-9.031-9.0312h-72zm0 1.0312h72c3.324 0 6 2.676 6 6v72c0 3.324-2.676 6-6 6h-72c-3.324 0-6-2.676-6-6v-72c0-3.324 2.676-6 6-6z"/>
  <path id="path3770" style="opacity:.2;fill:url(#linearGradient3780)" d="m11.188 6.0312c-4.028 0.4107-7.188 3.8352-7.188 7.9688v71c0 4.4091 3.5909 8 8 8h72c4.4091 0 8-3.5909 8-8v-71c0-4.1971-3.259-7.646-7.375-7.9688 3.033 0.3062 5.375 2.8526 5.375 5.9688v72c0 3.324-2.676 6-6 6h-72c-3.324 0-6-2.676-6-6v-72c0-3.1162 2.3421-5.6626 5.375-5.9688-0.06227 0.00488-0.12563-0.00631-0.1875 0z"/>
  <path id="rect3723" style="opacity:.3;fill:url(#linearGradient3780)" d="m6.4375 9.75c-0.8995 1.177-1.4375 2.647-1.4375 4.25v71c0 3.878 3.122 7 7 7h72c3.878 0 7-3.122 7-7v-71c0-1.603-0.538-3.073-1.438-4.25 0.28 0.694 0.438 1.454 0.438 2.25v72c0 3.324-2.676 6-6 6h-72c-3.324 0-6-2.676-6-6v-72c0-0.796 0.1582-1.556 0.4375-2.25z"/>
  <path id="rect3716" style="opacity:.45;fill:url(#linearGradient3721)" d="m6 84v1c0 3.324 2.676 6 6 6h72c3.324 0 6-2.676 6-6v-1c0 3.324-2.676 6-6 6h-72c-3.324 0-6-2.676-6-6z"/>
 </g>
 <g id="layer1" style="display:none">
  <rect id="rect2419" style="opacity:.8" rx="6" ry="6" height="84" width="84" y="6" x="6"/>
  <path id="rect3726" style="opacity:0.08" d="m14 10c-2.216 0-4 1.784-4 4v68c0 2.216 1.784 4 4 4h68c2.216 0 4-1.784 4-4v-68c0-2.216-1.784-4-4-4h-68zm0 3.0625h68c0.57877 0 0.9375 0.35873 0.9375 0.9375v68c0 0.57877-0.35873 0.9375-0.9375 0.9375h-68c-0.57877 0-0.9375-0.35873-0.9375-0.9375v-68c0-0.57877 0.35873-0.9375 0.9375-0.9375z"/>
  <path id="rect3629" style="fill:url(#linearGradient3643)" d="m12 6c-3.324 0-6 2.676-6 6v72c0 3.324 2.676 6 6 6h72c3.324 0 6-2.676 6-6v-72c0-3.324-2.676-6-6-6h-72zm2 4h68c2.216 0 4 1.784 4 4v68c0 2.216-1.784 4-4 4h-68c-2.216 0-4-1.784-4-4v-68c0-2.216 1.784-4 4-4z"/>
  <path id="rect3728" style="fill:url(#linearGradient3188)" d="m12 6c-3.324 0-6 2.676-6 6v2 68 2c0 0.33472 0.04135 0.6507 0.09375 0.96875 0.0487 0.2956 0.09704 0.59692 0.1875 0.875 0.00988 0.03038 0.020892 0.0636 0.03125 0.09375 0.098865 0.28777 0.23488 0.54745 0.375 0.8125 0.14459 0.27351 0.31562 0.53562 0.5 0.78125 0.18438 0.24564 0.37378 0.47347 0.59375 0.6875 0.43995 0.42806 0.94291 0.81453 1.5 1.0938 0.27854 0.13961 0.57347 0.24695 0.875 0.34375-0.2562-0.10022-0.48671-0.23627-0.71875-0.375-0.00741-0.0044-0.023866 0.0045-0.03125 0-0.031933-0.0193-0.062293-0.04251-0.09375-0.0625-0.1204-0.0767-0.23102-0.16351-0.34375-0.25-0.10617-0.0808-0.21328-0.16111-0.3125-0.25-0.1778-0.162-0.3473-0.346-0.4999-0.531-0.1075-0.131-0.2183-0.266-0.3124-0.407-0.0251-0.038-0.0385-0.086-0.0626-0.125-0.0647-0.103-0.1302-0.204-0.1874-0.312-0.1011-0.195-0.2057-0.416-0.2813-0.625-0.008-0.022-0.0236-0.041-0.0313-0.063-0.0318-0.092-0.0358-0.187-0.0624-0.281-0.0304-0.107-0.0704-0.203-0.0938-0.313-0.0729-0.341-0.125-0.698-0.125-1.062v-2-68-2c0-2.782 2.2182-5 5-5h2 68 2c2.7818 0 5 2.2182 5 5v2 68 2c0 0.3643-0.05212 0.72099-0.125 1.0625-0.04415 0.20689-0.08838 0.39766-0.15625 0.59375-0.0077 0.02195-0.0233 0.04069-0.03125 0.0625-0.06274 0.17374-0.13838 0.36745-0.21875 0.53125-0.04158 0.0828-0.07904 0.16995-0.125 0.25-0.0546 0.09721-0.12677 0.18835-0.1875 0.28125-0.09411 0.14096-0.20492 0.276-0.3125 0.40625-0.14317 0.17445-0.30314 0.347-0.46875 0.5-0.01117 0.0102-0.01998 0.02115-0.03125 0.03125-0.13839 0.12556-0.28509 0.23444-0.4375 0.34375-0.10257 0.07315-0.20432 0.15336-0.3125 0.21875-0.0074 0.0045-0.02384-0.0044-0.03125 0-0.23204 0.13873-0.46255 0.27478-0.71875 0.375 0.30153-0.0968 0.59646-0.20414 0.875-0.34375 0.55709-0.27922 1.0601-0.66569 1.5-1.0938 0.21997-0.21403 0.40937-0.44186 0.59375-0.6875s0.35541-0.50774 0.5-0.78125c0.14012-0.26505 0.27614-0.52473 0.375-0.8125 0.01041-0.03078 0.02133-0.06274 0.03125-0.09375 0.09046-0.27808 0.1388-0.5794 0.1875-0.875 0.053-0.318 0.094-0.634 0.094-0.969v-2-68-2c0-3.324-2.676-6-6-6h-72z"/>
  <path id="path3615" style="opacity:.6;fill:url(#radialGradient3619)" d="m12 90c-3.324 0-6-2.676-6-6v-2-68-2c0-0.33472 0.04135-0.6507 0.09375-0.96875 0.0487-0.2956 0.09704-0.59692 0.1875-0.875 0.0099-0.03 0.0209-0.063 0.0313-0.094 0.0989-0.2873 0.2349-0.547 0.375-0.812 0.1446-0.2735 0.3156-0.5356 0.5-0.7812 0.1844-0.2457 0.3738-0.4735 0.5937-0.6876 0.44-0.428 0.943-0.8145 1.5-1.0937 0.2786-0.1396 0.5735-0.2469 0.8748-0.3437-0.256 0.1002-0.4865 0.2362-0.7185 0.375-0.00741 0.0044-0.023866-0.0045-0.03125 0-0.031933 0.0193-0.062293 0.04251-0.09375 0.0625-0.1204 0.0767-0.23102 0.16351-0.34375 0.25-0.10617 0.0808-0.21328 0.16111-0.3125 0.25-0.1779 0.1614-0.3474 0.3453-0.5 0.5312-0.1075 0.1303-0.2183 0.2653-0.3124 0.4063-0.0251 0.0383-0.0385 0.0858-0.0626 0.125-0.0647 0.103-0.1302 0.2045-0.1874 0.3124-0.1011 0.1948-0.2057 0.4158-0.2813 0.625-0.008 0.0219-0.0236 0.0406-0.0313 0.0626-0.0318 0.0919-0.0358 0.1868-0.0624 0.2812-0.0304 0.1066-0.0704 0.203-0.0938 0.3125-0.0729 0.3415-0.125 0.6985-0.125 1.0625v2 68 2c0 2.7818 2.2182 5 5 5h2 68 2c2.7818 0 5-2.2182 5-5v-2-68-2c0-0.364-0.052-0.721-0.125-1.0625-0.044-0.2069-0.088-0.3977-0.156-0.5937-0.008-0.022-0.024-0.0407-0.031-0.0626-0.063-0.1737-0.139-0.3674-0.219-0.5312-0.042-0.0828-0.079-0.17-0.125-0.25-0.055-0.0972-0.127-0.1884-0.188-0.2812-0.094-0.141-0.205-0.276-0.312-0.4063-0.143-0.1745-0.303-0.347-0.469-0.5-0.011-0.0102-0.02-0.0211-0.031-0.0313-0.139-0.1255-0.285-0.2344-0.438-0.3437-0.102-0.0731-0.204-0.1534-0.312-0.2187-0.0074-0.0045-0.02384 0.0044-0.03125 0-0.23204-0.13873-0.46255-0.27478-0.71875-0.375 0.30153 0.0968 0.59646 0.20414 0.875 0.34375 0.55709 0.27922 1.0601 0.66569 1.5 1.0938 0.21997 0.21403 0.40937 0.44186 0.59375 0.6875s0.35541 0.50774 0.5 0.78125c0.14012 0.26505 0.27614 0.52473 0.375 0.8125 0.01041 0.03078 0.02133 0.06274 0.03125 0.09375 0.09046 0.27808 0.1388 0.5794 0.1875 0.875 0.053 0.318 0.094 0.634 0.094 0.969v2 68 2c0 3.324-2.676 6-6 6h-72z"/>
  <rect id="rect2841" style="fill:url(#linearGradient2843)" rx="6" ry="6" height="84" width="84" y="106" x="6"/>
  <rect id="rect3634" style="fill:#f00" rx="4" ry="4" height="76" width="76" y="110" x="10"/>
  <path id="rect3647" style="block-progression:tb;text-indent:0;filter:url(#filter3657);color:#000000;text-transform:none;display:inline" d="m14 9c-2.7527 0-5 2.2473-5 5v68c0 2.7527 2.2473 5 5 5h68c2.7527 0 5-2.2473 5-5v-68c0-2.753-2.247-5-5-5h-68zm0 2h68c1.6793 0 3 1.3207 3 3v68c0 1.6793-1.3207 3-3 3h-68c-1.6793 0-3-1.3207-3-3v-68c0-1.6793 1.3207-3 3-3z" clip-path="url(#clipPath3649)" transform="translate(-110)"/>
  <path id="path3709" style="opacity:0.16" d="m14.089 10c-2.216 0-4 1.784-4 4v68c0 2.216 1.784 4 4 4h68c2.216 0 4-1.784 4-4v-68c0-2.216-1.784-4-4-4h-68zm0 2h68c1.1403 0 2 0.8597 2 2v68c0 1.1403-0.8597 2-2 2h-68c-1.1403 0-2-0.8597-2-2v-68c0-1.1403 0.8597-2 2-2z"/>
  <path id="path3707" style="opacity:0.36" d="m14 10c-2.216 0-4 1.784-4 4v68c0 2.216 1.784 4 4 4h68c2.216 0 4-1.784 4-4v-68c0-2.216-1.784-4-4-4h-68zm0 1h68c1.6738 0 3 1.3262 3 3v68c0 1.6738-1.3262 3-3 3h-68c-1.6738 0-3-1.3262-3-3v-68c0-1.6738 1.3262-3 3-3z"/>
 </g>
 <g id="layer4">
  <rect id="rect2419-9" style="opacity:.6" rx="6" ry="6" height="84" width="84" y="6" x="6"/>
  <path id="rect3728-4" style="opacity:0.01;fill:url(#linearGradient3188)" d="m12 6c-3.324 0-6 2.676-6 6v2 68 2c0 0.33472 0.04135 0.6507 0.09375 0.96875 0.0487 0.2956 0.09704 0.59692 0.1875 0.875 0.00988 0.03038 0.020892 0.0636 0.03125 0.09375 0.098865 0.28777 0.23488 0.54745 0.375 0.8125 0.14459 0.27351 0.31562 0.53562 0.5 0.78125 0.18438 0.24564 0.37378 0.47347 0.59375 0.6875 0.43995 0.42806 0.94291 0.81453 1.5 1.0938 0.27854 0.13961 0.57347 0.24695 0.875 0.34375-0.2562-0.10022-0.48671-0.23627-0.71875-0.375-0.00741-0.0044-0.023866 0.0045-0.03125 0-0.031933-0.0193-0.062293-0.04251-0.09375-0.0625-0.1204-0.0767-0.23102-0.16351-0.34375-0.25-0.10617-0.0808-0.21328-0.16111-0.3125-0.25-0.1778-0.162-0.3473-0.346-0.4999-0.531-0.1075-0.131-0.2183-0.266-0.3124-0.407-0.0251-0.038-0.0385-0.086-0.0626-0.125-0.0647-0.103-0.1302-0.204-0.1874-0.312-0.1011-0.195-0.2057-0.416-0.2813-0.625-0.008-0.022-0.0236-0.041-0.0313-0.063-0.0318-0.092-0.0358-0.187-0.0624-0.281-0.0304-0.107-0.0704-0.203-0.0938-0.313-0.0729-0.341-0.125-0.698-0.125-1.062v-2-68-2c0-2.782 2.2182-5 5-5h2 68 2c2.7818 0 5 2.2182 5 5v2 68 2c0 0.3643-0.05212 0.72099-0.125 1.0625-0.04415 0.20689-0.08838 0.39766-0.15625 0.59375-0.0077 0.02195-0.0233 0.04069-0.03125 0.0625-0.06274 0.17374-0.13838 0.36745-0.21875 0.53125-0.04158 0.0828-0.07904 0.16995-0.125 0.25-0.0546 0.09721-0.12677 0.18835-0.1875 0.28125-0.09411 0.14096-0.20492 0.276-0.3125 0.40625-0.14317 0.17445-0.30314 0.347-0.46875 0.5-0.01117 0.0102-0.01998 0.02115-0.03125 0.03125-0.13839 0.12556-0.28509 0.23444-0.4375 0.34375-0.10257 0.07315-0.20432 0.15336-0.3125 0.21875-0.0074 0.0045-0.02384-0.0044-0.03125 0-0.23204 0.13873-0.46255 0.27478-0.71875 0.375 0.30153-0.0968 0.59646-0.20414 0.875-0.34375 0.55709-0.27922 1.0601-0.66569 1.5-1.0938 0.21997-0.21403 0.40937-0.44186 0.59375-0.6875s0.35541-0.50774 0.5-0.78125c0.14012-0.26505 0.27614-0.52473 0.375-0.8125 0.01041-0.03078 0.02133-0.06274 0.03125-0.09375 0.09046-0.27808 0.1388-0.5794 0.1875-0.875 0.053-0.318 0.094-0.634 0.094-0.969v-2-68-2c0-3.324-2.676-6-6-6h-72z"/>
  <path id="path3615-6" style="opacity:.15;fill:url(#radialGradient3619-3)" d="m12 90c-3.324 0-6-2.676-6-6v-2-68-2c0-0.33472 0.04135-0.6507 0.09375-0.96875 0.0487-0.2956 0.09704-0.59692 0.1875-0.875 0.0099-0.03 0.0209-0.063 0.0313-0.094 0.0989-0.2873 0.2349-0.547 0.375-0.812 0.1446-0.2735 0.3156-0.5356 0.5-0.7812 0.1844-0.2457 0.3738-0.4735 0.5937-0.6876 0.44-0.428 0.943-0.8145 1.5-1.0937 0.2786-0.1396 0.5735-0.2469 0.8748-0.3437-0.256 0.1002-0.4865 0.2362-0.7185 0.375-0.00741 0.0044-0.023866-0.0045-0.03125 0-0.031933 0.0193-0.062293 0.04251-0.09375 0.0625-0.1204 0.0767-0.23102 0.16351-0.34375 0.25-0.10617 0.0808-0.21328 0.16111-0.3125 0.25-0.1779 0.1614-0.3474 0.3453-0.5 0.5312-0.1075 0.1303-0.2183 0.2653-0.3124 0.4063-0.0251 0.0383-0.0385 0.0858-0.0626 0.125-0.0647 0.103-0.1302 0.2045-0.1874 0.3124-0.1011 0.1948-0.2057 0.4158-0.2813 0.625-0.008 0.0219-0.0236 0.0406-0.0313 0.0626-0.0318 0.0919-0.0358 0.1868-0.0624 0.2812-0.0304 0.1066-0.0704 0.203-0.0938 0.3125-0.0729 0.3415-0.125 0.6985-0.125 1.0625v2 68 2c0 2.7818 2.2182 5 5 5h2 68 2c2.7818 0 5-2.2182 5-5v-2-68-2c0-0.364-0.052-0.721-0.125-1.0625-0.044-0.2069-0.088-0.3977-0.156-0.5937-0.008-0.022-0.024-0.0407-0.031-0.0626-0.063-0.1737-0.139-0.3674-0.219-0.5312-0.042-0.0828-0.079-0.17-0.125-0.25-0.055-0.0972-0.127-0.1884-0.188-0.2812-0.094-0.141-0.205-0.276-0.312-0.4063-0.143-0.1745-0.303-0.347-0.469-0.5-0.011-0.0102-0.02-0.0211-0.031-0.0313-0.139-0.1255-0.285-0.2344-0.438-0.3437-0.102-0.0731-0.204-0.1534-0.312-0.2187-0.0074-0.0045-0.02384 0.0044-0.03125 0-0.23204-0.13873-0.46255-0.27478-0.71875-0.375 0.30153 0.0968 0.59646 0.20414 0.875 0.34375 0.55709 0.27922 1.0601 0.66569 1.5 1.0938 0.21997 0.21403 0.40937 0.44186 0.59375 0.6875s0.35541 0.50774 0.5 0.78125c0.14012 0.26505 0.27614 0.52473 0.375 0.8125 0.01041 0.03078 0.02133 0.06274 0.03125 0.09375 0.09046 0.27808 0.1388 0.5794 0.1875 0.875 0.053 0.318 0.094 0.634 0.094 0.969v2 68 2c0 3.324-2.676 6-6 6h-72z"/>
 </g>
 <g id="layer5" style="display:none">
  <rect id="rect3171" style="opacity:.1;filter:url(#filter3794);stroke:#fff;stroke-linecap:round;stroke-width:.5;fill:url(#linearGradient3613)" clip-path="url(#clipPath3613)" rx="12" ry="12" height="66" width="66" y="15" x="15"/>
 </g>
 <g id="layer6">
  <path id="path3904" style="opacity:.1" d="m42 18.938c-4.1266-0.09845-7.8156 3.4967-7.9688 7.5938-2.3576-0.89184-4.9488-0.35155-7.4221-0.5-2.4811-0.24705-5.3342 0.53455-6.303 3.098-0.46914 1.5202-0.60521 3.2971-0.18109 4.8395 0.52471 1.4558-2.7581 3.035-2.2063 5.2345-0.0067 6.019-0.04881 12.041 0.02165 18.059 0.28042 3.7767 4.0799 6.3658 7.7009 5.8941h8.3276c-0.0372 4.5752 4.3505 8.406 8.8687 7.9062h4.4438c-1.4123 0.1963-0.84673 2.3919-2.3487 1.875-2.1737 0.04324-4.3607-0.08577-6.5263 0.0625-1.8571 0.56442-1.4461 2.6951-1.4688 4.1875 0.09839 1.6525 1.9035 2.0822 3.2662 1.875h5.7338c-0.01883 1.6167 1.7368 2.2428 3.0987 2 3.8508-0.04306 7.7148 0.08529 11.558-0.0625 1.5013-0.14548 0.95392-2.4421 2.4737-1.9375 2.1737-0.04324 4.3607 0.08577 6.5263-0.0625 1.8571-0.56442 1.4461-2.6951 1.4688-4.1875-0.09839-1.6525-1.9035-2.0822-3.2662-1.875h-5.7338c0.41873-1.2175-2.4546-2.1662-0.33882-1.875 3.199-0.06667 6.8058 0.50813 9.3984-1.8461 2.537-1.9301 3.1593-5.2236 2.9404-8.2263-0.02748-11.604 0.05522-23.211-0.0418-34.812-0.3397-4.4036-4.6971-7.7448-9.0256-7.2407h-22.995zm9.0625 10.125c4.1084 0.04275 8.2307-0.08561 12.33 0.06433 0.99881 0.82621 0.36521 2.3845 0.54456 3.553v27.32c-0.30525 1.5542-2.3045 0.72859-3.4498 0.9375h-4.2064c2.4925-2.6205 1.5743-6.3242 1.75-9.5671-0.069-4.317 0.143-8.652-0.116-12.957 0.283-2.015-2.951-3.149-2.29-4.601 0.715-1.969-1.368-3.887-3.077-4.492-0.479-0.161-0.981-0.247-1.486-0.258z"/>
  <path id="path3900" style="opacity:.15" d="m42 20.062c-3.8202 0-6.9375 3.1173-6.9375 6.9375a0.92454 0.92454 0 0 0 0.938 0.938h27c1.1658 0 2.0625 0.89665 2.0625 2.0625v30c0 1.1658-0.89665 2.0625-2.0625 2.0625h-27a0.92454 0.92454 0 0 0 -0.938 0.938c0 3.8202 3.1173 6.9375 6.9375 6.9375h8.0625v2.125h-2.0625a0.92454 0.92454 0 0 0 -0.938 0.937v1.0625h-8.0625a0.92454 0.92454 0 0 0 -0.938 0.938v2a0.92454 0.92454 0 0 0 0.938 0.938h8.0625v1.0625a0.92454 0.92454 0 0 0 0.938 0.938h12a0.92454 0.92454 0 0 0 0.938 -0.938v-1.0625h8.0625a0.92454 0.92454 0 0 0 0.938 -0.938v-2a0.92454 0.92454 0 0 0 -0.938 -0.938h-8.0625v-1.0625a0.92454 0.92454 0 0 0 -0.938 -0.938h-2.0625v-2.125h8.0625c3.8202 0 6.9375-3.1173 6.9375-6.9375v-36c0-3.8202-3.1173-6.9375-6.9375-6.9375h-24zm-17.031 7.0938c-2.1582 0-3.9375 1.7793-3.9375 3.9375v1.9062a0.92454 0.92454 0 0 0 0.9375 0.9375h31.781a0.92454 0.92454 0 0 0 0.84375 -1.2812c-0.57443-1.4459-1.9691-2.5-3.625-2.5h-15.25c-0.43041-1.6993-1.9219-3-3.75-3h-7zm-0.5 7c-2.9892 0-5.4375 2.4483-5.4375 5.4375v17c0 2.9892 2.4483 5.4375 5.4375 5.4375h4.5 22.531c3.0519 0 5.3417-2.6073 5.4062-5.4062a0.92454 0.92454 0 0 0 0 -0.03125v-17c0-2.9892-2.4483-5.4375-5.4375-5.4375h-3-15-9z"/>
  <path id="path3894" style="opacity:.3" d="m42 21c-3.324 0-6 2.676-6 6h27c1.662 0 3 1.338 3 3v30c0 1.662-1.338 3-3 3h-27c0 3.324 2.676 6 6 6h9v4h-3v2h-9v2h9v2h12v-2h9v-2h-9v-2h-3v-4h9c3.324 0 6-2.676 6-6v-36c0-3.324-2.676-6-6-6h-24zm-17.031 7.0938c-1.662 0-3 1.338-3 3v1.9062h31.781c-0.44056-1.1089-1.5127-1.9062-2.7812-1.9062h-16c0-1.662-1.338-3-3-3h-7zm-0.5 7c-2.493 0-4.5 2.007-4.5 4.5v17c0 2.493 2.007 4.5 4.5 4.5h4.5 22.531c2.5135 0 4.4156-2.1958 4.4688-4.5v-17c0-2.493-2.007-4.5-4.5-4.5h-3-15-9z"/>
  <path id="path4096" style="opacity:.1" d="m-48 18.875c-4.1232-0.09762-7.7986 3.4784-8 7.5625-2.4173-0.84654-5.0481-0.32321-7.57-0.46875-3.2575-0.34826-6.0449 2.7827-5.5862 5.9642 0.08329 1.3522-0.18536 2.7815 0.28125 4.067-2.5416 1.3868-3.5633 4.3525-3.2812 7.1043 0.02236 4.7209-0.0451 9.4447 0.03441 14.164 0.28259 3.8141 4.1159 6.414 7.7655 5.9507h8.2626c0.0012 4.5848 4.4041 8.4026 8.933 7.9062h4.1608c-1.1692 0.57502-0.82277 2.3401-2.4677 1.75-2.1095 0.09055-4.2699-0.18953-6.3448 0.15625-1.7696 0.7212-1.2684 2.8706-1.2812 4.375 0.28874 1.7279 2.2081 1.8517 3.6043 1.7188 1.7671 0.04189 3.7016-0.08363 5.3644 0.0625 0.10409 1.6662 1.9111 2.1553 3.2999 1.9375 3.743-0.02102 7.492 0.04192 11.231-0.03125 1.6003 0.08188 1.1685-2.3496 2.558-1.9688 2.2771-0.09209 4.6058 0.19169 6.8483-0.15625 1.7696-0.7212 1.2684-2.8706 1.2812-4.375-0.28874-1.7279-2.2081-1.8517-3.6043-1.7188-1.7671-0.04189-3.7016 0.08363-5.3644-0.0625-0.31415-1.4224-1.7895-1.9427 0.38557-1.6875 3.0913 0.02976 6.5716 0.28491 8.9453-2.1171 2.4114-2.0079 2.8524-5.2451 2.6692-8.1898-0.02781-11.548 0.05581-23.1-0.04215-34.646-0.34388-4.4339-4.7297-7.8029-9.0899-7.2973h-22.993zm8.7812 10.25c4.1949 0.03867 8.402-0.07771 12.589 0.05884 0.94409 0.82773 0.32686 2.3533 0.50465 3.5016v27.315c-0.32094 1.486-2.2761 0.65951-3.3926 0.875h-4.0761c2.4207-2.6329 1.51-6.2944 1.6875-9.5156-0.07537-3.6859 0.16041-7.3932-0.13652-11.064 0.209-2.471-3.51-3.248-2.832-5.295 0.20531-2.6555-1.5495-5.4651-4.3438-5.875z"/>
  <path id="path4092" style="opacity:.15" d="m42 20.031c-3.8374 0-6.9688 3.1314-6.9688 6.9688a0.95659 0.95659 0 0 0 0.969 0.969h27c1.1486 0 2.0312 0.8826 2.0312 2.0312v30c0 1.1486-0.8826 2.0312-2.0312 2.0312h-11.344c2.9858-0.09329 5.2175-2.6416 5.2812-5.4062a0.95659 0.95659 0 0 0 0 -0.03125v-15c0-3.0064-2.4624-5.4688-5.4688-5.4688h-3-15-9c-3.006 0-5.468 2.462-5.468 5.469v15c0 3.0064 2.4624 5.4688 5.4688 5.4688h4.5 6.8438a0.95659 0.95659 0 0 0 -0.782 0.937c0 3.8374 3.1314 6.9688 6.9688 6.9688h8.0312v2.0625h-2.0312a0.95659 0.95659 0 0 0 -0.969 0.968v1.0312h-8.0312a0.95659 0.95659 0 0 0 -0.969 0.969v2a0.95659 0.95659 0 0 0 0.969 0.969h8.0312v1.0312a0.95659 0.95659 0 0 0 0.969 0.969h12a0.95659 0.95659 0 0 0 0.969 -0.969v-1.0312h8.0312a0.95659 0.95659 0 0 0 0.969 -0.969v-2a0.95659 0.95659 0 0 0 -0.969 -0.969h-8.0312v-1.0312a0.95659 0.95659 0 0 0 -0.969 -0.969h-2.0312v-2.0625h8.0312c3.8374 0 6.9688-3.1314 6.9688-6.9688v-36c0-3.8374-3.1314-6.9688-6.9688-6.9688h-24zm-16.031 7.094c-2.176 0-3.969 1.793-3.969 3.969v3a0.95659 0.95659 0 0 0 0.03125 0.09375 0.95659 0.95659 0 0 0 0 0.09375v0.71875a0.95659 0.95659 0 0 0 0.969 0.968h30a0.95659 0.95659 0 0 0 0.969 -0.969v-1a0.95659 0.95659 0 0 0 -0.031 -0.031c-0.00066-0.02099 0.000989-0.0416 0-0.0625a0.95659 0.95659 0 0 0 -0.063 -0.281 0.95659 0.95659 0 0 0 -0.031 -0.094c-0.283-1.905-1.896-3.406-3.875-3.406h-14.219c-0.44442-1.6981-1.9492-3-3.7812-3h-6z" transform="translate(-90)"/>
  <path id="path4086" style="opacity:.3" d="m-48 21c-3.324 0-6 2.676-6 6h27c1.662 0 3 1.338 3 3v30c0 1.662-1.338 3-3 3h-27c0 3.324 2.676 6 6 6h9v4h-3v2h-9v2h9v2h12v-2h9v-2h-9v-2h-3v-4h9c3.324 0 6-2.676 6-6v-36c0-3.324-2.676-6-6-6h-24zm-16.031 7.0938c-1.662 0-3 1.338-3 3v3h0.03125v0.90625h30v-1h-0.03125c-0.05084-1.6168-1.3704-2.9062-3-2.9062h-15c0-1.662-1.338-3-3-3h-6zm-1.5 9c-2.493 0-4.5 2.007-4.5 4.5v15c0 2.493 2.007 4.5 4.5 4.5h4.5 22.531c2.5135 0 4.4156-2.1958 4.4688-4.5v-15c0-2.493-2.007-4.5-4.5-4.5h-3-15-9z"/>
  <rect id="rect3897" style="color:#000000;fill:url(#linearGradient3905)" transform="matrix(0,1,1,0,0,0)" height="16" width="16" y="104" x="0"/>
  <text id="text3907" y="48" x="104" xml:space="preserve" style="font-size:4px;letter-spacing:0px;word-spacing:0px;font-family:Liberation Sans;line-height:125%;fill:#000000"><tspan id="tspan3909" y="48" x="104">Shadow opacity : 30, 15, 10, (8)</tspan></text>
  <rect id="rect3911" style="color:#000000;fill:url(#linearGradient3913)" transform="rotate(-90)" height="16" width="16" y="104" x="-40"/>
  <text id="text3951" y="32" x="124" xml:space="preserve" style="font-size:4px;letter-spacing:0px;word-spacing:0px;font-family:Liberation Sans;line-height:125%;fill:#000000"><tspan id="tspan3953" y="32" x="124">Bevel opacity : 30 / 10</tspan></text>
  <text id="text3955" y="8" x="124" xml:space="preserve" style="font-size:4px;letter-spacing:0px;word-spacing:0px;font-family:Liberation Sans;line-height:125%;fill:#000000"><tspan id="tspan3957" y="8" x="124">Bevel opacity : 75 / 15</tspan></text>
  <path id="path4053" style="fill:url(#linearGradient4065)" d="m-48 20c-3.324 0-6 2.676-6 6h27c1.662 0 3 1.338 3 3v30c0 1.662-1.338 3-3 3h-27c0 3.324 2.676 6 6 6h9v4h-3v2h-9v2h9v2h12v-2h9v-2h-9v-2h-3v-4h9c3.324 0 6-2.676 6-6v-36c0-3.324-2.676-6-6-6h-24zm-16.031 7.0938c-1.662 0-3 1.338-3 3v3h0.03125v0.90625h30v-1h-0.03125c-0.05084-1.6168-1.3704-2.9062-3-2.9062h-15c0-1.662-1.338-3-3-3h-6zm-1.5 9c-2.493 0-4.5 2.007-4.5 4.5v15c0 2.493 2.007 4.5 4.5 4.5h4.5 22.531c2.5135 0 4.4156-2.1958 4.4688-4.5v-15c0-2.493-2.007-4.5-4.5-4.5h-3-15-9z"/>
  <path id="path4068" style="opacity:.75;fill:#fff" d="m-48 20c-3.324 0-6 2.676-6 6h0.09375c0.47138-2.8472 2.9214-5 5.9062-5h24c3.324 0 6 2.676 6 6v-1c0-3.324-2.676-6-6-6h-24zm-16.031 7.0938c-1.662 0-3 1.338-3 3v1c0-1.662 1.338-3 3-3h6c1.662 0 3 1.338 3 3h15c1.6296 0 2.9492 1.2895 3 2.9062h0.031v-1h-0.03125c-0.05084-1.6168-1.3704-2.9062-3-2.9062h-15c0-1.662-1.338-3-3-3h-6zm-1.5 9c-2.493 0-4.5 2.007-4.5 4.5v1c0-2.493 2.007-4.5 4.5-4.5h9 15 3c2.493 0 4.5 2.007 4.5 4.5v-1c0-2.493-2.007-4.5-4.5-4.5h-3-15-9zm41.531 22.906c0 1.662-1.338 3-3 3h-27c0 0.33914 0.04019 0.67651 0.09375 1h26.906c1.662 0 3-1.338 3-3v-1zm-18 13v1h3v-1h-3zm9 0v1h3v-1h-3zm-18 2v1h9v-1h-9zm21 0v1h9v-1h-9z"/>
  <path id="path4077" style="opacity:.15" d="m-53.906 25c-0.054 0.323-0.094 0.661-0.094 1h27c1.662 0 3 1.338 3 3v-1c0-1.662-1.338-3-3-3h-26.906zm-13.125 7.0938v1h0.03125v0.90625h30v-1h-0.03125-29.969v-0.90625h-0.03125zm-3 22.5v1c0 2.493 2.007 4.5 4.5 4.5h4.5 22.531c2.5135 0 4.4156-2.1958 4.4688-4.5v-1c-0.05317 2.3042-1.9552 4.5-4.4688 4.5h-22.531-4.5c-2.493 0-4.5-2.007-4.5-4.5zm52.031 6.406c0 3.324-2.676 6-6 6h-9v1h9c3.324 0 6-2.676 6-6v-1zm-36 1c0 3.324 2.676 6 6 6h9v-1h-9c-2.9849 0-5.4349-2.1528-5.9062-5h-0.094zm3 13v1h9v-1h-9zm21 0v1h9v-1h-9zm-12 2v1h12v-1h-12z"/>
  <path id="path3096" style="fill:url(#linearGradient3105)" d="m42 20c-3.324 0-6 2.676-6 6h27c1.662 0 3 1.338 3 3v30c0 1.662-1.338 3-3 3h-27c0 3.324 2.676 6 6 6h9v4h-3v2h-9v2h9v2h12v-2h9v-2h-9v-2h-3v-4h9c3.324 0 6-2.676 6-6v-36c0-3.324-2.676-6-6-6h-24zm-17.031 7.0938c-1.662 0-3 1.338-3 3v1.9062h31.781c-0.44056-1.1089-1.5127-1.9062-2.7812-1.9062h-16c0-1.662-1.338-3-3-3h-7zm-0.5 7c-2.493 0-4.5 2.007-4.5 4.5v17c0 2.493 2.007 4.5 4.5 4.5h4.5 22.531c2.5135 0 4.4156-2.1958 4.4688-4.5v-17c0-2.493-2.007-4.5-4.5-4.5h-3-15-9z"/>
  <path id="path3108" style="opacity:.75;fill:#fff" d="m42 20c-3.324 0-6 2.676-6 6h0.09375c0.471-2.847 2.921-5 5.906-5h24c3.324 0 6 2.676 6 6v-1c0-3.324-2.676-6-6-6h-24zm-17.031 7.0938c-1.662 0-3 1.338-3 3v1c0-1.662 1.338-3 3-3h7c1.662 0 3 1.338 3 3h16c0.84041 0 1.5835 0.34758 2.125 0.90625h0.656c-0.44056-1.1089-1.5127-1.9062-2.7812-1.9062h-16c0-1.662-1.338-3-3-3h-7zm-0.5 7c-2.493 0-4.5 2.007-4.5 4.5v1c0-2.493 2.007-4.5 4.5-4.5h9 15 3c2.493 0 4.5 2.007 4.5 4.5v-1c0-2.493-2.007-4.5-4.5-4.5h-3-15-9zm41.531 24.906c0 1.662-1.338 3-3 3h-27c0 0.33914 0.04019 0.67651 0.09375 1h26.906c1.662 0 3-1.338 3-3v-1zm-18 13v1h3v-1h-3zm9 0v1h3v-1h-3zm-18 2v1h9v-1h-9zm21 0v1h9v-1h-9z"/>
  <path id="path3117" style="opacity:.15" d="m36.094 25c-0.054 0.323-0.094 0.661-0.094 1h27c1.662 0 3 1.338 3 3v-1c0-1.662-1.338-3-3-3h-26.906zm-14.125 6v1h31.781c-0.14869-0.37427-0.38041-0.7154-0.65625-1h-31.125zm-2 23.594v1c0 2.493 2.007 4.5 4.5 4.5h4.5 22.531c2.5135 0 4.4156-2.1958 4.4688-4.5v-1c-0.05317 2.3042-1.9552 4.5-4.4688 4.5h-22.531-4.5c-2.493 0-4.5-2.007-4.5-4.5zm52.031 6.406c0 3.324-2.676 6-6 6h-9v1h9c3.324 0 6-2.676 6-6v-1zm-36 1c0 3.324 2.676 6 6 6h9v-1h-9c-2.9849 0-5.4349-2.1528-5.9062-5h-0.094zm3 13v1h9v-1h-9zm21 0v1h9v-1h-9zm-12 2v1h12v-1h-12z"/>
 </g>
</svg>
