<?xml version="1.0" encoding="UTF-8" standalone="no"?>
<!-- Created with Inkscape (http://www.inkscape.org/) -->
<svg id="svg2408" xmlns:rdf="http://www.w3.org/1999/02/22-rdf-syntax-ns#" xmlns="http://www.w3.org/2000/svg" height="96" width="96" version="1.0" xmlns:cc="http://creativecommons.org/ns#" xmlns:xlink="http://www.w3.org/1999/xlink" xmlns:dc="http://purl.org/dc/elements/1.1/">
 <defs id="defs2410">
  <linearGradient id="linearGradient3637">
   <stop id="stop3639" style="stop-color:#f0f0f0" offset="0"/>
   <stop id="stop3641" style="stop-color:#aaa" offset="1"/>
  </linearGradient>
  <linearGradient id="ButtonShadow" y2="7.0165" gradientUnits="userSpaceOnUse" x2="45.448" gradientTransform="scale(1.0059 .99417)" y1="92.54" x1="45.448">
   <stop id="stop3750" offset="0"/>
   <stop id="stop3752" style="stop-opacity:.58824" offset="1"/>
  </linearGradient>
  <linearGradient id="linearGradient3737">
   <stop id="stop3739" style="stop-color:#fff" offset="0"/>
   <stop id="stop3741" style="stop-color:#fff;stop-opacity:0" offset="1"/>
  </linearGradient>
  <filter id="filter3174" color-interpolation-filters="sRGB">
   <feGaussianBlur id="feGaussianBlur3176" stdDeviation="1.71"/>
  </filter>
  <linearGradient id="linearGradient3188" y2="63.893" xlink:href="#linearGradient3737" gradientUnits="userSpaceOnUse" x2="36.357" y1="6" x1="36.357"/>
  <filter id="filter3794" height="1.384" width="1.384" color-interpolation-filters="sRGB" y="-.192" x="-.192">
   <feGaussianBlur id="feGaussianBlur3796" stdDeviation="5.28"/>
  </filter>
  <linearGradient id="linearGradient3613" y2="138.66" xlink:href="#linearGradient3737" gradientUnits="userSpaceOnUse" x2="48" y1="20.221" x1="48"/>
  <radialGradient id="radialGradient3619" xlink:href="#linearGradient3737" gradientUnits="userSpaceOnUse" cy="90.172" cx="48" gradientTransform="matrix(1.1573 0 0 .99591 -7.551 .19713)" r="42"/>
  <clipPath id="clipPath3613">
   <rect id="rect3615" style="fill:#fff" rx="6" ry="6" height="84" width="84" y="6" x="6"/>
  </clipPath>
  <linearGradient id="linearGradient2843" y2="5.9877" gradientUnits="userSpaceOnUse" x2="48" gradientTransform="translate(0,100)" y1="90" x1="48">
   <stop id="stop3702" style="stop-color:#2276c5" offset="0"/>
   <stop id="stop3704" style="stop-color:#68baf4" offset="1"/>
  </linearGradient>
  <clipPath id="clipPath3625">
   <path id="path3627" style="fill:#fff" d="m0 0v96h96v-96h-96zm12 6h72c3.324 0 6 2.676 6 6v72c0 3.324-2.676 6-6 6h-72c-3.324 0-6-2.676-6-6v-72c0-3.324 2.676-6 6-6z"/>
  </clipPath>
  <linearGradient id="linearGradient3643" y2="90.015" xlink:href="#linearGradient3637" gradientUnits="userSpaceOnUse" x2="44.512" y1="6" x1="44.512"/>
  <clipPath id="clipPath3649">
   <rect id="rect3651" style="fill:#fff" rx="4" ry="4" height="76" width="76" y="10" x="10"/>
  </clipPath>
  <filter id="filter3657" color-interpolation-filters="sRGB">
   <feGaussianBlur id="feGaussianBlur3659" stdDeviation="1.14"/>
  </filter>
  <linearGradient id="ButtonShadow-0" y2="7.0165" gradientUnits="userSpaceOnUse" x2="45.448" gradientTransform="matrix(1.0059 0 0 .99417 100 0)" y1="92.54" x1="45.448">
   <stop id="stop3750-8" offset="0"/>
   <stop id="stop3752-5" style="stop-opacity:.58824" offset="1"/>
  </linearGradient>
  <linearGradient id="linearGradient3780" y2="90.239" xlink:href="#ButtonShadow-0" gradientUnits="userSpaceOnUse" x2="32.251" gradientTransform="matrix(1.0238 0 0 -1.0119 -1.1429 98.071)" y1="6.1317" x1="32.251"/>
  <linearGradient id="linearGradient3721" y2="90.239" xlink:href="#ButtonShadow-0" gradientUnits="userSpaceOnUse" x2="32.251" gradientTransform="matrix(1,0,0,-1,0,97)" y1="6.1317" x1="32.251"/>
  <radialGradient id="radialGradient3619-3" xlink:href="#linearGradient3737" gradientUnits="userSpaceOnUse" cy="90.172" cx="48" gradientTransform="matrix(1.1573 0 0 .99591 -7.551 .19713)" r="42"/>
  <linearGradient id="linearGradient3905" y2="8" xlink:href="#linearGradient3637" gradientUnits="userSpaceOnUse" x2="120" gradientTransform="translate(-104,104)" y1="8" x1="104"/>
  <linearGradient id="linearGradient3913" y2="8" gradientUnits="userSpaceOnUse" x2="120" gradientTransform="translate(-144,104)" y1="8" x1="104">
   <stop id="stop3185-9" style="stop-color:#c80000" offset="0"/>
   <stop id="stop3187-6" style="stop-color:#f3604d" offset="1"/>
  </linearGradient>
  <linearGradient id="linearGradient7313" y2="349.29" xlink:href="#linearGradient3637" gradientUnits="userSpaceOnUse" x2="627.67" gradientTransform="matrix(.11587 -1.9518 1.9734 .11454 -711.1 1256.8)" y1="347.86" x1="652.02"/>
 </defs>
 <metadata id="metadata2413">
  <rdf:RDF>
   <cc:Work rdf:about="">
    <dc:format>image/svg+xml</dc:format>
    <dc:type rdf:resource="http://purl.org/dc/dcmitype/StillImage"/>
    <dc:title/>
   </cc:Work>
  </rdf:RDF>
 </metadata>
 <g id="layer2" style="display:none">
  <rect id="rect3745" style="opacity:.9;filter:url(#filter3174);fill:url(#ButtonShadow)" clip-path="url(#clipPath3625)" rx="6" ry="6" height="85" width="86" y="7" x="5"/>
 </g>
 <g id="layer3">
  <path id="path3786" style="opacity:0.08;fill:url(#linearGradient3780)" d="m12 3.9688c-5.5111 0-10.031 4.5201-10.031 10.031v71c0 5.5111 4.5202 10.031 10.031 10.031h72c5.5111 0 10.031-4.5202 10.031-10.031v-71c0-5.5111-4.52-10.031-10.031-10.031h-72zm0 2.0312h72c3.324 0 6 2.676 6 6v72c0 3.324-2.676 6-6 6h-72c-3.324 0-6-2.676-6-6v-72c0-3.324 2.676-6 6-6z"/>
  <path id="path3778" style="opacity:.1;fill:url(#linearGradient3780)" d="m12 4.9688c-4.9716 0-9.0312 4.0596-9.0312 9.0312v71c0 4.9716 4.0596 9.0312 9.0312 9.0312h72c4.9716 0 9.0312-4.0596 9.0312-9.0312v-71c0-4.9716-4.059-9.0312-9.031-9.0312h-72zm0 1.0312h72c3.324 0 6 2.676 6 6v72c0 3.324-2.676 6-6 6h-72c-3.324 0-6-2.676-6-6v-72c0-3.324 2.676-6 6-6z"/>
  <path id="path3770" style="opacity:.2;fill:url(#linearGradient3780)" d="m11.188 6.0312c-4.028 0.4107-7.188 3.8352-7.188 7.9688v71c0 4.4091 3.5909 8 8 8h72c4.4091 0 8-3.5909 8-8v-71c0-4.1971-3.259-7.646-7.375-7.9688 3.033 0.3062 5.375 2.8526 5.375 5.9688v72c0 3.324-2.676 6-6 6h-72c-3.324 0-6-2.676-6-6v-72c0-3.1162 2.3421-5.6626 5.375-5.9688-0.06227 0.00488-0.12563-0.00631-0.1875 0z"/>
  <path id="rect3723" style="opacity:.3;fill:url(#linearGradient3780)" d="m6.4375 9.75c-0.8995 1.177-1.4375 2.647-1.4375 4.25v71c0 3.878 3.122 7 7 7h72c3.878 0 7-3.122 7-7v-71c0-1.603-0.538-3.073-1.438-4.25 0.28 0.694 0.438 1.454 0.438 2.25v72c0 3.324-2.676 6-6 6h-72c-3.324 0-6-2.676-6-6v-72c0-0.796 0.1582-1.556 0.4375-2.25z"/>
  <path id="rect3716" style="opacity:.45;fill:url(#linearGradient3721)" d="m6 84v1c0 3.324 2.676 6 6 6h72c3.324 0 6-2.676 6-6v-1c0 3.324-2.676 6-6 6h-72c-3.324 0-6-2.676-6-6z"/>
 </g>
 <g id="layer1" style="display:none">
  <rect id="rect2419" style="opacity:.8" rx="6" ry="6" height="84" width="84" y="6" x="6"/>
  <path id="rect3726" style="opacity:0.08" d="m14 10c-2.216 0-4 1.784-4 4v68c0 2.216 1.784 4 4 4h68c2.216 0 4-1.784 4-4v-68c0-2.216-1.784-4-4-4h-68zm0 3.0625h68c0.57877 0 0.9375 0.35873 0.9375 0.9375v68c0 0.57877-0.35873 0.9375-0.9375 0.9375h-68c-0.57877 0-0.9375-0.35873-0.9375-0.9375v-68c0-0.57877 0.35873-0.9375 0.9375-0.9375z"/>
  <path id="rect3629" style="fill:url(#linearGradient3643)" d="m12 6c-3.324 0-6 2.676-6 6v72c0 3.324 2.676 6 6 6h72c3.324 0 6-2.676 6-6v-72c0-3.324-2.676-6-6-6h-72zm2 4h68c2.216 0 4 1.784 4 4v68c0 2.216-1.784 4-4 4h-68c-2.216 0-4-1.784-4-4v-68c0-2.216 1.784-4 4-4z"/>
  <path id="rect3728" style="fill:url(#linearGradient3188)" d="m12 6c-3.324 0-6 2.676-6 6v2 68 2c0 0.33472 0.04135 0.6507 0.09375 0.96875 0.0487 0.2956 0.09704 0.59692 0.1875 0.875 0.00988 0.03038 0.020892 0.0636 0.03125 0.09375 0.098865 0.28777 0.23488 0.54745 0.375 0.8125 0.14459 0.27351 0.31562 0.53562 0.5 0.78125 0.18438 0.24564 0.37378 0.47347 0.59375 0.6875 0.43995 0.42806 0.94291 0.81453 1.5 1.0938 0.27854 0.13961 0.57347 0.24695 0.875 0.34375-0.2562-0.10022-0.48671-0.23627-0.71875-0.375-0.00741-0.0044-0.023866 0.0045-0.03125 0-0.031933-0.0193-0.062293-0.04251-0.09375-0.0625-0.1204-0.0767-0.23102-0.16351-0.34375-0.25-0.10617-0.0808-0.21328-0.16111-0.3125-0.25-0.1778-0.162-0.3473-0.346-0.4999-0.531-0.1075-0.131-0.2183-0.266-0.3124-0.407-0.0251-0.038-0.0385-0.086-0.0626-0.125-0.0647-0.103-0.1302-0.204-0.1874-0.312-0.1011-0.195-0.2057-0.416-0.2813-0.625-0.008-0.022-0.0236-0.041-0.0313-0.063-0.0318-0.092-0.0358-0.187-0.0624-0.281-0.0304-0.107-0.0704-0.203-0.0938-0.313-0.0729-0.341-0.125-0.698-0.125-1.062v-2-68-2c0-2.782 2.2182-5 5-5h2 68 2c2.7818 0 5 2.2182 5 5v2 68 2c0 0.3643-0.05212 0.72099-0.125 1.0625-0.04415 0.20689-0.08838 0.39766-0.15625 0.59375-0.0077 0.02195-0.0233 0.04069-0.03125 0.0625-0.06274 0.17374-0.13838 0.36745-0.21875 0.53125-0.04158 0.0828-0.07904 0.16995-0.125 0.25-0.0546 0.09721-0.12677 0.18835-0.1875 0.28125-0.09411 0.14096-0.20492 0.276-0.3125 0.40625-0.14317 0.17445-0.30314 0.347-0.46875 0.5-0.01117 0.0102-0.01998 0.02115-0.03125 0.03125-0.13839 0.12556-0.28509 0.23444-0.4375 0.34375-0.10257 0.07315-0.20432 0.15336-0.3125 0.21875-0.0074 0.0045-0.02384-0.0044-0.03125 0-0.23204 0.13873-0.46255 0.27478-0.71875 0.375 0.30153-0.0968 0.59646-0.20414 0.875-0.34375 0.55709-0.27922 1.0601-0.66569 1.5-1.0938 0.21997-0.21403 0.40937-0.44186 0.59375-0.6875s0.35541-0.50774 0.5-0.78125c0.14012-0.26505 0.27614-0.52473 0.375-0.8125 0.01041-0.03078 0.02133-0.06274 0.03125-0.09375 0.09046-0.27808 0.1388-0.5794 0.1875-0.875 0.053-0.318 0.094-0.634 0.094-0.969v-2-68-2c0-3.324-2.676-6-6-6h-72z"/>
  <path id="path3615" style="opacity:.6;fill:url(#radialGradient3619)" d="m12 90c-3.324 0-6-2.676-6-6v-2-68-2c0-0.33472 0.04135-0.6507 0.09375-0.96875 0.0487-0.2956 0.09704-0.59692 0.1875-0.875 0.0099-0.03 0.0209-0.063 0.0313-0.094 0.0989-0.2873 0.2349-0.547 0.375-0.812 0.1446-0.2735 0.3156-0.5356 0.5-0.7812 0.1844-0.2457 0.3738-0.4735 0.5937-0.6876 0.44-0.428 0.943-0.8145 1.5-1.0937 0.2786-0.1396 0.5735-0.2469 0.8748-0.3437-0.256 0.1002-0.4865 0.2362-0.7185 0.375-0.00741 0.0044-0.023866-0.0045-0.03125 0-0.031933 0.0193-0.062293 0.04251-0.09375 0.0625-0.1204 0.0767-0.23102 0.16351-0.34375 0.25-0.10617 0.0808-0.21328 0.16111-0.3125 0.25-0.1779 0.1614-0.3474 0.3453-0.5 0.5312-0.1075 0.1303-0.2183 0.2653-0.3124 0.4063-0.0251 0.0383-0.0385 0.0858-0.0626 0.125-0.0647 0.103-0.1302 0.2045-0.1874 0.3124-0.1011 0.1948-0.2057 0.4158-0.2813 0.625-0.008 0.0219-0.0236 0.0406-0.0313 0.0626-0.0318 0.0919-0.0358 0.1868-0.0624 0.2812-0.0304 0.1066-0.0704 0.203-0.0938 0.3125-0.0729 0.3415-0.125 0.6985-0.125 1.0625v2 68 2c0 2.7818 2.2182 5 5 5h2 68 2c2.7818 0 5-2.2182 5-5v-2-68-2c0-0.364-0.052-0.721-0.125-1.0625-0.044-0.2069-0.088-0.3977-0.156-0.5937-0.008-0.022-0.024-0.0407-0.031-0.0626-0.063-0.1737-0.139-0.3674-0.219-0.5312-0.042-0.0828-0.079-0.17-0.125-0.25-0.055-0.0972-0.127-0.1884-0.188-0.2812-0.094-0.141-0.205-0.276-0.312-0.4063-0.143-0.1745-0.303-0.347-0.469-0.5-0.011-0.0102-0.02-0.0211-0.031-0.0313-0.139-0.1255-0.285-0.2344-0.438-0.3437-0.102-0.0731-0.204-0.1534-0.312-0.2187-0.0074-0.0045-0.02384 0.0044-0.03125 0-0.23204-0.13873-0.46255-0.27478-0.71875-0.375 0.30153 0.0968 0.59646 0.20414 0.875 0.34375 0.55709 0.27922 1.0601 0.66569 1.5 1.0938 0.21997 0.21403 0.40937 0.44186 0.59375 0.6875s0.35541 0.50774 0.5 0.78125c0.14012 0.26505 0.27614 0.52473 0.375 0.8125 0.01041 0.03078 0.02133 0.06274 0.03125 0.09375 0.09046 0.27808 0.1388 0.5794 0.1875 0.875 0.053 0.318 0.094 0.634 0.094 0.969v2 68 2c0 3.324-2.676 6-6 6h-72z"/>
  <rect id="rect2841" style="fill:url(#linearGradient2843)" rx="6" ry="6" height="84" width="84" y="106" x="6"/>
  <rect id="rect3634" style="fill:#f00" rx="4" ry="4" height="76" width="76" y="110" x="10"/>
  <path id="rect3647" style="block-progression:tb;text-indent:0;filter:url(#filter3657);color:#000000;text-transform:none;display:inline" d="m14 9c-2.7527 0-5 2.2473-5 5v68c0 2.7527 2.2473 5 5 5h68c2.7527 0 5-2.2473 5-5v-68c0-2.753-2.247-5-5-5h-68zm0 2h68c1.6793 0 3 1.3207 3 3v68c0 1.6793-1.3207 3-3 3h-68c-1.6793 0-3-1.3207-3-3v-68c0-1.6793 1.3207-3 3-3z" clip-path="url(#clipPath3649)" transform="translate(-110)"/>
  <path id="path3709" style="opacity:0.16" d="m14.089 10c-2.216 0-4 1.784-4 4v68c0 2.216 1.784 4 4 4h68c2.216 0 4-1.784 4-4v-68c0-2.216-1.784-4-4-4h-68zm0 2h68c1.1403 0 2 0.8597 2 2v68c0 1.1403-0.8597 2-2 2h-68c-1.1403 0-2-0.8597-2-2v-68c0-1.1403 0.8597-2 2-2z"/>
  <path id="path3707" style="opacity:0.36" d="m14 10c-2.216 0-4 1.784-4 4v68c0 2.216 1.784 4 4 4h68c2.216 0 4-1.784 4-4v-68c0-2.216-1.784-4-4-4h-68zm0 1h68c1.6738 0 3 1.3262 3 3v68c0 1.6738-1.3262 3-3 3h-68c-1.6738 0-3-1.3262-3-3v-68c0-1.6738 1.3262-3 3-3z"/>
 </g>
 <g id="layer4">
  <rect id="rect2419-9" style="opacity:.6" rx="6" ry="6" height="84" width="84" y="6" x="6"/>
  <path id="rect3728-4" style="opacity:0.01;fill:url(#linearGradient3188)" d="m12 6c-3.324 0-6 2.676-6 6v2 68 2c0 0.33472 0.04135 0.6507 0.09375 0.96875 0.0487 0.2956 0.09704 0.59692 0.1875 0.875 0.00988 0.03038 0.020892 0.0636 0.03125 0.09375 0.098865 0.28777 0.23488 0.54745 0.375 0.8125 0.14459 0.27351 0.31562 0.53562 0.5 0.78125 0.18438 0.24564 0.37378 0.47347 0.59375 0.6875 0.43995 0.42806 0.94291 0.81453 1.5 1.0938 0.27854 0.13961 0.57347 0.24695 0.875 0.34375-0.2562-0.10022-0.48671-0.23627-0.71875-0.375-0.00741-0.0044-0.023866 0.0045-0.03125 0-0.031933-0.0193-0.062293-0.04251-0.09375-0.0625-0.1204-0.0767-0.23102-0.16351-0.34375-0.25-0.10617-0.0808-0.21328-0.16111-0.3125-0.25-0.1778-0.162-0.3473-0.346-0.4999-0.531-0.1075-0.131-0.2183-0.266-0.3124-0.407-0.0251-0.038-0.0385-0.086-0.0626-0.125-0.0647-0.103-0.1302-0.204-0.1874-0.312-0.1011-0.195-0.2057-0.416-0.2813-0.625-0.008-0.022-0.0236-0.041-0.0313-0.063-0.0318-0.092-0.0358-0.187-0.0624-0.281-0.0304-0.107-0.0704-0.203-0.0938-0.313-0.0729-0.341-0.125-0.698-0.125-1.062v-2-68-2c0-2.782 2.2182-5 5-5h2 68 2c2.7818 0 5 2.2182 5 5v2 68 2c0 0.3643-0.05212 0.72099-0.125 1.0625-0.04415 0.20689-0.08838 0.39766-0.15625 0.59375-0.0077 0.02195-0.0233 0.04069-0.03125 0.0625-0.06274 0.17374-0.13838 0.36745-0.21875 0.53125-0.04158 0.0828-0.07904 0.16995-0.125 0.25-0.0546 0.09721-0.12677 0.18835-0.1875 0.28125-0.09411 0.14096-0.20492 0.276-0.3125 0.40625-0.14317 0.17445-0.30314 0.347-0.46875 0.5-0.01117 0.0102-0.01998 0.02115-0.03125 0.03125-0.13839 0.12556-0.28509 0.23444-0.4375 0.34375-0.10257 0.07315-0.20432 0.15336-0.3125 0.21875-0.0074 0.0045-0.02384-0.0044-0.03125 0-0.23204 0.13873-0.46255 0.27478-0.71875 0.375 0.30153-0.0968 0.59646-0.20414 0.875-0.34375 0.55709-0.27922 1.0601-0.66569 1.5-1.0938 0.21997-0.21403 0.40937-0.44186 0.59375-0.6875s0.35541-0.50774 0.5-0.78125c0.14012-0.26505 0.27614-0.52473 0.375-0.8125 0.01041-0.03078 0.02133-0.06274 0.03125-0.09375 0.09046-0.27808 0.1388-0.5794 0.1875-0.875 0.053-0.318 0.094-0.634 0.094-0.969v-2-68-2c0-3.324-2.676-6-6-6h-72z"/>
  <path id="path3615-6" style="opacity:.15;fill:url(#radialGradient3619-3)" d="m12 90c-3.324 0-6-2.676-6-6v-2-68-2c0-0.33472 0.04135-0.6507 0.09375-0.96875 0.0487-0.2956 0.09704-0.59692 0.1875-0.875 0.0099-0.03 0.0209-0.063 0.0313-0.094 0.0989-0.2873 0.2349-0.547 0.375-0.812 0.1446-0.2735 0.3156-0.5356 0.5-0.7812 0.1844-0.2457 0.3738-0.4735 0.5937-0.6876 0.44-0.428 0.943-0.8145 1.5-1.0937 0.2786-0.1396 0.5735-0.2469 0.8748-0.3437-0.256 0.1002-0.4865 0.2362-0.7185 0.375-0.00741 0.0044-0.023866-0.0045-0.03125 0-0.031933 0.0193-0.062293 0.04251-0.09375 0.0625-0.1204 0.0767-0.23102 0.16351-0.34375 0.25-0.10617 0.0808-0.21328 0.16111-0.3125 0.25-0.1779 0.1614-0.3474 0.3453-0.5 0.5312-0.1075 0.1303-0.2183 0.2653-0.3124 0.4063-0.0251 0.0383-0.0385 0.0858-0.0626 0.125-0.0647 0.103-0.1302 0.2045-0.1874 0.3124-0.1011 0.1948-0.2057 0.4158-0.2813 0.625-0.008 0.0219-0.0236 0.0406-0.0313 0.0626-0.0318 0.0919-0.0358 0.1868-0.0624 0.2812-0.0304 0.1066-0.0704 0.203-0.0938 0.3125-0.0729 0.3415-0.125 0.6985-0.125 1.0625v2 68 2c0 2.7818 2.2182 5 5 5h2 68 2c2.7818 0 5-2.2182 5-5v-2-68-2c0-0.364-0.052-0.721-0.125-1.0625-0.044-0.2069-0.088-0.3977-0.156-0.5937-0.008-0.022-0.024-0.0407-0.031-0.0626-0.063-0.1737-0.139-0.3674-0.219-0.5312-0.042-0.0828-0.079-0.17-0.125-0.25-0.055-0.0972-0.127-0.1884-0.188-0.2812-0.094-0.141-0.205-0.276-0.312-0.4063-0.143-0.1745-0.303-0.347-0.469-0.5-0.011-0.0102-0.02-0.0211-0.031-0.0313-0.139-0.1255-0.285-0.2344-0.438-0.3437-0.102-0.0731-0.204-0.1534-0.312-0.2187-0.0074-0.0045-0.02384 0.0044-0.03125 0-0.23204-0.13873-0.46255-0.27478-0.71875-0.375 0.30153 0.0968 0.59646 0.20414 0.875 0.34375 0.55709 0.27922 1.0601 0.66569 1.5 1.0938 0.21997 0.21403 0.40937 0.44186 0.59375 0.6875s0.35541 0.50774 0.5 0.78125c0.14012 0.26505 0.27614 0.52473 0.375 0.8125 0.01041 0.03078 0.02133 0.06274 0.03125 0.09375 0.09046 0.27808 0.1388 0.5794 0.1875 0.875 0.053 0.318 0.094 0.634 0.094 0.969v2 68 2c0 3.324-2.676 6-6 6h-72z"/>
 </g>
 <g id="layer5" style="display:none">
  <rect id="rect3171" style="opacity:.1;filter:url(#filter3794);stroke:#fff;stroke-linecap:round;stroke-width:.5;fill:url(#linearGradient3613)" clip-path="url(#clipPath3613)" rx="12" ry="12" height="66" width="66" y="15" x="15"/>
 </g>
 <g id="layer6">
  <path id="path3896" style="opacity:.1" d="m62.188 23c-0.31453-0.01039-0.62611 0.02282-0.9375 0.0625-0.26296 0.03351-0.8206 0.11096-1.3125 0.46875-0.29791 0.21669-0.49264 0.47362-0.5625 0.5625-0.12624 0.16062-0.22834 0.32782-0.34375 0.5-0.23384 0.34888-0.51333 0.79288-0.75 1.2188-0.40764 0.7333-1.653 2.9867-2.8125 5.0312-1.2398 2.1861-1.8802 3.2957-2.25 4.1562-0.17365 0.40409-0.38521 0.89366-0.375 1.5 0.01017 0.60383 0.22754 1.0374 0.3125 1.2188 0.22632 0.48306 0.52678 0.85322 0.8125 1.1875 0.31284 0.36601 0.69131 0.71918 1.0938 1.125 0.82352 0.83044 1.828 1.75 2.8125 2.5625 0.65826 0.54334 0.93134 0.86551 1 0.9375-0.03357 0.0924-0.05538 0.19718-0.09375 0.28125-0.16918 0.37071-0.3984 0.85339-0.6875 1.375-0.59144 1.0671-1.4023 2.3571-2.1562 3.4375-2.9072 4.1662-6.5328 7.3764-11.25 9.9375-0.57721 0.31334-0.99814 0.52238-1.25 0.625-0.09687 0.03947 0.02184 0.02436-0.03125 0.03125-0.16485-0.13036-0.42803-0.38584-0.84375-0.8125-0.89264-0.91613-1.8992-1.7408-2.8125-2.375-0.8578-0.59564-1.7003-1.2113-2.9062-1.2812-0.3628-0.02106-0.70589 0.053-0.75 0.0625-0.14299 0.03081-0.25019 0.05179-0.40625 0.09375-0.32073 0.08624-0.74786 0.23109-1.2188 0.375-0.94618 0.28915-2.1353 0.68177-3.375 1.0938-2.4936 0.82871-5.0775 1.7233-6.3125 2.25-0.82103 0.3502-1.8164 0.93274-2.2812 2.0625-0.40425 0.9824-0.43741 1.9343-0.46875 3.2812-0.02445 1.0506-0.01713 1.7439 0.0625 2.4062 0.08704 0.72398 0.33914 1.2873 0.59375 1.7812 2.0076 3.8951 6.9219 6.5067 11.781 6.7812 2.2335 0.12691 3.7766-0.09607 6.4375-0.9375 5.8799-1.8594 11.534-5.2087 17.219-10.062 3.6547-3.1204 5.6661-5.1843 7.75-7.875 1.8476-2.3855 4.1432-6.3004 5.2812-9.0625 0.40395-0.98038 0.98629-2.5525 1.5-4.0625 0.5105-1.5005 0.94718-2.7837 1.125-3.5938 0.5528-2.5212 0.09141-6.0736-0.875-8.625-0.471-1.246-1.216-2.495-2.062-3.596-0.834-1.085-1.724-2.036-2.813-2.656-1.122-0.639-2.555-0.982-3.906-1.219-0.671-0.118-1.312-0.229-1.937-0.25z"/>
  <path id="path3892" style="opacity:.15" d="m62.156 24c-0.27291-0.009-0.53342-0.000333-0.78125 0.03125-0.24783 0.03158-0.51181 0.07106-0.84375 0.3125-0.22588 0.1643-0.27318 0.24544-0.375 0.375s-0.20374 0.27524-0.3125 0.4375c-0.21751 0.32451-0.46626 0.72688-0.6875 1.125-0.40981 0.7372-1.682 3.014-2.8438 5.0625-1.2404 2.1871-1.8626 3.2751-2.1875 4.0312-0.16246 0.37807-0.28764 0.71422-0.28125 1.0938 0.0064 0.37953 0.1408 0.67734 0.21875 0.84375 0.16957 0.36193 0.37449 0.60786 0.65625 0.9375s0.63362 0.69278 1.0312 1.0938c0.79526 0.80194 1.7922 1.7095 2.75 2.5 0.773 0.63804 1.1739 1.0454 1.3125 1.25 0.13862 0.20456 0.14702 0.19173 0.125 0.5625 0.01261-0.21249-0.07578 0.18075-0.25 0.5625s-0.41175 0.8836-0.71875 1.4375c-0.614 1.1078-1.4451 2.4225-2.2188 3.5312-2.9921 4.2878-6.7572 7.6241-11.594 10.25-1.1951 0.64878-1.7347 0.83277-1.9062 0.8125-0.17154-0.02027-0.54088-0.26813-1.4062-1.1562-0.84196-0.86412-1.7964-1.6529-2.6562-2.25-0.85986-0.59707-1.4917-1.0407-2.4062-1.0938-0.30706-0.01782-0.35058 0.0058-0.46875 0.03125-0.11817 0.02546-0.22192 0.05259-0.375 0.09375-0.30616 0.08232-0.72648 0.20286-1.1875 0.34375-0.92203 0.28178-2.1008 0.68069-3.3438 1.0938-2.4858 0.82612-5.1106 1.7328-6.25 2.2188-0.71466 0.30483-1.4324 0.75936-1.75 1.5312-0.31762 0.77189-0.34374 1.594-0.375 2.9375-0.0244 1.0486-0.0361 1.6897 0.03125 2.25 0.06735 0.56025 0.26391 1.0107 0.5 1.4688 1.775 3.4438 6.4353 5.9626 10.969 6.2188 2.1588 0.12267 3.4533-0.04994 6.0625-0.875 5.7283-1.8115 11.265-5.0853 16.875-9.875 3.6296-3.099 5.5809-5.0795 7.625-7.7188 1.7657-2.2797 4.0742-6.2176 5.1562-8.8438 0.38753-0.94054 0.96016-2.5051 1.4688-4 0.50859-1.4949 0.94468-2.8209 1.0938-3.5 0.47816-2.1807 0.04383-5.7192-0.84375-8.0625-0.429-1.13-1.115-2.313-1.907-3.343-0.791-1.03-1.626-1.891-2.531-2.407-0.924-0.526-2.262-0.865-3.562-1.093-0.65-0.114-1.267-0.201-1.813-0.219z"/>
  <path id="path3886" style="opacity:.3" d="m71.845 38.905c-0.22769 1.0372-1.7738 5.5692-2.5098 7.3555-1.0224 2.4815-3.3301 6.4531-5.0089 8.6207-2.0062 2.5903-3.8849 4.4881-7.4898 7.566-5.5339 4.7249-10.985 7.9082-16.563 9.6721-2.5707 0.81291-3.5813 0.96325-5.6751 0.84427-4.1817-0.23627-8.6368-2.7275-10.157-5.6764-0.43116-0.83654-0.47513-1.1726-0.42655-3.26 0.06179-2.6556 0.22687-3.0436 1.5287-3.5989 2.0795-0.88679 10.685-3.7519 11.182-3.7231 0.8206 0.04763 2.8133 1.4361 4.4039 3.0686 1.7658 1.8123 2.0549 1.8463 4.4824 0.52853 4.9572-2.6914 8.876-6.155 11.953-10.565 1.5964-2.2876 3.3058-5.3684 3.345-6.0283 0.05566-0.93738-0.19803-1.3103-1.7767-2.6134-1.8553-1.5313-3.8718-3.5579-4.1669-4.1877-0.30077-0.64208-0.27547-0.70024 2.2042-5.0727 1.1624-2.0497 2.4541-4.3396 2.8705-5.0888 0.41635-0.7492 0.90854-1.4723 1.0937-1.6071 0.60409-0.4394 4.5348 0.22827 5.8909 1.0009 1.3762 0.78387 3.2817 3.2713 4.0404 5.2743 0.79023 2.0863 1.1673 5.716 0.77826 7.4904z"/>
  <rect id="rect3897" style="color:#000000;fill:url(#linearGradient3905)" transform="matrix(0,1,1,0,0,0)" height="16" width="16" y="104" x="0"/>
  <text id="text3907" y="48" x="104" xml:space="preserve" style="font-size:4px;letter-spacing:0px;word-spacing:0px;font-family:Liberation Sans;line-height:125%;fill:#000000"><tspan id="tspan3909" y="48" x="104">Shadow opacity : 30, 15, 10, (8)</tspan></text>
  <rect id="rect3911" style="color:#000000;fill:url(#linearGradient3913)" transform="rotate(-90)" height="16" width="16" y="104" x="-40"/>
  <text id="text3951" y="32" x="124" xml:space="preserve" style="font-size:4px;letter-spacing:0px;word-spacing:0px;font-family:Liberation Sans;line-height:125%;fill:#000000"><tspan id="tspan3953" y="32" x="124">Bevel opacity : 30 / 10</tspan></text>
  <text id="text3955" y="8" x="124" xml:space="preserve" style="font-size:4px;letter-spacing:0px;word-spacing:0px;font-family:Liberation Sans;line-height:125%;fill:#000000"><tspan id="tspan3957" y="8" x="124">Bevel opacity : 75 / 15</tspan></text>
  <path id="path4609" style="fill:url(#linearGradient7313)" d="m71.845 37.905c-0.22769 1.0372-1.7738 5.5692-2.5098 7.3555-1.0224 2.4815-3.3301 6.4531-5.0089 8.6207-2.0062 2.5903-3.8849 4.4881-7.4898 7.566-5.5339 4.7249-10.985 7.9082-16.563 9.6721-2.5707 0.81291-3.5813 0.96325-5.6751 0.84427-4.1817-0.23627-8.6368-2.7275-10.157-5.6764-0.43116-0.83654-0.47513-1.1726-0.42655-3.26 0.06179-2.6556 0.22687-3.0436 1.5287-3.5989 2.0795-0.88679 10.685-3.7519 11.182-3.7231 0.8206 0.04763 2.8133 1.4361 4.4039 3.0686 1.7658 1.8123 2.0549 1.8463 4.4824 0.52853 4.9572-2.6914 8.876-6.155 11.953-10.565 1.5964-2.2876 3.3058-5.3684 3.345-6.0283 0.05566-0.93738-0.19803-1.3103-1.7767-2.6134-1.8553-1.5313-3.8718-3.5579-4.1669-4.1877-0.30077-0.64208-0.27547-0.70024 2.2042-5.0727 1.1624-2.0497 2.4541-4.3396 2.8705-5.0888 0.41635-0.7492 0.90854-1.4723 1.0937-1.6071 0.60409-0.4394 4.5348 0.22827 5.8909 1.0009 1.3762 0.78387 3.2817 3.2713 4.0404 5.2743 0.79023 2.0863 1.1673 5.716 0.77826 7.4904z"/>
  <path id="path3868" style="opacity:.75;fill:#fff" d="m62.125 24c-0.47464-0.01288-0.84898 0.01515-1 0.125-0.18521 0.13472-0.6774 0.8758-1.0938 1.625-0.41644 0.74914-1.7126 3.0441-2.875 5.0938-2.4797 4.3725-2.4883 4.4204-2.1875 5.0625 0.24282-0.61636 0.84859-1.7016 2.1875-4.0625 1.1624-2.0497 2.4586-4.3446 2.875-5.0938 0.41635-0.7492 0.90854-1.4903 1.0938-1.625 0.60409-0.4394 4.5501 0.25865 5.9062 1.0312 1.3762 0.78387 3.2726 3.247 4.0312 5.25 0.53846 1.4216 0.86311 3.5642 0.90625 5.3438 0.09847-1.9115-0.2606-4.6392-0.90625-6.3438-0.75869-2.003-2.6551-4.4661-4.0312-5.25-1.017-0.579-3.482-1.117-4.906-1.156zm-1.2812 18.969c-0.29702 0.97439-1.8292 3.7004-3.2812 5.7812-3.0773 4.41-6.9803 7.8711-11.938 10.562-2.4276 1.3178-2.7342 1.281-4.5-0.53125-1.5906-1.6325-3.5856-3.0149-4.4062-3.0625-0.49722-0.02886-9.108 2.832-11.188 3.7188-1.3019 0.55529-1.4382 0.93819-1.5 3.5938-0.0159 0.683-0.01424 1.1444 0 1.5312 0.0027-0.18116-0.005-0.315 0-0.53125 0.06179-2.6556 0.19814-3.0385 1.5-3.5938 2.0795-0.88679 10.69-3.7476 11.188-3.7188 0.8206 0.04763 2.8157 1.43 4.4062 3.0625 1.7658 1.8123 2.0724 1.8491 4.5 0.53125 4.9572-2.6914 8.8602-6.1525 11.938-10.562 1.5964-2.2876 3.3046-5.3714 3.3438-6.0312 0.01693-0.28512 0.0064-0.52727-0.0625-0.75z"/>
  <path id="path3877" style="opacity:.15" d="m54.969 34.906c-0.20689 0.52515-0.13837 0.70461 0 1 0.29506 0.62978 2.3009 2.6562 4.1562 4.1875 1.0985 0.90673 1.5611 1.3655 1.7188 1.875 0.02951-0.09682 0.05896-0.19036 0.0625-0.25 0.05566-0.93738-0.20254-1.3219-1.7812-2.625-1.8553-1.5313-3.8612-3.5577-4.1562-4.1875zm17 0.84375c-0.02205 0.42805-0.05382 0.8316-0.125 1.1562-0.22769 1.0372-1.764 5.5574-2.5 7.3438-1.0224 2.4815-3.3525 6.4574-5.0312 8.625-2.0062 2.5903-3.8638 4.4846-7.4688 7.5625-5.5339 4.7249-10.985 7.9236-16.562 9.6875-2.5707 0.81291-3.5936 0.96273-5.6875 0.84375-4.1817-0.23627-8.6363-2.7387-10.156-5.6875-0.29008-0.56282-0.37696-0.92326-0.40625-1.7188-0.02352 1.5675 0.01976 1.9689 0.40625 2.7188 1.5199 2.9488 5.9746 5.4512 10.156 5.6875 2.0939 0.11898 3.1168-0.03084 5.6875-0.84375 5.5777-1.7639 11.029-4.9626 16.562-9.6875 3.6049-3.0779 5.4625-4.9722 7.4688-7.5625 1.6788-2.1676 4.0088-6.1435 5.0312-8.625 0.73602-1.7863 2.2723-6.3065 2.5-7.3438 0.12396-0.56535 0.14517-1.3242 0.125-2.1562z"/>
 </g>
</svg>
