<?xml version="1.0" encoding="UTF-8" standalone="no"?>
<!-- Created with Inkscape (http://www.inkscape.org/) -->
<svg id="svg2408" xmlns:rdf="http://www.w3.org/1999/02/22-rdf-syntax-ns#" xmlns="http://www.w3.org/2000/svg" height="96" width="96" version="1.0" xmlns:cc="http://creativecommons.org/ns#" xmlns:xlink="http://www.w3.org/1999/xlink" xmlns:dc="http://purl.org/dc/elements/1.1/">
 <defs id="defs2410">
  <linearGradient id="linearGradient3637">
   <stop id="stop3639" style="stop-color:#f0f0f0" offset="0"/>
   <stop id="stop3641" style="stop-color:#aaa" offset="1"/>
  </linearGradient>
  <linearGradient id="ButtonShadow" y2="7.0165" gradientUnits="userSpaceOnUse" x2="45.448" gradientTransform="scale(1.0059 .99417)" y1="92.54" x1="45.448">
   <stop id="stop3750" offset="0"/>
   <stop id="stop3752" style="stop-opacity:.58824" offset="1"/>
  </linearGradient>
  <linearGradient id="linearGradient3737">
   <stop id="stop3739" style="stop-color:#fff" offset="0"/>
   <stop id="stop3741" style="stop-color:#fff;stop-opacity:0" offset="1"/>
  </linearGradient>
  <filter id="filter3174" color-interpolation-filters="sRGB">
   <feGaussianBlur id="feGaussianBlur3176" stdDeviation="1.71"/>
  </filter>
  <linearGradient id="linearGradient3188" y2="63.893" xlink:href="#linearGradient3737" gradientUnits="userSpaceOnUse" x2="36.357" y1="6" x1="36.357"/>
  <filter id="filter3794" height="1.384" width="1.384" color-interpolation-filters="sRGB" y="-.192" x="-.192">
   <feGaussianBlur id="feGaussianBlur3796" stdDeviation="5.28"/>
  </filter>
  <linearGradient id="linearGradient3613" y2="138.66" xlink:href="#linearGradient3737" gradientUnits="userSpaceOnUse" x2="48" y1="20.221" x1="48"/>
  <radialGradient id="radialGradient3619" xlink:href="#linearGradient3737" gradientUnits="userSpaceOnUse" cy="90.172" cx="48" gradientTransform="matrix(1.1573 0 0 .99591 -7.551 .19713)" r="42"/>
  <clipPath id="clipPath3613">
   <rect id="rect3615" style="fill:#fff" rx="6" ry="6" height="84" width="84" y="6" x="6"/>
  </clipPath>
  <linearGradient id="linearGradient2843" y2="5.9877" gradientUnits="userSpaceOnUse" x2="48" gradientTransform="translate(0,100)" y1="90" x1="48">
   <stop id="stop3702" style="stop-color:#2276c5" offset="0"/>
   <stop id="stop3704" style="stop-color:#68baf4" offset="1"/>
  </linearGradient>
  <clipPath id="clipPath3625">
   <path id="path3627" style="fill:#fff" d="m0 0v96h96v-96h-96zm12 6h72c3.324 0 6 2.676 6 6v72c0 3.324-2.676 6-6 6h-72c-3.324 0-6-2.676-6-6v-72c0-3.324 2.676-6 6-6z"/>
  </clipPath>
  <linearGradient id="linearGradient3643" y2="90.015" xlink:href="#linearGradient3637" gradientUnits="userSpaceOnUse" x2="44.512" y1="6" x1="44.512"/>
  <clipPath id="clipPath3649">
   <rect id="rect3651" style="fill:#fff" rx="4" ry="4" height="76" width="76" y="10" x="10"/>
  </clipPath>
  <filter id="filter3657" color-interpolation-filters="sRGB">
   <feGaussianBlur id="feGaussianBlur3659" stdDeviation="1.14"/>
  </filter>
  <linearGradient id="ButtonShadow-0" y2="7.0165" gradientUnits="userSpaceOnUse" x2="45.448" gradientTransform="matrix(1.0059 0 0 .99417 100 0)" y1="92.54" x1="45.448">
   <stop id="stop3750-8" offset="0"/>
   <stop id="stop3752-5" style="stop-opacity:.58824" offset="1"/>
  </linearGradient>
  <linearGradient id="linearGradient3780" y2="90.239" xlink:href="#ButtonShadow-0" gradientUnits="userSpaceOnUse" x2="32.251" gradientTransform="matrix(1.0238 0 0 -1.0119 -1.1429 98.071)" y1="6.1317" x1="32.251"/>
  <linearGradient id="linearGradient3721" y2="90.239" xlink:href="#ButtonShadow-0" gradientUnits="userSpaceOnUse" x2="32.251" gradientTransform="matrix(1,0,0,-1,0,97)" y1="6.1317" x1="32.251"/>
  <radialGradient id="radialGradient3619-3" xlink:href="#linearGradient3737" gradientUnits="userSpaceOnUse" cy="90.172" cx="48" gradientTransform="matrix(1.1573 0 0 .99591 -7.551 .19713)" r="42"/>
  <linearGradient id="linearGradient3905" y2="8" xlink:href="#linearGradient3637" gradientUnits="userSpaceOnUse" x2="120" gradientTransform="translate(-104,104)" y1="8" x1="104"/>
  <linearGradient id="linearGradient3913" y2="8" gradientUnits="userSpaceOnUse" x2="120" gradientTransform="translate(-144,104)" y1="8" x1="104">
   <stop id="stop3185-9" style="stop-color:#c80000" offset="0"/>
   <stop id="stop3187-6" style="stop-color:#f3604d" offset="1"/>
  </linearGradient>
  <linearGradient id="linearGradient3133" y2="20.283" xlink:href="#linearGradient3637" gradientUnits="userSpaceOnUse" x2="11.999" gradientTransform="matrix(2.7659 0 0 3.254 10 10)" y1="5.5317" x1="11.999"/>
 </defs>
 <metadata id="metadata2413">
  <rdf:RDF>
   <cc:Work rdf:about="">
    <dc:format>image/svg+xml</dc:format>
    <dc:type rdf:resource="http://purl.org/dc/dcmitype/StillImage"/>
    <dc:title/>
   </cc:Work>
  </rdf:RDF>
 </metadata>
 <g id="layer2" style="display:none">
  <rect id="rect3745" style="opacity:.9;filter:url(#filter3174);fill:url(#ButtonShadow)" clip-path="url(#clipPath3625)" rx="6" ry="6" height="85" width="86" y="7" x="5"/>
 </g>
 <g id="layer3">
  <path id="path3786" style="opacity:0.08;fill:url(#linearGradient3780)" d="m12 3.9688c-5.5111 0-10.031 4.5201-10.031 10.031v71c0 5.5111 4.5202 10.031 10.031 10.031h72c5.5111 0 10.031-4.5202 10.031-10.031v-71c0-5.5111-4.52-10.031-10.031-10.031h-72zm0 2.0312h72c3.324 0 6 2.676 6 6v72c0 3.324-2.676 6-6 6h-72c-3.324 0-6-2.676-6-6v-72c0-3.324 2.676-6 6-6z"/>
  <path id="path3778" style="opacity:.1;fill:url(#linearGradient3780)" d="m12 4.9688c-4.9716 0-9.0312 4.0596-9.0312 9.0312v71c0 4.9716 4.0596 9.0312 9.0312 9.0312h72c4.9716 0 9.0312-4.0596 9.0312-9.0312v-71c0-4.9716-4.059-9.0312-9.031-9.0312h-72zm0 1.0312h72c3.324 0 6 2.676 6 6v72c0 3.324-2.676 6-6 6h-72c-3.324 0-6-2.676-6-6v-72c0-3.324 2.676-6 6-6z"/>
  <path id="path3770" style="opacity:.2;fill:url(#linearGradient3780)" d="m11.188 6.0312c-4.028 0.4107-7.188 3.8352-7.188 7.9688v71c0 4.4091 3.5909 8 8 8h72c4.4091 0 8-3.5909 8-8v-71c0-4.1971-3.259-7.646-7.375-7.9688 3.033 0.3062 5.375 2.8526 5.375 5.9688v72c0 3.324-2.676 6-6 6h-72c-3.324 0-6-2.676-6-6v-72c0-3.1162 2.3421-5.6626 5.375-5.9688-0.06227 0.00488-0.12563-0.00631-0.1875 0z"/>
  <path id="rect3723" style="opacity:.3;fill:url(#linearGradient3780)" d="m6.4375 9.75c-0.8995 1.177-1.4375 2.647-1.4375 4.25v71c0 3.878 3.122 7 7 7h72c3.878 0 7-3.122 7-7v-71c0-1.603-0.538-3.073-1.438-4.25 0.28 0.694 0.438 1.454 0.438 2.25v72c0 3.324-2.676 6-6 6h-72c-3.324 0-6-2.676-6-6v-72c0-0.796 0.1582-1.556 0.4375-2.25z"/>
  <path id="rect3716" style="opacity:.45;fill:url(#linearGradient3721)" d="m6 84v1c0 3.324 2.676 6 6 6h72c3.324 0 6-2.676 6-6v-1c0 3.324-2.676 6-6 6h-72c-3.324 0-6-2.676-6-6z"/>
 </g>
 <g id="layer1" style="display:none">
  <rect id="rect2419" style="opacity:.8" rx="6" ry="6" height="84" width="84" y="6" x="6"/>
  <path id="rect3726" style="opacity:0.08" d="m14 10c-2.216 0-4 1.784-4 4v68c0 2.216 1.784 4 4 4h68c2.216 0 4-1.784 4-4v-68c0-2.216-1.784-4-4-4h-68zm0 3.0625h68c0.57877 0 0.9375 0.35873 0.9375 0.9375v68c0 0.57877-0.35873 0.9375-0.9375 0.9375h-68c-0.57877 0-0.9375-0.35873-0.9375-0.9375v-68c0-0.57877 0.35873-0.9375 0.9375-0.9375z"/>
  <path id="rect3629" style="fill:url(#linearGradient3643)" d="m12 6c-3.324 0-6 2.676-6 6v72c0 3.324 2.676 6 6 6h72c3.324 0 6-2.676 6-6v-72c0-3.324-2.676-6-6-6h-72zm2 4h68c2.216 0 4 1.784 4 4v68c0 2.216-1.784 4-4 4h-68c-2.216 0-4-1.784-4-4v-68c0-2.216 1.784-4 4-4z"/>
  <path id="rect3728" style="fill:url(#linearGradient3188)" d="m12 6c-3.324 0-6 2.676-6 6v2 68 2c0 0.33472 0.04135 0.6507 0.09375 0.96875 0.0487 0.2956 0.09704 0.59692 0.1875 0.875 0.00988 0.03038 0.020892 0.0636 0.03125 0.09375 0.098865 0.28777 0.23488 0.54745 0.375 0.8125 0.14459 0.27351 0.31562 0.53562 0.5 0.78125 0.18438 0.24564 0.37378 0.47347 0.59375 0.6875 0.43995 0.42806 0.94291 0.81453 1.5 1.0938 0.27854 0.13961 0.57347 0.24695 0.875 0.34375-0.2562-0.10022-0.48671-0.23627-0.71875-0.375-0.00741-0.0044-0.023866 0.0045-0.03125 0-0.031933-0.0193-0.062293-0.04251-0.09375-0.0625-0.1204-0.0767-0.23102-0.16351-0.34375-0.25-0.10617-0.0808-0.21328-0.16111-0.3125-0.25-0.1778-0.162-0.3473-0.346-0.4999-0.531-0.1075-0.131-0.2183-0.266-0.3124-0.407-0.0251-0.038-0.0385-0.086-0.0626-0.125-0.0647-0.103-0.1302-0.204-0.1874-0.312-0.1011-0.195-0.2057-0.416-0.2813-0.625-0.008-0.022-0.0236-0.041-0.0313-0.063-0.0318-0.092-0.0358-0.187-0.0624-0.281-0.0304-0.107-0.0704-0.203-0.0938-0.313-0.0729-0.341-0.125-0.698-0.125-1.062v-2-68-2c0-2.782 2.2182-5 5-5h2 68 2c2.7818 0 5 2.2182 5 5v2 68 2c0 0.3643-0.05212 0.72099-0.125 1.0625-0.04415 0.20689-0.08838 0.39766-0.15625 0.59375-0.0077 0.02195-0.0233 0.04069-0.03125 0.0625-0.06274 0.17374-0.13838 0.36745-0.21875 0.53125-0.04158 0.0828-0.07904 0.16995-0.125 0.25-0.0546 0.09721-0.12677 0.18835-0.1875 0.28125-0.09411 0.14096-0.20492 0.276-0.3125 0.40625-0.14317 0.17445-0.30314 0.347-0.46875 0.5-0.01117 0.0102-0.01998 0.02115-0.03125 0.03125-0.13839 0.12556-0.28509 0.23444-0.4375 0.34375-0.10257 0.07315-0.20432 0.15336-0.3125 0.21875-0.0074 0.0045-0.02384-0.0044-0.03125 0-0.23204 0.13873-0.46255 0.27478-0.71875 0.375 0.30153-0.0968 0.59646-0.20414 0.875-0.34375 0.55709-0.27922 1.0601-0.66569 1.5-1.0938 0.21997-0.21403 0.40937-0.44186 0.59375-0.6875s0.35541-0.50774 0.5-0.78125c0.14012-0.26505 0.27614-0.52473 0.375-0.8125 0.01041-0.03078 0.02133-0.06274 0.03125-0.09375 0.09046-0.27808 0.1388-0.5794 0.1875-0.875 0.053-0.318 0.094-0.634 0.094-0.969v-2-68-2c0-3.324-2.676-6-6-6h-72z"/>
  <path id="path3615" style="opacity:.6;fill:url(#radialGradient3619)" d="m12 90c-3.324 0-6-2.676-6-6v-2-68-2c0-0.33472 0.04135-0.6507 0.09375-0.96875 0.0487-0.2956 0.09704-0.59692 0.1875-0.875 0.0099-0.03 0.0209-0.063 0.0313-0.094 0.0989-0.2873 0.2349-0.547 0.375-0.812 0.1446-0.2735 0.3156-0.5356 0.5-0.7812 0.1844-0.2457 0.3738-0.4735 0.5937-0.6876 0.44-0.428 0.943-0.8145 1.5-1.0937 0.2786-0.1396 0.5735-0.2469 0.8748-0.3437-0.256 0.1002-0.4865 0.2362-0.7185 0.375-0.00741 0.0044-0.023866-0.0045-0.03125 0-0.031933 0.0193-0.062293 0.04251-0.09375 0.0625-0.1204 0.0767-0.23102 0.16351-0.34375 0.25-0.10617 0.0808-0.21328 0.16111-0.3125 0.25-0.1779 0.1614-0.3474 0.3453-0.5 0.5312-0.1075 0.1303-0.2183 0.2653-0.3124 0.4063-0.0251 0.0383-0.0385 0.0858-0.0626 0.125-0.0647 0.103-0.1302 0.2045-0.1874 0.3124-0.1011 0.1948-0.2057 0.4158-0.2813 0.625-0.008 0.0219-0.0236 0.0406-0.0313 0.0626-0.0318 0.0919-0.0358 0.1868-0.0624 0.2812-0.0304 0.1066-0.0704 0.203-0.0938 0.3125-0.0729 0.3415-0.125 0.6985-0.125 1.0625v2 68 2c0 2.7818 2.2182 5 5 5h2 68 2c2.7818 0 5-2.2182 5-5v-2-68-2c0-0.364-0.052-0.721-0.125-1.0625-0.044-0.2069-0.088-0.3977-0.156-0.5937-0.008-0.022-0.024-0.0407-0.031-0.0626-0.063-0.1737-0.139-0.3674-0.219-0.5312-0.042-0.0828-0.079-0.17-0.125-0.25-0.055-0.0972-0.127-0.1884-0.188-0.2812-0.094-0.141-0.205-0.276-0.312-0.4063-0.143-0.1745-0.303-0.347-0.469-0.5-0.011-0.0102-0.02-0.0211-0.031-0.0313-0.139-0.1255-0.285-0.2344-0.438-0.3437-0.102-0.0731-0.204-0.1534-0.312-0.2187-0.0074-0.0045-0.02384 0.0044-0.03125 0-0.23204-0.13873-0.46255-0.27478-0.71875-0.375 0.30153 0.0968 0.59646 0.20414 0.875 0.34375 0.55709 0.27922 1.0601 0.66569 1.5 1.0938 0.21997 0.21403 0.40937 0.44186 0.59375 0.6875s0.35541 0.50774 0.5 0.78125c0.14012 0.26505 0.27614 0.52473 0.375 0.8125 0.01041 0.03078 0.02133 0.06274 0.03125 0.09375 0.09046 0.27808 0.1388 0.5794 0.1875 0.875 0.053 0.318 0.094 0.634 0.094 0.969v2 68 2c0 3.324-2.676 6-6 6h-72z"/>
  <rect id="rect2841" style="fill:url(#linearGradient2843)" rx="6" ry="6" height="84" width="84" y="106" x="6"/>
  <rect id="rect3634" style="fill:#f00" rx="4" ry="4" height="76" width="76" y="110" x="10"/>
  <path id="rect3647" style="block-progression:tb;text-indent:0;filter:url(#filter3657);color:#000000;text-transform:none;display:inline" d="m14 9c-2.7527 0-5 2.2473-5 5v68c0 2.7527 2.2473 5 5 5h68c2.7527 0 5-2.2473 5-5v-68c0-2.753-2.247-5-5-5h-68zm0 2h68c1.6793 0 3 1.3207 3 3v68c0 1.6793-1.3207 3-3 3h-68c-1.6793 0-3-1.3207-3-3v-68c0-1.6793 1.3207-3 3-3z" clip-path="url(#clipPath3649)" transform="translate(-110)"/>
  <path id="path3709" style="opacity:0.16" d="m14.089 10c-2.216 0-4 1.784-4 4v68c0 2.216 1.784 4 4 4h68c2.216 0 4-1.784 4-4v-68c0-2.216-1.784-4-4-4h-68zm0 2h68c1.1403 0 2 0.8597 2 2v68c0 1.1403-0.8597 2-2 2h-68c-1.1403 0-2-0.8597-2-2v-68c0-1.1403 0.8597-2 2-2z"/>
  <path id="path3707" style="opacity:0.36" d="m14 10c-2.216 0-4 1.784-4 4v68c0 2.216 1.784 4 4 4h68c2.216 0 4-1.784 4-4v-68c0-2.216-1.784-4-4-4h-68zm0 1h68c1.6738 0 3 1.3262 3 3v68c0 1.6738-1.3262 3-3 3h-68c-1.6738 0-3-1.3262-3-3v-68c0-1.6738 1.3262-3 3-3z"/>
 </g>
 <g id="layer4">
  <rect id="rect2419-9" style="opacity:.6" rx="6" ry="6" height="84" width="84" y="6" x="6"/>
  <path id="rect3728-4" style="opacity:0.01;fill:url(#linearGradient3188)" d="m12 6c-3.324 0-6 2.676-6 6v2 68 2c0 0.33472 0.04135 0.6507 0.09375 0.96875 0.0487 0.2956 0.09704 0.59692 0.1875 0.875 0.00988 0.03038 0.020892 0.0636 0.03125 0.09375 0.098865 0.28777 0.23488 0.54745 0.375 0.8125 0.14459 0.27351 0.31562 0.53562 0.5 0.78125 0.18438 0.24564 0.37378 0.47347 0.59375 0.6875 0.43995 0.42806 0.94291 0.81453 1.5 1.0938 0.27854 0.13961 0.57347 0.24695 0.875 0.34375-0.2562-0.10022-0.48671-0.23627-0.71875-0.375-0.00741-0.0044-0.023866 0.0045-0.03125 0-0.031933-0.0193-0.062293-0.04251-0.09375-0.0625-0.1204-0.0767-0.23102-0.16351-0.34375-0.25-0.10617-0.0808-0.21328-0.16111-0.3125-0.25-0.1778-0.162-0.3473-0.346-0.4999-0.531-0.1075-0.131-0.2183-0.266-0.3124-0.407-0.0251-0.038-0.0385-0.086-0.0626-0.125-0.0647-0.103-0.1302-0.204-0.1874-0.312-0.1011-0.195-0.2057-0.416-0.2813-0.625-0.008-0.022-0.0236-0.041-0.0313-0.063-0.0318-0.092-0.0358-0.187-0.0624-0.281-0.0304-0.107-0.0704-0.203-0.0938-0.313-0.0729-0.341-0.125-0.698-0.125-1.062v-2-68-2c0-2.782 2.2182-5 5-5h2 68 2c2.7818 0 5 2.2182 5 5v2 68 2c0 0.3643-0.05212 0.72099-0.125 1.0625-0.04415 0.20689-0.08838 0.39766-0.15625 0.59375-0.0077 0.02195-0.0233 0.04069-0.03125 0.0625-0.06274 0.17374-0.13838 0.36745-0.21875 0.53125-0.04158 0.0828-0.07904 0.16995-0.125 0.25-0.0546 0.09721-0.12677 0.18835-0.1875 0.28125-0.09411 0.14096-0.20492 0.276-0.3125 0.40625-0.14317 0.17445-0.30314 0.347-0.46875 0.5-0.01117 0.0102-0.01998 0.02115-0.03125 0.03125-0.13839 0.12556-0.28509 0.23444-0.4375 0.34375-0.10257 0.07315-0.20432 0.15336-0.3125 0.21875-0.0074 0.0045-0.02384-0.0044-0.03125 0-0.23204 0.13873-0.46255 0.27478-0.71875 0.375 0.30153-0.0968 0.59646-0.20414 0.875-0.34375 0.55709-0.27922 1.0601-0.66569 1.5-1.0938 0.21997-0.21403 0.40937-0.44186 0.59375-0.6875s0.35541-0.50774 0.5-0.78125c0.14012-0.26505 0.27614-0.52473 0.375-0.8125 0.01041-0.03078 0.02133-0.06274 0.03125-0.09375 0.09046-0.27808 0.1388-0.5794 0.1875-0.875 0.053-0.318 0.094-0.634 0.094-0.969v-2-68-2c0-3.324-2.676-6-6-6h-72z"/>
  <path id="path3615-6" style="opacity:.15;fill:url(#radialGradient3619-3)" d="m12 90c-3.324 0-6-2.676-6-6v-2-68-2c0-0.33472 0.04135-0.6507 0.09375-0.96875 0.0487-0.2956 0.09704-0.59692 0.1875-0.875 0.0099-0.03 0.0209-0.063 0.0313-0.094 0.0989-0.2873 0.2349-0.547 0.375-0.812 0.1446-0.2735 0.3156-0.5356 0.5-0.7812 0.1844-0.2457 0.3738-0.4735 0.5937-0.6876 0.44-0.428 0.943-0.8145 1.5-1.0937 0.2786-0.1396 0.5735-0.2469 0.8748-0.3437-0.256 0.1002-0.4865 0.2362-0.7185 0.375-0.00741 0.0044-0.023866-0.0045-0.03125 0-0.031933 0.0193-0.062293 0.04251-0.09375 0.0625-0.1204 0.0767-0.23102 0.16351-0.34375 0.25-0.10617 0.0808-0.21328 0.16111-0.3125 0.25-0.1779 0.1614-0.3474 0.3453-0.5 0.5312-0.1075 0.1303-0.2183 0.2653-0.3124 0.4063-0.0251 0.0383-0.0385 0.0858-0.0626 0.125-0.0647 0.103-0.1302 0.2045-0.1874 0.3124-0.1011 0.1948-0.2057 0.4158-0.2813 0.625-0.008 0.0219-0.0236 0.0406-0.0313 0.0626-0.0318 0.0919-0.0358 0.1868-0.0624 0.2812-0.0304 0.1066-0.0704 0.203-0.0938 0.3125-0.0729 0.3415-0.125 0.6985-0.125 1.0625v2 68 2c0 2.7818 2.2182 5 5 5h2 68 2c2.7818 0 5-2.2182 5-5v-2-68-2c0-0.364-0.052-0.721-0.125-1.0625-0.044-0.2069-0.088-0.3977-0.156-0.5937-0.008-0.022-0.024-0.0407-0.031-0.0626-0.063-0.1737-0.139-0.3674-0.219-0.5312-0.042-0.0828-0.079-0.17-0.125-0.25-0.055-0.0972-0.127-0.1884-0.188-0.2812-0.094-0.141-0.205-0.276-0.312-0.4063-0.143-0.1745-0.303-0.347-0.469-0.5-0.011-0.0102-0.02-0.0211-0.031-0.0313-0.139-0.1255-0.285-0.2344-0.438-0.3437-0.102-0.0731-0.204-0.1534-0.312-0.2187-0.0074-0.0045-0.02384 0.0044-0.03125 0-0.23204-0.13873-0.46255-0.27478-0.71875-0.375 0.30153 0.0968 0.59646 0.20414 0.875 0.34375 0.55709 0.27922 1.0601 0.66569 1.5 1.0938 0.21997 0.21403 0.40937 0.44186 0.59375 0.6875s0.35541 0.50774 0.5 0.78125c0.14012 0.26505 0.27614 0.52473 0.375 0.8125 0.01041 0.03078 0.02133 0.06274 0.03125 0.09375 0.09046 0.27808 0.1388 0.5794 0.1875 0.875 0.053 0.318 0.094 0.634 0.094 0.969v2 68 2c0 3.324-2.676 6-6 6h-72z"/>
 </g>
 <g id="layer5" style="display:none">
  <rect id="rect3171" style="opacity:.1;filter:url(#filter3794);stroke:#fff;stroke-linecap:round;stroke-width:.5;fill:url(#linearGradient3613)" clip-path="url(#clipPath3613)" rx="12" ry="12" height="66" width="66" y="15" x="15"/>
 </g>
 <g id="layer6">
  <path id="path3932" style="opacity:.1" d="m33.75 23c-2.4061 0.40902-4.0686 2.8256-3.75 5.2273 0.02111 4.3919-0.04206 8.7922 0.03125 13.179 0.37935 2.3578 2.6556 3.6309 4.1122 5.331l4.3253 4.3253c-2.943-0.144-5.919-0.022-8.875-0.062-1.532 0.318-1.742 2.005-1.594 3.298v4.702c-2.195 0.059-4.418-0.12-6.594 0.094-1.88 0.563-1.332 2.79-1.406 4.282 0.06007 2.0692-0.12181 4.1678 0.09375 6.2181 0.56352 1.88 2.7903 1.3325 4.2819 1.4062h3.6244c0.05888 2.1945-0.12008 4.418 0.09375 6.5938 0.56352 1.88 2.7903 1.3325 4.2819 1.4062 2.0692-0.06006 4.1678 0.12181 6.2181-0.09375 1.88-0.563 1.332-2.79 1.406-4.282v-3.624c2.1945-0.05888 4.418 0.12008 6.5938-0.09375 1.88-0.56352 1.3325-2.7903 1.4062-4.2819-0.04147-2.0285 0.08314-4.0774-0.0625-6.0931 2.6084 2.545 5.1016 5.2279 7.7812 7.6875 0.24212 0.15874 1.2257 0.70941 1.875 0.71875 1.0379 0.23376 2.5886-0.25755 3.1195-0.68493 2.8962-2.5992 5.5407-5.4969 8.3395-8.2116l5.8848-5.8848c0.18169-0.24693 0.76296-0.9917 0.90625-1.7812 0.31195-1.2482 0.09023-2.635-0.64296-3.6736-0.217-0.336-1.145-1.243-1.666-1.758-7.693-7.673-15.352-15.394-23.067-23.037-1.966-1.461-4.554-0.73-6.837-0.906-3.2941 0.000002-6.5882-0.000002-9.8822 0zm8.75 10c4.2948-0.02805 2.1786 7.0042-1.4128 4.5819-2.019-1.262-1.008-4.711 1.413-4.582zm-2.5625 19.531l6.5312 6.5312c-2.141-0.143-4.315-0.022-6.469-0.062-0.04-2.153 0.082-4.329-0.062-6.469z"/>
  <path id="path3928" style="opacity:.15" d="m33.969 24.062a0.9318 0.9318 0 0 0 -0.0625 0.03125c-0.04588 0.0085-0.26754 0.05003-0.3125 0.0625s-0.23756 0.07737-0.28125 0.09375-0.23917 0.10484-0.28125 0.125c-0.04208 0.02015-0.24111 0.10122-0.28125 0.125s-0.21211 0.16029-0.25 0.1875-0.1834 0.15706-0.21875 0.1875-0.21747 0.15407-0.25 0.1875-0.15804 0.21384-0.1875 0.25-0.16134 0.18014-0.1875 0.21875-0.13358 0.24049-0.15625 0.28125-0.10601 0.20741-0.125 0.25-0.10983 0.23716-0.125 0.28125-0.08252 0.26724-0.09375 0.3125-0.05529 0.23518-0.0625 0.28125c-0.0072 0.04607-0.02812 0.26598-0.03125 0.3125-0.0028 0.04187 0.000099 0.21271 0 0.28125-0.000011 0.0076-0.000098 0.02659 0 0.03125v13.188c0.000128 0.02604-0.0014 0.1615 0 0.1875s0.02856 0.13035 0.03125 0.15625c0.0027 0.0259-0.004 0.13051 0 0.15625s0.02603 0.16199 0.03125 0.1875c0.0052 0.02551 0.05603 0.13102 0.0625 0.15625 0.0065 0.02523 0.02355 0.13137 0.03125 0.15625s0.05359 0.13178 0.0625 0.15625c0.0089 0.02447 0.05239 0.13225 0.0625 0.15625s0.05122 0.13277 0.0625 0.15625 0.08133 0.13336 0.09375 0.15625 0.04897 0.13399 0.0625 0.15625 0.07914 0.13468 0.09375 0.15625 0.0781 0.10418 0.09375 0.125 0.10834 0.10497 0.125 0.125 0.07613 0.10581 0.09375 0.125 0.10646 0.1067 0.125 0.125l23.719 23.719c0.01838 0.01835 0.10574 0.10757 0.125 0.125s0.10491 0.07729 0.125 0.09375 0.10412 0.10954 0.125 0.125c0.02087 0.01546 0.13464 0.07933 0.15625 0.09375s0.10271 0.08041 0.125 0.09375 0.13333 0.05027 0.15625 0.0625 0.13276 0.08265 0.15625 0.09375 0.13224 0.05257 0.15625 0.0625c0.02401 0.0099 0.13178 0.05376 0.15625 0.0625 0.02446 0.0087 0.13138 0.05497 0.15625 0.0625 0.02486 0.0075 0.13105 0.02494 0.15625 0.03125 0.0252 0.0063 0.13077 0.02619 0.15625 0.03125 0.02548 0.0051 0.1618 0.02744 0.1875 0.03125 0.0257 0.0038 0.13039 0.02871 0.15625 0.03125 0.02586 0.0025 0.16155-0.0013 0.1875 0s0.13027 0 0.15625 0 0.1303 0.0013 0.15625 0 0.16164 0.0025 0.1875 0 0.13055-0.02744 0.15625-0.03125c0.0257-0.0038 0.16202-0.02619 0.1875-0.03125 0.02548-0.0051 0.13105-0.02494 0.15625-0.03125 0.0252-0.0063 0.13138-0.02372 0.15625-0.03125 0.02486-0.0075 0.13178-0.05376 0.15625-0.0625 0.02446-0.0087 0.13224-0.05257 0.15625-0.0625 0.02401-0.0099 0.13276-0.0514 0.15625-0.0625s0.13333-0.08152 0.15625-0.09375 0.13396-0.04916 0.15625-0.0625 0.10339-0.07933 0.125-0.09375 0.13538-0.07829 0.15625-0.09375 0.10491-0.10854 0.125-0.125 0.10574-0.07632 0.125-0.09375 0.10662-0.10665 0.125-0.125l13.219-13.218c0.01837-0.01838 0.10756-0.10574 0.125-0.125s0.07727-0.10491 0.09375-0.125 0.10953-0.10413 0.125-0.125 0.07932-0.13465 0.09375-0.15625 0.0804-0.10272 0.09375-0.125 0.05026-0.13334 0.0625-0.15625 0.08265-0.13277 0.09375-0.15625 0.05256-0.13225 0.0625-0.15625c0.0099-0.024 0.05375-0.13179 0.0625-0.15625 0.0087-0.02446 0.05496-0.13139 0.0625-0.15625 0.0075-0.02486 0.02494-0.13105 0.03125-0.15625 0.0063-0.0252 0.02618-0.13078 0.03125-0.15625 0.0051-0.02548 0.02744-0.16181 0.03125-0.1875 0.0038-0.02569 0.02871-0.1304 0.03125-0.15625 0.0025-0.02585-0.0013-0.16156 0-0.1875s0-0.13028 0-0.15625 0.0013-0.13031 0-0.15625 0.0025-0.16165 0-0.1875-0.02744-0.13056-0.03125-0.15625c-0.0038-0.02569-0.02618-0.16202-0.03125-0.1875-0.0051-0.02548-0.02494-0.13105-0.03125-0.15625-0.0063-0.0252-0.02371-0.13139-0.03125-0.15625-0.0075-0.02486-0.05375-0.13179-0.0625-0.15625-0.0087-0.02446-0.05256-0.13225-0.0625-0.15625-0.0099-0.024-0.0514-0.13277-0.0625-0.15625s-0.08151-0.13334-0.09375-0.15625-0.04915-0.13397-0.0625-0.15625-0.07932-0.1034-0.09375-0.125-0.07828-0.13538-0.09375-0.15625-0.10852-0.10491-0.125-0.125-0.07631-0.10574-0.09375-0.125-0.10663-0.10662-0.125-0.125l-23.718-23.719c-0.0183-0.01854-0.10581-0.10738-0.125-0.125-0.01919-0.01761-0.10497-0.0771-0.125-0.09375s-0.10418-0.10935-0.125-0.125-0.10343-0.07915-0.125-0.09375-0.13399-0.08022-0.15625-0.09375-0.13335-0.05008-0.15625-0.0625-0.13277-0.08247-0.15625-0.09375-0.13224-0.05239-0.15625-0.0625-0.13177-0.05358-0.15625-0.0625c-0.02448-0.0089-0.13136-0.0548-0.15625-0.0625s-0.13101-0.02478-0.15625-0.03125c-0.02524-0.0065-0.13073-0.05728-0.15625-0.0625-0.02552-0.0052-0.16175-0.02729-0.1875-0.03125-0.02575-0.004-0.13034 0.0027-0.15625 0s-0.13023-0.02983-0.15625-0.03125c-0.02602-0.0014-0.16145 0.000135-0.1875 0h-13.125c-0.01473-0.0014-0.05716 0.002-0.09375 0-0.08538-0.0046-0.18422 0-0.21875 0-0.04933 0-0.29464-0.0046-0.34375 0zm8.531 7.876c1.9826 0 3.5625 1.5805 3.5625 3.5625s-1.5799 3.5625-3.5625 3.5625-3.5625-1.5805-3.5625-3.5625 1.5799-3.5625 3.5625-3.5625zm-12.594 20.124a0.9318 0.9318 0 0 0 -0.844 0.938v7.0625h-7.0625a0.9318 0.9318 0 0 0 -0.938 0.938v8a0.9318 0.9318 0 0 0 0.938 0.938h7.0625v7.0625a0.9318 0.9318 0 0 0 0.938 0.938h8a0.9318 0.9318 0 0 0 0.938 -0.938v-7.0625h7.0625a0.9318 0.9318 0 0 0 0.938 -0.938v-8a0.9318 0.9318 0 0 0 -0.938 -0.938h-7.0625v-7.0625a0.9318 0.9318 0 0 0 -0.938 -0.938h-8a0.9318 0.9318 0 0 0 -0.09375 0z"/>
  <path id="path3922" style="opacity:.3" d="m34.062 25a2.5208 2.5201 0 0 0 -2.062 2.531v13.219a2.5208 2.5201 0 0 0 0.75 1.7812l23.719 23.719a2.5208 2.5201 0 0 0 3.5625 0l13.218-13.219a2.5208 2.5201 0 0 0 0 -3.5625l-23.719-23.718a2.5208 2.5201 0 0 0 -1.781 -0.75h-13.219a2.5208 2.5201 0 0 0 -0.469 0zm8.438 6c2.486 0 4.5 2.015 4.5 4.5s-2.014 4.5-4.5 4.5-4.5-2.015-4.5-4.5 2.014-4.5 4.5-4.5zm-12.5 22v8h-8v8h8v8h8v-8h8v-8h-8v-8h-8z"/>
  <rect id="rect3897" style="color:#000000;fill:url(#linearGradient3905)" transform="matrix(0,1,1,0,0,0)" height="16" width="16" y="104" x="0"/>
  <text id="text3907" y="48" x="104" xml:space="preserve" style="font-size:4px;letter-spacing:0px;word-spacing:0px;font-family:Liberation Sans;line-height:125%;fill:#000000"><tspan id="tspan3909" y="48" x="104">Shadow opacity : 30, 15, 10, (8)</tspan></text>
  <rect id="rect3911" style="color:#000000;fill:url(#linearGradient3913)" transform="rotate(-90)" height="16" width="16" y="104" x="-40"/>
  <text id="text3951" y="32" x="124" xml:space="preserve" style="font-size:4px;letter-spacing:0px;word-spacing:0px;font-family:Liberation Sans;line-height:125%;fill:#000000"><tspan id="tspan3953" y="32" x="124">Bevel opacity : 30 / 10</tspan></text>
  <text id="text3955" y="8" x="124" xml:space="preserve" style="font-size:4px;letter-spacing:0px;word-spacing:0px;font-family:Liberation Sans;line-height:125%;fill:#000000"><tspan id="tspan3957" y="8" x="124">Bevel opacity : 75 / 15</tspan></text>
  <path id="path3102" style="fill:url(#linearGradient3133)" d="m34.062 24a2.5208 2.5201 0 0 0 -2.062 2.531v13.219a2.5208 2.5201 0 0 0 0.75 1.7812l23.719 23.719a2.5208 2.5201 0 0 0 3.5625 0l13.218-13.219a2.5208 2.5201 0 0 0 0 -3.5625l-23.719-23.718a2.5208 2.5201 0 0 0 -1.781 -0.75h-13.219a2.5208 2.5201 0 0 0 -0.469 0zm8.438 6c2.486 0 4.5 2.015 4.5 4.5s-2.014 4.5-4.5 4.5-4.5-2.015-4.5-4.5 2.014-4.5 4.5-4.5zm-12.5 22v8h-8v8h8v8h8v-8h8v-8h-8v-8h-8z"/>
  <path id="path3136" style="opacity:.75;fill:#fff" d="m34.062 24a2.5208 2.5201 0 0 0 -2.062 2.531v0.719a2.5208 2.5201 0 0 1 2.062 -2.25 2.5208 2.5201 0 0 1 0.469 0h13.219a2.5208 2.5201 0 0 1 1.7812 0.75l23.719 23.719a2.5208 2.5201 0 0 1 0.6875 1.25 2.5208 2.5201 0 0 0 -0.6875 -2.25l-23.719-23.719a2.5208 2.5201 0 0 0 -1.781 -0.75h-13.219a2.5208 2.5201 0 0 0 -0.46875 0zm4 11c-0.018 0.167-0.062 0.328-0.062 0.5 0 2.4854 2.014 4.5 4.5 4.5s4.5-2.0146 4.5-4.5c0-0.17178-0.04377-0.33322-0.0625-0.5-0.25231 2.2462-2.1233 4-4.4375 4s-4.1852-1.7538-4.4375-4zm-8.062 17v1h8v-1h-8zm-8 8v1h8v-1h-8zm16 0v1h8v-1h-8z"/>
  <path id="path3913" style="opacity:.15" d="m42.5 29c-2.486 0-4.5 2.0146-4.5 4.5 0 0.17178 0.04377 0.33322 0.0625 0.5 0.25231-2.2462 2.1233-4 4.4375-4s4.1852 1.7538 4.4375 4c0.018-0.167 0.062-0.328 0.062-0.5 0-2.485-2.014-4.5-4.5-4.5zm-10.5 10v0.75a2.5208 2.5201 0 0 0 0.75 1.7812l23.719 23.719a2.5208 2.5201 0 0 0 3.5625 0l13.218-13.219a2.5208 2.5201 0 0 0 0.6875 -2.3125 2.5208 2.5201 0 0 1 -0.6875 1.3125l-13.219 13.219a2.5208 2.5201 0 0 1 -3.5625 0l-23.718-23.719a2.5208 2.5201 0 0 1 -0.75 -1.531zm-10 28v1h8v-1h-8zm16 0v1h8v-1h-8zm-8 8v1h8v-1h-8z"/>
 </g>
</svg>
