<?xml version="1.0" encoding="UTF-8" standalone="no"?>
<!-- Created with Inkscape (http://www.inkscape.org/) -->
<svg id="svg2408" xmlns:rdf="http://www.w3.org/1999/02/22-rdf-syntax-ns#" xmlns="http://www.w3.org/2000/svg" height="96" width="96" version="1.0" xmlns:cc="http://creativecommons.org/ns#" xmlns:xlink="http://www.w3.org/1999/xlink" xmlns:dc="http://purl.org/dc/elements/1.1/">
 <defs id="defs2410">
  <linearGradient id="linearGradient3637">
   <stop id="stop3639" style="stop-color:#f0f0f0" offset="0"/>
   <stop id="stop3641" style="stop-color:#aaa" offset="1"/>
  </linearGradient>
  <linearGradient id="ButtonShadow" y2="7.0165" gradientUnits="userSpaceOnUse" x2="45.448" gradientTransform="scale(1.0059 .99417)" y1="92.54" x1="45.448">
   <stop id="stop3750" offset="0"/>
   <stop id="stop3752" style="stop-opacity:.58824" offset="1"/>
  </linearGradient>
  <linearGradient id="linearGradient3737">
   <stop id="stop3739" style="stop-color:#fff" offset="0"/>
   <stop id="stop3741" style="stop-color:#fff;stop-opacity:0" offset="1"/>
  </linearGradient>
  <filter id="filter3174" color-interpolation-filters="sRGB">
   <feGaussianBlur id="feGaussianBlur3176" stdDeviation="1.71"/>
  </filter>
  <linearGradient id="linearGradient3188" y2="63.893" xlink:href="#linearGradient3737" gradientUnits="userSpaceOnUse" x2="36.357" y1="6" x1="36.357"/>
  <filter id="filter3794" height="1.384" width="1.384" color-interpolation-filters="sRGB" y="-.192" x="-.192">
   <feGaussianBlur id="feGaussianBlur3796" stdDeviation="5.28"/>
  </filter>
  <linearGradient id="linearGradient3613" y2="138.66" xlink:href="#linearGradient3737" gradientUnits="userSpaceOnUse" x2="48" y1="20.221" x1="48"/>
  <radialGradient id="radialGradient3619" xlink:href="#linearGradient3737" gradientUnits="userSpaceOnUse" cy="90.172" cx="48" gradientTransform="matrix(1.1573 0 0 .99591 -7.551 .19713)" r="42"/>
  <clipPath id="clipPath3613">
   <rect id="rect3615" style="fill:#fff" rx="6" ry="6" height="84" width="84" y="6" x="6"/>
  </clipPath>
  <linearGradient id="linearGradient2843" y2="5.9877" gradientUnits="userSpaceOnUse" x2="48" gradientTransform="translate(0,100)" y1="90" x1="48">
   <stop id="stop3702" style="stop-color:#2276c5" offset="0"/>
   <stop id="stop3704" style="stop-color:#68baf4" offset="1"/>
  </linearGradient>
  <clipPath id="clipPath3625">
   <path id="path3627" style="fill:#fff" d="m0 0v96h96v-96h-96zm12 6h72c3.324 0 6 2.676 6 6v72c0 3.324-2.676 6-6 6h-72c-3.324 0-6-2.676-6-6v-72c0-3.324 2.676-6 6-6z"/>
  </clipPath>
  <linearGradient id="linearGradient3643" y2="90.015" xlink:href="#linearGradient3637" gradientUnits="userSpaceOnUse" x2="44.512" y1="6" x1="44.512"/>
  <clipPath id="clipPath3649">
   <rect id="rect3651" style="fill:#fff" rx="4" ry="4" height="76" width="76" y="10" x="10"/>
  </clipPath>
  <filter id="filter3657" color-interpolation-filters="sRGB">
   <feGaussianBlur id="feGaussianBlur3659" stdDeviation="1.14"/>
  </filter>
  <linearGradient id="ButtonShadow-0" y2="7.0165" gradientUnits="userSpaceOnUse" x2="45.448" gradientTransform="matrix(1.0059 0 0 .99417 100 0)" y1="92.54" x1="45.448">
   <stop id="stop3750-8" offset="0"/>
   <stop id="stop3752-5" style="stop-opacity:.58824" offset="1"/>
  </linearGradient>
  <linearGradient id="linearGradient3780" y2="90.239" xlink:href="#ButtonShadow-0" gradientUnits="userSpaceOnUse" x2="32.251" gradientTransform="matrix(1.0238 0 0 -1.0119 -1.1429 98.071)" y1="6.1317" x1="32.251"/>
  <linearGradient id="linearGradient3721" y2="90.239" xlink:href="#ButtonShadow-0" gradientUnits="userSpaceOnUse" x2="32.251" gradientTransform="matrix(1,0,0,-1,0,97)" y1="6.1317" x1="32.251"/>
  <radialGradient id="radialGradient3619-3" xlink:href="#linearGradient3737" gradientUnits="userSpaceOnUse" cy="90.172" cx="48" gradientTransform="matrix(1.1573 0 0 .99591 -7.551 .19713)" r="42"/>
  <linearGradient id="linearGradient3905" y2="8" xlink:href="#linearGradient3637" gradientUnits="userSpaceOnUse" x2="120" gradientTransform="translate(-104,104)" y1="8" x1="104"/>
  <linearGradient id="linearGradient3913" y2="8" gradientUnits="userSpaceOnUse" x2="120" gradientTransform="translate(-144,104)" y1="8" x1="104">
   <stop id="stop3185-9" style="stop-color:#c80000" offset="0"/>
   <stop id="stop3187-6" style="stop-color:#f3604d" offset="1"/>
  </linearGradient>
  <linearGradient id="linearGradient3042" y2="20.028" xlink:href="#linearGradient3637" gradientUnits="userSpaceOnUse" x2="11" gradientTransform="matrix(3.3103 0 0 3.3103 11.586 11.586)" y1="2" x1="11"/>
 </defs>
 <metadata id="metadata2413">
  <rdf:RDF>
   <cc:Work rdf:about="">
    <dc:format>image/svg+xml</dc:format>
    <dc:type rdf:resource="http://purl.org/dc/dcmitype/StillImage"/>
    <dc:title/>
   </cc:Work>
  </rdf:RDF>
 </metadata>
 <g id="layer2" style="display:none">
  <rect id="rect3745" style="opacity:.9;filter:url(#filter3174);fill:url(#ButtonShadow)" clip-path="url(#clipPath3625)" rx="6" ry="6" height="85" width="86" y="7" x="5"/>
 </g>
 <g id="layer3">
  <path id="path3786" style="opacity:0.08;fill:url(#linearGradient3780)" d="m12 3.9688c-5.5111 0-10.031 4.5201-10.031 10.031v71c0 5.5111 4.5202 10.031 10.031 10.031h72c5.5111 0 10.031-4.5202 10.031-10.031v-71c0-5.5111-4.52-10.031-10.031-10.031h-72zm0 2.0312h72c3.324 0 6 2.676 6 6v72c0 3.324-2.676 6-6 6h-72c-3.324 0-6-2.676-6-6v-72c0-3.324 2.676-6 6-6z"/>
  <path id="path3778" style="opacity:.1;fill:url(#linearGradient3780)" d="m12 4.9688c-4.9716 0-9.0312 4.0596-9.0312 9.0312v71c0 4.9716 4.0596 9.0312 9.0312 9.0312h72c4.9716 0 9.0312-4.0596 9.0312-9.0312v-71c0-4.9716-4.059-9.0312-9.031-9.0312h-72zm0 1.0312h72c3.324 0 6 2.676 6 6v72c0 3.324-2.676 6-6 6h-72c-3.324 0-6-2.676-6-6v-72c0-3.324 2.676-6 6-6z"/>
  <path id="path3770" style="opacity:.2;fill:url(#linearGradient3780)" d="m11.188 6.0312c-4.028 0.4107-7.188 3.8352-7.188 7.9688v71c0 4.4091 3.5909 8 8 8h72c4.4091 0 8-3.5909 8-8v-71c0-4.1971-3.259-7.646-7.375-7.9688 3.033 0.3062 5.375 2.8526 5.375 5.9688v72c0 3.324-2.676 6-6 6h-72c-3.324 0-6-2.676-6-6v-72c0-3.1162 2.3421-5.6626 5.375-5.9688-0.06227 0.00488-0.12563-0.00631-0.1875 0z"/>
  <path id="rect3723" style="opacity:.3;fill:url(#linearGradient3780)" d="m6.4375 9.75c-0.8995 1.177-1.4375 2.647-1.4375 4.25v71c0 3.878 3.122 7 7 7h72c3.878 0 7-3.122 7-7v-71c0-1.603-0.538-3.073-1.438-4.25 0.28 0.694 0.438 1.454 0.438 2.25v72c0 3.324-2.676 6-6 6h-72c-3.324 0-6-2.676-6-6v-72c0-0.796 0.1582-1.556 0.4375-2.25z"/>
  <path id="rect3716" style="opacity:.45;fill:url(#linearGradient3721)" d="m6 84v1c0 3.324 2.676 6 6 6h72c3.324 0 6-2.676 6-6v-1c0 3.324-2.676 6-6 6h-72c-3.324 0-6-2.676-6-6z"/>
 </g>
 <g id="layer1" style="display:none">
  <rect id="rect2419" style="opacity:.8" rx="6" ry="6" height="84" width="84" y="6" x="6"/>
  <path id="rect3726" style="opacity:0.08" d="m14 10c-2.216 0-4 1.784-4 4v68c0 2.216 1.784 4 4 4h68c2.216 0 4-1.784 4-4v-68c0-2.216-1.784-4-4-4h-68zm0 3.0625h68c0.57877 0 0.9375 0.35873 0.9375 0.9375v68c0 0.57877-0.35873 0.9375-0.9375 0.9375h-68c-0.57877 0-0.9375-0.35873-0.9375-0.9375v-68c0-0.57877 0.35873-0.9375 0.9375-0.9375z"/>
  <path id="rect3629" style="fill:url(#linearGradient3643)" d="m12 6c-3.324 0-6 2.676-6 6v72c0 3.324 2.676 6 6 6h72c3.324 0 6-2.676 6-6v-72c0-3.324-2.676-6-6-6h-72zm2 4h68c2.216 0 4 1.784 4 4v68c0 2.216-1.784 4-4 4h-68c-2.216 0-4-1.784-4-4v-68c0-2.216 1.784-4 4-4z"/>
  <path id="rect3728" style="fill:url(#linearGradient3188)" d="m12 6c-3.324 0-6 2.676-6 6v2 68 2c0 0.33472 0.04135 0.6507 0.09375 0.96875 0.0487 0.2956 0.09704 0.59692 0.1875 0.875 0.00988 0.03038 0.020892 0.0636 0.03125 0.09375 0.098865 0.28777 0.23488 0.54745 0.375 0.8125 0.14459 0.27351 0.31562 0.53562 0.5 0.78125 0.18438 0.24564 0.37378 0.47347 0.59375 0.6875 0.43995 0.42806 0.94291 0.81453 1.5 1.0938 0.27854 0.13961 0.57347 0.24695 0.875 0.34375-0.2562-0.10022-0.48671-0.23627-0.71875-0.375-0.00741-0.0044-0.023866 0.0045-0.03125 0-0.031933-0.0193-0.062293-0.04251-0.09375-0.0625-0.1204-0.0767-0.23102-0.16351-0.34375-0.25-0.10617-0.0808-0.21328-0.16111-0.3125-0.25-0.1778-0.162-0.3473-0.346-0.4999-0.531-0.1075-0.131-0.2183-0.266-0.3124-0.407-0.0251-0.038-0.0385-0.086-0.0626-0.125-0.0647-0.103-0.1302-0.204-0.1874-0.312-0.1011-0.195-0.2057-0.416-0.2813-0.625-0.008-0.022-0.0236-0.041-0.0313-0.063-0.0318-0.092-0.0358-0.187-0.0624-0.281-0.0304-0.107-0.0704-0.203-0.0938-0.313-0.0729-0.341-0.125-0.698-0.125-1.062v-2-68-2c0-2.782 2.2182-5 5-5h2 68 2c2.7818 0 5 2.2182 5 5v2 68 2c0 0.3643-0.05212 0.72099-0.125 1.0625-0.04415 0.20689-0.08838 0.39766-0.15625 0.59375-0.0077 0.02195-0.0233 0.04069-0.03125 0.0625-0.06274 0.17374-0.13838 0.36745-0.21875 0.53125-0.04158 0.0828-0.07904 0.16995-0.125 0.25-0.0546 0.09721-0.12677 0.18835-0.1875 0.28125-0.09411 0.14096-0.20492 0.276-0.3125 0.40625-0.14317 0.17445-0.30314 0.347-0.46875 0.5-0.01117 0.0102-0.01998 0.02115-0.03125 0.03125-0.13839 0.12556-0.28509 0.23444-0.4375 0.34375-0.10257 0.07315-0.20432 0.15336-0.3125 0.21875-0.0074 0.0045-0.02384-0.0044-0.03125 0-0.23204 0.13873-0.46255 0.27478-0.71875 0.375 0.30153-0.0968 0.59646-0.20414 0.875-0.34375 0.55709-0.27922 1.0601-0.66569 1.5-1.0938 0.21997-0.21403 0.40937-0.44186 0.59375-0.6875s0.35541-0.50774 0.5-0.78125c0.14012-0.26505 0.27614-0.52473 0.375-0.8125 0.01041-0.03078 0.02133-0.06274 0.03125-0.09375 0.09046-0.27808 0.1388-0.5794 0.1875-0.875 0.053-0.318 0.094-0.634 0.094-0.969v-2-68-2c0-3.324-2.676-6-6-6h-72z"/>
  <path id="path3615" style="opacity:.6;fill:url(#radialGradient3619)" d="m12 90c-3.324 0-6-2.676-6-6v-2-68-2c0-0.33472 0.04135-0.6507 0.09375-0.96875 0.0487-0.2956 0.09704-0.59692 0.1875-0.875 0.0099-0.03 0.0209-0.063 0.0313-0.094 0.0989-0.2873 0.2349-0.547 0.375-0.812 0.1446-0.2735 0.3156-0.5356 0.5-0.7812 0.1844-0.2457 0.3738-0.4735 0.5937-0.6876 0.44-0.428 0.943-0.8145 1.5-1.0937 0.2786-0.1396 0.5735-0.2469 0.8748-0.3437-0.256 0.1002-0.4865 0.2362-0.7185 0.375-0.00741 0.0044-0.023866-0.0045-0.03125 0-0.031933 0.0193-0.062293 0.04251-0.09375 0.0625-0.1204 0.0767-0.23102 0.16351-0.34375 0.25-0.10617 0.0808-0.21328 0.16111-0.3125 0.25-0.1779 0.1614-0.3474 0.3453-0.5 0.5312-0.1075 0.1303-0.2183 0.2653-0.3124 0.4063-0.0251 0.0383-0.0385 0.0858-0.0626 0.125-0.0647 0.103-0.1302 0.2045-0.1874 0.3124-0.1011 0.1948-0.2057 0.4158-0.2813 0.625-0.008 0.0219-0.0236 0.0406-0.0313 0.0626-0.0318 0.0919-0.0358 0.1868-0.0624 0.2812-0.0304 0.1066-0.0704 0.203-0.0938 0.3125-0.0729 0.3415-0.125 0.6985-0.125 1.0625v2 68 2c0 2.7818 2.2182 5 5 5h2 68 2c2.7818 0 5-2.2182 5-5v-2-68-2c0-0.364-0.052-0.721-0.125-1.0625-0.044-0.2069-0.088-0.3977-0.156-0.5937-0.008-0.022-0.024-0.0407-0.031-0.0626-0.063-0.1737-0.139-0.3674-0.219-0.5312-0.042-0.0828-0.079-0.17-0.125-0.25-0.055-0.0972-0.127-0.1884-0.188-0.2812-0.094-0.141-0.205-0.276-0.312-0.4063-0.143-0.1745-0.303-0.347-0.469-0.5-0.011-0.0102-0.02-0.0211-0.031-0.0313-0.139-0.1255-0.285-0.2344-0.438-0.3437-0.102-0.0731-0.204-0.1534-0.312-0.2187-0.0074-0.0045-0.02384 0.0044-0.03125 0-0.23204-0.13873-0.46255-0.27478-0.71875-0.375 0.30153 0.0968 0.59646 0.20414 0.875 0.34375 0.55709 0.27922 1.0601 0.66569 1.5 1.0938 0.21997 0.21403 0.40937 0.44186 0.59375 0.6875s0.35541 0.50774 0.5 0.78125c0.14012 0.26505 0.27614 0.52473 0.375 0.8125 0.01041 0.03078 0.02133 0.06274 0.03125 0.09375 0.09046 0.27808 0.1388 0.5794 0.1875 0.875 0.053 0.318 0.094 0.634 0.094 0.969v2 68 2c0 3.324-2.676 6-6 6h-72z"/>
  <rect id="rect2841" style="fill:url(#linearGradient2843)" rx="6" ry="6" height="84" width="84" y="106" x="6"/>
  <rect id="rect3634" style="fill:#f00" rx="4" ry="4" height="76" width="76" y="110" x="10"/>
  <path id="rect3647" style="block-progression:tb;text-indent:0;filter:url(#filter3657);color:#000000;text-transform:none;display:inline" d="m14 9c-2.7527 0-5 2.2473-5 5v68c0 2.7527 2.2473 5 5 5h68c2.7527 0 5-2.2473 5-5v-68c0-2.753-2.247-5-5-5h-68zm0 2h68c1.6793 0 3 1.3207 3 3v68c0 1.6793-1.3207 3-3 3h-68c-1.6793 0-3-1.3207-3-3v-68c0-1.6793 1.3207-3 3-3z" clip-path="url(#clipPath3649)" transform="translate(-110)"/>
  <path id="path3709" style="opacity:0.16" d="m14.089 10c-2.216 0-4 1.784-4 4v68c0 2.216 1.784 4 4 4h68c2.216 0 4-1.784 4-4v-68c0-2.216-1.784-4-4-4h-68zm0 2h68c1.1403 0 2 0.8597 2 2v68c0 1.1403-0.8597 2-2 2h-68c-1.1403 0-2-0.8597-2-2v-68c0-1.1403 0.8597-2 2-2z"/>
  <path id="path3707" style="opacity:0.36" d="m14 10c-2.216 0-4 1.784-4 4v68c0 2.216 1.784 4 4 4h68c2.216 0 4-1.784 4-4v-68c0-2.216-1.784-4-4-4h-68zm0 1h68c1.6738 0 3 1.3262 3 3v68c0 1.6738-1.3262 3-3 3h-68c-1.6738 0-3-1.3262-3-3v-68c0-1.6738 1.3262-3 3-3z"/>
 </g>
 <g id="layer4">
  <rect id="rect2419-9" style="opacity:.6" rx="6" ry="6" height="84" width="84" y="6" x="6"/>
  <path id="rect3728-4" style="opacity:0.01;fill:url(#linearGradient3188)" d="m12 6c-3.324 0-6 2.676-6 6v2 68 2c0 0.33472 0.04135 0.6507 0.09375 0.96875 0.0487 0.2956 0.09704 0.59692 0.1875 0.875 0.00988 0.03038 0.020892 0.0636 0.03125 0.09375 0.098865 0.28777 0.23488 0.54745 0.375 0.8125 0.14459 0.27351 0.31562 0.53562 0.5 0.78125 0.18438 0.24564 0.37378 0.47347 0.59375 0.6875 0.43995 0.42806 0.94291 0.81453 1.5 1.0938 0.27854 0.13961 0.57347 0.24695 0.875 0.34375-0.2562-0.10022-0.48671-0.23627-0.71875-0.375-0.00741-0.0044-0.023866 0.0045-0.03125 0-0.031933-0.0193-0.062293-0.04251-0.09375-0.0625-0.1204-0.0767-0.23102-0.16351-0.34375-0.25-0.10617-0.0808-0.21328-0.16111-0.3125-0.25-0.1778-0.162-0.3473-0.346-0.4999-0.531-0.1075-0.131-0.2183-0.266-0.3124-0.407-0.0251-0.038-0.0385-0.086-0.0626-0.125-0.0647-0.103-0.1302-0.204-0.1874-0.312-0.1011-0.195-0.2057-0.416-0.2813-0.625-0.008-0.022-0.0236-0.041-0.0313-0.063-0.0318-0.092-0.0358-0.187-0.0624-0.281-0.0304-0.107-0.0704-0.203-0.0938-0.313-0.0729-0.341-0.125-0.698-0.125-1.062v-2-68-2c0-2.782 2.2182-5 5-5h2 68 2c2.7818 0 5 2.2182 5 5v2 68 2c0 0.3643-0.05212 0.72099-0.125 1.0625-0.04415 0.20689-0.08838 0.39766-0.15625 0.59375-0.0077 0.02195-0.0233 0.04069-0.03125 0.0625-0.06274 0.17374-0.13838 0.36745-0.21875 0.53125-0.04158 0.0828-0.07904 0.16995-0.125 0.25-0.0546 0.09721-0.12677 0.18835-0.1875 0.28125-0.09411 0.14096-0.20492 0.276-0.3125 0.40625-0.14317 0.17445-0.30314 0.347-0.46875 0.5-0.01117 0.0102-0.01998 0.02115-0.03125 0.03125-0.13839 0.12556-0.28509 0.23444-0.4375 0.34375-0.10257 0.07315-0.20432 0.15336-0.3125 0.21875-0.0074 0.0045-0.02384-0.0044-0.03125 0-0.23204 0.13873-0.46255 0.27478-0.71875 0.375 0.30153-0.0968 0.59646-0.20414 0.875-0.34375 0.55709-0.27922 1.0601-0.66569 1.5-1.0938 0.21997-0.21403 0.40937-0.44186 0.59375-0.6875s0.35541-0.50774 0.5-0.78125c0.14012-0.26505 0.27614-0.52473 0.375-0.8125 0.01041-0.03078 0.02133-0.06274 0.03125-0.09375 0.09046-0.27808 0.1388-0.5794 0.1875-0.875 0.053-0.318 0.094-0.634 0.094-0.969v-2-68-2c0-3.324-2.676-6-6-6h-72z"/>
  <path id="path3615-6" style="opacity:.15;fill:url(#radialGradient3619-3)" d="m12 90c-3.324 0-6-2.676-6-6v-2-68-2c0-0.33472 0.04135-0.6507 0.09375-0.96875 0.0487-0.2956 0.09704-0.59692 0.1875-0.875 0.0099-0.03 0.0209-0.063 0.0313-0.094 0.0989-0.2873 0.2349-0.547 0.375-0.812 0.1446-0.2735 0.3156-0.5356 0.5-0.7812 0.1844-0.2457 0.3738-0.4735 0.5937-0.6876 0.44-0.428 0.943-0.8145 1.5-1.0937 0.2786-0.1396 0.5735-0.2469 0.8748-0.3437-0.256 0.1002-0.4865 0.2362-0.7185 0.375-0.00741 0.0044-0.023866-0.0045-0.03125 0-0.031933 0.0193-0.062293 0.04251-0.09375 0.0625-0.1204 0.0767-0.23102 0.16351-0.34375 0.25-0.10617 0.0808-0.21328 0.16111-0.3125 0.25-0.1779 0.1614-0.3474 0.3453-0.5 0.5312-0.1075 0.1303-0.2183 0.2653-0.3124 0.4063-0.0251 0.0383-0.0385 0.0858-0.0626 0.125-0.0647 0.103-0.1302 0.2045-0.1874 0.3124-0.1011 0.1948-0.2057 0.4158-0.2813 0.625-0.008 0.0219-0.0236 0.0406-0.0313 0.0626-0.0318 0.0919-0.0358 0.1868-0.0624 0.2812-0.0304 0.1066-0.0704 0.203-0.0938 0.3125-0.0729 0.3415-0.125 0.6985-0.125 1.0625v2 68 2c0 2.7818 2.2182 5 5 5h2 68 2c2.7818 0 5-2.2182 5-5v-2-68-2c0-0.364-0.052-0.721-0.125-1.0625-0.044-0.2069-0.088-0.3977-0.156-0.5937-0.008-0.022-0.024-0.0407-0.031-0.0626-0.063-0.1737-0.139-0.3674-0.219-0.5312-0.042-0.0828-0.079-0.17-0.125-0.25-0.055-0.0972-0.127-0.1884-0.188-0.2812-0.094-0.141-0.205-0.276-0.312-0.4063-0.143-0.1745-0.303-0.347-0.469-0.5-0.011-0.0102-0.02-0.0211-0.031-0.0313-0.139-0.1255-0.285-0.2344-0.438-0.3437-0.102-0.0731-0.204-0.1534-0.312-0.2187-0.0074-0.0045-0.02384 0.0044-0.03125 0-0.23204-0.13873-0.46255-0.27478-0.71875-0.375 0.30153 0.0968 0.59646 0.20414 0.875 0.34375 0.55709 0.27922 1.0601 0.66569 1.5 1.0938 0.21997 0.21403 0.40937 0.44186 0.59375 0.6875s0.35541 0.50774 0.5 0.78125c0.14012 0.26505 0.27614 0.52473 0.375 0.8125 0.01041 0.03078 0.02133 0.06274 0.03125 0.09375 0.09046 0.27808 0.1388 0.5794 0.1875 0.875 0.053 0.318 0.094 0.634 0.094 0.969v2 68 2c0 3.324-2.676 6-6 6h-72z"/>
 </g>
 <g id="layer5" style="display:none">
  <rect id="rect3171" style="opacity:.1;filter:url(#filter3794);stroke:#fff;stroke-linecap:round;stroke-width:.5;fill:url(#linearGradient3613)" clip-path="url(#clipPath3613)" rx="12" ry="12" height="66" width="66" y="15" x="15"/>
 </g>
 <g id="layer6">
  <path id="path3897" style="opacity:.1;color:#000000" d="m47.719 16.844c-2.0046 0.26478-1.9663 2.6501-2.3338 4.145-0.8139 2.7393-1.4954 5.9776-3.9474 7.73-3.2699 0.03566-5.8886-2.4623-8.3147-4.3757-0.953-1.156-2.711-2.486-4.123-1.218-1.4807 1.1865-0.35305 3.1015 0.27947 4.4068 0.97954 2.8156 2.4551 5.9447 1.4705 8.9369-2.6721 1.9432-6.2912 1.4147-9.4106 1.2827-1.421-0.361-3.474-0.481-4.027 1.248-0.50905 1.4776 0.78976 2.6785 2.0702 3.122 2.799 1.784 6.199 3.586 7.368 6.878-1.1688 3.2923-4.5692 5.0935-7.3673 6.878-1.4456 0.43414-2.7592 1.9832-1.9139 3.497 1.2181 1.9812 3.7012 0.61992 5.5157 0.75326 2.601 0.14154 6.6889-0.6207 8.0219 2.1532 0.41744 3.7655-1.4673 7.2834-2.7563 10.687-0.33396 1.9845 2.4053 3.2732 3.7188 1.75 2.6466-2.3262 5.5022-5.0922 9.1576-5.483 2.6684 1.27 3.2803 4.7537 4.1506 7.3447 0.56801 1.5541 0.20623 4.1866 2.348 4.5758 1.6476 0.34561 2.7087-1.3399 2.6787-2.8014 0.83616-3.1916 1.4844-6.9745 4.2588-9.0736 3.2699-0.03566 5.8886 2.4623 8.3147 4.3757 0.952 1.156 2.71 2.486 4.122 1.218 1.481-1.186 0.353-3.102-0.279-4.407-0.98-2.815-2.456-5.945-1.471-8.937 2.672-1.943 6.291-1.414 9.411-1.282 1.421 0.36 3.474 0.48 4.027-1.249 0.509-1.478-0.79-2.678-2.071-3.122-2.798-1.784-6.198-3.586-7.367-6.878 1.169-3.292 4.569-5.094 7.367-6.878 1.446-0.434 2.76-1.983 1.914-3.497-1.218-1.981-3.701-0.62-5.515-0.753-2.601-0.142-6.689 0.62-8.022-2.153-0.418-3.766 1.467-7.284 2.756-10.688 0.33396-1.9845-2.4053-3.2732-3.7188-1.75-2.6466 2.3262-5.5022 5.0922-9.1576 5.483-2.673-1.2744-3.2861-4.7664-4.1538-7.3643-0.54229-1.5679-0.23597-4.2585-2.4386-4.5563-0.18743 0.0026-0.37519-0.003-0.5625 0zm0.281 21.031c6.5833-0.21886 12.21 6.3488 10.997 12.821-0.78934 6.5234-8.1018 11.076-14.309 8.9293-6.321-1.751-9.739-9.634-6.717-15.452 1.783-3.796 5.831-6.348 10.029-6.298z"/>
  <path id="path3892" style="opacity:.15;color:#000000" d="m47.812 18a1.0065 1.0065 0 0 0 -0.812 0.844s-0.42056 2.5372-1.3438 5.2188c-0.46159 1.3408-1.0377 2.688-1.7188 3.75-0.68108 1.062-1.4561 1.7725-2.1562 2-0.70241 0.22823-1.7324 0.10998-2.9062-0.34375s-2.4656-1.194-3.625-2c-2.319-1.612-4.125-3.407-4.125-3.407a1.0065 1.0065 0 0 0 -1.625 1.157s1.1288 2.3047 1.9375 5c0.40435 1.3476 0.71521 2.7777 0.78125 4.0312 0.06604 1.2536-0.12737 2.2761-0.5625 2.875-0.4326 0.59542-1.342 1.1186-2.5625 1.4375-1.2205 0.31888-2.707 0.44502-4.125 0.46875-2.8359 0.04746-5.375-0.34375-5.375-0.34375a1.0065 1.0065 0 0 0 -0.625 1.9062s2.3136 1.1855 4.5938 2.9062c1.1401 0.86036 2.2572 1.8622 3.0625 2.8438 0.80529 0.98154 1.25 1.9223 1.25 2.6562 0 0.73398-0.44471 1.6747-1.25 2.6562-0.80529 0.98154-1.9224 1.9834-3.0625 2.8438-2.2802 1.7207-4.5938 2.9062-4.5938 2.9062a1.0065 1.0065 0 0 0 0.625 1.9062s2.5391-0.39121 5.375-0.34375c1.418 0.02373 2.9045 0.14987 4.125 0.46875s2.1299 0.84208 2.5625 1.4375c0.43513 0.5989 0.62854 1.6214 0.5625 2.875s-0.3769 2.6836-0.78125 4.0312c-0.8087 2.6953-1.9375 5-1.9375 5a1.0065 1.0065 0 0 0 1.625 1.1562s1.8061-1.7942 4.125-3.4062c1.1594-0.80605 2.4512-1.5463 3.625-2 1.1738-0.45373 2.2038-0.57198 2.9062-0.34375 0.70017 0.2275 1.4752 0.938 2.1562 2 0.68108 1.062 1.2572 2.4092 1.7188 3.75 0.923 2.682 1.344 5.219 1.344 5.219a1.0065 1.0065 0 0 0 2 0s0.42056-2.5372 1.3438-5.2188c0.46159-1.3408 1.0377-2.688 1.7188-3.75 0.68108-1.062 1.4561-1.7725 2.1562-2 0.70241-0.22823 1.7324-0.10998 2.9062 0.34375s2.4656 1.194 3.625 2c2.3189 1.6121 4.125 3.4062 4.125 3.4062a1.0065 1.0065 0 0 0 1.625 -1.156s-1.1288-2.3047-1.9375-5c-0.40435-1.3476-0.71521-2.7777-0.78125-4.0312-0.06604-1.2536 0.12737-2.2761 0.5625-2.875 0.4326-0.59542 1.342-1.1186 2.5625-1.4375 1.2205-0.31888 2.707-0.44502 4.125-0.46875 2.8359-0.04746 5.375 0.34375 5.375 0.34375a1.0065 1.0065 0 0 0 0.625 -1.9062s-2.3136-1.1855-4.5938-2.9062c-1.14-0.86-2.257-1.862-3.062-2.844-0.805-0.981-1.25-1.922-1.25-2.656 0-0.73398 0.44471-1.6747 1.25-2.6562 0.80529-0.98154 1.9224-1.9834 3.0625-2.8438 2.2802-1.7207 4.5938-2.9062 4.5938-2.9062a1.0065 1.0065 0 0 0 -0.625 -1.9062s-2.5391 0.39121-5.375 0.34375c-1.418-0.02373-2.9045-0.14987-4.125-0.46875s-2.1299-0.84208-2.5625-1.4375c-0.43513-0.5989-0.62854-1.6214-0.5625-2.875s0.3769-2.6836 0.78125-4.0312c0.8087-2.6953 1.9375-5 1.9375-5a1.0065 1.0065 0 0 0 -1.625 -1.157s-1.8061 1.7942-4.125 3.4062c-1.1594 0.80605-2.4512 1.5463-3.625 2-1.1738 0.45373-2.2038 0.57198-2.9062 0.34375-0.70017-0.2275-1.4752-0.938-2.1562-2-0.68108-1.062-1.2572-2.4092-1.7188-3.75-0.923-2.681-1.344-5.218-1.344-5.218a1.0065 1.0065 0 0 0 -1.188 -0.844zm0.188 18.75c6.7683 0 12.25 5.4817 12.25 12.25s-5.4817 12.25-12.25 12.25-12.25-5.4817-12.25-12.25 5.4817-12.25 12.25-12.25z"/>
  <path id="path3886" style="opacity:.3;color:#000000" d="m48 19s-1.7298 10.439-5.8966 11.793c-4.1667 1.3539-11.69-6-11.69-6s4.6441 9.3866 2.069 12.931c-2.5752 3.5444-13.034 1.9655-13.034 1.9655s9.4138 4.9292 9.4138 9.3103c0 4.3812-9.4138 9.3103-9.4138 9.3103s10.459-1.5789 13.034 1.9655c2.5752 3.5444-2.069 12.931-2.069 12.931s7.5229-7.3539 11.69-6c4.167 1.354 5.897 11.793 5.897 11.793s1.7298-10.439 5.8966-11.793c4.1667-1.3539 11.69 6 11.69 6s-4.6441-9.3866-2.069-12.931c2.5752-3.5444 13.034-1.9655 13.034-1.9655s-9.4138-4.9292-9.4138-9.3103c0-4.3812 9.4138-9.3103 9.4138-9.3103s-10.459 1.5789-13.034-1.9655c-2.5752-3.5444 2.069-12.931 2.069-12.931s-7.5229 7.3539-11.69 6c-4.167-1.354-5.897-11.793-5.897-11.793zm0 16.759c7.313 0 13.241 5.9284 13.241 13.241 0 7.313-5.9284 13.241-13.241 13.241-7.313 0-13.241-5.9284-13.241-13.241 0-7.313 5.9284-13.241 13.241-13.241z"/>
  <rect id="rect3897" style="color:#000000;fill:url(#linearGradient3905)" transform="matrix(0,1,1,0,0,0)" height="16" width="16" y="104" x="0"/>
  <text id="text3907" y="48" x="104" xml:space="preserve" style="font-size:4px;letter-spacing:0px;word-spacing:0px;font-family:Liberation Sans;line-height:125%;fill:#000000"><tspan id="tspan3909" y="48" x="104">Shadow opacity : 30, 15, 10, (8)</tspan></text>
  <rect id="rect3911" style="color:#000000;fill:url(#linearGradient3913)" transform="rotate(-90)" height="16" width="16" y="104" x="-40"/>
  <text id="text3951" y="32" x="124" xml:space="preserve" style="font-size:4px;letter-spacing:0px;word-spacing:0px;font-family:Liberation Sans;line-height:125%;fill:#000000"><tspan id="tspan3953" y="32" x="124">Bevel opacity : 30 / 10</tspan></text>
  <text id="text3955" y="8" x="124" xml:space="preserve" style="font-size:4px;letter-spacing:0px;word-spacing:0px;font-family:Liberation Sans;line-height:125%;fill:#000000"><tspan id="tspan3957" y="8" x="124">Bevel opacity : 75 / 15</tspan></text>
  <path id="path2880" style="color:#000000;fill:url(#linearGradient3042)" d="m48 18s-1.7298 10.439-5.8966 11.793c-4.1667 1.3539-11.69-6-11.69-6s4.6441 9.3866 2.069 12.931c-2.5752 3.5444-13.034 1.9655-13.034 1.9655s9.4138 4.9292 9.4138 9.3103c0 4.3812-9.4138 9.3103-9.4138 9.3103s10.459-1.5789 13.034 1.9655c2.5752 3.5444-2.069 12.931-2.069 12.931s7.5229-7.3539 11.69-6c4.167 1.354 5.897 11.793 5.897 11.793s1.7298-10.439 5.8966-11.793c4.1667-1.3539 11.69 6 11.69 6s-4.6441-9.3866-2.069-12.931c2.5752-3.5444 13.034-1.9655 13.034-1.9655s-9.4138-4.9292-9.4138-9.3103c0-4.3812 9.4138-9.3103 9.4138-9.3103s-10.459 1.5789-13.034-1.9655c-2.5752-3.5444 2.069-12.931 2.069-12.931s-7.5229 7.3539-11.69 6c-4.167-1.354-5.897-11.793-5.897-11.793zm0 16.759c7.313 0 13.241 5.9284 13.241 13.241 0 7.313-5.9284 13.241-13.241 13.241-7.313 0-13.241-5.9284-13.241-13.241 0-7.313 5.9284-13.241 13.241-13.241z"/>
  <path id="path3868" style="opacity:.75;color:#000000;fill:#fff" d="m48 18s-1.7395 10.427-5.9062 11.781c-4.1667 1.3539-11.688-6-11.688-6s0.33078 0.65527 0.75 1.6562c1.6953 1.5557 7.388 6.4971 10.938 5.3438 4.166-1.354 5.906-11.781 5.906-11.781s1.7395 10.427 5.9062 11.781c3.5495 1.1533 9.2422-3.788 10.938-5.3438 0.41922-1.001 0.75-1.6562 0.75-1.6562s-7.5208 7.3539-11.688 6c-4.166-1.354-5.906-11.781-5.906-11.781zm-14.75 16.219c-0.05344 0.97497-0.2984 1.8354-0.78125 2.5-2.5752 3.5444-13.031 1.9688-13.031 1.9688s0.88328 0.48431 2.0625 1.2188c3.1695 0.26112 9.1052 0.37747 10.969-2.1875 0.6438-0.88611 0.8545-2.1216 0.78125-3.5zm29.5 0c-0.07325 1.3784 0.13745 2.6139 0.78125 3.5 1.8636 2.565 7.7992 2.4486 10.969 2.1875 1.1792-0.73444 2.0625-1.2188 2.0625-1.2188s-10.456 1.5757-13.031-1.9688c-0.48285-0.66458-0.72781-1.525-0.78125-2.5zm-33.938 14.281c-0.6721 4.2448-9.375 8.8125-9.375 8.8125s0.85217-0.11904 2.0625-0.21875c2.7662-1.7228 7.375-5.0221 7.375-8.0938 0-0.16922-0.0355-0.32946-0.0625-0.5zm5.9688 0c-0.006 0.169-0.031 0.33-0.031 0.5 0 7.313 5.937 13.25 13.25 13.25s13.25-5.937 13.25-13.25c0-0.1702-0.02488-0.33136-0.03125-0.5-0.267 7.077-6.076 12.75-13.219 12.75s-12.952-5.673-13.219-12.75zm32.406 0c-0.027 0.17054-0.0625 0.33078-0.0625 0.5 0 3.0717 4.6088 6.3709 7.375 8.0938 1.2103 0.09971 2.0625 0.21875 2.0625 0.21875s-8.7029-4.5677-9.375-8.8125zm-33.937 14.281c-0.21976 4.1353-2.8438 9.4375-2.8438 9.4375s0.4552-0.38571 0.75-0.65625c0.89117-2.1279 2.2512-5.908 2.0938-8.7812zm29.5 0c-0.15749 2.8733 1.2026 6.6534 2.0938 8.7812 0.2948 0.27054 0.75 0.65625 0.75 0.65625s-2.624-5.3022-2.8438-9.4375z"/>
  <path id="path3877" style="opacity:.15;color:#000000" d="m30.406 23.781s2.624 5.3022 2.8438 9.4375c0.15749-2.8733-1.2026-6.6534-2.0938-8.7812-0.2948-0.27054-0.75-0.65625-0.75-0.65625zm35.188 0s-0.4552 0.38571-0.75 0.65625c-0.89117 2.1279-2.2512 5.908-2.0938 8.7812 0.21976-4.1353 2.8438-9.4375 2.8438-9.4375zm-17.594 9.969c-7.313 0-13.25 5.937-13.25 13.25 0 0.1702 0.02488 0.33136 0.03125 0.5 0.267-7.077 6.076-12.75 13.219-12.75 7.1428 0 12.952 5.6725 13.219 12.75 0.006-0.169 0.031-0.33 0.031-0.5 0-7.313-5.937-13.25-13.25-13.25zm-28.562 4.9375s8.7029 4.5677 9.375 8.8125c0.027-0.17054 0.0625-0.33078 0.0625-0.5-0.000001-3.0717-4.6088-6.3709-7.375-8.0938-1.2103-0.09971-2.0625-0.21875-2.0625-0.21875zm57.125 0s-0.85217 0.11904-2.0625 0.21875c-2.7662 1.7228-7.375 5.0221-7.375 8.0938 0 0.16922 0.0355 0.32946 0.0625 0.5 0.6721-4.2448 9.375-8.8125 9.375-8.8125zm-51.563 17.281c-1.3137-0.02162-2.5204 0.0443-3.5 0.125-1.1792 0.73444-2.0625 1.2188-2.0625 1.2188s10.456-1.5757 13.031 1.9688c0.48285 0.66458 0.72781 1.525 0.78125 2.5 0.07325-1.3784-0.13745-2.6139-0.78125-3.5-1.288-1.773-4.532-2.265-7.469-2.313zm46 0c-2.9367 0.04832-6.1812 0.54028-7.4688 2.3125-0.6438 0.88611-0.8545 2.1216-0.78125 3.5 0.05344-0.97497 0.2984-1.8354 0.78125-2.5 2.5752-3.5444 13.031-1.9688 13.031-1.9688s-0.88328-0.48431-2.0625-1.2188c-0.9796-0.0807-2.1863-0.14662-3.5-0.125zm-30.594 9.093c-3.515 0.41585-7.8035 4.1725-9.25 5.5-0.41922 1.001-0.75 1.6562-0.75 1.6562s7.5208-7.3539 11.688-6c4.166 1.355 5.906 11.782 5.906 11.782s1.7395-10.427 5.9062-11.781c4.1667-1.3539 11.688 6 11.688 6s-0.33078-0.65527-0.75-1.6562c-1.696-1.556-7.388-6.498-10.938-5.344-4.166 1.354-5.906 11.781-5.906 11.781s-1.74-10.427-5.906-11.781c-0.521-0.169-1.083-0.228-1.688-0.157z"/>
 </g>
</svg>
